# https://github.com/mikedh/trimesh
v 0.02373500 0.09067200 0.09396100
v -0.04277600 0.07751800 0.07802600
v -0.04277600 0.07751800 0.08356700
v -0.00328400 0.05049200 0.09257300
v 0.01957700 0.06435100 0.04892800
v -0.01436300 0.11769800 0.04892800
v -0.03307300 0.05812300 0.04892800
v -0.02614500 0.11353700 0.09396100
v 0.01126100 0.11076500 0.04892800
v -0.04000000 0.09760500 0.04892800
v 0.00156400 0.11631500 0.09396100
v -0.03030300 0.05742500 0.09396100
v 0.01957700 0.06574000 0.09396100
v 0.00156400 0.05326400 0.04892800
v -0.04207900 0.09206100 0.09396100
v 0.02373500 0.08859800 0.04892800
v 0.01819500 0.10383900 0.09396100
v -0.04069800 0.06989400 0.04892800
v -0.02129700 0.05327100 0.04892800
v -0.03238200 0.10869200 0.04892800
v -0.04000000 0.06851200 0.09396100
v 0.00988000 0.05604200 0.09396100
v 0.02373500 0.07474600 0.08010200
v -0.03723100 0.10314800 0.09396100
v -0.01506000 0.11769800 0.09396100
v -0.00259300 0.11769800 0.05378600
v -0.01852100 0.05188200 0.09396100
v 0.01957700 0.10106800 0.04892800
v -0.04207900 0.08998100 0.04892800
v 0.01264900 0.05743200 0.04892800
v -0.02198800 0.11561700 0.04892800
v 0.02373500 0.07613600 0.04892800
v 0.02443200 0.08029700 0.09396100
v 0.00988000 0.11215400 0.09188100
v 0.00503100 0.11492000 0.04892800
v -0.01020500 0.05049200 0.08703200
v -0.03723100 0.06296800 0.06348300
v 0.01472800 0.05950500 0.08356700
v 0.02165600 0.09760500 0.07317300
v -0.02822400 0.05535100 0.05655400
v -0.00398200 0.05257300 0.04962900
v -0.00328400 0.11769800 0.09396100
v -0.00813300 0.11839600 0.05725000
v 0.00503100 0.05327100 0.08980000
v -0.04277600 0.08790000 0.09396100
v -0.04277600 0.08029000 0.06071100
v -0.03030300 0.11076500 0.09396100
v 0.02443200 0.08720900 0.06625600
v -0.03723100 0.10314800 0.04892800
v 0.01541900 0.10730200 0.07663700
v -0.03584900 0.06227700 0.09049700
v -0.02822400 0.11215400 0.04892800
v 0.02165600 0.06920300 0.09396100
v 0.00711000 0.05466000 0.05170500
v 0.02304400 0.07197500 0.05794200
v -0.03930900 0.09968500 0.09396100
v -0.02060600 0.11630900 0.08772400
v -0.04207900 0.07544400 0.04892800
v 0.02235300 0.09483300 0.04892800
v -0.04207900 0.07475300 0.09396100
v -0.03654000 0.10453100 0.07594500
v 0.01749800 0.10453100 0.05170500
v -0.03861900 0.06504900 0.04892800
v 0.01819500 0.06227700 0.05239700
f 14 30 54
f 32 23 55
f 44 4 54
f 30 44 54
f 5 32 55
f 53 5 55
f 8 25 57
f 10 15 56
f 15 24 56
f 49 10 56
f 25 6 57
f 4 14 54
f 23 53 55
f 33 13 53
f 1 33 48
f 13 5 53
f 20 47 52
f 47 8 52
f 8 31 52
f 31 20 52
f 21 37 51
f 37 7 51
f 12 21 51
f 7 12 51
f 34 17 50
f 9 34 50
f 20 10 49
f 6 31 57
f 23 33 53
f 31 8 57
f 13 38 64
f 29 18 58
f 33 32 48
f 30 5 64
f 5 13 64
f 37 21 63
f 7 37 63
f 21 18 63
f 18 7 63
f 50 17 62
f 9 50 62
f 17 28 62
f 28 9 62
f 49 56 61
f 56 24 61
f 18 2 58
f 20 49 61
f 47 20 61
f 21 45 60
f 45 3 60
f 18 21 60
f 2 18 60
f 3 2 60
f 1 48 59
f 48 16 59
f 28 39 59
f 39 1 59
f 16 28 59
f 2 46 58
f 46 29 58
f 24 47 61
f 32 16 48
f 4 36 41
f 2 45 46
f 1 13 33
f 23 32 33
f 5 16 32
f 6 20 31
f 24 8 47
f 10 18 29
f 15 10 29
f 16 9 28
f 22 12 27
f 4 22 27
f 8 11 25
f 15 8 24
f 13 12 22
f 11 17 34
f 12 15 21
f 7 14 19
f 10 7 18
f 11 1 17
f 5 9 16
f 12 8 15
f 7 5 14
f 1 12 13
f 1 8 12
f 8 1 11
f 6 7 10
f 5 6 9
f 6 5 7
f 38 30 64
f 6 10 20
f 9 6 35
f 14 5 30
f 6 26 35
f 45 29 46
f 15 29 45
f 21 15 45
f 2 3 45
f 30 22 44
f 22 4 44
f 25 42 43
f 26 11 35
f 6 25 43
f 42 26 43
f 11 26 42
f 25 11 42
f 36 19 41
f 26 6 43
f 34 9 35
f 19 14 41
f 11 34 35
f 4 27 36
f 27 19 36
f 22 30 38
f 17 1 39
f 13 22 38
f 12 7 40
f 7 19 40
f 27 12 40
f 19 27 40
f 14 4 41
f 28 17 39