# https://github.com/mikedh/trimesh
v 0.01334700 0.10938900 0.09743000
v -0.00328100 0.11770200 0.09673700
v -0.00051100 0.11700900 0.09743000
v -0.01229000 0.10869600 0.09673700
v 0.01334700 0.10938900 0.09396600
v -0.01229000 0.11770200 0.09396600
v -0.01229000 0.10869600 0.09396600
v -0.01229000 0.11770200 0.09743000
v 0.00364500 0.11562300 0.09396600
v 0.00988100 0.10869600 0.09743000
v 0.01334700 0.10869600 0.09396600
v 0.00641500 0.11423800 0.09743000
v -0.00328100 0.11770200 0.09396600
f 1 10 11
f 3 9 13
f 6 2 13
f 2 3 13
f 5 9 12
f 9 3 12
f 1 5 12
f 3 1 12
f 10 7 11
f 7 5 11
f 5 1 11
f 6 5 7
f 1 8 10
f 4 7 10
f 5 6 9
f 6 4 8
f 2 6 8
f 3 2 8
f 1 3 8
f 4 6 7
f 9 6 13
f 8 4 10