# https://github.com/mikedh/trimesh
v 0.01334600 0.05811500 0.10158800
v 0.00711100 0.05672800 0.09396600
v 0.00711100 0.05672800 0.09812200
v 0.00711100 0.06365700 0.09396600
v 0.01473200 0.06365700 0.09396600
v 0.01334600 0.06227100 0.10158800
v 0.01334600 0.05880700 0.09396600
v 0.00849700 0.05742200 0.10158800
v 0.00711100 0.06365700 0.09673800
v 0.01196100 0.05672800 0.09812200
v 0.01473200 0.05950100 0.10158800
v 0.01473200 0.06296400 0.10089400
v 0.01473200 0.06019300 0.09396600
f 8 3 10
f 10 7 13
f 5 11 13
f 7 5 13
f 11 5 12
f 6 11 12
f 5 9 12
f 9 6 12
f 1 10 11
f 6 1 11
f 1 8 10
f 2 3 4
f 3 2 10
f 3 8 9
f 5 4 9
f 4 3 9
f 8 6 9
f 1 6 8
f 2 5 7
f 2 4 5
f 11 10 13
f 2 7 10