# https://github.com/mikedh/trimesh
v -0.04347000 0.08167300 0.10158700
v -0.03515700 0.10730700 0.10089400
v -0.04347000 0.08167300 0.09881600
v -0.04277600 0.08167300 0.09812300
v -0.04139200 0.08167300 0.10158700
v -0.03169100 0.10661300 0.09812300
v -0.04208300 0.09483900 0.09881600
v -0.04208300 0.09345500 0.10228000
v -0.03238500 0.10730700 0.10228000
v -0.03723500 0.10384000 0.09812300
v -0.04139200 0.08167300 0.09812300
v -0.03862000 0.10245700 0.10158700
v -0.04347000 0.08860400 0.10158700
v -0.03238500 0.10938800 0.09881600
v -0.03169100 0.10661300 0.10089400
v -0.03377000 0.10800200 0.10228000
f 6 14 15
f 5 6 15
f 9 5 15
f 14 9 15
f 3 5 1
f 2 12 16
f 13 3 1
f 8 13 1
f 8 9 16
f 12 8 16
f 6 10 14
f 14 2 16
f 5 8 1
f 10 2 14
f 2 10 12
f 7 3 13
f 9 14 16
f 3 4 5
f 8 7 13
f 8 5 9
f 6 4 10
f 4 3 7
f 5 4 11
f 6 5 11
f 4 6 11
f 7 8 12
f 10 7 12
f 4 7 10