# https://github.com/mikedh/trimesh
v -0.01229000 0.11770200 0.09743000
v 0.01334600 0.10938900 0.09743000
v -0.00605300 0.11839500 0.10158700
v -0.00605300 0.11839500 0.09950900
v -0.01229000 0.11562400 0.09743000
v 0.01126600 0.10869600 0.10158700
v -0.01229000 0.11631600 0.10227900
v 0.00988000 0.11285300 0.10158700
v 0.00295200 0.11562400 0.09743000
v 0.00988000 0.10869600 0.09743000
v 0.00225900 0.11562400 0.10227900
v 0.00641600 0.11493100 0.09881600
v -0.01229000 0.11562400 0.10089400
v -0.01229000 0.11839500 0.10158700
v 0.01404000 0.10869600 0.10158700
v 0.00087500 0.11700900 0.10158700
f 2 8 15
f 1 7 14
f 7 3 14
f 10 2 15
f 4 1 14
f 6 10 15
f 11 8 16
f 8 11 15
f 4 3 16
f 9 4 16
f 3 11 16
f 8 12 16
f 11 6 15
f 3 4 14
f 9 5 1
f 5 10 13
f 10 6 13
f 12 9 16
f 2 5 9
f 5 2 10
f 4 9 1
f 5 7 1
f 7 6 11
f 8 2 12
f 2 9 12
f 6 7 13
f 7 5 13
f 3 7 11