# https://github.com/mikedh/trimesh
v 0.00503100 0.05257200 0.10089400
v -0.02406600 0.05395600 0.09396600
v -0.02406600 0.05672800 0.09396600
v -0.02268200 0.05326400 0.10228000
v 0.01126400 0.05672800 0.10089400
v -0.00328400 0.05049300 0.09396700
v 0.00918900 0.05672800 0.09396700
v -0.01229100 0.04980000 0.10158700
v -0.02406600 0.05534100 0.10158700
v 0.01057300 0.05672800 0.10158700
v -0.01159600 0.05049300 0.09396600
v -0.00536300 0.04980000 0.10158700
v -0.01990800 0.05118700 0.09950800
v -0.02406600 0.05672800 0.09673900
v 0.00918900 0.05464900 0.09812300
v -0.00813400 0.05049300 0.10228000
v -0.02337400 0.05257200 0.10158700
v 0.00433600 0.05326400 0.09396700
v -0.00397600 0.04980000 0.09950800
v -0.02129500 0.05257200 0.09396600
v 0.00988100 0.05534100 0.10158700
f 1 12 19
f 11 7 18
f 15 1 18
f 6 1 19
f 11 6 19
f 8 11 19
f 12 8 19
f 2 11 20
f 12 1 21
f 17 2 20
f 13 17 20
f 5 10 21
f 1 15 21
f 15 5 21
f 10 16 21
f 6 11 18
f 11 13 20
f 1 6 18
f 7 15 18
f 4 9 17
f 16 12 21
f 3 5 7
f 3 2 9
f 5 3 10
f 9 4 10
f 3 7 11
f 11 8 13
f 3 9 14
f 2 3 11
f 9 10 14
f 10 3 14
f 8 4 17
f 8 12 16
f 13 8 17
f 9 2 17
f 4 8 16
f 7 5 15
f 10 4 16