# https://github.com/mikedh/trimesh
v -0.02614700 0.11354500 0.09396600
v -0.01229200 0.11839600 0.10089400
v -0.01229200 0.11839600 0.10020000
v -0.01229200 0.10661700 0.09396600
v -0.03168900 0.10731100 0.10158700
v -0.03168900 0.10661700 0.09396600
v -0.01229200 0.11770200 0.09396600
v -0.01229200 0.10661700 0.09673900
v -0.03030300 0.11146700 0.10158700
v -0.01229200 0.11631600 0.10158700
v -0.02337500 0.11562300 0.10158700
v -0.01783500 0.11700900 0.09396600
v -0.03168900 0.10939000 0.09396600
v -0.02199100 0.11562300 0.10228000
v -0.03168900 0.10661700 0.09812300
v -0.02406800 0.11216000 0.10228000
v -0.02961000 0.11216000 0.09950800
v -0.01645000 0.11770200 0.10158700
f 9 5 16
f 8 10 16
f 14 9 16
f 10 14 16
f 9 11 17
f 11 1 17
f 2 3 18
f 13 9 17
f 6 8 15
f 10 2 18
f 3 12 18
f 12 11 18
f 14 10 18
f 1 13 17
f 8 5 15
f 5 8 16
f 11 9 14
f 5 6 15
f 3 2 4
f 1 4 6
f 3 4 7
f 4 1 7
f 4 2 8
f 6 4 8
f 11 14 18
f 7 1 12
f 3 7 12
f 1 11 12
f 1 6 13
f 6 5 13
f 5 9 13
f 8 2 10