# https://github.com/mikedh/trimesh
v -0.03792700 0.10245600 0.09743000
v -0.04277800 0.08167500 0.09396600
v -0.04277800 0.08167500 0.09812300
v -0.03169100 0.08167500 0.09396600
v -0.03238600 0.10869500 0.09396600
v -0.03169100 0.10592100 0.09812300
v -0.03307700 0.08167500 0.09743000
v -0.04139100 0.09484100 0.09396600
v -0.04208300 0.09207000 0.09812300
v -0.03238600 0.10869500 0.09812300
v -0.03169100 0.08167500 0.09673700
v -0.03169100 0.10869500 0.09396600
v -0.04277800 0.08860500 0.09396600
v -0.03723400 0.10314900 0.09396600
v -0.04069800 0.09691200 0.09812300
f 10 6 12
f 2 3 13
f 8 2 13
f 3 9 13
f 9 8 13
f 1 8 15
f 8 1 14
f 8 9 15
f 10 1 15
f 5 10 12
f 1 5 14
f 6 4 12
f 5 8 14
f 6 7 11
f 4 5 12
f 9 10 15
f 3 2 4
f 4 2 5
f 6 3 7
f 3 4 7
f 3 6 9
f 5 1 10
f 9 6 10
f 4 6 11
f 7 4 11
f 5 2 8