# https://github.com/mikedh/trimesh
v 0.01819700 0.09483600 0.09812200
v 0.01057500 0.08167300 0.09396700
v 0.01958300 0.08167300 0.09396700
v 0.01057500 0.08167300 0.09881600
v 0.01057500 0.09622200 0.09396700
v 0.01958300 0.09622200 0.09396700
v 0.01958300 0.08167300 0.09673700
v 0.01057500 0.09622200 0.09673700
v 0.01473300 0.09622200 0.09812200
v 0.01888900 0.08513900 0.09812200
v 0.01958300 0.09622200 0.09673700
f 4 1 9
f 9 1 11
f 6 9 11
f 7 6 11
f 10 7 11
f 4 7 10
f 1 4 10
f 8 4 9
f 6 8 9
f 5 4 8
f 3 6 7
f 4 3 7
f 3 5 6
f 2 4 5
f 3 2 5
f 2 3 4
f 1 10 11
f 6 5 8