# https://github.com/mikedh/trimesh
v -0.03030800 0.05742400 0.09604400
v -0.04277800 0.07959100 0.09396600
v -0.04277800 0.07959100 0.09743000
v -0.02407100 0.08166700 0.09396600
v -0.02407100 0.06504700 0.09743000
v -0.02407100 0.05465000 0.09396600
v -0.02753600 0.08166700 0.09673700
v -0.04000300 0.06850400 0.09396600
v -0.03584700 0.06296800 0.09743000
v -0.02407100 0.05465000 0.09743000
v -0.04277800 0.08166700 0.09743000
v -0.04277800 0.08166700 0.09396600
v -0.04069600 0.06989000 0.09743000
v -0.02407100 0.08166700 0.09604400
v -0.03307800 0.08166700 0.09743000
v -0.03030800 0.05742400 0.09396600
v -0.02823000 0.05603800 0.09743000
f 11 5 15
f 5 4 14
f 4 7 14
f 7 5 14
f 5 7 15
f 7 11 15
f 1 16 17
f 1 9 16
f 9 8 16
f 9 1 17
f 6 10 17
f 10 9 17
f 8 6 16
f 9 3 13
f 8 9 13
f 3 2 13
f 2 8 13
f 2 4 6
f 4 5 6
f 2 6 8
f 5 3 9
f 6 5 10
f 16 6 17
f 2 3 11
f 3 5 11
f 7 4 11
f 4 2 12
f 2 11 12
f 11 4 12
f 5 9 10