# https://github.com/mikedh/trimesh
v -0.02406900 0.05395900 0.10227900
v -0.03515500 0.06157700 0.09950900
v -0.03446100 0.06088500 0.09881600
v -0.03446100 0.06573500 0.09743000
v -0.02406900 0.05465200 0.09743000
v -0.03446100 0.06504100 0.10227900
v -0.02406900 0.05673000 0.09812400
v -0.03030400 0.05673000 0.10158700
v -0.02822800 0.05603700 0.09743000
v -0.03515500 0.06157700 0.10227900
v -0.02406900 0.05603700 0.10158700
v -0.02476400 0.05326400 0.09950900
v -0.03515500 0.06227000 0.09743000
f 7 6 11
f 2 10 13
f 4 9 13
f 9 3 13
f 3 2 13
f 8 9 12
f 9 5 12
f 1 8 12
f 5 1 12
f 1 7 11
f 6 1 11
f 10 4 13
f 2 8 10
f 8 1 10
f 1 5 7
f 5 4 7
f 2 3 8
f 4 6 7
f 8 3 9
f 1 6 10
f 6 4 10
f 4 5 9