# https://github.com/mikedh/trimesh
v -0.01229200 0.09552800 0.09812300
v -0.03168900 0.08167500 0.09396600
v -0.01229200 0.08167500 0.09396600
v -0.03168900 0.10661400 0.09396600
v -0.03168900 0.08167500 0.09673700
v -0.01229200 0.10661400 0.09396600
v -0.03168900 0.10661400 0.09673700
v -0.01298500 0.08167500 0.09812300
v -0.01229200 0.10661400 0.09673700
v -0.01783500 0.08791300 0.09812300
f 5 8 10
f 7 5 10
f 1 7 10
f 7 1 9
f 6 7 9
f 1 6 9
f 3 1 8
f 5 3 8
f 6 4 7
f 3 4 6
f 1 3 6
f 4 2 5
f 2 3 5
f 3 2 4
f 8 1 10
f 4 5 7