# https://github.com/mikedh/trimesh
v 0.01819700 0.10522900 0.10158800
v 0.01057500 0.09622300 0.09396600
v 0.01958300 0.09622300 0.09396600
v 0.01057500 0.10869500 0.09396600
v 0.01057500 0.09761100 0.09812200
v 0.01196100 0.10869500 0.10158800
v 0.01958300 0.09830200 0.10089400
v 0.01958300 0.10176800 0.09396600
v 0.01404000 0.10869500 0.09396600
v 0.01404000 0.09622300 0.09812200
v 0.01611800 0.10800200 0.10020100
v 0.01888900 0.09968900 0.10158800
v 0.01057500 0.10869500 0.09812200
v 0.01958300 0.10315000 0.10158800
f 9 6 11
f 8 9 11
f 1 6 12
f 6 5 12
f 5 6 13
f 4 5 13
f 6 4 13
f 1 8 11
f 8 1 14
f 5 7 12
f 6 1 11
f 8 4 9
f 7 5 10
f 5 2 10
f 2 3 10
f 4 6 9
f 7 3 8
f 3 4 8
f 4 2 5
f 3 2 4
f 12 7 14
f 7 8 14
f 3 7 10
f 1 12 14