# Blender 4.4.3
# www.blender.org
mtllib Mesh_18.013.mtl
o Mesh_18.013
v 0.017230 0.008776 -0.012503
v 0.017230 0.008830 -0.012503
v 0.017230 0.008827 -0.012505
v 0.017230 0.008824 -0.012507
v 0.017230 0.008821 -0.012509
v 0.017230 0.008817 -0.012510
v 0.017230 0.008810 -0.012512
v 0.017230 0.008814 -0.012512
v 0.017230 0.008807 -0.012513
v 0.017230 0.008803 -0.012513
v 0.017230 0.008799 -0.012513
v 0.017230 0.008796 -0.012512
v 0.017230 0.008792 -0.012512
v 0.017230 0.008789 -0.012510
v 0.017230 0.008785 -0.012509
v 0.017230 0.008782 -0.012507
v 0.017230 0.008779 -0.012505
v 0.017230 0.008773 -0.012500
v 0.017230 0.008833 -0.012500
v 0.017230 0.008770 -0.012497
v 0.017230 0.008836 -0.012497
v 0.017230 0.008766 -0.012493
v 0.017230 0.008840 -0.012493
v 0.017230 0.008763 -0.012490
v 0.017230 0.008843 -0.012490
v 0.017230 0.008760 -0.012486
v 0.017230 0.008846 -0.012486
v 0.017230 0.008757 -0.012483
v 0.017230 0.008849 -0.012483
v 0.017230 0.008754 -0.012479
v 0.017230 0.008852 -0.012479
v 0.017230 0.008854 -0.012475
v 0.017230 0.008752 -0.012475
v 0.017230 0.008749 -0.012471
v 0.017230 0.008744 -0.012463
v 0.017230 0.008859 -0.012467
v 0.017230 0.008747 -0.012467
v 0.017230 0.008857 -0.012471
v 0.017230 0.008872 -0.012442
v 0.017230 0.008870 -0.012447
v 0.017230 0.008872 -0.012440
v 0.017230 0.008868 -0.012451
v 0.017230 0.008866 -0.012455
v 0.017230 0.008734 -0.012440
v 0.017230 0.008738 -0.012451
v 0.017230 0.008740 -0.012455
v 0.017230 0.008736 -0.012447
v 0.017230 0.008864 -0.012459
v 0.017230 0.008742 -0.012459
v 0.017230 0.008862 -0.012463
v 0.017230 0.008734 -0.012442
v 0.017460 0.008734 -0.012440
v 0.017460 0.008734 -0.012442
v 0.017460 0.008736 -0.012447
v 0.017460 0.008738 -0.012451
v 0.017460 0.008740 -0.012455
v 0.017460 0.008866 -0.012455
v 0.017460 0.008742 -0.012459
v 0.017460 0.008864 -0.012459
v 0.017460 0.008744 -0.012463
v 0.017460 0.008862 -0.012463
v 0.017460 0.008747 -0.012467
v 0.017460 0.008749 -0.012471
v 0.017460 0.008859 -0.012467
v 0.017460 0.008857 -0.012471
v 0.017460 0.008854 -0.012475
v 0.017460 0.008752 -0.012475
v 0.017460 0.008754 -0.012479
v 0.017460 0.008852 -0.012479
v 0.017460 0.008757 -0.012483
v 0.017460 0.008849 -0.012483
v 0.017460 0.008760 -0.012486
v 0.017460 0.008846 -0.012486
v 0.017460 0.008840 -0.012493
v 0.017460 0.008843 -0.012490
v 0.017460 0.008766 -0.012493
v 0.017460 0.008836 -0.012497
v 0.017460 0.008770 -0.012497
v 0.017460 0.008773 -0.012500
v 0.017460 0.008830 -0.012503
v 0.017460 0.008833 -0.012500
v 0.017460 0.008776 -0.012503
v 0.017460 0.008827 -0.012505
v 0.017460 0.008824 -0.012507
v 0.017460 0.008779 -0.012505
v 0.017460 0.008782 -0.012507
v 0.017460 0.008785 -0.012509
v 0.017460 0.008792 -0.012512
v 0.017460 0.008789 -0.012510
v 0.017460 0.008796 -0.012512
v 0.017460 0.008799 -0.012513
v 0.017460 0.008803 -0.012513
v 0.017460 0.008807 -0.012513
v 0.017460 0.008810 -0.012512
v 0.017460 0.008814 -0.012512
v 0.017460 0.008817 -0.012510
v 0.017460 0.008821 -0.012509
v 0.017460 0.008763 -0.012490
v 0.017460 0.008872 -0.012440
v 0.017460 0.008868 -0.012451
v 0.017460 0.008872 -0.012442
v 0.017460 0.008870 -0.012447
v 0.017460 0.008734 -0.012442
v 0.017460 0.008734 -0.012440
v 0.017402 0.008734 -0.012442
v 0.017460 0.008734 -0.012440
v 0.017230 0.008734 -0.012440
v 0.017230 0.008734 -0.012442
v 0.017345 0.008734 -0.012442
v 0.017460 0.008734 -0.012440
v 0.017287 0.008734 -0.012442
v 0.017460 0.008734 -0.012440
v 0.017460 0.008734 -0.012440
v 0.017230 0.008734 -0.012442
v 0.017325 0.008805 -0.012440
v 0.017325 0.008803 -0.012513
v 0.017325 0.008803 -0.012440
v 0.017325 0.008807 -0.012513
v 0.017325 0.008805 -0.012513
v 0.017324 0.008809 -0.012512
v 0.017325 0.008807 -0.012440
v 0.017324 0.008809 -0.012440
v 0.017324 0.008811 -0.012512
v 0.017324 0.008811 -0.012440
v 0.017323 0.008813 -0.012512
v 0.017323 0.008813 -0.012440
v 0.017322 0.008815 -0.012511
v 0.017323 0.008815 -0.012440
v 0.017322 0.008817 -0.012440
v 0.017321 0.008817 -0.012510
v 0.017320 0.008819 -0.012510
v 0.017321 0.008819 -0.012440
v 0.017319 0.008821 -0.012509
v 0.017320 0.008820 -0.012440
v 0.017318 0.008822 -0.012440
v 0.017318 0.008822 -0.012508
v 0.017317 0.008824 -0.012507
v 0.017315 0.008825 -0.012506
v 0.017317 0.008823 -0.012440
v 0.017311 0.008829 -0.012504
v 0.017311 0.008829 -0.012440
v 0.017309 0.008830 -0.012503
v 0.017309 0.008830 -0.012440
v 0.017312 0.008827 -0.012440
v 0.017312 0.008828 -0.012505
v 0.017314 0.008826 -0.012440
v 0.017314 0.008826 -0.012506
v 0.017316 0.008825 -0.012440
v 0.017325 0.008801 -0.012513
v 0.017325 0.008801 -0.012440
v 0.017325 0.008799 -0.012513
v 0.017325 0.008798 -0.012440
v 0.017324 0.008797 -0.012512
v 0.017324 0.008796 -0.012440
v 0.017324 0.008795 -0.012512
v 0.017323 0.008793 -0.012512
v 0.017323 0.008793 -0.012440
v 0.017323 0.008791 -0.012440
v 0.017322 0.008791 -0.012511
v 0.017321 0.008789 -0.012510
v 0.017322 0.008789 -0.012440
v 0.017320 0.008787 -0.012510
v 0.017320 0.008787 -0.012440
v 0.017319 0.008785 -0.012440
v 0.017319 0.008785 -0.012509
v 0.017317 0.008783 -0.012440
v 0.017315 0.008781 -0.012506
v 0.017316 0.008781 -0.012440
v 0.017317 0.008782 -0.012507
v 0.017318 0.008784 -0.012508
v 0.017314 0.008780 -0.012506
v 0.017312 0.008779 -0.012505
v 0.017311 0.008777 -0.012504
v 0.017312 0.008778 -0.012440
v 0.017314 0.008780 -0.012440
v 0.017309 0.008776 -0.012503
v 0.017310 0.008777 -0.012440
v 0.017307 0.008776 -0.012502
v 0.017308 0.008776 -0.012440
v 0.017306 0.008775 -0.012502
v 0.017305 0.008775 -0.012440
v 0.017304 0.008774 -0.012501
v 0.017303 0.008774 -0.012440
v 0.017302 0.008774 -0.012501
v 0.017301 0.008774 -0.012440
v 0.017300 0.008774 -0.012500
v 0.017299 0.008773 -0.012500
v 0.017297 0.008773 -0.012500
v 0.017298 0.008773 -0.012440
v 0.017296 0.008773 -0.012440
v 0.017295 0.008773 -0.012500
v 0.017293 0.008773 -0.012500
v 0.017293 0.008773 -0.012440
v 0.017291 0.008773 -0.012440
v 0.017291 0.008773 -0.012500
v 0.017289 0.008774 -0.012440
v 0.017289 0.008774 -0.012500
v 0.017286 0.008774 -0.012440
v 0.017288 0.008774 -0.012501
v 0.017284 0.008775 -0.012440
v 0.017286 0.008774 -0.012501
v 0.017284 0.008775 -0.012502
v 0.017282 0.008776 -0.012440
v 0.017283 0.008776 -0.012502
v 0.017281 0.008776 -0.012503
v 0.017280 0.008777 -0.012440
v 0.017279 0.008777 -0.012504
v 0.017278 0.008779 -0.012440
v 0.017278 0.008778 -0.012505
v 0.017276 0.008780 -0.012506
v 0.017276 0.008780 -0.012440
v 0.017274 0.008782 -0.012440
v 0.017275 0.008781 -0.012506
v 0.017273 0.008782 -0.012507
v 0.017272 0.008784 -0.012440
v 0.017272 0.008784 -0.012508
v 0.017271 0.008785 -0.012509
v 0.017271 0.008785 -0.012440
v 0.017269 0.008787 -0.012440
v 0.017268 0.008790 -0.012440
v 0.017270 0.008787 -0.012510
v 0.017269 0.008789 -0.012510
v 0.017267 0.008792 -0.012440
v 0.017268 0.008791 -0.012511
v 0.017267 0.008793 -0.012512
v 0.017266 0.008794 -0.012440
v 0.017266 0.008795 -0.012512
v 0.017265 0.008799 -0.012440
v 0.017266 0.008796 -0.012440
v 0.017266 0.008797 -0.012512
v 0.017265 0.008799 -0.012513
v 0.017266 0.008809 -0.012512
v 0.017266 0.008811 -0.012512
v 0.017266 0.008811 -0.012440
v 0.017265 0.008801 -0.012440
v 0.017265 0.008801 -0.012513
v 0.017269 0.008817 -0.012510
v 0.017270 0.008819 -0.012510
v 0.017269 0.008818 -0.012440
v 0.017273 0.008824 -0.012507
v 0.017273 0.008824 -0.012440
v 0.017272 0.008822 -0.012440
v 0.017279 0.008829 -0.012504
v 0.017277 0.008827 -0.012440
v 0.017278 0.008827 -0.012505
v 0.017281 0.008829 -0.012440
v 0.017283 0.008830 -0.012502
v 0.017283 0.008831 -0.012440
v 0.017288 0.008832 -0.012501
v 0.017288 0.008832 -0.012440
v 0.017285 0.008831 -0.012440
v 0.017291 0.008833 -0.012500
v 0.017290 0.008833 -0.012440
v 0.017289 0.008832 -0.012500
v 0.017293 0.008833 -0.012500
v 0.017295 0.008833 -0.012440
v 0.017292 0.008833 -0.012440
v 0.017295 0.008833 -0.012500
v 0.017297 0.008833 -0.012500
v 0.017299 0.008833 -0.012500
v 0.017297 0.008833 -0.012440
v 0.017300 0.008832 -0.012500
v 0.017300 0.008833 -0.012440
v 0.017302 0.008832 -0.012501
v 0.017302 0.008832 -0.012440
v 0.017304 0.008832 -0.012501
v 0.017304 0.008831 -0.012440
v 0.017307 0.008830 -0.012502
v 0.017307 0.008831 -0.012440
v 0.017306 0.008831 -0.012502
v 0.017286 0.008832 -0.012501
v 0.017284 0.008831 -0.012502
v 0.017281 0.008830 -0.012503
v 0.017279 0.008828 -0.012440
v 0.017276 0.008826 -0.012506
v 0.017275 0.008825 -0.012440
v 0.017275 0.008825 -0.012506
v 0.017272 0.008822 -0.012508
v 0.017270 0.008820 -0.012440
v 0.017271 0.008821 -0.012509
v 0.017268 0.008816 -0.012440
v 0.017268 0.008815 -0.012511
v 0.017267 0.008813 -0.012440
v 0.017267 0.008813 -0.012512
v 0.017266 0.008809 -0.012440
v 0.017265 0.008807 -0.012513
v 0.017265 0.008806 -0.012440
v 0.017265 0.008805 -0.012513
v 0.017265 0.008804 -0.012440
v 0.017265 0.008803 -0.012513
v 0.017287 0.008872 -0.012442
v 0.017230 0.008872 -0.012442
v 0.017460 0.008872 -0.012440
v 0.017230 0.008872 -0.012442
v 0.017230 0.008872 -0.012440
v 0.017460 0.008872 -0.012440
v 0.017402 0.008872 -0.012442
v 0.017345 0.008872 -0.012442
v 0.017460 0.008872 -0.012440
v 0.017460 0.008872 -0.012442
v 0.017460 0.008872 -0.012440
v 0.017460 0.008872 -0.012440
v 0.017311 0.008829 -0.012440
v 0.017312 0.008827 -0.012440
v 0.017460 0.008872 -0.012440
v 0.017311 0.008829 -0.012440
v 0.017460 0.008872 -0.012440
v 0.017309 0.008830 -0.012440
v 0.017312 0.008827 -0.012440
v 0.017314 0.008826 -0.012440
v 0.017460 0.008872 -0.012440
v 0.017314 0.008826 -0.012440
v 0.017316 0.008825 -0.012440
v 0.017460 0.008872 -0.012440
v 0.017316 0.008825 -0.012440
v 0.017317 0.008823 -0.012440
v 0.017460 0.008872 -0.012440
v 0.017317 0.008823 -0.012440
v 0.017318 0.008822 -0.012440
v 0.017460 0.008872 -0.012440
v 0.017318 0.008822 -0.012440
v 0.017320 0.008820 -0.012440
v 0.017460 0.008872 -0.012440
v 0.017320 0.008820 -0.012440
v 0.017321 0.008819 -0.012440
v 0.017460 0.008872 -0.012440
v 0.017321 0.008819 -0.012440
v 0.017322 0.008817 -0.012440
v 0.017460 0.008872 -0.012440
v 0.017322 0.008817 -0.012440
v 0.017323 0.008815 -0.012440
v 0.017460 0.008872 -0.012440
v 0.017323 0.008815 -0.012440
v 0.017323 0.008813 -0.012440
v 0.017460 0.008872 -0.012440
v 0.017323 0.008813 -0.012440
v 0.017324 0.008811 -0.012440
v 0.017460 0.008872 -0.012440
v 0.017324 0.008811 -0.012440
v 0.017324 0.008809 -0.012440
v 0.017460 0.008872 -0.012440
v 0.017324 0.008809 -0.012440
v 0.017325 0.008807 -0.012440
v 0.017460 0.008872 -0.012440
v 0.017325 0.008807 -0.012440
v 0.017325 0.008805 -0.012440
v 0.017460 0.008872 -0.012440
v 0.017325 0.008805 -0.012440
v 0.017325 0.008803 -0.012440
v 0.017460 0.008872 -0.012440
v 0.017325 0.008803 -0.012440
v 0.017460 0.008734 -0.012440
v 0.017460 0.008872 -0.012440
v 0.017325 0.008801 -0.012440
v 0.017460 0.008734 -0.012440
v 0.017325 0.008803 -0.012440
v 0.017325 0.008798 -0.012440
v 0.017460 0.008734 -0.012440
v 0.017325 0.008801 -0.012440
v 0.017324 0.008796 -0.012440
v 0.017460 0.008734 -0.012440
v 0.017325 0.008798 -0.012440
v 0.017460 0.008734 -0.012440
v 0.017324 0.008796 -0.012440
v 0.017323 0.008793 -0.012440
v 0.017460 0.008734 -0.012440
v 0.017323 0.008793 -0.012440
v 0.017323 0.008791 -0.012440
v 0.017460 0.008734 -0.012440
v 0.017323 0.008791 -0.012440
v 0.017322 0.008789 -0.012440
v 0.017460 0.008734 -0.012440
v 0.017322 0.008789 -0.012440
v 0.017320 0.008787 -0.012440
v 0.017460 0.008734 -0.012440
v 0.017320 0.008787 -0.012440
v 0.017319 0.008785 -0.012440
v 0.017460 0.008734 -0.012440
v 0.017319 0.008785 -0.012440
v 0.017317 0.008783 -0.012440
v 0.017460 0.008734 -0.012440
v 0.017317 0.008783 -0.012440
v 0.017316 0.008781 -0.012440
v 0.017312 0.008778 -0.012440
v 0.017310 0.008777 -0.012440
v 0.017460 0.008734 -0.012440
v 0.017312 0.008778 -0.012440
v 0.017460 0.008734 -0.012440
v 0.017314 0.008780 -0.012440
v 0.017460 0.008734 -0.012440
v 0.017316 0.008781 -0.012440
v 0.017314 0.008780 -0.012440
v 0.017308 0.008776 -0.012440
v 0.017460 0.008734 -0.012440
v 0.017310 0.008777 -0.012440
v 0.017305 0.008775 -0.012440
v 0.017460 0.008734 -0.012440
v 0.017308 0.008776 -0.012440
v 0.017303 0.008774 -0.012440
v 0.017460 0.008734 -0.012440
v 0.017305 0.008775 -0.012440
v 0.017230 0.008734 -0.012440
v 0.017460 0.008734 -0.012440
v 0.017303 0.008774 -0.012440
v 0.017230 0.008734 -0.012440
v 0.017303 0.008774 -0.012440
v 0.017301 0.008774 -0.012440
v 0.017230 0.008734 -0.012440
v 0.017301 0.008774 -0.012440
v 0.017298 0.008773 -0.012440
v 0.017230 0.008734 -0.012440
v 0.017298 0.008773 -0.012440
v 0.017296 0.008773 -0.012440
v 0.017230 0.008734 -0.012440
v 0.017296 0.008773 -0.012440
v 0.017293 0.008773 -0.012440
v 0.017289 0.008774 -0.012440
v 0.017286 0.008774 -0.012440
v 0.017230 0.008734 -0.012440
v 0.017289 0.008774 -0.012440
v 0.017230 0.008734 -0.012440
v 0.017291 0.008773 -0.012440
v 0.017286 0.008774 -0.012440
v 0.017284 0.008775 -0.012440
v 0.017230 0.008734 -0.012440
v 0.017284 0.008775 -0.012440
v 0.017282 0.008776 -0.012440
v 0.017230 0.008734 -0.012440
v 0.017282 0.008776 -0.012440
v 0.017280 0.008777 -0.012440
v 0.017230 0.008734 -0.012440
v 0.017280 0.008777 -0.012440
v 0.017278 0.008779 -0.012440
v 0.017230 0.008734 -0.012440
v 0.017278 0.008779 -0.012440
v 0.017276 0.008780 -0.012440
v 0.017230 0.008734 -0.012440
v 0.017276 0.008780 -0.012440
v 0.017274 0.008782 -0.012440
v 0.017230 0.008734 -0.012440
v 0.017274 0.008782 -0.012440
v 0.017272 0.008784 -0.012440
v 0.017230 0.008734 -0.012440
v 0.017272 0.008784 -0.012440
v 0.017271 0.008785 -0.012440
v 0.017230 0.008734 -0.012440
v 0.017271 0.008785 -0.012440
v 0.017269 0.008787 -0.012440
v 0.017230 0.008734 -0.012440
v 0.017269 0.008787 -0.012440
v 0.017268 0.008790 -0.012440
v 0.017230 0.008734 -0.012440
v 0.017268 0.008790 -0.012440
v 0.017267 0.008792 -0.012440
v 0.017230 0.008734 -0.012440
v 0.017266 0.008794 -0.012440
v 0.017230 0.008734 -0.012440
v 0.017267 0.008792 -0.012440
v 0.017266 0.008796 -0.012440
v 0.017230 0.008734 -0.012440
v 0.017266 0.008794 -0.012440
v 0.017265 0.008799 -0.012440
v 0.017230 0.008734 -0.012440
v 0.017266 0.008796 -0.012440
v 0.017230 0.008734 -0.012440
v 0.017293 0.008773 -0.012440
v 0.017291 0.008773 -0.012440
v 0.017265 0.008804 -0.012440
v 0.017230 0.008734 -0.012440
v 0.017265 0.008801 -0.012440
v 0.017230 0.008872 -0.012440
v 0.017230 0.008734 -0.012440
v 0.017265 0.008804 -0.012440
v 0.017230 0.008872 -0.012440
v 0.017265 0.008804 -0.012440
v 0.017265 0.008806 -0.012440
v 0.017230 0.008872 -0.012440
v 0.017265 0.008806 -0.012440
v 0.017266 0.008809 -0.012440
v 0.017230 0.008872 -0.012440
v 0.017266 0.008809 -0.012440
v 0.017266 0.008811 -0.012440
v 0.017268 0.008816 -0.012440
v 0.017269 0.008818 -0.012440
v 0.017230 0.008872 -0.012440
v 0.017268 0.008816 -0.012440
v 0.017230 0.008872 -0.012440
v 0.017267 0.008813 -0.012440
v 0.017269 0.008818 -0.012440
v 0.017270 0.008820 -0.012440
v 0.017230 0.008872 -0.012440
v 0.017270 0.008820 -0.012440
v 0.017272 0.008822 -0.012440
v 0.017230 0.008872 -0.012440
v 0.017272 0.008822 -0.012440
v 0.017273 0.008824 -0.012440
v 0.017230 0.008872 -0.012440
v 0.017273 0.008824 -0.012440
v 0.017275 0.008825 -0.012440
v 0.017230 0.008872 -0.012440
v 0.017275 0.008825 -0.012440
v 0.017277 0.008827 -0.012440
v 0.017230 0.008872 -0.012440
v 0.017277 0.008827 -0.012440
v 0.017279 0.008828 -0.012440
v 0.017230 0.008872 -0.012440
v 0.017279 0.008828 -0.012440
v 0.017281 0.008829 -0.012440
v 0.017230 0.008872 -0.012440
v 0.017281 0.008829 -0.012440
v 0.017283 0.008831 -0.012440
v 0.017230 0.008872 -0.012440
v 0.017283 0.008831 -0.012440
v 0.017285 0.008831 -0.012440
v 0.017230 0.008872 -0.012440
v 0.017285 0.008831 -0.012440
v 0.017288 0.008832 -0.012440
v 0.017230 0.008872 -0.012440
v 0.017290 0.008833 -0.012440
v 0.017230 0.008872 -0.012440
v 0.017288 0.008832 -0.012440
v 0.017292 0.008833 -0.012440
v 0.017230 0.008872 -0.012440
v 0.017290 0.008833 -0.012440
v 0.017295 0.008833 -0.012440
v 0.017230 0.008872 -0.012440
v 0.017292 0.008833 -0.012440
v 0.017297 0.008833 -0.012440
v 0.017230 0.008872 -0.012440
v 0.017295 0.008833 -0.012440
v 0.017300 0.008833 -0.012440
v 0.017230 0.008872 -0.012440
v 0.017297 0.008833 -0.012440
v 0.017302 0.008832 -0.012440
v 0.017230 0.008872 -0.012440
v 0.017300 0.008833 -0.012440
v 0.017460 0.008872 -0.012440
v 0.017230 0.008872 -0.012440
v 0.017302 0.008832 -0.012440
v 0.017460 0.008872 -0.012440
v 0.017302 0.008832 -0.012440
v 0.017304 0.008831 -0.012440
v 0.017230 0.008872 -0.012440
v 0.017266 0.008811 -0.012440
v 0.017267 0.008813 -0.012440
v 0.017309 0.008830 -0.012440
v 0.017460 0.008872 -0.012440
v 0.017307 0.008831 -0.012440
v 0.017307 0.008831 -0.012440
v 0.017460 0.008872 -0.012440
v 0.017304 0.008831 -0.012440
v 0.017265 0.008799 -0.012440
v 0.017265 0.008801 -0.012440
v 0.017230 0.008734 -0.012440
v 0.017384 0.008854 -0.012476
v 0.017376 0.008852 -0.012479
v 0.017355 0.008853 -0.012476
v 0.017402 0.008853 -0.012477
v 0.017423 0.008846 -0.012486
v 0.017423 0.008849 -0.012482
v 0.017432 0.008845 -0.012487
v 0.017413 0.008843 -0.012490
v 0.017384 0.008845 -0.012487
v 0.017382 0.008839 -0.012494
v 0.017376 0.008834 -0.012499
v 0.017356 0.008839 -0.012494
v 0.017423 0.008838 -0.012494
v 0.017422 0.008834 -0.012499
v 0.017438 0.008841 -0.012492
v 0.017387 0.008850 -0.012481
v 0.017361 0.008849 -0.012483
v 0.017358 0.008842 -0.012490
v 0.017460 0.008843 -0.012490
v 0.017297 0.008868 -0.012452
v 0.017292 0.008866 -0.012457
v 0.017230 0.008868 -0.012451
v 0.017308 0.008867 -0.012453
v 0.017257 0.008849 -0.012482
v 0.017269 0.008853 -0.012476
v 0.017292 0.008851 -0.012480
v 0.017230 0.008849 -0.012483
v 0.017230 0.008852 -0.012479
v 0.017271 0.008846 -0.012486
v 0.017291 0.008842 -0.012491
v 0.017230 0.008843 -0.012490
v 0.017306 0.008846 -0.012485
v 0.017300 0.008852 -0.012479
v 0.017278 0.008857 -0.012471
v 0.017306 0.008855 -0.012474
v 0.017230 0.008852 -0.012479
v 0.017230 0.008854 -0.012475
v 0.017387 0.008859 -0.012469
v 0.017381 0.008862 -0.012463
v 0.017416 0.008860 -0.012466
v 0.017373 0.008857 -0.012471
v 0.017358 0.008860 -0.012466
v 0.017398 0.008864 -0.012459
v 0.017395 0.008867 -0.012454
v 0.017460 0.008866 -0.012455
v 0.017383 0.008865 -0.012458
v 0.017406 0.008857 -0.012471
v 0.017460 0.008862 -0.012463
v 0.017460 0.008859 -0.012467
v 0.017264 0.008863 -0.012461
v 0.017271 0.008860 -0.012466
v 0.017230 0.008862 -0.012463
v 0.017304 0.008862 -0.012463
v 0.017230 0.008857 -0.012471
v 0.017340 0.008857 -0.012471
v 0.017355 0.008862 -0.012463
v 0.017317 0.008858 -0.012470
v 0.017338 0.008853 -0.012477
v 0.017348 0.008852 -0.012479
v 0.017326 0.008850 -0.012481
v 0.017329 0.008846 -0.012486
v 0.017373 0.008865 -0.012457
v 0.017460 0.008864 -0.012459
v 0.017319 0.008865 -0.012457
v 0.017343 0.008866 -0.012455
v 0.017289 0.008870 -0.012447
v 0.017354 0.008867 -0.012453
v 0.017344 0.008870 -0.012447
v 0.017400 0.008870 -0.012446
v 0.017460 0.008836 -0.012497
v 0.017384 0.008830 -0.012503
v 0.017460 0.008854 -0.012475
v 0.017460 0.008852 -0.012479
v 0.017460 0.008849 -0.012483
v 0.017334 0.008841 -0.012491
v 0.017230 0.008870 -0.012447
v 0.017230 0.008868 -0.012451
v 0.017460 0.008870 -0.012447
v 0.017291 0.008836 -0.012497
v 0.017314 0.008836 -0.012497
v 0.017289 0.008832 -0.012500
v 0.017288 0.008832 -0.012501
v 0.017230 0.008849 -0.012483
v 0.017230 0.008846 -0.012486
v 0.017297 0.008833 -0.012500
v 0.017460 0.008836 -0.012497
v 0.017460 0.008840 -0.012493
v 0.017309 0.008830 -0.012503
v 0.017309 0.008830 -0.012503
v 0.017460 0.008868 -0.012451
v 0.017460 0.008866 -0.012455
v 0.017460 0.008843 -0.012490
v 0.017460 0.008840 -0.012493
v 0.017307 0.008830 -0.012502
v 0.017306 0.008831 -0.012502
v 0.017460 0.008836 -0.012497
v 0.017460 0.008833 -0.012500
v 0.017230 0.008864 -0.012459
v 0.017230 0.008866 -0.012455
v 0.017230 0.008854 -0.012475
v 0.017230 0.008857 -0.012471
v 0.017460 0.008857 -0.012471
v 0.017293 0.008833 -0.012500
v 0.017295 0.008833 -0.012500
v 0.017460 0.008846 -0.012486
v 0.017460 0.008849 -0.012483
v 0.017283 0.008830 -0.012502
v 0.017230 0.008833 -0.012500
v 0.017284 0.008831 -0.012502
v 0.017283 0.008830 -0.012502
v 0.017281 0.008830 -0.012503
v 0.017230 0.008833 -0.012500
v 0.017284 0.008831 -0.012502
v 0.017230 0.008833 -0.012500
v 0.017286 0.008832 -0.012501
v 0.017286 0.008832 -0.012501
v 0.017230 0.008833 -0.012500
v 0.017230 0.008836 -0.012497
v 0.017286 0.008832 -0.012501
v 0.017230 0.008836 -0.012497
v 0.017288 0.008832 -0.012501
v 0.017286 0.008832 -0.012501
v 0.017230 0.008836 -0.012497
v 0.017230 0.008840 -0.012493
v 0.017289 0.008832 -0.012500
v 0.017291 0.008833 -0.012500
v 0.017230 0.008843 -0.012490
v 0.017230 0.008846 -0.012486
v 0.017230 0.008852 -0.012479
v 0.017460 0.008843 -0.012490
v 0.017460 0.008846 -0.012486
v 0.017230 0.008857 -0.012471
v 0.017297 0.008833 -0.012500
v 0.017299 0.008833 -0.012500
v 0.017299 0.008833 -0.012500
v 0.017300 0.008832 -0.012500
v 0.017460 0.008833 -0.012500
v 0.017460 0.008830 -0.012503
v 0.017302 0.008832 -0.012501
v 0.017300 0.008832 -0.012500
v 0.017230 0.008840 -0.012493
v 0.017230 0.008843 -0.012490
v 0.017309 0.008830 -0.012503
v 0.017307 0.008830 -0.012502
v 0.017306 0.008831 -0.012502
v 0.017304 0.008832 -0.012501
v 0.017460 0.008830 -0.012503
v 0.017302 0.008832 -0.012501
v 0.017304 0.008832 -0.012501
v 0.017460 0.008836 -0.012497
v 0.017295 0.008833 -0.012500
v 0.017297 0.008833 -0.012500
v 0.017230 0.008859 -0.012467
v 0.017230 0.008862 -0.012463
v 0.017460 0.008854 -0.012475
v 0.017230 0.008857 -0.012471
v 0.017230 0.008859 -0.012467
v 0.017460 0.008852 -0.012479
v 0.017460 0.008854 -0.012475
v 0.017230 0.008862 -0.012463
v 0.017230 0.008864 -0.012459
v 0.017460 0.008857 -0.012471
v 0.017460 0.008859 -0.012467
v 0.017460 0.008870 -0.012447
v 0.017460 0.008868 -0.012451
v 0.017460 0.008872 -0.012442
v 0.017460 0.008870 -0.012447
v 0.017460 0.008868 -0.012451
v 0.017460 0.008864 -0.012459
v 0.017460 0.008866 -0.012455
v 0.017230 0.008870 -0.012447
v 0.017230 0.008872 -0.012442
v 0.017460 0.008864 -0.012459
v 0.017460 0.008862 -0.012463
v 0.017230 0.008870 -0.012447
v 0.017230 0.008868 -0.012451
v 0.017230 0.008866 -0.012455
v 0.017230 0.008868 -0.012451
v 0.017230 0.008866 -0.012455
v 0.017460 0.008854 -0.012475
v 0.017460 0.008857 -0.012471
v 0.017460 0.008849 -0.012483
v 0.017291 0.008833 -0.012500
v 0.017293 0.008833 -0.012500
v 0.017230 0.008840 -0.012493
v 0.017230 0.008833 -0.012500
v 0.017281 0.008830 -0.012503
v 0.017230 0.008830 -0.012503
v 0.017230 0.008846 -0.012486
v 0.017230 0.008830 -0.012503
v 0.017281 0.008830 -0.012503
v 0.017279 0.008829 -0.012504
v 0.017278 0.008827 -0.012505
v 0.017230 0.008830 -0.012503
v 0.017279 0.008829 -0.012504
v 0.017278 0.008827 -0.012505
v 0.017230 0.008827 -0.012505
v 0.017230 0.008830 -0.012503
v 0.017278 0.008827 -0.012505
v 0.017276 0.008826 -0.012506
v 0.017230 0.008827 -0.012505
v 0.017230 0.008827 -0.012505
v 0.017276 0.008826 -0.012506
v 0.017275 0.008825 -0.012506
v 0.017273 0.008824 -0.012507
v 0.017230 0.008827 -0.012505
v 0.017275 0.008825 -0.012506
v 0.017273 0.008824 -0.012507
v 0.017230 0.008824 -0.012507
v 0.017230 0.008827 -0.012505
v 0.017272 0.008822 -0.012508
v 0.017271 0.008821 -0.012509
v 0.017230 0.008824 -0.012507
v 0.017271 0.008821 -0.012509
v 0.017270 0.008819 -0.012510
v 0.017230 0.008821 -0.012509
v 0.017269 0.008817 -0.012510
v 0.017268 0.008815 -0.012511
v 0.017230 0.008817 -0.012510
v 0.017268 0.008815 -0.012511
v 0.017267 0.008813 -0.012512
v 0.017230 0.008814 -0.012512
v 0.017230 0.008814 -0.012512
v 0.017266 0.008811 -0.012512
v 0.017230 0.008810 -0.012512
v 0.017230 0.008810 -0.012512
v 0.017266 0.008811 -0.012512
v 0.017266 0.008809 -0.012512
v 0.017230 0.008807 -0.012513
v 0.017230 0.008810 -0.012512
v 0.017265 0.008807 -0.012513
v 0.017230 0.008803 -0.012513
v 0.017230 0.008807 -0.012513
v 0.017265 0.008805 -0.012513
v 0.017265 0.008801 -0.012513
v 0.017230 0.008803 -0.012513
v 0.017265 0.008803 -0.012513
v 0.017267 0.008793 -0.012512
v 0.017268 0.008791 -0.012511
v 0.017230 0.008792 -0.012512
v 0.017281 0.008776 -0.012503
v 0.017230 0.008776 -0.012503
v 0.017279 0.008777 -0.012504
v 0.017279 0.008777 -0.012504
v 0.017230 0.008776 -0.012503
v 0.017278 0.008778 -0.012505
v 0.017278 0.008778 -0.012505
v 0.017230 0.008776 -0.012503
v 0.017230 0.008779 -0.012505
v 0.017276 0.008780 -0.012506
v 0.017278 0.008778 -0.012505
v 0.017230 0.008779 -0.012505
v 0.017275 0.008781 -0.012506
v 0.017276 0.008780 -0.012506
v 0.017230 0.008779 -0.012505
v 0.017273 0.008782 -0.012507
v 0.017275 0.008781 -0.012506
v 0.017230 0.008779 -0.012505
v 0.017230 0.008782 -0.012507
v 0.017273 0.008782 -0.012507
v 0.017230 0.008779 -0.012505
v 0.017230 0.008782 -0.012507
v 0.017272 0.008784 -0.012508
v 0.017273 0.008782 -0.012507
v 0.017230 0.008782 -0.012507
v 0.017271 0.008785 -0.012509
v 0.017272 0.008784 -0.012508
v 0.017230 0.008782 -0.012507
v 0.017230 0.008785 -0.012509
v 0.017271 0.008785 -0.012509
v 0.017271 0.008785 -0.012509
v 0.017230 0.008785 -0.012509
v 0.017270 0.008787 -0.012510
v 0.017230 0.008789 -0.012510
v 0.017268 0.008791 -0.012511
v 0.017269 0.008789 -0.012510
v 0.017270 0.008787 -0.012510
v 0.017230 0.008789 -0.012510
v 0.017269 0.008789 -0.012510
v 0.017230 0.008789 -0.012510
v 0.017230 0.008792 -0.012512
v 0.017268 0.008791 -0.012511
v 0.017266 0.008795 -0.012512
v 0.017267 0.008793 -0.012512
v 0.017230 0.008792 -0.012512
v 0.017230 0.008796 -0.012512
v 0.017266 0.008795 -0.012512
v 0.017230 0.008792 -0.012512
v 0.017265 0.008799 -0.012513
v 0.017230 0.008796 -0.012512
v 0.017230 0.008799 -0.012513
v 0.017265 0.008799 -0.012513
v 0.017266 0.008797 -0.012512
v 0.017230 0.008796 -0.012512
v 0.017265 0.008801 -0.012513
v 0.017265 0.008799 -0.012513
v 0.017230 0.008799 -0.012513
v 0.017230 0.008803 -0.012513
v 0.017265 0.008801 -0.012513
v 0.017230 0.008799 -0.012513
v 0.017265 0.008805 -0.012513
v 0.017265 0.008803 -0.012513
v 0.017230 0.008803 -0.012513
v 0.017265 0.008807 -0.012513
v 0.017265 0.008805 -0.012513
v 0.017230 0.008807 -0.012513
v 0.017266 0.008809 -0.012512
v 0.017265 0.008807 -0.012513
v 0.017230 0.008810 -0.012512
v 0.017266 0.008811 -0.012512
v 0.017230 0.008814 -0.012512
v 0.017267 0.008813 -0.012512
v 0.017230 0.008814 -0.012512
v 0.017230 0.008817 -0.012510
v 0.017268 0.008815 -0.012511
v 0.017230 0.008817 -0.012510
v 0.017270 0.008819 -0.012510
v 0.017269 0.008817 -0.012510
v 0.017230 0.008817 -0.012510
v 0.017230 0.008821 -0.012509
v 0.017270 0.008819 -0.012510
v 0.017230 0.008821 -0.012509
v 0.017230 0.008824 -0.012507
v 0.017271 0.008821 -0.012509
v 0.017230 0.008824 -0.012507
v 0.017273 0.008824 -0.012507
v 0.017272 0.008822 -0.012508
v 0.017230 0.008796 -0.012512
v 0.017266 0.008797 -0.012512
v 0.017266 0.008795 -0.012512
v 0.017230 0.008789 -0.012510
v 0.017270 0.008787 -0.012510
v 0.017230 0.008785 -0.012509
v 0.017353 0.008816 -0.012511
v 0.017351 0.008818 -0.012510
v 0.017372 0.008817 -0.012511
v 0.017341 0.008815 -0.012511
v 0.017428 0.008817 -0.012510
v 0.017428 0.008820 -0.012509
v 0.017445 0.008818 -0.012510
v 0.017422 0.008816 -0.012511
v 0.017417 0.008819 -0.012510
v 0.017414 0.008814 -0.012511
v 0.017409 0.008816 -0.012511
v 0.017402 0.008819 -0.012510
v 0.017395 0.008816 -0.012511
v 0.017410 0.008822 -0.012508
v 0.017439 0.008808 -0.012513
v 0.017435 0.008805 -0.012513
v 0.017429 0.008809 -0.012513
v 0.017453 0.008810 -0.012512
v 0.017460 0.008807 -0.012513
v 0.017425 0.008791 -0.012511
v 0.017429 0.008788 -0.012510
v 0.017407 0.008790 -0.012511
v 0.017432 0.008792 -0.012511
v 0.017398 0.008785 -0.012509
v 0.017393 0.008782 -0.012507
v 0.017380 0.008784 -0.012508
v 0.017410 0.008786 -0.012509
v 0.017412 0.008783 -0.012508
v 0.017386 0.008780 -0.012506
v 0.017414 0.008780 -0.012506
v 0.017343 0.008791 -0.012511
v 0.017343 0.008794 -0.012512
v 0.017350 0.008792 -0.012512
v 0.017336 0.008787 -0.012510
v 0.017322 0.008791 -0.012511
v 0.017334 0.008785 -0.012509
v 0.017320 0.008787 -0.012510
v 0.017352 0.008789 -0.012510
v 0.017355 0.008785 -0.012509
v 0.017329 0.008813 -0.012512
v 0.017324 0.008811 -0.012512
v 0.017323 0.008813 -0.012512
v 0.017348 0.008812 -0.012512
v 0.017442 0.008815 -0.012511
v 0.017438 0.008812 -0.012512
v 0.017434 0.008816 -0.012511
v 0.017455 0.008816 -0.012511
v 0.017460 0.008814 -0.012512
v 0.017460 0.008810 -0.012512
v 0.017460 0.008807 -0.012513
v 0.017460 0.008814 -0.012512
v 0.017426 0.008813 -0.012512
v 0.017460 0.008814 -0.012512
v 0.017460 0.008810 -0.012512
v 0.017460 0.008817 -0.012510
v 0.017460 0.008814 -0.012512
v 0.017460 0.008817 -0.012510
v 0.017432 0.008780 -0.012506
v 0.017433 0.008782 -0.012507
v 0.017441 0.008782 -0.012507
v 0.017419 0.008778 -0.012504
v 0.017384 0.008776 -0.012503
v 0.017385 0.008778 -0.012504
v 0.017378 0.008778 -0.012504
v 0.017342 0.008779 -0.012505
v 0.017364 0.008781 -0.012506
v 0.017373 0.008785 -0.012509
v 0.017374 0.008788 -0.012510
v 0.017390 0.008788 -0.012510
v 0.017365 0.008784 -0.012508
v 0.017449 0.008787 -0.012509
v 0.017444 0.008784 -0.012508
v 0.017460 0.008785 -0.012509
v 0.017443 0.008790 -0.012511
v 0.017439 0.008793 -0.012512
v 0.017460 0.008792 -0.012512
v 0.017407 0.008798 -0.012513
v 0.017408 0.008801 -0.012513
v 0.017429 0.008798 -0.012513
v 0.017400 0.008796 -0.012512
v 0.017392 0.008798 -0.012513
v 0.017398 0.008793 -0.012512
v 0.017387 0.008796 -0.012512
v 0.017412 0.008796 -0.012512
v 0.017414 0.008793 -0.012512
v 0.017374 0.008791 -0.012511
v 0.017381 0.008793 -0.012512
v 0.017388 0.008789 -0.012511
v 0.017368 0.008793 -0.012512
v 0.017371 0.008796 -0.012512
v 0.017377 0.008799 -0.012513
v 0.017433 0.008822 -0.012508
v 0.017432 0.008825 -0.012507
v 0.017440 0.008822 -0.012508
v 0.017416 0.008822 -0.012508
v 0.017444 0.008780 -0.012505
v 0.017460 0.008782 -0.012507
v 0.017336 0.008797 -0.012513
v 0.017341 0.008800 -0.012513
v 0.017354 0.008798 -0.012513
v 0.017324 0.008797 -0.012512
v 0.017325 0.008799 -0.012513
v 0.017344 0.008803 -0.012513
v 0.017360 0.008802 -0.012513
v 0.017325 0.008799 -0.012513
v 0.017325 0.008801 -0.012513
v 0.017338 0.008809 -0.012513
v 0.017341 0.008806 -0.012513
v 0.017325 0.008807 -0.012513
v 0.017354 0.008808 -0.012513
v 0.017325 0.008803 -0.012513
v 0.017356 0.008805 -0.012513
v 0.017383 0.008803 -0.012513
v 0.017389 0.008806 -0.012513
v 0.017399 0.008803 -0.012513
v 0.017369 0.008803 -0.012513
v 0.017377 0.008807 -0.012513
v 0.017389 0.008800 -0.012513
v 0.017391 0.008809 -0.012513
v 0.017412 0.008807 -0.012513
v 0.017444 0.008797 -0.012513
v 0.017441 0.008801 -0.012513
v 0.017460 0.008799 -0.012513
v 0.017432 0.008795 -0.012512
v 0.017427 0.008795 -0.012512
v 0.017347 0.008783 -0.012507
v 0.017330 0.008781 -0.012506
v 0.017309 0.008776 -0.012503
v 0.017311 0.008777 -0.012504
v 0.017425 0.008785 -0.012508
v 0.017355 0.008795 -0.012512
v 0.017460 0.008821 -0.012509
v 0.017460 0.008824 -0.012507
v 0.017437 0.008828 -0.012505
v 0.017419 0.008828 -0.012504
v 0.017460 0.008830 -0.012503
v 0.017460 0.008827 -0.012505
v 0.017460 0.008830 -0.012503
v 0.017411 0.008825 -0.012506
v 0.017387 0.008826 -0.012505
v 0.017460 0.008827 -0.012505
v 0.017353 0.008822 -0.012508
v 0.017319 0.008821 -0.012509
v 0.017364 0.008824 -0.012507
v 0.017368 0.008821 -0.012509
v 0.017345 0.008825 -0.012507
v 0.017353 0.008827 -0.012505
v 0.017318 0.008822 -0.012508
v 0.017317 0.008824 -0.012507
v 0.017371 0.008810 -0.012512
v 0.017368 0.008814 -0.012512
v 0.017383 0.008814 -0.012511
v 0.017414 0.008803 -0.012513
v 0.017390 0.008813 -0.012512
v 0.017389 0.008819 -0.012510
v 0.017395 0.008823 -0.012508
v 0.017380 0.008816 -0.012511
v 0.017417 0.008811 -0.012512
v 0.017460 0.008803 -0.012513
v 0.017318 0.008784 -0.012508
v 0.017314 0.008780 -0.012506
v 0.017315 0.008781 -0.012506
v 0.017312 0.008779 -0.012505
v 0.017314 0.008780 -0.012506
v 0.017460 0.008785 -0.012509
v 0.017460 0.008782 -0.012507
v 0.017460 0.008779 -0.012505
v 0.017460 0.008776 -0.012503
v 0.017325 0.008803 -0.012513
v 0.017325 0.008805 -0.012513
v 0.017324 0.008811 -0.012512
v 0.017324 0.008809 -0.012512
v 0.017325 0.008807 -0.012513
v 0.017325 0.008805 -0.012513
v 0.017460 0.008796 -0.012512
v 0.017460 0.008799 -0.012513
v 0.017460 0.008814 -0.012512
v 0.017460 0.008807 -0.012513
v 0.017320 0.008819 -0.012510
v 0.017321 0.008817 -0.012510
v 0.017322 0.008815 -0.012511
v 0.017460 0.008821 -0.012509
v 0.017460 0.008824 -0.012507
v 0.017315 0.008825 -0.012506
v 0.017317 0.008824 -0.012507
v 0.017460 0.008779 -0.012505
v 0.017460 0.008782 -0.012507
v 0.017312 0.008779 -0.012505
v 0.017311 0.008777 -0.012504
v 0.017460 0.008789 -0.012510
v 0.017460 0.008785 -0.012509
v 0.017320 0.008787 -0.012510
v 0.017321 0.008789 -0.012510
v 0.017324 0.008795 -0.012512
v 0.017325 0.008807 -0.012513
v 0.017324 0.008809 -0.012512
v 0.017460 0.008830 -0.012503
v 0.017321 0.008817 -0.012510
v 0.017320 0.008819 -0.012510
v 0.017311 0.008829 -0.012504
v 0.017309 0.008830 -0.012503
v 0.017309 0.008830 -0.012503
v 0.017312 0.008828 -0.012505
v 0.017311 0.008829 -0.012504
v 0.017314 0.008826 -0.012506
v 0.017312 0.008828 -0.012505
v 0.017314 0.008826 -0.012506
v 0.017315 0.008825 -0.012506
v 0.017314 0.008826 -0.012506
v 0.017319 0.008821 -0.012509
v 0.017319 0.008821 -0.012509
v 0.017318 0.008822 -0.012508
v 0.017320 0.008819 -0.012510
v 0.017319 0.008821 -0.012509
v 0.017460 0.008807 -0.012513
v 0.017460 0.008803 -0.012513
v 0.017322 0.008815 -0.012511
v 0.017323 0.008813 -0.012512
v 0.017322 0.008815 -0.012511
v 0.017460 0.008799 -0.012513
v 0.017460 0.008803 -0.012513
v 0.017324 0.008811 -0.012512
v 0.017460 0.008792 -0.012512
v 0.017460 0.008796 -0.012512
v 0.017460 0.008796 -0.012512
v 0.017460 0.008789 -0.012510
v 0.017460 0.008792 -0.012512
v 0.017325 0.008803 -0.012513
v 0.017460 0.008782 -0.012507
v 0.017325 0.008799 -0.012513
v 0.017460 0.008789 -0.012510
v 0.017324 0.008797 -0.012512
v 0.017324 0.008795 -0.012512
v 0.017323 0.008793 -0.012512
v 0.017322 0.008791 -0.012511
v 0.017460 0.008776 -0.012503
v 0.017309 0.008776 -0.012503
v 0.017321 0.008789 -0.012510
v 0.017322 0.008791 -0.012511
v 0.017312 0.008779 -0.012505
v 0.017315 0.008781 -0.012506
v 0.017317 0.008782 -0.012507
v 0.017317 0.008782 -0.012507
v 0.017318 0.008784 -0.012508
v 0.017319 0.008785 -0.012509
v 0.017318 0.008784 -0.012508
v 0.017319 0.008785 -0.012509
v 0.017320 0.008787 -0.012510
v 0.017460 0.008776 -0.012503
v 0.017323 0.008793 -0.012512
v 0.017323 0.008793 -0.012512
v 0.017324 0.008795 -0.012512
v 0.017325 0.008801 -0.012513
v 0.017325 0.008803 -0.012513
v 0.017460 0.008827 -0.012505
v 0.017460 0.008824 -0.012507
v 0.017460 0.008821 -0.012509
v 0.017460 0.008817 -0.012510
v 0.017414 0.008757 -0.012483
v 0.017411 0.008761 -0.012487
v 0.017460 0.008760 -0.012486
v 0.017404 0.008756 -0.012482
v 0.017344 0.008774 -0.012501
v 0.017339 0.008770 -0.012497
v 0.017306 0.008775 -0.012502
v 0.017381 0.008770 -0.012497
v 0.017297 0.008738 -0.012452
v 0.017292 0.008740 -0.012457
v 0.017308 0.008739 -0.012453
v 0.017289 0.008736 -0.012447
v 0.017230 0.008738 -0.012451
v 0.017382 0.008757 -0.012483
v 0.017376 0.008754 -0.012479
v 0.017358 0.008757 -0.012482
v 0.017387 0.008747 -0.012469
v 0.017381 0.008744 -0.012463
v 0.017358 0.008746 -0.012466
v 0.017406 0.008749 -0.012471
v 0.017416 0.008746 -0.012466
v 0.017398 0.008742 -0.012459
v 0.017395 0.008739 -0.012454
v 0.017383 0.008741 -0.012458
v 0.017460 0.008742 -0.012459
v 0.017460 0.008749 -0.012471
v 0.017264 0.008743 -0.012461
v 0.017271 0.008746 -0.012466
v 0.017304 0.008744 -0.012463
v 0.017230 0.008742 -0.012459
v 0.017230 0.008744 -0.012463
v 0.017278 0.008749 -0.012471
v 0.017230 0.008744 -0.012463
v 0.017230 0.008747 -0.012467
v 0.017385 0.008751 -0.012474
v 0.017412 0.008753 -0.012477
v 0.017373 0.008749 -0.012471
v 0.017355 0.008753 -0.012476
v 0.017340 0.008749 -0.012471
v 0.017355 0.008744 -0.012463
v 0.017317 0.008748 -0.012470
v 0.017306 0.008751 -0.012474
v 0.017300 0.008754 -0.012479
v 0.017338 0.008753 -0.012477
v 0.017282 0.008753 -0.012477
v 0.017348 0.008754 -0.012479
v 0.017326 0.008756 -0.012481
v 0.017329 0.008760 -0.012486
v 0.017294 0.008759 -0.012485
v 0.017373 0.008741 -0.012457
v 0.017319 0.008741 -0.012457
v 0.017343 0.008740 -0.012455
v 0.017365 0.008761 -0.012487
v 0.017348 0.008761 -0.012488
v 0.017390 0.008765 -0.012492
v 0.017398 0.008768 -0.012495
v 0.017423 0.008765 -0.012492
v 0.017362 0.008766 -0.012493
v 0.017460 0.008766 -0.012493
v 0.017460 0.008763 -0.012490
v 0.017426 0.008755 -0.012479
v 0.017460 0.008752 -0.012475
v 0.017354 0.008739 -0.012453
v 0.017344 0.008736 -0.012447
v 0.017283 0.008771 -0.012498
v 0.017288 0.008774 -0.012501
v 0.017289 0.008774 -0.012500
v 0.017272 0.008765 -0.012492
v 0.017230 0.008770 -0.012497
v 0.017279 0.008761 -0.012487
v 0.017230 0.008763 -0.012490
v 0.017307 0.008769 -0.012495
v 0.017305 0.008763 -0.012490
v 0.017230 0.008752 -0.012475
v 0.017269 0.008757 -0.012482
v 0.017230 0.008754 -0.012479
v 0.017230 0.008757 -0.012483
v 0.017388 0.008771 -0.012498
v 0.017460 0.008776 -0.012503
v 0.017331 0.008765 -0.012491
v 0.017230 0.008736 -0.012447
v 0.017230 0.008738 -0.012451
v 0.017230 0.008740 -0.012455
v 0.017400 0.008736 -0.012446
v 0.017460 0.008736 -0.012447
v 0.017460 0.008738 -0.012451
v 0.017230 0.008736 -0.012447
v 0.017230 0.008734 -0.012442
v 0.017230 0.008738 -0.012451
v 0.017230 0.008736 -0.012447
v 0.017230 0.008749 -0.012471
v 0.017230 0.008752 -0.012475
v 0.017230 0.008749 -0.012471
v 0.017230 0.008747 -0.012467
v 0.017460 0.008757 -0.012483
v 0.017460 0.008749 -0.012471
v 0.017460 0.008747 -0.012467
v 0.017460 0.008740 -0.012455
v 0.017460 0.008742 -0.012459
v 0.017230 0.008760 -0.012486
v 0.017230 0.008757 -0.012483
v 0.017460 0.008770 -0.012497
v 0.017460 0.008773 -0.012500
v 0.017460 0.008752 -0.012475
v 0.017297 0.008773 -0.012500
v 0.017299 0.008773 -0.012500
v 0.017295 0.008773 -0.012500
v 0.017297 0.008773 -0.012500
v 0.017460 0.008763 -0.012490
v 0.017460 0.008760 -0.012486
v 0.017230 0.008749 -0.012471
v 0.017300 0.008774 -0.012500
v 0.017299 0.008773 -0.012500
v 0.017230 0.008760 -0.012486
v 0.017230 0.008776 -0.012503
v 0.017281 0.008776 -0.012503
v 0.017230 0.008773 -0.012500
v 0.017230 0.008773 -0.012500
v 0.017281 0.008776 -0.012503
v 0.017283 0.008776 -0.012502
v 0.017284 0.008775 -0.012502
v 0.017230 0.008773 -0.012500
v 0.017283 0.008776 -0.012502
v 0.017284 0.008775 -0.012502
v 0.017286 0.008774 -0.012501
v 0.017286 0.008774 -0.012501
v 0.017288 0.008774 -0.012501
v 0.017293 0.008773 -0.012500
v 0.017291 0.008773 -0.012500
v 0.017293 0.008773 -0.012500
v 0.017295 0.008773 -0.012500
v 0.017230 0.008770 -0.012497
v 0.017230 0.008766 -0.012493
v 0.017230 0.008763 -0.012490
v 0.017230 0.008766 -0.012493
v 0.017460 0.008752 -0.012475
v 0.017460 0.008749 -0.012471
v 0.017460 0.008747 -0.012467
v 0.017460 0.008744 -0.012463
v 0.017230 0.008752 -0.012475
v 0.017230 0.008754 -0.012479
v 0.017230 0.008740 -0.012455
v 0.017230 0.008738 -0.012451
v 0.017230 0.008742 -0.012459
v 0.017230 0.008740 -0.012455
v 0.017460 0.008736 -0.012447
v 0.017460 0.008734 -0.012442
v 0.017230 0.008744 -0.012463
v 0.017460 0.008736 -0.012447
v 0.017460 0.008738 -0.012451
v 0.017460 0.008740 -0.012455
v 0.017230 0.008754 -0.012479
v 0.017460 0.008752 -0.012475
v 0.017460 0.008754 -0.012479
v 0.017302 0.008774 -0.012501
v 0.017300 0.008774 -0.012500
v 0.017460 0.008757 -0.012483
v 0.017460 0.008760 -0.012486
v 0.017460 0.008770 -0.012497
v 0.017460 0.008773 -0.012500
v 0.017460 0.008773 -0.012500
v 0.017460 0.008776 -0.012503
v 0.017460 0.008760 -0.012486
v 0.017309 0.008776 -0.012503
v 0.017309 0.008776 -0.012503
v 0.017307 0.008776 -0.012502
v 0.017307 0.008776 -0.012502
v 0.017306 0.008775 -0.012502
v 0.017306 0.008775 -0.012502
v 0.017304 0.008774 -0.012501
v 0.017304 0.008774 -0.012501
v 0.017302 0.008774 -0.012501
v 0.017460 0.008770 -0.012497
v 0.017460 0.008766 -0.012493
v 0.017460 0.008757 -0.012483
v 0.017460 0.008754 -0.012479
v 0.017460 0.008740 -0.012455
v 0.017460 0.008738 -0.012451
v 0.017460 0.008744 -0.012463
v 0.017460 0.008742 -0.012459
v 0.017295 0.008773 -0.012500
v 0.017230 0.008760 -0.012486
v 0.017230 0.008763 -0.012490
v 0.017230 0.008770 -0.012497
v 0.017230 0.008773 -0.012500
v 0.017289 0.008774 -0.012500
v 0.017291 0.008773 -0.012500
v 0.017302 0.008774 -0.012501
v 0.017230 0.008773 -0.012500
v 0.017284 0.008775 -0.012502
vn -1.0000 -0.0000 -0.0000
vn -1.0000 -0.0002 -0.0000
vn -1.0000 -0.0001 -0.0000
vn -1.0000 0.0001 -0.0000
vn -1.0000 0.0003 -0.0000
vn -1.0000 -0.0000 0.0001
vn 1.0000 -0.0001 -0.0000
vn 1.0000 -0.0000 -0.0000
vn 1.0000 0.0001 -0.0000
vn 1.0000 -0.0000 0.0001
vn 1.0000 -0.0002 -0.0000
vn 1.0000 0.0002 -0.0000
vn -0.0000 -1.0000 -0.0000
vn -0.0000 -1.0000 -0.0001
vn -0.9977 -0.0680 0.0002
vn -1.0000 -0.0020 -0.0000
vn -0.9897 -0.1430 -0.0000
vn -0.9974 -0.0726 -0.0000
vn -0.9771 -0.2127 -0.0000
vn -0.9908 -0.1355 -0.0000
vn -0.9793 -0.2024 -0.0000
vn -0.9597 -0.2810 -0.0000
vn -0.9633 -0.2685 0.0001
vn -0.9376 -0.3477 -0.0000
vn -0.9428 -0.3333 -0.0000
vn -0.9111 -0.4121 -0.0000
vn -0.9180 -0.3965 0.0002
vn -0.8890 -0.4579 0.0001
vn -0.8806 -0.4738 -0.0000
vn -0.8464 -0.5325 -0.0000
vn -0.8559 -0.5172 0.0002
vn -0.8090 -0.5878 -0.0000
vn -0.8188 -0.5741 -0.0000
vn -0.7779 -0.6284 -0.0002
vn -0.7685 -0.6399 -0.0000
vn -0.7250 -0.6887 -0.0000
vn -0.6787 -0.7344 -0.0000
vn -0.7334 -0.6798 -0.0000
vn -0.5227 -0.8525 -0.0000
vn -0.5240 -0.8517 -0.0000
vn -0.4650 -0.8853 -0.0000
vn -0.5806 -0.8142 -0.0001
vn -0.5775 -0.8164 -0.0000
vn -0.6345 -0.7729 -0.0002
vn -0.6295 -0.7770 -0.0000
vn -0.6856 -0.7280 -0.0003
vn -0.9976 0.0690 -0.0000
vn -0.9967 0.0811 -0.0000
vn -0.9902 0.1394 -0.0000
vn -0.9868 0.1617 -0.0000
vn -0.9779 0.2091 -0.0000
vn -0.9705 0.2412 0.0001
vn -0.9607 0.2775 -0.0000
vn -0.9389 0.3443 -0.0000
vn -0.9477 0.3191 0.0002
vn -0.9187 0.3949 0.0002
vn -0.9126 0.4089 -0.0000
vn -0.8822 0.4709 -0.0000
vn -0.8837 0.4680 0.0001
vn -0.8481 0.5299 -0.0000
vn -0.8428 0.5382 0.0001
vn -0.7964 0.6048 -0.0000
vn -0.8106 0.5856 -0.0000
vn -0.7447 0.6674 -0.0000
vn -0.6796 0.7336 -0.0000
vn -0.6882 0.7255 -0.0003
vn -0.7263 0.6874 -0.0000
vn -0.7699 0.6381 -0.0000
vn -0.6302 0.7765 -0.0000
vn -0.5779 0.8161 -0.0000
vn -0.5228 0.8524 -0.0000
vn -0.5618 0.8273 -0.0001
vn -0.6270 0.7790 -0.0001
vn -0.4650 0.8853 -0.0000
vn -0.4927 0.8702 -0.0001
vn -0.4124 0.9110 -0.0000
vn -0.4208 0.9072 0.0001
vn -0.3576 0.9339 -0.0000
vn -0.3457 0.9383 -0.0001
vn -0.3008 0.9537 -0.0000
vn -0.2684 0.9633 -0.0001
vn -0.2423 0.9702 -0.0000
vn -0.1895 0.9819 -0.0001
vn -0.1825 0.9832 -0.0000
vn -0.1220 0.9925 -0.0000
vn -0.0605 0.9982 -0.0000
vn -0.1093 0.9940 -0.0002
vn -0.0283 0.9996 -0.0003
vn 0.0008 1.0000 -0.0000
vn 0.0624 0.9981 -0.0000
vn 0.0530 0.9986 -0.0000
vn 0.1337 0.9910 0.0001
vn 0.1235 0.9923 -0.0000
vn 0.2137 0.9769 -0.0002
vn 0.1836 0.9830 -0.0000
vn 0.2922 0.9564 -0.0000
vn 0.2433 0.9700 -0.0000
vn 0.3687 0.9296 -0.0002
vn 0.3014 0.9535 -0.0000
vn 0.3579 0.9337 -0.0000
vn 0.4430 0.8965 -0.0003
vn 0.4125 0.9110 -0.0000
vn 0.4649 0.8854 -0.0000
vn 0.5142 0.8577 -0.0003
vn 0.5226 0.8526 -0.0000
vn 0.5821 0.8131 -0.0002
vn 0.5775 0.8164 -0.0000
vn 0.6295 0.7770 -0.0000
vn 0.6461 0.7632 -0.0000
vn 0.7058 0.7084 -0.0001
vn 0.6787 0.7344 -0.0000
vn 0.7250 0.6887 -0.0000
vn 0.7610 0.6488 0.0001
vn 0.7685 0.6399 -0.0000
vn 0.8090 0.5878 -0.0000
vn 0.8112 0.5848 -0.0000
vn 0.8559 0.5171 0.0001
vn 0.8949 0.4462 0.0003
vn 0.8464 0.5325 -0.0000
vn 0.8806 0.4738 -0.0000
vn 0.9282 0.3720 0.0002
vn 0.9111 0.4121 -0.0000
vn 0.9376 0.3477 -0.0000
vn 0.9553 0.2955 0.0003
vn 0.9597 0.2810 -0.0000
vn 0.9905 0.1374 0.0001
vn 0.9762 0.2171 0.0004
vn 0.9771 0.2127 -0.0000
vn 0.9897 0.1430 -0.0000
vn 0.9779 -0.2091 -0.0000
vn 0.9607 -0.2775 -0.0000
vn 0.9642 -0.2651 -0.0000
vn 0.9984 0.0565 -0.0002
vn 0.9974 0.0726 -0.0000
vn 0.8822 -0.4708 -0.0000
vn 0.8481 -0.5299 -0.0000
vn 0.8719 -0.4897 -0.0002
vn 0.7262 -0.6875 -0.0000
vn 0.7280 -0.6856 -0.0000
vn 0.7813 -0.6242 -0.0000
vn 0.5228 -0.8525 -0.0000
vn 0.6073 -0.7945 -0.0001
vn 0.5778 -0.8162 -0.0000
vn 0.4713 -0.8820 -0.0018
vn 0.4125 -0.9109 -0.0000
vn 0.3981 -0.9173 0.0002
vn 0.2433 -0.9700 -0.0000
vn 0.2447 -0.9696 -0.0000
vn 0.3226 -0.9465 -0.0000
vn 0.1235 -0.9923 -0.0000
vn 0.1652 -0.9863 -0.0002
vn 0.1839 -0.9829 -0.0000
vn 0.0624 -0.9981 -0.0000
vn 0.0035 -1.0000 -0.0003
vn 0.0846 -0.9964 -0.0003
vn 0.0010 -1.0000 -0.0000
vn -0.0606 -0.9982 -0.0000
vn -0.1218 -0.9925 -0.0000
vn -0.0776 -0.9970 -0.0000
vn -0.1825 -0.9832 -0.0000
vn -0.1582 -0.9874 -0.0002
vn -0.2423 -0.9702 -0.0000
vn -0.2378 -0.9713 0.0001
vn -0.3008 -0.9537 -0.0000
vn -0.3159 -0.9488 -0.0004
vn -0.4124 -0.9110 -0.0000
vn -0.3916 -0.9201 0.0002
vn -0.3576 -0.9339 0.0005
vn 0.3014 -0.9535 -0.0000
vn 0.3579 -0.9337 -0.0000
vn 0.4649 -0.8854 -0.0000
vn 0.5413 -0.8408 0.0003
vn 0.6302 -0.7765 -0.0000
vn 0.6699 -0.7424 0.0001
vn 0.6796 -0.7336 -0.0000
vn 0.7699 -0.6382 -0.0000
vn 0.8293 -0.5588 0.0001
vn 0.8106 -0.5857 -0.0000
vn 0.9087 -0.4174 0.0001
vn 0.9126 -0.4088 -0.0000
vn 0.9396 -0.3424 0.0001
vn 0.9389 -0.3442 -0.0000
vn 0.9825 -0.1861 -0.0000
vn 0.9902 -0.1394 -0.0000
vn 0.9944 -0.1057 -0.0002
vn 0.9976 -0.0690 -0.0000
vn 0.9997 -0.0247 -0.0000
vn 1.0000 0.0020 0.0001
vn -0.0000 1.0000 -0.0000
vn -0.0000 1.0000 -0.0001
vn -0.0000 -0.0000 1.0000
vn -0.0001 -0.0000 1.0000
vn 0.0001 -0.0000 1.0000
vn -0.0002 -0.0000 1.0000
vn -0.0003 -0.0000 1.0000
vn 0.0003 -0.0000 1.0000
vn -0.0000 0.8154 -0.5788
vn -0.0001 0.8016 -0.5979
vn -0.0000 0.8131 -0.5821
vn -0.0000 0.8087 -0.5882
vn -0.0000 0.7651 -0.6439
vn -0.0000 0.7879 -0.6158
vn -0.0000 0.7593 -0.6508
vn -0.0000 0.7473 -0.6645
vn -0.0000 0.7621 -0.6475
vn -0.0000 0.7216 -0.6923
vn -0.0000 0.6915 -0.7224
vn -0.0000 0.7247 -0.6890
vn -0.0000 0.7197 -0.6943
vn -0.0000 0.6901 -0.7237
vn -0.0000 0.7355 -0.6775
vn -0.0000 0.7913 -0.6115
vn -0.0000 0.7830 -0.6221
vn -0.0000 0.7435 -0.6688
vn -0.0000 0.7465 -0.6654
vn -0.0000 0.9023 -0.4311
vn -0.0000 0.8890 -0.4578
vn -0.0000 0.9062 -0.4229
vn -0.0000 0.9001 -0.4357
vn -0.0000 0.7884 -0.6151
vn -0.0003 0.8130 -0.5822
vn -0.0000 0.7951 -0.6065
vn -0.0000 0.7839 -0.6208
vn -0.0000 0.8017 -0.5977
vn 0.0001 0.7671 -0.6416
vn -0.0000 0.7391 -0.6736
vn -0.0004 0.7695 -0.6386
vn -0.0000 0.8016 -0.5978
vn -0.0000 0.8352 -0.5500
vn -0.0000 0.8243 -0.5662
vn -0.0000 0.8188 -0.5741
vn -0.0000 0.8457 -0.5337
vn -0.0001 0.8660 -0.5001
vn -0.0000 0.8559 -0.5172
vn -0.0000 0.8351 -0.5501
vn -0.0000 0.8558 -0.5172
vn -0.0000 0.8796 -0.4756
vn -0.0000 0.8978 -0.4405
vn -0.0000 0.8934 -0.4492
vn -0.0000 0.8835 -0.4684
vn -0.0000 0.8658 -0.5004
vn -0.0000 0.8508 -0.5255
vn -0.0000 0.8753 -0.4835
vn -0.0001 0.8560 -0.5170
vn -0.0001 0.8657 -0.5006
vn -0.0000 0.8351 -0.5500
vn -0.0000 0.8657 -0.5005
vn -0.0000 0.8422 -0.5392
vn -0.0000 0.8093 -0.5873
vn -0.0000 0.7899 -0.6133
vn -0.0000 0.7654 -0.6435
vn -0.0000 0.8860 -0.4636
vn -0.0000 0.8800 -0.4750
vn -0.0000 0.8869 -0.4620
vn -0.0001 0.8936 -0.4488
vn -0.0000 0.9168 -0.3994
vn -0.0000 0.8997 -0.4366
vn -0.0000 0.9181 -0.3964
vn -0.0000 0.9194 -0.3934
vn -0.0000 0.7064 -0.7078
vn -0.0000 0.6640 -0.7477
vn -0.0001 0.7381 -0.6747
vn -0.0000 0.7023 -0.7119
vn -0.0000 0.7039 -0.7103
vn -0.0000 0.6823 -0.7311
vn -0.0000 0.6798 -0.7334
vn -0.0000 0.7655 -0.6434
vn -0.0000 0.6851 -0.7284
vn -0.0000 0.7354 -0.6776
vn -0.0000 0.7268 -0.6869
vn -0.0000 0.7355 -0.6776
vn -0.0000 0.7464 -0.6655
vn -0.0000 0.6688 -0.7434
vn -0.0000 0.6730 -0.7396
vn -0.0000 0.7065 -0.7077
vn -0.0000 0.6855 -0.7281
vn -0.0000 0.8935 -0.4491
vn -0.0000 0.7592 -0.6508
vn -0.0000 0.7839 -0.6209
vn -0.0000 0.6689 -0.7434
vn -0.0001 0.6731 -0.7396
vn -0.0000 0.6687 -0.7435
vn -0.0000 0.6640 -0.7478
vn -0.0000 0.6854 -0.7281
vn -0.0000 0.6767 -0.7362
vn -0.0000 0.7267 -0.6869
vn -0.0001 0.7023 -0.7119
vn -0.0000 0.6841 -0.7294
vn -0.0000 0.7464 -0.6654
vn -0.0000 0.7671 -0.6416
vn -0.0000 0.6840 -0.7295
vn -0.0001 0.6855 -0.7281
vn -0.0000 0.6822 -0.7311
vn -0.0001 0.7039 -0.7103
vn -0.0000 0.6688 -0.7435
vn -0.0000 0.6768 -0.7362
vn -0.0000 0.8559 -0.5171
vn -0.0000 0.9293 -0.3694
vn -0.0000 0.9061 -0.4230
vn -0.0000 0.8797 -0.4756
vn -0.0000 0.9292 -0.3695
vn -0.0000 0.8891 -0.4578
vn -0.0000 0.6840 -0.7294
vn -0.0000 0.6395 -0.7688
vn -0.0000 0.6124 -0.7906
vn -0.0000 0.6639 -0.7478
vn -0.0000 0.6394 -0.7689
vn -0.0000 0.6123 -0.7906
vn -0.0000 0.5935 -0.8048
vn -0.0000 0.5827 -0.8127
vn -0.0000 0.5936 -0.8048
vn -0.0000 0.5935 -0.8049
vn -0.0001 0.5827 -0.8127
vn -0.0000 0.5506 -0.8348
vn -0.0000 0.5160 -0.8566
vn -0.0000 0.5181 -0.8553
vn -0.0000 0.4789 -0.8779
vn -0.0000 0.4394 -0.8983
vn -0.0000 0.3974 -0.9176
vn -0.0000 0.4384 -0.8988
vn -0.0000 0.3530 -0.9356
vn -0.0000 0.3065 -0.9519
vn -0.0000 0.3551 -0.9348
vn -0.0000 0.2581 -0.9661
vn -0.0000 0.2690 -0.9631
vn -0.0000 0.2688 -0.9632
vn -0.0000 0.2080 -0.9781
vn -0.0000 0.1805 -0.9836
vn -0.0000 0.1568 -0.9876
vn -0.0000 0.0906 -0.9959
vn -0.0000 0.1045 -0.9945
vn -0.0000 -0.0000 -1.0000
vn -0.0000 0.0517 -0.9987
vn -0.0000 -0.0544 -0.9985
vn -0.0000 -0.0014 -1.0000
vn -0.0000 -0.2606 -0.9654
vn -0.0000 -0.3089 -0.9511
vn -0.0000 -0.2691 -0.9631
vn -0.0000 -0.6640 -0.7477
vn -0.0000 -0.6395 -0.7688
vn -0.0000 -0.6126 -0.7904
vn -0.0000 -0.6640 -0.7478
vn -0.0000 -0.5935 -0.8048
vn -0.0000 -0.5831 -0.8124
vn -0.0000 -0.5935 -0.8049
vn -0.0000 -0.5513 -0.8343
vn -0.0001 -0.5832 -0.8123
vn 0.0001 -0.5935 -0.8048
vn -0.0000 -0.5170 -0.8560
vn -0.0000 -0.5181 -0.8553
vn -0.0000 -0.4803 -0.8771
vn -0.0000 -0.5182 -0.8553
vn -0.0000 -0.4411 -0.8975
vn -0.0000 -0.4385 -0.8987
vn -0.0000 -0.4384 -0.8988
vn -0.0000 -0.3994 -0.9168
vn -0.0000 -0.3551 -0.9348
vn -0.0000 -0.3553 -0.9347
vn -0.0000 -0.3552 -0.9348
vn -0.0000 -0.3090 -0.9511
vn -0.0000 -0.2106 -0.9776
vn -0.0000 -0.2606 -0.9655
vn -0.0000 -0.2689 -0.9632
vn -0.0000 -0.1805 -0.9836
vn -0.0000 -0.2688 -0.9632
vn -0.0000 -0.1072 -0.9942
vn -0.0000 -0.0906 -0.9959
vn -0.0000 -0.1074 -0.9942
vn -0.0000 -0.1594 -0.9872
vn -0.0000 -0.0545 -0.9985
vn -0.0000 -0.0907 -0.9959
vn -0.0000 0.0907 -0.9959
vn -0.0000 0.1806 -0.9836
vn -0.0000 0.2081 -0.9781
vn -0.0000 0.3531 -0.9356
vn -0.0000 0.3552 -0.9348
vn -0.0000 0.3974 -0.9177
vn -0.0000 0.3214 -0.9469
vn -0.0000 0.3856 -0.9227
vn -0.0000 0.3445 -0.9388
vn -0.0000 0.3058 -0.9521
vn -0.0000 0.3615 -0.9324
vn -0.0000 0.4277 -0.9039
vn -0.0001 0.3848 -0.9230
vn -0.0000 0.3305 -0.9438
vn -0.0000 0.3911 -0.9203
vn -0.0000 0.2743 -0.9616
vn -0.0000 0.3288 -0.9444
vn -0.0001 0.4021 -0.9156
vn -0.0000 0.3201 -0.9474
vn -0.0000 0.4667 -0.8844
vn -0.0000 0.1241 -0.9923
vn -0.0000 0.0524 -0.9986
vn -0.0000 0.1532 -0.9882
vn -0.0000 0.1656 -0.9862
vn -0.0000 0.0908 -0.9959
vn -0.0000 -0.3053 -0.9523
vn -0.0000 -0.3725 -0.9280
vn -0.0000 -0.3138 -0.9495
vn -0.0000 -0.2802 -0.9599
vn -0.0000 -0.4394 -0.8983
vn -0.0000 -0.5169 -0.8561
vn -0.0000 -0.4775 -0.8786
vn -0.0000 -0.4170 -0.9089
vn -0.0000 -0.4943 -0.8693
vn -0.0000 -0.5766 -0.8170
vn -0.0000 -0.5735 -0.8192
vn -0.0000 -0.2966 -0.9550
vn -0.0000 -0.2312 -0.9729
vn -0.0000 -0.2661 -0.9639
vn -0.0000 -0.3900 -0.9208
vn -0.0000 -0.3065 -0.9519
vn -0.0000 -0.4541 -0.8910
vn -0.0000 -0.3974 -0.9176
vn -0.0000 -0.3613 -0.9324
vn -0.0000 -0.4471 -0.8945
vn -0.0000 0.2592 -0.9658
vn -0.0000 0.2106 -0.9776
vn -0.0000 0.2606 -0.9655
vn -0.0000 0.2207 -0.9753
vn -0.0000 0.2958 -0.9552
vn -0.0000 0.2250 -0.9744
vn -0.0000 0.3247 -0.9458
vn -0.0000 0.3367 -0.9416
vn -0.0000 0.2689 -0.9632
vn -0.0000 0.1657 -0.9862
vn -0.0000 0.2515 -0.9679
vn -0.0000 -0.5803 -0.8144
vn -0.0000 -0.5171 -0.8559
vn -0.0000 -0.5247 -0.8513
vn -0.0000 -0.6347 -0.7728
vn -0.0000 -0.6357 -0.7719
vn -0.0000 -0.6175 -0.7865
vn -0.0000 -0.5999 -0.8001
vn -0.0000 -0.5495 -0.8355
vn -0.0000 -0.3709 -0.9287
vn -0.0000 -0.3817 -0.9243
vn -0.0000 -0.4681 -0.8837
vn -0.0000 -0.4123 -0.9110
vn -0.0000 -0.4682 -0.8836
vn -0.0000 -0.3278 -0.9447
vn -0.0000 -0.2543 -0.9671
vn -0.0000 -0.2690 -0.9631
vn -0.0000 -0.1375 -0.9905
vn -0.0000 -0.1172 -0.9931
vn -0.0000 -0.1871 -0.9823
vn 0.0001 -0.1304 -0.9915
vn -0.0000 -0.2595 -0.9657
vn -0.0000 -0.1870 -0.9824
vn -0.0000 -0.1703 -0.9854
vn -0.0000 -0.2618 -0.9651
vn -0.0000 -0.2974 -0.9547
vn -0.0000 -0.2615 -0.9652
vn -0.0000 -0.3380 -0.9412
vn -0.0000 -0.2582 -0.9661
vn -0.0000 -0.1701 -0.9854
vn -0.0000 -0.0992 -0.9951
vn -0.0000 0.4827 -0.8758
vn -0.0000 0.5463 -0.8376
vn -0.0000 0.4717 -0.8818
vn -0.0000 0.4857 -0.8741
vn -0.0000 -0.5860 -0.8103
vn 0.0002 -0.1546 -0.9880
vn -0.0001 -0.0741 -0.9973
vn -0.0000 -0.1204 -0.9927
vn -0.0000 -0.1544 -0.9880
vn -0.0000 -0.1568 -0.9876
vn -0.0000 -0.1045 -0.9945
vn -0.0000 0.0031 -1.0000
vn -0.0000 -0.0239 -0.9997
vn -0.0000 -0.0740 -0.9973
vn -0.0000 -0.0517 -0.9987
vn -0.0000 0.1535 -0.9882
vn -0.0000 0.0797 -0.9968
vn -0.0000 0.1072 -0.9942
vn -0.0000 0.1284 -0.9917
vn -0.0000 0.0014 -1.0000
vn -0.0000 0.0451 -0.9990
vn -0.0000 0.0043 -1.0000
vn -0.0000 0.0845 -0.9964
vn -0.0000 0.0044 -1.0000
vn 0.0001 0.0037 -1.0000
vn -0.0000 0.1084 -0.9941
vn -0.0000 -0.0752 -0.9972
vn -0.0000 0.1403 -0.9901
vn -0.0000 0.0992 -0.9951
vn -0.0000 -0.1427 -0.9898
vn -0.0000 -0.0519 -0.9987
vn -0.0000 -0.1947 -0.9809
vn -0.0001 -0.2115 -0.9774
vn -0.0000 -0.5089 -0.8608
vn -0.0000 -0.5559 -0.8313
vn -0.0000 -0.5999 -0.8000
vn -0.0000 -0.4624 -0.8867
vn -0.0000 -0.2036 -0.9791
vn -0.0000 0.6147 -0.7887
vn -0.0000 0.6304 -0.7763
vn -0.0000 0.6148 -0.7887
vn -0.0000 0.6641 -0.7477
vn -0.0000 0.5597 -0.8287
vn -0.0000 0.5836 -0.8121
vn -0.0000 0.4835 -0.8753
vn -0.0000 0.4411 -0.8975
vn -0.0000 0.5221 -0.8529
vn -0.0000 0.4397 -0.8981
vn -0.0000 0.5387 -0.8425
vn -0.0000 0.6103 -0.7922
vn -0.0000 0.4803 -0.8771
vn -0.0000 0.5170 -0.8560
vn -0.0000 0.2715 -0.9624
vn -0.0000 0.2752 -0.9614
vn -0.0000 0.0033 -1.0000
vn -0.0000 0.2459 -0.9693
vn -0.0000 0.4084 -0.9128
vn -0.0000 0.4880 -0.8728
vn -0.0000 0.3191 -0.9477
vn -0.0000 0.2090 -0.9779
vn -0.0000 -0.4789 -0.8779
vn -0.0000 -0.5559 -0.8312
vn 0.0001 -0.5827 -0.8127
vn -0.0000 -0.5506 -0.8348
vn -0.0000 -0.6123 -0.7906
vn -0.0000 -0.5827 -0.8127
vn -0.0000 -0.5861 -0.8103
vn -0.0000 0.0544 -0.9985
vn -0.0000 0.2107 -0.9776
vn -0.0000 0.1594 -0.9872
vn -0.0000 0.1073 -0.9942
vn -0.0001 0.0545 -0.9985
vn -0.0000 -0.1426 -0.9898
vn -0.0000 -0.0908 -0.9959
vn -0.0000 0.3994 -0.9168
vn -0.0000 0.3553 -0.9348
vn -0.0000 0.3089 -0.9511
vn -0.0000 0.4717 -0.8817
vn -0.0000 0.5513 -0.8343
vn -0.0000 -0.6124 -0.7906
vn -0.0000 -0.6394 -0.7689
vn -0.0000 -0.4383 -0.8988
vn -0.0000 -0.3531 -0.9356
vn -0.0000 -0.2080 -0.9781
vn -0.0000 0.1595 -0.9872
vn -0.0000 0.1535 -0.9881
vn -0.0000 0.3057 -0.9521
vn -0.0000 0.6126 -0.7904
vn -0.0000 0.5832 -0.8123
vn -0.0000 0.6125 -0.7905
vn -0.0000 0.5831 -0.8124
vn -0.0001 0.5832 -0.8123
vn -0.0000 0.4410 -0.8975
vn -0.0000 0.4411 -0.8974
vn -0.0000 0.0525 -0.9986
vn -0.0000 0.2593 -0.9658
vn -0.0000 0.2606 -0.9654
vn -0.0000 -0.1567 -0.9876
vn -0.0000 -0.1542 -0.9880
vn -0.0000 -0.2581 -0.9661
vn -0.0000 -0.3530 -0.9356
vn -0.0000 -0.5506 -0.8347
vn -0.0000 -0.5160 -0.8566
vn -0.0000 -0.5558 -0.8313
vn -0.0000 -0.4789 -0.8778
vn -0.0000 -0.6639 -0.7478
vn -0.0000 0.0013 -1.0000
vn -0.0000 0.4383 -0.8988
vn -0.0000 0.3848 -0.9230
vn -0.0000 -0.7843 -0.6204
vn -0.0000 -0.7626 -0.6469
vn -0.0000 -0.7655 -0.6434
vn -0.0000 -0.7887 -0.6148
vn -0.0000 -0.6774 -0.7356
vn -0.0000 -0.7036 -0.7106
vn -0.0000 -0.6730 -0.7396
vn -0.0000 -0.7033 -0.7109
vn -0.0000 -0.9023 -0.4310
vn -0.0000 -0.8890 -0.4578
vn -0.0000 -0.9001 -0.4356
vn -0.0000 -0.9168 -0.3993
vn -0.0000 -0.9062 -0.4229
vn -0.0000 -0.7841 -0.6207
vn -0.0000 -0.8017 -0.5978
vn -0.0000 -0.7876 -0.6162
vn -0.0002 -0.8457 -0.5337
vn -0.0001 -0.8660 -0.5001
vn -0.0000 -0.8558 -0.5172
vn -0.0000 -0.8351 -0.5500
vn -0.0000 -0.8559 -0.5172
vn -0.0000 -0.8796 -0.4756
vn -0.0000 -0.8978 -0.4405
vn -0.0000 -0.8835 -0.4684
vn -0.0000 -0.8800 -0.4750
vn -0.0000 -0.8753 -0.4835
vn 0.0001 -0.8558 -0.5174
vn -0.0001 -0.8657 -0.5006
vn -0.0000 -0.8658 -0.5004
vn 0.0001 -0.8352 -0.5500
vn -0.0000 -0.8508 -0.5255
vn -0.0001 -0.8243 -0.5661
vn -0.0000 -0.8087 -0.5883
vn -0.0001 -0.8351 -0.5501
vn -0.0000 -0.8131 -0.5821
vn -0.0000 -0.8351 -0.5501
vn -0.0000 -0.8657 -0.5005
vn -0.0000 -0.8422 -0.5392
vn -0.0000 -0.8243 -0.5662
vn -0.0000 -0.8016 -0.5978
vn -0.0000 -0.8094 -0.5873
vn -0.0000 -0.8089 -0.5879
vn -0.0000 -0.8017 -0.5977
vn -0.0000 -0.7899 -0.6133
vn -0.0000 -0.7654 -0.6435
vn -0.0000 -0.7705 -0.6374
vn -0.0000 -0.8860 -0.4636
vn -0.0000 -0.8869 -0.4620
vn -0.0001 -0.8936 -0.4489
vn -0.0000 -0.7610 -0.6487
vn -0.0000 -0.7583 -0.6519
vn -0.0001 -0.7360 -0.6770
vn -0.0000 -0.7175 -0.6966
vn -0.0000 -0.7359 -0.6771
vn -0.0000 -0.7269 -0.6868
vn -0.0000 -0.7267 -0.6869
vn -0.0000 -0.7464 -0.6655
vn -0.0000 -0.8008 -0.5990
vn -0.0000 -0.8188 -0.5741
vn -0.0000 -0.8997 -0.4366
vn -0.0000 -0.9181 -0.3964
vn -0.0000 -0.6991 -0.7150
vn -0.0001 -0.6798 -0.7334
vn -0.0000 -0.6822 -0.7311
vn -0.0000 -0.7340 -0.6791
vn -0.0000 -0.7064 -0.7079
vn -0.0000 -0.7613 -0.6484
vn -0.0000 -0.7464 -0.6654
vn -0.0000 -0.7131 -0.7011
vn -0.0000 -0.7471 -0.6647
vn -0.0000 -0.7886 -0.6150
vn -0.0000 -0.7839 -0.6208
vn -0.0000 -0.6952 -0.7188
vn -0.0000 -0.7367 -0.6762
vn -0.0000 -0.8891 -0.4578
vn -0.0000 -0.9061 -0.4230
vn -0.0000 -0.8934 -0.4492
vn -0.0000 -0.9194 -0.3934
vn -0.0000 -0.9293 -0.3694
vn -0.0000 -0.9168 -0.3994
vn -0.0000 -0.8352 -0.5500
vn -0.0000 -0.7840 -0.6207
vn -0.0000 -0.7885 -0.6150
vn -0.0000 -0.7065 -0.7077
vn -0.0000 -0.6855 -0.7281
vn -0.0000 -0.7131 -0.7010
vn -0.0000 -0.6851 -0.7284
vn -0.0000 -0.6840 -0.7295
vn -0.0000 -0.7465 -0.6654
vn -0.0000 -0.6687 -0.7435
vn -0.0000 -0.6689 -0.7434
vn -0.0000 -0.6767 -0.7362
vn -0.0000 -0.6798 -0.7334
vn -0.0000 -0.7064 -0.7078
vn -0.0000 -0.7341 -0.6791
vn -0.0000 -0.8090 -0.5879
vn -0.0000 -0.8935 -0.4491
vn -0.0000 -0.8008 -0.5989
vn -0.0000 -0.6823 -0.7311
vn -0.0000 -0.7839 -0.6209
vn -0.0000 -0.6688 -0.7434
vn -0.0000 -0.6688 -0.7435
vn 0.0001 -0.6731 -0.7396
vn -0.0000 -0.6731 -0.7396
vn -0.0000 -0.6768 -0.7362
vn -0.0000 -0.7035 -0.7107
s 1
usemtl Diffuse_51_51_51_100.020
f 1//1 2//1 3//1
f 1//1 3//1 4//1
f 1//1 4//1 5//1
f 1//1 5//1 6//2
f 7//1 1//1 8//1
f 1//1 6//2 8//1
f 9//1 1//1 7//1
f 10//1 1//1 9//1
f 10//1 11//1 1//1
f 11//1 12//1 1//1
f 12//1 13//1 1//1
f 13//1 14//3 1//1
f 14//3 15//1 1//1
s 0
f 1//1 16//1 17//1
s 1
f 18//1 2//1 1//1
f 19//1 2//1 18//1
f 19//1 18//1 20//1
f 19//1 20//1 21//1
f 20//1 22//1 21//1
f 22//1 23//1 21//1
f 24//1 23//1 22//1
f 25//1 23//1 24//1
f 25//1 24//1 26//1
f 25//1 26//1 27//1
f 26//1 28//1 27//1
f 28//1 29//1 27//1
f 30//1 29//1 28//1
f 31//1 29//1 30//1
f 32//1 31//1 33//1
f 31//1 30//1 33//1
f 32//1 33//1 34//1
f 35//1 36//1 37//1
f 36//1 38//1 37//1
f 39//1 40//4 41//1
f 40//4 42//1 41//1
f 42//1 43//5 41//1
f 43//5 44//4 41//1
f 45//1 44//4 46//4
f 47//4 44//4 45//1
f 43//5 46//4 44//4
f 48//1 46//4 43//5
f 49//1 46//4 48//1
f 50//1 49//1 48//1
f 47//4 51//1 44//4
f 49//1 50//1 35//1
f 50//1 36//1 35//1
f 38//1 32//1 34//1
f 38//1 34//1 37//1
s 0
f 16//1 1//1 15//6
s 1
f 52//7 53//8 54//8
f 52//7 54//8 55//8
f 52//7 55//8 56//9
f 52//7 56//9 57//7
f 58//8 59//8 57//7
f 60//8 61//8 59//8
f 62//8 61//8 60//8
f 63//8 64//8 62//8
f 65//8 64//8 63//8
f 66//8 65//8 67//8
f 66//8 67//8 68//8
f 69//8 68//8 70//8
f 71//8 70//8 72//8
f 71//8 72//8 73//8
f 74//8 75//8 76//8
f 77//8 74//8 78//8
f 77//8 78//8 79//8
f 80//8 81//8 82//8
f 81//8 79//8 82//8
f 83//8 82//8 84//9
s 0
f 82//8 85//10 86//8
f 82//8 86//8 87//8
s 1
f 88//11 82//8 89//8
f 88//11 90//8 82//8
f 90//8 91//8 82//8
f 82//8 92//8 93//11
f 82//8 93//11 94//8
f 82//8 94//8 95//12
f 82//8 95//12 96//8
f 84//9 82//8 97//8
f 82//8 96//8 97//8
f 91//8 92//8 82//8
f 89//8 82//8 87//8
f 83//8 80//8 82//8
f 79//8 81//8 77//8
f 76//8 78//8 74//8
f 98//8 76//8 75//8
f 98//8 75//8 73//8
f 98//8 73//8 72//8
f 70//8 71//8 69//8
f 68//8 69//8 66//8
f 63//8 67//8 65//8
f 60//8 59//8 58//8
f 61//8 62//8 64//8
f 99//12 57//7 100//8
f 101//8 99//12 102//8
f 58//8 57//7 56//9
f 57//7 99//12 52//7
f 100//8 102//8 99//12
f 103//13 104//13 105//13
f 106//13 107//13 108//13
f 109//13 110//13 111//14
f 105//14 112//13 109//13
f 111//13 113//13 114//13
f 115//15 116//16 117//1
f 118//17 119//18 115//15
f 120//19 118//17 121//20
f 120//19 121//20 122//21
f 123//22 122//21 124//23
f 123//22 124//23 125//24
f 125//24 126//25 127//26
f 126//25 128//27 127//26
f 128//27 129//28 130//29
f 129//28 131//30 130//29
f 132//31 133//32 131//30
f 134//33 133//32 132//31
f 135//34 136//35 134//33
f 137//36 136//35 135//34
f 138//37 137//36 139//38
f 140//39 141//40 142//41
f 141//40 143//41 142//41
f 144//42 141//40 140//39
f 144//42 140//39 145//43
f 144//42 145//43 146//44
f 146//44 145//43 147//45
f 146//44 147//45 148//46
f 147//45 138//37 148//46
f 138//37 139//38 148//46
f 137//36 135//34 139//38
f 136//35 133//32 134//33
f 132//31 131//30 129//28
f 128//27 130//29 127//26
f 123//22 120//19 122//21
f 124//23 126//25 125//24
f 116//16 115//15 119//18
f 149//47 117//1 116//16
f 150//48 117//1 149//47
f 151//49 150//48 149//47
f 152//50 150//48 151//49
f 152//50 153//51 154//52
f 153//51 155//53 154//52
f 156//54 157//55 155//53
f 158//56 156//54 159//57
f 158//56 160//58 161//59
f 162//60 163//61 161//59
f 164//62 163//61 165//63
f 166//64 167//65 168//66
f 169//67 166//64 170//68
f 167//65 171//69 168//66
f 172//70 173//71 174//72
f 172//70 174//72 175//73
f 173//71 176//74 177//75
f 176//74 178//76 177//75
f 178//76 179//77 177//75
f 180//78 181//79 179//77
f 181//79 180//78 182//80
f 181//79 182//80 183//81
f 183//81 184//82 185//83
f 184//82 186//84 185//83
f 186//84 187//85 185//83
f 187//85 188//86 189//87
f 188//86 190//88 189//87
f 191//89 190//88 188//86
f 192//90 193//91 191//89
f 194//92 193//91 192//90
f 194//92 192//90 195//93
f 166//64 164//62 170//68
f 196//94 194//92 197//95
f 165//63 163//61 162//60
f 198//96 196//94 199//97
f 196//94 197//95 199//97
f 200//98 198//96 201//99
f 161//59 160//58 162//60
f 200//98 201//99 202//100
f 160//58 158//56 159//57
f 203//101 200//98 204//102
f 156//54 158//56 157//55
f 203//101 204//102 205//103
f 154//52 155//53 157//55
f 203//101 205//103 206//104
f 153//51 152//50 151//49
f 175//73 168//66 171//69
f 207//105 208//106 206//104
f 207//105 209//107 208//106
f 209//107 210//108 211//109
f 210//108 212//110 211//109
f 213//111 212//110 210//108
f 214//112 215//113 212//110
f 216//114 215//113 214//112
f 217//115 218//116 216//114
f 219//117 218//116 217//115
f 220//118 219//117 221//119
f 220//118 221//119 222//120
f 223//121 220//118 224//122
f 223//121 224//122 225//123
f 226//124 225//123 227//125
f 228//126 229//127 230//128
f 228//126 230//128 231//129
f 232//130 233//131 234//132
f 235//133 228//126 236//134
f 237//135 238//136 239//137
f 240//138 241//139 242//140
f 243//141 244//142 245//143
f 246//144 247//145 248//146
f 249//147 250//148 251//149
f 252//150 253//151 254//152
f 255//153 256//154 257//155
f 258//156 259//157 256//154
f 259//157 260//158 261//159
f 260//158 262//160 263//161
f 262//160 264//162 265//163
f 264//162 266//164 267//165
f 198//96 199//97 201//99
f 197//95 194//92 195//93
f 143//41 268//166 142//41
f 269//167 268//166 143//41
f 270//168 268//166 269//167
f 270//168 269//167 267//165
f 264//162 267//165 265//163
f 262//160 265//163 263//161
f 260//158 263//161 261//159
f 259//157 261//159 256//154
f 258//156 256//154 255//153
f 255//153 257//155 252//150
f 257//155 253//151 252//150
f 253//151 250//148 254//152
f 250//148 249//147 254//152
f 251//149 271//169 249//147
f 272//170 271//169 251//149
f 272//170 251//149 248//146
f 272//170 248//146 247//145
f 247//145 246//144 273//171
f 246//144 274//172 273//171
f 274//172 243//141 273//171
f 244//142 243//141 274//172
f 275//173 245//143 244//142
f 275//173 244//142 276//174
f 275//173 276//174 277//175
f 276//174 241//139 277//175
f 241//139 240//138 277//175
f 242//140 278//176 240//138
f 279//177 278//176 242//140
f 280//178 278//176 279//177
f 280//178 279//177 238//136
f 279//177 239//137 238//136
f 239//137 281//179 237//135
f 281//179 282//180 237//135
f 283//181 282//180 281//179
f 284//182 282//180 283//181
f 284//182 283//181 234//132
f 284//182 234//132 233//131
f 234//132 285//183 232//130
f 285//183 286//184 232//130
f 287//185 286//184 285//183
f 288//186 286//184 287//185
f 288//186 287//185 289//187
f 288//186 289//187 290//188
f 289//187 235//133 290//188
f 235//133 236//134 290//188
f 226//124 227//125 229//127
f 231//129 236//134 228//126
f 227//125 230//128 229//127
f 223//121 225//123 226//124
f 220//118 222//120 224//122
f 219//117 217//115 221//119
f 218//116 215//113 216//114
f 214//112 212//110 213//111
f 209//107 211//109 208//106
f 205//103 207//105 206//104
f 200//98 202//100 204//102
f 270//168 267//165 266//164
f 190//88 191//89 193//91
f 189//87 185//83 187//85
f 184//82 183//81 182//80
f 178//76 180//78 179//77
f 174//72 173//71 177//75
f 175//73 171//69 172//70
f 167//65 166//64 169//67
f 121//20 118//17 115//15
f 165//63 170//68 164//62
f 291//189 292//189 293//189
f 294//189 295//189 296//189
f 297//190 298//189 299//189
f 300//189 297//189 301//189
f 298//189 291//190 302//189
f 303//191 304//191 305//191
f 306//191 307//191 308//191
f 309//191 310//191 311//191
f 312//191 313//191 314//191
f 315//191 316//191 317//191
f 318//191 319//191 320//191
f 321//191 322//191 323//191
f 324//191 325//191 326//191
f 327//191 328//191 329//191
f 330//191 331//191 332//191
f 333//191 334//191 335//191
f 336//191 337//191 338//191
f 339//191 340//191 341//191
f 342//191 343//191 344//191
f 345//191 346//191 347//191
f 348//191 349//191 350//191
f 351//191 352//191 353//191
f 354//191 355//191 356//191
f 357//192 358//192 359//192
f 360//191 361//191 362//191
f 363//192 364//192 365//192
f 366//193 367//193 368//193
f 369//191 370//191 371//191
f 372//193 373//193 374//193
f 375//191 376//191 377//191
f 378//193 379//193 380//193
f 381//191 382//191 383//191
f 384//191 385//191 386//191
f 387//191 388//191 389//191
f 390//194 391//194 392//194
f 393//191 394//191 395//191
f 396//193 397//193 398//193
f 399//191 400//191 401//191
f 402//191 403//191 404//191
f 405//191 406//191 407//191
f 408//191 409//191 410//191
f 411//191 412//191 413//191
f 414//191 415//191 416//191
f 417//191 418//191 419//191
f 420//191 421//191 422//191
f 423//192 424//192 425//192
f 426//193 427//193 428//193
f 429//192 430//192 431//192
f 432//191 433//191 434//191
f 435//191 436//191 437//191
f 438//191 439//191 440//191
f 441//191 442//191 443//191
f 444//191 445//191 446//191
f 447//191 448//191 449//191
f 450//191 451//191 452//191
f 453//191 454//191 455//191
f 456//192 457//192 458//192
f 459//191 460//191 461//191
f 462//193 463//193 464//193
f 465//191 466//191 467//191
f 468//191 469//191 470//191
f 471//191 472//191 473//191
f 474//195 475//195 476//195
f 477//194 478//194 479//194
f 480//191 481//191 482//191
f 483//191 484//191 485//191
f 486//191 487//191 488//191
f 489//191 490//191 491//191
f 492//191 493//191 494//191
f 495//191 496//191 497//191
f 498//191 499//191 500//191
f 501//191 502//191 503//191
f 504//192 505//192 506//192
f 507//191 508//191 509//191
f 510//191 511//191 512//191
f 513//191 514//191 515//191
f 516//192 517//192 518//192
f 519//191 520//191 521//191
f 522//191 523//191 524//191
f 525//191 526//191 527//191
f 528//191 529//191 530//191
f 531//191 532//191 533//191
f 534//191 535//191 536//191
f 537//191 538//191 539//191
f 540//196 541//196 542//196
f 543//194 544//194 545//194
f 546//191 547//191 548//191
f 549//191 550//191 551//191
f 552//191 553//191 554//191
f 555//197 556//198 557//199
f 555//197 558//200 556//198
f 559//201 560//202 561//203
f 559//201 562//204 563//205
f 564//206 565//207 566//208
f 564//206 562//204 567//209
f 564//206 567//209 568//210
f 562//204 561//203 569//211
f 570//212 563//205 571//213
f 570//212 558//200 560//202
f 570//212 571//213 556//198
f 563//205 572//214 571//213
f 569//211 561//203 573//215
f 569//211 567//209 562//204
f 574//216 575//217 576//218
f 574//216 577//219 575//217
f 578//220 579//221 580//222
f 578//220 581//223 582//224
f 583//225 584//226 585//215
f 583//225 580//222 586//227
f 580//222 587//228 586//227
f 580//222 579//221 587//228
f 579//221 588//229 589//230
f 579//199 590//224 591//231
f 592//232 593//233 594//234
f 592//232 595//235 596//236
f 597//237 598//238 599//239
f 597//237 600//240 598//238
f 594//234 601//235 592//232
f 594//234 602//241 603//242
f 604//243 605//244 606//241
f 604//243 575//217 607//245
f 605//244 588//229 608//246
f 605//244 607//245 588//229
f 592//232 596//236 593//233
f 595//235 557//199 609//235
f 596//236 610//247 593//233
f 596//236 609//235 611//248
f 611//248 589//230 588//229
f 611//248 609//235 589//230
f 589//230 587//228 579//221
f 589//230 609//235 612//249
f 557//199 613//224 612//249
f 557//199 556//198 613//224
f 612//249 609//235 557//199
f 612//249 614//250 587//228
f 614//250 615//251 586//227
f 614//250 613//224 571//213
f 600//240 593//233 616//252
f 594//234 597//237 617//253
f 618//254 577//219 619//255
f 618//254 607//245 575//217
f 577//219 574//216 620//256
f 618//254 619//255 610//247
f 621//257 622//258 623//259
f 621//257 619//255 622//258
f 616//252 593//233 610//247
f 616//252 598//238 600//240
f 568//210 567//209 624//260
f 568//210 625//261 565//207
f 558//200 601//235 626//231
f 601//235 555//197 595//235
f 559//201 561//203 562//204
f 560//202 627//224 628//223
f 562//204 564//206 563//205
f 566//208 629//262 572//214
f 291//190 620//256 630//258
f 291//190 298//189 620//256
f 620//256 574//216 631//218
f 620//256 298//189 622//258
f 604//243 607//245 605//244
f 575//217 577//219 618//254
f 297//190 623//259 298//189
f 623//259 598//238 621//257
f 623//259 297//190 632//258
f 633//263 584//226 634//264
f 633//263 635//265 636//266
f 629//262 615//251 572//214
f 629//262 634//264 584//226
f 586//227 587//228 614//250
f 637//223 578//220 638//267
f 633//263 634//264 639//268
f 584//226 586//227 629//262
f 640//260 569//269 641//270
f 572//214 564//206 566//208
f 571//213 572//214 615//251
f 570//212 556//198 558//200
f 568//210 565//207 564//206
f 625//261 642//261 565//207
f 563//205 564//206 572//214
f 565//207 643//261 634//264
f 571//213 615//251 614//250
f 566//208 565//207 634//264
f 621//257 616//252 619//255
f 598//238 644//218 645//239
f 577//219 622//258 619//255
f 620//256 622//258 577//219
f 610//247 619//255 616//252
f 610//247 596//236 611//248
f 584//226 583//225 586//227
f 611//248 607//245 610//247
f 588//229 607//245 611//248
f 607//245 618//254 610//247
f 597//237 593//233 600//240
f 595//235 555//197 557//199
f 598//238 616//252 621//257
f 592//232 601//235 595//235
f 595//235 609//235 596//236
f 589//230 612//249 587//228
f 586//227 615//251 629//262
f 614//250 612//249 613//224
f 569//271 646//272 647//270
f 560//202 559//201 570//212
f 601//235 558//200 555//197
f 556//198 571//213 613//224
f 634//264 648//273 649//274
f 650//275 651//276 568//210
f 652//253 653//277 604//243
f 623//259 622//258 298//189
f 654//231 655//246 579//199
f 656//229 601//235 594//234
f 657//268 633//263 658//276
f 659//267 561//278 660//279
f 661//280 662//276 663//281
f 664//282 665//283 666//284
f 667//274 668//276 669//285
f 670//285 671//276 672//275
f 633//263 673//285 674//260
f 633//263 675//266 676//285
f 677//260 678//286 633//263
f 679//265 633//287 680//288
f 681//289 682//267 583//290
f 683//224 579//221 578//220
f 583//225 578//220 580//222
f 684//215 561//278 685//267
f 588//229 579//221 686//229
f 563//205 570//212 559//201
f 687//268 634//264 688//291
f 689//291 634//264 690//265
f 691//292 692//261 568//210
f 693//266 694//293 634//264
f 695//286 696//215 584//226
f 629//262 566//208 634//264
f 634//294 697//261 698//295
f 699//274 700//285 634//264
f 568//210 701//261 625//261
f 702//266 634//264 703//296
f 704//260 567//209 569//211
f 705//276 633//263 706//268
f 707//242 708//241 605//234
f 558//200 709//231 560//202
f 710//229 711//242 605//234
f 712//224 560//202 713//231
f 604//243 714//241 715//253
f 716//229 594//297 717//242
f 718//258 719//218 623//259
f 720//298 721//258 297//189
f 623//259 722//299 598//238
f 723//253 597//300 724//239
f 291//190 725//258 726//301
f 727//253 728//241 594//234
f 729//258 620//256 730//299
f 593//233 597//237 594//234
f 731//239 732//299 575//302
f 604//243 733//239 575//217
f 734//231 601//235 735//229
f 736//279 561//203 560//202
f 737//303 633//263 738//268
f 633//263 739//270 584//226
f 740//276 741//261 742//261
f 578//220 583//225 743//267
f 744//261 745//261 746//304
f 747//305 748//306 749//307
f 750//308 751//309 752//261
f 753//308 754//310 755//311
f 756//312 757//313 758//314
f 759//315 760//309 761//314
f 762//315 763//316 764//312
f 765//317 766//318 767//316
f 768//318 769//319 770//320
f 771//321 772//322 773//323
f 774//322 775//324 776//325
f 777//326 778//327 779//328
f 780//328 781//327 782//329
f 783//330 784//328 785//331
f 786//332 787//330 788//333
f 789//334 790//332 791//335
f 792//336 793//337 794//338
f 795//339 796//339 797//340
f 798//340 799//339 800//341
f 801//341 802//342 803//343
f 804//344 805//341 806//345
f 807//346 808//347 809//348
f 810//349 811//346 812//343
f 813//350 814//349 815//345
f 816//350 817//351 818//349
f 819//352 820//353 821//351
f 822//350 823//354 824//353
f 825//353 826//355 827//356
f 828//357 829//337 830//358
f 831//356 832//357 833//359
f 834//359 835//338 836//360
f 837//361 838//362 839//363
f 840//364 841//361 842//365
f 843//366 844//364 845//367
f 846//368 847//369 848//364
f 849//370 850//366 851//367
f 852//332 853//334 854//371
f 855//333 856//335 857//332
f 858//331 859//333 860//372
f 861//329 862//331 863//373
f 864//374 865//326 866//324
f 867//325 868//323 869//322
f 870//323 871//319 872//375
f 873//376 874//320 875//377
f 876//320 877//316 878//318
f 879//316 880//315 881//317
f 882//364 883//369 884//361
f 885//359 886//356 887//355
f 888//378 889//379 890//380
f 888//378 891//381 889//379
f 892//382 893//383 894//384
f 892//382 895//385 896//386
f 892//382 896//386 893//383
f 895//385 897//387 898//388
f 899//389 898//388 900//390
f 899//389 901//391 896//386
f 898//388 897//387 900//390
f 898//388 896//386 895//385
f 902//392 903//393 904//394
f 902//392 905//395 906//396
f 907//397 908//398 909//399
f 907//397 910//400 908//398
f 911//401 912//402 913//403
f 911//401 914//404 915//405
f 912//402 916//406 913//403
f 912//402 915//405 917//407
f 918//408 919//409 920//410
f 918//408 921//411 922//412
f 921//411 923//413 924//414
f 921//411 925//415 926//416
f 927//417 928//418 929//419
f 927//417 891//381 930//420
f 931//421 932//422 933//423
f 931//421 934//424 935//425
f 905//426 936//328 937//330
f 905//395 932//422 938//326
f 932//422 904//394 939//427
f 905//426 940//326 941//328
f 934//424 942//323 943//325
f 934//424 894//384 944//323
f 945//428 946//429 947//430
f 945//428 948//431 917//407
f 945//428 917//407 946//429
f 948//431 949//339 950//432
f 951//433 949//339 952//434
f 951//433 950//432 949//339
f 917//407 915//405 946//429
f 917//407 950//432 916//406
f 948//431 950//432 917//407
f 917//407 916//406 912//402
f 953//435 951//433 952//434
f 954//401 955//436 956//437
f 954//401 957//438 926//416
f 958//439 959//440 908//398
f 958//439 960//355 959//440
f 961//441 962//442 963//443
f 961//441 908//398 910//400
f 964//444 965//370 966//445
f 964//444 967//446 968//447
f 967//446 969//448 970//449
f 967//446 971//450 972//451
f 973//452 955//436 925//415
f 973//452 974//453 975//454
f 974//453 970//449 969//448
f 974//453 976//455 977//456
f 970//449 968//447 967//446
f 970//449 977//456 978//457
f 979//458 980//459 981//460
f 979//458 893//383 982//461
f 947//430 983//462 945//428
f 947//430 959//440 984//350
f 985//463 986//464 987//465
f 985//466 988//467 989//468
f 986//464 990//469 991//470
f 986//471 992//468 993//472
f 994//473 995//474 996//475
f 994//473 930//420 997//476
f 995//474 990//469 998//477
f 995//474 997//476 999//478
f 1000//479 1001//480 1002//481
f 1000//479 1003//482 1004//483
f 1005//484 968//447 978//457
f 1005//484 1002//481 965//370
f 1001//480 1006//485 1007//486
f 1001//480 1004//483 1006//485
f 1008//487 1009//488 1010//367
f 1008//487 1011//489 966//445
f 1008//487 966//445 1009//488
f 1011//489 1012//490 966//445
f 975//454 956//437 955//436
f 975//454 969//448 909//399
f 991//470 999//478 1003//482
f 991//470 987//465 986//464
f 999//478 997//476 1004//483
f 999//478 990//469 995//474
f 953//435 957//438 913//403
f 953//435 952//434 1013//491
f 926//416 925//415 955//436
f 926//416 1013//491 923//413
f 1013//491 952//434 1014//492
f 1013//491 957//438 953//435
f 1013//491 1014//492 923//413
f 952//493 1015//339 1016//340
f 1017//494 908//398 959//440
f 1017//494 915//405 914//404
f 945//428 983//462 948//431
f 946//429 959//440 947//430
f 918//408 925//415 921//411
f 920//410 1018//495 976//455
f 1018//495 987//465 977//456
f 1018//495 919//409 985//463
f 894//384 981//460 1019//320
f 894//384 933//423 892//382
f 981//460 980//459 1020//316
f 981//460 893//383 979//458
f 909//399 914//404 956//437
f 909//399 972//451 907//397
f 911//401 915//405 912//402
f 914//404 908//398 1017//494
f 1021//496 980//459 1022//497
f 1021//498 1023//261 1024//309
f 1021//496 1022//497 1025//499
f 980//459 982//461 1026//500
f 1022//497 1026//500 1027//501
f 980//459 1021//496 1028//312
f 1029//502 889//379 1030//503
f 1029//502 1031//504 1032//505
f 1033//506 1034//507 1031//504
f 1033//506 1035//508 1036//509
f 978//457 977//456 987//465
f 978//457 968//447 970//449
f 977//456 976//455 1018//495
f 975//454 974//453 969//448
f 980//459 1026//500 1022//497
f 982//461 901//391 1026//500
f 1004//483 1037//328 1006//485
f 1004//483 1003//482 999//478
f 1037//328 1038//510 1039//511
f 1037//328 997//476 930//420
f 964//444 971//450 967//446
f 965//370 1040//512 966//445
f 967//446 972//451 969//448
f 971//450 966//445 1012//490
f 1041//513 1006//485 1037//328
f 1041//513 900//390 897//387
f 899//389 1042//514 1043//515
f 900//390 1039//511 1044//516
f 890//380 1032//505 1042//514
f 890//380 1038//510 888//378
f 1032//505 1031//504 1043//515
f 1032//505 889//379 1029//502
f 1012//490 907//397 972//451
f 910//400 962//442 961//441
f 1012//490 1011//489 962//442
f 1012//490 972//451 971//450
f 1044//516 1039//511 1038//510
f 1044//516 1042//514 900//390
f 1045//517 897//387 939//427
f 1045//517 1007//486 1006//485
f 1007//486 1040//512 1002//481
f 1007//486 904//394 903//393
f 927//417 930//420 994//473
f 930//420 888//378 1038//510
f 994//473 997//476 995//474
f 930//420 1038//510 1037//328
f 1009//488 903//393 1046//332
f 1009//488 966//445 1040//512
f 902//392 904//394 932//422
f 903//393 1040//512 1007//486
f 923//413 1014//492 1047//518
f 1013//491 926//416 957//438
f 1014//519 1048//520 1049//521
f 1014//492 1050//522 1051//523
f 1045//517 904//394 1007//486
f 931//421 933//423 894//384
f 1043//515 1042//514 1032//505
f 1043//515 901//391 899//389
f 1027//501 625//306 1022//497
f 1027//501 1031//504 1034//507
f 1033//506 1031//504 1029//502
f 1034//507 625//306 1027//501
f 1042//514 899//389 900//390
f 895//385 892//382 933//423
f 896//386 982//461 893//383
f 1026//500 1043//515 1027//501
f 894//384 893//383 981//460
f 933//423 939//427 895//385
f 1017//494 946//429 915//405
f 959//440 1052//355 1053//350
f 983//524 1054//343 1055//342
f 959//440 946//429 1017//494
f 913//403 916//406 953//435
f 911//401 956//437 914//404
f 975//454 955//436 973//452
f 955//436 954//401 926//416
f 962//442 1011//489 1008//487
f 1012//490 910//400 907//397
f 962//442 910//400 1012//490
f 975//454 909//399 956//437
f 908//398 914//404 909//399
f 956//437 911//401 913//403
f 918//408 920//410 925//415
f 925//415 920//410 976//455
f 923//413 921//411 926//416
f 925//415 976//455 973//452
f 951//433 953//435 916//406
f 957//438 954//401 913//403
f 978//457 991//470 1003//482
f 995//474 1056//477 1057//525
f 964//444 968//447 965//370
f 976//455 974//453 973//452
f 1009//488 1040//512 903//393
f 1005//484 965//370 968//447
f 966//445 971//450 964//444
f 972//451 909//399 969//448
f 919//409 1018//495 920//410
f 1005//484 978//457 1000//479
f 954//401 956//437 913//403
f 974//453 977//456 970//449
f 1003//482 1000//479 978//457
f 1002//481 1040//512 965//370
f 1002//481 1005//484 1000//479
f 1058//526 994//473 1059//527
f 1000//479 1004//483 1001//480
f 1060//528 995//474 1061//529
f 1041//513 1045//517 1006//485
f 902//392 932//422 905//395
f 1007//486 1002//481 1001//480
f 1062//364 1008//530 1063//531
f 1045//517 1041//513 897//387
f 1032//505 890//380 889//379
f 899//389 896//386 898//388
f 1064//425 932//422 931//421
f 900//390 1041//513 1039//511
f 1065//330 903//393 902//392
f 1044//516 890//380 1042//514
f 889//379 891//381 1066//532
f 1037//328 1039//511 1041//513
f 1067//533 891//381 1068//534
f 1027//501 1043//515 1031//504
f 1069//320 981//535 1070//316
f 901//391 1043//515 1026//500
f 1071//536 1033//506 1072//509
f 1073//343 983//462 1074//350
f 1075//537 952//434 1076//538
f 1077//359 1078//539 958//439
f 1079//414 1080//540 921//411
f 939//427 904//394 1045//517
f 1081//541 985//463 919//409
f 982//461 896//386 901//391
f 1082//475 1083//542 994//543
f 1022//497 625//306 1084//261
f 1085//533 1086//532 891//544
f 1087//304 1088//261 1034//507
f 1034//507 1089//261 625//306
f 1090//545 1091//304 1034//507
f 1092//546 1093//547 1034//507
f 1033//506 1094//548 1034//507
f 1033//506 1095//536 1096//549
f 1044//516 1038//510 890//380
f 1029//502 1097//550 1033//506
f 1033//506 1098//551 1099//508
f 889//379 1100//532 1101//503
f 888//378 930//420 891//381
f 903//552 1102//330 1103//332
f 1037//328 1004//483 997//476
f 897//387 895//385 939//427
f 927//417 1104//534 891//381
f 927//553 1105//554 1106//534
f 1107//367 1009//488 1108//332
f 1109//526 927//417 994//473
f 1110//363 962//442 1111//364
f 991//470 978//457 987//465
f 962//442 1008//487 1112//364
f 1018//495 985//463 987//465
f 1113//359 961//441 1114//338
f 990//469 986//464 1115//477
f 947//430 1116//352 983//462
f 986//464 985//463 1117//468
f 961//441 1118//359 958//439
f 1119//555 985//556 1120//541
f 961//441 958//439 908//398
f 1121//557 918//408 1122//412
f 948//431 1123//339 949//339
f 1124//339 952//434 949//339
f 1125//558 1126//412 921//411
f 952//434 1127//522 1014//492
f 951//433 916//406 950//432
f 1128//559 1129//560 1014//561
f 1014//561 1130//560 1131//518
f 1132//401 923//413 1133//562
f 1134//401 1135//414 923//413
f 1136//563 948//431 983//462
f 918//408 1137//557 919//409
f 1138//557 1139//541 919//409
f 1140//472 1141//564 986//471
f 999//478 991//470 990//469
f 932//422 939//427 933//423
f 979//458 982//461 980//459
f 1142//309 1143//316 980//459
f 1144//565 1145//376 894//566
f 931//421 894//384 934//424
f 1146//567 1147//568 1148//569
f 1146//567 1149//570 1147//568
f 1150//571 1151//572 1152//573
f 1150//571 949//339 1153//574
f 1154//575 1155//576 1156//577
f 1154//575 1157//578 1158//579
f 1159//580 1160//581 1161//582
f 1159//580 1149//570 1160//581
f 1162//583 1163//584 1164//585
f 1162//583 1165//586 1166//587
f 1167//588 1168//589 1169//590
f 1167//588 1166//587 1170//591
f 1166//587 1165//586 1171//586
f 1166//587 1163//584 1162//583
f 1172//592 1173//593 1174//594
f 1172//592 1175//591 1176//595
f 1173//593 1177//596 1174//594
f 1173//587 1178//595 1179//597
f 1180//598 1160//581 1181//599
f 1180//598 1182//600 1183//601
f 1182//600 1164//585 1184//602
f 1182//600 1180//598 1162//583
f 1164//585 1185//603 1186//604
f 1164//585 1163//584 1185//603
f 1186//604 1187//605 1184//602
f 1186//604 1174//594 1177//596
f 1187//605 1188//606 1189//607
f 1187//605 1177//596 1190//608
f 1183//601 1191//609 1160//581
f 1183//601 1184//602 1189//607
f 1189//607 1184//602 1187//605
f 1189//607 1191//609 1183//601
f 1192//610 1193//611 1161//582
f 1192//610 1188//606 1194//612
f 1167//588 1163//584 1166//587
f 1169//590 1195//613 1163//584
f 1196//614 1156//577 1155//576
f 1196//614 1197//615 1156//577
f 1196//614 1155//576 1174//594
f 1156//577 1157//578 1154//575
f 1198//616 1161//582 1199//617
f 1198//616 1200//618 1147//568
f 1200//618 1201//619 1202//620
f 1200//618 1203//621 1153//574
f 1202//620 1147//568 1200//618
f 1202//620 1204//622 1205//623
f 1181//599 1165//586 1180//598
f 1181//599 1206//624 1207//625
f 1149//570 1146//567 1206//624
f 1198//616 1159//580 1161//582
f 1208//626 1209//627 1197//615
f 1208//626 1195//613 1168//589
f 1195//613 1169//590 1168//589
f 1195//613 1197//615 1185//603
f 1210//628 1211//629 1212//630
f 1210//628 1213//631 1214//632
f 1213//631 1215//633 1216//634
f 1213//631 1217//635 1218//636
f 1190//608 1177//596 1219//625
f 1190//608 1188//606 1187//605
f 1220//637 1215//633 1194//612
f 1220//637 1221//609 1222//638
f 1223//639 949//339 1224//339
f 1223//639 1153//574 949//339
f 1161//582 1191//609 1192//610
f 1161//582 1160//581 1191//609
f 1153//574 1223//639 1201//619
f 1153//574 1203//621 1151//572
f 1203//621 1199//617 1225//640
f 1149//570 1159//580 1147//568
f 1225//640 1151//572 1203//621
f 1225//640 1218//636 1217//635
f 1194//612 1188//606 1220//637
f 1194//612 1218//636 1193//611
f 1225//640 1217//635 1151//572
f 1218//636 1215//633 1213//631
f 111//14 1157//578 109//13
f 1209//627 1156//577 1197//615
f 1157//578 111//14 1226//627
f 1196//614 1174//594 1185//603
f 1155//641 1227//642 1228//643
f 105//14 1229//644 1230//627
f 105//14 109//13 1229//644
f 1229//644 1168//589 1231//642
f 1229//644 109//13 1209//627
f 1167//588 1169//590 1163//584
f 1195//613 1208//626 1197//615
f 1232//627 111//13 1233//645
f 1168//589 1229//644 1208//626
f 1234//642 1157//646 1235//627
f 1185//603 1197//615 1196//614
f 1185//603 1163//584 1195//613
f 1164//585 1186//604 1184//602
f 1177//602 1236//647 1237//625
f 1174//594 1186//604 1185//603
f 1238//647 1173//587 1239//597
f 1206//624 1146//567 1240//648
f 1149//570 1181//599 1160//581
f 1182//600 1162//583 1164//585
f 1166//587 1241//647 1242//597
f 1183//601 1182//600 1184//602
f 1243//643 1167//588 1244//591
f 1192//610 1189//607 1188//606
f 1162//583 1180//598 1165//586
f 1220//637 1188//606 1190//608
f 1192//610 1194//612 1193//611
f 1189//607 1192//610 1191//609
f 1245//569 1220//649 1246//638
f 1202//620 1201//619 1247//650
f 1198//616 1147//568 1159//580
f 1201//619 1223//639 1248//651
f 1150//571 1153//574 1151//572
f 1201//619 1200//618 1153//574
f 1225//640 1193//611 1218//636
f 1199//617 1161//582 1193//611
f 1165//586 1181//599 1249//625
f 1217//652 1250//653 1251//654
f 1217//635 1252//651 1253//653
f 1225//640 1199//617 1193//611
f 1254//655 1255//569 1202//620
f 1160//581 1180//598 1183//601
f 1157//578 1209//627 109//13
f 1203//621 1198//616 1199//617
f 1256//647 1177//596 1173//593
f 1257//630 1217//635 1258//654
f 1259//569 1215//633 1220//637
f 1260//339 1261//339 1262//651
f 1263//651 1264//342 1265//656
f 1266//573 1267//651 1268//657
f 1269//573 1270//658 1210//628
f 1271//658 1272//659 1210//628
f 1273//653 1210//628 1274//654
f 1217//635 1213//631 1210//628
f 1275//653 1276//651 1210//628
f 1277//660 1213//631 1278//622
f 1215//633 1218//636 1194//612
f 1279//655 1280//622 1213//661
f 1165//602 1281//625 1282//647
f 1177//596 1187//605 1186//604
f 1283//597 1284//595 1166//587
f 1190//662 1285//625 1286//609
f 1149//570 1206//624 1181//599
f 1172//592 1155//576 1287//643
f 1209//627 1208//626 1229//644
f 1154//575 1288//579 1155//576
f 1289//591 1172//592 1290//663
f 105//14 1291//627 1292//645
f 1172//592 1293//595 1173//593
f 1294//627 1229//644 1295//579
f 1157//578 1156//577 1209//627
f 1296//643 1168//589 1167//588
f 1190//608 1297//609 1220//637
f 1298//625 1206//664 1299//609
f 1300//659 1217//635 1301//665
f 1302//666 1146//567 1303//569
f 1304//650 1201//619 1305//651
f 1306//651 1223//639 1307//339
f 1202//620 1308//569 1147//568
f 949//339 1150//571 1309//339
f 1310//339 1150//571 1311//667
f 1312//668 1150//571 1313//669
f 1314//670 1151//572 1315//671
f 1316//658 1151//672 1317//659
f 1203//621 1200//618 1198//616
f 1318//650 1319//622 1202//620
f 1206//624 1320//638 1321//609
f 1322//643 1323//579 1168//589
f 1174//594 1155//576 1172//592
f 1324//595 1325//591 1166//587
f 1217//635 1210//628 1326//651
f 1327//569 1328//655 1215//633
f 1329//650 1330//651 1210//628
f 1210//628 1331//630 1332//654
f 1151//572 1217//635 1333//659
f 1210//628 1334//651 1335//573
