# Blender 4.4.3
# www.blender.org
mtllib Mesh_16.011.mtl
o Mesh_16.011
v 0.017100 0.008820 -0.000690
v 0.000100 0.008820 -0.000690
v 0.017100 0.008833 -0.000738
v 0.000100 0.008833 -0.000738
v 0.017100 0.008786 -0.000690
v 0.000100 0.008786 -0.000690
v 0.017100 0.008820 -0.000690
v 0.000100 0.008820 -0.000690
v 0.017100 0.008820 -0.000690
v 0.017100 0.008773 -0.000738
v 0.000100 0.008773 -0.000738
v 0.017100 0.008786 -0.000690
v 0.000100 0.008786 -0.000690
v 0.017100 0.008786 -0.000690
v 0.017100 0.008773 -0.000797
v 0.000100 0.008773 -0.000796
v 0.017100 0.008833 -0.000797
v 0.000100 0.008833 -0.000796
v 0.017100 0.008773 -0.000797
v 0.000100 0.008773 -0.000796
v 0.017100 0.008773 -0.000797
v 0.017100 0.008843 -0.000737
v 0.000100 0.008843 -0.000737
v 0.017100 0.008828 -0.000680
v 0.000100 0.008828 -0.000680
v 0.017100 0.008843 -0.000863
v 0.000100 0.008843 -0.000863
v 0.017100 0.008828 -0.000920
v 0.000100 0.008828 -0.000920
v 0.017100 0.008778 -0.000920
v 0.000100 0.008778 -0.000920
v 0.017100 0.008828 -0.000920
v 0.000100 0.008828 -0.000920
v 0.017100 0.008828 -0.000920
v 0.017100 0.008763 -0.000863
v 0.000100 0.008763 -0.000863
v 0.017100 0.008778 -0.000920
v 0.000100 0.008778 -0.000920
v 0.017100 0.008778 -0.000920
v 0.017100 0.008763 -0.000737
v 0.000100 0.008763 -0.000737
v 0.017100 0.008778 -0.000680
v 0.000100 0.008778 -0.000680
v 0.000100 0.008786 -0.000910
v 0.017100 0.008786 -0.000910
v 0.000100 0.008820 -0.000910
v 0.017100 0.008820 -0.000910
v 0.000100 0.008820 -0.000910
v 0.017100 0.008820 -0.000910
v 0.000100 0.008833 -0.000862
v 0.017100 0.008820 -0.000910
v 0.017100 0.008833 -0.000862
v 0.000100 0.008833 -0.000803
v 0.017100 0.008833 -0.000804
v 0.000100 0.008833 -0.000803
v 0.017100 0.008833 -0.000804
v 0.000100 0.008773 -0.000803
v 0.017100 0.008833 -0.000804
v 0.017100 0.008773 -0.000804
v 0.000100 0.008773 -0.000803
v 0.017100 0.008773 -0.000804
v 0.000100 0.008773 -0.000862
v 0.017100 0.008773 -0.000804
v 0.017100 0.008773 -0.000862
v 0.017100 0.008828 -0.000680
v 0.000100 0.008828 -0.000680
v 0.017100 0.008778 -0.000680
v 0.000100 0.008828 -0.000680
v 0.000100 0.008778 -0.000680
v 0.017100 0.008778 -0.000680
v 0.000100 0.008786 -0.000910
v 0.000100 0.008786 -0.000910
v 0.017100 0.008786 -0.000910
v 0.017100 0.008833 -0.000797
v 0.000100 0.008833 -0.000796
v 0.017100 0.008833 -0.000797
v 0.000100 0.008833 -0.000796
v 0.000100 0.008843 -0.000737
v 0.000100 0.008833 -0.000803
v 0.000100 0.008833 -0.000796
v 0.000100 0.008833 -0.000803
v 0.000100 0.008773 -0.000796
v 0.000100 0.008773 -0.000796
v 0.000100 0.008773 -0.000803
v 0.000100 0.008763 -0.000737
v 0.000100 0.008773 -0.000738
v 0.000100 0.008773 -0.000796
v 0.000100 0.008763 -0.000737
v 0.000100 0.008786 -0.000690
v 0.000100 0.008763 -0.000737
v 0.000100 0.008778 -0.000680
v 0.000100 0.008820 -0.000690
v 0.000100 0.008778 -0.000680
v 0.000100 0.008828 -0.000680
v 0.000100 0.008786 -0.000690
v 0.000100 0.008773 -0.000738
v 0.000100 0.008763 -0.000737
v 0.000100 0.008833 -0.000738
v 0.000100 0.008843 -0.000737
v 0.000100 0.008833 -0.000796
v 0.000100 0.008820 -0.000690
v 0.000100 0.008828 -0.000680
v 0.000100 0.008843 -0.000737
v 0.000100 0.008763 -0.000737
v 0.000100 0.008773 -0.000803
v 0.000100 0.008763 -0.000863
v 0.000100 0.008778 -0.000920
v 0.000100 0.008786 -0.000910
v 0.000100 0.008828 -0.000920
v 0.000100 0.008828 -0.000920
v 0.000100 0.008786 -0.000910
v 0.000100 0.008820 -0.000910
v 0.000100 0.008843 -0.000863
v 0.000100 0.008833 -0.000803
v 0.000100 0.008843 -0.000737
v 0.000100 0.008786 -0.000690
v 0.000100 0.008778 -0.000680
v 0.000100 0.008820 -0.000690
v 0.000100 0.008773 -0.000862
v 0.000100 0.008786 -0.000910
v 0.000100 0.008763 -0.000863
v 0.000100 0.008763 -0.000863
v 0.000100 0.008786 -0.000910
v 0.000100 0.008778 -0.000920
v 0.000100 0.008843 -0.000737
v 0.000100 0.008833 -0.000738
v 0.000100 0.008820 -0.000690
v 0.000100 0.008833 -0.000862
v 0.000100 0.008843 -0.000863
v 0.000100 0.008820 -0.000910
v 0.000100 0.008833 -0.000862
v 0.000100 0.008833 -0.000803
v 0.000100 0.008843 -0.000863
v 0.000100 0.008828 -0.000920
v 0.000100 0.008820 -0.000910
v 0.000100 0.008843 -0.000863
v 0.000100 0.008773 -0.000803
v 0.000100 0.008773 -0.000862
v 0.000100 0.008763 -0.000863
v 0.000100 0.008833 -0.000803
v 0.000100 0.008773 -0.000803
v 0.000100 0.008773 -0.000796
v 0.017100 0.008833 -0.000738
v 0.017100 0.008833 -0.000797
v 0.017100 0.008843 -0.000737
v 0.017100 0.008833 -0.000797
v 0.017100 0.008773 -0.000797
v 0.017100 0.008833 -0.000804
v 0.017100 0.008773 -0.000797
v 0.017100 0.008773 -0.000804
v 0.017100 0.008833 -0.000804
v 0.017100 0.008773 -0.000797
v 0.017100 0.008763 -0.000737
v 0.017100 0.008773 -0.000804
v 0.017100 0.008773 -0.000738
v 0.017100 0.008763 -0.000737
v 0.017100 0.008773 -0.000797
v 0.017100 0.008833 -0.000797
v 0.017100 0.008833 -0.000804
v 0.017100 0.008843 -0.000737
v 0.017100 0.008786 -0.000690
v 0.017100 0.008778 -0.000680
v 0.017100 0.008763 -0.000737
v 0.017100 0.008820 -0.000690
v 0.017100 0.008828 -0.000680
v 0.017100 0.008778 -0.000680
v 0.017100 0.008820 -0.000690
v 0.017100 0.008833 -0.000738
v 0.017100 0.008843 -0.000737
v 0.017100 0.008828 -0.000680
v 0.017100 0.008820 -0.000690
v 0.017100 0.008843 -0.000737
v 0.017100 0.008778 -0.000680
v 0.017100 0.008786 -0.000690
v 0.017100 0.008820 -0.000690
v 0.017100 0.008763 -0.000737
v 0.017100 0.008763 -0.000863
v 0.017100 0.008773 -0.000804
v 0.017100 0.008778 -0.000920
v 0.017100 0.008828 -0.000920
v 0.017100 0.008786 -0.000910
v 0.017100 0.008843 -0.000863
v 0.017100 0.008843 -0.000737
v 0.017100 0.008833 -0.000804
v 0.017100 0.008786 -0.000910
v 0.017100 0.008763 -0.000863
v 0.017100 0.008778 -0.000920
v 0.017100 0.008786 -0.000910
v 0.017100 0.008828 -0.000920
v 0.017100 0.008820 -0.000910
v 0.017100 0.008773 -0.000738
v 0.017100 0.008786 -0.000690
v 0.017100 0.008763 -0.000737
v 0.017100 0.008833 -0.000862
v 0.017100 0.008820 -0.000910
v 0.017100 0.008843 -0.000863
v 0.017100 0.008833 -0.000862
v 0.017100 0.008843 -0.000863
v 0.017100 0.008833 -0.000804
v 0.017100 0.008773 -0.000804
v 0.017100 0.008763 -0.000863
v 0.017100 0.008773 -0.000862
v 0.017100 0.008820 -0.000910
v 0.017100 0.008828 -0.000920
v 0.017100 0.008843 -0.000863
v 0.017100 0.008763 -0.000863
v 0.017100 0.008786 -0.000910
v 0.017100 0.008773 -0.000862
vn -0.0000 -0.9659 -0.2588
vn -0.0001 -0.9659 -0.2588
vn -0.0000 -0.9660 -0.2587
vn -0.0000 -0.0000 -1.0000
vn -0.0000 0.9659 -0.2588
vn -0.0000 1.0000 -0.0000
vn 0.0001 -0.0000 1.0000
vn -0.0000 0.9659 0.2588
vn -0.0001 1.0000 -0.0000
vn -0.0000 -1.0000 -0.0000
vn -0.0000 -1.0000 0.0001
vn -0.0000 -0.9659 0.2588
vn -0.0000 -0.0000 1.0000
vn -0.0000 -0.9659 0.2589
vn -0.0001 -0.0000 -1.0000
vn -0.0000 0.9659 0.2589
vn -0.0000 1.0000 0.0001
vn -1.0000 -0.0000 -0.0000
vn 1.0000 -0.0000 -0.0000
vn 1.0000 -0.0001 -0.0000
s 1
usemtl Diffuse_51_51_51_100.017
f 1//1 2//1 3//2
f 2//1 4//3 3//2
f 5//4 6//4 7//4
f 6//4 8//4 9//4
f 10//5 11//5 12//5
f 11//5 13//5 14//5
f 15//6 16//6 10//5
f 16//6 11//5 10//5
f 17//7 18//7 19//7
f 18//7 20//7 21//7
f 22//8 23//8 24//8
f 23//8 25//8 24//8
f 26//9 27//6 22//8
f 27//6 23//8 22//8
f 28//5 29//5 26//9
f 29//5 27//6 26//9
f 30//4 31//4 32//4
f 31//4 33//4 34//4
f 35//2 36//1 37//1
f 36//1 38//1 39//1
f 40//10 41//11 35//2
f 41//11 36//1 35//2
f 42//12 43//12 40//10
f 43//12 41//11 40//10
f 44//13 45//13 46//13
f 46//13 45//13 47//13
f 48//14 49//14 50//14
f 50//12 51//12 52//12
f 50//12 52//12 53//10
f 53//10 52//12 54//10
f 55//15 56//15 57//15
f 57//15 58//15 59//15
f 60//6 61//6 62//6
f 62//6 63//6 64//6
f 65//13 66//13 67//13
f 68//13 69//13 70//13
f 62//6 64//6 71//16
f 72//8 64//17 73//8
f 3//2 4//3 74//10
f 4//1 75//10 76//10
f 77//18 78//18 79//18
f 80//18 81//18 82//18
f 83//18 84//18 85//18
f 86//18 87//18 88//18
f 89//18 90//18 91//18
f 92//18 93//18 94//18
f 95//18 96//18 97//18
f 98//18 99//18 100//18
f 101//18 102//18 103//18
f 104//18 105//18 106//18
f 107//18 108//18 109//18
f 110//18 111//18 112//18
f 113//18 114//18 115//18
f 116//18 117//18 118//18
f 119//18 120//18 121//18
f 122//18 123//18 124//18
f 125//18 126//18 127//18
f 128//18 129//18 130//18
f 131//18 132//18 133//18
f 134//18 135//18 136//18
f 137//18 138//18 139//18
f 140//18 141//18 142//18
f 143//19 144//19 145//19
f 146//19 147//19 148//19
f 149//19 150//19 151//19
f 152//19 153//19 154//19
f 155//19 156//19 157//19
f 158//19 159//19 160//19
f 161//19 162//19 163//19
f 164//19 165//19 166//19
f 167//19 168//19 169//19
f 170//19 171//19 172//19
f 173//19 174//19 175//19
f 176//19 177//19 178//19
f 179//19 180//19 181//19
f 182//19 183//19 184//19
f 185//19 186//19 187//19
f 188//19 189//19 190//19
f 191//19 192//19 193//19
f 194//19 195//19 196//19
f 197//19 198//19 199//19
f 200//20 201//20 202//20
f 203//19 204//19 205//19
f 206//19 207//19 208//19
