# Blender 4.4.3
# www.blender.org
mtllib Mesh_18.008.mtl
o Mesh_18.008
v 0.017230 0.008776 -0.000903
v 0.017230 0.008830 -0.000903
v 0.017230 0.008827 -0.000905
v 0.017230 0.008824 -0.000907
v 0.017230 0.008821 -0.000909
v 0.017230 0.008817 -0.000910
v 0.017230 0.008810 -0.000912
v 0.017230 0.008814 -0.000912
v 0.017230 0.008807 -0.000913
v 0.017230 0.008803 -0.000913
v 0.017230 0.008799 -0.000913
v 0.017230 0.008796 -0.000912
v 0.017230 0.008792 -0.000912
v 0.017230 0.008789 -0.000910
v 0.017230 0.008785 -0.000909
v 0.017230 0.008782 -0.000907
v 0.017230 0.008779 -0.000905
v 0.017230 0.008773 -0.000900
v 0.017230 0.008833 -0.000900
v 0.017230 0.008770 -0.000897
v 0.017230 0.008836 -0.000897
v 0.017230 0.008766 -0.000893
v 0.017230 0.008840 -0.000893
v 0.017230 0.008763 -0.000890
v 0.017230 0.008843 -0.000890
v 0.017230 0.008760 -0.000886
v 0.017230 0.008846 -0.000886
v 0.017230 0.008757 -0.000883
v 0.017230 0.008849 -0.000883
v 0.017230 0.008754 -0.000879
v 0.017230 0.008852 -0.000879
v 0.017230 0.008854 -0.000875
v 0.017230 0.008752 -0.000875
v 0.017230 0.008749 -0.000871
v 0.017230 0.008744 -0.000863
v 0.017230 0.008859 -0.000867
v 0.017230 0.008747 -0.000867
v 0.017230 0.008857 -0.000871
v 0.017230 0.008872 -0.000842
v 0.017230 0.008870 -0.000847
v 0.017230 0.008872 -0.000840
v 0.017230 0.008868 -0.000851
v 0.017230 0.008866 -0.000855
v 0.017230 0.008734 -0.000840
v 0.017230 0.008738 -0.000851
v 0.017230 0.008740 -0.000855
v 0.017230 0.008736 -0.000847
v 0.017230 0.008864 -0.000859
v 0.017230 0.008742 -0.000859
v 0.017230 0.008862 -0.000863
v 0.017230 0.008734 -0.000842
v 0.017460 0.008734 -0.000840
v 0.017460 0.008734 -0.000842
v 0.017460 0.008736 -0.000847
v 0.017460 0.008738 -0.000851
v 0.017460 0.008740 -0.000855
v 0.017460 0.008866 -0.000855
v 0.017460 0.008742 -0.000859
v 0.017460 0.008864 -0.000859
v 0.017460 0.008744 -0.000863
v 0.017460 0.008862 -0.000863
v 0.017460 0.008747 -0.000867
v 0.017460 0.008749 -0.000871
v 0.017460 0.008859 -0.000867
v 0.017460 0.008857 -0.000871
v 0.017460 0.008854 -0.000875
v 0.017460 0.008752 -0.000875
v 0.017460 0.008754 -0.000879
v 0.017460 0.008852 -0.000879
v 0.017460 0.008757 -0.000883
v 0.017460 0.008849 -0.000883
v 0.017460 0.008760 -0.000886
v 0.017460 0.008846 -0.000886
v 0.017460 0.008840 -0.000893
v 0.017460 0.008843 -0.000890
v 0.017460 0.008766 -0.000893
v 0.017460 0.008836 -0.000897
v 0.017460 0.008770 -0.000897
v 0.017460 0.008773 -0.000900
v 0.017460 0.008830 -0.000903
v 0.017460 0.008833 -0.000900
v 0.017460 0.008776 -0.000903
v 0.017460 0.008827 -0.000905
v 0.017460 0.008824 -0.000907
v 0.017460 0.008779 -0.000905
v 0.017460 0.008782 -0.000907
v 0.017460 0.008785 -0.000909
v 0.017460 0.008792 -0.000912
v 0.017460 0.008789 -0.000910
v 0.017460 0.008796 -0.000912
v 0.017460 0.008799 -0.000913
v 0.017460 0.008803 -0.000913
v 0.017460 0.008807 -0.000913
v 0.017460 0.008810 -0.000912
v 0.017460 0.008814 -0.000912
v 0.017460 0.008817 -0.000910
v 0.017460 0.008821 -0.000909
v 0.017460 0.008763 -0.000890
v 0.017460 0.008872 -0.000840
v 0.017460 0.008868 -0.000851
v 0.017460 0.008872 -0.000842
v 0.017460 0.008870 -0.000847
v 0.017460 0.008734 -0.000842
v 0.017460 0.008734 -0.000840
v 0.017402 0.008734 -0.000842
v 0.017460 0.008734 -0.000840
v 0.017230 0.008734 -0.000840
v 0.017230 0.008734 -0.000842
v 0.017345 0.008734 -0.000842
v 0.017460 0.008734 -0.000840
v 0.017288 0.008734 -0.000842
v 0.017460 0.008734 -0.000840
v 0.017460 0.008734 -0.000840
v 0.017230 0.008734 -0.000842
v 0.017325 0.008805 -0.000840
v 0.017325 0.008803 -0.000913
v 0.017325 0.008803 -0.000840
v 0.017325 0.008807 -0.000913
v 0.017325 0.008805 -0.000913
v 0.017324 0.008809 -0.000912
v 0.017325 0.008807 -0.000840
v 0.017324 0.008809 -0.000840
v 0.017324 0.008811 -0.000912
v 0.017324 0.008811 -0.000840
v 0.017323 0.008813 -0.000912
v 0.017323 0.008813 -0.000840
v 0.017322 0.008815 -0.000911
v 0.017323 0.008815 -0.000840
v 0.017322 0.008817 -0.000840
v 0.017321 0.008817 -0.000910
v 0.017320 0.008819 -0.000910
v 0.017321 0.008819 -0.000840
v 0.017319 0.008821 -0.000909
v 0.017320 0.008820 -0.000840
v 0.017318 0.008822 -0.000840
v 0.017318 0.008822 -0.000908
v 0.017317 0.008824 -0.000907
v 0.017315 0.008825 -0.000906
v 0.017317 0.008823 -0.000840
v 0.017311 0.008829 -0.000904
v 0.017311 0.008829 -0.000840
v 0.017309 0.008830 -0.000903
v 0.017309 0.008830 -0.000840
v 0.017312 0.008827 -0.000840
v 0.017312 0.008828 -0.000905
v 0.017314 0.008826 -0.000840
v 0.017314 0.008826 -0.000906
v 0.017316 0.008825 -0.000840
v 0.017325 0.008801 -0.000913
v 0.017325 0.008801 -0.000840
v 0.017325 0.008799 -0.000913
v 0.017325 0.008798 -0.000840
v 0.017324 0.008797 -0.000912
v 0.017324 0.008796 -0.000840
v 0.017324 0.008795 -0.000912
v 0.017323 0.008793 -0.000912
v 0.017323 0.008793 -0.000840
v 0.017323 0.008791 -0.000840
v 0.017322 0.008791 -0.000911
v 0.017321 0.008789 -0.000910
v 0.017322 0.008789 -0.000840
v 0.017320 0.008787 -0.000910
v 0.017320 0.008787 -0.000840
v 0.017319 0.008785 -0.000840
v 0.017319 0.008785 -0.000909
v 0.017317 0.008783 -0.000840
v 0.017315 0.008781 -0.000906
v 0.017316 0.008781 -0.000840
v 0.017317 0.008782 -0.000907
v 0.017318 0.008784 -0.000908
v 0.017314 0.008780 -0.000906
v 0.017312 0.008779 -0.000905
v 0.017311 0.008777 -0.000904
v 0.017312 0.008778 -0.000840
v 0.017314 0.008780 -0.000840
v 0.017309 0.008776 -0.000903
v 0.017310 0.008777 -0.000840
v 0.017307 0.008776 -0.000902
v 0.017308 0.008776 -0.000840
v 0.017306 0.008775 -0.000902
v 0.017305 0.008775 -0.000840
v 0.017304 0.008774 -0.000901
v 0.017303 0.008774 -0.000840
v 0.017302 0.008774 -0.000901
v 0.017301 0.008774 -0.000840
v 0.017300 0.008774 -0.000900
v 0.017299 0.008773 -0.000900
v 0.017297 0.008773 -0.000900
v 0.017298 0.008773 -0.000840
v 0.017296 0.008773 -0.000840
v 0.017295 0.008773 -0.000900
v 0.017293 0.008773 -0.000900
v 0.017293 0.008773 -0.000840
v 0.017291 0.008773 -0.000840
v 0.017291 0.008773 -0.000900
v 0.017289 0.008774 -0.000840
v 0.017289 0.008774 -0.000900
v 0.017286 0.008774 -0.000840
v 0.017288 0.008774 -0.000901
v 0.017284 0.008775 -0.000840
v 0.017286 0.008774 -0.000901
v 0.017284 0.008775 -0.000902
v 0.017282 0.008776 -0.000840
v 0.017283 0.008776 -0.000902
v 0.017281 0.008776 -0.000903
v 0.017280 0.008777 -0.000840
v 0.017279 0.008777 -0.000904
v 0.017278 0.008779 -0.000840
v 0.017278 0.008778 -0.000905
v 0.017276 0.008780 -0.000906
v 0.017276 0.008780 -0.000840
v 0.017274 0.008782 -0.000840
v 0.017275 0.008781 -0.000906
v 0.017273 0.008782 -0.000907
v 0.017272 0.008784 -0.000840
v 0.017272 0.008784 -0.000908
v 0.017271 0.008785 -0.000909
v 0.017271 0.008785 -0.000840
v 0.017269 0.008787 -0.000840
v 0.017268 0.008790 -0.000840
v 0.017270 0.008787 -0.000910
v 0.017269 0.008789 -0.000910
v 0.017267 0.008792 -0.000840
v 0.017268 0.008791 -0.000911
v 0.017267 0.008793 -0.000912
v 0.017266 0.008794 -0.000840
v 0.017266 0.008795 -0.000912
v 0.017265 0.008799 -0.000840
v 0.017266 0.008796 -0.000840
v 0.017266 0.008797 -0.000912
v 0.017265 0.008799 -0.000913
v 0.017266 0.008809 -0.000912
v 0.017266 0.008811 -0.000912
v 0.017266 0.008811 -0.000840
v 0.017265 0.008801 -0.000840
v 0.017265 0.008801 -0.000913
v 0.017269 0.008817 -0.000910
v 0.017270 0.008819 -0.000910
v 0.017269 0.008818 -0.000840
v 0.017273 0.008824 -0.000907
v 0.017273 0.008824 -0.000840
v 0.017272 0.008822 -0.000840
v 0.017279 0.008829 -0.000904
v 0.017277 0.008827 -0.000840
v 0.017278 0.008827 -0.000905
v 0.017281 0.008829 -0.000840
v 0.017283 0.008830 -0.000902
v 0.017283 0.008831 -0.000840
v 0.017288 0.008832 -0.000901
v 0.017288 0.008832 -0.000840
v 0.017285 0.008831 -0.000840
v 0.017291 0.008833 -0.000900
v 0.017290 0.008833 -0.000840
v 0.017289 0.008832 -0.000900
v 0.017293 0.008833 -0.000900
v 0.017295 0.008833 -0.000840
v 0.017292 0.008833 -0.000840
v 0.017295 0.008833 -0.000900
v 0.017297 0.008833 -0.000900
v 0.017299 0.008833 -0.000900
v 0.017297 0.008833 -0.000840
v 0.017300 0.008832 -0.000900
v 0.017300 0.008833 -0.000840
v 0.017302 0.008832 -0.000901
v 0.017302 0.008832 -0.000840
v 0.017304 0.008832 -0.000901
v 0.017304 0.008831 -0.000840
v 0.017307 0.008830 -0.000902
v 0.017307 0.008831 -0.000840
v 0.017306 0.008831 -0.000902
v 0.017286 0.008832 -0.000901
v 0.017284 0.008831 -0.000902
v 0.017281 0.008830 -0.000903
v 0.017279 0.008828 -0.000840
v 0.017276 0.008826 -0.000906
v 0.017275 0.008825 -0.000840
v 0.017275 0.008825 -0.000906
v 0.017272 0.008822 -0.000908
v 0.017270 0.008820 -0.000840
v 0.017271 0.008821 -0.000909
v 0.017268 0.008816 -0.000840
v 0.017268 0.008815 -0.000911
v 0.017267 0.008813 -0.000840
v 0.017267 0.008813 -0.000912
v 0.017266 0.008809 -0.000840
v 0.017265 0.008807 -0.000913
v 0.017265 0.008806 -0.000840
v 0.017265 0.008805 -0.000913
v 0.017265 0.008804 -0.000840
v 0.017265 0.008803 -0.000913
v 0.017288 0.008872 -0.000842
v 0.017230 0.008872 -0.000842
v 0.017460 0.008872 -0.000840
v 0.017230 0.008872 -0.000842
v 0.017230 0.008872 -0.000840
v 0.017460 0.008872 -0.000840
v 0.017402 0.008872 -0.000842
v 0.017345 0.008872 -0.000842
v 0.017460 0.008872 -0.000840
v 0.017460 0.008872 -0.000842
v 0.017460 0.008872 -0.000840
v 0.017460 0.008872 -0.000840
v 0.017311 0.008829 -0.000840
v 0.017312 0.008827 -0.000840
v 0.017460 0.008872 -0.000840
v 0.017311 0.008829 -0.000840
v 0.017460 0.008872 -0.000840
v 0.017309 0.008830 -0.000840
v 0.017312 0.008827 -0.000840
v 0.017314 0.008826 -0.000840
v 0.017460 0.008872 -0.000840
v 0.017314 0.008826 -0.000840
v 0.017316 0.008825 -0.000840
v 0.017460 0.008872 -0.000840
v 0.017316 0.008825 -0.000840
v 0.017317 0.008823 -0.000840
v 0.017460 0.008872 -0.000840
v 0.017317 0.008823 -0.000840
v 0.017318 0.008822 -0.000840
v 0.017460 0.008872 -0.000840
v 0.017318 0.008822 -0.000840
v 0.017320 0.008820 -0.000840
v 0.017460 0.008872 -0.000840
v 0.017320 0.008820 -0.000840
v 0.017321 0.008819 -0.000840
v 0.017460 0.008872 -0.000840
v 0.017321 0.008819 -0.000840
v 0.017322 0.008817 -0.000840
v 0.017460 0.008872 -0.000840
v 0.017322 0.008817 -0.000840
v 0.017323 0.008815 -0.000840
v 0.017460 0.008872 -0.000840
v 0.017323 0.008815 -0.000840
v 0.017323 0.008813 -0.000840
v 0.017460 0.008872 -0.000840
v 0.017323 0.008813 -0.000840
v 0.017324 0.008811 -0.000840
v 0.017460 0.008872 -0.000840
v 0.017324 0.008811 -0.000840
v 0.017324 0.008809 -0.000840
v 0.017460 0.008872 -0.000840
v 0.017324 0.008809 -0.000840
v 0.017325 0.008807 -0.000840
v 0.017460 0.008872 -0.000840
v 0.017325 0.008807 -0.000840
v 0.017325 0.008805 -0.000840
v 0.017460 0.008872 -0.000840
v 0.017325 0.008805 -0.000840
v 0.017325 0.008803 -0.000840
v 0.017460 0.008872 -0.000840
v 0.017325 0.008803 -0.000840
v 0.017460 0.008734 -0.000840
v 0.017460 0.008872 -0.000840
v 0.017325 0.008801 -0.000840
v 0.017460 0.008734 -0.000840
v 0.017325 0.008803 -0.000840
v 0.017325 0.008798 -0.000840
v 0.017460 0.008734 -0.000840
v 0.017325 0.008801 -0.000840
v 0.017324 0.008796 -0.000840
v 0.017460 0.008734 -0.000840
v 0.017325 0.008798 -0.000840
v 0.017460 0.008734 -0.000840
v 0.017324 0.008796 -0.000840
v 0.017323 0.008793 -0.000840
v 0.017460 0.008734 -0.000840
v 0.017323 0.008793 -0.000840
v 0.017323 0.008791 -0.000840
v 0.017460 0.008734 -0.000840
v 0.017323 0.008791 -0.000840
v 0.017322 0.008789 -0.000840
v 0.017460 0.008734 -0.000840
v 0.017322 0.008789 -0.000840
v 0.017320 0.008787 -0.000840
v 0.017460 0.008734 -0.000840
v 0.017320 0.008787 -0.000840
v 0.017319 0.008785 -0.000840
v 0.017460 0.008734 -0.000840
v 0.017319 0.008785 -0.000840
v 0.017317 0.008783 -0.000840
v 0.017460 0.008734 -0.000840
v 0.017317 0.008783 -0.000840
v 0.017316 0.008781 -0.000840
v 0.017312 0.008778 -0.000840
v 0.017310 0.008777 -0.000840
v 0.017460 0.008734 -0.000840
v 0.017312 0.008778 -0.000840
v 0.017460 0.008734 -0.000840
v 0.017314 0.008780 -0.000840
v 0.017460 0.008734 -0.000840
v 0.017316 0.008781 -0.000840
v 0.017314 0.008780 -0.000840
v 0.017308 0.008776 -0.000840
v 0.017460 0.008734 -0.000840
v 0.017310 0.008777 -0.000840
v 0.017305 0.008775 -0.000840
v 0.017460 0.008734 -0.000840
v 0.017308 0.008776 -0.000840
v 0.017303 0.008774 -0.000840
v 0.017460 0.008734 -0.000840
v 0.017305 0.008775 -0.000840
v 0.017230 0.008734 -0.000840
v 0.017460 0.008734 -0.000840
v 0.017303 0.008774 -0.000840
v 0.017230 0.008734 -0.000840
v 0.017303 0.008774 -0.000840
v 0.017301 0.008774 -0.000840
v 0.017230 0.008734 -0.000840
v 0.017301 0.008774 -0.000840
v 0.017298 0.008773 -0.000840
v 0.017230 0.008734 -0.000840
v 0.017298 0.008773 -0.000840
v 0.017296 0.008773 -0.000840
v 0.017230 0.008734 -0.000840
v 0.017296 0.008773 -0.000840
v 0.017293 0.008773 -0.000840
v 0.017289 0.008774 -0.000840
v 0.017286 0.008774 -0.000840
v 0.017230 0.008734 -0.000840
v 0.017289 0.008774 -0.000840
v 0.017230 0.008734 -0.000840
v 0.017291 0.008773 -0.000840
v 0.017286 0.008774 -0.000840
v 0.017284 0.008775 -0.000840
v 0.017230 0.008734 -0.000840
v 0.017284 0.008775 -0.000840
v 0.017282 0.008776 -0.000840
v 0.017230 0.008734 -0.000840
v 0.017282 0.008776 -0.000840
v 0.017280 0.008777 -0.000840
v 0.017230 0.008734 -0.000840
v 0.017280 0.008777 -0.000840
v 0.017278 0.008779 -0.000840
v 0.017230 0.008734 -0.000840
v 0.017278 0.008779 -0.000840
v 0.017276 0.008780 -0.000840
v 0.017230 0.008734 -0.000840
v 0.017276 0.008780 -0.000840
v 0.017274 0.008782 -0.000840
v 0.017230 0.008734 -0.000840
v 0.017274 0.008782 -0.000840
v 0.017272 0.008784 -0.000840
v 0.017230 0.008734 -0.000840
v 0.017272 0.008784 -0.000840
v 0.017271 0.008785 -0.000840
v 0.017230 0.008734 -0.000840
v 0.017271 0.008785 -0.000840
v 0.017269 0.008787 -0.000840
v 0.017230 0.008734 -0.000840
v 0.017269 0.008787 -0.000840
v 0.017268 0.008790 -0.000840
v 0.017230 0.008734 -0.000840
v 0.017268 0.008790 -0.000840
v 0.017267 0.008792 -0.000840
v 0.017230 0.008734 -0.000840
v 0.017266 0.008794 -0.000840
v 0.017230 0.008734 -0.000840
v 0.017267 0.008792 -0.000840
v 0.017266 0.008796 -0.000840
v 0.017230 0.008734 -0.000840
v 0.017266 0.008794 -0.000840
v 0.017265 0.008799 -0.000840
v 0.017230 0.008734 -0.000840
v 0.017266 0.008796 -0.000840
v 0.017230 0.008734 -0.000840
v 0.017293 0.008773 -0.000840
v 0.017291 0.008773 -0.000840
v 0.017265 0.008804 -0.000840
v 0.017230 0.008734 -0.000840
v 0.017265 0.008801 -0.000840
v 0.017230 0.008872 -0.000840
v 0.017230 0.008734 -0.000840
v 0.017265 0.008804 -0.000840
v 0.017230 0.008872 -0.000840
v 0.017265 0.008804 -0.000840
v 0.017265 0.008806 -0.000840
v 0.017230 0.008872 -0.000840
v 0.017265 0.008806 -0.000840
v 0.017266 0.008809 -0.000840
v 0.017230 0.008872 -0.000840
v 0.017266 0.008809 -0.000840
v 0.017266 0.008811 -0.000840
v 0.017268 0.008816 -0.000840
v 0.017269 0.008818 -0.000840
v 0.017230 0.008872 -0.000840
v 0.017268 0.008816 -0.000840
v 0.017230 0.008872 -0.000840
v 0.017267 0.008813 -0.000840
v 0.017269 0.008818 -0.000840
v 0.017270 0.008820 -0.000840
v 0.017230 0.008872 -0.000840
v 0.017270 0.008820 -0.000840
v 0.017272 0.008822 -0.000840
v 0.017230 0.008872 -0.000840
v 0.017272 0.008822 -0.000840
v 0.017273 0.008824 -0.000840
v 0.017230 0.008872 -0.000840
v 0.017273 0.008824 -0.000840
v 0.017275 0.008825 -0.000840
v 0.017230 0.008872 -0.000840
v 0.017275 0.008825 -0.000840
v 0.017277 0.008827 -0.000840
v 0.017230 0.008872 -0.000840
v 0.017277 0.008827 -0.000840
v 0.017279 0.008828 -0.000840
v 0.017230 0.008872 -0.000840
v 0.017279 0.008828 -0.000840
v 0.017281 0.008829 -0.000840
v 0.017230 0.008872 -0.000840
v 0.017281 0.008829 -0.000840
v 0.017283 0.008831 -0.000840
v 0.017230 0.008872 -0.000840
v 0.017283 0.008831 -0.000840
v 0.017285 0.008831 -0.000840
v 0.017230 0.008872 -0.000840
v 0.017285 0.008831 -0.000840
v 0.017288 0.008832 -0.000840
v 0.017230 0.008872 -0.000840
v 0.017290 0.008833 -0.000840
v 0.017230 0.008872 -0.000840
v 0.017288 0.008832 -0.000840
v 0.017292 0.008833 -0.000840
v 0.017230 0.008872 -0.000840
v 0.017290 0.008833 -0.000840
v 0.017295 0.008833 -0.000840
v 0.017230 0.008872 -0.000840
v 0.017292 0.008833 -0.000840
v 0.017297 0.008833 -0.000840
v 0.017230 0.008872 -0.000840
v 0.017295 0.008833 -0.000840
v 0.017300 0.008833 -0.000840
v 0.017230 0.008872 -0.000840
v 0.017297 0.008833 -0.000840
v 0.017302 0.008832 -0.000840
v 0.017230 0.008872 -0.000840
v 0.017300 0.008833 -0.000840
v 0.017460 0.008872 -0.000840
v 0.017230 0.008872 -0.000840
v 0.017302 0.008832 -0.000840
v 0.017460 0.008872 -0.000840
v 0.017302 0.008832 -0.000840
v 0.017304 0.008831 -0.000840
v 0.017230 0.008872 -0.000840
v 0.017266 0.008811 -0.000840
v 0.017267 0.008813 -0.000840
v 0.017309 0.008830 -0.000840
v 0.017460 0.008872 -0.000840
v 0.017307 0.008831 -0.000840
v 0.017307 0.008831 -0.000840
v 0.017460 0.008872 -0.000840
v 0.017304 0.008831 -0.000840
v 0.017265 0.008799 -0.000840
v 0.017265 0.008801 -0.000840
v 0.017230 0.008734 -0.000840
v 0.017384 0.008854 -0.000876
v 0.017376 0.008852 -0.000879
v 0.017355 0.008853 -0.000876
v 0.017402 0.008853 -0.000877
v 0.017423 0.008846 -0.000886
v 0.017423 0.008849 -0.000882
v 0.017432 0.008845 -0.000887
v 0.017413 0.008843 -0.000890
v 0.017384 0.008845 -0.000887
v 0.017382 0.008839 -0.000894
v 0.017376 0.008834 -0.000899
v 0.017356 0.008839 -0.000894
v 0.017423 0.008838 -0.000894
v 0.017422 0.008834 -0.000899
v 0.017438 0.008841 -0.000892
v 0.017387 0.008850 -0.000881
v 0.017361 0.008849 -0.000883
v 0.017358 0.008842 -0.000890
v 0.017460 0.008843 -0.000890
v 0.017297 0.008868 -0.000852
v 0.017293 0.008866 -0.000857
v 0.017230 0.008868 -0.000851
v 0.017308 0.008867 -0.000853
v 0.017257 0.008849 -0.000882
v 0.017269 0.008853 -0.000876
v 0.017292 0.008851 -0.000880
v 0.017230 0.008849 -0.000883
v 0.017230 0.008852 -0.000879
v 0.017271 0.008846 -0.000886
v 0.017291 0.008842 -0.000891
v 0.017230 0.008843 -0.000890
v 0.017306 0.008846 -0.000885
v 0.017300 0.008852 -0.000879
v 0.017278 0.008857 -0.000871
v 0.017306 0.008855 -0.000874
v 0.017230 0.008852 -0.000879
v 0.017230 0.008854 -0.000875
v 0.017387 0.008859 -0.000869
v 0.017381 0.008862 -0.000863
v 0.017416 0.008860 -0.000866
v 0.017373 0.008857 -0.000871
v 0.017358 0.008860 -0.000866
v 0.017398 0.008864 -0.000859
v 0.017395 0.008867 -0.000854
v 0.017460 0.008866 -0.000855
v 0.017383 0.008865 -0.000858
v 0.017406 0.008857 -0.000871
v 0.017460 0.008862 -0.000863
v 0.017460 0.008859 -0.000867
v 0.017264 0.008863 -0.000861
v 0.017271 0.008860 -0.000866
v 0.017230 0.008862 -0.000863
v 0.017304 0.008862 -0.000863
v 0.017230 0.008857 -0.000871
v 0.017340 0.008857 -0.000871
v 0.017355 0.008862 -0.000863
v 0.017317 0.008858 -0.000870
v 0.017338 0.008853 -0.000877
v 0.017348 0.008852 -0.000879
v 0.017326 0.008850 -0.000881
v 0.017329 0.008846 -0.000886
v 0.017373 0.008865 -0.000857
v 0.017460 0.008864 -0.000859
v 0.017319 0.008865 -0.000857
v 0.017343 0.008866 -0.000855
v 0.017289 0.008870 -0.000847
v 0.017354 0.008867 -0.000853
v 0.017344 0.008870 -0.000847
v 0.017400 0.008870 -0.000846
v 0.017460 0.008836 -0.000897
v 0.017384 0.008830 -0.000903
v 0.017460 0.008854 -0.000875
v 0.017460 0.008852 -0.000879
v 0.017460 0.008849 -0.000883
v 0.017334 0.008841 -0.000891
v 0.017230 0.008870 -0.000847
v 0.017230 0.008868 -0.000851
v 0.017460 0.008870 -0.000847
v 0.017291 0.008836 -0.000897
v 0.017314 0.008836 -0.000897
v 0.017289 0.008832 -0.000900
v 0.017288 0.008832 -0.000901
v 0.017230 0.008849 -0.000883
v 0.017230 0.008846 -0.000886
v 0.017297 0.008833 -0.000900
v 0.017460 0.008836 -0.000897
v 0.017460 0.008840 -0.000893
v 0.017309 0.008830 -0.000903
v 0.017309 0.008830 -0.000903
v 0.017460 0.008868 -0.000851
v 0.017460 0.008866 -0.000855
v 0.017460 0.008843 -0.000890
v 0.017460 0.008840 -0.000893
v 0.017307 0.008830 -0.000902
v 0.017306 0.008831 -0.000902
v 0.017460 0.008836 -0.000897
v 0.017460 0.008833 -0.000900
v 0.017230 0.008864 -0.000859
v 0.017230 0.008866 -0.000855
v 0.017230 0.008854 -0.000875
v 0.017230 0.008857 -0.000871
v 0.017460 0.008857 -0.000871
v 0.017293 0.008833 -0.000900
v 0.017295 0.008833 -0.000900
v 0.017460 0.008846 -0.000886
v 0.017460 0.008849 -0.000883
v 0.017283 0.008830 -0.000902
v 0.017230 0.008833 -0.000900
v 0.017284 0.008831 -0.000902
v 0.017283 0.008830 -0.000902
v 0.017281 0.008830 -0.000903
v 0.017230 0.008833 -0.000900
v 0.017284 0.008831 -0.000902
v 0.017230 0.008833 -0.000900
v 0.017286 0.008832 -0.000901
v 0.017286 0.008832 -0.000901
v 0.017230 0.008833 -0.000900
v 0.017230 0.008836 -0.000897
v 0.017286 0.008832 -0.000901
v 0.017230 0.008836 -0.000897
v 0.017288 0.008832 -0.000901
v 0.017286 0.008832 -0.000901
v 0.017230 0.008836 -0.000897
v 0.017230 0.008840 -0.000893
v 0.017289 0.008832 -0.000900
v 0.017291 0.008833 -0.000900
v 0.017230 0.008843 -0.000890
v 0.017230 0.008846 -0.000886
v 0.017230 0.008852 -0.000879
v 0.017460 0.008843 -0.000890
v 0.017460 0.008846 -0.000886
v 0.017230 0.008857 -0.000871
v 0.017297 0.008833 -0.000900
v 0.017299 0.008833 -0.000900
v 0.017299 0.008833 -0.000900
v 0.017300 0.008832 -0.000900
v 0.017460 0.008833 -0.000900
v 0.017460 0.008830 -0.000903
v 0.017302 0.008832 -0.000901
v 0.017300 0.008832 -0.000900
v 0.017230 0.008840 -0.000893
v 0.017230 0.008843 -0.000890
v 0.017309 0.008830 -0.000903
v 0.017307 0.008830 -0.000902
v 0.017306 0.008831 -0.000902
v 0.017304 0.008832 -0.000901
v 0.017460 0.008830 -0.000903
v 0.017302 0.008832 -0.000901
v 0.017304 0.008832 -0.000901
v 0.017460 0.008836 -0.000897
v 0.017295 0.008833 -0.000900
v 0.017297 0.008833 -0.000900
v 0.017230 0.008859 -0.000867
v 0.017230 0.008862 -0.000863
v 0.017460 0.008854 -0.000875
v 0.017230 0.008857 -0.000871
v 0.017230 0.008859 -0.000867
v 0.017460 0.008852 -0.000879
v 0.017460 0.008854 -0.000875
v 0.017230 0.008862 -0.000863
v 0.017230 0.008864 -0.000859
v 0.017460 0.008857 -0.000871
v 0.017460 0.008859 -0.000867
v 0.017460 0.008870 -0.000847
v 0.017460 0.008868 -0.000851
v 0.017460 0.008872 -0.000842
v 0.017460 0.008870 -0.000847
v 0.017460 0.008868 -0.000851
v 0.017460 0.008864 -0.000859
v 0.017460 0.008866 -0.000855
v 0.017230 0.008870 -0.000847
v 0.017230 0.008872 -0.000842
v 0.017460 0.008864 -0.000859
v 0.017460 0.008862 -0.000863
v 0.017230 0.008870 -0.000847
v 0.017230 0.008868 -0.000851
v 0.017230 0.008866 -0.000855
v 0.017230 0.008868 -0.000851
v 0.017230 0.008866 -0.000855
v 0.017460 0.008854 -0.000875
v 0.017460 0.008857 -0.000871
v 0.017460 0.008849 -0.000883
v 0.017291 0.008833 -0.000900
v 0.017293 0.008833 -0.000900
v 0.017230 0.008840 -0.000893
v 0.017230 0.008833 -0.000900
v 0.017281 0.008830 -0.000903
v 0.017230 0.008830 -0.000903
v 0.017230 0.008846 -0.000886
v 0.017230 0.008830 -0.000903
v 0.017281 0.008830 -0.000903
v 0.017279 0.008829 -0.000904
v 0.017278 0.008827 -0.000905
v 0.017230 0.008830 -0.000903
v 0.017279 0.008829 -0.000904
v 0.017278 0.008827 -0.000905
v 0.017230 0.008827 -0.000905
v 0.017230 0.008830 -0.000903
v 0.017278 0.008827 -0.000905
v 0.017276 0.008826 -0.000906
v 0.017230 0.008827 -0.000905
v 0.017230 0.008827 -0.000905
v 0.017276 0.008826 -0.000906
v 0.017275 0.008825 -0.000906
v 0.017273 0.008824 -0.000907
v 0.017230 0.008827 -0.000905
v 0.017275 0.008825 -0.000906
v 0.017273 0.008824 -0.000907
v 0.017230 0.008824 -0.000907
v 0.017230 0.008827 -0.000905
v 0.017272 0.008822 -0.000908
v 0.017271 0.008821 -0.000909
v 0.017230 0.008824 -0.000907
v 0.017271 0.008821 -0.000909
v 0.017270 0.008819 -0.000910
v 0.017230 0.008821 -0.000909
v 0.017269 0.008817 -0.000910
v 0.017268 0.008815 -0.000911
v 0.017230 0.008817 -0.000910
v 0.017268 0.008815 -0.000911
v 0.017267 0.008813 -0.000912
v 0.017230 0.008814 -0.000912
v 0.017230 0.008814 -0.000912
v 0.017266 0.008811 -0.000912
v 0.017230 0.008810 -0.000912
v 0.017230 0.008810 -0.000912
v 0.017266 0.008811 -0.000912
v 0.017266 0.008809 -0.000912
v 0.017230 0.008807 -0.000913
v 0.017230 0.008810 -0.000912
v 0.017265 0.008807 -0.000913
v 0.017230 0.008803 -0.000913
v 0.017230 0.008807 -0.000913
v 0.017265 0.008805 -0.000913
v 0.017265 0.008801 -0.000913
v 0.017230 0.008803 -0.000913
v 0.017265 0.008803 -0.000913
v 0.017267 0.008793 -0.000912
v 0.017268 0.008791 -0.000911
v 0.017230 0.008792 -0.000912
v 0.017281 0.008776 -0.000903
v 0.017230 0.008776 -0.000903
v 0.017279 0.008777 -0.000904
v 0.017279 0.008777 -0.000904
v 0.017230 0.008776 -0.000903
v 0.017278 0.008778 -0.000905
v 0.017278 0.008778 -0.000905
v 0.017230 0.008776 -0.000903
v 0.017230 0.008779 -0.000905
v 0.017276 0.008780 -0.000906
v 0.017278 0.008778 -0.000905
v 0.017230 0.008779 -0.000905
v 0.017275 0.008781 -0.000906
v 0.017276 0.008780 -0.000906
v 0.017230 0.008779 -0.000905
v 0.017273 0.008782 -0.000907
v 0.017275 0.008781 -0.000906
v 0.017230 0.008779 -0.000905
v 0.017230 0.008782 -0.000907
v 0.017273 0.008782 -0.000907
v 0.017230 0.008779 -0.000905
v 0.017230 0.008782 -0.000907
v 0.017272 0.008784 -0.000908
v 0.017273 0.008782 -0.000907
v 0.017230 0.008782 -0.000907
v 0.017271 0.008785 -0.000909
v 0.017272 0.008784 -0.000908
v 0.017230 0.008782 -0.000907
v 0.017230 0.008785 -0.000909
v 0.017271 0.008785 -0.000909
v 0.017271 0.008785 -0.000909
v 0.017230 0.008785 -0.000909
v 0.017270 0.008787 -0.000910
v 0.017230 0.008789 -0.000910
v 0.017268 0.008791 -0.000911
v 0.017269 0.008789 -0.000910
v 0.017270 0.008787 -0.000910
v 0.017230 0.008789 -0.000910
v 0.017269 0.008789 -0.000910
v 0.017230 0.008789 -0.000910
v 0.017230 0.008792 -0.000912
v 0.017268 0.008791 -0.000911
v 0.017266 0.008795 -0.000912
v 0.017267 0.008793 -0.000912
v 0.017230 0.008792 -0.000912
v 0.017230 0.008796 -0.000912
v 0.017266 0.008795 -0.000912
v 0.017230 0.008792 -0.000912
v 0.017265 0.008799 -0.000913
v 0.017230 0.008796 -0.000912
v 0.017230 0.008799 -0.000913
v 0.017265 0.008799 -0.000913
v 0.017266 0.008797 -0.000912
v 0.017230 0.008796 -0.000912
v 0.017265 0.008801 -0.000913
v 0.017265 0.008799 -0.000913
v 0.017230 0.008799 -0.000913
v 0.017230 0.008803 -0.000913
v 0.017265 0.008801 -0.000913
v 0.017230 0.008799 -0.000913
v 0.017265 0.008805 -0.000913
v 0.017265 0.008803 -0.000913
v 0.017230 0.008803 -0.000913
v 0.017265 0.008807 -0.000913
v 0.017265 0.008805 -0.000913
v 0.017230 0.008807 -0.000913
v 0.017266 0.008809 -0.000912
v 0.017265 0.008807 -0.000913
v 0.017230 0.008810 -0.000912
v 0.017266 0.008811 -0.000912
v 0.017230 0.008814 -0.000912
v 0.017267 0.008813 -0.000912
v 0.017230 0.008814 -0.000912
v 0.017230 0.008817 -0.000910
v 0.017268 0.008815 -0.000911
v 0.017230 0.008817 -0.000910
v 0.017270 0.008819 -0.000910
v 0.017269 0.008817 -0.000910
v 0.017230 0.008817 -0.000910
v 0.017230 0.008821 -0.000909
v 0.017270 0.008819 -0.000910
v 0.017230 0.008821 -0.000909
v 0.017230 0.008824 -0.000907
v 0.017271 0.008821 -0.000909
v 0.017230 0.008824 -0.000907
v 0.017273 0.008824 -0.000907
v 0.017272 0.008822 -0.000908
v 0.017230 0.008796 -0.000912
v 0.017266 0.008797 -0.000912
v 0.017266 0.008795 -0.000912
v 0.017230 0.008789 -0.000910
v 0.017270 0.008787 -0.000910
v 0.017230 0.008785 -0.000909
v 0.017353 0.008816 -0.000911
v 0.017351 0.008818 -0.000910
v 0.017372 0.008817 -0.000911
v 0.017341 0.008815 -0.000911
v 0.017428 0.008817 -0.000910
v 0.017428 0.008820 -0.000909
v 0.017445 0.008818 -0.000910
v 0.017422 0.008816 -0.000911
v 0.017417 0.008819 -0.000910
v 0.017414 0.008814 -0.000911
v 0.017409 0.008816 -0.000911
v 0.017402 0.008819 -0.000910
v 0.017395 0.008816 -0.000911
v 0.017410 0.008822 -0.000908
v 0.017439 0.008808 -0.000913
v 0.017435 0.008805 -0.000913
v 0.017429 0.008809 -0.000913
v 0.017453 0.008810 -0.000912
v 0.017460 0.008807 -0.000913
v 0.017425 0.008791 -0.000911
v 0.017429 0.008788 -0.000910
v 0.017407 0.008790 -0.000911
v 0.017432 0.008792 -0.000911
v 0.017398 0.008785 -0.000909
v 0.017393 0.008782 -0.000907
v 0.017380 0.008784 -0.000908
v 0.017410 0.008786 -0.000909
v 0.017412 0.008783 -0.000908
v 0.017386 0.008780 -0.000906
v 0.017414 0.008780 -0.000906
v 0.017343 0.008791 -0.000911
v 0.017343 0.008794 -0.000912
v 0.017350 0.008792 -0.000912
v 0.017336 0.008787 -0.000910
v 0.017322 0.008791 -0.000911
v 0.017334 0.008785 -0.000909
v 0.017320 0.008787 -0.000910
v 0.017352 0.008789 -0.000910
v 0.017355 0.008785 -0.000909
v 0.017329 0.008813 -0.000912
v 0.017324 0.008811 -0.000912
v 0.017323 0.008813 -0.000912
v 0.017348 0.008812 -0.000912
v 0.017442 0.008815 -0.000911
v 0.017438 0.008812 -0.000912
v 0.017434 0.008816 -0.000911
v 0.017455 0.008816 -0.000911
v 0.017460 0.008814 -0.000912
v 0.017460 0.008810 -0.000912
v 0.017460 0.008807 -0.000913
v 0.017460 0.008814 -0.000912
v 0.017426 0.008813 -0.000912
v 0.017460 0.008814 -0.000912
v 0.017460 0.008810 -0.000912
v 0.017460 0.008817 -0.000910
v 0.017460 0.008814 -0.000912
v 0.017460 0.008817 -0.000910
v 0.017432 0.008780 -0.000906
v 0.017433 0.008782 -0.000907
v 0.017441 0.008782 -0.000907
v 0.017419 0.008778 -0.000904
v 0.017384 0.008776 -0.000903
v 0.017385 0.008778 -0.000904
v 0.017378 0.008778 -0.000904
v 0.017342 0.008779 -0.000905
v 0.017364 0.008781 -0.000906
v 0.017373 0.008785 -0.000909
v 0.017374 0.008788 -0.000910
v 0.017390 0.008788 -0.000910
v 0.017365 0.008784 -0.000908
v 0.017449 0.008787 -0.000909
v 0.017444 0.008784 -0.000908
v 0.017460 0.008785 -0.000909
v 0.017443 0.008790 -0.000911
v 0.017439 0.008793 -0.000912
v 0.017460 0.008792 -0.000912
v 0.017407 0.008798 -0.000913
v 0.017408 0.008801 -0.000913
v 0.017429 0.008798 -0.000913
v 0.017400 0.008796 -0.000912
v 0.017392 0.008798 -0.000913
v 0.017398 0.008793 -0.000912
v 0.017387 0.008796 -0.000912
v 0.017412 0.008796 -0.000912
v 0.017414 0.008793 -0.000912
v 0.017375 0.008791 -0.000911
v 0.017381 0.008793 -0.000912
v 0.017388 0.008789 -0.000911
v 0.017368 0.008793 -0.000912
v 0.017371 0.008796 -0.000912
v 0.017377 0.008799 -0.000913
v 0.017433 0.008822 -0.000908
v 0.017432 0.008825 -0.000907
v 0.017440 0.008822 -0.000908
v 0.017416 0.008822 -0.000908
v 0.017444 0.008780 -0.000905
v 0.017460 0.008782 -0.000907
v 0.017336 0.008797 -0.000913
v 0.017341 0.008800 -0.000913
v 0.017354 0.008798 -0.000913
v 0.017324 0.008797 -0.000912
v 0.017325 0.008799 -0.000913
v 0.017344 0.008803 -0.000913
v 0.017360 0.008802 -0.000913
v 0.017325 0.008799 -0.000913
v 0.017325 0.008801 -0.000913
v 0.017338 0.008809 -0.000913
v 0.017341 0.008806 -0.000913
v 0.017325 0.008807 -0.000913
v 0.017354 0.008808 -0.000913
v 0.017325 0.008803 -0.000913
v 0.017356 0.008805 -0.000913
v 0.017383 0.008803 -0.000913
v 0.017389 0.008806 -0.000913
v 0.017399 0.008803 -0.000913
v 0.017369 0.008803 -0.000913
v 0.017377 0.008807 -0.000913
v 0.017389 0.008800 -0.000913
v 0.017391 0.008809 -0.000913
v 0.017412 0.008807 -0.000913
v 0.017444 0.008797 -0.000913
v 0.017441 0.008801 -0.000913
v 0.017460 0.008799 -0.000913
v 0.017432 0.008795 -0.000912
v 0.017427 0.008795 -0.000912
v 0.017347 0.008783 -0.000907
v 0.017330 0.008781 -0.000906
v 0.017309 0.008776 -0.000903
v 0.017311 0.008777 -0.000904
v 0.017425 0.008785 -0.000908
v 0.017355 0.008795 -0.000912
v 0.017460 0.008821 -0.000909
v 0.017460 0.008824 -0.000907
v 0.017437 0.008828 -0.000905
v 0.017419 0.008828 -0.000904
v 0.017460 0.008830 -0.000903
v 0.017460 0.008827 -0.000905
v 0.017460 0.008830 -0.000903
v 0.017411 0.008825 -0.000906
v 0.017387 0.008826 -0.000905
v 0.017460 0.008827 -0.000905
v 0.017353 0.008822 -0.000908
v 0.017319 0.008821 -0.000909
v 0.017364 0.008824 -0.000907
v 0.017368 0.008821 -0.000909
v 0.017345 0.008825 -0.000907
v 0.017353 0.008827 -0.000905
v 0.017318 0.008822 -0.000908
v 0.017317 0.008824 -0.000907
v 0.017371 0.008810 -0.000912
v 0.017368 0.008814 -0.000912
v 0.017383 0.008814 -0.000911
v 0.017414 0.008803 -0.000913
v 0.017390 0.008813 -0.000912
v 0.017389 0.008819 -0.000910
v 0.017395 0.008823 -0.000908
v 0.017380 0.008816 -0.000911
v 0.017417 0.008811 -0.000912
v 0.017460 0.008803 -0.000913
v 0.017318 0.008784 -0.000908
v 0.017314 0.008780 -0.000906
v 0.017315 0.008781 -0.000906
v 0.017312 0.008779 -0.000905
v 0.017314 0.008780 -0.000906
v 0.017460 0.008785 -0.000909
v 0.017460 0.008782 -0.000907
v 0.017460 0.008779 -0.000905
v 0.017460 0.008776 -0.000903
v 0.017325 0.008803 -0.000913
v 0.017325 0.008805 -0.000913
v 0.017324 0.008811 -0.000912
v 0.017324 0.008809 -0.000912
v 0.017325 0.008807 -0.000913
v 0.017325 0.008805 -0.000913
v 0.017460 0.008796 -0.000912
v 0.017460 0.008799 -0.000913
v 0.017460 0.008814 -0.000912
v 0.017460 0.008807 -0.000913
v 0.017320 0.008819 -0.000910
v 0.017321 0.008817 -0.000910
v 0.017322 0.008815 -0.000911
v 0.017460 0.008821 -0.000909
v 0.017460 0.008824 -0.000907
v 0.017315 0.008825 -0.000906
v 0.017317 0.008824 -0.000907
v 0.017460 0.008779 -0.000905
v 0.017460 0.008782 -0.000907
v 0.017312 0.008779 -0.000905
v 0.017311 0.008777 -0.000904
v 0.017460 0.008789 -0.000910
v 0.017460 0.008785 -0.000909
v 0.017320 0.008787 -0.000910
v 0.017321 0.008789 -0.000910
v 0.017324 0.008795 -0.000912
v 0.017325 0.008807 -0.000913
v 0.017324 0.008809 -0.000912
v 0.017460 0.008830 -0.000903
v 0.017321 0.008817 -0.000910
v 0.017320 0.008819 -0.000910
v 0.017311 0.008829 -0.000904
v 0.017309 0.008830 -0.000903
v 0.017309 0.008830 -0.000903
v 0.017312 0.008828 -0.000905
v 0.017311 0.008829 -0.000904
v 0.017314 0.008826 -0.000906
v 0.017312 0.008828 -0.000905
v 0.017314 0.008826 -0.000906
v 0.017315 0.008825 -0.000906
v 0.017314 0.008826 -0.000906
v 0.017319 0.008821 -0.000909
v 0.017319 0.008821 -0.000909
v 0.017318 0.008822 -0.000908
v 0.017320 0.008819 -0.000910
v 0.017319 0.008821 -0.000909
v 0.017460 0.008807 -0.000913
v 0.017460 0.008803 -0.000913
v 0.017322 0.008815 -0.000911
v 0.017323 0.008813 -0.000912
v 0.017322 0.008815 -0.000911
v 0.017460 0.008799 -0.000913
v 0.017460 0.008803 -0.000913
v 0.017324 0.008811 -0.000912
v 0.017460 0.008792 -0.000912
v 0.017460 0.008796 -0.000912
v 0.017460 0.008796 -0.000912
v 0.017460 0.008789 -0.000910
v 0.017460 0.008792 -0.000912
v 0.017325 0.008803 -0.000913
v 0.017460 0.008782 -0.000907
v 0.017325 0.008799 -0.000913
v 0.017460 0.008789 -0.000910
v 0.017324 0.008797 -0.000912
v 0.017324 0.008795 -0.000912
v 0.017323 0.008793 -0.000912
v 0.017322 0.008791 -0.000911
v 0.017460 0.008776 -0.000903
v 0.017309 0.008776 -0.000903
v 0.017321 0.008789 -0.000910
v 0.017322 0.008791 -0.000911
v 0.017312 0.008779 -0.000905
v 0.017315 0.008781 -0.000906
v 0.017317 0.008782 -0.000907
v 0.017317 0.008782 -0.000907
v 0.017318 0.008784 -0.000908
v 0.017319 0.008785 -0.000909
v 0.017318 0.008784 -0.000908
v 0.017319 0.008785 -0.000909
v 0.017320 0.008787 -0.000910
v 0.017460 0.008776 -0.000903
v 0.017323 0.008793 -0.000912
v 0.017323 0.008793 -0.000912
v 0.017324 0.008795 -0.000912
v 0.017325 0.008801 -0.000913
v 0.017325 0.008803 -0.000913
v 0.017460 0.008827 -0.000905
v 0.017460 0.008824 -0.000907
v 0.017460 0.008821 -0.000909
v 0.017460 0.008817 -0.000910
v 0.017414 0.008757 -0.000883
v 0.017411 0.008761 -0.000887
v 0.017460 0.008760 -0.000886
v 0.017404 0.008756 -0.000882
v 0.017344 0.008774 -0.000901
v 0.017339 0.008770 -0.000897
v 0.017306 0.008775 -0.000902
v 0.017381 0.008770 -0.000897
v 0.017297 0.008738 -0.000852
v 0.017293 0.008740 -0.000857
v 0.017308 0.008739 -0.000853
v 0.017289 0.008736 -0.000847
v 0.017230 0.008738 -0.000851
v 0.017382 0.008757 -0.000883
v 0.017376 0.008754 -0.000879
v 0.017358 0.008757 -0.000882
v 0.017387 0.008747 -0.000869
v 0.017381 0.008744 -0.000863
v 0.017358 0.008746 -0.000866
v 0.017406 0.008749 -0.000871
v 0.017416 0.008746 -0.000866
v 0.017398 0.008742 -0.000859
v 0.017395 0.008739 -0.000854
v 0.017383 0.008741 -0.000858
v 0.017460 0.008742 -0.000859
v 0.017460 0.008749 -0.000871
v 0.017264 0.008743 -0.000861
v 0.017271 0.008746 -0.000866
v 0.017304 0.008744 -0.000863
v 0.017230 0.008742 -0.000859
v 0.017230 0.008744 -0.000863
v 0.017278 0.008749 -0.000871
v 0.017230 0.008744 -0.000863
v 0.017230 0.008747 -0.000867
v 0.017385 0.008751 -0.000874
v 0.017412 0.008753 -0.000877
v 0.017373 0.008749 -0.000871
v 0.017355 0.008753 -0.000876
v 0.017340 0.008749 -0.000871
v 0.017355 0.008744 -0.000863
v 0.017317 0.008748 -0.000870
v 0.017306 0.008751 -0.000874
v 0.017300 0.008754 -0.000879
v 0.017338 0.008753 -0.000877
v 0.017282 0.008753 -0.000877
v 0.017348 0.008754 -0.000879
v 0.017326 0.008756 -0.000881
v 0.017329 0.008760 -0.000886
v 0.017294 0.008759 -0.000885
v 0.017373 0.008741 -0.000857
v 0.017319 0.008741 -0.000857
v 0.017343 0.008740 -0.000855
v 0.017365 0.008761 -0.000887
v 0.017348 0.008761 -0.000888
v 0.017390 0.008765 -0.000892
v 0.017398 0.008768 -0.000895
v 0.017423 0.008765 -0.000892
v 0.017362 0.008766 -0.000893
v 0.017460 0.008766 -0.000893
v 0.017460 0.008763 -0.000890
v 0.017426 0.008755 -0.000879
v 0.017460 0.008752 -0.000875
v 0.017354 0.008739 -0.000853
v 0.017344 0.008736 -0.000847
v 0.017283 0.008771 -0.000898
v 0.017288 0.008774 -0.000901
v 0.017289 0.008774 -0.000900
v 0.017272 0.008765 -0.000892
v 0.017230 0.008770 -0.000897
v 0.017279 0.008761 -0.000887
v 0.017230 0.008763 -0.000890
v 0.017307 0.008769 -0.000895
v 0.017305 0.008763 -0.000890
v 0.017230 0.008752 -0.000875
v 0.017269 0.008757 -0.000882
v 0.017230 0.008754 -0.000879
v 0.017230 0.008757 -0.000883
v 0.017388 0.008771 -0.000898
v 0.017460 0.008776 -0.000903
v 0.017331 0.008765 -0.000891
v 0.017230 0.008736 -0.000847
v 0.017230 0.008738 -0.000851
v 0.017230 0.008740 -0.000855
v 0.017400 0.008736 -0.000846
v 0.017460 0.008736 -0.000847
v 0.017460 0.008738 -0.000851
v 0.017230 0.008736 -0.000847
v 0.017230 0.008734 -0.000842
v 0.017230 0.008738 -0.000851
v 0.017230 0.008736 -0.000847
v 0.017230 0.008749 -0.000871
v 0.017230 0.008752 -0.000875
v 0.017230 0.008749 -0.000871
v 0.017230 0.008747 -0.000867
v 0.017460 0.008757 -0.000883
v 0.017460 0.008749 -0.000871
v 0.017460 0.008747 -0.000867
v 0.017460 0.008740 -0.000855
v 0.017460 0.008742 -0.000859
v 0.017230 0.008760 -0.000886
v 0.017230 0.008757 -0.000883
v 0.017460 0.008770 -0.000897
v 0.017460 0.008773 -0.000900
v 0.017460 0.008752 -0.000875
v 0.017297 0.008773 -0.000900
v 0.017299 0.008773 -0.000900
v 0.017295 0.008773 -0.000900
v 0.017297 0.008773 -0.000900
v 0.017460 0.008763 -0.000890
v 0.017460 0.008760 -0.000886
v 0.017230 0.008749 -0.000871
v 0.017300 0.008774 -0.000900
v 0.017299 0.008773 -0.000900
v 0.017230 0.008760 -0.000886
v 0.017230 0.008776 -0.000903
v 0.017281 0.008776 -0.000903
v 0.017230 0.008773 -0.000900
v 0.017230 0.008773 -0.000900
v 0.017281 0.008776 -0.000903
v 0.017283 0.008776 -0.000902
v 0.017284 0.008775 -0.000902
v 0.017230 0.008773 -0.000900
v 0.017283 0.008776 -0.000902
v 0.017284 0.008775 -0.000902
v 0.017286 0.008774 -0.000901
v 0.017286 0.008774 -0.000901
v 0.017288 0.008774 -0.000901
v 0.017293 0.008773 -0.000900
v 0.017291 0.008773 -0.000900
v 0.017293 0.008773 -0.000900
v 0.017295 0.008773 -0.000900
v 0.017230 0.008770 -0.000897
v 0.017230 0.008766 -0.000893
v 0.017230 0.008763 -0.000890
v 0.017230 0.008766 -0.000893
v 0.017460 0.008752 -0.000875
v 0.017460 0.008749 -0.000871
v 0.017460 0.008747 -0.000867
v 0.017460 0.008744 -0.000863
v 0.017230 0.008752 -0.000875
v 0.017230 0.008754 -0.000879
v 0.017230 0.008740 -0.000855
v 0.017230 0.008738 -0.000851
v 0.017230 0.008742 -0.000859
v 0.017230 0.008740 -0.000855
v 0.017460 0.008736 -0.000847
v 0.017460 0.008734 -0.000842
v 0.017230 0.008744 -0.000863
v 0.017460 0.008736 -0.000847
v 0.017460 0.008738 -0.000851
v 0.017460 0.008740 -0.000855
v 0.017230 0.008754 -0.000879
v 0.017460 0.008752 -0.000875
v 0.017460 0.008754 -0.000879
v 0.017302 0.008774 -0.000901
v 0.017300 0.008774 -0.000900
v 0.017460 0.008757 -0.000883
v 0.017460 0.008760 -0.000886
v 0.017460 0.008770 -0.000897
v 0.017460 0.008773 -0.000900
v 0.017460 0.008773 -0.000900
v 0.017460 0.008776 -0.000903
v 0.017460 0.008760 -0.000886
v 0.017309 0.008776 -0.000903
v 0.017309 0.008776 -0.000903
v 0.017307 0.008776 -0.000902
v 0.017307 0.008776 -0.000902
v 0.017306 0.008775 -0.000902
v 0.017306 0.008775 -0.000902
v 0.017304 0.008774 -0.000901
v 0.017304 0.008774 -0.000901
v 0.017302 0.008774 -0.000901
v 0.017460 0.008770 -0.000897
v 0.017460 0.008766 -0.000893
v 0.017460 0.008757 -0.000883
v 0.017460 0.008754 -0.000879
v 0.017460 0.008740 -0.000855
v 0.017460 0.008738 -0.000851
v 0.017460 0.008744 -0.000863
v 0.017460 0.008742 -0.000859
v 0.017295 0.008773 -0.000900
v 0.017230 0.008760 -0.000886
v 0.017230 0.008763 -0.000890
v 0.017230 0.008770 -0.000897
v 0.017230 0.008773 -0.000900
v 0.017289 0.008774 -0.000900
v 0.017291 0.008773 -0.000900
v 0.017302 0.008774 -0.000901
v 0.017230 0.008773 -0.000900
v 0.017284 0.008775 -0.000902
vn -1.0000 -0.0000 -0.0000
vn -1.0000 0.0001 -0.0000
vn -1.0000 -0.0001 -0.0000
vn -1.0000 -0.0000 0.0001
vn -1.0000 0.0001 0.0001
vn 1.0000 0.0001 -0.0000
vn 1.0000 -0.0000 -0.0000
vn 1.0000 -0.0001 -0.0000
vn 1.0000 -0.0000 -0.0001
vn 1.0000 0.0002 -0.0000
vn -0.0000 -1.0000 -0.0000
vn -0.0000 -1.0000 -0.0001
vn -0.0000 -1.0000 -0.0002
vn -0.9977 -0.0680 0.0002
vn -1.0000 -0.0020 -0.0000
vn -0.9897 -0.1430 -0.0000
vn -0.9974 -0.0726 -0.0000
vn -0.9771 -0.2127 -0.0000
vn -0.9908 -0.1355 -0.0000
vn -0.9793 -0.2024 -0.0000
vn -0.9597 -0.2810 -0.0000
vn -0.9633 -0.2685 0.0001
vn -0.9376 -0.3477 -0.0000
vn -0.9428 -0.3333 -0.0000
vn -0.9111 -0.4121 -0.0000
vn -0.9180 -0.3965 0.0002
vn -0.8890 -0.4579 0.0001
vn -0.8806 -0.4738 -0.0000
vn -0.8464 -0.5325 -0.0000
vn -0.8559 -0.5172 0.0002
vn -0.8090 -0.5878 -0.0000
vn -0.8188 -0.5741 -0.0000
vn -0.7779 -0.6284 -0.0002
vn -0.7685 -0.6399 -0.0000
vn -0.7250 -0.6887 -0.0000
vn -0.6787 -0.7344 -0.0000
vn -0.7334 -0.6798 -0.0000
vn -0.5227 -0.8525 -0.0000
vn -0.5240 -0.8517 -0.0000
vn -0.4650 -0.8853 -0.0000
vn -0.5806 -0.8142 -0.0001
vn -0.5775 -0.8164 -0.0000
vn -0.6345 -0.7729 -0.0002
vn -0.6295 -0.7770 -0.0000
vn -0.6856 -0.7280 -0.0003
vn -0.9976 0.0690 -0.0000
vn -0.9967 0.0811 -0.0000
vn -0.9902 0.1394 -0.0000
vn -0.9868 0.1617 -0.0000
vn -0.9779 0.2091 -0.0000
vn -0.9705 0.2412 0.0001
vn -0.9607 0.2775 -0.0000
vn -0.9389 0.3443 -0.0000
vn -0.9477 0.3191 0.0002
vn -0.9187 0.3949 0.0002
vn -0.9126 0.4089 -0.0000
vn -0.8822 0.4709 -0.0000
vn -0.8837 0.4680 0.0001
vn -0.8481 0.5299 -0.0000
vn -0.8428 0.5382 0.0001
vn -0.7964 0.6048 -0.0000
vn -0.8106 0.5856 -0.0000
vn -0.7447 0.6674 -0.0000
vn -0.6796 0.7336 -0.0000
vn -0.6882 0.7255 -0.0003
vn -0.7262 0.6874 -0.0000
vn -0.7699 0.6381 -0.0000
vn -0.6302 0.7765 -0.0000
vn -0.5778 0.8161 -0.0000
vn -0.5228 0.8524 -0.0000
vn -0.5618 0.8273 -0.0001
vn -0.6270 0.7790 -0.0001
vn -0.4650 0.8853 -0.0000
vn -0.4927 0.8702 -0.0001
vn -0.4124 0.9110 -0.0000
vn -0.4208 0.9072 0.0001
vn -0.3576 0.9339 -0.0000
vn -0.3457 0.9383 -0.0001
vn -0.3008 0.9537 -0.0000
vn -0.2684 0.9633 -0.0001
vn -0.2423 0.9702 -0.0000
vn -0.1895 0.9819 -0.0001
vn -0.1825 0.9832 -0.0000
vn -0.1220 0.9925 -0.0000
vn -0.0605 0.9982 -0.0000
vn -0.1093 0.9940 -0.0002
vn -0.0283 0.9996 -0.0003
vn 0.0008 1.0000 -0.0000
vn 0.0624 0.9981 -0.0000
vn 0.0530 0.9986 -0.0000
vn 0.1337 0.9910 0.0001
vn 0.1235 0.9923 -0.0000
vn 0.2137 0.9769 -0.0002
vn 0.1836 0.9830 -0.0000
vn 0.2922 0.9564 -0.0000
vn 0.2433 0.9700 -0.0000
vn 0.3687 0.9295 -0.0002
vn 0.3014 0.9535 -0.0000
vn 0.3579 0.9337 -0.0000
vn 0.4430 0.8965 -0.0003
vn 0.4125 0.9109 -0.0000
vn 0.4649 0.8854 -0.0000
vn 0.5142 0.8577 -0.0003
vn 0.5226 0.8526 -0.0000
vn 0.5821 0.8131 -0.0002
vn 0.5775 0.8164 -0.0000
vn 0.6295 0.7770 -0.0000
vn 0.6461 0.7632 -0.0000
vn 0.7058 0.7084 -0.0001
vn 0.6787 0.7344 -0.0000
vn 0.7250 0.6887 -0.0000
vn 0.7610 0.6488 0.0001
vn 0.7685 0.6399 -0.0000
vn 0.8090 0.5878 -0.0000
vn 0.8112 0.5848 -0.0000
vn 0.8559 0.5171 0.0001
vn 0.8949 0.4462 0.0003
vn 0.8464 0.5325 -0.0000
vn 0.8806 0.4738 -0.0000
vn 0.9282 0.3720 0.0002
vn 0.9111 0.4121 -0.0000
vn 0.9376 0.3477 -0.0000
vn 0.9553 0.2955 0.0003
vn 0.9597 0.2810 -0.0000
vn 0.9905 0.1374 0.0001
vn 0.9762 0.2171 0.0004
vn 0.9771 0.2127 -0.0000
vn 0.9897 0.1430 -0.0000
vn 0.9779 -0.2091 -0.0000
vn 0.9607 -0.2775 -0.0000
vn 0.9642 -0.2651 -0.0000
vn 0.9984 0.0565 -0.0002
vn 0.9974 0.0726 -0.0000
vn 0.8822 -0.4708 -0.0000
vn 0.8481 -0.5299 -0.0000
vn 0.8719 -0.4897 -0.0002
vn 0.7262 -0.6875 -0.0000
vn 0.7280 -0.6856 -0.0000
vn 0.7813 -0.6242 -0.0000
vn 0.5228 -0.8524 -0.0000
vn 0.6073 -0.7945 -0.0001
vn 0.5778 -0.8162 -0.0000
vn 0.4713 -0.8820 -0.0017
vn 0.4125 -0.9110 -0.0000
vn 0.3981 -0.9173 0.0002
vn 0.2433 -0.9700 -0.0000
vn 0.2447 -0.9696 -0.0000
vn 0.3226 -0.9465 -0.0000
vn 0.1235 -0.9923 -0.0000
vn 0.1652 -0.9863 -0.0002
vn 0.1839 -0.9829 -0.0000
vn 0.0624 -0.9981 -0.0000
vn 0.0035 -1.0000 -0.0003
vn 0.0846 -0.9964 -0.0003
vn 0.0010 -1.0000 -0.0000
vn -0.0606 -0.9982 -0.0000
vn -0.1218 -0.9925 -0.0000
vn -0.0776 -0.9970 -0.0000
vn -0.1825 -0.9832 -0.0000
vn -0.1582 -0.9874 -0.0002
vn -0.2424 -0.9702 -0.0000
vn -0.2378 -0.9713 0.0001
vn -0.3008 -0.9537 -0.0000
vn -0.3159 -0.9488 -0.0004
vn -0.4124 -0.9110 -0.0000
vn -0.3916 -0.9201 0.0002
vn -0.3576 -0.9339 0.0005
vn 0.3014 -0.9535 -0.0000
vn 0.3579 -0.9338 -0.0000
vn 0.4649 -0.8854 -0.0000
vn 0.5413 -0.8408 0.0003
vn 0.6302 -0.7765 -0.0000
vn 0.6700 -0.7424 0.0001
vn 0.6796 -0.7336 -0.0000
vn 0.7699 -0.6382 -0.0000
vn 0.8293 -0.5588 0.0001
vn 0.8106 -0.5856 -0.0000
vn 0.9087 -0.4174 0.0001
vn 0.9126 -0.4088 -0.0000
vn 0.9396 -0.3424 0.0001
vn 0.9389 -0.3442 -0.0000
vn 0.9825 -0.1861 -0.0000
vn 0.9902 -0.1394 -0.0000
vn 0.9944 -0.1057 -0.0002
vn 0.9976 -0.0690 -0.0000
vn 0.9997 -0.0247 -0.0000
vn 1.0000 0.0020 0.0001
vn -0.0000 1.0000 -0.0000
vn -0.0000 1.0000 -0.0002
vn -0.0000 1.0000 -0.0001
vn -0.0000 -0.0000 1.0000
vn 0.0001 -0.0000 1.0000
vn -0.0001 -0.0000 1.0000
vn -0.0000 0.8155 -0.5788
vn -0.0001 0.8016 -0.5979
vn -0.0000 0.8131 -0.5821
vn -0.0000 0.8087 -0.5882
vn -0.0000 0.7651 -0.6439
vn -0.0000 0.7879 -0.6158
vn -0.0000 0.7593 -0.6508
vn -0.0000 0.7473 -0.6645
vn -0.0000 0.7621 -0.6475
vn -0.0000 0.7216 -0.6923
vn -0.0000 0.6914 -0.7224
vn -0.0000 0.7247 -0.6890
vn -0.0000 0.7197 -0.6943
vn -0.0000 0.6901 -0.7237
vn -0.0000 0.7355 -0.6775
vn -0.0000 0.7913 -0.6115
vn -0.0000 0.7830 -0.6221
vn -0.0000 0.7435 -0.6688
vn -0.0000 0.7465 -0.6654
vn -0.0000 0.9023 -0.4311
vn -0.0000 0.8890 -0.4579
vn -0.0000 0.9062 -0.4229
vn -0.0000 0.9001 -0.4357
vn -0.0000 0.7884 -0.6151
vn -0.0003 0.8130 -0.5822
vn -0.0000 0.7951 -0.6065
vn -0.0000 0.7839 -0.6208
vn -0.0000 0.8017 -0.5977
vn 0.0001 0.7671 -0.6416
vn -0.0000 0.7391 -0.6736
vn -0.0004 0.7695 -0.6386
vn -0.0000 0.8016 -0.5978
vn -0.0000 0.8352 -0.5500
vn -0.0000 0.8242 -0.5662
vn -0.0000 0.8188 -0.5741
vn -0.0000 0.8457 -0.5337
vn -0.0001 0.8660 -0.5001
vn -0.0000 0.8559 -0.5172
vn -0.0000 0.8351 -0.5501
vn -0.0000 0.8797 -0.4756
vn -0.0000 0.8978 -0.4405
vn -0.0000 0.8934 -0.4492
vn -0.0000 0.8835 -0.4684
vn -0.0000 0.8658 -0.5004
vn -0.0000 0.8508 -0.5255
vn -0.0000 0.8753 -0.4835
vn -0.0001 0.8560 -0.5170
vn -0.0001 0.8657 -0.5006
vn -0.0000 0.8658 -0.5005
vn -0.0000 0.8422 -0.5392
vn -0.0000 0.8094 -0.5873
vn -0.0000 0.7899 -0.6133
vn -0.0000 0.7654 -0.6435
vn -0.0000 0.8860 -0.4636
vn -0.0000 0.8800 -0.4750
vn -0.0000 0.8869 -0.4620
vn -0.0001 0.8936 -0.4489
vn -0.0000 0.9168 -0.3994
vn -0.0000 0.8997 -0.4366
vn -0.0000 0.9181 -0.3964
vn -0.0000 0.9194 -0.3934
vn -0.0000 0.7064 -0.7078
vn -0.0000 0.6640 -0.7477
vn -0.0001 0.7381 -0.6747
vn -0.0000 0.7023 -0.7119
vn -0.0000 0.7039 -0.7103
vn -0.0001 0.7023 -0.7119
vn -0.0000 0.6823 -0.7311
vn -0.0000 0.6798 -0.7334
vn -0.0000 0.7884 -0.6152
vn -0.0000 0.7655 -0.6434
vn -0.0000 0.6851 -0.7284
vn -0.0000 0.7355 -0.6776
vn -0.0000 0.7268 -0.6869
vn -0.0000 0.7354 -0.6776
vn -0.0000 0.7464 -0.6655
vn -0.0001 0.7039 -0.7103
vn -0.0000 0.6688 -0.7434
vn -0.0000 0.6730 -0.7396
vn -0.0000 0.7065 -0.7077
vn -0.0000 0.6855 -0.7281
vn -0.0000 0.8935 -0.4491
vn -0.0000 0.8351 -0.5500
vn -0.0000 0.7592 -0.6508
vn -0.0000 0.7839 -0.6209
vn -0.0000 0.6689 -0.7434
vn -0.0000 0.6731 -0.7396
vn -0.0000 0.6687 -0.7435
vn 0.0001 0.6855 -0.7281
vn -0.0000 0.6767 -0.7362
vn -0.0000 0.7267 -0.6869
vn -0.0001 0.6823 -0.7311
vn -0.0000 0.6840 -0.7294
vn -0.0000 0.7464 -0.6654
vn -0.0000 0.7671 -0.6416
vn -0.0000 0.6840 -0.7295
vn -0.0000 0.6822 -0.7311
vn -0.0000 0.6901 -0.7238
vn -0.0000 0.6641 -0.7477
vn -0.0000 0.6768 -0.7362
vn -0.0000 0.8352 -0.5499
vn -0.0000 0.8559 -0.5171
vn -0.0000 0.9293 -0.3694
vn -0.0000 0.9061 -0.4230
vn -0.0000 0.8890 -0.4578
vn -0.0000 0.6841 -0.7294
vn -0.0000 0.6395 -0.7688
vn -0.0000 0.6123 -0.7906
vn -0.0000 0.6639 -0.7478
vn -0.0000 0.6394 -0.7689
vn -0.0000 0.5935 -0.8048
vn -0.0000 0.6640 -0.7478
vn -0.0000 0.5827 -0.8127
vn -0.0000 0.5935 -0.8049
vn -0.0001 0.5827 -0.8127
vn -0.0000 0.5506 -0.8348
vn -0.0000 0.5160 -0.8566
vn -0.0000 0.5181 -0.8553
vn -0.0000 0.5934 -0.8049
vn -0.0000 0.4789 -0.8779
vn -0.0000 0.4394 -0.8983
vn -0.0000 0.5182 -0.8553
vn -0.0000 0.3974 -0.9176
vn -0.0000 0.4384 -0.8988
vn -0.0000 0.3530 -0.9356
vn -0.0000 0.3065 -0.9519
vn -0.0000 0.3551 -0.9348
vn -0.0000 0.2581 -0.9661
vn -0.0000 0.2690 -0.9631
vn -0.0000 0.2688 -0.9632
vn -0.0000 0.2080 -0.9781
vn -0.0000 0.1805 -0.9836
vn -0.0000 0.1568 -0.9876
vn -0.0000 0.0906 -0.9959
vn -0.0000 0.1046 -0.9945
vn -0.0000 -0.0000 -1.0000
vn -0.0000 0.0517 -0.9987
vn -0.0000 -0.0544 -0.9985
vn -0.0000 -0.0014 -1.0000
vn -0.0000 -0.2607 -0.9654
vn -0.0000 -0.3089 -0.9511
vn -0.0000 -0.2690 -0.9631
vn -0.0000 -0.6640 -0.7477
vn -0.0000 -0.6395 -0.7688
vn -0.0000 -0.6126 -0.7904
vn -0.0000 -0.6640 -0.7478
vn -0.0000 -0.5935 -0.8048
vn -0.0000 -0.5831 -0.8124
vn -0.0000 -0.5513 -0.8343
vn -0.0000 -0.5832 -0.8124
vn -0.0000 -0.5170 -0.8560
vn -0.0000 -0.5181 -0.8553
vn -0.0000 -0.5935 -0.8049
vn -0.0000 -0.4803 -0.8771
vn -0.0000 -0.4411 -0.8975
vn -0.0000 -0.4804 -0.8771
vn -0.0000 -0.4385 -0.8987
vn -0.0000 -0.4411 -0.8974
vn -0.0000 -0.4384 -0.8988
vn -0.0000 -0.3994 -0.9168
vn -0.0000 -0.3551 -0.9348
vn -0.0000 -0.3553 -0.9348
vn -0.0000 -0.3552 -0.9348
vn -0.0000 -0.2691 -0.9631
vn -0.0000 -0.2106 -0.9776
vn -0.0000 -0.2606 -0.9655
vn -0.0000 -0.2689 -0.9632
vn -0.0000 -0.1805 -0.9836
vn -0.0000 -0.2688 -0.9632
vn -0.0000 -0.1073 -0.9942
vn -0.0000 -0.0906 -0.9959
vn -0.0000 -0.1594 -0.9872
vn -0.0000 -0.0545 -0.9985
vn -0.0000 -0.1072 -0.9942
vn -0.0000 -0.0907 -0.9959
vn -0.0000 0.1045 -0.9945
vn -0.0000 0.0907 -0.9959
vn -0.0000 0.2081 -0.9781
vn -0.0000 0.3552 -0.9348
vn -0.0000 0.3066 -0.9519
vn -0.0000 0.3531 -0.9356
vn -0.0000 0.4383 -0.8988
vn -0.0000 0.3974 -0.9177
vn -0.0000 0.4789 -0.8778
vn -0.0000 -0.3993 -0.9168
vn -0.0000 -0.4383 -0.8988
vn -0.0000 0.3214 -0.9470
vn -0.0000 0.3856 -0.9227
vn -0.0000 0.3445 -0.9388
vn -0.0000 0.3058 -0.9521
vn -0.0000 0.3615 -0.9324
vn -0.0000 0.4277 -0.9039
vn -0.0001 0.3848 -0.9230
vn -0.0000 0.3305 -0.9438
vn -0.0000 0.3911 -0.9204
vn -0.0000 0.2743 -0.9616
vn -0.0000 0.3289 -0.9444
vn -0.0001 0.4021 -0.9156
vn -0.0000 0.3201 -0.9474
vn -0.0000 0.4667 -0.8844
vn -0.0000 0.1241 -0.9923
vn -0.0000 0.0524 -0.9986
vn -0.0000 0.1532 -0.9882
vn -0.0000 0.1656 -0.9862
vn -0.0000 0.0908 -0.9959
vn -0.0000 -0.3053 -0.9523
vn -0.0000 -0.3725 -0.9280
vn -0.0000 -0.3138 -0.9495
vn -0.0000 -0.2802 -0.9599
vn -0.0000 -0.4394 -0.8983
vn -0.0000 -0.5169 -0.8561
vn -0.0000 -0.4775 -0.8786
vn -0.0000 -0.4170 -0.9089
vn -0.0000 -0.4943 -0.8693
vn -0.0000 -0.5766 -0.8170
vn -0.0000 -0.5735 -0.8192
vn -0.0000 -0.2966 -0.9550
vn -0.0000 -0.2312 -0.9729
vn -0.0000 -0.2661 -0.9639
vn -0.0000 -0.3900 -0.9208
vn -0.0000 -0.3065 -0.9519
vn -0.0000 -0.4541 -0.8910
vn -0.0000 -0.3975 -0.9176
vn -0.0000 -0.3613 -0.9324
vn -0.0000 -0.4471 -0.8945
vn -0.0000 0.2592 -0.9658
vn -0.0000 0.2106 -0.9776
vn -0.0000 0.2606 -0.9655
vn -0.0000 0.2207 -0.9753
vn -0.0000 0.2958 -0.9552
vn -0.0000 0.2250 -0.9744
vn -0.0000 0.3247 -0.9458
vn -0.0000 0.3367 -0.9416
vn -0.0000 0.2689 -0.9632
vn -0.0000 0.1658 -0.9862
vn -0.0000 0.2515 -0.9679
vn -0.0000 0.1657 -0.9862
vn -0.0000 -0.5803 -0.8144
vn -0.0000 -0.5171 -0.8559
vn -0.0000 -0.5247 -0.8513
vn -0.0000 -0.6347 -0.7728
vn -0.0000 -0.6357 -0.7719
vn -0.0000 -0.6175 -0.7865
vn -0.0000 -0.5999 -0.8001
vn -0.0000 -0.5495 -0.8355
vn -0.0000 -0.3709 -0.9287
vn -0.0000 -0.3817 -0.9243
vn -0.0000 -0.4681 -0.8837
vn -0.0000 -0.4123 -0.9110
vn -0.0000 -0.4682 -0.8836
vn -0.0000 -0.3278 -0.9447
vn -0.0000 -0.2543 -0.9671
vn -0.0000 -0.1375 -0.9905
vn -0.0000 -0.1172 -0.9931
vn -0.0000 -0.1871 -0.9823
vn 0.0001 -0.1304 -0.9915
vn -0.0000 -0.2595 -0.9657
vn -0.0000 -0.1870 -0.9824
vn -0.0000 -0.1703 -0.9854
vn -0.0000 -0.2618 -0.9651
vn -0.0000 -0.2974 -0.9548
vn -0.0000 -0.2616 -0.9652
vn -0.0000 -0.3379 -0.9412
vn -0.0000 -0.2582 -0.9661
vn -0.0000 -0.1701 -0.9854
vn -0.0000 -0.0992 -0.9951
vn -0.0000 0.4827 -0.8758
vn -0.0000 0.5463 -0.8376
vn -0.0000 0.4717 -0.8818
vn -0.0000 0.4857 -0.8741
vn -0.0000 -0.5860 -0.8103
vn 0.0002 -0.1546 -0.9880
vn -0.0001 -0.0741 -0.9973
vn -0.0000 -0.1204 -0.9927
vn -0.0000 -0.1543 -0.9880
vn -0.0000 -0.1567 -0.9876
vn -0.0000 -0.1045 -0.9945
vn -0.0000 0.0031 -1.0000
vn -0.0000 -0.0239 -0.9997
vn -0.0000 -0.0740 -0.9973
vn -0.0000 -0.0517 -0.9987
vn -0.0000 0.1535 -0.9882
vn -0.0000 0.0797 -0.9968
vn -0.0000 0.1072 -0.9942
vn -0.0000 0.1284 -0.9917
vn -0.0000 0.0014 -1.0000
vn -0.0000 0.0451 -0.9990
vn -0.0000 0.0043 -1.0000
vn -0.0000 0.0845 -0.9964
vn -0.0000 0.0044 -1.0000
vn 0.0001 0.0037 -1.0000
vn -0.0000 0.1084 -0.9941
vn -0.0000 -0.0752 -0.9972
vn -0.0000 0.1403 -0.9901
vn -0.0000 0.0992 -0.9951
vn -0.0000 -0.1427 -0.9898
vn -0.0000 -0.0519 -0.9987
vn -0.0000 -0.1947 -0.9809
vn -0.0001 -0.2115 -0.9774
vn -0.0000 -0.5089 -0.8608
vn -0.0000 -0.5559 -0.8313
vn -0.0000 -0.4624 -0.8867
vn -0.0000 -0.2036 -0.9791
vn -0.0000 0.6148 -0.7887
vn -0.0000 0.6304 -0.7763
vn -0.0000 0.5597 -0.8287
vn -0.0000 0.5836 -0.8121
vn -0.0000 0.4835 -0.8753
vn -0.0000 0.4411 -0.8975
vn -0.0000 0.5221 -0.8529
vn -0.0000 0.4397 -0.8981
vn -0.0000 0.5387 -0.8425
vn -0.0000 0.6103 -0.7922
vn -0.0000 0.4803 -0.8771
vn -0.0000 0.5170 -0.8560
vn -0.0000 0.2715 -0.9624
vn -0.0000 0.2752 -0.9614
vn -0.0000 0.0033 -1.0000
vn -0.0000 0.2459 -0.9693
vn -0.0000 0.4084 -0.9128
vn -0.0000 0.4880 -0.8728
vn -0.0000 0.3192 -0.9477
vn -0.0000 0.2090 -0.9779
vn -0.0000 -0.4789 -0.8779
vn -0.0000 -0.5559 -0.8312
vn 0.0001 -0.5827 -0.8127
vn -0.0000 -0.5506 -0.8348
vn -0.0000 -0.6123 -0.7906
vn -0.0000 -0.5827 -0.8127
vn -0.0000 -0.5861 -0.8103
vn -0.0000 0.0544 -0.9985
vn -0.0000 0.1594 -0.9872
vn -0.0000 0.1073 -0.9942
vn -0.0000 0.0545 -0.9985
vn -0.0000 -0.1426 -0.9898
vn -0.0000 0.3993 -0.9168
vn -0.0000 0.3553 -0.9347
vn -0.0000 0.3089 -0.9511
vn -0.0000 0.4718 -0.8817
vn -0.0000 0.5513 -0.8343
vn -0.0000 -0.6124 -0.7906
vn -0.0000 -0.6394 -0.7689
vn -0.0000 -0.3974 -0.9176
vn -0.0000 -0.3531 -0.9356
vn -0.0000 -0.2080 -0.9781
vn -0.0000 0.1535 -0.9881
vn -0.0000 0.3553 -0.9348
vn -0.0000 0.3994 -0.9168
vn -0.0000 0.6125 -0.7904
vn -0.0000 0.6103 -0.7921
vn -0.0000 0.5832 -0.8123
vn -0.0000 0.6125 -0.7905
vn -0.0000 0.5831 -0.8124
vn -0.0000 0.5833 -0.8123
vn -0.0000 0.4804 -0.8771
vn -0.0000 0.0525 -0.9986
vn -0.0000 0.2593 -0.9658
vn -0.0000 0.2606 -0.9654
vn -0.0000 0.2107 -0.9776
vn -0.0000 -0.5182 -0.8553
vn -0.0000 -0.1567 -0.9877
vn -0.0000 -0.2967 -0.9550
vn -0.0000 -0.3530 -0.9356
vn -0.0000 -0.5506 -0.8347
vn -0.0000 -0.5160 -0.8566
vn -0.0000 -0.5558 -0.8313
vn -0.0000 -0.4541 -0.8909
vn -0.0000 -0.6639 -0.7478
vn -0.0000 -0.2581 -0.9661
vn -0.0000 0.0013 -1.0000
vn -0.0000 0.3848 -0.9230
vn -0.0000 -0.7843 -0.6204
vn -0.0000 -0.7626 -0.6469
vn -0.0000 -0.7655 -0.6434
vn -0.0000 -0.7887 -0.6148
vn -0.0000 -0.6774 -0.7356
vn -0.0000 -0.7036 -0.7106
vn -0.0000 -0.6730 -0.7396
vn -0.0000 -0.7033 -0.7109
vn -0.0000 -0.9023 -0.4310
vn -0.0000 -0.8890 -0.4578
vn -0.0000 -0.9001 -0.4356
vn -0.0000 -0.9168 -0.3993
vn -0.0000 -0.9062 -0.4229
vn -0.0000 -0.7841 -0.6207
vn -0.0000 -0.8017 -0.5978
vn -0.0000 -0.7876 -0.6162
vn -0.0002 -0.8457 -0.5337
vn -0.0001 -0.8660 -0.5001
vn -0.0000 -0.8559 -0.5172
vn -0.0000 -0.8351 -0.5500
vn -0.0000 -0.8796 -0.4756
vn -0.0000 -0.8978 -0.4405
vn -0.0000 -0.8835 -0.4684
vn -0.0000 -0.8800 -0.4750
vn -0.0000 -0.8753 -0.4835
vn 0.0001 -0.8558 -0.5174
vn -0.0001 -0.8657 -0.5006
vn -0.0000 -0.8658 -0.5004
vn 0.0001 -0.8352 -0.5500
vn -0.0000 -0.8508 -0.5255
vn -0.0001 -0.8243 -0.5661
vn -0.0000 -0.8087 -0.5883
vn -0.0001 -0.8351 -0.5500
vn -0.0000 -0.8131 -0.5821
vn -0.0000 -0.8351 -0.5501
vn -0.0000 -0.8658 -0.5005
vn -0.0000 -0.8422 -0.5392
vn -0.0000 -0.8243 -0.5662
vn -0.0000 -0.8016 -0.5978
vn -0.0000 -0.8094 -0.5873
vn -0.0000 -0.8089 -0.5879
vn -0.0000 -0.8017 -0.5977
vn -0.0000 -0.7899 -0.6133
vn -0.0000 -0.7654 -0.6435
vn -0.0000 -0.7705 -0.6374
vn -0.0000 -0.8860 -0.4636
vn -0.0000 -0.8869 -0.4620
vn -0.0001 -0.8936 -0.4488
vn -0.0000 -0.7610 -0.6487
vn -0.0000 -0.7583 -0.6519
vn -0.0001 -0.7360 -0.6770
vn -0.0000 -0.7175 -0.6966
vn -0.0000 -0.7359 -0.6771
vn -0.0000 -0.7269 -0.6868
vn -0.0000 -0.7267 -0.6869
vn -0.0000 -0.7464 -0.6654
vn -0.0000 -0.8008 -0.5989
vn -0.0000 -0.8188 -0.5741
vn -0.0000 -0.8997 -0.4366
vn -0.0000 -0.9181 -0.3964
vn -0.0000 -0.6991 -0.7150
vn -0.0000 -0.6798 -0.7334
vn -0.0000 -0.6822 -0.7312
vn -0.0000 -0.7340 -0.6791
vn -0.0000 -0.7065 -0.7077
vn -0.0000 -0.7613 -0.6484
vn -0.0000 -0.7465 -0.6654
vn -0.0000 -0.7131 -0.7011
vn -0.0000 -0.7471 -0.6647
vn -0.0000 -0.7886 -0.6150
vn -0.0000 -0.7839 -0.6208
vn -0.0000 -0.6952 -0.7188
vn -0.0000 -0.7367 -0.6762
vn -0.0000 -0.9061 -0.4230
vn -0.0000 -0.8934 -0.4492
vn -0.0000 -0.9194 -0.3934
vn -0.0000 -0.9292 -0.3695
vn -0.0000 -0.9168 -0.3994
vn -0.0000 -0.8352 -0.5500
vn -0.0000 -0.7840 -0.6207
vn -0.0000 -0.7655 -0.6435
vn -0.0000 -0.7885 -0.6150
vn -0.0000 -0.7839 -0.6209
vn -0.0000 -0.7064 -0.7078
vn -0.0000 -0.6855 -0.7281
vn -0.0000 -0.6852 -0.7284
vn -0.0000 -0.6840 -0.7295
vn -0.0000 -0.6851 -0.7284
vn -0.0000 -0.6822 -0.7311
vn -0.0000 -0.6687 -0.7435
vn -0.0000 -0.6689 -0.7434
vn -0.0000 -0.6767 -0.7362
vn -0.0000 -0.7341 -0.6791
vn -0.0000 -0.8935 -0.4491
vn -0.0000 -0.9293 -0.3694
vn -0.0000 -0.6823 -0.7311
vn -0.0000 -0.6688 -0.7434
vn -0.0000 -0.6688 -0.7435
vn 0.0001 -0.6731 -0.7395
vn -0.0000 -0.6731 -0.7396
vn -0.0000 -0.7035 -0.7107
vn -0.0000 -0.7066 -0.7076
vn -0.0000 -0.8008 -0.5990
s 1
usemtl Diffuse_51_51_51_100.020
f 1//1 2//1 3//1
f 1//1 3//1 4//1
f 1//1 4//1 5//2
f 1//1 5//2 6//2
f 7//1 1//1 8//3
f 1//1 6//2 8//3
f 9//1 1//1 7//1
f 10//1 1//1 9//1
f 10//1 11//1 1//1
f 11//1 12//1 1//1
f 12//1 13//1 1//1
f 13//1 14//1 1//1
f 14//1 15//1 1//1
s 0
f 1//4 16//4 17//1
s 1
f 18//1 2//1 1//1
f 19//1 2//1 18//1
f 19//1 18//1 20//1
f 19//1 20//1 21//1
f 20//1 22//1 21//1
f 22//1 23//1 21//1
f 24//1 23//1 22//1
f 25//1 23//1 24//1
f 25//1 24//1 26//1
f 25//1 26//1 27//1
f 26//1 28//1 27//1
f 28//1 29//1 27//1
f 30//1 29//1 28//1
f 31//1 29//1 30//1
f 32//1 31//1 33//1
f 31//1 30//1 33//1
f 32//1 33//1 34//1
f 35//1 36//1 37//1
f 36//1 38//1 37//1
f 39//1 40//1 41//1
f 40//1 42//1 41//1
f 42//1 43//1 41//1
f 43//1 44//1 41//1
f 45//1 44//1 46//1
f 47//3 44//1 45//1
f 43//1 46//1 44//1
f 48//1 46//1 43//1
f 49//1 46//1 48//1
f 50//1 49//1 48//1
f 47//3 51//1 44//1
f 49//1 50//1 35//1
f 50//1 36//1 35//1
f 38//1 32//1 34//1
f 38//1 34//1 37//1
s 0
f 16//1 1//5 15//2
s 1
f 52//6 53//7 54//7
f 52//6 54//7 55//7
f 52//6 55//7 56//8
f 52//6 56//8 57//6
f 58//7 59//7 57//6
f 60//7 61//7 59//7
f 62//7 61//7 60//7
f 63//7 64//7 62//7
f 65//7 64//7 63//7
f 66//7 65//7 67//7
f 66//7 67//7 68//7
f 69//7 68//7 70//7
f 71//7 70//7 72//7
f 71//7 72//7 73//7
f 74//7 75//7 76//7
f 77//7 74//7 78//7
f 77//7 78//7 79//7
f 80//7 81//7 82//7
f 81//7 79//7 82//7
f 83//7 82//7 84//7
s 0
f 82//7 85//7 86//7
f 82//9 86//8 87//8
s 1
f 88//7 82//7 89//7
f 88//7 90//7 82//7
f 90//7 91//7 82//7
f 82//7 92//7 93//10
f 82//7 93//10 94//7
f 82//7 94//7 95//8
f 82//7 95//8 96//6
f 84//7 82//7 97//7
f 82//7 96//6 97//7
f 91//7 92//7 82//7
f 89//7 82//7 87//7
f 83//7 80//7 82//7
f 79//7 81//7 77//7
f 76//7 78//7 74//7
f 98//7 76//7 75//7
f 98//7 75//7 73//7
f 98//7 73//7 72//7
f 70//7 71//7 69//7
f 68//7 69//7 66//7
f 63//7 67//7 65//7
f 60//7 59//7 58//7
f 61//7 62//7 64//7
f 99//6 57//6 100//7
f 101//7 99//6 102//7
f 58//7 57//6 56//8
f 57//6 99//6 52//6
f 100//7 102//7 99//6
f 103//11 104//11 105//11
f 106//11 107//11 108//11
f 109//11 110//11 111//12
f 105//13 112//11 109//11
f 111//11 113//11 114//11
f 115//14 116//15 117//1
f 118//16 119//17 115//14
f 120//18 118//16 121//19
f 120//18 121//19 122//20
f 123//21 122//20 124//22
f 123//21 124//22 125//23
f 125//23 126//24 127//25
f 126//24 128//26 127//25
f 128//26 129//27 130//28
f 129//27 131//29 130//28
f 132//30 133//31 131//29
f 134//32 133//31 132//30
f 135//33 136//34 134//32
f 137//35 136//34 135//33
f 138//36 137//35 139//37
f 140//38 141//39 142//40
f 141//39 143//40 142//40
f 144//41 141//39 140//38
f 144//41 140//38 145//42
f 144//41 145//42 146//43
f 146//43 145//42 147//44
f 146//43 147//44 148//45
f 147//44 138//36 148//45
f 138//36 139//37 148//45
f 137//35 135//33 139//37
f 136//34 133//31 134//32
f 132//30 131//29 129//27
f 128//26 130//28 127//25
f 123//21 120//18 122//20
f 124//22 126//24 125//23
f 116//15 115//14 119//17
f 149//46 117//1 116//15
f 150//47 117//1 149//46
f 151//48 150//47 149//46
f 152//49 150//47 151//48
f 152//49 153//50 154//51
f 153//50 155//52 154//51
f 156//53 157//54 155//52
f 158//55 156//53 159//56
f 158//55 160//57 161//58
f 162//59 163//60 161//58
f 164//61 163//60 165//62
f 166//63 167//64 168//65
f 169//66 166//63 170//67
f 167//64 171//68 168//65
f 172//69 173//70 174//71
f 172//69 174//71 175//72
f 173//70 176//73 177//74
f 176//73 178//75 177//74
f 178//75 179//76 177//74
f 180//77 181//78 179//76
f 181//78 180//77 182//79
f 181//78 182//79 183//80
f 183//80 184//81 185//82
f 184//81 186//83 185//82
f 186//83 187//84 185//82
f 187//84 188//85 189//86
f 188//85 190//87 189//86
f 191//88 190//87 188//85
f 192//89 193//90 191//88
f 194//91 193//90 192//89
f 194//91 192//89 195//92
f 166//63 164//61 170//67
f 196//93 194//91 197//94
f 165//62 163//60 162//59
f 198//95 196//93 199//96
f 196//93 197//94 199//96
f 200//97 198//95 201//98
f 161//58 160//57 162//59
f 200//97 201//98 202//99
f 160//57 158//55 159//56
f 203//100 200//97 204//101
f 156//53 158//55 157//54
f 203//100 204//101 205//102
f 154//51 155//52 157//54
f 203//100 205//102 206//103
f 153//50 152//49 151//48
f 175//72 168//65 171//68
f 207//104 208//105 206//103
f 207//104 209//106 208//105
f 209//106 210//107 211//108
f 210//107 212//109 211//108
f 213//110 212//109 210//107
f 214//111 215//112 212//109
f 216//113 215//112 214//111
f 217//114 218//115 216//113
f 219//116 218//115 217//114
f 220//117 219//116 221//118
f 220//117 221//118 222//119
f 223//120 220//117 224//121
f 223//120 224//121 225//122
f 226//123 225//122 227//124
f 228//125 229//126 230//127
f 228//125 230//127 231//128
f 232//129 233//130 234//131
f 235//132 228//125 236//133
f 237//134 238//135 239//136
f 240//137 241//138 242//139
f 243//140 244//141 245//142
f 246//143 247//144 248//145
f 249//146 250//147 251//148
f 252//149 253//150 254//151
f 255//152 256//153 257//154
f 258//155 259//156 256//153
f 259//156 260//157 261//158
f 260//157 262//159 263//160
f 262//159 264//161 265//162
f 264//161 266//163 267//164
f 198//95 199//96 201//98
f 197//94 194//91 195//92
f 143//40 268//165 142//40
f 269//166 268//165 143//40
f 270//167 268//165 269//166
f 270//167 269//166 267//164
f 264//161 267//164 265//162
f 262//159 265//162 263//160
f 260//157 263//160 261//158
f 259//156 261//158 256//153
f 258//155 256//153 255//152
f 255//152 257//154 252//149
f 257//154 253//150 252//149
f 253//150 250//147 254//151
f 250//147 249//146 254//151
f 251//148 271//168 249//146
f 272//169 271//168 251//148
f 272//169 251//148 248//145
f 272//169 248//145 247//144
f 247//144 246//143 273//170
f 246//143 274//171 273//170
f 274//171 243//140 273//170
f 244//141 243//140 274//171
f 275//172 245//142 244//141
f 275//172 244//141 276//173
f 275//172 276//173 277//174
f 276//173 241//138 277//174
f 241//138 240//137 277//174
f 242//139 278//175 240//137
f 279//176 278//175 242//139
f 280//177 278//175 279//176
f 280//177 279//176 238//135
f 279//176 239//136 238//135
f 239//136 281//178 237//134
f 281//178 282//179 237//134
f 283//180 282//179 281//178
f 284//181 282//179 283//180
f 284//181 283//180 234//131
f 284//181 234//131 233//130
f 234//131 285//182 232//129
f 285//182 286//183 232//129
f 287//184 286//183 285//182
f 288//185 286//183 287//184
f 288//185 287//184 289//186
f 288//185 289//186 290//187
f 289//186 235//132 290//187
f 235//132 236//133 290//187
f 226//123 227//124 229//126
f 231//128 236//133 228//125
f 227//124 230//127 229//126
f 223//120 225//122 226//123
f 220//117 222//119 224//121
f 219//116 217//114 221//118
f 218//115 215//112 216//113
f 214//111 212//109 213//110
f 209//106 211//108 208//105
f 205//102 207//104 206//103
f 200//97 202//99 204//101
f 270//167 267//164 266//163
f 190//87 191//88 193//90
f 189//86 185//82 187//84
f 184//81 183//80 182//79
f 178//75 180//77 179//76
f 174//71 173//70 177//74
f 175//72 171//68 172//69
f 167//64 166//63 169//66
f 121//19 118//16 115//14
f 165//62 170//67 164//61
f 291//188 292//188 293//188
f 294//188 295//188 296//188
f 297//189 298//188 299//188
f 300//188 297//188 301//188
f 298//188 291//190 302//188
f 303//191 304//191 305//191
f 306//191 307//191 308//191
f 309//191 310//191 311//191
f 312//191 313//191 314//191
f 315//191 316//191 317//191
f 318//191 319//191 320//191
f 321//191 322//191 323//191
f 324//191 325//191 326//191
f 327//191 328//191 329//191
f 330//191 331//191 332//191
f 333//191 334//191 335//191
f 336//191 337//191 338//191
f 339//191 340//191 341//191
f 342//191 343//191 344//191
f 345//191 346//191 347//191
f 348//191 349//191 350//191
f 351//191 352//191 353//191
f 354//191 355//191 356//191
f 357//191 358//191 359//191
f 360//191 361//191 362//191
f 363//191 364//191 365//191
f 366//191 367//191 368//191
f 369//191 370//191 371//191
f 372//191 373//191 374//191
f 375//191 376//191 377//191
f 378//191 379//191 380//191
f 381//191 382//191 383//191
f 384//191 385//191 386//191
f 387//191 388//191 389//191
f 390//191 391//191 392//191
f 393//191 394//191 395//191
f 396//191 397//191 398//191
f 399//191 400//191 401//191
f 402//191 403//191 404//191
f 405//191 406//191 407//191
f 408//191 409//191 410//191
f 411//191 412//191 413//191
f 414//191 415//191 416//191
f 417//191 418//191 419//191
f 420//191 421//191 422//191
f 423//191 424//191 425//191
f 426//191 427//191 428//191
f 429//192 430//192 431//192
f 432//191 433//191 434//191
f 435//191 436//191 437//191
f 438//191 439//191 440//191
f 441//191 442//191 443//191
f 444//191 445//191 446//191
f 447//191 448//191 449//191
f 450//191 451//191 452//191
f 453//191 454//191 455//191
f 456//191 457//191 458//191
f 459//191 460//191 461//191
f 462//191 463//191 464//191
f 465//191 466//191 467//191
f 468//191 469//191 470//191
f 471//191 472//191 473//191
f 474//191 475//191 476//191
f 477//191 478//191 479//191
f 480//193 481//193 482//193
f 483//191 484//191 485//191
f 486//191 487//191 488//191
f 489//191 490//191 491//191
f 492//191 493//191 494//191
f 495//191 496//191 497//191
f 498//191 499//191 500//191
f 501//191 502//191 503//191
f 504//191 505//191 506//191
f 507//191 508//191 509//191
f 510//191 511//191 512//191
f 513//191 514//191 515//191
f 516//191 517//191 518//191
f 519//191 520//191 521//191
f 522//191 523//191 524//191
f 525//191 526//191 527//191
f 528//191 529//191 530//191
f 531//191 532//191 533//191
f 534//191 535//191 536//191
f 537//191 538//191 539//191
f 540//191 541//191 542//191
f 543//191 544//191 545//191
f 546//191 547//191 548//191
f 549//191 550//191 551//191
f 552//191 553//191 554//191
f 555//194 556//195 557//196
f 555//194 558//197 556//195
f 559//198 560//199 561//200
f 559//198 562//201 563//202
f 564//203 565//204 566//205
f 564//203 562//201 567//206
f 564//203 567//206 568//207
f 562//201 561//200 569//208
f 570//209 563//202 571//210
f 570//209 558//197 560//199
f 570//209 571//210 556//195
f 563//202 572//211 571//210
f 569//208 561//200 573//212
f 569//208 567//206 562//201
f 574//213 575//214 576//215
f 574//213 577//216 575//214
f 578//217 579//218 580//219
f 578//217 581//220 582//221
f 583//222 584//223 585//212
f 583//222 580//219 586//224
f 580//219 587//225 586//224
f 580//219 579//218 587//225
f 579//218 588//226 589//227
f 579//196 590//221 591//228
f 592//229 593//230 594//231
f 592//229 595//232 596//231
f 597//233 598//234 599//235
f 597//233 600//236 598//234
f 594//231 601//232 592//229
f 594//231 602//237 603//238
f 604//239 605//240 606//237
f 604//239 575//214 607//241
f 605//240 588//226 608//226
f 605//240 607//241 588//226
f 592//229 596//231 593//230
f 595//232 557//196 609//232
f 596//231 610//242 593//230
f 596//231 609//232 611//243
f 611//243 589//227 588//226
f 611//243 609//232 589//227
f 589//227 587//225 579//218
f 589//227 609//232 612//244
f 557//196 613//221 612//244
f 557//196 556//195 613//221
f 612//244 609//232 557//196
f 612//244 614//245 587//225
f 614//245 615//246 586//224
f 614//245 613//221 571//210
f 600//236 593//230 616//247
f 594//231 597//233 617//248
f 618//249 577//216 619//250
f 618//249 607//241 575//214
f 577//216 574//213 620//251
f 618//249 619//250 610//242
f 621//252 622//253 623//254
f 621//252 619//250 622//253
f 616//247 593//230 610//242
f 616//247 598//234 600//236
f 568//207 567//206 624//255
f 568//207 625//256 565//204
f 558//197 601//232 626//228
f 601//232 555//194 595//232
f 559//198 561//200 562//201
f 560//199 627//221 628//220
f 562//201 564//203 563//202
f 566//205 629//257 572//211
f 291//190 620//251 630//253
f 291//190 298//188 620//251
f 620//251 574//213 631//215
f 620//251 298//188 622//253
f 604//239 607//241 605//240
f 575//214 577//216 618//249
f 297//189 623//254 298//188
f 623//254 598//234 621//252
f 623//254 297//189 632//253
f 633//258 584//223 634//259
f 633//260 635//261 636//262
f 629//257 615//246 572//211
f 629//257 634//259 584//223
f 586//224 587//225 614//245
f 637//220 578//263 638//264
f 633//258 634//259 639//265
f 584//223 586//224 629//257
f 640//255 569//266 641//267
f 572//211 564//203 566//205
f 571//210 572//211 615//246
f 570//209 556//195 558//197
f 568//207 565//204 564//203
f 625//256 642//256 565//204
f 563//202 564//203 572//211
f 565//204 643//256 634//259
f 571//210 615//246 614//245
f 566//205 565//204 634//259
f 621//252 616//247 619//250
f 598//234 644//215 645//235
f 577//216 622//253 619//250
f 620//251 622//253 577//216
f 610//242 619//250 616//247
f 610//242 596//231 611//243
f 584//223 583//222 586//224
f 611//243 607//241 610//242
f 588//226 607//241 611//243
f 607//241 618//249 610//242
f 597//233 593//230 600//236
f 595//232 555//194 557//196
f 598//234 616//247 621//252
f 592//229 601//232 595//232
f 595//232 609//232 596//231
f 589//227 612//244 587//225
f 586//224 615//246 629//257
f 614//245 612//244 613//221
f 569//268 646//269 647//267
f 560//199 559//198 570//209
f 601//232 558//197 555//194
f 556//195 571//210 613//221
f 634//270 648//271 649//272
f 650//273 651//274 568//207
f 652//248 653//275 604//239
f 623//254 622//253 298//188
f 654//228 655//276 579//196
f 656//226 601//232 594//231
f 657//265 633//258 658//274
f 659//264 561//277 660//278
f 661//279 662//274 663//280
f 664//281 665//256 666//282
f 667//272 668//274 669//283
f 670//283 671//274 672//255
f 633//258 673//283 674//255
f 633//258 675//262 676//283
f 677//255 678//284 633//258
f 679//285 633//258 680//286
f 681//287 682//264 583//288
f 683//221 579//218 578//217
f 583//222 578//217 580//219
f 684//212 561//277 685//264
f 588//226 579//218 686//226
f 563//202 570//209 559//198
f 687//265 634//259 688//289
f 689//289 634//259 690//290
f 691//274 692//256 568//291
f 693//262 694//290 634//259
f 695//284 696//212 584//223
f 629//257 566//205 634//259
f 634//259 697//292 698//271
f 699//272 700//283 634//259
f 568//207 701//256 625//256
f 702//262 634//259 703//293
f 704//255 567//206 569//208
f 705//274 633//258 706//265
f 707//238 708//237 605//231
f 558//197 709//228 560//199
f 710//294 711//238 605//295
f 712//221 560//199 713//228
f 604//239 714//237 715//248
f 716//226 594//231 717//238
f 718//253 719//215 623//254
f 720//296 721//253 297//190
f 623//254 722//297 598//234
f 723//248 597//233 724//235
f 291//188 725//253 726//296
f 727//248 728//237 594//231
f 729//253 620//251 730//297
f 593//230 597//233 594//231
f 731//235 732//297 575//298
f 604//239 733//235 575//214
f 734//228 601//232 735//226
f 736//278 561//200 560//199
f 737//299 633//258 738//265
f 633//258 739//267 584//223
f 740//274 741//256 742//256
f 578//217 583//222 743//264
f 744//256 745//256 746//300
f 747//301 748//302 749//303
f 750//301 751//304 752//305
f 753//301 754//306 755//304
f 756//307 757//308 758//309
f 759//310 760//304 761//309
f 762//310 763//311 764//312
f 765//313 766//314 767//315
f 768//314 769//316 770//317
f 771//318 772//319 773//320
f 774//319 775//321 776//322
f 777//323 778//324 779//325
f 780//325 781//324 782//326
f 783//327 784//325 785//328
f 786//329 787//327 788//330
f 789//331 790//329 791//332
f 792//333 793//334 794//335
f 795//336 796//336 797//337
f 798//337 799//336 800//338
f 801//338 802//339 803//340
f 804//341 805//338 806//340
f 807//342 808//343 809//340
f 810//344 811//342 812//340
f 813//345 814//344 815//346
f 816//345 817//347 818//344
f 819//345 820//348 821//349
f 822//345 823//350 824//351
f 825//348 826//352 827//353
f 828//354 829//334 830//355
f 831//353 832//354 833//356
f 834//355 835//357 836//334
f 837//358 838//359 839//360
f 840//361 841//358 842//362
f 843//363 844//361 845//364
f 846//363 847//365 848//361
f 849//366 850//367 851//364
f 852//329 853//331 854//368
f 855//330 856//332 857//329
f 858//369 859//330 860//370
f 861//326 862//328 863//325
f 864//371 865//323 866//321
f 867//322 868//372 869//373
f 870//320 871//316 872//374
f 873//372 874//375 875//376
f 876//317 877//311 878//314
f 879//311 880//310 881//377
f 882//361 883//365 884//358
f 885//356 886//378 887//379
f 888//380 889//381 890//382
f 888//380 891//383 889//381
f 892//384 893//385 894//386
f 892//384 895//387 896//388
f 892//384 896//388 893//385
f 895//387 897//389 898//390
f 899//391 898//390 900//392
f 899//391 901//393 896//388
f 898//390 897//389 900//392
f 898//390 896//388 895//387
f 902//394 903//395 904//396
f 902//394 905//397 906//398
f 907//399 908//400 909//401
f 907//399 910//402 908//400
f 911//403 912//404 913//405
f 911//403 914//406 915//407
f 912//404 916//408 913//405
f 912//404 915//407 917//409
f 918//410 919//411 920//412
f 918//410 921//413 922//414
f 921//413 923//415 924//416
f 921//413 925//417 926//418
f 927//419 928//420 929//421
f 927//419 891//383 930//422
f 931//423 932//424 933//425
f 931//423 934//426 935//427
f 905//428 936//325 937//327
f 905//397 932//424 938//323
f 932//424 904//396 939//429
f 905//430 940//323 941//325
f 934//426 942//320 943//322
f 934//426 894//386 944//372
f 945//431 946//432 947//433
f 945//431 948//434 917//409
f 945//431 917//409 946//432
f 948//434 949//336 950//435
f 951//436 949//336 952//437
f 951//436 950//435 949//336
f 917//409 915//407 946//432
f 917//409 950//435 916//408
f 948//434 950//435 917//409
f 917//409 916//408 912//404
f 953//438 951//436 952//437
f 954//403 955//439 956//440
f 954//403 957//441 926//418
f 958//442 959//443 908//400
f 958//442 960//379 959//443
f 961//444 962//445 963//335
f 961//444 908//400 910//402
f 964//446 965//366 966//447
f 964//446 967//448 968//449
f 967//448 969//450 970//451
f 967//448 971//452 972//453
f 973//454 955//439 925//417
f 973//454 974//455 975//456
f 974//455 970//451 969//450
f 974//455 976//457 977//458
f 970//451 968//449 967//448
f 970//451 977//458 978//459
f 979//460 980//461 981//462
f 979//460 893//385 982//463
f 947//433 983//464 945//431
f 947//433 959//443 984//345
f 985//465 986//466 987//467
f 985//468 988//469 989//470
f 986//466 990//471 991//472
f 986//473 992//470 993//474
f 994//475 995//476 996//477
f 994//475 930//422 997//478
f 995//476 990//471 998//479
f 995//476 997//478 999//480
f 1000//481 1001//482 1002//483
f 1000//481 1003//484 1004//485
f 1005//486 968//449 978//459
f 1005//486 1002//483 965//366
f 1001//482 1006//487 1007//488
f 1001//482 1004//485 1006//487
f 1008//489 1009//490 1010//364
f 1008//489 1011//491 966//447
f 1008//489 966//447 1009//490
f 1011//491 1012//492 966//447
f 975//456 956//440 955//439
f 975//456 969//450 909//401
f 991//472 999//480 1003//484
f 991//472 987//467 986//466
f 999//480 997//478 1004//485
f 999//480 990//471 995//476
f 953//438 957//441 913//405
f 953//438 952//437 1013//493
f 926//418 925//417 955//439
f 926//418 1013//493 923//415
f 1013//493 952//437 1014//494
f 1013//493 957//441 953//438
f 1013//493 1014//494 923//415
f 952//437 1015//336 1016//337
f 1017//495 908//400 959//443
f 1017//495 915//407 914//406
f 945//431 983//464 948//434
f 946//432 959//443 947//433
f 918//410 925//417 921//413
f 920//412 1018//496 976//457
f 1018//496 987//467 977//458
f 1018//496 919//411 985//465
f 894//386 981//462 1019//317
f 894//386 933//425 892//384
f 981//462 980//461 1020//311
f 981//462 893//385 979//460
f 909//401 914//406 956//440
f 909//401 972//453 907//399
f 911//403 915//407 912//404
f 914//406 908//400 1017//495
f 1021//497 980//461 1022//498
f 1021//497 1023//256 1024//304
f 1021//497 1022//498 1025//292
f 980//461 982//463 1026//499
f 1022//498 1026//499 1027//500
f 980//461 1021//497 1028//307
f 1029//501 889//381 1030//502
f 1029//501 1031//503 1032//504
f 1033//505 1034//506 1031//503
f 1033//505 1035//507 1036//508
f 978//459 977//458 987//467
f 978//459 968//449 970//451
f 977//458 976//457 1018//496
f 975//456 974//455 969//450
f 980//461 1026//499 1022//498
f 982//463 901//393 1026//499
f 1004//485 1037//325 1006//487
f 1004//485 1003//484 999//480
f 1037//325 1038//509 1039//510
f 1037//325 997//478 930//422
f 964//446 971//452 967//448
f 965//366 1040//511 966//447
f 967//448 972//453 969//450
f 971//452 966//447 1012//492
f 1041//512 1006//487 1037//325
f 1041//512 900//392 897//389
f 899//391 1042//513 1043//514
f 900//392 1039//510 1044//515
f 890//382 1032//504 1042//513
f 890//382 1038//509 888//380
f 1032//504 1031//503 1043//514
f 1032//504 889//381 1029//501
f 1012//492 907//399 972//453
f 910//402 962//445 961//444
f 1012//492 1011//491 962//445
f 1012//492 972//453 971//452
f 1044//515 1039//510 1038//509
f 1044//515 1042//513 900//392
f 1045//516 897//389 939//429
f 1045//516 1007//488 1006//487
f 1007//488 1040//511 1002//483
f 1007//488 904//396 903//395
f 927//419 930//422 994//475
f 930//422 888//380 1038//509
f 994//475 997//478 995//476
f 930//422 1038//509 1037//325
f 1009//490 903//395 1046//329
f 1009//490 966//447 1040//511
f 902//394 904//396 932//424
f 903//395 1040//511 1007//488
f 923//415 1014//494 1047//517
f 1013//493 926//418 957//441
f 1014//518 1048//519 1049//520
f 1014//494 1050//521 1051//522
f 1045//516 904//396 1007//488
f 931//423 933//425 894//386
f 1043//514 1042//513 1032//504
f 1043//514 901//393 899//391
f 1027//500 625//302 1022//498
f 1027//500 1031//503 1034//506
f 1033//505 1031//503 1029//501
f 1034//506 625//302 1027//500
f 1042//513 899//391 900//392
f 895//387 892//384 933//425
f 896//388 982//463 893//385
f 1026//499 1043//514 1027//500
f 894//386 893//385 981//462
f 933//425 939//429 895//387
f 1017//495 946//432 915//407
f 959//443 1052//352 1053//345
f 983//523 1054//340 1055//336
f 959//443 946//432 1017//495
f 913//405 916//408 953//438
f 911//403 956//440 914//406
f 975//456 955//439 973//454
f 955//439 954//403 926//418
f 962//445 1011//491 1008//489
f 1012//492 910//402 907//399
f 962//445 910//402 1012//492
f 975//456 909//401 956//440
f 908//400 914//406 909//401
f 956//440 911//403 913//405
f 918//410 920//412 925//417
f 925//417 920//412 976//457
f 923//415 921//413 926//418
f 925//417 976//457 973//454
f 951//436 953//438 916//408
f 957//441 954//403 913//405
f 978//459 991//472 1003//484
f 995//476 1056//479 1057//524
f 964//446 968//449 965//366
f 976//457 974//455 973//454
f 1009//490 1040//511 903//395
f 1005//486 965//366 968//449
f 966//447 971//452 964//446
f 972//453 909//401 969//450
f 919//411 1018//496 920//412
f 1005//486 978//459 1000//481
f 954//403 956//440 913//405
f 974//455 977//458 970//451
f 1003//484 1000//481 978//459
f 1002//483 1040//511 965//366
f 1002//483 1005//486 1000//481
f 1058//420 994//475 1059//525
f 1000//481 1004//485 1001//482
f 1060//526 995//476 1061//527
f 1041//512 1045//516 1006//487
f 902//394 932//424 905//397
f 1007//488 1002//483 1001//482
f 1062//361 1008//528 1063//368
f 1045//516 1041//512 897//389
f 1032//504 890//382 889//381
f 899//391 896//388 898//390
f 1064//427 932//424 931//423
f 900//392 1041//512 1039//510
f 1065//327 903//395 902//394
f 1044//515 890//382 1042//513
f 889//381 891//383 1066//529
f 1037//325 1039//510 1041//512
f 1067//530 891//383 1068//531
f 1027//500 1043//514 1031//503
f 1069//317 981//532 1070//311
f 901//393 1043//514 1026//499
f 1071//533 1033//505 1072//508
f 1073//340 983//464 1074//345
f 1075//534 952//437 1076//535
f 1077//356 1078//379 958//442
f 1079//536 1080//537 921//413
f 939//429 904//396 1045//516
f 1081//538 985//465 919//411
f 982//463 896//388 901//393
f 1082//477 1083//525 994//539
f 1022//498 625//302 1084//305
f 1085//540 1086//541 891//383
f 1087//300 1088//256 1034//506
f 1034//506 1089//305 625//302
f 1090//542 1091//300 1034//543
f 1092//544 1093//545 1034//506
f 1033//505 1094//546 1034//506
f 1033//505 1095//533 1096//547
f 1044//515 1038//509 890//382
f 1029//501 1097//502 1033//505
f 1033//505 1098//502 1099//548
f 889//381 1100//541 1101//502
f 888//380 930//422 891//383
f 903//549 1102//327 1103//329
f 1037//325 1004//485 997//478
f 897//389 895//387 939//429
f 927//419 1104//531 891//383
f 927//550 1105//551 1106//531
f 1107//364 1009//490 1108//329
f 1109//552 927//419 994//475
f 1110//360 962//445 1111//361
f 991//472 978//459 987//467
f 962//445 1008//489 1112//361
f 1018//496 985//465 987//467
f 1113//356 961//444 1114//357
f 990//471 986//466 1115//479
f 947//433 1116//553 983//464
f 986//466 985//465 1117//470
f 961//444 1118//356 958//442
f 1119//554 985//468 1120//538
f 961//444 958//442 908//400
f 1121//457 918//555 1122//414
f 948//434 1123//339 949//336
f 1124//339 952//437 949//336
f 1125//556 1126//414 921//413
f 952//437 1127//521 1014//494
f 951//436 916//408 950//435
f 1128//557 1129//558 1014//559
f 1014//559 1130//558 1131//517
f 1132//403 923//560 1133//517
f 1134//403 1135//536 923//415
f 1136//561 948//434 983//464
f 918//410 1137//562 919//411
f 1138//562 1139//538 919//411
f 1140//474 1141//563 986//473
f 999//480 991//472 990//471
f 932//424 939//429 933//425
f 979//460 982//463 980//461
f 1142//304 1143//311 980//461
f 1144//375 1145//372 894//564
f 931//423 894//386 934//426
f 1146//565 1147//566 1148//567
f 1146//565 1149//568 1147//566
f 1150//569 1151//570 1152//571
f 1150//569 949//336 1153//572
f 1154//573 1155//574 1156//575
f 1154//573 1157//576 1158//577
f 1159//578 1160//579 1161//580
f 1159//578 1149//568 1160//579
f 1162//581 1163//582 1164//583
f 1162//581 1165//584 1166//583
f 1167//585 1168//586 1169//587
f 1167//585 1166//583 1170//588
f 1166//583 1165//584 1171//584
f 1166//583 1163//582 1162//581
f 1172//589 1173//590 1174//591
f 1172//589 1175//588 1176//592
f 1173//590 1177//593 1174//591
f 1173//583 1178//592 1179//594
f 1180//595 1160//579 1181//596
f 1180//595 1182//597 1183//598
f 1182//597 1164//583 1184//599
f 1182//597 1180//595 1162//581
f 1164//583 1185//600 1186//601
f 1164//583 1163//582 1185//600
f 1186//601 1187//602 1184//599
f 1186//601 1174//591 1177//593
f 1187//602 1188//603 1189//604
f 1187//602 1177//593 1190//605
f 1183//598 1191//606 1160//579
f 1183//598 1184//599 1189//604
f 1189//604 1184//599 1187//602
f 1189//604 1191//606 1183//598
f 1192//607 1193//608 1161//580
f 1192//607 1188//603 1194//609
f 1167//585 1163//582 1166//583
f 1169//587 1195//610 1163//582
f 1196//611 1156//575 1155//574
f 1196//611 1197//612 1156//575
f 1196//611 1155//574 1174//591
f 1156//575 1157//576 1154//573
f 1198//613 1161//580 1199//614
f 1198//613 1200//615 1147//566
f 1200//615 1201//616 1202//617
f 1200//615 1203//618 1153//572
f 1202//617 1147//566 1200//615
f 1202//617 1204//619 1205//620
f 1181//596 1165//584 1180//595
f 1181//596 1206//621 1207//622
f 1149//568 1146//565 1206//621
f 1198//613 1159//578 1161//580
f 1208//623 1209//624 1197//612
f 1208//623 1195//610 1168//586
f 1195//610 1169//587 1168//586
f 1195//610 1197//612 1185//600
f 1210//625 1211//626 1212//627
f 1210//625 1213//628 1214//629
f 1213//628 1215//630 1216//631
f 1213//628 1217//632 1218//633
f 1190//605 1177//593 1219//622
f 1190//605 1188//603 1187//602
f 1220//634 1215//630 1194//609
f 1220//634 1221//606 1222//635
f 1223//636 949//336 1224//336
f 1223//636 1153//572 949//336
f 1161//580 1191//606 1192//607
f 1161//580 1160//579 1191//606
f 1153//572 1223//636 1201//616
f 1153//572 1203//618 1151//570
f 1203//618 1199//614 1225//637
f 1149//568 1159//578 1147//566
f 1225//637 1151//570 1203//618
f 1225//637 1218//633 1217//632
f 1194//609 1188//603 1220//634
f 1194//609 1218//633 1193//608
f 1225//637 1217//632 1151//570
f 1218//633 1215//630 1213//628
f 111//12 1157//576 109//11
f 1209//624 1156//575 1197//612
f 1157//576 111//12 1226//624
f 1196//611 1174//591 1185//600
f 1155//574 1227//638 1228//639
f 105//13 1229//640 1230//624
f 105//13 109//11 1229//640
f 1229//640 1168//586 1231//638
f 1229//640 109//11 1209//624
f 1167//585 1169//587 1163//582
f 1195//610 1208//623 1197//612
f 1232//624 111//11 1233//641
f 1168//586 1229//640 1208//623
f 1234//638 1157//642 1235//624
f 1185//600 1197//612 1196//611
f 1185//600 1163//582 1195//610
f 1164//583 1186//601 1184//599
f 1177//599 1236//643 1237//622
f 1174//591 1186//601 1185//600
f 1238//643 1173//583 1239//594
f 1206//621 1146//565 1240//644
f 1149//568 1181//596 1160//579
f 1182//597 1162//581 1164//583
f 1166//583 1241//643 1242//594
f 1183//598 1182//597 1184//599
f 1243//639 1167//585 1244//588
f 1192//607 1189//604 1188//603
f 1162//581 1180//595 1165//584
f 1220//634 1188//603 1190//605
f 1192//607 1194//609 1193//608
f 1189//604 1192//607 1191//606
f 1245//645 1220//646 1246//647
f 1202//617 1201//616 1247//648
f 1198//613 1147//566 1159//578
f 1201//616 1223//636 1248//649
f 1150//569 1153//572 1151//570
f 1201//616 1200//615 1153//572
f 1225//637 1193//608 1218//633
f 1199//614 1161//580 1193//608
f 1165//584 1181//596 1249//622
f 1217//632 1250//650 1251//651
f 1217//632 1252//649 1253//652
f 1225//637 1199//614 1193//608
f 1254//631 1255//567 1202//617
f 1160//579 1180//595 1183//598
f 1157//576 1209//624 109//11
f 1203//618 1198//613 1199//614
f 1256//584 1177//593 1173//590
f 1257//653 1217//632 1258//651
f 1259//567 1215//630 1220//634
f 1260//336 1261//336 1262//649
f 1263//649 1264//336 1265//654
f 1266//571 1267//649 1268//655
f 1269//571 1270//656 1210//625
f 1271//656 1272//626 1210//625
f 1273//652 1210//625 1274//651
f 1217//632 1213//628 1210//625
f 1275//652 1276//649 1210//625
f 1277//629 1213//628 1278//619
f 1215//630 1218//633 1194//609
f 1279//631 1280//619 1213//657
f 1165//599 1281//622 1282//643
f 1177//593 1187//602 1186//601
f 1283//594 1284//592 1166//583
f 1190//605 1285//622 1286//606
f 1149//568 1206//621 1181//596
f 1172//589 1155//574 1287//639
f 1209//624 1208//623 1229//640
f 1154//573 1288//577 1155//574
f 1289//588 1172//589 1290//658
f 105//11 1291//624 1292//659
f 1172//589 1293//592 1173//590
f 1294//624 1229//640 1295//577
f 1157//576 1156//575 1209//624
f 1296//639 1168//586 1167//585
f 1190//605 1297//606 1220//634
f 1298//622 1206//621 1299//606
f 1300//626 1217//632 1301//660
f 1302//647 1146//565 1303//567
f 1304//629 1201//616 1305//649
f 1306//649 1223//636 1307//336
f 1202//617 1308//567 1147//566
f 949//336 1150//569 1309//336
f 1310//336 1150//569 1311//661
f 1312//662 1150//569 1313//663
f 1314//664 1151//570 1315//656
f 1316//656 1151//665 1317//626
f 1203//618 1200//615 1198//613
f 1318//666 1319//619 1202//617
f 1206//667 1320//635 1321//606
f 1322//639 1323//577 1168//586
f 1174//591 1155//574 1172//589
f 1324//592 1325//588 1166//583
f 1217//632 1210//625 1326//649
f 1327//567 1328//631 1215//630
f 1329//629 1330//649 1210//625
f 1210//625 1331//653 1332//651
f 1151//570 1217//632 1333//626
f 1210//625 1334//649 1335//571
