# Blender 4.4.3
# www.blender.org
mtllib Mesh_20.mtl
o Mesh_20
v 0.017290 0.008710 -0.007152
v 0.017290 0.008710 -0.007143
v 0.017290 0.008716 -0.007137
v 0.017290 0.008773 -0.007152
v 0.017290 0.008721 -0.007130
v 0.017290 0.008726 -0.007124
v 0.017290 0.008732 -0.007119
v 0.017290 0.008738 -0.007113
v 0.017290 0.008773 -0.007115
v 0.017290 0.008744 -0.007108
v 0.017290 0.008750 -0.007102
v 0.017290 0.008756 -0.007097
v 0.017290 0.008710 -0.007143
v 0.017375 0.008710 -0.007143
v 0.017375 0.008714 -0.007139
v 0.017290 0.008716 -0.007137
v 0.017290 0.008710 -0.007143
v 0.017375 0.008717 -0.007135
v 0.017290 0.008716 -0.007137
v 0.017290 0.008721 -0.007130
v 0.017290 0.008716 -0.007137
v 0.017290 0.008721 -0.007130
v 0.017375 0.008720 -0.007131
v 0.017375 0.008723 -0.007127
v 0.017290 0.008721 -0.007130
v 0.017290 0.008726 -0.007124
v 0.017290 0.008721 -0.007130
v 0.017375 0.008727 -0.007124
v 0.017375 0.008730 -0.007120
v 0.017290 0.008726 -0.007124
v 0.017290 0.008726 -0.007124
v 0.017290 0.008726 -0.007124
v 0.017290 0.008732 -0.007119
v 0.017290 0.008732 -0.007119
v 0.017375 0.008734 -0.007117
v 0.017290 0.008738 -0.007113
v 0.017290 0.008732 -0.007119
v 0.017375 0.008738 -0.007113
v 0.017290 0.008738 -0.007113
v 0.017375 0.008741 -0.007110
v 0.017290 0.008738 -0.007113
v 0.017290 0.008738 -0.007113
v 0.017290 0.008744 -0.007108
v 0.017290 0.008744 -0.007108
v 0.017375 0.008745 -0.007106
v 0.017290 0.008750 -0.007102
v 0.017293 0.008756 -0.007097
v 0.017290 0.008756 -0.007097
v 0.017290 0.008750 -0.007102
v 0.017290 0.008744 -0.007108
v 0.017290 0.008750 -0.007102
v 0.017297 0.008756 -0.007097
v 0.017375 0.008749 -0.007103
v 0.017290 0.008750 -0.007102
v 0.017300 0.008756 -0.007097
v 0.017290 0.008750 -0.007102
v 0.017304 0.008756 -0.007097
v 0.017290 0.008750 -0.007102
v 0.017307 0.008757 -0.007097
v 0.017375 0.008753 -0.007100
v 0.017310 0.008757 -0.007096
v 0.017317 0.008759 -0.007095
v 0.017313 0.008758 -0.007096
v 0.017340 0.008769 -0.007088
v 0.017338 0.008767 -0.007089
v 0.017375 0.008765 -0.007091
v 0.017375 0.008769 -0.007088
v 0.017335 0.008766 -0.007090
v 0.017332 0.008764 -0.007091
v 0.017375 0.008761 -0.007094
v 0.017329 0.008763 -0.007092
v 0.017326 0.008762 -0.007093
v 0.017375 0.008757 -0.007097
v 0.017323 0.008761 -0.007094
v 0.017320 0.008760 -0.007094
v 0.017290 0.008750 -0.007102
v 0.017290 0.008750 -0.007102
v 0.017375 0.008834 -0.007087
v 0.017352 0.008803 -0.007087
v 0.017375 0.008772 -0.007087
v 0.017345 0.008775 -0.007087
v 0.017343 0.008772 -0.007087
v 0.017347 0.008779 -0.007087
v 0.017349 0.008783 -0.007087
v 0.017350 0.008787 -0.007087
v 0.017351 0.008791 -0.007087
v 0.017352 0.008795 -0.007087
v 0.017352 0.008799 -0.007087
v 0.017352 0.008807 -0.007087
v 0.017352 0.008811 -0.007087
v 0.017351 0.008815 -0.007087
v 0.017350 0.008819 -0.007087
v 0.017349 0.008823 -0.007087
v 0.017345 0.008831 -0.007087
v 0.017343 0.008834 -0.007087
v 0.017347 0.008827 -0.007087
v 0.017290 0.008856 -0.007102
v 0.017293 0.008850 -0.007097
v 0.017297 0.008850 -0.007097
v 0.017300 0.008850 -0.007097
v 0.017303 0.008850 -0.007097
v 0.017307 0.008849 -0.007097
v 0.017375 0.008868 -0.007113
v 0.017375 0.008872 -0.007117
v 0.017290 0.008868 -0.007113
v 0.017375 0.008879 -0.007124
v 0.017290 0.008880 -0.007124
v 0.017375 0.008876 -0.007120
v 0.017375 0.008883 -0.007127
v 0.017290 0.008885 -0.007130
v 0.017290 0.008850 -0.007097
v 0.017290 0.008895 -0.007143
v 0.017375 0.008892 -0.007139
v 0.017375 0.008895 -0.007143
v 0.017290 0.008890 -0.007137
v 0.017375 0.008889 -0.007135
v 0.017375 0.008886 -0.007131
v 0.017290 0.008874 -0.007119
v 0.017375 0.008865 -0.007110
v 0.017290 0.008862 -0.007108
v 0.017375 0.008861 -0.007106
v 0.017310 0.008849 -0.007096
v 0.017375 0.008857 -0.007103
v 0.017313 0.008848 -0.007096
v 0.017375 0.008853 -0.007100
v 0.017317 0.008847 -0.007095
v 0.017320 0.008846 -0.007094
v 0.017375 0.008849 -0.007097
v 0.017326 0.008844 -0.007093
v 0.017329 0.008843 -0.007092
v 0.017375 0.008845 -0.007094
v 0.017375 0.008837 -0.007088
v 0.017375 0.008841 -0.007091
v 0.017340 0.008837 -0.007088
v 0.017338 0.008839 -0.007089
v 0.017335 0.008840 -0.007090
v 0.017332 0.008842 -0.007091
v 0.017323 0.008845 -0.007094
v 0.017290 0.008833 -0.007115
v 0.017290 0.008868 -0.007113
v 0.017290 0.008833 -0.007152
v 0.017290 0.008850 -0.007097
v 0.017290 0.008856 -0.007102
v 0.017290 0.008856 -0.007102
v 0.017290 0.008862 -0.007108
v 0.017290 0.008862 -0.007108
v 0.017290 0.008868 -0.007113
v 0.017290 0.008868 -0.007113
v 0.017290 0.008874 -0.007119
v 0.017290 0.008874 -0.007119
v 0.017290 0.008880 -0.007124
v 0.017290 0.008880 -0.007124
v 0.017290 0.008885 -0.007130
v 0.017290 0.008895 -0.007143
v 0.017290 0.008895 -0.007152
v 0.017290 0.008890 -0.007137
v 0.017290 0.008885 -0.007130
v 0.017290 0.008890 -0.007137
v 0.017290 0.008890 -0.007137
v 0.017375 0.008845 -0.007094
v 0.017375 0.008834 -0.007087
v 0.017375 0.008772 -0.007087
v 0.017375 0.008761 -0.007094
v 0.017375 0.008772 -0.007087
v 0.017375 0.008765 -0.007091
v 0.017375 0.008772 -0.007087
v 0.017375 0.008771 -0.007087
v 0.017375 0.008769 -0.007088
v 0.017375 0.008770 -0.007087
v 0.017375 0.008769 -0.007088
v 0.017375 0.008770 -0.007087
v 0.017375 0.008769 -0.007088
v 0.017375 0.008772 -0.007087
v 0.017375 0.008769 -0.007088
v 0.017375 0.008765 -0.007091
v 0.017375 0.008845 -0.007094
v 0.017375 0.008772 -0.007087
v 0.017375 0.008761 -0.007094
v 0.017375 0.008845 -0.007094
v 0.017375 0.008761 -0.007094
v 0.017375 0.008849 -0.007097
v 0.017375 0.008761 -0.007094
v 0.017375 0.008757 -0.007097
v 0.017375 0.008849 -0.007097
v 0.017375 0.008757 -0.007097
v 0.017375 0.008853 -0.007100
v 0.017375 0.008849 -0.007097
v 0.017375 0.008753 -0.007100
v 0.017375 0.008853 -0.007100
v 0.017375 0.008757 -0.007097
v 0.017375 0.008857 -0.007103
v 0.017375 0.008853 -0.007100
v 0.017375 0.008753 -0.007100
v 0.017375 0.008857 -0.007103
v 0.017375 0.008753 -0.007100
v 0.017375 0.008749 -0.007103
v 0.017375 0.008857 -0.007103
v 0.017375 0.008749 -0.007103
v 0.017375 0.008861 -0.007106
v 0.017375 0.008749 -0.007103
v 0.017375 0.008745 -0.007106
v 0.017375 0.008861 -0.007106
v 0.017375 0.008745 -0.007106
v 0.017375 0.008865 -0.007110
v 0.017375 0.008861 -0.007106
v 0.017375 0.008741 -0.007110
v 0.017375 0.008865 -0.007110
v 0.017375 0.008745 -0.007106
v 0.017375 0.008868 -0.007113
v 0.017375 0.008865 -0.007110
v 0.017375 0.008741 -0.007110
v 0.017375 0.008868 -0.007113
v 0.017375 0.008741 -0.007110
v 0.017375 0.008738 -0.007113
v 0.017375 0.008710 -0.007143
v 0.017375 0.008710 -0.007152
v 0.017375 0.008714 -0.007139
v 0.017375 0.008868 -0.007113
v 0.017375 0.008738 -0.007113
v 0.017375 0.008872 -0.007117
v 0.017375 0.008720 -0.007131
v 0.017375 0.008717 -0.007135
v 0.017375 0.008734 -0.007117
v 0.017375 0.008730 -0.007120
v 0.017375 0.008895 -0.007143
v 0.017375 0.008892 -0.007139
v 0.017375 0.008895 -0.007152
v 0.017375 0.008892 -0.007139
v 0.017375 0.008889 -0.007135
v 0.017375 0.008889 -0.007135
v 0.017375 0.008886 -0.007131
v 0.017375 0.008886 -0.007131
v 0.017375 0.008883 -0.007127
v 0.017375 0.008883 -0.007127
v 0.017375 0.008879 -0.007124
v 0.017375 0.008879 -0.007124
v 0.017375 0.008876 -0.007120
v 0.017375 0.008876 -0.007120
v 0.017375 0.008872 -0.007117
v 0.017375 0.008734 -0.007117
v 0.017375 0.008730 -0.007120
v 0.017375 0.008727 -0.007124
v 0.017375 0.008727 -0.007124
v 0.017375 0.008723 -0.007127
v 0.017375 0.008723 -0.007127
v 0.017375 0.008720 -0.007131
v 0.017375 0.008734 -0.007117
v 0.017375 0.008872 -0.007117
v 0.017375 0.008872 -0.007117
v 0.017375 0.008738 -0.007113
v 0.017375 0.008734 -0.007117
v 0.017375 0.008717 -0.007135
v 0.017375 0.008714 -0.007139
v 0.017375 0.008845 -0.007094
v 0.017375 0.008841 -0.007091
v 0.017375 0.008834 -0.007087
v 0.017375 0.008836 -0.007087
v 0.017375 0.008834 -0.007087
v 0.017375 0.008836 -0.007087
v 0.017375 0.008834 -0.007087
v 0.017375 0.008837 -0.007088
v 0.017375 0.008835 -0.007087
v 0.017375 0.008834 -0.007087
v 0.017375 0.008837 -0.007088
v 0.017375 0.008834 -0.007087
v 0.017375 0.008841 -0.007091
v 0.017375 0.008710 -0.007152
v 0.017375 0.008710 -0.007143
v 0.017290 0.008710 -0.007152
v 0.017375 0.008710 -0.007143
v 0.017290 0.008710 -0.007143
v 0.017290 0.008710 -0.007152
v 0.017290 0.008895 -0.007152
v 0.017290 0.008895 -0.007143
v 0.017375 0.008895 -0.007152
v 0.017290 0.008895 -0.007143
v 0.017375 0.008895 -0.007143
v 0.017375 0.008895 -0.007152
v 0.017290 0.008710 -0.007152
v 0.017306 0.008775 -0.007152
v 0.017308 0.008776 -0.007152
v 0.017375 0.008710 -0.007152
v 0.017325 0.008801 -0.007152
v 0.017325 0.008803 -0.007152
v 0.017292 0.008833 -0.007152
v 0.017290 0.008833 -0.007152
v 0.017290 0.008895 -0.007152
v 0.017290 0.008895 -0.007152
v 0.017293 0.008833 -0.007152
v 0.017290 0.008895 -0.007152
v 0.017295 0.008833 -0.007152
v 0.017290 0.008895 -0.007152
v 0.017296 0.008833 -0.007152
v 0.017290 0.008895 -0.007152
v 0.017298 0.008833 -0.007152
v 0.017290 0.008895 -0.007152
v 0.017300 0.008833 -0.007152
v 0.017290 0.008895 -0.007152
v 0.017301 0.008832 -0.007152
v 0.017290 0.008895 -0.007152
v 0.017303 0.008832 -0.007152
v 0.017290 0.008895 -0.007152
v 0.017304 0.008831 -0.007152
v 0.017290 0.008895 -0.007152
v 0.017306 0.008831 -0.007152
v 0.017290 0.008895 -0.007152
v 0.017308 0.008830 -0.007152
v 0.017290 0.008895 -0.007152
v 0.017309 0.008830 -0.007152
v 0.017290 0.008895 -0.007152
v 0.017375 0.008895 -0.007152
v 0.017375 0.008895 -0.007152
v 0.017310 0.008829 -0.007152
v 0.017375 0.008895 -0.007152
v 0.017312 0.008828 -0.007152
v 0.017375 0.008895 -0.007152
v 0.017313 0.008827 -0.007152
v 0.017375 0.008895 -0.007152
v 0.017314 0.008826 -0.007152
v 0.017375 0.008895 -0.007152
v 0.017316 0.008825 -0.007152
v 0.017375 0.008895 -0.007152
v 0.017317 0.008824 -0.007152
v 0.017375 0.008895 -0.007152
v 0.017318 0.008822 -0.007152
v 0.017375 0.008895 -0.007152
v 0.017319 0.008821 -0.007152
v 0.017375 0.008895 -0.007152
v 0.017320 0.008820 -0.007152
v 0.017375 0.008895 -0.007152
v 0.017321 0.008819 -0.007152
v 0.017323 0.008814 -0.007152
v 0.017322 0.008816 -0.007152
v 0.017375 0.008895 -0.007152
v 0.017375 0.008895 -0.007152
v 0.017321 0.008817 -0.007152
v 0.017323 0.008813 -0.007152
v 0.017375 0.008895 -0.007152
v 0.017324 0.008811 -0.007152
v 0.017375 0.008895 -0.007152
v 0.017324 0.008809 -0.007152
v 0.017375 0.008895 -0.007152
v 0.017325 0.008808 -0.007152
v 0.017375 0.008895 -0.007152
v 0.017325 0.008806 -0.007152
v 0.017375 0.008895 -0.007152
v 0.017325 0.008805 -0.007152
v 0.017375 0.008895 -0.007152
v 0.017375 0.008895 -0.007152
v 0.017375 0.008895 -0.007152
v 0.017375 0.008710 -0.007152
v 0.017375 0.008710 -0.007152
v 0.017325 0.008800 -0.007152
v 0.017375 0.008710 -0.007152
v 0.017325 0.008798 -0.007152
v 0.017375 0.008710 -0.007152
v 0.017324 0.008797 -0.007152
v 0.017375 0.008710 -0.007152
v 0.017324 0.008795 -0.007152
v 0.017375 0.008710 -0.007152
v 0.017323 0.008793 -0.007152
v 0.017322 0.008790 -0.007152
v 0.017375 0.008710 -0.007152
v 0.017321 0.008789 -0.007152
v 0.017323 0.008792 -0.007152
v 0.017375 0.008710 -0.007152
v 0.017375 0.008710 -0.007152
v 0.017321 0.008787 -0.007152
v 0.017375 0.008710 -0.007152
v 0.017320 0.008786 -0.007152
v 0.017375 0.008710 -0.007152
v 0.017319 0.008785 -0.007152
v 0.017375 0.008710 -0.007152
v 0.017318 0.008784 -0.007152
v 0.017375 0.008710 -0.007152
v 0.017317 0.008782 -0.007152
v 0.017375 0.008710 -0.007152
v 0.017316 0.008781 -0.007152
v 0.017375 0.008710 -0.007152
v 0.017314 0.008780 -0.007152
v 0.017375 0.008710 -0.007152
v 0.017313 0.008779 -0.007152
v 0.017375 0.008710 -0.007152
v 0.017312 0.008778 -0.007152
v 0.017375 0.008710 -0.007152
v 0.017310 0.008777 -0.007152
v 0.017375 0.008710 -0.007152
v 0.017309 0.008776 -0.007152
v 0.017375 0.008710 -0.007152
v 0.017290 0.008710 -0.007152
v 0.017290 0.008710 -0.007152
v 0.017304 0.008775 -0.007152
v 0.017290 0.008710 -0.007152
v 0.017303 0.008774 -0.007152
v 0.017290 0.008710 -0.007152
v 0.017301 0.008774 -0.007152
v 0.017290 0.008710 -0.007152
v 0.017290 0.008710 -0.007152
v 0.017300 0.008773 -0.007152
v 0.017290 0.008710 -0.007152
v 0.017298 0.008773 -0.007152
v 0.017290 0.008710 -0.007152
v 0.017296 0.008773 -0.007152
v 0.017290 0.008710 -0.007152
v 0.017295 0.008773 -0.007152
v 0.017290 0.008710 -0.007152
v 0.017293 0.008773 -0.007152
v 0.017375 0.008895 -0.007152
v 0.017290 0.008710 -0.007152
v 0.017292 0.008773 -0.007152
v 0.017375 0.008710 -0.007152
v 0.017290 0.008710 -0.007152
v 0.017290 0.008773 -0.007152
v 0.017292 0.008833 -0.007152
v 0.017293 0.008833 -0.007152
v 0.017292 0.008833 -0.007115
v 0.017293 0.008833 -0.007152
v 0.017295 0.008833 -0.007152
v 0.017293 0.008833 -0.007115
v 0.017295 0.008833 -0.007152
v 0.017295 0.008833 -0.007115
v 0.017296 0.008833 -0.007152
v 0.017296 0.008833 -0.007115
v 0.017298 0.008833 -0.007152
v 0.017298 0.008833 -0.007115
v 0.017300 0.008833 -0.007152
v 0.017300 0.008833 -0.007115
v 0.017301 0.008832 -0.007152
v 0.017300 0.008833 -0.007152
v 0.017303 0.008832 -0.007152
v 0.017301 0.008832 -0.007115
v 0.017301 0.008832 -0.007152
v 0.017303 0.008832 -0.007115
v 0.017303 0.008832 -0.007152
v 0.017304 0.008831 -0.007115
v 0.017304 0.008831 -0.007152
v 0.017304 0.008831 -0.007152
v 0.017306 0.008831 -0.007152
v 0.017306 0.008831 -0.007115
v 0.017306 0.008831 -0.007152
v 0.017308 0.008830 -0.007152
v 0.017308 0.008830 -0.007115
v 0.017308 0.008830 -0.007152
v 0.017309 0.008830 -0.007152
v 0.017309 0.008830 -0.007152
v 0.017309 0.008830 -0.007115
v 0.017310 0.008829 -0.007152
v 0.017310 0.008829 -0.007115
v 0.017310 0.008829 -0.007152
v 0.017312 0.008828 -0.007152
v 0.017312 0.008828 -0.007152
v 0.017313 0.008827 -0.007152
v 0.017312 0.008828 -0.007115
v 0.017313 0.008827 -0.007152
v 0.017313 0.008827 -0.007115
v 0.017314 0.008826 -0.007152
v 0.017314 0.008826 -0.007115
v 0.017316 0.008825 -0.007152
v 0.017314 0.008826 -0.007152
v 0.017317 0.008824 -0.007152
v 0.017316 0.008825 -0.007115
v 0.017316 0.008825 -0.007152
v 0.017317 0.008824 -0.007115
v 0.017317 0.008824 -0.007152
v 0.017318 0.008822 -0.007115
v 0.017318 0.008822 -0.007152
v 0.017318 0.008822 -0.007152
v 0.017319 0.008821 -0.007152
v 0.017319 0.008821 -0.007115
v 0.017319 0.008821 -0.007152
v 0.017320 0.008820 -0.007152
v 0.017320 0.008820 -0.007152
v 0.017320 0.008820 -0.007115
v 0.017321 0.008819 -0.007152
v 0.017321 0.008819 -0.007115
v 0.017321 0.008819 -0.007152
v 0.017321 0.008817 -0.007152
v 0.017321 0.008817 -0.007152
v 0.017322 0.008816 -0.007152
v 0.017321 0.008817 -0.007115
v 0.017322 0.008816 -0.007152
v 0.017322 0.008816 -0.007115
v 0.017323 0.008814 -0.007152
v 0.017323 0.008814 -0.007115
v 0.017323 0.008813 -0.007152
v 0.017323 0.008814 -0.007152
v 0.017324 0.008811 -0.007152
v 0.017323 0.008813 -0.007115
v 0.017323 0.008813 -0.007152
v 0.017324 0.008811 -0.007115
v 0.017324 0.008811 -0.007152
v 0.017324 0.008809 -0.007115
v 0.017324 0.008809 -0.007152
v 0.017324 0.008809 -0.007152
v 0.017325 0.008808 -0.007152
v 0.017325 0.008808 -0.007115
v 0.017325 0.008808 -0.007152
v 0.017325 0.008806 -0.007152
v 0.017325 0.008806 -0.007152
v 0.017325 0.008806 -0.007115
v 0.017325 0.008805 -0.007152
v 0.017325 0.008805 -0.007115
v 0.017325 0.008805 -0.007152
v 0.017325 0.008803 -0.007152
v 0.017325 0.008803 -0.007152
v 0.017325 0.008801 -0.007152
v 0.017325 0.008803 -0.007115
v 0.017325 0.008801 -0.007152
v 0.017325 0.008801 -0.007115
v 0.017325 0.008800 -0.007152
v 0.017325 0.008800 -0.007115
v 0.017325 0.008798 -0.007152
v 0.017325 0.008800 -0.007152
v 0.017324 0.008797 -0.007152
v 0.017325 0.008798 -0.007115
v 0.017325 0.008798 -0.007152
v 0.017324 0.008795 -0.007152
v 0.017324 0.008797 -0.007115
v 0.017324 0.008797 -0.007152
v 0.017324 0.008795 -0.007115
v 0.017324 0.008795 -0.007152
v 0.017323 0.008793 -0.007115
v 0.017323 0.008793 -0.007152
v 0.017323 0.008793 -0.007152
v 0.017323 0.008792 -0.007152
v 0.017323 0.008792 -0.007115
v 0.017323 0.008792 -0.007152
v 0.017322 0.008790 -0.007152
v 0.017322 0.008790 -0.007152
v 0.017322 0.008790 -0.007115
v 0.017321 0.008789 -0.007152
v 0.017321 0.008789 -0.007115
v 0.017321 0.008789 -0.007152
v 0.017321 0.008787 -0.007152
v 0.017321 0.008787 -0.007152
v 0.017320 0.008786 -0.007152
v 0.017321 0.008787 -0.007115
v 0.017320 0.008786 -0.007152
v 0.017320 0.008786 -0.007115
v 0.017319 0.008785 -0.007152
v 0.017319 0.008785 -0.007115
v 0.017318 0.008784 -0.007152
v 0.017319 0.008785 -0.007152
v 0.017317 0.008782 -0.007152
v 0.017318 0.008784 -0.007115
v 0.017318 0.008784 -0.007152
v 0.017317 0.008782 -0.007115
v 0.017317 0.008782 -0.007152
v 0.017316 0.008781 -0.007115
v 0.017316 0.008781 -0.007152
v 0.017316 0.008781 -0.007152
v 0.017314 0.008780 -0.007152
v 0.017314 0.008780 -0.007115
v 0.017314 0.008780 -0.007152
v 0.017313 0.008779 -0.007152
v 0.017313 0.008779 -0.007152
v 0.017313 0.008779 -0.007115
v 0.017292 0.008773 -0.007115
v 0.017293 0.008773 -0.007115
v 0.017292 0.008773 -0.007152
v 0.017290 0.008773 -0.007152
v 0.017290 0.008773 -0.007115
v 0.017290 0.008773 -0.007152
v 0.017292 0.008773 -0.007152
v 0.017293 0.008773 -0.007152
v 0.017292 0.008773 -0.007152
v 0.017295 0.008773 -0.007115
v 0.017293 0.008773 -0.007152
v 0.017295 0.008773 -0.007152
v 0.017293 0.008773 -0.007152
v 0.017295 0.008773 -0.007152
v 0.017296 0.008773 -0.007115
v 0.017295 0.008773 -0.007152
v 0.017296 0.008773 -0.007152
v 0.017298 0.008773 -0.007115
v 0.017296 0.008773 -0.007152
v 0.017298 0.008773 -0.007152
v 0.017296 0.008773 -0.007152
v 0.017300 0.008773 -0.007115
v 0.017298 0.008773 -0.007152
v 0.017300 0.008773 -0.007152
v 0.017298 0.008773 -0.007152
v 0.017300 0.008773 -0.007152
v 0.017301 0.008774 -0.007115
v 0.017300 0.008773 -0.007152
v 0.017301 0.008774 -0.007152
v 0.017303 0.008774 -0.007115
v 0.017301 0.008774 -0.007152
v 0.017303 0.008774 -0.007152
v 0.017301 0.008774 -0.007152
v 0.017304 0.008775 -0.007115
v 0.017303 0.008774 -0.007152
v 0.017304 0.008775 -0.007152
v 0.017303 0.008774 -0.007152
v 0.017304 0.008775 -0.007152
v 0.017306 0.008775 -0.007115
v 0.017304 0.008775 -0.007152
v 0.017306 0.008775 -0.007152
v 0.017308 0.008776 -0.007115
v 0.017306 0.008775 -0.007152
v 0.017308 0.008776 -0.007152
v 0.017306 0.008775 -0.007152
v 0.017309 0.008776 -0.007115
v 0.017308 0.008776 -0.007152
v 0.017309 0.008776 -0.007152
v 0.017308 0.008776 -0.007152
v 0.017309 0.008776 -0.007152
v 0.017310 0.008777 -0.007115
v 0.017309 0.008776 -0.007152
v 0.017310 0.008777 -0.007152
v 0.017312 0.008778 -0.007115
v 0.017310 0.008777 -0.007152
v 0.017312 0.008778 -0.007152
v 0.017310 0.008777 -0.007152
v 0.017312 0.008778 -0.007152
v 0.017313 0.008779 -0.007152
v 0.017312 0.008778 -0.007152
v 0.017314 0.008780 -0.007152
v 0.017317 0.008782 -0.007152
v 0.017316 0.008781 -0.007152
v 0.017318 0.008784 -0.007152
v 0.017319 0.008785 -0.007152
v 0.017320 0.008786 -0.007152
v 0.017321 0.008787 -0.007152
v 0.017322 0.008790 -0.007152
v 0.017321 0.008789 -0.007152
v 0.017323 0.008792 -0.007152
v 0.017324 0.008795 -0.007152
v 0.017323 0.008793 -0.007152
v 0.017324 0.008797 -0.007152
v 0.017325 0.008798 -0.007152
v 0.017325 0.008800 -0.007152
v 0.017325 0.008801 -0.007152
v 0.017325 0.008803 -0.007152
v 0.017325 0.008806 -0.007152
v 0.017325 0.008805 -0.007152
v 0.017325 0.008808 -0.007152
v 0.017324 0.008811 -0.007152
v 0.017324 0.008809 -0.007152
v 0.017323 0.008813 -0.007152
v 0.017323 0.008814 -0.007152
v 0.017322 0.008816 -0.007152
v 0.017321 0.008817 -0.007152
v 0.017320 0.008820 -0.007152
v 0.017321 0.008819 -0.007152
v 0.017319 0.008821 -0.007152
v 0.017317 0.008824 -0.007152
v 0.017318 0.008822 -0.007152
v 0.017316 0.008825 -0.007152
v 0.017314 0.008826 -0.007152
v 0.017313 0.008827 -0.007152
v 0.017312 0.008828 -0.007152
v 0.017309 0.008830 -0.007152
v 0.017310 0.008829 -0.007152
v 0.017308 0.008830 -0.007152
v 0.017306 0.008831 -0.007152
v 0.017303 0.008832 -0.007152
v 0.017304 0.008831 -0.007152
v 0.017298 0.008833 -0.007152
v 0.017300 0.008833 -0.007152
v 0.017295 0.008833 -0.007152
v 0.017296 0.008833 -0.007152
v 0.017290 0.008833 -0.007152
v 0.017292 0.008833 -0.007152
v 0.017290 0.008833 -0.007115
v 0.017290 0.008833 -0.007152
v 0.017301 0.008832 -0.007152
v 0.017296 0.008833 -0.007152
v 0.017298 0.008833 -0.007152
v 0.017293 0.008833 -0.007152
v 0.017293 0.008756 -0.007097
v 0.017295 0.008773 -0.007115
v 0.017293 0.008773 -0.007115
v 0.017293 0.008756 -0.007097
v 0.017293 0.008773 -0.007115
v 0.017290 0.008756 -0.007097
v 0.017297 0.008756 -0.007097
v 0.017296 0.008773 -0.007115
v 0.017295 0.008773 -0.007115
v 0.017298 0.008773 -0.007115
v 0.017296 0.008773 -0.007115
v 0.017300 0.008756 -0.007097
v 0.017300 0.008773 -0.007115
v 0.017300 0.008756 -0.007097
v 0.017304 0.008756 -0.007097
v 0.017301 0.008774 -0.007115
v 0.017304 0.008756 -0.007097
v 0.017307 0.008757 -0.007097
v 0.017303 0.008774 -0.007115
v 0.017307 0.008757 -0.007097
v 0.017310 0.008757 -0.007096
v 0.017304 0.008775 -0.007115
v 0.017310 0.008757 -0.007096
v 0.017306 0.008775 -0.007115
v 0.017310 0.008757 -0.007096
v 0.017313 0.008758 -0.007096
v 0.017306 0.008775 -0.007115
v 0.017313 0.008758 -0.007096
v 0.017317 0.008759 -0.007095
v 0.017308 0.008776 -0.007115
v 0.017317 0.008759 -0.007095
v 0.017309 0.008776 -0.007115
v 0.017308 0.008776 -0.007115
v 0.017320 0.008760 -0.007094
v 0.017310 0.008777 -0.007115
v 0.017309 0.008776 -0.007115
v 0.017323 0.008761 -0.007094
v 0.017312 0.008778 -0.007115
v 0.017310 0.008777 -0.007115
v 0.017326 0.008762 -0.007093
v 0.017312 0.008778 -0.007115
v 0.017323 0.008761 -0.007094
v 0.017314 0.008780 -0.007115
v 0.017313 0.008779 -0.007115
v 0.017326 0.008762 -0.007093
v 0.017314 0.008780 -0.007115
v 0.017326 0.008762 -0.007093
v 0.017329 0.008763 -0.007092
v 0.017314 0.008780 -0.007115
v 0.017329 0.008763 -0.007092
v 0.017316 0.008781 -0.007115
v 0.017329 0.008763 -0.007092
v 0.017332 0.008764 -0.007091
v 0.017316 0.008781 -0.007115
v 0.017317 0.008782 -0.007115
v 0.017335 0.008766 -0.007090
v 0.017318 0.008784 -0.007115
v 0.017332 0.008764 -0.007091
v 0.017317 0.008782 -0.007115
v 0.017316 0.008781 -0.007115
v 0.017335 0.008766 -0.007090
v 0.017338 0.008767 -0.007089
v 0.017318 0.008784 -0.007115
v 0.017338 0.008767 -0.007089
v 0.017340 0.008769 -0.007088
v 0.017319 0.008785 -0.007115
v 0.017340 0.008769 -0.007088
v 0.017341 0.008770 -0.007088
v 0.017320 0.008786 -0.007115
v 0.017342 0.008770 -0.007087
v 0.017320 0.008786 -0.007115
v 0.017320 0.008786 -0.007115
v 0.017343 0.008771 -0.007087
v 0.017343 0.008772 -0.007087
v 0.017321 0.008787 -0.007115
v 0.017343 0.008772 -0.007087
v 0.017345 0.008775 -0.007087
v 0.017321 0.008787 -0.007115
v 0.017345 0.008775 -0.007087
v 0.017321 0.008789 -0.007115
v 0.017321 0.008789 -0.007115
v 0.017347 0.008779 -0.007087
v 0.017322 0.008790 -0.007115
v 0.017347 0.008779 -0.007087
v 0.017349 0.008783 -0.007087
v 0.017323 0.008792 -0.007115
v 0.017349 0.008783 -0.007087
v 0.017350 0.008787 -0.007087
v 0.017323 0.008793 -0.007115
v 0.017350 0.008787 -0.007087
v 0.017324 0.008795 -0.007115
v 0.017323 0.008793 -0.007115
v 0.017351 0.008791 -0.007087
v 0.017324 0.008797 -0.007115
v 0.017324 0.008795 -0.007115
v 0.017352 0.008795 -0.007087
v 0.017325 0.008798 -0.007115
v 0.017351 0.008791 -0.007087
v 0.017325 0.008800 -0.007115
v 0.017325 0.008798 -0.007115
v 0.017352 0.008795 -0.007087
v 0.017325 0.008801 -0.007115
v 0.017325 0.008800 -0.007115
v 0.017352 0.008799 -0.007087
v 0.017325 0.008803 -0.007115
v 0.017325 0.008801 -0.007115
v 0.017352 0.008803 -0.007087
v 0.017325 0.008805 -0.007115
v 0.017325 0.008803 -0.007115
v 0.017352 0.008803 -0.007087
v 0.017325 0.008805 -0.007115
v 0.017352 0.008803 -0.007087
v 0.017352 0.008807 -0.007087
v 0.017325 0.008805 -0.007115
v 0.017352 0.008807 -0.007087
v 0.017325 0.008806 -0.007115
v 0.017325 0.008806 -0.007115
v 0.017352 0.008811 -0.007087
v 0.017325 0.008808 -0.007115
v 0.017352 0.008811 -0.007087
v 0.017351 0.008815 -0.007087
v 0.017325 0.008808 -0.007115
v 0.017351 0.008815 -0.007087
v 0.017324 0.008811 -0.007115
v 0.017324 0.008809 -0.007115
v 0.017350 0.008819 -0.007087
v 0.017323 0.008813 -0.007115
v 0.017324 0.008811 -0.007115
v 0.017349 0.008823 -0.007087
v 0.017323 0.008814 -0.007115
v 0.017323 0.008813 -0.007115
v 0.017347 0.008827 -0.007087
v 0.017322 0.008816 -0.007115
v 0.017323 0.008814 -0.007115
v 0.017321 0.008817 -0.007115
v 0.017322 0.008816 -0.007115
v 0.017347 0.008827 -0.007087
v 0.017321 0.008819 -0.007115
v 0.017321 0.008817 -0.007115
v 0.017345 0.008831 -0.007087
v 0.017320 0.008820 -0.007115
v 0.017321 0.008819 -0.007115
v 0.017343 0.008834 -0.007087
v 0.017342 0.008836 -0.007087
v 0.017320 0.008820 -0.007115
v 0.017343 0.008835 -0.007087
v 0.017335 0.008840 -0.007090
v 0.017318 0.008822 -0.007115
v 0.017338 0.008839 -0.007089
v 0.017319 0.008821 -0.007115
v 0.017340 0.008837 -0.007088
v 0.017338 0.008839 -0.007089
v 0.017317 0.008824 -0.007115
v 0.017318 0.008822 -0.007115
v 0.017335 0.008840 -0.007090
v 0.017316 0.008825 -0.007115
v 0.017317 0.008824 -0.007115
v 0.017332 0.008842 -0.007091
v 0.017314 0.008826 -0.007115
v 0.017316 0.008825 -0.007115
v 0.017329 0.008843 -0.007092
v 0.017313 0.008827 -0.007115
v 0.017314 0.008826 -0.007115
v 0.017326 0.008844 -0.007093
v 0.017341 0.008836 -0.007088
v 0.017340 0.008837 -0.007088
v 0.017320 0.008820 -0.007115
v 0.017290 0.008850 -0.007097
v 0.017290 0.008833 -0.007115
v 0.017292 0.008833 -0.007115
v 0.017290 0.008850 -0.007097
v 0.017292 0.008833 -0.007115
v 0.017293 0.008833 -0.007115
v 0.017290 0.008850 -0.007097
v 0.017293 0.008833 -0.007115
v 0.017293 0.008850 -0.007097
v 0.017293 0.008833 -0.007115
v 0.017295 0.008833 -0.007115
v 0.017293 0.008850 -0.007097
v 0.017295 0.008833 -0.007115
v 0.017297 0.008850 -0.007097
v 0.017293 0.008850 -0.007097
v 0.017296 0.008833 -0.007115
v 0.017297 0.008850 -0.007097
v 0.017295 0.008833 -0.007115
v 0.017300 0.008850 -0.007097
v 0.017297 0.008850 -0.007097
v 0.017296 0.008833 -0.007115
v 0.017300 0.008850 -0.007097
v 0.017296 0.008833 -0.007115
v 0.017298 0.008833 -0.007115
v 0.017300 0.008850 -0.007097
v 0.017298 0.008833 -0.007115
v 0.017300 0.008833 -0.007115
v 0.017300 0.008850 -0.007097
v 0.017300 0.008833 -0.007115
v 0.017303 0.008850 -0.007097
v 0.017300 0.008833 -0.007115
v 0.017301 0.008832 -0.007115
v 0.017303 0.008850 -0.007097
v 0.017301 0.008832 -0.007115
v 0.017307 0.008849 -0.007097
v 0.017303 0.008850 -0.007097
v 0.017303 0.008832 -0.007115
v 0.017307 0.008849 -0.007097
v 0.017301 0.008832 -0.007115
v 0.017310 0.008849 -0.007096
v 0.017307 0.008849 -0.007097
v 0.017303 0.008832 -0.007115
v 0.017310 0.008849 -0.007096
v 0.017303 0.008832 -0.007115
v 0.017304 0.008831 -0.007115
v 0.017310 0.008849 -0.007096
v 0.017304 0.008831 -0.007115
v 0.017306 0.008831 -0.007115
v 0.017310 0.008849 -0.007096
v 0.017306 0.008831 -0.007115
v 0.017313 0.008848 -0.007096
v 0.017306 0.008831 -0.007115
v 0.017308 0.008830 -0.007115
v 0.017313 0.008848 -0.007096
v 0.017308 0.008830 -0.007115
v 0.017317 0.008847 -0.007095
v 0.017313 0.008848 -0.007096
v 0.017309 0.008830 -0.007115
v 0.017317 0.008847 -0.007095
v 0.017308 0.008830 -0.007115
v 0.017320 0.008846 -0.007094
v 0.017317 0.008847 -0.007095
v 0.017309 0.008830 -0.007115
v 0.017320 0.008846 -0.007094
v 0.017309 0.008830 -0.007115
v 0.017310 0.008829 -0.007115
v 0.017320 0.008846 -0.007094
v 0.017310 0.008829 -0.007115
v 0.017323 0.008845 -0.007094
v 0.017310 0.008829 -0.007115
v 0.017312 0.008828 -0.007115
v 0.017323 0.008845 -0.007094
v 0.017312 0.008828 -0.007115
v 0.017326 0.008844 -0.007093
v 0.017323 0.008845 -0.007094
v 0.017313 0.008827 -0.007115
v 0.017326 0.008844 -0.007093
v 0.017312 0.008828 -0.007115
v 0.017314 0.008826 -0.007115
v 0.017329 0.008843 -0.007092
v 0.017326 0.008844 -0.007093
v 0.017316 0.008825 -0.007115
v 0.017332 0.008842 -0.007091
v 0.017329 0.008843 -0.007092
v 0.017317 0.008824 -0.007115
v 0.017335 0.008840 -0.007090
v 0.017332 0.008842 -0.007091
v 0.017318 0.008822 -0.007115
v 0.017319 0.008821 -0.007115
v 0.017338 0.008839 -0.007089
v 0.017319 0.008821 -0.007115
v 0.017320 0.008820 -0.007115
v 0.017340 0.008837 -0.007088
v 0.017320 0.008820 -0.007115
v 0.017343 0.008834 -0.007087
v 0.017320 0.008820 -0.007115
v 0.017345 0.008831 -0.007087
v 0.017343 0.008834 -0.007087
v 0.017321 0.008819 -0.007115
v 0.017347 0.008827 -0.007087
v 0.017345 0.008831 -0.007087
v 0.017321 0.008817 -0.007115
v 0.017323 0.008814 -0.007115
v 0.017349 0.008823 -0.007087
v 0.017347 0.008827 -0.007087
v 0.017323 0.008813 -0.007115
v 0.017350 0.008819 -0.007087
v 0.017349 0.008823 -0.007087
v 0.017324 0.008811 -0.007115
v 0.017351 0.008815 -0.007087
v 0.017350 0.008819 -0.007087
v 0.017324 0.008809 -0.007115
v 0.017325 0.008808 -0.007115
v 0.017351 0.008815 -0.007087
v 0.017352 0.008811 -0.007087
v 0.017325 0.008806 -0.007115
v 0.017352 0.008807 -0.007087
v 0.017325 0.008801 -0.007115
v 0.017352 0.008799 -0.007087
v 0.017352 0.008803 -0.007087
v 0.017325 0.008800 -0.007115
v 0.017352 0.008795 -0.007087
v 0.017352 0.008799 -0.007087
v 0.017325 0.008798 -0.007115
v 0.017324 0.008797 -0.007115
v 0.017351 0.008791 -0.007087
v 0.017351 0.008791 -0.007087
v 0.017324 0.008795 -0.007115
v 0.017350 0.008787 -0.007087
v 0.017349 0.008783 -0.007087
v 0.017323 0.008793 -0.007115
v 0.017323 0.008792 -0.007115
v 0.017347 0.008779 -0.007087
v 0.017323 0.008792 -0.007115
v 0.017322 0.008790 -0.007115
v 0.017345 0.008775 -0.007087
v 0.017347 0.008779 -0.007087
v 0.017321 0.008789 -0.007115
v 0.017320 0.008786 -0.007115
v 0.017343 0.008772 -0.007087
v 0.017321 0.008787 -0.007115
v 0.017320 0.008786 -0.007115
v 0.017340 0.008769 -0.007088
v 0.017320 0.008786 -0.007115
v 0.017319 0.008785 -0.007115
v 0.017338 0.008767 -0.007089
v 0.017319 0.008785 -0.007115
v 0.017318 0.008784 -0.007115
v 0.017332 0.008764 -0.007091
v 0.017335 0.008766 -0.007090
v 0.017317 0.008782 -0.007115
v 0.017326 0.008762 -0.007093
v 0.017313 0.008779 -0.007115
v 0.017312 0.008778 -0.007115
v 0.017320 0.008760 -0.007094
v 0.017323 0.008761 -0.007094
v 0.017310 0.008777 -0.007115
v 0.017317 0.008759 -0.007095
v 0.017320 0.008760 -0.007094
v 0.017309 0.008776 -0.007115
v 0.017310 0.008757 -0.007096
v 0.017304 0.008775 -0.007115
v 0.017303 0.008774 -0.007115
v 0.017300 0.008773 -0.007115
v 0.017304 0.008756 -0.007097
v 0.017301 0.008774 -0.007115
v 0.017298 0.008773 -0.007115
v 0.017300 0.008756 -0.007097
v 0.017300 0.008773 -0.007115
v 0.017296 0.008773 -0.007115
v 0.017297 0.008756 -0.007097
v 0.017300 0.008756 -0.007097
v 0.017293 0.008756 -0.007097
v 0.017297 0.008756 -0.007097
v 0.017295 0.008773 -0.007115
v 0.017292 0.008773 -0.007115
v 0.017290 0.008773 -0.007115
v 0.017290 0.008756 -0.007097
v 0.017307 0.008757 -0.007097
v 0.017303 0.008774 -0.007115
v 0.017301 0.008774 -0.007115
v 0.017308 0.008776 -0.007115
v 0.017306 0.008775 -0.007115
v 0.017313 0.008758 -0.007096
v 0.017293 0.008773 -0.007115
v 0.017292 0.008773 -0.007115
v 0.017290 0.008756 -0.007097
v 0.017375 0.008835 -0.007087
v 0.017375 0.008835 -0.007087
v 0.017375 0.008836 -0.007087
v 0.017375 0.008836 -0.007087
v 0.017343 0.008835 -0.007087
v 0.017343 0.008835 -0.007087
v 0.017375 0.008836 -0.007087
v 0.017375 0.008836 -0.007087
v 0.017341 0.008836 -0.007088
v 0.017341 0.008836 -0.007088
v 0.017342 0.008836 -0.007087
v 0.017342 0.008836 -0.007087
v 0.017343 0.008835 -0.007087
v 0.017375 0.008836 -0.007087
v 0.017342 0.008836 -0.007087
v 0.017375 0.008836 -0.007087
v 0.017342 0.008770 -0.007087
v 0.017341 0.008770 -0.007088
v 0.017341 0.008770 -0.007088
v 0.017342 0.008770 -0.007087
v 0.017375 0.008770 -0.007087
v 0.017375 0.008771 -0.007087
v 0.017375 0.008771 -0.007087
v 0.017375 0.008770 -0.007087
v 0.017375 0.008770 -0.007087
v 0.017343 0.008771 -0.007087
v 0.017375 0.008770 -0.007087
v 0.017375 0.008770 -0.007087
v 0.017343 0.008771 -0.007087
v 0.017375 0.008770 -0.007087
v 0.017343 0.008771 -0.007087
v 0.017342 0.008770 -0.007087
vn -1.0000 0.0001 -0.0000
vn -1.0000 -0.0000 -0.0000
vn -1.0000 -0.0001 -0.0000
vn -0.0000 -0.7940 0.6079
vn -0.0001 -0.7940 0.6079
vn -0.0000 -0.7816 0.6238
vn -0.0000 -0.7739 0.6333
vn -0.0000 -0.7688 0.6395
vn -0.0000 -0.7815 0.6239
vn -0.0000 -0.7530 0.6580
vn -0.0000 -0.7558 0.6548
vn -0.0000 -0.7424 0.6699
vn -0.0000 -0.7557 0.6549
vn 0.0001 -0.7424 0.6700
vn -0.0000 -0.7313 0.6820
vn -0.0000 -0.7287 0.6848
vn -0.0000 -0.7147 0.6994
vn -0.0000 -0.7314 0.6820
vn -0.0000 -0.7423 0.6700
vn -0.0000 -0.7313 0.6821
vn -0.0000 -0.7089 0.7053
vn -0.0000 -0.7147 0.6995
vn -0.0000 -0.7004 0.7138
vn -0.0000 -0.6857 0.7279
vn -0.0000 -0.7004 0.7137
vn -0.0000 -0.6859 0.7277
vn -0.0000 -0.6710 0.7414
vn -0.0000 -0.6618 0.7497
vn -0.0000 -0.6559 0.7548
vn -0.0000 -0.6372 0.7707
vn -0.0000 -0.6124 0.7905
vn -0.0000 -0.6119 0.7910
vn -0.0000 -0.6617 0.7497
vn -0.0000 -0.6371 0.7708
vn -0.0000 -0.6124 0.7906
vn -0.0000 -0.6406 0.7679
vn -0.0000 -0.6371 0.7707
vn -0.0000 -0.6118 0.7910
vn -0.0000 -0.6106 0.7919
vn -0.0000 -0.6107 0.7919
vn -0.0001 -0.6090 0.7932
vn -0.0000 -0.6405 0.7679
vn -0.0001 -0.6249 0.7807
vn -0.0000 -0.6068 0.7948
vn -0.0000 -0.6011 0.7992
vn -0.0000 -0.6041 0.7969
vn -0.0000 -0.5599 0.8286
vn -0.0000 -0.5665 0.8241
vn 0.0002 -0.5764 0.8172
vn 0.0002 -0.5727 0.8198
vn -0.0000 -0.5785 0.8157
vn -0.0002 -0.5928 0.8053
vn -0.0000 -0.5839 0.8118
vn -0.0000 -0.5889 0.8082
vn -0.0000 -0.6091 0.7931
vn -0.0000 -0.5934 0.8049
vn -0.0000 -0.5974 0.8019
vn -0.0000 -0.6090 0.7932
vn -0.0000 -0.0000 1.0000
vn -0.0001 -0.0000 1.0000
vn 0.0001 -0.0000 1.0000
vn -0.0000 0.6371 0.7708
vn -0.0000 0.6124 0.7905
vn -0.0000 0.6124 0.7906
vn -0.0000 0.6118 0.7910
vn -0.0000 0.6107 0.7919
vn -0.0000 0.6090 0.7932
vn -0.0000 0.6859 0.7277
vn 0.0001 0.7004 0.7138
vn -0.0000 0.6857 0.7279
vn -0.0000 0.7286 0.6849
vn -0.0003 0.7313 0.6820
vn -0.0000 0.7147 0.6994
vn 0.0001 0.7424 0.6700
vn 0.0002 0.7530 0.6580
vn -0.0000 0.6119 0.7909
vn -0.0000 0.7940 0.6079
vn 0.0001 0.7816 0.6238
vn -0.0003 0.7739 0.6333
vn -0.0000 0.7687 0.6396
vn -0.0000 0.7558 0.6548
vn 0.0002 0.7089 0.7053
vn 0.0001 0.6711 0.7414
vn -0.0003 0.6617 0.7497
vn -0.0000 0.6559 0.7549
vn -0.0000 0.6068 0.7948
vn -0.0001 0.6405 0.7680
vn -0.0000 0.6042 0.7969
vn -0.0000 0.6249 0.7807
vn -0.0000 0.6011 0.7992
vn -0.0000 0.5974 0.8019
vn -0.0000 0.6091 0.7931
vn -0.0000 0.5888 0.8083
vn -0.0000 0.5839 0.8118
vn -0.0001 0.5928 0.8053
vn -0.0000 0.5599 0.8286
vn 0.0002 0.5764 0.8172
vn -0.0000 0.5598 0.8286
vn -0.0000 0.5665 0.8241
vn -0.0001 0.5726 0.8198
vn -0.0000 0.5785 0.8157
vn -0.0000 0.5933 0.8050
vn 1.0000 -0.0000 -0.0000
vn 1.0000 -0.0000 -0.0001
vn 1.0000 -0.0001 -0.0000
vn -0.0000 -0.0000 -1.0000
vn -0.0000 -1.0000 -0.0000
vn -0.0000 1.0000 -0.0000
vn 0.0002 -0.0000 -1.0000
vn -0.0001 -0.0000 -1.0000
vn -0.0002 -0.0000 -1.0000
vn 0.0001 -0.0000 -1.0000
vn 0.1129 -0.9936 -0.0000
vn 0.0588 -0.9983 -0.0000
vn 0.0587 -0.9983 -0.0000
vn 0.0045 -1.0000 -0.0000
vn -0.0498 -0.9988 -0.0000
vn -0.1039 -0.9946 -0.0000
vn -0.1578 -0.9875 -0.0000
vn -0.1040 -0.9946 -0.0000
vn -0.2112 -0.9774 -0.0000
vn -0.2639 -0.9646 -0.0000
vn -0.2111 -0.9775 -0.0000
vn -0.3159 -0.9488 -0.0000
vn -0.2640 -0.9645 -0.0000
vn -0.3160 -0.9488 -0.0000
vn -0.3670 -0.9302 -0.0000
vn -0.4170 -0.9089 -0.0000
vn -0.4657 -0.8850 -0.0000
vn -0.4656 -0.8850 -0.0000
vn -0.4657 -0.8849 -0.0000
vn -0.5130 -0.8584 -0.0000
vn -0.5588 -0.8293 -0.0000
vn -0.5590 -0.8292 -0.0000
vn -0.6031 -0.7976 -0.0000
vn -0.6031 -0.7977 -0.0000
vn -0.5589 -0.8292 -0.0000
vn -0.6455 -0.7637 -0.0000
vn -0.6455 -0.7638 -0.0000
vn -0.6860 -0.7276 -0.0000
vn -0.7245 -0.6893 -0.0000
vn -0.7609 -0.6489 -0.0000
vn -0.7245 -0.6892 -0.0000
vn -0.7949 -0.6067 -0.0000
vn -0.7950 -0.6066 -0.0000
vn -0.8267 -0.5626 -0.0000
vn -0.8560 -0.5170 -0.0000
vn -0.8561 -0.5169 -0.0000
vn -0.8828 -0.4697 -0.0000
vn -0.8829 -0.4696 -0.0000
vn -0.9070 -0.4211 -0.0000
vn -0.9286 -0.3712 -0.0000
vn -0.9285 -0.3712 -0.0000
vn -0.9071 -0.4210 -0.0000
vn -0.9474 -0.3202 -0.0000
vn -0.9286 -0.3711 -0.0000
vn -0.9633 -0.2684 -0.0000
vn -0.9473 -0.3202 -0.0000
vn -0.9633 -0.2683 -0.0000
vn -0.9765 -0.2156 -0.0000
vn -0.9634 -0.2682 -0.0000
vn -0.9765 -0.2155 -0.0000
vn -0.9765 -0.2155 0.0003
vn -0.9867 -0.1623 -0.0000
vn -0.9868 -0.1622 -0.0000
vn -0.9941 -0.1085 -0.0000
vn -0.9941 -0.1084 -0.0000
vn -0.9985 -0.0543 -0.0000
vn -0.9985 0.0543 -0.0000
vn -0.9941 0.1084 -0.0000
vn -0.9868 0.1622 -0.0000
vn -0.9941 0.1085 -0.0000
vn -0.9765 0.2155 -0.0000
vn -0.9867 0.1623 -0.0000
vn -0.9634 0.2682 -0.0000
vn -0.9765 0.2156 -0.0000
vn -0.9473 0.3202 -0.0001
vn -0.9633 0.2684 -0.0000
vn -0.9473 0.3202 -0.0000
vn -0.9474 0.3202 -0.0000
vn -0.9286 0.3711 -0.0000
vn -0.9285 0.3712 -0.0000
vn -0.9286 0.3712 -0.0000
vn -0.9071 0.4210 -0.0000
vn -0.9070 0.4210 -0.0000
vn -0.8829 0.4696 -0.0000
vn -0.8828 0.4697 -0.0000
vn -0.8561 0.5169 -0.0000
vn -0.8560 0.5169 -0.0000
vn -0.8267 0.5627 -0.0000
vn -0.8560 0.5170 -0.0000
vn -0.8267 0.5626 -0.0000
vn -0.8267 0.5626 -0.0001
vn -0.7950 0.6066 -0.0000
vn -0.7609 0.6489 -0.0000
vn -0.7949 0.6067 -0.0000
vn -0.7245 0.6893 -0.0000
vn -0.7245 0.6892 -0.0000
vn -0.6860 0.7276 -0.0000
vn -0.6455 0.7638 -0.0000
vn -0.6031 0.7977 -0.0000
vn 0.1129 0.9936 -0.0000
vn 0.0588 0.9983 -0.0000
vn 0.1666 0.9860 -0.0000
vn 0.0045 1.0000 -0.0000
vn 0.0587 0.9983 -0.0000
vn -0.0498 0.9988 -0.0000
vn -0.1039 0.9946 -0.0000
vn -0.1578 0.9875 -0.0000
vn -0.1040 0.9946 -0.0000
vn -0.2112 0.9774 -0.0000
vn -0.2112 0.9774 0.0003
vn -0.2111 0.9775 -0.0000
vn -0.2639 0.9646 -0.0000
vn -0.3159 0.9488 -0.0000
vn -0.2640 0.9645 -0.0000
vn -0.3160 0.9488 -0.0000
vn -0.3670 0.9302 -0.0000
vn -0.3669 0.9303 -0.0000
vn -0.4170 0.9089 -0.0000
vn -0.4169 0.9089 -0.0000
vn -0.4657 0.8850 -0.0000
vn -0.4656 0.8850 -0.0000
vn -0.4658 0.8849 -0.0000
vn -0.5130 0.8584 -0.0000
vn -0.5131 0.8583 -0.0000
vn -0.5588 0.8293 -0.0000
vn -0.6031 0.7976 -0.0000
vn -0.5590 0.8292 -0.0000
vn -0.6031 0.7977 0.0001
vn -0.9070 0.4211 -0.0000
vn -0.8267 -0.5627 -0.0000
vn -0.5131 -0.8583 -0.0000
vn -0.4169 -0.9089 -0.0000
vn -0.3669 -0.9303 -0.0000
vn 0.1666 -0.9860 -0.0000
vn 0.0238 0.7067 0.7071
vn 0.0032 0.7071 0.7071
vn 0.0415 0.7059 0.7071
vn 0.0239 0.7067 0.7071
vn 0.0416 0.7059 0.7071
vn 0.0748 0.7031 0.7071
vn -0.0269 0.7066 0.7071
vn -0.0352 0.7062 0.7071
vn -0.0735 0.7033 0.7071
vn -0.0773 0.7029 0.7071
vn -0.1116 0.6982 0.7071
vn -0.0773 0.7027 0.7073
vn -0.1269 0.6956 0.7071
vn -0.1493 0.6912 0.7071
vn -0.1270 0.6956 0.7071
vn -0.1752 0.6851 0.7071
vn -0.1866 0.6820 0.7071
vn -0.2220 0.6714 0.7071
vn -0.2233 0.6709 0.7071
vn -0.2594 0.6578 0.7071
vn -0.2669 0.6548 0.7071
vn -0.2595 0.6578 0.7071
vn -0.3098 0.6356 0.7071
vn -0.2948 0.6427 0.7071
vn -0.3292 0.6258 0.7071
vn -0.3504 0.6142 0.7071
vn -0.3628 0.6070 0.7071
vn -0.3293 0.6258 0.7071
vn -0.3886 0.5908 0.7071
vn -0.3952 0.5864 0.7071
vn -0.4244 0.5656 0.7071
vn -0.4564 0.5401 0.7071
vn -0.4264 0.5640 0.7071
vn -0.4243 0.5656 0.7071
vn -0.4576 0.5391 0.7071
vn -0.4851 0.5145 0.7071
vn -0.4883 0.5114 0.7071
vn -0.5123 0.4874 0.7071
vn -0.5165 0.4829 0.7071
vn -0.5380 0.4588 0.7071
vn -0.5424 0.4537 0.7071
vn -0.5380 0.4589 0.7071
vn -0.5658 0.4241 0.7071
vn -0.5621 0.4290 0.7071
vn -0.5729 0.4145 0.7071
vn -0.5846 0.3978 0.7071
vn -0.5729 0.4144 0.7071
vn -0.5799 0.4046 0.7071
vn -0.5871 0.3942 0.7071
vn -0.5942 0.3833 0.7071
vn -0.6053 0.3655 0.7071
vn -0.6201 0.3399 0.7071
vn -0.6201 0.3398 0.7071
vn -0.6244 0.3321 0.7070
vn -0.6243 0.3321 0.7071
vn -0.6428 0.2947 0.7071
vn -0.6414 0.2977 0.7071
vn -0.6428 0.2946 0.7071
vn -0.6622 0.2479 0.7071
vn -0.6566 0.2624 0.7071
vn -0.6623 0.2478 0.7071
vn -0.6783 0.1998 0.7071
vn -0.6699 0.2264 0.7071
vn -0.6783 0.1999 0.7071
vn -0.6812 0.1897 0.7071
vn -0.6908 0.1508 0.7071
vn -0.6905 0.1525 0.7071
vn -0.6812 0.1896 0.7071
vn -0.6999 0.1010 0.7071
vn -0.6977 0.1148 0.7071
vn -0.6909 0.1507 0.7071
vn -0.7029 0.0767 0.7071
vn -0.6977 0.1147 0.7071
vn -0.6999 0.1009 0.7071
vn -0.7061 0.0384 0.7071
vn -0.7029 0.0766 0.7071
vn -0.7053 0.0506 0.7071
vn -0.7071 -0.0000 0.7071
vn -0.7061 -0.0384 0.7071
vn -0.7053 -0.0506 0.7071
vn -0.7030 -0.0766 0.7071
vn -0.7029 -0.0766 0.7071
vn -0.6999 -0.1009 0.7071
vn -0.6978 -0.1147 0.7071
vn -0.6999 -0.1010 0.7071
vn -0.6909 -0.1507 0.7071
vn -0.6977 -0.1148 0.7071
vn -0.6908 -0.1508 0.7071
vn -0.6812 -0.1897 0.7071
vn -0.6905 -0.1524 0.7071
vn -0.6783 -0.1998 0.7071
vn -0.6699 -0.2264 0.7071
vn -0.6623 -0.2478 0.7071
vn -0.6566 -0.2624 0.7071
vn -0.6699 -0.2263 0.7071
vn -0.6428 -0.2946 0.7071
vn -0.6416 -0.2977 0.7069
vn -0.6243 -0.3321 0.7071
vn -0.6414 -0.2977 0.7071
vn -0.6054 -0.3655 0.7070
vn -0.6201 -0.3398 0.7071
vn -0.5846 -0.3979 0.7071
vn -0.6053 -0.3655 0.7071
vn -0.5942 -0.3834 0.7071
vn -0.5799 -0.4046 0.7071
vn -0.5846 -0.3978 0.7071
vn -0.5870 -0.3942 0.7071
vn -0.5166 -0.4828 0.7071
vn -0.5380 -0.4588 0.7071
vn -0.5424 -0.4537 0.7071
vn -0.5621 -0.4290 0.7071
vn -0.5658 -0.4241 0.7071
vn -0.5123 -0.4874 0.7071
vn -0.4851 -0.5145 0.7071
vn -0.4883 -0.5114 0.7071
vn -0.4564 -0.5401 0.7071
vn -0.4576 -0.5391 0.7071
vn -0.4265 -0.5640 0.7071
vn -0.4242 -0.5657 0.7071
vn -0.5729 -0.4145 0.7071
vn 0.0749 -0.7031 0.7071
vn 0.1179 -0.6972 0.7071
vn 0.0798 -0.7026 0.7071
vn 0.0748 -0.7031 0.7071
vn 0.0799 -0.7027 0.7070
vn 0.0415 -0.7059 0.7071
vn 0.0416 -0.7059 0.7071
vn 0.0242 -0.7069 0.7069
vn 0.0032 -0.7071 0.7071
vn 0.0242 -0.7067 0.7071
vn -0.0265 -0.7066 0.7071
vn -0.0352 -0.7062 0.7071
vn -0.0768 -0.7029 0.7071
vn -0.0735 -0.7033 0.7071
vn -0.1116 -0.6982 0.7071
vn -0.1263 -0.6957 0.7071
vn -0.1493 -0.6912 0.7071
vn -0.1494 -0.6912 0.7071
vn -0.1746 -0.6852 0.7071
vn -0.1866 -0.6820 0.7071
vn -0.2214 -0.6716 0.7071
vn -0.1867 -0.6820 0.7071
vn -0.2214 -0.6715 0.7071
vn -0.2234 -0.6709 0.7071
vn -0.2595 -0.6578 0.7071
vn -0.2664 -0.6550 0.7071
vn -0.2948 -0.6427 0.7071
vn -0.2665 -0.6550 0.7071
vn -0.3094 -0.6358 0.7071
vn -0.3293 -0.6258 0.7071
vn -0.3501 -0.6143 0.7071
vn -0.3293 -0.6257 0.7071
vn -0.3501 -0.6144 0.7071
vn -0.3628 -0.6070 0.7071
vn -0.3884 -0.5909 0.7071
vn -0.3952 -0.5864 0.7071
vn -0.4243 -0.5657 0.7071
vn -0.4264 -0.5641 0.7071
vn -0.5166 -0.4829 0.7071
vn -0.5381 -0.4590 0.7069
vn -0.5622 -0.4290 0.7070
vn -0.5942 -0.3833 0.7071
vn -0.5871 -0.3942 0.7071
vn -0.6201 -0.3399 0.7071
vn -0.6622 -0.2479 0.7071
vn -0.7030 0.0766 0.7071
vn -0.6905 0.1524 0.7071
vn -0.6568 0.2625 0.7069
vn -0.5942 0.3834 0.7071
vn -0.5870 0.3942 0.7071
vn -0.5846 0.3979 0.7071
vn -0.5847 0.3979 0.7070
vn -0.5622 0.4291 0.7070
vn -0.4265 0.5640 0.7071
vn -0.2234 0.6709 0.7071
vn -0.1867 0.6820 0.7071
vn -0.0269 0.7067 0.7070
vn -0.0270 0.7066 0.7071
vn 0.0798 0.7026 0.7071
vn 0.1178 0.6972 0.7071
vn 0.0749 0.7031 0.7071
vn -0.1751 0.6851 0.7071
vn 0.0415 0.7060 0.7070
vn -0.0000 0.1480 0.9890
vn -0.0000 0.2928 0.9562
vn -0.0000 0.2927 0.9562
vn -0.0000 0.1690 0.9856
vn -0.0000 0.4310 0.9024
vn -0.0000 0.4459 0.8951
vn -0.0001 0.4459 0.8951
vn -0.0000 0.3165 0.9486
vn -0.0000 0.3164 0.9486
vn -0.0000 0.4311 0.9023
vn -0.0000 0.5599 0.8285
vn -0.0000 -0.3164 0.9486
vn -0.0000 -0.4459 0.8951
vn -0.0000 -0.4311 0.9023
vn -0.0000 -0.1480 0.9890
vn -0.0000 -0.2928 0.9562
vn -0.0000 -0.2926 0.9562
vn -0.0000 -0.1688 0.9857
vn -0.0000 -0.1689 0.9856
vn -0.0000 -0.4310 0.9024
vn -0.0000 -0.3163 0.9487
s 1
usemtl Diffuse_51_51_51_100.029
f 1//1 2//2 3//2
f 1//1 3//2 4//2
f 3//2 5//3 4//2
f 5//3 6//2 4//2
f 4//2 7//2 8//2
f 4//2 8//2 9//2
f 8//2 10//2 9//2
f 9//2 10//2 11//2
f 7//2 4//2 6//2
f 9//2 11//2 12//1
f 13//4 14//5 15//6
f 16//7 17//4 15//6
f 18//8 19//7 15//9
f 18//8 20//10 21//7
f 22//10 18//8 23//11
f 24//12 25//10 23//13
f 24//14 26//15 27//10
f 28//16 29//17 30//18
f 24//19 28//16 31//20
f 32//15 29//17 33//21
f 34//21 29//22 35//23
f 36//24 37//21 35//25
f 38//26 39//24 35//25
f 38//26 40//27 41//24
f 42//24 40//27 43//28
f 44//28 40//27 45//29
f 46//30 47//31 48//32
f 49//30 50//33 45//29
f 47//31 51//34 52//35
f 53//36 54//37 45//29
f 55//38 56//30 57//39
f 57//40 58//34 59//41
f 53//42 60//43 61//44
f 60//43 62//45 63//46
f 64//47 65//48 66//49
f 66//49 67//47 64//47
f 68//50 66//49 65//48
f 68//50 69//51 66//49
f 66//49 69//51 70//52
f 70//52 69//51 71//53
f 72//54 70//52 71//53
f 72//54 73//55 70//52
f 72//54 74//56 73//55
f 73//55 74//56 75//57
f 62//45 73//55 75//57
f 62//45 60//43 73//55
f 63//46 61//44 60//43
f 61//44 59//58 53//42
f 53//42 59//58 76//30
f 77//30 55//38 52//35
f 78//59 79//59 80//59
f 81//59 82//59 80//59
f 83//59 81//59 80//59
f 84//59 83//59 80//59
f 85//59 84//59 80//59
f 86//59 85//59 80//59
f 87//60 86//59 80//59
f 88//61 87//60 80//59
f 79//59 88//61 80//59
f 89//59 79//59 78//59
f 78//59 90//61 89//59
f 78//59 91//59 90//61
f 78//59 92//59 91//59
f 78//59 93//59 92//59
f 94//59 78//59 95//59
f 94//59 96//59 78//59
f 78//59 96//59 93//59
f 97//62 98//63 99//64
f 100//65 97//62 99//64
f 100//65 101//66 97//62
f 97//62 101//66 102//67
f 103//68 104//69 105//70
f 106//71 107//72 108//73
f 109//74 110//75 107//72
f 111//76 98//63 97//62
f 112//77 113//78 114//77
f 112//77 115//79 113//78
f 113//78 115//79 116//80
f 116//80 115//79 110//75
f 117//81 116//80 110//75
f 109//74 117//81 110//75
f 107//72 118//82 108//73
f 108//73 118//82 104//69
f 104//69 118//82 105//70
f 119//83 105//70 120//84
f 120//84 97//62 121//85
f 102//67 122//86 123//87
f 122//86 124//88 125//89
f 126//90 127//91 128//92
f 129//93 130//94 131//95
f 132//96 133//97 134//98
f 134//98 133//97 135//99
f 135//99 133//97 136//100
f 136//100 133//97 137//101
f 137//101 133//97 131//95
f 130//94 137//101 131//95
f 129//93 131//95 128//92
f 138//102 129//93 128//92
f 126//90 125//89 124//88
f 126//90 128//92 125//89
f 125//89 123//87 122//86
f 123//87 97//62 102//67
f 123//87 121//85 97//62
f 121//85 119//83 120//84
f 105//70 119//83 103//68
f 109//74 107//72 106//71
f 138//102 128//92 127//91
f 139//2 140//2 141//2
f 139//3 142//3 143//3
f 139//2 144//2 145//2
f 139//2 146//2 147//2
f 141//1 148//1 149//1
f 141//2 150//2 151//2
f 141//2 152//2 153//2
f 154//2 155//2 156//2
f 141//1 157//1 158//1
f 155//2 141//2 159//2
f 160//103 161//103 162//103
f 163//103 164//103 165//103
s 0
f 166//103 167//103 168//103
f 167//103 169//103 170//103
f 169//59 171//103 172//104
s 1
f 173//103 174//103 175//103
f 176//103 177//103 178//103
f 179//103 180//103 181//103
f 182//103 183//103 184//103
f 185//103 186//103 187//103
f 188//103 189//103 190//103
f 191//103 192//103 193//103
f 194//103 195//103 196//103
f 197//103 198//103 199//103
f 200//103 201//103 202//103
f 203//103 204//103 205//103
f 206//103 207//103 208//103
f 209//103 210//103 211//103
f 212//103 213//103 214//103
f 215//103 216//103 217//103
f 218//103 219//103 220//103
f 216//103 221//103 222//103
f 223//103 224//103 216//103
f 225//103 226//103 227//103
f 228//103 229//103 227//103
f 230//103 231//103 227//103
f 232//103 233//103 227//103
f 234//105 235//103 227//105
f 236//103 237//103 227//103
f 238//103 239//103 227//103
f 227//103 240//103 216//103
f 241//103 242//103 216//103
f 243//103 244//103 216//103
f 245//103 246//103 216//103
f 247//103 227//103 248//103
f 249//103 250//103 251//103
f 252//103 253//103 216//103
f 254//103 255//103 256//103
s 0
f 257//103 258//103 259//106
s 1
f 260//103 261//103 259//103
s 0
f 262//103 263//103 257//103
s 1
f 264//103 265//103 266//103
f 267//107 268//107 269//107
f 270//107 271//107 272//107
f 273//108 274//108 275//108
f 276//108 277//108 278//108
f 279//109 280//109 281//109
f 282//110 283//110 284//110
f 285//106 286//106 287//106
f 288//106 289//106 285//106
f 290//106 291//106 289//106
f 292//106 293//106 291//106
f 294//106 295//106 293//106
f 296//106 297//106 295//106
f 298//111 299//111 297//111
f 300//106 301//106 299//106
f 302//111 303//111 301//111
f 304//106 305//106 303//106
f 306//112 307//112 305//112
f 308//106 309//106 307//106
f 310//106 311//106 309//106
f 309//106 312//106 313//106
f 313//106 314//106 315//106
f 315//106 316//106 317//106
f 317//106 318//106 319//106
f 319//106 320//106 321//106
f 321//106 322//106 323//106
f 323//106 324//106 325//106
f 325//112 326//112 327//112
f 327//106 328//106 329//106
f 329//106 330//106 331//106
f 332//106 333//106 334//106
f 335//106 333//106 336//106
f 337//106 332//106 338//106
f 339//106 337//106 340//106
f 341//106 339//106 342//106
f 343//112 341//112 344//112
f 345//106 343//106 346//106
f 347//106 345//106 348//106
f 284//106 347//106 349//106
f 350//106 351//106 284//106
f 352//106 353//106 283//106
f 354//110 355//110 353//110
f 356//106 357//106 355//106
f 358//109 359//109 357//109
f 360//106 361//106 359//106
f 362//106 363//106 364//106
f 362//106 365//106 366//106
f 364//106 367//106 368//106
f 368//106 369//106 370//106
f 370//106 371//106 372//106
f 372//106 373//106 374//106
f 374//106 375//106 376//106
f 376//106 377//106 378//106
f 378//106 379//106 380//106
f 380//106 381//106 382//106
f 382//106 383//106 384//106
f 384//106 385//106 386//106
f 386//106 387//106 388//106
f 388//106 389//106 390//106
f 391//106 281//106 388//106
f 392//106 280//106 393//106
f 394//106 392//106 395//106
f 396//106 394//106 397//106
f 398//109 399//109 396//109
f 400//106 401//106 399//106
f 402//106 403//106 401//106
f 404//106 405//106 403//106
f 406//106 407//106 405//106
f 331//106 408//106 336//106
f 409//106 410//106 407//106
f 411//106 365//106 361//106
f 410//106 412//106 413//106
f 414//113 415//114 416//113
f 417//115 418//116 419//115
f 420//116 421//116 419//115
f 422//117 423//117 421//116
f 424//118 425//118 423//117
f 426//119 427//119 425//120
f 428//121 427//119 429//119
f 430//122 431//123 432//123
f 433//122 431//123 434//122
f 435//124 433//125 436//124
f 435//126 437//126 438//127
f 439//127 440//127 441//128
f 442//128 443//128 444//129
f 442//128 445//130 446//130
f 446//131 447//132 448//132
f 449//132 450//133 448//132
f 451//134 452//135 453//134
f 454//136 455//136 453//137
f 456//138 457//139 455//135
f 458//140 457//139 459//139
f 460//141 461//140 462//140
f 463//141 461//140 464//141
f 465//142 463//143 466//142
f 465//142 467//142 468//144
f 469//145 470//145 471//146
f 469//145 472//146 473//146
f 473//146 474//147 475//147
f 476//148 477//149 475//148
f 478//150 479//151 480//150
f 481//151 482//151 480//150
f 483//152 484//153 482//154
f 485//155 484//156 486//156
f 487//157 488//158 489//158
f 490//159 488//158 491//157
f 492//160 490//161 493//160
f 492//162 494//163 495//164
f 496//165 497//165 498//166
f 496//165 499//166 500//166
f 500//167 501//168 502//168
f 503//168 504//2 502//168
f 505//2 506//169 507//2
f 508//169 509//169 507//2
f 510//170 511//170 509//169
f 512//171 511//172 513//172
f 514//173 515//174 516//174
f 517//175 518//176 519//176
f 520//175 518//176 521//175
f 522//177 520//178 523//179
f 522//180 524//180 525//181
f 526//182 527//183 528//184
f 526//182 529//184 530//184
f 530//185 531//186 532//186
f 533//187 534//188 532//187
f 535//189 536//190 537//191
f 538//192 539//193 537//191
f 540//194 541//194 539//192
f 542//195 541//196 543//196
f 544//197 545//195 546//195
f 547//197 545//195 548//198
f 549//199 547//197 550//199
f 549//199 551//199 552//200
f 553//200 554//200 555//201
f 553//200 556//201 557//201
f 558//202 559//203 560//202
f 561//204 562//204 558//202
f 563//204 558//202 564//202
f 559//203 565//203 566//202
f 567//205 568//206 559//206
f 569//205 570//206 567//205
f 571//205 567//205 572//207
f 573//205 572//207 574//207
f 572//207 575//208 576//207
f 575//208 577//208 578//207
f 579//209 580//210 575//210
f 581//209 582//210 579//209
f 583//209 579//209 584//211
f 585//209 584//211 586//212
f 584//213 587//214 588//213
f 587//214 589//214 590//213
f 591//215 592//216 587//216
f 593//215 594//216 591//215
f 595//217 591//217 596//218
f 597//217 596//219 598//219
f 596//218 599//220 600//218
f 599//221 601//221 602//218
f 603//222 604//220 599//220
f 605//223 606//220 603//223
f 607//224 603//224 608//225
f 609//224 608//225 610//225
f 608//226 611//227 612//226
f 611//227 613//227 614//225
f 557//228 615//229 611//229
f 616//230 617//229 557//228
f 549//199 618//200 553//200
f 547//197 619//197 620//199
f 545//195 541//196 621//195
f 622//194 539//192 623//192
f 624//188 537//188 532//187
f 625//231 626//186 530//231
f 522//180 627//181 526//181
f 520//178 628//178 629//179
f 518//173 515//174 630//173
f 515//171 511//172 631//171
f 632//170 509//169 633//169
f 634//2 507//2 502//168
f 635//167 636//168 500//167
f 492//162 637//164 496//164
f 490//161 638//161 639//160
f 488//155 484//156 640//155
f 641//153 482//154 642//154
f 643//149 480//149 475//148
f 644//232 645//147 473//232
f 465//142 646//144 469//144
f 463//143 647//141 648//142
f 461//140 457//139 649//140
f 650//139 455//136 651//135
f 652//133 453//133 448//233
f 653//131 654//132 446//131
f 439//127 655//234 442//234
f 435//126 656//235 439//235
f 433//125 657//125 658//124
f 659//120 660//119 425//120
f 421//116 661//116 662//117
f 416//113 663//236 664//113
f 416//113 665//236 666//236
f 667//121 431//121 427//119
f 423//117 668//117 669//118
f 419//114 416//113 670//114
f 671//237 672//238 673//239
f 674//240 675//241 676//242
f 677//243 678//244 679//238
f 680//245 681//244 682//246
f 683//247 684//248 685//249
f 686//250 687//251 688//252
f 689//253 690//252 691//254
f 692//255 693//254 694//256
f 695//254 696//257 697//258
f 698//257 699//259 700//260
f 701//259 702//261 703//260
f 704//262 705//263 706//264
f 707//265 708//266 709//263
f 710//267 711//266 712//265
f 713//268 714//269 715//270
f 716//268 717//267 718//271
f 719//268 720//271 721//272
f 722//271 723//273 724//272
f 725//274 726//275 727//276
f 728//273 729//274 730//272
f 731//275 732//277 733//278
f 734//277 735//279 736//280
f 737//279 738//281 739//282
f 738//283 740//284 741//282
f 742//282 743//285 744//286
f 745//287 746//286 747//288
f 748//287 749//289 750//290
f 751//291 752//292 753//293
f 754//294 755//295 756//296
f 757//297 758//298 759//299
f 760//300 761//301 762//299
f 763//302 764//303 765//304
f 766//305 767//306 768//307
f 769//308 770//309 771//310
f 772//311 773//312 774//313
f 775//314 776//311 777//314
f 778//315 779//314 780//314
f 781//315 782//314 783//316
f 784//315 785//316 786//317
f 787//318 788//319 789//320
f 790//321 791//322 792//323
f 793//324 794//325 795//326
f 796//327 797//328 798//325
f 799//329 800//330 801//331
f 802//332 803//333 804//330
f 805//334 806//335 807//332
f 808//336 809//334 810//337
f 811//338 812//339 813//340
f 814//341 815//342 816//343
f 817//344 818//345 819//346
f 820//347 821//348 822//346
f 823//349 824//345 825//344
f 826//350 827//349 828//351
f 829//352 830//350 831//353
f 832//354 833//352 834//355
f 835//356 836//348 837//342
f 838//357 839//358 840//359
f 841//360 842//361 843//362
f 844//360 845//363 846//364
f 847//362 848//365 849//366
f 850//365 851//367 852//366
f 853//368 854//367 855//365
f 856//369 857//367 858//368
f 859//369 860//368 861//370
f 862//369 863//370 864//371
f 865//369 866//371 867//372
f 868//371 869//373 870//372
f 871//374 872//375 873//372
f 874//376 875//375 876//373
f 877//377 878//375 879//378
f 880//379 881//376 882//380
f 883//379 884//380 885//381
f 886//379 887//381 888//382
f 889//381 890//383 891//384
f 892//383 893//385 894//384
f 895//386 896//385 897//383
f 898//387 899//385 900//388
f 901//389 902//386 903//390
f 904//387 905//390 906//391
f 907//390 908//392 909//391
f 910//392 911//393 912//391
f 913//394 914//355 915//392
f 916//352 917//353 918//355
f 919//350 920//351 921//353
f 922//349 923//395 924//351
f 925//396 926//347 927//346
f 928//397 929//342 930//348
f 931//342 814//341 835//356
f 932//398 816//399 933//342
f 934//400 935//398 936//339
f 937//332 938//337 939//334
f 940//330 941//401 942//332
f 943//328 944//327 945//329
f 946//325 947//324 948//327
f 949//326 950//323 951//324
f 952//319 953//317 954//316
f 955//311 956//313 957//314
f 958//402 959//310 960//313
f 961//306 962//403 963//302
f 964//302 965//301 966//298
f 967//297 968//299 969//296
f 970//294 971//404 972//293
f 973//289 974//294 975//291
f 976//282 977//405 978//287
f 740//284 743//406 979//407
f 980//279 981//408 982//280
f 983//277 984//409 985//278
f 986//273 987//275 988//274
f 989//270 990//410 991//266
f 992//262 993//265 994//263
f 995//259 996//262 997//264
f 998//254 999//411 1000//412
f 1001//247 1002//249 1003//250
f 1004//245 1005//246 1006//247
f 1007//244 1008//413 1009//246
f 1010//240 1011//414 1012//238
f 1013//415 1014//416 1015//417
f 1016//418 1017//253 1018//250
f 1019//260 1020//258 1021//257
f 1022//419 1023//415 1024//242
f 95//59 78//59 1025//420
f 1026//420 1027//421 95//59
f 95//59 1028//422 1029//423
s 0
f 1030//423 1031//59 1032//424
s 1
f 1033//425 132//96 134//98
f 1034//426 1035//427 132//96
f 1036//428 1037//423 1038//424
f 1039//427 1040//429 132//430
f 67//47 1041//431 1042//432
f 64//47 67//47 1043//432
f 1044//431 67//47 1045//433
f 80//59 82//59 1046//434
f 1047//434 82//59 1048//435
f 1049//436 82//59 1050//437
s 0
f 1051//59 1052//435 1053//438
s 1
f 1054//439 1055//438 1056//440
