# Blender 4.4.3
# www.blender.org
mtllib Mesh_20.019.mtl
o Mesh_20.019
v -0.000150 0.008710 -0.002352
v -0.000150 0.008710 -0.002343
v -0.000150 0.008716 -0.002337
v -0.000150 0.008773 -0.002352
v -0.000150 0.008721 -0.002330
v -0.000150 0.008726 -0.002324
v -0.000150 0.008732 -0.002319
v -0.000150 0.008738 -0.002313
v -0.000150 0.008773 -0.002314
v -0.000150 0.008744 -0.002308
v -0.000150 0.008750 -0.002302
v -0.000150 0.008756 -0.002297
v -0.000150 0.008710 -0.002343
v -0.000065 0.008710 -0.002343
v -0.000065 0.008714 -0.002339
v -0.000150 0.008716 -0.002337
v -0.000150 0.008710 -0.002343
v -0.000065 0.008717 -0.002335
v -0.000150 0.008716 -0.002337
v -0.000150 0.008721 -0.002330
v -0.000150 0.008716 -0.002337
v -0.000150 0.008721 -0.002330
v -0.000065 0.008720 -0.002331
v -0.000065 0.008723 -0.002327
v -0.000150 0.008721 -0.002330
v -0.000150 0.008726 -0.002324
v -0.000150 0.008721 -0.002330
v -0.000065 0.008727 -0.002324
v -0.000065 0.008730 -0.002320
v -0.000150 0.008726 -0.002324
v -0.000150 0.008726 -0.002324
v -0.000150 0.008726 -0.002324
v -0.000150 0.008732 -0.002319
v -0.000150 0.008732 -0.002319
v -0.000065 0.008734 -0.002317
v -0.000150 0.008738 -0.002313
v -0.000150 0.008732 -0.002319
v -0.000065 0.008738 -0.002313
v -0.000150 0.008738 -0.002313
v -0.000065 0.008741 -0.002310
v -0.000150 0.008738 -0.002313
v -0.000150 0.008738 -0.002313
v -0.000150 0.008744 -0.002308
v -0.000150 0.008744 -0.002308
v -0.000065 0.008745 -0.002306
v -0.000150 0.008750 -0.002302
v -0.000147 0.008756 -0.002297
v -0.000150 0.008756 -0.002297
v -0.000150 0.008750 -0.002302
v -0.000150 0.008744 -0.002308
v -0.000150 0.008750 -0.002302
v -0.000143 0.008756 -0.002297
v -0.000065 0.008749 -0.002303
v -0.000150 0.008750 -0.002302
v -0.000140 0.008756 -0.002297
v -0.000150 0.008750 -0.002302
v -0.000136 0.008756 -0.002297
v -0.000150 0.008750 -0.002302
v -0.000133 0.008757 -0.002297
v -0.000065 0.008753 -0.002300
v -0.000130 0.008757 -0.002296
v -0.000123 0.008759 -0.002295
v -0.000127 0.008758 -0.002296
v -0.000100 0.008769 -0.002288
v -0.000102 0.008767 -0.002289
v -0.000065 0.008765 -0.002291
v -0.000065 0.008769 -0.002288
v -0.000105 0.008766 -0.002290
v -0.000108 0.008764 -0.002291
v -0.000065 0.008761 -0.002294
v -0.000111 0.008763 -0.002292
v -0.000114 0.008762 -0.002293
v -0.000065 0.008757 -0.002297
v -0.000117 0.008761 -0.002294
v -0.000120 0.008760 -0.002294
v -0.000150 0.008750 -0.002302
v -0.000150 0.008750 -0.002302
v -0.000065 0.008834 -0.002287
v -0.000087 0.008803 -0.002287
v -0.000065 0.008772 -0.002287
v -0.000095 0.008775 -0.002287
v -0.000097 0.008772 -0.002287
v -0.000093 0.008779 -0.002287
v -0.000091 0.008783 -0.002287
v -0.000090 0.008787 -0.002287
v -0.000089 0.008791 -0.002287
v -0.000088 0.008795 -0.002287
v -0.000088 0.008799 -0.002287
v -0.000088 0.008807 -0.002287
v -0.000088 0.008811 -0.002287
v -0.000089 0.008815 -0.002287
v -0.000090 0.008819 -0.002287
v -0.000091 0.008823 -0.002287
v -0.000095 0.008831 -0.002287
v -0.000097 0.008834 -0.002287
v -0.000093 0.008827 -0.002287
v -0.000150 0.008856 -0.002302
v -0.000147 0.008850 -0.002297
v -0.000143 0.008850 -0.002297
v -0.000140 0.008850 -0.002297
v -0.000137 0.008850 -0.002297
v -0.000133 0.008849 -0.002297
v -0.000065 0.008868 -0.002313
v -0.000065 0.008872 -0.002317
v -0.000150 0.008868 -0.002313
v -0.000065 0.008879 -0.002324
v -0.000150 0.008880 -0.002324
v -0.000065 0.008876 -0.002320
v -0.000065 0.008883 -0.002327
v -0.000150 0.008885 -0.002330
v -0.000150 0.008850 -0.002297
v -0.000150 0.008895 -0.002343
v -0.000065 0.008892 -0.002339
v -0.000065 0.008895 -0.002343
v -0.000150 0.008890 -0.002337
v -0.000065 0.008889 -0.002335
v -0.000065 0.008886 -0.002331
v -0.000150 0.008874 -0.002319
v -0.000065 0.008865 -0.002310
v -0.000150 0.008862 -0.002308
v -0.000065 0.008861 -0.002306
v -0.000130 0.008849 -0.002296
v -0.000065 0.008857 -0.002303
v -0.000127 0.008848 -0.002296
v -0.000065 0.008853 -0.002300
v -0.000123 0.008847 -0.002295
v -0.000120 0.008846 -0.002294
v -0.000065 0.008849 -0.002297
v -0.000114 0.008844 -0.002293
v -0.000111 0.008843 -0.002292
v -0.000065 0.008845 -0.002294
v -0.000065 0.008837 -0.002288
v -0.000065 0.008841 -0.002291
v -0.000100 0.008837 -0.002288
v -0.000102 0.008839 -0.002289
v -0.000105 0.008840 -0.002290
v -0.000108 0.008842 -0.002291
v -0.000117 0.008845 -0.002294
v -0.000150 0.008833 -0.002314
v -0.000150 0.008868 -0.002313
v -0.000150 0.008833 -0.002352
v -0.000150 0.008850 -0.002297
v -0.000150 0.008856 -0.002302
v -0.000150 0.008856 -0.002302
v -0.000150 0.008862 -0.002308
v -0.000150 0.008862 -0.002308
v -0.000150 0.008868 -0.002313
v -0.000150 0.008868 -0.002313
v -0.000150 0.008874 -0.002319
v -0.000150 0.008874 -0.002319
v -0.000150 0.008880 -0.002324
v -0.000150 0.008880 -0.002324
v -0.000150 0.008885 -0.002330
v -0.000150 0.008895 -0.002343
v -0.000150 0.008895 -0.002352
v -0.000150 0.008890 -0.002337
v -0.000150 0.008885 -0.002330
v -0.000150 0.008890 -0.002337
v -0.000150 0.008890 -0.002337
v -0.000065 0.008845 -0.002294
v -0.000065 0.008834 -0.002287
v -0.000065 0.008772 -0.002287
v -0.000065 0.008761 -0.002294
v -0.000065 0.008772 -0.002287
v -0.000065 0.008765 -0.002291
v -0.000065 0.008772 -0.002287
v -0.000065 0.008771 -0.002287
v -0.000065 0.008769 -0.002288
v -0.000065 0.008770 -0.002287
v -0.000065 0.008769 -0.002288
v -0.000065 0.008770 -0.002287
v -0.000065 0.008769 -0.002288
v -0.000065 0.008772 -0.002287
v -0.000065 0.008769 -0.002288
v -0.000065 0.008765 -0.002291
v -0.000065 0.008845 -0.002294
v -0.000065 0.008772 -0.002287
v -0.000065 0.008761 -0.002294
v -0.000065 0.008845 -0.002294
v -0.000065 0.008761 -0.002294
v -0.000065 0.008849 -0.002297
v -0.000065 0.008761 -0.002294
v -0.000065 0.008757 -0.002297
v -0.000065 0.008849 -0.002297
v -0.000065 0.008757 -0.002297
v -0.000065 0.008853 -0.002300
v -0.000065 0.008849 -0.002297
v -0.000065 0.008753 -0.002300
v -0.000065 0.008853 -0.002300
v -0.000065 0.008757 -0.002297
v -0.000065 0.008857 -0.002303
v -0.000065 0.008853 -0.002300
v -0.000065 0.008753 -0.002300
v -0.000065 0.008857 -0.002303
v -0.000065 0.008753 -0.002300
v -0.000065 0.008749 -0.002303
v -0.000065 0.008857 -0.002303
v -0.000065 0.008749 -0.002303
v -0.000065 0.008861 -0.002306
v -0.000065 0.008749 -0.002303
v -0.000065 0.008745 -0.002306
v -0.000065 0.008861 -0.002306
v -0.000065 0.008745 -0.002306
v -0.000065 0.008865 -0.002310
v -0.000065 0.008861 -0.002306
v -0.000065 0.008741 -0.002310
v -0.000065 0.008865 -0.002310
v -0.000065 0.008745 -0.002306
v -0.000065 0.008868 -0.002313
v -0.000065 0.008865 -0.002310
v -0.000065 0.008741 -0.002310
v -0.000065 0.008868 -0.002313
v -0.000065 0.008741 -0.002310
v -0.000065 0.008738 -0.002313
v -0.000065 0.008710 -0.002343
v -0.000065 0.008710 -0.002352
v -0.000065 0.008714 -0.002339
v -0.000065 0.008868 -0.002313
v -0.000065 0.008738 -0.002313
v -0.000065 0.008872 -0.002317
v -0.000065 0.008720 -0.002331
v -0.000065 0.008717 -0.002335
v -0.000065 0.008734 -0.002317
v -0.000065 0.008730 -0.002320
v -0.000065 0.008895 -0.002343
v -0.000065 0.008892 -0.002339
v -0.000065 0.008895 -0.002352
v -0.000065 0.008892 -0.002339
v -0.000065 0.008889 -0.002335
v -0.000065 0.008889 -0.002335
v -0.000065 0.008886 -0.002331
v -0.000065 0.008886 -0.002331
v -0.000065 0.008883 -0.002327
v -0.000065 0.008883 -0.002327
v -0.000065 0.008879 -0.002324
v -0.000065 0.008879 -0.002324
v -0.000065 0.008876 -0.002320
v -0.000065 0.008876 -0.002320
v -0.000065 0.008872 -0.002317
v -0.000065 0.008734 -0.002317
v -0.000065 0.008730 -0.002320
v -0.000065 0.008727 -0.002324
v -0.000065 0.008727 -0.002324
v -0.000065 0.008723 -0.002327
v -0.000065 0.008723 -0.002327
v -0.000065 0.008720 -0.002331
v -0.000065 0.008734 -0.002317
v -0.000065 0.008872 -0.002317
v -0.000065 0.008872 -0.002317
v -0.000065 0.008738 -0.002313
v -0.000065 0.008734 -0.002317
v -0.000065 0.008717 -0.002335
v -0.000065 0.008714 -0.002339
v -0.000065 0.008845 -0.002294
v -0.000065 0.008841 -0.002291
v -0.000065 0.008834 -0.002287
v -0.000065 0.008836 -0.002287
v -0.000065 0.008834 -0.002287
v -0.000065 0.008836 -0.002287
v -0.000065 0.008834 -0.002287
v -0.000065 0.008837 -0.002288
v -0.000065 0.008835 -0.002287
v -0.000065 0.008834 -0.002287
v -0.000065 0.008837 -0.002288
v -0.000065 0.008834 -0.002287
v -0.000065 0.008841 -0.002291
v -0.000065 0.008710 -0.002352
v -0.000065 0.008710 -0.002343
v -0.000150 0.008710 -0.002352
v -0.000065 0.008710 -0.002343
v -0.000150 0.008710 -0.002343
v -0.000150 0.008710 -0.002352
v -0.000150 0.008895 -0.002352
v -0.000150 0.008895 -0.002343
v -0.000065 0.008895 -0.002352
v -0.000150 0.008895 -0.002343
v -0.000065 0.008895 -0.002343
v -0.000065 0.008895 -0.002352
v -0.000150 0.008710 -0.002352
v -0.000134 0.008775 -0.002352
v -0.000132 0.008776 -0.002352
v -0.000065 0.008710 -0.002352
v -0.000115 0.008801 -0.002352
v -0.000115 0.008803 -0.002352
v -0.000148 0.008833 -0.002352
v -0.000150 0.008833 -0.002352
v -0.000150 0.008895 -0.002352
v -0.000150 0.008895 -0.002352
v -0.000147 0.008833 -0.002352
v -0.000150 0.008895 -0.002352
v -0.000145 0.008833 -0.002352
v -0.000150 0.008895 -0.002352
v -0.000144 0.008833 -0.002352
v -0.000150 0.008895 -0.002352
v -0.000142 0.008833 -0.002352
v -0.000150 0.008895 -0.002352
v -0.000140 0.008833 -0.002352
v -0.000150 0.008895 -0.002352
v -0.000139 0.008832 -0.002352
v -0.000150 0.008895 -0.002352
v -0.000137 0.008832 -0.002352
v -0.000150 0.008895 -0.002352
v -0.000136 0.008831 -0.002352
v -0.000150 0.008895 -0.002352
v -0.000134 0.008831 -0.002352
v -0.000150 0.008895 -0.002352
v -0.000132 0.008830 -0.002352
v -0.000150 0.008895 -0.002352
v -0.000131 0.008830 -0.002352
v -0.000150 0.008895 -0.002352
v -0.000065 0.008895 -0.002352
v -0.000065 0.008895 -0.002352
v -0.000130 0.008829 -0.002352
v -0.000065 0.008895 -0.002352
v -0.000128 0.008828 -0.002352
v -0.000065 0.008895 -0.002352
v -0.000127 0.008827 -0.002352
v -0.000065 0.008895 -0.002352
v -0.000126 0.008826 -0.002352
v -0.000065 0.008895 -0.002352
v -0.000124 0.008825 -0.002352
v -0.000065 0.008895 -0.002352
v -0.000123 0.008824 -0.002352
v -0.000065 0.008895 -0.002352
v -0.000122 0.008822 -0.002352
v -0.000065 0.008895 -0.002352
v -0.000121 0.008821 -0.002352
v -0.000065 0.008895 -0.002352
v -0.000120 0.008820 -0.002352
v -0.000065 0.008895 -0.002352
v -0.000119 0.008819 -0.002352
v -0.000117 0.008814 -0.002352
v -0.000118 0.008816 -0.002352
v -0.000065 0.008895 -0.002352
v -0.000065 0.008895 -0.002352
v -0.000119 0.008817 -0.002352
v -0.000117 0.008813 -0.002352
v -0.000065 0.008895 -0.002352
v -0.000116 0.008811 -0.002352
v -0.000065 0.008895 -0.002352
v -0.000116 0.008809 -0.002352
v -0.000065 0.008895 -0.002352
v -0.000115 0.008808 -0.002352
v -0.000065 0.008895 -0.002352
v -0.000115 0.008806 -0.002352
v -0.000065 0.008895 -0.002352
v -0.000115 0.008805 -0.002352
v -0.000065 0.008895 -0.002352
v -0.000065 0.008895 -0.002352
v -0.000065 0.008895 -0.002352
v -0.000065 0.008710 -0.002352
v -0.000065 0.008710 -0.002352
v -0.000115 0.008800 -0.002352
v -0.000065 0.008710 -0.002352
v -0.000115 0.008798 -0.002352
v -0.000065 0.008710 -0.002352
v -0.000116 0.008797 -0.002352
v -0.000065 0.008710 -0.002352
v -0.000116 0.008795 -0.002352
v -0.000065 0.008710 -0.002352
v -0.000117 0.008793 -0.002352
v -0.000118 0.008790 -0.002352
v -0.000065 0.008710 -0.002352
v -0.000119 0.008789 -0.002352
v -0.000117 0.008792 -0.002352
v -0.000065 0.008710 -0.002352
v -0.000065 0.008710 -0.002352
v -0.000119 0.008787 -0.002352
v -0.000065 0.008710 -0.002352
v -0.000120 0.008786 -0.002352
v -0.000065 0.008710 -0.002352
v -0.000121 0.008785 -0.002352
v -0.000065 0.008710 -0.002352
v -0.000122 0.008784 -0.002352
v -0.000065 0.008710 -0.002352
v -0.000123 0.008782 -0.002352
v -0.000065 0.008710 -0.002352
v -0.000124 0.008781 -0.002352
v -0.000065 0.008710 -0.002352
v -0.000126 0.008780 -0.002352
v -0.000065 0.008710 -0.002352
v -0.000127 0.008779 -0.002352
v -0.000065 0.008710 -0.002352
v -0.000128 0.008778 -0.002352
v -0.000065 0.008710 -0.002352
v -0.000130 0.008777 -0.002352
v -0.000065 0.008710 -0.002352
v -0.000131 0.008776 -0.002352
v -0.000065 0.008710 -0.002352
v -0.000150 0.008710 -0.002352
v -0.000150 0.008710 -0.002352
v -0.000136 0.008775 -0.002352
v -0.000150 0.008710 -0.002352
v -0.000137 0.008774 -0.002352
v -0.000150 0.008710 -0.002352
v -0.000139 0.008774 -0.002352
v -0.000150 0.008710 -0.002352
v -0.000150 0.008710 -0.002352
v -0.000140 0.008773 -0.002352
v -0.000150 0.008710 -0.002352
v -0.000142 0.008773 -0.002352
v -0.000150 0.008710 -0.002352
v -0.000144 0.008773 -0.002352
v -0.000150 0.008710 -0.002352
v -0.000145 0.008773 -0.002352
v -0.000150 0.008710 -0.002352
v -0.000147 0.008773 -0.002352
v -0.000065 0.008895 -0.002352
v -0.000150 0.008710 -0.002352
v -0.000148 0.008773 -0.002352
v -0.000065 0.008710 -0.002352
v -0.000150 0.008710 -0.002352
v -0.000150 0.008773 -0.002352
v -0.000148 0.008833 -0.002352
v -0.000147 0.008833 -0.002352
v -0.000148 0.008833 -0.002314
v -0.000147 0.008833 -0.002352
v -0.000145 0.008833 -0.002352
v -0.000147 0.008833 -0.002314
v -0.000145 0.008833 -0.002352
v -0.000145 0.008833 -0.002314
v -0.000144 0.008833 -0.002352
v -0.000144 0.008833 -0.002314
v -0.000142 0.008833 -0.002352
v -0.000142 0.008833 -0.002314
v -0.000140 0.008833 -0.002352
v -0.000140 0.008833 -0.002314
v -0.000139 0.008832 -0.002352
v -0.000140 0.008833 -0.002352
v -0.000137 0.008832 -0.002352
v -0.000139 0.008832 -0.002314
v -0.000139 0.008832 -0.002352
v -0.000137 0.008832 -0.002314
v -0.000137 0.008832 -0.002352
v -0.000136 0.008831 -0.002314
v -0.000136 0.008831 -0.002352
v -0.000136 0.008831 -0.002352
v -0.000134 0.008831 -0.002352
v -0.000134 0.008831 -0.002314
v -0.000134 0.008831 -0.002352
v -0.000132 0.008830 -0.002352
v -0.000132 0.008830 -0.002314
v -0.000132 0.008830 -0.002352
v -0.000131 0.008830 -0.002352
v -0.000131 0.008830 -0.002352
v -0.000131 0.008830 -0.002314
v -0.000130 0.008829 -0.002352
v -0.000130 0.008829 -0.002314
v -0.000130 0.008829 -0.002352
v -0.000128 0.008828 -0.002352
v -0.000128 0.008828 -0.002352
v -0.000127 0.008827 -0.002352
v -0.000128 0.008828 -0.002314
v -0.000127 0.008827 -0.002352
v -0.000127 0.008827 -0.002314
v -0.000126 0.008826 -0.002352
v -0.000126 0.008826 -0.002314
v -0.000124 0.008825 -0.002352
v -0.000126 0.008826 -0.002352
v -0.000123 0.008824 -0.002352
v -0.000124 0.008825 -0.002314
v -0.000124 0.008825 -0.002352
v -0.000123 0.008824 -0.002314
v -0.000123 0.008824 -0.002352
v -0.000122 0.008822 -0.002314
v -0.000122 0.008822 -0.002352
v -0.000122 0.008822 -0.002352
v -0.000121 0.008821 -0.002352
v -0.000121 0.008821 -0.002314
v -0.000121 0.008821 -0.002352
v -0.000120 0.008820 -0.002352
v -0.000120 0.008820 -0.002352
v -0.000120 0.008820 -0.002314
v -0.000119 0.008819 -0.002352
v -0.000119 0.008819 -0.002314
v -0.000119 0.008819 -0.002352
v -0.000119 0.008817 -0.002352
v -0.000119 0.008817 -0.002352
v -0.000118 0.008816 -0.002352
v -0.000119 0.008817 -0.002314
v -0.000118 0.008816 -0.002352
v -0.000118 0.008816 -0.002314
v -0.000117 0.008814 -0.002352
v -0.000117 0.008814 -0.002314
v -0.000117 0.008813 -0.002352
v -0.000117 0.008814 -0.002352
v -0.000116 0.008811 -0.002352
v -0.000117 0.008813 -0.002314
v -0.000117 0.008813 -0.002352
v -0.000116 0.008811 -0.002314
v -0.000116 0.008811 -0.002352
v -0.000116 0.008809 -0.002314
v -0.000116 0.008809 -0.002352
v -0.000116 0.008809 -0.002352
v -0.000115 0.008808 -0.002352
v -0.000115 0.008808 -0.002314
v -0.000115 0.008808 -0.002352
v -0.000115 0.008806 -0.002352
v -0.000115 0.008806 -0.002352
v -0.000115 0.008806 -0.002314
v -0.000115 0.008805 -0.002352
v -0.000115 0.008805 -0.002314
v -0.000115 0.008805 -0.002352
v -0.000115 0.008803 -0.002352
v -0.000115 0.008803 -0.002352
v -0.000115 0.008801 -0.002352
v -0.000115 0.008803 -0.002314
v -0.000115 0.008801 -0.002352
v -0.000115 0.008801 -0.002314
v -0.000115 0.008800 -0.002352
v -0.000115 0.008800 -0.002314
v -0.000115 0.008798 -0.002352
v -0.000115 0.008800 -0.002352
v -0.000116 0.008797 -0.002352
v -0.000115 0.008798 -0.002314
v -0.000115 0.008798 -0.002352
v -0.000116 0.008795 -0.002352
v -0.000116 0.008797 -0.002314
v -0.000116 0.008797 -0.002352
v -0.000116 0.008795 -0.002314
v -0.000116 0.008795 -0.002352
v -0.000117 0.008793 -0.002314
v -0.000117 0.008793 -0.002352
v -0.000117 0.008793 -0.002352
v -0.000117 0.008792 -0.002352
v -0.000117 0.008792 -0.002314
v -0.000117 0.008792 -0.002352
v -0.000118 0.008790 -0.002352
v -0.000118 0.008790 -0.002352
v -0.000118 0.008790 -0.002314
v -0.000119 0.008789 -0.002352
v -0.000119 0.008789 -0.002314
v -0.000119 0.008789 -0.002352
v -0.000119 0.008787 -0.002352
v -0.000119 0.008787 -0.002352
v -0.000120 0.008786 -0.002352
v -0.000119 0.008787 -0.002314
v -0.000120 0.008786 -0.002352
v -0.000120 0.008786 -0.002314
v -0.000121 0.008785 -0.002352
v -0.000121 0.008785 -0.002314
v -0.000122 0.008784 -0.002352
v -0.000121 0.008785 -0.002352
v -0.000123 0.008782 -0.002352
v -0.000122 0.008784 -0.002314
v -0.000122 0.008784 -0.002352
v -0.000123 0.008782 -0.002314
v -0.000123 0.008782 -0.002352
v -0.000124 0.008781 -0.002314
v -0.000124 0.008781 -0.002352
v -0.000124 0.008781 -0.002352
v -0.000126 0.008780 -0.002352
v -0.000126 0.008780 -0.002314
v -0.000126 0.008780 -0.002352
v -0.000127 0.008779 -0.002352
v -0.000127 0.008779 -0.002352
v -0.000127 0.008779 -0.002314
v -0.000148 0.008773 -0.002314
v -0.000147 0.008773 -0.002314
v -0.000148 0.008773 -0.002352
v -0.000150 0.008773 -0.002352
v -0.000150 0.008773 -0.002314
v -0.000150 0.008773 -0.002352
v -0.000148 0.008773 -0.002352
v -0.000147 0.008773 -0.002352
v -0.000148 0.008773 -0.002352
v -0.000145 0.008773 -0.002314
v -0.000147 0.008773 -0.002352
v -0.000145 0.008773 -0.002352
v -0.000147 0.008773 -0.002352
v -0.000145 0.008773 -0.002352
v -0.000144 0.008773 -0.002314
v -0.000145 0.008773 -0.002352
v -0.000144 0.008773 -0.002352
v -0.000142 0.008773 -0.002314
v -0.000144 0.008773 -0.002352
v -0.000142 0.008773 -0.002352
v -0.000144 0.008773 -0.002352
v -0.000140 0.008773 -0.002314
v -0.000142 0.008773 -0.002352
v -0.000140 0.008773 -0.002352
v -0.000142 0.008773 -0.002352
v -0.000140 0.008773 -0.002352
v -0.000139 0.008774 -0.002314
v -0.000140 0.008773 -0.002352
v -0.000139 0.008774 -0.002352
v -0.000137 0.008774 -0.002314
v -0.000139 0.008774 -0.002352
v -0.000137 0.008774 -0.002352
v -0.000139 0.008774 -0.002352
v -0.000136 0.008775 -0.002314
v -0.000137 0.008774 -0.002352
v -0.000136 0.008775 -0.002352
v -0.000137 0.008774 -0.002352
v -0.000136 0.008775 -0.002352
v -0.000134 0.008775 -0.002314
v -0.000136 0.008775 -0.002352
v -0.000134 0.008775 -0.002352
v -0.000132 0.008776 -0.002314
v -0.000134 0.008775 -0.002352
v -0.000132 0.008776 -0.002352
v -0.000134 0.008775 -0.002352
v -0.000131 0.008776 -0.002314
v -0.000132 0.008776 -0.002352
v -0.000131 0.008776 -0.002352
v -0.000132 0.008776 -0.002352
v -0.000131 0.008776 -0.002352
v -0.000130 0.008777 -0.002314
v -0.000131 0.008776 -0.002352
v -0.000130 0.008777 -0.002352
v -0.000128 0.008778 -0.002314
v -0.000130 0.008777 -0.002352
v -0.000128 0.008778 -0.002352
v -0.000130 0.008777 -0.002352
v -0.000128 0.008778 -0.002352
v -0.000127 0.008779 -0.002352
v -0.000128 0.008778 -0.002352
v -0.000126 0.008780 -0.002352
v -0.000123 0.008782 -0.002352
v -0.000124 0.008781 -0.002352
v -0.000122 0.008784 -0.002352
v -0.000121 0.008785 -0.002352
v -0.000120 0.008786 -0.002352
v -0.000119 0.008787 -0.002352
v -0.000118 0.008790 -0.002352
v -0.000119 0.008789 -0.002352
v -0.000117 0.008792 -0.002352
v -0.000116 0.008795 -0.002352
v -0.000117 0.008793 -0.002352
v -0.000116 0.008797 -0.002352
v -0.000115 0.008798 -0.002352
v -0.000115 0.008800 -0.002352
v -0.000115 0.008801 -0.002352
v -0.000115 0.008803 -0.002352
v -0.000115 0.008806 -0.002352
v -0.000115 0.008805 -0.002352
v -0.000115 0.008808 -0.002352
v -0.000116 0.008811 -0.002352
v -0.000116 0.008809 -0.002352
v -0.000117 0.008813 -0.002352
v -0.000117 0.008814 -0.002352
v -0.000118 0.008816 -0.002352
v -0.000119 0.008817 -0.002352
v -0.000120 0.008820 -0.002352
v -0.000119 0.008819 -0.002352
v -0.000121 0.008821 -0.002352
v -0.000123 0.008824 -0.002352
v -0.000122 0.008822 -0.002352
v -0.000124 0.008825 -0.002352
v -0.000126 0.008826 -0.002352
v -0.000127 0.008827 -0.002352
v -0.000128 0.008828 -0.002352
v -0.000131 0.008830 -0.002352
v -0.000130 0.008829 -0.002352
v -0.000132 0.008830 -0.002352
v -0.000134 0.008831 -0.002352
v -0.000137 0.008832 -0.002352
v -0.000136 0.008831 -0.002352
v -0.000142 0.008833 -0.002352
v -0.000140 0.008833 -0.002352
v -0.000145 0.008833 -0.002352
v -0.000144 0.008833 -0.002352
v -0.000150 0.008833 -0.002352
v -0.000148 0.008833 -0.002352
v -0.000150 0.008833 -0.002314
v -0.000150 0.008833 -0.002352
v -0.000139 0.008832 -0.002352
v -0.000144 0.008833 -0.002352
v -0.000142 0.008833 -0.002352
v -0.000147 0.008833 -0.002352
v -0.000147 0.008756 -0.002297
v -0.000145 0.008773 -0.002314
v -0.000147 0.008773 -0.002314
v -0.000147 0.008756 -0.002297
v -0.000147 0.008773 -0.002314
v -0.000150 0.008756 -0.002297
v -0.000143 0.008756 -0.002297
v -0.000144 0.008773 -0.002314
v -0.000145 0.008773 -0.002314
v -0.000142 0.008773 -0.002314
v -0.000144 0.008773 -0.002314
v -0.000140 0.008756 -0.002297
v -0.000140 0.008773 -0.002314
v -0.000140 0.008756 -0.002297
v -0.000136 0.008756 -0.002297
v -0.000139 0.008774 -0.002314
v -0.000136 0.008756 -0.002297
v -0.000133 0.008757 -0.002297
v -0.000137 0.008774 -0.002314
v -0.000133 0.008757 -0.002297
v -0.000130 0.008757 -0.002296
v -0.000136 0.008775 -0.002314
v -0.000130 0.008757 -0.002296
v -0.000134 0.008775 -0.002314
v -0.000130 0.008757 -0.002296
v -0.000127 0.008758 -0.002296
v -0.000134 0.008775 -0.002314
v -0.000127 0.008758 -0.002296
v -0.000123 0.008759 -0.002295
v -0.000132 0.008776 -0.002314
v -0.000123 0.008759 -0.002295
v -0.000131 0.008776 -0.002314
v -0.000132 0.008776 -0.002314
v -0.000120 0.008760 -0.002294
v -0.000130 0.008777 -0.002314
v -0.000131 0.008776 -0.002314
v -0.000117 0.008761 -0.002294
v -0.000128 0.008778 -0.002314
v -0.000130 0.008777 -0.002314
v -0.000114 0.008762 -0.002293
v -0.000128 0.008778 -0.002314
v -0.000117 0.008761 -0.002294
v -0.000126 0.008780 -0.002314
v -0.000127 0.008779 -0.002314
v -0.000114 0.008762 -0.002293
v -0.000126 0.008780 -0.002314
v -0.000114 0.008762 -0.002293
v -0.000111 0.008763 -0.002292
v -0.000126 0.008780 -0.002314
v -0.000111 0.008763 -0.002292
v -0.000124 0.008781 -0.002314
v -0.000111 0.008763 -0.002292
v -0.000108 0.008764 -0.002291
v -0.000124 0.008781 -0.002314
v -0.000123 0.008782 -0.002314
v -0.000105 0.008766 -0.002290
v -0.000122 0.008784 -0.002314
v -0.000108 0.008764 -0.002291
v -0.000123 0.008782 -0.002314
v -0.000124 0.008781 -0.002314
v -0.000105 0.008766 -0.002290
v -0.000102 0.008767 -0.002289
v -0.000122 0.008784 -0.002314
v -0.000102 0.008767 -0.002289
v -0.000100 0.008769 -0.002288
v -0.000121 0.008785 -0.002314
v -0.000100 0.008769 -0.002288
v -0.000099 0.008770 -0.002288
v -0.000120 0.008786 -0.002314
v -0.000098 0.008770 -0.002287
v -0.000120 0.008786 -0.002314
v -0.000120 0.008786 -0.002314
v -0.000097 0.008771 -0.002287
v -0.000097 0.008772 -0.002287
v -0.000119 0.008787 -0.002314
v -0.000097 0.008772 -0.002287
v -0.000095 0.008775 -0.002287
v -0.000119 0.008787 -0.002314
v -0.000095 0.008775 -0.002287
v -0.000119 0.008789 -0.002314
v -0.000119 0.008789 -0.002314
v -0.000093 0.008779 -0.002287
v -0.000118 0.008790 -0.002314
v -0.000093 0.008779 -0.002287
v -0.000091 0.008783 -0.002287
v -0.000117 0.008792 -0.002314
v -0.000091 0.008783 -0.002287
v -0.000090 0.008787 -0.002287
v -0.000117 0.008793 -0.002314
v -0.000090 0.008787 -0.002287
v -0.000116 0.008795 -0.002314
v -0.000117 0.008793 -0.002314
v -0.000089 0.008791 -0.002287
v -0.000116 0.008797 -0.002314
v -0.000116 0.008795 -0.002314
v -0.000088 0.008795 -0.002287
v -0.000115 0.008798 -0.002314
v -0.000089 0.008791 -0.002287
v -0.000115 0.008800 -0.002314
v -0.000115 0.008798 -0.002314
v -0.000088 0.008795 -0.002287
v -0.000115 0.008801 -0.002314
v -0.000115 0.008800 -0.002314
v -0.000088 0.008799 -0.002287
v -0.000115 0.008803 -0.002314
v -0.000115 0.008801 -0.002314
v -0.000087 0.008803 -0.002287
v -0.000115 0.008805 -0.002314
v -0.000115 0.008803 -0.002314
v -0.000087 0.008803 -0.002287
v -0.000115 0.008805 -0.002314
v -0.000087 0.008803 -0.002287
v -0.000088 0.008807 -0.002287
v -0.000115 0.008805 -0.002314
v -0.000088 0.008807 -0.002287
v -0.000115 0.008806 -0.002314
v -0.000115 0.008806 -0.002314
v -0.000088 0.008811 -0.002287
v -0.000115 0.008808 -0.002314
v -0.000088 0.008811 -0.002287
v -0.000089 0.008815 -0.002287
v -0.000115 0.008808 -0.002314
v -0.000089 0.008815 -0.002287
v -0.000116 0.008811 -0.002314
v -0.000116 0.008809 -0.002314
v -0.000090 0.008819 -0.002287
v -0.000117 0.008813 -0.002314
v -0.000116 0.008811 -0.002314
v -0.000091 0.008823 -0.002287
v -0.000117 0.008814 -0.002314
v -0.000117 0.008813 -0.002314
v -0.000093 0.008827 -0.002287
v -0.000118 0.008816 -0.002314
v -0.000117 0.008814 -0.002314
v -0.000119 0.008817 -0.002314
v -0.000118 0.008816 -0.002314
v -0.000093 0.008827 -0.002287
v -0.000119 0.008819 -0.002314
v -0.000119 0.008817 -0.002314
v -0.000095 0.008831 -0.002287
v -0.000120 0.008820 -0.002314
v -0.000119 0.008819 -0.002314
v -0.000097 0.008834 -0.002287
v -0.000098 0.008836 -0.002287
v -0.000120 0.008820 -0.002314
v -0.000097 0.008835 -0.002287
v -0.000105 0.008840 -0.002290
v -0.000122 0.008822 -0.002314
v -0.000102 0.008839 -0.002289
v -0.000121 0.008821 -0.002314
v -0.000100 0.008837 -0.002288
v -0.000102 0.008839 -0.002289
v -0.000123 0.008824 -0.002314
v -0.000122 0.008822 -0.002314
v -0.000105 0.008840 -0.002290
v -0.000124 0.008825 -0.002314
v -0.000123 0.008824 -0.002314
v -0.000108 0.008842 -0.002291
v -0.000126 0.008826 -0.002314
v -0.000124 0.008825 -0.002314
v -0.000111 0.008843 -0.002292
v -0.000127 0.008827 -0.002314
v -0.000126 0.008826 -0.002314
v -0.000114 0.008844 -0.002293
v -0.000099 0.008836 -0.002288
v -0.000100 0.008837 -0.002288
v -0.000120 0.008820 -0.002314
v -0.000150 0.008850 -0.002297
v -0.000150 0.008833 -0.002314
v -0.000148 0.008833 -0.002314
v -0.000150 0.008850 -0.002297
v -0.000148 0.008833 -0.002314
v -0.000147 0.008833 -0.002314
v -0.000150 0.008850 -0.002297
v -0.000147 0.008833 -0.002314
v -0.000147 0.008850 -0.002297
v -0.000147 0.008833 -0.002314
v -0.000145 0.008833 -0.002314
v -0.000147 0.008850 -0.002297
v -0.000145 0.008833 -0.002314
v -0.000143 0.008850 -0.002297
v -0.000147 0.008850 -0.002297
v -0.000144 0.008833 -0.002314
v -0.000143 0.008850 -0.002297
v -0.000145 0.008833 -0.002314
v -0.000140 0.008850 -0.002297
v -0.000143 0.008850 -0.002297
v -0.000144 0.008833 -0.002314
v -0.000140 0.008850 -0.002297
v -0.000144 0.008833 -0.002314
v -0.000142 0.008833 -0.002314
v -0.000140 0.008850 -0.002297
v -0.000142 0.008833 -0.002314
v -0.000140 0.008833 -0.002314
v -0.000140 0.008850 -0.002297
v -0.000140 0.008833 -0.002314
v -0.000137 0.008850 -0.002297
v -0.000140 0.008833 -0.002314
v -0.000139 0.008832 -0.002314
v -0.000137 0.008850 -0.002297
v -0.000139 0.008832 -0.002314
v -0.000133 0.008849 -0.002297
v -0.000137 0.008850 -0.002297
v -0.000137 0.008832 -0.002314
v -0.000133 0.008849 -0.002297
v -0.000139 0.008832 -0.002314
v -0.000130 0.008849 -0.002296
v -0.000133 0.008849 -0.002297
v -0.000137 0.008832 -0.002314
v -0.000130 0.008849 -0.002296
v -0.000137 0.008832 -0.002314
v -0.000136 0.008831 -0.002314
v -0.000130 0.008849 -0.002296
v -0.000136 0.008831 -0.002314
v -0.000134 0.008831 -0.002314
v -0.000130 0.008849 -0.002296
v -0.000134 0.008831 -0.002314
v -0.000127 0.008848 -0.002296
v -0.000134 0.008831 -0.002314
v -0.000132 0.008830 -0.002314
v -0.000127 0.008848 -0.002296
v -0.000132 0.008830 -0.002314
v -0.000123 0.008847 -0.002295
v -0.000127 0.008848 -0.002296
v -0.000131 0.008830 -0.002314
v -0.000123 0.008847 -0.002295
v -0.000132 0.008830 -0.002314
v -0.000120 0.008846 -0.002294
v -0.000123 0.008847 -0.002295
v -0.000131 0.008830 -0.002314
v -0.000120 0.008846 -0.002294
v -0.000131 0.008830 -0.002314
v -0.000130 0.008829 -0.002314
v -0.000120 0.008846 -0.002294
v -0.000130 0.008829 -0.002314
v -0.000117 0.008845 -0.002294
v -0.000130 0.008829 -0.002314
v -0.000128 0.008828 -0.002314
v -0.000117 0.008845 -0.002294
v -0.000128 0.008828 -0.002314
v -0.000114 0.008844 -0.002293
v -0.000117 0.008845 -0.002294
v -0.000127 0.008827 -0.002314
v -0.000114 0.008844 -0.002293
v -0.000128 0.008828 -0.002314
v -0.000126 0.008826 -0.002314
v -0.000111 0.008843 -0.002292
v -0.000114 0.008844 -0.002293
v -0.000124 0.008825 -0.002314
v -0.000108 0.008842 -0.002291
v -0.000111 0.008843 -0.002292
v -0.000123 0.008824 -0.002314
v -0.000105 0.008840 -0.002290
v -0.000108 0.008842 -0.002291
v -0.000122 0.008822 -0.002314
v -0.000121 0.008821 -0.002314
v -0.000102 0.008839 -0.002289
v -0.000121 0.008821 -0.002314
v -0.000120 0.008820 -0.002314
v -0.000100 0.008837 -0.002288
v -0.000120 0.008820 -0.002314
v -0.000097 0.008834 -0.002287
v -0.000120 0.008820 -0.002314
v -0.000095 0.008831 -0.002287
v -0.000097 0.008834 -0.002287
v -0.000119 0.008819 -0.002314
v -0.000093 0.008827 -0.002287
v -0.000095 0.008831 -0.002287
v -0.000119 0.008817 -0.002314
v -0.000117 0.008814 -0.002314
v -0.000091 0.008823 -0.002287
v -0.000093 0.008827 -0.002287
v -0.000117 0.008813 -0.002314
v -0.000090 0.008819 -0.002287
v -0.000091 0.008823 -0.002287
v -0.000116 0.008811 -0.002314
v -0.000089 0.008815 -0.002287
v -0.000090 0.008819 -0.002287
v -0.000116 0.008809 -0.002314
v -0.000115 0.008808 -0.002314
v -0.000089 0.008815 -0.002287
v -0.000088 0.008811 -0.002287
v -0.000115 0.008806 -0.002314
v -0.000088 0.008807 -0.002287
v -0.000115 0.008801 -0.002314
v -0.000088 0.008799 -0.002287
v -0.000087 0.008803 -0.002287
v -0.000115 0.008800 -0.002314
v -0.000088 0.008795 -0.002287
v -0.000088 0.008799 -0.002287
v -0.000115 0.008798 -0.002314
v -0.000116 0.008797 -0.002314
v -0.000089 0.008791 -0.002287
v -0.000089 0.008791 -0.002287
v -0.000116 0.008795 -0.002314
v -0.000090 0.008787 -0.002287
v -0.000091 0.008783 -0.002287
v -0.000117 0.008793 -0.002314
v -0.000117 0.008792 -0.002314
v -0.000093 0.008779 -0.002287
v -0.000117 0.008792 -0.002314
v -0.000118 0.008790 -0.002314
v -0.000095 0.008775 -0.002287
v -0.000093 0.008779 -0.002287
v -0.000119 0.008789 -0.002314
v -0.000120 0.008786 -0.002314
v -0.000097 0.008772 -0.002287
v -0.000119 0.008787 -0.002314
v -0.000120 0.008786 -0.002314
v -0.000100 0.008769 -0.002288
v -0.000120 0.008786 -0.002314
v -0.000121 0.008785 -0.002314
v -0.000102 0.008767 -0.002289
v -0.000121 0.008785 -0.002314
v -0.000122 0.008784 -0.002314
v -0.000108 0.008764 -0.002291
v -0.000105 0.008766 -0.002290
v -0.000123 0.008782 -0.002314
v -0.000114 0.008762 -0.002293
v -0.000127 0.008779 -0.002314
v -0.000128 0.008778 -0.002314
v -0.000120 0.008760 -0.002294
v -0.000117 0.008761 -0.002294
v -0.000130 0.008777 -0.002314
v -0.000123 0.008759 -0.002295
v -0.000120 0.008760 -0.002294
v -0.000131 0.008776 -0.002314
v -0.000130 0.008757 -0.002296
v -0.000136 0.008775 -0.002314
v -0.000137 0.008774 -0.002314
v -0.000140 0.008773 -0.002314
v -0.000136 0.008756 -0.002297
v -0.000139 0.008774 -0.002314
v -0.000142 0.008773 -0.002314
v -0.000140 0.008756 -0.002297
v -0.000140 0.008773 -0.002314
v -0.000144 0.008773 -0.002314
v -0.000143 0.008756 -0.002297
v -0.000140 0.008756 -0.002297
v -0.000147 0.008756 -0.002297
v -0.000143 0.008756 -0.002297
v -0.000145 0.008773 -0.002314
v -0.000148 0.008773 -0.002314
v -0.000150 0.008773 -0.002314
v -0.000150 0.008756 -0.002297
v -0.000133 0.008757 -0.002297
v -0.000137 0.008774 -0.002314
v -0.000139 0.008774 -0.002314
v -0.000132 0.008776 -0.002314
v -0.000134 0.008775 -0.002314
v -0.000127 0.008758 -0.002296
v -0.000147 0.008773 -0.002314
v -0.000148 0.008773 -0.002314
v -0.000150 0.008756 -0.002297
v -0.000065 0.008835 -0.002287
v -0.000065 0.008835 -0.002287
v -0.000065 0.008836 -0.002287
v -0.000065 0.008836 -0.002287
v -0.000097 0.008835 -0.002287
v -0.000097 0.008835 -0.002287
v -0.000065 0.008836 -0.002287
v -0.000065 0.008836 -0.002287
v -0.000099 0.008836 -0.002288
v -0.000099 0.008836 -0.002288
v -0.000098 0.008836 -0.002287
v -0.000098 0.008836 -0.002287
v -0.000097 0.008835 -0.002287
v -0.000065 0.008836 -0.002287
v -0.000098 0.008836 -0.002287
v -0.000065 0.008836 -0.002287
v -0.000098 0.008770 -0.002287
v -0.000099 0.008770 -0.002288
v -0.000099 0.008770 -0.002288
v -0.000098 0.008770 -0.002287
v -0.000065 0.008770 -0.002287
v -0.000065 0.008771 -0.002287
v -0.000065 0.008771 -0.002287
v -0.000065 0.008770 -0.002287
v -0.000065 0.008770 -0.002287
v -0.000097 0.008771 -0.002287
v -0.000065 0.008770 -0.002287
v -0.000065 0.008770 -0.002287
v -0.000097 0.008771 -0.002287
v -0.000065 0.008770 -0.002287
v -0.000097 0.008771 -0.002287
v -0.000098 0.008770 -0.002287
vn -1.0000 -0.0000 -0.0000
vn -0.0000 -0.7940 0.6079
vn -0.0000 -0.7816 0.6238
vn -0.0000 -0.7739 0.6333
vn -0.0000 -0.7688 0.6395
vn -0.0000 -0.7815 0.6239
vn -0.0000 -0.7530 0.6580
vn -0.0000 -0.7558 0.6548
vn -0.0000 -0.7424 0.6699
vn -0.0000 -0.7557 0.6549
vn 0.0001 -0.7424 0.6700
vn -0.0000 -0.7313 0.6820
vn -0.0000 -0.7287 0.6848
vn -0.0000 -0.7147 0.6994
vn -0.0000 -0.7314 0.6820
vn -0.0000 -0.7423 0.6700
vn -0.0000 -0.7313 0.6821
vn -0.0000 -0.7089 0.7053
vn -0.0000 -0.7004 0.7137
vn -0.0000 -0.6857 0.7279
vn -0.0000 -0.6859 0.7277
vn -0.0000 -0.6711 0.7414
vn -0.0000 -0.6710 0.7414
vn -0.0000 -0.6618 0.7497
vn -0.0000 -0.6559 0.7548
vn -0.0000 -0.6372 0.7707
vn -0.0000 -0.6124 0.7905
vn -0.0000 -0.6119 0.7910
vn -0.0000 -0.6617 0.7497
vn -0.0000 -0.6371 0.7708
vn -0.0000 -0.6124 0.7906
vn -0.0000 -0.6406 0.7679
vn -0.0000 -0.6371 0.7707
vn -0.0000 -0.6118 0.7910
vn -0.0000 -0.6106 0.7919
vn -0.0000 -0.6107 0.7919
vn -0.0000 -0.6090 0.7932
vn -0.0000 -0.6405 0.7679
vn -0.0001 -0.6249 0.7807
vn -0.0000 -0.6068 0.7948
vn -0.0000 -0.6011 0.7992
vn -0.0000 -0.6041 0.7969
vn -0.0000 -0.5599 0.8286
vn -0.0000 -0.5665 0.8241
vn 0.0002 -0.5764 0.8172
vn 0.0002 -0.5727 0.8198
vn -0.0000 -0.5785 0.8157
vn -0.0002 -0.5928 0.8053
vn -0.0000 -0.5839 0.8118
vn -0.0000 -0.5889 0.8082
vn -0.0000 -0.6091 0.7931
vn -0.0000 -0.5934 0.8049
vn -0.0000 -0.5974 0.8019
vn -0.0000 -0.0000 1.0000
vn 0.0001 -0.0000 1.0000
vn -0.0001 -0.0000 1.0000
vn -0.0000 0.6371 0.7708
vn -0.0000 0.6124 0.7905
vn -0.0000 0.6124 0.7906
vn -0.0000 0.6118 0.7910
vn -0.0000 0.6107 0.7919
vn -0.0000 0.6090 0.7932
vn -0.0000 0.6859 0.7277
vn 0.0001 0.7004 0.7138
vn -0.0000 0.6857 0.7279
vn -0.0000 0.7286 0.6849
vn -0.0003 0.7313 0.6820
vn -0.0000 0.7148 0.6994
vn 0.0001 0.7424 0.6700
vn 0.0002 0.7530 0.6580
vn -0.0000 0.6119 0.7909
vn -0.0000 0.7940 0.6079
vn 0.0001 0.7816 0.6238
vn -0.0003 0.7739 0.6333
vn -0.0000 0.7687 0.6396
vn -0.0000 0.7558 0.6548
vn 0.0002 0.7089 0.7053
vn 0.0001 0.6711 0.7414
vn -0.0003 0.6617 0.7497
vn -0.0000 0.6559 0.7549
vn -0.0000 0.6068 0.7948
vn -0.0001 0.6405 0.7679
vn -0.0000 0.6041 0.7969
vn -0.0000 0.6249 0.7807
vn -0.0000 0.6010 0.7992
vn -0.0000 0.5974 0.8019
vn -0.0000 0.6091 0.7931
vn -0.0000 0.5888 0.8083
vn -0.0000 0.5839 0.8118
vn -0.0001 0.5928 0.8053
vn -0.0000 0.5599 0.8286
vn 0.0002 0.5764 0.8172
vn -0.0000 0.5598 0.8286
vn -0.0000 0.5665 0.8241
vn -0.0001 0.5726 0.8198
vn -0.0000 0.5785 0.8157
vn -0.0000 0.5932 0.8050
vn 1.0000 -0.0000 -0.0000
vn -0.0000 -0.0000 -1.0000
vn -0.0000 -1.0000 -0.0000
vn -0.0000 1.0000 -0.0000
vn -0.0002 -0.0000 -1.0000
vn 0.0002 -0.0000 -1.0000
vn 0.1129 -0.9936 -0.0000
vn 0.0588 -0.9983 -0.0000
vn 0.0587 -0.9983 -0.0000
vn 0.0045 -1.0000 -0.0000
vn -0.0498 -0.9988 -0.0000
vn -0.1039 -0.9946 -0.0000
vn -0.1578 -0.9875 -0.0000
vn -0.1040 -0.9946 -0.0000
vn -0.2112 -0.9774 -0.0000
vn -0.2639 -0.9646 -0.0000
vn -0.2111 -0.9775 -0.0000
vn -0.3159 -0.9488 -0.0000
vn -0.2640 -0.9645 -0.0000
vn -0.3160 -0.9488 -0.0000
vn -0.3670 -0.9302 -0.0000
vn -0.4170 -0.9089 -0.0000
vn -0.4657 -0.8850 -0.0000
vn -0.4656 -0.8850 -0.0000
vn -0.4657 -0.8849 -0.0000
vn -0.5130 -0.8584 -0.0000
vn -0.5131 -0.8583 -0.0000
vn -0.5588 -0.8293 -0.0000
vn -0.5589 -0.8292 -0.0000
vn -0.6031 -0.7976 -0.0000
vn -0.6455 -0.7638 -0.0000
vn -0.6031 -0.7977 -0.0000
vn -0.6860 -0.7276 -0.0000
vn -0.7245 -0.6893 -0.0000
vn -0.7609 -0.6489 -0.0000
vn -0.7245 -0.6892 -0.0000
vn -0.7949 -0.6067 -0.0000
vn -0.7950 -0.6066 -0.0000
vn -0.8267 -0.5627 -0.0000
vn -0.8267 -0.5626 -0.0000
vn -0.8560 -0.5169 -0.0000
vn -0.8561 -0.5169 -0.0000
vn -0.8828 -0.4697 -0.0000
vn -0.8829 -0.4696 -0.0000
vn -0.9070 -0.4211 -0.0000
vn -0.9286 -0.3712 -0.0000
vn -0.9071 -0.4210 -0.0000
vn -0.9474 -0.3202 -0.0000
vn -0.9286 -0.3711 -0.0000
vn -0.9633 -0.2684 -0.0000
vn -0.9473 -0.3202 -0.0000
vn -0.9765 -0.2156 -0.0000
vn -0.9634 -0.2682 -0.0000
vn -0.9765 -0.2155 -0.0000
vn -0.9867 -0.1623 -0.0000
vn -0.9868 -0.1622 -0.0000
vn -0.9941 -0.1085 -0.0000
vn -0.9941 -0.1084 -0.0000
vn -0.9985 -0.0543 -0.0000
vn -0.9985 0.0543 -0.0000
vn -0.9941 0.1084 -0.0000
vn -0.9868 0.1622 -0.0000
vn -0.9941 0.1085 -0.0000
vn -0.9765 0.2155 -0.0000
vn -0.9867 0.1623 -0.0000
vn -0.9634 0.2682 -0.0000
vn -0.9765 0.2156 -0.0000
vn -0.9473 0.3202 -0.0000
vn -0.9633 0.2684 -0.0000
vn -0.9474 0.3202 -0.0000
vn -0.9286 0.3711 -0.0000
vn -0.9286 0.3712 -0.0000
vn -0.9285 0.3712 -0.0000
vn -0.9071 0.4210 -0.0000
vn -0.9070 0.4211 -0.0000
vn -0.8829 0.4696 -0.0000
vn -0.8828 0.4697 -0.0000
vn -0.8561 0.5169 -0.0000
vn -0.8560 0.5170 -0.0000
vn -0.8267 0.5626 -0.0000
vn -0.8560 0.5169 -0.0000
vn -0.7950 0.6066 -0.0000
vn -0.8267 0.5627 -0.0000
vn -0.7609 0.6489 -0.0000
vn -0.7949 0.6067 -0.0000
vn -0.7245 0.6893 -0.0000
vn -0.6860 0.7276 -0.0000
vn -0.6455 0.7638 -0.0000
vn -0.6031 0.7977 -0.0000
vn 0.1129 0.9936 -0.0000
vn 0.0588 0.9983 -0.0000
vn 0.1666 0.9860 -0.0000
vn 0.0045 1.0000 -0.0000
vn 0.0587 0.9983 -0.0000
vn -0.0498 0.9988 -0.0000
vn -0.1039 0.9946 -0.0000
vn -0.1578 0.9875 -0.0000
vn -0.1040 0.9946 -0.0000
vn -0.2112 0.9774 -0.0000
vn -0.2111 0.9775 -0.0000
vn -0.2639 0.9646 -0.0000
vn -0.3159 0.9488 -0.0000
vn -0.2640 0.9645 -0.0000
vn -0.3160 0.9488 -0.0000
vn -0.3670 0.9302 -0.0000
vn -0.3669 0.9303 -0.0000
vn -0.4170 0.9089 -0.0000
vn -0.4169 0.9089 -0.0000
vn -0.4657 0.8850 -0.0000
vn -0.4656 0.8850 -0.0000
vn -0.4657 0.8849 -0.0000
vn -0.5130 0.8584 -0.0000
vn -0.5131 0.8583 -0.0000
vn -0.5588 0.8293 -0.0000
vn -0.5589 0.8292 -0.0000
vn -0.4658 -0.8849 -0.0000
vn -0.4169 -0.9089 -0.0000
vn -0.3669 -0.9303 -0.0000
vn 0.1666 -0.9860 -0.0000
vn 0.0238 0.7067 0.7071
vn 0.0032 0.7071 0.7071
vn 0.0415 0.7059 0.7071
vn 0.0239 0.7067 0.7071
vn 0.0416 0.7059 0.7071
vn 0.0748 0.7031 0.7071
vn -0.0269 0.7066 0.7071
vn -0.0352 0.7062 0.7071
vn -0.0735 0.7033 0.7071
vn -0.0773 0.7029 0.7071
vn -0.1116 0.6982 0.7071
vn -0.0773 0.7027 0.7073
vn -0.1269 0.6956 0.7071
vn -0.1493 0.6912 0.7071
vn -0.1752 0.6851 0.7071
vn -0.1866 0.6820 0.7071
vn -0.2220 0.6714 0.7071
vn -0.2234 0.6709 0.7071
vn -0.2219 0.6714 0.7071
vn -0.2594 0.6578 0.7071
vn -0.2669 0.6548 0.7071
vn -0.2595 0.6578 0.7071
vn -0.3098 0.6356 0.7071
vn -0.2948 0.6427 0.7071
vn -0.3293 0.6258 0.7071
vn -0.3504 0.6142 0.7071
vn -0.3628 0.6069 0.7071
vn -0.3886 0.5908 0.7071
vn -0.3955 0.5871 0.7063
vn -0.3628 0.6070 0.7071
vn -0.4244 0.5656 0.7071
vn -0.3952 0.5864 0.7071
vn -0.4564 0.5401 0.7071
vn -0.4264 0.5640 0.7071
vn -0.4243 0.5656 0.7071
vn -0.4576 0.5391 0.7071
vn -0.4850 0.5145 0.7071
vn -0.4883 0.5114 0.7071
vn -0.4851 0.5145 0.7071
vn -0.5123 0.4874 0.7071
vn -0.5165 0.4829 0.7071
vn -0.5380 0.4588 0.7071
vn -0.5424 0.4537 0.7071
vn -0.5380 0.4589 0.7071
vn -0.5424 0.4536 0.7071
vn -0.5658 0.4241 0.7071
vn -0.5621 0.4290 0.7071
vn -0.5729 0.4145 0.7071
vn -0.5846 0.3978 0.7071
vn -0.5729 0.4144 0.7071
vn -0.5799 0.4046 0.7071
vn -0.5871 0.3942 0.7071
vn -0.5942 0.3833 0.7071
vn -0.6053 0.3655 0.7071
vn -0.6201 0.3399 0.7071
vn -0.6201 0.3397 0.7071
vn -0.6244 0.3321 0.7070
vn -0.6243 0.3321 0.7071
vn -0.6428 0.2946 0.7071
vn -0.6414 0.2977 0.7071
vn -0.6622 0.2479 0.7071
vn -0.6566 0.2624 0.7071
vn -0.6623 0.2478 0.7071
vn -0.6783 0.1998 0.7071
vn -0.6699 0.2264 0.7071
vn -0.6812 0.1897 0.7071
vn -0.6908 0.1508 0.7071
vn -0.6905 0.1525 0.7071
vn -0.6999 0.1010 0.7071
vn -0.6977 0.1148 0.7071
vn -0.6909 0.1507 0.7071
vn -0.7029 0.0767 0.7071
vn -0.6977 0.1147 0.7071
vn -0.6999 0.1009 0.7071
vn -0.7061 0.0384 0.7071
vn -0.7029 0.0766 0.7071
vn -0.7053 0.0506 0.7071
vn -0.7071 -0.0000 0.7071
vn -0.7061 -0.0384 0.7071
vn -0.7053 -0.0506 0.7071
vn -0.7030 -0.0766 0.7071
vn -0.7029 -0.0766 0.7071
vn -0.6999 -0.1009 0.7071
vn -0.6978 -0.1146 0.7071
vn -0.6999 -0.1010 0.7071
vn -0.6909 -0.1507 0.7071
vn -0.6977 -0.1148 0.7071
vn -0.6908 -0.1508 0.7071
vn -0.6812 -0.1896 0.7071
vn -0.6905 -0.1524 0.7071
vn -0.6783 -0.1998 0.7071
vn -0.6699 -0.2264 0.7071
vn -0.6812 -0.1897 0.7071
vn -0.6623 -0.2477 0.7071
vn -0.6566 -0.2623 0.7071
vn -0.6428 -0.2946 0.7071
vn -0.6416 -0.2977 0.7069
vn -0.6566 -0.2624 0.7071
vn -0.6243 -0.3321 0.7071
vn -0.6414 -0.2977 0.7071
vn -0.6054 -0.3655 0.7070
vn -0.6201 -0.3398 0.7071
vn -0.5846 -0.3978 0.7071
vn -0.6053 -0.3655 0.7071
vn -0.5942 -0.3834 0.7071
vn -0.5799 -0.4046 0.7071
vn -0.5870 -0.3942 0.7071
vn -0.5166 -0.4828 0.7071
vn -0.5380 -0.4588 0.7071
vn -0.5424 -0.4537 0.7071
vn -0.5621 -0.4290 0.7071
vn -0.5658 -0.4241 0.7071
vn -0.5123 -0.4874 0.7071
vn -0.4851 -0.5145 0.7071
vn -0.4883 -0.5114 0.7071
vn -0.4564 -0.5401 0.7071
vn -0.4576 -0.5391 0.7071
vn -0.4262 -0.5638 0.7074
vn -0.4242 -0.5657 0.7071
vn -0.5729 -0.4145 0.7071
vn 0.0749 -0.7031 0.7071
vn 0.1179 -0.6972 0.7071
vn 0.0798 -0.7026 0.7071
vn 0.0748 -0.7031 0.7071
vn 0.0799 -0.7027 0.7070
vn 0.0415 -0.7059 0.7071
vn 0.0416 -0.7059 0.7071
vn 0.0242 -0.7069 0.7069
vn 0.0032 -0.7071 0.7071
vn 0.0242 -0.7067 0.7071
vn -0.0265 -0.7069 0.7069
vn -0.0352 -0.7062 0.7071
vn -0.0265 -0.7066 0.7071
vn -0.0768 -0.7029 0.7071
vn -0.0735 -0.7033 0.7071
vn -0.1116 -0.6982 0.7071
vn -0.1263 -0.6957 0.7071
vn -0.1493 -0.6912 0.7071
vn -0.1494 -0.6912 0.7071
vn -0.1746 -0.6852 0.7071
vn -0.1866 -0.6820 0.7071
vn -0.1492 -0.6912 0.7071
vn -0.2214 -0.6716 0.7071
vn -0.1867 -0.6820 0.7071
vn -0.2215 -0.6715 0.7071
vn -0.2234 -0.6709 0.7071
vn -0.2214 -0.6715 0.7071
vn -0.2233 -0.6709 0.7071
vn -0.2594 -0.6578 0.7071
vn -0.2595 -0.6578 0.7071
vn -0.2664 -0.6550 0.7071
vn -0.2948 -0.6427 0.7071
vn -0.2665 -0.6550 0.7071
vn -0.3094 -0.6358 0.7071
vn -0.3293 -0.6258 0.7071
vn -0.3093 -0.6358 0.7071
vn -0.3501 -0.6143 0.7071
vn -0.3293 -0.6257 0.7071
vn -0.3501 -0.6144 0.7071
vn -0.3628 -0.6070 0.7071
vn -0.3627 -0.6070 0.7071
vn -0.3884 -0.5909 0.7071
vn -0.3952 -0.5864 0.7071
vn -0.4243 -0.5657 0.7071
vn -0.4264 -0.5641 0.7071
vn -0.5166 -0.4829 0.7071
vn -0.5381 -0.4590 0.7069
vn -0.5622 -0.4290 0.7070
vn -0.5728 -0.4145 0.7071
vn -0.5942 -0.3833 0.7071
vn -0.6201 -0.3399 0.7071
vn -0.6622 -0.2479 0.7071
vn -0.6623 -0.2478 0.7071
vn -0.6908 -0.1508 0.7072
vn -0.7061 0.0385 0.7071
vn -0.7030 0.0766 0.7071
vn -0.6905 0.1524 0.7071
vn -0.6568 0.2625 0.7069
vn -0.6201 0.3398 0.7071
vn -0.5942 0.3834 0.7071
vn -0.5870 0.3942 0.7071
vn -0.5846 0.3979 0.7071
vn -0.5847 0.3979 0.7070
vn -0.5622 0.4291 0.7070
vn -0.2235 0.6709 0.7071
vn -0.1867 0.6820 0.7071
vn -0.0269 0.7067 0.7070
vn 0.0239 0.7069 0.7069
vn -0.0270 0.7066 0.7071
vn 0.0798 0.7026 0.7071
vn 0.1179 0.6972 0.7071
vn 0.0749 0.7031 0.7071
vn 0.0415 0.7060 0.7070
vn -0.0000 0.1480 0.9890
vn -0.0000 0.2928 0.9562
vn -0.0000 0.2927 0.9562
vn -0.0000 0.1690 0.9856
vn -0.0000 0.4310 0.9024
vn -0.0000 0.4459 0.8951
vn -0.0001 0.4459 0.8951
vn -0.0000 0.3165 0.9486
vn -0.0000 0.3164 0.9486
vn -0.0000 0.4311 0.9023
vn -0.0000 -0.3165 0.9486
vn -0.0000 -0.4459 0.8951
vn -0.0000 -0.3164 0.9486
vn -0.0000 -0.4311 0.9023
vn -0.0000 -0.1480 0.9890
vn -0.0000 -0.2928 0.9562
vn -0.0000 -0.2927 0.9562
vn -0.0000 -0.1687 0.9857
vn -0.0000 -0.1689 0.9856
vn -0.0000 -0.4310 0.9024
vn -0.0000 -0.3163 0.9487
s 1
usemtl Diffuse_51_51_51_100.029
f 1//1 2//1 3//1
f 1//1 3//1 4//1
f 3//1 5//1 4//1
f 5//1 6//1 4//1
f 4//1 7//1 8//1
f 4//1 8//1 9//1
f 8//1 10//1 9//1
f 9//1 10//1 11//1
f 7//1 4//1 6//1
f 9//1 11//1 12//1
f 13//2 14//2 15//3
f 16//4 17//2 15//3
f 18//5 19//4 15//6
f 18//5 20//7 21//4
f 22//7 18//5 23//8
f 24//9 25//7 23//10
f 24//11 26//12 27//7
f 28//13 29//14 30//15
f 24//16 28//13 31//17
f 32//17 29//14 33//18
f 34//18 29//14 35//19
f 36//20 37//18 35//19
f 38//21 39//20 35//19
f 38//21 40//22 41//20
f 42//20 40//23 43//24
f 44//24 40//22 45//25
f 46//26 47//27 48//28
f 49//26 50//29 45//25
f 47//27 51//30 52//31
f 53//32 54//33 45//25
f 55//34 56//26 57//35
f 57//36 58//30 59//37
f 53//38 60//39 61//40
f 60//39 62//41 63//42
f 64//43 65//44 66//45
f 66//45 67//43 64//43
f 68//46 66//45 65//44
f 68//46 69//47 66//45
f 66//45 69//47 70//48
f 70//48 69//47 71//49
f 72//50 70//48 71//49
f 72//50 73//51 70//48
f 72//50 74//52 73//51
f 73//51 74//52 75//53
f 62//41 73//51 75//53
f 62//41 60//39 73//51
f 63//42 61//40 60//39
f 61//40 59//37 53//38
f 53//38 59//37 76//26
f 77//26 55//34 52//31
f 78//54 79//55 80//54
f 81//54 82//54 80//54
f 83//54 81//54 80//54
f 84//54 83//54 80//54
f 85//54 84//54 80//54
f 86//54 85//54 80//54
f 87//56 86//54 80//54
f 88//55 87//56 80//54
f 79//55 88//55 80//54
f 89//55 79//55 78//54
f 78//54 90//54 89//55
f 78//54 91//54 90//54
f 78//54 92//54 91//54
f 78//54 93//54 92//54
f 94//54 78//54 95//54
f 94//54 96//54 78//54
f 78//54 96//54 93//54
f 97//57 98//58 99//59
f 100//60 97//57 99//59
f 100//60 101//61 97//57
f 97//57 101//61 102//62
f 103//63 104//64 105//65
f 106//66 107//67 108//68
f 109//69 110//70 107//67
f 111//71 98//58 97//57
f 112//72 113//73 114//72
f 112//72 115//74 113//73
f 113//73 115//74 116//75
f 116//75 115//74 110//70
f 117//76 116//75 110//70
f 109//69 117//76 110//70
f 107//67 118//77 108//68
f 108//68 118//77 104//64
f 104//64 118//77 105//65
f 119//78 105//65 120//79
f 120//79 97//57 121//80
f 102//62 122//81 123//82
f 122//81 124//83 125//84
f 126//85 127//86 128//87
f 129//88 130//89 131//90
f 132//91 133//92 134//93
f 134//93 133//92 135//94
f 135//94 133//92 136//95
f 136//95 133//92 137//96
f 137//96 133//92 131//90
f 130//89 137//96 131//90
f 129//88 131//90 128//87
f 138//97 129//88 128//87
f 126//85 125//84 124//83
f 126//85 128//87 125//84
f 125//84 123//82 122//81
f 123//82 97//57 102//62
f 123//82 121//80 97//57
f 121//80 119//78 120//79
f 105//65 119//78 103//63
f 109//69 107//67 106//66
f 138//97 128//87 127//86
f 139//1 140//1 141//1
f 139//1 142//1 143//1
f 139//1 144//1 145//1
f 139//1 146//1 147//1
f 141//1 148//1 149//1
f 141//1 150//1 151//1
f 141//1 152//1 153//1
f 154//1 155//1 156//1
f 141//1 157//1 158//1
f 155//1 141//1 159//1
f 160//98 161//98 162//98
f 163//98 164//98 165//98
s 0
f 166//98 167//98 168//98
f 167//98 169//98 170//98
f 169//99 171//98 172//98
s 1
f 173//98 174//98 175//98
f 176//98 177//98 178//98
f 179//98 180//98 181//98
f 182//98 183//98 184//98
f 185//98 186//98 187//98
f 188//98 189//98 190//98
f 191//98 192//98 193//98
f 194//98 195//98 196//98
f 197//98 198//98 199//98
f 200//98 201//98 202//98
f 203//98 204//98 205//98
f 206//98 207//98 208//98
f 209//98 210//98 211//98
f 212//98 213//98 214//98
f 215//98 216//98 217//98
f 218//98 219//98 220//98
f 216//98 221//98 222//98
f 223//98 224//98 216//98
f 225//98 226//98 227//98
f 228//98 229//98 227//98
f 230//98 231//98 227//98
f 232//98 233//98 227//98
f 234//98 235//98 227//98
f 236//98 237//98 227//98
f 238//98 239//98 227//98
f 227//98 240//98 216//98
f 241//98 242//98 216//98
f 243//98 244//98 216//98
f 245//98 246//98 216//98
f 247//98 227//98 248//98
f 249//98 250//98 251//98
f 252//98 253//98 216//98
f 254//98 255//98 256//98
s 0
f 257//98 258//98 259//99
s 1
f 260//98 261//98 259//98
s 0
f 262//98 263//98 257//98
s 1
f 264//98 265//98 266//98
f 267//100 268//100 269//100
f 270//100 271//100 272//100
f 273//101 274//101 275//101
f 276//101 277//101 278//101
f 279//99 280//99 281//99
f 282//99 283//99 284//99
f 285//99 286//99 287//99
f 288//99 289//99 285//99
f 290//99 291//99 289//99
f 292//99 293//99 291//99
f 294//99 295//99 293//99
f 296//99 297//99 295//99
f 298//99 299//99 297//99
f 300//99 301//99 299//99
f 302//99 303//99 301//99
f 304//99 305//99 303//99
f 306//99 307//99 305//99
f 308//99 309//99 307//99
f 310//99 311//99 309//99
f 309//99 312//99 313//99
f 313//99 314//99 315//99
f 315//99 316//99 317//99
f 317//99 318//99 319//99
f 319//99 320//99 321//99
f 321//99 322//99 323//99
f 323//99 324//99 325//99
f 325//99 326//99 327//99
f 327//99 328//99 329//99
f 329//99 330//99 331//99
f 332//99 333//99 334//99
f 335//102 333//102 336//102
f 337//99 332//99 338//99
f 339//99 337//99 340//99
f 341//99 339//99 342//99
f 343//99 341//99 344//99
f 345//99 343//99 346//99
f 347//99 345//99 348//99
f 284//99 347//99 349//99
f 350//99 351//99 284//99
f 352//99 353//99 283//99
f 354//99 355//99 353//99
f 356//99 357//99 355//99
f 358//99 359//99 357//99
f 360//99 361//99 359//99
f 362//99 363//99 364//99
f 362//99 365//99 366//99
f 364//103 367//103 368//103
f 368//99 369//99 370//99
f 370//99 371//99 372//99
f 372//99 373//99 374//99
f 374//99 375//99 376//99
f 376//99 377//99 378//99
f 378//99 379//99 380//99
f 380//99 381//99 382//99
f 382//99 383//99 384//99
f 384//99 385//99 386//99
f 386//99 387//99 388//99
f 388//99 389//99 390//99
f 391//99 281//99 388//99
f 392//99 280//99 393//99
f 394//99 392//99 395//99
f 396//99 394//99 397//99
f 398//99 399//99 396//99
f 400//99 401//99 399//99
f 402//99 403//99 401//99
f 404//99 405//99 403//99
f 406//99 407//99 405//99
f 331//99 408//99 336//99
f 409//99 410//99 407//99
f 411//99 365//99 361//99
f 410//99 412//99 413//99
f 414//104 415//105 416//104
f 417//106 418//107 419//106
f 420//107 421//107 419//106
f 422//108 423//108 421//107
f 424//109 425//109 423//108
f 426//110 427//110 425//111
f 428//112 427//110 429//110
f 430//113 431//114 432//114
f 433//113 431//114 434//113
f 435//115 433//116 436//115
f 435//117 437//117 438//118
f 439//118 440//118 441//119
f 442//119 443//119 444//120
f 442//119 445//121 446//121
f 446//122 447//123 448//123
f 449//124 450//125 448//124
f 451//126 452//127 453//126
f 454//127 455//127 453//126
f 456//128 457//128 455//129
f 458//130 457//128 459//128
f 460//131 461//130 462//130
f 463//131 461//130 464//131
f 465//132 463//133 466//132
f 465//132 467//132 468//134
f 469//135 470//135 471//136
f 469//135 472//137 473//136
f 473//136 474//138 475//138
f 476//139 477//140 475//139
f 478//141 479//142 480//141
f 481//142 482//142 480//141
f 483//143 484//143 482//144
f 485//145 484//146 486//146
f 487//147 488//148 489//148
f 490//147 488//148 491//147
f 492//149 490//150 493//149
f 492//151 494//151 495//152
f 496//153 497//153 498//154
f 496//153 499//154 500//154
f 500//155 501//156 502//156
f 503//156 504//1 502//156
f 505//1 506//157 507//1
f 508//157 509//157 507//1
f 510//158 511//158 509//157
f 512//159 511//160 513//160
f 514//161 515//162 516//162
f 517//163 518//164 519//164
f 520//163 518//164 521//163
f 522//165 520//166 523//165
f 522//167 524//167 525//168
f 526//169 527//170 528//171
f 526//170 529//171 530//171
f 530//172 531//173 532//173
f 533//174 534//175 532//174
f 535//176 536//177 537//176
f 538//177 539//177 537//178
f 540//179 541//179 539//180
f 542//181 541//182 543//182
f 544//183 545//181 546//181
f 547//183 545//181 548//183
f 549//184 547//183 550//184
f 549//184 551//184 552//185
f 553//185 554//185 555//186
f 553//185 556//186 557//186
f 558//187 559//188 560//187
f 561//189 562//189 558//187
f 563//189 558//187 564//187
f 559//188 565//188 566//187
f 567//190 568//191 559//191
f 569//190 570//191 567//190
f 571//190 567//190 572//192
f 573//190 572//192 574//192
f 572//192 575//193 576//192
f 575//193 577//193 578//192
f 579//194 580//195 575//195
f 581//194 582//195 579//194
f 583//194 579//194 584//196
f 585//194 584//196 586//196
f 584//197 587//198 588//197
f 587//198 589//198 590//197
f 591//199 592//200 587//200
f 593//199 594//200 591//199
f 595//201 591//201 596//202
f 597//201 596//203 598//203
f 596//202 599//204 600//202
f 599//205 601//205 602//202
f 603//206 604//204 599//204
f 605//207 606//204 603//207
f 607//208 603//208 608//209
f 609//208 608//209 610//209
f 608//210 611//211 612//210
f 611//211 613//211 614//209
f 557//186 615//212 611//212
f 616//186 617//212 557//186
f 549//184 618//185 553//185
f 547//183 619//183 620//184
f 545//181 541//182 621//181
f 622//179 539//177 623//180
f 624//175 537//175 532//174
f 625//172 626//173 530//172
f 522//167 627//168 526//168
f 520//166 628//166 629//165
f 518//161 515//162 630//161
f 515//159 511//160 631//159
f 632//158 509//157 633//157
f 634//1 507//1 502//156
f 635//155 636//156 500//155
f 492//151 637//152 496//152
f 490//150 638//150 639//149
f 488//145 484//146 640//145
f 641//143 482//144 642//144
f 643//140 480//140 475//139
f 644//136 645//138 473//136
f 465//132 646//134 469//134
f 463//131 647//131 648//132
f 461//130 457//128 649//130
f 650//128 455//129 651//129
f 652//125 453//125 448//123
f 653//213 654//123 446//213
f 439//118 655//214 442//214
f 435//117 656//215 439//215
f 433//116 657//116 658//115
f 659//111 660//110 425//111
f 421//107 661//107 662//108
f 416//104 663//216 664//104
f 416//104 665//216 666//216
f 667//112 431//112 427//110
f 423//108 668//108 669//109
f 419//105 416//104 670//105
f 671//217 672//218 673//219
f 674//220 675//221 676//222
f 677//223 678//224 679//218
f 680//225 681//224 682//226
f 683//227 684//228 685//229
f 686//230 687//229 688//231
f 689//232 690//231 691//233
f 692//234 693//235 694//236
f 695//233 696//237 697//238
f 698//237 699//239 700//240
f 701//239 702//241 703//240
f 704//242 705//243 706//241
f 707//244 708//245 709//246
f 710//247 711//248 712//244
f 713//249 714//250 715//251
f 716//249 717//247 718//252
f 719//249 720//252 721//253
f 722//252 723//254 724//255
f 725//256 726//257 727//258
f 728//254 729//256 730//255
f 731//257 732//259 733//260
f 734//261 735//262 736//263
f 737//262 738//264 739//265
f 738//266 740//267 741//265
f 742//265 743//268 744//269
f 745//270 746//269 747//271
f 748//270 749//272 750//273
f 751//274 752//275 753//276
f 754//275 755//277 756//278
f 757//279 758//280 759//281
f 760//280 761//282 762//281
f 763//283 764//284 765//282
f 766//285 767//286 768//287
f 769//288 770//289 771//290
f 772//291 773//292 774//293
f 775//294 776//291 777//294
f 778//295 779//294 780//294
f 781//295 782//294 783//296
f 784//295 785//296 786//297
f 787//298 788//299 789//300
f 790//301 791//302 792//303
f 793//304 794//305 795//306
f 796//307 797//308 798//309
f 799//310 800//311 801//308
f 802//312 803//313 804//314
f 805//315 806//316 807//312
f 808//317 809//315 810//318
f 811//319 812//320 813//321
f 814//322 815//319 816//323
f 817//324 818//325 819//326
f 820//327 821//328 822//326
f 823//329 824//325 825//324
f 826//330 827//329 828//331
f 829//332 830//330 831//333
f 832//334 833//332 834//335
f 835//336 836//328 837//319
f 838//337 839//338 840//339
f 841//340 842//341 843//342
f 844//340 845//343 846//344
f 847//342 848//345 849//346
f 850//345 851//347 852//346
f 853//348 854//349 855//345
f 856//350 857//349 858//348
f 859//350 860//348 861//351
f 862//350 863//351 864//352
f 865//350 866//352 867//353
f 868//352 869//354 870//353
f 871//355 872//356 873//353
f 874//357 875//356 876//358
f 877//359 878//356 879//360
f 880//361 881//357 882//362
f 883//363 884//364 885//365
f 886//363 887//366 888//367
f 889//366 890//368 891//369
f 892//368 893//370 894//369
f 895//371 896//372 897//368
f 898//373 899//370 900//374
f 901//375 902//371 903//376
f 904//373 905//377 906//378
f 907//376 908//379 909//378
f 910//379 911//380 912//378
f 913//381 914//335 915//379
f 916//332 917//333 918//335
f 919//330 920//331 921//333
f 922//329 923//382 924//331
f 925//383 926//327 927//326
f 928//384 929//319 930//328
f 931//319 814//322 835//385
f 932//386 816//323 933//319
f 934//387 935//386 936//320
f 937//312 938//318 939//315
f 940//314 941//388 942//312
f 943//308 944//307 945//389
f 946//309 947//304 948//307
f 949//306 950//303 951//390
f 952//299 953//297 954//296
f 955//391 956//293 957//294
f 958//392 959//290 960//293
f 961//286 962//393 963//283
f 964//283 965//282 966//280
f 967//279 968//281 969//278
f 970//275 971//394 972//276
f 973//395 974//275 975//274
f 976//265 977//396 978//270
f 740//267 743//397 979//398
f 980//262 981//399 982//263
f 983//259 984//400 985//260
f 986//254 987//257 988//256
f 989//251 990//250 991//248
f 992//242 993//244 994//246
f 995//239 996//242 997//241
f 998//233 999//401 1000//402
f 1001//227 1002//229 1003//230
f 1004//225 1005//226 1006//227
f 1007//224 1008//403 1009//226
f 1010//404 1011//405 1012//218
f 1013//406 1014//407 1015//408
f 1016//231 1017//232 1018//230
f 1019//240 1020//238 1021//237
f 1022//409 1023//406 1024//222
f 95//54 78//54 1025//410
f 1026//410 1027//411 95//54
f 95//54 1028//412 1029//413
s 0
f 1030//413 1031//54 1032//414
s 1
f 1033//415 132//91 134//93
f 1034//416 1035//417 132//91
f 1036//418 1037//413 1038//414
f 1039//417 1040//419 132//91
f 67//43 1041//420 1042//421
f 64//43 67//43 1043//421
f 1044//422 67//43 1045//423
f 80//54 82//54 1046//424
f 1047//424 82//54 1048//425
f 1049//426 82//54 1050//427
s 0
f 1051//54 1052//425 1053//428
s 1
f 1054//429 1055//428 1056//430
