# Blender 4.4.3
# www.blender.org
mtllib Mesh_20.006.mtl
o Mesh_20.006
v 0.017290 0.008710 -0.005552
v 0.017290 0.008710 -0.005543
v 0.017290 0.008716 -0.005537
v 0.017290 0.008773 -0.005552
v 0.017290 0.008721 -0.005530
v 0.017290 0.008726 -0.005524
v 0.017290 0.008732 -0.005519
v 0.017290 0.008738 -0.005513
v 0.017290 0.008773 -0.005515
v 0.017290 0.008744 -0.005508
v 0.017290 0.008750 -0.005502
v 0.017290 0.008756 -0.005497
v 0.017290 0.008710 -0.005543
v 0.017375 0.008710 -0.005543
v 0.017375 0.008714 -0.005539
v 0.017290 0.008716 -0.005537
v 0.017290 0.008710 -0.005543
v 0.017375 0.008717 -0.005535
v 0.017290 0.008716 -0.005537
v 0.017290 0.008721 -0.005530
v 0.017290 0.008716 -0.005537
v 0.017290 0.008721 -0.005530
v 0.017375 0.008720 -0.005531
v 0.017375 0.008723 -0.005527
v 0.017290 0.008721 -0.005530
v 0.017290 0.008726 -0.005524
v 0.017290 0.008721 -0.005530
v 0.017375 0.008727 -0.005524
v 0.017375 0.008730 -0.005520
v 0.017290 0.008726 -0.005524
v 0.017290 0.008726 -0.005524
v 0.017290 0.008726 -0.005524
v 0.017290 0.008732 -0.005519
v 0.017290 0.008732 -0.005519
v 0.017375 0.008734 -0.005517
v 0.017290 0.008738 -0.005513
v 0.017290 0.008732 -0.005519
v 0.017375 0.008738 -0.005513
v 0.017290 0.008738 -0.005513
v 0.017375 0.008741 -0.005510
v 0.017290 0.008738 -0.005513
v 0.017290 0.008738 -0.005513
v 0.017290 0.008744 -0.005508
v 0.017290 0.008744 -0.005508
v 0.017375 0.008745 -0.005506
v 0.017290 0.008750 -0.005502
v 0.017293 0.008756 -0.005497
v 0.017290 0.008756 -0.005497
v 0.017290 0.008750 -0.005502
v 0.017290 0.008744 -0.005508
v 0.017290 0.008750 -0.005502
v 0.017297 0.008756 -0.005497
v 0.017375 0.008749 -0.005503
v 0.017290 0.008750 -0.005502
v 0.017300 0.008756 -0.005497
v 0.017290 0.008750 -0.005502
v 0.017304 0.008756 -0.005497
v 0.017290 0.008750 -0.005502
v 0.017307 0.008757 -0.005497
v 0.017375 0.008753 -0.005500
v 0.017310 0.008757 -0.005496
v 0.017317 0.008759 -0.005495
v 0.017313 0.008758 -0.005496
v 0.017340 0.008769 -0.005488
v 0.017338 0.008767 -0.005489
v 0.017375 0.008765 -0.005491
v 0.017375 0.008769 -0.005488
v 0.017335 0.008766 -0.005490
v 0.017332 0.008764 -0.005491
v 0.017375 0.008761 -0.005494
v 0.017329 0.008763 -0.005492
v 0.017326 0.008762 -0.005493
v 0.017375 0.008757 -0.005497
v 0.017323 0.008761 -0.005494
v 0.017320 0.008760 -0.005494
v 0.017290 0.008750 -0.005502
v 0.017290 0.008750 -0.005502
v 0.017375 0.008834 -0.005487
v 0.017352 0.008803 -0.005487
v 0.017375 0.008772 -0.005487
v 0.017345 0.008775 -0.005487
v 0.017343 0.008772 -0.005487
v 0.017347 0.008779 -0.005487
v 0.017349 0.008783 -0.005487
v 0.017350 0.008787 -0.005487
v 0.017351 0.008791 -0.005487
v 0.017352 0.008795 -0.005487
v 0.017352 0.008799 -0.005487
v 0.017352 0.008807 -0.005487
v 0.017352 0.008811 -0.005487
v 0.017351 0.008815 -0.005487
v 0.017350 0.008819 -0.005487
v 0.017349 0.008823 -0.005487
v 0.017345 0.008831 -0.005487
v 0.017343 0.008834 -0.005487
v 0.017347 0.008827 -0.005487
v 0.017290 0.008856 -0.005502
v 0.017293 0.008850 -0.005497
v 0.017297 0.008850 -0.005497
v 0.017300 0.008850 -0.005497
v 0.017303 0.008850 -0.005497
v 0.017307 0.008849 -0.005497
v 0.017375 0.008868 -0.005513
v 0.017375 0.008872 -0.005517
v 0.017290 0.008868 -0.005513
v 0.017375 0.008879 -0.005524
v 0.017290 0.008880 -0.005524
v 0.017375 0.008876 -0.005520
v 0.017375 0.008883 -0.005527
v 0.017290 0.008885 -0.005530
v 0.017290 0.008850 -0.005497
v 0.017290 0.008895 -0.005543
v 0.017375 0.008892 -0.005539
v 0.017375 0.008895 -0.005543
v 0.017290 0.008890 -0.005537
v 0.017375 0.008889 -0.005535
v 0.017375 0.008886 -0.005531
v 0.017290 0.008874 -0.005519
v 0.017375 0.008865 -0.005510
v 0.017290 0.008862 -0.005508
v 0.017375 0.008861 -0.005506
v 0.017310 0.008849 -0.005496
v 0.017375 0.008857 -0.005503
v 0.017313 0.008848 -0.005496
v 0.017375 0.008853 -0.005500
v 0.017317 0.008847 -0.005495
v 0.017320 0.008846 -0.005494
v 0.017375 0.008849 -0.005497
v 0.017326 0.008844 -0.005493
v 0.017329 0.008843 -0.005492
v 0.017375 0.008845 -0.005494
v 0.017375 0.008837 -0.005488
v 0.017375 0.008841 -0.005491
v 0.017340 0.008837 -0.005488
v 0.017338 0.008839 -0.005489
v 0.017335 0.008840 -0.005490
v 0.017332 0.008842 -0.005491
v 0.017323 0.008845 -0.005494
v 0.017290 0.008833 -0.005515
v 0.017290 0.008868 -0.005513
v 0.017290 0.008833 -0.005552
v 0.017290 0.008850 -0.005497
v 0.017290 0.008856 -0.005502
v 0.017290 0.008856 -0.005502
v 0.017290 0.008862 -0.005508
v 0.017290 0.008862 -0.005508
v 0.017290 0.008868 -0.005513
v 0.017290 0.008868 -0.005513
v 0.017290 0.008874 -0.005519
v 0.017290 0.008874 -0.005519
v 0.017290 0.008880 -0.005524
v 0.017290 0.008880 -0.005524
v 0.017290 0.008885 -0.005530
v 0.017290 0.008895 -0.005543
v 0.017290 0.008895 -0.005552
v 0.017290 0.008890 -0.005537
v 0.017290 0.008885 -0.005530
v 0.017290 0.008890 -0.005537
v 0.017290 0.008890 -0.005537
v 0.017375 0.008845 -0.005494
v 0.017375 0.008834 -0.005487
v 0.017375 0.008772 -0.005487
v 0.017375 0.008761 -0.005494
v 0.017375 0.008772 -0.005487
v 0.017375 0.008765 -0.005491
v 0.017375 0.008772 -0.005487
v 0.017375 0.008771 -0.005487
v 0.017375 0.008769 -0.005488
v 0.017375 0.008770 -0.005487
v 0.017375 0.008769 -0.005488
v 0.017375 0.008770 -0.005487
v 0.017375 0.008769 -0.005488
v 0.017375 0.008772 -0.005487
v 0.017375 0.008769 -0.005488
v 0.017375 0.008765 -0.005491
v 0.017375 0.008845 -0.005494
v 0.017375 0.008772 -0.005487
v 0.017375 0.008761 -0.005494
v 0.017375 0.008845 -0.005494
v 0.017375 0.008761 -0.005494
v 0.017375 0.008849 -0.005497
v 0.017375 0.008761 -0.005494
v 0.017375 0.008757 -0.005497
v 0.017375 0.008849 -0.005497
v 0.017375 0.008757 -0.005497
v 0.017375 0.008853 -0.005500
v 0.017375 0.008849 -0.005497
v 0.017375 0.008753 -0.005500
v 0.017375 0.008853 -0.005500
v 0.017375 0.008757 -0.005497
v 0.017375 0.008857 -0.005503
v 0.017375 0.008853 -0.005500
v 0.017375 0.008753 -0.005500
v 0.017375 0.008857 -0.005503
v 0.017375 0.008753 -0.005500
v 0.017375 0.008749 -0.005503
v 0.017375 0.008857 -0.005503
v 0.017375 0.008749 -0.005503
v 0.017375 0.008861 -0.005506
v 0.017375 0.008749 -0.005503
v 0.017375 0.008745 -0.005506
v 0.017375 0.008861 -0.005506
v 0.017375 0.008745 -0.005506
v 0.017375 0.008865 -0.005510
v 0.017375 0.008861 -0.005506
v 0.017375 0.008741 -0.005510
v 0.017375 0.008865 -0.005510
v 0.017375 0.008745 -0.005506
v 0.017375 0.008868 -0.005513
v 0.017375 0.008865 -0.005510
v 0.017375 0.008741 -0.005510
v 0.017375 0.008868 -0.005513
v 0.017375 0.008741 -0.005510
v 0.017375 0.008738 -0.005513
v 0.017375 0.008710 -0.005543
v 0.017375 0.008710 -0.005552
v 0.017375 0.008714 -0.005539
v 0.017375 0.008868 -0.005513
v 0.017375 0.008738 -0.005513
v 0.017375 0.008872 -0.005517
v 0.017375 0.008720 -0.005531
v 0.017375 0.008717 -0.005535
v 0.017375 0.008734 -0.005517
v 0.017375 0.008730 -0.005520
v 0.017375 0.008895 -0.005543
v 0.017375 0.008892 -0.005539
v 0.017375 0.008895 -0.005552
v 0.017375 0.008892 -0.005539
v 0.017375 0.008889 -0.005535
v 0.017375 0.008889 -0.005535
v 0.017375 0.008886 -0.005531
v 0.017375 0.008886 -0.005531
v 0.017375 0.008883 -0.005527
v 0.017375 0.008883 -0.005527
v 0.017375 0.008879 -0.005524
v 0.017375 0.008879 -0.005524
v 0.017375 0.008876 -0.005520
v 0.017375 0.008876 -0.005520
v 0.017375 0.008872 -0.005517
v 0.017375 0.008734 -0.005517
v 0.017375 0.008730 -0.005520
v 0.017375 0.008727 -0.005524
v 0.017375 0.008727 -0.005524
v 0.017375 0.008723 -0.005527
v 0.017375 0.008723 -0.005527
v 0.017375 0.008720 -0.005531
v 0.017375 0.008734 -0.005517
v 0.017375 0.008872 -0.005517
v 0.017375 0.008872 -0.005517
v 0.017375 0.008738 -0.005513
v 0.017375 0.008734 -0.005517
v 0.017375 0.008717 -0.005535
v 0.017375 0.008714 -0.005539
v 0.017375 0.008845 -0.005494
v 0.017375 0.008841 -0.005491
v 0.017375 0.008834 -0.005487
v 0.017375 0.008836 -0.005487
v 0.017375 0.008834 -0.005487
v 0.017375 0.008836 -0.005487
v 0.017375 0.008834 -0.005487
v 0.017375 0.008837 -0.005488
v 0.017375 0.008835 -0.005487
v 0.017375 0.008834 -0.005487
v 0.017375 0.008837 -0.005488
v 0.017375 0.008834 -0.005487
v 0.017375 0.008841 -0.005491
v 0.017375 0.008710 -0.005552
v 0.017375 0.008710 -0.005543
v 0.017290 0.008710 -0.005552
v 0.017375 0.008710 -0.005543
v 0.017290 0.008710 -0.005543
v 0.017290 0.008710 -0.005552
v 0.017290 0.008895 -0.005552
v 0.017290 0.008895 -0.005543
v 0.017375 0.008895 -0.005552
v 0.017290 0.008895 -0.005543
v 0.017375 0.008895 -0.005543
v 0.017375 0.008895 -0.005552
v 0.017290 0.008710 -0.005552
v 0.017306 0.008775 -0.005552
v 0.017308 0.008776 -0.005552
v 0.017375 0.008710 -0.005552
v 0.017325 0.008801 -0.005552
v 0.017325 0.008803 -0.005552
v 0.017292 0.008833 -0.005552
v 0.017290 0.008833 -0.005552
v 0.017290 0.008895 -0.005552
v 0.017290 0.008895 -0.005552
v 0.017293 0.008833 -0.005552
v 0.017290 0.008895 -0.005552
v 0.017295 0.008833 -0.005552
v 0.017290 0.008895 -0.005552
v 0.017296 0.008833 -0.005552
v 0.017290 0.008895 -0.005552
v 0.017298 0.008833 -0.005552
v 0.017290 0.008895 -0.005552
v 0.017300 0.008833 -0.005552
v 0.017290 0.008895 -0.005552
v 0.017301 0.008832 -0.005552
v 0.017290 0.008895 -0.005552
v 0.017303 0.008832 -0.005552
v 0.017290 0.008895 -0.005552
v 0.017304 0.008831 -0.005552
v 0.017290 0.008895 -0.005552
v 0.017306 0.008831 -0.005552
v 0.017290 0.008895 -0.005552
v 0.017308 0.008830 -0.005552
v 0.017290 0.008895 -0.005552
v 0.017309 0.008830 -0.005552
v 0.017290 0.008895 -0.005552
v 0.017375 0.008895 -0.005552
v 0.017375 0.008895 -0.005552
v 0.017310 0.008829 -0.005552
v 0.017375 0.008895 -0.005552
v 0.017312 0.008828 -0.005552
v 0.017375 0.008895 -0.005552
v 0.017313 0.008827 -0.005552
v 0.017375 0.008895 -0.005552
v 0.017314 0.008826 -0.005552
v 0.017375 0.008895 -0.005552
v 0.017316 0.008825 -0.005552
v 0.017375 0.008895 -0.005552
v 0.017317 0.008824 -0.005552
v 0.017375 0.008895 -0.005552
v 0.017318 0.008822 -0.005552
v 0.017375 0.008895 -0.005552
v 0.017319 0.008821 -0.005552
v 0.017375 0.008895 -0.005552
v 0.017320 0.008820 -0.005552
v 0.017375 0.008895 -0.005552
v 0.017321 0.008819 -0.005552
v 0.017323 0.008814 -0.005552
v 0.017322 0.008816 -0.005552
v 0.017375 0.008895 -0.005552
v 0.017375 0.008895 -0.005552
v 0.017321 0.008817 -0.005552
v 0.017323 0.008813 -0.005552
v 0.017375 0.008895 -0.005552
v 0.017324 0.008811 -0.005552
v 0.017375 0.008895 -0.005552
v 0.017324 0.008809 -0.005552
v 0.017375 0.008895 -0.005552
v 0.017325 0.008808 -0.005552
v 0.017375 0.008895 -0.005552
v 0.017325 0.008806 -0.005552
v 0.017375 0.008895 -0.005552
v 0.017325 0.008805 -0.005552
v 0.017375 0.008895 -0.005552
v 0.017375 0.008895 -0.005552
v 0.017375 0.008895 -0.005552
v 0.017375 0.008710 -0.005552
v 0.017375 0.008710 -0.005552
v 0.017325 0.008800 -0.005552
v 0.017375 0.008710 -0.005552
v 0.017325 0.008798 -0.005552
v 0.017375 0.008710 -0.005552
v 0.017324 0.008797 -0.005552
v 0.017375 0.008710 -0.005552
v 0.017324 0.008795 -0.005552
v 0.017375 0.008710 -0.005552
v 0.017323 0.008793 -0.005552
v 0.017322 0.008790 -0.005552
v 0.017375 0.008710 -0.005552
v 0.017321 0.008789 -0.005552
v 0.017323 0.008792 -0.005552
v 0.017375 0.008710 -0.005552
v 0.017375 0.008710 -0.005552
v 0.017321 0.008787 -0.005552
v 0.017375 0.008710 -0.005552
v 0.017320 0.008786 -0.005552
v 0.017375 0.008710 -0.005552
v 0.017319 0.008785 -0.005552
v 0.017375 0.008710 -0.005552
v 0.017318 0.008784 -0.005552
v 0.017375 0.008710 -0.005552
v 0.017317 0.008782 -0.005552
v 0.017375 0.008710 -0.005552
v 0.017316 0.008781 -0.005552
v 0.017375 0.008710 -0.005552
v 0.017314 0.008780 -0.005552
v 0.017375 0.008710 -0.005552
v 0.017313 0.008779 -0.005552
v 0.017375 0.008710 -0.005552
v 0.017312 0.008778 -0.005552
v 0.017375 0.008710 -0.005552
v 0.017310 0.008777 -0.005552
v 0.017375 0.008710 -0.005552
v 0.017309 0.008776 -0.005552
v 0.017375 0.008710 -0.005552
v 0.017290 0.008710 -0.005552
v 0.017290 0.008710 -0.005552
v 0.017304 0.008775 -0.005552
v 0.017290 0.008710 -0.005552
v 0.017303 0.008774 -0.005552
v 0.017290 0.008710 -0.005552
v 0.017301 0.008774 -0.005552
v 0.017290 0.008710 -0.005552
v 0.017290 0.008710 -0.005552
v 0.017300 0.008773 -0.005552
v 0.017290 0.008710 -0.005552
v 0.017298 0.008773 -0.005552
v 0.017290 0.008710 -0.005552
v 0.017296 0.008773 -0.005552
v 0.017290 0.008710 -0.005552
v 0.017295 0.008773 -0.005552
v 0.017290 0.008710 -0.005552
v 0.017293 0.008773 -0.005552
v 0.017375 0.008895 -0.005552
v 0.017290 0.008710 -0.005552
v 0.017292 0.008773 -0.005552
v 0.017375 0.008710 -0.005552
v 0.017290 0.008710 -0.005552
v 0.017290 0.008773 -0.005552
v 0.017292 0.008833 -0.005552
v 0.017293 0.008833 -0.005552
v 0.017292 0.008833 -0.005515
v 0.017293 0.008833 -0.005552
v 0.017295 0.008833 -0.005552
v 0.017293 0.008833 -0.005515
v 0.017295 0.008833 -0.005552
v 0.017295 0.008833 -0.005515
v 0.017296 0.008833 -0.005552
v 0.017296 0.008833 -0.005515
v 0.017298 0.008833 -0.005552
v 0.017298 0.008833 -0.005515
v 0.017300 0.008833 -0.005552
v 0.017300 0.008833 -0.005515
v 0.017301 0.008832 -0.005552
v 0.017300 0.008833 -0.005552
v 0.017303 0.008832 -0.005552
v 0.017301 0.008832 -0.005515
v 0.017301 0.008832 -0.005552
v 0.017303 0.008832 -0.005515
v 0.017303 0.008832 -0.005552
v 0.017304 0.008831 -0.005515
v 0.017304 0.008831 -0.005552
v 0.017304 0.008831 -0.005552
v 0.017306 0.008831 -0.005552
v 0.017306 0.008831 -0.005515
v 0.017306 0.008831 -0.005552
v 0.017308 0.008830 -0.005552
v 0.017308 0.008830 -0.005515
v 0.017308 0.008830 -0.005552
v 0.017309 0.008830 -0.005552
v 0.017309 0.008830 -0.005552
v 0.017309 0.008830 -0.005515
v 0.017310 0.008829 -0.005552
v 0.017310 0.008829 -0.005515
v 0.017310 0.008829 -0.005552
v 0.017312 0.008828 -0.005552
v 0.017312 0.008828 -0.005552
v 0.017313 0.008827 -0.005552
v 0.017312 0.008828 -0.005515
v 0.017313 0.008827 -0.005552
v 0.017313 0.008827 -0.005515
v 0.017314 0.008826 -0.005552
v 0.017314 0.008826 -0.005515
v 0.017316 0.008825 -0.005552
v 0.017314 0.008826 -0.005552
v 0.017317 0.008824 -0.005552
v 0.017316 0.008825 -0.005515
v 0.017316 0.008825 -0.005552
v 0.017317 0.008824 -0.005515
v 0.017317 0.008824 -0.005552
v 0.017318 0.008822 -0.005515
v 0.017318 0.008822 -0.005552
v 0.017318 0.008822 -0.005552
v 0.017319 0.008821 -0.005552
v 0.017319 0.008821 -0.005515
v 0.017319 0.008821 -0.005552
v 0.017320 0.008820 -0.005552
v 0.017320 0.008820 -0.005552
v 0.017320 0.008820 -0.005515
v 0.017321 0.008819 -0.005552
v 0.017321 0.008819 -0.005515
v 0.017321 0.008819 -0.005552
v 0.017321 0.008817 -0.005552
v 0.017321 0.008817 -0.005552
v 0.017322 0.008816 -0.005552
v 0.017321 0.008817 -0.005515
v 0.017322 0.008816 -0.005552
v 0.017322 0.008816 -0.005515
v 0.017323 0.008814 -0.005552
v 0.017323 0.008814 -0.005515
v 0.017323 0.008813 -0.005552
v 0.017323 0.008814 -0.005552
v 0.017324 0.008811 -0.005552
v 0.017323 0.008813 -0.005515
v 0.017323 0.008813 -0.005552
v 0.017324 0.008811 -0.005515
v 0.017324 0.008811 -0.005552
v 0.017324 0.008809 -0.005515
v 0.017324 0.008809 -0.005552
v 0.017324 0.008809 -0.005552
v 0.017325 0.008808 -0.005552
v 0.017325 0.008808 -0.005515
v 0.017325 0.008808 -0.005552
v 0.017325 0.008806 -0.005552
v 0.017325 0.008806 -0.005552
v 0.017325 0.008806 -0.005515
v 0.017325 0.008805 -0.005552
v 0.017325 0.008805 -0.005515
v 0.017325 0.008805 -0.005552
v 0.017325 0.008803 -0.005552
v 0.017325 0.008803 -0.005552
v 0.017325 0.008801 -0.005552
v 0.017325 0.008803 -0.005515
v 0.017325 0.008801 -0.005552
v 0.017325 0.008801 -0.005515
v 0.017325 0.008800 -0.005552
v 0.017325 0.008800 -0.005515
v 0.017325 0.008798 -0.005552
v 0.017325 0.008800 -0.005552
v 0.017324 0.008797 -0.005552
v 0.017325 0.008798 -0.005515
v 0.017325 0.008798 -0.005552
v 0.017324 0.008795 -0.005552
v 0.017324 0.008797 -0.005515
v 0.017324 0.008797 -0.005552
v 0.017324 0.008795 -0.005515
v 0.017324 0.008795 -0.005552
v 0.017323 0.008793 -0.005515
v 0.017323 0.008793 -0.005552
v 0.017323 0.008793 -0.005552
v 0.017323 0.008792 -0.005552
v 0.017323 0.008792 -0.005515
v 0.017323 0.008792 -0.005552
v 0.017322 0.008790 -0.005552
v 0.017322 0.008790 -0.005552
v 0.017322 0.008790 -0.005515
v 0.017321 0.008789 -0.005552
v 0.017321 0.008789 -0.005515
v 0.017321 0.008789 -0.005552
v 0.017321 0.008787 -0.005552
v 0.017321 0.008787 -0.005552
v 0.017320 0.008786 -0.005552
v 0.017321 0.008787 -0.005515
v 0.017320 0.008786 -0.005552
v 0.017320 0.008786 -0.005515
v 0.017319 0.008785 -0.005552
v 0.017319 0.008785 -0.005515
v 0.017318 0.008784 -0.005552
v 0.017319 0.008785 -0.005552
v 0.017317 0.008782 -0.005552
v 0.017318 0.008784 -0.005515
v 0.017318 0.008784 -0.005552
v 0.017317 0.008782 -0.005515
v 0.017317 0.008782 -0.005552
v 0.017316 0.008781 -0.005515
v 0.017316 0.008781 -0.005552
v 0.017316 0.008781 -0.005552
v 0.017314 0.008780 -0.005552
v 0.017314 0.008780 -0.005515
v 0.017314 0.008780 -0.005552
v 0.017313 0.008779 -0.005552
v 0.017313 0.008779 -0.005552
v 0.017313 0.008779 -0.005515
v 0.017292 0.008773 -0.005515
v 0.017293 0.008773 -0.005515
v 0.017292 0.008773 -0.005552
v 0.017290 0.008773 -0.005552
v 0.017290 0.008773 -0.005515
v 0.017290 0.008773 -0.005552
v 0.017292 0.008773 -0.005552
v 0.017293 0.008773 -0.005552
v 0.017292 0.008773 -0.005552
v 0.017295 0.008773 -0.005515
v 0.017293 0.008773 -0.005552
v 0.017295 0.008773 -0.005552
v 0.017293 0.008773 -0.005552
v 0.017295 0.008773 -0.005552
v 0.017296 0.008773 -0.005515
v 0.017295 0.008773 -0.005552
v 0.017296 0.008773 -0.005552
v 0.017298 0.008773 -0.005515
v 0.017296 0.008773 -0.005552
v 0.017298 0.008773 -0.005552
v 0.017296 0.008773 -0.005552
v 0.017300 0.008773 -0.005515
v 0.017298 0.008773 -0.005552
v 0.017300 0.008773 -0.005552
v 0.017298 0.008773 -0.005552
v 0.017300 0.008773 -0.005552
v 0.017301 0.008774 -0.005515
v 0.017300 0.008773 -0.005552
v 0.017301 0.008774 -0.005552
v 0.017303 0.008774 -0.005515
v 0.017301 0.008774 -0.005552
v 0.017303 0.008774 -0.005552
v 0.017301 0.008774 -0.005552
v 0.017304 0.008775 -0.005515
v 0.017303 0.008774 -0.005552
v 0.017304 0.008775 -0.005552
v 0.017303 0.008774 -0.005552
v 0.017304 0.008775 -0.005552
v 0.017306 0.008775 -0.005515
v 0.017304 0.008775 -0.005552
v 0.017306 0.008775 -0.005552
v 0.017308 0.008776 -0.005515
v 0.017306 0.008775 -0.005552
v 0.017308 0.008776 -0.005552
v 0.017306 0.008775 -0.005552
v 0.017309 0.008776 -0.005515
v 0.017308 0.008776 -0.005552
v 0.017309 0.008776 -0.005552
v 0.017308 0.008776 -0.005552
v 0.017309 0.008776 -0.005552
v 0.017310 0.008777 -0.005515
v 0.017309 0.008776 -0.005552
v 0.017310 0.008777 -0.005552
v 0.017312 0.008778 -0.005515
v 0.017310 0.008777 -0.005552
v 0.017312 0.008778 -0.005552
v 0.017310 0.008777 -0.005552
v 0.017312 0.008778 -0.005552
v 0.017313 0.008779 -0.005552
v 0.017312 0.008778 -0.005552
v 0.017314 0.008780 -0.005552
v 0.017317 0.008782 -0.005552
v 0.017316 0.008781 -0.005552
v 0.017318 0.008784 -0.005552
v 0.017319 0.008785 -0.005552
v 0.017320 0.008786 -0.005552
v 0.017321 0.008787 -0.005552
v 0.017322 0.008790 -0.005552
v 0.017321 0.008789 -0.005552
v 0.017323 0.008792 -0.005552
v 0.017324 0.008795 -0.005552
v 0.017323 0.008793 -0.005552
v 0.017324 0.008797 -0.005552
v 0.017325 0.008798 -0.005552
v 0.017325 0.008800 -0.005552
v 0.017325 0.008801 -0.005552
v 0.017325 0.008803 -0.005552
v 0.017325 0.008806 -0.005552
v 0.017325 0.008805 -0.005552
v 0.017325 0.008808 -0.005552
v 0.017324 0.008811 -0.005552
v 0.017324 0.008809 -0.005552
v 0.017323 0.008813 -0.005552
v 0.017323 0.008814 -0.005552
v 0.017322 0.008816 -0.005552
v 0.017321 0.008817 -0.005552
v 0.017320 0.008820 -0.005552
v 0.017321 0.008819 -0.005552
v 0.017319 0.008821 -0.005552
v 0.017317 0.008824 -0.005552
v 0.017318 0.008822 -0.005552
v 0.017316 0.008825 -0.005552
v 0.017314 0.008826 -0.005552
v 0.017313 0.008827 -0.005552
v 0.017312 0.008828 -0.005552
v 0.017309 0.008830 -0.005552
v 0.017310 0.008829 -0.005552
v 0.017308 0.008830 -0.005552
v 0.017306 0.008831 -0.005552
v 0.017303 0.008832 -0.005552
v 0.017304 0.008831 -0.005552
v 0.017298 0.008833 -0.005552
v 0.017300 0.008833 -0.005552
v 0.017295 0.008833 -0.005552
v 0.017296 0.008833 -0.005552
v 0.017290 0.008833 -0.005552
v 0.017292 0.008833 -0.005552
v 0.017290 0.008833 -0.005515
v 0.017290 0.008833 -0.005552
v 0.017301 0.008832 -0.005552
v 0.017296 0.008833 -0.005552
v 0.017298 0.008833 -0.005552
v 0.017293 0.008833 -0.005552
v 0.017293 0.008756 -0.005497
v 0.017295 0.008773 -0.005515
v 0.017293 0.008773 -0.005515
v 0.017293 0.008756 -0.005497
v 0.017293 0.008773 -0.005515
v 0.017290 0.008756 -0.005497
v 0.017297 0.008756 -0.005497
v 0.017296 0.008773 -0.005515
v 0.017295 0.008773 -0.005515
v 0.017298 0.008773 -0.005515
v 0.017296 0.008773 -0.005515
v 0.017300 0.008756 -0.005497
v 0.017300 0.008773 -0.005515
v 0.017300 0.008756 -0.005497
v 0.017304 0.008756 -0.005497
v 0.017301 0.008774 -0.005515
v 0.017304 0.008756 -0.005497
v 0.017307 0.008757 -0.005497
v 0.017303 0.008774 -0.005515
v 0.017307 0.008757 -0.005497
v 0.017310 0.008757 -0.005496
v 0.017304 0.008775 -0.005515
v 0.017310 0.008757 -0.005496
v 0.017306 0.008775 -0.005515
v 0.017310 0.008757 -0.005496
v 0.017313 0.008758 -0.005496
v 0.017306 0.008775 -0.005515
v 0.017313 0.008758 -0.005496
v 0.017317 0.008759 -0.005495
v 0.017308 0.008776 -0.005515
v 0.017317 0.008759 -0.005495
v 0.017309 0.008776 -0.005515
v 0.017308 0.008776 -0.005515
v 0.017320 0.008760 -0.005494
v 0.017310 0.008777 -0.005515
v 0.017309 0.008776 -0.005515
v 0.017323 0.008761 -0.005494
v 0.017312 0.008778 -0.005515
v 0.017310 0.008777 -0.005515
v 0.017326 0.008762 -0.005493
v 0.017312 0.008778 -0.005515
v 0.017323 0.008761 -0.005494
v 0.017314 0.008780 -0.005515
v 0.017313 0.008779 -0.005515
v 0.017326 0.008762 -0.005493
v 0.017314 0.008780 -0.005515
v 0.017326 0.008762 -0.005493
v 0.017329 0.008763 -0.005492
v 0.017314 0.008780 -0.005515
v 0.017329 0.008763 -0.005492
v 0.017316 0.008781 -0.005515
v 0.017329 0.008763 -0.005492
v 0.017332 0.008764 -0.005491
v 0.017316 0.008781 -0.005515
v 0.017317 0.008782 -0.005515
v 0.017335 0.008766 -0.005490
v 0.017318 0.008784 -0.005515
v 0.017332 0.008764 -0.005491
v 0.017317 0.008782 -0.005515
v 0.017316 0.008781 -0.005515
v 0.017335 0.008766 -0.005490
v 0.017338 0.008767 -0.005489
v 0.017318 0.008784 -0.005515
v 0.017338 0.008767 -0.005489
v 0.017340 0.008769 -0.005488
v 0.017319 0.008785 -0.005515
v 0.017340 0.008769 -0.005488
v 0.017341 0.008770 -0.005488
v 0.017320 0.008786 -0.005515
v 0.017342 0.008770 -0.005487
v 0.017320 0.008786 -0.005515
v 0.017320 0.008786 -0.005515
v 0.017343 0.008771 -0.005487
v 0.017343 0.008772 -0.005487
v 0.017321 0.008787 -0.005515
v 0.017343 0.008772 -0.005487
v 0.017345 0.008775 -0.005487
v 0.017321 0.008787 -0.005515
v 0.017345 0.008775 -0.005487
v 0.017321 0.008789 -0.005515
v 0.017321 0.008789 -0.005515
v 0.017347 0.008779 -0.005487
v 0.017322 0.008790 -0.005515
v 0.017347 0.008779 -0.005487
v 0.017349 0.008783 -0.005487
v 0.017323 0.008792 -0.005515
v 0.017349 0.008783 -0.005487
v 0.017350 0.008787 -0.005487
v 0.017323 0.008793 -0.005515
v 0.017350 0.008787 -0.005487
v 0.017324 0.008795 -0.005515
v 0.017323 0.008793 -0.005515
v 0.017351 0.008791 -0.005487
v 0.017324 0.008797 -0.005515
v 0.017324 0.008795 -0.005515
v 0.017352 0.008795 -0.005487
v 0.017325 0.008798 -0.005515
v 0.017351 0.008791 -0.005487
v 0.017325 0.008800 -0.005515
v 0.017325 0.008798 -0.005515
v 0.017352 0.008795 -0.005487
v 0.017325 0.008801 -0.005515
v 0.017325 0.008800 -0.005515
v 0.017352 0.008799 -0.005487
v 0.017325 0.008803 -0.005515
v 0.017325 0.008801 -0.005515
v 0.017352 0.008803 -0.005487
v 0.017325 0.008805 -0.005515
v 0.017325 0.008803 -0.005515
v 0.017352 0.008803 -0.005487
v 0.017325 0.008805 -0.005515
v 0.017352 0.008803 -0.005487
v 0.017352 0.008807 -0.005487
v 0.017325 0.008805 -0.005515
v 0.017352 0.008807 -0.005487
v 0.017325 0.008806 -0.005515
v 0.017325 0.008806 -0.005515
v 0.017352 0.008811 -0.005487
v 0.017325 0.008808 -0.005515
v 0.017352 0.008811 -0.005487
v 0.017351 0.008815 -0.005487
v 0.017325 0.008808 -0.005515
v 0.017351 0.008815 -0.005487
v 0.017324 0.008811 -0.005515
v 0.017324 0.008809 -0.005515
v 0.017350 0.008819 -0.005487
v 0.017323 0.008813 -0.005515
v 0.017324 0.008811 -0.005515
v 0.017349 0.008823 -0.005487
v 0.017323 0.008814 -0.005515
v 0.017323 0.008813 -0.005515
v 0.017347 0.008827 -0.005487
v 0.017322 0.008816 -0.005515
v 0.017323 0.008814 -0.005515
v 0.017321 0.008817 -0.005515
v 0.017322 0.008816 -0.005515
v 0.017347 0.008827 -0.005487
v 0.017321 0.008819 -0.005515
v 0.017321 0.008817 -0.005515
v 0.017345 0.008831 -0.005487
v 0.017320 0.008820 -0.005515
v 0.017321 0.008819 -0.005515
v 0.017343 0.008834 -0.005487
v 0.017342 0.008836 -0.005487
v 0.017320 0.008820 -0.005515
v 0.017343 0.008835 -0.005487
v 0.017335 0.008840 -0.005490
v 0.017318 0.008822 -0.005515
v 0.017338 0.008839 -0.005489
v 0.017319 0.008821 -0.005515
v 0.017340 0.008837 -0.005488
v 0.017338 0.008839 -0.005489
v 0.017317 0.008824 -0.005515
v 0.017318 0.008822 -0.005515
v 0.017335 0.008840 -0.005490
v 0.017316 0.008825 -0.005515
v 0.017317 0.008824 -0.005515
v 0.017332 0.008842 -0.005491
v 0.017314 0.008826 -0.005515
v 0.017316 0.008825 -0.005515
v 0.017329 0.008843 -0.005492
v 0.017313 0.008827 -0.005515
v 0.017314 0.008826 -0.005515
v 0.017326 0.008844 -0.005493
v 0.017341 0.008836 -0.005488
v 0.017340 0.008837 -0.005488
v 0.017320 0.008820 -0.005515
v 0.017290 0.008850 -0.005497
v 0.017290 0.008833 -0.005515
v 0.017292 0.008833 -0.005515
v 0.017290 0.008850 -0.005497
v 0.017292 0.008833 -0.005515
v 0.017293 0.008833 -0.005515
v 0.017290 0.008850 -0.005497
v 0.017293 0.008833 -0.005515
v 0.017293 0.008850 -0.005497
v 0.017293 0.008833 -0.005515
v 0.017295 0.008833 -0.005515
v 0.017293 0.008850 -0.005497
v 0.017295 0.008833 -0.005515
v 0.017297 0.008850 -0.005497
v 0.017293 0.008850 -0.005497
v 0.017296 0.008833 -0.005515
v 0.017297 0.008850 -0.005497
v 0.017295 0.008833 -0.005515
v 0.017300 0.008850 -0.005497
v 0.017297 0.008850 -0.005497
v 0.017296 0.008833 -0.005515
v 0.017300 0.008850 -0.005497
v 0.017296 0.008833 -0.005515
v 0.017298 0.008833 -0.005515
v 0.017300 0.008850 -0.005497
v 0.017298 0.008833 -0.005515
v 0.017300 0.008833 -0.005515
v 0.017300 0.008850 -0.005497
v 0.017300 0.008833 -0.005515
v 0.017303 0.008850 -0.005497
v 0.017300 0.008833 -0.005515
v 0.017301 0.008832 -0.005515
v 0.017303 0.008850 -0.005497
v 0.017301 0.008832 -0.005515
v 0.017307 0.008849 -0.005497
v 0.017303 0.008850 -0.005497
v 0.017303 0.008832 -0.005515
v 0.017307 0.008849 -0.005497
v 0.017301 0.008832 -0.005515
v 0.017310 0.008849 -0.005496
v 0.017307 0.008849 -0.005497
v 0.017303 0.008832 -0.005515
v 0.017310 0.008849 -0.005496
v 0.017303 0.008832 -0.005515
v 0.017304 0.008831 -0.005515
v 0.017310 0.008849 -0.005496
v 0.017304 0.008831 -0.005515
v 0.017306 0.008831 -0.005515
v 0.017310 0.008849 -0.005496
v 0.017306 0.008831 -0.005515
v 0.017313 0.008848 -0.005496
v 0.017306 0.008831 -0.005515
v 0.017308 0.008830 -0.005515
v 0.017313 0.008848 -0.005496
v 0.017308 0.008830 -0.005515
v 0.017317 0.008847 -0.005495
v 0.017313 0.008848 -0.005496
v 0.017309 0.008830 -0.005515
v 0.017317 0.008847 -0.005495
v 0.017308 0.008830 -0.005515
v 0.017320 0.008846 -0.005494
v 0.017317 0.008847 -0.005495
v 0.017309 0.008830 -0.005515
v 0.017320 0.008846 -0.005494
v 0.017309 0.008830 -0.005515
v 0.017310 0.008829 -0.005515
v 0.017320 0.008846 -0.005494
v 0.017310 0.008829 -0.005515
v 0.017323 0.008845 -0.005494
v 0.017310 0.008829 -0.005515
v 0.017312 0.008828 -0.005515
v 0.017323 0.008845 -0.005494
v 0.017312 0.008828 -0.005515
v 0.017326 0.008844 -0.005493
v 0.017323 0.008845 -0.005494
v 0.017313 0.008827 -0.005515
v 0.017326 0.008844 -0.005493
v 0.017312 0.008828 -0.005515
v 0.017314 0.008826 -0.005515
v 0.017329 0.008843 -0.005492
v 0.017326 0.008844 -0.005493
v 0.017316 0.008825 -0.005515
v 0.017332 0.008842 -0.005491
v 0.017329 0.008843 -0.005492
v 0.017317 0.008824 -0.005515
v 0.017335 0.008840 -0.005490
v 0.017332 0.008842 -0.005491
v 0.017318 0.008822 -0.005515
v 0.017319 0.008821 -0.005515
v 0.017338 0.008839 -0.005489
v 0.017319 0.008821 -0.005515
v 0.017320 0.008820 -0.005515
v 0.017340 0.008837 -0.005488
v 0.017320 0.008820 -0.005515
v 0.017343 0.008834 -0.005487
v 0.017320 0.008820 -0.005515
v 0.017345 0.008831 -0.005487
v 0.017343 0.008834 -0.005487
v 0.017321 0.008819 -0.005515
v 0.017347 0.008827 -0.005487
v 0.017345 0.008831 -0.005487
v 0.017321 0.008817 -0.005515
v 0.017323 0.008814 -0.005515
v 0.017349 0.008823 -0.005487
v 0.017347 0.008827 -0.005487
v 0.017323 0.008813 -0.005515
v 0.017350 0.008819 -0.005487
v 0.017349 0.008823 -0.005487
v 0.017324 0.008811 -0.005515
v 0.017351 0.008815 -0.005487
v 0.017350 0.008819 -0.005487
v 0.017324 0.008809 -0.005515
v 0.017325 0.008808 -0.005515
v 0.017351 0.008815 -0.005487
v 0.017352 0.008811 -0.005487
v 0.017325 0.008806 -0.005515
v 0.017352 0.008807 -0.005487
v 0.017325 0.008801 -0.005515
v 0.017352 0.008799 -0.005487
v 0.017352 0.008803 -0.005487
v 0.017325 0.008800 -0.005515
v 0.017352 0.008795 -0.005487
v 0.017352 0.008799 -0.005487
v 0.017325 0.008798 -0.005515
v 0.017324 0.008797 -0.005515
v 0.017351 0.008791 -0.005487
v 0.017351 0.008791 -0.005487
v 0.017324 0.008795 -0.005515
v 0.017350 0.008787 -0.005487
v 0.017349 0.008783 -0.005487
v 0.017323 0.008793 -0.005515
v 0.017323 0.008792 -0.005515
v 0.017347 0.008779 -0.005487
v 0.017323 0.008792 -0.005515
v 0.017322 0.008790 -0.005515
v 0.017345 0.008775 -0.005487
v 0.017347 0.008779 -0.005487
v 0.017321 0.008789 -0.005515
v 0.017320 0.008786 -0.005515
v 0.017343 0.008772 -0.005487
v 0.017321 0.008787 -0.005515
v 0.017320 0.008786 -0.005515
v 0.017340 0.008769 -0.005488
v 0.017320 0.008786 -0.005515
v 0.017319 0.008785 -0.005515
v 0.017338 0.008767 -0.005489
v 0.017319 0.008785 -0.005515
v 0.017318 0.008784 -0.005515
v 0.017332 0.008764 -0.005491
v 0.017335 0.008766 -0.005490
v 0.017317 0.008782 -0.005515
v 0.017326 0.008762 -0.005493
v 0.017313 0.008779 -0.005515
v 0.017312 0.008778 -0.005515
v 0.017320 0.008760 -0.005494
v 0.017323 0.008761 -0.005494
v 0.017310 0.008777 -0.005515
v 0.017317 0.008759 -0.005495
v 0.017320 0.008760 -0.005494
v 0.017309 0.008776 -0.005515
v 0.017310 0.008757 -0.005496
v 0.017304 0.008775 -0.005515
v 0.017303 0.008774 -0.005515
v 0.017300 0.008773 -0.005515
v 0.017304 0.008756 -0.005497
v 0.017301 0.008774 -0.005515
v 0.017298 0.008773 -0.005515
v 0.017300 0.008756 -0.005497
v 0.017300 0.008773 -0.005515
v 0.017296 0.008773 -0.005515
v 0.017297 0.008756 -0.005497
v 0.017300 0.008756 -0.005497
v 0.017293 0.008756 -0.005497
v 0.017297 0.008756 -0.005497
v 0.017295 0.008773 -0.005515
v 0.017292 0.008773 -0.005515
v 0.017290 0.008773 -0.005515
v 0.017290 0.008756 -0.005497
v 0.017307 0.008757 -0.005497
v 0.017303 0.008774 -0.005515
v 0.017301 0.008774 -0.005515
v 0.017308 0.008776 -0.005515
v 0.017306 0.008775 -0.005515
v 0.017313 0.008758 -0.005496
v 0.017293 0.008773 -0.005515
v 0.017292 0.008773 -0.005515
v 0.017290 0.008756 -0.005497
v 0.017375 0.008835 -0.005487
v 0.017375 0.008835 -0.005487
v 0.017375 0.008836 -0.005487
v 0.017375 0.008836 -0.005487
v 0.017343 0.008835 -0.005487
v 0.017343 0.008835 -0.005487
v 0.017375 0.008836 -0.005487
v 0.017375 0.008836 -0.005487
v 0.017341 0.008836 -0.005488
v 0.017341 0.008836 -0.005488
v 0.017342 0.008836 -0.005487
v 0.017342 0.008836 -0.005487
v 0.017343 0.008835 -0.005487
v 0.017375 0.008836 -0.005487
v 0.017342 0.008836 -0.005487
v 0.017375 0.008836 -0.005487
v 0.017342 0.008770 -0.005487
v 0.017341 0.008770 -0.005488
v 0.017341 0.008770 -0.005488
v 0.017342 0.008770 -0.005487
v 0.017375 0.008770 -0.005487
v 0.017375 0.008771 -0.005487
v 0.017375 0.008771 -0.005487
v 0.017375 0.008770 -0.005487
v 0.017375 0.008770 -0.005487
v 0.017343 0.008771 -0.005487
v 0.017375 0.008770 -0.005487
v 0.017375 0.008770 -0.005487
v 0.017343 0.008771 -0.005487
v 0.017375 0.008770 -0.005487
v 0.017343 0.008771 -0.005487
v 0.017342 0.008770 -0.005487
vn -1.0000 0.0001 -0.0000
vn -1.0000 -0.0000 -0.0000
vn -1.0000 -0.0001 -0.0000
vn -0.0000 -0.7940 0.6079
vn -0.0001 -0.7940 0.6079
vn -0.0000 -0.7816 0.6238
vn -0.0000 -0.7739 0.6333
vn -0.0000 -0.7688 0.6395
vn -0.0000 -0.7815 0.6239
vn -0.0000 -0.7530 0.6580
vn -0.0000 -0.7558 0.6548
vn -0.0000 -0.7424 0.6700
vn -0.0000 -0.7557 0.6549
vn 0.0001 -0.7424 0.6700
vn -0.0000 -0.7313 0.6820
vn -0.0000 -0.7287 0.6848
vn -0.0000 -0.7147 0.6994
vn -0.0000 -0.7314 0.6820
vn -0.0000 -0.7423 0.6700
vn -0.0000 -0.7313 0.6821
vn -0.0000 -0.7089 0.7053
vn -0.0000 -0.7147 0.6995
vn -0.0000 -0.7004 0.7138
vn -0.0000 -0.6857 0.7279
vn -0.0000 -0.7004 0.7137
vn -0.0000 -0.6859 0.7277
vn -0.0000 -0.6710 0.7414
vn -0.0000 -0.6618 0.7497
vn -0.0000 -0.6559 0.7548
vn -0.0000 -0.6372 0.7707
vn -0.0000 -0.6124 0.7905
vn -0.0000 -0.6119 0.7910
vn -0.0000 -0.6617 0.7497
vn -0.0000 -0.6371 0.7708
vn -0.0000 -0.6124 0.7906
vn -0.0000 -0.6406 0.7679
vn -0.0000 -0.6559 0.7549
vn -0.0000 -0.6118 0.7910
vn -0.0000 -0.6106 0.7919
vn -0.0000 -0.6107 0.7919
vn -0.0001 -0.6090 0.7932
vn -0.0000 -0.6405 0.7679
vn -0.0001 -0.6249 0.7807
vn -0.0000 -0.6068 0.7948
vn -0.0000 -0.6010 0.7992
vn -0.0000 -0.6041 0.7969
vn -0.0000 -0.5599 0.8286
vn -0.0000 -0.5665 0.8241
vn 0.0002 -0.5764 0.8172
vn 0.0002 -0.5727 0.8198
vn -0.0000 -0.5785 0.8157
vn -0.0002 -0.5928 0.8053
vn -0.0000 -0.5839 0.8118
vn -0.0000 -0.5889 0.8082
vn -0.0000 -0.6091 0.7931
vn -0.0000 -0.5934 0.8049
vn -0.0000 -0.5974 0.8019
vn -0.0000 -0.6090 0.7932
vn -0.0000 -0.0000 1.0000
vn -0.0000 0.6372 0.7707
vn -0.0000 0.6124 0.7905
vn -0.0000 0.6124 0.7906
vn -0.0000 0.6118 0.7910
vn -0.0000 0.6107 0.7918
vn -0.0000 0.6090 0.7932
vn -0.0000 0.6859 0.7277
vn 0.0001 0.7004 0.7138
vn -0.0000 0.6857 0.7279
vn -0.0000 0.7286 0.6849
vn -0.0003 0.7313 0.6820
vn -0.0000 0.7147 0.6994
vn 0.0001 0.7424 0.6700
vn 0.0002 0.7530 0.6580
vn -0.0000 0.6119 0.7909
vn -0.0000 0.7940 0.6079
vn 0.0001 0.7816 0.6238
vn -0.0003 0.7739 0.6333
vn -0.0000 0.7687 0.6396
vn -0.0000 0.7558 0.6548
vn 0.0002 0.7089 0.7053
vn 0.0001 0.6711 0.7414
vn -0.0003 0.6617 0.7497
vn -0.0000 0.6559 0.7549
vn -0.0000 0.6068 0.7948
vn -0.0001 0.6405 0.7679
vn -0.0000 0.6041 0.7969
vn -0.0000 0.6249 0.7807
vn -0.0000 0.6010 0.7992
vn -0.0000 0.5974 0.8019
vn -0.0000 0.6091 0.7931
vn -0.0000 0.5888 0.8083
vn -0.0000 0.5839 0.8118
vn -0.0001 0.5928 0.8053
vn -0.0000 0.5599 0.8286
vn 0.0002 0.5764 0.8172
vn -0.0000 0.5598 0.8286
vn -0.0000 0.5665 0.8241
vn -0.0001 0.5726 0.8198
vn -0.0000 0.5785 0.8157
vn -0.0000 0.5933 0.8050
vn 1.0000 -0.0000 -0.0000
vn 1.0000 -0.0000 -0.0001
vn 1.0000 -0.0001 -0.0000
vn -0.0000 -0.0000 -1.0000
vn -0.0000 -1.0000 -0.0000
vn -0.0000 1.0000 -0.0000
vn 0.0002 -0.0000 -1.0000
vn -0.0001 -0.0000 -1.0000
vn 0.0001 -0.0000 -1.0000
vn 0.0003 -0.0000 -1.0000
vn -0.0002 -0.0000 -1.0000
vn -0.0003 -0.0000 -1.0000
vn 0.1129 -0.9936 -0.0000
vn 0.0588 -0.9983 -0.0000
vn 0.0587 -0.9983 -0.0000
vn 0.0045 -1.0000 -0.0000
vn -0.0498 -0.9988 -0.0000
vn -0.1039 -0.9946 -0.0000
vn -0.1578 -0.9875 -0.0000
vn -0.1040 -0.9946 -0.0000
vn -0.2112 -0.9774 -0.0000
vn -0.2639 -0.9646 -0.0000
vn -0.2111 -0.9775 -0.0000
vn -0.3159 -0.9488 -0.0000
vn -0.2640 -0.9645 -0.0000
vn -0.3160 -0.9488 -0.0000
vn -0.3670 -0.9302 -0.0000
vn -0.4170 -0.9089 -0.0000
vn -0.4657 -0.8850 -0.0000
vn -0.4656 -0.8850 -0.0000
vn -0.4657 -0.8849 -0.0000
vn -0.5130 -0.8584 -0.0000
vn -0.5588 -0.8293 -0.0000
vn -0.5590 -0.8292 -0.0000
vn -0.6031 -0.7976 -0.0000
vn -0.6031 -0.7977 -0.0000
vn -0.5589 -0.8292 -0.0000
vn -0.6455 -0.7638 -0.0000
vn -0.6860 -0.7276 -0.0000
vn -0.7245 -0.6893 -0.0000
vn -0.7609 -0.6489 -0.0000
vn -0.7245 -0.6892 -0.0000
vn -0.7949 -0.6067 -0.0000
vn -0.7950 -0.6066 -0.0000
vn -0.8267 -0.5626 -0.0000
vn -0.8267 -0.5627 -0.0000
vn -0.8560 -0.5169 -0.0000
vn -0.8560 -0.5170 -0.0000
vn -0.8561 -0.5169 -0.0000
vn -0.8828 -0.4697 -0.0000
vn -0.8829 -0.4696 -0.0000
vn -0.9070 -0.4211 -0.0000
vn -0.9070 -0.4210 -0.0000
vn -0.9286 -0.3712 -0.0000
vn -0.9285 -0.3712 -0.0000
vn -0.9071 -0.4210 -0.0000
vn -0.9474 -0.3202 -0.0000
vn -0.9286 -0.3711 -0.0000
vn -0.9633 -0.2684 -0.0000
vn -0.9473 -0.3202 -0.0000
vn -0.9633 -0.2683 -0.0000
vn -0.9765 -0.2156 -0.0000
vn -0.9634 -0.2682 -0.0000
vn -0.9765 -0.2155 -0.0000
vn -0.9765 -0.2155 0.0003
vn -0.9867 -0.1623 -0.0000
vn -0.9868 -0.1622 -0.0000
vn -0.9941 -0.1085 -0.0000
vn -0.9941 -0.1084 -0.0000
vn -0.9985 -0.0543 -0.0000
vn -0.9985 0.0543 -0.0000
vn -0.9941 0.1084 -0.0000
vn -0.9868 0.1622 -0.0000
vn -0.9941 0.1085 -0.0000
vn -0.9765 0.2155 -0.0000
vn -0.9867 0.1623 -0.0000
vn -0.9634 0.2682 -0.0000
vn -0.9765 0.2156 -0.0000
vn -0.9474 0.3202 -0.0000
vn -0.9633 0.2683 -0.0000
vn -0.9473 0.3202 -0.0000
vn -0.9286 0.3711 -0.0000
vn -0.9285 0.3712 -0.0000
vn -0.9286 0.3712 -0.0000
vn -0.9071 0.4210 -0.0000
vn -0.9070 0.4211 -0.0000
vn -0.8829 0.4696 -0.0000
vn -0.8828 0.4697 -0.0000
vn -0.8561 0.5169 -0.0000
vn -0.8560 0.5169 -0.0000
vn -0.8267 0.5627 -0.0000
vn -0.8560 0.5170 -0.0000
vn -0.8267 0.5626 -0.0000
vn -0.8267 0.5626 -0.0001
vn -0.7950 0.6066 -0.0000
vn -0.7609 0.6489 -0.0000
vn -0.7949 0.6067 -0.0000
vn -0.7245 0.6893 -0.0000
vn -0.7245 0.6892 -0.0000
vn -0.6860 0.7276 -0.0000
vn -0.6455 0.7638 -0.0000
vn -0.6031 0.7977 -0.0000
vn 0.1129 0.9936 -0.0000
vn 0.0588 0.9983 -0.0000
vn 0.1666 0.9860 -0.0000
vn 0.0045 1.0000 -0.0000
vn 0.0587 0.9983 -0.0000
vn -0.0498 0.9988 -0.0000
vn -0.1039 0.9946 -0.0000
vn -0.1578 0.9875 -0.0000
vn -0.1040 0.9946 -0.0000
vn -0.2112 0.9774 -0.0000
vn -0.2112 0.9774 0.0003
vn -0.2111 0.9775 -0.0000
vn -0.2639 0.9646 -0.0000
vn -0.3159 0.9488 -0.0000
vn -0.2640 0.9645 -0.0000
vn -0.3160 0.9488 -0.0000
vn -0.3670 0.9302 -0.0000
vn -0.3669 0.9303 -0.0000
vn -0.4170 0.9089 -0.0000
vn -0.4169 0.9089 -0.0000
vn -0.4657 0.8850 -0.0000
vn -0.4656 0.8850 -0.0000
vn -0.4657 0.8849 -0.0000
vn -0.4658 0.8849 -0.0000
vn -0.5131 0.8584 -0.0000
vn -0.5130 0.8584 -0.0000
vn -0.5589 0.8293 -0.0000
vn -0.5588 0.8293 -0.0000
vn -0.6031 0.7976 -0.0000
vn -0.5590 0.8292 -0.0000
vn -0.6031 0.7977 0.0001
vn -0.9633 0.2684 -0.0000
vn -0.9765 0.2155 -0.0002
vn -0.5589 -0.8293 -0.0000
vn -0.5131 -0.8584 -0.0000
vn -0.4169 -0.9089 -0.0000
vn -0.3669 -0.9303 -0.0000
vn 0.1666 -0.9860 -0.0000
vn 0.0238 0.7067 0.7071
vn 0.0032 0.7071 0.7071
vn 0.0415 0.7059 0.7071
vn 0.0239 0.7067 0.7071
vn 0.0416 0.7059 0.7071
vn 0.0748 0.7031 0.7071
vn -0.0269 0.7066 0.7071
vn -0.0352 0.7062 0.7071
vn -0.0735 0.7033 0.7071
vn -0.0773 0.7029 0.7071
vn -0.1116 0.6982 0.7071
vn -0.0773 0.7027 0.7073
vn -0.1269 0.6956 0.7071
vn -0.1493 0.6912 0.7071
vn -0.1752 0.6851 0.7071
vn -0.1866 0.6820 0.7071
vn -0.2220 0.6714 0.7071
vn -0.2233 0.6709 0.7071
vn -0.2594 0.6578 0.7071
vn -0.2669 0.6548 0.7071
vn -0.2595 0.6578 0.7071
vn -0.3098 0.6356 0.7071
vn -0.2948 0.6427 0.7071
vn -0.3293 0.6258 0.7071
vn -0.3505 0.6142 0.7071
vn -0.3628 0.6070 0.7071
vn -0.3886 0.5908 0.7071
vn -0.3952 0.5864 0.7071
vn -0.4244 0.5656 0.7071
vn -0.4564 0.5401 0.7071
vn -0.4265 0.5640 0.7071
vn -0.4576 0.5391 0.7071
vn -0.4851 0.5145 0.7071
vn -0.4883 0.5114 0.7071
vn -0.5123 0.4874 0.7071
vn -0.5166 0.4829 0.7071
vn -0.5381 0.4588 0.7071
vn -0.5165 0.4829 0.7071
vn -0.5424 0.4537 0.7071
vn -0.5380 0.4589 0.7071
vn -0.5424 0.4536 0.7071
vn -0.5658 0.4241 0.7071
vn -0.5621 0.4290 0.7071
vn -0.5729 0.4145 0.7071
vn -0.5846 0.3978 0.7071
vn -0.5729 0.4144 0.7071
vn -0.5799 0.4046 0.7071
vn -0.5871 0.3942 0.7071
vn -0.5942 0.3833 0.7071
vn -0.6053 0.3655 0.7071
vn -0.6201 0.3399 0.7071
vn -0.6201 0.3398 0.7071
vn -0.6244 0.3321 0.7070
vn -0.6243 0.3321 0.7071
vn -0.6428 0.2947 0.7071
vn -0.6414 0.2977 0.7071
vn -0.6428 0.2946 0.7071
vn -0.6622 0.2479 0.7071
vn -0.6566 0.2624 0.7071
vn -0.6623 0.2478 0.7071
vn -0.6783 0.1998 0.7071
vn -0.6699 0.2264 0.7071
vn -0.6783 0.1999 0.7071
vn -0.6812 0.1897 0.7071
vn -0.6908 0.1508 0.7071
vn -0.6905 0.1525 0.7071
vn -0.6812 0.1896 0.7071
vn -0.6999 0.1010 0.7071
vn -0.6977 0.1148 0.7071
vn -0.6909 0.1507 0.7071
vn -0.7029 0.0767 0.7071
vn -0.6977 0.1147 0.7071
vn -0.6999 0.1009 0.7071
vn -0.7061 0.0384 0.7071
vn -0.7029 0.0766 0.7071
vn -0.7053 0.0506 0.7071
vn -0.7071 -0.0000 0.7071
vn -0.7061 -0.0384 0.7071
vn -0.7053 -0.0506 0.7071
vn -0.7030 -0.0766 0.7071
vn -0.7029 -0.0766 0.7071
vn -0.6999 -0.1009 0.7071
vn -0.6978 -0.1147 0.7071
vn -0.6999 -0.1010 0.7071
vn -0.6909 -0.1507 0.7071
vn -0.6977 -0.1148 0.7071
vn -0.6908 -0.1508 0.7071
vn -0.6812 -0.1897 0.7071
vn -0.6905 -0.1525 0.7071
vn -0.6783 -0.1998 0.7071
vn -0.6699 -0.2264 0.7071
vn -0.6623 -0.2478 0.7071
vn -0.6566 -0.2623 0.7071
vn -0.6428 -0.2946 0.7071
vn -0.6416 -0.2977 0.7069
vn -0.6566 -0.2624 0.7071
vn -0.6243 -0.3321 0.7071
vn -0.6414 -0.2977 0.7071
vn -0.6054 -0.3655 0.7070
vn -0.6201 -0.3398 0.7071
vn -0.5846 -0.3978 0.7071
vn -0.6053 -0.3655 0.7071
vn -0.5942 -0.3834 0.7071
vn -0.5799 -0.4046 0.7071
vn -0.5870 -0.3943 0.7071
vn -0.5166 -0.4828 0.7071
vn -0.5380 -0.4588 0.7071
vn -0.5424 -0.4537 0.7071
vn -0.5621 -0.4290 0.7071
vn -0.5658 -0.4241 0.7071
vn -0.5424 -0.4536 0.7071
vn -0.5123 -0.4874 0.7071
vn -0.5381 -0.4588 0.7071
vn -0.4851 -0.5145 0.7071
vn -0.4883 -0.5114 0.7071
vn -0.4564 -0.5401 0.7071
vn -0.4576 -0.5391 0.7071
vn -0.4265 -0.5640 0.7071
vn -0.4242 -0.5657 0.7071
vn -0.5729 -0.4145 0.7071
vn 0.0749 -0.7031 0.7071
vn 0.1179 -0.6972 0.7071
vn 0.0798 -0.7026 0.7071
vn 0.0748 -0.7031 0.7071
vn 0.0799 -0.7027 0.7070
vn 0.0415 -0.7059 0.7071
vn 0.0416 -0.7059 0.7071
vn 0.0242 -0.7069 0.7069
vn 0.0032 -0.7071 0.7071
vn 0.0242 -0.7067 0.7071
vn -0.0265 -0.7066 0.7071
vn -0.0352 -0.7062 0.7071
vn -0.0768 -0.7029 0.7071
vn -0.0735 -0.7033 0.7071
vn -0.1116 -0.6982 0.7071
vn -0.1263 -0.6957 0.7071
vn -0.1493 -0.6912 0.7071
vn -0.1263 -0.6958 0.7071
vn -0.1494 -0.6912 0.7071
vn -0.1746 -0.6852 0.7071
vn -0.1866 -0.6820 0.7071
vn -0.2214 -0.6716 0.7071
vn -0.1867 -0.6820 0.7071
vn -0.2215 -0.6715 0.7071
vn -0.2235 -0.6709 0.7071
vn -0.2214 -0.6715 0.7071
vn -0.2234 -0.6709 0.7071
vn -0.2595 -0.6578 0.7071
vn -0.2664 -0.6550 0.7071
vn -0.2948 -0.6427 0.7071
vn -0.2665 -0.6550 0.7071
vn -0.3094 -0.6358 0.7071
vn -0.3293 -0.6258 0.7071
vn -0.3094 -0.6359 0.7071
vn -0.3501 -0.6143 0.7071
vn -0.3294 -0.6257 0.7071
vn -0.3501 -0.6144 0.7071
vn -0.3628 -0.6070 0.7071
vn -0.3884 -0.5909 0.7071
vn -0.3952 -0.5864 0.7071
vn -0.4243 -0.5657 0.7071
vn -0.4264 -0.5641 0.7071
vn -0.5166 -0.4829 0.7071
vn -0.5381 -0.4590 0.7069
vn -0.5622 -0.4290 0.7070
vn -0.5942 -0.3833 0.7071
vn -0.5871 -0.3942 0.7071
vn -0.6201 -0.3399 0.7071
vn -0.6622 -0.2479 0.7071
vn -0.6905 -0.1524 0.7071
vn -0.7030 0.0766 0.7071
vn -0.6905 0.1524 0.7071
vn -0.6623 0.2477 0.7071
vn -0.6568 0.2625 0.7069
vn -0.5846 0.3979 0.7071
vn -0.5942 0.3834 0.7071
vn -0.5870 0.3942 0.7071
vn -0.5847 0.3979 0.7070
vn -0.5622 0.4291 0.7070
vn -0.4243 0.5656 0.7071
vn -0.4264 0.5640 0.7071
vn -0.3504 0.6142 0.7071
vn -0.2234 0.6709 0.7071
vn -0.1867 0.6820 0.7071
vn -0.0269 0.7067 0.7070
vn -0.0270 0.7066 0.7071
vn 0.0798 0.7026 0.7071
vn 0.1179 0.6972 0.7071
vn 0.0749 0.7031 0.7071
vn -0.1751 0.6851 0.7071
vn 0.0415 0.7060 0.7070
vn -0.0000 0.1480 0.9890
vn -0.0000 0.2928 0.9562
vn -0.0000 0.2927 0.9562
vn -0.0000 0.1690 0.9856
vn -0.0000 0.4310 0.9024
vn -0.0000 0.4459 0.8951
vn -0.0001 0.4459 0.8951
vn -0.0000 0.3165 0.9486
vn -0.0000 0.3164 0.9486
vn -0.0000 0.4311 0.9023
vn -0.0000 0.5599 0.8285
vn -0.0000 -0.3164 0.9486
vn -0.0000 -0.4459 0.8951
vn -0.0000 -0.4311 0.9023
vn -0.0000 -0.1480 0.9890
vn 0.0001 -0.0000 1.0000
vn 0.0001 -0.2927 0.9562
vn -0.0000 -0.2927 0.9562
vn -0.0000 -0.1687 0.9857
vn -0.0000 -0.2928 0.9562
vn -0.0000 -0.1689 0.9856
vn -0.0000 -0.4310 0.9024
vn -0.0000 -0.3163 0.9487
s 1
usemtl Diffuse_51_51_51_100.029
f 1//1 2//2 3//1
f 1//1 3//1 4//2
f 3//1 5//2 4//2
f 5//2 6//2 4//2
f 4//2 7//2 8//2
f 4//2 8//2 9//2
f 8//2 10//2 9//2
f 9//2 10//2 11//3
f 7//2 4//2 6//2
f 9//2 11//3 12//3
f 13//4 14//5 15//6
f 16//7 17//4 15//6
f 18//8 19//7 15//9
f 18//8 20//10 21//7
f 22//10 18//8 23//11
f 24//12 25//10 23//13
f 24//14 26//15 27//10
f 28//16 29//17 30//18
f 24//19 28//16 31//20
f 32//15 29//17 33//21
f 34//21 29//22 35//23
f 36//24 37//21 35//25
f 38//26 39//24 35//25
f 38//26 40//27 41//24
f 42//24 40//27 43//28
f 44//28 40//27 45//29
f 46//30 47//31 48//32
f 49//30 50//33 45//29
f 47//31 51//34 52//35
f 53//36 54//34 45//37
f 55//38 56//30 57//39
f 57//40 58//34 59//41
f 53//42 60//43 61//44
f 60//43 62//45 63//46
f 64//47 65//48 66//49
f 66//49 67//47 64//47
f 68//50 66//49 65//48
f 68//50 69//51 66//49
f 66//49 69//51 70//52
f 70//52 69//51 71//53
f 72//54 70//52 71//53
f 72//54 73//55 70//52
f 72//54 74//56 73//55
f 73//55 74//56 75//57
f 62//45 73//55 75//57
f 62//45 60//43 73//55
f 63//46 61//44 60//43
f 61//44 59//58 53//42
f 53//42 59//58 76//30
f 77//30 55//38 52//35
f 78//59 79//59 80//59
f 81//59 82//59 80//59
f 83//59 81//59 80//59
f 84//59 83//59 80//59
f 85//59 84//59 80//59
f 86//59 85//59 80//59
f 87//59 86//59 80//59
f 88//59 87//59 80//59
f 79//59 88//59 80//59
f 89//59 79//59 78//59
f 78//59 90//59 89//59
f 78//59 91//59 90//59
f 78//59 92//59 91//59
f 78//59 93//59 92//59
f 94//59 78//59 95//59
f 94//59 96//59 78//59
f 78//59 96//59 93//59
f 97//60 98//61 99//62
f 100//63 97//60 99//62
f 100//63 101//64 97//60
f 97//60 101//64 102//65
f 103//66 104//67 105//68
f 106//69 107//70 108//71
f 109//72 110//73 107//70
f 111//74 98//61 97//60
f 112//75 113//76 114//75
f 112//75 115//77 113//76
f 113//76 115//77 116//78
f 116//78 115//77 110//73
f 117//79 116//78 110//73
f 109//72 117//79 110//73
f 107//70 118//80 108//71
f 108//71 118//80 104//67
f 104//67 118//80 105//68
f 119//81 105//68 120//82
f 120//82 97//60 121//83
f 102//65 122//84 123//85
f 122//84 124//86 125//87
f 126//88 127//89 128//90
f 129//91 130//92 131//93
f 132//94 133//95 134//96
f 134//96 133//95 135//97
f 135//97 133//95 136//98
f 136//98 133//95 137//99
f 137//99 133//95 131//93
f 130//92 137//99 131//93
f 129//91 131//93 128//90
f 138//100 129//91 128//90
f 126//88 125//87 124//86
f 126//88 128//90 125//87
f 125//87 123//85 122//84
f 123//85 97//60 102//65
f 123//85 121//83 97//60
f 121//83 119//81 120//82
f 105//68 119//81 103//66
f 109//72 107//70 106//69
f 138//100 128//90 127//89
f 139//2 140//2 141//2
f 139//1 142//1 143//1
f 139//2 144//2 145//2
f 139//2 146//2 147//2
f 141//1 148//1 149//1
f 141//2 150//2 151//2
f 141//1 152//1 153//1
f 154//2 155//2 156//2
f 141//1 157//1 158//1
f 155//2 141//2 159//2
f 160//101 161//101 162//101
f 163//101 164//101 165//101
s 0
f 166//101 167//101 168//101
f 167//101 169//101 170//101
f 169//59 171//101 172//102
s 1
f 173//101 174//101 175//101
f 176//101 177//101 178//101
f 179//101 180//101 181//101
f 182//101 183//101 184//101
f 185//101 186//101 187//101
f 188//101 189//101 190//101
f 191//101 192//101 193//101
f 194//101 195//101 196//101
f 197//101 198//101 199//101
f 200//101 201//101 202//101
f 203//101 204//101 205//101
f 206//101 207//101 208//101
f 209//101 210//101 211//101
f 212//101 213//101 214//101
f 215//101 216//101 217//101
f 218//101 219//101 220//101
f 216//101 221//101 222//101
f 223//101 224//101 216//101
f 225//101 226//101 227//101
f 228//101 229//101 227//101
f 230//101 231//101 227//101
f 232//101 233//101 227//101
f 234//103 235//101 227//103
f 236//101 237//101 227//101
f 238//101 239//101 227//101
f 227//101 240//101 216//101
f 241//101 242//101 216//101
f 243//101 244//101 216//101
f 245//101 246//101 216//101
f 247//101 227//101 248//101
f 249//101 250//101 251//101
f 252//101 253//101 216//101
f 254//101 255//101 256//101
s 0
f 257//101 258//101 259//104
s 1
f 260//101 261//101 259//101
s 0
f 262//101 263//101 257//101
s 1
f 264//101 265//101 266//101
f 267//105 268//105 269//105
f 270//105 271//105 272//105
f 273//106 274//106 275//106
f 276//106 277//106 278//106
f 279//107 280//107 281//107
f 282//108 283//108 284//108
f 285//104 286//104 287//104
f 288//104 289//104 285//104
f 290//104 291//104 289//104
f 292//104 293//104 291//104
f 294//104 295//104 293//104
f 296//104 297//104 295//104
f 298//109 299//109 297//109
f 300//104 301//104 299//104
f 302//104 303//104 301//104
f 304//104 305//104 303//104
f 306//110 307//110 305//110
f 308//104 309//104 307//104
f 310//104 311//104 309//104
f 309//104 312//104 313//104
f 313//111 314//111 315//111
f 315//104 316//104 317//104
f 317//104 318//104 319//104
f 319//108 320//108 321//108
f 321//104 322//104 323//104
f 323//104 324//104 325//104
f 325//104 326//104 327//104
f 327//104 328//104 329//104
f 329//104 330//104 331//104
f 332//104 333//104 334//104
f 335//111 333//111 336//111
f 337//104 332//104 338//104
f 339//104 337//104 340//104
f 341//104 339//104 342//104
f 343//104 341//104 344//104
f 345//104 343//104 346//104
f 347//104 345//104 348//104
f 284//104 347//104 349//104
f 350//104 351//104 284//104
f 352//104 353//104 283//104
f 354//108 355//108 353//108
f 356//108 357//108 355//108
f 358//109 359//109 357//109
f 360//109 361//109 359//109
f 362//108 363//108 364//108
f 362//104 365//104 366//104
f 364//104 367//104 368//104
f 368//104 369//104 370//104
f 370//104 371//104 372//104
f 372//104 373//104 374//104
f 374//112 375//112 376//112
f 376//109 377//109 378//109
f 378//104 379//104 380//104
f 380//104 381//104 382//104
f 382//104 383//104 384//104
f 384//104 385//104 386//104
f 386//104 387//104 388//104
f 388//104 389//104 390//104
f 391//104 281//104 388//104
f 392//104 280//104 393//104
f 394//104 392//104 395//104
f 396//104 394//104 397//104
f 398//108 399//108 396//108
f 400//104 401//104 399//104
f 402//104 403//104 401//104
f 404//104 405//104 403//104
f 406//104 407//104 405//104
f 331//104 408//104 336//104
f 409//104 410//104 407//104
f 411//109 365//109 361//109
f 410//104 412//104 413//104
f 414//113 415//114 416//113
f 417//115 418//116 419//115
f 420//116 421//116 419//115
f 422//117 423//117 421//116
f 424//118 425//118 423//117
f 426//119 427//119 425//120
f 428//121 427//119 429//119
f 430//122 431//123 432//123
f 433//122 431//123 434//122
f 435//124 433//125 436//124
f 435//126 437//126 438//127
f 439//127 440//127 441//128
f 442//128 443//128 444//129
f 442//128 445//130 446//130
f 446//131 447//132 448//132
f 449//132 450//133 448//132
f 451//134 452//135 453//134
f 454//136 455//135 453//137
f 456//138 457//138 455//136
f 458//139 457//138 459//138
f 460//140 461//139 462//139
f 463//140 461//139 464//140
f 465//141 463//142 466//141
f 465//141 467//141 468//143
f 469//144 470//144 471//145
f 469//144 472//146 473//145
f 473//145 474//147 475//148
f 476//149 477//150 475//149
f 478//151 479//152 480//151
f 481//153 482//153 480//151
f 483//154 484//155 482//156
f 485//157 484//158 486//158
f 487//159 488//160 489//160
f 490//161 488//160 491//161
f 492//162 490//163 493//162
f 492//164 494//165 495//166
f 496//167 497//167 498//168
f 496//167 499//168 500//168
f 500//169 501//170 502//170
f 503//170 504//2 502//170
f 505//2 506//171 507//2
f 508//171 509//171 507//2
f 510//172 511//172 509//171
f 512//173 511//174 513//174
f 514//175 515//176 516//176
f 517//177 518//178 519//178
f 520//177 518//178 521//177
f 522//179 520//180 523//181
f 522//179 524//179 525//182
f 526//183 527//184 528//185
f 526//183 529//185 530//185
f 530//186 531//187 532//187
f 533//188 534//189 532//188
f 535//190 536//191 537//192
f 538//193 539//194 537//192
f 540//195 541//195 539//191
f 542//196 541//197 543//197
f 544//198 545//196 546//196
f 547//199 545//196 548//199
f 549//200 547//198 550//200
f 549//200 551//200 552//201
f 553//201 554//201 555//202
f 553//201 556//202 557//202
f 558//203 559//204 560//203
f 561//205 562//205 558//203
f 563//205 558//203 564//203
f 559//204 565//204 566//203
f 567//206 568//207 559//207
f 569//206 570//207 567//206
f 571//206 567//206 572//208
f 573//206 572//208 574//208
f 572//208 575//209 576//208
f 575//209 577//209 578//208
f 579//210 580//211 575//211
f 581//210 582//211 579//210
f 583//210 579//210 584//212
f 585//210 584//212 586//213
f 584//214 587//215 588//214
f 587//215 589//215 590//214
f 591//216 592//217 587//217
f 593//216 594//217 591//216
f 595//218 591//218 596//219
f 597//218 596//220 598//220
f 596//219 599//221 600//219
f 599//222 601//222 602//219
f 603//223 604//221 599//221
f 605//224 606//221 603//224
f 607//225 603//226 608//227
f 609//226 608//228 610//228
f 608//227 611//229 612//227
f 611//230 613//230 614//228
f 557//231 615//232 611//232
f 616//233 617//232 557//231
f 549//200 618//201 553//201
f 547//198 619//198 620//200
f 545//196 541//197 621//196
f 622//195 539//193 623//193
f 624//189 537//189 532//188
f 625//186 626//187 530//186
f 522//179 627//182 526//182
f 520//180 628//234 629//181
f 518//235 515//176 630//175
f 515//173 511//174 631//173
f 632//172 509//171 633//171
f 634//2 507//2 502//170
f 635//169 636//170 500//169
f 492//164 637//166 496//166
f 490//163 638//163 639//162
f 488//157 484//158 640//157
f 641//155 482//156 642//156
f 643//150 480//150 475//149
f 644//146 645//148 473//146
f 465//141 646//143 469//143
f 463//142 647//140 648//141
f 461//139 457//138 649//139
f 650//138 455//136 651//135
f 652//133 453//236 448//237
f 653//131 654//132 446//131
f 439//127 655//238 442//238
f 435//126 656//239 439//239
f 433//125 657//125 658//124
f 659//120 660//119 425//120
f 421//116 661//116 662//117
f 416//113 663//240 664//113
f 416//113 665//240 666//240
f 667//121 431//121 427//119
f 423//117 668//117 669//118
f 419//114 416//113 670//114
f 671//241 672//242 673//243
f 674//244 675//245 676//246
f 677//247 678//248 679//242
f 680//249 681//248 682//250
f 683//251 684//252 685//253
f 686//254 687//253 688//255
f 689//256 690//255 691//257
f 692//258 693//257 694//259
f 695//257 696//260 697//261
f 698//260 699//262 700//263
f 701//262 702//264 703//263
f 704//265 705//266 706//264
f 707//267 708//268 709//266
f 710//269 711//268 712//267
f 713//270 714//271 715//269
f 716//270 717//269 718//272
f 719//270 720//272 721//273
f 722//272 723//274 724//273
f 725//275 726//276 727//277
f 728//274 729//275 730//273
f 731//278 732//279 733//280
f 734//281 735//282 736//283
f 737//282 738//284 739//285
f 738//286 740//287 741//285
f 742//285 743//288 744//289
f 745//290 746//289 747//291
f 748//290 749//292 750//293
f 751//294 752//295 753//296
f 754//297 755//298 756//299
f 757//300 758//301 759//302
f 760//303 761//304 762//302
f 763//305 764//306 765//307
f 766//308 767//309 768//310
f 769//311 770//312 771//313
f 772//314 773//315 774//316
f 775//317 776//314 777//317
f 778//318 779//317 780//317
f 781//318 782//317 783//319
f 784//318 785//319 786//320
f 787//321 788//322 789//323
f 790//324 791//325 792//326
f 793//327 794//328 795//329
f 796//330 797//331 798//328
f 799//332 800//333 801//331
f 802//334 803//335 804//336
f 805//337 806//338 807//334
f 808//339 809//337 810//340
f 811//341 812//342 813//343
f 814//344 815//341 816//345
f 817//346 818//347 819//348
f 820//349 821//350 822//351
f 823//352 824//353 825//346
f 826//354 827//352 828//355
f 829//356 830//354 831//357
f 832//358 833//356 834//359
f 835//360 836//350 837//341
f 838//361 839//362 840//363
f 841//364 842//365 843//366
f 844//364 845//367 846//368
f 847//366 848//369 849//370
f 850//369 851//371 852//370
f 853//372 854//371 855//369
f 856//373 857//371 858//372
f 859//373 860//372 861//374
f 862//373 863//374 864//375
f 865//373 866//375 867//376
f 868//375 869//377 870//378
f 871//379 872//380 873//376
f 874//381 875//380 876//377
f 877//382 878//380 879//383
f 880//384 881//381 882//385
f 883//386 884//387 885//388
f 886//386 887//388 888//389
f 889//388 890//390 891//391
f 892//390 893//392 894//391
f 895//393 896//394 897//390
f 898//395 899//392 900//396
f 901//397 902//393 903//398
f 904//395 905//398 906//399
f 907//398 908//400 909//399
f 910//400 911//401 912//399
f 913//402 914//359 915//400
f 916//356 917//357 918//359
f 919//354 920//355 921//357
f 922//352 923//403 924//355
f 925//404 926//349 927//348
f 928//405 929//341 930//350
f 931//341 814//344 835//360
f 932//406 816//407 933//341
f 934//408 935//406 936//342
f 937//334 938//340 939//337
f 940//336 941//409 942//334
f 943//331 944//330 945//332
f 946//328 947//327 948//330
f 949//410 950//326 951//327
f 952//322 953//320 954//319
f 955//314 956//316 957//317
f 958//411 959//313 960//316
f 961//309 962//412 963//305
f 964//305 965//304 966//301
f 967//413 968//302 969//299
f 970//297 971//414 972//296
f 973//292 974//297 975//294
f 976//415 977//416 978//290
f 740//287 743//417 979//415
f 980//282 981//418 982//283
f 983//279 984//419 985//280
f 986//274 987//278 988//275
f 989//420 990//421 991//268
f 992//422 993//267 994//266
f 995//262 996//422 997//264
f 998//257 999//423 1000//424
f 1001//251 1002//253 1003//254
f 1004//249 1005//250 1006//251
f 1007//248 1008//425 1009//250
f 1010//244 1011//426 1012//242
f 1013//427 1014//428 1015//429
f 1016//430 1017//256 1018//254
f 1019//263 1020//261 1021//260
f 1022//431 1023//427 1024//246
f 95//59 78//59 1025//432
f 1026//432 1027//433 95//59
f 95//59 1028//434 1029//435
s 0
f 1030//435 1031//59 1032//436
s 1
f 1033//437 132//94 134//96
f 1034//438 1035//439 132//94
f 1036//440 1037//435 1038//436
f 1039//439 1040//441 132//442
f 67//47 1041//443 1042//444
f 64//47 67//47 1043//444
f 1044//443 67//47 1045//445
f 80//59 82//59 1046//446
f 1047//446 82//447 1048//448
f 1049//449 82//59 1050//450
s 0
f 1051//59 1052//451 1053//452
s 1
f 1054//453 1055//452 1056//454
