# Blender 4.4.3
# www.blender.org
mtllib Mesh_22.001.mtl
o Mesh_22.001
v -0.000400 0.008970 -0.009680
v -0.000400 0.008970 -0.009757
v -0.000400 0.008959 -0.009706
v -0.000400 0.008970 -0.009921
v -0.000400 0.008959 -0.009894
v -0.000400 0.008970 -0.009843
v -0.000400 0.008636 -0.009921
v -0.000400 0.008636 -0.009843
v -0.000400 0.008647 -0.009894
v -0.000400 0.008636 -0.009680
v -0.000400 0.008647 -0.009706
v -0.000400 0.008636 -0.009757
v -0.000400 0.008970 -0.009602
v -0.000400 0.008904 -0.009707
v -0.000400 0.008803 -0.009602
v -0.000400 0.008959 -0.009704
v -0.000400 0.008959 -0.009757
v -0.000400 0.008933 -0.009696
v -0.000400 0.008958 -0.009702
v -0.000400 0.008957 -0.009700
v -0.000400 0.008956 -0.009699
v -0.000400 0.008955 -0.009698
v -0.000400 0.008953 -0.009697
v -0.000400 0.008951 -0.009696
v -0.000400 0.008949 -0.009696
v -0.000400 0.008939 -0.009696
v -0.000400 0.008927 -0.009697
v -0.000400 0.008921 -0.009699
v -0.000400 0.008915 -0.009701
v -0.000400 0.008909 -0.009704
v -0.000400 0.008636 -0.009602
v -0.000400 0.008702 -0.009707
v -0.000400 0.008899 -0.009711
v -0.000400 0.008707 -0.009711
v -0.000400 0.008894 -0.009715
v -0.000400 0.008712 -0.009715
v -0.000400 0.008890 -0.009719
v -0.000400 0.008716 -0.009719
v -0.000400 0.008886 -0.009724
v -0.000400 0.008720 -0.009724
v -0.000400 0.008883 -0.009730
v -0.000400 0.008880 -0.009736
v -0.000400 0.008723 -0.009730
v -0.000400 0.008726 -0.009736
v -0.000400 0.008729 -0.009748
v -0.000400 0.008877 -0.009748
v -0.000400 0.008876 -0.009754
v -0.000400 0.008730 -0.009754
v -0.000400 0.008875 -0.009760
v -0.000400 0.008731 -0.009760
v -0.000400 0.008875 -0.009840
v -0.000400 0.008876 -0.009846
v -0.000400 0.008731 -0.009840
v -0.000400 0.008730 -0.009846
v -0.000400 0.008729 -0.009852
v -0.000400 0.008877 -0.009852
v -0.000400 0.008878 -0.009859
v -0.000400 0.008728 -0.009859
v -0.000400 0.008880 -0.009864
v -0.000400 0.008723 -0.009870
v -0.000400 0.008726 -0.009864
v -0.000400 0.008883 -0.009870
v -0.000400 0.008886 -0.009876
v -0.000400 0.008712 -0.009885
v -0.000400 0.008894 -0.009885
v -0.000400 0.008899 -0.009889
v -0.000400 0.008716 -0.009881
v -0.000400 0.008970 -0.010000
v -0.000400 0.008702 -0.009893
v -0.000400 0.008904 -0.009893
v -0.000400 0.008707 -0.009889
v -0.000400 0.008933 -0.009904
v -0.000400 0.008921 -0.009901
v -0.000400 0.008927 -0.009903
v -0.000400 0.008939 -0.009904
v -0.000400 0.008915 -0.009899
v -0.000400 0.008949 -0.009904
v -0.000400 0.008951 -0.009904
v -0.000400 0.008953 -0.009903
v -0.000400 0.008955 -0.009902
v -0.000400 0.008956 -0.009901
v -0.000400 0.008909 -0.009896
v -0.000400 0.008957 -0.009900
v -0.000400 0.008958 -0.009898
v -0.000400 0.008890 -0.009881
v -0.000400 0.008720 -0.009876
v -0.000400 0.008959 -0.009896
v -0.000400 0.008647 -0.009896
v -0.000400 0.008647 -0.009843
v -0.000400 0.008673 -0.009904
v -0.000400 0.008636 -0.010000
v -0.000400 0.008648 -0.009898
v -0.000400 0.008649 -0.009900
v -0.000400 0.008650 -0.009901
v -0.000400 0.008651 -0.009902
v -0.000400 0.008653 -0.009903
v -0.000400 0.008655 -0.009904
v -0.000400 0.008657 -0.009904
v -0.000400 0.008666 -0.009904
v -0.000400 0.008679 -0.009903
v -0.000400 0.008685 -0.009901
v -0.000400 0.008691 -0.009899
v -0.000400 0.008697 -0.009896
v -0.000400 0.008959 -0.009843
v -0.000400 0.008728 -0.009741
v -0.000400 0.008878 -0.009741
v -0.000400 0.008697 -0.009704
v -0.000400 0.008691 -0.009701
v -0.000400 0.008685 -0.009699
v -0.000400 0.008679 -0.009697
v -0.000400 0.008673 -0.009696
v -0.000400 0.008666 -0.009696
v -0.000400 0.008653 -0.009697
v -0.000400 0.008655 -0.009696
v -0.000400 0.008657 -0.009696
v -0.000400 0.008651 -0.009698
v -0.000400 0.008650 -0.009699
v -0.000400 0.008649 -0.009700
v -0.000400 0.008648 -0.009702
v -0.000400 0.008647 -0.009704
v -0.000400 0.008647 -0.009757
v -0.000375 0.008995 -0.009757
v -0.000377 0.008993 -0.009757
v -0.000367 0.009003 -0.009747
v -0.000400 0.008970 -0.009757
v -0.000373 0.008997 -0.009756
v -0.000370 0.009000 -0.009754
v -0.000371 0.008999 -0.009755
v -0.000368 0.009002 -0.009751
v -0.000369 0.009001 -0.009753
v -0.000367 0.009003 -0.009749
v -0.000400 0.008970 -0.009680
v -0.000373 0.008997 -0.009605
v -0.000400 0.008970 -0.009680
v -0.000400 0.008970 -0.009602
v -0.000373 0.008997 -0.009600
v -0.000367 0.009003 -0.009600
v -0.000400 0.008970 -0.009680
v -0.000400 0.008970 -0.009757
v -0.000360 0.008603 -0.009600
v -0.000373 0.008609 -0.009600
v -0.000367 0.008603 -0.009600
v -0.000360 0.009003 -0.009600
v -0.000373 0.008997 -0.009600
v -0.000373 0.008803 -0.009600
v -0.000367 0.009003 -0.009600
v -0.000373 0.008997 -0.009600
v -0.000367 0.008603 -0.009600
v -0.000373 0.008609 -0.009605
v -0.000367 0.008603 -0.009747
v -0.000400 0.008636 -0.009680
v -0.000400 0.008636 -0.009680
v -0.000400 0.008636 -0.009757
v -0.000375 0.008611 -0.009757
v -0.000377 0.008613 -0.009757
v -0.000373 0.008609 -0.009756
v -0.000370 0.008606 -0.009754
v -0.000369 0.008605 -0.009753
v -0.000371 0.008607 -0.009755
v -0.000368 0.008604 -0.009751
v -0.000400 0.008636 -0.009757
v -0.000400 0.008636 -0.009680
v -0.000400 0.008636 -0.009602
v -0.000367 0.008603 -0.009749
v -0.000367 0.008603 -0.009600
v -0.000373 0.008609 -0.009600
v -0.000360 0.008803 -0.009978
v -0.000360 0.008803 -0.010000
v -0.000360 0.008843 -0.009978
v -0.000360 0.008783 -0.009830
v -0.000360 0.008726 -0.009864
v -0.000360 0.008723 -0.009870
v -0.000360 0.008783 -0.009820
v -0.000360 0.008773 -0.009820
v -0.000360 0.008883 -0.009870
v -0.000360 0.008823 -0.009830
v -0.000360 0.008843 -0.009958
v -0.000360 0.008833 -0.009820
v -0.000360 0.008875 -0.009840
v -0.000360 0.008833 -0.009780
v -0.000360 0.008875 -0.009760
v -0.000360 0.008880 -0.009864
v -0.000360 0.008878 -0.009859
v -0.000360 0.008823 -0.009770
v -0.000360 0.008876 -0.009754
v -0.000360 0.008783 -0.009770
v -0.000360 0.008886 -0.009724
v -0.000360 0.008878 -0.009741
v -0.000360 0.008880 -0.009736
v -0.000360 0.008877 -0.009748
v -0.000360 0.008731 -0.009760
v -0.000360 0.008731 -0.009840
v -0.000360 0.008730 -0.009846
v -0.000360 0.008823 -0.009780
v -0.000360 0.009002 -0.009994
v -0.000360 0.009003 -0.009992
v -0.000360 0.009003 -0.009990
v -0.000360 0.009001 -0.009996
v -0.000360 0.009000 -0.009997
v -0.000360 0.008999 -0.009998
v -0.000360 0.008997 -0.009999
v -0.000360 0.008995 -0.010000
v -0.000360 0.008993 -0.010000
v -0.000360 0.008673 -0.009904
v -0.000360 0.008613 -0.010000
v -0.000360 0.008763 -0.009978
v -0.000360 0.008666 -0.009904
v -0.000360 0.008657 -0.009904
v -0.000360 0.008655 -0.009904
v -0.000360 0.008603 -0.009990
v -0.000360 0.008607 -0.009998
v -0.000360 0.008606 -0.009997
v -0.000360 0.008609 -0.009999
v -0.000360 0.008611 -0.010000
v -0.000360 0.008604 -0.009994
v -0.000360 0.008605 -0.009996
v -0.000360 0.008603 -0.009992
v -0.000360 0.008603 -0.009853
v -0.000360 0.008648 -0.009898
v -0.000360 0.008647 -0.009896
v -0.000360 0.008613 -0.009843
v -0.000360 0.008647 -0.009894
v -0.000360 0.008603 -0.009851
v -0.000360 0.008604 -0.009849
v -0.000360 0.008605 -0.009847
v -0.000360 0.008607 -0.009845
v -0.000360 0.008609 -0.009844
v -0.000360 0.008606 -0.009846
v -0.000360 0.008611 -0.009843
v -0.000360 0.008647 -0.009843
v -0.000360 0.008649 -0.009900
v -0.000360 0.008650 -0.009901
v -0.000360 0.008651 -0.009902
v -0.000360 0.008653 -0.009903
v -0.000360 0.008763 -0.009958
v -0.000360 0.008679 -0.009903
v -0.000360 0.008685 -0.009901
v -0.000360 0.008691 -0.009899
v -0.000360 0.008697 -0.009896
v -0.000360 0.008712 -0.009885
v -0.000360 0.008707 -0.009889
v -0.000360 0.008702 -0.009893
v -0.000360 0.008716 -0.009881
v -0.000360 0.008720 -0.009876
v -0.000360 0.008728 -0.009859
v -0.000360 0.008773 -0.009780
v -0.000360 0.008730 -0.009754
v -0.000360 0.008883 -0.009730
v -0.000360 0.008729 -0.009748
v -0.000360 0.008729 -0.009852
v -0.000360 0.008723 -0.009730
v -0.000360 0.008726 -0.009736
v -0.000360 0.008728 -0.009741
v -0.000360 0.008720 -0.009724
v -0.000360 0.008894 -0.009715
v -0.000360 0.008707 -0.009711
v -0.000360 0.008712 -0.009715
v -0.000360 0.008890 -0.009719
v -0.000360 0.008697 -0.009704
v -0.000360 0.008702 -0.009707
v -0.000360 0.008904 -0.009707
v -0.000360 0.008899 -0.009711
v -0.000360 0.008691 -0.009701
v -0.000360 0.008603 -0.009600
v -0.000360 0.008685 -0.009699
v -0.000360 0.008666 -0.009696
v -0.000360 0.008603 -0.009600
v -0.000360 0.008657 -0.009696
v -0.000360 0.008603 -0.009600
v -0.000360 0.008673 -0.009696
v -0.000360 0.008679 -0.009697
v -0.000360 0.008603 -0.009600
v -0.000360 0.008655 -0.009696
v -0.000360 0.008603 -0.009600
v -0.000360 0.008653 -0.009697
v -0.000360 0.008603 -0.009600
v -0.000360 0.008651 -0.009698
v -0.000360 0.008603 -0.009600
v -0.000360 0.008650 -0.009699
v -0.000360 0.008603 -0.009600
v -0.000360 0.008649 -0.009700
v -0.000360 0.008603 -0.009600
v -0.000360 0.008648 -0.009702
v -0.000360 0.008603 -0.009600
v -0.000360 0.008603 -0.009747
v -0.000360 0.008603 -0.009600
v -0.000360 0.008909 -0.009704
v -0.000360 0.008716 -0.009719
v -0.000360 0.008783 -0.009780
v -0.000360 0.008877 -0.009852
v -0.000360 0.008876 -0.009846
v -0.000360 0.008647 -0.009706
v -0.000360 0.008613 -0.009757
v -0.000360 0.008647 -0.009757
v -0.000360 0.008611 -0.009757
v -0.000360 0.008604 -0.009751
v -0.000360 0.008603 -0.009749
v -0.000360 0.009003 -0.009747
v -0.000360 0.008958 -0.009702
v -0.000360 0.008959 -0.009704
v -0.000360 0.008993 -0.009757
v -0.000360 0.008959 -0.009706
v -0.000360 0.009003 -0.009749
v -0.000360 0.009002 -0.009751
v -0.000360 0.009001 -0.009753
v -0.000360 0.008999 -0.009755
v -0.000360 0.008997 -0.009756
v -0.000360 0.009000 -0.009754
v -0.000360 0.008995 -0.009757
v -0.000360 0.009003 -0.009600
v -0.000360 0.008959 -0.009757
v -0.000360 0.008957 -0.009700
v -0.000360 0.009003 -0.009600
v -0.000360 0.008956 -0.009699
v -0.000360 0.009003 -0.009600
v -0.000360 0.008955 -0.009698
v -0.000360 0.009003 -0.009600
v -0.000360 0.008953 -0.009697
v -0.000360 0.009003 -0.009600
v -0.000360 0.009003 -0.009600
v -0.000360 0.008951 -0.009696
v -0.000360 0.009003 -0.009600
v -0.000360 0.008939 -0.009696
v -0.000360 0.008949 -0.009696
v -0.000360 0.009003 -0.009600
v -0.000360 0.008933 -0.009696
v -0.000360 0.009003 -0.009600
v -0.000360 0.008921 -0.009699
v -0.000360 0.008927 -0.009697
v -0.000360 0.009003 -0.009600
v -0.000360 0.008915 -0.009701
v -0.000360 0.009003 -0.009600
v -0.000360 0.009003 -0.009600
v -0.000360 0.008603 -0.009600
v -0.000360 0.008603 -0.009600
v -0.000360 0.008647 -0.009704
v -0.000360 0.008603 -0.009600
v -0.000360 0.008609 -0.009756
v -0.000360 0.008607 -0.009755
v -0.000360 0.008605 -0.009753
v -0.000360 0.008606 -0.009754
v -0.000360 0.008823 -0.009820
v -0.000360 0.008894 -0.009885
v -0.000360 0.008890 -0.009881
v -0.000360 0.008886 -0.009876
v -0.000360 0.008899 -0.009889
v -0.000360 0.008904 -0.009893
v -0.000360 0.008909 -0.009896
v -0.000360 0.008915 -0.009899
v -0.000360 0.008921 -0.009901
v -0.000360 0.008927 -0.009903
v -0.000360 0.008933 -0.009904
v -0.000360 0.008939 -0.009904
v -0.000360 0.008953 -0.009903
v -0.000360 0.008951 -0.009904
v -0.000360 0.008949 -0.009904
v -0.000360 0.008955 -0.009902
v -0.000360 0.008956 -0.009901
v -0.000360 0.008957 -0.009900
v -0.000360 0.008958 -0.009898
v -0.000360 0.009003 -0.009853
v -0.000360 0.008959 -0.009896
v -0.000360 0.008959 -0.009894
v -0.000360 0.008993 -0.009843
v -0.000360 0.008959 -0.009843
v -0.000360 0.008995 -0.009843
v -0.000360 0.008603 -0.009600
v -0.000360 0.009003 -0.009600
v -0.000360 0.009003 -0.009600
v -0.000360 0.008997 -0.009844
v -0.000360 0.008999 -0.009845
v -0.000360 0.009000 -0.009846
v -0.000360 0.009001 -0.009847
v -0.000360 0.009002 -0.009849
v -0.000360 0.009003 -0.009851
v -0.000360 0.009003 -0.009990
v -0.000367 0.009003 -0.009990
v -0.000360 0.009003 -0.009853
v -0.000360 0.009003 -0.009853
v -0.000367 0.009003 -0.009853
v -0.000360 0.009003 -0.009747
v -0.000367 0.009003 -0.009747
v -0.000360 0.009003 -0.009600
v -0.000360 0.009003 -0.009600
v -0.000367 0.009003 -0.009747
v -0.000367 0.009003 -0.009600
v -0.000400 0.008970 -0.009921
v -0.000367 0.009003 -0.009990
v -0.000400 0.008970 -0.010000
v -0.000400 0.008970 -0.009921
v -0.000400 0.008970 -0.009843
v -0.000367 0.009003 -0.009853
v -0.000377 0.008993 -0.010000
v -0.000400 0.008970 -0.010000
v -0.000367 0.009003 -0.009990
v -0.000375 0.008995 -0.010000
v -0.000367 0.009003 -0.009990
v -0.000373 0.008997 -0.009999
v -0.000367 0.009003 -0.009990
v -0.000371 0.008999 -0.009998
v -0.000367 0.009003 -0.009990
v -0.000370 0.009000 -0.009997
v -0.000368 0.009002 -0.009994
v -0.000369 0.009001 -0.009996
v -0.000367 0.009003 -0.009990
v -0.000367 0.009003 -0.009990
v -0.000367 0.009003 -0.009992
v -0.000367 0.009003 -0.009990
v -0.000367 0.009003 -0.009990
v -0.000367 0.009003 -0.009990
v -0.000400 0.008970 -0.009921
v -0.000367 0.009003 -0.009853
v -0.000367 0.009003 -0.009853
v -0.000400 0.008970 -0.009843
v -0.000377 0.008993 -0.009843
v -0.000375 0.008995 -0.009843
v -0.000367 0.009003 -0.009853
v -0.000373 0.008997 -0.009844
v -0.000367 0.009003 -0.009853
v -0.000367 0.009003 -0.009853
v -0.000370 0.009000 -0.009846
v -0.000369 0.009001 -0.009847
v -0.000367 0.009003 -0.009853
v -0.000371 0.008999 -0.009845
v -0.000367 0.009003 -0.009851
v -0.000367 0.009003 -0.009853
v -0.000368 0.009002 -0.009849
v -0.000367 0.009003 -0.009853
v -0.000367 0.009003 -0.009853
v -0.000360 0.008603 -0.009853
v -0.000367 0.008603 -0.009853
v -0.000360 0.008603 -0.009990
v -0.000360 0.008603 -0.009990
v -0.000367 0.008603 -0.009990
v -0.000400 0.008636 -0.009921
v -0.000367 0.008603 -0.009853
v -0.000400 0.008636 -0.009843
v -0.000400 0.008636 -0.009921
v -0.000400 0.008636 -0.010000
v -0.000367 0.008603 -0.009990
v -0.000377 0.008613 -0.009843
v -0.000400 0.008636 -0.009843
v -0.000367 0.008603 -0.009853
v -0.000375 0.008611 -0.009843
v -0.000367 0.008603 -0.009853
v -0.000373 0.008609 -0.009844
v -0.000367 0.008603 -0.009853
v -0.000371 0.008607 -0.009845
v -0.000367 0.008603 -0.009853
v -0.000370 0.008606 -0.009846
v -0.000368 0.008604 -0.009849
v -0.000369 0.008605 -0.009847
v -0.000367 0.008603 -0.009853
v -0.000367 0.008603 -0.009853
v -0.000367 0.008603 -0.009851
v -0.000367 0.008603 -0.009853
v -0.000367 0.008603 -0.009853
v -0.000367 0.008603 -0.009853
v -0.000400 0.008636 -0.009921
v -0.000367 0.008603 -0.009990
v -0.000367 0.008603 -0.009990
v -0.000400 0.008636 -0.010000
v -0.000377 0.008613 -0.010000
v -0.000375 0.008611 -0.010000
v -0.000367 0.008603 -0.009990
v -0.000373 0.008609 -0.009999
v -0.000367 0.008603 -0.009990
v -0.000367 0.008603 -0.009990
v -0.000370 0.008606 -0.009997
v -0.000369 0.008605 -0.009996
v -0.000367 0.008603 -0.009990
v -0.000371 0.008607 -0.009998
v -0.000367 0.008603 -0.009992
v -0.000367 0.008603 -0.009990
v -0.000368 0.008604 -0.009994
v -0.000367 0.008603 -0.009990
v -0.000367 0.008603 -0.009990
v -0.000400 0.008970 -0.010000
v -0.000360 0.008803 -0.010000
v -0.000400 0.008636 -0.010000
v -0.000400 0.008970 -0.010000
v -0.000377 0.008993 -0.010000
v -0.000360 0.008993 -0.010000
v -0.000400 0.008636 -0.010000
v -0.000360 0.008803 -0.010000
v -0.000360 0.008613 -0.010000
v -0.000377 0.008613 -0.010000
v -0.000400 0.008636 -0.010000
v -0.000360 0.008613 -0.010000
v -0.000360 0.008803 -0.010000
v -0.000400 0.008970 -0.010000
v -0.000360 0.008993 -0.010000
v -0.000360 0.008603 -0.009600
v -0.000367 0.008603 -0.009600
v -0.000360 0.008603 -0.009747
v -0.000360 0.008603 -0.009747
v -0.000367 0.008603 -0.009600
v -0.000367 0.008603 -0.009747
v -0.000360 0.008731 -0.009760
v -0.000400 0.008731 -0.009760
v -0.000360 0.008731 -0.009840
v -0.000400 0.008731 -0.009760
v -0.000400 0.008731 -0.009840
v -0.000360 0.008731 -0.009840
v -0.000360 0.008673 -0.009904
v -0.000360 0.008679 -0.009903
v -0.000400 0.008673 -0.009904
v -0.000360 0.008679 -0.009903
v -0.000360 0.008685 -0.009901
v -0.000400 0.008679 -0.009903
v -0.000360 0.008685 -0.009901
v -0.000400 0.008685 -0.009901
v -0.000400 0.008679 -0.009903
v -0.000360 0.008691 -0.009899
v -0.000400 0.008691 -0.009899
v -0.000400 0.008685 -0.009901
v -0.000360 0.008697 -0.009896
v -0.000400 0.008691 -0.009899
v -0.000360 0.008691 -0.009899
v -0.000360 0.008702 -0.009893
v -0.000400 0.008697 -0.009896
v -0.000360 0.008697 -0.009896
v -0.000400 0.008702 -0.009893
v -0.000400 0.008697 -0.009896
v -0.000360 0.008702 -0.009893
v -0.000400 0.008707 -0.009889
v -0.000400 0.008702 -0.009893
v -0.000360 0.008707 -0.009889
v -0.000400 0.008707 -0.009889
v -0.000360 0.008707 -0.009889
v -0.000360 0.008712 -0.009885
v -0.000400 0.008712 -0.009885
v -0.000360 0.008712 -0.009885
v -0.000360 0.008716 -0.009881
v -0.000400 0.008712 -0.009885
v -0.000360 0.008716 -0.009881
v -0.000400 0.008716 -0.009881
v -0.000400 0.008716 -0.009881
v -0.000360 0.008720 -0.009876
v -0.000400 0.008720 -0.009876
v -0.000360 0.008720 -0.009876
v -0.000360 0.008723 -0.009870
v -0.000400 0.008720 -0.009876
v -0.000360 0.008723 -0.009870
v -0.000360 0.008726 -0.009864
v -0.000400 0.008723 -0.009870
v -0.000360 0.008726 -0.009864
v -0.000400 0.008726 -0.009864
v -0.000400 0.008723 -0.009870
v -0.000360 0.008673 -0.009904
v -0.000400 0.008673 -0.009904
v -0.000360 0.008666 -0.009904
v -0.000400 0.008730 -0.009846
v -0.000360 0.008731 -0.009840
v -0.000400 0.008731 -0.009840
v -0.000360 0.008730 -0.009846
v -0.000360 0.008731 -0.009840
v -0.000400 0.008730 -0.009846
v -0.000360 0.008730 -0.009846
v -0.000400 0.008730 -0.009846
v -0.000400 0.008729 -0.009852
v -0.000360 0.008730 -0.009846
v -0.000400 0.008729 -0.009852
v -0.000360 0.008729 -0.009852
v -0.000400 0.008729 -0.009852
v -0.000400 0.008728 -0.009859
v -0.000360 0.008729 -0.009852
v -0.000400 0.008728 -0.009859
v -0.000360 0.008728 -0.009859
v -0.000360 0.008729 -0.009852
v -0.000400 0.008726 -0.009864
v -0.000360 0.008728 -0.009859
v -0.000400 0.008728 -0.009859
v -0.000360 0.008726 -0.009864
v -0.000360 0.008728 -0.009859
v -0.000400 0.008726 -0.009864
v -0.000400 0.008720 -0.009876
v -0.000360 0.008723 -0.009870
v -0.000400 0.008723 -0.009870
v -0.000400 0.008716 -0.009881
v -0.000360 0.008716 -0.009881
v -0.000360 0.008720 -0.009876
v -0.000400 0.008712 -0.009885
v -0.000400 0.008707 -0.009889
v -0.000360 0.008712 -0.009885
v -0.000360 0.008707 -0.009889
v -0.000400 0.008702 -0.009893
v -0.000360 0.008702 -0.009893
v -0.000360 0.008697 -0.009896
v -0.000400 0.008697 -0.009896
v -0.000400 0.008691 -0.009899
v -0.000360 0.008685 -0.009901
v -0.000360 0.008691 -0.009899
v -0.000400 0.008685 -0.009901
v -0.000400 0.008673 -0.009904
v -0.000400 0.008666 -0.009904
v -0.000360 0.008666 -0.009904
v -0.000360 0.008679 -0.009903
v -0.000400 0.008679 -0.009903
v -0.000400 0.008673 -0.009904
v -0.000400 0.008657 -0.009904
v -0.000360 0.008657 -0.009904
v -0.000400 0.008666 -0.009904
v -0.000360 0.008657 -0.009904
v -0.000360 0.008666 -0.009904
v -0.000400 0.008666 -0.009904
v -0.000360 0.008647 -0.009894
v -0.000400 0.008647 -0.009894
v -0.000360 0.008647 -0.009843
v -0.000400 0.008647 -0.009894
v -0.000400 0.008647 -0.009843
v -0.000360 0.008647 -0.009843
v -0.000400 0.008647 -0.009706
v -0.000360 0.008647 -0.009706
v -0.000400 0.008647 -0.009757
v -0.000360 0.008647 -0.009706
v -0.000360 0.008647 -0.009757
v -0.000400 0.008647 -0.009757
v -0.000360 0.008657 -0.009696
v -0.000400 0.008657 -0.009696
v -0.000360 0.008666 -0.009696
v -0.000400 0.008657 -0.009696
v -0.000400 0.008666 -0.009696
v -0.000360 0.008666 -0.009696
v -0.000360 0.008730 -0.009754
v -0.000360 0.008729 -0.009748
v -0.000400 0.008730 -0.009754
v -0.000360 0.008729 -0.009748
v -0.000360 0.008728 -0.009741
v -0.000400 0.008729 -0.009748
v -0.000360 0.008728 -0.009741
v -0.000400 0.008728 -0.009741
v -0.000400 0.008729 -0.009748
v -0.000360 0.008726 -0.009736
v -0.000400 0.008726 -0.009736
v -0.000400 0.008728 -0.009741
v -0.000360 0.008723 -0.009730
v -0.000400 0.008726 -0.009736
v -0.000360 0.008726 -0.009736
v -0.000360 0.008720 -0.009724
v -0.000400 0.008723 -0.009730
v -0.000360 0.008723 -0.009730
v -0.000400 0.008720 -0.009724
v -0.000400 0.008723 -0.009730
v -0.000360 0.008720 -0.009724
v -0.000400 0.008716 -0.009719
v -0.000400 0.008720 -0.009724
v -0.000360 0.008716 -0.009719
v -0.000400 0.008716 -0.009719
v -0.000360 0.008716 -0.009719
v -0.000360 0.008712 -0.009715
v -0.000400 0.008712 -0.009715
v -0.000360 0.008712 -0.009715
v -0.000360 0.008707 -0.009711
v -0.000400 0.008712 -0.009715
v -0.000360 0.008707 -0.009711
v -0.000400 0.008707 -0.009711
v -0.000400 0.008707 -0.009711
v -0.000360 0.008702 -0.009707
v -0.000400 0.008702 -0.009707
v -0.000360 0.008702 -0.009707
v -0.000360 0.008697 -0.009704
v -0.000400 0.008702 -0.009707
v -0.000360 0.008697 -0.009704
v -0.000360 0.008691 -0.009701
v -0.000400 0.008697 -0.009704
v -0.000360 0.008691 -0.009701
v -0.000400 0.008691 -0.009701
v -0.000400 0.008697 -0.009704
v -0.000360 0.008730 -0.009754
v -0.000400 0.008730 -0.009754
v -0.000360 0.008731 -0.009760
v -0.000400 0.008673 -0.009696
v -0.000360 0.008666 -0.009696
v -0.000400 0.008666 -0.009696
v -0.000360 0.008673 -0.009696
v -0.000360 0.008666 -0.009696
v -0.000400 0.008673 -0.009696
v -0.000360 0.008673 -0.009696
v -0.000400 0.008673 -0.009696
v -0.000400 0.008679 -0.009697
v -0.000360 0.008673 -0.009696
v -0.000400 0.008679 -0.009697
v -0.000360 0.008679 -0.009697
v -0.000400 0.008679 -0.009697
v -0.000400 0.008685 -0.009699
v -0.000360 0.008679 -0.009697
v -0.000400 0.008685 -0.009699
v -0.000360 0.008685 -0.009699
v -0.000360 0.008679 -0.009697
v -0.000400 0.008691 -0.009701
v -0.000360 0.008685 -0.009699
v -0.000400 0.008685 -0.009699
v -0.000360 0.008691 -0.009701
v -0.000360 0.008685 -0.009699
v -0.000400 0.008691 -0.009701
v -0.000400 0.008702 -0.009707
v -0.000360 0.008697 -0.009704
v -0.000400 0.008697 -0.009704
v -0.000400 0.008707 -0.009711
v -0.000360 0.008707 -0.009711
v -0.000360 0.008702 -0.009707
v -0.000400 0.008712 -0.009715
v -0.000400 0.008716 -0.009719
v -0.000360 0.008712 -0.009715
v -0.000360 0.008716 -0.009719
v -0.000400 0.008720 -0.009724
v -0.000360 0.008720 -0.009724
v -0.000360 0.008723 -0.009730
v -0.000400 0.008723 -0.009730
v -0.000400 0.008726 -0.009736
v -0.000360 0.008728 -0.009741
v -0.000360 0.008726 -0.009736
v -0.000400 0.008728 -0.009741
v -0.000400 0.008730 -0.009754
v -0.000400 0.008731 -0.009760
v -0.000360 0.008731 -0.009760
v -0.000360 0.008729 -0.009748
v -0.000400 0.008729 -0.009748
v -0.000400 0.008730 -0.009754
v -0.000377 0.008613 -0.009843
v -0.000360 0.008647 -0.009843
v -0.000400 0.008636 -0.009843
v -0.000360 0.008613 -0.009843
v -0.000360 0.008647 -0.009843
v -0.000377 0.008613 -0.009843
v -0.000400 0.008647 -0.009843
v -0.000400 0.008636 -0.009843
v -0.000360 0.008647 -0.009843
v -0.000360 0.008613 -0.009757
v -0.000377 0.008613 -0.009757
v -0.000360 0.008647 -0.009757
v -0.000400 0.008636 -0.009757
v -0.000400 0.008647 -0.009757
v -0.000360 0.008647 -0.009757
v -0.000377 0.008613 -0.009757
v -0.000400 0.008636 -0.009757
v -0.000360 0.008647 -0.009757
v -0.000360 0.008875 -0.009760
v -0.000360 0.008875 -0.009840
v -0.000400 0.008875 -0.009760
v -0.000400 0.008875 -0.009760
v -0.000360 0.008875 -0.009840
v -0.000400 0.008875 -0.009840
v -0.000400 0.008939 -0.009904
v -0.000400 0.008933 -0.009904
v -0.000360 0.008939 -0.009904
v -0.000400 0.008933 -0.009904
v -0.000360 0.008933 -0.009904
v -0.000360 0.008939 -0.009904
v -0.000400 0.008927 -0.009903
v -0.000360 0.008933 -0.009904
v -0.000400 0.008933 -0.009904
v -0.000360 0.008927 -0.009903
v -0.000360 0.008933 -0.009904
v -0.000400 0.008927 -0.009903
v -0.000360 0.008927 -0.009903
v -0.000400 0.008927 -0.009903
v -0.000400 0.008921 -0.009901
v -0.000360 0.008927 -0.009903
v -0.000400 0.008921 -0.009901
v -0.000360 0.008921 -0.009901
v -0.000400 0.008921 -0.009901
v -0.000400 0.008915 -0.009899
v -0.000360 0.008921 -0.009901
v -0.000400 0.008915 -0.009899
v -0.000360 0.008915 -0.009899
v -0.000360 0.008921 -0.009901
v -0.000400 0.008909 -0.009896
v -0.000360 0.008915 -0.009899
v -0.000400 0.008915 -0.009899
v -0.000360 0.008909 -0.009896
v -0.000360 0.008915 -0.009899
v -0.000400 0.008909 -0.009896
v -0.000360 0.008909 -0.009896
v -0.000400 0.008909 -0.009896
v -0.000400 0.008904 -0.009893
v -0.000360 0.008909 -0.009896
v -0.000400 0.008904 -0.009893
v -0.000360 0.008904 -0.009893
v -0.000400 0.008904 -0.009893
v -0.000400 0.008899 -0.009889
v -0.000360 0.008904 -0.009893
v -0.000400 0.008899 -0.009889
v -0.000360 0.008899 -0.009889
v -0.000360 0.008904 -0.009893
v -0.000360 0.008890 -0.009881
v -0.000400 0.008886 -0.009876
v -0.000360 0.008886 -0.009876
v -0.000360 0.008886 -0.009876
v -0.000400 0.008886 -0.009876
v -0.000400 0.008883 -0.009870
v -0.000360 0.008875 -0.009840
v -0.000360 0.008876 -0.009846
v -0.000400 0.008875 -0.009840
v -0.000360 0.008876 -0.009846
v -0.000400 0.008876 -0.009846
v -0.000400 0.008875 -0.009840
v -0.000360 0.008877 -0.009852
v -0.000400 0.008876 -0.009846
v -0.000360 0.008876 -0.009846
v -0.000400 0.008877 -0.009852
v -0.000400 0.008876 -0.009846
v -0.000360 0.008877 -0.009852
v -0.000400 0.008877 -0.009852
v -0.000360 0.008877 -0.009852
v -0.000360 0.008878 -0.009859
v -0.000400 0.008877 -0.009852
v -0.000360 0.008878 -0.009859
v -0.000400 0.008878 -0.009859
v -0.000360 0.008878 -0.009859
v -0.000360 0.008880 -0.009864
v -0.000400 0.008878 -0.009859
v -0.000360 0.008880 -0.009864
v -0.000400 0.008880 -0.009864
v -0.000400 0.008878 -0.009859
v -0.000360 0.008883 -0.009870
v -0.000400 0.008880 -0.009864
v -0.000360 0.008880 -0.009864
v -0.000400 0.008883 -0.009870
v -0.000400 0.008880 -0.009864
v -0.000360 0.008883 -0.009870
v -0.000400 0.008883 -0.009870
v -0.000360 0.008883 -0.009870
v -0.000360 0.008886 -0.009876
v -0.000400 0.008886 -0.009876
v -0.000360 0.008890 -0.009881
v -0.000400 0.008890 -0.009881
v -0.000360 0.008890 -0.009881
v -0.000360 0.008894 -0.009885
v -0.000400 0.008890 -0.009881
v -0.000360 0.008894 -0.009885
v -0.000400 0.008894 -0.009885
v -0.000400 0.008890 -0.009881
v -0.000360 0.008899 -0.009889
v -0.000400 0.008894 -0.009885
v -0.000360 0.008894 -0.009885
v -0.000360 0.008899 -0.009889
v -0.000400 0.008899 -0.009889
v -0.000400 0.008894 -0.009885
v -0.000400 0.008939 -0.009904
v -0.000360 0.008939 -0.009904
v -0.000400 0.008949 -0.009904
v -0.000400 0.008949 -0.009904
v -0.000360 0.008939 -0.009904
v -0.000360 0.008949 -0.009904
v -0.000360 0.008959 -0.009843
v -0.000400 0.008959 -0.009843
v -0.000360 0.008959 -0.009894
v -0.000360 0.008959 -0.009894
v -0.000400 0.008959 -0.009843
v -0.000400 0.008959 -0.009894
v -0.000400 0.008959 -0.009757
v -0.000360 0.008959 -0.009757
v -0.000400 0.008959 -0.009706
v -0.000400 0.008959 -0.009706
v -0.000360 0.008959 -0.009757
v -0.000360 0.008959 -0.009706
v -0.000360 0.008939 -0.009696
v -0.000400 0.008939 -0.009696
v -0.000360 0.008949 -0.009696
v -0.000360 0.008949 -0.009696
v -0.000400 0.008939 -0.009696
v -0.000400 0.008949 -0.009696
v -0.000400 0.008875 -0.009760
v -0.000400 0.008876 -0.009754
v -0.000360 0.008875 -0.009760
v -0.000400 0.008876 -0.009754
v -0.000400 0.008877 -0.009748
v -0.000360 0.008876 -0.009754
v -0.000400 0.008877 -0.009748
v -0.000360 0.008877 -0.009748
v -0.000360 0.008876 -0.009754
v -0.000400 0.008878 -0.009741
v -0.000360 0.008878 -0.009741
v -0.000360 0.008877 -0.009748
v -0.000400 0.008880 -0.009736
v -0.000360 0.008880 -0.009736
v -0.000360 0.008878 -0.009741
v -0.000400 0.008883 -0.009730
v -0.000360 0.008880 -0.009736
v -0.000400 0.008880 -0.009736
v -0.000400 0.008886 -0.009724
v -0.000360 0.008883 -0.009730
v -0.000400 0.008883 -0.009730
v -0.000360 0.008886 -0.009724
v -0.000360 0.008883 -0.009730
v -0.000400 0.008886 -0.009724
v -0.000360 0.008890 -0.009719
v -0.000360 0.008886 -0.009724
v -0.000400 0.008890 -0.009719
v -0.000360 0.008890 -0.009719
v -0.000400 0.008890 -0.009719
v -0.000400 0.008894 -0.009715
v -0.000360 0.008894 -0.009715
v -0.000400 0.008894 -0.009715
v -0.000400 0.008899 -0.009711
v -0.000360 0.008894 -0.009715
v -0.000400 0.008899 -0.009711
v -0.000360 0.008899 -0.009711
v -0.000360 0.008899 -0.009711
v -0.000400 0.008904 -0.009707
v -0.000360 0.008904 -0.009707
v -0.000400 0.008904 -0.009707
v -0.000400 0.008909 -0.009704
v -0.000360 0.008904 -0.009707
v -0.000400 0.008909 -0.009704
v -0.000400 0.008915 -0.009701
v -0.000360 0.008909 -0.009704
v -0.000400 0.008915 -0.009701
v -0.000360 0.008915 -0.009701
v -0.000360 0.008909 -0.009704
v -0.000360 0.008933 -0.009696
v -0.000400 0.008939 -0.009696
v -0.000360 0.008939 -0.009696
v -0.000400 0.008933 -0.009696
v -0.000400 0.008939 -0.009696
v -0.000360 0.008933 -0.009696
v -0.000400 0.008933 -0.009696
v -0.000360 0.008933 -0.009696
v -0.000360 0.008927 -0.009697
v -0.000400 0.008933 -0.009696
v -0.000360 0.008927 -0.009697
v -0.000400 0.008927 -0.009697
v -0.000360 0.008927 -0.009697
v -0.000360 0.008921 -0.009699
v -0.000400 0.008927 -0.009697
v -0.000360 0.008921 -0.009699
v -0.000400 0.008921 -0.009699
v -0.000400 0.008927 -0.009697
v -0.000360 0.008915 -0.009701
v -0.000400 0.008921 -0.009699
v -0.000360 0.008921 -0.009699
v -0.000400 0.008915 -0.009701
v -0.000400 0.008921 -0.009699
v -0.000360 0.008915 -0.009701
v -0.000360 0.008904 -0.009707
v -0.000400 0.008909 -0.009704
v -0.000360 0.008909 -0.009704
v -0.000360 0.008899 -0.009711
v -0.000400 0.008899 -0.009711
v -0.000400 0.008904 -0.009707
v -0.000360 0.008894 -0.009715
v -0.000360 0.008890 -0.009719
v -0.000400 0.008894 -0.009715
v -0.000400 0.008890 -0.009719
v -0.000360 0.008886 -0.009724
v -0.000400 0.008886 -0.009724
v -0.000400 0.008883 -0.009730
v -0.000360 0.008883 -0.009730
v -0.000360 0.008880 -0.009736
v -0.000400 0.008878 -0.009741
v -0.000400 0.008880 -0.009736
v -0.000360 0.008878 -0.009741
v -0.000360 0.008876 -0.009754
v -0.000360 0.008875 -0.009760
v -0.000400 0.008876 -0.009754
v -0.000360 0.008877 -0.009748
v -0.000400 0.008877 -0.009748
v -0.000400 0.008878 -0.009741
v -0.000400 0.008959 -0.009843
v -0.000360 0.008959 -0.009843
v -0.000400 0.008970 -0.009843
v -0.000377 0.008993 -0.009843
v -0.000360 0.008959 -0.009843
v -0.000360 0.008993 -0.009843
v -0.000377 0.008993 -0.009843
v -0.000400 0.008970 -0.009843
v -0.000360 0.008959 -0.009843
v -0.000400 0.008959 -0.009757
v -0.000400 0.008970 -0.009757
v -0.000360 0.008959 -0.009757
v -0.000360 0.008959 -0.009757
v -0.000400 0.008970 -0.009757
v -0.000377 0.008993 -0.009757
v -0.000377 0.008993 -0.009757
v -0.000360 0.008993 -0.009757
v -0.000360 0.008959 -0.009757
v -0.000367 0.009003 -0.009747
v -0.000360 0.009003 -0.009747
v -0.000360 0.009003 -0.009749
v -0.000367 0.009003 -0.009749
v -0.000367 0.009003 -0.009747
v -0.000360 0.009003 -0.009749
v -0.000360 0.009003 -0.009749
v -0.000360 0.009002 -0.009751
v -0.000367 0.009003 -0.009749
v -0.000367 0.009003 -0.009749
v -0.000360 0.009002 -0.009751
v -0.000368 0.009002 -0.009751
v -0.000368 0.009002 -0.009751
v -0.000360 0.009002 -0.009751
v -0.000360 0.009001 -0.009753
v -0.000369 0.009001 -0.009753
v -0.000368 0.009002 -0.009751
v -0.000360 0.009001 -0.009753
v -0.000360 0.009000 -0.009754
v -0.000369 0.009001 -0.009753
v -0.000360 0.009001 -0.009753
v -0.000360 0.008999 -0.009755
v -0.000370 0.009000 -0.009754
v -0.000360 0.009000 -0.009754
v -0.000360 0.009000 -0.009754
v -0.000370 0.009000 -0.009754
v -0.000369 0.009001 -0.009753
v -0.000375 0.008995 -0.009757
v -0.000360 0.008993 -0.009757
v -0.000377 0.008993 -0.009757
v -0.000375 0.008995 -0.009757
v -0.000360 0.008995 -0.009757
v -0.000360 0.008993 -0.009757
v -0.000375 0.008995 -0.009757
v -0.000373 0.008997 -0.009756
v -0.000360 0.008995 -0.009757
v -0.000360 0.008995 -0.009757
v -0.000373 0.008997 -0.009756
v -0.000360 0.008997 -0.009756
v -0.000360 0.008997 -0.009756
v -0.000373 0.008997 -0.009756
v -0.000371 0.008999 -0.009755
v -0.000360 0.008999 -0.009755
v -0.000360 0.008997 -0.009756
v -0.000371 0.008999 -0.009755
v -0.000370 0.009000 -0.009754
v -0.000360 0.008999 -0.009755
v -0.000371 0.008999 -0.009755
v -0.000360 0.008613 -0.009757
v -0.000375 0.008611 -0.009757
v -0.000377 0.008613 -0.009757
v -0.000360 0.008613 -0.009757
v -0.000360 0.008611 -0.009757
v -0.000375 0.008611 -0.009757
v -0.000375 0.008611 -0.009757
v -0.000360 0.008611 -0.009757
v -0.000373 0.008609 -0.009756
v -0.000373 0.008609 -0.009756
v -0.000360 0.008611 -0.009757
v -0.000360 0.008609 -0.009756
v -0.000360 0.008607 -0.009755
v -0.000360 0.008606 -0.009754
v -0.000370 0.008606 -0.009754
v -0.000371 0.008607 -0.009755
v -0.000360 0.008609 -0.009756
v -0.000360 0.008607 -0.009755
v -0.000360 0.008606 -0.009754
v -0.000360 0.008605 -0.009753
v -0.000369 0.008605 -0.009753
v -0.000371 0.008607 -0.009755
v -0.000373 0.008609 -0.009756
v -0.000360 0.008609 -0.009756
v -0.000360 0.008603 -0.009749
v -0.000360 0.008603 -0.009747
v -0.000367 0.008603 -0.009747
v -0.000367 0.008603 -0.009749
v -0.000360 0.008603 -0.009749
v -0.000367 0.008603 -0.009747
v -0.000367 0.008603 -0.009749
v -0.000360 0.008604 -0.009751
v -0.000360 0.008603 -0.009749
v -0.000367 0.008603 -0.009749
v -0.000368 0.008604 -0.009751
v -0.000360 0.008604 -0.009751
v -0.000360 0.008604 -0.009751
v -0.000368 0.008604 -0.009751
v -0.000360 0.008605 -0.009753
v -0.000360 0.008605 -0.009753
v -0.000368 0.008604 -0.009751
v -0.000369 0.008605 -0.009753
v -0.000360 0.008606 -0.009754
v -0.000369 0.008605 -0.009753
v -0.000370 0.008606 -0.009754
v -0.000370 0.008606 -0.009754
v -0.000371 0.008607 -0.009755
v -0.000360 0.008607 -0.009755
v -0.000360 0.008603 -0.009853
v -0.000360 0.008603 -0.009851
v -0.000367 0.008603 -0.009851
v -0.000360 0.008603 -0.009851
v -0.000360 0.008603 -0.009851
v -0.000360 0.008604 -0.009849
v -0.000367 0.008603 -0.009851
v -0.000367 0.008603 -0.009851
v -0.000360 0.008604 -0.009849
v -0.000368 0.008604 -0.009849
v -0.000368 0.008604 -0.009849
v -0.000360 0.008604 -0.009849
v -0.000360 0.008605 -0.009847
v -0.000369 0.008605 -0.009847
v -0.000368 0.008604 -0.009849
v -0.000360 0.008605 -0.009847
v -0.000360 0.008606 -0.009846
v -0.000369 0.008605 -0.009847
v -0.000360 0.008605 -0.009847
v -0.000360 0.008607 -0.009845
v -0.000370 0.008606 -0.009846
v -0.000360 0.008606 -0.009846
v -0.000360 0.008606 -0.009846
v -0.000370 0.008606 -0.009846
v -0.000369 0.008605 -0.009847
v -0.000375 0.008611 -0.009843
v -0.000360 0.008613 -0.009843
v -0.000377 0.008613 -0.009843
v -0.000375 0.008611 -0.009843
v -0.000360 0.008611 -0.009843
v -0.000360 0.008613 -0.009843
v -0.000375 0.008611 -0.009843
v -0.000373 0.008609 -0.009844
v -0.000360 0.008611 -0.009843
v -0.000360 0.008611 -0.009843
v -0.000373 0.008609 -0.009844
v -0.000360 0.008609 -0.009844
v -0.000360 0.008609 -0.009844
v -0.000373 0.008609 -0.009844
v -0.000371 0.008607 -0.009845
v -0.000360 0.008607 -0.009845
v -0.000360 0.008609 -0.009844
v -0.000371 0.008607 -0.009845
v -0.000370 0.008606 -0.009846
v -0.000360 0.008607 -0.009845
v -0.000371 0.008607 -0.009845
v -0.000360 0.008655 -0.009696
v -0.000360 0.008653 -0.009697
v -0.000400 0.008655 -0.009696
v -0.000360 0.008653 -0.009697
v -0.000360 0.008651 -0.009698
v -0.000400 0.008653 -0.009697
v -0.000360 0.008651 -0.009698
v -0.000400 0.008651 -0.009698
v -0.000400 0.008653 -0.009697
v -0.000360 0.008650 -0.009699
v -0.000400 0.008650 -0.009699
v -0.000400 0.008651 -0.009698
v -0.000360 0.008649 -0.009700
v -0.000400 0.008650 -0.009699
v -0.000360 0.008650 -0.009699
v -0.000360 0.008648 -0.009702
v -0.000400 0.008649 -0.009700
v -0.000360 0.008649 -0.009700
v -0.000400 0.008648 -0.009702
v -0.000400 0.008649 -0.009700
v -0.000360 0.008648 -0.009702
v -0.000360 0.008655 -0.009696
v -0.000400 0.008655 -0.009696
v -0.000360 0.008657 -0.009696
v -0.000400 0.008647 -0.009704
v -0.000360 0.008647 -0.009706
v -0.000400 0.008647 -0.009706
v -0.000360 0.008647 -0.009704
v -0.000360 0.008647 -0.009706
v -0.000400 0.008647 -0.009704
v -0.000360 0.008647 -0.009704
v -0.000400 0.008647 -0.009704
v -0.000400 0.008648 -0.009702
v -0.000360 0.008647 -0.009704
v -0.000400 0.008648 -0.009702
v -0.000360 0.008648 -0.009702
v -0.000360 0.008649 -0.009700
v -0.000400 0.008649 -0.009700
v -0.000400 0.008650 -0.009699
v -0.000360 0.008651 -0.009698
v -0.000360 0.008650 -0.009699
v -0.000400 0.008651 -0.009698
v -0.000400 0.008655 -0.009696
v -0.000400 0.008657 -0.009696
v -0.000360 0.008657 -0.009696
v -0.000360 0.008653 -0.009697
v -0.000400 0.008653 -0.009697
v -0.000400 0.008655 -0.009696
v -0.000360 0.008647 -0.009896
v -0.000360 0.008648 -0.009898
v -0.000400 0.008647 -0.009896
v -0.000360 0.008648 -0.009898
v -0.000360 0.008649 -0.009900
v -0.000400 0.008648 -0.009898
v -0.000360 0.008649 -0.009900
v -0.000400 0.008649 -0.009900
v -0.000400 0.008648 -0.009898
v -0.000360 0.008650 -0.009901
v -0.000400 0.008650 -0.009901
v -0.000400 0.008649 -0.009900
v -0.000360 0.008651 -0.009902
v -0.000400 0.008650 -0.009901
v -0.000360 0.008650 -0.009901
v -0.000360 0.008653 -0.009903
v -0.000400 0.008651 -0.009902
v -0.000360 0.008651 -0.009902
v -0.000400 0.008653 -0.009903
v -0.000400 0.008651 -0.009902
v -0.000360 0.008653 -0.009903
v -0.000360 0.008647 -0.009896
v -0.000400 0.008647 -0.009896
v -0.000360 0.008647 -0.009894
v -0.000400 0.008655 -0.009904
v -0.000360 0.008657 -0.009904
v -0.000400 0.008657 -0.009904
v -0.000360 0.008655 -0.009904
v -0.000360 0.008657 -0.009904
v -0.000400 0.008655 -0.009904
v -0.000360 0.008655 -0.009904
v -0.000400 0.008655 -0.009904
v -0.000400 0.008653 -0.009903
v -0.000360 0.008655 -0.009904
v -0.000400 0.008653 -0.009903
v -0.000360 0.008653 -0.009903
v -0.000360 0.008651 -0.009902
v -0.000400 0.008651 -0.009902
v -0.000400 0.008650 -0.009901
v -0.000360 0.008649 -0.009900
v -0.000360 0.008650 -0.009901
v -0.000400 0.008649 -0.009900
v -0.000400 0.008647 -0.009896
v -0.000400 0.008647 -0.009894
v -0.000360 0.008647 -0.009894
v -0.000360 0.008648 -0.009898
v -0.000400 0.008648 -0.009898
v -0.000400 0.008647 -0.009896
v -0.000360 0.008959 -0.009704
v -0.000360 0.008958 -0.009702
v -0.000400 0.008959 -0.009704
v -0.000360 0.008958 -0.009702
v -0.000360 0.008957 -0.009700
v -0.000400 0.008958 -0.009702
v -0.000360 0.008957 -0.009700
v -0.000400 0.008957 -0.009700
v -0.000400 0.008958 -0.009702
v -0.000360 0.008956 -0.009699
v -0.000400 0.008956 -0.009699
v -0.000400 0.008957 -0.009700
v -0.000360 0.008955 -0.009698
v -0.000400 0.008956 -0.009699
v -0.000360 0.008956 -0.009699
v -0.000360 0.008953 -0.009697
v -0.000400 0.008955 -0.009698
v -0.000360 0.008955 -0.009698
v -0.000400 0.008953 -0.009697
v -0.000400 0.008955 -0.009698
v -0.000360 0.008953 -0.009697
v -0.000360 0.008949 -0.009696
v -0.000400 0.008949 -0.009696
v -0.000400 0.008951 -0.009696
v -0.000360 0.008949 -0.009696
v -0.000400 0.008951 -0.009696
v -0.000360 0.008951 -0.009696
v -0.000400 0.008951 -0.009696
v -0.000400 0.008953 -0.009697
v -0.000360 0.008951 -0.009696
v -0.000360 0.008959 -0.009704
v -0.000400 0.008959 -0.009704
v -0.000360 0.008959 -0.009706
v -0.000360 0.008953 -0.009697
v -0.000360 0.008951 -0.009696
v -0.000400 0.008953 -0.009697
v -0.000400 0.008959 -0.009704
v -0.000400 0.008959 -0.009706
v -0.000360 0.008959 -0.009706
v -0.000400 0.008959 -0.009704
v -0.000360 0.008958 -0.009702
v -0.000400 0.008958 -0.009702
v -0.000360 0.008957 -0.009700
v -0.000360 0.008956 -0.009699
v -0.000400 0.008957 -0.009700
v -0.000360 0.008955 -0.009698
v -0.000400 0.008955 -0.009698
v -0.000400 0.008956 -0.009699
v -0.000360 0.008993 -0.010000
v -0.000377 0.008993 -0.010000
v -0.000375 0.008995 -0.010000
v -0.000360 0.008995 -0.010000
v -0.000360 0.008993 -0.010000
v -0.000375 0.008995 -0.010000
v -0.000373 0.008997 -0.009999
v -0.000360 0.008995 -0.010000
v -0.000375 0.008995 -0.010000
v -0.000373 0.008997 -0.009999
v -0.000360 0.008997 -0.009999
v -0.000360 0.008995 -0.010000
v -0.000373 0.008997 -0.009999
v -0.000371 0.008999 -0.009998
v -0.000360 0.008997 -0.009999
v -0.000360 0.008997 -0.009999
v -0.000371 0.008999 -0.009998
v -0.000360 0.008999 -0.009998
v -0.000360 0.008999 -0.009998
v -0.000370 0.009000 -0.009997
v -0.000360 0.009000 -0.009997
v -0.000360 0.009003 -0.009990
v -0.000360 0.009003 -0.009992
v -0.000360 0.009003 -0.009992
v -0.000367 0.009003 -0.009992
v -0.000360 0.009003 -0.009992
v -0.000360 0.009002 -0.009994
v -0.000367 0.009003 -0.009992
v -0.000367 0.009003 -0.009992
v -0.000360 0.009002 -0.009994
v -0.000368 0.009002 -0.009994
v -0.000368 0.009002 -0.009994
v -0.000360 0.009002 -0.009994
v -0.000360 0.009001 -0.009996
v -0.000369 0.009001 -0.009996
v -0.000368 0.009002 -0.009994
v -0.000360 0.009001 -0.009996
v -0.000360 0.009000 -0.009997
v -0.000369 0.009001 -0.009996
v -0.000360 0.009001 -0.009996
v -0.000360 0.009000 -0.009997
v -0.000370 0.009000 -0.009997
v -0.000369 0.009001 -0.009996
v -0.000370 0.009000 -0.009997
v -0.000360 0.008999 -0.009998
v -0.000371 0.008999 -0.009998
v -0.000360 0.008603 -0.009990
v -0.000360 0.008603 -0.009992
v -0.000360 0.008603 -0.009992
v -0.000367 0.008603 -0.009992
v -0.000360 0.008604 -0.009994
v -0.000360 0.008603 -0.009992
v -0.000367 0.008603 -0.009992
v -0.000368 0.008604 -0.009994
v -0.000360 0.008604 -0.009994
v -0.000367 0.008603 -0.009992
v -0.000368 0.008604 -0.009994
v -0.000360 0.008605 -0.009996
v -0.000360 0.008604 -0.009994
v -0.000368 0.008604 -0.009994
v -0.000369 0.008605 -0.009996
v -0.000360 0.008605 -0.009996
v -0.000360 0.008605 -0.009996
v -0.000369 0.008605 -0.009996
v -0.000360 0.008606 -0.009997
v -0.000360 0.008606 -0.009997
v -0.000369 0.008605 -0.009996
v -0.000370 0.008606 -0.009997
v -0.000360 0.008607 -0.009998
v -0.000360 0.008606 -0.009997
v -0.000370 0.008606 -0.009997
v -0.000377 0.008613 -0.010000
v -0.000360 0.008613 -0.010000
v -0.000375 0.008611 -0.010000
v -0.000375 0.008611 -0.010000
v -0.000360 0.008613 -0.010000
v -0.000360 0.008611 -0.010000
v -0.000373 0.008609 -0.009999
v -0.000375 0.008611 -0.010000
v -0.000360 0.008611 -0.010000
v -0.000371 0.008607 -0.009998
v -0.000360 0.008609 -0.009999
v -0.000360 0.008607 -0.009998
v -0.000371 0.008607 -0.009998
v -0.000373 0.008609 -0.009999
v -0.000360 0.008609 -0.009999
v -0.000370 0.008606 -0.009997
v -0.000371 0.008607 -0.009998
v -0.000360 0.008607 -0.009998
v -0.000373 0.008609 -0.009999
v -0.000360 0.008611 -0.010000
v -0.000360 0.008609 -0.009999
v -0.000360 0.008951 -0.009904
v -0.000400 0.008951 -0.009904
v -0.000360 0.008949 -0.009904
v -0.000360 0.008953 -0.009903
v -0.000400 0.008951 -0.009904
v -0.000360 0.008951 -0.009904
v -0.000360 0.008955 -0.009902
v -0.000400 0.008953 -0.009903
v -0.000360 0.008953 -0.009903
v -0.000400 0.008955 -0.009902
v -0.000400 0.008953 -0.009903
v -0.000360 0.008955 -0.009902
v -0.000400 0.008956 -0.009901
v -0.000400 0.008955 -0.009902
v -0.000360 0.008956 -0.009901
v -0.000400 0.008956 -0.009901
v -0.000360 0.008956 -0.009901
v -0.000360 0.008957 -0.009900
v -0.000400 0.008957 -0.009900
v -0.000360 0.008957 -0.009900
v -0.000360 0.008958 -0.009898
v -0.000400 0.008959 -0.009894
v -0.000400 0.008959 -0.009896
v -0.000360 0.008959 -0.009894
v -0.000400 0.008959 -0.009896
v -0.000360 0.008959 -0.009896
v -0.000360 0.008959 -0.009894
v -0.000400 0.008958 -0.009898
v -0.000360 0.008959 -0.009896
v -0.000400 0.008959 -0.009896
v -0.000360 0.008958 -0.009898
v -0.000360 0.008959 -0.009896
v -0.000400 0.008958 -0.009898
v -0.000360 0.008958 -0.009898
v -0.000400 0.008958 -0.009898
v -0.000400 0.008957 -0.009900
v -0.000360 0.008957 -0.009900
v -0.000400 0.008957 -0.009900
v -0.000400 0.008956 -0.009901
v -0.000360 0.008955 -0.009902
v -0.000360 0.008956 -0.009901
v -0.000400 0.008955 -0.009902
v -0.000400 0.008951 -0.009904
v -0.000400 0.008949 -0.009904
v -0.000360 0.008949 -0.009904
v -0.000360 0.008953 -0.009903
v -0.000400 0.008953 -0.009903
v -0.000400 0.008951 -0.009904
v -0.000360 0.008993 -0.009843
v -0.000375 0.008995 -0.009843
v -0.000377 0.008993 -0.009843
v -0.000360 0.008993 -0.009843
v -0.000360 0.008995 -0.009843
v -0.000375 0.008995 -0.009843
v -0.000375 0.008995 -0.009843
v -0.000360 0.008995 -0.009843
v -0.000373 0.008997 -0.009844
v -0.000373 0.008997 -0.009844
v -0.000360 0.008995 -0.009843
v -0.000360 0.008997 -0.009844
v -0.000360 0.008999 -0.009845
v -0.000360 0.009000 -0.009846
v -0.000370 0.009000 -0.009846
v -0.000371 0.008999 -0.009845
v -0.000360 0.008997 -0.009844
v -0.000360 0.008999 -0.009845
v -0.000360 0.009000 -0.009846
v -0.000360 0.009001 -0.009847
v -0.000369 0.009001 -0.009847
v -0.000371 0.008999 -0.009845
v -0.000373 0.008997 -0.009844
v -0.000360 0.008997 -0.009844
v -0.000360 0.009003 -0.009851
v -0.000360 0.009003 -0.009853
v -0.000367 0.009003 -0.009851
v -0.000360 0.009003 -0.009851
v -0.000367 0.009003 -0.009851
v -0.000360 0.009002 -0.009849
v -0.000360 0.009003 -0.009851
v -0.000367 0.009003 -0.009851
v -0.000368 0.009002 -0.009849
v -0.000360 0.009002 -0.009849
v -0.000360 0.009002 -0.009849
v -0.000368 0.009002 -0.009849
v -0.000360 0.009001 -0.009847
v -0.000360 0.009001 -0.009847
v -0.000368 0.009002 -0.009849
v -0.000369 0.009001 -0.009847
v -0.000360 0.009000 -0.009846
v -0.000369 0.009001 -0.009847
v -0.000370 0.009000 -0.009846
v -0.000370 0.009000 -0.009846
v -0.000371 0.008999 -0.009845
v -0.000360 0.008999 -0.009845
v -0.000310 0.008773 -0.009820
v -0.000310 0.008773 -0.009780
v -0.000360 0.008773 -0.009820
v -0.000360 0.008773 -0.009780
v -0.000360 0.008773 -0.009820
v -0.000270 0.008780 -0.009820
v -0.000310 0.008773 -0.009820
v -0.000270 0.008783 -0.009820
v -0.000310 0.008773 -0.009820
v -0.000360 0.008783 -0.009820
v -0.000360 0.008773 -0.009820
v -0.000360 0.008783 -0.009820
v -0.000310 0.008773 -0.009820
v -0.000310 0.008783 -0.009830
v -0.000360 0.008783 -0.009820
v -0.000360 0.008783 -0.009830
v -0.000270 0.008783 -0.009820
v -0.000360 0.008783 -0.009820
v -0.000270 0.008783 -0.009820
v -0.000270 0.008783 -0.009823
v -0.000310 0.008823 -0.009830
v -0.000310 0.008783 -0.009830
v -0.000360 0.008823 -0.009830
v -0.000310 0.008783 -0.009830
v -0.000360 0.008783 -0.009830
v -0.000360 0.008823 -0.009830
v -0.000270 0.008823 -0.009823
v -0.000310 0.008823 -0.009830
v -0.000270 0.008823 -0.009820
v -0.000310 0.008823 -0.009830
v -0.000360 0.008823 -0.009820
v -0.000360 0.008823 -0.009830
v -0.000360 0.008823 -0.009820
v -0.000310 0.008823 -0.009830
v -0.000310 0.008833 -0.009820
v -0.000360 0.008823 -0.009820
v -0.000360 0.008833 -0.009820
v -0.000270 0.008823 -0.009820
v -0.000360 0.008823 -0.009820
v -0.000270 0.008823 -0.009820
v -0.000270 0.008826 -0.009820
v -0.000310 0.008833 -0.009780
v -0.000310 0.008833 -0.009820
v -0.000360 0.008833 -0.009780
v -0.000310 0.008833 -0.009820
v -0.000360 0.008833 -0.009820
v -0.000360 0.008833 -0.009780
v -0.000270 0.008826 -0.009780
v -0.000310 0.008833 -0.009780
v -0.000270 0.008823 -0.009780
v -0.000310 0.008833 -0.009780
v -0.000360 0.008823 -0.009780
v -0.000360 0.008833 -0.009780
v -0.000360 0.008823 -0.009780
v -0.000310 0.008833 -0.009780
v -0.000310 0.008823 -0.009770
v -0.000360 0.008823 -0.009780
v -0.000360 0.008823 -0.009770
v -0.000270 0.008823 -0.009780
v -0.000360 0.008823 -0.009780
v -0.000270 0.008823 -0.009780
v -0.000270 0.008823 -0.009777
v -0.000310 0.008783 -0.009770
v -0.000310 0.008823 -0.009770
v -0.000360 0.008783 -0.009770
v -0.000310 0.008823 -0.009770
v -0.000360 0.008823 -0.009770
v -0.000360 0.008783 -0.009770
v -0.000270 0.008783 -0.009777
v -0.000310 0.008783 -0.009770
v -0.000270 0.008783 -0.009780
v -0.000310 0.008783 -0.009770
v -0.000360 0.008783 -0.009780
v -0.000360 0.008783 -0.009770
v -0.000360 0.008783 -0.009780
v -0.000310 0.008783 -0.009770
v -0.000360 0.008807 -0.009780
v -0.000270 0.008807 -0.009780
v -0.000360 0.008803 -0.009780
v -0.000360 0.008811 -0.009782
v -0.000360 0.008814 -0.009783
v -0.000270 0.008811 -0.009782
v -0.000270 0.008814 -0.009783
v -0.000270 0.008817 -0.009786
v -0.000360 0.008817 -0.009786
v -0.000360 0.008820 -0.009789
v -0.000270 0.008820 -0.009789
v -0.000360 0.008821 -0.009792
v -0.000270 0.008821 -0.009792
v -0.000360 0.008823 -0.009796
v -0.000270 0.008823 -0.009796
v -0.000360 0.008823 -0.009800
v -0.000360 0.008823 -0.009804
v -0.000270 0.008823 -0.009800
v -0.000270 0.008823 -0.009804
v -0.000360 0.008821 -0.009808
v -0.000270 0.008821 -0.009808
v -0.000360 0.008820 -0.009811
v -0.000360 0.008817 -0.009814
v -0.000270 0.008820 -0.009811
v -0.000270 0.008817 -0.009814
v -0.000270 0.008814 -0.009817
v -0.000360 0.008814 -0.009817
v -0.000360 0.008811 -0.009818
v -0.000270 0.008811 -0.009818
v -0.000360 0.008807 -0.009820
v -0.000270 0.008807 -0.009820
v -0.000360 0.008803 -0.009820
v -0.000270 0.008803 -0.009820
v -0.000360 0.008799 -0.009820
v -0.000270 0.008799 -0.009820
v -0.000360 0.008795 -0.009818
v -0.000270 0.008795 -0.009818
v -0.000360 0.008792 -0.009817
v -0.000360 0.008783 -0.009800
v -0.000270 0.008783 -0.009800
v -0.000270 0.008783 -0.009804
v -0.000360 0.008783 -0.009796
v -0.000270 0.008783 -0.009796
v -0.000360 0.008785 -0.009792
v -0.000270 0.008785 -0.009792
v -0.000360 0.008786 -0.009789
v -0.000270 0.008786 -0.009789
v -0.000360 0.008789 -0.009786
v -0.000360 0.008792 -0.009783
v -0.000270 0.008789 -0.009786
v -0.000270 0.008792 -0.009783
v -0.000270 0.008795 -0.009782
v -0.000360 0.008795 -0.009782
v -0.000270 0.008799 -0.009780
v -0.000360 0.008799 -0.009780
v -0.000270 0.008803 -0.009780
v -0.000360 0.008783 -0.009804
v -0.000270 0.008785 -0.009808
v -0.000360 0.008785 -0.009808
v -0.000270 0.008786 -0.009811
v -0.000360 0.008786 -0.009811
v -0.000270 0.008789 -0.009814
v -0.000360 0.008789 -0.009814
v -0.000270 0.008792 -0.009817
v -0.000310 0.008773 -0.009780
v -0.000360 0.008783 -0.009780
v -0.000360 0.008773 -0.009780
v -0.000270 0.008783 -0.009780
v -0.000360 0.008783 -0.009780
v -0.000310 0.008773 -0.009780
v -0.000270 0.008783 -0.009780
v -0.000310 0.008773 -0.009780
v -0.000270 0.008780 -0.009780
v -0.000270 0.008803 -0.009777
v -0.000270 0.008803 -0.009780
v -0.000270 0.008807 -0.009780
v -0.000270 0.008780 -0.009820
v -0.000270 0.008783 -0.009820
v -0.000270 0.008786 -0.009811
v -0.000270 0.008780 -0.009780
v -0.000270 0.008785 -0.009792
v -0.000270 0.008786 -0.009789
v -0.000270 0.008795 -0.009782
v -0.000270 0.008799 -0.009780
v -0.000270 0.008783 -0.009777
v -0.000270 0.008792 -0.009783
v -0.000270 0.008795 -0.009782
v -0.000270 0.008823 -0.009777
v -0.000270 0.008811 -0.009782
v -0.000270 0.008814 -0.009783
v -0.000270 0.008826 -0.009800
v -0.000270 0.008821 -0.009792
v -0.000270 0.008823 -0.009796
v -0.000270 0.008826 -0.009780
v -0.000270 0.008820 -0.009789
v -0.000270 0.008821 -0.009792
v -0.000270 0.008826 -0.009820
v -0.000270 0.008821 -0.009808
v -0.000270 0.008820 -0.009811
v -0.000270 0.008803 -0.009823
v -0.000270 0.008811 -0.009818
v -0.000270 0.008807 -0.009820
v -0.000270 0.008823 -0.009823
v -0.000270 0.008814 -0.009817
v -0.000270 0.008811 -0.009818
v -0.000270 0.008783 -0.009823
v -0.000270 0.008795 -0.009818
v -0.000270 0.008792 -0.009817
v -0.000270 0.008783 -0.009820
v -0.000270 0.008792 -0.009817
v -0.000270 0.008789 -0.009814
v -0.000270 0.008783 -0.009820
v -0.000270 0.008789 -0.009814
v -0.000270 0.008786 -0.009811
v -0.000270 0.008799 -0.009780
v -0.000270 0.008803 -0.009780
v -0.000270 0.008783 -0.009777
v -0.000270 0.008795 -0.009782
v -0.000270 0.008786 -0.009789
v -0.000270 0.008783 -0.009780
v -0.000270 0.008780 -0.009780
v -0.000270 0.008792 -0.009783
v -0.000270 0.008783 -0.009777
v -0.000270 0.008783 -0.009780
v -0.000270 0.008789 -0.009786
v -0.000270 0.008792 -0.009783
v -0.000270 0.008783 -0.009780
v -0.000270 0.008786 -0.009789
v -0.000270 0.008789 -0.009786
v -0.000270 0.008783 -0.009780
v -0.000270 0.008785 -0.009792
v -0.000270 0.008780 -0.009780
v -0.000270 0.008780 -0.009800
v -0.000270 0.008783 -0.009796
v -0.000270 0.008785 -0.009792
v -0.000270 0.008783 -0.009804
v -0.000270 0.008783 -0.009800
v -0.000270 0.008780 -0.009820
v -0.000270 0.008785 -0.009808
v -0.000270 0.008785 -0.009808
v -0.000270 0.008783 -0.009804
v -0.000270 0.008786 -0.009811
v -0.000270 0.008785 -0.009808
v -0.000270 0.008780 -0.009820
v -0.000270 0.008792 -0.009817
v -0.000270 0.008783 -0.009820
v -0.000270 0.008783 -0.009823
v -0.000270 0.008783 -0.009800
v -0.000270 0.008783 -0.009796
v -0.000270 0.008799 -0.009820
v -0.000270 0.008795 -0.009818
v -0.000270 0.008807 -0.009820
v -0.000270 0.008803 -0.009820
v -0.000270 0.008823 -0.009823
v -0.000270 0.008811 -0.009818
v -0.000270 0.008820 -0.009811
v -0.000270 0.008823 -0.009820
v -0.000270 0.008826 -0.009820
v -0.000270 0.008814 -0.009817
v -0.000270 0.008823 -0.009823
v -0.000270 0.008823 -0.009820
v -0.000270 0.008817 -0.009814
v -0.000270 0.008814 -0.009817
v -0.000270 0.008823 -0.009820
v -0.000270 0.008820 -0.009811
v -0.000270 0.008817 -0.009814
v -0.000270 0.008823 -0.009820
v -0.000270 0.008821 -0.009808
v -0.000270 0.008826 -0.009820
v -0.000270 0.008823 -0.009804
v -0.000270 0.008821 -0.009808
v -0.000270 0.008823 -0.009796
v -0.000270 0.008823 -0.009800
v -0.000270 0.008826 -0.009780
v -0.000270 0.008821 -0.009792
v -0.000270 0.008814 -0.009783
v -0.000270 0.008823 -0.009780
v -0.000270 0.008823 -0.009777
v -0.000270 0.008820 -0.009789
v -0.000270 0.008826 -0.009780
v -0.000270 0.008823 -0.009780
v -0.000270 0.008817 -0.009786
v -0.000270 0.008820 -0.009789
v -0.000270 0.008823 -0.009780
v -0.000270 0.008814 -0.009783
v -0.000270 0.008817 -0.009786
v -0.000270 0.008823 -0.009780
v -0.000270 0.008811 -0.009782
v -0.000270 0.008823 -0.009777
v -0.000270 0.008803 -0.009820
v -0.000270 0.008799 -0.009820
v -0.000270 0.008807 -0.009780
v -0.000270 0.008811 -0.009782
v -0.000270 0.008795 -0.009818
v -0.000270 0.008783 -0.009823
v -0.000270 0.008823 -0.009800
v -0.000270 0.008823 -0.009804
v -0.000360 0.008811 -0.009782
v -0.000360 0.008807 -0.009780
v -0.000360 0.008803 -0.009780
v -0.000360 0.008814 -0.009783
v -0.000360 0.008811 -0.009782
v -0.000360 0.008803 -0.009780
v -0.000360 0.008817 -0.009786
v -0.000360 0.008814 -0.009783
v -0.000360 0.008803 -0.009780
v -0.000360 0.008820 -0.009789
v -0.000360 0.008817 -0.009786
v -0.000360 0.008803 -0.009780
v -0.000360 0.008821 -0.009792
v -0.000360 0.008803 -0.009780
v -0.000360 0.008823 -0.009796
v -0.000360 0.008821 -0.009792
v -0.000360 0.008820 -0.009789
v -0.000360 0.008803 -0.009780
v -0.000360 0.008823 -0.009796
v -0.000360 0.008803 -0.009780
v -0.000360 0.008823 -0.009800
v -0.000360 0.008823 -0.009800
v -0.000360 0.008803 -0.009780
v -0.000360 0.008823 -0.009804
v -0.000360 0.008803 -0.009780
v -0.000360 0.008821 -0.009808
v -0.000360 0.008823 -0.009804
v -0.000360 0.008803 -0.009780
v -0.000360 0.008820 -0.009811
v -0.000360 0.008821 -0.009808
v -0.000360 0.008803 -0.009780
v -0.000360 0.008817 -0.009814
v -0.000360 0.008820 -0.009811
v -0.000360 0.008811 -0.009818
v -0.000360 0.008814 -0.009817
v -0.000360 0.008803 -0.009780
v -0.000360 0.008803 -0.009780
v -0.000360 0.008814 -0.009817
v -0.000360 0.008817 -0.009814
v -0.000360 0.008807 -0.009820
v -0.000360 0.008803 -0.009780
v -0.000360 0.008803 -0.009820
v -0.000360 0.008803 -0.009820
v -0.000360 0.008803 -0.009780
v -0.000360 0.008799 -0.009820
v -0.000360 0.008803 -0.009780
v -0.000360 0.008795 -0.009818
v -0.000360 0.008799 -0.009820
v -0.000360 0.008803 -0.009780
v -0.000360 0.008792 -0.009817
v -0.000360 0.008795 -0.009818
v -0.000360 0.008803 -0.009780
v -0.000360 0.008789 -0.009814
v -0.000360 0.008792 -0.009817
v -0.000360 0.008785 -0.009808
v -0.000360 0.008786 -0.009811
v -0.000360 0.008803 -0.009780
v -0.000360 0.008803 -0.009780
v -0.000360 0.008786 -0.009811
v -0.000360 0.008789 -0.009814
v -0.000360 0.008783 -0.009804
v -0.000360 0.008785 -0.009808
v -0.000360 0.008803 -0.009780
v -0.000360 0.008783 -0.009800
v -0.000360 0.008783 -0.009804
v -0.000360 0.008803 -0.009780
v -0.000360 0.008783 -0.009800
v -0.000360 0.008803 -0.009780
v -0.000360 0.008783 -0.009796
v -0.000360 0.008783 -0.009796
v -0.000360 0.008803 -0.009780
v -0.000360 0.008785 -0.009792
v -0.000360 0.008785 -0.009792
v -0.000360 0.008803 -0.009780
v -0.000360 0.008786 -0.009789
v -0.000360 0.008803 -0.009780
v -0.000360 0.008792 -0.009783
v -0.000360 0.008789 -0.009786
v -0.000360 0.008786 -0.009789
v -0.000360 0.008803 -0.009780
v -0.000360 0.008789 -0.009786
v -0.000360 0.008803 -0.009780
v -0.000360 0.008795 -0.009782
v -0.000360 0.008792 -0.009783
v -0.000360 0.008803 -0.009780
v -0.000360 0.008807 -0.009820
v -0.000360 0.008811 -0.009818
v -0.000360 0.008799 -0.009780
v -0.000360 0.008795 -0.009782
v -0.000360 0.008803 -0.009780
v -0.000270 0.008803 -0.009823
v -0.000270 0.008783 -0.009823
v -0.000310 0.008783 -0.009830
v -0.000270 0.008823 -0.009823
v -0.000270 0.008803 -0.009823
v -0.000270 0.008803 -0.009823
v -0.000310 0.008783 -0.009830
v -0.000270 0.008826 -0.009800
v -0.000270 0.008826 -0.009820
v -0.000310 0.008833 -0.009820
v -0.000270 0.008826 -0.009780
v -0.000270 0.008826 -0.009800
v -0.000270 0.008826 -0.009800
v -0.000310 0.008833 -0.009820
v -0.000270 0.008803 -0.009777
v -0.000270 0.008823 -0.009777
v -0.000310 0.008823 -0.009770
v -0.000270 0.008783 -0.009777
v -0.000270 0.008803 -0.009777
v -0.000270 0.008803 -0.009777
v -0.000310 0.008823 -0.009770
v -0.000270 0.008780 -0.009800
v -0.000270 0.008780 -0.009780
v -0.000270 0.008780 -0.009820
v -0.000270 0.008780 -0.009800
v -0.000270 0.008780 -0.009800
v -0.000330 0.008763 -0.009978
v -0.000360 0.008803 -0.009978
v -0.000330 0.008843 -0.009978
v -0.000360 0.008803 -0.009978
v -0.000360 0.008843 -0.009978
v -0.000360 0.008803 -0.009978
v -0.000360 0.008763 -0.009978
v -0.000330 0.008763 -0.009958
v -0.000360 0.008763 -0.009958
v -0.000330 0.008763 -0.009978
v -0.000330 0.008763 -0.009978
v -0.000360 0.008763 -0.009958
v -0.000360 0.008763 -0.009978
v -0.000330 0.008843 -0.009958
v -0.000360 0.008843 -0.009958
v -0.000330 0.008763 -0.009958
v -0.000330 0.008763 -0.009958
v -0.000360 0.008843 -0.009958
v -0.000360 0.008763 -0.009958
v -0.000330 0.008843 -0.009978
v -0.000360 0.008843 -0.009978
v -0.000330 0.008843 -0.009958
v -0.000330 0.008843 -0.009958
v -0.000360 0.008843 -0.009978
v -0.000360 0.008843 -0.009958
v -0.000330 0.008843 -0.009978
v -0.000330 0.008843 -0.009958
v -0.000330 0.008763 -0.009978
v -0.000330 0.008843 -0.009958
v -0.000330 0.008763 -0.009958
v -0.000330 0.008763 -0.009978
v -0.000400 0.008803 -0.009602
v -0.000373 0.008803 -0.009605
v -0.000400 0.008970 -0.009602
v -0.000400 0.008636 -0.009602
v -0.000373 0.008609 -0.009605
v -0.000400 0.008636 -0.009602
v -0.000400 0.008803 -0.009602
v -0.000373 0.008997 -0.009605
v -0.000400 0.008970 -0.009602
v -0.000373 0.008997 -0.009600
v -0.000373 0.008803 -0.009605
v -0.000373 0.008803 -0.009600
v -0.000373 0.008997 -0.009600
v -0.000373 0.008997 -0.009605
v -0.000373 0.008803 -0.009605
v -0.000373 0.008609 -0.009600
v -0.000373 0.008803 -0.009605
v -0.000373 0.008609 -0.009605
v -0.000373 0.008803 -0.009605
v -0.000373 0.008609 -0.009600
v -0.000373 0.008803 -0.009600
vn -1.0000 -0.0000 -0.0000
vn -0.7073 0.7069 0.0003
vn -0.7072 0.7070 -0.0000
vn -0.7071 0.7071 -0.0001
vn -0.7071 0.7071 -0.0002
vn -0.7071 0.7071 0.0001
vn -0.7068 0.7074 0.0001
vn -0.7071 0.7071 -0.0000
vn -0.7070 0.7072 0.0002
vn -0.0000 -0.0000 1.0000
vn 0.0001 -0.0000 1.0000
vn -0.0001 -0.0000 1.0000
vn -0.7071 -0.7071 -0.0000
vn -0.7071 -0.7071 0.0001
vn -0.7072 -0.7071 0.0001
vn -0.7072 -0.7070 -0.0000
vn -0.7070 -0.7072 -0.0001
vn -0.7071 -0.7071 -0.0001
vn -0.7072 -0.7070 0.0002
vn -0.7071 -0.7072 -0.0000
vn 1.0000 -0.0000 -0.0000
vn 1.0000 0.0001 -0.0000
vn 1.0000 -0.0001 -0.0000
vn -0.0000 1.0000 -0.0000
vn -0.7073 0.7069 -0.0000
vn -0.7072 0.7071 0.0003
vn -0.7071 0.7071 0.0002
vn -0.7070 0.7072 -0.0005
vn -0.7070 0.7072 -0.0003
vn -0.7072 0.7070 -0.0002
vn -0.7069 0.7073 -0.0000
vn -0.0000 -1.0000 -0.0000
vn -0.7072 -0.7070 -0.0002
vn -0.7072 -0.7071 -0.0000
vn -0.7070 -0.7072 0.0002
vn -0.7071 -0.7072 0.0003
vn -0.7072 -0.7071 -0.0002
vn -0.7069 -0.7073 -0.0000
vn -0.7072 -0.7070 -0.0003
vn -0.7070 -0.7072 0.0001
vn -0.7070 -0.7072 -0.0000
vn -0.7070 -0.7072 0.0004
vn -0.7072 -0.7070 -0.0004
vn -0.7071 -0.7072 -0.0003
vn -0.0000 -0.0000 -1.0000
vn -0.0000 -0.0980 0.9952
vn -0.0000 -0.1951 0.9808
vn -0.0000 -0.2903 0.9569
vn -0.0000 -0.3827 0.9239
vn -0.0000 -0.4714 0.8819
vn -0.0000 -0.5556 0.8315
vn -0.0000 -0.6344 0.7730
vn -0.0000 -0.5556 0.8314
vn -0.0000 -0.7071 0.7071
vn -0.0000 -0.7072 0.7070
vn -0.0000 -0.7730 0.6344
vn -0.0000 -0.8314 0.5556
vn -0.0000 -0.8315 0.5555
vn -0.0000 -0.8819 0.4714
vn -0.0000 -0.9239 0.3827
vn -0.0000 -0.9952 0.0980
vn -0.0000 -0.9808 0.1951
vn -0.0000 -0.9569 0.2903
vn -0.0000 -0.8315 0.5556
vn -0.0000 -0.9952 -0.0980
vn -0.0000 -0.9808 -0.1951
vn -0.0000 -0.9569 -0.2903
vn -0.0000 -0.9239 -0.3827
vn -0.0000 -0.8819 -0.4714
vn -0.0000 -0.8315 -0.5555
vn -0.0000 -0.7730 -0.6344
vn -0.0000 -0.8314 -0.5556
vn -0.0000 -0.7071 -0.7071
vn -0.0000 -0.6344 -0.7730
vn -0.0000 -0.5556 -0.8314
vn -0.0000 -0.5556 -0.8315
vn -0.0000 -0.4714 -0.8819
vn -0.0000 -0.3827 -0.9239
vn -0.0000 -0.0980 -0.9952
vn -0.0000 -0.1951 -0.9808
vn -0.0000 -0.2903 -0.9569
vn -0.0000 -0.7072 -0.7070
vn -0.0000 0.0980 0.9952
vn -0.0000 0.1951 0.9808
vn -0.0000 0.2903 0.9569
vn -0.0000 0.3827 0.9239
vn -0.0000 0.4714 0.8819
vn -0.0000 0.5556 0.8315
vn -0.0000 0.5555 0.8315
vn -0.0000 0.5556 0.8314
vn -0.0000 0.6344 0.7730
vn -0.0000 0.7730 0.6344
vn -0.0000 0.8314 0.5556
vn -0.0000 0.8315 0.5555
vn -0.0000 0.8819 0.4714
vn -0.0000 0.9952 0.0980
vn -0.0000 0.9808 0.1951
vn -0.0000 0.9569 0.2903
vn -0.0000 0.9239 0.3827
vn -0.0000 0.8315 0.5556
vn -0.0000 0.7072 0.7070
vn -0.0000 0.7070 0.7073
vn -0.0000 0.7071 0.7071
vn -0.0000 0.9952 -0.0980
vn -0.0000 0.9808 -0.1951
vn -0.0000 0.9569 -0.2903
vn -0.0000 0.9239 -0.3827
vn -0.0000 0.8819 -0.4714
vn -0.0000 0.8315 -0.5555
vn -0.0000 0.7730 -0.6344
vn -0.0000 0.8315 -0.5556
vn -0.0000 0.7072 -0.7070
vn -0.0000 0.7071 -0.7071
vn -0.0000 0.6344 -0.7730
vn -0.0000 0.5556 -0.8314
vn -0.0000 0.5555 -0.8315
vn -0.0000 0.4714 -0.8819
vn -0.0000 0.3827 -0.9239
vn -0.0000 0.0980 -0.9952
vn -0.0000 0.1951 -0.9808
vn -0.0000 0.2903 -0.9569
vn -0.0000 0.5556 -0.8315
vn -0.0000 0.7070 -0.7073
vn -0.0000 0.8314 -0.5556
vn -0.0000 0.9808 -0.1950
vn -0.0000 0.7074 -0.7068
vn -0.0000 0.8314 -0.5557
vn -0.0000 0.7068 -0.7074
vn -0.0000 0.1950 -0.9808
vn -0.0000 0.3826 -0.9239
vn -0.0000 0.7070 -0.7072
vn -0.0000 -0.1950 -0.9808
vn -0.0000 -0.3826 -0.9239
vn -0.0000 -0.5555 -0.8315
vn -0.0000 -0.7074 -0.7068
vn -0.0000 -0.8314 -0.5557
vn -0.0000 -0.9808 -0.1950
vn -0.0000 -0.9808 -0.1952
vn -0.0000 -0.8315 -0.5556
vn -0.0000 -0.7068 -0.7074
vn -0.0000 -0.7070 -0.7072
vn -0.0000 -0.9808 0.1950
vn -0.0000 -0.9808 0.1952
vn -0.0000 -0.7074 0.7068
vn -0.0000 -0.8314 0.5557
vn -0.0000 -0.7068 0.7074
vn -0.0000 -0.1950 0.9808
vn -0.0000 -0.3826 0.9239
vn -0.0000 -0.5555 0.8315
vn -0.0000 -0.7068 0.7075
vn -0.0000 0.9239 -0.3826
vn -0.0000 0.9239 0.3826
vn -0.0000 0.7070 0.7072
vn -0.0000 0.9808 0.1950
vn -0.0000 0.1950 0.9808
vn -0.0000 0.1952 0.9808
vn -0.0000 0.3826 0.9239
vn -0.0000 0.8314 0.5557
vn -0.0000 -0.9239 -0.3826
vn -0.0000 -0.1952 -0.9808
vn -0.0000 0.7068 -0.7075
vn -0.0000 -0.7068 -0.7075
vn -0.0000 -0.7070 0.7072
vn -0.0000 -0.9239 0.3826
vn -0.0000 -0.1952 0.9808
vn -0.0000 0.7074 0.7068
vn -0.0000 0.7068 0.7074
vn -0.0000 0.7068 0.7075
vn -0.0000 1.0000 0.0001
vn 0.0001 -0.0000 -1.0000
vn -0.0000 1.0000 -0.0001
vn -0.0000 -0.7071 -0.7072
vn -0.0000 -0.3828 0.9238
vn -0.0000 0.3828 0.9238
vn -0.0000 0.9238 -0.3828
vn -0.0000 0.3825 -0.9239
vn -0.0000 0.9238 0.3828
vn 0.1724 -0.0000 -0.9850
vn 0.1724 0.9850 -0.0000
vn 0.1723 -0.0000 0.9850
vn 0.1724 -0.0000 0.9850
vn 0.1724 -0.9850 -0.0000
vn 0.1105 -0.0000 0.9939
vn 0.1104 -0.0000 0.9939
s 1
usemtl Diffuse_51_51_51_100.031
f 1//1 2//1 3//1
f 4//1 5//1 6//1
f 7//1 8//1 9//1
f 10//1 11//1 12//1
f 13//1 14//1 15//1
f 3//1 16//1 1//1
f 3//1 2//1 17//1
f 18//1 13//1 1//1
f 19//1 1//1 16//1
f 20//1 1//1 19//1
f 21//1 1//1 20//1
f 22//1 1//1 21//1
f 23//1 1//1 22//1
f 1//1 23//1 24//1
f 1//1 24//1 25//1
f 1//1 25//1 26//1
f 1//1 26//1 18//1
f 13//1 18//1 27//1
f 13//1 27//1 28//1
f 13//1 28//1 29//1
f 13//1 29//1 30//1
f 13//1 30//1 14//1
f 31//1 14//1 32//1
f 14//1 33//1 32//1
f 34//1 35//1 36//1
f 33//1 35//1 34//1
f 36//1 37//1 38//1
f 38//1 39//1 40//1
f 39//1 41//1 40//1
f 41//1 42//1 43//1
f 42//1 44//1 43//1
f 45//1 46//1 47//1
f 45//1 47//1 48//1
f 48//1 49//1 50//1
f 51//1 50//1 49//1
f 52//1 53//1 51//1
f 54//1 53//1 52//1
f 55//1 54//1 56//1
f 55//1 56//1 57//1
f 58//1 57//1 59//1
f 60//1 61//1 62//1
f 61//1 59//1 62//1
f 60//1 62//1 63//1
f 58//1 59//1 61//1
f 64//1 65//1 66//1
f 67//1 65//1 64//1
f 68//1 69//1 70//1
f 69//1 71//1 70//1
f 72//1 4//1 68//1
f 68//1 73//1 74//1
f 75//1 4//1 72//1
f 76//1 73//1 68//1
f 77//1 4//1 75//1
f 78//1 4//1 77//1
f 79//1 4//1 78//1
f 80//1 4//1 79//1
f 4//1 80//1 81//1
f 76//1 68//1 82//1
f 4//1 83//1 84//1
f 85//1 86//1 63//1
f 85//1 65//1 67//1
f 85//1 67//1 86//1
f 63//1 86//1 60//1
f 5//1 4//1 87//1
f 9//1 88//1 7//1
f 9//1 8//1 89//1
f 90//1 91//1 7//1
f 92//1 7//1 88//1
f 93//1 7//1 92//1
f 94//1 7//1 93//1
f 95//1 7//1 94//1
f 96//1 7//1 95//1
f 7//1 96//1 97//1
f 7//1 97//1 98//1
f 7//1 98//1 99//1
f 7//1 99//1 90//1
f 91//1 90//1 100//1
f 91//1 100//1 101//1
f 91//1 101//1 102//1
f 91//1 102//1 103//1
f 91//1 103//1 69//1
f 91//1 69//1 68//1
f 70//1 82//1 68//1
f 4//1 81//1 83//1
f 84//1 87//1 4//1
f 6//1 5//1 104//1
f 66//1 70//1 71//1
f 66//1 71//1 64//1
f 32//1 33//1 34//1
f 57//1 58//1 55//1
f 56//1 54//1 52//1
f 51//1 53//1 50//1
f 47//1 49//1 48//1
f 105//1 46//1 45//1
f 44//1 42//1 106//1
f 44//1 106//1 105//1
f 43//1 40//1 41//1
f 39//1 38//1 37//1
f 37//1 36//1 35//1
f 107//1 31//1 32//1
f 108//1 31//1 107//1
f 109//1 31//1 108//1
f 31//1 109//1 110//1
f 31//1 111//1 10//1
f 111//1 112//1 10//1
f 113//1 10//1 114//1
f 10//1 115//1 114//1
f 116//1 10//1 113//1
f 117//1 10//1 116//1
f 10//1 117//1 118//1
f 10//1 118//1 119//1
f 112//1 115//1 10//1
f 31//1 110//1 111//1
f 74//1 72//1 68//1
f 120//1 10//1 119//1
f 106//1 46//1 105//1
f 11//1 10//1 120//1
f 11//1 121//1 12//1
f 15//1 14//1 31//1
f 122//2 123//3 124//4
f 124//4 123//3 125//5
f 126//4 122//2 124//4
f 124//4 127//6 128//7
f 129//8 130//9 124//4
f 124//4 130//9 127//6
f 131//3 129//8 124//4
f 124//8 132//8 133//8
f 133//8 134//8 135//8
f 133//8 136//8 137//8
f 124//8 133//8 137//8
f 126//4 124//4 128//7
f 138//8 124//8 139//8
f 140//10 141//10 142//10
f 141//10 140//10 143//11
f 143//11 144//11 145//12
f 143//10 146//10 147//10
f 143//11 145//12 141//10
f 148//13 149//13 150//13
f 149//13 151//13 150//13
f 150//13 152//13 153//13
f 154//14 150//13 155//15
f 154//14 156//13 150//13
f 150//13 157//16 158//14
f 150//13 159//17 157//16
f 160//18 150//13 158//14
f 155//15 150//13 161//19
f 162//13 149//13 163//13
f 164//16 150//13 160//18
f 159//17 150//13 156//13
f 149//20 165//20 166//20
f 167//21 168//21 169//21
f 170//21 171//21 172//21
f 170//21 173//21 174//21
f 175//21 176//21 177//21
f 178//21 179//21 180//21
f 180//21 179//21 181//21
f 182//21 183//21 176//21
f 184//21 181//21 185//21
f 186//21 184//21 187//21
f 181//21 184//21 180//21
f 188//21 189//21 184//21
f 185//21 190//21 184//21
f 174//21 191//21 192//21
f 193//21 170//21 192//21
f 184//21 194//21 180//21
f 195//22 196//21 197//21
f 198//21 195//22 197//21
f 199//21 198//21 197//21
f 200//21 199//21 197//21
f 201//21 200//21 197//21
f 202//21 201//21 197//21
f 203//21 202//21 197//21
f 203//21 169//21 168//21
f 204//21 205//21 206//21
f 204//21 207//21 205//21
f 205//21 207//21 208//21
f 209//21 205//21 208//21
f 209//21 210//21 205//21
f 211//21 210//21 212//21
f 210//21 213//21 214//21
s 0
f 210//23 215//23 216//23
s 1
f 210//21 217//21 215//21
f 218//21 219//21 220//21
f 221//21 218//21 222//21
f 221//21 223//21 218//21
f 221//21 224//21 223//21
f 221//21 225//21 224//21
s 0
f 226//21 221//21 227//21
s 1
f 226//21 228//21 221//21
f 229//21 227//21 221//21
f 219//21 218//21 210//21
f 221//21 222//21 230//21
f 231//21 219//21 210//21
f 232//21 231//21 210//21
f 233//21 232//21 210//21
f 234//21 233//21 210//21
f 210//21 209//21 234//21
f 210//21 211//21 213//21
f 210//21 216//21 212//21
f 206//21 235//21 236//21
f 236//21 235//21 237//21
f 237//21 235//21 238//21
f 238//21 235//21 239//21
f 240//21 241//21 235//21
f 235//21 241//21 242//21
f 243//21 235//21 244//21
f 244//21 235//21 172//21
f 172//21 235//21 170//21
f 170//21 235//21 176//21
f 176//21 235//21 177//21
f 171//21 170//21 245//21
f 174//21 192//21 170//21
f 176//21 179//21 178//21
f 246//21 186//21 191//21
f 190//21 188//21 184//21
f 191//21 186//21 247//21
f 189//21 248//21 184//21
f 249//21 247//21 186//21
f 187//21 184//21 248//21
f 170//21 193//21 250//21
f 186//21 251//21 252//21
f 253//21 186//21 252//21
f 186//21 254//21 251//21
f 253//21 249//21 186//21
f 255//21 256//21 257//21
f 258//21 255//21 257//21
f 259//21 260//21 261//21
f 261//21 260//21 262//21
f 263//21 264//21 265//21
f 266//21 267//21 268//21
f 269//21 270//21 271//21
f 268//21 272//21 273//21
f 273//21 274//21 275//21
f 275//21 276//21 277//21
f 277//21 278//21 279//21
f 279//21 280//21 281//21
f 263//21 259//21 282//21
f 283//21 281//21 284//21
f 285//21 283//21 286//21
f 287//21 259//21 261//21
f 288//21 254//21 187//21
f 288//21 258//21 257//21
f 288//21 187//21 258//21
f 254//21 186//21 187//21
f 246//21 289//21 186//21
f 206//21 236//21 204//21
f 256//21 255//21 262//21
f 239//21 235//21 242//21
f 260//21 256//21 262//21
f 214//21 205//21 210//21
f 176//21 290//21 291//21
f 221//21 228//21 225//21
f 292//21 293//21 294//21
f 292//21 285//21 293//21
f 285//21 295//21 293//21
f 220//21 222//21 218//21
f 296//21 285//21 297//21
f 298//21 299//21 300//21
f 301//21 298//21 302//21
f 301//21 303//21 298//21
f 301//21 304//21 303//21
f 301//21 305//21 304//21
f 306//21 301//21 307//21
f 306//21 308//21 301//21
f 309//21 307//21 301//21
f 299//21 298//21 310//21
f 301//21 302//21 311//21
f 312//21 299//21 313//21
f 314//21 312//21 315//21
f 316//21 314//21 317//21
f 318//21 316//21 319//21
f 320//21 321//21 318//21
f 322//21 323//21 324//21
f 325//21 326//21 323//21
f 327//21 328//21 329//21
f 330//21 331//21 328//21
f 332//21 287//21 331//21
f 333//21 334//21 287//21
f 335//21 266//21 270//21
f 285//21 336//21 283//21
f 337//21 259//21 287//21
f 285//21 292//21 336//21
f 285//21 338//21 295//21
f 285//21 339//21 338//21
f 285//21 340//21 341//21
s 0
f 285//23 296//23 340//23
s 1
f 341//21 339//21 285//21
f 246//21 191//21 174//21
f 245//21 170//21 250//21
f 291//21 179//21 176//21
f 183//21 290//21 176//21
f 176//21 178//21 342//21
f 343//21 344//21 177//21
f 177//21 344//21 345//21
f 346//21 343//21 177//21
f 347//21 346//21 177//21
f 175//21 177//21 345//21
f 177//21 348//21 347//21
f 177//21 349//21 348//21
f 177//21 350//21 349//21
f 169//21 351//21 177//21
f 169//21 352//21 351//21
f 169//21 203//21 352//21
f 352//21 203//21 353//21
f 354//21 355//21 197//21
f 203//21 355//21 356//21
f 357//21 197//21 358//21
f 357//21 354//21 197//21
f 358//21 197//21 359//21
f 359//21 197//21 360//21
f 360//21 197//21 361//21
f 353//21 203//21 356//21
f 362//21 361//21 363//21
f 177//21 351//21 350//21
f 363//21 364//21 365//21
f 361//21 366//21 364//21
f 367//21 271//21 265//21
f 182//21 176//21 175//21
f 368//21 324//21 321//21
f 369//21 329//21 326//21
f 370//21 366//21 361//21
f 371//21 361//21 372//21
f 371//21 370//21 361//21
f 372//21 361//21 373//21
f 308//21 305//21 301//21
f 361//21 364//21 363//21
f 300//21 302//21 298//21
f 374//22 361//21 375//21
f 197//21 355//21 203//21
f 167//21 206//21 168//21
f 240//21 235//21 243//21
f 168//21 206//21 205//21
f 361//21 362//21 360//21
f 373//21 361//21 374//22
f 376//24 377//24 378//24
f 379//24 377//24 380//24
f 381//24 382//24 383//24
f 384//24 385//24 386//24
f 387//8 388//8 389//8
f 390//8 391//8 392//8
f 393//5 394//5 395//5
f 396//8 397//8 398//8
f 398//25 399//25 400//25
f 401//8 402//8 400//8
f 403//8 404//8 405//8
f 406//8 404//8 402//8
f 407//3 403//3 408//3
f 409//26 396//26 393//26
f 410//8 411//8 412//8
f 413//27 414//27 415//27
f 416//28 417//28 415//28
f 416//6 418//6 419//6
f 420//29 421//29 422//29
f 423//30 418//30 424//30
f 425//31 426//31 427//31
f 427//8 428//8 422//8
f 429//8 424//8 421//8
f 430//32 431//32 432//32
f 433//32 431//32 434//32
f 435//13 436//13 437//13
f 438//13 439//13 440//13
f 441//33 442//33 443//33
f 444//34 445//34 446//34
f 446//35 447//35 448//35
f 449//36 450//36 448//36
f 451//13 452//13 453//13
f 454//37 452//37 450//37
f 455//38 451//38 456//38
f 457//39 444//39 441//39
f 458//13 459//13 460//13
f 461//40 462//40 463//40
f 464//41 465//41 463//41
f 464//42 466//42 467//42
f 468//14 469//14 470//14
f 471//43 466//43 472//43
f 473//16 474//16 475//16
f 475//13 476//13 470//13
f 477//44 472//44 469//44
f 478//45 479//45 480//45
f 481//45 482//45 483//45
f 484//45 485//45 486//45
f 487//45 488//45 489//45
f 490//45 491//45 492//45
f 493//32 494//32 495//32
f 496//32 497//32 498//32
f 499//32 500//32 501//32
f 502//32 503//32 504//32
f 505//46 506//47 507//46
f 508//47 509//48 510//47
f 511//48 512//48 513//47
f 514//49 515//49 516//48
f 517//50 518//49 519//49
f 520//51 521//50 522//50
f 523//51 524//50 525//51
f 526//52 527//53 528//52
f 529//52 530//52 531//54
f 532//55 533//55 534//56
f 535//54 536//56 537//56
f 538//56 539//57 540//57
f 541//58 542//59 543//58
f 544//59 545//60 546//59
f 547//60 548//60 549//59
f 550//46 551//46 552//10
f 553//61 554//32 555//32
f 556//61 557//32 558//61
f 559//61 560//61 561//62
f 562//61 563//62 564//62
f 565//62 566//63 567//62
f 568//63 569//63 570//62
f 571//60 572//63 573//63
f 574//60 575//63 576//60
f 577//64 578//59 579//59
f 580//56 581//56 582//57
f 583//54 584//52 585//54
f 586//52 587//53 588//53
f 589//50 590//50 591//49
f 592//48 593//49 594//48
f 595//46 596//10 597//10
f 598//47 599//47 600//46
f 601//10 602//10 603//10
f 604//10 605//10 606//10
f 607//24 608//24 609//24
f 610//24 611//24 612//24
f 613//24 614//24 615//24
f 616//24 617//24 618//24
f 619//45 620//45 621//45
f 622//45 623//45 624//45
f 625//65 626//66 627//65
f 628//66 629//67 630//66
f 631//67 632//67 633//66
f 634//68 635//68 636//67
f 637//69 638//68 639//68
f 640//70 641//69 642//69
f 643//70 644//69 645//70
f 646//71 647//72 648//71
f 649//71 650//71 651//73
f 652//73 653//73 654//74
f 655//73 656//74 657//74
f 658//74 659//75 660//75
f 661//76 662//77 663//76
f 664//77 665//78 666//77
f 667//78 668//78 669//77
f 670//65 671//65 672//32
f 673//79 674//45 675//45
f 676//79 677//45 678//79
f 679//79 680//79 681//80
f 682//79 683//80 684//80
f 685//80 686//81 687//80
f 688//81 689//81 690//80
f 691//78 692//81 693//81
f 694//78 695//81 696//78
f 697//76 698//77 699//77
f 700//74 701//74 702//75
f 703//82 704//71 705//82
f 706//71 707//72 708//72
f 709//69 710//69 711//68
f 712//67 713//68 714//67
f 715//65 716//32 717//32
f 718//66 719//66 720//65
f 721//10 722//10 723//10
f 724//10 725//10 726//10
f 727//10 728//10 729//10
f 730//45 731//45 732//45
f 733//45 734//45 735//45
f 736//45 737//45 738//45
f 739//24 740//24 741//24
f 742//24 743//24 744//24
f 745//10 746//83 747//10
f 748//83 749//83 750//10
f 751//84 752//83 753//83
f 754//84 755//83 756//84
f 757//84 758//84 759//85
f 760//84 761//85 762//85
f 763//85 764//86 765//85
f 766//86 767//86 768//85
f 769//87 770//86 771//86
f 772//87 773//86 774//87
f 775//87 776//87 777//88
f 778//87 779//89 780//89
f 781//90 782//91 783//90
f 784//91 785//91 786//90
f 787//92 788//93 789//93
f 790//94 791//94 792//95
f 793//24 794//96 795//24
f 796//96 797//96 798//24
f 799//97 800//96 801//96
f 802//97 803//96 804//97
f 805//97 806//97 807//98
f 808//97 809//98 810//98
f 811//98 812//99 813//98
f 814//99 815//99 816//98
f 817//95 818//99 819//99
f 820//95 821//99 822//95
f 823//95 824//95 825//94
f 826//100 827//92 828//92
f 829//92 830//101 831//92
f 832//102 833//102 834//92
f 835//91 836//103 837//103
f 838//91 839//91 840//103
f 841//10 842//10 843//10
f 844//10 845//10 846//10
f 847//32 848//32 849//32
f 850//32 851//32 852//32
f 853//32 854//32 855//32
f 856//32 857//32 858//32
f 859//45 860//45 861//45
f 862//45 863//45 864//45
f 865//24 866//104 867//24
f 868//104 869//105 870//104
f 871//105 872//105 873//104
f 874//106 875//106 876//105
f 877//107 878//107 879//106
f 880//108 881//107 882//107
f 883//109 884//108 885//108
f 886//109 887//108 888//109
f 889//110 890//111 891//110
f 892//110 893//110 894//112
f 895//113 896//113 897//114
f 898//113 899//114 900//114
f 901//114 902//115 903//115
f 904//116 905//117 906//116
f 907//117 908//118 909//117
f 910//118 911//118 912//117
f 913//119 914//45 915//45
f 916//119 917//45 918//119
f 919//119 920//119 921//120
f 922//119 923//120 924//120
f 925//120 926//121 927//120
f 928//121 929//121 930//120
f 931//118 932//121 933//121
f 934//118 935//121 936//118
f 937//122 938//117 939//117
f 940//114 941//114 942//115
f 943//123 944//110 945//123
f 946//110 947//124 948//124
f 949//108 950//108 951//107
f 952//106 953//107 954//106
f 955//104 956//24 957//104
f 958//105 959//105 960//106
f 961//10 962//10 963//10
f 964//10 965//10 966//10
f 967//10 968//10 969//10
f 970//45 971//45 972//45
f 973//45 974//45 975//45
f 976//45 977//45 978//45
f 979//24 980//24 981//125
f 982//125 983//24 984//125
f 985//105 986//107 987//105
f 988//105 989//107 990//107
f 991//107 992//107 993//109
f 994//111 995//107 996//111
f 997//126 998//127 999//124
f 1000//115 1001//112 1002//112
f 1003//128 1004//128 1005//124
f 1006//129 1007//45 1008//45
f 1009//129 1010//129 1011//45
f 1012//120 1013//130 1014//120
f 1015//120 1016//130 1017//130
f 1018//118 1019//118 1020//116
f 1021//116 1022//118 1023//116
f 1024//131 1025//115 1026//115
f 1027//45 1028//132 1029//45
f 1030//45 1031//132 1032//132
f 1033//80 1034//80 1035//133
f 1036//133 1037//80 1038//133
f 1039//76 1040//82 1041//82
f 1042//134 1043//78 1044//134
f 1045//135 1046//72 1047//136
f 1048//76 1049//78 1050//78
f 1051//137 1052//32 1053//32
f 1054//137 1055//137 1056//32
f 1057//66 1058//68 1059//138
f 1060//138 1061//68 1062//68
f 1063//68 1064//68 1065//70
f 1066//139 1067//68 1068//139
f 1069//140 1070//72 1071//140
f 1072//141 1073//75 1074//75
f 431//32 1075//32 1076//142
f 1077//142 431//32 1078//142
f 1079//143 1080//60 1081//62
f 1082//143 1083//60 1084//60
f 1085//60 1086//60 1087//58
f 1088//58 1089//60 1090//64
f 1091//144 1092//145 1093//57
f 1094//53 1095//55 1096//55
f 1097//146 1098//146 1099//57
f 1100//147 1101//10 1102//10
f 1103//147 1104//147 1105//10
f 1106//47 1107//148 1108//47
f 1109//47 1110//148 1111//148
f 1112//49 1113//49 1114//51
f 1115//149 1116//49 1117//149
f 1118//150 1119//51 1120//53
f 1121//120 1122//130 1123//120
f 1124//118 1125//116 1126//118
f 1127//116 1128//116 1129//118
f 1130//131 1131//131 1132//115
f 1133//124 1134//131 1135//131
f 1136//107 1137//111 1138//111
f 1139//107 1140//109 1141//107
f 1142//129 1143//129 1144//45
f 1145//125 1146//24 1147//24
f 1148//125 1149//24 1150//125
f 1151//105 1152//105 1153//151
f 1154//105 1155//151 1156//151
f 1157//127 1158//124 1159//112
f 1160//115 1161//131 1162//115
f 1163//129 1164//45 1165//45
f 1166//130 1167//130 1168//120
f 1169//97 1170//152 1171//97
f 1172//99 1173//94 1174//99
f 1175//100 1176//100 1177//99
f 1178//153 1179//153 1180//93
f 1181//90 1182//153 1183//153
f 1184//86 1185//89 1186//89
f 1187//86 1188//89 1189//86
f 1190//154 1191//154 1192//24
f 1193//155 1194//10 1195//10
f 1196//155 1197//10 1198//155
f 1199//84 1200//156 1201//157
f 1202//84 1203//157 1204//157
f 1205//90 1206//90 1207//153
f 1208//93 1209//101 1210//158
f 1211//154 1212//24 1213//24
f 1214//152 1215//152 1216//97
f 1217//138 1218//159 1219//138
f 1220//68 1221//70 1222//68
f 1223//139 1224//139 1225//68
f 1226//141 1227//141 1228//72
f 1229//75 1230//141 1231//141
f 1232//78 1233//134 1234//134
f 1235//78 1236//134 1237//78
f 1238//45 1239//45 1240//132
f 1241//45 1242//132 1243//132
f 1244//80 1245//133 1246//160
f 1247//137 1248//137 1249//32
f 1250//133 1251//160 1252//133
f 1253//137 1254//32 1255//32
f 1256//138 1257//159 1258//159
f 1259//72 1260//141 1261//136
f 1262//75 1263//75 1264//141
f 1265//45 1266//45 1267//129
f 1268//129 1269//45 1270//129
f 1271//130 1272//120 1273//120
f 1274//130 1275//130 1276//120
f 1277//118 1278//116 1279//118
f 1280//118 1281//116 1282//116
f 1283//122 1284//113 1285//113
f 377//24 1286//24 1287//125
f 1288//125 1289//125 377//24
f 1290//105 1291//107 1292//105
f 1293//105 1294//107 1295//107
f 1296//107 1297//107 1298//109
f 1299//111 1300//107 1301//111
f 1302//126 1303//127 1304//124
f 1305//128 1306//128 1307//124
f 1308//161 1309//122 1310//122
f 1311//32 434//32 1312//137
f 1313//137 434//32 1314//137
f 1315//68 1316//138 1317//66
f 1318//68 1319//68 1320//138
f 1321//68 1322//70 1323//68
f 1324//68 1325//70 1326//139
f 1327//72 1328//136 1329//135
f 1330//140 1331//72 1332//140
f 1333//75 1334//82 1335//82
f 1336//45 1337//45 1338//132
f 1339//132 1340//45 1341//132
f 1342//133 1343//80 1344//80
f 1345//134 1346//78 1347//134
f 1348//76 1349//78 1350//78
f 1351//162 1352//75 1353//76
f 1354//133 1355//80 1356//133
f 1357//147 1358//147 1359//10
f 1360//148 1361//47 1362//47
f 1363//149 1364//49 1365//49
f 1366//149 1367//49 1368//149
f 1369//163 1370//53 1371//163
f 1372//163 1373//163 1374//57
f 1375//58 1376//64 1377//60
f 1378//32 1379//142 1380//32
f 1381//142 1382//142 1383//32
f 1384//164 1385//143 1386//143
f 1387//164 1388//143 1389//164
f 1390//60 1391//60 1392//58
f 1393//57 1394//57 1395//163
f 1396//53 1397//163 1398//53
f 1399//147 1400//10 1401//10
f 1402//148 1403//148 1404//165
f 1405//10 1406//155 1407//10
f 1408//10 1409//155 1410//155
f 1411//84 1412//84 1413//157
f 1414//157 1415//84 1416//157
f 1417//88 1418//103 1419//103
f 1420//89 1421//86 1422//89
f 1423//166 1424//93 1425//158
f 1426//89 1427//86 1428//86
f 1429//154 1430//24 380//24
f 1431//154 1432//154 380//24
f 1433//97 1434//99 1435//97
f 1436//97 1437//99 1438//99
f 1439//99 1440//99 1441//94
f 1442//94 1443//99 1444//100
f 1445//167 1446//93 1447//167
f 1448//168 1449//88 1450//88
f 1451//32 1452//32 1453//32
f 1452//32 1454//32 1455//32
f 1456//45 1457//45 1458//45
f 1459//45 1460//45 1458//45
f 1461//45 1462//45 1463//45
f 1464//32 1465//32 1466//32
f 1467//32 1468//32 1464//32
f 1469//32 1464//32 1470//32
f 1471//45 1472//45 1473//45
f 1474//45 1475//45 1476//45
f 1477//24 1478//24 1479//24
f 1480//169 1481//169 1479//169
f 1482//24 1483//24 1484//24
f 1485//45 1486//45 1487//45
f 1488//45 1489//45 1485//45
f 1490//170 1485//170 1491//170
f 1492//24 1493//24 1494//24
f 1495//24 1496//24 1497//24
f 1498//10 1499//10 1500//10
f 1501//10 1502//10 1500//10
f 1503//10 1504//10 1505//10
f 1506//24 1507//24 1508//24
f 1509//171 1510//171 1506//171
f 1511//24 1506//24 1512//24
f 1513//10 1514//10 1515//10
f 1516//10 1517//10 1518//10
f 1519//32 1520//32 1521//32
f 1522//32 1523//32 1521//32
f 1524//32 1525//32 1526//32
f 1527//80 1528//80 1529//45
f 1530//133 1528//80 1527//80
f 1531//76 1532//78 1530//133
f 1533//76 1532//78 1531//76
f 1534//172 1533//76 1535//73
f 1534//172 1535//73 1536//139
f 1537//139 1536//139 1538//159
f 1537//139 1538//159 1539//68
f 1539//68 1540//66 1541//66
f 1540//66 1542//32 1541//66
f 1542//32 1543//62 1544//32
f 1543//62 1545//62 1544//32
f 1546//60 1547//164 1545//62
f 1548//64 1547//164 1546//60
f 1549//163 1550//64 1548//64
f 1551//54 1550//64 1549//163
f 1552//51 1551//54 1553//51
f 1552//51 1553//51 1554//173
f 1555//49 1554//173 1556//47
f 1555//49 1556//47 1557//47
f 1557//47 1558//10 1559//10
f 1558//10 1560//84 1559//10
f 1561//84 1562//86 1563//174
f 1563//174 1562//86 1564//88
f 1565//24 1566//24 1567//97
f 1568//105 1569//105 1566//24
f 1570//175 1571//107 1569//105
f 1572//111 1573//109 1571//107
f 1574//112 1573//109 1572//111
f 1575//122 1576//113 1574//112
f 1577//122 1576//113 1575//122
f 1578//176 1577//122 1579//118
f 1553//51 1551//54 1549//163
f 1580//120 1581//120 1529//45
f 1578//176 1581//120 1580//120
f 1579//118 1581//120 1578//176
f 1575//122 1579//118 1577//122
f 1573//109 1574//112 1576//113
f 1571//107 1570//175 1572//111
f 1569//105 1568//105 1570//175
f 1580//120 1529//45 1582//45
f 1566//24 1565//24 1568//105
f 1567//97 1583//97 1565//24
f 1584//177 1583//97 1567//97
f 1585//99 1583//97 1584//177
f 1585//99 1584//177 1586//100
f 1585//99 1586//100 1587//100
f 1586//100 1588//103 1587//100
f 1588//103 1589//103 1587//100
f 1590//88 1589//103 1588//103
f 1564//88 1589//103 1590//88
f 1564//88 1590//88 1563//174
f 1562//86 1561//84 1560//84
f 1561//84 1559//10 1560//84
f 1558//10 1557//47 1556//47
f 1554//173 1555//49 1552//51
f 1547//164 1548//64 1550//64
f 1545//62 1543//62 1546//60
f 1544//32 1541//66 1542//32
f 1540//66 1539//68 1538//159
f 1536//139 1537//139 1534//172
f 1531//76 1535//73 1533//76
f 1528//80 1530//133 1532//78
f 1528//80 1582//45 1529//45
f 1591//10 1592//10 1593//10
f 1594//10 1595//10 1596//10
f 1597//10 1598//10 1599//10
f 1600//21 1601//21 1602//21
f 1603//21 1604//21 1605//21
f 1606//21 1607//21 1608//21
f 1600//21 1609//21 1610//21
f 1611//21 1612//21 1613//21
f 1614//21 1615//21 1616//21
f 1617//21 1618//21 1619//21
f 1620//21 1621//21 1622//21
f 1623//21 1624//21 1625//21
f 1626//21 1627//21 1628//21
f 1629//21 1630//21 1631//21
f 1632//21 1633//21 1634//21
f 1635//21 1636//21 1637//21
f 1638//21 1639//21 1640//21
f 1641//21 1642//21 1600//21
f 1643//21 1644//21 1600//21
f 1645//21 1646//21 1647//21
f 1648//21 1649//21 1650//21
f 1651//21 1652//21 1653//21
f 1654//21 1655//21 1656//21
f 1657//21 1658//21 1659//21
f 1659//21 1660//21 1661//21
f 1662//21 1663//21 1659//21
f 1664//21 1665//21 1659//21
f 1666//21 1667//21 1659//21
f 1668//21 1669//21 1670//21
f 1671//21 1672//21 1673//21
f 1659//21 1674//21 1675//21
f 1626//21 1676//21 1677//21
f 1678//21 1679//21 1626//21
f 1680//21 1681//21 1626//21
f 1682//21 1683//21 1684//21
f 1685//21 1686//21 1687//21
f 1688//21 1689//21 1690//21
f 1691//21 1692//21 1693//21
f 1617//21 1694//21 1695//21
f 1617//21 1696//21 1697//21
f 1698//21 1699//21 1617//21
f 1700//21 1701//21 1617//21
f 1702//21 1703//21 1704//21
f 1705//21 1706//21 1707//21
f 1708//21 1709//21 1710//21
f 1711//21 1712//21 1713//21
f 1600//21 1714//21 1715//21
f 1626//21 1716//21 1717//21
f 1600//21 1718//21 1719//21
f 1626//21 1720//21 1721//21
f 1722//21 1723//21 1617//21
f 1724//21 1725//21 1726//21
s 0
f 1727//22 1728//22 1729//22
s 1
f 1730//21 1731//21 1732//21
f 1733//21 1734//21 1735//21
f 1736//21 1737//21 1738//21
f 1739//21 1740//21 1741//21
f 1742//21 1743//21 1744//21
f 1745//21 1746//21 1747//21
f 1748//21 1749//21 1750//21
f 1751//21 1752//21 1753//21
f 1754//21 1755//21 1756//21
f 1757//21 1758//21 1759//21
f 1760//21 1761//21 1762//21
f 1763//21 1764//21 1765//21
f 1766//21 1767//21 1768//21
f 1769//21 1770//21 1771//21
f 1772//21 1773//21 1774//21
f 1775//21 1776//21 1777//21
f 1778//21 1779//21 1780//21
f 1781//21 1782//21 1783//21
f 1784//21 1785//21 1786//21
f 1787//21 1788//21 1789//21
f 1790//21 1791//21 1792//21
f 1793//21 1794//21 1795//21
f 1796//21 1797//21 1798//21
f 1799//21 1800//21 1801//21
f 1802//21 1803//21 1804//21
s 0
f 1805//23 1806//23 1807//23
s 1
f 1808//21 1809//21 1810//21
f 1811//21 1812//21 1813//21
f 1814//178 1815//178 1816//178
f 1817//178 1818//178 1471//45
f 1471//45 1819//178 1820//178
f 1821//179 1822//179 1823//179
f 1824//179 1825//179 1492//24
f 1492//24 1826//179 1827//179
f 1828//180 1829//180 1830//180
f 1831//180 1832//180 1513//10
f 1513//11 1833//181 1834//181
f 1835//182 1836//182 1452//32
f 1837//182 1838//182 1451//32
f 1451//32 1839//182 1452//32
f 1840//45 1841//45 1842//45
f 1843//45 1844//45 1842//45
f 1845//45 1840//45 1846//45
f 1847//32 1848//32 1849//32
f 1850//32 1851//32 1852//32
f 1853//10 1854//10 1855//10
f 1856//10 1857//10 1858//10
f 1859//24 1860//24 1861//24
f 1862//24 1863//24 1864//24
f 1865//21 1866//21 1867//21
f 1868//21 1869//21 1870//21
f 1871//183 1872//183 1873//183
f 1872//184 1874//184 1875//184
f 1876//183 1872//183 1877//183
f 1872//184 1878//184 1879//184
f 1880//1 1881//1 1882//1
f 1883//1 1884//1 1885//1
f 1886//1 1887//1 1888//1
f 1889//1 1890//1 1891//1
