# Blender 4.4.3
# www.blender.org
mtllib Mesh_20.008.mtl
o Mesh_20.008
v 0.017290 0.008710 -0.008752
v 0.017290 0.008710 -0.008743
v 0.017290 0.008716 -0.008737
v 0.017290 0.008773 -0.008752
v 0.017290 0.008721 -0.008730
v 0.017290 0.008726 -0.008724
v 0.017290 0.008732 -0.008719
v 0.017290 0.008738 -0.008713
v 0.017290 0.008773 -0.008714
v 0.017290 0.008744 -0.008708
v 0.017290 0.008750 -0.008702
v 0.017290 0.008756 -0.008697
v 0.017290 0.008710 -0.008743
v 0.017375 0.008710 -0.008743
v 0.017375 0.008714 -0.008739
v 0.017290 0.008716 -0.008737
v 0.017290 0.008710 -0.008743
v 0.017375 0.008717 -0.008735
v 0.017290 0.008716 -0.008737
v 0.017290 0.008721 -0.008730
v 0.017290 0.008716 -0.008737
v 0.017290 0.008721 -0.008730
v 0.017375 0.008720 -0.008731
v 0.017375 0.008723 -0.008727
v 0.017290 0.008721 -0.008730
v 0.017290 0.008726 -0.008724
v 0.017290 0.008721 -0.008730
v 0.017375 0.008727 -0.008724
v 0.017375 0.008730 -0.008720
v 0.017290 0.008726 -0.008724
v 0.017290 0.008726 -0.008724
v 0.017290 0.008726 -0.008724
v 0.017290 0.008732 -0.008719
v 0.017290 0.008732 -0.008719
v 0.017375 0.008734 -0.008717
v 0.017290 0.008738 -0.008713
v 0.017290 0.008732 -0.008719
v 0.017375 0.008738 -0.008713
v 0.017290 0.008738 -0.008713
v 0.017375 0.008741 -0.008710
v 0.017290 0.008738 -0.008713
v 0.017290 0.008738 -0.008713
v 0.017290 0.008744 -0.008708
v 0.017290 0.008744 -0.008708
v 0.017375 0.008745 -0.008706
v 0.017290 0.008750 -0.008702
v 0.017293 0.008756 -0.008697
v 0.017290 0.008756 -0.008697
v 0.017290 0.008750 -0.008702
v 0.017290 0.008744 -0.008708
v 0.017290 0.008750 -0.008702
v 0.017297 0.008756 -0.008697
v 0.017375 0.008749 -0.008703
v 0.017290 0.008750 -0.008702
v 0.017300 0.008756 -0.008697
v 0.017290 0.008750 -0.008702
v 0.017304 0.008756 -0.008697
v 0.017290 0.008750 -0.008702
v 0.017307 0.008757 -0.008697
v 0.017375 0.008753 -0.008700
v 0.017310 0.008757 -0.008696
v 0.017317 0.008759 -0.008695
v 0.017313 0.008758 -0.008696
v 0.017340 0.008769 -0.008688
v 0.017338 0.008767 -0.008689
v 0.017375 0.008765 -0.008691
v 0.017375 0.008769 -0.008688
v 0.017335 0.008766 -0.008690
v 0.017332 0.008764 -0.008691
v 0.017375 0.008761 -0.008694
v 0.017329 0.008763 -0.008692
v 0.017326 0.008762 -0.008693
v 0.017375 0.008757 -0.008697
v 0.017323 0.008761 -0.008694
v 0.017320 0.008760 -0.008694
v 0.017290 0.008750 -0.008702
v 0.017290 0.008750 -0.008702
v 0.017375 0.008834 -0.008687
v 0.017352 0.008803 -0.008687
v 0.017375 0.008772 -0.008687
v 0.017345 0.008775 -0.008687
v 0.017343 0.008772 -0.008687
v 0.017347 0.008779 -0.008687
v 0.017349 0.008783 -0.008687
v 0.017350 0.008787 -0.008687
v 0.017351 0.008791 -0.008687
v 0.017352 0.008795 -0.008687
v 0.017352 0.008799 -0.008687
v 0.017352 0.008807 -0.008687
v 0.017352 0.008811 -0.008687
v 0.017351 0.008815 -0.008687
v 0.017350 0.008819 -0.008687
v 0.017349 0.008823 -0.008687
v 0.017345 0.008831 -0.008687
v 0.017343 0.008834 -0.008687
v 0.017347 0.008827 -0.008687
v 0.017290 0.008856 -0.008702
v 0.017293 0.008850 -0.008697
v 0.017297 0.008850 -0.008697
v 0.017300 0.008850 -0.008697
v 0.017303 0.008850 -0.008697
v 0.017307 0.008849 -0.008697
v 0.017375 0.008868 -0.008713
v 0.017375 0.008872 -0.008717
v 0.017290 0.008868 -0.008713
v 0.017375 0.008879 -0.008724
v 0.017290 0.008880 -0.008724
v 0.017375 0.008876 -0.008720
v 0.017375 0.008883 -0.008727
v 0.017290 0.008885 -0.008730
v 0.017290 0.008850 -0.008697
v 0.017290 0.008895 -0.008743
v 0.017375 0.008892 -0.008739
v 0.017375 0.008895 -0.008743
v 0.017290 0.008890 -0.008737
v 0.017375 0.008889 -0.008735
v 0.017375 0.008886 -0.008731
v 0.017290 0.008874 -0.008719
v 0.017375 0.008865 -0.008710
v 0.017290 0.008862 -0.008708
v 0.017375 0.008861 -0.008706
v 0.017310 0.008849 -0.008696
v 0.017375 0.008857 -0.008703
v 0.017313 0.008848 -0.008696
v 0.017375 0.008853 -0.008700
v 0.017317 0.008847 -0.008695
v 0.017320 0.008846 -0.008694
v 0.017375 0.008849 -0.008697
v 0.017326 0.008844 -0.008693
v 0.017329 0.008843 -0.008692
v 0.017375 0.008845 -0.008694
v 0.017375 0.008837 -0.008688
v 0.017375 0.008841 -0.008691
v 0.017340 0.008837 -0.008688
v 0.017338 0.008839 -0.008689
v 0.017335 0.008840 -0.008690
v 0.017332 0.008842 -0.008691
v 0.017323 0.008845 -0.008694
v 0.017290 0.008833 -0.008714
v 0.017290 0.008868 -0.008713
v 0.017290 0.008833 -0.008752
v 0.017290 0.008850 -0.008697
v 0.017290 0.008856 -0.008702
v 0.017290 0.008856 -0.008702
v 0.017290 0.008862 -0.008708
v 0.017290 0.008862 -0.008708
v 0.017290 0.008868 -0.008713
v 0.017290 0.008868 -0.008713
v 0.017290 0.008874 -0.008719
v 0.017290 0.008874 -0.008719
v 0.017290 0.008880 -0.008724
v 0.017290 0.008880 -0.008724
v 0.017290 0.008885 -0.008730
v 0.017290 0.008895 -0.008743
v 0.017290 0.008895 -0.008752
v 0.017290 0.008890 -0.008737
v 0.017290 0.008885 -0.008730
v 0.017290 0.008890 -0.008737
v 0.017290 0.008890 -0.008737
v 0.017375 0.008845 -0.008694
v 0.017375 0.008834 -0.008687
v 0.017375 0.008772 -0.008687
v 0.017375 0.008761 -0.008694
v 0.017375 0.008772 -0.008687
v 0.017375 0.008765 -0.008691
v 0.017375 0.008772 -0.008687
v 0.017375 0.008771 -0.008687
v 0.017375 0.008769 -0.008688
v 0.017375 0.008770 -0.008687
v 0.017375 0.008769 -0.008688
v 0.017375 0.008770 -0.008687
v 0.017375 0.008769 -0.008688
v 0.017375 0.008772 -0.008687
v 0.017375 0.008769 -0.008688
v 0.017375 0.008765 -0.008691
v 0.017375 0.008845 -0.008694
v 0.017375 0.008772 -0.008687
v 0.017375 0.008761 -0.008694
v 0.017375 0.008845 -0.008694
v 0.017375 0.008761 -0.008694
v 0.017375 0.008849 -0.008697
v 0.017375 0.008761 -0.008694
v 0.017375 0.008757 -0.008697
v 0.017375 0.008849 -0.008697
v 0.017375 0.008757 -0.008697
v 0.017375 0.008853 -0.008700
v 0.017375 0.008849 -0.008697
v 0.017375 0.008753 -0.008700
v 0.017375 0.008853 -0.008700
v 0.017375 0.008757 -0.008697
v 0.017375 0.008857 -0.008703
v 0.017375 0.008853 -0.008700
v 0.017375 0.008753 -0.008700
v 0.017375 0.008857 -0.008703
v 0.017375 0.008753 -0.008700
v 0.017375 0.008749 -0.008703
v 0.017375 0.008857 -0.008703
v 0.017375 0.008749 -0.008703
v 0.017375 0.008861 -0.008706
v 0.017375 0.008749 -0.008703
v 0.017375 0.008745 -0.008706
v 0.017375 0.008861 -0.008706
v 0.017375 0.008745 -0.008706
v 0.017375 0.008865 -0.008710
v 0.017375 0.008861 -0.008706
v 0.017375 0.008741 -0.008710
v 0.017375 0.008865 -0.008710
v 0.017375 0.008745 -0.008706
v 0.017375 0.008868 -0.008713
v 0.017375 0.008865 -0.008710
v 0.017375 0.008741 -0.008710
v 0.017375 0.008868 -0.008713
v 0.017375 0.008741 -0.008710
v 0.017375 0.008738 -0.008713
v 0.017375 0.008710 -0.008743
v 0.017375 0.008710 -0.008752
v 0.017375 0.008714 -0.008739
v 0.017375 0.008868 -0.008713
v 0.017375 0.008738 -0.008713
v 0.017375 0.008872 -0.008717
v 0.017375 0.008720 -0.008731
v 0.017375 0.008717 -0.008735
v 0.017375 0.008734 -0.008717
v 0.017375 0.008730 -0.008720
v 0.017375 0.008895 -0.008743
v 0.017375 0.008892 -0.008739
v 0.017375 0.008895 -0.008752
v 0.017375 0.008892 -0.008739
v 0.017375 0.008889 -0.008735
v 0.017375 0.008889 -0.008735
v 0.017375 0.008886 -0.008731
v 0.017375 0.008886 -0.008731
v 0.017375 0.008883 -0.008727
v 0.017375 0.008883 -0.008727
v 0.017375 0.008879 -0.008724
v 0.017375 0.008879 -0.008724
v 0.017375 0.008876 -0.008720
v 0.017375 0.008876 -0.008720
v 0.017375 0.008872 -0.008717
v 0.017375 0.008734 -0.008717
v 0.017375 0.008730 -0.008720
v 0.017375 0.008727 -0.008724
v 0.017375 0.008727 -0.008724
v 0.017375 0.008723 -0.008727
v 0.017375 0.008723 -0.008727
v 0.017375 0.008720 -0.008731
v 0.017375 0.008734 -0.008717
v 0.017375 0.008872 -0.008717
v 0.017375 0.008872 -0.008717
v 0.017375 0.008738 -0.008713
v 0.017375 0.008734 -0.008717
v 0.017375 0.008717 -0.008735
v 0.017375 0.008714 -0.008739
v 0.017375 0.008845 -0.008694
v 0.017375 0.008841 -0.008691
v 0.017375 0.008834 -0.008687
v 0.017375 0.008836 -0.008687
v 0.017375 0.008834 -0.008687
v 0.017375 0.008836 -0.008687
v 0.017375 0.008834 -0.008687
v 0.017375 0.008837 -0.008688
v 0.017375 0.008835 -0.008687
v 0.017375 0.008834 -0.008687
v 0.017375 0.008837 -0.008688
v 0.017375 0.008834 -0.008687
v 0.017375 0.008841 -0.008691
v 0.017375 0.008710 -0.008752
v 0.017375 0.008710 -0.008743
v 0.017290 0.008710 -0.008752
v 0.017375 0.008710 -0.008743
v 0.017290 0.008710 -0.008743
v 0.017290 0.008710 -0.008752
v 0.017290 0.008895 -0.008752
v 0.017290 0.008895 -0.008743
v 0.017375 0.008895 -0.008752
v 0.017290 0.008895 -0.008743
v 0.017375 0.008895 -0.008743
v 0.017375 0.008895 -0.008752
v 0.017290 0.008710 -0.008752
v 0.017306 0.008775 -0.008752
v 0.017308 0.008776 -0.008752
v 0.017375 0.008710 -0.008752
v 0.017325 0.008801 -0.008752
v 0.017325 0.008803 -0.008752
v 0.017292 0.008833 -0.008752
v 0.017290 0.008833 -0.008752
v 0.017290 0.008895 -0.008752
v 0.017290 0.008895 -0.008752
v 0.017293 0.008833 -0.008752
v 0.017290 0.008895 -0.008752
v 0.017295 0.008833 -0.008752
v 0.017290 0.008895 -0.008752
v 0.017296 0.008833 -0.008752
v 0.017290 0.008895 -0.008752
v 0.017298 0.008833 -0.008752
v 0.017290 0.008895 -0.008752
v 0.017300 0.008833 -0.008752
v 0.017290 0.008895 -0.008752
v 0.017301 0.008832 -0.008752
v 0.017290 0.008895 -0.008752
v 0.017303 0.008832 -0.008752
v 0.017290 0.008895 -0.008752
v 0.017304 0.008831 -0.008752
v 0.017290 0.008895 -0.008752
v 0.017306 0.008831 -0.008752
v 0.017290 0.008895 -0.008752
v 0.017308 0.008830 -0.008752
v 0.017290 0.008895 -0.008752
v 0.017309 0.008830 -0.008752
v 0.017290 0.008895 -0.008752
v 0.017375 0.008895 -0.008752
v 0.017375 0.008895 -0.008752
v 0.017310 0.008829 -0.008752
v 0.017375 0.008895 -0.008752
v 0.017312 0.008828 -0.008752
v 0.017375 0.008895 -0.008752
v 0.017313 0.008827 -0.008752
v 0.017375 0.008895 -0.008752
v 0.017314 0.008826 -0.008752
v 0.017375 0.008895 -0.008752
v 0.017316 0.008825 -0.008752
v 0.017375 0.008895 -0.008752
v 0.017317 0.008824 -0.008752
v 0.017375 0.008895 -0.008752
v 0.017318 0.008822 -0.008752
v 0.017375 0.008895 -0.008752
v 0.017319 0.008821 -0.008752
v 0.017375 0.008895 -0.008752
v 0.017320 0.008820 -0.008752
v 0.017375 0.008895 -0.008752
v 0.017321 0.008819 -0.008752
v 0.017323 0.008814 -0.008752
v 0.017322 0.008816 -0.008752
v 0.017375 0.008895 -0.008752
v 0.017375 0.008895 -0.008752
v 0.017321 0.008817 -0.008752
v 0.017323 0.008813 -0.008752
v 0.017375 0.008895 -0.008752
v 0.017324 0.008811 -0.008752
v 0.017375 0.008895 -0.008752
v 0.017324 0.008809 -0.008752
v 0.017375 0.008895 -0.008752
v 0.017325 0.008808 -0.008752
v 0.017375 0.008895 -0.008752
v 0.017325 0.008806 -0.008752
v 0.017375 0.008895 -0.008752
v 0.017325 0.008805 -0.008752
v 0.017375 0.008895 -0.008752
v 0.017375 0.008895 -0.008752
v 0.017375 0.008895 -0.008752
v 0.017375 0.008710 -0.008752
v 0.017375 0.008710 -0.008752
v 0.017325 0.008800 -0.008752
v 0.017375 0.008710 -0.008752
v 0.017325 0.008798 -0.008752
v 0.017375 0.008710 -0.008752
v 0.017324 0.008797 -0.008752
v 0.017375 0.008710 -0.008752
v 0.017324 0.008795 -0.008752
v 0.017375 0.008710 -0.008752
v 0.017323 0.008793 -0.008752
v 0.017322 0.008790 -0.008752
v 0.017375 0.008710 -0.008752
v 0.017321 0.008789 -0.008752
v 0.017323 0.008792 -0.008752
v 0.017375 0.008710 -0.008752
v 0.017375 0.008710 -0.008752
v 0.017321 0.008787 -0.008752
v 0.017375 0.008710 -0.008752
v 0.017320 0.008786 -0.008752
v 0.017375 0.008710 -0.008752
v 0.017319 0.008785 -0.008752
v 0.017375 0.008710 -0.008752
v 0.017318 0.008784 -0.008752
v 0.017375 0.008710 -0.008752
v 0.017317 0.008782 -0.008752
v 0.017375 0.008710 -0.008752
v 0.017316 0.008781 -0.008752
v 0.017375 0.008710 -0.008752
v 0.017314 0.008780 -0.008752
v 0.017375 0.008710 -0.008752
v 0.017313 0.008779 -0.008752
v 0.017375 0.008710 -0.008752
v 0.017312 0.008778 -0.008752
v 0.017375 0.008710 -0.008752
v 0.017310 0.008777 -0.008752
v 0.017375 0.008710 -0.008752
v 0.017309 0.008776 -0.008752
v 0.017375 0.008710 -0.008752
v 0.017290 0.008710 -0.008752
v 0.017290 0.008710 -0.008752
v 0.017304 0.008775 -0.008752
v 0.017290 0.008710 -0.008752
v 0.017303 0.008774 -0.008752
v 0.017290 0.008710 -0.008752
v 0.017301 0.008774 -0.008752
v 0.017290 0.008710 -0.008752
v 0.017290 0.008710 -0.008752
v 0.017300 0.008773 -0.008752
v 0.017290 0.008710 -0.008752
v 0.017298 0.008773 -0.008752
v 0.017290 0.008710 -0.008752
v 0.017296 0.008773 -0.008752
v 0.017290 0.008710 -0.008752
v 0.017295 0.008773 -0.008752
v 0.017290 0.008710 -0.008752
v 0.017293 0.008773 -0.008752
v 0.017375 0.008895 -0.008752
v 0.017290 0.008710 -0.008752
v 0.017292 0.008773 -0.008752
v 0.017375 0.008710 -0.008752
v 0.017290 0.008710 -0.008752
v 0.017290 0.008773 -0.008752
v 0.017292 0.008833 -0.008752
v 0.017293 0.008833 -0.008752
v 0.017292 0.008833 -0.008714
v 0.017293 0.008833 -0.008752
v 0.017295 0.008833 -0.008752
v 0.017293 0.008833 -0.008714
v 0.017295 0.008833 -0.008752
v 0.017295 0.008833 -0.008714
v 0.017296 0.008833 -0.008752
v 0.017296 0.008833 -0.008714
v 0.017298 0.008833 -0.008752
v 0.017298 0.008833 -0.008714
v 0.017300 0.008833 -0.008752
v 0.017300 0.008833 -0.008714
v 0.017301 0.008832 -0.008752
v 0.017300 0.008833 -0.008752
v 0.017303 0.008832 -0.008752
v 0.017301 0.008832 -0.008714
v 0.017301 0.008832 -0.008752
v 0.017303 0.008832 -0.008714
v 0.017303 0.008832 -0.008752
v 0.017304 0.008831 -0.008714
v 0.017304 0.008831 -0.008752
v 0.017304 0.008831 -0.008752
v 0.017306 0.008831 -0.008752
v 0.017306 0.008831 -0.008714
v 0.017306 0.008831 -0.008752
v 0.017308 0.008830 -0.008752
v 0.017308 0.008830 -0.008714
v 0.017308 0.008830 -0.008752
v 0.017309 0.008830 -0.008752
v 0.017309 0.008830 -0.008752
v 0.017309 0.008830 -0.008714
v 0.017310 0.008829 -0.008752
v 0.017310 0.008829 -0.008714
v 0.017310 0.008829 -0.008752
v 0.017312 0.008828 -0.008752
v 0.017312 0.008828 -0.008752
v 0.017313 0.008827 -0.008752
v 0.017312 0.008828 -0.008714
v 0.017313 0.008827 -0.008752
v 0.017313 0.008827 -0.008714
v 0.017314 0.008826 -0.008752
v 0.017314 0.008826 -0.008714
v 0.017316 0.008825 -0.008752
v 0.017314 0.008826 -0.008752
v 0.017317 0.008824 -0.008752
v 0.017316 0.008825 -0.008714
v 0.017316 0.008825 -0.008752
v 0.017317 0.008824 -0.008714
v 0.017317 0.008824 -0.008752
v 0.017318 0.008822 -0.008714
v 0.017318 0.008822 -0.008752
v 0.017318 0.008822 -0.008752
v 0.017319 0.008821 -0.008752
v 0.017319 0.008821 -0.008714
v 0.017319 0.008821 -0.008752
v 0.017320 0.008820 -0.008752
v 0.017320 0.008820 -0.008752
v 0.017320 0.008820 -0.008714
v 0.017321 0.008819 -0.008752
v 0.017321 0.008819 -0.008714
v 0.017321 0.008819 -0.008752
v 0.017321 0.008817 -0.008752
v 0.017321 0.008817 -0.008752
v 0.017322 0.008816 -0.008752
v 0.017321 0.008817 -0.008714
v 0.017322 0.008816 -0.008752
v 0.017322 0.008816 -0.008714
v 0.017323 0.008814 -0.008752
v 0.017323 0.008814 -0.008714
v 0.017323 0.008813 -0.008752
v 0.017323 0.008814 -0.008752
v 0.017324 0.008811 -0.008752
v 0.017323 0.008813 -0.008714
v 0.017323 0.008813 -0.008752
v 0.017324 0.008811 -0.008714
v 0.017324 0.008811 -0.008752
v 0.017324 0.008809 -0.008714
v 0.017324 0.008809 -0.008752
v 0.017324 0.008809 -0.008752
v 0.017325 0.008808 -0.008752
v 0.017325 0.008808 -0.008714
v 0.017325 0.008808 -0.008752
v 0.017325 0.008806 -0.008752
v 0.017325 0.008806 -0.008752
v 0.017325 0.008806 -0.008714
v 0.017325 0.008805 -0.008752
v 0.017325 0.008805 -0.008714
v 0.017325 0.008805 -0.008752
v 0.017325 0.008803 -0.008752
v 0.017325 0.008803 -0.008752
v 0.017325 0.008801 -0.008752
v 0.017325 0.008803 -0.008714
v 0.017325 0.008801 -0.008752
v 0.017325 0.008801 -0.008714
v 0.017325 0.008800 -0.008752
v 0.017325 0.008800 -0.008714
v 0.017325 0.008798 -0.008752
v 0.017325 0.008800 -0.008752
v 0.017324 0.008797 -0.008752
v 0.017325 0.008798 -0.008714
v 0.017325 0.008798 -0.008752
v 0.017324 0.008795 -0.008752
v 0.017324 0.008797 -0.008714
v 0.017324 0.008797 -0.008752
v 0.017324 0.008795 -0.008714
v 0.017324 0.008795 -0.008752
v 0.017323 0.008793 -0.008714
v 0.017323 0.008793 -0.008752
v 0.017323 0.008793 -0.008752
v 0.017323 0.008792 -0.008752
v 0.017323 0.008792 -0.008714
v 0.017323 0.008792 -0.008752
v 0.017322 0.008790 -0.008752
v 0.017322 0.008790 -0.008752
v 0.017322 0.008790 -0.008714
v 0.017321 0.008789 -0.008752
v 0.017321 0.008789 -0.008714
v 0.017321 0.008789 -0.008752
v 0.017321 0.008787 -0.008752
v 0.017321 0.008787 -0.008752
v 0.017320 0.008786 -0.008752
v 0.017321 0.008787 -0.008714
v 0.017320 0.008786 -0.008752
v 0.017320 0.008786 -0.008714
v 0.017319 0.008785 -0.008752
v 0.017319 0.008785 -0.008714
v 0.017318 0.008784 -0.008752
v 0.017319 0.008785 -0.008752
v 0.017317 0.008782 -0.008752
v 0.017318 0.008784 -0.008714
v 0.017318 0.008784 -0.008752
v 0.017317 0.008782 -0.008714
v 0.017317 0.008782 -0.008752
v 0.017316 0.008781 -0.008714
v 0.017316 0.008781 -0.008752
v 0.017316 0.008781 -0.008752
v 0.017314 0.008780 -0.008752
v 0.017314 0.008780 -0.008714
v 0.017314 0.008780 -0.008752
v 0.017313 0.008779 -0.008752
v 0.017313 0.008779 -0.008752
v 0.017313 0.008779 -0.008714
v 0.017292 0.008773 -0.008714
v 0.017293 0.008773 -0.008714
v 0.017292 0.008773 -0.008752
v 0.017290 0.008773 -0.008752
v 0.017290 0.008773 -0.008714
v 0.017290 0.008773 -0.008752
v 0.017292 0.008773 -0.008752
v 0.017293 0.008773 -0.008752
v 0.017292 0.008773 -0.008752
v 0.017295 0.008773 -0.008714
v 0.017293 0.008773 -0.008752
v 0.017295 0.008773 -0.008752
v 0.017293 0.008773 -0.008752
v 0.017295 0.008773 -0.008752
v 0.017296 0.008773 -0.008714
v 0.017295 0.008773 -0.008752
v 0.017296 0.008773 -0.008752
v 0.017298 0.008773 -0.008714
v 0.017296 0.008773 -0.008752
v 0.017298 0.008773 -0.008752
v 0.017296 0.008773 -0.008752
v 0.017300 0.008773 -0.008714
v 0.017298 0.008773 -0.008752
v 0.017300 0.008773 -0.008752
v 0.017298 0.008773 -0.008752
v 0.017300 0.008773 -0.008752
v 0.017301 0.008774 -0.008714
v 0.017300 0.008773 -0.008752
v 0.017301 0.008774 -0.008752
v 0.017303 0.008774 -0.008714
v 0.017301 0.008774 -0.008752
v 0.017303 0.008774 -0.008752
v 0.017301 0.008774 -0.008752
v 0.017304 0.008775 -0.008714
v 0.017303 0.008774 -0.008752
v 0.017304 0.008775 -0.008752
v 0.017303 0.008774 -0.008752
v 0.017304 0.008775 -0.008752
v 0.017306 0.008775 -0.008714
v 0.017304 0.008775 -0.008752
v 0.017306 0.008775 -0.008752
v 0.017308 0.008776 -0.008714
v 0.017306 0.008775 -0.008752
v 0.017308 0.008776 -0.008752
v 0.017306 0.008775 -0.008752
v 0.017309 0.008776 -0.008714
v 0.017308 0.008776 -0.008752
v 0.017309 0.008776 -0.008752
v 0.017308 0.008776 -0.008752
v 0.017309 0.008776 -0.008752
v 0.017310 0.008777 -0.008714
v 0.017309 0.008776 -0.008752
v 0.017310 0.008777 -0.008752
v 0.017312 0.008778 -0.008714
v 0.017310 0.008777 -0.008752
v 0.017312 0.008778 -0.008752
v 0.017310 0.008777 -0.008752
v 0.017312 0.008778 -0.008752
v 0.017313 0.008779 -0.008752
v 0.017312 0.008778 -0.008752
v 0.017314 0.008780 -0.008752
v 0.017317 0.008782 -0.008752
v 0.017316 0.008781 -0.008752
v 0.017318 0.008784 -0.008752
v 0.017319 0.008785 -0.008752
v 0.017320 0.008786 -0.008752
v 0.017321 0.008787 -0.008752
v 0.017322 0.008790 -0.008752
v 0.017321 0.008789 -0.008752
v 0.017323 0.008792 -0.008752
v 0.017324 0.008795 -0.008752
v 0.017323 0.008793 -0.008752
v 0.017324 0.008797 -0.008752
v 0.017325 0.008798 -0.008752
v 0.017325 0.008800 -0.008752
v 0.017325 0.008801 -0.008752
v 0.017325 0.008803 -0.008752
v 0.017325 0.008806 -0.008752
v 0.017325 0.008805 -0.008752
v 0.017325 0.008808 -0.008752
v 0.017324 0.008811 -0.008752
v 0.017324 0.008809 -0.008752
v 0.017323 0.008813 -0.008752
v 0.017323 0.008814 -0.008752
v 0.017322 0.008816 -0.008752
v 0.017321 0.008817 -0.008752
v 0.017320 0.008820 -0.008752
v 0.017321 0.008819 -0.008752
v 0.017319 0.008821 -0.008752
v 0.017317 0.008824 -0.008752
v 0.017318 0.008822 -0.008752
v 0.017316 0.008825 -0.008752
v 0.017314 0.008826 -0.008752
v 0.017313 0.008827 -0.008752
v 0.017312 0.008828 -0.008752
v 0.017309 0.008830 -0.008752
v 0.017310 0.008829 -0.008752
v 0.017308 0.008830 -0.008752
v 0.017306 0.008831 -0.008752
v 0.017303 0.008832 -0.008752
v 0.017304 0.008831 -0.008752
v 0.017298 0.008833 -0.008752
v 0.017300 0.008833 -0.008752
v 0.017295 0.008833 -0.008752
v 0.017296 0.008833 -0.008752
v 0.017290 0.008833 -0.008752
v 0.017292 0.008833 -0.008752
v 0.017290 0.008833 -0.008714
v 0.017290 0.008833 -0.008752
v 0.017301 0.008832 -0.008752
v 0.017296 0.008833 -0.008752
v 0.017298 0.008833 -0.008752
v 0.017293 0.008833 -0.008752
v 0.017293 0.008756 -0.008697
v 0.017295 0.008773 -0.008714
v 0.017293 0.008773 -0.008714
v 0.017293 0.008756 -0.008697
v 0.017293 0.008773 -0.008714
v 0.017290 0.008756 -0.008697
v 0.017297 0.008756 -0.008697
v 0.017296 0.008773 -0.008714
v 0.017295 0.008773 -0.008714
v 0.017298 0.008773 -0.008714
v 0.017296 0.008773 -0.008714
v 0.017300 0.008756 -0.008697
v 0.017300 0.008773 -0.008714
v 0.017300 0.008756 -0.008697
v 0.017304 0.008756 -0.008697
v 0.017301 0.008774 -0.008714
v 0.017304 0.008756 -0.008697
v 0.017307 0.008757 -0.008697
v 0.017303 0.008774 -0.008714
v 0.017307 0.008757 -0.008697
v 0.017310 0.008757 -0.008696
v 0.017304 0.008775 -0.008714
v 0.017310 0.008757 -0.008696
v 0.017306 0.008775 -0.008714
v 0.017310 0.008757 -0.008696
v 0.017313 0.008758 -0.008696
v 0.017306 0.008775 -0.008714
v 0.017313 0.008758 -0.008696
v 0.017317 0.008759 -0.008695
v 0.017308 0.008776 -0.008714
v 0.017317 0.008759 -0.008695
v 0.017309 0.008776 -0.008714
v 0.017308 0.008776 -0.008714
v 0.017320 0.008760 -0.008694
v 0.017310 0.008777 -0.008714
v 0.017309 0.008776 -0.008714
v 0.017323 0.008761 -0.008694
v 0.017312 0.008778 -0.008714
v 0.017310 0.008777 -0.008714
v 0.017326 0.008762 -0.008693
v 0.017312 0.008778 -0.008714
v 0.017323 0.008761 -0.008694
v 0.017314 0.008780 -0.008714
v 0.017313 0.008779 -0.008714
v 0.017326 0.008762 -0.008693
v 0.017314 0.008780 -0.008714
v 0.017326 0.008762 -0.008693
v 0.017329 0.008763 -0.008692
v 0.017314 0.008780 -0.008714
v 0.017329 0.008763 -0.008692
v 0.017316 0.008781 -0.008714
v 0.017329 0.008763 -0.008692
v 0.017332 0.008764 -0.008691
v 0.017316 0.008781 -0.008714
v 0.017317 0.008782 -0.008714
v 0.017335 0.008766 -0.008690
v 0.017318 0.008784 -0.008714
v 0.017332 0.008764 -0.008691
v 0.017317 0.008782 -0.008714
v 0.017316 0.008781 -0.008714
v 0.017335 0.008766 -0.008690
v 0.017338 0.008767 -0.008689
v 0.017318 0.008784 -0.008714
v 0.017338 0.008767 -0.008689
v 0.017340 0.008769 -0.008688
v 0.017319 0.008785 -0.008714
v 0.017340 0.008769 -0.008688
v 0.017341 0.008770 -0.008688
v 0.017320 0.008786 -0.008714
v 0.017342 0.008770 -0.008687
v 0.017320 0.008786 -0.008714
v 0.017320 0.008786 -0.008714
v 0.017343 0.008771 -0.008687
v 0.017343 0.008772 -0.008687
v 0.017321 0.008787 -0.008714
v 0.017343 0.008772 -0.008687
v 0.017345 0.008775 -0.008687
v 0.017321 0.008787 -0.008714
v 0.017345 0.008775 -0.008687
v 0.017321 0.008789 -0.008714
v 0.017321 0.008789 -0.008714
v 0.017347 0.008779 -0.008687
v 0.017322 0.008790 -0.008714
v 0.017347 0.008779 -0.008687
v 0.017349 0.008783 -0.008687
v 0.017323 0.008792 -0.008714
v 0.017349 0.008783 -0.008687
v 0.017350 0.008787 -0.008687
v 0.017323 0.008793 -0.008714
v 0.017350 0.008787 -0.008687
v 0.017324 0.008795 -0.008714
v 0.017323 0.008793 -0.008714
v 0.017351 0.008791 -0.008687
v 0.017324 0.008797 -0.008714
v 0.017324 0.008795 -0.008714
v 0.017352 0.008795 -0.008687
v 0.017325 0.008798 -0.008714
v 0.017351 0.008791 -0.008687
v 0.017325 0.008800 -0.008714
v 0.017325 0.008798 -0.008714
v 0.017352 0.008795 -0.008687
v 0.017325 0.008801 -0.008714
v 0.017325 0.008800 -0.008714
v 0.017352 0.008799 -0.008687
v 0.017325 0.008803 -0.008714
v 0.017325 0.008801 -0.008714
v 0.017352 0.008803 -0.008687
v 0.017325 0.008805 -0.008714
v 0.017325 0.008803 -0.008714
v 0.017352 0.008803 -0.008687
v 0.017325 0.008805 -0.008714
v 0.017352 0.008803 -0.008687
v 0.017352 0.008807 -0.008687
v 0.017325 0.008805 -0.008714
v 0.017352 0.008807 -0.008687
v 0.017325 0.008806 -0.008714
v 0.017325 0.008806 -0.008714
v 0.017352 0.008811 -0.008687
v 0.017325 0.008808 -0.008714
v 0.017352 0.008811 -0.008687
v 0.017351 0.008815 -0.008687
v 0.017325 0.008808 -0.008714
v 0.017351 0.008815 -0.008687
v 0.017324 0.008811 -0.008714
v 0.017324 0.008809 -0.008714
v 0.017350 0.008819 -0.008687
v 0.017323 0.008813 -0.008714
v 0.017324 0.008811 -0.008714
v 0.017349 0.008823 -0.008687
v 0.017323 0.008814 -0.008714
v 0.017323 0.008813 -0.008714
v 0.017347 0.008827 -0.008687
v 0.017322 0.008816 -0.008714
v 0.017323 0.008814 -0.008714
v 0.017321 0.008817 -0.008714
v 0.017322 0.008816 -0.008714
v 0.017347 0.008827 -0.008687
v 0.017321 0.008819 -0.008714
v 0.017321 0.008817 -0.008714
v 0.017345 0.008831 -0.008687
v 0.017320 0.008820 -0.008714
v 0.017321 0.008819 -0.008714
v 0.017343 0.008834 -0.008687
v 0.017342 0.008836 -0.008687
v 0.017320 0.008820 -0.008714
v 0.017343 0.008835 -0.008687
v 0.017335 0.008840 -0.008690
v 0.017318 0.008822 -0.008714
v 0.017338 0.008839 -0.008689
v 0.017319 0.008821 -0.008714
v 0.017340 0.008837 -0.008688
v 0.017338 0.008839 -0.008689
v 0.017317 0.008824 -0.008714
v 0.017318 0.008822 -0.008714
v 0.017335 0.008840 -0.008690
v 0.017316 0.008825 -0.008714
v 0.017317 0.008824 -0.008714
v 0.017332 0.008842 -0.008691
v 0.017314 0.008826 -0.008714
v 0.017316 0.008825 -0.008714
v 0.017329 0.008843 -0.008692
v 0.017313 0.008827 -0.008714
v 0.017314 0.008826 -0.008714
v 0.017326 0.008844 -0.008693
v 0.017341 0.008836 -0.008688
v 0.017340 0.008837 -0.008688
v 0.017320 0.008820 -0.008714
v 0.017290 0.008850 -0.008697
v 0.017290 0.008833 -0.008714
v 0.017292 0.008833 -0.008714
v 0.017290 0.008850 -0.008697
v 0.017292 0.008833 -0.008714
v 0.017293 0.008833 -0.008714
v 0.017290 0.008850 -0.008697
v 0.017293 0.008833 -0.008714
v 0.017293 0.008850 -0.008697
v 0.017293 0.008833 -0.008714
v 0.017295 0.008833 -0.008714
v 0.017293 0.008850 -0.008697
v 0.017295 0.008833 -0.008714
v 0.017297 0.008850 -0.008697
v 0.017293 0.008850 -0.008697
v 0.017296 0.008833 -0.008714
v 0.017297 0.008850 -0.008697
v 0.017295 0.008833 -0.008714
v 0.017300 0.008850 -0.008697
v 0.017297 0.008850 -0.008697
v 0.017296 0.008833 -0.008714
v 0.017300 0.008850 -0.008697
v 0.017296 0.008833 -0.008714
v 0.017298 0.008833 -0.008714
v 0.017300 0.008850 -0.008697
v 0.017298 0.008833 -0.008714
v 0.017300 0.008833 -0.008714
v 0.017300 0.008850 -0.008697
v 0.017300 0.008833 -0.008714
v 0.017303 0.008850 -0.008697
v 0.017300 0.008833 -0.008714
v 0.017301 0.008832 -0.008714
v 0.017303 0.008850 -0.008697
v 0.017301 0.008832 -0.008714
v 0.017307 0.008849 -0.008697
v 0.017303 0.008850 -0.008697
v 0.017303 0.008832 -0.008714
v 0.017307 0.008849 -0.008697
v 0.017301 0.008832 -0.008714
v 0.017310 0.008849 -0.008696
v 0.017307 0.008849 -0.008697
v 0.017303 0.008832 -0.008714
v 0.017310 0.008849 -0.008696
v 0.017303 0.008832 -0.008714
v 0.017304 0.008831 -0.008714
v 0.017310 0.008849 -0.008696
v 0.017304 0.008831 -0.008714
v 0.017306 0.008831 -0.008714
v 0.017310 0.008849 -0.008696
v 0.017306 0.008831 -0.008714
v 0.017313 0.008848 -0.008696
v 0.017306 0.008831 -0.008714
v 0.017308 0.008830 -0.008714
v 0.017313 0.008848 -0.008696
v 0.017308 0.008830 -0.008714
v 0.017317 0.008847 -0.008695
v 0.017313 0.008848 -0.008696
v 0.017309 0.008830 -0.008714
v 0.017317 0.008847 -0.008695
v 0.017308 0.008830 -0.008714
v 0.017320 0.008846 -0.008694
v 0.017317 0.008847 -0.008695
v 0.017309 0.008830 -0.008714
v 0.017320 0.008846 -0.008694
v 0.017309 0.008830 -0.008714
v 0.017310 0.008829 -0.008714
v 0.017320 0.008846 -0.008694
v 0.017310 0.008829 -0.008714
v 0.017323 0.008845 -0.008694
v 0.017310 0.008829 -0.008714
v 0.017312 0.008828 -0.008714
v 0.017323 0.008845 -0.008694
v 0.017312 0.008828 -0.008714
v 0.017326 0.008844 -0.008693
v 0.017323 0.008845 -0.008694
v 0.017313 0.008827 -0.008714
v 0.017326 0.008844 -0.008693
v 0.017312 0.008828 -0.008714
v 0.017314 0.008826 -0.008714
v 0.017329 0.008843 -0.008692
v 0.017326 0.008844 -0.008693
v 0.017316 0.008825 -0.008714
v 0.017332 0.008842 -0.008691
v 0.017329 0.008843 -0.008692
v 0.017317 0.008824 -0.008714
v 0.017335 0.008840 -0.008690
v 0.017332 0.008842 -0.008691
v 0.017318 0.008822 -0.008714
v 0.017319 0.008821 -0.008714
v 0.017338 0.008839 -0.008689
v 0.017319 0.008821 -0.008714
v 0.017320 0.008820 -0.008714
v 0.017340 0.008837 -0.008688
v 0.017320 0.008820 -0.008714
v 0.017343 0.008834 -0.008687
v 0.017320 0.008820 -0.008714
v 0.017345 0.008831 -0.008687
v 0.017343 0.008834 -0.008687
v 0.017321 0.008819 -0.008714
v 0.017347 0.008827 -0.008687
v 0.017345 0.008831 -0.008687
v 0.017321 0.008817 -0.008714
v 0.017323 0.008814 -0.008714
v 0.017349 0.008823 -0.008687
v 0.017347 0.008827 -0.008687
v 0.017323 0.008813 -0.008714
v 0.017350 0.008819 -0.008687
v 0.017349 0.008823 -0.008687
v 0.017324 0.008811 -0.008714
v 0.017351 0.008815 -0.008687
v 0.017350 0.008819 -0.008687
v 0.017324 0.008809 -0.008714
v 0.017325 0.008808 -0.008714
v 0.017351 0.008815 -0.008687
v 0.017352 0.008811 -0.008687
v 0.017325 0.008806 -0.008714
v 0.017352 0.008807 -0.008687
v 0.017325 0.008801 -0.008714
v 0.017352 0.008799 -0.008687
v 0.017352 0.008803 -0.008687
v 0.017325 0.008800 -0.008714
v 0.017352 0.008795 -0.008687
v 0.017352 0.008799 -0.008687
v 0.017325 0.008798 -0.008714
v 0.017324 0.008797 -0.008714
v 0.017351 0.008791 -0.008687
v 0.017351 0.008791 -0.008687
v 0.017324 0.008795 -0.008714
v 0.017350 0.008787 -0.008687
v 0.017349 0.008783 -0.008687
v 0.017323 0.008793 -0.008714
v 0.017323 0.008792 -0.008714
v 0.017347 0.008779 -0.008687
v 0.017323 0.008792 -0.008714
v 0.017322 0.008790 -0.008714
v 0.017345 0.008775 -0.008687
v 0.017347 0.008779 -0.008687
v 0.017321 0.008789 -0.008714
v 0.017320 0.008786 -0.008714
v 0.017343 0.008772 -0.008687
v 0.017321 0.008787 -0.008714
v 0.017320 0.008786 -0.008714
v 0.017340 0.008769 -0.008688
v 0.017320 0.008786 -0.008714
v 0.017319 0.008785 -0.008714
v 0.017338 0.008767 -0.008689
v 0.017319 0.008785 -0.008714
v 0.017318 0.008784 -0.008714
v 0.017332 0.008764 -0.008691
v 0.017335 0.008766 -0.008690
v 0.017317 0.008782 -0.008714
v 0.017326 0.008762 -0.008693
v 0.017313 0.008779 -0.008714
v 0.017312 0.008778 -0.008714
v 0.017320 0.008760 -0.008694
v 0.017323 0.008761 -0.008694
v 0.017310 0.008777 -0.008714
v 0.017317 0.008759 -0.008695
v 0.017320 0.008760 -0.008694
v 0.017309 0.008776 -0.008714
v 0.017310 0.008757 -0.008696
v 0.017304 0.008775 -0.008714
v 0.017303 0.008774 -0.008714
v 0.017300 0.008773 -0.008714
v 0.017304 0.008756 -0.008697
v 0.017301 0.008774 -0.008714
v 0.017298 0.008773 -0.008714
v 0.017300 0.008756 -0.008697
v 0.017300 0.008773 -0.008714
v 0.017296 0.008773 -0.008714
v 0.017297 0.008756 -0.008697
v 0.017300 0.008756 -0.008697
v 0.017293 0.008756 -0.008697
v 0.017297 0.008756 -0.008697
v 0.017295 0.008773 -0.008714
v 0.017292 0.008773 -0.008714
v 0.017290 0.008773 -0.008714
v 0.017290 0.008756 -0.008697
v 0.017307 0.008757 -0.008697
v 0.017303 0.008774 -0.008714
v 0.017301 0.008774 -0.008714
v 0.017308 0.008776 -0.008714
v 0.017306 0.008775 -0.008714
v 0.017313 0.008758 -0.008696
v 0.017293 0.008773 -0.008714
v 0.017292 0.008773 -0.008714
v 0.017290 0.008756 -0.008697
v 0.017375 0.008835 -0.008687
v 0.017375 0.008835 -0.008687
v 0.017375 0.008836 -0.008687
v 0.017375 0.008836 -0.008687
v 0.017343 0.008835 -0.008687
v 0.017343 0.008835 -0.008687
v 0.017375 0.008836 -0.008687
v 0.017375 0.008836 -0.008687
v 0.017341 0.008836 -0.008688
v 0.017341 0.008836 -0.008688
v 0.017342 0.008836 -0.008687
v 0.017342 0.008836 -0.008687
v 0.017343 0.008835 -0.008687
v 0.017375 0.008836 -0.008687
v 0.017342 0.008836 -0.008687
v 0.017375 0.008836 -0.008687
v 0.017342 0.008770 -0.008687
v 0.017341 0.008770 -0.008688
v 0.017341 0.008770 -0.008688
v 0.017342 0.008770 -0.008687
v 0.017375 0.008770 -0.008687
v 0.017375 0.008771 -0.008687
v 0.017375 0.008771 -0.008687
v 0.017375 0.008770 -0.008687
v 0.017375 0.008770 -0.008687
v 0.017343 0.008771 -0.008687
v 0.017375 0.008770 -0.008687
v 0.017375 0.008770 -0.008687
v 0.017343 0.008771 -0.008687
v 0.017375 0.008770 -0.008687
v 0.017343 0.008771 -0.008687
v 0.017342 0.008770 -0.008687
vn -1.0000 0.0001 -0.0000
vn -1.0000 -0.0001 -0.0000
vn -1.0000 -0.0000 -0.0000
vn -0.0000 -0.7940 0.6079
vn -0.0001 -0.7940 0.6079
vn -0.0000 -0.7816 0.6238
vn -0.0000 -0.7739 0.6333
vn -0.0000 -0.7688 0.6395
vn -0.0000 -0.7815 0.6239
vn -0.0000 -0.7530 0.6580
vn -0.0000 -0.7558 0.6548
vn -0.0000 -0.7424 0.6699
vn -0.0000 -0.7557 0.6549
vn 0.0001 -0.7424 0.6700
vn -0.0000 -0.7313 0.6820
vn -0.0000 -0.7287 0.6848
vn -0.0000 -0.7147 0.6994
vn -0.0000 -0.7314 0.6820
vn -0.0000 -0.7423 0.6700
vn -0.0000 -0.7313 0.6821
vn -0.0000 -0.7089 0.7053
vn -0.0000 -0.7004 0.7137
vn -0.0000 -0.6857 0.7279
vn -0.0000 -0.6859 0.7277
vn -0.0000 -0.6710 0.7414
vn -0.0000 -0.6618 0.7497
vn -0.0000 -0.6559 0.7548
vn -0.0000 -0.6372 0.7707
vn -0.0000 -0.6124 0.7905
vn -0.0000 -0.6119 0.7910
vn -0.0000 -0.6560 0.7548
vn -0.0000 -0.6124 0.7906
vn -0.0000 -0.6406 0.7679
vn -0.0000 -0.6371 0.7708
vn -0.0000 -0.6559 0.7549
vn -0.0000 -0.6118 0.7910
vn -0.0000 -0.6106 0.7919
vn -0.0001 -0.6107 0.7919
vn -0.0001 -0.6090 0.7932
vn -0.0000 -0.6405 0.7679
vn -0.0001 -0.6249 0.7807
vn -0.0000 -0.6068 0.7948
vn -0.0000 -0.6010 0.7992
vn -0.0000 -0.6041 0.7969
vn -0.0000 -0.5599 0.8286
vn -0.0000 -0.5665 0.8240
vn 0.0002 -0.5764 0.8172
vn 0.0002 -0.5727 0.8198
vn -0.0000 -0.5785 0.8157
vn -0.0002 -0.5928 0.8053
vn -0.0000 -0.5840 0.8118
vn -0.0000 -0.5889 0.8082
vn -0.0000 -0.6091 0.7931
vn -0.0000 -0.5934 0.8049
vn -0.0000 -0.5974 0.8019
vn -0.0000 -0.6090 0.7932
vn -0.0000 -0.0000 1.0000
vn -0.0001 -0.0000 1.0000
vn 0.0001 -0.0000 1.0000
vn -0.0000 0.6371 0.7707
vn -0.0000 0.6124 0.7905
vn -0.0000 0.6124 0.7906
vn -0.0000 0.6118 0.7910
vn -0.0000 0.6107 0.7919
vn -0.0000 0.6090 0.7932
vn -0.0000 0.6859 0.7277
vn 0.0001 0.7004 0.7138
vn -0.0000 0.6857 0.7279
vn -0.0000 0.7286 0.6849
vn -0.0003 0.7313 0.6820
vn -0.0000 0.7148 0.6994
vn 0.0001 0.7424 0.6700
vn 0.0002 0.7530 0.6580
vn -0.0000 0.6119 0.7909
vn -0.0000 0.7940 0.6079
vn 0.0001 0.7816 0.6238
vn -0.0003 0.7739 0.6333
vn -0.0000 0.7687 0.6396
vn -0.0000 0.7558 0.6548
vn 0.0002 0.7089 0.7053
vn 0.0001 0.6711 0.7414
vn -0.0003 0.6617 0.7497
vn -0.0000 0.6559 0.7549
vn -0.0000 0.6068 0.7948
vn -0.0001 0.6405 0.7679
vn -0.0000 0.6041 0.7969
vn -0.0000 0.6249 0.7807
vn -0.0000 0.6010 0.7992
vn -0.0000 0.5974 0.8019
vn -0.0000 0.6091 0.7931
vn -0.0000 0.5888 0.8083
vn -0.0000 0.5839 0.8118
vn -0.0001 0.5928 0.8053
vn -0.0000 0.5599 0.8286
vn 0.0002 0.5764 0.8172
vn -0.0000 0.5598 0.8286
vn -0.0000 0.5665 0.8241
vn -0.0001 0.5726 0.8198
vn -0.0000 0.5785 0.8157
vn -0.0000 0.5933 0.8050
vn -1.0000 0.0002 -0.0000
vn 1.0000 -0.0000 -0.0000
vn -0.0000 -0.0000 -1.0000
vn -0.0000 -1.0000 -0.0000
vn -0.0000 1.0000 -0.0000
vn -0.0001 -0.0000 -1.0000
vn 0.0001 -0.0000 -1.0000
vn 0.1129 -0.9936 -0.0000
vn 0.0588 -0.9983 -0.0000
vn 0.0587 -0.9983 -0.0000
vn 0.0045 -1.0000 -0.0000
vn -0.0498 -0.9988 -0.0000
vn -0.1039 -0.9946 -0.0000
vn -0.1578 -0.9875 -0.0000
vn -0.1040 -0.9946 -0.0000
vn -0.2112 -0.9774 -0.0000
vn -0.2639 -0.9646 -0.0000
vn -0.2111 -0.9775 -0.0000
vn -0.3159 -0.9488 -0.0000
vn -0.2640 -0.9645 -0.0000
vn -0.3160 -0.9488 -0.0000
vn -0.3670 -0.9302 -0.0000
vn -0.4170 -0.9089 -0.0000
vn -0.4657 -0.8850 -0.0000
vn -0.4656 -0.8850 -0.0000
vn -0.4658 -0.8849 -0.0000
vn -0.5130 -0.8584 -0.0000
vn -0.5130 -0.8584 -0.0001
vn -0.5131 -0.8584 -0.0000
vn -0.5588 -0.8293 -0.0000
vn -0.5131 -0.8583 -0.0000
vn -0.5590 -0.8292 -0.0000
vn -0.6031 -0.7977 -0.0000
vn -0.6031 -0.7976 -0.0000
vn -0.5589 -0.8292 -0.0000
vn -0.6455 -0.7638 -0.0000
vn -0.6860 -0.7276 -0.0000
vn -0.7245 -0.6893 -0.0000
vn -0.7609 -0.6489 -0.0000
vn -0.7949 -0.6067 -0.0000
vn -0.7950 -0.6066 -0.0000
vn -0.8267 -0.5627 -0.0000
vn -0.8267 -0.5626 -0.0000
vn -0.8560 -0.5170 -0.0000
vn -0.8560 -0.5169 -0.0000
vn -0.8561 -0.5169 -0.0000
vn -0.8828 -0.4697 -0.0000
vn -0.8829 -0.4697 0.0001
vn -0.9070 -0.4211 -0.0000
vn -0.8829 -0.4696 -0.0000
vn -0.9285 -0.3712 -0.0000
vn -0.9286 -0.3712 -0.0000
vn -0.9071 -0.4210 -0.0000
vn -0.9474 -0.3202 -0.0000
vn -0.9286 -0.3711 -0.0000
vn -0.9633 -0.2684 -0.0000
vn -0.9473 -0.3202 -0.0000
vn -0.9633 -0.2683 -0.0000
vn -0.9765 -0.2156 -0.0000
vn -0.9634 -0.2682 -0.0000
vn -0.9765 -0.2155 -0.0000
vn -0.9867 -0.1623 -0.0000
vn -0.9868 -0.1622 -0.0000
vn -0.9941 -0.1085 -0.0000
vn -0.9941 -0.1084 -0.0000
vn -0.9985 -0.0543 -0.0000
vn -0.9985 0.0543 -0.0000
vn -0.9941 0.1084 -0.0000
vn -0.9868 0.1622 -0.0000
vn -0.9941 0.1085 -0.0000
vn -0.9765 0.2155 -0.0000
vn -0.9867 0.1623 -0.0000
vn -0.9634 0.2682 -0.0000
vn -0.9765 0.2156 -0.0000
vn -0.9474 0.3202 -0.0000
vn -0.9633 0.2684 -0.0000
vn -0.9473 0.3202 -0.0000
vn -0.9286 0.3711 -0.0000
vn -0.9285 0.3712 -0.0000
vn -0.9286 0.3712 -0.0000
vn -0.9071 0.4210 -0.0000
vn -0.9070 0.4211 -0.0000
vn -0.8829 0.4696 -0.0000
vn -0.8829 0.4697 -0.0001
vn -0.8828 0.4697 -0.0000
vn -0.8561 0.5169 -0.0000
vn -0.8560 0.5170 -0.0000
vn -0.8267 0.5627 -0.0000
vn -0.8267 0.5626 -0.0000
vn -0.8560 0.5169 -0.0000
vn -0.7950 0.6066 -0.0000
vn -0.7609 0.6489 -0.0000
vn -0.7949 0.6067 -0.0000
vn -0.7245 0.6893 -0.0000
vn -0.6860 0.7276 -0.0000
vn -0.6455 0.7638 -0.0000
vn -0.6031 0.7977 -0.0000
vn 0.1129 0.9936 -0.0000
vn 0.0588 0.9983 -0.0000
vn 0.1666 0.9860 -0.0000
vn 0.0045 1.0000 -0.0000
vn 0.0587 0.9983 -0.0000
vn -0.0498 0.9988 -0.0000
vn -0.1039 0.9946 -0.0000
vn -0.1578 0.9875 -0.0000
vn -0.1040 0.9946 -0.0000
vn -0.2112 0.9774 -0.0000
vn -0.1577 0.9875 -0.0000
vn -0.2111 0.9775 -0.0000
vn -0.2639 0.9646 -0.0000
vn -0.3159 0.9488 -0.0000
vn -0.2640 0.9645 -0.0000
vn -0.3160 0.9488 -0.0000
vn -0.3670 0.9302 -0.0000
vn -0.3669 0.9303 -0.0000
vn -0.4170 0.9089 -0.0000
vn -0.4169 0.9089 -0.0000
vn -0.4657 0.8850 -0.0000
vn -0.4656 0.8850 -0.0000
vn -0.4658 0.8849 -0.0000
vn -0.5130 0.8584 -0.0000
vn -0.5131 0.8584 -0.0000
vn -0.5588 0.8293 -0.0000
vn -0.5131 0.8583 -0.0000
vn -0.5590 0.8292 -0.0000
vn -0.5589 0.8292 -0.0000
vn -0.6455 0.7637 -0.0000
vn -0.9633 0.2683 -0.0000
vn -0.7245 -0.6892 -0.0000
vn -0.4657 -0.8849 -0.0000
vn -0.4169 -0.9089 -0.0000
vn -0.3669 -0.9303 -0.0000
vn 0.1666 -0.9860 -0.0000
vn -0.1577 -0.9875 -0.0000
vn 0.0238 0.7067 0.7071
vn 0.0032 0.7071 0.7071
vn 0.0415 0.7059 0.7071
vn 0.0239 0.7067 0.7071
vn 0.0416 0.7059 0.7071
vn 0.0748 0.7031 0.7071
vn -0.0269 0.7066 0.7071
vn -0.0352 0.7065 0.7069
vn -0.0735 0.7033 0.7071
vn -0.0352 0.7062 0.7071
vn -0.0773 0.7029 0.7071
vn -0.1116 0.6982 0.7071
vn -0.0773 0.7027 0.7073
vn -0.1269 0.6956 0.7071
vn -0.1493 0.6912 0.7071
vn -0.1752 0.6851 0.7071
vn -0.1866 0.6820 0.7071
vn -0.2220 0.6714 0.7071
vn -0.2233 0.6709 0.7071
vn -0.2595 0.6578 0.7071
vn -0.2669 0.6548 0.7071
vn -0.3098 0.6356 0.7071
vn -0.2948 0.6427 0.7071
vn -0.3098 0.6357 0.7071
vn -0.3293 0.6258 0.7071
vn -0.3504 0.6142 0.7071
vn -0.3628 0.6070 0.7071
vn -0.3886 0.5908 0.7071
vn -0.3956 0.5871 0.7062
vn -0.4244 0.5656 0.7071
vn -0.3952 0.5864 0.7071
vn -0.4564 0.5401 0.7071
vn -0.4264 0.5640 0.7071
vn -0.4243 0.5656 0.7071
vn -0.4576 0.5391 0.7071
vn -0.4851 0.5145 0.7071
vn -0.4883 0.5114 0.7071
vn -0.5123 0.4874 0.7071
vn -0.5165 0.4829 0.7071
vn -0.5380 0.4588 0.7071
vn -0.5424 0.4537 0.7071
vn -0.5380 0.4589 0.7071
vn -0.5658 0.4241 0.7071
vn -0.5621 0.4290 0.7071
vn -0.5729 0.4145 0.7071
vn -0.5846 0.3978 0.7071
vn -0.5799 0.4046 0.7071
vn -0.5846 0.3977 0.7071
vn -0.5871 0.3942 0.7071
vn -0.5942 0.3833 0.7071
vn -0.6053 0.3655 0.7071
vn -0.6201 0.3399 0.7071
vn -0.6201 0.3398 0.7071
vn -0.6244 0.3321 0.7070
vn -0.6243 0.3321 0.7071
vn -0.6428 0.2946 0.7071
vn -0.6414 0.2978 0.7071
vn -0.6622 0.2479 0.7071
vn -0.6566 0.2624 0.7071
vn -0.6623 0.2478 0.7071
vn -0.6783 0.1998 0.7071
vn -0.6699 0.2264 0.7071
vn -0.6812 0.1897 0.7071
vn -0.6908 0.1508 0.7071
vn -0.6905 0.1524 0.7071
vn -0.6812 0.1896 0.7071
vn -0.6999 0.1010 0.7071
vn -0.6977 0.1148 0.7071
vn -0.6909 0.1507 0.7071
vn -0.7029 0.0767 0.7071
vn -0.6977 0.1147 0.7071
vn -0.6999 0.1009 0.7071
vn -0.7061 0.0384 0.7071
vn -0.7029 0.0766 0.7071
vn -0.7053 0.0506 0.7071
vn -0.7071 -0.0000 0.7071
vn -0.7061 -0.0384 0.7071
vn -0.7070 -0.0000 0.7072
vn -0.7073 -0.0000 0.7069
vn -0.7053 -0.0506 0.7071
vn -0.7030 -0.0766 0.7071
vn -0.7029 -0.0766 0.7071
vn -0.6999 -0.1009 0.7071
vn -0.6978 -0.1147 0.7071
vn -0.6999 -0.1010 0.7071
vn -0.6909 -0.1507 0.7071
vn -0.6977 -0.1148 0.7071
vn -0.6908 -0.1508 0.7071
vn -0.6812 -0.1896 0.7071
vn -0.6905 -0.1525 0.7071
vn -0.6783 -0.1998 0.7071
vn -0.6699 -0.2264 0.7071
vn -0.6812 -0.1897 0.7071
vn -0.6623 -0.2477 0.7071
vn -0.6566 -0.2624 0.7071
vn -0.6699 -0.2263 0.7071
vn -0.6428 -0.2946 0.7071
vn -0.6416 -0.2977 0.7069
vn -0.6243 -0.3321 0.7071
vn -0.6414 -0.2977 0.7071
vn -0.6054 -0.3655 0.7070
vn -0.6201 -0.3398 0.7071
vn -0.5846 -0.3978 0.7071
vn -0.6053 -0.3655 0.7071
vn -0.5942 -0.3834 0.7071
vn -0.5799 -0.4046 0.7071
vn -0.5870 -0.3942 0.7071
vn -0.5166 -0.4828 0.7071
vn -0.5380 -0.4588 0.7071
vn -0.5424 -0.4537 0.7071
vn -0.5621 -0.4290 0.7071
vn -0.5658 -0.4241 0.7071
vn -0.5123 -0.4874 0.7071
vn -0.5166 -0.4829 0.7071
vn -0.4851 -0.5145 0.7071
vn -0.4883 -0.5114 0.7071
vn -0.4564 -0.5401 0.7071
vn -0.4576 -0.5391 0.7071
vn -0.4258 -0.5633 0.7081
vn -0.4242 -0.5657 0.7071
vn -0.5729 -0.4145 0.7071
vn 0.0749 -0.7031 0.7071
vn 0.1179 -0.6972 0.7071
vn 0.0798 -0.7026 0.7071
vn 0.0748 -0.7031 0.7071
vn 0.0799 -0.7027 0.7070
vn 0.0415 -0.7059 0.7071
vn 0.0416 -0.7059 0.7071
vn 0.0242 -0.7069 0.7069
vn 0.0032 -0.7071 0.7071
vn 0.0242 -0.7067 0.7071
vn -0.0265 -0.7069 0.7069
vn -0.0352 -0.7062 0.7071
vn -0.0265 -0.7066 0.7071
vn -0.0768 -0.7029 0.7071
vn -0.0735 -0.7033 0.7071
vn -0.1116 -0.6982 0.7071
vn -0.1263 -0.6957 0.7071
vn -0.1493 -0.6912 0.7071
vn -0.1494 -0.6912 0.7071
vn -0.1746 -0.6852 0.7071
vn -0.1866 -0.6820 0.7071
vn -0.1492 -0.6912 0.7071
vn -0.2214 -0.6716 0.7071
vn -0.1867 -0.6820 0.7071
vn -0.2214 -0.6715 0.7071
vn -0.2234 -0.6709 0.7071
vn -0.2595 -0.6578 0.7071
vn -0.2664 -0.6550 0.7071
vn -0.2948 -0.6427 0.7071
vn -0.2665 -0.6550 0.7071
vn -0.3094 -0.6358 0.7071
vn -0.3293 -0.6258 0.7071
vn -0.3502 -0.6143 0.7071
vn -0.3293 -0.6257 0.7071
vn -0.3501 -0.6144 0.7071
vn -0.3628 -0.6070 0.7071
vn -0.3501 -0.6143 0.7071
vn -0.3627 -0.6070 0.7071
vn -0.3884 -0.5909 0.7071
vn -0.3952 -0.5864 0.7071
vn -0.4243 -0.5657 0.7071
vn -0.4264 -0.5641 0.7071
vn -0.5381 -0.4590 0.7069
vn -0.5622 -0.4290 0.7070
vn -0.5846 -0.3977 0.7071
vn -0.5728 -0.4145 0.7071
vn -0.5942 -0.3833 0.7071
vn -0.6201 -0.3399 0.7071
vn -0.6622 -0.2479 0.7071
vn -0.6623 -0.2478 0.7071
vn -0.6905 -0.1524 0.7071
vn -0.6908 -0.1509 0.7071
vn -0.7030 0.0766 0.7071
vn -0.6566 0.2623 0.7071
vn -0.6568 0.2625 0.7069
vn -0.6414 0.2977 0.7071
vn -0.5942 0.3834 0.7071
vn -0.5870 0.3942 0.7071
vn -0.5846 0.3979 0.7071
vn -0.5847 0.3979 0.7070
vn -0.5622 0.4291 0.7070
vn -0.3099 0.6356 0.7071
vn -0.2220 0.6713 0.7071
vn -0.2235 0.6709 0.7071
vn -0.1867 0.6820 0.7071
vn -0.0269 0.7067 0.7070
vn 0.0239 0.7069 0.7069
vn -0.0270 0.7066 0.7071
vn 0.0798 0.7026 0.7071
vn 0.1179 0.6972 0.7071
vn 0.0749 0.7031 0.7071
vn -0.1492 0.6912 0.7071
vn 0.0415 0.7060 0.7070
vn -0.0000 0.1480 0.9890
vn -0.0000 0.2928 0.9562
vn -0.0000 0.2927 0.9562
vn -0.0000 0.1690 0.9856
vn -0.0000 0.4310 0.9024
vn -0.0000 0.4459 0.8951
vn -0.0001 0.4459 0.8951
vn -0.0000 0.3166 0.9486
vn -0.0000 0.3164 0.9486
vn -0.0000 0.3165 0.9486
vn -0.0000 0.4311 0.9023
vn -0.0000 -0.3165 0.9486
vn -0.0000 -0.4459 0.8951
vn -0.0000 -0.3164 0.9486
vn -0.0000 -0.5599 0.8285
vn -0.0000 -0.4311 0.9023
vn -0.0000 -0.1480 0.9890
vn -0.0000 -0.2927 0.9562
vn -0.0000 -0.1687 0.9857
vn -0.0000 -0.2928 0.9562
vn -0.0000 -0.1689 0.9856
vn -0.0000 -0.4310 0.9024
vn -0.0000 -0.3163 0.9487
s 1
usemtl Diffuse_51_51_51_100.029
f 1//1 2//2 3//3
f 1//1 3//3 4//3
f 3//3 5//3 4//3
f 5//3 6//2 4//3
f 4//3 7//2 8//3
f 4//3 8//3 9//3
f 8//3 10//3 9//3
f 9//3 10//3 11//3
f 7//2 4//3 6//2
f 9//3 11//3 12//2
f 13//4 14//5 15//6
f 16//7 17//4 15//6
f 18//8 19//7 15//9
f 18//8 20//10 21//7
f 22//10 18//8 23//11
f 24//12 25//10 23//13
f 24//14 26//15 27//10
f 28//16 29//17 30//18
f 24//19 28//16 31//20
f 32//15 29//17 33//21
f 34//21 29//17 35//22
f 36//23 37//21 35//22
f 38//24 39//23 35//22
f 38//24 40//25 41//23
f 42//23 40//25 43//26
f 44//26 40//25 45//27
f 46//28 47//29 48//30
f 49//28 50//26 45//31
f 47//29 51//28 52//32
f 53//33 54//34 45//35
f 55//36 56//28 57//37
f 57//38 58//34 59//39
f 53//40 60//41 61//42
f 60//41 62//43 63//44
f 64//45 65//46 66//47
f 66//47 67//45 64//45
f 68//48 66//47 65//46
f 68//48 69//49 66//47
f 66//47 69//49 70//50
f 70//50 69//49 71//51
f 72//52 70//50 71//51
f 72//52 73//53 70//50
f 72//52 74//54 73//53
f 73//53 74//54 75//55
f 62//43 73//53 75//55
f 62//43 60//41 73//53
f 63//44 61//42 60//41
f 61//42 59//56 53//40
f 53//40 59//56 76//28
f 77//28 55//36 52//32
f 78//57 79//57 80//57
f 81//57 82//57 80//57
f 83//57 81//57 80//57
f 84//58 83//57 80//57
f 85//58 84//58 80//57
f 86//57 85//58 80//57
f 87//57 86//57 80//57
f 88//57 87//57 80//57
f 79//57 88//57 80//57
f 89//57 79//57 78//57
f 78//57 90//59 89//57
f 78//57 91//59 90//59
f 78//57 92//57 91//59
f 78//57 93//58 92//57
f 94//57 78//57 95//57
f 94//57 96//57 78//57
f 78//57 96//57 93//58
f 97//60 98//61 99//62
f 100//63 97//60 99//62
f 100//63 101//64 97//60
f 97//60 101//64 102//65
f 103//66 104//67 105//68
f 106//69 107//70 108//71
f 109//72 110//73 107//70
f 111//74 98//61 97//60
f 112//75 113//76 114//75
f 112//75 115//77 113//76
f 113//76 115//77 116//78
f 116//78 115//77 110//73
f 117//79 116//78 110//73
f 109//72 117//79 110//73
f 107//70 118//80 108//71
f 108//71 118//80 104//67
f 104//67 118//80 105//68
f 119//81 105//68 120//82
f 120//82 97//60 121//83
f 102//65 122//84 123//85
f 122//84 124//86 125//87
f 126//88 127//89 128//90
f 129//91 130//92 131//93
f 132//94 133//95 134//96
f 134//96 133//95 135//97
f 135//97 133//95 136//98
f 136//98 133//95 137//99
f 137//99 133//95 131//93
f 130//92 137//99 131//93
f 129//91 131//93 128//90
f 138//100 129//91 128//90
f 126//88 125//87 124//86
f 126//88 128//90 125//87
f 125//87 123//85 122//84
f 123//85 97//60 102//65
f 123//85 121//83 97//60
f 121//83 119//81 120//82
f 105//68 119//81 103//66
f 109//72 107//70 106//69
f 138//100 128//90 127//89
f 139//3 140//3 141//3
f 139//1 142//1 143//1
f 139//3 144//3 145//3
f 139//3 146//3 147//3
f 141//2 148//2 149//2
f 141//101 150//101 151//101
f 141//2 152//2 153//2
f 154//3 155//3 156//3
f 141//1 157//1 158//1
f 155//3 141//3 159//3
f 160//102 161//102 162//102
f 163//102 164//102 165//102
s 0
f 166//102 167//102 168//102
f 167//102 169//102 170//102
f 169//103 171//102 172//102
s 1
f 173//102 174//102 175//102
f 176//102 177//102 178//102
f 179//102 180//102 181//102
f 182//102 183//102 184//102
f 185//102 186//102 187//102
f 188//102 189//102 190//102
f 191//102 192//102 193//102
f 194//102 195//102 196//102
f 197//102 198//102 199//102
f 200//102 201//102 202//102
f 203//102 204//102 205//102
f 206//102 207//102 208//102
f 209//102 210//102 211//102
f 212//102 213//102 214//102
f 215//102 216//102 217//102
f 218//102 219//102 220//102
f 216//102 221//102 222//102
f 223//102 224//102 216//102
f 225//102 226//102 227//102
f 228//102 229//102 227//102
f 230//102 231//102 227//102
f 232//102 233//102 227//102
f 234//102 235//102 227//102
f 236//102 237//102 227//102
f 238//102 239//102 227//102
f 227//102 240//102 216//102
f 241//102 242//102 216//102
f 243//102 244//102 216//102
f 245//102 246//102 216//102
f 247//102 227//102 248//102
f 249//102 250//102 251//102
f 252//102 253//102 216//102
f 254//102 255//102 256//102
s 0
f 257//102 258//102 259//103
s 1
f 260//102 261//102 259//102
s 0
f 262//102 263//102 257//102
s 1
f 264//102 265//102 266//102
f 267//104 268//104 269//104
f 270//104 271//104 272//104
f 273//105 274//105 275//105
f 276//105 277//105 278//105
f 279//103 280//103 281//103
f 282//106 283//106 284//106
f 285//103 286//103 287//103
f 288//103 289//103 285//103
f 290//103 291//103 289//103
f 292//103 293//103 291//103
f 294//103 295//103 293//103
f 296//103 297//103 295//103
f 298//103 299//103 297//103
f 300//103 301//103 299//103
f 302//106 303//106 301//106
f 304//103 305//103 303//103
f 306//103 307//103 305//103
f 308//103 309//103 307//103
f 310//103 311//103 309//103
f 309//103 312//103 313//103
f 313//103 314//103 315//103
f 315//103 316//103 317//103
f 317//103 318//103 319//103
f 319//106 320//106 321//106
f 321//103 322//103 323//103
f 323//107 324//107 325//107
f 325//107 326//107 327//107
f 327//103 328//103 329//103
f 329//103 330//103 331//103
f 332//103 333//103 334//103
f 335//107 333//107 336//107
f 337//103 332//103 338//103
f 339//103 337//103 340//103
f 341//103 339//103 342//103
f 343//103 341//103 344//103
f 345//103 343//103 346//103
f 347//103 345//103 348//103
f 284//103 347//103 349//103
f 350//103 351//103 284//103
f 352//106 353//106 283//106
f 354//106 355//106 353//106
f 356//106 357//106 355//106
f 358//103 359//103 357//103
f 360//106 361//106 359//106
f 362//103 363//103 364//103
f 362//103 365//103 366//103
f 364//103 367//103 368//103
f 368//103 369//103 370//103
f 370//103 371//103 372//103
f 372//103 373//103 374//103
f 374//106 375//106 376//106
f 376//103 377//103 378//103
f 378//103 379//103 380//103
f 380//103 381//103 382//103
f 382//107 383//107 384//107
f 384//107 385//107 386//107
f 386//103 387//103 388//103
f 388//103 389//103 390//103
f 391//103 281//103 388//103
f 392//103 280//103 393//103
f 394//103 392//103 395//103
f 396//103 394//103 397//103
f 398//103 399//103 396//103
f 400//103 401//103 399//103
f 402//103 403//103 401//103
f 404//103 405//103 403//103
f 406//103 407//103 405//103
f 331//107 408//107 336//107
f 409//103 410//103 407//103
f 411//103 365//103 361//103
f 410//103 412//103 413//103
f 414//108 415//109 416//108
f 417//110 418//111 419//110
f 420//111 421//111 419//110
f 422//112 423//112 421//111
f 424//113 425//113 423//112
f 426//114 427//114 425//115
f 428//116 427//114 429//114
f 430//117 431//118 432//118
f 433//117 431//118 434//117
f 435//119 433//120 436//119
f 435//121 437//121 438//122
f 439//122 440//122 441//123
f 442//123 443//123 444//124
f 442//123 445//125 446//125
f 446//126 447//127 448//128
f 449//129 450//130 448//131
f 451//132 452//133 453//132
f 454//133 455//134 453//135
f 456//136 457//136 455//133
f 458//137 457//136 459//136
f 460//138 461//137 462//137
f 463//138 461//137 464//138
f 465//139 463//138 466//139
f 465//139 467//139 468//140
f 469//141 470//141 471//142
f 469//141 472//143 473//142
f 473//143 474//144 475//145
f 476//146 477//147 475//146
f 478//148 479//149 480//150
f 481//149 482//149 480//150
f 483//151 484//152 482//153
f 485//154 484//155 486//155
f 487//156 488//157 489//157
f 490//158 488//157 491//156
f 492//159 490//160 493//159
f 492//161 494//161 495//162
f 496//163 497//163 498//164
f 496//163 499//164 500//164
f 500//165 501//166 502//166
f 503//166 504//3 502//166
f 505//3 506//167 507//3
f 508//167 509//167 507//3
f 510//168 511//168 509//167
f 512//169 511//170 513//170
f 514//171 515//172 516//172
f 517//173 518//174 519//174
f 520//173 518//174 521//173
f 522//175 520//176 523//177
f 522//175 524//175 525//178
f 526//179 527//180 528//181
f 526//179 529//181 530//181
f 530//182 531//183 532//184
f 533//185 534//186 532//185
f 535//187 536//188 537//187
f 538//188 539//189 537//190
f 540//191 541//191 539//188
f 542//192 541//193 543//193
f 544//194 545//192 546//192
f 547//194 545//192 548//194
f 549//195 547//194 550//195
f 549//195 551//195 552//196
f 553//196 554//196 555//197
f 553//196 556//197 557//197
f 558//198 559//199 560//198
f 561//200 562//200 558//198
f 563//200 558//198 564//198
f 559//199 565//199 566//198
f 567//201 568//202 559//202
f 569//201 570//202 567//201
f 571//201 567//201 572//203
f 573//201 572//203 574//203
f 572//203 575//204 576//203
f 575//204 577//204 578//203
f 579//205 580//206 575//206
f 581//205 582//206 579//205
f 583//205 579//205 584//207
f 585//208 584//207 586//207
f 584//209 587//210 588//209
f 587//210 589//210 590//209
f 591//211 592//212 587//212
f 593//211 594//212 591//211
f 595//213 591//213 596//214
f 597//213 596//215 598//215
f 596//214 599//216 600//214
f 599//217 601//217 602//214
f 603//218 604//216 599//216
f 605//219 606//216 603//219
f 607//220 603//220 608//221
f 609//220 608//221 610//221
f 608//222 611//223 612//224
f 611//223 613//223 614//222
f 557//197 615//225 611//226
f 616//197 617//225 557//197
f 549//195 618//227 553//196
f 547//194 619//194 620//195
f 545//192 541//193 621//192
f 622//191 539//189 623//188
f 624//186 537//186 532//185
f 625//182 626//183 530//182
f 522//175 627//178 526//178
f 520//176 628//228 629//175
f 518//171 515//172 630//171
f 515//169 511//170 631//169
f 632//168 509//167 633//167
f 634//3 507//3 502//166
f 635//165 636//166 500//165
f 492//161 637//162 496//162
f 490//160 638//160 639//159
f 488//154 484//155 640//154
f 641//151 482//153 642//153
f 643//147 480//147 475//146
f 644//143 645//144 473//143
f 465//139 646//140 469//140
f 463//138 647//229 648//139
f 461//137 457//136 649//137
f 650//136 455//133 651//133
f 652//130 453//130 448//129
f 653//230 654//127 446//126
f 439//122 655//231 442//231
f 435//121 656//232 439//232
f 433//120 657//120 658//119
f 659//115 660//114 425//115
f 421//111 661//111 662//112
f 416//108 663//233 664//108
f 416//108 665//233 666//233
f 667//116 431//116 427//234
f 423//112 668//112 669//113
f 419//109 416//108 670//109
f 671//235 672//236 673//237
f 674//238 675//239 676//240
f 677//241 678//242 679//236
f 680//243 681//244 682//245
f 683//246 684//247 685//248
f 686//249 687//248 688//250
f 689//251 690//250 691//252
f 692//253 693//252 694//254
f 695//252 696//255 697//254
f 698//255 699//256 700//257
f 701//258 702//259 703//257
f 704//260 705//261 706//259
f 707//262 708//263 709//261
f 710//264 711//265 712//262
f 713//266 714//267 715//268
f 716//266 717//264 718//269
f 719//266 720//269 721//270
f 722//269 723//271 724//270
f 725//272 726//273 727//274
f 728//271 729//272 730//270
f 731//273 732//275 733//276
f 734//275 735//277 736//278
f 737//277 738//279 739//280
f 738//279 740//281 741//282
f 742//280 743//283 744//284
f 745//285 746//284 747//286
f 748//285 749//287 750//288
f 751//289 752//290 753//291
f 754//290 755//292 756//293
f 757//294 758//295 759//296
f 760//295 761//297 762//296
f 763//298 764//299 765//300
f 766//301 767//302 768//303
f 769//304 770//305 771//306
f 772//307 773//308 774//309
f 775//310 776//307 777//310
f 778//311 779//312 780//312
f 781//311 782//313 783//314
f 784//311 785//314 786//315
f 787//316 788//317 789//318
f 790//319 791//320 792//321
f 793//322 794//323 795//324
f 796//325 797//326 798//327
f 799//328 800//329 801//330
f 802//331 803//332 804//329
f 805//333 806//334 807//331
f 808//335 809//333 810//336
f 811//337 812//338 813//339
f 814//340 815//337 816//341
f 817//342 818//343 819//344
f 820//345 821//346 822//344
f 823//347 824//343 825//348
f 826//349 827//347 828//350
f 829//351 830//349 831//352
f 832//353 833//351 834//354
f 835//355 836//346 837//337
f 838//356 839//357 840//358
f 841//359 842//360 843//361
f 844//359 845//362 846//363
f 847//361 848//364 849//365
f 850//364 851//366 852//365
f 853//367 854//368 855//364
f 856//369 857//368 858//367
f 859//369 860//367 861//370
f 862//369 863//370 864//371
f 865//369 866//371 867//372
f 868//371 869//373 870//372
f 871//374 872//375 873//372
f 874//376 875//375 876//377
f 877//378 878//375 879//379
f 880//380 881//376 882//381
f 883//380 884//381 885//382
f 886//380 887//382 888//383
f 889//382 890//384 891//385
f 892//384 893//386 894//385
f 895//387 896//386 897//384
f 898//388 899//386 900//389
f 901//390 902//387 903//391
f 904//392 905//393 906//394
f 907//391 908//395 909//394
f 910//395 911//396 912//394
f 913//397 914//354 915//395
f 916//351 917//352 918//354
f 919//349 920//350 921//352
f 922//347 923//348 924//350
f 925//398 926//345 927//344
f 928//399 929//337 930//346
f 931//400 814//340 835//401
f 932//402 816//341 933//337
f 934//403 935//402 936//338
f 937//331 938//336 939//333
f 940//329 941//404 942//331
f 943//326 944//325 945//405
f 946//327 947//322 948//325
f 949//406 950//321 951//407
f 952//317 953//315 954//314
f 955//307 956//309 957//312
f 958//408 959//306 960//309
f 961//302 962//299 963//298
f 964//298 965//297 966//295
f 967//294 968//296 969//409
f 970//290 971//410 972//411
f 973//287 974//290 975//289
f 976//280 977//412 978//285
f 740//281 743//413 979//414
f 980//277 981//415 982//278
f 983//275 984//416 985//276
f 986//271 987//273 988//272
f 989//268 990//267 991//265
f 992//260 993//262 994//261
f 995//417 996//260 997//259
f 998//418 999//419 1000//420
f 1001//246 1002//248 1003//249
f 1004//243 1005//245 1006//246
f 1007//244 1008//421 1009//245
f 1010//422 1011//423 1012//236
f 1013//424 1014//425 1015//426
f 1016//250 1017//251 1018//427
f 1019//257 1020//254 1021//255
f 1022//428 1023//424 1024//240
f 95//57 78//57 1025//429
f 1026//429 1027//430 95//57
f 95//57 1028//431 1029//432
s 0
f 1030//432 1031//57 1032//433
s 1
f 1033//434 132//94 134//96
f 1034//435 1035//436 132//94
f 1036//437 1037//432 1038//433
f 1039//438 1040//439 132//94
f 67//45 1041//440 1042//441
f 64//45 67//45 1043//441
f 1044//442 67//443 1045//444
f 80//57 82//57 1046//445
f 1047//445 82//59 1048//446
f 1049//446 82//58 1050//447
s 0
f 1051//57 1052//448 1053//449
s 1
f 1054//450 1055//449 1056//451
