# Blender 4.4.3
# www.blender.org
mtllib Mesh_16.008.mtl
o Mesh_16.008
v 0.017100 0.008820 -0.012290
v 0.000100 0.008820 -0.012290
v 0.017100 0.008833 -0.012338
v 0.000100 0.008833 -0.012338
v 0.017100 0.008786 -0.012290
v 0.000100 0.008786 -0.012290
v 0.017100 0.008820 -0.012290
v 0.000100 0.008820 -0.012290
v 0.017100 0.008820 -0.012290
v 0.017100 0.008773 -0.012338
v 0.000100 0.008773 -0.012338
v 0.017100 0.008786 -0.012290
v 0.000100 0.008786 -0.012290
v 0.017100 0.008786 -0.012290
v 0.017100 0.008773 -0.012397
v 0.000100 0.008773 -0.012396
v 0.017100 0.008833 -0.012397
v 0.000100 0.008833 -0.012396
v 0.017100 0.008773 -0.012397
v 0.000100 0.008773 -0.012396
v 0.017100 0.008773 -0.012397
v 0.017100 0.008843 -0.012337
v 0.000100 0.008843 -0.012337
v 0.017100 0.008828 -0.012280
v 0.000100 0.008828 -0.012280
v 0.017100 0.008843 -0.012463
v 0.000100 0.008843 -0.012463
v 0.017100 0.008828 -0.012520
v 0.000100 0.008828 -0.012520
v 0.017100 0.008778 -0.012520
v 0.000100 0.008778 -0.012520
v 0.017100 0.008828 -0.012520
v 0.000100 0.008828 -0.012520
v 0.017100 0.008828 -0.012520
v 0.017100 0.008763 -0.012463
v 0.000100 0.008763 -0.012463
v 0.017100 0.008778 -0.012520
v 0.000100 0.008778 -0.012520
v 0.017100 0.008778 -0.012520
v 0.017100 0.008763 -0.012337
v 0.000100 0.008763 -0.012337
v 0.017100 0.008778 -0.012280
v 0.000100 0.008778 -0.012280
v 0.000100 0.008786 -0.012510
v 0.017100 0.008786 -0.012510
v 0.000100 0.008820 -0.012510
v 0.017100 0.008820 -0.012510
v 0.000100 0.008820 -0.012510
v 0.017100 0.008820 -0.012510
v 0.000100 0.008833 -0.012462
v 0.017100 0.008820 -0.012510
v 0.017100 0.008833 -0.012462
v 0.000100 0.008833 -0.012403
v 0.017100 0.008833 -0.012404
v 0.000100 0.008833 -0.012403
v 0.017100 0.008833 -0.012404
v 0.000100 0.008773 -0.012403
v 0.017100 0.008833 -0.012404
v 0.017100 0.008773 -0.012404
v 0.000100 0.008773 -0.012403
v 0.017100 0.008773 -0.012404
v 0.000100 0.008773 -0.012462
v 0.017100 0.008773 -0.012404
v 0.017100 0.008773 -0.012462
v 0.017100 0.008828 -0.012280
v 0.000100 0.008828 -0.012280
v 0.017100 0.008778 -0.012280
v 0.000100 0.008828 -0.012280
v 0.000100 0.008778 -0.012280
v 0.017100 0.008778 -0.012280
v 0.000100 0.008786 -0.012510
v 0.000100 0.008786 -0.012510
v 0.017100 0.008786 -0.012510
v 0.017100 0.008833 -0.012397
v 0.000100 0.008833 -0.012396
v 0.017100 0.008833 -0.012397
v 0.000100 0.008833 -0.012396
v 0.000100 0.008843 -0.012337
v 0.000100 0.008833 -0.012403
v 0.000100 0.008833 -0.012396
v 0.000100 0.008833 -0.012403
v 0.000100 0.008773 -0.012396
v 0.000100 0.008773 -0.012396
v 0.000100 0.008773 -0.012403
v 0.000100 0.008763 -0.012337
v 0.000100 0.008773 -0.012338
v 0.000100 0.008773 -0.012396
v 0.000100 0.008763 -0.012337
v 0.000100 0.008786 -0.012290
v 0.000100 0.008763 -0.012337
v 0.000100 0.008778 -0.012280
v 0.000100 0.008820 -0.012290
v 0.000100 0.008778 -0.012280
v 0.000100 0.008828 -0.012280
v 0.000100 0.008786 -0.012290
v 0.000100 0.008773 -0.012338
v 0.000100 0.008763 -0.012337
v 0.000100 0.008833 -0.012338
v 0.000100 0.008843 -0.012337
v 0.000100 0.008833 -0.012396
v 0.000100 0.008820 -0.012290
v 0.000100 0.008828 -0.012280
v 0.000100 0.008843 -0.012337
v 0.000100 0.008763 -0.012337
v 0.000100 0.008773 -0.012403
v 0.000100 0.008763 -0.012463
v 0.000100 0.008778 -0.012520
v 0.000100 0.008786 -0.012510
v 0.000100 0.008828 -0.012520
v 0.000100 0.008828 -0.012520
v 0.000100 0.008786 -0.012510
v 0.000100 0.008820 -0.012510
v 0.000100 0.008843 -0.012463
v 0.000100 0.008833 -0.012403
v 0.000100 0.008843 -0.012337
v 0.000100 0.008786 -0.012290
v 0.000100 0.008778 -0.012280
v 0.000100 0.008820 -0.012290
v 0.000100 0.008773 -0.012462
v 0.000100 0.008786 -0.012510
v 0.000100 0.008763 -0.012463
v 0.000100 0.008763 -0.012463
v 0.000100 0.008786 -0.012510
v 0.000100 0.008778 -0.012520
v 0.000100 0.008843 -0.012337
v 0.000100 0.008833 -0.012338
v 0.000100 0.008820 -0.012290
v 0.000100 0.008833 -0.012462
v 0.000100 0.008843 -0.012463
v 0.000100 0.008820 -0.012510
v 0.000100 0.008833 -0.012462
v 0.000100 0.008833 -0.012403
v 0.000100 0.008843 -0.012463
v 0.000100 0.008828 -0.012520
v 0.000100 0.008820 -0.012510
v 0.000100 0.008843 -0.012463
v 0.000100 0.008773 -0.012403
v 0.000100 0.008773 -0.012462
v 0.000100 0.008763 -0.012463
v 0.000100 0.008833 -0.012403
v 0.000100 0.008773 -0.012403
v 0.000100 0.008773 -0.012396
v 0.017100 0.008833 -0.012338
v 0.017100 0.008833 -0.012397
v 0.017100 0.008843 -0.012337
v 0.017100 0.008833 -0.012397
v 0.017100 0.008773 -0.012397
v 0.017100 0.008833 -0.012404
v 0.017100 0.008773 -0.012397
v 0.017100 0.008773 -0.012404
v 0.017100 0.008833 -0.012404
v 0.017100 0.008773 -0.012397
v 0.017100 0.008763 -0.012337
v 0.017100 0.008773 -0.012404
v 0.017100 0.008773 -0.012338
v 0.017100 0.008763 -0.012337
v 0.017100 0.008773 -0.012397
v 0.017100 0.008833 -0.012397
v 0.017100 0.008833 -0.012404
v 0.017100 0.008843 -0.012337
v 0.017100 0.008786 -0.012290
v 0.017100 0.008778 -0.012280
v 0.017100 0.008763 -0.012337
v 0.017100 0.008820 -0.012290
v 0.017100 0.008828 -0.012280
v 0.017100 0.008778 -0.012280
v 0.017100 0.008820 -0.012290
v 0.017100 0.008833 -0.012338
v 0.017100 0.008843 -0.012337
v 0.017100 0.008828 -0.012280
v 0.017100 0.008820 -0.012290
v 0.017100 0.008843 -0.012337
v 0.017100 0.008778 -0.012280
v 0.017100 0.008786 -0.012290
v 0.017100 0.008820 -0.012290
v 0.017100 0.008763 -0.012337
v 0.017100 0.008763 -0.012463
v 0.017100 0.008773 -0.012404
v 0.017100 0.008778 -0.012520
v 0.017100 0.008828 -0.012520
v 0.017100 0.008786 -0.012510
v 0.017100 0.008843 -0.012463
v 0.017100 0.008843 -0.012337
v 0.017100 0.008833 -0.012404
v 0.017100 0.008786 -0.012510
v 0.017100 0.008763 -0.012463
v 0.017100 0.008778 -0.012520
v 0.017100 0.008786 -0.012510
v 0.017100 0.008828 -0.012520
v 0.017100 0.008820 -0.012510
v 0.017100 0.008773 -0.012338
v 0.017100 0.008786 -0.012290
v 0.017100 0.008763 -0.012337
v 0.017100 0.008833 -0.012462
v 0.017100 0.008820 -0.012510
v 0.017100 0.008843 -0.012463
v 0.017100 0.008833 -0.012462
v 0.017100 0.008843 -0.012463
v 0.017100 0.008833 -0.012404
v 0.017100 0.008773 -0.012404
v 0.017100 0.008763 -0.012463
v 0.017100 0.008773 -0.012462
v 0.017100 0.008820 -0.012510
v 0.017100 0.008828 -0.012520
v 0.017100 0.008843 -0.012463
v 0.017100 0.008763 -0.012463
v 0.017100 0.008786 -0.012510
v 0.017100 0.008773 -0.012462
vn -0.0000 -0.9659 -0.2588
vn -0.0001 -0.9659 -0.2588
vn -0.0000 -0.9660 -0.2587
vn -0.0000 -0.0000 -1.0000
vn -0.0000 0.9659 -0.2588
vn -0.0000 1.0000 -0.0000
vn 0.0001 -0.0000 1.0000
vn -0.0000 0.9659 0.2588
vn -0.0000 -1.0000 -0.0000
vn -0.0000 -1.0000 0.0001
vn -0.0000 -0.9659 0.2588
vn -0.0000 -0.0000 1.0000
vn -0.0000 -0.9659 0.2589
vn -0.0001 -0.0000 -1.0000
vn -0.0000 0.9659 0.2589
vn -0.0000 1.0000 0.0001
vn -1.0000 -0.0000 -0.0000
vn 1.0000 -0.0000 -0.0000
vn 1.0000 0.0001 -0.0000
vn 1.0000 0.0002 -0.0000
vn 1.0000 -0.0002 -0.0000
vn 1.0000 -0.0001 -0.0000
s 1
usemtl Diffuse_51_51_51_100.017
f 1//1 2//1 3//2
f 2//1 4//3 3//2
f 5//4 6//4 7//4
f 6//4 8//4 9//4
f 10//5 11//5 12//5
f 11//5 13//5 14//5
f 15//6 16//6 10//5
f 16//6 11//5 10//5
f 17//7 18//7 19//7
f 18//7 20//7 21//7
f 22//8 23//8 24//8
f 23//8 25//8 24//8
f 26//6 27//6 22//8
f 27//6 23//8 22//8
f 28//5 29//5 26//6
f 29//5 27//6 26//6
f 30//4 31//4 32//4
f 31//4 33//4 34//4
f 35//1 36//1 37//1
f 36//1 38//1 39//1
f 40//9 41//10 35//1
f 41//10 36//1 35//1
f 42//11 43//11 40//9
f 43//11 41//10 40//9
f 44//12 45//12 46//12
f 46//12 45//12 47//12
f 48//13 49//13 50//13
f 50//11 51//11 52//11
f 50//11 52//11 53//9
f 53//9 52//11 54//9
f 55//14 56//14 57//14
f 57//14 58//14 59//14
f 60//6 61//6 62//6
f 62//6 63//6 64//6
f 65//12 66//12 67//12
f 68//12 69//12 70//12
f 62//6 64//6 71//15
f 72//8 64//16 73//8
f 3//2 4//3 74//9
f 4//1 75//9 76//9
f 77//17 78//17 79//17
f 80//17 81//17 82//17
f 83//17 84//17 85//17
f 86//17 87//17 88//17
f 89//17 90//17 91//17
f 92//17 93//17 94//17
f 95//17 96//17 97//17
f 98//17 99//17 100//17
f 101//17 102//17 103//17
f 104//17 105//17 106//17
f 107//17 108//17 109//17
f 110//17 111//17 112//17
f 113//17 114//17 115//17
f 116//17 117//17 118//17
f 119//17 120//17 121//17
f 122//17 123//17 124//17
f 125//17 126//17 127//17
f 128//17 129//17 130//17
f 131//17 132//17 133//17
f 134//17 135//17 136//17
f 137//17 138//17 139//17
f 140//17 141//17 142//17
f 143//18 144//18 145//18
f 146//18 147//18 148//18
f 149//18 150//18 151//18
f 152//18 153//18 154//18
f 155//18 156//18 157//18
f 158//18 159//18 160//18
f 161//18 162//18 163//18
f 164//18 165//18 166//18
f 167//19 168//19 169//19
f 170//20 171//20 172//20
f 173//18 174//18 175//18
f 176//20 177//20 178//20
f 179//18 180//18 181//18
f 182//21 183//21 184//21
f 185//22 186//22 187//22
f 188//18 189//18 190//18
f 191//18 192//18 193//18
f 194//18 195//18 196//18
f 197//18 198//18 199//18
f 200//22 201//22 202//22
f 203//19 204//19 205//19
f 206//18 207//18 208//18
