# Blender 4.4.3
# www.blender.org
mtllib Mesh_22.005.mtl
o Mesh_22.005
v 0.017600 0.008970 -0.012720
v 0.017600 0.008970 -0.012643
v 0.017600 0.008959 -0.012694
v 0.017600 0.008970 -0.012479
v 0.017600 0.008959 -0.012506
v 0.017600 0.008970 -0.012557
v 0.017600 0.008636 -0.012479
v 0.017600 0.008636 -0.012557
v 0.017600 0.008647 -0.012506
v 0.017600 0.008636 -0.012720
v 0.017600 0.008647 -0.012694
v 0.017600 0.008636 -0.012643
v 0.017600 0.008970 -0.012798
v 0.017600 0.008904 -0.012693
v 0.017600 0.008803 -0.012798
v 0.017600 0.008959 -0.012696
v 0.017600 0.008959 -0.012643
v 0.017600 0.008933 -0.012704
v 0.017600 0.008958 -0.012698
v 0.017600 0.008957 -0.012700
v 0.017600 0.008956 -0.012701
v 0.017600 0.008955 -0.012702
v 0.017600 0.008953 -0.012703
v 0.017600 0.008951 -0.012704
v 0.017600 0.008949 -0.012704
v 0.017600 0.008939 -0.012704
v 0.017600 0.008927 -0.012703
v 0.017600 0.008921 -0.012701
v 0.017600 0.008915 -0.012699
v 0.017600 0.008909 -0.012696
v 0.017600 0.008636 -0.012798
v 0.017600 0.008702 -0.012693
v 0.017600 0.008899 -0.012689
v 0.017600 0.008707 -0.012689
v 0.017600 0.008894 -0.012685
v 0.017600 0.008712 -0.012685
v 0.017600 0.008890 -0.012681
v 0.017600 0.008716 -0.012681
v 0.017600 0.008886 -0.012676
v 0.017600 0.008720 -0.012676
v 0.017600 0.008883 -0.012670
v 0.017600 0.008880 -0.012664
v 0.017600 0.008723 -0.012670
v 0.017600 0.008726 -0.012664
v 0.017600 0.008729 -0.012652
v 0.017600 0.008877 -0.012652
v 0.017600 0.008876 -0.012646
v 0.017600 0.008730 -0.012646
v 0.017600 0.008875 -0.012640
v 0.017600 0.008731 -0.012640
v 0.017600 0.008875 -0.012560
v 0.017600 0.008876 -0.012554
v 0.017600 0.008731 -0.012560
v 0.017600 0.008730 -0.012554
v 0.017600 0.008729 -0.012548
v 0.017600 0.008877 -0.012548
v 0.017600 0.008878 -0.012541
v 0.017600 0.008728 -0.012541
v 0.017600 0.008880 -0.012536
v 0.017600 0.008723 -0.012530
v 0.017600 0.008726 -0.012536
v 0.017600 0.008883 -0.012530
v 0.017600 0.008886 -0.012524
v 0.017600 0.008712 -0.012515
v 0.017600 0.008894 -0.012515
v 0.017600 0.008899 -0.012511
v 0.017600 0.008716 -0.012519
v 0.017600 0.008970 -0.012400
v 0.017600 0.008702 -0.012507
v 0.017600 0.008904 -0.012507
v 0.017600 0.008707 -0.012511
v 0.017600 0.008933 -0.012496
v 0.017600 0.008921 -0.012499
v 0.017600 0.008927 -0.012497
v 0.017600 0.008939 -0.012496
v 0.017600 0.008915 -0.012501
v 0.017600 0.008949 -0.012496
v 0.017600 0.008951 -0.012496
v 0.017600 0.008953 -0.012497
v 0.017600 0.008955 -0.012498
v 0.017600 0.008956 -0.012499
v 0.017600 0.008909 -0.012504
v 0.017600 0.008957 -0.012500
v 0.017600 0.008958 -0.012502
v 0.017600 0.008890 -0.012519
v 0.017600 0.008720 -0.012524
v 0.017600 0.008959 -0.012504
v 0.017600 0.008647 -0.012504
v 0.017600 0.008647 -0.012557
v 0.017600 0.008673 -0.012496
v 0.017600 0.008636 -0.012400
v 0.017600 0.008648 -0.012502
v 0.017600 0.008649 -0.012500
v 0.017600 0.008650 -0.012499
v 0.017600 0.008651 -0.012498
v 0.017600 0.008653 -0.012497
v 0.017600 0.008655 -0.012496
v 0.017600 0.008657 -0.012496
v 0.017600 0.008666 -0.012496
v 0.017600 0.008679 -0.012497
v 0.017600 0.008685 -0.012499
v 0.017600 0.008691 -0.012501
v 0.017600 0.008697 -0.012504
v 0.017600 0.008959 -0.012557
v 0.017600 0.008728 -0.012659
v 0.017600 0.008878 -0.012659
v 0.017600 0.008697 -0.012696
v 0.017600 0.008691 -0.012699
v 0.017600 0.008685 -0.012701
v 0.017600 0.008679 -0.012703
v 0.017600 0.008673 -0.012704
v 0.017600 0.008666 -0.012704
v 0.017600 0.008653 -0.012703
v 0.017600 0.008655 -0.012704
v 0.017600 0.008657 -0.012704
v 0.017600 0.008651 -0.012702
v 0.017600 0.008650 -0.012701
v 0.017600 0.008649 -0.012700
v 0.017600 0.008648 -0.012698
v 0.017600 0.008647 -0.012696
v 0.017600 0.008647 -0.012643
v 0.017575 0.008995 -0.012643
v 0.017577 0.008993 -0.012643
v 0.017567 0.009003 -0.012653
v 0.017600 0.008970 -0.012643
v 0.017573 0.008997 -0.012644
v 0.017570 0.009000 -0.012646
v 0.017571 0.008999 -0.012645
v 0.017568 0.009002 -0.012649
v 0.017569 0.009001 -0.012647
v 0.017567 0.009003 -0.012651
v 0.017600 0.008970 -0.012720
v 0.017573 0.008997 -0.012795
v 0.017600 0.008970 -0.012720
v 0.017600 0.008970 -0.012798
v 0.017573 0.008997 -0.012800
v 0.017567 0.009003 -0.012800
v 0.017600 0.008970 -0.012720
v 0.017600 0.008970 -0.012643
v 0.017560 0.008603 -0.012800
v 0.017573 0.008609 -0.012800
v 0.017567 0.008603 -0.012800
v 0.017560 0.009003 -0.012800
v 0.017573 0.008997 -0.012800
v 0.017573 0.008803 -0.012800
v 0.017567 0.009003 -0.012800
v 0.017573 0.008997 -0.012800
v 0.017567 0.008603 -0.012800
v 0.017573 0.008609 -0.012795
v 0.017567 0.008603 -0.012653
v 0.017600 0.008636 -0.012720
v 0.017600 0.008636 -0.012720
v 0.017600 0.008636 -0.012643
v 0.017575 0.008611 -0.012643
v 0.017577 0.008613 -0.012643
v 0.017573 0.008609 -0.012644
v 0.017570 0.008606 -0.012646
v 0.017569 0.008605 -0.012647
v 0.017571 0.008607 -0.012645
v 0.017568 0.008604 -0.012649
v 0.017600 0.008636 -0.012643
v 0.017600 0.008636 -0.012720
v 0.017600 0.008636 -0.012798
v 0.017567 0.008603 -0.012651
v 0.017567 0.008603 -0.012800
v 0.017573 0.008609 -0.012800
v 0.017560 0.008803 -0.012422
v 0.017560 0.008803 -0.012400
v 0.017560 0.008843 -0.012422
v 0.017560 0.008783 -0.012570
v 0.017560 0.008726 -0.012536
v 0.017560 0.008723 -0.012530
v 0.017560 0.008783 -0.012580
v 0.017560 0.008773 -0.012580
v 0.017560 0.008883 -0.012530
v 0.017560 0.008823 -0.012570
v 0.017560 0.008843 -0.012442
v 0.017560 0.008833 -0.012580
v 0.017560 0.008875 -0.012560
v 0.017560 0.008833 -0.012620
v 0.017560 0.008875 -0.012640
v 0.017560 0.008880 -0.012536
v 0.017560 0.008878 -0.012541
v 0.017560 0.008823 -0.012630
v 0.017560 0.008876 -0.012646
v 0.017560 0.008783 -0.012630
v 0.017560 0.008886 -0.012676
v 0.017560 0.008878 -0.012659
v 0.017560 0.008880 -0.012664
v 0.017560 0.008877 -0.012652
v 0.017560 0.008731 -0.012640
v 0.017560 0.008731 -0.012560
v 0.017560 0.008730 -0.012554
v 0.017560 0.008823 -0.012620
v 0.017560 0.009002 -0.012406
v 0.017560 0.009003 -0.012408
v 0.017560 0.009003 -0.012410
v 0.017560 0.009001 -0.012404
v 0.017560 0.009000 -0.012403
v 0.017560 0.008999 -0.012402
v 0.017560 0.008997 -0.012401
v 0.017560 0.008995 -0.012400
v 0.017560 0.008993 -0.012400
v 0.017560 0.008673 -0.012496
v 0.017560 0.008613 -0.012400
v 0.017560 0.008763 -0.012422
v 0.017560 0.008666 -0.012496
v 0.017560 0.008657 -0.012496
v 0.017560 0.008655 -0.012496
v 0.017560 0.008603 -0.012410
v 0.017560 0.008607 -0.012402
v 0.017560 0.008606 -0.012403
v 0.017560 0.008609 -0.012401
v 0.017560 0.008611 -0.012400
v 0.017560 0.008604 -0.012406
v 0.017560 0.008605 -0.012404
v 0.017560 0.008603 -0.012408
v 0.017560 0.008603 -0.012547
v 0.017560 0.008648 -0.012502
v 0.017560 0.008647 -0.012504
v 0.017560 0.008613 -0.012557
v 0.017560 0.008647 -0.012506
v 0.017560 0.008603 -0.012549
v 0.017560 0.008604 -0.012551
v 0.017560 0.008605 -0.012553
v 0.017560 0.008607 -0.012555
v 0.017560 0.008609 -0.012556
v 0.017560 0.008606 -0.012554
v 0.017560 0.008611 -0.012557
v 0.017560 0.008647 -0.012557
v 0.017560 0.008649 -0.012500
v 0.017560 0.008650 -0.012499
v 0.017560 0.008651 -0.012498
v 0.017560 0.008653 -0.012497
v 0.017560 0.008763 -0.012442
v 0.017560 0.008679 -0.012497
v 0.017560 0.008685 -0.012499
v 0.017560 0.008691 -0.012501
v 0.017560 0.008697 -0.012504
v 0.017560 0.008712 -0.012515
v 0.017560 0.008707 -0.012511
v 0.017560 0.008702 -0.012507
v 0.017560 0.008716 -0.012519
v 0.017560 0.008720 -0.012524
v 0.017560 0.008728 -0.012541
v 0.017560 0.008773 -0.012620
v 0.017560 0.008730 -0.012646
v 0.017560 0.008883 -0.012670
v 0.017560 0.008729 -0.012652
v 0.017560 0.008729 -0.012548
v 0.017560 0.008723 -0.012670
v 0.017560 0.008726 -0.012664
v 0.017560 0.008728 -0.012659
v 0.017560 0.008720 -0.012676
v 0.017560 0.008894 -0.012685
v 0.017560 0.008707 -0.012689
v 0.017560 0.008712 -0.012685
v 0.017560 0.008890 -0.012681
v 0.017560 0.008697 -0.012696
v 0.017560 0.008702 -0.012693
v 0.017560 0.008904 -0.012693
v 0.017560 0.008899 -0.012689
v 0.017560 0.008691 -0.012699
v 0.017560 0.008603 -0.012800
v 0.017560 0.008685 -0.012701
v 0.017560 0.008666 -0.012704
v 0.017560 0.008603 -0.012800
v 0.017560 0.008657 -0.012704
v 0.017560 0.008603 -0.012800
v 0.017560 0.008673 -0.012704
v 0.017560 0.008679 -0.012703
v 0.017560 0.008603 -0.012800
v 0.017560 0.008655 -0.012704
v 0.017560 0.008603 -0.012800
v 0.017560 0.008653 -0.012703
v 0.017560 0.008603 -0.012800
v 0.017560 0.008651 -0.012702
v 0.017560 0.008603 -0.012800
v 0.017560 0.008650 -0.012701
v 0.017560 0.008603 -0.012800
v 0.017560 0.008649 -0.012700
v 0.017560 0.008603 -0.012800
v 0.017560 0.008648 -0.012698
v 0.017560 0.008603 -0.012800
v 0.017560 0.008603 -0.012653
v 0.017560 0.008603 -0.012800
v 0.017560 0.008909 -0.012696
v 0.017560 0.008716 -0.012681
v 0.017560 0.008783 -0.012620
v 0.017560 0.008877 -0.012548
v 0.017560 0.008876 -0.012554
v 0.017560 0.008647 -0.012694
v 0.017560 0.008613 -0.012643
v 0.017560 0.008647 -0.012643
v 0.017560 0.008611 -0.012643
v 0.017560 0.008604 -0.012649
v 0.017560 0.008603 -0.012651
v 0.017560 0.009003 -0.012653
v 0.017560 0.008958 -0.012698
v 0.017560 0.008959 -0.012696
v 0.017560 0.008993 -0.012643
v 0.017560 0.008959 -0.012694
v 0.017560 0.009003 -0.012651
v 0.017560 0.009002 -0.012649
v 0.017560 0.009001 -0.012647
v 0.017560 0.008999 -0.012645
v 0.017560 0.008997 -0.012644
v 0.017560 0.009000 -0.012646
v 0.017560 0.008995 -0.012643
v 0.017560 0.009003 -0.012800
v 0.017560 0.008959 -0.012643
v 0.017560 0.008957 -0.012700
v 0.017560 0.009003 -0.012800
v 0.017560 0.008956 -0.012701
v 0.017560 0.009003 -0.012800
v 0.017560 0.008955 -0.012702
v 0.017560 0.009003 -0.012800
v 0.017560 0.008953 -0.012703
v 0.017560 0.009003 -0.012800
v 0.017560 0.009003 -0.012800
v 0.017560 0.008951 -0.012704
v 0.017560 0.009003 -0.012800
v 0.017560 0.008939 -0.012704
v 0.017560 0.008949 -0.012704
v 0.017560 0.009003 -0.012800
v 0.017560 0.008933 -0.012704
v 0.017560 0.009003 -0.012800
v 0.017560 0.008921 -0.012701
v 0.017560 0.008927 -0.012703
v 0.017560 0.009003 -0.012800
v 0.017560 0.008915 -0.012699
v 0.017560 0.009003 -0.012800
v 0.017560 0.009003 -0.012800
v 0.017560 0.008603 -0.012800
v 0.017560 0.008603 -0.012800
v 0.017560 0.008647 -0.012696
v 0.017560 0.008603 -0.012800
v 0.017560 0.008609 -0.012644
v 0.017560 0.008607 -0.012645
v 0.017560 0.008605 -0.012647
v 0.017560 0.008606 -0.012646
v 0.017560 0.008823 -0.012580
v 0.017560 0.008894 -0.012515
v 0.017560 0.008890 -0.012519
v 0.017560 0.008886 -0.012524
v 0.017560 0.008899 -0.012511
v 0.017560 0.008904 -0.012507
v 0.017560 0.008909 -0.012504
v 0.017560 0.008915 -0.012501
v 0.017560 0.008921 -0.012499
v 0.017560 0.008927 -0.012497
v 0.017560 0.008933 -0.012496
v 0.017560 0.008939 -0.012496
v 0.017560 0.008953 -0.012497
v 0.017560 0.008951 -0.012496
v 0.017560 0.008949 -0.012496
v 0.017560 0.008955 -0.012498
v 0.017560 0.008956 -0.012499
v 0.017560 0.008957 -0.012500
v 0.017560 0.008958 -0.012502
v 0.017560 0.009003 -0.012547
v 0.017560 0.008959 -0.012504
v 0.017560 0.008959 -0.012506
v 0.017560 0.008993 -0.012557
v 0.017560 0.008959 -0.012557
v 0.017560 0.008995 -0.012557
v 0.017560 0.008603 -0.012800
v 0.017560 0.009003 -0.012800
v 0.017560 0.009003 -0.012800
v 0.017560 0.008997 -0.012556
v 0.017560 0.008999 -0.012555
v 0.017560 0.009000 -0.012554
v 0.017560 0.009001 -0.012553
v 0.017560 0.009002 -0.012551
v 0.017560 0.009003 -0.012549
v 0.017560 0.009003 -0.012410
v 0.017567 0.009003 -0.012410
v 0.017560 0.009003 -0.012547
v 0.017560 0.009003 -0.012547
v 0.017567 0.009003 -0.012547
v 0.017560 0.009003 -0.012653
v 0.017567 0.009003 -0.012653
v 0.017560 0.009003 -0.012800
v 0.017560 0.009003 -0.012800
v 0.017567 0.009003 -0.012653
v 0.017567 0.009003 -0.012800
v 0.017600 0.008970 -0.012479
v 0.017567 0.009003 -0.012410
v 0.017600 0.008970 -0.012400
v 0.017600 0.008970 -0.012479
v 0.017600 0.008970 -0.012557
v 0.017567 0.009003 -0.012547
v 0.017577 0.008993 -0.012400
v 0.017600 0.008970 -0.012400
v 0.017567 0.009003 -0.012410
v 0.017575 0.008995 -0.012400
v 0.017567 0.009003 -0.012410
v 0.017573 0.008997 -0.012401
v 0.017567 0.009003 -0.012410
v 0.017571 0.008999 -0.012402
v 0.017567 0.009003 -0.012410
v 0.017570 0.009000 -0.012403
v 0.017568 0.009002 -0.012406
v 0.017569 0.009001 -0.012404
v 0.017567 0.009003 -0.012410
v 0.017567 0.009003 -0.012410
v 0.017567 0.009003 -0.012408
v 0.017567 0.009003 -0.012410
v 0.017567 0.009003 -0.012410
v 0.017567 0.009003 -0.012410
v 0.017600 0.008970 -0.012479
v 0.017567 0.009003 -0.012547
v 0.017567 0.009003 -0.012547
v 0.017600 0.008970 -0.012557
v 0.017577 0.008993 -0.012557
v 0.017575 0.008995 -0.012557
v 0.017567 0.009003 -0.012547
v 0.017573 0.008997 -0.012556
v 0.017567 0.009003 -0.012547
v 0.017567 0.009003 -0.012547
v 0.017570 0.009000 -0.012554
v 0.017569 0.009001 -0.012553
v 0.017567 0.009003 -0.012547
v 0.017571 0.008999 -0.012555
v 0.017567 0.009003 -0.012549
v 0.017567 0.009003 -0.012547
v 0.017568 0.009002 -0.012551
v 0.017567 0.009003 -0.012547
v 0.017567 0.009003 -0.012547
v 0.017560 0.008603 -0.012547
v 0.017567 0.008603 -0.012547
v 0.017560 0.008603 -0.012410
v 0.017560 0.008603 -0.012410
v 0.017567 0.008603 -0.012410
v 0.017600 0.008636 -0.012479
v 0.017567 0.008603 -0.012547
v 0.017600 0.008636 -0.012557
v 0.017600 0.008636 -0.012479
v 0.017600 0.008636 -0.012400
v 0.017567 0.008603 -0.012410
v 0.017577 0.008613 -0.012557
v 0.017600 0.008636 -0.012557
v 0.017567 0.008603 -0.012547
v 0.017575 0.008611 -0.012557
v 0.017567 0.008603 -0.012547
v 0.017573 0.008609 -0.012556
v 0.017567 0.008603 -0.012547
v 0.017571 0.008607 -0.012555
v 0.017567 0.008603 -0.012547
v 0.017570 0.008606 -0.012554
v 0.017568 0.008604 -0.012551
v 0.017569 0.008605 -0.012553
v 0.017567 0.008603 -0.012547
v 0.017567 0.008603 -0.012547
v 0.017567 0.008603 -0.012549
v 0.017567 0.008603 -0.012547
v 0.017567 0.008603 -0.012547
v 0.017567 0.008603 -0.012547
v 0.017600 0.008636 -0.012479
v 0.017567 0.008603 -0.012410
v 0.017567 0.008603 -0.012410
v 0.017600 0.008636 -0.012400
v 0.017577 0.008613 -0.012400
v 0.017575 0.008611 -0.012400
v 0.017567 0.008603 -0.012410
v 0.017573 0.008609 -0.012401
v 0.017567 0.008603 -0.012410
v 0.017567 0.008603 -0.012410
v 0.017570 0.008606 -0.012403
v 0.017569 0.008605 -0.012404
v 0.017567 0.008603 -0.012410
v 0.017571 0.008607 -0.012402
v 0.017567 0.008603 -0.012408
v 0.017567 0.008603 -0.012410
v 0.017568 0.008604 -0.012406
v 0.017567 0.008603 -0.012410
v 0.017567 0.008603 -0.012410
v 0.017600 0.008970 -0.012400
v 0.017560 0.008803 -0.012400
v 0.017600 0.008636 -0.012400
v 0.017600 0.008970 -0.012400
v 0.017577 0.008993 -0.012400
v 0.017560 0.008993 -0.012400
v 0.017600 0.008636 -0.012400
v 0.017560 0.008803 -0.012400
v 0.017560 0.008613 -0.012400
v 0.017577 0.008613 -0.012400
v 0.017600 0.008636 -0.012400
v 0.017560 0.008613 -0.012400
v 0.017560 0.008803 -0.012400
v 0.017600 0.008970 -0.012400
v 0.017560 0.008993 -0.012400
v 0.017560 0.008603 -0.012800
v 0.017567 0.008603 -0.012800
v 0.017560 0.008603 -0.012653
v 0.017560 0.008603 -0.012653
v 0.017567 0.008603 -0.012800
v 0.017567 0.008603 -0.012653
v 0.017560 0.008731 -0.012640
v 0.017600 0.008731 -0.012640
v 0.017560 0.008731 -0.012560
v 0.017600 0.008731 -0.012640
v 0.017600 0.008731 -0.012560
v 0.017560 0.008731 -0.012560
v 0.017560 0.008673 -0.012496
v 0.017560 0.008679 -0.012497
v 0.017600 0.008673 -0.012496
v 0.017560 0.008679 -0.012497
v 0.017560 0.008685 -0.012499
v 0.017600 0.008679 -0.012497
v 0.017560 0.008685 -0.012499
v 0.017600 0.008685 -0.012499
v 0.017600 0.008679 -0.012497
v 0.017560 0.008691 -0.012501
v 0.017600 0.008691 -0.012501
v 0.017600 0.008685 -0.012499
v 0.017560 0.008697 -0.012504
v 0.017600 0.008691 -0.012501
v 0.017560 0.008691 -0.012501
v 0.017560 0.008702 -0.012507
v 0.017600 0.008697 -0.012504
v 0.017560 0.008697 -0.012504
v 0.017600 0.008702 -0.012507
v 0.017600 0.008697 -0.012504
v 0.017560 0.008702 -0.012507
v 0.017600 0.008707 -0.012511
v 0.017600 0.008702 -0.012507
v 0.017560 0.008707 -0.012511
v 0.017600 0.008707 -0.012511
v 0.017560 0.008707 -0.012511
v 0.017560 0.008712 -0.012515
v 0.017600 0.008712 -0.012515
v 0.017560 0.008712 -0.012515
v 0.017560 0.008716 -0.012519
v 0.017600 0.008712 -0.012515
v 0.017560 0.008716 -0.012519
v 0.017600 0.008716 -0.012519
v 0.017600 0.008716 -0.012519
v 0.017560 0.008720 -0.012524
v 0.017600 0.008720 -0.012524
v 0.017560 0.008720 -0.012524
v 0.017560 0.008723 -0.012530
v 0.017600 0.008720 -0.012524
v 0.017560 0.008723 -0.012530
v 0.017560 0.008726 -0.012536
v 0.017600 0.008723 -0.012530
v 0.017560 0.008726 -0.012536
v 0.017600 0.008726 -0.012536
v 0.017600 0.008723 -0.012530
v 0.017560 0.008673 -0.012496
v 0.017600 0.008673 -0.012496
v 0.017560 0.008666 -0.012496
v 0.017600 0.008730 -0.012554
v 0.017560 0.008731 -0.012560
v 0.017600 0.008731 -0.012560
v 0.017560 0.008730 -0.012554
v 0.017560 0.008731 -0.012560
v 0.017600 0.008730 -0.012554
v 0.017560 0.008730 -0.012554
v 0.017600 0.008730 -0.012554
v 0.017600 0.008729 -0.012548
v 0.017560 0.008730 -0.012554
v 0.017600 0.008729 -0.012548
v 0.017560 0.008729 -0.012548
v 0.017600 0.008729 -0.012548
v 0.017600 0.008728 -0.012541
v 0.017560 0.008729 -0.012548
v 0.017600 0.008728 -0.012541
v 0.017560 0.008728 -0.012541
v 0.017560 0.008729 -0.012548
v 0.017600 0.008726 -0.012536
v 0.017560 0.008728 -0.012541
v 0.017600 0.008728 -0.012541
v 0.017560 0.008726 -0.012536
v 0.017560 0.008728 -0.012541
v 0.017600 0.008726 -0.012536
v 0.017600 0.008720 -0.012524
v 0.017560 0.008723 -0.012530
v 0.017600 0.008723 -0.012530
v 0.017600 0.008716 -0.012519
v 0.017560 0.008716 -0.012519
v 0.017560 0.008720 -0.012524
v 0.017600 0.008712 -0.012515
v 0.017600 0.008707 -0.012511
v 0.017560 0.008712 -0.012515
v 0.017560 0.008707 -0.012511
v 0.017600 0.008702 -0.012507
v 0.017560 0.008702 -0.012507
v 0.017560 0.008697 -0.012504
v 0.017600 0.008697 -0.012504
v 0.017600 0.008691 -0.012501
v 0.017560 0.008685 -0.012499
v 0.017560 0.008691 -0.012501
v 0.017600 0.008685 -0.012499
v 0.017600 0.008673 -0.012496
v 0.017600 0.008666 -0.012496
v 0.017560 0.008666 -0.012496
v 0.017560 0.008679 -0.012497
v 0.017600 0.008679 -0.012497
v 0.017600 0.008673 -0.012496
v 0.017600 0.008657 -0.012496
v 0.017560 0.008657 -0.012496
v 0.017600 0.008666 -0.012496
v 0.017560 0.008657 -0.012496
v 0.017560 0.008666 -0.012496
v 0.017600 0.008666 -0.012496
v 0.017560 0.008647 -0.012506
v 0.017600 0.008647 -0.012506
v 0.017560 0.008647 -0.012557
v 0.017600 0.008647 -0.012506
v 0.017600 0.008647 -0.012557
v 0.017560 0.008647 -0.012557
v 0.017600 0.008647 -0.012694
v 0.017560 0.008647 -0.012694
v 0.017600 0.008647 -0.012643
v 0.017560 0.008647 -0.012694
v 0.017560 0.008647 -0.012643
v 0.017600 0.008647 -0.012643
v 0.017560 0.008657 -0.012704
v 0.017600 0.008657 -0.012704
v 0.017560 0.008666 -0.012704
v 0.017600 0.008657 -0.012704
v 0.017600 0.008666 -0.012704
v 0.017560 0.008666 -0.012704
v 0.017560 0.008730 -0.012646
v 0.017560 0.008729 -0.012652
v 0.017600 0.008730 -0.012646
v 0.017560 0.008729 -0.012652
v 0.017560 0.008728 -0.012659
v 0.017600 0.008729 -0.012652
v 0.017560 0.008728 -0.012659
v 0.017600 0.008728 -0.012659
v 0.017600 0.008729 -0.012652
v 0.017560 0.008726 -0.012664
v 0.017600 0.008726 -0.012664
v 0.017600 0.008728 -0.012659
v 0.017560 0.008723 -0.012670
v 0.017600 0.008726 -0.012664
v 0.017560 0.008726 -0.012664
v 0.017560 0.008720 -0.012676
v 0.017600 0.008723 -0.012670
v 0.017560 0.008723 -0.012670
v 0.017600 0.008720 -0.012676
v 0.017600 0.008723 -0.012670
v 0.017560 0.008720 -0.012676
v 0.017600 0.008716 -0.012681
v 0.017600 0.008720 -0.012676
v 0.017560 0.008716 -0.012681
v 0.017600 0.008716 -0.012681
v 0.017560 0.008716 -0.012681
v 0.017560 0.008712 -0.012685
v 0.017600 0.008712 -0.012685
v 0.017560 0.008712 -0.012685
v 0.017560 0.008707 -0.012689
v 0.017600 0.008712 -0.012685
v 0.017560 0.008707 -0.012689
v 0.017600 0.008707 -0.012689
v 0.017600 0.008707 -0.012689
v 0.017560 0.008702 -0.012693
v 0.017600 0.008702 -0.012693
v 0.017560 0.008702 -0.012693
v 0.017560 0.008697 -0.012696
v 0.017600 0.008702 -0.012693
v 0.017560 0.008697 -0.012696
v 0.017560 0.008691 -0.012699
v 0.017600 0.008697 -0.012696
v 0.017560 0.008691 -0.012699
v 0.017600 0.008691 -0.012699
v 0.017600 0.008697 -0.012696
v 0.017560 0.008730 -0.012646
v 0.017600 0.008730 -0.012646
v 0.017560 0.008731 -0.012640
v 0.017600 0.008673 -0.012704
v 0.017560 0.008666 -0.012704
v 0.017600 0.008666 -0.012704
v 0.017560 0.008673 -0.012704
v 0.017560 0.008666 -0.012704
v 0.017600 0.008673 -0.012704
v 0.017560 0.008673 -0.012704
v 0.017600 0.008673 -0.012704
v 0.017600 0.008679 -0.012703
v 0.017560 0.008673 -0.012704
v 0.017600 0.008679 -0.012703
v 0.017560 0.008679 -0.012703
v 0.017600 0.008679 -0.012703
v 0.017600 0.008685 -0.012701
v 0.017560 0.008679 -0.012703
v 0.017600 0.008685 -0.012701
v 0.017560 0.008685 -0.012701
v 0.017560 0.008679 -0.012703
v 0.017600 0.008691 -0.012699
v 0.017560 0.008685 -0.012701
v 0.017600 0.008685 -0.012701
v 0.017560 0.008691 -0.012699
v 0.017560 0.008685 -0.012701
v 0.017600 0.008691 -0.012699
v 0.017600 0.008702 -0.012693
v 0.017560 0.008697 -0.012696
v 0.017600 0.008697 -0.012696
v 0.017600 0.008707 -0.012689
v 0.017560 0.008707 -0.012689
v 0.017560 0.008702 -0.012693
v 0.017600 0.008712 -0.012685
v 0.017600 0.008716 -0.012681
v 0.017560 0.008712 -0.012685
v 0.017560 0.008716 -0.012681
v 0.017600 0.008720 -0.012676
v 0.017560 0.008720 -0.012676
v 0.017560 0.008723 -0.012670
v 0.017600 0.008723 -0.012670
v 0.017600 0.008726 -0.012664
v 0.017560 0.008728 -0.012659
v 0.017560 0.008726 -0.012664
v 0.017600 0.008728 -0.012659
v 0.017600 0.008730 -0.012646
v 0.017600 0.008731 -0.012640
v 0.017560 0.008731 -0.012640
v 0.017560 0.008729 -0.012652
v 0.017600 0.008729 -0.012652
v 0.017600 0.008730 -0.012646
v 0.017577 0.008613 -0.012557
v 0.017560 0.008647 -0.012557
v 0.017600 0.008636 -0.012557
v 0.017560 0.008613 -0.012557
v 0.017560 0.008647 -0.012557
v 0.017577 0.008613 -0.012557
v 0.017600 0.008647 -0.012557
v 0.017600 0.008636 -0.012557
v 0.017560 0.008647 -0.012557
v 0.017560 0.008613 -0.012643
v 0.017577 0.008613 -0.012643
v 0.017560 0.008647 -0.012643
v 0.017600 0.008636 -0.012643
v 0.017600 0.008647 -0.012643
v 0.017560 0.008647 -0.012643
v 0.017577 0.008613 -0.012643
v 0.017600 0.008636 -0.012643
v 0.017560 0.008647 -0.012643
v 0.017560 0.008875 -0.012640
v 0.017560 0.008875 -0.012560
v 0.017600 0.008875 -0.012640
v 0.017600 0.008875 -0.012640
v 0.017560 0.008875 -0.012560
v 0.017600 0.008875 -0.012560
v 0.017600 0.008939 -0.012496
v 0.017600 0.008933 -0.012496
v 0.017560 0.008939 -0.012496
v 0.017600 0.008933 -0.012496
v 0.017560 0.008933 -0.012496
v 0.017560 0.008939 -0.012496
v 0.017600 0.008927 -0.012497
v 0.017560 0.008933 -0.012496
v 0.017600 0.008933 -0.012496
v 0.017560 0.008927 -0.012497
v 0.017560 0.008933 -0.012496
v 0.017600 0.008927 -0.012497
v 0.017560 0.008927 -0.012497
v 0.017600 0.008927 -0.012497
v 0.017600 0.008921 -0.012499
v 0.017560 0.008927 -0.012497
v 0.017600 0.008921 -0.012499
v 0.017560 0.008921 -0.012499
v 0.017600 0.008921 -0.012499
v 0.017600 0.008915 -0.012501
v 0.017560 0.008921 -0.012499
v 0.017600 0.008915 -0.012501
v 0.017560 0.008915 -0.012501
v 0.017560 0.008921 -0.012499
v 0.017600 0.008909 -0.012504
v 0.017560 0.008915 -0.012501
v 0.017600 0.008915 -0.012501
v 0.017560 0.008909 -0.012504
v 0.017560 0.008915 -0.012501
v 0.017600 0.008909 -0.012504
v 0.017560 0.008909 -0.012504
v 0.017600 0.008909 -0.012504
v 0.017600 0.008904 -0.012507
v 0.017560 0.008909 -0.012504
v 0.017600 0.008904 -0.012507
v 0.017560 0.008904 -0.012507
v 0.017600 0.008904 -0.012507
v 0.017600 0.008899 -0.012511
v 0.017560 0.008904 -0.012507
v 0.017600 0.008899 -0.012511
v 0.017560 0.008899 -0.012511
v 0.017560 0.008904 -0.012507
v 0.017560 0.008890 -0.012519
v 0.017600 0.008886 -0.012524
v 0.017560 0.008886 -0.012524
v 0.017560 0.008886 -0.012524
v 0.017600 0.008886 -0.012524
v 0.017600 0.008883 -0.012530
v 0.017560 0.008875 -0.012560
v 0.017560 0.008876 -0.012554
v 0.017600 0.008875 -0.012560
v 0.017560 0.008876 -0.012554
v 0.017600 0.008876 -0.012554
v 0.017600 0.008875 -0.012560
v 0.017560 0.008877 -0.012548
v 0.017600 0.008876 -0.012554
v 0.017560 0.008876 -0.012554
v 0.017600 0.008877 -0.012548
v 0.017600 0.008876 -0.012554
v 0.017560 0.008877 -0.012548
v 0.017600 0.008877 -0.012548
v 0.017560 0.008877 -0.012548
v 0.017560 0.008878 -0.012541
v 0.017600 0.008877 -0.012548
v 0.017560 0.008878 -0.012541
v 0.017600 0.008878 -0.012541
v 0.017560 0.008878 -0.012541
v 0.017560 0.008880 -0.012536
v 0.017600 0.008878 -0.012541
v 0.017560 0.008880 -0.012536
v 0.017600 0.008880 -0.012536
v 0.017600 0.008878 -0.012541
v 0.017560 0.008883 -0.012530
v 0.017600 0.008880 -0.012536
v 0.017560 0.008880 -0.012536
v 0.017600 0.008883 -0.012530
v 0.017600 0.008880 -0.012536
v 0.017560 0.008883 -0.012530
v 0.017600 0.008883 -0.012530
v 0.017560 0.008883 -0.012530
v 0.017560 0.008886 -0.012524
v 0.017600 0.008886 -0.012524
v 0.017560 0.008890 -0.012519
v 0.017600 0.008890 -0.012519
v 0.017560 0.008890 -0.012519
v 0.017560 0.008894 -0.012515
v 0.017600 0.008890 -0.012519
v 0.017560 0.008894 -0.012515
v 0.017600 0.008894 -0.012515
v 0.017600 0.008890 -0.012519
v 0.017560 0.008899 -0.012511
v 0.017600 0.008894 -0.012515
v 0.017560 0.008894 -0.012515
v 0.017560 0.008899 -0.012511
v 0.017600 0.008899 -0.012511
v 0.017600 0.008894 -0.012515
v 0.017600 0.008939 -0.012496
v 0.017560 0.008939 -0.012496
v 0.017600 0.008949 -0.012496
v 0.017600 0.008949 -0.012496
v 0.017560 0.008939 -0.012496
v 0.017560 0.008949 -0.012496
v 0.017560 0.008959 -0.012557
v 0.017600 0.008959 -0.012557
v 0.017560 0.008959 -0.012506
v 0.017560 0.008959 -0.012506
v 0.017600 0.008959 -0.012557
v 0.017600 0.008959 -0.012506
v 0.017600 0.008959 -0.012643
v 0.017560 0.008959 -0.012643
v 0.017600 0.008959 -0.012694
v 0.017600 0.008959 -0.012694
v 0.017560 0.008959 -0.012643
v 0.017560 0.008959 -0.012694
v 0.017560 0.008939 -0.012704
v 0.017600 0.008939 -0.012704
v 0.017560 0.008949 -0.012704
v 0.017560 0.008949 -0.012704
v 0.017600 0.008939 -0.012704
v 0.017600 0.008949 -0.012704
v 0.017600 0.008875 -0.012640
v 0.017600 0.008876 -0.012646
v 0.017560 0.008875 -0.012640
v 0.017600 0.008876 -0.012646
v 0.017600 0.008877 -0.012652
v 0.017560 0.008876 -0.012646
v 0.017600 0.008877 -0.012652
v 0.017560 0.008877 -0.012652
v 0.017560 0.008876 -0.012646
v 0.017600 0.008878 -0.012659
v 0.017560 0.008878 -0.012659
v 0.017560 0.008877 -0.012652
v 0.017600 0.008880 -0.012664
v 0.017560 0.008880 -0.012664
v 0.017560 0.008878 -0.012659
v 0.017600 0.008883 -0.012670
v 0.017560 0.008880 -0.012664
v 0.017600 0.008880 -0.012664
v 0.017600 0.008886 -0.012676
v 0.017560 0.008883 -0.012670
v 0.017600 0.008883 -0.012670
v 0.017560 0.008886 -0.012676
v 0.017560 0.008883 -0.012670
v 0.017600 0.008886 -0.012676
v 0.017560 0.008890 -0.012681
v 0.017560 0.008886 -0.012676
v 0.017600 0.008890 -0.012681
v 0.017560 0.008890 -0.012681
v 0.017600 0.008890 -0.012681
v 0.017600 0.008894 -0.012685
v 0.017560 0.008894 -0.012685
v 0.017600 0.008894 -0.012685
v 0.017600 0.008899 -0.012689
v 0.017560 0.008894 -0.012685
v 0.017600 0.008899 -0.012689
v 0.017560 0.008899 -0.012689
v 0.017560 0.008899 -0.012689
v 0.017600 0.008904 -0.012693
v 0.017560 0.008904 -0.012693
v 0.017600 0.008904 -0.012693
v 0.017600 0.008909 -0.012696
v 0.017560 0.008904 -0.012693
v 0.017600 0.008909 -0.012696
v 0.017600 0.008915 -0.012699
v 0.017560 0.008909 -0.012696
v 0.017600 0.008915 -0.012699
v 0.017560 0.008915 -0.012699
v 0.017560 0.008909 -0.012696
v 0.017560 0.008933 -0.012704
v 0.017600 0.008939 -0.012704
v 0.017560 0.008939 -0.012704
v 0.017600 0.008933 -0.012704
v 0.017600 0.008939 -0.012704
v 0.017560 0.008933 -0.012704
v 0.017600 0.008933 -0.012704
v 0.017560 0.008933 -0.012704
v 0.017560 0.008927 -0.012703
v 0.017600 0.008933 -0.012704
v 0.017560 0.008927 -0.012703
v 0.017600 0.008927 -0.012703
v 0.017560 0.008927 -0.012703
v 0.017560 0.008921 -0.012701
v 0.017600 0.008927 -0.012703
v 0.017560 0.008921 -0.012701
v 0.017600 0.008921 -0.012701
v 0.017600 0.008927 -0.012703
v 0.017560 0.008915 -0.012699
v 0.017600 0.008921 -0.012701
v 0.017560 0.008921 -0.012701
v 0.017600 0.008915 -0.012699
v 0.017600 0.008921 -0.012701
v 0.017560 0.008915 -0.012699
v 0.017560 0.008904 -0.012693
v 0.017600 0.008909 -0.012696
v 0.017560 0.008909 -0.012696
v 0.017560 0.008899 -0.012689
v 0.017600 0.008899 -0.012689
v 0.017600 0.008904 -0.012693
v 0.017560 0.008894 -0.012685
v 0.017560 0.008890 -0.012681
v 0.017600 0.008894 -0.012685
v 0.017600 0.008890 -0.012681
v 0.017560 0.008886 -0.012676
v 0.017600 0.008886 -0.012676
v 0.017600 0.008883 -0.012670
v 0.017560 0.008883 -0.012670
v 0.017560 0.008880 -0.012664
v 0.017600 0.008878 -0.012659
v 0.017600 0.008880 -0.012664
v 0.017560 0.008878 -0.012659
v 0.017560 0.008876 -0.012646
v 0.017560 0.008875 -0.012640
v 0.017600 0.008876 -0.012646
v 0.017560 0.008877 -0.012652
v 0.017600 0.008877 -0.012652
v 0.017600 0.008878 -0.012659
v 0.017600 0.008959 -0.012557
v 0.017560 0.008959 -0.012557
v 0.017600 0.008970 -0.012557
v 0.017577 0.008993 -0.012557
v 0.017560 0.008959 -0.012557
v 0.017560 0.008993 -0.012557
v 0.017577 0.008993 -0.012557
v 0.017600 0.008970 -0.012557
v 0.017560 0.008959 -0.012557
v 0.017600 0.008959 -0.012643
v 0.017600 0.008970 -0.012643
v 0.017560 0.008959 -0.012643
v 0.017560 0.008959 -0.012643
v 0.017600 0.008970 -0.012643
v 0.017577 0.008993 -0.012643
v 0.017577 0.008993 -0.012643
v 0.017560 0.008993 -0.012643
v 0.017560 0.008959 -0.012643
v 0.017567 0.009003 -0.012653
v 0.017560 0.009003 -0.012653
v 0.017560 0.009003 -0.012651
v 0.017567 0.009003 -0.012651
v 0.017567 0.009003 -0.012653
v 0.017560 0.009003 -0.012651
v 0.017560 0.009003 -0.012651
v 0.017560 0.009002 -0.012649
v 0.017567 0.009003 -0.012651
v 0.017567 0.009003 -0.012651
v 0.017560 0.009002 -0.012649
v 0.017568 0.009002 -0.012649
v 0.017568 0.009002 -0.012649
v 0.017560 0.009002 -0.012649
v 0.017560 0.009001 -0.012647
v 0.017569 0.009001 -0.012647
v 0.017568 0.009002 -0.012649
v 0.017560 0.009001 -0.012647
v 0.017560 0.009000 -0.012646
v 0.017569 0.009001 -0.012647
v 0.017560 0.009001 -0.012647
v 0.017560 0.008999 -0.012645
v 0.017570 0.009000 -0.012646
v 0.017560 0.009000 -0.012646
v 0.017560 0.009000 -0.012646
v 0.017570 0.009000 -0.012646
v 0.017569 0.009001 -0.012647
v 0.017575 0.008995 -0.012643
v 0.017560 0.008993 -0.012643
v 0.017577 0.008993 -0.012643
v 0.017575 0.008995 -0.012643
v 0.017560 0.008995 -0.012643
v 0.017560 0.008993 -0.012643
v 0.017575 0.008995 -0.012643
v 0.017573 0.008997 -0.012644
v 0.017560 0.008995 -0.012643
v 0.017560 0.008995 -0.012643
v 0.017573 0.008997 -0.012644
v 0.017560 0.008997 -0.012644
v 0.017560 0.008997 -0.012644
v 0.017573 0.008997 -0.012644
v 0.017571 0.008999 -0.012645
v 0.017560 0.008999 -0.012645
v 0.017560 0.008997 -0.012644
v 0.017571 0.008999 -0.012645
v 0.017570 0.009000 -0.012646
v 0.017560 0.008999 -0.012645
v 0.017571 0.008999 -0.012645
v 0.017560 0.008613 -0.012643
v 0.017575 0.008611 -0.012643
v 0.017577 0.008613 -0.012643
v 0.017560 0.008613 -0.012643
v 0.017560 0.008611 -0.012643
v 0.017575 0.008611 -0.012643
v 0.017575 0.008611 -0.012643
v 0.017560 0.008611 -0.012643
v 0.017573 0.008609 -0.012644
v 0.017573 0.008609 -0.012644
v 0.017560 0.008611 -0.012643
v 0.017560 0.008609 -0.012644
v 0.017560 0.008607 -0.012645
v 0.017560 0.008606 -0.012646
v 0.017570 0.008606 -0.012646
v 0.017571 0.008607 -0.012645
v 0.017560 0.008609 -0.012644
v 0.017560 0.008607 -0.012645
v 0.017560 0.008606 -0.012646
v 0.017560 0.008605 -0.012647
v 0.017569 0.008605 -0.012647
v 0.017571 0.008607 -0.012645
v 0.017573 0.008609 -0.012644
v 0.017560 0.008609 -0.012644
v 0.017560 0.008603 -0.012651
v 0.017560 0.008603 -0.012653
v 0.017567 0.008603 -0.012653
v 0.017567 0.008603 -0.012651
v 0.017560 0.008603 -0.012651
v 0.017567 0.008603 -0.012653
v 0.017567 0.008603 -0.012651
v 0.017560 0.008604 -0.012649
v 0.017560 0.008603 -0.012651
v 0.017567 0.008603 -0.012651
v 0.017568 0.008604 -0.012649
v 0.017560 0.008604 -0.012649
v 0.017560 0.008604 -0.012649
v 0.017568 0.008604 -0.012649
v 0.017560 0.008605 -0.012647
v 0.017560 0.008605 -0.012647
v 0.017568 0.008604 -0.012649
v 0.017569 0.008605 -0.012647
v 0.017560 0.008606 -0.012646
v 0.017569 0.008605 -0.012647
v 0.017570 0.008606 -0.012646
v 0.017570 0.008606 -0.012646
v 0.017571 0.008607 -0.012645
v 0.017560 0.008607 -0.012645
v 0.017560 0.008603 -0.012547
v 0.017560 0.008603 -0.012549
v 0.017567 0.008603 -0.012549
v 0.017560 0.008603 -0.012549
v 0.017560 0.008603 -0.012549
v 0.017560 0.008604 -0.012551
v 0.017567 0.008603 -0.012549
v 0.017567 0.008603 -0.012549
v 0.017560 0.008604 -0.012551
v 0.017568 0.008604 -0.012551
v 0.017568 0.008604 -0.012551
v 0.017560 0.008604 -0.012551
v 0.017560 0.008605 -0.012553
v 0.017569 0.008605 -0.012553
v 0.017568 0.008604 -0.012551
v 0.017560 0.008605 -0.012553
v 0.017560 0.008606 -0.012554
v 0.017569 0.008605 -0.012553
v 0.017560 0.008605 -0.012553
v 0.017560 0.008607 -0.012555
v 0.017570 0.008606 -0.012554
v 0.017560 0.008606 -0.012554
v 0.017560 0.008606 -0.012554
v 0.017570 0.008606 -0.012554
v 0.017569 0.008605 -0.012553
v 0.017575 0.008611 -0.012557
v 0.017560 0.008613 -0.012557
v 0.017577 0.008613 -0.012557
v 0.017575 0.008611 -0.012557
v 0.017560 0.008611 -0.012557
v 0.017560 0.008613 -0.012557
v 0.017575 0.008611 -0.012557
v 0.017573 0.008609 -0.012556
v 0.017560 0.008611 -0.012557
v 0.017560 0.008611 -0.012557
v 0.017573 0.008609 -0.012556
v 0.017560 0.008609 -0.012556
v 0.017560 0.008609 -0.012556
v 0.017573 0.008609 -0.012556
v 0.017571 0.008607 -0.012555
v 0.017560 0.008607 -0.012555
v 0.017560 0.008609 -0.012556
v 0.017571 0.008607 -0.012555
v 0.017570 0.008606 -0.012554
v 0.017560 0.008607 -0.012555
v 0.017571 0.008607 -0.012555
v 0.017560 0.008655 -0.012704
v 0.017560 0.008653 -0.012703
v 0.017600 0.008655 -0.012704
v 0.017560 0.008653 -0.012703
v 0.017560 0.008651 -0.012702
v 0.017600 0.008653 -0.012703
v 0.017560 0.008651 -0.012702
v 0.017600 0.008651 -0.012702
v 0.017600 0.008653 -0.012703
v 0.017560 0.008650 -0.012701
v 0.017600 0.008650 -0.012701
v 0.017600 0.008651 -0.012702
v 0.017560 0.008649 -0.012700
v 0.017600 0.008650 -0.012701
v 0.017560 0.008650 -0.012701
v 0.017560 0.008648 -0.012698
v 0.017600 0.008649 -0.012700
v 0.017560 0.008649 -0.012700
v 0.017600 0.008648 -0.012698
v 0.017600 0.008649 -0.012700
v 0.017560 0.008648 -0.012698
v 0.017560 0.008655 -0.012704
v 0.017600 0.008655 -0.012704
v 0.017560 0.008657 -0.012704
v 0.017600 0.008647 -0.012696
v 0.017560 0.008647 -0.012694
v 0.017600 0.008647 -0.012694
v 0.017560 0.008647 -0.012696
v 0.017560 0.008647 -0.012694
v 0.017600 0.008647 -0.012696
v 0.017560 0.008647 -0.012696
v 0.017600 0.008647 -0.012696
v 0.017600 0.008648 -0.012698
v 0.017560 0.008647 -0.012696
v 0.017600 0.008648 -0.012698
v 0.017560 0.008648 -0.012698
v 0.017560 0.008649 -0.012700
v 0.017600 0.008649 -0.012700
v 0.017600 0.008650 -0.012701
v 0.017560 0.008651 -0.012702
v 0.017560 0.008650 -0.012701
v 0.017600 0.008651 -0.012702
v 0.017600 0.008655 -0.012704
v 0.017600 0.008657 -0.012704
v 0.017560 0.008657 -0.012704
v 0.017560 0.008653 -0.012703
v 0.017600 0.008653 -0.012703
v 0.017600 0.008655 -0.012704
v 0.017560 0.008647 -0.012504
v 0.017560 0.008648 -0.012502
v 0.017600 0.008647 -0.012504
v 0.017560 0.008648 -0.012502
v 0.017560 0.008649 -0.012500
v 0.017600 0.008648 -0.012502
v 0.017560 0.008649 -0.012500
v 0.017600 0.008649 -0.012500
v 0.017600 0.008648 -0.012502
v 0.017560 0.008650 -0.012499
v 0.017600 0.008650 -0.012499
v 0.017600 0.008649 -0.012500
v 0.017560 0.008651 -0.012498
v 0.017600 0.008650 -0.012499
v 0.017560 0.008650 -0.012499
v 0.017560 0.008653 -0.012497
v 0.017600 0.008651 -0.012498
v 0.017560 0.008651 -0.012498
v 0.017600 0.008653 -0.012497
v 0.017600 0.008651 -0.012498
v 0.017560 0.008653 -0.012497
v 0.017560 0.008647 -0.012504
v 0.017600 0.008647 -0.012504
v 0.017560 0.008647 -0.012506
v 0.017600 0.008655 -0.012496
v 0.017560 0.008657 -0.012496
v 0.017600 0.008657 -0.012496
v 0.017560 0.008655 -0.012496
v 0.017560 0.008657 -0.012496
v 0.017600 0.008655 -0.012496
v 0.017560 0.008655 -0.012496
v 0.017600 0.008655 -0.012496
v 0.017600 0.008653 -0.012497
v 0.017560 0.008655 -0.012496
v 0.017600 0.008653 -0.012497
v 0.017560 0.008653 -0.012497
v 0.017560 0.008651 -0.012498
v 0.017600 0.008651 -0.012498
v 0.017600 0.008650 -0.012499
v 0.017560 0.008649 -0.012500
v 0.017560 0.008650 -0.012499
v 0.017600 0.008649 -0.012500
v 0.017600 0.008647 -0.012504
v 0.017600 0.008647 -0.012506
v 0.017560 0.008647 -0.012506
v 0.017560 0.008648 -0.012502
v 0.017600 0.008648 -0.012502
v 0.017600 0.008647 -0.012504
v 0.017560 0.008959 -0.012696
v 0.017560 0.008958 -0.012698
v 0.017600 0.008959 -0.012696
v 0.017560 0.008958 -0.012698
v 0.017560 0.008957 -0.012700
v 0.017600 0.008958 -0.012698
v 0.017560 0.008957 -0.012700
v 0.017600 0.008957 -0.012700
v 0.017600 0.008958 -0.012698
v 0.017560 0.008956 -0.012701
v 0.017600 0.008956 -0.012701
v 0.017600 0.008957 -0.012700
v 0.017560 0.008955 -0.012702
v 0.017600 0.008956 -0.012701
v 0.017560 0.008956 -0.012701
v 0.017560 0.008953 -0.012703
v 0.017600 0.008955 -0.012702
v 0.017560 0.008955 -0.012702
v 0.017600 0.008953 -0.012703
v 0.017600 0.008955 -0.012702
v 0.017560 0.008953 -0.012703
v 0.017560 0.008949 -0.012704
v 0.017600 0.008949 -0.012704
v 0.017600 0.008951 -0.012704
v 0.017560 0.008949 -0.012704
v 0.017600 0.008951 -0.012704
v 0.017560 0.008951 -0.012704
v 0.017600 0.008951 -0.012704
v 0.017600 0.008953 -0.012703
v 0.017560 0.008951 -0.012704
v 0.017560 0.008959 -0.012696
v 0.017600 0.008959 -0.012696
v 0.017560 0.008959 -0.012694
v 0.017560 0.008953 -0.012703
v 0.017560 0.008951 -0.012704
v 0.017600 0.008953 -0.012703
v 0.017600 0.008959 -0.012696
v 0.017600 0.008959 -0.012694
v 0.017560 0.008959 -0.012694
v 0.017600 0.008959 -0.012696
v 0.017560 0.008958 -0.012698
v 0.017600 0.008958 -0.012698
v 0.017560 0.008957 -0.012700
v 0.017560 0.008956 -0.012701
v 0.017600 0.008957 -0.012700
v 0.017560 0.008955 -0.012702
v 0.017600 0.008955 -0.012702
v 0.017600 0.008956 -0.012701
v 0.017560 0.008993 -0.012400
v 0.017577 0.008993 -0.012400
v 0.017575 0.008995 -0.012400
v 0.017560 0.008995 -0.012400
v 0.017560 0.008993 -0.012400
v 0.017575 0.008995 -0.012400
v 0.017573 0.008997 -0.012401
v 0.017560 0.008995 -0.012400
v 0.017575 0.008995 -0.012400
v 0.017573 0.008997 -0.012401
v 0.017560 0.008997 -0.012401
v 0.017560 0.008995 -0.012400
v 0.017573 0.008997 -0.012401
v 0.017571 0.008999 -0.012402
v 0.017560 0.008997 -0.012401
v 0.017560 0.008997 -0.012401
v 0.017571 0.008999 -0.012402
v 0.017560 0.008999 -0.012402
v 0.017560 0.008999 -0.012402
v 0.017570 0.009000 -0.012403
v 0.017560 0.009000 -0.012403
v 0.017560 0.009003 -0.012410
v 0.017560 0.009003 -0.012408
v 0.017560 0.009003 -0.012408
v 0.017567 0.009003 -0.012408
v 0.017560 0.009003 -0.012408
v 0.017560 0.009002 -0.012406
v 0.017567 0.009003 -0.012408
v 0.017567 0.009003 -0.012408
v 0.017560 0.009002 -0.012406
v 0.017568 0.009002 -0.012406
v 0.017568 0.009002 -0.012406
v 0.017560 0.009002 -0.012406
v 0.017560 0.009001 -0.012404
v 0.017569 0.009001 -0.012404
v 0.017568 0.009002 -0.012406
v 0.017560 0.009001 -0.012404
v 0.017560 0.009000 -0.012403
v 0.017569 0.009001 -0.012404
v 0.017560 0.009001 -0.012404
v 0.017560 0.009000 -0.012403
v 0.017570 0.009000 -0.012403
v 0.017569 0.009001 -0.012404
v 0.017570 0.009000 -0.012403
v 0.017560 0.008999 -0.012402
v 0.017571 0.008999 -0.012402
v 0.017560 0.008603 -0.012410
v 0.017560 0.008603 -0.012408
v 0.017560 0.008603 -0.012408
v 0.017567 0.008603 -0.012408
v 0.017560 0.008604 -0.012406
v 0.017560 0.008603 -0.012408
v 0.017567 0.008603 -0.012408
v 0.017568 0.008604 -0.012406
v 0.017560 0.008604 -0.012406
v 0.017567 0.008603 -0.012408
v 0.017568 0.008604 -0.012406
v 0.017560 0.008605 -0.012404
v 0.017560 0.008604 -0.012406
v 0.017568 0.008604 -0.012406
v 0.017569 0.008605 -0.012404
v 0.017560 0.008605 -0.012404
v 0.017560 0.008605 -0.012404
v 0.017569 0.008605 -0.012404
v 0.017560 0.008606 -0.012403
v 0.017560 0.008606 -0.012403
v 0.017569 0.008605 -0.012404
v 0.017570 0.008606 -0.012403
v 0.017560 0.008607 -0.012402
v 0.017560 0.008606 -0.012403
v 0.017570 0.008606 -0.012403
v 0.017577 0.008613 -0.012400
v 0.017560 0.008613 -0.012400
v 0.017575 0.008611 -0.012400
v 0.017575 0.008611 -0.012400
v 0.017560 0.008613 -0.012400
v 0.017560 0.008611 -0.012400
v 0.017573 0.008609 -0.012401
v 0.017575 0.008611 -0.012400
v 0.017560 0.008611 -0.012400
v 0.017571 0.008607 -0.012402
v 0.017560 0.008609 -0.012401
v 0.017560 0.008607 -0.012402
v 0.017571 0.008607 -0.012402
v 0.017573 0.008609 -0.012401
v 0.017560 0.008609 -0.012401
v 0.017570 0.008606 -0.012403
v 0.017571 0.008607 -0.012402
v 0.017560 0.008607 -0.012402
v 0.017573 0.008609 -0.012401
v 0.017560 0.008611 -0.012400
v 0.017560 0.008609 -0.012401
v 0.017560 0.008951 -0.012496
v 0.017600 0.008951 -0.012496
v 0.017560 0.008949 -0.012496
v 0.017560 0.008953 -0.012497
v 0.017600 0.008951 -0.012496
v 0.017560 0.008951 -0.012496
v 0.017560 0.008955 -0.012498
v 0.017600 0.008953 -0.012497
v 0.017560 0.008953 -0.012497
v 0.017600 0.008955 -0.012498
v 0.017600 0.008953 -0.012497
v 0.017560 0.008955 -0.012498
v 0.017600 0.008956 -0.012499
v 0.017600 0.008955 -0.012498
v 0.017560 0.008956 -0.012499
v 0.017600 0.008956 -0.012499
v 0.017560 0.008956 -0.012499
v 0.017560 0.008957 -0.012500
v 0.017600 0.008957 -0.012500
v 0.017560 0.008957 -0.012500
v 0.017560 0.008958 -0.012502
v 0.017600 0.008959 -0.012506
v 0.017600 0.008959 -0.012504
v 0.017560 0.008959 -0.012506
v 0.017600 0.008959 -0.012504
v 0.017560 0.008959 -0.012504
v 0.017560 0.008959 -0.012506
v 0.017600 0.008958 -0.012502
v 0.017560 0.008959 -0.012504
v 0.017600 0.008959 -0.012504
v 0.017560 0.008958 -0.012502
v 0.017560 0.008959 -0.012504
v 0.017600 0.008958 -0.012502
v 0.017560 0.008958 -0.012502
v 0.017600 0.008958 -0.012502
v 0.017600 0.008957 -0.012500
v 0.017560 0.008957 -0.012500
v 0.017600 0.008957 -0.012500
v 0.017600 0.008956 -0.012499
v 0.017560 0.008955 -0.012498
v 0.017560 0.008956 -0.012499
v 0.017600 0.008955 -0.012498
v 0.017600 0.008951 -0.012496
v 0.017600 0.008949 -0.012496
v 0.017560 0.008949 -0.012496
v 0.017560 0.008953 -0.012497
v 0.017600 0.008953 -0.012497
v 0.017600 0.008951 -0.012496
v 0.017560 0.008993 -0.012557
v 0.017575 0.008995 -0.012557
v 0.017577 0.008993 -0.012557
v 0.017560 0.008993 -0.012557
v 0.017560 0.008995 -0.012557
v 0.017575 0.008995 -0.012557
v 0.017575 0.008995 -0.012557
v 0.017560 0.008995 -0.012557
v 0.017573 0.008997 -0.012556
v 0.017573 0.008997 -0.012556
v 0.017560 0.008995 -0.012557
v 0.017560 0.008997 -0.012556
v 0.017560 0.008999 -0.012555
v 0.017560 0.009000 -0.012554
v 0.017570 0.009000 -0.012554
v 0.017571 0.008999 -0.012555
v 0.017560 0.008997 -0.012556
v 0.017560 0.008999 -0.012555
v 0.017560 0.009000 -0.012554
v 0.017560 0.009001 -0.012553
v 0.017569 0.009001 -0.012553
v 0.017571 0.008999 -0.012555
v 0.017573 0.008997 -0.012556
v 0.017560 0.008997 -0.012556
v 0.017560 0.009003 -0.012549
v 0.017560 0.009003 -0.012547
v 0.017567 0.009003 -0.012549
v 0.017560 0.009003 -0.012549
v 0.017567 0.009003 -0.012549
v 0.017560 0.009002 -0.012551
v 0.017560 0.009003 -0.012549
v 0.017567 0.009003 -0.012549
v 0.017568 0.009002 -0.012551
v 0.017560 0.009002 -0.012551
v 0.017560 0.009002 -0.012551
v 0.017568 0.009002 -0.012551
v 0.017560 0.009001 -0.012553
v 0.017560 0.009001 -0.012553
v 0.017568 0.009002 -0.012551
v 0.017569 0.009001 -0.012553
v 0.017560 0.009000 -0.012554
v 0.017569 0.009001 -0.012553
v 0.017570 0.009000 -0.012554
v 0.017570 0.009000 -0.012554
v 0.017571 0.008999 -0.012555
v 0.017560 0.008999 -0.012555
v 0.017510 0.008773 -0.012580
v 0.017510 0.008773 -0.012620
v 0.017560 0.008773 -0.012580
v 0.017560 0.008773 -0.012620
v 0.017560 0.008773 -0.012580
v 0.017470 0.008780 -0.012580
v 0.017510 0.008773 -0.012580
v 0.017470 0.008783 -0.012580
v 0.017510 0.008773 -0.012580
v 0.017560 0.008783 -0.012580
v 0.017560 0.008773 -0.012580
v 0.017560 0.008783 -0.012580
v 0.017510 0.008773 -0.012580
v 0.017510 0.008783 -0.012570
v 0.017560 0.008783 -0.012580
v 0.017560 0.008783 -0.012570
v 0.017470 0.008783 -0.012580
v 0.017560 0.008783 -0.012580
v 0.017470 0.008783 -0.012580
v 0.017470 0.008783 -0.012577
v 0.017510 0.008823 -0.012570
v 0.017510 0.008783 -0.012570
v 0.017560 0.008823 -0.012570
v 0.017510 0.008783 -0.012570
v 0.017560 0.008783 -0.012570
v 0.017560 0.008823 -0.012570
v 0.017470 0.008823 -0.012577
v 0.017510 0.008823 -0.012570
v 0.017470 0.008823 -0.012580
v 0.017510 0.008823 -0.012570
v 0.017560 0.008823 -0.012580
v 0.017560 0.008823 -0.012570
v 0.017560 0.008823 -0.012580
v 0.017510 0.008823 -0.012570
v 0.017510 0.008833 -0.012580
v 0.017560 0.008823 -0.012580
v 0.017560 0.008833 -0.012580
v 0.017470 0.008823 -0.012580
v 0.017560 0.008823 -0.012580
v 0.017470 0.008823 -0.012580
v 0.017470 0.008826 -0.012580
v 0.017510 0.008833 -0.012620
v 0.017510 0.008833 -0.012580
v 0.017560 0.008833 -0.012620
v 0.017510 0.008833 -0.012580
v 0.017560 0.008833 -0.012580
v 0.017560 0.008833 -0.012620
v 0.017470 0.008826 -0.012620
v 0.017510 0.008833 -0.012620
v 0.017470 0.008823 -0.012620
v 0.017510 0.008833 -0.012620
v 0.017560 0.008823 -0.012620
v 0.017560 0.008833 -0.012620
v 0.017560 0.008823 -0.012620
v 0.017510 0.008833 -0.012620
v 0.017510 0.008823 -0.012630
v 0.017560 0.008823 -0.012620
v 0.017560 0.008823 -0.012630
v 0.017470 0.008823 -0.012620
v 0.017560 0.008823 -0.012620
v 0.017470 0.008823 -0.012620
v 0.017470 0.008823 -0.012623
v 0.017510 0.008783 -0.012630
v 0.017510 0.008823 -0.012630
v 0.017560 0.008783 -0.012630
v 0.017510 0.008823 -0.012630
v 0.017560 0.008823 -0.012630
v 0.017560 0.008783 -0.012630
v 0.017470 0.008783 -0.012623
v 0.017510 0.008783 -0.012630
v 0.017470 0.008783 -0.012620
v 0.017510 0.008783 -0.012630
v 0.017560 0.008783 -0.012620
v 0.017560 0.008783 -0.012630
v 0.017560 0.008783 -0.012620
v 0.017510 0.008783 -0.012630
v 0.017560 0.008807 -0.012620
v 0.017470 0.008807 -0.012620
v 0.017560 0.008803 -0.012620
v 0.017560 0.008811 -0.012618
v 0.017560 0.008814 -0.012617
v 0.017470 0.008811 -0.012618
v 0.017470 0.008814 -0.012617
v 0.017470 0.008817 -0.012614
v 0.017560 0.008817 -0.012614
v 0.017560 0.008820 -0.012611
v 0.017470 0.008820 -0.012611
v 0.017560 0.008821 -0.012608
v 0.017470 0.008821 -0.012608
v 0.017560 0.008823 -0.012604
v 0.017470 0.008823 -0.012604
v 0.017560 0.008823 -0.012600
v 0.017560 0.008823 -0.012596
v 0.017470 0.008823 -0.012600
v 0.017470 0.008823 -0.012596
v 0.017560 0.008821 -0.012592
v 0.017470 0.008821 -0.012592
v 0.017560 0.008820 -0.012589
v 0.017560 0.008817 -0.012586
v 0.017470 0.008820 -0.012589
v 0.017470 0.008817 -0.012586
v 0.017470 0.008814 -0.012583
v 0.017560 0.008814 -0.012583
v 0.017560 0.008811 -0.012582
v 0.017470 0.008811 -0.012582
v 0.017560 0.008807 -0.012580
v 0.017470 0.008807 -0.012580
v 0.017560 0.008803 -0.012580
v 0.017470 0.008803 -0.012580
v 0.017560 0.008799 -0.012580
v 0.017470 0.008799 -0.012580
v 0.017560 0.008795 -0.012582
v 0.017470 0.008795 -0.012582
v 0.017560 0.008792 -0.012583
v 0.017560 0.008783 -0.012600
v 0.017470 0.008783 -0.012600
v 0.017470 0.008783 -0.012596
v 0.017560 0.008783 -0.012604
v 0.017470 0.008783 -0.012604
v 0.017560 0.008785 -0.012608
v 0.017470 0.008785 -0.012608
v 0.017560 0.008786 -0.012611
v 0.017470 0.008786 -0.012611
v 0.017560 0.008789 -0.012614
v 0.017560 0.008792 -0.012617
v 0.017470 0.008789 -0.012614
v 0.017470 0.008792 -0.012617
v 0.017470 0.008795 -0.012618
v 0.017560 0.008795 -0.012618
v 0.017470 0.008799 -0.012620
v 0.017560 0.008799 -0.012620
v 0.017470 0.008803 -0.012620
v 0.017560 0.008783 -0.012596
v 0.017470 0.008785 -0.012592
v 0.017560 0.008785 -0.012592
v 0.017470 0.008786 -0.012589
v 0.017560 0.008786 -0.012589
v 0.017470 0.008789 -0.012586
v 0.017560 0.008789 -0.012586
v 0.017470 0.008792 -0.012583
v 0.017510 0.008773 -0.012620
v 0.017560 0.008783 -0.012620
v 0.017560 0.008773 -0.012620
v 0.017470 0.008783 -0.012620
v 0.017560 0.008783 -0.012620
v 0.017510 0.008773 -0.012620
v 0.017470 0.008783 -0.012620
v 0.017510 0.008773 -0.012620
v 0.017470 0.008780 -0.012620
v 0.017470 0.008803 -0.012623
v 0.017470 0.008803 -0.012620
v 0.017470 0.008807 -0.012620
v 0.017470 0.008780 -0.012580
v 0.017470 0.008783 -0.012580
v 0.017470 0.008786 -0.012589
v 0.017470 0.008780 -0.012620
v 0.017470 0.008785 -0.012608
v 0.017470 0.008786 -0.012611
v 0.017470 0.008795 -0.012618
v 0.017470 0.008799 -0.012620
v 0.017470 0.008783 -0.012623
v 0.017470 0.008792 -0.012617
v 0.017470 0.008795 -0.012618
v 0.017470 0.008823 -0.012623
v 0.017470 0.008811 -0.012618
v 0.017470 0.008814 -0.012617
v 0.017470 0.008826 -0.012600
v 0.017470 0.008821 -0.012608
v 0.017470 0.008823 -0.012604
v 0.017470 0.008826 -0.012620
v 0.017470 0.008820 -0.012611
v 0.017470 0.008821 -0.012608
v 0.017470 0.008826 -0.012580
v 0.017470 0.008821 -0.012592
v 0.017470 0.008820 -0.012589
v 0.017470 0.008803 -0.012577
v 0.017470 0.008811 -0.012582
v 0.017470 0.008807 -0.012580
v 0.017470 0.008823 -0.012577
v 0.017470 0.008814 -0.012583
v 0.017470 0.008811 -0.012582
v 0.017470 0.008783 -0.012577
v 0.017470 0.008795 -0.012582
v 0.017470 0.008792 -0.012583
v 0.017470 0.008783 -0.012580
v 0.017470 0.008792 -0.012583
v 0.017470 0.008789 -0.012586
v 0.017470 0.008783 -0.012580
v 0.017470 0.008789 -0.012586
v 0.017470 0.008786 -0.012589
v 0.017470 0.008799 -0.012620
v 0.017470 0.008803 -0.012620
v 0.017470 0.008783 -0.012623
v 0.017470 0.008795 -0.012618
v 0.017470 0.008786 -0.012611
v 0.017470 0.008783 -0.012620
v 0.017470 0.008780 -0.012620
v 0.017470 0.008792 -0.012617
v 0.017470 0.008783 -0.012623
v 0.017470 0.008783 -0.012620
v 0.017470 0.008789 -0.012614
v 0.017470 0.008792 -0.012617
v 0.017470 0.008783 -0.012620
v 0.017470 0.008786 -0.012611
v 0.017470 0.008789 -0.012614
v 0.017470 0.008783 -0.012620
v 0.017470 0.008785 -0.012608
v 0.017470 0.008780 -0.012620
v 0.017470 0.008780 -0.012600
v 0.017470 0.008783 -0.012604
v 0.017470 0.008785 -0.012608
v 0.017470 0.008783 -0.012596
v 0.017470 0.008783 -0.012600
v 0.017470 0.008780 -0.012580
v 0.017470 0.008785 -0.012592
v 0.017470 0.008785 -0.012592
v 0.017470 0.008783 -0.012596
v 0.017470 0.008786 -0.012589
v 0.017470 0.008785 -0.012592
v 0.017470 0.008780 -0.012580
v 0.017470 0.008792 -0.012583
v 0.017470 0.008783 -0.012580
v 0.017470 0.008783 -0.012577
v 0.017470 0.008783 -0.012600
v 0.017470 0.008783 -0.012604
v 0.017470 0.008799 -0.012580
v 0.017470 0.008795 -0.012582
v 0.017470 0.008807 -0.012580
v 0.017470 0.008803 -0.012580
v 0.017470 0.008823 -0.012577
v 0.017470 0.008811 -0.012582
v 0.017470 0.008820 -0.012589
v 0.017470 0.008823 -0.012580
v 0.017470 0.008826 -0.012580
v 0.017470 0.008814 -0.012583
v 0.017470 0.008823 -0.012577
v 0.017470 0.008823 -0.012580
v 0.017470 0.008817 -0.012586
v 0.017470 0.008814 -0.012583
v 0.017470 0.008823 -0.012580
v 0.017470 0.008820 -0.012589
v 0.017470 0.008817 -0.012586
v 0.017470 0.008823 -0.012580
v 0.017470 0.008821 -0.012592
v 0.017470 0.008826 -0.012580
v 0.017470 0.008823 -0.012596
v 0.017470 0.008821 -0.012592
v 0.017470 0.008823 -0.012604
v 0.017470 0.008823 -0.012600
v 0.017470 0.008826 -0.012620
v 0.017470 0.008821 -0.012608
v 0.017470 0.008814 -0.012617
v 0.017470 0.008823 -0.012620
v 0.017470 0.008823 -0.012623
v 0.017470 0.008820 -0.012611
v 0.017470 0.008826 -0.012620
v 0.017470 0.008823 -0.012620
v 0.017470 0.008817 -0.012614
v 0.017470 0.008820 -0.012611
v 0.017470 0.008823 -0.012620
v 0.017470 0.008814 -0.012617
v 0.017470 0.008817 -0.012614
v 0.017470 0.008823 -0.012620
v 0.017470 0.008811 -0.012618
v 0.017470 0.008823 -0.012623
v 0.017470 0.008803 -0.012580
v 0.017470 0.008799 -0.012580
v 0.017470 0.008807 -0.012620
v 0.017470 0.008811 -0.012618
v 0.017470 0.008795 -0.012582
v 0.017470 0.008783 -0.012577
v 0.017470 0.008823 -0.012600
v 0.017470 0.008823 -0.012596
v 0.017560 0.008811 -0.012618
v 0.017560 0.008807 -0.012620
v 0.017560 0.008803 -0.012620
v 0.017560 0.008814 -0.012617
v 0.017560 0.008811 -0.012618
v 0.017560 0.008803 -0.012620
v 0.017560 0.008817 -0.012614
v 0.017560 0.008814 -0.012617
v 0.017560 0.008803 -0.012620
v 0.017560 0.008820 -0.012611
v 0.017560 0.008817 -0.012614
v 0.017560 0.008803 -0.012620
v 0.017560 0.008821 -0.012608
v 0.017560 0.008803 -0.012620
v 0.017560 0.008823 -0.012604
v 0.017560 0.008821 -0.012608
v 0.017560 0.008820 -0.012611
v 0.017560 0.008803 -0.012620
v 0.017560 0.008823 -0.012604
v 0.017560 0.008803 -0.012620
v 0.017560 0.008823 -0.012600
v 0.017560 0.008823 -0.012600
v 0.017560 0.008803 -0.012620
v 0.017560 0.008823 -0.012596
v 0.017560 0.008803 -0.012620
v 0.017560 0.008821 -0.012592
v 0.017560 0.008823 -0.012596
v 0.017560 0.008803 -0.012620
v 0.017560 0.008820 -0.012589
v 0.017560 0.008821 -0.012592
v 0.017560 0.008803 -0.012620
v 0.017560 0.008817 -0.012586
v 0.017560 0.008820 -0.012589
v 0.017560 0.008811 -0.012582
v 0.017560 0.008814 -0.012583
v 0.017560 0.008803 -0.012620
v 0.017560 0.008803 -0.012620
v 0.017560 0.008814 -0.012583
v 0.017560 0.008817 -0.012586
v 0.017560 0.008807 -0.012580
v 0.017560 0.008803 -0.012620
v 0.017560 0.008803 -0.012580
v 0.017560 0.008803 -0.012580
v 0.017560 0.008803 -0.012620
v 0.017560 0.008799 -0.012580
v 0.017560 0.008803 -0.012620
v 0.017560 0.008795 -0.012582
v 0.017560 0.008799 -0.012580
v 0.017560 0.008803 -0.012620
v 0.017560 0.008792 -0.012583
v 0.017560 0.008795 -0.012582
v 0.017560 0.008803 -0.012620
v 0.017560 0.008789 -0.012586
v 0.017560 0.008792 -0.012583
v 0.017560 0.008785 -0.012592
v 0.017560 0.008786 -0.012589
v 0.017560 0.008803 -0.012620
v 0.017560 0.008803 -0.012620
v 0.017560 0.008786 -0.012589
v 0.017560 0.008789 -0.012586
v 0.017560 0.008783 -0.012596
v 0.017560 0.008785 -0.012592
v 0.017560 0.008803 -0.012620
v 0.017560 0.008783 -0.012600
v 0.017560 0.008783 -0.012596
v 0.017560 0.008803 -0.012620
v 0.017560 0.008783 -0.012600
v 0.017560 0.008803 -0.012620
v 0.017560 0.008783 -0.012604
v 0.017560 0.008783 -0.012604
v 0.017560 0.008803 -0.012620
v 0.017560 0.008785 -0.012608
v 0.017560 0.008785 -0.012608
v 0.017560 0.008803 -0.012620
v 0.017560 0.008786 -0.012611
v 0.017560 0.008803 -0.012620
v 0.017560 0.008792 -0.012617
v 0.017560 0.008789 -0.012614
v 0.017560 0.008786 -0.012611
v 0.017560 0.008803 -0.012620
v 0.017560 0.008789 -0.012614
v 0.017560 0.008803 -0.012620
v 0.017560 0.008795 -0.012618
v 0.017560 0.008792 -0.012617
v 0.017560 0.008803 -0.012620
v 0.017560 0.008807 -0.012580
v 0.017560 0.008811 -0.012582
v 0.017560 0.008799 -0.012620
v 0.017560 0.008795 -0.012618
v 0.017560 0.008803 -0.012620
v 0.017470 0.008803 -0.012577
v 0.017470 0.008783 -0.012577
v 0.017510 0.008783 -0.012570
v 0.017470 0.008823 -0.012577
v 0.017470 0.008803 -0.012577
v 0.017470 0.008803 -0.012577
v 0.017510 0.008783 -0.012570
v 0.017470 0.008826 -0.012600
v 0.017470 0.008826 -0.012580
v 0.017510 0.008833 -0.012580
v 0.017470 0.008826 -0.012620
v 0.017470 0.008826 -0.012600
v 0.017470 0.008826 -0.012600
v 0.017510 0.008833 -0.012580
v 0.017470 0.008803 -0.012623
v 0.017470 0.008823 -0.012623
v 0.017510 0.008823 -0.012630
v 0.017470 0.008783 -0.012623
v 0.017470 0.008803 -0.012623
v 0.017470 0.008803 -0.012623
v 0.017510 0.008823 -0.012630
v 0.017470 0.008780 -0.012600
v 0.017470 0.008780 -0.012620
v 0.017470 0.008780 -0.012580
v 0.017470 0.008780 -0.012600
v 0.017470 0.008780 -0.012600
v 0.017530 0.008763 -0.012422
v 0.017560 0.008803 -0.012422
v 0.017530 0.008843 -0.012422
v 0.017560 0.008803 -0.012422
v 0.017560 0.008843 -0.012422
v 0.017560 0.008803 -0.012422
v 0.017560 0.008763 -0.012422
v 0.017530 0.008763 -0.012442
v 0.017560 0.008763 -0.012442
v 0.017530 0.008763 -0.012422
v 0.017530 0.008763 -0.012422
v 0.017560 0.008763 -0.012442
v 0.017560 0.008763 -0.012422
v 0.017530 0.008843 -0.012442
v 0.017560 0.008843 -0.012442
v 0.017530 0.008763 -0.012442
v 0.017530 0.008763 -0.012442
v 0.017560 0.008843 -0.012442
v 0.017560 0.008763 -0.012442
v 0.017530 0.008843 -0.012422
v 0.017560 0.008843 -0.012422
v 0.017530 0.008843 -0.012442
v 0.017530 0.008843 -0.012442
v 0.017560 0.008843 -0.012422
v 0.017560 0.008843 -0.012442
v 0.017530 0.008843 -0.012422
v 0.017530 0.008843 -0.012442
v 0.017530 0.008763 -0.012422
v 0.017530 0.008843 -0.012442
v 0.017530 0.008763 -0.012442
v 0.017530 0.008763 -0.012422
v 0.017600 0.008803 -0.012798
v 0.017573 0.008803 -0.012795
v 0.017600 0.008970 -0.012798
v 0.017600 0.008636 -0.012798
v 0.017573 0.008609 -0.012795
v 0.017600 0.008636 -0.012798
v 0.017600 0.008803 -0.012798
v 0.017573 0.008997 -0.012795
v 0.017600 0.008970 -0.012798
v 0.017573 0.008997 -0.012800
v 0.017573 0.008803 -0.012795
v 0.017573 0.008803 -0.012800
v 0.017573 0.008997 -0.012800
v 0.017573 0.008997 -0.012795
v 0.017573 0.008803 -0.012795
v 0.017573 0.008609 -0.012800
v 0.017573 0.008803 -0.012795
v 0.017573 0.008609 -0.012795
v 0.017573 0.008803 -0.012795
v 0.017573 0.008609 -0.012800
v 0.017573 0.008803 -0.012800
vn 1.0000 -0.0000 -0.0000
vn 1.0000 -0.0001 -0.0000
vn 1.0000 0.0001 -0.0000
vn 1.0000 0.0003 -0.0000
vn 1.0000 -0.0002 -0.0000
vn 1.0000 -0.0003 -0.0000
vn 0.7071 0.7072 -0.0000
vn 0.7068 0.7074 -0.0000
vn 0.7070 0.7072 -0.0000
vn 0.7070 0.7072 0.0001
vn 0.7071 0.7071 -0.0000
vn 0.7069 0.7073 -0.0000
vn -0.0000 -0.0000 -1.0000
vn 0.0002 -0.0000 -1.0000
vn 0.7070 -0.7072 -0.0000
vn 0.7071 -0.7071 -0.0000
vn 0.7070 -0.7072 -0.0001
vn 0.7068 -0.7074 -0.0002
vn 0.7072 -0.7071 -0.0000
vn 0.7070 -0.7072 -0.0002
vn 0.7068 -0.7074 -0.0000
vn -1.0000 -0.0000 -0.0000
vn -1.0000 -0.0002 -0.0000
vn -1.0000 0.0001 -0.0000
vn -1.0000 -0.0001 -0.0000
vn -1.0000 0.0003 -0.0000
vn -1.0000 0.0002 -0.0000
vn -0.0000 1.0000 -0.0000
vn 0.7072 0.7070 -0.0000
vn 0.7073 0.7069 -0.0000
vn 0.7071 0.7071 -0.0001
vn 0.7074 0.7068 0.0002
vn -0.0000 -1.0000 -0.0000
vn 0.7070 -0.7072 0.0002
vn 0.7071 -0.7072 -0.0000
vn 0.7071 -0.7071 -0.0001
vn -0.0000 -0.0000 1.0000
vn -0.0000 -0.0980 -0.9952
vn -0.0000 -0.1951 -0.9808
vn -0.0000 -0.2903 -0.9569
vn -0.0000 -0.3827 -0.9239
vn -0.0000 -0.4714 -0.8819
vn -0.0000 -0.5556 -0.8315
vn -0.0000 -0.5555 -0.8315
vn -0.0000 -0.6344 -0.7730
vn -0.0000 -0.7071 -0.7071
vn -0.0000 -0.7072 -0.7070
vn -0.0000 -0.7730 -0.6344
vn -0.0000 -0.8314 -0.5556
vn -0.0000 -0.8315 -0.5555
vn -0.0000 -0.8819 -0.4714
vn -0.0000 -0.9239 -0.3827
vn -0.0000 -0.9952 -0.0980
vn -0.0000 -0.9808 -0.1951
vn -0.0000 -0.9569 -0.2903
vn -0.0000 -0.8315 -0.5556
vn -0.0000 -0.5556 -0.8314
vn -0.0000 -0.9952 0.0980
vn -0.0000 -0.9808 0.1951
vn -0.0000 -0.9569 0.2903
vn -0.0000 -0.9239 0.3827
vn -0.0000 -0.8819 0.4714
vn -0.0000 -0.8315 0.5555
vn -0.0000 -0.7730 0.6344
vn -0.0000 -0.8314 0.5556
vn -0.0000 -0.7071 0.7071
vn -0.0000 -0.6344 0.7730
vn -0.0000 -0.5556 0.8314
vn -0.0000 -0.5556 0.8315
vn -0.0000 -0.4714 0.8819
vn -0.0000 -0.3827 0.9239
vn -0.0000 -0.0980 0.9952
vn -0.0000 -0.1951 0.9808
vn -0.0000 -0.2903 0.9569
vn -0.0000 -0.5555 0.8315
vn -0.0000 -0.7072 0.7070
vn -0.0000 -0.8315 0.5556
vn -0.0000 0.0980 -0.9952
vn -0.0000 0.1951 -0.9808
vn -0.0000 0.2903 -0.9569
vn -0.0000 0.3827 -0.9239
vn -0.0000 0.4714 -0.8819
vn -0.0000 0.5555 -0.8315
vn -0.0000 0.5556 -0.8315
vn -0.0000 0.5556 -0.8314
vn -0.0000 0.6344 -0.7730
vn -0.0000 0.7730 -0.6344
vn -0.0000 0.8315 -0.5556
vn -0.0000 0.8315 -0.5555
vn -0.0000 0.8819 -0.4714
vn -0.0000 1.0000 -0.0001
vn -0.0000 0.9952 -0.0980
vn -0.0000 0.9808 -0.1951
vn -0.0000 0.9569 -0.2903
vn -0.0000 0.9239 -0.3827
vn -0.0000 0.8314 -0.5556
vn -0.0000 0.7072 -0.7070
vn -0.0000 0.7070 -0.7072
vn -0.0000 0.7071 -0.7071
vn -0.0000 0.9952 0.0980
vn -0.0000 0.9808 0.1951
vn -0.0000 0.9569 0.2903
vn -0.0000 0.9239 0.3827
vn -0.0000 0.8819 0.4714
vn -0.0000 0.8315 0.5555
vn -0.0000 0.7730 0.6344
vn -0.0000 0.8314 0.5556
vn -0.0000 0.7072 0.7070
vn -0.0000 0.7071 0.7071
vn -0.0000 0.6344 0.7730
vn -0.0000 0.5556 0.8314
vn -0.0000 0.5556 0.8315
vn -0.0000 0.4714 0.8819
vn -0.0000 0.3827 0.9239
vn -0.0000 0.0980 0.9952
vn -0.0000 0.1951 0.9808
vn -0.0000 0.2903 0.9569
vn -0.0000 0.7069 0.7073
vn -0.0000 0.8315 0.5556
vn -0.0000 1.0000 0.0001
vn -0.0000 0.9808 0.1950
vn -0.0000 0.9808 0.1952
vn -0.0000 0.7068 0.7074
vn -0.0000 0.8314 0.5557
vn -0.0000 0.1950 0.9808
vn -0.0000 0.3826 0.9239
vn -0.0000 0.1952 0.9808
vn -0.0000 0.5555 0.8315
vn -0.0000 -0.1950 0.9808
vn -0.0000 -0.3826 0.9239
vn -0.0000 -0.7068 0.7074
vn -0.0000 -0.8314 0.5557
vn -0.0000 -0.9808 0.1950
vn -0.0000 -0.9808 0.1952
vn -0.0000 -0.7074 0.7068
vn -0.0000 -0.7069 0.7073
vn -0.0000 -0.9808 -0.1950
vn -0.0000 -0.9808 -0.1952
vn -0.0000 -0.7068 -0.7074
vn -0.0000 -0.8314 -0.5557
vn -0.0000 -0.7074 -0.7068
vn -0.0000 -0.1950 -0.9808
vn -0.0000 -0.3826 -0.9239
vn -0.0000 -0.7069 -0.7073
vn -0.0000 0.7070 0.7072
vn -0.0000 0.5557 0.8314
vn -0.0000 0.9239 0.3826
vn -0.0000 0.9808 -0.1952
vn -0.0000 0.9239 -0.3826
vn -0.0000 0.8314 -0.5557
vn -0.0000 0.5557 -0.8314
vn -0.0000 0.9808 -0.1950
vn -0.0000 0.1950 -0.9808
vn -0.0000 0.1952 -0.9808
vn -0.0000 0.3826 -0.9239
vn -0.0000 -0.9239 0.3826
vn -0.0000 -0.7070 0.7072
vn -0.0000 -0.5557 0.8314
vn -0.0000 -0.1952 0.9808
vn -0.0000 -0.7070 -0.7072
vn -0.0000 -0.5557 -0.8314
vn -0.0000 -0.9239 -0.3826
vn -0.0000 -0.1952 -0.9808
vn -0.0000 0.7068 -0.7074
vn -0.0000 0.7069 -0.7073
vn -0.0000 -1.0000 -0.0001
vn 0.0001 -0.0000 1.0000
vn -0.0000 -1.0000 0.0001
vn -0.0000 -0.7071 0.7072
vn -0.0000 -0.9238 0.3828
vn -0.0000 -0.9238 -0.3828
vn -0.0000 -0.7071 -0.7072
vn -0.0000 0.9238 0.3828
vn -0.0000 0.9238 -0.3828
vn -0.0001 -0.0000 -1.0000
vn -1.0000 -0.0003 -0.0000
vn -0.1723 -0.0000 0.9850
vn -0.0001 -0.0000 1.0000
vn -0.1724 -0.0000 0.9850
vn -0.1724 0.9850 -0.0000
vn -0.0001 1.0000 -0.0000
vn -0.1724 -0.0000 -0.9850
vn -0.1724 -0.9850 -0.0000
vn -0.1104 -0.0000 -0.9939
s 1
usemtl Diffuse_51_51_51_100.031
f 1//1 2//1 3//1
f 4//1 5//1 6//1
f 7//1 8//1 9//1
f 10//1 11//1 12//1
f 13//1 14//1 15//1
f 3//1 16//1 1//1
f 3//1 2//1 17//1
f 18//2 13//1 1//1
f 19//1 1//1 16//1
f 20//1 1//1 19//1
f 21//1 1//1 20//1
f 22//2 1//1 21//1
f 23//3 1//1 22//2
f 1//1 23//3 24//4
f 1//1 24//4 25//1
f 1//1 25//1 26//1
f 1//1 26//1 18//2
f 13//1 18//2 27//1
f 13//1 27//1 28//3
f 13//1 28//3 29//2
f 13//1 29//2 30//2
f 13//1 30//2 14//1
f 31//1 14//1 32//1
f 14//1 33//1 32//1
f 34//1 35//1 36//1
f 33//1 35//1 34//1
f 36//1 37//1 38//1
f 38//1 39//1 40//1
f 39//1 41//1 40//1
f 41//1 42//1 43//1
f 42//1 44//1 43//1
f 45//1 46//1 47//1
f 45//1 47//1 48//1
f 48//1 49//1 50//1
f 51//1 50//1 49//1
f 52//1 53//1 51//1
f 54//1 53//1 52//1
f 55//1 54//1 56//1
f 55//1 56//1 57//1
f 58//1 57//1 59//1
f 60//1 61//1 62//1
f 61//1 59//1 62//1
f 60//1 62//1 63//1
f 58//1 59//1 61//1
f 64//1 65//1 66//1
f 67//1 65//1 64//1
f 68//1 69//1 70//1
f 69//1 71//1 70//1
f 72//1 4//1 68//1
f 68//1 73//1 74//3
f 75//1 4//1 72//1
f 76//1 73//1 68//1
f 77//1 4//1 75//1
f 78//1 4//1 77//1
f 79//1 4//1 78//1
f 80//5 4//1 79//1
f 4//1 80//5 81//6
f 76//1 68//1 82//1
f 4//1 83//2 84//1
f 85//1 86//1 63//1
f 85//1 65//1 67//1
f 85//1 67//1 86//1
f 63//1 86//1 60//1
f 5//1 4//1 87//1
f 9//1 88//1 7//1
f 9//1 8//1 89//1
f 90//3 91//1 7//1
f 92//1 7//1 88//1
f 93//1 7//1 92//1
f 94//1 7//1 93//1
f 95//1 7//1 94//1
f 96//3 7//1 95//1
f 7//1 96//3 97//3
f 7//1 97//3 98//1
f 7//1 98//1 99//1
f 7//1 99//1 90//3
f 91//1 90//3 100//1
f 91//1 100//1 101//2
f 91//1 101//2 102//3
f 91//1 102//3 103//3
f 91//1 103//3 69//1
f 91//1 69//1 68//1
f 70//1 82//1 68//1
f 4//1 81//6 83//2
f 84//1 87//1 4//1
f 6//1 5//1 104//1
f 66//1 70//1 71//1
f 66//1 71//1 64//1
f 32//1 33//1 34//1
f 57//1 58//1 55//1
f 56//1 54//1 52//1
f 51//1 53//1 50//1
f 47//1 49//1 48//1
f 105//1 46//1 45//1
f 44//1 42//1 106//1
f 44//1 106//1 105//1
f 43//1 40//1 41//1
f 39//1 38//1 37//1
f 37//1 36//1 35//1
f 107//1 31//1 32//1
f 108//1 31//1 107//1
f 109//1 31//1 108//1
f 31//1 109//1 110//1
f 31//1 111//3 10//1
f 111//3 112//1 10//1
f 113//5 10//1 114//1
f 10//1 115//1 114//1
f 116//3 10//1 113//5
f 117//3 10//1 116//3
f 10//1 117//3 118//3
f 10//1 118//3 119//1
f 112//1 115//1 10//1
f 31//1 110//1 111//3
f 74//3 72//1 68//1
f 120//1 10//1 119//1
f 106//1 46//1 105//1
f 11//1 10//1 120//1
f 11//1 121//1 12//1
f 15//1 14//1 31//1
f 122//7 123//8 124//9
f 124//9 123//8 125//10
f 126//11 122//7 124//9
f 124//9 127//11 128//7
f 129//9 130//11 124//9
f 124//9 130//11 127//11
f 131//8 129//9 124//9
f 124//11 132//11 133//9
f 133//11 134//11 135//11
f 133//9 136//12 137//9
f 124//11 133//9 137//9
f 126//11 124//9 128//7
f 138//11 124//11 139//11
f 140//13 141//13 142//13
f 141//13 140//13 143//13
f 143//13 144//13 145//14
f 143//13 146//13 147//13
f 143//13 145//14 141//13
f 148//15 149//15 150//16
f 149//15 151//16 150//16
f 150//16 152//16 153//16
f 154//17 150//17 155//18
f 154//17 156//16 150//17
f 150//17 157//16 158//19
f 150//17 159//16 157//16
f 160//16 150//17 158//19
f 155//18 150//17 161//20
f 162//16 149//16 163//16
f 164//21 150//17 160//16
f 159//16 150//17 156//16
f 149//21 165//21 166//21
f 167//22 168//22 169//22
f 170//22 171//23 172//22
f 170//22 173//22 174//22
f 175//24 176//22 177//22
f 178//22 179//22 180//22
f 180//22 179//22 181//24
f 182//22 183//22 176//22
f 184//22 181//24 185//25
f 186//22 184//22 187//22
f 181//24 184//22 180//22
f 188//22 189//22 184//22
f 185//25 190//25 184//22
f 174//22 191//22 192//25
f 193//24 170//22 192//25
f 184//22 194//22 180//22
f 195//25 196//22 197//22
f 198//22 195//25 197//22
f 199//22 198//22 197//22
f 200//22 199//22 197//22
f 201//22 200//22 197//22
f 202//22 201//22 197//22
f 203//24 202//22 197//22
f 203//24 169//22 168//22
f 204//25 205//22 206//22
f 204//25 207//22 205//22
f 205//22 207//22 208//22
f 209//25 205//22 208//22
f 209//25 210//25 205//22
f 211//24 210//25 212//23
f 210//25 213//22 214//25
s 0
f 210//22 215//22 216//22
s 1
f 210//22 217//22 215//22
f 218//24 219//22 220//22
f 221//22 218//24 222//22
f 221//22 223//24 218//24
f 221//22 224//22 223//24
f 221//22 225//22 224//22
s 0
f 226//22 221//22 227//22
s 1
f 226//22 228//22 221//22
f 229//22 227//22 221//22
f 219//22 218//24 210//25
f 221//22 222//22 230//22
f 231//22 219//22 210//25
f 232//22 231//22 210//25
f 233//22 232//22 210//25
f 234//26 233//22 210//25
f 210//25 209//25 234//26
f 210//25 211//24 213//22
f 210//25 216//22 212//23
f 206//22 235//22 236//23
f 236//23 235//22 237//22
f 237//22 235//22 238//22
f 238//22 235//22 239//22
f 240//25 241//25 235//22
f 235//22 241//25 242//22
f 243//25 235//22 244//25
f 244//25 235//22 172//22
f 172//22 235//22 170//22
f 170//22 235//22 176//22
f 176//22 235//22 177//22
f 171//23 170//22 245//22
f 174//22 192//25 170//22
f 176//22 179//22 178//22
f 246//22 186//22 191//22
f 190//25 188//22 184//22
f 191//22 186//22 247//24
f 189//22 248//24 184//22
f 249//24 247//24 186//22
f 187//22 184//22 248//24
f 170//22 193//24 250//22
f 186//22 251//22 252//23
f 253//22 186//22 252//23
f 186//22 254//22 251//22
f 253//22 249//24 186//22
f 255//22 256//22 257//22
f 258//22 255//22 257//22
f 259//22 260//22 261//22
f 261//22 260//22 262//22
f 263//22 264//22 265//22
f 266//22 267//22 268//22
f 269//27 270//27 271//27
f 268//22 272//22 273//22
f 273//22 274//22 275//22
f 275//22 276//22 277//22
f 277//22 278//22 279//22
f 279//22 280//22 281//22
f 263//22 259//22 282//22
f 283//22 281//22 284//22
f 285//22 283//22 286//22
f 287//22 259//22 261//22
f 288//22 254//22 187//22
f 288//22 258//22 257//22
f 288//22 187//22 258//22
f 254//22 186//22 187//22
f 246//22 289//22 186//22
f 206//22 236//23 204//25
f 256//22 255//22 262//22
f 239//22 235//22 242//22
f 260//22 256//22 262//22
f 214//25 205//22 210//25
f 176//22 290//22 291//25
f 221//22 228//22 225//22
f 292//22 293//22 294//22
f 292//22 285//22 293//22
f 285//22 295//25 293//22
f 220//22 222//22 218//24
f 296//22 285//22 297//22
f 298//25 299//22 300//22
f 301//22 298//25 302//22
f 301//22 303//25 298//25
f 301//22 304//22 303//25
f 301//22 305//24 304//22
s 0
f 306//22 301//22 307//22
s 1
f 306//22 308//22 301//22
f 309//22 307//22 301//22
f 299//22 298//25 310//22
f 301//22 302//22 311//22
f 312//22 299//22 313//22
f 314//22 312//22 315//22
f 316//22 314//22 317//22
f 318//22 316//22 319//22
f 320//22 321//22 318//22
f 322//22 323//22 324//22
f 325//22 326//22 323//22
f 327//24 328//24 329//24
f 330//22 331//22 328//22
f 332//23 287//23 331//23
f 333//22 334//22 287//22
f 335//22 266//22 270//22
f 285//22 336//24 283//22
f 337//22 259//22 287//22
f 285//22 292//22 336//24
f 285//22 338//24 295//25
f 285//22 339//22 338//24
f 285//22 340//22 341//23
s 0
f 285//22 296//22 340//22
s 1
f 341//23 339//22 285//22
f 246//22 191//22 174//22
f 245//22 170//22 250//22
f 291//25 179//22 176//22
f 183//22 290//22 176//22
f 176//22 178//22 342//22
f 343//24 344//22 177//22
f 177//22 344//22 345//24
f 346//22 343//24 177//22
f 347//25 346//22 177//22
f 175//24 177//22 345//24
f 177//22 348//25 347//25
f 177//22 349//22 348//25
f 177//22 350//24 349//22
f 169//22 351//27 177//22
f 169//22 352//24 351//27
f 169//22 203//24 352//24
f 352//24 203//24 353//22
f 354//22 355//25 197//22
f 203//24 355//25 356//22
f 357//22 197//22 358//22
f 357//22 354//22 197//22
f 358//22 197//22 359//22
f 359//22 197//22 360//22
f 360//22 197//22 361//27
f 353//22 203//24 356//22
f 362//22 361//27 363//22
f 177//22 351//27 350//24
f 363//22 364//22 365//22
f 361//27 366//22 364//22
f 367//25 271//25 265//25
f 182//22 176//22 175//24
f 368//22 324//22 321//22
f 369//23 329//23 326//23
f 370//25 366//22 361//27
f 371//22 361//27 372//22
f 371//22 370//25 361//27
f 372//22 361//27 373//22
f 308//22 305//24 301//22
f 361//27 364//22 363//22
f 300//22 302//22 298//25
f 374//25 361//27 375//22
f 197//22 355//25 203//24
f 167//22 206//22 168//22
f 240//25 235//22 243//25
f 168//22 206//22 205//22
f 361//27 362//22 360//22
f 373//22 361//27 374//25
f 376//28 377//28 378//28
f 379//28 377//28 380//28
f 381//28 382//28 383//28
f 384//28 385//28 386//28
f 387//11 388//11 389//11
f 390//11 391//11 392//11
f 393//29 394//29 395//29
f 396//11 397//11 398//11
f 398//30 399//30 400//30
f 401//11 402//7 400//11
f 403//9 404//9 405//9
f 406//11 404//11 402//11
f 407//9 403//9 408//9
f 409//11 396//11 393//11
f 410//11 411//11 412//11
f 413//31 414//31 415//31
f 416//11 417//11 415//11
f 416//11 418//11 419//11
f 420//11 421//11 422//11
f 423//32 418//32 424//32
f 425//9 426//9 427//9
f 427//9 428//9 422//9
f 429//11 424//11 421//11
f 430//33 431//33 432//33
f 433//33 431//33 434//33
f 435//16 436//16 437//16
f 438//16 439//16 440//16
f 441//34 442//34 443//34
f 444//16 445//16 446//16
f 446//15 447//15 448//15
f 449//16 450//16 448//16
f 451//16 452//16 453//16
f 454//16 452//16 450//16
f 455//15 451//15 456//15
f 457//15 444//15 441//15
f 458//35 459//35 460//35
f 461//36 462//36 463//36
f 464//16 465//16 463//16
f 464//16 466//16 467//16
f 468//16 469//16 470//16
f 471//16 466//16 472//16
f 473//15 474//15 475//15
f 475//16 476//16 470//16
f 477//16 472//16 469//16
f 478//37 479//37 480//37
f 481//37 482//37 483//37
f 484//37 485//37 486//37
f 487//37 488//37 489//37
f 490//37 491//37 492//37
f 493//33 494//33 495//33
f 496//33 497//33 498//33
f 499//33 500//33 501//33
f 502//33 503//33 504//33
f 505//38 506//39 507//38
f 508//39 509//40 510//39
f 511//40 512//40 513//39
f 514//41 515//41 516//40
f 517//42 518//41 519//41
f 520//43 521//42 522//42
f 523//44 524//42 525//44
f 526//45 527//43 528//45
f 529//45 530//45 531//46
f 532//47 533//47 534//48
f 535//46 536//48 537//48
f 538//48 539//49 540//49
f 541//50 542//51 543//50
f 544//51 545//52 546//51
f 547//52 548//52 549//51
f 550//38 551//38 552//13
f 553//53 554//33 555//33
f 556//53 557//33 558//53
f 559//53 560//53 561//54
f 562//53 563//54 564//54
f 565//54 566//55 567//54
f 568//55 569//55 570//54
f 571//52 572//55 573//55
f 574//52 575//55 576//52
f 577//50 578//51 579//51
f 580//48 581//48 582//56
f 583//46 584//45 585//46
f 586//45 587//57 588//57
f 589//42 590//42 591//41
f 592//40 593//41 594//40
f 595//38 596//13 597//13
f 598//39 599//39 600//38
f 601//13 602//13 603//13
f 604//13 605//13 606//13
f 607//28 608//28 609//28
f 610//28 611//28 612//28
f 613//28 614//28 615//28
f 616//28 617//28 618//28
f 619//37 620//37 621//37
f 622//37 623//37 624//37
f 625//58 626//59 627//58
f 628//59 629//60 630//59
f 631//60 632//60 633//59
f 634//61 635//61 636//60
f 637//62 638//61 639//61
f 640//63 641//62 642//62
f 643//63 644//62 645//63
f 646//64 647//65 648//64
f 649//64 650//64 651//66
f 652//66 653//66 654//67
f 655//66 656//67 657//67
f 658//67 659//68 660//68
f 661//69 662//70 663//69
f 664//70 665//71 666//70
f 667//71 668//71 669//70
f 670//58 671//58 672//33
f 673//72 674//37 675//37
f 676//72 677//37 678//72
f 679//72 680//72 681//73
f 682//72 683//73 684//73
f 685//73 686//74 687//73
f 688//74 689//74 690//73
f 691//71 692//74 693//74
f 694//71 695//74 696//71
f 697//75 698//70 699//70
f 700//67 701//67 702//68
f 703//76 704//64 705//76
f 706//64 707//77 708//77
f 709//62 710//62 711//61
f 712//60 713//61 714//60
f 715//58 716//33 717//33
f 718//59 719//59 720//58
f 721//13 722//13 723//13
f 724//13 725//13 726//13
f 727//13 728//13 729//13
f 730//37 731//37 732//37
f 733//37 734//37 735//37
f 736//37 737//37 738//37
f 739//28 740//28 741//28
f 742//28 743//28 744//28
f 745//13 746//78 747//13
f 748//78 749//78 750//13
f 751//79 752//78 753//78
f 754//79 755//78 756//79
f 757//79 758//79 759//80
f 760//79 761//80 762//80
f 763//80 764//81 765//80
f 766//81 767//81 768//80
f 769//82 770//81 771//81
f 772//82 773//81 774//82
f 775//82 776//82 777//83
f 778//82 779//84 780//84
f 781//85 782//86 783//85
f 784//86 785//86 786//85
f 787//87 788//88 789//88
f 790//89 791//89 792//90
f 793//91 794//92 795//91
f 796//92 797//92 798//28
f 799//93 800//92 801//92
f 802//93 803//92 804//93
f 805//93 806//93 807//94
f 808//93 809//94 810//94
f 811//94 812//95 813//94
f 814//95 815//95 816//94
f 817//90 818//95 819//95
f 820//90 821//95 822//90
f 823//90 824//90 825//89
f 826//96 827//87 828//87
f 829//87 830//97 831//87
f 832//98 833//98 834//87
f 835//86 836//99 837//99
f 838//86 839//86 840//99
f 841//13 842//13 843//13
f 844//13 845//13 846//13
f 847//33 848//33 849//33
f 850//33 851//33 852//33
f 853//33 854//33 855//33
f 856//33 857//33 858//33
f 859//37 860//37 861//37
f 862//37 863//37 864//37
f 865//28 866//100 867//28
f 868//100 869//101 870//100
f 871//101 872//101 873//100
f 874//102 875//102 876//101
f 877//103 878//103 879//102
f 880//104 881//103 882//103
f 883//105 884//104 885//104
f 886//105 887//104 888//105
f 889//106 890//107 891//106
f 892//106 893//106 894//108
f 895//109 896//109 897//110
f 898//109 899//110 900//110
f 901//110 902//111 903//111
f 904//112 905//113 906//112
f 907//113 908//114 909//113
f 910//114 911//114 912//113
f 913//115 914//37 915//37
f 916//115 917//37 918//115
f 919//115 920//115 921//116
f 922//115 923//116 924//116
f 925//116 926//117 927//116
f 928//117 929//117 930//116
f 931//114 932//117 933//117
f 934//114 935//117 936//114
f 937//112 938//113 939//113
f 940//110 941//110 942//112
f 943//118 944//106 945//118
f 946//106 947//119 948//119
f 949//104 950//104 951//103
f 952//102 953//103 954//102
f 955//100 956//120 957//100
f 958//101 959//101 960//102
f 961//13 962//13 963//13
f 964//13 965//13 966//13
f 967//13 968//13 969//13
f 970//37 971//37 972//37
f 973//37 974//37 975//37
f 976//37 977//37 978//37
f 979//28 980//28 981//121
f 982//121 983//28 984//121
f 985//122 986//103 987//101
f 988//101 989//103 990//103
f 991//103 992//103 993//105
f 994//119 995//103 996//119
f 997//123 998//124 999//124
f 1000//111 1001//108 1002//108
f 1003//109 1004//109 1005//107
f 1006//125 1007//37 1008//37
f 1009//125 1010//125 1011//37
f 1012//116 1013//126 1014//116
f 1015//127 1016//126 1017//126
f 1018//114 1019//114 1020//112
f 1021//128 1022//114 1023//128
f 1024//118 1025//111 1026//111
f 1027//37 1028//129 1029//37
f 1030//37 1031//129 1032//129
f 1033//73 1034//73 1035//130
f 1036//130 1037//73 1038//130
f 1039//68 1040//66 1041//66
f 1042//75 1043//71 1044//75
f 1045//131 1046//132 1047//132
f 1048//69 1049//71 1050//71
f 1051//133 1052//33 1053//33
f 1054//133 1055//133 1056//33
f 1057//59 1058//61 1059//134
f 1060//59 1061//61 1062//61
f 1063//61 1064//61 1065//63
f 1066//77 1067//61 1068//63
f 1069//135 1070//65 1071//135
f 1072//136 1073//69 1074//68
f 431//33 1075//33 1076//137
f 1077//137 431//33 1078//137
f 1079//138 1080//52 1081//54
f 1082//54 1083//52 1084//52
f 1085//52 1086//52 1087//50
f 1088//50 1089//52 1090//56
f 1091//139 1092//140 1093//140
f 1094//57 1095//46 1096//46
f 1097//141 1098//141 1099//49
f 1100//142 1101//13 1102//13
f 1103//142 1104//142 1105//13
f 1106//39 1107//143 1108//39
f 1109//39 1110//143 1111//143
f 1112//41 1113//41 1114//43
f 1115//44 1116//41 1117//44
f 1118//144 1119//57 1120//43
f 1121//116 1122//126 1123//116
f 1124//114 1125//128 1126//114
f 1127//128 1128//128 1129//114
f 1130//145 1131//145 1132//146
f 1133//124 1134//145 1135//145
f 1136//103 1137//105 1138//119
f 1139//103 1140//105 1141//103
f 1142//125 1143//125 1144//37
f 1145//121 1146//28 1147//28
f 1148//121 1149//28 1150//121
f 1151//101 1152//101 1153//147
f 1154//101 1155//147 1156//147
f 1157//107 1158//124 1159//145
f 1160//146 1161//108 1162//111
f 1163//125 1164//37 1165//37
f 1166//126 1167//126 1168//116
f 1169//148 1170//149 1171//148
f 1172//95 1173//89 1174//95
f 1175//89 1176//89 1177//95
f 1178//98 1179//98 1180//150
f 1181//151 1182//98 1183//98
f 1184//81 1185//83 1186//83
f 1187//81 1188//83 1189//81
f 1190//152 1191//152 1192//28
f 1193//153 1194//13 1195//13
f 1196//153 1197//13 1198//153
f 1199//154 1200//79 1201//155
f 1202//79 1203//155 1204//155
f 1205//85 1206//151 1207//97
f 1208//150 1209//98 1210//150
f 1211//152 1212//28 1213//28
f 1214//149 1215//149 1216//148
f 1217//59 1218//156 1219//59
f 1220//61 1221//63 1222//61
f 1223//63 1224//77 1225//61
f 1226//157 1227//157 1228//132
f 1229//158 1230//157 1231//157
f 1232//71 1233//75 1234//75
f 1235//71 1236//75 1237//71
f 1238//37 1239//37 1240//129
f 1241//37 1242//129 1243//129
f 1244//159 1245//130 1246//159
f 1247//133 1248//133 1249//33
f 1250//130 1251//73 1252//130
f 1253//133 1254//33 1255//33
f 1256//59 1257//156 1258//156
f 1259//132 1260//76 1261//65
f 1262//158 1263//158 1264//157
f 1265//37 1266//37 1267//125
f 1268//125 1269//37 1270//125
f 1271//126 1272//116 1273//116
f 1274//126 1275//126 1276//116
f 1277//114 1278//128 1279//114
f 1280//114 1281//128 1282//128
f 1283//111 1284//108 1285//108
f 377//28 1286//28 1287//121
f 1288//121 1289//121 377//28
f 1290//122 1291//103 1292//101
f 1293//101 1294//103 1295//103
f 1296//103 1297//103 1298//105
f 1299//119 1300//103 1301//119
f 1302//123 1303//124 1304//124
f 1305//109 1306//109 1307//107
f 1308//118 1309//111 1310//111
f 1311//33 434//33 1312//133
f 1313//133 434//33 1314//133
f 1315//61 1316//134 1317//59
f 1318//61 1319//61 1320//59
f 1321//61 1322//63 1323//61
f 1324//61 1325//63 1326//77
f 1327//132 1328//132 1329//131
f 1330//135 1331//65 1332//135
f 1333//68 1334//66 1335//66
f 1336//37 1337//37 1338//129
f 1339//129 1340//37 1341//129
f 1342//130 1343//159 1344//73
f 1345//75 1346//71 1347//75
f 1348//75 1349//71 1350//71
f 1351//136 1352//69 1353//68
f 1354//130 1355//73 1356//130
f 1357//142 1358//142 1359//13
f 1360//143 1361//39 1362//39
f 1363//44 1364//41 1365//41
f 1366//44 1367//41 1368//44
f 1369//160 1370//161 1371//160
f 1372//160 1373//160 1374//140
f 1375//50 1376//50 1377//52
f 1378//33 1379//137 1380//33
f 1381//137 1382//137 1383//33
f 1384//162 1385//138 1386//54
f 1387//162 1388//54 1389//162
f 1390//52 1391//52 1392//50
f 1393//49 1394//49 1395//47
f 1396//161 1397//160 1398//161
f 1399//142 1400//13 1401//13
f 1402//143 1403//143 1404//163
f 1405//13 1406//153 1407//13
f 1408//13 1409//153 1410//153
f 1411//79 1412//79 1413//155
f 1414//155 1415//154 1416//155
f 1417//85 1418//97 1419//97
f 1420//83 1421//81 1422//83
f 1423//164 1424//150 1425//150
f 1426//84 1427//81 1428//81
f 1429//152 1430//28 380//28
f 1431//152 1432//152 380//28
f 1433//93 1434//95 1435//148
f 1436//93 1437//95 1438//95
f 1439//95 1440//95 1441//89
f 1442//89 1443//95 1444//89
f 1445//99 1446//96 1447//99
f 1448//165 1449//85 1450//85
f 1451//33 1452//33 1453//33
f 1452//33 1454//33 1455//33
f 1456//37 1457//37 1458//37
f 1459//37 1460//37 1458//37
f 1461//37 1462//37 1463//37
f 1464//33 1465//33 1466//33
f 1467//166 1468//166 1464//166
f 1469//33 1464//33 1470//33
f 1471//37 1472//37 1473//37
f 1474//37 1475//37 1476//37
f 1477//28 1478//28 1479//28
f 1480//120 1481//120 1479//120
f 1482//28 1483//28 1484//28
f 1485//37 1486//37 1487//37
f 1488//37 1489//37 1485//37
f 1490//167 1485//167 1491//167
f 1492//28 1493//28 1494//28
f 1495//28 1496//28 1497//28
f 1498//13 1499//13 1500//13
f 1501//13 1502//13 1500//13
f 1503//13 1504//13 1505//13
f 1506//28 1507//28 1508//28
f 1509//91 1510//91 1506//91
f 1511//28 1506//28 1512//28
f 1513//13 1514//13 1515//13
f 1516//13 1517//13 1518//13
f 1519//33 1520//33 1521//33
f 1522//168 1523//168 1521//168
f 1524//33 1525//33 1526//33
f 1527//73 1528//73 1529//37
f 1530//130 1528//73 1527//73
f 1531//69 1532//71 1530//130
f 1533//69 1532//71 1531//69
f 1534//169 1533//69 1535//76
f 1534//169 1535//76 1536//77
f 1537//77 1536//77 1538//156
f 1537//77 1538//156 1539//170
f 1539//170 1540//59 1541//59
f 1540//59 1542//33 1541//59
f 1542//33 1543//54 1544//33
f 1543//54 1545//54 1544//33
f 1546//171 1547//162 1545//54
f 1548//56 1547//162 1546//171
f 1549//172 1550//56 1548//56
f 1551//47 1550//56 1549//172
f 1552//43 1551//47 1553//43
f 1552//43 1553//43 1554//41
f 1555//143 1554//41 1556//39
f 1555//143 1556//39 1557//39
f 1557//39 1558//13 1559//13
f 1558//13 1560//79 1559//13
f 1561//79 1562//155 1563//81
f 1563//81 1562//155 1564//84
f 1565//28 1566//28 1567//93
f 1568//101 1569//101 1566//28
f 1570//103 1571//173 1569//101
f 1572//119 1573//119 1571//173
f 1574//109 1573//119 1572//119
f 1575//112 1576//108 1574//109
f 1577//112 1576//108 1575//112
f 1578//126 1577//112 1579//114
f 1553//43 1551//47 1549//172
f 1580//116 1581//116 1529//37
f 1578//126 1581//116 1580//116
f 1579//114 1581//116 1578//126
f 1575//112 1579//114 1577//112
f 1573//119 1574//109 1576//108
f 1571//173 1570//103 1572//119
f 1569//101 1568//101 1570//103
f 1580//116 1529//37 1582//37
f 1566//28 1565//28 1568//101
f 1567//93 1583//93 1565//28
f 1584//95 1583//93 1567//93
f 1585//174 1583//93 1584//95
f 1585//174 1584//95 1586//88
f 1585//174 1586//88 1587//88
f 1586//88 1588//99 1587//88
f 1588//99 1589//97 1587//88
f 1590//84 1589//97 1588//99
f 1564//84 1589//97 1590//84
f 1564//84 1590//84 1563//81
f 1562//155 1561//79 1560//79
f 1561//79 1559//13 1560//79
f 1558//13 1557//39 1556//39
f 1554//41 1555//143 1552//43
f 1547//162 1548//56 1550//56
f 1545//54 1543//54 1546//171
f 1544//33 1541//59 1542//33
f 1540//59 1539//170 1538//156
f 1536//77 1537//77 1534//169
f 1531//69 1535//76 1533//69
f 1528//73 1530//130 1532//71
f 1528//73 1582//37 1529//37
f 1591//13 1592//13 1593//13
f 1594//13 1595//13 1596//13
f 1597//175 1598//175 1599//175
f 1600//22 1601//22 1602//22
f 1603//22 1604//22 1605//22
f 1606//24 1607//24 1608//24
f 1600//22 1609//22 1610//22
f 1611//23 1612//23 1613//23
f 1614//27 1615//27 1616//27
f 1617//22 1618//22 1619//22
f 1620//25 1621//25 1622//25
f 1623//25 1624//25 1625//25
f 1626//22 1627//22 1628//22
f 1629//25 1630//25 1631//25
f 1632//24 1633//24 1634//24
f 1635//22 1636//22 1637//22
f 1638//25 1639//25 1640//25
f 1641//22 1642//22 1600//22
f 1643//22 1644//22 1600//22
f 1645//22 1646//22 1647//22
f 1648//22 1649//22 1650//22
f 1651//22 1652//22 1653//22
f 1654//25 1655//25 1656//25
f 1657//24 1658//24 1659//24
f 1659//22 1660//22 1661//22
f 1662//22 1663//22 1659//22
f 1664//26 1665//26 1659//26
f 1666//22 1667//22 1659//22
f 1668//22 1669//22 1670//22
f 1671//22 1672//22 1673//22
f 1659//22 1674//22 1675//22
f 1626//22 1676//22 1677//22
f 1678//22 1679//22 1626//22
f 1680//22 1681//22 1626//22
f 1682//22 1683//22 1684//22
f 1685//22 1686//22 1687//22
f 1688//22 1689//22 1690//22
f 1691//25 1692//25 1693//25
f 1617//24 1694//24 1695//24
f 1617//22 1696//22 1697//22
f 1698//22 1699//22 1617//22
f 1700//24 1701//24 1617//24
f 1702//22 1703//22 1704//22
f 1705//22 1706//22 1707//22
f 1708//22 1709//22 1710//22
f 1711//22 1712//22 1713//22
f 1600//22 1714//22 1715//22
f 1626//22 1716//22 1717//22
f 1600//22 1718//22 1719//22
f 1626//22 1720//22 1721//22
f 1722//22 1723//22 1617//22
f 1724//22 1725//22 1726//22
s 0
f 1727//22 1728//22 1729//22
s 1
f 1730//23 1731//23 1732//23
f 1733//22 1734//22 1735//22
f 1736//22 1737//22 1738//22
f 1739//22 1740//22 1741//22
f 1742//22 1743//22 1744//22
f 1745//22 1746//22 1747//22
f 1748//25 1749//25 1750//25
f 1751//22 1752//22 1753//22
f 1754//24 1755//24 1756//24
f 1757//22 1758//22 1759//22
f 1760//24 1761//24 1762//24
f 1763//22 1764//22 1765//22
f 1766//22 1767//22 1768//22
f 1769//25 1770//25 1771//25
f 1772//176 1773//176 1774//176
f 1775//27 1776//27 1777//27
f 1778//22 1779//22 1780//22
f 1781//25 1782//25 1783//25
f 1784//22 1785//22 1786//22
f 1787//22 1788//22 1789//22
f 1790//22 1791//22 1792//22
f 1793//22 1794//22 1795//22
f 1796//22 1797//22 1798//22
f 1799//22 1800//22 1801//22
f 1802//22 1803//22 1804//22
s 0
f 1805//22 1806//22 1807//22
s 1
f 1808//24 1809//24 1810//24
f 1811//22 1812//22 1813//22
f 1814//177 1815//177 1816//177
f 1817//177 1818//177 1471//178
f 1471//178 1819//179 1820//179
f 1821//180 1822//180 1823//180
f 1824//180 1825//180 1492//28
f 1492//181 1826//180 1827//180
f 1828//182 1829//182 1830//182
f 1831//182 1832//182 1513//13
f 1513//175 1833//182 1834//182
f 1835//183 1836//183 1452//33
f 1837//183 1838//183 1451//33
f 1451//33 1839//183 1452//33
f 1840//37 1841//37 1842//37
f 1843//37 1844//37 1842//37
f 1845//37 1840//37 1846//37
f 1847//33 1848//33 1849//33
f 1850//33 1851//33 1852//33
f 1853//13 1854//13 1855//13
f 1856//13 1857//13 1858//13
f 1859//28 1860//28 1861//28
f 1862//28 1863//28 1864//28
f 1865//22 1866//22 1867//22
f 1868//22 1869//22 1870//22
f 1871//184 1872//184 1873//184
f 1872//184 1874//184 1875//184
f 1876//184 1872//184 1877//184
f 1872//184 1878//184 1879//184
f 1880//1 1881//1 1882//1
f 1883//1 1884//1 1885//1
f 1886//1 1887//1 1888//1
f 1889//1 1890//1 1891//1
