# Blender 4.4.3
# www.blender.org
mtllib Mesh_22.010.mtl
o Mesh_22.010
v -0.000400 0.008970 -0.014480
v -0.000400 0.008970 -0.014557
v -0.000400 0.008959 -0.014506
v -0.000400 0.008970 -0.014721
v -0.000400 0.008959 -0.014694
v -0.000400 0.008970 -0.014643
v -0.000400 0.008636 -0.014721
v -0.000400 0.008636 -0.014643
v -0.000400 0.008647 -0.014694
v -0.000400 0.008636 -0.014480
v -0.000400 0.008647 -0.014506
v -0.000400 0.008636 -0.014557
v -0.000400 0.008970 -0.014402
v -0.000400 0.008904 -0.014507
v -0.000400 0.008803 -0.014402
v -0.000400 0.008959 -0.014504
v -0.000400 0.008959 -0.014557
v -0.000400 0.008933 -0.014496
v -0.000400 0.008958 -0.014502
v -0.000400 0.008957 -0.014500
v -0.000400 0.008956 -0.014499
v -0.000400 0.008955 -0.014498
v -0.000400 0.008953 -0.014497
v -0.000400 0.008951 -0.014496
v -0.000400 0.008949 -0.014496
v -0.000400 0.008939 -0.014496
v -0.000400 0.008927 -0.014497
v -0.000400 0.008921 -0.014499
v -0.000400 0.008915 -0.014501
v -0.000400 0.008909 -0.014504
v -0.000400 0.008636 -0.014402
v -0.000400 0.008702 -0.014507
v -0.000400 0.008899 -0.014511
v -0.000400 0.008707 -0.014511
v -0.000400 0.008894 -0.014515
v -0.000400 0.008712 -0.014515
v -0.000400 0.008890 -0.014519
v -0.000400 0.008716 -0.014519
v -0.000400 0.008886 -0.014524
v -0.000400 0.008720 -0.014524
v -0.000400 0.008883 -0.014530
v -0.000400 0.008880 -0.014536
v -0.000400 0.008723 -0.014530
v -0.000400 0.008726 -0.014536
v -0.000400 0.008729 -0.014548
v -0.000400 0.008877 -0.014548
v -0.000400 0.008876 -0.014554
v -0.000400 0.008730 -0.014554
v -0.000400 0.008875 -0.014560
v -0.000400 0.008731 -0.014560
v -0.000400 0.008875 -0.014640
v -0.000400 0.008876 -0.014646
v -0.000400 0.008731 -0.014640
v -0.000400 0.008730 -0.014646
v -0.000400 0.008729 -0.014652
v -0.000400 0.008877 -0.014652
v -0.000400 0.008878 -0.014659
v -0.000400 0.008728 -0.014659
v -0.000400 0.008880 -0.014664
v -0.000400 0.008723 -0.014670
v -0.000400 0.008726 -0.014664
v -0.000400 0.008883 -0.014670
v -0.000400 0.008886 -0.014676
v -0.000400 0.008712 -0.014685
v -0.000400 0.008894 -0.014685
v -0.000400 0.008899 -0.014689
v -0.000400 0.008716 -0.014681
v -0.000400 0.008970 -0.014800
v -0.000400 0.008702 -0.014693
v -0.000400 0.008904 -0.014693
v -0.000400 0.008707 -0.014689
v -0.000400 0.008933 -0.014704
v -0.000400 0.008921 -0.014701
v -0.000400 0.008927 -0.014703
v -0.000400 0.008939 -0.014704
v -0.000400 0.008915 -0.014699
v -0.000400 0.008949 -0.014704
v -0.000400 0.008951 -0.014704
v -0.000400 0.008953 -0.014703
v -0.000400 0.008955 -0.014702
v -0.000400 0.008956 -0.014701
v -0.000400 0.008909 -0.014696
v -0.000400 0.008957 -0.014700
v -0.000400 0.008958 -0.014698
v -0.000400 0.008890 -0.014681
v -0.000400 0.008720 -0.014676
v -0.000400 0.008959 -0.014696
v -0.000400 0.008647 -0.014696
v -0.000400 0.008647 -0.014643
v -0.000400 0.008673 -0.014704
v -0.000400 0.008636 -0.014800
v -0.000400 0.008648 -0.014698
v -0.000400 0.008649 -0.014700
v -0.000400 0.008650 -0.014701
v -0.000400 0.008651 -0.014702
v -0.000400 0.008653 -0.014703
v -0.000400 0.008655 -0.014704
v -0.000400 0.008657 -0.014704
v -0.000400 0.008666 -0.014704
v -0.000400 0.008679 -0.014703
v -0.000400 0.008685 -0.014701
v -0.000400 0.008691 -0.014699
v -0.000400 0.008697 -0.014696
v -0.000400 0.008959 -0.014643
v -0.000400 0.008728 -0.014541
v -0.000400 0.008878 -0.014541
v -0.000400 0.008697 -0.014504
v -0.000400 0.008691 -0.014501
v -0.000400 0.008685 -0.014499
v -0.000400 0.008679 -0.014497
v -0.000400 0.008673 -0.014496
v -0.000400 0.008666 -0.014496
v -0.000400 0.008653 -0.014497
v -0.000400 0.008655 -0.014496
v -0.000400 0.008657 -0.014496
v -0.000400 0.008651 -0.014498
v -0.000400 0.008650 -0.014499
v -0.000400 0.008649 -0.014500
v -0.000400 0.008648 -0.014502
v -0.000400 0.008647 -0.014504
v -0.000400 0.008647 -0.014557
v -0.000375 0.008995 -0.014557
v -0.000377 0.008993 -0.014557
v -0.000367 0.009003 -0.014547
v -0.000400 0.008970 -0.014557
v -0.000373 0.008997 -0.014556
v -0.000370 0.009000 -0.014554
v -0.000371 0.008999 -0.014555
v -0.000368 0.009002 -0.014551
v -0.000369 0.009001 -0.014553
v -0.000367 0.009003 -0.014549
v -0.000400 0.008970 -0.014480
v -0.000373 0.008997 -0.014405
v -0.000400 0.008970 -0.014480
v -0.000400 0.008970 -0.014402
v -0.000373 0.008997 -0.014400
v -0.000367 0.009003 -0.014400
v -0.000400 0.008970 -0.014480
v -0.000400 0.008970 -0.014557
v -0.000360 0.008603 -0.014400
v -0.000373 0.008609 -0.014400
v -0.000367 0.008603 -0.014400
v -0.000360 0.009003 -0.014400
v -0.000373 0.008997 -0.014400
v -0.000373 0.008803 -0.014400
v -0.000367 0.009003 -0.014400
v -0.000373 0.008997 -0.014400
v -0.000367 0.008603 -0.014400
v -0.000373 0.008609 -0.014405
v -0.000367 0.008603 -0.014547
v -0.000400 0.008636 -0.014480
v -0.000400 0.008636 -0.014480
v -0.000400 0.008636 -0.014557
v -0.000375 0.008611 -0.014557
v -0.000377 0.008613 -0.014557
v -0.000373 0.008609 -0.014556
v -0.000370 0.008606 -0.014554
v -0.000369 0.008605 -0.014553
v -0.000371 0.008607 -0.014555
v -0.000368 0.008604 -0.014551
v -0.000400 0.008636 -0.014557
v -0.000400 0.008636 -0.014480
v -0.000400 0.008636 -0.014402
v -0.000367 0.008603 -0.014549
v -0.000367 0.008603 -0.014400
v -0.000373 0.008609 -0.014400
v -0.000360 0.008803 -0.014778
v -0.000360 0.008803 -0.014800
v -0.000360 0.008843 -0.014778
v -0.000360 0.008783 -0.014630
v -0.000360 0.008726 -0.014664
v -0.000360 0.008723 -0.014670
v -0.000360 0.008783 -0.014620
v -0.000360 0.008773 -0.014620
v -0.000360 0.008883 -0.014670
v -0.000360 0.008823 -0.014630
v -0.000360 0.008843 -0.014758
v -0.000360 0.008833 -0.014620
v -0.000360 0.008875 -0.014640
v -0.000360 0.008833 -0.014580
v -0.000360 0.008875 -0.014560
v -0.000360 0.008880 -0.014664
v -0.000360 0.008878 -0.014659
v -0.000360 0.008823 -0.014570
v -0.000360 0.008876 -0.014554
v -0.000360 0.008783 -0.014570
v -0.000360 0.008886 -0.014524
v -0.000360 0.008878 -0.014541
v -0.000360 0.008880 -0.014536
v -0.000360 0.008877 -0.014548
v -0.000360 0.008731 -0.014560
v -0.000360 0.008731 -0.014640
v -0.000360 0.008730 -0.014646
v -0.000360 0.008823 -0.014580
v -0.000360 0.009002 -0.014794
v -0.000360 0.009003 -0.014792
v -0.000360 0.009003 -0.014790
v -0.000360 0.009001 -0.014796
v -0.000360 0.009000 -0.014797
v -0.000360 0.008999 -0.014798
v -0.000360 0.008997 -0.014799
v -0.000360 0.008995 -0.014800
v -0.000360 0.008993 -0.014800
v -0.000360 0.008673 -0.014704
v -0.000360 0.008613 -0.014800
v -0.000360 0.008763 -0.014778
v -0.000360 0.008666 -0.014704
v -0.000360 0.008657 -0.014704
v -0.000360 0.008655 -0.014704
v -0.000360 0.008603 -0.014790
v -0.000360 0.008607 -0.014798
v -0.000360 0.008606 -0.014797
v -0.000360 0.008609 -0.014799
v -0.000360 0.008611 -0.014800
v -0.000360 0.008604 -0.014794
v -0.000360 0.008605 -0.014796
v -0.000360 0.008603 -0.014792
v -0.000360 0.008603 -0.014653
v -0.000360 0.008648 -0.014698
v -0.000360 0.008647 -0.014696
v -0.000360 0.008613 -0.014643
v -0.000360 0.008647 -0.014694
v -0.000360 0.008603 -0.014651
v -0.000360 0.008604 -0.014649
v -0.000360 0.008605 -0.014647
v -0.000360 0.008607 -0.014645
v -0.000360 0.008609 -0.014644
v -0.000360 0.008606 -0.014646
v -0.000360 0.008611 -0.014643
v -0.000360 0.008647 -0.014643
v -0.000360 0.008649 -0.014700
v -0.000360 0.008650 -0.014701
v -0.000360 0.008651 -0.014702
v -0.000360 0.008653 -0.014703
v -0.000360 0.008763 -0.014758
v -0.000360 0.008679 -0.014703
v -0.000360 0.008685 -0.014701
v -0.000360 0.008691 -0.014699
v -0.000360 0.008697 -0.014696
v -0.000360 0.008712 -0.014685
v -0.000360 0.008707 -0.014689
v -0.000360 0.008702 -0.014693
v -0.000360 0.008716 -0.014681
v -0.000360 0.008720 -0.014676
v -0.000360 0.008728 -0.014659
v -0.000360 0.008773 -0.014580
v -0.000360 0.008730 -0.014554
v -0.000360 0.008883 -0.014530
v -0.000360 0.008729 -0.014548
v -0.000360 0.008729 -0.014652
v -0.000360 0.008723 -0.014530
v -0.000360 0.008726 -0.014536
v -0.000360 0.008728 -0.014541
v -0.000360 0.008720 -0.014524
v -0.000360 0.008894 -0.014515
v -0.000360 0.008707 -0.014511
v -0.000360 0.008712 -0.014515
v -0.000360 0.008890 -0.014519
v -0.000360 0.008697 -0.014504
v -0.000360 0.008702 -0.014507
v -0.000360 0.008904 -0.014507
v -0.000360 0.008899 -0.014511
v -0.000360 0.008691 -0.014501
v -0.000360 0.008603 -0.014400
v -0.000360 0.008685 -0.014499
v -0.000360 0.008666 -0.014496
v -0.000360 0.008603 -0.014400
v -0.000360 0.008657 -0.014496
v -0.000360 0.008603 -0.014400
v -0.000360 0.008673 -0.014496
v -0.000360 0.008679 -0.014497
v -0.000360 0.008603 -0.014400
v -0.000360 0.008655 -0.014496
v -0.000360 0.008603 -0.014400
v -0.000360 0.008653 -0.014497
v -0.000360 0.008603 -0.014400
v -0.000360 0.008651 -0.014498
v -0.000360 0.008603 -0.014400
v -0.000360 0.008650 -0.014499
v -0.000360 0.008603 -0.014400
v -0.000360 0.008649 -0.014500
v -0.000360 0.008603 -0.014400
v -0.000360 0.008648 -0.014502
v -0.000360 0.008603 -0.014400
v -0.000360 0.008603 -0.014547
v -0.000360 0.008603 -0.014400
v -0.000360 0.008909 -0.014504
v -0.000360 0.008716 -0.014519
v -0.000360 0.008783 -0.014580
v -0.000360 0.008877 -0.014652
v -0.000360 0.008876 -0.014646
v -0.000360 0.008647 -0.014506
v -0.000360 0.008613 -0.014557
v -0.000360 0.008647 -0.014557
v -0.000360 0.008611 -0.014557
v -0.000360 0.008604 -0.014551
v -0.000360 0.008603 -0.014549
v -0.000360 0.009003 -0.014547
v -0.000360 0.008958 -0.014502
v -0.000360 0.008959 -0.014504
v -0.000360 0.008993 -0.014557
v -0.000360 0.008959 -0.014506
v -0.000360 0.009003 -0.014549
v -0.000360 0.009002 -0.014551
v -0.000360 0.009001 -0.014553
v -0.000360 0.008999 -0.014555
v -0.000360 0.008997 -0.014556
v -0.000360 0.009000 -0.014554
v -0.000360 0.008995 -0.014557
v -0.000360 0.009003 -0.014400
v -0.000360 0.008959 -0.014557
v -0.000360 0.008957 -0.014500
v -0.000360 0.009003 -0.014400
v -0.000360 0.008956 -0.014499
v -0.000360 0.009003 -0.014400
v -0.000360 0.008955 -0.014498
v -0.000360 0.009003 -0.014400
v -0.000360 0.008953 -0.014497
v -0.000360 0.009003 -0.014400
v -0.000360 0.009003 -0.014400
v -0.000360 0.008951 -0.014496
v -0.000360 0.009003 -0.014400
v -0.000360 0.008939 -0.014496
v -0.000360 0.008949 -0.014496
v -0.000360 0.009003 -0.014400
v -0.000360 0.008933 -0.014496
v -0.000360 0.009003 -0.014400
v -0.000360 0.008921 -0.014499
v -0.000360 0.008927 -0.014497
v -0.000360 0.009003 -0.014400
v -0.000360 0.008915 -0.014501
v -0.000360 0.009003 -0.014400
v -0.000360 0.009003 -0.014400
v -0.000360 0.008603 -0.014400
v -0.000360 0.008603 -0.014400
v -0.000360 0.008647 -0.014504
v -0.000360 0.008603 -0.014400
v -0.000360 0.008609 -0.014556
v -0.000360 0.008607 -0.014555
v -0.000360 0.008605 -0.014553
v -0.000360 0.008606 -0.014554
v -0.000360 0.008823 -0.014620
v -0.000360 0.008894 -0.014685
v -0.000360 0.008890 -0.014681
v -0.000360 0.008886 -0.014676
v -0.000360 0.008899 -0.014689
v -0.000360 0.008904 -0.014693
v -0.000360 0.008909 -0.014696
v -0.000360 0.008915 -0.014699
v -0.000360 0.008921 -0.014701
v -0.000360 0.008927 -0.014703
v -0.000360 0.008933 -0.014704
v -0.000360 0.008939 -0.014704
v -0.000360 0.008953 -0.014703
v -0.000360 0.008951 -0.014704
v -0.000360 0.008949 -0.014704
v -0.000360 0.008955 -0.014702
v -0.000360 0.008956 -0.014701
v -0.000360 0.008957 -0.014700
v -0.000360 0.008958 -0.014698
v -0.000360 0.009003 -0.014653
v -0.000360 0.008959 -0.014696
v -0.000360 0.008959 -0.014694
v -0.000360 0.008993 -0.014643
v -0.000360 0.008959 -0.014643
v -0.000360 0.008995 -0.014643
v -0.000360 0.008603 -0.014400
v -0.000360 0.009003 -0.014400
v -0.000360 0.009003 -0.014400
v -0.000360 0.008997 -0.014644
v -0.000360 0.008999 -0.014645
v -0.000360 0.009000 -0.014646
v -0.000360 0.009001 -0.014647
v -0.000360 0.009002 -0.014649
v -0.000360 0.009003 -0.014651
v -0.000360 0.009003 -0.014790
v -0.000367 0.009003 -0.014790
v -0.000360 0.009003 -0.014653
v -0.000360 0.009003 -0.014653
v -0.000367 0.009003 -0.014653
v -0.000360 0.009003 -0.014547
v -0.000367 0.009003 -0.014547
v -0.000360 0.009003 -0.014400
v -0.000360 0.009003 -0.014400
v -0.000367 0.009003 -0.014547
v -0.000367 0.009003 -0.014400
v -0.000400 0.008970 -0.014721
v -0.000367 0.009003 -0.014790
v -0.000400 0.008970 -0.014800
v -0.000400 0.008970 -0.014721
v -0.000400 0.008970 -0.014643
v -0.000367 0.009003 -0.014653
v -0.000377 0.008993 -0.014800
v -0.000400 0.008970 -0.014800
v -0.000367 0.009003 -0.014790
v -0.000375 0.008995 -0.014800
v -0.000367 0.009003 -0.014790
v -0.000373 0.008997 -0.014799
v -0.000367 0.009003 -0.014790
v -0.000371 0.008999 -0.014798
v -0.000367 0.009003 -0.014790
v -0.000370 0.009000 -0.014797
v -0.000368 0.009002 -0.014794
v -0.000369 0.009001 -0.014796
v -0.000367 0.009003 -0.014790
v -0.000367 0.009003 -0.014790
v -0.000367 0.009003 -0.014792
v -0.000367 0.009003 -0.014790
v -0.000367 0.009003 -0.014790
v -0.000367 0.009003 -0.014790
v -0.000400 0.008970 -0.014721
v -0.000367 0.009003 -0.014653
v -0.000367 0.009003 -0.014653
v -0.000400 0.008970 -0.014643
v -0.000377 0.008993 -0.014643
v -0.000375 0.008995 -0.014643
v -0.000367 0.009003 -0.014653
v -0.000373 0.008997 -0.014644
v -0.000367 0.009003 -0.014653
v -0.000367 0.009003 -0.014653
v -0.000370 0.009000 -0.014646
v -0.000369 0.009001 -0.014647
v -0.000367 0.009003 -0.014653
v -0.000371 0.008999 -0.014645
v -0.000367 0.009003 -0.014651
v -0.000367 0.009003 -0.014653
v -0.000368 0.009002 -0.014649
v -0.000367 0.009003 -0.014653
v -0.000367 0.009003 -0.014653
v -0.000360 0.008603 -0.014653
v -0.000367 0.008603 -0.014653
v -0.000360 0.008603 -0.014790
v -0.000360 0.008603 -0.014790
v -0.000367 0.008603 -0.014790
v -0.000400 0.008636 -0.014721
v -0.000367 0.008603 -0.014653
v -0.000400 0.008636 -0.014643
v -0.000400 0.008636 -0.014721
v -0.000400 0.008636 -0.014800
v -0.000367 0.008603 -0.014790
v -0.000377 0.008613 -0.014643
v -0.000400 0.008636 -0.014643
v -0.000367 0.008603 -0.014653
v -0.000375 0.008611 -0.014643
v -0.000367 0.008603 -0.014653
v -0.000373 0.008609 -0.014644
v -0.000367 0.008603 -0.014653
v -0.000371 0.008607 -0.014645
v -0.000367 0.008603 -0.014653
v -0.000370 0.008606 -0.014646
v -0.000368 0.008604 -0.014649
v -0.000369 0.008605 -0.014647
v -0.000367 0.008603 -0.014653
v -0.000367 0.008603 -0.014653
v -0.000367 0.008603 -0.014651
v -0.000367 0.008603 -0.014653
v -0.000367 0.008603 -0.014653
v -0.000367 0.008603 -0.014653
v -0.000400 0.008636 -0.014721
v -0.000367 0.008603 -0.014790
v -0.000367 0.008603 -0.014790
v -0.000400 0.008636 -0.014800
v -0.000377 0.008613 -0.014800
v -0.000375 0.008611 -0.014800
v -0.000367 0.008603 -0.014790
v -0.000373 0.008609 -0.014799
v -0.000367 0.008603 -0.014790
v -0.000367 0.008603 -0.014790
v -0.000370 0.008606 -0.014797
v -0.000369 0.008605 -0.014796
v -0.000367 0.008603 -0.014790
v -0.000371 0.008607 -0.014798
v -0.000367 0.008603 -0.014792
v -0.000367 0.008603 -0.014790
v -0.000368 0.008604 -0.014794
v -0.000367 0.008603 -0.014790
v -0.000367 0.008603 -0.014790
v -0.000400 0.008970 -0.014800
v -0.000360 0.008803 -0.014800
v -0.000400 0.008636 -0.014800
v -0.000400 0.008970 -0.014800
v -0.000377 0.008993 -0.014800
v -0.000360 0.008993 -0.014800
v -0.000400 0.008636 -0.014800
v -0.000360 0.008803 -0.014800
v -0.000360 0.008613 -0.014800
v -0.000377 0.008613 -0.014800
v -0.000400 0.008636 -0.014800
v -0.000360 0.008613 -0.014800
v -0.000360 0.008803 -0.014800
v -0.000400 0.008970 -0.014800
v -0.000360 0.008993 -0.014800
v -0.000360 0.008603 -0.014400
v -0.000367 0.008603 -0.014400
v -0.000360 0.008603 -0.014547
v -0.000360 0.008603 -0.014547
v -0.000367 0.008603 -0.014400
v -0.000367 0.008603 -0.014547
v -0.000360 0.008731 -0.014560
v -0.000400 0.008731 -0.014560
v -0.000360 0.008731 -0.014640
v -0.000400 0.008731 -0.014560
v -0.000400 0.008731 -0.014640
v -0.000360 0.008731 -0.014640
v -0.000360 0.008673 -0.014704
v -0.000360 0.008679 -0.014703
v -0.000400 0.008673 -0.014704
v -0.000360 0.008679 -0.014703
v -0.000360 0.008685 -0.014701
v -0.000400 0.008679 -0.014703
v -0.000360 0.008685 -0.014701
v -0.000400 0.008685 -0.014701
v -0.000400 0.008679 -0.014703
v -0.000360 0.008691 -0.014699
v -0.000400 0.008691 -0.014699
v -0.000400 0.008685 -0.014701
v -0.000360 0.008697 -0.014696
v -0.000400 0.008691 -0.014699
v -0.000360 0.008691 -0.014699
v -0.000360 0.008702 -0.014693
v -0.000400 0.008697 -0.014696
v -0.000360 0.008697 -0.014696
v -0.000400 0.008702 -0.014693
v -0.000400 0.008697 -0.014696
v -0.000360 0.008702 -0.014693
v -0.000400 0.008707 -0.014689
v -0.000400 0.008702 -0.014693
v -0.000360 0.008707 -0.014689
v -0.000400 0.008707 -0.014689
v -0.000360 0.008707 -0.014689
v -0.000360 0.008712 -0.014685
v -0.000400 0.008712 -0.014685
v -0.000360 0.008712 -0.014685
v -0.000360 0.008716 -0.014681
v -0.000400 0.008712 -0.014685
v -0.000360 0.008716 -0.014681
v -0.000400 0.008716 -0.014681
v -0.000400 0.008716 -0.014681
v -0.000360 0.008720 -0.014676
v -0.000400 0.008720 -0.014676
v -0.000360 0.008720 -0.014676
v -0.000360 0.008723 -0.014670
v -0.000400 0.008720 -0.014676
v -0.000360 0.008723 -0.014670
v -0.000360 0.008726 -0.014664
v -0.000400 0.008723 -0.014670
v -0.000360 0.008726 -0.014664
v -0.000400 0.008726 -0.014664
v -0.000400 0.008723 -0.014670
v -0.000360 0.008673 -0.014704
v -0.000400 0.008673 -0.014704
v -0.000360 0.008666 -0.014704
v -0.000400 0.008730 -0.014646
v -0.000360 0.008731 -0.014640
v -0.000400 0.008731 -0.014640
v -0.000360 0.008730 -0.014646
v -0.000360 0.008731 -0.014640
v -0.000400 0.008730 -0.014646
v -0.000360 0.008730 -0.014646
v -0.000400 0.008730 -0.014646
v -0.000400 0.008729 -0.014652
v -0.000360 0.008730 -0.014646
v -0.000400 0.008729 -0.014652
v -0.000360 0.008729 -0.014652
v -0.000400 0.008729 -0.014652
v -0.000400 0.008728 -0.014659
v -0.000360 0.008729 -0.014652
v -0.000400 0.008728 -0.014659
v -0.000360 0.008728 -0.014659
v -0.000360 0.008729 -0.014652
v -0.000400 0.008726 -0.014664
v -0.000360 0.008728 -0.014659
v -0.000400 0.008728 -0.014659
v -0.000360 0.008726 -0.014664
v -0.000360 0.008728 -0.014659
v -0.000400 0.008726 -0.014664
v -0.000400 0.008720 -0.014676
v -0.000360 0.008723 -0.014670
v -0.000400 0.008723 -0.014670
v -0.000400 0.008716 -0.014681
v -0.000360 0.008716 -0.014681
v -0.000360 0.008720 -0.014676
v -0.000400 0.008712 -0.014685
v -0.000400 0.008707 -0.014689
v -0.000360 0.008712 -0.014685
v -0.000360 0.008707 -0.014689
v -0.000400 0.008702 -0.014693
v -0.000360 0.008702 -0.014693
v -0.000360 0.008697 -0.014696
v -0.000400 0.008697 -0.014696
v -0.000400 0.008691 -0.014699
v -0.000360 0.008685 -0.014701
v -0.000360 0.008691 -0.014699
v -0.000400 0.008685 -0.014701
v -0.000400 0.008673 -0.014704
v -0.000400 0.008666 -0.014704
v -0.000360 0.008666 -0.014704
v -0.000360 0.008679 -0.014703
v -0.000400 0.008679 -0.014703
v -0.000400 0.008673 -0.014704
v -0.000400 0.008657 -0.014704
v -0.000360 0.008657 -0.014704
v -0.000400 0.008666 -0.014704
v -0.000360 0.008657 -0.014704
v -0.000360 0.008666 -0.014704
v -0.000400 0.008666 -0.014704
v -0.000360 0.008647 -0.014694
v -0.000400 0.008647 -0.014694
v -0.000360 0.008647 -0.014643
v -0.000400 0.008647 -0.014694
v -0.000400 0.008647 -0.014643
v -0.000360 0.008647 -0.014643
v -0.000400 0.008647 -0.014506
v -0.000360 0.008647 -0.014506
v -0.000400 0.008647 -0.014557
v -0.000360 0.008647 -0.014506
v -0.000360 0.008647 -0.014557
v -0.000400 0.008647 -0.014557
v -0.000360 0.008657 -0.014496
v -0.000400 0.008657 -0.014496
v -0.000360 0.008666 -0.014496
v -0.000400 0.008657 -0.014496
v -0.000400 0.008666 -0.014496
v -0.000360 0.008666 -0.014496
v -0.000360 0.008730 -0.014554
v -0.000360 0.008729 -0.014548
v -0.000400 0.008730 -0.014554
v -0.000360 0.008729 -0.014548
v -0.000360 0.008728 -0.014541
v -0.000400 0.008729 -0.014548
v -0.000360 0.008728 -0.014541
v -0.000400 0.008728 -0.014541
v -0.000400 0.008729 -0.014548
v -0.000360 0.008726 -0.014536
v -0.000400 0.008726 -0.014536
v -0.000400 0.008728 -0.014541
v -0.000360 0.008723 -0.014530
v -0.000400 0.008726 -0.014536
v -0.000360 0.008726 -0.014536
v -0.000360 0.008720 -0.014524
v -0.000400 0.008723 -0.014530
v -0.000360 0.008723 -0.014530
v -0.000400 0.008720 -0.014524
v -0.000400 0.008723 -0.014530
v -0.000360 0.008720 -0.014524
v -0.000400 0.008716 -0.014519
v -0.000400 0.008720 -0.014524
v -0.000360 0.008716 -0.014519
v -0.000400 0.008716 -0.014519
v -0.000360 0.008716 -0.014519
v -0.000360 0.008712 -0.014515
v -0.000400 0.008712 -0.014515
v -0.000360 0.008712 -0.014515
v -0.000360 0.008707 -0.014511
v -0.000400 0.008712 -0.014515
v -0.000360 0.008707 -0.014511
v -0.000400 0.008707 -0.014511
v -0.000400 0.008707 -0.014511
v -0.000360 0.008702 -0.014507
v -0.000400 0.008702 -0.014507
v -0.000360 0.008702 -0.014507
v -0.000360 0.008697 -0.014504
v -0.000400 0.008702 -0.014507
v -0.000360 0.008697 -0.014504
v -0.000360 0.008691 -0.014501
v -0.000400 0.008697 -0.014504
v -0.000360 0.008691 -0.014501
v -0.000400 0.008691 -0.014501
v -0.000400 0.008697 -0.014504
v -0.000360 0.008730 -0.014554
v -0.000400 0.008730 -0.014554
v -0.000360 0.008731 -0.014560
v -0.000400 0.008673 -0.014496
v -0.000360 0.008666 -0.014496
v -0.000400 0.008666 -0.014496
v -0.000360 0.008673 -0.014496
v -0.000360 0.008666 -0.014496
v -0.000400 0.008673 -0.014496
v -0.000360 0.008673 -0.014496
v -0.000400 0.008673 -0.014496
v -0.000400 0.008679 -0.014497
v -0.000360 0.008673 -0.014496
v -0.000400 0.008679 -0.014497
v -0.000360 0.008679 -0.014497
v -0.000400 0.008679 -0.014497
v -0.000400 0.008685 -0.014499
v -0.000360 0.008679 -0.014497
v -0.000400 0.008685 -0.014499
v -0.000360 0.008685 -0.014499
v -0.000360 0.008679 -0.014497
v -0.000400 0.008691 -0.014501
v -0.000360 0.008685 -0.014499
v -0.000400 0.008685 -0.014499
v -0.000360 0.008691 -0.014501
v -0.000360 0.008685 -0.014499
v -0.000400 0.008691 -0.014501
v -0.000400 0.008702 -0.014507
v -0.000360 0.008697 -0.014504
v -0.000400 0.008697 -0.014504
v -0.000400 0.008707 -0.014511
v -0.000360 0.008707 -0.014511
v -0.000360 0.008702 -0.014507
v -0.000400 0.008712 -0.014515
v -0.000400 0.008716 -0.014519
v -0.000360 0.008712 -0.014515
v -0.000360 0.008716 -0.014519
v -0.000400 0.008720 -0.014524
v -0.000360 0.008720 -0.014524
v -0.000360 0.008723 -0.014530
v -0.000400 0.008723 -0.014530
v -0.000400 0.008726 -0.014536
v -0.000360 0.008728 -0.014541
v -0.000360 0.008726 -0.014536
v -0.000400 0.008728 -0.014541
v -0.000400 0.008730 -0.014554
v -0.000400 0.008731 -0.014560
v -0.000360 0.008731 -0.014560
v -0.000360 0.008729 -0.014548
v -0.000400 0.008729 -0.014548
v -0.000400 0.008730 -0.014554
v -0.000377 0.008613 -0.014643
v -0.000360 0.008647 -0.014643
v -0.000400 0.008636 -0.014643
v -0.000360 0.008613 -0.014643
v -0.000360 0.008647 -0.014643
v -0.000377 0.008613 -0.014643
v -0.000400 0.008647 -0.014643
v -0.000400 0.008636 -0.014643
v -0.000360 0.008647 -0.014643
v -0.000360 0.008613 -0.014557
v -0.000377 0.008613 -0.014557
v -0.000360 0.008647 -0.014557
v -0.000400 0.008636 -0.014557
v -0.000400 0.008647 -0.014557
v -0.000360 0.008647 -0.014557
v -0.000377 0.008613 -0.014557
v -0.000400 0.008636 -0.014557
v -0.000360 0.008647 -0.014557
v -0.000360 0.008875 -0.014560
v -0.000360 0.008875 -0.014640
v -0.000400 0.008875 -0.014560
v -0.000400 0.008875 -0.014560
v -0.000360 0.008875 -0.014640
v -0.000400 0.008875 -0.014640
v -0.000400 0.008939 -0.014704
v -0.000400 0.008933 -0.014704
v -0.000360 0.008939 -0.014704
v -0.000400 0.008933 -0.014704
v -0.000360 0.008933 -0.014704
v -0.000360 0.008939 -0.014704
v -0.000400 0.008927 -0.014703
v -0.000360 0.008933 -0.014704
v -0.000400 0.008933 -0.014704
v -0.000360 0.008927 -0.014703
v -0.000360 0.008933 -0.014704
v -0.000400 0.008927 -0.014703
v -0.000360 0.008927 -0.014703
v -0.000400 0.008927 -0.014703
v -0.000400 0.008921 -0.014701
v -0.000360 0.008927 -0.014703
v -0.000400 0.008921 -0.014701
v -0.000360 0.008921 -0.014701
v -0.000400 0.008921 -0.014701
v -0.000400 0.008915 -0.014699
v -0.000360 0.008921 -0.014701
v -0.000400 0.008915 -0.014699
v -0.000360 0.008915 -0.014699
v -0.000360 0.008921 -0.014701
v -0.000400 0.008909 -0.014696
v -0.000360 0.008915 -0.014699
v -0.000400 0.008915 -0.014699
v -0.000360 0.008909 -0.014696
v -0.000360 0.008915 -0.014699
v -0.000400 0.008909 -0.014696
v -0.000360 0.008909 -0.014696
v -0.000400 0.008909 -0.014696
v -0.000400 0.008904 -0.014693
v -0.000360 0.008909 -0.014696
v -0.000400 0.008904 -0.014693
v -0.000360 0.008904 -0.014693
v -0.000400 0.008904 -0.014693
v -0.000400 0.008899 -0.014689
v -0.000360 0.008904 -0.014693
v -0.000400 0.008899 -0.014689
v -0.000360 0.008899 -0.014689
v -0.000360 0.008904 -0.014693
v -0.000360 0.008890 -0.014681
v -0.000400 0.008886 -0.014676
v -0.000360 0.008886 -0.014676
v -0.000360 0.008886 -0.014676
v -0.000400 0.008886 -0.014676
v -0.000400 0.008883 -0.014670
v -0.000360 0.008875 -0.014640
v -0.000360 0.008876 -0.014646
v -0.000400 0.008875 -0.014640
v -0.000360 0.008876 -0.014646
v -0.000400 0.008876 -0.014646
v -0.000400 0.008875 -0.014640
v -0.000360 0.008877 -0.014652
v -0.000400 0.008876 -0.014646
v -0.000360 0.008876 -0.014646
v -0.000400 0.008877 -0.014652
v -0.000400 0.008876 -0.014646
v -0.000360 0.008877 -0.014652
v -0.000400 0.008877 -0.014652
v -0.000360 0.008877 -0.014652
v -0.000360 0.008878 -0.014659
v -0.000400 0.008877 -0.014652
v -0.000360 0.008878 -0.014659
v -0.000400 0.008878 -0.014659
v -0.000360 0.008878 -0.014659
v -0.000360 0.008880 -0.014664
v -0.000400 0.008878 -0.014659
v -0.000360 0.008880 -0.014664
v -0.000400 0.008880 -0.014664
v -0.000400 0.008878 -0.014659
v -0.000360 0.008883 -0.014670
v -0.000400 0.008880 -0.014664
v -0.000360 0.008880 -0.014664
v -0.000400 0.008883 -0.014670
v -0.000400 0.008880 -0.014664
v -0.000360 0.008883 -0.014670
v -0.000400 0.008883 -0.014670
v -0.000360 0.008883 -0.014670
v -0.000360 0.008886 -0.014676
v -0.000400 0.008886 -0.014676
v -0.000360 0.008890 -0.014681
v -0.000400 0.008890 -0.014681
v -0.000360 0.008890 -0.014681
v -0.000360 0.008894 -0.014685
v -0.000400 0.008890 -0.014681
v -0.000360 0.008894 -0.014685
v -0.000400 0.008894 -0.014685
v -0.000400 0.008890 -0.014681
v -0.000360 0.008899 -0.014689
v -0.000400 0.008894 -0.014685
v -0.000360 0.008894 -0.014685
v -0.000360 0.008899 -0.014689
v -0.000400 0.008899 -0.014689
v -0.000400 0.008894 -0.014685
v -0.000400 0.008939 -0.014704
v -0.000360 0.008939 -0.014704
v -0.000400 0.008949 -0.014704
v -0.000400 0.008949 -0.014704
v -0.000360 0.008939 -0.014704
v -0.000360 0.008949 -0.014704
v -0.000360 0.008959 -0.014643
v -0.000400 0.008959 -0.014643
v -0.000360 0.008959 -0.014694
v -0.000360 0.008959 -0.014694
v -0.000400 0.008959 -0.014643
v -0.000400 0.008959 -0.014694
v -0.000400 0.008959 -0.014557
v -0.000360 0.008959 -0.014557
v -0.000400 0.008959 -0.014506
v -0.000400 0.008959 -0.014506
v -0.000360 0.008959 -0.014557
v -0.000360 0.008959 -0.014506
v -0.000360 0.008939 -0.014496
v -0.000400 0.008939 -0.014496
v -0.000360 0.008949 -0.014496
v -0.000360 0.008949 -0.014496
v -0.000400 0.008939 -0.014496
v -0.000400 0.008949 -0.014496
v -0.000400 0.008875 -0.014560
v -0.000400 0.008876 -0.014554
v -0.000360 0.008875 -0.014560
v -0.000400 0.008876 -0.014554
v -0.000400 0.008877 -0.014548
v -0.000360 0.008876 -0.014554
v -0.000400 0.008877 -0.014548
v -0.000360 0.008877 -0.014548
v -0.000360 0.008876 -0.014554
v -0.000400 0.008878 -0.014541
v -0.000360 0.008878 -0.014541
v -0.000360 0.008877 -0.014548
v -0.000400 0.008880 -0.014536
v -0.000360 0.008880 -0.014536
v -0.000360 0.008878 -0.014541
v -0.000400 0.008883 -0.014530
v -0.000360 0.008880 -0.014536
v -0.000400 0.008880 -0.014536
v -0.000400 0.008886 -0.014524
v -0.000360 0.008883 -0.014530
v -0.000400 0.008883 -0.014530
v -0.000360 0.008886 -0.014524
v -0.000360 0.008883 -0.014530
v -0.000400 0.008886 -0.014524
v -0.000360 0.008890 -0.014519
v -0.000360 0.008886 -0.014524
v -0.000400 0.008890 -0.014519
v -0.000360 0.008890 -0.014519
v -0.000400 0.008890 -0.014519
v -0.000400 0.008894 -0.014515
v -0.000360 0.008894 -0.014515
v -0.000400 0.008894 -0.014515
v -0.000400 0.008899 -0.014511
v -0.000360 0.008894 -0.014515
v -0.000400 0.008899 -0.014511
v -0.000360 0.008899 -0.014511
v -0.000360 0.008899 -0.014511
v -0.000400 0.008904 -0.014507
v -0.000360 0.008904 -0.014507
v -0.000400 0.008904 -0.014507
v -0.000400 0.008909 -0.014504
v -0.000360 0.008904 -0.014507
v -0.000400 0.008909 -0.014504
v -0.000400 0.008915 -0.014501
v -0.000360 0.008909 -0.014504
v -0.000400 0.008915 -0.014501
v -0.000360 0.008915 -0.014501
v -0.000360 0.008909 -0.014504
v -0.000360 0.008933 -0.014496
v -0.000400 0.008939 -0.014496
v -0.000360 0.008939 -0.014496
v -0.000400 0.008933 -0.014496
v -0.000400 0.008939 -0.014496
v -0.000360 0.008933 -0.014496
v -0.000400 0.008933 -0.014496
v -0.000360 0.008933 -0.014496
v -0.000360 0.008927 -0.014497
v -0.000400 0.008933 -0.014496
v -0.000360 0.008927 -0.014497
v -0.000400 0.008927 -0.014497
v -0.000360 0.008927 -0.014497
v -0.000360 0.008921 -0.014499
v -0.000400 0.008927 -0.014497
v -0.000360 0.008921 -0.014499
v -0.000400 0.008921 -0.014499
v -0.000400 0.008927 -0.014497
v -0.000360 0.008915 -0.014501
v -0.000400 0.008921 -0.014499
v -0.000360 0.008921 -0.014499
v -0.000400 0.008915 -0.014501
v -0.000400 0.008921 -0.014499
v -0.000360 0.008915 -0.014501
v -0.000360 0.008904 -0.014507
v -0.000400 0.008909 -0.014504
v -0.000360 0.008909 -0.014504
v -0.000360 0.008899 -0.014511
v -0.000400 0.008899 -0.014511
v -0.000400 0.008904 -0.014507
v -0.000360 0.008894 -0.014515
v -0.000360 0.008890 -0.014519
v -0.000400 0.008894 -0.014515
v -0.000400 0.008890 -0.014519
v -0.000360 0.008886 -0.014524
v -0.000400 0.008886 -0.014524
v -0.000400 0.008883 -0.014530
v -0.000360 0.008883 -0.014530
v -0.000360 0.008880 -0.014536
v -0.000400 0.008878 -0.014541
v -0.000400 0.008880 -0.014536
v -0.000360 0.008878 -0.014541
v -0.000360 0.008876 -0.014554
v -0.000360 0.008875 -0.014560
v -0.000400 0.008876 -0.014554
v -0.000360 0.008877 -0.014548
v -0.000400 0.008877 -0.014548
v -0.000400 0.008878 -0.014541
v -0.000400 0.008959 -0.014643
v -0.000360 0.008959 -0.014643
v -0.000400 0.008970 -0.014643
v -0.000377 0.008993 -0.014643
v -0.000360 0.008959 -0.014643
v -0.000360 0.008993 -0.014643
v -0.000377 0.008993 -0.014643
v -0.000400 0.008970 -0.014643
v -0.000360 0.008959 -0.014643
v -0.000400 0.008959 -0.014557
v -0.000400 0.008970 -0.014557
v -0.000360 0.008959 -0.014557
v -0.000360 0.008959 -0.014557
v -0.000400 0.008970 -0.014557
v -0.000377 0.008993 -0.014557
v -0.000377 0.008993 -0.014557
v -0.000360 0.008993 -0.014557
v -0.000360 0.008959 -0.014557
v -0.000367 0.009003 -0.014547
v -0.000360 0.009003 -0.014547
v -0.000360 0.009003 -0.014549
v -0.000367 0.009003 -0.014549
v -0.000367 0.009003 -0.014547
v -0.000360 0.009003 -0.014549
v -0.000360 0.009003 -0.014549
v -0.000360 0.009002 -0.014551
v -0.000367 0.009003 -0.014549
v -0.000367 0.009003 -0.014549
v -0.000360 0.009002 -0.014551
v -0.000368 0.009002 -0.014551
v -0.000368 0.009002 -0.014551
v -0.000360 0.009002 -0.014551
v -0.000360 0.009001 -0.014553
v -0.000369 0.009001 -0.014553
v -0.000368 0.009002 -0.014551
v -0.000360 0.009001 -0.014553
v -0.000360 0.009000 -0.014554
v -0.000369 0.009001 -0.014553
v -0.000360 0.009001 -0.014553
v -0.000360 0.008999 -0.014555
v -0.000370 0.009000 -0.014554
v -0.000360 0.009000 -0.014554
v -0.000360 0.009000 -0.014554
v -0.000370 0.009000 -0.014554
v -0.000369 0.009001 -0.014553
v -0.000375 0.008995 -0.014557
v -0.000360 0.008993 -0.014557
v -0.000377 0.008993 -0.014557
v -0.000375 0.008995 -0.014557
v -0.000360 0.008995 -0.014557
v -0.000360 0.008993 -0.014557
v -0.000375 0.008995 -0.014557
v -0.000373 0.008997 -0.014556
v -0.000360 0.008995 -0.014557
v -0.000360 0.008995 -0.014557
v -0.000373 0.008997 -0.014556
v -0.000360 0.008997 -0.014556
v -0.000360 0.008997 -0.014556
v -0.000373 0.008997 -0.014556
v -0.000371 0.008999 -0.014555
v -0.000360 0.008999 -0.014555
v -0.000360 0.008997 -0.014556
v -0.000371 0.008999 -0.014555
v -0.000370 0.009000 -0.014554
v -0.000360 0.008999 -0.014555
v -0.000371 0.008999 -0.014555
v -0.000360 0.008613 -0.014557
v -0.000375 0.008611 -0.014557
v -0.000377 0.008613 -0.014557
v -0.000360 0.008613 -0.014557
v -0.000360 0.008611 -0.014557
v -0.000375 0.008611 -0.014557
v -0.000375 0.008611 -0.014557
v -0.000360 0.008611 -0.014557
v -0.000373 0.008609 -0.014556
v -0.000373 0.008609 -0.014556
v -0.000360 0.008611 -0.014557
v -0.000360 0.008609 -0.014556
v -0.000360 0.008607 -0.014555
v -0.000360 0.008606 -0.014554
v -0.000370 0.008606 -0.014554
v -0.000371 0.008607 -0.014555
v -0.000360 0.008609 -0.014556
v -0.000360 0.008607 -0.014555
v -0.000360 0.008606 -0.014554
v -0.000360 0.008605 -0.014553
v -0.000369 0.008605 -0.014553
v -0.000371 0.008607 -0.014555
v -0.000373 0.008609 -0.014556
v -0.000360 0.008609 -0.014556
v -0.000360 0.008603 -0.014549
v -0.000360 0.008603 -0.014547
v -0.000367 0.008603 -0.014547
v -0.000367 0.008603 -0.014549
v -0.000360 0.008603 -0.014549
v -0.000367 0.008603 -0.014547
v -0.000367 0.008603 -0.014549
v -0.000360 0.008604 -0.014551
v -0.000360 0.008603 -0.014549
v -0.000367 0.008603 -0.014549
v -0.000368 0.008604 -0.014551
v -0.000360 0.008604 -0.014551
v -0.000360 0.008604 -0.014551
v -0.000368 0.008604 -0.014551
v -0.000360 0.008605 -0.014553
v -0.000360 0.008605 -0.014553
v -0.000368 0.008604 -0.014551
v -0.000369 0.008605 -0.014553
v -0.000360 0.008606 -0.014554
v -0.000369 0.008605 -0.014553
v -0.000370 0.008606 -0.014554
v -0.000370 0.008606 -0.014554
v -0.000371 0.008607 -0.014555
v -0.000360 0.008607 -0.014555
v -0.000360 0.008603 -0.014653
v -0.000360 0.008603 -0.014651
v -0.000367 0.008603 -0.014651
v -0.000360 0.008603 -0.014651
v -0.000360 0.008603 -0.014651
v -0.000360 0.008604 -0.014649
v -0.000367 0.008603 -0.014651
v -0.000367 0.008603 -0.014651
v -0.000360 0.008604 -0.014649
v -0.000368 0.008604 -0.014649
v -0.000368 0.008604 -0.014649
v -0.000360 0.008604 -0.014649
v -0.000360 0.008605 -0.014647
v -0.000369 0.008605 -0.014647
v -0.000368 0.008604 -0.014649
v -0.000360 0.008605 -0.014647
v -0.000360 0.008606 -0.014646
v -0.000369 0.008605 -0.014647
v -0.000360 0.008605 -0.014647
v -0.000360 0.008607 -0.014645
v -0.000370 0.008606 -0.014646
v -0.000360 0.008606 -0.014646
v -0.000360 0.008606 -0.014646
v -0.000370 0.008606 -0.014646
v -0.000369 0.008605 -0.014647
v -0.000375 0.008611 -0.014643
v -0.000360 0.008613 -0.014643
v -0.000377 0.008613 -0.014643
v -0.000375 0.008611 -0.014643
v -0.000360 0.008611 -0.014643
v -0.000360 0.008613 -0.014643
v -0.000375 0.008611 -0.014643
v -0.000373 0.008609 -0.014644
v -0.000360 0.008611 -0.014643
v -0.000360 0.008611 -0.014643
v -0.000373 0.008609 -0.014644
v -0.000360 0.008609 -0.014644
v -0.000360 0.008609 -0.014644
v -0.000373 0.008609 -0.014644
v -0.000371 0.008607 -0.014645
v -0.000360 0.008607 -0.014645
v -0.000360 0.008609 -0.014644
v -0.000371 0.008607 -0.014645
v -0.000370 0.008606 -0.014646
v -0.000360 0.008607 -0.014645
v -0.000371 0.008607 -0.014645
v -0.000360 0.008655 -0.014496
v -0.000360 0.008653 -0.014497
v -0.000400 0.008655 -0.014496
v -0.000360 0.008653 -0.014497
v -0.000360 0.008651 -0.014498
v -0.000400 0.008653 -0.014497
v -0.000360 0.008651 -0.014498
v -0.000400 0.008651 -0.014498
v -0.000400 0.008653 -0.014497
v -0.000360 0.008650 -0.014499
v -0.000400 0.008650 -0.014499
v -0.000400 0.008651 -0.014498
v -0.000360 0.008649 -0.014500
v -0.000400 0.008650 -0.014499
v -0.000360 0.008650 -0.014499
v -0.000360 0.008648 -0.014502
v -0.000400 0.008649 -0.014500
v -0.000360 0.008649 -0.014500
v -0.000400 0.008648 -0.014502
v -0.000400 0.008649 -0.014500
v -0.000360 0.008648 -0.014502
v -0.000360 0.008655 -0.014496
v -0.000400 0.008655 -0.014496
v -0.000360 0.008657 -0.014496
v -0.000400 0.008647 -0.014504
v -0.000360 0.008647 -0.014506
v -0.000400 0.008647 -0.014506
v -0.000360 0.008647 -0.014504
v -0.000360 0.008647 -0.014506
v -0.000400 0.008647 -0.014504
v -0.000360 0.008647 -0.014504
v -0.000400 0.008647 -0.014504
v -0.000400 0.008648 -0.014502
v -0.000360 0.008647 -0.014504
v -0.000400 0.008648 -0.014502
v -0.000360 0.008648 -0.014502
v -0.000360 0.008649 -0.014500
v -0.000400 0.008649 -0.014500
v -0.000400 0.008650 -0.014499
v -0.000360 0.008651 -0.014498
v -0.000360 0.008650 -0.014499
v -0.000400 0.008651 -0.014498
v -0.000400 0.008655 -0.014496
v -0.000400 0.008657 -0.014496
v -0.000360 0.008657 -0.014496
v -0.000360 0.008653 -0.014497
v -0.000400 0.008653 -0.014497
v -0.000400 0.008655 -0.014496
v -0.000360 0.008647 -0.014696
v -0.000360 0.008648 -0.014698
v -0.000400 0.008647 -0.014696
v -0.000360 0.008648 -0.014698
v -0.000360 0.008649 -0.014700
v -0.000400 0.008648 -0.014698
v -0.000360 0.008649 -0.014700
v -0.000400 0.008649 -0.014700
v -0.000400 0.008648 -0.014698
v -0.000360 0.008650 -0.014701
v -0.000400 0.008650 -0.014701
v -0.000400 0.008649 -0.014700
v -0.000360 0.008651 -0.014702
v -0.000400 0.008650 -0.014701
v -0.000360 0.008650 -0.014701
v -0.000360 0.008653 -0.014703
v -0.000400 0.008651 -0.014702
v -0.000360 0.008651 -0.014702
v -0.000400 0.008653 -0.014703
v -0.000400 0.008651 -0.014702
v -0.000360 0.008653 -0.014703
v -0.000360 0.008647 -0.014696
v -0.000400 0.008647 -0.014696
v -0.000360 0.008647 -0.014694
v -0.000400 0.008655 -0.014704
v -0.000360 0.008657 -0.014704
v -0.000400 0.008657 -0.014704
v -0.000360 0.008655 -0.014704
v -0.000360 0.008657 -0.014704
v -0.000400 0.008655 -0.014704
v -0.000360 0.008655 -0.014704
v -0.000400 0.008655 -0.014704
v -0.000400 0.008653 -0.014703
v -0.000360 0.008655 -0.014704
v -0.000400 0.008653 -0.014703
v -0.000360 0.008653 -0.014703
v -0.000360 0.008651 -0.014702
v -0.000400 0.008651 -0.014702
v -0.000400 0.008650 -0.014701
v -0.000360 0.008649 -0.014700
v -0.000360 0.008650 -0.014701
v -0.000400 0.008649 -0.014700
v -0.000400 0.008647 -0.014696
v -0.000400 0.008647 -0.014694
v -0.000360 0.008647 -0.014694
v -0.000360 0.008648 -0.014698
v -0.000400 0.008648 -0.014698
v -0.000400 0.008647 -0.014696
v -0.000360 0.008959 -0.014504
v -0.000360 0.008958 -0.014502
v -0.000400 0.008959 -0.014504
v -0.000360 0.008958 -0.014502
v -0.000360 0.008957 -0.014500
v -0.000400 0.008958 -0.014502
v -0.000360 0.008957 -0.014500
v -0.000400 0.008957 -0.014500
v -0.000400 0.008958 -0.014502
v -0.000360 0.008956 -0.014499
v -0.000400 0.008956 -0.014499
v -0.000400 0.008957 -0.014500
v -0.000360 0.008955 -0.014498
v -0.000400 0.008956 -0.014499
v -0.000360 0.008956 -0.014499
v -0.000360 0.008953 -0.014497
v -0.000400 0.008955 -0.014498
v -0.000360 0.008955 -0.014498
v -0.000400 0.008953 -0.014497
v -0.000400 0.008955 -0.014498
v -0.000360 0.008953 -0.014497
v -0.000360 0.008949 -0.014496
v -0.000400 0.008949 -0.014496
v -0.000400 0.008951 -0.014496
v -0.000360 0.008949 -0.014496
v -0.000400 0.008951 -0.014496
v -0.000360 0.008951 -0.014496
v -0.000400 0.008951 -0.014496
v -0.000400 0.008953 -0.014497
v -0.000360 0.008951 -0.014496
v -0.000360 0.008959 -0.014504
v -0.000400 0.008959 -0.014504
v -0.000360 0.008959 -0.014506
v -0.000360 0.008953 -0.014497
v -0.000360 0.008951 -0.014496
v -0.000400 0.008953 -0.014497
v -0.000400 0.008959 -0.014504
v -0.000400 0.008959 -0.014506
v -0.000360 0.008959 -0.014506
v -0.000400 0.008959 -0.014504
v -0.000360 0.008958 -0.014502
v -0.000400 0.008958 -0.014502
v -0.000360 0.008957 -0.014500
v -0.000360 0.008956 -0.014499
v -0.000400 0.008957 -0.014500
v -0.000360 0.008955 -0.014498
v -0.000400 0.008955 -0.014498
v -0.000400 0.008956 -0.014499
v -0.000360 0.008993 -0.014800
v -0.000377 0.008993 -0.014800
v -0.000375 0.008995 -0.014800
v -0.000360 0.008995 -0.014800
v -0.000360 0.008993 -0.014800
v -0.000375 0.008995 -0.014800
v -0.000373 0.008997 -0.014799
v -0.000360 0.008995 -0.014800
v -0.000375 0.008995 -0.014800
v -0.000373 0.008997 -0.014799
v -0.000360 0.008997 -0.014799
v -0.000360 0.008995 -0.014800
v -0.000373 0.008997 -0.014799
v -0.000371 0.008999 -0.014798
v -0.000360 0.008997 -0.014799
v -0.000360 0.008997 -0.014799
v -0.000371 0.008999 -0.014798
v -0.000360 0.008999 -0.014798
v -0.000360 0.008999 -0.014798
v -0.000370 0.009000 -0.014797
v -0.000360 0.009000 -0.014797
v -0.000360 0.009003 -0.014790
v -0.000360 0.009003 -0.014792
v -0.000360 0.009003 -0.014792
v -0.000367 0.009003 -0.014792
v -0.000360 0.009003 -0.014792
v -0.000360 0.009002 -0.014794
v -0.000367 0.009003 -0.014792
v -0.000367 0.009003 -0.014792
v -0.000360 0.009002 -0.014794
v -0.000368 0.009002 -0.014794
v -0.000368 0.009002 -0.014794
v -0.000360 0.009002 -0.014794
v -0.000360 0.009001 -0.014796
v -0.000369 0.009001 -0.014796
v -0.000368 0.009002 -0.014794
v -0.000360 0.009001 -0.014796
v -0.000360 0.009000 -0.014797
v -0.000369 0.009001 -0.014796
v -0.000360 0.009001 -0.014796
v -0.000360 0.009000 -0.014797
v -0.000370 0.009000 -0.014797
v -0.000369 0.009001 -0.014796
v -0.000370 0.009000 -0.014797
v -0.000360 0.008999 -0.014798
v -0.000371 0.008999 -0.014798
v -0.000360 0.008603 -0.014790
v -0.000360 0.008603 -0.014792
v -0.000360 0.008603 -0.014792
v -0.000367 0.008603 -0.014792
v -0.000360 0.008604 -0.014794
v -0.000360 0.008603 -0.014792
v -0.000367 0.008603 -0.014792
v -0.000368 0.008604 -0.014794
v -0.000360 0.008604 -0.014794
v -0.000367 0.008603 -0.014792
v -0.000368 0.008604 -0.014794
v -0.000360 0.008605 -0.014796
v -0.000360 0.008604 -0.014794
v -0.000368 0.008604 -0.014794
v -0.000369 0.008605 -0.014796
v -0.000360 0.008605 -0.014796
v -0.000360 0.008605 -0.014796
v -0.000369 0.008605 -0.014796
v -0.000360 0.008606 -0.014797
v -0.000360 0.008606 -0.014797
v -0.000369 0.008605 -0.014796
v -0.000370 0.008606 -0.014797
v -0.000360 0.008607 -0.014798
v -0.000360 0.008606 -0.014797
v -0.000370 0.008606 -0.014797
v -0.000377 0.008613 -0.014800
v -0.000360 0.008613 -0.014800
v -0.000375 0.008611 -0.014800
v -0.000375 0.008611 -0.014800
v -0.000360 0.008613 -0.014800
v -0.000360 0.008611 -0.014800
v -0.000373 0.008609 -0.014799
v -0.000375 0.008611 -0.014800
v -0.000360 0.008611 -0.014800
v -0.000371 0.008607 -0.014798
v -0.000360 0.008609 -0.014799
v -0.000360 0.008607 -0.014798
v -0.000371 0.008607 -0.014798
v -0.000373 0.008609 -0.014799
v -0.000360 0.008609 -0.014799
v -0.000370 0.008606 -0.014797
v -0.000371 0.008607 -0.014798
v -0.000360 0.008607 -0.014798
v -0.000373 0.008609 -0.014799
v -0.000360 0.008611 -0.014800
v -0.000360 0.008609 -0.014799
v -0.000360 0.008951 -0.014704
v -0.000400 0.008951 -0.014704
v -0.000360 0.008949 -0.014704
v -0.000360 0.008953 -0.014703
v -0.000400 0.008951 -0.014704
v -0.000360 0.008951 -0.014704
v -0.000360 0.008955 -0.014702
v -0.000400 0.008953 -0.014703
v -0.000360 0.008953 -0.014703
v -0.000400 0.008955 -0.014702
v -0.000400 0.008953 -0.014703
v -0.000360 0.008955 -0.014702
v -0.000400 0.008956 -0.014701
v -0.000400 0.008955 -0.014702
v -0.000360 0.008956 -0.014701
v -0.000400 0.008956 -0.014701
v -0.000360 0.008956 -0.014701
v -0.000360 0.008957 -0.014700
v -0.000400 0.008957 -0.014700
v -0.000360 0.008957 -0.014700
v -0.000360 0.008958 -0.014698
v -0.000400 0.008959 -0.014694
v -0.000400 0.008959 -0.014696
v -0.000360 0.008959 -0.014694
v -0.000400 0.008959 -0.014696
v -0.000360 0.008959 -0.014696
v -0.000360 0.008959 -0.014694
v -0.000400 0.008958 -0.014698
v -0.000360 0.008959 -0.014696
v -0.000400 0.008959 -0.014696
v -0.000360 0.008958 -0.014698
v -0.000360 0.008959 -0.014696
v -0.000400 0.008958 -0.014698
v -0.000360 0.008958 -0.014698
v -0.000400 0.008958 -0.014698
v -0.000400 0.008957 -0.014700
v -0.000360 0.008957 -0.014700
v -0.000400 0.008957 -0.014700
v -0.000400 0.008956 -0.014701
v -0.000360 0.008955 -0.014702
v -0.000360 0.008956 -0.014701
v -0.000400 0.008955 -0.014702
v -0.000400 0.008951 -0.014704
v -0.000400 0.008949 -0.014704
v -0.000360 0.008949 -0.014704
v -0.000360 0.008953 -0.014703
v -0.000400 0.008953 -0.014703
v -0.000400 0.008951 -0.014704
v -0.000360 0.008993 -0.014643
v -0.000375 0.008995 -0.014643
v -0.000377 0.008993 -0.014643
v -0.000360 0.008993 -0.014643
v -0.000360 0.008995 -0.014643
v -0.000375 0.008995 -0.014643
v -0.000375 0.008995 -0.014643
v -0.000360 0.008995 -0.014643
v -0.000373 0.008997 -0.014644
v -0.000373 0.008997 -0.014644
v -0.000360 0.008995 -0.014643
v -0.000360 0.008997 -0.014644
v -0.000360 0.008999 -0.014645
v -0.000360 0.009000 -0.014646
v -0.000370 0.009000 -0.014646
v -0.000371 0.008999 -0.014645
v -0.000360 0.008997 -0.014644
v -0.000360 0.008999 -0.014645
v -0.000360 0.009000 -0.014646
v -0.000360 0.009001 -0.014647
v -0.000369 0.009001 -0.014647
v -0.000371 0.008999 -0.014645
v -0.000373 0.008997 -0.014644
v -0.000360 0.008997 -0.014644
v -0.000360 0.009003 -0.014651
v -0.000360 0.009003 -0.014653
v -0.000367 0.009003 -0.014651
v -0.000360 0.009003 -0.014651
v -0.000367 0.009003 -0.014651
v -0.000360 0.009002 -0.014649
v -0.000360 0.009003 -0.014651
v -0.000367 0.009003 -0.014651
v -0.000368 0.009002 -0.014649
v -0.000360 0.009002 -0.014649
v -0.000360 0.009002 -0.014649
v -0.000368 0.009002 -0.014649
v -0.000360 0.009001 -0.014647
v -0.000360 0.009001 -0.014647
v -0.000368 0.009002 -0.014649
v -0.000369 0.009001 -0.014647
v -0.000360 0.009000 -0.014646
v -0.000369 0.009001 -0.014647
v -0.000370 0.009000 -0.014646
v -0.000370 0.009000 -0.014646
v -0.000371 0.008999 -0.014645
v -0.000360 0.008999 -0.014645
v -0.000310 0.008773 -0.014620
v -0.000310 0.008773 -0.014580
v -0.000360 0.008773 -0.014620
v -0.000360 0.008773 -0.014580
v -0.000360 0.008773 -0.014620
v -0.000270 0.008780 -0.014620
v -0.000310 0.008773 -0.014620
v -0.000270 0.008783 -0.014620
v -0.000310 0.008773 -0.014620
v -0.000360 0.008783 -0.014620
v -0.000360 0.008773 -0.014620
v -0.000360 0.008783 -0.014620
v -0.000310 0.008773 -0.014620
v -0.000310 0.008783 -0.014630
v -0.000360 0.008783 -0.014620
v -0.000360 0.008783 -0.014630
v -0.000270 0.008783 -0.014620
v -0.000360 0.008783 -0.014620
v -0.000270 0.008783 -0.014620
v -0.000270 0.008783 -0.014623
v -0.000310 0.008823 -0.014630
v -0.000310 0.008783 -0.014630
v -0.000360 0.008823 -0.014630
v -0.000310 0.008783 -0.014630
v -0.000360 0.008783 -0.014630
v -0.000360 0.008823 -0.014630
v -0.000270 0.008823 -0.014623
v -0.000310 0.008823 -0.014630
v -0.000270 0.008823 -0.014620
v -0.000310 0.008823 -0.014630
v -0.000360 0.008823 -0.014620
v -0.000360 0.008823 -0.014630
v -0.000360 0.008823 -0.014620
v -0.000310 0.008823 -0.014630
v -0.000310 0.008833 -0.014620
v -0.000360 0.008823 -0.014620
v -0.000360 0.008833 -0.014620
v -0.000270 0.008823 -0.014620
v -0.000360 0.008823 -0.014620
v -0.000270 0.008823 -0.014620
v -0.000270 0.008826 -0.014620
v -0.000310 0.008833 -0.014580
v -0.000310 0.008833 -0.014620
v -0.000360 0.008833 -0.014580
v -0.000310 0.008833 -0.014620
v -0.000360 0.008833 -0.014620
v -0.000360 0.008833 -0.014580
v -0.000270 0.008826 -0.014580
v -0.000310 0.008833 -0.014580
v -0.000270 0.008823 -0.014580
v -0.000310 0.008833 -0.014580
v -0.000360 0.008823 -0.014580
v -0.000360 0.008833 -0.014580
v -0.000360 0.008823 -0.014580
v -0.000310 0.008833 -0.014580
v -0.000310 0.008823 -0.014570
v -0.000360 0.008823 -0.014580
v -0.000360 0.008823 -0.014570
v -0.000270 0.008823 -0.014580
v -0.000360 0.008823 -0.014580
v -0.000270 0.008823 -0.014580
v -0.000270 0.008823 -0.014577
v -0.000310 0.008783 -0.014570
v -0.000310 0.008823 -0.014570
v -0.000360 0.008783 -0.014570
v -0.000310 0.008823 -0.014570
v -0.000360 0.008823 -0.014570
v -0.000360 0.008783 -0.014570
v -0.000270 0.008783 -0.014577
v -0.000310 0.008783 -0.014570
v -0.000270 0.008783 -0.014580
v -0.000310 0.008783 -0.014570
v -0.000360 0.008783 -0.014580
v -0.000360 0.008783 -0.014570
v -0.000360 0.008783 -0.014580
v -0.000310 0.008783 -0.014570
v -0.000360 0.008807 -0.014580
v -0.000270 0.008807 -0.014580
v -0.000360 0.008803 -0.014580
v -0.000360 0.008811 -0.014582
v -0.000360 0.008814 -0.014583
v -0.000270 0.008811 -0.014582
v -0.000270 0.008814 -0.014583
v -0.000270 0.008817 -0.014586
v -0.000360 0.008817 -0.014586
v -0.000360 0.008820 -0.014589
v -0.000270 0.008820 -0.014589
v -0.000360 0.008821 -0.014592
v -0.000270 0.008821 -0.014592
v -0.000360 0.008823 -0.014596
v -0.000270 0.008823 -0.014596
v -0.000360 0.008823 -0.014600
v -0.000360 0.008823 -0.014604
v -0.000270 0.008823 -0.014600
v -0.000270 0.008823 -0.014604
v -0.000360 0.008821 -0.014608
v -0.000270 0.008821 -0.014608
v -0.000360 0.008820 -0.014611
v -0.000360 0.008817 -0.014614
v -0.000270 0.008820 -0.014611
v -0.000270 0.008817 -0.014614
v -0.000270 0.008814 -0.014617
v -0.000360 0.008814 -0.014617
v -0.000360 0.008811 -0.014618
v -0.000270 0.008811 -0.014618
v -0.000360 0.008807 -0.014620
v -0.000270 0.008807 -0.014620
v -0.000360 0.008803 -0.014620
v -0.000270 0.008803 -0.014620
v -0.000360 0.008799 -0.014620
v -0.000270 0.008799 -0.014620
v -0.000360 0.008795 -0.014618
v -0.000270 0.008795 -0.014618
v -0.000360 0.008792 -0.014617
v -0.000360 0.008783 -0.014600
v -0.000270 0.008783 -0.014600
v -0.000270 0.008783 -0.014604
v -0.000360 0.008783 -0.014596
v -0.000270 0.008783 -0.014596
v -0.000360 0.008785 -0.014592
v -0.000270 0.008785 -0.014592
v -0.000360 0.008786 -0.014589
v -0.000270 0.008786 -0.014589
v -0.000360 0.008789 -0.014586
v -0.000360 0.008792 -0.014583
v -0.000270 0.008789 -0.014586
v -0.000270 0.008792 -0.014583
v -0.000270 0.008795 -0.014582
v -0.000360 0.008795 -0.014582
v -0.000270 0.008799 -0.014580
v -0.000360 0.008799 -0.014580
v -0.000270 0.008803 -0.014580
v -0.000360 0.008783 -0.014604
v -0.000270 0.008785 -0.014608
v -0.000360 0.008785 -0.014608
v -0.000270 0.008786 -0.014611
v -0.000360 0.008786 -0.014611
v -0.000270 0.008789 -0.014614
v -0.000360 0.008789 -0.014614
v -0.000270 0.008792 -0.014617
v -0.000310 0.008773 -0.014580
v -0.000360 0.008783 -0.014580
v -0.000360 0.008773 -0.014580
v -0.000270 0.008783 -0.014580
v -0.000360 0.008783 -0.014580
v -0.000310 0.008773 -0.014580
v -0.000270 0.008783 -0.014580
v -0.000310 0.008773 -0.014580
v -0.000270 0.008780 -0.014580
v -0.000270 0.008803 -0.014577
v -0.000270 0.008803 -0.014580
v -0.000270 0.008807 -0.014580
v -0.000270 0.008780 -0.014620
v -0.000270 0.008783 -0.014620
v -0.000270 0.008786 -0.014611
v -0.000270 0.008780 -0.014580
v -0.000270 0.008785 -0.014592
v -0.000270 0.008786 -0.014589
v -0.000270 0.008795 -0.014582
v -0.000270 0.008799 -0.014580
v -0.000270 0.008783 -0.014577
v -0.000270 0.008792 -0.014583
v -0.000270 0.008795 -0.014582
v -0.000270 0.008823 -0.014577
v -0.000270 0.008811 -0.014582
v -0.000270 0.008814 -0.014583
v -0.000270 0.008826 -0.014600
v -0.000270 0.008821 -0.014592
v -0.000270 0.008823 -0.014596
v -0.000270 0.008826 -0.014580
v -0.000270 0.008820 -0.014589
v -0.000270 0.008821 -0.014592
v -0.000270 0.008826 -0.014620
v -0.000270 0.008821 -0.014608
v -0.000270 0.008820 -0.014611
v -0.000270 0.008803 -0.014623
v -0.000270 0.008811 -0.014618
v -0.000270 0.008807 -0.014620
v -0.000270 0.008823 -0.014623
v -0.000270 0.008814 -0.014617
v -0.000270 0.008811 -0.014618
v -0.000270 0.008783 -0.014623
v -0.000270 0.008795 -0.014618
v -0.000270 0.008792 -0.014617
v -0.000270 0.008783 -0.014620
v -0.000270 0.008792 -0.014617
v -0.000270 0.008789 -0.014614
v -0.000270 0.008783 -0.014620
v -0.000270 0.008789 -0.014614
v -0.000270 0.008786 -0.014611
v -0.000270 0.008799 -0.014580
v -0.000270 0.008803 -0.014580
v -0.000270 0.008783 -0.014577
v -0.000270 0.008795 -0.014582
v -0.000270 0.008786 -0.014589
v -0.000270 0.008783 -0.014580
v -0.000270 0.008780 -0.014580
v -0.000270 0.008792 -0.014583
v -0.000270 0.008783 -0.014577
v -0.000270 0.008783 -0.014580
v -0.000270 0.008789 -0.014586
v -0.000270 0.008792 -0.014583
v -0.000270 0.008783 -0.014580
v -0.000270 0.008786 -0.014589
v -0.000270 0.008789 -0.014586
v -0.000270 0.008783 -0.014580
v -0.000270 0.008785 -0.014592
v -0.000270 0.008780 -0.014580
v -0.000270 0.008780 -0.014600
v -0.000270 0.008783 -0.014596
v -0.000270 0.008785 -0.014592
v -0.000270 0.008783 -0.014604
v -0.000270 0.008783 -0.014600
v -0.000270 0.008780 -0.014620
v -0.000270 0.008785 -0.014608
v -0.000270 0.008785 -0.014608
v -0.000270 0.008783 -0.014604
v -0.000270 0.008786 -0.014611
v -0.000270 0.008785 -0.014608
v -0.000270 0.008780 -0.014620
v -0.000270 0.008792 -0.014617
v -0.000270 0.008783 -0.014620
v -0.000270 0.008783 -0.014623
v -0.000270 0.008783 -0.014600
v -0.000270 0.008783 -0.014596
v -0.000270 0.008799 -0.014620
v -0.000270 0.008795 -0.014618
v -0.000270 0.008807 -0.014620
v -0.000270 0.008803 -0.014620
v -0.000270 0.008823 -0.014623
v -0.000270 0.008811 -0.014618
v -0.000270 0.008820 -0.014611
v -0.000270 0.008823 -0.014620
v -0.000270 0.008826 -0.014620
v -0.000270 0.008814 -0.014617
v -0.000270 0.008823 -0.014623
v -0.000270 0.008823 -0.014620
v -0.000270 0.008817 -0.014614
v -0.000270 0.008814 -0.014617
v -0.000270 0.008823 -0.014620
v -0.000270 0.008820 -0.014611
v -0.000270 0.008817 -0.014614
v -0.000270 0.008823 -0.014620
v -0.000270 0.008821 -0.014608
v -0.000270 0.008826 -0.014620
v -0.000270 0.008823 -0.014604
v -0.000270 0.008821 -0.014608
v -0.000270 0.008823 -0.014596
v -0.000270 0.008823 -0.014600
v -0.000270 0.008826 -0.014580
v -0.000270 0.008821 -0.014592
v -0.000270 0.008814 -0.014583
v -0.000270 0.008823 -0.014580
v -0.000270 0.008823 -0.014577
v -0.000270 0.008820 -0.014589
v -0.000270 0.008826 -0.014580
v -0.000270 0.008823 -0.014580
v -0.000270 0.008817 -0.014586
v -0.000270 0.008820 -0.014589
v -0.000270 0.008823 -0.014580
v -0.000270 0.008814 -0.014583
v -0.000270 0.008817 -0.014586
v -0.000270 0.008823 -0.014580
v -0.000270 0.008811 -0.014582
v -0.000270 0.008823 -0.014577
v -0.000270 0.008803 -0.014620
v -0.000270 0.008799 -0.014620
v -0.000270 0.008807 -0.014580
v -0.000270 0.008811 -0.014582
v -0.000270 0.008795 -0.014618
v -0.000270 0.008783 -0.014623
v -0.000270 0.008823 -0.014600
v -0.000270 0.008823 -0.014604
v -0.000360 0.008811 -0.014582
v -0.000360 0.008807 -0.014580
v -0.000360 0.008803 -0.014580
v -0.000360 0.008814 -0.014583
v -0.000360 0.008811 -0.014582
v -0.000360 0.008803 -0.014580
v -0.000360 0.008817 -0.014586
v -0.000360 0.008814 -0.014583
v -0.000360 0.008803 -0.014580
v -0.000360 0.008820 -0.014589
v -0.000360 0.008817 -0.014586
v -0.000360 0.008803 -0.014580
v -0.000360 0.008821 -0.014592
v -0.000360 0.008803 -0.014580
v -0.000360 0.008823 -0.014596
v -0.000360 0.008821 -0.014592
v -0.000360 0.008820 -0.014589
v -0.000360 0.008803 -0.014580
v -0.000360 0.008823 -0.014596
v -0.000360 0.008803 -0.014580
v -0.000360 0.008823 -0.014600
v -0.000360 0.008823 -0.014600
v -0.000360 0.008803 -0.014580
v -0.000360 0.008823 -0.014604
v -0.000360 0.008803 -0.014580
v -0.000360 0.008821 -0.014608
v -0.000360 0.008823 -0.014604
v -0.000360 0.008803 -0.014580
v -0.000360 0.008820 -0.014611
v -0.000360 0.008821 -0.014608
v -0.000360 0.008803 -0.014580
v -0.000360 0.008817 -0.014614
v -0.000360 0.008820 -0.014611
v -0.000360 0.008811 -0.014618
v -0.000360 0.008814 -0.014617
v -0.000360 0.008803 -0.014580
v -0.000360 0.008803 -0.014580
v -0.000360 0.008814 -0.014617
v -0.000360 0.008817 -0.014614
v -0.000360 0.008807 -0.014620
v -0.000360 0.008803 -0.014580
v -0.000360 0.008803 -0.014620
v -0.000360 0.008803 -0.014620
v -0.000360 0.008803 -0.014580
v -0.000360 0.008799 -0.014620
v -0.000360 0.008803 -0.014580
v -0.000360 0.008795 -0.014618
v -0.000360 0.008799 -0.014620
v -0.000360 0.008803 -0.014580
v -0.000360 0.008792 -0.014617
v -0.000360 0.008795 -0.014618
v -0.000360 0.008803 -0.014580
v -0.000360 0.008789 -0.014614
v -0.000360 0.008792 -0.014617
v -0.000360 0.008785 -0.014608
v -0.000360 0.008786 -0.014611
v -0.000360 0.008803 -0.014580
v -0.000360 0.008803 -0.014580
v -0.000360 0.008786 -0.014611
v -0.000360 0.008789 -0.014614
v -0.000360 0.008783 -0.014604
v -0.000360 0.008785 -0.014608
v -0.000360 0.008803 -0.014580
v -0.000360 0.008783 -0.014600
v -0.000360 0.008783 -0.014604
v -0.000360 0.008803 -0.014580
v -0.000360 0.008783 -0.014600
v -0.000360 0.008803 -0.014580
v -0.000360 0.008783 -0.014596
v -0.000360 0.008783 -0.014596
v -0.000360 0.008803 -0.014580
v -0.000360 0.008785 -0.014592
v -0.000360 0.008785 -0.014592
v -0.000360 0.008803 -0.014580
v -0.000360 0.008786 -0.014589
v -0.000360 0.008803 -0.014580
v -0.000360 0.008792 -0.014583
v -0.000360 0.008789 -0.014586
v -0.000360 0.008786 -0.014589
v -0.000360 0.008803 -0.014580
v -0.000360 0.008789 -0.014586
v -0.000360 0.008803 -0.014580
v -0.000360 0.008795 -0.014582
v -0.000360 0.008792 -0.014583
v -0.000360 0.008803 -0.014580
v -0.000360 0.008807 -0.014620
v -0.000360 0.008811 -0.014618
v -0.000360 0.008799 -0.014580
v -0.000360 0.008795 -0.014582
v -0.000360 0.008803 -0.014580
v -0.000270 0.008803 -0.014623
v -0.000270 0.008783 -0.014623
v -0.000310 0.008783 -0.014630
v -0.000270 0.008823 -0.014623
v -0.000270 0.008803 -0.014623
v -0.000270 0.008803 -0.014623
v -0.000310 0.008783 -0.014630
v -0.000270 0.008826 -0.014600
v -0.000270 0.008826 -0.014620
v -0.000310 0.008833 -0.014620
v -0.000270 0.008826 -0.014580
v -0.000270 0.008826 -0.014600
v -0.000270 0.008826 -0.014600
v -0.000310 0.008833 -0.014620
v -0.000270 0.008803 -0.014577
v -0.000270 0.008823 -0.014577
v -0.000310 0.008823 -0.014570
v -0.000270 0.008783 -0.014577
v -0.000270 0.008803 -0.014577
v -0.000270 0.008803 -0.014577
v -0.000310 0.008823 -0.014570
v -0.000270 0.008780 -0.014600
v -0.000270 0.008780 -0.014580
v -0.000270 0.008780 -0.014620
v -0.000270 0.008780 -0.014600
v -0.000270 0.008780 -0.014600
v -0.000330 0.008763 -0.014778
v -0.000360 0.008803 -0.014778
v -0.000330 0.008843 -0.014778
v -0.000360 0.008803 -0.014778
v -0.000360 0.008843 -0.014778
v -0.000360 0.008803 -0.014778
v -0.000360 0.008763 -0.014778
v -0.000330 0.008763 -0.014758
v -0.000360 0.008763 -0.014758
v -0.000330 0.008763 -0.014778
v -0.000330 0.008763 -0.014778
v -0.000360 0.008763 -0.014758
v -0.000360 0.008763 -0.014778
v -0.000330 0.008843 -0.014758
v -0.000360 0.008843 -0.014758
v -0.000330 0.008763 -0.014758
v -0.000330 0.008763 -0.014758
v -0.000360 0.008843 -0.014758
v -0.000360 0.008763 -0.014758
v -0.000330 0.008843 -0.014778
v -0.000360 0.008843 -0.014778
v -0.000330 0.008843 -0.014758
v -0.000330 0.008843 -0.014758
v -0.000360 0.008843 -0.014778
v -0.000360 0.008843 -0.014758
v -0.000330 0.008843 -0.014778
v -0.000330 0.008843 -0.014758
v -0.000330 0.008763 -0.014778
v -0.000330 0.008843 -0.014758
v -0.000330 0.008763 -0.014758
v -0.000330 0.008763 -0.014778
v -0.000400 0.008803 -0.014402
v -0.000373 0.008803 -0.014405
v -0.000400 0.008970 -0.014402
v -0.000400 0.008636 -0.014402
v -0.000373 0.008609 -0.014405
v -0.000400 0.008636 -0.014402
v -0.000400 0.008803 -0.014402
v -0.000373 0.008997 -0.014405
v -0.000400 0.008970 -0.014402
v -0.000373 0.008997 -0.014400
v -0.000373 0.008803 -0.014405
v -0.000373 0.008803 -0.014400
v -0.000373 0.008997 -0.014400
v -0.000373 0.008997 -0.014405
v -0.000373 0.008803 -0.014405
v -0.000373 0.008609 -0.014400
v -0.000373 0.008803 -0.014405
v -0.000373 0.008609 -0.014405
v -0.000373 0.008803 -0.014405
v -0.000373 0.008609 -0.014400
v -0.000373 0.008803 -0.014400
vn -1.0000 -0.0000 -0.0000
vn -0.7072 0.7070 0.0003
vn -0.7071 0.7071 -0.0000
vn -0.7071 0.7071 -0.0001
vn -0.7071 0.7071 -0.0002
vn -0.7073 0.7069 0.0001
vn -0.7072 0.7070 -0.0000
vn -0.7070 0.7072 -0.0000
vn 0.0001 -0.0000 1.0000
vn -0.0000 -0.0000 1.0000
vn -0.0002 -0.0000 1.0000
vn -0.7071 -0.7071 -0.0000
vn -0.7072 -0.7070 -0.0000
vn -0.7070 -0.7072 -0.0000
vn -0.7070 -0.7072 0.0001
vn -0.7073 -0.7069 0.0003
vn -0.7072 -0.7071 -0.0000
vn -0.7070 -0.7072 -0.0004
vn -0.7071 -0.7071 0.0002
vn -0.7069 -0.7073 -0.0000
vn 1.0000 -0.0000 -0.0000
vn 1.0000 0.0001 -0.0000
vn 1.0000 -0.0001 -0.0000
vn -0.0000 1.0000 -0.0000
vn -0.7071 0.7072 -0.0000
vn -0.7069 0.7073 -0.0000
vn -0.7071 0.7071 0.0003
vn -0.7071 0.7071 0.0002
vn -0.7073 0.7069 -0.0003
vn -0.7074 0.7068 -0.0002
vn -0.0000 -1.0000 -0.0000
vn -0.7071 -0.7071 -0.0002
vn -0.7070 -0.7072 -0.0001
vn -0.7072 -0.7070 0.0004
vn -0.7072 -0.7070 0.0003
vn -0.7071 -0.7071 -0.0001
vn -0.7070 -0.7072 -0.0003
vn -0.7072 -0.7070 0.0001
vn -0.7073 -0.7069 -0.0000
vn -0.7071 -0.7071 0.0001
vn -0.0000 -0.0000 -1.0000
vn -0.0000 -0.0980 0.9952
vn -0.0000 -0.1951 0.9808
vn -0.0000 -0.2903 0.9569
vn -0.0000 -0.3827 0.9239
vn -0.0000 -0.4714 0.8819
vn -0.0000 -0.5556 0.8315
vn -0.0000 -0.6344 0.7730
vn -0.0000 -0.5556 0.8314
vn -0.0000 -0.7071 0.7071
vn -0.0000 -0.7072 0.7070
vn -0.0000 -0.7730 0.6344
vn -0.0000 -0.8314 0.5556
vn -0.0000 -0.8315 0.5555
vn -0.0000 -0.8819 0.4714
vn -0.0000 -0.9239 0.3827
vn -0.0000 -0.9952 0.0980
vn -0.0000 -1.0000 0.0001
vn -0.0000 -0.9808 0.1951
vn -0.0000 -0.9569 0.2903
vn -0.0000 -0.8315 0.5556
vn -0.0000 -0.9952 -0.0980
vn -0.0000 -0.9808 -0.1951
vn -0.0000 -0.9569 -0.2903
vn -0.0000 -0.9239 -0.3827
vn -0.0000 -0.8819 -0.4714
vn -0.0000 -0.8315 -0.5555
vn -0.0000 -0.7730 -0.6344
vn -0.0000 -0.8314 -0.5556
vn -0.0000 -0.7071 -0.7071
vn -0.0000 -0.6344 -0.7730
vn -0.0000 -0.5556 -0.8314
vn -0.0000 -0.5556 -0.8315
vn -0.0000 -0.4714 -0.8819
vn -0.0000 -0.3827 -0.9239
vn -0.0000 -0.0980 -0.9952
vn -0.0000 -0.1951 -0.9808
vn -0.0000 -0.2903 -0.9569
vn -0.0000 -0.7072 -0.7070
vn -0.0000 0.0980 0.9952
vn -0.0000 0.1951 0.9808
vn -0.0000 0.2903 0.9569
vn -0.0000 0.3827 0.9239
vn -0.0000 0.4714 0.8819
vn -0.0000 0.5556 0.8315
vn -0.0000 0.5555 0.8315
vn -0.0000 0.5556 0.8314
vn -0.0000 0.6344 0.7730
vn -0.0000 0.7730 0.6344
vn -0.0000 0.8314 0.5556
vn -0.0000 0.8315 0.5555
vn -0.0000 0.8819 0.4714
vn -0.0000 0.9952 0.0980
vn -0.0000 0.9808 0.1951
vn -0.0000 0.9569 0.2903
vn -0.0000 0.9239 0.3827
vn -0.0000 0.8315 0.5556
vn -0.0000 0.7072 0.7070
vn -0.0000 0.7070 0.7073
vn -0.0000 0.7071 0.7071
vn -0.0000 0.9952 -0.0980
vn -0.0000 0.9808 -0.1951
vn -0.0000 0.9569 -0.2903
vn -0.0000 0.9239 -0.3827
vn -0.0000 0.8819 -0.4714
vn -0.0000 0.8315 -0.5555
vn -0.0000 0.7730 -0.6344
vn -0.0000 0.8315 -0.5556
vn -0.0000 0.7072 -0.7070
vn -0.0000 0.7071 -0.7071
vn -0.0000 0.6344 -0.7730
vn -0.0000 0.5556 -0.8314
vn -0.0000 0.5556 -0.8315
vn -0.0000 0.4714 -0.8819
vn -0.0000 0.3827 -0.9239
vn -0.0000 0.0980 -0.9952
vn -0.0000 0.1951 -0.9808
vn -0.0000 0.2903 -0.9569
vn -0.0000 0.7070 -0.7073
vn -0.0000 0.8314 -0.5556
vn -0.0000 0.9808 -0.1950
vn -0.0000 0.7074 -0.7068
vn -0.0000 0.8314 -0.5557
vn -0.0000 0.7068 -0.7074
vn -0.0000 0.1950 -0.9808
vn -0.0000 0.3826 -0.9239
vn -0.0000 0.5555 -0.8315
vn -0.0000 0.7070 -0.7072
vn -0.0000 -0.1950 -0.9808
vn -0.0000 -0.3826 -0.9239
vn -0.0000 -0.5555 -0.8315
vn -0.0000 -0.7074 -0.7068
vn -0.0000 -0.8314 -0.5557
vn -0.0000 -0.9808 -0.1950
vn -0.0000 -0.9808 -0.1952
vn -0.0000 -0.8315 -0.5556
vn -0.0000 -0.7068 -0.7074
vn -0.0000 -0.7070 -0.7072
vn -0.0000 -0.9808 0.1950
vn -0.0000 -0.9808 0.1952
vn -0.0000 -0.7070 0.7072
vn -0.0000 -0.8314 0.5557
vn -0.0000 -0.1950 0.9808
vn -0.0000 -0.1952 0.9808
vn -0.0000 -0.3826 0.9239
vn -0.0000 -0.5555 0.8315
vn -0.0000 -0.7068 0.7075
vn -0.0000 0.1952 -0.9808
vn -0.0000 0.9239 -0.3826
vn -0.0000 0.9239 0.3826
vn -0.0000 0.7070 0.7072
vn -0.0000 0.5557 0.8314
vn -0.0000 0.9808 0.1950
vn -0.0000 0.1950 0.9808
vn -0.0000 0.1952 0.9808
vn -0.0000 0.3826 0.9239
vn -0.0000 0.7069 0.7073
vn -0.0000 0.8314 0.5557
vn -0.0000 -0.9239 -0.3826
vn -0.0000 -0.7069 -0.7073
vn -0.0000 -0.1952 -0.9808
vn -0.0000 0.7068 -0.7075
vn -0.0000 -0.7068 -0.7075
vn -0.0000 -0.7069 0.7073
vn -0.0000 -0.5557 0.8314
vn -0.0000 -0.9239 0.3826
vn -0.0000 0.7068 0.7075
vn -0.0002 -0.0000 -1.0000
vn -0.0000 1.0000 0.0001
vn -0.0001 -0.0000 -1.0000
vn -0.0000 1.0000 -0.0001
vn -0.0000 -0.3828 -0.9238
vn -0.0000 -0.3828 0.9238
vn -0.0000 0.3828 0.9238
vn -0.0000 0.9238 -0.3828
vn -0.0000 0.3828 -0.9238
vn -0.0000 0.9238 0.3828
vn 0.1724 -0.0000 -0.9850
vn 0.0001 -0.0000 -1.0000
vn 0.1724 0.9850 -0.0000
vn 0.0001 1.0000 -0.0000
vn 0.1724 -0.0000 0.9850
vn 0.1724 -0.9850 -0.0000
vn 0.0001 -1.0000 -0.0000
vn 0.1104 -0.0000 0.9939
vn 0.1105 -0.0000 0.9939
s 1
usemtl Diffuse_51_51_51_100.031
f 1//1 2//1 3//1
f 4//1 5//1 6//1
f 7//1 8//1 9//1
f 10//1 11//1 12//1
f 13//1 14//1 15//1
f 3//1 16//1 1//1
f 3//1 2//1 17//1
f 18//1 13//1 1//1
f 19//1 1//1 16//1
f 20//1 1//1 19//1
f 21//1 1//1 20//1
f 22//1 1//1 21//1
f 23//1 1//1 22//1
f 1//1 23//1 24//1
f 1//1 24//1 25//1
f 1//1 25//1 26//1
f 1//1 26//1 18//1
f 13//1 18//1 27//1
f 13//1 27//1 28//1
f 13//1 28//1 29//1
f 13//1 29//1 30//1
f 13//1 30//1 14//1
f 31//1 14//1 32//1
f 14//1 33//1 32//1
f 34//1 35//1 36//1
f 33//1 35//1 34//1
f 36//1 37//1 38//1
f 38//1 39//1 40//1
f 39//1 41//1 40//1
f 41//1 42//1 43//1
f 42//1 44//1 43//1
f 45//1 46//1 47//1
f 45//1 47//1 48//1
f 48//1 49//1 50//1
f 51//1 50//1 49//1
f 52//1 53//1 51//1
f 54//1 53//1 52//1
f 55//1 54//1 56//1
f 55//1 56//1 57//1
f 58//1 57//1 59//1
f 60//1 61//1 62//1
f 61//1 59//1 62//1
f 60//1 62//1 63//1
f 58//1 59//1 61//1
f 64//1 65//1 66//1
f 67//1 65//1 64//1
f 68//1 69//1 70//1
f 69//1 71//1 70//1
f 72//1 4//1 68//1
f 68//1 73//1 74//1
f 75//1 4//1 72//1
f 76//1 73//1 68//1
f 77//1 4//1 75//1
f 78//1 4//1 77//1
f 79//1 4//1 78//1
f 80//1 4//1 79//1
f 4//1 80//1 81//1
f 76//1 68//1 82//1
f 4//1 83//1 84//1
f 85//1 86//1 63//1
f 85//1 65//1 67//1
f 85//1 67//1 86//1
f 63//1 86//1 60//1
f 5//1 4//1 87//1
f 9//1 88//1 7//1
f 9//1 8//1 89//1
f 90//1 91//1 7//1
f 92//1 7//1 88//1
f 93//1 7//1 92//1
f 94//1 7//1 93//1
f 95//1 7//1 94//1
f 96//1 7//1 95//1
f 7//1 96//1 97//1
f 7//1 97//1 98//1
f 7//1 98//1 99//1
f 7//1 99//1 90//1
f 91//1 90//1 100//1
f 91//1 100//1 101//1
f 91//1 101//1 102//1
f 91//1 102//1 103//1
f 91//1 103//1 69//1
f 91//1 69//1 68//1
f 70//1 82//1 68//1
f 4//1 81//1 83//1
f 84//1 87//1 4//1
f 6//1 5//1 104//1
f 66//1 70//1 71//1
f 66//1 71//1 64//1
f 32//1 33//1 34//1
f 57//1 58//1 55//1
f 56//1 54//1 52//1
f 51//1 53//1 50//1
f 47//1 49//1 48//1
f 105//1 46//1 45//1
f 44//1 42//1 106//1
f 44//1 106//1 105//1
f 43//1 40//1 41//1
f 39//1 38//1 37//1
f 37//1 36//1 35//1
f 107//1 31//1 32//1
f 108//1 31//1 107//1
f 109//1 31//1 108//1
f 31//1 109//1 110//1
f 31//1 111//1 10//1
f 111//1 112//1 10//1
f 113//1 10//1 114//1
f 10//1 115//1 114//1
f 116//1 10//1 113//1
f 117//1 10//1 116//1
f 10//1 117//1 118//1
f 10//1 118//1 119//1
f 112//1 115//1 10//1
f 31//1 110//1 111//1
f 74//1 72//1 68//1
f 120//1 10//1 119//1
f 106//1 46//1 105//1
f 11//1 10//1 120//1
f 11//1 121//1 12//1
f 15//1 14//1 31//1
f 122//2 123//3 124//4
f 124//4 123//3 125//5
f 126//4 122//2 124//4
f 124//4 127//3 128//6
f 129//3 130//7 124//4
f 124//4 130//7 127//3
f 131//8 129//3 124//4
f 124//3 132//3 133//3
f 133//3 134//3 135//3
f 133//3 136//3 137//3
f 124//3 133//3 137//3
f 126//4 124//4 128//6
f 138//3 124//3 139//3
f 140//9 141//9 142//10
f 141//9 140//9 143//11
f 143//11 144//11 145//11
f 143//10 146//10 147//10
f 143//11 145//11 141//9
f 148//12 149//12 150//12
f 149//12 151//12 150//12
f 150//12 152//12 153//12
f 154//13 150//14 155//15
f 154//13 156//16 150//14
f 150//14 157//17 158//12
f 150//14 159//18 157//17
f 160//12 150//14 158//12
f 155//15 150//14 161//19
f 162//12 149//12 163//12
f 164//14 150//14 160//12
f 159//18 150//14 156//16
f 149//20 165//20 166//20
f 167//21 168//21 169//21
f 170//21 171//21 172//21
f 170//21 173//21 174//21
f 175//21 176//21 177//21
f 178//21 179//21 180//21
f 180//21 179//21 181//21
f 182//21 183//21 176//21
f 184//21 181//21 185//21
f 186//21 184//21 187//21
f 181//21 184//21 180//21
f 188//21 189//21 184//21
f 185//21 190//21 184//21
f 174//21 191//21 192//21
f 193//21 170//21 192//21
f 184//21 194//21 180//21
f 195//22 196//21 197//21
f 198//21 195//22 197//21
f 199//21 198//21 197//21
f 200//21 199//21 197//21
f 201//21 200//21 197//21
f 202//21 201//21 197//21
f 203//21 202//21 197//21
f 203//21 169//21 168//21
f 204//21 205//21 206//21
f 204//21 207//21 205//21
f 205//21 207//21 208//21
f 209//21 205//21 208//21
f 209//21 210//21 205//21
f 211//21 210//21 212//21
f 210//21 213//21 214//21
s 0
f 210//23 215//23 216//23
s 1
f 210//21 217//21 215//21
f 218//21 219//21 220//21
f 221//21 218//21 222//21
f 221//21 223//21 218//21
f 221//21 224//21 223//21
f 221//21 225//21 224//21
f 226//21 221//21 227//21
f 226//21 228//21 221//21
s 0
f 229//21 227//21 221//21
s 1
f 219//21 218//21 210//21
f 221//21 222//21 230//21
f 231//21 219//21 210//21
f 232//21 231//21 210//21
f 233//21 232//21 210//21
f 234//21 233//21 210//21
f 210//21 209//21 234//21
f 210//21 211//21 213//21
f 210//21 216//21 212//21
f 206//21 235//21 236//21
f 236//21 235//21 237//21
f 237//21 235//21 238//21
f 238//21 235//21 239//21
f 240//21 241//21 235//21
f 235//21 241//21 242//21
f 243//21 235//21 244//21
f 244//21 235//21 172//21
f 172//21 235//21 170//21
f 170//21 235//21 176//21
f 176//21 235//21 177//21
f 171//21 170//21 245//21
f 174//21 192//21 170//21
f 176//21 179//21 178//21
f 246//21 186//21 191//21
f 190//21 188//21 184//21
f 191//21 186//21 247//21
f 189//21 248//21 184//21
f 249//21 247//21 186//21
f 187//21 184//21 248//21
f 170//21 193//21 250//21
f 186//21 251//21 252//21
f 253//21 186//21 252//21
f 186//21 254//21 251//21
f 253//21 249//21 186//21
f 255//21 256//21 257//21
f 258//21 255//21 257//21
f 259//21 260//21 261//21
f 261//21 260//21 262//21
f 263//21 264//21 265//21
f 266//21 267//21 268//21
f 269//21 270//21 271//21
f 268//21 272//21 273//21
f 273//21 274//21 275//21
f 275//21 276//21 277//21
f 277//21 278//21 279//21
f 279//21 280//21 281//21
f 263//21 259//21 282//21
f 283//21 281//21 284//21
f 285//21 283//21 286//21
f 287//21 259//21 261//21
f 288//21 254//21 187//21
f 288//21 258//21 257//21
f 288//21 187//21 258//21
f 254//21 186//21 187//21
f 246//21 289//21 186//21
f 206//21 236//21 204//21
f 256//21 255//21 262//21
f 239//21 235//21 242//21
f 260//21 256//21 262//21
f 214//21 205//21 210//21
f 176//21 290//21 291//21
f 221//21 228//21 225//21
f 292//21 293//21 294//21
f 292//21 285//21 293//21
f 285//21 295//21 293//21
f 220//21 222//21 218//21
f 296//21 285//21 297//21
f 298//21 299//21 300//21
f 301//21 298//21 302//21
f 301//21 303//21 298//21
f 301//21 304//21 303//21
f 301//21 305//21 304//21
f 306//21 301//21 307//21
f 306//21 308//21 301//21
f 309//21 307//21 301//21
f 299//21 298//21 310//21
f 301//21 302//21 311//21
f 312//21 299//21 313//21
f 314//21 312//21 315//21
f 316//21 314//21 317//21
f 318//21 316//21 319//21
f 320//21 321//21 318//21
f 322//21 323//21 324//21
f 325//21 326//21 323//21
f 327//21 328//21 329//21
f 330//21 331//21 328//21
f 332//21 287//21 331//21
f 333//21 334//21 287//21
f 335//21 266//21 270//21
f 285//21 336//21 283//21
f 337//21 259//21 287//21
f 285//21 292//21 336//21
f 285//21 338//21 295//21
f 285//21 339//21 338//21
f 285//21 340//21 341//21
s 0
f 285//23 296//23 340//23
s 1
f 341//21 339//21 285//21
f 246//21 191//21 174//21
f 245//21 170//21 250//21
f 291//21 179//21 176//21
f 183//21 290//21 176//21
f 176//21 178//21 342//21
f 343//21 344//21 177//21
f 177//21 344//21 345//21
f 346//21 343//21 177//21
f 347//21 346//21 177//21
f 175//21 177//21 345//21
f 177//21 348//21 347//21
f 177//21 349//21 348//21
f 177//21 350//21 349//21
f 169//21 351//21 177//21
f 169//21 352//21 351//21
f 169//21 203//21 352//21
f 352//21 203//21 353//21
f 354//21 355//21 197//21
f 203//21 355//21 356//21
f 357//21 197//21 358//21
f 357//21 354//21 197//21
f 358//21 197//21 359//21
f 359//21 197//21 360//21
f 360//21 197//21 361//21
f 353//21 203//21 356//21
f 362//21 361//21 363//21
f 177//21 351//21 350//21
f 363//21 364//21 365//21
f 361//21 366//21 364//21
f 367//21 271//21 265//21
f 182//21 176//21 175//21
f 368//21 324//21 321//21
f 369//21 329//21 326//21
f 370//21 366//21 361//21
f 371//21 361//21 372//21
f 371//21 370//21 361//21
f 372//21 361//21 373//21
f 308//21 305//21 301//21
f 361//21 364//21 363//21
f 300//21 302//21 298//21
f 374//22 361//21 375//21
f 197//21 355//21 203//21
f 167//21 206//21 168//21
f 240//21 235//21 243//21
f 168//21 206//21 205//21
f 361//21 362//21 360//21
f 373//21 361//21 374//22
f 376//24 377//24 378//24
f 379//24 377//24 380//24
f 381//24 382//24 383//24
f 384//24 385//24 386//24
f 387//3 388//3 389//3
f 390//3 391//3 392//3
f 393//5 394//5 395//5
f 396//4 397//4 398//4
f 398//25 399//25 400//25
f 401//3 402//3 400//3
f 403//3 404//3 405//3
f 406//2 404//2 402//2
f 407//26 403//26 408//26
f 409//27 396//27 393//27
f 410//3 411//3 412//3
f 413//28 414//28 415//28
f 416//3 417//3 415//3
f 416//3 418//3 419//3
f 420//29 421//29 422//29
f 423//30 418//30 424//30
f 425//8 426//8 427//8
f 427//3 428//3 422//3
f 429//3 424//3 421//3
f 430//31 431//31 432//31
f 433//31 431//31 434//31
f 435//12 436//12 437//12
f 438//12 439//12 440//12
f 441//32 442//32 443//32
f 444//33 445//33 446//33
f 446//34 447//34 448//34
f 449//35 450//35 448//35
f 451//12 452//12 453//12
f 454//36 452//36 450//36
f 455//14 451//14 456//14
f 457//37 444//37 441//37
f 458//12 459//12 460//12
f 461//38 462//38 463//38
f 464//39 465//39 463//39
f 464//38 466//38 467//38
f 468//40 469//40 470//40
f 471//33 466//33 472//33
f 473//20 474//20 475//20
f 475//12 476//12 470//12
f 477//36 472//36 469//36
f 478//41 479//41 480//41
f 481//41 482//41 483//41
f 484//41 485//41 486//41
f 487//41 488//41 489//41
f 490//41 491//41 492//41
f 493//31 494//31 495//31
f 496//31 497//31 498//31
f 499//31 500//31 501//31
f 502//31 503//31 504//31
f 505//42 506//43 507//42
f 508//43 509//44 510//43
f 511//44 512//44 513//43
f 514//45 515//45 516//44
f 517//46 518//45 519//45
f 520//47 521//46 522//46
f 523//47 524//46 525//47
f 526//48 527//49 528//48
f 529//48 530//48 531//50
f 532//51 533//51 534//52
f 535//50 536//52 537//52
f 538//52 539//53 540//53
f 541//54 542//55 543//54
f 544//55 545//56 546//55
f 547//56 548//56 549//55
f 550//42 551//42 552//10
f 553//57 554//58 555//58
f 556//57 557//58 558//57
f 559//57 560//57 561//59
f 562//57 563//59 564//59
f 565//59 566//60 567//59
f 568//60 569//60 570//59
f 571//56 572//60 573//60
f 574//56 575//60 576//56
f 577//61 578//55 579//55
f 580//52 581//52 582//53
f 583//50 584//48 585//50
f 586//48 587//49 588//49
f 589//46 590//46 591//45
f 592//44 593//45 594//44
f 595//42 596//10 597//10
f 598//43 599//43 600//42
f 601//10 602//10 603//10
f 604//10 605//10 606//10
f 607//24 608//24 609//24
f 610//24 611//24 612//24
f 613//24 614//24 615//24
f 616//24 617//24 618//24
f 619//41 620//41 621//41
f 622//41 623//41 624//41
f 625//62 626//63 627//62
f 628//63 629//64 630//63
f 631//64 632//64 633//63
f 634//65 635//65 636//64
f 637//66 638//65 639//65
f 640//67 641//66 642//66
f 643//67 644//66 645//67
f 646//68 647//69 648//68
f 649//68 650//68 651//70
f 652//70 653//70 654//71
f 655//70 656//71 657//71
f 658//71 659//72 660//72
f 661//73 662//74 663//73
f 664//74 665//75 666//74
f 667//75 668//75 669//74
f 670//62 671//62 672//31
f 673//76 674//41 675//41
f 676//76 677//41 678//76
f 679//76 680//76 681//77
f 682//76 683//77 684//77
f 685//77 686//78 687//77
f 688//78 689//78 690//77
f 691//75 692//78 693//78
f 694//75 695//78 696//75
f 697//73 698//74 699//74
f 700//71 701//71 702//72
f 703//79 704//68 705//79
f 706//68 707//69 708//69
f 709//66 710//66 711//65
f 712//64 713//65 714//64
f 715//62 716//31 717//31
f 718//63 719//63 720//62
f 721//10 722//10 723//10
f 724//10 725//10 726//10
f 727//10 728//10 729//10
f 730//41 731//41 732//41
f 733//41 734//41 735//41
f 736//41 737//41 738//41
f 739//24 740//24 741//24
f 742//24 743//24 744//24
f 745//10 746//80 747//10
f 748//80 749//80 750//10
f 751//81 752//80 753//80
f 754//81 755//80 756//81
f 757//81 758//81 759//82
f 760//81 761//82 762//82
f 763//82 764//83 765//82
f 766//83 767//83 768//82
f 769//84 770//83 771//83
f 772//84 773//83 774//84
f 775//84 776//84 777//85
f 778//84 779//86 780//86
f 781//87 782//88 783//87
f 784//88 785//88 786//87
f 787//89 788//90 789//90
f 790//91 791//91 792//92
f 793//24 794//93 795//24
f 796//93 797//93 798//24
f 799//94 800//93 801//93
f 802//94 803//93 804//94
f 805//94 806//94 807//95
f 808//94 809//95 810//95
f 811//95 812//96 813//95
f 814//96 815//96 816//95
f 817//92 818//96 819//96
f 820//92 821//96 822//92
f 823//92 824//92 825//91
f 826//97 827//89 828//89
f 829//89 830//98 831//89
f 832//99 833//99 834//89
f 835//88 836//100 837//100
f 838//88 839//88 840//100
f 841//10 842//10 843//10
f 844//10 845//10 846//10
f 847//31 848//31 849//31
f 850//31 851//31 852//31
f 853//31 854//31 855//31
f 856//31 857//31 858//31
f 859//41 860//41 861//41
f 862//41 863//41 864//41
f 865//24 866//101 867//24
f 868//101 869//102 870//101
f 871//102 872//102 873//101
f 874//103 875//103 876//102
f 877//104 878//104 879//103
f 880//105 881//104 882//104
f 883//106 884//105 885//105
f 886//106 887//105 888//106
f 889//107 890//108 891//107
f 892//107 893//107 894//109
f 895//110 896//110 897//111
f 898//110 899//111 900//111
f 901//111 902//112 903//112
f 904//113 905//114 906//113
f 907//114 908//115 909//114
f 910//115 911//115 912//114
f 913//116 914//41 915//41
f 916//116 917//41 918//116
f 919//116 920//116 921//117
f 922//116 923//117 924//117
f 925//117 926//118 927//117
f 928//118 929//118 930//117
f 931//115 932//118 933//118
f 934//115 935//118 936//115
f 937//113 938//114 939//114
f 940//111 941//111 942//112
f 943//119 944//107 945//119
f 946//107 947//120 948//120
f 949//105 950//105 951//104
f 952//103 953//104 954//103
f 955//101 956//24 957//101
f 958//102 959//102 960//103
f 961//10 962//10 963//10
f 964//10 965//10 966//10
f 967//10 968//10 969//10
f 970//41 971//41 972//41
f 973//41 974//41 975//41
f 976//41 977//41 978//41
f 979//24 980//24 981//121
f 982//121 983//24 984//121
f 985//102 986//104 987//102
f 988//102 989//104 990//104
f 991//104 992//104 993//106
f 994//108 995//104 996//108
f 997//122 998//123 999//120
f 1000//112 1001//109 1002//109
f 1003//124 1004//124 1005//120
f 1006//125 1007//41 1008//41
f 1009//125 1010//125 1011//41
f 1012//117 1013//126 1014//117
f 1015//117 1016//126 1017//126
f 1018//115 1019//115 1020//127
f 1021//127 1022//115 1023//127
f 1024//128 1025//112 1026//112
f 1027//41 1028//129 1029//41
f 1030//41 1031//129 1032//129
f 1033//77 1034//77 1035//130
f 1036//130 1037//77 1038//130
f 1039//73 1040//79 1041//79
f 1042//131 1043//75 1044//131
f 1045//132 1046//69 1047//133
f 1048//73 1049//75 1050//75
f 1051//134 1052//31 1053//31
f 1054//134 1055//134 1056//31
f 1057//63 1058//65 1059//135
f 1060//135 1061//65 1062//65
f 1063//65 1064//65 1065//67
f 1066//136 1067//65 1068//136
f 1069//137 1070//69 1071//137
f 1072//138 1073//72 1074//72
f 431//31 1075//31 1076//139
f 1077//139 431//31 1078//139
f 1079//140 1080//56 1081//59
f 1082//140 1083//56 1084//56
f 1085//56 1086//56 1087//54
f 1088//54 1089//56 1090//61
f 1091//141 1092//53 1093//142
f 1094//49 1095//51 1096//51
f 1097//141 1098//141 1099//61
f 1100//143 1101//10 1102//10
f 1103//143 1104//143 1105//10
f 1106//144 1107//145 1108//144
f 1109//43 1110//145 1111//145
f 1112//45 1113//45 1114//47
f 1115//146 1116//45 1117//146
f 1118//147 1119//47 1120//49
f 1121//148 1122//126 1123//117
f 1124//115 1125//127 1126//115
f 1127//127 1128//127 1129//115
f 1130//128 1131//128 1132//112
f 1133//123 1134//128 1135//128
f 1136//104 1137//108 1138//108
f 1139//104 1140//106 1141//104
f 1142//125 1143//125 1144//41
f 1145//121 1146//24 1147//24
f 1148//121 1149//24 1150//121
f 1151//102 1152//102 1153//149
f 1154//102 1155//149 1156//149
f 1157//120 1158//123 1159//109
f 1160//112 1161//128 1162//112
f 1163//125 1164//41 1165//41
f 1166//126 1167//126 1168//117
f 1169//94 1170//150 1171//94
f 1172//96 1173//91 1174//96
f 1175//97 1176//97 1177//96
f 1178//151 1179//151 1180//90
f 1181//152 1182//151 1183//151
f 1184//83 1185//86 1186//86
f 1187//83 1188//86 1189//83
f 1190//153 1191//153 1192//24
f 1193//154 1194//10 1195//10
f 1196//154 1197//10 1198//154
f 1199//81 1200//155 1201//156
f 1202//81 1203//156 1204//156
f 1205//152 1206//152 1207//157
f 1208//90 1209//98 1210//158
f 1211//153 1212//24 1213//24
f 1214//150 1215//150 1216//94
f 1217//135 1218//159 1219//135
f 1220//65 1221//67 1222//65
f 1223//67 1224//136 1225//65
f 1226//160 1227//160 1228//133
f 1229//72 1230//138 1231//138
f 1232//75 1233//131 1234//131
f 1235//75 1236//131 1237//75
f 1238//41 1239//41 1240//129
f 1241//41 1242//129 1243//129
f 1244//77 1245//130 1246//77
f 1247//134 1248//134 1249//31
f 1250//130 1251//161 1252//130
f 1253//134 1254//31 1255//31
f 1256//135 1257//159 1258//159
f 1259//133 1260//138 1261//69
f 1262//72 1263//72 1264//138
f 1265//41 1266//41 1267//125
f 1268//125 1269//41 1270//125
f 1271//126 1272//117 1273//117
f 1274//126 1275//126 1276//117
f 1277//115 1278//127 1279//115
f 1280//115 1281//127 1282//127
f 1283//113 1284//110 1285//110
f 377//24 1286//24 1287//121
f 1288//121 1289//121 377//24
f 1290//102 1291//104 1292//102
f 1293//102 1294//104 1295//104
f 1296//104 1297//104 1298//106
f 1299//108 1300//104 1301//108
f 1302//122 1303//123 1304//120
f 1305//124 1306//124 1307//120
f 1308//162 1309//113 1310//113
f 1311//31 434//31 1312//134
f 1313//134 434//31 1314//134
f 1315//65 1316//135 1317//63
f 1318//65 1319//65 1320//135
f 1321//65 1322//67 1323//65
f 1324//65 1325//67 1326//136
f 1327//69 1328//133 1329//132
f 1330//137 1331//69 1332//137
f 1333//72 1334//79 1335//79
f 1336//41 1337//41 1338//129
f 1339//129 1340//41 1341//129
f 1342//130 1343//77 1344//77
f 1345//131 1346//75 1347//131
f 1348//73 1349//75 1350//75
f 1351//163 1352//72 1353//73
f 1354//130 1355//77 1356//130
f 1357//143 1358//143 1359//10
f 1360//145 1361//43 1362//43
f 1363//146 1364//45 1365//45
f 1366//146 1367//45 1368//146
f 1369//164 1370//165 1371//164
f 1372//141 1373//141 1374//53
f 1375//54 1376//61 1377//56
f 1378//31 1379//139 1380//31
f 1381//139 1382//139 1383//31
f 1384//166 1385//140 1386//140
f 1387//166 1388//140 1389//166
f 1390//56 1391//56 1392//54
f 1393//53 1394//53 1395//141
f 1396//165 1397//141 1398//165
f 1399//143 1400//10 1401//10
f 1402//145 1403//145 1404//144
f 1405//10 1406//154 1407//10
f 1408//10 1409//154 1410//154
f 1411//155 1412//155 1413//156
f 1414//156 1415//81 1416//156
f 1417//85 1418//100 1419//100
f 1420//86 1421//83 1422//86
f 1423//151 1424//158 1425//90
f 1426//86 1427//83 1428//83
f 1429//153 1430//24 380//24
f 1431//153 1432//153 380//24
f 1433//94 1434//96 1435//94
f 1436//94 1437//96 1438//96
f 1439//96 1440//96 1441//91
f 1442//91 1443//96 1444//91
f 1445//151 1446//97 1447//151
f 1448//167 1449//85 1450//85
f 1451//31 1452//31 1453//31
f 1452//31 1454//31 1455//31
f 1456//168 1457//168 1458//168
f 1459//41 1460//41 1458//41
f 1461//41 1462//41 1463//41
f 1464//31 1465//31 1466//31
f 1467//31 1468//31 1464//31
f 1469//31 1464//31 1470//31
f 1471//41 1472//41 1473//41
f 1474//41 1475//41 1476//41
f 1477//24 1478//24 1479//24
f 1480//169 1481//169 1479//169
f 1482//24 1483//24 1484//24
f 1485//41 1486//41 1487//41
f 1488//41 1489//41 1485//41
f 1490//170 1485//170 1491//170
f 1492//24 1493//24 1494//24
f 1495//24 1496//24 1497//24
f 1498//10 1499//10 1500//10
f 1501//10 1502//10 1500//10
f 1503//10 1504//10 1505//10
f 1506//24 1507//24 1508//24
f 1509//171 1510//171 1506//171
f 1511//24 1506//24 1512//24
f 1513//10 1514//10 1515//10
f 1516//10 1517//10 1518//10
f 1519//31 1520//31 1521//31
f 1522//31 1523//31 1521//31
f 1524//31 1525//31 1526//31
f 1527//77 1528//77 1529//41
f 1530//75 1528//77 1527//77
f 1531//73 1532//172 1530//75
f 1533//73 1532//172 1531//73
f 1534//138 1533//73 1535//70
f 1534//138 1535//70 1536//136
f 1537//136 1536//136 1538//159
f 1537//136 1538//159 1539//65
f 1539//65 1540//63 1541//63
f 1540//63 1542//31 1541//63
f 1542//31 1543//59 1544//31
f 1543//59 1545//59 1544//31
f 1546//56 1547//166 1545//59
f 1548//61 1547//166 1546//56
f 1549//141 1550//61 1548//61
f 1551//50 1550//61 1549//141
f 1552//47 1551//50 1553//47
f 1552//47 1553//47 1554//173
f 1555//45 1554//173 1556//43
f 1555//45 1556//43 1557//43
f 1557//43 1558//10 1559//10
f 1558//10 1560//81 1559//10
f 1561//81 1562//156 1563//174
f 1563//174 1562//156 1564//85
f 1565//24 1566//24 1567//94
f 1568//102 1569//102 1566//24
f 1570//175 1571//104 1569//102
f 1572//108 1573//108 1571//104
f 1574//110 1573//108 1572//108
f 1575//113 1576//110 1574//110
f 1577//113 1576//110 1575//113
f 1578//126 1577//113 1579//176
f 1553//47 1551//50 1549//141
f 1580//117 1581//117 1529//41
f 1578//126 1581//117 1580//117
f 1579//176 1581//117 1578//126
f 1575//113 1579//176 1577//113
f 1573//108 1574//110 1576//110
f 1571//104 1570//175 1572//108
f 1569//102 1568//102 1570//175
f 1580//117 1529//41 1582//41
f 1566//24 1565//24 1568//102
f 1567//94 1583//94 1565//24
f 1584//177 1583//94 1567//94
f 1585//96 1583//94 1584//177
f 1585//96 1584//177 1586//97
f 1585//96 1586//97 1587//97
f 1586//97 1588//100 1587//97
f 1588//100 1589//100 1587//97
f 1590//85 1589//100 1588//100
f 1564//85 1589//100 1590//85
f 1564//85 1590//85 1563//174
f 1562//156 1561//81 1560//81
f 1561//81 1559//10 1560//81
f 1558//10 1557//43 1556//43
f 1554//173 1555//45 1552//47
f 1547//166 1548//61 1550//61
f 1545//59 1543//59 1546//56
f 1544//31 1541//63 1542//31
f 1540//63 1539//65 1538//159
f 1536//136 1537//136 1534//138
f 1531//73 1535//70 1533//73
f 1528//77 1530//75 1532//172
f 1528//77 1582//41 1529//41
f 1591//10 1592//10 1593//10
f 1594//10 1595//10 1596//10
f 1597//9 1598//9 1599//9
f 1600//21 1601//21 1602//21
f 1603//21 1604//21 1605//21
f 1606//21 1607//21 1608//21
f 1600//21 1609//21 1610//21
f 1611//21 1612//21 1613//21
f 1614//21 1615//21 1616//21
f 1617//21 1618//21 1619//21
f 1620//21 1621//21 1622//21
f 1623//21 1624//21 1625//21
f 1626//21 1627//21 1628//21
f 1629//21 1630//21 1631//21
f 1632//21 1633//21 1634//21
f 1635//21 1636//21 1637//21
f 1638//21 1639//21 1640//21
f 1641//21 1642//21 1600//21
f 1643//21 1644//21 1600//21
f 1645//21 1646//21 1647//21
f 1648//21 1649//21 1650//21
f 1651//21 1652//21 1653//21
f 1654//21 1655//21 1656//21
f 1657//21 1658//21 1659//21
f 1659//21 1660//21 1661//21
f 1662//21 1663//21 1659//21
f 1664//21 1665//21 1659//21
f 1666//21 1667//21 1659//21
f 1668//21 1669//21 1670//21
f 1671//21 1672//21 1673//21
f 1659//21 1674//21 1675//21
f 1626//21 1676//21 1677//21
f 1678//21 1679//21 1626//21
f 1680//21 1681//21 1626//21
f 1682//21 1683//21 1684//21
f 1685//21 1686//21 1687//21
f 1688//21 1689//21 1690//21
f 1691//21 1692//21 1693//21
f 1617//21 1694//21 1695//21
f 1617//21 1696//21 1697//21
f 1698//21 1699//21 1617//21
f 1700//21 1701//21 1617//21
f 1702//21 1703//21 1704//21
f 1705//21 1706//21 1707//21
f 1708//21 1709//21 1710//21
f 1711//21 1712//21 1713//21
f 1600//21 1714//21 1715//21
f 1626//21 1716//21 1717//21
f 1600//21 1718//21 1719//21
f 1626//21 1720//21 1721//21
f 1722//21 1723//21 1617//21
f 1724//21 1725//21 1726//21
f 1727//22 1728//22 1729//22
f 1730//21 1731//21 1732//21
f 1733//21 1734//21 1735//21
f 1736//21 1737//21 1738//21
f 1739//21 1740//21 1741//21
f 1742//21 1743//21 1744//21
f 1745//21 1746//21 1747//21
f 1748//21 1749//21 1750//21
f 1751//21 1752//21 1753//21
f 1754//21 1755//21 1756//21
f 1757//21 1758//21 1759//21
f 1760//21 1761//21 1762//21
f 1763//21 1764//21 1765//21
f 1766//21 1767//21 1768//21
f 1769//21 1770//21 1771//21
f 1772//21 1773//21 1774//21
f 1775//21 1776//21 1777//21
f 1778//21 1779//21 1780//21
f 1781//21 1782//21 1783//21
f 1784//21 1785//21 1786//21
f 1787//21 1788//21 1789//21
f 1790//21 1791//21 1792//21
f 1793//21 1794//21 1795//21
f 1796//21 1797//21 1798//21
f 1799//21 1800//21 1801//21
f 1802//21 1803//21 1804//21
f 1805//23 1806//23 1807//23
f 1808//21 1809//21 1810//21
f 1811//21 1812//21 1813//21
f 1814//178 1815//178 1816//178
f 1817//178 1818//178 1471//41
f 1471//179 1819//178 1820//178
f 1821//180 1822//180 1823//180
f 1824//180 1825//180 1492//24
f 1492//181 1826//180 1827//180
f 1828//182 1829//182 1830//182
f 1831//182 1832//182 1513//10
f 1513//9 1833//182 1834//182
f 1835//183 1836//183 1452//184
f 1837//183 1838//183 1451//31
f 1451//31 1839//183 1452//31
f 1840//41 1841//41 1842//41
f 1843//41 1844//41 1842//41
f 1845//41 1840//41 1846//41
f 1847//31 1848//31 1849//31
f 1850//31 1851//31 1852//31
f 1853//10 1854//10 1855//10
f 1856//10 1857//10 1858//10
f 1859//24 1860//24 1861//24
f 1862//24 1863//24 1864//24
f 1865//21 1866//21 1867//21
f 1868//21 1869//21 1870//21
f 1871//185 1872//185 1873//185
f 1872//186 1874//186 1875//186
f 1876//185 1872//185 1877//185
f 1872//186 1878//186 1879//186
f 1880//1 1881//1 1882//1
f 1883//1 1884//1 1885//1
f 1886//1 1887//1 1888//1
f 1889//1 1890//1 1891//1
