# Blender 4.4.3
# www.blender.org
mtllib Mesh_18.007.mtl
o Mesh_18.007
v -0.000210 0.008776 -0.000903
v -0.000210 0.008830 -0.000903
v -0.000210 0.008827 -0.000905
v -0.000210 0.008824 -0.000907
v -0.000210 0.008821 -0.000909
v -0.000210 0.008817 -0.000910
v -0.000210 0.008810 -0.000912
v -0.000210 0.008814 -0.000912
v -0.000210 0.008807 -0.000913
v -0.000210 0.008803 -0.000913
v -0.000210 0.008799 -0.000913
v -0.000210 0.008796 -0.000912
v -0.000210 0.008792 -0.000912
v -0.000210 0.008789 -0.000910
v -0.000210 0.008785 -0.000909
v -0.000210 0.008782 -0.000907
v -0.000210 0.008779 -0.000905
v -0.000210 0.008773 -0.000900
v -0.000210 0.008833 -0.000900
v -0.000210 0.008770 -0.000897
v -0.000210 0.008836 -0.000897
v -0.000210 0.008766 -0.000893
v -0.000210 0.008840 -0.000893
v -0.000210 0.008763 -0.000890
v -0.000210 0.008843 -0.000890
v -0.000210 0.008760 -0.000886
v -0.000210 0.008846 -0.000886
v -0.000210 0.008757 -0.000883
v -0.000210 0.008849 -0.000883
v -0.000210 0.008754 -0.000879
v -0.000210 0.008852 -0.000879
v -0.000210 0.008854 -0.000875
v -0.000210 0.008752 -0.000875
v -0.000210 0.008749 -0.000871
v -0.000210 0.008744 -0.000863
v -0.000210 0.008859 -0.000867
v -0.000210 0.008747 -0.000867
v -0.000210 0.008857 -0.000871
v -0.000210 0.008872 -0.000842
v -0.000210 0.008870 -0.000847
v -0.000210 0.008872 -0.000840
v -0.000210 0.008868 -0.000851
v -0.000210 0.008866 -0.000855
v -0.000210 0.008734 -0.000840
v -0.000210 0.008738 -0.000851
v -0.000210 0.008740 -0.000855
v -0.000210 0.008736 -0.000847
v -0.000210 0.008864 -0.000859
v -0.000210 0.008742 -0.000859
v -0.000210 0.008862 -0.000863
v -0.000210 0.008734 -0.000842
v 0.000020 0.008734 -0.000840
v 0.000020 0.008734 -0.000842
v 0.000020 0.008736 -0.000847
v 0.000020 0.008738 -0.000851
v 0.000020 0.008740 -0.000855
v 0.000020 0.008866 -0.000855
v 0.000020 0.008742 -0.000859
v 0.000020 0.008864 -0.000859
v 0.000020 0.008744 -0.000863
v 0.000020 0.008862 -0.000863
v 0.000020 0.008747 -0.000867
v 0.000020 0.008749 -0.000871
v 0.000020 0.008859 -0.000867
v 0.000020 0.008857 -0.000871
v 0.000020 0.008854 -0.000875
v 0.000020 0.008752 -0.000875
v 0.000020 0.008754 -0.000879
v 0.000020 0.008852 -0.000879
v 0.000020 0.008757 -0.000883
v 0.000020 0.008849 -0.000883
v 0.000020 0.008760 -0.000886
v 0.000020 0.008846 -0.000886
v 0.000020 0.008840 -0.000893
v 0.000020 0.008843 -0.000890
v 0.000020 0.008766 -0.000893
v 0.000020 0.008836 -0.000897
v 0.000020 0.008770 -0.000897
v 0.000020 0.008773 -0.000900
v 0.000020 0.008830 -0.000903
v 0.000020 0.008833 -0.000900
v 0.000020 0.008776 -0.000903
v 0.000020 0.008827 -0.000905
v 0.000020 0.008824 -0.000907
v 0.000020 0.008779 -0.000905
v 0.000020 0.008782 -0.000907
v 0.000020 0.008785 -0.000909
v 0.000020 0.008792 -0.000912
v 0.000020 0.008789 -0.000910
v 0.000020 0.008796 -0.000912
v 0.000020 0.008799 -0.000913
v 0.000020 0.008803 -0.000913
v 0.000020 0.008807 -0.000913
v 0.000020 0.008810 -0.000912
v 0.000020 0.008814 -0.000912
v 0.000020 0.008817 -0.000910
v 0.000020 0.008821 -0.000909
v 0.000020 0.008763 -0.000890
v 0.000020 0.008872 -0.000840
v 0.000020 0.008868 -0.000851
v 0.000020 0.008872 -0.000842
v 0.000020 0.008870 -0.000847
v 0.000020 0.008734 -0.000842
v 0.000020 0.008734 -0.000840
v -0.000038 0.008734 -0.000842
v 0.000020 0.008734 -0.000840
v -0.000210 0.008734 -0.000840
v -0.000210 0.008734 -0.000842
v -0.000095 0.008734 -0.000842
v 0.000020 0.008734 -0.000840
v -0.000152 0.008734 -0.000842
v 0.000020 0.008734 -0.000840
v 0.000020 0.008734 -0.000840
v -0.000210 0.008734 -0.000842
v -0.000115 0.008805 -0.000840
v -0.000115 0.008803 -0.000913
v -0.000115 0.008803 -0.000840
v -0.000115 0.008807 -0.000913
v -0.000115 0.008805 -0.000913
v -0.000116 0.008809 -0.000912
v -0.000115 0.008807 -0.000840
v -0.000116 0.008809 -0.000840
v -0.000116 0.008811 -0.000912
v -0.000116 0.008811 -0.000840
v -0.000117 0.008813 -0.000912
v -0.000117 0.008813 -0.000840
v -0.000118 0.008815 -0.000911
v -0.000117 0.008815 -0.000840
v -0.000118 0.008817 -0.000840
v -0.000119 0.008817 -0.000910
v -0.000120 0.008819 -0.000910
v -0.000119 0.008819 -0.000840
v -0.000121 0.008821 -0.000909
v -0.000120 0.008820 -0.000840
v -0.000122 0.008822 -0.000840
v -0.000122 0.008822 -0.000908
v -0.000123 0.008824 -0.000907
v -0.000125 0.008825 -0.000906
v -0.000123 0.008823 -0.000840
v -0.000129 0.008829 -0.000904
v -0.000129 0.008829 -0.000840
v -0.000131 0.008830 -0.000903
v -0.000131 0.008830 -0.000840
v -0.000128 0.008827 -0.000840
v -0.000128 0.008828 -0.000905
v -0.000126 0.008826 -0.000840
v -0.000126 0.008826 -0.000906
v -0.000124 0.008825 -0.000840
v -0.000115 0.008801 -0.000913
v -0.000115 0.008801 -0.000840
v -0.000115 0.008799 -0.000913
v -0.000115 0.008798 -0.000840
v -0.000116 0.008797 -0.000912
v -0.000116 0.008796 -0.000840
v -0.000116 0.008795 -0.000912
v -0.000117 0.008793 -0.000912
v -0.000117 0.008793 -0.000840
v -0.000117 0.008791 -0.000840
v -0.000118 0.008791 -0.000911
v -0.000119 0.008789 -0.000910
v -0.000118 0.008789 -0.000840
v -0.000120 0.008787 -0.000910
v -0.000120 0.008787 -0.000840
v -0.000121 0.008785 -0.000840
v -0.000121 0.008785 -0.000909
v -0.000123 0.008783 -0.000840
v -0.000125 0.008781 -0.000906
v -0.000124 0.008781 -0.000840
v -0.000123 0.008782 -0.000907
v -0.000122 0.008784 -0.000908
v -0.000126 0.008780 -0.000906
v -0.000128 0.008779 -0.000905
v -0.000129 0.008777 -0.000904
v -0.000128 0.008778 -0.000840
v -0.000126 0.008780 -0.000840
v -0.000131 0.008776 -0.000903
v -0.000130 0.008777 -0.000840
v -0.000133 0.008776 -0.000902
v -0.000132 0.008776 -0.000840
v -0.000134 0.008775 -0.000902
v -0.000135 0.008775 -0.000840
v -0.000136 0.008774 -0.000901
v -0.000137 0.008774 -0.000840
v -0.000138 0.008774 -0.000901
v -0.000139 0.008774 -0.000840
v -0.000140 0.008774 -0.000900
v -0.000141 0.008773 -0.000900
v -0.000143 0.008773 -0.000900
v -0.000142 0.008773 -0.000840
v -0.000144 0.008773 -0.000840
v -0.000145 0.008773 -0.000900
v -0.000147 0.008773 -0.000900
v -0.000147 0.008773 -0.000840
v -0.000149 0.008773 -0.000840
v -0.000149 0.008773 -0.000900
v -0.000151 0.008774 -0.000840
v -0.000151 0.008774 -0.000900
v -0.000154 0.008774 -0.000840
v -0.000152 0.008774 -0.000901
v -0.000156 0.008775 -0.000840
v -0.000154 0.008774 -0.000901
v -0.000156 0.008775 -0.000902
v -0.000158 0.008776 -0.000840
v -0.000157 0.008776 -0.000902
v -0.000159 0.008776 -0.000903
v -0.000160 0.008777 -0.000840
v -0.000161 0.008777 -0.000904
v -0.000162 0.008779 -0.000840
v -0.000162 0.008778 -0.000905
v -0.000164 0.008780 -0.000906
v -0.000164 0.008780 -0.000840
v -0.000166 0.008782 -0.000840
v -0.000165 0.008781 -0.000906
v -0.000167 0.008782 -0.000907
v -0.000168 0.008784 -0.000840
v -0.000168 0.008784 -0.000908
v -0.000169 0.008785 -0.000909
v -0.000169 0.008785 -0.000840
v -0.000171 0.008787 -0.000840
v -0.000172 0.008790 -0.000840
v -0.000170 0.008787 -0.000910
v -0.000171 0.008789 -0.000910
v -0.000173 0.008792 -0.000840
v -0.000172 0.008791 -0.000911
v -0.000173 0.008793 -0.000912
v -0.000174 0.008794 -0.000840
v -0.000174 0.008795 -0.000912
v -0.000175 0.008799 -0.000840
v -0.000174 0.008796 -0.000840
v -0.000174 0.008797 -0.000912
v -0.000175 0.008799 -0.000913
v -0.000174 0.008809 -0.000912
v -0.000174 0.008811 -0.000912
v -0.000174 0.008811 -0.000840
v -0.000175 0.008801 -0.000840
v -0.000175 0.008801 -0.000913
v -0.000171 0.008817 -0.000910
v -0.000170 0.008819 -0.000910
v -0.000171 0.008818 -0.000840
v -0.000167 0.008824 -0.000907
v -0.000167 0.008824 -0.000840
v -0.000168 0.008822 -0.000840
v -0.000161 0.008829 -0.000904
v -0.000163 0.008827 -0.000840
v -0.000162 0.008827 -0.000905
v -0.000159 0.008829 -0.000840
v -0.000157 0.008830 -0.000902
v -0.000157 0.008831 -0.000840
v -0.000152 0.008832 -0.000901
v -0.000152 0.008832 -0.000840
v -0.000155 0.008831 -0.000840
v -0.000149 0.008833 -0.000900
v -0.000150 0.008833 -0.000840
v -0.000151 0.008832 -0.000900
v -0.000147 0.008833 -0.000900
v -0.000145 0.008833 -0.000840
v -0.000148 0.008833 -0.000840
v -0.000145 0.008833 -0.000900
v -0.000143 0.008833 -0.000900
v -0.000141 0.008833 -0.000900
v -0.000143 0.008833 -0.000840
v -0.000140 0.008832 -0.000900
v -0.000140 0.008833 -0.000840
v -0.000138 0.008832 -0.000901
v -0.000138 0.008832 -0.000840
v -0.000136 0.008832 -0.000901
v -0.000136 0.008831 -0.000840
v -0.000133 0.008830 -0.000902
v -0.000133 0.008831 -0.000840
v -0.000134 0.008831 -0.000902
v -0.000154 0.008832 -0.000901
v -0.000156 0.008831 -0.000902
v -0.000159 0.008830 -0.000903
v -0.000161 0.008828 -0.000840
v -0.000164 0.008826 -0.000906
v -0.000165 0.008825 -0.000840
v -0.000165 0.008825 -0.000906
v -0.000168 0.008822 -0.000908
v -0.000170 0.008820 -0.000840
v -0.000169 0.008821 -0.000909
v -0.000172 0.008816 -0.000840
v -0.000172 0.008815 -0.000911
v -0.000173 0.008813 -0.000840
v -0.000173 0.008813 -0.000912
v -0.000174 0.008809 -0.000840
v -0.000175 0.008807 -0.000913
v -0.000175 0.008806 -0.000840
v -0.000175 0.008805 -0.000913
v -0.000175 0.008804 -0.000840
v -0.000175 0.008803 -0.000913
v -0.000152 0.008872 -0.000842
v -0.000210 0.008872 -0.000842
v 0.000020 0.008872 -0.000840
v -0.000210 0.008872 -0.000842
v -0.000210 0.008872 -0.000840
v 0.000020 0.008872 -0.000840
v -0.000038 0.008872 -0.000842
v -0.000095 0.008872 -0.000842
v 0.000020 0.008872 -0.000840
v 0.000020 0.008872 -0.000842
v 0.000020 0.008872 -0.000840
v 0.000020 0.008872 -0.000840
v -0.000129 0.008829 -0.000840
v -0.000128 0.008827 -0.000840
v 0.000020 0.008872 -0.000840
v -0.000129 0.008829 -0.000840
v 0.000020 0.008872 -0.000840
v -0.000131 0.008830 -0.000840
v -0.000128 0.008827 -0.000840
v -0.000126 0.008826 -0.000840
v 0.000020 0.008872 -0.000840
v -0.000126 0.008826 -0.000840
v -0.000124 0.008825 -0.000840
v 0.000020 0.008872 -0.000840
v -0.000124 0.008825 -0.000840
v -0.000123 0.008823 -0.000840
v 0.000020 0.008872 -0.000840
v -0.000123 0.008823 -0.000840
v -0.000122 0.008822 -0.000840
v 0.000020 0.008872 -0.000840
v -0.000122 0.008822 -0.000840
v -0.000120 0.008820 -0.000840
v 0.000020 0.008872 -0.000840
v -0.000120 0.008820 -0.000840
v -0.000119 0.008819 -0.000840
v 0.000020 0.008872 -0.000840
v -0.000119 0.008819 -0.000840
v -0.000118 0.008817 -0.000840
v 0.000020 0.008872 -0.000840
v -0.000118 0.008817 -0.000840
v -0.000117 0.008815 -0.000840
v 0.000020 0.008872 -0.000840
v -0.000117 0.008815 -0.000840
v -0.000117 0.008813 -0.000840
v 0.000020 0.008872 -0.000840
v -0.000117 0.008813 -0.000840
v -0.000116 0.008811 -0.000840
v 0.000020 0.008872 -0.000840
v -0.000116 0.008811 -0.000840
v -0.000116 0.008809 -0.000840
v 0.000020 0.008872 -0.000840
v -0.000116 0.008809 -0.000840
v -0.000115 0.008807 -0.000840
v 0.000020 0.008872 -0.000840
v -0.000115 0.008807 -0.000840
v -0.000115 0.008805 -0.000840
v 0.000020 0.008872 -0.000840
v -0.000115 0.008805 -0.000840
v -0.000115 0.008803 -0.000840
v 0.000020 0.008872 -0.000840
v -0.000115 0.008803 -0.000840
v 0.000020 0.008734 -0.000840
v 0.000020 0.008872 -0.000840
v -0.000115 0.008801 -0.000840
v 0.000020 0.008734 -0.000840
v -0.000115 0.008803 -0.000840
v -0.000115 0.008798 -0.000840
v 0.000020 0.008734 -0.000840
v -0.000115 0.008801 -0.000840
v -0.000116 0.008796 -0.000840
v 0.000020 0.008734 -0.000840
v -0.000115 0.008798 -0.000840
v 0.000020 0.008734 -0.000840
v -0.000116 0.008796 -0.000840
v -0.000117 0.008793 -0.000840
v 0.000020 0.008734 -0.000840
v -0.000117 0.008793 -0.000840
v -0.000117 0.008791 -0.000840
v 0.000020 0.008734 -0.000840
v -0.000117 0.008791 -0.000840
v -0.000118 0.008789 -0.000840
v 0.000020 0.008734 -0.000840
v -0.000118 0.008789 -0.000840
v -0.000120 0.008787 -0.000840
v 0.000020 0.008734 -0.000840
v -0.000120 0.008787 -0.000840
v -0.000121 0.008785 -0.000840
v 0.000020 0.008734 -0.000840
v -0.000121 0.008785 -0.000840
v -0.000123 0.008783 -0.000840
v 0.000020 0.008734 -0.000840
v -0.000123 0.008783 -0.000840
v -0.000124 0.008781 -0.000840
v -0.000128 0.008778 -0.000840
v -0.000130 0.008777 -0.000840
v 0.000020 0.008734 -0.000840
v -0.000128 0.008778 -0.000840
v 0.000020 0.008734 -0.000840
v -0.000126 0.008780 -0.000840
v 0.000020 0.008734 -0.000840
v -0.000124 0.008781 -0.000840
v -0.000126 0.008780 -0.000840
v -0.000132 0.008776 -0.000840
v 0.000020 0.008734 -0.000840
v -0.000130 0.008777 -0.000840
v -0.000135 0.008775 -0.000840
v 0.000020 0.008734 -0.000840
v -0.000132 0.008776 -0.000840
v -0.000137 0.008774 -0.000840
v 0.000020 0.008734 -0.000840
v -0.000135 0.008775 -0.000840
v -0.000210 0.008734 -0.000840
v 0.000020 0.008734 -0.000840
v -0.000137 0.008774 -0.000840
v -0.000210 0.008734 -0.000840
v -0.000137 0.008774 -0.000840
v -0.000139 0.008774 -0.000840
v -0.000210 0.008734 -0.000840
v -0.000139 0.008774 -0.000840
v -0.000142 0.008773 -0.000840
v -0.000210 0.008734 -0.000840
v -0.000142 0.008773 -0.000840
v -0.000144 0.008773 -0.000840
v -0.000210 0.008734 -0.000840
v -0.000144 0.008773 -0.000840
v -0.000147 0.008773 -0.000840
v -0.000151 0.008774 -0.000840
v -0.000154 0.008774 -0.000840
v -0.000210 0.008734 -0.000840
v -0.000151 0.008774 -0.000840
v -0.000210 0.008734 -0.000840
v -0.000149 0.008773 -0.000840
v -0.000154 0.008774 -0.000840
v -0.000156 0.008775 -0.000840
v -0.000210 0.008734 -0.000840
v -0.000156 0.008775 -0.000840
v -0.000158 0.008776 -0.000840
v -0.000210 0.008734 -0.000840
v -0.000158 0.008776 -0.000840
v -0.000160 0.008777 -0.000840
v -0.000210 0.008734 -0.000840
v -0.000160 0.008777 -0.000840
v -0.000162 0.008779 -0.000840
v -0.000210 0.008734 -0.000840
v -0.000162 0.008779 -0.000840
v -0.000164 0.008780 -0.000840
v -0.000210 0.008734 -0.000840
v -0.000164 0.008780 -0.000840
v -0.000166 0.008782 -0.000840
v -0.000210 0.008734 -0.000840
v -0.000166 0.008782 -0.000840
v -0.000168 0.008784 -0.000840
v -0.000210 0.008734 -0.000840
v -0.000168 0.008784 -0.000840
v -0.000169 0.008785 -0.000840
v -0.000210 0.008734 -0.000840
v -0.000169 0.008785 -0.000840
v -0.000171 0.008787 -0.000840
v -0.000210 0.008734 -0.000840
v -0.000171 0.008787 -0.000840
v -0.000172 0.008790 -0.000840
v -0.000210 0.008734 -0.000840
v -0.000172 0.008790 -0.000840
v -0.000173 0.008792 -0.000840
v -0.000210 0.008734 -0.000840
v -0.000174 0.008794 -0.000840
v -0.000210 0.008734 -0.000840
v -0.000173 0.008792 -0.000840
v -0.000174 0.008796 -0.000840
v -0.000210 0.008734 -0.000840
v -0.000174 0.008794 -0.000840
v -0.000175 0.008799 -0.000840
v -0.000210 0.008734 -0.000840
v -0.000174 0.008796 -0.000840
v -0.000210 0.008734 -0.000840
v -0.000147 0.008773 -0.000840
v -0.000149 0.008773 -0.000840
v -0.000175 0.008804 -0.000840
v -0.000210 0.008734 -0.000840
v -0.000175 0.008801 -0.000840
v -0.000210 0.008872 -0.000840
v -0.000210 0.008734 -0.000840
v -0.000175 0.008804 -0.000840
v -0.000210 0.008872 -0.000840
v -0.000175 0.008804 -0.000840
v -0.000175 0.008806 -0.000840
v -0.000210 0.008872 -0.000840
v -0.000175 0.008806 -0.000840
v -0.000174 0.008809 -0.000840
v -0.000210 0.008872 -0.000840
v -0.000174 0.008809 -0.000840
v -0.000174 0.008811 -0.000840
v -0.000172 0.008816 -0.000840
v -0.000171 0.008818 -0.000840
v -0.000210 0.008872 -0.000840
v -0.000172 0.008816 -0.000840
v -0.000210 0.008872 -0.000840
v -0.000173 0.008813 -0.000840
v -0.000171 0.008818 -0.000840
v -0.000170 0.008820 -0.000840
v -0.000210 0.008872 -0.000840
v -0.000170 0.008820 -0.000840
v -0.000168 0.008822 -0.000840
v -0.000210 0.008872 -0.000840
v -0.000168 0.008822 -0.000840
v -0.000167 0.008824 -0.000840
v -0.000210 0.008872 -0.000840
v -0.000167 0.008824 -0.000840
v -0.000165 0.008825 -0.000840
v -0.000210 0.008872 -0.000840
v -0.000165 0.008825 -0.000840
v -0.000163 0.008827 -0.000840
v -0.000210 0.008872 -0.000840
v -0.000163 0.008827 -0.000840
v -0.000161 0.008828 -0.000840
v -0.000210 0.008872 -0.000840
v -0.000161 0.008828 -0.000840
v -0.000159 0.008829 -0.000840
v -0.000210 0.008872 -0.000840
v -0.000159 0.008829 -0.000840
v -0.000157 0.008831 -0.000840
v -0.000210 0.008872 -0.000840
v -0.000157 0.008831 -0.000840
v -0.000155 0.008831 -0.000840
v -0.000210 0.008872 -0.000840
v -0.000155 0.008831 -0.000840
v -0.000152 0.008832 -0.000840
v -0.000210 0.008872 -0.000840
v -0.000150 0.008833 -0.000840
v -0.000210 0.008872 -0.000840
v -0.000152 0.008832 -0.000840
v -0.000148 0.008833 -0.000840
v -0.000210 0.008872 -0.000840
v -0.000150 0.008833 -0.000840
v -0.000145 0.008833 -0.000840
v -0.000210 0.008872 -0.000840
v -0.000148 0.008833 -0.000840
v -0.000143 0.008833 -0.000840
v -0.000210 0.008872 -0.000840
v -0.000145 0.008833 -0.000840
v -0.000140 0.008833 -0.000840
v -0.000210 0.008872 -0.000840
v -0.000143 0.008833 -0.000840
v -0.000138 0.008832 -0.000840
v -0.000210 0.008872 -0.000840
v -0.000140 0.008833 -0.000840
v 0.000020 0.008872 -0.000840
v -0.000210 0.008872 -0.000840
v -0.000138 0.008832 -0.000840
v 0.000020 0.008872 -0.000840
v -0.000138 0.008832 -0.000840
v -0.000136 0.008831 -0.000840
v -0.000210 0.008872 -0.000840
v -0.000174 0.008811 -0.000840
v -0.000173 0.008813 -0.000840
v -0.000131 0.008830 -0.000840
v 0.000020 0.008872 -0.000840
v -0.000133 0.008831 -0.000840
v -0.000133 0.008831 -0.000840
v 0.000020 0.008872 -0.000840
v -0.000136 0.008831 -0.000840
v -0.000175 0.008799 -0.000840
v -0.000175 0.008801 -0.000840
v -0.000210 0.008734 -0.000840
v -0.000056 0.008854 -0.000876
v -0.000064 0.008852 -0.000879
v -0.000085 0.008853 -0.000876
v -0.000038 0.008853 -0.000877
v -0.000017 0.008846 -0.000886
v -0.000017 0.008849 -0.000882
v -0.000008 0.008845 -0.000887
v -0.000027 0.008843 -0.000890
v -0.000056 0.008845 -0.000887
v -0.000058 0.008839 -0.000894
v -0.000064 0.008834 -0.000899
v -0.000084 0.008839 -0.000894
v -0.000017 0.008838 -0.000894
v -0.000018 0.008834 -0.000899
v -0.000002 0.008841 -0.000892
v -0.000053 0.008850 -0.000881
v -0.000079 0.008849 -0.000883
v -0.000082 0.008842 -0.000890
v 0.000020 0.008843 -0.000890
v -0.000143 0.008868 -0.000852
v -0.000147 0.008866 -0.000857
v -0.000210 0.008868 -0.000851
v -0.000132 0.008867 -0.000853
v -0.000183 0.008849 -0.000882
v -0.000171 0.008853 -0.000876
v -0.000148 0.008851 -0.000880
v -0.000210 0.008849 -0.000883
v -0.000210 0.008852 -0.000879
v -0.000169 0.008846 -0.000886
v -0.000149 0.008842 -0.000891
v -0.000210 0.008843 -0.000890
v -0.000134 0.008846 -0.000885
v -0.000140 0.008852 -0.000879
v -0.000162 0.008857 -0.000871
v -0.000134 0.008855 -0.000874
v -0.000210 0.008852 -0.000879
v -0.000210 0.008854 -0.000875
v -0.000053 0.008859 -0.000869
v -0.000059 0.008862 -0.000863
v -0.000024 0.008860 -0.000866
v -0.000067 0.008857 -0.000871
v -0.000082 0.008860 -0.000866
v -0.000042 0.008864 -0.000859
v -0.000045 0.008867 -0.000854
v 0.000020 0.008866 -0.000855
v -0.000057 0.008865 -0.000858
v -0.000034 0.008857 -0.000871
v 0.000020 0.008862 -0.000863
v 0.000020 0.008859 -0.000867
v -0.000176 0.008863 -0.000861
v -0.000169 0.008860 -0.000866
v -0.000210 0.008862 -0.000863
v -0.000136 0.008862 -0.000863
v -0.000210 0.008857 -0.000871
v -0.000100 0.008857 -0.000871
v -0.000085 0.008862 -0.000863
v -0.000123 0.008858 -0.000870
v -0.000102 0.008853 -0.000877
v -0.000092 0.008852 -0.000879
v -0.000114 0.008850 -0.000881
v -0.000111 0.008846 -0.000886
v -0.000067 0.008865 -0.000857
v 0.000020 0.008864 -0.000859
v -0.000121 0.008865 -0.000857
v -0.000097 0.008866 -0.000855
v -0.000151 0.008870 -0.000847
v -0.000086 0.008867 -0.000853
v -0.000096 0.008870 -0.000847
v -0.000040 0.008870 -0.000846
v 0.000020 0.008836 -0.000897
v -0.000056 0.008830 -0.000903
v 0.000020 0.008854 -0.000875
v 0.000020 0.008852 -0.000879
v 0.000020 0.008849 -0.000883
v -0.000106 0.008841 -0.000891
v -0.000210 0.008870 -0.000847
v -0.000210 0.008868 -0.000851
v 0.000020 0.008870 -0.000847
v -0.000149 0.008836 -0.000897
v -0.000126 0.008836 -0.000897
v -0.000151 0.008832 -0.000900
v -0.000152 0.008832 -0.000901
v -0.000210 0.008849 -0.000883
v -0.000210 0.008846 -0.000886
v -0.000143 0.008833 -0.000900
v 0.000020 0.008836 -0.000897
v 0.000020 0.008840 -0.000893
v -0.000131 0.008830 -0.000903
v -0.000131 0.008830 -0.000903
v 0.000020 0.008868 -0.000851
v 0.000020 0.008866 -0.000855
v 0.000020 0.008843 -0.000890
v 0.000020 0.008840 -0.000893
v -0.000133 0.008830 -0.000902
v -0.000134 0.008831 -0.000902
v 0.000020 0.008836 -0.000897
v 0.000020 0.008833 -0.000900
v -0.000210 0.008864 -0.000859
v -0.000210 0.008866 -0.000855
v -0.000210 0.008854 -0.000875
v -0.000210 0.008857 -0.000871
v 0.000020 0.008857 -0.000871
v -0.000147 0.008833 -0.000900
v -0.000145 0.008833 -0.000900
v 0.000020 0.008846 -0.000886
v 0.000020 0.008849 -0.000883
v -0.000157 0.008830 -0.000902
v -0.000210 0.008833 -0.000900
v -0.000156 0.008831 -0.000902
v -0.000157 0.008830 -0.000902
v -0.000159 0.008830 -0.000903
v -0.000210 0.008833 -0.000900
v -0.000156 0.008831 -0.000902
v -0.000210 0.008833 -0.000900
v -0.000154 0.008832 -0.000901
v -0.000154 0.008832 -0.000901
v -0.000210 0.008833 -0.000900
v -0.000210 0.008836 -0.000897
v -0.000154 0.008832 -0.000901
v -0.000210 0.008836 -0.000897
v -0.000152 0.008832 -0.000901
v -0.000154 0.008832 -0.000901
v -0.000210 0.008836 -0.000897
v -0.000210 0.008840 -0.000893
v -0.000151 0.008832 -0.000900
v -0.000149 0.008833 -0.000900
v -0.000210 0.008843 -0.000890
v -0.000210 0.008846 -0.000886
v -0.000210 0.008852 -0.000879
v 0.000020 0.008843 -0.000890
v 0.000020 0.008846 -0.000886
v -0.000210 0.008857 -0.000871
v -0.000143 0.008833 -0.000900
v -0.000141 0.008833 -0.000900
v -0.000141 0.008833 -0.000900
v -0.000140 0.008832 -0.000900
v 0.000020 0.008833 -0.000900
v 0.000020 0.008830 -0.000903
v -0.000138 0.008832 -0.000901
v -0.000140 0.008832 -0.000900
v -0.000210 0.008840 -0.000893
v -0.000210 0.008843 -0.000890
v -0.000131 0.008830 -0.000903
v -0.000133 0.008830 -0.000902
v -0.000134 0.008831 -0.000902
v -0.000136 0.008832 -0.000901
v 0.000020 0.008830 -0.000903
v -0.000138 0.008832 -0.000901
v -0.000136 0.008832 -0.000901
v 0.000020 0.008836 -0.000897
v -0.000145 0.008833 -0.000900
v -0.000143 0.008833 -0.000900
v -0.000210 0.008859 -0.000867
v -0.000210 0.008862 -0.000863
v 0.000020 0.008854 -0.000875
v -0.000210 0.008857 -0.000871
v -0.000210 0.008859 -0.000867
v 0.000020 0.008852 -0.000879
v 0.000020 0.008854 -0.000875
v -0.000210 0.008862 -0.000863
v -0.000210 0.008864 -0.000859
v 0.000020 0.008857 -0.000871
v 0.000020 0.008859 -0.000867
v 0.000020 0.008870 -0.000847
v 0.000020 0.008868 -0.000851
v 0.000020 0.008872 -0.000842
v 0.000020 0.008870 -0.000847
v 0.000020 0.008868 -0.000851
v 0.000020 0.008864 -0.000859
v 0.000020 0.008866 -0.000855
v -0.000210 0.008870 -0.000847
v -0.000210 0.008872 -0.000842
v 0.000020 0.008864 -0.000859
v 0.000020 0.008862 -0.000863
v -0.000210 0.008870 -0.000847
v -0.000210 0.008868 -0.000851
v -0.000210 0.008866 -0.000855
v -0.000210 0.008868 -0.000851
v -0.000210 0.008866 -0.000855
v 0.000020 0.008854 -0.000875
v 0.000020 0.008857 -0.000871
v 0.000020 0.008849 -0.000883
v -0.000149 0.008833 -0.000900
v -0.000147 0.008833 -0.000900
v -0.000210 0.008840 -0.000893
v -0.000210 0.008833 -0.000900
v -0.000159 0.008830 -0.000903
v -0.000210 0.008830 -0.000903
v -0.000210 0.008846 -0.000886
v -0.000210 0.008830 -0.000903
v -0.000159 0.008830 -0.000903
v -0.000161 0.008829 -0.000904
v -0.000162 0.008827 -0.000905
v -0.000210 0.008830 -0.000903
v -0.000161 0.008829 -0.000904
v -0.000162 0.008827 -0.000905
v -0.000210 0.008827 -0.000905
v -0.000210 0.008830 -0.000903
v -0.000162 0.008827 -0.000905
v -0.000164 0.008826 -0.000906
v -0.000210 0.008827 -0.000905
v -0.000210 0.008827 -0.000905
v -0.000164 0.008826 -0.000906
v -0.000165 0.008825 -0.000906
v -0.000167 0.008824 -0.000907
v -0.000210 0.008827 -0.000905
v -0.000165 0.008825 -0.000906
v -0.000167 0.008824 -0.000907
v -0.000210 0.008824 -0.000907
v -0.000210 0.008827 -0.000905
v -0.000168 0.008822 -0.000908
v -0.000169 0.008821 -0.000909
v -0.000210 0.008824 -0.000907
v -0.000169 0.008821 -0.000909
v -0.000170 0.008819 -0.000910
v -0.000210 0.008821 -0.000909
v -0.000171 0.008817 -0.000910
v -0.000172 0.008815 -0.000911
v -0.000210 0.008817 -0.000910
v -0.000172 0.008815 -0.000911
v -0.000173 0.008813 -0.000912
v -0.000210 0.008814 -0.000912
v -0.000210 0.008814 -0.000912
v -0.000174 0.008811 -0.000912
v -0.000210 0.008810 -0.000912
v -0.000210 0.008810 -0.000912
v -0.000174 0.008811 -0.000912
v -0.000174 0.008809 -0.000912
v -0.000210 0.008807 -0.000913
v -0.000210 0.008810 -0.000912
v -0.000175 0.008807 -0.000913
v -0.000210 0.008803 -0.000913
v -0.000210 0.008807 -0.000913
v -0.000175 0.008805 -0.000913
v -0.000175 0.008801 -0.000913
v -0.000210 0.008803 -0.000913
v -0.000175 0.008803 -0.000913
v -0.000173 0.008793 -0.000912
v -0.000172 0.008791 -0.000911
v -0.000210 0.008792 -0.000912
v -0.000159 0.008776 -0.000903
v -0.000210 0.008776 -0.000903
v -0.000161 0.008777 -0.000904
v -0.000161 0.008777 -0.000904
v -0.000210 0.008776 -0.000903
v -0.000162 0.008778 -0.000905
v -0.000162 0.008778 -0.000905
v -0.000210 0.008776 -0.000903
v -0.000210 0.008779 -0.000905
v -0.000164 0.008780 -0.000906
v -0.000162 0.008778 -0.000905
v -0.000210 0.008779 -0.000905
v -0.000165 0.008781 -0.000906
v -0.000164 0.008780 -0.000906
v -0.000210 0.008779 -0.000905
v -0.000167 0.008782 -0.000907
v -0.000165 0.008781 -0.000906
v -0.000210 0.008779 -0.000905
v -0.000210 0.008782 -0.000907
v -0.000167 0.008782 -0.000907
v -0.000210 0.008779 -0.000905
v -0.000210 0.008782 -0.000907
v -0.000168 0.008784 -0.000908
v -0.000167 0.008782 -0.000907
v -0.000210 0.008782 -0.000907
v -0.000169 0.008785 -0.000909
v -0.000168 0.008784 -0.000908
v -0.000210 0.008782 -0.000907
v -0.000210 0.008785 -0.000909
v -0.000169 0.008785 -0.000909
v -0.000169 0.008785 -0.000909
v -0.000210 0.008785 -0.000909
v -0.000170 0.008787 -0.000910
v -0.000210 0.008789 -0.000910
v -0.000172 0.008791 -0.000911
v -0.000171 0.008789 -0.000910
v -0.000170 0.008787 -0.000910
v -0.000210 0.008789 -0.000910
v -0.000171 0.008789 -0.000910
v -0.000210 0.008789 -0.000910
v -0.000210 0.008792 -0.000912
v -0.000172 0.008791 -0.000911
v -0.000174 0.008795 -0.000912
v -0.000173 0.008793 -0.000912
v -0.000210 0.008792 -0.000912
v -0.000210 0.008796 -0.000912
v -0.000174 0.008795 -0.000912
v -0.000210 0.008792 -0.000912
v -0.000175 0.008799 -0.000913
v -0.000210 0.008796 -0.000912
v -0.000210 0.008799 -0.000913
v -0.000175 0.008799 -0.000913
v -0.000174 0.008797 -0.000912
v -0.000210 0.008796 -0.000912
v -0.000175 0.008801 -0.000913
v -0.000175 0.008799 -0.000913
v -0.000210 0.008799 -0.000913
v -0.000210 0.008803 -0.000913
v -0.000175 0.008801 -0.000913
v -0.000210 0.008799 -0.000913
v -0.000175 0.008805 -0.000913
v -0.000175 0.008803 -0.000913
v -0.000210 0.008803 -0.000913
v -0.000175 0.008807 -0.000913
v -0.000175 0.008805 -0.000913
v -0.000210 0.008807 -0.000913
v -0.000174 0.008809 -0.000912
v -0.000175 0.008807 -0.000913
v -0.000210 0.008810 -0.000912
v -0.000174 0.008811 -0.000912
v -0.000210 0.008814 -0.000912
v -0.000173 0.008813 -0.000912
v -0.000210 0.008814 -0.000912
v -0.000210 0.008817 -0.000910
v -0.000172 0.008815 -0.000911
v -0.000210 0.008817 -0.000910
v -0.000170 0.008819 -0.000910
v -0.000171 0.008817 -0.000910
v -0.000210 0.008817 -0.000910
v -0.000210 0.008821 -0.000909
v -0.000170 0.008819 -0.000910
v -0.000210 0.008821 -0.000909
v -0.000210 0.008824 -0.000907
v -0.000169 0.008821 -0.000909
v -0.000210 0.008824 -0.000907
v -0.000167 0.008824 -0.000907
v -0.000168 0.008822 -0.000908
v -0.000210 0.008796 -0.000912
v -0.000174 0.008797 -0.000912
v -0.000174 0.008795 -0.000912
v -0.000210 0.008789 -0.000910
v -0.000170 0.008787 -0.000910
v -0.000210 0.008785 -0.000909
v -0.000087 0.008816 -0.000911
v -0.000089 0.008818 -0.000910
v -0.000068 0.008817 -0.000911
v -0.000099 0.008815 -0.000911
v -0.000012 0.008817 -0.000910
v -0.000012 0.008820 -0.000909
v 0.000005 0.008818 -0.000910
v -0.000018 0.008816 -0.000911
v -0.000023 0.008819 -0.000910
v -0.000026 0.008814 -0.000911
v -0.000031 0.008816 -0.000911
v -0.000038 0.008819 -0.000910
v -0.000045 0.008816 -0.000911
v -0.000030 0.008822 -0.000908
v -0.000001 0.008808 -0.000913
v -0.000005 0.008805 -0.000913
v -0.000011 0.008809 -0.000913
v 0.000013 0.008810 -0.000912
v 0.000020 0.008807 -0.000913
v -0.000015 0.008791 -0.000911
v -0.000011 0.008788 -0.000910
v -0.000033 0.008790 -0.000911
v -0.000008 0.008792 -0.000911
v -0.000042 0.008785 -0.000909
v -0.000047 0.008782 -0.000907
v -0.000060 0.008784 -0.000908
v -0.000030 0.008786 -0.000909
v -0.000028 0.008783 -0.000908
v -0.000054 0.008780 -0.000906
v -0.000026 0.008780 -0.000906
v -0.000097 0.008791 -0.000911
v -0.000097 0.008794 -0.000912
v -0.000090 0.008792 -0.000912
v -0.000104 0.008787 -0.000910
v -0.000118 0.008791 -0.000911
v -0.000106 0.008785 -0.000909
v -0.000120 0.008787 -0.000910
v -0.000088 0.008789 -0.000910
v -0.000085 0.008785 -0.000909
v -0.000111 0.008813 -0.000912
v -0.000116 0.008811 -0.000912
v -0.000117 0.008813 -0.000912
v -0.000092 0.008812 -0.000912
v 0.000002 0.008815 -0.000911
v -0.000002 0.008812 -0.000912
v -0.000006 0.008816 -0.000911
v 0.000015 0.008816 -0.000911
v 0.000020 0.008814 -0.000912
v 0.000020 0.008810 -0.000912
v 0.000020 0.008807 -0.000913
v 0.000020 0.008814 -0.000912
v -0.000014 0.008813 -0.000912
v 0.000020 0.008814 -0.000912
v 0.000020 0.008810 -0.000912
v 0.000020 0.008817 -0.000910
v 0.000020 0.008814 -0.000912
v 0.000020 0.008817 -0.000910
v -0.000008 0.008780 -0.000906
v -0.000007 0.008782 -0.000907
v 0.000001 0.008782 -0.000907
v -0.000021 0.008778 -0.000904
v -0.000056 0.008776 -0.000903
v -0.000055 0.008778 -0.000904
v -0.000062 0.008778 -0.000904
v -0.000098 0.008779 -0.000905
v -0.000076 0.008781 -0.000906
v -0.000067 0.008785 -0.000909
v -0.000066 0.008788 -0.000910
v -0.000050 0.008788 -0.000910
v -0.000075 0.008784 -0.000908
v 0.000009 0.008787 -0.000909
v 0.000004 0.008784 -0.000908
v 0.000020 0.008785 -0.000909
v 0.000003 0.008790 -0.000911
v -0.000001 0.008793 -0.000912
v 0.000020 0.008792 -0.000912
v -0.000033 0.008798 -0.000913
v -0.000032 0.008801 -0.000913
v -0.000011 0.008798 -0.000913
v -0.000040 0.008796 -0.000912
v -0.000048 0.008798 -0.000913
v -0.000042 0.008793 -0.000912
v -0.000053 0.008796 -0.000912
v -0.000028 0.008796 -0.000912
v -0.000026 0.008793 -0.000912
v -0.000065 0.008791 -0.000911
v -0.000059 0.008793 -0.000912
v -0.000052 0.008789 -0.000911
v -0.000072 0.008793 -0.000912
v -0.000069 0.008796 -0.000912
v -0.000063 0.008799 -0.000913
v -0.000007 0.008822 -0.000908
v -0.000008 0.008825 -0.000907
v 0.000000 0.008822 -0.000908
v -0.000024 0.008822 -0.000908
v 0.000004 0.008780 -0.000905
v 0.000020 0.008782 -0.000907
v -0.000104 0.008797 -0.000913
v -0.000099 0.008800 -0.000913
v -0.000086 0.008798 -0.000913
v -0.000116 0.008797 -0.000912
v -0.000115 0.008799 -0.000913
v -0.000096 0.008803 -0.000913
v -0.000080 0.008802 -0.000913
v -0.000115 0.008799 -0.000913
v -0.000115 0.008801 -0.000913
v -0.000102 0.008809 -0.000913
v -0.000099 0.008806 -0.000913
v -0.000115 0.008807 -0.000913
v -0.000086 0.008808 -0.000913
v -0.000115 0.008803 -0.000913
v -0.000084 0.008805 -0.000913
v -0.000057 0.008803 -0.000913
v -0.000051 0.008806 -0.000913
v -0.000041 0.008803 -0.000913
v -0.000071 0.008803 -0.000913
v -0.000063 0.008807 -0.000913
v -0.000051 0.008800 -0.000913
v -0.000049 0.008809 -0.000913
v -0.000028 0.008807 -0.000913
v 0.000004 0.008797 -0.000913
v 0.000001 0.008801 -0.000913
v 0.000020 0.008799 -0.000913
v -0.000008 0.008795 -0.000912
v -0.000013 0.008795 -0.000912
v -0.000093 0.008783 -0.000907
v -0.000110 0.008781 -0.000906
v -0.000131 0.008776 -0.000903
v -0.000129 0.008777 -0.000904
v -0.000015 0.008785 -0.000908
v -0.000085 0.008795 -0.000912
v 0.000020 0.008821 -0.000909
v 0.000020 0.008824 -0.000907
v -0.000003 0.008828 -0.000905
v -0.000021 0.008828 -0.000904
v 0.000020 0.008830 -0.000903
v 0.000020 0.008827 -0.000905
v 0.000020 0.008830 -0.000903
v -0.000029 0.008825 -0.000906
v -0.000053 0.008826 -0.000905
v 0.000020 0.008827 -0.000905
v -0.000087 0.008822 -0.000908
v -0.000121 0.008821 -0.000909
v -0.000076 0.008824 -0.000907
v -0.000072 0.008821 -0.000909
v -0.000095 0.008825 -0.000907
v -0.000087 0.008827 -0.000905
v -0.000122 0.008822 -0.000908
v -0.000123 0.008824 -0.000907
v -0.000069 0.008810 -0.000912
v -0.000072 0.008814 -0.000912
v -0.000057 0.008814 -0.000911
v -0.000026 0.008803 -0.000913
v -0.000050 0.008813 -0.000912
v -0.000051 0.008819 -0.000910
v -0.000045 0.008823 -0.000908
v -0.000060 0.008816 -0.000911
v -0.000023 0.008811 -0.000912
v 0.000020 0.008803 -0.000913
v -0.000122 0.008784 -0.000908
v -0.000126 0.008780 -0.000906
v -0.000125 0.008781 -0.000906
v -0.000128 0.008779 -0.000905
v -0.000126 0.008780 -0.000906
v 0.000020 0.008785 -0.000909
v 0.000020 0.008782 -0.000907
v 0.000020 0.008779 -0.000905
v 0.000020 0.008776 -0.000903
v -0.000115 0.008803 -0.000913
v -0.000115 0.008805 -0.000913
v -0.000116 0.008811 -0.000912
v -0.000116 0.008809 -0.000912
v -0.000115 0.008807 -0.000913
v -0.000115 0.008805 -0.000913
v 0.000020 0.008796 -0.000912
v 0.000020 0.008799 -0.000913
v 0.000020 0.008814 -0.000912
v 0.000020 0.008807 -0.000913
v -0.000120 0.008819 -0.000910
v -0.000119 0.008817 -0.000910
v -0.000118 0.008815 -0.000911
v 0.000020 0.008821 -0.000909
v 0.000020 0.008824 -0.000907
v -0.000125 0.008825 -0.000906
v -0.000123 0.008824 -0.000907
v 0.000020 0.008779 -0.000905
v 0.000020 0.008782 -0.000907
v -0.000128 0.008779 -0.000905
v -0.000129 0.008777 -0.000904
v 0.000020 0.008789 -0.000910
v 0.000020 0.008785 -0.000909
v -0.000120 0.008787 -0.000910
v -0.000119 0.008789 -0.000910
v -0.000116 0.008795 -0.000912
v -0.000115 0.008807 -0.000913
v -0.000116 0.008809 -0.000912
v 0.000020 0.008830 -0.000903
v -0.000119 0.008817 -0.000910
v -0.000120 0.008819 -0.000910
v -0.000129 0.008829 -0.000904
v -0.000131 0.008830 -0.000903
v -0.000131 0.008830 -0.000903
v -0.000128 0.008828 -0.000905
v -0.000129 0.008829 -0.000904
v -0.000126 0.008826 -0.000906
v -0.000128 0.008828 -0.000905
v -0.000126 0.008826 -0.000906
v -0.000125 0.008825 -0.000906
v -0.000126 0.008826 -0.000906
v -0.000121 0.008821 -0.000909
v -0.000121 0.008821 -0.000909
v -0.000122 0.008822 -0.000908
v -0.000120 0.008819 -0.000910
v -0.000121 0.008821 -0.000909
v 0.000020 0.008807 -0.000913
v 0.000020 0.008803 -0.000913
v -0.000118 0.008815 -0.000911
v -0.000117 0.008813 -0.000912
v -0.000118 0.008815 -0.000911
v 0.000020 0.008799 -0.000913
v 0.000020 0.008803 -0.000913
v -0.000116 0.008811 -0.000912
v 0.000020 0.008792 -0.000912
v 0.000020 0.008796 -0.000912
v 0.000020 0.008796 -0.000912
v 0.000020 0.008789 -0.000910
v 0.000020 0.008792 -0.000912
v -0.000115 0.008803 -0.000913
v 0.000020 0.008782 -0.000907
v -0.000115 0.008799 -0.000913
v 0.000020 0.008789 -0.000910
v -0.000116 0.008797 -0.000912
v -0.000116 0.008795 -0.000912
v -0.000117 0.008793 -0.000912
v -0.000118 0.008791 -0.000911
v 0.000020 0.008776 -0.000903
v -0.000131 0.008776 -0.000903
v -0.000119 0.008789 -0.000910
v -0.000118 0.008791 -0.000911
v -0.000128 0.008779 -0.000905
v -0.000125 0.008781 -0.000906
v -0.000123 0.008782 -0.000907
v -0.000123 0.008782 -0.000907
v -0.000122 0.008784 -0.000908
v -0.000121 0.008785 -0.000909
v -0.000122 0.008784 -0.000908
v -0.000121 0.008785 -0.000909
v -0.000120 0.008787 -0.000910
v 0.000020 0.008776 -0.000903
v -0.000117 0.008793 -0.000912
v -0.000117 0.008793 -0.000912
v -0.000116 0.008795 -0.000912
v -0.000115 0.008801 -0.000913
v -0.000115 0.008803 -0.000913
v 0.000020 0.008827 -0.000905
v 0.000020 0.008824 -0.000907
v 0.000020 0.008821 -0.000909
v 0.000020 0.008817 -0.000910
v -0.000026 0.008757 -0.000883
v -0.000029 0.008761 -0.000887
v 0.000020 0.008760 -0.000886
v -0.000036 0.008756 -0.000882
v -0.000096 0.008774 -0.000901
v -0.000101 0.008770 -0.000897
v -0.000134 0.008775 -0.000902
v -0.000059 0.008770 -0.000897
v -0.000143 0.008738 -0.000852
v -0.000147 0.008740 -0.000857
v -0.000132 0.008739 -0.000853
v -0.000151 0.008736 -0.000847
v -0.000210 0.008738 -0.000851
v -0.000058 0.008757 -0.000883
v -0.000064 0.008754 -0.000879
v -0.000082 0.008757 -0.000882
v -0.000053 0.008747 -0.000869
v -0.000059 0.008744 -0.000863
v -0.000082 0.008746 -0.000866
v -0.000034 0.008749 -0.000871
v -0.000024 0.008746 -0.000866
v -0.000042 0.008742 -0.000859
v -0.000045 0.008739 -0.000854
v -0.000057 0.008741 -0.000858
v 0.000020 0.008742 -0.000859
v 0.000020 0.008749 -0.000871
v -0.000176 0.008743 -0.000861
v -0.000169 0.008746 -0.000866
v -0.000136 0.008744 -0.000863
v -0.000210 0.008742 -0.000859
v -0.000210 0.008744 -0.000863
v -0.000162 0.008749 -0.000871
v -0.000210 0.008744 -0.000863
v -0.000210 0.008747 -0.000867
v -0.000055 0.008751 -0.000874
v -0.000028 0.008753 -0.000877
v -0.000067 0.008749 -0.000871
v -0.000085 0.008753 -0.000876
v -0.000100 0.008749 -0.000871
v -0.000085 0.008744 -0.000863
v -0.000123 0.008748 -0.000870
v -0.000134 0.008751 -0.000874
v -0.000140 0.008754 -0.000879
v -0.000102 0.008753 -0.000877
v -0.000158 0.008753 -0.000877
v -0.000092 0.008754 -0.000879
v -0.000114 0.008756 -0.000881
v -0.000111 0.008760 -0.000886
v -0.000146 0.008759 -0.000885
v -0.000067 0.008741 -0.000857
v -0.000121 0.008741 -0.000857
v -0.000097 0.008740 -0.000855
v -0.000075 0.008761 -0.000887
v -0.000092 0.008761 -0.000888
v -0.000050 0.008765 -0.000892
v -0.000042 0.008768 -0.000895
v -0.000017 0.008765 -0.000892
v -0.000078 0.008766 -0.000893
v 0.000020 0.008766 -0.000893
v 0.000020 0.008763 -0.000890
v -0.000014 0.008755 -0.000879
v 0.000020 0.008752 -0.000875
v -0.000086 0.008739 -0.000853
v -0.000096 0.008736 -0.000847
v -0.000157 0.008771 -0.000898
v -0.000152 0.008774 -0.000901
v -0.000151 0.008774 -0.000900
v -0.000168 0.008765 -0.000892
v -0.000210 0.008770 -0.000897
v -0.000161 0.008761 -0.000887
v -0.000210 0.008763 -0.000890
v -0.000133 0.008769 -0.000895
v -0.000135 0.008763 -0.000890
v -0.000210 0.008752 -0.000875
v -0.000171 0.008757 -0.000882
v -0.000210 0.008754 -0.000879
v -0.000210 0.008757 -0.000883
v -0.000052 0.008771 -0.000898
v 0.000020 0.008776 -0.000903
v -0.000109 0.008765 -0.000891
v -0.000210 0.008736 -0.000847
v -0.000210 0.008738 -0.000851
v -0.000210 0.008740 -0.000855
v -0.000040 0.008736 -0.000846
v 0.000020 0.008736 -0.000847
v 0.000020 0.008738 -0.000851
v -0.000210 0.008736 -0.000847
v -0.000210 0.008734 -0.000842
v -0.000210 0.008738 -0.000851
v -0.000210 0.008736 -0.000847
v -0.000210 0.008749 -0.000871
v -0.000210 0.008752 -0.000875
v -0.000210 0.008749 -0.000871
v -0.000210 0.008747 -0.000867
v 0.000020 0.008757 -0.000883
v 0.000020 0.008749 -0.000871
v 0.000020 0.008747 -0.000867
v 0.000020 0.008740 -0.000855
v 0.000020 0.008742 -0.000859
v -0.000210 0.008760 -0.000886
v -0.000210 0.008757 -0.000883
v 0.000020 0.008770 -0.000897
v 0.000020 0.008773 -0.000900
v 0.000020 0.008752 -0.000875
v -0.000143 0.008773 -0.000900
v -0.000141 0.008773 -0.000900
v -0.000145 0.008773 -0.000900
v -0.000143 0.008773 -0.000900
v 0.000020 0.008763 -0.000890
v 0.000020 0.008760 -0.000886
v -0.000210 0.008749 -0.000871
v -0.000140 0.008774 -0.000900
v -0.000141 0.008773 -0.000900
v -0.000210 0.008760 -0.000886
v -0.000210 0.008776 -0.000903
v -0.000159 0.008776 -0.000903
v -0.000210 0.008773 -0.000900
v -0.000210 0.008773 -0.000900
v -0.000159 0.008776 -0.000903
v -0.000157 0.008776 -0.000902
v -0.000156 0.008775 -0.000902
v -0.000210 0.008773 -0.000900
v -0.000157 0.008776 -0.000902
v -0.000156 0.008775 -0.000902
v -0.000154 0.008774 -0.000901
v -0.000154 0.008774 -0.000901
v -0.000152 0.008774 -0.000901
v -0.000147 0.008773 -0.000900
v -0.000149 0.008773 -0.000900
v -0.000147 0.008773 -0.000900
v -0.000145 0.008773 -0.000900
v -0.000210 0.008770 -0.000897
v -0.000210 0.008766 -0.000893
v -0.000210 0.008763 -0.000890
v -0.000210 0.008766 -0.000893
v 0.000020 0.008752 -0.000875
v 0.000020 0.008749 -0.000871
v 0.000020 0.008747 -0.000867
v 0.000020 0.008744 -0.000863
v -0.000210 0.008752 -0.000875
v -0.000210 0.008754 -0.000879
v -0.000210 0.008740 -0.000855
v -0.000210 0.008738 -0.000851
v -0.000210 0.008742 -0.000859
v -0.000210 0.008740 -0.000855
v 0.000020 0.008736 -0.000847
v 0.000020 0.008734 -0.000842
v -0.000210 0.008744 -0.000863
v 0.000020 0.008736 -0.000847
v 0.000020 0.008738 -0.000851
v 0.000020 0.008740 -0.000855
v -0.000210 0.008754 -0.000879
v 0.000020 0.008752 -0.000875
v 0.000020 0.008754 -0.000879
v -0.000138 0.008774 -0.000901
v -0.000140 0.008774 -0.000900
v 0.000020 0.008757 -0.000883
v 0.000020 0.008760 -0.000886
v 0.000020 0.008770 -0.000897
v 0.000020 0.008773 -0.000900
v 0.000020 0.008773 -0.000900
v 0.000020 0.008776 -0.000903
v 0.000020 0.008760 -0.000886
v -0.000131 0.008776 -0.000903
v -0.000131 0.008776 -0.000903
v -0.000133 0.008776 -0.000902
v -0.000133 0.008776 -0.000902
v -0.000134 0.008775 -0.000902
v -0.000134 0.008775 -0.000902
v -0.000136 0.008774 -0.000901
v -0.000136 0.008774 -0.000901
v -0.000138 0.008774 -0.000901
v 0.000020 0.008770 -0.000897
v 0.000020 0.008766 -0.000893
v 0.000020 0.008757 -0.000883
v 0.000020 0.008754 -0.000879
v 0.000020 0.008740 -0.000855
v 0.000020 0.008738 -0.000851
v 0.000020 0.008744 -0.000863
v 0.000020 0.008742 -0.000859
v -0.000145 0.008773 -0.000900
v -0.000210 0.008760 -0.000886
v -0.000210 0.008763 -0.000890
v -0.000210 0.008770 -0.000897
v -0.000210 0.008773 -0.000900
v -0.000151 0.008774 -0.000900
v -0.000149 0.008773 -0.000900
v -0.000138 0.008774 -0.000901
v -0.000210 0.008773 -0.000900
v -0.000156 0.008775 -0.000902
vn -1.0000 -0.0000 -0.0000
vn -1.0000 -0.0001 -0.0000
vn -1.0000 0.0001 -0.0000
vn 1.0000 -0.0000 -0.0000
vn 1.0000 0.0001 -0.0000
vn -0.0000 -1.0000 -0.0000
vn -0.0000 -1.0000 -0.0001
vn -0.9977 -0.0680 0.0002
vn -1.0000 -0.0020 -0.0000
vn -0.9897 -0.1430 -0.0000
vn -0.9974 -0.0726 -0.0000
vn -0.9771 -0.2127 -0.0000
vn -0.9908 -0.1355 -0.0000
vn -0.9793 -0.2024 -0.0000
vn -0.9597 -0.2810 -0.0000
vn -0.9633 -0.2685 0.0001
vn -0.9376 -0.3477 -0.0000
vn -0.9428 -0.3333 -0.0000
vn -0.9111 -0.4121 -0.0000
vn -0.9181 -0.3965 0.0002
vn -0.8890 -0.4579 0.0001
vn -0.8806 -0.4738 -0.0000
vn -0.8464 -0.5325 -0.0000
vn -0.8559 -0.5172 0.0002
vn -0.8090 -0.5879 -0.0000
vn -0.8188 -0.5741 -0.0000
vn -0.7779 -0.6284 -0.0002
vn -0.7685 -0.6399 -0.0000
vn -0.7250 -0.6887 -0.0000
vn -0.6787 -0.7344 -0.0000
vn -0.7334 -0.6798 -0.0000
vn -0.5227 -0.8525 -0.0000
vn -0.5240 -0.8517 -0.0000
vn -0.4650 -0.8853 -0.0000
vn -0.5806 -0.8142 -0.0001
vn -0.5775 -0.8164 -0.0000
vn -0.6345 -0.7729 -0.0002
vn -0.6295 -0.7770 -0.0000
vn -0.6856 -0.7280 -0.0003
vn -0.9976 0.0690 -0.0000
vn -0.9967 0.0811 -0.0000
vn -0.9902 0.1394 -0.0000
vn -0.9868 0.1617 -0.0000
vn -0.9779 0.2091 -0.0000
vn -0.9705 0.2412 0.0001
vn -0.9607 0.2775 -0.0000
vn -0.9389 0.3443 -0.0000
vn -0.9477 0.3191 0.0002
vn -0.9187 0.3949 0.0002
vn -0.9126 0.4089 -0.0000
vn -0.8822 0.4709 -0.0000
vn -0.8837 0.4681 0.0001
vn -0.8481 0.5299 -0.0000
vn -0.8428 0.5382 0.0001
vn -0.7964 0.6048 -0.0000
vn -0.8106 0.5856 -0.0000
vn -0.7447 0.6674 -0.0000
vn -0.6796 0.7336 -0.0000
vn -0.6882 0.7255 -0.0003
vn -0.7263 0.6874 -0.0000
vn -0.7699 0.6381 -0.0000
vn -0.6302 0.7765 -0.0000
vn -0.5779 0.8161 -0.0000
vn -0.5228 0.8524 -0.0000
vn -0.5618 0.8273 -0.0001
vn -0.6270 0.7790 -0.0001
vn -0.4650 0.8853 -0.0000
vn -0.4927 0.8702 -0.0001
vn -0.4124 0.9110 -0.0000
vn -0.4208 0.9072 0.0001
vn -0.3576 0.9339 -0.0000
vn -0.3457 0.9383 -0.0001
vn -0.3008 0.9537 -0.0000
vn -0.2684 0.9633 -0.0001
vn -0.2423 0.9702 -0.0000
vn -0.1895 0.9819 -0.0001
vn -0.1826 0.9832 -0.0000
vn -0.1220 0.9925 -0.0000
vn -0.0605 0.9982 -0.0000
vn -0.1093 0.9940 -0.0002
vn -0.0283 0.9996 -0.0003
vn 0.0008 1.0000 -0.0000
vn 0.0624 0.9981 -0.0000
vn 0.0530 0.9986 -0.0000
vn 0.1337 0.9910 0.0001
vn 0.1235 0.9923 -0.0000
vn 0.2137 0.9769 -0.0002
vn 0.1836 0.9830 -0.0000
vn 0.2922 0.9564 -0.0000
vn 0.2433 0.9700 -0.0000
vn 0.3687 0.9295 -0.0002
vn 0.3014 0.9535 -0.0000
vn 0.3579 0.9338 -0.0000
vn 0.4429 0.8966 -0.0004
vn 0.4125 0.9110 -0.0000
vn 0.4649 0.8854 -0.0000
vn 0.5142 0.8577 -0.0003
vn 0.5226 0.8526 -0.0000
vn 0.5821 0.8131 -0.0002
vn 0.5775 0.8164 -0.0000
vn 0.6295 0.7770 -0.0000
vn 0.6461 0.7632 -0.0000
vn 0.7058 0.7084 -0.0001
vn 0.6787 0.7344 -0.0000
vn 0.7250 0.6887 -0.0000
vn 0.7610 0.6488 0.0001
vn 0.7685 0.6399 -0.0000
vn 0.8090 0.5878 -0.0000
vn 0.8112 0.5848 -0.0000
vn 0.8559 0.5171 0.0001
vn 0.8949 0.4462 0.0003
vn 0.8464 0.5325 -0.0000
vn 0.8806 0.4738 -0.0000
vn 0.9282 0.3720 0.0002
vn 0.9111 0.4121 -0.0000
vn 0.9376 0.3477 -0.0000
vn 0.9553 0.2955 0.0003
vn 0.9597 0.2810 -0.0000
vn 0.9905 0.1374 0.0001
vn 0.9761 0.2171 0.0004
vn 0.9771 0.2127 -0.0000
vn 0.9897 0.1430 -0.0000
vn 0.9779 -0.2091 -0.0000
vn 0.9607 -0.2775 -0.0000
vn 0.9642 -0.2651 -0.0000
vn 0.9984 0.0565 -0.0002
vn 0.9974 0.0726 -0.0000
vn 0.8822 -0.4708 -0.0000
vn 0.8481 -0.5298 -0.0000
vn 0.8719 -0.4897 -0.0002
vn 0.7262 -0.6875 -0.0000
vn 0.7280 -0.6856 -0.0000
vn 0.7813 -0.6242 -0.0000
vn 0.5228 -0.8524 -0.0000
vn 0.6073 -0.7945 -0.0001
vn 0.5778 -0.8162 -0.0000
vn 0.4713 -0.8820 -0.0018
vn 0.4125 -0.9110 -0.0000
vn 0.3981 -0.9173 0.0002
vn 0.2433 -0.9700 -0.0000
vn 0.2447 -0.9696 -0.0000
vn 0.3226 -0.9465 -0.0000
vn 0.1235 -0.9923 -0.0000
vn 0.1652 -0.9863 -0.0002
vn 0.1839 -0.9829 -0.0000
vn 0.0624 -0.9981 -0.0000
vn 0.0035 -1.0000 -0.0003
vn 0.0846 -0.9964 -0.0003
vn 0.0010 -1.0000 -0.0000
vn -0.0606 -0.9982 -0.0000
vn -0.1218 -0.9925 -0.0000
vn -0.0776 -0.9970 -0.0000
vn -0.1825 -0.9832 -0.0000
vn -0.1582 -0.9874 -0.0002
vn -0.2424 -0.9702 -0.0000
vn -0.2378 -0.9713 0.0001
vn -0.3008 -0.9537 -0.0000
vn -0.3159 -0.9488 -0.0004
vn -0.4124 -0.9110 -0.0000
vn -0.3916 -0.9201 0.0002
vn -0.3576 -0.9339 0.0005
vn 0.3014 -0.9535 -0.0000
vn 0.3579 -0.9338 -0.0000
vn 0.4649 -0.8854 -0.0000
vn 0.5413 -0.8408 0.0003
vn 0.6302 -0.7765 -0.0000
vn 0.6700 -0.7424 0.0001
vn 0.6796 -0.7336 -0.0000
vn 0.7699 -0.6382 -0.0000
vn 0.8293 -0.5588 0.0001
vn 0.8106 -0.5856 -0.0000
vn 0.9087 -0.4174 0.0001
vn 0.9126 -0.4088 -0.0000
vn 0.9396 -0.3424 0.0001
vn 0.9389 -0.3442 -0.0000
vn 0.9825 -0.1861 -0.0000
vn 0.9902 -0.1394 -0.0000
vn 0.9944 -0.1057 -0.0002
vn 0.9976 -0.0690 -0.0000
vn 0.9997 -0.0247 -0.0000
vn 1.0000 0.0020 0.0001
vn -0.0000 1.0000 -0.0000
vn -0.0000 1.0000 -0.0001
vn -0.0000 -0.0000 1.0000
vn 0.0001 -0.0000 1.0000
vn -0.0001 -0.0000 1.0000
vn -0.0000 0.8155 -0.5788
vn -0.0001 0.8016 -0.5979
vn -0.0000 0.8131 -0.5821
vn -0.0000 0.8087 -0.5882
vn -0.0000 0.7651 -0.6439
vn -0.0000 0.7879 -0.6158
vn -0.0000 0.7593 -0.6508
vn -0.0000 0.7473 -0.6645
vn 0.0001 0.7621 -0.6474
vn -0.0000 0.7216 -0.6923
vn -0.0000 0.6915 -0.7224
vn -0.0000 0.7247 -0.6890
vn -0.0000 0.7197 -0.6943
vn -0.0000 0.6901 -0.7237
vn -0.0000 0.7355 -0.6775
vn -0.0000 0.7913 -0.6115
vn -0.0000 0.7829 -0.6221
vn -0.0000 0.7435 -0.6688
vn -0.0000 0.7465 -0.6654
vn -0.0000 0.9023 -0.4311
vn -0.0000 0.8890 -0.4578
vn -0.0000 0.9062 -0.4229
vn -0.0000 0.9001 -0.4357
vn -0.0000 0.7884 -0.6151
vn -0.0003 0.8130 -0.5822
vn -0.0000 0.7951 -0.6065
vn -0.0000 0.7839 -0.6208
vn -0.0000 0.8017 -0.5977
vn 0.0001 0.7671 -0.6416
vn -0.0000 0.7391 -0.6736
vn -0.0004 0.7695 -0.6386
vn -0.0000 0.8016 -0.5978
vn -0.0000 0.8352 -0.5500
vn -0.0000 0.8243 -0.5662
vn -0.0000 0.8188 -0.5741
vn -0.0000 0.8457 -0.5337
vn -0.0001 0.8660 -0.5001
vn -0.0000 0.8559 -0.5172
vn -0.0000 0.8351 -0.5501
vn -0.0000 0.8558 -0.5172
vn -0.0000 0.8796 -0.4756
vn -0.0000 0.8978 -0.4405
vn -0.0000 0.8934 -0.4492
vn -0.0000 0.8835 -0.4684
vn -0.0000 0.8658 -0.5004
vn -0.0000 0.8508 -0.5255
vn -0.0000 0.8753 -0.4835
vn -0.0002 0.8560 -0.5170
vn -0.0001 0.8657 -0.5006
vn -0.0000 0.8351 -0.5500
vn -0.0000 0.8658 -0.5005
vn -0.0000 0.8422 -0.5392
vn -0.0000 0.8094 -0.5873
vn -0.0000 0.8017 -0.5978
vn -0.0000 0.7899 -0.6133
vn -0.0000 0.7654 -0.6435
vn -0.0000 0.8860 -0.4636
vn -0.0000 0.8800 -0.4750
vn -0.0000 0.8869 -0.4620
vn -0.0001 0.8936 -0.4488
vn -0.0000 0.9168 -0.3994
vn -0.0000 0.8997 -0.4366
vn -0.0000 0.9181 -0.3964
vn -0.0000 0.9194 -0.3934
vn -0.0000 0.7064 -0.7078
vn -0.0000 0.6640 -0.7477
vn -0.0000 0.7840 -0.6208
vn -0.0001 0.7381 -0.6747
vn -0.0000 0.7023 -0.7119
vn -0.0000 0.7039 -0.7103
vn -0.0000 0.6823 -0.7311
vn -0.0000 0.6798 -0.7334
vn -0.0000 0.7655 -0.6434
vn -0.0000 0.6851 -0.7284
vn -0.0000 0.7065 -0.7078
vn -0.0000 0.7354 -0.6776
vn -0.0000 0.7268 -0.6869
vn -0.0000 0.7464 -0.6655
vn -0.0000 0.6688 -0.7434
vn -0.0000 0.6730 -0.7396
vn -0.0000 0.6855 -0.7281
vn -0.0000 0.8935 -0.4491
vn -0.0000 0.7592 -0.6508
vn -0.0000 0.7839 -0.6209
vn -0.0000 0.6731 -0.7396
vn -0.0000 0.6687 -0.7435
vn -0.0000 0.6767 -0.7362
vn -0.0000 0.7065 -0.7077
vn -0.0000 0.7267 -0.6869
vn -0.0001 0.6823 -0.7311
vn -0.0000 0.6841 -0.7294
vn -0.0000 0.7671 -0.6416
vn -0.0000 0.6840 -0.7295
vn -0.0000 0.6901 -0.7238
vn -0.0000 0.6822 -0.7311
vn -0.0000 0.8559 -0.5171
vn -0.0000 0.9292 -0.3695
vn -0.0000 0.9061 -0.4230
vn -0.0000 0.6840 -0.7294
vn -0.0000 0.6395 -0.7688
vn -0.0000 0.6124 -0.7906
vn -0.0000 0.6639 -0.7478
vn -0.0000 0.6393 -0.7689
vn -0.0000 0.6123 -0.7906
vn -0.0000 0.5935 -0.8048
vn -0.0000 0.6640 -0.7478
vn -0.0000 0.5827 -0.8127
vn -0.0001 0.5827 -0.8127
vn -0.0000 0.5506 -0.8348
vn -0.0000 0.5161 -0.8566
vn -0.0000 0.5506 -0.8347
vn -0.0000 0.5160 -0.8566
vn -0.0000 0.5181 -0.8553
vn -0.0000 0.5935 -0.8049
vn -0.0000 0.4789 -0.8779
vn -0.0000 0.4395 -0.8983
vn -0.0000 0.4394 -0.8983
vn -0.0000 0.3974 -0.9176
vn -0.0000 0.4384 -0.8988
vn -0.0000 0.3530 -0.9356
vn -0.0000 0.3065 -0.9519
vn -0.0000 0.3551 -0.9348
vn -0.0000 0.2581 -0.9661
vn -0.0000 0.2690 -0.9631
vn -0.0000 0.2688 -0.9632
vn -0.0000 0.2080 -0.9781
vn -0.0000 0.1805 -0.9836
vn -0.0000 0.1568 -0.9876
vn -0.0000 0.0906 -0.9959
vn -0.0000 0.1045 -0.9945
vn -0.0000 -0.0000 -1.0000
vn -0.0000 0.0517 -0.9987
vn -0.0000 -0.0544 -0.9985
vn -0.0000 -0.0014 -1.0000
vn -0.0000 -0.2607 -0.9654
vn -0.0000 -0.3089 -0.9511
vn -0.0000 -0.2691 -0.9631
vn -0.0000 -0.6640 -0.7477
vn -0.0000 -0.6395 -0.7688
vn -0.0000 -0.6126 -0.7904
vn -0.0000 -0.5935 -0.8048
vn -0.0000 -0.5831 -0.8124
vn -0.0000 -0.5935 -0.8049
vn -0.0000 -0.5513 -0.8343
vn -0.0000 -0.5832 -0.8123
vn -0.0000 -0.5171 -0.8560
vn -0.0000 -0.5181 -0.8553
vn -0.0000 -0.5170 -0.8560
vn -0.0000 -0.5934 -0.8049
vn -0.0000 -0.4803 -0.8771
vn -0.0000 -0.4411 -0.8975
vn -0.0000 -0.4385 -0.8987
vn -0.0000 -0.4384 -0.8988
vn -0.0000 -0.3994 -0.9168
vn -0.0000 -0.3551 -0.9348
vn -0.0000 -0.3553 -0.9348
vn -0.0000 -0.3552 -0.9348
vn -0.0000 -0.2106 -0.9776
vn -0.0000 -0.2606 -0.9655
vn -0.0000 -0.2689 -0.9632
vn -0.0000 -0.1805 -0.9836
vn -0.0000 -0.2688 -0.9632
vn -0.0000 -0.1073 -0.9942
vn -0.0000 -0.0906 -0.9959
vn -0.0000 -0.1074 -0.9942
vn -0.0000 -0.1594 -0.9872
vn -0.0000 -0.0545 -0.9985
vn -0.0000 -0.1072 -0.9942
vn -0.0000 -0.0907 -0.9959
vn -0.0000 0.0907 -0.9959
vn -0.0000 0.1046 -0.9945
vn -0.0000 0.2081 -0.9781
vn -0.0000 0.3552 -0.9348
vn -0.0000 0.3531 -0.9356
vn -0.0000 0.4383 -0.8988
vn -0.0000 0.3974 -0.9177
vn -0.0000 -0.3993 -0.9168
vn -0.0000 -0.4383 -0.8988
vn -0.0000 0.3214 -0.9469
vn -0.0000 0.3856 -0.9227
vn -0.0000 0.3445 -0.9388
vn -0.0000 0.3058 -0.9521
vn -0.0000 0.3615 -0.9324
vn -0.0000 0.4277 -0.9039
vn -0.0001 0.3848 -0.9230
vn -0.0000 0.3305 -0.9438
vn -0.0000 0.3911 -0.9203
vn -0.0000 0.2743 -0.9616
vn -0.0000 0.3289 -0.9444
vn -0.0001 0.4021 -0.9156
vn -0.0000 0.3201 -0.9474
vn -0.0000 0.4667 -0.8844
vn -0.0000 0.1241 -0.9923
vn -0.0000 0.0524 -0.9986
vn -0.0000 0.1532 -0.9882
vn -0.0000 0.1656 -0.9862
vn -0.0000 0.0908 -0.9959
vn -0.0000 -0.3053 -0.9523
vn -0.0000 -0.3725 -0.9280
vn -0.0000 -0.3138 -0.9495
vn -0.0000 -0.2802 -0.9599
vn -0.0000 -0.4394 -0.8983
vn -0.0000 -0.5169 -0.8561
vn -0.0000 -0.4775 -0.8786
vn -0.0000 -0.4170 -0.9089
vn -0.0000 -0.4943 -0.8693
vn -0.0000 -0.5766 -0.8170
vn -0.0000 -0.5735 -0.8192
vn -0.0000 -0.2966 -0.9550
vn -0.0000 -0.2312 -0.9729
vn -0.0000 -0.2661 -0.9639
vn -0.0000 -0.3900 -0.9208
vn -0.0000 -0.3065 -0.9519
vn -0.0000 -0.4541 -0.8909
vn -0.0000 -0.3974 -0.9176
vn -0.0000 -0.3613 -0.9324
vn -0.0000 -0.4471 -0.8945
vn -0.0000 0.2592 -0.9658
vn -0.0000 0.2106 -0.9776
vn -0.0000 0.2606 -0.9655
vn -0.0000 0.2207 -0.9753
vn -0.0000 0.2958 -0.9552
vn -0.0000 0.2250 -0.9744
vn -0.0000 0.3247 -0.9458
vn -0.0000 0.3368 -0.9416
vn -0.0000 0.2689 -0.9632
vn -0.0000 0.1657 -0.9862
vn -0.0000 0.2515 -0.9679
vn -0.0000 0.3367 -0.9416
vn -0.0000 0.2691 -0.9631
vn -0.0000 -0.5803 -0.8144
vn -0.0000 -0.5171 -0.8559
vn -0.0000 -0.5247 -0.8513
vn -0.0000 -0.6347 -0.7727
vn -0.0000 -0.6640 -0.7478
vn -0.0000 -0.6357 -0.7719
vn -0.0000 -0.6175 -0.7866
vn -0.0000 -0.5999 -0.8001
vn -0.0000 -0.5495 -0.8355
vn -0.0000 -0.3709 -0.9287
vn -0.0000 -0.3817 -0.9243
vn -0.0000 -0.4681 -0.8837
vn -0.0000 -0.4123 -0.9110
vn -0.0000 -0.4682 -0.8836
vn -0.0000 -0.3278 -0.9447
vn -0.0000 -0.2543 -0.9671
vn -0.0000 -0.2690 -0.9631
vn -0.0000 -0.1375 -0.9905
vn -0.0000 -0.1172 -0.9931
vn -0.0000 -0.1871 -0.9823
vn 0.0001 -0.1304 -0.9915
vn -0.0000 -0.2595 -0.9658
vn -0.0000 -0.1870 -0.9824
vn -0.0000 -0.1703 -0.9854
vn -0.0000 -0.2618 -0.9651
vn -0.0000 -0.2974 -0.9547
vn -0.0000 -0.2615 -0.9652
vn -0.0000 -0.3379 -0.9412
vn -0.0000 -0.2582 -0.9661
vn -0.0000 -0.1701 -0.9854
vn -0.0000 -0.0992 -0.9951
vn -0.0000 0.4827 -0.8758
vn -0.0000 0.5463 -0.8376
vn -0.0000 0.4717 -0.8818
vn -0.0000 0.4857 -0.8741
vn -0.0000 -0.5860 -0.8103
vn 0.0002 -0.1546 -0.9880
vn -0.0001 -0.0741 -0.9973
vn -0.0000 -0.1204 -0.9927
vn -0.0000 -0.1543 -0.9880
vn -0.0000 -0.1568 -0.9876
vn -0.0000 -0.1045 -0.9945
vn -0.0000 0.0031 -1.0000
vn -0.0000 -0.0239 -0.9997
vn -0.0000 -0.0740 -0.9973
vn -0.0000 -0.0517 -0.9987
vn -0.0000 0.1535 -0.9882
vn -0.0000 0.0797 -0.9968
vn -0.0000 0.1072 -0.9942
vn -0.0000 0.1284 -0.9917
vn -0.0000 0.0014 -1.0000
vn -0.0000 0.0451 -0.9990
vn -0.0000 0.0043 -1.0000
vn -0.0000 0.0845 -0.9964
vn -0.0000 0.0044 -1.0000
vn 0.0001 0.0037 -1.0000
vn -0.0000 0.1084 -0.9941
vn -0.0000 -0.0752 -0.9972
vn -0.0000 0.1403 -0.9901
vn -0.0000 0.0992 -0.9951
vn -0.0000 -0.1427 -0.9898
vn -0.0000 -0.0519 -0.9987
vn -0.0000 -0.1947 -0.9809
vn -0.0001 -0.2115 -0.9774
vn -0.0000 -0.5089 -0.8608
vn -0.0000 -0.5559 -0.8313
vn -0.0000 -0.6394 -0.7688
vn -0.0000 -0.4624 -0.8867
vn -0.0000 -0.2036 -0.9791
vn -0.0000 0.6148 -0.7887
vn -0.0000 0.6304 -0.7763
vn -0.0000 0.5597 -0.8287
vn -0.0000 0.5836 -0.8121
vn -0.0000 0.4835 -0.8754
vn -0.0000 0.4411 -0.8975
vn -0.0000 0.5221 -0.8529
vn -0.0000 0.4397 -0.8981
vn -0.0000 0.5387 -0.8425
vn -0.0000 0.6103 -0.7922
vn -0.0000 0.4803 -0.8771
vn -0.0000 0.5170 -0.8560
vn -0.0000 0.2715 -0.9624
vn -0.0000 0.2752 -0.9614
vn -0.0000 0.0033 -1.0000
vn -0.0000 0.2459 -0.9693
vn -0.0000 0.4084 -0.9128
vn -0.0000 0.4880 -0.8728
vn -0.0000 0.3191 -0.9477
vn -0.0000 0.2090 -0.9779
vn -0.0000 -0.4789 -0.8779
vn -0.0000 -0.5559 -0.8312
vn -0.0000 -0.5827 -0.8127
vn -0.0000 -0.5506 -0.8348
vn -0.0000 -0.5558 -0.8313
vn -0.0000 -0.6123 -0.7906
vn -0.0000 -0.5861 -0.8103
vn -0.0000 0.0544 -0.9985
vn -0.0000 0.2107 -0.9776
vn -0.0000 0.1594 -0.9872
vn -0.0000 0.1073 -0.9942
vn -0.0000 0.0545 -0.9985
vn -0.0000 -0.0908 -0.9959
vn -0.0000 0.3994 -0.9168
vn -0.0000 0.3553 -0.9347
vn -0.0000 0.3090 -0.9511
vn -0.0000 0.4718 -0.8817
vn -0.0000 0.5513 -0.8343
vn -0.0000 0.5388 -0.8425
vn -0.0000 -0.6394 -0.7689
vn -0.0000 -0.4123 -0.9111
vn -0.0000 -0.3531 -0.9356
vn -0.0000 -0.2080 -0.9781
vn -0.0000 0.1535 -0.9881
vn -0.0000 0.3553 -0.9348
vn -0.0000 0.6126 -0.7904
vn -0.0000 0.5832 -0.8123
vn -0.0000 0.6125 -0.7905
vn -0.0000 0.5831 -0.8124
vn -0.0000 0.0525 -0.9986
vn -0.0000 0.3089 -0.9511
vn -0.0000 0.2606 -0.9654
vn -0.0000 -0.5182 -0.8553
vn -0.0000 -0.1567 -0.9877
vn -0.0000 -0.2581 -0.9661
vn -0.0000 -0.3530 -0.9356
vn -0.0000 -0.5160 -0.8566
vn -0.0000 -0.4541 -0.8910
vn -0.0000 -0.6639 -0.7478
vn -0.0000 0.0013 -1.0000
vn -0.0000 0.3848 -0.9230
vn -0.0000 -0.7843 -0.6204
vn -0.0000 -0.7626 -0.6469
vn -0.0000 -0.7655 -0.6434
vn -0.0000 -0.7887 -0.6148
vn -0.0000 -0.6774 -0.7356
vn -0.0000 -0.7036 -0.7106
vn -0.0000 -0.6730 -0.7396
vn -0.0000 -0.7033 -0.7109
vn -0.0000 -0.9024 -0.4310
vn -0.0000 -0.8890 -0.4578
vn -0.0000 -0.9001 -0.4356
vn -0.0000 -0.9168 -0.3993
vn -0.0000 -0.9062 -0.4229
vn -0.0000 -0.7841 -0.6207
vn -0.0000 -0.8017 -0.5978
vn -0.0000 -0.7876 -0.6162
vn -0.0002 -0.8457 -0.5337
vn -0.0001 -0.8660 -0.5001
vn -0.0000 -0.8558 -0.5172
vn -0.0000 -0.8351 -0.5500
vn -0.0000 -0.8559 -0.5172
vn -0.0000 -0.8796 -0.4756
vn -0.0000 -0.8978 -0.4405
vn -0.0000 -0.8835 -0.4684
vn -0.0000 -0.8800 -0.4750
vn -0.0000 -0.8352 -0.5500
vn -0.0000 -0.8753 -0.4835
vn 0.0001 -0.8558 -0.5174
vn -0.0001 -0.8657 -0.5006
vn -0.0000 -0.8658 -0.5004
vn 0.0001 -0.8352 -0.5500
vn -0.0000 -0.8508 -0.5255
vn -0.0001 -0.8243 -0.5661
vn -0.0000 -0.8087 -0.5883
vn -0.0001 -0.8351 -0.5500
vn -0.0000 -0.8131 -0.5821
vn -0.0000 -0.8351 -0.5501
vn -0.0000 -0.8658 -0.5005
vn -0.0000 -0.8422 -0.5392
vn -0.0000 -0.8243 -0.5662
vn -0.0000 -0.8016 -0.5978
vn -0.0000 -0.8094 -0.5873
vn -0.0000 -0.8089 -0.5879
vn -0.0000 -0.8017 -0.5977
vn -0.0000 -0.7899 -0.6133
vn -0.0000 -0.7654 -0.6435
vn -0.0000 -0.7705 -0.6374
vn -0.0000 -0.8860 -0.4636
vn -0.0000 -0.8869 -0.4620
vn -0.0001 -0.8936 -0.4489
vn -0.0000 -0.7610 -0.6487
vn -0.0000 -0.7583 -0.6519
vn -0.0001 -0.7360 -0.6770
vn -0.0000 -0.7175 -0.6966
vn -0.0000 -0.7359 -0.6771
vn -0.0000 -0.7269 -0.6868
vn -0.0000 -0.7267 -0.6869
vn -0.0000 -0.7464 -0.6655
vn -0.0000 -0.8008 -0.5990
vn -0.0000 -0.8188 -0.5741
vn -0.0000 -0.8997 -0.4366
vn -0.0000 -0.9181 -0.3964
vn -0.0000 -0.6991 -0.7150
vn -0.0000 -0.6798 -0.7334
vn -0.0000 -0.6822 -0.7312
vn -0.0000 -0.7340 -0.6791
vn -0.0000 -0.7065 -0.7077
vn -0.0000 -0.7613 -0.6484
vn -0.0000 -0.7464 -0.6654
vn -0.0000 -0.7131 -0.7011
vn -0.0000 -0.7471 -0.6647
vn -0.0000 -0.7886 -0.6150
vn -0.0000 -0.7839 -0.6208
vn -0.0000 -0.6952 -0.7188
vn -0.0000 -0.7367 -0.6762
vn -0.0000 -0.9061 -0.4230
vn -0.0000 -0.8934 -0.4492
vn -0.0000 -0.9194 -0.3934
vn -0.0000 -0.9292 -0.3695
vn -0.0000 -0.9168 -0.3994
vn -0.0000 -0.7840 -0.6208
vn -0.0000 -0.8797 -0.4756
vn -0.0000 -0.7885 -0.6150
vn -0.0000 -0.6855 -0.7281
vn -0.0000 -0.6852 -0.7284
vn -0.0000 -0.6840 -0.7295
vn -0.0000 -0.6851 -0.7284
vn -0.0000 -0.7465 -0.6654
vn -0.0000 -0.6822 -0.7311
vn -0.0000 -0.7131 -0.7010
vn -0.0000 -0.6687 -0.7435
vn -0.0000 -0.6731 -0.7396
vn -0.0000 -0.6855 -0.7280
vn -0.0000 -0.6689 -0.7434
vn -0.0000 -0.6767 -0.7362
vn -0.0000 -0.7064 -0.7078
vn -0.0000 -0.8188 -0.5740
vn -0.0000 -0.8935 -0.4491
vn -0.0000 -0.9293 -0.3694
vn -0.0000 -0.8008 -0.5989
vn -0.0000 -0.6823 -0.7311
vn -0.0000 -0.7839 -0.6209
vn -0.0000 -0.6774 -0.7357
vn -0.0000 -0.6688 -0.7434
vn 0.0001 -0.6731 -0.7395
vn -0.0000 -0.7035 -0.7107
vn -0.0000 -0.8559 -0.5171
s 1
usemtl Diffuse_51_51_51_100.020
f 1//1 2//1 3//1
f 1//1 3//1 4//1
f 1//1 4//1 5//1
f 1//1 5//1 6//1
f 7//1 1//1 8//1
f 1//1 6//1 8//1
f 9//1 1//1 7//1
f 10//1 1//1 9//1
f 10//1 11//1 1//1
f 11//1 12//1 1//1
f 12//1 13//1 1//1
f 13//1 14//1 1//1
f 14//1 15//1 1//1
s 0
f 1//1 16//1 17//1
s 1
f 18//1 2//1 1//1
f 19//1 2//1 18//1
f 19//1 18//1 20//1
f 19//1 20//1 21//1
f 20//1 22//1 21//1
f 22//1 23//1 21//1
f 24//1 23//1 22//1
f 25//1 23//1 24//1
f 25//1 24//1 26//1
f 25//1 26//1 27//1
f 26//1 28//1 27//1
f 28//1 29//1 27//1
f 30//1 29//1 28//1
f 31//1 29//1 30//1
f 32//1 31//1 33//1
f 31//1 30//1 33//1
f 32//1 33//1 34//1
f 35//1 36//1 37//1
f 36//1 38//1 37//1
f 39//1 40//2 41//1
f 40//2 42//3 41//1
f 42//3 43//1 41//1
f 43//1 44//1 41//1
f 45//2 44//1 46//1
f 47//3 44//1 45//2
f 43//1 46//1 44//1
f 48//1 46//1 43//1
f 49//1 46//1 48//1
f 50//1 49//1 48//1
f 47//3 51//1 44//1
f 49//1 50//1 35//1
f 50//1 36//1 35//1
f 38//1 32//1 34//1
f 38//1 34//1 37//1
s 0
f 16//1 1//1 15//1
s 1
f 52//4 53//4 54//4
f 52//4 54//4 55//4
f 52//4 55//4 56//4
f 52//4 56//4 57//4
f 58//4 59//4 57//4
f 60//4 61//4 59//4
f 62//4 61//4 60//4
f 63//4 64//4 62//4
f 65//4 64//4 63//4
f 66//4 65//4 67//4
f 66//4 67//4 68//4
f 69//4 68//4 70//4
f 71//4 70//4 72//4
f 71//4 72//4 73//4
f 74//4 75//4 76//4
f 77//4 74//4 78//4
f 77//4 78//4 79//4
f 80//4 81//4 82//4
f 81//4 79//4 82//4
f 83//4 82//4 84//4
s 0
f 82//4 85//4 86//4
f 82//5 86//4 87//4
s 1
f 88//4 82//4 89//4
f 88//4 90//4 82//4
f 90//4 91//4 82//4
f 82//4 92//4 93//4
f 82//4 93//4 94//4
f 82//4 94//4 95//4
f 82//4 95//4 96//4
f 84//4 82//4 97//4
f 82//4 96//4 97//4
f 91//4 92//4 82//4
f 89//4 82//4 87//4
f 83//4 80//4 82//4
f 79//4 81//4 77//4
f 76//4 78//4 74//4
f 98//4 76//4 75//4
f 98//4 75//4 73//4
f 98//4 73//4 72//4
f 70//4 71//4 69//4
f 68//4 69//4 66//4
f 63//4 67//4 65//4
f 60//4 59//4 58//4
f 61//4 62//4 64//4
f 99//4 57//4 100//4
f 101//4 99//4 102//4
f 58//4 57//4 56//4
f 57//4 99//4 52//4
f 100//4 102//4 99//4
f 103//6 104//6 105//6
f 106//6 107//6 108//6
f 109//6 110//6 111//7
f 105//7 112//6 109//6
f 111//6 113//6 114//6
f 115//8 116//9 117//1
f 118//10 119//11 115//8
f 120//12 118//10 121//13
f 120//12 121//13 122//14
f 123//15 122//14 124//16
f 123//15 124//16 125//17
f 125//17 126//18 127//19
f 126//18 128//20 127//19
f 128//20 129//21 130//22
f 129//21 131//23 130//22
f 132//24 133//25 131//23
f 134//26 133//25 132//24
f 135//27 136//28 134//26
f 137//29 136//28 135//27
f 138//30 137//29 139//31
f 140//32 141//33 142//34
f 141//33 143//34 142//34
f 144//35 141//33 140//32
f 144//35 140//32 145//36
f 144//35 145//36 146//37
f 146//37 145//36 147//38
f 146//37 147//38 148//39
f 147//38 138//30 148//39
f 138//30 139//31 148//39
f 137//29 135//27 139//31
f 136//28 133//25 134//26
f 132//24 131//23 129//21
f 128//20 130//22 127//19
f 123//15 120//12 122//14
f 124//16 126//18 125//17
f 116//9 115//8 119//11
f 149//40 117//1 116//9
f 150//41 117//1 149//40
f 151//42 150//41 149//40
f 152//43 150//41 151//42
f 152//43 153//44 154//45
f 153//44 155//46 154//45
f 156//47 157//48 155//46
f 158//49 156//47 159//50
f 158//49 160//51 161//52
f 162//53 163//54 161//52
f 164//55 163//54 165//56
f 166//57 167//58 168//59
f 169//60 166//57 170//61
f 167//58 171//62 168//59
f 172//63 173//64 174//65
f 172//63 174//65 175//66
f 173//64 176//67 177//68
f 176//67 178//69 177//68
f 178//69 179//70 177//68
f 180//71 181//72 179//70
f 181//72 180//71 182//73
f 181//72 182//73 183//74
f 183//74 184//75 185//76
f 184//75 186//77 185//76
f 186//77 187//78 185//76
f 187//78 188//79 189//80
f 188//79 190//81 189//80
f 191//82 190//81 188//79
f 192//83 193//84 191//82
f 194//85 193//84 192//83
f 194//85 192//83 195//86
f 166//57 164//55 170//61
f 196//87 194//85 197//88
f 165//56 163//54 162//53
f 198//89 196//87 199//90
f 196//87 197//88 199//90
f 200//91 198//89 201//92
f 161//52 160//51 162//53
f 200//91 201//92 202//93
f 160//51 158//49 159//50
f 203//94 200//91 204//95
f 156//47 158//49 157//48
f 203//94 204//95 205//96
f 154//45 155//46 157//48
f 203//94 205//96 206//97
f 153//44 152//43 151//42
f 175//66 168//59 171//62
f 207//98 208//99 206//97
f 207//98 209//100 208//99
f 209//100 210//101 211//102
f 210//101 212//103 211//102
f 213//104 212//103 210//101
f 214//105 215//106 212//103
f 216//107 215//106 214//105
f 217//108 218//109 216//107
f 219//110 218//109 217//108
f 220//111 219//110 221//112
f 220//111 221//112 222//113
f 223//114 220//111 224//115
f 223//114 224//115 225//116
f 226//117 225//116 227//118
f 228//119 229//120 230//121
f 228//119 230//121 231//122
f 232//123 233//124 234//125
f 235//126 228//119 236//127
f 237//128 238//129 239//130
f 240//131 241//132 242//133
f 243//134 244//135 245//136
f 246//137 247//138 248//139
f 249//140 250//141 251//142
f 252//143 253//144 254//145
f 255//146 256//147 257//148
f 258//149 259//150 256//147
f 259//150 260//151 261//152
f 260//151 262//153 263//154
f 262//153 264//155 265//156
f 264//155 266//157 267//158
f 198//89 199//90 201//92
f 197//88 194//85 195//86
f 143//34 268//159 142//34
f 269//160 268//159 143//34
f 270//161 268//159 269//160
f 270//161 269//160 267//158
f 264//155 267//158 265//156
f 262//153 265//156 263//154
f 260//151 263//154 261//152
f 259//150 261//152 256//147
f 258//149 256//147 255//146
f 255//146 257//148 252//143
f 257//148 253//144 252//143
f 253//144 250//141 254//145
f 250//141 249//140 254//145
f 251//142 271//162 249//140
f 272//163 271//162 251//142
f 272//163 251//142 248//139
f 272//163 248//139 247//138
f 247//138 246//137 273//164
f 246//137 274//165 273//164
f 274//165 243//134 273//164
f 244//135 243//134 274//165
f 275//166 245//136 244//135
f 275//166 244//135 276//167
f 275//166 276//167 277//168
f 276//167 241//132 277//168
f 241//132 240//131 277//168
f 242//133 278//169 240//131
f 279//170 278//169 242//133
f 280//171 278//169 279//170
f 280//171 279//170 238//129
f 279//170 239//130 238//129
f 239//130 281//172 237//128
f 281//172 282//173 237//128
f 283//174 282//173 281//172
f 284//175 282//173 283//174
f 284//175 283//174 234//125
f 284//175 234//125 233//124
f 234//125 285//176 232//123
f 285//176 286//177 232//123
f 287//178 286//177 285//176
f 288//179 286//177 287//178
f 288//179 287//178 289//180
f 288//179 289//180 290//181
f 289//180 235//126 290//181
f 235//126 236//127 290//181
f 226//117 227//118 229//120
f 231//122 236//127 228//119
f 227//118 230//121 229//120
f 223//114 225//116 226//117
f 220//111 222//113 224//115
f 219//110 217//108 221//112
f 218//109 215//106 216//107
f 214//105 212//103 213//104
f 209//100 211//102 208//99
f 205//96 207//98 206//97
f 200//91 202//93 204//95
f 270//161 267//158 266//157
f 190//81 191//82 193//84
f 189//80 185//76 187//78
f 184//75 183//74 182//73
f 178//69 180//71 179//70
f 174//65 173//64 177//68
f 175//66 171//62 172//63
f 167//58 166//57 169//60
f 121//13 118//10 115//8
f 165//56 170//61 164//55
f 291//182 292//182 293//182
f 294//182 295//182 296//182
f 297//183 298//183 299//182
f 300//182 297//182 301//182
f 298//183 291//183 302//182
f 303//184 304//184 305//184
f 306//184 307//184 308//184
f 309//184 310//184 311//184
f 312//184 313//184 314//184
f 315//184 316//184 317//184
f 318//184 319//184 320//184
f 321//184 322//184 323//184
f 324//184 325//184 326//184
f 327//184 328//184 329//184
f 330//184 331//184 332//184
f 333//184 334//184 335//184
f 336//184 337//184 338//184
f 339//184 340//184 341//184
f 342//184 343//184 344//184
f 345//184 346//184 347//184
f 348//184 349//184 350//184
f 351//184 352//184 353//184
f 354//184 355//184 356//184
f 357//184 358//184 359//184
f 360//184 361//184 362//184
f 363//184 364//184 365//184
f 366//184 367//184 368//184
f 369//184 370//184 371//184
f 372//184 373//184 374//184
f 375//184 376//184 377//184
f 378//184 379//184 380//184
f 381//184 382//184 383//184
f 384//184 385//184 386//184
f 387//184 388//184 389//184
f 390//184 391//184 392//184
f 393//184 394//184 395//184
f 396//184 397//184 398//184
f 399//184 400//184 401//184
f 402//184 403//184 404//184
f 405//184 406//184 407//184
f 408//184 409//184 410//184
f 411//184 412//184 413//184
f 414//184 415//184 416//184
f 417//184 418//184 419//184
f 420//184 421//184 422//184
f 423//184 424//184 425//184
f 426//184 427//184 428//184
f 429//185 430//185 431//185
f 432//184 433//184 434//184
f 435//184 436//184 437//184
f 438//184 439//184 440//184
f 441//184 442//184 443//184
f 444//184 445//184 446//184
f 447//184 448//184 449//184
f 450//184 451//184 452//184
f 453//184 454//184 455//184
f 456//184 457//184 458//184
f 459//184 460//184 461//184
f 462//184 463//184 464//184
f 465//184 466//184 467//184
f 468//184 469//184 470//184
f 471//184 472//184 473//184
f 474//184 475//184 476//184
f 477//184 478//184 479//184
f 480//186 481//186 482//186
f 483//184 484//184 485//184
f 486//184 487//184 488//184
f 489//184 490//184 491//184
f 492//184 493//184 494//184
f 495//184 496//184 497//184
f 498//184 499//184 500//184
f 501//184 502//184 503//184
f 504//184 505//184 506//184
f 507//184 508//184 509//184
f 510//184 511//184 512//184
f 513//184 514//184 515//184
f 516//184 517//184 518//184
f 519//184 520//184 521//184
f 522//184 523//184 524//184
f 525//184 526//184 527//184
f 528//184 529//184 530//184
f 531//184 532//184 533//184
f 534//184 535//184 536//184
f 537//184 538//184 539//184
f 540//184 541//184 542//184
f 543//184 544//184 545//184
f 546//184 547//184 548//184
f 549//184 550//184 551//184
f 552//184 553//184 554//184
f 555//187 556//188 557//189
f 555//187 558//190 556//188
f 559//191 560//192 561//193
f 559//191 562//194 563//195
f 564//196 565//197 566//198
f 564//196 562//194 567//199
f 564//196 567//199 568//200
f 562//194 561//193 569//201
f 570//202 563//195 571//203
f 570//202 558//190 560//192
f 570//202 571//203 556//188
f 563//195 572//204 571//203
f 569//201 561//193 573//205
f 569//201 567//199 562//194
f 574//206 575//207 576//208
f 574//206 577//209 575//207
f 578//210 579//211 580//212
f 578//210 581//213 582//214
f 583//215 584//216 585//205
f 583//215 580//212 586//217
f 580//212 587//218 586//217
f 580//212 579//211 587//218
f 579//211 588//219 589//220
f 579//189 590//214 591//221
f 592//222 593//223 594//224
f 592//222 595//225 596//226
f 597//227 598//228 599//229
f 597//227 600//230 598//228
f 594//224 601//225 592//222
f 594//224 602//231 603//232
f 604//233 605//234 606//231
f 604//233 575//207 607//235
f 605//234 588//219 608//236
f 605//234 607//235 588//219
f 592//222 596//226 593//223
f 595//225 557//189 609//225
f 596//226 610//237 593//223
f 596//226 609//225 611//238
f 611//238 589//220 588//219
f 611//238 609//225 589//220
f 589//220 587//218 579//211
f 589//220 609//225 612//239
f 557//189 613//240 612//239
f 557//189 556//188 613//240
f 612//239 609//225 557//189
f 612//239 614//241 587//218
f 614//241 615//242 586//217
f 614//241 613//240 571//203
f 600//230 593//223 616//243
f 594//224 597//227 617//244
f 618//245 577//209 619//246
f 618//245 607//235 575//207
f 577//209 574//206 620//247
f 618//245 619//246 610//237
f 621//248 622//249 623//250
f 621//248 619//246 622//249
f 616//243 593//223 610//237
f 616//243 598//228 600//230
f 568//200 567//199 624//251
f 568//200 625//252 565//197
f 558//190 601//225 626//221
f 601//225 555//187 595//225
f 559//191 561//193 562//194
f 560//192 627//214 628//253
f 562//194 564//196 563//195
f 566//198 629//254 572//204
f 291//183 620//247 630//249
f 291//183 298//183 620//247
f 620//247 574//206 631//208
f 620//247 298//183 622//249
f 604//233 607//235 605//234
f 575//207 577//209 618//245
f 297//183 623//250 298//183
f 623//250 598//228 621//248
f 623//250 297//183 632//249
f 633//255 584//216 634//256
f 633//255 635//257 636//258
f 629//254 615//242 572//204
f 629//254 634//256 584//216
f 586//217 587//218 614//241
f 637//213 578//210 638//259
f 633//255 634//256 639//260
f 584//216 586//217 629//254
f 640//261 569//262 641//263
f 572//204 564//196 566//198
f 571//203 572//204 615//242
f 570//202 556//188 558//190
f 568//200 565//197 564//196
f 625//252 642//252 565//197
f 563//195 564//196 572//204
f 565//197 643//252 634//256
f 571//203 615//242 614//241
f 566//198 565//197 634//256
f 621//248 616//243 619//246
f 598//228 644//208 645//229
f 577//209 622//249 619//246
f 620//247 622//249 577//209
f 610//237 619//246 616//243
f 610//237 596//226 611//238
f 584//216 583//215 586//217
f 611//238 607//235 610//237
f 588//219 607//235 611//238
f 607//235 618//245 610//237
f 597//227 593//223 600//230
f 595//225 555//187 557//189
f 598//228 616//243 621//248
f 592//222 601//225 595//225
f 595//225 609//225 596//226
f 589//220 612//239 587//218
f 586//217 615//242 629//254
f 614//241 612//239 613//240
f 569//262 646//264 647//263
f 560//192 559//191 570//202
f 601//225 558//190 555//187
f 556//188 571//203 613//240
f 634//256 648//265 649//266
f 650//251 651//267 568//200
f 652//244 653//268 604//233
f 623//250 622//249 298//183
f 654//221 655//225 579//189
f 656//219 601//225 594//224
f 657//260 633//255 658//267
f 659//259 561//269 660//270
f 661//265 662//267 663//271
f 664//272 665//252 666//267
f 667//266 668//267 669//273
f 670//273 671//267 672//251
f 633//255 673//273 674//251
f 633//255 675//258 676//273
f 677//274 678//275 633//255
f 679//276 633//255 680//277
f 681//205 682//259 583//278
f 683//214 579//211 578//210
f 583//215 578//210 580//212
f 684//205 561//269 685//259
f 588//219 579//211 686//219
f 563//195 570//202 559//191
f 687//260 634//256 688//279
f 689//279 634//256 690//257
f 691//267 692//252 568//280
f 693//258 694//281 634//256
f 695//275 696//205 584//216
f 629//254 566//198 634//256
f 634//256 697//252 698//265
f 699//266 700//273 634//256
f 568//200 701//252 625//252
f 702//258 634//256 703//273
f 704//251 567//199 569//201
f 705//267 633//255 706//260
f 707//232 708//231 605//224
f 558//190 709//221 560//192
f 710//219 711//232 605//224
f 712//214 560//192 713//221
f 604//233 714//231 715//244
f 716//219 594//282 717//232
f 718//249 719//208 623//250
f 720//283 721//249 297//182
f 623//250 722//284 598//228
f 723//244 597//227 724//229
f 291//182 725//249 726//283
f 727//244 728//231 594//224
f 729//249 620//247 730//284
f 593//223 597//227 594//224
f 731//229 732//284 575//207
f 604//233 733//229 575//207
f 734//221 601//225 735//219
f 736//270 561//193 560//192
f 737//285 633//255 738//260
f 633//255 739//263 584//216
f 740//267 741//252 742//252
f 578//210 583//215 743//259
f 744//252 745//252 746//286
f 747//287 748//288 749//289
f 750//290 751//291 752//292
f 753//290 754//293 755//291
f 756//291 757//294 758//295
f 759//296 760//291 761//297
f 762//298 763//299 764//300
f 765//301 766//302 767//299
f 768//303 769//304 770//305
f 771//306 772//307 773//308
f 774//307 775//309 776//310
f 777//311 778//312 779//313
f 780//313 781//312 782//314
f 783//315 784//313 785//316
f 786//317 787//315 788//318
f 789//319 790//317 791//320
f 792//321 793//322 794//323
f 795//324 796//324 797//325
f 798//325 799//324 800//326
f 801//326 802//324 803//327
f 804//328 805//326 806//329
f 807//330 808//331 809//327
f 810//332 811//330 812//327
f 813//333 814//334 815//335
f 816//333 817//336 818//334
f 819//333 820//337 821//336
f 822//333 823//338 824//337
f 825//337 826//339 827//340
f 828//341 829//322 830//342
f 831//340 832//341 833//343
f 834//342 835//323 836//322
f 837//344 838//345 839//346
f 840//347 841//344 842//348
f 843//349 844//347 845//350
f 846//351 847//352 848//347
f 849//353 850//354 851//350
f 852//317 853//319 854//355
f 855//318 856//320 857//317
f 858//316 859//318 860//356
f 861//314 862//357 863//313
f 864//358 865//311 866//309
f 867//310 868//359 869//307
f 870//308 871//304 872//360
f 873//359 874//361 875//362
f 876//305 877//299 878//303
f 879//299 880//298 881//301
f 882//347 883//352 884//344
f 885//343 886//363 887//364
f 888//365 889//366 890//367
f 888//365 891//368 889//366
f 892//369 893//370 894//371
f 892//369 895//372 896//373
f 892//369 896//373 893//370
f 895//372 897//374 898//375
f 899//376 898//375 900//377
f 899//376 901//378 896//373
f 898//375 897//374 900//377
f 898//375 896//373 895//372
f 902//379 903//380 904//381
f 902//379 905//382 906//383
f 907//384 908//385 909//386
f 907//384 910//387 908//385
f 911//388 912//389 913//390
f 911//388 914//391 915//392
f 912//389 916//393 913//390
f 912//389 915//392 917//394
f 918//395 919//396 920//397
f 918//395 921//398 922//399
f 921//398 923//400 924//401
f 921//398 925//402 926//403
f 927//404 928//405 929//406
f 927//404 891//368 930//407
f 931//408 932//409 933//410
f 931//408 934//411 935//412
f 905//413 936//313 937//315
f 905//382 932//409 938//311
f 932//409 904//381 939//414
f 905//413 940//311 941//313
f 934//415 942//359 943//416
f 934//411 894//371 944//308
f 945//417 946//418 947//419
f 945//417 948//420 917//394
f 945//417 917//394 946//418
f 948//420 949//421 950//422
f 951//423 949//421 952//424
f 951//423 950//422 949//421
f 917//394 915//392 946//418
f 917//394 950//422 916//393
f 948//420 950//422 917//394
f 917//394 916//393 912//389
f 953//425 951//423 952//424
f 954//388 955//426 956//427
f 954//388 957//428 926//403
f 958//429 959//430 908//385
f 958//429 960//339 959//430
f 961//431 962//432 963//433
f 961//431 908//385 910//387
f 964//434 965//353 966//435
f 964//434 967//436 968//437
f 967//436 969//438 970//439
f 967//436 971//440 972//441
f 973//442 955//426 925//402
f 973//442 974//443 975//444
f 974//443 970//439 969//438
f 974//443 976//445 977//446
f 970//439 968//437 967//436
f 970//439 977//446 978//447
f 979//448 980//449 981//450
f 979//448 893//370 982//451
f 947//419 983//452 945//417
f 947//419 959//430 984//333
f 985//453 986//454 987//455
f 985//456 988//457 989//458
f 986//454 990//459 991//460
f 986//461 992//458 993//462
f 994//463 995//464 996//465
f 994//463 930//407 997//466
f 995//464 990//459 998//467
f 995//464 997//466 999//468
f 1000//469 1001//470 1002//471
f 1000//469 1003//472 1004//473
f 1005//474 968//437 978//447
f 1005//474 1002//471 965//353
f 1001//470 1006//475 1007//476
f 1001//470 1004//473 1006//475
f 1008//477 1009//478 1010//350
f 1008//477 1011//479 966//435
f 1008//477 966//435 1009//478
f 1011//479 1012//480 966//435
f 975//444 956//427 955//426
f 975//444 969//438 909//386
f 991//460 999//468 1003//472
f 991//460 987//455 986//454
f 999//468 997//466 1004//473
f 999//468 990//459 995//464
f 953//425 957//428 913//390
f 953//425 952//424 1013//481
f 926//403 925//402 955//426
f 926//403 1013//481 923//400
f 1013//481 952//424 1014//482
f 1013//481 957//428 953//425
f 1013//481 1014//482 923//400
f 952//424 1015//324 1016//483
f 1017//484 908//385 959//430
f 1017//484 915//392 914//391
f 945//417 983//452 948//420
f 946//418 959//430 947//419
f 918//395 925//402 921//398
f 920//397 1018//485 976//445
f 1018//485 987//455 977//446
f 1018//485 919//396 985//453
f 894//371 981//450 1019//305
f 894//371 933//410 892//369
f 981//450 980//449 1020//299
f 981//450 893//370 979//448
f 909//386 914//391 956//427
f 909//386 972//441 907//384
f 911//388 915//392 912//389
f 914//391 908//385 1017//484
f 1021//486 980//449 1022//487
f 1021//486 1023//252 1024//291
f 1021//486 1022//487 1025//252
f 980//449 982//451 1026//488
f 1022//487 1026//488 1027//489
f 980//449 1021//486 1028//300
f 1029//490 889//366 1030//491
f 1029//490 1031//492 1032//493
f 1033//494 1034//495 1031//492
f 1033//494 1035//496 1036//497
f 978//447 977//446 987//455
f 978//447 968//437 970//439
f 977//446 976//445 1018//485
f 975//444 974//443 969//438
f 980//449 1026//488 1022//487
f 982//451 901//378 1026//488
f 1004//473 1037//313 1006//475
f 1004//473 1003//472 999//468
f 1037//313 1038//498 1039//499
f 1037//313 997//466 930//407
f 964//434 971//440 967//436
f 965//353 1040//500 966//435
f 967//436 972//441 969//438
f 971//440 966//435 1012//480
f 1041//501 1006//475 1037//313
f 1041//501 900//377 897//374
f 899//376 1042//502 1043//503
f 900//377 1039//499 1044//504
f 890//367 1032//493 1042//502
f 890//367 1038//498 888//365
f 1032//493 1031//492 1043//503
f 1032//493 889//366 1029//490
f 1012//480 907//384 972//441
f 910//387 962//432 961//431
f 1012//480 1011//479 962//432
f 1012//480 972//441 971//440
f 1044//504 1039//499 1038//498
f 1044//504 1042//502 900//377
f 1045//505 897//374 939//414
f 1045//505 1007//476 1006//475
f 1007//476 1040//500 1002//471
f 1007//476 904//381 903//380
f 927//404 930//407 994//463
f 930//407 888//365 1038//498
f 994//463 997//466 995//464
f 930//407 1038//498 1037//313
f 1009//478 903//380 1046//317
f 1009//478 966//435 1040//500
f 902//379 904//381 932//409
f 903//380 1040//500 1007//476
f 923//400 1014//482 1047//506
f 1013//481 926//403 957//428
f 1014//507 1048//508 1049//509
f 1014//510 1050//511 1051//508
f 1045//505 904//381 1007//476
f 931//408 933//410 894//371
f 1043//503 1042//502 1032//493
f 1043//503 901//378 899//376
f 1027//489 625//288 1022//487
f 1027//489 1031//492 1034//495
f 1033//494 1031//492 1029//490
f 1034//495 625//288 1027//489
f 1042//502 899//376 900//377
f 895//372 892//369 933//410
f 896//373 982//451 893//370
f 1026//488 1043//503 1027//489
f 894//371 893//370 981//450
f 933//410 939//414 895//372
f 1017//484 946//418 915//392
f 959//430 1052//339 1053//333
f 983//512 1054//327 1055//421
f 959//430 946//418 1017//484
f 913//390 916//393 953//425
f 911//388 956//427 914//391
f 975//444 955//426 973//442
f 955//426 954//388 926//403
f 962//432 1011//479 1008//477
f 1012//480 910//387 907//384
f 962//432 910//387 1012//480
f 975//444 909//386 956//427
f 908//385 914//391 909//386
f 956//427 911//388 913//390
f 918//395 920//397 925//402
f 925//402 920//397 976//445
f 923//400 921//398 926//403
f 925//402 976//445 973//442
f 951//423 953//425 916//393
f 957//428 954//388 913//390
f 978//447 991//460 1003//472
f 995//464 1056//467 1057//513
f 964//434 968//437 965//353
f 976//445 974//443 973//442
f 1009//478 1040//500 903//380
f 1005//474 965//353 968//437
f 966//435 971//440 964//434
f 972//441 909//386 969//438
f 919//396 1018//485 920//397
f 1005//474 978//447 1000//469
f 954//388 956//427 913//390
f 974//443 977//446 970//439
f 1003//472 1000//469 978//447
f 1002//471 1040//500 965//353
f 1002//471 1005//474 1000//469
f 1058//514 994//463 1059//515
f 1000//469 1004//473 1001//470
f 1060//516 995//464 1061//517
f 1041//501 1045//505 1006//475
f 902//379 932//409 905//382
f 1007//476 1002//471 1001//470
f 1062//347 1008//477 1063//518
f 1045//505 1041//501 897//374
f 1032//493 890//367 889//366
f 899//376 896//373 898//375
f 1064//412 932//409 931//408
f 900//377 1041//501 1039//499
f 1065//315 903//380 902//379
f 1044//504 890//367 1042//502
f 889//366 891//368 1066//519
f 1037//313 1039//499 1041//501
f 1067//520 891//368 1068//521
f 1027//489 1043//503 1031//492
f 1069//305 981//522 1070//299
f 901//378 1043//503 1026//488
f 1071//523 1033//524 1072//497
f 1073//327 983//452 1074//333
f 1075//511 952//424 1076//525
f 1077//343 1078//339 958//526
f 1079//401 1080//527 921//398
f 939//414 904//381 1045//505
f 1081//528 985//453 919//396
f 982//451 896//373 901//378
f 1082//465 1083//515 994//529
f 1022//487 625//288 1084//292
f 1085//530 1086//519 891//368
f 1087//286 1088//252 1034//495
f 1034//495 1089//252 625//288
f 1090//531 1091//286 1034//495
f 1092//532 1093//533 1034//495
f 1033//494 1094//534 1034//495
f 1033//494 1095//523 1096//532
f 1044//504 1038//498 890//367
f 1029//490 1097//491 1033//494
f 1033//494 1098//491 1099//496
f 889//366 1100//519 1101//491
f 888//365 930//407 891//368
f 903//535 1102//315 1103//317
f 1037//313 1004//473 997//466
f 897//374 895//372 939//414
f 927//404 1104//536 891//368
f 927//404 1105//537 1106//536
f 1107//350 1009//478 1108//317
f 1109//514 927//404 994//463
f 1110//346 962//432 1111//347
f 991//460 978//447 987//455
f 962//432 1008//477 1112//347
f 1018//485 985//453 987//455
f 1113//343 961//431 1114//323
f 990//459 986//454 1115//467
f 947//419 1116//538 983//452
f 986//454 985//453 1117//458
f 961//431 1118//343 958//429
f 1119//539 985//456 1120//528
f 961//431 958//429 908//385
f 1121//540 918//395 1122//399
f 948//420 1123//421 949//421
f 1124//324 952//424 949//421
f 1125//541 1126//399 921//398
f 952//424 1127//511 1014//482
f 951//423 916//393 950//422
f 1128//509 1129//542 1014//510
f 1014//510 1130//542 1131//506
f 1132//388 923//400 1133//506
f 1134//388 1135//401 923//543
f 1136//544 948//420 983//452
f 918//395 1137//540 919//396
f 1138//540 1139//528 919//396
f 1140//462 1141//545 986//461
f 999//468 991//460 990//459
f 932//409 939//414 933//410
f 979//448 982//451 980//449
f 1142//291 1143//299 980//449
f 1144//361 1145//359 894//546
f 931//408 894//371 934//411
f 1146//547 1147//548 1148//549
f 1146//547 1149//550 1147//548
f 1150//551 1151//552 1152//553
f 1150//551 949//324 1153//554
f 1154//555 1155//556 1156//557
f 1154//555 1157//558 1158//559
f 1159//560 1160//561 1161//562
f 1159//560 1149//550 1160//561
f 1162//563 1163//564 1164//565
f 1162//563 1165//566 1166//567
f 1167//568 1168//569 1169//570
f 1167//568 1166//567 1170//571
f 1166//567 1165//566 1171//572
f 1166//567 1163//564 1162//563
f 1172//573 1173//574 1174//575
f 1172//573 1175//571 1176//576
f 1173//574 1177//577 1174//575
f 1173//565 1178//576 1179//578
f 1180//579 1160//561 1181//580
f 1180//579 1182//581 1183//582
f 1182//581 1164//565 1184//583
f 1182//581 1180//579 1162//563
f 1164//565 1185//584 1186//585
f 1164//565 1163//564 1185//584
f 1186//585 1187//586 1184//583
f 1186//585 1174//575 1177//577
f 1187//586 1188//587 1189//588
f 1187//586 1177//577 1190//589
f 1183//582 1191//590 1160//561
f 1183//582 1184//583 1189//588
f 1189//588 1184//583 1187//586
f 1189//588 1191//590 1183//582
f 1192//591 1193//592 1161//562
f 1192//591 1188//587 1194//593
f 1167//568 1163//564 1166//567
f 1169//570 1195//594 1163//564
f 1196//595 1156//557 1155//556
f 1196//595 1197//596 1156//557
f 1196//595 1155//556 1174//575
f 1156//557 1157//558 1154//555
f 1198//597 1161//562 1199//598
f 1198//597 1200//599 1147//548
f 1200//599 1201//600 1202//601
f 1200//599 1203//602 1153//554
f 1202//601 1147//548 1200//599
f 1202//601 1204//603 1205//604
f 1181//580 1165//566 1180//579
f 1181//580 1206//605 1207//606
f 1149//550 1146//547 1206//605
f 1198//597 1159//560 1161//562
f 1208//607 1209//608 1197//596
f 1208//607 1195//594 1168//569
f 1195//594 1169//570 1168//569
f 1195//594 1197//596 1185//584
f 1210//609 1211//610 1212//611
f 1210//609 1213//612 1214//613
f 1213//612 1215//614 1216//615
f 1213//612 1217//616 1218//617
f 1190//589 1177//577 1219//606
f 1190//589 1188//587 1187//586
f 1220//618 1215//614 1194//593
f 1220//618 1221//590 1222//619
f 1223//620 949//324 1224//324
f 1223//620 1153//554 949//324
f 1161//562 1191//590 1192//591
f 1161//562 1160//561 1191//590
f 1153//554 1223//620 1201//600
f 1153//554 1203//602 1151//552
f 1203//602 1199//598 1225//621
f 1149//550 1159//560 1147//548
f 1225//621 1151//552 1203//602
f 1225//621 1218//617 1217//616
f 1194//593 1188//587 1220//618
f 1194//593 1218//617 1193//592
f 1225//621 1217//616 1151//552
f 1218//617 1215//614 1213//612
f 111//7 1157//558 109//6
f 1209//608 1156//557 1197//596
f 1157//558 111//7 1226//608
f 1196//595 1174//575 1185//584
f 1155//556 1227//622 1228//623
f 105//7 1229//624 1230//608
f 105//7 109//6 1229//624
f 1229//624 1168//569 1231//622
f 1229//624 109//6 1209//608
f 1167//568 1169//570 1163//564
f 1195//594 1208//607 1197//596
f 1232//608 111//6 1233//625
f 1168//569 1229//624 1208//607
f 1234//622 1157//626 1235//608
f 1185//584 1197//596 1196//595
f 1185//584 1163//564 1195//594
f 1164//565 1186//585 1184//583
f 1177//583 1236//572 1237//606
f 1174//575 1186//585 1185//584
f 1238//572 1173//567 1239//578
f 1206//605 1146//547 1240//627
f 1149//550 1181//580 1160//561
f 1182//581 1162//563 1164//565
f 1166//567 1241//572 1242//578
f 1183//582 1182//581 1184//583
f 1243//623 1167//628 1244//571
f 1192//591 1189//588 1188//587
f 1162//563 1180//579 1165//566
f 1220//618 1188//587 1190//589
f 1192//591 1194//593 1193//592
f 1189//588 1192//591 1191//590
f 1245//549 1220//629 1246//619
f 1202//601 1201//600 1247//613
f 1198//597 1147//548 1159//560
f 1201//600 1223//620 1248//630
f 1150//551 1153//554 1151//552
f 1201//600 1200//599 1153//554
f 1225//621 1193//592 1218//617
f 1199//598 1161//562 1193//592
f 1165//566 1181//580 1249//606
f 1217//616 1250//631 1251//632
f 1217//616 1252//630 1253//633
f 1225//621 1199//598 1193//592
f 1254//634 1255//549 1202//601
f 1160//561 1180//579 1183//582
f 1157//558 1209//608 109//6
f 1203//602 1198//597 1199//598
f 1256//566 1177//577 1173//574
f 1257//635 1217//636 1258//632
f 1259//549 1215//614 1220//618
f 1260//324 1261//324 1262//630
f 1263//630 1264//421 1265//637
f 1266//638 1267//639 1268//640
f 1269//553 1270//641 1210//609
f 1271//641 1272//610 1210//609
f 1273//633 1210//609 1274//632
f 1217//616 1213//612 1210//609
f 1275//633 1276//630 1210//609
f 1277//642 1213//612 1278//603
f 1215//614 1218//617 1194//593
f 1279//604 1280//603 1213//612
f 1165//583 1281//606 1282//572
f 1177//577 1187//586 1186//585
f 1283//578 1284//576 1166//567
f 1190//589 1285//643 1286//590
f 1149//550 1206//605 1181//580
f 1172//573 1155//556 1287//623
f 1209//608 1208//607 1229//624
f 1154//555 1288//559 1155//556
f 1289//571 1172//573 1290//644
f 105//7 1291//608 1292//645
f 1172//573 1293//576 1173//574
f 1294//608 1229//624 1295//559
f 1157//558 1156//557 1209//608
f 1296//623 1168//569 1167//568
f 1190//589 1297//590 1220//618
f 1298//606 1206//646 1299//590
f 1300//610 1217//616 1301//647
f 1302//648 1146//547 1303//549
f 1304//642 1201//600 1305//630
f 1306//630 1223//620 1307//324
f 1202//601 1308//549 1147//548
f 949//324 1150//551 1309//324
f 1310//421 1150//649 1311//650
f 1312//650 1150//551 1313//651
f 1314//638 1151//552 1315//641
f 1316//641 1151//652 1317//610
f 1203//602 1200//599 1198//597
f 1318//642 1319//603 1202//601
f 1206//605 1320//627 1321//590
f 1322//623 1323//559 1168//569
f 1174//575 1155//556 1172//573
f 1324//576 1325//571 1166//653
f 1217//616 1210//609 1326//630
f 1327//549 1328//634 1215//614
f 1329//613 1330//630 1210//609
f 1210//609 1331//635 1332//632
f 1151//552 1217//616 1333//610
f 1210//609 1334//630 1335//553
