# Blender 4.4.3
# www.blender.org
mtllib Mesh_22.003.mtl
o Mesh_22.003
v -0.000400 0.008970 -0.012080
v -0.000400 0.008970 -0.012157
v -0.000400 0.008959 -0.012106
v -0.000400 0.008970 -0.012321
v -0.000400 0.008959 -0.012294
v -0.000400 0.008970 -0.012243
v -0.000400 0.008636 -0.012321
v -0.000400 0.008636 -0.012243
v -0.000400 0.008647 -0.012294
v -0.000400 0.008636 -0.012080
v -0.000400 0.008647 -0.012106
v -0.000400 0.008636 -0.012157
v -0.000400 0.008970 -0.012002
v -0.000400 0.008904 -0.012107
v -0.000400 0.008803 -0.012002
v -0.000400 0.008959 -0.012104
v -0.000400 0.008959 -0.012157
v -0.000400 0.008933 -0.012096
v -0.000400 0.008958 -0.012102
v -0.000400 0.008957 -0.012100
v -0.000400 0.008956 -0.012099
v -0.000400 0.008955 -0.012098
v -0.000400 0.008953 -0.012097
v -0.000400 0.008951 -0.012096
v -0.000400 0.008949 -0.012096
v -0.000400 0.008939 -0.012096
v -0.000400 0.008927 -0.012097
v -0.000400 0.008921 -0.012099
v -0.000400 0.008915 -0.012101
v -0.000400 0.008909 -0.012104
v -0.000400 0.008636 -0.012002
v -0.000400 0.008702 -0.012107
v -0.000400 0.008899 -0.012111
v -0.000400 0.008707 -0.012111
v -0.000400 0.008894 -0.012115
v -0.000400 0.008712 -0.012115
v -0.000400 0.008890 -0.012119
v -0.000400 0.008716 -0.012119
v -0.000400 0.008886 -0.012124
v -0.000400 0.008720 -0.012124
v -0.000400 0.008883 -0.012130
v -0.000400 0.008880 -0.012136
v -0.000400 0.008723 -0.012130
v -0.000400 0.008726 -0.012136
v -0.000400 0.008729 -0.012148
v -0.000400 0.008877 -0.012148
v -0.000400 0.008876 -0.012154
v -0.000400 0.008730 -0.012154
v -0.000400 0.008875 -0.012160
v -0.000400 0.008731 -0.012160
v -0.000400 0.008875 -0.012240
v -0.000400 0.008876 -0.012246
v -0.000400 0.008731 -0.012240
v -0.000400 0.008730 -0.012246
v -0.000400 0.008729 -0.012252
v -0.000400 0.008877 -0.012252
v -0.000400 0.008878 -0.012259
v -0.000400 0.008728 -0.012259
v -0.000400 0.008880 -0.012264
v -0.000400 0.008723 -0.012270
v -0.000400 0.008726 -0.012264
v -0.000400 0.008883 -0.012270
v -0.000400 0.008886 -0.012276
v -0.000400 0.008712 -0.012285
v -0.000400 0.008894 -0.012285
v -0.000400 0.008899 -0.012289
v -0.000400 0.008716 -0.012281
v -0.000400 0.008970 -0.012400
v -0.000400 0.008702 -0.012293
v -0.000400 0.008904 -0.012293
v -0.000400 0.008707 -0.012289
v -0.000400 0.008933 -0.012304
v -0.000400 0.008921 -0.012301
v -0.000400 0.008927 -0.012303
v -0.000400 0.008939 -0.012304
v -0.000400 0.008915 -0.012299
v -0.000400 0.008949 -0.012304
v -0.000400 0.008951 -0.012304
v -0.000400 0.008953 -0.012303
v -0.000400 0.008955 -0.012302
v -0.000400 0.008956 -0.012301
v -0.000400 0.008909 -0.012296
v -0.000400 0.008957 -0.012300
v -0.000400 0.008958 -0.012298
v -0.000400 0.008890 -0.012281
v -0.000400 0.008720 -0.012276
v -0.000400 0.008959 -0.012296
v -0.000400 0.008647 -0.012296
v -0.000400 0.008647 -0.012243
v -0.000400 0.008673 -0.012304
v -0.000400 0.008636 -0.012400
v -0.000400 0.008648 -0.012298
v -0.000400 0.008649 -0.012300
v -0.000400 0.008650 -0.012301
v -0.000400 0.008651 -0.012302
v -0.000400 0.008653 -0.012303
v -0.000400 0.008655 -0.012304
v -0.000400 0.008657 -0.012304
v -0.000400 0.008666 -0.012304
v -0.000400 0.008679 -0.012303
v -0.000400 0.008685 -0.012301
v -0.000400 0.008691 -0.012299
v -0.000400 0.008697 -0.012296
v -0.000400 0.008959 -0.012243
v -0.000400 0.008728 -0.012141
v -0.000400 0.008878 -0.012141
v -0.000400 0.008697 -0.012104
v -0.000400 0.008691 -0.012101
v -0.000400 0.008685 -0.012099
v -0.000400 0.008679 -0.012097
v -0.000400 0.008673 -0.012096
v -0.000400 0.008666 -0.012096
v -0.000400 0.008653 -0.012097
v -0.000400 0.008655 -0.012096
v -0.000400 0.008657 -0.012096
v -0.000400 0.008651 -0.012098
v -0.000400 0.008650 -0.012099
v -0.000400 0.008649 -0.012100
v -0.000400 0.008648 -0.012102
v -0.000400 0.008647 -0.012104
v -0.000400 0.008647 -0.012157
v -0.000375 0.008995 -0.012157
v -0.000377 0.008993 -0.012157
v -0.000367 0.009003 -0.012147
v -0.000400 0.008970 -0.012157
v -0.000373 0.008997 -0.012156
v -0.000370 0.009000 -0.012154
v -0.000371 0.008999 -0.012155
v -0.000368 0.009002 -0.012151
v -0.000369 0.009001 -0.012153
v -0.000367 0.009003 -0.012149
v -0.000400 0.008970 -0.012080
v -0.000373 0.008997 -0.012005
v -0.000400 0.008970 -0.012080
v -0.000400 0.008970 -0.012002
v -0.000373 0.008997 -0.012000
v -0.000367 0.009003 -0.012000
v -0.000400 0.008970 -0.012080
v -0.000400 0.008970 -0.012157
v -0.000360 0.008603 -0.012000
v -0.000373 0.008609 -0.012000
v -0.000367 0.008603 -0.012000
v -0.000360 0.009003 -0.012000
v -0.000373 0.008997 -0.012000
v -0.000373 0.008803 -0.012000
v -0.000367 0.009003 -0.012000
v -0.000373 0.008997 -0.012000
v -0.000367 0.008603 -0.012000
v -0.000373 0.008609 -0.012005
v -0.000367 0.008603 -0.012147
v -0.000400 0.008636 -0.012080
v -0.000400 0.008636 -0.012080
v -0.000400 0.008636 -0.012157
v -0.000375 0.008611 -0.012157
v -0.000377 0.008613 -0.012157
v -0.000373 0.008609 -0.012156
v -0.000370 0.008606 -0.012154
v -0.000369 0.008605 -0.012153
v -0.000371 0.008607 -0.012155
v -0.000368 0.008604 -0.012151
v -0.000400 0.008636 -0.012157
v -0.000400 0.008636 -0.012080
v -0.000400 0.008636 -0.012002
v -0.000367 0.008603 -0.012149
v -0.000367 0.008603 -0.012000
v -0.000373 0.008609 -0.012000
v -0.000360 0.008803 -0.012378
v -0.000360 0.008803 -0.012400
v -0.000360 0.008843 -0.012378
v -0.000360 0.008783 -0.012230
v -0.000360 0.008726 -0.012264
v -0.000360 0.008723 -0.012270
v -0.000360 0.008783 -0.012220
v -0.000360 0.008773 -0.012220
v -0.000360 0.008883 -0.012270
v -0.000360 0.008823 -0.012230
v -0.000360 0.008843 -0.012358
v -0.000360 0.008833 -0.012220
v -0.000360 0.008875 -0.012240
v -0.000360 0.008833 -0.012180
v -0.000360 0.008875 -0.012160
v -0.000360 0.008880 -0.012264
v -0.000360 0.008878 -0.012259
v -0.000360 0.008823 -0.012170
v -0.000360 0.008876 -0.012154
v -0.000360 0.008783 -0.012170
v -0.000360 0.008886 -0.012124
v -0.000360 0.008878 -0.012141
v -0.000360 0.008880 -0.012136
v -0.000360 0.008877 -0.012148
v -0.000360 0.008731 -0.012160
v -0.000360 0.008731 -0.012240
v -0.000360 0.008730 -0.012246
v -0.000360 0.008823 -0.012180
v -0.000360 0.009002 -0.012394
v -0.000360 0.009003 -0.012392
v -0.000360 0.009003 -0.012390
v -0.000360 0.009001 -0.012396
v -0.000360 0.009000 -0.012397
v -0.000360 0.008999 -0.012398
v -0.000360 0.008997 -0.012399
v -0.000360 0.008995 -0.012400
v -0.000360 0.008993 -0.012400
v -0.000360 0.008673 -0.012304
v -0.000360 0.008613 -0.012400
v -0.000360 0.008763 -0.012378
v -0.000360 0.008666 -0.012304
v -0.000360 0.008657 -0.012304
v -0.000360 0.008655 -0.012304
v -0.000360 0.008603 -0.012390
v -0.000360 0.008607 -0.012398
v -0.000360 0.008606 -0.012397
v -0.000360 0.008609 -0.012399
v -0.000360 0.008611 -0.012400
v -0.000360 0.008604 -0.012394
v -0.000360 0.008605 -0.012396
v -0.000360 0.008603 -0.012392
v -0.000360 0.008603 -0.012253
v -0.000360 0.008648 -0.012298
v -0.000360 0.008647 -0.012296
v -0.000360 0.008613 -0.012243
v -0.000360 0.008647 -0.012294
v -0.000360 0.008603 -0.012251
v -0.000360 0.008604 -0.012249
v -0.000360 0.008605 -0.012247
v -0.000360 0.008607 -0.012245
v -0.000360 0.008609 -0.012244
v -0.000360 0.008606 -0.012246
v -0.000360 0.008611 -0.012243
v -0.000360 0.008647 -0.012243
v -0.000360 0.008649 -0.012300
v -0.000360 0.008650 -0.012301
v -0.000360 0.008651 -0.012302
v -0.000360 0.008653 -0.012303
v -0.000360 0.008763 -0.012358
v -0.000360 0.008679 -0.012303
v -0.000360 0.008685 -0.012301
v -0.000360 0.008691 -0.012299
v -0.000360 0.008697 -0.012296
v -0.000360 0.008712 -0.012285
v -0.000360 0.008707 -0.012289
v -0.000360 0.008702 -0.012293
v -0.000360 0.008716 -0.012281
v -0.000360 0.008720 -0.012276
v -0.000360 0.008728 -0.012259
v -0.000360 0.008773 -0.012180
v -0.000360 0.008730 -0.012154
v -0.000360 0.008883 -0.012130
v -0.000360 0.008729 -0.012148
v -0.000360 0.008729 -0.012252
v -0.000360 0.008723 -0.012130
v -0.000360 0.008726 -0.012136
v -0.000360 0.008728 -0.012141
v -0.000360 0.008720 -0.012124
v -0.000360 0.008894 -0.012115
v -0.000360 0.008707 -0.012111
v -0.000360 0.008712 -0.012115
v -0.000360 0.008890 -0.012119
v -0.000360 0.008697 -0.012104
v -0.000360 0.008702 -0.012107
v -0.000360 0.008904 -0.012107
v -0.000360 0.008899 -0.012111
v -0.000360 0.008691 -0.012101
v -0.000360 0.008603 -0.012000
v -0.000360 0.008685 -0.012099
v -0.000360 0.008666 -0.012096
v -0.000360 0.008603 -0.012000
v -0.000360 0.008657 -0.012096
v -0.000360 0.008603 -0.012000
v -0.000360 0.008673 -0.012096
v -0.000360 0.008679 -0.012097
v -0.000360 0.008603 -0.012000
v -0.000360 0.008655 -0.012096
v -0.000360 0.008603 -0.012000
v -0.000360 0.008653 -0.012097
v -0.000360 0.008603 -0.012000
v -0.000360 0.008651 -0.012098
v -0.000360 0.008603 -0.012000
v -0.000360 0.008650 -0.012099
v -0.000360 0.008603 -0.012000
v -0.000360 0.008649 -0.012100
v -0.000360 0.008603 -0.012000
v -0.000360 0.008648 -0.012102
v -0.000360 0.008603 -0.012000
v -0.000360 0.008603 -0.012147
v -0.000360 0.008603 -0.012000
v -0.000360 0.008909 -0.012104
v -0.000360 0.008716 -0.012119
v -0.000360 0.008783 -0.012180
v -0.000360 0.008877 -0.012252
v -0.000360 0.008876 -0.012246
v -0.000360 0.008647 -0.012106
v -0.000360 0.008613 -0.012157
v -0.000360 0.008647 -0.012157
v -0.000360 0.008611 -0.012157
v -0.000360 0.008604 -0.012151
v -0.000360 0.008603 -0.012149
v -0.000360 0.009003 -0.012147
v -0.000360 0.008958 -0.012102
v -0.000360 0.008959 -0.012104
v -0.000360 0.008993 -0.012157
v -0.000360 0.008959 -0.012106
v -0.000360 0.009003 -0.012149
v -0.000360 0.009002 -0.012151
v -0.000360 0.009001 -0.012153
v -0.000360 0.008999 -0.012155
v -0.000360 0.008997 -0.012156
v -0.000360 0.009000 -0.012154
v -0.000360 0.008995 -0.012157
v -0.000360 0.009003 -0.012000
v -0.000360 0.008959 -0.012157
v -0.000360 0.008957 -0.012100
v -0.000360 0.009003 -0.012000
v -0.000360 0.008956 -0.012099
v -0.000360 0.009003 -0.012000
v -0.000360 0.008955 -0.012098
v -0.000360 0.009003 -0.012000
v -0.000360 0.008953 -0.012097
v -0.000360 0.009003 -0.012000
v -0.000360 0.009003 -0.012000
v -0.000360 0.008951 -0.012096
v -0.000360 0.009003 -0.012000
v -0.000360 0.008939 -0.012096
v -0.000360 0.008949 -0.012096
v -0.000360 0.009003 -0.012000
v -0.000360 0.008933 -0.012096
v -0.000360 0.009003 -0.012000
v -0.000360 0.008921 -0.012099
v -0.000360 0.008927 -0.012097
v -0.000360 0.009003 -0.012000
v -0.000360 0.008915 -0.012101
v -0.000360 0.009003 -0.012000
v -0.000360 0.009003 -0.012000
v -0.000360 0.008603 -0.012000
v -0.000360 0.008603 -0.012000
v -0.000360 0.008647 -0.012104
v -0.000360 0.008603 -0.012000
v -0.000360 0.008609 -0.012156
v -0.000360 0.008607 -0.012155
v -0.000360 0.008605 -0.012153
v -0.000360 0.008606 -0.012154
v -0.000360 0.008823 -0.012220
v -0.000360 0.008894 -0.012285
v -0.000360 0.008890 -0.012281
v -0.000360 0.008886 -0.012276
v -0.000360 0.008899 -0.012289
v -0.000360 0.008904 -0.012293
v -0.000360 0.008909 -0.012296
v -0.000360 0.008915 -0.012299
v -0.000360 0.008921 -0.012301
v -0.000360 0.008927 -0.012303
v -0.000360 0.008933 -0.012304
v -0.000360 0.008939 -0.012304
v -0.000360 0.008953 -0.012303
v -0.000360 0.008951 -0.012304
v -0.000360 0.008949 -0.012304
v -0.000360 0.008955 -0.012302
v -0.000360 0.008956 -0.012301
v -0.000360 0.008957 -0.012300
v -0.000360 0.008958 -0.012298
v -0.000360 0.009003 -0.012253
v -0.000360 0.008959 -0.012296
v -0.000360 0.008959 -0.012294
v -0.000360 0.008993 -0.012243
v -0.000360 0.008959 -0.012243
v -0.000360 0.008995 -0.012243
v -0.000360 0.008603 -0.012000
v -0.000360 0.009003 -0.012000
v -0.000360 0.009003 -0.012000
v -0.000360 0.008997 -0.012244
v -0.000360 0.008999 -0.012245
v -0.000360 0.009000 -0.012246
v -0.000360 0.009001 -0.012247
v -0.000360 0.009002 -0.012249
v -0.000360 0.009003 -0.012251
v -0.000360 0.009003 -0.012390
v -0.000367 0.009003 -0.012390
v -0.000360 0.009003 -0.012253
v -0.000360 0.009003 -0.012253
v -0.000367 0.009003 -0.012253
v -0.000360 0.009003 -0.012147
v -0.000367 0.009003 -0.012147
v -0.000360 0.009003 -0.012000
v -0.000360 0.009003 -0.012000
v -0.000367 0.009003 -0.012147
v -0.000367 0.009003 -0.012000
v -0.000400 0.008970 -0.012321
v -0.000367 0.009003 -0.012390
v -0.000400 0.008970 -0.012400
v -0.000400 0.008970 -0.012321
v -0.000400 0.008970 -0.012243
v -0.000367 0.009003 -0.012253
v -0.000377 0.008993 -0.012400
v -0.000400 0.008970 -0.012400
v -0.000367 0.009003 -0.012390
v -0.000375 0.008995 -0.012400
v -0.000367 0.009003 -0.012390
v -0.000373 0.008997 -0.012399
v -0.000367 0.009003 -0.012390
v -0.000371 0.008999 -0.012398
v -0.000367 0.009003 -0.012390
v -0.000370 0.009000 -0.012397
v -0.000368 0.009002 -0.012394
v -0.000369 0.009001 -0.012396
v -0.000367 0.009003 -0.012390
v -0.000367 0.009003 -0.012390
v -0.000367 0.009003 -0.012392
v -0.000367 0.009003 -0.012390
v -0.000367 0.009003 -0.012390
v -0.000367 0.009003 -0.012390
v -0.000400 0.008970 -0.012321
v -0.000367 0.009003 -0.012253
v -0.000367 0.009003 -0.012253
v -0.000400 0.008970 -0.012243
v -0.000377 0.008993 -0.012243
v -0.000375 0.008995 -0.012243
v -0.000367 0.009003 -0.012253
v -0.000373 0.008997 -0.012244
v -0.000367 0.009003 -0.012253
v -0.000367 0.009003 -0.012253
v -0.000370 0.009000 -0.012246
v -0.000369 0.009001 -0.012247
v -0.000367 0.009003 -0.012253
v -0.000371 0.008999 -0.012245
v -0.000367 0.009003 -0.012251
v -0.000367 0.009003 -0.012253
v -0.000368 0.009002 -0.012249
v -0.000367 0.009003 -0.012253
v -0.000367 0.009003 -0.012253
v -0.000360 0.008603 -0.012253
v -0.000367 0.008603 -0.012253
v -0.000360 0.008603 -0.012390
v -0.000360 0.008603 -0.012390
v -0.000367 0.008603 -0.012390
v -0.000400 0.008636 -0.012321
v -0.000367 0.008603 -0.012253
v -0.000400 0.008636 -0.012243
v -0.000400 0.008636 -0.012321
v -0.000400 0.008636 -0.012400
v -0.000367 0.008603 -0.012390
v -0.000377 0.008613 -0.012243
v -0.000400 0.008636 -0.012243
v -0.000367 0.008603 -0.012253
v -0.000375 0.008611 -0.012243
v -0.000367 0.008603 -0.012253
v -0.000373 0.008609 -0.012244
v -0.000367 0.008603 -0.012253
v -0.000371 0.008607 -0.012245
v -0.000367 0.008603 -0.012253
v -0.000370 0.008606 -0.012246
v -0.000368 0.008604 -0.012249
v -0.000369 0.008605 -0.012247
v -0.000367 0.008603 -0.012253
v -0.000367 0.008603 -0.012253
v -0.000367 0.008603 -0.012251
v -0.000367 0.008603 -0.012253
v -0.000367 0.008603 -0.012253
v -0.000367 0.008603 -0.012253
v -0.000400 0.008636 -0.012321
v -0.000367 0.008603 -0.012390
v -0.000367 0.008603 -0.012390
v -0.000400 0.008636 -0.012400
v -0.000377 0.008613 -0.012400
v -0.000375 0.008611 -0.012400
v -0.000367 0.008603 -0.012390
v -0.000373 0.008609 -0.012399
v -0.000367 0.008603 -0.012390
v -0.000367 0.008603 -0.012390
v -0.000370 0.008606 -0.012397
v -0.000369 0.008605 -0.012396
v -0.000367 0.008603 -0.012390
v -0.000371 0.008607 -0.012398
v -0.000367 0.008603 -0.012392
v -0.000367 0.008603 -0.012390
v -0.000368 0.008604 -0.012394
v -0.000367 0.008603 -0.012390
v -0.000367 0.008603 -0.012390
v -0.000400 0.008970 -0.012400
v -0.000360 0.008803 -0.012400
v -0.000400 0.008636 -0.012400
v -0.000400 0.008970 -0.012400
v -0.000377 0.008993 -0.012400
v -0.000360 0.008993 -0.012400
v -0.000400 0.008636 -0.012400
v -0.000360 0.008803 -0.012400
v -0.000360 0.008613 -0.012400
v -0.000377 0.008613 -0.012400
v -0.000400 0.008636 -0.012400
v -0.000360 0.008613 -0.012400
v -0.000360 0.008803 -0.012400
v -0.000400 0.008970 -0.012400
v -0.000360 0.008993 -0.012400
v -0.000360 0.008603 -0.012000
v -0.000367 0.008603 -0.012000
v -0.000360 0.008603 -0.012147
v -0.000360 0.008603 -0.012147
v -0.000367 0.008603 -0.012000
v -0.000367 0.008603 -0.012147
v -0.000360 0.008731 -0.012160
v -0.000400 0.008731 -0.012160
v -0.000360 0.008731 -0.012240
v -0.000400 0.008731 -0.012160
v -0.000400 0.008731 -0.012240
v -0.000360 0.008731 -0.012240
v -0.000360 0.008673 -0.012304
v -0.000360 0.008679 -0.012303
v -0.000400 0.008673 -0.012304
v -0.000360 0.008679 -0.012303
v -0.000360 0.008685 -0.012301
v -0.000400 0.008679 -0.012303
v -0.000360 0.008685 -0.012301
v -0.000400 0.008685 -0.012301
v -0.000400 0.008679 -0.012303
v -0.000360 0.008691 -0.012299
v -0.000400 0.008691 -0.012299
v -0.000400 0.008685 -0.012301
v -0.000360 0.008697 -0.012296
v -0.000400 0.008691 -0.012299
v -0.000360 0.008691 -0.012299
v -0.000360 0.008702 -0.012293
v -0.000400 0.008697 -0.012296
v -0.000360 0.008697 -0.012296
v -0.000400 0.008702 -0.012293
v -0.000400 0.008697 -0.012296
v -0.000360 0.008702 -0.012293
v -0.000400 0.008707 -0.012289
v -0.000400 0.008702 -0.012293
v -0.000360 0.008707 -0.012289
v -0.000400 0.008707 -0.012289
v -0.000360 0.008707 -0.012289
v -0.000360 0.008712 -0.012285
v -0.000400 0.008712 -0.012285
v -0.000360 0.008712 -0.012285
v -0.000360 0.008716 -0.012281
v -0.000400 0.008712 -0.012285
v -0.000360 0.008716 -0.012281
v -0.000400 0.008716 -0.012281
v -0.000400 0.008716 -0.012281
v -0.000360 0.008720 -0.012276
v -0.000400 0.008720 -0.012276
v -0.000360 0.008720 -0.012276
v -0.000360 0.008723 -0.012270
v -0.000400 0.008720 -0.012276
v -0.000360 0.008723 -0.012270
v -0.000360 0.008726 -0.012264
v -0.000400 0.008723 -0.012270
v -0.000360 0.008726 -0.012264
v -0.000400 0.008726 -0.012264
v -0.000400 0.008723 -0.012270
v -0.000360 0.008673 -0.012304
v -0.000400 0.008673 -0.012304
v -0.000360 0.008666 -0.012304
v -0.000400 0.008730 -0.012246
v -0.000360 0.008731 -0.012240
v -0.000400 0.008731 -0.012240
v -0.000360 0.008730 -0.012246
v -0.000360 0.008731 -0.012240
v -0.000400 0.008730 -0.012246
v -0.000360 0.008730 -0.012246
v -0.000400 0.008730 -0.012246
v -0.000400 0.008729 -0.012252
v -0.000360 0.008730 -0.012246
v -0.000400 0.008729 -0.012252
v -0.000360 0.008729 -0.012252
v -0.000400 0.008729 -0.012252
v -0.000400 0.008728 -0.012259
v -0.000360 0.008729 -0.012252
v -0.000400 0.008728 -0.012259
v -0.000360 0.008728 -0.012259
v -0.000360 0.008729 -0.012252
v -0.000400 0.008726 -0.012264
v -0.000360 0.008728 -0.012259
v -0.000400 0.008728 -0.012259
v -0.000360 0.008726 -0.012264
v -0.000360 0.008728 -0.012259
v -0.000400 0.008726 -0.012264
v -0.000400 0.008720 -0.012276
v -0.000360 0.008723 -0.012270
v -0.000400 0.008723 -0.012270
v -0.000400 0.008716 -0.012281
v -0.000360 0.008716 -0.012281
v -0.000360 0.008720 -0.012276
v -0.000400 0.008712 -0.012285
v -0.000400 0.008707 -0.012289
v -0.000360 0.008712 -0.012285
v -0.000360 0.008707 -0.012289
v -0.000400 0.008702 -0.012293
v -0.000360 0.008702 -0.012293
v -0.000360 0.008697 -0.012296
v -0.000400 0.008697 -0.012296
v -0.000400 0.008691 -0.012299
v -0.000360 0.008685 -0.012301
v -0.000360 0.008691 -0.012299
v -0.000400 0.008685 -0.012301
v -0.000400 0.008673 -0.012304
v -0.000400 0.008666 -0.012304
v -0.000360 0.008666 -0.012304
v -0.000360 0.008679 -0.012303
v -0.000400 0.008679 -0.012303
v -0.000400 0.008673 -0.012304
v -0.000400 0.008657 -0.012304
v -0.000360 0.008657 -0.012304
v -0.000400 0.008666 -0.012304
v -0.000360 0.008657 -0.012304
v -0.000360 0.008666 -0.012304
v -0.000400 0.008666 -0.012304
v -0.000360 0.008647 -0.012294
v -0.000400 0.008647 -0.012294
v -0.000360 0.008647 -0.012243
v -0.000400 0.008647 -0.012294
v -0.000400 0.008647 -0.012243
v -0.000360 0.008647 -0.012243
v -0.000400 0.008647 -0.012106
v -0.000360 0.008647 -0.012106
v -0.000400 0.008647 -0.012157
v -0.000360 0.008647 -0.012106
v -0.000360 0.008647 -0.012157
v -0.000400 0.008647 -0.012157
v -0.000360 0.008657 -0.012096
v -0.000400 0.008657 -0.012096
v -0.000360 0.008666 -0.012096
v -0.000400 0.008657 -0.012096
v -0.000400 0.008666 -0.012096
v -0.000360 0.008666 -0.012096
v -0.000360 0.008730 -0.012154
v -0.000360 0.008729 -0.012148
v -0.000400 0.008730 -0.012154
v -0.000360 0.008729 -0.012148
v -0.000360 0.008728 -0.012141
v -0.000400 0.008729 -0.012148
v -0.000360 0.008728 -0.012141
v -0.000400 0.008728 -0.012141
v -0.000400 0.008729 -0.012148
v -0.000360 0.008726 -0.012136
v -0.000400 0.008726 -0.012136
v -0.000400 0.008728 -0.012141
v -0.000360 0.008723 -0.012130
v -0.000400 0.008726 -0.012136
v -0.000360 0.008726 -0.012136
v -0.000360 0.008720 -0.012124
v -0.000400 0.008723 -0.012130
v -0.000360 0.008723 -0.012130
v -0.000400 0.008720 -0.012124
v -0.000400 0.008723 -0.012130
v -0.000360 0.008720 -0.012124
v -0.000400 0.008716 -0.012119
v -0.000400 0.008720 -0.012124
v -0.000360 0.008716 -0.012119
v -0.000400 0.008716 -0.012119
v -0.000360 0.008716 -0.012119
v -0.000360 0.008712 -0.012115
v -0.000400 0.008712 -0.012115
v -0.000360 0.008712 -0.012115
v -0.000360 0.008707 -0.012111
v -0.000400 0.008712 -0.012115
v -0.000360 0.008707 -0.012111
v -0.000400 0.008707 -0.012111
v -0.000400 0.008707 -0.012111
v -0.000360 0.008702 -0.012107
v -0.000400 0.008702 -0.012107
v -0.000360 0.008702 -0.012107
v -0.000360 0.008697 -0.012104
v -0.000400 0.008702 -0.012107
v -0.000360 0.008697 -0.012104
v -0.000360 0.008691 -0.012101
v -0.000400 0.008697 -0.012104
v -0.000360 0.008691 -0.012101
v -0.000400 0.008691 -0.012101
v -0.000400 0.008697 -0.012104
v -0.000360 0.008730 -0.012154
v -0.000400 0.008730 -0.012154
v -0.000360 0.008731 -0.012160
v -0.000400 0.008673 -0.012096
v -0.000360 0.008666 -0.012096
v -0.000400 0.008666 -0.012096
v -0.000360 0.008673 -0.012096
v -0.000360 0.008666 -0.012096
v -0.000400 0.008673 -0.012096
v -0.000360 0.008673 -0.012096
v -0.000400 0.008673 -0.012096
v -0.000400 0.008679 -0.012097
v -0.000360 0.008673 -0.012096
v -0.000400 0.008679 -0.012097
v -0.000360 0.008679 -0.012097
v -0.000400 0.008679 -0.012097
v -0.000400 0.008685 -0.012099
v -0.000360 0.008679 -0.012097
v -0.000400 0.008685 -0.012099
v -0.000360 0.008685 -0.012099
v -0.000360 0.008679 -0.012097
v -0.000400 0.008691 -0.012101
v -0.000360 0.008685 -0.012099
v -0.000400 0.008685 -0.012099
v -0.000360 0.008691 -0.012101
v -0.000360 0.008685 -0.012099
v -0.000400 0.008691 -0.012101
v -0.000400 0.008702 -0.012107
v -0.000360 0.008697 -0.012104
v -0.000400 0.008697 -0.012104
v -0.000400 0.008707 -0.012111
v -0.000360 0.008707 -0.012111
v -0.000360 0.008702 -0.012107
v -0.000400 0.008712 -0.012115
v -0.000400 0.008716 -0.012119
v -0.000360 0.008712 -0.012115
v -0.000360 0.008716 -0.012119
v -0.000400 0.008720 -0.012124
v -0.000360 0.008720 -0.012124
v -0.000360 0.008723 -0.012130
v -0.000400 0.008723 -0.012130
v -0.000400 0.008726 -0.012136
v -0.000360 0.008728 -0.012141
v -0.000360 0.008726 -0.012136
v -0.000400 0.008728 -0.012141
v -0.000400 0.008730 -0.012154
v -0.000400 0.008731 -0.012160
v -0.000360 0.008731 -0.012160
v -0.000360 0.008729 -0.012148
v -0.000400 0.008729 -0.012148
v -0.000400 0.008730 -0.012154
v -0.000377 0.008613 -0.012243
v -0.000360 0.008647 -0.012243
v -0.000400 0.008636 -0.012243
v -0.000360 0.008613 -0.012243
v -0.000360 0.008647 -0.012243
v -0.000377 0.008613 -0.012243
v -0.000400 0.008647 -0.012243
v -0.000400 0.008636 -0.012243
v -0.000360 0.008647 -0.012243
v -0.000360 0.008613 -0.012157
v -0.000377 0.008613 -0.012157
v -0.000360 0.008647 -0.012157
v -0.000400 0.008636 -0.012157
v -0.000400 0.008647 -0.012157
v -0.000360 0.008647 -0.012157
v -0.000377 0.008613 -0.012157
v -0.000400 0.008636 -0.012157
v -0.000360 0.008647 -0.012157
v -0.000360 0.008875 -0.012160
v -0.000360 0.008875 -0.012240
v -0.000400 0.008875 -0.012160
v -0.000400 0.008875 -0.012160
v -0.000360 0.008875 -0.012240
v -0.000400 0.008875 -0.012240
v -0.000400 0.008939 -0.012304
v -0.000400 0.008933 -0.012304
v -0.000360 0.008939 -0.012304
v -0.000400 0.008933 -0.012304
v -0.000360 0.008933 -0.012304
v -0.000360 0.008939 -0.012304
v -0.000400 0.008927 -0.012303
v -0.000360 0.008933 -0.012304
v -0.000400 0.008933 -0.012304
v -0.000360 0.008927 -0.012303
v -0.000360 0.008933 -0.012304
v -0.000400 0.008927 -0.012303
v -0.000360 0.008927 -0.012303
v -0.000400 0.008927 -0.012303
v -0.000400 0.008921 -0.012301
v -0.000360 0.008927 -0.012303
v -0.000400 0.008921 -0.012301
v -0.000360 0.008921 -0.012301
v -0.000400 0.008921 -0.012301
v -0.000400 0.008915 -0.012299
v -0.000360 0.008921 -0.012301
v -0.000400 0.008915 -0.012299
v -0.000360 0.008915 -0.012299
v -0.000360 0.008921 -0.012301
v -0.000400 0.008909 -0.012296
v -0.000360 0.008915 -0.012299
v -0.000400 0.008915 -0.012299
v -0.000360 0.008909 -0.012296
v -0.000360 0.008915 -0.012299
v -0.000400 0.008909 -0.012296
v -0.000360 0.008909 -0.012296
v -0.000400 0.008909 -0.012296
v -0.000400 0.008904 -0.012293
v -0.000360 0.008909 -0.012296
v -0.000400 0.008904 -0.012293
v -0.000360 0.008904 -0.012293
v -0.000400 0.008904 -0.012293
v -0.000400 0.008899 -0.012289
v -0.000360 0.008904 -0.012293
v -0.000400 0.008899 -0.012289
v -0.000360 0.008899 -0.012289
v -0.000360 0.008904 -0.012293
v -0.000360 0.008890 -0.012281
v -0.000400 0.008886 -0.012276
v -0.000360 0.008886 -0.012276
v -0.000360 0.008886 -0.012276
v -0.000400 0.008886 -0.012276
v -0.000400 0.008883 -0.012270
v -0.000360 0.008875 -0.012240
v -0.000360 0.008876 -0.012246
v -0.000400 0.008875 -0.012240
v -0.000360 0.008876 -0.012246
v -0.000400 0.008876 -0.012246
v -0.000400 0.008875 -0.012240
v -0.000360 0.008877 -0.012252
v -0.000400 0.008876 -0.012246
v -0.000360 0.008876 -0.012246
v -0.000400 0.008877 -0.012252
v -0.000400 0.008876 -0.012246
v -0.000360 0.008877 -0.012252
v -0.000400 0.008877 -0.012252
v -0.000360 0.008877 -0.012252
v -0.000360 0.008878 -0.012259
v -0.000400 0.008877 -0.012252
v -0.000360 0.008878 -0.012259
v -0.000400 0.008878 -0.012259
v -0.000360 0.008878 -0.012259
v -0.000360 0.008880 -0.012264
v -0.000400 0.008878 -0.012259
v -0.000360 0.008880 -0.012264
v -0.000400 0.008880 -0.012264
v -0.000400 0.008878 -0.012259
v -0.000360 0.008883 -0.012270
v -0.000400 0.008880 -0.012264
v -0.000360 0.008880 -0.012264
v -0.000400 0.008883 -0.012270
v -0.000400 0.008880 -0.012264
v -0.000360 0.008883 -0.012270
v -0.000400 0.008883 -0.012270
v -0.000360 0.008883 -0.012270
v -0.000360 0.008886 -0.012276
v -0.000400 0.008886 -0.012276
v -0.000360 0.008890 -0.012281
v -0.000400 0.008890 -0.012281
v -0.000360 0.008890 -0.012281
v -0.000360 0.008894 -0.012285
v -0.000400 0.008890 -0.012281
v -0.000360 0.008894 -0.012285
v -0.000400 0.008894 -0.012285
v -0.000400 0.008890 -0.012281
v -0.000360 0.008899 -0.012289
v -0.000400 0.008894 -0.012285
v -0.000360 0.008894 -0.012285
v -0.000360 0.008899 -0.012289
v -0.000400 0.008899 -0.012289
v -0.000400 0.008894 -0.012285
v -0.000400 0.008939 -0.012304
v -0.000360 0.008939 -0.012304
v -0.000400 0.008949 -0.012304
v -0.000400 0.008949 -0.012304
v -0.000360 0.008939 -0.012304
v -0.000360 0.008949 -0.012304
v -0.000360 0.008959 -0.012243
v -0.000400 0.008959 -0.012243
v -0.000360 0.008959 -0.012294
v -0.000360 0.008959 -0.012294
v -0.000400 0.008959 -0.012243
v -0.000400 0.008959 -0.012294
v -0.000400 0.008959 -0.012157
v -0.000360 0.008959 -0.012157
v -0.000400 0.008959 -0.012106
v -0.000400 0.008959 -0.012106
v -0.000360 0.008959 -0.012157
v -0.000360 0.008959 -0.012106
v -0.000360 0.008939 -0.012096
v -0.000400 0.008939 -0.012096
v -0.000360 0.008949 -0.012096
v -0.000360 0.008949 -0.012096
v -0.000400 0.008939 -0.012096
v -0.000400 0.008949 -0.012096
v -0.000400 0.008875 -0.012160
v -0.000400 0.008876 -0.012154
v -0.000360 0.008875 -0.012160
v -0.000400 0.008876 -0.012154
v -0.000400 0.008877 -0.012148
v -0.000360 0.008876 -0.012154
v -0.000400 0.008877 -0.012148
v -0.000360 0.008877 -0.012148
v -0.000360 0.008876 -0.012154
v -0.000400 0.008878 -0.012141
v -0.000360 0.008878 -0.012141
v -0.000360 0.008877 -0.012148
v -0.000400 0.008880 -0.012136
v -0.000360 0.008880 -0.012136
v -0.000360 0.008878 -0.012141
v -0.000400 0.008883 -0.012130
v -0.000360 0.008880 -0.012136
v -0.000400 0.008880 -0.012136
v -0.000400 0.008886 -0.012124
v -0.000360 0.008883 -0.012130
v -0.000400 0.008883 -0.012130
v -0.000360 0.008886 -0.012124
v -0.000360 0.008883 -0.012130
v -0.000400 0.008886 -0.012124
v -0.000360 0.008890 -0.012119
v -0.000360 0.008886 -0.012124
v -0.000400 0.008890 -0.012119
v -0.000360 0.008890 -0.012119
v -0.000400 0.008890 -0.012119
v -0.000400 0.008894 -0.012115
v -0.000360 0.008894 -0.012115
v -0.000400 0.008894 -0.012115
v -0.000400 0.008899 -0.012111
v -0.000360 0.008894 -0.012115
v -0.000400 0.008899 -0.012111
v -0.000360 0.008899 -0.012111
v -0.000360 0.008899 -0.012111
v -0.000400 0.008904 -0.012107
v -0.000360 0.008904 -0.012107
v -0.000400 0.008904 -0.012107
v -0.000400 0.008909 -0.012104
v -0.000360 0.008904 -0.012107
v -0.000400 0.008909 -0.012104
v -0.000400 0.008915 -0.012101
v -0.000360 0.008909 -0.012104
v -0.000400 0.008915 -0.012101
v -0.000360 0.008915 -0.012101
v -0.000360 0.008909 -0.012104
v -0.000360 0.008933 -0.012096
v -0.000400 0.008939 -0.012096
v -0.000360 0.008939 -0.012096
v -0.000400 0.008933 -0.012096
v -0.000400 0.008939 -0.012096
v -0.000360 0.008933 -0.012096
v -0.000400 0.008933 -0.012096
v -0.000360 0.008933 -0.012096
v -0.000360 0.008927 -0.012097
v -0.000400 0.008933 -0.012096
v -0.000360 0.008927 -0.012097
v -0.000400 0.008927 -0.012097
v -0.000360 0.008927 -0.012097
v -0.000360 0.008921 -0.012099
v -0.000400 0.008927 -0.012097
v -0.000360 0.008921 -0.012099
v -0.000400 0.008921 -0.012099
v -0.000400 0.008927 -0.012097
v -0.000360 0.008915 -0.012101
v -0.000400 0.008921 -0.012099
v -0.000360 0.008921 -0.012099
v -0.000400 0.008915 -0.012101
v -0.000400 0.008921 -0.012099
v -0.000360 0.008915 -0.012101
v -0.000360 0.008904 -0.012107
v -0.000400 0.008909 -0.012104
v -0.000360 0.008909 -0.012104
v -0.000360 0.008899 -0.012111
v -0.000400 0.008899 -0.012111
v -0.000400 0.008904 -0.012107
v -0.000360 0.008894 -0.012115
v -0.000360 0.008890 -0.012119
v -0.000400 0.008894 -0.012115
v -0.000400 0.008890 -0.012119
v -0.000360 0.008886 -0.012124
v -0.000400 0.008886 -0.012124
v -0.000400 0.008883 -0.012130
v -0.000360 0.008883 -0.012130
v -0.000360 0.008880 -0.012136
v -0.000400 0.008878 -0.012141
v -0.000400 0.008880 -0.012136
v -0.000360 0.008878 -0.012141
v -0.000360 0.008876 -0.012154
v -0.000360 0.008875 -0.012160
v -0.000400 0.008876 -0.012154
v -0.000360 0.008877 -0.012148
v -0.000400 0.008877 -0.012148
v -0.000400 0.008878 -0.012141
v -0.000400 0.008959 -0.012243
v -0.000360 0.008959 -0.012243
v -0.000400 0.008970 -0.012243
v -0.000377 0.008993 -0.012243
v -0.000360 0.008959 -0.012243
v -0.000360 0.008993 -0.012243
v -0.000377 0.008993 -0.012243
v -0.000400 0.008970 -0.012243
v -0.000360 0.008959 -0.012243
v -0.000400 0.008959 -0.012157
v -0.000400 0.008970 -0.012157
v -0.000360 0.008959 -0.012157
v -0.000360 0.008959 -0.012157
v -0.000400 0.008970 -0.012157
v -0.000377 0.008993 -0.012157
v -0.000377 0.008993 -0.012157
v -0.000360 0.008993 -0.012157
v -0.000360 0.008959 -0.012157
v -0.000367 0.009003 -0.012147
v -0.000360 0.009003 -0.012147
v -0.000360 0.009003 -0.012149
v -0.000367 0.009003 -0.012149
v -0.000367 0.009003 -0.012147
v -0.000360 0.009003 -0.012149
v -0.000360 0.009003 -0.012149
v -0.000360 0.009002 -0.012151
v -0.000367 0.009003 -0.012149
v -0.000367 0.009003 -0.012149
v -0.000360 0.009002 -0.012151
v -0.000368 0.009002 -0.012151
v -0.000368 0.009002 -0.012151
v -0.000360 0.009002 -0.012151
v -0.000360 0.009001 -0.012153
v -0.000369 0.009001 -0.012153
v -0.000368 0.009002 -0.012151
v -0.000360 0.009001 -0.012153
v -0.000360 0.009000 -0.012154
v -0.000369 0.009001 -0.012153
v -0.000360 0.009001 -0.012153
v -0.000360 0.008999 -0.012155
v -0.000370 0.009000 -0.012154
v -0.000360 0.009000 -0.012154
v -0.000360 0.009000 -0.012154
v -0.000370 0.009000 -0.012154
v -0.000369 0.009001 -0.012153
v -0.000375 0.008995 -0.012157
v -0.000360 0.008993 -0.012157
v -0.000377 0.008993 -0.012157
v -0.000375 0.008995 -0.012157
v -0.000360 0.008995 -0.012157
v -0.000360 0.008993 -0.012157
v -0.000375 0.008995 -0.012157
v -0.000373 0.008997 -0.012156
v -0.000360 0.008995 -0.012157
v -0.000360 0.008995 -0.012157
v -0.000373 0.008997 -0.012156
v -0.000360 0.008997 -0.012156
v -0.000360 0.008997 -0.012156
v -0.000373 0.008997 -0.012156
v -0.000371 0.008999 -0.012155
v -0.000360 0.008999 -0.012155
v -0.000360 0.008997 -0.012156
v -0.000371 0.008999 -0.012155
v -0.000370 0.009000 -0.012154
v -0.000360 0.008999 -0.012155
v -0.000371 0.008999 -0.012155
v -0.000360 0.008613 -0.012157
v -0.000375 0.008611 -0.012157
v -0.000377 0.008613 -0.012157
v -0.000360 0.008613 -0.012157
v -0.000360 0.008611 -0.012157
v -0.000375 0.008611 -0.012157
v -0.000375 0.008611 -0.012157
v -0.000360 0.008611 -0.012157
v -0.000373 0.008609 -0.012156
v -0.000373 0.008609 -0.012156
v -0.000360 0.008611 -0.012157
v -0.000360 0.008609 -0.012156
v -0.000360 0.008607 -0.012155
v -0.000360 0.008606 -0.012154
v -0.000370 0.008606 -0.012154
v -0.000371 0.008607 -0.012155
v -0.000360 0.008609 -0.012156
v -0.000360 0.008607 -0.012155
v -0.000360 0.008606 -0.012154
v -0.000360 0.008605 -0.012153
v -0.000369 0.008605 -0.012153
v -0.000371 0.008607 -0.012155
v -0.000373 0.008609 -0.012156
v -0.000360 0.008609 -0.012156
v -0.000360 0.008603 -0.012149
v -0.000360 0.008603 -0.012147
v -0.000367 0.008603 -0.012147
v -0.000367 0.008603 -0.012149
v -0.000360 0.008603 -0.012149
v -0.000367 0.008603 -0.012147
v -0.000367 0.008603 -0.012149
v -0.000360 0.008604 -0.012151
v -0.000360 0.008603 -0.012149
v -0.000367 0.008603 -0.012149
v -0.000368 0.008604 -0.012151
v -0.000360 0.008604 -0.012151
v -0.000360 0.008604 -0.012151
v -0.000368 0.008604 -0.012151
v -0.000360 0.008605 -0.012153
v -0.000360 0.008605 -0.012153
v -0.000368 0.008604 -0.012151
v -0.000369 0.008605 -0.012153
v -0.000360 0.008606 -0.012154
v -0.000369 0.008605 -0.012153
v -0.000370 0.008606 -0.012154
v -0.000370 0.008606 -0.012154
v -0.000371 0.008607 -0.012155
v -0.000360 0.008607 -0.012155
v -0.000360 0.008603 -0.012253
v -0.000360 0.008603 -0.012251
v -0.000367 0.008603 -0.012251
v -0.000360 0.008603 -0.012251
v -0.000360 0.008603 -0.012251
v -0.000360 0.008604 -0.012249
v -0.000367 0.008603 -0.012251
v -0.000367 0.008603 -0.012251
v -0.000360 0.008604 -0.012249
v -0.000368 0.008604 -0.012249
v -0.000368 0.008604 -0.012249
v -0.000360 0.008604 -0.012249
v -0.000360 0.008605 -0.012247
v -0.000369 0.008605 -0.012247
v -0.000368 0.008604 -0.012249
v -0.000360 0.008605 -0.012247
v -0.000360 0.008606 -0.012246
v -0.000369 0.008605 -0.012247
v -0.000360 0.008605 -0.012247
v -0.000360 0.008607 -0.012245
v -0.000370 0.008606 -0.012246
v -0.000360 0.008606 -0.012246
v -0.000360 0.008606 -0.012246
v -0.000370 0.008606 -0.012246
v -0.000369 0.008605 -0.012247
v -0.000375 0.008611 -0.012243
v -0.000360 0.008613 -0.012243
v -0.000377 0.008613 -0.012243
v -0.000375 0.008611 -0.012243
v -0.000360 0.008611 -0.012243
v -0.000360 0.008613 -0.012243
v -0.000375 0.008611 -0.012243
v -0.000373 0.008609 -0.012244
v -0.000360 0.008611 -0.012243
v -0.000360 0.008611 -0.012243
v -0.000373 0.008609 -0.012244
v -0.000360 0.008609 -0.012244
v -0.000360 0.008609 -0.012244
v -0.000373 0.008609 -0.012244
v -0.000371 0.008607 -0.012245
v -0.000360 0.008607 -0.012245
v -0.000360 0.008609 -0.012244
v -0.000371 0.008607 -0.012245
v -0.000370 0.008606 -0.012246
v -0.000360 0.008607 -0.012245
v -0.000371 0.008607 -0.012245
v -0.000360 0.008655 -0.012096
v -0.000360 0.008653 -0.012097
v -0.000400 0.008655 -0.012096
v -0.000360 0.008653 -0.012097
v -0.000360 0.008651 -0.012098
v -0.000400 0.008653 -0.012097
v -0.000360 0.008651 -0.012098
v -0.000400 0.008651 -0.012098
v -0.000400 0.008653 -0.012097
v -0.000360 0.008650 -0.012099
v -0.000400 0.008650 -0.012099
v -0.000400 0.008651 -0.012098
v -0.000360 0.008649 -0.012100
v -0.000400 0.008650 -0.012099
v -0.000360 0.008650 -0.012099
v -0.000360 0.008648 -0.012102
v -0.000400 0.008649 -0.012100
v -0.000360 0.008649 -0.012100
v -0.000400 0.008648 -0.012102
v -0.000400 0.008649 -0.012100
v -0.000360 0.008648 -0.012102
v -0.000360 0.008655 -0.012096
v -0.000400 0.008655 -0.012096
v -0.000360 0.008657 -0.012096
v -0.000400 0.008647 -0.012104
v -0.000360 0.008647 -0.012106
v -0.000400 0.008647 -0.012106
v -0.000360 0.008647 -0.012104
v -0.000360 0.008647 -0.012106
v -0.000400 0.008647 -0.012104
v -0.000360 0.008647 -0.012104
v -0.000400 0.008647 -0.012104
v -0.000400 0.008648 -0.012102
v -0.000360 0.008647 -0.012104
v -0.000400 0.008648 -0.012102
v -0.000360 0.008648 -0.012102
v -0.000360 0.008649 -0.012100
v -0.000400 0.008649 -0.012100
v -0.000400 0.008650 -0.012099
v -0.000360 0.008651 -0.012098
v -0.000360 0.008650 -0.012099
v -0.000400 0.008651 -0.012098
v -0.000400 0.008655 -0.012096
v -0.000400 0.008657 -0.012096
v -0.000360 0.008657 -0.012096
v -0.000360 0.008653 -0.012097
v -0.000400 0.008653 -0.012097
v -0.000400 0.008655 -0.012096
v -0.000360 0.008647 -0.012296
v -0.000360 0.008648 -0.012298
v -0.000400 0.008647 -0.012296
v -0.000360 0.008648 -0.012298
v -0.000360 0.008649 -0.012300
v -0.000400 0.008648 -0.012298
v -0.000360 0.008649 -0.012300
v -0.000400 0.008649 -0.012300
v -0.000400 0.008648 -0.012298
v -0.000360 0.008650 -0.012301
v -0.000400 0.008650 -0.012301
v -0.000400 0.008649 -0.012300
v -0.000360 0.008651 -0.012302
v -0.000400 0.008650 -0.012301
v -0.000360 0.008650 -0.012301
v -0.000360 0.008653 -0.012303
v -0.000400 0.008651 -0.012302
v -0.000360 0.008651 -0.012302
v -0.000400 0.008653 -0.012303
v -0.000400 0.008651 -0.012302
v -0.000360 0.008653 -0.012303
v -0.000360 0.008647 -0.012296
v -0.000400 0.008647 -0.012296
v -0.000360 0.008647 -0.012294
v -0.000400 0.008655 -0.012304
v -0.000360 0.008657 -0.012304
v -0.000400 0.008657 -0.012304
v -0.000360 0.008655 -0.012304
v -0.000360 0.008657 -0.012304
v -0.000400 0.008655 -0.012304
v -0.000360 0.008655 -0.012304
v -0.000400 0.008655 -0.012304
v -0.000400 0.008653 -0.012303
v -0.000360 0.008655 -0.012304
v -0.000400 0.008653 -0.012303
v -0.000360 0.008653 -0.012303
v -0.000360 0.008651 -0.012302
v -0.000400 0.008651 -0.012302
v -0.000400 0.008650 -0.012301
v -0.000360 0.008649 -0.012300
v -0.000360 0.008650 -0.012301
v -0.000400 0.008649 -0.012300
v -0.000400 0.008647 -0.012296
v -0.000400 0.008647 -0.012294
v -0.000360 0.008647 -0.012294
v -0.000360 0.008648 -0.012298
v -0.000400 0.008648 -0.012298
v -0.000400 0.008647 -0.012296
v -0.000360 0.008959 -0.012104
v -0.000360 0.008958 -0.012102
v -0.000400 0.008959 -0.012104
v -0.000360 0.008958 -0.012102
v -0.000360 0.008957 -0.012100
v -0.000400 0.008958 -0.012102
v -0.000360 0.008957 -0.012100
v -0.000400 0.008957 -0.012100
v -0.000400 0.008958 -0.012102
v -0.000360 0.008956 -0.012099
v -0.000400 0.008956 -0.012099
v -0.000400 0.008957 -0.012100
v -0.000360 0.008955 -0.012098
v -0.000400 0.008956 -0.012099
v -0.000360 0.008956 -0.012099
v -0.000360 0.008953 -0.012097
v -0.000400 0.008955 -0.012098
v -0.000360 0.008955 -0.012098
v -0.000400 0.008953 -0.012097
v -0.000400 0.008955 -0.012098
v -0.000360 0.008953 -0.012097
v -0.000360 0.008949 -0.012096
v -0.000400 0.008949 -0.012096
v -0.000400 0.008951 -0.012096
v -0.000360 0.008949 -0.012096
v -0.000400 0.008951 -0.012096
v -0.000360 0.008951 -0.012096
v -0.000400 0.008951 -0.012096
v -0.000400 0.008953 -0.012097
v -0.000360 0.008951 -0.012096
v -0.000360 0.008959 -0.012104
v -0.000400 0.008959 -0.012104
v -0.000360 0.008959 -0.012106
v -0.000360 0.008953 -0.012097
v -0.000360 0.008951 -0.012096
v -0.000400 0.008953 -0.012097
v -0.000400 0.008959 -0.012104
v -0.000400 0.008959 -0.012106
v -0.000360 0.008959 -0.012106
v -0.000400 0.008959 -0.012104
v -0.000360 0.008958 -0.012102
v -0.000400 0.008958 -0.012102
v -0.000360 0.008957 -0.012100
v -0.000360 0.008956 -0.012099
v -0.000400 0.008957 -0.012100
v -0.000360 0.008955 -0.012098
v -0.000400 0.008955 -0.012098
v -0.000400 0.008956 -0.012099
v -0.000360 0.008993 -0.012400
v -0.000377 0.008993 -0.012400
v -0.000375 0.008995 -0.012400
v -0.000360 0.008995 -0.012400
v -0.000360 0.008993 -0.012400
v -0.000375 0.008995 -0.012400
v -0.000373 0.008997 -0.012399
v -0.000360 0.008995 -0.012400
v -0.000375 0.008995 -0.012400
v -0.000373 0.008997 -0.012399
v -0.000360 0.008997 -0.012399
v -0.000360 0.008995 -0.012400
v -0.000373 0.008997 -0.012399
v -0.000371 0.008999 -0.012398
v -0.000360 0.008997 -0.012399
v -0.000360 0.008997 -0.012399
v -0.000371 0.008999 -0.012398
v -0.000360 0.008999 -0.012398
v -0.000360 0.008999 -0.012398
v -0.000370 0.009000 -0.012397
v -0.000360 0.009000 -0.012397
v -0.000360 0.009003 -0.012390
v -0.000360 0.009003 -0.012392
v -0.000360 0.009003 -0.012392
v -0.000367 0.009003 -0.012392
v -0.000360 0.009003 -0.012392
v -0.000360 0.009002 -0.012394
v -0.000367 0.009003 -0.012392
v -0.000367 0.009003 -0.012392
v -0.000360 0.009002 -0.012394
v -0.000368 0.009002 -0.012394
v -0.000368 0.009002 -0.012394
v -0.000360 0.009002 -0.012394
v -0.000360 0.009001 -0.012396
v -0.000369 0.009001 -0.012396
v -0.000368 0.009002 -0.012394
v -0.000360 0.009001 -0.012396
v -0.000360 0.009000 -0.012397
v -0.000369 0.009001 -0.012396
v -0.000360 0.009001 -0.012396
v -0.000360 0.009000 -0.012397
v -0.000370 0.009000 -0.012397
v -0.000369 0.009001 -0.012396
v -0.000370 0.009000 -0.012397
v -0.000360 0.008999 -0.012398
v -0.000371 0.008999 -0.012398
v -0.000360 0.008603 -0.012390
v -0.000360 0.008603 -0.012392
v -0.000360 0.008603 -0.012392
v -0.000367 0.008603 -0.012392
v -0.000360 0.008604 -0.012394
v -0.000360 0.008603 -0.012392
v -0.000367 0.008603 -0.012392
v -0.000368 0.008604 -0.012394
v -0.000360 0.008604 -0.012394
v -0.000367 0.008603 -0.012392
v -0.000368 0.008604 -0.012394
v -0.000360 0.008605 -0.012396
v -0.000360 0.008604 -0.012394
v -0.000368 0.008604 -0.012394
v -0.000369 0.008605 -0.012396
v -0.000360 0.008605 -0.012396
v -0.000360 0.008605 -0.012396
v -0.000369 0.008605 -0.012396
v -0.000360 0.008606 -0.012397
v -0.000360 0.008606 -0.012397
v -0.000369 0.008605 -0.012396
v -0.000370 0.008606 -0.012397
v -0.000360 0.008607 -0.012398
v -0.000360 0.008606 -0.012397
v -0.000370 0.008606 -0.012397
v -0.000377 0.008613 -0.012400
v -0.000360 0.008613 -0.012400
v -0.000375 0.008611 -0.012400
v -0.000375 0.008611 -0.012400
v -0.000360 0.008613 -0.012400
v -0.000360 0.008611 -0.012400
v -0.000373 0.008609 -0.012399
v -0.000375 0.008611 -0.012400
v -0.000360 0.008611 -0.012400
v -0.000371 0.008607 -0.012398
v -0.000360 0.008609 -0.012399
v -0.000360 0.008607 -0.012398
v -0.000371 0.008607 -0.012398
v -0.000373 0.008609 -0.012399
v -0.000360 0.008609 -0.012399
v -0.000370 0.008606 -0.012397
v -0.000371 0.008607 -0.012398
v -0.000360 0.008607 -0.012398
v -0.000373 0.008609 -0.012399
v -0.000360 0.008611 -0.012400
v -0.000360 0.008609 -0.012399
v -0.000360 0.008951 -0.012304
v -0.000400 0.008951 -0.012304
v -0.000360 0.008949 -0.012304
v -0.000360 0.008953 -0.012303
v -0.000400 0.008951 -0.012304
v -0.000360 0.008951 -0.012304
v -0.000360 0.008955 -0.012302
v -0.000400 0.008953 -0.012303
v -0.000360 0.008953 -0.012303
v -0.000400 0.008955 -0.012302
v -0.000400 0.008953 -0.012303
v -0.000360 0.008955 -0.012302
v -0.000400 0.008956 -0.012301
v -0.000400 0.008955 -0.012302
v -0.000360 0.008956 -0.012301
v -0.000400 0.008956 -0.012301
v -0.000360 0.008956 -0.012301
v -0.000360 0.008957 -0.012300
v -0.000400 0.008957 -0.012300
v -0.000360 0.008957 -0.012300
v -0.000360 0.008958 -0.012298
v -0.000400 0.008959 -0.012294
v -0.000400 0.008959 -0.012296
v -0.000360 0.008959 -0.012294
v -0.000400 0.008959 -0.012296
v -0.000360 0.008959 -0.012296
v -0.000360 0.008959 -0.012294
v -0.000400 0.008958 -0.012298
v -0.000360 0.008959 -0.012296
v -0.000400 0.008959 -0.012296
v -0.000360 0.008958 -0.012298
v -0.000360 0.008959 -0.012296
v -0.000400 0.008958 -0.012298
v -0.000360 0.008958 -0.012298
v -0.000400 0.008958 -0.012298
v -0.000400 0.008957 -0.012300
v -0.000360 0.008957 -0.012300
v -0.000400 0.008957 -0.012300
v -0.000400 0.008956 -0.012301
v -0.000360 0.008955 -0.012302
v -0.000360 0.008956 -0.012301
v -0.000400 0.008955 -0.012302
v -0.000400 0.008951 -0.012304
v -0.000400 0.008949 -0.012304
v -0.000360 0.008949 -0.012304
v -0.000360 0.008953 -0.012303
v -0.000400 0.008953 -0.012303
v -0.000400 0.008951 -0.012304
v -0.000360 0.008993 -0.012243
v -0.000375 0.008995 -0.012243
v -0.000377 0.008993 -0.012243
v -0.000360 0.008993 -0.012243
v -0.000360 0.008995 -0.012243
v -0.000375 0.008995 -0.012243
v -0.000375 0.008995 -0.012243
v -0.000360 0.008995 -0.012243
v -0.000373 0.008997 -0.012244
v -0.000373 0.008997 -0.012244
v -0.000360 0.008995 -0.012243
v -0.000360 0.008997 -0.012244
v -0.000360 0.008999 -0.012245
v -0.000360 0.009000 -0.012246
v -0.000370 0.009000 -0.012246
v -0.000371 0.008999 -0.012245
v -0.000360 0.008997 -0.012244
v -0.000360 0.008999 -0.012245
v -0.000360 0.009000 -0.012246
v -0.000360 0.009001 -0.012247
v -0.000369 0.009001 -0.012247
v -0.000371 0.008999 -0.012245
v -0.000373 0.008997 -0.012244
v -0.000360 0.008997 -0.012244
v -0.000360 0.009003 -0.012251
v -0.000360 0.009003 -0.012253
v -0.000367 0.009003 -0.012251
v -0.000360 0.009003 -0.012251
v -0.000367 0.009003 -0.012251
v -0.000360 0.009002 -0.012249
v -0.000360 0.009003 -0.012251
v -0.000367 0.009003 -0.012251
v -0.000368 0.009002 -0.012249
v -0.000360 0.009002 -0.012249
v -0.000360 0.009002 -0.012249
v -0.000368 0.009002 -0.012249
v -0.000360 0.009001 -0.012247
v -0.000360 0.009001 -0.012247
v -0.000368 0.009002 -0.012249
v -0.000369 0.009001 -0.012247
v -0.000360 0.009000 -0.012246
v -0.000369 0.009001 -0.012247
v -0.000370 0.009000 -0.012246
v -0.000370 0.009000 -0.012246
v -0.000371 0.008999 -0.012245
v -0.000360 0.008999 -0.012245
v -0.000310 0.008773 -0.012220
v -0.000310 0.008773 -0.012180
v -0.000360 0.008773 -0.012220
v -0.000360 0.008773 -0.012180
v -0.000360 0.008773 -0.012220
v -0.000270 0.008780 -0.012220
v -0.000310 0.008773 -0.012220
v -0.000270 0.008783 -0.012220
v -0.000310 0.008773 -0.012220
v -0.000360 0.008783 -0.012220
v -0.000360 0.008773 -0.012220
v -0.000360 0.008783 -0.012220
v -0.000310 0.008773 -0.012220
v -0.000310 0.008783 -0.012230
v -0.000360 0.008783 -0.012220
v -0.000360 0.008783 -0.012230
v -0.000270 0.008783 -0.012220
v -0.000360 0.008783 -0.012220
v -0.000270 0.008783 -0.012220
v -0.000270 0.008783 -0.012223
v -0.000310 0.008823 -0.012230
v -0.000310 0.008783 -0.012230
v -0.000360 0.008823 -0.012230
v -0.000310 0.008783 -0.012230
v -0.000360 0.008783 -0.012230
v -0.000360 0.008823 -0.012230
v -0.000270 0.008823 -0.012223
v -0.000310 0.008823 -0.012230
v -0.000270 0.008823 -0.012220
v -0.000310 0.008823 -0.012230
v -0.000360 0.008823 -0.012220
v -0.000360 0.008823 -0.012230
v -0.000360 0.008823 -0.012220
v -0.000310 0.008823 -0.012230
v -0.000310 0.008833 -0.012220
v -0.000360 0.008823 -0.012220
v -0.000360 0.008833 -0.012220
v -0.000270 0.008823 -0.012220
v -0.000360 0.008823 -0.012220
v -0.000270 0.008823 -0.012220
v -0.000270 0.008826 -0.012220
v -0.000310 0.008833 -0.012180
v -0.000310 0.008833 -0.012220
v -0.000360 0.008833 -0.012180
v -0.000310 0.008833 -0.012220
v -0.000360 0.008833 -0.012220
v -0.000360 0.008833 -0.012180
v -0.000270 0.008826 -0.012180
v -0.000310 0.008833 -0.012180
v -0.000270 0.008823 -0.012180
v -0.000310 0.008833 -0.012180
v -0.000360 0.008823 -0.012180
v -0.000360 0.008833 -0.012180
v -0.000360 0.008823 -0.012180
v -0.000310 0.008833 -0.012180
v -0.000310 0.008823 -0.012170
v -0.000360 0.008823 -0.012180
v -0.000360 0.008823 -0.012170
v -0.000270 0.008823 -0.012180
v -0.000360 0.008823 -0.012180
v -0.000270 0.008823 -0.012180
v -0.000270 0.008823 -0.012177
v -0.000310 0.008783 -0.012170
v -0.000310 0.008823 -0.012170
v -0.000360 0.008783 -0.012170
v -0.000310 0.008823 -0.012170
v -0.000360 0.008823 -0.012170
v -0.000360 0.008783 -0.012170
v -0.000270 0.008783 -0.012177
v -0.000310 0.008783 -0.012170
v -0.000270 0.008783 -0.012180
v -0.000310 0.008783 -0.012170
v -0.000360 0.008783 -0.012180
v -0.000360 0.008783 -0.012170
v -0.000360 0.008783 -0.012180
v -0.000310 0.008783 -0.012170
v -0.000360 0.008807 -0.012180
v -0.000270 0.008807 -0.012180
v -0.000360 0.008803 -0.012180
v -0.000360 0.008811 -0.012182
v -0.000360 0.008814 -0.012183
v -0.000270 0.008811 -0.012182
v -0.000270 0.008814 -0.012183
v -0.000270 0.008817 -0.012186
v -0.000360 0.008817 -0.012186
v -0.000360 0.008820 -0.012189
v -0.000270 0.008820 -0.012189
v -0.000360 0.008821 -0.012192
v -0.000270 0.008821 -0.012192
v -0.000360 0.008823 -0.012196
v -0.000270 0.008823 -0.012196
v -0.000360 0.008823 -0.012200
v -0.000360 0.008823 -0.012204
v -0.000270 0.008823 -0.012200
v -0.000270 0.008823 -0.012204
v -0.000360 0.008821 -0.012208
v -0.000270 0.008821 -0.012208
v -0.000360 0.008820 -0.012211
v -0.000360 0.008817 -0.012214
v -0.000270 0.008820 -0.012211
v -0.000270 0.008817 -0.012214
v -0.000270 0.008814 -0.012217
v -0.000360 0.008814 -0.012217
v -0.000360 0.008811 -0.012218
v -0.000270 0.008811 -0.012218
v -0.000360 0.008807 -0.012220
v -0.000270 0.008807 -0.012220
v -0.000360 0.008803 -0.012220
v -0.000270 0.008803 -0.012220
v -0.000360 0.008799 -0.012220
v -0.000270 0.008799 -0.012220
v -0.000360 0.008795 -0.012218
v -0.000270 0.008795 -0.012218
v -0.000360 0.008792 -0.012217
v -0.000360 0.008783 -0.012200
v -0.000270 0.008783 -0.012200
v -0.000270 0.008783 -0.012204
v -0.000360 0.008783 -0.012196
v -0.000270 0.008783 -0.012196
v -0.000360 0.008785 -0.012192
v -0.000270 0.008785 -0.012192
v -0.000360 0.008786 -0.012189
v -0.000270 0.008786 -0.012189
v -0.000360 0.008789 -0.012186
v -0.000360 0.008792 -0.012183
v -0.000270 0.008789 -0.012186
v -0.000270 0.008792 -0.012183
v -0.000270 0.008795 -0.012182
v -0.000360 0.008795 -0.012182
v -0.000270 0.008799 -0.012180
v -0.000360 0.008799 -0.012180
v -0.000270 0.008803 -0.012180
v -0.000360 0.008783 -0.012204
v -0.000270 0.008785 -0.012208
v -0.000360 0.008785 -0.012208
v -0.000270 0.008786 -0.012211
v -0.000360 0.008786 -0.012211
v -0.000270 0.008789 -0.012214
v -0.000360 0.008789 -0.012214
v -0.000270 0.008792 -0.012217
v -0.000310 0.008773 -0.012180
v -0.000360 0.008783 -0.012180
v -0.000360 0.008773 -0.012180
v -0.000270 0.008783 -0.012180
v -0.000360 0.008783 -0.012180
v -0.000310 0.008773 -0.012180
v -0.000270 0.008783 -0.012180
v -0.000310 0.008773 -0.012180
v -0.000270 0.008780 -0.012180
v -0.000270 0.008803 -0.012177
v -0.000270 0.008803 -0.012180
v -0.000270 0.008807 -0.012180
v -0.000270 0.008780 -0.012220
v -0.000270 0.008783 -0.012220
v -0.000270 0.008786 -0.012211
v -0.000270 0.008780 -0.012180
v -0.000270 0.008785 -0.012192
v -0.000270 0.008786 -0.012189
v -0.000270 0.008795 -0.012182
v -0.000270 0.008799 -0.012180
v -0.000270 0.008783 -0.012177
v -0.000270 0.008792 -0.012183
v -0.000270 0.008795 -0.012182
v -0.000270 0.008823 -0.012177
v -0.000270 0.008811 -0.012182
v -0.000270 0.008814 -0.012183
v -0.000270 0.008826 -0.012200
v -0.000270 0.008821 -0.012192
v -0.000270 0.008823 -0.012196
v -0.000270 0.008826 -0.012180
v -0.000270 0.008820 -0.012189
v -0.000270 0.008821 -0.012192
v -0.000270 0.008826 -0.012220
v -0.000270 0.008821 -0.012208
v -0.000270 0.008820 -0.012211
v -0.000270 0.008803 -0.012223
v -0.000270 0.008811 -0.012218
v -0.000270 0.008807 -0.012220
v -0.000270 0.008823 -0.012223
v -0.000270 0.008814 -0.012217
v -0.000270 0.008811 -0.012218
v -0.000270 0.008783 -0.012223
v -0.000270 0.008795 -0.012218
v -0.000270 0.008792 -0.012217
v -0.000270 0.008783 -0.012220
v -0.000270 0.008792 -0.012217
v -0.000270 0.008789 -0.012214
v -0.000270 0.008783 -0.012220
v -0.000270 0.008789 -0.012214
v -0.000270 0.008786 -0.012211
v -0.000270 0.008799 -0.012180
v -0.000270 0.008803 -0.012180
v -0.000270 0.008783 -0.012177
v -0.000270 0.008795 -0.012182
v -0.000270 0.008786 -0.012189
v -0.000270 0.008783 -0.012180
v -0.000270 0.008780 -0.012180
v -0.000270 0.008792 -0.012183
v -0.000270 0.008783 -0.012177
v -0.000270 0.008783 -0.012180
v -0.000270 0.008789 -0.012186
v -0.000270 0.008792 -0.012183
v -0.000270 0.008783 -0.012180
v -0.000270 0.008786 -0.012189
v -0.000270 0.008789 -0.012186
v -0.000270 0.008783 -0.012180
v -0.000270 0.008785 -0.012192
v -0.000270 0.008780 -0.012180
v -0.000270 0.008780 -0.012200
v -0.000270 0.008783 -0.012196
v -0.000270 0.008785 -0.012192
v -0.000270 0.008783 -0.012204
v -0.000270 0.008783 -0.012200
v -0.000270 0.008780 -0.012220
v -0.000270 0.008785 -0.012208
v -0.000270 0.008785 -0.012208
v -0.000270 0.008783 -0.012204
v -0.000270 0.008786 -0.012211
v -0.000270 0.008785 -0.012208
v -0.000270 0.008780 -0.012220
v -0.000270 0.008792 -0.012217
v -0.000270 0.008783 -0.012220
v -0.000270 0.008783 -0.012223
v -0.000270 0.008783 -0.012200
v -0.000270 0.008783 -0.012196
v -0.000270 0.008799 -0.012220
v -0.000270 0.008795 -0.012218
v -0.000270 0.008807 -0.012220
v -0.000270 0.008803 -0.012220
v -0.000270 0.008823 -0.012223
v -0.000270 0.008811 -0.012218
v -0.000270 0.008820 -0.012211
v -0.000270 0.008823 -0.012220
v -0.000270 0.008826 -0.012220
v -0.000270 0.008814 -0.012217
v -0.000270 0.008823 -0.012223
v -0.000270 0.008823 -0.012220
v -0.000270 0.008817 -0.012214
v -0.000270 0.008814 -0.012217
v -0.000270 0.008823 -0.012220
v -0.000270 0.008820 -0.012211
v -0.000270 0.008817 -0.012214
v -0.000270 0.008823 -0.012220
v -0.000270 0.008821 -0.012208
v -0.000270 0.008826 -0.012220
v -0.000270 0.008823 -0.012204
v -0.000270 0.008821 -0.012208
v -0.000270 0.008823 -0.012196
v -0.000270 0.008823 -0.012200
v -0.000270 0.008826 -0.012180
v -0.000270 0.008821 -0.012192
v -0.000270 0.008814 -0.012183
v -0.000270 0.008823 -0.012180
v -0.000270 0.008823 -0.012177
v -0.000270 0.008820 -0.012189
v -0.000270 0.008826 -0.012180
v -0.000270 0.008823 -0.012180
v -0.000270 0.008817 -0.012186
v -0.000270 0.008820 -0.012189
v -0.000270 0.008823 -0.012180
v -0.000270 0.008814 -0.012183
v -0.000270 0.008817 -0.012186
v -0.000270 0.008823 -0.012180
v -0.000270 0.008811 -0.012182
v -0.000270 0.008823 -0.012177
v -0.000270 0.008803 -0.012220
v -0.000270 0.008799 -0.012220
v -0.000270 0.008807 -0.012180
v -0.000270 0.008811 -0.012182
v -0.000270 0.008795 -0.012218
v -0.000270 0.008783 -0.012223
v -0.000270 0.008823 -0.012200
v -0.000270 0.008823 -0.012204
v -0.000360 0.008811 -0.012182
v -0.000360 0.008807 -0.012180
v -0.000360 0.008803 -0.012180
v -0.000360 0.008814 -0.012183
v -0.000360 0.008811 -0.012182
v -0.000360 0.008803 -0.012180
v -0.000360 0.008817 -0.012186
v -0.000360 0.008814 -0.012183
v -0.000360 0.008803 -0.012180
v -0.000360 0.008820 -0.012189
v -0.000360 0.008817 -0.012186
v -0.000360 0.008803 -0.012180
v -0.000360 0.008821 -0.012192
v -0.000360 0.008803 -0.012180
v -0.000360 0.008823 -0.012196
v -0.000360 0.008821 -0.012192
v -0.000360 0.008820 -0.012189
v -0.000360 0.008803 -0.012180
v -0.000360 0.008823 -0.012196
v -0.000360 0.008803 -0.012180
v -0.000360 0.008823 -0.012200
v -0.000360 0.008823 -0.012200
v -0.000360 0.008803 -0.012180
v -0.000360 0.008823 -0.012204
v -0.000360 0.008803 -0.012180
v -0.000360 0.008821 -0.012208
v -0.000360 0.008823 -0.012204
v -0.000360 0.008803 -0.012180
v -0.000360 0.008820 -0.012211
v -0.000360 0.008821 -0.012208
v -0.000360 0.008803 -0.012180
v -0.000360 0.008817 -0.012214
v -0.000360 0.008820 -0.012211
v -0.000360 0.008811 -0.012218
v -0.000360 0.008814 -0.012217
v -0.000360 0.008803 -0.012180
v -0.000360 0.008803 -0.012180
v -0.000360 0.008814 -0.012217
v -0.000360 0.008817 -0.012214
v -0.000360 0.008807 -0.012220
v -0.000360 0.008803 -0.012180
v -0.000360 0.008803 -0.012220
v -0.000360 0.008803 -0.012220
v -0.000360 0.008803 -0.012180
v -0.000360 0.008799 -0.012220
v -0.000360 0.008803 -0.012180
v -0.000360 0.008795 -0.012218
v -0.000360 0.008799 -0.012220
v -0.000360 0.008803 -0.012180
v -0.000360 0.008792 -0.012217
v -0.000360 0.008795 -0.012218
v -0.000360 0.008803 -0.012180
v -0.000360 0.008789 -0.012214
v -0.000360 0.008792 -0.012217
v -0.000360 0.008785 -0.012208
v -0.000360 0.008786 -0.012211
v -0.000360 0.008803 -0.012180
v -0.000360 0.008803 -0.012180
v -0.000360 0.008786 -0.012211
v -0.000360 0.008789 -0.012214
v -0.000360 0.008783 -0.012204
v -0.000360 0.008785 -0.012208
v -0.000360 0.008803 -0.012180
v -0.000360 0.008783 -0.012200
v -0.000360 0.008783 -0.012204
v -0.000360 0.008803 -0.012180
v -0.000360 0.008783 -0.012200
v -0.000360 0.008803 -0.012180
v -0.000360 0.008783 -0.012196
v -0.000360 0.008783 -0.012196
v -0.000360 0.008803 -0.012180
v -0.000360 0.008785 -0.012192
v -0.000360 0.008785 -0.012192
v -0.000360 0.008803 -0.012180
v -0.000360 0.008786 -0.012189
v -0.000360 0.008803 -0.012180
v -0.000360 0.008792 -0.012183
v -0.000360 0.008789 -0.012186
v -0.000360 0.008786 -0.012189
v -0.000360 0.008803 -0.012180
v -0.000360 0.008789 -0.012186
v -0.000360 0.008803 -0.012180
v -0.000360 0.008795 -0.012182
v -0.000360 0.008792 -0.012183
v -0.000360 0.008803 -0.012180
v -0.000360 0.008807 -0.012220
v -0.000360 0.008811 -0.012218
v -0.000360 0.008799 -0.012180
v -0.000360 0.008795 -0.012182
v -0.000360 0.008803 -0.012180
v -0.000270 0.008803 -0.012223
v -0.000270 0.008783 -0.012223
v -0.000310 0.008783 -0.012230
v -0.000270 0.008823 -0.012223
v -0.000270 0.008803 -0.012223
v -0.000270 0.008803 -0.012223
v -0.000310 0.008783 -0.012230
v -0.000270 0.008826 -0.012200
v -0.000270 0.008826 -0.012220
v -0.000310 0.008833 -0.012220
v -0.000270 0.008826 -0.012180
v -0.000270 0.008826 -0.012200
v -0.000270 0.008826 -0.012200
v -0.000310 0.008833 -0.012220
v -0.000270 0.008803 -0.012177
v -0.000270 0.008823 -0.012177
v -0.000310 0.008823 -0.012170
v -0.000270 0.008783 -0.012177
v -0.000270 0.008803 -0.012177
v -0.000270 0.008803 -0.012177
v -0.000310 0.008823 -0.012170
v -0.000270 0.008780 -0.012200
v -0.000270 0.008780 -0.012180
v -0.000270 0.008780 -0.012220
v -0.000270 0.008780 -0.012200
v -0.000270 0.008780 -0.012200
v -0.000330 0.008763 -0.012378
v -0.000360 0.008803 -0.012378
v -0.000330 0.008843 -0.012378
v -0.000360 0.008803 -0.012378
v -0.000360 0.008843 -0.012378
v -0.000360 0.008803 -0.012378
v -0.000360 0.008763 -0.012378
v -0.000330 0.008763 -0.012358
v -0.000360 0.008763 -0.012358
v -0.000330 0.008763 -0.012378
v -0.000330 0.008763 -0.012378
v -0.000360 0.008763 -0.012358
v -0.000360 0.008763 -0.012378
v -0.000330 0.008843 -0.012358
v -0.000360 0.008843 -0.012358
v -0.000330 0.008763 -0.012358
v -0.000330 0.008763 -0.012358
v -0.000360 0.008843 -0.012358
v -0.000360 0.008763 -0.012358
v -0.000330 0.008843 -0.012378
v -0.000360 0.008843 -0.012378
v -0.000330 0.008843 -0.012358
v -0.000330 0.008843 -0.012358
v -0.000360 0.008843 -0.012378
v -0.000360 0.008843 -0.012358
v -0.000330 0.008843 -0.012378
v -0.000330 0.008843 -0.012358
v -0.000330 0.008763 -0.012378
v -0.000330 0.008843 -0.012358
v -0.000330 0.008763 -0.012358
v -0.000330 0.008763 -0.012378
v -0.000400 0.008803 -0.012002
v -0.000373 0.008803 -0.012005
v -0.000400 0.008970 -0.012002
v -0.000400 0.008636 -0.012002
v -0.000373 0.008609 -0.012005
v -0.000400 0.008636 -0.012002
v -0.000400 0.008803 -0.012002
v -0.000373 0.008997 -0.012005
v -0.000400 0.008970 -0.012002
v -0.000373 0.008997 -0.012000
v -0.000373 0.008803 -0.012005
v -0.000373 0.008803 -0.012000
v -0.000373 0.008997 -0.012000
v -0.000373 0.008997 -0.012005
v -0.000373 0.008803 -0.012005
v -0.000373 0.008609 -0.012000
v -0.000373 0.008803 -0.012005
v -0.000373 0.008609 -0.012005
v -0.000373 0.008803 -0.012005
v -0.000373 0.008609 -0.012000
v -0.000373 0.008803 -0.012000
vn -1.0000 -0.0000 -0.0000
vn -1.0000 -0.0001 -0.0000
vn -1.0000 0.0001 -0.0000
vn -0.7070 0.7072 0.0001
vn -0.7071 0.7071 -0.0000
vn -0.7071 0.7071 -0.0001
vn -0.7072 0.7070 -0.0002
vn -0.7071 0.7072 0.0001
vn -0.7073 0.7069 0.0001
vn -0.7072 0.7070 0.0002
vn -0.7069 0.7073 -0.0000
vn -0.0001 -0.0000 1.0000
vn -0.0000 -0.0000 1.0000
vn -0.7071 -0.7071 -0.0000
vn -0.7073 -0.7069 0.0001
vn -0.7072 -0.7070 0.0001
vn -0.7071 -0.7072 -0.0001
vn -0.7074 -0.7069 -0.0001
vn -0.7071 -0.7071 0.0001
vn -0.7071 -0.7071 -0.0001
vn -0.7072 -0.7070 0.0002
vn -0.7069 -0.7073 -0.0000
vn 1.0000 -0.0000 -0.0000
vn 1.0000 0.0001 -0.0000
vn 1.0000 -0.0001 -0.0000
vn -0.0000 1.0000 -0.0000
vn -0.7071 0.7071 -0.0002
vn -0.7072 0.7070 -0.0000
vn -0.7073 0.7069 0.0003
vn -0.7070 0.7072 -0.0000
vn -0.7072 0.7070 0.0001
vn -0.7072 0.7071 0.0002
vn -0.7071 0.7071 0.0002
vn -0.7071 0.7071 0.0001
vn -0.7071 0.7072 -0.0000
vn -0.0000 -1.0000 -0.0000
vn -0.7072 -0.7071 -0.0002
vn -0.7072 -0.7070 0.0004
vn -0.7070 -0.7072 0.0003
vn -0.7070 -0.7072 -0.0000
vn -0.7070 -0.7072 -0.0003
vn -0.7073 -0.7070 -0.0000
vn -0.7072 -0.7070 -0.0004
vn -0.7072 -0.7070 -0.0003
vn -0.0000 -0.0000 -1.0000
vn -0.0000 -0.0980 0.9952
vn -0.0000 -0.1951 0.9808
vn -0.0000 -0.2903 0.9569
vn -0.0000 -0.3827 0.9239
vn -0.0000 -0.4714 0.8819
vn -0.0000 -0.5556 0.8315
vn -0.0000 -0.6344 0.7730
vn -0.0000 -0.5556 0.8314
vn -0.0000 -0.7071 0.7071
vn -0.0000 -0.7072 0.7070
vn -0.0000 -0.7730 0.6344
vn -0.0000 -0.8314 0.5556
vn -0.0000 -0.8315 0.5555
vn -0.0000 -0.8819 0.4714
vn -0.0000 -0.9239 0.3827
vn -0.0000 -0.9952 0.0980
vn -0.0000 -0.9808 0.1951
vn -0.0000 -0.9569 0.2903
vn -0.0000 -0.9952 -0.0980
vn -0.0000 -0.9808 -0.1951
vn -0.0000 -0.9569 -0.2903
vn -0.0000 -0.9239 -0.3827
vn -0.0000 -0.8819 -0.4714
vn -0.0000 -0.8315 -0.5556
vn -0.0000 -0.8315 -0.5555
vn -0.0000 -0.7730 -0.6344
vn -0.0000 -0.8314 -0.5556
vn -0.0000 -0.7071 -0.7071
vn -0.0000 -0.6344 -0.7730
vn -0.0000 -0.5556 -0.8314
vn -0.0000 -0.5556 -0.8315
vn -0.0000 -0.4714 -0.8819
vn -0.0000 -0.3827 -0.9239
vn -0.0000 -1.0000 -0.0001
vn -0.0000 -0.0980 -0.9952
vn -0.0000 -0.1951 -0.9808
vn -0.0000 -0.2903 -0.9569
vn -0.0000 -0.7072 -0.7070
vn -0.0000 0.0980 0.9952
vn -0.0000 0.1951 0.9808
vn -0.0000 0.2903 0.9569
vn -0.0000 0.3827 0.9239
vn -0.0000 0.4714 0.8819
vn -0.0000 0.5556 0.8315
vn -0.0000 0.5555 0.8315
vn -0.0000 0.5556 0.8314
vn -0.0000 0.6344 0.7730
vn -0.0000 0.7730 0.6344
vn -0.0000 0.8314 0.5556
vn -0.0000 0.8315 0.5555
vn -0.0000 0.8819 0.4714
vn -0.0000 0.9952 0.0980
vn -0.0000 0.9808 0.1951
vn -0.0000 0.9569 0.2903
vn -0.0000 0.9239 0.3827
vn -0.0000 0.8315 0.5556
vn -0.0000 0.7072 0.7070
vn -0.0000 0.7070 0.7073
vn -0.0000 0.7071 0.7071
vn -0.0000 0.9952 -0.0980
vn -0.0000 0.9808 -0.1951
vn -0.0000 0.9569 -0.2903
vn -0.0000 0.9239 -0.3827
vn -0.0000 0.8819 -0.4714
vn -0.0000 0.8315 -0.5555
vn -0.0000 0.7730 -0.6344
vn -0.0000 0.8315 -0.5556
vn -0.0000 0.7072 -0.7070
vn -0.0000 0.7071 -0.7071
vn -0.0000 0.6344 -0.7730
vn -0.0000 0.5556 -0.8314
vn -0.0000 0.5555 -0.8315
vn -0.0000 0.4714 -0.8819
vn -0.0000 0.3827 -0.9239
vn -0.0000 0.0980 -0.9952
vn -0.0000 0.1951 -0.9808
vn -0.0000 0.2903 -0.9569
vn -0.0000 0.5556 -0.8315
vn -0.0000 0.7070 -0.7073
vn -0.0000 0.8314 -0.5556
vn -0.0000 0.9808 -0.1950
vn -0.0000 0.7074 -0.7068
vn -0.0000 0.8314 -0.5557
vn -0.0000 0.7068 -0.7074
vn -0.0000 0.1950 -0.9808
vn -0.0000 0.3826 -0.9239
vn -0.0000 0.1952 -0.9808
vn -0.0000 0.7068 -0.7075
vn -0.0000 -0.1950 -0.9808
vn -0.0000 -0.1952 -0.9808
vn -0.0000 -0.3826 -0.9239
vn -0.0000 -0.5555 -0.8315
vn -0.0000 -0.7074 -0.7068
vn -0.0000 -0.8314 -0.5557
vn -0.0000 -0.9808 -0.1950
vn -0.0000 -0.9808 -0.1952
vn -0.0000 -0.7068 -0.7074
vn -0.0000 -0.7068 -0.7075
vn -0.0000 -0.9808 0.1950
vn -0.0000 -0.9808 0.1952
vn -0.0000 -0.8315 0.5556
vn -0.0000 -0.7074 0.7068
vn -0.0000 -0.8314 0.5557
vn -0.0000 -0.7068 0.7074
vn -0.0000 -0.1950 0.9808
vn -0.0000 -0.3826 0.9239
vn -0.0000 -0.5555 0.8315
vn -0.0000 -0.7070 0.7072
vn -0.0000 0.7069 -0.7073
vn -0.0000 0.5557 -0.8314
vn -0.0000 0.7070 -0.7072
vn -0.0000 0.9239 -0.3826
vn -0.0000 0.9239 0.3826
vn -0.0000 0.7070 0.7072
vn -0.0000 0.9808 0.1950
vn -0.0000 0.1950 0.9808
vn -0.0000 0.3826 0.9239
vn -0.0000 0.8314 0.5557
vn -0.0000 -0.9239 -0.3826
vn -0.0000 -0.7070 -0.7072
vn -0.0000 -0.5557 -0.8314
vn -0.0000 -0.7069 -0.7073
vn -0.0000 -0.1952 0.9808
vn -0.0000 -0.9239 0.3826
vn -0.0000 0.7074 0.7068
vn -0.0000 0.7068 0.7074
vn -0.0000 1.0000 0.0001
vn -0.0001 -0.0000 -1.0000
vn -0.0000 1.0000 -0.0001
vn -0.0000 -0.3828 -0.9238
vn -0.0000 -0.7071 0.7072
vn -0.0000 -0.3828 0.9238
vn -0.0000 0.3828 0.9238
vn -0.0000 0.9238 -0.3828
vn -0.0000 0.3828 -0.9238
vn -0.0000 0.9238 0.3828
vn 0.1724 -0.0000 -0.9850
vn 0.0001 -0.0000 -1.0000
vn 0.1724 0.9850 -0.0000
vn 0.1724 -0.0000 0.9850
vn 0.0001 -0.0000 1.0000
vn 0.1724 -0.9850 -0.0000
vn 0.1105 -0.0000 0.9939
vn 0.1104 -0.0000 0.9939
s 1
usemtl Diffuse_51_51_51_100.031
f 1//1 2//1 3//1
f 4//1 5//1 6//1
f 7//1 8//1 9//1
f 10//1 11//1 12//1
f 13//1 14//1 15//1
f 3//1 16//2 1//1
f 3//1 2//1 17//1
f 18//1 13//1 1//1
f 19//1 1//1 16//2
f 20//1 1//1 19//1
f 21//1 1//1 20//1
f 22//1 1//1 21//1
f 23//1 1//1 22//1
f 1//1 23//1 24//1
f 1//1 24//1 25//1
f 1//1 25//1 26//1
f 1//1 26//1 18//1
f 13//1 18//1 27//1
f 13//1 27//1 28//1
f 13//1 28//1 29//1
f 13//1 29//1 30//1
f 13//1 30//1 14//1
f 31//1 14//1 32//1
f 14//1 33//1 32//1
f 34//1 35//1 36//1
f 33//1 35//1 34//1
f 36//1 37//1 38//1
f 38//1 39//1 40//1
f 39//1 41//1 40//1
f 41//1 42//1 43//1
f 42//1 44//1 43//1
f 45//1 46//1 47//1
f 45//1 47//1 48//1
f 48//1 49//1 50//1
f 51//1 50//1 49//1
f 52//1 53//1 51//1
f 54//1 53//1 52//1
f 55//1 54//1 56//1
f 55//1 56//1 57//1
f 58//1 57//1 59//1
f 60//1 61//1 62//1
f 61//1 59//1 62//1
f 60//1 62//1 63//1
f 58//1 59//1 61//1
f 64//1 65//1 66//1
f 67//1 65//1 64//1
f 68//1 69//1 70//1
f 69//1 71//1 70//1
f 72//1 4//1 68//1
f 68//1 73//1 74//1
f 75//1 4//1 72//1
f 76//1 73//1 68//1
f 77//1 4//1 75//1
f 78//1 4//1 77//1
f 79//1 4//1 78//1
f 80//1 4//1 79//1
f 4//1 80//1 81//1
f 76//1 68//1 82//1
f 4//1 83//1 84//1
f 85//1 86//1 63//1
f 85//1 65//1 67//1
f 85//1 67//1 86//1
f 63//1 86//1 60//1
f 5//1 4//1 87//1
f 9//1 88//1 7//1
f 9//1 8//1 89//1
f 90//1 91//1 7//1
f 92//1 7//1 88//1
f 93//1 7//1 92//1
f 94//1 7//1 93//1
f 95//1 7//1 94//1
f 96//1 7//1 95//1
f 7//1 96//1 97//1
f 7//1 97//1 98//1
f 7//1 98//1 99//1
f 7//1 99//1 90//1
f 91//1 90//1 100//1
f 91//1 100//1 101//1
f 91//1 101//1 102//1
f 91//1 102//1 103//1
f 91//1 103//1 69//1
f 91//1 69//1 68//1
f 70//1 82//1 68//1
f 4//1 81//1 83//1
f 84//1 87//1 4//1
f 6//1 5//1 104//1
f 66//1 70//1 71//1
f 66//1 71//1 64//1
f 32//1 33//1 34//1
f 57//1 58//1 55//1
f 56//1 54//1 52//1
f 51//1 53//1 50//1
f 47//1 49//1 48//1
f 105//1 46//1 45//1
f 44//1 42//1 106//1
f 44//1 106//1 105//1
f 43//1 40//1 41//1
f 39//1 38//1 37//1
f 37//1 36//1 35//1
f 107//1 31//1 32//1
f 108//1 31//1 107//1
f 109//1 31//1 108//1
f 31//1 109//1 110//1
f 31//1 111//1 10//1
f 111//1 112//1 10//1
f 113//1 10//1 114//1
f 10//1 115//1 114//1
f 116//1 10//1 113//1
f 117//1 10//1 116//1
f 10//1 117//1 118//1
f 10//1 118//1 119//1
f 112//1 115//1 10//1
f 31//1 110//1 111//1
f 74//1 72//1 68//1
f 120//3 10//1 119//1
f 106//1 46//1 105//1
f 11//1 10//1 120//3
f 11//1 121//1 12//1
f 15//1 14//1 31//1
f 122//4 123//5 124//6
f 124//6 123//5 125//7
f 126//6 122//4 124//6
f 124//6 127//8 128//9
f 129//5 130//10 124//6
f 124//6 130//10 127//8
f 131//11 129//5 124//6
f 124//5 132//5 133//5
f 133//5 134//5 135//5
f 133//5 136//5 137//5
f 124//5 133//5 137//5
f 126//6 124//6 128//9
f 138//5 124//5 139//5
f 140//12 141//12 142//13
f 141//12 140//12 143//13
f 143//13 144//13 145//13
f 143//13 146//13 147//13
f 143//13 145//13 141//12
f 148//14 149//14 150//14
f 149//14 151//14 150//14
f 150//14 152//14 153//14
f 154//15 150//14 155//16
f 154//15 156//17 150//14
f 150//14 157//18 158//19
f 150//14 159//20 157//18
f 160//14 150//14 158//19
f 155//16 150//14 161//21
f 162//14 149//14 163//14
f 164//22 150//14 160//14
f 159//20 150//14 156//17
f 149//14 165//14 166//14
f 167//23 168//23 169//23
f 170//23 171//23 172//23
f 170//23 173//23 174//23
f 175//23 176//23 177//23
f 178//23 179//23 180//23
f 180//23 179//23 181//23
f 182//23 183//23 176//23
f 184//23 181//23 185//23
f 186//23 184//23 187//23
f 181//23 184//23 180//23
f 188//23 189//23 184//23
f 185//23 190//23 184//23
f 174//23 191//23 192//23
f 193//23 170//23 192//23
f 184//23 194//23 180//23
f 195//24 196//23 197//23
f 198//23 195//24 197//23
f 199//23 198//23 197//23
f 200//23 199//23 197//23
f 201//23 200//23 197//23
f 202//23 201//23 197//23
f 203//23 202//23 197//23
f 203//23 169//23 168//23
f 204//23 205//23 206//23
f 204//23 207//23 205//23
f 205//23 207//23 208//23
f 209//23 205//23 208//23
f 209//23 210//23 205//23
f 211//23 210//23 212//23
f 210//23 213//23 214//23
s 0
f 210//25 215//25 216//25
s 1
f 210//23 217//23 215//23
f 218//23 219//23 220//23
f 221//23 218//23 222//23
f 221//23 223//23 218//23
f 221//23 224//23 223//23
f 221//23 225//23 224//23
f 226//23 221//23 227//23
f 226//23 228//23 221//23
f 229//23 227//23 221//23
f 219//23 218//23 210//23
f 221//23 222//23 230//23
f 231//23 219//23 210//23
f 232//23 231//23 210//23
f 233//23 232//23 210//23
f 234//23 233//23 210//23
f 210//23 209//23 234//23
f 210//23 211//23 213//23
f 210//23 216//23 212//23
f 206//23 235//23 236//23
f 236//23 235//23 237//23
f 237//23 235//23 238//23
f 238//23 235//23 239//23
f 240//23 241//23 235//23
f 235//23 241//23 242//23
f 243//23 235//23 244//23
f 244//23 235//23 172//23
f 172//23 235//23 170//23
f 170//23 235//23 176//23
f 176//23 235//23 177//23
f 171//23 170//23 245//23
f 174//23 192//23 170//23
f 176//23 179//23 178//23
f 246//23 186//23 191//23
f 190//23 188//23 184//23
f 191//23 186//23 247//23
f 189//23 248//23 184//23
f 249//23 247//23 186//23
f 187//23 184//23 248//23
f 170//23 193//23 250//23
f 186//23 251//23 252//23
f 253//23 186//23 252//23
f 186//23 254//23 251//23
f 253//23 249//23 186//23
f 255//23 256//23 257//23
f 258//23 255//23 257//23
f 259//23 260//23 261//23
f 261//23 260//23 262//23
f 263//23 264//23 265//23
f 266//23 267//23 268//23
f 269//23 270//23 271//23
f 268//23 272//23 273//23
f 273//23 274//23 275//23
f 275//23 276//23 277//23
f 277//23 278//23 279//23
f 279//23 280//23 281//23
f 263//23 259//23 282//23
f 283//23 281//23 284//23
f 285//23 283//23 286//23
f 287//23 259//23 261//23
f 288//23 254//23 187//23
f 288//23 258//23 257//23
f 288//23 187//23 258//23
f 254//23 186//23 187//23
f 246//23 289//23 186//23
f 206//23 236//23 204//23
f 256//23 255//23 262//23
f 239//23 235//23 242//23
f 260//23 256//23 262//23
f 214//23 205//23 210//23
f 176//23 290//23 291//23
f 221//23 228//23 225//23
f 292//23 293//23 294//23
f 292//23 285//23 293//23
f 285//23 295//23 293//23
f 220//23 222//23 218//23
f 296//23 285//23 297//23
f 298//23 299//23 300//23
f 301//23 298//23 302//23
f 301//23 303//23 298//23
f 301//23 304//23 303//23
f 301//23 305//23 304//23
f 306//23 301//23 307//23
f 306//23 308//23 301//23
s 0
f 309//23 307//23 301//23
s 1
f 299//23 298//23 310//23
f 301//23 302//23 311//23
f 312//23 299//23 313//23
f 314//23 312//23 315//23
f 316//23 314//23 317//23
f 318//23 316//23 319//23
f 320//23 321//23 318//23
f 322//23 323//23 324//23
f 325//23 326//23 323//23
f 327//23 328//23 329//23
f 330//23 331//23 328//23
f 332//23 287//23 331//23
f 333//23 334//23 287//23
f 335//23 266//23 270//23
f 285//23 336//23 283//23
f 337//23 259//23 287//23
f 285//23 292//23 336//23
f 285//23 338//23 295//23
f 285//23 339//23 338//23
f 285//23 340//23 341//23
s 0
f 285//25 296//25 340//25
s 1
f 341//23 339//23 285//23
f 246//23 191//23 174//23
f 245//23 170//23 250//23
f 291//23 179//23 176//23
f 183//23 290//23 176//23
f 176//23 178//23 342//23
f 343//23 344//23 177//23
f 177//23 344//23 345//23
f 346//23 343//23 177//23
f 347//23 346//23 177//23
f 175//23 177//23 345//23
f 177//23 348//23 347//23
f 177//23 349//23 348//23
f 177//23 350//23 349//23
f 169//23 351//23 177//23
f 169//23 352//23 351//23
f 169//23 203//23 352//23
f 352//23 203//23 353//23
f 354//23 355//23 197//23
f 203//23 355//23 356//23
f 357//23 197//23 358//23
f 357//23 354//23 197//23
f 358//23 197//23 359//23
f 359//23 197//23 360//23
f 360//23 197//23 361//23
f 353//23 203//23 356//23
f 362//23 361//23 363//23
f 177//23 351//23 350//23
f 363//23 364//23 365//23
f 361//23 366//23 364//23
f 367//23 271//23 265//23
f 182//23 176//23 175//23
f 368//23 324//23 321//23
f 369//23 329//23 326//23
f 370//23 366//23 361//23
f 371//23 361//23 372//23
f 371//23 370//23 361//23
f 372//23 361//23 373//23
f 308//23 305//23 301//23
f 361//23 364//23 363//23
f 300//23 302//23 298//23
f 374//24 361//23 375//23
f 197//23 355//23 203//23
f 167//23 206//23 168//23
f 240//23 235//23 243//23
f 168//23 206//23 205//23
f 361//23 362//23 360//23
f 373//23 361//23 374//24
f 376//26 377//26 378//26
f 379//26 377//26 380//26
f 381//26 382//26 383//26
f 384//26 385//26 386//26
f 387//5 388//5 389//5
f 390//5 391//5 392//5
f 393//27 394//27 395//27
f 396//27 397//27 398//27
f 398//28 399//28 400//28
f 401//5 402//5 400//5
f 403//5 404//5 405//5
f 406//29 404//29 402//29
f 407//30 403//30 408//30
f 409//31 396//31 393//31
f 410//5 411//5 412//5
f 413//32 414//32 415//32
f 416//5 417//5 415//5
f 416//33 418//33 419//33
f 420//5 421//5 422//5
f 423//7 418//7 424//7
f 425//30 426//30 427//30
f 427//34 428//34 422//34
f 429//35 424//35 421//35
f 430//36 431//36 432//36
f 433//36 431//36 434//36
f 435//14 436//14 437//14
f 438//14 439//14 440//14
f 441//37 442//37 443//37
f 444//20 445//20 446//20
f 446//38 447//38 448//38
f 449//39 450//39 448//39
f 451//14 452//14 453//14
f 454//20 452//20 450//20
f 455//40 451//40 456//40
f 457//41 444//41 441//41
f 458//14 459//14 460//14
f 461//19 462//19 463//19
f 464//42 465//42 463//42
f 464//14 466//14 467//14
f 468//19 469//19 470//19
f 471//43 466//43 472//43
f 473//40 474//40 475//40
f 475//14 476//14 470//14
f 477//44 472//44 469//44
f 478//45 479//45 480//45
f 481//45 482//45 483//45
f 484//45 485//45 486//45
f 487//45 488//45 489//45
f 490//45 491//45 492//45
f 493//36 494//36 495//36
f 496//36 497//36 498//36
f 499//36 500//36 501//36
f 502//36 503//36 504//36
f 505//46 506//47 507//46
f 508//47 509//48 510//47
f 511//48 512//48 513//47
f 514//49 515//49 516//48
f 517//50 518//49 519//49
f 520//51 521//50 522//50
f 523//51 524//50 525//51
f 526//52 527//53 528//52
f 529//52 530//52 531//54
f 532//55 533//55 534//56
f 535//54 536//56 537//56
f 538//56 539//57 540//57
f 541//58 542//59 543//58
f 544//59 545//60 546//59
f 547//60 548//60 549//59
f 550//46 551//46 552//13
f 553//61 554//36 555//36
f 556//61 557//36 558//61
f 559//61 560//61 561//62
f 562//61 563//62 564//62
f 565//62 566//63 567//62
f 568//63 569//63 570//62
f 571//60 572//63 573//63
f 574//60 575//63 576//60
f 577//58 578//59 579//59
f 580//56 581//56 582//57
f 583//54 584//52 585//54
f 586//52 587//53 588//53
f 589//50 590//50 591//49
f 592//48 593//49 594//48
f 595//46 596//13 597//13
f 598//47 599//47 600//46
f 601//13 602//13 603//13
f 604//13 605//13 606//13
f 607//26 608//26 609//26
f 610//26 611//26 612//26
f 613//26 614//26 615//26
f 616//26 617//26 618//26
f 619//45 620//45 621//45
f 622//45 623//45 624//45
f 625//64 626//65 627//64
f 628//65 629//66 630//65
f 631//66 632//66 633//65
f 634//67 635//67 636//66
f 637//68 638//67 639//67
f 640//69 641//68 642//68
f 643//70 644//68 645//70
f 646//71 647//72 648//71
f 649//71 650//71 651//73
f 652//73 653//73 654//74
f 655//73 656//74 657//74
f 658//74 659//75 660//75
f 661//76 662//77 663//76
f 664//77 665//78 666//77
f 667//78 668//78 669//77
f 670//64 671//64 672//79
f 673//80 674//45 675//45
f 676//80 677//45 678//80
f 679//80 680//80 681//81
f 682//80 683//81 684//81
f 685//81 686//82 687//81
f 688//82 689//82 690//81
f 691//78 692//82 693//82
f 694//78 695//82 696//78
f 697//76 698//77 699//77
f 700//74 701//74 702//75
f 703//83 704//71 705//83
f 706//71 707//72 708//72
f 709//68 710//68 711//67
f 712//66 713//67 714//66
f 715//64 716//79 717//79
f 718//65 719//65 720//64
f 721//13 722//13 723//13
f 724//13 725//13 726//13
f 727//13 728//13 729//13
f 730//45 731//45 732//45
f 733//45 734//45 735//45
f 736//45 737//45 738//45
f 739//26 740//26 741//26
f 742//26 743//26 744//26
f 745//13 746//84 747//13
f 748//84 749//84 750//13
f 751//85 752//84 753//84
f 754//85 755//84 756//85
f 757//85 758//85 759//86
f 760//85 761//86 762//86
f 763//86 764//87 765//86
f 766//87 767//87 768//86
f 769//88 770//87 771//87
f 772//88 773//87 774//88
f 775//88 776//88 777//89
f 778//88 779//90 780//90
f 781//91 782//92 783//91
f 784//92 785//92 786//91
f 787//93 788//94 789//94
f 790//95 791//95 792//96
f 793//26 794//97 795//26
f 796//97 797//97 798//26
f 799//98 800//97 801//97
f 802//98 803//97 804//98
f 805//98 806//98 807//99
f 808//98 809//99 810//99
f 811//99 812//100 813//99
f 814//100 815//100 816//99
f 817//96 818//100 819//100
f 820//96 821//100 822//96
f 823//96 824//96 825//95
f 826//101 827//93 828//93
f 829//93 830//102 831//93
f 832//103 833//103 834//93
f 835//92 836//104 837//104
f 838//92 839//92 840//104
f 841//13 842//13 843//13
f 844//13 845//13 846//13
f 847//36 848//36 849//36
f 850//36 851//36 852//36
f 853//36 854//36 855//36
f 856//36 857//36 858//36
f 859//45 860//45 861//45
f 862//45 863//45 864//45
f 865//26 866//105 867//26
f 868//105 869//106 870//105
f 871//106 872//106 873//105
f 874//107 875//107 876//106
f 877//108 878//108 879//107
f 880//109 881//108 882//108
f 883//110 884//109 885//109
f 886//110 887//109 888//110
f 889//111 890//112 891//111
f 892//111 893//111 894//113
f 895//114 896//114 897//115
f 898//114 899//115 900//115
f 901//115 902//116 903//116
f 904//117 905//118 906//117
f 907//118 908//119 909//118
f 910//119 911//119 912//118
f 913//120 914//45 915//45
f 916//120 917//45 918//120
f 919//120 920//120 921//121
f 922//120 923//121 924//121
f 925//121 926//122 927//121
f 928//122 929//122 930//121
f 931//119 932//122 933//122
f 934//119 935//122 936//119
f 937//123 938//118 939//118
f 940//115 941//115 942//116
f 943//124 944//111 945//124
f 946//111 947//125 948//125
f 949//109 950//109 951//108
f 952//107 953//108 954//107
f 955//105 956//26 957//105
f 958//106 959//106 960//107
f 961//13 962//13 963//13
f 964//13 965//13 966//13
f 967//13 968//13 969//13
f 970//45 971//45 972//45
f 973//45 974//45 975//45
f 976//45 977//45 978//45
f 979//26 980//26 981//126
f 982//126 983//26 984//126
f 985//106 986//108 987//106
f 988//106 989//108 990//108
f 991//108 992//108 993//110
f 994//112 995//108 996//112
f 997//127 998//128 999//125
f 1000//123 1001//114 1002//114
f 1003//129 1004//129 1005//125
f 1006//130 1007//45 1008//45
f 1009//130 1010//130 1011//45
f 1012//121 1013//131 1014//132
f 1015//121 1016//131 1017//131
f 1018//119 1019//119 1020//117
f 1021//117 1022//119 1023//117
f 1024//133 1025//123 1026//123
f 1027//45 1028//134 1029//45
f 1030//45 1031//134 1032//134
f 1033//135 1034//135 1035//136
f 1036//136 1037//81 1038//136
f 1039//75 1040//83 1041//83
f 1042//137 1043//78 1044//137
f 1045//138 1046//72 1047//139
f 1048//76 1049//78 1050//78
f 1051//140 1052//36 1053//36
f 1054//140 1055//140 1056//36
f 1057//65 1058//67 1059//141
f 1060//141 1061//67 1062//67
f 1063//67 1064//67 1065//70
f 1066//69 1067//67 1068//69
f 1069//142 1070//72 1071//142
f 1072//143 1073//75 1074//76
f 431//36 1075//36 1076//144
f 1077//144 431//36 1078//144
f 1079//145 1080//60 1081//62
f 1082//145 1083//60 1084//60
f 1085//60 1086//60 1087//58
f 1088//58 1089//60 1090//146
f 1091//147 1092//148 1093//57
f 1094//51 1095//55 1096//55
f 1097//149 1098//149 1099//57
f 1100//150 1101//13 1102//13
f 1103//150 1104//150 1105//13
f 1106//47 1107//151 1108//47
f 1109//47 1110//151 1111//151
f 1112//49 1113//49 1114//51
f 1115//152 1116//49 1117//152
f 1118//153 1119//53 1120//53
f 1121//132 1122//131 1123//121
f 1124//119 1125//117 1126//119
f 1127//117 1128//117 1129//119
f 1130//154 1131//154 1132//155
f 1133//125 1134//156 1135//156
f 1136//108 1137//112 1138//112
f 1139//108 1140//110 1141//108
f 1142//130 1143//130 1144//45
f 1145//126 1146//26 1147//26
f 1148//126 1149//26 1150//126
f 1151//106 1152//106 1153//157
f 1154//106 1155//157 1156//157
f 1157//128 1158//125 1159//113
f 1160//155 1161//156 1162//155
f 1163//130 1164//45 1165//45
f 1166//131 1167//131 1168//121
f 1169//98 1170//158 1171//98
f 1172//100 1173//95 1174//100
f 1175//101 1176//101 1177//100
f 1178//159 1179//159 1180//94
f 1181//91 1182//159 1183//159
f 1184//87 1185//90 1186//90
f 1187//87 1188//90 1189//87
f 1190//160 1191//160 1192//26
f 1193//161 1194//13 1195//13
f 1196//161 1197//13 1198//161
f 1199//85 1200//85 1201//162
f 1202//85 1203//162 1204//162
f 1205//91 1206//91 1207//159
f 1208//94 1209//102 1210//163
f 1211//160 1212//26 1213//26
f 1214//158 1215//158 1216//98
f 1217//141 1218//164 1219//141
f 1220//67 1221//70 1222//67
f 1223//70 1224//69 1225//67
f 1226//165 1227//165 1228//72
f 1229//166 1230//165 1231//165
f 1232//78 1233//137 1234//137
f 1235//78 1236//137 1237//78
f 1238//45 1239//45 1240//134
f 1241//45 1242//134 1243//134
f 1244//81 1245//136 1246//81
f 1247//140 1248//140 1249//36
f 1250//136 1251//135 1252//136
f 1253//140 1254//36 1255//36
f 1256//141 1257//164 1258//164
f 1259//72 1260//165 1261//139
f 1262//166 1263//166 1264//167
f 1265//45 1266//45 1267//130
f 1268//130 1269//45 1270//130
f 1271//131 1272//121 1273//121
f 1274//131 1275//131 1276//121
f 1277//119 1278//117 1279//119
f 1280//119 1281//117 1282//117
f 1283//123 1284//114 1285//114
f 377//26 1286//26 1287//126
f 1288//126 1289//126 377//26
f 1290//106 1291//108 1292//106
f 1293//106 1294//108 1295//108
f 1296//108 1297//108 1298//110
f 1299//112 1300//108 1301//112
f 1302//156 1303//125 1304//128
f 1305//156 1306//156 1307//112
f 1308//133 1309//123 1310//123
f 1311//36 434//36 1312//140
f 1313//140 434//36 1314//140
f 1315//67 1316//141 1317//65
f 1318//67 1319//67 1320//141
f 1321//67 1322//70 1323//67
f 1324//67 1325//70 1326//69
f 1327//139 1328//72 1329//165
f 1330//165 1331//69 1332//165
f 1333//75 1334//83 1335//83
f 1336//45 1337//45 1338//134
f 1339//134 1340//45 1341//134
f 1342//136 1343//81 1344//81
f 1345//137 1346//78 1347//137
f 1348//76 1349//78 1350//78
f 1351//143 1352//75 1353//76
f 1354//136 1355//81 1356//136
f 1357//150 1358//150 1359//13
f 1360//151 1361//168 1362//47
f 1363//152 1364//49 1365//49
f 1366//152 1367//49 1368//152
f 1369//153 1370//53 1371//153
f 1372//153 1373//153 1374//57
f 1375//58 1376//146 1377//60
f 1378//36 1379//144 1380//36
f 1381//144 1382//144 1383//36
f 1384//169 1385//145 1386//145
f 1387//169 1388//145 1389//169
f 1390//60 1391//60 1392//58
f 1393//57 1394//57 1395//153
f 1396//53 1397//153 1398//53
f 1399//150 1400//13 1401//13
f 1402//151 1403//151 1404//168
f 1405//13 1406//161 1407//13
f 1408//13 1409//161 1410//161
f 1411//85 1412//85 1413//162
f 1414//162 1415//85 1416//162
f 1417//91 1418//102 1419//102
f 1420//90 1421//87 1422//90
f 1423//170 1424//94 1425//163
f 1426//90 1427//87 1428//87
f 1429//160 1430//26 380//26
f 1431//160 1432//160 380//26
f 1433//98 1434//100 1435//98
f 1436//98 1437//100 1438//100
f 1439//100 1440//100 1441//95
f 1442//95 1443//100 1444//95
f 1445//171 1446//94 1447//171
f 1448//159 1449//91 1450//91
f 1451//36 1452//36 1453//36
f 1452//36 1454//36 1455//36
f 1456//45 1457//45 1458//45
f 1459//45 1460//45 1458//45
f 1461//45 1462//45 1463//45
f 1464//36 1465//36 1466//36
f 1467//36 1468//36 1464//36
f 1469//36 1464//36 1470//36
f 1471//45 1472//45 1473//45
f 1474//45 1475//45 1476//45
f 1477//26 1478//26 1479//26
f 1480//172 1481//172 1479//172
f 1482//26 1483//26 1484//26
f 1485//45 1486//45 1487//45
f 1488//45 1489//45 1485//45
f 1490//173 1485//173 1491//173
f 1492//26 1493//26 1494//26
f 1495//26 1496//26 1497//26
f 1498//13 1499//13 1500//13
f 1501//13 1502//13 1500//13
f 1503//13 1504//13 1505//13
f 1506//26 1507//26 1508//26
f 1509//174 1510//174 1506//174
f 1511//26 1506//26 1512//26
f 1513//13 1514//13 1515//13
f 1516//13 1517//13 1518//13
f 1519//36 1520//36 1521//36
f 1522//36 1523//36 1521//36
f 1524//36 1525//36 1526//36
f 1527//81 1528//81 1529//45
f 1530//78 1528//81 1527//81
f 1531//76 1532//175 1530//78
f 1533//76 1532//175 1531//76
f 1534//165 1533//76 1535//73
f 1534//165 1535//73 1536//69
f 1537//69 1536//69 1538//164
f 1537//69 1538//164 1539//67
f 1539//67 1540//65 1541//65
f 1540//65 1542//36 1541//65
f 1542//36 1543//62 1544//36
f 1543//62 1545//62 1544//36
f 1546//60 1547//169 1545//62
f 1548//146 1547//169 1546//60
f 1549//176 1550//146 1548//146
f 1551//54 1550//146 1549//176
f 1552//51 1551//54 1553//51
f 1552//51 1553//51 1554//177
f 1555//49 1554//177 1556//47
f 1555//49 1556//47 1557//47
f 1557//47 1558//13 1559//13
f 1558//13 1560//85 1559//13
f 1561//85 1562//162 1563//178
f 1563//178 1562//162 1564//89
f 1565//26 1566//26 1567//98
f 1568//106 1569//106 1566//26
f 1570//179 1571//108 1569//106
f 1572//112 1573//112 1571//108
f 1574//114 1573//112 1572//112
f 1575//123 1576//114 1574//114
f 1577//123 1576//114 1575//123
f 1578//119 1577//123 1579//180
f 1553//51 1551//54 1549//176
f 1580//121 1581//121 1529//45
f 1578//119 1581//121 1580//121
f 1579//180 1581//121 1578//119
f 1575//123 1579//180 1577//123
f 1573//112 1574//114 1576//114
f 1571//108 1570//179 1572//112
f 1569//106 1568//106 1570//179
f 1580//121 1529//45 1582//45
f 1566//26 1565//26 1568//106
f 1567//98 1583//98 1565//26
f 1584//181 1583//98 1567//98
f 1585//100 1583//98 1584//181
f 1585//100 1584//181 1586//101
f 1585//100 1586//101 1587//95
f 1586//101 1588//102 1587//95
f 1588//102 1589//104 1587//95
f 1590//89 1589//104 1588//102
f 1564//89 1589//104 1590//89
f 1564//89 1590//89 1563//178
f 1562//162 1561//85 1560//85
f 1561//85 1559//13 1560//85
f 1558//13 1557//47 1556//47
f 1554//177 1555//49 1552//51
f 1547//169 1548//146 1550//146
f 1545//62 1543//62 1546//60
f 1544//36 1541//65 1542//36
f 1540//65 1539//67 1538//164
f 1536//69 1537//69 1534//165
f 1531//76 1535//73 1533//76
f 1528//81 1530//78 1532//175
f 1528//81 1582//45 1529//45
f 1591//13 1592//13 1593//13
f 1594//13 1595//13 1596//13
f 1597//13 1598//13 1599//13
f 1600//23 1601//23 1602//23
f 1603//23 1604//23 1605//23
f 1606//23 1607//23 1608//23
f 1600//23 1609//23 1610//23
f 1611//23 1612//23 1613//23
f 1614//23 1615//23 1616//23
f 1617//23 1618//23 1619//23
f 1620//23 1621//23 1622//23
f 1623//23 1624//23 1625//23
f 1626//23 1627//23 1628//23
f 1629//23 1630//23 1631//23
f 1632//23 1633//23 1634//23
f 1635//23 1636//23 1637//23
f 1638//23 1639//23 1640//23
f 1641//23 1642//23 1600//23
f 1643//23 1644//23 1600//23
f 1645//23 1646//23 1647//23
f 1648//23 1649//23 1650//23
f 1651//23 1652//23 1653//23
f 1654//23 1655//23 1656//23
f 1657//23 1658//23 1659//23
f 1659//23 1660//23 1661//23
f 1662//23 1663//23 1659//23
f 1664//23 1665//23 1659//23
f 1666//23 1667//23 1659//23
f 1668//23 1669//23 1670//23
f 1671//23 1672//23 1673//23
f 1659//23 1674//23 1675//23
f 1626//23 1676//23 1677//23
f 1678//23 1679//23 1626//23
f 1680//23 1681//23 1626//23
f 1682//23 1683//23 1684//23
f 1685//23 1686//23 1687//23
f 1688//23 1689//23 1690//23
f 1691//23 1692//23 1693//23
f 1617//23 1694//23 1695//23
f 1617//23 1696//23 1697//23
f 1698//23 1699//23 1617//23
f 1700//23 1701//23 1617//23
f 1702//23 1703//23 1704//23
f 1705//23 1706//23 1707//23
f 1708//23 1709//23 1710//23
f 1711//23 1712//23 1713//23
f 1600//23 1714//23 1715//23
f 1626//23 1716//23 1717//23
f 1600//23 1718//23 1719//23
f 1626//23 1720//23 1721//23
f 1722//23 1723//23 1617//23
f 1724//23 1725//23 1726//23
f 1727//24 1728//24 1729//24
f 1730//23 1731//23 1732//23
f 1733//23 1734//23 1735//23
f 1736//23 1737//23 1738//23
f 1739//23 1740//23 1741//23
f 1742//23 1743//23 1744//23
f 1745//23 1746//23 1747//23
f 1748//23 1749//23 1750//23
f 1751//23 1752//23 1753//23
f 1754//23 1755//23 1756//23
f 1757//23 1758//23 1759//23
f 1760//23 1761//23 1762//23
f 1763//23 1764//23 1765//23
f 1766//23 1767//23 1768//23
f 1769//23 1770//23 1771//23
f 1772//23 1773//23 1774//23
f 1775//23 1776//23 1777//23
f 1778//23 1779//23 1780//23
f 1781//23 1782//23 1783//23
f 1784//23 1785//23 1786//23
f 1787//23 1788//23 1789//23
f 1790//23 1791//23 1792//23
f 1793//23 1794//23 1795//23
f 1796//23 1797//23 1798//23
f 1799//23 1800//23 1801//23
f 1802//23 1803//23 1804//23
f 1805//25 1806//25 1807//25
f 1808//23 1809//23 1810//23
f 1811//23 1812//23 1813//23
f 1814//182 1815//182 1816//182
f 1817//182 1818//182 1471//45
f 1471//183 1819//182 1820//182
f 1821//184 1822//184 1823//184
f 1824//184 1825//184 1492//26
f 1492//26 1826//184 1827//184
f 1828//185 1829//185 1830//185
f 1831//185 1832//185 1513//13
f 1513//186 1833//185 1834//185
f 1835//187 1836//187 1452//36
f 1837//187 1838//187 1451//36
f 1451//36 1839//187 1452//36
f 1840//45 1841//45 1842//45
f 1843//45 1844//45 1842//45
f 1845//45 1840//45 1846//45
f 1847//36 1848//36 1849//36
f 1850//36 1851//36 1852//36
f 1853//13 1854//13 1855//13
f 1856//13 1857//13 1858//13
f 1859//26 1860//26 1861//26
f 1862//26 1863//26 1864//26
f 1865//23 1866//23 1867//23
f 1868//23 1869//23 1870//23
f 1871//188 1872//188 1873//188
f 1872//189 1874//189 1875//189
f 1876//188 1872//188 1877//188
f 1872//189 1878//189 1879//189
f 1880//1 1881//1 1882//1
f 1883//1 1884//1 1885//1
f 1886//1 1887//1 1888//1
f 1889//1 1890//1 1891//1
