# Blender 4.4.3
# www.blender.org
mtllib Mesh_11.mtl
o Mesh_11
v 0.015460 0.009401 -0.014803
v 0.015460 0.009081 -0.014803
v 0.015445 0.009401 -0.014803
v 0.015445 0.009081 -0.014803
v 0.015460 0.009441 -0.014443
v 0.015460 0.009441 -0.014763
v 0.015445 0.009441 -0.014443
v 0.015445 0.009441 -0.014763
v 0.015460 0.009081 -0.014403
v 0.015460 0.009401 -0.014403
v 0.015445 0.009081 -0.014403
v 0.015445 0.009401 -0.014403
v 0.015460 0.009041 -0.014763
v 0.015460 0.009041 -0.014443
v 0.015445 0.009041 -0.014763
v 0.015445 0.009041 -0.014443
v 0.015485 0.009401 -0.014778
v 0.015485 0.009416 -0.014763
v 0.015485 0.009416 -0.014443
v 0.015485 0.009416 -0.014766
v 0.015485 0.009415 -0.014769
v 0.015485 0.009414 -0.014771
v 0.015485 0.009412 -0.014773
v 0.015485 0.009407 -0.014777
v 0.015485 0.009409 -0.014775
v 0.015485 0.009404 -0.014778
v 0.015485 0.009081 -0.014778
v 0.015485 0.009066 -0.014763
v 0.015485 0.009078 -0.014778
v 0.015485 0.009073 -0.014775
v 0.015485 0.009075 -0.014777
v 0.015485 0.009071 -0.014773
v 0.015485 0.009067 -0.014769
v 0.015485 0.009069 -0.014771
v 0.015485 0.009066 -0.014766
v 0.015485 0.009066 -0.014443
v 0.015485 0.009081 -0.014428
v 0.015485 0.009067 -0.014437
v 0.015485 0.009066 -0.014440
v 0.015485 0.009069 -0.014434
v 0.015485 0.009071 -0.014432
v 0.015485 0.009075 -0.014429
v 0.015485 0.009073 -0.014430
v 0.015485 0.009078 -0.014428
v 0.015485 0.009401 -0.014428
v 0.015485 0.009407 -0.014429
v 0.015485 0.009404 -0.014428
v 0.015485 0.009409 -0.014430
v 0.015485 0.009412 -0.014432
v 0.015485 0.009415 -0.014437
v 0.015485 0.009414 -0.014434
v 0.015485 0.009416 -0.014440
v 0.015445 0.009041 -0.014763
v 0.015445 0.009401 -0.014803
v 0.015445 0.009081 -0.014803
v 0.015445 0.009041 -0.014763
v 0.015445 0.009081 -0.014803
v 0.015445 0.009073 -0.014802
v 0.015445 0.009041 -0.014763
v 0.015445 0.009066 -0.014800
v 0.015445 0.009041 -0.014763
v 0.015445 0.009059 -0.014796
v 0.015445 0.009041 -0.014763
v 0.015445 0.009053 -0.014791
v 0.015445 0.009044 -0.014778
v 0.015445 0.009041 -0.014763
v 0.015445 0.009048 -0.014785
v 0.015445 0.009041 -0.014763
v 0.015445 0.009042 -0.014771
v 0.015445 0.009041 -0.014763
v 0.015445 0.009041 -0.014763
v 0.015445 0.009041 -0.014443
v 0.015445 0.009401 -0.014803
v 0.015445 0.009041 -0.014443
v 0.015445 0.009081 -0.014403
v 0.015445 0.009401 -0.014803
v 0.015445 0.009041 -0.014443
v 0.015445 0.009042 -0.014435
v 0.015445 0.009081 -0.014403
v 0.015445 0.009044 -0.014428
v 0.015445 0.009081 -0.014403
v 0.015445 0.009081 -0.014403
v 0.015445 0.009048 -0.014421
v 0.015445 0.009053 -0.014415
v 0.015445 0.009066 -0.014406
v 0.015445 0.009081 -0.014403
v 0.015445 0.009059 -0.014410
v 0.015445 0.009081 -0.014403
v 0.015445 0.009073 -0.014404
v 0.015445 0.009081 -0.014403
v 0.015445 0.009081 -0.014403
v 0.015445 0.009401 -0.014403
v 0.015445 0.009401 -0.014803
v 0.015445 0.009401 -0.014403
v 0.015445 0.009441 -0.014443
v 0.015445 0.009401 -0.014803
v 0.015445 0.009441 -0.014443
v 0.015445 0.009409 -0.014404
v 0.015445 0.009416 -0.014406
v 0.015445 0.009441 -0.014443
v 0.015445 0.009423 -0.014410
v 0.015445 0.009441 -0.014443
v 0.015445 0.009429 -0.014415
v 0.015445 0.009438 -0.014428
v 0.015445 0.009441 -0.014443
v 0.015445 0.009434 -0.014421
v 0.015445 0.009441 -0.014443
v 0.015445 0.009440 -0.014435
v 0.015445 0.009441 -0.014443
v 0.015445 0.009441 -0.014443
v 0.015445 0.009401 -0.014403
v 0.015445 0.009441 -0.014763
v 0.015445 0.009401 -0.014803
v 0.015445 0.009441 -0.014443
v 0.015445 0.009401 -0.014803
v 0.015445 0.009440 -0.014771
v 0.015445 0.009438 -0.014778
v 0.015445 0.009401 -0.014803
v 0.015445 0.009434 -0.014785
v 0.015445 0.009401 -0.014803
v 0.015445 0.009429 -0.014791
v 0.015445 0.009416 -0.014800
v 0.015445 0.009401 -0.014803
v 0.015445 0.009423 -0.014796
v 0.015445 0.009401 -0.014803
v 0.015445 0.009409 -0.014802
v 0.015445 0.009401 -0.014803
v 0.015445 0.009401 -0.014803
v 0.015445 0.009441 -0.014763
v 0.015445 0.009081 -0.014403
v 0.015445 0.009440 -0.014771
v 0.015460 0.009440 -0.014771
v 0.015445 0.009438 -0.014778
v 0.015445 0.009438 -0.014778
v 0.015460 0.009438 -0.014778
v 0.015445 0.009434 -0.014785
v 0.015445 0.009434 -0.014785
v 0.015460 0.009434 -0.014785
v 0.015445 0.009429 -0.014791
v 0.015460 0.009429 -0.014791
v 0.015445 0.009423 -0.014796
v 0.015460 0.009423 -0.014796
v 0.015445 0.009416 -0.014800
v 0.015460 0.009416 -0.014800
v 0.015445 0.009409 -0.014802
v 0.015460 0.009409 -0.014802
v 0.015445 0.009409 -0.014802
v 0.015445 0.009409 -0.014802
v 0.015445 0.009416 -0.014800
v 0.015445 0.009416 -0.014800
v 0.015445 0.009423 -0.014796
v 0.015445 0.009423 -0.014796
v 0.015445 0.009429 -0.014791
v 0.015445 0.009429 -0.014791
v 0.015445 0.009434 -0.014785
v 0.015445 0.009440 -0.014771
v 0.015445 0.009438 -0.014778
v 0.015445 0.009409 -0.014404
v 0.015460 0.009409 -0.014404
v 0.015445 0.009416 -0.014406
v 0.015445 0.009409 -0.014404
v 0.015445 0.009423 -0.014410
v 0.015445 0.009416 -0.014406
v 0.015460 0.009416 -0.014406
v 0.015460 0.009423 -0.014410
v 0.015445 0.009423 -0.014410
v 0.015460 0.009429 -0.014415
v 0.015445 0.009429 -0.014415
v 0.015445 0.009434 -0.014421
v 0.015445 0.009429 -0.014415
v 0.015460 0.009434 -0.014421
v 0.015445 0.009438 -0.014428
v 0.015445 0.009434 -0.014421
v 0.015445 0.009440 -0.014435
v 0.015460 0.009440 -0.014435
v 0.015460 0.009438 -0.014428
v 0.015445 0.009440 -0.014435
v 0.015445 0.009438 -0.014428
v 0.015445 0.009440 -0.014435
v 0.015445 0.009438 -0.014428
v 0.015445 0.009434 -0.014421
v 0.015445 0.009423 -0.014410
v 0.015445 0.009429 -0.014415
v 0.015445 0.009416 -0.014406
v 0.015445 0.009042 -0.014435
v 0.015460 0.009042 -0.014435
v 0.015445 0.009044 -0.014428
v 0.015445 0.009044 -0.014428
v 0.015460 0.009044 -0.014428
v 0.015445 0.009048 -0.014421
v 0.015445 0.009048 -0.014421
v 0.015460 0.009048 -0.014421
v 0.015445 0.009053 -0.014415
v 0.015460 0.009053 -0.014415
v 0.015445 0.009059 -0.014410
v 0.015445 0.009053 -0.014415
v 0.015445 0.009066 -0.014406
v 0.015445 0.009059 -0.014410
v 0.015460 0.009059 -0.014410
v 0.015460 0.009066 -0.014406
v 0.015445 0.009066 -0.014406
v 0.015460 0.009073 -0.014404
v 0.015445 0.009073 -0.014404
v 0.015445 0.009073 -0.014404
v 0.015445 0.009073 -0.014404
v 0.015445 0.009066 -0.014406
v 0.015445 0.009042 -0.014435
v 0.015445 0.009059 -0.014410
v 0.015445 0.009048 -0.014421
v 0.015445 0.009053 -0.014415
v 0.015445 0.009044 -0.014428
v 0.015445 0.009073 -0.014802
v 0.015460 0.009073 -0.014802
v 0.015445 0.009066 -0.014800
v 0.015445 0.009073 -0.014802
v 0.015460 0.009059 -0.014796
v 0.015445 0.009059 -0.014796
v 0.015460 0.009066 -0.014800
v 0.015460 0.009053 -0.014791
v 0.015445 0.009053 -0.014791
v 0.015460 0.009048 -0.014785
v 0.015445 0.009048 -0.014785
v 0.015460 0.009044 -0.014778
v 0.015445 0.009044 -0.014778
v 0.015445 0.009042 -0.014771
v 0.015460 0.009042 -0.014771
v 0.015445 0.009042 -0.014771
v 0.015445 0.009042 -0.014771
v 0.015445 0.009044 -0.014778
v 0.015445 0.009044 -0.014778
v 0.015445 0.009048 -0.014785
v 0.015445 0.009048 -0.014785
v 0.015445 0.009053 -0.014791
v 0.015445 0.009066 -0.014800
v 0.015445 0.009059 -0.014796
v 0.015445 0.009066 -0.014800
v 0.015445 0.009053 -0.014791
v 0.015445 0.009059 -0.014796
v 0.015484 0.009401 -0.014783
v 0.015484 0.009081 -0.014783
v 0.015483 0.009401 -0.014787
v 0.015483 0.009081 -0.014787
v 0.015480 0.009401 -0.014792
v 0.015480 0.009081 -0.014792
v 0.015477 0.009401 -0.014796
v 0.015477 0.009081 -0.014796
v 0.015474 0.009401 -0.014799
v 0.015474 0.009081 -0.014799
v 0.015464 0.009081 -0.014802
v 0.015464 0.009401 -0.014802
v 0.015469 0.009081 -0.014801
v 0.015469 0.009401 -0.014801
v 0.015462 0.009430 -0.014790
v 0.015463 0.009427 -0.014793
v 0.015473 0.009407 -0.014798
v 0.015471 0.009408 -0.014799
v 0.015473 0.009414 -0.014797
v 0.015475 0.009412 -0.014796
v 0.015474 0.009418 -0.014794
v 0.015475 0.009406 -0.014797
v 0.015465 0.009438 -0.014776
v 0.015468 0.009438 -0.014776
v 0.015465 0.009436 -0.014780
v 0.015463 0.009440 -0.014772
v 0.015467 0.009440 -0.014767
v 0.015483 0.009424 -0.014768
v 0.015482 0.009426 -0.014772
v 0.015483 0.009426 -0.014763
v 0.015484 0.009420 -0.014770
v 0.015483 0.009420 -0.014778
v 0.015469 0.009439 -0.014770
v 0.015471 0.009438 -0.014767
v 0.015471 0.009436 -0.014776
v 0.015469 0.009439 -0.014763
v 0.015476 0.009433 -0.014774
v 0.015478 0.009431 -0.014774
v 0.015478 0.009429 -0.014780
v 0.015475 0.009435 -0.014768
v 0.015478 0.009433 -0.014768
v 0.015479 0.009431 -0.014766
v 0.015480 0.009429 -0.014773
v 0.015477 0.009434 -0.014763
v 0.015462 0.009411 -0.014801
v 0.015463 0.009408 -0.014802
v 0.015466 0.009423 -0.014795
v 0.015468 0.009422 -0.014795
v 0.015465 0.009419 -0.014798
v 0.015465 0.009428 -0.014791
v 0.015469 0.009427 -0.014791
v 0.015462 0.009441 -0.014766
v 0.015464 0.009441 -0.014763
v 0.015462 0.009436 -0.014783
v 0.015463 0.009433 -0.014786
v 0.015463 0.009438 -0.014777
v 0.015463 0.009417 -0.014799
v 0.015465 0.009413 -0.014800
v 0.015479 0.009404 -0.014794
v 0.015475 0.009415 -0.014794
v 0.015473 0.009424 -0.014791
v 0.015476 0.009422 -0.014790
v 0.015474 0.009436 -0.014769
v 0.015474 0.009435 -0.014774
v 0.015474 0.009437 -0.014763
v 0.015463 0.009422 -0.014797
v 0.015483 0.009414 -0.014782
v 0.015484 0.009410 -0.014780
v 0.015483 0.009409 -0.014785
v 0.015484 0.009417 -0.014774
v 0.015472 0.009434 -0.014778
v 0.015472 0.009431 -0.014785
v 0.015469 0.009436 -0.014779
v 0.015475 0.009432 -0.014779
v 0.015480 0.009430 -0.014763
v 0.015466 0.009408 -0.014801
v 0.015468 0.009409 -0.014801
v 0.015473 0.009428 -0.014787
v 0.015480 0.009419 -0.014786
v 0.015479 0.009417 -0.014789
v 0.015478 0.009423 -0.014786
v 0.015481 0.009415 -0.014787
v 0.015471 0.009427 -0.014790
v 0.015471 0.009420 -0.014795
v 0.015467 0.009432 -0.014787
v 0.015484 0.009421 -0.014763
v 0.015482 0.009409 -0.014789
v 0.015480 0.009425 -0.014779
v 0.015469 0.009414 -0.014799
v 0.015476 0.009428 -0.014783
v 0.015478 0.009411 -0.014793
v 0.015462 0.009054 -0.014792
v 0.015463 0.009051 -0.014788
v 0.015473 0.009046 -0.014769
v 0.015471 0.009045 -0.014769
v 0.015473 0.009047 -0.014776
v 0.015474 0.009045 -0.014763
v 0.015475 0.009048 -0.014774
v 0.015474 0.009050 -0.014780
v 0.015475 0.009047 -0.014768
v 0.015465 0.009068 -0.014800
v 0.015468 0.009068 -0.014799
v 0.015465 0.009064 -0.014798
v 0.015463 0.009072 -0.014802
v 0.015467 0.009077 -0.014801
v 0.015483 0.009076 -0.014786
v 0.015482 0.009072 -0.014788
v 0.015484 0.009074 -0.014781
v 0.015483 0.009066 -0.014782
v 0.015469 0.009074 -0.014800
v 0.015471 0.009077 -0.014800
v 0.015471 0.009068 -0.014798
v 0.015476 0.009070 -0.014795
v 0.015478 0.009070 -0.014793
v 0.015478 0.009064 -0.014790
v 0.015475 0.009076 -0.014797
v 0.015478 0.009076 -0.014794
v 0.015479 0.009078 -0.014793
v 0.015480 0.009071 -0.014791
v 0.015462 0.009043 -0.014773
v 0.015463 0.009042 -0.014769
v 0.015466 0.009049 -0.014785
v 0.015468 0.009049 -0.014784
v 0.015465 0.009046 -0.014781
v 0.015465 0.009053 -0.014790
v 0.015469 0.009053 -0.014789
v 0.015462 0.009078 -0.014803
v 0.015462 0.009061 -0.014797
v 0.015463 0.009058 -0.014795
v 0.015463 0.009067 -0.014800
v 0.015463 0.009045 -0.014779
v 0.015465 0.009044 -0.014775
v 0.015479 0.009050 -0.014766
v 0.015477 0.009048 -0.014763
v 0.015480 0.009052 -0.014763
v 0.015475 0.009050 -0.014777
v 0.015473 0.009053 -0.014785
v 0.015476 0.009054 -0.014784
v 0.015474 0.009075 -0.014798
v 0.015474 0.009070 -0.014796
v 0.015463 0.009047 -0.014784
v 0.015483 0.009062 -0.014775
v 0.015484 0.009064 -0.014772
v 0.015483 0.009059 -0.014771
v 0.015484 0.009070 -0.014779
v 0.015472 0.009066 -0.014796
v 0.015472 0.009059 -0.014793
v 0.015469 0.009065 -0.014797
v 0.015475 0.009065 -0.014794
v 0.015466 0.009043 -0.014770
v 0.015468 0.009043 -0.014771
v 0.015469 0.009043 -0.014763
v 0.015473 0.009057 -0.014789
v 0.015480 0.009058 -0.014781
v 0.015479 0.009055 -0.014778
v 0.015478 0.009058 -0.014785
v 0.015481 0.009057 -0.014777
v 0.015471 0.009054 -0.014789
v 0.015471 0.009049 -0.014782
v 0.015467 0.009057 -0.014793
v 0.015464 0.009042 -0.014763
v 0.015482 0.009055 -0.014770
v 0.015483 0.009057 -0.014763
v 0.015480 0.009065 -0.014787
v 0.015469 0.009045 -0.014775
v 0.015484 0.009061 -0.014763
v 0.015476 0.009061 -0.014790
v 0.015478 0.009051 -0.014773
v 0.015484 0.009421 -0.014443
v 0.015483 0.009426 -0.014443
v 0.015480 0.009430 -0.014443
v 0.015477 0.009434 -0.014443
v 0.015464 0.009441 -0.014443
v 0.015469 0.009439 -0.014443
v 0.015474 0.009437 -0.014443
v 0.015464 0.009042 -0.014443
v 0.015469 0.009043 -0.014443
v 0.015474 0.009045 -0.014443
v 0.015477 0.009048 -0.014443
v 0.015480 0.009052 -0.014443
v 0.015484 0.009061 -0.014443
v 0.015483 0.009057 -0.014443
v 0.015462 0.009429 -0.014414
v 0.015463 0.009432 -0.014417
v 0.015473 0.009437 -0.014437
v 0.015471 0.009438 -0.014436
v 0.015473 0.009435 -0.014429
v 0.015475 0.009435 -0.014432
v 0.015474 0.009433 -0.014426
v 0.015475 0.009435 -0.014438
v 0.015465 0.009414 -0.014406
v 0.015468 0.009414 -0.014406
v 0.015465 0.009419 -0.014408
v 0.015463 0.009410 -0.014404
v 0.015467 0.009406 -0.014404
v 0.015483 0.009407 -0.014420
v 0.015482 0.009410 -0.014418
v 0.015483 0.009401 -0.014418
v 0.015484 0.009408 -0.014424
v 0.015483 0.009416 -0.014424
v 0.015469 0.009408 -0.014405
v 0.015471 0.009405 -0.014406
v 0.015471 0.009414 -0.014408
v 0.015469 0.009401 -0.014405
v 0.015476 0.009412 -0.014411
v 0.015478 0.009412 -0.014413
v 0.015478 0.009418 -0.014415
v 0.015475 0.009407 -0.014409
v 0.015478 0.009406 -0.014411
v 0.015479 0.009405 -0.014413
v 0.015480 0.009411 -0.014415
v 0.015477 0.009401 -0.014410
v 0.015462 0.009440 -0.014433
v 0.015463 0.009440 -0.014436
v 0.015466 0.009433 -0.014421
v 0.015468 0.009434 -0.014422
v 0.015465 0.009436 -0.014425
v 0.015465 0.009430 -0.014416
v 0.015469 0.009429 -0.014417
v 0.015462 0.009404 -0.014403
v 0.015464 0.009401 -0.014403
v 0.015462 0.009421 -0.014408
v 0.015463 0.009424 -0.014411
v 0.015463 0.009415 -0.014406
v 0.015463 0.009438 -0.014427
v 0.015465 0.009439 -0.014431
v 0.015479 0.009432 -0.014440
v 0.015475 0.009432 -0.014429
v 0.015473 0.009429 -0.014420
v 0.015476 0.009428 -0.014422
v 0.015474 0.009407 -0.014408
v 0.015474 0.009413 -0.014409
v 0.015474 0.009401 -0.014407
v 0.015463 0.009435 -0.014422
v 0.015483 0.009420 -0.014430
v 0.015484 0.009418 -0.014434
v 0.015483 0.009424 -0.014435
v 0.015484 0.009412 -0.014426
v 0.015472 0.009417 -0.014410
v 0.015472 0.009423 -0.014413
v 0.015469 0.009418 -0.014408
v 0.015475 0.009417 -0.014412
v 0.015480 0.009401 -0.014414
v 0.015466 0.009440 -0.014436
v 0.015468 0.009439 -0.014435
v 0.015473 0.009425 -0.014416
v 0.015480 0.009424 -0.014425
v 0.015479 0.009427 -0.014427
v 0.015478 0.009425 -0.014421
v 0.015481 0.009425 -0.014429
v 0.015471 0.009428 -0.014417
v 0.015471 0.009434 -0.014424
v 0.015467 0.009425 -0.014412
v 0.015484 0.009401 -0.014423
v 0.015482 0.009427 -0.014435
v 0.015480 0.009418 -0.014419
v 0.015469 0.009437 -0.014430
v 0.015476 0.009421 -0.014416
v 0.015478 0.009431 -0.014433
v 0.015462 0.009052 -0.014415
v 0.015463 0.009056 -0.014412
v 0.015473 0.009075 -0.014407
v 0.015471 0.009075 -0.014406
v 0.015473 0.009068 -0.014409
v 0.015474 0.009081 -0.014407
v 0.015475 0.009070 -0.014409
v 0.015474 0.009064 -0.014411
v 0.015475 0.009076 -0.014409
v 0.015465 0.009044 -0.014430
v 0.015468 0.009045 -0.014430
v 0.015465 0.009046 -0.014425
v 0.015463 0.009042 -0.014434
v 0.015467 0.009043 -0.014438
v 0.015483 0.009058 -0.014437
v 0.015482 0.009056 -0.014434
v 0.015484 0.009063 -0.014436
v 0.015483 0.009062 -0.014428
v 0.015469 0.009044 -0.014436
v 0.015471 0.009044 -0.014439
v 0.015471 0.009046 -0.014430
v 0.015476 0.009049 -0.014432
v 0.015478 0.009051 -0.014432
v 0.015478 0.009054 -0.014426
v 0.015475 0.009047 -0.014437
v 0.015478 0.009050 -0.014438
v 0.015479 0.009051 -0.014439
v 0.015480 0.009053 -0.014433
v 0.015462 0.009071 -0.014404
v 0.015463 0.009075 -0.014404
v 0.015466 0.009059 -0.014411
v 0.015468 0.009060 -0.014410
v 0.015465 0.009063 -0.014408
v 0.015465 0.009054 -0.014414
v 0.015469 0.009055 -0.014415
v 0.015462 0.009041 -0.014440
v 0.015462 0.009047 -0.014423
v 0.015463 0.009049 -0.014420
v 0.015463 0.009044 -0.014429
v 0.015463 0.009065 -0.014406
v 0.015465 0.009069 -0.014405
v 0.015479 0.009078 -0.014412
v 0.015477 0.009081 -0.014410
v 0.015480 0.009081 -0.014414
v 0.015475 0.009067 -0.014412
v 0.015473 0.009059 -0.014415
v 0.015476 0.009060 -0.014416
v 0.015474 0.009046 -0.014437
v 0.015474 0.009048 -0.014431
v 0.015463 0.009060 -0.014409
v 0.015483 0.009069 -0.014424
v 0.015484 0.009072 -0.014426
v 0.015483 0.009073 -0.014420
v 0.015484 0.009065 -0.014432
v 0.015472 0.009048 -0.014427
v 0.015472 0.009051 -0.014421
v 0.015469 0.009047 -0.014426
v 0.015475 0.009050 -0.014427
v 0.015466 0.009074 -0.014404
v 0.015468 0.009073 -0.014405
v 0.015469 0.009081 -0.014405
v 0.015473 0.009055 -0.014419
v 0.015480 0.009063 -0.014420
v 0.015479 0.009066 -0.014417
v 0.015478 0.009059 -0.014419
v 0.015481 0.009067 -0.014419
v 0.015471 0.009055 -0.014416
v 0.015471 0.009062 -0.014410
v 0.015467 0.009051 -0.014419
v 0.015464 0.009081 -0.014403
v 0.015482 0.009074 -0.014417
v 0.015483 0.009081 -0.014418
v 0.015480 0.009057 -0.014426
v 0.015469 0.009069 -0.014407
v 0.015484 0.009081 -0.014423
v 0.015476 0.009054 -0.014423
v 0.015478 0.009071 -0.014413
vn -0.0000 -0.0000 -1.0000
vn -0.0000 1.0000 -0.0000
vn -0.0000 -0.0000 1.0000
vn -0.0000 -1.0000 -0.0000
vn 1.0000 -0.0000 -0.0000
vn 1.0000 -0.0001 -0.0000
vn 1.0000 -0.0000 0.0001
vn -1.0000 -0.0000 -0.0000
vn -1.0000 0.0002 -0.0000
vn -1.0000 -0.0001 -0.0000
vn -1.0000 0.0001 -0.0000
vn -1.0000 0.0003 -0.0000
vn -1.0000 -0.0002 -0.0000
vn -1.0000 -0.0003 -0.0000
vn -0.0000 0.9808 -0.1951
vn -0.0000 0.9239 -0.3826
vn -0.0000 0.9239 -0.3827
vn -0.0000 0.8315 -0.5555
vn -0.0000 0.8315 -0.5556
vn -0.0000 0.7071 -0.7071
vn -0.0000 0.5557 -0.8314
vn -0.0000 0.5556 -0.8315
vn -0.0000 0.3827 -0.9239
vn -0.0000 0.1951 -0.9808
vn -0.0000 0.1950 -0.9808
vn -0.0000 0.3826 -0.9239
vn -0.0000 0.5555 -0.8315
vn -0.0000 0.5556 -0.8314
vn -0.0000 0.8314 -0.5556
vn -0.0000 0.9808 -0.1950
vn -0.0000 0.1950 0.9808
vn -0.0000 0.1951 0.9808
vn -0.0000 0.3826 0.9239
vn -0.0000 0.5555 0.8315
vn -0.0000 0.3827 0.9239
vn -0.0000 0.5556 0.8315
vn -0.0000 0.7071 0.7071
vn -0.0000 0.8314 0.5556
vn -0.0000 0.8315 0.5555
vn -0.0000 0.9239 0.3827
vn -0.0000 0.9808 0.1950
vn -0.0000 0.9808 0.1951
vn -0.0000 0.9239 0.3826
vn -0.0000 0.8315 0.5556
vn -0.0000 0.5556 0.8314
vn -0.0000 -0.9808 0.1951
vn -0.0000 -0.9239 0.3826
vn -0.0000 -0.9239 0.3827
vn -0.0000 -0.8315 0.5555
vn -0.0000 -0.9242 0.3820
vn -0.0000 -0.8315 0.5556
vn -0.0000 -0.7071 0.7071
vn -0.0000 -0.5556 0.8314
vn -0.0000 -0.3827 0.9239
vn -0.0000 -0.5555 0.8315
vn -0.0000 -0.5556 0.8315
vn -0.0000 -0.1951 0.9808
vn -0.0000 -0.1950 0.9808
vn -0.0000 -0.3826 0.9239
vn -0.0000 -0.9808 0.1950
vn -0.0000 -0.5557 0.8314
vn -0.0000 -0.8314 0.5557
vn -0.0000 -0.8314 0.5556
vn -0.0000 -0.1950 -0.9808
vn -0.0000 -0.1951 -0.9808
vn -0.0000 -0.3826 -0.9239
vn -0.0000 -0.5556 -0.8315
vn -0.0000 -0.5555 -0.8315
vn -0.0000 -0.3821 -0.9241
vn -0.0000 -0.7071 -0.7071
vn -0.0000 -0.8315 -0.5556
vn -0.0000 -0.8314 -0.5556
vn -0.0000 -0.9239 -0.3827
vn -0.0000 -0.9808 -0.1951
vn -0.0000 -0.9808 -0.1950
vn -0.0000 -0.9239 -0.3826
vn -0.0000 -0.8315 -0.5555
vn -0.0000 -0.3827 -0.9239
vn -0.0000 -0.5556 -0.8314
vn 0.9808 -0.0000 -0.1951
vn 0.9239 -0.0000 -0.3827
vn 0.8315 -0.0000 -0.5556
vn 0.7071 -0.0000 -0.7071
vn 0.5556 -0.0000 -0.8315
vn 0.1951 -0.0000 -0.9808
vn 0.1952 -0.0000 -0.9808
vn 0.3827 -0.0000 -0.9239
vn 0.0873 0.7221 -0.6863
vn 0.1191 0.6381 -0.7607
vn 0.5389 0.1367 -0.8312
vn 0.4617 0.1540 -0.8735
vn 0.5153 0.3138 -0.7975
vn 0.5957 0.2485 -0.7638
vn 0.5664 0.3898 -0.7261
vn 0.6341 0.1096 -0.7654
vn 0.2249 0.9185 -0.3252
vn 0.3237 0.8929 -0.3128
vn 0.2125 0.8739 -0.4371
vn 0.1364 0.9668 -0.2162
vn 0.3015 0.9475 -0.1069
vn 0.9386 0.3360 -0.0785
vn 0.8914 0.4277 -0.1498
vn 0.9239 0.3827 -0.0000
vn 0.9812 0.1810 -0.0664
vn 0.9266 0.2966 -0.2310
vn 0.3658 0.9142 -0.1744
vn 0.4682 0.8777 -0.1026
vn 0.4617 0.8335 -0.3034
vn 0.3828 0.9238 -0.0000
vn 0.6585 0.7120 -0.2438
vn 0.7232 0.6483 -0.2381
vn 0.7220 0.5908 -0.3601
vn 0.6293 0.7673 -0.1234
vn 0.7392 0.6653 -0.1047
vn 0.7845 0.6160 -0.0720
vn 0.8065 0.5556 -0.2022
vn 0.7071 0.7071 -0.0000
vn 0.0862 0.2561 -0.9628
vn 0.1377 0.1649 -0.9766
vn 0.2553 0.5501 -0.7951
vn 0.3237 0.5180 -0.7918
vn 0.2286 0.4483 -0.8642
vn 0.2125 0.6717 -0.7097
vn 0.3566 0.6354 -0.6849
vn 0.1108 0.9912 -0.0728
vn 0.1951 0.9808 -0.0000
vn 0.0865 0.8629 -0.4978
vn 0.1423 0.8045 -0.5767
vn 0.1167 0.9299 -0.3488
vn 0.1204 0.4015 -0.9079
vn 0.2164 0.2936 -0.9311
vn 0.7636 0.0681 -0.6421
vn 0.6335 0.3202 -0.7044
vn 0.5473 0.5241 -0.6526
vn 0.6403 0.4783 -0.6010
vn 0.5862 0.7995 -0.1313
vn 0.5723 0.7761 -0.2649
vn 0.5556 0.8315 -0.0000
vn 0.1436 0.5180 -0.8433
vn 0.9530 0.1671 -0.2528
vn 0.9848 0.0835 -0.1523
vn 0.9346 0.1192 -0.3351
vn 0.9814 0.1585 -0.1083
vn 0.5068 0.7809 -0.3651
vn 0.4841 0.7051 -0.5182
vn 0.3654 0.8385 -0.4043
vn 0.6190 0.6973 -0.3615
vn 0.8315 0.5556 -0.0000
vn 0.2467 0.1659 -0.9548
vn 0.3260 0.2001 -0.9239
vn 0.5515 0.6177 -0.5606
vn 0.8281 0.3493 -0.4385
vn 0.7836 0.3153 -0.5354
vn 0.7274 0.4709 -0.4991
vn 0.8660 0.2500 -0.4330
vn 0.4365 0.6169 -0.6549
vn 0.4423 0.4484 -0.7767
vn 0.3076 0.7507 -0.5847
vn 0.9808 0.1951 -0.0000
vn 0.8813 0.1344 -0.4530
vn 0.8301 0.4575 -0.3187
vn 0.3760 0.3042 -0.8753
vn 0.6616 0.6008 -0.4486
vn 0.7443 0.2080 -0.6346
vn 0.0873 -0.6863 -0.7221
vn 0.1191 -0.7607 -0.6381
vn 0.5389 -0.8312 -0.1367
vn 0.4617 -0.8736 -0.1540
vn 0.5153 -0.7975 -0.3138
vn 0.5556 -0.8315 -0.0000
vn 0.5957 -0.7638 -0.2485
vn 0.5664 -0.7261 -0.3898
vn 0.6341 -0.7654 -0.1096
vn 0.2249 -0.3252 -0.9185
vn 0.3237 -0.3128 -0.8929
vn 0.2125 -0.4371 -0.8739
vn 0.1364 -0.2162 -0.9668
vn 0.3015 -0.1069 -0.9475
vn 0.9386 -0.0785 -0.3360
vn 0.8914 -0.1498 -0.4277
vn 0.9812 -0.0664 -0.1810
vn 0.9266 -0.2311 -0.2966
vn 0.3657 -0.1744 -0.9143
vn 0.4682 -0.1026 -0.8777
vn 0.4617 -0.3034 -0.8335
vn 0.6585 -0.2438 -0.7120
vn 0.7232 -0.2381 -0.6483
vn 0.7220 -0.3601 -0.5908
vn 0.6293 -0.1234 -0.7673
vn 0.7392 -0.1046 -0.6653
vn 0.7844 -0.0720 -0.6160
vn 0.8065 -0.2022 -0.5556
vn 0.0862 -0.9628 -0.2561
vn 0.1377 -0.9766 -0.1649
vn 0.2553 -0.7951 -0.5501
vn 0.3237 -0.7918 -0.5180
vn 0.2286 -0.8642 -0.4483
vn 0.2125 -0.7097 -0.6717
vn 0.3566 -0.6849 -0.6354
vn 0.1108 -0.0728 -0.9912
vn 0.0865 -0.4978 -0.8629
vn 0.1423 -0.5767 -0.8045
vn 0.1167 -0.3488 -0.9299
vn 0.1204 -0.9079 -0.4015
vn 0.2164 -0.9311 -0.2936
vn 0.7636 -0.6421 -0.0681
vn 0.7071 -0.7071 -0.0000
vn 0.8315 -0.5556 -0.0000
vn 0.6335 -0.7044 -0.3202
vn 0.5473 -0.6526 -0.5241
vn 0.6403 -0.6010 -0.4783
vn 0.5862 -0.1313 -0.7995
vn 0.5723 -0.2649 -0.7761
vn 0.1436 -0.8433 -0.5179
vn 0.9530 -0.2528 -0.1671
vn 0.9848 -0.1523 -0.0835
vn 0.9346 -0.3351 -0.1192
vn 0.9814 -0.1083 -0.1585
vn 0.5069 -0.3651 -0.7809
vn 0.4841 -0.5182 -0.7051
vn 0.3654 -0.4043 -0.8385
vn 0.6190 -0.3615 -0.6973
vn 0.2463 -0.9547 -0.1668
vn 0.3260 -0.9239 -0.2001
vn 0.3827 -0.9239 -0.0000
vn 0.5515 -0.5606 -0.6177
vn 0.8281 -0.4385 -0.3493
vn 0.7835 -0.5354 -0.3153
vn 0.7274 -0.4991 -0.4709
vn 0.8660 -0.4330 -0.2500
vn 0.4365 -0.6549 -0.6169
vn 0.4423 -0.7767 -0.4484
vn 0.3076 -0.5847 -0.7507
vn 0.1951 -0.9808 -0.0000
vn 0.8814 -0.4529 -0.1344
vn 0.9239 -0.3827 -0.0000
vn 0.8301 -0.3187 -0.4575
vn 0.3760 -0.8753 -0.3042
vn 0.9808 -0.1951 -0.0000
vn 0.6616 -0.4486 -0.6008
vn 0.7443 -0.6346 -0.2080
vn 0.1952 0.9808 -0.0000
vn 0.3827 0.9239 -0.0000
vn 0.9240 -0.3825 -0.0000
vn 0.0873 0.6863 0.7221
vn 0.1191 0.7607 0.6381
vn 0.5388 0.8313 0.1367
vn 0.4617 0.8736 0.1540
vn 0.5153 0.7975 0.3138
vn 0.5957 0.7638 0.2485
vn 0.5664 0.7261 0.3898
vn 0.6342 0.7654 0.1096
vn 0.2249 0.3252 0.9185
vn 0.3237 0.3128 0.8929
vn 0.2125 0.4371 0.8739
vn 0.1364 0.2162 0.9668
vn 0.3015 0.1069 0.9475
vn 0.9386 0.0785 0.3360
vn 0.8914 0.1498 0.4277
vn 0.9239 -0.0000 0.3827
vn 0.9812 0.0664 0.1810
vn 0.9266 0.2310 0.2966
vn 0.3658 0.1744 0.9142
vn 0.4682 0.1026 0.8777
vn 0.4617 0.3034 0.8335
vn 0.3827 0.0001 0.9239
vn 0.6585 0.2438 0.7120
vn 0.7232 0.2381 0.6483
vn 0.7220 0.3601 0.5908
vn 0.6293 0.1234 0.7673
vn 0.7392 0.1047 0.6653
vn 0.7844 0.0720 0.6160
vn 0.8065 0.2022 0.5556
vn 0.7071 -0.0000 0.7071
vn 0.0862 0.9628 0.2561
vn 0.1377 0.9767 0.1649
vn 0.2553 0.7951 0.5501
vn 0.3236 0.7918 0.5180
vn 0.2286 0.8642 0.4483
vn 0.2125 0.7097 0.6717
vn 0.3567 0.6848 0.6354
vn 0.1108 0.0728 0.9912
vn 0.1951 -0.0000 0.9808
vn 0.0865 0.4978 0.8630
vn 0.1423 0.5767 0.8045
vn 0.1167 0.3488 0.9299
vn 0.1204 0.9079 0.4015
vn 0.2164 0.9311 0.2936
vn 0.7636 0.6421 0.0681
vn 0.6335 0.7044 0.3202
vn 0.5473 0.6526 0.5241
vn 0.6403 0.6010 0.4783
vn 0.5862 0.1313 0.7995
vn 0.5723 0.2649 0.7761
vn 0.5556 -0.0000 0.8315
vn 0.1436 0.8433 0.5179
vn 0.9530 0.2528 0.1671
vn 0.9848 0.1523 0.0835
vn 0.9346 0.3351 0.1192
vn 0.9814 0.1083 0.1585
vn 0.5068 0.3651 0.7809
vn 0.4841 0.5182 0.7051
vn 0.3654 0.4043 0.8385
vn 0.6190 0.3615 0.6973
vn 0.8315 -0.0000 0.5556
vn 0.2463 0.9547 0.1668
vn 0.3260 0.9239 0.2001
vn 0.5515 0.5606 0.6177
vn 0.8281 0.4385 0.3494
vn 0.7835 0.5354 0.3153
vn 0.7274 0.4991 0.4709
vn 0.8660 0.4330 0.2500
vn 0.4365 0.6549 0.6169
vn 0.4423 0.7767 0.4484
vn 0.3076 0.5847 0.7507
vn 0.9808 -0.0000 0.1951
vn 0.8814 0.4529 0.1344
vn 0.8301 0.3187 0.4575
vn 0.3760 0.8753 0.3042
vn 0.6616 0.4487 0.6008
vn 0.7443 0.6346 0.2080
vn 0.0873 -0.7221 0.6863
vn 0.1191 -0.6381 0.7607
vn 0.5389 -0.1367 0.8312
vn 0.4617 -0.1540 0.8736
vn 0.5153 -0.3138 0.7975
vn 0.5958 -0.2485 0.7638
vn 0.5664 -0.3898 0.7261
vn 0.6342 -0.1096 0.7654
vn 0.2249 -0.9185 0.3252
vn 0.3237 -0.8929 0.3128
vn 0.2125 -0.8739 0.4371
vn 0.1364 -0.9668 0.2162
vn 0.3015 -0.9475 0.1069
vn 0.9386 -0.3360 0.0785
vn 0.8914 -0.4277 0.1498
vn 0.9812 -0.1810 0.0664
vn 0.9266 -0.2966 0.2311
vn 0.3657 -0.9142 0.1744
vn 0.4682 -0.8777 0.1026
vn 0.4617 -0.8335 0.3034
vn 0.6585 -0.7120 0.2438
vn 0.7232 -0.6483 0.2381
vn 0.7220 -0.5908 0.3601
vn 0.6293 -0.7673 0.1234
vn 0.7392 -0.6653 0.1047
vn 0.7844 -0.6160 0.0720
vn 0.8065 -0.5556 0.2022
vn 0.0862 -0.2561 0.9628
vn 0.1377 -0.1649 0.9767
vn 0.2553 -0.5501 0.7951
vn 0.3236 -0.5180 0.7918
vn 0.2286 -0.4483 0.8642
vn 0.2125 -0.6717 0.7097
vn 0.3566 -0.6354 0.6849
vn 0.1108 -0.9912 0.0728
vn 0.0865 -0.8629 0.4978
vn 0.1423 -0.8045 0.5767
vn 0.1167 -0.9299 0.3488
vn 0.1204 -0.4015 0.9079
vn 0.2164 -0.2936 0.9311
vn 0.7636 -0.0681 0.6421
vn 0.6335 -0.3202 0.7044
vn 0.5473 -0.5241 0.6525
vn 0.6403 -0.4783 0.6010
vn 0.5862 -0.7995 0.1313
vn 0.5723 -0.7761 0.2649
vn 0.1436 -0.5180 0.8433
vn 0.9530 -0.1671 0.2528
vn 0.9848 -0.0835 0.1523
vn 0.9346 -0.1192 0.3351
vn 0.9814 -0.1585 0.1083
vn 0.5068 -0.7809 0.3651
vn 0.4841 -0.7051 0.5182
vn 0.3654 -0.8385 0.4043
vn 0.6190 -0.6973 0.3615
vn 0.2463 -0.1668 0.9547
vn 0.3260 -0.2001 0.9239
vn 0.3827 -0.0000 0.9239
vn 0.5515 -0.6177 0.5606
vn 0.8281 -0.3493 0.4385
vn 0.7835 -0.3153 0.5354
vn 0.7274 -0.4709 0.4991
vn 0.8660 -0.2500 0.4330
vn 0.4365 -0.6169 0.6549
vn 0.4423 -0.4484 0.7767
vn 0.3076 -0.7507 0.5847
vn 0.8813 -0.1344 0.4530
vn 0.8301 -0.4575 0.3187
vn 0.3760 -0.3042 0.8753
vn 0.6616 -0.6008 0.4486
vn 0.7443 -0.2080 0.6346
vt 0.150000 -1.600000
vt 0.150000 1.600000
vt 0.000000 -1.600000
vt 0.000000 1.600000
vt 1.600000 0.150000
vt -1.600000 0.150000
vt 1.600000 0.000000
vt -1.600000 0.000000
vt -0.150000 1.600000
vt -0.150000 -1.600000
vt -1.750000 -1.600000
vt -1.600000 -1.750000
vt 1.600000 -1.750000
vt -1.629264 -1.747118
vt -1.657402 -1.738582
vt -1.683336 -1.724720
vt -1.706066 -1.706066
vt -1.738582 -1.657402
vt -1.724720 -1.683336
vt -1.747118 -1.629264
vt -1.750000 1.600000
vt -1.600000 1.750000
vt -1.747118 1.629264
vt -1.724720 1.683336
vt -1.738582 1.657402
vt -1.706066 1.706066
vt -1.657402 1.738582
vt -1.683336 1.724720
vt -1.629264 1.747118
vt 1.600000 1.750000
vt 1.750000 1.600000
vt 1.657402 1.738582
vt 1.629264 1.747118
vt 1.683336 1.724720
vt 1.706066 1.706066
vt 1.738582 1.657402
vt 1.724720 1.683336
vt 1.747118 1.629264
vt 1.750000 -1.600000
vt 1.738582 -1.657402
vt 1.747118 -1.629264
vt 1.724720 -1.683336
vt 1.706066 -1.706066
vt 1.657402 -1.738582
vt 1.683336 -1.724720
vt 1.629264 -1.747118
vt 1.600000 2.000000
vt 2.000000 -1.600000
vt 2.000000 1.600000
vt 1.992314 1.678036
vt 1.969552 1.753073
vt 1.932588 1.822228
vt 1.882843 1.882843
vt 1.753073 1.969552
vt 1.822228 1.932588
vt 1.678036 1.992314
vt -1.600000 2.000000
vt -2.000000 1.600000
vt -1.678036 1.992314
vt -1.753073 1.969552
vt -1.822228 1.932588
vt -1.882843 1.882843
vt -1.969552 1.753073
vt -1.932588 1.822228
vt -1.992314 1.678036
vt -2.000000 -1.600000
vt -1.600000 -2.000000
vt -1.992314 -1.678036
vt -1.969552 -1.753073
vt -1.932588 -1.822228
vt -1.882843 -1.882843
vt -1.753073 -1.969552
vt -1.822228 -1.932588
vt -1.678036 -1.992314
vt 1.600000 -2.000000
vt 1.678036 -1.992314
vt 1.753073 -1.969552
vt 1.822228 -1.932588
vt 1.882843 -1.882843
vt 1.969552 -1.753073
vt 1.932588 -1.822228
vt 1.992314 -1.678036
vt -1.678036 0.000000
vt -1.678036 0.150000
vt -1.753073 0.000000
vt -1.753073 0.150000
vt -1.822228 0.000000
vt -1.822228 0.150000
vt -1.882843 0.000000
vt -1.882843 0.150000
vt 0.000000 -1.822228
vt 0.150000 -1.882843
vt 0.150000 -1.822228
vt 0.000000 -1.753073
vt 0.150000 -1.753073
vt 0.000000 -1.678036
vt 0.150000 -1.678036
vt 0.000000 -1.882843
vt -0.150000 -1.678036
vt -0.150000 -1.753073
vt -0.150000 -1.822228
vt -0.150000 -1.882843
vt 1.882843 0.150000
vt 1.822228 0.000000
vt 1.882843 0.000000
vt 1.822228 0.150000
vt 1.753073 0.000000
vt 1.678036 0.000000
vt 1.678036 0.150000
vt 1.753073 0.150000
vt -0.000000 1.822228
vt -0.000000 1.882843
vt -0.150000 1.882843
vt -0.000000 1.753073
vt -0.150000 1.822228
vt -0.150000 1.753073
vt -0.150000 1.678036
vt -0.000000 1.678036
vt 0.150000 1.678036
vt 0.150000 1.822228
vt 0.150000 1.753073
vt 0.150000 1.882843
vt -1.798773 -1.600000
vt -1.798773 1.600000
vt -1.845671 -1.600000
vt -1.845671 1.600000
vt -1.888893 -1.600000
vt -1.888893 1.600000
vt -1.926777 -1.600000
vt 0.326777 1.600000
vt 0.288893 -1.600000
vt 0.326777 -1.600000
vt 0.288893 1.600000
vt 0.198773 1.600000
vt 0.198773 -1.600000
vt 0.245671 1.600000
vt 0.245671 -1.600000
vt -1.926777 1.600000
vt -1.874917 0.171819
vt 0.171819 -1.889237
vt 0.179781 -1.855943
vt 0.284703 -1.658533
vt 0.265437 -1.664554
vt 0.278829 -1.733389
vt 0.298911 -1.708551
vt 0.291605 -1.768409
vt 0.308520 -1.648659
vt -1.731358 0.206233
vt -1.727791 0.230934
vt -1.776388 0.203123
vt -1.686802 0.184100
vt -1.643528 0.225369
vt -1.653743 -1.830070
vt -1.687042 -1.848477
vt -1.600000 -1.845671
vt -1.668232 -1.786062
vt -1.749935 -1.792484
vt -1.671724 0.241425
vt -1.643060 0.267047
vt -1.727147 0.265437
vt -1.600000 0.245671
vt -1.709545 -1.919907
vt -1.711224 -1.902875
vt -1.768071 -1.875799
vt -1.709545 0.314628
vt -1.654665 0.307320
vt -1.649496 0.334799
vt -1.649496 -1.914502
vt -1.635415 -1.902996
vt -1.701863 -1.879866
vt -1.600000 -1.926777
vt 0.171550 -1.702583
vt 0.184433 -1.666196
vt 0.213823 -1.822880
vt 0.230934 -1.811622
vt 0.207152 -1.781141
vt 0.203123 -1.871042
vt 0.239164 -1.860875
vt -1.629201 0.177708
vt -1.600000 0.198773
vt -1.799418 0.171618
vt -1.831553 0.185567
vt -1.739880 0.179179
vt 0.180115 -1.761020
vt 0.204110 -1.718500
vt 0.340904 -1.632819
vt -1.909684 -1.632819
vt 0.308364 -1.742121
vt 0.286814 -1.824933
vt 0.310077 -1.813005
vt -1.657142 0.296545
vt -1.714686 0.293081
vt -1.600000 0.288893
vt 0.185900 -1.807992
vt -1.886359 0.203123
vt -1.788314 -1.724511
vt -1.769570 -1.693029
vt -1.825093 -1.680078
vt -1.711715 -1.763450
vt -1.754778 0.276713
vt -1.818371 0.271014
vt -1.766210 0.241362
vt -1.759432 0.304742
vt -1.600000 -1.888893
vt 0.211577 -1.667498
vt 0.231507 -1.681790
vt -1.913680 -1.768409
vt -1.867606 -1.813005
vt -1.912659 -1.742121
vt -1.880106 -1.824933
vt -1.840941 -1.865513
vt -1.826941 -1.780804
vt -1.863092 -1.754935
vt -1.833895 -1.820668
vt -1.838157 -1.737500
vt 0.259120 -1.857071
vt 0.260572 -1.787109
vt -1.881178 0.239164
vt -1.838356 0.226908
vt -1.872921 0.259120
vt -1.600000 0.326777
vt -1.600000 -1.798773
vt -1.857038 -1.676274
vt -1.765416 -1.837461
vt -1.933595 -1.708551
vt -1.939851 -1.648659
vt 0.243989 -1.725305
vt -1.801903 -1.870391
vt -1.759432 -1.907478
vt -1.801903 0.315409
vt -1.840941 0.287883
vt 0.287883 -1.865513
vt -1.901185 -1.698723
vt 0.336083 -1.698723
vt 0.171819 1.874917
vt 1.889237 0.171819
vt 1.855943 0.179781
vt 1.658533 0.284703
vt 1.664554 0.265437
vt 1.733389 0.278829
vt 1.600000 0.288893
vt 1.708551 0.298911
vt 1.768409 0.291605
vt 1.648659 0.308520
vt 0.206233 1.731358
vt 0.230934 1.727791
vt 0.203123 1.776388
vt 0.184100 1.686802
vt 0.225369 1.643528
vt -1.830070 1.653743
vt -1.848477 1.687042
vt -1.786062 1.668232
vt -1.792484 1.749935
vt 0.241425 1.671724
vt 0.267047 1.643060
vt 0.265437 1.727147
vt -1.919907 1.709545
vt -1.902875 1.711224
vt -1.875799 1.768071
vt 0.314628 1.709545
vt 0.307320 1.654665
vt 0.334799 1.649496
vt -1.914502 1.649496
vt -1.902996 1.635415
vt -1.879866 1.701863
vt 1.702583 0.171550
vt 1.666196 0.184433
vt 1.822880 0.213823
vt 1.811622 0.230934
vt 1.781141 0.207152
vt 1.871042 0.203123
vt 1.860875 0.239164
vt 0.177708 1.629201
vt 0.171618 1.799418
vt 0.185567 1.831553
vt 0.179179 1.739880
vt 1.761020 0.180115
vt 1.718500 0.204110
vt 1.632819 0.340904
vt 1.600000 0.326777
vt -1.632819 1.909684
vt -1.600000 1.888893
vt -1.600000 1.926777
vt 1.742121 0.308364
vt 1.824933 0.286814
vt 1.813005 0.310077
vt 0.296545 1.657142
vt 0.293081 1.714686
vt 1.807992 0.185900
vt 0.203123 1.886359
vt -1.724511 1.788314
vt -1.693029 1.769570
vt -1.680078 1.825093
vt -1.763450 1.711715
vt 0.276713 1.754778
vt 0.271014 1.818371
vt 0.241362 1.766210
vt 0.304742 1.759432
vt 1.667498 0.211577
vt 1.681790 0.231507
vt 1.600000 0.245671
vt -1.768409 1.913680
vt -1.813005 1.867606
vt -1.742121 1.912659
vt -1.824933 1.880106
vt -1.865513 1.840941
vt -1.780804 1.826941
vt -1.754935 1.863092
vt -1.820668 1.833895
vt -1.737500 1.838157
vt 1.857071 0.259120
vt 1.787109 0.260572
vt 0.239164 1.881178
vt 0.226908 1.838356
vt 0.259120 1.872921
vt 1.600000 0.198773
vt -1.676274 1.857038
vt -1.600000 1.845671
vt -1.837461 1.765416
vt -1.708551 1.933595
vt -1.648659 1.939851
vt 1.725305 0.243989
vt -1.600000 1.798773
vt -1.870391 1.801903
vt -1.907478 1.759432
vt 0.315409 1.801903
vt 0.287883 1.840941
vt 1.865513 0.287883
vt -1.698723 1.901185
vt 1.698723 0.336083
vt 1.600000 -1.798773
vt 1.600000 -1.845671
vt 1.600000 -1.888893
vt 1.600000 -1.926777
vt 1.600000 1.888893
vt 1.600000 1.926777
vt 1.600000 1.798773
vt 1.600000 1.845671
vt -0.171819 -1.874917
vt -0.206233 -1.731358
vt -0.230934 -1.727791
vt -0.203123 -1.776388
vt -0.184100 -1.686802
vt -0.225369 -1.643528
vt 1.830070 -1.653743
vt 1.848477 -1.687042
vt 1.845671 -1.600000
vt 1.786062 -1.668232
vt 1.792484 -1.749935
vt -0.241425 -1.671724
vt -0.267047 -1.643060
vt -0.265437 -1.727147
vt -0.245671 -1.600000
vt 1.919907 -1.709545
vt 1.902875 -1.711224
vt 1.875799 -1.768071
vt -0.314628 -1.709545
vt -0.307320 -1.654665
vt -0.334799 -1.649496
vt 1.914502 -1.649496
vt 1.902996 -1.635415
vt 1.879866 -1.701863
vt 1.926777 -1.600000
vt -0.177708 -1.629201
vt -0.198773 -1.600000
vt -0.171618 -1.799418
vt -0.185567 -1.831553
vt -0.179179 -1.739880
vt 1.632819 -1.909684
vt -0.296545 -1.657142
vt -0.293081 -1.714686
vt -0.288893 -1.600000
vt -0.203123 -1.886359
vt 1.724511 -1.788314
vt 1.693029 -1.769570
vt 1.680078 -1.825093
vt 1.763450 -1.711715
vt -0.276713 -1.754778
vt -0.271014 -1.818371
vt -0.241362 -1.766210
vt -0.304742 -1.759432
vt 1.888893 -1.600000
vt 1.768409 -1.913680
vt 1.813005 -1.867606
vt 1.742121 -1.912659
vt 1.824933 -1.880106
vt 1.865513 -1.840941
vt 1.780804 -1.826941
vt 1.754935 -1.863092
vt 1.820668 -1.833895
vt 1.737500 -1.838157
vt -0.239164 -1.881178
vt -0.226908 -1.838356
vt -0.259120 -1.872921
vt -0.326777 -1.600000
vt 1.798773 -1.600000
vt 1.676274 -1.857038
vt 1.837461 -1.765416
vt 1.708551 -1.933595
vt 1.648659 -1.939851
vt 1.870391 -1.801903
vt 1.907478 -1.759432
vt -0.315409 -1.801903
vt -0.287883 -1.840941
vt 1.698723 -1.901185
vt -0.171819 1.889237
vt -0.179781 1.855943
vt -0.284703 1.658533
vt -0.265437 1.664554
vt -0.278829 1.733389
vt -0.288893 1.600000
vt -0.298911 1.708551
vt -0.291605 1.768409
vt -0.308520 1.648659
vt 1.653743 1.830070
vt 1.687042 1.848477
vt 1.668232 1.786062
vt 1.749935 1.792484
vt 1.709545 1.919907
vt 1.711224 1.902875
vt 1.768071 1.875799
vt 1.649496 1.914502
vt 1.635415 1.902996
vt 1.701863 1.879866
vt -0.171550 1.702583
vt -0.184433 1.666196
vt -0.213823 1.822880
vt -0.230934 1.811622
vt -0.207152 1.781141
vt -0.203123 1.871042
vt -0.239164 1.860875
vt -0.180115 1.761020
vt -0.204110 1.718500
vt -0.340904 1.632819
vt -0.326777 1.600000
vt 1.909684 1.632819
vt 1.888893 1.600000
vt 1.926777 1.600000
vt -0.308364 1.742121
vt -0.286814 1.824933
vt -0.310077 1.813005
vt -0.185900 1.807992
vt 1.788314 1.724511
vt 1.769570 1.693029
vt 1.825093 1.680078
vt 1.711715 1.763450
vt -0.211577 1.667498
vt -0.231507 1.681790
vt -0.245671 1.600000
vt 1.913680 1.768409
vt 1.867606 1.813005
vt 1.912659 1.742121
vt 1.880106 1.824933
vt 1.840941 1.865513
vt 1.826941 1.780804
vt 1.863092 1.754935
vt 1.833895 1.820668
vt 1.838157 1.737500
vt -0.259120 1.857071
vt -0.260572 1.787109
vt -0.198773 1.600000
vt 1.857038 1.676274
vt 1.845671 1.600000
vt 1.765416 1.837461
vt 1.933595 1.708551
vt 1.939851 1.648659
vt -0.243989 1.725305
vt 1.798773 1.600000
vt 1.801903 1.870391
vt 1.759432 1.907478
vt -0.287883 1.865513
vt 1.901185 1.698723
vt -0.336083 1.698723
s 1
usemtl Diffuse_51_51_51_100.007
f 1/1/1 2/2/1 3/3/1
f 2/2/1 4/4/1 3/3/1
f 5/5/2 6/6/2 7/7/2
f 6/6/2 8/8/2 7/7/2
f 9/9/3 10/10/3 11/4/3
f 10/10/3 12/3/3 11/4/3
f 13/5/4 14/6/4 15/7/4
f 14/6/4 16/8/4 15/7/4
f 17/11/5 18/12/5 19/13/5
f 17/11/5 20/14/5 18/12/5
f 17/11/5 21/15/5 20/14/5
f 17/11/5 22/16/5 21/15/5
f 17/11/5 23/17/5 22/16/5
f 24/18/5 25/19/5 17/11/5
f 17/11/5 25/19/5 23/17/5
f 26/20/5 24/18/5 17/11/5
f 17/11/5 19/13/5 27/21/5
f 19/13/5 28/22/5 27/21/5
f 27/21/5 28/22/5 29/23/5
f 28/22/5 30/24/5 31/25/5
f 28/22/5 32/26/5 30/24/5
f 33/27/5 34/28/5 28/22/5
f 28/22/5 34/28/5 32/26/5
f 35/29/6 33/27/5 28/22/5
f 28/22/5 19/13/5 36/30/5
f 19/13/5 37/31/5 36/30/5
f 37/31/5 38/32/5 39/33/5
f 37/31/5 40/34/5 38/32/5
f 37/31/5 41/35/5 40/34/5
f 42/36/7 43/37/5 37/31/5
f 37/31/5 43/37/5 41/35/5
f 44/38/5 42/36/7 37/31/5
f 37/31/5 39/33/5 36/30/5
f 37/31/5 19/13/5 45/39/5
f 19/13/5 46/40/5 47/41/5
f 19/13/5 48/42/5 46/40/5
f 19/13/5 49/43/5 48/42/5
f 50/44/5 51/45/5 19/13/5
f 19/13/5 51/45/5 49/43/5
f 52/46/5 50/44/5 19/13/5
f 29/23/5 28/22/5 31/25/5
f 47/41/5 45/39/5 19/13/5
f 53/47/8 54/48/8 55/49/8
f 56/47/9 57/49/9 58/50/9
f 59/47/10 58/50/10 60/51/10
f 61/47/8 60/51/8 62/52/8
f 63/47/11 62/52/11 64/53/11
f 65/54/8 66/47/8 67/55/8
f 68/47/10 64/53/10 67/55/10
f 69/56/8 70/47/8 65/54/8
f 71/47/8 72/57/8 73/48/8
f 74/57/8 75/58/8 76/48/8
f 77/57/8 78/59/8 79/58/8
f 78/59/8 80/60/8 81/58/8
f 82/58/12 83/61/12 84/62/12
f 85/63/8 86/58/8 87/64/8
f 88/58/8 84/62/8 87/64/8
f 89/65/8 90/58/8 85/63/8
f 91/58/8 92/66/8 93/48/8
f 94/66/8 95/67/8 96/48/8
f 97/67/11 98/68/11 99/69/11
f 100/67/8 99/69/8 101/70/8
f 102/67/10 101/70/10 103/71/10
f 104/72/8 105/67/8 106/73/8
f 107/67/11 103/71/11 106/73/11
f 108/74/8 109/67/8 104/72/8
f 110/67/13 111/66/13 98/68/13
f 112/75/8 113/48/8 114/67/8
f 115/48/10 116/76/10 117/77/10
f 118/48/10 117/77/10 119/78/10
f 120/48/12 119/78/12 121/79/12
f 122/80/8 123/48/8 124/81/8
f 125/48/8 121/79/8 124/81/8
f 126/82/8 127/48/8 122/80/8
f 128/48/8 129/75/8 116/76/8
f 130/58/14 80/60/14 83/61/14
f 131/83/15 132/84/15 133/85/16
f 134/85/17 135/86/17 136/87/18
f 137/87/18 135/86/17 138/88/19
f 139/89/20 138/88/19 140/90/20
f 141/91/21 140/92/20 142/93/22
f 143/94/23 142/93/22 144/95/23
f 145/96/24 144/95/23 146/97/24
f 1/1/1 3/3/1 146/97/24
f 146/97/24 3/3/1 147/96/25
f 144/95/26 148/96/24 149/94/26
f 142/93/27 150/94/23 151/91/27
f 140/92/20 152/91/28 153/98/20
f 138/88/29 154/89/20 155/87/29
f 132/84/15 156/83/30 8/8/2
f 132/84/15 135/86/17 157/85/16
f 132/84/15 8/8/2 6/6/2
f 158/96/31 12/3/3 159/99/32
f 160/94/33 161/96/32 159/99/32
f 162/91/34 163/94/35 164/100/35
f 165/101/36 166/91/34 164/100/35
f 167/102/37 168/98/37 165/101/36
f 167/103/37 169/104/38 170/105/37
f 171/106/39 172/107/40 173/104/39
f 7/7/2 174/108/41 175/109/42
f 175/109/42 5/5/2 7/7/2
f 176/110/40 175/109/42 177/108/42
f 178/107/43 176/110/43 179/108/42
f 180/107/40 171/106/44 176/110/40
f 181/104/38 167/103/37 171/106/44
f 182/91/45 165/101/45 183/98/37
f 159/99/32 12/3/3 10/10/3
f 184/94/33 159/99/32 164/100/35
f 185/83/46 186/84/46 187/85/47
f 188/85/48 189/86/48 190/87/49
f 191/87/49 189/86/50 192/88/51
f 193/89/52 192/88/51 194/90/52
f 195/111/53 196/112/52 194/113/52
f 197/114/54 198/111/55 199/115/55
f 200/116/54 201/114/54 199/115/56
f 202/117/57 9/9/3 11/4/3
f 203/118/58 202/117/57 11/4/3
f 204/118/57 200/116/54 202/117/57
f 205/118/57 206/114/59 200/116/59
f 16/8/4 186/84/46 207/83/60
f 199/115/56 208/111/61 194/113/52
f 186/84/46 16/8/4 14/6/4
f 209/87/62 192/88/63 210/89/52
f 211/85/47 186/84/46 189/86/50
f 212/118/64 4/4/1 213/119/65
f 214/114/66 215/118/65 213/119/65
f 216/120/67 217/111/68 218/121/69
f 219/122/70 220/112/70 216/120/67
f 221/106/71 222/104/72 219/103/70
f 223/110/73 224/107/73 221/106/71
f 225/108/74 223/110/73 226/109/74
f 15/7/4 226/109/74 13/5/4
f 15/7/4 227/108/75 226/109/74
f 228/108/74 229/107/76 223/110/76
f 230/107/73 231/104/77 221/106/77
f 232/104/72 233/105/70 219/103/70
f 213/119/65 4/4/1 2/2/1
f 213/119/65 218/121/69 234/114/66
f 218/121/78 235/111/68 236/114/78
f 216/120/79 237/112/70 238/111/79
f 17/11/5 27/21/5 239/123/80
f 239/123/80 27/21/5 240/124/80
f 241/125/81 239/123/80 240/124/80
f 242/126/81 241/125/81 240/124/80
f 242/126/81 243/127/82 241/125/81
f 244/128/82 245/129/83 243/127/82
f 246/130/83 247/131/84 245/132/83
f 246/130/83 248/133/84 247/131/84
f 1/1/1 249/134/85 2/2/1
f 1/1/1 250/135/86 249/134/85
f 249/134/85 250/135/86 251/136/87
f 251/136/87 250/135/86 252/137/87
f 248/133/84 251/136/87 252/137/87
f 247/131/84 248/133/84 252/137/87
f 246/138/83 245/129/83 244/128/82
f 243/127/82 242/126/81 244/128/82
f 253/139/88 140/90/20 138/88/19
f 253/140/88 254/141/89 140/92/20
f 255/142/90 256/143/91 257/144/92
f 255/142/90 247/131/84 256/143/91
f 258/145/93 257/144/92 259/146/94
f 255/142/90 260/147/95 247/131/84
f 261/148/96 262/149/97 263/150/98
f 261/148/96 264/151/99 265/152/100
f 266/153/101 267/154/102 268/155/103
f 266/153/101 269/156/104 270/157/105
f 271/158/106 272/159/107 273/160/108
f 271/158/106 265/152/100 274/161/109
f 275/162/110 276/163/111 277/164/112
f 275/165/110 278/166/113 279/167/114
f 279/168/114 280/169/115 281/170/116
f 279/168/114 282/171/117 280/169/115
f 283/172/118 146/97/24 144/95/23
f 283/172/118 284/173/119 146/97/24
f 285/174/120 286/175/121 287/176/122
f 285/174/120 288/177/123 289/178/124
f 290/179/125 291/180/126 264/151/99
f 290/179/125 6/6/2 291/180/126
f 292/181/127 138/88/19 135/86/17
f 292/181/127 293/182/128 253/139/88
f 294/183/129 135/86/17 132/84/15
f 292/181/127 263/150/98 293/182/128
f 295/184/130 144/95/23 142/93/22
f 283/172/118 296/185/131 284/173/119
f 297/186/132 245/132/83 260/147/95
f 297/187/132 243/127/82 245/129/83
f 259/146/94 298/188/133 258/145/93
f 259/146/94 299/189/134 300/190/135
f 301/191/136 278/166/113 302/192/137
f 301/191/136 303/193/138 278/166/113
f 254/141/89 288/177/123 304/194/139
f 288/195/123 253/139/88 293/182/128
f 305/196/140 306/197/141 307/198/142
f 305/196/140 270/157/105 308/199/143
f 309/200/144 273/160/108 302/192/137
f 309/200/144 310/201/145 311/202/146
f 302/192/137 273/160/108 272/159/107
f 309/200/144 312/203/147 310/201/145
f 280/169/115 313/204/148 281/170/116
f 280/169/115 282/171/117 313/204/148
f 285/174/120 304/194/139 288/177/123
f 287/176/122 296/185/131 295/184/130
f 314/205/149 315/206/150 252/137/87
f 314/205/149 296/185/131 315/206/150
f 259/207/94 300/208/135 298/209/133
f 299/210/134 316/211/151 300/208/135
f 308/199/143 270/157/105 269/156/104
f 308/199/143 23/17/5 306/197/141
f 317/212/152 318/213/153 319/214/154
f 317/212/152 320/215/155 318/213/153
f 289/178/124 321/216/156 322/217/157
f 289/218/124 323/219/158 321/220/156
f 295/184/130 283/172/118 144/95/23
f 284/173/119 250/135/86 1/1/1
f 276/163/111 281/170/116 277/164/112
f 279/167/114 278/166/113 282/221/117
f 308/199/143 21/15/5 22/16/5
f 269/156/104 324/222/159 20/14/5
f 325/223/160 307/198/142 241/125/81
f 325/223/160 320/215/155 307/198/142
f 311/202/146 273/160/108 309/200/144
f 311/202/146 262/149/97 273/160/108
f 318/213/153 320/215/155 325/223/160
f 317/212/152 319/214/154 326/224/161
f 258/225/93 298/209/133 260/226/95
f 259/146/94 322/217/157 299/189/134
f 315/206/150 296/185/131 327/227/162
f 314/205/149 252/137/87 250/135/86
f 307/198/142 306/197/141 239/123/80
f 305/196/140 320/215/155 270/157/105
f 328/228/163 277/164/112 319/214/154
f 328/228/163 312/229/147 277/164/112
f 272/159/107 274/161/109 303/193/138
f 271/158/106 273/160/108 262/149/97
f 267/154/102 281/170/116 313/204/148
f 267/154/102 270/157/105 326/224/161
f 327/227/162 296/185/131 287/176/122
f 315/206/150 256/143/91 252/137/87
f 294/183/129 292/181/127 135/86/17
f 253/140/88 288/177/123 254/141/89
f 275/165/110 312/203/147 302/192/137
f 328/228/163 319/214/154 300/208/135
f 300/208/135 319/214/154 318/213/153
f 328/230/163 316/231/151 312/203/147
f 271/158/106 274/161/109 272/159/107
f 265/152/100 291/180/126 274/161/109
f 258/145/93 260/147/95 255/142/90
f 260/147/95 245/132/83 247/131/84
f 317/212/152 270/157/105 320/215/155
f 326/224/161 281/170/116 267/154/102
f 254/141/89 142/93/22 140/92/20
f 304/194/139 287/176/122 295/184/130
f 292/181/127 253/139/88 138/88/19
f 287/176/122 286/175/121 327/227/162
f 310/201/145 316/231/151 321/220/156
f 312/203/147 309/200/144 302/192/137
f 321/216/156 316/232/151 299/189/134
f 310/201/145 323/219/158 311/202/146
f 290/179/125 132/84/15 6/6/2
f 264/151/99 261/148/96 294/183/129
f 264/151/99 294/183/129 132/84/15
f 293/182/128 323/219/158 288/195/123
f 278/166/113 303/193/138 282/221/117
f 278/166/113 275/165/110 302/192/137
f 305/196/140 307/198/142 320/215/155
f 306/197/141 24/18/5 26/20/5
f 318/213/153 298/209/133 300/208/135
f 329/233/164 297/187/132 260/226/95
f 303/193/138 301/191/136 272/159/107
f 312/203/147 316/231/151 310/201/145
f 327/227/162 256/143/91 315/206/150
f 256/143/91 247/131/84 252/137/87
f 286/175/121 322/217/157 327/227/162
f 286/175/121 285/174/120 289/178/124
f 308/199/143 269/156/104 21/15/5
f 324/222/159 269/156/104 266/153/101
f 304/194/139 295/184/130 142/93/22
f 296/185/131 314/205/149 284/173/119
f 299/189/134 322/217/157 321/216/156
f 298/188/133 329/234/164 260/147/95
f 263/150/98 311/202/146 323/219/158
f 262/149/97 261/148/96 265/152/100
f 257/144/92 322/217/157 259/146/94
f 326/224/161 277/164/112 281/170/116
f 294/183/129 263/150/98 292/181/127
f 287/176/122 304/194/139 285/174/120
f 329/233/164 318/213/153 325/223/160
f 319/214/154 277/164/112 326/224/161
f 267/154/102 313/204/148 268/155/103
f 281/170/116 276/163/111 279/168/114
f 301/191/136 302/192/137 272/159/107
f 323/219/158 310/201/145 321/220/156
f 329/233/164 325/223/160 297/187/132
f 297/187/132 325/223/160 243/127/82
f 284/173/119 314/205/149 250/135/86
f 327/227/162 257/144/92 256/143/91
f 26/20/5 239/123/80 306/197/141
f 307/198/142 239/123/80 241/125/81
f 243/127/82 325/223/160 241/125/81
f 306/197/141 25/19/5 24/18/5
f 306/197/141 305/196/140 308/199/143
f 25/19/5 306/197/141 23/17/5
f 20/14/5 324/222/159 18/12/5
f 26/20/5 17/11/5 239/123/80
f 266/153/101 270/157/105 267/154/102
f 21/15/5 269/156/104 20/14/5
f 308/199/143 22/16/5 23/17/5
f 326/224/161 270/157/105 317/212/152
f 316/211/151 328/228/163 300/208/135
f 286/175/121 289/178/124 322/217/157
f 312/229/147 275/162/110 277/164/112
f 279/168/114 276/163/111 275/162/110
f 290/179/125 264/151/99 132/84/15
f 294/183/129 261/148/96 263/150/98
f 291/180/126 265/152/100 264/151/99
f 289/218/124 288/195/123 323/219/158
f 254/141/89 304/194/139 142/93/22
f 146/97/24 284/173/119 1/1/1
f 295/184/130 296/185/131 283/172/118
f 327/227/162 322/217/157 257/144/92
f 271/158/106 262/149/97 265/152/100
f 323/219/158 293/182/128 263/150/98
f 263/150/98 262/149/97 311/202/146
f 257/144/92 258/145/93 255/142/90
f 268/155/103 324/222/159 266/153/101
f 318/213/153 329/233/164 298/209/133
f 330/235/165 219/122/70 216/120/67
f 330/236/165 331/237/166 219/103/70
f 332/238/167 333/239/168 334/240/169
f 332/238/167 335/241/170 333/239/168
f 336/242/171 334/240/169 337/243/172
f 332/238/167 338/244/173 335/241/170
f 339/245/174 340/246/175 341/247/176
f 339/245/174 342/248/177 343/249/178
f 344/250/179 345/251/180 242/126/81
f 344/250/179 346/252/181 347/253/182
f 348/254/183 349/255/184 350/256/185
f 348/254/183 343/249/178 251/136/87
f 351/257/186 352/258/187 353/259/188
f 351/260/186 354/261/189 355/262/190
f 355/263/190 356/264/191 357/265/192
f 355/263/190 246/138/83 356/264/191
f 358/266/193 226/109/74 223/110/73
f 358/266/193 359/267/194 226/109/74
f 360/268/195 361/269/196 362/270/197
f 360/268/195 363/271/198 364/272/199
f 365/273/200 249/134/85 342/248/177
f 365/273/200 2/2/1 249/134/85
f 366/274/201 216/120/67 218/121/69
f 366/274/201 367/275/202 330/235/165
f 368/276/203 218/121/69 213/119/65
f 366/274/201 341/247/176 367/275/202
f 369/277/204 223/110/73 221/106/71
f 358/266/193 370/278/205 359/267/194
f 371/279/206 372/280/207 338/244/173
f 371/281/206 373/282/208 372/283/207
f 337/243/172 374/284/209 336/242/171
f 337/243/172 375/285/210 376/286/211
f 377/287/212 354/261/189 378/288/213
f 377/287/212 248/133/84 354/261/189
f 331/237/166 363/271/198 379/289/214
f 363/290/198 330/235/165 367/275/202
f 380/291/215 381/292/216 382/293/217
f 380/291/215 347/253/182 383/294/218
f 384/295/219 350/256/185 378/288/213
f 384/295/219 385/296/220 386/297/221
f 378/288/213 350/256/185 349/255/184
f 384/295/219 387/298/222 385/296/220
f 356/264/191 244/128/82 357/265/192
f 356/264/191 246/138/83 244/128/82
f 360/268/195 379/289/214 363/271/198
f 362/270/197 370/278/205 369/277/204
f 388/299/223 389/300/224 390/301/225
f 388/299/223 370/278/205 389/300/224
f 337/302/172 376/303/211 374/304/209
f 375/305/210 391/306/226 376/303/211
f 383/294/218 347/253/182 346/252/181
f 383/294/218 32/26/5 381/292/216
f 392/307/227 393/308/228 394/309/229
f 392/307/227 395/310/230 393/308/228
f 364/272/199 396/311/231 397/312/232
f 364/313/199 398/314/233 396/315/231
f 369/277/204 358/266/193 223/110/73
f 359/267/194 399/316/234 13/5/4
f 352/258/187 357/265/192 353/259/188
f 355/262/190 354/261/189 246/130/83
f 383/294/218 31/25/5 30/24/5
f 346/252/181 240/124/80 29/23/5
f 400/317/235 382/293/217 401/318/236
f 400/317/235 395/310/230 382/293/217
f 386/297/221 350/256/185 384/295/219
f 386/297/221 340/246/175 350/256/185
f 393/308/228 395/310/230 400/317/235
f 392/307/227 394/309/229 402/319/237
f 336/320/171 374/304/209 338/321/173
f 337/243/172 397/312/232 375/285/210
f 389/300/224 370/278/205 403/322/238
f 388/299/223 390/301/225 399/316/234
f 382/293/217 381/292/216 404/323/239
f 380/291/215 395/310/230 347/253/182
f 405/324/240 353/259/188 394/309/229
f 405/324/240 387/325/222 353/259/188
f 349/255/184 251/136/87 248/133/84
f 348/254/183 350/256/185 340/246/175
f 345/251/180 357/265/192 244/128/82
f 345/251/180 347/253/182 402/319/237
f 403/322/238 370/278/205 362/270/197
f 389/300/224 333/239/168 390/301/225
f 368/276/203 366/274/201 218/121/69
f 330/236/165 363/271/198 331/237/166
f 351/260/186 387/298/222 378/288/213
f 405/324/240 394/309/229 376/303/211
f 376/303/211 394/309/229 393/308/228
f 405/326/240 391/327/226 387/298/222
f 348/254/183 251/136/87 349/255/184
f 343/249/178 249/134/85 251/136/87
f 336/242/171 338/244/173 332/238/167
f 338/244/173 372/280/207 335/241/170
f 392/307/227 347/253/182 395/310/230
f 402/319/237 357/265/192 345/251/180
f 331/237/166 221/106/71 219/103/70
f 379/289/214 362/270/197 369/277/204
f 366/274/201 330/235/165 216/120/67
f 362/270/197 361/269/196 403/322/238
f 385/296/220 391/327/226 396/315/231
f 387/298/222 384/295/219 378/288/213
f 396/311/231 391/328/226 375/285/210
f 385/296/220 398/314/233 386/297/221
f 365/273/200 213/119/65 2/2/1
f 342/248/177 339/245/174 368/276/203
f 342/248/177 368/276/203 213/119/65
f 367/275/202 398/314/233 363/290/198
f 354/261/189 248/133/84 246/130/83
f 354/261/189 351/260/186 378/288/213
f 380/291/215 382/293/217 395/310/230
f 381/292/216 33/27/5 35/29/6
f 393/308/228 374/304/209 376/303/211
f 406/329/241 371/281/206 338/321/173
f 248/133/84 377/287/212 349/255/184
f 387/298/222 391/327/226 385/296/220
f 403/322/238 333/239/168 389/300/224
f 333/239/168 335/241/170 390/301/225
f 361/269/196 397/312/232 403/322/238
f 361/269/196 360/268/195 364/272/199
f 383/294/218 346/252/181 31/25/5
f 240/124/80 346/252/181 344/250/179
f 379/289/214 369/277/204 221/106/71
f 370/278/205 388/299/223 359/267/194
f 375/285/210 397/312/232 396/311/231
f 374/284/209 406/330/241 338/244/173
f 341/247/176 386/297/221 398/314/233
f 340/246/175 339/245/174 343/249/178
f 334/240/169 397/312/232 337/243/172
f 402/319/237 353/259/188 357/265/192
f 368/276/203 341/247/176 366/274/201
f 362/270/197 379/289/214 360/268/195
f 406/329/241 393/308/228 400/317/235
f 394/309/229 353/259/188 402/319/237
f 345/251/180 244/128/82 242/126/81
f 357/265/192 352/258/187 355/263/190
f 377/287/212 378/288/213 349/255/184
f 398/314/233 385/296/220 396/315/231
f 406/329/241 400/317/235 371/281/206
f 371/281/206 400/317/235 373/282/208
f 359/267/194 388/299/223 399/316/234
f 403/322/238 334/240/169 333/239/168
f 341/247/176 368/276/203 339/245/174
f 386/297/221 341/247/176 340/246/175
f 348/254/183 340/246/175 343/249/178
f 342/248/177 249/134/85 343/249/178
f 341/247/176 398/314/233 367/275/202
f 398/314/233 364/313/199 363/290/198
f 226/109/74 359/267/194 13/5/4
f 342/248/177 213/119/65 365/273/200
f 403/322/238 397/312/232 334/240/169
f 358/266/193 369/277/204 370/278/205
f 331/237/166 379/289/214 221/106/71
f 355/263/190 352/258/187 351/257/186
f 332/238/167 334/240/169 336/242/171
f 406/329/241 374/304/209 393/308/228
f 240/124/80 344/250/179 242/126/81
f 402/319/237 347/253/182 392/307/227
f 404/323/239 35/29/6 28/22/5
f 404/323/239 381/292/216 35/29/6
f 34/28/5 33/27/5 381/292/216
f 381/292/216 32/26/5 34/28/5
f 383/294/218 30/24/5 32/26/5
f 29/23/5 240/124/80 27/21/5
f 31/25/5 346/252/181 29/23/5
f 344/250/179 347/253/182 345/251/180
f 380/291/215 383/294/218 381/292/216
f 401/318/236 373/282/208 400/317/235
f 404/323/239 401/318/236 382/293/217
f 405/324/240 376/303/211 391/306/226
f 353/259/188 387/325/222 351/257/186
f 397/312/232 361/269/196 364/272/199
f 407/331/159 19/13/5 18/12/5
f 324/222/159 407/331/159 18/12/5
f 324/222/159 408/332/103 407/331/159
f 324/222/159 268/155/103 408/332/103
f 408/332/103 268/155/103 409/333/148
f 409/333/148 268/155/103 313/204/148
f 410/334/117 409/333/148 313/204/148
f 5/5/2 291/180/126 6/6/2
f 291/180/126 5/5/2 411/316/242
f 274/161/109 291/180/126 411/316/242
f 412/301/243 274/161/109 411/316/242
f 412/301/243 303/193/138 274/161/109
f 412/301/243 413/241/138 303/193/138
f 303/193/138 413/241/138 282/221/117
f 282/221/117 413/241/138 410/280/117
f 313/204/148 282/171/117 410/334/117
f 14/6/4 13/5/4 414/180/234
f 414/180/234 13/5/4 399/316/234
f 415/161/225 414/180/234 399/316/234
f 390/301/225 415/161/225 399/316/234
f 390/301/225 416/193/170 415/161/225
f 335/241/170 417/221/207 416/193/170
f 372/283/207 418/335/208 417/336/207
f 372/283/207 373/282/208 418/335/208
f 404/323/239 28/22/5 36/30/5
f 419/337/239 404/323/239 36/30/5
f 419/337/239 401/318/236 404/323/239
f 419/337/239 420/338/244 401/318/236
f 401/318/236 420/338/244 373/282/208
f 373/282/208 420/338/244 418/335/208
f 416/193/170 390/301/225 335/241/170
f 417/221/207 335/241/170 372/280/207
f 421/339/245 167/102/37 165/101/36
f 421/236/245 422/237/246 167/103/37
f 423/238/247 424/239/248 425/240/249
f 423/238/247 413/241/138 424/239/248
f 426/242/250 425/240/249 427/243/251
f 423/238/247 428/244/252 413/241/138
f 429/340/253 430/341/254 431/342/255
f 429/340/253 432/343/256 433/344/257
f 434/345/258 435/346/259 436/347/260
f 434/345/258 437/348/261 438/349/262
f 439/350/263 440/351/264 441/352/265
f 439/350/263 433/344/257 442/353/266
f 443/354/267 444/355/268 445/356/269
f 443/357/267 446/358/270 447/359/271
f 447/360/271 448/361/272 449/362/273
f 447/360/271 450/363/274 448/361/272
f 451/266/275 175/109/42 176/110/40
f 451/266/275 452/267/276 175/109/42
f 453/268/277 454/269/278 455/270/279
f 453/268/277 456/271/280 457/272/281
f 458/364/282 459/365/283 432/343/256
f 458/364/282 10/10/3 459/365/283
f 460/366/284 165/101/36 164/100/35
f 460/366/284 461/367/285 421/339/245
f 462/368/286 164/100/35 159/99/32
f 460/366/284 431/342/255 461/367/285
f 463/277/287 176/110/40 171/106/44
f 451/266/275 464/278/288 452/267/276
f 465/279/289 410/280/117 428/244/252
f 465/369/289 409/333/148 410/334/117
f 427/243/251 466/284/290 426/242/250
f 427/243/251 467/285/291 468/286/292
f 469/370/293 446/358/270 470/371/294
f 469/370/293 471/372/295 446/358/270
f 422/237/246 456/271/280 472/289/296
f 456/373/280 421/339/245 461/367/285
f 473/374/297 474/375/298 475/376/299
f 473/374/297 438/349/262 476/377/300
f 477/378/301 441/352/265 470/371/294
f 477/378/301 478/379/302 479/380/303
f 470/371/294 441/352/265 440/351/264
f 477/378/301 480/381/304 478/379/302
f 448/361/272 481/382/305 449/362/273
f 448/361/272 450/363/274 481/382/305
f 453/268/277 472/289/296 456/271/280
f 455/270/279 464/278/288 463/277/287
f 482/299/306 483/300/307 412/301/243
f 482/299/306 464/278/288 483/300/307
f 427/383/251 468/384/292 466/385/290
f 467/386/291 484/387/308 468/384/292
f 476/377/300 438/349/262 437/348/261
f 476/377/300 49/43/5 474/375/298
f 485/388/309 486/389/310 487/390/311
f 485/388/309 488/391/312 486/389/310
f 457/272/281 489/311/313 490/312/314
f 457/392/281 491/393/315 489/394/313
f 463/277/287 451/266/275 176/110/40
f 452/267/276 411/316/242 5/5/2
f 444/355/268 449/362/273 445/356/269
f 447/359/271 446/358/270 450/395/274
f 476/377/300 46/40/5 48/42/5
f 437/348/261 492/396/316 47/41/5
f 493/397/317 475/376/299 408/332/103
f 493/397/317 488/391/312 475/376/299
f 479/380/303 441/352/265 477/378/301
f 479/380/303 430/341/254 441/352/265
f 486/389/310 488/391/312 493/397/317
f 485/388/309 487/390/311 494/398/318
f 426/399/250 466/385/290 428/400/252
f 427/243/251 490/312/314 467/285/291
f 483/300/307 464/278/288 495/322/319
f 482/299/306 412/301/243 411/316/242
f 475/376/299 474/375/298 407/331/159
f 473/374/297 488/391/312 438/349/262
f 496/401/320 445/356/269 487/390/311
f 496/401/320 480/402/304 445/356/269
f 440/351/264 442/353/266 471/372/295
f 439/350/263 441/352/265 430/341/254
f 435/346/259 449/362/273 481/382/305
f 435/346/259 438/349/262 494/398/318
f 495/322/319 464/278/288 455/270/279
f 483/300/307 424/239/248 412/301/243
f 462/368/286 460/366/284 164/100/35
f 421/236/245 456/271/280 422/237/246
f 443/357/267 480/381/304 470/371/294
f 496/401/320 487/390/311 468/384/292
f 468/384/292 487/390/311 486/389/310
f 496/403/320 484/404/308 480/381/304
f 439/350/263 442/353/266 440/351/264
f 433/344/257 459/365/283 442/353/266
f 426/242/250 428/244/252 423/238/247
f 428/244/252 410/280/117 413/241/138
f 485/388/309 438/349/262 488/391/312
f 494/398/318 449/362/273 435/346/259
f 422/237/246 171/106/44 167/103/37
f 472/289/296 455/270/279 463/277/287
f 460/366/284 421/339/245 165/101/36
f 455/270/279 454/269/278 495/322/319
f 478/379/302 484/404/308 489/394/313
f 480/381/304 477/378/301 470/371/294
f 489/311/313 484/328/308 467/285/291
f 478/379/302 491/393/315 479/380/303
f 458/364/282 159/99/32 10/10/3
f 432/343/256 429/340/253 462/368/286
f 432/343/256 462/368/286 159/99/32
f 461/367/285 491/393/315 456/373/280
f 446/358/270 471/372/295 450/395/274
f 446/358/270 443/357/267 470/371/294
f 473/374/297 475/376/299 488/391/312
f 474/375/298 50/44/5 52/46/5
f 486/389/310 466/385/290 468/384/292
f 497/405/321 465/369/289 428/400/252
f 471/372/295 469/370/293 440/351/264
f 480/381/304 484/404/308 478/379/302
f 495/322/319 424/239/248 483/300/307
f 424/239/248 413/241/138 412/301/243
f 454/269/278 490/312/314 495/322/319
f 454/269/278 453/268/277 457/272/281
f 476/377/300 437/348/261 46/40/5
f 492/396/316 437/348/261 434/345/258
f 472/289/296 463/277/287 171/106/44
f 464/278/288 482/299/306 452/267/276
f 467/285/291 490/312/314 489/311/313
f 466/284/290 497/330/321 428/244/252
f 431/342/255 479/380/303 491/393/315
f 430/341/254 429/340/253 433/344/257
f 425/240/249 490/312/314 427/243/251
f 494/398/318 445/356/269 449/362/273
f 462/368/286 431/342/255 460/366/284
f 455/270/279 472/289/296 453/268/277
f 497/405/321 486/389/310 493/397/317
f 487/390/311 445/356/269 494/398/318
f 435/346/259 481/382/305 436/347/260
f 449/362/273 444/355/268 447/360/271
f 469/370/293 470/371/294 440/351/264
f 491/393/315 478/379/302 489/394/313
f 497/405/321 493/397/317 465/369/289
f 465/369/289 493/397/317 409/333/148
f 452/267/276 482/299/306 411/316/242
f 495/322/319 425/240/249 424/239/248
f 52/46/5 19/13/5 407/331/159
f 474/375/298 52/46/5 407/331/159
f 408/332/103 475/376/299 407/331/159
f 408/332/103 409/333/148 493/397/317
f 50/44/5 474/375/298 51/45/5
f 476/377/300 474/375/298 473/374/297
f 49/43/5 51/45/5 474/375/298
f 492/396/316 45/39/5 47/41/5
f 46/40/5 437/348/261 47/41/5
f 476/377/300 48/42/5 49/43/5
f 436/347/260 492/396/316 434/345/258
f 484/387/308 496/401/320 468/384/292
f 454/269/278 457/272/281 490/312/314
f 425/240/249 426/242/250 423/238/247
f 444/355/268 443/354/267 447/360/271
f 432/343/256 159/99/32 458/364/282
f 429/340/253 431/342/255 462/368/286
f 433/344/257 432/343/256 459/365/283
f 491/393/315 461/367/285 431/342/255
f 457/392/281 456/373/280 491/393/315
f 422/237/246 472/289/296 171/106/44
f 175/109/42 452/267/276 5/5/2
f 451/266/275 463/277/287 464/278/288
f 495/322/319 490/312/314 425/240/249
f 439/350/263 430/341/254 433/344/257
f 430/341/254 479/380/303 431/342/255
f 480/402/304 443/354/267 445/356/269
f 486/389/310 497/405/321 466/385/290
f 438/349/262 435/346/259 434/345/258
f 485/388/309 494/398/318 438/349/262
f 498/139/322 194/90/52 192/88/51
f 498/406/322 499/407/323 194/113/52
f 500/408/324 501/409/325 502/410/326
f 500/408/324 503/411/295 501/409/325
f 504/412/327 502/410/326 505/413/328
f 500/408/324 506/414/329 503/411/295
f 507/148/330 508/149/331 509/150/332
f 507/148/330 510/151/333 511/152/334
f 512/415/335 513/416/336 420/338/244
f 512/415/335 514/417/337 515/418/338
f 516/158/339 517/159/340 518/160/341
f 516/158/339 511/152/334 415/161/225
f 519/419/342 520/420/343 521/421/344
f 519/165/342 522/166/345 523/167/346
f 523/422/346 524/423/347 525/424/348
f 523/422/346 417/336/207 524/423/347
f 526/425/349 202/117/57 200/116/54
f 526/425/349 527/426/350 202/117/57
f 528/427/351 529/428/352 530/429/353
f 528/427/351 531/430/354 532/431/355
f 533/179/356 414/180/234 510/151/333
f 533/179/356 14/6/4 414/180/234
f 534/181/357 192/88/51 189/86/50
f 534/181/357 535/182/358 498/139/322
f 536/183/359 189/86/50 186/84/46
f 534/181/357 509/150/332 535/182/358
f 537/432/360 200/116/54 199/115/56
f 526/425/349 538/433/361 527/426/350
f 539/434/362 540/435/274 506/414/329
f 539/436/362 541/437/305 540/438/274
f 505/413/328 542/439/363 504/412/327
f 505/413/328 543/440/364 544/441/365
f 545/191/366 522/166/345 546/192/367
f 545/191/366 416/193/170 522/166/345
f 499/407/323 531/430/354 547/442/368
f 531/195/354 498/139/322 535/182/358
f 548/443/369 549/444/370 550/445/371
f 548/443/369 515/418/338 551/446/372
f 552/200/373 518/160/341 546/192/367
f 552/200/373 553/201/374 554/202/375
f 546/192/367 518/160/341 517/159/340
f 552/200/373 555/203/376 553/201/374
f 524/423/347 418/335/208 525/424/348
f 524/423/347 417/336/207 418/335/208
f 528/427/351 547/442/368 531/430/354
f 530/429/353 538/433/361 537/432/360
f 556/447/377 557/448/378 558/449/379
f 556/447/377 538/433/361 557/448/378
f 505/450/328 544/451/365 542/452/363
f 543/453/364 559/454/380 544/451/365
f 551/446/372 515/418/338 514/417/337
f 551/446/372 41/35/5 549/444/370
f 560/455/381 561/456/382 562/457/383
f 560/455/381 563/458/384 561/456/382
f 532/431/355 564/459/385 565/460/386
f 532/218/355 566/219/387 564/220/385
f 537/432/360 526/425/349 200/116/54
f 527/426/350 567/461/283 9/9/3
f 520/420/343 525/424/348 521/421/344
f 523/167/346 522/166/345 417/221/207
f 551/446/372 38/32/5 40/34/5
f 514/417/337 419/337/239 39/33/5
f 568/462/388 550/445/371 569/463/260
f 568/462/388 563/458/384 550/445/371
f 554/202/375 518/160/341 552/200/373
f 554/202/375 508/149/331 518/160/341
f 561/456/382 563/458/384 568/462/388
f 560/455/381 562/457/383 570/464/389
f 504/465/327 542/452/363 506/466/329
f 505/413/328 565/460/386 543/440/364
f 557/448/378 538/433/361 571/467/390
f 556/447/377 558/449/379 567/461/283
f 550/445/371 549/444/370 572/468/316
f 548/443/369 563/458/384 515/418/338
f 573/469/391 521/421/344 562/457/383
f 573/469/391 555/470/376 521/421/344
f 517/159/340 415/161/225 416/193/170
f 516/158/339 518/160/341 508/149/331
f 513/416/336 525/424/348 418/335/208
f 513/416/336 515/418/338 570/464/389
f 571/467/390 538/433/361 530/429/353
f 557/448/378 501/409/325 558/449/379
f 536/183/359 534/181/357 189/86/50
f 498/406/322 531/430/354 499/407/323
f 519/165/342 555/203/376 546/192/367
f 573/469/391 562/457/383 544/451/365
f 544/451/365 562/457/383 561/456/382
f 573/230/391 559/231/380 555/203/376
f 516/158/339 415/161/225 517/159/340
f 511/152/334 414/180/234 415/161/225
f 504/412/327 506/414/329 500/408/324
f 506/414/329 540/435/274 503/411/295
f 560/455/381 515/418/338 563/458/384
f 570/464/389 525/424/348 513/416/336
f 499/407/323 199/115/56 194/113/52
f 547/442/368 530/429/353 537/432/360
f 534/181/357 498/139/322 192/88/51
f 530/429/353 529/428/352 571/467/390
f 553/201/374 559/231/380 564/220/385
f 555/203/376 552/200/373 546/192/367
f 564/459/385 559/471/380 543/440/364
f 553/201/374 566/219/387 554/202/375
f 533/179/356 186/84/46 14/6/4
f 510/151/333 507/148/330 536/183/359
f 510/151/333 536/183/359 186/84/46
f 535/182/358 566/219/387 531/195/354
f 522/166/345 416/193/170 417/221/207
f 522/166/345 519/165/342 546/192/367
f 548/443/369 550/445/371 563/458/384
f 549/444/370 42/36/7 44/38/5
f 561/456/382 542/452/363 544/451/365
f 574/472/392 539/436/362 506/466/329
f 416/193/170 545/191/366 517/159/340
f 555/203/376 559/231/380 553/201/374
f 571/467/390 501/409/325 557/448/378
f 501/409/325 503/411/295 558/449/379
f 529/428/352 565/460/386 571/467/390
f 529/428/352 528/427/351 532/431/355
f 551/446/372 514/417/337 38/32/5
f 419/337/239 514/417/337 512/415/335
f 547/442/368 537/432/360 199/115/56
f 538/433/361 556/447/377 527/426/350
f 543/440/364 565/460/386 564/459/385
f 542/439/363 574/473/392 506/414/329
f 509/150/332 554/202/375 566/219/387
f 508/149/331 507/148/330 511/152/334
f 502/410/326 565/460/386 505/413/328
f 570/464/389 521/421/344 525/424/348
f 536/183/359 509/150/332 534/181/357
f 530/429/353 547/442/368 528/427/351
f 574/472/392 561/456/382 568/462/388
f 562/457/383 521/421/344 570/464/389
f 513/416/336 418/335/208 420/338/244
f 525/424/348 520/420/343 523/422/346
f 545/191/366 546/192/367 517/159/340
f 566/219/387 553/201/374 564/220/385
f 574/472/392 568/462/388 539/436/362
f 539/436/362 568/462/388 541/437/305
f 527/426/350 556/447/377 567/461/283
f 571/467/390 502/410/326 501/409/325
f 510/151/333 186/84/46 533/179/356
f 507/148/330 509/150/332 536/183/359
f 508/149/331 554/202/375 509/150/332
f 511/152/334 516/158/339 508/149/331
f 511/152/334 510/151/333 414/180/234
f 535/182/358 509/150/332 566/219/387
f 531/195/354 566/219/387 532/218/355
f 527/426/350 9/9/3 202/117/57
f 526/425/349 537/432/360 538/433/361
f 499/407/323 547/442/368 199/115/56
f 521/421/344 555/470/376 519/419/342
f 500/408/324 502/410/326 504/412/327
f 574/472/392 542/452/363 561/456/382
f 573/469/391 544/451/365 559/454/380
f 515/418/338 560/455/381 570/464/389
f 44/38/5 37/31/5 572/468/316
f 549/444/370 44/38/5 572/468/316
f 42/36/7 549/444/370 43/37/5
f 548/443/369 551/446/372 549/444/370
f 549/444/370 41/35/5 43/37/5
f 551/446/372 40/34/5 41/35/5
f 39/33/5 419/337/239 36/30/5
f 38/32/5 514/417/337 39/33/5
f 512/415/335 515/418/338 513/416/336
f 541/437/305 568/462/388 569/463/260
f 569/463/260 550/445/371 572/468/316
f 419/337/239 512/415/335 420/338/244
f 565/460/386 529/428/352 532/431/355
f 565/460/386 502/410/326 571/467/390
f 519/419/342 523/422/346 520/420/343
f 37/31/5 45/39/5 572/468/316
f 572/468/316 45/39/5 492/396/316
f 569/463/260 572/468/316 492/396/316
f 436/347/260 569/463/260 492/396/316
f 436/347/260 541/437/305 569/463/260
f 436/347/260 481/382/305 541/437/305
f 541/437/305 481/382/305 540/438/274
f 540/438/274 481/382/305 450/363/274
f 459/365/283 10/10/3 9/9/3
f 567/461/283 459/365/283 9/9/3
f 567/461/283 442/353/266 459/365/283
f 567/461/283 558/449/379 442/353/266
f 442/353/266 558/449/379 471/372/295
f 471/372/295 558/449/379 503/411/295
f 450/395/274 471/372/295 503/411/295
f 450/395/274 503/411/295 540/435/274
