# Blender 4.4.3
# www.blender.org
mtllib Mesh_17.041.mtl
o Mesh_17.041
v 0.013723 0.021308 -0.014515
v 0.013718 0.021302 -0.014511
v 0.013723 0.021895 -0.014515
v 0.013718 0.021900 -0.014511
v 0.013729 0.021891 -0.014518
v 0.013729 0.021312 -0.014518
v 0.013737 0.021314 -0.014520
v 0.013737 0.021888 -0.014520
v 0.013745 0.021315 -0.014521
v 0.013745 0.021887 -0.014521
v 0.013766 0.021308 -0.014515
v 0.013771 0.021900 -0.014511
v 0.013771 0.021302 -0.014511
v 0.013766 0.021895 -0.014515
v 0.013760 0.021312 -0.014518
v 0.013760 0.021891 -0.014518
v 0.013753 0.021888 -0.014520
v 0.013753 0.021314 -0.014520
v 0.013718 0.021221 -0.014511
v 0.013718 0.021260 -0.014511
v 0.013723 0.021255 -0.014515
v 0.013724 0.021221 -0.014515
v 0.013729 0.021251 -0.014518
v 0.013730 0.021221 -0.014518
v 0.013737 0.021248 -0.014520
v 0.013737 0.021221 -0.014520
v 0.013745 0.021247 -0.014521
v 0.013752 0.021221 -0.014520
v 0.013745 0.021221 -0.014521
v 0.013753 0.021248 -0.014520
v 0.013760 0.021251 -0.014518
v 0.013765 0.021221 -0.014515
v 0.013759 0.021221 -0.014518
v 0.013766 0.021255 -0.014515
v 0.013771 0.021221 -0.014511
v 0.013771 0.021260 -0.014511
v 0.013812 0.021981 -0.014448
v 0.013812 0.021221 -0.014448
v 0.013813 0.021981 -0.014448
v 0.013813 0.021221 -0.014448
v 0.013813 0.021981 -0.014449
v 0.013813 0.021221 -0.014449
v 0.013813 0.021601 -0.014451
v 0.013814 0.021221 -0.014450
v 0.013813 0.021221 -0.014451
v 0.013813 0.021981 -0.014451
v 0.013814 0.021981 -0.014450
v 0.013745 0.021221 -0.014448
v 0.013745 0.021247 -0.014448
v 0.013738 0.021248 -0.014448
v 0.013678 0.021981 -0.014448
v 0.013678 0.021221 -0.014448
v 0.013713 0.021908 -0.014448
v 0.013778 0.021915 -0.014448
v 0.013776 0.021908 -0.014448
v 0.013778 0.021288 -0.014448
v 0.013779 0.021281 -0.014448
v 0.013711 0.021288 -0.014448
v 0.013713 0.021294 -0.014448
v 0.013738 0.021315 -0.014448
v 0.013738 0.021888 -0.014448
v 0.013732 0.021313 -0.014448
v 0.013745 0.021315 -0.014448
v 0.013732 0.021890 -0.014448
v 0.013726 0.021309 -0.014448
v 0.013726 0.021893 -0.014448
v 0.013721 0.021305 -0.014448
v 0.013721 0.021897 -0.014448
v 0.013716 0.021300 -0.014448
v 0.013716 0.021902 -0.014448
v 0.013711 0.021281 -0.014448
v 0.013711 0.021275 -0.014448
v 0.013713 0.021268 -0.014448
v 0.013711 0.021921 -0.014448
v 0.013711 0.021915 -0.014448
v 0.013716 0.021262 -0.014448
v 0.013721 0.021257 -0.014448
v 0.013726 0.021253 -0.014448
v 0.013732 0.021250 -0.014448
v 0.013764 0.021253 -0.014448
v 0.013751 0.021248 -0.014448
v 0.013769 0.021257 -0.014448
v 0.013758 0.021250 -0.014448
v 0.013773 0.021262 -0.014448
v 0.013776 0.021268 -0.014448
v 0.013778 0.021275 -0.014448
v 0.013776 0.021294 -0.014448
v 0.013773 0.021300 -0.014448
v 0.013769 0.021305 -0.014448
v 0.013773 0.021902 -0.014448
v 0.013769 0.021897 -0.014448
v 0.013764 0.021309 -0.014448
v 0.013764 0.021893 -0.014448
v 0.013738 0.021955 -0.014448
v 0.013745 0.021955 -0.014448
v 0.013745 0.021981 -0.014448
v 0.013726 0.021949 -0.014448
v 0.013732 0.021953 -0.014448
v 0.013721 0.021945 -0.014448
v 0.013716 0.021940 -0.014448
v 0.013713 0.021934 -0.014448
v 0.013711 0.021928 -0.014448
v 0.013745 0.021887 -0.014448
v 0.013751 0.021888 -0.014448
v 0.013751 0.021315 -0.014448
v 0.013758 0.021890 -0.014448
v 0.013758 0.021313 -0.014448
v 0.013779 0.021921 -0.014448
v 0.013778 0.021928 -0.014448
v 0.013776 0.021934 -0.014448
v 0.013773 0.021940 -0.014448
v 0.013769 0.021945 -0.014448
v 0.013764 0.021949 -0.014448
v 0.013758 0.021953 -0.014448
v 0.013751 0.021955 -0.014448
v 0.013676 0.021981 -0.014450
v 0.013676 0.021981 -0.014451
v 0.013676 0.021601 -0.014451
v 0.013676 0.021221 -0.014450
v 0.013676 0.021221 -0.014451
v 0.013676 0.021981 -0.014449
v 0.013677 0.021221 -0.014448
v 0.013676 0.021221 -0.014449
v 0.013677 0.021981 -0.014448
v 0.013693 0.021739 -0.014482
v 0.013702 0.021726 -0.014494
v 0.013692 0.021706 -0.014480
v 0.013685 0.021786 -0.014470
v 0.013694 0.021841 -0.014483
v 0.013679 0.021808 -0.014458
v 0.013686 0.021843 -0.014472
v 0.013684 0.021647 -0.014468
v 0.013683 0.021912 -0.014467
v 0.013686 0.021593 -0.014472
v 0.013695 0.021595 -0.014485
v 0.013686 0.021444 -0.014472
v 0.013687 0.021634 -0.014473
v 0.013679 0.021549 -0.014458
v 0.013698 0.021646 -0.014489
v 0.013708 0.021636 -0.014501
v 0.013689 0.021913 -0.014477
v 0.013684 0.021981 -0.014467
v 0.013699 0.021915 -0.014490
v 0.013693 0.021981 -0.014483
v 0.013704 0.021279 -0.014496
v 0.013711 0.021281 -0.014504
v 0.013711 0.021275 -0.014504
v 0.013709 0.021335 -0.014502
v 0.013711 0.021287 -0.014504
v 0.013711 0.021921 -0.014504
v 0.013711 0.021915 -0.014504
v 0.013705 0.021981 -0.014498
v 0.013695 0.021405 -0.014485
v 0.013715 0.021298 -0.014508
v 0.013707 0.021837 -0.014500
v 0.013684 0.021221 -0.014467
v 0.013715 0.021904 -0.014508
v 0.013693 0.021221 -0.014483
v 0.013713 0.021909 -0.014506
v 0.013718 0.021981 -0.014511
v 0.013718 0.021942 -0.014511
v 0.013715 0.021938 -0.014508
v 0.013713 0.021933 -0.014506
v 0.013711 0.021927 -0.014504
v 0.013705 0.021221 -0.014498
v 0.013713 0.021269 -0.014506
v 0.013715 0.021264 -0.014508
v 0.013713 0.021293 -0.014506
v 0.013753 0.021954 -0.014520
v 0.013752 0.021981 -0.014520
v 0.013759 0.021981 -0.014518
v 0.013745 0.021955 -0.014521
v 0.013760 0.021952 -0.014518
v 0.013765 0.021981 -0.014515
v 0.013766 0.021948 -0.014515
v 0.013771 0.021981 -0.014511
v 0.013771 0.021942 -0.014511
v 0.013745 0.021981 -0.014521
v 0.013737 0.021981 -0.014520
v 0.013737 0.021954 -0.014520
v 0.013730 0.021981 -0.014518
v 0.013729 0.021952 -0.014518
v 0.013724 0.021981 -0.014515
v 0.013723 0.021948 -0.014515
v 0.013797 0.021463 -0.014482
v 0.013787 0.021476 -0.014494
v 0.013798 0.021496 -0.014480
v 0.013804 0.021417 -0.014470
v 0.013796 0.021361 -0.014483
v 0.013810 0.021394 -0.014458
v 0.013803 0.021360 -0.014472
v 0.013805 0.021555 -0.014468
v 0.013806 0.021290 -0.014467
v 0.013803 0.021610 -0.014472
v 0.013794 0.021607 -0.014485
v 0.013803 0.021758 -0.014472
v 0.013803 0.021568 -0.014473
v 0.013810 0.021654 -0.014458
v 0.013791 0.021557 -0.014489
v 0.013781 0.021566 -0.014501
v 0.013800 0.021290 -0.014477
v 0.013806 0.021221 -0.014467
v 0.013790 0.021288 -0.014490
v 0.013796 0.021221 -0.014483
v 0.013785 0.021923 -0.014496
v 0.013779 0.021921 -0.014504
v 0.013778 0.021927 -0.014504
v 0.013781 0.021867 -0.014502
v 0.013778 0.021915 -0.014504
v 0.013779 0.021281 -0.014504
v 0.013778 0.021287 -0.014504
v 0.013784 0.021221 -0.014498
v 0.013795 0.021798 -0.014485
v 0.013774 0.021904 -0.014508
v 0.013782 0.021366 -0.014500
v 0.013806 0.021981 -0.014467
v 0.013774 0.021298 -0.014508
v 0.013796 0.021981 -0.014483
v 0.013777 0.021293 -0.014506
v 0.013777 0.021909 -0.014506
v 0.013778 0.021275 -0.014504
v 0.013777 0.021269 -0.014506
v 0.013774 0.021264 -0.014508
v 0.013784 0.021981 -0.014498
v 0.013777 0.021933 -0.014506
v 0.013774 0.021938 -0.014508
v 0.013813 0.021981 -0.014449
v 0.013812 0.021981 -0.014448
v 0.013813 0.021981 -0.014448
v 0.013814 0.021981 -0.014450
v 0.013812 0.021981 -0.014448
v 0.013813 0.021981 -0.014449
v 0.013813 0.021981 -0.014451
v 0.013812 0.021981 -0.014448
v 0.013814 0.021981 -0.014450
v 0.013806 0.021981 -0.014467
v 0.013745 0.021981 -0.014448
v 0.013812 0.021981 -0.014448
v 0.013806 0.021981 -0.014467
v 0.013812 0.021981 -0.014448
v 0.013813 0.021981 -0.014451
v 0.013745 0.021981 -0.014448
v 0.013806 0.021981 -0.014467
v 0.013796 0.021981 -0.014483
v 0.013745 0.021981 -0.014448
v 0.013796 0.021981 -0.014483
v 0.013784 0.021981 -0.014498
v 0.013745 0.021981 -0.014448
v 0.013784 0.021981 -0.014498
v 0.013771 0.021981 -0.014511
v 0.013759 0.021981 -0.014518
v 0.013745 0.021981 -0.014448
v 0.013765 0.021981 -0.014515
v 0.013745 0.021981 -0.014448
v 0.013771 0.021981 -0.014511
v 0.013765 0.021981 -0.014515
v 0.013752 0.021981 -0.014520
v 0.013745 0.021981 -0.014448
v 0.013759 0.021981 -0.014518
v 0.013752 0.021981 -0.014520
v 0.013745 0.021981 -0.014521
v 0.013745 0.021981 -0.014448
v 0.013745 0.021981 -0.014521
v 0.013737 0.021981 -0.014520
v 0.013745 0.021981 -0.014448
v 0.013737 0.021981 -0.014520
v 0.013730 0.021981 -0.014518
v 0.013745 0.021981 -0.014448
v 0.013745 0.021981 -0.014448
v 0.013724 0.021981 -0.014515
v 0.013718 0.021981 -0.014511
v 0.013693 0.021981 -0.014483
v 0.013684 0.021981 -0.014467
v 0.013745 0.021981 -0.014448
v 0.013684 0.021981 -0.014467
v 0.013678 0.021981 -0.014448
v 0.013745 0.021981 -0.014448
v 0.013745 0.021981 -0.014448
v 0.013718 0.021981 -0.014511
v 0.013705 0.021981 -0.014498
v 0.013676 0.021981 -0.014451
v 0.013678 0.021981 -0.014448
v 0.013684 0.021981 -0.014467
v 0.013677 0.021981 -0.014448
v 0.013678 0.021981 -0.014448
v 0.013676 0.021981 -0.014449
v 0.013678 0.021981 -0.014448
v 0.013676 0.021981 -0.014450
v 0.013676 0.021981 -0.014449
v 0.013678 0.021981 -0.014448
v 0.013676 0.021981 -0.014451
v 0.013676 0.021981 -0.014450
v 0.013745 0.021981 -0.014448
v 0.013705 0.021981 -0.014498
v 0.013693 0.021981 -0.014483
v 0.013730 0.021981 -0.014518
v 0.013724 0.021981 -0.014515
v 0.013745 0.021981 -0.014448
v 0.013812 0.021221 -0.014448
v 0.013806 0.021221 -0.014467
v 0.013813 0.021221 -0.014451
v 0.013812 0.021221 -0.014448
v 0.013745 0.021221 -0.014448
v 0.013806 0.021221 -0.014467
v 0.013806 0.021221 -0.014467
v 0.013745 0.021221 -0.014448
v 0.013796 0.021221 -0.014483
v 0.013796 0.021221 -0.014483
v 0.013745 0.021221 -0.014448
v 0.013784 0.021221 -0.014498
v 0.013759 0.021221 -0.014518
v 0.013765 0.021221 -0.014515
v 0.013745 0.021221 -0.014448
v 0.013745 0.021221 -0.014448
v 0.013765 0.021221 -0.014515
v 0.013771 0.021221 -0.014511
v 0.013752 0.021221 -0.014520
v 0.013759 0.021221 -0.014518
v 0.013745 0.021221 -0.014448
v 0.013752 0.021221 -0.014520
v 0.013745 0.021221 -0.014448
v 0.013745 0.021221 -0.014521
v 0.013745 0.021221 -0.014521
v 0.013745 0.021221 -0.014448
v 0.013737 0.021221 -0.014520
v 0.013737 0.021221 -0.014520
v 0.013745 0.021221 -0.014448
v 0.013730 0.021221 -0.014518
v 0.013745 0.021221 -0.014448
v 0.013718 0.021221 -0.014511
v 0.013724 0.021221 -0.014515
v 0.013693 0.021221 -0.014483
v 0.013745 0.021221 -0.014448
v 0.013684 0.021221 -0.014467
v 0.013684 0.021221 -0.014467
v 0.013745 0.021221 -0.014448
v 0.013678 0.021221 -0.014448
v 0.013745 0.021221 -0.014448
v 0.013705 0.021221 -0.014498
v 0.013718 0.021221 -0.014511
v 0.013676 0.021221 -0.014451
v 0.013684 0.021221 -0.014467
v 0.013678 0.021221 -0.014448
v 0.013677 0.021221 -0.014448
v 0.013676 0.021221 -0.014449
v 0.013678 0.021221 -0.014448
v 0.013678 0.021221 -0.014448
v 0.013676 0.021221 -0.014449
v 0.013676 0.021221 -0.014450
v 0.013678 0.021221 -0.014448
v 0.013676 0.021221 -0.014450
v 0.013676 0.021221 -0.014451
v 0.013745 0.021221 -0.014448
v 0.013693 0.021221 -0.014483
v 0.013705 0.021221 -0.014498
v 0.013813 0.021221 -0.014451
v 0.013814 0.021221 -0.014450
v 0.013812 0.021221 -0.014448
v 0.013814 0.021221 -0.014450
v 0.013813 0.021221 -0.014449
v 0.013813 0.021221 -0.014448
v 0.013812 0.021221 -0.014448
v 0.013814 0.021221 -0.014450
v 0.013813 0.021221 -0.014448
v 0.013730 0.021221 -0.014518
v 0.013745 0.021221 -0.014448
v 0.013724 0.021221 -0.014515
v 0.013784 0.021221 -0.014498
v 0.013745 0.021221 -0.014448
v 0.013771 0.021221 -0.014511
v 0.013715 0.021264 -0.014508
v 0.013713 0.021268 -0.014448
v 0.013716 0.021262 -0.014448
v 0.013715 0.021264 -0.014508
v 0.013716 0.021262 -0.014448
v 0.013718 0.021260 -0.014511
v 0.013713 0.021269 -0.014506
v 0.013711 0.021275 -0.014448
v 0.013713 0.021268 -0.014448
v 0.013711 0.021275 -0.014504
v 0.013711 0.021275 -0.014448
v 0.013713 0.021269 -0.014506
v 0.013711 0.021281 -0.014504
v 0.013711 0.021281 -0.014448
v 0.013711 0.021275 -0.014504
v 0.013711 0.021281 -0.014448
v 0.013711 0.021281 -0.014504
v 0.013711 0.021287 -0.014504
v 0.013711 0.021288 -0.014448
v 0.013711 0.021287 -0.014504
v 0.013713 0.021293 -0.014506
v 0.013711 0.021288 -0.014448
v 0.013713 0.021293 -0.014506
v 0.013713 0.021294 -0.014448
v 0.013713 0.021294 -0.014448
v 0.013715 0.021298 -0.014508
v 0.013716 0.021300 -0.014448
v 0.013721 0.021305 -0.014448
v 0.013718 0.021302 -0.014511
v 0.013723 0.021308 -0.014515
v 0.013715 0.021298 -0.014508
v 0.013718 0.021302 -0.014511
v 0.013716 0.021300 -0.014448
v 0.013738 0.021315 -0.014448
v 0.013737 0.021314 -0.014520
v 0.013745 0.021315 -0.014521
v 0.013732 0.021313 -0.014448
v 0.013737 0.021314 -0.014520
v 0.013738 0.021315 -0.014448
v 0.013737 0.021314 -0.014520
v 0.013732 0.021313 -0.014448
v 0.013729 0.021312 -0.014518
v 0.013732 0.021313 -0.014448
v 0.013726 0.021309 -0.014448
v 0.013729 0.021312 -0.014518
v 0.013726 0.021309 -0.014448
v 0.013723 0.021308 -0.014515
v 0.013729 0.021312 -0.014518
v 0.013721 0.021305 -0.014448
v 0.013723 0.021308 -0.014515
v 0.013726 0.021309 -0.014448
v 0.013716 0.021300 -0.014448
v 0.013718 0.021302 -0.014511
v 0.013721 0.021305 -0.014448
v 0.013713 0.021294 -0.014448
v 0.013713 0.021293 -0.014506
v 0.013715 0.021298 -0.014508
v 0.013711 0.021288 -0.014448
v 0.013711 0.021281 -0.014448
v 0.013711 0.021287 -0.014504
v 0.013716 0.021262 -0.014448
v 0.013721 0.021257 -0.014448
v 0.013718 0.021260 -0.014511
v 0.013721 0.021257 -0.014448
v 0.013723 0.021255 -0.014515
v 0.013718 0.021260 -0.014511
v 0.013726 0.021253 -0.014448
v 0.013723 0.021255 -0.014515
v 0.013721 0.021257 -0.014448
v 0.013729 0.021251 -0.014518
v 0.013723 0.021255 -0.014515
v 0.013726 0.021253 -0.014448
v 0.013729 0.021251 -0.014518
v 0.013726 0.021253 -0.014448
v 0.013732 0.021250 -0.014448
v 0.013729 0.021251 -0.014518
v 0.013732 0.021250 -0.014448
v 0.013737 0.021248 -0.014520
v 0.013732 0.021250 -0.014448
v 0.013738 0.021248 -0.014448
v 0.013737 0.021248 -0.014520
v 0.013738 0.021248 -0.014448
v 0.013745 0.021247 -0.014521
v 0.013737 0.021248 -0.014520
v 0.013745 0.021247 -0.014448
v 0.013745 0.021247 -0.014521
v 0.013738 0.021248 -0.014448
v 0.013751 0.021248 -0.014448
v 0.013745 0.021247 -0.014521
v 0.013745 0.021247 -0.014448
v 0.013753 0.021248 -0.014520
v 0.013745 0.021247 -0.014521
v 0.013751 0.021248 -0.014448
v 0.013753 0.021248 -0.014520
v 0.013751 0.021248 -0.014448
v 0.013758 0.021250 -0.014448
v 0.013753 0.021248 -0.014520
v 0.013758 0.021250 -0.014448
v 0.013760 0.021251 -0.014518
v 0.013758 0.021250 -0.014448
v 0.013764 0.021253 -0.014448
v 0.013760 0.021251 -0.014518
v 0.013764 0.021253 -0.014448
v 0.013766 0.021255 -0.014515
v 0.013760 0.021251 -0.014518
v 0.013769 0.021257 -0.014448
v 0.013766 0.021255 -0.014515
v 0.013764 0.021253 -0.014448
v 0.013771 0.021260 -0.014511
v 0.013766 0.021255 -0.014515
v 0.013769 0.021257 -0.014448
v 0.013771 0.021260 -0.014511
v 0.013769 0.021257 -0.014448
v 0.013773 0.021262 -0.014448
v 0.013779 0.021281 -0.014504
v 0.013779 0.021281 -0.014448
v 0.013778 0.021287 -0.014504
v 0.013779 0.021281 -0.014448
v 0.013778 0.021288 -0.014448
v 0.013778 0.021287 -0.014504
v 0.013769 0.021305 -0.014448
v 0.013771 0.021302 -0.014511
v 0.013773 0.021300 -0.014448
v 0.013771 0.021302 -0.014511
v 0.013774 0.021298 -0.014508
v 0.013773 0.021300 -0.014448
v 0.013745 0.021315 -0.014448
v 0.013738 0.021315 -0.014448
v 0.013745 0.021315 -0.014521
v 0.013713 0.021268 -0.014448
v 0.013715 0.021264 -0.014508
v 0.013713 0.021269 -0.014506
v 0.013745 0.021315 -0.014521
v 0.013751 0.021315 -0.014448
v 0.013745 0.021315 -0.014448
v 0.013753 0.021314 -0.014520
v 0.013751 0.021315 -0.014448
v 0.013745 0.021315 -0.014521
v 0.013758 0.021313 -0.014448
v 0.013751 0.021315 -0.014448
v 0.013753 0.021314 -0.014520
v 0.013758 0.021313 -0.014448
v 0.013753 0.021314 -0.014520
v 0.013760 0.021312 -0.014518
v 0.013758 0.021313 -0.014448
v 0.013760 0.021312 -0.014518
v 0.013764 0.021309 -0.014448
v 0.013760 0.021312 -0.014518
v 0.013766 0.021308 -0.014515
v 0.013764 0.021309 -0.014448
v 0.013766 0.021308 -0.014515
v 0.013769 0.021305 -0.014448
v 0.013764 0.021309 -0.014448
v 0.013771 0.021302 -0.014511
v 0.013769 0.021305 -0.014448
v 0.013766 0.021308 -0.014515
v 0.013773 0.021300 -0.014448
v 0.013774 0.021298 -0.014508
v 0.013776 0.021294 -0.014448
v 0.013774 0.021298 -0.014508
v 0.013777 0.021293 -0.014506
v 0.013776 0.021294 -0.014448
v 0.013778 0.021287 -0.014504
v 0.013778 0.021288 -0.014448
v 0.013777 0.021293 -0.014506
v 0.013779 0.021281 -0.014504
v 0.013778 0.021275 -0.014504
v 0.013779 0.021281 -0.014448
v 0.013773 0.021262 -0.014448
v 0.013774 0.021264 -0.014508
v 0.013771 0.021260 -0.014511
v 0.013778 0.021275 -0.014504
v 0.013778 0.021275 -0.014448
v 0.013779 0.021281 -0.014448
v 0.013778 0.021275 -0.014504
v 0.013777 0.021269 -0.014506
v 0.013778 0.021275 -0.014448
v 0.013777 0.021269 -0.014506
v 0.013776 0.021268 -0.014448
v 0.013778 0.021275 -0.014448
v 0.013711 0.021281 -0.014448
v 0.013711 0.021275 -0.014448
v 0.013711 0.021275 -0.014504
v 0.013777 0.021269 -0.014506
v 0.013774 0.021264 -0.014508
v 0.013776 0.021268 -0.014448
v 0.013776 0.021268 -0.014448
v 0.013774 0.021264 -0.014508
v 0.013773 0.021262 -0.014448
v 0.013776 0.021294 -0.014448
v 0.013777 0.021293 -0.014506
v 0.013778 0.021288 -0.014448
v 0.013715 0.021904 -0.014508
v 0.013713 0.021908 -0.014448
v 0.013716 0.021902 -0.014448
v 0.013715 0.021904 -0.014508
v 0.013716 0.021902 -0.014448
v 0.013718 0.021900 -0.014511
v 0.013713 0.021909 -0.014506
v 0.013711 0.021915 -0.014448
v 0.013713 0.021908 -0.014448
v 0.013711 0.021915 -0.014504
v 0.013711 0.021915 -0.014448
v 0.013713 0.021909 -0.014506
v 0.013711 0.021921 -0.014504
v 0.013711 0.021921 -0.014448
v 0.013711 0.021915 -0.014504
v 0.013711 0.021921 -0.014448
v 0.013711 0.021921 -0.014504
v 0.013711 0.021927 -0.014504
v 0.013711 0.021928 -0.014448
v 0.013711 0.021927 -0.014504
v 0.013713 0.021933 -0.014506
v 0.013711 0.021928 -0.014448
v 0.013713 0.021933 -0.014506
v 0.013713 0.021934 -0.014448
v 0.013713 0.021934 -0.014448
v 0.013715 0.021938 -0.014508
v 0.013716 0.021940 -0.014448
v 0.013721 0.021945 -0.014448
v 0.013718 0.021942 -0.014511
v 0.013723 0.021948 -0.014515
v 0.013715 0.021938 -0.014508
v 0.013718 0.021942 -0.014511
v 0.013716 0.021940 -0.014448
v 0.013738 0.021955 -0.014448
v 0.013737 0.021954 -0.014520
v 0.013745 0.021955 -0.014521
v 0.013732 0.021953 -0.014448
v 0.013737 0.021954 -0.014520
v 0.013738 0.021955 -0.014448
v 0.013737 0.021954 -0.014520
v 0.013732 0.021953 -0.014448
v 0.013729 0.021952 -0.014518
v 0.013732 0.021953 -0.014448
v 0.013726 0.021949 -0.014448
v 0.013729 0.021952 -0.014518
v 0.013726 0.021949 -0.014448
v 0.013723 0.021948 -0.014515
v 0.013729 0.021952 -0.014518
v 0.013721 0.021945 -0.014448
v 0.013723 0.021948 -0.014515
v 0.013726 0.021949 -0.014448
v 0.013716 0.021940 -0.014448
v 0.013718 0.021942 -0.014511
v 0.013721 0.021945 -0.014448
v 0.013713 0.021934 -0.014448
v 0.013713 0.021933 -0.014506
v 0.013715 0.021938 -0.014508
v 0.013711 0.021928 -0.014448
v 0.013711 0.021921 -0.014448
v 0.013711 0.021927 -0.014504
v 0.013716 0.021902 -0.014448
v 0.013721 0.021897 -0.014448
v 0.013718 0.021900 -0.014511
v 0.013721 0.021897 -0.014448
v 0.013723 0.021895 -0.014515
v 0.013718 0.021900 -0.014511
v 0.013726 0.021893 -0.014448
v 0.013723 0.021895 -0.014515
v 0.013721 0.021897 -0.014448
v 0.013729 0.021891 -0.014518
v 0.013723 0.021895 -0.014515
v 0.013726 0.021893 -0.014448
v 0.013729 0.021891 -0.014518
v 0.013726 0.021893 -0.014448
v 0.013732 0.021890 -0.014448
v 0.013729 0.021891 -0.014518
v 0.013732 0.021890 -0.014448
v 0.013737 0.021888 -0.014520
v 0.013732 0.021890 -0.014448
v 0.013738 0.021888 -0.014448
v 0.013737 0.021888 -0.014520
v 0.013738 0.021888 -0.014448
v 0.013745 0.021887 -0.014521
v 0.013737 0.021888 -0.014520
v 0.013745 0.021887 -0.014448
v 0.013745 0.021887 -0.014521
v 0.013738 0.021888 -0.014448
v 0.013751 0.021888 -0.014448
v 0.013745 0.021887 -0.014521
v 0.013745 0.021887 -0.014448
v 0.013753 0.021888 -0.014520
v 0.013745 0.021887 -0.014521
v 0.013751 0.021888 -0.014448
v 0.013753 0.021888 -0.014520
v 0.013751 0.021888 -0.014448
v 0.013758 0.021890 -0.014448
v 0.013753 0.021888 -0.014520
v 0.013758 0.021890 -0.014448
v 0.013760 0.021891 -0.014518
v 0.013758 0.021890 -0.014448
v 0.013764 0.021893 -0.014448
v 0.013760 0.021891 -0.014518
v 0.013764 0.021893 -0.014448
v 0.013766 0.021895 -0.014515
v 0.013760 0.021891 -0.014518
v 0.013769 0.021897 -0.014448
v 0.013766 0.021895 -0.014515
v 0.013764 0.021893 -0.014448
v 0.013771 0.021900 -0.014511
v 0.013766 0.021895 -0.014515
v 0.013769 0.021897 -0.014448
v 0.013771 0.021900 -0.014511
v 0.013769 0.021897 -0.014448
v 0.013773 0.021902 -0.014448
v 0.013779 0.021921 -0.014504
v 0.013779 0.021921 -0.014448
v 0.013778 0.021927 -0.014504
v 0.013779 0.021921 -0.014448
v 0.013778 0.021928 -0.014448
v 0.013778 0.021927 -0.014504
v 0.013769 0.021945 -0.014448
v 0.013771 0.021942 -0.014511
v 0.013773 0.021940 -0.014448
v 0.013771 0.021942 -0.014511
v 0.013774 0.021938 -0.014508
v 0.013773 0.021940 -0.014448
v 0.013745 0.021955 -0.014448
v 0.013738 0.021955 -0.014448
v 0.013745 0.021955 -0.014521
v 0.013713 0.021908 -0.014448
v 0.013715 0.021904 -0.014508
v 0.013713 0.021909 -0.014506
v 0.013745 0.021955 -0.014521
v 0.013751 0.021955 -0.014448
v 0.013745 0.021955 -0.014448
v 0.013753 0.021954 -0.014520
v 0.013751 0.021955 -0.014448
v 0.013745 0.021955 -0.014521
v 0.013758 0.021953 -0.014448
v 0.013751 0.021955 -0.014448
v 0.013753 0.021954 -0.014520
v 0.013758 0.021953 -0.014448
v 0.013753 0.021954 -0.014520
v 0.013760 0.021952 -0.014518
v 0.013758 0.021953 -0.014448
v 0.013760 0.021952 -0.014518
v 0.013764 0.021949 -0.014448
v 0.013760 0.021952 -0.014518
v 0.013766 0.021948 -0.014515
v 0.013764 0.021949 -0.014448
v 0.013766 0.021948 -0.014515
v 0.013769 0.021945 -0.014448
v 0.013764 0.021949 -0.014448
v 0.013771 0.021942 -0.014511
v 0.013769 0.021945 -0.014448
v 0.013766 0.021948 -0.014515
v 0.013773 0.021940 -0.014448
v 0.013774 0.021938 -0.014508
v 0.013776 0.021934 -0.014448
v 0.013774 0.021938 -0.014508
v 0.013777 0.021933 -0.014506
v 0.013776 0.021934 -0.014448
v 0.013778 0.021927 -0.014504
v 0.013778 0.021928 -0.014448
v 0.013777 0.021933 -0.014506
v 0.013779 0.021921 -0.014504
v 0.013778 0.021915 -0.014504
v 0.013779 0.021921 -0.014448
v 0.013773 0.021902 -0.014448
v 0.013774 0.021904 -0.014508
v 0.013771 0.021900 -0.014511
v 0.013778 0.021915 -0.014504
v 0.013778 0.021915 -0.014448
v 0.013779 0.021921 -0.014448
v 0.013778 0.021915 -0.014504
v 0.013777 0.021909 -0.014506
v 0.013778 0.021915 -0.014448
v 0.013777 0.021909 -0.014506
v 0.013776 0.021908 -0.014448
v 0.013778 0.021915 -0.014448
v 0.013711 0.021921 -0.014448
v 0.013711 0.021915 -0.014448
v 0.013711 0.021915 -0.014504
v 0.013777 0.021909 -0.014506
v 0.013774 0.021904 -0.014508
v 0.013776 0.021908 -0.014448
v 0.013776 0.021908 -0.014448
v 0.013774 0.021904 -0.014508
v 0.013773 0.021902 -0.014448
v 0.013776 0.021934 -0.014448
v 0.013777 0.021933 -0.014506
v 0.013778 0.021928 -0.014448
vn -0.5377 -0.0000 -0.8431
vn -0.6640 -0.0000 -0.7477
vn -0.5379 -0.0000 -0.8430
vn -0.3824 -0.0000 -0.9240
vn -0.3821 -0.0000 -0.9241
vn -0.1989 -0.0000 -0.9800
vn -0.1985 -0.0000 -0.9801
vn -0.0001 -0.0000 -1.0000
vn 0.0007 -0.0000 -1.0000
vn 0.5380 -0.0000 -0.8429
vn 0.6640 -0.0000 -0.7477
vn 0.5378 -0.0000 -0.8431
vn 0.3827 -0.0000 -0.9239
vn 0.3825 -0.0000 -0.9240
vn 0.1996 -0.0000 -0.9799
vn 0.1991 -0.0000 -0.9800
vn -0.5181 -0.0000 -0.8553
vn -0.3551 -0.0000 -0.9348
vn -0.1805 -0.0000 -0.9836
vn 0.0009 -0.0000 -1.0000
vn 0.1805 -0.0000 -0.9836
vn 0.5181 -0.0000 -0.8553
vn 0.3551 -0.0001 -0.9348
vn 0.5378 -0.0000 -0.8430
vn -0.0000 -0.0000 1.0000
vn 0.4688 -0.0000 0.8833
vn 0.8282 -0.0000 0.5604
vn 0.9283 -0.0000 -0.3717
vn 0.9943 -0.0000 0.1069
vn 0.9283 -0.0004 -0.3717
vn 0.9283 -0.0015 -0.3717
vn -0.0001 -0.0000 1.0000
vn 0.0002 -0.0000 1.0000
vn 0.0001 -0.0000 1.0000
vn -0.0002 -0.0000 1.0000
vn -0.9943 -0.0000 0.1069
vn -0.9284 0.0004 -0.3716
vn -0.9284 -0.0000 -0.3716
vn -0.8282 -0.0000 0.5604
vn -0.4688 -0.0000 0.8833
vn -0.8230 -0.0000 -0.5680
vn -0.7636 -0.0000 -0.6456
vn -0.8293 -0.0000 -0.5588
vn -0.8691 -0.0000 -0.4947
vn -0.8174 -0.0000 -0.5761
vn -0.9088 -0.0000 -0.4172
vn -0.8632 -0.0000 -0.5048
vn -0.8763 -0.0000 -0.4817
vn -0.8815 -0.0000 -0.4721
vn -0.8621 -0.0000 -0.5068
vn -0.8087 -0.0000 -0.5882
vn -0.8614 -0.0000 -0.5080
vn -0.8607 -0.0000 -0.5091
vn -0.9083 -0.0000 -0.4183
vn -0.7895 -0.0000 -0.6137
vn -0.7244 -0.0000 -0.6894
vn -0.8446 -0.0000 -0.5354
vn -0.8791 -0.0000 -0.4766
vn -0.7845 -0.0000 -0.6202
vn -0.8181 -0.0000 -0.5751
vn -0.7527 -0.0000 -0.6583
vn -0.7108 -0.0000 -0.7034
vn -0.7074 -0.0000 -0.7068
vn -0.7229 -0.0000 -0.6909
vn -0.7460 -0.0000 -0.6659
vn -0.8110 -0.0000 -0.5850
vn -0.6831 -0.0000 -0.7303
vn -0.7303 -0.0000 -0.6832
vn -0.6978 -0.0000 -0.7163
vn -0.6831 -0.0000 -0.7304
vn -0.7076 -0.0000 -0.7066
vn -0.7461 -0.0000 -0.6659
vn -0.6979 -0.0000 -0.7162
vn 0.3551 -0.0000 -0.9348
vn -0.0000 -0.0000 -1.0000
vn 0.3828 -0.0000 -0.9238
vn -0.3551 0.0001 -0.9348
vn -0.5376 -0.0000 -0.8432
vn 0.8230 -0.0000 -0.5680
vn 0.7637 -0.0000 -0.6456
vn 0.8293 -0.0000 -0.5588
vn 0.8691 -0.0000 -0.4947
vn 0.8174 -0.0000 -0.5761
vn 0.9088 -0.0000 -0.4172
vn 0.8632 -0.0000 -0.5048
vn 0.8763 -0.0000 -0.4817
vn 0.8815 -0.0000 -0.4721
vn 0.8621 -0.0000 -0.5068
vn 0.8087 -0.0000 -0.5882
vn 0.8614 -0.0000 -0.5080
vn 0.8607 -0.0000 -0.5091
vn 0.9083 -0.0000 -0.4183
vn 0.7895 -0.0000 -0.6137
vn 0.7244 -0.0000 -0.6894
vn 0.8446 -0.0000 -0.5354
vn 0.8791 -0.0000 -0.4766
vn 0.7845 -0.0000 -0.6202
vn 0.8181 -0.0000 -0.5751
vn 0.7527 -0.0000 -0.6583
vn 0.7108 -0.0000 -0.7034
vn 0.7074 -0.0000 -0.7068
vn 0.7229 -0.0000 -0.6909
vn 0.7460 -0.0000 -0.6659
vn 0.8110 -0.0000 -0.5850
vn 0.6831 -0.0000 -0.7303
vn 0.7303 -0.0000 -0.6832
vn 0.6979 -0.0000 -0.7162
vn 0.6978 -0.0000 -0.7163
vn 0.6830 -0.0000 -0.7304
vn 0.7461 -0.0000 -0.6659
vn -0.0000 1.0000 -0.0000
vn -0.0000 1.0000 -0.0001
vn -0.0000 1.0000 -0.0002
vn -0.0000 1.0000 -0.0003
vn -0.0000 1.0000 0.0002
vn -0.0000 1.0000 0.0001
vn -0.0000 -1.0000 -0.0000
vn -0.0000 -1.0000 -0.0001
vn 0.8696 0.4938 -0.0000
vn 0.9239 0.3827 -0.0000
vn 0.8315 0.5555 -0.0000
vn 0.8314 0.5556 -0.0000
vn 0.7801 0.6257 -0.0000
vn 0.9391 0.3436 -0.0000
vn 0.9808 0.1951 -0.0000
vn 0.9239 0.3826 -0.0000
vn 0.9843 0.1766 -0.0000
vn 1.0000 -0.0000 -0.0000
vn 0.9843 0.1764 -0.0000
vn 0.9843 -0.1768 -0.0000
vn 0.9808 -0.1951 -0.0000
vn 0.9842 -0.1769 -0.0000
vn 0.9389 -0.3441 -0.0000
vn 0.9239 -0.3827 -0.0000
vn 0.8695 -0.4940 -0.0000
vn 0.8315 -0.5555 -0.0000
vn 0.7071 -0.7071 -0.0000
vn 0.7800 -0.6257 -0.0000
vn 0.6315 -0.7754 -0.0000
vn 0.8694 -0.4940 -0.0000
vn 0.8315 -0.5556 -0.0000
vn 0.1951 -0.9808 -0.0000
vn 0.2337 -0.9723 -0.0000
vn 0.3827 -0.9239 -0.0000
vn 0.1951 -0.9808 -0.0012
vn 0.3826 -0.9239 -0.0000
vn 0.4488 -0.8937 -0.0000
vn 0.5556 -0.8315 -0.0000
vn 0.4489 -0.8936 -0.0000
vn 0.6314 -0.7755 -0.0000
vn 0.6314 -0.7754 -0.0000
vn 0.5556 -0.8314 -0.0000
vn 0.8314 -0.5556 -0.0000
vn 0.7800 -0.6258 -0.0000
vn 0.7072 -0.7071 -0.0000
vn 0.8695 -0.4939 -0.0000
vn 0.9808 -0.1950 -0.0000
vn 0.7070 0.7072 -0.0000
vn 0.7800 0.6258 -0.0000
vn 0.7071 0.7071 -0.0000
vn 0.6317 0.7752 -0.0000
vn 0.5556 0.8314 -0.0000
vn 0.4492 0.8934 -0.0000
vn 0.5556 0.8315 -0.0000
vn 0.5555 0.8315 -0.0000
vn 0.3827 0.9239 -0.0000
vn 0.2332 0.9724 -0.0000
vn 0.3827 0.9239 -0.0010
vn 0.1951 0.9808 -0.0000
vn -0.0009 1.0000 -0.0000
vn -0.0011 1.0000 -0.0000
vn 0.1950 0.9808 -0.0000
vn -0.1950 0.9808 -0.0000
vn -0.2344 0.9721 -0.0000
vn -0.1951 0.9808 -0.0000
vn -0.2345 0.9721 -0.0000
vn -0.1951 0.9808 -0.0012
vn -0.3826 0.9239 -0.0000
vn -0.3827 0.9239 -0.0000
vn -0.4493 0.8934 -0.0000
vn -0.5556 0.8315 -0.0000
vn -0.5555 0.8315 -0.0000
vn -0.6316 0.7753 -0.0000
vn -0.7071 0.7071 -0.0000
vn -0.7800 0.6258 -0.0000
vn -0.8314 0.5556 -0.0000
vn -1.0000 -0.0000 -0.0000
vn -0.9843 -0.1765 -0.0000
vn -1.0000 -0.0000 -0.0009
vn -0.9808 -0.1950 -0.0000
vn -0.7071 -0.7071 -0.0000
vn -0.7800 -0.6258 -0.0000
vn -0.8315 -0.5556 -0.0000
vn -0.7800 -0.6257 -0.0000
vn -0.8696 -0.4938 -0.0000
vn 0.1950 -0.9808 -0.0000
vn 0.8696 0.4937 -0.0000
vn -0.1950 -0.9808 -0.0000
vn -0.2340 -0.9722 -0.0000
vn -0.1951 -0.9808 -0.0000
vn -0.3826 -0.9239 -0.0011
vn -0.3827 -0.9239 -0.0000
vn -0.4496 -0.8932 -0.0000
vn -0.4497 -0.8932 -0.0000
vn -0.5556 -0.8315 -0.0000
vn -0.6319 -0.7751 -0.0000
vn -0.5557 -0.8314 -0.0000
vn -0.6319 -0.7750 -0.0000
vn -0.8315 -0.5555 -0.0000
vn -0.9239 -0.3827 -0.0000
vn -0.8696 -0.4937 -0.0000
vn -0.9391 -0.3436 -0.0000
vn -0.9843 -0.1766 -0.0000
vn -0.9808 -0.1951 -0.0000
vn -0.9391 -0.3435 -0.0000
vn -0.9843 0.1768 -0.0000
vn -0.8695 0.4940 -0.0000
vn -0.7801 0.6257 -0.0000
vn -0.9842 0.1768 -0.0000
vn -0.9808 0.1950 -0.0008
vn -0.9389 0.3441 -0.0000
vn -0.9808 0.1951 -0.0000
vn -0.9239 0.3827 -0.0000
vn 1.0000 -0.0000 -0.0009
vn 0.9808 0.1950 -0.0000
vn -0.8315 0.5555 -0.0000
vn 0.8315 0.5556 -0.0000
vn 0.7800 0.6257 -0.0000
vn 0.9843 0.1767 -0.0000
vn 0.7801 -0.6257 -0.0000
vn 0.4488 -0.8936 -0.0000
vn 0.7070 -0.7072 -0.0000
vn 0.7072 0.7071 -0.0000
vn 0.7070 0.7073 -0.0000
vn 0.4493 0.8934 -0.0000
vn 0.3826 0.9239 -0.0010
vn -0.2346 0.9721 -0.0000
vn -0.3827 0.9239 -0.0001
vn -0.5556 0.8314 -0.0000
vn -0.6317 0.7752 -0.0000
vn -0.8315 0.5556 -0.0000
vn -0.8314 -0.5556 -0.0000
vn -0.7801 -0.6257 -0.0000
vn -0.5556 -0.8314 -0.0000
vn -0.9391 -0.3437 -0.0000
vn -0.9389 0.3442 -0.0000
vt -0.215096 2.935857
vt -0.265600 2.986935
vt -0.215200 -2.935890
vt -0.265600 -2.986935
vt -0.152949 -2.895785
vt -0.152835 2.895729
vt -0.079526 2.869125
vt -0.079333 -2.869177
vt -0.000000 2.859500
vt 0.000369 -2.859500
vt 0.215265 2.935943
vt 0.265600 -2.986935
vt 0.265600 2.986935
vt 0.215160 -2.935910
vt 0.153106 2.895863
vt 0.152992 -2.895806
vt 0.079792 -2.869190
vt 0.079601 2.869241
vt -0.265600 3.800000
vt -0.265600 3.413065
vt -0.215200 3.464110
vt -0.207236 3.800000
vt -0.152949 3.504215
vt -0.142061 3.800000
vt -0.079333 3.530823
vt -0.072217 3.800000
vt 0.000369 3.540500
vt 0.072217 3.800000
vt -0.000000 3.800000
vt 0.079792 3.530810
vt 0.152992 3.504194
vt 0.207236 3.800000
vt 0.142061 3.800000
vt 0.215160 3.464090
vt 0.265600 3.800000
vt 0.265600 3.413065
vt -0.670000 -3.800000
vt -0.670000 3.800000
vt -0.679376 -3.800000
vt -0.679376 3.800000
vt -0.686563 -3.800000
vt -0.686563 3.800000
vt -0.027434 0.000000
vt -0.017863 3.800000
vt -0.027434 3.800000
vt -0.027434 -3.800000
vt -0.017863 -3.800000
vt -0.008790 3.800000
vt -0.008790 -3.800000
vt 0.000000 3.540500
vt 0.066428 3.533957
vt 0.670000 -3.800000
vt 0.670000 3.800000
vt 0.314581 -3.069696
vt -0.333957 -3.133572
vt -0.314581 -3.069696
vt -0.333957 3.133572
vt -0.340500 3.200000
vt 0.333957 3.133572
vt 0.314581 3.069696
vt 0.066428 2.866043
vt 0.066428 -2.866043
vt 0.130304 2.885419
vt 0.130304 -2.885419
vt 0.189172 2.916885
vt 0.189172 -2.916885
vt 0.240770 2.959230
vt 0.240770 -2.959230
vt 0.283115 3.010828
vt 0.283115 -3.010828
vt 0.340500 3.200000
vt 0.333957 3.266428
vt 0.314581 3.330304
vt 0.340500 -3.200000
vt 0.333957 -3.133572
vt 0.283115 3.389172
vt 0.240770 3.440770
vt 0.189172 3.483115
vt 0.130304 3.514581
vt -0.189172 3.483115
vt -0.066428 3.533957
vt -0.240770 3.440770
vt -0.130304 3.514581
vt -0.283115 3.389172
vt -0.314581 3.330304
vt -0.333957 3.266428
vt -0.314581 3.069696
vt -0.283115 3.010828
vt -0.240770 2.959230
vt -0.283115 -3.010828
vt -0.240770 -2.959230
vt -0.189172 2.916885
vt -0.189172 -2.916885
vt 0.066428 -3.533957
vt 0.000000 -3.540500
vt 0.000000 -3.800000
vt 0.189172 -3.483115
vt 0.130304 -3.514581
vt 0.240770 -3.440770
vt 0.283115 -3.389172
vt 0.314581 -3.330304
vt 0.333957 -3.266428
vt 0.000000 -2.859500
vt -0.066428 -2.866043
vt -0.066428 2.866043
vt -0.130304 -2.885419
vt -0.130304 2.885419
vt -0.340500 -3.200000
vt -0.333957 -3.266428
vt -0.314581 -3.330304
vt -0.283115 -3.389172
vt -0.240770 -3.440770
vt -0.189172 -3.483115
vt -0.130304 -3.514581
vt -0.066428 -3.533957
vt 0.017863 -3.800000
vt 0.027434 -3.800000
vt 0.027434 0.000000
vt 0.017863 3.800000
vt 0.027434 3.800000
vt 0.008790 -3.800000
vt 0.679376 3.800000
vt 0.008790 3.800000
vt 0.679376 -3.800000
vt 0.686563 3.800000
vt 0.686563 -3.800000
vt 0.341502 -1.380538
vt 0.465775 -1.250216
vt 0.326681 -1.046634
vt 0.224179 -1.844763
vt 0.354431 -2.400590
vt 0.100135 -2.071914
vt 0.240467 -2.415741
vt 0.203471 -0.458612
vt 0.188076 -3.110722
vt 0.243632 0.084673
vt 0.373806 0.059025
vt 0.245512 1.572587
vt 0.247313 -0.329203
vt 0.101907 0.524196
vt 0.414702 -0.445495
vt 0.535818 -0.348878
vt 0.289348 -3.116424
vt 0.195285 -3.800000
vt 0.424957 -3.133532
vt 0.352896 -3.800000
vt 0.485998 3.220341
vt 0.558131 3.199994
vt 0.563620 3.260099
vt 0.538222 2.661030
vt 0.563663 3.139814
vt 0.558131 -3.200006
vt 0.563620 -3.139901
vt 0.498148 -3.800000
vt 0.368722 1.964393
vt -0.359862 2.661030
vt -0.296109 3.031760
vt 0.525799 -2.355137
vt 0.195285 3.800000
vt -0.371609 -2.355137
vt -0.362155 -0.348878
vt -0.296137 -3.031841
vt 0.352896 3.800000
vt -0.335066 -3.139901
vt -0.319764 -3.082992
vt -0.265600 -3.800000
vt -0.265600 -3.413065
vt -0.296109 -3.368240
vt 0.578764 -3.317169
vt 0.563663 -3.260186
vt 0.498148 3.800000
vt 0.578707 3.317008
vt -0.319764 3.317008
vt -0.296137 3.368159
vt -0.396877 3.800000
vt -0.319706 3.082831
vt -0.319706 -3.317169
vt -0.396877 -3.800000
vt -0.335022 3.139814
vt 0.079601 -3.530759
vt 0.072217 -3.800000
vt 0.142061 -3.800000
vt 0.153106 -3.504138
vt 0.207236 -3.800000
vt 0.215265 -3.464057
vt 0.265600 -3.800000
vt 0.265600 -3.413065
vt -0.072217 -3.800000
vt -0.079526 -3.530875
vt -0.142061 -3.800000
vt -0.152835 -3.504271
vt -0.207236 -3.800000
vt -0.215096 -3.464143
vt -0.341502 1.380538
vt -0.465775 1.250216
vt -0.326681 1.046634
vt -0.224179 1.844763
vt -0.354431 2.400590
vt -0.100135 2.071914
vt -0.240467 2.415741
vt -0.203471 0.458612
vt -0.188076 3.110722
vt -0.243632 -0.084673
vt -0.373806 -0.059025
vt -0.245512 -1.572587
vt -0.247313 0.329203
vt -0.101907 -0.524196
vt -0.414702 0.445495
vt -0.535818 0.348878
vt -0.289348 3.116424
vt -0.195285 3.800000
vt -0.424957 3.133532
vt -0.352896 3.800000
vt -0.485998 -3.220341
vt -0.558131 -3.199994
vt -0.563620 -3.260099
vt -0.538222 -2.661030
vt -0.563663 -3.139814
vt -0.558131 3.200006
vt -0.563620 3.139901
vt -0.498148 3.800000
vt -0.368722 -1.964393
vt 0.359862 -2.661030
vt 0.296109 -3.031760
vt -0.525799 2.355137
vt -0.195285 -3.800000
vt 0.371609 2.355137
vt 0.362155 0.348878
vt 0.296137 3.031841
vt -0.352896 -3.800000
vt 0.335066 3.139901
vt 0.319764 3.082992
vt 0.319706 -3.082831
vt 0.335022 -3.139814
vt -0.563663 3.260186
vt 0.319706 3.317169
vt 0.396877 3.800000
vt 0.296109 3.368240
vt -0.498148 -3.800000
vt -0.578707 -3.317008
vt 0.319764 -3.317008
vt 0.296137 -3.368159
vt 0.396877 -3.800000
vt -0.578764 3.317169
vt -0.686563 -0.008790
vt -0.670000 0.000000
vt -0.679376 -0.002334
vt -0.689885 -0.017863
vt -0.688567 -0.027434
vt -0.609790 -0.195285
vt 0.000000 0.000000
vt -0.512122 -0.352896
vt -0.396877 -0.498148
vt -0.265600 -0.629093
vt -0.142061 -0.703923
vt -0.207236 -0.672130
vt -0.072217 -0.723427
vt 0.000000 -0.730000
vt 0.072217 -0.723427
vt 0.142061 -0.703923
vt 0.207236 -0.672130
vt 0.265600 -0.629093
vt 0.512122 -0.352896
vt 0.609790 -0.195285
vt 0.670000 0.000000
vt 0.396877 -0.498148
vt 0.688567 -0.027434
vt 0.679376 -0.002334
vt 0.686563 -0.008790
vt 0.689885 -0.017863
vt -0.601250 3.368159
vt 0.000000 3.330304
vt 0.000000 3.389172
vt -0.629093 3.413065
vt -0.578707 3.317008
vt 0.000000 3.266428
vt -0.563620 3.260099
vt -0.558131 3.199994
vt 0.000000 3.200000
vt -0.563663 3.139814
vt 0.000000 3.133572
vt -0.578764 3.082831
vt 0.000000 3.069696
vt -0.601276 3.031760
vt 0.000000 3.010828
vt 0.000000 2.959230
vt -0.629093 2.986935
vt -0.667322 2.935857
vt -0.066428 0.000000
vt -0.079526 -0.721825
vt -0.130304 0.000000
vt -0.152835 -0.699650
vt -0.189172 0.000000
vt -0.215096 -0.667322
vt -0.240770 0.000000
vt 0.000000 3.440770
vt -0.667295 3.464110
vt 0.189172 0.000000
vt 0.215200 -0.667295
vt 0.240770 0.000000
vt 0.152949 -0.699603
vt 0.130304 0.000000
vt 0.079333 -0.721782
vt 0.066428 0.000000
vt -0.000369 -0.730000
vt -0.079792 -0.721771
vt -0.152992 -0.699586
vt -0.215160 -0.667280
vt 0.629093 3.413065
vt 0.667280 3.464090
vt 0.558131 3.200006
vt 0.563620 3.139901
vt 0.629093 2.986935
vt 0.601250 3.031841
vt 0.079601 -0.721727
vt 0.153106 -0.699539
vt 0.215265 -0.667254
vt 0.667254 2.935943
vt 0.578707 3.082992
vt 0.563663 3.260186
vt 0.601276 3.368240
vt 0.578764 3.317169
vt -0.601250 -3.031841
vt 0.000000 -3.069696
vt 0.000000 -3.010828
vt -0.629093 -2.986935
vt -0.578707 -3.082992
vt 0.000000 -3.133572
vt -0.563620 -3.139901
vt -0.558131 -3.200006
vt 0.000000 -3.200000
vt -0.563663 -3.260186
vt 0.000000 -3.266428
vt -0.578764 -3.317169
vt 0.000000 -3.330304
vt -0.601276 -3.368240
vt 0.000000 -3.389172
vt 0.000000 -3.440770
vt -0.629093 -3.413065
vt -0.667322 -3.464143
vt 0.000000 -2.959230
vt -0.667295 -2.935890
vt 0.629093 -2.986935
vt 0.667280 -2.935910
vt 0.558131 -3.199994
vt 0.563620 -3.260099
vt 0.629093 -3.413065
vt 0.601250 -3.368159
vt 0.667254 -3.464057
vt 0.578707 -3.317008
vt 0.563663 -3.139814
vt 0.601276 -3.031760
vt 0.578764 -3.082831
s 1
usemtl Diffuse_101_240_115_100.001
f 1/1/1 2/2/2 3/3/3
f 3/3/3 2/2/2 4/4/2
f 5/5/4 1/1/1 3/3/3
f 5/5/4 6/6/5 1/1/1
f 6/6/5 5/5/4 7/7/6
f 7/7/6 5/5/4 8/8/7
f 9/9/8 7/7/6 8/8/7
f 10/10/9 9/9/8 8/8/7
f 11/11/10 12/12/11 13/13/11
f 11/11/10 14/14/12 12/12/11
f 11/11/10 15/15/13 14/14/12
f 16/16/14 14/14/12 15/15/13
f 17/17/15 16/16/14 15/15/13
f 18/18/16 17/17/15 15/15/13
f 18/18/16 10/10/9 17/17/15
f 10/10/9 18/18/16 9/9/8
f 19/19/2 20/20/2 21/21/3
f 22/22/17 19/19/2 21/21/3
f 23/23/4 22/22/17 21/21/3
f 23/23/4 24/24/18 22/22/17
f 25/25/7 26/26/19 24/24/18
f 25/25/7 27/27/20 26/26/19
f 27/27/20 28/28/21 29/29/8
f 27/27/20 30/30/15 28/28/21
f 31/31/14 32/32/22 33/33/23
f 32/32/22 31/31/14 34/34/24
f 35/35/11 32/32/22 34/34/24
f 33/33/23 28/28/21 30/30/15
f 31/31/14 33/33/23 30/30/15
f 29/29/8 26/26/19 27/27/20
f 24/24/18 23/23/4 25/25/7
f 34/34/24 36/36/11 35/35/11
f 37/37/25 38/38/25 39/39/26
f 39/39/26 38/38/25 40/40/26
f 41/41/27 39/39/26 40/40/26
f 42/42/27 41/41/27 40/40/26
f 43/43/28 44/44/29 45/45/30
f 46/46/31 47/47/29 44/44/29
f 47/47/29 42/48/27 44/44/29
f 41/49/27 42/48/27 47/47/29
f 46/46/31 44/44/29 43/43/28
f 48/29/25 49/50/25 50/51/25
f 51/52/25 52/53/25 53/54/25
f 37/37/25 54/55/32 55/56/25
f 38/38/25 56/57/25 57/58/33
f 38/38/25 37/37/25 55/56/25
f 52/53/25 58/59/25 59/60/34
f 60/61/25 61/62/33 62/63/25
f 60/61/25 63/9/25 61/62/33
f 62/63/25 61/62/33 64/64/25
f 65/65/25 64/64/25 66/66/32
f 67/67/32 65/65/25 66/66/32
f 68/68/34 69/69/25 67/67/32
f 68/68/34 70/70/25 69/69/25
f 71/71/25 52/53/25 72/72/25
f 71/71/25 58/59/25 52/53/25
f 72/72/25 52/53/25 73/73/25
f 74/74/25 51/52/25 75/75/34
f 73/73/25 52/53/25 76/76/34
f 76/76/34 52/53/25 77/77/25
f 77/77/25 52/53/25 78/78/25
f 78/78/25 52/53/25 48/29/25
f 70/70/25 53/54/25 59/60/34
f 48/29/25 79/79/34 78/78/25
f 48/29/25 50/51/25 79/79/34
f 48/29/25 38/38/25 80/80/25
f 49/50/25 48/29/25 81/81/25
f 82/82/32 80/80/25 38/38/25
f 48/29/25 80/80/25 83/83/32
f 84/84/32 82/82/32 38/38/25
f 85/85/34 84/84/32 38/38/25
f 38/38/25 86/86/34 85/85/34
f 38/38/25 57/58/33 86/86/34
f 87/87/25 38/38/25 55/56/25
f 87/87/25 56/57/25 38/38/25
f 88/88/25 87/87/25 55/56/25
f 89/89/32 88/88/25 90/90/33
f 91/91/25 89/89/32 90/90/33
f 91/91/25 92/92/34 89/89/32
f 91/91/25 93/93/25 92/92/34
f 48/29/25 83/83/32 81/81/25
f 94/94/34 95/95/25 96/96/25
f 51/52/25 97/97/25 96/96/25
f 98/98/32 94/94/34 96/96/25
f 97/97/25 98/98/32 96/96/25
f 99/99/25 97/97/25 51/52/25
f 100/100/33 99/99/25 51/52/25
f 101/101/34 100/100/33 51/52/25
f 51/52/25 102/102/32 101/101/34
f 51/52/25 74/74/25 102/102/32
f 51/52/25 53/54/25 75/75/34
f 52/53/25 59/60/34 53/54/25
f 59/60/34 69/69/25 70/70/25
f 67/67/32 66/66/32 68/68/34
f 62/63/25 64/64/25 65/65/25
f 103/103/34 61/62/33 63/9/25
f 63/9/25 104/104/34 103/103/34
f 63/9/25 105/105/32 104/104/34
f 104/104/34 105/105/32 106/106/25
f 93/93/25 106/106/25 107/107/32
f 88/88/25 55/56/25 90/90/33
f 108/108/25 37/37/25 109/109/25
f 108/108/25 54/55/32 37/37/25
f 109/109/25 37/37/25 110/110/32
f 110/110/32 37/37/25 111/111/35
f 111/111/35 37/37/25 112/112/25
f 112/112/25 37/37/25 113/113/25
f 113/113/25 37/37/25 96/96/25
f 114/114/34 113/113/25 96/96/25
f 92/92/34 93/93/25 107/107/32
f 95/95/25 115/115/33 96/96/25
f 96/96/25 115/115/33 114/114/34
f 106/106/25 105/105/32 107/107/32
f 116/116/36 117/117/37 118/118/38
f 119/119/36 116/116/36 120/120/38
f 119/119/36 121/121/39 116/116/36
f 51/52/25 122/122/40 52/53/25
f 121/121/39 119/119/36 123/123/39
f 124/124/40 122/122/40 51/52/25
f 124/124/40 123/125/39 122/122/40
f 124/124/40 121/126/39 123/125/39
f 116/116/36 118/118/38 120/120/38
f 125/127/41 126/128/42 127/129/43
f 125/127/41 128/130/44 129/131/45
f 128/130/44 130/132/46 131/133/47
f 128/130/44 127/129/43 132/134/48
f 128/130/44 131/133/47 129/131/45
f 130/132/46 117/117/37 133/135/49
f 134/136/50 135/137/51 136/138/52
f 134/136/50 137/139/53 135/137/51
f 132/134/48 137/139/53 134/136/50
f 132/134/48 127/129/43 137/139/53
f 132/134/48 118/118/38 130/132/46
f 118/118/38 134/136/50 138/140/54
f 118/118/38 138/140/54 120/120/38
f 138/140/54 136/138/52 120/120/38
f 128/130/44 132/134/48 130/132/46
f 139/141/55 140/142/56 135/137/51
f 139/141/55 127/129/43 126/128/42
f 133/135/49 141/143/57 131/133/47
f 133/135/49 117/117/37 142/144/58
f 141/143/57 143/145/59 129/131/45
f 141/143/57 142/144/58 144/146/60
f 145/147/61 146/148/62 147/149/63
f 145/147/61 148/150/64 149/151/63
f 125/127/41 127/129/43 128/130/44
f 126/128/42 140/142/56 139/141/55
f 143/145/59 150/152/62 151/153/63
f 143/145/59 144/146/60 152/154/65
f 135/137/51 140/142/56 153/155/66
f 135/137/51 137/139/53 139/141/55
f 148/156/64 2/2/2 154/157/67
f 148/150/64 153/155/66 140/142/56
f 125/127/41 129/131/45 126/128/42
f 141/143/57 133/135/49 142/144/58
f 129/131/45 155/158/68 126/128/42
f 133/135/49 131/133/47 130/132/46
f 136/138/52 153/155/66 156/159/58
f 136/138/52 138/140/54 134/136/50
f 155/160/68 4/4/2 140/161/56
f 155/160/68 157/162/67 4/4/2
f 140/142/56 126/128/42 155/158/68
f 140/161/56 2/2/2 148/156/64
f 158/163/60 153/155/66 145/147/61
f 153/155/66 136/138/52 135/137/51
f 155/160/68 151/164/63 159/165/69
f 141/143/57 129/131/45 131/133/47
f 160/166/2 161/167/2 162/168/70
f 152/154/65 163/169/69 164/170/71
f 164/170/71 150/152/62 152/154/65
f 143/145/59 141/143/57 144/146/60
f 130/132/46 118/118/38 117/117/37
f 137/139/53 127/129/43 139/141/55
f 158/163/60 145/147/61 165/171/72
f 165/171/72 147/149/63 166/172/73
f 19/19/2 166/173/73 167/174/67
f 19/19/2 167/174/67 20/20/2
f 147/149/63 165/171/72 145/147/61
f 148/150/64 145/147/61 153/155/66
f 157/162/67 155/160/68 159/165/69
f 145/147/61 149/151/63 146/148/62
f 132/134/48 134/136/50 118/118/38
f 166/173/73 19/19/2 165/175/72
f 156/159/58 153/155/66 158/163/60
f 148/156/64 154/157/67 168/176/69
f 4/4/2 2/2/2 140/161/56
f 129/131/45 143/145/59 155/158/68
f 155/158/68 143/145/59 151/153/63
f 143/145/59 152/154/65 150/152/62
f 160/166/2 163/177/69 152/178/65
f 156/159/58 120/120/38 136/138/52
f 148/156/64 168/176/69 149/179/63
f 162/168/70 163/177/69 160/166/2
f 169/180/16 170/181/21 171/182/74
f 169/180/16 172/95/75 170/181/21
f 173/183/76 171/182/74 174/184/22
f 174/184/22 175/185/10 173/183/76
f 175/185/10 176/186/11 177/187/11
f 175/185/10 174/184/22 176/186/11
f 170/181/21 172/95/75 178/96/75
f 178/96/75 172/95/75 179/188/19
f 179/188/19 172/95/75 180/189/6
f 181/190/77 179/188/19 180/189/6
f 182/191/5 181/190/77 180/189/6
f 182/191/5 183/192/17 181/190/77
f 183/192/17 182/191/5 184/193/78
f 160/166/2 183/192/17 184/193/78
f 161/167/2 160/166/2 184/193/78
f 173/183/76 169/180/16 171/182/74
f 185/194/79 186/195/80 187/196/81
f 185/194/79 188/197/82 189/198/83
f 188/197/82 190/199/84 191/200/85
f 188/197/82 187/196/81 192/201/86
f 188/197/82 191/200/85 189/198/83
f 190/199/84 45/45/30 193/202/87
f 194/203/88 195/204/89 196/205/90
f 194/203/88 197/206/91 195/204/89
f 192/201/86 197/206/91 194/203/88
f 192/201/86 187/196/81 197/206/91
f 192/201/86 43/43/28 190/199/84
f 43/43/28 194/203/88 198/207/92
f 43/43/28 198/207/92 46/46/31
f 198/207/92 196/205/90 46/46/31
f 188/197/82 192/201/86 190/199/84
f 199/208/93 200/209/94 195/204/89
f 199/208/93 187/196/81 186/195/80
f 193/202/87 201/210/95 191/200/85
f 193/202/87 45/45/30 202/211/96
f 201/210/95 203/212/97 189/198/83
f 201/210/95 202/211/96 204/213/98
f 205/214/99 206/215/100 207/216/101
f 205/214/99 208/217/102 209/218/101
f 185/194/79 187/196/81 188/197/82
f 186/195/80 200/209/94 199/208/93
f 203/212/97 210/219/100 211/220/101
f 203/212/97 204/213/98 212/221/103
f 195/204/89 200/209/94 213/222/104
f 195/204/89 197/206/91 199/208/93
f 208/223/102 12/12/11 214/224/105
f 208/217/102 213/222/104 200/209/94
f 185/194/79 189/198/83 186/195/80
f 201/210/95 193/202/87 202/211/96
f 189/198/83 215/225/106 186/195/80
f 193/202/87 191/200/85 190/199/84
f 196/205/90 213/222/104 216/226/96
f 196/205/90 198/207/92 194/203/88
f 215/227/106 13/13/11 200/228/94
f 215/227/106 217/229/105 13/13/11
f 200/209/94 186/195/80 215/225/106
f 200/228/94 12/12/11 208/223/102
f 218/230/98 213/222/104 205/214/99
f 213/222/104 196/205/90 195/204/89
f 215/227/106 211/231/101 219/232/107
f 201/210/95 189/198/83 191/200/85
f 220/233/108 208/223/102 214/224/105
f 12/12/11 200/228/94 13/13/11
f 208/223/102 220/233/108 209/234/101
f 203/212/97 211/220/101 215/225/106
f 216/226/96 46/46/31 196/205/90
f 212/221/103 210/219/100 203/212/97
f 212/221/103 221/235/101 210/219/100
f 35/35/11 222/236/108 212/237/103
f 36/36/11 223/238/109 35/35/11
f 217/229/105 215/227/106 219/232/107
f 205/214/99 209/218/101 206/215/100
f 223/238/109 222/236/108 35/35/11
f 43/43/28 192/201/86 194/203/88
f 203/212/97 215/225/106 189/198/83
f 190/199/84 43/43/28 45/45/30
f 197/206/91 187/196/81 199/208/93
f 218/230/98 205/214/99 224/239/110
f 224/239/110 207/216/101 225/240/107
f 176/186/11 225/241/107 226/242/105
f 176/186/11 226/242/105 177/187/11
f 207/216/101 224/239/110 205/214/99
f 208/217/102 205/214/99 213/222/104
f 203/212/97 201/210/95 204/213/98
f 225/241/107 176/186/11 224/243/110
f 216/226/96 213/222/104 218/230/98
f 221/235/101 212/221/103 222/244/108
s 0
f 227/245/111 228/246/111 229/247/111
f 230/248/111 231/246/111 232/245/112
s 1
f 233/249/111 234/246/111 235/248/111
f 236/250/113 237/251/113 238/246/113
f 239/250/114 240/246/114 241/249/114
f 242/251/111 243/250/111 244/252/111
f 245/251/111 246/252/111 247/253/111
f 248/251/111 249/253/111 250/254/111
f 251/255/111 252/251/111 253/256/111
f 254/251/111 255/254/111 256/256/111
f 257/257/112 258/251/112 259/255/112
f 260/257/111 261/258/111 262/251/111
f 263/258/111 264/259/111 265/251/111
f 266/259/111 267/260/111 268/251/111
f 269/251/112 270/261/112 271/262/112
f 272/263/115 273/264/115 274/251/115
f 275/264/113 276/265/113 277/251/113
f 278/251/111 279/262/111 280/266/111
f 281/267/111 282/265/111 283/264/111
s 0
f 284/268/111 285/265/111 286/269/111
f 287/265/111 288/270/111 289/269/111
s 1
f 290/265/111 291/267/111 292/270/111
f 293/251/111 294/266/111 295/263/111
f 296/260/116 297/261/116 298/251/116
f 299/265/117 300/264/117 301/267/117
f 302/265/117 303/251/117 304/264/117
f 305/264/117 306/251/117 307/263/117
f 308/263/117 309/251/117 310/266/117
f 311/260/117 312/261/117 313/251/117
f 314/251/118 315/261/118 316/262/118
f 317/259/118 318/260/118 319/251/118
f 320/259/117 321/251/117 322/258/117
f 323/258/117 324/251/117 325/257/117
f 326/257/117 327/251/117 328/255/117
f 329/251/118 330/254/118 331/256/118
f 332/252/117 333/251/117 334/250/117
f 335/250/117 336/251/117 337/246/117
f 338/251/117 339/253/117 340/254/117
f 341/249/117 342/250/117 343/246/117
s 0
f 344/247/117 345/245/117 346/246/117
f 347/246/117 348/245/117 349/248/117
s 1
f 350/246/117 351/248/117 352/249/117
f 353/251/117 354/252/117 355/253/117
f 356/267/117 357/270/117 358/265/117
s 0
f 359/270/117 360/269/117 361/268/117
s 1
f 362/265/117 363/270/117 364/268/117
f 365/255/117 366/251/117 367/256/117
f 368/266/117 369/251/117 370/262/117
f 371/271/119 372/272/120 373/273/121
f 374/271/119 375/273/122 376/274/123
f 377/275/124 378/276/125 379/272/126
f 380/277/127 381/276/125 382/275/124
f 383/278/128 384/279/128 385/277/129
f 386/279/128 387/278/128 388/280/130
f 389/281/131 390/280/132 391/282/133
f 392/281/131 393/282/133 394/283/134
f 395/283/134 396/284/135 397/285/136
f 398/286/137 399/287/138 400/288/139
f 401/284/140 402/287/138 403/285/141
f 404/289/142 405/290/143 406/258/117
f 407/291/144 408/290/143 409/289/145
f 410/290/143 411/291/146 412/292/147
f 413/291/144 414/293/148 415/292/149
f 416/293/148 417/294/150 418/292/149
f 419/295/137 420/294/151 421/293/152
f 422/285/153 423/287/154 424/286/155
f 425/283/134 426/282/133 427/284/156
f 428/281/157 429/279/128 430/280/130
f 431/273/122 432/296/158 433/274/159
f 434/296/160 435/297/161 436/274/159
f 437/298/162 438/299/161 439/300/160
f 440/301/163 441/299/161 442/298/164
f 443/301/163 444/298/165 445/302/166
f 446/301/163 447/302/166 448/303/167
f 449/302/168 450/304/169 451/303/167
f 452/304/169 453/305/170 454/303/167
f 455/251/111 456/305/171 457/304/172
f 458/289/173 459/305/171 460/251/111
f 461/306/174 462/305/171 463/289/175
f 464/306/176 465/289/177 466/291/178
f 467/306/176 468/291/179 469/307/180
f 470/291/179 471/293/181 472/307/180
f 473/293/182 474/308/183 475/307/180
f 476/295/184 477/308/183 478/293/181
f 479/309/185 480/310/183 481/296/184
f 482/309/185 483/296/184 484/273/186
f 485/311/187 486/279/187 487/312/188
f 488/279/189 489/281/190 490/312/188
f 491/286/191 492/313/192 493/285/193
f 494/313/194 495/314/195 496/285/193
f 497/251/117 498/289/196 499/258/117
f 500/272/120 501/271/197 502/275/124
f 503/258/117 504/304/198 505/251/117
f 506/315/199 507/304/200 508/258/117
f 509/302/201 510/304/200 511/315/199
f 512/302/202 513/315/199 514/316/203
f 515/302/202 516/316/204 517/298/205
f 518/316/204 519/317/206 520/298/205
f 521/317/206 522/300/191 523/298/207
f 524/313/192 525/286/191 526/318/208
f 527/285/209 528/314/195 529/283/210
f 530/314/211 531/319/212 532/283/210
f 533/312/213 534/281/214 535/319/215
f 536/311/187 537/320/216 538/279/187
f 539/273/186 540/321/217 541/309/218
f 542/320/219 543/276/220 544/279/187
f 545/320/216 546/322/221 547/276/222
f 548/322/221 549/272/223 550/276/222
f 551/279/224 552/276/225 553/277/129
f 554/322/221 555/321/217 556/272/223
f 557/272/223 558/321/217 559/273/226
f 560/283/210 561/319/212 562/281/214
f 563/323/119 564/324/120 565/325/121
f 566/323/119 567/325/227 568/326/228
f 569/327/124 570/328/125 571/324/126
f 572/329/229 573/328/125 574/327/124
f 575/330/128 576/331/128 577/329/129
f 578/331/128 579/330/128 580/332/130
f 581/333/131 582/332/132 583/334/133
f 584/333/131 585/334/133 586/335/134
f 587/335/134 588/336/135 589/337/136
f 590/338/137 591/339/154 592/340/139
f 593/336/135 594/339/230 595/337/141
f 596/289/142 597/290/143 598/258/117
f 599/291/144 600/290/143 601/289/145
f 602/290/143 603/291/144 604/292/231
f 605/291/144 606/293/148 607/292/149
f 608/293/148 609/294/151 610/292/149
f 611/295/137 612/294/151 613/293/148
f 614/337/153 615/339/154 616/338/232
f 617/335/134 618/334/133 619/336/135
f 620/333/157 621/331/128 622/332/130
f 623/325/122 624/341/233 625/326/159
f 626/341/234 627/342/161 628/326/159
f 629/298/162 630/299/161 631/300/160
f 632/301/235 633/299/161 634/298/165
f 635/301/163 636/298/165 637/302/166
f 638/301/163 639/302/166 640/303/167
f 641/302/236 642/304/169 643/303/167
f 644/304/169 645/305/170 646/303/167
f 647/251/111 648/305/171 649/304/172
f 650/289/173 651/305/171 652/251/111
f 653/306/174 654/305/171 655/289/175
f 656/306/176 657/289/177 658/291/179
f 659/306/237 660/291/179 661/307/180
f 662/291/238 663/293/181 664/307/180
f 665/293/181 666/308/183 667/307/180
f 668/295/184 669/308/183 670/293/239
f 671/343/185 672/344/240 673/341/184
f 674/343/185 675/341/184 676/325/241
f 677/345/187 678/331/187 679/346/188
f 680/331/189 681/333/190 682/346/188
f 683/338/191 684/347/192 685/337/242
f 686/347/243 687/348/195 688/337/193
f 689/251/117 690/289/196 691/258/117
f 692/324/120 693/323/197 694/327/124
f 695/258/117 696/304/198 697/251/117
f 698/315/199 699/304/200 700/258/117
f 701/302/201 702/304/200 703/315/199
f 704/302/202 705/315/199 706/316/203
f 707/302/202 708/316/204 709/298/205
f 710/316/204 711/317/206 712/298/205
f 713/317/206 714/300/191 715/298/244
f 716/347/192 717/338/191 718/349/208
f 719/337/209 720/348/195 721/335/210
f 722/348/195 723/350/245 724/335/210
f 725/346/213 726/333/214 727/350/212
f 728/345/187 729/351/216 730/331/187
f 731/325/241 732/352/217 733/343/218
f 734/351/219 735/328/220 736/331/187
f 737/351/216 738/353/221 739/328/222
f 740/353/221 741/324/223 742/328/222
f 743/331/224 744/328/225 745/329/129
f 746/353/246 747/352/217 748/324/223
f 749/324/223 750/352/217 751/325/226
f 752/335/210 753/350/212 754/333/214
