# Blender 4.4.3
# www.blender.org
mtllib Mesh_18.001.mtl
o Mesh_18.001
v -0.000210 0.008776 -0.010103
v -0.000210 0.008830 -0.010103
v -0.000210 0.008827 -0.010105
v -0.000210 0.008824 -0.010107
v -0.000210 0.008821 -0.010109
v -0.000210 0.008817 -0.010110
v -0.000210 0.008810 -0.010112
v -0.000210 0.008814 -0.010112
v -0.000210 0.008807 -0.010113
v -0.000210 0.008803 -0.010113
v -0.000210 0.008799 -0.010113
v -0.000210 0.008796 -0.010112
v -0.000210 0.008792 -0.010112
v -0.000210 0.008789 -0.010110
v -0.000210 0.008785 -0.010109
v -0.000210 0.008782 -0.010107
v -0.000210 0.008779 -0.010105
v -0.000210 0.008773 -0.010100
v -0.000210 0.008833 -0.010100
v -0.000210 0.008770 -0.010097
v -0.000210 0.008836 -0.010097
v -0.000210 0.008766 -0.010093
v -0.000210 0.008840 -0.010093
v -0.000210 0.008763 -0.010090
v -0.000210 0.008843 -0.010090
v -0.000210 0.008760 -0.010086
v -0.000210 0.008846 -0.010086
v -0.000210 0.008757 -0.010083
v -0.000210 0.008849 -0.010083
v -0.000210 0.008754 -0.010079
v -0.000210 0.008852 -0.010079
v -0.000210 0.008854 -0.010075
v -0.000210 0.008752 -0.010075
v -0.000210 0.008749 -0.010071
v -0.000210 0.008744 -0.010063
v -0.000210 0.008859 -0.010067
v -0.000210 0.008747 -0.010067
v -0.000210 0.008857 -0.010071
v -0.000210 0.008872 -0.010042
v -0.000210 0.008870 -0.010047
v -0.000210 0.008872 -0.010040
v -0.000210 0.008868 -0.010051
v -0.000210 0.008866 -0.010055
v -0.000210 0.008734 -0.010040
v -0.000210 0.008738 -0.010051
v -0.000210 0.008740 -0.010055
v -0.000210 0.008736 -0.010047
v -0.000210 0.008864 -0.010059
v -0.000210 0.008742 -0.010059
v -0.000210 0.008862 -0.010063
v -0.000210 0.008734 -0.010042
v 0.000020 0.008734 -0.010040
v 0.000020 0.008734 -0.010042
v 0.000020 0.008736 -0.010047
v 0.000020 0.008738 -0.010051
v 0.000020 0.008740 -0.010055
v 0.000020 0.008866 -0.010055
v 0.000020 0.008742 -0.010059
v 0.000020 0.008864 -0.010059
v 0.000020 0.008744 -0.010063
v 0.000020 0.008862 -0.010063
v 0.000020 0.008747 -0.010067
v 0.000020 0.008749 -0.010071
v 0.000020 0.008859 -0.010067
v 0.000020 0.008857 -0.010071
v 0.000020 0.008854 -0.010075
v 0.000020 0.008752 -0.010075
v 0.000020 0.008754 -0.010079
v 0.000020 0.008852 -0.010079
v 0.000020 0.008757 -0.010083
v 0.000020 0.008849 -0.010083
v 0.000020 0.008760 -0.010086
v 0.000020 0.008846 -0.010086
v 0.000020 0.008840 -0.010093
v 0.000020 0.008843 -0.010090
v 0.000020 0.008766 -0.010093
v 0.000020 0.008836 -0.010097
v 0.000020 0.008770 -0.010097
v 0.000020 0.008773 -0.010100
v 0.000020 0.008830 -0.010103
v 0.000020 0.008833 -0.010100
v 0.000020 0.008776 -0.010103
v 0.000020 0.008827 -0.010105
v 0.000020 0.008824 -0.010107
v 0.000020 0.008779 -0.010105
v 0.000020 0.008782 -0.010107
v 0.000020 0.008785 -0.010109
v 0.000020 0.008792 -0.010112
v 0.000020 0.008789 -0.010110
v 0.000020 0.008796 -0.010112
v 0.000020 0.008799 -0.010113
v 0.000020 0.008803 -0.010113
v 0.000020 0.008807 -0.010113
v 0.000020 0.008810 -0.010112
v 0.000020 0.008814 -0.010112
v 0.000020 0.008817 -0.010110
v 0.000020 0.008821 -0.010109
v 0.000020 0.008763 -0.010090
v 0.000020 0.008872 -0.010040
v 0.000020 0.008868 -0.010051
v 0.000020 0.008872 -0.010042
v 0.000020 0.008870 -0.010047
v 0.000020 0.008734 -0.010042
v 0.000020 0.008734 -0.010040
v -0.000038 0.008734 -0.010042
v 0.000020 0.008734 -0.010040
v -0.000210 0.008734 -0.010040
v -0.000210 0.008734 -0.010042
v -0.000095 0.008734 -0.010042
v 0.000020 0.008734 -0.010040
v -0.000152 0.008734 -0.010042
v 0.000020 0.008734 -0.010040
v 0.000020 0.008734 -0.010040
v -0.000210 0.008734 -0.010042
v -0.000115 0.008805 -0.010040
v -0.000115 0.008803 -0.010113
v -0.000115 0.008803 -0.010040
v -0.000115 0.008807 -0.010113
v -0.000115 0.008805 -0.010113
v -0.000116 0.008809 -0.010112
v -0.000115 0.008807 -0.010040
v -0.000116 0.008809 -0.010040
v -0.000116 0.008811 -0.010112
v -0.000116 0.008811 -0.010040
v -0.000117 0.008813 -0.010112
v -0.000117 0.008813 -0.010040
v -0.000118 0.008815 -0.010111
v -0.000117 0.008815 -0.010040
v -0.000118 0.008817 -0.010040
v -0.000119 0.008817 -0.010110
v -0.000120 0.008819 -0.010110
v -0.000119 0.008819 -0.010040
v -0.000121 0.008821 -0.010109
v -0.000120 0.008820 -0.010040
v -0.000122 0.008822 -0.010040
v -0.000122 0.008822 -0.010108
v -0.000123 0.008824 -0.010107
v -0.000125 0.008825 -0.010106
v -0.000123 0.008823 -0.010040
v -0.000129 0.008829 -0.010104
v -0.000129 0.008829 -0.010040
v -0.000131 0.008830 -0.010103
v -0.000131 0.008830 -0.010040
v -0.000128 0.008827 -0.010040
v -0.000128 0.008828 -0.010105
v -0.000126 0.008826 -0.010040
v -0.000126 0.008826 -0.010106
v -0.000124 0.008825 -0.010040
v -0.000115 0.008801 -0.010113
v -0.000115 0.008801 -0.010040
v -0.000115 0.008799 -0.010113
v -0.000115 0.008798 -0.010040
v -0.000116 0.008797 -0.010112
v -0.000116 0.008796 -0.010040
v -0.000116 0.008795 -0.010112
v -0.000117 0.008793 -0.010112
v -0.000117 0.008793 -0.010040
v -0.000117 0.008791 -0.010040
v -0.000118 0.008791 -0.010111
v -0.000119 0.008789 -0.010110
v -0.000118 0.008789 -0.010040
v -0.000120 0.008787 -0.010110
v -0.000120 0.008787 -0.010040
v -0.000121 0.008785 -0.010040
v -0.000121 0.008785 -0.010109
v -0.000123 0.008783 -0.010040
v -0.000125 0.008781 -0.010106
v -0.000124 0.008781 -0.010040
v -0.000123 0.008782 -0.010107
v -0.000122 0.008784 -0.010108
v -0.000126 0.008780 -0.010106
v -0.000128 0.008779 -0.010105
v -0.000129 0.008777 -0.010104
v -0.000128 0.008778 -0.010040
v -0.000126 0.008780 -0.010040
v -0.000131 0.008776 -0.010103
v -0.000130 0.008777 -0.010040
v -0.000133 0.008776 -0.010102
v -0.000132 0.008776 -0.010040
v -0.000134 0.008775 -0.010102
v -0.000135 0.008775 -0.010040
v -0.000136 0.008774 -0.010101
v -0.000137 0.008774 -0.010040
v -0.000138 0.008774 -0.010101
v -0.000139 0.008774 -0.010040
v -0.000140 0.008774 -0.010100
v -0.000141 0.008773 -0.010100
v -0.000143 0.008773 -0.010100
v -0.000142 0.008773 -0.010040
v -0.000144 0.008773 -0.010040
v -0.000145 0.008773 -0.010100
v -0.000147 0.008773 -0.010100
v -0.000147 0.008773 -0.010040
v -0.000149 0.008773 -0.010040
v -0.000149 0.008773 -0.010100
v -0.000151 0.008774 -0.010040
v -0.000151 0.008774 -0.010100
v -0.000154 0.008774 -0.010040
v -0.000152 0.008774 -0.010101
v -0.000156 0.008775 -0.010040
v -0.000154 0.008774 -0.010101
v -0.000156 0.008775 -0.010102
v -0.000158 0.008776 -0.010040
v -0.000157 0.008776 -0.010102
v -0.000159 0.008776 -0.010103
v -0.000160 0.008777 -0.010040
v -0.000161 0.008777 -0.010104
v -0.000162 0.008779 -0.010040
v -0.000162 0.008778 -0.010105
v -0.000164 0.008780 -0.010106
v -0.000164 0.008780 -0.010040
v -0.000166 0.008782 -0.010040
v -0.000165 0.008781 -0.010106
v -0.000167 0.008782 -0.010107
v -0.000168 0.008784 -0.010040
v -0.000168 0.008784 -0.010108
v -0.000169 0.008785 -0.010109
v -0.000169 0.008785 -0.010040
v -0.000171 0.008787 -0.010040
v -0.000172 0.008790 -0.010040
v -0.000170 0.008787 -0.010110
v -0.000171 0.008789 -0.010110
v -0.000173 0.008792 -0.010040
v -0.000172 0.008791 -0.010111
v -0.000173 0.008793 -0.010112
v -0.000174 0.008794 -0.010040
v -0.000174 0.008795 -0.010112
v -0.000175 0.008799 -0.010040
v -0.000174 0.008796 -0.010040
v -0.000174 0.008797 -0.010112
v -0.000175 0.008799 -0.010113
v -0.000174 0.008809 -0.010112
v -0.000174 0.008811 -0.010112
v -0.000174 0.008811 -0.010040
v -0.000175 0.008801 -0.010040
v -0.000175 0.008801 -0.010113
v -0.000171 0.008817 -0.010110
v -0.000170 0.008819 -0.010110
v -0.000171 0.008818 -0.010040
v -0.000167 0.008824 -0.010107
v -0.000167 0.008824 -0.010040
v -0.000168 0.008822 -0.010040
v -0.000161 0.008829 -0.010104
v -0.000163 0.008827 -0.010040
v -0.000162 0.008827 -0.010105
v -0.000159 0.008829 -0.010040
v -0.000157 0.008830 -0.010102
v -0.000157 0.008831 -0.010040
v -0.000152 0.008832 -0.010101
v -0.000152 0.008832 -0.010040
v -0.000155 0.008831 -0.010040
v -0.000149 0.008833 -0.010100
v -0.000150 0.008833 -0.010040
v -0.000151 0.008832 -0.010100
v -0.000147 0.008833 -0.010100
v -0.000145 0.008833 -0.010040
v -0.000148 0.008833 -0.010040
v -0.000145 0.008833 -0.010100
v -0.000143 0.008833 -0.010100
v -0.000141 0.008833 -0.010100
v -0.000143 0.008833 -0.010040
v -0.000140 0.008832 -0.010100
v -0.000140 0.008833 -0.010040
v -0.000138 0.008832 -0.010101
v -0.000138 0.008832 -0.010040
v -0.000136 0.008832 -0.010101
v -0.000136 0.008831 -0.010040
v -0.000133 0.008830 -0.010102
v -0.000133 0.008831 -0.010040
v -0.000134 0.008831 -0.010102
v -0.000154 0.008832 -0.010101
v -0.000156 0.008831 -0.010102
v -0.000159 0.008830 -0.010103
v -0.000161 0.008828 -0.010040
v -0.000164 0.008826 -0.010106
v -0.000165 0.008825 -0.010040
v -0.000165 0.008825 -0.010106
v -0.000168 0.008822 -0.010108
v -0.000170 0.008820 -0.010040
v -0.000169 0.008821 -0.010109
v -0.000172 0.008816 -0.010040
v -0.000172 0.008815 -0.010111
v -0.000173 0.008813 -0.010040
v -0.000173 0.008813 -0.010112
v -0.000174 0.008809 -0.010040
v -0.000175 0.008807 -0.010113
v -0.000175 0.008806 -0.010040
v -0.000175 0.008805 -0.010113
v -0.000175 0.008804 -0.010040
v -0.000175 0.008803 -0.010113
v -0.000152 0.008872 -0.010042
v -0.000210 0.008872 -0.010042
v 0.000020 0.008872 -0.010040
v -0.000210 0.008872 -0.010042
v -0.000210 0.008872 -0.010040
v 0.000020 0.008872 -0.010040
v -0.000038 0.008872 -0.010042
v -0.000095 0.008872 -0.010042
v 0.000020 0.008872 -0.010040
v 0.000020 0.008872 -0.010042
v 0.000020 0.008872 -0.010040
v 0.000020 0.008872 -0.010040
v -0.000129 0.008829 -0.010040
v -0.000128 0.008827 -0.010040
v 0.000020 0.008872 -0.010040
v -0.000129 0.008829 -0.010040
v 0.000020 0.008872 -0.010040
v -0.000131 0.008830 -0.010040
v -0.000128 0.008827 -0.010040
v -0.000126 0.008826 -0.010040
v 0.000020 0.008872 -0.010040
v -0.000126 0.008826 -0.010040
v -0.000124 0.008825 -0.010040
v 0.000020 0.008872 -0.010040
v -0.000124 0.008825 -0.010040
v -0.000123 0.008823 -0.010040
v 0.000020 0.008872 -0.010040
v -0.000123 0.008823 -0.010040
v -0.000122 0.008822 -0.010040
v 0.000020 0.008872 -0.010040
v -0.000122 0.008822 -0.010040
v -0.000120 0.008820 -0.010040
v 0.000020 0.008872 -0.010040
v -0.000120 0.008820 -0.010040
v -0.000119 0.008819 -0.010040
v 0.000020 0.008872 -0.010040
v -0.000119 0.008819 -0.010040
v -0.000118 0.008817 -0.010040
v 0.000020 0.008872 -0.010040
v -0.000118 0.008817 -0.010040
v -0.000117 0.008815 -0.010040
v 0.000020 0.008872 -0.010040
v -0.000117 0.008815 -0.010040
v -0.000117 0.008813 -0.010040
v 0.000020 0.008872 -0.010040
v -0.000117 0.008813 -0.010040
v -0.000116 0.008811 -0.010040
v 0.000020 0.008872 -0.010040
v -0.000116 0.008811 -0.010040
v -0.000116 0.008809 -0.010040
v 0.000020 0.008872 -0.010040
v -0.000116 0.008809 -0.010040
v -0.000115 0.008807 -0.010040
v 0.000020 0.008872 -0.010040
v -0.000115 0.008807 -0.010040
v -0.000115 0.008805 -0.010040
v 0.000020 0.008872 -0.010040
v -0.000115 0.008805 -0.010040
v -0.000115 0.008803 -0.010040
v 0.000020 0.008872 -0.010040
v -0.000115 0.008803 -0.010040
v 0.000020 0.008734 -0.010040
v 0.000020 0.008872 -0.010040
v -0.000115 0.008801 -0.010040
v 0.000020 0.008734 -0.010040
v -0.000115 0.008803 -0.010040
v -0.000115 0.008798 -0.010040
v 0.000020 0.008734 -0.010040
v -0.000115 0.008801 -0.010040
v -0.000116 0.008796 -0.010040
v 0.000020 0.008734 -0.010040
v -0.000115 0.008798 -0.010040
v 0.000020 0.008734 -0.010040
v -0.000116 0.008796 -0.010040
v -0.000117 0.008793 -0.010040
v 0.000020 0.008734 -0.010040
v -0.000117 0.008793 -0.010040
v -0.000117 0.008791 -0.010040
v 0.000020 0.008734 -0.010040
v -0.000117 0.008791 -0.010040
v -0.000118 0.008789 -0.010040
v 0.000020 0.008734 -0.010040
v -0.000118 0.008789 -0.010040
v -0.000120 0.008787 -0.010040
v 0.000020 0.008734 -0.010040
v -0.000120 0.008787 -0.010040
v -0.000121 0.008785 -0.010040
v 0.000020 0.008734 -0.010040
v -0.000121 0.008785 -0.010040
v -0.000123 0.008783 -0.010040
v 0.000020 0.008734 -0.010040
v -0.000123 0.008783 -0.010040
v -0.000124 0.008781 -0.010040
v -0.000128 0.008778 -0.010040
v -0.000130 0.008777 -0.010040
v 0.000020 0.008734 -0.010040
v -0.000128 0.008778 -0.010040
v 0.000020 0.008734 -0.010040
v -0.000126 0.008780 -0.010040
v 0.000020 0.008734 -0.010040
v -0.000124 0.008781 -0.010040
v -0.000126 0.008780 -0.010040
v -0.000132 0.008776 -0.010040
v 0.000020 0.008734 -0.010040
v -0.000130 0.008777 -0.010040
v -0.000135 0.008775 -0.010040
v 0.000020 0.008734 -0.010040
v -0.000132 0.008776 -0.010040
v -0.000137 0.008774 -0.010040
v 0.000020 0.008734 -0.010040
v -0.000135 0.008775 -0.010040
v -0.000210 0.008734 -0.010040
v 0.000020 0.008734 -0.010040
v -0.000137 0.008774 -0.010040
v -0.000210 0.008734 -0.010040
v -0.000137 0.008774 -0.010040
v -0.000139 0.008774 -0.010040
v -0.000210 0.008734 -0.010040
v -0.000139 0.008774 -0.010040
v -0.000142 0.008773 -0.010040
v -0.000210 0.008734 -0.010040
v -0.000142 0.008773 -0.010040
v -0.000144 0.008773 -0.010040
v -0.000210 0.008734 -0.010040
v -0.000144 0.008773 -0.010040
v -0.000147 0.008773 -0.010040
v -0.000151 0.008774 -0.010040
v -0.000154 0.008774 -0.010040
v -0.000210 0.008734 -0.010040
v -0.000151 0.008774 -0.010040
v -0.000210 0.008734 -0.010040
v -0.000149 0.008773 -0.010040
v -0.000154 0.008774 -0.010040
v -0.000156 0.008775 -0.010040
v -0.000210 0.008734 -0.010040
v -0.000156 0.008775 -0.010040
v -0.000158 0.008776 -0.010040
v -0.000210 0.008734 -0.010040
v -0.000158 0.008776 -0.010040
v -0.000160 0.008777 -0.010040
v -0.000210 0.008734 -0.010040
v -0.000160 0.008777 -0.010040
v -0.000162 0.008779 -0.010040
v -0.000210 0.008734 -0.010040
v -0.000162 0.008779 -0.010040
v -0.000164 0.008780 -0.010040
v -0.000210 0.008734 -0.010040
v -0.000164 0.008780 -0.010040
v -0.000166 0.008782 -0.010040
v -0.000210 0.008734 -0.010040
v -0.000166 0.008782 -0.010040
v -0.000168 0.008784 -0.010040
v -0.000210 0.008734 -0.010040
v -0.000168 0.008784 -0.010040
v -0.000169 0.008785 -0.010040
v -0.000210 0.008734 -0.010040
v -0.000169 0.008785 -0.010040
v -0.000171 0.008787 -0.010040
v -0.000210 0.008734 -0.010040
v -0.000171 0.008787 -0.010040
v -0.000172 0.008790 -0.010040
v -0.000210 0.008734 -0.010040
v -0.000172 0.008790 -0.010040
v -0.000173 0.008792 -0.010040
v -0.000210 0.008734 -0.010040
v -0.000174 0.008794 -0.010040
v -0.000210 0.008734 -0.010040
v -0.000173 0.008792 -0.010040
v -0.000174 0.008796 -0.010040
v -0.000210 0.008734 -0.010040
v -0.000174 0.008794 -0.010040
v -0.000175 0.008799 -0.010040
v -0.000210 0.008734 -0.010040
v -0.000174 0.008796 -0.010040
v -0.000210 0.008734 -0.010040
v -0.000147 0.008773 -0.010040
v -0.000149 0.008773 -0.010040
v -0.000175 0.008804 -0.010040
v -0.000210 0.008734 -0.010040
v -0.000175 0.008801 -0.010040
v -0.000210 0.008872 -0.010040
v -0.000210 0.008734 -0.010040
v -0.000175 0.008804 -0.010040
v -0.000210 0.008872 -0.010040
v -0.000175 0.008804 -0.010040
v -0.000175 0.008806 -0.010040
v -0.000210 0.008872 -0.010040
v -0.000175 0.008806 -0.010040
v -0.000174 0.008809 -0.010040
v -0.000210 0.008872 -0.010040
v -0.000174 0.008809 -0.010040
v -0.000174 0.008811 -0.010040
v -0.000172 0.008816 -0.010040
v -0.000171 0.008818 -0.010040
v -0.000210 0.008872 -0.010040
v -0.000172 0.008816 -0.010040
v -0.000210 0.008872 -0.010040
v -0.000173 0.008813 -0.010040
v -0.000171 0.008818 -0.010040
v -0.000170 0.008820 -0.010040
v -0.000210 0.008872 -0.010040
v -0.000170 0.008820 -0.010040
v -0.000168 0.008822 -0.010040
v -0.000210 0.008872 -0.010040
v -0.000168 0.008822 -0.010040
v -0.000167 0.008824 -0.010040
v -0.000210 0.008872 -0.010040
v -0.000167 0.008824 -0.010040
v -0.000165 0.008825 -0.010040
v -0.000210 0.008872 -0.010040
v -0.000165 0.008825 -0.010040
v -0.000163 0.008827 -0.010040
v -0.000210 0.008872 -0.010040
v -0.000163 0.008827 -0.010040
v -0.000161 0.008828 -0.010040
v -0.000210 0.008872 -0.010040
v -0.000161 0.008828 -0.010040
v -0.000159 0.008829 -0.010040
v -0.000210 0.008872 -0.010040
v -0.000159 0.008829 -0.010040
v -0.000157 0.008831 -0.010040
v -0.000210 0.008872 -0.010040
v -0.000157 0.008831 -0.010040
v -0.000155 0.008831 -0.010040
v -0.000210 0.008872 -0.010040
v -0.000155 0.008831 -0.010040
v -0.000152 0.008832 -0.010040
v -0.000210 0.008872 -0.010040
v -0.000150 0.008833 -0.010040
v -0.000210 0.008872 -0.010040
v -0.000152 0.008832 -0.010040
v -0.000148 0.008833 -0.010040
v -0.000210 0.008872 -0.010040
v -0.000150 0.008833 -0.010040
v -0.000145 0.008833 -0.010040
v -0.000210 0.008872 -0.010040
v -0.000148 0.008833 -0.010040
v -0.000143 0.008833 -0.010040
v -0.000210 0.008872 -0.010040
v -0.000145 0.008833 -0.010040
v -0.000140 0.008833 -0.010040
v -0.000210 0.008872 -0.010040
v -0.000143 0.008833 -0.010040
v -0.000138 0.008832 -0.010040
v -0.000210 0.008872 -0.010040
v -0.000140 0.008833 -0.010040
v 0.000020 0.008872 -0.010040
v -0.000210 0.008872 -0.010040
v -0.000138 0.008832 -0.010040
v 0.000020 0.008872 -0.010040
v -0.000138 0.008832 -0.010040
v -0.000136 0.008831 -0.010040
v -0.000210 0.008872 -0.010040
v -0.000174 0.008811 -0.010040
v -0.000173 0.008813 -0.010040
v -0.000131 0.008830 -0.010040
v 0.000020 0.008872 -0.010040
v -0.000133 0.008831 -0.010040
v -0.000133 0.008831 -0.010040
v 0.000020 0.008872 -0.010040
v -0.000136 0.008831 -0.010040
v -0.000175 0.008799 -0.010040
v -0.000175 0.008801 -0.010040
v -0.000210 0.008734 -0.010040
v -0.000056 0.008854 -0.010076
v -0.000064 0.008852 -0.010079
v -0.000085 0.008853 -0.010076
v -0.000038 0.008853 -0.010077
v -0.000017 0.008846 -0.010086
v -0.000017 0.008849 -0.010082
v -0.000008 0.008845 -0.010087
v -0.000027 0.008843 -0.010090
v -0.000056 0.008845 -0.010087
v -0.000058 0.008839 -0.010094
v -0.000064 0.008834 -0.010099
v -0.000084 0.008839 -0.010094
v -0.000017 0.008838 -0.010094
v -0.000018 0.008834 -0.010099
v -0.000002 0.008841 -0.010092
v -0.000053 0.008850 -0.010081
v -0.000079 0.008849 -0.010083
v -0.000082 0.008842 -0.010090
v 0.000020 0.008843 -0.010090
v -0.000143 0.008868 -0.010052
v -0.000147 0.008866 -0.010057
v -0.000210 0.008868 -0.010051
v -0.000132 0.008867 -0.010053
v -0.000183 0.008849 -0.010082
v -0.000171 0.008853 -0.010076
v -0.000148 0.008851 -0.010080
v -0.000210 0.008849 -0.010083
v -0.000210 0.008852 -0.010079
v -0.000169 0.008846 -0.010086
v -0.000149 0.008842 -0.010091
v -0.000210 0.008843 -0.010090
v -0.000134 0.008846 -0.010085
v -0.000140 0.008852 -0.010079
v -0.000162 0.008857 -0.010071
v -0.000134 0.008855 -0.010074
v -0.000210 0.008852 -0.010079
v -0.000210 0.008854 -0.010075
v -0.000053 0.008859 -0.010069
v -0.000059 0.008862 -0.010063
v -0.000024 0.008860 -0.010066
v -0.000067 0.008857 -0.010071
v -0.000082 0.008860 -0.010066
v -0.000042 0.008864 -0.010059
v -0.000045 0.008867 -0.010054
v 0.000020 0.008866 -0.010055
v -0.000057 0.008865 -0.010058
v -0.000034 0.008857 -0.010071
v 0.000020 0.008862 -0.010063
v 0.000020 0.008859 -0.010067
v -0.000176 0.008863 -0.010061
v -0.000169 0.008860 -0.010066
v -0.000210 0.008862 -0.010063
v -0.000136 0.008862 -0.010063
v -0.000210 0.008857 -0.010071
v -0.000100 0.008857 -0.010071
v -0.000085 0.008862 -0.010063
v -0.000123 0.008858 -0.010070
v -0.000102 0.008853 -0.010077
v -0.000092 0.008852 -0.010079
v -0.000114 0.008850 -0.010081
v -0.000111 0.008846 -0.010086
v -0.000067 0.008865 -0.010057
v 0.000020 0.008864 -0.010059
v -0.000121 0.008865 -0.010057
v -0.000097 0.008866 -0.010055
v -0.000151 0.008870 -0.010047
v -0.000086 0.008867 -0.010053
v -0.000096 0.008870 -0.010047
v -0.000040 0.008870 -0.010046
v 0.000020 0.008836 -0.010097
v -0.000056 0.008830 -0.010103
v 0.000020 0.008854 -0.010075
v 0.000020 0.008852 -0.010079
v 0.000020 0.008849 -0.010083
v -0.000106 0.008841 -0.010091
v -0.000210 0.008870 -0.010047
v -0.000210 0.008868 -0.010051
v 0.000020 0.008870 -0.010047
v -0.000149 0.008836 -0.010097
v -0.000126 0.008836 -0.010097
v -0.000151 0.008832 -0.010100
v -0.000152 0.008832 -0.010101
v -0.000210 0.008849 -0.010083
v -0.000210 0.008846 -0.010086
v -0.000143 0.008833 -0.010100
v 0.000020 0.008836 -0.010097
v 0.000020 0.008840 -0.010093
v -0.000131 0.008830 -0.010103
v -0.000131 0.008830 -0.010103
v 0.000020 0.008868 -0.010051
v 0.000020 0.008866 -0.010055
v 0.000020 0.008843 -0.010090
v 0.000020 0.008840 -0.010093
v -0.000133 0.008830 -0.010102
v -0.000134 0.008831 -0.010102
v 0.000020 0.008836 -0.010097
v 0.000020 0.008833 -0.010100
v -0.000210 0.008864 -0.010059
v -0.000210 0.008866 -0.010055
v -0.000210 0.008854 -0.010075
v -0.000210 0.008857 -0.010071
v 0.000020 0.008857 -0.010071
v -0.000147 0.008833 -0.010100
v -0.000145 0.008833 -0.010100
v 0.000020 0.008846 -0.010086
v 0.000020 0.008849 -0.010083
v -0.000157 0.008830 -0.010102
v -0.000210 0.008833 -0.010100
v -0.000156 0.008831 -0.010102
v -0.000157 0.008830 -0.010102
v -0.000159 0.008830 -0.010103
v -0.000210 0.008833 -0.010100
v -0.000156 0.008831 -0.010102
v -0.000210 0.008833 -0.010100
v -0.000154 0.008832 -0.010101
v -0.000154 0.008832 -0.010101
v -0.000210 0.008833 -0.010100
v -0.000210 0.008836 -0.010097
v -0.000154 0.008832 -0.010101
v -0.000210 0.008836 -0.010097
v -0.000152 0.008832 -0.010101
v -0.000154 0.008832 -0.010101
v -0.000210 0.008836 -0.010097
v -0.000210 0.008840 -0.010093
v -0.000151 0.008832 -0.010100
v -0.000149 0.008833 -0.010100
v -0.000210 0.008843 -0.010090
v -0.000210 0.008846 -0.010086
v -0.000210 0.008852 -0.010079
v 0.000020 0.008843 -0.010090
v 0.000020 0.008846 -0.010086
v -0.000210 0.008857 -0.010071
v -0.000143 0.008833 -0.010100
v -0.000141 0.008833 -0.010100
v -0.000141 0.008833 -0.010100
v -0.000140 0.008832 -0.010100
v 0.000020 0.008833 -0.010100
v 0.000020 0.008830 -0.010103
v -0.000138 0.008832 -0.010101
v -0.000140 0.008832 -0.010100
v -0.000210 0.008840 -0.010093
v -0.000210 0.008843 -0.010090
v -0.000131 0.008830 -0.010103
v -0.000133 0.008830 -0.010102
v -0.000134 0.008831 -0.010102
v -0.000136 0.008832 -0.010101
v 0.000020 0.008830 -0.010103
v -0.000138 0.008832 -0.010101
v -0.000136 0.008832 -0.010101
v 0.000020 0.008836 -0.010097
v -0.000145 0.008833 -0.010100
v -0.000143 0.008833 -0.010100
v -0.000210 0.008859 -0.010067
v -0.000210 0.008862 -0.010063
v 0.000020 0.008854 -0.010075
v -0.000210 0.008857 -0.010071
v -0.000210 0.008859 -0.010067
v 0.000020 0.008852 -0.010079
v 0.000020 0.008854 -0.010075
v -0.000210 0.008862 -0.010063
v -0.000210 0.008864 -0.010059
v 0.000020 0.008857 -0.010071
v 0.000020 0.008859 -0.010067
v 0.000020 0.008870 -0.010047
v 0.000020 0.008868 -0.010051
v 0.000020 0.008872 -0.010042
v 0.000020 0.008870 -0.010047
v 0.000020 0.008868 -0.010051
v 0.000020 0.008864 -0.010059
v 0.000020 0.008866 -0.010055
v -0.000210 0.008870 -0.010047
v -0.000210 0.008872 -0.010042
v 0.000020 0.008864 -0.010059
v 0.000020 0.008862 -0.010063
v -0.000210 0.008870 -0.010047
v -0.000210 0.008868 -0.010051
v -0.000210 0.008866 -0.010055
v -0.000210 0.008868 -0.010051
v -0.000210 0.008866 -0.010055
v 0.000020 0.008854 -0.010075
v 0.000020 0.008857 -0.010071
v 0.000020 0.008849 -0.010083
v -0.000149 0.008833 -0.010100
v -0.000147 0.008833 -0.010100
v -0.000210 0.008840 -0.010093
v -0.000210 0.008833 -0.010100
v -0.000159 0.008830 -0.010103
v -0.000210 0.008830 -0.010103
v -0.000210 0.008846 -0.010086
v -0.000210 0.008830 -0.010103
v -0.000159 0.008830 -0.010103
v -0.000161 0.008829 -0.010104
v -0.000162 0.008827 -0.010105
v -0.000210 0.008830 -0.010103
v -0.000161 0.008829 -0.010104
v -0.000162 0.008827 -0.010105
v -0.000210 0.008827 -0.010105
v -0.000210 0.008830 -0.010103
v -0.000162 0.008827 -0.010105
v -0.000164 0.008826 -0.010106
v -0.000210 0.008827 -0.010105
v -0.000210 0.008827 -0.010105
v -0.000164 0.008826 -0.010106
v -0.000165 0.008825 -0.010106
v -0.000167 0.008824 -0.010107
v -0.000210 0.008827 -0.010105
v -0.000165 0.008825 -0.010106
v -0.000167 0.008824 -0.010107
v -0.000210 0.008824 -0.010107
v -0.000210 0.008827 -0.010105
v -0.000168 0.008822 -0.010108
v -0.000169 0.008821 -0.010109
v -0.000210 0.008824 -0.010107
v -0.000169 0.008821 -0.010109
v -0.000170 0.008819 -0.010110
v -0.000210 0.008821 -0.010109
v -0.000171 0.008817 -0.010110
v -0.000172 0.008815 -0.010111
v -0.000210 0.008817 -0.010110
v -0.000172 0.008815 -0.010111
v -0.000173 0.008813 -0.010112
v -0.000210 0.008814 -0.010112
v -0.000210 0.008814 -0.010112
v -0.000174 0.008811 -0.010112
v -0.000210 0.008810 -0.010112
v -0.000210 0.008810 -0.010112
v -0.000174 0.008811 -0.010112
v -0.000174 0.008809 -0.010112
v -0.000210 0.008807 -0.010113
v -0.000210 0.008810 -0.010112
v -0.000175 0.008807 -0.010113
v -0.000210 0.008803 -0.010113
v -0.000210 0.008807 -0.010113
v -0.000175 0.008805 -0.010113
v -0.000175 0.008801 -0.010113
v -0.000210 0.008803 -0.010113
v -0.000175 0.008803 -0.010113
v -0.000173 0.008793 -0.010112
v -0.000172 0.008791 -0.010111
v -0.000210 0.008792 -0.010112
v -0.000159 0.008776 -0.010103
v -0.000210 0.008776 -0.010103
v -0.000161 0.008777 -0.010104
v -0.000161 0.008777 -0.010104
v -0.000210 0.008776 -0.010103
v -0.000162 0.008778 -0.010105
v -0.000162 0.008778 -0.010105
v -0.000210 0.008776 -0.010103
v -0.000210 0.008779 -0.010105
v -0.000164 0.008780 -0.010106
v -0.000162 0.008778 -0.010105
v -0.000210 0.008779 -0.010105
v -0.000165 0.008781 -0.010106
v -0.000164 0.008780 -0.010106
v -0.000210 0.008779 -0.010105
v -0.000167 0.008782 -0.010107
v -0.000165 0.008781 -0.010106
v -0.000210 0.008779 -0.010105
v -0.000210 0.008782 -0.010107
v -0.000167 0.008782 -0.010107
v -0.000210 0.008779 -0.010105
v -0.000210 0.008782 -0.010107
v -0.000168 0.008784 -0.010108
v -0.000167 0.008782 -0.010107
v -0.000210 0.008782 -0.010107
v -0.000169 0.008785 -0.010109
v -0.000168 0.008784 -0.010108
v -0.000210 0.008782 -0.010107
v -0.000210 0.008785 -0.010109
v -0.000169 0.008785 -0.010109
v -0.000169 0.008785 -0.010109
v -0.000210 0.008785 -0.010109
v -0.000170 0.008787 -0.010110
v -0.000210 0.008789 -0.010110
v -0.000172 0.008791 -0.010111
v -0.000171 0.008789 -0.010110
v -0.000170 0.008787 -0.010110
v -0.000210 0.008789 -0.010110
v -0.000171 0.008789 -0.010110
v -0.000210 0.008789 -0.010110
v -0.000210 0.008792 -0.010112
v -0.000172 0.008791 -0.010111
v -0.000174 0.008795 -0.010112
v -0.000173 0.008793 -0.010112
v -0.000210 0.008792 -0.010112
v -0.000210 0.008796 -0.010112
v -0.000174 0.008795 -0.010112
v -0.000210 0.008792 -0.010112
v -0.000175 0.008799 -0.010113
v -0.000210 0.008796 -0.010112
v -0.000210 0.008799 -0.010113
v -0.000175 0.008799 -0.010113
v -0.000174 0.008797 -0.010112
v -0.000210 0.008796 -0.010112
v -0.000175 0.008801 -0.010113
v -0.000175 0.008799 -0.010113
v -0.000210 0.008799 -0.010113
v -0.000210 0.008803 -0.010113
v -0.000175 0.008801 -0.010113
v -0.000210 0.008799 -0.010113
v -0.000175 0.008805 -0.010113
v -0.000175 0.008803 -0.010113
v -0.000210 0.008803 -0.010113
v -0.000175 0.008807 -0.010113
v -0.000175 0.008805 -0.010113
v -0.000210 0.008807 -0.010113
v -0.000174 0.008809 -0.010112
v -0.000175 0.008807 -0.010113
v -0.000210 0.008810 -0.010112
v -0.000174 0.008811 -0.010112
v -0.000210 0.008814 -0.010112
v -0.000173 0.008813 -0.010112
v -0.000210 0.008814 -0.010112
v -0.000210 0.008817 -0.010110
v -0.000172 0.008815 -0.010111
v -0.000210 0.008817 -0.010110
v -0.000170 0.008819 -0.010110
v -0.000171 0.008817 -0.010110
v -0.000210 0.008817 -0.010110
v -0.000210 0.008821 -0.010109
v -0.000170 0.008819 -0.010110
v -0.000210 0.008821 -0.010109
v -0.000210 0.008824 -0.010107
v -0.000169 0.008821 -0.010109
v -0.000210 0.008824 -0.010107
v -0.000167 0.008824 -0.010107
v -0.000168 0.008822 -0.010108
v -0.000210 0.008796 -0.010112
v -0.000174 0.008797 -0.010112
v -0.000174 0.008795 -0.010112
v -0.000210 0.008789 -0.010110
v -0.000170 0.008787 -0.010110
v -0.000210 0.008785 -0.010109
v -0.000087 0.008816 -0.010111
v -0.000089 0.008818 -0.010110
v -0.000068 0.008817 -0.010111
v -0.000099 0.008815 -0.010111
v -0.000012 0.008817 -0.010110
v -0.000012 0.008820 -0.010109
v 0.000005 0.008818 -0.010110
v -0.000018 0.008816 -0.010111
v -0.000023 0.008819 -0.010110
v -0.000026 0.008814 -0.010111
v -0.000031 0.008816 -0.010111
v -0.000038 0.008819 -0.010110
v -0.000045 0.008816 -0.010111
v -0.000030 0.008822 -0.010108
v -0.000001 0.008808 -0.010113
v -0.000005 0.008805 -0.010113
v -0.000011 0.008809 -0.010113
v 0.000013 0.008810 -0.010112
v 0.000020 0.008807 -0.010113
v -0.000015 0.008791 -0.010111
v -0.000011 0.008788 -0.010110
v -0.000033 0.008790 -0.010111
v -0.000008 0.008792 -0.010111
v -0.000042 0.008785 -0.010109
v -0.000047 0.008782 -0.010107
v -0.000060 0.008784 -0.010108
v -0.000030 0.008786 -0.010109
v -0.000028 0.008783 -0.010108
v -0.000054 0.008780 -0.010106
v -0.000026 0.008780 -0.010106
v -0.000097 0.008791 -0.010111
v -0.000097 0.008794 -0.010112
v -0.000090 0.008792 -0.010112
v -0.000104 0.008787 -0.010110
v -0.000118 0.008791 -0.010111
v -0.000106 0.008785 -0.010109
v -0.000120 0.008787 -0.010110
v -0.000088 0.008789 -0.010110
v -0.000085 0.008785 -0.010109
v -0.000111 0.008813 -0.010112
v -0.000116 0.008811 -0.010112
v -0.000117 0.008813 -0.010112
v -0.000092 0.008812 -0.010112
v 0.000002 0.008815 -0.010111
v -0.000002 0.008812 -0.010112
v -0.000006 0.008816 -0.010111
v 0.000015 0.008816 -0.010111
v 0.000020 0.008814 -0.010112
v 0.000020 0.008810 -0.010112
v 0.000020 0.008807 -0.010113
v 0.000020 0.008814 -0.010112
v -0.000014 0.008813 -0.010112
v 0.000020 0.008814 -0.010112
v 0.000020 0.008810 -0.010112
v 0.000020 0.008817 -0.010110
v 0.000020 0.008814 -0.010112
v 0.000020 0.008817 -0.010110
v -0.000008 0.008780 -0.010106
v -0.000007 0.008782 -0.010107
v 0.000001 0.008782 -0.010107
v -0.000021 0.008778 -0.010104
v -0.000056 0.008776 -0.010103
v -0.000055 0.008778 -0.010104
v -0.000062 0.008778 -0.010104
v -0.000098 0.008779 -0.010105
v -0.000076 0.008781 -0.010106
v -0.000067 0.008785 -0.010109
v -0.000066 0.008788 -0.010110
v -0.000050 0.008788 -0.010110
v -0.000075 0.008784 -0.010108
v 0.000009 0.008787 -0.010109
v 0.000004 0.008784 -0.010108
v 0.000020 0.008785 -0.010109
v 0.000003 0.008790 -0.010111
v -0.000001 0.008793 -0.010112
v 0.000020 0.008792 -0.010112
v -0.000033 0.008798 -0.010113
v -0.000032 0.008801 -0.010113
v -0.000011 0.008798 -0.010113
v -0.000040 0.008796 -0.010112
v -0.000048 0.008798 -0.010113
v -0.000042 0.008793 -0.010112
v -0.000053 0.008796 -0.010112
v -0.000028 0.008796 -0.010112
v -0.000026 0.008793 -0.010112
v -0.000065 0.008791 -0.010111
v -0.000059 0.008793 -0.010112
v -0.000052 0.008789 -0.010111
v -0.000072 0.008793 -0.010112
v -0.000069 0.008796 -0.010112
v -0.000063 0.008799 -0.010113
v -0.000007 0.008822 -0.010108
v -0.000008 0.008825 -0.010107
v 0.000000 0.008822 -0.010108
v -0.000024 0.008822 -0.010108
v 0.000004 0.008780 -0.010105
v 0.000020 0.008782 -0.010107
v -0.000104 0.008797 -0.010113
v -0.000099 0.008800 -0.010113
v -0.000086 0.008798 -0.010113
v -0.000116 0.008797 -0.010112
v -0.000115 0.008799 -0.010113
v -0.000096 0.008803 -0.010113
v -0.000080 0.008802 -0.010113
v -0.000115 0.008799 -0.010113
v -0.000115 0.008801 -0.010113
v -0.000102 0.008809 -0.010113
v -0.000099 0.008806 -0.010113
v -0.000115 0.008807 -0.010113
v -0.000086 0.008808 -0.010113
v -0.000115 0.008803 -0.010113
v -0.000084 0.008805 -0.010113
v -0.000057 0.008803 -0.010113
v -0.000051 0.008806 -0.010113
v -0.000041 0.008803 -0.010113
v -0.000071 0.008803 -0.010113
v -0.000063 0.008807 -0.010113
v -0.000051 0.008800 -0.010113
v -0.000049 0.008809 -0.010113
v -0.000028 0.008807 -0.010113
v 0.000004 0.008797 -0.010113
v 0.000001 0.008801 -0.010113
v 0.000020 0.008799 -0.010113
v -0.000008 0.008795 -0.010112
v -0.000013 0.008795 -0.010112
v -0.000093 0.008783 -0.010107
v -0.000110 0.008781 -0.010106
v -0.000131 0.008776 -0.010103
v -0.000129 0.008777 -0.010104
v -0.000015 0.008785 -0.010108
v -0.000085 0.008795 -0.010112
v 0.000020 0.008821 -0.010109
v 0.000020 0.008824 -0.010107
v -0.000003 0.008828 -0.010105
v -0.000021 0.008828 -0.010104
v 0.000020 0.008830 -0.010103
v 0.000020 0.008827 -0.010105
v 0.000020 0.008830 -0.010103
v -0.000029 0.008825 -0.010106
v -0.000053 0.008826 -0.010105
v 0.000020 0.008827 -0.010105
v -0.000087 0.008822 -0.010108
v -0.000121 0.008821 -0.010109
v -0.000076 0.008824 -0.010107
v -0.000072 0.008821 -0.010109
v -0.000095 0.008825 -0.010107
v -0.000087 0.008827 -0.010105
v -0.000122 0.008822 -0.010108
v -0.000123 0.008824 -0.010107
v -0.000069 0.008810 -0.010112
v -0.000072 0.008814 -0.010112
v -0.000057 0.008814 -0.010111
v -0.000026 0.008803 -0.010113
v -0.000050 0.008813 -0.010112
v -0.000051 0.008819 -0.010110
v -0.000045 0.008823 -0.010108
v -0.000060 0.008816 -0.010111
v -0.000023 0.008811 -0.010112
v 0.000020 0.008803 -0.010113
v -0.000122 0.008784 -0.010108
v -0.000126 0.008780 -0.010106
v -0.000125 0.008781 -0.010106
v -0.000128 0.008779 -0.010105
v -0.000126 0.008780 -0.010106
v 0.000020 0.008785 -0.010109
v 0.000020 0.008782 -0.010107
v 0.000020 0.008779 -0.010105
v 0.000020 0.008776 -0.010103
v -0.000115 0.008803 -0.010113
v -0.000115 0.008805 -0.010113
v -0.000116 0.008811 -0.010112
v -0.000116 0.008809 -0.010112
v -0.000115 0.008807 -0.010113
v -0.000115 0.008805 -0.010113
v 0.000020 0.008796 -0.010112
v 0.000020 0.008799 -0.010113
v 0.000020 0.008814 -0.010112
v 0.000020 0.008807 -0.010113
v -0.000120 0.008819 -0.010110
v -0.000119 0.008817 -0.010110
v -0.000118 0.008815 -0.010111
v 0.000020 0.008821 -0.010109
v 0.000020 0.008824 -0.010107
v -0.000125 0.008825 -0.010106
v -0.000123 0.008824 -0.010107
v 0.000020 0.008779 -0.010105
v 0.000020 0.008782 -0.010107
v -0.000128 0.008779 -0.010105
v -0.000129 0.008777 -0.010104
v 0.000020 0.008789 -0.010110
v 0.000020 0.008785 -0.010109
v -0.000120 0.008787 -0.010110
v -0.000119 0.008789 -0.010110
v -0.000116 0.008795 -0.010112
v -0.000115 0.008807 -0.010113
v -0.000116 0.008809 -0.010112
v 0.000020 0.008830 -0.010103
v -0.000119 0.008817 -0.010110
v -0.000120 0.008819 -0.010110
v -0.000129 0.008829 -0.010104
v -0.000131 0.008830 -0.010103
v -0.000131 0.008830 -0.010103
v -0.000128 0.008828 -0.010105
v -0.000129 0.008829 -0.010104
v -0.000126 0.008826 -0.010106
v -0.000128 0.008828 -0.010105
v -0.000126 0.008826 -0.010106
v -0.000125 0.008825 -0.010106
v -0.000126 0.008826 -0.010106
v -0.000121 0.008821 -0.010109
v -0.000121 0.008821 -0.010109
v -0.000122 0.008822 -0.010108
v -0.000120 0.008819 -0.010110
v -0.000121 0.008821 -0.010109
v 0.000020 0.008807 -0.010113
v 0.000020 0.008803 -0.010113
v -0.000118 0.008815 -0.010111
v -0.000117 0.008813 -0.010112
v -0.000118 0.008815 -0.010111
v 0.000020 0.008799 -0.010113
v 0.000020 0.008803 -0.010113
v -0.000116 0.008811 -0.010112
v 0.000020 0.008792 -0.010112
v 0.000020 0.008796 -0.010112
v 0.000020 0.008796 -0.010112
v 0.000020 0.008789 -0.010110
v 0.000020 0.008792 -0.010112
v -0.000115 0.008803 -0.010113
v 0.000020 0.008782 -0.010107
v -0.000115 0.008799 -0.010113
v 0.000020 0.008789 -0.010110
v -0.000116 0.008797 -0.010112
v -0.000116 0.008795 -0.010112
v -0.000117 0.008793 -0.010112
v -0.000118 0.008791 -0.010111
v 0.000020 0.008776 -0.010103
v -0.000131 0.008776 -0.010103
v -0.000119 0.008789 -0.010110
v -0.000118 0.008791 -0.010111
v -0.000128 0.008779 -0.010105
v -0.000125 0.008781 -0.010106
v -0.000123 0.008782 -0.010107
v -0.000123 0.008782 -0.010107
v -0.000122 0.008784 -0.010108
v -0.000121 0.008785 -0.010109
v -0.000122 0.008784 -0.010108
v -0.000121 0.008785 -0.010109
v -0.000120 0.008787 -0.010110
v 0.000020 0.008776 -0.010103
v -0.000117 0.008793 -0.010112
v -0.000117 0.008793 -0.010112
v -0.000116 0.008795 -0.010112
v -0.000115 0.008801 -0.010113
v -0.000115 0.008803 -0.010113
v 0.000020 0.008827 -0.010105
v 0.000020 0.008824 -0.010107
v 0.000020 0.008821 -0.010109
v 0.000020 0.008817 -0.010110
v -0.000026 0.008757 -0.010083
v -0.000029 0.008761 -0.010087
v 0.000020 0.008760 -0.010086
v -0.000036 0.008756 -0.010082
v -0.000096 0.008774 -0.010101
v -0.000101 0.008770 -0.010097
v -0.000134 0.008775 -0.010102
v -0.000059 0.008770 -0.010097
v -0.000143 0.008738 -0.010052
v -0.000147 0.008740 -0.010057
v -0.000132 0.008739 -0.010053
v -0.000151 0.008736 -0.010047
v -0.000210 0.008738 -0.010051
v -0.000058 0.008757 -0.010083
v -0.000064 0.008754 -0.010079
v -0.000082 0.008757 -0.010082
v -0.000053 0.008747 -0.010069
v -0.000059 0.008744 -0.010063
v -0.000082 0.008746 -0.010066
v -0.000034 0.008749 -0.010071
v -0.000024 0.008746 -0.010066
v -0.000042 0.008742 -0.010059
v -0.000045 0.008739 -0.010054
v -0.000057 0.008741 -0.010058
v 0.000020 0.008742 -0.010059
v 0.000020 0.008749 -0.010071
v -0.000176 0.008743 -0.010061
v -0.000169 0.008746 -0.010066
v -0.000136 0.008744 -0.010063
v -0.000210 0.008742 -0.010059
v -0.000210 0.008744 -0.010063
v -0.000162 0.008749 -0.010071
v -0.000210 0.008744 -0.010063
v -0.000210 0.008747 -0.010067
v -0.000055 0.008751 -0.010074
v -0.000028 0.008753 -0.010077
v -0.000067 0.008749 -0.010071
v -0.000085 0.008753 -0.010076
v -0.000100 0.008749 -0.010071
v -0.000085 0.008744 -0.010063
v -0.000123 0.008748 -0.010070
v -0.000134 0.008751 -0.010074
v -0.000140 0.008754 -0.010079
v -0.000102 0.008753 -0.010077
v -0.000158 0.008753 -0.010077
v -0.000092 0.008754 -0.010079
v -0.000114 0.008756 -0.010081
v -0.000111 0.008760 -0.010086
v -0.000146 0.008759 -0.010085
v -0.000067 0.008741 -0.010057
v -0.000121 0.008741 -0.010057
v -0.000097 0.008740 -0.010055
v -0.000075 0.008761 -0.010087
v -0.000092 0.008761 -0.010088
v -0.000050 0.008765 -0.010092
v -0.000042 0.008768 -0.010095
v -0.000017 0.008765 -0.010092
v -0.000078 0.008766 -0.010093
v 0.000020 0.008766 -0.010093
v 0.000020 0.008763 -0.010090
v -0.000014 0.008755 -0.010079
v 0.000020 0.008752 -0.010075
v -0.000086 0.008739 -0.010053
v -0.000096 0.008736 -0.010047
v -0.000157 0.008771 -0.010098
v -0.000152 0.008774 -0.010101
v -0.000151 0.008774 -0.010100
v -0.000168 0.008765 -0.010092
v -0.000210 0.008770 -0.010097
v -0.000161 0.008761 -0.010087
v -0.000210 0.008763 -0.010090
v -0.000133 0.008769 -0.010095
v -0.000135 0.008763 -0.010090
v -0.000210 0.008752 -0.010075
v -0.000171 0.008757 -0.010082
v -0.000210 0.008754 -0.010079
v -0.000210 0.008757 -0.010083
v -0.000052 0.008771 -0.010098
v 0.000020 0.008776 -0.010103
v -0.000109 0.008765 -0.010091
v -0.000210 0.008736 -0.010047
v -0.000210 0.008738 -0.010051
v -0.000210 0.008740 -0.010055
v -0.000040 0.008736 -0.010046
v 0.000020 0.008736 -0.010047
v 0.000020 0.008738 -0.010051
v -0.000210 0.008736 -0.010047
v -0.000210 0.008734 -0.010042
v -0.000210 0.008738 -0.010051
v -0.000210 0.008736 -0.010047
v -0.000210 0.008749 -0.010071
v -0.000210 0.008752 -0.010075
v -0.000210 0.008749 -0.010071
v -0.000210 0.008747 -0.010067
v 0.000020 0.008757 -0.010083
v 0.000020 0.008749 -0.010071
v 0.000020 0.008747 -0.010067
v 0.000020 0.008740 -0.010055
v 0.000020 0.008742 -0.010059
v -0.000210 0.008760 -0.010086
v -0.000210 0.008757 -0.010083
v 0.000020 0.008770 -0.010097
v 0.000020 0.008773 -0.010100
v 0.000020 0.008752 -0.010075
v -0.000143 0.008773 -0.010100
v -0.000141 0.008773 -0.010100
v -0.000145 0.008773 -0.010100
v -0.000143 0.008773 -0.010100
v 0.000020 0.008763 -0.010090
v 0.000020 0.008760 -0.010086
v -0.000210 0.008749 -0.010071
v -0.000140 0.008774 -0.010100
v -0.000141 0.008773 -0.010100
v -0.000210 0.008760 -0.010086
v -0.000210 0.008776 -0.010103
v -0.000159 0.008776 -0.010103
v -0.000210 0.008773 -0.010100
v -0.000210 0.008773 -0.010100
v -0.000159 0.008776 -0.010103
v -0.000157 0.008776 -0.010102
v -0.000156 0.008775 -0.010102
v -0.000210 0.008773 -0.010100
v -0.000157 0.008776 -0.010102
v -0.000156 0.008775 -0.010102
v -0.000154 0.008774 -0.010101
v -0.000154 0.008774 -0.010101
v -0.000152 0.008774 -0.010101
v -0.000147 0.008773 -0.010100
v -0.000149 0.008773 -0.010100
v -0.000147 0.008773 -0.010100
v -0.000145 0.008773 -0.010100
v -0.000210 0.008770 -0.010097
v -0.000210 0.008766 -0.010093
v -0.000210 0.008763 -0.010090
v -0.000210 0.008766 -0.010093
v 0.000020 0.008752 -0.010075
v 0.000020 0.008749 -0.010071
v 0.000020 0.008747 -0.010067
v 0.000020 0.008744 -0.010063
v -0.000210 0.008752 -0.010075
v -0.000210 0.008754 -0.010079
v -0.000210 0.008740 -0.010055
v -0.000210 0.008738 -0.010051
v -0.000210 0.008742 -0.010059
v -0.000210 0.008740 -0.010055
v 0.000020 0.008736 -0.010047
v 0.000020 0.008734 -0.010042
v -0.000210 0.008744 -0.010063
v 0.000020 0.008736 -0.010047
v 0.000020 0.008738 -0.010051
v 0.000020 0.008740 -0.010055
v -0.000210 0.008754 -0.010079
v 0.000020 0.008752 -0.010075
v 0.000020 0.008754 -0.010079
v -0.000138 0.008774 -0.010101
v -0.000140 0.008774 -0.010100
v 0.000020 0.008757 -0.010083
v 0.000020 0.008760 -0.010086
v 0.000020 0.008770 -0.010097
v 0.000020 0.008773 -0.010100
v 0.000020 0.008773 -0.010100
v 0.000020 0.008776 -0.010103
v 0.000020 0.008760 -0.010086
v -0.000131 0.008776 -0.010103
v -0.000131 0.008776 -0.010103
v -0.000133 0.008776 -0.010102
v -0.000133 0.008776 -0.010102
v -0.000134 0.008775 -0.010102
v -0.000134 0.008775 -0.010102
v -0.000136 0.008774 -0.010101
v -0.000136 0.008774 -0.010101
v -0.000138 0.008774 -0.010101
v 0.000020 0.008770 -0.010097
v 0.000020 0.008766 -0.010093
v 0.000020 0.008757 -0.010083
v 0.000020 0.008754 -0.010079
v 0.000020 0.008740 -0.010055
v 0.000020 0.008738 -0.010051
v 0.000020 0.008744 -0.010063
v 0.000020 0.008742 -0.010059
v -0.000145 0.008773 -0.010100
v -0.000210 0.008760 -0.010086
v -0.000210 0.008763 -0.010090
v -0.000210 0.008770 -0.010097
v -0.000210 0.008773 -0.010100
v -0.000151 0.008774 -0.010100
v -0.000149 0.008773 -0.010100
v -0.000138 0.008774 -0.010101
v -0.000210 0.008773 -0.010100
v -0.000156 0.008775 -0.010102
vn -1.0000 -0.0000 -0.0000
vn -1.0000 -0.0001 -0.0000
vn -1.0000 0.0001 -0.0000
vn -1.0000 -0.0000 -0.0001
vn 1.0000 -0.0000 -0.0000
vn 1.0000 0.0001 0.0001
vn -0.0000 -1.0000 -0.0000
vn -0.0000 -1.0000 -0.0001
vn -0.9977 -0.0680 0.0002
vn -1.0000 -0.0020 -0.0000
vn -0.9897 -0.1430 -0.0000
vn -0.9974 -0.0726 -0.0000
vn -0.9771 -0.2127 -0.0000
vn -0.9908 -0.1355 -0.0000
vn -0.9793 -0.2024 -0.0000
vn -0.9597 -0.2810 -0.0000
vn -0.9633 -0.2685 0.0001
vn -0.9376 -0.3477 -0.0000
vn -0.9428 -0.3333 -0.0000
vn -0.9111 -0.4121 -0.0000
vn -0.9181 -0.3965 0.0002
vn -0.8890 -0.4579 0.0001
vn -0.8806 -0.4738 -0.0000
vn -0.8464 -0.5325 -0.0000
vn -0.8559 -0.5172 0.0002
vn -0.8090 -0.5879 -0.0000
vn -0.8188 -0.5741 -0.0000
vn -0.7779 -0.6284 -0.0002
vn -0.7685 -0.6399 -0.0000
vn -0.7250 -0.6887 -0.0000
vn -0.6787 -0.7344 -0.0000
vn -0.7334 -0.6798 -0.0000
vn -0.5227 -0.8525 -0.0000
vn -0.5240 -0.8517 -0.0000
vn -0.4650 -0.8853 -0.0000
vn -0.5806 -0.8142 -0.0001
vn -0.5775 -0.8164 -0.0000
vn -0.6345 -0.7729 -0.0002
vn -0.6295 -0.7770 -0.0000
vn -0.6856 -0.7280 -0.0003
vn -0.9976 0.0690 -0.0000
vn -0.9967 0.0811 -0.0000
vn -0.9902 0.1394 -0.0000
vn -0.9868 0.1617 -0.0000
vn -0.9779 0.2091 -0.0000
vn -0.9705 0.2412 0.0001
vn -0.9607 0.2775 -0.0000
vn -0.9388 0.3443 -0.0000
vn -0.9477 0.3191 0.0002
vn -0.9187 0.3949 0.0002
vn -0.9126 0.4089 -0.0000
vn -0.8822 0.4709 -0.0000
vn -0.8837 0.4680 0.0001
vn -0.8481 0.5298 -0.0000
vn -0.8428 0.5382 0.0001
vn -0.7964 0.6048 -0.0000
vn -0.8106 0.5856 -0.0000
vn -0.7447 0.6674 -0.0000
vn -0.6796 0.7336 -0.0000
vn -0.6882 0.7255 -0.0003
vn -0.7263 0.6874 -0.0000
vn -0.7699 0.6381 -0.0000
vn -0.6302 0.7765 -0.0000
vn -0.5778 0.8162 -0.0000
vn -0.5228 0.8525 -0.0000
vn -0.5618 0.8273 -0.0001
vn -0.6270 0.7790 -0.0001
vn -0.4650 0.8853 -0.0000
vn -0.4927 0.8702 -0.0001
vn -0.4124 0.9110 -0.0000
vn -0.4208 0.9072 0.0001
vn -0.3576 0.9339 -0.0000
vn -0.3457 0.9383 -0.0001
vn -0.3008 0.9537 -0.0000
vn -0.2684 0.9633 -0.0001
vn -0.2423 0.9702 -0.0000
vn -0.1895 0.9819 -0.0001
vn -0.1825 0.9832 -0.0000
vn -0.1220 0.9925 -0.0000
vn -0.0605 0.9982 -0.0000
vn -0.1093 0.9940 -0.0002
vn -0.0283 0.9996 -0.0003
vn 0.0008 1.0000 -0.0000
vn 0.0624 0.9981 -0.0000
vn 0.0530 0.9986 -0.0000
vn 0.1337 0.9910 0.0001
vn 0.1235 0.9923 -0.0000
vn 0.2137 0.9769 -0.0002
vn 0.1836 0.9830 -0.0000
vn 0.2922 0.9564 -0.0000
vn 0.2433 0.9700 -0.0000
vn 0.3687 0.9295 -0.0002
vn 0.3014 0.9535 -0.0000
vn 0.3579 0.9338 -0.0000
vn 0.4429 0.8965 -0.0003
vn 0.4125 0.9110 -0.0000
vn 0.4649 0.8854 -0.0000
vn 0.5142 0.8577 -0.0003
vn 0.5226 0.8526 -0.0000
vn 0.5821 0.8131 -0.0002
vn 0.5775 0.8164 -0.0000
vn 0.6295 0.7770 -0.0000
vn 0.6461 0.7632 -0.0000
vn 0.7058 0.7084 -0.0001
vn 0.6787 0.7344 -0.0000
vn 0.7250 0.6887 -0.0000
vn 0.7610 0.6488 0.0001
vn 0.7685 0.6399 -0.0000
vn 0.8090 0.5878 -0.0000
vn 0.8112 0.5848 -0.0000
vn 0.8559 0.5171 0.0001
vn 0.8949 0.4462 0.0003
vn 0.8464 0.5325 -0.0000
vn 0.8806 0.4738 -0.0000
vn 0.9282 0.3720 0.0002
vn 0.9111 0.4121 -0.0000
vn 0.9376 0.3477 -0.0000
vn 0.9553 0.2955 0.0003
vn 0.9597 0.2810 -0.0000
vn 0.9905 0.1374 0.0001
vn 0.9761 0.2171 0.0004
vn 0.9771 0.2127 -0.0000
vn 0.9897 0.1430 -0.0000
vn 0.9779 -0.2091 -0.0000
vn 0.9607 -0.2775 -0.0000
vn 0.9642 -0.2651 -0.0000
vn 0.9984 0.0565 -0.0002
vn 0.9974 0.0726 -0.0000
vn 0.8822 -0.4708 -0.0000
vn 0.8481 -0.5299 -0.0000
vn 0.8719 -0.4897 -0.0002
vn 0.7262 -0.6875 -0.0000
vn 0.7280 -0.6856 -0.0000
vn 0.7813 -0.6242 -0.0000
vn 0.5228 -0.8524 -0.0000
vn 0.6073 -0.7945 -0.0001
vn 0.5778 -0.8162 -0.0000
vn 0.4713 -0.8820 -0.0018
vn 0.4125 -0.9110 -0.0000
vn 0.3981 -0.9173 0.0002
vn 0.2433 -0.9700 -0.0000
vn 0.2447 -0.9696 -0.0000
vn 0.3226 -0.9465 -0.0000
vn 0.1235 -0.9923 -0.0000
vn 0.1652 -0.9863 -0.0002
vn 0.1839 -0.9829 -0.0000
vn 0.0624 -0.9981 -0.0000
vn 0.0035 -1.0000 -0.0003
vn 0.0846 -0.9964 -0.0003
vn 0.0010 -1.0000 -0.0000
vn -0.0606 -0.9982 -0.0000
vn -0.1218 -0.9925 -0.0000
vn -0.0776 -0.9970 -0.0000
vn -0.1825 -0.9832 -0.0000
vn -0.1582 -0.9874 -0.0002
vn -0.2424 -0.9702 -0.0000
vn -0.2378 -0.9713 0.0001
vn -0.3008 -0.9537 -0.0000
vn -0.3159 -0.9488 -0.0004
vn -0.4124 -0.9110 -0.0000
vn -0.3916 -0.9201 0.0002
vn -0.3577 -0.9339 0.0005
vn 0.3014 -0.9535 -0.0000
vn 0.3579 -0.9337 -0.0000
vn 0.4649 -0.8854 -0.0000
vn 0.5413 -0.8408 0.0003
vn 0.6301 -0.7765 -0.0000
vn 0.6700 -0.7424 0.0001
vn 0.6795 -0.7336 -0.0000
vn 0.7699 -0.6382 -0.0000
vn 0.8293 -0.5588 0.0001
vn 0.8106 -0.5857 -0.0000
vn 0.9087 -0.4174 0.0001
vn 0.9126 -0.4088 -0.0000
vn 0.9396 -0.3424 0.0001
vn 0.9389 -0.3442 -0.0000
vn 0.9825 -0.1861 -0.0000
vn 0.9902 -0.1394 -0.0000
vn 0.9944 -0.1057 -0.0002
vn 0.9976 -0.0690 -0.0000
vn 0.9997 -0.0247 -0.0000
vn 1.0000 0.0020 0.0001
vn -0.0000 1.0000 -0.0000
vn -0.0000 1.0000 -0.0001
vn -0.0000 1.0000 -0.0002
vn -0.0000 -0.0000 1.0000
vn 0.0001 -0.0000 1.0000
vn -0.0001 -0.0000 1.0000
vn 0.0002 -0.0000 1.0000
vn -0.0000 0.8154 -0.5788
vn -0.0001 0.8016 -0.5979
vn -0.0000 0.8131 -0.5821
vn -0.0000 0.8087 -0.5882
vn -0.0000 0.7651 -0.6439
vn -0.0000 0.7879 -0.6158
vn -0.0000 0.7593 -0.6508
vn -0.0000 0.7473 -0.6645
vn 0.0001 0.7621 -0.6474
vn -0.0000 0.7216 -0.6923
vn -0.0000 0.6914 -0.7224
vn -0.0000 0.7247 -0.6890
vn -0.0000 0.7197 -0.6943
vn -0.0000 0.6901 -0.7237
vn -0.0000 0.7355 -0.6775
vn -0.0000 0.7913 -0.6115
vn -0.0000 0.7829 -0.6221
vn -0.0000 0.7435 -0.6688
vn -0.0000 0.7465 -0.6654
vn -0.0000 0.9023 -0.4311
vn -0.0000 0.8890 -0.4578
vn -0.0000 0.9062 -0.4229
vn -0.0000 0.9001 -0.4357
vn -0.0000 0.7884 -0.6151
vn -0.0003 0.8130 -0.5822
vn -0.0000 0.7951 -0.6065
vn -0.0000 0.7839 -0.6208
vn -0.0000 0.8017 -0.5977
vn 0.0001 0.7671 -0.6416
vn -0.0000 0.7391 -0.6736
vn -0.0004 0.7695 -0.6386
vn -0.0000 0.8016 -0.5978
vn -0.0000 0.8352 -0.5500
vn -0.0000 0.8243 -0.5662
vn -0.0000 0.8188 -0.5741
vn -0.0000 0.8457 -0.5337
vn -0.0001 0.8660 -0.5001
vn -0.0000 0.8559 -0.5172
vn -0.0000 0.8351 -0.5501
vn -0.0000 0.8558 -0.5172
vn -0.0000 0.8796 -0.4756
vn -0.0000 0.8978 -0.4405
vn -0.0000 0.8934 -0.4492
vn -0.0000 0.8835 -0.4684
vn -0.0000 0.8658 -0.5004
vn -0.0000 0.8508 -0.5255
vn -0.0000 0.8753 -0.4835
vn -0.0001 0.8560 -0.5170
vn -0.0001 0.8657 -0.5006
vn -0.0000 0.8658 -0.5005
vn -0.0000 0.8422 -0.5392
vn -0.0000 0.8093 -0.5873
vn -0.0000 0.8017 -0.5978
vn -0.0000 0.7899 -0.6133
vn -0.0000 0.7654 -0.6435
vn -0.0000 0.8860 -0.4636
vn -0.0000 0.8800 -0.4750
vn -0.0000 0.8869 -0.4620
vn -0.0001 0.8936 -0.4489
vn -0.0000 0.9168 -0.3994
vn -0.0000 0.8997 -0.4366
vn -0.0000 0.9181 -0.3964
vn -0.0000 0.9194 -0.3934
vn -0.0000 0.7064 -0.7078
vn -0.0000 0.6640 -0.7477
vn -0.0001 0.7381 -0.6747
vn -0.0000 0.7023 -0.7119
vn -0.0000 0.7039 -0.7103
vn -0.0000 0.6823 -0.7311
vn -0.0000 0.6798 -0.7334
vn -0.0000 0.7884 -0.6152
vn -0.0000 0.7655 -0.6434
vn -0.0000 0.6851 -0.7284
vn -0.0000 0.7065 -0.7078
vn -0.0000 0.7355 -0.6776
vn -0.0000 0.7268 -0.6869
vn -0.0000 0.7464 -0.6655
vn -0.0000 0.6688 -0.7434
vn -0.0000 0.6730 -0.7396
vn -0.0000 0.6855 -0.7281
vn -0.0000 0.8935 -0.4491
vn -0.0000 0.8351 -0.5500
vn -0.0000 0.7592 -0.6508
vn -0.0000 0.6689 -0.7434
vn -0.0000 0.6731 -0.7396
vn -0.0000 0.6687 -0.7435
vn -0.0000 0.6640 -0.7478
vn -0.0000 0.6767 -0.7362
vn -0.0000 0.7065 -0.7077
vn -0.0000 0.7267 -0.6869
vn -0.0001 0.7023 -0.7119
vn -0.0001 0.6841 -0.7294
vn -0.0000 0.7671 -0.6416
vn -0.0000 0.6840 -0.7295
vn -0.0000 0.6822 -0.7311
vn -0.0001 0.7039 -0.7103
vn -0.0001 0.6688 -0.7435
vn -0.0000 0.8352 -0.5499
vn -0.0000 0.8754 -0.4835
vn -0.0000 0.9293 -0.3694
vn -0.0000 0.9061 -0.4230
vn -0.0000 0.7839 -0.6209
vn -0.0000 0.6841 -0.7294
vn -0.0000 0.6395 -0.7688
vn -0.0000 0.6124 -0.7906
vn -0.0000 0.6639 -0.7478
vn -0.0000 0.6393 -0.7689
vn -0.0000 0.6123 -0.7906
vn -0.0000 0.5935 -0.8048
vn -0.0000 0.5827 -0.8127
vn -0.0001 0.5935 -0.8049
vn -0.0000 0.5506 -0.8348
vn -0.0000 0.5160 -0.8566
vn -0.0000 0.5935 -0.8049
vn -0.0000 0.5181 -0.8553
vn -0.0000 0.5934 -0.8049
vn -0.0000 0.4789 -0.8779
vn -0.0000 0.4394 -0.8983
vn -0.0000 0.5182 -0.8553
vn -0.0000 0.3974 -0.9176
vn -0.0000 0.4384 -0.8988
vn -0.0000 0.3530 -0.9356
vn -0.0000 0.3065 -0.9519
vn -0.0000 0.3551 -0.9348
vn -0.0000 0.2581 -0.9661
vn -0.0000 0.2690 -0.9631
vn -0.0000 0.2688 -0.9632
vn -0.0000 0.2080 -0.9781
vn -0.0000 0.1805 -0.9836
vn -0.0000 0.1568 -0.9876
vn -0.0000 0.0906 -0.9959
vn -0.0000 0.1806 -0.9836
vn -0.0000 0.1046 -0.9945
vn -0.0000 -0.0000 -1.0000
vn -0.0000 0.0517 -0.9987
vn -0.0000 -0.0544 -0.9985
vn -0.0000 -0.0014 -1.0000
vn -0.0000 -0.2606 -0.9654
vn -0.0000 -0.3089 -0.9511
vn -0.0000 -0.2691 -0.9631
vn -0.0000 -0.6640 -0.7477
vn -0.0000 -0.6395 -0.7688
vn -0.0000 -0.6126 -0.7904
vn -0.0000 -0.5935 -0.8048
vn -0.0000 -0.5831 -0.8124
vn -0.0000 -0.5513 -0.8343
vn -0.0000 -0.5832 -0.8124
vn -0.0000 -0.5170 -0.8560
vn -0.0000 -0.5514 -0.8343
vn -0.0000 -0.5935 -0.8049
vn -0.0000 -0.5181 -0.8553
vn -0.0000 -0.4803 -0.8771
vn -0.0000 -0.5182 -0.8553
vn -0.0000 -0.4411 -0.8974
vn -0.0000 -0.4804 -0.8771
vn -0.0000 -0.4385 -0.8987
vn -0.0000 -0.4411 -0.8975
vn -0.0000 -0.4384 -0.8988
vn -0.0000 -0.3994 -0.9168
vn -0.0000 -0.3551 -0.9348
vn -0.0000 -0.3553 -0.9348
vn -0.0000 -0.3552 -0.9348
vn -0.0000 -0.3090 -0.9511
vn -0.0000 -0.2106 -0.9776
vn -0.0000 -0.2606 -0.9655
vn -0.0000 -0.2689 -0.9632
vn -0.0000 -0.1805 -0.9836
vn -0.0000 -0.2688 -0.9632
vn -0.0000 -0.1072 -0.9942
vn -0.0000 -0.1806 -0.9836
vn -0.0000 -0.0906 -0.9959
vn -0.0000 -0.1074 -0.9942
vn -0.0000 -0.1594 -0.9872
vn -0.0000 -0.0545 -0.9985
vn -0.0000 -0.0907 -0.9959
vn -0.0000 0.1045 -0.9945
vn -0.0000 0.0907 -0.9959
vn -0.0000 0.2081 -0.9781
vn -0.0000 0.3552 -0.9348
vn -0.0000 0.3531 -0.9356
vn -0.0000 0.3974 -0.9177
vn -0.0000 0.3214 -0.9469
vn -0.0000 0.3856 -0.9227
vn -0.0000 0.3445 -0.9388
vn -0.0000 0.3058 -0.9521
vn -0.0000 0.3615 -0.9324
vn -0.0000 0.4277 -0.9039
vn -0.0001 0.3848 -0.9230
vn -0.0000 0.3305 -0.9438
vn -0.0000 0.3911 -0.9203
vn -0.0000 0.2743 -0.9617
vn -0.0000 0.3289 -0.9444
vn -0.0001 0.4021 -0.9156
vn -0.0000 0.3201 -0.9474
vn -0.0000 0.4667 -0.8844
vn -0.0000 0.1241 -0.9923
vn -0.0000 0.0524 -0.9986
vn -0.0000 0.1532 -0.9882
vn -0.0000 0.1656 -0.9862
vn -0.0000 -0.3053 -0.9523
vn -0.0000 -0.3725 -0.9280
vn -0.0000 -0.3138 -0.9495
vn -0.0000 -0.2802 -0.9599
vn -0.0000 -0.4394 -0.8983
vn -0.0000 -0.5169 -0.8561
vn -0.0000 -0.4775 -0.8786
vn -0.0000 -0.4170 -0.9089
vn -0.0000 -0.4943 -0.8693
vn -0.0000 -0.5766 -0.8170
vn -0.0000 -0.5735 -0.8192
vn -0.0000 -0.2966 -0.9550
vn -0.0000 -0.2312 -0.9729
vn -0.0000 -0.2661 -0.9639
vn -0.0000 -0.3900 -0.9208
vn -0.0000 -0.3065 -0.9519
vn -0.0000 -0.4541 -0.8910
vn -0.0000 -0.3974 -0.9176
vn -0.0000 -0.3613 -0.9324
vn -0.0000 -0.4471 -0.8945
vn -0.0000 0.2592 -0.9658
vn -0.0000 0.2106 -0.9776
vn -0.0000 0.2606 -0.9655
vn -0.0000 0.2207 -0.9753
vn -0.0000 0.2958 -0.9552
vn -0.0000 0.2250 -0.9744
vn -0.0000 0.3248 -0.9458
vn -0.0000 0.3367 -0.9416
vn -0.0000 0.2689 -0.9632
vn -0.0000 0.1657 -0.9862
vn -0.0000 0.2515 -0.9679
vn -0.0000 0.3368 -0.9416
vn -0.0000 -0.5803 -0.8144
vn -0.0000 -0.5171 -0.8559
vn -0.0000 -0.5247 -0.8513
vn -0.0000 -0.6347 -0.7727
vn -0.0000 -0.6640 -0.7478
vn -0.0000 -0.6357 -0.7719
vn -0.0000 -0.6175 -0.7866
vn -0.0000 -0.5999 -0.8001
vn -0.0000 -0.5495 -0.8355
vn -0.0000 -0.3709 -0.9287
vn -0.0000 -0.3817 -0.9243
vn -0.0000 -0.4681 -0.8837
vn -0.0000 -0.4123 -0.9110
vn -0.0000 -0.4682 -0.8836
vn -0.0000 -0.3278 -0.9447
vn -0.0000 -0.2543 -0.9671
vn -0.0000 -0.2690 -0.9631
vn -0.0000 -0.1375 -0.9905
vn -0.0000 -0.1172 -0.9931
vn -0.0000 -0.1871 -0.9823
vn 0.0001 -0.1304 -0.9915
vn -0.0000 -0.2595 -0.9657
vn -0.0000 -0.1870 -0.9824
vn -0.0000 -0.1703 -0.9854
vn -0.0000 -0.2618 -0.9651
vn -0.0000 -0.2974 -0.9548
vn -0.0000 -0.2616 -0.9652
vn -0.0000 -0.3379 -0.9412
vn -0.0000 -0.2582 -0.9661
vn -0.0000 -0.1701 -0.9854
vn -0.0000 -0.0992 -0.9951
vn -0.0000 0.4827 -0.8758
vn -0.0000 0.5463 -0.8376
vn -0.0000 0.4717 -0.8818
vn -0.0000 0.4857 -0.8741
vn -0.0000 -0.5860 -0.8103
vn 0.0002 -0.1546 -0.9880
vn -0.0001 -0.0741 -0.9973
vn -0.0000 -0.1204 -0.9927
vn -0.0000 -0.1543 -0.9880
vn -0.0000 -0.1568 -0.9876
vn -0.0000 -0.1046 -0.9945
vn -0.0000 0.0031 -1.0000
vn -0.0000 -0.0239 -0.9997
vn -0.0000 -0.0740 -0.9973
vn -0.0000 -0.1045 -0.9945
vn -0.0000 -0.0517 -0.9987
vn -0.0000 0.1535 -0.9882
vn -0.0000 0.0797 -0.9968
vn -0.0000 0.1072 -0.9942
vn -0.0000 0.1284 -0.9917
vn -0.0000 0.0014 -1.0000
vn -0.0000 0.0451 -0.9990
vn -0.0000 0.0043 -1.0000
vn -0.0000 0.0845 -0.9964
vn -0.0000 0.0044 -1.0000
vn 0.0001 0.0037 -1.0000
vn -0.0000 0.1084 -0.9941
vn -0.0000 -0.0752 -0.9972
vn -0.0000 0.1403 -0.9901
vn -0.0000 0.0992 -0.9951
vn -0.0000 -0.1427 -0.9898
vn -0.0000 -0.0519 -0.9987
vn -0.0000 -0.1947 -0.9809
vn -0.0001 -0.2115 -0.9774
vn -0.0000 -0.5089 -0.8608
vn -0.0000 -0.5559 -0.8313
vn -0.0000 -0.4624 -0.8867
vn -0.0000 -0.2036 -0.9791
vn -0.0000 0.6148 -0.7887
vn -0.0000 0.6304 -0.7763
vn -0.0000 0.6641 -0.7477
vn -0.0000 0.5597 -0.8287
vn -0.0000 0.5836 -0.8121
vn -0.0000 0.4835 -0.8753
vn -0.0000 0.4411 -0.8975
vn -0.0000 0.5221 -0.8529
vn -0.0000 0.4397 -0.8981
vn -0.0000 0.5387 -0.8425
vn -0.0000 0.6103 -0.7922
vn -0.0000 0.4803 -0.8771
vn -0.0000 0.5170 -0.8560
vn -0.0000 0.2715 -0.9624
vn -0.0000 0.2752 -0.9614
vn -0.0000 0.0033 -1.0000
vn -0.0000 0.2459 -0.9693
vn -0.0000 0.4084 -0.9128
vn -0.0000 0.4880 -0.8728
vn -0.0000 0.3192 -0.9477
vn -0.0000 0.2090 -0.9779
vn -0.0000 -0.4789 -0.8779
vn -0.0000 -0.5559 -0.8312
vn -0.0000 -0.5827 -0.8127
vn -0.0000 -0.5506 -0.8348
vn -0.0000 -0.5558 -0.8313
vn -0.0000 -0.6123 -0.7906
vn -0.0000 -0.5861 -0.8103
vn -0.0000 0.0544 -0.9985
vn -0.0000 0.2107 -0.9776
vn -0.0000 0.1593 -0.9872
vn -0.0000 0.1073 -0.9942
vn -0.0000 0.0545 -0.9985
vn -0.0000 -0.1426 -0.9898
vn -0.0000 0.3993 -0.9168
vn -0.0000 0.3553 -0.9347
vn -0.0000 0.3089 -0.9511
vn -0.0000 0.4717 -0.8817
vn -0.0000 0.5514 -0.8343
vn -0.0000 -0.6394 -0.7689
vn -0.0000 -0.4123 -0.9111
vn -0.0000 -0.3531 -0.9356
vn -0.0000 -0.2080 -0.9781
vn -0.0000 0.1594 -0.9872
vn -0.0000 0.1536 -0.9881
vn -0.0000 0.3994 -0.9168
vn -0.0000 0.3057 -0.9521
vn -0.0000 0.6126 -0.7904
vn -0.0000 0.5832 -0.8123
vn -0.0000 0.6125 -0.7905
vn -0.0000 0.5831 -0.8124
vn -0.0000 0.5513 -0.8343
vn -0.0000 0.4411 -0.8974
vn -0.0000 0.0525 -0.9986
vn -0.0000 0.2593 -0.9658
vn -0.0000 0.2606 -0.9654
vn -0.0000 -0.1567 -0.9877
vn -0.0000 -0.2581 -0.9661
vn -0.0000 -0.3530 -0.9356
vn -0.0000 -0.5506 -0.8347
vn -0.0000 -0.5160 -0.8566
vn -0.0000 -0.4541 -0.8909
vn -0.0000 -0.4789 -0.8778
vn -0.0000 -0.6639 -0.7478
vn -0.0000 0.0013 -1.0000
vn -0.0000 0.4383 -0.8988
vn -0.0000 0.3848 -0.9230
vn -0.0000 -0.7843 -0.6204
vn -0.0000 -0.7626 -0.6469
vn -0.0000 -0.7655 -0.6434
vn -0.0000 -0.7887 -0.6148
vn -0.0000 -0.6774 -0.7356
vn -0.0000 -0.7036 -0.7106
vn -0.0000 -0.6730 -0.7396
vn -0.0000 -0.7033 -0.7109
vn -0.0000 -0.9024 -0.4310
vn -0.0000 -0.8890 -0.4578
vn -0.0000 -0.9001 -0.4356
vn -0.0000 -0.9168 -0.3993
vn -0.0000 -0.9062 -0.4229
vn -0.0000 -0.7841 -0.6207
vn -0.0000 -0.8017 -0.5978
vn -0.0000 -0.7876 -0.6162
vn -0.0002 -0.8457 -0.5337
vn -0.0001 -0.8660 -0.5001
vn -0.0000 -0.8558 -0.5172
vn -0.0000 -0.8351 -0.5500
vn -0.0000 -0.8559 -0.5172
vn -0.0000 -0.8796 -0.4756
vn -0.0000 -0.8978 -0.4405
vn -0.0000 -0.8835 -0.4684
vn -0.0000 -0.8800 -0.4750
vn -0.0000 -0.8753 -0.4835
vn 0.0001 -0.8558 -0.5174
vn -0.0001 -0.8657 -0.5006
vn -0.0000 -0.8658 -0.5004
vn 0.0001 -0.8352 -0.5500
vn -0.0000 -0.8508 -0.5255
vn -0.0001 -0.8243 -0.5661
vn -0.0000 -0.8087 -0.5882
vn -0.0001 -0.8351 -0.5501
vn -0.0000 -0.8131 -0.5821
vn -0.0000 -0.8351 -0.5501
vn -0.0000 -0.8658 -0.5005
vn -0.0000 -0.8422 -0.5392
vn -0.0000 -0.8243 -0.5662
vn -0.0000 -0.8016 -0.5978
vn -0.0000 -0.8094 -0.5873
vn -0.0000 -0.8089 -0.5879
vn -0.0000 -0.7899 -0.6133
vn -0.0000 -0.7654 -0.6435
vn -0.0000 -0.7705 -0.6374
vn -0.0000 -0.8860 -0.4636
vn -0.0000 -0.8869 -0.4620
vn -0.0001 -0.8936 -0.4489
vn -0.0000 -0.7610 -0.6487
vn -0.0000 -0.7583 -0.6519
vn -0.0001 -0.7360 -0.6770
vn -0.0000 -0.7175 -0.6966
vn -0.0000 -0.7359 -0.6771
vn -0.0000 -0.7269 -0.6868
vn -0.0000 -0.7267 -0.6869
vn -0.0000 -0.7464 -0.6655
vn -0.0000 -0.8008 -0.5990
vn -0.0000 -0.8188 -0.5741
vn -0.0000 -0.8997 -0.4366
vn -0.0000 -0.9181 -0.3964
vn -0.0000 -0.6991 -0.7150
vn -0.0000 -0.6798 -0.7334
vn -0.0000 -0.6822 -0.7311
vn -0.0000 -0.7340 -0.6791
vn -0.0000 -0.7065 -0.7077
vn -0.0000 -0.7613 -0.6484
vn -0.0000 -0.7465 -0.6654
vn -0.0000 -0.7131 -0.7011
vn -0.0000 -0.7471 -0.6647
vn -0.0000 -0.7886 -0.6150
vn -0.0000 -0.8017 -0.5977
vn -0.0000 -0.7839 -0.6208
vn -0.0000 -0.6952 -0.7188
vn -0.0000 -0.7367 -0.6762
vn -0.0000 -0.9061 -0.4230
vn -0.0000 -0.8934 -0.4492
vn -0.0000 -0.9194 -0.3934
vn -0.0000 -0.9293 -0.3694
vn -0.0000 -0.9168 -0.3994
vn -0.0000 -0.8352 -0.5500
vn -0.0000 -0.7840 -0.6207
vn -0.0000 -0.8797 -0.4756
vn -0.0000 -0.7885 -0.6150
vn -0.0000 -0.7065 -0.7078
vn -0.0000 -0.6855 -0.7281
vn -0.0000 -0.6851 -0.7284
vn -0.0000 -0.6840 -0.7295
vn -0.0000 -0.6855 -0.7280
vn 0.0001 -0.6687 -0.7435
vn 0.0001 -0.6855 -0.7280
vn -0.0000 -0.6689 -0.7434
vn -0.0000 -0.6768 -0.7362
vn -0.0000 -0.6767 -0.7362
vn -0.0000 -0.7064 -0.7078
vn -0.0000 -0.7341 -0.6791
vn -0.0000 -0.8935 -0.4491
vn -0.0000 -0.8008 -0.5989
vn -0.0001 -0.6798 -0.7334
vn -0.0000 -0.7131 -0.7010
vn -0.0000 -0.7839 -0.6209
vn -0.0000 -0.6688 -0.7435
vn -0.0000 -0.6688 -0.7434
vn 0.0001 -0.6774 -0.7356
vn -0.0000 -0.6731 -0.7395
vn -0.0000 -0.6731 -0.7396
vn -0.0000 -0.7035 -0.7107
vn -0.0000 -0.7840 -0.6208
s 1
usemtl Diffuse_51_51_51_100.020
f 1//1 2//1 3//1
f 1//1 3//1 4//1
f 1//1 4//1 5//1
f 1//1 5//1 6//1
f 7//1 1//1 8//1
f 1//1 6//1 8//1
f 9//1 1//1 7//1
f 10//1 1//1 9//1
f 10//1 11//1 1//1
f 11//1 12//2 1//1
f 12//2 13//1 1//1
f 13//1 14//1 1//1
f 14//1 15//1 1//1
s 0
f 1//1 16//1 17//1
s 1
f 18//1 2//1 1//1
f 19//1 2//1 18//1
f 19//1 18//1 20//1
f 19//1 20//1 21//1
f 20//1 22//1 21//1
f 22//1 23//1 21//1
f 24//1 23//1 22//1
f 25//1 23//1 24//1
f 25//1 24//1 26//1
f 25//1 26//1 27//1
f 26//1 28//1 27//1
f 28//1 29//1 27//1
f 30//1 29//1 28//1
f 31//1 29//1 30//1
f 32//1 31//1 33//1
f 31//1 30//1 33//1
f 32//1 33//1 34//1
f 35//1 36//1 37//1
f 36//1 38//1 37//1
f 39//2 40//1 41//1
f 40//1 42//3 41//1
f 42//3 43//1 41//1
f 43//1 44//1 41//1
f 45//2 44//1 46//1
f 47//1 44//1 45//2
f 43//1 46//1 44//1
f 48//1 46//1 43//1
f 49//1 46//1 48//1
f 50//1 49//1 48//1
f 47//1 51//1 44//1
f 49//1 50//1 35//1
f 50//1 36//1 35//1
f 38//1 32//1 34//1
f 38//1 34//1 37//1
s 0
f 16//1 1//1 15//4
s 1
f 52//5 53//5 54//5
f 52//5 54//5 55//5
f 52//5 55//5 56//5
f 52//5 56//5 57//5
f 58//5 59//5 57//5
f 60//5 61//5 59//5
f 62//5 61//5 60//5
f 63//5 64//5 62//5
f 65//5 64//5 63//5
f 66//5 65//5 67//5
f 66//5 67//5 68//5
f 69//5 68//5 70//5
f 71//5 70//5 72//5
f 71//5 72//5 73//5
f 74//5 75//5 76//5
f 77//5 74//5 78//5
f 77//5 78//5 79//5
f 80//5 81//5 82//5
f 81//5 79//5 82//5
f 83//5 82//5 84//5
s 0
f 82//5 85//6 86//5
f 82//5 86//5 87//5
s 1
f 88//5 82//5 89//5
f 88//5 90//5 82//5
f 90//5 91//5 82//5
f 82//5 92//5 93//5
f 82//5 93//5 94//5
f 82//5 94//5 95//5
f 82//5 95//5 96//5
f 84//5 82//5 97//5
f 82//5 96//5 97//5
f 91//5 92//5 82//5
f 89//5 82//5 87//5
f 83//5 80//5 82//5
f 79//5 81//5 77//5
f 76//5 78//5 74//5
f 98//5 76//5 75//5
f 98//5 75//5 73//5
f 98//5 73//5 72//5
f 70//5 71//5 69//5
f 68//5 69//5 66//5
f 63//5 67//5 65//5
f 60//5 59//5 58//5
f 61//5 62//5 64//5
f 99//5 57//5 100//5
f 101//5 99//5 102//5
f 58//5 57//5 56//5
f 57//5 99//5 52//5
f 100//5 102//5 99//5
f 103//7 104//7 105//7
f 106//7 107//7 108//7
f 109//8 110//7 111//8
f 105//8 112//7 109//8
f 111//7 113//7 114//7
f 115//9 116//10 117//1
f 118//11 119//12 115//9
f 120//13 118//11 121//14
f 120//13 121//14 122//15
f 123//16 122//15 124//17
f 123//16 124//17 125//18
f 125//18 126//19 127//20
f 126//19 128//21 127//20
f 128//21 129//22 130//23
f 129//22 131//24 130//23
f 132//25 133//26 131//24
f 134//27 133//26 132//25
f 135//28 136//29 134//27
f 137//30 136//29 135//28
f 138//31 137//30 139//32
f 140//33 141//34 142//35
f 141//34 143//35 142//35
f 144//36 141//34 140//33
f 144//36 140//33 145//37
f 144//36 145//37 146//38
f 146//38 145//37 147//39
f 146//38 147//39 148//40
f 147//39 138//31 148//40
f 138//31 139//32 148//40
f 137//30 135//28 139//32
f 136//29 133//26 134//27
f 132//25 131//24 129//22
f 128//21 130//23 127//20
f 123//16 120//13 122//15
f 124//17 126//19 125//18
f 116//10 115//9 119//12
f 149//41 117//1 116//10
f 150//42 117//1 149//41
f 151//43 150//42 149//41
f 152//44 150//42 151//43
f 152//44 153//45 154//46
f 153//45 155//47 154//46
f 156//48 157//49 155//47
f 158//50 156//48 159//51
f 158//50 160//52 161//53
f 162//54 163//55 161//53
f 164//56 163//55 165//57
f 166//58 167//59 168//60
f 169//61 166//58 170//62
f 167//59 171//63 168//60
f 172//64 173//65 174//66
f 172//64 174//66 175//67
f 173//65 176//68 177//69
f 176//68 178//70 177//69
f 178//70 179//71 177//69
f 180//72 181//73 179//71
f 181//73 180//72 182//74
f 181//73 182//74 183//75
f 183//75 184//76 185//77
f 184//76 186//78 185//77
f 186//78 187//79 185//77
f 187//79 188//80 189//81
f 188//80 190//82 189//81
f 191//83 190//82 188//80
f 192//84 193//85 191//83
f 194//86 193//85 192//84
f 194//86 192//84 195//87
f 166//58 164//56 170//62
f 196//88 194//86 197//89
f 165//57 163//55 162//54
f 198//90 196//88 199//91
f 196//88 197//89 199//91
f 200//92 198//90 201//93
f 161//53 160//52 162//54
f 200//92 201//93 202//94
f 160//52 158//50 159//51
f 203//95 200//92 204//96
f 156//48 158//50 157//49
f 203//95 204//96 205//97
f 154//46 155//47 157//49
f 203//95 205//97 206//98
f 153//45 152//44 151//43
f 175//67 168//60 171//63
f 207//99 208//100 206//98
f 207//99 209//101 208//100
f 209//101 210//102 211//103
f 210//102 212//104 211//103
f 213//105 212//104 210//102
f 214//106 215//107 212//104
f 216//108 215//107 214//106
f 217//109 218//110 216//108
f 219//111 218//110 217//109
f 220//112 219//111 221//113
f 220//112 221//113 222//114
f 223//115 220//112 224//116
f 223//115 224//116 225//117
f 226//118 225//117 227//119
f 228//120 229//121 230//122
f 228//120 230//122 231//123
f 232//124 233//125 234//126
f 235//127 228//120 236//128
f 237//129 238//130 239//131
f 240//132 241//133 242//134
f 243//135 244//136 245//137
f 246//138 247//139 248//140
f 249//141 250//142 251//143
f 252//144 253//145 254//146
f 255//147 256//148 257//149
f 258//150 259//151 256//148
f 259//151 260//152 261//153
f 260//152 262//154 263//155
f 262//154 264//156 265//157
f 264//156 266//158 267//159
f 198//90 199//91 201//93
f 197//89 194//86 195//87
f 143//35 268//160 142//35
f 269//161 268//160 143//35
f 270//162 268//160 269//161
f 270//162 269//161 267//159
f 264//156 267//159 265//157
f 262//154 265//157 263//155
f 260//152 263//155 261//153
f 259//151 261//153 256//148
f 258//150 256//148 255//147
f 255//147 257//149 252//144
f 257//149 253//145 252//144
f 253//145 250//142 254//146
f 250//142 249//141 254//146
f 251//143 271//163 249//141
f 272//164 271//163 251//143
f 272//164 251//143 248//140
f 272//164 248//140 247//139
f 247//139 246//138 273//165
f 246//138 274//166 273//165
f 274//166 243//135 273//165
f 244//136 243//135 274//166
f 275//167 245//137 244//136
f 275//167 244//136 276//168
f 275//167 276//168 277//169
f 276//168 241//133 277//169
f 241//133 240//132 277//169
f 242//134 278//170 240//132
f 279//171 278//170 242//134
f 280//172 278//170 279//171
f 280//172 279//171 238//130
f 279//171 239//131 238//130
f 239//131 281//173 237//129
f 281//173 282//174 237//129
f 283//175 282//174 281//173
f 284//176 282//174 283//175
f 284//176 283//175 234//126
f 284//176 234//126 233//125
f 234//126 285//177 232//124
f 285//177 286//178 232//124
f 287//179 286//178 285//177
f 288//180 286//178 287//179
f 288//180 287//179 289//181
f 288//180 289//181 290//182
f 289//181 235//127 290//182
f 235//127 236//128 290//182
f 226//118 227//119 229//121
f 231//123 236//128 228//120
f 227//119 230//122 229//121
f 223//115 225//117 226//118
f 220//112 222//114 224//116
f 219//111 217//109 221//113
f 218//110 215//107 216//108
f 214//106 212//104 213//105
f 209//101 211//103 208//100
f 205//97 207//99 206//98
f 200//92 202//94 204//96
f 270//162 267//159 266//158
f 190//82 191//83 193//85
f 189//81 185//77 187//79
f 184//76 183//75 182//74
f 178//70 180//72 179//71
f 174//66 173//65 177//69
f 175//67 171//63 172//64
f 167//59 166//58 169//61
f 121//14 118//11 115//9
f 165//57 170//62 164//56
f 291//183 292//183 293//183
f 294//183 295//183 296//183
f 297//184 298//183 299//183
f 300//183 297//183 301//183
f 298//183 291//185 302//183
f 303//186 304//186 305//186
f 306//186 307//186 308//186
f 309//186 310//186 311//186
f 312//186 313//186 314//186
f 315//187 316//187 317//187
f 318//186 319//186 320//186
f 321//186 322//186 323//186
f 324//186 325//186 326//186
f 327//186 328//186 329//186
f 330//186 331//186 332//186
f 333//187 334//187 335//187
f 336//186 337//186 338//186
f 339//186 340//186 341//186
f 342//186 343//186 344//186
f 345//187 346//187 347//187
f 348//186 349//186 350//186
f 351//186 352//186 353//186
f 354//187 355//187 356//187
f 357//186 358//186 359//186
f 360//186 361//186 362//186
f 363//188 364//188 365//188
f 366//186 367//186 368//186
f 369//189 370//189 371//189
f 372//186 373//186 374//186
f 375//189 376//189 377//189
f 378//186 379//186 380//186
f 381//189 382//189 383//189
f 384//186 385//186 386//186
f 387//186 388//186 389//186
f 390//186 391//186 392//186
f 393//186 394//186 395//186
f 396//186 397//186 398//186
f 399//186 400//186 401//186
f 402//186 403//186 404//186
f 405//186 406//186 407//186
f 408//186 409//186 410//186
f 411//186 412//186 413//186
f 414//186 415//186 416//186
f 417//186 418//186 419//186
f 420//186 421//186 422//186
f 423//186 424//186 425//186
f 426//186 427//186 428//186
f 429//186 430//186 431//186
f 432//186 433//186 434//186
f 435//186 436//186 437//186
f 438//186 439//186 440//186
f 441//186 442//186 443//186
f 444//186 445//186 446//186
f 447//186 448//186 449//186
f 450//186 451//186 452//186
f 453//186 454//186 455//186
f 456//186 457//186 458//186
f 459//186 460//186 461//186
f 462//186 463//186 464//186
f 465//186 466//186 467//186
f 468//186 469//186 470//186
f 471//186 472//186 473//186
f 474//187 475//187 476//187
f 477//188 478//188 479//188
f 480//186 481//186 482//186
f 483//186 484//186 485//186
f 486//186 487//186 488//186
f 489//186 490//186 491//186
f 492//186 493//186 494//186
f 495//186 496//186 497//186
f 498//188 499//188 500//188
f 501//186 502//186 503//186
f 504//186 505//186 506//186
f 507//186 508//186 509//186
f 510//186 511//186 512//186
f 513//186 514//186 515//186
f 516//186 517//186 518//186
f 519//186 520//186 521//186
f 522//186 523//186 524//186
f 525//186 526//186 527//186
f 528//186 529//186 530//186
f 531//186 532//186 533//186
f 534//186 535//186 536//186
f 537//186 538//186 539//186
f 540//186 541//186 542//186
f 543//186 544//186 545//186
f 546//186 547//186 548//186
f 549//186 550//186 551//186
f 552//186 553//186 554//186
f 555//190 556//191 557//192
f 555//190 558//193 556//191
f 559//194 560//195 561//196
f 559//194 562//197 563//198
f 564//199 565//200 566//201
f 564//199 562//197 567//202
f 564//199 567//202 568//203
f 562//197 561//196 569//204
f 570//205 563//198 571//206
f 570//205 558//193 560//195
f 570//205 571//206 556//191
f 563//198 572//207 571//206
f 569//204 561//196 573//208
f 569//204 567//202 562//197
f 574//209 575//210 576//211
f 574//209 577//212 575//210
f 578//213 579//214 580//215
f 578//213 581//216 582//217
f 583//218 584//219 585//208
f 583//218 580//215 586//220
f 580//215 587//221 586//220
f 580//215 579//214 587//221
f 579//214 588//222 589//223
f 579//192 590//217 591//224
f 592//225 593//226 594//227
f 592//225 595//228 596//229
f 597//230 598//231 599//232
f 597//230 600//233 598//231
f 594//227 601//228 592//225
f 594//227 602//234 603//235
f 604//236 605//237 606//234
f 604//236 575//210 607//238
f 605//237 588//222 608//222
f 605//237 607//238 588//222
f 592//225 596//229 593//226
f 595//228 557//192 609//228
f 596//229 610//239 593//226
f 596//229 609//228 611//240
f 611//240 589//223 588//222
f 611//240 609//228 589//223
f 589//223 587//221 579//214
f 589//223 609//228 612//241
f 557//192 613//242 612//241
f 557//192 556//191 613//242
f 612//241 609//228 557//192
f 612//241 614//243 587//221
f 614//243 615//244 586//220
f 614//243 613//242 571//206
f 600//233 593//226 616//245
f 594//227 597//230 617//246
f 618//247 577//212 619//248
f 618//247 607//238 575//210
f 577//212 574//209 620//249
f 618//247 619//248 610//239
f 621//250 622//251 623//252
f 621//250 619//248 622//251
f 616//245 593//226 610//239
f 616//245 598//231 600//233
f 568//203 567//202 624//253
f 568//203 625//254 565//200
f 558//193 601//228 626//224
f 601//228 555//190 595//228
f 559//194 561//196 562//197
f 560//195 627//217 628//216
f 562//197 564//199 563//198
f 566//201 629//255 572//207
f 291//185 620//249 630//251
f 291//185 298//183 620//249
f 620//249 574//209 631//211
f 620//249 298//183 622//251
f 604//236 607//238 605//237
f 575//210 577//212 618//247
f 297//184 623//252 298//183
f 623//252 598//231 621//250
f 623//252 297//184 632//251
f 633//256 584//219 634//257
f 633//256 635//258 636//259
f 629//255 615//244 572//207
f 629//255 634//257 584//219
f 586//220 587//221 614//243
f 637//216 578//260 638//261
f 633//256 634//257 639//262
f 584//219 586//220 629//255
f 640//263 569//264 641//265
f 572//207 564//199 566//201
f 571//206 572//207 615//244
f 570//205 556//191 558//193
f 568//203 565//200 564//199
f 625//254 642//254 565//200
f 563//198 564//199 572//207
f 565//200 643//254 634//257
f 571//206 615//244 614//243
f 566//201 565//200 634//257
f 621//250 616//245 619//248
f 598//231 644//211 645//232
f 577//212 622//251 619//248
f 620//249 622//251 577//212
f 610//239 619//248 616//245
f 610//239 596//229 611//240
f 584//219 583//218 586//220
f 611//240 607//238 610//239
f 588//222 607//238 611//240
f 607//238 618//247 610//239
f 597//230 593//226 600//233
f 595//228 555//190 557//192
f 598//231 616//245 621//250
f 592//225 601//228 595//228
f 595//228 609//228 596//229
f 589//223 612//241 587//221
f 586//220 615//244 629//255
f 614//243 612//241 613//242
f 569//264 646//266 647//265
f 560//195 559//194 570//205
f 601//228 558//193 555//190
f 556//191 571//206 613//242
f 634//257 648//267 649//268
f 650//253 651//269 568//203
f 652//246 653//270 604//236
f 623//252 622//251 298//183
f 654//224 655//228 579//192
f 656//271 601//228 594//227
f 657//262 633//256 658//269
f 659//261 561//272 660//216
f 661//273 662//269 663//274
f 664//275 665//276 666//269
f 667//268 668//269 669//277
f 670//277 671//269 672//253
f 633//256 673//277 674//278
f 633//256 675//259 676//277
f 677//278 678//279 633//256
f 679//258 633//280 680//281
f 681//208 682//261 583//282
f 683//217 579//214 578//213
f 583//218 578//213 580//215
f 684//208 561//272 685//261
f 588//222 579//214 686//222
f 563//198 570//205 559//194
f 687//262 634//257 688//283
f 689//283 634//257 690//258
f 691//269 692//254 568//203
f 693//259 694//284 634//257
f 695//279 696//208 584//219
f 629//255 566//201 634//257
f 634//285 697//254 698//286
f 699//268 700//277 634//257
f 568//203 701//254 625//254
f 702//259 634//257 703//277
f 704//253 567//202 569//204
f 705//269 633//256 706//262
f 707//235 708//234 605//227
f 558//193 709//224 560//195
f 710//287 711//235 605//227
f 712//217 560//195 713//224
f 604//288 714//234 715//246
f 716//287 594//227 717//235
f 718//251 719//211 623//252
f 720//289 721//251 297//183
f 623//252 722//290 598//231
f 723//246 597//230 724//232
f 291//183 725//251 726//289
f 727//246 728//234 594//227
f 729//251 620//249 730//290
f 593//226 597//230 594//227
f 731//232 732//290 575//210
f 604//236 733//232 575//210
f 734//224 601//228 735//222
f 736//291 561//196 560//195
f 737//292 633//256 738//262
f 633//256 739//265 584//219
f 740//269 741//254 742//254
f 578//213 583//218 743//261
f 744//254 745//254 746//293
f 747//294 748//295 749//296
f 750//297 751//298 752//254
f 753//297 754//299 755//298
f 756//300 757//299 758//301
f 759//302 760//303 761//301
f 762//302 763//304 764//305
f 765//306 766//307 767//308
f 768//307 769//309 770//310
f 771//311 772//312 773//313
f 774//312 775//314 776//315
f 777//316 778//317 779//318
f 780//318 781//317 782//319
f 783//320 784//321 785//322
f 786//323 787//320 788//324
f 789//325 790//323 791//326
f 792//327 793//328 794//329
f 795//330 796//330 797//331
f 798//331 799//330 800//332
f 801//332 802//330 803//333
f 804//334 805//332 806//333
f 807//335 808//336 809//333
f 810//337 811//338 812//339
f 813//340 814//337 815//339
f 816//340 817//341 818//337
f 819//342 820//343 821//344
f 822//340 823//345 824//346
f 825//346 826//347 827//348
f 828//349 829//328 830//350
f 831//348 832//349 833//351
f 834//351 835//329 836//352
f 837//353 838//354 839//355
f 840//356 841//353 842//357
f 843//358 844//359 845//360
f 846//361 847//362 848//356
f 849//363 850//358 851//360
f 852//323 853//325 854//364
f 855//324 856//326 857//323
f 858//365 859//324 860//366
f 861//319 862//322 863//318
f 864//367 865//316 866//314
f 867//315 868//368 869//312
f 870//313 871//309 872//369
f 873//368 874//310 875//370
f 876//310 877//304 878//307
f 879//304 880//302 881//306
f 882//356 883//362 884//353
f 885//351 886//348 887//347
f 888//371 889//372 890//373
f 888//371 891//374 889//372
f 892//375 893//376 894//377
f 892//375 895//378 896//379
f 892//375 896//379 893//376
f 895//378 897//380 898//381
f 899//382 898//381 900//383
f 899//382 901//384 896//379
f 898//381 897//380 900//383
f 898//381 896//379 895//378
f 902//385 903//386 904//387
f 902//385 905//388 906//366
f 907//389 908//390 909//391
f 907//389 910//392 908//390
f 911//393 912//394 913//395
f 911//393 914//396 915//397
f 912//394 916//398 913//395
f 912//394 915//397 917//399
f 918//400 919//401 920//402
f 918//400 921//403 922//404
f 921//403 923//405 924//406
f 921//403 925//407 926//408
f 927//409 928//410 929//411
f 927//409 891//374 930//412
f 931//413 932//414 933//415
f 931//413 934//416 935//417
f 905//418 936//318 937//320
f 905//388 932//414 938//316
f 932//414 904//387 939//419
f 905//418 940//316 941//318
f 934//420 942//313 943//315
f 934//416 894//377 944//368
f 945//421 946//422 947//423
f 945//421 948//424 917//399
f 945//421 917//399 946//422
f 948//424 949//425 950//426
f 951//427 949//425 952//428
f 951//427 950//426 949//425
f 917//399 915//397 946//422
f 917//399 950//426 916//398
f 948//424 950//426 917//399
f 917//399 916//398 912//394
f 953//429 951//427 952//428
f 954//393 955//430 956//431
f 954//393 957//432 926//408
f 958//433 959//434 908//390
f 958//433 960//347 959//434
f 961//435 962//436 963//437
f 961//435 908//390 910//392
f 964//438 965//363 966//439
f 964//438 967//440 968//441
f 967//440 969//442 970//443
f 967//440 971//444 972//445
f 973//446 955//430 925//407
f 973//446 974//447 975//448
f 974//447 970//443 969//442
f 974//447 976//449 977//450
f 970//443 968//441 967//440
f 970//443 977//450 978//451
f 979//452 980//453 981//454
f 979//452 893//376 982//455
f 947//423 983//456 945//421
f 947//423 959//434 984//340
f 985//457 986//458 987//459
f 985//460 988//461 989//462
f 986//458 990//463 991//464
f 986//465 992//466 993//467
f 994//468 995//469 996//470
f 994//468 930//412 997//471
f 995//469 990//463 998//472
f 995//469 997//471 999//473
f 1000//474 1001//475 1002//476
f 1000//474 1003//477 1004//478
f 1005//479 968//441 978//451
f 1005//479 1002//476 965//363
f 1001//475 1006//480 1007//481
f 1001//475 1004//478 1006//480
f 1008//482 1009//483 1010//360
f 1008//482 1011//484 966//439
f 1008//482 966//439 1009//483
f 1011//484 1012//485 966//439
f 975//448 956//431 955//430
f 975//448 969//442 909//391
f 991//464 999//473 1003//477
f 991//464 987//459 986//458
f 999//473 997//471 1004//478
f 999//473 990//463 995//469
f 953//429 957//432 913//395
f 953//429 952//428 1013//486
f 926//408 925//407 955//430
f 926//408 1013//486 923//405
f 1013//486 952//428 1014//487
f 1013//486 957//432 953//429
f 1013//486 1014//487 923//405
f 952//428 1015//330 1016//331
f 1017//488 908//390 959//434
f 1017//488 915//397 914//396
f 945//421 983//456 948//424
f 946//422 959//434 947//423
f 918//400 925//407 921//403
f 920//402 1018//489 976//449
f 1018//489 987//459 977//450
f 1018//489 919//401 985//457
f 894//377 981//454 1019//310
f 894//377 933//415 892//375
f 981//454 980//453 1020//304
f 981//454 893//376 979//452
f 909//391 914//396 956//431
f 909//391 972//445 907//389
f 911//393 915//397 912//394
f 914//396 908//390 1017//488
f 1021//490 980//453 1022//491
f 1021//490 1023//254 1024//298
f 1021//490 1022//491 1025//492
f 980//453 982//455 1026//493
f 1022//491 1026//493 1027//494
f 980//453 1021//490 1028//303
f 1029//495 889//372 1030//496
f 1029//495 1031//497 1032//498
f 1033//499 1034//500 1031//497
f 1033//499 1035//501 1036//502
f 978//451 977//450 987//459
f 978//451 968//441 970//443
f 977//450 976//449 1018//489
f 975//448 974//447 969//442
f 980//453 1026//493 1022//491
f 982//455 901//384 1026//493
f 1004//478 1037//318 1006//480
f 1004//478 1003//477 999//473
f 1037//318 1038//503 1039//504
f 1037//318 997//471 930//412
f 964//438 971//444 967//440
f 965//363 1040//505 966//439
f 967//440 972//445 969//442
f 971//444 966//439 1012//485
f 1041//506 1006//480 1037//318
f 1041//506 900//383 897//380
f 899//382 1042//507 1043//508
f 900//383 1039//504 1044//509
f 890//373 1032//498 1042//507
f 890//373 1038//503 888//371
f 1032//498 1031//497 1043//508
f 1032//498 889//372 1029//495
f 1012//485 907//389 972//445
f 910//392 962//436 961//435
f 1012//485 1011//484 962//436
f 1012//485 972//445 971//444
f 1044//509 1039//504 1038//503
f 1044//509 1042//507 900//383
f 1045//510 897//380 939//419
f 1045//510 1007//481 1006//480
f 1007//481 1040//505 1002//476
f 1007//481 904//387 903//386
f 927//409 930//412 994//468
f 930//412 888//371 1038//503
f 994//468 997//471 995//469
f 930//412 1038//503 1037//318
f 1009//483 903//386 1046//323
f 1009//483 966//439 1040//505
f 902//385 904//387 932//414
f 903//386 1040//505 1007//481
f 923//405 1014//487 1047//511
f 1013//486 926//408 957//432
f 1014//512 1048//513 1049//514
f 1014//515 1050//516 1051//513
f 1045//510 904//387 1007//481
f 931//413 933//415 894//377
f 1043//508 1042//507 1032//498
f 1043//508 901//384 899//382
f 1027//494 625//295 1022//491
f 1027//494 1031//497 1034//500
f 1033//499 1031//497 1029//495
f 1034//500 625//295 1027//494
f 1042//507 899//382 900//383
f 895//378 892//375 933//415
f 896//379 982//455 893//376
f 1026//493 1043//508 1027//494
f 894//377 893//376 981//454
f 933//415 939//419 895//378
f 1017//488 946//422 915//397
f 959//434 1052//347 1053//340
f 983//517 1054//333 1055//330
f 959//434 946//422 1017//488
f 913//395 916//398 953//429
f 911//393 956//431 914//396
f 975//448 955//430 973//446
f 955//430 954//393 926//408
f 962//436 1011//484 1008//482
f 1012//485 910//392 907//389
f 962//436 910//392 1012//485
f 975//448 909//391 956//431
f 908//390 914//396 909//391
f 956//431 911//393 913//395
f 918//400 920//402 925//407
f 925//407 920//402 976//449
f 923//405 921//403 926//408
f 925//407 976//449 973//446
f 951//427 953//429 916//398
f 957//432 954//393 913//395
f 978//451 991//464 1003//477
f 995//469 1056//472 1057//518
f 964//438 968//441 965//363
f 976//449 974//447 973//446
f 1009//483 1040//505 903//386
f 1005//479 965//363 968//441
f 966//439 971//444 964//438
f 972//445 909//391 969//442
f 919//401 1018//489 920//402
f 1005//479 978//451 1000//474
f 954//393 956//431 913//395
f 974//447 977//450 970//443
f 1003//477 1000//474 978//451
f 1002//476 1040//505 965//363
f 1002//476 1005//479 1000//474
f 1058//519 994//468 1059//520
f 1000//474 1004//478 1001//475
f 1060//521 995//469 1061//522
f 1041//506 1045//510 1006//480
f 902//385 932//414 905//388
f 1007//481 1002//476 1001//475
f 1062//356 1008//523 1063//364
f 1045//510 1041//506 897//380
f 1032//498 890//373 889//372
f 899//382 896//379 898//381
f 1064//417 932//414 931//413
f 900//383 1041//506 1039//504
f 1065//320 903//386 902//385
f 1044//509 890//373 1042//507
f 889//372 891//374 1066//524
f 1037//318 1039//504 1041//506
f 1067//525 891//374 1068//526
f 1027//494 1043//508 1031//497
f 1069//310 981//527 1070//304
f 901//384 1043//508 1026//493
f 1071//528 1033//499 1072//502
f 1073//333 983//456 1074//340
f 1075//516 952//428 1076//529
f 1077//351 1078//347 958//530
f 1079//406 1080//531 921//403
f 939//419 904//387 1045//510
f 1081//532 985//457 919//401
f 982//455 896//379 901//384
f 1082//470 1083//533 994//534
f 1022//491 625//295 1084//276
f 1085//368 1086//535 891//536
f 1087//293 1088//254 1034//500
f 1034//500 1089//276 625//295
f 1090//537 1091//293 1034//500
f 1092//538 1093//539 1034//500
f 1033//499 1094//540 1034//500
f 1033//499 1095//541 1096//538
f 1044//509 1038//503 890//373
f 1029//495 1097//496 1033//499
f 1033//499 1098//542 1099//501
f 889//372 1100//535 1101//496
f 888//371 930//412 891//374
f 903//543 1102//320 1103//323
f 1037//318 1004//478 997//471
f 897//380 895//378 939//419
f 927//409 1104//526 891//374
f 927//544 1105//545 1106//526
f 1107//360 1009//483 1108//323
f 1109//519 927//409 994//468
f 1110//355 962//436 1111//356
f 991//464 978//451 987//459
f 962//436 1008//482 1112//356
f 1018//489 985//457 987//459
f 1113//351 961//435 1114//329
f 990//463 986//458 1115//472
f 947//423 1116//340 983//456
f 986//458 985//457 1117//466
f 961//435 1118//351 958//433
f 1119//546 985//460 1120//532
f 961//435 958//433 908//390
f 1121//547 918//400 1122//404
f 948//424 1123//425 949//425
f 1124//330 952//428 949//425
f 1125//548 1126//404 921//403
f 952//428 1127//516 1014//487
f 951//427 916//398 950//426
f 1128//549 1129//550 1014//515
f 1014//515 1130//550 1131//511
f 1132//393 923//551 1133//552
f 1134//393 1135//406 923//405
f 1136//553 948//424 983//456
f 918//400 1137//547 919//401
f 1138//547 1139//532 919//401
f 1140//467 1141//554 986//465
f 999//473 991//464 990//463
f 932//414 939//419 933//415
f 979//452 982//455 980//453
f 1142//298 1143//304 980//453
f 1144//555 1145//368 894//556
f 931//413 894//377 934//416
f 1146//557 1147//558 1148//559
f 1146//557 1149//560 1147//558
f 1150//561 1151//562 1152//563
f 1150//561 949//330 1153//564
f 1154//565 1155//566 1156//567
f 1154//565 1157//568 1158//569
f 1159//570 1160//571 1161//572
f 1159//570 1149//560 1160//571
f 1162//573 1163//574 1164//575
f 1162//573 1165//576 1166//577
f 1167//578 1168//579 1169//580
f 1167//578 1166//577 1170//581
f 1166//577 1165//576 1171//576
f 1166//577 1163//574 1162//573
f 1172//582 1173//583 1174//584
f 1172//582 1175//581 1176//585
f 1173//583 1177//586 1174//584
f 1173//575 1178//585 1179//587
f 1180//588 1160//571 1181//589
f 1180//588 1182//590 1183//591
f 1182//590 1164//575 1184//592
f 1182//590 1180//588 1162//573
f 1164//575 1185//593 1186//594
f 1164//575 1163//574 1185//593
f 1186//594 1187//595 1184//592
f 1186//594 1174//584 1177//586
f 1187//595 1188//596 1189//597
f 1187//595 1177//586 1190//598
f 1183//591 1191//571 1160//571
f 1183//591 1184//592 1189//597
f 1189//597 1184//592 1187//595
f 1189//597 1191//571 1183//591
f 1192//599 1193//600 1161//572
f 1192//599 1188//596 1194//601
f 1167//578 1163//574 1166//577
f 1169//580 1195//602 1163//574
f 1196//603 1156//567 1155//566
f 1196//603 1197//604 1156//567
f 1196//603 1155//566 1174//584
f 1156//567 1157//568 1154//565
f 1198//605 1161//572 1199//606
f 1198//605 1200//607 1147//558
f 1200//607 1201//608 1202//609
f 1200//607 1203//610 1153//564
f 1202//609 1147//558 1200//607
f 1202//609 1204//611 1205//612
f 1181//589 1165//576 1180//588
f 1181//589 1206//613 1207//614
f 1149//560 1146//557 1206//613
f 1198//605 1159//570 1161//572
f 1208//615 1209//616 1197//604
f 1208//615 1195//602 1168//579
f 1195//602 1169//580 1168//579
f 1195//602 1197//604 1185//593
f 1210//617 1211//618 1212//619
f 1210//617 1213//620 1214//621
f 1213//620 1215//622 1216//623
f 1213//620 1217//624 1218//625
f 1190//598 1177//586 1219//614
f 1190//598 1188//596 1187//595
f 1220//626 1215//622 1194//601
f 1220//626 1221//627 1222//628
f 1223//629 949//330 1224//330
f 1223//629 1153//564 949//330
f 1161//572 1191//571 1192//599
f 1161//572 1160//571 1191//571
f 1153//564 1223//629 1201//608
f 1153//564 1203//610 1151//562
f 1203//610 1199//606 1225//630
f 1149//560 1159//570 1147//558
f 1225//630 1151//562 1203//610
f 1225//630 1218//625 1217//624
f 1194//601 1188//596 1220//626
f 1194//601 1218//625 1193//600
f 1225//630 1217//624 1151//562
f 1218//625 1215//622 1213//620
f 111//8 1157//568 109//8
f 1209//616 1156//567 1197//604
f 1157//568 111//8 1226//616
f 1196//603 1174//584 1185//593
f 1155//566 1227//631 1228//632
f 105//8 1229//633 1230//616
f 105//8 109//8 1229//633
f 1229//633 1168//579 1231//631
f 1229//633 109//8 1209//616
f 1167//578 1169//580 1163//574
f 1195//602 1208//615 1197//604
f 1232//616 111//7 1233//634
f 1168//579 1229//633 1208//615
f 1234//631 1157//635 1235//616
f 1185//593 1197//604 1196//603
f 1185//593 1163//574 1195//602
f 1164//575 1186//594 1184//592
f 1177//592 1236//636 1237//614
f 1174//584 1186//594 1185//593
f 1238//636 1173//577 1239//587
f 1206//613 1146//557 1240//637
f 1149//560 1181//589 1160//571
f 1182//590 1162//573 1164//575
f 1166//577 1241//636 1242//587
f 1183//591 1182//590 1184//592
f 1243//632 1167//638 1244//581
f 1192//599 1189//597 1188//596
f 1162//573 1180//588 1165//576
f 1220//626 1188//596 1190//598
f 1192//599 1194//601 1193//600
f 1189//597 1192//599 1191//571
f 1245//559 1220//639 1246//628
f 1202//609 1201//608 1247//640
f 1198//605 1147//558 1159//570
f 1201//608 1223//629 1248//641
f 1150//561 1153//564 1151//562
f 1201//608 1200//607 1153//564
f 1225//630 1193//600 1218//625
f 1199//606 1161//572 1193//600
f 1165//576 1181//589 1249//614
f 1217//624 1250//642 1251//643
f 1217//624 1252//644 1253//642
f 1225//630 1199//606 1193//600
f 1254//623 1255//559 1202//609
f 1160//571 1180//588 1183//591
f 1157//568 1209//616 109//8
f 1203//610 1198//605 1199//606
f 1256//636 1177//586 1173//583
f 1257//619 1217//624 1258//643
f 1259//559 1215//622 1220//626
f 1260//330 1261//330 1262//641
f 1263//641 1264//330 1265//645
f 1266//563 1267//646 1268//647
f 1269//563 1270//648 1210//617
f 1271//649 1272//618 1210//617
f 1273//642 1210//617 1274//643
f 1217//624 1213//620 1210//617
f 1275//642 1276//641 1210//617
f 1277//650 1213//620 1278//611
f 1215//622 1218//625 1194//601
f 1279//612 1280//611 1213//651
f 1165//592 1281//614 1282//636
f 1177//586 1187//595 1186//594
f 1283//587 1284//585 1166//577
f 1190//598 1285//614 1286//627
f 1149//560 1206//613 1181//589
f 1172//582 1155//566 1287//632
f 1209//616 1208//615 1229//633
f 1154//565 1288//569 1155//566
f 1289//581 1172//582 1290//652
f 105//7 1291//616 1292//634
f 1172//582 1293//585 1173//583
f 1294//616 1229//633 1295//569
f 1157//568 1156//567 1209//616
f 1296//632 1168//579 1167//578
f 1190//598 1297//627 1220//626
f 1298//614 1206//653 1299//627
f 1300//654 1217//655 1301//619
f 1302//656 1146//557 1303//559
f 1304//650 1201//608 1305//641
f 1306//641 1223//629 1307//330
f 1202//609 1308//559 1147//558
f 949//330 1150//561 1309//330
f 1310//330 1150//561 1311//657
f 1312//658 1150//659 1313//660
f 1314//661 1151//562 1315//649
f 1316//649 1151//662 1317//618
f 1203//610 1200//607 1198//605
f 1318//650 1319//611 1202//609
f 1206//613 1320//663 1321//627
f 1322//632 1323//569 1168//579
f 1174//584 1155//566 1172//582
f 1324//585 1325//581 1166//577
f 1217//624 1210//617 1326//641
f 1327//559 1328//623 1215//622
f 1329//621 1330//641 1210//617
f 1210//617 1331//619 1332//643
f 1151//562 1217//624 1333//618
f 1210//617 1334//641 1335//563
