# Blender 4.4.3
# www.blender.org
mtllib Mesh_20.011.mtl
o Mesh_20.011
v -0.000150 0.008710 -0.009952
v -0.000150 0.008710 -0.009943
v -0.000150 0.008716 -0.009937
v -0.000150 0.008773 -0.009952
v -0.000150 0.008721 -0.009930
v -0.000150 0.008726 -0.009924
v -0.000150 0.008732 -0.009919
v -0.000150 0.008738 -0.009913
v -0.000150 0.008773 -0.009914
v -0.000150 0.008744 -0.009908
v -0.000150 0.008750 -0.009902
v -0.000150 0.008756 -0.009897
v -0.000150 0.008710 -0.009943
v -0.000065 0.008710 -0.009943
v -0.000065 0.008714 -0.009939
v -0.000150 0.008716 -0.009937
v -0.000150 0.008710 -0.009943
v -0.000065 0.008717 -0.009935
v -0.000150 0.008716 -0.009937
v -0.000150 0.008721 -0.009930
v -0.000150 0.008716 -0.009937
v -0.000150 0.008721 -0.009930
v -0.000065 0.008720 -0.009931
v -0.000065 0.008723 -0.009927
v -0.000150 0.008721 -0.009930
v -0.000150 0.008726 -0.009924
v -0.000150 0.008721 -0.009930
v -0.000065 0.008727 -0.009924
v -0.000065 0.008730 -0.009920
v -0.000150 0.008726 -0.009924
v -0.000150 0.008726 -0.009924
v -0.000150 0.008726 -0.009924
v -0.000150 0.008732 -0.009919
v -0.000150 0.008732 -0.009919
v -0.000065 0.008734 -0.009917
v -0.000150 0.008738 -0.009913
v -0.000150 0.008732 -0.009919
v -0.000065 0.008738 -0.009913
v -0.000150 0.008738 -0.009913
v -0.000065 0.008741 -0.009910
v -0.000150 0.008738 -0.009913
v -0.000150 0.008738 -0.009913
v -0.000150 0.008744 -0.009908
v -0.000150 0.008744 -0.009908
v -0.000065 0.008745 -0.009906
v -0.000150 0.008750 -0.009902
v -0.000147 0.008756 -0.009897
v -0.000150 0.008756 -0.009897
v -0.000150 0.008750 -0.009902
v -0.000150 0.008744 -0.009908
v -0.000150 0.008750 -0.009902
v -0.000143 0.008756 -0.009897
v -0.000065 0.008749 -0.009903
v -0.000150 0.008750 -0.009902
v -0.000140 0.008756 -0.009897
v -0.000150 0.008750 -0.009902
v -0.000136 0.008756 -0.009897
v -0.000150 0.008750 -0.009902
v -0.000133 0.008757 -0.009897
v -0.000065 0.008753 -0.009900
v -0.000130 0.008757 -0.009896
v -0.000123 0.008759 -0.009895
v -0.000127 0.008758 -0.009896
v -0.000100 0.008769 -0.009888
v -0.000102 0.008767 -0.009889
v -0.000065 0.008765 -0.009891
v -0.000065 0.008769 -0.009888
v -0.000105 0.008766 -0.009890
v -0.000108 0.008764 -0.009891
v -0.000065 0.008761 -0.009894
v -0.000111 0.008763 -0.009892
v -0.000114 0.008762 -0.009893
v -0.000065 0.008757 -0.009897
v -0.000117 0.008761 -0.009894
v -0.000120 0.008760 -0.009894
v -0.000150 0.008750 -0.009902
v -0.000150 0.008750 -0.009902
v -0.000065 0.008834 -0.009887
v -0.000087 0.008803 -0.009887
v -0.000065 0.008772 -0.009887
v -0.000095 0.008775 -0.009887
v -0.000097 0.008772 -0.009887
v -0.000093 0.008779 -0.009887
v -0.000091 0.008783 -0.009887
v -0.000090 0.008787 -0.009887
v -0.000089 0.008791 -0.009887
v -0.000088 0.008795 -0.009887
v -0.000088 0.008799 -0.009887
v -0.000088 0.008807 -0.009887
v -0.000088 0.008811 -0.009887
v -0.000089 0.008815 -0.009887
v -0.000090 0.008819 -0.009887
v -0.000091 0.008823 -0.009887
v -0.000095 0.008831 -0.009887
v -0.000097 0.008834 -0.009887
v -0.000093 0.008827 -0.009887
v -0.000150 0.008856 -0.009902
v -0.000147 0.008850 -0.009897
v -0.000143 0.008850 -0.009897
v -0.000140 0.008850 -0.009897
v -0.000137 0.008850 -0.009897
v -0.000133 0.008849 -0.009897
v -0.000065 0.008868 -0.009913
v -0.000065 0.008872 -0.009917
v -0.000150 0.008868 -0.009913
v -0.000065 0.008879 -0.009924
v -0.000150 0.008880 -0.009924
v -0.000065 0.008876 -0.009920
v -0.000065 0.008883 -0.009927
v -0.000150 0.008885 -0.009930
v -0.000150 0.008850 -0.009897
v -0.000150 0.008895 -0.009943
v -0.000065 0.008892 -0.009939
v -0.000065 0.008895 -0.009943
v -0.000150 0.008890 -0.009937
v -0.000065 0.008889 -0.009935
v -0.000065 0.008886 -0.009931
v -0.000150 0.008874 -0.009919
v -0.000065 0.008865 -0.009910
v -0.000150 0.008862 -0.009908
v -0.000065 0.008861 -0.009906
v -0.000130 0.008849 -0.009896
v -0.000065 0.008857 -0.009903
v -0.000127 0.008848 -0.009896
v -0.000065 0.008853 -0.009900
v -0.000123 0.008847 -0.009895
v -0.000120 0.008846 -0.009894
v -0.000065 0.008849 -0.009897
v -0.000114 0.008844 -0.009893
v -0.000111 0.008843 -0.009892
v -0.000065 0.008845 -0.009894
v -0.000065 0.008837 -0.009888
v -0.000065 0.008841 -0.009891
v -0.000100 0.008837 -0.009888
v -0.000102 0.008839 -0.009889
v -0.000105 0.008840 -0.009890
v -0.000108 0.008842 -0.009891
v -0.000117 0.008845 -0.009894
v -0.000150 0.008833 -0.009914
v -0.000150 0.008868 -0.009913
v -0.000150 0.008833 -0.009952
v -0.000150 0.008850 -0.009897
v -0.000150 0.008856 -0.009902
v -0.000150 0.008856 -0.009902
v -0.000150 0.008862 -0.009908
v -0.000150 0.008862 -0.009908
v -0.000150 0.008868 -0.009913
v -0.000150 0.008868 -0.009913
v -0.000150 0.008874 -0.009919
v -0.000150 0.008874 -0.009919
v -0.000150 0.008880 -0.009924
v -0.000150 0.008880 -0.009924
v -0.000150 0.008885 -0.009930
v -0.000150 0.008895 -0.009943
v -0.000150 0.008895 -0.009952
v -0.000150 0.008890 -0.009937
v -0.000150 0.008885 -0.009930
v -0.000150 0.008890 -0.009937
v -0.000150 0.008890 -0.009937
v -0.000065 0.008845 -0.009894
v -0.000065 0.008834 -0.009887
v -0.000065 0.008772 -0.009887
v -0.000065 0.008761 -0.009894
v -0.000065 0.008772 -0.009887
v -0.000065 0.008765 -0.009891
v -0.000065 0.008772 -0.009887
v -0.000065 0.008771 -0.009887
v -0.000065 0.008769 -0.009888
v -0.000065 0.008770 -0.009887
v -0.000065 0.008769 -0.009888
v -0.000065 0.008770 -0.009887
v -0.000065 0.008769 -0.009888
v -0.000065 0.008772 -0.009887
v -0.000065 0.008769 -0.009888
v -0.000065 0.008765 -0.009891
v -0.000065 0.008845 -0.009894
v -0.000065 0.008772 -0.009887
v -0.000065 0.008761 -0.009894
v -0.000065 0.008845 -0.009894
v -0.000065 0.008761 -0.009894
v -0.000065 0.008849 -0.009897
v -0.000065 0.008761 -0.009894
v -0.000065 0.008757 -0.009897
v -0.000065 0.008849 -0.009897
v -0.000065 0.008757 -0.009897
v -0.000065 0.008853 -0.009900
v -0.000065 0.008849 -0.009897
v -0.000065 0.008753 -0.009900
v -0.000065 0.008853 -0.009900
v -0.000065 0.008757 -0.009897
v -0.000065 0.008857 -0.009903
v -0.000065 0.008853 -0.009900
v -0.000065 0.008753 -0.009900
v -0.000065 0.008857 -0.009903
v -0.000065 0.008753 -0.009900
v -0.000065 0.008749 -0.009903
v -0.000065 0.008857 -0.009903
v -0.000065 0.008749 -0.009903
v -0.000065 0.008861 -0.009906
v -0.000065 0.008749 -0.009903
v -0.000065 0.008745 -0.009906
v -0.000065 0.008861 -0.009906
v -0.000065 0.008745 -0.009906
v -0.000065 0.008865 -0.009910
v -0.000065 0.008861 -0.009906
v -0.000065 0.008741 -0.009910
v -0.000065 0.008865 -0.009910
v -0.000065 0.008745 -0.009906
v -0.000065 0.008868 -0.009913
v -0.000065 0.008865 -0.009910
v -0.000065 0.008741 -0.009910
v -0.000065 0.008868 -0.009913
v -0.000065 0.008741 -0.009910
v -0.000065 0.008738 -0.009913
v -0.000065 0.008710 -0.009943
v -0.000065 0.008710 -0.009952
v -0.000065 0.008714 -0.009939
v -0.000065 0.008868 -0.009913
v -0.000065 0.008738 -0.009913
v -0.000065 0.008872 -0.009917
v -0.000065 0.008720 -0.009931
v -0.000065 0.008717 -0.009935
v -0.000065 0.008734 -0.009917
v -0.000065 0.008730 -0.009920
v -0.000065 0.008895 -0.009943
v -0.000065 0.008892 -0.009939
v -0.000065 0.008895 -0.009952
v -0.000065 0.008892 -0.009939
v -0.000065 0.008889 -0.009935
v -0.000065 0.008889 -0.009935
v -0.000065 0.008886 -0.009931
v -0.000065 0.008886 -0.009931
v -0.000065 0.008883 -0.009927
v -0.000065 0.008883 -0.009927
v -0.000065 0.008879 -0.009924
v -0.000065 0.008879 -0.009924
v -0.000065 0.008876 -0.009920
v -0.000065 0.008876 -0.009920
v -0.000065 0.008872 -0.009917
v -0.000065 0.008734 -0.009917
v -0.000065 0.008730 -0.009920
v -0.000065 0.008727 -0.009924
v -0.000065 0.008727 -0.009924
v -0.000065 0.008723 -0.009927
v -0.000065 0.008723 -0.009927
v -0.000065 0.008720 -0.009931
v -0.000065 0.008734 -0.009917
v -0.000065 0.008872 -0.009917
v -0.000065 0.008872 -0.009917
v -0.000065 0.008738 -0.009913
v -0.000065 0.008734 -0.009917
v -0.000065 0.008717 -0.009935
v -0.000065 0.008714 -0.009939
v -0.000065 0.008845 -0.009894
v -0.000065 0.008841 -0.009891
v -0.000065 0.008834 -0.009887
v -0.000065 0.008836 -0.009887
v -0.000065 0.008834 -0.009887
v -0.000065 0.008836 -0.009887
v -0.000065 0.008834 -0.009887
v -0.000065 0.008837 -0.009888
v -0.000065 0.008835 -0.009887
v -0.000065 0.008834 -0.009887
v -0.000065 0.008837 -0.009888
v -0.000065 0.008834 -0.009887
v -0.000065 0.008841 -0.009891
v -0.000065 0.008710 -0.009952
v -0.000065 0.008710 -0.009943
v -0.000150 0.008710 -0.009952
v -0.000065 0.008710 -0.009943
v -0.000150 0.008710 -0.009943
v -0.000150 0.008710 -0.009952
v -0.000150 0.008895 -0.009952
v -0.000150 0.008895 -0.009943
v -0.000065 0.008895 -0.009952
v -0.000150 0.008895 -0.009943
v -0.000065 0.008895 -0.009943
v -0.000065 0.008895 -0.009952
v -0.000150 0.008710 -0.009952
v -0.000134 0.008775 -0.009952
v -0.000132 0.008776 -0.009952
v -0.000065 0.008710 -0.009952
v -0.000115 0.008801 -0.009952
v -0.000115 0.008803 -0.009952
v -0.000148 0.008833 -0.009952
v -0.000150 0.008833 -0.009952
v -0.000150 0.008895 -0.009952
v -0.000150 0.008895 -0.009952
v -0.000147 0.008833 -0.009952
v -0.000150 0.008895 -0.009952
v -0.000145 0.008833 -0.009952
v -0.000150 0.008895 -0.009952
v -0.000144 0.008833 -0.009952
v -0.000150 0.008895 -0.009952
v -0.000142 0.008833 -0.009952
v -0.000150 0.008895 -0.009952
v -0.000140 0.008833 -0.009952
v -0.000150 0.008895 -0.009952
v -0.000139 0.008832 -0.009952
v -0.000150 0.008895 -0.009952
v -0.000137 0.008832 -0.009952
v -0.000150 0.008895 -0.009952
v -0.000136 0.008831 -0.009952
v -0.000150 0.008895 -0.009952
v -0.000134 0.008831 -0.009952
v -0.000150 0.008895 -0.009952
v -0.000132 0.008830 -0.009952
v -0.000150 0.008895 -0.009952
v -0.000131 0.008830 -0.009952
v -0.000150 0.008895 -0.009952
v -0.000065 0.008895 -0.009952
v -0.000065 0.008895 -0.009952
v -0.000130 0.008829 -0.009952
v -0.000065 0.008895 -0.009952
v -0.000128 0.008828 -0.009952
v -0.000065 0.008895 -0.009952
v -0.000127 0.008827 -0.009952
v -0.000065 0.008895 -0.009952
v -0.000126 0.008826 -0.009952
v -0.000065 0.008895 -0.009952
v -0.000124 0.008825 -0.009952
v -0.000065 0.008895 -0.009952
v -0.000123 0.008824 -0.009952
v -0.000065 0.008895 -0.009952
v -0.000122 0.008822 -0.009952
v -0.000065 0.008895 -0.009952
v -0.000121 0.008821 -0.009952
v -0.000065 0.008895 -0.009952
v -0.000120 0.008820 -0.009952
v -0.000065 0.008895 -0.009952
v -0.000119 0.008819 -0.009952
v -0.000117 0.008814 -0.009952
v -0.000118 0.008816 -0.009952
v -0.000065 0.008895 -0.009952
v -0.000065 0.008895 -0.009952
v -0.000119 0.008817 -0.009952
v -0.000117 0.008813 -0.009952
v -0.000065 0.008895 -0.009952
v -0.000116 0.008811 -0.009952
v -0.000065 0.008895 -0.009952
v -0.000116 0.008809 -0.009952
v -0.000065 0.008895 -0.009952
v -0.000115 0.008808 -0.009952
v -0.000065 0.008895 -0.009952
v -0.000115 0.008806 -0.009952
v -0.000065 0.008895 -0.009952
v -0.000115 0.008805 -0.009952
v -0.000065 0.008895 -0.009952
v -0.000065 0.008895 -0.009952
v -0.000065 0.008895 -0.009952
v -0.000065 0.008710 -0.009952
v -0.000065 0.008710 -0.009952
v -0.000115 0.008800 -0.009952
v -0.000065 0.008710 -0.009952
v -0.000115 0.008798 -0.009952
v -0.000065 0.008710 -0.009952
v -0.000116 0.008797 -0.009952
v -0.000065 0.008710 -0.009952
v -0.000116 0.008795 -0.009952
v -0.000065 0.008710 -0.009952
v -0.000117 0.008793 -0.009952
v -0.000118 0.008790 -0.009952
v -0.000065 0.008710 -0.009952
v -0.000119 0.008789 -0.009952
v -0.000117 0.008792 -0.009952
v -0.000065 0.008710 -0.009952
v -0.000065 0.008710 -0.009952
v -0.000119 0.008787 -0.009952
v -0.000065 0.008710 -0.009952
v -0.000120 0.008786 -0.009952
v -0.000065 0.008710 -0.009952
v -0.000121 0.008785 -0.009952
v -0.000065 0.008710 -0.009952
v -0.000122 0.008784 -0.009952
v -0.000065 0.008710 -0.009952
v -0.000123 0.008782 -0.009952
v -0.000065 0.008710 -0.009952
v -0.000124 0.008781 -0.009952
v -0.000065 0.008710 -0.009952
v -0.000126 0.008780 -0.009952
v -0.000065 0.008710 -0.009952
v -0.000127 0.008779 -0.009952
v -0.000065 0.008710 -0.009952
v -0.000128 0.008778 -0.009952
v -0.000065 0.008710 -0.009952
v -0.000130 0.008777 -0.009952
v -0.000065 0.008710 -0.009952
v -0.000131 0.008776 -0.009952
v -0.000065 0.008710 -0.009952
v -0.000150 0.008710 -0.009952
v -0.000150 0.008710 -0.009952
v -0.000136 0.008775 -0.009952
v -0.000150 0.008710 -0.009952
v -0.000137 0.008774 -0.009952
v -0.000150 0.008710 -0.009952
v -0.000139 0.008774 -0.009952
v -0.000150 0.008710 -0.009952
v -0.000150 0.008710 -0.009952
v -0.000140 0.008773 -0.009952
v -0.000150 0.008710 -0.009952
v -0.000142 0.008773 -0.009952
v -0.000150 0.008710 -0.009952
v -0.000144 0.008773 -0.009952
v -0.000150 0.008710 -0.009952
v -0.000145 0.008773 -0.009952
v -0.000150 0.008710 -0.009952
v -0.000147 0.008773 -0.009952
v -0.000065 0.008895 -0.009952
v -0.000150 0.008710 -0.009952
v -0.000148 0.008773 -0.009952
v -0.000065 0.008710 -0.009952
v -0.000150 0.008710 -0.009952
v -0.000150 0.008773 -0.009952
v -0.000148 0.008833 -0.009952
v -0.000147 0.008833 -0.009952
v -0.000148 0.008833 -0.009914
v -0.000147 0.008833 -0.009952
v -0.000145 0.008833 -0.009952
v -0.000147 0.008833 -0.009914
v -0.000145 0.008833 -0.009952
v -0.000145 0.008833 -0.009914
v -0.000144 0.008833 -0.009952
v -0.000144 0.008833 -0.009914
v -0.000142 0.008833 -0.009952
v -0.000142 0.008833 -0.009914
v -0.000140 0.008833 -0.009952
v -0.000140 0.008833 -0.009914
v -0.000139 0.008832 -0.009952
v -0.000140 0.008833 -0.009952
v -0.000137 0.008832 -0.009952
v -0.000139 0.008832 -0.009914
v -0.000139 0.008832 -0.009952
v -0.000137 0.008832 -0.009914
v -0.000137 0.008832 -0.009952
v -0.000136 0.008831 -0.009914
v -0.000136 0.008831 -0.009952
v -0.000136 0.008831 -0.009952
v -0.000134 0.008831 -0.009952
v -0.000134 0.008831 -0.009914
v -0.000134 0.008831 -0.009952
v -0.000132 0.008830 -0.009952
v -0.000132 0.008830 -0.009914
v -0.000132 0.008830 -0.009952
v -0.000131 0.008830 -0.009952
v -0.000131 0.008830 -0.009952
v -0.000131 0.008830 -0.009914
v -0.000130 0.008829 -0.009952
v -0.000130 0.008829 -0.009914
v -0.000130 0.008829 -0.009952
v -0.000128 0.008828 -0.009952
v -0.000128 0.008828 -0.009952
v -0.000127 0.008827 -0.009952
v -0.000128 0.008828 -0.009914
v -0.000127 0.008827 -0.009952
v -0.000127 0.008827 -0.009914
v -0.000126 0.008826 -0.009952
v -0.000126 0.008826 -0.009914
v -0.000124 0.008825 -0.009952
v -0.000126 0.008826 -0.009952
v -0.000123 0.008824 -0.009952
v -0.000124 0.008825 -0.009914
v -0.000124 0.008825 -0.009952
v -0.000123 0.008824 -0.009914
v -0.000123 0.008824 -0.009952
v -0.000122 0.008822 -0.009914
v -0.000122 0.008822 -0.009952
v -0.000122 0.008822 -0.009952
v -0.000121 0.008821 -0.009952
v -0.000121 0.008821 -0.009914
v -0.000121 0.008821 -0.009952
v -0.000120 0.008820 -0.009952
v -0.000120 0.008820 -0.009952
v -0.000120 0.008820 -0.009914
v -0.000119 0.008819 -0.009952
v -0.000119 0.008819 -0.009914
v -0.000119 0.008819 -0.009952
v -0.000119 0.008817 -0.009952
v -0.000119 0.008817 -0.009952
v -0.000118 0.008816 -0.009952
v -0.000119 0.008817 -0.009914
v -0.000118 0.008816 -0.009952
v -0.000118 0.008816 -0.009914
v -0.000117 0.008814 -0.009952
v -0.000117 0.008814 -0.009914
v -0.000117 0.008813 -0.009952
v -0.000117 0.008814 -0.009952
v -0.000116 0.008811 -0.009952
v -0.000117 0.008813 -0.009914
v -0.000117 0.008813 -0.009952
v -0.000116 0.008811 -0.009914
v -0.000116 0.008811 -0.009952
v -0.000116 0.008809 -0.009914
v -0.000116 0.008809 -0.009952
v -0.000116 0.008809 -0.009952
v -0.000115 0.008808 -0.009952
v -0.000115 0.008808 -0.009914
v -0.000115 0.008808 -0.009952
v -0.000115 0.008806 -0.009952
v -0.000115 0.008806 -0.009952
v -0.000115 0.008806 -0.009914
v -0.000115 0.008805 -0.009952
v -0.000115 0.008805 -0.009914
v -0.000115 0.008805 -0.009952
v -0.000115 0.008803 -0.009952
v -0.000115 0.008803 -0.009952
v -0.000115 0.008801 -0.009952
v -0.000115 0.008803 -0.009914
v -0.000115 0.008801 -0.009952
v -0.000115 0.008801 -0.009914
v -0.000115 0.008800 -0.009952
v -0.000115 0.008800 -0.009914
v -0.000115 0.008798 -0.009952
v -0.000115 0.008800 -0.009952
v -0.000116 0.008797 -0.009952
v -0.000115 0.008798 -0.009914
v -0.000115 0.008798 -0.009952
v -0.000116 0.008795 -0.009952
v -0.000116 0.008797 -0.009914
v -0.000116 0.008797 -0.009952
v -0.000116 0.008795 -0.009914
v -0.000116 0.008795 -0.009952
v -0.000117 0.008793 -0.009914
v -0.000117 0.008793 -0.009952
v -0.000117 0.008793 -0.009952
v -0.000117 0.008792 -0.009952
v -0.000117 0.008792 -0.009914
v -0.000117 0.008792 -0.009952
v -0.000118 0.008790 -0.009952
v -0.000118 0.008790 -0.009952
v -0.000118 0.008790 -0.009914
v -0.000119 0.008789 -0.009952
v -0.000119 0.008789 -0.009914
v -0.000119 0.008789 -0.009952
v -0.000119 0.008787 -0.009952
v -0.000119 0.008787 -0.009952
v -0.000120 0.008786 -0.009952
v -0.000119 0.008787 -0.009914
v -0.000120 0.008786 -0.009952
v -0.000120 0.008786 -0.009914
v -0.000121 0.008785 -0.009952
v -0.000121 0.008785 -0.009914
v -0.000122 0.008784 -0.009952
v -0.000121 0.008785 -0.009952
v -0.000123 0.008782 -0.009952
v -0.000122 0.008784 -0.009914
v -0.000122 0.008784 -0.009952
v -0.000123 0.008782 -0.009914
v -0.000123 0.008782 -0.009952
v -0.000124 0.008781 -0.009914
v -0.000124 0.008781 -0.009952
v -0.000124 0.008781 -0.009952
v -0.000126 0.008780 -0.009952
v -0.000126 0.008780 -0.009914
v -0.000126 0.008780 -0.009952
v -0.000127 0.008779 -0.009952
v -0.000127 0.008779 -0.009952
v -0.000127 0.008779 -0.009914
v -0.000148 0.008773 -0.009914
v -0.000147 0.008773 -0.009914
v -0.000148 0.008773 -0.009952
v -0.000150 0.008773 -0.009952
v -0.000150 0.008773 -0.009914
v -0.000150 0.008773 -0.009952
v -0.000148 0.008773 -0.009952
v -0.000147 0.008773 -0.009952
v -0.000148 0.008773 -0.009952
v -0.000145 0.008773 -0.009914
v -0.000147 0.008773 -0.009952
v -0.000145 0.008773 -0.009952
v -0.000147 0.008773 -0.009952
v -0.000145 0.008773 -0.009952
v -0.000144 0.008773 -0.009914
v -0.000145 0.008773 -0.009952
v -0.000144 0.008773 -0.009952
v -0.000142 0.008773 -0.009914
v -0.000144 0.008773 -0.009952
v -0.000142 0.008773 -0.009952
v -0.000144 0.008773 -0.009952
v -0.000140 0.008773 -0.009914
v -0.000142 0.008773 -0.009952
v -0.000140 0.008773 -0.009952
v -0.000142 0.008773 -0.009952
v -0.000140 0.008773 -0.009952
v -0.000139 0.008774 -0.009914
v -0.000140 0.008773 -0.009952
v -0.000139 0.008774 -0.009952
v -0.000137 0.008774 -0.009914
v -0.000139 0.008774 -0.009952
v -0.000137 0.008774 -0.009952
v -0.000139 0.008774 -0.009952
v -0.000136 0.008775 -0.009914
v -0.000137 0.008774 -0.009952
v -0.000136 0.008775 -0.009952
v -0.000137 0.008774 -0.009952
v -0.000136 0.008775 -0.009952
v -0.000134 0.008775 -0.009914
v -0.000136 0.008775 -0.009952
v -0.000134 0.008775 -0.009952
v -0.000132 0.008776 -0.009914
v -0.000134 0.008775 -0.009952
v -0.000132 0.008776 -0.009952
v -0.000134 0.008775 -0.009952
v -0.000131 0.008776 -0.009914
v -0.000132 0.008776 -0.009952
v -0.000131 0.008776 -0.009952
v -0.000132 0.008776 -0.009952
v -0.000131 0.008776 -0.009952
v -0.000130 0.008777 -0.009914
v -0.000131 0.008776 -0.009952
v -0.000130 0.008777 -0.009952
v -0.000128 0.008778 -0.009914
v -0.000130 0.008777 -0.009952
v -0.000128 0.008778 -0.009952
v -0.000130 0.008777 -0.009952
v -0.000128 0.008778 -0.009952
v -0.000127 0.008779 -0.009952
v -0.000128 0.008778 -0.009952
v -0.000126 0.008780 -0.009952
v -0.000123 0.008782 -0.009952
v -0.000124 0.008781 -0.009952
v -0.000122 0.008784 -0.009952
v -0.000121 0.008785 -0.009952
v -0.000120 0.008786 -0.009952
v -0.000119 0.008787 -0.009952
v -0.000118 0.008790 -0.009952
v -0.000119 0.008789 -0.009952
v -0.000117 0.008792 -0.009952
v -0.000116 0.008795 -0.009952
v -0.000117 0.008793 -0.009952
v -0.000116 0.008797 -0.009952
v -0.000115 0.008798 -0.009952
v -0.000115 0.008800 -0.009952
v -0.000115 0.008801 -0.009952
v -0.000115 0.008803 -0.009952
v -0.000115 0.008806 -0.009952
v -0.000115 0.008805 -0.009952
v -0.000115 0.008808 -0.009952
v -0.000116 0.008811 -0.009952
v -0.000116 0.008809 -0.009952
v -0.000117 0.008813 -0.009952
v -0.000117 0.008814 -0.009952
v -0.000118 0.008816 -0.009952
v -0.000119 0.008817 -0.009952
v -0.000120 0.008820 -0.009952
v -0.000119 0.008819 -0.009952
v -0.000121 0.008821 -0.009952
v -0.000123 0.008824 -0.009952
v -0.000122 0.008822 -0.009952
v -0.000124 0.008825 -0.009952
v -0.000126 0.008826 -0.009952
v -0.000127 0.008827 -0.009952
v -0.000128 0.008828 -0.009952
v -0.000131 0.008830 -0.009952
v -0.000130 0.008829 -0.009952
v -0.000132 0.008830 -0.009952
v -0.000134 0.008831 -0.009952
v -0.000137 0.008832 -0.009952
v -0.000136 0.008831 -0.009952
v -0.000142 0.008833 -0.009952
v -0.000140 0.008833 -0.009952
v -0.000145 0.008833 -0.009952
v -0.000144 0.008833 -0.009952
v -0.000150 0.008833 -0.009952
v -0.000148 0.008833 -0.009952
v -0.000150 0.008833 -0.009914
v -0.000150 0.008833 -0.009952
v -0.000139 0.008832 -0.009952
v -0.000144 0.008833 -0.009952
v -0.000142 0.008833 -0.009952
v -0.000147 0.008833 -0.009952
v -0.000147 0.008756 -0.009897
v -0.000145 0.008773 -0.009914
v -0.000147 0.008773 -0.009914
v -0.000147 0.008756 -0.009897
v -0.000147 0.008773 -0.009914
v -0.000150 0.008756 -0.009897
v -0.000143 0.008756 -0.009897
v -0.000144 0.008773 -0.009914
v -0.000145 0.008773 -0.009914
v -0.000142 0.008773 -0.009914
v -0.000144 0.008773 -0.009914
v -0.000140 0.008756 -0.009897
v -0.000140 0.008773 -0.009914
v -0.000140 0.008756 -0.009897
v -0.000136 0.008756 -0.009897
v -0.000139 0.008774 -0.009914
v -0.000136 0.008756 -0.009897
v -0.000133 0.008757 -0.009897
v -0.000137 0.008774 -0.009914
v -0.000133 0.008757 -0.009897
v -0.000130 0.008757 -0.009896
v -0.000136 0.008775 -0.009914
v -0.000130 0.008757 -0.009896
v -0.000134 0.008775 -0.009914
v -0.000130 0.008757 -0.009896
v -0.000127 0.008758 -0.009896
v -0.000134 0.008775 -0.009914
v -0.000127 0.008758 -0.009896
v -0.000123 0.008759 -0.009895
v -0.000132 0.008776 -0.009914
v -0.000123 0.008759 -0.009895
v -0.000131 0.008776 -0.009914
v -0.000132 0.008776 -0.009914
v -0.000120 0.008760 -0.009894
v -0.000130 0.008777 -0.009914
v -0.000131 0.008776 -0.009914
v -0.000117 0.008761 -0.009894
v -0.000128 0.008778 -0.009914
v -0.000130 0.008777 -0.009914
v -0.000114 0.008762 -0.009893
v -0.000128 0.008778 -0.009914
v -0.000117 0.008761 -0.009894
v -0.000126 0.008780 -0.009914
v -0.000127 0.008779 -0.009914
v -0.000114 0.008762 -0.009893
v -0.000126 0.008780 -0.009914
v -0.000114 0.008762 -0.009893
v -0.000111 0.008763 -0.009892
v -0.000126 0.008780 -0.009914
v -0.000111 0.008763 -0.009892
v -0.000124 0.008781 -0.009914
v -0.000111 0.008763 -0.009892
v -0.000108 0.008764 -0.009891
v -0.000124 0.008781 -0.009914
v -0.000123 0.008782 -0.009914
v -0.000105 0.008766 -0.009890
v -0.000122 0.008784 -0.009914
v -0.000108 0.008764 -0.009891
v -0.000123 0.008782 -0.009914
v -0.000124 0.008781 -0.009914
v -0.000105 0.008766 -0.009890
v -0.000102 0.008767 -0.009889
v -0.000122 0.008784 -0.009914
v -0.000102 0.008767 -0.009889
v -0.000100 0.008769 -0.009888
v -0.000121 0.008785 -0.009914
v -0.000100 0.008769 -0.009888
v -0.000099 0.008770 -0.009888
v -0.000120 0.008786 -0.009914
v -0.000098 0.008770 -0.009887
v -0.000120 0.008786 -0.009914
v -0.000120 0.008786 -0.009914
v -0.000097 0.008771 -0.009887
v -0.000097 0.008772 -0.009887
v -0.000119 0.008787 -0.009914
v -0.000097 0.008772 -0.009887
v -0.000095 0.008775 -0.009887
v -0.000119 0.008787 -0.009914
v -0.000095 0.008775 -0.009887
v -0.000119 0.008789 -0.009914
v -0.000119 0.008789 -0.009914
v -0.000093 0.008779 -0.009887
v -0.000118 0.008790 -0.009914
v -0.000093 0.008779 -0.009887
v -0.000091 0.008783 -0.009887
v -0.000117 0.008792 -0.009914
v -0.000091 0.008783 -0.009887
v -0.000090 0.008787 -0.009887
v -0.000117 0.008793 -0.009914
v -0.000090 0.008787 -0.009887
v -0.000116 0.008795 -0.009914
v -0.000117 0.008793 -0.009914
v -0.000089 0.008791 -0.009887
v -0.000116 0.008797 -0.009914
v -0.000116 0.008795 -0.009914
v -0.000088 0.008795 -0.009887
v -0.000115 0.008798 -0.009914
v -0.000089 0.008791 -0.009887
v -0.000115 0.008800 -0.009914
v -0.000115 0.008798 -0.009914
v -0.000088 0.008795 -0.009887
v -0.000115 0.008801 -0.009914
v -0.000115 0.008800 -0.009914
v -0.000088 0.008799 -0.009887
v -0.000115 0.008803 -0.009914
v -0.000115 0.008801 -0.009914
v -0.000087 0.008803 -0.009887
v -0.000115 0.008805 -0.009914
v -0.000115 0.008803 -0.009914
v -0.000087 0.008803 -0.009887
v -0.000115 0.008805 -0.009914
v -0.000087 0.008803 -0.009887
v -0.000088 0.008807 -0.009887
v -0.000115 0.008805 -0.009914
v -0.000088 0.008807 -0.009887
v -0.000115 0.008806 -0.009914
v -0.000115 0.008806 -0.009914
v -0.000088 0.008811 -0.009887
v -0.000115 0.008808 -0.009914
v -0.000088 0.008811 -0.009887
v -0.000089 0.008815 -0.009887
v -0.000115 0.008808 -0.009914
v -0.000089 0.008815 -0.009887
v -0.000116 0.008811 -0.009914
v -0.000116 0.008809 -0.009914
v -0.000090 0.008819 -0.009887
v -0.000117 0.008813 -0.009914
v -0.000116 0.008811 -0.009914
v -0.000091 0.008823 -0.009887
v -0.000117 0.008814 -0.009914
v -0.000117 0.008813 -0.009914
v -0.000093 0.008827 -0.009887
v -0.000118 0.008816 -0.009914
v -0.000117 0.008814 -0.009914
v -0.000119 0.008817 -0.009914
v -0.000118 0.008816 -0.009914
v -0.000093 0.008827 -0.009887
v -0.000119 0.008819 -0.009914
v -0.000119 0.008817 -0.009914
v -0.000095 0.008831 -0.009887
v -0.000120 0.008820 -0.009914
v -0.000119 0.008819 -0.009914
v -0.000097 0.008834 -0.009887
v -0.000098 0.008836 -0.009887
v -0.000120 0.008820 -0.009914
v -0.000097 0.008835 -0.009887
v -0.000105 0.008840 -0.009890
v -0.000122 0.008822 -0.009914
v -0.000102 0.008839 -0.009889
v -0.000121 0.008821 -0.009914
v -0.000100 0.008837 -0.009888
v -0.000102 0.008839 -0.009889
v -0.000123 0.008824 -0.009914
v -0.000122 0.008822 -0.009914
v -0.000105 0.008840 -0.009890
v -0.000124 0.008825 -0.009914
v -0.000123 0.008824 -0.009914
v -0.000108 0.008842 -0.009891
v -0.000126 0.008826 -0.009914
v -0.000124 0.008825 -0.009914
v -0.000111 0.008843 -0.009892
v -0.000127 0.008827 -0.009914
v -0.000126 0.008826 -0.009914
v -0.000114 0.008844 -0.009893
v -0.000099 0.008836 -0.009888
v -0.000100 0.008837 -0.009888
v -0.000120 0.008820 -0.009914
v -0.000150 0.008850 -0.009897
v -0.000150 0.008833 -0.009914
v -0.000148 0.008833 -0.009914
v -0.000150 0.008850 -0.009897
v -0.000148 0.008833 -0.009914
v -0.000147 0.008833 -0.009914
v -0.000150 0.008850 -0.009897
v -0.000147 0.008833 -0.009914
v -0.000147 0.008850 -0.009897
v -0.000147 0.008833 -0.009914
v -0.000145 0.008833 -0.009914
v -0.000147 0.008850 -0.009897
v -0.000145 0.008833 -0.009914
v -0.000143 0.008850 -0.009897
v -0.000147 0.008850 -0.009897
v -0.000144 0.008833 -0.009914
v -0.000143 0.008850 -0.009897
v -0.000145 0.008833 -0.009914
v -0.000140 0.008850 -0.009897
v -0.000143 0.008850 -0.009897
v -0.000144 0.008833 -0.009914
v -0.000140 0.008850 -0.009897
v -0.000144 0.008833 -0.009914
v -0.000142 0.008833 -0.009914
v -0.000140 0.008850 -0.009897
v -0.000142 0.008833 -0.009914
v -0.000140 0.008833 -0.009914
v -0.000140 0.008850 -0.009897
v -0.000140 0.008833 -0.009914
v -0.000137 0.008850 -0.009897
v -0.000140 0.008833 -0.009914
v -0.000139 0.008832 -0.009914
v -0.000137 0.008850 -0.009897
v -0.000139 0.008832 -0.009914
v -0.000133 0.008849 -0.009897
v -0.000137 0.008850 -0.009897
v -0.000137 0.008832 -0.009914
v -0.000133 0.008849 -0.009897
v -0.000139 0.008832 -0.009914
v -0.000130 0.008849 -0.009896
v -0.000133 0.008849 -0.009897
v -0.000137 0.008832 -0.009914
v -0.000130 0.008849 -0.009896
v -0.000137 0.008832 -0.009914
v -0.000136 0.008831 -0.009914
v -0.000130 0.008849 -0.009896
v -0.000136 0.008831 -0.009914
v -0.000134 0.008831 -0.009914
v -0.000130 0.008849 -0.009896
v -0.000134 0.008831 -0.009914
v -0.000127 0.008848 -0.009896
v -0.000134 0.008831 -0.009914
v -0.000132 0.008830 -0.009914
v -0.000127 0.008848 -0.009896
v -0.000132 0.008830 -0.009914
v -0.000123 0.008847 -0.009895
v -0.000127 0.008848 -0.009896
v -0.000131 0.008830 -0.009914
v -0.000123 0.008847 -0.009895
v -0.000132 0.008830 -0.009914
v -0.000120 0.008846 -0.009894
v -0.000123 0.008847 -0.009895
v -0.000131 0.008830 -0.009914
v -0.000120 0.008846 -0.009894
v -0.000131 0.008830 -0.009914
v -0.000130 0.008829 -0.009914
v -0.000120 0.008846 -0.009894
v -0.000130 0.008829 -0.009914
v -0.000117 0.008845 -0.009894
v -0.000130 0.008829 -0.009914
v -0.000128 0.008828 -0.009914
v -0.000117 0.008845 -0.009894
v -0.000128 0.008828 -0.009914
v -0.000114 0.008844 -0.009893
v -0.000117 0.008845 -0.009894
v -0.000127 0.008827 -0.009914
v -0.000114 0.008844 -0.009893
v -0.000128 0.008828 -0.009914
v -0.000126 0.008826 -0.009914
v -0.000111 0.008843 -0.009892
v -0.000114 0.008844 -0.009893
v -0.000124 0.008825 -0.009914
v -0.000108 0.008842 -0.009891
v -0.000111 0.008843 -0.009892
v -0.000123 0.008824 -0.009914
v -0.000105 0.008840 -0.009890
v -0.000108 0.008842 -0.009891
v -0.000122 0.008822 -0.009914
v -0.000121 0.008821 -0.009914
v -0.000102 0.008839 -0.009889
v -0.000121 0.008821 -0.009914
v -0.000120 0.008820 -0.009914
v -0.000100 0.008837 -0.009888
v -0.000120 0.008820 -0.009914
v -0.000097 0.008834 -0.009887
v -0.000120 0.008820 -0.009914
v -0.000095 0.008831 -0.009887
v -0.000097 0.008834 -0.009887
v -0.000119 0.008819 -0.009914
v -0.000093 0.008827 -0.009887
v -0.000095 0.008831 -0.009887
v -0.000119 0.008817 -0.009914
v -0.000117 0.008814 -0.009914
v -0.000091 0.008823 -0.009887
v -0.000093 0.008827 -0.009887
v -0.000117 0.008813 -0.009914
v -0.000090 0.008819 -0.009887
v -0.000091 0.008823 -0.009887
v -0.000116 0.008811 -0.009914
v -0.000089 0.008815 -0.009887
v -0.000090 0.008819 -0.009887
v -0.000116 0.008809 -0.009914
v -0.000115 0.008808 -0.009914
v -0.000089 0.008815 -0.009887
v -0.000088 0.008811 -0.009887
v -0.000115 0.008806 -0.009914
v -0.000088 0.008807 -0.009887
v -0.000115 0.008801 -0.009914
v -0.000088 0.008799 -0.009887
v -0.000087 0.008803 -0.009887
v -0.000115 0.008800 -0.009914
v -0.000088 0.008795 -0.009887
v -0.000088 0.008799 -0.009887
v -0.000115 0.008798 -0.009914
v -0.000116 0.008797 -0.009914
v -0.000089 0.008791 -0.009887
v -0.000089 0.008791 -0.009887
v -0.000116 0.008795 -0.009914
v -0.000090 0.008787 -0.009887
v -0.000091 0.008783 -0.009887
v -0.000117 0.008793 -0.009914
v -0.000117 0.008792 -0.009914
v -0.000093 0.008779 -0.009887
v -0.000117 0.008792 -0.009914
v -0.000118 0.008790 -0.009914
v -0.000095 0.008775 -0.009887
v -0.000093 0.008779 -0.009887
v -0.000119 0.008789 -0.009914
v -0.000120 0.008786 -0.009914
v -0.000097 0.008772 -0.009887
v -0.000119 0.008787 -0.009914
v -0.000120 0.008786 -0.009914
v -0.000100 0.008769 -0.009888
v -0.000120 0.008786 -0.009914
v -0.000121 0.008785 -0.009914
v -0.000102 0.008767 -0.009889
v -0.000121 0.008785 -0.009914
v -0.000122 0.008784 -0.009914
v -0.000108 0.008764 -0.009891
v -0.000105 0.008766 -0.009890
v -0.000123 0.008782 -0.009914
v -0.000114 0.008762 -0.009893
v -0.000127 0.008779 -0.009914
v -0.000128 0.008778 -0.009914
v -0.000120 0.008760 -0.009894
v -0.000117 0.008761 -0.009894
v -0.000130 0.008777 -0.009914
v -0.000123 0.008759 -0.009895
v -0.000120 0.008760 -0.009894
v -0.000131 0.008776 -0.009914
v -0.000130 0.008757 -0.009896
v -0.000136 0.008775 -0.009914
v -0.000137 0.008774 -0.009914
v -0.000140 0.008773 -0.009914
v -0.000136 0.008756 -0.009897
v -0.000139 0.008774 -0.009914
v -0.000142 0.008773 -0.009914
v -0.000140 0.008756 -0.009897
v -0.000140 0.008773 -0.009914
v -0.000144 0.008773 -0.009914
v -0.000143 0.008756 -0.009897
v -0.000140 0.008756 -0.009897
v -0.000147 0.008756 -0.009897
v -0.000143 0.008756 -0.009897
v -0.000145 0.008773 -0.009914
v -0.000148 0.008773 -0.009914
v -0.000150 0.008773 -0.009914
v -0.000150 0.008756 -0.009897
v -0.000133 0.008757 -0.009897
v -0.000137 0.008774 -0.009914
v -0.000139 0.008774 -0.009914
v -0.000132 0.008776 -0.009914
v -0.000134 0.008775 -0.009914
v -0.000127 0.008758 -0.009896
v -0.000147 0.008773 -0.009914
v -0.000148 0.008773 -0.009914
v -0.000150 0.008756 -0.009897
v -0.000065 0.008835 -0.009887
v -0.000065 0.008835 -0.009887
v -0.000065 0.008836 -0.009887
v -0.000065 0.008836 -0.009887
v -0.000097 0.008835 -0.009887
v -0.000097 0.008835 -0.009887
v -0.000065 0.008836 -0.009887
v -0.000065 0.008836 -0.009887
v -0.000099 0.008836 -0.009888
v -0.000099 0.008836 -0.009888
v -0.000098 0.008836 -0.009887
v -0.000098 0.008836 -0.009887
v -0.000097 0.008835 -0.009887
v -0.000065 0.008836 -0.009887
v -0.000098 0.008836 -0.009887
v -0.000065 0.008836 -0.009887
v -0.000098 0.008770 -0.009887
v -0.000099 0.008770 -0.009888
v -0.000099 0.008770 -0.009888
v -0.000098 0.008770 -0.009887
v -0.000065 0.008770 -0.009887
v -0.000065 0.008771 -0.009887
v -0.000065 0.008771 -0.009887
v -0.000065 0.008770 -0.009887
v -0.000065 0.008770 -0.009887
v -0.000097 0.008771 -0.009887
v -0.000065 0.008770 -0.009887
v -0.000065 0.008770 -0.009887
v -0.000097 0.008771 -0.009887
v -0.000065 0.008770 -0.009887
v -0.000097 0.008771 -0.009887
v -0.000098 0.008770 -0.009887
vn -1.0000 -0.0000 -0.0000
vn -0.0000 -0.7940 0.6079
vn -0.0000 -0.7816 0.6238
vn -0.0000 -0.7739 0.6333
vn -0.0000 -0.7940 0.6080
vn -0.0000 -0.7688 0.6395
vn -0.0000 -0.7815 0.6239
vn -0.0000 -0.7530 0.6580
vn -0.0000 -0.7558 0.6548
vn -0.0000 -0.7424 0.6699
vn -0.0000 -0.7557 0.6549
vn 0.0001 -0.7424 0.6700
vn -0.0000 -0.7313 0.6820
vn -0.0000 -0.7287 0.6848
vn -0.0000 -0.7147 0.6994
vn -0.0000 -0.7314 0.6820
vn -0.0000 -0.7424 0.6700
vn -0.0000 -0.7313 0.6821
vn -0.0000 -0.7089 0.7053
vn -0.0000 -0.7004 0.7137
vn -0.0000 -0.6857 0.7279
vn -0.0000 -0.6859 0.7277
vn -0.0000 -0.6710 0.7414
vn -0.0000 -0.6618 0.7497
vn -0.0000 -0.6560 0.7548
vn -0.0000 -0.6372 0.7707
vn -0.0000 -0.6125 0.7905
vn -0.0000 -0.6119 0.7909
vn -0.0000 -0.6617 0.7497
vn -0.0000 -0.6559 0.7548
vn -0.0000 -0.6124 0.7905
vn -0.0000 -0.6371 0.7708
vn -0.0000 -0.6124 0.7906
vn -0.0000 -0.6406 0.7679
vn -0.0000 -0.6559 0.7549
vn -0.0000 -0.6118 0.7910
vn -0.0000 -0.6106 0.7919
vn -0.0001 -0.6107 0.7919
vn -0.0000 -0.6089 0.7932
vn -0.0000 -0.6405 0.7680
vn -0.0001 -0.6249 0.7807
vn -0.0000 -0.6068 0.7948
vn -0.0000 -0.6010 0.7992
vn -0.0000 -0.6041 0.7969
vn -0.0000 -0.5599 0.8286
vn -0.0000 -0.5665 0.8241
vn 0.0002 -0.5764 0.8172
vn 0.0002 -0.5727 0.8198
vn -0.0000 -0.5785 0.8157
vn -0.0002 -0.5928 0.8053
vn -0.0000 -0.5840 0.8118
vn -0.0000 -0.5889 0.8082
vn -0.0000 -0.6091 0.7931
vn -0.0000 -0.5934 0.8049
vn -0.0000 -0.5974 0.8019
vn -0.0000 -0.6090 0.7932
vn -0.0000 -0.0000 1.0000
vn 0.0001 -0.0000 1.0000
vn -0.0001 -0.0000 1.0000
vn -0.0000 0.6372 0.7707
vn -0.0000 0.6124 0.7905
vn -0.0000 0.6118 0.7910
vn -0.0000 0.6107 0.7918
vn -0.0000 0.6090 0.7932
vn -0.0000 0.6859 0.7277
vn 0.0001 0.7004 0.7138
vn -0.0000 0.6857 0.7279
vn -0.0000 0.7286 0.6849
vn -0.0003 0.7313 0.6820
vn -0.0000 0.7148 0.6994
vn 0.0001 0.7424 0.6700
vn 0.0002 0.7530 0.6580
vn -0.0000 0.6119 0.7909
vn -0.0000 0.7940 0.6079
vn 0.0001 0.7816 0.6238
vn -0.0003 0.7739 0.6333
vn -0.0000 0.7687 0.6396
vn -0.0000 0.7558 0.6548
vn 0.0002 0.7089 0.7053
vn 0.0001 0.6711 0.7414
vn -0.0003 0.6618 0.7497
vn -0.0000 0.6559 0.7549
vn -0.0000 0.6068 0.7948
vn -0.0001 0.6405 0.7679
vn -0.0000 0.6042 0.7969
vn -0.0000 0.6249 0.7807
vn -0.0000 0.6010 0.7992
vn -0.0000 0.5974 0.8019
vn -0.0000 0.6091 0.7931
vn -0.0000 0.5888 0.8083
vn -0.0000 0.5839 0.8118
vn -0.0001 0.5928 0.8053
vn -0.0000 0.5599 0.8286
vn 0.0002 0.5764 0.8172
vn -0.0000 0.5598 0.8286
vn -0.0000 0.5665 0.8240
vn -0.0001 0.5726 0.8198
vn -0.0000 0.5785 0.8157
vn -0.0000 0.5933 0.8050
vn 1.0000 -0.0000 -0.0000
vn -0.0000 -0.0000 -1.0000
vn -0.0000 -1.0000 -0.0000
vn -0.0000 1.0000 -0.0000
vn 0.0001 -0.0000 -1.0000
vn -0.0001 -0.0000 -1.0000
vn 0.1129 -0.9936 -0.0000
vn 0.0588 -0.9983 -0.0000
vn 0.0587 -0.9983 -0.0000
vn 0.0045 -1.0000 -0.0000
vn -0.0498 -0.9988 -0.0000
vn -0.1039 -0.9946 -0.0000
vn -0.1578 -0.9875 -0.0000
vn -0.1040 -0.9946 -0.0000
vn -0.2112 -0.9774 -0.0000
vn -0.2639 -0.9646 -0.0000
vn -0.2111 -0.9775 -0.0000
vn -0.3159 -0.9488 -0.0000
vn -0.2640 -0.9645 -0.0000
vn -0.3160 -0.9488 -0.0000
vn -0.3670 -0.9302 -0.0000
vn -0.4170 -0.9089 -0.0000
vn -0.4657 -0.8850 -0.0000
vn -0.4656 -0.8850 -0.0000
vn -0.4658 -0.8849 -0.0000
vn -0.5130 -0.8584 -0.0000
vn -0.5131 -0.8584 -0.0000
vn -0.5588 -0.8293 -0.0000
vn -0.5590 -0.8292 -0.0000
vn -0.6031 -0.7977 -0.0000
vn -0.6455 -0.7638 -0.0000
vn -0.6031 -0.7976 -0.0000
vn -0.6860 -0.7276 -0.0000
vn -0.7245 -0.6893 -0.0000
vn -0.7609 -0.6489 -0.0001
vn -0.7609 -0.6489 -0.0000
vn -0.7949 -0.6067 -0.0000
vn -0.7950 -0.6066 -0.0000
vn -0.8267 -0.5626 -0.0000
vn -0.8267 -0.5627 -0.0000
vn -0.8560 -0.5169 -0.0000
vn -0.8561 -0.5169 -0.0000
vn -0.8828 -0.4697 -0.0000
vn -0.8829 -0.4696 -0.0000
vn -0.9070 -0.4211 -0.0000
vn -0.9070 -0.4210 -0.0000
vn -0.9286 -0.3712 -0.0000
vn -0.9071 -0.4210 -0.0000
vn -0.9474 -0.3202 -0.0000
vn -0.9286 -0.3711 -0.0000
vn -0.9633 -0.2683 -0.0000
vn -0.9473 -0.3202 -0.0000
vn -0.9633 -0.2684 -0.0000
vn -0.9765 -0.2156 -0.0000
vn -0.9634 -0.2682 -0.0000
vn -0.9765 -0.2155 -0.0000
vn -0.9867 -0.1623 -0.0000
vn -0.9868 -0.1622 -0.0000
vn -0.9941 -0.1085 -0.0000
vn -0.9941 -0.1084 -0.0000
vn -0.9985 -0.0543 -0.0000
vn -0.9985 0.0543 -0.0000
vn -0.9941 0.1084 -0.0000
vn -0.9868 0.1622 -0.0000
vn -0.9941 0.1085 -0.0000
vn -0.9765 0.2155 -0.0000
vn -0.9867 0.1623 -0.0000
vn -0.9634 0.2682 -0.0000
vn -0.9765 0.2156 -0.0000
vn -0.9474 0.3202 -0.0000
vn -0.9633 0.2683 -0.0000
vn -0.9286 0.3711 -0.0000
vn -0.9286 0.3712 -0.0000
vn -0.9071 0.4210 -0.0000
vn -0.9070 0.4210 -0.0000
vn -0.8829 0.4696 -0.0000
vn -0.8828 0.4697 -0.0000
vn -0.8561 0.5169 -0.0000
vn -0.8560 0.5170 -0.0000
vn -0.8267 0.5627 -0.0000
vn -0.8267 0.5626 -0.0000
vn -0.7950 0.6066 -0.0000
vn -0.7609 0.6489 -0.0000
vn -0.7949 0.6067 -0.0000
vn -0.7245 0.6892 -0.0000
vn -0.7245 0.6893 -0.0000
vn -0.6860 0.7276 -0.0000
vn -0.6455 0.7638 -0.0000
vn -0.6031 0.7977 -0.0000
vn -0.6031 0.7976 -0.0000
vn 0.1129 0.9936 -0.0000
vn 0.0588 0.9983 -0.0000
vn 0.1666 0.9860 -0.0000
vn 0.0045 1.0000 -0.0000
vn 0.0587 0.9983 -0.0000
vn -0.0498 0.9988 -0.0000
vn -0.1039 0.9946 -0.0000
vn -0.1578 0.9875 -0.0000
vn -0.1040 0.9946 -0.0000
vn -0.2112 0.9774 -0.0000
vn -0.2112 0.9774 0.0002
vn -0.2111 0.9775 -0.0000
vn -0.2639 0.9646 -0.0000
vn -0.3159 0.9488 -0.0000
vn -0.2640 0.9645 -0.0000
vn -0.3160 0.9488 -0.0000
vn -0.3670 0.9302 -0.0000
vn -0.3669 0.9303 -0.0000
vn -0.3671 0.9302 -0.0000
vn -0.4170 0.9089 -0.0000
vn -0.4169 0.9089 -0.0000
vn -0.4657 0.8850 -0.0000
vn -0.4656 0.8850 -0.0000
vn -0.4657 0.8849 -0.0000
vn -0.5130 0.8584 -0.0000
vn -0.4658 0.8849 -0.0000
vn -0.5588 0.8293 -0.0000
vn -0.5590 0.8292 -0.0000
vn -0.9070 0.4211 -0.0000
vn -0.9473 0.3202 -0.0000
vn -0.8267 -0.5626 0.0001
vn -0.8560 -0.5170 -0.0000
vn -0.7245 -0.6892 -0.0000
vn -0.4169 -0.9089 -0.0000
vn -0.3669 -0.9303 -0.0000
vn 0.1666 -0.9860 -0.0000
vn 0.0238 0.7067 0.7071
vn 0.0032 0.7071 0.7071
vn 0.0415 0.7059 0.7071
vn 0.0239 0.7067 0.7071
vn 0.0416 0.7059 0.7071
vn 0.0748 0.7031 0.7071
vn -0.0269 0.7066 0.7071
vn -0.0352 0.7062 0.7071
vn -0.0735 0.7033 0.7071
vn -0.0773 0.7029 0.7071
vn -0.1116 0.6982 0.7071
vn -0.0773 0.7027 0.7073
vn -0.1269 0.6956 0.7071
vn -0.1493 0.6912 0.7071
vn -0.1752 0.6851 0.7071
vn -0.1866 0.6820 0.7071
vn -0.2220 0.6714 0.7071
vn -0.2234 0.6709 0.7071
vn -0.2219 0.6714 0.7071
vn -0.2594 0.6578 0.7071
vn -0.2669 0.6548 0.7071
vn -0.2595 0.6578 0.7071
vn -0.3098 0.6356 0.7071
vn -0.2948 0.6427 0.7071
vn -0.3293 0.6258 0.7071
vn -0.3505 0.6142 0.7071
vn -0.3628 0.6070 0.7071
vn -0.3294 0.6258 0.7071
vn -0.3886 0.5908 0.7071
vn -0.3955 0.5871 0.7063
vn -0.4244 0.5656 0.7071
vn -0.3952 0.5864 0.7071
vn -0.4564 0.5401 0.7071
vn -0.4264 0.5640 0.7071
vn -0.4243 0.5656 0.7071
vn -0.4576 0.5391 0.7071
vn -0.4851 0.5145 0.7071
vn -0.4883 0.5114 0.7071
vn -0.5123 0.4874 0.7071
vn -0.5165 0.4829 0.7071
vn -0.5380 0.4588 0.7071
vn -0.5423 0.4537 0.7071
vn -0.5380 0.4589 0.7071
vn -0.5424 0.4536 0.7071
vn -0.5658 0.4241 0.7071
vn -0.5621 0.4290 0.7071
vn -0.5729 0.4145 0.7071
vn -0.5846 0.3978 0.7071
vn -0.5729 0.4144 0.7071
vn -0.5799 0.4046 0.7071
vn -0.5871 0.3942 0.7071
vn -0.5942 0.3833 0.7071
vn -0.6053 0.3655 0.7071
vn -0.6201 0.3399 0.7071
vn -0.6201 0.3398 0.7071
vn -0.6243 0.3321 0.7070
vn -0.6243 0.3321 0.7071
vn -0.6428 0.2946 0.7071
vn -0.6414 0.2977 0.7071
vn -0.6622 0.2479 0.7071
vn -0.6566 0.2624 0.7071
vn -0.6623 0.2478 0.7071
vn -0.6783 0.1998 0.7071
vn -0.6699 0.2264 0.7071
vn -0.6812 0.1897 0.7071
vn -0.6908 0.1508 0.7071
vn -0.6905 0.1525 0.7071
vn -0.6999 0.1010 0.7071
vn -0.6977 0.1148 0.7071
vn -0.6909 0.1507 0.7071
vn -0.7029 0.0767 0.7071
vn -0.6977 0.1147 0.7071
vn -0.6999 0.1009 0.7071
vn -0.7061 0.0384 0.7071
vn -0.7029 0.0766 0.7071
vn -0.7053 0.0506 0.7071
vn -0.7071 -0.0000 0.7071
vn -0.7061 -0.0384 0.7071
vn -0.7053 -0.0506 0.7071
vn -0.7030 -0.0766 0.7071
vn -0.7029 -0.0766 0.7071
vn -0.6999 -0.1009 0.7071
vn -0.6978 -0.1146 0.7071
vn -0.6999 -0.1010 0.7071
vn -0.6909 -0.1507 0.7071
vn -0.6977 -0.1148 0.7071
vn -0.6908 -0.1508 0.7071
vn -0.6812 -0.1896 0.7071
vn -0.6905 -0.1524 0.7071
vn -0.6783 -0.1998 0.7071
vn -0.6699 -0.2264 0.7071
vn -0.6812 -0.1897 0.7071
vn -0.6623 -0.2477 0.7071
vn -0.6566 -0.2623 0.7071
vn -0.6428 -0.2946 0.7071
vn -0.6416 -0.2977 0.7069
vn -0.6566 -0.2624 0.7071
vn -0.6243 -0.3321 0.7071
vn -0.6414 -0.2978 0.7071
vn -0.6054 -0.3655 0.7070
vn -0.6243 -0.3320 0.7071
vn -0.6201 -0.3397 0.7071
vn -0.5846 -0.3978 0.7071
vn -0.6053 -0.3656 0.7071
vn -0.5942 -0.3834 0.7071
vn -0.5799 -0.4046 0.7071
vn -0.5870 -0.3942 0.7071
vn -0.5166 -0.4828 0.7071
vn -0.5380 -0.4588 0.7071
vn -0.5424 -0.4537 0.7071
vn -0.5621 -0.4290 0.7071
vn -0.5658 -0.4241 0.7071
vn -0.5123 -0.4874 0.7071
vn -0.5166 -0.4829 0.7071
vn -0.4851 -0.5145 0.7071
vn -0.4883 -0.5114 0.7071
vn -0.4564 -0.5401 0.7071
vn -0.4576 -0.5391 0.7071
vn -0.4262 -0.5638 0.7074
vn -0.4242 -0.5657 0.7071
vn -0.5729 -0.4145 0.7071
vn 0.0749 -0.7031 0.7071
vn 0.1179 -0.6972 0.7071
vn 0.0798 -0.7026 0.7071
vn 0.0748 -0.7031 0.7071
vn 0.0799 -0.7027 0.7070
vn 0.0415 -0.7059 0.7071
vn 0.0416 -0.7059 0.7071
vn 0.0242 -0.7069 0.7069
vn 0.0032 -0.7071 0.7071
vn 0.0242 -0.7067 0.7071
vn -0.0265 -0.7069 0.7069
vn -0.0352 -0.7062 0.7071
vn -0.0265 -0.7066 0.7071
vn -0.0768 -0.7029 0.7071
vn -0.0735 -0.7033 0.7071
vn -0.1116 -0.6982 0.7071
vn -0.1263 -0.6957 0.7071
vn -0.1493 -0.6912 0.7071
vn -0.1494 -0.6912 0.7071
vn -0.1746 -0.6852 0.7071
vn -0.1866 -0.6820 0.7071
vn -0.2214 -0.6716 0.7071
vn -0.1867 -0.6820 0.7071
vn -0.2214 -0.6715 0.7072
vn -0.2234 -0.6709 0.7071
vn -0.2214 -0.6715 0.7071
vn -0.2233 -0.6709 0.7071
vn -0.2594 -0.6578 0.7071
vn -0.2595 -0.6578 0.7071
vn -0.2664 -0.6550 0.7071
vn -0.2948 -0.6427 0.7071
vn -0.2665 -0.6550 0.7071
vn -0.3094 -0.6358 0.7071
vn -0.3293 -0.6258 0.7071
vn -0.3093 -0.6358 0.7071
vn -0.3501 -0.6143 0.7071
vn -0.3293 -0.6257 0.7071
vn -0.3501 -0.6144 0.7071
vn -0.3628 -0.6070 0.7071
vn -0.3627 -0.6070 0.7071
vn -0.3884 -0.5909 0.7071
vn -0.3952 -0.5864 0.7071
vn -0.4243 -0.5657 0.7071
vn -0.4264 -0.5641 0.7071
vn -0.5381 -0.4590 0.7069
vn -0.5622 -0.4290 0.7070
vn -0.5728 -0.4145 0.7071
vn -0.5942 -0.3833 0.7071
vn -0.6201 -0.3399 0.7071
vn -0.6053 -0.3655 0.7071
vn -0.6201 -0.3398 0.7071
vn -0.6622 -0.2479 0.7071
vn -0.6623 -0.2478 0.7071
vn -0.7030 0.0766 0.7071
vn -0.6905 0.1524 0.7071
vn -0.6699 0.2263 0.7071
vn -0.6568 0.2625 0.7069
vn -0.5942 0.3834 0.7071
vn -0.6053 0.3656 0.7071
vn -0.5799 0.4047 0.7071
vn -0.5870 0.3942 0.7071
vn -0.5846 0.3979 0.7071
vn -0.5847 0.3979 0.7070
vn -0.5424 0.4537 0.7071
vn -0.5622 0.4291 0.7070
vn -0.3504 0.6142 0.7071
vn -0.3885 0.5908 0.7071
vn -0.2221 0.6714 0.7071
vn -0.1868 0.6820 0.7071
vn -0.0269 0.7067 0.7070
vn 0.0239 0.7069 0.7069
vn -0.0270 0.7066 0.7071
vn 0.0798 0.7026 0.7071
vn 0.1179 0.6972 0.7071
vn 0.0749 0.7031 0.7071
vn 0.0415 0.7060 0.7070
vn -0.0000 0.1480 0.9890
vn -0.0000 0.2928 0.9562
vn -0.0000 0.2927 0.9562
vn -0.0000 0.1690 0.9856
vn -0.0000 0.4310 0.9024
vn -0.0000 0.4459 0.8951
vn -0.0001 0.4459 0.8951
vn -0.0000 0.3165 0.9486
vn -0.0000 0.3164 0.9486
vn -0.0000 0.4311 0.9023
vn -0.0000 -0.3165 0.9486
vn -0.0000 -0.4459 0.8951
vn -0.0000 -0.3164 0.9486
vn -0.0000 -0.5599 0.8285
vn -0.0000 -0.4311 0.9023
vn -0.0000 -0.1480 0.9890
vn -0.0000 -0.2928 0.9562
vn -0.0000 -0.2927 0.9562
vn -0.0000 -0.1688 0.9857
vn -0.0000 -0.1689 0.9856
vn -0.0000 -0.4310 0.9024
vn -0.0000 -0.3163 0.9487
s 1
usemtl Diffuse_51_51_51_100.029
f 1//1 2//1 3//1
f 1//1 3//1 4//1
f 3//1 5//1 4//1
f 5//1 6//1 4//1
f 4//1 7//1 8//1
f 4//1 8//1 9//1
f 8//1 10//1 9//1
f 9//1 10//1 11//1
f 7//1 4//1 6//1
f 9//1 11//1 12//1
f 13//2 14//2 15//3
f 16//4 17//5 15//3
f 18//6 19//4 15//7
f 18//6 20//8 21//4
f 22//8 18//6 23//9
f 24//10 25//8 23//11
f 24//12 26//13 27//8
f 28//14 29//15 30//16
f 24//17 28//14 31//18
f 32//13 29//15 33//19
f 34//19 29//15 35//20
f 36//21 37//19 35//20
f 38//22 39//21 35//20
f 38//22 40//23 41//21
f 42//21 40//23 43//24
f 44//24 40//23 45//25
f 46//26 47//27 48//28
f 49//26 50//29 45//30
f 47//31 51//32 52//33
f 53//34 54//32 45//35
f 55//36 56//26 57//37
f 57//38 58//32 59//39
f 53//40 60//41 61//42
f 60//41 62//43 63//44
f 64//45 65//46 66//47
f 66//47 67//45 64//45
f 68//48 66//47 65//46
f 68//48 69//49 66//47
f 66//47 69//49 70//50
f 70//50 69//49 71//51
f 72//52 70//50 71//51
f 72//52 73//53 70//50
f 72//52 74//54 73//53
f 73//53 74//54 75//55
f 62//43 73//53 75//55
f 62//43 60//41 73//53
f 63//44 61//42 60//41
f 61//42 59//56 53//40
f 53//40 59//56 76//26
f 77//26 55//36 52//33
f 78//57 79//57 80//57
f 81//57 82//57 80//57
f 83//57 81//57 80//57
f 84//57 83//57 80//57
f 85//58 84//57 80//57
f 86//57 85//58 80//57
f 87//57 86//57 80//57
f 88//57 87//57 80//57
f 79//57 88//57 80//57
f 89//57 79//57 78//57
f 78//57 90//59 89//57
f 78//57 91//59 90//59
f 78//57 92//57 91//59
f 78//57 93//57 92//57
f 94//57 78//57 95//57
f 94//57 96//57 78//57
f 78//57 96//57 93//57
f 97//60 98//61 99//61
f 100//62 97//60 99//61
f 100//62 101//63 97//60
f 97//60 101//63 102//64
f 103//65 104//66 105//67
f 106//68 107//69 108//70
f 109//71 110//72 107//69
f 111//73 98//61 97//60
f 112//74 113//75 114//74
f 112//74 115//76 113//75
f 113//75 115//76 116//77
f 116//77 115//76 110//72
f 117//78 116//77 110//72
f 109//71 117//78 110//72
f 107//69 118//79 108//70
f 108//70 118//79 104//66
f 104//66 118//79 105//67
f 119//80 105//67 120//81
f 120//81 97//60 121//82
f 102//64 122//83 123//84
f 122//83 124//85 125//86
f 126//87 127//88 128//89
f 129//90 130//91 131//92
f 132//93 133//94 134//95
f 134//95 133//94 135//96
f 135//96 133//94 136//97
f 136//97 133//94 137//98
f 137//98 133//94 131//92
f 130//91 137//98 131//92
f 129//90 131//92 128//89
f 138//99 129//90 128//89
f 126//87 125//86 124//85
f 126//87 128//89 125//86
f 125//86 123//84 122//83
f 123//84 97//60 102//64
f 123//84 121//82 97//60
f 121//82 119//80 120//81
f 105//67 119//80 103//65
f 109//71 107//69 106//68
f 138//99 128//89 127//88
f 139//1 140//1 141//1
f 139//1 142//1 143//1
f 139//1 144//1 145//1
f 139//1 146//1 147//1
f 141//1 148//1 149//1
f 141//1 150//1 151//1
f 141//1 152//1 153//1
f 154//1 155//1 156//1
f 141//1 157//1 158//1
f 155//1 141//1 159//1
f 160//100 161//100 162//100
f 163//100 164//100 165//100
s 0
f 166//100 167//100 168//100
f 167//100 169//100 170//100
f 169//101 171//100 172//100
s 1
f 173//100 174//100 175//100
f 176//100 177//100 178//100
f 179//100 180//100 181//100
f 182//100 183//100 184//100
f 185//100 186//100 187//100
f 188//100 189//100 190//100
f 191//100 192//100 193//100
f 194//100 195//100 196//100
f 197//100 198//100 199//100
f 200//100 201//100 202//100
f 203//100 204//100 205//100
f 206//100 207//100 208//100
f 209//100 210//100 211//100
f 212//100 213//100 214//100
f 215//100 216//100 217//100
f 218//100 219//100 220//100
f 216//100 221//100 222//100
f 223//100 224//100 216//100
f 225//100 226//100 227//100
f 228//100 229//100 227//100
f 230//100 231//100 227//100
f 232//100 233//100 227//100
f 234//100 235//100 227//100
f 236//100 237//100 227//100
f 238//100 239//100 227//100
f 227//100 240//100 216//100
f 241//100 242//100 216//100
f 243//100 244//100 216//100
f 245//100 246//100 216//100
f 247//100 227//100 248//100
f 249//100 250//100 251//100
f 252//100 253//100 216//100
f 254//100 255//100 256//100
s 0
f 257//100 258//100 259//101
s 1
f 260//100 261//100 259//100
s 0
f 262//100 263//100 257//100
s 1
f 264//100 265//100 266//100
f 267//102 268//102 269//102
f 270//102 271//102 272//102
f 273//103 274//103 275//103
f 276//103 277//103 278//103
f 279//101 280//101 281//101
f 282//101 283//101 284//101
f 285//101 286//101 287//101
f 288//101 289//101 285//101
f 290//101 291//101 289//101
f 292//101 293//101 291//101
f 294//101 295//101 293//101
f 296//101 297//101 295//101
f 298//104 299//104 297//104
f 300//101 301//101 299//101
f 302//101 303//101 301//101
f 304//101 305//101 303//101
f 306//105 307//105 305//105
f 308//101 309//101 307//101
f 310//101 311//101 309//101
f 309//101 312//101 313//101
f 313//104 314//104 315//104
f 315//101 316//101 317//101
f 317//101 318//101 319//101
f 319//101 320//101 321//101
f 321//101 322//101 323//101
f 323//101 324//101 325//101
f 325//101 326//101 327//101
f 327//101 328//101 329//101
f 329//101 330//101 331//101
f 332//101 333//101 334//101
f 335//101 333//101 336//101
f 337//101 332//101 338//101
f 339//101 337//101 340//101
f 341//101 339//101 342//101
f 343//101 341//101 344//101
f 345//101 343//101 346//101
f 347//101 345//101 348//101
f 284//101 347//101 349//101
f 350//101 351//101 284//101
f 352//101 353//101 283//101
f 354//101 355//101 353//101
f 356//101 357//101 355//101
f 358//104 359//104 357//104
f 360//101 361//101 359//101
f 362//101 363//101 364//101
f 362//101 365//101 366//101
f 364//101 367//101 368//101
f 368//101 369//101 370//101
f 370//101 371//101 372//101
f 372//101 373//101 374//101
f 374//101 375//101 376//101
f 376//101 377//101 378//101
f 378//101 379//101 380//101
f 380//101 381//101 382//101
f 382//101 383//101 384//101
f 384//101 385//101 386//101
f 386//105 387//105 388//105
f 388//101 389//101 390//101
f 391//101 281//101 388//101
f 392//101 280//101 393//101
f 394//101 392//101 395//101
f 396//101 394//101 397//101
f 398//101 399//101 396//101
f 400//101 401//101 399//101
f 402//101 403//101 401//101
f 404//101 405//101 403//101
f 406//101 407//101 405//101
f 331//101 408//101 336//101
f 409//101 410//101 407//101
f 411//101 365//101 361//101
f 410//101 412//101 413//101
f 414//106 415//107 416//106
f 417//108 418//109 419//108
f 420//109 421//109 419//108
f 422//110 423//110 421//109
f 424//111 425//111 423//110
f 426//112 427//112 425//113
f 428//114 427//112 429//112
f 430//115 431//116 432//116
f 433//115 431//116 434//115
f 435//117 433//118 436//117
f 435//119 437//119 438//120
f 439//120 440//120 441//121
f 442//121 443//121 444//122
f 442//121 445//123 446//123
f 446//124 447//125 448//125
f 449//126 450//127 448//126
f 451//128 452//129 453//128
f 454//129 455//129 453//128
f 456//130 457//130 455//131
f 458//132 457//130 459//130
f 460//133 461//132 462//132
f 463//133 461//132 464//133
f 465//134 463//133 466//135
f 465//135 467//135 468//136
f 469//137 470//137 471//138
f 469//137 472//139 473//139
f 473//139 474//140 475//140
f 476//141 477//142 475//141
f 478//143 479//144 480//143
f 481//145 482//145 480//143
f 483//146 484//146 482//147
f 485//148 484//149 486//149
f 487//150 488//151 489//151
f 490//152 488//151 491//152
f 492//153 490//154 493//153
f 492//155 494//155 495//156
f 496//157 497//157 498//158
f 496//157 499//158 500//158
f 500//159 501//160 502//160
f 503//160 504//1 502//160
f 505//1 506//161 507//1
f 508//161 509//161 507//1
f 510//162 511//162 509//161
f 512//163 511//164 513//164
f 514//165 515//166 516//166
f 517//167 518//168 519//168
f 520//167 518//168 521//167
f 522//169 520//170 523//169
f 522//169 524//169 525//171
f 526//172 527//172 528//173
f 526//172 529//173 530//173
f 530//174 531//175 532//175
f 533//176 534//177 532//176
f 535//178 536//179 537//178
f 538//180 539//180 537//178
f 540//181 541//181 539//179
f 542//182 541//183 543//183
f 544//184 545//182 546//182
f 547//185 545//182 548//184
f 549//186 547//185 550//186
f 549//186 551//186 552//187
f 553//187 554//187 555//188
f 553//187 556//189 557//189
f 558//190 559//191 560//190
f 561//192 562//192 558//190
f 563//192 558//190 564//190
f 559//191 565//191 566//190
f 567//193 568//194 559//194
f 569//193 570//194 567//193
f 571//193 567//193 572//195
f 573//193 572//195 574//195
f 572//195 575//196 576//195
f 575//196 577//196 578//195
f 579//197 580//198 575//198
f 581//197 582//198 579//197
f 583//197 579//197 584//199
f 585//197 584//199 586//200
f 584//201 587//202 588//201
f 587//202 589//202 590//201
f 591//203 592//204 587//204
f 593//203 594//204 591//203
f 595//205 591//205 596//206
f 597//205 596//207 598//207
f 596//208 599//209 600//208
f 599//210 601//210 602//206
f 603//211 604//209 599//209
f 605//212 606//209 603//212
f 607//213 603//213 608//214
f 609//215 608//214 610//214
f 608//214 611//216 612//214
f 611//216 613//216 614//214
f 557//188 615//217 611//217
f 616//188 617//217 557//188
f 549//186 618//187 553//187
f 547//185 619//185 620//186
f 545//182 541//183 621//182
f 622//181 539//180 623//180
f 624//177 537//177 532//176
f 625//218 626//175 530//218
f 522//169 627//171 526//171
f 520//170 628//170 629//219
f 518//165 515//166 630//165
f 515//163 511//164 631//163
f 632//162 509//161 633//161
f 634//1 507//1 502//160
f 635//159 636//160 500//159
f 492//155 637//156 496//156
f 490//154 638//154 639//153
f 488//148 484//149 640//148
f 641//146 482//147 642//147
f 643//142 480//142 475//141
f 644//220 645//221 473//138
f 465//135 646//136 469//136
f 463//222 647//222 648//135
f 461//132 457//130 649//132
f 650//130 455//129 651//129
f 652//127 453//127 448//125
f 653//124 654//125 446//124
f 439//120 655//223 442//223
f 435//119 656//224 439//224
f 433//118 657//118 658//117
f 659//113 660//112 425//113
f 421//109 661//109 662//110
f 416//106 663//225 664//106
f 416//106 665//225 666//225
f 667//114 431//114 427//112
f 423//110 668//110 669//111
f 419//107 416//106 670//107
f 671//226 672//227 673//228
f 674//229 675//230 676//231
f 677//232 678//233 679//227
f 680//234 681//233 682//235
f 683//236 684//237 685//238
f 686//239 687//238 688//240
f 689//241 690//240 691//242
f 692//243 693//244 694//245
f 695//242 696//246 697//247
f 698//246 699//248 700//249
f 701//248 702//250 703//249
f 704//251 705//252 706//253
f 707//254 708//255 709//252
f 710//256 711//257 712//254
f 713//258 714//259 715//260
f 716//258 717//256 718//261
f 719//258 720//261 721//262
f 722//261 723//263 724//262
f 725//264 726//265 727//266
f 728//263 729//264 730//262
f 731//265 732//267 733//268
f 734//269 735//270 736//271
f 737//270 738//272 739//273
f 738//274 740//275 741//273
f 742//273 743//276 744//277
f 745//278 746//277 747//279
f 748//278 749//280 750//281
f 751//282 752//283 753//284
f 754//283 755//285 756//286
f 757//287 758//288 759//289
f 760//288 761//290 762//289
f 763//291 764//292 765//290
f 766//293 767//294 768//295
f 769//296 770//297 771//298
f 772//299 773//300 774//301
f 775//302 776//299 777//302
f 778//303 779//302 780//302
f 781//303 782//302 783//304
f 784//303 785//304 786//305
f 787//306 788//307 789//308
f 790//309 791//310 792//311
f 793//312 794//313 795//314
f 796//315 797//316 798//317
f 799//318 800//319 801//316
f 802//320 803//321 804//322
f 805//323 806//324 807//320
f 808//325 809//326 810//327
f 811//328 812//329 813//330
f 814//331 815//328 816//332
f 817//333 818//334 819//335
f 820//336 821//337 822//335
f 823//338 824//334 825//339
f 826//340 827//338 828//341
f 829//342 830//340 831//343
f 832//344 833//342 834//345
f 835//346 836//337 837//328
f 838//347 839//348 840//349
f 841//350 842//351 843//352
f 844//350 845//353 846//354
f 847//352 848//355 849//356
f 850//355 851//357 852//356
f 853//358 854//359 855//355
f 856//360 857//359 858//358
f 859//360 860//358 861//361
f 862//360 863//361 864//362
f 865//360 866//362 867//363
f 868//362 869//364 870//363
f 871//365 872//366 873//363
f 874//367 875//366 876//364
f 877//368 878//366 879//369
f 880//370 881//367 882//371
f 883//372 884//373 885//374
f 886//372 887//375 888//376
f 889//375 890//377 891//378
f 892//377 893//379 894//378
f 895//380 896//381 897//377
f 898//382 899//379 900//383
f 901//384 902//380 903//385
f 904//382 905//386 906//387
f 907//385 908//388 909//387
f 910//388 911//389 912//387
f 913//390 914//345 915//388
f 916//342 917//343 918//345
f 919//340 920//341 921//343
f 922//338 923//339 924//341
f 925//391 926//336 927//335
f 928//392 929//328 930//337
f 931//328 814//331 835//393
f 932//394 816//332 933//328
f 934//395 935//394 936//396
f 937//320 938//397 939//323
f 940//322 941//398 942//320
f 943//316 944//315 945//399
f 946//317 947//312 948//315
f 949//314 950//311 951//312
f 952//307 953//305 954//304
f 955//299 956//301 957//302
f 958//400 959//298 960//301
f 961//294 962//401 963//291
f 964//291 965//290 966//288
f 967//287 968//402 969//286
f 970//283 971//403 972//284
f 973//280 974//283 975//282
f 976//273 977//404 978//405
f 740//406 743//407 979//408
f 980//270 981//409 982//271
f 983//410 984//411 985//268
f 986//263 987//265 988//264
f 989//260 990//259 991//257
f 992//412 993//413 994//252
f 995//248 996//412 997//250
f 998//414 999//243 1000//415
f 1001//236 1002//238 1003//239
f 1004//234 1005//235 1006//236
f 1007//233 1008//416 1009//235
f 1010//417 1011//418 1012//227
f 1013//419 1014//420 1015//421
f 1016//240 1017//241 1018//239
f 1019//249 1020//247 1021//246
f 1022//422 1023//419 1024//231
f 95//57 78//57 1025//423
f 1026//423 1027//424 95//57
f 95//57 1028//425 1029//426
s 0
f 1030//426 1031//57 1032//427
s 1
f 1033//428 132//93 134//95
f 1034//429 1035//430 132//93
f 1036//431 1037//426 1038//427
f 1039//430 1040//432 132//93
f 67//45 1041//433 1042//434
f 64//45 67//45 1043//434
f 1044//435 67//436 1045//437
f 80//57 82//57 1046//438
f 1047//438 82//57 1048//439
f 1049//440 82//57 1050//441
s 0
f 1051//57 1052//439 1053//442
s 1
f 1054//443 1055//442 1056//444
