# Blender 4.4.3
# www.blender.org
mtllib Mesh_18.003.mtl
o Mesh_18.003
v -0.000210 0.008776 -0.002503
v -0.000210 0.008830 -0.002503
v -0.000210 0.008827 -0.002505
v -0.000210 0.008824 -0.002507
v -0.000210 0.008821 -0.002509
v -0.000210 0.008817 -0.002510
v -0.000210 0.008810 -0.002512
v -0.000210 0.008814 -0.002512
v -0.000210 0.008807 -0.002513
v -0.000210 0.008803 -0.002513
v -0.000210 0.008799 -0.002513
v -0.000210 0.008796 -0.002512
v -0.000210 0.008792 -0.002512
v -0.000210 0.008789 -0.002510
v -0.000210 0.008785 -0.002509
v -0.000210 0.008782 -0.002507
v -0.000210 0.008779 -0.002505
v -0.000210 0.008773 -0.002500
v -0.000210 0.008833 -0.002500
v -0.000210 0.008770 -0.002497
v -0.000210 0.008836 -0.002497
v -0.000210 0.008766 -0.002493
v -0.000210 0.008840 -0.002493
v -0.000210 0.008763 -0.002490
v -0.000210 0.008843 -0.002490
v -0.000210 0.008760 -0.002486
v -0.000210 0.008846 -0.002486
v -0.000210 0.008757 -0.002483
v -0.000210 0.008849 -0.002483
v -0.000210 0.008754 -0.002479
v -0.000210 0.008852 -0.002479
v -0.000210 0.008854 -0.002475
v -0.000210 0.008752 -0.002475
v -0.000210 0.008749 -0.002471
v -0.000210 0.008744 -0.002463
v -0.000210 0.008859 -0.002467
v -0.000210 0.008747 -0.002467
v -0.000210 0.008857 -0.002471
v -0.000210 0.008872 -0.002442
v -0.000210 0.008870 -0.002447
v -0.000210 0.008872 -0.002440
v -0.000210 0.008868 -0.002451
v -0.000210 0.008866 -0.002455
v -0.000210 0.008734 -0.002440
v -0.000210 0.008738 -0.002451
v -0.000210 0.008740 -0.002455
v -0.000210 0.008736 -0.002447
v -0.000210 0.008864 -0.002459
v -0.000210 0.008742 -0.002459
v -0.000210 0.008862 -0.002463
v -0.000210 0.008734 -0.002442
v 0.000020 0.008734 -0.002440
v 0.000020 0.008734 -0.002442
v 0.000020 0.008736 -0.002447
v 0.000020 0.008738 -0.002451
v 0.000020 0.008740 -0.002455
v 0.000020 0.008866 -0.002455
v 0.000020 0.008742 -0.002459
v 0.000020 0.008864 -0.002459
v 0.000020 0.008744 -0.002463
v 0.000020 0.008862 -0.002463
v 0.000020 0.008747 -0.002467
v 0.000020 0.008749 -0.002471
v 0.000020 0.008859 -0.002467
v 0.000020 0.008857 -0.002471
v 0.000020 0.008854 -0.002475
v 0.000020 0.008752 -0.002475
v 0.000020 0.008754 -0.002479
v 0.000020 0.008852 -0.002479
v 0.000020 0.008757 -0.002483
v 0.000020 0.008849 -0.002483
v 0.000020 0.008760 -0.002486
v 0.000020 0.008846 -0.002486
v 0.000020 0.008840 -0.002493
v 0.000020 0.008843 -0.002490
v 0.000020 0.008766 -0.002493
v 0.000020 0.008836 -0.002497
v 0.000020 0.008770 -0.002497
v 0.000020 0.008773 -0.002500
v 0.000020 0.008830 -0.002503
v 0.000020 0.008833 -0.002500
v 0.000020 0.008776 -0.002503
v 0.000020 0.008827 -0.002505
v 0.000020 0.008824 -0.002507
v 0.000020 0.008779 -0.002505
v 0.000020 0.008782 -0.002507
v 0.000020 0.008785 -0.002509
v 0.000020 0.008792 -0.002512
v 0.000020 0.008789 -0.002510
v 0.000020 0.008796 -0.002512
v 0.000020 0.008799 -0.002513
v 0.000020 0.008803 -0.002513
v 0.000020 0.008807 -0.002513
v 0.000020 0.008810 -0.002512
v 0.000020 0.008814 -0.002512
v 0.000020 0.008817 -0.002510
v 0.000020 0.008821 -0.002509
v 0.000020 0.008763 -0.002490
v 0.000020 0.008872 -0.002440
v 0.000020 0.008868 -0.002451
v 0.000020 0.008872 -0.002442
v 0.000020 0.008870 -0.002447
v 0.000020 0.008734 -0.002442
v 0.000020 0.008734 -0.002440
v -0.000038 0.008734 -0.002442
v 0.000020 0.008734 -0.002440
v -0.000210 0.008734 -0.002440
v -0.000210 0.008734 -0.002442
v -0.000095 0.008734 -0.002442
v 0.000020 0.008734 -0.002440
v -0.000152 0.008734 -0.002442
v 0.000020 0.008734 -0.002440
v 0.000020 0.008734 -0.002440
v -0.000210 0.008734 -0.002442
v -0.000115 0.008805 -0.002440
v -0.000115 0.008803 -0.002513
v -0.000115 0.008803 -0.002440
v -0.000115 0.008807 -0.002513
v -0.000115 0.008805 -0.002513
v -0.000116 0.008809 -0.002512
v -0.000115 0.008807 -0.002440
v -0.000116 0.008809 -0.002440
v -0.000116 0.008811 -0.002512
v -0.000116 0.008811 -0.002440
v -0.000117 0.008813 -0.002512
v -0.000117 0.008813 -0.002440
v -0.000118 0.008815 -0.002511
v -0.000117 0.008815 -0.002440
v -0.000118 0.008817 -0.002440
v -0.000119 0.008817 -0.002510
v -0.000120 0.008819 -0.002510
v -0.000119 0.008819 -0.002440
v -0.000121 0.008821 -0.002509
v -0.000120 0.008820 -0.002440
v -0.000122 0.008822 -0.002440
v -0.000122 0.008822 -0.002508
v -0.000123 0.008824 -0.002507
v -0.000125 0.008825 -0.002506
v -0.000123 0.008823 -0.002440
v -0.000129 0.008829 -0.002504
v -0.000129 0.008829 -0.002440
v -0.000131 0.008830 -0.002503
v -0.000131 0.008830 -0.002440
v -0.000128 0.008827 -0.002440
v -0.000128 0.008828 -0.002505
v -0.000126 0.008826 -0.002440
v -0.000126 0.008826 -0.002506
v -0.000124 0.008825 -0.002440
v -0.000115 0.008801 -0.002513
v -0.000115 0.008801 -0.002440
v -0.000115 0.008799 -0.002513
v -0.000115 0.008798 -0.002440
v -0.000116 0.008797 -0.002512
v -0.000116 0.008796 -0.002440
v -0.000116 0.008795 -0.002512
v -0.000117 0.008793 -0.002512
v -0.000117 0.008793 -0.002440
v -0.000117 0.008791 -0.002440
v -0.000118 0.008791 -0.002511
v -0.000119 0.008789 -0.002510
v -0.000118 0.008789 -0.002440
v -0.000120 0.008787 -0.002510
v -0.000120 0.008787 -0.002440
v -0.000121 0.008785 -0.002440
v -0.000121 0.008785 -0.002509
v -0.000123 0.008783 -0.002440
v -0.000125 0.008781 -0.002506
v -0.000124 0.008781 -0.002440
v -0.000123 0.008782 -0.002507
v -0.000122 0.008784 -0.002508
v -0.000126 0.008780 -0.002506
v -0.000128 0.008779 -0.002505
v -0.000129 0.008777 -0.002504
v -0.000128 0.008778 -0.002440
v -0.000126 0.008780 -0.002440
v -0.000131 0.008776 -0.002503
v -0.000130 0.008777 -0.002440
v -0.000133 0.008776 -0.002502
v -0.000132 0.008776 -0.002440
v -0.000134 0.008775 -0.002502
v -0.000135 0.008775 -0.002440
v -0.000136 0.008774 -0.002501
v -0.000137 0.008774 -0.002440
v -0.000138 0.008774 -0.002501
v -0.000139 0.008774 -0.002440
v -0.000140 0.008774 -0.002500
v -0.000141 0.008773 -0.002500
v -0.000143 0.008773 -0.002500
v -0.000142 0.008773 -0.002440
v -0.000144 0.008773 -0.002440
v -0.000145 0.008773 -0.002500
v -0.000147 0.008773 -0.002500
v -0.000147 0.008773 -0.002440
v -0.000149 0.008773 -0.002440
v -0.000149 0.008773 -0.002500
v -0.000151 0.008774 -0.002440
v -0.000151 0.008774 -0.002500
v -0.000154 0.008774 -0.002440
v -0.000152 0.008774 -0.002501
v -0.000156 0.008775 -0.002440
v -0.000154 0.008774 -0.002501
v -0.000156 0.008775 -0.002502
v -0.000158 0.008776 -0.002440
v -0.000157 0.008776 -0.002502
v -0.000159 0.008776 -0.002503
v -0.000160 0.008777 -0.002440
v -0.000161 0.008777 -0.002504
v -0.000162 0.008779 -0.002440
v -0.000162 0.008778 -0.002505
v -0.000164 0.008780 -0.002506
v -0.000164 0.008780 -0.002440
v -0.000166 0.008782 -0.002440
v -0.000165 0.008781 -0.002506
v -0.000167 0.008782 -0.002507
v -0.000168 0.008784 -0.002440
v -0.000168 0.008784 -0.002508
v -0.000169 0.008785 -0.002509
v -0.000169 0.008785 -0.002440
v -0.000171 0.008787 -0.002440
v -0.000172 0.008790 -0.002440
v -0.000170 0.008787 -0.002510
v -0.000171 0.008789 -0.002510
v -0.000173 0.008792 -0.002440
v -0.000172 0.008791 -0.002511
v -0.000173 0.008793 -0.002512
v -0.000174 0.008794 -0.002440
v -0.000174 0.008795 -0.002512
v -0.000175 0.008799 -0.002440
v -0.000174 0.008796 -0.002440
v -0.000174 0.008797 -0.002512
v -0.000175 0.008799 -0.002513
v -0.000174 0.008809 -0.002512
v -0.000174 0.008811 -0.002512
v -0.000174 0.008811 -0.002440
v -0.000175 0.008801 -0.002440
v -0.000175 0.008801 -0.002513
v -0.000171 0.008817 -0.002510
v -0.000170 0.008819 -0.002510
v -0.000171 0.008818 -0.002440
v -0.000167 0.008824 -0.002507
v -0.000167 0.008824 -0.002440
v -0.000168 0.008822 -0.002440
v -0.000161 0.008829 -0.002504
v -0.000163 0.008827 -0.002440
v -0.000162 0.008827 -0.002505
v -0.000159 0.008829 -0.002440
v -0.000157 0.008830 -0.002502
v -0.000157 0.008831 -0.002440
v -0.000152 0.008832 -0.002501
v -0.000152 0.008832 -0.002440
v -0.000155 0.008831 -0.002440
v -0.000149 0.008833 -0.002500
v -0.000150 0.008833 -0.002440
v -0.000151 0.008832 -0.002500
v -0.000147 0.008833 -0.002500
v -0.000145 0.008833 -0.002440
v -0.000148 0.008833 -0.002440
v -0.000145 0.008833 -0.002500
v -0.000143 0.008833 -0.002500
v -0.000141 0.008833 -0.002500
v -0.000143 0.008833 -0.002440
v -0.000140 0.008832 -0.002500
v -0.000140 0.008833 -0.002440
v -0.000138 0.008832 -0.002501
v -0.000138 0.008832 -0.002440
v -0.000136 0.008832 -0.002501
v -0.000136 0.008831 -0.002440
v -0.000133 0.008830 -0.002502
v -0.000133 0.008831 -0.002440
v -0.000134 0.008831 -0.002502
v -0.000154 0.008832 -0.002501
v -0.000156 0.008831 -0.002502
v -0.000159 0.008830 -0.002503
v -0.000161 0.008828 -0.002440
v -0.000164 0.008826 -0.002506
v -0.000165 0.008825 -0.002440
v -0.000165 0.008825 -0.002506
v -0.000168 0.008822 -0.002508
v -0.000170 0.008820 -0.002440
v -0.000169 0.008821 -0.002509
v -0.000172 0.008816 -0.002440
v -0.000172 0.008815 -0.002511
v -0.000173 0.008813 -0.002440
v -0.000173 0.008813 -0.002512
v -0.000174 0.008809 -0.002440
v -0.000175 0.008807 -0.002513
v -0.000175 0.008806 -0.002440
v -0.000175 0.008805 -0.002513
v -0.000175 0.008804 -0.002440
v -0.000175 0.008803 -0.002513
v -0.000152 0.008872 -0.002442
v -0.000210 0.008872 -0.002442
v 0.000020 0.008872 -0.002440
v -0.000210 0.008872 -0.002442
v -0.000210 0.008872 -0.002440
v 0.000020 0.008872 -0.002440
v -0.000038 0.008872 -0.002442
v -0.000095 0.008872 -0.002442
v 0.000020 0.008872 -0.002440
v 0.000020 0.008872 -0.002442
v 0.000020 0.008872 -0.002440
v 0.000020 0.008872 -0.002440
v -0.000129 0.008829 -0.002440
v -0.000128 0.008827 -0.002440
v 0.000020 0.008872 -0.002440
v -0.000129 0.008829 -0.002440
v 0.000020 0.008872 -0.002440
v -0.000131 0.008830 -0.002440
v -0.000128 0.008827 -0.002440
v -0.000126 0.008826 -0.002440
v 0.000020 0.008872 -0.002440
v -0.000126 0.008826 -0.002440
v -0.000124 0.008825 -0.002440
v 0.000020 0.008872 -0.002440
v -0.000124 0.008825 -0.002440
v -0.000123 0.008823 -0.002440
v 0.000020 0.008872 -0.002440
v -0.000123 0.008823 -0.002440
v -0.000122 0.008822 -0.002440
v 0.000020 0.008872 -0.002440
v -0.000122 0.008822 -0.002440
v -0.000120 0.008820 -0.002440
v 0.000020 0.008872 -0.002440
v -0.000120 0.008820 -0.002440
v -0.000119 0.008819 -0.002440
v 0.000020 0.008872 -0.002440
v -0.000119 0.008819 -0.002440
v -0.000118 0.008817 -0.002440
v 0.000020 0.008872 -0.002440
v -0.000118 0.008817 -0.002440
v -0.000117 0.008815 -0.002440
v 0.000020 0.008872 -0.002440
v -0.000117 0.008815 -0.002440
v -0.000117 0.008813 -0.002440
v 0.000020 0.008872 -0.002440
v -0.000117 0.008813 -0.002440
v -0.000116 0.008811 -0.002440
v 0.000020 0.008872 -0.002440
v -0.000116 0.008811 -0.002440
v -0.000116 0.008809 -0.002440
v 0.000020 0.008872 -0.002440
v -0.000116 0.008809 -0.002440
v -0.000115 0.008807 -0.002440
v 0.000020 0.008872 -0.002440
v -0.000115 0.008807 -0.002440
v -0.000115 0.008805 -0.002440
v 0.000020 0.008872 -0.002440
v -0.000115 0.008805 -0.002440
v -0.000115 0.008803 -0.002440
v 0.000020 0.008872 -0.002440
v -0.000115 0.008803 -0.002440
v 0.000020 0.008734 -0.002440
v 0.000020 0.008872 -0.002440
v -0.000115 0.008801 -0.002440
v 0.000020 0.008734 -0.002440
v -0.000115 0.008803 -0.002440
v -0.000115 0.008798 -0.002440
v 0.000020 0.008734 -0.002440
v -0.000115 0.008801 -0.002440
v -0.000116 0.008796 -0.002440
v 0.000020 0.008734 -0.002440
v -0.000115 0.008798 -0.002440
v 0.000020 0.008734 -0.002440
v -0.000116 0.008796 -0.002440
v -0.000117 0.008793 -0.002440
v 0.000020 0.008734 -0.002440
v -0.000117 0.008793 -0.002440
v -0.000117 0.008791 -0.002440
v 0.000020 0.008734 -0.002440
v -0.000117 0.008791 -0.002440
v -0.000118 0.008789 -0.002440
v 0.000020 0.008734 -0.002440
v -0.000118 0.008789 -0.002440
v -0.000120 0.008787 -0.002440
v 0.000020 0.008734 -0.002440
v -0.000120 0.008787 -0.002440
v -0.000121 0.008785 -0.002440
v 0.000020 0.008734 -0.002440
v -0.000121 0.008785 -0.002440
v -0.000123 0.008783 -0.002440
v 0.000020 0.008734 -0.002440
v -0.000123 0.008783 -0.002440
v -0.000124 0.008781 -0.002440
v -0.000128 0.008778 -0.002440
v -0.000130 0.008777 -0.002440
v 0.000020 0.008734 -0.002440
v -0.000128 0.008778 -0.002440
v 0.000020 0.008734 -0.002440
v -0.000126 0.008780 -0.002440
v 0.000020 0.008734 -0.002440
v -0.000124 0.008781 -0.002440
v -0.000126 0.008780 -0.002440
v -0.000132 0.008776 -0.002440
v 0.000020 0.008734 -0.002440
v -0.000130 0.008777 -0.002440
v -0.000135 0.008775 -0.002440
v 0.000020 0.008734 -0.002440
v -0.000132 0.008776 -0.002440
v -0.000137 0.008774 -0.002440
v 0.000020 0.008734 -0.002440
v -0.000135 0.008775 -0.002440
v -0.000210 0.008734 -0.002440
v 0.000020 0.008734 -0.002440
v -0.000137 0.008774 -0.002440
v -0.000210 0.008734 -0.002440
v -0.000137 0.008774 -0.002440
v -0.000139 0.008774 -0.002440
v -0.000210 0.008734 -0.002440
v -0.000139 0.008774 -0.002440
v -0.000142 0.008773 -0.002440
v -0.000210 0.008734 -0.002440
v -0.000142 0.008773 -0.002440
v -0.000144 0.008773 -0.002440
v -0.000210 0.008734 -0.002440
v -0.000144 0.008773 -0.002440
v -0.000147 0.008773 -0.002440
v -0.000151 0.008774 -0.002440
v -0.000154 0.008774 -0.002440
v -0.000210 0.008734 -0.002440
v -0.000151 0.008774 -0.002440
v -0.000210 0.008734 -0.002440
v -0.000149 0.008773 -0.002440
v -0.000154 0.008774 -0.002440
v -0.000156 0.008775 -0.002440
v -0.000210 0.008734 -0.002440
v -0.000156 0.008775 -0.002440
v -0.000158 0.008776 -0.002440
v -0.000210 0.008734 -0.002440
v -0.000158 0.008776 -0.002440
v -0.000160 0.008777 -0.002440
v -0.000210 0.008734 -0.002440
v -0.000160 0.008777 -0.002440
v -0.000162 0.008779 -0.002440
v -0.000210 0.008734 -0.002440
v -0.000162 0.008779 -0.002440
v -0.000164 0.008780 -0.002440
v -0.000210 0.008734 -0.002440
v -0.000164 0.008780 -0.002440
v -0.000166 0.008782 -0.002440
v -0.000210 0.008734 -0.002440
v -0.000166 0.008782 -0.002440
v -0.000168 0.008784 -0.002440
v -0.000210 0.008734 -0.002440
v -0.000168 0.008784 -0.002440
v -0.000169 0.008785 -0.002440
v -0.000210 0.008734 -0.002440
v -0.000169 0.008785 -0.002440
v -0.000171 0.008787 -0.002440
v -0.000210 0.008734 -0.002440
v -0.000171 0.008787 -0.002440
v -0.000172 0.008790 -0.002440
v -0.000210 0.008734 -0.002440
v -0.000172 0.008790 -0.002440
v -0.000173 0.008792 -0.002440
v -0.000210 0.008734 -0.002440
v -0.000174 0.008794 -0.002440
v -0.000210 0.008734 -0.002440
v -0.000173 0.008792 -0.002440
v -0.000174 0.008796 -0.002440
v -0.000210 0.008734 -0.002440
v -0.000174 0.008794 -0.002440
v -0.000175 0.008799 -0.002440
v -0.000210 0.008734 -0.002440
v -0.000174 0.008796 -0.002440
v -0.000210 0.008734 -0.002440
v -0.000147 0.008773 -0.002440
v -0.000149 0.008773 -0.002440
v -0.000175 0.008804 -0.002440
v -0.000210 0.008734 -0.002440
v -0.000175 0.008801 -0.002440
v -0.000210 0.008872 -0.002440
v -0.000210 0.008734 -0.002440
v -0.000175 0.008804 -0.002440
v -0.000210 0.008872 -0.002440
v -0.000175 0.008804 -0.002440
v -0.000175 0.008806 -0.002440
v -0.000210 0.008872 -0.002440
v -0.000175 0.008806 -0.002440
v -0.000174 0.008809 -0.002440
v -0.000210 0.008872 -0.002440
v -0.000174 0.008809 -0.002440
v -0.000174 0.008811 -0.002440
v -0.000172 0.008816 -0.002440
v -0.000171 0.008818 -0.002440
v -0.000210 0.008872 -0.002440
v -0.000172 0.008816 -0.002440
v -0.000210 0.008872 -0.002440
v -0.000173 0.008813 -0.002440
v -0.000171 0.008818 -0.002440
v -0.000170 0.008820 -0.002440
v -0.000210 0.008872 -0.002440
v -0.000170 0.008820 -0.002440
v -0.000168 0.008822 -0.002440
v -0.000210 0.008872 -0.002440
v -0.000168 0.008822 -0.002440
v -0.000167 0.008824 -0.002440
v -0.000210 0.008872 -0.002440
v -0.000167 0.008824 -0.002440
v -0.000165 0.008825 -0.002440
v -0.000210 0.008872 -0.002440
v -0.000165 0.008825 -0.002440
v -0.000163 0.008827 -0.002440
v -0.000210 0.008872 -0.002440
v -0.000163 0.008827 -0.002440
v -0.000161 0.008828 -0.002440
v -0.000210 0.008872 -0.002440
v -0.000161 0.008828 -0.002440
v -0.000159 0.008829 -0.002440
v -0.000210 0.008872 -0.002440
v -0.000159 0.008829 -0.002440
v -0.000157 0.008831 -0.002440
v -0.000210 0.008872 -0.002440
v -0.000157 0.008831 -0.002440
v -0.000155 0.008831 -0.002440
v -0.000210 0.008872 -0.002440
v -0.000155 0.008831 -0.002440
v -0.000152 0.008832 -0.002440
v -0.000210 0.008872 -0.002440
v -0.000150 0.008833 -0.002440
v -0.000210 0.008872 -0.002440
v -0.000152 0.008832 -0.002440
v -0.000148 0.008833 -0.002440
v -0.000210 0.008872 -0.002440
v -0.000150 0.008833 -0.002440
v -0.000145 0.008833 -0.002440
v -0.000210 0.008872 -0.002440
v -0.000148 0.008833 -0.002440
v -0.000143 0.008833 -0.002440
v -0.000210 0.008872 -0.002440
v -0.000145 0.008833 -0.002440
v -0.000140 0.008833 -0.002440
v -0.000210 0.008872 -0.002440
v -0.000143 0.008833 -0.002440
v -0.000138 0.008832 -0.002440
v -0.000210 0.008872 -0.002440
v -0.000140 0.008833 -0.002440
v 0.000020 0.008872 -0.002440
v -0.000210 0.008872 -0.002440
v -0.000138 0.008832 -0.002440
v 0.000020 0.008872 -0.002440
v -0.000138 0.008832 -0.002440
v -0.000136 0.008831 -0.002440
v -0.000210 0.008872 -0.002440
v -0.000174 0.008811 -0.002440
v -0.000173 0.008813 -0.002440
v -0.000131 0.008830 -0.002440
v 0.000020 0.008872 -0.002440
v -0.000133 0.008831 -0.002440
v -0.000133 0.008831 -0.002440
v 0.000020 0.008872 -0.002440
v -0.000136 0.008831 -0.002440
v -0.000175 0.008799 -0.002440
v -0.000175 0.008801 -0.002440
v -0.000210 0.008734 -0.002440
v -0.000056 0.008854 -0.002476
v -0.000064 0.008852 -0.002479
v -0.000085 0.008853 -0.002476
v -0.000038 0.008853 -0.002477
v -0.000017 0.008846 -0.002486
v -0.000017 0.008849 -0.002482
v -0.000008 0.008845 -0.002487
v -0.000027 0.008843 -0.002490
v -0.000056 0.008845 -0.002487
v -0.000058 0.008839 -0.002494
v -0.000064 0.008834 -0.002499
v -0.000084 0.008839 -0.002494
v -0.000017 0.008838 -0.002494
v -0.000018 0.008834 -0.002499
v -0.000002 0.008841 -0.002492
v -0.000053 0.008850 -0.002481
v -0.000079 0.008849 -0.002483
v -0.000082 0.008842 -0.002490
v 0.000020 0.008843 -0.002490
v -0.000143 0.008868 -0.002452
v -0.000147 0.008866 -0.002457
v -0.000210 0.008868 -0.002451
v -0.000132 0.008867 -0.002453
v -0.000183 0.008849 -0.002482
v -0.000171 0.008853 -0.002476
v -0.000148 0.008851 -0.002480
v -0.000210 0.008849 -0.002483
v -0.000210 0.008852 -0.002479
v -0.000169 0.008846 -0.002486
v -0.000149 0.008842 -0.002491
v -0.000210 0.008843 -0.002490
v -0.000134 0.008846 -0.002485
v -0.000140 0.008852 -0.002479
v -0.000162 0.008857 -0.002471
v -0.000134 0.008855 -0.002474
v -0.000210 0.008852 -0.002479
v -0.000210 0.008854 -0.002475
v -0.000053 0.008859 -0.002469
v -0.000059 0.008862 -0.002463
v -0.000024 0.008860 -0.002466
v -0.000067 0.008857 -0.002471
v -0.000082 0.008860 -0.002466
v -0.000042 0.008864 -0.002459
v -0.000045 0.008867 -0.002454
v 0.000020 0.008866 -0.002455
v -0.000057 0.008865 -0.002458
v -0.000034 0.008857 -0.002471
v 0.000020 0.008862 -0.002463
v 0.000020 0.008859 -0.002467
v -0.000176 0.008863 -0.002461
v -0.000169 0.008860 -0.002466
v -0.000210 0.008862 -0.002463
v -0.000136 0.008862 -0.002463
v -0.000210 0.008857 -0.002471
v -0.000100 0.008857 -0.002471
v -0.000085 0.008862 -0.002463
v -0.000123 0.008858 -0.002470
v -0.000102 0.008853 -0.002477
v -0.000092 0.008852 -0.002479
v -0.000114 0.008850 -0.002481
v -0.000111 0.008846 -0.002486
v -0.000067 0.008865 -0.002457
v 0.000020 0.008864 -0.002459
v -0.000121 0.008865 -0.002457
v -0.000097 0.008866 -0.002455
v -0.000151 0.008870 -0.002447
v -0.000086 0.008867 -0.002453
v -0.000096 0.008870 -0.002447
v -0.000040 0.008870 -0.002446
v 0.000020 0.008836 -0.002497
v -0.000056 0.008830 -0.002503
v 0.000020 0.008854 -0.002475
v 0.000020 0.008852 -0.002479
v 0.000020 0.008849 -0.002483
v -0.000106 0.008841 -0.002491
v -0.000210 0.008870 -0.002447
v -0.000210 0.008868 -0.002451
v 0.000020 0.008870 -0.002447
v -0.000149 0.008836 -0.002497
v -0.000126 0.008836 -0.002497
v -0.000151 0.008832 -0.002500
v -0.000152 0.008832 -0.002501
v -0.000210 0.008849 -0.002483
v -0.000210 0.008846 -0.002486
v -0.000143 0.008833 -0.002500
v 0.000020 0.008836 -0.002497
v 0.000020 0.008840 -0.002493
v -0.000131 0.008830 -0.002503
v -0.000131 0.008830 -0.002503
v 0.000020 0.008868 -0.002451
v 0.000020 0.008866 -0.002455
v 0.000020 0.008843 -0.002490
v 0.000020 0.008840 -0.002493
v -0.000133 0.008830 -0.002502
v -0.000134 0.008831 -0.002502
v 0.000020 0.008836 -0.002497
v 0.000020 0.008833 -0.002500
v -0.000210 0.008864 -0.002459
v -0.000210 0.008866 -0.002455
v -0.000210 0.008854 -0.002475
v -0.000210 0.008857 -0.002471
v 0.000020 0.008857 -0.002471
v -0.000147 0.008833 -0.002500
v -0.000145 0.008833 -0.002500
v 0.000020 0.008846 -0.002486
v 0.000020 0.008849 -0.002483
v -0.000157 0.008830 -0.002502
v -0.000210 0.008833 -0.002500
v -0.000156 0.008831 -0.002502
v -0.000157 0.008830 -0.002502
v -0.000159 0.008830 -0.002503
v -0.000210 0.008833 -0.002500
v -0.000156 0.008831 -0.002502
v -0.000210 0.008833 -0.002500
v -0.000154 0.008832 -0.002501
v -0.000154 0.008832 -0.002501
v -0.000210 0.008833 -0.002500
v -0.000210 0.008836 -0.002497
v -0.000154 0.008832 -0.002501
v -0.000210 0.008836 -0.002497
v -0.000152 0.008832 -0.002501
v -0.000154 0.008832 -0.002501
v -0.000210 0.008836 -0.002497
v -0.000210 0.008840 -0.002493
v -0.000151 0.008832 -0.002500
v -0.000149 0.008833 -0.002500
v -0.000210 0.008843 -0.002490
v -0.000210 0.008846 -0.002486
v -0.000210 0.008852 -0.002479
v 0.000020 0.008843 -0.002490
v 0.000020 0.008846 -0.002486
v -0.000210 0.008857 -0.002471
v -0.000143 0.008833 -0.002500
v -0.000141 0.008833 -0.002500
v -0.000141 0.008833 -0.002500
v -0.000140 0.008832 -0.002500
v 0.000020 0.008833 -0.002500
v 0.000020 0.008830 -0.002503
v -0.000138 0.008832 -0.002501
v -0.000140 0.008832 -0.002500
v -0.000210 0.008840 -0.002493
v -0.000210 0.008843 -0.002490
v -0.000131 0.008830 -0.002503
v -0.000133 0.008830 -0.002502
v -0.000134 0.008831 -0.002502
v -0.000136 0.008832 -0.002501
v 0.000020 0.008830 -0.002503
v -0.000138 0.008832 -0.002501
v -0.000136 0.008832 -0.002501
v 0.000020 0.008836 -0.002497
v -0.000145 0.008833 -0.002500
v -0.000143 0.008833 -0.002500
v -0.000210 0.008859 -0.002467
v -0.000210 0.008862 -0.002463
v 0.000020 0.008854 -0.002475
v -0.000210 0.008857 -0.002471
v -0.000210 0.008859 -0.002467
v 0.000020 0.008852 -0.002479
v 0.000020 0.008854 -0.002475
v -0.000210 0.008862 -0.002463
v -0.000210 0.008864 -0.002459
v 0.000020 0.008857 -0.002471
v 0.000020 0.008859 -0.002467
v 0.000020 0.008870 -0.002447
v 0.000020 0.008868 -0.002451
v 0.000020 0.008872 -0.002442
v 0.000020 0.008870 -0.002447
v 0.000020 0.008868 -0.002451
v 0.000020 0.008864 -0.002459
v 0.000020 0.008866 -0.002455
v -0.000210 0.008870 -0.002447
v -0.000210 0.008872 -0.002442
v 0.000020 0.008864 -0.002459
v 0.000020 0.008862 -0.002463
v -0.000210 0.008870 -0.002447
v -0.000210 0.008868 -0.002451
v -0.000210 0.008866 -0.002455
v -0.000210 0.008868 -0.002451
v -0.000210 0.008866 -0.002455
v 0.000020 0.008854 -0.002475
v 0.000020 0.008857 -0.002471
v 0.000020 0.008849 -0.002483
v -0.000149 0.008833 -0.002500
v -0.000147 0.008833 -0.002500
v -0.000210 0.008840 -0.002493
v -0.000210 0.008833 -0.002500
v -0.000159 0.008830 -0.002503
v -0.000210 0.008830 -0.002503
v -0.000210 0.008846 -0.002486
v -0.000210 0.008830 -0.002503
v -0.000159 0.008830 -0.002503
v -0.000161 0.008829 -0.002504
v -0.000162 0.008827 -0.002505
v -0.000210 0.008830 -0.002503
v -0.000161 0.008829 -0.002504
v -0.000162 0.008827 -0.002505
v -0.000210 0.008827 -0.002505
v -0.000210 0.008830 -0.002503
v -0.000162 0.008827 -0.002505
v -0.000164 0.008826 -0.002506
v -0.000210 0.008827 -0.002505
v -0.000210 0.008827 -0.002505
v -0.000164 0.008826 -0.002506
v -0.000165 0.008825 -0.002506
v -0.000167 0.008824 -0.002507
v -0.000210 0.008827 -0.002505
v -0.000165 0.008825 -0.002506
v -0.000167 0.008824 -0.002507
v -0.000210 0.008824 -0.002507
v -0.000210 0.008827 -0.002505
v -0.000168 0.008822 -0.002508
v -0.000169 0.008821 -0.002509
v -0.000210 0.008824 -0.002507
v -0.000169 0.008821 -0.002509
v -0.000170 0.008819 -0.002510
v -0.000210 0.008821 -0.002509
v -0.000171 0.008817 -0.002510
v -0.000172 0.008815 -0.002511
v -0.000210 0.008817 -0.002510
v -0.000172 0.008815 -0.002511
v -0.000173 0.008813 -0.002512
v -0.000210 0.008814 -0.002512
v -0.000210 0.008814 -0.002512
v -0.000174 0.008811 -0.002512
v -0.000210 0.008810 -0.002512
v -0.000210 0.008810 -0.002512
v -0.000174 0.008811 -0.002512
v -0.000174 0.008809 -0.002512
v -0.000210 0.008807 -0.002513
v -0.000210 0.008810 -0.002512
v -0.000175 0.008807 -0.002513
v -0.000210 0.008803 -0.002513
v -0.000210 0.008807 -0.002513
v -0.000175 0.008805 -0.002513
v -0.000175 0.008801 -0.002513
v -0.000210 0.008803 -0.002513
v -0.000175 0.008803 -0.002513
v -0.000173 0.008793 -0.002512
v -0.000172 0.008791 -0.002511
v -0.000210 0.008792 -0.002512
v -0.000159 0.008776 -0.002503
v -0.000210 0.008776 -0.002503
v -0.000161 0.008777 -0.002504
v -0.000161 0.008777 -0.002504
v -0.000210 0.008776 -0.002503
v -0.000162 0.008778 -0.002505
v -0.000162 0.008778 -0.002505
v -0.000210 0.008776 -0.002503
v -0.000210 0.008779 -0.002505
v -0.000164 0.008780 -0.002506
v -0.000162 0.008778 -0.002505
v -0.000210 0.008779 -0.002505
v -0.000165 0.008781 -0.002506
v -0.000164 0.008780 -0.002506
v -0.000210 0.008779 -0.002505
v -0.000167 0.008782 -0.002507
v -0.000165 0.008781 -0.002506
v -0.000210 0.008779 -0.002505
v -0.000210 0.008782 -0.002507
v -0.000167 0.008782 -0.002507
v -0.000210 0.008779 -0.002505
v -0.000210 0.008782 -0.002507
v -0.000168 0.008784 -0.002508
v -0.000167 0.008782 -0.002507
v -0.000210 0.008782 -0.002507
v -0.000169 0.008785 -0.002509
v -0.000168 0.008784 -0.002508
v -0.000210 0.008782 -0.002507
v -0.000210 0.008785 -0.002509
v -0.000169 0.008785 -0.002509
v -0.000169 0.008785 -0.002509
v -0.000210 0.008785 -0.002509
v -0.000170 0.008787 -0.002510
v -0.000210 0.008789 -0.002510
v -0.000172 0.008791 -0.002511
v -0.000171 0.008789 -0.002510
v -0.000170 0.008787 -0.002510
v -0.000210 0.008789 -0.002510
v -0.000171 0.008789 -0.002510
v -0.000210 0.008789 -0.002510
v -0.000210 0.008792 -0.002512
v -0.000172 0.008791 -0.002511
v -0.000174 0.008795 -0.002512
v -0.000173 0.008793 -0.002512
v -0.000210 0.008792 -0.002512
v -0.000210 0.008796 -0.002512
v -0.000174 0.008795 -0.002512
v -0.000210 0.008792 -0.002512
v -0.000175 0.008799 -0.002513
v -0.000210 0.008796 -0.002512
v -0.000210 0.008799 -0.002513
v -0.000175 0.008799 -0.002513
v -0.000174 0.008797 -0.002512
v -0.000210 0.008796 -0.002512
v -0.000175 0.008801 -0.002513
v -0.000175 0.008799 -0.002513
v -0.000210 0.008799 -0.002513
v -0.000210 0.008803 -0.002513
v -0.000175 0.008801 -0.002513
v -0.000210 0.008799 -0.002513
v -0.000175 0.008805 -0.002513
v -0.000175 0.008803 -0.002513
v -0.000210 0.008803 -0.002513
v -0.000175 0.008807 -0.002513
v -0.000175 0.008805 -0.002513
v -0.000210 0.008807 -0.002513
v -0.000174 0.008809 -0.002512
v -0.000175 0.008807 -0.002513
v -0.000210 0.008810 -0.002512
v -0.000174 0.008811 -0.002512
v -0.000210 0.008814 -0.002512
v -0.000173 0.008813 -0.002512
v -0.000210 0.008814 -0.002512
v -0.000210 0.008817 -0.002510
v -0.000172 0.008815 -0.002511
v -0.000210 0.008817 -0.002510
v -0.000170 0.008819 -0.002510
v -0.000171 0.008817 -0.002510
v -0.000210 0.008817 -0.002510
v -0.000210 0.008821 -0.002509
v -0.000170 0.008819 -0.002510
v -0.000210 0.008821 -0.002509
v -0.000210 0.008824 -0.002507
v -0.000169 0.008821 -0.002509
v -0.000210 0.008824 -0.002507
v -0.000167 0.008824 -0.002507
v -0.000168 0.008822 -0.002508
v -0.000210 0.008796 -0.002512
v -0.000174 0.008797 -0.002512
v -0.000174 0.008795 -0.002512
v -0.000210 0.008789 -0.002510
v -0.000170 0.008787 -0.002510
v -0.000210 0.008785 -0.002509
v -0.000087 0.008816 -0.002511
v -0.000089 0.008818 -0.002510
v -0.000068 0.008817 -0.002511
v -0.000099 0.008815 -0.002511
v -0.000012 0.008817 -0.002510
v -0.000012 0.008820 -0.002509
v 0.000005 0.008818 -0.002510
v -0.000018 0.008816 -0.002511
v -0.000023 0.008819 -0.002510
v -0.000026 0.008814 -0.002511
v -0.000031 0.008816 -0.002511
v -0.000038 0.008819 -0.002510
v -0.000045 0.008816 -0.002511
v -0.000030 0.008822 -0.002508
v -0.000001 0.008808 -0.002513
v -0.000005 0.008805 -0.002513
v -0.000011 0.008809 -0.002513
v 0.000013 0.008810 -0.002512
v 0.000020 0.008807 -0.002513
v -0.000015 0.008791 -0.002511
v -0.000011 0.008788 -0.002510
v -0.000033 0.008790 -0.002511
v -0.000008 0.008792 -0.002511
v -0.000042 0.008785 -0.002509
v -0.000047 0.008782 -0.002507
v -0.000060 0.008784 -0.002508
v -0.000030 0.008786 -0.002509
v -0.000028 0.008783 -0.002508
v -0.000054 0.008780 -0.002506
v -0.000026 0.008780 -0.002506
v -0.000097 0.008791 -0.002511
v -0.000097 0.008794 -0.002512
v -0.000090 0.008792 -0.002512
v -0.000104 0.008787 -0.002510
v -0.000118 0.008791 -0.002511
v -0.000106 0.008785 -0.002509
v -0.000120 0.008787 -0.002510
v -0.000088 0.008789 -0.002510
v -0.000085 0.008785 -0.002509
v -0.000111 0.008813 -0.002512
v -0.000116 0.008811 -0.002512
v -0.000117 0.008813 -0.002512
v -0.000092 0.008812 -0.002512
v 0.000002 0.008815 -0.002511
v -0.000002 0.008812 -0.002512
v -0.000006 0.008816 -0.002511
v 0.000015 0.008816 -0.002511
v 0.000020 0.008814 -0.002512
v 0.000020 0.008810 -0.002512
v 0.000020 0.008807 -0.002513
v 0.000020 0.008814 -0.002512
v -0.000014 0.008813 -0.002512
v 0.000020 0.008814 -0.002512
v 0.000020 0.008810 -0.002512
v 0.000020 0.008817 -0.002510
v 0.000020 0.008814 -0.002512
v 0.000020 0.008817 -0.002510
v -0.000008 0.008780 -0.002506
v -0.000007 0.008782 -0.002507
v 0.000001 0.008782 -0.002507
v -0.000021 0.008778 -0.002504
v -0.000056 0.008776 -0.002503
v -0.000055 0.008778 -0.002504
v -0.000062 0.008778 -0.002504
v -0.000098 0.008779 -0.002505
v -0.000076 0.008781 -0.002506
v -0.000067 0.008785 -0.002509
v -0.000066 0.008788 -0.002510
v -0.000050 0.008788 -0.002510
v -0.000075 0.008784 -0.002508
v 0.000009 0.008787 -0.002509
v 0.000004 0.008784 -0.002508
v 0.000020 0.008785 -0.002509
v 0.000003 0.008790 -0.002511
v -0.000001 0.008793 -0.002512
v 0.000020 0.008792 -0.002512
v -0.000033 0.008798 -0.002513
v -0.000032 0.008801 -0.002513
v -0.000011 0.008798 -0.002513
v -0.000040 0.008796 -0.002512
v -0.000048 0.008798 -0.002513
v -0.000042 0.008793 -0.002512
v -0.000053 0.008796 -0.002512
v -0.000028 0.008796 -0.002512
v -0.000026 0.008793 -0.002512
v -0.000065 0.008791 -0.002511
v -0.000059 0.008793 -0.002512
v -0.000052 0.008789 -0.002511
v -0.000072 0.008793 -0.002512
v -0.000069 0.008796 -0.002512
v -0.000063 0.008799 -0.002513
v -0.000007 0.008822 -0.002508
v -0.000008 0.008825 -0.002507
v 0.000000 0.008822 -0.002508
v -0.000024 0.008822 -0.002508
v 0.000004 0.008780 -0.002505
v 0.000020 0.008782 -0.002507
v -0.000104 0.008797 -0.002513
v -0.000099 0.008800 -0.002513
v -0.000086 0.008798 -0.002513
v -0.000116 0.008797 -0.002512
v -0.000115 0.008799 -0.002513
v -0.000096 0.008803 -0.002513
v -0.000080 0.008802 -0.002513
v -0.000115 0.008799 -0.002513
v -0.000115 0.008801 -0.002513
v -0.000102 0.008809 -0.002513
v -0.000099 0.008806 -0.002513
v -0.000115 0.008807 -0.002513
v -0.000086 0.008808 -0.002513
v -0.000115 0.008803 -0.002513
v -0.000084 0.008805 -0.002513
v -0.000057 0.008803 -0.002513
v -0.000051 0.008806 -0.002513
v -0.000041 0.008803 -0.002513
v -0.000071 0.008803 -0.002513
v -0.000063 0.008807 -0.002513
v -0.000051 0.008800 -0.002513
v -0.000049 0.008809 -0.002513
v -0.000028 0.008807 -0.002513
v 0.000004 0.008797 -0.002513
v 0.000001 0.008801 -0.002513
v 0.000020 0.008799 -0.002513
v -0.000008 0.008795 -0.002512
v -0.000013 0.008795 -0.002512
v -0.000093 0.008783 -0.002507
v -0.000110 0.008781 -0.002506
v -0.000131 0.008776 -0.002503
v -0.000129 0.008777 -0.002504
v -0.000015 0.008785 -0.002508
v -0.000085 0.008795 -0.002512
v 0.000020 0.008821 -0.002509
v 0.000020 0.008824 -0.002507
v -0.000003 0.008828 -0.002505
v -0.000021 0.008828 -0.002504
v 0.000020 0.008830 -0.002503
v 0.000020 0.008827 -0.002505
v 0.000020 0.008830 -0.002503
v -0.000029 0.008825 -0.002506
v -0.000053 0.008826 -0.002505
v 0.000020 0.008827 -0.002505
v -0.000087 0.008822 -0.002508
v -0.000121 0.008821 -0.002509
v -0.000076 0.008824 -0.002507
v -0.000072 0.008821 -0.002509
v -0.000095 0.008825 -0.002507
v -0.000087 0.008827 -0.002505
v -0.000122 0.008822 -0.002508
v -0.000123 0.008824 -0.002507
v -0.000069 0.008810 -0.002512
v -0.000072 0.008814 -0.002512
v -0.000057 0.008814 -0.002511
v -0.000026 0.008803 -0.002513
v -0.000050 0.008813 -0.002512
v -0.000051 0.008819 -0.002510
v -0.000045 0.008823 -0.002508
v -0.000060 0.008816 -0.002511
v -0.000023 0.008811 -0.002512
v 0.000020 0.008803 -0.002513
v -0.000122 0.008784 -0.002508
v -0.000126 0.008780 -0.002506
v -0.000125 0.008781 -0.002506
v -0.000128 0.008779 -0.002505
v -0.000126 0.008780 -0.002506
v 0.000020 0.008785 -0.002509
v 0.000020 0.008782 -0.002507
v 0.000020 0.008779 -0.002505
v 0.000020 0.008776 -0.002503
v -0.000115 0.008803 -0.002513
v -0.000115 0.008805 -0.002513
v -0.000116 0.008811 -0.002512
v -0.000116 0.008809 -0.002512
v -0.000115 0.008807 -0.002513
v -0.000115 0.008805 -0.002513
v 0.000020 0.008796 -0.002512
v 0.000020 0.008799 -0.002513
v 0.000020 0.008814 -0.002512
v 0.000020 0.008807 -0.002513
v -0.000120 0.008819 -0.002510
v -0.000119 0.008817 -0.002510
v -0.000118 0.008815 -0.002511
v 0.000020 0.008821 -0.002509
v 0.000020 0.008824 -0.002507
v -0.000125 0.008825 -0.002506
v -0.000123 0.008824 -0.002507
v 0.000020 0.008779 -0.002505
v 0.000020 0.008782 -0.002507
v -0.000128 0.008779 -0.002505
v -0.000129 0.008777 -0.002504
v 0.000020 0.008789 -0.002510
v 0.000020 0.008785 -0.002509
v -0.000120 0.008787 -0.002510
v -0.000119 0.008789 -0.002510
v -0.000116 0.008795 -0.002512
v -0.000115 0.008807 -0.002513
v -0.000116 0.008809 -0.002512
v 0.000020 0.008830 -0.002503
v -0.000119 0.008817 -0.002510
v -0.000120 0.008819 -0.002510
v -0.000129 0.008829 -0.002504
v -0.000131 0.008830 -0.002503
v -0.000131 0.008830 -0.002503
v -0.000128 0.008828 -0.002505
v -0.000129 0.008829 -0.002504
v -0.000126 0.008826 -0.002506
v -0.000128 0.008828 -0.002505
v -0.000126 0.008826 -0.002506
v -0.000125 0.008825 -0.002506
v -0.000126 0.008826 -0.002506
v -0.000121 0.008821 -0.002509
v -0.000121 0.008821 -0.002509
v -0.000122 0.008822 -0.002508
v -0.000120 0.008819 -0.002510
v -0.000121 0.008821 -0.002509
v 0.000020 0.008807 -0.002513
v 0.000020 0.008803 -0.002513
v -0.000118 0.008815 -0.002511
v -0.000117 0.008813 -0.002512
v -0.000118 0.008815 -0.002511
v 0.000020 0.008799 -0.002513
v 0.000020 0.008803 -0.002513
v -0.000116 0.008811 -0.002512
v 0.000020 0.008792 -0.002512
v 0.000020 0.008796 -0.002512
v 0.000020 0.008796 -0.002512
v 0.000020 0.008789 -0.002510
v 0.000020 0.008792 -0.002512
v -0.000115 0.008803 -0.002513
v 0.000020 0.008782 -0.002507
v -0.000115 0.008799 -0.002513
v 0.000020 0.008789 -0.002510
v -0.000116 0.008797 -0.002512
v -0.000116 0.008795 -0.002512
v -0.000117 0.008793 -0.002512
v -0.000118 0.008791 -0.002511
v 0.000020 0.008776 -0.002503
v -0.000131 0.008776 -0.002503
v -0.000119 0.008789 -0.002510
v -0.000118 0.008791 -0.002511
v -0.000128 0.008779 -0.002505
v -0.000125 0.008781 -0.002506
v -0.000123 0.008782 -0.002507
v -0.000123 0.008782 -0.002507
v -0.000122 0.008784 -0.002508
v -0.000121 0.008785 -0.002509
v -0.000122 0.008784 -0.002508
v -0.000121 0.008785 -0.002509
v -0.000120 0.008787 -0.002510
v 0.000020 0.008776 -0.002503
v -0.000117 0.008793 -0.002512
v -0.000117 0.008793 -0.002512
v -0.000116 0.008795 -0.002512
v -0.000115 0.008801 -0.002513
v -0.000115 0.008803 -0.002513
v 0.000020 0.008827 -0.002505
v 0.000020 0.008824 -0.002507
v 0.000020 0.008821 -0.002509
v 0.000020 0.008817 -0.002510
v -0.000026 0.008757 -0.002483
v -0.000029 0.008761 -0.002487
v 0.000020 0.008760 -0.002486
v -0.000036 0.008756 -0.002482
v -0.000096 0.008774 -0.002501
v -0.000101 0.008770 -0.002497
v -0.000134 0.008775 -0.002502
v -0.000059 0.008770 -0.002497
v -0.000143 0.008738 -0.002452
v -0.000147 0.008740 -0.002457
v -0.000132 0.008739 -0.002453
v -0.000151 0.008736 -0.002447
v -0.000210 0.008738 -0.002451
v -0.000058 0.008757 -0.002483
v -0.000064 0.008754 -0.002479
v -0.000082 0.008757 -0.002482
v -0.000053 0.008747 -0.002469
v -0.000059 0.008744 -0.002463
v -0.000082 0.008746 -0.002466
v -0.000034 0.008749 -0.002471
v -0.000024 0.008746 -0.002466
v -0.000042 0.008742 -0.002459
v -0.000045 0.008739 -0.002454
v -0.000057 0.008741 -0.002458
v 0.000020 0.008742 -0.002459
v 0.000020 0.008749 -0.002471
v -0.000176 0.008743 -0.002461
v -0.000169 0.008746 -0.002466
v -0.000136 0.008744 -0.002463
v -0.000210 0.008742 -0.002459
v -0.000210 0.008744 -0.002463
v -0.000162 0.008749 -0.002471
v -0.000210 0.008744 -0.002463
v -0.000210 0.008747 -0.002467
v -0.000055 0.008751 -0.002474
v -0.000028 0.008753 -0.002477
v -0.000067 0.008749 -0.002471
v -0.000085 0.008753 -0.002476
v -0.000100 0.008749 -0.002471
v -0.000085 0.008744 -0.002463
v -0.000123 0.008748 -0.002470
v -0.000134 0.008751 -0.002474
v -0.000140 0.008754 -0.002479
v -0.000102 0.008753 -0.002477
v -0.000158 0.008753 -0.002477
v -0.000092 0.008754 -0.002479
v -0.000114 0.008756 -0.002481
v -0.000111 0.008760 -0.002486
v -0.000146 0.008759 -0.002485
v -0.000067 0.008741 -0.002457
v -0.000121 0.008741 -0.002457
v -0.000097 0.008740 -0.002455
v -0.000075 0.008761 -0.002487
v -0.000092 0.008761 -0.002488
v -0.000050 0.008765 -0.002492
v -0.000042 0.008768 -0.002495
v -0.000017 0.008765 -0.002492
v -0.000078 0.008766 -0.002493
v 0.000020 0.008766 -0.002493
v 0.000020 0.008763 -0.002490
v -0.000014 0.008755 -0.002479
v 0.000020 0.008752 -0.002475
v -0.000086 0.008739 -0.002453
v -0.000096 0.008736 -0.002447
v -0.000157 0.008771 -0.002498
v -0.000152 0.008774 -0.002501
v -0.000151 0.008774 -0.002500
v -0.000168 0.008765 -0.002492
v -0.000210 0.008770 -0.002497
v -0.000161 0.008761 -0.002487
v -0.000210 0.008763 -0.002490
v -0.000133 0.008769 -0.002495
v -0.000135 0.008763 -0.002490
v -0.000210 0.008752 -0.002475
v -0.000171 0.008757 -0.002482
v -0.000210 0.008754 -0.002479
v -0.000210 0.008757 -0.002483
v -0.000052 0.008771 -0.002498
v 0.000020 0.008776 -0.002503
v -0.000109 0.008765 -0.002491
v -0.000210 0.008736 -0.002447
v -0.000210 0.008738 -0.002451
v -0.000210 0.008740 -0.002455
v -0.000040 0.008736 -0.002446
v 0.000020 0.008736 -0.002447
v 0.000020 0.008738 -0.002451
v -0.000210 0.008736 -0.002447
v -0.000210 0.008734 -0.002442
v -0.000210 0.008738 -0.002451
v -0.000210 0.008736 -0.002447
v -0.000210 0.008749 -0.002471
v -0.000210 0.008752 -0.002475
v -0.000210 0.008749 -0.002471
v -0.000210 0.008747 -0.002467
v 0.000020 0.008757 -0.002483
v 0.000020 0.008749 -0.002471
v 0.000020 0.008747 -0.002467
v 0.000020 0.008740 -0.002455
v 0.000020 0.008742 -0.002459
v -0.000210 0.008760 -0.002486
v -0.000210 0.008757 -0.002483
v 0.000020 0.008770 -0.002497
v 0.000020 0.008773 -0.002500
v 0.000020 0.008752 -0.002475
v -0.000143 0.008773 -0.002500
v -0.000141 0.008773 -0.002500
v -0.000145 0.008773 -0.002500
v -0.000143 0.008773 -0.002500
v 0.000020 0.008763 -0.002490
v 0.000020 0.008760 -0.002486
v -0.000210 0.008749 -0.002471
v -0.000140 0.008774 -0.002500
v -0.000141 0.008773 -0.002500
v -0.000210 0.008760 -0.002486
v -0.000210 0.008776 -0.002503
v -0.000159 0.008776 -0.002503
v -0.000210 0.008773 -0.002500
v -0.000210 0.008773 -0.002500
v -0.000159 0.008776 -0.002503
v -0.000157 0.008776 -0.002502
v -0.000156 0.008775 -0.002502
v -0.000210 0.008773 -0.002500
v -0.000157 0.008776 -0.002502
v -0.000156 0.008775 -0.002502
v -0.000154 0.008774 -0.002501
v -0.000154 0.008774 -0.002501
v -0.000152 0.008774 -0.002501
v -0.000147 0.008773 -0.002500
v -0.000149 0.008773 -0.002500
v -0.000147 0.008773 -0.002500
v -0.000145 0.008773 -0.002500
v -0.000210 0.008770 -0.002497
v -0.000210 0.008766 -0.002493
v -0.000210 0.008763 -0.002490
v -0.000210 0.008766 -0.002493
v 0.000020 0.008752 -0.002475
v 0.000020 0.008749 -0.002471
v 0.000020 0.008747 -0.002467
v 0.000020 0.008744 -0.002463
v -0.000210 0.008752 -0.002475
v -0.000210 0.008754 -0.002479
v -0.000210 0.008740 -0.002455
v -0.000210 0.008738 -0.002451
v -0.000210 0.008742 -0.002459
v -0.000210 0.008740 -0.002455
v 0.000020 0.008736 -0.002447
v 0.000020 0.008734 -0.002442
v -0.000210 0.008744 -0.002463
v 0.000020 0.008736 -0.002447
v 0.000020 0.008738 -0.002451
v 0.000020 0.008740 -0.002455
v -0.000210 0.008754 -0.002479
v 0.000020 0.008752 -0.002475
v 0.000020 0.008754 -0.002479
v -0.000138 0.008774 -0.002501
v -0.000140 0.008774 -0.002500
v 0.000020 0.008757 -0.002483
v 0.000020 0.008760 -0.002486
v 0.000020 0.008770 -0.002497
v 0.000020 0.008773 -0.002500
v 0.000020 0.008773 -0.002500
v 0.000020 0.008776 -0.002503
v 0.000020 0.008760 -0.002486
v -0.000131 0.008776 -0.002503
v -0.000131 0.008776 -0.002503
v -0.000133 0.008776 -0.002502
v -0.000133 0.008776 -0.002502
v -0.000134 0.008775 -0.002502
v -0.000134 0.008775 -0.002502
v -0.000136 0.008774 -0.002501
v -0.000136 0.008774 -0.002501
v -0.000138 0.008774 -0.002501
v 0.000020 0.008770 -0.002497
v 0.000020 0.008766 -0.002493
v 0.000020 0.008757 -0.002483
v 0.000020 0.008754 -0.002479
v 0.000020 0.008740 -0.002455
v 0.000020 0.008738 -0.002451
v 0.000020 0.008744 -0.002463
v 0.000020 0.008742 -0.002459
v -0.000145 0.008773 -0.002500
v -0.000210 0.008760 -0.002486
v -0.000210 0.008763 -0.002490
v -0.000210 0.008770 -0.002497
v -0.000210 0.008773 -0.002500
v -0.000151 0.008774 -0.002500
v -0.000149 0.008773 -0.002500
v -0.000138 0.008774 -0.002501
v -0.000210 0.008773 -0.002500
v -0.000156 0.008775 -0.002502
vn -1.0000 -0.0000 -0.0000
vn -1.0000 0.0001 -0.0000
vn -1.0000 -0.0001 -0.0000
vn 1.0000 -0.0000 -0.0000
vn 1.0000 0.0001 -0.0000
vn -0.0000 -1.0000 -0.0000
vn -0.0000 -1.0000 -0.0001
vn -0.9977 -0.0680 0.0002
vn -1.0000 -0.0020 -0.0000
vn -0.9897 -0.1430 -0.0000
vn -0.9974 -0.0726 -0.0000
vn -0.9771 -0.2127 -0.0000
vn -0.9908 -0.1355 -0.0000
vn -0.9793 -0.2024 -0.0000
vn -0.9597 -0.2810 -0.0000
vn -0.9633 -0.2685 0.0001
vn -0.9376 -0.3477 -0.0000
vn -0.9428 -0.3333 -0.0000
vn -0.9111 -0.4121 -0.0000
vn -0.9181 -0.3965 0.0002
vn -0.8890 -0.4579 0.0001
vn -0.8806 -0.4738 -0.0000
vn -0.8464 -0.5325 -0.0000
vn -0.8559 -0.5172 0.0002
vn -0.8090 -0.5879 -0.0000
vn -0.8188 -0.5741 -0.0000
vn -0.7779 -0.6284 -0.0002
vn -0.7685 -0.6399 -0.0000
vn -0.7250 -0.6887 -0.0000
vn -0.6787 -0.7344 -0.0000
vn -0.7334 -0.6798 -0.0000
vn -0.5227 -0.8525 -0.0000
vn -0.5240 -0.8517 -0.0001
vn -0.4650 -0.8853 -0.0000
vn -0.5806 -0.8142 -0.0001
vn -0.5775 -0.8164 -0.0000
vn -0.6345 -0.7729 -0.0002
vn -0.6295 -0.7770 -0.0000
vn -0.6856 -0.7280 -0.0003
vn -0.9976 0.0690 -0.0000
vn -0.9967 0.0811 -0.0000
vn -0.9902 0.1394 -0.0000
vn -0.9868 0.1617 -0.0000
vn -0.9779 0.2091 -0.0000
vn -0.9705 0.2412 0.0001
vn -0.9607 0.2775 -0.0000
vn -0.9389 0.3443 -0.0000
vn -0.9477 0.3191 0.0002
vn -0.9187 0.3949 0.0002
vn -0.9126 0.4089 -0.0000
vn -0.8822 0.4709 -0.0000
vn -0.8837 0.4680 0.0001
vn -0.8481 0.5299 -0.0000
vn -0.8428 0.5382 0.0001
vn -0.7964 0.6048 -0.0000
vn -0.8106 0.5856 -0.0000
vn -0.7447 0.6674 -0.0000
vn -0.6796 0.7336 -0.0000
vn -0.6882 0.7255 -0.0003
vn -0.7262 0.6874 -0.0000
vn -0.7699 0.6381 -0.0000
vn -0.6302 0.7765 -0.0000
vn -0.5779 0.8161 -0.0000
vn -0.5228 0.8524 -0.0000
vn -0.5618 0.8273 -0.0001
vn -0.6270 0.7790 -0.0001
vn -0.4650 0.8853 -0.0000
vn -0.4927 0.8702 -0.0001
vn -0.4124 0.9110 -0.0000
vn -0.4208 0.9072 0.0001
vn -0.3576 0.9339 -0.0000
vn -0.3457 0.9383 -0.0001
vn -0.3008 0.9537 -0.0000
vn -0.2684 0.9633 -0.0001
vn -0.2423 0.9702 -0.0000
vn -0.1895 0.9819 -0.0001
vn -0.1826 0.9832 -0.0000
vn -0.1220 0.9925 -0.0000
vn -0.0605 0.9982 -0.0000
vn -0.1093 0.9940 -0.0002
vn -0.0283 0.9996 -0.0003
vn 0.0008 1.0000 -0.0000
vn 0.0624 0.9981 -0.0000
vn 0.0530 0.9986 -0.0000
vn 0.1337 0.9910 0.0001
vn 0.1235 0.9923 -0.0000
vn 0.2137 0.9769 -0.0002
vn 0.1836 0.9830 -0.0000
vn 0.2922 0.9564 -0.0000
vn 0.2433 0.9700 -0.0000
vn 0.3687 0.9295 -0.0002
vn 0.3014 0.9535 -0.0000
vn 0.3579 0.9338 -0.0000
vn 0.4429 0.8965 -0.0003
vn 0.4125 0.9110 -0.0000
vn 0.4649 0.8854 -0.0000
vn 0.5142 0.8577 -0.0003
vn 0.5226 0.8526 -0.0000
vn 0.5821 0.8131 -0.0002
vn 0.5775 0.8164 -0.0000
vn 0.6295 0.7770 -0.0000
vn 0.6461 0.7632 -0.0000
vn 0.7058 0.7084 -0.0001
vn 0.6787 0.7344 -0.0000
vn 0.7250 0.6887 -0.0000
vn 0.7610 0.6488 0.0001
vn 0.7685 0.6399 -0.0000
vn 0.8090 0.5878 -0.0000
vn 0.8112 0.5848 -0.0000
vn 0.8559 0.5171 0.0001
vn 0.8949 0.4462 0.0003
vn 0.8464 0.5325 -0.0000
vn 0.8806 0.4738 -0.0000
vn 0.9282 0.3720 0.0002
vn 0.9111 0.4121 -0.0000
vn 0.9376 0.3477 -0.0000
vn 0.9553 0.2955 0.0003
vn 0.9597 0.2810 -0.0000
vn 0.9905 0.1374 0.0001
vn 0.9761 0.2171 0.0004
vn 0.9771 0.2127 -0.0000
vn 0.9897 0.1430 -0.0000
vn 0.9779 -0.2091 -0.0000
vn 0.9607 -0.2775 -0.0000
vn 0.9642 -0.2651 -0.0000
vn 0.9984 0.0565 -0.0002
vn 0.9974 0.0726 -0.0000
vn 0.8822 -0.4708 -0.0000
vn 0.8481 -0.5299 -0.0000
vn 0.8719 -0.4897 -0.0002
vn 0.7262 -0.6875 -0.0000
vn 0.7280 -0.6856 -0.0000
vn 0.7813 -0.6242 -0.0000
vn 0.5228 -0.8524 -0.0000
vn 0.6073 -0.7945 -0.0001
vn 0.5778 -0.8162 -0.0000
vn 0.4713 -0.8820 -0.0018
vn 0.4125 -0.9110 -0.0000
vn 0.3981 -0.9173 0.0002
vn 0.2433 -0.9700 -0.0000
vn 0.2447 -0.9696 -0.0000
vn 0.3226 -0.9465 -0.0000
vn 0.1235 -0.9923 -0.0000
vn 0.1652 -0.9863 -0.0002
vn 0.1839 -0.9829 -0.0000
vn 0.0624 -0.9981 -0.0000
vn 0.0035 -1.0000 -0.0003
vn 0.0846 -0.9964 -0.0003
vn 0.0010 -1.0000 -0.0000
vn -0.0606 -0.9982 -0.0000
vn -0.1218 -0.9925 -0.0000
vn -0.0776 -0.9970 -0.0000
vn -0.1825 -0.9832 -0.0000
vn -0.1582 -0.9874 -0.0002
vn -0.2424 -0.9702 -0.0000
vn -0.2378 -0.9713 0.0001
vn -0.3008 -0.9537 -0.0000
vn -0.3159 -0.9488 -0.0004
vn -0.4124 -0.9110 -0.0000
vn -0.3916 -0.9201 0.0002
vn -0.3576 -0.9339 0.0005
vn 0.3014 -0.9535 -0.0000
vn 0.3579 -0.9338 -0.0000
vn 0.4649 -0.8854 -0.0000
vn 0.5413 -0.8408 0.0003
vn 0.6302 -0.7765 -0.0000
vn 0.6700 -0.7424 0.0001
vn 0.6796 -0.7336 -0.0000
vn 0.7699 -0.6382 -0.0000
vn 0.8293 -0.5588 0.0001
vn 0.8106 -0.5856 -0.0000
vn 0.9087 -0.4174 0.0001
vn 0.9126 -0.4088 -0.0000
vn 0.9396 -0.3424 0.0001
vn 0.9389 -0.3442 -0.0000
vn 0.9825 -0.1861 -0.0000
vn 0.9902 -0.1394 -0.0000
vn 0.9944 -0.1057 -0.0002
vn 0.9976 -0.0690 -0.0000
vn 0.9997 -0.0247 -0.0000
vn 1.0000 0.0020 0.0001
vn -0.0000 1.0000 -0.0000
vn -0.0000 1.0000 -0.0001
vn -0.0000 -0.0000 1.0000
vn 0.0001 -0.0000 1.0000
vn -0.0001 -0.0000 1.0000
vn -0.0002 -0.0000 1.0000
vn -0.0000 0.8155 -0.5788
vn -0.0001 0.8016 -0.5979
vn -0.0000 0.8131 -0.5821
vn -0.0000 0.8087 -0.5882
vn -0.0000 0.7651 -0.6439
vn -0.0000 0.7879 -0.6158
vn -0.0000 0.7593 -0.6508
vn -0.0000 0.7473 -0.6645
vn -0.0000 0.7621 -0.6475
vn -0.0000 0.7216 -0.6923
vn -0.0000 0.6915 -0.7224
vn -0.0000 0.7247 -0.6890
vn -0.0000 0.7197 -0.6943
vn -0.0000 0.6901 -0.7237
vn -0.0000 0.7355 -0.6775
vn -0.0000 0.7913 -0.6115
vn -0.0000 0.7829 -0.6221
vn -0.0000 0.7435 -0.6688
vn -0.0000 0.7465 -0.6654
vn -0.0000 0.9023 -0.4311
vn -0.0000 0.8890 -0.4578
vn -0.0000 0.9062 -0.4229
vn -0.0000 0.9001 -0.4357
vn -0.0000 0.7884 -0.6151
vn -0.0003 0.8130 -0.5822
vn -0.0000 0.7951 -0.6065
vn -0.0000 0.7839 -0.6208
vn -0.0000 0.8017 -0.5977
vn 0.0001 0.7671 -0.6416
vn -0.0000 0.7391 -0.6736
vn -0.0004 0.7695 -0.6386
vn -0.0000 0.8016 -0.5978
vn -0.0000 0.8352 -0.5500
vn -0.0000 0.8243 -0.5662
vn -0.0000 0.8188 -0.5741
vn -0.0000 0.8457 -0.5337
vn -0.0001 0.8660 -0.5001
vn -0.0000 0.8559 -0.5172
vn -0.0000 0.8351 -0.5501
vn -0.0000 0.8558 -0.5172
vn -0.0000 0.8796 -0.4756
vn -0.0000 0.8978 -0.4405
vn -0.0000 0.8934 -0.4492
vn -0.0000 0.8835 -0.4684
vn -0.0000 0.8658 -0.5004
vn -0.0000 0.8508 -0.5255
vn -0.0000 0.8753 -0.4835
vn -0.0001 0.8560 -0.5170
vn -0.0001 0.8657 -0.5006
vn -0.0000 0.8351 -0.5500
vn -0.0000 0.8658 -0.5005
vn -0.0000 0.8422 -0.5392
vn -0.0000 0.8093 -0.5873
vn -0.0000 0.7899 -0.6133
vn -0.0000 0.7654 -0.6435
vn -0.0000 0.8860 -0.4636
vn -0.0000 0.8800 -0.4750
vn -0.0000 0.8869 -0.4620
vn -0.0001 0.8936 -0.4489
vn -0.0000 0.9168 -0.3994
vn -0.0000 0.8997 -0.4366
vn -0.0000 0.9181 -0.3964
vn -0.0000 0.9194 -0.3934
vn -0.0000 0.7064 -0.7078
vn -0.0000 0.6640 -0.7477
vn -0.0000 0.7840 -0.6208
vn -0.0001 0.7381 -0.6747
vn -0.0000 0.7023 -0.7119
vn -0.0000 0.7039 -0.7103
vn -0.0000 0.6823 -0.7311
vn -0.0000 0.6799 -0.7333
vn -0.0000 0.7655 -0.6434
vn -0.0000 0.6851 -0.7284
vn -0.0000 0.7065 -0.7078
vn -0.0000 0.7354 -0.6776
vn -0.0000 0.7268 -0.6869
vn -0.0000 0.7355 -0.6776
vn -0.0000 0.7464 -0.6655
vn -0.0000 0.6688 -0.7434
vn -0.0000 0.6730 -0.7396
vn -0.0000 0.7065 -0.7077
vn -0.0000 0.6855 -0.7281
vn -0.0000 0.8935 -0.4491
vn -0.0000 0.7592 -0.6508
vn -0.0000 0.7839 -0.6209
vn -0.0000 0.6687 -0.7435
vn -0.0000 0.6767 -0.7362
vn -0.0000 0.6798 -0.7334
vn -0.0000 0.7267 -0.6869
vn -0.0000 0.6841 -0.7294
vn -0.0000 0.7671 -0.6416
vn -0.0000 0.6840 -0.7295
vn -0.0000 0.6901 -0.7238
vn -0.0001 0.6822 -0.7312
vn -0.0001 0.7039 -0.7103
vn -0.0000 0.6641 -0.7477
vn -0.0001 0.6688 -0.7435
vn -0.0000 0.8352 -0.5499
vn -0.0000 0.8559 -0.5171
vn -0.0000 0.9293 -0.3694
vn -0.0000 0.9061 -0.4230
vn -0.0000 0.6395 -0.7688
vn -0.0000 0.6124 -0.7906
vn -0.0000 0.6639 -0.7478
vn -0.0000 0.6393 -0.7689
vn -0.0000 0.6123 -0.7906
vn -0.0000 0.5935 -0.8048
vn -0.0000 0.6640 -0.7478
vn -0.0000 0.5827 -0.8127
vn -0.0001 0.5827 -0.8127
vn -0.0000 0.5506 -0.8348
vn -0.0000 0.5161 -0.8566
vn -0.0000 0.5506 -0.8347
vn -0.0000 0.5160 -0.8566
vn -0.0000 0.5181 -0.8553
vn -0.0000 0.5935 -0.8049
vn -0.0000 0.4789 -0.8779
vn -0.0000 0.4395 -0.8983
vn -0.0000 0.4394 -0.8983
vn -0.0000 0.3974 -0.9176
vn -0.0000 0.4384 -0.8988
vn -0.0000 0.3530 -0.9356
vn -0.0000 0.3065 -0.9519
vn -0.0000 0.3551 -0.9348
vn -0.0000 0.2581 -0.9661
vn -0.0000 0.2690 -0.9631
vn -0.0000 0.2688 -0.9632
vn -0.0000 0.2080 -0.9781
vn -0.0000 0.1805 -0.9836
vn -0.0000 0.1568 -0.9876
vn -0.0000 0.0906 -0.9959
vn -0.0000 0.1045 -0.9945
vn -0.0000 -0.0000 -1.0000
vn -0.0000 0.0517 -0.9987
vn -0.0000 -0.0544 -0.9985
vn -0.0000 -0.0014 -1.0000
vn -0.0000 -0.2607 -0.9654
vn -0.0000 -0.3089 -0.9511
vn -0.0000 -0.2691 -0.9631
vn -0.0000 -0.6640 -0.7477
vn -0.0000 -0.6395 -0.7688
vn -0.0000 -0.6126 -0.7904
vn -0.0000 -0.5935 -0.8048
vn -0.0000 -0.5831 -0.8124
vn -0.0000 -0.5513 -0.8343
vn -0.0000 -0.5832 -0.8123
vn -0.0000 -0.5170 -0.8560
vn -0.0000 -0.5181 -0.8553
vn -0.0000 -0.5935 -0.8049
vn -0.0000 -0.4803 -0.8771
vn -0.0000 -0.4411 -0.8975
vn -0.0000 -0.4385 -0.8987
vn -0.0000 -0.4384 -0.8988
vn -0.0000 -0.3994 -0.9168
vn -0.0000 -0.3551 -0.9348
vn -0.0000 -0.3553 -0.9348
vn -0.0000 -0.3552 -0.9348
vn -0.0000 -0.2106 -0.9776
vn -0.0000 -0.2606 -0.9655
vn -0.0000 -0.2689 -0.9632
vn -0.0000 -0.1805 -0.9836
vn -0.0000 -0.2688 -0.9632
vn -0.0000 -0.1073 -0.9942
vn -0.0000 -0.0906 -0.9959
vn -0.0000 -0.1074 -0.9942
vn -0.0000 -0.1594 -0.9872
vn -0.0000 -0.0545 -0.9985
vn -0.0000 -0.1072 -0.9942
vn -0.0000 -0.0907 -0.9959
vn -0.0000 0.0907 -0.9959
vn -0.0000 0.1046 -0.9945
vn -0.0000 0.2081 -0.9781
vn -0.0000 0.3552 -0.9348
vn -0.0000 0.3531 -0.9356
vn -0.0000 0.4383 -0.8988
vn -0.0000 0.3974 -0.9177
vn -0.0000 -0.3993 -0.9168
vn -0.0000 -0.4383 -0.8988
vn -0.0000 0.3214 -0.9469
vn -0.0000 0.3856 -0.9227
vn -0.0000 0.3445 -0.9388
vn -0.0000 0.3058 -0.9521
vn -0.0000 0.3615 -0.9324
vn -0.0000 0.4277 -0.9039
vn -0.0001 0.3848 -0.9230
vn -0.0000 0.3305 -0.9438
vn -0.0000 0.3911 -0.9203
vn -0.0000 0.2743 -0.9616
vn -0.0000 0.3289 -0.9444
vn -0.0001 0.4021 -0.9156
vn -0.0000 0.3201 -0.9474
vn -0.0000 0.4667 -0.8844
vn -0.0000 0.1241 -0.9923
vn -0.0000 0.0524 -0.9986
vn -0.0000 0.1532 -0.9882
vn -0.0000 0.1656 -0.9862
vn -0.0000 0.0908 -0.9959
vn -0.0000 -0.3053 -0.9523
vn -0.0000 -0.3725 -0.9280
vn -0.0000 -0.3138 -0.9495
vn -0.0000 -0.2802 -0.9599
vn -0.0000 -0.4394 -0.8983
vn -0.0000 -0.5169 -0.8561
vn -0.0000 -0.4775 -0.8786
vn -0.0000 -0.4170 -0.9089
vn -0.0000 -0.4943 -0.8693
vn -0.0000 -0.5766 -0.8170
vn -0.0000 -0.5735 -0.8192
vn -0.0000 -0.2966 -0.9550
vn -0.0000 -0.2312 -0.9729
vn -0.0000 -0.2661 -0.9639
vn -0.0000 -0.3900 -0.9208
vn -0.0000 -0.3065 -0.9519
vn -0.0000 -0.4541 -0.8909
vn -0.0000 -0.3974 -0.9176
vn -0.0000 -0.3613 -0.9324
vn -0.0000 -0.4471 -0.8945
vn -0.0000 0.2592 -0.9658
vn -0.0000 0.2106 -0.9776
vn -0.0000 0.2606 -0.9655
vn -0.0000 0.2207 -0.9753
vn -0.0000 0.2958 -0.9552
vn -0.0000 0.2250 -0.9744
vn -0.0000 0.3247 -0.9458
vn -0.0000 0.3368 -0.9416
vn -0.0000 0.2689 -0.9632
vn -0.0000 0.1657 -0.9862
vn -0.0000 0.2515 -0.9679
vn -0.0000 0.3367 -0.9416
vn -0.0000 0.2691 -0.9631
vn -0.0000 -0.5803 -0.8144
vn -0.0000 -0.5171 -0.8559
vn -0.0000 -0.5247 -0.8513
vn -0.0000 -0.6347 -0.7727
vn -0.0000 -0.6640 -0.7478
vn -0.0000 -0.6357 -0.7719
vn -0.0000 -0.6175 -0.7866
vn -0.0000 -0.5999 -0.8001
vn -0.0000 -0.5495 -0.8355
vn -0.0000 -0.3709 -0.9287
vn -0.0000 -0.3817 -0.9243
vn -0.0000 -0.4681 -0.8837
vn -0.0000 -0.4123 -0.9110
vn -0.0000 -0.4682 -0.8836
vn -0.0000 -0.3278 -0.9447
vn -0.0000 -0.2543 -0.9671
vn -0.0000 -0.2690 -0.9631
vn -0.0000 -0.1375 -0.9905
vn -0.0000 -0.1172 -0.9931
vn -0.0000 -0.1871 -0.9823
vn 0.0001 -0.1304 -0.9915
vn -0.0000 -0.2595 -0.9658
vn -0.0000 -0.1870 -0.9824
vn -0.0000 -0.1703 -0.9854
vn -0.0000 -0.2618 -0.9651
vn -0.0000 -0.2974 -0.9547
vn -0.0000 -0.2615 -0.9652
vn -0.0000 -0.3379 -0.9412
vn -0.0000 -0.2582 -0.9661
vn -0.0000 -0.1701 -0.9854
vn -0.0000 -0.0992 -0.9951
vn -0.0000 0.4827 -0.8758
vn -0.0000 0.5463 -0.8376
vn -0.0000 0.4717 -0.8818
vn -0.0000 0.4857 -0.8741
vn -0.0000 -0.5860 -0.8103
vn 0.0002 -0.1546 -0.9880
vn -0.0001 -0.0741 -0.9973
vn -0.0000 -0.1204 -0.9927
vn -0.0000 -0.1543 -0.9880
vn -0.0000 -0.1568 -0.9876
vn -0.0000 -0.1045 -0.9945
vn -0.0000 0.0031 -1.0000
vn -0.0000 -0.0239 -0.9997
vn -0.0000 -0.0740 -0.9973
vn -0.0000 -0.0517 -0.9987
vn -0.0000 0.1535 -0.9881
vn -0.0000 0.0797 -0.9968
vn -0.0000 0.1072 -0.9942
vn -0.0000 0.1284 -0.9917
vn -0.0000 0.0014 -1.0000
vn -0.0000 0.0451 -0.9990
vn -0.0000 0.0043 -1.0000
vn -0.0000 0.0845 -0.9964
vn -0.0000 0.0044 -1.0000
vn 0.0001 0.0037 -1.0000
vn -0.0000 0.1084 -0.9941
vn -0.0000 -0.0752 -0.9972
vn -0.0000 0.1403 -0.9901
vn -0.0000 0.0992 -0.9951
vn -0.0000 -0.1427 -0.9898
vn -0.0000 -0.0519 -0.9987
vn -0.0000 -0.1947 -0.9809
vn -0.0001 -0.2115 -0.9774
vn -0.0000 -0.5089 -0.8608
vn -0.0000 -0.5559 -0.8313
vn -0.0000 -0.6394 -0.7688
vn -0.0000 -0.4624 -0.8867
vn -0.0000 -0.2036 -0.9791
vn -0.0000 0.6148 -0.7887
vn -0.0000 0.6304 -0.7763
vn -0.0000 0.5597 -0.8287
vn -0.0000 0.5836 -0.8121
vn -0.0000 0.4835 -0.8754
vn -0.0000 0.4411 -0.8975
vn -0.0000 0.5221 -0.8529
vn -0.0000 0.4397 -0.8981
vn -0.0000 0.5387 -0.8425
vn -0.0000 0.6103 -0.7922
vn -0.0000 0.4803 -0.8771
vn -0.0000 0.5170 -0.8560
vn -0.0000 0.2715 -0.9624
vn -0.0000 0.2752 -0.9614
vn -0.0000 0.0033 -1.0000
vn -0.0000 0.2459 -0.9693
vn -0.0000 0.4084 -0.9128
vn -0.0000 0.4880 -0.8728
vn -0.0000 0.3191 -0.9477
vn -0.0000 0.2090 -0.9779
vn -0.0000 -0.4789 -0.8779
vn -0.0000 -0.5559 -0.8312
vn -0.0000 -0.5827 -0.8127
vn -0.0000 -0.5506 -0.8348
vn -0.0000 -0.6124 -0.7906
vn -0.0000 -0.5861 -0.8103
vn -0.0000 0.0544 -0.9985
vn -0.0000 0.2107 -0.9776
vn -0.0000 0.1535 -0.9882
vn -0.0000 0.1594 -0.9872
vn -0.0000 0.1073 -0.9942
vn -0.0000 0.0545 -0.9985
vn -0.0000 -0.0908 -0.9959
vn -0.0000 0.3994 -0.9168
vn -0.0000 0.3553 -0.9347
vn -0.0000 0.3090 -0.9511
vn -0.0000 0.4718 -0.8817
vn -0.0000 0.5513 -0.8343
vn -0.0000 0.5388 -0.8425
vn -0.0000 -0.6123 -0.7906
vn -0.0000 -0.6394 -0.7689
vn -0.0000 -0.4123 -0.9111
vn -0.0000 -0.3531 -0.9356
vn -0.0000 -0.2080 -0.9781
vn -0.0000 0.1536 -0.9881
vn -0.0000 0.3553 -0.9348
vn -0.0000 0.6126 -0.7904
vn -0.0000 0.5832 -0.8123
vn -0.0000 0.6125 -0.7905
vn -0.0000 0.5831 -0.8124
vn -0.0000 0.0525 -0.9986
vn -0.0000 0.3089 -0.9511
vn -0.0000 0.2606 -0.9654
vn -0.0000 -0.1567 -0.9877
vn -0.0000 -0.2581 -0.9661
vn -0.0000 -0.3530 -0.9356
vn -0.0000 -0.5160 -0.8566
vn -0.0000 -0.5558 -0.8313
vn -0.0000 -0.4541 -0.8910
vn -0.0000 -0.6639 -0.7478
vn -0.0000 0.0013 -1.0000
vn -0.0000 0.3848 -0.9230
vn -0.0000 -0.7843 -0.6204
vn -0.0000 -0.7626 -0.6469
vn -0.0000 -0.7655 -0.6434
vn -0.0000 -0.7887 -0.6148
vn -0.0000 -0.6774 -0.7356
vn -0.0000 -0.7036 -0.7106
vn -0.0000 -0.6730 -0.7396
vn -0.0000 -0.7033 -0.7109
vn -0.0000 -0.9023 -0.4310
vn -0.0000 -0.8890 -0.4578
vn -0.0000 -0.9001 -0.4356
vn -0.0000 -0.9168 -0.3993
vn -0.0000 -0.9062 -0.4229
vn -0.0000 -0.7841 -0.6207
vn -0.0000 -0.8017 -0.5978
vn -0.0000 -0.7876 -0.6162
vn -0.0002 -0.8457 -0.5337
vn -0.0001 -0.8660 -0.5001
vn -0.0000 -0.8558 -0.5172
vn -0.0000 -0.8351 -0.5500
vn -0.0000 -0.8559 -0.5172
vn -0.0000 -0.8797 -0.4756
vn -0.0000 -0.8978 -0.4405
vn -0.0000 -0.8835 -0.4684
vn -0.0000 -0.8800 -0.4750
vn -0.0000 -0.8352 -0.5500
vn -0.0000 -0.8753 -0.4835
vn 0.0001 -0.8558 -0.5174
vn -0.0001 -0.8657 -0.5006
vn -0.0000 -0.8658 -0.5004
vn 0.0001 -0.8352 -0.5500
vn -0.0000 -0.8508 -0.5255
vn -0.0001 -0.8243 -0.5661
vn -0.0000 -0.8087 -0.5882
vn -0.0001 -0.8351 -0.5500
vn -0.0000 -0.8131 -0.5821
vn -0.0000 -0.8351 -0.5501
vn -0.0000 -0.8658 -0.5005
vn -0.0000 -0.8422 -0.5392
vn -0.0000 -0.8243 -0.5662
vn -0.0000 -0.8016 -0.5978
vn -0.0000 -0.8094 -0.5873
vn -0.0000 -0.8089 -0.5879
vn -0.0000 -0.8017 -0.5977
vn -0.0000 -0.7899 -0.6133
vn -0.0000 -0.7654 -0.6435
vn -0.0000 -0.7705 -0.6374
vn -0.0000 -0.8860 -0.4636
vn -0.0000 -0.8869 -0.4620
vn -0.0001 -0.8936 -0.4489
vn -0.0000 -0.7610 -0.6487
vn -0.0000 -0.7583 -0.6519
vn -0.0001 -0.7360 -0.6770
vn -0.0000 -0.7175 -0.6966
vn -0.0000 -0.7359 -0.6771
vn -0.0000 -0.7269 -0.6868
vn -0.0000 -0.7267 -0.6869
vn -0.0000 -0.7464 -0.6655
vn -0.0000 -0.8008 -0.5989
vn -0.0000 -0.8188 -0.5741
vn -0.0000 -0.8997 -0.4366
vn -0.0000 -0.9181 -0.3964
vn -0.0000 -0.6991 -0.7150
vn -0.0000 -0.6798 -0.7334
vn -0.0000 -0.6822 -0.7312
vn -0.0000 -0.7340 -0.6791
vn -0.0000 -0.7064 -0.7078
vn -0.0000 -0.7613 -0.6484
vn -0.0000 -0.7464 -0.6654
vn -0.0000 -0.7131 -0.7011
vn -0.0000 -0.7471 -0.6647
vn -0.0000 -0.7886 -0.6150
vn -0.0000 -0.7886 -0.6149
vn -0.0000 -0.7839 -0.6208
vn -0.0000 -0.6952 -0.7188
vn -0.0000 -0.7367 -0.6762
vn -0.0000 -0.9061 -0.4230
vn -0.0000 -0.8934 -0.4492
vn -0.0000 -0.9194 -0.3934
vn -0.0000 -0.9293 -0.3694
vn -0.0000 -0.9168 -0.3994
vn -0.0000 -0.7840 -0.6207
vn -0.0000 -0.7885 -0.6150
vn -0.0000 -0.7065 -0.7078
vn -0.0000 -0.6855 -0.7281
vn -0.0000 -0.6852 -0.7284
vn -0.0000 -0.6840 -0.7295
vn -0.0000 -0.7465 -0.6654
vn -0.0000 -0.6823 -0.7311
vn -0.0000 -0.6854 -0.7281
vn -0.0000 -0.6687 -0.7435
vn -0.0000 -0.6731 -0.7396
vn -0.0000 -0.6855 -0.7280
vn -0.0000 -0.6689 -0.7434
vn -0.0000 -0.6767 -0.7362
vn -0.0000 -0.6851 -0.7284
vn -0.0000 -0.7341 -0.6791
vn -0.0000 -0.8935 -0.4491
vn -0.0000 -0.7839 -0.6209
vn -0.0000 -0.6688 -0.7434
vn 0.0001 -0.6731 -0.7395
vn -0.0000 -0.7035 -0.7107
vn -0.0000 -0.8008 -0.5990
vn -0.0000 -0.7066 -0.7076
vn -0.0000 -0.6822 -0.7311
s 1
usemtl Diffuse_51_51_51_100.020
f 1//1 2//1 3//1
f 1//1 3//1 4//1
f 1//1 4//1 5//1
f 1//1 5//1 6//1
f 7//1 1//1 8//1
f 1//1 6//1 8//1
f 9//1 1//1 7//1
f 10//1 1//1 9//1
f 10//1 11//1 1//1
f 11//1 12//1 1//1
f 12//1 13//1 1//1
f 13//1 14//1 1//1
f 14//1 15//1 1//1
s 0
f 1//1 16//1 17//1
s 1
f 18//1 2//1 1//1
f 19//1 2//1 18//1
f 19//1 18//1 20//1
f 19//1 20//1 21//1
f 20//1 22//1 21//1
f 22//1 23//1 21//1
f 24//1 23//1 22//1
f 25//1 23//1 24//1
f 25//1 24//1 26//1
f 25//1 26//1 27//1
f 26//1 28//1 27//1
f 28//1 29//1 27//1
f 30//1 29//1 28//1
f 31//1 29//1 30//1
f 32//1 31//1 33//1
f 31//1 30//1 33//1
f 32//1 33//1 34//1
f 35//1 36//1 37//1
f 36//1 38//1 37//1
f 39//1 40//1 41//1
f 40//1 42//2 41//1
f 42//2 43//1 41//1
f 43//1 44//1 41//1
f 45//3 44//1 46//1
f 47//1 44//1 45//3
f 43//1 46//1 44//1
f 48//1 46//1 43//1
f 49//1 46//1 48//1
f 50//1 49//1 48//1
f 47//1 51//1 44//1
f 49//1 50//1 35//1
f 50//1 36//1 35//1
f 38//1 32//1 34//1
f 38//1 34//1 37//1
s 0
f 16//1 1//2 15//1
s 1
f 52//4 53//4 54//4
f 52//4 54//4 55//4
f 52//4 55//4 56//4
f 52//4 56//4 57//4
f 58//4 59//4 57//4
f 60//4 61//4 59//4
f 62//4 61//4 60//4
f 63//4 64//4 62//4
f 65//4 64//4 63//4
f 66//4 65//4 67//4
f 66//4 67//4 68//4
f 69//4 68//4 70//4
f 71//4 70//4 72//4
f 71//4 72//4 73//4
f 74//4 75//4 76//4
f 77//4 74//4 78//4
f 77//4 78//4 79//4
f 80//4 81//4 82//4
f 81//4 79//4 82//4
f 83//4 82//4 84//4
s 0
f 82//4 85//4 86//4
f 82//5 86//4 87//4
s 1
f 88//4 82//4 89//4
f 88//4 90//4 82//4
f 90//4 91//4 82//4
f 82//4 92//4 93//4
f 82//4 93//4 94//4
f 82//4 94//4 95//4
f 82//4 95//4 96//4
f 84//4 82//4 97//4
f 82//4 96//4 97//4
f 91//4 92//4 82//4
f 89//4 82//4 87//4
f 83//4 80//4 82//4
f 79//4 81//4 77//4
f 76//4 78//4 74//4
f 98//4 76//4 75//4
f 98//4 75//4 73//4
f 98//4 73//4 72//4
f 70//4 71//4 69//4
f 68//4 69//4 66//4
f 63//4 67//4 65//4
f 60//4 59//4 58//4
f 61//4 62//4 64//4
f 99//4 57//4 100//4
f 101//4 99//4 102//4
f 58//4 57//4 56//4
f 57//4 99//4 52//4
f 100//4 102//4 99//4
f 103//6 104//6 105//6
f 106//6 107//6 108//6
f 109//6 110//6 111//7
f 105//7 112//6 109//6
f 111//6 113//6 114//6
f 115//8 116//9 117//1
f 118//10 119//11 115//8
f 120//12 118//10 121//13
f 120//12 121//13 122//14
f 123//15 122//14 124//16
f 123//15 124//16 125//17
f 125//17 126//18 127//19
f 126//18 128//20 127//19
f 128//20 129//21 130//22
f 129//21 131//23 130//22
f 132//24 133//25 131//23
f 134//26 133//25 132//24
f 135//27 136//28 134//26
f 137//29 136//28 135//27
f 138//30 137//29 139//31
f 140//32 141//33 142//34
f 141//33 143//34 142//34
f 144//35 141//33 140//32
f 144//35 140//32 145//36
f 144//35 145//36 146//37
f 146//37 145//36 147//38
f 146//37 147//38 148//39
f 147//38 138//30 148//39
f 138//30 139//31 148//39
f 137//29 135//27 139//31
f 136//28 133//25 134//26
f 132//24 131//23 129//21
f 128//20 130//22 127//19
f 123//15 120//12 122//14
f 124//16 126//18 125//17
f 116//9 115//8 119//11
f 149//40 117//1 116//9
f 150//41 117//1 149//40
f 151//42 150//41 149//40
f 152//43 150//41 151//42
f 152//43 153//44 154//45
f 153//44 155//46 154//45
f 156//47 157//48 155//46
f 158//49 156//47 159//50
f 158//49 160//51 161//52
f 162//53 163//54 161//52
f 164//55 163//54 165//56
f 166//57 167//58 168//59
f 169//60 166//57 170//61
f 167//58 171//62 168//59
f 172//63 173//64 174//65
f 172//63 174//65 175//66
f 173//64 176//67 177//68
f 176//67 178//69 177//68
f 178//69 179//70 177//68
f 180//71 181//72 179//70
f 181//72 180//71 182//73
f 181//72 182//73 183//74
f 183//74 184//75 185//76
f 184//75 186//77 185//76
f 186//77 187//78 185//76
f 187//78 188//79 189//80
f 188//79 190//81 189//80
f 191//82 190//81 188//79
f 192//83 193//84 191//82
f 194//85 193//84 192//83
f 194//85 192//83 195//86
f 166//57 164//55 170//61
f 196//87 194//85 197//88
f 165//56 163//54 162//53
f 198//89 196//87 199//90
f 196//87 197//88 199//90
f 200//91 198//89 201//92
f 161//52 160//51 162//53
f 200//91 201//92 202//93
f 160//51 158//49 159//50
f 203//94 200//91 204//95
f 156//47 158//49 157//48
f 203//94 204//95 205//96
f 154//45 155//46 157//48
f 203//94 205//96 206//97
f 153//44 152//43 151//42
f 175//66 168//59 171//62
f 207//98 208//99 206//97
f 207//98 209//100 208//99
f 209//100 210//101 211//102
f 210//101 212//103 211//102
f 213//104 212//103 210//101
f 214//105 215//106 212//103
f 216//107 215//106 214//105
f 217//108 218//109 216//107
f 219//110 218//109 217//108
f 220//111 219//110 221//112
f 220//111 221//112 222//113
f 223//114 220//111 224//115
f 223//114 224//115 225//116
f 226//117 225//116 227//118
f 228//119 229//120 230//121
f 228//119 230//121 231//122
f 232//123 233//124 234//125
f 235//126 228//119 236//127
f 237//128 238//129 239//130
f 240//131 241//132 242//133
f 243//134 244//135 245//136
f 246//137 247//138 248//139
f 249//140 250//141 251//142
f 252//143 253//144 254//145
f 255//146 256//147 257//148
f 258//149 259//150 256//147
f 259//150 260//151 261//152
f 260//151 262//153 263//154
f 262//153 264//155 265//156
f 264//155 266//157 267//158
f 198//89 199//90 201//92
f 197//88 194//85 195//86
f 143//34 268//159 142//34
f 269//160 268//159 143//34
f 270//161 268//159 269//160
f 270//161 269//160 267//158
f 264//155 267//158 265//156
f 262//153 265//156 263//154
f 260//151 263//154 261//152
f 259//150 261//152 256//147
f 258//149 256//147 255//146
f 255//146 257//148 252//143
f 257//148 253//144 252//143
f 253//144 250//141 254//145
f 250//141 249//140 254//145
f 251//142 271//162 249//140
f 272//163 271//162 251//142
f 272//163 251//142 248//139
f 272//163 248//139 247//138
f 247//138 246//137 273//164
f 246//137 274//165 273//164
f 274//165 243//134 273//164
f 244//135 243//134 274//165
f 275//166 245//136 244//135
f 275//166 244//135 276//167
f 275//166 276//167 277//168
f 276//167 241//132 277//168
f 241//132 240//131 277//168
f 242//133 278//169 240//131
f 279//170 278//169 242//133
f 280//171 278//169 279//170
f 280//171 279//170 238//129
f 279//170 239//130 238//129
f 239//130 281//172 237//128
f 281//172 282//173 237//128
f 283//174 282//173 281//172
f 284//175 282//173 283//174
f 284//175 283//174 234//125
f 284//175 234//125 233//124
f 234//125 285//176 232//123
f 285//176 286//177 232//123
f 287//178 286//177 285//176
f 288//179 286//177 287//178
f 288//179 287//178 289//180
f 288//179 289//180 290//181
f 289//180 235//126 290//181
f 235//126 236//127 290//181
f 226//117 227//118 229//120
f 231//122 236//127 228//119
f 227//118 230//121 229//120
f 223//114 225//116 226//117
f 220//111 222//113 224//115
f 219//110 217//108 221//112
f 218//109 215//106 216//107
f 214//105 212//103 213//104
f 209//100 211//102 208//99
f 205//96 207//98 206//97
f 200//91 202//93 204//95
f 270//161 267//158 266//157
f 190//81 191//82 193//84
f 189//80 185//76 187//78
f 184//75 183//74 182//73
f 178//69 180//71 179//70
f 174//65 173//64 177//68
f 175//66 171//62 172//63
f 167//58 166//57 169//60
f 121//13 118//10 115//8
f 165//56 170//61 164//55
f 291//182 292//182 293//182
f 294//182 295//182 296//182
f 297//183 298//183 299//182
f 300//182 297//182 301//182
f 298//183 291//183 302//182
f 303//184 304//184 305//184
f 306//185 307//185 308//185
f 309//184 310//184 311//184
f 312//184 313//184 314//184
f 315//184 316//184 317//184
f 318//184 319//184 320//184
f 321//184 322//184 323//184
f 324//184 325//184 326//184
f 327//184 328//184 329//184
f 330//184 331//184 332//184
f 333//184 334//184 335//184
f 336//185 337//185 338//185
f 339//184 340//184 341//184
f 342//184 343//184 344//184
f 345//184 346//184 347//184
f 348//184 349//184 350//184
f 351//184 352//184 353//184
f 354//184 355//184 356//184
f 357//184 358//184 359//184
f 360//184 361//184 362//184
f 363//185 364//185 365//185
f 366//184 367//184 368//184
f 369//184 370//184 371//184
f 372//184 373//184 374//184
f 375//184 376//184 377//184
f 378//184 379//184 380//184
f 381//184 382//184 383//184
f 384//185 385//185 386//185
f 387//184 388//184 389//184
f 390//184 391//184 392//184
f 393//184 394//184 395//184
f 396//184 397//184 398//184
f 399//184 400//184 401//184
f 402//184 403//184 404//184
f 405//184 406//184 407//184
f 408//184 409//184 410//184
f 411//184 412//184 413//184
f 414//184 415//184 416//184
f 417//184 418//184 419//184
f 420//184 421//184 422//184
f 423//184 424//184 425//184
f 426//184 427//184 428//184
f 429//184 430//184 431//184
f 432//186 433//186 434//186
f 435//184 436//184 437//184
f 438//184 439//184 440//184
f 441//184 442//184 443//184
f 444//184 445//184 446//184
f 447//184 448//184 449//184
f 450//184 451//184 452//184
f 453//184 454//184 455//184
f 456//184 457//184 458//184
f 459//186 460//186 461//186
f 462//184 463//184 464//184
f 465//184 466//184 467//184
f 468//184 469//184 470//184
f 471//184 472//184 473//184
f 474//184 475//184 476//184
f 477//184 478//184 479//184
f 480//184 481//184 482//184
f 483//184 484//184 485//184
f 486//184 487//184 488//184
f 489//184 490//184 491//184
f 492//184 493//184 494//184
f 495//184 496//184 497//184
f 498//184 499//184 500//184
f 501//184 502//184 503//184
f 504//184 505//184 506//184
f 507//184 508//184 509//184
f 510//186 511//186 512//186
f 513//184 514//184 515//184
f 516//184 517//184 518//184
f 519//184 520//184 521//184
f 522//184 523//184 524//184
f 525//184 526//184 527//184
f 528//184 529//184 530//184
f 531//184 532//184 533//184
f 534//184 535//184 536//184
f 537//184 538//184 539//184
f 540//184 541//184 542//184
f 543//187 544//187 545//187
f 546//184 547//184 548//184
f 549//184 550//184 551//184
f 552//184 553//184 554//184
f 555//188 556//189 557//190
f 555//188 558//191 556//189
f 559//192 560//193 561//194
f 559//192 562//195 563//196
f 564//197 565//198 566//199
f 564//197 562//195 567//200
f 564//197 567//200 568//201
f 562//195 561//194 569//202
f 570//203 563//196 571//204
f 570//203 558//191 560//193
f 570//203 571//204 556//189
f 563//196 572//205 571//204
f 569//202 561//194 573//206
f 569//202 567//200 562//195
f 574//207 575//208 576//209
f 574//207 577//210 575//208
f 578//211 579//212 580//213
f 578//211 581//214 582//215
f 583//216 584//217 585//206
f 583//216 580//213 586//218
f 580//213 587//219 586//218
f 580//213 579//212 587//219
f 579//212 588//220 589//221
f 579//190 590//215 591//222
f 592//223 593//224 594//225
f 592//223 595//226 596//227
f 597//228 598//229 599//230
f 597//228 600//231 598//229
f 594//225 601//226 592//223
f 594//225 602//232 603//233
f 604//234 605//235 606//232
f 604//234 575//208 607//236
f 605//235 588//220 608//237
f 605//235 607//236 588//220
f 592//223 596//227 593//224
f 595//226 557//190 609//226
f 596//227 610//238 593//224
f 596//227 609//226 611//239
f 611//239 589//221 588//220
f 611//239 609//226 589//221
f 589//221 587//219 579//212
f 589//221 609//226 612//240
f 557//190 613//215 612//240
f 557//190 556//189 613//215
f 612//240 609//226 557//190
f 612//240 614//241 587//219
f 614//241 615//242 586//218
f 614//241 613//215 571//204
f 600//231 593//224 616//243
f 594//225 597//228 617//244
f 618//245 577//210 619//246
f 618//245 607//236 575//208
f 577//210 574//207 620//247
f 618//245 619//246 610//238
f 621//248 622//249 623//250
f 621//248 619//246 622//249
f 616//243 593//224 610//238
f 616//243 598//229 600//231
f 568//201 567//200 624//251
f 568//201 625//252 565//198
f 558//191 601//226 626//222
f 601//226 555//188 595//226
f 559//192 561//194 562//195
f 560//193 627//215 628//253
f 562//195 564//197 563//196
f 566//199 629//254 572//205
f 291//183 620//247 630//249
f 291//183 298//183 620//247
f 620//247 574//207 631//209
f 620//247 298//183 622//249
f 604//234 607//236 605//235
f 575//208 577//210 618//245
f 297//183 623//250 298//183
f 623//250 598//229 621//248
f 623//250 297//183 632//249
f 633//255 584//217 634//256
f 633//255 635//257 636//258
f 629//254 615//242 572//205
f 629//254 634//256 584//217
f 586//218 587//219 614//241
f 637//214 578//211 638//259
f 633//255 634//256 639//260
f 584//217 586//218 629//254
f 640//261 569//262 641//263
f 572//205 564//197 566//199
f 571//204 572//205 615//242
f 570//203 556//189 558//191
f 568//201 565//198 564//197
f 625//252 642//252 565//198
f 563//196 564//197 572//205
f 565//198 643//252 634//256
f 571//204 615//242 614//241
f 566//199 565//198 634//256
f 621//248 616//243 619//246
f 598//229 644//209 645//230
f 577//210 622//249 619//246
f 620//247 622//249 577//210
f 610//238 619//246 616//243
f 610//238 596//227 611//239
f 584//217 583//216 586//218
f 611//239 607//236 610//238
f 588//220 607//236 611//239
f 607//236 618//245 610//238
f 597//228 593//224 600//231
f 595//226 555//188 557//190
f 598//229 616//243 621//248
f 592//223 601//226 595//226
f 595//226 609//226 596//227
f 589//221 612//240 587//219
f 586//218 615//242 629//254
f 614//241 612//240 613//215
f 569//264 646//265 647//263
f 560//193 559//192 570//203
f 601//226 558//191 555//188
f 556//189 571//204 613//215
f 634//256 648//266 649//267
f 650//268 651//269 568//201
f 652//244 653//270 604//234
f 623//250 622//249 298//183
f 654//222 655//226 579//190
f 656//220 601//226 594//225
f 657//260 633//255 658//269
f 659//259 561//271 660//272
f 661//266 662//269 663//267
f 664//273 665//252 666//269
f 667//267 668//269 669//274
f 670//274 671//269 672//251
f 633//255 673//274 674//268
f 633//255 675//275 676//274
f 677//268 678//276 633//255
f 679//257 633//255 680//277
f 681//206 682//259 583//278
f 683//215 579//212 578//211
f 583//216 578//211 580//213
f 684//206 561//271 685//259
f 588//220 579//212 686//220
f 563//196 570//203 559//192
f 687//260 634//256 688//279
f 689//279 634//256 690//257
f 691//269 692//252 568//280
f 693//275 694//281 634//256
f 695//276 696//206 584//217
f 629//254 566//199 634//256
f 634//282 697//283 698//284
f 699//267 700//274 634//256
f 568//201 701//252 625//252
f 702//275 634//256 703//274
f 704//251 567//200 569//202
f 705//269 633//255 706//260
f 707//233 708//232 605//225
f 558//191 709//222 560//193
f 710//285 711//233 605//286
f 712//215 560//193 713//222
f 604//234 714//232 715//244
f 716//220 594//225 717//233
f 718//249 719//209 623//250
f 720//287 721//249 297//182
f 623//250 722//288 598//229
f 723//244 597//228 724//230
f 291//182 725//249 726//287
f 727//244 728//232 594//225
f 729//249 620//247 730//288
f 593//224 597//228 594//225
f 731//230 732//288 575//208
f 604//234 733//230 575//208
f 734//222 601//226 735//220
f 736//272 561//194 560//193
f 737//277 633//255 738//260
f 633//255 739//263 584//217
f 740//269 741//252 742//252
f 578//211 583//216 743//259
f 744//252 745//252 746//289
f 747//290 748//291 749//292
f 750//293 751//294 752//295
f 753//293 754//296 755//294
f 756//294 757//297 758//298
f 759//299 760//294 761//300
f 762//301 763//302 764//303
f 765//304 766//305 767//302
f 768//306 769//307 770//308
f 771//309 772//310 773//311
f 774//310 775//312 776//313
f 777//314 778//315 779//316
f 780//316 781//315 782//317
f 783//318 784//316 785//319
f 786//320 787//318 788//321
f 789//322 790//320 791//323
f 792//324 793//325 794//326
f 795//327 796//327 797//328
f 798//328 799//327 800//329
f 801//329 802//327 803//330
f 804//331 805//329 806//330
f 807//332 808//333 809//330
f 810//334 811//332 812//330
f 813//335 814//334 815//336
f 816//335 817//337 818//334
f 819//335 820//338 821//337
f 822//335 823//339 824//338
f 825//338 826//340 827//341
f 828//342 829//325 830//343
f 831//341 832//342 833//344
f 834//343 835//326 836//325
f 837//345 838//346 839//347
f 840//348 841//345 842//349
f 843//350 844//348 845//351
f 846//352 847//353 848//348
f 849//354 850//355 851//351
f 852//320 853//322 854//356
f 855//321 856//323 857//320
f 858//319 859//321 860//357
f 861//317 862//358 863//316
f 864//359 865//314 866//312
f 867//313 868//360 869//310
f 870//311 871//307 872//361
f 873//360 874//362 875//363
f 876//308 877//302 878//306
f 879//302 880//301 881//304
f 882//348 883//353 884//345
f 885//344 886//364 887//365
f 888//366 889//367 890//368
f 888//366 891//369 889//367
f 892//370 893//371 894//372
f 892//370 895//373 896//374
f 892//370 896//374 893//371
f 895//373 897//375 898//376
f 899//377 898//376 900//378
f 899//377 901//379 896//374
f 898//376 897//375 900//378
f 898//376 896//374 895//373
f 902//380 903//381 904//382
f 902//380 905//383 906//384
f 907//385 908//386 909//387
f 907//385 910//388 908//386
f 911//389 912//390 913//391
f 911//389 914//392 915//393
f 912//390 916//394 913//391
f 912//390 915//393 917//395
f 918//396 919//397 920//398
f 918//396 921//399 922//400
f 921//399 923//401 924//402
f 921//399 925//403 926//404
f 927//405 928//406 929//407
f 927//405 891//369 930//408
f 931//409 932//410 933//411
f 931//409 934//412 935//413
f 905//414 936//316 937//318
f 905//383 932//410 938//314
f 932//410 904//382 939//415
f 905//414 940//314 941//316
f 934//416 942//311 943//417
f 934//412 894//372 944//311
f 945//418 946//419 947//420
f 945//418 948//421 917//395
f 945//418 917//395 946//419
f 948//421 949//422 950//423
f 951//424 949//422 952//425
f 951//424 950//423 949//422
f 917//395 915//393 946//419
f 917//395 950//423 916//394
f 948//421 950//423 917//395
f 917//395 916//394 912//390
f 953//426 951//424 952//425
f 954//389 955//427 956//428
f 954//389 957//429 926//404
f 958//430 959//431 908//386
f 958//430 960//340 959//431
f 961//432 962//433 963//434
f 961//432 908//386 910//388
f 964//435 965//354 966//436
f 964//435 967//437 968//438
f 967//437 969//439 970//440
f 967//437 971//441 972//442
f 973//443 955//427 925//403
f 973//443 974//444 975//445
f 974//444 970//440 969//439
f 974//444 976//446 977//447
f 970//440 968//438 967//437
f 970//440 977//447 978//448
f 979//449 980//450 981//451
f 979//449 893//371 982//452
f 947//420 983//453 945//418
f 947//420 959//431 984//335
f 985//454 986//455 987//456
f 985//457 988//458 989//459
f 986//455 990//460 991//461
f 986//462 992//459 993//463
f 994//464 995//465 996//466
f 994//464 930//408 997//467
f 995//465 990//460 998//468
f 995//465 997//467 999//469
f 1000//470 1001//471 1002//472
f 1000//470 1003//473 1004//474
f 1005//475 968//438 978//448
f 1005//475 1002//472 965//354
f 1001//471 1006//476 1007//477
f 1001//471 1004//474 1006//476
f 1008//478 1009//479 1010//351
f 1008//478 1011//480 966//436
f 1008//478 966//436 1009//479
f 1011//480 1012//481 966//436
f 975//445 956//428 955//427
f 975//445 969//439 909//387
f 991//461 999//469 1003//473
f 991//461 987//456 986//455
f 999//469 997//467 1004//474
f 999//469 990//460 995//465
f 953//426 957//429 913//391
f 953//426 952//425 1013//482
f 926//404 925//403 955//427
f 926//404 1013//482 923//401
f 1013//482 952//425 1014//483
f 1013//482 957//429 953//426
f 1013//482 1014//483 923//401
f 952//425 1015//327 1016//484
f 1017//485 908//386 959//431
f 1017//485 915//393 914//392
f 945//418 983//453 948//421
f 946//419 959//431 947//420
f 918//396 925//403 921//399
f 920//398 1018//486 976//446
f 1018//486 987//456 977//447
f 1018//486 919//397 985//454
f 894//372 981//451 1019//308
f 894//372 933//411 892//370
f 981//451 980//450 1020//302
f 981//451 893//371 979//449
f 909//387 914//392 956//428
f 909//387 972//442 907//385
f 911//389 915//393 912//390
f 914//392 908//386 1017//485
f 1021//487 980//450 1022//488
f 1021//487 1023//252 1024//294
f 1021//487 1022//488 1025//252
f 980//450 982//452 1026//489
f 1022//488 1026//489 1027//490
f 980//450 1021//487 1028//303
f 1029//491 889//367 1030//492
f 1029//491 1031//493 1032//494
f 1033//495 1034//496 1031//493
f 1033//495 1035//497 1036//498
f 978//448 977//447 987//456
f 978//448 968//438 970//440
f 977//447 976//446 1018//486
f 975//445 974//444 969//439
f 980//450 1026//489 1022//488
f 982//452 901//379 1026//489
f 1004//474 1037//316 1006//476
f 1004//474 1003//473 999//469
f 1037//316 1038//499 1039//500
f 1037//316 997//467 930//408
f 964//435 971//441 967//437
f 965//354 1040//501 966//436
f 967//437 972//442 969//439
f 971//441 966//436 1012//481
f 1041//502 1006//476 1037//316
f 1041//502 900//378 897//375
f 899//377 1042//503 1043//504
f 900//378 1039//500 1044//505
f 890//368 1032//494 1042//503
f 890//368 1038//499 888//366
f 1032//494 1031//493 1043//504
f 1032//494 889//367 1029//491
f 1012//481 907//385 972//442
f 910//388 962//433 961//432
f 1012//481 1011//480 962//433
f 1012//481 972//442 971//441
f 1044//505 1039//500 1038//499
f 1044//505 1042//503 900//378
f 1045//506 897//375 939//415
f 1045//506 1007//477 1006//476
f 1007//477 1040//501 1002//472
f 1007//477 904//382 903//381
f 927//405 930//408 994//464
f 930//408 888//366 1038//499
f 994//464 997//467 995//465
f 930//408 1038//499 1037//316
f 1009//479 903//381 1046//320
f 1009//479 966//436 1040//501
f 902//380 904//382 932//410
f 903//381 1040//501 1007//477
f 923//401 1014//483 1047//507
f 1013//482 926//404 957//429
f 1014//508 1048//509 1049//510
f 1014//483 1050//511 1051//509
f 1045//506 904//382 1007//477
f 931//409 933//411 894//372
f 1043//504 1042//503 1032//494
f 1043//504 901//379 899//377
f 1027//490 625//291 1022//488
f 1027//490 1031//493 1034//496
f 1033//495 1031//493 1029//491
f 1034//496 625//291 1027//490
f 1042//503 899//377 900//378
f 895//373 892//370 933//411
f 896//374 982//452 893//371
f 1026//489 1043//504 1027//490
f 894//372 893//371 981//451
f 933//411 939//415 895//373
f 1017//485 946//419 915//393
f 959//431 1052//340 1053//335
f 983//512 1054//330 1055//422
f 959//431 946//419 1017//485
f 913//391 916//394 953//426
f 911//389 956//428 914//392
f 975//445 955//427 973//443
f 955//427 954//389 926//404
f 962//433 1011//480 1008//478
f 1012//481 910//388 907//385
f 962//433 910//388 1012//481
f 975//445 909//387 956//428
f 908//386 914//392 909//387
f 956//428 911//389 913//391
f 918//396 920//398 925//403
f 925//403 920//398 976//446
f 923//401 921//399 926//404
f 925//403 976//446 973//443
f 951//424 953//426 916//394
f 957//429 954//389 913//391
f 978//448 991//461 1003//473
f 995//465 1056//468 1057//513
f 964//435 968//438 965//354
f 976//446 974//444 973//443
f 1009//479 1040//501 903//381
f 1005//475 965//354 968//438
f 966//436 971//441 964//435
f 972//442 909//387 969//439
f 919//397 1018//486 920//398
f 1005//475 978//448 1000//470
f 954//389 956//428 913//391
f 974//444 977//447 970//440
f 1003//473 1000//470 978//448
f 1002//472 1040//501 965//354
f 1002//472 1005//475 1000//470
f 1058//514 994//515 1059//516
f 1000//470 1004//474 1001//471
f 1060//517 995//465 1061//518
f 1041//502 1045//506 1006//476
f 902//380 932//410 905//383
f 1007//477 1002//472 1001//471
f 1062//348 1008//478 1063//519
f 1045//506 1041//502 897//375
f 1032//494 890//368 889//367
f 899//377 896//374 898//376
f 1064//413 932//410 931//409
f 900//378 1041//502 1039//500
f 1065//318 903//381 902//380
f 1044//505 890//368 1042//503
f 889//367 891//369 1066//520
f 1037//316 1039//500 1041//502
f 1067//521 891//369 1068//522
f 1027//490 1043//504 1031//493
f 1069//308 981//523 1070//302
f 901//379 1043//504 1026//489
f 1071//524 1033//525 1072//498
f 1073//330 983//453 1074//335
f 1075//526 952//425 1076//527
f 1077//344 1078//340 958//528
f 1079//402 1080//529 921//399
f 939//415 904//382 1045//506
f 1081//530 985//454 919//397
f 982//452 896//374 901//379
f 1082//466 1083//516 994//531
f 1022//488 625//291 1084//295
f 1085//532 1086//520 891//369
f 1087//289 1088//252 1034//496
f 1034//496 1089//252 625//291
f 1090//533 1091//289 1034//496
f 1092//534 1093//535 1034//496
f 1033//495 1094//536 1034//496
f 1033//495 1095//524 1096//534
f 1044//505 1038//499 890//368
f 1029//491 1097//492 1033//495
f 1033//495 1098//492 1099//497
f 889//367 1100//520 1101//492
f 888//366 930//408 891//369
f 903//537 1102//318 1103//320
f 1037//316 1004//474 997//467
f 897//375 895//373 939//415
f 927//405 1104//538 891//369
f 927//405 1105//539 1106//538
f 1107//351 1009//479 1108//320
f 1109//514 927//405 994//464
f 1110//347 962//433 1111//348
f 991//461 978//448 987//456
f 962//433 1008//478 1112//348
f 1018//486 985//454 987//456
f 1113//344 961//432 1114//326
f 990//460 986//455 1115//468
f 947//420 1116//335 983//453
f 986//455 985//454 1117//459
f 961//432 1118//344 958//430
f 1119//540 985//457 1120//530
f 961//432 958//430 908//386
f 1121//541 918//396 1122//400
f 948//421 1123//422 949//422
f 1124//327 952//425 949//422
f 1125//542 1126//400 921//399
f 952//425 1127//526 1014//483
f 951//424 916//394 950//423
f 1128//510 1129//543 1014//544
f 1014//544 1130//543 1131//507
f 1132//389 923//401 1133//507
f 1134//389 1135//402 923//545
f 1136//546 948//421 983//453
f 918//396 1137//541 919//397
f 1138//541 1139//530 919//397
f 1140//463 1141//547 986//462
f 999//469 991//461 990//460
f 932//410 939//415 933//411
f 979//449 982//452 980//450
f 1142//294 1143//302 980//450
f 1144//362 1145//360 894//548
f 931//409 894//372 934//412
f 1146//549 1147//550 1148//551
f 1146//549 1149//552 1147//550
f 1150//553 1151//554 1152//555
f 1150//553 949//327 1153//556
f 1154//557 1155//558 1156//559
f 1154//557 1157//560 1158//561
f 1159//562 1160//563 1161//564
f 1159//562 1149//552 1160//563
f 1162//565 1163//566 1164//567
f 1162//565 1165//568 1166//569
f 1167//570 1168//571 1169//572
f 1167//570 1166//569 1170//573
f 1166//569 1165//568 1171//574
f 1166//569 1163//566 1162//565
f 1172//575 1173//576 1174//577
f 1172//575 1175//573 1176//578
f 1173//576 1177//579 1174//577
f 1173//567 1178//578 1179//580
f 1180//581 1160//563 1181//582
f 1180//581 1182//583 1183//584
f 1182//583 1164//567 1184//585
f 1182//583 1180//581 1162//565
f 1164//567 1185//586 1186//587
f 1164//567 1163//566 1185//586
f 1186//587 1187//588 1184//585
f 1186//587 1174//577 1177//579
f 1187//588 1188//589 1189//590
f 1187//588 1177//579 1190//591
f 1183//584 1191//592 1160//563
f 1183//584 1184//585 1189//590
f 1189//590 1184//585 1187//588
f 1189//590 1191//592 1183//584
f 1192//593 1193//594 1161//564
f 1192//593 1188//589 1194//595
f 1167//570 1163//566 1166//569
f 1169//572 1195//596 1163//566
f 1196//597 1156//559 1155//558
f 1196//597 1197//598 1156//559
f 1196//597 1155//558 1174//577
f 1156//559 1157//560 1154//557
f 1198//599 1161//564 1199//600
f 1198//599 1200//601 1147//550
f 1200//601 1201//602 1202//603
f 1200//601 1203//604 1153//556
f 1202//603 1147//550 1200//601
f 1202//603 1204//605 1205//606
f 1181//582 1165//568 1180//581
f 1181//582 1206//607 1207//608
f 1149//552 1146//549 1206//607
f 1198//599 1159//562 1161//564
f 1208//609 1209//610 1197//598
f 1208//609 1195//596 1168//571
f 1195//596 1169//572 1168//571
f 1195//596 1197//598 1185//586
f 1210//611 1211//612 1212//613
f 1210//611 1213//614 1214//615
f 1213//614 1215//616 1216//617
f 1213//614 1217//618 1218//619
f 1190//591 1177//579 1219//608
f 1190//591 1188//589 1187//588
f 1220//620 1215//616 1194//595
f 1220//621 1221//592 1222//622
f 1223//623 949//327 1224//327
f 1223//623 1153//556 949//327
f 1161//564 1191//592 1192//593
f 1161//564 1160//563 1191//592
f 1153//556 1223//623 1201//602
f 1153//556 1203//604 1151//554
f 1203//604 1199//600 1225//624
f 1149//552 1159//562 1147//550
f 1225//624 1151//554 1203//604
f 1225//624 1218//619 1217//618
f 1194//595 1188//589 1220//620
f 1194//595 1218//619 1193//594
f 1225//624 1217//618 1151//554
f 1218//619 1215//616 1213//614
f 111//7 1157//560 109//6
f 1209//610 1156//559 1197//598
f 1157//560 111//7 1226//610
f 1196//597 1174//577 1185//586
f 1155//558 1227//625 1228//626
f 105//7 1229//627 1230//610
f 105//7 109//6 1229//627
f 1229//627 1168//571 1231//625
f 1229//627 109//6 1209//610
f 1167//570 1169//572 1163//566
f 1195//596 1208//609 1197//598
f 1232//610 111//6 1233//628
f 1168//571 1229//627 1208//609
f 1234//625 1157//629 1235//610
f 1185//586 1197//598 1196//597
f 1185//586 1163//566 1195//596
f 1164//567 1186//587 1184//585
f 1177//585 1236//574 1237//608
f 1174//577 1186//587 1185//586
f 1238//574 1173//569 1239//580
f 1206//607 1146//549 1240//630
f 1149//552 1181//582 1160//563
f 1182//583 1162//565 1164//567
f 1166//569 1241//574 1242//580
f 1183//584 1182//583 1184//585
f 1243//626 1167//570 1244//573
f 1192//593 1189//590 1188//589
f 1162//565 1180//581 1165//568
f 1220//620 1188//589 1190//591
f 1192//593 1194//595 1193//594
f 1189//590 1192//593 1191//592
f 1245//551 1220//631 1246//622
f 1202//603 1201//602 1247//632
f 1198//599 1147//550 1159//562
f 1201//602 1223//623 1248//633
f 1150//553 1153//556 1151//554
f 1201//602 1200//601 1153//556
f 1225//624 1193//594 1218//619
f 1199//600 1161//564 1193//594
f 1165//568 1181//582 1249//608
f 1217//618 1250//634 1251//635
f 1217//618 1252//633 1253//634
f 1225//624 1199//600 1193//594
f 1254//636 1255//551 1202//603
f 1160//563 1180//581 1183//584
f 1157//560 1209//610 109//6
f 1203//604 1198//599 1199//600
f 1256//568 1177//579 1173//576
f 1257//637 1217//618 1258//635
f 1259//551 1215//616 1220//620
f 1260//327 1261//327 1262//633
f 1263//638 1264//422 1265//639
f 1266//640 1267//641 1268//642
f 1269//555 1270//643 1210//611
f 1271//643 1272//612 1210//611
f 1273//644 1210//611 1274//635
f 1217//618 1213//614 1210//611
f 1275//644 1276//633 1210//611
f 1277//615 1213//614 1278//605
f 1215//616 1218//619 1194//595
f 1279//606 1280//605 1213//645
f 1165//585 1281//608 1282//574
f 1177//579 1187//588 1186//587
f 1283//580 1284//578 1166//569
f 1190//591 1285//608 1286//592
f 1149//552 1206//607 1181//582
f 1172//575 1155//558 1287//626
f 1209//610 1208//609 1229//627
f 1154//557 1288//561 1155//558
f 1289//573 1172//575 1290//646
f 105//6 1291//610 1292//628
f 1172//575 1293//578 1173//576
f 1294//610 1229//627 1295//561
f 1157//560 1156//559 1209//610
f 1296//626 1168//571 1167//570
f 1190//591 1297//592 1220//620
f 1298//608 1206//607 1299//592
f 1300//612 1217//618 1301//637
f 1302//647 1146//549 1303//551
f 1304//615 1201//602 1305//633
f 1306//633 1223//623 1307//327
f 1202//603 1308//551 1147//550
f 949//327 1150//553 1309//327
f 1310//422 1150//553 1311//648
f 1312//648 1150//553 1313//649
f 1314//640 1151//554 1315//643
f 1316//643 1151//650 1317//612
f 1203//604 1200//601 1198//599
f 1318//615 1319//605 1202//603
f 1206//651 1320//622 1321//592
f 1322//626 1323//561 1168//571
f 1174//577 1155//558 1172//575
f 1324//578 1325//573 1166//569
f 1217//618 1210//611 1326//633
f 1327//551 1328//636 1215//616
f 1329//652 1330//633 1210//611
f 1210//611 1331//653 1332//635
f 1151//554 1217//618 1333//612
f 1210//611 1334//633 1335//555
