# Blender 4.4.3
# www.blender.org
mtllib Mesh_20.007.mtl
o Mesh_20.007
v -0.000150 0.008710 -0.011152
v -0.000150 0.008710 -0.011143
v -0.000150 0.008716 -0.011137
v -0.000150 0.008773 -0.011152
v -0.000150 0.008721 -0.011130
v -0.000150 0.008726 -0.011124
v -0.000150 0.008732 -0.011119
v -0.000150 0.008738 -0.011113
v -0.000150 0.008773 -0.011114
v -0.000150 0.008744 -0.011108
v -0.000150 0.008750 -0.011102
v -0.000150 0.008756 -0.011097
v -0.000150 0.008710 -0.011143
v -0.000065 0.008710 -0.011143
v -0.000065 0.008714 -0.011139
v -0.000150 0.008716 -0.011137
v -0.000150 0.008710 -0.011143
v -0.000065 0.008717 -0.011135
v -0.000150 0.008716 -0.011137
v -0.000150 0.008721 -0.011130
v -0.000150 0.008716 -0.011137
v -0.000150 0.008721 -0.011130
v -0.000065 0.008720 -0.011131
v -0.000065 0.008723 -0.011127
v -0.000150 0.008721 -0.011130
v -0.000150 0.008726 -0.011124
v -0.000150 0.008721 -0.011130
v -0.000065 0.008727 -0.011124
v -0.000065 0.008730 -0.011120
v -0.000150 0.008726 -0.011124
v -0.000150 0.008726 -0.011124
v -0.000150 0.008726 -0.011124
v -0.000150 0.008732 -0.011119
v -0.000150 0.008732 -0.011119
v -0.000065 0.008734 -0.011117
v -0.000150 0.008738 -0.011113
v -0.000150 0.008732 -0.011119
v -0.000065 0.008738 -0.011113
v -0.000150 0.008738 -0.011113
v -0.000065 0.008741 -0.011110
v -0.000150 0.008738 -0.011113
v -0.000150 0.008738 -0.011113
v -0.000150 0.008744 -0.011108
v -0.000150 0.008744 -0.011108
v -0.000065 0.008745 -0.011106
v -0.000150 0.008750 -0.011102
v -0.000147 0.008756 -0.011097
v -0.000150 0.008756 -0.011097
v -0.000150 0.008750 -0.011102
v -0.000150 0.008744 -0.011108
v -0.000150 0.008750 -0.011102
v -0.000143 0.008756 -0.011097
v -0.000065 0.008749 -0.011103
v -0.000150 0.008750 -0.011102
v -0.000140 0.008756 -0.011097
v -0.000150 0.008750 -0.011102
v -0.000136 0.008756 -0.011097
v -0.000150 0.008750 -0.011102
v -0.000133 0.008757 -0.011097
v -0.000065 0.008753 -0.011100
v -0.000130 0.008757 -0.011096
v -0.000123 0.008759 -0.011095
v -0.000127 0.008758 -0.011096
v -0.000100 0.008769 -0.011088
v -0.000102 0.008767 -0.011089
v -0.000065 0.008765 -0.011091
v -0.000065 0.008769 -0.011088
v -0.000105 0.008766 -0.011090
v -0.000108 0.008764 -0.011091
v -0.000065 0.008761 -0.011094
v -0.000111 0.008763 -0.011092
v -0.000114 0.008762 -0.011093
v -0.000065 0.008757 -0.011097
v -0.000117 0.008761 -0.011094
v -0.000120 0.008760 -0.011094
v -0.000150 0.008750 -0.011102
v -0.000150 0.008750 -0.011102
v -0.000065 0.008834 -0.011087
v -0.000088 0.008803 -0.011087
v -0.000065 0.008772 -0.011087
v -0.000095 0.008775 -0.011087
v -0.000097 0.008772 -0.011087
v -0.000093 0.008779 -0.011087
v -0.000091 0.008783 -0.011087
v -0.000090 0.008787 -0.011087
v -0.000089 0.008791 -0.011087
v -0.000088 0.008795 -0.011087
v -0.000088 0.008799 -0.011087
v -0.000088 0.008807 -0.011087
v -0.000088 0.008811 -0.011087
v -0.000089 0.008815 -0.011087
v -0.000090 0.008819 -0.011087
v -0.000091 0.008823 -0.011087
v -0.000095 0.008831 -0.011087
v -0.000097 0.008834 -0.011087
v -0.000093 0.008827 -0.011087
v -0.000150 0.008856 -0.011102
v -0.000147 0.008850 -0.011097
v -0.000143 0.008850 -0.011097
v -0.000140 0.008850 -0.011097
v -0.000137 0.008850 -0.011097
v -0.000133 0.008849 -0.011097
v -0.000065 0.008868 -0.011113
v -0.000065 0.008872 -0.011117
v -0.000150 0.008868 -0.011113
v -0.000065 0.008879 -0.011124
v -0.000150 0.008880 -0.011124
v -0.000065 0.008876 -0.011120
v -0.000065 0.008883 -0.011127
v -0.000150 0.008885 -0.011130
v -0.000150 0.008850 -0.011097
v -0.000150 0.008895 -0.011143
v -0.000065 0.008892 -0.011139
v -0.000065 0.008895 -0.011143
v -0.000150 0.008890 -0.011137
v -0.000065 0.008889 -0.011135
v -0.000065 0.008886 -0.011131
v -0.000150 0.008874 -0.011119
v -0.000065 0.008865 -0.011110
v -0.000150 0.008862 -0.011108
v -0.000065 0.008861 -0.011106
v -0.000130 0.008849 -0.011096
v -0.000065 0.008857 -0.011103
v -0.000127 0.008848 -0.011096
v -0.000065 0.008853 -0.011100
v -0.000123 0.008847 -0.011095
v -0.000120 0.008846 -0.011094
v -0.000065 0.008849 -0.011097
v -0.000114 0.008844 -0.011093
v -0.000111 0.008843 -0.011092
v -0.000065 0.008845 -0.011094
v -0.000065 0.008837 -0.011088
v -0.000065 0.008841 -0.011091
v -0.000100 0.008837 -0.011088
v -0.000102 0.008839 -0.011089
v -0.000105 0.008840 -0.011090
v -0.000108 0.008842 -0.011091
v -0.000117 0.008845 -0.011094
v -0.000150 0.008833 -0.011114
v -0.000150 0.008868 -0.011113
v -0.000150 0.008833 -0.011152
v -0.000150 0.008850 -0.011097
v -0.000150 0.008856 -0.011102
v -0.000150 0.008856 -0.011102
v -0.000150 0.008862 -0.011108
v -0.000150 0.008862 -0.011108
v -0.000150 0.008868 -0.011113
v -0.000150 0.008868 -0.011113
v -0.000150 0.008874 -0.011119
v -0.000150 0.008874 -0.011119
v -0.000150 0.008880 -0.011124
v -0.000150 0.008880 -0.011124
v -0.000150 0.008885 -0.011130
v -0.000150 0.008895 -0.011143
v -0.000150 0.008895 -0.011152
v -0.000150 0.008890 -0.011137
v -0.000150 0.008885 -0.011130
v -0.000150 0.008890 -0.011137
v -0.000150 0.008890 -0.011137
v -0.000065 0.008845 -0.011094
v -0.000065 0.008834 -0.011087
v -0.000065 0.008772 -0.011087
v -0.000065 0.008761 -0.011094
v -0.000065 0.008772 -0.011087
v -0.000065 0.008765 -0.011091
v -0.000065 0.008772 -0.011087
v -0.000065 0.008771 -0.011087
v -0.000065 0.008769 -0.011088
v -0.000065 0.008770 -0.011087
v -0.000065 0.008769 -0.011088
v -0.000065 0.008770 -0.011087
v -0.000065 0.008769 -0.011088
v -0.000065 0.008772 -0.011087
v -0.000065 0.008769 -0.011088
v -0.000065 0.008765 -0.011091
v -0.000065 0.008845 -0.011094
v -0.000065 0.008772 -0.011087
v -0.000065 0.008761 -0.011094
v -0.000065 0.008845 -0.011094
v -0.000065 0.008761 -0.011094
v -0.000065 0.008849 -0.011097
v -0.000065 0.008761 -0.011094
v -0.000065 0.008757 -0.011097
v -0.000065 0.008849 -0.011097
v -0.000065 0.008757 -0.011097
v -0.000065 0.008853 -0.011100
v -0.000065 0.008849 -0.011097
v -0.000065 0.008753 -0.011100
v -0.000065 0.008853 -0.011100
v -0.000065 0.008757 -0.011097
v -0.000065 0.008857 -0.011103
v -0.000065 0.008853 -0.011100
v -0.000065 0.008753 -0.011100
v -0.000065 0.008857 -0.011103
v -0.000065 0.008753 -0.011100
v -0.000065 0.008749 -0.011103
v -0.000065 0.008857 -0.011103
v -0.000065 0.008749 -0.011103
v -0.000065 0.008861 -0.011106
v -0.000065 0.008749 -0.011103
v -0.000065 0.008745 -0.011106
v -0.000065 0.008861 -0.011106
v -0.000065 0.008745 -0.011106
v -0.000065 0.008865 -0.011110
v -0.000065 0.008861 -0.011106
v -0.000065 0.008741 -0.011110
v -0.000065 0.008865 -0.011110
v -0.000065 0.008745 -0.011106
v -0.000065 0.008868 -0.011113
v -0.000065 0.008865 -0.011110
v -0.000065 0.008741 -0.011110
v -0.000065 0.008868 -0.011113
v -0.000065 0.008741 -0.011110
v -0.000065 0.008738 -0.011113
v -0.000065 0.008710 -0.011143
v -0.000065 0.008710 -0.011152
v -0.000065 0.008714 -0.011139
v -0.000065 0.008868 -0.011113
v -0.000065 0.008738 -0.011113
v -0.000065 0.008872 -0.011117
v -0.000065 0.008720 -0.011131
v -0.000065 0.008717 -0.011135
v -0.000065 0.008734 -0.011117
v -0.000065 0.008730 -0.011120
v -0.000065 0.008895 -0.011143
v -0.000065 0.008892 -0.011139
v -0.000065 0.008895 -0.011152
v -0.000065 0.008892 -0.011139
v -0.000065 0.008889 -0.011135
v -0.000065 0.008889 -0.011135
v -0.000065 0.008886 -0.011131
v -0.000065 0.008886 -0.011131
v -0.000065 0.008883 -0.011127
v -0.000065 0.008883 -0.011127
v -0.000065 0.008879 -0.011124
v -0.000065 0.008879 -0.011124
v -0.000065 0.008876 -0.011120
v -0.000065 0.008876 -0.011120
v -0.000065 0.008872 -0.011117
v -0.000065 0.008734 -0.011117
v -0.000065 0.008730 -0.011120
v -0.000065 0.008727 -0.011124
v -0.000065 0.008727 -0.011124
v -0.000065 0.008723 -0.011127
v -0.000065 0.008723 -0.011127
v -0.000065 0.008720 -0.011131
v -0.000065 0.008734 -0.011117
v -0.000065 0.008872 -0.011117
v -0.000065 0.008872 -0.011117
v -0.000065 0.008738 -0.011113
v -0.000065 0.008734 -0.011117
v -0.000065 0.008717 -0.011135
v -0.000065 0.008714 -0.011139
v -0.000065 0.008845 -0.011094
v -0.000065 0.008841 -0.011091
v -0.000065 0.008834 -0.011087
v -0.000065 0.008836 -0.011087
v -0.000065 0.008834 -0.011087
v -0.000065 0.008836 -0.011087
v -0.000065 0.008834 -0.011087
v -0.000065 0.008837 -0.011088
v -0.000065 0.008835 -0.011087
v -0.000065 0.008834 -0.011087
v -0.000065 0.008837 -0.011088
v -0.000065 0.008834 -0.011087
v -0.000065 0.008841 -0.011091
v -0.000065 0.008710 -0.011152
v -0.000065 0.008710 -0.011143
v -0.000150 0.008710 -0.011152
v -0.000065 0.008710 -0.011143
v -0.000150 0.008710 -0.011143
v -0.000150 0.008710 -0.011152
v -0.000150 0.008895 -0.011152
v -0.000150 0.008895 -0.011143
v -0.000065 0.008895 -0.011152
v -0.000150 0.008895 -0.011143
v -0.000065 0.008895 -0.011143
v -0.000065 0.008895 -0.011152
v -0.000150 0.008710 -0.011152
v -0.000134 0.008775 -0.011152
v -0.000132 0.008776 -0.011152
v -0.000065 0.008710 -0.011152
v -0.000115 0.008801 -0.011152
v -0.000115 0.008803 -0.011152
v -0.000148 0.008833 -0.011152
v -0.000150 0.008833 -0.011152
v -0.000150 0.008895 -0.011152
v -0.000150 0.008895 -0.011152
v -0.000147 0.008833 -0.011152
v -0.000150 0.008895 -0.011152
v -0.000145 0.008833 -0.011152
v -0.000150 0.008895 -0.011152
v -0.000144 0.008833 -0.011152
v -0.000150 0.008895 -0.011152
v -0.000142 0.008833 -0.011152
v -0.000150 0.008895 -0.011152
v -0.000140 0.008833 -0.011152
v -0.000150 0.008895 -0.011152
v -0.000139 0.008832 -0.011152
v -0.000150 0.008895 -0.011152
v -0.000137 0.008832 -0.011152
v -0.000150 0.008895 -0.011152
v -0.000136 0.008831 -0.011152
v -0.000150 0.008895 -0.011152
v -0.000134 0.008831 -0.011152
v -0.000150 0.008895 -0.011152
v -0.000132 0.008830 -0.011152
v -0.000150 0.008895 -0.011152
v -0.000131 0.008830 -0.011152
v -0.000150 0.008895 -0.011152
v -0.000065 0.008895 -0.011152
v -0.000065 0.008895 -0.011152
v -0.000130 0.008829 -0.011152
v -0.000065 0.008895 -0.011152
v -0.000128 0.008828 -0.011152
v -0.000065 0.008895 -0.011152
v -0.000127 0.008827 -0.011152
v -0.000065 0.008895 -0.011152
v -0.000126 0.008826 -0.011152
v -0.000065 0.008895 -0.011152
v -0.000124 0.008825 -0.011152
v -0.000065 0.008895 -0.011152
v -0.000123 0.008824 -0.011152
v -0.000065 0.008895 -0.011152
v -0.000122 0.008822 -0.011152
v -0.000065 0.008895 -0.011152
v -0.000121 0.008821 -0.011152
v -0.000065 0.008895 -0.011152
v -0.000120 0.008820 -0.011152
v -0.000065 0.008895 -0.011152
v -0.000119 0.008819 -0.011152
v -0.000117 0.008814 -0.011152
v -0.000118 0.008816 -0.011152
v -0.000065 0.008895 -0.011152
v -0.000065 0.008895 -0.011152
v -0.000119 0.008817 -0.011152
v -0.000117 0.008813 -0.011152
v -0.000065 0.008895 -0.011152
v -0.000116 0.008811 -0.011152
v -0.000065 0.008895 -0.011152
v -0.000116 0.008809 -0.011152
v -0.000065 0.008895 -0.011152
v -0.000115 0.008808 -0.011152
v -0.000065 0.008895 -0.011152
v -0.000115 0.008806 -0.011152
v -0.000065 0.008895 -0.011152
v -0.000115 0.008805 -0.011152
v -0.000065 0.008895 -0.011152
v -0.000065 0.008895 -0.011152
v -0.000065 0.008895 -0.011152
v -0.000065 0.008710 -0.011152
v -0.000065 0.008710 -0.011152
v -0.000115 0.008800 -0.011152
v -0.000065 0.008710 -0.011152
v -0.000115 0.008798 -0.011152
v -0.000065 0.008710 -0.011152
v -0.000116 0.008797 -0.011152
v -0.000065 0.008710 -0.011152
v -0.000116 0.008795 -0.011152
v -0.000065 0.008710 -0.011152
v -0.000117 0.008793 -0.011152
v -0.000118 0.008790 -0.011152
v -0.000065 0.008710 -0.011152
v -0.000119 0.008789 -0.011152
v -0.000117 0.008792 -0.011152
v -0.000065 0.008710 -0.011152
v -0.000065 0.008710 -0.011152
v -0.000119 0.008787 -0.011152
v -0.000065 0.008710 -0.011152
v -0.000120 0.008786 -0.011152
v -0.000065 0.008710 -0.011152
v -0.000121 0.008785 -0.011152
v -0.000065 0.008710 -0.011152
v -0.000122 0.008784 -0.011152
v -0.000065 0.008710 -0.011152
v -0.000123 0.008782 -0.011152
v -0.000065 0.008710 -0.011152
v -0.000124 0.008781 -0.011152
v -0.000065 0.008710 -0.011152
v -0.000126 0.008780 -0.011152
v -0.000065 0.008710 -0.011152
v -0.000127 0.008779 -0.011152
v -0.000065 0.008710 -0.011152
v -0.000128 0.008778 -0.011152
v -0.000065 0.008710 -0.011152
v -0.000130 0.008777 -0.011152
v -0.000065 0.008710 -0.011152
v -0.000131 0.008776 -0.011152
v -0.000065 0.008710 -0.011152
v -0.000150 0.008710 -0.011152
v -0.000150 0.008710 -0.011152
v -0.000136 0.008775 -0.011152
v -0.000150 0.008710 -0.011152
v -0.000137 0.008774 -0.011152
v -0.000150 0.008710 -0.011152
v -0.000139 0.008774 -0.011152
v -0.000150 0.008710 -0.011152
v -0.000150 0.008710 -0.011152
v -0.000140 0.008773 -0.011152
v -0.000150 0.008710 -0.011152
v -0.000142 0.008773 -0.011152
v -0.000150 0.008710 -0.011152
v -0.000144 0.008773 -0.011152
v -0.000150 0.008710 -0.011152
v -0.000145 0.008773 -0.011152
v -0.000150 0.008710 -0.011152
v -0.000147 0.008773 -0.011152
v -0.000065 0.008895 -0.011152
v -0.000150 0.008710 -0.011152
v -0.000148 0.008773 -0.011152
v -0.000065 0.008710 -0.011152
v -0.000150 0.008710 -0.011152
v -0.000150 0.008773 -0.011152
v -0.000148 0.008833 -0.011152
v -0.000147 0.008833 -0.011152
v -0.000148 0.008833 -0.011114
v -0.000147 0.008833 -0.011152
v -0.000145 0.008833 -0.011152
v -0.000147 0.008833 -0.011114
v -0.000145 0.008833 -0.011152
v -0.000145 0.008833 -0.011114
v -0.000144 0.008833 -0.011152
v -0.000144 0.008833 -0.011114
v -0.000142 0.008833 -0.011152
v -0.000142 0.008833 -0.011114
v -0.000140 0.008833 -0.011152
v -0.000140 0.008833 -0.011114
v -0.000139 0.008832 -0.011152
v -0.000140 0.008833 -0.011152
v -0.000137 0.008832 -0.011152
v -0.000139 0.008832 -0.011114
v -0.000139 0.008832 -0.011152
v -0.000137 0.008832 -0.011114
v -0.000137 0.008832 -0.011152
v -0.000136 0.008831 -0.011114
v -0.000136 0.008831 -0.011152
v -0.000136 0.008831 -0.011152
v -0.000134 0.008831 -0.011152
v -0.000134 0.008831 -0.011114
v -0.000134 0.008831 -0.011152
v -0.000132 0.008830 -0.011152
v -0.000132 0.008830 -0.011114
v -0.000132 0.008830 -0.011152
v -0.000131 0.008830 -0.011152
v -0.000131 0.008830 -0.011152
v -0.000131 0.008830 -0.011114
v -0.000130 0.008829 -0.011152
v -0.000130 0.008829 -0.011114
v -0.000130 0.008829 -0.011152
v -0.000128 0.008828 -0.011152
v -0.000128 0.008828 -0.011152
v -0.000127 0.008827 -0.011152
v -0.000128 0.008828 -0.011114
v -0.000127 0.008827 -0.011152
v -0.000127 0.008827 -0.011114
v -0.000126 0.008826 -0.011152
v -0.000126 0.008826 -0.011114
v -0.000124 0.008825 -0.011152
v -0.000126 0.008826 -0.011152
v -0.000123 0.008824 -0.011152
v -0.000124 0.008825 -0.011114
v -0.000124 0.008825 -0.011152
v -0.000123 0.008824 -0.011114
v -0.000123 0.008824 -0.011152
v -0.000122 0.008822 -0.011114
v -0.000122 0.008822 -0.011152
v -0.000122 0.008822 -0.011152
v -0.000121 0.008821 -0.011152
v -0.000121 0.008821 -0.011114
v -0.000121 0.008821 -0.011152
v -0.000120 0.008820 -0.011152
v -0.000120 0.008820 -0.011152
v -0.000120 0.008820 -0.011114
v -0.000119 0.008819 -0.011152
v -0.000119 0.008819 -0.011114
v -0.000119 0.008819 -0.011152
v -0.000119 0.008817 -0.011152
v -0.000119 0.008817 -0.011152
v -0.000118 0.008816 -0.011152
v -0.000119 0.008817 -0.011114
v -0.000118 0.008816 -0.011152
v -0.000118 0.008816 -0.011114
v -0.000117 0.008814 -0.011152
v -0.000117 0.008814 -0.011114
v -0.000117 0.008813 -0.011152
v -0.000117 0.008814 -0.011152
v -0.000116 0.008811 -0.011152
v -0.000117 0.008813 -0.011114
v -0.000117 0.008813 -0.011152
v -0.000116 0.008811 -0.011114
v -0.000116 0.008811 -0.011152
v -0.000116 0.008809 -0.011114
v -0.000116 0.008809 -0.011152
v -0.000116 0.008809 -0.011152
v -0.000115 0.008808 -0.011152
v -0.000115 0.008808 -0.011114
v -0.000115 0.008808 -0.011152
v -0.000115 0.008806 -0.011152
v -0.000115 0.008806 -0.011152
v -0.000115 0.008806 -0.011114
v -0.000115 0.008805 -0.011152
v -0.000115 0.008805 -0.011114
v -0.000115 0.008805 -0.011152
v -0.000115 0.008803 -0.011152
v -0.000115 0.008803 -0.011152
v -0.000115 0.008801 -0.011152
v -0.000115 0.008803 -0.011114
v -0.000115 0.008801 -0.011152
v -0.000115 0.008801 -0.011114
v -0.000115 0.008800 -0.011152
v -0.000115 0.008800 -0.011114
v -0.000115 0.008798 -0.011152
v -0.000115 0.008800 -0.011152
v -0.000116 0.008797 -0.011152
v -0.000115 0.008798 -0.011114
v -0.000115 0.008798 -0.011152
v -0.000116 0.008795 -0.011152
v -0.000116 0.008797 -0.011114
v -0.000116 0.008797 -0.011152
v -0.000116 0.008795 -0.011114
v -0.000116 0.008795 -0.011152
v -0.000117 0.008793 -0.011114
v -0.000117 0.008793 -0.011152
v -0.000117 0.008793 -0.011152
v -0.000117 0.008792 -0.011152
v -0.000117 0.008792 -0.011114
v -0.000117 0.008792 -0.011152
v -0.000118 0.008790 -0.011152
v -0.000118 0.008790 -0.011152
v -0.000118 0.008790 -0.011114
v -0.000119 0.008789 -0.011152
v -0.000119 0.008789 -0.011114
v -0.000119 0.008789 -0.011152
v -0.000119 0.008787 -0.011152
v -0.000119 0.008787 -0.011152
v -0.000120 0.008786 -0.011152
v -0.000119 0.008787 -0.011114
v -0.000120 0.008786 -0.011152
v -0.000120 0.008786 -0.011114
v -0.000121 0.008785 -0.011152
v -0.000121 0.008785 -0.011114
v -0.000122 0.008784 -0.011152
v -0.000121 0.008785 -0.011152
v -0.000123 0.008782 -0.011152
v -0.000122 0.008784 -0.011114
v -0.000122 0.008784 -0.011152
v -0.000123 0.008782 -0.011114
v -0.000123 0.008782 -0.011152
v -0.000124 0.008781 -0.011114
v -0.000124 0.008781 -0.011152
v -0.000124 0.008781 -0.011152
v -0.000126 0.008780 -0.011152
v -0.000126 0.008780 -0.011114
v -0.000126 0.008780 -0.011152
v -0.000127 0.008779 -0.011152
v -0.000127 0.008779 -0.011152
v -0.000127 0.008779 -0.011114
v -0.000148 0.008773 -0.011114
v -0.000147 0.008773 -0.011114
v -0.000148 0.008773 -0.011152
v -0.000150 0.008773 -0.011152
v -0.000150 0.008773 -0.011114
v -0.000150 0.008773 -0.011152
v -0.000148 0.008773 -0.011152
v -0.000147 0.008773 -0.011152
v -0.000148 0.008773 -0.011152
v -0.000145 0.008773 -0.011114
v -0.000147 0.008773 -0.011152
v -0.000145 0.008773 -0.011152
v -0.000147 0.008773 -0.011152
v -0.000145 0.008773 -0.011152
v -0.000144 0.008773 -0.011114
v -0.000145 0.008773 -0.011152
v -0.000144 0.008773 -0.011152
v -0.000142 0.008773 -0.011114
v -0.000144 0.008773 -0.011152
v -0.000142 0.008773 -0.011152
v -0.000144 0.008773 -0.011152
v -0.000140 0.008773 -0.011114
v -0.000142 0.008773 -0.011152
v -0.000140 0.008773 -0.011152
v -0.000142 0.008773 -0.011152
v -0.000140 0.008773 -0.011152
v -0.000139 0.008774 -0.011114
v -0.000140 0.008773 -0.011152
v -0.000139 0.008774 -0.011152
v -0.000137 0.008774 -0.011114
v -0.000139 0.008774 -0.011152
v -0.000137 0.008774 -0.011152
v -0.000139 0.008774 -0.011152
v -0.000136 0.008775 -0.011114
v -0.000137 0.008774 -0.011152
v -0.000136 0.008775 -0.011152
v -0.000137 0.008774 -0.011152
v -0.000136 0.008775 -0.011152
v -0.000134 0.008775 -0.011114
v -0.000136 0.008775 -0.011152
v -0.000134 0.008775 -0.011152
v -0.000132 0.008776 -0.011114
v -0.000134 0.008775 -0.011152
v -0.000132 0.008776 -0.011152
v -0.000134 0.008775 -0.011152
v -0.000131 0.008776 -0.011114
v -0.000132 0.008776 -0.011152
v -0.000131 0.008776 -0.011152
v -0.000132 0.008776 -0.011152
v -0.000131 0.008776 -0.011152
v -0.000130 0.008777 -0.011114
v -0.000131 0.008776 -0.011152
v -0.000130 0.008777 -0.011152
v -0.000128 0.008778 -0.011114
v -0.000130 0.008777 -0.011152
v -0.000128 0.008778 -0.011152
v -0.000130 0.008777 -0.011152
v -0.000128 0.008778 -0.011152
v -0.000127 0.008779 -0.011152
v -0.000128 0.008778 -0.011152
v -0.000126 0.008780 -0.011152
v -0.000123 0.008782 -0.011152
v -0.000124 0.008781 -0.011152
v -0.000122 0.008784 -0.011152
v -0.000121 0.008785 -0.011152
v -0.000120 0.008786 -0.011152
v -0.000119 0.008787 -0.011152
v -0.000118 0.008790 -0.011152
v -0.000119 0.008789 -0.011152
v -0.000117 0.008792 -0.011152
v -0.000116 0.008795 -0.011152
v -0.000117 0.008793 -0.011152
v -0.000116 0.008797 -0.011152
v -0.000115 0.008798 -0.011152
v -0.000115 0.008800 -0.011152
v -0.000115 0.008801 -0.011152
v -0.000115 0.008803 -0.011152
v -0.000115 0.008806 -0.011152
v -0.000115 0.008805 -0.011152
v -0.000115 0.008808 -0.011152
v -0.000116 0.008811 -0.011152
v -0.000116 0.008809 -0.011152
v -0.000117 0.008813 -0.011152
v -0.000117 0.008814 -0.011152
v -0.000118 0.008816 -0.011152
v -0.000119 0.008817 -0.011152
v -0.000120 0.008820 -0.011152
v -0.000119 0.008819 -0.011152
v -0.000121 0.008821 -0.011152
v -0.000123 0.008824 -0.011152
v -0.000122 0.008822 -0.011152
v -0.000124 0.008825 -0.011152
v -0.000126 0.008826 -0.011152
v -0.000127 0.008827 -0.011152
v -0.000128 0.008828 -0.011152
v -0.000131 0.008830 -0.011152
v -0.000130 0.008829 -0.011152
v -0.000132 0.008830 -0.011152
v -0.000134 0.008831 -0.011152
v -0.000137 0.008832 -0.011152
v -0.000136 0.008831 -0.011152
v -0.000142 0.008833 -0.011152
v -0.000140 0.008833 -0.011152
v -0.000145 0.008833 -0.011152
v -0.000144 0.008833 -0.011152
v -0.000150 0.008833 -0.011152
v -0.000148 0.008833 -0.011152
v -0.000150 0.008833 -0.011114
v -0.000150 0.008833 -0.011152
v -0.000139 0.008832 -0.011152
v -0.000144 0.008833 -0.011152
v -0.000142 0.008833 -0.011152
v -0.000147 0.008833 -0.011152
v -0.000147 0.008756 -0.011097
v -0.000145 0.008773 -0.011114
v -0.000147 0.008773 -0.011114
v -0.000147 0.008756 -0.011097
v -0.000147 0.008773 -0.011114
v -0.000150 0.008756 -0.011097
v -0.000143 0.008756 -0.011097
v -0.000144 0.008773 -0.011114
v -0.000145 0.008773 -0.011114
v -0.000142 0.008773 -0.011114
v -0.000144 0.008773 -0.011114
v -0.000140 0.008756 -0.011097
v -0.000140 0.008773 -0.011114
v -0.000140 0.008756 -0.011097
v -0.000136 0.008756 -0.011097
v -0.000139 0.008774 -0.011114
v -0.000136 0.008756 -0.011097
v -0.000133 0.008757 -0.011097
v -0.000137 0.008774 -0.011114
v -0.000133 0.008757 -0.011097
v -0.000130 0.008757 -0.011096
v -0.000136 0.008775 -0.011114
v -0.000130 0.008757 -0.011096
v -0.000134 0.008775 -0.011114
v -0.000130 0.008757 -0.011096
v -0.000127 0.008758 -0.011096
v -0.000134 0.008775 -0.011114
v -0.000127 0.008758 -0.011096
v -0.000123 0.008759 -0.011095
v -0.000132 0.008776 -0.011114
v -0.000123 0.008759 -0.011095
v -0.000131 0.008776 -0.011114
v -0.000132 0.008776 -0.011114
v -0.000120 0.008760 -0.011094
v -0.000130 0.008777 -0.011114
v -0.000131 0.008776 -0.011114
v -0.000117 0.008761 -0.011094
v -0.000128 0.008778 -0.011114
v -0.000130 0.008777 -0.011114
v -0.000114 0.008762 -0.011093
v -0.000128 0.008778 -0.011114
v -0.000117 0.008761 -0.011094
v -0.000126 0.008780 -0.011114
v -0.000127 0.008779 -0.011114
v -0.000114 0.008762 -0.011093
v -0.000126 0.008780 -0.011114
v -0.000114 0.008762 -0.011093
v -0.000111 0.008763 -0.011092
v -0.000126 0.008780 -0.011114
v -0.000111 0.008763 -0.011092
v -0.000124 0.008781 -0.011114
v -0.000111 0.008763 -0.011092
v -0.000108 0.008764 -0.011091
v -0.000124 0.008781 -0.011114
v -0.000123 0.008782 -0.011114
v -0.000105 0.008766 -0.011090
v -0.000122 0.008784 -0.011114
v -0.000108 0.008764 -0.011091
v -0.000123 0.008782 -0.011114
v -0.000124 0.008781 -0.011114
v -0.000105 0.008766 -0.011090
v -0.000102 0.008767 -0.011089
v -0.000122 0.008784 -0.011114
v -0.000102 0.008767 -0.011089
v -0.000100 0.008769 -0.011088
v -0.000121 0.008785 -0.011114
v -0.000100 0.008769 -0.011088
v -0.000099 0.008770 -0.011088
v -0.000120 0.008786 -0.011114
v -0.000098 0.008770 -0.011087
v -0.000120 0.008786 -0.011114
v -0.000120 0.008786 -0.011114
v -0.000097 0.008771 -0.011087
v -0.000097 0.008772 -0.011087
v -0.000119 0.008787 -0.011114
v -0.000097 0.008772 -0.011087
v -0.000095 0.008775 -0.011087
v -0.000119 0.008787 -0.011114
v -0.000095 0.008775 -0.011087
v -0.000119 0.008789 -0.011114
v -0.000119 0.008789 -0.011114
v -0.000093 0.008779 -0.011087
v -0.000118 0.008790 -0.011114
v -0.000093 0.008779 -0.011087
v -0.000091 0.008783 -0.011087
v -0.000117 0.008792 -0.011114
v -0.000091 0.008783 -0.011087
v -0.000090 0.008787 -0.011087
v -0.000117 0.008793 -0.011114
v -0.000090 0.008787 -0.011087
v -0.000116 0.008795 -0.011114
v -0.000117 0.008793 -0.011114
v -0.000089 0.008791 -0.011087
v -0.000116 0.008797 -0.011114
v -0.000116 0.008795 -0.011114
v -0.000088 0.008795 -0.011087
v -0.000115 0.008798 -0.011114
v -0.000089 0.008791 -0.011087
v -0.000115 0.008800 -0.011114
v -0.000115 0.008798 -0.011114
v -0.000088 0.008795 -0.011087
v -0.000115 0.008801 -0.011114
v -0.000115 0.008800 -0.011114
v -0.000088 0.008799 -0.011087
v -0.000115 0.008803 -0.011114
v -0.000115 0.008801 -0.011114
v -0.000088 0.008803 -0.011087
v -0.000115 0.008805 -0.011114
v -0.000115 0.008803 -0.011114
v -0.000088 0.008803 -0.011087
v -0.000115 0.008805 -0.011114
v -0.000088 0.008803 -0.011087
v -0.000088 0.008807 -0.011087
v -0.000115 0.008805 -0.011114
v -0.000088 0.008807 -0.011087
v -0.000115 0.008806 -0.011114
v -0.000115 0.008806 -0.011114
v -0.000088 0.008811 -0.011087
v -0.000115 0.008808 -0.011114
v -0.000088 0.008811 -0.011087
v -0.000089 0.008815 -0.011087
v -0.000115 0.008808 -0.011114
v -0.000089 0.008815 -0.011087
v -0.000116 0.008811 -0.011114
v -0.000116 0.008809 -0.011114
v -0.000090 0.008819 -0.011087
v -0.000117 0.008813 -0.011114
v -0.000116 0.008811 -0.011114
v -0.000091 0.008823 -0.011087
v -0.000117 0.008814 -0.011114
v -0.000117 0.008813 -0.011114
v -0.000093 0.008827 -0.011087
v -0.000118 0.008816 -0.011114
v -0.000117 0.008814 -0.011114
v -0.000119 0.008817 -0.011114
v -0.000118 0.008816 -0.011114
v -0.000093 0.008827 -0.011087
v -0.000119 0.008819 -0.011114
v -0.000119 0.008817 -0.011114
v -0.000095 0.008831 -0.011087
v -0.000120 0.008820 -0.011114
v -0.000119 0.008819 -0.011114
v -0.000097 0.008834 -0.011087
v -0.000098 0.008836 -0.011087
v -0.000120 0.008820 -0.011114
v -0.000097 0.008835 -0.011087
v -0.000105 0.008840 -0.011090
v -0.000122 0.008822 -0.011114
v -0.000102 0.008839 -0.011089
v -0.000121 0.008821 -0.011114
v -0.000100 0.008837 -0.011088
v -0.000102 0.008839 -0.011089
v -0.000123 0.008824 -0.011114
v -0.000122 0.008822 -0.011114
v -0.000105 0.008840 -0.011090
v -0.000124 0.008825 -0.011114
v -0.000123 0.008824 -0.011114
v -0.000108 0.008842 -0.011091
v -0.000126 0.008826 -0.011114
v -0.000124 0.008825 -0.011114
v -0.000111 0.008843 -0.011092
v -0.000127 0.008827 -0.011114
v -0.000126 0.008826 -0.011114
v -0.000114 0.008844 -0.011093
v -0.000099 0.008836 -0.011088
v -0.000100 0.008837 -0.011088
v -0.000120 0.008820 -0.011114
v -0.000150 0.008850 -0.011097
v -0.000150 0.008833 -0.011114
v -0.000148 0.008833 -0.011114
v -0.000150 0.008850 -0.011097
v -0.000148 0.008833 -0.011114
v -0.000147 0.008833 -0.011114
v -0.000150 0.008850 -0.011097
v -0.000147 0.008833 -0.011114
v -0.000147 0.008850 -0.011097
v -0.000147 0.008833 -0.011114
v -0.000145 0.008833 -0.011114
v -0.000147 0.008850 -0.011097
v -0.000145 0.008833 -0.011114
v -0.000143 0.008850 -0.011097
v -0.000147 0.008850 -0.011097
v -0.000144 0.008833 -0.011114
v -0.000143 0.008850 -0.011097
v -0.000145 0.008833 -0.011114
v -0.000140 0.008850 -0.011097
v -0.000143 0.008850 -0.011097
v -0.000144 0.008833 -0.011114
v -0.000140 0.008850 -0.011097
v -0.000144 0.008833 -0.011114
v -0.000142 0.008833 -0.011114
v -0.000140 0.008850 -0.011097
v -0.000142 0.008833 -0.011114
v -0.000140 0.008833 -0.011114
v -0.000140 0.008850 -0.011097
v -0.000140 0.008833 -0.011114
v -0.000137 0.008850 -0.011097
v -0.000140 0.008833 -0.011114
v -0.000139 0.008832 -0.011114
v -0.000137 0.008850 -0.011097
v -0.000139 0.008832 -0.011114
v -0.000133 0.008849 -0.011097
v -0.000137 0.008850 -0.011097
v -0.000137 0.008832 -0.011114
v -0.000133 0.008849 -0.011097
v -0.000139 0.008832 -0.011114
v -0.000130 0.008849 -0.011096
v -0.000133 0.008849 -0.011097
v -0.000137 0.008832 -0.011114
v -0.000130 0.008849 -0.011096
v -0.000137 0.008832 -0.011114
v -0.000136 0.008831 -0.011114
v -0.000130 0.008849 -0.011096
v -0.000136 0.008831 -0.011114
v -0.000134 0.008831 -0.011114
v -0.000130 0.008849 -0.011096
v -0.000134 0.008831 -0.011114
v -0.000127 0.008848 -0.011096
v -0.000134 0.008831 -0.011114
v -0.000132 0.008830 -0.011114
v -0.000127 0.008848 -0.011096
v -0.000132 0.008830 -0.011114
v -0.000123 0.008847 -0.011095
v -0.000127 0.008848 -0.011096
v -0.000131 0.008830 -0.011114
v -0.000123 0.008847 -0.011095
v -0.000132 0.008830 -0.011114
v -0.000120 0.008846 -0.011094
v -0.000123 0.008847 -0.011095
v -0.000131 0.008830 -0.011114
v -0.000120 0.008846 -0.011094
v -0.000131 0.008830 -0.011114
v -0.000130 0.008829 -0.011114
v -0.000120 0.008846 -0.011094
v -0.000130 0.008829 -0.011114
v -0.000117 0.008845 -0.011094
v -0.000130 0.008829 -0.011114
v -0.000128 0.008828 -0.011114
v -0.000117 0.008845 -0.011094
v -0.000128 0.008828 -0.011114
v -0.000114 0.008844 -0.011093
v -0.000117 0.008845 -0.011094
v -0.000127 0.008827 -0.011114
v -0.000114 0.008844 -0.011093
v -0.000128 0.008828 -0.011114
v -0.000126 0.008826 -0.011114
v -0.000111 0.008843 -0.011092
v -0.000114 0.008844 -0.011093
v -0.000124 0.008825 -0.011114
v -0.000108 0.008842 -0.011091
v -0.000111 0.008843 -0.011092
v -0.000123 0.008824 -0.011114
v -0.000105 0.008840 -0.011090
v -0.000108 0.008842 -0.011091
v -0.000122 0.008822 -0.011114
v -0.000121 0.008821 -0.011114
v -0.000102 0.008839 -0.011089
v -0.000121 0.008821 -0.011114
v -0.000120 0.008820 -0.011114
v -0.000100 0.008837 -0.011088
v -0.000120 0.008820 -0.011114
v -0.000097 0.008834 -0.011087
v -0.000120 0.008820 -0.011114
v -0.000095 0.008831 -0.011087
v -0.000097 0.008834 -0.011087
v -0.000119 0.008819 -0.011114
v -0.000093 0.008827 -0.011087
v -0.000095 0.008831 -0.011087
v -0.000119 0.008817 -0.011114
v -0.000117 0.008814 -0.011114
v -0.000091 0.008823 -0.011087
v -0.000093 0.008827 -0.011087
v -0.000117 0.008813 -0.011114
v -0.000090 0.008819 -0.011087
v -0.000091 0.008823 -0.011087
v -0.000116 0.008811 -0.011114
v -0.000089 0.008815 -0.011087
v -0.000090 0.008819 -0.011087
v -0.000116 0.008809 -0.011114
v -0.000115 0.008808 -0.011114
v -0.000089 0.008815 -0.011087
v -0.000088 0.008811 -0.011087
v -0.000115 0.008806 -0.011114
v -0.000088 0.008807 -0.011087
v -0.000115 0.008801 -0.011114
v -0.000088 0.008799 -0.011087
v -0.000088 0.008803 -0.011087
v -0.000115 0.008800 -0.011114
v -0.000088 0.008795 -0.011087
v -0.000088 0.008799 -0.011087
v -0.000115 0.008798 -0.011114
v -0.000116 0.008797 -0.011114
v -0.000089 0.008791 -0.011087
v -0.000089 0.008791 -0.011087
v -0.000116 0.008795 -0.011114
v -0.000090 0.008787 -0.011087
v -0.000091 0.008783 -0.011087
v -0.000117 0.008793 -0.011114
v -0.000117 0.008792 -0.011114
v -0.000093 0.008779 -0.011087
v -0.000117 0.008792 -0.011114
v -0.000118 0.008790 -0.011114
v -0.000095 0.008775 -0.011087
v -0.000093 0.008779 -0.011087
v -0.000119 0.008789 -0.011114
v -0.000120 0.008786 -0.011114
v -0.000097 0.008772 -0.011087
v -0.000119 0.008787 -0.011114
v -0.000120 0.008786 -0.011114
v -0.000100 0.008769 -0.011088
v -0.000120 0.008786 -0.011114
v -0.000121 0.008785 -0.011114
v -0.000102 0.008767 -0.011089
v -0.000121 0.008785 -0.011114
v -0.000122 0.008784 -0.011114
v -0.000108 0.008764 -0.011091
v -0.000105 0.008766 -0.011090
v -0.000123 0.008782 -0.011114
v -0.000114 0.008762 -0.011093
v -0.000127 0.008779 -0.011114
v -0.000128 0.008778 -0.011114
v -0.000120 0.008760 -0.011094
v -0.000117 0.008761 -0.011094
v -0.000130 0.008777 -0.011114
v -0.000123 0.008759 -0.011095
v -0.000120 0.008760 -0.011094
v -0.000131 0.008776 -0.011114
v -0.000130 0.008757 -0.011096
v -0.000136 0.008775 -0.011114
v -0.000137 0.008774 -0.011114
v -0.000140 0.008773 -0.011114
v -0.000136 0.008756 -0.011097
v -0.000139 0.008774 -0.011114
v -0.000142 0.008773 -0.011114
v -0.000140 0.008756 -0.011097
v -0.000140 0.008773 -0.011114
v -0.000144 0.008773 -0.011114
v -0.000143 0.008756 -0.011097
v -0.000140 0.008756 -0.011097
v -0.000147 0.008756 -0.011097
v -0.000143 0.008756 -0.011097
v -0.000145 0.008773 -0.011114
v -0.000148 0.008773 -0.011114
v -0.000150 0.008773 -0.011114
v -0.000150 0.008756 -0.011097
v -0.000133 0.008757 -0.011097
v -0.000137 0.008774 -0.011114
v -0.000139 0.008774 -0.011114
v -0.000132 0.008776 -0.011114
v -0.000134 0.008775 -0.011114
v -0.000127 0.008758 -0.011096
v -0.000147 0.008773 -0.011114
v -0.000148 0.008773 -0.011114
v -0.000150 0.008756 -0.011097
v -0.000065 0.008835 -0.011087
v -0.000065 0.008835 -0.011087
v -0.000065 0.008836 -0.011087
v -0.000065 0.008836 -0.011087
v -0.000097 0.008835 -0.011087
v -0.000097 0.008835 -0.011087
v -0.000065 0.008836 -0.011087
v -0.000065 0.008836 -0.011087
v -0.000099 0.008836 -0.011088
v -0.000099 0.008836 -0.011088
v -0.000098 0.008836 -0.011087
v -0.000098 0.008836 -0.011087
v -0.000097 0.008835 -0.011087
v -0.000065 0.008836 -0.011087
v -0.000098 0.008836 -0.011087
v -0.000065 0.008836 -0.011087
v -0.000098 0.008770 -0.011087
v -0.000099 0.008770 -0.011088
v -0.000099 0.008770 -0.011088
v -0.000098 0.008770 -0.011087
v -0.000065 0.008770 -0.011087
v -0.000065 0.008771 -0.011087
v -0.000065 0.008771 -0.011087
v -0.000065 0.008770 -0.011087
v -0.000065 0.008770 -0.011087
v -0.000097 0.008771 -0.011087
v -0.000065 0.008770 -0.011087
v -0.000065 0.008770 -0.011087
v -0.000097 0.008771 -0.011087
v -0.000065 0.008770 -0.011087
v -0.000097 0.008771 -0.011087
v -0.000098 0.008770 -0.011087
vn -1.0000 -0.0000 -0.0000
vn -0.0000 -0.7940 0.6079
vn -0.0000 -0.7816 0.6238
vn -0.0000 -0.7739 0.6333
vn -0.0000 -0.7940 0.6080
vn -0.0000 -0.7688 0.6395
vn -0.0000 -0.7815 0.6239
vn -0.0000 -0.7530 0.6580
vn -0.0000 -0.7558 0.6548
vn -0.0000 -0.7424 0.6699
vn -0.0000 -0.7557 0.6549
vn 0.0001 -0.7424 0.6700
vn -0.0000 -0.7313 0.6820
vn -0.0000 -0.7287 0.6848
vn -0.0000 -0.7147 0.6994
vn -0.0000 -0.7314 0.6820
vn -0.0000 -0.7424 0.6700
vn -0.0000 -0.7313 0.6821
vn -0.0000 -0.7089 0.7053
vn -0.0000 -0.7004 0.7137
vn -0.0000 -0.6857 0.7279
vn -0.0000 -0.6859 0.7277
vn -0.0000 -0.6710 0.7414
vn -0.0000 -0.6618 0.7497
vn -0.0000 -0.6559 0.7548
vn -0.0000 -0.6372 0.7707
vn -0.0000 -0.6125 0.7905
vn -0.0000 -0.6119 0.7909
vn -0.0000 -0.6617 0.7497
vn -0.0000 -0.6124 0.7905
vn -0.0000 -0.6371 0.7708
vn -0.0000 -0.6124 0.7906
vn -0.0000 -0.6406 0.7679
vn -0.0000 -0.6559 0.7549
vn -0.0000 -0.6118 0.7910
vn -0.0000 -0.6106 0.7919
vn -0.0001 -0.6107 0.7919
vn -0.0000 -0.6089 0.7932
vn -0.0000 -0.6405 0.7680
vn -0.0001 -0.6249 0.7807
vn -0.0000 -0.6068 0.7948
vn -0.0000 -0.6010 0.7992
vn -0.0000 -0.6041 0.7969
vn -0.0000 -0.5598 0.8286
vn -0.0000 -0.5665 0.8240
vn 0.0002 -0.5764 0.8172
vn -0.0000 -0.5599 0.8286
vn 0.0002 -0.5727 0.8198
vn -0.0000 -0.5785 0.8157
vn -0.0002 -0.5928 0.8053
vn -0.0000 -0.5839 0.8118
vn -0.0000 -0.5889 0.8082
vn -0.0000 -0.6091 0.7931
vn -0.0000 -0.5934 0.8049
vn -0.0000 -0.5974 0.8019
vn -0.0000 -0.6090 0.7932
vn -0.0000 -0.0000 1.0000
vn 0.0001 -0.0000 1.0000
vn -0.0000 0.6372 0.7707
vn -0.0000 0.6124 0.7905
vn -0.0000 0.6118 0.7910
vn -0.0000 0.6107 0.7919
vn -0.0000 0.6090 0.7932
vn -0.0000 0.6859 0.7277
vn 0.0001 0.7004 0.7138
vn -0.0000 0.6857 0.7279
vn -0.0000 0.7286 0.6849
vn -0.0003 0.7313 0.6820
vn -0.0000 0.7148 0.6994
vn 0.0001 0.7424 0.6700
vn 0.0002 0.7530 0.6580
vn -0.0000 0.6119 0.7909
vn -0.0000 0.7940 0.6079
vn 0.0001 0.7816 0.6238
vn -0.0003 0.7739 0.6333
vn -0.0000 0.7687 0.6396
vn -0.0000 0.7558 0.6548
vn 0.0002 0.7089 0.7053
vn 0.0001 0.6711 0.7414
vn -0.0003 0.6617 0.7497
vn -0.0000 0.6559 0.7549
vn -0.0000 0.6068 0.7948
vn -0.0001 0.6405 0.7679
vn -0.0000 0.6041 0.7969
vn -0.0000 0.6249 0.7807
vn -0.0000 0.6011 0.7992
vn -0.0000 0.5974 0.8019
vn -0.0000 0.6091 0.7931
vn -0.0000 0.5888 0.8083
vn -0.0000 0.5839 0.8118
vn -0.0001 0.5928 0.8053
vn -0.0000 0.5599 0.8286
vn 0.0002 0.5764 0.8172
vn -0.0000 0.5665 0.8241
vn -0.0001 0.5726 0.8198
vn -0.0000 0.5785 0.8157
vn -0.0000 0.5933 0.8050
vn 1.0000 -0.0000 -0.0000
vn 1.0000 -0.0000 0.0001
vn -0.0000 -0.0000 -1.0000
vn -0.0000 -1.0000 -0.0000
vn -0.0000 1.0000 -0.0000
vn 0.0001 -0.0000 -1.0000
vn -0.0002 -0.0000 -1.0000
vn -0.0001 -0.0000 -1.0000
vn 0.0002 -0.0000 -1.0000
vn 0.1129 -0.9936 -0.0000
vn 0.0588 -0.9983 -0.0000
vn 0.0587 -0.9983 -0.0000
vn 0.0045 -1.0000 -0.0000
vn -0.0498 -0.9988 -0.0000
vn -0.1039 -0.9946 -0.0000
vn -0.1578 -0.9875 -0.0000
vn -0.1040 -0.9946 -0.0000
vn -0.2112 -0.9774 -0.0000
vn -0.2639 -0.9646 -0.0000
vn -0.2111 -0.9775 -0.0000
vn -0.3159 -0.9488 -0.0000
vn -0.2640 -0.9645 -0.0000
vn -0.3160 -0.9488 -0.0000
vn -0.3670 -0.9302 -0.0000
vn -0.4170 -0.9089 -0.0000
vn -0.4657 -0.8850 -0.0000
vn -0.4656 -0.8850 -0.0000
vn -0.4658 -0.8849 -0.0000
vn -0.5130 -0.8584 -0.0000
vn -0.5588 -0.8293 -0.0000
vn -0.5589 -0.8292 -0.0000
vn -0.6031 -0.7976 -0.0000
vn -0.6031 -0.7977 -0.0000
vn -0.5590 -0.8292 -0.0000
vn -0.6455 -0.7638 -0.0000
vn -0.6860 -0.7276 -0.0000
vn -0.7245 -0.6893 -0.0000
vn -0.7609 -0.6489 -0.0000
vn -0.7245 -0.6892 -0.0000
vn -0.7949 -0.6067 -0.0000
vn -0.7950 -0.6066 -0.0000
vn -0.8267 -0.5627 -0.0000
vn -0.8267 -0.5626 -0.0000
vn -0.8560 -0.5170 -0.0000
vn -0.8561 -0.5169 -0.0000
vn -0.8828 -0.4697 -0.0000
vn -0.8829 -0.4696 -0.0000
vn -0.9070 -0.4210 -0.0000
vn -0.9070 -0.4211 -0.0000
vn -0.9286 -0.3712 -0.0000
vn -0.9071 -0.4210 -0.0000
vn -0.9474 -0.3202 -0.0000
vn -0.9286 -0.3711 -0.0000
vn -0.9633 -0.2683 -0.0000
vn -0.9473 -0.3202 -0.0000
vn -0.9633 -0.2684 -0.0000
vn -0.9765 -0.2156 -0.0000
vn -0.9634 -0.2682 -0.0000
vn -0.9765 -0.2155 -0.0000
vn -0.9765 -0.2155 0.0002
vn -0.9867 -0.1623 -0.0000
vn -0.9868 -0.1622 -0.0000
vn -0.9941 -0.1085 -0.0000
vn -0.9941 -0.1084 -0.0000
vn -0.9985 -0.0543 -0.0000
vn -0.9985 0.0543 -0.0000
vn -0.9941 0.1084 -0.0000
vn -0.9868 0.1622 -0.0000
vn -0.9941 0.1085 -0.0000
vn -0.9765 0.2155 -0.0000
vn -0.9867 0.1623 -0.0000
vn -0.9634 0.2682 -0.0000
vn -0.9765 0.2156 -0.0000
vn -0.9473 0.3202 -0.0000
vn -0.9633 0.2683 -0.0000
vn -0.9474 0.3202 -0.0000
vn -0.9286 0.3711 -0.0000
vn -0.9286 0.3712 -0.0000
vn -0.9285 0.3712 -0.0000
vn -0.9071 0.4210 -0.0000
vn -0.9070 0.4210 -0.0000
vn -0.8829 0.4696 -0.0000
vn -0.8828 0.4697 -0.0000
vn -0.8561 0.5169 -0.0000
vn -0.8560 0.5169 -0.0000
vn -0.8267 0.5627 -0.0000
vn -0.7950 0.6066 -0.0000
vn -0.7609 0.6489 -0.0000
vn -0.7949 0.6067 -0.0000
vn -0.7245 0.6892 -0.0000
vn -0.7245 0.6893 -0.0000
vn -0.6860 0.7276 -0.0000
vn -0.6455 0.7638 -0.0000
vn -0.6031 0.7977 -0.0000
vn 0.1129 0.9936 -0.0000
vn 0.0588 0.9983 -0.0000
vn 0.1666 0.9860 -0.0000
vn 0.0045 1.0000 -0.0000
vn 0.0587 0.9983 -0.0000
vn -0.0498 0.9988 -0.0000
vn -0.1039 0.9946 -0.0000
vn -0.1578 0.9875 -0.0000
vn -0.1040 0.9946 -0.0000
vn -0.2112 0.9774 -0.0000
vn -0.2111 0.9775 -0.0000
vn -0.2639 0.9646 -0.0000
vn -0.3159 0.9488 -0.0000
vn -0.2640 0.9645 -0.0000
vn -0.3160 0.9488 -0.0000
vn -0.3670 0.9302 -0.0000
vn -0.3669 0.9303 -0.0000
vn -0.4170 0.9089 -0.0000
vn -0.4169 0.9089 -0.0000
vn -0.3671 0.9302 -0.0000
vn -0.4657 0.8850 -0.0000
vn -0.4656 0.8850 -0.0000
vn -0.4657 0.8849 -0.0000
vn -0.5130 0.8584 -0.0000
vn -0.4658 0.8849 -0.0000
vn -0.5588 0.8293 -0.0000
vn -0.5589 0.8292 -0.0000
vn -0.6031 0.7976 -0.0000
vn -0.8267 0.5626 -0.0000
vn -0.9070 0.4211 -0.0000
vn -0.9633 0.2684 -0.0000
vn -0.9765 0.2155 -0.0002
vn -0.4169 -0.9089 -0.0000
vn -0.3669 -0.9303 -0.0000
vn 0.1666 -0.9860 -0.0000
vn 0.0238 0.7067 0.7071
vn 0.0032 0.7071 0.7071
vn 0.0415 0.7059 0.7071
vn 0.0239 0.7067 0.7071
vn 0.0416 0.7059 0.7071
vn 0.0748 0.7031 0.7071
vn -0.0269 0.7066 0.7071
vn -0.0352 0.7062 0.7071
vn -0.0735 0.7033 0.7071
vn -0.0773 0.7029 0.7071
vn -0.1116 0.6982 0.7071
vn -0.0773 0.7027 0.7073
vn -0.1269 0.6956 0.7071
vn -0.1493 0.6912 0.7071
vn -0.1752 0.6851 0.7071
vn -0.1866 0.6820 0.7071
vn -0.2220 0.6714 0.7071
vn -0.2234 0.6709 0.7071
vn -0.2219 0.6714 0.7071
vn -0.2594 0.6578 0.7071
vn -0.2669 0.6548 0.7071
vn -0.2595 0.6578 0.7071
vn -0.3098 0.6356 0.7071
vn -0.2948 0.6427 0.7071
vn -0.3293 0.6258 0.7071
vn -0.3505 0.6142 0.7071
vn -0.3628 0.6070 0.7071
vn -0.3886 0.5908 0.7071
vn -0.3955 0.5871 0.7063
vn -0.4244 0.5656 0.7071
vn -0.3952 0.5864 0.7071
vn -0.4564 0.5401 0.7071
vn -0.4264 0.5640 0.7071
vn -0.4243 0.5656 0.7071
vn -0.4576 0.5391 0.7071
vn -0.4851 0.5145 0.7071
vn -0.4883 0.5114 0.7071
vn -0.5123 0.4874 0.7071
vn -0.5165 0.4829 0.7071
vn -0.5380 0.4588 0.7071
vn -0.5424 0.4537 0.7071
vn -0.5380 0.4589 0.7071
vn -0.5658 0.4241 0.7071
vn -0.5621 0.4290 0.7071
vn -0.5729 0.4145 0.7071
vn -0.5846 0.3978 0.7071
vn -0.5729 0.4144 0.7071
vn -0.5799 0.4046 0.7071
vn -0.5871 0.3942 0.7071
vn -0.5942 0.3833 0.7071
vn -0.6053 0.3655 0.7071
vn -0.6201 0.3399 0.7071
vn -0.6201 0.3398 0.7071
vn -0.6244 0.3321 0.7070
vn -0.6243 0.3321 0.7071
vn -0.6428 0.2947 0.7071
vn -0.6414 0.2977 0.7071
vn -0.6428 0.2946 0.7071
vn -0.6622 0.2479 0.7071
vn -0.6566 0.2624 0.7071
vn -0.6623 0.2478 0.7071
vn -0.6783 0.1998 0.7071
vn -0.6699 0.2264 0.7071
vn -0.6812 0.1897 0.7071
vn -0.6908 0.1508 0.7071
vn -0.6905 0.1524 0.7071
vn -0.6999 0.1010 0.7071
vn -0.6977 0.1148 0.7071
vn -0.6909 0.1507 0.7071
vn -0.7029 0.0767 0.7071
vn -0.6977 0.1147 0.7071
vn -0.6999 0.1009 0.7071
vn -0.7061 0.0384 0.7071
vn -0.7029 0.0766 0.7071
vn -0.7053 0.0506 0.7071
vn -0.7071 -0.0000 0.7071
vn -0.7065 -0.0384 0.7067
vn -0.7070 -0.0000 0.7072
vn -0.7061 -0.0384 0.7071
vn -0.7072 -0.0000 0.7070
vn -0.7053 -0.0506 0.7071
vn -0.7030 -0.0766 0.7071
vn -0.7029 -0.0766 0.7071
vn -0.6999 -0.1009 0.7071
vn -0.6978 -0.1146 0.7071
vn -0.6999 -0.1010 0.7071
vn -0.6909 -0.1507 0.7071
vn -0.6977 -0.1148 0.7071
vn -0.6908 -0.1508 0.7071
vn -0.6812 -0.1896 0.7071
vn -0.6905 -0.1524 0.7071
vn -0.6783 -0.1998 0.7071
vn -0.6699 -0.2264 0.7071
vn -0.6812 -0.1897 0.7071
vn -0.6623 -0.2477 0.7071
vn -0.6566 -0.2624 0.7071
vn -0.6699 -0.2263 0.7071
vn -0.6428 -0.2946 0.7071
vn -0.6416 -0.2977 0.7069
vn -0.6243 -0.3321 0.7071
vn -0.6414 -0.2977 0.7071
vn -0.6054 -0.3655 0.7070
vn -0.6243 -0.3320 0.7071
vn -0.6201 -0.3397 0.7071
vn -0.5846 -0.3978 0.7071
vn -0.6053 -0.3656 0.7071
vn -0.5942 -0.3834 0.7071
vn -0.5799 -0.4046 0.7071
vn -0.5870 -0.3942 0.7071
vn -0.5166 -0.4828 0.7071
vn -0.5380 -0.4589 0.7071
vn -0.5424 -0.4537 0.7071
vn -0.5621 -0.4290 0.7071
vn -0.5658 -0.4241 0.7071
vn -0.5424 -0.4536 0.7071
vn -0.5123 -0.4874 0.7071
vn -0.5380 -0.4588 0.7071
vn -0.5166 -0.4829 0.7071
vn -0.4851 -0.5145 0.7071
vn -0.4883 -0.5114 0.7071
vn -0.4564 -0.5401 0.7071
vn -0.4576 -0.5391 0.7071
vn -0.4262 -0.5638 0.7074
vn -0.4242 -0.5657 0.7071
vn -0.5729 -0.4145 0.7071
vn 0.0749 -0.7031 0.7071
vn 0.1179 -0.6972 0.7071
vn 0.0798 -0.7026 0.7071
vn 0.0748 -0.7031 0.7071
vn 0.0799 -0.7027 0.7070
vn 0.0415 -0.7059 0.7071
vn 0.0416 -0.7059 0.7071
vn 0.0242 -0.7069 0.7069
vn 0.0032 -0.7071 0.7071
vn 0.0242 -0.7067 0.7071
vn -0.0265 -0.7066 0.7071
vn -0.0352 -0.7062 0.7071
vn -0.0768 -0.7029 0.7071
vn -0.0735 -0.7033 0.7071
vn -0.1116 -0.6982 0.7071
vn -0.1263 -0.6957 0.7071
vn -0.1493 -0.6912 0.7071
vn -0.1263 -0.6957 0.7072
vn -0.1494 -0.6912 0.7071
vn -0.1746 -0.6852 0.7071
vn -0.1866 -0.6820 0.7071
vn -0.1492 -0.6912 0.7071
vn -0.2214 -0.6716 0.7071
vn -0.1867 -0.6820 0.7071
vn -0.2215 -0.6715 0.7071
vn -0.2234 -0.6709 0.7071
vn -0.2214 -0.6715 0.7071
vn -0.2233 -0.6709 0.7071
vn -0.2594 -0.6578 0.7071
vn -0.2595 -0.6578 0.7071
vn -0.2664 -0.6550 0.7071
vn -0.2948 -0.6427 0.7071
vn -0.2665 -0.6550 0.7071
vn -0.3094 -0.6358 0.7071
vn -0.3293 -0.6258 0.7071
vn -0.3093 -0.6358 0.7071
vn -0.3501 -0.6143 0.7071
vn -0.3293 -0.6257 0.7071
vn -0.3501 -0.6144 0.7071
vn -0.3628 -0.6070 0.7071
vn -0.3884 -0.5909 0.7071
vn -0.3952 -0.5864 0.7071
vn -0.4243 -0.5657 0.7071
vn -0.4264 -0.5641 0.7071
vn -0.5381 -0.4590 0.7069
vn -0.5622 -0.4290 0.7070
vn -0.5728 -0.4145 0.7071
vn -0.5942 -0.3833 0.7071
vn -0.6201 -0.3399 0.7071
vn -0.6053 -0.3655 0.7071
vn -0.6201 -0.3398 0.7071
vn -0.6622 -0.2479 0.7071
vn -0.6623 -0.2478 0.7071
vn -0.7030 0.0766 0.7071
vn -0.6623 0.2477 0.7071
vn -0.6566 0.2623 0.7071
vn -0.6568 0.2625 0.7069
vn -0.5942 0.3834 0.7071
vn -0.6053 0.3656 0.7071
vn -0.5799 0.4047 0.7071
vn -0.5870 0.3942 0.7071
vn -0.5846 0.3979 0.7071
vn -0.5847 0.3979 0.7070
vn -0.5622 0.4291 0.7070
vn -0.3504 0.6142 0.7071
vn -0.3885 0.5908 0.7071
vn -0.3627 0.6070 0.7071
vn -0.1868 0.6820 0.7071
vn -0.1269 0.6956 0.7072
vn -0.0269 0.7067 0.7070
vn 0.0239 0.7069 0.7069
vn -0.0270 0.7066 0.7071
vn 0.0798 0.7026 0.7071
vn 0.1179 0.6972 0.7071
vn 0.0749 0.7031 0.7071
vn -0.1492 0.6912 0.7071
vn 0.0415 0.7060 0.7070
vn -0.0000 0.1480 0.9890
vn -0.0000 0.2928 0.9562
vn -0.0000 0.2927 0.9562
vn -0.0000 0.1690 0.9856
vn -0.0000 0.4310 0.9024
vn -0.0000 0.4459 0.8951
vn 0.0001 0.3166 0.9486
vn -0.0000 0.3164 0.9486
vn -0.0000 0.3165 0.9486
vn -0.0000 0.4311 0.9023
vn -0.0000 0.5599 0.8285
vn -0.0001 -0.5599 0.8286
vn -0.0000 -0.3164 0.9486
vn -0.0001 -0.4459 0.8951
vn -0.0000 -0.4459 0.8951
vn -0.0000 -0.5599 0.8285
vn -0.0000 -0.4311 0.9023
vn -0.0000 -0.1480 0.9890
vn -0.0000 -0.2927 0.9562
vn -0.0001 -0.0000 1.0000
vn -0.0000 -0.1687 0.9857
vn -0.0000 -0.2928 0.9562
vn -0.0000 -0.1689 0.9856
vn -0.0000 -0.4310 0.9024
vn -0.0000 -0.3163 0.9487
s 1
usemtl Diffuse_51_51_51_100.029
f 1//1 2//1 3//1
f 1//1 3//1 4//1
f 3//1 5//1 4//1
f 5//1 6//1 4//1
f 4//1 7//1 8//1
f 4//1 8//1 9//1
f 8//1 10//1 9//1
f 9//1 10//1 11//1
f 7//1 4//1 6//1
f 9//1 11//1 12//1
f 13//2 14//2 15//3
f 16//4 17//5 15//3
f 18//6 19//4 15//7
f 18//6 20//8 21//4
f 22//8 18//6 23//9
f 24//10 25//8 23//11
f 24//12 26//13 27//8
f 28//14 29//15 30//16
f 24//17 28//14 31//18
f 32//13 29//15 33//19
f 34//19 29//15 35//20
f 36//21 37//19 35//20
f 38//22 39//21 35//20
f 38//22 40//23 41//21
f 42//21 40//23 43//24
f 44//24 40//23 45//25
f 46//26 47//27 48//28
f 49//26 50//29 45//25
f 47//30 51//31 52//32
f 53//33 54//31 45//34
f 55//35 56//26 57//36
f 57//37 58//31 59//38
f 53//39 60//40 61//41
f 60//40 62//42 63//43
f 64//44 65//45 66//46
f 66//46 67//47 64//44
f 68//48 66//46 65//45
f 68//48 69//49 66//46
f 66//46 69//49 70//50
f 70//50 69//49 71//51
f 72//52 70//50 71//51
f 72//52 73//53 70//50
f 72//52 74//54 73//53
f 73//53 74//54 75//55
f 62//42 73//53 75//55
f 62//42 60//40 73//53
f 63//43 61//41 60//40
f 61//41 59//56 53//39
f 53//39 59//56 76//26
f 77//26 55//35 52//32
f 78//57 79//58 80//57
f 81//57 82//57 80//57
f 83//57 81//57 80//57
f 84//57 83//57 80//57
f 85//57 84//57 80//57
f 86//57 85//57 80//57
f 87//57 86//57 80//57
f 88//57 87//57 80//57
f 79//58 88//57 80//57
f 89//58 79//58 78//57
f 78//57 90//58 89//58
f 78//57 91//57 90//58
f 78//57 92//57 91//57
f 78//57 93//57 92//57
f 94//57 78//57 95//57
f 94//57 96//57 78//57
f 78//57 96//57 93//57
f 97//59 98//60 99//60
f 100//61 97//59 99//60
f 100//61 101//62 97//59
f 97//59 101//62 102//63
f 103//64 104//65 105//66
f 106//67 107//68 108//69
f 109//70 110//71 107//68
f 111//72 98//60 97//59
f 112//73 113//74 114//73
f 112//73 115//75 113//74
f 113//74 115//75 116//76
f 116//76 115//75 110//71
f 117//77 116//76 110//71
f 109//70 117//77 110//71
f 107//68 118//78 108//69
f 108//69 118//78 104//65
f 104//65 118//78 105//66
f 119//79 105//66 120//80
f 120//80 97//59 121//81
f 102//63 122//82 123//83
f 122//82 124//84 125//85
f 126//86 127//87 128//88
f 129//89 130//90 131//91
f 132//92 133//93 134//92
f 134//92 133//93 135//94
f 135//94 133//93 136//95
f 136//95 133//93 137//96
f 137//96 133//93 131//91
f 130//90 137//96 131//91
f 129//89 131//91 128//88
f 138//97 129//89 128//88
f 126//86 125//85 124//84
f 126//86 128//88 125//85
f 125//85 123//83 122//82
f 123//83 97//59 102//63
f 123//83 121//81 97//59
f 121//81 119//79 120//80
f 105//66 119//79 103//64
f 109//70 107//68 106//67
f 138//97 128//88 127//87
f 139//1 140//1 141//1
f 139//1 142//1 143//1
f 139//1 144//1 145//1
f 139//1 146//1 147//1
f 141//1 148//1 149//1
f 141//1 150//1 151//1
f 141//1 152//1 153//1
f 154//1 155//1 156//1
f 141//1 157//1 158//1
f 155//1 141//1 159//1
f 160//98 161//98 162//98
f 163//98 164//98 165//98
s 0
f 166//98 167//98 168//98
f 167//98 169//98 170//98
f 169//57 171//98 172//99
s 1
f 173//98 174//98 175//98
f 176//98 177//98 178//98
f 179//98 180//98 181//98
f 182//98 183//98 184//98
f 185//98 186//98 187//98
f 188//98 189//98 190//98
f 191//98 192//98 193//98
f 194//98 195//98 196//98
f 197//98 198//98 199//98
f 200//98 201//98 202//98
f 203//98 204//98 205//98
f 206//98 207//98 208//98
f 209//98 210//98 211//98
f 212//98 213//98 214//98
f 215//98 216//98 217//98
f 218//98 219//98 220//98
f 216//98 221//98 222//98
f 223//98 224//98 216//98
f 225//98 226//98 227//98
f 228//98 229//98 227//98
f 230//98 231//98 227//98
f 232//98 233//98 227//98
f 234//98 235//98 227//98
f 236//98 237//98 227//98
f 238//98 239//98 227//98
f 227//98 240//98 216//98
f 241//98 242//98 216//98
f 243//98 244//98 216//98
f 245//98 246//98 216//98
f 247//98 227//98 248//98
f 249//98 250//98 251//98
f 252//98 253//98 216//98
f 254//98 255//98 256//98
s 0
f 257//98 258//98 259//100
f 260//98 261//98 259//98
f 262//98 263//98 257//98
s 1
f 264//98 265//98 266//98
f 267//101 268//101 269//101
f 270//101 271//101 272//101
f 273//102 274//102 275//102
f 276//102 277//102 278//102
f 279//100 280//100 281//100
f 282//103 283//103 284//103
f 285//100 286//100 287//100
f 288//100 289//100 285//100
f 290//100 291//100 289//100
f 292//100 293//100 291//100
f 294//100 295//100 293//100
f 296//100 297//100 295//100
f 298//100 299//100 297//100
f 300//100 301//100 299//100
f 302//100 303//100 301//100
f 304//100 305//100 303//100
f 306//104 307//104 305//104
f 308//100 309//100 307//100
f 310//100 311//100 309//100
f 309//100 312//100 313//100
f 313//105 314//105 315//105
f 315//100 316//100 317//100
f 317//100 318//100 319//100
f 319//100 320//100 321//100
f 321//100 322//100 323//100
f 323//100 324//100 325//100
f 325//100 326//100 327//100
f 327//100 328//100 329//100
f 329//100 330//100 331//100
f 332//100 333//100 334//100
f 335//106 333//106 336//106
f 337//100 332//100 338//100
f 339//103 337//103 340//103
f 341//100 339//100 342//100
f 343//100 341//100 344//100
f 345//100 343//100 346//100
f 347//100 345//100 348//100
f 284//100 347//100 349//100
f 350//100 351//100 284//100
f 352//100 353//100 283//100
f 354//103 355//103 353//103
f 356//100 357//100 355//100
f 358//100 359//100 357//100
f 360//104 361//104 359//104
f 362//100 363//100 364//100
f 362//100 365//100 366//100
f 364//100 367//100 368//100
f 368//100 369//100 370//100
f 370//100 371//100 372//100
f 372//100 373//100 374//100
f 374//100 375//100 376//100
f 376//100 377//100 378//100
f 378//100 379//100 380//100
f 380//100 381//100 382//100
f 382//105 383//105 384//105
f 384//100 385//100 386//100
f 386//103 387//103 388//103
f 388//100 389//100 390//100
f 391//100 281//100 388//100
f 392//100 280//100 393//100
f 394//100 392//100 395//100
f 396//100 394//100 397//100
f 398//100 399//100 396//100
f 400//100 401//100 399//100
f 402//100 403//100 401//100
f 404//100 405//100 403//100
f 406//100 407//100 405//100
f 331//100 408//100 336//100
f 409//100 410//100 407//100
f 411//100 365//100 361//100
f 410//100 412//100 413//100
f 414//107 415//108 416//107
f 417//109 418//110 419//109
f 420//110 421//110 419//109
f 422//111 423//111 421//110
f 424//112 425//112 423//111
f 426//113 427//113 425//114
f 428//115 427//113 429//113
f 430//116 431//117 432//117
f 433//116 431//117 434//116
f 435//118 433//119 436//118
f 435//120 437//120 438//121
f 439//121 440//121 441//122
f 442//122 443//122 444//123
f 442//122 445//124 446//124
f 446//125 447//126 448//126
f 449//126 450//127 448//126
f 451//128 452//129 453//128
f 454//130 455//130 453//131
f 456//132 457//132 455//130
f 458//133 457//132 459//132
f 460//134 461//133 462//133
f 463//134 461//133 464//134
f 465//135 463//136 466//135
f 465//135 467//135 468//137
f 469//138 470//138 471//139
f 469//138 472//140 473//140
f 473//139 474//141 475//141
f 476//142 477//143 475//142
f 478//144 479//145 480//144
f 481//146 482//146 480//144
f 483//147 484//147 482//148
f 485//149 484//150 486//150
f 487//151 488//152 489//152
f 490//153 488//152 491//153
f 492//154 490//155 493//154
f 492//156 494//157 495//158
f 496//159 497//159 498//160
f 496//159 499//160 500//160
f 500//161 501//162 502//162
f 503//162 504//1 502//162
f 505//1 506//163 507//1
f 508//163 509//163 507//1
f 510//164 511//164 509//163
f 512//165 511//166 513//166
f 514//167 515//168 516//168
f 517//169 518//170 519//170
f 520//169 518//170 521//169
f 522//171 520//172 523//171
f 522//173 524//173 525//174
f 526//175 527//176 528//177
f 526//176 529//177 530//177
f 530//178 531//179 532//179
f 533//180 534//181 532//180
f 535//182 536//183 537//182
f 538//183 539//183 537//182
f 540//184 541//184 539//183
f 542//185 541//186 543//186
f 544//187 545//185 546//185
f 547//188 545//185 548//188
f 549//189 547//188 550//189
f 549//189 551//189 552//190
f 553//190 554//190 555//191
f 553//190 556//191 557//191
f 558//192 559//193 560//192
f 561//194 562//194 558//192
f 563//194 558//192 564//192
f 559//193 565//193 566//192
f 567//195 568//196 559//196
f 569//195 570//196 567//195
f 571//195 567//195 572//197
f 573//195 572//197 574//197
f 572//197 575//198 576//197
f 575//198 577//198 578//197
f 579//199 580//200 575//200
f 581//199 582//200 579//199
f 583//199 579//199 584//201
f 585//199 584//201 586//201
f 584//202 587//203 588//202
f 587//203 589//203 590//202
f 591//204 592//205 587//205
f 593//204 594//205 591//204
f 595//206 591//206 596//207
f 597//206 596//208 598//208
f 596//207 599//209 600//207
f 599//210 601//210 602//211
f 603//212 604//209 599//209
f 605//213 606//209 603//213
f 607//214 603//214 608//215
f 609//216 608//215 610//215
f 608//215 611//217 612//215
f 611//217 613//217 614//215
f 557//191 615//218 611//218
f 616//219 617//218 557//219
f 549//189 618//190 553//190
f 547//188 619//188 620//189
f 545//185 541//186 621//185
f 622//184 539//220 623//220
f 624//181 537//181 532//180
f 625//221 626//179 530//221
f 522//173 627//174 526//174
f 520//222 628//222 629//171
f 518//223 515//168 630//167
f 515//165 511//166 631//165
f 632//164 509//163 633//163
f 634//1 507//1 502//162
f 635//161 636//162 500//161
f 492//156 637//158 496//158
f 490//155 638//155 639//154
f 488//149 484//150 640//149
f 641//147 482//148 642//148
f 643//143 480//143 475//142
f 644//139 645//141 473//139
f 465//135 646//137 469//137
f 463//134 647//134 648//135
f 461//133 457//132 649//133
f 650//132 455//130 651//130
f 652//127 453//127 448//126
f 653//125 654//126 446//125
f 439//121 655//224 442//224
f 435//120 656//225 439//225
f 433//119 657//119 658//118
f 659//114 660//113 425//114
f 421//110 661//110 662//111
f 416//107 663//226 664//107
f 416//107 665//226 666//226
f 667//115 431//115 427//113
f 423//111 668//111 669//112
f 419//108 416//107 670//108
f 671//227 672//228 673//229
f 674//230 675//231 676//232
f 677//233 678//234 679//228
f 680//235 681//234 682//236
f 683//237 684//238 685//239
f 686//240 687//239 688//241
f 689//242 690//241 691//243
f 692//244 693//245 694//246
f 695//243 696//247 697//248
f 698//247 699//249 700//250
f 701//249 702//251 703//250
f 704//252 705//253 706//251
f 707//254 708//255 709//253
f 710//256 711//257 712//254
f 713//258 714//259 715//260
f 716//258 717//256 718//261
f 719//258 720//261 721//262
f 722//261 723//263 724//262
f 725//264 726//265 727//266
f 728//263 729//264 730//262
f 731//265 732//267 733//268
f 734//267 735//269 736//270
f 737//269 738//271 739//272
f 738//273 740//274 741//272
f 742//272 743//275 744//276
f 745//277 746//276 747//278
f 748//277 749//279 750//280
f 751//281 752//282 753//283
f 754//284 755//285 756//286
f 757//287 758//288 759//289
f 760//288 761//290 762//289
f 763//291 764//292 765//290
f 766//293 767//294 768//295
f 769//296 770//297 771//298
f 772//299 773//300 774//301
f 775//302 776//299 777//302
f 778//303 779//304 780//304
f 781//305 782//306 783//307
f 784//305 785//307 786//308
f 787//309 788//310 789//311
f 790//312 791//313 792//314
f 793//315 794//316 795//317
f 796//318 797//319 798//320
f 799//321 800//322 801//323
f 802//324 803//325 804//322
f 805//326 806//327 807//324
f 808//328 809//329 810//330
f 811//331 812//332 813//333
f 814//334 815//331 816//335
f 817//336 818//337 819//338
f 820//339 821//340 822//341
f 823//342 824//343 825//344
f 826//345 827//342 828//346
f 829//347 830//345 831//348
f 832//349 833//347 834//350
f 835//351 836//340 837//331
f 838//352 839//353 840//354
f 841//355 842//356 843//357
f 844//355 845//358 846//359
f 847//357 848//360 849//361
f 850//360 851//362 852//361
f 853//363 854//362 855//360
f 856//364 857//362 858//363
f 859//364 860//363 861//365
f 862//364 863//365 864//366
f 865//364 866//366 867//367
f 868//366 869//368 870//369
f 871//370 872//371 873//367
f 874//372 875//371 876//373
f 877//374 878//371 879//375
f 880//376 881//375 882//377
f 883//378 884//379 885//380
f 886//378 887//381 888//382
f 889//381 890//383 891//384
f 892//383 893//385 894//384
f 895//386 896//387 897//383
f 898//388 899//385 900//389
f 901//390 902//386 903//391
f 904//388 905//391 906//392
f 907//391 908//393 909//392
f 910//393 911//394 912//392
f 913//395 914//350 915//393
f 916//347 917//348 918//350
f 919//345 920//346 921//348
f 922//342 923//344 924//346
f 925//396 926//339 927//338
f 928//397 929//331 930//340
f 931//331 814//334 835//398
f 932//399 816//335 933//331
f 934//400 935//399 936//401
f 937//324 938//402 939//326
f 940//322 941//403 942//324
f 943//319 944//318 945//404
f 946//320 947//315 948//318
f 949//317 950//314 951//315
f 952//310 953//308 954//307
f 955//299 956//301 957//304
f 958//405 959//298 960//301
f 961//294 962//292 963//291
f 964//291 965//290 966//288
f 967//406 968//289 969//407
f 970//284 971//408 972//283
f 973//279 974//284 975//281
f 976//272 977//409 978//410
f 740//411 743//412 979//413
f 980//269 981//414 982//270
f 983//267 984//415 985//268
f 986//263 987//265 988//264
f 989//260 990//259 991//257
f 992//416 993//417 994//418
f 995//249 996//416 997//251
f 998//243 999//244 1000//419
f 1001//237 1002//420 1003//240
f 1004//235 1005//236 1006//237
f 1007//234 1008//421 1009//236
f 1010//422 1011//423 1012//228
f 1013//424 1014//425 1015//426
f 1016//241 1017//242 1018//427
f 1019//250 1020//248 1021//247
f 1022//428 1023//424 1024//232
f 95//57 78//57 1025//429
f 1026//429 1027//430 95//57
f 95//57 1028//431 1029//432
s 0
f 1030//432 1031//57 1032//433
s 1
f 1033//434 132//92 134//92
f 1034//434 1035//435 132//92
f 1036//436 1037//432 1038//433
f 1039//437 1040//438 132//439
f 67//440 1041//441 1042//442
f 64//44 67//47 1043//443
f 1044//441 67//444 1045//445
f 80//57 82//57 1046//446
f 1047//446 82//58 1048//447
f 1049//447 82//448 1050//449
s 0
f 1051//57 1052//450 1053//451
s 1
f 1054//452 1055//451 1056//453
