# Blender 4.4.3
# www.blender.org
mtllib Mesh_22.011.mtl
o Mesh_22.011
v 0.017600 0.008636 -0.000480
v 0.017600 0.008636 -0.000557
v 0.017600 0.008647 -0.000506
v 0.017600 0.008636 -0.000722
v 0.017600 0.008647 -0.000694
v 0.017600 0.008636 -0.000643
v 0.017600 0.008970 -0.000722
v 0.017600 0.008970 -0.000643
v 0.017600 0.008959 -0.000694
v 0.017600 0.008970 -0.000480
v 0.017600 0.008959 -0.000506
v 0.017600 0.008970 -0.000557
v 0.017600 0.008636 -0.000403
v 0.017600 0.008702 -0.000507
v 0.017600 0.008803 -0.000403
v 0.017600 0.008647 -0.000504
v 0.017600 0.008647 -0.000557
v 0.017600 0.008673 -0.000496
v 0.017600 0.008648 -0.000502
v 0.017600 0.008649 -0.000500
v 0.017600 0.008650 -0.000499
v 0.017600 0.008651 -0.000498
v 0.017600 0.008653 -0.000497
v 0.017600 0.008655 -0.000496
v 0.017600 0.008657 -0.000496
v 0.017600 0.008666 -0.000496
v 0.017600 0.008679 -0.000497
v 0.017600 0.008685 -0.000499
v 0.017600 0.008691 -0.000501
v 0.017600 0.008697 -0.000504
v 0.017600 0.008970 -0.000403
v 0.017600 0.008904 -0.000507
v 0.017600 0.008707 -0.000511
v 0.017600 0.008899 -0.000511
v 0.017600 0.008712 -0.000515
v 0.017600 0.008894 -0.000515
v 0.017600 0.008716 -0.000519
v 0.017600 0.008890 -0.000519
v 0.017600 0.008720 -0.000524
v 0.017600 0.008886 -0.000524
v 0.017600 0.008723 -0.000530
v 0.017600 0.008726 -0.000536
v 0.017600 0.008883 -0.000530
v 0.017600 0.008880 -0.000536
v 0.017600 0.008877 -0.000548
v 0.017600 0.008729 -0.000548
v 0.017600 0.008730 -0.000554
v 0.017600 0.008876 -0.000554
v 0.017600 0.008731 -0.000560
v 0.017600 0.008875 -0.000560
v 0.017600 0.008731 -0.000640
v 0.017600 0.008730 -0.000646
v 0.017600 0.008875 -0.000640
v 0.017600 0.008876 -0.000646
v 0.017600 0.008877 -0.000652
v 0.017600 0.008729 -0.000652
v 0.017600 0.008728 -0.000659
v 0.017600 0.008878 -0.000659
v 0.017600 0.008726 -0.000664
v 0.017600 0.008883 -0.000670
v 0.017600 0.008880 -0.000664
v 0.017600 0.008723 -0.000670
v 0.017600 0.008720 -0.000676
v 0.017600 0.008894 -0.000685
v 0.017600 0.008712 -0.000685
v 0.017600 0.008707 -0.000689
v 0.017600 0.008890 -0.000681
v 0.017600 0.008636 -0.000800
v 0.017600 0.008904 -0.000693
v 0.017600 0.008702 -0.000693
v 0.017600 0.008899 -0.000689
v 0.017600 0.008673 -0.000704
v 0.017600 0.008685 -0.000701
v 0.017600 0.008679 -0.000703
v 0.017600 0.008666 -0.000704
v 0.017600 0.008691 -0.000699
v 0.017600 0.008657 -0.000704
v 0.017600 0.008655 -0.000704
v 0.017600 0.008653 -0.000703
v 0.017600 0.008651 -0.000702
v 0.017600 0.008650 -0.000701
v 0.017600 0.008697 -0.000696
v 0.017600 0.008649 -0.000700
v 0.017600 0.008648 -0.000698
v 0.017600 0.008716 -0.000681
v 0.017600 0.008886 -0.000676
v 0.017600 0.008647 -0.000696
v 0.017600 0.008959 -0.000696
v 0.017600 0.008959 -0.000643
v 0.017600 0.008933 -0.000704
v 0.017600 0.008970 -0.000800
v 0.017600 0.008958 -0.000698
v 0.017600 0.008957 -0.000700
v 0.017600 0.008956 -0.000701
v 0.017600 0.008955 -0.000702
v 0.017600 0.008953 -0.000703
v 0.017600 0.008951 -0.000704
v 0.017600 0.008949 -0.000704
v 0.017600 0.008939 -0.000704
v 0.017600 0.008927 -0.000703
v 0.017600 0.008921 -0.000701
v 0.017600 0.008915 -0.000699
v 0.017600 0.008909 -0.000696
v 0.017600 0.008647 -0.000643
v 0.017600 0.008878 -0.000541
v 0.017600 0.008728 -0.000541
v 0.017600 0.008909 -0.000504
v 0.017600 0.008915 -0.000501
v 0.017600 0.008921 -0.000499
v 0.017600 0.008927 -0.000497
v 0.017600 0.008933 -0.000496
v 0.017600 0.008939 -0.000496
v 0.017600 0.008953 -0.000497
v 0.017600 0.008951 -0.000496
v 0.017600 0.008949 -0.000496
v 0.017600 0.008955 -0.000498
v 0.017600 0.008956 -0.000499
v 0.017600 0.008957 -0.000500
v 0.017600 0.008958 -0.000502
v 0.017600 0.008959 -0.000504
v 0.017600 0.008959 -0.000557
v 0.017575 0.008611 -0.000557
v 0.017577 0.008613 -0.000557
v 0.017567 0.008603 -0.000547
v 0.017600 0.008636 -0.000557
v 0.017573 0.008609 -0.000556
v 0.017570 0.008606 -0.000554
v 0.017571 0.008607 -0.000555
v 0.017568 0.008604 -0.000551
v 0.017569 0.008605 -0.000553
v 0.017567 0.008603 -0.000549
v 0.017600 0.008636 -0.000480
v 0.017573 0.008609 -0.000406
v 0.017600 0.008636 -0.000480
v 0.017600 0.008636 -0.000403
v 0.017573 0.008609 -0.000400
v 0.017567 0.008603 -0.000400
v 0.017600 0.008636 -0.000480
v 0.017600 0.008636 -0.000557
v 0.017560 0.009003 -0.000400
v 0.017573 0.008997 -0.000400
v 0.017567 0.009003 -0.000400
v 0.017560 0.008603 -0.000400
v 0.017573 0.008609 -0.000400
v 0.017573 0.008803 -0.000400
v 0.017567 0.008603 -0.000400
v 0.017573 0.008609 -0.000400
v 0.017567 0.009003 -0.000400
v 0.017573 0.008997 -0.000406
v 0.017567 0.009003 -0.000547
v 0.017600 0.008970 -0.000480
v 0.017600 0.008970 -0.000480
v 0.017600 0.008970 -0.000557
v 0.017575 0.008995 -0.000557
v 0.017577 0.008993 -0.000557
v 0.017573 0.008997 -0.000556
v 0.017570 0.009000 -0.000554
v 0.017569 0.009001 -0.000553
v 0.017571 0.008999 -0.000555
v 0.017568 0.009002 -0.000551
v 0.017600 0.008970 -0.000557
v 0.017600 0.008970 -0.000480
v 0.017600 0.008970 -0.000403
v 0.017567 0.009003 -0.000549
v 0.017567 0.009003 -0.000400
v 0.017573 0.008997 -0.000400
v 0.017560 0.008803 -0.000778
v 0.017560 0.008803 -0.000800
v 0.017560 0.008763 -0.000778
v 0.017560 0.008823 -0.000630
v 0.017560 0.008880 -0.000664
v 0.017560 0.008883 -0.000670
v 0.017560 0.008823 -0.000620
v 0.017560 0.008833 -0.000620
v 0.017560 0.008723 -0.000670
v 0.017560 0.008783 -0.000630
v 0.017560 0.008763 -0.000758
v 0.017560 0.008773 -0.000620
v 0.017560 0.008731 -0.000640
v 0.017560 0.008773 -0.000580
v 0.017560 0.008731 -0.000560
v 0.017560 0.008726 -0.000664
v 0.017560 0.008728 -0.000659
v 0.017560 0.008783 -0.000570
v 0.017560 0.008730 -0.000554
v 0.017560 0.008823 -0.000570
v 0.017560 0.008720 -0.000524
v 0.017560 0.008728 -0.000541
v 0.017560 0.008726 -0.000536
v 0.017560 0.008729 -0.000548
v 0.017560 0.008875 -0.000560
v 0.017560 0.008875 -0.000640
v 0.017560 0.008876 -0.000646
v 0.017560 0.008783 -0.000580
v 0.017560 0.008604 -0.000794
v 0.017560 0.008603 -0.000792
v 0.017560 0.008603 -0.000790
v 0.017560 0.008605 -0.000796
v 0.017560 0.008606 -0.000797
v 0.017560 0.008607 -0.000798
v 0.017560 0.008609 -0.000799
v 0.017560 0.008611 -0.000800
v 0.017560 0.008613 -0.000800
v 0.017560 0.008933 -0.000704
v 0.017560 0.008993 -0.000800
v 0.017560 0.008843 -0.000778
v 0.017560 0.008939 -0.000704
v 0.017560 0.008949 -0.000704
v 0.017560 0.008951 -0.000704
v 0.017560 0.009003 -0.000790
v 0.017560 0.008999 -0.000798
v 0.017560 0.009000 -0.000797
v 0.017560 0.008997 -0.000799
v 0.017560 0.008995 -0.000800
v 0.017560 0.009002 -0.000794
v 0.017560 0.009001 -0.000796
v 0.017560 0.009003 -0.000792
v 0.017560 0.009003 -0.000653
v 0.017560 0.008958 -0.000698
v 0.017560 0.008959 -0.000696
v 0.017560 0.008993 -0.000643
v 0.017560 0.008959 -0.000694
v 0.017560 0.009003 -0.000651
v 0.017560 0.009002 -0.000649
v 0.017560 0.009001 -0.000647
v 0.017560 0.008999 -0.000645
v 0.017560 0.008997 -0.000644
v 0.017560 0.009000 -0.000646
v 0.017560 0.008995 -0.000643
v 0.017560 0.008959 -0.000643
v 0.017560 0.008957 -0.000700
v 0.017560 0.008956 -0.000701
v 0.017560 0.008955 -0.000702
v 0.017560 0.008953 -0.000703
v 0.017560 0.008843 -0.000758
v 0.017560 0.008927 -0.000703
v 0.017560 0.008921 -0.000701
v 0.017560 0.008915 -0.000699
v 0.017560 0.008909 -0.000696
v 0.017560 0.008894 -0.000685
v 0.017560 0.008899 -0.000689
v 0.017560 0.008904 -0.000693
v 0.017560 0.008890 -0.000681
v 0.017560 0.008886 -0.000676
v 0.017560 0.008878 -0.000659
v 0.017560 0.008833 -0.000580
v 0.017560 0.008876 -0.000554
v 0.017560 0.008723 -0.000530
v 0.017560 0.008877 -0.000548
v 0.017560 0.008877 -0.000652
v 0.017560 0.008883 -0.000530
v 0.017560 0.008880 -0.000536
v 0.017560 0.008878 -0.000541
v 0.017560 0.008886 -0.000524
v 0.017560 0.008712 -0.000515
v 0.017560 0.008899 -0.000511
v 0.017560 0.008894 -0.000515
v 0.017560 0.008716 -0.000519
v 0.017560 0.008909 -0.000504
v 0.017560 0.008904 -0.000507
v 0.017560 0.008702 -0.000507
v 0.017560 0.008707 -0.000511
v 0.017560 0.008915 -0.000501
v 0.017560 0.009003 -0.000400
v 0.017560 0.008921 -0.000499
v 0.017560 0.008939 -0.000496
v 0.017560 0.009003 -0.000400
v 0.017560 0.008949 -0.000496
v 0.017560 0.009003 -0.000400
v 0.017560 0.008933 -0.000496
v 0.017560 0.008927 -0.000497
v 0.017560 0.009003 -0.000400
v 0.017560 0.008951 -0.000496
v 0.017560 0.009003 -0.000400
v 0.017560 0.008953 -0.000497
v 0.017560 0.009003 -0.000400
v 0.017560 0.008955 -0.000498
v 0.017560 0.009003 -0.000400
v 0.017560 0.008956 -0.000499
v 0.017560 0.009003 -0.000400
v 0.017560 0.008957 -0.000500
v 0.017560 0.009003 -0.000400
v 0.017560 0.008958 -0.000502
v 0.017560 0.009003 -0.000400
v 0.017560 0.009003 -0.000547
v 0.017560 0.009003 -0.000400
v 0.017560 0.008697 -0.000504
v 0.017560 0.008890 -0.000519
v 0.017560 0.008823 -0.000580
v 0.017560 0.008729 -0.000652
v 0.017560 0.008730 -0.000646
v 0.017560 0.008959 -0.000506
v 0.017560 0.008993 -0.000557
v 0.017560 0.008959 -0.000557
v 0.017560 0.008995 -0.000557
v 0.017560 0.009002 -0.000551
v 0.017560 0.009003 -0.000549
v 0.017560 0.008603 -0.000547
v 0.017560 0.008648 -0.000502
v 0.017560 0.008647 -0.000504
v 0.017560 0.008613 -0.000557
v 0.017560 0.008647 -0.000506
v 0.017560 0.008603 -0.000549
v 0.017560 0.008604 -0.000551
v 0.017560 0.008605 -0.000553
v 0.017560 0.008607 -0.000555
v 0.017560 0.008609 -0.000556
v 0.017560 0.008606 -0.000554
v 0.017560 0.008611 -0.000557
v 0.017560 0.008603 -0.000400
v 0.017560 0.008647 -0.000557
v 0.017560 0.008649 -0.000500
v 0.017560 0.008603 -0.000400
v 0.017560 0.008650 -0.000499
v 0.017560 0.008603 -0.000400
v 0.017560 0.008651 -0.000498
v 0.017560 0.008603 -0.000400
v 0.017560 0.008653 -0.000497
v 0.017560 0.008603 -0.000400
v 0.017560 0.008603 -0.000400
v 0.017560 0.008655 -0.000496
v 0.017560 0.008603 -0.000400
v 0.017560 0.008666 -0.000496
v 0.017560 0.008657 -0.000496
v 0.017560 0.008603 -0.000400
v 0.017560 0.008673 -0.000496
v 0.017560 0.008603 -0.000400
v 0.017560 0.008685 -0.000499
v 0.017560 0.008679 -0.000497
v 0.017560 0.008603 -0.000400
v 0.017560 0.008691 -0.000501
v 0.017560 0.008603 -0.000400
v 0.017560 0.008603 -0.000400
v 0.017560 0.009003 -0.000400
v 0.017560 0.009003 -0.000400
v 0.017560 0.008959 -0.000504
v 0.017560 0.009003 -0.000400
v 0.017560 0.008997 -0.000556
v 0.017560 0.008999 -0.000555
v 0.017560 0.009001 -0.000553
v 0.017560 0.009000 -0.000554
v 0.017560 0.008783 -0.000620
v 0.017560 0.008712 -0.000685
v 0.017560 0.008716 -0.000681
v 0.017560 0.008720 -0.000676
v 0.017560 0.008707 -0.000689
v 0.017560 0.008702 -0.000693
v 0.017560 0.008697 -0.000696
v 0.017560 0.008691 -0.000699
v 0.017560 0.008685 -0.000701
v 0.017560 0.008679 -0.000703
v 0.017560 0.008673 -0.000704
v 0.017560 0.008666 -0.000704
v 0.017560 0.008653 -0.000703
v 0.017560 0.008655 -0.000704
v 0.017560 0.008657 -0.000704
v 0.017560 0.008651 -0.000702
v 0.017560 0.008650 -0.000701
v 0.017560 0.008649 -0.000700
v 0.017560 0.008648 -0.000698
v 0.017560 0.008603 -0.000653
v 0.017560 0.008647 -0.000696
v 0.017560 0.008647 -0.000694
v 0.017560 0.008613 -0.000643
v 0.017560 0.008647 -0.000643
v 0.017560 0.008611 -0.000643
v 0.017560 0.009003 -0.000400
v 0.017560 0.008603 -0.000400
v 0.017560 0.008603 -0.000400
v 0.017560 0.008609 -0.000644
v 0.017560 0.008607 -0.000645
v 0.017560 0.008606 -0.000646
v 0.017560 0.008605 -0.000647
v 0.017560 0.008604 -0.000649
v 0.017560 0.008603 -0.000651
v 0.017560 0.008603 -0.000790
v 0.017567 0.008603 -0.000790
v 0.017560 0.008603 -0.000653
v 0.017560 0.008603 -0.000653
v 0.017567 0.008603 -0.000653
v 0.017560 0.008603 -0.000547
v 0.017567 0.008603 -0.000547
v 0.017560 0.008603 -0.000400
v 0.017560 0.008603 -0.000400
v 0.017567 0.008603 -0.000547
v 0.017567 0.008603 -0.000400
v 0.017600 0.008636 -0.000722
v 0.017567 0.008603 -0.000790
v 0.017600 0.008636 -0.000800
v 0.017600 0.008636 -0.000722
v 0.017600 0.008636 -0.000643
v 0.017567 0.008603 -0.000653
v 0.017577 0.008613 -0.000800
v 0.017600 0.008636 -0.000800
v 0.017567 0.008603 -0.000790
v 0.017575 0.008611 -0.000800
v 0.017567 0.008603 -0.000790
v 0.017573 0.008609 -0.000799
v 0.017567 0.008603 -0.000790
v 0.017571 0.008607 -0.000798
v 0.017567 0.008603 -0.000790
v 0.017570 0.008606 -0.000797
v 0.017568 0.008604 -0.000794
v 0.017569 0.008605 -0.000796
v 0.017567 0.008603 -0.000790
v 0.017567 0.008603 -0.000790
v 0.017567 0.008603 -0.000792
v 0.017567 0.008603 -0.000790
v 0.017567 0.008603 -0.000790
v 0.017567 0.008603 -0.000790
v 0.017600 0.008636 -0.000722
v 0.017567 0.008603 -0.000653
v 0.017567 0.008603 -0.000653
v 0.017600 0.008636 -0.000643
v 0.017577 0.008613 -0.000643
v 0.017575 0.008611 -0.000643
v 0.017567 0.008603 -0.000653
v 0.017573 0.008609 -0.000644
v 0.017567 0.008603 -0.000653
v 0.017567 0.008603 -0.000653
v 0.017570 0.008606 -0.000646
v 0.017569 0.008605 -0.000647
v 0.017567 0.008603 -0.000653
v 0.017571 0.008607 -0.000645
v 0.017567 0.008603 -0.000651
v 0.017567 0.008603 -0.000653
v 0.017568 0.008604 -0.000649
v 0.017567 0.008603 -0.000653
v 0.017567 0.008603 -0.000653
v 0.017560 0.009003 -0.000653
v 0.017567 0.009003 -0.000653
v 0.017560 0.009003 -0.000790
v 0.017560 0.009003 -0.000790
v 0.017567 0.009003 -0.000790
v 0.017600 0.008970 -0.000722
v 0.017567 0.009003 -0.000653
v 0.017600 0.008970 -0.000643
v 0.017600 0.008970 -0.000722
v 0.017600 0.008970 -0.000800
v 0.017567 0.009003 -0.000790
v 0.017577 0.008993 -0.000643
v 0.017600 0.008970 -0.000643
v 0.017567 0.009003 -0.000653
v 0.017575 0.008995 -0.000643
v 0.017567 0.009003 -0.000653
v 0.017573 0.008997 -0.000644
v 0.017567 0.009003 -0.000653
v 0.017571 0.008999 -0.000645
v 0.017567 0.009003 -0.000653
v 0.017570 0.009000 -0.000646
v 0.017568 0.009002 -0.000649
v 0.017569 0.009001 -0.000647
v 0.017567 0.009003 -0.000653
v 0.017567 0.009003 -0.000653
v 0.017567 0.009003 -0.000651
v 0.017567 0.009003 -0.000653
v 0.017567 0.009003 -0.000653
v 0.017567 0.009003 -0.000653
v 0.017600 0.008970 -0.000722
v 0.017567 0.009003 -0.000790
v 0.017567 0.009003 -0.000790
v 0.017600 0.008970 -0.000800
v 0.017577 0.008993 -0.000800
v 0.017575 0.008995 -0.000800
v 0.017567 0.009003 -0.000790
v 0.017573 0.008997 -0.000799
v 0.017567 0.009003 -0.000790
v 0.017567 0.009003 -0.000790
v 0.017570 0.009000 -0.000797
v 0.017569 0.009001 -0.000796
v 0.017567 0.009003 -0.000790
v 0.017571 0.008999 -0.000798
v 0.017567 0.009003 -0.000792
v 0.017567 0.009003 -0.000790
v 0.017568 0.009002 -0.000794
v 0.017567 0.009003 -0.000790
v 0.017567 0.009003 -0.000790
v 0.017600 0.008636 -0.000800
v 0.017560 0.008803 -0.000800
v 0.017600 0.008970 -0.000800
v 0.017600 0.008636 -0.000800
v 0.017577 0.008613 -0.000800
v 0.017560 0.008613 -0.000800
v 0.017600 0.008970 -0.000800
v 0.017560 0.008803 -0.000800
v 0.017560 0.008993 -0.000800
v 0.017577 0.008993 -0.000800
v 0.017600 0.008970 -0.000800
v 0.017560 0.008993 -0.000800
v 0.017560 0.008803 -0.000800
v 0.017600 0.008636 -0.000800
v 0.017560 0.008613 -0.000800
v 0.017560 0.009003 -0.000400
v 0.017567 0.009003 -0.000400
v 0.017560 0.009003 -0.000547
v 0.017560 0.009003 -0.000547
v 0.017567 0.009003 -0.000400
v 0.017567 0.009003 -0.000547
v 0.017560 0.008875 -0.000560
v 0.017600 0.008875 -0.000560
v 0.017560 0.008875 -0.000640
v 0.017600 0.008875 -0.000560
v 0.017600 0.008875 -0.000640
v 0.017560 0.008875 -0.000640
v 0.017560 0.008933 -0.000704
v 0.017560 0.008927 -0.000703
v 0.017600 0.008933 -0.000704
v 0.017560 0.008927 -0.000703
v 0.017560 0.008921 -0.000701
v 0.017600 0.008927 -0.000703
v 0.017560 0.008921 -0.000701
v 0.017600 0.008921 -0.000701
v 0.017600 0.008927 -0.000703
v 0.017560 0.008915 -0.000699
v 0.017600 0.008915 -0.000699
v 0.017600 0.008921 -0.000701
v 0.017560 0.008909 -0.000696
v 0.017600 0.008915 -0.000699
v 0.017560 0.008915 -0.000699
v 0.017560 0.008904 -0.000693
v 0.017600 0.008909 -0.000696
v 0.017560 0.008909 -0.000696
v 0.017600 0.008904 -0.000693
v 0.017600 0.008909 -0.000696
v 0.017560 0.008904 -0.000693
v 0.017600 0.008899 -0.000689
v 0.017600 0.008904 -0.000693
v 0.017560 0.008899 -0.000689
v 0.017600 0.008899 -0.000689
v 0.017560 0.008899 -0.000689
v 0.017560 0.008894 -0.000685
v 0.017600 0.008894 -0.000685
v 0.017560 0.008894 -0.000685
v 0.017560 0.008890 -0.000681
v 0.017600 0.008894 -0.000685
v 0.017560 0.008890 -0.000681
v 0.017600 0.008890 -0.000681
v 0.017600 0.008890 -0.000681
v 0.017560 0.008886 -0.000676
v 0.017600 0.008886 -0.000676
v 0.017560 0.008886 -0.000676
v 0.017560 0.008883 -0.000670
v 0.017600 0.008886 -0.000676
v 0.017560 0.008883 -0.000670
v 0.017560 0.008880 -0.000664
v 0.017600 0.008883 -0.000670
v 0.017560 0.008880 -0.000664
v 0.017600 0.008880 -0.000664
v 0.017600 0.008883 -0.000670
v 0.017560 0.008933 -0.000704
v 0.017600 0.008933 -0.000704
v 0.017560 0.008939 -0.000704
v 0.017600 0.008876 -0.000646
v 0.017560 0.008875 -0.000640
v 0.017600 0.008875 -0.000640
v 0.017560 0.008876 -0.000646
v 0.017560 0.008875 -0.000640
v 0.017600 0.008876 -0.000646
v 0.017560 0.008876 -0.000646
v 0.017600 0.008876 -0.000646
v 0.017600 0.008877 -0.000652
v 0.017560 0.008876 -0.000646
v 0.017600 0.008877 -0.000652
v 0.017560 0.008877 -0.000652
v 0.017600 0.008877 -0.000652
v 0.017600 0.008878 -0.000659
v 0.017560 0.008877 -0.000652
v 0.017600 0.008878 -0.000659
v 0.017560 0.008878 -0.000659
v 0.017560 0.008877 -0.000652
v 0.017600 0.008880 -0.000664
v 0.017560 0.008878 -0.000659
v 0.017600 0.008878 -0.000659
v 0.017560 0.008880 -0.000664
v 0.017560 0.008878 -0.000659
v 0.017600 0.008880 -0.000664
v 0.017600 0.008886 -0.000676
v 0.017560 0.008883 -0.000670
v 0.017600 0.008883 -0.000670
v 0.017600 0.008890 -0.000681
v 0.017560 0.008890 -0.000681
v 0.017560 0.008886 -0.000676
v 0.017600 0.008894 -0.000685
v 0.017600 0.008899 -0.000689
v 0.017560 0.008894 -0.000685
v 0.017560 0.008899 -0.000689
v 0.017600 0.008904 -0.000693
v 0.017560 0.008904 -0.000693
v 0.017560 0.008909 -0.000696
v 0.017600 0.008909 -0.000696
v 0.017600 0.008915 -0.000699
v 0.017560 0.008921 -0.000701
v 0.017560 0.008915 -0.000699
v 0.017600 0.008921 -0.000701
v 0.017600 0.008933 -0.000704
v 0.017600 0.008939 -0.000704
v 0.017560 0.008939 -0.000704
v 0.017560 0.008927 -0.000703
v 0.017600 0.008927 -0.000703
v 0.017600 0.008933 -0.000704
v 0.017600 0.008949 -0.000704
v 0.017560 0.008949 -0.000704
v 0.017600 0.008939 -0.000704
v 0.017560 0.008949 -0.000704
v 0.017560 0.008939 -0.000704
v 0.017600 0.008939 -0.000704
v 0.017560 0.008959 -0.000694
v 0.017600 0.008959 -0.000694
v 0.017560 0.008959 -0.000643
v 0.017600 0.008959 -0.000694
v 0.017600 0.008959 -0.000643
v 0.017560 0.008959 -0.000643
v 0.017600 0.008959 -0.000506
v 0.017560 0.008959 -0.000506
v 0.017600 0.008959 -0.000557
v 0.017560 0.008959 -0.000506
v 0.017560 0.008959 -0.000557
v 0.017600 0.008959 -0.000557
v 0.017560 0.008949 -0.000496
v 0.017600 0.008949 -0.000496
v 0.017560 0.008939 -0.000496
v 0.017600 0.008949 -0.000496
v 0.017600 0.008939 -0.000496
v 0.017560 0.008939 -0.000496
v 0.017560 0.008876 -0.000554
v 0.017560 0.008877 -0.000548
v 0.017600 0.008876 -0.000554
v 0.017560 0.008877 -0.000548
v 0.017560 0.008878 -0.000541
v 0.017600 0.008877 -0.000548
v 0.017560 0.008878 -0.000541
v 0.017600 0.008878 -0.000541
v 0.017600 0.008877 -0.000548
v 0.017560 0.008880 -0.000536
v 0.017600 0.008880 -0.000536
v 0.017600 0.008878 -0.000541
v 0.017560 0.008883 -0.000530
v 0.017600 0.008880 -0.000536
v 0.017560 0.008880 -0.000536
v 0.017560 0.008886 -0.000524
v 0.017600 0.008883 -0.000530
v 0.017560 0.008883 -0.000530
v 0.017600 0.008886 -0.000524
v 0.017600 0.008883 -0.000530
v 0.017560 0.008886 -0.000524
v 0.017600 0.008890 -0.000519
v 0.017600 0.008886 -0.000524
v 0.017560 0.008890 -0.000519
v 0.017600 0.008890 -0.000519
v 0.017560 0.008890 -0.000519
v 0.017560 0.008894 -0.000515
v 0.017600 0.008894 -0.000515
v 0.017560 0.008894 -0.000515
v 0.017560 0.008899 -0.000511
v 0.017600 0.008894 -0.000515
v 0.017560 0.008899 -0.000511
v 0.017600 0.008899 -0.000511
v 0.017600 0.008899 -0.000511
v 0.017560 0.008904 -0.000507
v 0.017600 0.008904 -0.000507
v 0.017560 0.008904 -0.000507
v 0.017560 0.008909 -0.000504
v 0.017600 0.008904 -0.000507
v 0.017560 0.008909 -0.000504
v 0.017560 0.008915 -0.000501
v 0.017600 0.008909 -0.000504
v 0.017560 0.008915 -0.000501
v 0.017600 0.008915 -0.000501
v 0.017600 0.008909 -0.000504
v 0.017560 0.008876 -0.000554
v 0.017600 0.008876 -0.000554
v 0.017560 0.008875 -0.000560
v 0.017600 0.008933 -0.000496
v 0.017560 0.008939 -0.000496
v 0.017600 0.008939 -0.000496
v 0.017560 0.008933 -0.000496
v 0.017560 0.008939 -0.000496
v 0.017600 0.008933 -0.000496
v 0.017560 0.008933 -0.000496
v 0.017600 0.008933 -0.000496
v 0.017600 0.008927 -0.000497
v 0.017560 0.008933 -0.000496
v 0.017600 0.008927 -0.000497
v 0.017560 0.008927 -0.000497
v 0.017600 0.008927 -0.000497
v 0.017600 0.008921 -0.000499
v 0.017560 0.008927 -0.000497
v 0.017600 0.008921 -0.000499
v 0.017560 0.008921 -0.000499
v 0.017560 0.008927 -0.000497
v 0.017600 0.008915 -0.000501
v 0.017560 0.008921 -0.000499
v 0.017600 0.008921 -0.000499
v 0.017560 0.008915 -0.000501
v 0.017560 0.008921 -0.000499
v 0.017600 0.008915 -0.000501
v 0.017600 0.008904 -0.000507
v 0.017560 0.008909 -0.000504
v 0.017600 0.008909 -0.000504
v 0.017600 0.008899 -0.000511
v 0.017560 0.008899 -0.000511
v 0.017560 0.008904 -0.000507
v 0.017600 0.008894 -0.000515
v 0.017600 0.008890 -0.000519
v 0.017560 0.008894 -0.000515
v 0.017560 0.008890 -0.000519
v 0.017600 0.008886 -0.000524
v 0.017560 0.008886 -0.000524
v 0.017560 0.008883 -0.000530
v 0.017600 0.008883 -0.000530
v 0.017600 0.008880 -0.000536
v 0.017560 0.008878 -0.000541
v 0.017560 0.008880 -0.000536
v 0.017600 0.008878 -0.000541
v 0.017600 0.008876 -0.000554
v 0.017600 0.008875 -0.000560
v 0.017560 0.008875 -0.000560
v 0.017560 0.008877 -0.000548
v 0.017600 0.008877 -0.000548
v 0.017600 0.008876 -0.000554
v 0.017577 0.008993 -0.000643
v 0.017560 0.008959 -0.000643
v 0.017600 0.008970 -0.000643
v 0.017560 0.008993 -0.000643
v 0.017560 0.008959 -0.000643
v 0.017577 0.008993 -0.000643
v 0.017600 0.008959 -0.000643
v 0.017600 0.008970 -0.000643
v 0.017560 0.008959 -0.000643
v 0.017560 0.008993 -0.000557
v 0.017577 0.008993 -0.000557
v 0.017560 0.008959 -0.000557
v 0.017600 0.008970 -0.000557
v 0.017600 0.008959 -0.000557
v 0.017560 0.008959 -0.000557
v 0.017577 0.008993 -0.000557
v 0.017600 0.008970 -0.000557
v 0.017560 0.008959 -0.000557
v 0.017560 0.008731 -0.000560
v 0.017560 0.008731 -0.000640
v 0.017600 0.008731 -0.000560
v 0.017600 0.008731 -0.000560
v 0.017560 0.008731 -0.000640
v 0.017600 0.008731 -0.000640
v 0.017600 0.008666 -0.000704
v 0.017600 0.008673 -0.000704
v 0.017560 0.008666 -0.000704
v 0.017600 0.008673 -0.000704
v 0.017560 0.008673 -0.000704
v 0.017560 0.008666 -0.000704
v 0.017600 0.008679 -0.000703
v 0.017560 0.008673 -0.000704
v 0.017600 0.008673 -0.000704
v 0.017560 0.008679 -0.000703
v 0.017560 0.008673 -0.000704
v 0.017600 0.008679 -0.000703
v 0.017560 0.008679 -0.000703
v 0.017600 0.008679 -0.000703
v 0.017600 0.008685 -0.000701
v 0.017560 0.008679 -0.000703
v 0.017600 0.008685 -0.000701
v 0.017560 0.008685 -0.000701
v 0.017600 0.008685 -0.000701
v 0.017600 0.008691 -0.000699
v 0.017560 0.008685 -0.000701
v 0.017600 0.008691 -0.000699
v 0.017560 0.008691 -0.000699
v 0.017560 0.008685 -0.000701
v 0.017600 0.008697 -0.000696
v 0.017560 0.008691 -0.000699
v 0.017600 0.008691 -0.000699
v 0.017560 0.008697 -0.000696
v 0.017560 0.008691 -0.000699
v 0.017600 0.008697 -0.000696
v 0.017560 0.008697 -0.000696
v 0.017600 0.008697 -0.000696
v 0.017600 0.008702 -0.000693
v 0.017560 0.008697 -0.000696
v 0.017600 0.008702 -0.000693
v 0.017560 0.008702 -0.000693
v 0.017600 0.008702 -0.000693
v 0.017600 0.008707 -0.000689
v 0.017560 0.008702 -0.000693
v 0.017600 0.008707 -0.000689
v 0.017560 0.008707 -0.000689
v 0.017560 0.008702 -0.000693
v 0.017560 0.008716 -0.000681
v 0.017600 0.008720 -0.000676
v 0.017560 0.008720 -0.000676
v 0.017560 0.008720 -0.000676
v 0.017600 0.008720 -0.000676
v 0.017600 0.008723 -0.000670
v 0.017560 0.008731 -0.000640
v 0.017560 0.008730 -0.000646
v 0.017600 0.008731 -0.000640
v 0.017560 0.008730 -0.000646
v 0.017600 0.008730 -0.000646
v 0.017600 0.008731 -0.000640
v 0.017560 0.008729 -0.000652
v 0.017600 0.008730 -0.000646
v 0.017560 0.008730 -0.000646
v 0.017600 0.008729 -0.000652
v 0.017600 0.008730 -0.000646
v 0.017560 0.008729 -0.000652
v 0.017600 0.008729 -0.000652
v 0.017560 0.008729 -0.000652
v 0.017560 0.008728 -0.000659
v 0.017600 0.008729 -0.000652
v 0.017560 0.008728 -0.000659
v 0.017600 0.008728 -0.000659
v 0.017560 0.008728 -0.000659
v 0.017560 0.008726 -0.000664
v 0.017600 0.008728 -0.000659
v 0.017560 0.008726 -0.000664
v 0.017600 0.008726 -0.000664
v 0.017600 0.008728 -0.000659
v 0.017560 0.008723 -0.000670
v 0.017600 0.008726 -0.000664
v 0.017560 0.008726 -0.000664
v 0.017600 0.008723 -0.000670
v 0.017600 0.008726 -0.000664
v 0.017560 0.008723 -0.000670
v 0.017600 0.008723 -0.000670
v 0.017560 0.008723 -0.000670
v 0.017560 0.008720 -0.000676
v 0.017600 0.008720 -0.000676
v 0.017560 0.008716 -0.000681
v 0.017600 0.008716 -0.000681
v 0.017560 0.008716 -0.000681
v 0.017560 0.008712 -0.000685
v 0.017600 0.008716 -0.000681
v 0.017560 0.008712 -0.000685
v 0.017600 0.008712 -0.000685
v 0.017600 0.008716 -0.000681
v 0.017560 0.008707 -0.000689
v 0.017600 0.008712 -0.000685
v 0.017560 0.008712 -0.000685
v 0.017560 0.008707 -0.000689
v 0.017600 0.008707 -0.000689
v 0.017600 0.008712 -0.000685
v 0.017600 0.008666 -0.000704
v 0.017560 0.008666 -0.000704
v 0.017600 0.008657 -0.000704
v 0.017600 0.008657 -0.000704
v 0.017560 0.008666 -0.000704
v 0.017560 0.008657 -0.000704
v 0.017560 0.008647 -0.000643
v 0.017600 0.008647 -0.000643
v 0.017560 0.008647 -0.000694
v 0.017560 0.008647 -0.000694
v 0.017600 0.008647 -0.000643
v 0.017600 0.008647 -0.000694
v 0.017600 0.008647 -0.000557
v 0.017560 0.008647 -0.000557
v 0.017600 0.008647 -0.000506
v 0.017600 0.008647 -0.000506
v 0.017560 0.008647 -0.000557
v 0.017560 0.008647 -0.000506
v 0.017560 0.008666 -0.000496
v 0.017600 0.008666 -0.000496
v 0.017560 0.008657 -0.000496
v 0.017560 0.008657 -0.000496
v 0.017600 0.008666 -0.000496
v 0.017600 0.008657 -0.000496
v 0.017600 0.008731 -0.000560
v 0.017600 0.008730 -0.000554
v 0.017560 0.008731 -0.000560
v 0.017600 0.008730 -0.000554
v 0.017600 0.008729 -0.000548
v 0.017560 0.008730 -0.000554
v 0.017600 0.008729 -0.000548
v 0.017560 0.008729 -0.000548
v 0.017560 0.008730 -0.000554
v 0.017600 0.008728 -0.000541
v 0.017560 0.008728 -0.000541
v 0.017560 0.008729 -0.000548
v 0.017600 0.008726 -0.000536
v 0.017560 0.008726 -0.000536
v 0.017560 0.008728 -0.000541
v 0.017600 0.008723 -0.000530
v 0.017560 0.008726 -0.000536
v 0.017600 0.008726 -0.000536
v 0.017600 0.008720 -0.000524
v 0.017560 0.008723 -0.000530
v 0.017600 0.008723 -0.000530
v 0.017560 0.008720 -0.000524
v 0.017560 0.008723 -0.000530
v 0.017600 0.008720 -0.000524
v 0.017560 0.008716 -0.000519
v 0.017560 0.008720 -0.000524
v 0.017600 0.008716 -0.000519
v 0.017560 0.008716 -0.000519
v 0.017600 0.008716 -0.000519
v 0.017600 0.008712 -0.000515
v 0.017560 0.008712 -0.000515
v 0.017600 0.008712 -0.000515
v 0.017600 0.008707 -0.000511
v 0.017560 0.008712 -0.000515
v 0.017600 0.008707 -0.000511
v 0.017560 0.008707 -0.000511
v 0.017560 0.008707 -0.000511
v 0.017600 0.008702 -0.000507
v 0.017560 0.008702 -0.000507
v 0.017600 0.008702 -0.000507
v 0.017600 0.008697 -0.000504
v 0.017560 0.008702 -0.000507
v 0.017600 0.008697 -0.000504
v 0.017600 0.008691 -0.000501
v 0.017560 0.008697 -0.000504
v 0.017600 0.008691 -0.000501
v 0.017560 0.008691 -0.000501
v 0.017560 0.008697 -0.000504
v 0.017560 0.008673 -0.000496
v 0.017600 0.008666 -0.000496
v 0.017560 0.008666 -0.000496
v 0.017600 0.008673 -0.000496
v 0.017600 0.008666 -0.000496
v 0.017560 0.008673 -0.000496
v 0.017600 0.008673 -0.000496
v 0.017560 0.008673 -0.000496
v 0.017560 0.008679 -0.000497
v 0.017600 0.008673 -0.000496
v 0.017560 0.008679 -0.000497
v 0.017600 0.008679 -0.000497
v 0.017560 0.008679 -0.000497
v 0.017560 0.008685 -0.000499
v 0.017600 0.008679 -0.000497
v 0.017560 0.008685 -0.000499
v 0.017600 0.008685 -0.000499
v 0.017600 0.008679 -0.000497
v 0.017560 0.008691 -0.000501
v 0.017600 0.008685 -0.000499
v 0.017560 0.008685 -0.000499
v 0.017600 0.008691 -0.000501
v 0.017600 0.008685 -0.000499
v 0.017560 0.008691 -0.000501
v 0.017560 0.008702 -0.000507
v 0.017600 0.008697 -0.000504
v 0.017560 0.008697 -0.000504
v 0.017560 0.008707 -0.000511
v 0.017600 0.008707 -0.000511
v 0.017600 0.008702 -0.000507
v 0.017560 0.008712 -0.000515
v 0.017560 0.008716 -0.000519
v 0.017600 0.008712 -0.000515
v 0.017600 0.008716 -0.000519
v 0.017560 0.008720 -0.000524
v 0.017600 0.008720 -0.000524
v 0.017600 0.008723 -0.000530
v 0.017560 0.008723 -0.000530
v 0.017560 0.008726 -0.000536
v 0.017600 0.008728 -0.000541
v 0.017600 0.008726 -0.000536
v 0.017560 0.008728 -0.000541
v 0.017560 0.008730 -0.000554
v 0.017560 0.008731 -0.000560
v 0.017600 0.008730 -0.000554
v 0.017560 0.008729 -0.000548
v 0.017600 0.008729 -0.000548
v 0.017600 0.008728 -0.000541
v 0.017600 0.008647 -0.000643
v 0.017560 0.008647 -0.000643
v 0.017600 0.008636 -0.000643
v 0.017577 0.008613 -0.000643
v 0.017560 0.008647 -0.000643
v 0.017560 0.008613 -0.000643
v 0.017577 0.008613 -0.000643
v 0.017600 0.008636 -0.000643
v 0.017560 0.008647 -0.000643
v 0.017600 0.008647 -0.000557
v 0.017600 0.008636 -0.000557
v 0.017560 0.008647 -0.000557
v 0.017560 0.008647 -0.000557
v 0.017600 0.008636 -0.000557
v 0.017577 0.008613 -0.000557
v 0.017577 0.008613 -0.000557
v 0.017560 0.008613 -0.000557
v 0.017560 0.008647 -0.000557
v 0.017567 0.008603 -0.000547
v 0.017560 0.008603 -0.000547
v 0.017560 0.008603 -0.000549
v 0.017567 0.008603 -0.000549
v 0.017567 0.008603 -0.000547
v 0.017560 0.008603 -0.000549
v 0.017560 0.008603 -0.000549
v 0.017560 0.008604 -0.000551
v 0.017567 0.008603 -0.000549
v 0.017567 0.008603 -0.000549
v 0.017560 0.008604 -0.000551
v 0.017568 0.008604 -0.000551
v 0.017568 0.008604 -0.000551
v 0.017560 0.008604 -0.000551
v 0.017560 0.008605 -0.000553
v 0.017569 0.008605 -0.000553
v 0.017568 0.008604 -0.000551
v 0.017560 0.008605 -0.000553
v 0.017560 0.008606 -0.000554
v 0.017569 0.008605 -0.000553
v 0.017560 0.008605 -0.000553
v 0.017560 0.008607 -0.000555
v 0.017570 0.008606 -0.000554
v 0.017560 0.008606 -0.000554
v 0.017560 0.008606 -0.000554
v 0.017570 0.008606 -0.000554
v 0.017569 0.008605 -0.000553
v 0.017575 0.008611 -0.000557
v 0.017560 0.008613 -0.000557
v 0.017577 0.008613 -0.000557
v 0.017575 0.008611 -0.000557
v 0.017560 0.008611 -0.000557
v 0.017560 0.008613 -0.000557
v 0.017575 0.008611 -0.000557
v 0.017573 0.008609 -0.000556
v 0.017560 0.008611 -0.000557
v 0.017560 0.008611 -0.000557
v 0.017573 0.008609 -0.000556
v 0.017560 0.008609 -0.000556
v 0.017560 0.008609 -0.000556
v 0.017573 0.008609 -0.000556
v 0.017571 0.008607 -0.000555
v 0.017560 0.008607 -0.000555
v 0.017560 0.008609 -0.000556
v 0.017571 0.008607 -0.000555
v 0.017570 0.008606 -0.000554
v 0.017560 0.008607 -0.000555
v 0.017571 0.008607 -0.000555
v 0.017560 0.008993 -0.000557
v 0.017575 0.008995 -0.000557
v 0.017577 0.008993 -0.000557
v 0.017560 0.008993 -0.000557
v 0.017560 0.008995 -0.000557
v 0.017575 0.008995 -0.000557
v 0.017575 0.008995 -0.000557
v 0.017560 0.008995 -0.000557
v 0.017573 0.008997 -0.000556
v 0.017573 0.008997 -0.000556
v 0.017560 0.008995 -0.000557
v 0.017560 0.008997 -0.000556
v 0.017560 0.008999 -0.000555
v 0.017560 0.009000 -0.000554
v 0.017570 0.009000 -0.000554
v 0.017571 0.008999 -0.000555
v 0.017560 0.008997 -0.000556
v 0.017560 0.008999 -0.000555
v 0.017560 0.009000 -0.000554
v 0.017560 0.009001 -0.000553
v 0.017569 0.009001 -0.000553
v 0.017571 0.008999 -0.000555
v 0.017573 0.008997 -0.000556
v 0.017560 0.008997 -0.000556
v 0.017560 0.009003 -0.000549
v 0.017560 0.009003 -0.000547
v 0.017567 0.009003 -0.000547
v 0.017567 0.009003 -0.000549
v 0.017560 0.009003 -0.000549
v 0.017567 0.009003 -0.000547
v 0.017567 0.009003 -0.000549
v 0.017560 0.009002 -0.000551
v 0.017560 0.009003 -0.000549
v 0.017567 0.009003 -0.000549
v 0.017568 0.009002 -0.000551
v 0.017560 0.009002 -0.000551
v 0.017560 0.009002 -0.000551
v 0.017568 0.009002 -0.000551
v 0.017560 0.009001 -0.000553
v 0.017560 0.009001 -0.000553
v 0.017568 0.009002 -0.000551
v 0.017569 0.009001 -0.000553
v 0.017560 0.009000 -0.000554
v 0.017569 0.009001 -0.000553
v 0.017570 0.009000 -0.000554
v 0.017570 0.009000 -0.000554
v 0.017571 0.008999 -0.000555
v 0.017560 0.008999 -0.000555
v 0.017560 0.009003 -0.000653
v 0.017560 0.009003 -0.000651
v 0.017567 0.009003 -0.000651
v 0.017560 0.009003 -0.000651
v 0.017560 0.009003 -0.000651
v 0.017560 0.009002 -0.000649
v 0.017567 0.009003 -0.000651
v 0.017567 0.009003 -0.000651
v 0.017560 0.009002 -0.000649
v 0.017568 0.009002 -0.000649
v 0.017568 0.009002 -0.000649
v 0.017560 0.009002 -0.000649
v 0.017560 0.009001 -0.000647
v 0.017569 0.009001 -0.000647
v 0.017568 0.009002 -0.000649
v 0.017560 0.009001 -0.000647
v 0.017560 0.009000 -0.000646
v 0.017569 0.009001 -0.000647
v 0.017560 0.009001 -0.000647
v 0.017560 0.008999 -0.000645
v 0.017570 0.009000 -0.000646
v 0.017560 0.009000 -0.000646
v 0.017560 0.009000 -0.000646
v 0.017570 0.009000 -0.000646
v 0.017569 0.009001 -0.000647
v 0.017575 0.008995 -0.000643
v 0.017560 0.008993 -0.000643
v 0.017577 0.008993 -0.000643
v 0.017575 0.008995 -0.000643
v 0.017560 0.008995 -0.000643
v 0.017560 0.008993 -0.000643
v 0.017575 0.008995 -0.000643
v 0.017573 0.008997 -0.000644
v 0.017560 0.008995 -0.000643
v 0.017560 0.008995 -0.000643
v 0.017573 0.008997 -0.000644
v 0.017560 0.008997 -0.000644
v 0.017560 0.008997 -0.000644
v 0.017573 0.008997 -0.000644
v 0.017571 0.008999 -0.000645
v 0.017560 0.008999 -0.000645
v 0.017560 0.008997 -0.000644
v 0.017571 0.008999 -0.000645
v 0.017570 0.009000 -0.000646
v 0.017560 0.008999 -0.000645
v 0.017571 0.008999 -0.000645
v 0.017560 0.008951 -0.000496
v 0.017560 0.008953 -0.000497
v 0.017600 0.008951 -0.000496
v 0.017560 0.008953 -0.000497
v 0.017560 0.008955 -0.000498
v 0.017600 0.008953 -0.000497
v 0.017560 0.008955 -0.000498
v 0.017600 0.008955 -0.000498
v 0.017600 0.008953 -0.000497
v 0.017560 0.008956 -0.000499
v 0.017600 0.008956 -0.000499
v 0.017600 0.008955 -0.000498
v 0.017560 0.008957 -0.000500
v 0.017600 0.008956 -0.000499
v 0.017560 0.008956 -0.000499
v 0.017560 0.008958 -0.000502
v 0.017600 0.008957 -0.000500
v 0.017560 0.008957 -0.000500
v 0.017600 0.008958 -0.000502
v 0.017600 0.008957 -0.000500
v 0.017560 0.008958 -0.000502
v 0.017560 0.008951 -0.000496
v 0.017600 0.008951 -0.000496
v 0.017560 0.008949 -0.000496
v 0.017600 0.008959 -0.000504
v 0.017560 0.008959 -0.000506
v 0.017600 0.008959 -0.000506
v 0.017560 0.008959 -0.000504
v 0.017560 0.008959 -0.000506
v 0.017600 0.008959 -0.000504
v 0.017560 0.008959 -0.000504
v 0.017600 0.008959 -0.000504
v 0.017600 0.008958 -0.000502
v 0.017560 0.008959 -0.000504
v 0.017600 0.008958 -0.000502
v 0.017560 0.008958 -0.000502
v 0.017560 0.008957 -0.000500
v 0.017600 0.008957 -0.000500
v 0.017600 0.008956 -0.000499
v 0.017560 0.008955 -0.000498
v 0.017560 0.008956 -0.000499
v 0.017600 0.008955 -0.000498
v 0.017600 0.008951 -0.000496
v 0.017600 0.008949 -0.000496
v 0.017560 0.008949 -0.000496
v 0.017560 0.008953 -0.000497
v 0.017600 0.008953 -0.000497
v 0.017600 0.008951 -0.000496
v 0.017560 0.008959 -0.000696
v 0.017560 0.008958 -0.000698
v 0.017600 0.008959 -0.000696
v 0.017560 0.008958 -0.000698
v 0.017560 0.008957 -0.000700
v 0.017600 0.008958 -0.000698
v 0.017560 0.008957 -0.000700
v 0.017600 0.008957 -0.000700
v 0.017600 0.008958 -0.000698
v 0.017560 0.008956 -0.000701
v 0.017600 0.008956 -0.000701
v 0.017600 0.008957 -0.000700
v 0.017560 0.008955 -0.000702
v 0.017600 0.008956 -0.000701
v 0.017560 0.008956 -0.000701
v 0.017560 0.008953 -0.000703
v 0.017600 0.008955 -0.000702
v 0.017560 0.008955 -0.000702
v 0.017600 0.008953 -0.000703
v 0.017600 0.008955 -0.000702
v 0.017560 0.008953 -0.000703
v 0.017560 0.008959 -0.000696
v 0.017600 0.008959 -0.000696
v 0.017560 0.008959 -0.000694
v 0.017600 0.008951 -0.000704
v 0.017560 0.008949 -0.000704
v 0.017600 0.008949 -0.000704
v 0.017560 0.008951 -0.000704
v 0.017560 0.008949 -0.000704
v 0.017600 0.008951 -0.000704
v 0.017560 0.008951 -0.000704
v 0.017600 0.008951 -0.000704
v 0.017600 0.008953 -0.000703
v 0.017560 0.008951 -0.000704
v 0.017600 0.008953 -0.000703
v 0.017560 0.008953 -0.000703
v 0.017560 0.008955 -0.000702
v 0.017600 0.008955 -0.000702
v 0.017600 0.008956 -0.000701
v 0.017560 0.008957 -0.000700
v 0.017560 0.008956 -0.000701
v 0.017600 0.008957 -0.000700
v 0.017600 0.008959 -0.000696
v 0.017600 0.008959 -0.000694
v 0.017560 0.008959 -0.000694
v 0.017560 0.008958 -0.000698
v 0.017600 0.008958 -0.000698
v 0.017600 0.008959 -0.000696
v 0.017560 0.008647 -0.000504
v 0.017560 0.008648 -0.000502
v 0.017600 0.008647 -0.000504
v 0.017560 0.008648 -0.000502
v 0.017560 0.008649 -0.000500
v 0.017600 0.008648 -0.000502
v 0.017560 0.008649 -0.000500
v 0.017600 0.008649 -0.000500
v 0.017600 0.008648 -0.000502
v 0.017560 0.008650 -0.000499
v 0.017600 0.008650 -0.000499
v 0.017600 0.008649 -0.000500
v 0.017560 0.008651 -0.000498
v 0.017600 0.008650 -0.000499
v 0.017560 0.008650 -0.000499
v 0.017560 0.008653 -0.000497
v 0.017600 0.008651 -0.000498
v 0.017560 0.008651 -0.000498
v 0.017600 0.008653 -0.000497
v 0.017600 0.008651 -0.000498
v 0.017560 0.008653 -0.000497
v 0.017560 0.008657 -0.000496
v 0.017600 0.008657 -0.000496
v 0.017600 0.008655 -0.000496
v 0.017560 0.008657 -0.000496
v 0.017600 0.008655 -0.000496
v 0.017560 0.008655 -0.000496
v 0.017600 0.008655 -0.000496
v 0.017600 0.008653 -0.000497
v 0.017560 0.008655 -0.000496
v 0.017560 0.008647 -0.000504
v 0.017600 0.008647 -0.000504
v 0.017560 0.008647 -0.000506
v 0.017560 0.008653 -0.000497
v 0.017560 0.008655 -0.000496
v 0.017600 0.008653 -0.000497
v 0.017600 0.008647 -0.000504
v 0.017600 0.008647 -0.000506
v 0.017560 0.008647 -0.000506
v 0.017600 0.008647 -0.000504
v 0.017560 0.008648 -0.000502
v 0.017600 0.008648 -0.000502
v 0.017560 0.008649 -0.000500
v 0.017560 0.008650 -0.000499
v 0.017600 0.008649 -0.000500
v 0.017560 0.008651 -0.000498
v 0.017600 0.008651 -0.000498
v 0.017600 0.008650 -0.000499
v 0.017560 0.008613 -0.000800
v 0.017577 0.008613 -0.000800
v 0.017575 0.008611 -0.000800
v 0.017560 0.008611 -0.000800
v 0.017560 0.008613 -0.000800
v 0.017575 0.008611 -0.000800
v 0.017573 0.008609 -0.000799
v 0.017560 0.008611 -0.000800
v 0.017575 0.008611 -0.000800
v 0.017573 0.008609 -0.000799
v 0.017560 0.008609 -0.000799
v 0.017560 0.008611 -0.000800
v 0.017573 0.008609 -0.000799
v 0.017571 0.008607 -0.000798
v 0.017560 0.008609 -0.000799
v 0.017560 0.008609 -0.000799
v 0.017571 0.008607 -0.000798
v 0.017560 0.008607 -0.000798
v 0.017560 0.008607 -0.000798
v 0.017570 0.008606 -0.000797
v 0.017560 0.008606 -0.000797
v 0.017560 0.008603 -0.000790
v 0.017560 0.008603 -0.000792
v 0.017560 0.008603 -0.000792
v 0.017567 0.008603 -0.000792
v 0.017560 0.008603 -0.000792
v 0.017560 0.008604 -0.000794
v 0.017567 0.008603 -0.000792
v 0.017567 0.008603 -0.000792
v 0.017560 0.008604 -0.000794
v 0.017568 0.008604 -0.000794
v 0.017568 0.008604 -0.000794
v 0.017560 0.008604 -0.000794
v 0.017560 0.008605 -0.000796
v 0.017569 0.008605 -0.000796
v 0.017568 0.008604 -0.000794
v 0.017560 0.008605 -0.000796
v 0.017560 0.008606 -0.000797
v 0.017569 0.008605 -0.000796
v 0.017560 0.008605 -0.000796
v 0.017560 0.008606 -0.000797
v 0.017570 0.008606 -0.000797
v 0.017569 0.008605 -0.000796
v 0.017570 0.008606 -0.000797
v 0.017560 0.008607 -0.000798
v 0.017571 0.008607 -0.000798
v 0.017560 0.009003 -0.000790
v 0.017560 0.009003 -0.000792
v 0.017560 0.009003 -0.000792
v 0.017567 0.009003 -0.000792
v 0.017560 0.009002 -0.000794
v 0.017560 0.009003 -0.000792
v 0.017567 0.009003 -0.000792
v 0.017568 0.009002 -0.000794
v 0.017560 0.009002 -0.000794
v 0.017567 0.009003 -0.000792
v 0.017568 0.009002 -0.000794
v 0.017560 0.009001 -0.000796
v 0.017560 0.009002 -0.000794
v 0.017568 0.009002 -0.000794
v 0.017569 0.009001 -0.000796
v 0.017560 0.009001 -0.000796
v 0.017560 0.009001 -0.000796
v 0.017569 0.009001 -0.000796
v 0.017560 0.009000 -0.000797
v 0.017560 0.009000 -0.000797
v 0.017569 0.009001 -0.000796
v 0.017570 0.009000 -0.000797
v 0.017560 0.008999 -0.000798
v 0.017560 0.009000 -0.000797
v 0.017570 0.009000 -0.000797
v 0.017577 0.008993 -0.000800
v 0.017560 0.008993 -0.000800
v 0.017575 0.008995 -0.000800
v 0.017575 0.008995 -0.000800
v 0.017560 0.008993 -0.000800
v 0.017560 0.008995 -0.000800
v 0.017573 0.008997 -0.000799
v 0.017575 0.008995 -0.000800
v 0.017560 0.008995 -0.000800
v 0.017571 0.008999 -0.000798
v 0.017560 0.008997 -0.000799
v 0.017560 0.008999 -0.000798
v 0.017571 0.008999 -0.000798
v 0.017573 0.008997 -0.000799
v 0.017560 0.008997 -0.000799
v 0.017570 0.009000 -0.000797
v 0.017571 0.008999 -0.000798
v 0.017560 0.008999 -0.000798
v 0.017573 0.008997 -0.000799
v 0.017560 0.008995 -0.000800
v 0.017560 0.008997 -0.000799
v 0.017560 0.008655 -0.000704
v 0.017600 0.008655 -0.000704
v 0.017560 0.008657 -0.000704
v 0.017560 0.008653 -0.000703
v 0.017600 0.008655 -0.000704
v 0.017560 0.008655 -0.000704
v 0.017560 0.008651 -0.000702
v 0.017600 0.008653 -0.000703
v 0.017560 0.008653 -0.000703
v 0.017600 0.008651 -0.000702
v 0.017600 0.008653 -0.000703
v 0.017560 0.008651 -0.000702
v 0.017600 0.008650 -0.000701
v 0.017600 0.008651 -0.000702
v 0.017560 0.008650 -0.000701
v 0.017600 0.008650 -0.000701
v 0.017560 0.008650 -0.000701
v 0.017560 0.008649 -0.000700
v 0.017600 0.008649 -0.000700
v 0.017560 0.008649 -0.000700
v 0.017560 0.008648 -0.000698
v 0.017600 0.008647 -0.000694
v 0.017600 0.008647 -0.000696
v 0.017560 0.008647 -0.000694
v 0.017600 0.008647 -0.000696
v 0.017560 0.008647 -0.000696
v 0.017560 0.008647 -0.000694
v 0.017600 0.008648 -0.000698
v 0.017560 0.008647 -0.000696
v 0.017600 0.008647 -0.000696
v 0.017560 0.008648 -0.000698
v 0.017560 0.008647 -0.000696
v 0.017600 0.008648 -0.000698
v 0.017560 0.008648 -0.000698
v 0.017600 0.008648 -0.000698
v 0.017600 0.008649 -0.000700
v 0.017560 0.008649 -0.000700
v 0.017600 0.008649 -0.000700
v 0.017600 0.008650 -0.000701
v 0.017560 0.008651 -0.000702
v 0.017560 0.008650 -0.000701
v 0.017600 0.008651 -0.000702
v 0.017600 0.008655 -0.000704
v 0.017600 0.008657 -0.000704
v 0.017560 0.008657 -0.000704
v 0.017560 0.008653 -0.000703
v 0.017600 0.008653 -0.000703
v 0.017600 0.008655 -0.000704
v 0.017560 0.008613 -0.000643
v 0.017575 0.008611 -0.000643
v 0.017577 0.008613 -0.000643
v 0.017560 0.008613 -0.000643
v 0.017560 0.008611 -0.000643
v 0.017575 0.008611 -0.000643
v 0.017575 0.008611 -0.000643
v 0.017560 0.008611 -0.000643
v 0.017573 0.008609 -0.000644
v 0.017573 0.008609 -0.000644
v 0.017560 0.008611 -0.000643
v 0.017560 0.008609 -0.000644
v 0.017560 0.008607 -0.000645
v 0.017560 0.008606 -0.000646
v 0.017570 0.008606 -0.000646
v 0.017571 0.008607 -0.000645
v 0.017560 0.008609 -0.000644
v 0.017560 0.008607 -0.000645
v 0.017560 0.008606 -0.000646
v 0.017560 0.008605 -0.000647
v 0.017569 0.008605 -0.000647
v 0.017571 0.008607 -0.000645
v 0.017573 0.008609 -0.000644
v 0.017560 0.008609 -0.000644
v 0.017560 0.008603 -0.000651
v 0.017560 0.008603 -0.000653
v 0.017567 0.008603 -0.000651
v 0.017560 0.008603 -0.000651
v 0.017567 0.008603 -0.000651
v 0.017560 0.008604 -0.000649
v 0.017560 0.008603 -0.000651
v 0.017567 0.008603 -0.000651
v 0.017568 0.008604 -0.000649
v 0.017560 0.008604 -0.000649
v 0.017560 0.008604 -0.000649
v 0.017568 0.008604 -0.000649
v 0.017560 0.008605 -0.000647
v 0.017560 0.008605 -0.000647
v 0.017568 0.008604 -0.000649
v 0.017569 0.008605 -0.000647
v 0.017560 0.008606 -0.000646
v 0.017569 0.008605 -0.000647
v 0.017570 0.008606 -0.000646
v 0.017570 0.008606 -0.000646
v 0.017571 0.008607 -0.000645
v 0.017560 0.008607 -0.000645
v 0.017510 0.008833 -0.000620
v 0.017510 0.008833 -0.000580
v 0.017560 0.008833 -0.000620
v 0.017560 0.008833 -0.000580
v 0.017560 0.008833 -0.000620
v 0.017470 0.008826 -0.000620
v 0.017510 0.008833 -0.000620
v 0.017470 0.008823 -0.000620
v 0.017510 0.008833 -0.000620
v 0.017560 0.008823 -0.000620
v 0.017560 0.008833 -0.000620
v 0.017560 0.008823 -0.000620
v 0.017510 0.008833 -0.000620
v 0.017510 0.008823 -0.000630
v 0.017560 0.008823 -0.000620
v 0.017560 0.008823 -0.000630
v 0.017470 0.008823 -0.000620
v 0.017560 0.008823 -0.000620
v 0.017470 0.008823 -0.000620
v 0.017470 0.008823 -0.000623
v 0.017510 0.008783 -0.000630
v 0.017510 0.008823 -0.000630
v 0.017560 0.008783 -0.000630
v 0.017510 0.008823 -0.000630
v 0.017560 0.008823 -0.000630
v 0.017560 0.008783 -0.000630
v 0.017470 0.008783 -0.000623
v 0.017510 0.008783 -0.000630
v 0.017470 0.008783 -0.000620
v 0.017510 0.008783 -0.000630
v 0.017560 0.008783 -0.000620
v 0.017560 0.008783 -0.000630
v 0.017560 0.008783 -0.000620
v 0.017510 0.008783 -0.000630
v 0.017510 0.008773 -0.000620
v 0.017560 0.008783 -0.000620
v 0.017560 0.008773 -0.000620
v 0.017470 0.008783 -0.000620
v 0.017560 0.008783 -0.000620
v 0.017470 0.008783 -0.000620
v 0.017470 0.008780 -0.000620
v 0.017510 0.008773 -0.000580
v 0.017510 0.008773 -0.000620
v 0.017560 0.008773 -0.000580
v 0.017510 0.008773 -0.000620
v 0.017560 0.008773 -0.000620
v 0.017560 0.008773 -0.000580
v 0.017470 0.008780 -0.000580
v 0.017510 0.008773 -0.000580
v 0.017470 0.008783 -0.000580
v 0.017510 0.008773 -0.000580
v 0.017560 0.008783 -0.000580
v 0.017560 0.008773 -0.000580
v 0.017560 0.008783 -0.000580
v 0.017510 0.008773 -0.000580
v 0.017510 0.008783 -0.000570
v 0.017560 0.008783 -0.000580
v 0.017560 0.008783 -0.000570
v 0.017470 0.008783 -0.000580
v 0.017560 0.008783 -0.000580
v 0.017470 0.008783 -0.000580
v 0.017470 0.008783 -0.000577
v 0.017510 0.008823 -0.000570
v 0.017510 0.008783 -0.000570
v 0.017560 0.008823 -0.000570
v 0.017510 0.008783 -0.000570
v 0.017560 0.008783 -0.000570
v 0.017560 0.008823 -0.000570
v 0.017470 0.008823 -0.000577
v 0.017510 0.008823 -0.000570
v 0.017470 0.008823 -0.000580
v 0.017510 0.008823 -0.000570
v 0.017560 0.008823 -0.000580
v 0.017560 0.008823 -0.000570
v 0.017560 0.008823 -0.000580
v 0.017510 0.008823 -0.000570
v 0.017560 0.008799 -0.000580
v 0.017470 0.008799 -0.000580
v 0.017560 0.008803 -0.000580
v 0.017560 0.008795 -0.000582
v 0.017560 0.008792 -0.000583
v 0.017470 0.008795 -0.000582
v 0.017470 0.008792 -0.000583
v 0.017470 0.008789 -0.000586
v 0.017560 0.008789 -0.000586
v 0.017560 0.008786 -0.000589
v 0.017470 0.008786 -0.000589
v 0.017560 0.008785 -0.000592
v 0.017470 0.008785 -0.000592
v 0.017560 0.008783 -0.000596
v 0.017470 0.008783 -0.000596
v 0.017560 0.008783 -0.000600
v 0.017560 0.008783 -0.000604
v 0.017470 0.008783 -0.000600
v 0.017470 0.008783 -0.000604
v 0.017560 0.008785 -0.000608
v 0.017470 0.008785 -0.000608
v 0.017560 0.008786 -0.000611
v 0.017560 0.008789 -0.000614
v 0.017470 0.008786 -0.000611
v 0.017470 0.008789 -0.000614
v 0.017470 0.008792 -0.000617
v 0.017560 0.008792 -0.000617
v 0.017560 0.008795 -0.000618
v 0.017470 0.008795 -0.000618
v 0.017560 0.008799 -0.000620
v 0.017470 0.008799 -0.000620
v 0.017560 0.008803 -0.000620
v 0.017470 0.008803 -0.000620
v 0.017560 0.008807 -0.000620
v 0.017470 0.008807 -0.000620
v 0.017560 0.008811 -0.000618
v 0.017470 0.008811 -0.000618
v 0.017560 0.008814 -0.000617
v 0.017560 0.008823 -0.000600
v 0.017470 0.008823 -0.000600
v 0.017470 0.008823 -0.000604
v 0.017560 0.008823 -0.000596
v 0.017470 0.008823 -0.000596
v 0.017560 0.008821 -0.000592
v 0.017470 0.008821 -0.000592
v 0.017560 0.008820 -0.000589
v 0.017470 0.008820 -0.000589
v 0.017560 0.008817 -0.000586
v 0.017560 0.008814 -0.000583
v 0.017470 0.008817 -0.000586
v 0.017470 0.008814 -0.000583
v 0.017470 0.008811 -0.000582
v 0.017560 0.008811 -0.000582
v 0.017470 0.008807 -0.000580
v 0.017560 0.008807 -0.000580
v 0.017470 0.008803 -0.000580
v 0.017560 0.008823 -0.000604
v 0.017470 0.008821 -0.000608
v 0.017560 0.008821 -0.000608
v 0.017470 0.008820 -0.000611
v 0.017560 0.008820 -0.000611
v 0.017470 0.008817 -0.000614
v 0.017560 0.008817 -0.000614
v 0.017470 0.008814 -0.000617
v 0.017510 0.008833 -0.000580
v 0.017560 0.008823 -0.000580
v 0.017560 0.008833 -0.000580
v 0.017470 0.008823 -0.000580
v 0.017560 0.008823 -0.000580
v 0.017510 0.008833 -0.000580
v 0.017470 0.008823 -0.000580
v 0.017510 0.008833 -0.000580
v 0.017470 0.008826 -0.000580
v 0.017470 0.008803 -0.000577
v 0.017470 0.008803 -0.000580
v 0.017470 0.008799 -0.000580
v 0.017470 0.008826 -0.000620
v 0.017470 0.008823 -0.000620
v 0.017470 0.008820 -0.000611
v 0.017470 0.008826 -0.000580
v 0.017470 0.008821 -0.000592
v 0.017470 0.008820 -0.000589
v 0.017470 0.008811 -0.000582
v 0.017470 0.008807 -0.000580
v 0.017470 0.008823 -0.000577
v 0.017470 0.008814 -0.000583
v 0.017470 0.008811 -0.000582
v 0.017470 0.008783 -0.000577
v 0.017470 0.008795 -0.000582
v 0.017470 0.008792 -0.000583
v 0.017470 0.008780 -0.000600
v 0.017470 0.008785 -0.000592
v 0.017470 0.008783 -0.000596
v 0.017470 0.008780 -0.000580
v 0.017470 0.008786 -0.000589
v 0.017470 0.008785 -0.000592
v 0.017470 0.008780 -0.000620
v 0.017470 0.008785 -0.000608
v 0.017470 0.008786 -0.000611
v 0.017470 0.008803 -0.000623
v 0.017470 0.008795 -0.000618
v 0.017470 0.008799 -0.000620
v 0.017470 0.008783 -0.000623
v 0.017470 0.008792 -0.000617
v 0.017470 0.008795 -0.000618
v 0.017470 0.008823 -0.000623
v 0.017470 0.008811 -0.000618
v 0.017470 0.008814 -0.000617
v 0.017470 0.008823 -0.000620
v 0.017470 0.008814 -0.000617
v 0.017470 0.008817 -0.000614
v 0.017470 0.008823 -0.000620
v 0.017470 0.008817 -0.000614
v 0.017470 0.008820 -0.000611
v 0.017470 0.008807 -0.000580
v 0.017470 0.008803 -0.000580
v 0.017470 0.008823 -0.000577
v 0.017470 0.008811 -0.000582
v 0.017470 0.008820 -0.000589
v 0.017470 0.008823 -0.000580
v 0.017470 0.008826 -0.000580
v 0.017470 0.008814 -0.000583
v 0.017470 0.008823 -0.000577
v 0.017470 0.008823 -0.000580
v 0.017470 0.008817 -0.000586
v 0.017470 0.008814 -0.000583
v 0.017470 0.008823 -0.000580
v 0.017470 0.008820 -0.000589
v 0.017470 0.008817 -0.000586
v 0.017470 0.008823 -0.000580
v 0.017470 0.008821 -0.000592
v 0.017470 0.008826 -0.000580
v 0.017470 0.008826 -0.000600
v 0.017470 0.008823 -0.000596
v 0.017470 0.008821 -0.000592
v 0.017470 0.008823 -0.000604
v 0.017470 0.008823 -0.000600
v 0.017470 0.008826 -0.000620
v 0.017470 0.008821 -0.000608
v 0.017470 0.008821 -0.000608
v 0.017470 0.008823 -0.000604
v 0.017470 0.008820 -0.000611
v 0.017470 0.008821 -0.000608
v 0.017470 0.008826 -0.000620
v 0.017470 0.008814 -0.000617
v 0.017470 0.008823 -0.000620
v 0.017470 0.008823 -0.000623
v 0.017470 0.008823 -0.000600
v 0.017470 0.008823 -0.000596
v 0.017470 0.008807 -0.000620
v 0.017470 0.008811 -0.000618
v 0.017470 0.008799 -0.000620
v 0.017470 0.008803 -0.000620
v 0.017470 0.008783 -0.000623
v 0.017470 0.008795 -0.000618
v 0.017470 0.008786 -0.000611
v 0.017470 0.008783 -0.000620
v 0.017470 0.008780 -0.000620
v 0.017470 0.008792 -0.000617
v 0.017470 0.008783 -0.000623
v 0.017470 0.008783 -0.000620
v 0.017470 0.008789 -0.000614
v 0.017470 0.008792 -0.000617
v 0.017470 0.008783 -0.000620
v 0.017470 0.008786 -0.000611
v 0.017470 0.008789 -0.000614
v 0.017470 0.008783 -0.000620
v 0.017470 0.008785 -0.000608
v 0.017470 0.008780 -0.000620
v 0.017470 0.008783 -0.000604
v 0.017470 0.008785 -0.000608
v 0.017470 0.008783 -0.000596
v 0.017470 0.008783 -0.000600
v 0.017470 0.008780 -0.000580
v 0.017470 0.008785 -0.000592
v 0.017470 0.008792 -0.000583
v 0.017470 0.008783 -0.000580
v 0.017470 0.008783 -0.000577
v 0.017470 0.008786 -0.000589
v 0.017470 0.008780 -0.000580
v 0.017470 0.008783 -0.000580
v 0.017470 0.008789 -0.000586
v 0.017470 0.008786 -0.000589
v 0.017470 0.008783 -0.000580
v 0.017470 0.008792 -0.000583
v 0.017470 0.008789 -0.000586
v 0.017470 0.008783 -0.000580
v 0.017470 0.008795 -0.000582
v 0.017470 0.008783 -0.000577
v 0.017470 0.008803 -0.000620
v 0.017470 0.008807 -0.000620
v 0.017470 0.008799 -0.000580
v 0.017470 0.008795 -0.000582
v 0.017470 0.008811 -0.000618
v 0.017470 0.008823 -0.000623
v 0.017470 0.008783 -0.000600
v 0.017470 0.008783 -0.000604
v 0.017560 0.008795 -0.000582
v 0.017560 0.008799 -0.000580
v 0.017560 0.008803 -0.000580
v 0.017560 0.008792 -0.000583
v 0.017560 0.008795 -0.000582
v 0.017560 0.008803 -0.000580
v 0.017560 0.008789 -0.000586
v 0.017560 0.008792 -0.000583
v 0.017560 0.008803 -0.000580
v 0.017560 0.008786 -0.000589
v 0.017560 0.008789 -0.000586
v 0.017560 0.008803 -0.000580
v 0.017560 0.008785 -0.000592
v 0.017560 0.008803 -0.000580
v 0.017560 0.008783 -0.000596
v 0.017560 0.008785 -0.000592
v 0.017560 0.008786 -0.000589
v 0.017560 0.008803 -0.000580
v 0.017560 0.008783 -0.000596
v 0.017560 0.008803 -0.000580
v 0.017560 0.008783 -0.000600
v 0.017560 0.008783 -0.000600
v 0.017560 0.008803 -0.000580
v 0.017560 0.008783 -0.000604
v 0.017560 0.008803 -0.000580
v 0.017560 0.008785 -0.000608
v 0.017560 0.008783 -0.000604
v 0.017560 0.008803 -0.000580
v 0.017560 0.008786 -0.000611
v 0.017560 0.008785 -0.000608
v 0.017560 0.008803 -0.000580
v 0.017560 0.008789 -0.000614
v 0.017560 0.008786 -0.000611
v 0.017560 0.008795 -0.000618
v 0.017560 0.008792 -0.000617
v 0.017560 0.008803 -0.000580
v 0.017560 0.008803 -0.000580
v 0.017560 0.008792 -0.000617
v 0.017560 0.008789 -0.000614
v 0.017560 0.008799 -0.000620
v 0.017560 0.008803 -0.000580
v 0.017560 0.008803 -0.000620
v 0.017560 0.008803 -0.000620
v 0.017560 0.008803 -0.000580
v 0.017560 0.008807 -0.000620
v 0.017560 0.008803 -0.000580
v 0.017560 0.008811 -0.000618
v 0.017560 0.008807 -0.000620
v 0.017560 0.008803 -0.000580
v 0.017560 0.008814 -0.000617
v 0.017560 0.008811 -0.000618
v 0.017560 0.008803 -0.000580
v 0.017560 0.008817 -0.000614
v 0.017560 0.008814 -0.000617
v 0.017560 0.008821 -0.000608
v 0.017560 0.008820 -0.000611
v 0.017560 0.008803 -0.000580
v 0.017560 0.008803 -0.000580
v 0.017560 0.008820 -0.000611
v 0.017560 0.008817 -0.000614
v 0.017560 0.008823 -0.000604
v 0.017560 0.008821 -0.000608
v 0.017560 0.008803 -0.000580
v 0.017560 0.008823 -0.000600
v 0.017560 0.008823 -0.000604
v 0.017560 0.008803 -0.000580
v 0.017560 0.008823 -0.000600
v 0.017560 0.008803 -0.000580
v 0.017560 0.008823 -0.000596
v 0.017560 0.008823 -0.000596
v 0.017560 0.008803 -0.000580
v 0.017560 0.008821 -0.000592
v 0.017560 0.008821 -0.000592
v 0.017560 0.008803 -0.000580
v 0.017560 0.008820 -0.000589
v 0.017560 0.008803 -0.000580
v 0.017560 0.008814 -0.000583
v 0.017560 0.008817 -0.000586
v 0.017560 0.008820 -0.000589
v 0.017560 0.008803 -0.000580
v 0.017560 0.008817 -0.000586
v 0.017560 0.008803 -0.000580
v 0.017560 0.008811 -0.000582
v 0.017560 0.008814 -0.000583
v 0.017560 0.008803 -0.000580
v 0.017560 0.008799 -0.000620
v 0.017560 0.008795 -0.000618
v 0.017560 0.008807 -0.000580
v 0.017560 0.008811 -0.000582
v 0.017560 0.008803 -0.000580
v 0.017470 0.008803 -0.000623
v 0.017470 0.008823 -0.000623
v 0.017510 0.008823 -0.000630
v 0.017470 0.008783 -0.000623
v 0.017470 0.008803 -0.000623
v 0.017470 0.008803 -0.000623
v 0.017510 0.008823 -0.000630
v 0.017470 0.008780 -0.000600
v 0.017470 0.008780 -0.000620
v 0.017510 0.008773 -0.000620
v 0.017470 0.008780 -0.000580
v 0.017470 0.008780 -0.000600
v 0.017470 0.008780 -0.000600
v 0.017510 0.008773 -0.000620
v 0.017470 0.008803 -0.000577
v 0.017470 0.008783 -0.000577
v 0.017510 0.008783 -0.000570
v 0.017470 0.008823 -0.000577
v 0.017470 0.008803 -0.000577
v 0.017470 0.008803 -0.000577
v 0.017510 0.008783 -0.000570
v 0.017470 0.008826 -0.000600
v 0.017470 0.008826 -0.000580
v 0.017470 0.008826 -0.000620
v 0.017470 0.008826 -0.000600
v 0.017470 0.008826 -0.000600
v 0.017530 0.008843 -0.000778
v 0.017560 0.008803 -0.000778
v 0.017530 0.008763 -0.000778
v 0.017560 0.008803 -0.000778
v 0.017560 0.008763 -0.000778
v 0.017560 0.008803 -0.000778
v 0.017560 0.008843 -0.000778
v 0.017530 0.008843 -0.000758
v 0.017560 0.008843 -0.000758
v 0.017530 0.008843 -0.000778
v 0.017530 0.008843 -0.000778
v 0.017560 0.008843 -0.000758
v 0.017560 0.008843 -0.000778
v 0.017530 0.008763 -0.000758
v 0.017560 0.008763 -0.000758
v 0.017530 0.008843 -0.000758
v 0.017530 0.008843 -0.000758
v 0.017560 0.008763 -0.000758
v 0.017560 0.008843 -0.000758
v 0.017530 0.008763 -0.000778
v 0.017560 0.008763 -0.000778
v 0.017530 0.008763 -0.000758
v 0.017530 0.008763 -0.000758
v 0.017560 0.008763 -0.000778
v 0.017560 0.008763 -0.000758
v 0.017530 0.008763 -0.000778
v 0.017530 0.008763 -0.000758
v 0.017530 0.008843 -0.000778
v 0.017530 0.008763 -0.000758
v 0.017530 0.008843 -0.000758
v 0.017530 0.008843 -0.000778
v 0.017600 0.008803 -0.000403
v 0.017573 0.008803 -0.000406
v 0.017600 0.008636 -0.000403
v 0.017600 0.008970 -0.000403
v 0.017573 0.008997 -0.000406
v 0.017600 0.008970 -0.000403
v 0.017600 0.008803 -0.000403
v 0.017573 0.008609 -0.000406
v 0.017600 0.008636 -0.000403
v 0.017573 0.008609 -0.000400
v 0.017573 0.008803 -0.000406
v 0.017573 0.008803 -0.000400
v 0.017573 0.008609 -0.000400
v 0.017573 0.008609 -0.000406
v 0.017573 0.008803 -0.000406
v 0.017573 0.008997 -0.000400
v 0.017573 0.008803 -0.000406
v 0.017573 0.008997 -0.000406
v 0.017573 0.008803 -0.000406
v 0.017573 0.008997 -0.000400
v 0.017573 0.008803 -0.000400
vn 1.0000 -0.0000 -0.0000
vn 1.0000 -0.0001 -0.0000
vn 1.0000 0.0001 -0.0000
vn 1.0000 0.0003 -0.0000
vn 1.0000 0.0002 -0.0000
vn 1.0000 -0.0002 -0.0000
vn 0.7070 -0.7072 0.0001
vn 0.7069 -0.7073 0.0002
vn 0.7071 -0.7071 0.0001
vn 0.7071 -0.7071 -0.0000
vn 0.7069 -0.7073 -0.0000
vn 0.7071 -0.7072 -0.0000
vn 0.7070 -0.7072 -0.0000
vn 0.7070 -0.7073 -0.0000
vn -0.0000 -0.0000 1.0000
vn 0.7071 0.7072 -0.0000
vn 0.7071 0.7071 -0.0000
vn 0.7072 0.7070 0.0001
vn 0.7070 0.7072 0.0001
vn 0.7070 0.7072 0.0003
vn 0.7072 0.7071 -0.0000
vn 0.7070 0.7072 -0.0000
vn -1.0000 -0.0000 -0.0000
vn -1.0000 -0.0001 -0.0000
vn -1.0000 0.0001 -0.0000
vn -1.0000 -0.0002 -0.0000
vn -1.0000 0.0002 -0.0000
vn -0.0000 -1.0000 -0.0000
vn 0.7071 -0.7071 0.0002
vn 0.7072 -0.7070 -0.0000
vn 0.7071 -0.7071 -0.0001
vn 0.7072 -0.7070 0.0002
vn -0.0000 1.0000 -0.0000
vn 0.7070 0.7072 -0.0001
vn 0.7071 0.7071 -0.0001
vn 0.7072 0.7070 -0.0000
vn 0.7074 0.7068 0.0002
vn -0.0000 -0.0000 -1.0000
vn -0.0000 0.0980 0.9952
vn -0.0000 0.1951 0.9808
vn -0.0000 0.2903 0.9569
vn -0.0000 0.3827 0.9239
vn -0.0000 0.4714 0.8819
vn -0.0000 0.5555 0.8315
vn -0.0000 0.5556 0.8315
vn -0.0000 0.6344 0.7730
vn -0.0000 0.5556 0.8314
vn -0.0000 0.7071 0.7071
vn -0.0000 0.7069 0.7073
vn -0.0000 0.7730 0.6344
vn -0.0000 0.7072 0.7070
vn -0.0000 0.8315 0.5556
vn -0.0000 0.8315 0.5555
vn -0.0000 0.8819 0.4714
vn -0.0000 0.9239 0.3827
vn -0.0000 0.9952 0.0980
vn -0.0000 0.9808 0.1951
vn -0.0000 0.9569 0.2903
vn -0.0000 0.8314 0.5556
vn -0.0000 0.9952 -0.0980
vn -0.0000 0.9808 -0.1951
vn -0.0000 0.9569 -0.2903
vn -0.0000 0.9239 -0.3827
vn -0.0000 0.8819 -0.4714
vn -0.0000 0.8315 -0.5555
vn -0.0000 0.7730 -0.6344
vn -0.0000 0.8314 -0.5556
vn -0.0000 0.7072 -0.7070
vn -0.0000 0.7071 -0.7071
vn -0.0000 0.6344 -0.7730
vn -0.0000 0.5556 -0.8314
vn -0.0000 0.5556 -0.8315
vn -0.0000 0.4714 -0.8819
vn -0.0000 0.3827 -0.9239
vn -0.0000 0.0980 -0.9952
vn -0.0000 0.1951 -0.9808
vn -0.0000 0.2903 -0.9569
vn -0.0000 0.7069 -0.7073
vn -0.0000 0.8315 -0.5556
vn -0.0000 -0.0980 0.9952
vn -0.0000 -0.1951 0.9808
vn -0.0000 -0.2903 0.9569
vn -0.0000 -0.3827 0.9239
vn -0.0000 -0.4714 0.8819
vn -0.0000 -0.5556 0.8315
vn -0.0000 -0.5555 0.8315
vn -0.0000 -0.5556 0.8314
vn -0.0000 -0.6344 0.7730
vn -0.0000 -0.7730 0.6344
vn -0.0000 -0.8315 0.5556
vn -0.0000 -0.8314 0.5556
vn -0.0000 -0.8315 0.5555
vn -0.0000 -0.8819 0.4714
vn -0.0000 -0.9952 0.0980
vn -0.0000 -1.0000 0.0001
vn -0.0000 -0.9808 0.1951
vn -0.0000 -0.9569 0.2903
vn -0.0000 -0.9239 0.3827
vn -0.0000 -0.7071 0.7071
vn -0.0000 -0.7072 0.7070
vn -0.0000 -1.0000 -0.0001
vn -0.0000 -0.9952 -0.0980
vn -0.0000 -0.9808 -0.1951
vn -0.0000 -0.9569 -0.2903
vn -0.0000 -0.9239 -0.3827
vn -0.0000 -0.8819 -0.4714
vn -0.0000 -0.8315 -0.5555
vn -0.0000 -0.7730 -0.6344
vn -0.0000 -0.8314 -0.5556
vn -0.0000 -0.7071 -0.7071
vn -0.0000 -0.6344 -0.7730
vn -0.0000 -0.5556 -0.8314
vn -0.0000 -0.5556 -0.8315
vn -0.0000 -0.4714 -0.8819
vn -0.0000 -0.3827 -0.9239
vn -0.0000 -0.0980 -0.9952
vn -0.0000 -0.1951 -0.9808
vn -0.0000 -0.2903 -0.9569
vn -0.0000 -0.5555 -0.8315
vn -0.0000 -0.7072 -0.7070
vn -0.0000 -0.8315 -0.5556
vn -0.0000 -0.9808 -0.1950
vn -0.0000 -0.9808 -0.1952
vn -0.0000 -0.7068 -0.7074
vn -0.0000 -0.8314 -0.5557
vn -0.0000 -0.7070 -0.7072
vn -0.0000 -0.7073 -0.7069
vn -0.0000 -0.1950 -0.9808
vn -0.0000 -0.3826 -0.9239
vn -0.0000 -0.7069 -0.7073
vn -0.0000 0.1950 -0.9808
vn -0.0000 0.1952 -0.9808
vn -0.0000 0.3826 -0.9239
vn -0.0000 0.7075 -0.7067
vn -0.0000 0.5555 -0.8315
vn -0.0000 0.7068 -0.7074
vn -0.0000 0.8314 -0.5557
vn -0.0000 0.9808 -0.1950
vn -0.0000 0.9808 -0.1952
vn -0.0000 0.7074 -0.7069
vn -0.0000 0.9808 0.1950
vn -0.0000 0.9808 0.1952
vn -0.0000 0.7068 0.7074
vn -0.0000 0.8314 0.5557
vn -0.0000 0.7075 0.7067
vn -0.0000 0.7074 0.7069
vn -0.0000 0.1950 0.9808
vn -0.0000 0.1952 0.9808
vn -0.0000 0.3826 0.9239
vn -0.0000 -0.1952 -0.9808
vn -0.0000 -0.5557 -0.8314
vn -0.0000 -0.9239 -0.3826
vn -0.0000 -0.7075 -0.7067
vn -0.0000 -0.9808 0.1952
vn -0.0000 -0.9239 0.3826
vn -0.0000 -0.7070 0.7072
vn -0.0000 -0.8314 0.5557
vn -0.0000 -0.5557 0.8314
vn -0.0000 -0.7069 0.7073
vn -0.0000 -0.9808 0.1950
vn -0.0000 -0.1950 0.9808
vn -0.0000 -0.3826 0.9239
vn -0.0000 -0.1952 0.9808
vn -0.0000 0.9239 -0.3826
vn -0.0000 0.7070 -0.7072
vn -0.0000 0.5557 -0.8314
vn -0.0000 0.7070 0.7072
vn -0.0000 0.5557 0.8314
vn -0.0000 0.9239 0.3826
vn -0.0000 -0.7068 0.7074
vn -0.0000 -0.7073 0.7069
vn -0.0000 1.0000 -0.0001
vn -0.0000 1.0000 0.0001
vn -0.0000 0.3828 -0.9238
vn -0.0000 0.9238 -0.3828
vn -0.0000 0.9238 0.3828
vn -0.0000 0.7072 0.7071
vn -0.0000 0.3828 0.9238
vn -0.0000 -0.9238 -0.3828
vn -0.0000 -0.9238 0.3828
vn -0.1724 -0.0000 -0.9850
vn -0.0001 -0.0000 -1.0000
vn -0.1724 -0.9850 -0.0000
vn -0.0001 -1.0000 -0.0000
vn -0.1724 -0.0000 0.9850
vn -0.0001 -0.0000 1.0000
vn -0.1724 0.9850 -0.0000
vn -0.1104 -0.0000 0.9939
s 1
usemtl Diffuse_51_51_51_100.031
f 1//1 2//1 3//1
f 4//2 5//3 6//1
f 7//3 8//1 9//2
f 10//1 11//1 12//1
f 13//1 14//2 15//1
f 3//1 16//4 1//1
f 3//1 2//1 17//1
f 18//3 13//1 1//1
f 19//1 1//1 16//4
f 20//1 1//1 19//1
f 21//1 1//1 20//1
f 22//1 1//1 21//1
f 23//5 1//1 22//1
f 1//1 23//5 24//3
f 1//1 24//3 25//1
f 1//1 25//1 26//1
f 1//1 26//1 18//3
f 13//1 18//3 27//1
f 13//1 27//1 28//2
f 13//1 28//2 29//3
f 13//1 29//3 30//2
f 13//1 30//2 14//2
f 31//1 14//2 32//3
f 14//2 33//1 32//3
f 34//1 35//1 36//1
f 33//1 35//1 34//1
f 36//1 37//1 38//1
f 38//1 39//1 40//1
f 39//1 41//1 40//1
f 41//1 42//1 43//1
f 42//1 44//1 43//1
f 45//1 46//1 47//1
f 45//1 47//1 48//1
f 48//1 49//1 50//1
f 51//1 50//1 49//1
f 52//1 53//1 51//1
f 54//1 53//1 52//1
f 55//1 54//1 56//1
f 55//1 56//1 57//1
f 58//1 57//1 59//1
f 60//1 61//1 62//1
f 61//1 59//1 62//1
f 60//1 62//1 63//1
f 58//1 59//1 61//1
f 64//1 65//1 66//1
f 67//1 65//1 64//1
f 68//1 69//1 70//1
f 69//1 71//1 70//1
f 72//1 4//2 68//1
f 68//1 73//1 74//2
f 75//1 4//2 72//1
f 76//1 73//1 68//1
f 77//1 4//2 75//1
f 78//1 4//2 77//1
f 79//3 4//2 78//1
f 80//2 4//2 79//3
f 4//2 80//2 81//2
f 76//1 68//1 82//1
f 4//2 83//3 84//4
f 85//1 86//1 63//1
f 85//1 65//1 67//1
f 85//1 67//1 86//1
f 63//1 86//1 60//1
f 5//3 4//2 87//1
f 9//2 88//1 7//3
f 9//2 8//1 89//1
f 90//2 91//1 7//3
f 92//1 7//3 88//1
f 93//2 7//3 92//1
f 94//1 7//3 93//2
f 95//1 7//3 94//1
f 96//6 7//3 95//1
f 7//3 96//6 97//2
f 7//3 97//2 98//1
f 7//3 98//1 99//1
f 7//3 99//1 90//2
f 91//1 90//2 100//1
f 91//1 100//1 101//3
f 91//1 101//3 102//2
f 91//1 102//2 103//6
f 91//1 103//6 69//1
f 91//1 69//1 68//1
f 70//1 82//1 68//1
f 4//2 81//2 83//3
f 84//4 87//1 4//2
f 6//1 5//3 104//1
f 66//1 70//1 71//1
f 66//1 71//1 64//1
f 32//3 33//1 34//1
f 57//1 58//1 55//1
f 56//1 54//1 52//1
f 51//1 53//1 50//1
f 47//1 49//1 48//1
f 105//1 46//1 45//1
f 44//1 42//1 106//1
f 44//1 106//1 105//1
f 43//1 40//1 41//1
f 39//1 38//1 37//1
f 37//1 36//1 35//1
f 107//2 31//1 32//3
f 108//1 31//1 107//2
f 109//1 31//1 108//1
f 31//1 109//1 110//1
f 31//1 111//2 10//1
f 111//2 112//1 10//1
f 113//1 10//1 114//1
f 10//1 115//1 114//1
f 116//1 10//1 113//1
f 117//3 10//1 116//1
f 10//1 117//3 118//1
f 10//1 118//1 119//1
f 112//1 115//1 10//1
f 31//1 110//1 111//2
f 74//2 72//1 68//1
f 120//1 10//1 119//1
f 106//1 46//1 105//1
f 11//1 10//1 120//1
f 11//1 121//1 12//1
f 15//1 14//2 31//1
f 122//7 123//8 124//9
f 124//9 123//8 125//9
f 126//10 122//7 124//9
f 124//9 127//10 128//11
f 129//10 130//10 124//9
f 124//9 130//10 127//10
f 131//12 129//10 124//9
f 124//10 132//10 133//13
f 133//10 134//10 135//10
f 133//13 136//13 137//14
f 124//10 133//13 137//14
f 126//10 124//9 128//11
f 138//10 124//10 139//10
f 140//15 141//15 142//15
f 141//15 140//15 143//15
f 143//15 144//15 145//15
f 143//15 146//15 147//15
f 143//15 145//15 141//15
f 148//16 149//17 150//17
f 149//17 151//17 150//17
f 150//17 152//17 153//17
f 154//17 150//18 155//19
f 154//17 156//17 150//18
f 150//18 157//17 158//17
f 150//18 159//20 157//17
f 160//21 150//18 158//17
f 155//19 150//18 161//17
f 162//17 149//17 163//17
f 164//16 150//18 160//21
f 159//20 150//18 156//17
f 149//22 165//22 166//22
f 167//23 168//23 169//23
f 170//23 171//24 172//25
f 170//23 173//23 174//23
f 175//24 176//23 177//24
f 178//23 179//23 180//23
f 180//23 179//23 181//23
f 182//23 183//23 176//23
f 184//23 181//23 185//23
f 186//23 184//23 187//23
f 181//23 184//23 180//23
f 188//23 189//23 184//23
f 185//23 190//23 184//23
f 174//23 191//23 192//23
f 193//24 170//23 192//23
f 184//23 194//23 180//23
f 195//23 196//23 197//23
s 0
f 198//23 195//23 197//23
s 1
f 199//25 198//23 197//24
f 200//23 199//25 197//24
f 201//23 200//23 197//24
f 202//23 201//23 197//24
f 203//24 202//23 197//24
f 203//24 169//23 168//23
f 204//24 205//23 206//23
f 204//24 207//23 205//23
f 205//23 207//23 208//23
f 209//26 205//23 208//23
f 209//26 210//24 205//23
f 211//25 210//24 212//24
f 210//24 213//23 214//27
f 210//24 215//27 216//23
f 210//24 217//23 215//27
f 218//23 219//24 220//23
f 221//23 218//23 222//23
f 221//23 223//23 218//23
f 221//23 224//23 223//23
f 221//23 225//27 224//23
s 0
f 226//23 221//23 227//23
s 1
f 226//23 228//23 221//23
f 229//23 227//23 221//23
f 219//24 218//23 210//24
f 221//23 222//23 230//23
f 231//23 219//24 210//24
f 232//23 231//23 210//24
f 233//23 232//23 210//24
f 234//23 233//23 210//24
f 210//24 209//26 234//23
f 210//24 211//25 213//23
f 210//24 216//23 212//24
f 206//23 235//25 236//24
f 236//24 235//25 237//23
f 237//23 235//25 238//23
f 238//23 235//25 239//23
f 240//25 241//25 235//25
f 235//25 241//25 242//23
f 243//26 235//25 244//23
f 244//23 235//25 172//25
f 172//25 235//25 170//23
f 170//23 235//25 176//23
f 176//23 235//25 177//24
f 171//24 170//23 245//23
f 174//23 192//23 170//23
f 176//23 179//23 178//23
f 246//23 186//23 191//23
f 190//23 188//23 184//23
f 191//23 186//23 247//23
f 189//23 248//24 184//23
f 249//23 247//23 186//23
f 187//23 184//23 248//24
f 170//23 193//24 250//23
f 186//23 251//23 252//24
f 253//23 186//23 252//24
f 186//23 254//23 251//23
f 253//23 249//23 186//23
f 255//23 256//23 257//23
f 258//23 255//23 257//23
f 259//23 260//23 261//23
f 261//23 260//23 262//23
f 263//23 264//23 265//23
f 266//23 267//23 268//23
f 269//26 270//26 271//26
f 268//23 272//23 273//23
f 273//23 274//23 275//23
f 275//23 276//23 277//23
f 277//23 278//23 279//23
f 279//23 280//23 281//23
f 263//24 259//24 282//24
f 283//23 281//23 284//23
f 285//23 283//24 286//23
f 287//23 259//23 261//23
f 288//23 254//23 187//23
f 288//23 258//23 257//23
f 288//23 187//23 258//23
f 254//23 186//23 187//23
f 246//23 289//23 186//23
f 206//23 236//24 204//24
f 256//23 255//23 262//23
f 239//23 235//25 242//23
f 260//23 256//23 262//23
f 214//27 205//23 210//24
f 176//23 290//23 291//25
f 221//23 228//23 225//27
f 292//25 293//23 294//23
f 292//25 285//23 293//23
f 285//23 295//27 293//23
f 220//23 222//23 218//23
f 296//23 285//23 297//23
f 298//23 299//25 300//23
f 301//25 298//23 302//23
f 301//25 303//23 298//23
f 301//25 304//23 303//23
f 301//25 305//23 304//23
f 306//23 301//25 307//23
f 306//23 308//27 301//25
s 0
f 309//23 307//23 301//23
s 1
f 299//25 298//23 310//23
f 301//25 302//23 311//23
f 312//23 299//23 313//23
f 314//23 312//23 315//23
f 316//23 314//23 317//23
f 318//23 316//23 319//23
f 320//25 321//25 318//25
f 322//23 323//23 324//23
f 325//23 326//23 323//23
f 327//24 328//24 329//24
f 330//24 331//24 328//24
f 332//25 287//25 331//25
f 333//23 334//23 287//23
f 335//23 266//23 270//23
f 285//23 336//24 283//24
f 337//23 259//23 287//23
f 285//23 292//25 336//24
f 285//23 338//23 295//27
f 285//23 339//26 338//23
f 285//23 340//23 341//23
f 285//23 296//23 340//23
f 341//23 339//26 285//23
f 246//23 191//23 174//23
f 245//23 170//23 250//23
f 291//25 179//23 176//23
f 183//23 290//23 176//23
f 176//23 178//23 342//23
f 343//27 344//24 177//24
f 177//24 344//24 345//23
f 346//23 343//27 177//24
f 347//25 346//23 177//24
f 175//24 177//24 345//23
f 177//24 348//25 347//25
f 177//24 349//23 348//25
f 177//24 350//24 349//23
f 169//23 351//25 177//24
f 169//23 352//25 351//25
f 169//23 203//24 352//25
f 352//25 203//24 353//23
f 354//23 355//25 197//24
f 203//24 355//25 356//23
f 357//23 197//24 358//23
f 357//23 354//23 197//24
f 358//23 197//24 359//23
f 359//23 197//24 360//25
f 360//25 197//24 361//23
f 353//23 203//24 356//23
f 362//23 361//23 363//23
f 177//24 351//25 350//24
f 363//23 364//23 365//23
f 361//23 366//23 364//23
f 367//25 271//25 265//25
f 182//23 176//23 175//24
f 368//23 324//23 321//23
f 369//27 329//27 326//27
f 370//24 366//23 361//23
f 371//23 361//23 372//23
f 371//23 370//24 361//23
f 372//23 361//23 373//23
f 308//27 305//23 301//25
f 361//23 364//23 363//23
f 300//23 302//23 298//23
f 374//23 361//23 375//23
f 197//24 355//25 203//24
f 167//23 206//23 168//23
f 240//25 235//25 243//26
f 168//23 206//23 205//23
f 361//23 362//23 360//25
s 0
f 373//23 361//23 374//23
s 1
f 376//28 377//28 378//28
f 379//28 377//28 380//28
f 381//28 382//28 383//28
f 384//28 385//28 386//28
f 387//10 388//10 389//10
f 390//10 391//10 392//10
f 393//29 394//29 395//29
f 396//10 397//10 398//10
f 398//30 399//30 400//30
f 401//10 402//10 400//10
f 403//10 404//10 405//10
f 406//10 404//10 402//10
f 407//13 403//13 408//13
f 409//10 396//10 393//10
f 410//12 411//12 412//12
f 413//31 414//31 415//31
f 416//10 417//10 415//10
f 416//10 418//10 419//10
f 420//10 421//10 422//10
f 423//32 418//32 424//32
f 425//12 426//12 427//12
f 427//10 428//10 422//10
f 429//10 424//10 421//10
f 430//33 431//33 432//33
f 433//33 431//33 434//33
f 435//17 436//17 437//17
f 438//17 439//17 440//17
f 441//17 442//17 443//17
f 444//17 445//17 446//17
f 446//22 447//22 448//22
f 449//17 450//17 448//17
f 451//17 452//17 453//17
f 454//17 452//17 450//17
f 455//16 451//16 456//16
f 457//34 444//34 441//34
f 458//17 459//17 460//17
f 461//35 462//35 463//35
f 464//16 465//16 463//16
f 464//36 466//36 467//36
f 468//17 469//17 470//17
f 471//37 466//37 472//37
f 473//22 474//22 475//22
f 475//17 476//17 470//17
f 477//17 472//17 469//17
f 478//38 479//38 480//38
f 481//38 482//38 483//38
f 484//38 485//38 486//38
f 487//38 488//38 489//38
f 490//38 491//38 492//38
f 493//33 494//33 495//33
f 496//33 497//33 498//33
f 499//33 500//33 501//33
f 502//33 503//33 504//33
f 505//39 506//40 507//39
f 508//40 509//41 510//40
f 511//41 512//41 513//40
f 514//42 515//42 516//41
f 517//43 518//42 519//42
f 520//44 521//43 522//43
f 523//45 524//43 525//45
f 526//46 527//47 528//46
f 529//46 530//46 531//48
f 532//49 533//49 534//50
f 535//51 536//50 537//50
f 538//50 539//52 540//52
f 541//53 542//54 543//53
f 544//54 545//55 546//54
f 547//55 548//55 549//54
f 550//39 551//39 552//15
f 553//56 554//33 555//33
f 556//56 557//33 558//56
f 559//56 560//56 561//57
f 562//56 563//57 564//57
f 565//57 566//58 567//57
f 568//58 569//58 570//57
f 571//55 572//58 573//58
f 574//55 575//58 576//55
f 577//53 578//54 579//54
f 580//50 581//50 582//59
f 583//48 584//46 585//48
f 586//46 587//47 588//47
f 589//43 590//43 591//42
f 592//41 593//42 594//41
f 595//39 596//15 597//15
f 598//40 599//40 600//39
f 601//15 602//15 603//15
f 604//15 605//15 606//15
f 607//28 608//28 609//28
f 610//28 611//28 612//28
f 613//28 614//28 615//28
f 616//28 617//28 618//28
f 619//38 620//38 621//38
f 622//38 623//38 624//38
f 625//60 626//61 627//60
f 628//61 629//62 630//61
f 631//62 632//62 633//61
f 634//63 635//63 636//62
f 637//64 638//63 639//63
f 640//65 641//64 642//64
f 643//65 644//64 645//65
f 646//66 647//67 648//66
f 649//66 650//66 651//68
f 652//69 653//69 654//70
f 655//69 656//70 657//70
f 658//70 659//71 660//71
f 661//72 662//73 663//72
f 664//73 665//74 666//73
f 667//74 668//74 669//73
f 670//60 671//60 672//33
f 673//75 674//38 675//38
f 676//75 677//38 678//75
f 679//75 680//75 681//76
f 682//75 683//76 684//76
f 685//76 686//77 687//76
f 688//77 689//77 690//76
f 691//74 692//77 693//77
f 694//74 695//77 696//74
f 697//72 698//73 699//73
f 700//70 701//70 702//71
f 703//78 704//66 705//78
f 706//66 707//79 708//79
f 709//64 710//64 711//63
f 712//62 713//63 714//62
f 715//60 716//33 717//33
f 718//61 719//61 720//60
f 721//15 722//15 723//15
f 724//15 725//15 726//15
f 727//15 728//15 729//15
f 730//38 731//38 732//38
f 733//38 734//38 735//38
f 736//38 737//38 738//38
f 739//28 740//28 741//28
f 742//28 743//28 744//28
f 745//15 746//80 747//15
f 748//80 749//80 750//15
f 751//81 752//80 753//80
f 754//81 755//80 756//81
f 757//81 758//81 759//82
f 760//81 761//82 762//82
f 763//82 764//83 765//82
f 766//83 767//83 768//82
f 769//84 770//83 771//83
f 772//84 773//83 774//84
f 775//84 776//84 777//85
f 778//84 779//86 780//86
f 781//87 782//88 783//87
f 784//88 785//88 786//87
f 787//89 788//90 789//91
f 790//92 791//92 792//93
f 793//28 794//94 795//28
f 796//94 797//94 798//95
f 799//96 800//94 801//94
f 802//96 803//94 804//96
f 805//96 806//96 807//97
f 808//96 809//97 810//97
f 811//97 812//98 813//97
f 814//98 815//98 816//97
f 817//93 818//98 819//98
f 820//93 821//98 822//93
f 823//93 824//93 825//92
f 826//91 827//89 828//89
f 829//89 830//99 831//89
f 832//100 833//100 834//89
f 835//88 836//99 837//99
f 838//88 839//88 840//99
f 841//15 842//15 843//15
f 844//15 845//15 846//15
f 847//33 848//33 849//33
f 850//33 851//33 852//33
f 853//33 854//33 855//33
f 856//33 857//33 858//33
f 859//38 860//38 861//38
f 862//38 863//38 864//38
f 865//101 866//102 867//101
f 868//102 869//103 870//102
f 871//103 872//103 873//102
f 874//104 875//104 876//103
f 877//105 878//105 879//104
f 880//106 881//105 882//105
f 883//107 884//106 885//106
f 886//107 887//106 888//107
f 889//108 890//109 891//108
f 892//108 893//108 894//110
f 895//110 896//110 897//111
f 898//110 899//111 900//111
f 901//111 902//112 903//112
f 904//113 905//114 906//113
f 907//114 908//115 909//114
f 910//115 911//115 912//114
f 913//116 914//38 915//38
f 916//116 917//38 918//116
f 919//116 920//116 921//117
f 922//116 923//117 924//117
f 925//117 926//118 927//117
f 928//118 929//118 930//117
f 931//115 932//118 933//118
f 934//115 935//118 936//115
f 937//119 938//114 939//114
f 940//111 941//111 942//112
f 943//120 944//108 945//120
f 946//108 947//121 948//109
f 949//106 950//106 951//105
f 952//104 953//105 954//104
f 955//102 956//28 957//102
f 958//103 959//103 960//104
f 961//15 962//15 963//15
f 964//15 965//15 966//15
f 967//15 968//15 969//15
f 970//38 971//38 972//38
f 973//38 974//38 975//38
f 976//38 977//38 978//38
f 979//28 980//28 981//122
f 982//122 983//28 984//122
f 985//123 986//105 987//103
f 988//103 989//105 990//105
f 991//105 992//105 993//107
f 994//107 995//105 996//121
f 997//124 998//125 999//125
f 1000//112 1001//126 1002//126
f 1003//127 1004//127 1005//109
f 1006//128 1007//38 1008//38
f 1009//128 1010//128 1011//38
f 1012//117 1013//129 1014//117
f 1015//117 1016//129 1017//129
f 1018//115 1019//115 1020//119
f 1021//119 1022//115 1023//119
f 1024//130 1025//112 1026//112
f 1027//38 1028//131 1029//38
f 1030//38 1031//131 1032//131
f 1033//132 1034//76 1035//133
f 1036//133 1037//76 1038//133
f 1039//71 1040//134 1041//134
f 1042//135 1043//74 1044//135
f 1045//136 1046//137 1047//137
f 1048//135 1049//74 1050//74
f 1051//138 1052//33 1053//33
f 1054//138 1055//138 1056//33
f 1057//61 1058//63 1059//139
f 1060//61 1061//63 1062//63
f 1063//63 1064//63 1065//65
f 1066//65 1067//63 1068//65
f 1069//140 1070//67 1071//140
f 1072//78 1073//71 1074//71
f 431//33 1075//33 1076//141
f 1077//141 431//33 1078//141
f 1079//142 1080//55 1081//57
f 1082//57 1083//55 1084//55
f 1085//55 1086//55 1087//53
f 1088//52 1089//55 1090//52
f 1091//143 1092//144 1093//144
f 1094//47 1095//145 1096//145
f 1097//146 1098//146 1099//59
f 1100//147 1101//15 1102//15
f 1103//147 1104//147 1105//15
f 1106//148 1107//149 1108//40
f 1109//40 1110//149 1111//149
f 1112//42 1113//42 1114//44
f 1115//44 1116//42 1117//44
f 1118//49 1119//47 1120//47
f 1121//150 1122//129 1123//117
f 1124//115 1125//119 1126//115
f 1127//119 1128//119 1129//115
f 1130//126 1131//126 1132//151
f 1133//125 1134//130 1135//130
f 1136//105 1137//121 1138//121
f 1139//105 1140//107 1141//105
f 1142//128 1143//128 1144//38
f 1145//122 1146//28 1147//28
f 1148//122 1149//28 1150//122
f 1151//103 1152//103 1153//152
f 1154//123 1155//152 1156//152
f 1157//109 1158//125 1159//153
f 1160//151 1161//130 1162//151
f 1163//128 1164//38 1165//38
f 1166//129 1167//129 1168//117
f 1169//154 1170//155 1171//154
f 1172//98 1173//92 1174//98
f 1175//90 1176//92 1177//98
f 1178//156 1179//156 1180//157
f 1181//158 1182//159 1183//159
f 1184//83 1185//86 1186//86
f 1187//83 1188//86 1189//83
f 1190//160 1191//160 1192//28
f 1193//161 1194//15 1195//15
f 1196//161 1197//15 1198//161
f 1199//81 1200//81 1201//162
f 1202//163 1203//162 1204//162
f 1205//158 1206//158 1207//156
f 1208//157 1209//99 1210//91
f 1211//160 1212//28 1213//28
f 1214//155 1215//155 1216//96
f 1217//61 1218//164 1219//61
f 1220//63 1221//65 1222//63
f 1223//79 1224//79 1225//63
f 1226//165 1227//165 1228//137
f 1229//166 1230//78 1231//78
f 1232//74 1233//135 1234//135
f 1235//74 1236//135 1237//74
f 1238//38 1239//38 1240//131
f 1241//38 1242//131 1243//131
f 1244//76 1245//133 1246//76
f 1247//138 1248//138 1249//33
f 1250//133 1251//76 1252//133
f 1253//138 1254//33 1255//33
f 1256//61 1257//164 1258//164
f 1259//137 1260//78 1261//137
f 1262//71 1263//166 1264//134
f 1265//38 1266//38 1267//128
f 1268//128 1269//38 1270//128
f 1271//129 1272//117 1273//117
f 1274//129 1275//129 1276//117
f 1277//115 1278//119 1279//115
f 1280//115 1281//119 1282//119
f 1283//112 1284//110 1285//110
f 377//28 1286//28 1287//122
f 1288//122 1289//122 377//28
f 1290//123 1291//105 1292//103
f 1293//103 1294//105 1295//105
f 1296//105 1297//105 1298//107
f 1299//107 1300//105 1301//121
f 1302//124 1303//125 1304//125
f 1305//127 1306//127 1307//109
f 1308//130 1309//112 1310//112
f 1311//33 434//33 1312//138
f 1313//138 434//33 1314//138
f 1315//63 1316//139 1317//61
f 1318//63 1319//63 1320//61
f 1321//63 1322//65 1323//63
f 1324//63 1325//79 1326//79
f 1327//137 1328//137 1329//136
f 1330//140 1331//67 1332//140
f 1333//71 1334//68 1335//68
f 1336//38 1337//38 1338//131
f 1339//131 1340//38 1341//131
f 1342//133 1343//132 1344//76
f 1345//135 1346//74 1347//135
f 1348//135 1349//74 1350//74
f 1351//78 1352//71 1353//71
f 1354//133 1355//76 1356//133
f 1357//147 1358//147 1359//15
f 1360//149 1361//40 1362//40
f 1363//44 1364//42 1365//42
f 1366//44 1367//42 1368//44
f 1369//167 1370//168 1371//167
f 1372//49 1373//49 1374//144
f 1375//52 1376//53 1377//55
f 1378//33 1379//141 1380//33
f 1381//141 1382//141 1383//33
f 1384//169 1385//57 1386//142
f 1387//169 1388//57 1389//169
f 1390//55 1391//55 1392//53
f 1393//144 1394//144 1395//167
f 1396//168 1397//48 1398//168
f 1399//147 1400//15 1401//15
f 1402//149 1403//149 1404//40
f 1405//15 1406//161 1407//15
f 1408//15 1409//161 1410//161
f 1411//81 1412//81 1413//162
f 1414//162 1415//81 1416//162
f 1417//87 1418//156 1419//156
f 1420//86 1421//83 1422//86
f 1423//170 1424//157 1425//157
f 1426//86 1427//83 1428//83
f 1429//160 1430//28 380//28
f 1431//160 1432//160 380//28
f 1433//96 1434//98 1435//154
f 1436//96 1437//98 1438//98
f 1439//98 1440//98 1441//92
f 1442//90 1443//98 1444//92
f 1445//171 1446//91 1447//171
f 1448//159 1449//87 1450//87
f 1451//33 1452//33 1453//33
f 1452//33 1454//33 1455//33
f 1456//38 1457//38 1458//38
f 1459//38 1460//38 1458//38
f 1461//38 1462//38 1463//38
f 1464//33 1465//33 1466//33
f 1467//172 1468//172 1464//172
f 1469//33 1464//33 1470//33
f 1471//38 1472//38 1473//38
f 1474//38 1475//38 1476//38
f 1477//28 1478//28 1479//28
f 1480//95 1481//95 1479//95
f 1482//28 1483//28 1484//28
f 1485//38 1486//38 1487//38
f 1488//38 1489//38 1485//38
f 1490//38 1485//38 1491//38
f 1492//28 1493//28 1494//28
f 1495//28 1496//28 1497//28
f 1498//15 1499//15 1500//15
f 1501//15 1502//15 1500//15
f 1503//15 1504//15 1505//15
f 1506//28 1507//28 1508//28
f 1509//101 1510//101 1506//101
f 1511//28 1506//28 1512//28
f 1513//15 1514//15 1515//15
f 1516//15 1517//15 1518//15
f 1519//33 1520//33 1521//33
f 1522//173 1523//173 1521//173
f 1524//33 1525//33 1526//33
f 1527//76 1528//76 1529//38
f 1530//74 1528//76 1527//76
f 1531//72 1532//174 1530//74
f 1533//72 1532//174 1531//72
f 1534//69 1533//72 1535//68
f 1534//69 1535//68 1536//79
f 1537//79 1536//79 1538//175
f 1537//79 1538//175 1539//63
f 1539//63 1540//61 1541//61
f 1540//61 1542//33 1541//61
f 1542//33 1543//57 1544//33
f 1543//57 1545//57 1544//33
f 1546//55 1547//176 1545//57
f 1548//52 1547//176 1546//55
f 1549//48 1550//52 1548//52
f 1551//177 1550//52 1549//48
f 1552//45 1551//177 1553//45
f 1552//45 1553//45 1554//178
f 1555//149 1554//178 1556//40
f 1555//149 1556//40 1557//40
f 1557//40 1558//15 1559//15
f 1558//15 1560//81 1559//15
f 1561//81 1562//83 1563//83
f 1563//83 1562//83 1564//85
f 1565//28 1566//28 1567//96
f 1568//103 1569//103 1566//28
f 1570//179 1571//152 1569//103
f 1572//121 1573//121 1571//152
f 1574//126 1573//121 1572//121
f 1575//113 1576//120 1574//126
f 1577//113 1576//120 1575//113
f 1578//129 1577//113 1579//115
f 1553//45 1551//177 1549//48
f 1580//117 1581//117 1529//38
f 1578//129 1581//117 1580//117
f 1579//115 1581//117 1578//129
f 1575//113 1579//115 1577//113
f 1573//121 1574//126 1576//120
f 1571//152 1570//179 1572//121
f 1569//103 1568//103 1570//179
f 1580//117 1529//38 1582//38
f 1566//28 1565//28 1568//103
f 1567//96 1583//96 1565//28
f 1584//180 1583//96 1567//96
f 1585//155 1583//96 1584//180
f 1585//155 1584//180 1586//90
f 1585//155 1586//90 1587//90
f 1586//90 1588//156 1587//90
f 1588//156 1589//100 1587//90
f 1590//85 1589//100 1588//156
f 1564//85 1589//100 1590//85
f 1564//85 1590//85 1563//83
f 1562//83 1561//81 1560//81
f 1561//81 1559//15 1560//81
f 1558//15 1557//40 1556//40
f 1554//178 1555//149 1552//45
f 1547//176 1548//52 1550//52
f 1545//57 1543//57 1546//55
f 1544//33 1541//61 1542//33
f 1540//61 1539//63 1538//175
f 1536//79 1537//79 1534//69
f 1531//72 1535//68 1533//72
f 1528//76 1530//74 1532//174
f 1528//76 1582//38 1529//38
f 1591//15 1592//15 1593//15
f 1594//15 1595//15 1596//15
f 1597//15 1598//15 1599//15
f 1600//23 1601//23 1602//23
f 1603//23 1604//23 1605//23
f 1606//23 1607//23 1608//23
f 1600//23 1609//23 1610//23
f 1611//25 1612//25 1613//25
f 1614//24 1615//24 1616//24
f 1617//23 1618//23 1619//23
f 1620//23 1621//23 1622//23
f 1623//23 1624//23 1625//23
f 1626//23 1627//23 1628//23
f 1629//27 1630//27 1631//27
f 1632//26 1633//26 1634//26
f 1635//23 1636//23 1637//23
f 1638//25 1639//25 1640//25
f 1641//23 1642//23 1600//23
f 1643//23 1644//23 1600//23
f 1645//23 1646//23 1647//23
f 1648//23 1649//23 1650//23
f 1651//23 1652//23 1653//23
f 1654//24 1655//24 1656//24
f 1657//23 1658//23 1659//23
f 1659//23 1660//23 1661//23
f 1662//23 1663//23 1659//23
f 1664//27 1665//27 1659//27
f 1666//23 1667//23 1659//23
f 1668//23 1669//23 1670//23
f 1671//23 1672//23 1673//23
f 1659//23 1674//23 1675//23
f 1626//23 1676//23 1677//23
f 1678//23 1679//23 1626//23
f 1680//23 1681//23 1626//23
f 1682//23 1683//23 1684//23
f 1685//23 1686//23 1687//23
f 1688//23 1689//23 1690//23
f 1691//24 1692//24 1693//24
f 1617//24 1694//24 1695//24
f 1617//23 1696//23 1697//23
f 1698//23 1699//23 1617//23
f 1700//23 1701//23 1617//23
f 1702//23 1703//23 1704//23
f 1705//23 1706//23 1707//23
f 1708//23 1709//23 1710//23
f 1711//23 1712//23 1713//23
f 1600//23 1714//23 1715//23
f 1626//23 1716//23 1717//23
f 1600//23 1718//23 1719//23
f 1626//23 1720//23 1721//23
f 1722//23 1723//23 1617//23
f 1724//23 1725//23 1726//23
f 1727//23 1728//23 1729//23
f 1730//27 1731//27 1732//27
f 1733//23 1734//23 1735//23
f 1736//23 1737//23 1738//23
f 1739//24 1740//24 1741//24
f 1742//23 1743//23 1744//23
f 1745//23 1746//23 1747//23
f 1748//23 1749//23 1750//23
f 1751//23 1752//23 1753//23
f 1754//23 1755//23 1756//23
f 1757//23 1758//23 1759//23
f 1760//25 1761//25 1762//25
f 1763//23 1764//23 1765//23
f 1766//23 1767//23 1768//23
f 1769//26 1770//26 1771//26
f 1772//25 1773//25 1774//25
f 1775//24 1776//24 1777//24
f 1778//23 1779//23 1780//23
f 1781//23 1782//23 1783//23
f 1784//23 1785//23 1786//23
f 1787//23 1788//23 1789//23
f 1790//23 1791//23 1792//23
f 1793//23 1794//23 1795//23
f 1796//23 1797//23 1798//23
f 1799//23 1800//23 1801//23
f 1802//23 1803//23 1804//23
f 1805//23 1806//23 1807//23
f 1808//27 1809//27 1810//27
f 1811//23 1812//23 1813//23
f 1814//181 1815//181 1816//181
f 1817//181 1818//181 1471//38
f 1471//182 1819//181 1820//181
f 1821//183 1822//183 1823//183
f 1824//183 1825//183 1492//184
f 1492//28 1826//183 1827//183
f 1828//185 1829//185 1830//185
f 1831//185 1832//185 1513//15
f 1513//186 1833//185 1834//185
f 1835//187 1836//187 1452//33
f 1837//187 1838//187 1451//33
f 1451//33 1839//187 1452//33
f 1840//38 1841//38 1842//38
f 1843//38 1844//38 1842//38
f 1845//38 1840//38 1846//38
f 1847//33 1848//33 1849//33
f 1850//33 1851//33 1852//33
f 1853//15 1854//15 1855//15
f 1856//15 1857//15 1858//15
f 1859//28 1860//28 1861//28
f 1862//28 1863//28 1864//28
f 1865//23 1866//23 1867//23
f 1868//23 1869//23 1870//23
f 1871//188 1872//188 1873//188
f 1872//188 1874//188 1875//188
f 1876//188 1872//188 1877//188
f 1872//188 1878//188 1879//188
f 1880//1 1881//1 1882//1
f 1883//1 1884//1 1885//1
f 1886//1 1887//1 1888//1
f 1889//1 1890//1 1891//1
