# Blender 4.4.3
# www.blender.org
mtllib Mesh_18.005.mtl
o Mesh_18.005
v -0.000210 0.008776 -0.004103
v -0.000210 0.008830 -0.004103
v -0.000210 0.008827 -0.004105
v -0.000210 0.008824 -0.004107
v -0.000210 0.008821 -0.004109
v -0.000210 0.008817 -0.004110
v -0.000210 0.008810 -0.004112
v -0.000210 0.008814 -0.004112
v -0.000210 0.008807 -0.004113
v -0.000210 0.008803 -0.004113
v -0.000210 0.008799 -0.004113
v -0.000210 0.008796 -0.004112
v -0.000210 0.008792 -0.004112
v -0.000210 0.008789 -0.004110
v -0.000210 0.008785 -0.004109
v -0.000210 0.008782 -0.004107
v -0.000210 0.008779 -0.004105
v -0.000210 0.008773 -0.004100
v -0.000210 0.008833 -0.004100
v -0.000210 0.008770 -0.004097
v -0.000210 0.008836 -0.004097
v -0.000210 0.008766 -0.004093
v -0.000210 0.008840 -0.004093
v -0.000210 0.008763 -0.004090
v -0.000210 0.008843 -0.004090
v -0.000210 0.008760 -0.004086
v -0.000210 0.008846 -0.004086
v -0.000210 0.008757 -0.004083
v -0.000210 0.008849 -0.004083
v -0.000210 0.008754 -0.004079
v -0.000210 0.008852 -0.004079
v -0.000210 0.008854 -0.004075
v -0.000210 0.008752 -0.004075
v -0.000210 0.008749 -0.004071
v -0.000210 0.008744 -0.004063
v -0.000210 0.008859 -0.004067
v -0.000210 0.008747 -0.004067
v -0.000210 0.008857 -0.004071
v -0.000210 0.008872 -0.004042
v -0.000210 0.008870 -0.004047
v -0.000210 0.008872 -0.004040
v -0.000210 0.008868 -0.004051
v -0.000210 0.008866 -0.004055
v -0.000210 0.008734 -0.004040
v -0.000210 0.008738 -0.004051
v -0.000210 0.008740 -0.004055
v -0.000210 0.008736 -0.004047
v -0.000210 0.008864 -0.004059
v -0.000210 0.008742 -0.004059
v -0.000210 0.008862 -0.004063
v -0.000210 0.008734 -0.004042
v 0.000020 0.008734 -0.004040
v 0.000020 0.008734 -0.004042
v 0.000020 0.008736 -0.004047
v 0.000020 0.008738 -0.004051
v 0.000020 0.008740 -0.004055
v 0.000020 0.008866 -0.004055
v 0.000020 0.008742 -0.004059
v 0.000020 0.008864 -0.004059
v 0.000020 0.008744 -0.004063
v 0.000020 0.008862 -0.004063
v 0.000020 0.008747 -0.004067
v 0.000020 0.008749 -0.004071
v 0.000020 0.008859 -0.004067
v 0.000020 0.008857 -0.004071
v 0.000020 0.008854 -0.004075
v 0.000020 0.008752 -0.004075
v 0.000020 0.008754 -0.004079
v 0.000020 0.008852 -0.004079
v 0.000020 0.008757 -0.004083
v 0.000020 0.008849 -0.004083
v 0.000020 0.008760 -0.004086
v 0.000020 0.008846 -0.004086
v 0.000020 0.008840 -0.004093
v 0.000020 0.008843 -0.004090
v 0.000020 0.008766 -0.004093
v 0.000020 0.008836 -0.004097
v 0.000020 0.008770 -0.004097
v 0.000020 0.008773 -0.004100
v 0.000020 0.008830 -0.004103
v 0.000020 0.008833 -0.004100
v 0.000020 0.008776 -0.004103
v 0.000020 0.008827 -0.004105
v 0.000020 0.008824 -0.004107
v 0.000020 0.008779 -0.004105
v 0.000020 0.008782 -0.004107
v 0.000020 0.008785 -0.004109
v 0.000020 0.008792 -0.004112
v 0.000020 0.008789 -0.004110
v 0.000020 0.008796 -0.004112
v 0.000020 0.008799 -0.004113
v 0.000020 0.008803 -0.004113
v 0.000020 0.008807 -0.004113
v 0.000020 0.008810 -0.004112
v 0.000020 0.008814 -0.004112
v 0.000020 0.008817 -0.004110
v 0.000020 0.008821 -0.004109
v 0.000020 0.008763 -0.004090
v 0.000020 0.008872 -0.004040
v 0.000020 0.008868 -0.004051
v 0.000020 0.008872 -0.004042
v 0.000020 0.008870 -0.004047
v 0.000020 0.008734 -0.004042
v 0.000020 0.008734 -0.004040
v -0.000038 0.008734 -0.004042
v 0.000020 0.008734 -0.004040
v -0.000210 0.008734 -0.004040
v -0.000210 0.008734 -0.004042
v -0.000095 0.008734 -0.004042
v 0.000020 0.008734 -0.004040
v -0.000152 0.008734 -0.004042
v 0.000020 0.008734 -0.004040
v 0.000020 0.008734 -0.004040
v -0.000210 0.008734 -0.004042
v -0.000115 0.008805 -0.004040
v -0.000115 0.008803 -0.004113
v -0.000115 0.008803 -0.004040
v -0.000115 0.008807 -0.004113
v -0.000115 0.008805 -0.004113
v -0.000116 0.008809 -0.004112
v -0.000115 0.008807 -0.004040
v -0.000116 0.008809 -0.004040
v -0.000116 0.008811 -0.004112
v -0.000116 0.008811 -0.004040
v -0.000117 0.008813 -0.004112
v -0.000117 0.008813 -0.004040
v -0.000118 0.008815 -0.004111
v -0.000117 0.008815 -0.004040
v -0.000118 0.008817 -0.004040
v -0.000119 0.008817 -0.004110
v -0.000120 0.008819 -0.004110
v -0.000119 0.008819 -0.004040
v -0.000121 0.008821 -0.004109
v -0.000120 0.008820 -0.004040
v -0.000122 0.008822 -0.004040
v -0.000122 0.008822 -0.004108
v -0.000123 0.008824 -0.004107
v -0.000125 0.008825 -0.004106
v -0.000123 0.008823 -0.004040
v -0.000129 0.008829 -0.004104
v -0.000129 0.008829 -0.004040
v -0.000131 0.008830 -0.004103
v -0.000131 0.008830 -0.004040
v -0.000128 0.008827 -0.004040
v -0.000128 0.008828 -0.004105
v -0.000126 0.008826 -0.004040
v -0.000126 0.008826 -0.004106
v -0.000124 0.008825 -0.004040
v -0.000115 0.008801 -0.004113
v -0.000115 0.008801 -0.004040
v -0.000115 0.008799 -0.004113
v -0.000115 0.008798 -0.004040
v -0.000116 0.008797 -0.004112
v -0.000116 0.008796 -0.004040
v -0.000116 0.008795 -0.004112
v -0.000117 0.008793 -0.004112
v -0.000117 0.008793 -0.004040
v -0.000117 0.008791 -0.004040
v -0.000118 0.008791 -0.004111
v -0.000119 0.008789 -0.004110
v -0.000118 0.008789 -0.004040
v -0.000120 0.008787 -0.004110
v -0.000120 0.008787 -0.004040
v -0.000121 0.008785 -0.004040
v -0.000121 0.008785 -0.004109
v -0.000123 0.008783 -0.004040
v -0.000125 0.008781 -0.004106
v -0.000124 0.008781 -0.004040
v -0.000123 0.008782 -0.004107
v -0.000122 0.008784 -0.004108
v -0.000126 0.008780 -0.004106
v -0.000128 0.008779 -0.004105
v -0.000129 0.008777 -0.004104
v -0.000128 0.008778 -0.004040
v -0.000126 0.008780 -0.004040
v -0.000131 0.008776 -0.004103
v -0.000130 0.008777 -0.004040
v -0.000133 0.008776 -0.004102
v -0.000132 0.008776 -0.004040
v -0.000134 0.008775 -0.004102
v -0.000135 0.008775 -0.004040
v -0.000136 0.008774 -0.004101
v -0.000137 0.008774 -0.004040
v -0.000138 0.008774 -0.004101
v -0.000139 0.008774 -0.004040
v -0.000140 0.008774 -0.004100
v -0.000141 0.008773 -0.004100
v -0.000143 0.008773 -0.004100
v -0.000142 0.008773 -0.004040
v -0.000144 0.008773 -0.004040
v -0.000145 0.008773 -0.004100
v -0.000147 0.008773 -0.004100
v -0.000147 0.008773 -0.004040
v -0.000149 0.008773 -0.004040
v -0.000149 0.008773 -0.004100
v -0.000151 0.008774 -0.004040
v -0.000151 0.008774 -0.004100
v -0.000154 0.008774 -0.004040
v -0.000152 0.008774 -0.004101
v -0.000156 0.008775 -0.004040
v -0.000154 0.008774 -0.004101
v -0.000156 0.008775 -0.004102
v -0.000158 0.008776 -0.004040
v -0.000157 0.008776 -0.004102
v -0.000159 0.008776 -0.004103
v -0.000160 0.008777 -0.004040
v -0.000161 0.008777 -0.004104
v -0.000162 0.008779 -0.004040
v -0.000162 0.008778 -0.004105
v -0.000164 0.008780 -0.004106
v -0.000164 0.008780 -0.004040
v -0.000166 0.008782 -0.004040
v -0.000165 0.008781 -0.004106
v -0.000167 0.008782 -0.004107
v -0.000168 0.008784 -0.004040
v -0.000168 0.008784 -0.004108
v -0.000169 0.008785 -0.004109
v -0.000169 0.008785 -0.004040
v -0.000171 0.008787 -0.004040
v -0.000172 0.008790 -0.004040
v -0.000170 0.008787 -0.004110
v -0.000171 0.008789 -0.004110
v -0.000173 0.008792 -0.004040
v -0.000172 0.008791 -0.004111
v -0.000173 0.008793 -0.004112
v -0.000174 0.008794 -0.004040
v -0.000174 0.008795 -0.004112
v -0.000175 0.008799 -0.004040
v -0.000174 0.008796 -0.004040
v -0.000174 0.008797 -0.004112
v -0.000175 0.008799 -0.004113
v -0.000174 0.008809 -0.004112
v -0.000174 0.008811 -0.004112
v -0.000174 0.008811 -0.004040
v -0.000175 0.008801 -0.004040
v -0.000175 0.008801 -0.004113
v -0.000171 0.008817 -0.004110
v -0.000170 0.008819 -0.004110
v -0.000171 0.008818 -0.004040
v -0.000167 0.008824 -0.004107
v -0.000167 0.008824 -0.004040
v -0.000168 0.008822 -0.004040
v -0.000161 0.008829 -0.004104
v -0.000163 0.008827 -0.004040
v -0.000162 0.008827 -0.004105
v -0.000159 0.008829 -0.004040
v -0.000157 0.008830 -0.004102
v -0.000157 0.008831 -0.004040
v -0.000152 0.008832 -0.004101
v -0.000152 0.008832 -0.004040
v -0.000155 0.008831 -0.004040
v -0.000149 0.008833 -0.004100
v -0.000150 0.008833 -0.004040
v -0.000151 0.008832 -0.004100
v -0.000147 0.008833 -0.004100
v -0.000145 0.008833 -0.004040
v -0.000148 0.008833 -0.004040
v -0.000145 0.008833 -0.004100
v -0.000143 0.008833 -0.004100
v -0.000141 0.008833 -0.004100
v -0.000143 0.008833 -0.004040
v -0.000140 0.008832 -0.004100
v -0.000140 0.008833 -0.004040
v -0.000138 0.008832 -0.004101
v -0.000138 0.008832 -0.004040
v -0.000136 0.008832 -0.004101
v -0.000136 0.008831 -0.004040
v -0.000133 0.008830 -0.004102
v -0.000133 0.008831 -0.004040
v -0.000134 0.008831 -0.004102
v -0.000154 0.008832 -0.004101
v -0.000156 0.008831 -0.004102
v -0.000159 0.008830 -0.004103
v -0.000161 0.008828 -0.004040
v -0.000164 0.008826 -0.004106
v -0.000165 0.008825 -0.004040
v -0.000165 0.008825 -0.004106
v -0.000168 0.008822 -0.004108
v -0.000170 0.008820 -0.004040
v -0.000169 0.008821 -0.004109
v -0.000172 0.008816 -0.004040
v -0.000172 0.008815 -0.004111
v -0.000173 0.008813 -0.004040
v -0.000173 0.008813 -0.004112
v -0.000174 0.008809 -0.004040
v -0.000175 0.008807 -0.004113
v -0.000175 0.008806 -0.004040
v -0.000175 0.008805 -0.004113
v -0.000175 0.008804 -0.004040
v -0.000175 0.008803 -0.004113
v -0.000152 0.008872 -0.004042
v -0.000210 0.008872 -0.004042
v 0.000020 0.008872 -0.004040
v -0.000210 0.008872 -0.004042
v -0.000210 0.008872 -0.004040
v 0.000020 0.008872 -0.004040
v -0.000038 0.008872 -0.004042
v -0.000095 0.008872 -0.004042
v 0.000020 0.008872 -0.004040
v 0.000020 0.008872 -0.004042
v 0.000020 0.008872 -0.004040
v 0.000020 0.008872 -0.004040
v -0.000129 0.008829 -0.004040
v -0.000128 0.008827 -0.004040
v 0.000020 0.008872 -0.004040
v -0.000129 0.008829 -0.004040
v 0.000020 0.008872 -0.004040
v -0.000131 0.008830 -0.004040
v -0.000128 0.008827 -0.004040
v -0.000126 0.008826 -0.004040
v 0.000020 0.008872 -0.004040
v -0.000126 0.008826 -0.004040
v -0.000124 0.008825 -0.004040
v 0.000020 0.008872 -0.004040
v -0.000124 0.008825 -0.004040
v -0.000123 0.008823 -0.004040
v 0.000020 0.008872 -0.004040
v -0.000123 0.008823 -0.004040
v -0.000122 0.008822 -0.004040
v 0.000020 0.008872 -0.004040
v -0.000122 0.008822 -0.004040
v -0.000120 0.008820 -0.004040
v 0.000020 0.008872 -0.004040
v -0.000120 0.008820 -0.004040
v -0.000119 0.008819 -0.004040
v 0.000020 0.008872 -0.004040
v -0.000119 0.008819 -0.004040
v -0.000118 0.008817 -0.004040
v 0.000020 0.008872 -0.004040
v -0.000118 0.008817 -0.004040
v -0.000117 0.008815 -0.004040
v 0.000020 0.008872 -0.004040
v -0.000117 0.008815 -0.004040
v -0.000117 0.008813 -0.004040
v 0.000020 0.008872 -0.004040
v -0.000117 0.008813 -0.004040
v -0.000116 0.008811 -0.004040
v 0.000020 0.008872 -0.004040
v -0.000116 0.008811 -0.004040
v -0.000116 0.008809 -0.004040
v 0.000020 0.008872 -0.004040
v -0.000116 0.008809 -0.004040
v -0.000115 0.008807 -0.004040
v 0.000020 0.008872 -0.004040
v -0.000115 0.008807 -0.004040
v -0.000115 0.008805 -0.004040
v 0.000020 0.008872 -0.004040
v -0.000115 0.008805 -0.004040
v -0.000115 0.008803 -0.004040
v 0.000020 0.008872 -0.004040
v -0.000115 0.008803 -0.004040
v 0.000020 0.008734 -0.004040
v 0.000020 0.008872 -0.004040
v -0.000115 0.008801 -0.004040
v 0.000020 0.008734 -0.004040
v -0.000115 0.008803 -0.004040
v -0.000115 0.008798 -0.004040
v 0.000020 0.008734 -0.004040
v -0.000115 0.008801 -0.004040
v -0.000116 0.008796 -0.004040
v 0.000020 0.008734 -0.004040
v -0.000115 0.008798 -0.004040
v 0.000020 0.008734 -0.004040
v -0.000116 0.008796 -0.004040
v -0.000117 0.008793 -0.004040
v 0.000020 0.008734 -0.004040
v -0.000117 0.008793 -0.004040
v -0.000117 0.008791 -0.004040
v 0.000020 0.008734 -0.004040
v -0.000117 0.008791 -0.004040
v -0.000118 0.008789 -0.004040
v 0.000020 0.008734 -0.004040
v -0.000118 0.008789 -0.004040
v -0.000120 0.008787 -0.004040
v 0.000020 0.008734 -0.004040
v -0.000120 0.008787 -0.004040
v -0.000121 0.008785 -0.004040
v 0.000020 0.008734 -0.004040
v -0.000121 0.008785 -0.004040
v -0.000123 0.008783 -0.004040
v 0.000020 0.008734 -0.004040
v -0.000123 0.008783 -0.004040
v -0.000124 0.008781 -0.004040
v -0.000128 0.008778 -0.004040
v -0.000130 0.008777 -0.004040
v 0.000020 0.008734 -0.004040
v -0.000128 0.008778 -0.004040
v 0.000020 0.008734 -0.004040
v -0.000126 0.008780 -0.004040
v 0.000020 0.008734 -0.004040
v -0.000124 0.008781 -0.004040
v -0.000126 0.008780 -0.004040
v -0.000132 0.008776 -0.004040
v 0.000020 0.008734 -0.004040
v -0.000130 0.008777 -0.004040
v -0.000135 0.008775 -0.004040
v 0.000020 0.008734 -0.004040
v -0.000132 0.008776 -0.004040
v -0.000137 0.008774 -0.004040
v 0.000020 0.008734 -0.004040
v -0.000135 0.008775 -0.004040
v -0.000210 0.008734 -0.004040
v 0.000020 0.008734 -0.004040
v -0.000137 0.008774 -0.004040
v -0.000210 0.008734 -0.004040
v -0.000137 0.008774 -0.004040
v -0.000139 0.008774 -0.004040
v -0.000210 0.008734 -0.004040
v -0.000139 0.008774 -0.004040
v -0.000142 0.008773 -0.004040
v -0.000210 0.008734 -0.004040
v -0.000142 0.008773 -0.004040
v -0.000144 0.008773 -0.004040
v -0.000210 0.008734 -0.004040
v -0.000144 0.008773 -0.004040
v -0.000147 0.008773 -0.004040
v -0.000151 0.008774 -0.004040
v -0.000154 0.008774 -0.004040
v -0.000210 0.008734 -0.004040
v -0.000151 0.008774 -0.004040
v -0.000210 0.008734 -0.004040
v -0.000149 0.008773 -0.004040
v -0.000154 0.008774 -0.004040
v -0.000156 0.008775 -0.004040
v -0.000210 0.008734 -0.004040
v -0.000156 0.008775 -0.004040
v -0.000158 0.008776 -0.004040
v -0.000210 0.008734 -0.004040
v -0.000158 0.008776 -0.004040
v -0.000160 0.008777 -0.004040
v -0.000210 0.008734 -0.004040
v -0.000160 0.008777 -0.004040
v -0.000162 0.008779 -0.004040
v -0.000210 0.008734 -0.004040
v -0.000162 0.008779 -0.004040
v -0.000164 0.008780 -0.004040
v -0.000210 0.008734 -0.004040
v -0.000164 0.008780 -0.004040
v -0.000166 0.008782 -0.004040
v -0.000210 0.008734 -0.004040
v -0.000166 0.008782 -0.004040
v -0.000168 0.008784 -0.004040
v -0.000210 0.008734 -0.004040
v -0.000168 0.008784 -0.004040
v -0.000169 0.008785 -0.004040
v -0.000210 0.008734 -0.004040
v -0.000169 0.008785 -0.004040
v -0.000171 0.008787 -0.004040
v -0.000210 0.008734 -0.004040
v -0.000171 0.008787 -0.004040
v -0.000172 0.008790 -0.004040
v -0.000210 0.008734 -0.004040
v -0.000172 0.008790 -0.004040
v -0.000173 0.008792 -0.004040
v -0.000210 0.008734 -0.004040
v -0.000174 0.008794 -0.004040
v -0.000210 0.008734 -0.004040
v -0.000173 0.008792 -0.004040
v -0.000174 0.008796 -0.004040
v -0.000210 0.008734 -0.004040
v -0.000174 0.008794 -0.004040
v -0.000175 0.008799 -0.004040
v -0.000210 0.008734 -0.004040
v -0.000174 0.008796 -0.004040
v -0.000210 0.008734 -0.004040
v -0.000147 0.008773 -0.004040
v -0.000149 0.008773 -0.004040
v -0.000175 0.008804 -0.004040
v -0.000210 0.008734 -0.004040
v -0.000175 0.008801 -0.004040
v -0.000210 0.008872 -0.004040
v -0.000210 0.008734 -0.004040
v -0.000175 0.008804 -0.004040
v -0.000210 0.008872 -0.004040
v -0.000175 0.008804 -0.004040
v -0.000175 0.008806 -0.004040
v -0.000210 0.008872 -0.004040
v -0.000175 0.008806 -0.004040
v -0.000174 0.008809 -0.004040
v -0.000210 0.008872 -0.004040
v -0.000174 0.008809 -0.004040
v -0.000174 0.008811 -0.004040
v -0.000172 0.008816 -0.004040
v -0.000171 0.008818 -0.004040
v -0.000210 0.008872 -0.004040
v -0.000172 0.008816 -0.004040
v -0.000210 0.008872 -0.004040
v -0.000173 0.008813 -0.004040
v -0.000171 0.008818 -0.004040
v -0.000170 0.008820 -0.004040
v -0.000210 0.008872 -0.004040
v -0.000170 0.008820 -0.004040
v -0.000168 0.008822 -0.004040
v -0.000210 0.008872 -0.004040
v -0.000168 0.008822 -0.004040
v -0.000167 0.008824 -0.004040
v -0.000210 0.008872 -0.004040
v -0.000167 0.008824 -0.004040
v -0.000165 0.008825 -0.004040
v -0.000210 0.008872 -0.004040
v -0.000165 0.008825 -0.004040
v -0.000163 0.008827 -0.004040
v -0.000210 0.008872 -0.004040
v -0.000163 0.008827 -0.004040
v -0.000161 0.008828 -0.004040
v -0.000210 0.008872 -0.004040
v -0.000161 0.008828 -0.004040
v -0.000159 0.008829 -0.004040
v -0.000210 0.008872 -0.004040
v -0.000159 0.008829 -0.004040
v -0.000157 0.008831 -0.004040
v -0.000210 0.008872 -0.004040
v -0.000157 0.008831 -0.004040
v -0.000155 0.008831 -0.004040
v -0.000210 0.008872 -0.004040
v -0.000155 0.008831 -0.004040
v -0.000152 0.008832 -0.004040
v -0.000210 0.008872 -0.004040
v -0.000150 0.008833 -0.004040
v -0.000210 0.008872 -0.004040
v -0.000152 0.008832 -0.004040
v -0.000148 0.008833 -0.004040
v -0.000210 0.008872 -0.004040
v -0.000150 0.008833 -0.004040
v -0.000145 0.008833 -0.004040
v -0.000210 0.008872 -0.004040
v -0.000148 0.008833 -0.004040
v -0.000143 0.008833 -0.004040
v -0.000210 0.008872 -0.004040
v -0.000145 0.008833 -0.004040
v -0.000140 0.008833 -0.004040
v -0.000210 0.008872 -0.004040
v -0.000143 0.008833 -0.004040
v -0.000138 0.008832 -0.004040
v -0.000210 0.008872 -0.004040
v -0.000140 0.008833 -0.004040
v 0.000020 0.008872 -0.004040
v -0.000210 0.008872 -0.004040
v -0.000138 0.008832 -0.004040
v 0.000020 0.008872 -0.004040
v -0.000138 0.008832 -0.004040
v -0.000136 0.008831 -0.004040
v -0.000210 0.008872 -0.004040
v -0.000174 0.008811 -0.004040
v -0.000173 0.008813 -0.004040
v -0.000131 0.008830 -0.004040
v 0.000020 0.008872 -0.004040
v -0.000133 0.008831 -0.004040
v -0.000133 0.008831 -0.004040
v 0.000020 0.008872 -0.004040
v -0.000136 0.008831 -0.004040
v -0.000175 0.008799 -0.004040
v -0.000175 0.008801 -0.004040
v -0.000210 0.008734 -0.004040
v -0.000056 0.008854 -0.004076
v -0.000064 0.008852 -0.004079
v -0.000085 0.008853 -0.004076
v -0.000038 0.008853 -0.004077
v -0.000017 0.008846 -0.004086
v -0.000017 0.008849 -0.004082
v -0.000008 0.008845 -0.004087
v -0.000027 0.008843 -0.004090
v -0.000056 0.008845 -0.004087
v -0.000058 0.008839 -0.004094
v -0.000064 0.008834 -0.004099
v -0.000084 0.008839 -0.004094
v -0.000017 0.008838 -0.004094
v -0.000018 0.008834 -0.004099
v -0.000002 0.008841 -0.004092
v -0.000053 0.008850 -0.004081
v -0.000079 0.008849 -0.004083
v -0.000082 0.008842 -0.004090
v 0.000020 0.008843 -0.004090
v -0.000143 0.008868 -0.004052
v -0.000147 0.008866 -0.004057
v -0.000210 0.008868 -0.004051
v -0.000132 0.008867 -0.004053
v -0.000183 0.008849 -0.004082
v -0.000171 0.008853 -0.004076
v -0.000148 0.008851 -0.004080
v -0.000210 0.008849 -0.004083
v -0.000210 0.008852 -0.004079
v -0.000169 0.008846 -0.004086
v -0.000149 0.008842 -0.004091
v -0.000210 0.008843 -0.004090
v -0.000134 0.008846 -0.004085
v -0.000140 0.008852 -0.004079
v -0.000162 0.008857 -0.004071
v -0.000134 0.008855 -0.004074
v -0.000210 0.008852 -0.004079
v -0.000210 0.008854 -0.004075
v -0.000053 0.008859 -0.004069
v -0.000059 0.008862 -0.004063
v -0.000024 0.008860 -0.004066
v -0.000067 0.008857 -0.004071
v -0.000082 0.008860 -0.004066
v -0.000042 0.008864 -0.004059
v -0.000045 0.008867 -0.004054
v 0.000020 0.008866 -0.004055
v -0.000057 0.008865 -0.004058
v -0.000034 0.008857 -0.004071
v 0.000020 0.008862 -0.004063
v 0.000020 0.008859 -0.004067
v -0.000176 0.008863 -0.004061
v -0.000169 0.008860 -0.004066
v -0.000210 0.008862 -0.004063
v -0.000136 0.008862 -0.004063
v -0.000210 0.008857 -0.004071
v -0.000100 0.008857 -0.004071
v -0.000085 0.008862 -0.004063
v -0.000123 0.008858 -0.004070
v -0.000102 0.008853 -0.004077
v -0.000092 0.008852 -0.004079
v -0.000114 0.008850 -0.004081
v -0.000111 0.008846 -0.004086
v -0.000067 0.008865 -0.004057
v 0.000020 0.008864 -0.004059
v -0.000121 0.008865 -0.004057
v -0.000097 0.008866 -0.004055
v -0.000151 0.008870 -0.004047
v -0.000086 0.008867 -0.004053
v -0.000096 0.008870 -0.004047
v -0.000040 0.008870 -0.004046
v 0.000020 0.008836 -0.004097
v -0.000056 0.008830 -0.004103
v 0.000020 0.008854 -0.004075
v 0.000020 0.008852 -0.004079
v 0.000020 0.008849 -0.004083
v -0.000106 0.008841 -0.004091
v -0.000210 0.008870 -0.004047
v -0.000210 0.008868 -0.004051
v 0.000020 0.008870 -0.004047
v -0.000149 0.008836 -0.004097
v -0.000126 0.008836 -0.004097
v -0.000151 0.008832 -0.004100
v -0.000152 0.008832 -0.004101
v -0.000210 0.008849 -0.004083
v -0.000210 0.008846 -0.004086
v -0.000143 0.008833 -0.004100
v 0.000020 0.008836 -0.004097
v 0.000020 0.008840 -0.004093
v -0.000131 0.008830 -0.004103
v -0.000131 0.008830 -0.004103
v 0.000020 0.008868 -0.004051
v 0.000020 0.008866 -0.004055
v 0.000020 0.008843 -0.004090
v 0.000020 0.008840 -0.004093
v -0.000133 0.008830 -0.004102
v -0.000134 0.008831 -0.004102
v 0.000020 0.008836 -0.004097
v 0.000020 0.008833 -0.004100
v -0.000210 0.008864 -0.004059
v -0.000210 0.008866 -0.004055
v -0.000210 0.008854 -0.004075
v -0.000210 0.008857 -0.004071
v 0.000020 0.008857 -0.004071
v -0.000147 0.008833 -0.004100
v -0.000145 0.008833 -0.004100
v 0.000020 0.008846 -0.004086
v 0.000020 0.008849 -0.004083
v -0.000157 0.008830 -0.004102
v -0.000210 0.008833 -0.004100
v -0.000156 0.008831 -0.004102
v -0.000157 0.008830 -0.004102
v -0.000159 0.008830 -0.004103
v -0.000210 0.008833 -0.004100
v -0.000156 0.008831 -0.004102
v -0.000210 0.008833 -0.004100
v -0.000154 0.008832 -0.004101
v -0.000154 0.008832 -0.004101
v -0.000210 0.008833 -0.004100
v -0.000210 0.008836 -0.004097
v -0.000154 0.008832 -0.004101
v -0.000210 0.008836 -0.004097
v -0.000152 0.008832 -0.004101
v -0.000154 0.008832 -0.004101
v -0.000210 0.008836 -0.004097
v -0.000210 0.008840 -0.004093
v -0.000151 0.008832 -0.004100
v -0.000149 0.008833 -0.004100
v -0.000210 0.008843 -0.004090
v -0.000210 0.008846 -0.004086
v -0.000210 0.008852 -0.004079
v 0.000020 0.008843 -0.004090
v 0.000020 0.008846 -0.004086
v -0.000210 0.008857 -0.004071
v -0.000143 0.008833 -0.004100
v -0.000141 0.008833 -0.004100
v -0.000141 0.008833 -0.004100
v -0.000140 0.008832 -0.004100
v 0.000020 0.008833 -0.004100
v 0.000020 0.008830 -0.004103
v -0.000138 0.008832 -0.004101
v -0.000140 0.008832 -0.004100
v -0.000210 0.008840 -0.004093
v -0.000210 0.008843 -0.004090
v -0.000131 0.008830 -0.004103
v -0.000133 0.008830 -0.004102
v -0.000134 0.008831 -0.004102
v -0.000136 0.008832 -0.004101
v 0.000020 0.008830 -0.004103
v -0.000138 0.008832 -0.004101
v -0.000136 0.008832 -0.004101
v 0.000020 0.008836 -0.004097
v -0.000145 0.008833 -0.004100
v -0.000143 0.008833 -0.004100
v -0.000210 0.008859 -0.004067
v -0.000210 0.008862 -0.004063
v 0.000020 0.008854 -0.004075
v -0.000210 0.008857 -0.004071
v -0.000210 0.008859 -0.004067
v 0.000020 0.008852 -0.004079
v 0.000020 0.008854 -0.004075
v -0.000210 0.008862 -0.004063
v -0.000210 0.008864 -0.004059
v 0.000020 0.008857 -0.004071
v 0.000020 0.008859 -0.004067
v 0.000020 0.008870 -0.004047
v 0.000020 0.008868 -0.004051
v 0.000020 0.008872 -0.004042
v 0.000020 0.008870 -0.004047
v 0.000020 0.008868 -0.004051
v 0.000020 0.008864 -0.004059
v 0.000020 0.008866 -0.004055
v -0.000210 0.008870 -0.004047
v -0.000210 0.008872 -0.004042
v 0.000020 0.008864 -0.004059
v 0.000020 0.008862 -0.004063
v -0.000210 0.008870 -0.004047
v -0.000210 0.008868 -0.004051
v -0.000210 0.008866 -0.004055
v -0.000210 0.008868 -0.004051
v -0.000210 0.008866 -0.004055
v 0.000020 0.008854 -0.004075
v 0.000020 0.008857 -0.004071
v 0.000020 0.008849 -0.004083
v -0.000149 0.008833 -0.004100
v -0.000147 0.008833 -0.004100
v -0.000210 0.008840 -0.004093
v -0.000210 0.008833 -0.004100
v -0.000159 0.008830 -0.004103
v -0.000210 0.008830 -0.004103
v -0.000210 0.008846 -0.004086
v -0.000210 0.008830 -0.004103
v -0.000159 0.008830 -0.004103
v -0.000161 0.008829 -0.004104
v -0.000162 0.008827 -0.004105
v -0.000210 0.008830 -0.004103
v -0.000161 0.008829 -0.004104
v -0.000162 0.008827 -0.004105
v -0.000210 0.008827 -0.004105
v -0.000210 0.008830 -0.004103
v -0.000162 0.008827 -0.004105
v -0.000164 0.008826 -0.004106
v -0.000210 0.008827 -0.004105
v -0.000210 0.008827 -0.004105
v -0.000164 0.008826 -0.004106
v -0.000165 0.008825 -0.004106
v -0.000167 0.008824 -0.004107
v -0.000210 0.008827 -0.004105
v -0.000165 0.008825 -0.004106
v -0.000167 0.008824 -0.004107
v -0.000210 0.008824 -0.004107
v -0.000210 0.008827 -0.004105
v -0.000168 0.008822 -0.004108
v -0.000169 0.008821 -0.004109
v -0.000210 0.008824 -0.004107
v -0.000169 0.008821 -0.004109
v -0.000170 0.008819 -0.004110
v -0.000210 0.008821 -0.004109
v -0.000171 0.008817 -0.004110
v -0.000172 0.008815 -0.004111
v -0.000210 0.008817 -0.004110
v -0.000172 0.008815 -0.004111
v -0.000173 0.008813 -0.004112
v -0.000210 0.008814 -0.004112
v -0.000210 0.008814 -0.004112
v -0.000174 0.008811 -0.004112
v -0.000210 0.008810 -0.004112
v -0.000210 0.008810 -0.004112
v -0.000174 0.008811 -0.004112
v -0.000174 0.008809 -0.004112
v -0.000210 0.008807 -0.004113
v -0.000210 0.008810 -0.004112
v -0.000175 0.008807 -0.004113
v -0.000210 0.008803 -0.004113
v -0.000210 0.008807 -0.004113
v -0.000175 0.008805 -0.004113
v -0.000175 0.008801 -0.004113
v -0.000210 0.008803 -0.004113
v -0.000175 0.008803 -0.004113
v -0.000173 0.008793 -0.004112
v -0.000172 0.008791 -0.004111
v -0.000210 0.008792 -0.004112
v -0.000159 0.008776 -0.004103
v -0.000210 0.008776 -0.004103
v -0.000161 0.008777 -0.004104
v -0.000161 0.008777 -0.004104
v -0.000210 0.008776 -0.004103
v -0.000162 0.008778 -0.004105
v -0.000162 0.008778 -0.004105
v -0.000210 0.008776 -0.004103
v -0.000210 0.008779 -0.004105
v -0.000164 0.008780 -0.004106
v -0.000162 0.008778 -0.004105
v -0.000210 0.008779 -0.004105
v -0.000165 0.008781 -0.004106
v -0.000164 0.008780 -0.004106
v -0.000210 0.008779 -0.004105
v -0.000167 0.008782 -0.004107
v -0.000165 0.008781 -0.004106
v -0.000210 0.008779 -0.004105
v -0.000210 0.008782 -0.004107
v -0.000167 0.008782 -0.004107
v -0.000210 0.008779 -0.004105
v -0.000210 0.008782 -0.004107
v -0.000168 0.008784 -0.004108
v -0.000167 0.008782 -0.004107
v -0.000210 0.008782 -0.004107
v -0.000169 0.008785 -0.004109
v -0.000168 0.008784 -0.004108
v -0.000210 0.008782 -0.004107
v -0.000210 0.008785 -0.004109
v -0.000169 0.008785 -0.004109
v -0.000169 0.008785 -0.004109
v -0.000210 0.008785 -0.004109
v -0.000170 0.008787 -0.004110
v -0.000210 0.008789 -0.004110
v -0.000172 0.008791 -0.004111
v -0.000171 0.008789 -0.004110
v -0.000170 0.008787 -0.004110
v -0.000210 0.008789 -0.004110
v -0.000171 0.008789 -0.004110
v -0.000210 0.008789 -0.004110
v -0.000210 0.008792 -0.004112
v -0.000172 0.008791 -0.004111
v -0.000174 0.008795 -0.004112
v -0.000173 0.008793 -0.004112
v -0.000210 0.008792 -0.004112
v -0.000210 0.008796 -0.004112
v -0.000174 0.008795 -0.004112
v -0.000210 0.008792 -0.004112
v -0.000175 0.008799 -0.004113
v -0.000210 0.008796 -0.004112
v -0.000210 0.008799 -0.004113
v -0.000175 0.008799 -0.004113
v -0.000174 0.008797 -0.004112
v -0.000210 0.008796 -0.004112
v -0.000175 0.008801 -0.004113
v -0.000175 0.008799 -0.004113
v -0.000210 0.008799 -0.004113
v -0.000210 0.008803 -0.004113
v -0.000175 0.008801 -0.004113
v -0.000210 0.008799 -0.004113
v -0.000175 0.008805 -0.004113
v -0.000175 0.008803 -0.004113
v -0.000210 0.008803 -0.004113
v -0.000175 0.008807 -0.004113
v -0.000175 0.008805 -0.004113
v -0.000210 0.008807 -0.004113
v -0.000174 0.008809 -0.004112
v -0.000175 0.008807 -0.004113
v -0.000210 0.008810 -0.004112
v -0.000174 0.008811 -0.004112
v -0.000210 0.008814 -0.004112
v -0.000173 0.008813 -0.004112
v -0.000210 0.008814 -0.004112
v -0.000210 0.008817 -0.004110
v -0.000172 0.008815 -0.004111
v -0.000210 0.008817 -0.004110
v -0.000170 0.008819 -0.004110
v -0.000171 0.008817 -0.004110
v -0.000210 0.008817 -0.004110
v -0.000210 0.008821 -0.004109
v -0.000170 0.008819 -0.004110
v -0.000210 0.008821 -0.004109
v -0.000210 0.008824 -0.004107
v -0.000169 0.008821 -0.004109
v -0.000210 0.008824 -0.004107
v -0.000167 0.008824 -0.004107
v -0.000168 0.008822 -0.004108
v -0.000210 0.008796 -0.004112
v -0.000174 0.008797 -0.004112
v -0.000174 0.008795 -0.004112
v -0.000210 0.008789 -0.004110
v -0.000170 0.008787 -0.004110
v -0.000210 0.008785 -0.004109
v -0.000087 0.008816 -0.004111
v -0.000089 0.008818 -0.004110
v -0.000068 0.008817 -0.004111
v -0.000099 0.008815 -0.004111
v -0.000012 0.008817 -0.004110
v -0.000012 0.008820 -0.004109
v 0.000005 0.008818 -0.004110
v -0.000018 0.008816 -0.004111
v -0.000023 0.008819 -0.004110
v -0.000026 0.008814 -0.004111
v -0.000031 0.008816 -0.004111
v -0.000038 0.008819 -0.004110
v -0.000045 0.008816 -0.004111
v -0.000030 0.008822 -0.004108
v -0.000001 0.008808 -0.004113
v -0.000005 0.008805 -0.004113
v -0.000011 0.008809 -0.004113
v 0.000013 0.008810 -0.004112
v 0.000020 0.008807 -0.004113
v -0.000015 0.008791 -0.004111
v -0.000011 0.008788 -0.004110
v -0.000033 0.008790 -0.004111
v -0.000008 0.008792 -0.004111
v -0.000042 0.008785 -0.004109
v -0.000047 0.008782 -0.004107
v -0.000060 0.008784 -0.004108
v -0.000030 0.008786 -0.004109
v -0.000028 0.008783 -0.004108
v -0.000054 0.008780 -0.004106
v -0.000026 0.008780 -0.004106
v -0.000097 0.008791 -0.004111
v -0.000097 0.008794 -0.004112
v -0.000090 0.008792 -0.004112
v -0.000104 0.008787 -0.004110
v -0.000118 0.008791 -0.004111
v -0.000106 0.008785 -0.004109
v -0.000120 0.008787 -0.004110
v -0.000088 0.008789 -0.004110
v -0.000085 0.008785 -0.004109
v -0.000111 0.008813 -0.004112
v -0.000116 0.008811 -0.004112
v -0.000117 0.008813 -0.004112
v -0.000092 0.008812 -0.004112
v 0.000002 0.008815 -0.004111
v -0.000002 0.008812 -0.004112
v -0.000006 0.008816 -0.004111
v 0.000015 0.008816 -0.004111
v 0.000020 0.008814 -0.004112
v 0.000020 0.008810 -0.004112
v 0.000020 0.008807 -0.004113
v 0.000020 0.008814 -0.004112
v -0.000014 0.008813 -0.004112
v 0.000020 0.008814 -0.004112
v 0.000020 0.008810 -0.004112
v 0.000020 0.008817 -0.004110
v 0.000020 0.008814 -0.004112
v 0.000020 0.008817 -0.004110
v -0.000008 0.008780 -0.004106
v -0.000007 0.008782 -0.004107
v 0.000001 0.008782 -0.004107
v -0.000021 0.008778 -0.004104
v -0.000056 0.008776 -0.004103
v -0.000055 0.008778 -0.004104
v -0.000062 0.008778 -0.004104
v -0.000098 0.008779 -0.004105
v -0.000076 0.008781 -0.004106
v -0.000067 0.008785 -0.004109
v -0.000066 0.008788 -0.004110
v -0.000050 0.008788 -0.004110
v -0.000075 0.008784 -0.004108
v 0.000009 0.008787 -0.004109
v 0.000004 0.008784 -0.004108
v 0.000020 0.008785 -0.004109
v 0.000003 0.008790 -0.004111
v -0.000001 0.008793 -0.004112
v 0.000020 0.008792 -0.004112
v -0.000033 0.008798 -0.004113
v -0.000032 0.008801 -0.004113
v -0.000011 0.008798 -0.004113
v -0.000040 0.008796 -0.004112
v -0.000048 0.008798 -0.004113
v -0.000042 0.008793 -0.004112
v -0.000053 0.008796 -0.004112
v -0.000028 0.008796 -0.004112
v -0.000026 0.008793 -0.004112
v -0.000065 0.008791 -0.004111
v -0.000059 0.008793 -0.004112
v -0.000052 0.008789 -0.004111
v -0.000072 0.008793 -0.004112
v -0.000069 0.008796 -0.004112
v -0.000063 0.008799 -0.004113
v -0.000007 0.008822 -0.004108
v -0.000008 0.008825 -0.004107
v 0.000000 0.008822 -0.004108
v -0.000024 0.008822 -0.004108
v 0.000004 0.008780 -0.004105
v 0.000020 0.008782 -0.004107
v -0.000104 0.008797 -0.004113
v -0.000099 0.008800 -0.004113
v -0.000086 0.008798 -0.004113
v -0.000116 0.008797 -0.004112
v -0.000115 0.008799 -0.004113
v -0.000096 0.008803 -0.004113
v -0.000080 0.008802 -0.004113
v -0.000115 0.008799 -0.004113
v -0.000115 0.008801 -0.004113
v -0.000102 0.008809 -0.004113
v -0.000099 0.008806 -0.004113
v -0.000115 0.008807 -0.004113
v -0.000086 0.008808 -0.004113
v -0.000115 0.008803 -0.004113
v -0.000084 0.008805 -0.004113
v -0.000057 0.008803 -0.004113
v -0.000051 0.008806 -0.004113
v -0.000041 0.008803 -0.004113
v -0.000071 0.008803 -0.004113
v -0.000063 0.008807 -0.004113
v -0.000051 0.008800 -0.004113
v -0.000049 0.008809 -0.004113
v -0.000028 0.008807 -0.004113
v 0.000004 0.008797 -0.004113
v 0.000001 0.008801 -0.004113
v 0.000020 0.008799 -0.004113
v -0.000008 0.008795 -0.004112
v -0.000013 0.008795 -0.004112
v -0.000093 0.008783 -0.004107
v -0.000110 0.008781 -0.004106
v -0.000131 0.008776 -0.004103
v -0.000129 0.008777 -0.004104
v -0.000015 0.008785 -0.004108
v -0.000085 0.008795 -0.004112
v 0.000020 0.008821 -0.004109
v 0.000020 0.008824 -0.004107
v -0.000003 0.008828 -0.004105
v -0.000021 0.008828 -0.004104
v 0.000020 0.008830 -0.004103
v 0.000020 0.008827 -0.004105
v 0.000020 0.008830 -0.004103
v -0.000029 0.008825 -0.004106
v -0.000053 0.008826 -0.004105
v 0.000020 0.008827 -0.004105
v -0.000087 0.008822 -0.004108
v -0.000121 0.008821 -0.004109
v -0.000076 0.008824 -0.004107
v -0.000072 0.008821 -0.004109
v -0.000095 0.008825 -0.004107
v -0.000087 0.008827 -0.004105
v -0.000122 0.008822 -0.004108
v -0.000123 0.008824 -0.004107
v -0.000069 0.008810 -0.004112
v -0.000072 0.008814 -0.004112
v -0.000057 0.008814 -0.004111
v -0.000026 0.008803 -0.004113
v -0.000050 0.008813 -0.004112
v -0.000051 0.008819 -0.004110
v -0.000045 0.008823 -0.004108
v -0.000060 0.008816 -0.004111
v -0.000023 0.008811 -0.004112
v 0.000020 0.008803 -0.004113
v -0.000122 0.008784 -0.004108
v -0.000126 0.008780 -0.004106
v -0.000125 0.008781 -0.004106
v -0.000128 0.008779 -0.004105
v -0.000126 0.008780 -0.004106
v 0.000020 0.008785 -0.004109
v 0.000020 0.008782 -0.004107
v 0.000020 0.008779 -0.004105
v 0.000020 0.008776 -0.004103
v -0.000115 0.008803 -0.004113
v -0.000115 0.008805 -0.004113
v -0.000116 0.008811 -0.004112
v -0.000116 0.008809 -0.004112
v -0.000115 0.008807 -0.004113
v -0.000115 0.008805 -0.004113
v 0.000020 0.008796 -0.004112
v 0.000020 0.008799 -0.004113
v 0.000020 0.008814 -0.004112
v 0.000020 0.008807 -0.004113
v -0.000120 0.008819 -0.004110
v -0.000119 0.008817 -0.004110
v -0.000118 0.008815 -0.004111
v 0.000020 0.008821 -0.004109
v 0.000020 0.008824 -0.004107
v -0.000125 0.008825 -0.004106
v -0.000123 0.008824 -0.004107
v 0.000020 0.008779 -0.004105
v 0.000020 0.008782 -0.004107
v -0.000128 0.008779 -0.004105
v -0.000129 0.008777 -0.004104
v 0.000020 0.008789 -0.004110
v 0.000020 0.008785 -0.004109
v -0.000120 0.008787 -0.004110
v -0.000119 0.008789 -0.004110
v -0.000116 0.008795 -0.004112
v -0.000115 0.008807 -0.004113
v -0.000116 0.008809 -0.004112
v 0.000020 0.008830 -0.004103
v -0.000119 0.008817 -0.004110
v -0.000120 0.008819 -0.004110
v -0.000129 0.008829 -0.004104
v -0.000131 0.008830 -0.004103
v -0.000131 0.008830 -0.004103
v -0.000128 0.008828 -0.004105
v -0.000129 0.008829 -0.004104
v -0.000126 0.008826 -0.004106
v -0.000128 0.008828 -0.004105
v -0.000126 0.008826 -0.004106
v -0.000125 0.008825 -0.004106
v -0.000126 0.008826 -0.004106
v -0.000121 0.008821 -0.004109
v -0.000121 0.008821 -0.004109
v -0.000122 0.008822 -0.004108
v -0.000120 0.008819 -0.004110
v -0.000121 0.008821 -0.004109
v 0.000020 0.008807 -0.004113
v 0.000020 0.008803 -0.004113
v -0.000118 0.008815 -0.004111
v -0.000117 0.008813 -0.004112
v -0.000118 0.008815 -0.004111
v 0.000020 0.008799 -0.004113
v 0.000020 0.008803 -0.004113
v -0.000116 0.008811 -0.004112
v 0.000020 0.008792 -0.004112
v 0.000020 0.008796 -0.004112
v 0.000020 0.008796 -0.004112
v 0.000020 0.008789 -0.004110
v 0.000020 0.008792 -0.004112
v -0.000115 0.008803 -0.004113
v 0.000020 0.008782 -0.004107
v -0.000115 0.008799 -0.004113
v 0.000020 0.008789 -0.004110
v -0.000116 0.008797 -0.004112
v -0.000116 0.008795 -0.004112
v -0.000117 0.008793 -0.004112
v -0.000118 0.008791 -0.004111
v 0.000020 0.008776 -0.004103
v -0.000131 0.008776 -0.004103
v -0.000119 0.008789 -0.004110
v -0.000118 0.008791 -0.004111
v -0.000128 0.008779 -0.004105
v -0.000125 0.008781 -0.004106
v -0.000123 0.008782 -0.004107
v -0.000123 0.008782 -0.004107
v -0.000122 0.008784 -0.004108
v -0.000121 0.008785 -0.004109
v -0.000122 0.008784 -0.004108
v -0.000121 0.008785 -0.004109
v -0.000120 0.008787 -0.004110
v 0.000020 0.008776 -0.004103
v -0.000117 0.008793 -0.004112
v -0.000117 0.008793 -0.004112
v -0.000116 0.008795 -0.004112
v -0.000115 0.008801 -0.004113
v -0.000115 0.008803 -0.004113
v 0.000020 0.008827 -0.004105
v 0.000020 0.008824 -0.004107
v 0.000020 0.008821 -0.004109
v 0.000020 0.008817 -0.004110
v -0.000026 0.008757 -0.004083
v -0.000029 0.008761 -0.004087
v 0.000020 0.008760 -0.004086
v -0.000036 0.008756 -0.004082
v -0.000096 0.008774 -0.004101
v -0.000101 0.008770 -0.004097
v -0.000134 0.008775 -0.004102
v -0.000059 0.008770 -0.004097
v -0.000143 0.008738 -0.004052
v -0.000147 0.008740 -0.004057
v -0.000132 0.008739 -0.004053
v -0.000151 0.008736 -0.004047
v -0.000210 0.008738 -0.004051
v -0.000058 0.008757 -0.004083
v -0.000064 0.008754 -0.004079
v -0.000082 0.008757 -0.004082
v -0.000053 0.008747 -0.004069
v -0.000059 0.008744 -0.004063
v -0.000082 0.008746 -0.004066
v -0.000034 0.008749 -0.004071
v -0.000024 0.008746 -0.004066
v -0.000042 0.008742 -0.004059
v -0.000045 0.008739 -0.004054
v -0.000057 0.008741 -0.004058
v 0.000020 0.008742 -0.004059
v 0.000020 0.008749 -0.004071
v -0.000176 0.008743 -0.004061
v -0.000169 0.008746 -0.004066
v -0.000136 0.008744 -0.004063
v -0.000210 0.008742 -0.004059
v -0.000210 0.008744 -0.004063
v -0.000162 0.008749 -0.004071
v -0.000210 0.008744 -0.004063
v -0.000210 0.008747 -0.004067
v -0.000055 0.008751 -0.004074
v -0.000028 0.008753 -0.004077
v -0.000067 0.008749 -0.004071
v -0.000085 0.008753 -0.004076
v -0.000100 0.008749 -0.004071
v -0.000085 0.008744 -0.004063
v -0.000123 0.008748 -0.004070
v -0.000134 0.008751 -0.004074
v -0.000140 0.008754 -0.004079
v -0.000102 0.008753 -0.004077
v -0.000158 0.008753 -0.004077
v -0.000092 0.008754 -0.004079
v -0.000114 0.008756 -0.004081
v -0.000111 0.008760 -0.004086
v -0.000146 0.008759 -0.004085
v -0.000067 0.008741 -0.004057
v -0.000121 0.008741 -0.004057
v -0.000097 0.008740 -0.004055
v -0.000075 0.008761 -0.004087
v -0.000092 0.008761 -0.004088
v -0.000050 0.008765 -0.004092
v -0.000042 0.008768 -0.004095
v -0.000017 0.008765 -0.004092
v -0.000078 0.008766 -0.004093
v 0.000020 0.008766 -0.004093
v 0.000020 0.008763 -0.004090
v -0.000014 0.008755 -0.004079
v 0.000020 0.008752 -0.004075
v -0.000086 0.008739 -0.004053
v -0.000096 0.008736 -0.004047
v -0.000157 0.008771 -0.004098
v -0.000152 0.008774 -0.004101
v -0.000151 0.008774 -0.004100
v -0.000168 0.008765 -0.004092
v -0.000210 0.008770 -0.004097
v -0.000161 0.008761 -0.004087
v -0.000210 0.008763 -0.004090
v -0.000133 0.008769 -0.004095
v -0.000135 0.008763 -0.004090
v -0.000210 0.008752 -0.004075
v -0.000171 0.008757 -0.004082
v -0.000210 0.008754 -0.004079
v -0.000210 0.008757 -0.004083
v -0.000052 0.008771 -0.004098
v 0.000020 0.008776 -0.004103
v -0.000109 0.008765 -0.004091
v -0.000210 0.008736 -0.004047
v -0.000210 0.008738 -0.004051
v -0.000210 0.008740 -0.004055
v -0.000040 0.008736 -0.004046
v 0.000020 0.008736 -0.004047
v 0.000020 0.008738 -0.004051
v -0.000210 0.008736 -0.004047
v -0.000210 0.008734 -0.004042
v -0.000210 0.008738 -0.004051
v -0.000210 0.008736 -0.004047
v -0.000210 0.008749 -0.004071
v -0.000210 0.008752 -0.004075
v -0.000210 0.008749 -0.004071
v -0.000210 0.008747 -0.004067
v 0.000020 0.008757 -0.004083
v 0.000020 0.008749 -0.004071
v 0.000020 0.008747 -0.004067
v 0.000020 0.008740 -0.004055
v 0.000020 0.008742 -0.004059
v -0.000210 0.008760 -0.004086
v -0.000210 0.008757 -0.004083
v 0.000020 0.008770 -0.004097
v 0.000020 0.008773 -0.004100
v 0.000020 0.008752 -0.004075
v -0.000143 0.008773 -0.004100
v -0.000141 0.008773 -0.004100
v -0.000145 0.008773 -0.004100
v -0.000143 0.008773 -0.004100
v 0.000020 0.008763 -0.004090
v 0.000020 0.008760 -0.004086
v -0.000210 0.008749 -0.004071
v -0.000140 0.008774 -0.004100
v -0.000141 0.008773 -0.004100
v -0.000210 0.008760 -0.004086
v -0.000210 0.008776 -0.004103
v -0.000159 0.008776 -0.004103
v -0.000210 0.008773 -0.004100
v -0.000210 0.008773 -0.004100
v -0.000159 0.008776 -0.004103
v -0.000157 0.008776 -0.004102
v -0.000156 0.008775 -0.004102
v -0.000210 0.008773 -0.004100
v -0.000157 0.008776 -0.004102
v -0.000156 0.008775 -0.004102
v -0.000154 0.008774 -0.004101
v -0.000154 0.008774 -0.004101
v -0.000152 0.008774 -0.004101
v -0.000147 0.008773 -0.004100
v -0.000149 0.008773 -0.004100
v -0.000147 0.008773 -0.004100
v -0.000145 0.008773 -0.004100
v -0.000210 0.008770 -0.004097
v -0.000210 0.008766 -0.004093
v -0.000210 0.008763 -0.004090
v -0.000210 0.008766 -0.004093
v 0.000020 0.008752 -0.004075
v 0.000020 0.008749 -0.004071
v 0.000020 0.008747 -0.004067
v 0.000020 0.008744 -0.004063
v -0.000210 0.008752 -0.004075
v -0.000210 0.008754 -0.004079
v -0.000210 0.008740 -0.004055
v -0.000210 0.008738 -0.004051
v -0.000210 0.008742 -0.004059
v -0.000210 0.008740 -0.004055
v 0.000020 0.008736 -0.004047
v 0.000020 0.008734 -0.004042
v -0.000210 0.008744 -0.004063
v 0.000020 0.008736 -0.004047
v 0.000020 0.008738 -0.004051
v 0.000020 0.008740 -0.004055
v -0.000210 0.008754 -0.004079
v 0.000020 0.008752 -0.004075
v 0.000020 0.008754 -0.004079
v -0.000138 0.008774 -0.004101
v -0.000140 0.008774 -0.004100
v 0.000020 0.008757 -0.004083
v 0.000020 0.008760 -0.004086
v 0.000020 0.008770 -0.004097
v 0.000020 0.008773 -0.004100
v 0.000020 0.008773 -0.004100
v 0.000020 0.008776 -0.004103
v 0.000020 0.008760 -0.004086
v -0.000131 0.008776 -0.004103
v -0.000131 0.008776 -0.004103
v -0.000133 0.008776 -0.004102
v -0.000133 0.008776 -0.004102
v -0.000134 0.008775 -0.004102
v -0.000134 0.008775 -0.004102
v -0.000136 0.008774 -0.004101
v -0.000136 0.008774 -0.004101
v -0.000138 0.008774 -0.004101
v 0.000020 0.008770 -0.004097
v 0.000020 0.008766 -0.004093
v 0.000020 0.008757 -0.004083
v 0.000020 0.008754 -0.004079
v 0.000020 0.008740 -0.004055
v 0.000020 0.008738 -0.004051
v 0.000020 0.008744 -0.004063
v 0.000020 0.008742 -0.004059
v -0.000145 0.008773 -0.004100
v -0.000210 0.008760 -0.004086
v -0.000210 0.008763 -0.004090
v -0.000210 0.008770 -0.004097
v -0.000210 0.008773 -0.004100
v -0.000151 0.008774 -0.004100
v -0.000149 0.008773 -0.004100
v -0.000138 0.008774 -0.004101
v -0.000210 0.008773 -0.004100
v -0.000156 0.008775 -0.004102
vn -1.0000 -0.0000 -0.0000
vn -1.0000 -0.0001 -0.0000
vn -1.0000 0.0001 -0.0000
vn 1.0000 -0.0000 -0.0000
vn -0.0000 -1.0000 -0.0000
vn -0.0000 -1.0000 -0.0001
vn -0.9977 -0.0680 0.0002
vn -1.0000 -0.0020 -0.0000
vn -0.9897 -0.1430 -0.0000
vn -0.9974 -0.0726 -0.0000
vn -0.9771 -0.2127 -0.0000
vn -0.9908 -0.1355 -0.0000
vn -0.9793 -0.2024 -0.0000
vn -0.9597 -0.2810 -0.0000
vn -0.9633 -0.2685 0.0001
vn -0.9376 -0.3477 -0.0000
vn -0.9428 -0.3333 -0.0000
vn -0.9111 -0.4121 -0.0000
vn -0.9181 -0.3965 0.0002
vn -0.8890 -0.4579 0.0001
vn -0.8806 -0.4738 -0.0000
vn -0.8464 -0.5325 -0.0000
vn -0.8559 -0.5172 0.0002
vn -0.8090 -0.5878 -0.0000
vn -0.8188 -0.5741 -0.0000
vn -0.7779 -0.6284 -0.0002
vn -0.7685 -0.6399 -0.0000
vn -0.7250 -0.6887 -0.0000
vn -0.6787 -0.7344 -0.0000
vn -0.7334 -0.6798 -0.0000
vn -0.5227 -0.8525 -0.0000
vn -0.5240 -0.8517 -0.0000
vn -0.4650 -0.8853 -0.0000
vn -0.5806 -0.8142 -0.0001
vn -0.5775 -0.8164 -0.0000
vn -0.6345 -0.7730 -0.0002
vn -0.6295 -0.7770 -0.0000
vn -0.6856 -0.7280 -0.0003
vn -0.9976 0.0690 -0.0000
vn -0.9967 0.0811 -0.0000
vn -0.9902 0.1394 -0.0000
vn -0.9868 0.1617 -0.0000
vn -0.9779 0.2091 -0.0000
vn -0.9705 0.2412 0.0001
vn -0.9607 0.2775 -0.0000
vn -0.9388 0.3443 -0.0000
vn -0.9477 0.3191 0.0002
vn -0.9187 0.3949 0.0002
vn -0.9126 0.4089 -0.0000
vn -0.8822 0.4709 -0.0000
vn -0.8837 0.4680 0.0001
vn -0.8481 0.5299 -0.0000
vn -0.8428 0.5382 0.0001
vn -0.7964 0.6048 -0.0000
vn -0.8106 0.5856 -0.0000
vn -0.7447 0.6674 -0.0000
vn -0.6796 0.7336 -0.0000
vn -0.6882 0.7255 -0.0003
vn -0.7262 0.6874 -0.0000
vn -0.7699 0.6381 -0.0000
vn -0.6302 0.7765 -0.0000
vn -0.5779 0.8161 -0.0000
vn -0.5228 0.8524 -0.0000
vn -0.5618 0.8273 -0.0001
vn -0.6270 0.7790 -0.0001
vn -0.4650 0.8853 -0.0000
vn -0.4927 0.8702 -0.0001
vn -0.4124 0.9110 -0.0000
vn -0.4208 0.9072 0.0001
vn -0.3576 0.9339 -0.0000
vn -0.3457 0.9383 -0.0001
vn -0.3008 0.9537 -0.0000
vn -0.2684 0.9633 -0.0001
vn -0.2423 0.9702 -0.0000
vn -0.1895 0.9819 -0.0001
vn -0.1825 0.9832 -0.0000
vn -0.1220 0.9925 -0.0000
vn -0.0605 0.9982 -0.0000
vn -0.1093 0.9940 -0.0002
vn -0.0283 0.9996 -0.0003
vn 0.0008 1.0000 -0.0000
vn 0.0624 0.9981 -0.0000
vn 0.0530 0.9986 -0.0000
vn 0.1337 0.9910 0.0001
vn 0.1235 0.9923 -0.0000
vn 0.2137 0.9769 -0.0002
vn 0.1836 0.9830 -0.0000
vn 0.2922 0.9564 -0.0000
vn 0.2433 0.9700 -0.0000
vn 0.3687 0.9295 -0.0002
vn 0.3014 0.9535 -0.0000
vn 0.3579 0.9338 -0.0000
vn 0.4431 0.8965 0.0001
vn 0.4125 0.9110 -0.0000
vn 0.4649 0.8854 -0.0000
vn 0.5142 0.8577 -0.0003
vn 0.5226 0.8526 -0.0000
vn 0.5821 0.8131 -0.0002
vn 0.5775 0.8164 -0.0000
vn 0.6295 0.7770 -0.0000
vn 0.6461 0.7632 -0.0000
vn 0.7058 0.7084 -0.0001
vn 0.6787 0.7344 -0.0000
vn 0.7250 0.6887 -0.0000
vn 0.7610 0.6488 0.0001
vn 0.7685 0.6399 -0.0000
vn 0.8090 0.5878 -0.0000
vn 0.8112 0.5848 -0.0000
vn 0.8559 0.5171 0.0001
vn 0.8949 0.4462 0.0003
vn 0.8464 0.5325 -0.0000
vn 0.8806 0.4738 -0.0000
vn 0.9282 0.3720 0.0002
vn 0.9111 0.4121 -0.0000
vn 0.9376 0.3477 -0.0000
vn 0.9553 0.2955 0.0003
vn 0.9597 0.2810 -0.0000
vn 0.9905 0.1374 0.0001
vn 0.9761 0.2171 0.0004
vn 0.9771 0.2127 -0.0000
vn 0.9897 0.1430 -0.0000
vn 0.9779 -0.2091 -0.0000
vn 0.9607 -0.2775 -0.0000
vn 0.9642 -0.2651 -0.0000
vn 0.9984 0.0565 -0.0002
vn 0.9974 0.0726 -0.0000
vn 0.8822 -0.4708 -0.0000
vn 0.8481 -0.5298 -0.0000
vn 0.8719 -0.4897 -0.0002
vn 0.7262 -0.6875 -0.0000
vn 0.7280 -0.6856 -0.0000
vn 0.7813 -0.6242 -0.0000
vn 0.5228 -0.8524 -0.0000
vn 0.6073 -0.7945 -0.0001
vn 0.5778 -0.8162 -0.0000
vn 0.4713 -0.8820 -0.0018
vn 0.4125 -0.9109 -0.0000
vn 0.3981 -0.9173 0.0002
vn 0.2433 -0.9700 -0.0000
vn 0.2447 -0.9696 -0.0000
vn 0.3226 -0.9465 -0.0000
vn 0.1235 -0.9923 -0.0000
vn 0.1652 -0.9863 -0.0002
vn 0.1839 -0.9829 -0.0000
vn 0.0624 -0.9981 -0.0000
vn 0.0035 -1.0000 -0.0003
vn 0.0846 -0.9964 -0.0003
vn 0.0010 -1.0000 -0.0000
vn -0.0606 -0.9982 -0.0000
vn -0.1218 -0.9925 -0.0000
vn -0.0776 -0.9970 -0.0000
vn -0.1825 -0.9832 -0.0000
vn -0.1582 -0.9874 -0.0002
vn -0.2424 -0.9702 -0.0000
vn -0.2378 -0.9713 0.0001
vn -0.3008 -0.9537 -0.0000
vn -0.3159 -0.9488 -0.0004
vn -0.4124 -0.9110 -0.0000
vn -0.3916 -0.9201 0.0002
vn -0.3576 -0.9339 0.0005
vn 0.3014 -0.9535 -0.0000
vn 0.3579 -0.9338 -0.0000
vn 0.4649 -0.8854 -0.0000
vn 0.5413 -0.8408 0.0003
vn 0.6301 -0.7765 -0.0000
vn 0.6700 -0.7424 0.0001
vn 0.6796 -0.7336 -0.0000
vn 0.7699 -0.6382 -0.0000
vn 0.8293 -0.5588 0.0001
vn 0.8106 -0.5856 -0.0000
vn 0.9087 -0.4174 0.0001
vn 0.9126 -0.4088 -0.0000
vn 0.9396 -0.3424 0.0001
vn 0.9389 -0.3442 -0.0000
vn 0.9825 -0.1861 -0.0000
vn 0.9902 -0.1394 -0.0000
vn 0.9944 -0.1057 -0.0002
vn 0.9976 -0.0690 -0.0000
vn 0.9997 -0.0247 -0.0000
vn 1.0000 0.0020 0.0001
vn -0.0000 1.0000 -0.0000
vn -0.0000 1.0000 -0.0001
vn 0.0001 -0.0000 1.0000
vn -0.0000 -0.0000 1.0000
vn -0.0002 -0.0000 1.0000
vn -0.0001 -0.0000 1.0000
vn 0.0002 -0.0000 1.0000
vn -0.0000 0.8155 -0.5788
vn -0.0001 0.8016 -0.5979
vn -0.0000 0.8131 -0.5821
vn -0.0000 0.8087 -0.5882
vn -0.0000 0.7651 -0.6439
vn -0.0000 0.7879 -0.6158
vn -0.0000 0.7593 -0.6508
vn -0.0000 0.7473 -0.6645
vn -0.0000 0.7621 -0.6475
vn -0.0000 0.7216 -0.6923
vn -0.0000 0.6914 -0.7224
vn -0.0000 0.7247 -0.6890
vn -0.0000 0.7197 -0.6943
vn -0.0000 0.6901 -0.7237
vn -0.0000 0.7355 -0.6775
vn -0.0000 0.7913 -0.6115
vn -0.0000 0.7829 -0.6221
vn -0.0000 0.7435 -0.6688
vn -0.0000 0.7465 -0.6654
vn -0.0000 0.9023 -0.4311
vn -0.0000 0.8890 -0.4578
vn -0.0000 0.9062 -0.4229
vn -0.0000 0.9001 -0.4357
vn -0.0000 0.7884 -0.6151
vn -0.0003 0.8130 -0.5822
vn -0.0000 0.7951 -0.6065
vn -0.0000 0.7839 -0.6208
vn -0.0000 0.8017 -0.5977
vn 0.0001 0.7671 -0.6416
vn -0.0000 0.7391 -0.6736
vn -0.0004 0.7695 -0.6386
vn -0.0000 0.8016 -0.5978
vn -0.0000 0.8352 -0.5500
vn -0.0000 0.8243 -0.5662
vn -0.0000 0.8188 -0.5741
vn -0.0000 0.8457 -0.5337
vn -0.0001 0.8660 -0.5001
vn -0.0000 0.8559 -0.5172
vn -0.0000 0.8351 -0.5501
vn -0.0000 0.8558 -0.5172
vn -0.0000 0.8796 -0.4756
vn -0.0000 0.8978 -0.4405
vn -0.0000 0.8934 -0.4492
vn -0.0000 0.8835 -0.4684
vn -0.0000 0.8658 -0.5004
vn -0.0000 0.8508 -0.5255
vn -0.0000 0.8753 -0.4835
vn -0.0002 0.8560 -0.5170
vn -0.0001 0.8657 -0.5006
vn -0.0000 0.8658 -0.5005
vn -0.0000 0.8422 -0.5392
vn -0.0000 0.8093 -0.5873
vn -0.0000 0.7899 -0.6133
vn -0.0000 0.7654 -0.6435
vn -0.0000 0.8860 -0.4636
vn -0.0000 0.8800 -0.4750
vn -0.0000 0.8869 -0.4620
vn -0.0001 0.8936 -0.4489
vn -0.0000 0.9168 -0.3994
vn -0.0000 0.8997 -0.4366
vn -0.0000 0.9181 -0.3964
vn -0.0000 0.9194 -0.3934
vn -0.0000 0.7064 -0.7078
vn -0.0000 0.6640 -0.7477
vn -0.0000 0.7840 -0.6208
vn -0.0001 0.7381 -0.6747
vn -0.0000 0.7023 -0.7119
vn -0.0000 0.7039 -0.7103
vn -0.0000 0.6823 -0.7311
vn -0.0000 0.6798 -0.7334
vn -0.0000 0.7839 -0.6209
vn -0.0000 0.7884 -0.6152
vn -0.0000 0.7655 -0.6434
vn -0.0000 0.6851 -0.7284
vn -0.0000 0.7065 -0.7078
vn -0.0000 0.7354 -0.6776
vn -0.0000 0.7268 -0.6869
vn -0.0000 0.7464 -0.6655
vn -0.0000 0.6688 -0.7434
vn -0.0000 0.6730 -0.7396
vn -0.0000 0.6855 -0.7281
vn -0.0000 0.8935 -0.4491
vn -0.0000 0.7592 -0.6508
vn -0.0000 0.6687 -0.7435
vn -0.0000 0.6640 -0.7478
vn 0.0001 0.6855 -0.7281
vn -0.0000 0.6767 -0.7362
vn -0.0000 0.7065 -0.7077
vn -0.0000 0.6768 -0.7362
vn -0.0000 0.7267 -0.6869
vn -0.0001 0.7023 -0.7119
vn -0.0000 0.6840 -0.7294
vn -0.0000 0.7671 -0.6416
vn -0.0000 0.6840 -0.7295
vn -0.0000 0.6822 -0.7311
vn -0.0000 0.6901 -0.7238
vn -0.0001 0.6822 -0.7312
vn -0.0001 0.6688 -0.7435
vn -0.0000 0.8352 -0.5499
vn -0.0000 0.8754 -0.4835
vn -0.0000 0.9293 -0.3694
vn -0.0000 0.9061 -0.4230
vn -0.0000 0.6841 -0.7294
vn -0.0000 0.6395 -0.7688
vn -0.0000 0.6123 -0.7906
vn -0.0000 0.6639 -0.7478
vn -0.0000 0.6393 -0.7689
vn -0.0000 0.5935 -0.8048
vn -0.0000 0.5827 -0.8127
vn -0.0001 0.5827 -0.8127
vn -0.0000 0.5506 -0.8348
vn -0.0000 0.5160 -0.8566
vn -0.0000 0.5181 -0.8553
vn -0.0000 0.5935 -0.8049
vn -0.0000 0.4789 -0.8779
vn -0.0000 0.4394 -0.8983
vn -0.0000 0.5182 -0.8553
vn -0.0000 0.3974 -0.9176
vn -0.0000 0.4384 -0.8988
vn -0.0000 0.3530 -0.9356
vn -0.0000 0.3065 -0.9519
vn -0.0000 0.3551 -0.9348
vn -0.0000 0.2581 -0.9661
vn -0.0000 0.2690 -0.9631
vn -0.0000 0.2688 -0.9632
vn -0.0000 0.2080 -0.9781
vn -0.0000 0.1805 -0.9836
vn -0.0000 0.1568 -0.9876
vn -0.0000 0.0907 -0.9959
vn -0.0000 0.1045 -0.9945
vn -0.0000 -0.0000 -1.0000
vn -0.0000 0.0906 -0.9959
vn -0.0000 0.0517 -0.9987
vn -0.0000 -0.0544 -0.9985
vn -0.0000 -0.0014 -1.0000
vn -0.0000 -0.2607 -0.9654
vn -0.0000 -0.3089 -0.9511
vn -0.0000 -0.2690 -0.9631
vn -0.0000 -0.6640 -0.7477
vn -0.0000 -0.6395 -0.7688
vn -0.0000 -0.6126 -0.7904
vn -0.0000 -0.5935 -0.8048
vn -0.0000 -0.5831 -0.8124
vn -0.0000 -0.5513 -0.8343
vn -0.0000 -0.5832 -0.8124
vn -0.0000 -0.5170 -0.8560
vn -0.0000 -0.5181 -0.8553
vn -0.0000 -0.5935 -0.8049
vn -0.0000 -0.4803 -0.8771
vn -0.0000 -0.5182 -0.8553
vn -0.0000 -0.4411 -0.8974
vn -0.0000 -0.4385 -0.8987
vn -0.0000 -0.4411 -0.8975
vn -0.0000 -0.4384 -0.8988
vn -0.0000 -0.3994 -0.9168
vn -0.0000 -0.3551 -0.9348
vn -0.0000 -0.3553 -0.9348
vn -0.0000 -0.3552 -0.9348
vn -0.0000 -0.2691 -0.9631
vn -0.0000 -0.2106 -0.9776
vn -0.0000 -0.2606 -0.9655
vn -0.0000 -0.2689 -0.9632
vn -0.0000 -0.1805 -0.9836
vn -0.0000 -0.2688 -0.9632
vn -0.0000 -0.1072 -0.9942
vn -0.0000 -0.0907 -0.9959
vn -0.0000 -0.1074 -0.9942
vn -0.0000 -0.1594 -0.9872
vn -0.0000 -0.0545 -0.9985
vn -0.0000 -0.0906 -0.9959
vn -0.0000 0.2081 -0.9781
vn -0.0000 0.3552 -0.9348
vn -0.0000 0.3531 -0.9356
vn -0.0000 0.3974 -0.9177
vn -0.0000 0.3214 -0.9469
vn -0.0000 0.3856 -0.9227
vn -0.0000 0.3445 -0.9388
vn -0.0000 0.3058 -0.9521
vn -0.0000 0.3615 -0.9324
vn -0.0000 0.4277 -0.9039
vn -0.0001 0.3848 -0.9230
vn -0.0000 0.3305 -0.9438
vn -0.0000 0.3911 -0.9204
vn -0.0000 0.2743 -0.9616
vn -0.0000 0.3288 -0.9444
vn -0.0001 0.4021 -0.9156
vn -0.0000 0.3201 -0.9474
vn -0.0000 0.4667 -0.8844
vn -0.0000 0.1241 -0.9923
vn -0.0000 0.0524 -0.9986
vn -0.0000 0.1532 -0.9882
vn -0.0000 0.1656 -0.9862
vn -0.0000 -0.3053 -0.9523
vn -0.0000 -0.3725 -0.9280
vn -0.0000 -0.3138 -0.9495
vn -0.0000 -0.2802 -0.9599
vn -0.0000 -0.4394 -0.8983
vn -0.0000 -0.5169 -0.8561
vn -0.0000 -0.4775 -0.8786
vn -0.0000 -0.4170 -0.9089
vn -0.0000 -0.4943 -0.8693
vn -0.0000 -0.5766 -0.8170
vn -0.0000 -0.5735 -0.8192
vn -0.0000 -0.2966 -0.9550
vn -0.0000 -0.2312 -0.9729
vn -0.0000 -0.2661 -0.9639
vn -0.0000 -0.3900 -0.9208
vn -0.0000 -0.3065 -0.9519
vn -0.0000 -0.4541 -0.8910
vn -0.0000 -0.3974 -0.9176
vn -0.0000 -0.3613 -0.9324
vn -0.0000 -0.4471 -0.8945
vn -0.0000 0.2592 -0.9658
vn -0.0000 0.2106 -0.9776
vn -0.0000 0.2606 -0.9655
vn -0.0000 0.2207 -0.9753
vn -0.0000 0.2958 -0.9552
vn -0.0000 0.2250 -0.9744
vn -0.0000 0.3247 -0.9458
vn -0.0000 0.3367 -0.9416
vn -0.0000 0.2689 -0.9632
vn -0.0000 0.1657 -0.9862
vn -0.0000 0.2515 -0.9679
vn -0.0000 0.2691 -0.9631
vn -0.0000 -0.5803 -0.8144
vn -0.0000 -0.5171 -0.8559
vn -0.0000 -0.5247 -0.8513
vn -0.0000 -0.6347 -0.7727
vn -0.0000 -0.6640 -0.7478
vn -0.0000 -0.6357 -0.7719
vn -0.0000 -0.6175 -0.7866
vn -0.0000 -0.5999 -0.8001
vn -0.0000 -0.5495 -0.8355
vn -0.0000 -0.3709 -0.9287
vn -0.0000 -0.3817 -0.9243
vn -0.0000 -0.4681 -0.8837
vn -0.0000 -0.4123 -0.9110
vn -0.0000 -0.4682 -0.8836
vn -0.0000 -0.3278 -0.9448
vn -0.0000 -0.2543 -0.9671
vn -0.0000 -0.1375 -0.9905
vn -0.0000 -0.1172 -0.9931
vn -0.0000 -0.1871 -0.9823
vn 0.0001 -0.1304 -0.9915
vn -0.0000 -0.2595 -0.9658
vn -0.0000 -0.1870 -0.9824
vn -0.0000 -0.1703 -0.9854
vn -0.0000 -0.2618 -0.9651
vn -0.0000 -0.2974 -0.9547
vn -0.0000 -0.2616 -0.9652
vn -0.0000 -0.3379 -0.9412
vn -0.0000 -0.2582 -0.9661
vn -0.0000 -0.1701 -0.9854
vn -0.0000 -0.0992 -0.9951
vn -0.0000 0.4827 -0.8758
vn -0.0000 0.5463 -0.8376
vn -0.0000 0.4717 -0.8818
vn -0.0000 0.4857 -0.8741
vn -0.0000 -0.5860 -0.8103
vn 0.0002 -0.1546 -0.9880
vn -0.0001 -0.0741 -0.9973
vn -0.0000 -0.1204 -0.9927
vn -0.0000 -0.1544 -0.9880
vn -0.0000 -0.1568 -0.9876
vn -0.0000 -0.1045 -0.9945
vn -0.0000 0.0031 -1.0000
vn -0.0000 -0.0239 -0.9997
vn -0.0000 -0.0740 -0.9973
vn -0.0000 -0.0517 -0.9987
vn -0.0000 0.1535 -0.9881
vn -0.0000 0.0797 -0.9968
vn -0.0000 0.1072 -0.9942
vn -0.0000 0.1284 -0.9917
vn -0.0000 0.0014 -1.0000
vn -0.0000 0.0451 -0.9990
vn -0.0000 0.0043 -1.0000
vn -0.0000 0.0845 -0.9964
vn -0.0000 0.0044 -1.0000
vn 0.0001 0.0037 -1.0000
vn -0.0000 0.1084 -0.9941
vn -0.0000 -0.0752 -0.9972
vn -0.0000 0.1403 -0.9901
vn -0.0000 0.0992 -0.9951
vn -0.0000 -0.1427 -0.9898
vn -0.0000 -0.0519 -0.9987
vn -0.0000 -0.1947 -0.9809
vn -0.0001 -0.2115 -0.9774
vn -0.0000 -0.5089 -0.8608
vn -0.0000 -0.5559 -0.8313
vn -0.0000 -0.4624 -0.8867
vn -0.0000 -0.2036 -0.9791
vn -0.0000 0.6147 -0.7887
vn -0.0000 0.6304 -0.7762
vn -0.0000 0.6148 -0.7887
vn -0.0000 0.5597 -0.8287
vn -0.0000 0.5836 -0.8121
vn -0.0000 0.4835 -0.8753
vn -0.0000 0.4411 -0.8975
vn -0.0000 0.5221 -0.8529
vn -0.0000 0.4397 -0.8981
vn -0.0000 0.5387 -0.8425
vn -0.0000 0.6103 -0.7922
vn -0.0000 0.4803 -0.8771
vn -0.0000 0.5170 -0.8560
vn -0.0000 0.2715 -0.9624
vn -0.0000 0.2752 -0.9614
vn -0.0000 0.0033 -1.0000
vn -0.0000 0.2459 -0.9693
vn -0.0000 0.4084 -0.9128
vn -0.0000 0.4880 -0.8728
vn -0.0000 0.3192 -0.9477
vn -0.0000 0.2090 -0.9779
vn -0.0000 -0.4789 -0.8779
vn -0.0000 -0.5559 -0.8312
vn -0.0000 -0.5827 -0.8127
vn -0.0000 -0.5506 -0.8348
vn -0.0000 -0.5558 -0.8313
vn -0.0000 -0.6123 -0.7906
vn -0.0000 -0.5861 -0.8103
vn -0.0000 0.0544 -0.9985
vn -0.0000 0.2107 -0.9776
vn -0.0000 0.1535 -0.9882
vn -0.0000 0.1594 -0.9872
vn -0.0000 0.1073 -0.9942
vn -0.0000 0.0545 -0.9985
vn -0.0000 0.3994 -0.9168
vn -0.0000 0.3553 -0.9348
vn -0.0000 0.3090 -0.9511
vn -0.0000 0.4718 -0.8817
vn -0.0000 0.5513 -0.8343
vn -0.0000 -0.6394 -0.7689
vn -0.0000 -0.4123 -0.9111
vn -0.0000 -0.3531 -0.9356
vn -0.0000 -0.2081 -0.9781
vn -0.0000 0.1595 -0.9872
vn -0.0000 0.6126 -0.7904
vn -0.0000 0.5832 -0.8123
vn -0.0000 0.6125 -0.7905
vn -0.0000 0.5831 -0.8124
vn -0.0001 0.5832 -0.8123
vn -0.0000 0.4411 -0.8974
vn -0.0000 0.0525 -0.9986
vn -0.0000 0.3089 -0.9511
vn -0.0000 0.2606 -0.9654
vn -0.0000 -0.3278 -0.9447
vn -0.0000 -0.1567 -0.9877
vn -0.0000 -0.1543 -0.9880
vn -0.0000 -0.2080 -0.9781
vn -0.0000 -0.2581 -0.9661
vn -0.0000 -0.3530 -0.9356
vn -0.0000 -0.5506 -0.8347
vn -0.0000 -0.5160 -0.8566
vn -0.0000 -0.4541 -0.8909
vn -0.0000 -0.6639 -0.7478
vn -0.0000 0.0013 -1.0000
vn -0.0000 0.4383 -0.8988
vn -0.0000 0.3848 -0.9230
vn -0.0000 -0.7843 -0.6204
vn -0.0000 -0.7626 -0.6469
vn -0.0000 -0.7655 -0.6434
vn -0.0000 -0.7887 -0.6148
vn -0.0000 -0.6774 -0.7356
vn -0.0000 -0.7036 -0.7106
vn -0.0000 -0.6730 -0.7396
vn -0.0000 -0.7033 -0.7109
vn -0.0000 -0.9023 -0.4310
vn -0.0000 -0.8890 -0.4578
vn -0.0000 -0.9001 -0.4356
vn -0.0000 -0.9168 -0.3993
vn -0.0000 -0.9062 -0.4229
vn -0.0000 -0.7841 -0.6207
vn -0.0000 -0.8017 -0.5978
vn -0.0000 -0.7876 -0.6162
vn -0.0002 -0.8457 -0.5337
vn -0.0001 -0.8660 -0.5001
vn -0.0000 -0.8558 -0.5172
vn -0.0000 -0.8351 -0.5500
vn -0.0000 -0.8559 -0.5172
vn -0.0000 -0.8797 -0.4756
vn -0.0000 -0.8978 -0.4405
vn -0.0000 -0.8835 -0.4684
vn -0.0000 -0.8800 -0.4750
vn -0.0000 -0.8753 -0.4835
vn 0.0001 -0.8558 -0.5174
vn -0.0001 -0.8657 -0.5006
vn -0.0000 -0.8658 -0.5004
vn 0.0001 -0.8352 -0.5500
vn -0.0000 -0.8508 -0.5255
vn -0.0001 -0.8243 -0.5661
vn -0.0000 -0.8087 -0.5883
vn -0.0001 -0.8351 -0.5500
vn -0.0000 -0.8131 -0.5821
vn -0.0000 -0.8351 -0.5501
vn -0.0000 -0.8658 -0.5005
vn -0.0000 -0.8422 -0.5392
vn -0.0000 -0.8243 -0.5662
vn -0.0000 -0.8016 -0.5978
vn -0.0000 -0.8094 -0.5873
vn -0.0000 -0.8089 -0.5879
vn -0.0000 -0.7899 -0.6133
vn -0.0000 -0.7654 -0.6435
vn -0.0000 -0.7705 -0.6374
vn -0.0000 -0.8860 -0.4636
vn -0.0000 -0.8869 -0.4620
vn -0.0001 -0.8936 -0.4489
vn -0.0000 -0.7610 -0.6487
vn -0.0000 -0.7583 -0.6519
vn -0.0001 -0.7360 -0.6770
vn -0.0000 -0.7175 -0.6966
vn -0.0000 -0.7359 -0.6771
vn -0.0000 -0.7269 -0.6868
vn -0.0000 -0.7267 -0.6869
vn -0.0000 -0.7464 -0.6655
vn -0.0000 -0.8008 -0.5989
vn -0.0000 -0.8188 -0.5741
vn -0.0000 -0.8997 -0.4366
vn -0.0000 -0.9181 -0.3964
vn -0.0000 -0.6991 -0.7150
vn -0.0000 -0.6798 -0.7334
vn -0.0000 -0.6822 -0.7311
vn -0.0000 -0.7340 -0.6791
vn -0.0000 -0.7064 -0.7078
vn -0.0000 -0.7613 -0.6484
vn -0.0000 -0.7465 -0.6654
vn -0.0000 -0.7131 -0.7011
vn -0.0000 -0.7471 -0.6647
vn -0.0000 -0.7886 -0.6150
vn -0.0000 -0.7886 -0.6149
vn -0.0000 -0.8017 -0.5977
vn -0.0000 -0.7839 -0.6208
vn -0.0000 -0.6952 -0.7188
vn -0.0000 -0.7367 -0.6762
vn -0.0000 -0.9061 -0.4230
vn -0.0000 -0.8934 -0.4492
vn -0.0000 -0.9194 -0.3934
vn -0.0000 -0.9293 -0.3694
vn -0.0000 -0.9168 -0.3994
vn -0.0000 -0.8352 -0.5500
vn -0.0000 -0.7840 -0.6207
vn -0.0000 -0.7885 -0.6150
vn -0.0000 -0.7839 -0.6209
vn -0.0000 -0.7065 -0.7077
vn -0.0000 -0.6855 -0.7281
vn -0.0000 -0.6851 -0.7284
vn -0.0000 -0.6840 -0.7295
vn -0.0000 -0.6823 -0.7311
vn -0.0000 -0.6854 -0.7281
vn -0.0000 -0.6688 -0.7435
vn -0.0000 -0.6689 -0.7434
vn -0.0000 -0.6767 -0.7362
vn -0.0000 -0.8935 -0.4491
vn -0.0001 -0.7131 -0.7011
vn -0.0000 -0.6688 -0.7434
vn 0.0001 -0.6731 -0.7395
vn -0.0000 -0.6731 -0.7396
vn -0.0000 -0.7035 -0.7107
vn -0.0000 -0.8008 -0.5990
vn -0.0000 -0.7840 -0.6208
s 1
usemtl Diffuse_51_51_51_100.020
f 1//1 2//1 3//1
f 1//1 3//1 4//1
f 1//1 4//1 5//1
f 1//1 5//1 6//1
f 7//1 1//1 8//1
f 1//1 6//1 8//1
f 9//1 1//1 7//1
f 10//1 1//1 9//1
f 10//1 11//1 1//1
f 11//1 12//1 1//1
f 12//1 13//1 1//1
f 13//1 14//1 1//1
f 14//1 15//1 1//1
s 0
f 1//1 16//1 17//1
s 1
f 18//1 2//1 1//1
f 19//1 2//1 18//1
f 19//1 18//1 20//1
f 19//1 20//1 21//1
f 20//1 22//1 21//1
f 22//1 23//1 21//1
f 24//1 23//1 22//1
f 25//1 23//1 24//1
f 25//1 24//1 26//1
f 25//1 26//1 27//1
f 26//1 28//1 27//1
f 28//1 29//1 27//1
f 30//1 29//1 28//1
f 31//1 29//1 30//1
f 32//1 31//1 33//1
f 31//1 30//1 33//1
f 32//1 33//1 34//1
f 35//1 36//1 37//1
f 36//1 38//1 37//1
f 39//2 40//1 41//1
f 40//1 42//3 41//1
f 42//3 43//1 41//1
f 43//1 44//1 41//1
f 45//2 44//1 46//1
f 47//1 44//1 45//2
f 43//1 46//1 44//1
f 48//1 46//1 43//1
f 49//1 46//1 48//1
f 50//1 49//1 48//1
f 47//1 51//1 44//1
f 49//1 50//1 35//1
f 50//1 36//1 35//1
f 38//1 32//1 34//1
f 38//1 34//1 37//1
s 0
f 16//1 1//1 15//1
s 1
f 52//4 53//4 54//4
f 52//4 54//4 55//4
f 52//4 55//4 56//4
f 52//4 56//4 57//4
f 58//4 59//4 57//4
f 60//4 61//4 59//4
f 62//4 61//4 60//4
f 63//4 64//4 62//4
f 65//4 64//4 63//4
f 66//4 65//4 67//4
f 66//4 67//4 68//4
f 69//4 68//4 70//4
f 71//4 70//4 72//4
f 71//4 72//4 73//4
f 74//4 75//4 76//4
f 77//4 74//4 78//4
f 77//4 78//4 79//4
f 80//4 81//4 82//4
f 81//4 79//4 82//4
f 83//4 82//4 84//4
s 0
f 82//4 85//4 86//4
f 82//4 86//4 87//4
s 1
f 88//4 82//4 89//4
f 88//4 90//4 82//4
f 90//4 91//4 82//4
f 82//4 92//4 93//4
f 82//4 93//4 94//4
f 82//4 94//4 95//4
f 82//4 95//4 96//4
f 84//4 82//4 97//4
f 82//4 96//4 97//4
f 91//4 92//4 82//4
f 89//4 82//4 87//4
f 83//4 80//4 82//4
f 79//4 81//4 77//4
f 76//4 78//4 74//4
f 98//4 76//4 75//4
f 98//4 75//4 73//4
f 98//4 73//4 72//4
f 70//4 71//4 69//4
f 68//4 69//4 66//4
f 63//4 67//4 65//4
f 60//4 59//4 58//4
f 61//4 62//4 64//4
f 99//4 57//4 100//4
f 101//4 99//4 102//4
f 58//4 57//4 56//4
f 57//4 99//4 52//4
f 100//4 102//4 99//4
f 103//5 104//5 105//5
f 106//5 107//5 108//5
f 109//5 110//5 111//6
f 105//6 112//5 109//5
f 111//5 113//5 114//5
f 115//7 116//8 117//1
f 118//9 119//10 115//7
f 120//11 118//9 121//12
f 120//11 121//12 122//13
f 123//14 122//13 124//15
f 123//14 124//15 125//16
f 125//16 126//17 127//18
f 126//17 128//19 127//18
f 128//19 129//20 130//21
f 129//20 131//22 130//21
f 132//23 133//24 131//22
f 134//25 133//24 132//23
f 135//26 136//27 134//25
f 137//28 136//27 135//26
f 138//29 137//28 139//30
f 140//31 141//32 142//33
f 141//32 143//33 142//33
f 144//34 141//32 140//31
f 144//34 140//31 145//35
f 144//34 145//35 146//36
f 146//36 145//35 147//37
f 146//36 147//37 148//38
f 147//37 138//29 148//38
f 138//29 139//30 148//38
f 137//28 135//26 139//30
f 136//27 133//24 134//25
f 132//23 131//22 129//20
f 128//19 130//21 127//18
f 123//14 120//11 122//13
f 124//15 126//17 125//16
f 116//8 115//7 119//10
f 149//39 117//1 116//8
f 150//40 117//1 149//39
f 151//41 150//40 149//39
f 152//42 150//40 151//41
f 152//42 153//43 154//44
f 153//43 155//45 154//44
f 156//46 157//47 155//45
f 158//48 156//46 159//49
f 158//48 160//50 161//51
f 162//52 163//53 161//51
f 164//54 163//53 165//55
f 166//56 167//57 168//58
f 169//59 166//56 170//60
f 167//57 171//61 168//58
f 172//62 173//63 174//64
f 172//62 174//64 175//65
f 173//63 176//66 177//67
f 176//66 178//68 177//67
f 178//68 179//69 177//67
f 180//70 181//71 179//69
f 181//71 180//70 182//72
f 181//71 182//72 183//73
f 183//73 184//74 185//75
f 184//74 186//76 185//75
f 186//76 187//77 185//75
f 187//77 188//78 189//79
f 188//78 190//80 189//79
f 191//81 190//80 188//78
f 192//82 193//83 191//81
f 194//84 193//83 192//82
f 194//84 192//82 195//85
f 166//56 164//54 170//60
f 196//86 194//84 197//87
f 165//55 163//53 162//52
f 198//88 196//86 199//89
f 196//86 197//87 199//89
f 200//90 198//88 201//91
f 161//51 160//50 162//52
f 200//90 201//91 202//92
f 160//50 158//48 159//49
f 203//93 200//90 204//94
f 156//46 158//48 157//47
f 203//93 204//94 205//95
f 154//44 155//45 157//47
f 203//93 205//95 206//96
f 153//43 152//42 151//41
f 175//65 168//58 171//61
f 207//97 208//98 206//96
f 207//97 209//99 208//98
f 209//99 210//100 211//101
f 210//100 212//102 211//101
f 213//103 212//102 210//100
f 214//104 215//105 212//102
f 216//106 215//105 214//104
f 217//107 218//108 216//106
f 219//109 218//108 217//107
f 220//110 219//109 221//111
f 220//110 221//111 222//112
f 223//113 220//110 224//114
f 223//113 224//114 225//115
f 226//116 225//115 227//117
f 228//118 229//119 230//120
f 228//118 230//120 231//121
f 232//122 233//123 234//124
f 235//125 228//118 236//126
f 237//127 238//128 239//129
f 240//130 241//131 242//132
f 243//133 244//134 245//135
f 246//136 247//137 248//138
f 249//139 250//140 251//141
f 252//142 253//143 254//144
f 255//145 256//146 257//147
f 258//148 259//149 256//146
f 259//149 260//150 261//151
f 260//150 262//152 263//153
f 262//152 264//154 265//155
f 264//154 266//156 267//157
f 198//88 199//89 201//91
f 197//87 194//84 195//85
f 143//33 268//158 142//33
f 269//159 268//158 143//33
f 270//160 268//158 269//159
f 270//160 269//159 267//157
f 264//154 267//157 265//155
f 262//152 265//155 263//153
f 260//150 263//153 261//151
f 259//149 261//151 256//146
f 258//148 256//146 255//145
f 255//145 257//147 252//142
f 257//147 253//143 252//142
f 253//143 250//140 254//144
f 250//140 249//139 254//144
f 251//141 271//161 249//139
f 272//162 271//161 251//141
f 272//162 251//141 248//138
f 272//162 248//138 247//137
f 247//137 246//136 273//163
f 246//136 274//164 273//163
f 274//164 243//133 273//163
f 244//134 243//133 274//164
f 275//165 245//135 244//134
f 275//165 244//134 276//166
f 275//165 276//166 277//167
f 276//166 241//131 277//167
f 241//131 240//130 277//167
f 242//132 278//168 240//130
f 279//169 278//168 242//132
f 280//170 278//168 279//169
f 280//170 279//169 238//128
f 279//169 239//129 238//128
f 239//129 281//171 237//127
f 281//171 282//172 237//127
f 283//173 282//172 281//171
f 284//174 282//172 283//173
f 284//174 283//173 234//124
f 284//174 234//124 233//123
f 234//124 285//175 232//122
f 285//175 286//176 232//122
f 287//177 286//176 285//175
f 288//178 286//176 287//177
f 288//178 287//177 289//179
f 288//178 289//179 290//180
f 289//179 235//125 290//180
f 235//125 236//126 290//180
f 226//116 227//117 229//119
f 231//121 236//126 228//118
f 227//117 230//120 229//119
f 223//113 225//115 226//116
f 220//110 222//112 224//114
f 219//109 217//107 221//111
f 218//108 215//105 216//106
f 214//104 212//102 213//103
f 209//99 211//101 208//98
f 205//95 207//97 206//96
f 200//90 202//92 204//94
f 270//160 267//157 266//156
f 190//80 191//81 193//83
f 189//79 185//75 187//77
f 184//74 183//73 182//72
f 178//68 180//70 179//69
f 174//64 173//63 177//67
f 175//65 171//61 172//62
f 167//57 166//56 169//59
f 121//12 118//9 115//7
f 165//55 170//60 164//54
f 291//181 292//181 293//181
f 294//181 295//181 296//181
f 297//182 298//182 299//181
f 300//181 297//181 301//181
f 298//182 291//182 302//181
f 303//183 304//183 305//183
f 306//184 307//184 308//184
f 309//184 310//184 311//184
f 312//184 313//184 314//184
f 315//184 316//184 317//184
f 318//184 319//184 320//184
f 321//183 322//183 323//183
f 324//184 325//184 326//184
f 327//184 328//184 329//184
f 330//184 331//184 332//184
f 333//183 334//183 335//183
f 336//185 337//185 338//185
f 339//184 340//184 341//184
f 342//184 343//184 344//184
f 345//184 346//184 347//184
f 348//184 349//184 350//184
f 351//184 352//184 353//184
f 354//184 355//184 356//184
f 357//186 358//186 359//186
f 360//187 361//187 362//187
f 363//186 364//186 365//186
f 366//183 367//183 368//183
f 369//184 370//184 371//184
f 372//184 373//184 374//184
f 375//183 376//183 377//183
f 378//184 379//184 380//184
f 381//184 382//184 383//184
f 384//184 385//184 386//184
f 387//183 388//183 389//183
f 390//184 391//184 392//184
f 393//184 394//184 395//184
f 396//184 397//184 398//184
f 399//184 400//184 401//184
f 402//184 403//184 404//184
f 405//184 406//184 407//184
f 408//186 409//186 410//186
f 411//184 412//184 413//184
f 414//184 415//184 416//184
f 417//184 418//184 419//184
f 420//184 421//184 422//184
f 423//184 424//184 425//184
f 426//184 427//184 428//184
f 429//184 430//184 431//184
f 432//185 433//185 434//185
f 435//184 436//184 437//184
f 438//184 439//184 440//184
f 441//184 442//184 443//184
f 444//184 445//184 446//184
f 447//185 448//185 449//185
f 450//184 451//184 452//184
f 453//184 454//184 455//184
f 456//185 457//185 458//185
f 459//184 460//184 461//184
f 462//184 463//184 464//184
f 465//184 466//184 467//184
f 468//184 469//184 470//184
f 471//184 472//184 473//184
f 474//183 475//183 476//183
f 477//186 478//186 479//186
f 480//185 481//185 482//185
f 483//184 484//184 485//184
f 486//185 487//185 488//185
f 489//184 490//184 491//184
f 492//185 493//185 494//185
f 495//184 496//184 497//184
f 498//184 499//184 500//184
f 501//184 502//184 503//184
f 504//184 505//184 506//184
f 507//185 508//185 509//185
f 510//184 511//184 512//184
f 513//184 514//184 515//184
f 516//184 517//184 518//184
f 519//184 520//184 521//184
f 522//184 523//184 524//184
f 525//184 526//184 527//184
f 528//184 529//184 530//184
f 531//184 532//184 533//184
f 534//184 535//184 536//184
f 537//184 538//184 539//184
f 540//184 541//184 542//184
f 543//185 544//185 545//185
f 546//184 547//184 548//184
f 549//184 550//184 551//184
f 552//184 553//184 554//184
f 555//188 556//189 557//190
f 555//188 558//191 556//189
f 559//192 560//193 561//194
f 559//192 562//195 563//196
f 564//197 565//198 566//199
f 564//197 562//195 567//200
f 564//197 567//200 568//201
f 562//195 561//194 569//202
f 570//203 563//196 571//204
f 570//203 558//191 560//193
f 570//203 571//204 556//189
f 563//196 572//205 571//204
f 569//202 561//194 573//206
f 569//202 567//200 562//195
f 574//207 575//208 576//209
f 574//207 577//210 575//208
f 578//211 579//212 580//213
f 578//211 581//214 582//215
f 583//216 584//217 585//206
f 583//216 580//213 586//218
f 580//213 587//219 586//218
f 580//213 579//212 587//219
f 579//212 588//220 589//221
f 579//190 590//215 591//222
f 592//223 593//224 594//225
f 592//223 595//226 596//227
f 597//228 598//229 599//230
f 597//228 600//231 598//229
f 594//225 601//226 592//223
f 594//225 602//232 603//233
f 604//234 605//235 606//232
f 604//234 575//208 607//236
f 605//235 588//220 608//220
f 605//235 607//236 588//220
f 592//223 596//227 593//224
f 595//226 557//190 609//226
f 596//227 610//237 593//224
f 596//227 609//226 611//238
f 611//238 589//221 588//220
f 611//238 609//226 589//221
f 589//221 587//219 579//212
f 589//221 609//226 612//239
f 557//190 613//215 612//239
f 557//190 556//189 613//215
f 612//239 609//226 557//190
f 612//239 614//240 587//219
f 614//240 615//241 586//218
f 614//240 613//215 571//204
f 600//231 593//224 616//242
f 594//225 597//228 617//243
f 618//244 577//210 619//245
f 618//244 607//236 575//208
f 577//210 574//207 620//246
f 618//244 619//245 610//237
f 621//247 622//248 623//249
f 621//247 619//245 622//248
f 616//242 593//224 610//237
f 616//242 598//229 600//231
f 568//201 567//200 624//250
f 568//201 625//251 565//198
f 558//191 601//226 626//222
f 601//226 555//188 595//226
f 559//192 561//194 562//195
f 560//193 627//215 628//252
f 562//195 564//197 563//196
f 566//199 629//253 572//205
f 291//182 620//246 630//248
f 291//182 298//182 620//246
f 620//246 574//207 631//209
f 620//246 298//182 622//248
f 604//234 607//236 605//235
f 575//208 577//210 618//244
f 297//182 623//249 298//182
f 623//249 598//229 621//247
f 623//249 297//182 632//248
f 633//254 584//217 634//255
f 633//254 635//256 636//257
f 629//253 615//241 572//205
f 629//253 634//255 584//217
f 586//218 587//219 614//240
f 637//258 578//259 638//260
f 633//254 634//255 639//261
f 584//217 586//218 629//253
f 640//262 569//263 641//264
f 572//205 564//197 566//199
f 571//204 572//205 615//241
f 570//203 556//189 558//191
f 568//201 565//198 564//197
f 625//251 642//251 565//198
f 563//196 564//197 572//205
f 565//198 643//251 634//255
f 571//204 615//241 614//240
f 566//199 565//198 634//255
f 621//247 616//242 619//245
f 598//229 644//209 645//230
f 577//210 622//248 619//245
f 620//246 622//248 577//210
f 610//237 619//245 616//242
f 610//237 596//227 611//238
f 584//217 583//216 586//218
f 611//238 607//236 610//237
f 588//220 607//236 611//238
f 607//236 618//244 610//237
f 597//228 593//224 600//231
f 595//226 555//188 557//190
f 598//229 616//242 621//247
f 592//223 601//226 595//226
f 595//226 609//226 596//227
f 589//221 612//239 587//219
f 586//218 615//241 629//253
f 614//240 612//239 613//215
f 569//263 646//265 647//264
f 560//193 559//192 570//203
f 601//226 558//191 555//188
f 556//189 571//204 613//215
f 634//255 648//266 649//267
f 650//250 651//268 568//201
f 652//243 653//269 604//234
f 623//249 622//248 298//182
f 654//222 655//226 579//190
f 656//220 601//226 594//225
f 657//261 633//254 658//268
f 659//260 561//270 660//214
f 661//266 662//268 663//267
f 664//271 665//272 666//273
f 667//267 668//268 669//274
f 670//274 671//268 672//250
f 633//254 673//274 674//275
f 633//254 675//257 676//276
f 677//275 678//277 633//254
f 679//256 633//278 680//279
f 681//206 682//260 583//280
f 683//215 579//212 578//211
f 583//216 578//211 580//213
f 684//206 561//270 685//260
f 588//220 579//212 686//220
f 563//196 570//203 559//192
f 687//261 634//255 688//281
f 689//281 634//255 690//282
f 691//268 692//251 568//283
f 693//257 694//284 634//255
f 695//277 696//206 584//217
f 629//253 566//199 634//255
f 634//255 697//251 698//285
f 699//267 700//276 634//255
f 568//201 701//251 625//251
f 702//257 634//255 703//274
f 704//250 567//200 569//202
f 705//268 633//254 706//261
f 707//233 708//232 605//225
f 558//191 709//222 560//193
f 710//286 711//233 605//225
f 712//215 560//193 713//222
f 604//287 714//232 715//243
f 716//286 594//225 717//233
f 718//248 719//209 623//249
f 720//288 721//248 297//181
f 623//249 722//289 598//229
f 723//243 597//228 724//230
f 291//181 725//248 726//288
f 727//243 728//232 594//225
f 729//248 620//246 730//289
f 593//224 597//228 594//225
f 731//230 732//289 575//208
f 604//234 733//230 575//208
f 734//222 601//226 735//220
f 736//258 561//194 560//193
f 737//290 633//254 738//261
f 633//254 739//264 584//217
f 740//268 741//251 742//251
f 578//211 583//216 743//260
f 744//251 745//251 746//291
f 747//292 748//293 749//294
f 750//292 751//295 752//272
f 753//292 754//296 755//295
f 756//295 757//297 758//298
f 759//299 760//295 761//298
f 762//299 763//300 764//301
f 765//302 766//303 767//304
f 768//303 769//305 770//306
f 771//307 772//308 773//309
f 774//308 775//310 776//311
f 777//312 778//313 779//314
f 780//314 781//313 782//315
f 783//316 784//314 785//317
f 786//318 787//319 788//320
f 789//321 790//318 791//322
f 792//323 793//324 794//325
f 795//326 796//326 797//327
f 798//327 799//326 800//328
f 801//328 802//326 803//329
f 804//330 805//328 806//329
f 807//331 808//332 809//329
f 810//333 811//331 812//329
f 813//334 814//333 815//335
f 816//334 817//336 818//333
f 819//337 820//338 821//336
f 822//334 823//339 824//340
f 825//340 826//341 827//342
f 828//343 829//324 830//344
f 831//342 832//343 833//345
f 834//344 835//346 836//324
f 837//347 838//348 839//349
f 840//350 841//347 842//351
f 843//352 844//350 845//353
f 846//354 847//355 848//350
f 849//356 850//352 851//357
f 852//318 853//321 854//353
f 855//320 856//322 857//318
f 858//317 859//320 860//316
f 861//315 862//317 863//314
f 864//358 865//312 866//310
f 867//311 868//359 869//308
f 870//309 871//305 872//360
f 873//359 874//306 875//361
f 876//306 877//300 878//303
f 879//300 880//299 881//302
f 882//350 883//355 884//347
f 885//345 886//342 887//341
f 888//362 889//363 890//364
f 888//362 891//365 889//363
f 892//366 893//367 894//368
f 892//366 895//369 896//370
f 892//366 896//370 893//367
f 895//369 897//371 898//372
f 899//373 898//372 900//374
f 899//373 901//375 896//370
f 898//372 897//371 900//374
f 898//372 896//370 895//369
f 902//376 903//377 904//378
f 902//376 905//379 906//316
f 907//380 908//381 909//382
f 907//380 910//383 908//381
f 911//384 912//385 913//386
f 911//384 914//387 915//388
f 912//385 916//389 913//386
f 912//385 915//388 917//390
f 918//391 919//392 920//393
f 918//391 921//394 922//395
f 921//394 923//396 924//397
f 921//394 925//398 926//399
f 927//400 928//401 929//402
f 927//400 891//365 930//403
f 931//404 932//405 933//406
f 931//404 934//407 935//408
f 905//409 936//314 937//319
f 905//379 932//405 938//312
f 932//405 904//378 939//410
f 905//409 940//312 941//314
f 934//407 942//309 943//411
f 934//407 894//368 944//359
f 945//412 946//413 947//414
f 945//412 948//415 917//390
f 945//412 917//390 946//413
f 948//415 949//416 950//417
f 951//418 949//416 952//419
f 951//418 950//417 949//416
f 917//390 915//388 946//413
f 917//390 950//417 916//389
f 948//415 950//417 917//390
f 917//390 916//389 912//385
f 953//420 951//418 952//419
f 954//384 955//421 956//422
f 954//384 957//423 926//399
f 958//424 959//425 908//381
f 958//424 960//341 959//425
f 961//426 962//427 963//325
f 961//426 908//381 910//383
f 964//428 965//356 966//429
f 964//428 967//430 968//431
f 967//430 969//432 970//433
f 967//430 971//434 972//435
f 973//436 955//421 925//398
f 973//436 974//437 975//438
f 974//437 970//433 969//432
f 974//437 976//439 977//440
f 970//433 968//431 967//430
f 970//433 977//440 978//441
f 979//442 980//443 981//444
f 979//442 893//367 982//445
f 947//414 983//446 945//412
f 947//414 959//425 984//334
f 985//447 986//448 987//449
f 985//450 988//451 989//452
f 986//448 990//453 991//454
f 986//455 992//452 993//456
f 994//457 995//458 996//459
f 994//457 930//403 997//460
f 995//458 990//453 998//461
f 995//458 997//460 999//462
f 1000//463 1001//464 1002//465
f 1000//463 1003//466 1004//467
f 1005//468 968//431 978//441
f 1005//468 1002//465 965//356
f 1001//464 1006//469 1007//470
f 1001//464 1004//467 1006//469
f 1008//471 1009//472 1010//357
f 1008//471 1011//473 966//429
f 1008//471 966//429 1009//472
f 1011//473 1012//474 966//429
f 975//438 956//422 955//421
f 975//438 969//432 909//382
f 991//454 999//462 1003//466
f 991//454 987//449 986//448
f 999//462 997//460 1004//467
f 999//462 990//453 995//458
f 953//420 957//423 913//386
f 953//420 952//419 1013//475
f 926//399 925//398 955//421
f 926//399 1013//475 923//396
f 1013//475 952//419 1014//476
f 1013//475 957//423 953//420
f 1013//475 1014//476 923//396
f 952//419 1015//326 1016//327
f 1017//477 908//381 959//425
f 1017//477 915//388 914//387
f 945//412 983//446 948//415
f 946//413 959//425 947//414
f 918//391 925//398 921//394
f 920//393 1018//478 976//439
f 1018//478 987//449 977//440
f 1018//478 919//392 985//447
f 894//368 981//444 1019//306
f 894//368 933//406 892//366
f 981//444 980//443 1020//300
f 981//444 893//367 979//442
f 909//382 914//387 956//422
f 909//382 972//435 907//380
f 911//384 915//388 912//385
f 914//387 908//381 1017//477
f 1021//479 980//443 1022//480
f 1021//481 1023//251 1024//295
f 1021//479 1022//480 1025//251
f 980//443 982//445 1026//482
f 1022//480 1026//482 1027//483
f 980//443 1021//479 1028//301
f 1029//484 889//363 1030//485
f 1029//484 1031//486 1032//487
f 1033//488 1034//489 1031//486
f 1033//488 1035//490 1036//491
f 978//441 977//440 987//449
f 978//441 968//431 970//433
f 977//440 976//439 1018//478
f 975//438 974//437 969//432
f 980//443 1026//482 1022//480
f 982//445 901//375 1026//482
f 1004//467 1037//314 1006//469
f 1004//467 1003//466 999//462
f 1037//314 1038//492 1039//493
f 1037//314 997//460 930//403
f 964//428 971//434 967//430
f 965//356 1040//494 966//429
f 967//430 972//435 969//432
f 971//434 966//429 1012//474
f 1041//495 1006//469 1037//314
f 1041//495 900//374 897//371
f 899//373 1042//496 1043//497
f 900//374 1039//493 1044//498
f 890//364 1032//487 1042//496
f 890//364 1038//492 888//362
f 1032//487 1031//486 1043//497
f 1032//487 889//363 1029//484
f 1012//474 907//380 972//435
f 910//383 962//427 961//426
f 1012//474 1011//473 962//427
f 1012//474 972//435 971//434
f 1044//498 1039//493 1038//492
f 1044//498 1042//496 900//374
f 1045//499 897//371 939//410
f 1045//499 1007//470 1006//469
f 1007//470 1040//494 1002//465
f 1007//470 904//378 903//377
f 927//400 930//403 994//457
f 930//403 888//362 1038//492
f 994//457 997//460 995//458
f 930//403 1038//492 1037//314
f 1009//472 903//377 1046//318
f 1009//472 966//429 1040//494
f 902//376 904//378 932//405
f 903//377 1040//494 1007//470
f 923//396 1014//476 1047//500
f 1013//475 926//399 957//423
f 1014//501 1048//502 1049//503
f 1014//504 1050//505 1051//502
f 1045//499 904//378 1007//470
f 931//404 933//406 894//368
f 1043//497 1042//496 1032//487
f 1043//497 901//375 899//373
f 1027//483 625//293 1022//480
f 1027//483 1031//486 1034//489
f 1033//488 1031//486 1029//484
f 1034//489 625//293 1027//483
f 1042//496 899//373 900//374
f 895//369 892//366 933//406
f 896//370 982//445 893//367
f 1026//482 1043//497 1027//483
f 894//368 893//367 981//444
f 933//406 939//410 895//369
f 1017//477 946//413 915//388
f 959//425 1052//341 1053//334
f 983//506 1054//329 1055//416
f 959//425 946//413 1017//477
f 913//386 916//389 953//420
f 911//384 956//422 914//387
f 975//438 955//421 973//436
f 955//421 954//384 926//399
f 962//427 1011//473 1008//471
f 1012//474 910//383 907//380
f 962//427 910//383 1012//474
f 975//438 909//382 956//422
f 908//381 914//387 909//382
f 956//422 911//384 913//386
f 918//391 920//393 925//398
f 925//398 920//393 976//439
f 923//396 921//394 926//399
f 925//398 976//439 973//436
f 951//418 953//420 916//389
f 957//423 954//384 913//386
f 978//441 991//454 1003//466
f 995//458 1056//461 1057//507
f 964//428 968//431 965//356
f 976//439 974//437 973//436
f 1009//472 1040//494 903//377
f 1005//468 965//356 968//431
f 966//429 971//434 964//428
f 972//435 909//382 969//432
f 919//392 1018//478 920//393
f 1005//468 978//441 1000//463
f 954//384 956//422 913//386
f 974//437 977//440 970//433
f 1003//466 1000//463 978//441
f 1002//465 1040//494 965//356
f 1002//465 1005//468 1000//463
f 1058//508 994//509 1059//510
f 1000//463 1004//467 1001//464
f 1060//511 995//458 1061//512
f 1041//495 1045//499 1006//469
f 902//376 932//405 905//379
f 1007//470 1002//465 1001//464
f 1062//350 1008//471 1063//353
f 1045//499 1041//495 897//371
f 1032//487 890//364 889//363
f 899//373 896//370 898//372
f 1064//408 932//405 931//404
f 900//374 1041//495 1039//493
f 1065//319 903//377 902//376
f 1044//498 890//364 1042//496
f 889//363 891//365 1066//513
f 1037//314 1039//493 1041//495
f 1067//514 891//365 1068//515
f 1027//483 1043//497 1031//486
f 1069//306 981//516 1070//300
f 901//375 1043//497 1026//482
f 1071//517 1033//488 1072//491
f 1073//329 983//446 1074//334
f 1075//505 952//419 1076//518
f 1077//345 1078//341 958//519
f 1079//397 1080//520 921//394
f 939//410 904//378 1045//499
f 1081//521 985//447 919//392
f 982//445 896//370 901//375
f 1082//511 1083//522 994//457
f 1022//480 625//293 1084//272
f 1085//514 1086//513 891//365
f 1087//291 1088//251 1034//489
f 1034//489 1089//251 625//293
f 1090//523 1091//291 1034//489
f 1092//524 1093//525 1034//489
f 1033//488 1094//526 1034//489
f 1033//488 1095//517 1096//527
f 1044//498 1038//492 890//364
f 1029//484 1097//485 1033//488
f 1033//488 1098//528 1099//490
f 889//363 1100//513 1101//485
f 888//362 930//403 891//365
f 903//529 1102//319 1103//318
f 1037//314 1004//467 997//460
f 897//371 895//369 939//410
f 927//400 1104//530 891//365
f 927//400 1105//531 1106//515
f 1107//357 1009//472 1108//318
f 1109//508 927//400 994//457
f 1110//349 962//427 1111//350
f 991//454 978//441 987//449
f 962//427 1008//471 1112//350
f 1018//478 985//447 987//449
f 1113//345 961//532 1114//346
f 990//453 986//448 1115//461
f 947//414 1116//334 983//446
f 986//448 985//447 1117//452
f 961//426 1118//345 958//424
f 1119//533 985//534 1120//535
f 961//426 958//424 908//381
f 1121//536 918//391 1122//395
f 948//415 1123//416 949//416
f 1124//326 952//419 949//416
f 1125//537 1126//395 921//394
f 952//419 1127//505 1014//476
f 951//418 916//389 950//417
f 1128//538 1129//539 1014//476
f 1014//504 1130//539 1131//500
f 1132//384 923//540 1133//500
f 1134//384 1135//397 923//396
f 1136//541 948//415 983//446
f 918//391 1137//536 919//392
f 1138//536 1139//535 919//392
f 1140//456 1141//542 986//455
f 999//462 991//454 990//453
f 932//405 939//410 933//406
f 979//442 982//445 980//443
f 1142//295 1143//300 980//443
f 1144//543 1145//359 894//544
f 931//404 894//368 934//407
f 1146//545 1147//546 1148//547
f 1146//545 1149//548 1147//546
f 1150//549 1151//550 1152//551
f 1150//549 949//326 1153//552
f 1154//553 1155//554 1156//555
f 1154//553 1157//556 1158//557
f 1159//558 1160//559 1161//560
f 1159//558 1149//548 1160//559
f 1162//561 1163//562 1164//563
f 1162//561 1165//564 1166//565
f 1167//566 1168//567 1169//568
f 1167//566 1166//565 1170//569
f 1166//565 1165//564 1171//564
f 1166//565 1163//562 1162//561
f 1172//570 1173//571 1174//572
f 1172//570 1175//569 1176//573
f 1173//571 1177//574 1174//572
f 1173//563 1178//573 1179//575
f 1180//576 1160//559 1181//577
f 1180//576 1182//578 1183//579
f 1182//578 1164//563 1184//580
f 1182//578 1180//576 1162//561
f 1164//563 1185//581 1186//582
f 1164//563 1163//562 1185//581
f 1186//582 1187//583 1184//580
f 1186//582 1174//572 1177//574
f 1187//583 1188//584 1189//585
f 1187//583 1177//574 1190//586
f 1183//579 1191//559 1160//559
f 1183//579 1184//580 1189//585
f 1189//585 1184//580 1187//583
f 1189//585 1191//559 1183//579
f 1192//587 1193//588 1161//560
f 1192//587 1188//584 1194//589
f 1167//566 1163//562 1166//565
f 1169//568 1195//590 1163//562
f 1196//591 1156//555 1155//554
f 1196//591 1197//592 1156//555
f 1196//591 1155//554 1174//572
f 1156//555 1157//556 1154//553
f 1198//593 1161//560 1199//594
f 1198//593 1200//595 1147//546
f 1200//595 1201//596 1202//597
f 1200//595 1203//598 1153//552
f 1202//597 1147//546 1200//595
f 1202//597 1204//599 1205//600
f 1181//577 1165//564 1180//576
f 1181//577 1206//601 1207//602
f 1149//548 1146//545 1206//601
f 1198//593 1159//558 1161//560
f 1208//603 1209//604 1197//592
f 1208//603 1195//590 1168//567
f 1195//590 1169//568 1168//567
f 1195//590 1197//592 1185//581
f 1210//605 1211//606 1212//607
f 1210//605 1213//608 1214//609
f 1213//608 1215//610 1216//611
f 1213//608 1217//612 1218//613
f 1190//586 1177//574 1219//602
f 1190//586 1188//584 1187//583
f 1220//614 1215//610 1194//589
f 1220//615 1221//616 1222//617
f 1223//618 949//326 1224//326
f 1223//618 1153//552 949//326
f 1161//560 1191//559 1192//587
f 1161//560 1160//559 1191//559
f 1153//552 1223//618 1201//596
f 1153//552 1203//598 1151//550
f 1203//598 1199//594 1225//619
f 1149//548 1159//558 1147//546
f 1225//619 1151//550 1203//598
f 1225//619 1218//613 1217//612
f 1194//589 1188//584 1220//614
f 1194//589 1218//613 1193//588
f 1225//619 1217//612 1151//550
f 1218//613 1215//610 1213//608
f 111//6 1157//556 109//5
f 1209//604 1156//555 1197//592
f 1157//556 111//6 1226//604
f 1196//591 1174//572 1185//581
f 1155//554 1227//620 1228//621
f 105//6 1229//622 1230//604
f 105//6 109//5 1229//622
f 1229//622 1168//567 1231//620
f 1229//622 109//5 1209//604
f 1167//566 1169//568 1163//562
f 1195//590 1208//603 1197//592
f 1232//604 111//6 1233//623
f 1168//567 1229//622 1208//603
f 1234//620 1157//624 1235//604
f 1185//581 1197//592 1196//591
f 1185//581 1163//562 1195//590
f 1164//563 1186//582 1184//580
f 1177//580 1236//625 1237//602
f 1174//572 1186//582 1185//581
f 1238//625 1173//565 1239//575
f 1206//601 1146//545 1240//626
f 1149//548 1181//577 1160//559
f 1182//578 1162//561 1164//563
f 1166//565 1241//625 1242//575
f 1183//579 1182//578 1184//580
f 1243//621 1167//566 1244//569
f 1192//587 1189//585 1188//584
f 1162//561 1180//576 1165//564
f 1220//614 1188//584 1190//586
f 1192//587 1194//589 1193//588
f 1189//585 1192//587 1191//559
f 1245//547 1220//627 1246//628
f 1202//597 1201//596 1247//629
f 1198//593 1147//546 1159//558
f 1201//596 1223//618 1248//630
f 1150//549 1153//552 1151//550
f 1201//596 1200//595 1153//552
f 1225//619 1193//588 1218//613
f 1199//594 1161//560 1193//588
f 1165//564 1181//577 1249//602
f 1217//612 1250//631 1251//632
f 1217//612 1252//630 1253//631
f 1225//619 1199//594 1193//588
f 1254//611 1255//547 1202//597
f 1160//559 1180//576 1183//579
f 1157//556 1209//604 109//5
f 1203//598 1198//593 1199//594
f 1256//625 1177//574 1173//571
f 1257//633 1217//612 1258//632
f 1259//547 1215//610 1220//614
f 1260//326 1261//326 1262//630
f 1263//634 1264//326 1265//635
f 1266//551 1267//630 1268//636
f 1269//551 1270//637 1210//605
f 1271//637 1272//606 1210//605
f 1273//631 1210//605 1274//632
f 1217//612 1213//608 1210//605
f 1275//631 1276//630 1210//605
f 1277//609 1213//608 1278//599
f 1215//610 1218//613 1194//589
f 1279//600 1280//599 1213//608
f 1165//580 1281//602 1282//625
f 1177//574 1187//583 1186//582
f 1283//575 1284//573 1166//565
f 1190//586 1285//602 1286//616
f 1149//548 1206//601 1181//577
f 1172//570 1155//554 1287//621
f 1209//604 1208//603 1229//622
f 1154//553 1288//557 1155//554
f 1289//569 1172//570 1290//638
f 105//5 1291//604 1292//623
f 1172//570 1293//573 1173//571
f 1294//604 1229//622 1295//557
f 1157//556 1156//555 1209//604
f 1296//621 1168//567 1167//566
f 1190//586 1297//616 1220//614
f 1298//602 1206//601 1299//616
f 1300//606 1217//639 1301//607
f 1302//628 1146//545 1303//547
f 1304//609 1201//596 1305//630
f 1306//630 1223//618 1307//326
f 1202//597 1308//547 1147//546
f 949//326 1150//549 1309//326
f 1310//326 1150//549 1311//635
f 1312//640 1150//549 1313//641
f 1314//642 1151//550 1315//637
f 1316//637 1151//643 1317//606
f 1203//598 1200//595 1198//593
f 1318//609 1319//599 1202//597
f 1206//644 1320//645 1321//616
f 1322//621 1323//557 1168//567
f 1174//572 1155//554 1172//570
f 1324//573 1325//569 1166//565
f 1217//612 1210//605 1326//630
f 1327//547 1328//611 1215//610
f 1329//629 1330//630 1210//605
f 1210//605 1331//607 1332//632
f 1151//550 1217//612 1333//606
f 1210//605 1334//630 1335//551
