# Blender 4.4.3
# www.blender.org
mtllib Mesh_20.012.mtl
o Mesh_20.012
v 0.017290 0.008710 -0.013552
v 0.017290 0.008710 -0.013543
v 0.017290 0.008716 -0.013537
v 0.017290 0.008773 -0.013552
v 0.017290 0.008721 -0.013530
v 0.017290 0.008726 -0.013524
v 0.017290 0.008732 -0.013519
v 0.017290 0.008738 -0.013513
v 0.017290 0.008773 -0.013515
v 0.017290 0.008744 -0.013508
v 0.017290 0.008750 -0.013502
v 0.017290 0.008756 -0.013497
v 0.017290 0.008710 -0.013543
v 0.017375 0.008710 -0.013543
v 0.017375 0.008714 -0.013539
v 0.017290 0.008716 -0.013537
v 0.017290 0.008710 -0.013543
v 0.017375 0.008717 -0.013535
v 0.017290 0.008716 -0.013537
v 0.017290 0.008721 -0.013530
v 0.017290 0.008716 -0.013537
v 0.017290 0.008721 -0.013530
v 0.017375 0.008720 -0.013531
v 0.017375 0.008723 -0.013527
v 0.017290 0.008721 -0.013530
v 0.017290 0.008726 -0.013524
v 0.017290 0.008721 -0.013530
v 0.017375 0.008727 -0.013524
v 0.017375 0.008730 -0.013520
v 0.017290 0.008726 -0.013524
v 0.017290 0.008726 -0.013524
v 0.017290 0.008726 -0.013524
v 0.017290 0.008732 -0.013519
v 0.017290 0.008732 -0.013519
v 0.017375 0.008734 -0.013517
v 0.017290 0.008738 -0.013513
v 0.017290 0.008732 -0.013519
v 0.017375 0.008738 -0.013513
v 0.017290 0.008738 -0.013513
v 0.017375 0.008741 -0.013510
v 0.017290 0.008738 -0.013513
v 0.017290 0.008738 -0.013513
v 0.017290 0.008744 -0.013508
v 0.017290 0.008744 -0.013508
v 0.017375 0.008745 -0.013506
v 0.017290 0.008750 -0.013502
v 0.017293 0.008756 -0.013497
v 0.017290 0.008756 -0.013497
v 0.017290 0.008750 -0.013502
v 0.017290 0.008744 -0.013508
v 0.017290 0.008750 -0.013502
v 0.017297 0.008756 -0.013497
v 0.017375 0.008749 -0.013503
v 0.017290 0.008750 -0.013502
v 0.017300 0.008756 -0.013497
v 0.017290 0.008750 -0.013502
v 0.017304 0.008756 -0.013497
v 0.017290 0.008750 -0.013502
v 0.017307 0.008757 -0.013497
v 0.017375 0.008753 -0.013500
v 0.017310 0.008757 -0.013496
v 0.017317 0.008759 -0.013495
v 0.017313 0.008758 -0.013496
v 0.017340 0.008769 -0.013488
v 0.017338 0.008767 -0.013489
v 0.017375 0.008765 -0.013491
v 0.017375 0.008769 -0.013488
v 0.017335 0.008766 -0.013490
v 0.017332 0.008764 -0.013491
v 0.017375 0.008761 -0.013494
v 0.017329 0.008763 -0.013492
v 0.017326 0.008762 -0.013493
v 0.017375 0.008757 -0.013497
v 0.017323 0.008761 -0.013494
v 0.017320 0.008760 -0.013494
v 0.017290 0.008750 -0.013502
v 0.017290 0.008750 -0.013502
v 0.017375 0.008834 -0.013487
v 0.017352 0.008803 -0.013487
v 0.017375 0.008772 -0.013487
v 0.017345 0.008775 -0.013487
v 0.017343 0.008772 -0.013487
v 0.017347 0.008779 -0.013487
v 0.017349 0.008783 -0.013487
v 0.017350 0.008787 -0.013487
v 0.017351 0.008791 -0.013487
v 0.017352 0.008795 -0.013487
v 0.017352 0.008799 -0.013487
v 0.017352 0.008807 -0.013487
v 0.017352 0.008811 -0.013487
v 0.017351 0.008815 -0.013487
v 0.017350 0.008819 -0.013487
v 0.017349 0.008823 -0.013487
v 0.017345 0.008831 -0.013487
v 0.017343 0.008834 -0.013487
v 0.017347 0.008827 -0.013487
v 0.017290 0.008856 -0.013502
v 0.017293 0.008850 -0.013497
v 0.017297 0.008850 -0.013497
v 0.017300 0.008850 -0.013497
v 0.017303 0.008850 -0.013497
v 0.017307 0.008849 -0.013497
v 0.017375 0.008868 -0.013513
v 0.017375 0.008872 -0.013517
v 0.017290 0.008868 -0.013513
v 0.017375 0.008879 -0.013524
v 0.017290 0.008880 -0.013524
v 0.017375 0.008876 -0.013520
v 0.017375 0.008883 -0.013527
v 0.017290 0.008885 -0.013530
v 0.017290 0.008850 -0.013497
v 0.017290 0.008895 -0.013543
v 0.017375 0.008892 -0.013539
v 0.017375 0.008895 -0.013543
v 0.017290 0.008890 -0.013537
v 0.017375 0.008889 -0.013535
v 0.017375 0.008886 -0.013531
v 0.017290 0.008874 -0.013519
v 0.017375 0.008865 -0.013510
v 0.017290 0.008862 -0.013508
v 0.017375 0.008861 -0.013506
v 0.017310 0.008849 -0.013496
v 0.017375 0.008857 -0.013503
v 0.017313 0.008848 -0.013496
v 0.017375 0.008853 -0.013500
v 0.017317 0.008847 -0.013495
v 0.017320 0.008846 -0.013494
v 0.017375 0.008849 -0.013497
v 0.017326 0.008844 -0.013493
v 0.017329 0.008843 -0.013492
v 0.017375 0.008845 -0.013494
v 0.017375 0.008837 -0.013488
v 0.017375 0.008841 -0.013491
v 0.017340 0.008837 -0.013488
v 0.017338 0.008839 -0.013489
v 0.017335 0.008840 -0.013490
v 0.017332 0.008842 -0.013491
v 0.017323 0.008845 -0.013494
v 0.017290 0.008833 -0.013515
v 0.017290 0.008868 -0.013513
v 0.017290 0.008833 -0.013552
v 0.017290 0.008850 -0.013497
v 0.017290 0.008856 -0.013502
v 0.017290 0.008856 -0.013502
v 0.017290 0.008862 -0.013508
v 0.017290 0.008862 -0.013508
v 0.017290 0.008868 -0.013513
v 0.017290 0.008868 -0.013513
v 0.017290 0.008874 -0.013519
v 0.017290 0.008874 -0.013519
v 0.017290 0.008880 -0.013524
v 0.017290 0.008880 -0.013524
v 0.017290 0.008885 -0.013530
v 0.017290 0.008895 -0.013543
v 0.017290 0.008895 -0.013552
v 0.017290 0.008890 -0.013537
v 0.017290 0.008885 -0.013530
v 0.017290 0.008890 -0.013537
v 0.017290 0.008890 -0.013537
v 0.017375 0.008845 -0.013494
v 0.017375 0.008834 -0.013487
v 0.017375 0.008772 -0.013487
v 0.017375 0.008761 -0.013494
v 0.017375 0.008772 -0.013487
v 0.017375 0.008765 -0.013491
v 0.017375 0.008772 -0.013487
v 0.017375 0.008771 -0.013487
v 0.017375 0.008769 -0.013488
v 0.017375 0.008770 -0.013487
v 0.017375 0.008769 -0.013488
v 0.017375 0.008770 -0.013487
v 0.017375 0.008769 -0.013488
v 0.017375 0.008772 -0.013487
v 0.017375 0.008769 -0.013488
v 0.017375 0.008765 -0.013491
v 0.017375 0.008845 -0.013494
v 0.017375 0.008772 -0.013487
v 0.017375 0.008761 -0.013494
v 0.017375 0.008845 -0.013494
v 0.017375 0.008761 -0.013494
v 0.017375 0.008849 -0.013497
v 0.017375 0.008761 -0.013494
v 0.017375 0.008757 -0.013497
v 0.017375 0.008849 -0.013497
v 0.017375 0.008757 -0.013497
v 0.017375 0.008853 -0.013500
v 0.017375 0.008849 -0.013497
v 0.017375 0.008753 -0.013500
v 0.017375 0.008853 -0.013500
v 0.017375 0.008757 -0.013497
v 0.017375 0.008857 -0.013503
v 0.017375 0.008853 -0.013500
v 0.017375 0.008753 -0.013500
v 0.017375 0.008857 -0.013503
v 0.017375 0.008753 -0.013500
v 0.017375 0.008749 -0.013503
v 0.017375 0.008857 -0.013503
v 0.017375 0.008749 -0.013503
v 0.017375 0.008861 -0.013506
v 0.017375 0.008749 -0.013503
v 0.017375 0.008745 -0.013506
v 0.017375 0.008861 -0.013506
v 0.017375 0.008745 -0.013506
v 0.017375 0.008865 -0.013510
v 0.017375 0.008861 -0.013506
v 0.017375 0.008741 -0.013510
v 0.017375 0.008865 -0.013510
v 0.017375 0.008745 -0.013506
v 0.017375 0.008868 -0.013513
v 0.017375 0.008865 -0.013510
v 0.017375 0.008741 -0.013510
v 0.017375 0.008868 -0.013513
v 0.017375 0.008741 -0.013510
v 0.017375 0.008738 -0.013513
v 0.017375 0.008710 -0.013543
v 0.017375 0.008710 -0.013552
v 0.017375 0.008714 -0.013539
v 0.017375 0.008868 -0.013513
v 0.017375 0.008738 -0.013513
v 0.017375 0.008872 -0.013517
v 0.017375 0.008720 -0.013531
v 0.017375 0.008717 -0.013535
v 0.017375 0.008734 -0.013517
v 0.017375 0.008730 -0.013520
v 0.017375 0.008895 -0.013543
v 0.017375 0.008892 -0.013539
v 0.017375 0.008895 -0.013552
v 0.017375 0.008892 -0.013539
v 0.017375 0.008889 -0.013535
v 0.017375 0.008889 -0.013535
v 0.017375 0.008886 -0.013531
v 0.017375 0.008886 -0.013531
v 0.017375 0.008883 -0.013527
v 0.017375 0.008883 -0.013527
v 0.017375 0.008879 -0.013524
v 0.017375 0.008879 -0.013524
v 0.017375 0.008876 -0.013520
v 0.017375 0.008876 -0.013520
v 0.017375 0.008872 -0.013517
v 0.017375 0.008734 -0.013517
v 0.017375 0.008730 -0.013520
v 0.017375 0.008727 -0.013524
v 0.017375 0.008727 -0.013524
v 0.017375 0.008723 -0.013527
v 0.017375 0.008723 -0.013527
v 0.017375 0.008720 -0.013531
v 0.017375 0.008734 -0.013517
v 0.017375 0.008872 -0.013517
v 0.017375 0.008872 -0.013517
v 0.017375 0.008738 -0.013513
v 0.017375 0.008734 -0.013517
v 0.017375 0.008717 -0.013535
v 0.017375 0.008714 -0.013539
v 0.017375 0.008845 -0.013494
v 0.017375 0.008841 -0.013491
v 0.017375 0.008834 -0.013487
v 0.017375 0.008836 -0.013487
v 0.017375 0.008834 -0.013487
v 0.017375 0.008836 -0.013487
v 0.017375 0.008834 -0.013487
v 0.017375 0.008837 -0.013488
v 0.017375 0.008835 -0.013487
v 0.017375 0.008834 -0.013487
v 0.017375 0.008837 -0.013488
v 0.017375 0.008834 -0.013487
v 0.017375 0.008841 -0.013491
v 0.017375 0.008710 -0.013552
v 0.017375 0.008710 -0.013543
v 0.017290 0.008710 -0.013552
v 0.017375 0.008710 -0.013543
v 0.017290 0.008710 -0.013543
v 0.017290 0.008710 -0.013552
v 0.017290 0.008895 -0.013552
v 0.017290 0.008895 -0.013543
v 0.017375 0.008895 -0.013552
v 0.017290 0.008895 -0.013543
v 0.017375 0.008895 -0.013543
v 0.017375 0.008895 -0.013552
v 0.017290 0.008710 -0.013552
v 0.017306 0.008775 -0.013552
v 0.017308 0.008776 -0.013552
v 0.017375 0.008710 -0.013552
v 0.017325 0.008801 -0.013552
v 0.017325 0.008803 -0.013552
v 0.017292 0.008833 -0.013552
v 0.017290 0.008833 -0.013552
v 0.017290 0.008895 -0.013552
v 0.017290 0.008895 -0.013552
v 0.017293 0.008833 -0.013552
v 0.017290 0.008895 -0.013552
v 0.017295 0.008833 -0.013552
v 0.017290 0.008895 -0.013552
v 0.017296 0.008833 -0.013552
v 0.017290 0.008895 -0.013552
v 0.017298 0.008833 -0.013552
v 0.017290 0.008895 -0.013552
v 0.017300 0.008833 -0.013552
v 0.017290 0.008895 -0.013552
v 0.017301 0.008832 -0.013552
v 0.017290 0.008895 -0.013552
v 0.017303 0.008832 -0.013552
v 0.017290 0.008895 -0.013552
v 0.017304 0.008831 -0.013552
v 0.017290 0.008895 -0.013552
v 0.017306 0.008831 -0.013552
v 0.017290 0.008895 -0.013552
v 0.017308 0.008830 -0.013552
v 0.017290 0.008895 -0.013552
v 0.017309 0.008830 -0.013552
v 0.017290 0.008895 -0.013552
v 0.017375 0.008895 -0.013552
v 0.017375 0.008895 -0.013552
v 0.017310 0.008829 -0.013552
v 0.017375 0.008895 -0.013552
v 0.017312 0.008828 -0.013552
v 0.017375 0.008895 -0.013552
v 0.017313 0.008827 -0.013552
v 0.017375 0.008895 -0.013552
v 0.017314 0.008826 -0.013552
v 0.017375 0.008895 -0.013552
v 0.017316 0.008825 -0.013552
v 0.017375 0.008895 -0.013552
v 0.017317 0.008824 -0.013552
v 0.017375 0.008895 -0.013552
v 0.017318 0.008822 -0.013552
v 0.017375 0.008895 -0.013552
v 0.017319 0.008821 -0.013552
v 0.017375 0.008895 -0.013552
v 0.017320 0.008820 -0.013552
v 0.017375 0.008895 -0.013552
v 0.017321 0.008819 -0.013552
v 0.017323 0.008814 -0.013552
v 0.017322 0.008816 -0.013552
v 0.017375 0.008895 -0.013552
v 0.017375 0.008895 -0.013552
v 0.017321 0.008817 -0.013552
v 0.017323 0.008813 -0.013552
v 0.017375 0.008895 -0.013552
v 0.017324 0.008811 -0.013552
v 0.017375 0.008895 -0.013552
v 0.017324 0.008809 -0.013552
v 0.017375 0.008895 -0.013552
v 0.017325 0.008808 -0.013552
v 0.017375 0.008895 -0.013552
v 0.017325 0.008806 -0.013552
v 0.017375 0.008895 -0.013552
v 0.017325 0.008805 -0.013552
v 0.017375 0.008895 -0.013552
v 0.017375 0.008895 -0.013552
v 0.017375 0.008895 -0.013552
v 0.017375 0.008710 -0.013552
v 0.017375 0.008710 -0.013552
v 0.017325 0.008800 -0.013552
v 0.017375 0.008710 -0.013552
v 0.017325 0.008798 -0.013552
v 0.017375 0.008710 -0.013552
v 0.017324 0.008797 -0.013552
v 0.017375 0.008710 -0.013552
v 0.017324 0.008795 -0.013552
v 0.017375 0.008710 -0.013552
v 0.017323 0.008793 -0.013552
v 0.017322 0.008790 -0.013552
v 0.017375 0.008710 -0.013552
v 0.017321 0.008789 -0.013552
v 0.017323 0.008792 -0.013552
v 0.017375 0.008710 -0.013552
v 0.017375 0.008710 -0.013552
v 0.017321 0.008787 -0.013552
v 0.017375 0.008710 -0.013552
v 0.017320 0.008786 -0.013552
v 0.017375 0.008710 -0.013552
v 0.017319 0.008785 -0.013552
v 0.017375 0.008710 -0.013552
v 0.017318 0.008784 -0.013552
v 0.017375 0.008710 -0.013552
v 0.017317 0.008782 -0.013552
v 0.017375 0.008710 -0.013552
v 0.017316 0.008781 -0.013552
v 0.017375 0.008710 -0.013552
v 0.017314 0.008780 -0.013552
v 0.017375 0.008710 -0.013552
v 0.017313 0.008779 -0.013552
v 0.017375 0.008710 -0.013552
v 0.017312 0.008778 -0.013552
v 0.017375 0.008710 -0.013552
v 0.017310 0.008777 -0.013552
v 0.017375 0.008710 -0.013552
v 0.017309 0.008776 -0.013552
v 0.017375 0.008710 -0.013552
v 0.017290 0.008710 -0.013552
v 0.017290 0.008710 -0.013552
v 0.017304 0.008775 -0.013552
v 0.017290 0.008710 -0.013552
v 0.017303 0.008774 -0.013552
v 0.017290 0.008710 -0.013552
v 0.017301 0.008774 -0.013552
v 0.017290 0.008710 -0.013552
v 0.017290 0.008710 -0.013552
v 0.017300 0.008773 -0.013552
v 0.017290 0.008710 -0.013552
v 0.017298 0.008773 -0.013552
v 0.017290 0.008710 -0.013552
v 0.017296 0.008773 -0.013552
v 0.017290 0.008710 -0.013552
v 0.017295 0.008773 -0.013552
v 0.017290 0.008710 -0.013552
v 0.017293 0.008773 -0.013552
v 0.017375 0.008895 -0.013552
v 0.017290 0.008710 -0.013552
v 0.017292 0.008773 -0.013552
v 0.017375 0.008710 -0.013552
v 0.017290 0.008710 -0.013552
v 0.017290 0.008773 -0.013552
v 0.017292 0.008833 -0.013552
v 0.017293 0.008833 -0.013552
v 0.017292 0.008833 -0.013515
v 0.017293 0.008833 -0.013552
v 0.017295 0.008833 -0.013552
v 0.017293 0.008833 -0.013515
v 0.017295 0.008833 -0.013552
v 0.017295 0.008833 -0.013515
v 0.017296 0.008833 -0.013552
v 0.017296 0.008833 -0.013515
v 0.017298 0.008833 -0.013552
v 0.017298 0.008833 -0.013515
v 0.017300 0.008833 -0.013552
v 0.017300 0.008833 -0.013515
v 0.017301 0.008832 -0.013552
v 0.017300 0.008833 -0.013552
v 0.017303 0.008832 -0.013552
v 0.017301 0.008832 -0.013515
v 0.017301 0.008832 -0.013552
v 0.017303 0.008832 -0.013515
v 0.017303 0.008832 -0.013552
v 0.017304 0.008831 -0.013515
v 0.017304 0.008831 -0.013552
v 0.017304 0.008831 -0.013552
v 0.017306 0.008831 -0.013552
v 0.017306 0.008831 -0.013515
v 0.017306 0.008831 -0.013552
v 0.017308 0.008830 -0.013552
v 0.017308 0.008830 -0.013515
v 0.017308 0.008830 -0.013552
v 0.017309 0.008830 -0.013552
v 0.017309 0.008830 -0.013552
v 0.017309 0.008830 -0.013515
v 0.017310 0.008829 -0.013552
v 0.017310 0.008829 -0.013515
v 0.017310 0.008829 -0.013552
v 0.017312 0.008828 -0.013552
v 0.017312 0.008828 -0.013552
v 0.017313 0.008827 -0.013552
v 0.017312 0.008828 -0.013515
v 0.017313 0.008827 -0.013552
v 0.017313 0.008827 -0.013515
v 0.017314 0.008826 -0.013552
v 0.017314 0.008826 -0.013515
v 0.017316 0.008825 -0.013552
v 0.017314 0.008826 -0.013552
v 0.017317 0.008824 -0.013552
v 0.017316 0.008825 -0.013515
v 0.017316 0.008825 -0.013552
v 0.017317 0.008824 -0.013515
v 0.017317 0.008824 -0.013552
v 0.017318 0.008822 -0.013515
v 0.017318 0.008822 -0.013552
v 0.017318 0.008822 -0.013552
v 0.017319 0.008821 -0.013552
v 0.017319 0.008821 -0.013515
v 0.017319 0.008821 -0.013552
v 0.017320 0.008820 -0.013552
v 0.017320 0.008820 -0.013552
v 0.017320 0.008820 -0.013515
v 0.017321 0.008819 -0.013552
v 0.017321 0.008819 -0.013515
v 0.017321 0.008819 -0.013552
v 0.017321 0.008817 -0.013552
v 0.017321 0.008817 -0.013552
v 0.017322 0.008816 -0.013552
v 0.017321 0.008817 -0.013515
v 0.017322 0.008816 -0.013552
v 0.017322 0.008816 -0.013515
v 0.017323 0.008814 -0.013552
v 0.017323 0.008814 -0.013515
v 0.017323 0.008813 -0.013552
v 0.017323 0.008814 -0.013552
v 0.017324 0.008811 -0.013552
v 0.017323 0.008813 -0.013515
v 0.017323 0.008813 -0.013552
v 0.017324 0.008811 -0.013515
v 0.017324 0.008811 -0.013552
v 0.017324 0.008809 -0.013515
v 0.017324 0.008809 -0.013552
v 0.017324 0.008809 -0.013552
v 0.017325 0.008808 -0.013552
v 0.017325 0.008808 -0.013515
v 0.017325 0.008808 -0.013552
v 0.017325 0.008806 -0.013552
v 0.017325 0.008806 -0.013552
v 0.017325 0.008806 -0.013515
v 0.017325 0.008805 -0.013552
v 0.017325 0.008805 -0.013515
v 0.017325 0.008805 -0.013552
v 0.017325 0.008803 -0.013552
v 0.017325 0.008803 -0.013552
v 0.017325 0.008801 -0.013552
v 0.017325 0.008803 -0.013515
v 0.017325 0.008801 -0.013552
v 0.017325 0.008801 -0.013515
v 0.017325 0.008800 -0.013552
v 0.017325 0.008800 -0.013515
v 0.017325 0.008798 -0.013552
v 0.017325 0.008800 -0.013552
v 0.017324 0.008797 -0.013552
v 0.017325 0.008798 -0.013515
v 0.017325 0.008798 -0.013552
v 0.017324 0.008795 -0.013552
v 0.017324 0.008797 -0.013515
v 0.017324 0.008797 -0.013552
v 0.017324 0.008795 -0.013515
v 0.017324 0.008795 -0.013552
v 0.017323 0.008793 -0.013515
v 0.017323 0.008793 -0.013552
v 0.017323 0.008793 -0.013552
v 0.017323 0.008792 -0.013552
v 0.017323 0.008792 -0.013515
v 0.017323 0.008792 -0.013552
v 0.017322 0.008790 -0.013552
v 0.017322 0.008790 -0.013552
v 0.017322 0.008790 -0.013515
v 0.017321 0.008789 -0.013552
v 0.017321 0.008789 -0.013515
v 0.017321 0.008789 -0.013552
v 0.017321 0.008787 -0.013552
v 0.017321 0.008787 -0.013552
v 0.017320 0.008786 -0.013552
v 0.017321 0.008787 -0.013515
v 0.017320 0.008786 -0.013552
v 0.017320 0.008786 -0.013515
v 0.017319 0.008785 -0.013552
v 0.017319 0.008785 -0.013515
v 0.017318 0.008784 -0.013552
v 0.017319 0.008785 -0.013552
v 0.017317 0.008782 -0.013552
v 0.017318 0.008784 -0.013515
v 0.017318 0.008784 -0.013552
v 0.017317 0.008782 -0.013515
v 0.017317 0.008782 -0.013552
v 0.017316 0.008781 -0.013515
v 0.017316 0.008781 -0.013552
v 0.017316 0.008781 -0.013552
v 0.017314 0.008780 -0.013552
v 0.017314 0.008780 -0.013515
v 0.017314 0.008780 -0.013552
v 0.017313 0.008779 -0.013552
v 0.017313 0.008779 -0.013552
v 0.017313 0.008779 -0.013515
v 0.017292 0.008773 -0.013515
v 0.017293 0.008773 -0.013515
v 0.017292 0.008773 -0.013552
v 0.017290 0.008773 -0.013552
v 0.017290 0.008773 -0.013515
v 0.017290 0.008773 -0.013552
v 0.017292 0.008773 -0.013552
v 0.017293 0.008773 -0.013552
v 0.017292 0.008773 -0.013552
v 0.017295 0.008773 -0.013515
v 0.017293 0.008773 -0.013552
v 0.017295 0.008773 -0.013552
v 0.017293 0.008773 -0.013552
v 0.017295 0.008773 -0.013552
v 0.017296 0.008773 -0.013515
v 0.017295 0.008773 -0.013552
v 0.017296 0.008773 -0.013552
v 0.017298 0.008773 -0.013515
v 0.017296 0.008773 -0.013552
v 0.017298 0.008773 -0.013552
v 0.017296 0.008773 -0.013552
v 0.017300 0.008773 -0.013515
v 0.017298 0.008773 -0.013552
v 0.017300 0.008773 -0.013552
v 0.017298 0.008773 -0.013552
v 0.017300 0.008773 -0.013552
v 0.017301 0.008774 -0.013515
v 0.017300 0.008773 -0.013552
v 0.017301 0.008774 -0.013552
v 0.017303 0.008774 -0.013515
v 0.017301 0.008774 -0.013552
v 0.017303 0.008774 -0.013552
v 0.017301 0.008774 -0.013552
v 0.017304 0.008775 -0.013515
v 0.017303 0.008774 -0.013552
v 0.017304 0.008775 -0.013552
v 0.017303 0.008774 -0.013552
v 0.017304 0.008775 -0.013552
v 0.017306 0.008775 -0.013515
v 0.017304 0.008775 -0.013552
v 0.017306 0.008775 -0.013552
v 0.017308 0.008776 -0.013515
v 0.017306 0.008775 -0.013552
v 0.017308 0.008776 -0.013552
v 0.017306 0.008775 -0.013552
v 0.017309 0.008776 -0.013515
v 0.017308 0.008776 -0.013552
v 0.017309 0.008776 -0.013552
v 0.017308 0.008776 -0.013552
v 0.017309 0.008776 -0.013552
v 0.017310 0.008777 -0.013515
v 0.017309 0.008776 -0.013552
v 0.017310 0.008777 -0.013552
v 0.017312 0.008778 -0.013515
v 0.017310 0.008777 -0.013552
v 0.017312 0.008778 -0.013552
v 0.017310 0.008777 -0.013552
v 0.017312 0.008778 -0.013552
v 0.017313 0.008779 -0.013552
v 0.017312 0.008778 -0.013552
v 0.017314 0.008780 -0.013552
v 0.017317 0.008782 -0.013552
v 0.017316 0.008781 -0.013552
v 0.017318 0.008784 -0.013552
v 0.017319 0.008785 -0.013552
v 0.017320 0.008786 -0.013552
v 0.017321 0.008787 -0.013552
v 0.017322 0.008790 -0.013552
v 0.017321 0.008789 -0.013552
v 0.017323 0.008792 -0.013552
v 0.017324 0.008795 -0.013552
v 0.017323 0.008793 -0.013552
v 0.017324 0.008797 -0.013552
v 0.017325 0.008798 -0.013552
v 0.017325 0.008800 -0.013552
v 0.017325 0.008801 -0.013552
v 0.017325 0.008803 -0.013552
v 0.017325 0.008806 -0.013552
v 0.017325 0.008805 -0.013552
v 0.017325 0.008808 -0.013552
v 0.017324 0.008811 -0.013552
v 0.017324 0.008809 -0.013552
v 0.017323 0.008813 -0.013552
v 0.017323 0.008814 -0.013552
v 0.017322 0.008816 -0.013552
v 0.017321 0.008817 -0.013552
v 0.017320 0.008820 -0.013552
v 0.017321 0.008819 -0.013552
v 0.017319 0.008821 -0.013552
v 0.017317 0.008824 -0.013552
v 0.017318 0.008822 -0.013552
v 0.017316 0.008825 -0.013552
v 0.017314 0.008826 -0.013552
v 0.017313 0.008827 -0.013552
v 0.017312 0.008828 -0.013552
v 0.017309 0.008830 -0.013552
v 0.017310 0.008829 -0.013552
v 0.017308 0.008830 -0.013552
v 0.017306 0.008831 -0.013552
v 0.017303 0.008832 -0.013552
v 0.017304 0.008831 -0.013552
v 0.017298 0.008833 -0.013552
v 0.017300 0.008833 -0.013552
v 0.017295 0.008833 -0.013552
v 0.017296 0.008833 -0.013552
v 0.017290 0.008833 -0.013552
v 0.017292 0.008833 -0.013552
v 0.017290 0.008833 -0.013515
v 0.017290 0.008833 -0.013552
v 0.017301 0.008832 -0.013552
v 0.017296 0.008833 -0.013552
v 0.017298 0.008833 -0.013552
v 0.017293 0.008833 -0.013552
v 0.017293 0.008756 -0.013497
v 0.017295 0.008773 -0.013515
v 0.017293 0.008773 -0.013515
v 0.017293 0.008756 -0.013497
v 0.017293 0.008773 -0.013515
v 0.017290 0.008756 -0.013497
v 0.017297 0.008756 -0.013497
v 0.017296 0.008773 -0.013515
v 0.017295 0.008773 -0.013515
v 0.017298 0.008773 -0.013515
v 0.017296 0.008773 -0.013515
v 0.017300 0.008756 -0.013497
v 0.017300 0.008773 -0.013515
v 0.017300 0.008756 -0.013497
v 0.017304 0.008756 -0.013497
v 0.017301 0.008774 -0.013515
v 0.017304 0.008756 -0.013497
v 0.017307 0.008757 -0.013497
v 0.017303 0.008774 -0.013515
v 0.017307 0.008757 -0.013497
v 0.017310 0.008757 -0.013496
v 0.017304 0.008775 -0.013515
v 0.017310 0.008757 -0.013496
v 0.017306 0.008775 -0.013515
v 0.017310 0.008757 -0.013496
v 0.017313 0.008758 -0.013496
v 0.017306 0.008775 -0.013515
v 0.017313 0.008758 -0.013496
v 0.017317 0.008759 -0.013495
v 0.017308 0.008776 -0.013515
v 0.017317 0.008759 -0.013495
v 0.017309 0.008776 -0.013515
v 0.017308 0.008776 -0.013515
v 0.017320 0.008760 -0.013494
v 0.017310 0.008777 -0.013515
v 0.017309 0.008776 -0.013515
v 0.017323 0.008761 -0.013494
v 0.017312 0.008778 -0.013515
v 0.017310 0.008777 -0.013515
v 0.017326 0.008762 -0.013493
v 0.017312 0.008778 -0.013515
v 0.017323 0.008761 -0.013494
v 0.017314 0.008780 -0.013515
v 0.017313 0.008779 -0.013515
v 0.017326 0.008762 -0.013493
v 0.017314 0.008780 -0.013515
v 0.017326 0.008762 -0.013493
v 0.017329 0.008763 -0.013492
v 0.017314 0.008780 -0.013515
v 0.017329 0.008763 -0.013492
v 0.017316 0.008781 -0.013515
v 0.017329 0.008763 -0.013492
v 0.017332 0.008764 -0.013491
v 0.017316 0.008781 -0.013515
v 0.017317 0.008782 -0.013515
v 0.017335 0.008766 -0.013490
v 0.017318 0.008784 -0.013515
v 0.017332 0.008764 -0.013491
v 0.017317 0.008782 -0.013515
v 0.017316 0.008781 -0.013515
v 0.017335 0.008766 -0.013490
v 0.017338 0.008767 -0.013489
v 0.017318 0.008784 -0.013515
v 0.017338 0.008767 -0.013489
v 0.017340 0.008769 -0.013488
v 0.017319 0.008785 -0.013515
v 0.017340 0.008769 -0.013488
v 0.017341 0.008770 -0.013488
v 0.017320 0.008786 -0.013515
v 0.017342 0.008770 -0.013487
v 0.017320 0.008786 -0.013515
v 0.017320 0.008786 -0.013515
v 0.017343 0.008771 -0.013487
v 0.017343 0.008772 -0.013487
v 0.017321 0.008787 -0.013515
v 0.017343 0.008772 -0.013487
v 0.017345 0.008775 -0.013487
v 0.017321 0.008787 -0.013515
v 0.017345 0.008775 -0.013487
v 0.017321 0.008789 -0.013515
v 0.017321 0.008789 -0.013515
v 0.017347 0.008779 -0.013487
v 0.017322 0.008790 -0.013515
v 0.017347 0.008779 -0.013487
v 0.017349 0.008783 -0.013487
v 0.017323 0.008792 -0.013515
v 0.017349 0.008783 -0.013487
v 0.017350 0.008787 -0.013487
v 0.017323 0.008793 -0.013515
v 0.017350 0.008787 -0.013487
v 0.017324 0.008795 -0.013515
v 0.017323 0.008793 -0.013515
v 0.017351 0.008791 -0.013487
v 0.017324 0.008797 -0.013515
v 0.017324 0.008795 -0.013515
v 0.017352 0.008795 -0.013487
v 0.017325 0.008798 -0.013515
v 0.017351 0.008791 -0.013487
v 0.017325 0.008800 -0.013515
v 0.017325 0.008798 -0.013515
v 0.017352 0.008795 -0.013487
v 0.017325 0.008801 -0.013515
v 0.017325 0.008800 -0.013515
v 0.017352 0.008799 -0.013487
v 0.017325 0.008803 -0.013515
v 0.017325 0.008801 -0.013515
v 0.017352 0.008803 -0.013487
v 0.017325 0.008805 -0.013515
v 0.017325 0.008803 -0.013515
v 0.017352 0.008803 -0.013487
v 0.017325 0.008805 -0.013515
v 0.017352 0.008803 -0.013487
v 0.017352 0.008807 -0.013487
v 0.017325 0.008805 -0.013515
v 0.017352 0.008807 -0.013487
v 0.017325 0.008806 -0.013515
v 0.017325 0.008806 -0.013515
v 0.017352 0.008811 -0.013487
v 0.017325 0.008808 -0.013515
v 0.017352 0.008811 -0.013487
v 0.017351 0.008815 -0.013487
v 0.017325 0.008808 -0.013515
v 0.017351 0.008815 -0.013487
v 0.017324 0.008811 -0.013515
v 0.017324 0.008809 -0.013515
v 0.017350 0.008819 -0.013487
v 0.017323 0.008813 -0.013515
v 0.017324 0.008811 -0.013515
v 0.017349 0.008823 -0.013487
v 0.017323 0.008814 -0.013515
v 0.017323 0.008813 -0.013515
v 0.017347 0.008827 -0.013487
v 0.017322 0.008816 -0.013515
v 0.017323 0.008814 -0.013515
v 0.017321 0.008817 -0.013515
v 0.017322 0.008816 -0.013515
v 0.017347 0.008827 -0.013487
v 0.017321 0.008819 -0.013515
v 0.017321 0.008817 -0.013515
v 0.017345 0.008831 -0.013487
v 0.017320 0.008820 -0.013515
v 0.017321 0.008819 -0.013515
v 0.017343 0.008834 -0.013487
v 0.017342 0.008836 -0.013487
v 0.017320 0.008820 -0.013515
v 0.017343 0.008835 -0.013487
v 0.017335 0.008840 -0.013490
v 0.017318 0.008822 -0.013515
v 0.017338 0.008839 -0.013489
v 0.017319 0.008821 -0.013515
v 0.017340 0.008837 -0.013488
v 0.017338 0.008839 -0.013489
v 0.017317 0.008824 -0.013515
v 0.017318 0.008822 -0.013515
v 0.017335 0.008840 -0.013490
v 0.017316 0.008825 -0.013515
v 0.017317 0.008824 -0.013515
v 0.017332 0.008842 -0.013491
v 0.017314 0.008826 -0.013515
v 0.017316 0.008825 -0.013515
v 0.017329 0.008843 -0.013492
v 0.017313 0.008827 -0.013515
v 0.017314 0.008826 -0.013515
v 0.017326 0.008844 -0.013493
v 0.017341 0.008836 -0.013488
v 0.017340 0.008837 -0.013488
v 0.017320 0.008820 -0.013515
v 0.017290 0.008850 -0.013497
v 0.017290 0.008833 -0.013515
v 0.017292 0.008833 -0.013515
v 0.017290 0.008850 -0.013497
v 0.017292 0.008833 -0.013515
v 0.017293 0.008833 -0.013515
v 0.017290 0.008850 -0.013497
v 0.017293 0.008833 -0.013515
v 0.017293 0.008850 -0.013497
v 0.017293 0.008833 -0.013515
v 0.017295 0.008833 -0.013515
v 0.017293 0.008850 -0.013497
v 0.017295 0.008833 -0.013515
v 0.017297 0.008850 -0.013497
v 0.017293 0.008850 -0.013497
v 0.017296 0.008833 -0.013515
v 0.017297 0.008850 -0.013497
v 0.017295 0.008833 -0.013515
v 0.017300 0.008850 -0.013497
v 0.017297 0.008850 -0.013497
v 0.017296 0.008833 -0.013515
v 0.017300 0.008850 -0.013497
v 0.017296 0.008833 -0.013515
v 0.017298 0.008833 -0.013515
v 0.017300 0.008850 -0.013497
v 0.017298 0.008833 -0.013515
v 0.017300 0.008833 -0.013515
v 0.017300 0.008850 -0.013497
v 0.017300 0.008833 -0.013515
v 0.017303 0.008850 -0.013497
v 0.017300 0.008833 -0.013515
v 0.017301 0.008832 -0.013515
v 0.017303 0.008850 -0.013497
v 0.017301 0.008832 -0.013515
v 0.017307 0.008849 -0.013497
v 0.017303 0.008850 -0.013497
v 0.017303 0.008832 -0.013515
v 0.017307 0.008849 -0.013497
v 0.017301 0.008832 -0.013515
v 0.017310 0.008849 -0.013496
v 0.017307 0.008849 -0.013497
v 0.017303 0.008832 -0.013515
v 0.017310 0.008849 -0.013496
v 0.017303 0.008832 -0.013515
v 0.017304 0.008831 -0.013515
v 0.017310 0.008849 -0.013496
v 0.017304 0.008831 -0.013515
v 0.017306 0.008831 -0.013515
v 0.017310 0.008849 -0.013496
v 0.017306 0.008831 -0.013515
v 0.017313 0.008848 -0.013496
v 0.017306 0.008831 -0.013515
v 0.017308 0.008830 -0.013515
v 0.017313 0.008848 -0.013496
v 0.017308 0.008830 -0.013515
v 0.017317 0.008847 -0.013495
v 0.017313 0.008848 -0.013496
v 0.017309 0.008830 -0.013515
v 0.017317 0.008847 -0.013495
v 0.017308 0.008830 -0.013515
v 0.017320 0.008846 -0.013494
v 0.017317 0.008847 -0.013495
v 0.017309 0.008830 -0.013515
v 0.017320 0.008846 -0.013494
v 0.017309 0.008830 -0.013515
v 0.017310 0.008829 -0.013515
v 0.017320 0.008846 -0.013494
v 0.017310 0.008829 -0.013515
v 0.017323 0.008845 -0.013494
v 0.017310 0.008829 -0.013515
v 0.017312 0.008828 -0.013515
v 0.017323 0.008845 -0.013494
v 0.017312 0.008828 -0.013515
v 0.017326 0.008844 -0.013493
v 0.017323 0.008845 -0.013494
v 0.017313 0.008827 -0.013515
v 0.017326 0.008844 -0.013493
v 0.017312 0.008828 -0.013515
v 0.017314 0.008826 -0.013515
v 0.017329 0.008843 -0.013492
v 0.017326 0.008844 -0.013493
v 0.017316 0.008825 -0.013515
v 0.017332 0.008842 -0.013491
v 0.017329 0.008843 -0.013492
v 0.017317 0.008824 -0.013515
v 0.017335 0.008840 -0.013490
v 0.017332 0.008842 -0.013491
v 0.017318 0.008822 -0.013515
v 0.017319 0.008821 -0.013515
v 0.017338 0.008839 -0.013489
v 0.017319 0.008821 -0.013515
v 0.017320 0.008820 -0.013515
v 0.017340 0.008837 -0.013488
v 0.017320 0.008820 -0.013515
v 0.017343 0.008834 -0.013487
v 0.017320 0.008820 -0.013515
v 0.017345 0.008831 -0.013487
v 0.017343 0.008834 -0.013487
v 0.017321 0.008819 -0.013515
v 0.017347 0.008827 -0.013487
v 0.017345 0.008831 -0.013487
v 0.017321 0.008817 -0.013515
v 0.017323 0.008814 -0.013515
v 0.017349 0.008823 -0.013487
v 0.017347 0.008827 -0.013487
v 0.017323 0.008813 -0.013515
v 0.017350 0.008819 -0.013487
v 0.017349 0.008823 -0.013487
v 0.017324 0.008811 -0.013515
v 0.017351 0.008815 -0.013487
v 0.017350 0.008819 -0.013487
v 0.017324 0.008809 -0.013515
v 0.017325 0.008808 -0.013515
v 0.017351 0.008815 -0.013487
v 0.017352 0.008811 -0.013487
v 0.017325 0.008806 -0.013515
v 0.017352 0.008807 -0.013487
v 0.017325 0.008801 -0.013515
v 0.017352 0.008799 -0.013487
v 0.017352 0.008803 -0.013487
v 0.017325 0.008800 -0.013515
v 0.017352 0.008795 -0.013487
v 0.017352 0.008799 -0.013487
v 0.017325 0.008798 -0.013515
v 0.017324 0.008797 -0.013515
v 0.017351 0.008791 -0.013487
v 0.017351 0.008791 -0.013487
v 0.017324 0.008795 -0.013515
v 0.017350 0.008787 -0.013487
v 0.017349 0.008783 -0.013487
v 0.017323 0.008793 -0.013515
v 0.017323 0.008792 -0.013515
v 0.017347 0.008779 -0.013487
v 0.017323 0.008792 -0.013515
v 0.017322 0.008790 -0.013515
v 0.017345 0.008775 -0.013487
v 0.017347 0.008779 -0.013487
v 0.017321 0.008789 -0.013515
v 0.017320 0.008786 -0.013515
v 0.017343 0.008772 -0.013487
v 0.017321 0.008787 -0.013515
v 0.017320 0.008786 -0.013515
v 0.017340 0.008769 -0.013488
v 0.017320 0.008786 -0.013515
v 0.017319 0.008785 -0.013515
v 0.017338 0.008767 -0.013489
v 0.017319 0.008785 -0.013515
v 0.017318 0.008784 -0.013515
v 0.017332 0.008764 -0.013491
v 0.017335 0.008766 -0.013490
v 0.017317 0.008782 -0.013515
v 0.017326 0.008762 -0.013493
v 0.017313 0.008779 -0.013515
v 0.017312 0.008778 -0.013515
v 0.017320 0.008760 -0.013494
v 0.017323 0.008761 -0.013494
v 0.017310 0.008777 -0.013515
v 0.017317 0.008759 -0.013495
v 0.017320 0.008760 -0.013494
v 0.017309 0.008776 -0.013515
v 0.017310 0.008757 -0.013496
v 0.017304 0.008775 -0.013515
v 0.017303 0.008774 -0.013515
v 0.017300 0.008773 -0.013515
v 0.017304 0.008756 -0.013497
v 0.017301 0.008774 -0.013515
v 0.017298 0.008773 -0.013515
v 0.017300 0.008756 -0.013497
v 0.017300 0.008773 -0.013515
v 0.017296 0.008773 -0.013515
v 0.017297 0.008756 -0.013497
v 0.017300 0.008756 -0.013497
v 0.017293 0.008756 -0.013497
v 0.017297 0.008756 -0.013497
v 0.017295 0.008773 -0.013515
v 0.017292 0.008773 -0.013515
v 0.017290 0.008773 -0.013515
v 0.017290 0.008756 -0.013497
v 0.017307 0.008757 -0.013497
v 0.017303 0.008774 -0.013515
v 0.017301 0.008774 -0.013515
v 0.017308 0.008776 -0.013515
v 0.017306 0.008775 -0.013515
v 0.017313 0.008758 -0.013496
v 0.017293 0.008773 -0.013515
v 0.017292 0.008773 -0.013515
v 0.017290 0.008756 -0.013497
v 0.017375 0.008835 -0.013487
v 0.017375 0.008835 -0.013487
v 0.017375 0.008836 -0.013487
v 0.017375 0.008836 -0.013487
v 0.017343 0.008835 -0.013487
v 0.017343 0.008835 -0.013487
v 0.017375 0.008836 -0.013487
v 0.017375 0.008836 -0.013487
v 0.017341 0.008836 -0.013488
v 0.017341 0.008836 -0.013488
v 0.017342 0.008836 -0.013487
v 0.017342 0.008836 -0.013487
v 0.017343 0.008835 -0.013487
v 0.017375 0.008836 -0.013487
v 0.017342 0.008836 -0.013487
v 0.017375 0.008836 -0.013487
v 0.017342 0.008770 -0.013487
v 0.017341 0.008770 -0.013488
v 0.017341 0.008770 -0.013488
v 0.017342 0.008770 -0.013487
v 0.017375 0.008770 -0.013487
v 0.017375 0.008771 -0.013487
v 0.017375 0.008771 -0.013487
v 0.017375 0.008770 -0.013487
v 0.017375 0.008770 -0.013487
v 0.017343 0.008771 -0.013487
v 0.017375 0.008770 -0.013487
v 0.017375 0.008770 -0.013487
v 0.017343 0.008771 -0.013487
v 0.017375 0.008770 -0.013487
v 0.017343 0.008771 -0.013487
v 0.017342 0.008770 -0.013487
vn -1.0000 0.0001 -0.0000
vn -1.0000 -0.0001 -0.0000
vn -1.0000 -0.0000 -0.0000
vn -0.0000 -0.7940 0.6079
vn -0.0001 -0.7940 0.6079
vn -0.0000 -0.7816 0.6238
vn -0.0000 -0.7739 0.6333
vn -0.0000 -0.7688 0.6395
vn -0.0000 -0.7815 0.6239
vn -0.0000 -0.7530 0.6580
vn -0.0000 -0.7558 0.6548
vn -0.0000 -0.7424 0.6699
vn -0.0000 -0.7557 0.6549
vn 0.0001 -0.7424 0.6700
vn -0.0000 -0.7313 0.6820
vn -0.0000 -0.7287 0.6848
vn -0.0000 -0.7147 0.6994
vn -0.0000 -0.7314 0.6820
vn -0.0000 -0.7424 0.6700
vn -0.0000 -0.7287 0.6849
vn -0.0000 -0.7313 0.6821
vn -0.0000 -0.7089 0.7053
vn -0.0000 -0.7004 0.7137
vn -0.0000 -0.6857 0.7279
vn -0.0000 -0.6859 0.7277
vn -0.0000 -0.6710 0.7414
vn -0.0000 -0.6618 0.7497
vn -0.0000 -0.6559 0.7548
vn -0.0000 -0.6372 0.7707
vn -0.0000 -0.6124 0.7905
vn -0.0000 -0.6119 0.7910
vn -0.0000 -0.6617 0.7497
vn -0.0000 -0.6560 0.7548
vn -0.0000 -0.6371 0.7708
vn -0.0000 -0.6124 0.7906
vn -0.0000 -0.6406 0.7679
vn -0.0000 -0.6559 0.7549
vn -0.0000 -0.6118 0.7910
vn -0.0000 -0.6106 0.7919
vn -0.0001 -0.6106 0.7919
vn -0.0001 -0.6090 0.7932
vn -0.0000 -0.6405 0.7679
vn -0.0001 -0.6249 0.7807
vn -0.0000 -0.6068 0.7948
vn -0.0000 -0.6010 0.7992
vn -0.0000 -0.6041 0.7969
vn -0.0000 -0.5599 0.8286
vn -0.0000 -0.5665 0.8241
vn 0.0002 -0.5764 0.8172
vn 0.0002 -0.5727 0.8198
vn -0.0000 -0.5785 0.8157
vn -0.0002 -0.5928 0.8053
vn -0.0000 -0.5840 0.8118
vn -0.0000 -0.5889 0.8082
vn -0.0000 -0.6091 0.7931
vn -0.0000 -0.5934 0.8049
vn -0.0000 -0.5974 0.8019
vn -0.0000 -0.6090 0.7932
vn -0.0000 -0.0000 1.0000
vn -0.0001 -0.0000 1.0000
vn -0.0000 0.6372 0.7707
vn -0.0000 0.6124 0.7905
vn -0.0000 0.6124 0.7906
vn -0.0000 0.6118 0.7910
vn -0.0000 0.6107 0.7919
vn -0.0000 0.6090 0.7932
vn -0.0000 0.6859 0.7277
vn 0.0001 0.7004 0.7138
vn -0.0000 0.6857 0.7279
vn -0.0000 0.7286 0.6849
vn -0.0003 0.7313 0.6820
vn -0.0000 0.7148 0.6994
vn 0.0001 0.7424 0.6700
vn 0.0002 0.7530 0.6580
vn -0.0000 0.6119 0.7909
vn -0.0000 0.7940 0.6079
vn 0.0001 0.7816 0.6238
vn -0.0003 0.7739 0.6333
vn -0.0000 0.7687 0.6396
vn -0.0000 0.7558 0.6548
vn 0.0002 0.7089 0.7053
vn 0.0001 0.6711 0.7414
vn -0.0003 0.6617 0.7497
vn -0.0000 0.6559 0.7549
vn -0.0000 0.6068 0.7948
vn -0.0001 0.6405 0.7679
vn -0.0000 0.6041 0.7969
vn -0.0000 0.6249 0.7807
vn -0.0000 0.6010 0.7992
vn -0.0000 0.5974 0.8019
vn -0.0000 0.6091 0.7931
vn -0.0000 0.5888 0.8083
vn -0.0000 0.5839 0.8118
vn -0.0001 0.5928 0.8053
vn -0.0000 0.5599 0.8286
vn 0.0002 0.5764 0.8172
vn -0.0000 0.5598 0.8286
vn -0.0000 0.5665 0.8241
vn -0.0001 0.5726 0.8198
vn -0.0000 0.5785 0.8157
vn -0.0000 0.5933 0.8050
vn -1.0000 0.0002 -0.0000
vn 1.0000 -0.0000 -0.0000
vn -0.0000 -0.0000 -1.0000
vn -0.0000 -1.0000 -0.0000
vn -0.0000 1.0000 -0.0000
vn 0.0002 -0.0000 -1.0000
vn 0.0001 -0.0000 -1.0000
vn -0.0001 -0.0000 -1.0000
vn 0.1129 -0.9936 -0.0000
vn 0.0588 -0.9983 -0.0000
vn 0.0587 -0.9983 -0.0000
vn 0.0045 -1.0000 -0.0000
vn -0.0498 -0.9988 -0.0000
vn -0.1039 -0.9946 -0.0000
vn -0.1578 -0.9875 -0.0000
vn -0.1040 -0.9946 -0.0000
vn -0.2112 -0.9774 -0.0000
vn -0.1577 -0.9875 -0.0000
vn -0.2639 -0.9646 -0.0000
vn -0.2111 -0.9775 -0.0000
vn -0.3159 -0.9488 -0.0000
vn -0.2640 -0.9645 -0.0000
vn -0.3160 -0.9488 -0.0000
vn -0.3670 -0.9302 -0.0000
vn -0.4170 -0.9089 -0.0000
vn -0.4657 -0.8850 -0.0000
vn -0.4656 -0.8850 -0.0000
vn -0.4658 -0.8849 -0.0000
vn -0.5130 -0.8584 -0.0000
vn -0.5131 -0.8583 -0.0000
vn -0.5588 -0.8293 -0.0000
vn -0.5589 -0.8292 -0.0000
vn -0.6031 -0.7977 -0.0000
vn -0.6455 -0.7637 -0.0000
vn -0.6455 -0.7638 -0.0000
vn -0.6031 -0.7976 -0.0000
vn -0.6860 -0.7276 -0.0000
vn -0.7245 -0.6893 -0.0000
vn -0.7609 -0.6489 -0.0000
vn -0.7245 -0.6892 -0.0000
vn -0.7949 -0.6067 -0.0000
vn -0.7950 -0.6066 -0.0000
vn -0.8267 -0.5626 -0.0000
vn -0.8560 -0.5170 -0.0000
vn -0.8561 -0.5169 -0.0000
vn -0.8828 -0.4697 -0.0000
vn -0.8829 -0.4696 -0.0000
vn -0.9070 -0.4210 -0.0000
vn -0.9070 -0.4211 -0.0000
vn -0.9286 -0.3712 -0.0000
vn -0.9285 -0.3712 -0.0000
vn -0.9071 -0.4210 -0.0000
vn -0.9474 -0.3202 -0.0000
vn -0.9286 -0.3711 -0.0000
vn -0.9633 -0.2683 -0.0000
vn -0.9473 -0.3202 -0.0000
vn -0.9765 -0.2156 -0.0000
vn -0.9634 -0.2682 -0.0000
vn -0.9765 -0.2155 -0.0000
vn -0.9867 -0.1623 -0.0000
vn -0.9868 -0.1622 -0.0000
vn -0.9941 -0.1085 -0.0000
vn -0.9941 -0.1084 -0.0000
vn -0.9985 -0.0543 -0.0000
vn -0.9985 0.0543 -0.0000
vn -0.9941 0.1084 -0.0000
vn -0.9868 0.1622 -0.0000
vn -0.9941 0.1085 -0.0000
vn -0.9765 0.2155 -0.0000
vn -0.9867 0.1623 -0.0000
vn -0.9634 0.2682 -0.0000
vn -0.9765 0.2156 -0.0000
vn -0.9473 0.3202 -0.0000
vn -0.9633 0.2684 -0.0000
vn -0.9474 0.3202 -0.0000
vn -0.9286 0.3711 -0.0000
vn -0.9286 0.3712 -0.0000
vn -0.9285 0.3712 -0.0000
vn -0.9071 0.4210 -0.0000
vn -0.9070 0.4210 -0.0000
vn -0.8829 0.4696 -0.0000
vn -0.8828 0.4697 -0.0000
vn -0.8561 0.5169 -0.0000
vn -0.8560 0.5169 -0.0000
vn -0.8267 0.5627 -0.0000
vn -0.8560 0.5170 -0.0000
vn -0.8267 0.5626 -0.0000
vn -0.7950 0.6066 -0.0000
vn -0.7609 0.6489 -0.0000
vn -0.7949 0.6067 -0.0000
vn -0.7245 0.6892 -0.0000
vn -0.7245 0.6893 -0.0000
vn -0.6860 0.7276 -0.0000
vn -0.6455 0.7638 -0.0000
vn -0.6455 0.7637 -0.0000
vn -0.6031 0.7976 -0.0000
vn -0.6031 0.7977 -0.0000
vn 0.1129 0.9936 -0.0000
vn 0.0588 0.9983 -0.0000
vn 0.1666 0.9860 -0.0000
vn 0.0045 1.0000 -0.0000
vn 0.0587 0.9983 -0.0000
vn -0.0498 0.9988 -0.0000
vn -0.1039 0.9946 -0.0000
vn -0.1578 0.9875 -0.0000
vn -0.1040 0.9946 -0.0000
vn -0.1577 0.9875 -0.0000
vn -0.2112 0.9774 -0.0000
vn -0.2111 0.9775 -0.0000
vn -0.2639 0.9646 -0.0000
vn -0.3159 0.9488 -0.0000
vn -0.2640 0.9645 -0.0000
vn -0.3160 0.9488 -0.0000
vn -0.3670 0.9302 -0.0000
vn -0.3669 0.9303 -0.0000
vn -0.4170 0.9089 -0.0000
vn -0.4169 0.9089 -0.0000
vn -0.4657 0.8850 -0.0000
vn -0.4656 0.8850 -0.0000
vn -0.4658 0.8849 -0.0000
vn -0.5130 0.8584 -0.0000
vn -0.5131 0.8583 -0.0000
vn -0.5588 0.8293 -0.0000
vn -0.5589 0.8292 -0.0000
vn -0.6031 0.7977 0.0001
vn -0.5590 0.8292 -0.0000
vn -0.9070 0.4211 -0.0000
vn -0.9633 0.2683 -0.0000
vn -0.8560 -0.5169 -0.0000
vn -0.4657 -0.8849 -0.0000
vn -0.4169 -0.9089 -0.0000
vn -0.3669 -0.9303 -0.0000
vn 0.1666 -0.9860 -0.0000
vn 0.0238 0.7067 0.7071
vn 0.0032 0.7071 0.7071
vn 0.0415 0.7059 0.7071
vn 0.0239 0.7067 0.7071
vn 0.0416 0.7059 0.7071
vn 0.0748 0.7031 0.7071
vn -0.0269 0.7066 0.7071
vn -0.0352 0.7062 0.7071
vn -0.0735 0.7033 0.7071
vn -0.0773 0.7029 0.7071
vn -0.1116 0.6982 0.7071
vn -0.0773 0.7027 0.7073
vn -0.1269 0.6956 0.7071
vn -0.1493 0.6912 0.7071
vn -0.1752 0.6851 0.7071
vn -0.1866 0.6820 0.7071
vn -0.2220 0.6714 0.7071
vn -0.2233 0.6709 0.7071
vn -0.2594 0.6578 0.7071
vn -0.2669 0.6548 0.7071
vn -0.2595 0.6578 0.7071
vn -0.3098 0.6356 0.7071
vn -0.2948 0.6427 0.7071
vn -0.3292 0.6258 0.7071
vn -0.3504 0.6142 0.7071
vn -0.3628 0.6070 0.7071
vn -0.3293 0.6258 0.7071
vn -0.3886 0.5908 0.7071
vn -0.3952 0.5864 0.7071
vn -0.4244 0.5656 0.7071
vn -0.4564 0.5401 0.7071
vn -0.4265 0.5640 0.7071
vn -0.4243 0.5656 0.7071
vn -0.4576 0.5391 0.7071
vn -0.4851 0.5145 0.7071
vn -0.4883 0.5114 0.7071
vn -0.5123 0.4874 0.7071
vn -0.5165 0.4829 0.7071
vn -0.5380 0.4588 0.7071
vn -0.5424 0.4537 0.7071
vn -0.5380 0.4589 0.7071
vn -0.5424 0.4536 0.7071
vn -0.5658 0.4241 0.7071
vn -0.5621 0.4290 0.7071
vn -0.5729 0.4145 0.7071
vn -0.5846 0.3978 0.7071
vn -0.5799 0.4046 0.7071
vn -0.5871 0.3942 0.7071
vn -0.5942 0.3833 0.7071
vn -0.6053 0.3655 0.7071
vn -0.6201 0.3399 0.7071
vn -0.6201 0.3398 0.7071
vn -0.6244 0.3321 0.7070
vn -0.6243 0.3321 0.7071
vn -0.6428 0.2946 0.7071
vn -0.6414 0.2977 0.7071
vn -0.6622 0.2479 0.7071
vn -0.6566 0.2624 0.7071
vn -0.6623 0.2478 0.7071
vn -0.6783 0.1998 0.7071
vn -0.6699 0.2264 0.7071
vn -0.6812 0.1897 0.7071
vn -0.6908 0.1508 0.7071
vn -0.6905 0.1525 0.7071
vn -0.6812 0.1896 0.7071
vn -0.6999 0.1010 0.7071
vn -0.6977 0.1148 0.7071
vn -0.6909 0.1507 0.7071
vn -0.7029 0.0767 0.7071
vn -0.6977 0.1147 0.7071
vn -0.6999 0.1009 0.7071
vn -0.7061 0.0384 0.7071
vn -0.7029 0.0766 0.7071
vn -0.7053 0.0506 0.7071
vn -0.7071 -0.0000 0.7071
vn -0.7061 -0.0384 0.7071
vn -0.7053 -0.0506 0.7071
vn -0.7030 -0.0766 0.7071
vn -0.7029 -0.0766 0.7071
vn -0.6999 -0.1009 0.7071
vn -0.6978 -0.1147 0.7071
vn -0.6999 -0.1010 0.7071
vn -0.6909 -0.1507 0.7071
vn -0.6977 -0.1148 0.7071
vn -0.6908 -0.1508 0.7071
vn -0.6812 -0.1897 0.7071
vn -0.6905 -0.1524 0.7071
vn -0.6783 -0.1998 0.7071
vn -0.6699 -0.2264 0.7071
vn -0.6623 -0.2478 0.7071
vn -0.6566 -0.2624 0.7071
vn -0.6428 -0.2946 0.7071
vn -0.6416 -0.2977 0.7069
vn -0.6243 -0.3321 0.7071
vn -0.6414 -0.2978 0.7071
vn -0.6428 -0.2947 0.7071
vn -0.6054 -0.3655 0.7070
vn -0.6201 -0.3398 0.7071
vn -0.5846 -0.3979 0.7071
vn -0.6053 -0.3655 0.7071
vn -0.5942 -0.3834 0.7071
vn -0.5799 -0.4046 0.7071
vn -0.5846 -0.3978 0.7071
vn -0.5870 -0.3943 0.7071
vn -0.5166 -0.4829 0.7071
vn -0.5380 -0.4588 0.7071
vn -0.5424 -0.4537 0.7071
vn -0.5621 -0.4290 0.7071
vn -0.5658 -0.4241 0.7071
vn -0.5123 -0.4874 0.7071
vn -0.5381 -0.4588 0.7071
vn -0.5166 -0.4828 0.7071
vn -0.4851 -0.5145 0.7071
vn -0.4883 -0.5114 0.7071
vn -0.4564 -0.5401 0.7071
vn -0.4576 -0.5391 0.7071
vn -0.4264 -0.5640 0.7071
vn -0.4242 -0.5657 0.7071
vn -0.5729 -0.4145 0.7071
vn 0.0749 -0.7031 0.7071
vn 0.1179 -0.6972 0.7071
vn 0.0798 -0.7026 0.7071
vn 0.0748 -0.7031 0.7071
vn 0.0799 -0.7027 0.7070
vn 0.0415 -0.7059 0.7071
vn 0.0416 -0.7059 0.7071
vn 0.0242 -0.7069 0.7069
vn 0.0032 -0.7071 0.7071
vn 0.0242 -0.7067 0.7071
vn -0.0265 -0.7066 0.7071
vn -0.0352 -0.7062 0.7071
vn -0.0768 -0.7029 0.7071
vn -0.0735 -0.7033 0.7071
vn -0.1116 -0.6982 0.7071
vn -0.1263 -0.6957 0.7071
vn -0.1493 -0.6912 0.7071
vn -0.1494 -0.6912 0.7071
vn -0.1746 -0.6852 0.7071
vn -0.1866 -0.6820 0.7071
vn -0.2214 -0.6716 0.7071
vn -0.1867 -0.6820 0.7071
vn -0.2215 -0.6715 0.7071
vn -0.2234 -0.6709 0.7071
vn -0.2214 -0.6715 0.7071
vn -0.2595 -0.6578 0.7071
vn -0.2664 -0.6550 0.7071
vn -0.2948 -0.6427 0.7071
vn -0.2665 -0.6550 0.7071
vn -0.3094 -0.6358 0.7071
vn -0.3293 -0.6258 0.7071
vn -0.3501 -0.6143 0.7071
vn -0.3293 -0.6257 0.7071
vn -0.3501 -0.6144 0.7071
vn -0.3628 -0.6070 0.7071
vn -0.3884 -0.5909 0.7071
vn -0.3952 -0.5864 0.7071
vn -0.4243 -0.5657 0.7071
vn -0.4264 -0.5641 0.7071
vn -0.5381 -0.4590 0.7069
vn -0.5622 -0.4290 0.7070
vn -0.5942 -0.3833 0.7071
vn -0.5871 -0.3942 0.7071
vn -0.6201 -0.3399 0.7071
vn -0.6622 -0.2479 0.7071
vn -0.7030 0.0766 0.7071
vn -0.6905 0.1524 0.7071
vn -0.6623 0.2477 0.7071
vn -0.6699 0.2263 0.7071
vn -0.6568 0.2625 0.7069
vn -0.5942 0.3834 0.7071
vn -0.5870 0.3942 0.7071
vn -0.5846 0.3979 0.7071
vn -0.5847 0.3979 0.7070
vn -0.5622 0.4291 0.7070
vn -0.4264 0.5640 0.7071
vn -0.2234 0.6709 0.7071
vn -0.1867 0.6820 0.7071
vn -0.0269 0.7067 0.7070
vn -0.0270 0.7066 0.7071
vn 0.0798 0.7026 0.7071
vn 0.1178 0.6972 0.7071
vn 0.0749 0.7031 0.7071
vn -0.1751 0.6851 0.7071
vn 0.0415 0.7060 0.7070
vn -0.0000 0.1480 0.9890
vn -0.0000 0.2928 0.9562
vn -0.0000 0.2927 0.9562
vn -0.0000 0.1690 0.9856
vn -0.0000 0.4310 0.9024
vn -0.0000 0.4459 0.8951
vn -0.0001 0.4459 0.8951
vn -0.0000 0.3166 0.9486
vn -0.0000 0.3164 0.9486
vn -0.0000 0.3165 0.9486
vn -0.0000 0.4311 0.9023
vn -0.0000 -0.3165 0.9486
vn -0.0000 -0.4459 0.8951
vn -0.0000 -0.3164 0.9486
vn -0.0000 -0.5599 0.8285
vn -0.0000 -0.4311 0.9023
vn -0.0000 -0.1480 0.9890
vn -0.0000 -0.2928 0.9562
vn -0.0000 -0.2927 0.9562
vn -0.0000 -0.1688 0.9857
vn -0.0000 -0.1689 0.9856
vn -0.0000 -0.4310 0.9024
vn -0.0000 -0.3163 0.9487
s 1
usemtl Diffuse_51_51_51_100.029
f 1//1 2//2 3//3
f 1//1 3//3 4//3
f 3//3 5//3 4//3
f 5//3 6//2 4//3
f 4//3 7//2 8//3
f 4//3 8//3 9//3
f 8//3 10//3 9//3
f 9//3 10//3 11//3
f 7//2 4//3 6//2
f 9//3 11//3 12//1
f 13//4 14//5 15//6
f 16//7 17//4 15//6
f 18//8 19//7 15//9
f 18//8 20//10 21//7
f 22//10 18//8 23//11
f 24//12 25//10 23//13
f 24//14 26//15 27//10
f 28//16 29//17 30//18
f 24//19 28//20 31//21
f 32//15 29//17 33//22
f 34//22 29//17 35//23
f 36//24 37//22 35//23
f 38//25 39//24 35//23
f 38//25 40//26 41//24
f 42//24 40//26 43//27
f 44//27 40//26 45//28
f 46//29 47//30 48//31
f 49//29 50//32 45//33
f 47//30 51//34 52//35
f 53//36 54//34 45//37
f 55//38 56//29 57//39
f 57//40 58//34 59//41
f 53//42 60//43 61//44
f 60//43 62//45 63//46
f 64//47 65//48 66//49
f 66//49 67//47 64//47
f 68//50 66//49 65//48
f 68//50 69//51 66//49
f 66//49 69//51 70//52
f 70//52 69//51 71//53
f 72//54 70//52 71//53
f 72//54 73//55 70//52
f 72//54 74//56 73//55
f 73//55 74//56 75//57
f 62//45 73//55 75//57
f 62//45 60//43 73//55
f 63//46 61//44 60//43
f 61//44 59//58 53//42
f 53//42 59//58 76//29
f 77//29 55//38 52//35
f 78//59 79//59 80//59
f 81//59 82//59 80//59
f 83//59 81//59 80//59
f 84//60 83//59 80//59
f 85//59 84//60 80//59
f 86//59 85//59 80//59
f 87//59 86//59 80//59
f 88//59 87//59 80//59
f 79//59 88//59 80//59
f 89//59 79//59 78//59
f 78//59 90//59 89//59
f 78//59 91//59 90//59
f 78//59 92//59 91//59
f 78//59 93//60 92//59
f 94//59 78//59 95//59
f 94//59 96//59 78//59
f 78//59 96//59 93//60
f 97//61 98//62 99//63
f 100//64 97//61 99//63
f 100//64 101//65 97//61
f 97//61 101//65 102//66
f 103//67 104//68 105//69
f 106//70 107//71 108//72
f 109//73 110//74 107//71
f 111//75 98//62 97//61
f 112//76 113//77 114//76
f 112//76 115//78 113//77
f 113//77 115//78 116//79
f 116//79 115//78 110//74
f 117//80 116//79 110//74
f 109//73 117//80 110//74
f 107//71 118//81 108//72
f 108//72 118//81 104//68
f 104//68 118//81 105//69
f 119//82 105//69 120//83
f 120//83 97//61 121//84
f 102//66 122//85 123//86
f 122//85 124//87 125//88
f 126//89 127//90 128//91
f 129//92 130//93 131//94
f 132//95 133//96 134//97
f 134//97 133//96 135//98
f 135//98 133//96 136//99
f 136//99 133//96 137//100
f 137//100 133//96 131//94
f 130//93 137//100 131//94
f 129//92 131//94 128//91
f 138//101 129//92 128//91
f 126//89 125//88 124//87
f 126//89 128//91 125//88
f 125//88 123//86 122//85
f 123//86 97//61 102//66
f 123//86 121//84 97//61
f 121//84 119//82 120//83
f 105//69 119//82 103//67
f 109//73 107//71 106//70
f 138//101 128//91 127//90
f 139//3 140//3 141//3
f 139//2 142//2 143//2
f 139//1 144//1 145//1
f 139//2 146//2 147//2
f 141//3 148//3 149//3
f 141//102 150//102 151//102
f 141//3 152//3 153//3
f 154//3 155//3 156//3
f 141//1 157//1 158//1
f 155//3 141//3 159//3
f 160//103 161//103 162//103
f 163//103 164//103 165//103
s 0
f 166//103 167//103 168//103
f 167//103 169//103 170//103
f 169//104 171//103 172//103
s 1
f 173//103 174//103 175//103
f 176//103 177//103 178//103
f 179//103 180//103 181//103
f 182//103 183//103 184//103
f 185//103 186//103 187//103
f 188//103 189//103 190//103
f 191//103 192//103 193//103
f 194//103 195//103 196//103
f 197//103 198//103 199//103
f 200//103 201//103 202//103
f 203//103 204//103 205//103
f 206//103 207//103 208//103
f 209//103 210//103 211//103
f 212//103 213//103 214//103
f 215//103 216//103 217//103
f 218//103 219//103 220//103
f 216//103 221//103 222//103
f 223//103 224//103 216//103
f 225//103 226//103 227//103
f 228//103 229//103 227//103
f 230//103 231//103 227//103
f 232//103 233//103 227//103
f 234//103 235//103 227//103
f 236//103 237//103 227//103
f 238//103 239//103 227//103
f 227//103 240//103 216//103
f 241//103 242//103 216//103
f 243//103 244//103 216//103
f 245//103 246//103 216//103
f 247//103 227//103 248//103
f 249//103 250//103 251//103
f 252//103 253//103 216//103
f 254//103 255//103 256//103
s 0
f 257//103 258//103 259//104
s 1
f 260//103 261//103 259//103
s 0
f 262//103 263//103 257//103
s 1
f 264//103 265//103 266//103
f 267//105 268//105 269//105
f 270//105 271//105 272//105
f 273//106 274//106 275//106
f 276//106 277//106 278//106
f 279//107 280//107 281//107
f 282//104 283//104 284//104
f 285//104 286//104 287//104
f 288//104 289//104 285//104
f 290//104 291//104 289//104
f 292//104 293//104 291//104
f 294//104 295//104 293//104
f 296//104 297//104 295//104
f 298//104 299//104 297//104
f 300//104 301//104 299//104
f 302//104 303//104 301//104
f 304//104 305//104 303//104
f 306//104 307//104 305//104
f 308//104 309//104 307//104
f 310//104 311//104 309//104
f 309//104 312//104 313//104
f 313//108 314//108 315//108
f 315//104 316//104 317//104
f 317//104 318//104 319//104
f 319//108 320//108 321//108
f 321//104 322//104 323//104
f 323//104 324//104 325//104
f 325//104 326//104 327//104
f 327//104 328//104 329//104
f 329//104 330//104 331//104
f 332//104 333//104 334//104
f 335//108 333//108 336//108
f 337//104 332//104 338//104
f 339//104 337//104 340//104
f 341//104 339//104 342//104
f 343//104 341//104 344//104
f 345//104 343//104 346//104
f 347//104 345//104 348//104
f 284//104 347//104 349//104
f 350//104 351//104 284//104
f 352//109 353//109 283//109
f 354//104 355//104 353//104
f 356//107 357//107 355//107
f 358//108 359//108 357//108
f 360//108 361//108 359//108
f 362//104 363//104 364//104
f 362//104 365//104 366//104
f 364//104 367//104 368//104
f 368//104 369//104 370//104
f 370//104 371//104 372//104
f 372//104 373//104 374//104
f 374//104 375//104 376//104
f 376//104 377//104 378//104
f 378//104 379//104 380//104
f 380//104 381//104 382//104
f 382//104 383//104 384//104
f 384//104 385//104 386//104
f 386//104 387//104 388//104
f 388//104 389//104 390//104
f 391//104 281//104 388//104
f 392//104 280//104 393//104
f 394//104 392//104 395//104
f 396//104 394//104 397//104
f 398//104 399//104 396//104
f 400//104 401//104 399//104
f 402//104 403//104 401//104
f 404//104 405//104 403//104
f 406//104 407//104 405//104
f 331//104 408//104 336//104
f 409//104 410//104 407//104
f 411//104 365//104 361//104
f 410//104 412//104 413//104
f 414//110 415//111 416//110
f 417//112 418//113 419//112
f 420//113 421//113 419//112
f 422//114 423//114 421//113
f 424//115 425//115 423//114
f 426//116 427//116 425//117
f 428//118 427//116 429//119
f 430//120 431//121 432//121
f 433//120 431//121 434//120
f 435//122 433//123 436//122
f 435//124 437//124 438//125
f 439//125 440//125 441//126
f 442//126 443//126 444//127
f 442//126 445//128 446//128
f 446//129 447//130 448//130
f 449//131 450//132 448//131
f 451//133 452//134 453//133
f 454//134 455//134 453//133
f 456//135 457//136 455//137
f 458//138 457//136 459//136
f 460//139 461//138 462//138
f 463//139 461//138 464//139
f 465//140 463//141 466//140
f 465//140 467//140 468//142
f 469//143 470//143 471//144
f 469//143 472//144 473//144
f 473//144 474//145 475//145
f 476//146 477//147 475//146
f 478//148 479//149 480//148
f 481//150 482//150 480//148
f 483//151 484//152 482//153
f 485//154 484//155 486//155
f 487//156 488//157 489//154
f 490//156 488//157 491//156
f 492//158 490//159 493//158
f 492//160 494//160 495//161
f 496//162 497//162 498//163
f 496//162 499//163 500//163
f 500//164 501//165 502//165
f 503//165 504//3 502//165
f 505//3 506//166 507//3
f 508//166 509//166 507//3
f 510//167 511//167 509//166
f 512//168 511//169 513//169
f 514//170 515//171 516//171
f 517//172 518//173 519//173
f 520//172 518//173 521//172
f 522//174 520//175 523//176
f 522//176 524//176 525//177
f 526//178 527//179 528//180
f 526//178 529//180 530//180
f 530//181 531//182 532//182
f 533//183 534//184 532//183
f 535//185 536//186 537//187
f 538//188 539//188 537//185
f 540//189 541//189 539//188
f 542//190 541//191 543//191
f 544//192 545//190 546//190
f 547//193 545//190 548//193
f 549//194 547//193 550//194
f 549//194 551//194 552//195
f 553//196 554//195 555//197
f 553//195 556//198 557//198
f 558//199 559//200 560//199
f 561//201 562//201 558//199
f 563//201 558//199 564//199
f 559//200 565//200 566//199
f 567//202 568//203 559//203
f 569//202 570//203 567//202
f 571//202 567//202 572//204
f 573//202 572//204 574//204
f 572//204 575//205 576//204
f 575//205 577//205 578//204
f 579//206 580//207 575//207
f 581//206 582//207 579//206
f 583//206 579//208 584//209
f 585//206 584//209 586//209
f 584//210 587//211 588//210
f 587//211 589//211 590//210
f 591//212 592//213 587//213
f 593//212 594//213 591//212
f 595//214 591//214 596//215
f 597//214 596//216 598//216
f 596//215 599//217 600//215
f 599//218 601//218 602//215
f 603//219 604//217 599//217
f 605//220 606//217 603//220
f 607//221 603//221 608//222
f 609//221 608//222 610//222
f 608//223 611//224 612//223
f 611//224 613//224 614//223
f 557//198 615//225 611//225
f 616//226 617//227 557//197
f 549//194 618//195 553//195
f 547//193 619//193 620//194
f 545//190 541//191 621//190
f 622//189 539//188 623//188
f 624//184 537//184 532//183
f 625//228 626//182 530//228
f 522//176 627//177 526//177
f 520//229 628//229 629//174
f 518//170 515//171 630//170
f 515//168 511//169 631//168
f 632//167 509//166 633//166
f 634//3 507//3 502//165
f 635//164 636//165 500//164
f 492//160 637//161 496//161
f 490//159 638//159 639//158
f 488//154 484//155 640//154
f 641//152 482//153 642//153
f 643//147 480//147 475//146
f 644//144 645//230 473//144
f 465//140 646//142 469//142
f 463//141 647//141 648//140
f 461//138 457//136 649//138
f 650//136 455//134 651//134
f 652//132 453//132 448//131
f 653//231 654//130 446//231
f 439//125 655//232 442//232
f 435//124 656//233 439//233
f 433//123 657//123 658//122
f 659//117 660//116 425//117
f 421//113 661//113 662//114
f 416//110 663//234 664//110
f 416//110 665//234 666//234
f 667//118 431//118 427//116
f 423//114 668//114 669//115
f 419//111 416//110 670//111
f 671//235 672//236 673//237
f 674//238 675//239 676//240
f 677//241 678//242 679//236
f 680//243 681//242 682//244
f 683//245 684//246 685//247
f 686//248 687//247 688//249
f 689//250 690//249 691//251
f 692//252 693//251 694//253
f 695//251 696//254 697//255
f 698//254 699//256 700//257
f 701//256 702//258 703//257
f 704//259 705//260 706//261
f 707//262 708//263 709//260
f 710//264 711//263 712//262
f 713//265 714//266 715//267
f 716//265 717//264 718//268
f 719//265 720//268 721//269
f 722//268 723//270 724//269
f 725//271 726//272 727//273
f 728//270 729//271 730//269
f 731//272 732//274 733//275
f 734//276 735//277 736//278
f 737//277 738//279 739//280
f 738//279 740//281 741//280
f 742//280 743//282 744//283
f 745//284 746//283 747//285
f 748//284 749//286 750//287
f 751//288 752//289 753//290
f 754//289 755//291 756//292
f 757//293 758//294 759//295
f 760//294 761//296 762//295
f 763//297 764//298 765//299
f 766//300 767//301 768//302
f 769//303 770//304 771//305
f 772//306 773//307 774//308
f 775//309 776//306 777//309
f 778//310 779//309 780//309
f 781//310 782//309 783//311
f 784//310 785//311 786//312
f 787//313 788//314 789//315
f 790//316 791//317 792//318
f 793//319 794//320 795//321
f 796//322 797//323 798//320
f 799//324 800//325 801//323
f 802//326 803//327 804//325
f 805//328 806//329 807//330
f 808//331 809//328 810//332
f 811//333 812//334 813//335
f 814//336 815//337 816//338
f 817//339 818//340 819//341
f 820//342 821//343 822//341
f 823//344 824//345 825//346
f 826//347 827//344 828//348
f 829//349 830//347 831//350
f 832//351 833//349 834//352
f 835//353 836//343 837//337
f 838//354 839//355 840//356
f 841//357 842//358 843//359
f 844//357 845//360 846//361
f 847//359 848//362 849//363
f 850//362 851//364 852//363
f 853//365 854//364 855//362
f 856//366 857//364 858//365
f 859//366 860//365 861//367
f 862//366 863//367 864//368
f 865//366 866//368 867//369
f 868//368 869//370 870//369
f 871//371 872//372 873//369
f 874//373 875//372 876//370
f 877//374 878//372 879//375
f 880//376 881//375 882//377
f 883//378 884//377 885//379
f 886//378 887//379 888//380
f 889//379 890//381 891//382
f 892//381 893//383 894//382
f 895//384 896//383 897//381
f 898//385 899//383 900//386
f 901//387 902//384 903//388
f 904//385 905//388 906//389
f 907//388 908//390 909//389
f 910//390 911//391 912//389
f 913//392 914//352 915//390
f 916//349 917//350 918//352
f 919//347 920//348 921//350
f 922//344 923//339 924//348
f 925//393 926//342 927//341
f 928//394 929//337 930//343
f 931//337 814//336 835//353
f 932//395 816//396 933//337
f 934//397 935//395 936//334
f 937//326 938//332 939//328
f 940//325 941//398 942//326
f 943//323 944//322 945//324
f 946//320 947//319 948//322
f 949//321 950//318 951//319
f 952//314 953//312 954//311
f 955//306 956//308 957//309
f 958//399 959//305 960//308
f 961//301 962//400 963//297
f 964//297 965//296 966//294
f 967//401 968//402 969//292
f 970//289 971//403 972//290
f 973//286 974//289 975//288
f 976//280 977//404 978//284
f 740//281 743//405 979//406
f 980//277 981//407 982//278
f 983//274 984//408 985//275
f 986//270 987//272 988//271
f 989//267 990//409 991//263
f 992//259 993//262 994//260
f 995//256 996//259 997//261
f 998//251 999//410 1000//411
f 1001//245 1002//247 1003//248
f 1004//243 1005//244 1006//245
f 1007//242 1008//412 1009//244
f 1010//238 1011//413 1012//236
f 1013//414 1014//415 1015//416
f 1016//417 1017//250 1018//248
f 1019//257 1020//255 1021//254
f 1022//418 1023//414 1024//240
f 95//59 78//59 1025//419
f 1026//419 1027//420 95//59
f 95//59 1028//421 1029//422
s 0
f 1030//422 1031//59 1032//423
s 1
f 1033//424 132//95 134//97
f 1034//425 1035//426 132//95
f 1036//427 1037//422 1038//423
f 1039//428 1040//429 132//95
f 67//47 1041//430 1042//431
f 64//47 67//47 1043//431
f 1044//432 67//433 1045//434
f 80//59 82//59 1046//435
f 1047//435 82//59 1048//436
f 1049//437 82//59 1050//438
s 0
f 1051//59 1052//436 1053//439
s 1
f 1054//440 1055//439 1056//441
