# Blender 4.4.3
# www.blender.org
mtllib Mesh_1.002.mtl
o Mesh_1.002
v 0.015003 0.008894 0.000182
v 0.015020 0.008894 0.000181
v 0.015012 0.008894 0.000197
v 0.014986 0.008894 0.000182
v 0.014983 0.008894 0.000169
v 0.014989 0.008894 0.000168
v 0.014977 0.008894 0.000197
v 0.014965 0.008894 0.000191
v 0.014967 0.008894 0.000186
v 0.014970 0.008894 0.000181
v 0.014986 0.008894 0.000212
v 0.014970 0.008894 0.000214
v 0.015003 0.008894 0.000212
v 0.015006 0.008894 0.000225
v 0.015000 0.008894 0.000227
v 0.015006 0.008894 0.000169
v 0.015011 0.008894 0.000172
v 0.015022 0.008894 0.000186
v 0.014995 0.008894 0.000227
v 0.014989 0.008894 0.000227
v 0.014983 0.008894 0.000225
v 0.014978 0.008894 0.000222
v 0.014973 0.008894 0.000218
v 0.014967 0.008894 0.000209
v 0.014965 0.008894 0.000203
v 0.014965 0.008894 0.000197
v 0.014973 0.008894 0.000176
v 0.014978 0.008894 0.000172
v 0.014995 0.008894 0.000167
v 0.015000 0.008894 0.000168
v 0.015016 0.008894 0.000176
v 0.015024 0.008894 0.000191
v 0.015025 0.008894 0.000197
v 0.015024 0.008894 0.000203
v 0.015022 0.008894 0.000209
v 0.015020 0.008894 0.000214
v 0.015016 0.008894 0.000218
v 0.015011 0.008894 0.000222
v 0.014965 0.008957 0.000191
v 0.014967 0.008957 0.000186
v 0.014960 0.008962 0.000190
v 0.014970 0.008957 0.000181
v 0.014962 0.008962 0.000184
v 0.014973 0.008957 0.000176
v 0.014966 0.008962 0.000178
v 0.014970 0.008962 0.000172
v 0.014975 0.008962 0.000168
v 0.014978 0.008957 0.000172
v 0.014981 0.008962 0.000165
v 0.014983 0.008957 0.000169
v 0.014988 0.008962 0.000163
v 0.014989 0.008957 0.000168
v 0.014995 0.008957 0.000167
v 0.014995 0.008962 0.000162
v 0.015000 0.008957 0.000168
v 0.015001 0.008962 0.000163
v 0.015006 0.008957 0.000169
v 0.015008 0.008962 0.000165
v 0.015011 0.008957 0.000172
v 0.015014 0.008962 0.000168
v 0.015016 0.008957 0.000176
v 0.015019 0.008962 0.000172
v 0.015020 0.008957 0.000181
v 0.015024 0.008962 0.000178
v 0.015022 0.008957 0.000186
v 0.015027 0.008962 0.000184
v 0.015024 0.008957 0.000191
v 0.015025 0.008957 0.000197
v 0.015029 0.008962 0.000190
v 0.015024 0.008957 0.000203
v 0.015030 0.008962 0.000197
v 0.015029 0.008962 0.000204
v 0.015022 0.008957 0.000209
v 0.015027 0.008962 0.000211
v 0.015016 0.008957 0.000218
v 0.015019 0.008962 0.000222
v 0.015024 0.008962 0.000217
v 0.015011 0.008957 0.000222
v 0.015006 0.008957 0.000225
v 0.015014 0.008962 0.000226
v 0.015008 0.008962 0.000230
v 0.015000 0.008957 0.000227
v 0.015001 0.008962 0.000231
v 0.014995 0.008957 0.000227
v 0.014995 0.008962 0.000232
v 0.014988 0.008962 0.000231
v 0.014989 0.008957 0.000227
v 0.014983 0.008957 0.000225
v 0.014973 0.008957 0.000218
v 0.014970 0.008962 0.000222
v 0.014975 0.008962 0.000226
v 0.014970 0.008957 0.000214
v 0.014966 0.008962 0.000217
v 0.014967 0.008957 0.000209
v 0.014962 0.008962 0.000211
v 0.014981 0.008962 0.000230
v 0.014978 0.008957 0.000222
v 0.014965 0.008957 0.000203
v 0.014960 0.008962 0.000204
v 0.014965 0.008957 0.000197
v 0.014960 0.008962 0.000197
v 0.015020 0.008957 0.000214
v 0.015000 0.008899 0.000227
v 0.015006 0.008899 0.000225
v 0.015001 0.008894 0.000231
v 0.015011 0.008899 0.000222
v 0.015008 0.008894 0.000229
v 0.015016 0.008899 0.000218
v 0.015014 0.008894 0.000226
v 0.015020 0.008899 0.000214
v 0.015019 0.008894 0.000222
v 0.015023 0.008894 0.000216
v 0.015027 0.008894 0.000210
v 0.015022 0.008899 0.000209
v 0.015029 0.008894 0.000204
v 0.015024 0.008899 0.000203
v 0.015029 0.008894 0.000197
v 0.015025 0.008899 0.000197
v 0.015024 0.008899 0.000191
v 0.015029 0.008894 0.000190
v 0.015022 0.008899 0.000186
v 0.015027 0.008894 0.000184
v 0.015020 0.008899 0.000181
v 0.015023 0.008894 0.000178
v 0.015016 0.008899 0.000176
v 0.015019 0.008894 0.000173
v 0.015011 0.008899 0.000172
v 0.015014 0.008894 0.000168
v 0.015006 0.008899 0.000169
v 0.015008 0.008894 0.000165
v 0.015000 0.008899 0.000168
v 0.014995 0.008899 0.000167
v 0.015001 0.008894 0.000163
v 0.014989 0.008899 0.000168
v 0.014995 0.008894 0.000163
v 0.014983 0.008899 0.000169
v 0.014988 0.008894 0.000163
v 0.014978 0.008899 0.000172
v 0.014975 0.008894 0.000168
v 0.014981 0.008894 0.000165
v 0.014973 0.008899 0.000176
v 0.014970 0.008899 0.000181
v 0.014970 0.008894 0.000173
v 0.014967 0.008899 0.000186
v 0.014966 0.008894 0.000178
v 0.014963 0.008894 0.000184
v 0.014965 0.008899 0.000191
v 0.014961 0.008894 0.000190
v 0.014965 0.008899 0.000197
v 0.014960 0.008894 0.000197
v 0.014970 0.008899 0.000214
v 0.014966 0.008894 0.000216
v 0.014963 0.008894 0.000210
v 0.014973 0.008899 0.000218
v 0.014970 0.008894 0.000222
v 0.014978 0.008899 0.000222
v 0.014975 0.008894 0.000226
v 0.014961 0.008894 0.000204
v 0.014965 0.008899 0.000203
v 0.014967 0.008899 0.000209
v 0.014983 0.008899 0.000225
v 0.014981 0.008894 0.000229
v 0.014989 0.008899 0.000227
v 0.014988 0.008894 0.000231
v 0.014995 0.008899 0.000227
v 0.014995 0.008894 0.000232
v 0.014995 0.008894 0.000161
v 0.015110 0.008895 0.000158
v 0.015110 0.008894 0.000161
v 0.014880 0.008895 0.000158
v 0.014880 0.008894 0.000161
v 0.014995 0.008894 0.000163
v 0.014988 0.008894 0.000163
v 0.015110 0.008894 0.000233
v 0.015029 0.008894 0.000204
v 0.015029 0.008894 0.000197
v 0.015027 0.008894 0.000210
v 0.015029 0.008894 0.000204
v 0.015029 0.008894 0.000190
v 0.015027 0.008894 0.000184
v 0.014961 0.008894 0.000190
v 0.014960 0.008894 0.000197
v 0.014963 0.008894 0.000184
v 0.014961 0.008894 0.000190
v 0.014880 0.008894 0.000233
v 0.014961 0.008894 0.000204
v 0.014963 0.008894 0.000210
v 0.014988 0.008894 0.000231
v 0.014995 0.008894 0.000233
v 0.014988 0.008894 0.000231
v 0.014995 0.008894 0.000232
v 0.014981 0.008894 0.000229
v 0.014988 0.008894 0.000231
v 0.014975 0.008894 0.000226
v 0.014981 0.008894 0.000229
v 0.014970 0.008894 0.000222
v 0.014975 0.008894 0.000226
v 0.014966 0.008894 0.000216
v 0.014970 0.008894 0.000222
v 0.014963 0.008894 0.000210
v 0.014966 0.008894 0.000216
v 0.014961 0.008894 0.000204
v 0.014960 0.008894 0.000197
v 0.014960 0.008894 0.000197
v 0.014966 0.008894 0.000178
v 0.014963 0.008894 0.000184
v 0.014975 0.008894 0.000168
v 0.014981 0.008894 0.000165
v 0.014975 0.008894 0.000168
v 0.014970 0.008894 0.000173
v 0.014981 0.008894 0.000165
v 0.014988 0.008894 0.000163
v 0.014970 0.008894 0.000173
v 0.014966 0.008894 0.000178
v 0.014995 0.008894 0.000163
v 0.015001 0.008894 0.000163
v 0.015001 0.008894 0.000163
v 0.015008 0.008894 0.000165
v 0.015001 0.008894 0.000163
v 0.015014 0.008894 0.000168
v 0.015008 0.008894 0.000165
v 0.015019 0.008894 0.000173
v 0.015014 0.008894 0.000168
v 0.015023 0.008894 0.000178
v 0.015019 0.008894 0.000173
v 0.015027 0.008894 0.000184
v 0.015023 0.008894 0.000178
v 0.015029 0.008894 0.000190
v 0.015029 0.008894 0.000197
v 0.015029 0.008894 0.000197
v 0.015023 0.008894 0.000216
v 0.015027 0.008894 0.000210
v 0.015014 0.008894 0.000226
v 0.015008 0.008894 0.000229
v 0.015014 0.008894 0.000226
v 0.015019 0.008894 0.000222
v 0.015008 0.008894 0.000229
v 0.015001 0.008894 0.000231
v 0.014988 0.008894 0.000163
v 0.015019 0.008894 0.000222
v 0.015023 0.008894 0.000216
v 0.014995 0.008894 0.000232
v 0.015001 0.008894 0.000231
v 0.015001 0.008894 0.000231
v 0.015110 0.008895 0.000236
v 0.014995 0.008895 0.000236
v 0.014880 0.008895 0.000236
v 0.015110 0.008936 0.000284
v 0.014880 0.008936 0.000284
v 0.015110 0.008939 0.000286
v 0.014880 0.008939 0.000286
v 0.015110 0.008937 0.000286
v 0.014880 0.008937 0.000286
v 0.015110 0.008957 0.000286
v 0.014880 0.008957 0.000286
v 0.015110 0.008962 0.000281
v 0.014880 0.008962 0.000281
v 0.015110 0.008962 0.000283
v 0.014880 0.008962 0.000283
v 0.015110 0.008961 0.000285
v 0.014880 0.008961 0.000285
v 0.014880 0.008959 0.000286
v 0.015110 0.008959 0.000286
v 0.015110 0.008962 0.000113
v 0.015019 0.008962 0.000172
v 0.015024 0.008962 0.000178
v 0.015019 0.008962 0.000222
v 0.015014 0.008962 0.000226
v 0.015024 0.008962 0.000217
v 0.015019 0.008962 0.000222
v 0.014970 0.008962 0.000222
v 0.014966 0.008962 0.000217
v 0.014880 0.008962 0.000113
v 0.014970 0.008962 0.000172
v 0.014975 0.008962 0.000168
v 0.014966 0.008962 0.000178
v 0.014970 0.008962 0.000172
v 0.014960 0.008962 0.000204
v 0.014960 0.008962 0.000197
v 0.014960 0.008962 0.000197
v 0.014962 0.008962 0.000211
v 0.014960 0.008962 0.000204
v 0.014966 0.008962 0.000217
v 0.014962 0.008962 0.000211
v 0.014970 0.008962 0.000222
v 0.014975 0.008962 0.000226
v 0.014975 0.008962 0.000226
v 0.014981 0.008962 0.000230
v 0.014981 0.008962 0.000230
v 0.014988 0.008962 0.000231
v 0.014995 0.008962 0.000232
v 0.014988 0.008962 0.000231
v 0.015008 0.008962 0.000230
v 0.015001 0.008962 0.000231
v 0.015001 0.008962 0.000231
v 0.014995 0.008962 0.000232
v 0.015014 0.008962 0.000226
v 0.015008 0.008962 0.000230
v 0.015024 0.008962 0.000217
v 0.015027 0.008962 0.000211
v 0.015027 0.008962 0.000211
v 0.015029 0.008962 0.000204
v 0.014995 0.008962 0.000232
v 0.015030 0.008962 0.000197
v 0.015029 0.008962 0.000204
v 0.015030 0.008962 0.000197
v 0.015030 0.008962 0.000197
v 0.015029 0.008962 0.000190
v 0.015019 0.008962 0.000172
v 0.015014 0.008962 0.000168
v 0.015024 0.008962 0.000178
v 0.015027 0.008962 0.000184
v 0.015014 0.008962 0.000168
v 0.015008 0.008962 0.000165
v 0.015008 0.008962 0.000165
v 0.015001 0.008962 0.000163
v 0.014995 0.008962 0.000162
v 0.015001 0.008962 0.000163
v 0.014981 0.008962 0.000165
v 0.014988 0.008962 0.000163
v 0.014988 0.008962 0.000163
v 0.014995 0.008962 0.000162
v 0.014975 0.008962 0.000168
v 0.014981 0.008962 0.000165
v 0.014966 0.008962 0.000178
v 0.014962 0.008962 0.000184
v 0.014962 0.008962 0.000184
v 0.014960 0.008962 0.000190
v 0.015029 0.008962 0.000190
v 0.015027 0.008962 0.000184
v 0.014960 0.008962 0.000197
v 0.014960 0.008962 0.000190
v 0.014995 0.008962 0.000162
v 0.015110 0.008959 0.000109
v 0.015110 0.008957 0.000108
v 0.014880 0.008957 0.000108
v 0.014880 0.008959 0.000109
v 0.015110 0.008961 0.000110
v 0.014880 0.008962 0.000111
v 0.015110 0.008962 0.000111
v 0.014880 0.008961 0.000110
v 0.015110 0.008939 0.000108
v 0.014880 0.008939 0.000108
v 0.015110 0.008937 0.000109
v 0.015110 0.008936 0.000110
v 0.014880 0.008936 0.000110
v 0.014880 0.008937 0.000109
v 0.015110 0.008962 0.000113
v 0.015110 0.008894 0.000161
v 0.015110 0.008895 0.000158
v 0.015110 0.008939 0.000108
v 0.015110 0.008962 0.000113
v 0.015110 0.008936 0.000110
v 0.015110 0.008962 0.000113
v 0.015110 0.008895 0.000158
v 0.015110 0.008936 0.000110
v 0.015110 0.008939 0.000108
v 0.015110 0.008936 0.000110
v 0.015110 0.008937 0.000109
v 0.015110 0.008957 0.000108
v 0.015110 0.008962 0.000113
v 0.015110 0.008939 0.000108
v 0.015110 0.008962 0.000111
v 0.015110 0.008962 0.000113
v 0.015110 0.008961 0.000110
v 0.015110 0.008957 0.000108
v 0.015110 0.008959 0.000109
v 0.015110 0.008962 0.000113
v 0.015110 0.008962 0.000113
v 0.015110 0.008962 0.000281
v 0.015110 0.008894 0.000161
v 0.015110 0.008894 0.000161
v 0.015110 0.008962 0.000281
v 0.015110 0.008894 0.000233
v 0.015110 0.008962 0.000281
v 0.015110 0.008936 0.000284
v 0.015110 0.008895 0.000236
v 0.015110 0.008962 0.000281
v 0.015110 0.008895 0.000236
v 0.015110 0.008894 0.000233
v 0.015110 0.008939 0.000286
v 0.015110 0.008936 0.000284
v 0.015110 0.008962 0.000281
v 0.015110 0.008939 0.000286
v 0.015110 0.008962 0.000281
v 0.015110 0.008957 0.000286
v 0.015110 0.008962 0.000283
v 0.015110 0.008961 0.000285
v 0.015110 0.008957 0.000286
v 0.015110 0.008939 0.000286
v 0.015110 0.008937 0.000286
v 0.015110 0.008936 0.000284
v 0.015110 0.008962 0.000281
v 0.015110 0.008962 0.000283
v 0.015110 0.008957 0.000286
v 0.015110 0.008961 0.000285
v 0.015110 0.008959 0.000286
v 0.015110 0.008957 0.000286
v 0.015110 0.008962 0.000113
v 0.015110 0.008959 0.000109
v 0.015110 0.008961 0.000110
v 0.014880 0.008939 0.000108
v 0.014880 0.008936 0.000110
v 0.014880 0.008962 0.000113
v 0.014880 0.008962 0.000113
v 0.014880 0.008936 0.000110
v 0.014880 0.008895 0.000158
v 0.014880 0.008939 0.000108
v 0.014880 0.008937 0.000109
v 0.014880 0.008936 0.000110
v 0.014880 0.008957 0.000108
v 0.014880 0.008939 0.000108
v 0.014880 0.008962 0.000113
v 0.014880 0.008962 0.000111
v 0.014880 0.008961 0.000110
v 0.014880 0.008962 0.000113
v 0.014880 0.008957 0.000108
v 0.014880 0.008962 0.000113
v 0.014880 0.008959 0.000109
v 0.014880 0.008962 0.000113
v 0.014880 0.008895 0.000158
v 0.014880 0.008894 0.000161
v 0.014880 0.008962 0.000113
v 0.014880 0.008894 0.000161
v 0.014880 0.008962 0.000281
v 0.014880 0.008962 0.000281
v 0.014880 0.008894 0.000233
v 0.014880 0.008895 0.000236
v 0.014880 0.008962 0.000281
v 0.014880 0.008894 0.000161
v 0.014880 0.008894 0.000233
v 0.014880 0.008936 0.000284
v 0.014880 0.008962 0.000281
v 0.014880 0.008895 0.000236
v 0.014880 0.008936 0.000284
v 0.014880 0.008939 0.000286
v 0.014880 0.008962 0.000281
v 0.014880 0.008962 0.000283
v 0.014880 0.008957 0.000286
v 0.014880 0.008961 0.000285
v 0.014880 0.008939 0.000286
v 0.014880 0.008936 0.000284
v 0.014880 0.008937 0.000286
v 0.014880 0.008962 0.000281
v 0.014880 0.008957 0.000286
v 0.014880 0.008962 0.000283
v 0.014880 0.008957 0.000286
v 0.014880 0.008962 0.000281
v 0.014880 0.008939 0.000286
v 0.014880 0.008959 0.000286
v 0.014880 0.008961 0.000285
v 0.014880 0.008957 0.000286
v 0.014880 0.008962 0.000113
v 0.014880 0.008961 0.000110
v 0.014880 0.008959 0.000109
v 0.015000 0.008899 0.000227
v 0.015000 0.008894 0.000227
v 0.015006 0.008899 0.000225
v 0.015006 0.008899 0.000225
v 0.015006 0.008894 0.000225
v 0.015011 0.008899 0.000222
v 0.015011 0.008899 0.000222
v 0.015011 0.008894 0.000222
v 0.015016 0.008899 0.000218
v 0.015016 0.008899 0.000218
v 0.015016 0.008894 0.000218
v 0.015020 0.008899 0.000214
v 0.015020 0.008899 0.000214
v 0.015020 0.008894 0.000214
v 0.015022 0.008899 0.000209
v 0.015022 0.008894 0.000209
v 0.015022 0.008899 0.000209
v 0.015020 0.008894 0.000214
v 0.015024 0.008894 0.000203
v 0.015024 0.008899 0.000203
v 0.015022 0.008894 0.000209
v 0.015025 0.008894 0.000197
v 0.015025 0.008899 0.000197
v 0.015024 0.008894 0.000203
v 0.015024 0.008894 0.000191
v 0.015024 0.008899 0.000191
v 0.015025 0.008894 0.000197
v 0.015022 0.008894 0.000186
v 0.015022 0.008899 0.000186
v 0.015024 0.008894 0.000191
v 0.015020 0.008894 0.000181
v 0.015020 0.008899 0.000181
v 0.015022 0.008894 0.000186
v 0.015016 0.008894 0.000176
v 0.015016 0.008899 0.000176
v 0.015020 0.008894 0.000181
v 0.015016 0.008894 0.000176
v 0.015011 0.008899 0.000172
v 0.015016 0.008899 0.000176
v 0.015011 0.008894 0.000172
v 0.015006 0.008899 0.000169
v 0.015011 0.008899 0.000172
v 0.015006 0.008894 0.000169
v 0.015000 0.008899 0.000168
v 0.015006 0.008899 0.000169
v 0.015000 0.008894 0.000168
v 0.014995 0.008899 0.000167
v 0.015000 0.008899 0.000168
v 0.014995 0.008894 0.000167
v 0.014989 0.008899 0.000168
v 0.014995 0.008899 0.000167
v 0.014989 0.008894 0.000168
v 0.014983 0.008894 0.000169
v 0.014983 0.008899 0.000169
v 0.014978 0.008894 0.000172
v 0.014973 0.008899 0.000176
v 0.014978 0.008899 0.000172
v 0.014973 0.008894 0.000176
v 0.014970 0.008899 0.000181
v 0.014973 0.008899 0.000176
v 0.014965 0.008899 0.000191
v 0.014967 0.008894 0.000186
v 0.014965 0.008894 0.000191
v 0.014965 0.008899 0.000197
v 0.014965 0.008894 0.000191
v 0.014965 0.008894 0.000197
v 0.014965 0.008899 0.000203
v 0.014965 0.008894 0.000197
v 0.014965 0.008894 0.000203
v 0.014967 0.008899 0.000209
v 0.014965 0.008894 0.000203
v 0.014967 0.008894 0.000209
v 0.014970 0.008899 0.000214
v 0.014967 0.008894 0.000209
v 0.014970 0.008894 0.000214
v 0.014973 0.008899 0.000218
v 0.014970 0.008894 0.000214
v 0.014973 0.008894 0.000218
v 0.014970 0.008894 0.000181
v 0.014967 0.008899 0.000186
v 0.014970 0.008899 0.000181
v 0.014978 0.008899 0.000222
v 0.014973 0.008894 0.000218
v 0.014978 0.008894 0.000222
v 0.014983 0.008899 0.000225
v 0.014978 0.008894 0.000222
v 0.014983 0.008894 0.000225
v 0.014989 0.008899 0.000227
v 0.014983 0.008894 0.000225
v 0.014989 0.008894 0.000227
v 0.014995 0.008899 0.000227
v 0.015000 0.008894 0.000227
v 0.015000 0.008899 0.000227
v 0.014989 0.008894 0.000227
v 0.014995 0.008894 0.000227
v 0.014995 0.008899 0.000227
v 0.014989 0.008899 0.000227
v 0.014989 0.008894 0.000227
v 0.014995 0.008899 0.000227
v 0.014983 0.008899 0.000225
v 0.014983 0.008894 0.000225
v 0.014989 0.008899 0.000227
v 0.014978 0.008899 0.000222
v 0.014978 0.008894 0.000222
v 0.014983 0.008899 0.000225
v 0.014973 0.008899 0.000218
v 0.014973 0.008894 0.000218
v 0.014978 0.008899 0.000222
v 0.014970 0.008899 0.000214
v 0.014970 0.008894 0.000214
v 0.014973 0.008899 0.000218
v 0.014967 0.008899 0.000209
v 0.014967 0.008894 0.000209
v 0.014970 0.008899 0.000214
v 0.014965 0.008899 0.000203
v 0.014965 0.008894 0.000203
v 0.014967 0.008899 0.000209
v 0.014965 0.008899 0.000197
v 0.014965 0.008894 0.000197
v 0.014965 0.008899 0.000203
v 0.014965 0.008899 0.000191
v 0.014965 0.008894 0.000191
v 0.014965 0.008899 0.000197
v 0.014967 0.008899 0.000186
v 0.014967 0.008894 0.000186
v 0.014965 0.008899 0.000191
v 0.014967 0.008899 0.000186
v 0.014970 0.008894 0.000181
v 0.014967 0.008894 0.000186
v 0.014970 0.008899 0.000181
v 0.014973 0.008894 0.000176
v 0.014970 0.008894 0.000181
v 0.014973 0.008899 0.000176
v 0.014978 0.008894 0.000172
v 0.014973 0.008894 0.000176
v 0.014978 0.008899 0.000172
v 0.014983 0.008894 0.000169
v 0.014978 0.008894 0.000172
v 0.014978 0.008899 0.000172
v 0.014983 0.008899 0.000169
v 0.014983 0.008894 0.000169
v 0.014989 0.008894 0.000168
v 0.014989 0.008899 0.000168
v 0.014995 0.008894 0.000167
v 0.014989 0.008894 0.000168
v 0.014983 0.008899 0.000169
v 0.014989 0.008899 0.000168
v 0.014995 0.008894 0.000167
v 0.014995 0.008899 0.000167
v 0.015000 0.008894 0.000168
v 0.015000 0.008894 0.000168
v 0.015000 0.008899 0.000168
v 0.015006 0.008894 0.000169
v 0.015006 0.008894 0.000169
v 0.015006 0.008899 0.000169
v 0.015011 0.008894 0.000172
v 0.015011 0.008894 0.000172
v 0.015011 0.008899 0.000172
v 0.015016 0.008894 0.000176
v 0.015016 0.008899 0.000176
v 0.015020 0.008899 0.000181
v 0.015020 0.008894 0.000181
v 0.015020 0.008899 0.000181
v 0.015022 0.008899 0.000186
v 0.015022 0.008894 0.000186
v 0.015022 0.008899 0.000186
v 0.015024 0.008899 0.000191
v 0.015024 0.008894 0.000191
v 0.015024 0.008899 0.000191
v 0.015025 0.008899 0.000197
v 0.015025 0.008894 0.000197
v 0.015025 0.008899 0.000197
v 0.015024 0.008899 0.000203
v 0.015024 0.008894 0.000203
v 0.015024 0.008899 0.000203
v 0.015022 0.008899 0.000209
v 0.015022 0.008894 0.000209
v 0.015020 0.008899 0.000214
v 0.015016 0.008894 0.000218
v 0.015020 0.008894 0.000214
v 0.015016 0.008899 0.000218
v 0.015011 0.008894 0.000222
v 0.015016 0.008894 0.000218
v 0.015011 0.008899 0.000222
v 0.015006 0.008894 0.000225
v 0.015011 0.008894 0.000222
v 0.015000 0.008894 0.000227
v 0.015006 0.008894 0.000225
v 0.015006 0.008899 0.000225
v 0.015000 0.008894 0.000227
v 0.014995 0.008899 0.000227
v 0.014995 0.008894 0.000227
v 0.014989 0.008957 0.000227
v 0.014995 0.008957 0.000227
v 0.014989 0.009554 0.000227
v 0.014983 0.008957 0.000225
v 0.014989 0.008957 0.000227
v 0.014978 0.008957 0.000222
v 0.014983 0.008957 0.000225
v 0.014983 0.009554 0.000225
v 0.014978 0.009554 0.000222
v 0.014978 0.008957 0.000222
v 0.014973 0.009554 0.000218
v 0.014973 0.008957 0.000218
v 0.014970 0.008957 0.000214
v 0.014973 0.008957 0.000218
v 0.014970 0.009554 0.000214
v 0.014967 0.008957 0.000209
v 0.014970 0.008957 0.000214
v 0.014967 0.009554 0.000209
v 0.014967 0.008957 0.000209
v 0.014965 0.009554 0.000203
v 0.014965 0.008957 0.000203
v 0.014965 0.008957 0.000203
v 0.014965 0.008957 0.000197
v 0.014965 0.008957 0.000197
v 0.014965 0.009554 0.000197
v 0.014965 0.008957 0.000191
v 0.014965 0.008957 0.000191
v 0.014965 0.009554 0.000191
v 0.014967 0.008957 0.000186
v 0.014967 0.009554 0.000186
v 0.014970 0.008957 0.000181
v 0.014967 0.008957 0.000186
v 0.014973 0.008957 0.000176
v 0.014970 0.008957 0.000181
v 0.014970 0.009554 0.000181
v 0.014973 0.009554 0.000176
v 0.014973 0.008957 0.000176
v 0.014978 0.009554 0.000172
v 0.014978 0.008957 0.000172
v 0.014983 0.008957 0.000169
v 0.014978 0.008957 0.000172
v 0.014983 0.009554 0.000169
v 0.014989 0.008957 0.000168
v 0.014983 0.008957 0.000169
v 0.014989 0.009554 0.000168
v 0.014989 0.008957 0.000168
v 0.014995 0.009554 0.000167
v 0.014995 0.008957 0.000167
v 0.014995 0.008957 0.000167
v 0.015000 0.008957 0.000168
v 0.015000 0.008957 0.000168
v 0.015000 0.009554 0.000168
v 0.015006 0.008957 0.000169
v 0.015006 0.008957 0.000169
v 0.015006 0.009554 0.000169
v 0.015011 0.008957 0.000172
v 0.015011 0.009554 0.000172
v 0.015016 0.008957 0.000176
v 0.015011 0.008957 0.000172
v 0.015020 0.008957 0.000181
v 0.015016 0.008957 0.000176
v 0.015016 0.009554 0.000176
v 0.015020 0.009554 0.000181
v 0.015020 0.008957 0.000181
v 0.015022 0.009554 0.000186
v 0.015022 0.008957 0.000186
v 0.015024 0.008957 0.000191
v 0.015022 0.008957 0.000186
v 0.015024 0.009554 0.000191
v 0.015025 0.008957 0.000197
v 0.015024 0.008957 0.000191
v 0.014983 0.008957 0.000225
v 0.015000 0.009554 0.000227
v 0.014995 0.008957 0.000227
v 0.015000 0.008957 0.000227
v 0.015006 0.009554 0.000225
v 0.015000 0.008957 0.000227
v 0.015006 0.008957 0.000225
v 0.015000 0.008957 0.000227
v 0.015006 0.008957 0.000225
v 0.015011 0.009554 0.000222
v 0.015006 0.008957 0.000225
v 0.015011 0.008957 0.000222
v 0.015011 0.008957 0.000222
v 0.015016 0.009554 0.000218
v 0.015011 0.008957 0.000222
v 0.015016 0.008957 0.000218
v 0.015020 0.009554 0.000214
v 0.015016 0.008957 0.000218
v 0.015020 0.008957 0.000214
v 0.015016 0.008957 0.000218
v 0.015020 0.008957 0.000214
v 0.015022 0.009554 0.000209
v 0.015020 0.008957 0.000214
v 0.015022 0.008957 0.000209
v 0.015022 0.008957 0.000209
v 0.015024 0.009554 0.000203
v 0.015022 0.008957 0.000209
v 0.015024 0.008957 0.000203
v 0.015025 0.009554 0.000197
v 0.015024 0.008957 0.000203
v 0.015025 0.008957 0.000197
v 0.015024 0.008957 0.000203
v 0.015025 0.008957 0.000197
v 0.015024 0.008957 0.000191
v 0.015022 0.008957 0.000186
v 0.015020 0.008957 0.000181
v 0.015016 0.008957 0.000176
v 0.015006 0.008957 0.000169
v 0.015011 0.008957 0.000172
v 0.015000 0.008957 0.000168
v 0.014995 0.008957 0.000167
v 0.014989 0.008957 0.000168
v 0.014983 0.008957 0.000169
v 0.014978 0.008957 0.000172
v 0.014973 0.008957 0.000176
v 0.014970 0.008957 0.000181
v 0.014965 0.008957 0.000191
v 0.014967 0.008957 0.000186
v 0.014965 0.008957 0.000197
v 0.014965 0.008957 0.000203
v 0.014967 0.008957 0.000209
v 0.014970 0.008957 0.000214
v 0.014995 0.008957 0.000227
v 0.014995 0.009554 0.000227
v 0.014995 0.008957 0.000227
v 0.014978 0.008957 0.000222
v 0.014973 0.008957 0.000218
v 0.015002 0.009564 0.000216
v 0.014995 0.009564 0.000217
v 0.014999 0.009564 0.000217
v 0.015006 0.009564 0.000214
v 0.015009 0.009564 0.000211
v 0.015011 0.009564 0.000208
v 0.015013 0.009564 0.000205
v 0.015014 0.009564 0.000201
v 0.015015 0.009564 0.000197
v 0.015014 0.009564 0.000193
v 0.015013 0.009564 0.000190
v 0.015011 0.009564 0.000186
v 0.015009 0.009564 0.000183
v 0.015002 0.009564 0.000179
v 0.015006 0.009564 0.000181
v 0.014999 0.009564 0.000178
v 0.014995 0.009564 0.000177
v 0.014991 0.009564 0.000178
v 0.014987 0.009564 0.000179
v 0.014984 0.009564 0.000181
v 0.014980 0.009564 0.000183
v 0.014976 0.009564 0.000190
v 0.014978 0.009564 0.000186
v 0.014975 0.009564 0.000193
v 0.014975 0.009564 0.000197
v 0.014975 0.009564 0.000201
v 0.014976 0.009564 0.000205
v 0.014978 0.009564 0.000208
v 0.014980 0.009564 0.000211
v 0.014984 0.009564 0.000214
v 0.014987 0.009564 0.000216
v 0.014991 0.009564 0.000217
v 0.014989 0.009554 0.000227
v 0.014991 0.009564 0.000217
v 0.014983 0.009554 0.000225
v 0.014983 0.009554 0.000225
v 0.014987 0.009564 0.000216
v 0.014978 0.009554 0.000222
v 0.014978 0.009554 0.000222
v 0.014987 0.009564 0.000216
v 0.014984 0.009564 0.000214
v 0.014973 0.009554 0.000218
v 0.014984 0.009564 0.000214
v 0.014980 0.009564 0.000211
v 0.014970 0.009554 0.000214
v 0.014973 0.009554 0.000218
v 0.014980 0.009564 0.000211
v 0.014967 0.009554 0.000209
v 0.014970 0.009554 0.000214
v 0.014978 0.009564 0.000208
v 0.014976 0.009564 0.000205
v 0.014967 0.009554 0.000209
v 0.014978 0.009564 0.000208
v 0.014975 0.009564 0.000201
v 0.014965 0.009554 0.000203
v 0.014976 0.009564 0.000205
v 0.014975 0.009564 0.000201
v 0.014965 0.009554 0.000197
v 0.014965 0.009554 0.000203
v 0.014975 0.009564 0.000197
v 0.014965 0.009554 0.000191
v 0.014965 0.009554 0.000197
v 0.014975 0.009564 0.000197
v 0.014975 0.009564 0.000193
v 0.014965 0.009554 0.000191
v 0.014975 0.009564 0.000193
v 0.014976 0.009564 0.000190
v 0.014967 0.009554 0.000186
v 0.014967 0.009554 0.000186
v 0.014976 0.009564 0.000190
v 0.014970 0.009554 0.000181
v 0.014970 0.009554 0.000181
v 0.014978 0.009564 0.000186
v 0.014973 0.009554 0.000176
v 0.014973 0.009554 0.000176
v 0.014980 0.009564 0.000183
v 0.014978 0.009554 0.000172
v 0.014978 0.009554 0.000172
v 0.014980 0.009564 0.000183
v 0.014984 0.009564 0.000181
v 0.014983 0.009554 0.000169
v 0.014984 0.009564 0.000181
v 0.014987 0.009564 0.000179
v 0.014989 0.009554 0.000168
v 0.014983 0.009554 0.000169
v 0.014987 0.009564 0.000179
v 0.014995 0.009554 0.000167
v 0.014989 0.009554 0.000168
v 0.014991 0.009564 0.000178
v 0.014995 0.009564 0.000177
v 0.014995 0.009554 0.000167
v 0.014991 0.009564 0.000178
v 0.014999 0.009564 0.000178
v 0.015000 0.009554 0.000168
v 0.014995 0.009564 0.000177
v 0.014999 0.009564 0.000178
v 0.015006 0.009554 0.000169
v 0.015000 0.009554 0.000168
v 0.015002 0.009564 0.000179
v 0.015011 0.009554 0.000172
v 0.015006 0.009554 0.000169
v 0.015002 0.009564 0.000179
v 0.015006 0.009564 0.000181
v 0.015011 0.009554 0.000172
v 0.015006 0.009564 0.000181
v 0.015009 0.009564 0.000183
v 0.015016 0.009554 0.000176
v 0.015016 0.009554 0.000176
v 0.015009 0.009564 0.000183
v 0.015020 0.009554 0.000181
v 0.015020 0.009554 0.000181
v 0.015011 0.009564 0.000186
v 0.015022 0.009554 0.000186
v 0.015022 0.009554 0.000186
v 0.015011 0.009564 0.000186
v 0.015013 0.009564 0.000190
v 0.015024 0.009554 0.000191
v 0.015013 0.009564 0.000190
v 0.015014 0.009564 0.000193
v 0.015020 0.009554 0.000214
v 0.015011 0.009564 0.000208
v 0.015016 0.009554 0.000218
v 0.015020 0.009554 0.000214
v 0.015013 0.009564 0.000205
v 0.015011 0.009564 0.000208
v 0.015006 0.009564 0.000214
v 0.015006 0.009554 0.000225
v 0.015011 0.009554 0.000222
v 0.014995 0.009554 0.000227
v 0.014991 0.009564 0.000217
v 0.014989 0.009554 0.000227
v 0.014999 0.009564 0.000217
v 0.014995 0.009554 0.000227
v 0.015000 0.009554 0.000227
v 0.015002 0.009564 0.000216
v 0.014999 0.009564 0.000217
v 0.015000 0.009554 0.000227
v 0.015006 0.009554 0.000225
v 0.015002 0.009564 0.000216
v 0.015000 0.009554 0.000227
v 0.015006 0.009554 0.000225
v 0.015006 0.009564 0.000214
v 0.015002 0.009564 0.000216
v 0.015011 0.009554 0.000222
v 0.015009 0.009564 0.000211
v 0.015006 0.009564 0.000214
v 0.015011 0.009554 0.000222
v 0.015016 0.009554 0.000218
v 0.015009 0.009564 0.000211
v 0.015009 0.009564 0.000211
v 0.015016 0.009554 0.000218
v 0.015011 0.009564 0.000208
v 0.015013 0.009564 0.000205
v 0.015020 0.009554 0.000214
v 0.015022 0.009554 0.000209
v 0.015014 0.009564 0.000201
v 0.015013 0.009564 0.000205
v 0.015022 0.009554 0.000209
v 0.015024 0.009554 0.000203
v 0.015014 0.009564 0.000201
v 0.015022 0.009554 0.000209
v 0.015024 0.009554 0.000203
v 0.015015 0.009564 0.000197
v 0.015014 0.009564 0.000201
v 0.015024 0.009554 0.000203
v 0.015025 0.009554 0.000197
v 0.015015 0.009564 0.000197
v 0.015015 0.009564 0.000197
v 0.015025 0.009554 0.000197
v 0.015014 0.009564 0.000193
v 0.015014 0.009564 0.000193
v 0.015025 0.009554 0.000197
v 0.015024 0.009554 0.000191
v 0.015022 0.009554 0.000186
v 0.015013 0.009564 0.000190
v 0.015024 0.009554 0.000191
v 0.015009 0.009564 0.000183
v 0.015011 0.009564 0.000186
v 0.015020 0.009554 0.000181
v 0.015006 0.009564 0.000181
v 0.015016 0.009554 0.000176
v 0.015011 0.009554 0.000172
v 0.015002 0.009564 0.000179
v 0.015006 0.009554 0.000169
v 0.014999 0.009564 0.000178
v 0.015000 0.009554 0.000168
v 0.014995 0.009554 0.000167
v 0.014995 0.009564 0.000177
v 0.014989 0.009554 0.000168
v 0.014987 0.009564 0.000179
v 0.014991 0.009564 0.000178
v 0.014978 0.009554 0.000172
v 0.014984 0.009564 0.000181
v 0.014983 0.009554 0.000169
v 0.014978 0.009564 0.000186
v 0.014980 0.009564 0.000183
v 0.014973 0.009554 0.000176
v 0.014976 0.009564 0.000190
v 0.014978 0.009564 0.000186
v 0.014970 0.009554 0.000181
v 0.014975 0.009564 0.000193
v 0.014967 0.009554 0.000186
v 0.014965 0.009554 0.000191
v 0.014975 0.009564 0.000197
v 0.014965 0.009554 0.000197
v 0.014975 0.009564 0.000201
v 0.014965 0.009554 0.000203
v 0.014967 0.009554 0.000209
v 0.014976 0.009564 0.000205
v 0.014970 0.009554 0.000214
v 0.014980 0.009564 0.000211
v 0.014978 0.009564 0.000208
v 0.014978 0.009554 0.000222
v 0.014984 0.009564 0.000214
v 0.014973 0.009554 0.000218
v 0.014991 0.009564 0.000217
v 0.014995 0.009554 0.000227
v 0.014995 0.009564 0.000217
v 0.014995 0.009564 0.000217
v 0.014995 0.009554 0.000227
v 0.014999 0.009564 0.000217
v 0.014987 0.009564 0.000216
v 0.014983 0.009554 0.000225
v 0.014991 0.009564 0.000217
v 0.015003 0.008929 0.000182
v 0.015003 0.008894 0.000182
v 0.015012 0.008929 0.000197
v 0.015003 0.008894 0.000182
v 0.015012 0.008894 0.000197
v 0.014986 0.008929 0.000182
v 0.014986 0.008894 0.000182
v 0.015003 0.008929 0.000182
v 0.015003 0.008929 0.000182
v 0.014986 0.008894 0.000182
v 0.015003 0.008894 0.000182
v 0.014977 0.008929 0.000197
v 0.014977 0.008894 0.000197
v 0.014986 0.008929 0.000182
v 0.014986 0.008929 0.000182
v 0.014977 0.008894 0.000197
v 0.014986 0.008894 0.000182
v 0.014986 0.008929 0.000212
v 0.014986 0.008894 0.000212
v 0.014977 0.008929 0.000197
v 0.014977 0.008929 0.000197
v 0.014986 0.008894 0.000212
v 0.014977 0.008894 0.000197
v 0.015003 0.008929 0.000212
v 0.015003 0.008894 0.000212
v 0.014986 0.008929 0.000212
v 0.014986 0.008929 0.000212
v 0.015003 0.008894 0.000212
v 0.014986 0.008894 0.000212
v 0.015012 0.008929 0.000197
v 0.015012 0.008894 0.000197
v 0.015003 0.008929 0.000212
v 0.015003 0.008929 0.000212
v 0.015012 0.008894 0.000197
v 0.015003 0.008894 0.000212
v 0.015003 0.008929 0.000212
v 0.014986 0.008929 0.000212
v 0.015003 0.008929 0.000182
v 0.014986 0.008929 0.000182
v 0.015003 0.008929 0.000182
v 0.014977 0.008929 0.000197
v 0.015003 0.008929 0.000182
v 0.014986 0.008929 0.000212
v 0.014977 0.008929 0.000197
v 0.015003 0.008929 0.000212
v 0.015003 0.008929 0.000182
v 0.015012 0.008929 0.000197
vn -0.0000 -1.0000 -0.0000
vn -0.0000 -1.0000 -0.0001
vn -0.0000 -1.0000 0.0001
vn 0.6935 0.7071 0.1379
vn 0.6533 0.7071 0.2706
vn 0.5879 0.7071 0.3928
vn 0.5000 0.7071 0.5000
vn 0.3928 0.7071 0.5879
vn 0.2706 0.7071 0.6533
vn 0.1379 0.7071 0.6935
vn 0.1380 0.7071 0.6935
vn -0.0000 0.7071 0.7071
vn -0.1379 0.7071 0.6935
vn -0.1380 0.7071 0.6935
vn -0.2706 0.7071 0.6533
vn -0.3928 0.7071 0.5879
vn -0.5000 0.7071 0.5000
vn -0.5879 0.7071 0.3928
vn -0.6533 0.7071 0.2706
vn -0.6935 0.7071 0.1380
vn -0.7071 0.7071 -0.0000
vn -0.6935 0.7071 0.1379
vn -0.6935 0.7071 -0.1379
vn -0.6935 0.7071 -0.1380
vn -0.6533 0.7071 -0.2706
vn -0.5000 0.7071 -0.5000
vn -0.5879 0.7071 -0.3928
vn -0.3928 0.7071 -0.5879
vn -0.2706 0.7071 -0.6533
vn -0.1380 0.7071 -0.6935
vn -0.1379 0.7071 -0.6935
vn -0.0000 0.7071 -0.7071
vn 0.1380 0.7071 -0.6935
vn 0.1379 0.7071 -0.6935
vn 0.2706 0.7071 -0.6533
vn 0.5000 0.7071 -0.5000
vn 0.3928 0.7071 -0.5879
vn 0.5879 0.7071 -0.3928
vn 0.6533 0.7071 -0.2706
vn 0.6935 0.7071 -0.1380
vn 0.6935 0.7071 -0.1379
vn 0.7071 0.7071 -0.0000
vn 0.7072 0.7070 -0.0000
vn -0.1379 -0.7071 -0.6935
vn -0.2706 -0.7071 -0.6533
vn -0.3928 -0.7071 -0.5879
vn -0.5000 -0.7071 -0.5000
vn -0.5879 -0.7071 -0.3928
vn -0.6533 -0.7071 -0.2706
vn -0.6935 -0.7071 -0.1379
vn -0.6935 -0.7071 -0.1380
vn -0.7071 -0.7071 -0.0000
vn -0.6935 -0.7071 0.1379
vn -0.6935 -0.7071 0.1380
vn -0.6533 -0.7071 0.2706
vn -0.5879 -0.7071 0.3928
vn -0.5000 -0.7071 0.5000
vn -0.3928 -0.7071 0.5879
vn -0.3929 -0.7071 0.5879
vn -0.2706 -0.7071 0.6533
vn -0.1380 -0.7071 0.6935
vn -0.0000 -0.7071 0.7071
vn -0.1379 -0.7071 0.6935
vn 0.1379 -0.7071 0.6935
vn 0.2706 -0.7071 0.6533
vn 0.1380 -0.7071 0.6935
vn 0.3928 -0.7071 0.5879
vn 0.5000 -0.7071 0.5000
vn 0.5879 -0.7071 0.3928
vn 0.6533 -0.7071 0.2706
vn 0.6935 -0.7071 0.1380
vn 0.6935 -0.7071 0.1379
vn 0.7071 -0.7071 -0.0000
vn 0.5879 -0.7071 -0.3928
vn 0.5880 -0.7071 -0.3928
vn 0.6533 -0.7071 -0.2706
vn 0.5000 -0.7071 -0.5000
vn 0.3928 -0.7071 -0.5879
vn 0.6935 -0.7071 -0.1380
vn 0.6935 -0.7071 -0.1379
vn 0.2706 -0.7071 -0.6533
vn 0.1380 -0.7071 -0.6935
vn 0.1379 -0.7071 -0.6935
vn -0.0000 -0.7071 -0.7071
vn -0.0001 -0.7661 -0.6428
vn -0.0000 -0.7661 -0.6427
vn -0.0000 -1.0000 -0.0002
vn -0.0000 -1.0000 0.0003
vn -0.0000 -0.7661 0.6427
vn 0.0001 -0.7661 0.6427
vn -0.0000 -0.7660 0.6428
vn 0.0001 -0.7660 0.6428
vn -0.0000 -0.0000 1.0000
vn -0.0000 -0.4226 0.9063
vn -0.0000 1.0000 -0.0000
vn -0.0000 0.9239 0.3827
vn -0.0000 0.3827 0.9239
vn -0.0000 0.3826 0.9239
vn -0.0000 1.0000 0.0001
vn -0.0000 1.0000 -0.0001
vn -0.0000 1.0000 -0.0002
vn -0.0000 1.0000 0.0002
vn -0.0000 0.3827 -0.9239
vn -0.0000 -0.0000 -1.0000
vn -0.0000 0.0001 -1.0000
vn -0.0000 0.9238 -0.3828
vn -0.0000 -0.0001 -1.0000
vn -0.0000 -0.4226 -0.9063
vn -0.0000 -0.7660 -0.6428
vn 1.0000 -0.0000 -0.0000
vn 1.0000 0.0001 -0.0000
vn 1.0000 -0.0002 -0.0000
vn -1.0000 -0.0001 -0.0000
vn -1.0000 -0.0000 -0.0000
vn -1.0000 -0.0002 -0.0000
vn -1.0000 0.0002 -0.0000
vn 0.1951 -0.0000 0.9808
vn 0.3826 -0.0000 0.9239
vn 0.3827 -0.0000 0.9239
vn 0.5555 -0.0000 0.8315
vn 0.5556 -0.0000 0.8314
vn 0.7071 -0.0000 0.7071
vn 0.7072 -0.0000 0.7071
vn 0.8314 -0.0000 0.5557
vn 0.8315 -0.0000 0.5555
vn 0.9239 -0.0000 0.3827
vn 0.9808 -0.0000 0.1951
vn 0.9239 -0.0000 0.3826
vn 0.9808 -0.0000 0.1950
vn 0.9808 -0.0000 -0.1950
vn 0.9239 -0.0000 -0.3826
vn 0.9808 -0.0000 -0.1951
vn 0.8315 -0.0000 -0.5555
vn 0.9239 -0.0000 -0.3827
vn 0.7071 -0.0000 -0.7071
vn 0.8314 -0.0000 -0.5556
vn 0.5556 -0.0000 -0.8314
vn 0.5555 -0.0000 -0.8315
vn 0.3827 -0.0000 -0.9239
vn 0.3826 -0.0000 -0.9239
vn 0.1951 -0.0000 -0.9808
vn 0.1950 -0.0000 -0.9808
vn -0.1950 -0.0000 -0.9808
vn -0.1951 -0.0000 -0.9808
vn -0.3825 -0.0000 -0.9239
vn -0.5556 -0.0000 -0.8314
vn -0.7071 -0.0000 -0.7071
vn -0.8314 -0.0000 -0.5556
vn -0.9808 -0.0000 -0.1951
vn -0.9239 -0.0000 -0.3826
vn -0.9808 -0.0000 -0.1950
vn -0.9808 -0.0000 0.1950
vn -0.9239 -0.0000 0.3826
vn -0.9808 -0.0000 0.1951
vn -0.8315 -0.0000 0.5555
vn -0.9239 -0.0000 0.3827
vn -0.7071 -0.0000 0.7071
vn -0.8314 -0.0000 0.5556
vn -0.8315 -0.0000 -0.5555
vn -0.9239 -0.0000 -0.3827
vn -0.5556 -0.0000 0.8314
vn -0.3827 -0.0000 0.9239
vn -0.5555 -0.0000 0.8315
vn -0.1951 -0.0000 0.9808
vn -0.3826 -0.0000 0.9239
vn 0.1950 -0.0000 0.9808
vn -0.1950 -0.0000 0.9808
vn -0.9808 -0.0001 -0.1951
vn -0.5555 -0.0000 -0.8315
vn -0.3827 -0.0000 -0.9239
vn -0.3826 -0.0000 -0.9239
vn 0.3825 -0.0000 -0.9239
vn 0.8314 -0.0000 -0.5557
vn 0.7070 -0.0000 0.7072
vn -0.7071 0.0001 -0.7071
vn 0.0001 -0.0000 -1.0000
vn 0.5557 -0.0000 0.8314
vn 0.8314 -0.0000 0.5556
vn -0.9808 -0.0000 -0.1952
vn -0.5557 -0.0000 0.8314
vn -0.0000 1.0000 -0.0004
vn -0.3928 0.7071 0.5880
vn -0.3929 0.7071 0.5879
vn -0.5879 0.7071 0.3929
vn -0.5880 0.7071 0.3928
vn -0.7071 0.7072 -0.0000
vn -0.7070 0.7072 -0.0000
vn -0.5879 0.7071 -0.3929
vn -0.3929 0.7071 -0.5879
vn -0.2705 0.7071 -0.6533
vn 0.3928 0.7071 -0.5880
vn 0.3929 0.7071 -0.5879
vn 0.5879 0.7071 -0.3929
vn 0.5880 0.7071 -0.3927
vn 0.5880 0.7071 -0.3928
vn 0.5879 0.7071 0.3929
vn 0.5880 0.7071 0.3928
vn -0.0000 0.7072 0.7070
vn 0.1378 0.7071 0.6935
vn -0.0000 0.7071 0.7072
vn 0.3929 0.7071 0.5879
vn 0.6935 0.7071 0.1380
vn 0.7071 0.7071 -0.0001
vn 0.0001 0.7071 -0.7071
vn -0.5880 0.7071 -0.3928
vn -0.5880 0.7071 0.3929
vn -0.0000 0.7070 0.7072
vn -0.8660 -0.0000 0.5000
vn 0.8660 -0.0000 0.5000
vn 0.8660 -0.0000 -0.5000
vn -0.8660 -0.0000 -0.5000
vt -0.150000 -0.086603
vt -0.166671 -0.249441
vt -0.000000 -0.173205
vt -0.150000 0.086603
vt -0.277164 0.114805
vt -0.294236 0.058527
vt 0.000000 0.173205
vt -0.058527 0.294236
vt -0.114805 0.277164
vt -0.166671 0.249441
vt 0.150000 0.086603
vt 0.166671 0.249441
vt 0.150000 -0.086603
vt 0.277164 -0.114805
vt 0.294236 -0.058527
vt -0.277164 -0.114805
vt -0.249441 -0.166671
vt -0.114805 -0.277164
vt 0.300000 0.000000
vt 0.294236 0.058527
vt 0.277164 0.114805
vt 0.249441 0.166671
vt 0.212132 0.212132
vt 0.114805 0.277164
vt 0.058527 0.294236
vt 0.000000 0.300000
vt -0.212132 0.212132
vt -0.249441 0.166671
vt -0.300000 0.000000
vt -0.294236 -0.058527
vt -0.212132 -0.212132
vt -0.058527 -0.294236
vt -0.000000 -0.300000
vt 0.058527 -0.294236
vt 0.114805 -0.277164
vt 0.166671 -0.249441
vt 0.212132 -0.212132
vt 0.249441 -0.166671
vt 0.068282 0.343275
vt 0.133939 0.323358
vt 0.194450 0.291014
vt 0.247487 0.247487
vt 0.291014 0.194450
vt 0.323358 0.133939
vt 0.343275 0.068282
vt -0.520000 0.068282
vt -0.570000 0.058527
vt -0.570000 0.000000
vt -0.520000 0.000000
vt -0.570000 -0.058527
vt 0.343275 -0.068282
vt 0.323358 -0.133939
vt 0.291014 -0.194450
vt 0.247487 -0.247487
vt 0.194450 -0.291014
vt 0.133939 -0.323358
vt -0.058527 -0.570000
vt 0.000000 -0.570000
vt -0.068282 -0.520000
vt 0.058527 -0.570000
vt 0.000000 -0.520000
vt 0.068282 -0.520000
vt -0.133939 -0.323358
vt -0.068282 -0.343275
vt -0.247487 -0.247487
vt -0.194450 -0.291014
vt -0.291014 -0.194450
vt -0.323358 -0.133939
vt -0.343275 -0.068282
vt 0.520000 -0.068282
vt 0.570000 0.000000
vt 0.520000 -0.000000
vt -0.343275 0.068282
vt -0.247487 0.247487
vt -0.291014 0.194450
vt -0.194450 0.291014
vt -0.133939 0.323358
vt -0.323358 0.133939
vt -0.068282 0.343275
vt 0.570000 0.058527
vt 0.520000 0.068282
vt 0.570000 -0.058527
vt 0.068282 -0.343275
vt -0.520000 -0.068282
vt 0.339205 -0.067472
vt 0.319524 -0.132351
vt 0.287564 -0.192144
vt 0.244553 -0.244553
vt 0.192144 -0.287564
vt 0.132351 -0.319524
vt 0.067472 -0.339205
vt 0.000000 -1.200000
vt 0.067472 -1.200000
vt 0.000000 -1.154150
vt -0.058527 -1.154150
vt -0.067472 -0.339205
vt -0.132351 -0.319524
vt -0.192144 -0.287564
vt -0.244553 -0.244553
vt -0.287564 -0.192144
vt -0.319524 -0.132351
vt -1.154150 -0.058527
vt -1.154150 0.000000
vt -1.200000 -0.067472
vt -1.154150 0.058527
vt -1.200000 0.000000
vt -0.339205 0.067472
vt -0.287564 0.192144
vt -0.319524 0.132351
vt -0.244553 0.244553
vt -0.192144 0.287564
vt -0.132351 0.319524
vt -0.067472 0.339205
vt 0.192144 0.287564
vt 0.132351 0.319524
vt 0.244553 0.244553
vt 0.287564 0.192144
vt 0.067472 0.339205
vt 0.319524 0.132351
vt 0.339205 0.067472
vt 1.154150 0.000000
vt 1.154150 -0.058527
vt 1.200000 -0.067472
vt 1.200000 0.067472
vt 1.200000 0.000000
vt 1.154150 0.058527
vt -0.067472 -1.200000
vt 0.058527 -1.154150
vt -1.200000 0.067472
vt -0.339205 -0.067472
vt -0.359347 0.000000
vt -0.391487 -1.150000
vt -0.359347 -1.150000
vt -0.391487 1.150000
vt -0.359347 1.150000
vt -0.345850 0.000000
vt 0.359347 -1.150000
vt 0.000000 -0.345850
vt 0.000000 0.345850
vt 0.359347 1.150000
vt 0.359347 0.000000
vt 0.345850 0.000000
vt 0.391487 -1.150000
vt 0.391487 0.000000
vt 0.391487 1.150000
vt 0.872139 -1.150000
vt 0.872139 1.150000
vt -0.746685 -1.150000
vt -0.746685 1.150000
vt -0.767816 -1.150000
vt -0.767816 1.150000
vt -0.784987 -1.150000
vt -0.784987 1.150000
vt -0.570000 -1.150000
vt -0.570000 1.150000
vt -0.840000 -1.150000
vt -0.840000 1.150000
vt -0.859134 -1.150000
vt -0.859134 1.150000
vt -0.875355 -1.150000
vt -0.875355 1.150000
vt -0.550866 1.150000
vt -0.550866 -1.150000
vt -0.534645 1.150000
vt -0.534645 -1.150000
vt 0.840000 -1.150000
vt 0.840000 1.150000
vt -0.000000 0.350000
vt -0.350000 -0.000000
vt -0.000000 -0.350000
vt 0.350000 0.000000
vt 0.550866 -1.150000
vt 0.570000 -1.150000
vt 0.570000 1.150000
vt 0.550866 1.150000
vt 0.534645 -1.150000
vt 0.859134 1.150000
vt 0.859134 -1.150000
vt 0.875355 1.150000
vt 0.875355 -1.150000
vt 0.534645 1.150000
vt 0.746685 -1.150000
vt 0.746685 1.150000
vt 0.767816 -1.150000
vt 0.784987 -1.150000
vt 0.784987 1.150000
vt 0.767816 1.150000
vt -0.872139 -1.150000
vt -0.872139 1.150000
vt 0.840000 -0.520000
vt 0.359347 -1.200000
vt 0.391487 -1.188302
vt 0.890000 -0.746685
vt 0.872139 -0.784987
vt 0.885315 -0.767816
vt 0.890000 -0.570000
vt 0.859134 -0.523806
vt 0.875355 -0.534645
vt 0.886194 -0.550866
vt -0.840000 -0.520000
vt -0.359347 -1.200000
vt -0.872139 -0.784987
vt -0.391487 -1.188302
vt -0.890000 -0.746685
vt -0.890000 -0.570000
vt -0.859134 -0.523806
vt -0.875355 -0.534645
vt -0.885315 -0.767816
vt -0.886194 -0.550866
vt -1.200000 -0.058527
vt -1.154150 -0.114805
vt -1.200000 -0.114805
vt -1.154150 -0.166671
vt -1.200000 -0.166671
vt -1.154150 -0.212132
vt -0.212132 -1.154150
vt -0.212132 -1.200000
vt -0.166671 -1.154150
vt -0.166671 -1.200000
vt -0.114805 -1.154150
vt -0.114805 -1.200000
vt -0.058527 -1.200000
vt 0.058527 -1.200000
vt 0.114805 -1.200000
vt 0.114805 -1.154150
vt 0.166671 -1.200000
vt 0.166671 -1.154150
vt 0.212132 -1.200000
vt 0.212132 -1.154150
vt 1.200000 -0.212132
vt 1.154150 -0.166671
vt 1.154150 -0.212132
vt 1.200000 -0.166671
vt 1.154150 -0.114805
vt 1.200000 -0.114805
vt 1.200000 -0.058527
vt 1.200000 0.058527
vt 1.200000 0.114805
vt 1.154150 0.114805
vt 1.200000 0.166671
vt 1.154150 0.212132
vt 1.154150 0.166671
vt -1.154150 0.166671
vt -1.200000 0.212132
vt -1.200000 0.166671
vt -1.154150 0.114805
vt -1.200000 0.114805
vt -1.200000 0.058527
vt -1.154150 0.212132
vt 1.200000 0.212132
vt -1.200000 -0.212132
vt 5.400000 0.058527
vt -0.570000 0.114805
vt -0.570000 0.166671
vt 5.400000 0.114805
vt 5.400000 0.166671
vt 5.400000 0.212132
vt -0.570000 0.212132
vt 0.212132 5.400000
vt 0.166671 -0.570000
vt 0.212132 -0.570000
vt 0.166671 5.400000
vt 0.114805 -0.570000
vt 0.114805 5.400000
vt 0.058527 5.400000
vt 0.000000 5.400000
vt -0.058527 5.400000
vt -0.114805 -0.570000
vt -0.114805 5.400000
vt -0.166671 -0.570000
vt -0.212132 -0.570000
vt -0.166671 5.400000
vt -0.212132 5.400000
vt -5.400000 0.166671
vt 0.570000 0.166671
vt -5.400000 0.212132
vt 0.570000 0.114805
vt -5.400000 0.114805
vt -5.400000 0.058527
vt -5.400000 0.000000
vt -5.400000 -0.058527
vt 0.570000 -0.114805
vt -5.400000 -0.114805
vt 0.570000 -0.166671
vt -5.400000 -0.166671
vt 0.570000 -0.212132
vt 5.400000 -0.058527
vt 5.400000 -0.114805
vt -0.570000 -0.114805
vt 5.400000 -0.166671
vt -0.570000 -0.166671
vt 5.400000 -0.212132
vt -0.570000 -0.212132
vt -5.400000 -0.212132
vt 0.570000 0.212132
vt 5.400000 0.000000
vt -0.184776 -0.076537
vt -0.200000 0.000000
vt -0.196157 -0.039018
vt -0.166294 -0.111114
vt -0.141421 -0.141421
vt -0.111114 -0.166294
vt -0.076537 -0.184776
vt -0.039018 -0.196157
vt 0.000000 -0.200000
vt 0.039018 -0.196157
vt 0.076537 -0.184776
vt 0.111114 -0.166294
vt 0.141421 -0.141421
vt 0.184776 -0.076537
vt 0.166294 -0.111114
vt 0.196157 -0.039018
vt 0.200000 0.000000
vt 0.196157 0.039018
vt 0.184776 0.076537
vt 0.166294 0.111114
vt 0.141421 0.141421
vt 0.076537 0.184776
vt 0.111114 0.166294
vt 0.039018 0.196157
vt -0.000000 0.200000
vt -0.039018 0.196157
vt -0.076537 0.184776
vt -0.111114 0.166294
vt -0.141421 0.141421
vt -0.166294 0.111114
vt -0.184776 0.076537
vt -0.196157 0.039018
vt -0.150000 -0.850000
vt -0.150000 -1.200000
vt -0.000000 -0.850000
vt -0.850000 0.086603
vt -1.200000 0.086603
vt -0.850000 -0.086603
vt -1.200000 -0.086603
vt 0.150000 -0.850000
vt 0.150000 -1.200000
vt 0.850000 -0.086603
vt 1.200000 -0.086603
vt 0.850000 0.086603
vt 1.200000 0.086603
s 1
usemtl Diffuse_51_51_51_100.003
f 1/1/1 2/2/1 3/3/1
f 4/4/1 5/5/1 6/6/2
f 7/7/1 8/8/2 9/9/1
f 7/7/1 9/9/1 10/10/2
f 11/11/1 12/12/3 7/7/1
f 13/13/1 14/14/1 15/15/1
f 16/16/1 17/17/1 1/1/1
f 3/3/1 2/2/1 18/18/1
f 13/13/1 15/15/1 19/19/3
f 13/13/1 19/19/3 11/11/1
f 19/19/3 20/20/1 11/11/1
f 20/20/1 21/21/1 11/11/1
f 21/21/1 22/22/1 11/11/1
f 11/11/1 23/23/3 12/12/3
f 22/22/1 23/23/3 11/11/1
f 7/7/1 12/12/3 24/24/1
f 7/7/1 24/24/1 25/25/3
f 26/26/1 7/7/1 25/25/3
f 8/8/2 7/7/1 26/26/1
f 10/10/2 27/27/2 4/4/1
f 10/10/2 4/4/1 7/7/1
f 4/4/1 28/28/1 5/5/1
f 29/29/1 4/4/1 6/6/2
f 29/29/1 1/1/1 4/4/1
f 30/30/1 1/1/1 29/29/1
f 16/16/1 1/1/1 30/30/1
f 1/1/1 31/31/2 2/2/1
f 17/17/1 31/31/2 1/1/1
f 32/32/1 3/3/1 18/18/1
f 33/33/1 3/3/1 32/32/1
f 33/33/1 34/34/1 3/3/1
f 34/34/1 35/35/3 3/3/1
f 35/35/3 36/36/1 3/3/1
f 36/36/1 37/37/3 13/13/1
f 36/36/1 13/13/1 3/3/1
f 37/37/3 38/38/1 13/13/1
f 38/38/1 14/14/1 13/13/1
f 27/27/2 28/28/1 4/4/1
f 39/25/4 40/24/5 41/39/4
f 40/24/5 42/12/6 43/40/5
f 42/12/6 44/23/7 45/41/6
f 46/42/7 45/41/6 44/23/7
f 47/43/8 46/42/7 48/22/8
f 49/44/9 47/43/8 50/21/9
f 51/45/10 49/44/9 52/20/11
f 51/46/10 52/47/11 53/48/12
f 54/49/12 53/48/12 55/50/13
f 56/51/14 55/15/13 57/14/15
f 58/52/15 57/14/15 59/38/16
f 58/52/15 59/38/16 60/53/16
f 60/53/16 61/37/17 62/54/17
f 62/54/17 63/36/18 64/55/18
f 64/55/18 65/35/19 66/56/19
f 65/35/19 67/34/20 66/56/19
f 67/57/20 68/58/21 69/59/22
f 68/58/21 70/60/23 71/61/21
f 70/60/23 72/62/24 71/61/21
f 73/18/25 74/63/25 72/64/24
f 75/31/26 76/65/26 77/66/27
f 78/17/28 79/16/29 80/67/28
f 81/68/29 82/30/30 83/69/31
f 83/70/31 84/71/32 85/72/32
f 86/73/33 87/6/34 88/5/35
f 89/27/36 90/74/36 91/75/37
f 92/10/38 93/76/38 90/74/36
f 94/9/39 95/77/39 93/76/38
f 96/78/35 88/5/35 97/28/37
f 98/8/40 99/79/41 95/77/39
f 100/58/42 39/60/4 41/62/4
f 99/59/41 100/58/42 101/61/43
f 98/57/40 100/58/42 99/59/41
f 94/9/39 98/8/40 95/77/39
f 92/10/38 94/9/39 93/76/38
f 89/27/36 92/10/38 90/74/36
f 97/28/37 89/27/36 91/75/37
f 97/28/37 91/75/37 96/78/35
f 88/5/35 96/78/35 86/73/33
f 87/80/34 86/81/33 85/72/32
f 87/80/34 85/72/32 84/71/32
f 84/71/32 83/70/31 82/82/30
f 82/30/30 81/68/29 79/16/29
f 81/68/29 80/67/28 79/16/29
f 80/67/28 76/65/26 78/17/28
f 76/65/26 75/31/26 78/17/28
f 77/66/27 102/2/27 75/31/26
f 74/63/25 102/2/27 77/66/27
f 73/18/25 102/2/27 74/63/25
f 70/32/23 73/18/25 72/64/24
f 69/59/22 68/58/21 71/61/21
f 66/56/19 67/34/20 69/83/22
f 64/55/18 63/36/18 65/35/19
f 62/54/17 61/37/17 63/36/18
f 60/53/16 59/38/16 61/37/17
f 58/52/15 56/51/14 57/14/15
f 56/84/14 54/49/12 55/50/13
f 54/49/12 51/46/10 53/48/12
f 52/20/11 49/44/9 50/21/9
f 50/21/9 47/43/8 48/22/8
f 48/22/8 46/42/7 44/23/7
f 42/12/6 45/41/6 43/40/5
f 41/39/4 40/24/5 43/40/5
f 41/62/4 101/61/43 100/58/42
f 103/15/44 104/14/45 105/85/44
f 104/14/45 106/38/46 107/86/45
f 106/38/46 108/37/47 109/87/46
f 108/37/47 110/36/48 111/88/47
f 112/89/48 111/88/47 110/36/48
f 113/90/49 112/89/48 114/35/49
f 115/91/50 113/90/49 116/34/51
f 117/92/52 115/93/50 118/94/52
f 117/92/52 118/94/52 119/95/53
f 120/96/54 119/32/53 121/18/55
f 122/97/55 121/18/55 123/2/56
f 122/97/55 123/2/56 124/98/56
f 124/98/56 125/31/57 126/99/57
f 126/99/57 127/17/58 128/100/59
f 128/100/59 129/16/60 130/101/60
f 129/16/60 131/30/61 130/101/60
f 131/102/61 132/103/62 133/104/63
f 132/103/62 134/105/64 135/106/62
f 134/6/64 136/5/65 137/107/66
f 138/28/67 139/108/67 140/109/65
f 141/27/68 142/10/69 143/110/68
f 142/10/69 144/9/70 145/111/69
f 146/112/70 147/8/71 148/113/72
f 148/93/72 149/94/73 150/92/73
f 151/12/74 152/114/75 153/115/76
f 154/23/77 155/116/77 152/114/75
f 156/22/78 157/117/78 155/116/77
f 158/118/79 159/25/80 160/24/76
f 161/21/81 162/119/81 157/117/78
f 163/20/82 164/120/83 162/119/81
f 165/121/84 103/122/44 105/123/44
f 164/124/83 165/121/84 166/125/84
f 163/126/82 165/121/84 164/124/83
f 161/21/81 163/20/82 162/119/81
f 156/22/78 161/21/81 157/117/78
f 154/23/77 156/22/78 155/116/77
f 151/12/74 154/23/77 152/114/75
f 160/24/76 151/12/74 153/115/76
f 160/24/76 153/115/76 158/118/79
f 159/95/80 158/127/79 150/92/73
f 159/95/80 150/92/73 149/94/73
f 149/94/73 148/93/72 147/128/71
f 147/8/71 146/112/70 144/9/70
f 146/112/70 145/111/69 144/9/70
f 145/111/69 143/110/68 142/10/69
f 143/110/68 139/108/67 141/27/68
f 139/108/67 138/28/67 141/27/68
f 137/107/66 136/5/65 140/109/65
f 136/5/65 138/28/67 140/109/65
f 135/106/62 134/105/64 137/129/66
f 133/104/63 132/103/62 135/106/62
f 130/101/60 131/30/61 133/130/63
f 128/100/59 127/17/58 129/16/60
f 126/99/57 125/31/57 127/17/58
f 124/98/56 123/2/56 125/31/57
f 122/97/55 120/96/54 121/18/55
f 120/127/54 117/92/52 119/95/53
f 118/94/52 115/93/50 116/128/51
f 116/34/51 113/90/49 114/35/49
f 114/35/49 112/89/48 110/36/48
f 108/37/47 111/88/47 109/87/46
f 106/38/46 109/87/46 107/86/45
f 105/85/44 104/14/45 107/86/45
f 105/123/44 166/125/84 165/121/84
f 167/131/1 168/132/85 169/133/2
f 170/134/86 168/132/85 171/135/2
f 171/135/2 168/132/85 167/131/1
f 167/131/1 172/136/1 173/107/1
f 174/137/1 175/91/1 176/138/1
f 174/137/1 177/90/1 178/91/1
f 169/133/1 179/96/1 180/97/1
f 171/135/1 181/113/1 182/139/1
f 171/135/1 183/112/1 184/113/1
f 185/140/1 186/118/1 187/115/1
f 188/120/1 189/141/3 185/140/3
f 190/120/1 191/142/1 189/141/1
f 192/119/1 193/120/1 185/140/1
f 194/117/1 195/119/1 185/140/1
f 196/116/1 197/117/1 185/140/1
f 198/114/1 199/116/1 185/140/1
f 200/115/1 201/114/1 185/140/1
f 202/118/1 185/140/1 203/139/1
f 185/140/1 171/135/1 204/139/1
f 171/135/1 205/111/1 206/112/1
f 207/108/1 171/135/1 208/109/1
f 209/108/1 210/110/1 171/135/1
f 211/109/1 171/135/1 212/107/1
f 171/135/3 213/110/3 214/111/3
f 215/136/1 167/131/1 216/130/1
f 217/130/1 167/131/1 169/133/2
f 218/101/1 219/130/1 169/133/1
f 220/100/1 221/101/1 169/133/1
f 222/99/87 223/100/87 169/133/87
f 224/98/1 225/99/1 169/133/1
f 226/97/1 227/98/1 169/133/1
f 228/96/1 169/133/1 229/138/1
f 169/133/1 174/137/1 230/138/1
f 174/137/2 231/89/2 232/90/2
f 233/87/1 174/137/1 234/86/1
f 235/87/88 236/88/88 174/137/88
f 237/86/1 174/137/1 238/85/1
f 167/131/1 239/107/1 171/135/2
f 174/137/2 240/88/2 241/89/2
f 189/141/1 242/142/1 243/85/1
f 244/85/1 174/137/3 189/141/3
f 245/143/89 189/141/3 174/137/3
f 246/144/89 189/141/3 245/143/89
f 247/145/90 189/141/3 246/144/89
f 185/140/3 189/141/3 247/145/90
f 248/146/91 249/147/92 246/144/89
f 246/144/89 249/147/92 247/145/90
f 246/144/89 245/143/89 248/146/91
f 250/148/93 251/149/93 252/150/94
f 252/150/94 251/149/93 253/151/94
f 248/152/91 253/151/94 249/153/92
f 253/151/94 248/152/91 252/150/94
f 254/154/93 255/155/93 250/148/93
f 250/148/93 255/155/93 251/149/93
f 256/156/95 257/157/95 258/158/96
f 258/158/96 257/157/95 259/159/96
f 260/160/12 258/158/96 259/159/96
f 261/161/12 260/160/12 259/159/96
f 254/154/93 262/162/97 255/155/93
f 254/154/93 263/163/98 262/162/97
f 263/163/98 261/164/12 262/162/97
f 260/165/12 261/164/12 263/163/98
f 264/166/99 265/54/99 266/55/99
f 256/156/100 267/65/100 268/67/100
f 256/156/100 269/66/100 270/65/100
f 257/157/100 271/74/100 272/76/100
f 273/167/100 274/42/100 275/43/100
f 273/167/99 276/41/99 277/42/99
f 278/79/95 279/168/95 257/157/95
f 257/157/95 280/168/95 273/167/95
f 281/77/101 282/79/101 257/157/101
f 283/76/99 284/77/99 257/157/99
f 285/74/102 257/157/102 286/75/102
f 287/75/95 257/157/95 288/78/95
f 289/78/95 257/157/95 290/73/95
f 291/169/95 292/73/95 257/157/95
f 293/68/95 294/69/95 256/156/95
f 256/156/100 295/69/100 296/169/100
f 297/67/102 298/68/102 256/156/102
f 299/66/95 256/156/95 300/63/95
f 301/63/95 256/156/95 302/64/95
f 257/157/95 256/156/95 303/169/95
f 304/170/95 305/64/95 256/156/95
f 256/156/95 264/166/95 306/170/95
f 307/170/95 264/166/95 308/83/95
f 309/54/95 264/166/95 310/53/95
f 264/166/100 311/55/100 312/56/100
f 313/53/101 264/166/101 314/52/101
f 315/52/95 264/166/95 316/51/95
f 317/171/95 318/51/95 264/166/95
f 319/44/95 320/45/95 273/167/95
f 273/167/95 321/45/95 322/171/95
f 323/43/95 324/44/95 273/167/95
f 325/41/100 273/167/100 326/40/100
f 327/40/102 273/167/102 328/39/102
f 329/83/95 264/166/95 330/56/95
f 331/168/95 332/39/95 273/167/95
f 273/167/95 333/171/95 264/166/95
f 334/172/103 335/173/104 336/174/105
f 337/175/103 334/172/103 336/174/105
f 337/175/103 338/176/32 334/172/103
f 264/166/95 339/177/106 273/167/95
f 339/177/106 264/166/95 340/178/106
f 341/179/32 339/177/106 340/178/106
f 338/180/32 341/179/32 340/178/106
f 338/176/32 337/175/103 341/181/32
f 342/182/107 343/183/104 335/173/104
f 335/173/104 343/183/104 336/174/105
f 344/184/108 345/185/109 346/186/109
f 347/187/108 343/183/104 342/182/107
f 346/186/109 347/187/108 344/184/108
f 347/187/108 342/182/107 344/184/108
f 168/132/85 170/134/86 345/188/109
f 345/188/109 170/134/86 346/189/109
f 348/190/110 349/191/110 350/192/110
f 351/193/110 352/190/110 353/194/110
f 354/190/110 355/192/110 356/194/110
s 0
f 357/193/110 358/194/110 359/195/110
s 1
f 360/196/110 361/190/110 362/193/110
f 363/197/110 364/190/110 365/198/110
f 366/196/110 367/199/110 368/190/110
f 369/190/110 370/200/110 371/191/110
f 372/191/110 373/200/110 374/201/110
f 375/200/110 376/202/110 377/203/110
f 378/200/110 379/203/110 380/201/110
f 381/204/111 382/202/111 383/200/111
f 384/204/110 385/200/110 386/205/110
f 387/206/112 388/207/112 389/205/112
f 390/204/110 391/208/110 392/202/110
f 393/200/110 394/206/110 395/205/110
s 0
f 396/207/110 397/209/110 398/205/110
s 1
f 399/190/110 400/199/110 401/198/110
f 402/204/113 403/202/113 404/200/113
f 405/200/114 406/202/114 407/203/114
s 0
f 408/204/114 409/208/114 410/202/114
s 1
f 411/205/114 412/204/114 413/200/114
f 414/206/114 415/207/114 416/200/114
f 417/205/114 418/200/114 419/209/114
f 420/200/115 421/203/115 422/201/115
f 423/200/114 424/201/114 425/190/114
f 426/190/115 427/191/115 428/192/115
f 429/190/114 430/201/114 431/191/114
f 432/194/114 433/190/114 434/192/114
f 435/194/114 436/193/114 437/190/114
f 438/197/116 439/196/116 440/198/116
f 441/193/114 442/194/114 443/195/114
f 444/190/114 445/196/114 446/197/114
f 447/196/114 448/190/114 449/193/114
s 0
f 450/199/114 451/198/114 452/196/114
s 1
f 453/200/114 454/207/114 455/209/114
f 456/102/117 457/210/117 458/211/118
f 459/211/119 460/212/119 461/213/120
f 462/213/121 463/214/121 464/215/122
f 465/216/123 466/217/123 467/218/124
f 468/218/125 469/219/125 470/220/126
f 471/221/126 472/220/126 473/219/125
f 474/222/127 475/95/127 476/221/128
f 477/92/110 478/94/110 479/222/129
f 480/223/130 481/128/130 482/92/110
f 483/224/131 484/225/131 485/223/132
f 486/226/133 487/227/133 488/224/134
f 489/228/135 490/229/135 491/226/136
f 492/230/135 493/231/137 494/232/135
f 495/233/138 496/234/139 497/231/138
f 498/235/140 499/122/141 500/234/140
f 501/236/142 502/121/104 503/122/142
f 504/125/104 505/126/143 506/121/104
f 507/237/144 508/238/145 509/239/145
f 510/240/146 511/241/147 512/242/146
f 513/217/147 514/218/148 515/216/147
f 516/95/149 517/221/150 518/222/149
f 519/94/114 520/222/151 521/92/114
f 522/128/152 523/92/114 524/223/152
f 525/225/153 526/223/154 527/224/153
f 528/227/155 529/224/156 530/226/155
f 531/229/157 532/226/158 533/228/157
f 534/219/159 535/220/160 536/218/159
f 537/243/161 538/244/157 539/245/161
f 540/246/162 541/245/163 542/247/162
f 543/105/164 544/247/165 545/248/164
f 546/103/93 547/210/166 548/102/166
f 549/248/167 550/106/93 551/103/93
f 552/105/167 553/248/167 554/103/93
f 555/246/165 556/247/165 557/105/164
f 558/243/163 559/245/163 560/246/162
f 561/249/157 562/244/157 563/243/161
f 564/227/158 565/226/158 566/229/157
f 567/225/156 568/224/156 569/227/155
f 570/128/154 571/223/154 572/225/153
f 573/94/114 574/92/114 575/128/152
f 576/95/151 577/222/151 578/94/114
f 579/220/150 580/221/150 581/95/168
f 582/220/160 583/219/159 584/221/160
f 585/218/148 586/217/147 587/219/148
f 588/241/147 589/240/146 590/250/147
f 591/242/169 592/238/170 593/240/169
f 594/242/169 595/239/170 596/238/170
f 597/237/143 598/126/143 599/125/104
f 600/237/144 601/239/171 602/126/144
f 603/125/104 604/121/104 605/236/142
f 606/236/141 607/122/141 608/235/172
f 609/235/139 610/234/139 611/233/138
f 612/233/137 613/231/137 614/230/135
f 615/229/135 616/227/173 617/226/173
f 618/227/133 619/225/134 620/224/134
f 621/225/131 622/128/132 623/223/132
f 624/128/130 625/94/110 626/92/110
f 627/94/110 628/95/129 629/222/129
f 630/95/127 631/220/128 632/221/128
f 633/218/124 634/217/174 635/219/124
f 636/215/122 637/214/121 638/251/122
f 639/213/120 640/212/119 641/214/120
f 642/210/117 643/212/118 644/211/118
f 645/210/166 646/103/93 647/106/93
f 648/47/167 649/48/93 650/252/167
f 651/253/165 652/47/164 650/252/164
f 653/254/163 654/253/162 655/255/162
f 656/256/163 657/254/163 655/255/162
f 658/257/157 659/258/157 656/256/161
f 658/259/157 660/260/158 661/261/157
f 662/262/155 663/263/156 664/260/155
f 662/262/155 665/264/156 666/263/156
f 665/264/153 667/265/154 668/60/154
f 669/60/152 667/265/152 670/58/114
f 671/58/114 672/266/114 673/57/151
f 674/57/151 672/266/114 675/267/151
f 676/268/150 675/267/149 677/269/150
f 678/270/159 679/268/160 677/269/160
f 680/271/175 681/270/148 682/272/148
f 683/273/147 684/271/147 682/272/148
f 685/274/146 686/275/146 683/276/147
f 685/274/169 687/277/170 688/275/169
f 689/278/171 690/80/144 691/277/171
f 689/278/171 692/279/144 693/80/144
f 692/279/143 694/280/104 695/71/104
f 696/71/176 694/280/176 697/82/142
f 698/82/141 699/281/141 700/282/172
f 701/282/140 699/281/141 702/283/140
f 703/284/138 702/283/139 704/285/138
f 705/286/135 706/284/137 704/285/137
f 707/260/136 708/261/135 709/259/135
f 710/262/136 711/260/136 709/259/135
f 712/264/134 713/263/134 710/262/133
f 712/264/131 714/60/132 715/263/131
f 716/265/130 717/58/110 718/60/130
f 719/253/165 650/252/164 655/255/165
f 720/287/166 721/48/93 722/50/166
f 723/288/118 720/287/117 724/50/117
f 725/289/118 723/288/118 726/50/117
f 727/289/119 728/290/120 723/288/119
f 729/289/119 730/291/120 728/290/120
f 728/290/177 731/291/177 732/292/122
f 732/292/122 733/291/121 734/293/122
f 735/272/178 732/273/122 736/271/122
f 737/270/124 735/272/178 738/271/122
f 739/270/125 740/269/126 735/272/125
f 741/270/125 742/268/126 740/269/126
f 740/269/128 743/268/128 744/267/127
f 744/267/127 745/268/128 746/57/127
f 747/266/110 744/267/129 748/57/129
f 749/58/110 747/266/110 750/57/129
f 747/266/110 751/58/110 716/265/130
f 716/265/132 752/60/132 712/264/131
f 753/263/134 754/260/133 710/262/133
f 755/286/135 704/285/137 709/294/135
f 756/282/139 702/283/139 757/284/138
f 694/280/176 699/281/142 758/82/142
f 692/279/143 759/71/104 760/80/143
f 689/278/170 761/277/170 685/274/169
f 762/275/146 763/295/147 683/276/147
f 764/270/159 677/269/160 682/272/159
f 765/57/179 675/267/179 766/268/150
f 667/265/152 672/266/114 767/58/114
f 665/264/153 768/60/154 769/263/153
f 662/262/158 770/260/158 658/259/157
f 650/252/167 771/48/93 772/296/93
f 772/296/93 773/48/93 720/287/166
f 774/254/180 656/256/180 775/258/157
f 776/297/95 777/298/95 778/299/95
f 779/300/95 777/298/95 776/297/95
f 780/301/95 777/298/95 779/300/95
f 781/302/95 777/298/95 780/301/95
f 782/303/95 783/304/181 777/298/95
f 782/303/95 777/298/95 781/302/95
f 783/304/181 784/305/99 777/298/95
f 784/305/99 785/306/95 777/298/95
f 777/298/95 785/306/95 786/307/95
f 777/298/95 786/307/95 787/308/95
f 777/298/95 787/308/95 788/309/95
f 789/310/95 777/298/95 790/311/95
f 777/298/95 788/309/95 790/311/95
f 791/312/95 792/313/95 777/298/95
f 792/313/95 793/314/95 777/298/95
f 777/298/95 793/314/95 794/315/95
f 777/298/95 794/315/95 795/316/95
f 777/298/95 795/316/95 796/317/99
f 797/318/101 777/298/95 798/319/100
f 777/298/95 796/317/99 798/319/100
f 799/320/95 777/298/95 797/318/101
f 800/321/95 777/298/95 799/320/95
f 800/321/95 801/322/95 777/298/95
f 801/322/95 802/323/99 777/298/95
f 802/323/99 803/324/99 777/298/95
f 777/298/95 804/325/100 805/326/99
f 803/324/99 804/325/100 777/298/95
f 777/298/95 805/326/99 806/327/95
f 777/298/95 806/327/95 807/328/95
f 791/312/95 777/298/95 789/310/95
f 808/6/14 809/328/14 810/5/15
f 811/5/15 812/327/15 813/28/16
f 814/28/182 815/327/15 816/326/182
f 817/27/17 818/326/183 819/325/17
f 820/10/184 821/27/17 822/325/17
f 823/9/19 824/10/185 825/324/185
f 826/323/19 827/9/19 828/324/18
f 829/322/20 830/8/20 831/323/19
f 832/322/22 833/26/186 834/8/22
f 835/321/21 836/25/23 837/26/21
f 838/321/187 839/320/23 840/25/23
f 841/320/24 842/318/25 843/24/25
f 844/24/25 845/318/25 846/12/27
f 847/12/188 848/319/188 849/23/26
f 850/23/26 851/317/26 852/22/189
f 853/22/189 854/317/26 855/316/189
f 856/21/29 857/316/28 858/315/29
f 859/20/30 860/21/29 861/315/190
f 862/19/32 863/20/31 864/314/31
f 865/313/32 866/19/32 867/314/31
f 868/312/34 869/15/34 870/313/32
f 871/312/33 872/14/35 873/15/33
f 874/310/35 875/38/191 876/14/35
f 877/310/35 878/311/37 879/38/191
f 880/311/192 881/309/36 882/37/36
f 883/37/36 884/309/36 885/36/193
f 886/36/194 887/308/195 888/35/39
f 889/35/39 890/308/38 891/307/39
f 892/34/40 893/307/39 894/306/40
f 895/2/196 896/302/196 897/31/7
f 898/2/197 899/303/5 900/302/197
f 901/300/8 902/16/9 903/17/8
f 904/29/198 905/328/13 906/6/13
f 907/299/199 908/29/200 909/30/10
f 910/297/9 911/299/11 912/30/11
f 913/16/9 914/297/9 915/30/11
f 916/16/9 917/300/8 918/297/9
f 919/17/201 920/301/7 921/300/201
f 922/17/201 923/31/7 924/301/7
f 925/301/7 926/31/7 927/302/196
f 928/303/5 929/2/6 930/18/5
f 931/304/202 932/303/5 933/18/5
f 934/32/202 935/304/202 936/18/5
f 937/32/4 938/305/42 939/304/4
f 940/32/4 941/33/42 942/305/42
f 943/305/42 944/33/203 945/306/41
f 946/306/41 947/33/42 948/34/41
f 949/35/39 950/307/39 951/34/40
f 952/309/36 953/308/193 954/36/193
f 955/311/192 956/37/36 957/38/192
f 958/310/35 959/14/35 960/312/33
f 961/15/34 962/19/32 963/313/204
f 964/20/30 965/315/29 966/314/30
f 967/22/28 968/316/28 969/21/29
f 970/319/188 971/317/26 972/23/26
f 973/318/25 974/319/205 975/12/205
f 976/320/24 977/24/25 978/25/24
f 979/321/21 980/26/21 981/322/22
f 982/8/20 983/9/19 984/323/19
f 985/10/206 986/325/17 987/324/206
f 988/28/183 989/326/183 990/27/17
f 991/328/13 992/29/207 993/298/207
f 994/298/207 995/29/207 996/299/10
f 997/327/15 998/5/15 999/328/14
f 1000/329/208 1001/330/208 1002/331/208
f 1002/331/208 1003/330/208 1004/92/208
f 1005/332/93 1006/333/93 1007/334/93
f 1008/334/93 1009/333/93 1010/335/93
f 1011/331/209 1012/92/209 1013/336/209
f 1014/336/209 1015/92/209 1016/337/209
f 1017/329/210 1018/330/210 1019/331/210
f 1020/331/210 1021/330/210 1022/92/210
f 1023/338/104 1024/339/104 1025/340/104
f 1026/340/104 1027/339/104 1028/341/104
f 1029/331/211 1030/92/211 1031/336/211
f 1032/336/211 1033/92/211 1034/337/211
f 1035/13/1 1036/11/1 1037/1/1
f 1038/4/1 1039/1/1 1040/7/1
f 1041/1/1 1042/11/1 1043/7/1
f 1044/13/1 1045/1/1 1046/3/1
