# Blender 4.4.3
# www.blender.org
mtllib Mesh_6.002.mtl
o Mesh_6.002
v 0.012090 0.009675 0.000245
v 0.012095 0.009675 0.000246
v 0.012090 0.009725 0.000245
v 0.012085 0.009675 0.000245
v 0.012081 0.009675 0.000244
v 0.012085 0.009725 0.000245
v 0.012081 0.009725 0.000244
v 0.012076 0.009725 0.000242
v 0.012076 0.009675 0.000242
v 0.012072 0.009675 0.000240
v 0.012072 0.009725 0.000240
v 0.012068 0.009675 0.000237
v 0.012068 0.009725 0.000237
v 0.012064 0.009725 0.000235
v 0.012064 0.009675 0.000235
v 0.012060 0.009675 0.000231
v 0.012060 0.009725 0.000231
v 0.012057 0.009675 0.000228
v 0.012057 0.009725 0.000228
v 0.012054 0.009675 0.000224
v 0.012054 0.009725 0.000224
v 0.012052 0.009675 0.000220
v 0.012050 0.009675 0.000216
v 0.012052 0.009725 0.000220
v 0.012050 0.009725 0.000216
v 0.012048 0.009725 0.000211
v 0.012048 0.009675 0.000211
v 0.012047 0.009675 0.000207
v 0.012047 0.009725 0.000207
v 0.012046 0.009675 0.000202
v 0.012046 0.009725 0.000202
v 0.012046 0.009725 0.000197
v 0.012046 0.009675 0.000197
v 0.012046 0.009675 0.000192
v 0.012046 0.009725 0.000192
v 0.012047 0.009675 0.000188
v 0.012047 0.009725 0.000188
v 0.012048 0.009675 0.000183
v 0.012048 0.009725 0.000183
v 0.012050 0.009675 0.000179
v 0.012052 0.009675 0.000174
v 0.012050 0.009725 0.000179
v 0.012052 0.009725 0.000174
v 0.012054 0.009725 0.000170
v 0.012054 0.009675 0.000170
v 0.012057 0.009675 0.000166
v 0.012064 0.009725 0.000160
v 0.012068 0.009725 0.000157
v 0.012068 0.009675 0.000157
v 0.012072 0.009675 0.000154
v 0.012095 0.009675 0.000149
v 0.012090 0.009725 0.000149
v 0.012095 0.009725 0.000149
v 0.012099 0.009675 0.000149
v 0.012099 0.009725 0.000149
v 0.012104 0.009675 0.000150
v 0.012104 0.009725 0.000150
v 0.012109 0.009675 0.000151
v 0.012109 0.009725 0.000151
v 0.012113 0.009675 0.000152
v 0.012117 0.009675 0.000154
v 0.012113 0.009725 0.000152
v 0.012122 0.009675 0.000157
v 0.012117 0.009725 0.000154
v 0.012122 0.009725 0.000157
v 0.012125 0.009725 0.000160
v 0.012125 0.009675 0.000160
v 0.012129 0.009675 0.000163
v 0.012129 0.009725 0.000163
v 0.012132 0.009675 0.000166
v 0.012132 0.009725 0.000166
v 0.012135 0.009725 0.000170
v 0.012135 0.009675 0.000170
v 0.012137 0.009675 0.000174
v 0.012137 0.009725 0.000174
v 0.012139 0.009675 0.000179
v 0.012139 0.009725 0.000179
v 0.012141 0.009675 0.000183
v 0.012141 0.009725 0.000183
v 0.012142 0.009675 0.000188
v 0.012143 0.009675 0.000192
v 0.012142 0.009725 0.000188
v 0.012143 0.009725 0.000192
v 0.012143 0.009725 0.000197
v 0.012143 0.009675 0.000197
v 0.012143 0.009675 0.000202
v 0.012143 0.009725 0.000202
v 0.012142 0.009675 0.000207
v 0.012142 0.009725 0.000207
v 0.012141 0.009725 0.000211
v 0.012141 0.009675 0.000211
v 0.012139 0.009675 0.000216
v 0.012139 0.009725 0.000216
v 0.012137 0.009675 0.000220
v 0.012137 0.009725 0.000220
v 0.012135 0.009675 0.000224
v 0.012135 0.009725 0.000224
v 0.012132 0.009675 0.000228
v 0.012129 0.009675 0.000231
v 0.012132 0.009725 0.000228
v 0.012129 0.009725 0.000231
v 0.012095 0.009725 0.000246
v 0.012099 0.009725 0.000245
v 0.012099 0.009675 0.000245
v 0.012104 0.009725 0.000245
v 0.012104 0.009675 0.000245
v 0.012109 0.009725 0.000244
v 0.012109 0.009675 0.000244
v 0.012113 0.009725 0.000242
v 0.012113 0.009675 0.000242
v 0.012117 0.009725 0.000240
v 0.012117 0.009675 0.000240
v 0.012122 0.009725 0.000237
v 0.012122 0.009675 0.000237
v 0.012125 0.009725 0.000235
v 0.012125 0.009675 0.000235
v 0.012090 0.009675 0.000149
v 0.012085 0.009725 0.000150
v 0.012085 0.009675 0.000150
v 0.012081 0.009725 0.000151
v 0.012081 0.009675 0.000151
v 0.012076 0.009725 0.000152
v 0.012076 0.009675 0.000152
v 0.012072 0.009725 0.000154
v 0.012064 0.009675 0.000160
v 0.012060 0.009725 0.000163
v 0.012060 0.009675 0.000163
v 0.012057 0.009725 0.000166
v 0.012085 0.009725 0.000245
v 0.012090 0.009725 0.000245
v 0.012095 0.009725 0.000246
v 0.012081 0.009725 0.000244
v 0.012085 0.009725 0.000245
v 0.012095 0.009725 0.000246
v 0.012076 0.009725 0.000242
v 0.012081 0.009725 0.000244
v 0.012095 0.009725 0.000246
v 0.012072 0.009725 0.000240
v 0.012076 0.009725 0.000242
v 0.012095 0.009725 0.000246
v 0.012068 0.009725 0.000237
v 0.012072 0.009725 0.000240
v 0.012095 0.009725 0.000246
v 0.012064 0.009725 0.000235
v 0.012068 0.009725 0.000237
v 0.012095 0.009725 0.000246
v 0.012060 0.009725 0.000231
v 0.012064 0.009725 0.000235
v 0.012095 0.009725 0.000246
v 0.012057 0.009725 0.000228
v 0.012060 0.009725 0.000231
v 0.012095 0.009725 0.000246
v 0.012054 0.009725 0.000224
v 0.012057 0.009725 0.000228
v 0.012095 0.009725 0.000246
v 0.012052 0.009725 0.000220
v 0.012054 0.009725 0.000224
v 0.012095 0.009725 0.000246
v 0.012050 0.009725 0.000216
v 0.012052 0.009725 0.000220
v 0.012095 0.009725 0.000246
v 0.012048 0.009725 0.000211
v 0.012095 0.009725 0.000246
v 0.012047 0.009725 0.000207
v 0.012048 0.009725 0.000211
v 0.012050 0.009725 0.000216
v 0.012095 0.009725 0.000246
v 0.012047 0.009725 0.000207
v 0.012095 0.009725 0.000246
v 0.012046 0.009725 0.000202
v 0.012046 0.009725 0.000202
v 0.012095 0.009725 0.000246
v 0.012046 0.009725 0.000197
v 0.012046 0.009725 0.000197
v 0.012095 0.009725 0.000246
v 0.012046 0.009725 0.000192
v 0.012046 0.009725 0.000192
v 0.012095 0.009725 0.000246
v 0.012047 0.009725 0.000188
v 0.012095 0.009725 0.000246
v 0.012048 0.009725 0.000183
v 0.012047 0.009725 0.000188
v 0.012095 0.009725 0.000246
v 0.012050 0.009725 0.000179
v 0.012048 0.009725 0.000183
v 0.012095 0.009725 0.000246
v 0.012052 0.009725 0.000174
v 0.012050 0.009725 0.000179
v 0.012095 0.009725 0.000246
v 0.012054 0.009725 0.000170
v 0.012052 0.009725 0.000174
v 0.012095 0.009725 0.000246
v 0.012057 0.009725 0.000166
v 0.012054 0.009725 0.000170
v 0.012095 0.009725 0.000246
v 0.012060 0.009725 0.000163
v 0.012057 0.009725 0.000166
v 0.012095 0.009725 0.000246
v 0.012064 0.009725 0.000160
v 0.012060 0.009725 0.000163
v 0.012095 0.009725 0.000246
v 0.012068 0.009725 0.000157
v 0.012064 0.009725 0.000160
v 0.012076 0.009725 0.000152
v 0.012072 0.009725 0.000154
v 0.012095 0.009725 0.000246
v 0.012095 0.009725 0.000246
v 0.012072 0.009725 0.000154
v 0.012068 0.009725 0.000157
v 0.012081 0.009725 0.000151
v 0.012076 0.009725 0.000152
v 0.012095 0.009725 0.000246
v 0.012085 0.009725 0.000150
v 0.012081 0.009725 0.000151
v 0.012095 0.009725 0.000246
v 0.012090 0.009725 0.000149
v 0.012095 0.009725 0.000246
v 0.012095 0.009725 0.000149
v 0.012095 0.009725 0.000149
v 0.012095 0.009725 0.000246
v 0.012099 0.009725 0.000149
v 0.012099 0.009725 0.000149
v 0.012095 0.009725 0.000246
v 0.012104 0.009725 0.000150
v 0.012095 0.009725 0.000246
v 0.012109 0.009725 0.000151
v 0.012104 0.009725 0.000150
v 0.012095 0.009725 0.000246
v 0.012113 0.009725 0.000152
v 0.012109 0.009725 0.000151
v 0.012095 0.009725 0.000246
v 0.012117 0.009725 0.000154
v 0.012113 0.009725 0.000152
v 0.012095 0.009725 0.000246
v 0.012122 0.009725 0.000157
v 0.012117 0.009725 0.000154
v 0.012095 0.009725 0.000246
v 0.012125 0.009725 0.000160
v 0.012122 0.009725 0.000157
v 0.012095 0.009725 0.000246
v 0.012129 0.009725 0.000163
v 0.012125 0.009725 0.000160
v 0.012095 0.009725 0.000246
v 0.012132 0.009725 0.000166
v 0.012129 0.009725 0.000163
v 0.012095 0.009725 0.000246
v 0.012135 0.009725 0.000170
v 0.012132 0.009725 0.000166
v 0.012139 0.009725 0.000179
v 0.012137 0.009725 0.000174
v 0.012095 0.009725 0.000246
v 0.012095 0.009725 0.000246
v 0.012137 0.009725 0.000174
v 0.012135 0.009725 0.000170
v 0.012141 0.009725 0.000183
v 0.012139 0.009725 0.000179
v 0.012095 0.009725 0.000246
v 0.012142 0.009725 0.000188
v 0.012141 0.009725 0.000183
v 0.012095 0.009725 0.000246
v 0.012143 0.009725 0.000192
v 0.012142 0.009725 0.000188
v 0.012095 0.009725 0.000246
v 0.012143 0.009725 0.000197
v 0.012143 0.009725 0.000192
v 0.012095 0.009725 0.000246
v 0.012143 0.009725 0.000202
v 0.012143 0.009725 0.000197
v 0.012095 0.009725 0.000246
v 0.012143 0.009725 0.000202
v 0.012095 0.009725 0.000246
v 0.012142 0.009725 0.000207
v 0.012142 0.009725 0.000207
v 0.012095 0.009725 0.000246
v 0.012141 0.009725 0.000211
v 0.012141 0.009725 0.000211
v 0.012095 0.009725 0.000246
v 0.012139 0.009725 0.000216
v 0.012139 0.009725 0.000216
v 0.012095 0.009725 0.000246
v 0.012137 0.009725 0.000220
v 0.012137 0.009725 0.000220
v 0.012095 0.009725 0.000246
v 0.012135 0.009725 0.000224
v 0.012135 0.009725 0.000224
v 0.012095 0.009725 0.000246
v 0.012132 0.009725 0.000228
v 0.012132 0.009725 0.000228
v 0.012095 0.009725 0.000246
v 0.012129 0.009725 0.000231
v 0.012129 0.009725 0.000231
v 0.012095 0.009725 0.000246
v 0.012125 0.009725 0.000235
v 0.012095 0.009725 0.000246
v 0.012117 0.009725 0.000240
v 0.012122 0.009725 0.000237
v 0.012125 0.009725 0.000235
v 0.012095 0.009725 0.000246
v 0.012122 0.009725 0.000237
v 0.012095 0.009725 0.000246
v 0.012113 0.009725 0.000242
v 0.012117 0.009725 0.000240
v 0.012095 0.009725 0.000246
v 0.012109 0.009725 0.000244
v 0.012113 0.009725 0.000242
v 0.012095 0.009725 0.000246
v 0.012104 0.009725 0.000245
v 0.012109 0.009725 0.000244
v 0.012095 0.009725 0.000246
v 0.012099 0.009725 0.000245
v 0.012104 0.009725 0.000245
v 0.012090 0.009725 0.000149
v 0.012085 0.009725 0.000150
v 0.012095 0.009725 0.000246
v 0.012085 0.009675 0.000245
v 0.012095 0.009675 0.000246
v 0.012090 0.009675 0.000245
v 0.012081 0.009675 0.000244
v 0.012095 0.009675 0.000246
v 0.012085 0.009675 0.000245
v 0.012076 0.009675 0.000242
v 0.012095 0.009675 0.000246
v 0.012081 0.009675 0.000244
v 0.012072 0.009675 0.000240
v 0.012095 0.009675 0.000246
v 0.012076 0.009675 0.000242
v 0.012068 0.009675 0.000237
v 0.012095 0.009675 0.000246
v 0.012072 0.009675 0.000240
v 0.012064 0.009675 0.000235
v 0.012095 0.009675 0.000246
v 0.012068 0.009675 0.000237
v 0.012060 0.009675 0.000231
v 0.012095 0.009675 0.000246
v 0.012064 0.009675 0.000235
v 0.012057 0.009675 0.000228
v 0.012095 0.009675 0.000246
v 0.012060 0.009675 0.000231
v 0.012054 0.009675 0.000224
v 0.012095 0.009675 0.000246
v 0.012057 0.009675 0.000228
v 0.012052 0.009675 0.000220
v 0.012095 0.009675 0.000246
v 0.012054 0.009675 0.000224
v 0.012050 0.009675 0.000216
v 0.012095 0.009675 0.000246
v 0.012052 0.009675 0.000220
v 0.012048 0.009675 0.000211
v 0.012047 0.009675 0.000207
v 0.012095 0.009675 0.000246
v 0.012048 0.009675 0.000211
v 0.012095 0.009675 0.000246
v 0.012050 0.009675 0.000216
v 0.012047 0.009675 0.000207
v 0.012046 0.009675 0.000202
v 0.012095 0.009675 0.000246
v 0.012046 0.009675 0.000202
v 0.012046 0.009675 0.000197
v 0.012095 0.009675 0.000246
v 0.012046 0.009675 0.000197
v 0.012046 0.009675 0.000192
v 0.012095 0.009675 0.000246
v 0.012046 0.009675 0.000192
v 0.012047 0.009675 0.000188
v 0.012095 0.009675 0.000246
v 0.012095 0.009675 0.000246
v 0.012047 0.009675 0.000188
v 0.012048 0.009675 0.000183
v 0.012095 0.009675 0.000246
v 0.012048 0.009675 0.000183
v 0.012050 0.009675 0.000179
v 0.012095 0.009675 0.000246
v 0.012050 0.009675 0.000179
v 0.012052 0.009675 0.000174
v 0.012095 0.009675 0.000246
v 0.012052 0.009675 0.000174
v 0.012054 0.009675 0.000170
v 0.012095 0.009675 0.000246
v 0.012054 0.009675 0.000170
v 0.012057 0.009675 0.000166
v 0.012095 0.009675 0.000246
v 0.012057 0.009675 0.000166
v 0.012060 0.009675 0.000163
v 0.012095 0.009675 0.000246
v 0.012060 0.009675 0.000163
v 0.012064 0.009675 0.000160
v 0.012095 0.009675 0.000246
v 0.012064 0.009675 0.000160
v 0.012068 0.009675 0.000157
v 0.012076 0.009675 0.000152
v 0.012095 0.009675 0.000246
v 0.012072 0.009675 0.000154
v 0.012095 0.009675 0.000246
v 0.012068 0.009675 0.000157
v 0.012072 0.009675 0.000154
v 0.012081 0.009675 0.000151
v 0.012095 0.009675 0.000246
v 0.012076 0.009675 0.000152
v 0.012085 0.009675 0.000150
v 0.012095 0.009675 0.000246
v 0.012081 0.009675 0.000151
v 0.012090 0.009675 0.000149
v 0.012095 0.009675 0.000149
v 0.012095 0.009675 0.000246
v 0.012095 0.009675 0.000149
v 0.012099 0.009675 0.000149
v 0.012095 0.009675 0.000246
v 0.012099 0.009675 0.000149
v 0.012104 0.009675 0.000150
v 0.012095 0.009675 0.000246
v 0.012095 0.009675 0.000246
v 0.012104 0.009675 0.000150
v 0.012109 0.009675 0.000151
v 0.012095 0.009675 0.000246
v 0.012109 0.009675 0.000151
v 0.012113 0.009675 0.000152
v 0.012095 0.009675 0.000246
v 0.012113 0.009675 0.000152
v 0.012117 0.009675 0.000154
v 0.012095 0.009675 0.000246
v 0.012117 0.009675 0.000154
v 0.012122 0.009675 0.000157
v 0.012095 0.009675 0.000246
v 0.012122 0.009675 0.000157
v 0.012125 0.009675 0.000160
v 0.012095 0.009675 0.000246
v 0.012125 0.009675 0.000160
v 0.012129 0.009675 0.000163
v 0.012095 0.009675 0.000246
v 0.012129 0.009675 0.000163
v 0.012132 0.009675 0.000166
v 0.012095 0.009675 0.000246
v 0.012132 0.009675 0.000166
v 0.012135 0.009675 0.000170
v 0.012139 0.009675 0.000179
v 0.012095 0.009675 0.000246
v 0.012137 0.009675 0.000174
v 0.012095 0.009675 0.000246
v 0.012135 0.009675 0.000170
v 0.012137 0.009675 0.000174
v 0.012141 0.009675 0.000183
v 0.012095 0.009675 0.000246
v 0.012139 0.009675 0.000179
v 0.012142 0.009675 0.000188
v 0.012095 0.009675 0.000246
v 0.012141 0.009675 0.000183
v 0.012143 0.009675 0.000192
v 0.012095 0.009675 0.000246
v 0.012142 0.009675 0.000188
v 0.012143 0.009675 0.000197
v 0.012095 0.009675 0.000246
v 0.012143 0.009675 0.000192
v 0.012143 0.009675 0.000202
v 0.012095 0.009675 0.000246
v 0.012143 0.009675 0.000197
v 0.012143 0.009675 0.000202
v 0.012142 0.009675 0.000207
v 0.012095 0.009675 0.000246
v 0.012142 0.009675 0.000207
v 0.012141 0.009675 0.000211
v 0.012095 0.009675 0.000246
v 0.012141 0.009675 0.000211
v 0.012139 0.009675 0.000216
v 0.012095 0.009675 0.000246
v 0.012139 0.009675 0.000216
v 0.012137 0.009675 0.000220
v 0.012095 0.009675 0.000246
v 0.012137 0.009675 0.000220
v 0.012135 0.009675 0.000224
v 0.012095 0.009675 0.000246
v 0.012135 0.009675 0.000224
v 0.012132 0.009675 0.000228
v 0.012095 0.009675 0.000246
v 0.012132 0.009675 0.000228
v 0.012129 0.009675 0.000231
v 0.012095 0.009675 0.000246
v 0.012129 0.009675 0.000231
v 0.012125 0.009675 0.000235
v 0.012095 0.009675 0.000246
v 0.012095 0.009675 0.000246
v 0.012122 0.009675 0.000237
v 0.012117 0.009675 0.000240
v 0.012125 0.009675 0.000235
v 0.012122 0.009675 0.000237
v 0.012095 0.009675 0.000246
v 0.012095 0.009675 0.000246
v 0.012117 0.009675 0.000240
v 0.012113 0.009675 0.000242
v 0.012095 0.009675 0.000246
v 0.012113 0.009675 0.000242
v 0.012109 0.009675 0.000244
v 0.012095 0.009675 0.000246
v 0.012109 0.009675 0.000244
v 0.012104 0.009675 0.000245
v 0.012095 0.009675 0.000246
v 0.012104 0.009675 0.000245
v 0.012099 0.009675 0.000245
v 0.012090 0.009675 0.000149
v 0.012095 0.009675 0.000246
v 0.012085 0.009675 0.000150
vn -0.0980 -0.0000 0.9952
vn -0.0000 -0.0000 1.0000
vn -0.0981 -0.0000 0.9952
vn -0.1951 -0.0000 0.9808
vn -0.2903 -0.0000 0.9569
vn -0.3827 -0.0000 0.9239
vn -0.4714 -0.0000 0.8819
vn -0.5556 -0.0000 0.8315
vn -0.6344 -0.0000 0.7730
vn -0.7071 -0.0000 0.7071
vn -0.7730 -0.0000 0.6344
vn -0.8315 -0.0000 0.5556
vn -0.8819 -0.0000 0.4714
vn -0.9239 -0.0000 0.3827
vn -0.9569 -0.0000 0.2903
vn -0.9808 -0.0000 0.1951
vn -0.9952 -0.0000 0.0981
vn -0.9952 -0.0000 0.0982
vn -1.0000 -0.0000 -0.0000
vn -0.9952 -0.0000 -0.0980
vn -0.9808 -0.0000 -0.1951
vn -0.9569 -0.0000 -0.2903
vn -0.9239 -0.0000 -0.3827
vn -0.8819 -0.0000 -0.4714
vn -0.8315 -0.0000 -0.5556
vn -0.7730 -0.0000 -0.6344
vn -0.6344 -0.0000 -0.7730
vn -0.5556 -0.0000 -0.8315
vn -0.4714 -0.0000 -0.8819
vn -0.0000 -0.0000 -1.0000
vn -0.0980 -0.0000 -0.9952
vn 0.0982 -0.0000 -0.9952
vn 0.0980 -0.0000 -0.9952
vn 0.1952 -0.0000 -0.9808
vn 0.2903 -0.0000 -0.9569
vn 0.3827 -0.0000 -0.9239
vn 0.4714 -0.0000 -0.8819
vn 0.5556 -0.0000 -0.8314
vn 0.5556 -0.0000 -0.8315
vn 0.6344 -0.0000 -0.7730
vn 0.7071 -0.0000 -0.7071
vn 0.7730 -0.0000 -0.6344
vn 0.8315 -0.0000 -0.5556
vn 0.8819 -0.0000 -0.4714
vn 0.9239 -0.0000 -0.3827
vn 0.9569 -0.0000 -0.2903
vn 0.9808 -0.0000 -0.1951
vn 0.9952 -0.0000 -0.0980
vn 1.0000 -0.0000 -0.0000
vn 0.9952 -0.0000 0.0982
vn 0.9952 -0.0000 0.0981
vn 0.9808 -0.0000 0.1951
vn 0.9569 -0.0000 0.2903
vn 0.9239 -0.0000 0.3827
vn 0.8819 -0.0000 0.4714
vn 0.8315 -0.0000 0.5556
vn 0.7730 -0.0000 0.6344
vn 0.7071 -0.0000 0.7071
vn 0.0980 -0.0000 0.9952
vn 0.1951 -0.0000 0.9808
vn 0.2903 -0.0000 0.9569
vn 0.3827 -0.0000 0.9239
vn 0.4714 -0.0000 0.8819
vn 0.5556 -0.0000 0.8315
vn 0.6343 -0.0000 0.7731
vn -0.1951 -0.0000 -0.9808
vn -0.2903 -0.0000 -0.9569
vn -0.3827 -0.0000 -0.9239
vn -0.7071 -0.0000 -0.7071
vn -0.0000 1.0000 -0.0000
vn -0.0000 1.0000 -0.0001
vn -0.0000 1.0000 0.0001
vn -0.0000 1.0000 0.0002
vn -0.0000 1.0000 -0.0002
vn -0.0000 -1.0000 0.0001
vn -0.0000 -1.0000 -0.0000
vn -0.0000 -1.0000 -0.0001
vn -0.0000 -1.0000 -0.0002
vn -0.0000 -1.0000 0.0002
vt -0.000000 -0.047538
vt -0.000000 0.000000
vt -0.500000 -0.047538
vt -0.000000 -0.094619
vt -0.000000 -0.140788
vt -0.500000 -0.094619
vt -0.500000 -0.140788
vt -0.500000 -0.185601
vt -0.000000 -0.185601
vt -0.000000 -0.228627
vt -0.500000 -0.228627
vt -0.000000 -0.269452
vt -0.500000 -0.269452
vt -0.500000 -0.307681
vt -0.000000 -0.307681
vt -0.000000 -0.342947
vt 0.342947 0.000000
vt 0.342947 0.500000
vt 0.307681 0.000000
vt 0.307681 0.500000
vt 0.269452 0.000000
vt 0.269452 0.500000
vt 0.228627 0.000000
vt 0.185601 0.000000
vt 0.228627 0.500000
vt 0.185601 0.500000
vt 0.140788 0.500000
vt 0.140788 0.000000
vt 0.094619 0.000000
vt 0.094619 0.500000
vt 0.047538 0.000000
vt 0.047538 0.500000
vt 0.000000 0.500000
vt -0.047538 0.000000
vt -0.047538 0.500000
vt -0.094619 0.000000
vt -0.094619 0.500000
vt -0.140788 0.000000
vt -0.140788 0.500000
vt -0.185601 0.000000
vt -0.228627 0.000000
vt -0.185601 0.500000
vt -0.228627 0.500000
vt -0.269452 0.500000
vt -0.269452 0.000000
vt -0.307681 0.000000
vt 0.500000 -0.307681
vt 0.500000 -0.269452
vt 0.500000 -0.047538
vt 0.500000 0.000000
vt 0.000000 0.047538
vt 0.500000 0.047538
vt 0.000000 0.094619
vt 0.500000 0.094619
vt 0.000000 0.140788
vt 0.500000 0.140788
vt 0.000000 0.185601
vt 0.000000 0.228627
vt 0.500000 0.185601
vt 0.000000 0.269452
vt 0.500000 0.228627
vt 0.500000 0.269452
vt 0.500000 0.307681
vt 0.000000 0.307681
vt 0.000000 0.342947
vt -0.342947 0.000000
vt -0.307681 0.500000
vt -0.342947 0.500000
vt -0.500000 0.000000
vt -0.500000 0.047538
vt -0.500000 0.094619
vt -0.500000 0.140788
vt -0.500000 0.185601
vt -0.500000 0.228627
vt -0.500000 0.269452
vt -0.500000 0.307681
vt -0.500000 0.342947
vt 0.500000 0.342947
vt 0.500000 -0.094619
vt 0.500000 -0.140788
vt 0.500000 -0.185601
vt 0.500000 -0.228627
vt 0.500000 -0.342947
vt -0.500000 -0.342947
vt 0.475681 -0.094619
vt 0.482665 -0.047538
vt 0.485000 0.000000
vt 0.464116 -0.140788
vt 0.448082 -0.185601
vt 0.427732 -0.228627
vt 0.403263 -0.269452
vt 0.374910 -0.307681
vt 0.342947 -0.342947
vt 0.307681 -0.374910
vt 0.269452 -0.403263
vt 0.228627 -0.427732
vt 0.185601 -0.448082
vt 0.140788 -0.464116
vt 0.094619 -0.475681
vt 0.047538 -0.482665
vt 0.000000 -0.485000
vt -0.047538 -0.482665
vt -0.094619 -0.475681
vt -0.140788 -0.464116
vt -0.185601 -0.448082
vt -0.228627 -0.427732
vt -0.269452 -0.403263
vt -0.307681 -0.374910
vt -0.342947 -0.342947
vt -0.374910 -0.307681
vt -0.403263 -0.269452
vt -0.448082 -0.185601
vt -0.427732 -0.228627
vt -0.464116 -0.140788
vt -0.475681 -0.094619
vt -0.482665 -0.047538
vt -0.485000 0.000000
vt -0.482665 0.047538
vt -0.475681 0.094619
vt -0.464116 0.140788
vt -0.448082 0.185601
vt -0.427732 0.228627
vt -0.403263 0.269452
vt -0.374910 0.307681
vt -0.342947 0.342947
vt -0.307681 0.374910
vt -0.269452 0.403263
vt -0.185601 0.448082
vt -0.228627 0.427732
vt -0.140788 0.464116
vt -0.094619 0.475681
vt -0.047538 0.482665
vt 0.000000 0.485000
vt 0.047538 0.482665
vt 0.094619 0.475681
vt 0.140788 0.464116
vt 0.185601 0.448082
vt 0.228627 0.427732
vt 0.269452 0.403263
vt 0.307681 0.374910
vt 0.342947 0.342947
vt 0.374910 0.307681
vt 0.427732 0.228627
vt 0.403263 0.269452
vt 0.448082 0.185601
vt 0.464116 0.140788
vt 0.475681 0.094619
vt 0.482665 0.047538
s 1
usemtl Diffuse_51_51_51_100.046
f 1/1/1 2/2/2 3/3/3
f 4/4/4 1/1/1 3/3/3
f 5/5/5 4/4/4 6/6/4
f 7/7/5 5/5/5 6/6/4
f 8/8/6 9/9/6 7/7/5
f 8/8/6 10/10/7 9/9/6
f 11/11/7 12/12/8 10/10/7
f 11/11/7 13/13/8 12/12/8
f 13/13/8 14/14/9 15/15/9
f 15/15/9 14/14/9 16/16/10
f 16/17/10 17/18/10 18/19/11
f 18/19/11 17/18/10 19/20/11
f 20/21/12 19/20/11 21/22/12
f 22/23/13 20/21/12 21/22/12
f 23/24/14 22/23/13 24/25/13
f 25/26/14 23/24/14 24/25/13
f 26/27/15 27/28/15 25/26/14
f 26/27/15 28/29/16 27/28/15
f 29/30/16 30/31/17 28/29/16
f 29/30/16 31/32/18 30/31/17
f 31/32/18 32/33/19 33/2/19
f 33/2/19 32/33/19 34/34/20
f 34/34/20 35/35/20 36/36/21
f 36/36/21 35/35/20 37/37/21
f 38/38/22 37/37/21 39/39/22
f 40/40/23 38/38/22 39/39/22
f 41/41/24 40/40/23 42/42/23
f 43/43/24 41/41/24 42/42/23
f 44/44/25 45/45/25 43/43/24
f 44/44/25 46/46/26 45/45/25
f 47/47/27 48/48/28 49/12/28
f 48/48/28 50/10/29 49/12/28
f 51/2/30 52/49/31 53/50/30
f 51/2/30 53/50/30 54/51/32
f 54/51/32 55/52/33 56/53/34
f 56/53/34 55/52/33 57/54/34
f 58/55/35 57/54/34 59/56/35
f 60/57/36 58/55/35 59/56/35
f 61/58/37 60/57/36 62/59/36
f 63/60/38 61/58/37 64/61/37
f 65/62/39 63/60/38 64/61/37
f 66/63/40 67/64/40 65/62/39
f 66/63/40 68/65/41 67/64/40
f 69/18/41 70/19/42 68/17/41
f 69/18/41 71/20/42 70/19/42
f 71/20/42 72/22/43 73/21/43
f 73/21/43 72/22/43 74/23/44
f 74/23/44 75/25/44 76/24/45
f 76/24/45 75/25/44 77/26/45
f 78/28/46 77/26/45 79/27/46
f 80/29/47 78/28/46 79/27/46
f 81/31/48 80/29/47 82/30/47
f 83/32/48 81/31/48 82/30/47
f 84/33/49 85/2/49 83/32/48
f 84/33/49 86/34/50 85/2/49
f 87/35/51 88/36/52 86/34/50
f 87/35/51 89/37/52 88/36/52
f 89/37/52 90/39/53 91/38/53
f 91/38/53 90/39/53 92/40/54
f 92/40/54 93/42/54 94/41/55
f 94/41/55 93/42/54 95/43/55
f 96/45/56 95/43/55 97/44/56
f 98/46/57 96/45/56 97/44/56
f 99/66/58 98/46/57 100/67/57
f 101/68/58 99/66/58 100/67/57
f 2/2/2 102/69/2 3/3/3
f 103/70/59 2/2/2 104/51/59
f 105/71/60 103/70/59 104/51/59
f 106/53/60 105/71/60 104/51/59
f 106/53/60 107/72/61 105/71/60
f 106/53/60 108/55/61 107/72/61
f 107/72/61 108/55/61 109/73/62
f 109/73/62 108/55/61 110/57/62
f 111/74/63 109/73/62 110/57/62
f 112/58/63 111/74/63 110/57/62
f 112/58/63 113/75/64 111/74/63
f 112/58/63 114/60/64 113/75/64
f 113/75/64 114/60/64 115/76/65
f 115/76/65 114/60/64 116/64/65
f 101/77/58 115/76/65 116/64/65
f 99/65/58 101/77/58 116/64/65
f 97/44/56 100/67/57 98/46/57
f 95/43/55 96/45/56 94/41/55
f 93/42/54 92/40/54 90/39/53
f 91/38/53 88/36/52 89/37/52
f 86/34/50 84/33/49 87/35/51
f 81/31/48 83/32/48 85/2/49
f 79/27/46 82/30/47 80/29/47
f 77/26/45 78/28/46 76/24/45
f 75/25/44 74/23/44 72/22/43
f 73/21/43 70/19/42 71/20/42
f 68/65/41 66/63/40 69/78/41
f 63/60/38 65/62/39 67/64/40
f 62/59/36 64/61/37 61/58/37
f 59/56/35 62/59/36 60/57/36
f 57/54/34 58/55/35 56/53/34
f 55/52/33 54/51/32 53/50/30
f 103/70/59 102/69/2 2/2/2
f 52/49/31 51/2/30 117/1/31
f 118/79/66 52/49/31 117/1/31
f 119/4/66 118/79/66 117/1/31
f 119/4/66 120/80/67 118/79/66
f 119/4/66 121/5/67 120/80/67
f 120/80/67 121/5/67 122/81/68
f 122/81/68 121/5/67 123/9/68
f 124/82/29 122/81/68 123/9/68
f 50/10/29 124/82/29 123/9/68
f 50/10/29 48/48/28 124/82/29
f 49/12/28 125/15/27 47/47/27
f 47/47/27 125/15/27 126/83/69
f 126/83/69 125/15/27 127/16/69
f 128/67/26 126/68/69 127/66/69
f 46/46/26 128/67/26 127/66/69
f 46/46/26 44/44/25 128/67/26
f 41/41/24 43/43/24 45/45/25
f 39/39/22 42/42/23 40/40/23
f 37/37/21 38/38/22 36/36/21
f 35/35/20 34/34/20 32/33/19
f 33/2/19 30/31/17 31/32/18
f 28/29/16 26/27/15 29/30/16
f 23/24/14 25/26/14 27/28/15
f 21/22/12 24/25/13 22/23/13
f 19/20/11 20/21/12 18/19/11
f 17/84/10 16/16/10 14/14/9
f 15/15/9 12/12/8 13/13/8
f 10/10/7 8/8/6 11/11/7
f 5/5/5 7/7/5 9/9/6
f 3/3/3 6/6/4 4/4/4
f 129/85/70 130/86/70 131/87/71
f 132/88/70 133/85/70 134/87/70
f 135/89/72 136/88/72 137/87/72
f 138/90/70 139/89/70 140/87/70
f 141/91/70 142/90/70 143/87/70
f 144/92/70 145/91/70 146/87/70
f 147/93/70 148/92/70 149/87/70
f 150/94/70 151/93/70 152/87/70
f 153/95/70 154/94/70 155/87/70
f 156/96/70 157/95/70 158/87/70
f 159/97/70 160/96/70 161/87/70
f 162/98/70 163/87/70 164/99/70
f 165/98/70 166/97/70 167/87/70
f 168/99/70 169/87/70 170/100/70
f 171/100/70 172/87/70 173/101/70
f 174/101/70 175/87/70 176/102/70
f 177/102/70 178/87/70 179/103/70
f 180/87/71 181/104/71 182/103/71
f 183/87/72 184/105/72 185/104/72
f 186/87/70 187/106/70 188/105/70
f 189/87/71 190/107/71 191/106/71
f 192/87/70 193/108/70 194/107/70
f 195/87/70 196/109/70 197/108/70
f 198/87/71 199/110/71 200/109/71
f 201/87/72 202/111/72 203/110/72
f 204/112/70 205/113/70 206/87/70
f 207/87/70 208/113/70 209/111/70
f 210/114/70 211/112/70 212/87/70
f 213/115/71 214/114/71 215/87/71
f 216/116/70 217/87/70 218/117/70
f 219/117/70 220/87/70 221/118/70
f 222/118/70 223/87/70 224/119/70
f 225/87/70 226/120/70 227/119/70
f 228/87/70 229/121/70 230/120/70
f 231/87/70 232/122/70 233/121/70
f 234/87/70 235/123/70 236/122/70
f 237/87/70 238/124/70 239/123/70
f 240/87/72 241/125/72 242/124/72
f 243/87/70 244/126/70 245/125/70
f 246/87/73 247/127/73 248/126/73
f 249/128/70 250/129/70 251/87/70
f 252/87/72 253/129/72 254/127/72
f 255/130/70 256/128/70 257/87/70
f 258/131/70 259/130/70 260/87/70
f 261/132/74 262/131/74 263/87/74
f 264/133/70 265/132/70 266/87/70
f 267/134/70 268/133/70 269/87/70
f 270/134/70 271/87/70 272/135/70
f 273/135/70 274/87/70 275/136/70
f 276/136/70 277/87/70 278/137/70
f 279/137/70 280/87/70 281/138/70
f 282/138/72 283/87/72 284/139/72
f 285/139/70 286/87/70 287/140/70
f 288/140/70 289/87/70 290/141/70
f 291/141/70 292/87/70 293/142/70
f 294/87/74 295/143/74 296/144/74
f 297/142/70 298/87/70 299/144/70
f 300/87/70 301/145/70 302/143/70
f 303/87/70 304/146/70 305/145/70
f 306/87/70 307/147/70 308/146/70
f 309/87/70 310/148/70 311/147/70
f 312/116/70 313/115/70 314/87/70
f 315/115/75 316/117/75 317/116/76
f 318/114/76 319/117/76 320/115/76
f 321/112/76 322/117/76 323/114/76
f 324/113/76 325/117/76 326/112/76
f 327/111/76 328/117/76 329/113/76
f 330/110/76 331/117/76 332/111/76
f 333/109/76 334/117/76 335/110/76
f 336/108/76 337/117/76 338/109/76
f 339/107/76 340/117/76 341/108/76
f 342/106/76 343/117/76 344/107/76
f 345/105/76 346/117/76 347/106/76
f 348/104/76 349/103/76 350/117/76
f 351/104/76 352/117/76 353/105/76
f 354/103/77 355/102/77 356/117/77
f 357/102/76 358/101/76 359/117/76
f 360/101/76 361/100/76 362/117/76
f 363/100/78 364/99/78 365/117/78
f 366/117/75 367/99/75 368/98/75
f 369/117/77 370/98/77 371/97/77
f 372/117/78 373/97/78 374/96/78
f 375/117/77 376/96/77 377/95/77
f 378/117/76 379/95/76 380/94/76
f 381/117/76 382/94/76 383/93/76
f 384/117/77 385/93/77 386/92/77
f 387/117/75 388/92/75 389/91/75
f 390/89/76 391/117/76 392/90/76
f 393/117/76 394/91/76 395/90/76
f 396/88/76 397/117/76 398/89/76
f 399/85/76 400/117/76 401/88/76
f 402/86/76 403/87/76 404/117/76
f 405/87/76 406/148/76 407/117/76
f 408/148/76 409/147/76 410/117/76
f 411/117/76 412/147/76 413/146/76
f 414/117/76 415/146/76 416/145/76
f 417/117/76 418/145/76 419/143/76
f 420/117/76 421/143/76 422/144/76
f 423/117/76 424/144/76 425/142/76
f 426/117/75 427/142/75 428/141/75
f 429/117/76 430/141/76 431/140/76
f 432/117/79 433/140/79 434/139/79
f 435/137/76 436/117/76 437/138/76
f 438/117/75 439/139/75 440/138/75
f 441/136/76 442/117/76 443/137/76
f 444/135/76 445/117/76 446/136/76
f 447/134/76 448/117/76 449/135/76
f 450/133/76 451/117/76 452/134/76
f 453/132/76 454/117/76 455/133/76
f 456/132/76 457/131/76 458/117/76
f 459/131/76 460/130/76 461/117/76
f 462/130/76 463/128/76 464/117/76
f 465/128/76 466/129/76 467/117/76
f 468/129/75 469/127/75 470/117/75
f 471/127/76 472/126/76 473/117/76
f 474/126/76 475/125/76 476/117/76
f 477/125/76 478/124/76 479/117/76
f 480/117/79 481/123/79 482/122/79
f 483/124/76 484/123/76 485/117/76
f 486/117/76 487/122/76 488/121/76
f 489/117/76 490/121/76 491/120/76
f 492/117/76 493/120/76 494/119/76
f 495/117/76 496/119/76 497/118/76
f 498/86/76 499/117/76 500/85/76
