# Blender 4.4.3
# www.blender.org
mtllib Mesh_7.003.mtl
o Mesh_7.003
v 0.011672 0.009796 -0.014653
v 0.011670 0.009771 -0.014653
v 0.011660 0.009753 -0.014653
v 0.011657 0.009754 -0.014652
v 0.011663 0.009799 -0.014651
v 0.011668 0.009797 -0.014652
v 0.011653 0.009755 -0.014651
v 0.011659 0.009800 -0.014649
v 0.011650 0.009756 -0.014650
v 0.011643 0.009758 -0.014647
v 0.011646 0.009757 -0.014649
v 0.011654 0.009801 -0.014647
v 0.011640 0.009759 -0.014646
v 0.011650 0.009802 -0.014644
v 0.011637 0.009759 -0.014644
v 0.011647 0.009804 -0.014641
v 0.011634 0.009760 -0.014641
v 0.011632 0.009761 -0.014639
v 0.011643 0.009805 -0.014638
v 0.011629 0.009762 -0.014636
v 0.011640 0.009805 -0.014635
v 0.011627 0.009762 -0.014634
v 0.011637 0.009806 -0.014631
v 0.011625 0.009763 -0.014631
v 0.011635 0.009807 -0.014626
v 0.011623 0.009764 -0.014627
v 0.011621 0.009764 -0.014624
v 0.011620 0.009764 -0.014621
v 0.011633 0.009808 -0.014622
v 0.011619 0.009765 -0.014617
v 0.011631 0.009808 -0.014617
v 0.011618 0.009765 -0.014614
v 0.011617 0.009765 -0.014610
v 0.011630 0.009808 -0.014613
v 0.011617 0.009765 -0.014607
v 0.011629 0.009809 -0.014608
v 0.011629 0.009809 -0.014603
v 0.011617 0.009765 -0.014603
v 0.011629 0.009809 -0.014598
v 0.011617 0.009765 -0.014598
v 0.011630 0.009808 -0.014593
v 0.011618 0.009765 -0.014593
v 0.011631 0.009808 -0.014588
v 0.011619 0.009765 -0.014588
v 0.011633 0.009808 -0.014584
v 0.011620 0.009764 -0.014584
v 0.011635 0.009807 -0.014579
v 0.011637 0.009806 -0.014575
v 0.011622 0.009764 -0.014579
v 0.011640 0.009805 -0.014571
v 0.011625 0.009763 -0.014575
v 0.011628 0.009762 -0.014571
v 0.011631 0.009761 -0.014567
v 0.011643 0.009805 -0.014567
v 0.011677 0.009795 -0.014653
v 0.011660 0.009753 -0.014553
v 0.011670 0.009771 -0.014553
v 0.011672 0.009796 -0.014553
v 0.011677 0.009795 -0.014553
v 0.011655 0.009754 -0.014554
v 0.011668 0.009797 -0.014554
v 0.011651 0.009756 -0.014555
v 0.011663 0.009799 -0.014555
v 0.011646 0.009757 -0.014557
v 0.011659 0.009800 -0.014557
v 0.011642 0.009758 -0.014559
v 0.011654 0.009801 -0.014559
v 0.011638 0.009759 -0.014561
v 0.011650 0.009802 -0.014561
v 0.011634 0.009760 -0.014564
v 0.011647 0.009804 -0.014564
v 0.011664 0.009752 -0.014653
v 0.011667 0.009751 -0.014653
v 0.011675 0.009769 -0.014653
v 0.011671 0.009750 -0.014652
v 0.011680 0.009768 -0.014652
v 0.011674 0.009749 -0.014652
v 0.011678 0.009748 -0.014651
v 0.011684 0.009767 -0.014651
v 0.011681 0.009747 -0.014650
v 0.011689 0.009765 -0.014649
v 0.011684 0.009746 -0.014649
v 0.011693 0.009764 -0.014647
v 0.011687 0.009745 -0.014647
v 0.011690 0.009744 -0.014645
v 0.011697 0.009763 -0.014644
v 0.011693 0.009743 -0.014643
v 0.011701 0.009762 -0.014641
v 0.011696 0.009743 -0.014641
v 0.011704 0.009761 -0.014638
v 0.011699 0.009742 -0.014638
v 0.011703 0.009740 -0.014633
v 0.011707 0.009760 -0.014635
v 0.011710 0.009759 -0.014631
v 0.011710 0.009739 -0.014620
v 0.011716 0.009758 -0.014617
v 0.011711 0.009738 -0.014616
v 0.011715 0.009758 -0.014622
v 0.011713 0.009738 -0.014605
v 0.011712 0.009738 -0.014609
v 0.011718 0.009757 -0.014608
v 0.011717 0.009757 -0.014613
v 0.011713 0.009738 -0.014602
v 0.011718 0.009757 -0.014603
v 0.011718 0.009757 -0.014598
v 0.011713 0.009738 -0.014598
v 0.011712 0.009738 -0.014594
v 0.011717 0.009757 -0.014593
v 0.011711 0.009738 -0.014591
v 0.011716 0.009758 -0.014588
v 0.011710 0.009738 -0.014587
v 0.011715 0.009758 -0.014584
v 0.011708 0.009739 -0.014580
v 0.011709 0.009739 -0.014584
v 0.011713 0.009759 -0.014579
v 0.011710 0.009759 -0.014575
v 0.011706 0.009740 -0.014577
v 0.011704 0.009740 -0.014574
v 0.011707 0.009760 -0.014571
v 0.011700 0.009742 -0.014568
v 0.011702 0.009741 -0.014571
v 0.011704 0.009761 -0.014567
v 0.011701 0.009762 -0.014564
v 0.011697 0.009742 -0.014566
v 0.011694 0.009743 -0.014563
v 0.011697 0.009763 -0.014561
v 0.011691 0.009744 -0.014561
v 0.011688 0.009745 -0.014559
v 0.011693 0.009764 -0.014559
v 0.011685 0.009746 -0.014558
v 0.011689 0.009765 -0.014557
v 0.011682 0.009747 -0.014556
v 0.011684 0.009767 -0.014555
v 0.011665 0.009752 -0.014553
v 0.011668 0.009751 -0.014553
v 0.011675 0.009769 -0.014553
v 0.011672 0.009750 -0.014553
v 0.011680 0.009768 -0.014554
v 0.011675 0.009749 -0.014554
v 0.011679 0.009748 -0.014555
v 0.011712 0.009738 -0.014613
v 0.011709 0.009739 -0.014623
v 0.011713 0.009759 -0.014626
v 0.011707 0.009739 -0.014626
v 0.011705 0.009740 -0.014630
v 0.011701 0.009741 -0.014635
v 0.011766 0.009743 -0.014553
v 0.011773 0.009767 -0.014553
v 0.011718 0.009757 -0.014553
v 0.011694 0.009764 -0.014553
v 0.011682 0.009767 -0.014553
v 0.011676 0.009769 -0.014553
v 0.011778 0.009766 -0.014553
v 0.011771 0.009742 -0.014553
v 0.011783 0.009765 -0.014554
v 0.011776 0.009741 -0.014554
v 0.011787 0.009763 -0.014555
v 0.011780 0.009739 -0.014555
v 0.011792 0.009762 -0.014557
v 0.011796 0.009761 -0.014559
v 0.011785 0.009738 -0.014557
v 0.011789 0.009737 -0.014559
v 0.011800 0.009760 -0.014561
v 0.011793 0.009736 -0.014561
v 0.011804 0.009758 -0.014564
v 0.011797 0.009734 -0.014564
v 0.011807 0.009757 -0.014567
v 0.011800 0.009733 -0.014567
v 0.011810 0.009757 -0.014571
v 0.011804 0.009733 -0.014571
v 0.011806 0.009732 -0.014575
v 0.011813 0.009756 -0.014575
v 0.011809 0.009731 -0.014579
v 0.011816 0.009755 -0.014579
v 0.011811 0.009730 -0.014584
v 0.011818 0.009754 -0.014584
v 0.011812 0.009730 -0.014588
v 0.011819 0.009754 -0.014588
v 0.011814 0.009730 -0.014593
v 0.011821 0.009754 -0.014598
v 0.011820 0.009754 -0.014593
v 0.011814 0.009729 -0.014598
v 0.011821 0.009753 -0.014603
v 0.011814 0.009729 -0.014603
v 0.011821 0.009754 -0.014608
v 0.011814 0.009729 -0.014608
v 0.011820 0.009754 -0.014613
v 0.011814 0.009730 -0.014613
v 0.011819 0.009754 -0.014617
v 0.011812 0.009730 -0.014617
v 0.011818 0.009754 -0.014622
v 0.011811 0.009730 -0.014622
v 0.011816 0.009755 -0.014626
v 0.011809 0.009731 -0.014626
v 0.011813 0.009756 -0.014631
v 0.011806 0.009732 -0.014631
v 0.011804 0.009733 -0.014635
v 0.011810 0.009757 -0.014635
v 0.011800 0.009733 -0.014638
v 0.011807 0.009757 -0.014638
v 0.011797 0.009734 -0.014641
v 0.011804 0.009758 -0.014641
v 0.011793 0.009736 -0.014644
v 0.011800 0.009760 -0.014644
v 0.011789 0.009737 -0.014647
v 0.011796 0.009761 -0.014647
v 0.011792 0.009762 -0.014649
v 0.011785 0.009738 -0.014649
v 0.011787 0.009763 -0.014651
v 0.011766 0.009743 -0.014653
v 0.011773 0.009767 -0.014653
v 0.011771 0.009742 -0.014653
v 0.011778 0.009766 -0.014653
v 0.011776 0.009741 -0.014652
v 0.011783 0.009765 -0.014652
v 0.011780 0.009739 -0.014651
v 0.011676 0.009769 -0.014653
v 0.011718 0.009757 -0.014653
v 0.011694 0.009764 -0.014653
v 0.011682 0.009767 -0.014653
v 0.011773 0.009767 -0.014553
v 0.011773 0.009767 -0.014653
v 0.011677 0.009795 -0.014653
v 0.011773 0.009767 -0.014553
v 0.011778 0.009766 -0.014653
v 0.011773 0.009767 -0.014653
v 0.011773 0.009767 -0.014553
v 0.011783 0.009765 -0.014652
v 0.011778 0.009766 -0.014653
v 0.011773 0.009767 -0.014553
v 0.011787 0.009763 -0.014651
v 0.011783 0.009765 -0.014652
v 0.011773 0.009767 -0.014553
v 0.011792 0.009762 -0.014649
v 0.011787 0.009763 -0.014651
v 0.011773 0.009767 -0.014553
v 0.011796 0.009761 -0.014647
v 0.011792 0.009762 -0.014649
v 0.011773 0.009767 -0.014553
v 0.011800 0.009760 -0.014644
v 0.011796 0.009761 -0.014647
v 0.011773 0.009767 -0.014553
v 0.011804 0.009758 -0.014641
v 0.011800 0.009760 -0.014644
v 0.011773 0.009767 -0.014553
v 0.011807 0.009757 -0.014638
v 0.011804 0.009758 -0.014641
v 0.011773 0.009767 -0.014553
v 0.011810 0.009757 -0.014635
v 0.011807 0.009757 -0.014638
v 0.011773 0.009767 -0.014553
v 0.011813 0.009756 -0.014631
v 0.011810 0.009757 -0.014635
v 0.011818 0.009754 -0.014622
v 0.011816 0.009755 -0.014626
v 0.011773 0.009767 -0.014553
v 0.011773 0.009767 -0.014553
v 0.011816 0.009755 -0.014626
v 0.011813 0.009756 -0.014631
v 0.011819 0.009754 -0.014617
v 0.011818 0.009754 -0.014622
v 0.011773 0.009767 -0.014553
v 0.011820 0.009754 -0.014613
v 0.011819 0.009754 -0.014617
v 0.011773 0.009767 -0.014553
v 0.011821 0.009754 -0.014608
v 0.011820 0.009754 -0.014613
v 0.011773 0.009767 -0.014553
v 0.011821 0.009753 -0.014603
v 0.011821 0.009754 -0.014608
v 0.011773 0.009767 -0.014553
v 0.011821 0.009754 -0.014598
v 0.011821 0.009753 -0.014603
v 0.011773 0.009767 -0.014553
v 0.011820 0.009754 -0.014593
v 0.011821 0.009754 -0.014598
v 0.011773 0.009767 -0.014553
v 0.011820 0.009754 -0.014593
v 0.011773 0.009767 -0.014553
v 0.011819 0.009754 -0.014588
v 0.011819 0.009754 -0.014588
v 0.011773 0.009767 -0.014553
v 0.011818 0.009754 -0.014584
v 0.011818 0.009754 -0.014584
v 0.011773 0.009767 -0.014553
v 0.011816 0.009755 -0.014579
v 0.011816 0.009755 -0.014579
v 0.011773 0.009767 -0.014553
v 0.011813 0.009756 -0.014575
v 0.011813 0.009756 -0.014575
v 0.011773 0.009767 -0.014553
v 0.011810 0.009757 -0.014571
v 0.011773 0.009767 -0.014553
v 0.011804 0.009758 -0.014564
v 0.011807 0.009757 -0.014567
v 0.011773 0.009767 -0.014553
v 0.011800 0.009760 -0.014561
v 0.011804 0.009758 -0.014564
v 0.011792 0.009762 -0.014557
v 0.011796 0.009761 -0.014559
v 0.011773 0.009767 -0.014553
v 0.011773 0.009767 -0.014553
v 0.011796 0.009761 -0.014559
v 0.011800 0.009760 -0.014561
v 0.011787 0.009763 -0.014555
v 0.011792 0.009762 -0.014557
v 0.011773 0.009767 -0.014553
v 0.011783 0.009765 -0.014554
v 0.011787 0.009763 -0.014555
v 0.011773 0.009767 -0.014553
v 0.011778 0.009766 -0.014553
v 0.011783 0.009765 -0.014554
v 0.011773 0.009767 -0.014553
v 0.011773 0.009767 -0.014553
v 0.011677 0.009795 -0.014653
v 0.011677 0.009795 -0.014553
v 0.011677 0.009795 -0.014553
v 0.011677 0.009795 -0.014653
v 0.011672 0.009796 -0.014553
v 0.011677 0.009795 -0.014653
v 0.011668 0.009797 -0.014554
v 0.011672 0.009796 -0.014553
v 0.011677 0.009795 -0.014653
v 0.011663 0.009799 -0.014555
v 0.011668 0.009797 -0.014554
v 0.011677 0.009795 -0.014653
v 0.011659 0.009800 -0.014557
v 0.011663 0.009799 -0.014555
v 0.011677 0.009795 -0.014653
v 0.011654 0.009801 -0.014559
v 0.011659 0.009800 -0.014557
v 0.011677 0.009795 -0.014653
v 0.011650 0.009802 -0.014561
v 0.011654 0.009801 -0.014559
v 0.011677 0.009795 -0.014653
v 0.011647 0.009804 -0.014564
v 0.011650 0.009802 -0.014561
v 0.011677 0.009795 -0.014653
v 0.011643 0.009805 -0.014567
v 0.011647 0.009804 -0.014564
v 0.011677 0.009795 -0.014653
v 0.011640 0.009805 -0.014571
v 0.011643 0.009805 -0.014567
v 0.011677 0.009795 -0.014653
v 0.011637 0.009806 -0.014575
v 0.011640 0.009805 -0.014571
v 0.011633 0.009808 -0.014584
v 0.011635 0.009807 -0.014579
v 0.011677 0.009795 -0.014653
v 0.011677 0.009795 -0.014653
v 0.011635 0.009807 -0.014579
v 0.011637 0.009806 -0.014575
v 0.011631 0.009808 -0.014588
v 0.011633 0.009808 -0.014584
v 0.011677 0.009795 -0.014653
v 0.011630 0.009808 -0.014593
v 0.011631 0.009808 -0.014588
v 0.011677 0.009795 -0.014653
v 0.011629 0.009809 -0.014598
v 0.011630 0.009808 -0.014593
v 0.011677 0.009795 -0.014653
v 0.011629 0.009809 -0.014603
v 0.011629 0.009809 -0.014598
v 0.011677 0.009795 -0.014653
v 0.011629 0.009809 -0.014608
v 0.011677 0.009795 -0.014653
v 0.011630 0.009808 -0.014613
v 0.011630 0.009808 -0.014613
v 0.011677 0.009795 -0.014653
v 0.011631 0.009808 -0.014617
v 0.011677 0.009795 -0.014653
v 0.011633 0.009808 -0.014622
v 0.011631 0.009808 -0.014617
v 0.011677 0.009795 -0.014653
v 0.011635 0.009807 -0.014626
v 0.011633 0.009808 -0.014622
v 0.011677 0.009795 -0.014653
v 0.011637 0.009806 -0.014631
v 0.011635 0.009807 -0.014626
v 0.011677 0.009795 -0.014653
v 0.011640 0.009805 -0.014635
v 0.011637 0.009806 -0.014631
v 0.011677 0.009795 -0.014653
v 0.011643 0.009805 -0.014638
v 0.011640 0.009805 -0.014635
v 0.011677 0.009795 -0.014653
v 0.011647 0.009804 -0.014641
v 0.011643 0.009805 -0.014638
v 0.011677 0.009795 -0.014653
v 0.011650 0.009802 -0.014644
v 0.011647 0.009804 -0.014641
v 0.011659 0.009800 -0.014649
v 0.011654 0.009801 -0.014647
v 0.011677 0.009795 -0.014653
v 0.011677 0.009795 -0.014653
v 0.011654 0.009801 -0.014647
v 0.011650 0.009802 -0.014644
v 0.011663 0.009799 -0.014651
v 0.011659 0.009800 -0.014649
v 0.011677 0.009795 -0.014653
v 0.011668 0.009797 -0.014652
v 0.011663 0.009799 -0.014651
v 0.011677 0.009795 -0.014653
v 0.011672 0.009796 -0.014653
v 0.011668 0.009797 -0.014652
v 0.011677 0.009795 -0.014653
v 0.011810 0.009757 -0.014571
v 0.011773 0.009767 -0.014553
v 0.011807 0.009757 -0.014567
v 0.011629 0.009809 -0.014608
v 0.011629 0.009809 -0.014603
v 0.011677 0.009795 -0.014653
v 0.011676 0.009769 -0.014553
v 0.011670 0.009771 -0.014553
v 0.011675 0.009769 -0.014553
v 0.011676 0.009769 -0.014553
v 0.011675 0.009769 -0.014553
v 0.011680 0.009768 -0.014554
v 0.011694 0.009764 -0.014553
v 0.011682 0.009767 -0.014553
v 0.011684 0.009767 -0.014555
v 0.011682 0.009767 -0.014553
v 0.011680 0.009768 -0.014554
v 0.011684 0.009767 -0.014555
v 0.011680 0.009768 -0.014652
v 0.011675 0.009769 -0.014653
v 0.011676 0.009769 -0.014653
v 0.011684 0.009767 -0.014651
v 0.011680 0.009768 -0.014652
v 0.011682 0.009767 -0.014653
v 0.011684 0.009767 -0.014651
v 0.011682 0.009767 -0.014653
v 0.011694 0.009764 -0.014653
v 0.011682 0.009767 -0.014553
v 0.011676 0.009769 -0.014553
v 0.011680 0.009768 -0.014554
v 0.011718 0.009757 -0.014553
v 0.011694 0.009764 -0.014553
v 0.011701 0.009762 -0.014564
v 0.011689 0.009765 -0.014557
v 0.011693 0.009764 -0.014559
v 0.011694 0.009764 -0.014553
v 0.011689 0.009765 -0.014557
v 0.011694 0.009764 -0.014553
v 0.011684 0.009767 -0.014555
v 0.011693 0.009764 -0.014559
v 0.011697 0.009763 -0.014561
v 0.011694 0.009764 -0.014553
v 0.011697 0.009763 -0.014561
v 0.011701 0.009762 -0.014564
v 0.011694 0.009764 -0.014553
v 0.011701 0.009762 -0.014564
v 0.011704 0.009761 -0.014567
v 0.011718 0.009757 -0.014553
v 0.011704 0.009761 -0.014567
v 0.011707 0.009760 -0.014571
v 0.011718 0.009757 -0.014553
v 0.011707 0.009760 -0.014571
v 0.011710 0.009759 -0.014575
v 0.011718 0.009757 -0.014553
v 0.011710 0.009759 -0.014575
v 0.011713 0.009759 -0.014579
v 0.011718 0.009757 -0.014553
v 0.011713 0.009759 -0.014579
v 0.011715 0.009758 -0.014584
v 0.011718 0.009757 -0.014553
v 0.011715 0.009758 -0.014584
v 0.011716 0.009758 -0.014588
v 0.011766 0.009743 -0.014553
v 0.011716 0.009758 -0.014588
v 0.011717 0.009757 -0.014593
v 0.011766 0.009743 -0.014553
v 0.011717 0.009757 -0.014593
v 0.011718 0.009757 -0.014598
v 0.011766 0.009743 -0.014553
v 0.011718 0.009757 -0.014598
v 0.011718 0.009757 -0.014603
v 0.011766 0.009743 -0.014553
v 0.011766 0.009743 -0.014653
v 0.011766 0.009743 -0.014553
v 0.011718 0.009757 -0.014603
v 0.011766 0.009743 -0.014653
v 0.011718 0.009757 -0.014603
v 0.011718 0.009757 -0.014608
v 0.011766 0.009743 -0.014653
v 0.011718 0.009757 -0.014608
v 0.011717 0.009757 -0.014613
v 0.011766 0.009743 -0.014653
v 0.011717 0.009757 -0.014613
v 0.011716 0.009758 -0.014617
v 0.011766 0.009743 -0.014653
v 0.011716 0.009758 -0.014617
v 0.011715 0.009758 -0.014622
v 0.011766 0.009743 -0.014653
v 0.011715 0.009758 -0.014622
v 0.011718 0.009757 -0.014653
v 0.011707 0.009760 -0.014635
v 0.011718 0.009757 -0.014653
v 0.011710 0.009759 -0.014631
v 0.011718 0.009757 -0.014653
v 0.011713 0.009759 -0.014626
v 0.011710 0.009759 -0.014631
v 0.011704 0.009761 -0.014638
v 0.011718 0.009757 -0.014653
v 0.011707 0.009760 -0.014635
v 0.011701 0.009762 -0.014641
v 0.011718 0.009757 -0.014653
v 0.011704 0.009761 -0.014638
v 0.011694 0.009764 -0.014653
v 0.011718 0.009757 -0.014653
v 0.011701 0.009762 -0.014641
v 0.011694 0.009764 -0.014653
v 0.011701 0.009762 -0.014641
v 0.011697 0.009763 -0.014644
v 0.011697 0.009763 -0.014644
v 0.011693 0.009764 -0.014647
v 0.011694 0.009764 -0.014653
v 0.011693 0.009764 -0.014647
v 0.011689 0.009765 -0.014649
v 0.011694 0.009764 -0.014653
v 0.011689 0.009765 -0.014649
v 0.011684 0.009767 -0.014651
v 0.011694 0.009764 -0.014653
v 0.011766 0.009743 -0.014553
v 0.011718 0.009757 -0.014553
v 0.011715 0.009758 -0.014584
v 0.011670 0.009771 -0.014653
v 0.011676 0.009769 -0.014653
v 0.011675 0.009769 -0.014653
v 0.011682 0.009767 -0.014653
v 0.011680 0.009768 -0.014652
v 0.011676 0.009769 -0.014653
v 0.011766 0.009743 -0.014653
v 0.011771 0.009742 -0.014653
v 0.011766 0.009743 -0.014553
v 0.011766 0.009743 -0.014553
v 0.011771 0.009742 -0.014653
v 0.011776 0.009741 -0.014652
v 0.011766 0.009743 -0.014553
v 0.011776 0.009741 -0.014652
v 0.011780 0.009739 -0.014651
v 0.011766 0.009743 -0.014553
v 0.011780 0.009739 -0.014651
v 0.011785 0.009738 -0.014649
v 0.011766 0.009743 -0.014553
v 0.011785 0.009738 -0.014649
v 0.011789 0.009737 -0.014647
v 0.011766 0.009743 -0.014553
v 0.011789 0.009737 -0.014647
v 0.011793 0.009736 -0.014644
v 0.011766 0.009743 -0.014553
v 0.011793 0.009736 -0.014644
v 0.011797 0.009734 -0.014641
v 0.011766 0.009743 -0.014553
v 0.011797 0.009734 -0.014641
v 0.011800 0.009733 -0.014638
v 0.011766 0.009743 -0.014553
v 0.011800 0.009733 -0.014638
v 0.011804 0.009733 -0.014635
v 0.011809 0.009731 -0.014626
v 0.011766 0.009743 -0.014553
v 0.011806 0.009732 -0.014631
v 0.011766 0.009743 -0.014553
v 0.011804 0.009733 -0.014635
v 0.011806 0.009732 -0.014631
v 0.011811 0.009730 -0.014622
v 0.011766 0.009743 -0.014553
v 0.011809 0.009731 -0.014626
v 0.011812 0.009730 -0.014617
v 0.011766 0.009743 -0.014553
v 0.011811 0.009730 -0.014622
v 0.011814 0.009730 -0.014613
v 0.011766 0.009743 -0.014553
v 0.011812 0.009730 -0.014617
v 0.011814 0.009729 -0.014608
v 0.011766 0.009743 -0.014553
v 0.011814 0.009730 -0.014613
v 0.011814 0.009729 -0.014603
v 0.011766 0.009743 -0.014553
v 0.011814 0.009729 -0.014608
v 0.011814 0.009729 -0.014598
v 0.011766 0.009743 -0.014553
v 0.011814 0.009729 -0.014603
v 0.011814 0.009729 -0.014598
v 0.011814 0.009730 -0.014593
v 0.011766 0.009743 -0.014553
v 0.011814 0.009730 -0.014593
v 0.011812 0.009730 -0.014588
v 0.011766 0.009743 -0.014553
v 0.011766 0.009743 -0.014553
v 0.011811 0.009730 -0.014584
v 0.011809 0.009731 -0.014579
v 0.011766 0.009743 -0.014553
v 0.011809 0.009731 -0.014579
v 0.011806 0.009732 -0.014575
v 0.011766 0.009743 -0.014553
v 0.011806 0.009732 -0.014575
v 0.011804 0.009733 -0.014571
v 0.011766 0.009743 -0.014553
v 0.011804 0.009733 -0.014571
v 0.011800 0.009733 -0.014567
v 0.011766 0.009743 -0.014553
v 0.011800 0.009733 -0.014567
v 0.011797 0.009734 -0.014564
v 0.011766 0.009743 -0.014553
v 0.011797 0.009734 -0.014564
v 0.011793 0.009736 -0.014561
v 0.011785 0.009738 -0.014557
v 0.011766 0.009743 -0.014553
v 0.011789 0.009737 -0.014559
v 0.011766 0.009743 -0.014553
v 0.011793 0.009736 -0.014561
v 0.011789 0.009737 -0.014559
v 0.011780 0.009739 -0.014555
v 0.011766 0.009743 -0.014553
v 0.011785 0.009738 -0.014557
v 0.011776 0.009741 -0.014554
v 0.011766 0.009743 -0.014553
v 0.011780 0.009739 -0.014555
v 0.011771 0.009742 -0.014553
v 0.011766 0.009743 -0.014553
v 0.011776 0.009741 -0.014554
v 0.011713 0.009759 -0.014626
v 0.011718 0.009757 -0.014653
v 0.011715 0.009758 -0.014622
v 0.011811 0.009730 -0.014584
v 0.011766 0.009743 -0.014553
v 0.011812 0.009730 -0.014588
v 0.011655 0.009754 -0.014554
v 0.011665 0.009752 -0.014553
v 0.011660 0.009753 -0.014553
v 0.011651 0.009756 -0.014555
v 0.011665 0.009752 -0.014553
v 0.011655 0.009754 -0.014554
v 0.011646 0.009757 -0.014557
v 0.011665 0.009752 -0.014553
v 0.011651 0.009756 -0.014555
v 0.011642 0.009758 -0.014559
v 0.011665 0.009752 -0.014553
v 0.011646 0.009757 -0.014557
v 0.011638 0.009759 -0.014561
v 0.011665 0.009752 -0.014553
v 0.011642 0.009758 -0.014559
v 0.011634 0.009760 -0.014564
v 0.011665 0.009752 -0.014553
v 0.011638 0.009759 -0.014561
v 0.011631 0.009761 -0.014567
v 0.011665 0.009752 -0.014553
v 0.011634 0.009760 -0.014564
v 0.011628 0.009762 -0.014571
v 0.011665 0.009752 -0.014553
v 0.011631 0.009761 -0.014567
v 0.011625 0.009763 -0.014575
v 0.011665 0.009752 -0.014553
v 0.011628 0.009762 -0.014571
v 0.011622 0.009764 -0.014579
v 0.011665 0.009752 -0.014553
v 0.011625 0.009763 -0.014575
v 0.011620 0.009764 -0.014584
v 0.011665 0.009752 -0.014553
v 0.011622 0.009764 -0.014579
v 0.011619 0.009765 -0.014588
v 0.011618 0.009765 -0.014593
v 0.011665 0.009752 -0.014553
v 0.011619 0.009765 -0.014588
v 0.011665 0.009752 -0.014553
v 0.011620 0.009764 -0.014584
v 0.011618 0.009765 -0.014593
v 0.011617 0.009765 -0.014598
v 0.011665 0.009752 -0.014553
v 0.011617 0.009765 -0.014598
v 0.011617 0.009765 -0.014603
v 0.011665 0.009752 -0.014553
v 0.011617 0.009765 -0.014603
v 0.011617 0.009765 -0.014607
v 0.011665 0.009752 -0.014553
v 0.011617 0.009765 -0.014607
v 0.011617 0.009765 -0.014610
v 0.011665 0.009752 -0.014553
v 0.011665 0.009752 -0.014553
v 0.011617 0.009765 -0.014610
v 0.011618 0.009765 -0.014614
v 0.011665 0.009752 -0.014553
v 0.011618 0.009765 -0.014614
v 0.011619 0.009765 -0.014617
v 0.011665 0.009752 -0.014553
v 0.011619 0.009765 -0.014617
v 0.011620 0.009764 -0.014621
v 0.011665 0.009752 -0.014553
v 0.011620 0.009764 -0.014621
v 0.011621 0.009764 -0.014624
v 0.011665 0.009752 -0.014553
v 0.011621 0.009764 -0.014624
v 0.011623 0.009764 -0.014627
v 0.011665 0.009752 -0.014553
v 0.011623 0.009764 -0.014627
v 0.011625 0.009763 -0.014631
v 0.011665 0.009752 -0.014553
v 0.011625 0.009763 -0.014631
v 0.011627 0.009762 -0.014634
v 0.011665 0.009752 -0.014553
v 0.011627 0.009762 -0.014634
v 0.011629 0.009762 -0.014636
v 0.011665 0.009752 -0.014553
v 0.011629 0.009762 -0.014636
v 0.011632 0.009761 -0.014639
v 0.011665 0.009752 -0.014553
v 0.011632 0.009761 -0.014639
v 0.011634 0.009760 -0.014641
v 0.011665 0.009752 -0.014553
v 0.011634 0.009760 -0.014641
v 0.011637 0.009759 -0.014644
v 0.011643 0.009758 -0.014647
v 0.011665 0.009752 -0.014553
v 0.011640 0.009759 -0.014646
v 0.011665 0.009752 -0.014553
v 0.011637 0.009759 -0.014644
v 0.011640 0.009759 -0.014646
v 0.011646 0.009757 -0.014649
v 0.011665 0.009752 -0.014553
v 0.011643 0.009758 -0.014647
v 0.011650 0.009756 -0.014650
v 0.011665 0.009752 -0.014553
v 0.011646 0.009757 -0.014649
v 0.011653 0.009755 -0.014651
v 0.011665 0.009752 -0.014553
v 0.011650 0.009756 -0.014650
v 0.011657 0.009754 -0.014652
v 0.011665 0.009752 -0.014553
v 0.011653 0.009755 -0.014651
v 0.011660 0.009753 -0.014653
v 0.011665 0.009752 -0.014553
v 0.011657 0.009754 -0.014652
v 0.011664 0.009752 -0.014653
v 0.011667 0.009751 -0.014653
v 0.011665 0.009752 -0.014553
v 0.011667 0.009751 -0.014653
v 0.011671 0.009750 -0.014652
v 0.011665 0.009752 -0.014553
v 0.011665 0.009752 -0.014553
v 0.011671 0.009750 -0.014652
v 0.011674 0.009749 -0.014652
v 0.011665 0.009752 -0.014553
v 0.011674 0.009749 -0.014652
v 0.011678 0.009748 -0.014651
v 0.011665 0.009752 -0.014553
v 0.011678 0.009748 -0.014651
v 0.011681 0.009747 -0.014650
v 0.011665 0.009752 -0.014553
v 0.011681 0.009747 -0.014650
v 0.011684 0.009746 -0.014649
v 0.011665 0.009752 -0.014553
v 0.011684 0.009746 -0.014649
v 0.011687 0.009745 -0.014647
v 0.011665 0.009752 -0.014553
v 0.011687 0.009745 -0.014647
v 0.011690 0.009744 -0.014645
v 0.011665 0.009752 -0.014553
v 0.011690 0.009744 -0.014645
v 0.011693 0.009743 -0.014643
v 0.011665 0.009752 -0.014553
v 0.011693 0.009743 -0.014643
v 0.011696 0.009743 -0.014641
v 0.011665 0.009752 -0.014553
v 0.011696 0.009743 -0.014641
v 0.011699 0.009742 -0.014638
v 0.011665 0.009752 -0.014553
v 0.011699 0.009742 -0.014638
v 0.011701 0.009741 -0.014635
v 0.011665 0.009752 -0.014553
v 0.011701 0.009741 -0.014635
v 0.011703 0.009740 -0.014633
v 0.011665 0.009752 -0.014553
v 0.011703 0.009740 -0.014633
v 0.011705 0.009740 -0.014630
v 0.011709 0.009739 -0.014623
v 0.011665 0.009752 -0.014553
v 0.011707 0.009739 -0.014626
v 0.011665 0.009752 -0.014553
v 0.011705 0.009740 -0.014630
v 0.011707 0.009739 -0.014626
v 0.011710 0.009739 -0.014620
v 0.011665 0.009752 -0.014553
v 0.011709 0.009739 -0.014623
v 0.011711 0.009738 -0.014616
v 0.011665 0.009752 -0.014553
v 0.011710 0.009739 -0.014620
v 0.011712 0.009738 -0.014613
v 0.011665 0.009752 -0.014553
v 0.011711 0.009738 -0.014616
v 0.011712 0.009738 -0.014609
v 0.011665 0.009752 -0.014553
v 0.011712 0.009738 -0.014613
v 0.011713 0.009738 -0.014605
v 0.011665 0.009752 -0.014553
v 0.011712 0.009738 -0.014609
v 0.011713 0.009738 -0.014602
v 0.011665 0.009752 -0.014553
v 0.011713 0.009738 -0.014605
v 0.011713 0.009738 -0.014598
v 0.011665 0.009752 -0.014553
v 0.011713 0.009738 -0.014602
v 0.011713 0.009738 -0.014598
v 0.011712 0.009738 -0.014594
v 0.011665 0.009752 -0.014553
v 0.011712 0.009738 -0.014594
v 0.011711 0.009738 -0.014591
v 0.011665 0.009752 -0.014553
v 0.011711 0.009738 -0.014591
v 0.011710 0.009738 -0.014587
v 0.011665 0.009752 -0.014553
v 0.011710 0.009738 -0.014587
v 0.011709 0.009739 -0.014584
v 0.011665 0.009752 -0.014553
v 0.011709 0.009739 -0.014584
v 0.011708 0.009739 -0.014580
v 0.011665 0.009752 -0.014553
v 0.011708 0.009739 -0.014580
v 0.011706 0.009740 -0.014577
v 0.011665 0.009752 -0.014553
v 0.011706 0.009740 -0.014577
v 0.011704 0.009740 -0.014574
v 0.011665 0.009752 -0.014553
v 0.011704 0.009740 -0.014574
v 0.011702 0.009741 -0.014571
v 0.011665 0.009752 -0.014553
v 0.011702 0.009741 -0.014571
v 0.011700 0.009742 -0.014568
v 0.011665 0.009752 -0.014553
v 0.011700 0.009742 -0.014568
v 0.011697 0.009742 -0.014566
v 0.011665 0.009752 -0.014553
v 0.011697 0.009742 -0.014566
v 0.011694 0.009743 -0.014563
v 0.011665 0.009752 -0.014553
v 0.011665 0.009752 -0.014553
v 0.011691 0.009744 -0.014561
v 0.011688 0.009745 -0.014559
v 0.011694 0.009743 -0.014563
v 0.011691 0.009744 -0.014561
v 0.011665 0.009752 -0.014553
v 0.011665 0.009752 -0.014553
v 0.011688 0.009745 -0.014559
v 0.011685 0.009746 -0.014558
v 0.011665 0.009752 -0.014553
v 0.011685 0.009746 -0.014558
v 0.011682 0.009747 -0.014556
v 0.011665 0.009752 -0.014553
v 0.011682 0.009747 -0.014556
v 0.011679 0.009748 -0.014555
v 0.011665 0.009752 -0.014553
v 0.011679 0.009748 -0.014555
v 0.011675 0.009749 -0.014554
v 0.011665 0.009752 -0.014553
v 0.011675 0.009749 -0.014554
v 0.011672 0.009750 -0.014553
v 0.011665 0.009752 -0.014553
v 0.011660 0.009753 -0.014653
v 0.011664 0.009752 -0.014653
v 0.011668 0.009751 -0.014553
v 0.011665 0.009752 -0.014553
v 0.011672 0.009750 -0.014553
vn -0.0940 0.0272 -0.9952
vn -0.0000 -0.0000 -1.0000
vn -0.0942 0.0270 -0.9952
vn -0.1643 0.0471 -0.9853
vn -0.2790 0.0801 -0.9569
vn -0.1875 0.0539 -0.9808
vn -0.2336 0.0670 -0.9700
vn -0.3679 0.1055 -0.9239
vn -0.3015 0.0864 -0.9495
vn -0.4321 0.1236 -0.8933
vn -0.4531 0.1300 -0.8819
vn -0.4944 0.1411 -0.8577
vn -0.5340 0.1533 -0.8315
vn -0.5538 0.1585 -0.8174
vn -0.6098 0.1749 -0.7730
vn -0.6628 0.1897 -0.7244
vn -0.6797 0.1950 -0.7071
vn -0.7123 0.2041 -0.6716
vn -0.7431 0.2131 -0.6344
vn -0.7580 0.2171 -0.6151
vn -0.7993 0.2292 -0.5556
vn -0.8477 0.2431 -0.4714
vn -0.8364 0.2395 -0.4931
vn -0.8690 0.2492 -0.4276
vn -0.8969 0.2572 -0.3598
vn -0.8881 0.2547 -0.3827
vn -0.9199 0.2638 -0.2903
vn -0.9198 0.2639 -0.2903
vn -0.9380 0.2686 -0.2193
vn -0.9509 0.2726 -0.1467
vn -0.9428 0.2704 -0.1951
vn -0.9587 0.2749 -0.0736
vn -0.9566 0.2744 -0.0980
vn -0.9613 0.2756 -0.0000
vn -0.9566 0.2743 0.0980
vn -0.9428 0.2703 0.1951
vn -0.9199 0.2638 0.2903
vn -0.8881 0.2547 0.3827
vn -0.8478 0.2431 0.4714
vn -0.7993 0.2292 0.5556
vn -0.7431 0.2131 0.6344
vn -0.7992 0.2292 0.5556
vn -0.6797 0.1949 0.7071
vn -0.0002 -0.0000 -1.0000
vn -0.0942 0.0270 0.9952
vn -0.0000 -0.0000 1.0000
vn -0.1875 0.0538 0.9808
vn -0.2791 0.0803 0.9569
vn -0.2790 0.0800 0.9569
vn -0.3679 0.1055 0.9239
vn -0.4531 0.1299 0.8819
vn -0.5340 0.1531 0.8315
vn -0.5340 0.1532 0.8315
vn -0.6098 0.1749 0.7730
vn -0.0236 0.0068 -0.9997
vn 0.0471 -0.0136 -0.9988
vn 0.0942 -0.0270 -0.9952
vn 0.1176 -0.0337 -0.9925
vn 0.1875 -0.0538 -0.9808
vn 0.2563 -0.0735 -0.9638
vn 0.2790 -0.0800 -0.9569
vn 0.3238 -0.0930 -0.9415
vn 0.3679 -0.1055 -0.9239
vn 0.3896 -0.1118 -0.9142
vn 0.4531 -0.1299 -0.8819
vn 0.5142 -0.1475 -0.8449
vn 0.5341 -0.1531 -0.8315
vn 0.5726 -0.1643 -0.8032
vn 0.6098 -0.1749 -0.7730
vn 0.6279 -0.1800 -0.7572
vn 0.6797 -0.1949 -0.7071
vn 0.7721 -0.2214 -0.5957
vn 0.7430 -0.2131 -0.6344
vn 0.7992 -0.2292 -0.5556
vn 0.9050 -0.2596 -0.3369
vn 0.9199 -0.2638 -0.2903
vn 0.9264 -0.2657 -0.2667
vn 0.8881 -0.2546 -0.3827
vn 0.9601 -0.2754 -0.0491
vn 0.9540 -0.2735 -0.1224
vn 0.9566 -0.2743 -0.0980
vn 0.9428 -0.2703 -0.1951
vn 0.9610 -0.2756 0.0246
vn 0.9613 -0.2756 -0.0000
vn 0.9566 -0.2743 0.0980
vn 0.9471 -0.2716 0.1709
vn 0.9428 -0.2703 0.1951
vn 0.9324 -0.2675 0.2430
vn 0.9199 -0.2638 0.2903
vn 0.9127 -0.2618 0.3137
vn 0.8881 -0.2547 0.3827
vn 0.8586 -0.2463 0.4495
vn 0.8478 -0.2431 0.4714
vn 0.7993 -0.2292 0.5556
vn 0.8245 -0.2365 0.5141
vn 0.7859 -0.2254 0.5758
vn 0.7431 -0.2131 0.6344
vn 0.6962 -0.1998 0.6895
vn 0.6797 -0.1949 0.7071
vn 0.6098 -0.1749 0.7730
vn 0.6455 -0.1852 0.7410
vn 0.5913 -0.1697 0.7884
vn 0.5340 -0.1531 0.8315
vn 0.4738 -0.1359 0.8701
vn 0.4531 -0.1299 0.8819
vn 0.4110 -0.1178 0.9040
vn 0.3679 -0.1055 0.9239
vn 0.3459 -0.0992 0.9330
vn 0.2791 -0.0800 0.9569
vn -0.0001 -0.0000 1.0000
vn 0.0707 -0.0203 0.9973
vn 0.0942 -0.0270 0.9952
vn 0.1410 -0.0404 0.9892
vn 0.1875 -0.0538 0.9808
vn 0.2106 -0.0604 0.9757
vn 0.2790 -0.0800 0.9569
vn 0.8788 -0.2520 -0.4053
vn 0.8478 -0.2430 -0.4714
vn 0.8478 -0.2431 -0.4714
vn 0.8121 -0.2329 -0.5350
vn 0.7278 -0.2087 -0.6532
vn 0.0001 -0.0000 1.0000
vn -0.0002 -0.0000 1.0000
vn 0.8883 -0.2540 0.3826
vn 0.8881 -0.2547 -0.3827
vn 0.7993 -0.2292 -0.5556
vn 0.7431 -0.2131 -0.6344
vn 0.5340 -0.1531 -0.8315
vn 0.0002 -0.0000 -1.0000
vn -0.0001 -0.0000 -1.0000
vn 0.2790 -0.0800 -0.9570
vn 0.2756 0.9613 -0.0000
vn 0.2756 0.9613 -0.0001
vn 0.2756 0.9613 0.0001
vn 0.2755 0.9613 -0.0000
vn 0.2757 0.9613 -0.0000
vn -0.2756 -0.9613 -0.0000
vn -0.2757 -0.9612 -0.0000
vn -0.2755 -0.9613 -0.0001
vn -0.2755 -0.9613 -0.0000
vn -0.2756 -0.9613 0.0001
vn -0.2757 -0.9613 -0.0000
vn -0.2756 -0.9613 -0.0001
vn -0.2755 -0.9613 0.0003
vt 0.049009 0.250000
vt 0.000000 0.000000
vt 0.049009 -0.200000
vt 0.085481 -0.200000
vt 0.145142 0.250000
vt 0.097545 0.250000
vt 0.121490 -0.200000
vt 0.191342 0.250000
vt 0.156841 -0.200000
vt 0.224806 -0.200000
vt 0.191342 -0.200000
vt 0.235698 0.250000
vt 0.257051 -0.200000
vt 0.277785 0.250000
vt 0.287904 -0.200000
vt 0.317197 0.250000
vt 0.317197 -0.200000
vt 0.344770 -0.200000
vt 0.353553 0.250000
vt -0.250000 -0.353553
vt 0.200000 -0.335779
vt -0.250000 -0.317197
vt 0.200000 -0.307616
vt -0.250000 -0.277785
vt 0.200000 -0.277785
vt -0.250000 -0.235698
vt 0.200000 -0.246449
vt 0.200000 -0.213778
vt 0.200000 -0.179948
vt -0.250000 -0.191342
vt 0.200000 -0.145142
vt -0.250000 -0.145142
vt 0.200000 -0.109551
vt 0.200000 -0.073365
vt -0.250000 -0.097545
vt 0.200000 -0.036782
vt -0.250000 -0.049009
vt -0.250000 0.000000
vt 0.200000 0.000000
vt -0.250000 0.049009
vt 0.200000 0.049009
vt -0.250000 0.097545
vt 0.200000 0.097545
vt -0.250000 0.145142
vt 0.200000 0.145142
vt -0.250000 0.191342
vt 0.200000 0.191342
vt -0.250000 0.235698
vt -0.250000 0.277785
vt 0.200000 0.235698
vt -0.250000 0.317197
vt 0.200000 0.277785
vt 0.200000 0.317197
vt 0.200000 0.353553
vt -0.250000 0.353553
vt 0.000000 0.250000
vt -0.049009 -0.200000
vt -0.049009 0.250000
vt -0.097545 -0.200000
vt -0.097545 0.250000
vt -0.145142 -0.200000
vt -0.145142 0.250000
vt -0.191342 -0.200000
vt -0.191342 0.250000
vt -0.235698 -0.200000
vt -0.235698 0.250000
vt -0.277785 -0.200000
vt -0.277785 0.250000
vt -0.317197 -0.200000
vt -0.317197 0.250000
vt -0.353553 -0.200000
vt -0.353553 0.250000
vt 0.200000 -0.362124
vt 0.012271 -0.200000
vt -0.024534 -0.200000
vt -0.049009 0.000000
vt -0.061205 -0.200000
vt -0.097545 0.000000
vt -0.133356 -0.200000
vt -0.145142 0.000000
vt -0.168445 -0.200000
vt -0.191342 0.000000
vt -0.202621 -0.200000
vt -0.235698 0.000000
vt -0.267499 -0.200000
vt -0.277785 0.000000
vt -0.297850 -0.200000
vt -0.317197 0.000000
vt -0.326586 -0.200000
vt -0.353553 0.000000
vt -0.200000 -0.297850
vt 0.000000 -0.317197
vt 0.000000 -0.277785
vt -0.200000 -0.168445
vt 0.000000 -0.145142
vt -0.200000 -0.133356
vt 0.000000 -0.191342
vt -0.200000 -0.024534
vt -0.200000 -0.061205
vt 0.000000 -0.049009
vt 0.000000 -0.097545
vt -0.200000 0.012271
vt 0.000000 0.049009
vt -0.200000 0.049009
vt -0.200000 0.085481
vt 0.000000 0.097545
vt -0.200000 0.121490
vt 0.000000 0.145142
vt -0.200000 0.156841
vt 0.000000 0.191342
vt -0.200000 0.224806
vt -0.200000 0.191342
vt 0.000000 0.235698
vt 0.000000 0.277785
vt -0.200000 0.257051
vt -0.200000 0.287904
vt 0.000000 0.317197
vt -0.200000 0.344770
vt -0.200000 0.317197
vt 0.000000 0.353553
vt 0.353553 0.000000
vt 0.317197 0.000000
vt 0.335779 -0.200000
vt 0.307616 -0.200000
vt 0.277785 0.000000
vt 0.277785 -0.200000
vt 0.246449 -0.200000
vt 0.235698 0.000000
vt 0.213778 -0.200000
vt 0.191342 0.000000
vt 0.179948 -0.200000
vt 0.145142 0.000000
vt 0.000000 -0.200000
vt 0.036782 -0.200000
vt 0.049009 0.000000
vt 0.073365 -0.200000
vt 0.097545 0.000000
vt 0.109551 -0.200000
vt 0.145142 -0.200000
vt 0.362124 -0.200000
vt -0.200000 -0.097545
vt -0.200000 -0.202621
vt 0.000000 -0.235698
vt -0.200000 -0.235698
vt -0.200000 -0.267499
vt -0.200000 -0.326586
vt 0.000000 -0.353553
vt -0.200000 -0.353553
vt 1.000000 0.000000
vt 1.000000 0.250000
vt 0.500000 0.000000
vt 0.250000 0.000000
vt 0.125000 0.000000
vt 0.062500 0.000000
vt 1.049009 0.250000
vt 1.049009 0.000000
vt 1.097545 0.250000
vt 1.097545 0.000000
vt 1.145142 0.250000
vt 1.145142 0.000000
vt 1.191342 0.250000
vt 1.235698 0.250000
vt 1.191342 0.000000
vt 1.235698 0.000000
vt 1.277785 0.250000
vt 1.277785 0.000000
vt 1.317197 0.250000
vt 1.317197 0.000000
vt 1.353553 0.250000
vt 0.250000 0.353553
vt 0.250000 0.317197
vt 0.250000 0.277785
vt 0.250000 0.235698
vt 0.250000 0.191342
vt 0.250000 0.145142
vt 0.250000 0.049009
vt 0.250000 0.097545
vt 0.250000 -0.049009
vt 0.250000 -0.097545
vt 0.250000 -0.145142
vt 0.250000 -0.191342
vt 0.250000 -0.235698
vt 0.250000 -0.277785
vt 0.250000 -0.317197
vt 0.250000 -0.353553
vt -1.353553 0.000000
vt -1.317197 0.000000
vt -1.317197 0.250000
vt -1.277785 0.000000
vt -1.277785 0.250000
vt -1.235698 0.000000
vt -1.235698 0.250000
vt -1.191342 0.250000
vt -1.191342 0.000000
vt -1.145142 0.250000
vt -1.000000 0.000000
vt -1.000000 0.250000
vt -1.049009 0.000000
vt -1.049009 0.250000
vt -1.097545 0.000000
vt -1.097545 0.250000
vt -1.145142 0.000000
vt -1.353553 0.250000
vt 1.353553 0.000000
vt -0.062500 0.000000
vt -0.500000 0.000000
vt -0.125000 0.000000
vt -1.000000 0.500000
vt -1.000000 -0.500000
vt 0.000000 -0.500000
vt -1.049009 -0.497592
vt -1.097545 -0.490393
vt -1.145142 -0.478470
vt -1.191342 -0.461940
vt -1.235698 -0.440961
vt -1.277785 -0.415735
vt -1.317197 -0.386505
vt -1.353553 -0.353553
vt -1.386505 -0.317197
vt -1.415735 -0.277785
vt -1.461940 -0.191342
vt -1.440961 -0.235698
vt -1.478470 -0.145142
vt -1.490393 -0.097545
vt -1.497592 -0.049009
vt -1.500000 -0.000000
vt -1.497592 0.049009
vt -1.490393 0.097545
vt -1.478470 0.145142
vt -1.461940 0.191342
vt -1.440961 0.235698
vt -1.415735 0.277785
vt -1.386505 0.317197
vt -1.317197 0.386505
vt -1.353553 0.353553
vt -1.277785 0.415735
vt -1.191342 0.461940
vt -1.235698 0.440961
vt -1.145142 0.478470
vt -1.097545 0.490393
vt -1.049009 0.497592
vt -0.000000 0.500000
vt 0.049009 0.497592
vt 0.097545 0.490393
vt 0.145142 0.478470
vt 0.191342 0.461940
vt 0.235698 0.440961
vt 0.277785 0.415735
vt 0.317197 0.386505
vt 0.353553 0.353553
vt 0.386505 0.317197
vt 0.415735 0.277785
vt 0.461940 0.191342
vt 0.440961 0.235698
vt 0.478470 0.145142
vt 0.490393 0.097545
vt 0.497592 0.049009
vt 0.497592 -0.049009
vt 0.490393 -0.097545
vt 0.478470 -0.145142
vt 0.461940 -0.191342
vt 0.440961 -0.235698
vt 0.415735 -0.277785
vt 0.386505 -0.317197
vt 0.353553 -0.353553
vt 0.317197 -0.386505
vt 0.277785 -0.415735
vt 0.191342 -0.461940
vt 0.235698 -0.440961
vt 0.145142 -0.478470
vt 0.097545 -0.490393
vt 0.049009 -0.497592
vt 0.062500 0.500000
vt 0.250000 0.500000
vt 0.125000 0.500000
vt 0.062500 -0.500000
vt 0.125000 -0.500000
vt 0.250000 -0.500000
vt 0.500000 0.500000
vt 1.000000 0.500000
vt 1.000000 -0.500000
vt 0.500000 -0.500000
vt 1.049009 -0.497592
vt 1.097545 -0.490393
vt 1.145142 -0.478470
vt 1.191342 -0.461940
vt 1.235698 -0.440961
vt 1.277785 -0.415735
vt 1.317197 -0.386505
vt 1.353553 -0.353553
vt 1.386505 -0.317197
vt 1.440961 -0.235698
vt 1.415735 -0.277785
vt 1.461940 -0.191342
vt 1.478470 -0.145142
vt 1.490393 -0.097545
vt 1.497592 -0.049009
vt 1.500000 -0.000000
vt 1.497592 0.049009
vt 1.490393 0.097545
vt 1.478470 0.145142
vt 1.461940 0.191342
vt 1.440961 0.235698
vt 1.415735 0.277785
vt 1.386505 0.317197
vt 1.353553 0.353553
vt 1.317197 0.386505
vt 1.277785 0.415735
vt 1.191342 0.461940
vt 1.235698 0.440961
vt 1.145142 0.478470
vt 1.097545 0.490393
vt 1.049009 0.497592
vt -0.097545 0.490393
vt -0.049009 0.497592
vt -0.145142 0.478470
vt -0.191342 0.461940
vt -0.235698 0.440961
vt -0.277785 0.415735
vt -0.317197 0.386505
vt -0.353553 0.353553
vt -0.386505 0.317197
vt -0.415735 0.277785
vt -0.440961 0.235698
vt -0.461940 0.191342
vt -0.478470 0.145142
vt -0.490393 0.097545
vt -0.497592 0.049009
vt -0.498645 -0.036782
vt -0.494588 -0.073365
vt -0.487851 -0.109551
vt -0.478470 -0.145142
vt -0.466496 -0.179948
vt -0.451995 -0.213778
vt -0.435043 -0.246449
vt -0.415735 -0.277785
vt -0.394173 -0.307616
vt -0.370476 -0.335779
vt -0.344770 -0.362124
vt -0.317197 -0.386505
vt -0.287904 -0.408792
vt -0.224806 -0.446612
vt -0.257051 -0.428864
vt -0.191342 -0.461940
vt -0.156841 -0.474764
vt -0.121490 -0.485016
vt -0.085481 -0.492639
vt -0.049009 -0.497592
vt -0.012271 -0.499849
vt 0.024534 -0.499398
vt 0.061205 -0.496240
vt 0.133356 -0.481888
vt 0.168445 -0.470772
vt 0.202621 -0.457105
vt 0.267499 -0.422427
vt 0.297850 -0.401604
vt 0.326586 -0.378604
vt 0.378604 -0.326586
vt 0.401604 -0.297850
vt 0.422427 -0.267499
vt 0.457105 -0.202621
vt 0.470772 -0.168445
vt 0.481888 -0.133356
vt 0.496240 -0.061205
vt 0.499398 -0.024534
vt 0.499849 0.012271
vt 0.492639 0.085481
vt 0.485016 0.121490
vt 0.474764 0.156841
vt 0.446612 0.224806
vt 0.428864 0.257051
vt 0.408792 0.287904
vt 0.362124 0.344770
vt 0.335779 0.370476
vt 0.307616 0.394173
vt 0.246449 0.435043
vt 0.213778 0.451995
vt 0.179948 0.466496
vt 0.109551 0.487851
vt 0.073365 0.494588
vt 0.036782 0.498645
s 1
usemtl Diffuse_51_51_51_100.051
f 1/1/1 2/2/2 3/3/3
f 4/4/4 1/1/1 3/3/3
f 5/5/5 6/6/6 7/7/7
f 8/8/8 5/5/5 9/9/9
f 10/10/10 8/8/8 11/11/8
f 10/10/10 12/12/11 8/8/8
f 13/13/12 14/14/13 12/12/11
f 15/15/14 16/16/15 14/14/13
f 15/15/14 17/17/15 16/16/15
f 16/16/15 18/18/16 19/19/17
f 19/20/17 20/21/18 21/22/19
f 21/22/19 20/21/18 22/23/20
f 23/24/21 22/23/20 24/25/21
f 25/26/22 23/24/21 26/27/23
f 27/28/24 25/26/22 26/27/23
f 28/29/25 29/30/26 27/28/24
f 30/31/27 31/32/28 28/29/25
f 30/31/27 32/33/29 31/32/28
f 32/33/29 33/34/30 34/35/31
f 33/34/30 35/36/32 36/37/33
f 36/37/33 35/36/32 37/38/34
f 37/38/34 38/39/34 39/40/35
f 39/40/35 40/41/35 41/42/36
f 41/42/36 40/41/35 42/43/36
f 43/44/37 42/43/36 44/45/37
f 45/46/38 44/45/37 46/47/38
f 47/48/39 45/46/38 46/47/38
f 48/49/40 47/48/39 49/50/39
f 50/51/41 48/49/40 51/52/42
f 52/53/41 50/51/41 51/52/42
f 53/54/43 54/55/43 52/53/41
f 1/1/1 55/56/44 2/2/2
f 56/57/45 57/2/46 58/58/45
f 58/58/45 57/2/46 59/56/46
f 58/58/45 60/59/47 56/57/45
f 58/58/45 61/60/47 60/59/47
f 60/59/47 61/60/47 62/61/48
f 62/61/48 61/60/47 63/62/49
f 64/63/50 62/61/48 63/62/49
f 65/64/50 64/63/50 63/62/49
f 65/64/50 66/65/51 64/63/50
f 65/64/50 67/66/51 66/65/51
f 66/65/51 67/66/51 68/67/52
f 68/67/52 67/66/51 69/68/53
f 70/69/54 68/67/52 69/68/53
f 71/70/54 70/69/54 69/68/53
f 71/70/54 53/71/43 70/69/54
f 71/70/54 54/72/43 53/71/43
f 54/55/43 50/51/41 52/53/41
f 48/49/40 49/50/39 51/52/42
f 47/48/39 46/47/38 49/50/39
f 43/44/37 44/45/37 45/46/38
f 41/42/36 42/43/36 43/44/37
f 38/39/34 40/41/35 39/40/35
f 35/36/32 38/39/34 37/38/34
f 33/34/30 36/37/33 34/35/31
f 32/33/29 34/35/31 31/32/28
f 31/32/28 29/30/26 28/29/25
f 29/30/26 25/26/22 27/28/24
f 23/24/21 24/25/21 26/27/23
f 21/22/19 22/23/20 23/24/21
f 18/73/16 20/21/18 19/20/17
f 17/17/15 18/18/16 16/16/15
f 15/15/14 14/14/13 13/13/12
f 13/13/12 12/12/11 10/10/10
f 8/8/8 9/9/9 11/11/8
f 5/5/5 7/7/7 9/9/9
f 6/6/6 4/4/4 7/7/7
f 72/74/55 2/2/2 73/75/56
f 73/75/56 2/2/2 74/76/57
f 75/77/58 73/75/56 74/76/57
f 76/78/59 75/77/58 74/76/57
f 76/78/59 77/59/59 75/77/58
f 76/78/59 78/79/60 77/59/59
f 76/78/59 79/80/61 78/79/60
f 78/79/60 79/80/61 80/81/62
f 80/81/62 79/80/61 81/82/63
f 82/83/64 80/81/62 81/82/63
f 83/84/65 82/83/64 81/82/63
f 83/84/65 84/65/65 82/83/64
f 83/84/65 85/85/66 84/65/65
f 83/84/65 86/86/67 85/85/66
f 85/85/66 86/86/67 87/87/68
f 87/87/68 86/86/67 88/88/69
f 89/89/70 87/87/68 88/88/69
f 90/90/71 89/89/70 88/88/69
f 90/90/71 91/71/71 89/89/70
f 92/91/72 93/92/73 94/93/74
f 95/94/75 96/95/76 97/96/77
f 95/94/75 98/97/78 96/95/76
f 99/98/79 100/99/80 101/100/81
f 101/100/81 100/99/80 102/101/82
f 103/102/83 104/2/84 105/103/85
f 106/104/85 105/103/85 107/105/86
f 107/105/86 105/103/85 108/106/87
f 109/107/88 108/106/87 110/108/89
f 111/109/90 109/107/88 110/108/89
f 112/110/91 111/109/90 110/108/89
f 113/111/92 114/112/91 112/110/91
f 115/113/93 113/111/92 112/110/91
f 116/114/94 117/115/95 115/113/93
f 116/114/94 118/116/96 117/115/95
f 116/114/94 119/117/97 118/116/96
f 119/117/97 120/118/98 121/119/97
f 119/117/97 122/120/99 120/118/98
f 122/121/99 123/122/100 124/123/101
f 124/123/101 123/122/100 125/124/102
f 125/124/102 123/122/100 126/125/103
f 127/126/103 126/125/103 128/127/104
f 128/127/104 126/125/103 129/128/105
f 130/129/106 129/128/105 131/130/107
f 132/131/108 130/129/106 131/130/107
f 133/132/109 132/131/108 131/130/107
f 134/133/110 57/2/46 56/57/45
f 57/2/46 134/133/110 135/134/111
f 136/135/112 57/2/46 135/134/111
f 137/136/113 136/135/112 135/134/111
f 137/136/113 138/137/114 136/135/112
f 137/136/113 139/138/115 138/137/114
f 138/137/114 139/138/115 133/132/109
f 133/132/109 139/138/115 140/139/116
f 132/131/108 133/132/109 140/139/116
f 129/128/105 130/129/106 128/127/104
f 126/125/103 127/126/103 125/124/102
f 124/123/101 120/140/98 122/121/99
f 121/119/97 118/116/96 119/117/97
f 113/111/92 115/113/93 117/115/95
f 111/109/90 112/110/91 114/112/91
f 108/106/87 109/107/88 107/105/86
f 105/103/85 106/104/85 103/102/83
f 1/1/1 4/4/4 6/6/6
f 104/2/84 103/102/83 99/98/79
f 99/98/79 101/100/81 104/2/84
f 100/99/80 141/141/82 102/101/82
f 102/101/82 141/141/82 97/96/77
f 96/95/76 102/101/82 97/96/77
f 142/142/117 98/97/78 95/94/75
f 142/142/117 143/143/118 98/97/78
f 142/142/117 144/144/119 143/143/118
f 143/143/118 144/144/119 145/145/120
f 94/93/74 143/143/118 145/145/120
f 92/91/72 94/93/74 145/145/120
f 146/146/121 93/92/73 92/91/72
f 146/146/121 90/147/71 93/92/73
f 3/3/3 2/2/2 72/74/55
f 146/146/121 91/148/71 90/147/71
f 147/149/122 148/150/123 149/151/46
f 148/150/123 59/56/46 57/2/46
f 149/151/46 148/150/123 150/152/46
f 150/152/46 148/150/123 151/153/46
f 151/153/46 148/150/123 152/154/46
f 152/154/46 148/150/123 57/2/46
f 148/150/123 147/149/122 153/155/112
f 153/155/112 147/149/122 154/156/112
f 155/157/114 153/155/112 154/156/112
f 156/158/114 155/157/114 154/156/112
f 155/157/114 156/158/114 157/159/116
f 157/159/116 156/158/114 158/160/116
f 159/161/107 157/159/116 158/160/116
f 160/162/105 161/163/107 162/164/105
f 163/165/103 162/164/105 164/166/103
f 165/167/100 166/168/100 167/169/99
f 167/170/99 168/120/99 169/171/97
f 170/117/97 171/114/94 172/172/94
f 171/114/94 173/113/93 174/173/93
f 173/113/93 175/110/91 176/174/124
f 175/110/91 177/108/89 178/175/89
f 179/106/87 180/176/85 181/177/87
f 182/103/85 183/152/84 180/176/85
f 184/2/84 185/178/81 183/152/84
f 186/100/81 187/179/82 185/178/81
f 188/101/82 189/180/76 187/179/82
f 190/95/76 191/181/125 189/180/76
f 192/97/78 193/182/119 191/181/125
f 194/143/119 195/183/126 193/182/119
f 194/143/119 196/93/126 195/183/126
f 196/93/126 197/92/127 198/184/127
f 197/92/127 199/147/71 200/185/71
f 199/186/71 201/187/69 202/188/69
f 201/187/69 203/189/128 204/190/128
f 203/189/128 205/191/65 206/192/65
f 206/192/65 205/191/65 207/193/63
f 207/193/63 208/194/63 209/195/61
f 210/196/129 211/197/130 212/198/57
f 212/198/57 211/197/130 213/199/57
f 214/200/59 212/198/57 213/199/57
f 215/201/59 214/200/59 213/199/57
f 215/201/59 216/202/131 214/200/59
f 209/195/61 208/194/63 216/202/131
f 207/193/63 205/191/65 208/194/63
f 204/190/128 203/189/128 206/192/65
f 202/188/69 201/187/69 204/190/128
f 200/203/71 199/186/71 202/188/69
f 198/184/127 197/92/127 200/185/71
f 195/183/126 196/93/126 198/184/127
f 192/97/78 194/143/119 193/182/119
f 190/95/76 192/97/78 191/181/125
f 188/101/82 190/95/76 189/180/76
f 186/100/81 188/101/82 187/179/82
f 184/2/84 186/100/81 185/178/81
f 182/103/85 184/2/84 183/152/84
f 179/106/87 182/103/85 180/176/85
f 177/108/89 179/106/87 181/177/87
f 178/175/89 177/108/89 181/177/87
f 176/174/124 175/110/91 178/175/89
f 174/173/93 173/113/93 176/174/124
f 172/172/94 171/114/94 174/173/93
f 169/171/97 170/117/97 172/172/94
f 169/171/97 168/120/99 170/117/97
f 167/169/99 166/168/100 168/204/99
f 165/167/100 164/166/103 166/168/100
f 165/167/100 163/165/103 164/166/103
f 163/165/103 160/162/105 162/164/105
f 160/162/105 159/161/107 161/163/107
f 161/163/107 159/161/107 158/160/116
f 209/195/61 216/202/131 215/201/59
f 2/2/2 55/56/44 217/205/2
f 55/56/44 211/197/130 210/196/129
f 218/206/2 55/56/44 210/196/129
f 219/38/2 55/56/44 218/206/2
f 220/207/2 55/56/44 219/38/2
f 217/205/2 55/56/44 220/207/2
f 221/208/132 222/209/132 223/210/132
f 224/208/132 225/211/132 226/209/132
f 227/208/132 228/212/132 229/211/132
f 230/208/132 231/213/132 232/212/132
f 233/208/132 234/214/132 235/213/132
f 236/208/132 237/215/132 238/214/132
f 239/208/132 240/216/132 241/215/132
f 242/208/132 243/217/132 244/216/132
f 245/208/132 246/218/132 247/217/132
f 248/208/132 249/219/132 250/218/132
f 251/208/132 252/220/132 253/219/132
f 254/221/132 255/222/132 256/208/132
f 257/208/132 258/222/132 259/220/132
f 260/223/132 261/221/132 262/208/132
f 263/224/132 264/223/132 265/208/132
f 266/225/132 267/224/132 268/208/132
f 269/226/132 270/225/132 271/208/132
f 272/227/132 273/226/133 274/208/132
f 275/228/132 276/227/132 277/208/132
f 278/228/132 279/208/132 280/229/132
f 281/229/132 282/208/132 283/230/132
f 284/230/132 285/208/132 286/231/132
f 287/231/132 288/208/132 289/232/132
f 290/232/132 291/208/132 292/233/132
f 293/208/132 294/234/132 295/235/132
f 296/208/132 297/236/132 298/234/132
f 299/237/132 300/238/132 301/208/132
f 302/208/132 303/238/132 304/236/132
f 305/239/134 306/237/134 307/208/132
f 308/240/133 309/239/135 310/208/133
f 311/241/132 312/240/132 313/208/132
f 314/208/132 315/210/132 316/242/132
f 317/242/132 318/210/132 319/243/132
f 320/210/132 321/244/132 322/243/132
f 323/210/132 324/245/132 325/244/132
f 326/210/132 327/246/132 328/245/132
f 329/210/132 330/247/132 331/246/132
f 332/210/132 333/248/132 334/247/132
f 335/210/132 336/249/132 337/248/132
f 338/210/132 339/250/132 340/249/132
f 341/210/135 342/251/135 343/250/135
f 344/210/132 345/252/132 346/251/132
f 347/253/132 348/254/132 349/210/132
f 350/210/132 351/254/132 352/252/132
f 353/255/132 354/253/132 355/210/132
f 356/256/132 357/255/132 358/210/132
f 359/257/132 360/256/132 361/210/132
f 362/151/132 363/257/132 364/210/132
f 365/258/133 366/210/132 367/259/132
f 368/259/132 369/210/132 370/260/132
f 371/210/134 372/261/132 373/260/132
f 374/210/132 375/262/132 376/261/132
f 377/210/132 378/263/132 379/262/132
f 380/210/132 381/264/132 382/263/132
f 383/210/132 384/265/132 385/264/132
f 386/210/132 387/266/132 388/265/132
f 389/210/132 390/267/132 391/266/136
f 392/268/134 393/269/132 394/210/132
f 395/210/132 396/269/132 397/267/132
f 398/270/132 399/268/132 400/210/132
f 401/271/132 402/270/132 403/210/132
f 404/272/133 405/271/132 406/210/133
f 407/233/134 408/208/132 409/235/134
f 410/258/132 411/151/132 412/210/132
f 413/273/137 414/242/138 415/243/137
s 0
f 416/273/137 417/243/139 418/244/137
s 1
f 419/274/137 420/275/137 421/245/137
f 422/275/137 423/244/137 424/245/137
s 0
f 425/271/140 426/272/137 427/276/137
s 1
f 428/270/141 429/271/137 430/277/141
f 431/270/137 432/277/137 433/278/137
f 434/275/137 435/273/137 436/244/137
f 437/279/137 438/274/137 439/249/137
f 440/246/137 441/247/137 442/274/137
f 443/246/137 444/274/137 445/245/141
f 446/247/137 447/248/137 448/274/137
f 449/248/137 450/249/137 451/274/137
f 452/249/137 453/250/137 454/279/137
f 455/250/137 456/251/137 457/279/137
f 458/251/137 459/252/137 460/279/137
f 461/252/140 462/254/140 463/279/137
f 464/254/137 465/253/137 466/279/137
f 467/253/137 468/255/137 469/280/137
f 470/255/137 471/256/137 472/280/137
f 473/256/137 474/257/137 475/280/137
f 476/257/137 477/151/137 478/280/137
f 479/281/137 480/280/137 481/151/137
f 482/281/137 483/151/137 484/258/137
f 485/281/137 486/258/137 487/259/137
f 488/281/137 489/259/137 490/260/137
f 491/281/137 492/260/137 493/261/137
f 494/281/137 495/261/137 496/282/137
f 497/264/137 498/282/137 499/263/137
f 500/282/140 501/262/137 502/263/140
f 503/265/137 504/282/137 505/264/137
f 506/266/137 507/282/137 508/265/137
f 509/278/137 510/282/137 511/266/137
f 512/278/137 513/266/137 514/267/137
f 515/267/137 516/269/137 517/278/137
f 518/269/137 519/268/137 520/278/137
f 521/268/137 522/270/137 523/278/137
f 524/280/137 525/279/137 526/253/137
f 527/210/138 528/276/137 529/272/142
f 530/277/141 531/271/141 532/276/137
f 533/281/137 534/283/137 535/280/137
f 536/280/137 537/283/140 538/284/137
f 539/280/137 540/284/137 541/285/137
f 542/280/137 543/285/137 544/286/137
f 545/280/137 546/286/137 547/287/137
f 548/280/137 549/287/137 550/288/137
f 551/280/137 552/288/137 553/289/137
f 554/280/137 555/289/137 556/290/137
f 557/280/137 558/290/137 559/291/137
f 560/292/137 561/280/137 562/293/137
f 563/280/137 564/291/137 565/293/137
f 566/294/137 567/280/137 568/292/137
f 569/295/137 570/280/137 571/294/137
f 572/296/140 573/280/137 574/295/137
f 575/297/137 576/280/137 577/296/137
f 578/298/137 579/280/137 580/297/137
f 581/299/137 582/280/137 583/298/137
f 584/299/137 585/300/140 586/280/140
f 587/300/143 588/301/137 589/280/137
f 590/280/137 591/302/137 592/303/137
f 593/280/137 594/303/137 595/304/137
f 596/280/137 597/304/137 598/305/137
f 599/280/137 600/305/137 601/306/137
f 602/280/137 603/306/137 604/307/137
f 605/280/137 606/307/137 607/308/137
f 608/309/137 609/280/137 610/310/137
f 611/280/137 612/308/137 613/310/137
f 614/311/137 615/280/143 616/309/137
f 617/312/140 618/280/141 619/311/137
f 620/313/137 621/280/137 622/312/137
f 623/262/137 624/282/137 625/261/137
f 626/302/137 627/280/137 628/301/137
f 629/314/137 630/242/137 631/315/137
f 632/316/137 633/242/137 634/314/137
f 635/317/141 636/242/137 637/316/137
f 638/318/137 639/242/137 640/317/137
f 641/319/137 642/242/137 643/318/137
f 644/320/137 645/242/137 646/319/137
f 647/321/137 648/242/137 649/320/137
f 650/322/137 651/242/137 652/321/137
f 653/323/137 654/242/137 655/322/137
f 656/324/137 657/242/137 658/323/137
f 659/325/137 660/242/141 661/324/137
f 662/326/137 663/327/137 664/242/137
f 665/326/137 666/242/140 667/325/137
f 668/327/137 669/328/137 670/242/137
f 671/328/137 672/206/137 673/242/137
f 674/206/137 675/329/137 676/242/137
f 677/329/137 678/330/137 679/242/137
f 680/242/137 681/330/137 682/331/137
f 683/242/137 684/331/137 685/332/137
f 686/242/137 687/332/137 688/333/141
f 689/242/137 690/333/137 691/334/137
f 692/242/137 693/334/137 694/335/137
f 695/242/137 696/335/137 697/336/137
f 698/242/137 699/336/137 700/337/137
f 701/242/137 702/337/137 703/338/137
f 704/242/137 705/338/137 706/339/137
f 707/242/137 708/339/137 709/340/137
f 710/242/137 711/340/137 712/341/137
f 713/342/137 714/242/137 715/343/144
f 716/242/140 717/341/140 718/343/137
f 719/344/137 720/242/137 721/342/137
f 722/345/137 723/242/137 724/344/137
f 725/346/137 726/242/137 727/345/137
f 728/347/137 729/242/137 730/346/137
f 731/348/137 732/242/137 733/347/137
f 734/349/137 735/350/137 736/242/137
f 737/350/137 738/351/137 739/242/137
f 740/242/137 741/351/137 742/271/137
f 743/242/137 744/271/137 745/352/137
f 746/242/137 747/352/137 748/353/137
f 749/242/137 750/353/137 751/354/137
f 752/242/137 753/354/137 754/269/137
f 755/242/137 756/269/137 757/355/137
f 758/242/137 759/355/137 760/356/137
f 761/242/137 762/356/140 763/357/137
f 764/242/137 765/357/137 766/265/137
f 767/242/137 768/265/137 769/358/137
f 770/242/137 771/358/137 772/359/137
f 773/242/137 774/359/137 775/360/137
f 776/361/137 777/242/137 778/262/137
f 779/242/137 780/360/137 781/262/137
f 782/362/137 783/242/137 784/361/137
f 785/363/137 786/242/137 787/362/137
f 788/259/137 789/242/137 790/363/137
f 791/364/137 792/242/137 793/259/137
f 794/365/137 795/242/137 796/364/137
f 797/366/137 798/242/137 799/365/137
f 800/257/137 801/242/137 802/366/137
f 803/257/137 804/367/137 805/242/137
f 806/367/137 807/368/137 808/242/137
f 809/368/137 810/369/137 811/242/137
f 812/369/137 813/253/137 814/242/137
f 815/253/137 816/370/137 817/242/137
f 818/370/137 819/371/137 820/242/141
f 821/371/137 822/372/137 823/242/137
f 824/372/141 825/251/141 826/242/137
f 827/251/137 828/373/137 829/242/141
f 830/373/142 831/374/141 832/242/141
f 833/374/137 834/375/137 835/242/137
f 836/242/137 837/248/137 838/376/137
f 839/375/137 840/248/137 841/242/137
f 842/242/137 843/376/137 844/377/137
f 845/242/137 846/377/137 847/378/137
f 848/242/141 849/378/141 850/245/137
f 851/242/137 852/245/143 853/379/137
f 854/242/137 855/379/141 856/380/137
f 857/242/137 858/348/137 859/349/137
s 0
f 860/381/142 861/242/142 862/380/137
