# Blender 4.4.3
# www.blender.org
mtllib Mesh_18.018.mtl
o Mesh_18.018
v -0.000210 0.008776 -0.008903
v -0.000210 0.008830 -0.008903
v -0.000210 0.008827 -0.008905
v -0.000210 0.008824 -0.008907
v -0.000210 0.008821 -0.008909
v -0.000210 0.008817 -0.008910
v -0.000210 0.008810 -0.008912
v -0.000210 0.008814 -0.008912
v -0.000210 0.008807 -0.008913
v -0.000210 0.008803 -0.008913
v -0.000210 0.008799 -0.008913
v -0.000210 0.008796 -0.008912
v -0.000210 0.008792 -0.008912
v -0.000210 0.008789 -0.008910
v -0.000210 0.008785 -0.008909
v -0.000210 0.008782 -0.008907
v -0.000210 0.008779 -0.008905
v -0.000210 0.008773 -0.008900
v -0.000210 0.008833 -0.008900
v -0.000210 0.008770 -0.008897
v -0.000210 0.008836 -0.008897
v -0.000210 0.008766 -0.008893
v -0.000210 0.008840 -0.008893
v -0.000210 0.008763 -0.008890
v -0.000210 0.008843 -0.008890
v -0.000210 0.008760 -0.008886
v -0.000210 0.008846 -0.008886
v -0.000210 0.008757 -0.008883
v -0.000210 0.008849 -0.008883
v -0.000210 0.008754 -0.008879
v -0.000210 0.008852 -0.008879
v -0.000210 0.008854 -0.008875
v -0.000210 0.008752 -0.008875
v -0.000210 0.008749 -0.008871
v -0.000210 0.008744 -0.008863
v -0.000210 0.008859 -0.008867
v -0.000210 0.008747 -0.008867
v -0.000210 0.008857 -0.008871
v -0.000210 0.008872 -0.008842
v -0.000210 0.008870 -0.008847
v -0.000210 0.008872 -0.008840
v -0.000210 0.008868 -0.008851
v -0.000210 0.008866 -0.008855
v -0.000210 0.008734 -0.008840
v -0.000210 0.008738 -0.008851
v -0.000210 0.008740 -0.008855
v -0.000210 0.008736 -0.008847
v -0.000210 0.008864 -0.008859
v -0.000210 0.008742 -0.008859
v -0.000210 0.008862 -0.008863
v -0.000210 0.008734 -0.008842
v 0.000020 0.008734 -0.008840
v 0.000020 0.008734 -0.008842
v 0.000020 0.008736 -0.008847
v 0.000020 0.008738 -0.008851
v 0.000020 0.008740 -0.008855
v 0.000020 0.008866 -0.008855
v 0.000020 0.008742 -0.008859
v 0.000020 0.008864 -0.008859
v 0.000020 0.008744 -0.008863
v 0.000020 0.008862 -0.008863
v 0.000020 0.008747 -0.008867
v 0.000020 0.008749 -0.008871
v 0.000020 0.008859 -0.008867
v 0.000020 0.008857 -0.008871
v 0.000020 0.008854 -0.008875
v 0.000020 0.008752 -0.008875
v 0.000020 0.008754 -0.008879
v 0.000020 0.008852 -0.008879
v 0.000020 0.008757 -0.008883
v 0.000020 0.008849 -0.008883
v 0.000020 0.008760 -0.008886
v 0.000020 0.008846 -0.008886
v 0.000020 0.008840 -0.008893
v 0.000020 0.008843 -0.008890
v 0.000020 0.008766 -0.008893
v 0.000020 0.008836 -0.008897
v 0.000020 0.008770 -0.008897
v 0.000020 0.008773 -0.008900
v 0.000020 0.008830 -0.008903
v 0.000020 0.008833 -0.008900
v 0.000020 0.008776 -0.008903
v 0.000020 0.008827 -0.008905
v 0.000020 0.008824 -0.008907
v 0.000020 0.008779 -0.008905
v 0.000020 0.008782 -0.008907
v 0.000020 0.008785 -0.008909
v 0.000020 0.008792 -0.008912
v 0.000020 0.008789 -0.008910
v 0.000020 0.008796 -0.008912
v 0.000020 0.008799 -0.008913
v 0.000020 0.008803 -0.008913
v 0.000020 0.008807 -0.008913
v 0.000020 0.008810 -0.008912
v 0.000020 0.008814 -0.008912
v 0.000020 0.008817 -0.008910
v 0.000020 0.008821 -0.008909
v 0.000020 0.008763 -0.008890
v 0.000020 0.008872 -0.008840
v 0.000020 0.008868 -0.008851
v 0.000020 0.008872 -0.008842
v 0.000020 0.008870 -0.008847
v 0.000020 0.008734 -0.008842
v 0.000020 0.008734 -0.008840
v -0.000038 0.008734 -0.008842
v 0.000020 0.008734 -0.008840
v -0.000210 0.008734 -0.008840
v -0.000210 0.008734 -0.008842
v -0.000095 0.008734 -0.008842
v 0.000020 0.008734 -0.008840
v -0.000152 0.008734 -0.008842
v 0.000020 0.008734 -0.008840
v 0.000020 0.008734 -0.008840
v -0.000210 0.008734 -0.008842
v -0.000115 0.008805 -0.008840
v -0.000115 0.008803 -0.008913
v -0.000115 0.008803 -0.008840
v -0.000115 0.008807 -0.008913
v -0.000115 0.008805 -0.008913
v -0.000116 0.008809 -0.008912
v -0.000115 0.008807 -0.008840
v -0.000116 0.008809 -0.008840
v -0.000116 0.008811 -0.008912
v -0.000116 0.008811 -0.008840
v -0.000117 0.008813 -0.008912
v -0.000117 0.008813 -0.008840
v -0.000118 0.008815 -0.008911
v -0.000117 0.008815 -0.008840
v -0.000118 0.008817 -0.008840
v -0.000119 0.008817 -0.008910
v -0.000120 0.008819 -0.008910
v -0.000119 0.008819 -0.008840
v -0.000121 0.008821 -0.008909
v -0.000120 0.008820 -0.008840
v -0.000122 0.008822 -0.008840
v -0.000122 0.008822 -0.008908
v -0.000123 0.008824 -0.008907
v -0.000125 0.008825 -0.008906
v -0.000123 0.008823 -0.008840
v -0.000129 0.008829 -0.008904
v -0.000129 0.008829 -0.008840
v -0.000131 0.008830 -0.008903
v -0.000131 0.008830 -0.008840
v -0.000128 0.008827 -0.008840
v -0.000128 0.008828 -0.008905
v -0.000126 0.008826 -0.008840
v -0.000126 0.008826 -0.008906
v -0.000124 0.008825 -0.008840
v -0.000115 0.008801 -0.008913
v -0.000115 0.008801 -0.008840
v -0.000115 0.008799 -0.008913
v -0.000115 0.008798 -0.008840
v -0.000116 0.008797 -0.008912
v -0.000116 0.008796 -0.008840
v -0.000116 0.008795 -0.008912
v -0.000117 0.008793 -0.008912
v -0.000117 0.008793 -0.008840
v -0.000117 0.008791 -0.008840
v -0.000118 0.008791 -0.008911
v -0.000119 0.008789 -0.008910
v -0.000118 0.008789 -0.008840
v -0.000120 0.008787 -0.008910
v -0.000120 0.008787 -0.008840
v -0.000121 0.008785 -0.008840
v -0.000121 0.008785 -0.008909
v -0.000123 0.008783 -0.008840
v -0.000125 0.008781 -0.008906
v -0.000124 0.008781 -0.008840
v -0.000123 0.008782 -0.008907
v -0.000122 0.008784 -0.008908
v -0.000126 0.008780 -0.008906
v -0.000128 0.008779 -0.008905
v -0.000129 0.008777 -0.008904
v -0.000128 0.008778 -0.008840
v -0.000126 0.008780 -0.008840
v -0.000131 0.008776 -0.008903
v -0.000130 0.008777 -0.008840
v -0.000133 0.008776 -0.008902
v -0.000132 0.008776 -0.008840
v -0.000134 0.008775 -0.008902
v -0.000135 0.008775 -0.008840
v -0.000136 0.008774 -0.008901
v -0.000137 0.008774 -0.008840
v -0.000138 0.008774 -0.008901
v -0.000139 0.008774 -0.008840
v -0.000140 0.008774 -0.008900
v -0.000141 0.008773 -0.008900
v -0.000143 0.008773 -0.008900
v -0.000142 0.008773 -0.008840
v -0.000144 0.008773 -0.008840
v -0.000145 0.008773 -0.008900
v -0.000147 0.008773 -0.008900
v -0.000147 0.008773 -0.008840
v -0.000149 0.008773 -0.008840
v -0.000149 0.008773 -0.008900
v -0.000151 0.008774 -0.008840
v -0.000151 0.008774 -0.008900
v -0.000154 0.008774 -0.008840
v -0.000152 0.008774 -0.008901
v -0.000156 0.008775 -0.008840
v -0.000154 0.008774 -0.008901
v -0.000156 0.008775 -0.008902
v -0.000158 0.008776 -0.008840
v -0.000157 0.008776 -0.008902
v -0.000159 0.008776 -0.008903
v -0.000160 0.008777 -0.008840
v -0.000161 0.008777 -0.008904
v -0.000162 0.008779 -0.008840
v -0.000162 0.008778 -0.008905
v -0.000164 0.008780 -0.008906
v -0.000164 0.008780 -0.008840
v -0.000166 0.008782 -0.008840
v -0.000165 0.008781 -0.008906
v -0.000167 0.008782 -0.008907
v -0.000168 0.008784 -0.008840
v -0.000168 0.008784 -0.008908
v -0.000169 0.008785 -0.008909
v -0.000169 0.008785 -0.008840
v -0.000171 0.008787 -0.008840
v -0.000172 0.008790 -0.008840
v -0.000170 0.008787 -0.008910
v -0.000171 0.008789 -0.008910
v -0.000173 0.008792 -0.008840
v -0.000172 0.008791 -0.008911
v -0.000173 0.008793 -0.008912
v -0.000174 0.008794 -0.008840
v -0.000174 0.008795 -0.008912
v -0.000175 0.008799 -0.008840
v -0.000174 0.008796 -0.008840
v -0.000174 0.008797 -0.008912
v -0.000175 0.008799 -0.008913
v -0.000174 0.008809 -0.008912
v -0.000174 0.008811 -0.008912
v -0.000174 0.008811 -0.008840
v -0.000175 0.008801 -0.008840
v -0.000175 0.008801 -0.008913
v -0.000171 0.008817 -0.008910
v -0.000170 0.008819 -0.008910
v -0.000171 0.008818 -0.008840
v -0.000167 0.008824 -0.008907
v -0.000167 0.008824 -0.008840
v -0.000168 0.008822 -0.008840
v -0.000161 0.008829 -0.008904
v -0.000163 0.008827 -0.008840
v -0.000162 0.008827 -0.008905
v -0.000159 0.008829 -0.008840
v -0.000157 0.008830 -0.008902
v -0.000157 0.008831 -0.008840
v -0.000152 0.008832 -0.008901
v -0.000152 0.008832 -0.008840
v -0.000155 0.008831 -0.008840
v -0.000149 0.008833 -0.008900
v -0.000150 0.008833 -0.008840
v -0.000151 0.008832 -0.008900
v -0.000147 0.008833 -0.008900
v -0.000145 0.008833 -0.008840
v -0.000148 0.008833 -0.008840
v -0.000145 0.008833 -0.008900
v -0.000143 0.008833 -0.008900
v -0.000141 0.008833 -0.008900
v -0.000143 0.008833 -0.008840
v -0.000140 0.008832 -0.008900
v -0.000140 0.008833 -0.008840
v -0.000138 0.008832 -0.008901
v -0.000138 0.008832 -0.008840
v -0.000136 0.008832 -0.008901
v -0.000136 0.008831 -0.008840
v -0.000133 0.008830 -0.008902
v -0.000133 0.008831 -0.008840
v -0.000134 0.008831 -0.008902
v -0.000154 0.008832 -0.008901
v -0.000156 0.008831 -0.008902
v -0.000159 0.008830 -0.008903
v -0.000161 0.008828 -0.008840
v -0.000164 0.008826 -0.008906
v -0.000165 0.008825 -0.008840
v -0.000165 0.008825 -0.008906
v -0.000168 0.008822 -0.008908
v -0.000170 0.008820 -0.008840
v -0.000169 0.008821 -0.008909
v -0.000172 0.008816 -0.008840
v -0.000172 0.008815 -0.008911
v -0.000173 0.008813 -0.008840
v -0.000173 0.008813 -0.008912
v -0.000174 0.008809 -0.008840
v -0.000175 0.008807 -0.008913
v -0.000175 0.008806 -0.008840
v -0.000175 0.008805 -0.008913
v -0.000175 0.008804 -0.008840
v -0.000175 0.008803 -0.008913
v -0.000152 0.008872 -0.008842
v -0.000210 0.008872 -0.008842
v 0.000020 0.008872 -0.008840
v -0.000210 0.008872 -0.008842
v -0.000210 0.008872 -0.008840
v 0.000020 0.008872 -0.008840
v -0.000038 0.008872 -0.008842
v -0.000095 0.008872 -0.008842
v 0.000020 0.008872 -0.008840
v 0.000020 0.008872 -0.008842
v 0.000020 0.008872 -0.008840
v 0.000020 0.008872 -0.008840
v -0.000129 0.008829 -0.008840
v -0.000128 0.008827 -0.008840
v 0.000020 0.008872 -0.008840
v -0.000129 0.008829 -0.008840
v 0.000020 0.008872 -0.008840
v -0.000131 0.008830 -0.008840
v -0.000128 0.008827 -0.008840
v -0.000126 0.008826 -0.008840
v 0.000020 0.008872 -0.008840
v -0.000126 0.008826 -0.008840
v -0.000124 0.008825 -0.008840
v 0.000020 0.008872 -0.008840
v -0.000124 0.008825 -0.008840
v -0.000123 0.008823 -0.008840
v 0.000020 0.008872 -0.008840
v -0.000123 0.008823 -0.008840
v -0.000122 0.008822 -0.008840
v 0.000020 0.008872 -0.008840
v -0.000122 0.008822 -0.008840
v -0.000120 0.008820 -0.008840
v 0.000020 0.008872 -0.008840
v -0.000120 0.008820 -0.008840
v -0.000119 0.008819 -0.008840
v 0.000020 0.008872 -0.008840
v -0.000119 0.008819 -0.008840
v -0.000118 0.008817 -0.008840
v 0.000020 0.008872 -0.008840
v -0.000118 0.008817 -0.008840
v -0.000117 0.008815 -0.008840
v 0.000020 0.008872 -0.008840
v -0.000117 0.008815 -0.008840
v -0.000117 0.008813 -0.008840
v 0.000020 0.008872 -0.008840
v -0.000117 0.008813 -0.008840
v -0.000116 0.008811 -0.008840
v 0.000020 0.008872 -0.008840
v -0.000116 0.008811 -0.008840
v -0.000116 0.008809 -0.008840
v 0.000020 0.008872 -0.008840
v -0.000116 0.008809 -0.008840
v -0.000115 0.008807 -0.008840
v 0.000020 0.008872 -0.008840
v -0.000115 0.008807 -0.008840
v -0.000115 0.008805 -0.008840
v 0.000020 0.008872 -0.008840
v -0.000115 0.008805 -0.008840
v -0.000115 0.008803 -0.008840
v 0.000020 0.008872 -0.008840
v -0.000115 0.008803 -0.008840
v 0.000020 0.008734 -0.008840
v 0.000020 0.008872 -0.008840
v -0.000115 0.008801 -0.008840
v 0.000020 0.008734 -0.008840
v -0.000115 0.008803 -0.008840
v -0.000115 0.008798 -0.008840
v 0.000020 0.008734 -0.008840
v -0.000115 0.008801 -0.008840
v -0.000116 0.008796 -0.008840
v 0.000020 0.008734 -0.008840
v -0.000115 0.008798 -0.008840
v 0.000020 0.008734 -0.008840
v -0.000116 0.008796 -0.008840
v -0.000117 0.008793 -0.008840
v 0.000020 0.008734 -0.008840
v -0.000117 0.008793 -0.008840
v -0.000117 0.008791 -0.008840
v 0.000020 0.008734 -0.008840
v -0.000117 0.008791 -0.008840
v -0.000118 0.008789 -0.008840
v 0.000020 0.008734 -0.008840
v -0.000118 0.008789 -0.008840
v -0.000120 0.008787 -0.008840
v 0.000020 0.008734 -0.008840
v -0.000120 0.008787 -0.008840
v -0.000121 0.008785 -0.008840
v 0.000020 0.008734 -0.008840
v -0.000121 0.008785 -0.008840
v -0.000123 0.008783 -0.008840
v 0.000020 0.008734 -0.008840
v -0.000123 0.008783 -0.008840
v -0.000124 0.008781 -0.008840
v -0.000128 0.008778 -0.008840
v -0.000130 0.008777 -0.008840
v 0.000020 0.008734 -0.008840
v -0.000128 0.008778 -0.008840
v 0.000020 0.008734 -0.008840
v -0.000126 0.008780 -0.008840
v 0.000020 0.008734 -0.008840
v -0.000124 0.008781 -0.008840
v -0.000126 0.008780 -0.008840
v -0.000132 0.008776 -0.008840
v 0.000020 0.008734 -0.008840
v -0.000130 0.008777 -0.008840
v -0.000135 0.008775 -0.008840
v 0.000020 0.008734 -0.008840
v -0.000132 0.008776 -0.008840
v -0.000137 0.008774 -0.008840
v 0.000020 0.008734 -0.008840
v -0.000135 0.008775 -0.008840
v -0.000210 0.008734 -0.008840
v 0.000020 0.008734 -0.008840
v -0.000137 0.008774 -0.008840
v -0.000210 0.008734 -0.008840
v -0.000137 0.008774 -0.008840
v -0.000139 0.008774 -0.008840
v -0.000210 0.008734 -0.008840
v -0.000139 0.008774 -0.008840
v -0.000142 0.008773 -0.008840
v -0.000210 0.008734 -0.008840
v -0.000142 0.008773 -0.008840
v -0.000144 0.008773 -0.008840
v -0.000210 0.008734 -0.008840
v -0.000144 0.008773 -0.008840
v -0.000147 0.008773 -0.008840
v -0.000151 0.008774 -0.008840
v -0.000154 0.008774 -0.008840
v -0.000210 0.008734 -0.008840
v -0.000151 0.008774 -0.008840
v -0.000210 0.008734 -0.008840
v -0.000149 0.008773 -0.008840
v -0.000154 0.008774 -0.008840
v -0.000156 0.008775 -0.008840
v -0.000210 0.008734 -0.008840
v -0.000156 0.008775 -0.008840
v -0.000158 0.008776 -0.008840
v -0.000210 0.008734 -0.008840
v -0.000158 0.008776 -0.008840
v -0.000160 0.008777 -0.008840
v -0.000210 0.008734 -0.008840
v -0.000160 0.008777 -0.008840
v -0.000162 0.008779 -0.008840
v -0.000210 0.008734 -0.008840
v -0.000162 0.008779 -0.008840
v -0.000164 0.008780 -0.008840
v -0.000210 0.008734 -0.008840
v -0.000164 0.008780 -0.008840
v -0.000166 0.008782 -0.008840
v -0.000210 0.008734 -0.008840
v -0.000166 0.008782 -0.008840
v -0.000168 0.008784 -0.008840
v -0.000210 0.008734 -0.008840
v -0.000168 0.008784 -0.008840
v -0.000169 0.008785 -0.008840
v -0.000210 0.008734 -0.008840
v -0.000169 0.008785 -0.008840
v -0.000171 0.008787 -0.008840
v -0.000210 0.008734 -0.008840
v -0.000171 0.008787 -0.008840
v -0.000172 0.008790 -0.008840
v -0.000210 0.008734 -0.008840
v -0.000172 0.008790 -0.008840
v -0.000173 0.008792 -0.008840
v -0.000210 0.008734 -0.008840
v -0.000174 0.008794 -0.008840
v -0.000210 0.008734 -0.008840
v -0.000173 0.008792 -0.008840
v -0.000174 0.008796 -0.008840
v -0.000210 0.008734 -0.008840
v -0.000174 0.008794 -0.008840
v -0.000175 0.008799 -0.008840
v -0.000210 0.008734 -0.008840
v -0.000174 0.008796 -0.008840
v -0.000210 0.008734 -0.008840
v -0.000147 0.008773 -0.008840
v -0.000149 0.008773 -0.008840
v -0.000175 0.008804 -0.008840
v -0.000210 0.008734 -0.008840
v -0.000175 0.008801 -0.008840
v -0.000210 0.008872 -0.008840
v -0.000210 0.008734 -0.008840
v -0.000175 0.008804 -0.008840
v -0.000210 0.008872 -0.008840
v -0.000175 0.008804 -0.008840
v -0.000175 0.008806 -0.008840
v -0.000210 0.008872 -0.008840
v -0.000175 0.008806 -0.008840
v -0.000174 0.008809 -0.008840
v -0.000210 0.008872 -0.008840
v -0.000174 0.008809 -0.008840
v -0.000174 0.008811 -0.008840
v -0.000172 0.008816 -0.008840
v -0.000171 0.008818 -0.008840
v -0.000210 0.008872 -0.008840
v -0.000172 0.008816 -0.008840
v -0.000210 0.008872 -0.008840
v -0.000173 0.008813 -0.008840
v -0.000171 0.008818 -0.008840
v -0.000170 0.008820 -0.008840
v -0.000210 0.008872 -0.008840
v -0.000170 0.008820 -0.008840
v -0.000168 0.008822 -0.008840
v -0.000210 0.008872 -0.008840
v -0.000168 0.008822 -0.008840
v -0.000167 0.008824 -0.008840
v -0.000210 0.008872 -0.008840
v -0.000167 0.008824 -0.008840
v -0.000165 0.008825 -0.008840
v -0.000210 0.008872 -0.008840
v -0.000165 0.008825 -0.008840
v -0.000163 0.008827 -0.008840
v -0.000210 0.008872 -0.008840
v -0.000163 0.008827 -0.008840
v -0.000161 0.008828 -0.008840
v -0.000210 0.008872 -0.008840
v -0.000161 0.008828 -0.008840
v -0.000159 0.008829 -0.008840
v -0.000210 0.008872 -0.008840
v -0.000159 0.008829 -0.008840
v -0.000157 0.008831 -0.008840
v -0.000210 0.008872 -0.008840
v -0.000157 0.008831 -0.008840
v -0.000155 0.008831 -0.008840
v -0.000210 0.008872 -0.008840
v -0.000155 0.008831 -0.008840
v -0.000152 0.008832 -0.008840
v -0.000210 0.008872 -0.008840
v -0.000150 0.008833 -0.008840
v -0.000210 0.008872 -0.008840
v -0.000152 0.008832 -0.008840
v -0.000148 0.008833 -0.008840
v -0.000210 0.008872 -0.008840
v -0.000150 0.008833 -0.008840
v -0.000145 0.008833 -0.008840
v -0.000210 0.008872 -0.008840
v -0.000148 0.008833 -0.008840
v -0.000143 0.008833 -0.008840
v -0.000210 0.008872 -0.008840
v -0.000145 0.008833 -0.008840
v -0.000140 0.008833 -0.008840
v -0.000210 0.008872 -0.008840
v -0.000143 0.008833 -0.008840
v -0.000138 0.008832 -0.008840
v -0.000210 0.008872 -0.008840
v -0.000140 0.008833 -0.008840
v 0.000020 0.008872 -0.008840
v -0.000210 0.008872 -0.008840
v -0.000138 0.008832 -0.008840
v 0.000020 0.008872 -0.008840
v -0.000138 0.008832 -0.008840
v -0.000136 0.008831 -0.008840
v -0.000210 0.008872 -0.008840
v -0.000174 0.008811 -0.008840
v -0.000173 0.008813 -0.008840
v -0.000131 0.008830 -0.008840
v 0.000020 0.008872 -0.008840
v -0.000133 0.008831 -0.008840
v -0.000133 0.008831 -0.008840
v 0.000020 0.008872 -0.008840
v -0.000136 0.008831 -0.008840
v -0.000175 0.008799 -0.008840
v -0.000175 0.008801 -0.008840
v -0.000210 0.008734 -0.008840
v -0.000056 0.008854 -0.008876
v -0.000064 0.008852 -0.008879
v -0.000085 0.008853 -0.008876
v -0.000038 0.008853 -0.008877
v -0.000017 0.008846 -0.008886
v -0.000017 0.008849 -0.008882
v -0.000008 0.008845 -0.008887
v -0.000027 0.008843 -0.008890
v -0.000056 0.008845 -0.008887
v -0.000058 0.008839 -0.008894
v -0.000064 0.008834 -0.008899
v -0.000084 0.008839 -0.008894
v -0.000017 0.008838 -0.008894
v -0.000018 0.008834 -0.008899
v -0.000002 0.008841 -0.008892
v -0.000053 0.008850 -0.008881
v -0.000079 0.008849 -0.008883
v -0.000082 0.008842 -0.008890
v 0.000020 0.008843 -0.008890
v -0.000143 0.008868 -0.008852
v -0.000147 0.008866 -0.008857
v -0.000210 0.008868 -0.008851
v -0.000132 0.008867 -0.008853
v -0.000183 0.008849 -0.008882
v -0.000171 0.008853 -0.008876
v -0.000148 0.008851 -0.008880
v -0.000210 0.008849 -0.008883
v -0.000210 0.008852 -0.008879
v -0.000169 0.008846 -0.008886
v -0.000149 0.008842 -0.008891
v -0.000210 0.008843 -0.008890
v -0.000134 0.008846 -0.008885
v -0.000140 0.008852 -0.008879
v -0.000162 0.008857 -0.008871
v -0.000134 0.008855 -0.008874
v -0.000210 0.008852 -0.008879
v -0.000210 0.008854 -0.008875
v -0.000053 0.008859 -0.008869
v -0.000059 0.008862 -0.008863
v -0.000024 0.008860 -0.008866
v -0.000067 0.008857 -0.008871
v -0.000082 0.008860 -0.008866
v -0.000042 0.008864 -0.008859
v -0.000045 0.008867 -0.008854
v 0.000020 0.008866 -0.008855
v -0.000057 0.008865 -0.008858
v -0.000034 0.008857 -0.008871
v 0.000020 0.008862 -0.008863
v 0.000020 0.008859 -0.008867
v -0.000176 0.008863 -0.008861
v -0.000169 0.008860 -0.008866
v -0.000210 0.008862 -0.008863
v -0.000136 0.008862 -0.008863
v -0.000210 0.008857 -0.008871
v -0.000100 0.008857 -0.008871
v -0.000085 0.008862 -0.008863
v -0.000123 0.008858 -0.008870
v -0.000102 0.008853 -0.008877
v -0.000092 0.008852 -0.008879
v -0.000114 0.008850 -0.008881
v -0.000111 0.008846 -0.008886
v -0.000067 0.008865 -0.008857
v 0.000020 0.008864 -0.008859
v -0.000121 0.008865 -0.008857
v -0.000097 0.008866 -0.008855
v -0.000151 0.008870 -0.008847
v -0.000086 0.008867 -0.008853
v -0.000096 0.008870 -0.008847
v -0.000040 0.008870 -0.008846
v 0.000020 0.008836 -0.008897
v -0.000056 0.008830 -0.008903
v 0.000020 0.008854 -0.008875
v 0.000020 0.008852 -0.008879
v 0.000020 0.008849 -0.008883
v -0.000106 0.008841 -0.008891
v -0.000210 0.008870 -0.008847
v -0.000210 0.008868 -0.008851
v 0.000020 0.008870 -0.008847
v -0.000149 0.008836 -0.008897
v -0.000126 0.008836 -0.008897
v -0.000151 0.008832 -0.008900
v -0.000152 0.008832 -0.008901
v -0.000210 0.008849 -0.008883
v -0.000210 0.008846 -0.008886
v -0.000143 0.008833 -0.008900
v 0.000020 0.008836 -0.008897
v 0.000020 0.008840 -0.008893
v -0.000131 0.008830 -0.008903
v -0.000131 0.008830 -0.008903
v 0.000020 0.008868 -0.008851
v 0.000020 0.008866 -0.008855
v 0.000020 0.008843 -0.008890
v 0.000020 0.008840 -0.008893
v -0.000133 0.008830 -0.008902
v -0.000134 0.008831 -0.008902
v 0.000020 0.008836 -0.008897
v 0.000020 0.008833 -0.008900
v -0.000210 0.008864 -0.008859
v -0.000210 0.008866 -0.008855
v -0.000210 0.008854 -0.008875
v -0.000210 0.008857 -0.008871
v 0.000020 0.008857 -0.008871
v -0.000147 0.008833 -0.008900
v -0.000145 0.008833 -0.008900
v 0.000020 0.008846 -0.008886
v 0.000020 0.008849 -0.008883
v -0.000157 0.008830 -0.008902
v -0.000210 0.008833 -0.008900
v -0.000156 0.008831 -0.008902
v -0.000157 0.008830 -0.008902
v -0.000159 0.008830 -0.008903
v -0.000210 0.008833 -0.008900
v -0.000156 0.008831 -0.008902
v -0.000210 0.008833 -0.008900
v -0.000154 0.008832 -0.008901
v -0.000154 0.008832 -0.008901
v -0.000210 0.008833 -0.008900
v -0.000210 0.008836 -0.008897
v -0.000154 0.008832 -0.008901
v -0.000210 0.008836 -0.008897
v -0.000152 0.008832 -0.008901
v -0.000154 0.008832 -0.008901
v -0.000210 0.008836 -0.008897
v -0.000210 0.008840 -0.008893
v -0.000151 0.008832 -0.008900
v -0.000149 0.008833 -0.008900
v -0.000210 0.008843 -0.008890
v -0.000210 0.008846 -0.008886
v -0.000210 0.008852 -0.008879
v 0.000020 0.008843 -0.008890
v 0.000020 0.008846 -0.008886
v -0.000210 0.008857 -0.008871
v -0.000143 0.008833 -0.008900
v -0.000141 0.008833 -0.008900
v -0.000141 0.008833 -0.008900
v -0.000140 0.008832 -0.008900
v 0.000020 0.008833 -0.008900
v 0.000020 0.008830 -0.008903
v -0.000138 0.008832 -0.008901
v -0.000140 0.008832 -0.008900
v -0.000210 0.008840 -0.008893
v -0.000210 0.008843 -0.008890
v -0.000131 0.008830 -0.008903
v -0.000133 0.008830 -0.008902
v -0.000134 0.008831 -0.008902
v -0.000136 0.008832 -0.008901
v 0.000020 0.008830 -0.008903
v -0.000138 0.008832 -0.008901
v -0.000136 0.008832 -0.008901
v 0.000020 0.008836 -0.008897
v -0.000145 0.008833 -0.008900
v -0.000143 0.008833 -0.008900
v -0.000210 0.008859 -0.008867
v -0.000210 0.008862 -0.008863
v 0.000020 0.008854 -0.008875
v -0.000210 0.008857 -0.008871
v -0.000210 0.008859 -0.008867
v 0.000020 0.008852 -0.008879
v 0.000020 0.008854 -0.008875
v -0.000210 0.008862 -0.008863
v -0.000210 0.008864 -0.008859
v 0.000020 0.008857 -0.008871
v 0.000020 0.008859 -0.008867
v 0.000020 0.008870 -0.008847
v 0.000020 0.008868 -0.008851
v 0.000020 0.008872 -0.008842
v 0.000020 0.008870 -0.008847
v 0.000020 0.008868 -0.008851
v 0.000020 0.008864 -0.008859
v 0.000020 0.008866 -0.008855
v -0.000210 0.008870 -0.008847
v -0.000210 0.008872 -0.008842
v 0.000020 0.008864 -0.008859
v 0.000020 0.008862 -0.008863
v -0.000210 0.008870 -0.008847
v -0.000210 0.008868 -0.008851
v -0.000210 0.008866 -0.008855
v -0.000210 0.008868 -0.008851
v -0.000210 0.008866 -0.008855
v 0.000020 0.008854 -0.008875
v 0.000020 0.008857 -0.008871
v 0.000020 0.008849 -0.008883
v -0.000149 0.008833 -0.008900
v -0.000147 0.008833 -0.008900
v -0.000210 0.008840 -0.008893
v -0.000210 0.008833 -0.008900
v -0.000159 0.008830 -0.008903
v -0.000210 0.008830 -0.008903
v -0.000210 0.008846 -0.008886
v -0.000210 0.008830 -0.008903
v -0.000159 0.008830 -0.008903
v -0.000161 0.008829 -0.008904
v -0.000162 0.008827 -0.008905
v -0.000210 0.008830 -0.008903
v -0.000161 0.008829 -0.008904
v -0.000162 0.008827 -0.008905
v -0.000210 0.008827 -0.008905
v -0.000210 0.008830 -0.008903
v -0.000162 0.008827 -0.008905
v -0.000164 0.008826 -0.008906
v -0.000210 0.008827 -0.008905
v -0.000210 0.008827 -0.008905
v -0.000164 0.008826 -0.008906
v -0.000165 0.008825 -0.008906
v -0.000167 0.008824 -0.008907
v -0.000210 0.008827 -0.008905
v -0.000165 0.008825 -0.008906
v -0.000167 0.008824 -0.008907
v -0.000210 0.008824 -0.008907
v -0.000210 0.008827 -0.008905
v -0.000168 0.008822 -0.008908
v -0.000169 0.008821 -0.008909
v -0.000210 0.008824 -0.008907
v -0.000169 0.008821 -0.008909
v -0.000170 0.008819 -0.008910
v -0.000210 0.008821 -0.008909
v -0.000171 0.008817 -0.008910
v -0.000172 0.008815 -0.008911
v -0.000210 0.008817 -0.008910
v -0.000172 0.008815 -0.008911
v -0.000173 0.008813 -0.008912
v -0.000210 0.008814 -0.008912
v -0.000210 0.008814 -0.008912
v -0.000174 0.008811 -0.008912
v -0.000210 0.008810 -0.008912
v -0.000210 0.008810 -0.008912
v -0.000174 0.008811 -0.008912
v -0.000174 0.008809 -0.008912
v -0.000210 0.008807 -0.008913
v -0.000210 0.008810 -0.008912
v -0.000175 0.008807 -0.008913
v -0.000210 0.008803 -0.008913
v -0.000210 0.008807 -0.008913
v -0.000175 0.008805 -0.008913
v -0.000175 0.008801 -0.008913
v -0.000210 0.008803 -0.008913
v -0.000175 0.008803 -0.008913
v -0.000173 0.008793 -0.008912
v -0.000172 0.008791 -0.008911
v -0.000210 0.008792 -0.008912
v -0.000159 0.008776 -0.008903
v -0.000210 0.008776 -0.008903
v -0.000161 0.008777 -0.008904
v -0.000161 0.008777 -0.008904
v -0.000210 0.008776 -0.008903
v -0.000162 0.008778 -0.008905
v -0.000162 0.008778 -0.008905
v -0.000210 0.008776 -0.008903
v -0.000210 0.008779 -0.008905
v -0.000164 0.008780 -0.008906
v -0.000162 0.008778 -0.008905
v -0.000210 0.008779 -0.008905
v -0.000165 0.008781 -0.008906
v -0.000164 0.008780 -0.008906
v -0.000210 0.008779 -0.008905
v -0.000167 0.008782 -0.008907
v -0.000165 0.008781 -0.008906
v -0.000210 0.008779 -0.008905
v -0.000210 0.008782 -0.008907
v -0.000167 0.008782 -0.008907
v -0.000210 0.008779 -0.008905
v -0.000210 0.008782 -0.008907
v -0.000168 0.008784 -0.008908
v -0.000167 0.008782 -0.008907
v -0.000210 0.008782 -0.008907
v -0.000169 0.008785 -0.008909
v -0.000168 0.008784 -0.008908
v -0.000210 0.008782 -0.008907
v -0.000210 0.008785 -0.008909
v -0.000169 0.008785 -0.008909
v -0.000169 0.008785 -0.008909
v -0.000210 0.008785 -0.008909
v -0.000170 0.008787 -0.008910
v -0.000210 0.008789 -0.008910
v -0.000172 0.008791 -0.008911
v -0.000171 0.008789 -0.008910
v -0.000170 0.008787 -0.008910
v -0.000210 0.008789 -0.008910
v -0.000171 0.008789 -0.008910
v -0.000210 0.008789 -0.008910
v -0.000210 0.008792 -0.008912
v -0.000172 0.008791 -0.008911
v -0.000174 0.008795 -0.008912
v -0.000173 0.008793 -0.008912
v -0.000210 0.008792 -0.008912
v -0.000210 0.008796 -0.008912
v -0.000174 0.008795 -0.008912
v -0.000210 0.008792 -0.008912
v -0.000175 0.008799 -0.008913
v -0.000210 0.008796 -0.008912
v -0.000210 0.008799 -0.008913
v -0.000175 0.008799 -0.008913
v -0.000174 0.008797 -0.008912
v -0.000210 0.008796 -0.008912
v -0.000175 0.008801 -0.008913
v -0.000175 0.008799 -0.008913
v -0.000210 0.008799 -0.008913
v -0.000210 0.008803 -0.008913
v -0.000175 0.008801 -0.008913
v -0.000210 0.008799 -0.008913
v -0.000175 0.008805 -0.008913
v -0.000175 0.008803 -0.008913
v -0.000210 0.008803 -0.008913
v -0.000175 0.008807 -0.008913
v -0.000175 0.008805 -0.008913
v -0.000210 0.008807 -0.008913
v -0.000174 0.008809 -0.008912
v -0.000175 0.008807 -0.008913
v -0.000210 0.008810 -0.008912
v -0.000174 0.008811 -0.008912
v -0.000210 0.008814 -0.008912
v -0.000173 0.008813 -0.008912
v -0.000210 0.008814 -0.008912
v -0.000210 0.008817 -0.008910
v -0.000172 0.008815 -0.008911
v -0.000210 0.008817 -0.008910
v -0.000170 0.008819 -0.008910
v -0.000171 0.008817 -0.008910
v -0.000210 0.008817 -0.008910
v -0.000210 0.008821 -0.008909
v -0.000170 0.008819 -0.008910
v -0.000210 0.008821 -0.008909
v -0.000210 0.008824 -0.008907
v -0.000169 0.008821 -0.008909
v -0.000210 0.008824 -0.008907
v -0.000167 0.008824 -0.008907
v -0.000168 0.008822 -0.008908
v -0.000210 0.008796 -0.008912
v -0.000174 0.008797 -0.008912
v -0.000174 0.008795 -0.008912
v -0.000210 0.008789 -0.008910
v -0.000170 0.008787 -0.008910
v -0.000210 0.008785 -0.008909
v -0.000087 0.008816 -0.008911
v -0.000089 0.008818 -0.008910
v -0.000068 0.008817 -0.008911
v -0.000099 0.008815 -0.008911
v -0.000012 0.008817 -0.008910
v -0.000012 0.008820 -0.008909
v 0.000005 0.008818 -0.008910
v -0.000018 0.008816 -0.008911
v -0.000023 0.008819 -0.008910
v -0.000026 0.008814 -0.008911
v -0.000031 0.008816 -0.008911
v -0.000038 0.008819 -0.008910
v -0.000045 0.008816 -0.008911
v -0.000030 0.008822 -0.008908
v -0.000001 0.008808 -0.008913
v -0.000005 0.008805 -0.008913
v -0.000011 0.008809 -0.008913
v 0.000013 0.008810 -0.008912
v 0.000020 0.008807 -0.008913
v -0.000015 0.008791 -0.008911
v -0.000011 0.008788 -0.008910
v -0.000033 0.008790 -0.008911
v -0.000008 0.008792 -0.008911
v -0.000042 0.008785 -0.008909
v -0.000047 0.008782 -0.008907
v -0.000060 0.008784 -0.008908
v -0.000030 0.008786 -0.008909
v -0.000028 0.008783 -0.008908
v -0.000054 0.008780 -0.008906
v -0.000026 0.008780 -0.008906
v -0.000097 0.008791 -0.008911
v -0.000097 0.008794 -0.008912
v -0.000090 0.008792 -0.008912
v -0.000104 0.008787 -0.008910
v -0.000118 0.008791 -0.008911
v -0.000106 0.008785 -0.008909
v -0.000120 0.008787 -0.008910
v -0.000088 0.008789 -0.008910
v -0.000085 0.008785 -0.008909
v -0.000111 0.008813 -0.008912
v -0.000116 0.008811 -0.008912
v -0.000117 0.008813 -0.008912
v -0.000092 0.008812 -0.008912
v 0.000002 0.008815 -0.008911
v -0.000002 0.008812 -0.008912
v -0.000006 0.008816 -0.008911
v 0.000015 0.008816 -0.008911
v 0.000020 0.008814 -0.008912
v 0.000020 0.008810 -0.008912
v 0.000020 0.008807 -0.008913
v 0.000020 0.008814 -0.008912
v -0.000014 0.008813 -0.008912
v 0.000020 0.008814 -0.008912
v 0.000020 0.008810 -0.008912
v 0.000020 0.008817 -0.008910
v 0.000020 0.008814 -0.008912
v 0.000020 0.008817 -0.008910
v -0.000008 0.008780 -0.008906
v -0.000007 0.008782 -0.008907
v 0.000001 0.008782 -0.008907
v -0.000021 0.008778 -0.008904
v -0.000056 0.008776 -0.008903
v -0.000055 0.008778 -0.008904
v -0.000062 0.008778 -0.008904
v -0.000098 0.008779 -0.008905
v -0.000076 0.008781 -0.008906
v -0.000067 0.008785 -0.008909
v -0.000066 0.008788 -0.008910
v -0.000050 0.008788 -0.008910
v -0.000075 0.008784 -0.008908
v 0.000009 0.008787 -0.008909
v 0.000004 0.008784 -0.008908
v 0.000020 0.008785 -0.008909
v 0.000003 0.008790 -0.008911
v -0.000001 0.008793 -0.008912
v 0.000020 0.008792 -0.008912
v -0.000033 0.008798 -0.008913
v -0.000032 0.008801 -0.008913
v -0.000011 0.008798 -0.008913
v -0.000040 0.008796 -0.008912
v -0.000048 0.008798 -0.008913
v -0.000042 0.008793 -0.008912
v -0.000053 0.008796 -0.008912
v -0.000028 0.008796 -0.008912
v -0.000026 0.008793 -0.008912
v -0.000065 0.008791 -0.008911
v -0.000059 0.008793 -0.008912
v -0.000052 0.008789 -0.008911
v -0.000072 0.008793 -0.008912
v -0.000069 0.008796 -0.008912
v -0.000063 0.008799 -0.008913
v -0.000007 0.008822 -0.008908
v -0.000008 0.008825 -0.008907
v 0.000000 0.008822 -0.008908
v -0.000024 0.008822 -0.008908
v 0.000004 0.008780 -0.008905
v 0.000020 0.008782 -0.008907
v -0.000104 0.008797 -0.008913
v -0.000099 0.008800 -0.008913
v -0.000086 0.008798 -0.008913
v -0.000116 0.008797 -0.008912
v -0.000115 0.008799 -0.008913
v -0.000096 0.008803 -0.008913
v -0.000080 0.008802 -0.008913
v -0.000115 0.008799 -0.008913
v -0.000115 0.008801 -0.008913
v -0.000102 0.008809 -0.008913
v -0.000099 0.008806 -0.008913
v -0.000115 0.008807 -0.008913
v -0.000086 0.008808 -0.008913
v -0.000115 0.008803 -0.008913
v -0.000084 0.008805 -0.008913
v -0.000057 0.008803 -0.008913
v -0.000051 0.008806 -0.008913
v -0.000041 0.008803 -0.008913
v -0.000071 0.008803 -0.008913
v -0.000063 0.008807 -0.008913
v -0.000051 0.008800 -0.008913
v -0.000049 0.008809 -0.008913
v -0.000028 0.008807 -0.008913
v 0.000004 0.008797 -0.008913
v 0.000001 0.008801 -0.008913
v 0.000020 0.008799 -0.008913
v -0.000008 0.008795 -0.008912
v -0.000013 0.008795 -0.008912
v -0.000093 0.008783 -0.008907
v -0.000110 0.008781 -0.008906
v -0.000131 0.008776 -0.008903
v -0.000129 0.008777 -0.008904
v -0.000015 0.008785 -0.008908
v -0.000085 0.008795 -0.008912
v 0.000020 0.008821 -0.008909
v 0.000020 0.008824 -0.008907
v -0.000003 0.008828 -0.008905
v -0.000021 0.008828 -0.008904
v 0.000020 0.008830 -0.008903
v 0.000020 0.008827 -0.008905
v 0.000020 0.008830 -0.008903
v -0.000029 0.008825 -0.008906
v -0.000053 0.008826 -0.008905
v 0.000020 0.008827 -0.008905
v -0.000087 0.008822 -0.008908
v -0.000121 0.008821 -0.008909
v -0.000076 0.008824 -0.008907
v -0.000072 0.008821 -0.008909
v -0.000095 0.008825 -0.008907
v -0.000087 0.008827 -0.008905
v -0.000122 0.008822 -0.008908
v -0.000123 0.008824 -0.008907
v -0.000069 0.008810 -0.008912
v -0.000072 0.008814 -0.008912
v -0.000057 0.008814 -0.008911
v -0.000026 0.008803 -0.008913
v -0.000050 0.008813 -0.008912
v -0.000051 0.008819 -0.008910
v -0.000045 0.008823 -0.008908
v -0.000060 0.008816 -0.008911
v -0.000023 0.008811 -0.008912
v 0.000020 0.008803 -0.008913
v -0.000122 0.008784 -0.008908
v -0.000126 0.008780 -0.008906
v -0.000125 0.008781 -0.008906
v -0.000128 0.008779 -0.008905
v -0.000126 0.008780 -0.008906
v 0.000020 0.008785 -0.008909
v 0.000020 0.008782 -0.008907
v 0.000020 0.008779 -0.008905
v 0.000020 0.008776 -0.008903
v -0.000115 0.008803 -0.008913
v -0.000115 0.008805 -0.008913
v -0.000116 0.008811 -0.008912
v -0.000116 0.008809 -0.008912
v -0.000115 0.008807 -0.008913
v -0.000115 0.008805 -0.008913
v 0.000020 0.008796 -0.008912
v 0.000020 0.008799 -0.008913
v 0.000020 0.008814 -0.008912
v 0.000020 0.008807 -0.008913
v -0.000120 0.008819 -0.008910
v -0.000119 0.008817 -0.008910
v -0.000118 0.008815 -0.008911
v 0.000020 0.008821 -0.008909
v 0.000020 0.008824 -0.008907
v -0.000125 0.008825 -0.008906
v -0.000123 0.008824 -0.008907
v 0.000020 0.008779 -0.008905
v 0.000020 0.008782 -0.008907
v -0.000128 0.008779 -0.008905
v -0.000129 0.008777 -0.008904
v 0.000020 0.008789 -0.008910
v 0.000020 0.008785 -0.008909
v -0.000120 0.008787 -0.008910
v -0.000119 0.008789 -0.008910
v -0.000116 0.008795 -0.008912
v -0.000115 0.008807 -0.008913
v -0.000116 0.008809 -0.008912
v 0.000020 0.008830 -0.008903
v -0.000119 0.008817 -0.008910
v -0.000120 0.008819 -0.008910
v -0.000129 0.008829 -0.008904
v -0.000131 0.008830 -0.008903
v -0.000131 0.008830 -0.008903
v -0.000128 0.008828 -0.008905
v -0.000129 0.008829 -0.008904
v -0.000126 0.008826 -0.008906
v -0.000128 0.008828 -0.008905
v -0.000126 0.008826 -0.008906
v -0.000125 0.008825 -0.008906
v -0.000126 0.008826 -0.008906
v -0.000121 0.008821 -0.008909
v -0.000121 0.008821 -0.008909
v -0.000122 0.008822 -0.008908
v -0.000120 0.008819 -0.008910
v -0.000121 0.008821 -0.008909
v 0.000020 0.008807 -0.008913
v 0.000020 0.008803 -0.008913
v -0.000118 0.008815 -0.008911
v -0.000117 0.008813 -0.008912
v -0.000118 0.008815 -0.008911
v 0.000020 0.008799 -0.008913
v 0.000020 0.008803 -0.008913
v -0.000116 0.008811 -0.008912
v 0.000020 0.008792 -0.008912
v 0.000020 0.008796 -0.008912
v 0.000020 0.008796 -0.008912
v 0.000020 0.008789 -0.008910
v 0.000020 0.008792 -0.008912
v -0.000115 0.008803 -0.008913
v 0.000020 0.008782 -0.008907
v -0.000115 0.008799 -0.008913
v 0.000020 0.008789 -0.008910
v -0.000116 0.008797 -0.008912
v -0.000116 0.008795 -0.008912
v -0.000117 0.008793 -0.008912
v -0.000118 0.008791 -0.008911
v 0.000020 0.008776 -0.008903
v -0.000131 0.008776 -0.008903
v -0.000119 0.008789 -0.008910
v -0.000118 0.008791 -0.008911
v -0.000128 0.008779 -0.008905
v -0.000125 0.008781 -0.008906
v -0.000123 0.008782 -0.008907
v -0.000123 0.008782 -0.008907
v -0.000122 0.008784 -0.008908
v -0.000121 0.008785 -0.008909
v -0.000122 0.008784 -0.008908
v -0.000121 0.008785 -0.008909
v -0.000120 0.008787 -0.008910
v 0.000020 0.008776 -0.008903
v -0.000117 0.008793 -0.008912
v -0.000117 0.008793 -0.008912
v -0.000116 0.008795 -0.008912
v -0.000115 0.008801 -0.008913
v -0.000115 0.008803 -0.008913
v 0.000020 0.008827 -0.008905
v 0.000020 0.008824 -0.008907
v 0.000020 0.008821 -0.008909
v 0.000020 0.008817 -0.008910
v -0.000026 0.008757 -0.008883
v -0.000029 0.008761 -0.008887
v 0.000020 0.008760 -0.008886
v -0.000036 0.008756 -0.008882
v -0.000096 0.008774 -0.008901
v -0.000101 0.008770 -0.008897
v -0.000134 0.008775 -0.008902
v -0.000059 0.008770 -0.008897
v -0.000143 0.008738 -0.008852
v -0.000147 0.008740 -0.008857
v -0.000132 0.008739 -0.008853
v -0.000151 0.008736 -0.008847
v -0.000210 0.008738 -0.008851
v -0.000058 0.008757 -0.008883
v -0.000064 0.008754 -0.008879
v -0.000082 0.008757 -0.008882
v -0.000053 0.008747 -0.008869
v -0.000059 0.008744 -0.008863
v -0.000082 0.008746 -0.008866
v -0.000034 0.008749 -0.008871
v -0.000024 0.008746 -0.008866
v -0.000042 0.008742 -0.008859
v -0.000045 0.008739 -0.008854
v -0.000057 0.008741 -0.008858
v 0.000020 0.008742 -0.008859
v 0.000020 0.008749 -0.008871
v -0.000176 0.008743 -0.008861
v -0.000169 0.008746 -0.008866
v -0.000136 0.008744 -0.008863
v -0.000210 0.008742 -0.008859
v -0.000210 0.008744 -0.008863
v -0.000162 0.008749 -0.008871
v -0.000210 0.008744 -0.008863
v -0.000210 0.008747 -0.008867
v -0.000055 0.008751 -0.008874
v -0.000028 0.008753 -0.008877
v -0.000067 0.008749 -0.008871
v -0.000085 0.008753 -0.008876
v -0.000100 0.008749 -0.008871
v -0.000085 0.008744 -0.008863
v -0.000123 0.008748 -0.008870
v -0.000134 0.008751 -0.008874
v -0.000140 0.008754 -0.008879
v -0.000102 0.008753 -0.008877
v -0.000158 0.008753 -0.008877
v -0.000092 0.008754 -0.008879
v -0.000114 0.008756 -0.008881
v -0.000111 0.008760 -0.008886
v -0.000146 0.008759 -0.008885
v -0.000067 0.008741 -0.008857
v -0.000121 0.008741 -0.008857
v -0.000097 0.008740 -0.008855
v -0.000075 0.008761 -0.008887
v -0.000092 0.008761 -0.008888
v -0.000050 0.008765 -0.008892
v -0.000042 0.008768 -0.008895
v -0.000017 0.008765 -0.008892
v -0.000078 0.008766 -0.008893
v 0.000020 0.008766 -0.008893
v 0.000020 0.008763 -0.008890
v -0.000014 0.008755 -0.008879
v 0.000020 0.008752 -0.008875
v -0.000086 0.008739 -0.008853
v -0.000096 0.008736 -0.008847
v -0.000157 0.008771 -0.008898
v -0.000152 0.008774 -0.008901
v -0.000151 0.008774 -0.008900
v -0.000168 0.008765 -0.008892
v -0.000210 0.008770 -0.008897
v -0.000161 0.008761 -0.008887
v -0.000210 0.008763 -0.008890
v -0.000133 0.008769 -0.008895
v -0.000135 0.008763 -0.008890
v -0.000210 0.008752 -0.008875
v -0.000171 0.008757 -0.008882
v -0.000210 0.008754 -0.008879
v -0.000210 0.008757 -0.008883
v -0.000052 0.008771 -0.008898
v 0.000020 0.008776 -0.008903
v -0.000109 0.008765 -0.008891
v -0.000210 0.008736 -0.008847
v -0.000210 0.008738 -0.008851
v -0.000210 0.008740 -0.008855
v -0.000040 0.008736 -0.008846
v 0.000020 0.008736 -0.008847
v 0.000020 0.008738 -0.008851
v -0.000210 0.008736 -0.008847
v -0.000210 0.008734 -0.008842
v -0.000210 0.008738 -0.008851
v -0.000210 0.008736 -0.008847
v -0.000210 0.008749 -0.008871
v -0.000210 0.008752 -0.008875
v -0.000210 0.008749 -0.008871
v -0.000210 0.008747 -0.008867
v 0.000020 0.008757 -0.008883
v 0.000020 0.008749 -0.008871
v 0.000020 0.008747 -0.008867
v 0.000020 0.008740 -0.008855
v 0.000020 0.008742 -0.008859
v -0.000210 0.008760 -0.008886
v -0.000210 0.008757 -0.008883
v 0.000020 0.008770 -0.008897
v 0.000020 0.008773 -0.008900
v 0.000020 0.008752 -0.008875
v -0.000143 0.008773 -0.008900
v -0.000141 0.008773 -0.008900
v -0.000145 0.008773 -0.008900
v -0.000143 0.008773 -0.008900
v 0.000020 0.008763 -0.008890
v 0.000020 0.008760 -0.008886
v -0.000210 0.008749 -0.008871
v -0.000140 0.008774 -0.008900
v -0.000141 0.008773 -0.008900
v -0.000210 0.008760 -0.008886
v -0.000210 0.008776 -0.008903
v -0.000159 0.008776 -0.008903
v -0.000210 0.008773 -0.008900
v -0.000210 0.008773 -0.008900
v -0.000159 0.008776 -0.008903
v -0.000157 0.008776 -0.008902
v -0.000156 0.008775 -0.008902
v -0.000210 0.008773 -0.008900
v -0.000157 0.008776 -0.008902
v -0.000156 0.008775 -0.008902
v -0.000154 0.008774 -0.008901
v -0.000154 0.008774 -0.008901
v -0.000152 0.008774 -0.008901
v -0.000147 0.008773 -0.008900
v -0.000149 0.008773 -0.008900
v -0.000147 0.008773 -0.008900
v -0.000145 0.008773 -0.008900
v -0.000210 0.008770 -0.008897
v -0.000210 0.008766 -0.008893
v -0.000210 0.008763 -0.008890
v -0.000210 0.008766 -0.008893
v 0.000020 0.008752 -0.008875
v 0.000020 0.008749 -0.008871
v 0.000020 0.008747 -0.008867
v 0.000020 0.008744 -0.008863
v -0.000210 0.008752 -0.008875
v -0.000210 0.008754 -0.008879
v -0.000210 0.008740 -0.008855
v -0.000210 0.008738 -0.008851
v -0.000210 0.008742 -0.008859
v -0.000210 0.008740 -0.008855
v 0.000020 0.008736 -0.008847
v 0.000020 0.008734 -0.008842
v -0.000210 0.008744 -0.008863
v 0.000020 0.008736 -0.008847
v 0.000020 0.008738 -0.008851
v 0.000020 0.008740 -0.008855
v -0.000210 0.008754 -0.008879
v 0.000020 0.008752 -0.008875
v 0.000020 0.008754 -0.008879
v -0.000138 0.008774 -0.008901
v -0.000140 0.008774 -0.008900
v 0.000020 0.008757 -0.008883
v 0.000020 0.008760 -0.008886
v 0.000020 0.008770 -0.008897
v 0.000020 0.008773 -0.008900
v 0.000020 0.008773 -0.008900
v 0.000020 0.008776 -0.008903
v 0.000020 0.008760 -0.008886
v -0.000131 0.008776 -0.008903
v -0.000131 0.008776 -0.008903
v -0.000133 0.008776 -0.008902
v -0.000133 0.008776 -0.008902
v -0.000134 0.008775 -0.008902
v -0.000134 0.008775 -0.008902
v -0.000136 0.008774 -0.008901
v -0.000136 0.008774 -0.008901
v -0.000138 0.008774 -0.008901
v 0.000020 0.008770 -0.008897
v 0.000020 0.008766 -0.008893
v 0.000020 0.008757 -0.008883
v 0.000020 0.008754 -0.008879
v 0.000020 0.008740 -0.008855
v 0.000020 0.008738 -0.008851
v 0.000020 0.008744 -0.008863
v 0.000020 0.008742 -0.008859
v -0.000145 0.008773 -0.008900
v -0.000210 0.008760 -0.008886
v -0.000210 0.008763 -0.008890
v -0.000210 0.008770 -0.008897
v -0.000210 0.008773 -0.008900
v -0.000151 0.008774 -0.008900
v -0.000149 0.008773 -0.008900
v -0.000138 0.008774 -0.008901
v -0.000210 0.008773 -0.008900
v -0.000156 0.008775 -0.008902
vn -1.0000 -0.0000 -0.0000
vn -1.0000 -0.0001 -0.0000
vn -1.0000 0.0001 -0.0000
vn 1.0000 -0.0000 -0.0000
vn 1.0000 -0.0000 0.0001
vn -0.0000 -1.0000 -0.0000
vn -0.0000 -1.0000 -0.0001
vn -0.9977 -0.0680 0.0002
vn -1.0000 -0.0020 -0.0000
vn -0.9897 -0.1430 -0.0000
vn -0.9974 -0.0726 -0.0000
vn -0.9771 -0.2127 -0.0000
vn -0.9908 -0.1355 -0.0000
vn -0.9793 -0.2024 -0.0000
vn -0.9597 -0.2810 -0.0000
vn -0.9633 -0.2685 0.0001
vn -0.9376 -0.3477 -0.0000
vn -0.9428 -0.3333 -0.0000
vn -0.9111 -0.4121 -0.0000
vn -0.9181 -0.3965 0.0002
vn -0.8890 -0.4579 0.0001
vn -0.8806 -0.4738 -0.0000
vn -0.8464 -0.5325 -0.0000
vn -0.8559 -0.5172 0.0002
vn -0.8090 -0.5879 -0.0000
vn -0.8188 -0.5741 -0.0000
vn -0.7779 -0.6284 -0.0002
vn -0.7685 -0.6399 -0.0000
vn -0.7250 -0.6887 -0.0000
vn -0.6787 -0.7344 -0.0000
vn -0.7334 -0.6798 -0.0000
vn -0.5228 -0.8525 -0.0000
vn -0.5240 -0.8517 -0.0000
vn -0.4650 -0.8853 -0.0000
vn -0.5806 -0.8142 -0.0001
vn -0.5775 -0.8164 -0.0000
vn -0.6345 -0.7729 -0.0002
vn -0.6295 -0.7770 -0.0000
vn -0.6856 -0.7280 -0.0003
vn -0.9976 0.0690 -0.0000
vn -0.9967 0.0811 -0.0000
vn -0.9902 0.1394 -0.0000
vn -0.9868 0.1617 -0.0000
vn -0.9779 0.2091 -0.0000
vn -0.9705 0.2412 0.0001
vn -0.9607 0.2775 -0.0000
vn -0.9389 0.3443 -0.0000
vn -0.9477 0.3191 0.0002
vn -0.9187 0.3949 0.0002
vn -0.9126 0.4089 -0.0000
vn -0.8822 0.4709 -0.0000
vn -0.8837 0.4680 0.0001
vn -0.8481 0.5299 -0.0000
vn -0.8428 0.5382 0.0001
vn -0.7964 0.6048 -0.0000
vn -0.8106 0.5856 -0.0000
vn -0.7447 0.6674 -0.0000
vn -0.6796 0.7336 -0.0000
vn -0.6882 0.7255 -0.0003
vn -0.7262 0.6874 -0.0000
vn -0.7699 0.6381 -0.0000
vn -0.6302 0.7765 -0.0000
vn -0.5778 0.8162 -0.0000
vn -0.5228 0.8524 -0.0000
vn -0.5618 0.8273 -0.0001
vn -0.6270 0.7790 -0.0001
vn -0.4650 0.8853 -0.0000
vn -0.4927 0.8702 -0.0001
vn -0.4124 0.9110 -0.0000
vn -0.4208 0.9072 0.0001
vn -0.3576 0.9339 -0.0000
vn -0.3457 0.9383 -0.0001
vn -0.3008 0.9537 -0.0000
vn -0.2684 0.9633 -0.0001
vn -0.2423 0.9702 -0.0000
vn -0.1895 0.9819 -0.0001
vn -0.1825 0.9832 -0.0000
vn -0.1220 0.9925 -0.0000
vn -0.0605 0.9982 -0.0000
vn -0.1093 0.9940 -0.0002
vn -0.0283 0.9996 -0.0003
vn 0.0008 1.0000 -0.0000
vn 0.0624 0.9981 -0.0000
vn 0.0530 0.9986 -0.0000
vn 0.1337 0.9910 0.0001
vn 0.1235 0.9923 -0.0000
vn 0.2137 0.9769 -0.0002
vn 0.1836 0.9830 -0.0000
vn 0.2922 0.9564 -0.0000
vn 0.2433 0.9700 -0.0000
vn 0.3687 0.9295 -0.0002
vn 0.3014 0.9535 -0.0000
vn 0.3579 0.9338 -0.0000
vn 0.4429 0.8966 -0.0004
vn 0.4125 0.9109 -0.0000
vn 0.4649 0.8854 -0.0000
vn 0.5142 0.8577 -0.0003
vn 0.5226 0.8526 -0.0000
vn 0.5821 0.8131 -0.0002
vn 0.5775 0.8164 -0.0000
vn 0.6295 0.7770 -0.0000
vn 0.6461 0.7632 -0.0000
vn 0.7058 0.7084 -0.0001
vn 0.6787 0.7344 -0.0000
vn 0.7250 0.6887 -0.0000
vn 0.7610 0.6488 0.0001
vn 0.7685 0.6399 -0.0000
vn 0.8090 0.5878 -0.0000
vn 0.8112 0.5848 -0.0000
vn 0.8559 0.5171 0.0001
vn 0.8949 0.4462 0.0003
vn 0.8464 0.5325 -0.0000
vn 0.8806 0.4738 -0.0000
vn 0.9282 0.3720 0.0002
vn 0.9111 0.4121 -0.0000
vn 0.9376 0.3477 -0.0000
vn 0.9554 0.2955 0.0003
vn 0.9597 0.2810 -0.0000
vn 0.9905 0.1374 0.0001
vn 0.9762 0.2171 0.0004
vn 0.9771 0.2127 -0.0000
vn 0.9897 0.1430 -0.0000
vn 0.9779 -0.2091 -0.0000
vn 0.9607 -0.2775 -0.0000
vn 0.9642 -0.2651 -0.0000
vn 0.9984 0.0565 -0.0002
vn 0.9974 0.0726 -0.0000
vn 0.8822 -0.4708 -0.0000
vn 0.8481 -0.5298 -0.0000
vn 0.8719 -0.4897 -0.0002
vn 0.7262 -0.6875 -0.0000
vn 0.7280 -0.6856 -0.0000
vn 0.7813 -0.6242 -0.0000
vn 0.5228 -0.8524 -0.0000
vn 0.6073 -0.7945 -0.0001
vn 0.5778 -0.8162 -0.0000
vn 0.4713 -0.8820 -0.0018
vn 0.4125 -0.9110 -0.0000
vn 0.3981 -0.9173 0.0002
vn 0.2433 -0.9700 -0.0000
vn 0.2447 -0.9696 -0.0000
vn 0.3226 -0.9465 -0.0000
vn 0.1235 -0.9923 -0.0000
vn 0.1652 -0.9863 -0.0002
vn 0.1839 -0.9829 -0.0000
vn 0.0624 -0.9981 -0.0000
vn 0.0035 -1.0000 -0.0003
vn 0.0846 -0.9964 -0.0003
vn 0.0010 -1.0000 -0.0000
vn -0.0606 -0.9982 -0.0000
vn -0.1218 -0.9925 -0.0000
vn -0.0776 -0.9970 -0.0000
vn -0.1825 -0.9832 -0.0000
vn -0.1582 -0.9874 -0.0002
vn -0.2424 -0.9702 -0.0000
vn -0.2378 -0.9713 0.0001
vn -0.3008 -0.9537 -0.0000
vn -0.3159 -0.9488 -0.0004
vn -0.4124 -0.9110 -0.0000
vn -0.3916 -0.9201 0.0002
vn -0.3576 -0.9339 0.0005
vn 0.3014 -0.9535 -0.0000
vn 0.3579 -0.9338 -0.0000
vn 0.4649 -0.8854 -0.0000
vn 0.5413 -0.8408 0.0003
vn 0.6302 -0.7765 -0.0000
vn 0.6700 -0.7424 0.0001
vn 0.6796 -0.7336 -0.0000
vn 0.7699 -0.6382 -0.0000
vn 0.8293 -0.5588 0.0001
vn 0.8105 -0.5857 -0.0000
vn 0.9087 -0.4174 0.0001
vn 0.9126 -0.4088 -0.0000
vn 0.9396 -0.3424 0.0001
vn 0.9389 -0.3442 -0.0000
vn 0.9825 -0.1861 -0.0000
vn 0.9902 -0.1394 -0.0000
vn 0.9944 -0.1057 -0.0002
vn 0.9976 -0.0690 -0.0000
vn 0.9997 -0.0247 -0.0000
vn 1.0000 0.0020 0.0001
vn -0.0000 1.0000 -0.0000
vn -0.0000 1.0000 -0.0001
vn -0.0000 1.0000 -0.0002
vn -0.0000 -0.0000 1.0000
vn 0.0001 -0.0000 1.0000
vn 0.0002 -0.0000 1.0000
vn -0.0003 -0.0000 1.0000
vn -0.0002 -0.0000 1.0000
vn -0.0001 -0.0000 1.0000
vn -0.0000 0.8154 -0.5788
vn -0.0001 0.8016 -0.5979
vn -0.0000 0.8131 -0.5821
vn -0.0000 0.8087 -0.5882
vn -0.0000 0.7651 -0.6439
vn -0.0000 0.7879 -0.6158
vn -0.0000 0.7593 -0.6508
vn -0.0000 0.7473 -0.6645
vn 0.0001 0.7621 -0.6474
vn -0.0000 0.7216 -0.6923
vn -0.0000 0.6914 -0.7224
vn -0.0000 0.7248 -0.6890
vn -0.0000 0.7197 -0.6943
vn -0.0000 0.6901 -0.7237
vn -0.0000 0.7355 -0.6775
vn -0.0000 0.7913 -0.6115
vn -0.0000 0.7829 -0.6221
vn -0.0000 0.7435 -0.6688
vn -0.0000 0.7465 -0.6654
vn -0.0000 0.9023 -0.4311
vn -0.0000 0.8890 -0.4578
vn -0.0000 0.9062 -0.4229
vn -0.0000 0.9001 -0.4357
vn -0.0000 0.7884 -0.6151
vn -0.0003 0.8130 -0.5822
vn -0.0000 0.7951 -0.6065
vn -0.0000 0.7839 -0.6208
vn -0.0000 0.8017 -0.5977
vn 0.0001 0.7671 -0.6416
vn -0.0000 0.7391 -0.6736
vn -0.0004 0.7695 -0.6386
vn -0.0000 0.8016 -0.5978
vn -0.0000 0.8352 -0.5500
vn -0.0000 0.8243 -0.5662
vn -0.0000 0.8188 -0.5741
vn -0.0000 0.8457 -0.5337
vn -0.0001 0.8660 -0.5001
vn -0.0000 0.8559 -0.5172
vn -0.0000 0.8351 -0.5501
vn -0.0000 0.8558 -0.5172
vn -0.0000 0.8796 -0.4756
vn -0.0000 0.8978 -0.4405
vn -0.0000 0.8934 -0.4492
vn -0.0000 0.8835 -0.4684
vn -0.0000 0.8658 -0.5004
vn -0.0000 0.8508 -0.5255
vn -0.0000 0.8753 -0.4835
vn -0.0001 0.8560 -0.5170
vn -0.0001 0.8657 -0.5006
vn -0.0000 0.8658 -0.5005
vn -0.0000 0.8422 -0.5392
vn -0.0000 0.8093 -0.5873
vn -0.0000 0.8017 -0.5978
vn -0.0000 0.7899 -0.6133
vn -0.0000 0.7654 -0.6435
vn -0.0000 0.8860 -0.4636
vn -0.0000 0.8800 -0.4750
vn -0.0000 0.8869 -0.4620
vn -0.0001 0.8936 -0.4488
vn -0.0000 0.9168 -0.3994
vn -0.0000 0.8997 -0.4366
vn -0.0000 0.9181 -0.3964
vn -0.0000 0.9194 -0.3934
vn -0.0000 0.7064 -0.7078
vn -0.0000 0.6640 -0.7477
vn -0.0001 0.7381 -0.6747
vn -0.0000 0.7023 -0.7119
vn -0.0000 0.7039 -0.7103
vn -0.0000 0.6823 -0.7311
vn -0.0000 0.6798 -0.7334
vn -0.0000 0.7839 -0.6209
vn -0.0000 0.7655 -0.6434
vn -0.0000 0.6851 -0.7284
vn -0.0000 0.7065 -0.7078
vn -0.0000 0.7354 -0.6776
vn -0.0000 0.7268 -0.6869
vn -0.0000 0.7355 -0.6776
vn -0.0000 0.7464 -0.6655
vn -0.0000 0.6688 -0.7434
vn -0.0000 0.6730 -0.7396
vn -0.0000 0.6855 -0.7281
vn -0.0000 0.8935 -0.4491
vn -0.0000 0.8351 -0.5500
vn -0.0000 0.7592 -0.6508
vn -0.0000 0.6689 -0.7434
vn -0.0000 0.6731 -0.7396
vn -0.0001 0.6687 -0.7435
vn -0.0000 0.6640 -0.7478
vn -0.0000 0.6767 -0.7362
vn -0.0000 0.7065 -0.7077
vn -0.0000 0.7267 -0.6869
vn -0.0001 0.7023 -0.7119
vn -0.0001 0.6841 -0.7294
vn -0.0000 0.7671 -0.6416
vn -0.0000 0.6840 -0.7295
vn -0.0000 0.6901 -0.7238
vn -0.0000 0.6822 -0.7311
vn -0.0000 0.6641 -0.7477
vn -0.0001 0.6688 -0.7435
vn -0.0000 0.8352 -0.5499
vn -0.0000 0.8754 -0.4835
vn -0.0000 0.9293 -0.3694
vn -0.0000 0.9061 -0.4230
vn -0.0000 0.6841 -0.7294
vn -0.0000 0.6395 -0.7688
vn -0.0000 0.6124 -0.7906
vn -0.0000 0.6639 -0.7478
vn -0.0000 0.6393 -0.7689
vn -0.0000 0.6123 -0.7906
vn -0.0000 0.5935 -0.8048
vn -0.0000 0.5827 -0.8127
vn -0.0000 0.5506 -0.8348
vn -0.0000 0.5160 -0.8566
vn -0.0000 0.5181 -0.8553
vn -0.0000 0.5935 -0.8049
vn -0.0000 0.4789 -0.8779
vn -0.0000 0.4394 -0.8983
vn -0.0000 0.3974 -0.9176
vn -0.0000 0.4384 -0.8988
vn -0.0000 0.3531 -0.9356
vn -0.0000 0.3065 -0.9519
vn -0.0000 0.3551 -0.9348
vn -0.0000 0.2581 -0.9661
vn -0.0000 0.2690 -0.9631
vn -0.0000 0.2688 -0.9632
vn -0.0000 0.2080 -0.9781
vn -0.0000 0.1805 -0.9836
vn -0.0000 0.1568 -0.9876
vn -0.0000 0.0906 -0.9959
vn -0.0000 0.1806 -0.9836
vn -0.0000 0.1046 -0.9945
vn -0.0000 -0.0000 -1.0000
vn -0.0000 0.0517 -0.9987
vn -0.0000 -0.0544 -0.9985
vn -0.0000 -0.0014 -1.0000
vn -0.0000 -0.2607 -0.9654
vn -0.0000 -0.3089 -0.9511
vn -0.0000 -0.2690 -0.9631
vn -0.0000 -0.6640 -0.7477
vn -0.0000 -0.6395 -0.7688
vn -0.0000 -0.6126 -0.7904
vn -0.0000 -0.5935 -0.8048
vn -0.0000 -0.5831 -0.8124
vn -0.0000 -0.5513 -0.8343
vn -0.0000 -0.5832 -0.8124
vn -0.0000 -0.5171 -0.8560
vn -0.0000 -0.5181 -0.8553
vn -0.0000 -0.5170 -0.8560
vn -0.0000 -0.5934 -0.8049
vn -0.0000 -0.4803 -0.8771
vn -0.0000 -0.4411 -0.8974
vn -0.0000 -0.4804 -0.8771
vn -0.0000 -0.4385 -0.8987
vn -0.0000 -0.4411 -0.8975
vn -0.0000 -0.4384 -0.8988
vn -0.0000 -0.3994 -0.9168
vn -0.0000 -0.3551 -0.9348
vn -0.0000 -0.3553 -0.9347
vn -0.0000 -0.3552 -0.9348
vn -0.0000 -0.3553 -0.9348
vn -0.0000 -0.2691 -0.9631
vn -0.0000 -0.3090 -0.9511
vn -0.0000 -0.2106 -0.9776
vn -0.0000 -0.2606 -0.9655
vn -0.0000 -0.2689 -0.9632
vn -0.0000 -0.1805 -0.9836
vn -0.0000 -0.2688 -0.9632
vn -0.0000 -0.1072 -0.9942
vn -0.0000 -0.1806 -0.9836
vn -0.0000 -0.0906 -0.9959
vn -0.0000 -0.1074 -0.9942
vn -0.0000 -0.1594 -0.9872
vn -0.0000 -0.0545 -0.9985
vn -0.0000 -0.0907 -0.9959
vn -0.0000 0.1045 -0.9945
vn -0.0000 0.0907 -0.9959
vn -0.0000 0.2081 -0.9781
vn -0.0000 0.3552 -0.9348
vn -0.0000 0.3974 -0.9177
vn -0.0000 0.3214 -0.9469
vn -0.0000 0.3856 -0.9227
vn -0.0000 0.3445 -0.9388
vn -0.0000 0.3058 -0.9521
vn -0.0000 0.3615 -0.9324
vn -0.0000 0.4277 -0.9039
vn -0.0001 0.3848 -0.9230
vn -0.0000 0.3305 -0.9438
vn -0.0000 0.3911 -0.9204
vn -0.0000 0.2743 -0.9616
vn -0.0000 0.3289 -0.9444
vn -0.0001 0.4021 -0.9156
vn -0.0000 0.3201 -0.9474
vn -0.0000 0.4667 -0.8844
vn -0.0000 0.1241 -0.9923
vn -0.0000 0.0524 -0.9986
vn -0.0000 0.1532 -0.9882
vn -0.0000 0.1656 -0.9862
vn -0.0000 -0.3053 -0.9523
vn -0.0000 -0.3725 -0.9280
vn -0.0000 -0.3138 -0.9495
vn -0.0000 -0.2802 -0.9599
vn -0.0000 -0.4394 -0.8983
vn -0.0000 -0.5169 -0.8561
vn -0.0000 -0.4775 -0.8786
vn -0.0000 -0.4170 -0.9089
vn -0.0000 -0.4943 -0.8693
vn -0.0000 -0.5766 -0.8170
vn -0.0000 -0.5735 -0.8192
vn -0.0000 -0.2966 -0.9550
vn -0.0000 -0.2312 -0.9729
vn -0.0000 -0.2661 -0.9639
vn -0.0000 -0.3900 -0.9208
vn -0.0000 -0.3065 -0.9519
vn -0.0000 -0.4541 -0.8909
vn -0.0000 -0.3974 -0.9176
vn -0.0000 -0.3613 -0.9324
vn -0.0000 -0.4471 -0.8945
vn -0.0000 0.2592 -0.9658
vn -0.0000 0.2106 -0.9776
vn -0.0000 0.2606 -0.9655
vn -0.0000 0.2207 -0.9753
vn -0.0000 0.2958 -0.9552
vn -0.0000 0.2250 -0.9744
vn -0.0000 0.3248 -0.9458
vn -0.0000 0.3367 -0.9416
vn -0.0000 0.2689 -0.9632
vn -0.0000 0.1657 -0.9862
vn -0.0000 0.2515 -0.9679
vn -0.0000 0.3368 -0.9416
vn -0.0000 0.2691 -0.9631
vn -0.0000 -0.5803 -0.8144
vn -0.0000 -0.5171 -0.8559
vn -0.0000 -0.5247 -0.8513
vn -0.0000 -0.6347 -0.7727
vn -0.0000 -0.6640 -0.7478
vn -0.0000 -0.6357 -0.7719
vn -0.0000 -0.6175 -0.7866
vn -0.0000 -0.5998 -0.8001
vn -0.0000 -0.5495 -0.8355
vn -0.0000 -0.3709 -0.9287
vn -0.0000 -0.3817 -0.9243
vn -0.0000 -0.4681 -0.8837
vn -0.0000 -0.4123 -0.9110
vn -0.0000 -0.4682 -0.8836
vn -0.0000 -0.4383 -0.8988
vn -0.0000 -0.3278 -0.9447
vn -0.0000 -0.2543 -0.9671
vn -0.0000 -0.1375 -0.9905
vn -0.0000 -0.1172 -0.9931
vn -0.0000 -0.1871 -0.9823
vn 0.0001 -0.1304 -0.9915
vn -0.0000 -0.2595 -0.9658
vn -0.0000 -0.1870 -0.9824
vn -0.0000 -0.1703 -0.9854
vn -0.0000 -0.2618 -0.9651
vn -0.0000 -0.2974 -0.9548
vn -0.0000 -0.2616 -0.9652
vn -0.0000 -0.3379 -0.9412
vn -0.0000 -0.2582 -0.9661
vn -0.0000 -0.1701 -0.9854
vn -0.0000 -0.0992 -0.9951
vn -0.0000 0.4827 -0.8758
vn -0.0000 0.5463 -0.8376
vn -0.0000 0.4717 -0.8818
vn -0.0000 0.4857 -0.8741
vn -0.0000 -0.5860 -0.8103
vn 0.0002 -0.1546 -0.9880
vn -0.0001 -0.0741 -0.9973
vn -0.0000 -0.1204 -0.9927
vn -0.0000 -0.1543 -0.9880
vn -0.0000 -0.1568 -0.9876
vn -0.0000 -0.1046 -0.9945
vn -0.0000 0.0031 -1.0000
vn -0.0000 -0.0239 -0.9997
vn -0.0000 -0.0740 -0.9973
vn -0.0000 -0.1045 -0.9945
vn -0.0000 -0.0517 -0.9987
vn -0.0000 0.1535 -0.9881
vn -0.0000 0.0797 -0.9968
vn -0.0000 0.1072 -0.9942
vn -0.0000 0.1284 -0.9917
vn -0.0000 0.0014 -1.0000
vn -0.0000 0.0451 -0.9990
vn -0.0000 0.0043 -1.0000
vn -0.0000 0.0845 -0.9964
vn -0.0000 0.0044 -1.0000
vn 0.0001 0.0037 -1.0000
vn -0.0000 0.1084 -0.9941
vn -0.0000 -0.0752 -0.9972
vn -0.0000 0.1403 -0.9901
vn -0.0000 0.0992 -0.9951
vn -0.0000 -0.1427 -0.9898
vn -0.0000 -0.0519 -0.9987
vn -0.0000 -0.1947 -0.9809
vn -0.0001 -0.2115 -0.9774
vn -0.0000 -0.5089 -0.8608
vn -0.0000 -0.5559 -0.8313
vn -0.0000 -0.5999 -0.8001
vn -0.0000 -0.4624 -0.8867
vn -0.0000 -0.2036 -0.9791
vn -0.0000 0.6148 -0.7887
vn -0.0000 0.6304 -0.7763
vn -0.0000 0.5597 -0.8287
vn -0.0000 0.5836 -0.8121
vn -0.0000 0.4835 -0.8753
vn -0.0000 0.4411 -0.8975
vn -0.0000 0.5221 -0.8529
vn -0.0000 0.4397 -0.8981
vn -0.0000 0.5387 -0.8425
vn -0.0000 0.6103 -0.7922
vn -0.0000 0.4803 -0.8771
vn -0.0000 0.5170 -0.8560
vn -0.0000 0.2715 -0.9624
vn -0.0000 0.2752 -0.9614
vn -0.0000 0.0033 -1.0000
vn -0.0000 0.2459 -0.9693
vn -0.0000 0.4084 -0.9128
vn -0.0000 0.4880 -0.8728
vn -0.0000 0.3192 -0.9477
vn -0.0000 0.2090 -0.9779
vn -0.0000 -0.4789 -0.8779
vn -0.0000 -0.5559 -0.8312
vn -0.0000 -0.5827 -0.8127
vn -0.0000 -0.5506 -0.8348
vn -0.0000 -0.5558 -0.8313
vn -0.0000 -0.6123 -0.7906
vn -0.0000 -0.5861 -0.8103
vn -0.0000 0.0544 -0.9985
vn -0.0000 0.2107 -0.9776
vn -0.0000 0.1535 -0.9882
vn -0.0000 0.1593 -0.9872
vn -0.0000 0.1073 -0.9942
vn -0.0000 0.0545 -0.9985
vn -0.0000 -0.1426 -0.9898
vn -0.0000 0.3994 -0.9168
vn -0.0000 0.3553 -0.9348
vn -0.0000 0.3059 -0.9521
vn -0.0000 0.3089 -0.9511
vn -0.0000 0.4718 -0.8817
vn -0.0000 0.5513 -0.8343
vn -0.0000 -0.6394 -0.7689
vn -0.0000 -0.4123 -0.9111
vn -0.0000 -0.3531 -0.9356
vn -0.0000 -0.2080 -0.9781
vn -0.0000 0.1594 -0.9872
vn -0.0000 0.1536 -0.9881
vn -0.0000 0.6125 -0.7904
vn -0.0000 0.6103 -0.7921
vn -0.0000 0.5832 -0.8124
vn -0.0000 0.6125 -0.7905
vn -0.0000 0.5831 -0.8124
vn -0.0001 0.5833 -0.8123
vn -0.0000 0.4411 -0.8974
vn -0.0000 0.0525 -0.9986
vn -0.0000 0.2606 -0.9654
vn -0.0000 0.3090 -0.9511
vn -0.0000 -0.5182 -0.8553
vn -0.0000 -0.1567 -0.9877
vn -0.0000 -0.2581 -0.9661
vn -0.0000 -0.3530 -0.9356
vn -0.0000 -0.5160 -0.8566
vn -0.0000 -0.4789 -0.8778
vn -0.0000 -0.4541 -0.8910
vn -0.0000 -0.6639 -0.7478
vn -0.0000 0.0013 -1.0000
vn -0.0000 0.4383 -0.8988
vn -0.0000 0.3848 -0.9230
vn -0.0000 -0.7843 -0.6204
vn -0.0000 -0.7626 -0.6469
vn -0.0000 -0.7655 -0.6434
vn -0.0000 -0.7887 -0.6148
vn -0.0000 -0.6774 -0.7356
vn -0.0000 -0.7036 -0.7106
vn -0.0000 -0.6730 -0.7396
vn -0.0000 -0.7033 -0.7109
vn -0.0000 -0.9024 -0.4310
vn -0.0000 -0.8890 -0.4578
vn -0.0000 -0.9001 -0.4356
vn -0.0000 -0.9168 -0.3993
vn -0.0000 -0.9062 -0.4229
vn -0.0000 -0.7841 -0.6207
vn -0.0000 -0.8017 -0.5977
vn -0.0000 -0.7876 -0.6162
vn -0.0002 -0.8457 -0.5337
vn -0.0001 -0.8660 -0.5001
vn -0.0000 -0.8558 -0.5172
vn -0.0000 -0.8351 -0.5500
vn -0.0000 -0.8559 -0.5172
vn -0.0000 -0.8796 -0.4756
vn -0.0000 -0.8978 -0.4405
vn -0.0000 -0.8835 -0.4684
vn -0.0000 -0.8800 -0.4750
vn -0.0000 -0.8753 -0.4835
vn 0.0001 -0.8558 -0.5174
vn -0.0001 -0.8657 -0.5006
vn -0.0000 -0.8658 -0.5004
vn 0.0001 -0.8352 -0.5500
vn -0.0000 -0.8508 -0.5255
vn -0.0001 -0.8243 -0.5661
vn -0.0000 -0.8087 -0.5883
vn -0.0001 -0.8351 -0.5500
vn -0.0000 -0.8131 -0.5821
vn -0.0000 -0.8351 -0.5501
vn -0.0000 -0.8658 -0.5005
vn -0.0000 -0.8422 -0.5392
vn -0.0000 -0.8243 -0.5662
vn -0.0000 -0.8016 -0.5978
vn -0.0000 -0.8094 -0.5873
vn -0.0000 -0.8089 -0.5879
vn -0.0000 -0.8017 -0.5978
vn -0.0000 -0.7899 -0.6133
vn -0.0000 -0.7654 -0.6435
vn -0.0000 -0.7705 -0.6374
vn -0.0000 -0.8860 -0.4636
vn -0.0000 -0.8869 -0.4620
vn -0.0001 -0.8936 -0.4488
vn -0.0000 -0.7610 -0.6487
vn -0.0000 -0.7583 -0.6519
vn -0.0001 -0.7360 -0.6770
vn -0.0000 -0.7175 -0.6966
vn -0.0000 -0.7359 -0.6771
vn -0.0000 -0.7269 -0.6868
vn -0.0000 -0.7267 -0.6869
vn -0.0000 -0.7464 -0.6655
vn -0.0000 -0.8008 -0.5990
vn -0.0000 -0.8188 -0.5741
vn -0.0000 -0.8997 -0.4366
vn -0.0000 -0.9181 -0.3964
vn -0.0000 -0.6991 -0.7150
vn -0.0000 -0.6798 -0.7334
vn -0.0000 -0.6822 -0.7311
vn -0.0000 -0.7340 -0.6791
vn -0.0000 -0.7065 -0.7077
vn -0.0000 -0.7613 -0.6484
vn -0.0000 -0.7465 -0.6654
vn -0.0000 -0.7131 -0.7011
vn -0.0000 -0.7471 -0.6647
vn -0.0000 -0.7886 -0.6150
vn -0.0000 -0.7839 -0.6208
vn -0.0000 -0.6952 -0.7188
vn -0.0000 -0.7367 -0.6762
vn -0.0000 -0.9061 -0.4230
vn -0.0000 -0.8934 -0.4492
vn -0.0000 -0.9194 -0.3934
vn -0.0000 -0.9293 -0.3694
vn -0.0000 -0.9168 -0.3994
vn -0.0000 -0.8352 -0.5500
vn -0.0000 -0.7840 -0.6207
vn -0.0000 -0.8797 -0.4756
vn -0.0000 -0.7885 -0.6150
vn -0.0000 -0.7065 -0.7078
vn -0.0000 -0.6855 -0.7281
vn -0.0000 -0.6851 -0.7284
vn -0.0000 -0.6840 -0.7295
vn -0.0000 -0.6855 -0.7280
vn -0.0000 -0.6687 -0.7435
vn -0.0000 -0.6689 -0.7434
vn -0.0000 -0.6768 -0.7362
vn -0.0000 -0.6767 -0.7362
vn -0.0000 -0.7064 -0.7078
vn -0.0000 -0.7341 -0.6791
vn -0.0000 -0.8935 -0.4491
vn -0.0000 -0.8008 -0.5989
vn -0.0001 -0.6798 -0.7334
vn -0.0000 -0.7131 -0.7010
vn -0.0000 -0.7839 -0.6209
vn -0.0000 -0.6688 -0.7434
vn -0.0000 -0.6775 -0.7356
vn -0.0000 -0.6731 -0.7396
vn -0.0000 -0.7035 -0.7107
s 1
usemtl Diffuse_51_51_51_100.020
f 1//1 2//1 3//1
f 1//1 3//1 4//1
f 1//1 4//1 5//1
f 1//1 5//1 6//1
f 7//1 1//1 8//1
f 1//1 6//1 8//1
f 9//1 1//1 7//1
f 10//1 1//1 9//1
f 10//1 11//1 1//1
f 11//1 12//2 1//1
f 12//2 13//1 1//1
f 13//1 14//1 1//1
f 14//1 15//1 1//1
s 0
f 1//1 16//1 17//1
s 1
f 18//1 2//1 1//1
f 19//1 2//1 18//1
f 19//1 18//1 20//1
f 19//1 20//1 21//1
f 20//1 22//1 21//1
f 22//1 23//1 21//1
f 24//1 23//1 22//1
f 25//1 23//1 24//1
f 25//1 24//1 26//1
f 25//1 26//1 27//1
f 26//1 28//1 27//1
f 28//1 29//1 27//1
f 30//1 29//1 28//1
f 31//1 29//1 30//1
f 32//1 31//1 33//1
f 31//1 30//1 33//1
f 32//1 33//1 34//1
f 35//1 36//1 37//1
f 36//1 38//1 37//1
f 39//2 40//1 41//1
f 40//1 42//3 41//1
f 42//3 43//1 41//1
f 43//1 44//1 41//1
f 45//2 44//1 46//1
f 47//1 44//1 45//2
f 43//1 46//1 44//1
f 48//1 46//1 43//1
f 49//1 46//1 48//1
f 50//1 49//1 48//1
f 47//1 51//1 44//1
f 49//1 50//1 35//1
f 50//1 36//1 35//1
f 38//1 32//1 34//1
f 38//1 34//1 37//1
s 0
f 16//1 1//1 15//1
s 1
f 52//4 53//4 54//4
f 52//4 54//4 55//4
f 52//4 55//4 56//4
f 52//4 56//4 57//4
f 58//4 59//4 57//4
f 60//4 61//4 59//4
f 62//4 61//4 60//4
f 63//4 64//4 62//4
f 65//4 64//4 63//4
f 66//4 65//4 67//4
f 66//4 67//4 68//4
f 69//4 68//4 70//4
f 71//4 70//4 72//4
f 71//4 72//4 73//4
f 74//4 75//4 76//4
f 77//4 74//4 78//4
f 77//4 78//4 79//4
f 80//4 81//4 82//4
f 81//4 79//4 82//4
f 83//4 82//4 84//4
s 0
f 82//4 85//5 86//4
f 82//4 86//4 87//4
s 1
f 88//4 82//4 89//4
f 88//4 90//4 82//4
f 90//4 91//4 82//4
f 82//4 92//4 93//4
f 82//4 93//4 94//4
f 82//4 94//4 95//4
f 82//4 95//4 96//4
f 84//4 82//4 97//4
f 82//4 96//4 97//4
f 91//4 92//4 82//4
f 89//4 82//4 87//4
f 83//4 80//4 82//4
f 79//4 81//4 77//4
f 76//4 78//4 74//4
f 98//4 76//4 75//4
f 98//4 75//4 73//4
f 98//4 73//4 72//4
f 70//4 71//4 69//4
f 68//4 69//4 66//4
f 63//4 67//4 65//4
f 60//4 59//4 58//4
f 61//4 62//4 64//4
f 99//4 57//4 100//4
f 101//4 99//4 102//4
f 58//4 57//4 56//4
f 57//4 99//4 52//4
f 100//4 102//4 99//4
f 103//6 104//6 105//6
f 106//6 107//6 108//6
f 109//7 110//6 111//7
f 105//7 112//6 109//7
f 111//6 113//6 114//6
f 115//8 116//9 117//1
f 118//10 119//11 115//8
f 120//12 118//10 121//13
f 120//12 121//13 122//14
f 123//15 122//14 124//16
f 123//15 124//16 125//17
f 125//17 126//18 127//19
f 126//18 128//20 127//19
f 128//20 129//21 130//22
f 129//21 131//23 130//22
f 132//24 133//25 131//23
f 134//26 133//25 132//24
f 135//27 136//28 134//26
f 137//29 136//28 135//27
f 138//30 137//29 139//31
f 140//32 141//33 142//34
f 141//33 143//34 142//34
f 144//35 141//33 140//32
f 144//35 140//32 145//36
f 144//35 145//36 146//37
f 146//37 145//36 147//38
f 146//37 147//38 148//39
f 147//38 138//30 148//39
f 138//30 139//31 148//39
f 137//29 135//27 139//31
f 136//28 133//25 134//26
f 132//24 131//23 129//21
f 128//20 130//22 127//19
f 123//15 120//12 122//14
f 124//16 126//18 125//17
f 116//9 115//8 119//11
f 149//40 117//1 116//9
f 150//41 117//1 149//40
f 151//42 150//41 149//40
f 152//43 150//41 151//42
f 152//43 153//44 154//45
f 153//44 155//46 154//45
f 156//47 157//48 155//46
f 158//49 156//47 159//50
f 158//49 160//51 161//52
f 162//53 163//54 161//52
f 164//55 163//54 165//56
f 166//57 167//58 168//59
f 169//60 166//57 170//61
f 167//58 171//62 168//59
f 172//63 173//64 174//65
f 172//63 174//65 175//66
f 173//64 176//67 177//68
f 176//67 178//69 177//68
f 178//69 179//70 177//68
f 180//71 181//72 179//70
f 181//72 180//71 182//73
f 181//72 182//73 183//74
f 183//74 184//75 185//76
f 184//75 186//77 185//76
f 186//77 187//78 185//76
f 187//78 188//79 189//80
f 188//79 190//81 189//80
f 191//82 190//81 188//79
f 192//83 193//84 191//82
f 194//85 193//84 192//83
f 194//85 192//83 195//86
f 166//57 164//55 170//61
f 196//87 194//85 197//88
f 165//56 163//54 162//53
f 198//89 196//87 199//90
f 196//87 197//88 199//90
f 200//91 198//89 201//92
f 161//52 160//51 162//53
f 200//91 201//92 202//93
f 160//51 158//49 159//50
f 203//94 200//91 204//95
f 156//47 158//49 157//48
f 203//94 204//95 205//96
f 154//45 155//46 157//48
f 203//94 205//96 206//97
f 153//44 152//43 151//42
f 175//66 168//59 171//62
f 207//98 208//99 206//97
f 207//98 209//100 208//99
f 209//100 210//101 211//102
f 210//101 212//103 211//102
f 213//104 212//103 210//101
f 214//105 215//106 212//103
f 216//107 215//106 214//105
f 217//108 218//109 216//107
f 219//110 218//109 217//108
f 220//111 219//110 221//112
f 220//111 221//112 222//113
f 223//114 220//111 224//115
f 223//114 224//115 225//116
f 226//117 225//116 227//118
f 228//119 229//120 230//121
f 228//119 230//121 231//122
f 232//123 233//124 234//125
f 235//126 228//119 236//127
f 237//128 238//129 239//130
f 240//131 241//132 242//133
f 243//134 244//135 245//136
f 246//137 247//138 248//139
f 249//140 250//141 251//142
f 252//143 253//144 254//145
f 255//146 256//147 257//148
f 258//149 259//150 256//147
f 259//150 260//151 261//152
f 260//151 262//153 263//154
f 262//153 264//155 265//156
f 264//155 266//157 267//158
f 198//89 199//90 201//92
f 197//88 194//85 195//86
f 143//34 268//159 142//34
f 269//160 268//159 143//34
f 270//161 268//159 269//160
f 270//161 269//160 267//158
f 264//155 267//158 265//156
f 262//153 265//156 263//154
f 260//151 263//154 261//152
f 259//150 261//152 256//147
f 258//149 256//147 255//146
f 255//146 257//148 252//143
f 257//148 253//144 252//143
f 253//144 250//141 254//145
f 250//141 249//140 254//145
f 251//142 271//162 249//140
f 272//163 271//162 251//142
f 272//163 251//142 248//139
f 272//163 248//139 247//138
f 247//138 246//137 273//164
f 246//137 274//165 273//164
f 274//165 243//134 273//164
f 244//135 243//134 274//165
f 275//166 245//136 244//135
f 275//166 244//135 276//167
f 275//166 276//167 277//168
f 276//167 241//132 277//168
f 241//132 240//131 277//168
f 242//133 278//169 240//131
f 279//170 278//169 242//133
f 280//171 278//169 279//170
f 280//171 279//170 238//129
f 279//170 239//130 238//129
f 239//130 281//172 237//128
f 281//172 282//173 237//128
f 283//174 282//173 281//172
f 284//175 282//173 283//174
f 284//175 283//174 234//125
f 284//175 234//125 233//124
f 234//125 285//176 232//123
f 285//176 286//177 232//123
f 287//178 286//177 285//176
f 288//179 286//177 287//178
f 288//179 287//178 289//180
f 288//179 289//180 290//181
f 289//180 235//126 290//181
f 235//126 236//127 290//181
f 226//117 227//118 229//120
f 231//122 236//127 228//119
f 227//118 230//121 229//120
f 223//114 225//116 226//117
f 220//111 222//113 224//115
f 219//110 217//108 221//112
f 218//109 215//106 216//107
f 214//105 212//103 213//104
f 209//100 211//102 208//99
f 205//96 207//98 206//97
f 200//91 202//93 204//95
f 270//161 267//158 266//157
f 190//81 191//82 193//84
f 189//80 185//76 187//78
f 184//75 183//74 182//73
f 178//69 180//71 179//70
f 174//65 173//64 177//68
f 175//66 171//62 172//63
f 167//58 166//57 169//60
f 121//13 118//10 115//8
f 165//56 170//61 164//55
f 291//182 292//182 293//182
f 294//182 295//182 296//182
f 297//183 298//182 299//182
f 300//182 297//182 301//182
f 298//182 291//184 302//182
f 303//185 304//185 305//185
f 306//185 307//185 308//185
f 309//185 310//185 311//185
f 312//185 313//185 314//185
f 315//185 316//185 317//185
f 318//185 319//185 320//185
f 321//185 322//185 323//185
f 324//185 325//185 326//185
f 327//185 328//185 329//185
f 330//185 331//185 332//185
f 333//185 334//185 335//185
f 336//186 337//186 338//186
f 339//185 340//185 341//185
f 342//185 343//185 344//185
f 345//185 346//185 347//185
f 348//186 349//186 350//186
f 351//185 352//185 353//185
f 354//185 355//185 356//185
f 357//185 358//185 359//185
f 360//185 361//185 362//185
f 363//187 364//187 365//187
f 366//188 367//188 368//188
f 369//186 370//186 371//186
f 372//185 373//185 374//185
f 375//186 376//186 377//186
f 378//185 379//185 380//185
f 381//186 382//186 383//186
f 384//185 385//185 386//185
f 387//185 388//185 389//185
f 390//189 391//189 392//189
f 393//189 394//189 395//189
f 396//185 397//185 398//185
f 399//185 400//185 401//185
f 402//185 403//185 404//185
f 405//185 406//185 407//185
f 408//186 409//186 410//186
f 411//185 412//185 413//185
f 414//185 415//185 416//185
f 417//185 418//185 419//185
f 420//185 421//185 422//185
f 423//185 424//185 425//185
f 426//185 427//185 428//185
f 429//190 430//190 431//190
f 432//185 433//185 434//185
f 435//185 436//185 437//185
f 438//185 439//185 440//185
f 441//189 442//189 443//189
f 444//185 445//185 446//185
f 447//185 448//185 449//185
f 450//185 451//185 452//185
f 453//185 454//185 455//185
f 456//185 457//185 458//185
f 459//185 460//185 461//185
f 462//185 463//185 464//185
f 465//185 466//185 467//185
f 468//185 469//185 470//185
f 471//185 472//185 473//185
f 474//186 475//186 476//186
f 477//186 478//186 479//186
f 480//188 481//188 482//188
f 483//185 484//185 485//185
f 486//185 487//185 488//185
f 489//185 490//185 491//185
f 492//185 493//185 494//185
f 495//185 496//185 497//185
f 498//190 499//190 500//190
f 501//185 502//185 503//185
f 504//185 505//185 506//185
f 507//190 508//190 509//190
f 510//185 511//185 512//185
f 513//185 514//185 515//185
f 516//185 517//185 518//185
f 519//186 520//186 521//186
f 522//185 523//185 524//185
f 525//185 526//185 527//185
f 528//185 529//185 530//185
f 531//185 532//185 533//185
f 534//185 535//185 536//185
f 537//185 538//185 539//185
f 540//186 541//186 542//186
f 543//186 544//186 545//186
f 546//185 547//185 548//185
f 549//185 550//185 551//185
f 552//185 553//185 554//185
f 555//191 556//192 557//193
f 555//191 558//194 556//192
f 559//195 560//196 561//197
f 559//195 562//198 563//199
f 564//200 565//201 566//202
f 564//200 562//198 567//203
f 564//200 567//203 568//204
f 562//198 561//197 569//205
f 570//206 563//199 571//207
f 570//206 558//194 560//196
f 570//206 571//207 556//192
f 563//199 572//208 571//207
f 569//205 561//197 573//209
f 569//205 567//203 562//198
f 574//210 575//211 576//212
f 574//210 577//213 575//211
f 578//214 579//215 580//216
f 578//214 581//217 582//218
f 583//219 584//220 585//209
f 583//219 580//216 586//221
f 580//216 587//222 586//221
f 580//216 579//215 587//222
f 579//215 588//223 589//224
f 579//193 590//218 591//225
f 592//226 593//227 594//228
f 592//226 595//229 596//230
f 597//231 598//232 599//233
f 597//231 600//234 598//232
f 594//228 601//229 592//226
f 594//228 602//235 603//236
f 604//237 605//238 606//235
f 604//237 575//211 607//239
f 605//238 588//223 608//223
f 605//238 607//239 588//223
f 592//226 596//230 593//227
f 595//229 557//193 609//229
f 596//230 610//240 593//227
f 596//230 609//229 611//241
f 611//241 589//224 588//223
f 611//241 609//229 589//224
f 589//224 587//222 579//215
f 589//224 609//229 612//242
f 557//193 613//243 612//242
f 557//193 556//192 613//243
f 612//242 609//229 557//193
f 612//242 614//244 587//222
f 614//244 615//245 586//221
f 614//244 613//243 571//207
f 600//234 593//227 616//246
f 594//228 597//231 617//247
f 618//248 577//213 619//249
f 618//248 607//239 575//211
f 577//213 574//210 620//250
f 618//248 619//249 610//240
f 621//251 622//252 623//253
f 621//251 619//249 622//252
f 616//246 593//227 610//240
f 616//246 598//232 600//234
f 568//204 567//203 624//254
f 568//204 625//255 565//201
f 558//194 601//229 626//225
f 601//229 555//191 595//229
f 559//195 561//197 562//198
f 560//196 627//218 628//217
f 562//198 564//200 563//199
f 566//202 629//256 572//208
f 291//184 620//250 630//252
f 291//184 298//182 620//250
f 620//250 574//210 631//212
f 620//250 298//182 622//252
f 604//237 607//239 605//238
f 575//211 577//213 618//248
f 297//183 623//253 298//182
f 623//253 598//232 621//251
f 623//253 297//183 632//252
f 633//257 584//220 634//258
f 633//257 635//259 636//260
f 629//256 615//245 572//208
f 629//256 634//258 584//220
f 586//221 587//222 614//244
f 637//261 578//214 638//262
f 633//257 634//258 639//263
f 584//220 586//221 629//256
f 640//264 569//265 641//266
f 572//208 564//200 566//202
f 571//207 572//208 615//245
f 570//206 556//192 558//194
f 568//204 565//201 564//200
f 625//255 642//255 565//201
f 563//199 564//200 572//208
f 565//201 643//255 634//258
f 571//207 615//245 614//244
f 566//202 565//201 634//258
f 621//251 616//246 619//249
f 598//232 644//212 645//233
f 577//213 622//252 619//249
f 620//250 622//252 577//213
f 610//240 619//249 616//246
f 610//240 596//230 611//241
f 584//220 583//219 586//221
f 611//241 607//239 610//240
f 588//223 607//239 611//241
f 607//239 618//248 610//240
f 597//231 593//227 600//234
f 595//229 555//191 557//193
f 598//232 616//246 621//251
f 592//226 601//229 595//229
f 595//229 609//229 596//230
f 589//224 612//242 587//222
f 586//221 615//245 629//256
f 614//244 612//242 613//243
f 569//267 646//268 647//266
f 560//196 559//195 570//206
f 601//229 558//194 555//191
f 556//192 571//207 613//243
f 634//258 648//269 649//270
f 650//254 651//271 568//204
f 652//247 653//272 604//237
f 623//253 622//252 298//182
f 654//225 655//229 579//193
f 656//273 601//229 594//228
f 657//263 633//257 658//271
f 659//262 561//274 660//217
f 661//275 662//271 663//276
f 664//277 665//278 666//271
f 667//270 668//271 669//279
f 670//279 671//271 672//254
f 633//257 673//279 674//280
f 633//257 675//260 676//279
f 677//280 678//281 633//257
f 679//259 633//282 680//283
f 681//209 682//262 583//284
f 683//218 579//215 578//214
f 583//219 578//214 580//216
f 684//209 561//274 685//262
f 588//223 579//215 686//223
f 563//199 570//206 559//195
f 687//263 634//258 688//285
f 689//285 634//258 690//259
f 691//271 692//255 568//286
f 693//260 694//287 634//258
f 695//281 696//209 584//220
f 629//256 566//202 634//258
f 634//258 697//288 698//289
f 699//270 700//279 634//258
f 568//204 701//255 625//255
f 702//260 634//258 703//279
f 704//254 567//203 569//205
f 705//271 633//257 706//263
f 707//236 708//235 605//228
f 558//194 709//225 560//196
f 710//290 711//236 605//228
f 712//218 560//196 713//225
f 604//291 714//235 715//247
f 716//223 594//228 717//236
f 718//252 719//212 623//253
f 720//292 721//252 297//182
f 623//253 722//293 598//232
f 723//247 597//231 724//233
f 291//182 725//252 726//292
f 727//247 728//235 594//228
f 729//252 620//250 730//293
f 593//227 597//231 594//228
f 731//233 732//293 575//211
f 604//237 733//233 575//211
f 734//225 601//229 735//223
f 736//261 561//197 560//196
f 737//294 633//257 738//263
f 633//257 739//266 584//220
f 740//271 741//255 742//255
f 578//214 583//219 743//262
f 744//255 745//255 746//295
f 747//296 748//297 749//298
f 750//299 751//300 752//255
f 753//299 754//301 755//300
f 756//300 757//301 758//302
f 759//303 760//300 761//302
f 762//303 763//304 764//305
f 765//306 766//307 767//304
f 768//307 769//308 770//309
f 771//310 772//311 773//312
f 774//311 775//313 776//314
f 777//315 778//316 779//317
f 780//317 781//316 782//318
f 783//319 784//320 785//321
f 786//322 787//319 788//323
f 789//324 790//322 791//325
f 792//326 793//327 794//328
f 795//329 796//329 797//330
f 798//330 799//329 800//331
f 801//331 802//329 803//332
f 804//333 805//331 806//332
f 807//334 808//335 809//332
f 810//336 811//334 812//332
f 813//337 814//338 815//339
f 816//337 817//340 818//338
f 819//337 820//341 821//342
f 822//337 823//343 824//341
f 825//344 826//345 827//346
f 828//347 829//327 830//348
f 831//346 832//347 833//349
f 834//350 835//351 836//352
f 837//353 838//354 839//355
f 840//356 841//353 842//357
f 843//358 844//359 845//360
f 846//361 847//362 848//356
f 849//363 850//358 851//360
f 852//322 853//324 854//364
f 855//323 856//325 857//322
f 858//365 859//323 860//366
f 861//318 862//321 863//317
f 864//367 865//315 866//313
f 867//314 868//368 869//311
f 870//312 871//308 872//310
f 873//368 874//309 875//369
f 876//309 877//304 878//307
f 879//304 880//303 881//306
f 882//356 883//362 884//353
f 885//349 886//346 887//345
f 888//370 889//371 890//372
f 888//370 891//373 889//371
f 892//374 893//375 894//376
f 892//374 895//377 896//378
f 892//374 896//378 893//375
f 895//377 897//379 898//380
f 899//381 898//380 900//382
f 899//381 901//383 896//378
f 898//380 897//379 900//382
f 898//380 896//378 895//377
f 902//384 903//385 904//386
f 902//384 905//387 906//366
f 907//388 908//389 909//390
f 907//388 910//391 908//389
f 911//392 912//393 913//394
f 911//392 914//395 915//396
f 912//393 916//397 913//394
f 912//393 915//396 917//398
f 918//399 919//400 920//401
f 918//399 921//402 922//403
f 921//402 923//404 924//405
f 921//402 925//406 926//407
f 927//408 928//409 929//410
f 927//408 891//373 930//411
f 931//412 932//413 933//414
f 931//412 934//415 935//416
f 905//417 936//317 937//319
f 905//387 932//413 938//315
f 932//413 904//386 939//418
f 905//417 940//315 941//317
f 934//419 942//312 943//420
f 934//415 894//376 944//312
f 945//421 946//422 947//423
f 945//421 948//424 917//398
f 945//421 917//398 946//422
f 948//424 949//425 950//426
f 951//427 949//425 952//428
f 951//427 950//426 949//425
f 917//398 915//396 946//422
f 917//398 950//426 916//397
f 948//424 950//426 917//398
f 917//398 916//397 912//393
f 953//429 951//427 952//428
f 954//392 955//430 956//431
f 954//392 957//432 926//407
f 958//433 959//434 908//389
f 958//433 960//435 959//434
f 961//436 962//437 963//328
f 961//436 908//389 910//391
f 964//438 965//363 966//439
f 964//438 967//440 968//441
f 967//440 969//442 970//443
f 967//440 971//444 972//445
f 973//446 955//430 925//406
f 973//446 974//447 975//448
f 974//447 970//443 969//442
f 974//447 976//449 977//450
f 970//443 968//441 967//440
f 970//443 977//450 978//451
f 979//452 980//453 981//454
f 979//452 893//375 982//455
f 947//423 983//456 945//421
f 947//423 959//434 984//337
f 985//457 986//458 987//459
f 985//460 988//461 989//462
f 986//458 990//463 991//464
f 986//465 992//466 993//467
f 994//468 995//469 996//470
f 994//468 930//411 997//471
f 995//469 990//463 998//472
f 995//469 997//471 999//473
f 1000//474 1001//475 1002//476
f 1000//474 1003//477 1004//478
f 1005//479 968//441 978//451
f 1005//479 1002//476 965//363
f 1001//475 1006//480 1007//481
f 1001//475 1004//478 1006//480
f 1008//482 1009//483 1010//360
f 1008//482 1011//484 966//439
f 1008//482 966//439 1009//483
f 1011//484 1012//485 966//439
f 975//448 956//431 955//430
f 975//448 969//442 909//390
f 991//464 999//473 1003//477
f 991//464 987//459 986//458
f 999//473 997//471 1004//478
f 999//473 990//463 995//469
f 953//429 957//432 913//394
f 953//429 952//428 1013//486
f 926//407 925//406 955//430
f 926//407 1013//486 923//404
f 1013//486 952//428 1014//487
f 1013//486 957//432 953//429
f 1013//486 1014//487 923//404
f 952//488 1015//329 1016//330
f 1017//489 908//389 959//434
f 1017//489 915//396 914//395
f 945//421 983//456 948//424
f 946//422 959//434 947//423
f 918//399 925//406 921//402
f 920//401 1018//490 976//449
f 1018//490 987//459 977//450
f 1018//490 919//400 985//457
f 894//376 981//454 1019//309
f 894//376 933//414 892//374
f 981//454 980//453 1020//304
f 981//454 893//375 979//452
f 909//390 914//395 956//431
f 909//390 972//445 907//388
f 911//392 915//396 912//393
f 914//395 908//389 1017//489
f 1021//491 980//453 1022//492
f 1021//491 1023//255 1024//300
f 1021//491 1022//492 1025//255
f 980//453 982//455 1026//493
f 1022//492 1026//493 1027//494
f 980//453 1021//491 1028//305
f 1029//495 889//371 1030//496
f 1029//495 1031//497 1032//498
f 1033//499 1034//500 1031//497
f 1033//499 1035//501 1036//502
f 978//451 977//450 987//459
f 978//451 968//441 970//443
f 977//450 976//449 1018//490
f 975//448 974//447 969//442
f 980//453 1026//493 1022//492
f 982//455 901//383 1026//493
f 1004//478 1037//317 1006//480
f 1004//478 1003//477 999//473
f 1037//317 1038//503 1039//504
f 1037//317 997//471 930//411
f 964//438 971//444 967//440
f 965//363 1040//505 966//439
f 967//440 972//445 969//442
f 971//444 966//439 1012//485
f 1041//506 1006//480 1037//317
f 1041//506 900//382 897//379
f 899//381 1042//507 1043//508
f 900//382 1039//504 1044//509
f 890//372 1032//498 1042//507
f 890//372 1038//503 888//370
f 1032//498 1031//497 1043//508
f 1032//498 889//371 1029//495
f 1012//485 907//388 972//445
f 910//391 962//437 961//436
f 1012//485 1011//484 962//437
f 1012//485 972//445 971//444
f 1044//509 1039//504 1038//503
f 1044//509 1042//507 900//382
f 1045//510 897//379 939//418
f 1045//510 1007//481 1006//480
f 1007//481 1040//505 1002//476
f 1007//481 904//386 903//385
f 927//408 930//411 994//468
f 930//411 888//370 1038//503
f 994//468 997//471 995//469
f 930//411 1038//503 1037//317
f 1009//483 903//385 1046//322
f 1009//483 966//439 1040//505
f 902//384 904//386 932//413
f 903//385 1040//505 1007//481
f 923//404 1014//487 1047//511
f 1013//486 926//407 957//432
f 1014//512 1048//513 1049//514
f 1014//515 1050//516 1051//513
f 1045//510 904//386 1007//481
f 931//412 933//414 894//376
f 1043//508 1042//507 1032//498
f 1043//508 901//383 899//381
f 1027//494 625//297 1022//492
f 1027//494 1031//497 1034//500
f 1033//499 1031//497 1029//495
f 1034//500 625//297 1027//494
f 1042//507 899//381 900//382
f 895//377 892//374 933//414
f 896//378 982//455 893//375
f 1026//493 1043//508 1027//494
f 894//376 893//375 981//454
f 933//414 939//418 895//377
f 1017//489 946//422 915//396
f 959//434 1052//345 1053//337
f 983//517 1054//332 1055//329
f 959//434 946//422 1017//489
f 913//394 916//397 953//429
f 911//392 956//431 914//395
f 975//448 955//430 973//446
f 955//430 954//392 926//407
f 962//437 1011//484 1008//482
f 1012//485 910//391 907//388
f 962//437 910//391 1012//485
f 975//448 909//390 956//431
f 908//389 914//395 909//390
f 956//431 911//392 913//394
f 918//399 920//401 925//406
f 925//406 920//401 976//449
f 923//404 921//402 926//407
f 925//406 976//449 973//446
f 951//427 953//429 916//397
f 957//432 954//392 913//394
f 978//451 991//464 1003//477
f 995//469 1056//472 1057//518
f 964//438 968//441 965//363
f 976//449 974//447 973//446
f 1009//483 1040//505 903//385
f 1005//479 965//363 968//441
f 966//439 971//444 964//438
f 972//445 909//390 969//442
f 919//400 1018//490 920//401
f 1005//479 978//451 1000//474
f 954//392 956//431 913//394
f 974//447 977//450 970//443
f 1003//477 1000//474 978//451
f 1002//476 1040//505 965//363
f 1002//476 1005//479 1000//474
f 1058//519 994//520 1059//521
f 1000//474 1004//478 1001//475
f 1060//522 995//469 1061//523
f 1041//506 1045//510 1006//480
f 902//384 932//413 905//387
f 1007//481 1002//476 1001//475
f 1062//356 1008//524 1063//364
f 1045//510 1041//506 897//379
f 1032//498 890//372 889//371
f 899//381 896//378 898//380
f 1064//416 932//413 931//412
f 900//382 1041//506 1039//504
f 1065//319 903//385 902//384
f 1044//509 890//372 1042//507
f 889//371 891//373 1066//525
f 1037//317 1039//504 1041//506
f 1067//526 891//527 1068//528
f 1027//494 1043//508 1031//497
f 1069//309 981//529 1070//304
f 901//383 1043//508 1026//493
f 1071//530 1033//499 1072//502
f 1073//332 983//456 1074//337
f 1075//516 952//488 1076//531
f 1077//349 1078//435 958//532
f 1079//405 1080//533 921//402
f 939//418 904//386 1045//510
f 1081//534 985//457 919//400
f 982//455 896//378 901//383
f 1082//470 1083//535 994//536
f 1022//492 625//297 1084//278
f 1085//368 1086//525 891//373
f 1087//295 1088//255 1034//500
f 1034//500 1089//255 625//297
f 1090//537 1091//295 1034//538
f 1092//539 1093//540 1034//500
f 1033//499 1094//541 1034//500
f 1033//499 1095//530 1096//542
f 1044//509 1038//503 890//372
f 1029//495 1097//496 1033//499
f 1033//499 1098//543 1099//501
f 889//371 1100//525 1101//496
f 888//370 930//411 891//373
f 903//544 1102//319 1103//322
f 1037//317 1004//478 997//471
f 897//379 895//377 939//418
f 927//408 1104//528 891//373
f 927//408 1105//545 1106//546
f 1107//360 1009//483 1108//322
f 1109//519 927//408 994//468
f 1110//355 962//437 1111//356
f 991//464 978//451 987//459
f 962//437 1008//482 1112//356
f 1018//490 985//457 987//459
f 1113//349 961//436 1114//351
f 990//463 986//458 1115//472
f 947//423 1116//547 983//456
f 986//458 985//457 1117//466
f 961//436 1118//349 958//433
f 1119//548 985//460 1120//534
f 961//436 958//433 908//389
f 1121//549 918//399 1122//403
f 948//424 1123//425 949//425
f 1124//329 952//428 949//425
f 1125//550 1126//403 921//402
f 952//428 1127//516 1014//487
f 951//427 916//397 950//426
f 1128//514 1129//551 1014//487
f 1014//515 1130//551 1131//511
f 1132//392 923//404 1133//552
f 1134//392 1135//405 923//553
f 1136//554 948//424 983//456
f 918//399 1137//549 919//400
f 1138//549 1139//534 919//400
f 1140//467 1141//555 986//465
f 999//473 991//464 990//463
f 932//413 939//418 933//414
f 979//452 982//455 980//453
f 1142//300 1143//304 980//453
f 1144//556 1145//368 894//557
f 931//412 894//376 934//415
f 1146//558 1147//559 1148//560
f 1146//558 1149//561 1147//559
f 1150//562 1151//563 1152//564
f 1150//562 949//329 1153//565
f 1154//566 1155//567 1156//568
f 1154//566 1157//569 1158//570
f 1159//571 1160//572 1161//573
f 1159//571 1149//561 1160//572
f 1162//574 1163//575 1164//576
f 1162//574 1165//577 1166//578
f 1167//579 1168//580 1169//581
f 1167//579 1166//578 1170//582
f 1166//578 1165//577 1171//577
f 1166//578 1163//575 1162//574
f 1172//583 1173//584 1174//585
f 1172//583 1175//582 1176//586
f 1173//584 1177//587 1174//585
f 1173//578 1178//586 1179//588
f 1180//589 1160//572 1181//590
f 1180//589 1182//591 1183//592
f 1182//591 1164//576 1184//593
f 1182//591 1180//589 1162//574
f 1164//576 1185//594 1186//595
f 1164//576 1163//575 1185//594
f 1186//595 1187//596 1184//593
f 1186//595 1174//585 1177//587
f 1187//596 1188//597 1189//598
f 1187//596 1177//587 1190//599
f 1183//592 1191//600 1160//572
f 1183//592 1184//593 1189//598
f 1189//598 1184//593 1187//596
f 1189//598 1191//600 1183//592
f 1192//601 1193//602 1161//573
f 1192//601 1188//597 1194//603
f 1167//579 1163//575 1166//578
f 1169//581 1195//604 1163//575
f 1196//605 1156//568 1155//567
f 1196//605 1197//606 1156//568
f 1196//605 1155//567 1174//585
f 1156//568 1157//569 1154//566
f 1198//607 1161//573 1199//608
f 1198//607 1200//609 1147//559
f 1200//609 1201//610 1202//611
f 1200//609 1203//612 1153//565
f 1202//611 1147//559 1200//609
f 1202//611 1204//613 1205//614
f 1181//590 1165//577 1180//589
f 1181//590 1206//615 1207//616
f 1149//561 1146//558 1206//615
f 1198//607 1159//571 1161//573
f 1208//617 1209//618 1197//606
f 1208//617 1195//604 1168//580
f 1195//604 1169//581 1168//580
f 1195//604 1197//606 1185//594
f 1210//619 1211//620 1212//621
f 1210//619 1213//622 1214//623
f 1213//622 1215//624 1216//625
f 1213//622 1217//626 1218//627
f 1190//599 1177//587 1219//616
f 1190//599 1188//597 1187//596
f 1220//628 1215//624 1194//603
f 1220//628 1221//572 1222//629
f 1223//630 949//329 1224//329
f 1223//630 1153//565 949//329
f 1161//573 1191//600 1192//601
f 1161//573 1160//572 1191//600
f 1153//565 1223//630 1201//610
f 1153//565 1203//612 1151//563
f 1203//612 1199//608 1225//631
f 1149//561 1159//571 1147//559
f 1225//631 1151//563 1203//612
f 1225//631 1218//627 1217//626
f 1194//603 1188//597 1220//628
f 1194//603 1218//627 1193//602
f 1225//631 1217//626 1151//563
f 1218//627 1215//624 1213//622
f 111//7 1157//569 109//7
f 1209//618 1156//568 1197//606
f 1157//569 111//7 1226//618
f 1196//605 1174//585 1185//594
f 1155//567 1227//632 1228//633
f 105//7 1229//634 1230//618
f 105//7 109//7 1229//634
f 1229//634 1168//580 1231//632
f 1229//634 109//7 1209//618
f 1167//579 1169//581 1163//575
f 1195//604 1208//617 1197//606
f 1232//618 111//6 1233//635
f 1168//580 1229//634 1208//617
f 1234//632 1157//636 1235//618
f 1185//594 1197//606 1196//605
f 1185//594 1163//575 1195//604
f 1164//576 1186//595 1184//593
f 1177//593 1236//637 1237//616
f 1174//585 1186//595 1185//594
f 1238//637 1173//578 1239//588
f 1206//615 1146//558 1240//638
f 1149//561 1181//590 1160//572
f 1182//591 1162//574 1164//576
f 1166//578 1241//637 1242//588
f 1183//592 1182//591 1184//593
f 1243//633 1167//639 1244//582
f 1192//601 1189//598 1188//597
f 1162//574 1180//589 1165//577
f 1220//628 1188//597 1190//599
f 1192//601 1194//603 1193//602
f 1189//598 1192//601 1191//600
f 1245//560 1220//640 1246//629
f 1202//611 1201//610 1247//641
f 1198//607 1147//559 1159//571
f 1201//610 1223//630 1248//642
f 1150//562 1153//565 1151//563
f 1201//610 1200//609 1153//565
f 1225//631 1193//602 1218//627
f 1199//608 1161//573 1193//602
f 1165//577 1181//590 1249//616
f 1217//626 1250//643 1251//644
f 1217//626 1252//645 1253//643
f 1225//631 1199//608 1193//602
f 1254//625 1255//560 1202//611
f 1160//572 1180//589 1183//592
f 1157//569 1209//618 109//7
f 1203//612 1198//607 1199//608
f 1256//637 1177//587 1173//584
f 1257//621 1217//626 1258//644
f 1259//560 1215//624 1220//628
f 1260//329 1261//329 1262//642
f 1263//642 1264//329 1265//646
f 1266//564 1267//645 1268//647
f 1269//564 1270//648 1210//619
f 1271//649 1272//620 1210//619
f 1273//643 1210//619 1274//644
f 1217//626 1213//622 1210//619
f 1275//643 1276//642 1210//619
f 1277//650 1213//622 1278//613
f 1215//624 1218//627 1194//603
f 1279//614 1280//613 1213//651
f 1165//593 1281//616 1282//637
f 1177//587 1187//596 1186//595
f 1283//588 1284//586 1166//578
f 1190//599 1285//616 1286//572
f 1149//561 1206//615 1181//590
f 1172//583 1155//567 1287//633
f 1209//618 1208//617 1229//634
f 1154//566 1288//570 1155//567
f 1289//582 1172//583 1290//652
f 105//6 1291//618 1292//635
f 1172//583 1293//586 1173//584
f 1294//618 1229//634 1295//570
f 1157//569 1156//568 1209//618
f 1296//633 1168//580 1167//579
f 1190//599 1297//572 1220//628
f 1298//616 1206//653 1299//572
f 1300//654 1217//655 1301//621
f 1302//656 1146//558 1303//560
f 1304//650 1201//610 1305//642
f 1306//642 1223//630 1307//329
f 1202//611 1308//560 1147//559
f 949//329 1150//562 1309//329
f 1310//329 1150//562 1311//657
f 1312//657 1150//658 1313//659
f 1314//659 1151//563 1315//649
f 1316//649 1151//660 1317//620
f 1203//612 1200//609 1198//607
f 1318//650 1319//613 1202//611
f 1206//615 1320//629 1321//572
f 1322//633 1323//570 1168//580
f 1174//585 1155//567 1172//583
f 1324//586 1325//582 1166//578
f 1217//626 1210//619 1326//642
f 1327//560 1328//625 1215//624
f 1329//623 1330//642 1210//619
f 1210//619 1331//621 1332//644
f 1151//563 1217//626 1333//620
f 1210//619 1334//642 1335//564
