# Blender 4.4.3
# www.blender.org
mtllib Mesh_10.001.mtl
o Mesh_10.001
v 0.011645 0.009081 -0.014403
v 0.015445 0.009081 -0.014403
v 0.011645 0.009186 -0.014403
v 0.015445 0.009186 -0.014403
v 0.011645 0.009041 -0.014763
v 0.015445 0.009041 -0.014763
v 0.011645 0.009041 -0.014658
v 0.015445 0.009041 -0.014658
v 0.011645 0.009401 -0.014803
v 0.015445 0.009401 -0.014803
v 0.011645 0.009296 -0.014803
v 0.015445 0.009296 -0.014803
v 0.011645 0.009441 -0.014443
v 0.015445 0.009441 -0.014443
v 0.011645 0.009441 -0.014548
v 0.015445 0.009441 -0.014548
v 0.015445 0.009401 -0.014403
v 0.011645 0.009401 -0.014403
v 0.015445 0.009296 -0.014403
v 0.011645 0.009296 -0.014403
v 0.015445 0.009041 -0.014443
v 0.011645 0.009041 -0.014443
v 0.015445 0.009041 -0.014548
v 0.011645 0.009041 -0.014548
v 0.015445 0.009081 -0.014803
v 0.011645 0.009081 -0.014803
v 0.015445 0.009186 -0.014803
v 0.011645 0.009186 -0.014803
v 0.015445 0.009441 -0.014763
v 0.011645 0.009441 -0.014763
v 0.015445 0.009441 -0.014658
v 0.011645 0.009441 -0.014658
v 0.015445 0.009210 -0.014616
v 0.015445 0.009164 -0.014623
v 0.015445 0.009161 -0.014638
v 0.015445 0.009207 -0.014603
v 0.015445 0.009217 -0.014627
v 0.015445 0.009228 -0.014634
v 0.015445 0.009206 -0.014683
v 0.015445 0.009221 -0.014680
v 0.015445 0.009261 -0.014680
v 0.015445 0.009241 -0.014637
v 0.015445 0.009273 -0.014616
v 0.015445 0.009260 -0.014631
v 0.015445 0.009322 -0.014638
v 0.015445 0.009277 -0.014683
v 0.015445 0.009265 -0.014579
v 0.015445 0.009319 -0.014583
v 0.015445 0.009322 -0.014567
v 0.015445 0.009275 -0.014596
v 0.015445 0.009248 -0.014569
v 0.015445 0.009261 -0.014525
v 0.015445 0.009221 -0.014525
v 0.015445 0.009277 -0.014522
v 0.015445 0.009206 -0.014522
v 0.015445 0.009228 -0.014571
v 0.015445 0.009164 -0.014583
v 0.015445 0.009290 -0.014802
v 0.015445 0.009296 -0.014803
v 0.015445 0.009286 -0.014798
v 0.015445 0.009282 -0.014794
v 0.015445 0.009296 -0.014803
v 0.015445 0.009282 -0.014764
v 0.015445 0.009281 -0.014768
v 0.015445 0.009291 -0.014758
v 0.015445 0.009281 -0.014788
v 0.015445 0.009284 -0.014761
v 0.015445 0.009337 -0.014756
v 0.015445 0.009401 -0.014803
v 0.015445 0.009340 -0.014752
v 0.015445 0.009331 -0.014758
v 0.015445 0.009401 -0.014803
v 0.015445 0.009401 -0.014803
v 0.015445 0.009341 -0.014746
v 0.015445 0.009401 -0.014803
v 0.015445 0.009296 -0.014803
v 0.015445 0.009338 -0.014741
v 0.015445 0.009379 -0.014700
v 0.015445 0.009290 -0.014692
v 0.015445 0.009384 -0.014703
v 0.015445 0.009401 -0.014803
v 0.015445 0.009330 -0.014651
v 0.015445 0.009319 -0.014623
v 0.015445 0.009141 -0.014746
v 0.015445 0.009144 -0.014741
v 0.015445 0.009098 -0.014703
v 0.015445 0.009103 -0.014700
v 0.015445 0.009041 -0.014763
v 0.015445 0.009146 -0.014756
v 0.015445 0.009081 -0.014803
v 0.015445 0.009151 -0.014758
v 0.015445 0.009142 -0.014752
v 0.015445 0.009081 -0.014803
v 0.015445 0.009152 -0.014651
v 0.015445 0.009191 -0.014758
v 0.015445 0.009186 -0.014803
v 0.015445 0.009186 -0.014803
v 0.015445 0.009081 -0.014803
v 0.015445 0.009081 -0.014803
v 0.015445 0.009193 -0.014692
v 0.015445 0.009287 -0.014759
v 0.015445 0.009296 -0.014803
v 0.015445 0.009296 -0.014803
v 0.015445 0.009195 -0.014759
v 0.015445 0.009201 -0.014768
v 0.015445 0.009186 -0.014803
v 0.015445 0.009197 -0.014798
v 0.015445 0.009200 -0.014794
v 0.015445 0.009296 -0.014803
v 0.015445 0.009198 -0.014761
v 0.015445 0.009186 -0.014803
v 0.015445 0.009201 -0.014788
v 0.015445 0.009081 -0.014803
v 0.015445 0.009041 -0.014763
v 0.015445 0.009066 -0.014800
v 0.015445 0.009081 -0.014803
v 0.015445 0.009041 -0.014763
v 0.015445 0.009041 -0.014763
v 0.015445 0.009088 -0.014698
v 0.015445 0.009086 -0.014693
v 0.015445 0.009041 -0.014658
v 0.015445 0.009041 -0.014763
v 0.015445 0.009041 -0.014658
v 0.015445 0.009086 -0.014653
v 0.015445 0.009056 -0.014643
v 0.015445 0.009050 -0.014644
v 0.015445 0.009046 -0.014647
v 0.015445 0.009041 -0.014658
v 0.015445 0.009041 -0.014658
v 0.015445 0.009042 -0.014652
v 0.015445 0.009076 -0.014643
v 0.015445 0.009083 -0.014646
v 0.015445 0.009080 -0.014644
v 0.015445 0.009041 -0.014763
v 0.015445 0.009092 -0.014702
v 0.015445 0.009041 -0.014763
v 0.015445 0.009085 -0.014649
v 0.015445 0.009186 -0.014803
v 0.015445 0.009192 -0.014802
v 0.015445 0.009186 -0.014803
v 0.015445 0.009200 -0.014764
v 0.015445 0.009213 -0.014584
v 0.015445 0.009161 -0.014567
v 0.015445 0.009098 -0.014503
v 0.015445 0.009103 -0.014506
v 0.015445 0.009141 -0.014460
v 0.015445 0.009144 -0.014465
v 0.015445 0.009081 -0.014403
v 0.015445 0.009088 -0.014507
v 0.015445 0.009041 -0.014443
v 0.015445 0.009086 -0.014513
v 0.015445 0.009092 -0.014504
v 0.015445 0.009041 -0.014443
v 0.015445 0.009193 -0.014514
v 0.015445 0.009086 -0.014553
v 0.015445 0.009041 -0.014548
v 0.015445 0.009041 -0.014548
v 0.015445 0.009041 -0.014443
v 0.015445 0.009041 -0.014443
v 0.015445 0.009152 -0.014554
v 0.015445 0.009056 -0.014563
v 0.015445 0.009076 -0.014563
v 0.015445 0.009053 -0.014791
v 0.015445 0.009041 -0.014763
v 0.015445 0.009083 -0.014560
v 0.015445 0.009080 -0.014562
v 0.015445 0.009044 -0.014778
v 0.015445 0.009041 -0.014763
v 0.015445 0.009041 -0.014548
v 0.015445 0.009042 -0.014554
v 0.015445 0.009046 -0.014558
v 0.015445 0.009085 -0.014557
v 0.015445 0.009041 -0.014443
v 0.015445 0.009081 -0.014403
v 0.015445 0.009044 -0.014428
v 0.015445 0.009041 -0.014443
v 0.015445 0.009081 -0.014403
v 0.015445 0.009081 -0.014403
v 0.015445 0.009146 -0.014450
v 0.015445 0.009151 -0.014448
v 0.015445 0.009186 -0.014403
v 0.015445 0.009081 -0.014403
v 0.015445 0.009186 -0.014403
v 0.015445 0.009191 -0.014448
v 0.015445 0.009201 -0.014418
v 0.015445 0.009200 -0.014412
v 0.015445 0.009197 -0.014407
v 0.015445 0.009186 -0.014403
v 0.015445 0.009186 -0.014403
v 0.015445 0.009192 -0.014404
v 0.015445 0.009201 -0.014438
v 0.015445 0.009198 -0.014445
v 0.015445 0.009200 -0.014442
v 0.015445 0.009081 -0.014403
v 0.015445 0.009142 -0.014454
v 0.015445 0.009081 -0.014403
v 0.015445 0.009195 -0.014447
v 0.015445 0.009050 -0.014562
v 0.015445 0.009041 -0.014548
v 0.015445 0.009041 -0.014548
v 0.015445 0.009041 -0.014548
v 0.015445 0.009341 -0.014460
v 0.015445 0.009338 -0.014465
v 0.015445 0.009384 -0.014503
v 0.015445 0.009379 -0.014506
v 0.015445 0.009441 -0.014443
v 0.015445 0.009337 -0.014450
v 0.015445 0.009401 -0.014403
v 0.015445 0.009331 -0.014448
v 0.015445 0.009340 -0.014454
v 0.015445 0.009401 -0.014403
v 0.015445 0.009330 -0.014554
v 0.015445 0.009291 -0.014448
v 0.015445 0.009296 -0.014403
v 0.015445 0.009296 -0.014403
v 0.015445 0.009401 -0.014403
v 0.015445 0.009401 -0.014403
v 0.015445 0.009290 -0.014514
v 0.015445 0.009081 -0.014403
v 0.015445 0.009053 -0.014415
v 0.015445 0.009066 -0.014406
v 0.015445 0.009081 -0.014403
v 0.015445 0.009281 -0.014438
v 0.015445 0.009287 -0.014447
v 0.015445 0.009282 -0.014442
v 0.015445 0.009284 -0.014445
v 0.015445 0.009281 -0.014418
v 0.015445 0.009296 -0.014403
v 0.015445 0.009282 -0.014412
v 0.015445 0.009296 -0.014403
v 0.015445 0.009290 -0.014404
v 0.015445 0.009286 -0.014407
v 0.015445 0.009401 -0.014403
v 0.015445 0.009441 -0.014443
v 0.015445 0.009416 -0.014406
v 0.015445 0.009401 -0.014403
v 0.015445 0.009441 -0.014443
v 0.015445 0.009441 -0.014443
v 0.015445 0.009394 -0.014507
v 0.015445 0.009396 -0.014513
v 0.015445 0.009441 -0.014548
v 0.015445 0.009441 -0.014443
v 0.015445 0.009441 -0.014548
v 0.015445 0.009396 -0.014553
v 0.015445 0.009426 -0.014563
v 0.015445 0.009432 -0.014562
v 0.015445 0.009437 -0.014558
v 0.015445 0.009441 -0.014548
v 0.015445 0.009441 -0.014548
v 0.015445 0.009440 -0.014554
v 0.015445 0.009406 -0.014563
v 0.015445 0.009399 -0.014560
v 0.015445 0.009402 -0.014562
v 0.015445 0.009441 -0.014443
v 0.015445 0.009390 -0.014504
v 0.015445 0.009441 -0.014443
v 0.015445 0.009397 -0.014557
v 0.015445 0.009296 -0.014403
v 0.015445 0.009296 -0.014403
v 0.015445 0.009441 -0.014763
v 0.015445 0.009390 -0.014702
v 0.015445 0.009441 -0.014763
v 0.015445 0.009394 -0.014698
v 0.015445 0.009401 -0.014803
v 0.015445 0.009441 -0.014763
v 0.015445 0.009441 -0.014763
v 0.015445 0.009396 -0.014693
v 0.015445 0.009441 -0.014763
v 0.015445 0.009441 -0.014658
v 0.015445 0.009396 -0.014653
v 0.015445 0.009441 -0.014658
v 0.015445 0.009406 -0.014643
v 0.015445 0.009426 -0.014643
v 0.015445 0.009441 -0.014658
v 0.015445 0.009399 -0.014646
v 0.015445 0.009397 -0.014649
v 0.015445 0.009438 -0.014428
v 0.015445 0.009429 -0.014415
v 0.015445 0.009441 -0.014443
v 0.015445 0.009441 -0.014443
v 0.015445 0.009441 -0.014658
v 0.015445 0.009437 -0.014647
v 0.015445 0.009432 -0.014644
v 0.015445 0.009441 -0.014658
v 0.015445 0.009402 -0.014644
v 0.015445 0.009416 -0.014800
v 0.015445 0.009429 -0.014791
v 0.015445 0.009401 -0.014803
v 0.015445 0.009441 -0.014763
v 0.015445 0.009401 -0.014803
v 0.015445 0.009438 -0.014778
v 0.015445 0.009401 -0.014803
v 0.015445 0.009441 -0.014658
v 0.015445 0.009440 -0.014652
v 0.011645 0.009396 -0.014693
v 0.011645 0.009441 -0.014658
v 0.011645 0.009441 -0.014763
v 0.011645 0.009394 -0.014698
v 0.011645 0.009441 -0.014763
v 0.011645 0.009390 -0.014702
v 0.011645 0.009441 -0.014763
v 0.011645 0.009438 -0.014778
v 0.011645 0.009401 -0.014803
v 0.011645 0.009441 -0.014763
v 0.011645 0.009384 -0.014703
v 0.011645 0.009401 -0.014803
v 0.011645 0.009331 -0.014758
v 0.011645 0.009337 -0.014756
v 0.011645 0.009296 -0.014803
v 0.011645 0.009401 -0.014803
v 0.011645 0.009296 -0.014803
v 0.011645 0.009291 -0.014758
v 0.011645 0.009281 -0.014788
v 0.011645 0.009286 -0.014798
v 0.011645 0.009282 -0.014794
v 0.011645 0.009296 -0.014803
v 0.011645 0.009296 -0.014803
v 0.011645 0.009290 -0.014802
v 0.011645 0.009281 -0.014768
v 0.011645 0.009284 -0.014761
v 0.011645 0.009282 -0.014764
v 0.011645 0.009340 -0.014752
v 0.011645 0.009401 -0.014803
v 0.011645 0.009441 -0.014763
v 0.011645 0.009401 -0.014803
v 0.011645 0.009401 -0.014803
v 0.011645 0.009341 -0.014746
v 0.011645 0.009287 -0.014759
v 0.011645 0.009265 -0.014627
v 0.011645 0.009322 -0.014638
v 0.011645 0.009277 -0.014683
v 0.011645 0.009330 -0.014651
v 0.011645 0.009241 -0.014637
v 0.011645 0.009261 -0.014680
v 0.011645 0.009221 -0.014680
v 0.011645 0.009193 -0.014692
v 0.011645 0.009144 -0.014741
v 0.011645 0.009152 -0.014651
v 0.011645 0.009161 -0.014638
v 0.011645 0.009217 -0.014627
v 0.011645 0.009206 -0.014683
v 0.011645 0.009141 -0.014746
v 0.011645 0.009098 -0.014703
v 0.011645 0.009103 -0.014700
v 0.011645 0.009041 -0.014763
v 0.011645 0.009146 -0.014756
v 0.011645 0.009151 -0.014758
v 0.011645 0.009081 -0.014803
v 0.011645 0.009081 -0.014803
v 0.011645 0.009142 -0.014752
v 0.011645 0.009191 -0.014758
v 0.011645 0.009186 -0.014803
v 0.011645 0.009186 -0.014803
v 0.011645 0.009081 -0.014803
v 0.011645 0.009081 -0.014803
v 0.011645 0.009290 -0.014692
v 0.011645 0.009201 -0.014768
v 0.011645 0.009201 -0.014788
v 0.011645 0.009254 -0.014634
v 0.011645 0.009228 -0.014634
v 0.011645 0.009401 -0.014803
v 0.011645 0.009379 -0.014700
v 0.011645 0.009338 -0.014741
v 0.011645 0.009200 -0.014794
v 0.011645 0.009186 -0.014803
v 0.011645 0.009081 -0.014803
v 0.011645 0.009041 -0.014763
v 0.011645 0.009198 -0.014761
v 0.011645 0.009195 -0.014759
v 0.011645 0.009041 -0.014763
v 0.011645 0.009086 -0.014693
v 0.011645 0.009088 -0.014698
v 0.011645 0.009041 -0.014658
v 0.011645 0.009041 -0.014763
v 0.011645 0.009041 -0.014658
v 0.011645 0.009086 -0.014653
v 0.011645 0.009056 -0.014643
v 0.011645 0.009046 -0.014647
v 0.011645 0.009050 -0.014644
v 0.011645 0.009041 -0.014658
v 0.011645 0.009041 -0.014658
v 0.011645 0.009042 -0.014652
v 0.011645 0.009076 -0.014643
v 0.011645 0.009083 -0.014646
v 0.011645 0.009080 -0.014644
v 0.011645 0.009092 -0.014702
v 0.011645 0.009041 -0.014763
v 0.011645 0.009041 -0.014763
v 0.011645 0.009085 -0.014649
v 0.011645 0.009197 -0.014798
v 0.011645 0.009186 -0.014803
v 0.011645 0.009186 -0.014803
v 0.011645 0.009164 -0.014623
v 0.011645 0.009210 -0.014616
v 0.011645 0.009207 -0.014603
v 0.011645 0.009164 -0.014583
v 0.011645 0.009152 -0.014554
v 0.011645 0.009103 -0.014506
v 0.011645 0.009193 -0.014514
v 0.011645 0.009206 -0.014522
v 0.011645 0.009217 -0.014579
v 0.011645 0.009161 -0.014567
v 0.011645 0.009098 -0.014503
v 0.011645 0.009141 -0.014460
v 0.011645 0.009144 -0.014465
v 0.011645 0.009081 -0.014403
v 0.011645 0.009088 -0.014507
v 0.011645 0.009086 -0.014513
v 0.011645 0.009041 -0.014443
v 0.011645 0.009041 -0.014443
v 0.011645 0.009092 -0.014504
v 0.011645 0.009086 -0.014553
v 0.011645 0.009041 -0.014548
v 0.011645 0.009041 -0.014548
v 0.011645 0.009041 -0.014443
v 0.011645 0.009041 -0.014443
v 0.011645 0.009076 -0.014563
v 0.011645 0.009056 -0.014563
v 0.011645 0.009210 -0.014590
v 0.011645 0.009041 -0.014763
v 0.011645 0.009066 -0.014800
v 0.011645 0.009053 -0.014791
v 0.011645 0.009044 -0.014778
v 0.011645 0.009041 -0.014763
v 0.011645 0.009083 -0.014560
v 0.011645 0.009080 -0.014562
v 0.011645 0.009050 -0.014562
v 0.011645 0.009041 -0.014548
v 0.011645 0.009085 -0.014557
v 0.011645 0.009041 -0.014443
v 0.011645 0.009044 -0.014428
v 0.011645 0.009081 -0.014403
v 0.011645 0.009041 -0.014548
v 0.011645 0.009081 -0.014403
v 0.011645 0.009151 -0.014448
v 0.011645 0.009146 -0.014450
v 0.011645 0.009186 -0.014403
v 0.011645 0.009081 -0.014403
v 0.011645 0.009186 -0.014403
v 0.011645 0.009191 -0.014448
v 0.011645 0.009201 -0.014418
v 0.011645 0.009197 -0.014407
v 0.011645 0.009200 -0.014412
v 0.011645 0.009186 -0.014403
v 0.011645 0.009186 -0.014403
v 0.011645 0.009192 -0.014404
v 0.011645 0.009201 -0.014438
v 0.011645 0.009198 -0.014445
v 0.011645 0.009200 -0.014442
v 0.011645 0.009142 -0.014454
v 0.011645 0.009081 -0.014403
v 0.011645 0.009081 -0.014403
v 0.011645 0.009195 -0.014447
v 0.011645 0.009046 -0.014558
v 0.011645 0.009041 -0.014548
v 0.011645 0.009042 -0.014554
v 0.011645 0.009041 -0.014548
v 0.011645 0.009221 -0.014525
v 0.011645 0.009228 -0.014571
v 0.011645 0.009241 -0.014569
v 0.011645 0.009261 -0.014525
v 0.011645 0.009290 -0.014514
v 0.011645 0.009338 -0.014465
v 0.011645 0.009330 -0.014554
v 0.011645 0.009322 -0.014567
v 0.011645 0.009265 -0.014579
v 0.011645 0.009277 -0.014522
v 0.011645 0.009341 -0.014460
v 0.011645 0.009384 -0.014503
v 0.011645 0.009379 -0.014506
v 0.011645 0.009441 -0.014443
v 0.011645 0.009337 -0.014450
v 0.011645 0.009331 -0.014448
v 0.011645 0.009401 -0.014403
v 0.011645 0.009401 -0.014403
v 0.011645 0.009340 -0.014454
v 0.011645 0.009291 -0.014448
v 0.011645 0.009296 -0.014403
v 0.011645 0.009296 -0.014403
v 0.011645 0.009401 -0.014403
v 0.011645 0.009401 -0.014403
v 0.011645 0.009281 -0.014438
v 0.011645 0.009281 -0.014418
v 0.011645 0.009254 -0.014571
v 0.011645 0.009081 -0.014403
v 0.011645 0.009053 -0.014415
v 0.011645 0.009066 -0.014406
v 0.011645 0.009081 -0.014403
v 0.011645 0.009284 -0.014445
v 0.011645 0.009282 -0.014442
v 0.011645 0.009282 -0.014412
v 0.011645 0.009296 -0.014403
v 0.011645 0.009287 -0.014447
v 0.011645 0.009401 -0.014403
v 0.011645 0.009416 -0.014406
v 0.011645 0.009441 -0.014443
v 0.011645 0.009296 -0.014403
v 0.011645 0.009441 -0.014443
v 0.011645 0.009396 -0.014513
v 0.011645 0.009394 -0.014507
v 0.011645 0.009441 -0.014548
v 0.011645 0.009441 -0.014443
v 0.011645 0.009441 -0.014548
v 0.011645 0.009396 -0.014553
v 0.011645 0.009426 -0.014563
v 0.011645 0.009437 -0.014558
v 0.011645 0.009432 -0.014562
v 0.011645 0.009441 -0.014548
v 0.011645 0.009441 -0.014548
v 0.011645 0.009440 -0.014554
v 0.011645 0.009406 -0.014563
v 0.011645 0.009399 -0.014560
v 0.011645 0.009402 -0.014562
v 0.011645 0.009390 -0.014504
v 0.011645 0.009441 -0.014443
v 0.011645 0.009441 -0.014443
v 0.011645 0.009397 -0.014557
v 0.011645 0.009286 -0.014407
v 0.011645 0.009296 -0.014403
v 0.011645 0.009290 -0.014404
v 0.011645 0.009296 -0.014403
v 0.011645 0.009319 -0.014583
v 0.011645 0.009273 -0.014590
v 0.011645 0.009275 -0.014603
v 0.011645 0.009319 -0.014623
v 0.011645 0.009081 -0.014803
v 0.011645 0.009041 -0.014763
v 0.011645 0.009429 -0.014791
v 0.011645 0.009416 -0.014800
v 0.011645 0.009401 -0.014803
v 0.011645 0.009192 -0.014802
v 0.011645 0.009186 -0.014803
v 0.011645 0.009441 -0.014763
v 0.011645 0.009441 -0.014658
v 0.011645 0.009396 -0.014653
v 0.011645 0.009426 -0.014643
v 0.011645 0.009406 -0.014643
v 0.011645 0.009441 -0.014658
v 0.011645 0.009397 -0.014649
v 0.011645 0.009399 -0.014646
v 0.011645 0.009273 -0.014616
v 0.011645 0.009441 -0.014443
v 0.011645 0.009429 -0.014415
v 0.011645 0.009438 -0.014428
v 0.011645 0.009441 -0.014443
v 0.011645 0.009200 -0.014764
v 0.011645 0.009441 -0.014658
v 0.011645 0.009437 -0.014647
v 0.011645 0.009440 -0.014652
v 0.011645 0.009401 -0.014803
v 0.011645 0.009402 -0.014644
v 0.011645 0.009441 -0.014658
v 0.011645 0.009432 -0.014644
v 0.011645 0.009401 -0.014403
v 0.011645 0.009441 -0.014443
v 0.011645 0.009081 -0.014403
v 0.011645 0.009041 -0.014443
v 0.011645 0.009441 -0.014658
v 0.015445 0.009210 -0.014616
v 0.011645 0.009210 -0.014616
v 0.015445 0.009207 -0.014603
v 0.015445 0.009217 -0.014627
v 0.011645 0.009210 -0.014616
v 0.015445 0.009210 -0.014616
v 0.015445 0.009228 -0.014634
v 0.011645 0.009217 -0.014627
v 0.015445 0.009217 -0.014627
v 0.011645 0.009228 -0.014634
v 0.011645 0.009217 -0.014627
v 0.015445 0.009228 -0.014634
v 0.011645 0.009241 -0.014637
v 0.011645 0.009228 -0.014634
v 0.015445 0.009241 -0.014637
v 0.011645 0.009254 -0.014634
v 0.015445 0.009241 -0.014637
v 0.015445 0.009260 -0.014631
v 0.011645 0.009254 -0.014634
v 0.015445 0.009260 -0.014631
v 0.011645 0.009265 -0.014627
v 0.011645 0.009265 -0.014627
v 0.015445 0.009273 -0.014616
v 0.011645 0.009273 -0.014616
v 0.015445 0.009273 -0.014616
v 0.015445 0.009275 -0.014596
v 0.011645 0.009275 -0.014603
v 0.015445 0.009275 -0.014596
v 0.015445 0.009265 -0.014579
v 0.011645 0.009273 -0.014590
v 0.015445 0.009265 -0.014579
v 0.011645 0.009265 -0.014579
v 0.011645 0.009273 -0.014590
v 0.015445 0.009217 -0.014627
v 0.011645 0.009217 -0.014627
v 0.011645 0.009210 -0.014616
v 0.011645 0.009210 -0.014590
v 0.015445 0.009207 -0.014603
v 0.011645 0.009207 -0.014603
v 0.015445 0.009213 -0.014584
v 0.015445 0.009207 -0.014603
v 0.011645 0.009210 -0.014590
v 0.015445 0.009213 -0.014584
v 0.011645 0.009210 -0.014590
v 0.011645 0.009217 -0.014579
v 0.015445 0.009213 -0.014584
v 0.011645 0.009217 -0.014579
v 0.015445 0.009228 -0.014571
v 0.011645 0.009217 -0.014579
v 0.011645 0.009228 -0.014571
v 0.015445 0.009228 -0.014571
v 0.011645 0.009228 -0.014571
v 0.011645 0.009241 -0.014569
v 0.015445 0.009228 -0.014571
v 0.011645 0.009241 -0.014569
v 0.015445 0.009248 -0.014569
v 0.015445 0.009228 -0.014571
v 0.011645 0.009254 -0.014571
v 0.015445 0.009248 -0.014569
v 0.011645 0.009241 -0.014569
v 0.015445 0.009248 -0.014569
v 0.011645 0.009254 -0.014571
v 0.015445 0.009265 -0.014579
v 0.011645 0.009254 -0.014571
v 0.011645 0.009265 -0.014579
v 0.015445 0.009265 -0.014579
v 0.015445 0.009275 -0.014596
v 0.011645 0.009273 -0.014590
v 0.011645 0.009275 -0.014603
v 0.015445 0.009273 -0.014616
v 0.011645 0.009275 -0.014603
v 0.011645 0.009273 -0.014616
v 0.015445 0.009260 -0.014631
v 0.015445 0.009273 -0.014616
v 0.011645 0.009265 -0.014627
v 0.011645 0.009241 -0.014637
v 0.015445 0.009241 -0.014637
v 0.011645 0.009254 -0.014634
v 0.015445 0.009241 -0.014637
v 0.011645 0.009228 -0.014634
v 0.015445 0.009228 -0.014634
v 0.011645 0.009210 -0.014616
v 0.011645 0.009207 -0.014603
v 0.015445 0.009207 -0.014603
v 0.011645 0.009440 -0.014554
v 0.011645 0.009437 -0.014558
v 0.011645 0.009440 -0.014554
v 0.015445 0.009440 -0.014554
v 0.015445 0.009437 -0.014558
v 0.011645 0.009437 -0.014558
v 0.015445 0.009440 -0.014554
v 0.015445 0.009432 -0.014562
v 0.011645 0.009432 -0.014562
v 0.015445 0.009437 -0.014558
v 0.015445 0.009432 -0.014562
v 0.015445 0.009426 -0.014563
v 0.011645 0.009426 -0.014563
v 0.011645 0.009432 -0.014562
v 0.015445 0.009432 -0.014562
v 0.011645 0.009426 -0.014563
v 0.011645 0.009437 -0.014558
v 0.015445 0.009437 -0.014558
v 0.011645 0.009432 -0.014562
v 0.011645 0.009440 -0.014554
v 0.015445 0.009440 -0.014554
v 0.015445 0.009426 -0.014563
v 0.015445 0.009406 -0.014563
v 0.011645 0.009426 -0.014563
v 0.015445 0.009406 -0.014563
v 0.011645 0.009406 -0.014563
v 0.011645 0.009426 -0.014563
v 0.011645 0.009402 -0.014562
v 0.011645 0.009406 -0.014563
v 0.015445 0.009402 -0.014562
v 0.011645 0.009399 -0.014560
v 0.011645 0.009402 -0.014562
v 0.015445 0.009402 -0.014562
v 0.011645 0.009397 -0.014557
v 0.011645 0.009399 -0.014560
v 0.015445 0.009399 -0.014560
v 0.015445 0.009397 -0.014557
v 0.011645 0.009397 -0.014557
v 0.015445 0.009399 -0.014560
v 0.015445 0.009397 -0.014557
v 0.015445 0.009396 -0.014553
v 0.011645 0.009396 -0.014553
v 0.011645 0.009397 -0.014557
v 0.015445 0.009397 -0.014557
v 0.011645 0.009396 -0.014553
v 0.015445 0.009402 -0.014562
v 0.015445 0.009399 -0.014560
v 0.011645 0.009399 -0.014560
v 0.011645 0.009406 -0.014563
v 0.015445 0.009406 -0.014563
v 0.015445 0.009402 -0.014562
v 0.015445 0.009396 -0.014553
v 0.015445 0.009396 -0.014513
v 0.011645 0.009396 -0.014553
v 0.015445 0.009396 -0.014513
v 0.011645 0.009396 -0.014513
v 0.011645 0.009396 -0.014553
v 0.015445 0.009394 -0.014507
v 0.011645 0.009396 -0.014513
v 0.015445 0.009396 -0.014513
v 0.011645 0.009394 -0.014507
v 0.011645 0.009396 -0.014513
v 0.015445 0.009394 -0.014507
v 0.011645 0.009394 -0.014507
v 0.015445 0.009394 -0.014507
v 0.015445 0.009390 -0.014504
v 0.011645 0.009384 -0.014503
v 0.015445 0.009379 -0.014506
v 0.011645 0.009379 -0.014506
v 0.015445 0.009384 -0.014503
v 0.015445 0.009379 -0.014506
v 0.011645 0.009384 -0.014503
v 0.015445 0.009384 -0.014503
v 0.011645 0.009384 -0.014503
v 0.011645 0.009390 -0.014504
v 0.015445 0.009390 -0.014504
v 0.011645 0.009390 -0.014504
v 0.011645 0.009394 -0.014507
v 0.015445 0.009390 -0.014504
v 0.015445 0.009384 -0.014503
v 0.011645 0.009390 -0.014504
v 0.015445 0.009379 -0.014506
v 0.015445 0.009330 -0.014554
v 0.011645 0.009379 -0.014506
v 0.015445 0.009330 -0.014554
v 0.011645 0.009330 -0.014554
v 0.011645 0.009379 -0.014506
v 0.015445 0.009322 -0.014567
v 0.011645 0.009330 -0.014554
v 0.015445 0.009330 -0.014554
v 0.015445 0.009319 -0.014583
v 0.011645 0.009319 -0.014583
v 0.011645 0.009322 -0.014567
v 0.011645 0.009330 -0.014554
v 0.015445 0.009322 -0.014567
v 0.011645 0.009322 -0.014567
v 0.015445 0.009322 -0.014567
v 0.015445 0.009319 -0.014583
v 0.011645 0.009322 -0.014567
v 0.015445 0.009319 -0.014583
v 0.015445 0.009319 -0.014623
v 0.011645 0.009319 -0.014583
v 0.015445 0.009319 -0.014623
v 0.011645 0.009319 -0.014623
v 0.011645 0.009319 -0.014583
v 0.015445 0.009319 -0.014623
v 0.015445 0.009322 -0.014638
v 0.011645 0.009319 -0.014623
v 0.015445 0.009322 -0.014638
v 0.011645 0.009322 -0.014638
v 0.011645 0.009319 -0.014623
v 0.011645 0.009322 -0.014638
v 0.015445 0.009330 -0.014651
v 0.011645 0.009330 -0.014651
v 0.011645 0.009322 -0.014638
v 0.015445 0.009322 -0.014638
v 0.015445 0.009330 -0.014651
v 0.015445 0.009330 -0.014651
v 0.015445 0.009379 -0.014700
v 0.011645 0.009330 -0.014651
v 0.015445 0.009379 -0.014700
v 0.011645 0.009379 -0.014700
v 0.011645 0.009330 -0.014651
v 0.015445 0.009384 -0.014703
v 0.011645 0.009379 -0.014700
v 0.015445 0.009379 -0.014700
v 0.011645 0.009384 -0.014703
v 0.011645 0.009379 -0.014700
v 0.015445 0.009384 -0.014703
v 0.011645 0.009384 -0.014703
v 0.015445 0.009384 -0.014703
v 0.015445 0.009390 -0.014702
v 0.011645 0.009390 -0.014702
v 0.015445 0.009390 -0.014702
v 0.015445 0.009394 -0.014698
v 0.011645 0.009384 -0.014703
v 0.015445 0.009390 -0.014702
v 0.011645 0.009390 -0.014702
v 0.011645 0.009396 -0.014693
v 0.011645 0.009394 -0.014698
v 0.015445 0.009396 -0.014693
v 0.015445 0.009396 -0.014693
v 0.011645 0.009394 -0.014698
v 0.015445 0.009394 -0.014698
v 0.011645 0.009390 -0.014702
v 0.015445 0.009394 -0.014698
v 0.011645 0.009394 -0.014698
v 0.015445 0.009396 -0.014693
v 0.015445 0.009396 -0.014653
v 0.011645 0.009396 -0.014693
v 0.015445 0.009396 -0.014653
v 0.011645 0.009396 -0.014653
v 0.011645 0.009396 -0.014693
v 0.011645 0.009397 -0.014649
v 0.011645 0.009396 -0.014653
v 0.015445 0.009397 -0.014649
v 0.011645 0.009399 -0.014646
v 0.011645 0.009397 -0.014649
v 0.015445 0.009397 -0.014649
v 0.011645 0.009402 -0.014644
v 0.011645 0.009399 -0.014646
v 0.015445 0.009399 -0.014646
v 0.015445 0.009402 -0.014644
v 0.011645 0.009402 -0.014644
v 0.015445 0.009399 -0.014646
v 0.015445 0.009402 -0.014644
v 0.015445 0.009406 -0.014643
v 0.011645 0.009406 -0.014643
v 0.011645 0.009402 -0.014644
v 0.015445 0.009402 -0.014644
v 0.011645 0.009406 -0.014643
v 0.015445 0.009397 -0.014649
v 0.015445 0.009399 -0.014646
v 0.011645 0.009399 -0.014646
v 0.011645 0.009396 -0.014653
v 0.015445 0.009396 -0.014653
v 0.015445 0.009397 -0.014649
v 0.015445 0.009406 -0.014643
v 0.015445 0.009426 -0.014643
v 0.011645 0.009406 -0.014643
v 0.015445 0.009426 -0.014643
v 0.011645 0.009426 -0.014643
v 0.011645 0.009406 -0.014643
v 0.011645 0.009432 -0.014644
v 0.011645 0.009426 -0.014643
v 0.015445 0.009432 -0.014644
v 0.011645 0.009437 -0.014647
v 0.011645 0.009432 -0.014644
v 0.015445 0.009432 -0.014644
v 0.011645 0.009440 -0.014652
v 0.011645 0.009437 -0.014647
v 0.015445 0.009437 -0.014647
v 0.015445 0.009440 -0.014652
v 0.011645 0.009440 -0.014652
v 0.015445 0.009437 -0.014647
v 0.015445 0.009440 -0.014652
v 0.011645 0.009440 -0.014652
v 0.015445 0.009440 -0.014652
v 0.011645 0.009426 -0.014643
v 0.015445 0.009426 -0.014643
v 0.015445 0.009432 -0.014644
v 0.011645 0.009437 -0.014647
v 0.015445 0.009432 -0.014644
v 0.015445 0.009437 -0.014647
v 0.011645 0.009290 -0.014802
v 0.011645 0.009286 -0.014798
v 0.011645 0.009290 -0.014802
v 0.015445 0.009290 -0.014802
v 0.015445 0.009286 -0.014798
v 0.011645 0.009286 -0.014798
v 0.015445 0.009290 -0.014802
v 0.015445 0.009282 -0.014794
v 0.011645 0.009282 -0.014794
v 0.015445 0.009286 -0.014798
v 0.015445 0.009282 -0.014794
v 0.015445 0.009281 -0.014788
v 0.011645 0.009281 -0.014788
v 0.011645 0.009282 -0.014794
v 0.015445 0.009282 -0.014794
v 0.011645 0.009281 -0.014788
v 0.011645 0.009286 -0.014798
v 0.015445 0.009286 -0.014798
v 0.011645 0.009282 -0.014794
v 0.011645 0.009290 -0.014802
v 0.015445 0.009290 -0.014802
v 0.015445 0.009281 -0.014788
v 0.015445 0.009281 -0.014768
v 0.011645 0.009281 -0.014788
v 0.015445 0.009281 -0.014768
v 0.011645 0.009281 -0.014768
v 0.011645 0.009281 -0.014788
v 0.011645 0.009282 -0.014764
v 0.011645 0.009281 -0.014768
v 0.015445 0.009282 -0.014764
v 0.011645 0.009284 -0.014761
v 0.011645 0.009282 -0.014764
v 0.015445 0.009282 -0.014764
v 0.011645 0.009287 -0.014759
v 0.011645 0.009284 -0.014761
v 0.015445 0.009284 -0.014761
v 0.015445 0.009287 -0.014759
v 0.011645 0.009287 -0.014759
v 0.015445 0.009284 -0.014761
v 0.011645 0.009291 -0.014758
v 0.015445 0.009287 -0.014759
v 0.015445 0.009291 -0.014758
v 0.011645 0.009291 -0.014758
v 0.011645 0.009287 -0.014759
v 0.015445 0.009287 -0.014759
v 0.015445 0.009282 -0.014764
v 0.015445 0.009284 -0.014761
v 0.011645 0.009284 -0.014761
v 0.011645 0.009281 -0.014768
v 0.015445 0.009281 -0.014768
v 0.015445 0.009282 -0.014764
v 0.015445 0.009291 -0.014758
v 0.015445 0.009331 -0.014758
v 0.011645 0.009291 -0.014758
v 0.015445 0.009331 -0.014758
v 0.011645 0.009331 -0.014758
v 0.011645 0.009291 -0.014758
v 0.015445 0.009337 -0.014756
v 0.011645 0.009331 -0.014758
v 0.015445 0.009331 -0.014758
v 0.011645 0.009337 -0.014756
v 0.011645 0.009331 -0.014758
v 0.015445 0.009337 -0.014756
v 0.011645 0.009337 -0.014756
v 0.015445 0.009337 -0.014756
v 0.015445 0.009340 -0.014752
v 0.011645 0.009340 -0.014752
v 0.015445 0.009340 -0.014752
v 0.015445 0.009341 -0.014746
v 0.015445 0.009338 -0.014741
v 0.011645 0.009338 -0.014741
v 0.011645 0.009341 -0.014746
v 0.011645 0.009337 -0.014756
v 0.015445 0.009340 -0.014752
v 0.011645 0.009340 -0.014752
v 0.015445 0.009338 -0.014741
v 0.011645 0.009341 -0.014746
v 0.015445 0.009341 -0.014746
v 0.011645 0.009340 -0.014752
v 0.015445 0.009341 -0.014746
v 0.011645 0.009341 -0.014746
v 0.015445 0.009338 -0.014741
v 0.015445 0.009290 -0.014692
v 0.011645 0.009338 -0.014741
v 0.015445 0.009290 -0.014692
v 0.011645 0.009290 -0.014692
v 0.011645 0.009338 -0.014741
v 0.015445 0.009277 -0.014683
v 0.011645 0.009290 -0.014692
v 0.015445 0.009290 -0.014692
v 0.011645 0.009277 -0.014683
v 0.015445 0.009261 -0.014680
v 0.011645 0.009261 -0.014680
v 0.011645 0.009290 -0.014692
v 0.015445 0.009277 -0.014683
v 0.011645 0.009277 -0.014683
v 0.011645 0.009277 -0.014683
v 0.015445 0.009277 -0.014683
v 0.015445 0.009261 -0.014680
v 0.015445 0.009261 -0.014680
v 0.015445 0.009221 -0.014680
v 0.011645 0.009261 -0.014680
v 0.015445 0.009221 -0.014680
v 0.011645 0.009221 -0.014680
v 0.011645 0.009261 -0.014680
v 0.015445 0.009206 -0.014683
v 0.011645 0.009221 -0.014680
v 0.015445 0.009221 -0.014680
v 0.011645 0.009206 -0.014683
v 0.015445 0.009193 -0.014692
v 0.011645 0.009193 -0.014692
v 0.011645 0.009221 -0.014680
v 0.015445 0.009206 -0.014683
v 0.011645 0.009206 -0.014683
v 0.011645 0.009206 -0.014683
v 0.015445 0.009206 -0.014683
v 0.015445 0.009193 -0.014692
v 0.015445 0.009193 -0.014692
v 0.015445 0.009144 -0.014741
v 0.011645 0.009193 -0.014692
v 0.015445 0.009144 -0.014741
v 0.011645 0.009144 -0.014741
v 0.011645 0.009193 -0.014692
v 0.015445 0.009144 -0.014741
v 0.015445 0.009141 -0.014746
v 0.011645 0.009144 -0.014741
v 0.015445 0.009141 -0.014746
v 0.011645 0.009141 -0.014746
v 0.011645 0.009144 -0.014741
v 0.015445 0.009142 -0.014752
v 0.011645 0.009141 -0.014746
v 0.015445 0.009141 -0.014746
v 0.011645 0.009142 -0.014752
v 0.011645 0.009141 -0.014746
v 0.015445 0.009142 -0.014752
v 0.011645 0.009146 -0.014756
v 0.015445 0.009146 -0.014756
v 0.015445 0.009151 -0.014758
v 0.011645 0.009142 -0.014752
v 0.015445 0.009146 -0.014756
v 0.011645 0.009146 -0.014756
v 0.015445 0.009142 -0.014752
v 0.015445 0.009146 -0.014756
v 0.011645 0.009142 -0.014752
v 0.011645 0.009151 -0.014758
v 0.011645 0.009146 -0.014756
v 0.015445 0.009151 -0.014758
v 0.015445 0.009151 -0.014758
v 0.015445 0.009191 -0.014758
v 0.011645 0.009151 -0.014758
v 0.015445 0.009191 -0.014758
v 0.011645 0.009191 -0.014758
v 0.011645 0.009151 -0.014758
v 0.011645 0.009195 -0.014759
v 0.011645 0.009191 -0.014758
v 0.015445 0.009195 -0.014759
v 0.011645 0.009198 -0.014761
v 0.011645 0.009195 -0.014759
v 0.015445 0.009195 -0.014759
v 0.011645 0.009200 -0.014764
v 0.011645 0.009198 -0.014761
v 0.015445 0.009198 -0.014761
v 0.015445 0.009200 -0.014764
v 0.011645 0.009200 -0.014764
v 0.015445 0.009198 -0.014761
v 0.011645 0.009201 -0.014768
v 0.015445 0.009200 -0.014764
v 0.015445 0.009201 -0.014768
v 0.011645 0.009201 -0.014768
v 0.011645 0.009200 -0.014764
v 0.015445 0.009200 -0.014764
v 0.011645 0.009191 -0.014758
v 0.015445 0.009191 -0.014758
v 0.015445 0.009195 -0.014759
v 0.011645 0.009198 -0.014761
v 0.015445 0.009195 -0.014759
v 0.015445 0.009198 -0.014761
v 0.015445 0.009201 -0.014768
v 0.015445 0.009201 -0.014788
v 0.011645 0.009201 -0.014768
v 0.015445 0.009201 -0.014788
v 0.011645 0.009201 -0.014788
v 0.011645 0.009201 -0.014768
v 0.011645 0.009200 -0.014794
v 0.011645 0.009201 -0.014788
v 0.015445 0.009200 -0.014794
v 0.011645 0.009197 -0.014798
v 0.011645 0.009200 -0.014794
v 0.015445 0.009200 -0.014794
v 0.011645 0.009192 -0.014802
v 0.011645 0.009197 -0.014798
v 0.015445 0.009197 -0.014798
v 0.015445 0.009192 -0.014802
v 0.011645 0.009192 -0.014802
v 0.015445 0.009197 -0.014798
v 0.015445 0.009192 -0.014802
v 0.011645 0.009192 -0.014802
v 0.015445 0.009192 -0.014802
v 0.015445 0.009200 -0.014794
v 0.015445 0.009197 -0.014798
v 0.011645 0.009197 -0.014798
v 0.011645 0.009201 -0.014788
v 0.015445 0.009201 -0.014788
v 0.015445 0.009200 -0.014794
v 0.011645 0.009042 -0.014652
v 0.011645 0.009046 -0.014647
v 0.011645 0.009042 -0.014652
v 0.015445 0.009042 -0.014652
v 0.015445 0.009046 -0.014647
v 0.011645 0.009046 -0.014647
v 0.015445 0.009042 -0.014652
v 0.015445 0.009050 -0.014644
v 0.011645 0.009050 -0.014644
v 0.015445 0.009046 -0.014647
v 0.011645 0.009056 -0.014643
v 0.015445 0.009050 -0.014644
v 0.015445 0.009056 -0.014643
v 0.011645 0.009056 -0.014643
v 0.011645 0.009050 -0.014644
v 0.015445 0.009050 -0.014644
v 0.015445 0.009046 -0.014647
v 0.011645 0.009050 -0.014644
v 0.011645 0.009046 -0.014647
v 0.011645 0.009042 -0.014652
v 0.015445 0.009042 -0.014652
v 0.015445 0.009056 -0.014643
v 0.015445 0.009076 -0.014643
v 0.011645 0.009056 -0.014643
v 0.015445 0.009076 -0.014643
v 0.011645 0.009076 -0.014643
v 0.011645 0.009056 -0.014643
v 0.011645 0.009080 -0.014644
v 0.011645 0.009076 -0.014643
v 0.015445 0.009080 -0.014644
v 0.011645 0.009083 -0.014646
v 0.011645 0.009080 -0.014644
v 0.015445 0.009080 -0.014644
v 0.011645 0.009085 -0.014649
v 0.011645 0.009083 -0.014646
v 0.015445 0.009083 -0.014646
v 0.015445 0.009085 -0.014649
v 0.011645 0.009085 -0.014649
v 0.015445 0.009083 -0.014646
v 0.011645 0.009086 -0.014653
v 0.015445 0.009085 -0.014649
v 0.015445 0.009086 -0.014653
v 0.011645 0.009086 -0.014653
v 0.011645 0.009085 -0.014649
v 0.015445 0.009085 -0.014649
v 0.011645 0.009076 -0.014643
v 0.015445 0.009076 -0.014643
v 0.015445 0.009080 -0.014644
v 0.011645 0.009083 -0.014646
v 0.015445 0.009080 -0.014644
v 0.015445 0.009083 -0.014646
v 0.015445 0.009086 -0.014653
v 0.015445 0.009086 -0.014693
v 0.011645 0.009086 -0.014653
v 0.015445 0.009086 -0.014693
v 0.011645 0.009086 -0.014693
v 0.011645 0.009086 -0.014653
v 0.015445 0.009086 -0.014693
v 0.015445 0.009088 -0.014698
v 0.011645 0.009086 -0.014693
v 0.015445 0.009088 -0.014698
v 0.011645 0.009088 -0.014698
v 0.011645 0.009086 -0.014693
v 0.015445 0.009092 -0.014702
v 0.011645 0.009088 -0.014698
v 0.015445 0.009088 -0.014698
v 0.011645 0.009092 -0.014702
v 0.011645 0.009088 -0.014698
v 0.015445 0.009092 -0.014702
v 0.015445 0.009103 -0.014700
v 0.011645 0.009103 -0.014700
v 0.011645 0.009098 -0.014703
v 0.015445 0.009103 -0.014700
v 0.011645 0.009098 -0.014703
v 0.015445 0.009098 -0.014703
v 0.015445 0.009098 -0.014703
v 0.011645 0.009098 -0.014703
v 0.011645 0.009092 -0.014702
v 0.011645 0.009092 -0.014702
v 0.015445 0.009092 -0.014702
v 0.015445 0.009098 -0.014703
v 0.015445 0.009103 -0.014700
v 0.015445 0.009152 -0.014651
v 0.011645 0.009103 -0.014700
v 0.015445 0.009152 -0.014651
v 0.011645 0.009152 -0.014651
v 0.011645 0.009103 -0.014700
v 0.015445 0.009161 -0.014638
v 0.011645 0.009152 -0.014651
v 0.015445 0.009152 -0.014651
v 0.015445 0.009164 -0.014623
v 0.011645 0.009161 -0.014638
v 0.015445 0.009161 -0.014638
v 0.015445 0.009161 -0.014638
v 0.011645 0.009161 -0.014638
v 0.011645 0.009152 -0.014651
v 0.011645 0.009164 -0.014623
v 0.011645 0.009161 -0.014638
v 0.015445 0.009164 -0.014623
v 0.015445 0.009164 -0.014623
v 0.015445 0.009164 -0.014583
v 0.011645 0.009164 -0.014623
v 0.015445 0.009164 -0.014583
v 0.011645 0.009164 -0.014583
v 0.011645 0.009164 -0.014623
v 0.015445 0.009161 -0.014567
v 0.011645 0.009164 -0.014583
v 0.015445 0.009164 -0.014583
v 0.011645 0.009161 -0.014567
v 0.015445 0.009152 -0.014554
v 0.011645 0.009152 -0.014554
v 0.011645 0.009164 -0.014583
v 0.015445 0.009161 -0.014567
v 0.011645 0.009161 -0.014567
v 0.011645 0.009161 -0.014567
v 0.015445 0.009161 -0.014567
v 0.015445 0.009152 -0.014554
v 0.015445 0.009152 -0.014554
v 0.015445 0.009103 -0.014506
v 0.011645 0.009152 -0.014554
v 0.015445 0.009103 -0.014506
v 0.011645 0.009103 -0.014506
v 0.011645 0.009152 -0.014554
v 0.015445 0.009098 -0.014503
v 0.011645 0.009103 -0.014506
v 0.015445 0.009103 -0.014506
v 0.011645 0.009098 -0.014503
v 0.011645 0.009103 -0.014506
v 0.015445 0.009098 -0.014503
v 0.011645 0.009098 -0.014503
v 0.015445 0.009098 -0.014503
v 0.015445 0.009092 -0.014504
v 0.015445 0.009086 -0.014513
v 0.011645 0.009086 -0.014513
v 0.011645 0.009088 -0.014507
v 0.015445 0.009092 -0.014504
v 0.011645 0.009092 -0.014504
v 0.011645 0.009098 -0.014503
v 0.015445 0.009088 -0.014507
v 0.015445 0.009086 -0.014513
v 0.011645 0.009088 -0.014507
v 0.015445 0.009088 -0.014507
v 0.011645 0.009088 -0.014507
v 0.011645 0.009092 -0.014504
v 0.015445 0.009088 -0.014507
v 0.011645 0.009092 -0.014504
v 0.015445 0.009092 -0.014504
v 0.015445 0.009086 -0.014513
v 0.015445 0.009086 -0.014553
v 0.011645 0.009086 -0.014513
v 0.015445 0.009086 -0.014553
v 0.011645 0.009086 -0.014553
v 0.011645 0.009086 -0.014513
v 0.011645 0.009085 -0.014557
v 0.011645 0.009086 -0.014553
v 0.015445 0.009085 -0.014557
v 0.011645 0.009083 -0.014560
v 0.011645 0.009085 -0.014557
v 0.015445 0.009085 -0.014557
v 0.011645 0.009080 -0.014562
v 0.011645 0.009083 -0.014560
v 0.015445 0.009083 -0.014560
v 0.015445 0.009080 -0.014562
v 0.011645 0.009080 -0.014562
v 0.015445 0.009083 -0.014560
v 0.011645 0.009076 -0.014563
v 0.015445 0.009080 -0.014562
v 0.015445 0.009076 -0.014563
v 0.011645 0.009076 -0.014563
v 0.011645 0.009080 -0.014562
v 0.015445 0.009080 -0.014562
v 0.011645 0.009086 -0.014553
v 0.015445 0.009086 -0.014553
v 0.015445 0.009085 -0.014557
v 0.011645 0.009083 -0.014560
v 0.015445 0.009085 -0.014557
v 0.015445 0.009083 -0.014560
v 0.015445 0.009076 -0.014563
v 0.015445 0.009056 -0.014563
v 0.011645 0.009076 -0.014563
v 0.015445 0.009056 -0.014563
v 0.011645 0.009056 -0.014563
v 0.011645 0.009076 -0.014563
v 0.011645 0.009050 -0.014562
v 0.011645 0.009056 -0.014563
v 0.015445 0.009050 -0.014562
v 0.011645 0.009046 -0.014558
v 0.011645 0.009050 -0.014562
v 0.015445 0.009050 -0.014562
v 0.011645 0.009042 -0.014554
v 0.011645 0.009046 -0.014558
v 0.015445 0.009046 -0.014558
v 0.015445 0.009042 -0.014554
v 0.011645 0.009042 -0.014554
v 0.015445 0.009046 -0.014558
v 0.015445 0.009042 -0.014554
v 0.011645 0.009042 -0.014554
v 0.015445 0.009042 -0.014554
v 0.015445 0.009050 -0.014562
v 0.015445 0.009046 -0.014558
v 0.011645 0.009046 -0.014558
v 0.011645 0.009056 -0.014563
v 0.015445 0.009056 -0.014563
v 0.015445 0.009050 -0.014562
v 0.011645 0.009192 -0.014404
v 0.011645 0.009197 -0.014407
v 0.011645 0.009192 -0.014404
v 0.015445 0.009192 -0.014404
v 0.015445 0.009197 -0.014407
v 0.011645 0.009197 -0.014407
v 0.015445 0.009192 -0.014404
v 0.015445 0.009200 -0.014412
v 0.011645 0.009200 -0.014412
v 0.015445 0.009197 -0.014407
v 0.011645 0.009201 -0.014418
v 0.015445 0.009200 -0.014412
v 0.015445 0.009201 -0.014418
v 0.011645 0.009201 -0.014418
v 0.011645 0.009200 -0.014412
v 0.015445 0.009200 -0.014412
v 0.015445 0.009197 -0.014407
v 0.011645 0.009200 -0.014412
v 0.011645 0.009197 -0.014407
v 0.011645 0.009192 -0.014404
v 0.015445 0.009192 -0.014404
v 0.015445 0.009201 -0.014418
v 0.015445 0.009201 -0.014438
v 0.011645 0.009201 -0.014418
v 0.015445 0.009201 -0.014438
v 0.011645 0.009201 -0.014438
v 0.011645 0.009201 -0.014418
v 0.011645 0.009200 -0.014442
v 0.011645 0.009201 -0.014438
v 0.015445 0.009200 -0.014442
v 0.011645 0.009198 -0.014445
v 0.011645 0.009200 -0.014442
v 0.015445 0.009200 -0.014442
v 0.011645 0.009195 -0.014447
v 0.011645 0.009198 -0.014445
v 0.015445 0.009198 -0.014445
v 0.015445 0.009195 -0.014447
v 0.011645 0.009195 -0.014447
v 0.015445 0.009198 -0.014445
v 0.015445 0.009195 -0.014447
v 0.015445 0.009191 -0.014448
v 0.011645 0.009191 -0.014448
v 0.011645 0.009195 -0.014447
v 0.015445 0.009195 -0.014447
v 0.011645 0.009191 -0.014448
v 0.015445 0.009200 -0.014442
v 0.015445 0.009198 -0.014445
v 0.011645 0.009198 -0.014445
v 0.011645 0.009201 -0.014438
v 0.015445 0.009201 -0.014438
v 0.015445 0.009200 -0.014442
v 0.015445 0.009191 -0.014448
v 0.015445 0.009151 -0.014448
v 0.011645 0.009191 -0.014448
v 0.015445 0.009151 -0.014448
v 0.011645 0.009151 -0.014448
v 0.011645 0.009191 -0.014448
v 0.015445 0.009151 -0.014448
v 0.015445 0.009146 -0.014450
v 0.011645 0.009151 -0.014448
v 0.015445 0.009146 -0.014450
v 0.011645 0.009146 -0.014450
v 0.011645 0.009151 -0.014448
v 0.015445 0.009142 -0.014454
v 0.011645 0.009146 -0.014450
v 0.015445 0.009146 -0.014450
v 0.011645 0.009142 -0.014454
v 0.011645 0.009146 -0.014450
v 0.015445 0.009142 -0.014454
v 0.011645 0.009144 -0.014465
v 0.011645 0.009141 -0.014460
v 0.015445 0.009144 -0.014465
v 0.011645 0.009141 -0.014460
v 0.015445 0.009141 -0.014460
v 0.015445 0.009144 -0.014465
v 0.011645 0.009142 -0.014454
v 0.015445 0.009141 -0.014460
v 0.011645 0.009141 -0.014460
v 0.015445 0.009142 -0.014454
v 0.015445 0.009141 -0.014460
v 0.011645 0.009142 -0.014454
v 0.015445 0.009144 -0.014465
v 0.015445 0.009193 -0.014514
v 0.011645 0.009144 -0.014465
v 0.015445 0.009193 -0.014514
v 0.011645 0.009193 -0.014514
v 0.011645 0.009144 -0.014465
v 0.015445 0.009193 -0.014514
v 0.015445 0.009206 -0.014522
v 0.011645 0.009193 -0.014514
v 0.015445 0.009206 -0.014522
v 0.011645 0.009206 -0.014522
v 0.011645 0.009193 -0.014514
v 0.011645 0.009206 -0.014522
v 0.015445 0.009221 -0.014525
v 0.011645 0.009221 -0.014525
v 0.015445 0.009221 -0.014525
v 0.011645 0.009206 -0.014522
v 0.015445 0.009206 -0.014522
v 0.015445 0.009221 -0.014525
v 0.015445 0.009261 -0.014525
v 0.011645 0.009221 -0.014525
v 0.015445 0.009261 -0.014525
v 0.011645 0.009261 -0.014525
v 0.011645 0.009221 -0.014525
v 0.015445 0.009261 -0.014525
v 0.015445 0.009277 -0.014522
v 0.011645 0.009261 -0.014525
v 0.015445 0.009277 -0.014522
v 0.011645 0.009277 -0.014522
v 0.011645 0.009261 -0.014525
v 0.011645 0.009277 -0.014522
v 0.015445 0.009290 -0.014514
v 0.011645 0.009290 -0.014514
v 0.015445 0.009290 -0.014514
v 0.011645 0.009277 -0.014522
v 0.015445 0.009277 -0.014522
v 0.015445 0.009290 -0.014514
v 0.015445 0.009338 -0.014465
v 0.011645 0.009290 -0.014514
v 0.015445 0.009338 -0.014465
v 0.011645 0.009338 -0.014465
v 0.011645 0.009290 -0.014514
v 0.015445 0.009341 -0.014460
v 0.011645 0.009338 -0.014465
v 0.015445 0.009338 -0.014465
v 0.011645 0.009341 -0.014460
v 0.011645 0.009338 -0.014465
v 0.015445 0.009341 -0.014460
v 0.011645 0.009341 -0.014460
v 0.015445 0.009341 -0.014460
v 0.015445 0.009340 -0.014454
v 0.011645 0.009340 -0.014454
v 0.015445 0.009340 -0.014454
v 0.015445 0.009337 -0.014450
v 0.015445 0.009331 -0.014448
v 0.011645 0.009331 -0.014448
v 0.011645 0.009337 -0.014450
v 0.015445 0.009331 -0.014448
v 0.011645 0.009337 -0.014450
v 0.015445 0.009337 -0.014450
v 0.015445 0.009337 -0.014450
v 0.011645 0.009337 -0.014450
v 0.011645 0.009340 -0.014454
v 0.011645 0.009341 -0.014460
v 0.015445 0.009340 -0.014454
v 0.011645 0.009340 -0.014454
v 0.015445 0.009331 -0.014448
v 0.015445 0.009291 -0.014448
v 0.011645 0.009331 -0.014448
v 0.015445 0.009291 -0.014448
v 0.011645 0.009291 -0.014448
v 0.011645 0.009331 -0.014448
v 0.011645 0.009287 -0.014447
v 0.011645 0.009291 -0.014448
v 0.015445 0.009287 -0.014447
v 0.011645 0.009284 -0.014445
v 0.011645 0.009287 -0.014447
v 0.015445 0.009287 -0.014447
v 0.011645 0.009282 -0.014442
v 0.011645 0.009284 -0.014445
v 0.015445 0.009284 -0.014445
v 0.015445 0.009282 -0.014442
v 0.011645 0.009282 -0.014442
v 0.015445 0.009284 -0.014445
v 0.015445 0.009282 -0.014442
v 0.015445 0.009281 -0.014438
v 0.011645 0.009281 -0.014438
v 0.011645 0.009282 -0.014442
v 0.015445 0.009282 -0.014442
v 0.011645 0.009281 -0.014438
v 0.015445 0.009287 -0.014447
v 0.015445 0.009284 -0.014445
v 0.011645 0.009284 -0.014445
v 0.011645 0.009291 -0.014448
v 0.015445 0.009291 -0.014448
v 0.015445 0.009287 -0.014447
v 0.015445 0.009281 -0.014438
v 0.015445 0.009281 -0.014418
v 0.011645 0.009281 -0.014438
v 0.015445 0.009281 -0.014418
v 0.011645 0.009281 -0.014418
v 0.011645 0.009281 -0.014438
v 0.011645 0.009282 -0.014412
v 0.011645 0.009281 -0.014418
v 0.015445 0.009282 -0.014412
v 0.011645 0.009286 -0.014407
v 0.011645 0.009282 -0.014412
v 0.015445 0.009282 -0.014412
v 0.011645 0.009290 -0.014404
v 0.011645 0.009286 -0.014407
v 0.015445 0.009286 -0.014407
v 0.015445 0.009290 -0.014404
v 0.011645 0.009290 -0.014404
v 0.015445 0.009286 -0.014407
v 0.015445 0.009290 -0.014404
v 0.011645 0.009290 -0.014404
v 0.015445 0.009290 -0.014404
v 0.015445 0.009282 -0.014412
v 0.015445 0.009286 -0.014407
v 0.011645 0.009286 -0.014407
v 0.011645 0.009281 -0.014418
v 0.015445 0.009281 -0.014418
v 0.015445 0.009282 -0.014412
v 0.011645 0.009416 -0.014406
v 0.015445 0.009416 -0.014406
v 0.011645 0.009416 -0.014406
v 0.015445 0.009416 -0.014406
v 0.011645 0.009429 -0.014415
v 0.011645 0.009416 -0.014406
v 0.015445 0.009438 -0.014428
v 0.011645 0.009429 -0.014415
v 0.015445 0.009416 -0.014406
v 0.015445 0.009429 -0.014415
v 0.011645 0.009438 -0.014428
v 0.015445 0.009438 -0.014428
v 0.011645 0.009438 -0.014428
v 0.015445 0.009429 -0.014415
v 0.015445 0.009438 -0.014428
v 0.011645 0.009438 -0.014428
v 0.011645 0.009429 -0.014415
v 0.015445 0.009429 -0.014415
v 0.011645 0.009044 -0.014428
v 0.015445 0.009044 -0.014428
v 0.011645 0.009044 -0.014428
v 0.015445 0.009044 -0.014428
v 0.011645 0.009053 -0.014415
v 0.011645 0.009044 -0.014428
v 0.015445 0.009066 -0.014406
v 0.011645 0.009066 -0.014406
v 0.015445 0.009066 -0.014406
v 0.011645 0.009066 -0.014406
v 0.015445 0.009053 -0.014415
v 0.015445 0.009066 -0.014406
v 0.011645 0.009053 -0.014415
v 0.015445 0.009044 -0.014428
v 0.015445 0.009053 -0.014415
v 0.011645 0.009053 -0.014415
v 0.015445 0.009053 -0.014415
v 0.011645 0.009066 -0.014406
v 0.011645 0.009066 -0.014800
v 0.015445 0.009066 -0.014800
v 0.011645 0.009066 -0.014800
v 0.015445 0.009066 -0.014800
v 0.011645 0.009053 -0.014791
v 0.011645 0.009066 -0.014800
v 0.015445 0.009053 -0.014791
v 0.011645 0.009044 -0.014778
v 0.011645 0.009053 -0.014791
v 0.015445 0.009066 -0.014800
v 0.015445 0.009053 -0.014791
v 0.011645 0.009053 -0.014791
v 0.015445 0.009044 -0.014778
v 0.011645 0.009044 -0.014778
v 0.015445 0.009044 -0.014778
v 0.015445 0.009053 -0.014791
v 0.015445 0.009044 -0.014778
v 0.011645 0.009044 -0.014778
v 0.011645 0.009438 -0.014778
v 0.011645 0.009438 -0.014778
v 0.015445 0.009438 -0.014778
v 0.011645 0.009429 -0.014791
v 0.011645 0.009438 -0.014778
v 0.015445 0.009438 -0.014778
v 0.015445 0.009429 -0.014791
v 0.011645 0.009429 -0.014791
v 0.015445 0.009438 -0.014778
v 0.015445 0.009416 -0.014800
v 0.011645 0.009416 -0.014800
v 0.015445 0.009416 -0.014800
v 0.011645 0.009416 -0.014800
v 0.015445 0.009429 -0.014791
v 0.015445 0.009416 -0.014800
v 0.011645 0.009429 -0.014791
v 0.015445 0.009429 -0.014791
v 0.011645 0.009416 -0.014800
vn -0.0000 0.0002 1.0000
vn -0.0000 -0.0000 1.0000
vn -0.0000 -1.0000 0.0002
vn -0.0000 -1.0000 -0.0000
vn -0.0000 -0.0002 -1.0000
vn -0.0000 -0.0000 -1.0000
vn -0.0000 1.0000 -0.0002
vn -0.0000 1.0000 -0.0000
vn -0.0000 -0.0002 1.0000
vn -0.0000 -1.0000 -0.0002
vn -0.0000 0.0002 -1.0000
vn -0.0000 1.0000 0.0002
vn 1.0000 -0.0000 -0.0000
vn 1.0000 0.0001 -0.0000
vn 1.0000 0.0002 -0.0000
vn 1.0000 -0.0001 -0.0000
vn 1.0000 -0.0002 -0.0000
vn 1.0000 0.0003 -0.0000
vn 1.0000 -0.0003 -0.0000
vn -1.0000 -0.0000 -0.0000
vn -1.0000 0.0001 -0.0000
vn -1.0000 -0.0001 -0.0000
vn -1.0000 -0.0004 -0.0000
vn -1.0000 0.0002 -0.0000
vn -1.0000 -0.0002 -0.0000
vn -1.0000 0.0004 -0.0000
vn -0.0000 0.9239 0.3826
vn -0.0000 0.7071 0.7071
vn -0.0000 0.9239 0.3827
vn -0.0000 0.3827 0.9239
vn -0.0000 0.7071 0.7072
vn -0.0000 0.0001 1.0000
vn -0.0000 0.3826 0.9239
vn -0.0000 -0.3826 0.9239
vn -0.0003 -0.0001 1.0000
vn -0.0000 -0.5555 0.8315
vn -0.0000 -0.3827 0.9239
vn -0.0002 -0.5556 0.8315
vn 0.0002 -0.7071 0.7071
vn -0.0000 -0.7071 0.7071
vn -0.0000 -0.9239 0.3827
vn -0.0002 -0.9239 0.3826
vn -0.0000 -0.9808 -0.1950
vn -0.0003 -0.9808 -0.1951
vn -0.0000 -0.7072 -0.7071
vn -0.0000 -0.9239 -0.3827
vn -0.0000 -0.7071 -0.7071
vn -0.0000 0.9239 -0.3826
vn -0.0003 0.8315 -0.5555
vn 0.0002 0.8315 -0.5556
vn 0.0002 0.9239 -0.3827
vn -0.0000 0.7071 -0.7071
vn -0.0000 0.8314 -0.5557
vn -0.0003 0.3827 -0.9239
vn -0.0000 0.3827 -0.9239
vn -0.0000 0.3826 -0.9239
vn -0.0002 -0.1951 -0.9808
vn -0.0000 0.3825 -0.9239
vn -0.0000 -0.3826 -0.9239
vn 0.0002 -0.1951 -0.9808
vn 0.0003 -0.0000 -1.0000
vn -0.0000 -0.1951 -0.9808
vn -0.0000 -0.3827 -0.9239
vn -0.0003 -0.7071 -0.7071
vn 0.0002 -0.9808 -0.1951
vn 0.0003 -0.9239 -0.3825
vn -0.0000 -0.9239 0.3826
vn -0.0003 -0.5557 0.8314
vn -0.0000 -0.0001 1.0000
vn -0.0000 0.9239 -0.3827
vn -0.0000 0.9239 -0.3828
vn -0.0001 0.3826 -0.9239
vn 0.0001 1.0000 -0.0000
vn -0.0001 -0.9239 -0.3826
vn -0.0000 -1.0000 -0.0001
vn -0.0000 -0.9239 -0.3826
vn -0.0000 -0.8315 -0.5555
vn -0.0000 -0.8314 -0.5557
vn -0.0000 0.1951 -0.9808
vn -0.0000 0.1950 -0.9808
vn -0.0000 -0.3828 -0.9239
vn -0.0000 1.0000 -0.0001
vn -0.0000 0.1951 0.9808
vn -0.0000 -0.8314 0.5557
vn -0.0000 -0.8315 0.5555
vn -0.0000 -0.7072 0.7071
vn -0.0000 -1.0000 0.0001
vn 0.0001 0.9239 0.3827
vn -0.0001 0.7071 0.7071
vn -0.0000 -0.7070 -0.7072
vn -0.0001 -0.0000 -1.0000
vn -0.0000 -0.5557 0.8314
vn -0.0000 -0.5556 0.8314
vn -0.0000 -0.9808 -0.1951
vn -0.0000 -0.0001 -1.0000
vn -0.0000 0.9808 -0.1951
vn -0.0000 0.9239 0.3825
vn -0.0000 0.5555 0.8315
vn -0.0000 0.5557 0.8314
vn -0.0000 0.3828 -0.9239
vn -0.0001 1.0000 -0.0000
vn -0.0001 -0.3826 0.9239
vn 0.0001 -1.0000 -0.0000
vn -0.0001 0.9239 0.3826
vn -0.0000 0.8315 0.5555
vn -0.0000 0.8314 0.5557
vn -0.0000 -0.1951 0.9808
vn -0.0000 -0.1952 0.9808
vn -0.0000 -0.1952 -0.9808
vn -0.0000 0.8315 -0.5555
vn -0.0000 -0.7070 -0.7073
vn -0.0000 -0.7072 -0.7070
vn -0.0000 -0.7069 -0.7073
vn -0.0001 -0.0000 1.0000
vn -0.0000 0.0001 -1.0000
vn -0.0000 0.5555 -0.8315
vn -0.0000 0.5557 -0.8314
vn -0.0000 0.9808 0.1951
vn -0.0000 0.9808 0.1952
vn -0.0000 0.9808 0.1950
vn -0.0000 -0.9808 0.1951
vn -0.0000 -0.9808 0.1950
vn -0.0000 -0.5557 -0.8314
vn -0.0000 -0.5555 -0.8315
vn -0.0000 -0.5556 -0.8314
vn -0.0000 -0.9239 0.3828
vn -0.0001 -1.0000 -0.0000
vn 0.0001 0.3825 0.9239
vn -0.0000 0.3825 0.9239
vn -0.0000 0.3828 0.9239
vn -0.0000 1.0000 0.0001
vn 0.0001 -0.9239 0.3826
vn -0.0000 -0.3825 0.9239
vn -0.0001 -0.9239 0.3827
vn 0.0001 0.9239 -0.3826
vt -1.600000 19.000000
vt -1.600000 -19.000000
vt -0.550000 19.000000
vt -0.550000 -19.000000
vt 1.600000 -19.000000
vt 1.600000 19.000000
vt 0.550000 -19.000000
vt 0.550000 19.000000
vt 0.130112 -0.314119
vt 0.200736 -0.775000
vt 0.353809 -0.805448
vt 0.000000 -0.340000
vt 0.240416 -0.240416
vt 0.314119 -0.130112
vt 0.805448 -0.353809
vt 0.775000 -0.200736
vt 0.775000 0.200736
vt 0.340000 0.000000
vt 0.130112 0.314119
vt 0.282700 0.188894
vt 0.353809 0.805448
vt 0.805448 0.353809
vt -0.240416 0.240416
vt -0.200736 0.775000
vt -0.353809 0.805448
vt -0.066331 0.333467
vt -0.333467 0.066331
vt -0.775000 0.200736
vt -0.775000 -0.200736
vt -0.805448 0.353809
vt -0.805448 -0.353809
vt -0.314119 -0.130112
vt -0.200736 -0.775000
vt 1.988582 0.492597
vt 2.000000 0.550000
vt 1.956066 0.443934
vt 1.907402 0.411418
vt 1.611732 0.407612
vt 1.650000 0.400000
vt 1.550000 0.500000
vt 1.850000 0.400000
vt 1.579289 0.429289
vt 1.533147 0.955557
vt 2.000000 1.600000
vt 1.488268 0.992388
vt 1.550000 0.900000
vt 1.430491 0.998079
vt 1.379289 0.970711
vt 0.970711 1.379289
vt 0.892157 0.483579
vt 0.998079 1.430491
vt 0.483579 0.892157
vt 0.200736 0.775000
vt 1.430491 -0.998079
vt 1.379289 -0.970711
vt 0.998079 -1.430491
vt 0.970711 -1.379289
vt 1.600000 -2.000000
vt 1.533147 -0.955557
vt 2.000000 -1.600000
vt 1.550000 -0.900000
vt 1.488268 -0.992388
vt 0.483579 -0.892157
vt 1.550000 -0.500000
vt 2.000000 -0.550000
vt 0.892157 -0.483579
vt 1.557612 0.461732
vt 1.557612 -0.461732
vt 1.650000 -0.400000
vt 1.956066 -0.443934
vt 1.907403 -0.411418
vt 1.579289 -0.429289
vt 1.850000 -0.400000
vt 1.969552 -1.753073
vt 0.955557 -1.533147
vt 0.900000 -1.550000
vt 0.550000 -2.000000
vt 0.500000 -1.550000
vt 0.400000 -1.850000
vt 0.411418 -1.907402
vt 0.443934 -1.956066
vt 0.492597 -1.988582
vt 0.400000 -1.650000
vt 0.429289 -1.579289
vt 0.407612 -1.611732
vt 0.992388 -1.488268
vt 0.461732 -1.557612
vt 1.988582 -0.492597
vt 1.611732 -0.407612
vt -0.188894 -0.282700
vt -0.353809 -0.805448
vt -0.998079 -1.430491
vt -0.970711 -1.379289
vt -1.430491 -0.998079
vt -1.379289 -0.970711
vt -2.000000 -1.600000
vt -0.955557 -1.533147
vt -1.600000 -2.000000
vt -0.900000 -1.550000
vt -0.992388 -1.488268
vt -0.892157 -0.483579
vt -0.500000 -1.550000
vt -0.550000 -2.000000
vt -0.483579 -0.892157
vt -0.400000 -1.850000
vt -0.400000 -1.650000
vt 1.882843 -1.882843
vt -0.429289 -1.579289
vt -0.407612 -1.611732
vt 1.753073 -1.969552
vt -0.492597 -1.988582
vt -0.443934 -1.956066
vt -0.461732 -1.557612
vt -1.753073 -1.969552
vt -1.533147 -0.955557
vt -1.550000 -0.900000
vt -2.000000 -0.550000
vt -1.550000 -0.500000
vt -1.850000 -0.400000
vt -1.907402 -0.411418
vt -1.956066 -0.443934
vt -1.988582 -0.492597
vt -1.650000 -0.400000
vt -1.579289 -0.429289
vt -1.611732 -0.407612
vt -1.488268 -0.992388
vt -1.557612 -0.461732
vt -0.411418 -1.907403
vt -1.430491 0.998079
vt -1.379289 0.970711
vt -0.998079 1.430491
vt -0.970711 1.379289
vt -1.600000 2.000000
vt -1.533147 0.955557
vt -2.000000 1.600000
vt -1.550000 0.900000
vt -1.488268 0.992388
vt -0.483579 0.892157
vt -1.550000 0.500000
vt -2.000000 0.550000
vt -0.892157 0.483579
vt -1.882843 -1.882843
vt -1.969552 -1.753073
vt -1.650000 0.400000
vt -1.557612 0.461732
vt -1.611732 0.407612
vt -1.579289 0.429289
vt -1.850000 0.400000
vt -1.907403 0.411418
vt -1.988582 0.492597
vt -1.956066 0.443934
vt -1.969552 1.753073
vt -0.955557 1.533147
vt -0.900000 1.550000
vt -0.550000 2.000000
vt -0.500000 1.550000
vt -0.400000 1.850000
vt -0.411418 1.907402
vt -0.443934 1.956066
vt -0.492597 1.988582
vt -0.400000 1.650000
vt -0.429289 1.579289
vt -0.407612 1.611732
vt -0.992388 1.488268
vt -0.461732 1.557612
vt 1.600000 2.000000
vt 0.992388 1.488268
vt 0.955557 1.533147
vt 0.900000 1.550000
vt 0.550000 2.000000
vt 0.500000 1.550000
vt 0.400000 1.650000
vt 0.400000 1.850000
vt 0.429289 1.579289
vt 0.461732 1.557612
vt -1.753073 1.969552
vt -1.882843 1.882843
vt 0.443934 1.956066
vt 0.411418 1.907403
vt 0.407612 1.611732
vt 1.969552 1.753073
vt 1.882843 1.882843
vt 1.753073 1.969552
vt 0.492597 1.988582
vt -1.907402 0.411418
vt -1.988582 0.492598
vt -0.340000 -0.000000
vt -0.240416 -0.240416
vt -0.314119 0.130112
vt -1.907403 -0.411418
vt -0.411418 -1.907402
vt -0.492598 -1.988582
vt -0.130112 -0.314119
vt 0.411418 -1.907403
vt 1.907402 -0.411418
vt 1.988582 -0.492598
vt 0.240416 0.240416
vt 0.314119 0.130112
vt 1.907403 0.411418
vt 0.411418 1.907402
vt 0.492598 1.988582
vt -0.000000 0.340000
vt -0.130112 0.314119
vt -0.411418 1.907403
vt 0.130112 -19.000000
vt 0.130112 19.000000
vt 0.000000 -19.000000
vt 0.240416 -19.000000
vt -0.130112 -19.000000
vt -0.240416 19.000000
vt -0.240416 -19.000000
vt -0.130112 19.000000
vt -0.000000 19.000000
vt 0.188894 -19.000000
vt 0.240416 19.000000
vt 0.066331 -19.000000
vt -0.188894 -19.000000
vt 0.282700 -19.000000
vt -0.066331 -19.000000
vt -0.282700 -19.000000
vt -0.492598 19.000000
vt -0.443934 19.000000
vt -0.492597 -19.000000
vt -0.443934 -19.000000
vt -1.907402 -19.000000
vt -1.907402 19.000000
vt -1.956066 -19.000000
vt -1.850000 -19.000000
vt -1.850000 19.000000
vt -1.956066 19.000000
vt -1.650000 -19.000000
vt -1.650000 19.000000
vt -1.611732 19.000000
vt -1.611732 -19.000000
vt -1.579289 19.000000
vt 0.461732 19.000000
vt 0.429289 19.000000
vt 0.429289 -19.000000
vt 0.461732 -19.000000
vt 0.500000 -19.000000
vt 0.500000 19.000000
vt -1.579289 -19.000000
vt 0.900000 -19.000000
vt 0.900000 19.000000
vt 0.955557 -19.000000
vt 0.955557 19.000000
vt -1.533147 19.000000
vt -1.533147 -19.000000
vt -1.488268 -19.000000
vt -1.430491 19.000000
vt -1.379289 -19.000000
vt -1.379289 19.000000
vt -1.430491 -19.000000
vt -1.488268 19.000000
vt -0.892157 -19.000000
vt -0.892157 19.000000
vt -0.353809 -19.000000
vt -0.483579 19.000000
vt -0.483579 -19.000000
vt -0.200736 -19.000000
vt -0.200736 19.000000
vt -0.353809 19.000000
vt 0.200736 -19.000000
vt 0.200736 19.000000
vt 0.353809 -19.000000
vt 0.353809 19.000000
vt 0.483579 -19.000000
vt 0.483579 19.000000
vt 0.892157 -19.000000
vt 1.379289 -19.000000
vt 0.892157 19.000000
vt 1.379289 19.000000
vt 1.430491 -19.000000
vt 1.430491 19.000000
vt 1.488268 -19.000000
vt 1.488268 19.000000
vt 1.533147 -19.000000
vt -0.900000 19.000000
vt -0.955557 19.000000
vt -0.900000 -19.000000
vt -0.955557 -19.000000
vt 1.533147 19.000000
vt -0.500000 -19.000000
vt -0.500000 19.000000
vt -0.461732 19.000000
vt -0.461732 -19.000000
vt -0.429289 19.000000
vt 1.611732 19.000000
vt 1.579289 19.000000
vt 1.579289 -19.000000
vt 1.611732 -19.000000
vt 1.650000 -19.000000
vt 1.650000 19.000000
vt -0.429289 -19.000000
vt 1.850000 -19.000000
vt 1.850000 19.000000
vt 1.907403 19.000000
vt 1.907403 -19.000000
vt 1.956066 19.000000
vt 0.492597 19.000000
vt 0.443934 19.000000
vt 0.443934 -19.000000
vt 0.492597 -19.000000
vt 1.956066 -19.000000
vt 1.753073 19.000000
vt 1.753073 -19.000000
vt 1.882843 19.000000
vt -1.753073 -19.000000
vt 1.882843 -19.000000
vt -1.753073 19.000000
vt -1.882843 -19.000000
vt -1.882843 19.000000
s 1
usemtl Diffuse_51_51_51_100.006
f 1/1/1 2/2/2 3/3/2
f 2/2/2 4/4/1 3/3/2
f 5/1/3 6/2/4 7/3/4
f 6/2/4 8/4/3 7/3/4
f 9/1/5 10/2/6 11/3/6
f 10/2/6 12/4/5 11/3/6
f 13/1/7 14/2/8 15/3/8
f 14/2/8 16/4/7 15/3/8
f 17/5/9 18/6/2 19/7/2
f 18/6/2 20/8/9 19/7/2
f 21/5/10 22/6/4 23/7/4
f 22/6/4 24/8/10 23/7/4
f 25/5/11 26/6/6 27/7/6
f 26/6/6 28/8/11 27/7/6
f 29/5/12 30/6/8 31/7/8
f 30/6/8 32/8/12 31/7/8
f 33/9/13 34/10/13 35/11/13
f 33/9/13 36/12/13 34/10/13
f 37/13/13 33/9/13 35/11/13
f 38/14/13 39/15/13 40/16/13
f 41/17/14 42/18/13 40/16/13
f 43/19/13 44/20/13 45/21/13
f 45/21/13 44/20/13 46/22/13
f 47/23/13 48/24/13 49/25/13
f 47/23/13 50/26/13 48/24/13
f 51/27/13 52/28/13 53/29/13
f 54/30/13 47/23/13 49/25/13
f 55/31/13 56/32/13 53/29/13
f 41/17/14 44/20/13 42/18/13
f 39/15/13 37/13/13 35/11/13
f 36/12/13 57/33/13 34/10/13
f 58/34/13 59/35/13 60/36/13
f 61/37/13 60/36/13 62/35/13
f 63/38/13 64/39/15 65/40/14
f 65/40/14 64/39/15 66/41/13
f 67/42/13 63/38/13 65/40/14
f 68/43/13 69/44/13 70/45/13
f 68/43/13 71/46/13 72/44/13
f 70/45/13 73/44/13 74/47/13
f 75/44/13 71/46/13 76/35/13
f 77/48/13 78/49/13 79/50/13
f 80/51/13 74/47/13 81/44/13
f 82/52/13 79/50/13 78/49/13
f 82/52/13 46/22/13 79/50/13
f 45/21/13 83/53/13 43/19/13
f 39/15/13 38/14/13 37/13/13
f 38/14/13 40/16/13 42/18/13
f 46/22/13 44/20/13 41/17/14
f 84/54/13 85/55/13 86/56/13
f 86/56/13 85/55/13 87/57/13
f 88/58/13 84/54/13 86/56/13
f 89/59/13 90/60/13 91/61/13
f 89/59/16 92/62/16 93/60/16
f 87/57/13 85/55/13 94/63/13
f 95/64/13 91/61/13 96/65/13
f 97/65/13 91/61/13 98/60/13
f 84/54/13 99/60/13 92/62/13
f 94/63/13 100/66/13 35/11/13
f 94/63/13 85/55/13 100/66/13
f 65/40/14 101/67/13 67/42/13
f 102/35/13 71/46/13 65/40/13
f 65/40/14 66/41/13 103/35/13
f 104/68/13 95/64/13 105/69/17
f 83/53/13 48/24/13 50/26/13
f 43/19/13 83/53/13 50/26/13
f 106/65/13 107/70/13 108/71/13
f 66/41/13 61/37/13 109/35/13
f 105/69/17 110/72/13 104/68/13
f 111/65/14 112/73/13 95/64/13
f 113/60/13 114/58/13 115/74/13
f 116/60/13 84/54/13 117/58/13
f 118/58/17 119/75/17 120/76/17
f 121/77/13 122/58/13 120/76/13
f 123/77/13 120/76/13 124/78/13
f 125/79/14 126/80/13 127/81/13
f 125/79/13 128/77/13 124/78/15
f 129/77/13 125/79/14 130/82/14
f 124/78/15 131/83/13 125/79/13
f 132/84/13 133/85/18 124/78/15
f 130/82/14 125/79/14 127/81/13
f 131/83/13 124/78/15 133/85/18
f 119/75/19 134/58/19 135/86/19
f 86/56/13 135/86/13 136/58/13
f 132/84/13 124/78/15 137/87/13
f 108/71/13 112/73/13 138/65/13
f 139/88/13 107/70/13 140/65/13
f 110/72/13 105/69/17 141/89/13
f 95/64/13 112/73/13 105/69/17
f 142/90/13 55/31/13 143/91/13
f 36/12/13 142/90/13 57/33/13
f 144/92/13 145/93/13 146/94/13
f 146/94/13 145/93/13 147/95/13
f 148/96/13 144/92/13 146/94/13
f 149/97/13 150/98/13 151/99/13
f 149/97/13 152/100/13 153/98/13
f 147/95/13 145/93/13 154/101/13
f 155/102/13 151/99/13 156/103/13
f 157/103/13 151/99/13 158/98/13
f 144/92/13 159/98/13 152/100/13
f 154/101/13 160/104/13 55/31/13
f 154/101/13 145/93/13 160/104/13
f 161/105/13 162/106/13 155/102/13
f 163/107/13 115/74/13 164/58/13
f 165/108/13 162/106/13 166/109/13
f 167/110/13 163/107/13 168/58/13
f 169/103/13 170/111/13 171/112/13
f 172/113/13 162/106/13 165/108/13
f 173/98/16 174/96/16 175/114/16
f 176/98/13 144/92/13 177/96/13
f 178/96/16 179/115/16 180/116/16
f 181/117/13 182/96/13 180/116/13
f 183/117/13 180/116/13 184/118/13
f 185/119/13 186/120/16 187/121/14
f 185/119/13 188/117/13 184/118/16
f 189/117/13 185/119/13 190/122/13
f 184/118/16 191/123/17 185/119/13
f 192/124/13 193/125/13 184/118/16
f 190/122/13 185/119/13 187/121/14
f 191/123/17 184/118/16 193/125/13
f 179/115/17 194/96/17 195/126/17
f 146/94/13 195/126/13 196/96/13
f 192/124/13 184/118/16 197/127/13
f 171/112/13 198/128/13 199/103/13
f 155/102/13 200/103/13 161/105/13
f 201/103/15 198/128/15 161/105/15
f 162/106/13 172/113/13 155/102/13
f 142/90/13 143/91/13 57/33/13
f 53/29/13 56/32/13 51/27/13
f 202/129/13 203/130/13 204/131/13
f 204/131/13 203/130/13 205/132/13
f 206/133/13 202/129/13 204/131/13
f 207/134/13 208/135/13 209/136/13
f 207/134/13 210/137/13 211/135/13
f 205/132/13 203/130/13 212/138/13
f 213/139/13 209/136/13 214/140/13
f 215/140/13 209/136/13 216/135/13
f 202/129/13 217/135/13 210/137/13
f 49/25/13 218/141/13 54/30/13
f 49/25/13 212/138/13 218/141/13
f 218/141/13 212/138/13 203/130/13
f 219/96/14 220/142/14 175/114/14
f 221/143/13 220/142/13 222/96/13
f 223/144/16 224/145/18 213/139/16
f 223/144/16 225/146/13 226/147/14
f 227/148/13 228/140/13 229/149/13
f 230/140/13 231/150/13 232/151/13
f 224/145/18 223/144/16 226/147/14
f 233/135/13 234/133/13 235/152/13
f 236/135/13 202/129/13 237/133/13
f 238/133/16 239/153/16 240/154/16
f 241/155/13 242/133/13 240/154/13
f 243/155/13 240/154/13 244/156/13
f 245/157/16 246/158/13 247/159/14
f 245/157/13 248/155/13 244/156/13
f 249/155/13 245/157/16 250/160/16
f 244/156/13 251/161/13 245/157/13
f 252/162/13 253/163/13 244/156/13
f 250/160/16 245/157/16 247/159/14
f 251/161/13 244/156/13 253/163/13
f 239/153/13 254/133/13 255/164/13
f 204/131/13 255/164/13 256/133/13
f 252/162/13 244/156/13 257/165/13
f 232/151/13 229/149/13 258/140/13
f 213/139/16 259/140/13 227/148/13
f 223/144/16 213/139/16 227/148/13
f 52/28/13 47/23/13 54/30/13
f 47/23/13 52/28/13 51/27/13
f 80/51/13 78/49/13 74/47/13
f 77/48/13 74/47/13 78/49/13
f 260/166/16 261/167/16 80/51/16
f 262/166/14 263/168/14 261/167/14
f 264/44/13 265/166/13 80/51/13
f 266/166/19 267/169/19 263/168/19
f 143/91/13 55/31/13 160/104/13
f 46/22/13 82/52/13 45/21/13
f 267/169/13 268/166/13 269/170/13
f 270/171/13 267/169/13 271/170/13
f 272/172/13 270/171/13 273/173/13
f 273/173/13 270/171/13 274/170/13
f 275/174/13 276/175/13 272/172/13
f 142/90/13 56/32/13 55/31/13
f 277/176/13 278/177/13 279/133/13
f 280/133/13 278/177/13 235/152/13
f 281/170/13 282/178/13 283/179/13
f 273/173/13 284/170/13 283/179/13
f 276/175/13 270/171/13 272/172/13
f 275/174/13 272/172/13 285/180/16
f 286/181/13 287/182/13 288/44/13
f 289/166/14 290/44/14 291/183/14
f 292/44/13 287/182/13 291/183/13
f 39/15/13 35/11/13 100/66/13
f 293/170/16 294/184/16 282/178/16
f 295/154/20 296/155/20 297/133/20
f 298/153/20 299/133/20 300/164/20
f 301/133/21 302/176/21 303/135/21
f 304/133/22 305/131/22 300/164/22
f 306/135/22 307/136/22 308/134/22
f 309/140/20 307/136/20 310/135/20
f 311/140/20 312/139/20 307/136/20
f 313/148/20 314/151/22 315/185/21
f 313/148/20 312/139/20 316/140/20
f 317/140/20 318/186/21 313/148/20
f 312/139/20 313/148/20 319/144/20
f 320/147/20 312/139/20 321/146/20
f 318/186/21 314/151/22 313/148/20
f 319/144/20 321/146/20 312/139/20
f 308/134/20 322/137/20 323/135/20
f 324/133/20 325/135/20 305/131/20
f 326/135/20 322/137/20 327/129/20
f 320/147/20 328/145/23 312/139/20
f 329/23/20 330/25/20 331/30/20
f 330/25/20 332/138/20 331/30/20
f 333/187/20 334/28/20 335/29/20
f 336/101/20 337/95/20 338/104/20
f 339/91/20 340/188/20 341/31/20
f 342/94/20 343/92/20 337/95/20
f 343/92/20 344/93/20 337/95/20
f 345/98/20 343/92/20 342/94/20
f 346/115/20 347/116/20 348/96/20
f 346/115/21 349/96/21 350/126/21
f 344/93/20 338/104/20 337/95/20
f 351/118/20 352/117/20 347/116/20
f 353/117/20 354/96/20 347/116/20
f 342/94/20 350/126/20 355/96/20
f 332/138/20 356/141/20 331/30/20
f 357/123/22 358/119/20 351/118/20
f 359/189/20 334/28/20 333/187/20
f 340/188/20 360/32/20 341/31/20
f 360/32/20 335/29/20 341/31/20
f 333/187/20 335/29/20 360/32/20
f 305/131/20 361/135/20 327/129/21
f 362/132/20 327/129/21 363/130/21
f 332/138/20 362/132/20 356/141/20
f 362/132/20 363/130/21 356/141/20
f 364/190/20 365/117/20 358/119/20
f 366/96/20 367/98/20 342/94/20
f 368/124/22 357/123/22 369/127/21
f 370/98/22 371/99/22 372/97/22
f 373/103/20 371/99/20 374/98/20
f 375/103/20 376/102/20 371/99/20
f 377/105/21 378/112/24 379/191/20
f 377/105/20 376/102/25 380/103/20
f 381/103/20 382/192/20 377/105/21
f 376/102/25 377/105/20 383/106/20
f 384/108/22 376/102/25 385/109/20
f 382/192/20 378/112/24 377/105/21
f 383/106/20 385/109/20 376/102/25
f 372/97/20 386/100/20 387/98/20
f 343/92/24 388/98/24 386/100/24
f 384/108/22 389/113/21 376/102/25
f 390/121/21 391/117/21 364/190/21
f 351/118/20 358/119/20 392/117/20
f 339/91/20 341/31/20 336/101/20
f 393/33/20 394/193/20 339/91/20
f 395/12/20 393/33/20 396/10/20
f 397/63/20 398/57/20 399/66/20
f 400/15/20 401/13/20 402/11/20
f 403/56/20 404/54/20 398/57/20
f 404/54/20 405/55/20 398/57/20
f 406/60/20 404/54/20 403/56/20
f 407/75/20 408/76/20 409/58/20
f 407/75/20 410/58/20 411/86/20
f 405/55/20 399/66/20 398/57/20
f 412/78/20 413/77/20 408/76/20
f 414/77/20 415/58/20 408/76/20
f 403/56/21 411/86/21 416/58/21
f 417/83/20 418/79/20 412/78/20
f 395/12/20 396/10/20 419/9/20
f 401/13/20 419/9/20 402/11/20
f 420/98/25 421/143/25 422/142/25
f 423/114/20 424/98/20 422/142/20
f 394/193/20 393/33/20 395/12/20
f 425/84/20 426/85/26 417/83/20
f 427/194/20 428/77/20 418/79/20
f 429/87/20 425/84/20 417/83/20
f 430/58/20 431/110/20 432/60/20
f 412/78/20 418/79/20 433/77/20
f 434/60/22 435/61/22 436/59/22
f 437/65/20 435/61/20 438/60/20
f 439/65/20 440/64/20 435/61/20
f 441/73/25 442/70/20 443/195/22
f 441/73/20 440/64/22 444/65/20
f 445/65/20 446/196/20 441/73/25
f 440/64/22 441/73/20 447/69/20
f 448/72/20 440/64/22 449/89/22
f 446/196/20 442/70/20 441/73/25
f 447/69/20 449/89/22 440/64/22
f 436/59/24 450/62/24 451/60/24
f 404/54/25 452/60/25 450/62/25
f 448/72/20 453/68/26 440/64/22
f 454/81/20 455/77/20 427/194/20
f 456/82/20 457/77/20 454/81/20
f 400/15/20 402/11/20 397/63/20
f 458/16/20 459/14/20 400/15/20
f 460/18/20 458/16/20 461/17/20
f 462/50/20 463/48/20 464/52/20
f 465/21/20 466/197/20 467/22/20
f 468/47/20 469/51/20 463/48/20
f 469/51/20 470/49/20 463/48/20
f 471/166/20 469/51/20 468/47/20
f 472/43/24 473/46/24 474/44/24
f 472/43/20 475/44/20 476/45/20
f 470/49/20 464/52/20 463/48/20
f 477/40/20 478/35/20 473/46/20
f 479/35/20 480/44/20 473/46/20
f 468/47/21 476/45/21 481/44/21
f 482/39/20 483/41/20 477/40/20
f 460/18/20 461/17/20 484/198/20
f 466/197/20 484/198/20 467/22/20
f 485/60/22 431/110/22 486/107/22
f 487/74/20 488/60/20 486/107/20
f 459/14/20 458/16/20 460/18/20
f 489/42/20 490/38/20 482/39/20
f 491/199/20 492/35/20 483/41/20
f 493/67/20 489/42/20 482/39/20
f 494/44/20 495/181/20 496/166/20
f 477/40/20 483/41/20 497/35/20
f 498/166/20 499/169/20 500/168/20
f 501/170/20 499/169/20 502/166/20
f 503/170/20 504/171/20 499/169/20
f 505/173/22 506/178/25 507/200/20
f 505/173/20 504/171/24 508/170/20
f 509/170/20 510/201/20 505/173/22
f 504/171/24 505/173/20 511/172/20
f 512/174/21 504/171/24 513/180/20
f 510/201/20 506/178/25 505/173/22
f 511/172/20 513/180/20 504/171/24
f 500/168/20 514/167/20 515/166/20
f 469/51/25 516/166/25 514/167/25
f 512/174/21 517/175/20 504/171/24
f 518/36/20 519/35/20 491/199/20
f 520/34/22 521/35/22 518/36/22
f 465/21/20 467/22/20 462/50/20
f 522/53/20 523/19/20 465/21/20
f 524/202/20 522/53/20 525/24/20
f 357/123/22 351/118/20 369/127/21
f 526/96/20 421/143/20 527/98/20
f 528/177/22 529/152/22 530/135/22
f 327/129/21 362/132/20 305/131/20
f 531/122/20 532/117/20 390/121/20
f 331/30/20 334/28/20 359/189/20
f 533/133/21 298/153/21 295/154/21
f 534/155/20 295/154/20 535/156/20
f 536/157/20 535/156/21 537/161/20
f 538/155/20 535/156/21 536/157/20
f 537/161/20 539/165/24 540/162/20
f 541/203/20 524/202/20 525/24/20
f 537/161/20 535/156/21 539/165/24
f 329/23/20 541/203/20 330/25/20
f 542/166/21 495/181/21 543/182/21
f 544/183/20 545/166/20 543/182/20
f 523/19/20 522/53/20 524/202/20
f 357/123/22 368/124/22 546/125/20
f 329/23/20 331/30/20 359/189/20
f 547/155/22 548/159/22 549/160/22
f 402/11/20 419/9/20 396/10/20
f 412/78/20 429/87/20 417/83/20
f 340/188/20 339/91/20 394/193/20
f 336/101/20 338/104/20 339/91/20
f 302/176/22 528/177/22 550/135/22
f 540/162/20 551/163/20 537/161/20
f 552/155/20 553/204/20 548/159/20
f 466/197/20 465/21/20 523/19/20
f 541/203/20 525/24/20 330/25/20
f 462/50/20 464/52/20 465/21/20
f 468/47/20 554/44/20 555/166/20
f 401/13/20 400/15/20 459/14/20
f 484/198/20 461/17/20 467/22/20
f 397/63/20 399/66/20 400/15/20
f 556/60/20 403/56/20 557/58/20
f 493/67/20 482/39/20 477/40/20
f 558/155/20 536/157/20 553/204/20
f 559/205/27 560/206/27 561/207/8
f 562/208/28 563/206/29 564/205/29
f 565/209/30 566/210/28 567/211/31
f 568/212/30 569/210/28 570/209/30
f 571/213/32 572/212/33 573/207/32
f 574/206/34 575/207/35 576/214/36
f 577/206/37 578/214/38 579/215/39
f 580/210/40 581/209/41 582/212/41
f 583/209/42 584/216/43 585/213/4
f 586/216/44 587/208/45 588/206/46
f 589/208/47 590/215/47 591/206/46
f 592/208/28 593/215/28 594/206/29
f 595/212/48 596/207/8 597/213/8
f 598/217/49 599/207/8 600/212/48
f 601/217/50 602/212/51 603/210/52
f 604/218/53 605/215/52 606/205/54
f 607/215/52 608/206/55 609/205/55
f 610/206/56 611/213/6 612/205/56
f 613/213/6 614/219/57 615/205/58
f 616/212/59 617/219/60 618/213/61
f 619/219/62 620/212/63 621/211/64
f 622/212/63 623/210/47 624/211/47
f 625/216/65 626/206/66 627/213/4
f 628/209/67 629/213/4 630/212/67
f 631/220/68 632/209/41 633/210/40
f 634/213/69 635/207/69 636/206/34
f 637/207/32 638/212/33 639/209/33
f 640/206/27 641/213/8 642/207/8
f 643/221/48 15/3/8 16/4/7
f 644/222/52 645/221/70 646/223/70
f 647/224/52 648/222/52 649/223/71
f 650/225/55 651/226/55 652/227/52
f 653/225/72 654/228/6 655/229/6
f 656/226/56 657/225/56 658/229/6
f 659/230/52 660/227/52 661/226/55
f 662/221/48 16/4/73 663/223/48
f 664/228/6 665/231/6 666/229/6
f 667/231/6 668/232/6 669/229/6
f 670/233/59 671/232/6 672/234/59
f 673/235/47 674/233/63 675/234/63
f 676/236/46 677/237/47 678/238/47
f 679/239/46 680/236/46 681/238/45
f 682/239/74 683/240/4 684/241/75
f 685/236/76 686/239/76 687/241/4
f 688/234/63 689/242/47 690/235/47
f 691/232/6 692/231/6 693/234/59
f 694/240/4 695/243/4 696/241/4
f 697/243/4 698/244/4 699/241/4
f 700/245/77 701/244/4 702/243/4
f 703/246/77 704/244/4 705/245/77
f 706/247/78 707/248/78 708/249/63
f 709/250/79 710/251/52 711/252/52
f 712/253/79 713/251/52 714/250/79
f 715/253/79 716/250/80 717/254/59
f 718/249/81 719/254/63 720/247/78
f 721/249/59 722/253/79 723/254/59
f 724/251/52 725/255/52 726/252/52
f 727/255/52 728/256/52 729/252/52
f 730/257/70 731/258/52 732/259/52
f 733/260/8 734/261/8 735/262/48
f 736/258/52 737/257/70 738/262/70
f 739/257/48 740/260/82 741/262/48
f 742/260/8 743/263/8 744/261/8
f 745/263/8 746/264/8 747/261/8
f 748/263/8 749/265/27 750/264/8
f 751/265/27 752/266/27 753/264/8
f 754/266/29 755/267/28 756/268/28
f 757/266/29 758/265/29 759/267/28
f 760/269/28 761/270/28 762/271/28
f 763/270/28 764/272/28 765/271/28
f 766/273/83 767/272/28 768/270/28
f 769/274/83 770/272/28 771/273/83
f 772/274/83 773/273/83 774/275/34
f 775/276/37 776/275/37 777/277/84
f 778/274/83 779/275/34 780/276/34
f 781/278/4 782/279/85 783/280/4
f 784/280/4 785/279/85 786/281/85
f 787/276/37 788/277/84 789/282/84
f 790/280/4 791/283/4 792/278/4
f 793/283/4 794/284/4 795/278/4
f 796/285/67 797/284/4 798/286/67
f 799/287/86 800/285/41 801/286/41
f 802/288/37 803/289/40 804/290/40
f 805/291/37 806/288/37 807/290/40
f 808/291/34 809/292/69 810/293/69
f 811/288/34 812/291/34 813/293/69
f 814/286/41 815/294/40 816/287/40
f 817/284/87 818/283/4 819/286/67
f 820/292/2 821/295/2 822/293/2
f 823/295/2 824/296/2 825/293/2
f 826/297/33 827/296/32 828/298/33
f 829/299/31 830/297/30 831/298/30
f 832/300/88 833/301/28 834/302/28
f 835/303/29 836/300/29 837/302/89
f 32/8/12 838/303/27 31/7/8
f 32/8/73 839/300/27 840/303/27
f 841/296/32 842/295/32 843/298/33
f 844/299/28 845/298/30 846/304/28
f 847/221/59 11/3/6 12/4/5
f 848/222/90 849/221/63 850/223/63
f 851/224/90 852/222/90 853/223/63
f 854/225/46 855/226/46 856/227/47
f 857/225/74 858/228/4 859/229/4
f 860/226/76 861/225/76 862/229/4
f 863/230/47 864/227/47 865/226/46
f 866/221/59 12/4/91 867/223/59
f 868/228/4 869/231/4 870/229/4
f 871/231/4 872/232/4 873/229/4
f 874/233/67 875/232/4 876/234/67
f 877/235/86 878/233/41 879/234/41
f 880/236/37 881/237/40 882/238/40
f 883/239/37 884/236/37 885/238/40
f 886/241/2 887/239/34 888/240/2
f 889/241/2 890/236/34 891/239/34
f 892/234/41 893/242/40 894/235/40
f 895/232/4 896/231/4 897/234/67
f 898/240/2 899/243/2 900/241/2
f 901/243/2 902/244/2 903/241/2
f 904/245/36 905/244/2 906/243/2
f 907/246/36 908/244/2 909/245/36
f 910/247/92 911/248/93 912/249/41
f 913/254/67 914/249/67 915/253/94
f 916/251/47 917/252/47 918/250/94
f 919/247/92 920/249/41 921/254/41
f 922/251/47 923/250/94 924/253/94
f 925/254/67 926/253/94 927/250/94
f 928/251/47 929/255/47 930/252/47
f 931/255/47 932/256/47 933/252/47
f 934/257/63 935/258/47 936/259/47
f 937/262/59 938/260/95 939/261/95
f 940/258/47 941/257/63 942/262/63
f 943/262/59 944/257/59 945/260/6
f 946/260/6 947/263/6 948/261/6
f 949/263/6 950/264/6 951/261/6
f 952/265/56 953/264/6 954/263/6
f 955/266/55 956/267/52 957/268/52
f 958/264/6 959/265/56 960/266/56
f 961/266/55 962/265/55 963/267/52
f 964/269/52 965/270/52 966/271/52
f 967/270/52 968/272/52 969/271/52
f 970/270/52 971/273/96 972/272/52
f 973/273/96 974/274/96 975/272/52
f 976/275/97 977/274/96 978/273/96
f 979/276/97 980/274/96 981/275/27
f 982/279/98 983/281/98 984/280/32
f 985/276/29 986/277/99 987/282/99
f 988/275/29 989/277/99 990/276/29
f 991/278/32 992/279/98 993/280/32
f 994/280/2 995/283/2 996/278/2
f 997/283/2 998/284/2 999/278/2
f 1000/285/33 1001/284/32 1002/286/33
f 1003/287/28 1004/285/30 1005/286/30
f 1006/288/88 1007/289/28 1008/290/28
f 1009/291/29 1010/288/29 1011/290/28
f 1012/293/8 1013/291/27 1014/292/8
f 1015/293/8 1016/288/27 1017/291/27
f 1018/284/2 1019/283/32 1020/286/33
f 1021/287/28 1022/286/30 1023/294/28
f 1024/292/8 1025/295/8 1026/293/8
f 1027/295/8 1028/296/8 1029/293/8
f 1030/297/48 1031/296/8 1032/298/48
f 1033/299/52 1034/297/70 1035/298/70
f 1036/300/55 1037/301/52 1038/302/52
f 1039/303/55 1040/300/100 1041/302/52
f 1042/303/56 27/7/6 28/8/11
f 1043/300/58 1044/303/56 28/8/6
f 1045/298/70 1046/304/52 1047/299/52
f 1048/296/8 1049/295/101 1050/298/48
f 1051/221/67 7/3/4 8/4/3
f 1052/222/40 1053/221/41 1054/223/41
f 1055/224/40 1056/222/40 1057/223/41
f 1058/225/37 1059/226/37 1060/227/40
f 1061/229/2 1062/225/102 1063/228/2
f 1064/229/2 1065/226/34 1066/225/34
f 1067/227/40 1068/226/37 1069/230/40
f 1070/221/67 8/4/103 1071/223/67
f 1072/228/2 1073/231/2 1074/229/2
f 1075/231/2 1076/232/2 1077/229/2
f 1078/233/33 1079/232/32 1080/234/33
f 1081/235/28 1082/233/30 1083/234/30
f 1084/236/29 1085/237/28 1086/238/28
f 1087/239/29 1088/236/29 1089/238/28
f 1090/241/8 1091/239/104 1092/240/8
f 1093/241/8 1094/236/27 1095/239/27
f 1096/232/32 1097/231/32 1098/234/33
f 1099/235/28 1100/234/30 1101/242/28
f 1102/240/8 1103/243/8 1104/241/8
f 1105/243/8 1106/244/8 1107/241/8
f 1108/243/8 1109/245/105 1110/244/8
f 1111/245/105 1112/246/105 1113/244/8
f 1114/249/30 1115/247/106 1116/248/106
f 1117/254/30 1118/247/106 1119/249/30
f 1120/251/40 1121/252/40 1122/250/107
f 1123/251/40 1124/250/108 1125/253/107
f 1126/253/107 1127/250/107 1128/254/33
f 1129/254/33 1130/249/33 1131/253/107
f 1132/251/40 1133/255/40 1134/252/40
f 1135/255/40 1136/256/40 1137/252/40
f 1138/257/41 1139/258/40 1140/259/40
f 1141/260/87 1142/262/67 1143/257/67
f 1144/257/41 1145/262/41 1146/258/40
f 1147/261/4 1148/262/67 1149/260/4
f 1150/260/4 1151/263/4 1152/261/4
f 1153/263/4 1154/264/4 1155/261/4
f 1156/265/76 1157/264/4 1158/263/4
f 1159/266/46 1160/267/47 1161/268/47
f 1162/264/4 1163/265/76 1164/266/76
f 1165/266/46 1166/265/46 1167/267/47
f 1168/269/47 1169/270/47 1170/271/47
f 1171/270/47 1172/272/47 1173/271/47
f 1174/273/62 1175/272/47 1176/270/47
f 1177/274/62 1178/272/47 1179/273/109
f 1180/274/62 1181/273/62 1182/275/56
f 1183/280/8 1184/278/8 1185/279/110
f 1186/275/56 1187/276/56 1188/274/62
f 1189/281/110 1190/280/8 1191/279/110
f 1192/277/53 1193/282/53 1194/276/55
f 1195/277/53 1196/276/100 1197/275/55
f 1198/280/8 1199/283/8 1200/278/8
f 1201/283/8 1202/284/8 1203/278/8
f 1204/285/48 1205/284/8 1206/286/48
f 1207/287/52 1208/285/70 1209/286/70
f 1210/288/55 1211/289/52 1212/290/52
f 1213/291/55 1214/288/55 1215/290/52
f 1216/293/6 1217/291/56 1218/292/6
f 1219/293/6 1220/288/56 1221/291/56
f 1222/284/8 1223/283/8 1224/286/48
f 1225/287/52 1226/286/70 1227/294/52
f 1228/292/6 1229/295/6 1230/293/6
f 1231/295/6 1232/296/6 1233/293/6
f 1234/297/59 1235/296/6 1236/298/59
f 1237/299/111 1238/297/63 1239/298/63
f 1240/300/46 1241/301/112 1242/302/112
f 1243/303/46 1244/300/46 1245/302/113
f 1246/303/76 23/7/4 24/8/10
f 1247/300/76 1248/303/76 24/8/103
f 1249/298/63 1250/304/47 1251/299/47
f 1252/296/6 1253/295/6 1254/298/59
f 1255/221/33 3/3/2 4/4/1
f 1256/222/31 1257/221/30 1258/223/30
f 1259/224/28 1260/222/28 1261/223/30
f 1262/225/29 1263/226/29 1264/227/28
f 1265/229/8 1266/225/104 1267/228/8
f 1268/229/8 1269/226/27 1270/225/27
f 1271/227/28 1272/226/88 1273/230/28
f 1274/221/33 4/4/114 1275/223/33
f 1276/228/8 1277/231/8 1278/229/8
f 1279/231/8 1280/232/8 1281/229/8
f 1282/233/48 1283/232/8 1284/234/48
f 1285/235/52 1286/233/70 1287/234/70
f 1288/236/55 1289/237/52 1290/238/52
f 1291/239/55 1292/236/55 1293/238/52
f 1294/239/56 1295/240/115 1296/241/6
f 1297/236/56 1298/239/56 1299/241/115
f 1300/234/70 1301/242/52 1302/235/52
f 1303/232/8 1304/231/8 1305/234/48
f 1306/240/6 1307/243/6 1308/241/6
f 1309/243/6 1310/244/6 1311/241/6
f 1312/243/6 1313/245/116 1314/244/6
f 1315/245/116 1316/246/116 1317/244/6
f 1318/249/70 1319/247/117 1320/248/117
f 1321/254/70 1322/247/117 1323/249/70
f 1324/252/28 1325/250/118 1326/251/28
f 1327/250/118 1328/253/119 1329/251/28
f 1330/254/48 1331/253/120 1332/250/118
f 1333/249/48 1334/253/120 1335/254/48
f 1336/251/28 1337/255/28 1338/252/28
f 1339/255/28 1340/256/28 1341/252/28
f 1342/259/28 1343/257/30 1344/258/28
f 1345/257/30 1346/262/30 1347/258/28
f 1348/262/33 1349/260/2 1350/261/2
f 1351/260/2 1352/262/33 1353/257/33
f 1354/260/2 1355/263/2 1356/261/2
f 1357/263/2 1358/264/2 1359/261/2
f 1360/263/69 1361/265/34 1362/264/69
f 1363/265/34 1364/266/34 1365/264/2
f 1366/266/37 1367/267/40 1368/268/40
f 1369/267/40 1370/266/37 1371/265/37
f 1372/269/40 1373/270/40 1374/271/40
f 1375/270/40 1376/272/40 1377/271/40
f 1378/273/121 1379/272/40 1380/270/40
f 1381/274/121 1382/272/40 1383/273/121
f 1384/274/122 1385/273/121 1386/275/76
f 1387/276/46 1388/275/46 1389/277/123
f 1390/280/6 1391/278/6 1392/279/124
f 1393/280/6 1394/279/124 1395/281/124
f 1396/277/123 1397/282/125 1398/276/46
f 1399/274/121 1400/275/76 1401/276/76
f 1402/280/6 1403/283/6 1404/278/6
f 1405/283/6 1406/284/6 1407/278/6
f 1408/285/59 1409/284/6 1410/286/59
f 1411/287/47 1412/285/63 1413/286/63
f 1414/288/46 1415/289/47 1416/290/47
f 1417/291/46 1418/288/46 1419/290/45
f 1420/291/76 1421/292/4 1422/293/4
f 1423/288/76 1424/291/76 1425/293/4
f 1426/286/63 1427/294/47 1428/287/47
f 1429/284/6 1430/283/6 1431/286/59
f 1432/292/4 1433/295/4 1434/293/4
f 1435/295/4 1436/296/4 1437/293/4
f 1438/297/67 1439/296/4 1440/298/67
f 1441/299/40 1442/297/41 1443/298/126
f 1444/300/37 1445/301/40 1446/302/40
f 1447/303/37 1448/300/37 1449/302/40
f 20/8/9 1450/303/34 19/7/2
f 20/8/2 1451/300/34 1452/303/34
f 1453/298/41 1454/304/40 1455/299/40
f 1456/296/4 1457/295/127 1458/298/67
f 1459/305/128 18/6/2 17/5/9
f 1460/306/129 1461/305/129 17/5/2
f 1462/306/30 1463/307/28 1464/305/30
f 13/1/7 1465/308/27 14/2/8
f 1466/307/28 1467/306/130 1468/309/28
f 1469/310/27 1470/308/27 13/1/131
f 1471/310/29 1472/311/28 1473/308/29
f 1474/310/88 1475/312/28 1476/311/28
f 1477/305/132 22/6/4 21/5/10
f 1478/306/67 1479/305/67 21/5/87
f 1480/306/41 1481/307/40 1482/305/41
f 1483/308/34 2/2/2 1/1/1
f 1484/310/133 1485/308/133 1/1/2
f 1486/310/37 1487/311/40 1488/308/37
f 1489/307/40 1490/306/134 1491/309/40
f 1492/312/40 1493/311/40 1494/310/37
f 1495/305/59 26/6/6 25/5/11
f 1496/306/59 1497/305/59 25/5/6
f 1498/306/63 1499/307/47 1500/305/63
f 1501/311/47 1502/310/46 1503/312/47
f 1504/306/63 1505/309/47 1506/307/47
f 6/2/4 5/1/3 1507/308/76
f 5/1/75 1508/310/76 1509/308/76
f 1510/311/47 1511/308/46 1512/310/46
f 30/6/8 29/5/12 1513/305/135
f 1514/305/48 29/5/82 1515/306/48
f 1516/307/52 1517/305/70 1518/306/70
f 1519/309/52 1520/307/52 1521/306/70
f 9/1/5 1522/308/56 10/2/6
f 9/1/6 1523/310/56 1524/308/56
f 1525/310/55 1526/311/52 1527/308/55
f 1528/312/52 1529/311/52 1530/310/100
