# Blender 4.4.3
# www.blender.org
mtllib Mesh_6.003.mtl
o Mesh_6.003
v 0.014999 0.009675 0.000149
v 0.014995 0.009675 0.000149
v 0.014999 0.009725 0.000149
v 0.015004 0.009675 0.000150
v 0.015009 0.009675 0.000151
v 0.015004 0.009725 0.000150
v 0.015009 0.009725 0.000151
v 0.015013 0.009725 0.000152
v 0.015013 0.009675 0.000152
v 0.015017 0.009675 0.000154
v 0.015017 0.009725 0.000154
v 0.015022 0.009675 0.000157
v 0.015022 0.009725 0.000157
v 0.015025 0.009725 0.000160
v 0.015025 0.009675 0.000160
v 0.015029 0.009675 0.000163
v 0.015029 0.009725 0.000163
v 0.015032 0.009675 0.000166
v 0.015032 0.009725 0.000166
v 0.015035 0.009675 0.000170
v 0.015035 0.009725 0.000170
v 0.015037 0.009675 0.000174
v 0.015039 0.009675 0.000179
v 0.015037 0.009725 0.000174
v 0.015039 0.009725 0.000179
v 0.015041 0.009725 0.000183
v 0.015041 0.009675 0.000183
v 0.015042 0.009675 0.000188
v 0.015042 0.009725 0.000188
v 0.015043 0.009675 0.000192
v 0.015043 0.009725 0.000192
v 0.015043 0.009725 0.000197
v 0.015043 0.009675 0.000197
v 0.015043 0.009675 0.000202
v 0.015043 0.009725 0.000202
v 0.015042 0.009675 0.000207
v 0.015042 0.009725 0.000207
v 0.015041 0.009675 0.000211
v 0.015041 0.009725 0.000211
v 0.015039 0.009675 0.000216
v 0.015037 0.009675 0.000220
v 0.015039 0.009725 0.000216
v 0.015037 0.009725 0.000220
v 0.015035 0.009725 0.000224
v 0.015035 0.009675 0.000224
v 0.015032 0.009675 0.000228
v 0.015025 0.009725 0.000235
v 0.015022 0.009725 0.000237
v 0.015022 0.009675 0.000237
v 0.015017 0.009675 0.000240
v 0.014995 0.009675 0.000246
v 0.014999 0.009725 0.000245
v 0.014995 0.009725 0.000246
v 0.014990 0.009675 0.000245
v 0.014990 0.009725 0.000245
v 0.014985 0.009675 0.000245
v 0.014985 0.009725 0.000245
v 0.014981 0.009675 0.000244
v 0.014981 0.009725 0.000244
v 0.014976 0.009675 0.000242
v 0.014972 0.009675 0.000240
v 0.014976 0.009725 0.000242
v 0.014968 0.009675 0.000237
v 0.014972 0.009725 0.000240
v 0.014968 0.009725 0.000237
v 0.014964 0.009725 0.000235
v 0.014964 0.009675 0.000235
v 0.014960 0.009675 0.000231
v 0.014960 0.009725 0.000231
v 0.014957 0.009675 0.000228
v 0.014957 0.009725 0.000228
v 0.014954 0.009725 0.000224
v 0.014954 0.009675 0.000224
v 0.014952 0.009675 0.000220
v 0.014952 0.009725 0.000220
v 0.014950 0.009675 0.000216
v 0.014950 0.009725 0.000216
v 0.014948 0.009675 0.000211
v 0.014948 0.009725 0.000211
v 0.014947 0.009675 0.000207
v 0.014946 0.009675 0.000202
v 0.014947 0.009725 0.000207
v 0.014946 0.009725 0.000202
v 0.014946 0.009725 0.000197
v 0.014946 0.009675 0.000197
v 0.014946 0.009675 0.000192
v 0.014946 0.009725 0.000192
v 0.014947 0.009675 0.000188
v 0.014947 0.009725 0.000188
v 0.014948 0.009725 0.000183
v 0.014948 0.009675 0.000183
v 0.014950 0.009675 0.000179
v 0.014950 0.009725 0.000179
v 0.014952 0.009675 0.000174
v 0.014952 0.009725 0.000174
v 0.014954 0.009675 0.000170
v 0.014954 0.009725 0.000170
v 0.014957 0.009675 0.000166
v 0.014960 0.009675 0.000163
v 0.014957 0.009725 0.000166
v 0.014960 0.009725 0.000163
v 0.014995 0.009725 0.000149
v 0.014990 0.009725 0.000149
v 0.014990 0.009675 0.000149
v 0.014985 0.009725 0.000150
v 0.014985 0.009675 0.000150
v 0.014981 0.009725 0.000151
v 0.014981 0.009675 0.000151
v 0.014976 0.009725 0.000152
v 0.014976 0.009675 0.000152
v 0.014972 0.009725 0.000154
v 0.014972 0.009675 0.000154
v 0.014968 0.009725 0.000157
v 0.014968 0.009675 0.000157
v 0.014964 0.009725 0.000160
v 0.014964 0.009675 0.000160
v 0.014999 0.009675 0.000245
v 0.015004 0.009725 0.000245
v 0.015004 0.009675 0.000245
v 0.015009 0.009725 0.000244
v 0.015009 0.009675 0.000244
v 0.015013 0.009725 0.000242
v 0.015013 0.009675 0.000242
v 0.015017 0.009725 0.000240
v 0.015025 0.009675 0.000235
v 0.015029 0.009725 0.000231
v 0.015029 0.009675 0.000231
v 0.015032 0.009725 0.000228
v 0.015004 0.009725 0.000150
v 0.014999 0.009725 0.000149
v 0.014995 0.009725 0.000149
v 0.015009 0.009725 0.000151
v 0.015004 0.009725 0.000150
v 0.014995 0.009725 0.000149
v 0.015013 0.009725 0.000152
v 0.015009 0.009725 0.000151
v 0.014995 0.009725 0.000149
v 0.015017 0.009725 0.000154
v 0.015013 0.009725 0.000152
v 0.014995 0.009725 0.000149
v 0.015022 0.009725 0.000157
v 0.015017 0.009725 0.000154
v 0.014995 0.009725 0.000149
v 0.015025 0.009725 0.000160
v 0.015022 0.009725 0.000157
v 0.014995 0.009725 0.000149
v 0.015029 0.009725 0.000163
v 0.015025 0.009725 0.000160
v 0.014995 0.009725 0.000149
v 0.015032 0.009725 0.000166
v 0.015029 0.009725 0.000163
v 0.014995 0.009725 0.000149
v 0.015035 0.009725 0.000170
v 0.015032 0.009725 0.000166
v 0.014995 0.009725 0.000149
v 0.015037 0.009725 0.000174
v 0.015035 0.009725 0.000170
v 0.014995 0.009725 0.000149
v 0.015039 0.009725 0.000179
v 0.015037 0.009725 0.000174
v 0.014995 0.009725 0.000149
v 0.015041 0.009725 0.000183
v 0.014995 0.009725 0.000149
v 0.015042 0.009725 0.000188
v 0.015041 0.009725 0.000183
v 0.015039 0.009725 0.000179
v 0.014995 0.009725 0.000149
v 0.015042 0.009725 0.000188
v 0.014995 0.009725 0.000149
v 0.015043 0.009725 0.000192
v 0.015043 0.009725 0.000192
v 0.014995 0.009725 0.000149
v 0.015043 0.009725 0.000197
v 0.015043 0.009725 0.000197
v 0.014995 0.009725 0.000149
v 0.015043 0.009725 0.000202
v 0.015043 0.009725 0.000202
v 0.014995 0.009725 0.000149
v 0.015042 0.009725 0.000207
v 0.014995 0.009725 0.000149
v 0.015041 0.009725 0.000211
v 0.015042 0.009725 0.000207
v 0.014995 0.009725 0.000149
v 0.015039 0.009725 0.000216
v 0.015041 0.009725 0.000211
v 0.014995 0.009725 0.000149
v 0.015037 0.009725 0.000220
v 0.015039 0.009725 0.000216
v 0.014995 0.009725 0.000149
v 0.015035 0.009725 0.000224
v 0.015037 0.009725 0.000220
v 0.014995 0.009725 0.000149
v 0.015032 0.009725 0.000228
v 0.015035 0.009725 0.000224
v 0.014995 0.009725 0.000149
v 0.015029 0.009725 0.000231
v 0.015032 0.009725 0.000228
v 0.014995 0.009725 0.000149
v 0.015025 0.009725 0.000235
v 0.015029 0.009725 0.000231
v 0.014995 0.009725 0.000149
v 0.015022 0.009725 0.000237
v 0.015025 0.009725 0.000235
v 0.015013 0.009725 0.000242
v 0.015017 0.009725 0.000240
v 0.014995 0.009725 0.000149
v 0.014995 0.009725 0.000149
v 0.015017 0.009725 0.000240
v 0.015022 0.009725 0.000237
v 0.015009 0.009725 0.000244
v 0.015013 0.009725 0.000242
v 0.014995 0.009725 0.000149
v 0.015004 0.009725 0.000245
v 0.015009 0.009725 0.000244
v 0.014995 0.009725 0.000149
v 0.014999 0.009725 0.000245
v 0.014995 0.009725 0.000149
v 0.014995 0.009725 0.000246
v 0.014995 0.009725 0.000246
v 0.014995 0.009725 0.000149
v 0.014990 0.009725 0.000245
v 0.014990 0.009725 0.000245
v 0.014995 0.009725 0.000149
v 0.014985 0.009725 0.000245
v 0.014995 0.009725 0.000149
v 0.014981 0.009725 0.000244
v 0.014985 0.009725 0.000245
v 0.014995 0.009725 0.000149
v 0.014976 0.009725 0.000242
v 0.014981 0.009725 0.000244
v 0.014995 0.009725 0.000149
v 0.014972 0.009725 0.000240
v 0.014976 0.009725 0.000242
v 0.014995 0.009725 0.000149
v 0.014968 0.009725 0.000237
v 0.014972 0.009725 0.000240
v 0.014995 0.009725 0.000149
v 0.014964 0.009725 0.000235
v 0.014968 0.009725 0.000237
v 0.014995 0.009725 0.000149
v 0.014960 0.009725 0.000231
v 0.014964 0.009725 0.000235
v 0.014995 0.009725 0.000149
v 0.014957 0.009725 0.000228
v 0.014960 0.009725 0.000231
v 0.014995 0.009725 0.000149
v 0.014954 0.009725 0.000224
v 0.014957 0.009725 0.000228
v 0.014950 0.009725 0.000216
v 0.014952 0.009725 0.000220
v 0.014995 0.009725 0.000149
v 0.014995 0.009725 0.000149
v 0.014952 0.009725 0.000220
v 0.014954 0.009725 0.000224
v 0.014948 0.009725 0.000211
v 0.014950 0.009725 0.000216
v 0.014995 0.009725 0.000149
v 0.014947 0.009725 0.000207
v 0.014948 0.009725 0.000211
v 0.014995 0.009725 0.000149
v 0.014946 0.009725 0.000202
v 0.014947 0.009725 0.000207
v 0.014995 0.009725 0.000149
v 0.014946 0.009725 0.000197
v 0.014946 0.009725 0.000202
v 0.014995 0.009725 0.000149
v 0.014946 0.009725 0.000192
v 0.014946 0.009725 0.000197
v 0.014995 0.009725 0.000149
v 0.014946 0.009725 0.000192
v 0.014995 0.009725 0.000149
v 0.014947 0.009725 0.000188
v 0.014947 0.009725 0.000188
v 0.014995 0.009725 0.000149
v 0.014948 0.009725 0.000183
v 0.014948 0.009725 0.000183
v 0.014995 0.009725 0.000149
v 0.014950 0.009725 0.000179
v 0.014950 0.009725 0.000179
v 0.014995 0.009725 0.000149
v 0.014952 0.009725 0.000174
v 0.014952 0.009725 0.000174
v 0.014995 0.009725 0.000149
v 0.014954 0.009725 0.000170
v 0.014954 0.009725 0.000170
v 0.014995 0.009725 0.000149
v 0.014957 0.009725 0.000166
v 0.014957 0.009725 0.000166
v 0.014995 0.009725 0.000149
v 0.014960 0.009725 0.000163
v 0.014960 0.009725 0.000163
v 0.014995 0.009725 0.000149
v 0.014964 0.009725 0.000160
v 0.014995 0.009725 0.000149
v 0.014972 0.009725 0.000154
v 0.014968 0.009725 0.000157
v 0.014964 0.009725 0.000160
v 0.014995 0.009725 0.000149
v 0.014968 0.009725 0.000157
v 0.014995 0.009725 0.000149
v 0.014976 0.009725 0.000152
v 0.014972 0.009725 0.000154
v 0.014995 0.009725 0.000149
v 0.014981 0.009725 0.000151
v 0.014976 0.009725 0.000152
v 0.014995 0.009725 0.000149
v 0.014985 0.009725 0.000150
v 0.014981 0.009725 0.000151
v 0.014995 0.009725 0.000149
v 0.014990 0.009725 0.000149
v 0.014985 0.009725 0.000150
v 0.014999 0.009725 0.000245
v 0.015004 0.009725 0.000245
v 0.014995 0.009725 0.000149
v 0.015004 0.009675 0.000150
v 0.014995 0.009675 0.000149
v 0.014999 0.009675 0.000149
v 0.015009 0.009675 0.000151
v 0.014995 0.009675 0.000149
v 0.015004 0.009675 0.000150
v 0.015013 0.009675 0.000152
v 0.014995 0.009675 0.000149
v 0.015009 0.009675 0.000151
v 0.015017 0.009675 0.000154
v 0.014995 0.009675 0.000149
v 0.015013 0.009675 0.000152
v 0.015022 0.009675 0.000157
v 0.014995 0.009675 0.000149
v 0.015017 0.009675 0.000154
v 0.015025 0.009675 0.000160
v 0.014995 0.009675 0.000149
v 0.015022 0.009675 0.000157
v 0.015029 0.009675 0.000163
v 0.014995 0.009675 0.000149
v 0.015025 0.009675 0.000160
v 0.015032 0.009675 0.000166
v 0.014995 0.009675 0.000149
v 0.015029 0.009675 0.000163
v 0.015035 0.009675 0.000170
v 0.014995 0.009675 0.000149
v 0.015032 0.009675 0.000166
v 0.015037 0.009675 0.000174
v 0.014995 0.009675 0.000149
v 0.015035 0.009675 0.000170
v 0.015039 0.009675 0.000179
v 0.014995 0.009675 0.000149
v 0.015037 0.009675 0.000174
v 0.015041 0.009675 0.000183
v 0.015042 0.009675 0.000188
v 0.014995 0.009675 0.000149
v 0.015041 0.009675 0.000183
v 0.014995 0.009675 0.000149
v 0.015039 0.009675 0.000179
v 0.015042 0.009675 0.000188
v 0.015043 0.009675 0.000192
v 0.014995 0.009675 0.000149
v 0.015043 0.009675 0.000192
v 0.015043 0.009675 0.000197
v 0.014995 0.009675 0.000149
v 0.015043 0.009675 0.000197
v 0.015043 0.009675 0.000202
v 0.014995 0.009675 0.000149
v 0.015043 0.009675 0.000202
v 0.015042 0.009675 0.000207
v 0.014995 0.009675 0.000149
v 0.014995 0.009675 0.000149
v 0.015042 0.009675 0.000207
v 0.015041 0.009675 0.000211
v 0.014995 0.009675 0.000149
v 0.015041 0.009675 0.000211
v 0.015039 0.009675 0.000216
v 0.014995 0.009675 0.000149
v 0.015039 0.009675 0.000216
v 0.015037 0.009675 0.000220
v 0.014995 0.009675 0.000149
v 0.015037 0.009675 0.000220
v 0.015035 0.009675 0.000224
v 0.014995 0.009675 0.000149
v 0.015035 0.009675 0.000224
v 0.015032 0.009675 0.000228
v 0.014995 0.009675 0.000149
v 0.015032 0.009675 0.000228
v 0.015029 0.009675 0.000231
v 0.014995 0.009675 0.000149
v 0.015029 0.009675 0.000231
v 0.015025 0.009675 0.000235
v 0.014995 0.009675 0.000149
v 0.015025 0.009675 0.000235
v 0.015022 0.009675 0.000237
v 0.015013 0.009675 0.000242
v 0.014995 0.009675 0.000149
v 0.015017 0.009675 0.000240
v 0.014995 0.009675 0.000149
v 0.015022 0.009675 0.000237
v 0.015017 0.009675 0.000240
v 0.015009 0.009675 0.000244
v 0.014995 0.009675 0.000149
v 0.015013 0.009675 0.000242
v 0.015004 0.009675 0.000245
v 0.014995 0.009675 0.000149
v 0.015009 0.009675 0.000244
v 0.014999 0.009675 0.000245
v 0.014995 0.009675 0.000246
v 0.014995 0.009675 0.000149
v 0.014995 0.009675 0.000246
v 0.014990 0.009675 0.000245
v 0.014995 0.009675 0.000149
v 0.014990 0.009675 0.000245
v 0.014985 0.009675 0.000245
v 0.014995 0.009675 0.000149
v 0.014995 0.009675 0.000149
v 0.014985 0.009675 0.000245
v 0.014981 0.009675 0.000244
v 0.014995 0.009675 0.000149
v 0.014981 0.009675 0.000244
v 0.014976 0.009675 0.000242
v 0.014995 0.009675 0.000149
v 0.014976 0.009675 0.000242
v 0.014972 0.009675 0.000240
v 0.014995 0.009675 0.000149
v 0.014972 0.009675 0.000240
v 0.014968 0.009675 0.000237
v 0.014995 0.009675 0.000149
v 0.014968 0.009675 0.000237
v 0.014964 0.009675 0.000235
v 0.014995 0.009675 0.000149
v 0.014964 0.009675 0.000235
v 0.014960 0.009675 0.000231
v 0.014995 0.009675 0.000149
v 0.014960 0.009675 0.000231
v 0.014957 0.009675 0.000228
v 0.014995 0.009675 0.000149
v 0.014957 0.009675 0.000228
v 0.014954 0.009675 0.000224
v 0.014950 0.009675 0.000216
v 0.014995 0.009675 0.000149
v 0.014952 0.009675 0.000220
v 0.014995 0.009675 0.000149
v 0.014954 0.009675 0.000224
v 0.014952 0.009675 0.000220
v 0.014948 0.009675 0.000211
v 0.014995 0.009675 0.000149
v 0.014950 0.009675 0.000216
v 0.014947 0.009675 0.000207
v 0.014995 0.009675 0.000149
v 0.014948 0.009675 0.000211
v 0.014946 0.009675 0.000202
v 0.014995 0.009675 0.000149
v 0.014947 0.009675 0.000207
v 0.014946 0.009675 0.000197
v 0.014995 0.009675 0.000149
v 0.014946 0.009675 0.000202
v 0.014946 0.009675 0.000192
v 0.014995 0.009675 0.000149
v 0.014946 0.009675 0.000197
v 0.014946 0.009675 0.000192
v 0.014947 0.009675 0.000188
v 0.014995 0.009675 0.000149
v 0.014947 0.009675 0.000188
v 0.014948 0.009675 0.000183
v 0.014995 0.009675 0.000149
v 0.014948 0.009675 0.000183
v 0.014950 0.009675 0.000179
v 0.014995 0.009675 0.000149
v 0.014950 0.009675 0.000179
v 0.014952 0.009675 0.000174
v 0.014995 0.009675 0.000149
v 0.014952 0.009675 0.000174
v 0.014954 0.009675 0.000170
v 0.014995 0.009675 0.000149
v 0.014954 0.009675 0.000170
v 0.014957 0.009675 0.000166
v 0.014995 0.009675 0.000149
v 0.014957 0.009675 0.000166
v 0.014960 0.009675 0.000163
v 0.014995 0.009675 0.000149
v 0.014960 0.009675 0.000163
v 0.014964 0.009675 0.000160
v 0.014995 0.009675 0.000149
v 0.014995 0.009675 0.000149
v 0.014968 0.009675 0.000157
v 0.014972 0.009675 0.000154
v 0.014964 0.009675 0.000160
v 0.014968 0.009675 0.000157
v 0.014995 0.009675 0.000149
v 0.014995 0.009675 0.000149
v 0.014972 0.009675 0.000154
v 0.014976 0.009675 0.000152
v 0.014995 0.009675 0.000149
v 0.014976 0.009675 0.000152
v 0.014981 0.009675 0.000151
v 0.014995 0.009675 0.000149
v 0.014981 0.009675 0.000151
v 0.014985 0.009675 0.000150
v 0.014995 0.009675 0.000149
v 0.014985 0.009675 0.000150
v 0.014990 0.009675 0.000149
v 0.014999 0.009675 0.000245
v 0.014995 0.009675 0.000149
v 0.015004 0.009675 0.000245
vn 0.0980 -0.0000 -0.9952
vn -0.0000 -0.0000 -1.0000
vn 0.0981 -0.0000 -0.9952
vn 0.1952 -0.0000 -0.9808
vn 0.2903 -0.0000 -0.9569
vn 0.3827 -0.0000 -0.9239
vn 0.4714 -0.0000 -0.8819
vn 0.5556 -0.0000 -0.8314
vn 0.6344 -0.0000 -0.7730
vn 0.7071 -0.0000 -0.7071
vn 0.7730 -0.0000 -0.6344
vn 0.8315 -0.0000 -0.5556
vn 0.8819 -0.0000 -0.4714
vn 0.9239 -0.0000 -0.3827
vn 0.9569 -0.0000 -0.2903
vn 0.9808 -0.0000 -0.1951
vn 0.9952 -0.0000 -0.0980
vn 1.0000 -0.0000 -0.0000
vn 0.9952 -0.0000 0.0980
vn 0.9808 -0.0000 0.1951
vn 0.9569 -0.0000 0.2903
vn 0.9239 -0.0000 0.3827
vn 0.8819 -0.0000 0.4714
vn 0.8315 -0.0000 0.5556
vn 0.7730 -0.0000 0.6344
vn 0.6344 -0.0000 0.7730
vn 0.5556 -0.0000 0.8315
vn 0.4714 -0.0000 0.8819
vn -0.0000 -0.0000 1.0000
vn 0.0980 -0.0000 0.9952
vn -0.0980 -0.0000 0.9952
vn -0.1951 -0.0000 0.9808
vn -0.2903 -0.0000 0.9569
vn -0.3827 -0.0000 0.9239
vn -0.4714 -0.0000 0.8819
vn -0.5556 -0.0000 0.8315
vn -0.6344 -0.0000 0.7730
vn -0.7071 -0.0000 0.7072
vn -0.7071 -0.0000 0.7071
vn -0.7730 -0.0000 0.6344
vn -0.8315 -0.0000 0.5556
vn -0.8819 -0.0000 0.4714
vn -0.9239 -0.0000 0.3827
vn -0.9569 -0.0000 0.2903
vn -0.9808 -0.0000 0.1951
vn -0.9952 -0.0000 0.0981
vn -0.9952 -0.0000 0.0982
vn -1.0000 -0.0000 -0.0000
vn -0.9952 -0.0000 -0.0980
vn -0.9808 -0.0000 -0.1951
vn -0.9569 -0.0000 -0.2903
vn -0.9239 -0.0000 -0.3827
vn -0.8819 -0.0000 -0.4714
vn -0.8315 -0.0000 -0.5556
vn -0.7730 -0.0000 -0.6344
vn -0.7071 -0.0000 -0.7071
vn -0.0980 -0.0000 -0.9952
vn -0.1951 -0.0000 -0.9808
vn -0.2903 -0.0000 -0.9569
vn -0.3827 -0.0000 -0.9239
vn -0.4714 -0.0000 -0.8819
vn -0.5556 -0.0000 -0.8315
vn -0.6344 -0.0000 -0.7730
vn 0.1951 -0.0000 0.9808
vn 0.2903 -0.0000 0.9569
vn 0.3827 -0.0000 0.9239
vn 0.7071 -0.0000 0.7071
vn -0.0000 1.0000 -0.0000
vn -0.0000 1.0000 -0.0001
vn -0.0000 1.0000 0.0001
vn -0.0000 1.0000 -0.0002
vn -0.0000 1.0000 0.0002
vn -0.0000 -1.0000 -0.0000
vn -0.0000 -1.0000 -0.0001
vn -0.0000 -1.0000 0.0001
vn -0.0000 -1.0000 -0.0002
vn -0.0000 -1.0000 0.0002
vt -0.000000 -0.047538
vt -0.000000 0.000000
vt -0.500000 -0.047538
vt -0.000000 -0.094619
vt -0.000000 -0.140788
vt -0.500000 -0.094619
vt -0.500000 -0.140788
vt -0.500000 -0.185601
vt -0.000000 -0.185601
vt -0.000000 -0.228627
vt -0.500000 -0.228627
vt -0.000000 -0.269452
vt -0.500000 -0.269452
vt -0.500000 -0.307681
vt -0.000000 -0.307681
vt -0.000000 -0.342947
vt 0.342947 0.000000
vt 0.342947 0.500000
vt 0.307681 0.000000
vt 0.307681 0.500000
vt 0.269452 0.000000
vt 0.269452 0.500000
vt 0.228627 0.000000
vt 0.185601 0.000000
vt 0.228627 0.500000
vt 0.185601 0.500000
vt 0.140788 0.500000
vt 0.140788 0.000000
vt 0.094619 0.000000
vt 0.094619 0.500000
vt 0.047538 0.000000
vt 0.047538 0.500000
vt 0.000000 0.500000
vt -0.047538 0.000000
vt -0.047538 0.500000
vt -0.094619 0.000000
vt -0.094619 0.500000
vt -0.140788 0.000000
vt -0.140788 0.500000
vt -0.185601 0.000000
vt -0.228627 0.000000
vt -0.185601 0.500000
vt -0.228627 0.500000
vt -0.269452 0.500000
vt -0.269452 0.000000
vt -0.307681 0.000000
vt 0.500000 -0.307681
vt 0.500000 -0.269452
vt 0.500000 -0.047538
vt 0.500000 0.000000
vt 0.000000 0.047538
vt 0.500000 0.047538
vt 0.000000 0.094619
vt 0.500000 0.094619
vt 0.000000 0.140788
vt 0.500000 0.140788
vt 0.000000 0.185601
vt 0.000000 0.228627
vt 0.500000 0.185601
vt 0.000000 0.269452
vt 0.500000 0.228627
vt 0.500000 0.269452
vt 0.500000 0.307681
vt 0.000000 0.307681
vt 0.000000 0.342947
vt -0.342947 0.000000
vt -0.307681 0.500000
vt -0.342947 0.500000
vt -0.500000 0.000000
vt -0.500000 0.047538
vt -0.500000 0.094619
vt -0.500000 0.140788
vt -0.500000 0.185601
vt -0.500000 0.228627
vt -0.500000 0.269452
vt -0.500000 0.307681
vt -0.500000 0.342947
vt 0.500000 0.342947
vt 0.500000 -0.094619
vt 0.500000 -0.140788
vt 0.500000 -0.185601
vt 0.500000 -0.228627
vt 0.500000 -0.342947
vt -0.500000 -0.342947
vt 0.475681 -0.094619
vt 0.482665 -0.047538
vt 0.485000 0.000000
vt 0.464116 -0.140788
vt 0.448082 -0.185601
vt 0.427732 -0.228627
vt 0.403263 -0.269452
vt 0.374910 -0.307681
vt 0.342947 -0.342947
vt 0.307681 -0.374910
vt 0.269452 -0.403263
vt 0.228627 -0.427732
vt 0.185601 -0.448082
vt 0.140788 -0.464116
vt 0.094619 -0.475681
vt 0.047538 -0.482665
vt 0.000000 -0.485000
vt -0.047538 -0.482665
vt -0.094619 -0.475681
vt -0.140788 -0.464116
vt -0.185601 -0.448082
vt -0.228627 -0.427732
vt -0.269452 -0.403263
vt -0.307681 -0.374910
vt -0.342947 -0.342947
vt -0.374910 -0.307681
vt -0.403263 -0.269452
vt -0.448082 -0.185601
vt -0.427732 -0.228627
vt -0.464116 -0.140788
vt -0.475681 -0.094619
vt -0.482665 -0.047538
vt -0.485000 0.000000
vt -0.482665 0.047538
vt -0.475681 0.094619
vt -0.464116 0.140788
vt -0.448082 0.185601
vt -0.427732 0.228627
vt -0.403263 0.269452
vt -0.374910 0.307681
vt -0.342947 0.342947
vt -0.307681 0.374910
vt -0.269452 0.403263
vt -0.185601 0.448082
vt -0.228627 0.427732
vt -0.140788 0.464116
vt -0.094619 0.475681
vt -0.047538 0.482665
vt 0.000000 0.485000
vt 0.047538 0.482665
vt 0.094619 0.475681
vt 0.140788 0.464116
vt 0.185601 0.448082
vt 0.228627 0.427732
vt 0.269452 0.403263
vt 0.307681 0.374910
vt 0.342947 0.342947
vt 0.374910 0.307681
vt 0.427732 0.228627
vt 0.403263 0.269452
vt 0.448082 0.185601
vt 0.464116 0.140788
vt 0.475681 0.094619
vt 0.482665 0.047538
s 1
usemtl Diffuse_51_51_51_100.047
f 1/1/1 2/2/2 3/3/3
f 4/4/4 1/1/1 3/3/3
f 5/5/5 4/4/4 6/6/4
f 7/7/5 5/5/5 6/6/4
f 8/8/6 9/9/6 7/7/5
f 8/8/6 10/10/7 9/9/6
f 11/11/7 12/12/8 10/10/7
f 11/11/7 13/13/8 12/12/8
f 13/13/8 14/14/9 15/15/9
f 15/15/9 14/14/9 16/16/10
f 16/17/10 17/18/10 18/19/11
f 18/19/11 17/18/10 19/20/11
f 20/21/12 19/20/11 21/22/12
f 22/23/13 20/21/12 21/22/12
f 23/24/14 22/23/13 24/25/13
f 25/26/14 23/24/14 24/25/13
f 26/27/15 27/28/15 25/26/14
f 26/27/15 28/29/16 27/28/15
f 29/30/16 30/31/17 28/29/16
f 29/30/16 31/32/17 30/31/17
f 31/32/17 32/33/18 33/2/18
f 33/2/18 32/33/18 34/34/19
f 34/34/19 35/35/19 36/36/20
f 36/36/20 35/35/19 37/37/20
f 38/38/21 37/37/20 39/39/21
f 40/40/22 38/38/21 39/39/21
f 41/41/23 40/40/22 42/42/22
f 43/43/23 41/41/23 42/42/22
f 44/44/24 45/45/24 43/43/23
f 44/44/24 46/46/25 45/45/24
f 47/47/26 48/48/27 49/12/27
f 48/48/27 50/10/28 49/12/27
f 51/2/29 52/49/30 53/50/29
f 51/2/29 53/50/29 54/51/31
f 54/51/31 55/52/31 56/53/32
f 56/53/32 55/52/31 57/54/32
f 58/55/33 57/54/32 59/56/33
f 60/57/34 58/55/33 59/56/33
f 61/58/35 60/57/34 62/59/34
f 63/60/36 61/58/35 64/61/35
f 65/62/36 63/60/36 64/61/35
f 66/63/37 67/64/37 65/62/36
f 66/63/37 68/65/38 67/64/37
f 69/18/39 70/19/40 68/17/38
f 69/18/39 71/20/40 70/19/40
f 71/20/40 72/22/41 73/21/41
f 73/21/41 72/22/41 74/23/42
f 74/23/42 75/25/42 76/24/43
f 76/24/43 75/25/42 77/26/43
f 78/28/44 77/26/43 79/27/44
f 80/29/45 78/28/44 79/27/44
f 81/31/46 80/29/45 82/30/45
f 83/32/47 81/31/46 82/30/45
f 84/33/48 85/2/48 83/32/47
f 84/33/48 86/34/49 85/2/48
f 87/35/49 88/36/50 86/34/49
f 87/35/49 89/37/50 88/36/50
f 89/37/50 90/39/51 91/38/51
f 91/38/51 90/39/51 92/40/52
f 92/40/52 93/42/52 94/41/53
f 94/41/53 93/42/52 95/43/53
f 96/45/54 95/43/53 97/44/54
f 98/46/55 96/45/54 97/44/54
f 99/66/56 98/46/55 100/67/55
f 101/68/56 99/66/56 100/67/55
f 2/2/2 102/69/2 3/3/3
f 103/70/57 2/2/2 104/51/57
f 105/71/58 103/70/57 104/51/57
f 106/53/58 105/71/58 104/51/57
f 106/53/58 107/72/59 105/71/58
f 106/53/58 108/55/59 107/72/59
f 107/72/59 108/55/59 109/73/60
f 109/73/60 108/55/59 110/57/60
f 111/74/61 109/73/60 110/57/60
f 112/58/61 111/74/61 110/57/60
f 112/58/61 113/75/62 111/74/61
f 112/58/61 114/60/62 113/75/62
f 113/75/62 114/60/62 115/76/63
f 115/76/63 114/60/62 116/64/63
f 101/77/56 115/76/63 116/64/63
f 99/65/56 101/77/56 116/64/63
f 97/44/54 100/67/55 98/46/55
f 95/43/53 96/45/54 94/41/53
f 93/42/52 92/40/52 90/39/51
f 91/38/51 88/36/50 89/37/50
f 86/34/49 84/33/48 87/35/49
f 81/31/46 83/32/47 85/2/48
f 79/27/44 82/30/45 80/29/45
f 77/26/43 78/28/44 76/24/43
f 75/25/42 74/23/42 72/22/41
f 73/21/41 70/19/40 71/20/40
f 68/65/38 66/63/37 69/78/39
f 63/60/36 65/62/36 67/64/37
f 62/59/34 64/61/35 61/58/35
f 59/56/33 62/59/34 60/57/34
f 57/54/32 58/55/33 56/53/32
f 55/52/31 54/51/31 53/50/29
f 103/70/57 102/69/2 2/2/2
f 52/49/30 51/2/29 117/1/30
f 118/79/64 52/49/30 117/1/30
f 119/4/64 118/79/64 117/1/30
f 119/4/64 120/80/65 118/79/64
f 119/4/64 121/5/65 120/80/65
f 120/80/65 121/5/65 122/81/66
f 122/81/66 121/5/65 123/9/66
f 124/82/28 122/81/66 123/9/66
f 50/10/28 124/82/28 123/9/66
f 50/10/28 48/48/27 124/82/28
f 49/12/27 125/15/26 47/47/26
f 47/47/26 125/15/26 126/83/67
f 126/83/67 125/15/26 127/16/67
f 128/67/25 126/68/67 127/66/67
f 46/46/25 128/67/25 127/66/67
f 46/46/25 44/44/24 128/67/25
f 41/41/23 43/43/23 45/45/24
f 39/39/21 42/42/22 40/40/22
f 37/37/20 38/38/21 36/36/20
f 35/35/19 34/34/19 32/33/18
f 33/2/18 30/31/17 31/32/17
f 28/29/16 26/27/15 29/30/16
f 23/24/14 25/26/14 27/28/15
f 21/22/12 24/25/13 22/23/13
f 19/20/11 20/21/12 18/19/11
f 17/84/10 16/16/10 14/14/9
f 15/15/9 12/12/8 13/13/8
f 10/10/7 8/8/6 11/11/7
f 5/5/5 7/7/5 9/9/6
f 3/3/3 6/6/4 4/4/4
f 129/85/68 130/86/68 131/87/68
f 132/88/68 133/85/68 134/87/68
f 135/89/68 136/88/68 137/87/68
f 138/90/69 139/89/69 140/87/69
f 141/91/68 142/90/68 143/87/68
f 144/92/68 145/91/68 146/87/68
f 147/93/68 148/92/68 149/87/68
f 150/94/68 151/93/68 152/87/68
f 153/95/68 154/94/68 155/87/68
f 156/96/68 157/95/68 158/87/68
f 159/97/68 160/96/68 161/87/68
f 162/98/68 163/87/68 164/99/68
f 165/98/68 166/97/68 167/87/68
f 168/99/68 169/87/68 170/100/68
f 171/100/68 172/87/68 173/101/68
f 174/101/68 175/87/68 176/102/68
f 177/102/68 178/87/68 179/103/68
f 180/87/69 181/104/69 182/103/69
f 183/87/70 184/105/70 185/104/70
f 186/87/71 187/106/71 188/105/71
f 189/87/70 190/107/70 191/106/70
f 192/87/68 193/108/68 194/107/68
f 195/87/68 196/109/68 197/108/68
f 198/87/70 199/110/70 200/109/70
f 201/87/68 202/111/68 203/110/68
f 204/112/69 205/113/69 206/87/69
f 207/87/68 208/113/68 209/111/68
f 210/114/68 211/112/68 212/87/68
f 213/115/70 214/114/70 215/87/70
f 216/116/68 217/87/68 218/117/68
f 219/117/68 220/87/68 221/118/68
f 222/118/68 223/87/68 224/119/68
f 225/87/68 226/120/68 227/119/68
f 228/87/68 229/121/68 230/120/68
f 231/87/68 232/122/68 233/121/68
f 234/87/68 235/123/68 236/122/68
f 237/87/69 238/124/69 239/123/69
f 240/87/70 241/125/70 242/124/70
f 243/87/68 244/126/68 245/125/68
f 246/87/68 247/127/68 248/126/68
f 249/128/71 250/129/71 251/87/71
f 252/87/68 253/129/68 254/127/68
f 255/130/68 256/128/68 257/87/68
f 258/131/72 259/130/72 260/87/72
f 261/132/68 262/131/68 263/87/68
f 264/133/68 265/132/68 266/87/68
f 267/134/68 268/133/68 269/87/68
f 270/134/68 271/87/68 272/135/68
f 273/135/70 274/87/70 275/136/70
f 276/136/68 277/87/68 278/137/68
f 279/137/68 280/87/68 281/138/68
f 282/138/68 283/87/68 284/139/68
f 285/139/68 286/87/68 287/140/68
f 288/140/68 289/87/68 290/141/68
f 291/141/68 292/87/68 293/142/68
f 294/87/68 295/143/68 296/144/68
f 297/142/68 298/87/68 299/144/68
f 300/87/68 301/145/68 302/143/68
f 303/87/68 304/146/68 305/145/68
f 306/87/68 307/147/68 308/146/68
f 309/87/68 310/148/68 311/147/68
f 312/116/68 313/115/68 314/87/68
f 315/115/73 316/117/73 317/116/73
f 318/114/73 319/117/73 320/115/73
f 321/112/73 322/117/73 323/114/73
f 324/113/73 325/117/73 326/112/73
f 327/111/73 328/117/73 329/113/73
f 330/110/73 331/117/73 332/111/73
f 333/109/73 334/117/73 335/110/73
f 336/108/73 337/117/73 338/109/73
f 339/107/74 340/117/74 341/108/74
f 342/106/73 343/117/73 344/107/73
f 345/105/73 346/117/73 347/106/73
f 348/104/73 349/103/73 350/117/73
f 351/104/73 352/117/73 353/105/73
f 354/103/73 355/102/73 356/117/73
f 357/102/73 358/101/73 359/117/73
f 360/101/73 361/100/73 362/117/73
f 363/100/73 364/99/73 365/117/73
f 366/117/74 367/99/74 368/98/74
f 369/117/75 370/98/75 371/97/75
f 372/117/73 373/97/73 374/96/73
f 375/117/74 376/96/74 377/95/74
f 378/117/75 379/95/75 380/94/75
f 381/117/73 382/94/73 383/93/73
f 384/117/74 385/93/74 386/92/74
f 387/117/73 388/92/73 389/91/73
f 390/89/73 391/117/73 392/90/73
f 393/117/73 394/91/73 395/90/73
f 396/88/73 397/117/73 398/89/73
f 399/85/73 400/117/73 401/88/73
f 402/86/73 403/87/73 404/117/73
f 405/87/73 406/148/73 407/117/73
f 408/148/73 409/147/73 410/117/73
f 411/117/73 412/147/73 413/146/73
f 414/117/73 415/146/73 416/145/73
f 417/117/73 418/145/73 419/143/73
f 420/117/73 421/143/73 422/144/73
f 423/117/74 424/144/74 425/142/74
f 426/117/75 427/142/75 428/141/75
f 429/117/73 430/141/73 431/140/73
f 432/117/73 433/140/73 434/139/73
f 435/137/76 436/117/76 437/138/76
f 438/117/73 439/139/73 440/138/73
f 441/136/73 442/117/73 443/137/73
f 444/135/73 445/117/73 446/136/73
f 447/134/77 448/117/77 449/135/77
f 450/133/73 451/117/73 452/134/73
f 453/132/73 454/117/73 455/133/73
f 456/132/73 457/131/73 458/117/73
f 459/131/73 460/130/73 461/117/73
f 462/130/73 463/128/73 464/117/73
f 465/128/73 466/129/73 467/117/73
f 468/129/73 469/127/73 470/117/73
f 471/127/73 472/126/73 473/117/73
f 474/126/73 475/125/73 476/117/73
f 477/125/73 478/124/73 479/117/73
f 480/117/73 481/123/73 482/122/73
f 483/124/73 484/123/73 485/117/73
f 486/117/73 487/122/73 488/121/73
f 489/117/73 490/121/73 491/120/73
f 492/117/73 493/120/73 494/119/73
f 495/117/73 496/119/73 497/118/73
f 498/86/73 499/117/73 500/85/73
