# Blender 4.4.3
# www.blender.org
mtllib Mesh_16.009.mtl
o Mesh_16.009
v 0.017100 0.008820 -0.009890
v 0.000100 0.008820 -0.009890
v 0.017100 0.008833 -0.009938
v 0.000100 0.008833 -0.009938
v 0.017100 0.008786 -0.009890
v 0.000100 0.008786 -0.009890
v 0.017100 0.008820 -0.009890
v 0.000100 0.008820 -0.009890
v 0.017100 0.008820 -0.009890
v 0.017100 0.008773 -0.009938
v 0.000100 0.008773 -0.009938
v 0.017100 0.008786 -0.009890
v 0.000100 0.008786 -0.009890
v 0.017100 0.008786 -0.009890
v 0.017100 0.008773 -0.009997
v 0.000100 0.008773 -0.009996
v 0.017100 0.008833 -0.009997
v 0.000100 0.008833 -0.009996
v 0.017100 0.008773 -0.009997
v 0.000100 0.008773 -0.009996
v 0.017100 0.008773 -0.009997
v 0.017100 0.008843 -0.009937
v 0.000100 0.008843 -0.009937
v 0.017100 0.008828 -0.009880
v 0.000100 0.008828 -0.009880
v 0.017100 0.008843 -0.010063
v 0.000100 0.008843 -0.010063
v 0.017100 0.008828 -0.010120
v 0.000100 0.008828 -0.010120
v 0.017100 0.008778 -0.010120
v 0.000100 0.008778 -0.010120
v 0.017100 0.008828 -0.010120
v 0.000100 0.008828 -0.010120
v 0.017100 0.008828 -0.010120
v 0.017100 0.008763 -0.010063
v 0.000100 0.008763 -0.010063
v 0.017100 0.008778 -0.010120
v 0.000100 0.008778 -0.010120
v 0.017100 0.008778 -0.010120
v 0.017100 0.008763 -0.009937
v 0.000100 0.008763 -0.009937
v 0.017100 0.008778 -0.009880
v 0.000100 0.008778 -0.009880
v 0.000100 0.008786 -0.010110
v 0.017100 0.008786 -0.010110
v 0.000100 0.008820 -0.010110
v 0.017100 0.008820 -0.010110
v 0.000100 0.008820 -0.010110
v 0.017100 0.008820 -0.010110
v 0.000100 0.008833 -0.010062
v 0.017100 0.008820 -0.010110
v 0.017100 0.008833 -0.010062
v 0.000100 0.008833 -0.010003
v 0.017100 0.008833 -0.010004
v 0.000100 0.008833 -0.010003
v 0.017100 0.008833 -0.010004
v 0.000100 0.008773 -0.010003
v 0.017100 0.008833 -0.010004
v 0.017100 0.008773 -0.010004
v 0.000100 0.008773 -0.010003
v 0.017100 0.008773 -0.010004
v 0.000100 0.008773 -0.010062
v 0.017100 0.008773 -0.010004
v 0.017100 0.008773 -0.010062
v 0.017100 0.008828 -0.009880
v 0.000100 0.008828 -0.009880
v 0.017100 0.008778 -0.009880
v 0.000100 0.008828 -0.009880
v 0.000100 0.008778 -0.009880
v 0.017100 0.008778 -0.009880
v 0.000100 0.008786 -0.010110
v 0.000100 0.008786 -0.010110
v 0.017100 0.008786 -0.010110
v 0.017100 0.008833 -0.009997
v 0.000100 0.008833 -0.009996
v 0.017100 0.008833 -0.009997
v 0.000100 0.008833 -0.009996
v 0.000100 0.008843 -0.009937
v 0.000100 0.008833 -0.010003
v 0.000100 0.008833 -0.009996
v 0.000100 0.008833 -0.010003
v 0.000100 0.008773 -0.009996
v 0.000100 0.008773 -0.009996
v 0.000100 0.008773 -0.010003
v 0.000100 0.008763 -0.009937
v 0.000100 0.008773 -0.009938
v 0.000100 0.008773 -0.009996
v 0.000100 0.008763 -0.009937
v 0.000100 0.008786 -0.009890
v 0.000100 0.008763 -0.009937
v 0.000100 0.008778 -0.009880
v 0.000100 0.008820 -0.009890
v 0.000100 0.008778 -0.009880
v 0.000100 0.008828 -0.009880
v 0.000100 0.008786 -0.009890
v 0.000100 0.008773 -0.009938
v 0.000100 0.008763 -0.009937
v 0.000100 0.008833 -0.009938
v 0.000100 0.008843 -0.009937
v 0.000100 0.008833 -0.009996
v 0.000100 0.008820 -0.009890
v 0.000100 0.008828 -0.009880
v 0.000100 0.008843 -0.009937
v 0.000100 0.008763 -0.009937
v 0.000100 0.008773 -0.010003
v 0.000100 0.008763 -0.010063
v 0.000100 0.008778 -0.010120
v 0.000100 0.008786 -0.010110
v 0.000100 0.008828 -0.010120
v 0.000100 0.008828 -0.010120
v 0.000100 0.008786 -0.010110
v 0.000100 0.008820 -0.010110
v 0.000100 0.008843 -0.010063
v 0.000100 0.008833 -0.010003
v 0.000100 0.008843 -0.009937
v 0.000100 0.008786 -0.009890
v 0.000100 0.008778 -0.009880
v 0.000100 0.008820 -0.009890
v 0.000100 0.008773 -0.010062
v 0.000100 0.008786 -0.010110
v 0.000100 0.008763 -0.010063
v 0.000100 0.008763 -0.010063
v 0.000100 0.008786 -0.010110
v 0.000100 0.008778 -0.010120
v 0.000100 0.008843 -0.009937
v 0.000100 0.008833 -0.009938
v 0.000100 0.008820 -0.009890
v 0.000100 0.008833 -0.010062
v 0.000100 0.008843 -0.010063
v 0.000100 0.008820 -0.010110
v 0.000100 0.008833 -0.010062
v 0.000100 0.008833 -0.010003
v 0.000100 0.008843 -0.010063
v 0.000100 0.008828 -0.010120
v 0.000100 0.008820 -0.010110
v 0.000100 0.008843 -0.010063
v 0.000100 0.008773 -0.010003
v 0.000100 0.008773 -0.010062
v 0.000100 0.008763 -0.010063
v 0.000100 0.008833 -0.010003
v 0.000100 0.008773 -0.010003
v 0.000100 0.008773 -0.009996
v 0.017100 0.008833 -0.009938
v 0.017100 0.008833 -0.009997
v 0.017100 0.008843 -0.009937
v 0.017100 0.008833 -0.009997
v 0.017100 0.008773 -0.009997
v 0.017100 0.008833 -0.010004
v 0.017100 0.008773 -0.009997
v 0.017100 0.008773 -0.010004
v 0.017100 0.008833 -0.010004
v 0.017100 0.008773 -0.009997
v 0.017100 0.008763 -0.009937
v 0.017100 0.008773 -0.010004
v 0.017100 0.008773 -0.009938
v 0.017100 0.008763 -0.009937
v 0.017100 0.008773 -0.009997
v 0.017100 0.008833 -0.009997
v 0.017100 0.008833 -0.010004
v 0.017100 0.008843 -0.009937
v 0.017100 0.008786 -0.009890
v 0.017100 0.008778 -0.009880
v 0.017100 0.008763 -0.009937
v 0.017100 0.008820 -0.009890
v 0.017100 0.008828 -0.009880
v 0.017100 0.008778 -0.009880
v 0.017100 0.008820 -0.009890
v 0.017100 0.008833 -0.009938
v 0.017100 0.008843 -0.009937
v 0.017100 0.008828 -0.009880
v 0.017100 0.008820 -0.009890
v 0.017100 0.008843 -0.009937
v 0.017100 0.008778 -0.009880
v 0.017100 0.008786 -0.009890
v 0.017100 0.008820 -0.009890
v 0.017100 0.008763 -0.009937
v 0.017100 0.008763 -0.010063
v 0.017100 0.008773 -0.010004
v 0.017100 0.008778 -0.010120
v 0.017100 0.008828 -0.010120
v 0.017100 0.008786 -0.010110
v 0.017100 0.008843 -0.010063
v 0.017100 0.008843 -0.009937
v 0.017100 0.008833 -0.010004
v 0.017100 0.008786 -0.010110
v 0.017100 0.008763 -0.010063
v 0.017100 0.008778 -0.010120
v 0.017100 0.008786 -0.010110
v 0.017100 0.008828 -0.010120
v 0.017100 0.008820 -0.010110
v 0.017100 0.008773 -0.009938
v 0.017100 0.008786 -0.009890
v 0.017100 0.008763 -0.009937
v 0.017100 0.008833 -0.010062
v 0.017100 0.008820 -0.010110
v 0.017100 0.008843 -0.010063
v 0.017100 0.008833 -0.010062
v 0.017100 0.008843 -0.010063
v 0.017100 0.008833 -0.010004
v 0.017100 0.008773 -0.010004
v 0.017100 0.008763 -0.010063
v 0.017100 0.008773 -0.010062
v 0.017100 0.008820 -0.010110
v 0.017100 0.008828 -0.010120
v 0.017100 0.008843 -0.010063
v 0.017100 0.008763 -0.010063
v 0.017100 0.008786 -0.010110
v 0.017100 0.008773 -0.010062
vn -0.0000 -0.9659 -0.2589
vn -0.0000 -0.9659 -0.2588
vn -0.0001 -0.9659 -0.2588
vn -0.0000 -0.9660 -0.2587
vn -0.0000 -0.0000 -1.0000
vn -0.0000 0.9659 -0.2588
vn -0.0000 0.9659 -0.2589
vn -0.0000 1.0000 -0.0000
vn 0.0001 -0.0000 1.0000
vn -0.0000 0.9659 0.2588
vn -0.0000 -1.0000 -0.0000
vn -0.0000 -1.0000 0.0001
vn -0.0000 -0.9659 0.2588
vn -0.0000 -0.0000 1.0000
vn -0.0001 -0.0000 -1.0000
vn -0.0000 1.0000 0.0001
vn -1.0000 -0.0000 -0.0000
vn 1.0000 -0.0000 -0.0000
vn 1.0000 -0.0001 -0.0000
vn 1.0000 0.0001 -0.0000
vn 1.0000 -0.0002 -0.0000
vn 1.0000 0.0002 -0.0000
s 1
usemtl Diffuse_51_51_51_100.017
f 1//1 2//2 3//3
f 2//2 4//4 3//3
f 5//5 6//5 7//5
f 6//5 8//5 9//5
f 10//6 11//6 12//7
f 11//6 13//6 14//6
f 15//8 16//8 10//6
f 16//8 11//6 10//6
f 17//9 18//9 19//9
f 18//9 20//9 21//9
f 22//10 23//10 24//10
f 23//10 25//10 24//10
f 26//8 27//8 22//10
f 27//8 23//10 22//10
f 28//6 29//6 26//8
f 29//6 27//8 26//8
f 30//5 31//5 32//5
f 31//5 33//5 34//5
f 35//2 36//2 37//2
f 36//2 38//2 39//2
f 40//11 41//12 35//2
f 41//12 36//2 35//2
f 42//13 43//13 40//11
f 43//13 41//12 40//11
f 44//14 45//14 46//14
f 46//14 45//14 47//14
f 48//13 49//13 50//13
f 50//13 51//13 52//13
f 50//13 52//13 53//11
f 53//11 52//13 54//11
f 55//15 56//15 57//15
f 57//15 58//15 59//15
f 60//8 61//8 62//8
f 62//8 63//8 64//8
f 65//14 66//14 67//14
f 68//14 69//14 70//14
f 62//8 64//8 71//10
f 72//10 64//16 73//10
f 3//3 4//4 74//11
f 4//2 75//11 76//11
f 77//17 78//17 79//17
f 80//17 81//17 82//17
f 83//17 84//17 85//17
f 86//17 87//17 88//17
f 89//17 90//17 91//17
f 92//17 93//17 94//17
f 95//17 96//17 97//17
f 98//17 99//17 100//17
f 101//17 102//17 103//17
f 104//17 105//17 106//17
f 107//17 108//17 109//17
f 110//17 111//17 112//17
f 113//17 114//17 115//17
f 116//17 117//17 118//17
f 119//17 120//17 121//17
f 122//17 123//17 124//17
f 125//17 126//17 127//17
f 128//17 129//17 130//17
f 131//17 132//17 133//17
f 134//17 135//17 136//17
f 137//17 138//17 139//17
f 140//17 141//17 142//17
f 143//18 144//18 145//18
f 146//18 147//18 148//18
f 149//18 150//18 151//18
f 152//18 153//18 154//18
f 155//18 156//18 157//18
f 158//18 159//18 160//18
f 161//19 162//19 163//19
f 164//18 165//18 166//18
f 167//20 168//20 169//20
f 170//21 171//21 172//21
f 173//18 174//18 175//18
f 176//22 177//22 178//22
f 179//18 180//18 181//18
f 182//21 183//21 184//21
f 185//18 186//18 187//18
f 188//18 189//18 190//18
f 191//18 192//18 193//18
f 194//18 195//18 196//18
f 197//18 198//18 199//18
f 200//19 201//19 202//19
f 203//18 204//18 205//18
f 206//18 207//18 208//18
