# Blender 4.4.3
# www.blender.org
mtllib Mesh_20.016.mtl
o Mesh_20.016
v 0.017290 0.008710 -0.003952
v 0.017290 0.008710 -0.003943
v 0.017290 0.008716 -0.003937
v 0.017290 0.008773 -0.003952
v 0.017290 0.008721 -0.003930
v 0.017290 0.008726 -0.003924
v 0.017290 0.008732 -0.003919
v 0.017290 0.008738 -0.003913
v 0.017290 0.008773 -0.003915
v 0.017290 0.008744 -0.003908
v 0.017290 0.008750 -0.003902
v 0.017290 0.008756 -0.003897
v 0.017290 0.008710 -0.003943
v 0.017375 0.008710 -0.003943
v 0.017375 0.008714 -0.003939
v 0.017290 0.008716 -0.003937
v 0.017290 0.008710 -0.003943
v 0.017375 0.008717 -0.003935
v 0.017290 0.008716 -0.003937
v 0.017290 0.008721 -0.003930
v 0.017290 0.008716 -0.003937
v 0.017290 0.008721 -0.003930
v 0.017375 0.008720 -0.003931
v 0.017375 0.008723 -0.003927
v 0.017290 0.008721 -0.003930
v 0.017290 0.008726 -0.003924
v 0.017290 0.008721 -0.003930
v 0.017375 0.008727 -0.003924
v 0.017375 0.008730 -0.003920
v 0.017290 0.008726 -0.003924
v 0.017290 0.008726 -0.003924
v 0.017290 0.008726 -0.003924
v 0.017290 0.008732 -0.003919
v 0.017290 0.008732 -0.003919
v 0.017375 0.008734 -0.003917
v 0.017290 0.008738 -0.003913
v 0.017290 0.008732 -0.003919
v 0.017375 0.008738 -0.003913
v 0.017290 0.008738 -0.003913
v 0.017375 0.008741 -0.003910
v 0.017290 0.008738 -0.003913
v 0.017290 0.008738 -0.003913
v 0.017290 0.008744 -0.003908
v 0.017290 0.008744 -0.003908
v 0.017375 0.008745 -0.003906
v 0.017290 0.008750 -0.003902
v 0.017293 0.008756 -0.003897
v 0.017290 0.008756 -0.003897
v 0.017290 0.008750 -0.003902
v 0.017290 0.008744 -0.003908
v 0.017290 0.008750 -0.003902
v 0.017297 0.008756 -0.003897
v 0.017375 0.008749 -0.003903
v 0.017290 0.008750 -0.003902
v 0.017300 0.008756 -0.003897
v 0.017290 0.008750 -0.003902
v 0.017304 0.008756 -0.003897
v 0.017290 0.008750 -0.003902
v 0.017307 0.008757 -0.003897
v 0.017375 0.008753 -0.003900
v 0.017310 0.008757 -0.003896
v 0.017317 0.008759 -0.003895
v 0.017313 0.008758 -0.003896
v 0.017340 0.008769 -0.003888
v 0.017338 0.008767 -0.003889
v 0.017375 0.008765 -0.003891
v 0.017375 0.008769 -0.003888
v 0.017335 0.008766 -0.003890
v 0.017332 0.008764 -0.003891
v 0.017375 0.008761 -0.003894
v 0.017329 0.008763 -0.003892
v 0.017326 0.008762 -0.003893
v 0.017375 0.008757 -0.003897
v 0.017323 0.008761 -0.003894
v 0.017320 0.008760 -0.003894
v 0.017290 0.008750 -0.003902
v 0.017290 0.008750 -0.003902
v 0.017375 0.008834 -0.003887
v 0.017352 0.008803 -0.003887
v 0.017375 0.008772 -0.003887
v 0.017345 0.008775 -0.003887
v 0.017343 0.008772 -0.003887
v 0.017347 0.008779 -0.003887
v 0.017349 0.008783 -0.003887
v 0.017350 0.008787 -0.003887
v 0.017351 0.008791 -0.003887
v 0.017352 0.008795 -0.003887
v 0.017352 0.008799 -0.003887
v 0.017352 0.008807 -0.003887
v 0.017352 0.008811 -0.003887
v 0.017351 0.008815 -0.003887
v 0.017350 0.008819 -0.003887
v 0.017349 0.008823 -0.003887
v 0.017345 0.008831 -0.003887
v 0.017343 0.008834 -0.003887
v 0.017347 0.008827 -0.003887
v 0.017290 0.008856 -0.003902
v 0.017293 0.008850 -0.003897
v 0.017297 0.008850 -0.003897
v 0.017300 0.008850 -0.003897
v 0.017303 0.008850 -0.003897
v 0.017307 0.008849 -0.003897
v 0.017375 0.008868 -0.003913
v 0.017375 0.008872 -0.003917
v 0.017290 0.008868 -0.003913
v 0.017375 0.008879 -0.003924
v 0.017290 0.008880 -0.003924
v 0.017375 0.008876 -0.003920
v 0.017375 0.008883 -0.003927
v 0.017290 0.008885 -0.003930
v 0.017290 0.008850 -0.003897
v 0.017290 0.008895 -0.003943
v 0.017375 0.008892 -0.003939
v 0.017375 0.008895 -0.003943
v 0.017290 0.008890 -0.003937
v 0.017375 0.008889 -0.003935
v 0.017375 0.008886 -0.003931
v 0.017290 0.008874 -0.003919
v 0.017375 0.008865 -0.003910
v 0.017290 0.008862 -0.003908
v 0.017375 0.008861 -0.003906
v 0.017310 0.008849 -0.003896
v 0.017375 0.008857 -0.003903
v 0.017313 0.008848 -0.003896
v 0.017375 0.008853 -0.003900
v 0.017317 0.008847 -0.003895
v 0.017320 0.008846 -0.003894
v 0.017375 0.008849 -0.003897
v 0.017326 0.008844 -0.003893
v 0.017329 0.008843 -0.003892
v 0.017375 0.008845 -0.003894
v 0.017375 0.008837 -0.003888
v 0.017375 0.008841 -0.003891
v 0.017340 0.008837 -0.003888
v 0.017338 0.008839 -0.003889
v 0.017335 0.008840 -0.003890
v 0.017332 0.008842 -0.003891
v 0.017323 0.008845 -0.003894
v 0.017290 0.008833 -0.003915
v 0.017290 0.008868 -0.003913
v 0.017290 0.008833 -0.003952
v 0.017290 0.008850 -0.003897
v 0.017290 0.008856 -0.003902
v 0.017290 0.008856 -0.003902
v 0.017290 0.008862 -0.003908
v 0.017290 0.008862 -0.003908
v 0.017290 0.008868 -0.003913
v 0.017290 0.008868 -0.003913
v 0.017290 0.008874 -0.003919
v 0.017290 0.008874 -0.003919
v 0.017290 0.008880 -0.003924
v 0.017290 0.008880 -0.003924
v 0.017290 0.008885 -0.003930
v 0.017290 0.008895 -0.003943
v 0.017290 0.008895 -0.003952
v 0.017290 0.008890 -0.003937
v 0.017290 0.008885 -0.003930
v 0.017290 0.008890 -0.003937
v 0.017290 0.008890 -0.003937
v 0.017375 0.008845 -0.003894
v 0.017375 0.008834 -0.003887
v 0.017375 0.008772 -0.003887
v 0.017375 0.008761 -0.003894
v 0.017375 0.008772 -0.003887
v 0.017375 0.008765 -0.003891
v 0.017375 0.008772 -0.003887
v 0.017375 0.008771 -0.003887
v 0.017375 0.008769 -0.003888
v 0.017375 0.008770 -0.003887
v 0.017375 0.008769 -0.003888
v 0.017375 0.008770 -0.003887
v 0.017375 0.008769 -0.003888
v 0.017375 0.008772 -0.003887
v 0.017375 0.008769 -0.003888
v 0.017375 0.008765 -0.003891
v 0.017375 0.008845 -0.003894
v 0.017375 0.008772 -0.003887
v 0.017375 0.008761 -0.003894
v 0.017375 0.008845 -0.003894
v 0.017375 0.008761 -0.003894
v 0.017375 0.008849 -0.003897
v 0.017375 0.008761 -0.003894
v 0.017375 0.008757 -0.003897
v 0.017375 0.008849 -0.003897
v 0.017375 0.008757 -0.003897
v 0.017375 0.008853 -0.003900
v 0.017375 0.008849 -0.003897
v 0.017375 0.008753 -0.003900
v 0.017375 0.008853 -0.003900
v 0.017375 0.008757 -0.003897
v 0.017375 0.008857 -0.003903
v 0.017375 0.008853 -0.003900
v 0.017375 0.008753 -0.003900
v 0.017375 0.008857 -0.003903
v 0.017375 0.008753 -0.003900
v 0.017375 0.008749 -0.003903
v 0.017375 0.008857 -0.003903
v 0.017375 0.008749 -0.003903
v 0.017375 0.008861 -0.003906
v 0.017375 0.008749 -0.003903
v 0.017375 0.008745 -0.003906
v 0.017375 0.008861 -0.003906
v 0.017375 0.008745 -0.003906
v 0.017375 0.008865 -0.003910
v 0.017375 0.008861 -0.003906
v 0.017375 0.008741 -0.003910
v 0.017375 0.008865 -0.003910
v 0.017375 0.008745 -0.003906
v 0.017375 0.008868 -0.003913
v 0.017375 0.008865 -0.003910
v 0.017375 0.008741 -0.003910
v 0.017375 0.008868 -0.003913
v 0.017375 0.008741 -0.003910
v 0.017375 0.008738 -0.003913
v 0.017375 0.008710 -0.003943
v 0.017375 0.008710 -0.003952
v 0.017375 0.008714 -0.003939
v 0.017375 0.008868 -0.003913
v 0.017375 0.008738 -0.003913
v 0.017375 0.008872 -0.003917
v 0.017375 0.008720 -0.003931
v 0.017375 0.008717 -0.003935
v 0.017375 0.008734 -0.003917
v 0.017375 0.008730 -0.003920
v 0.017375 0.008895 -0.003943
v 0.017375 0.008892 -0.003939
v 0.017375 0.008895 -0.003952
v 0.017375 0.008892 -0.003939
v 0.017375 0.008889 -0.003935
v 0.017375 0.008889 -0.003935
v 0.017375 0.008886 -0.003931
v 0.017375 0.008886 -0.003931
v 0.017375 0.008883 -0.003927
v 0.017375 0.008883 -0.003927
v 0.017375 0.008879 -0.003924
v 0.017375 0.008879 -0.003924
v 0.017375 0.008876 -0.003920
v 0.017375 0.008876 -0.003920
v 0.017375 0.008872 -0.003917
v 0.017375 0.008734 -0.003917
v 0.017375 0.008730 -0.003920
v 0.017375 0.008727 -0.003924
v 0.017375 0.008727 -0.003924
v 0.017375 0.008723 -0.003927
v 0.017375 0.008723 -0.003927
v 0.017375 0.008720 -0.003931
v 0.017375 0.008734 -0.003917
v 0.017375 0.008872 -0.003917
v 0.017375 0.008872 -0.003917
v 0.017375 0.008738 -0.003913
v 0.017375 0.008734 -0.003917
v 0.017375 0.008717 -0.003935
v 0.017375 0.008714 -0.003939
v 0.017375 0.008845 -0.003894
v 0.017375 0.008841 -0.003891
v 0.017375 0.008834 -0.003887
v 0.017375 0.008836 -0.003887
v 0.017375 0.008834 -0.003887
v 0.017375 0.008836 -0.003887
v 0.017375 0.008834 -0.003887
v 0.017375 0.008837 -0.003888
v 0.017375 0.008835 -0.003887
v 0.017375 0.008834 -0.003887
v 0.017375 0.008837 -0.003888
v 0.017375 0.008834 -0.003887
v 0.017375 0.008841 -0.003891
v 0.017375 0.008710 -0.003952
v 0.017375 0.008710 -0.003943
v 0.017290 0.008710 -0.003952
v 0.017375 0.008710 -0.003943
v 0.017290 0.008710 -0.003943
v 0.017290 0.008710 -0.003952
v 0.017290 0.008895 -0.003952
v 0.017290 0.008895 -0.003943
v 0.017375 0.008895 -0.003952
v 0.017290 0.008895 -0.003943
v 0.017375 0.008895 -0.003943
v 0.017375 0.008895 -0.003952
v 0.017290 0.008710 -0.003952
v 0.017306 0.008775 -0.003952
v 0.017308 0.008776 -0.003952
v 0.017375 0.008710 -0.003952
v 0.017325 0.008801 -0.003952
v 0.017325 0.008803 -0.003952
v 0.017292 0.008833 -0.003952
v 0.017290 0.008833 -0.003952
v 0.017290 0.008895 -0.003952
v 0.017290 0.008895 -0.003952
v 0.017293 0.008833 -0.003952
v 0.017290 0.008895 -0.003952
v 0.017295 0.008833 -0.003952
v 0.017290 0.008895 -0.003952
v 0.017296 0.008833 -0.003952
v 0.017290 0.008895 -0.003952
v 0.017298 0.008833 -0.003952
v 0.017290 0.008895 -0.003952
v 0.017300 0.008833 -0.003952
v 0.017290 0.008895 -0.003952
v 0.017301 0.008832 -0.003952
v 0.017290 0.008895 -0.003952
v 0.017303 0.008832 -0.003952
v 0.017290 0.008895 -0.003952
v 0.017304 0.008831 -0.003952
v 0.017290 0.008895 -0.003952
v 0.017306 0.008831 -0.003952
v 0.017290 0.008895 -0.003952
v 0.017308 0.008830 -0.003952
v 0.017290 0.008895 -0.003952
v 0.017309 0.008830 -0.003952
v 0.017290 0.008895 -0.003952
v 0.017375 0.008895 -0.003952
v 0.017375 0.008895 -0.003952
v 0.017310 0.008829 -0.003952
v 0.017375 0.008895 -0.003952
v 0.017312 0.008828 -0.003952
v 0.017375 0.008895 -0.003952
v 0.017313 0.008827 -0.003952
v 0.017375 0.008895 -0.003952
v 0.017314 0.008826 -0.003952
v 0.017375 0.008895 -0.003952
v 0.017316 0.008825 -0.003952
v 0.017375 0.008895 -0.003952
v 0.017317 0.008824 -0.003952
v 0.017375 0.008895 -0.003952
v 0.017318 0.008822 -0.003952
v 0.017375 0.008895 -0.003952
v 0.017319 0.008821 -0.003952
v 0.017375 0.008895 -0.003952
v 0.017320 0.008820 -0.003952
v 0.017375 0.008895 -0.003952
v 0.017321 0.008819 -0.003952
v 0.017323 0.008814 -0.003952
v 0.017322 0.008816 -0.003952
v 0.017375 0.008895 -0.003952
v 0.017375 0.008895 -0.003952
v 0.017321 0.008817 -0.003952
v 0.017323 0.008813 -0.003952
v 0.017375 0.008895 -0.003952
v 0.017324 0.008811 -0.003952
v 0.017375 0.008895 -0.003952
v 0.017324 0.008809 -0.003952
v 0.017375 0.008895 -0.003952
v 0.017325 0.008808 -0.003952
v 0.017375 0.008895 -0.003952
v 0.017325 0.008806 -0.003952
v 0.017375 0.008895 -0.003952
v 0.017325 0.008805 -0.003952
v 0.017375 0.008895 -0.003952
v 0.017375 0.008895 -0.003952
v 0.017375 0.008895 -0.003952
v 0.017375 0.008710 -0.003952
v 0.017375 0.008710 -0.003952
v 0.017325 0.008800 -0.003952
v 0.017375 0.008710 -0.003952
v 0.017325 0.008798 -0.003952
v 0.017375 0.008710 -0.003952
v 0.017324 0.008797 -0.003952
v 0.017375 0.008710 -0.003952
v 0.017324 0.008795 -0.003952
v 0.017375 0.008710 -0.003952
v 0.017323 0.008793 -0.003952
v 0.017322 0.008790 -0.003952
v 0.017375 0.008710 -0.003952
v 0.017321 0.008789 -0.003952
v 0.017323 0.008792 -0.003952
v 0.017375 0.008710 -0.003952
v 0.017375 0.008710 -0.003952
v 0.017321 0.008787 -0.003952
v 0.017375 0.008710 -0.003952
v 0.017320 0.008786 -0.003952
v 0.017375 0.008710 -0.003952
v 0.017319 0.008785 -0.003952
v 0.017375 0.008710 -0.003952
v 0.017318 0.008784 -0.003952
v 0.017375 0.008710 -0.003952
v 0.017317 0.008782 -0.003952
v 0.017375 0.008710 -0.003952
v 0.017316 0.008781 -0.003952
v 0.017375 0.008710 -0.003952
v 0.017314 0.008780 -0.003952
v 0.017375 0.008710 -0.003952
v 0.017313 0.008779 -0.003952
v 0.017375 0.008710 -0.003952
v 0.017312 0.008778 -0.003952
v 0.017375 0.008710 -0.003952
v 0.017310 0.008777 -0.003952
v 0.017375 0.008710 -0.003952
v 0.017309 0.008776 -0.003952
v 0.017375 0.008710 -0.003952
v 0.017290 0.008710 -0.003952
v 0.017290 0.008710 -0.003952
v 0.017304 0.008775 -0.003952
v 0.017290 0.008710 -0.003952
v 0.017303 0.008774 -0.003952
v 0.017290 0.008710 -0.003952
v 0.017301 0.008774 -0.003952
v 0.017290 0.008710 -0.003952
v 0.017290 0.008710 -0.003952
v 0.017300 0.008773 -0.003952
v 0.017290 0.008710 -0.003952
v 0.017298 0.008773 -0.003952
v 0.017290 0.008710 -0.003952
v 0.017296 0.008773 -0.003952
v 0.017290 0.008710 -0.003952
v 0.017295 0.008773 -0.003952
v 0.017290 0.008710 -0.003952
v 0.017293 0.008773 -0.003952
v 0.017375 0.008895 -0.003952
v 0.017290 0.008710 -0.003952
v 0.017292 0.008773 -0.003952
v 0.017375 0.008710 -0.003952
v 0.017290 0.008710 -0.003952
v 0.017290 0.008773 -0.003952
v 0.017292 0.008833 -0.003952
v 0.017293 0.008833 -0.003952
v 0.017292 0.008833 -0.003915
v 0.017293 0.008833 -0.003952
v 0.017295 0.008833 -0.003952
v 0.017293 0.008833 -0.003915
v 0.017295 0.008833 -0.003952
v 0.017295 0.008833 -0.003915
v 0.017296 0.008833 -0.003952
v 0.017296 0.008833 -0.003915
v 0.017298 0.008833 -0.003952
v 0.017298 0.008833 -0.003915
v 0.017300 0.008833 -0.003952
v 0.017300 0.008833 -0.003915
v 0.017301 0.008832 -0.003952
v 0.017300 0.008833 -0.003952
v 0.017303 0.008832 -0.003952
v 0.017301 0.008832 -0.003915
v 0.017301 0.008832 -0.003952
v 0.017303 0.008832 -0.003915
v 0.017303 0.008832 -0.003952
v 0.017304 0.008831 -0.003915
v 0.017304 0.008831 -0.003952
v 0.017304 0.008831 -0.003952
v 0.017306 0.008831 -0.003952
v 0.017306 0.008831 -0.003915
v 0.017306 0.008831 -0.003952
v 0.017308 0.008830 -0.003952
v 0.017308 0.008830 -0.003915
v 0.017308 0.008830 -0.003952
v 0.017309 0.008830 -0.003952
v 0.017309 0.008830 -0.003952
v 0.017309 0.008830 -0.003915
v 0.017310 0.008829 -0.003952
v 0.017310 0.008829 -0.003915
v 0.017310 0.008829 -0.003952
v 0.017312 0.008828 -0.003952
v 0.017312 0.008828 -0.003952
v 0.017313 0.008827 -0.003952
v 0.017312 0.008828 -0.003915
v 0.017313 0.008827 -0.003952
v 0.017313 0.008827 -0.003915
v 0.017314 0.008826 -0.003952
v 0.017314 0.008826 -0.003915
v 0.017316 0.008825 -0.003952
v 0.017314 0.008826 -0.003952
v 0.017317 0.008824 -0.003952
v 0.017316 0.008825 -0.003915
v 0.017316 0.008825 -0.003952
v 0.017317 0.008824 -0.003915
v 0.017317 0.008824 -0.003952
v 0.017318 0.008822 -0.003915
v 0.017318 0.008822 -0.003952
v 0.017318 0.008822 -0.003952
v 0.017319 0.008821 -0.003952
v 0.017319 0.008821 -0.003915
v 0.017319 0.008821 -0.003952
v 0.017320 0.008820 -0.003952
v 0.017320 0.008820 -0.003952
v 0.017320 0.008820 -0.003915
v 0.017321 0.008819 -0.003952
v 0.017321 0.008819 -0.003915
v 0.017321 0.008819 -0.003952
v 0.017321 0.008817 -0.003952
v 0.017321 0.008817 -0.003952
v 0.017322 0.008816 -0.003952
v 0.017321 0.008817 -0.003915
v 0.017322 0.008816 -0.003952
v 0.017322 0.008816 -0.003915
v 0.017323 0.008814 -0.003952
v 0.017323 0.008814 -0.003915
v 0.017323 0.008813 -0.003952
v 0.017323 0.008814 -0.003952
v 0.017324 0.008811 -0.003952
v 0.017323 0.008813 -0.003915
v 0.017323 0.008813 -0.003952
v 0.017324 0.008811 -0.003915
v 0.017324 0.008811 -0.003952
v 0.017324 0.008809 -0.003915
v 0.017324 0.008809 -0.003952
v 0.017324 0.008809 -0.003952
v 0.017325 0.008808 -0.003952
v 0.017325 0.008808 -0.003915
v 0.017325 0.008808 -0.003952
v 0.017325 0.008806 -0.003952
v 0.017325 0.008806 -0.003952
v 0.017325 0.008806 -0.003915
v 0.017325 0.008805 -0.003952
v 0.017325 0.008805 -0.003915
v 0.017325 0.008805 -0.003952
v 0.017325 0.008803 -0.003952
v 0.017325 0.008803 -0.003952
v 0.017325 0.008801 -0.003952
v 0.017325 0.008803 -0.003915
v 0.017325 0.008801 -0.003952
v 0.017325 0.008801 -0.003915
v 0.017325 0.008800 -0.003952
v 0.017325 0.008800 -0.003915
v 0.017325 0.008798 -0.003952
v 0.017325 0.008800 -0.003952
v 0.017324 0.008797 -0.003952
v 0.017325 0.008798 -0.003915
v 0.017325 0.008798 -0.003952
v 0.017324 0.008795 -0.003952
v 0.017324 0.008797 -0.003915
v 0.017324 0.008797 -0.003952
v 0.017324 0.008795 -0.003915
v 0.017324 0.008795 -0.003952
v 0.017323 0.008793 -0.003915
v 0.017323 0.008793 -0.003952
v 0.017323 0.008793 -0.003952
v 0.017323 0.008792 -0.003952
v 0.017323 0.008792 -0.003915
v 0.017323 0.008792 -0.003952
v 0.017322 0.008790 -0.003952
v 0.017322 0.008790 -0.003952
v 0.017322 0.008790 -0.003915
v 0.017321 0.008789 -0.003952
v 0.017321 0.008789 -0.003915
v 0.017321 0.008789 -0.003952
v 0.017321 0.008787 -0.003952
v 0.017321 0.008787 -0.003952
v 0.017320 0.008786 -0.003952
v 0.017321 0.008787 -0.003915
v 0.017320 0.008786 -0.003952
v 0.017320 0.008786 -0.003915
v 0.017319 0.008785 -0.003952
v 0.017319 0.008785 -0.003915
v 0.017318 0.008784 -0.003952
v 0.017319 0.008785 -0.003952
v 0.017317 0.008782 -0.003952
v 0.017318 0.008784 -0.003915
v 0.017318 0.008784 -0.003952
v 0.017317 0.008782 -0.003915
v 0.017317 0.008782 -0.003952
v 0.017316 0.008781 -0.003915
v 0.017316 0.008781 -0.003952
v 0.017316 0.008781 -0.003952
v 0.017314 0.008780 -0.003952
v 0.017314 0.008780 -0.003915
v 0.017314 0.008780 -0.003952
v 0.017313 0.008779 -0.003952
v 0.017313 0.008779 -0.003952
v 0.017313 0.008779 -0.003915
v 0.017292 0.008773 -0.003915
v 0.017293 0.008773 -0.003915
v 0.017292 0.008773 -0.003952
v 0.017290 0.008773 -0.003952
v 0.017290 0.008773 -0.003915
v 0.017290 0.008773 -0.003952
v 0.017292 0.008773 -0.003952
v 0.017293 0.008773 -0.003952
v 0.017292 0.008773 -0.003952
v 0.017295 0.008773 -0.003915
v 0.017293 0.008773 -0.003952
v 0.017295 0.008773 -0.003952
v 0.017293 0.008773 -0.003952
v 0.017295 0.008773 -0.003952
v 0.017296 0.008773 -0.003915
v 0.017295 0.008773 -0.003952
v 0.017296 0.008773 -0.003952
v 0.017298 0.008773 -0.003915
v 0.017296 0.008773 -0.003952
v 0.017298 0.008773 -0.003952
v 0.017296 0.008773 -0.003952
v 0.017300 0.008773 -0.003915
v 0.017298 0.008773 -0.003952
v 0.017300 0.008773 -0.003952
v 0.017298 0.008773 -0.003952
v 0.017300 0.008773 -0.003952
v 0.017301 0.008774 -0.003915
v 0.017300 0.008773 -0.003952
v 0.017301 0.008774 -0.003952
v 0.017303 0.008774 -0.003915
v 0.017301 0.008774 -0.003952
v 0.017303 0.008774 -0.003952
v 0.017301 0.008774 -0.003952
v 0.017304 0.008775 -0.003915
v 0.017303 0.008774 -0.003952
v 0.017304 0.008775 -0.003952
v 0.017303 0.008774 -0.003952
v 0.017304 0.008775 -0.003952
v 0.017306 0.008775 -0.003915
v 0.017304 0.008775 -0.003952
v 0.017306 0.008775 -0.003952
v 0.017308 0.008776 -0.003915
v 0.017306 0.008775 -0.003952
v 0.017308 0.008776 -0.003952
v 0.017306 0.008775 -0.003952
v 0.017309 0.008776 -0.003915
v 0.017308 0.008776 -0.003952
v 0.017309 0.008776 -0.003952
v 0.017308 0.008776 -0.003952
v 0.017309 0.008776 -0.003952
v 0.017310 0.008777 -0.003915
v 0.017309 0.008776 -0.003952
v 0.017310 0.008777 -0.003952
v 0.017312 0.008778 -0.003915
v 0.017310 0.008777 -0.003952
v 0.017312 0.008778 -0.003952
v 0.017310 0.008777 -0.003952
v 0.017312 0.008778 -0.003952
v 0.017313 0.008779 -0.003952
v 0.017312 0.008778 -0.003952
v 0.017314 0.008780 -0.003952
v 0.017317 0.008782 -0.003952
v 0.017316 0.008781 -0.003952
v 0.017318 0.008784 -0.003952
v 0.017319 0.008785 -0.003952
v 0.017320 0.008786 -0.003952
v 0.017321 0.008787 -0.003952
v 0.017322 0.008790 -0.003952
v 0.017321 0.008789 -0.003952
v 0.017323 0.008792 -0.003952
v 0.017324 0.008795 -0.003952
v 0.017323 0.008793 -0.003952
v 0.017324 0.008797 -0.003952
v 0.017325 0.008798 -0.003952
v 0.017325 0.008800 -0.003952
v 0.017325 0.008801 -0.003952
v 0.017325 0.008803 -0.003952
v 0.017325 0.008806 -0.003952
v 0.017325 0.008805 -0.003952
v 0.017325 0.008808 -0.003952
v 0.017324 0.008811 -0.003952
v 0.017324 0.008809 -0.003952
v 0.017323 0.008813 -0.003952
v 0.017323 0.008814 -0.003952
v 0.017322 0.008816 -0.003952
v 0.017321 0.008817 -0.003952
v 0.017320 0.008820 -0.003952
v 0.017321 0.008819 -0.003952
v 0.017319 0.008821 -0.003952
v 0.017317 0.008824 -0.003952
v 0.017318 0.008822 -0.003952
v 0.017316 0.008825 -0.003952
v 0.017314 0.008826 -0.003952
v 0.017313 0.008827 -0.003952
v 0.017312 0.008828 -0.003952
v 0.017309 0.008830 -0.003952
v 0.017310 0.008829 -0.003952
v 0.017308 0.008830 -0.003952
v 0.017306 0.008831 -0.003952
v 0.017303 0.008832 -0.003952
v 0.017304 0.008831 -0.003952
v 0.017298 0.008833 -0.003952
v 0.017300 0.008833 -0.003952
v 0.017295 0.008833 -0.003952
v 0.017296 0.008833 -0.003952
v 0.017290 0.008833 -0.003952
v 0.017292 0.008833 -0.003952
v 0.017290 0.008833 -0.003915
v 0.017290 0.008833 -0.003952
v 0.017301 0.008832 -0.003952
v 0.017296 0.008833 -0.003952
v 0.017298 0.008833 -0.003952
v 0.017293 0.008833 -0.003952
v 0.017293 0.008756 -0.003897
v 0.017295 0.008773 -0.003915
v 0.017293 0.008773 -0.003915
v 0.017293 0.008756 -0.003897
v 0.017293 0.008773 -0.003915
v 0.017290 0.008756 -0.003897
v 0.017297 0.008756 -0.003897
v 0.017296 0.008773 -0.003915
v 0.017295 0.008773 -0.003915
v 0.017298 0.008773 -0.003915
v 0.017296 0.008773 -0.003915
v 0.017300 0.008756 -0.003897
v 0.017300 0.008773 -0.003915
v 0.017300 0.008756 -0.003897
v 0.017304 0.008756 -0.003897
v 0.017301 0.008774 -0.003915
v 0.017304 0.008756 -0.003897
v 0.017307 0.008757 -0.003897
v 0.017303 0.008774 -0.003915
v 0.017307 0.008757 -0.003897
v 0.017310 0.008757 -0.003896
v 0.017304 0.008775 -0.003915
v 0.017310 0.008757 -0.003896
v 0.017306 0.008775 -0.003915
v 0.017310 0.008757 -0.003896
v 0.017313 0.008758 -0.003896
v 0.017306 0.008775 -0.003915
v 0.017313 0.008758 -0.003896
v 0.017317 0.008759 -0.003895
v 0.017308 0.008776 -0.003915
v 0.017317 0.008759 -0.003895
v 0.017309 0.008776 -0.003915
v 0.017308 0.008776 -0.003915
v 0.017320 0.008760 -0.003894
v 0.017310 0.008777 -0.003915
v 0.017309 0.008776 -0.003915
v 0.017323 0.008761 -0.003894
v 0.017312 0.008778 -0.003915
v 0.017310 0.008777 -0.003915
v 0.017326 0.008762 -0.003893
v 0.017312 0.008778 -0.003915
v 0.017323 0.008761 -0.003894
v 0.017314 0.008780 -0.003915
v 0.017313 0.008779 -0.003915
v 0.017326 0.008762 -0.003893
v 0.017314 0.008780 -0.003915
v 0.017326 0.008762 -0.003893
v 0.017329 0.008763 -0.003892
v 0.017314 0.008780 -0.003915
v 0.017329 0.008763 -0.003892
v 0.017316 0.008781 -0.003915
v 0.017329 0.008763 -0.003892
v 0.017332 0.008764 -0.003891
v 0.017316 0.008781 -0.003915
v 0.017317 0.008782 -0.003915
v 0.017335 0.008766 -0.003890
v 0.017318 0.008784 -0.003915
v 0.017332 0.008764 -0.003891
v 0.017317 0.008782 -0.003915
v 0.017316 0.008781 -0.003915
v 0.017335 0.008766 -0.003890
v 0.017338 0.008767 -0.003889
v 0.017318 0.008784 -0.003915
v 0.017338 0.008767 -0.003889
v 0.017340 0.008769 -0.003888
v 0.017319 0.008785 -0.003915
v 0.017340 0.008769 -0.003888
v 0.017341 0.008770 -0.003888
v 0.017320 0.008786 -0.003915
v 0.017342 0.008770 -0.003887
v 0.017320 0.008786 -0.003915
v 0.017320 0.008786 -0.003915
v 0.017343 0.008771 -0.003887
v 0.017343 0.008772 -0.003887
v 0.017321 0.008787 -0.003915
v 0.017343 0.008772 -0.003887
v 0.017345 0.008775 -0.003887
v 0.017321 0.008787 -0.003915
v 0.017345 0.008775 -0.003887
v 0.017321 0.008789 -0.003915
v 0.017321 0.008789 -0.003915
v 0.017347 0.008779 -0.003887
v 0.017322 0.008790 -0.003915
v 0.017347 0.008779 -0.003887
v 0.017349 0.008783 -0.003887
v 0.017323 0.008792 -0.003915
v 0.017349 0.008783 -0.003887
v 0.017350 0.008787 -0.003887
v 0.017323 0.008793 -0.003915
v 0.017350 0.008787 -0.003887
v 0.017324 0.008795 -0.003915
v 0.017323 0.008793 -0.003915
v 0.017351 0.008791 -0.003887
v 0.017324 0.008797 -0.003915
v 0.017324 0.008795 -0.003915
v 0.017352 0.008795 -0.003887
v 0.017325 0.008798 -0.003915
v 0.017351 0.008791 -0.003887
v 0.017325 0.008800 -0.003915
v 0.017325 0.008798 -0.003915
v 0.017352 0.008795 -0.003887
v 0.017325 0.008801 -0.003915
v 0.017325 0.008800 -0.003915
v 0.017352 0.008799 -0.003887
v 0.017325 0.008803 -0.003915
v 0.017325 0.008801 -0.003915
v 0.017352 0.008803 -0.003887
v 0.017325 0.008805 -0.003915
v 0.017325 0.008803 -0.003915
v 0.017352 0.008803 -0.003887
v 0.017325 0.008805 -0.003915
v 0.017352 0.008803 -0.003887
v 0.017352 0.008807 -0.003887
v 0.017325 0.008805 -0.003915
v 0.017352 0.008807 -0.003887
v 0.017325 0.008806 -0.003915
v 0.017325 0.008806 -0.003915
v 0.017352 0.008811 -0.003887
v 0.017325 0.008808 -0.003915
v 0.017352 0.008811 -0.003887
v 0.017351 0.008815 -0.003887
v 0.017325 0.008808 -0.003915
v 0.017351 0.008815 -0.003887
v 0.017324 0.008811 -0.003915
v 0.017324 0.008809 -0.003915
v 0.017350 0.008819 -0.003887
v 0.017323 0.008813 -0.003915
v 0.017324 0.008811 -0.003915
v 0.017349 0.008823 -0.003887
v 0.017323 0.008814 -0.003915
v 0.017323 0.008813 -0.003915
v 0.017347 0.008827 -0.003887
v 0.017322 0.008816 -0.003915
v 0.017323 0.008814 -0.003915
v 0.017321 0.008817 -0.003915
v 0.017322 0.008816 -0.003915
v 0.017347 0.008827 -0.003887
v 0.017321 0.008819 -0.003915
v 0.017321 0.008817 -0.003915
v 0.017345 0.008831 -0.003887
v 0.017320 0.008820 -0.003915
v 0.017321 0.008819 -0.003915
v 0.017343 0.008834 -0.003887
v 0.017342 0.008836 -0.003887
v 0.017320 0.008820 -0.003915
v 0.017343 0.008835 -0.003887
v 0.017335 0.008840 -0.003890
v 0.017318 0.008822 -0.003915
v 0.017338 0.008839 -0.003889
v 0.017319 0.008821 -0.003915
v 0.017340 0.008837 -0.003888
v 0.017338 0.008839 -0.003889
v 0.017317 0.008824 -0.003915
v 0.017318 0.008822 -0.003915
v 0.017335 0.008840 -0.003890
v 0.017316 0.008825 -0.003915
v 0.017317 0.008824 -0.003915
v 0.017332 0.008842 -0.003891
v 0.017314 0.008826 -0.003915
v 0.017316 0.008825 -0.003915
v 0.017329 0.008843 -0.003892
v 0.017313 0.008827 -0.003915
v 0.017314 0.008826 -0.003915
v 0.017326 0.008844 -0.003893
v 0.017341 0.008836 -0.003888
v 0.017340 0.008837 -0.003888
v 0.017320 0.008820 -0.003915
v 0.017290 0.008850 -0.003897
v 0.017290 0.008833 -0.003915
v 0.017292 0.008833 -0.003915
v 0.017290 0.008850 -0.003897
v 0.017292 0.008833 -0.003915
v 0.017293 0.008833 -0.003915
v 0.017290 0.008850 -0.003897
v 0.017293 0.008833 -0.003915
v 0.017293 0.008850 -0.003897
v 0.017293 0.008833 -0.003915
v 0.017295 0.008833 -0.003915
v 0.017293 0.008850 -0.003897
v 0.017295 0.008833 -0.003915
v 0.017297 0.008850 -0.003897
v 0.017293 0.008850 -0.003897
v 0.017296 0.008833 -0.003915
v 0.017297 0.008850 -0.003897
v 0.017295 0.008833 -0.003915
v 0.017300 0.008850 -0.003897
v 0.017297 0.008850 -0.003897
v 0.017296 0.008833 -0.003915
v 0.017300 0.008850 -0.003897
v 0.017296 0.008833 -0.003915
v 0.017298 0.008833 -0.003915
v 0.017300 0.008850 -0.003897
v 0.017298 0.008833 -0.003915
v 0.017300 0.008833 -0.003915
v 0.017300 0.008850 -0.003897
v 0.017300 0.008833 -0.003915
v 0.017303 0.008850 -0.003897
v 0.017300 0.008833 -0.003915
v 0.017301 0.008832 -0.003915
v 0.017303 0.008850 -0.003897
v 0.017301 0.008832 -0.003915
v 0.017307 0.008849 -0.003897
v 0.017303 0.008850 -0.003897
v 0.017303 0.008832 -0.003915
v 0.017307 0.008849 -0.003897
v 0.017301 0.008832 -0.003915
v 0.017310 0.008849 -0.003896
v 0.017307 0.008849 -0.003897
v 0.017303 0.008832 -0.003915
v 0.017310 0.008849 -0.003896
v 0.017303 0.008832 -0.003915
v 0.017304 0.008831 -0.003915
v 0.017310 0.008849 -0.003896
v 0.017304 0.008831 -0.003915
v 0.017306 0.008831 -0.003915
v 0.017310 0.008849 -0.003896
v 0.017306 0.008831 -0.003915
v 0.017313 0.008848 -0.003896
v 0.017306 0.008831 -0.003915
v 0.017308 0.008830 -0.003915
v 0.017313 0.008848 -0.003896
v 0.017308 0.008830 -0.003915
v 0.017317 0.008847 -0.003895
v 0.017313 0.008848 -0.003896
v 0.017309 0.008830 -0.003915
v 0.017317 0.008847 -0.003895
v 0.017308 0.008830 -0.003915
v 0.017320 0.008846 -0.003894
v 0.017317 0.008847 -0.003895
v 0.017309 0.008830 -0.003915
v 0.017320 0.008846 -0.003894
v 0.017309 0.008830 -0.003915
v 0.017310 0.008829 -0.003915
v 0.017320 0.008846 -0.003894
v 0.017310 0.008829 -0.003915
v 0.017323 0.008845 -0.003894
v 0.017310 0.008829 -0.003915
v 0.017312 0.008828 -0.003915
v 0.017323 0.008845 -0.003894
v 0.017312 0.008828 -0.003915
v 0.017326 0.008844 -0.003893
v 0.017323 0.008845 -0.003894
v 0.017313 0.008827 -0.003915
v 0.017326 0.008844 -0.003893
v 0.017312 0.008828 -0.003915
v 0.017314 0.008826 -0.003915
v 0.017329 0.008843 -0.003892
v 0.017326 0.008844 -0.003893
v 0.017316 0.008825 -0.003915
v 0.017332 0.008842 -0.003891
v 0.017329 0.008843 -0.003892
v 0.017317 0.008824 -0.003915
v 0.017335 0.008840 -0.003890
v 0.017332 0.008842 -0.003891
v 0.017318 0.008822 -0.003915
v 0.017319 0.008821 -0.003915
v 0.017338 0.008839 -0.003889
v 0.017319 0.008821 -0.003915
v 0.017320 0.008820 -0.003915
v 0.017340 0.008837 -0.003888
v 0.017320 0.008820 -0.003915
v 0.017343 0.008834 -0.003887
v 0.017320 0.008820 -0.003915
v 0.017345 0.008831 -0.003887
v 0.017343 0.008834 -0.003887
v 0.017321 0.008819 -0.003915
v 0.017347 0.008827 -0.003887
v 0.017345 0.008831 -0.003887
v 0.017321 0.008817 -0.003915
v 0.017323 0.008814 -0.003915
v 0.017349 0.008823 -0.003887
v 0.017347 0.008827 -0.003887
v 0.017323 0.008813 -0.003915
v 0.017350 0.008819 -0.003887
v 0.017349 0.008823 -0.003887
v 0.017324 0.008811 -0.003915
v 0.017351 0.008815 -0.003887
v 0.017350 0.008819 -0.003887
v 0.017324 0.008809 -0.003915
v 0.017325 0.008808 -0.003915
v 0.017351 0.008815 -0.003887
v 0.017352 0.008811 -0.003887
v 0.017325 0.008806 -0.003915
v 0.017352 0.008807 -0.003887
v 0.017325 0.008801 -0.003915
v 0.017352 0.008799 -0.003887
v 0.017352 0.008803 -0.003887
v 0.017325 0.008800 -0.003915
v 0.017352 0.008795 -0.003887
v 0.017352 0.008799 -0.003887
v 0.017325 0.008798 -0.003915
v 0.017324 0.008797 -0.003915
v 0.017351 0.008791 -0.003887
v 0.017351 0.008791 -0.003887
v 0.017324 0.008795 -0.003915
v 0.017350 0.008787 -0.003887
v 0.017349 0.008783 -0.003887
v 0.017323 0.008793 -0.003915
v 0.017323 0.008792 -0.003915
v 0.017347 0.008779 -0.003887
v 0.017323 0.008792 -0.003915
v 0.017322 0.008790 -0.003915
v 0.017345 0.008775 -0.003887
v 0.017347 0.008779 -0.003887
v 0.017321 0.008789 -0.003915
v 0.017320 0.008786 -0.003915
v 0.017343 0.008772 -0.003887
v 0.017321 0.008787 -0.003915
v 0.017320 0.008786 -0.003915
v 0.017340 0.008769 -0.003888
v 0.017320 0.008786 -0.003915
v 0.017319 0.008785 -0.003915
v 0.017338 0.008767 -0.003889
v 0.017319 0.008785 -0.003915
v 0.017318 0.008784 -0.003915
v 0.017332 0.008764 -0.003891
v 0.017335 0.008766 -0.003890
v 0.017317 0.008782 -0.003915
v 0.017326 0.008762 -0.003893
v 0.017313 0.008779 -0.003915
v 0.017312 0.008778 -0.003915
v 0.017320 0.008760 -0.003894
v 0.017323 0.008761 -0.003894
v 0.017310 0.008777 -0.003915
v 0.017317 0.008759 -0.003895
v 0.017320 0.008760 -0.003894
v 0.017309 0.008776 -0.003915
v 0.017310 0.008757 -0.003896
v 0.017304 0.008775 -0.003915
v 0.017303 0.008774 -0.003915
v 0.017300 0.008773 -0.003915
v 0.017304 0.008756 -0.003897
v 0.017301 0.008774 -0.003915
v 0.017298 0.008773 -0.003915
v 0.017300 0.008756 -0.003897
v 0.017300 0.008773 -0.003915
v 0.017296 0.008773 -0.003915
v 0.017297 0.008756 -0.003897
v 0.017300 0.008756 -0.003897
v 0.017293 0.008756 -0.003897
v 0.017297 0.008756 -0.003897
v 0.017295 0.008773 -0.003915
v 0.017292 0.008773 -0.003915
v 0.017290 0.008773 -0.003915
v 0.017290 0.008756 -0.003897
v 0.017307 0.008757 -0.003897
v 0.017303 0.008774 -0.003915
v 0.017301 0.008774 -0.003915
v 0.017308 0.008776 -0.003915
v 0.017306 0.008775 -0.003915
v 0.017313 0.008758 -0.003896
v 0.017293 0.008773 -0.003915
v 0.017292 0.008773 -0.003915
v 0.017290 0.008756 -0.003897
v 0.017375 0.008835 -0.003887
v 0.017375 0.008835 -0.003887
v 0.017375 0.008836 -0.003887
v 0.017375 0.008836 -0.003887
v 0.017343 0.008835 -0.003887
v 0.017343 0.008835 -0.003887
v 0.017375 0.008836 -0.003887
v 0.017375 0.008836 -0.003887
v 0.017341 0.008836 -0.003888
v 0.017341 0.008836 -0.003888
v 0.017342 0.008836 -0.003887
v 0.017342 0.008836 -0.003887
v 0.017343 0.008835 -0.003887
v 0.017375 0.008836 -0.003887
v 0.017342 0.008836 -0.003887
v 0.017375 0.008836 -0.003887
v 0.017342 0.008770 -0.003887
v 0.017341 0.008770 -0.003888
v 0.017341 0.008770 -0.003888
v 0.017342 0.008770 -0.003887
v 0.017375 0.008770 -0.003887
v 0.017375 0.008771 -0.003887
v 0.017375 0.008771 -0.003887
v 0.017375 0.008770 -0.003887
v 0.017375 0.008770 -0.003887
v 0.017343 0.008771 -0.003887
v 0.017375 0.008770 -0.003887
v 0.017375 0.008770 -0.003887
v 0.017343 0.008771 -0.003887
v 0.017375 0.008770 -0.003887
v 0.017343 0.008771 -0.003887
v 0.017342 0.008770 -0.003887
vn -1.0000 0.0001 -0.0000
vn -1.0000 -0.0000 -0.0000
vn -1.0000 -0.0001 -0.0000
vn -0.0000 -0.7940 0.6079
vn -0.0001 -0.7940 0.6079
vn -0.0000 -0.7816 0.6238
vn -0.0000 -0.7739 0.6333
vn -0.0000 -0.7688 0.6395
vn -0.0000 -0.7815 0.6239
vn -0.0000 -0.7530 0.6580
vn -0.0000 -0.7558 0.6548
vn -0.0000 -0.7424 0.6700
vn -0.0000 -0.7557 0.6549
vn 0.0001 -0.7424 0.6700
vn -0.0000 -0.7313 0.6820
vn -0.0000 -0.7287 0.6848
vn -0.0000 -0.7147 0.6994
vn -0.0000 -0.7314 0.6820
vn -0.0000 -0.7423 0.6700
vn -0.0000 -0.7313 0.6821
vn -0.0000 -0.7089 0.7053
vn -0.0000 -0.7147 0.6995
vn -0.0000 -0.7004 0.7138
vn -0.0000 -0.6857 0.7279
vn -0.0000 -0.7004 0.7137
vn -0.0000 -0.6859 0.7277
vn -0.0000 -0.6711 0.7414
vn -0.0000 -0.6710 0.7414
vn -0.0000 -0.6618 0.7497
vn -0.0000 -0.6559 0.7548
vn -0.0000 -0.6372 0.7707
vn -0.0000 -0.6124 0.7905
vn -0.0000 -0.6119 0.7910
vn -0.0000 -0.6617 0.7497
vn -0.0000 -0.6371 0.7708
vn -0.0000 -0.6124 0.7906
vn -0.0000 -0.6406 0.7679
vn -0.0000 -0.6371 0.7707
vn -0.0000 -0.6118 0.7910
vn -0.0000 -0.6106 0.7919
vn -0.0000 -0.6107 0.7919
vn -0.0000 -0.6089 0.7932
vn -0.0000 -0.6405 0.7679
vn -0.0001 -0.6249 0.7807
vn -0.0000 -0.6068 0.7948
vn -0.0000 -0.6010 0.7992
vn -0.0000 -0.6041 0.7969
vn -0.0000 -0.5599 0.8286
vn -0.0000 -0.5665 0.8241
vn 0.0002 -0.5764 0.8172
vn 0.0002 -0.5727 0.8198
vn -0.0000 -0.5785 0.8157
vn -0.0002 -0.5928 0.8053
vn -0.0000 -0.5839 0.8118
vn -0.0000 -0.5889 0.8082
vn -0.0000 -0.6091 0.7931
vn -0.0000 -0.5934 0.8049
vn -0.0000 -0.5974 0.8019
vn -0.0000 -0.6090 0.7932
vn -0.0000 -0.0000 1.0000
vn 0.0001 -0.0000 1.0000
vn -0.0000 0.6372 0.7707
vn -0.0000 0.6124 0.7905
vn -0.0000 0.6124 0.7906
vn -0.0000 0.6118 0.7910
vn -0.0000 0.6107 0.7919
vn -0.0000 0.6090 0.7932
vn -0.0000 0.6859 0.7277
vn 0.0001 0.7004 0.7138
vn -0.0000 0.6857 0.7279
vn -0.0000 0.7286 0.6849
vn -0.0003 0.7313 0.6820
vn -0.0000 0.7147 0.6994
vn 0.0001 0.7424 0.6700
vn 0.0002 0.7530 0.6580
vn -0.0000 0.6119 0.7909
vn -0.0000 0.7940 0.6079
vn 0.0001 0.7816 0.6238
vn -0.0003 0.7739 0.6333
vn -0.0000 0.7687 0.6396
vn -0.0000 0.7558 0.6548
vn 0.0002 0.7089 0.7053
vn 0.0001 0.6711 0.7414
vn -0.0003 0.6617 0.7497
vn -0.0000 0.6559 0.7549
vn -0.0000 0.6068 0.7948
vn -0.0001 0.6405 0.7679
vn -0.0000 0.6042 0.7969
vn -0.0000 0.6249 0.7807
vn -0.0000 0.6010 0.7992
vn -0.0000 0.5974 0.8019
vn -0.0000 0.6091 0.7931
vn -0.0000 0.5888 0.8083
vn -0.0000 0.5839 0.8118
vn -0.0001 0.5928 0.8053
vn -0.0000 0.5599 0.8286
vn 0.0002 0.5764 0.8172
vn -0.0000 0.5598 0.8286
vn -0.0000 0.5665 0.8241
vn -0.0001 0.5726 0.8198
vn -0.0000 0.5785 0.8157
vn -0.0000 0.5933 0.8050
vn 1.0000 -0.0000 -0.0000
vn -0.0000 -0.0000 -1.0000
vn 1.0000 -0.0001 -0.0000
vn -0.0000 -1.0000 -0.0000
vn -0.0000 1.0000 -0.0000
vn 0.0001 -0.0000 -1.0000
vn -0.0001 -0.0000 -1.0000
vn 0.0003 -0.0000 -1.0000
vn 0.1129 -0.9936 -0.0000
vn 0.0588 -0.9983 -0.0000
vn 0.0587 -0.9983 -0.0000
vn 0.0045 -1.0000 -0.0000
vn -0.0498 -0.9988 -0.0000
vn -0.1039 -0.9946 -0.0000
vn -0.1578 -0.9875 -0.0000
vn -0.1040 -0.9946 -0.0000
vn -0.2112 -0.9774 -0.0000
vn -0.2639 -0.9646 -0.0000
vn -0.2111 -0.9775 -0.0000
vn -0.3159 -0.9488 -0.0000
vn -0.2640 -0.9645 -0.0000
vn -0.3160 -0.9488 -0.0000
vn -0.3670 -0.9302 -0.0000
vn -0.4170 -0.9089 -0.0000
vn -0.4657 -0.8850 -0.0000
vn -0.4656 -0.8850 -0.0000
vn -0.4657 -0.8849 -0.0000
vn -0.5130 -0.8584 -0.0000
vn -0.5588 -0.8293 -0.0000
vn -0.5590 -0.8292 -0.0000
vn -0.6031 -0.7976 -0.0000
vn -0.6031 -0.7977 -0.0000
vn -0.5589 -0.8292 -0.0000
vn -0.6455 -0.7637 -0.0000
vn -0.6455 -0.7638 -0.0000
vn -0.6860 -0.7276 -0.0000
vn -0.7245 -0.6893 -0.0000
vn -0.7609 -0.6489 -0.0000
vn -0.7245 -0.6892 -0.0000
vn -0.7949 -0.6067 -0.0000
vn -0.7950 -0.6066 -0.0000
vn -0.8267 -0.5626 -0.0000
vn -0.8560 -0.5170 -0.0000
vn -0.8561 -0.5169 -0.0000
vn -0.8828 -0.4697 -0.0000
vn -0.8829 -0.4696 -0.0000
vn -0.9070 -0.4211 -0.0000
vn -0.9286 -0.3712 -0.0000
vn -0.9285 -0.3712 -0.0000
vn -0.9071 -0.4210 -0.0000
vn -0.9474 -0.3202 -0.0000
vn -0.9286 -0.3711 -0.0000
vn -0.9633 -0.2684 -0.0000
vn -0.9473 -0.3202 -0.0000
vn -0.9633 -0.2683 -0.0000
vn -0.9765 -0.2156 -0.0000
vn -0.9634 -0.2682 -0.0000
vn -0.9765 -0.2155 -0.0000
vn -0.9765 -0.2155 0.0003
vn -0.9867 -0.1623 -0.0000
vn -0.9868 -0.1622 -0.0000
vn -0.9941 -0.1085 -0.0000
vn -0.9941 -0.1084 -0.0000
vn -0.9985 -0.0543 -0.0000
vn -0.9985 0.0543 -0.0000
vn -0.9941 0.1084 -0.0000
vn -0.9868 0.1622 -0.0000
vn -0.9941 0.1085 -0.0000
vn -0.9765 0.2155 -0.0000
vn -0.9867 0.1623 -0.0000
vn -0.9634 0.2682 -0.0000
vn -0.9765 0.2156 -0.0000
vn -0.9473 0.3202 -0.0001
vn -0.9633 0.2684 -0.0000
vn -0.9473 0.3202 -0.0000
vn -0.9474 0.3202 -0.0000
vn -0.9286 0.3711 -0.0000
vn -0.9285 0.3712 -0.0000
vn -0.9286 0.3712 -0.0000
vn -0.9071 0.4210 -0.0000
vn -0.9070 0.4210 -0.0000
vn -0.8829 0.4696 -0.0000
vn -0.8828 0.4697 -0.0000
vn -0.8561 0.5169 -0.0000
vn -0.8560 0.5169 -0.0000
vn -0.8267 0.5627 -0.0000
vn -0.8560 0.5170 -0.0000
vn -0.8267 0.5626 -0.0000
vn -0.8267 0.5626 -0.0001
vn -0.7950 0.6066 -0.0000
vn -0.7609 0.6489 -0.0000
vn -0.7949 0.6067 -0.0000
vn -0.7245 0.6893 -0.0000
vn -0.7245 0.6892 -0.0000
vn -0.6860 0.7276 -0.0000
vn -0.6455 0.7638 -0.0000
vn -0.6031 0.7977 -0.0000
vn 0.1129 0.9936 -0.0000
vn 0.0588 0.9983 -0.0000
vn 0.1666 0.9860 -0.0000
vn 0.0045 1.0000 -0.0000
vn 0.0587 0.9983 -0.0000
vn -0.0498 0.9988 -0.0000
vn -0.1039 0.9946 -0.0000
vn -0.1578 0.9875 -0.0000
vn -0.1040 0.9946 -0.0000
vn -0.2112 0.9774 -0.0000
vn -0.2112 0.9774 0.0003
vn -0.2111 0.9775 -0.0000
vn -0.2639 0.9646 -0.0000
vn -0.3159 0.9488 -0.0000
vn -0.2640 0.9645 -0.0000
vn -0.3160 0.9488 -0.0000
vn -0.3670 0.9302 -0.0000
vn -0.3669 0.9303 -0.0000
vn -0.4170 0.9089 -0.0000
vn -0.4169 0.9089 -0.0000
vn -0.4657 0.8850 -0.0000
vn -0.4656 0.8850 -0.0000
vn -0.4658 0.8849 -0.0000
vn -0.5130 0.8584 -0.0000
vn -0.5131 0.8583 -0.0000
vn -0.5588 0.8293 -0.0000
vn -0.6031 0.7976 -0.0000
vn -0.5590 0.8292 -0.0000
vn -0.6031 0.7977 0.0001
vn -0.9070 0.4211 -0.0000
vn -0.8267 -0.5627 -0.0000
vn -0.5131 -0.8583 -0.0000
vn -0.4169 -0.9089 -0.0000
vn -0.3669 -0.9303 -0.0000
vn 0.1666 -0.9860 -0.0000
vn 0.0238 0.7067 0.7071
vn 0.0032 0.7071 0.7071
vn 0.0415 0.7059 0.7071
vn 0.0239 0.7067 0.7071
vn 0.0416 0.7059 0.7071
vn 0.0748 0.7031 0.7071
vn -0.0269 0.7066 0.7071
vn -0.0352 0.7062 0.7071
vn -0.0735 0.7033 0.7071
vn -0.0773 0.7029 0.7071
vn -0.1116 0.6982 0.7071
vn -0.0773 0.7027 0.7073
vn -0.1269 0.6956 0.7071
vn -0.1493 0.6912 0.7071
vn -0.1752 0.6851 0.7071
vn -0.1866 0.6820 0.7071
vn -0.2220 0.6714 0.7071
vn -0.2233 0.6709 0.7071
vn -0.2594 0.6578 0.7071
vn -0.2669 0.6548 0.7071
vn -0.2595 0.6578 0.7071
vn -0.3098 0.6356 0.7071
vn -0.2948 0.6427 0.7071
vn -0.3293 0.6258 0.7071
vn -0.3504 0.6142 0.7071
vn -0.3628 0.6070 0.7071
vn -0.3886 0.5908 0.7071
vn -0.3952 0.5864 0.7071
vn -0.4244 0.5656 0.7071
vn -0.4564 0.5401 0.7071
vn -0.4265 0.5640 0.7071
vn -0.4576 0.5391 0.7071
vn -0.4851 0.5145 0.7071
vn -0.4883 0.5114 0.7071
vn -0.5123 0.4874 0.7071
vn -0.5166 0.4829 0.7071
vn -0.5381 0.4588 0.7071
vn -0.5165 0.4829 0.7071
vn -0.5424 0.4537 0.7071
vn -0.5380 0.4589 0.7071
vn -0.5658 0.4241 0.7071
vn -0.5621 0.4290 0.7071
vn -0.5729 0.4145 0.7071
vn -0.5846 0.3978 0.7071
vn -0.5799 0.4046 0.7071
vn -0.5871 0.3942 0.7071
vn -0.5942 0.3833 0.7071
vn -0.6053 0.3655 0.7071
vn -0.6201 0.3399 0.7071
vn -0.6201 0.3398 0.7071
vn -0.6244 0.3321 0.7070
vn -0.6243 0.3322 0.7071
vn -0.6428 0.2947 0.7071
vn -0.6414 0.2977 0.7071
vn -0.6428 0.2946 0.7071
vn -0.6622 0.2479 0.7071
vn -0.6566 0.2624 0.7071
vn -0.6623 0.2478 0.7071
vn -0.6783 0.1998 0.7071
vn -0.6699 0.2264 0.7071
vn -0.6812 0.1897 0.7071
vn -0.6908 0.1508 0.7071
vn -0.6905 0.1525 0.7071
vn -0.6812 0.1896 0.7071
vn -0.6999 0.1010 0.7071
vn -0.6977 0.1148 0.7071
vn -0.6909 0.1507 0.7071
vn -0.7029 0.0767 0.7071
vn -0.6977 0.1147 0.7071
vn -0.6999 0.1009 0.7071
vn -0.7061 0.0384 0.7071
vn -0.7029 0.0766 0.7071
vn -0.7053 0.0506 0.7071
vn -0.7071 -0.0000 0.7071
vn -0.7061 -0.0384 0.7071
vn -0.7053 -0.0506 0.7071
vn -0.7030 -0.0766 0.7071
vn -0.7029 -0.0766 0.7071
vn -0.6999 -0.1009 0.7071
vn -0.6978 -0.1147 0.7071
vn -0.6999 -0.1010 0.7071
vn -0.6909 -0.1507 0.7071
vn -0.6977 -0.1148 0.7071
vn -0.6908 -0.1508 0.7071
vn -0.6812 -0.1897 0.7071
vn -0.6905 -0.1525 0.7071
vn -0.6783 -0.1998 0.7071
vn -0.6699 -0.2264 0.7071
vn -0.6623 -0.2478 0.7071
vn -0.6566 -0.2624 0.7071
vn -0.6428 -0.2946 0.7071
vn -0.6416 -0.2977 0.7069
vn -0.6243 -0.3322 0.7071
vn -0.6414 -0.2977 0.7071
vn -0.6428 -0.2947 0.7071
vn -0.6054 -0.3655 0.7070
vn -0.6243 -0.3321 0.7071
vn -0.6201 -0.3398 0.7071
vn -0.5846 -0.3978 0.7071
vn -0.6053 -0.3655 0.7071
vn -0.5942 -0.3834 0.7071
vn -0.5799 -0.4046 0.7071
vn -0.5870 -0.3942 0.7071
vn -0.5166 -0.4828 0.7071
vn -0.5380 -0.4588 0.7071
vn -0.5424 -0.4537 0.7071
vn -0.5621 -0.4290 0.7071
vn -0.5658 -0.4241 0.7071
vn -0.5123 -0.4874 0.7071
vn -0.5381 -0.4588 0.7071
vn -0.5166 -0.4829 0.7071
vn -0.4851 -0.5145 0.7071
vn -0.4883 -0.5114 0.7071
vn -0.4564 -0.5401 0.7071
vn -0.4576 -0.5391 0.7071
vn -0.4264 -0.5640 0.7071
vn -0.4242 -0.5657 0.7071
vn -0.5729 -0.4145 0.7071
vn 0.0749 -0.7031 0.7071
vn 0.1179 -0.6972 0.7071
vn 0.0798 -0.7026 0.7071
vn 0.0748 -0.7031 0.7071
vn 0.0799 -0.7027 0.7070
vn 0.0415 -0.7059 0.7071
vn 0.0416 -0.7059 0.7071
vn 0.0242 -0.7069 0.7069
vn 0.0032 -0.7071 0.7071
vn 0.0242 -0.7067 0.7071
vn -0.0265 -0.7066 0.7071
vn -0.0352 -0.7062 0.7071
vn -0.0768 -0.7029 0.7071
vn -0.0735 -0.7033 0.7071
vn -0.1116 -0.6982 0.7071
vn -0.1263 -0.6957 0.7071
vn -0.1493 -0.6912 0.7071
vn -0.1263 -0.6958 0.7071
vn -0.1494 -0.6912 0.7071
vn -0.1746 -0.6852 0.7071
vn -0.1866 -0.6820 0.7071
vn -0.2214 -0.6716 0.7071
vn -0.1867 -0.6820 0.7071
vn -0.2215 -0.6715 0.7071
vn -0.2234 -0.6709 0.7071
vn -0.2214 -0.6715 0.7071
vn -0.2595 -0.6578 0.7071
vn -0.2664 -0.6550 0.7071
vn -0.2948 -0.6427 0.7071
vn -0.2665 -0.6550 0.7071
vn -0.3094 -0.6358 0.7071
vn -0.3293 -0.6258 0.7071
vn -0.3094 -0.6359 0.7071
vn -0.3501 -0.6143 0.7071
vn -0.3293 -0.6257 0.7071
vn -0.3501 -0.6144 0.7071
vn -0.3628 -0.6070 0.7071
vn -0.3884 -0.5909 0.7071
vn -0.3952 -0.5864 0.7071
vn -0.4243 -0.5657 0.7071
vn -0.4264 -0.5641 0.7071
vn -0.5381 -0.4590 0.7069
vn -0.5622 -0.4290 0.7070
vn -0.5942 -0.3833 0.7071
vn -0.5871 -0.3942 0.7071
vn -0.6201 -0.3399 0.7071
vn -0.6622 -0.2479 0.7071
vn -0.6905 -0.1524 0.7071
vn -0.7030 0.0766 0.7071
vn -0.6905 0.1524 0.7071
vn -0.6568 0.2625 0.7069
vn -0.6243 0.3321 0.7071
vn -0.5942 0.3834 0.7071
vn -0.6053 0.3656 0.7071
vn -0.5870 0.3942 0.7071
vn -0.5846 0.3979 0.7071
vn -0.5847 0.3979 0.7070
vn -0.5622 0.4291 0.7070
vn -0.4243 0.5656 0.7071
vn -0.4264 0.5640 0.7071
vn -0.2221 0.6714 0.7071
vn -0.2235 0.6709 0.7071
vn -0.1868 0.6820 0.7071
vn -0.0269 0.7067 0.7070
vn -0.0270 0.7066 0.7071
vn 0.0798 0.7026 0.7071
vn 0.1179 0.6972 0.7071
vn 0.0749 0.7031 0.7071
vn -0.1751 0.6851 0.7071
vn 0.0415 0.7060 0.7070
vn -0.0000 0.1480 0.9890
vn -0.0000 0.2928 0.9562
vn -0.0000 0.2927 0.9562
vn -0.0000 0.1690 0.9856
vn -0.0000 0.4310 0.9024
vn -0.0000 0.4459 0.8951
vn -0.0000 0.3165 0.9486
vn -0.0000 0.3164 0.9486
vn -0.0000 0.4311 0.9023
vn -0.0001 -0.3164 0.9486
vn -0.0001 -0.4459 0.8951
vn -0.0000 -0.4459 0.8951
vn -0.0000 -0.3164 0.9486
vn -0.0000 -0.5599 0.8285
vn -0.0000 -0.4311 0.9023
vn -0.0000 -0.1480 0.9890
vn -0.0001 -0.0000 1.0000
vn -0.0000 -0.2928 0.9562
vn -0.0000 -0.2926 0.9562
vn -0.0000 -0.1688 0.9857
vn -0.0000 -0.1689 0.9856
vn -0.0000 -0.4310 0.9024
vn -0.0000 -0.3163 0.9487
s 1
usemtl Diffuse_51_51_51_100.029
f 1//1 2//2 3//1
f 1//1 3//1 4//2
f 3//1 5//2 4//2
f 5//2 6//2 4//2
f 4//2 7//2 8//2
f 4//2 8//2 9//2
f 8//2 10//2 9//2
f 9//2 10//2 11//3
f 7//2 4//2 6//2
f 9//2 11//3 12//3
f 13//4 14//5 15//6
f 16//7 17//4 15//6
f 18//8 19//7 15//9
f 18//8 20//10 21//7
f 22//10 18//8 23//11
f 24//12 25//10 23//13
f 24//14 26//15 27//10
f 28//16 29//17 30//18
f 24//19 28//16 31//20
f 32//15 29//17 33//21
f 34//21 29//22 35//23
f 36//24 37//21 35//25
f 38//26 39//24 35//25
f 38//26 40//27 41//24
f 42//24 40//28 43//29
f 44//29 40//28 45//30
f 46//31 47//32 48//33
f 49//31 50//34 45//30
f 47//32 51//35 52//36
f 53//37 54//38 45//30
f 55//39 56//31 57//40
f 57//41 58//35 59//42
f 53//43 60//44 61//45
f 60//44 62//46 63//47
f 64//48 65//49 66//50
f 66//50 67//48 64//48
f 68//51 66//50 65//49
f 68//51 69//52 66//50
f 66//50 69//52 70//53
f 70//53 69//52 71//54
f 72//55 70//53 71//54
f 72//55 73//56 70//53
f 72//55 74//57 73//56
f 73//56 74//57 75//58
f 62//46 73//56 75//58
f 62//46 60//44 73//56
f 63//47 61//45 60//44
f 61//45 59//59 53//43
f 53//43 59//59 76//31
f 77//31 55//39 52//36
f 78//60 79//60 80//60
f 81//60 82//60 80//60
f 83//60 81//60 80//60
f 84//60 83//60 80//60
f 85//60 84//60 80//60
f 86//60 85//60 80//60
f 87//60 86//60 80//60
f 88//61 87//60 80//60
f 79//60 88//61 80//60
f 89//60 79//60 78//60
f 78//60 90//60 89//60
f 78//60 91//60 90//60
f 78//60 92//60 91//60
f 78//60 93//60 92//60
f 94//60 78//60 95//60
f 94//60 96//60 78//60
f 78//60 96//60 93//60
f 97//62 98//63 99//64
f 100//65 97//62 99//64
f 100//65 101//66 97//62
f 97//62 101//66 102//67
f 103//68 104//69 105//70
f 106//71 107//72 108//73
f 109//74 110//75 107//72
f 111//76 98//63 97//62
f 112//77 113//78 114//77
f 112//77 115//79 113//78
f 113//78 115//79 116//80
f 116//80 115//79 110//75
f 117//81 116//80 110//75
f 109//74 117//81 110//75
f 107//72 118//82 108//73
f 108//73 118//82 104//69
f 104//69 118//82 105//70
f 119//83 105//70 120//84
f 120//84 97//62 121//85
f 102//67 122//86 123//87
f 122//86 124//88 125//89
f 126//90 127//91 128//92
f 129//93 130//94 131//95
f 132//96 133//97 134//98
f 134//98 133//97 135//99
f 135//99 133//97 136//100
f 136//100 133//97 137//101
f 137//101 133//97 131//95
f 130//94 137//101 131//95
f 129//93 131//95 128//92
f 138//102 129//93 128//92
f 126//90 125//89 124//88
f 126//90 128//92 125//89
f 125//89 123//87 122//86
f 123//87 97//62 102//67
f 123//87 121//85 97//62
f 121//85 119//83 120//84
f 105//70 119//83 103//68
f 109//74 107//72 106//71
f 138//102 128//92 127//91
f 139//2 140//2 141//2
f 139//1 142//1 143//1
f 139//2 144//2 145//2
f 139//3 146//3 147//3
f 141//3 148//3 149//3
f 141//2 150//2 151//2
f 141//1 152//1 153//1
f 154//2 155//2 156//2
f 141//1 157//1 158//1
f 155//2 141//2 159//2
f 160//103 161//103 162//103
f 163//103 164//103 165//103
s 0
f 166//103 167//103 168//103
f 167//103 169//103 170//103
f 169//104 171//103 172//103
s 1
f 173//103 174//103 175//103
f 176//103 177//103 178//103
f 179//103 180//103 181//103
f 182//103 183//103 184//103
f 185//103 186//103 187//103
f 188//103 189//103 190//103
f 191//103 192//103 193//103
f 194//103 195//103 196//103
f 197//103 198//103 199//103
f 200//103 201//103 202//103
f 203//103 204//103 205//103
f 206//103 207//103 208//103
f 209//103 210//103 211//103
f 212//103 213//103 214//103
f 215//103 216//103 217//103
f 218//103 219//103 220//103
f 216//103 221//103 222//103
f 223//103 224//103 216//103
f 225//103 226//103 227//103
f 228//103 229//103 227//103
f 230//103 231//103 227//103
f 232//103 233//103 227//103
f 234//105 235//103 227//105
f 236//103 237//103 227//103
f 238//103 239//103 227//103
f 227//103 240//103 216//103
f 241//103 242//103 216//103
f 243//103 244//103 216//103
f 245//103 246//103 216//103
f 247//103 227//103 248//103
f 249//103 250//103 251//103
f 252//103 253//103 216//103
f 254//103 255//103 256//103
s 0
f 257//103 258//103 259//104
s 1
f 260//103 261//103 259//103
s 0
f 262//103 263//103 257//103
s 1
f 264//103 265//103 266//103
f 267//106 268//106 269//106
f 270//106 271//106 272//106
f 273//107 274//107 275//107
f 276//107 277//107 278//107
f 279//108 280//108 281//108
f 282//104 283//104 284//104
f 285//104 286//104 287//104
f 288//104 289//104 285//104
f 290//104 291//104 289//104
f 292//104 293//104 291//104
f 294//104 295//104 293//104
f 296//104 297//104 295//104
f 298//108 299//108 297//108
f 300//104 301//104 299//104
f 302//108 303//108 301//108
f 304//104 305//104 303//104
f 306//104 307//104 305//104
f 308//104 309//104 307//104
f 310//104 311//104 309//104
f 309//104 312//104 313//104
f 313//104 314//104 315//104
f 315//104 316//104 317//104
f 317//104 318//104 319//104
f 319//104 320//104 321//104
f 321//104 322//104 323//104
f 323//104 324//104 325//104
f 325//104 326//104 327//104
f 327//104 328//104 329//104
f 329//109 330//109 331//109
f 332//104 333//104 334//104
f 335//104 333//104 336//104
f 337//104 332//104 338//104
f 339//104 337//104 340//104
f 341//104 339//104 342//104
f 343//104 341//104 344//104
f 345//104 343//104 346//104
f 347//104 345//104 348//104
f 284//109 347//109 349//109
f 350//104 351//104 284//104
f 352//104 353//104 283//104
f 354//104 355//104 353//104
f 356//104 357//104 355//104
f 358//108 359//108 357//108
f 360//109 361//109 359//109
f 362//104 363//104 364//104
f 362//104 365//104 366//104
f 364//104 367//104 368//104
f 368//104 369//104 370//104
f 370//104 371//104 372//104
f 372//104 373//104 374//104
f 374//110 375//110 376//110
f 376//104 377//104 378//104
f 378//104 379//104 380//104
f 380//104 381//104 382//104
f 382//104 383//104 384//104
f 384//104 385//104 386//104
f 386//104 387//104 388//104
f 388//104 389//104 390//104
f 391//104 281//104 388//104
f 392//104 280//104 393//104
f 394//104 392//104 395//104
f 396//104 394//104 397//104
f 398//108 399//108 396//108
f 400//104 401//104 399//104
f 402//104 403//104 401//104
f 404//104 405//104 403//104
f 406//104 407//104 405//104
f 331//104 408//104 336//104
f 409//104 410//104 407//104
f 411//108 365//108 361//108
f 410//104 412//104 413//104
f 414//111 415//112 416//111
f 417//113 418//114 419//113
f 420//114 421//114 419//113
f 422//115 423//115 421//114
f 424//116 425//116 423//115
f 426//117 427//117 425//118
f 428//119 427//117 429//117
f 430//120 431//121 432//121
f 433//120 431//121 434//120
f 435//122 433//123 436//122
f 435//124 437//124 438//125
f 439//125 440//125 441//126
f 442//126 443//126 444//127
f 442//126 445//128 446//128
f 446//129 447//130 448//130
f 449//130 450//131 448//130
f 451//132 452//133 453//132
f 454//134 455//134 453//135
f 456//136 457//137 455//133
f 458//138 457//137 459//137
f 460//139 461//138 462//138
f 463//139 461//138 464//139
f 465//140 463//141 466//140
f 465//140 467//140 468//142
f 469//143 470//143 471//144
f 469//143 472//144 473//144
f 473//144 474//145 475//145
f 476//146 477//147 475//146
f 478//148 479//149 480//148
f 481//149 482//149 480//148
f 483//150 484//151 482//152
f 485//153 484//154 486//154
f 487//155 488//156 489//156
f 490//157 488//156 491//155
f 492//158 490//159 493//158
f 492//160 494//161 495//162
f 496//163 497//163 498//164
f 496//163 499//164 500//164
f 500//165 501//166 502//166
f 503//166 504//2 502//166
f 505//2 506//167 507//2
f 508//167 509//167 507//2
f 510//168 511//168 509//167
f 512//169 511//170 513//170
f 514//171 515//172 516//172
f 517//173 518//174 519//174
f 520//173 518//174 521//173
f 522//175 520//176 523//177
f 522//178 524//178 525//179
f 526//180 527//181 528//182
f 526//180 529//182 530//182
f 530//183 531//184 532//184
f 533//185 534//186 532//185
f 535//187 536//188 537//189
f 538//190 539//191 537//189
f 540//192 541//192 539//190
f 542//193 541//194 543//194
f 544//195 545//193 546//193
f 547//195 545//193 548//196
f 549//197 547//195 550//197
f 549//197 551//197 552//198
f 553//198 554//198 555//199
f 553//198 556//199 557//199
f 558//200 559//201 560//200
f 561//202 562//202 558//200
f 563//202 558//200 564//200
f 559//201 565//201 566//200
f 567//203 568//204 559//204
f 569//203 570//204 567//203
f 571//203 567//203 572//205
f 573//203 572//205 574//205
f 572//205 575//206 576//205
f 575//206 577//206 578//205
f 579//207 580//208 575//208
f 581//207 582//208 579//207
f 583//207 579//207 584//209
f 585//207 584//209 586//210
f 584//211 587//212 588//211
f 587//212 589//212 590//211
f 591//213 592//214 587//214
f 593//213 594//214 591//213
f 595//215 591//215 596//216
f 597//215 596//217 598//217
f 596//216 599//218 600//216
f 599//219 601//219 602//216
f 603//220 604//218 599//218
f 605//221 606//218 603//221
f 607//222 603//222 608//223
f 609//222 608//223 610//223
f 608//224 611//225 612//224
f 611//225 613//225 614//223
f 557//226 615//227 611//227
f 616//228 617//227 557//226
f 549//197 618//198 553//198
f 547//195 619//195 620//197
f 545//193 541//194 621//193
f 622//192 539//190 623//190
f 624//186 537//186 532//185
f 625//229 626//184 530//229
f 522//178 627//179 526//179
f 520//176 628//176 629//177
f 518//171 515//172 630//171
f 515//169 511//170 631//169
f 632//168 509//167 633//167
f 634//2 507//2 502//166
f 635//165 636//166 500//165
f 492//160 637//162 496//162
f 490//159 638//159 639//158
f 488//153 484//154 640//153
f 641//151 482//152 642//152
f 643//147 480//147 475//146
f 644//230 645//145 473//230
f 465//140 646//142 469//142
f 463//141 647//139 648//140
f 461//138 457//137 649//138
f 650//137 455//134 651//133
f 652//131 453//131 448//231
f 653//129 654//130 446//129
f 439//125 655//232 442//232
f 435//124 656//233 439//233
f 433//123 657//123 658//122
f 659//118 660//117 425//118
f 421//114 661//114 662//115
f 416//111 663//234 664//111
f 416//111 665//234 666//234
f 667//119 431//119 427//117
f 423//115 668//115 669//116
f 419//112 416//111 670//112
f 671//235 672//236 673//237
f 674//238 675//239 676//240
f 677//241 678//242 679//236
f 680//243 681//242 682//244
f 683//245 684//246 685//247
f 686//248 687//247 688//249
f 689//250 690//249 691//251
f 692//252 693//251 694//253
f 695//251 696//254 697//255
f 698//254 699//256 700//257
f 701//256 702//258 703//257
f 704//259 705//260 706//258
f 707//261 708//262 709//260
f 710//263 711//262 712//261
f 713//264 714//265 715//263
f 716//264 717//263 718//266
f 719//264 720//266 721//267
f 722//266 723//268 724//267
f 725//269 726//270 727//271
f 728//268 729//269 730//267
f 731//272 732//273 733//274
f 734//273 735//275 736//276
f 737//275 738//277 739//278
f 738//277 740//279 741//278
f 742//278 743//280 744//281
f 745//282 746//281 747//283
f 748//282 749//284 750//285
f 751//286 752//287 753//288
f 754//289 755//290 756//291
f 757//292 758//293 759//294
f 760//293 761//295 762//294
f 763//296 764//297 765//298
f 766//299 767//300 768//301
f 769//302 770//303 771//304
f 772//305 773//306 774//307
f 775//308 776//305 777//308
f 778//309 779//308 780//308
f 781//309 782//308 783//310
f 784//309 785//310 786//311
f 787//312 788//313 789//314
f 790//315 791//316 792//317
f 793//318 794//319 795//320
f 796//321 797//322 798//319
f 799//323 800//324 801//322
f 802//325 803//326 804//324
f 805//327 806//328 807//329
f 808//330 809//331 810//332
f 811//333 812//334 813//335
f 814//336 815//333 816//337
f 817//338 818//339 819//340
f 820//341 821//342 822//340
f 823//343 824//344 825//345
f 826//346 827//343 828//347
f 829//348 830//346 831//349
f 832//350 833//348 834//351
f 835//352 836//342 837//333
f 838//353 839//354 840//355
f 841//356 842//357 843//358
f 844//356 845//359 846//360
f 847//358 848//361 849//362
f 850//361 851//363 852//362
f 853//364 854//363 855//361
f 856//365 857//363 858//364
f 859//365 860//364 861//366
f 862//365 863//366 864//367
f 865//365 866//367 867//368
f 868//367 869//369 870//370
f 871//371 872//372 873//368
f 874//373 875//372 876//369
f 877//374 878//372 879//375
f 880//376 881//373 882//377
f 883//378 884//377 885//379
f 886//378 887//379 888//380
f 889//379 890//381 891//382
f 892//381 893//383 894//382
f 895//384 896//385 897//381
f 898//386 899//383 900//387
f 901//388 902//384 903//389
f 904//386 905//389 906//390
f 907//389 908//391 909//390
f 910//391 911//392 912//390
f 913//393 914//351 915//391
f 916//348 917//349 918//351
f 919//346 920//347 921//349
f 922//343 923//345 924//347
f 925//394 926//341 927//340
f 928//395 929//333 930//342
f 931//333 814//336 835//352
f 932//396 816//397 933//333
f 934//398 935//396 936//334
f 937//325 938//332 939//331
f 940//324 941//399 942//325
f 943//322 944//321 945//323
f 946//319 947//318 948//321
f 949//400 950//317 951//318
f 952//313 953//311 954//310
f 955//305 956//307 957//308
f 958//401 959//304 960//307
f 961//300 962//402 963//296
f 964//296 965//295 966//293
f 967//292 968//294 969//291
f 970//289 971//403 972//288
f 973//284 974//289 975//404
f 976//278 977//405 978//406
f 740//279 743//407 979//408
f 980//275 981//409 982//276
f 983//273 984//410 985//274
f 986//268 987//272 988//269
f 989//411 990//412 991//262
f 992//259 993//261 994//260
f 995//256 996//259 997//258
f 998//413 999//414 1000//415
f 1001//245 1002//247 1003//248
f 1004//243 1005//244 1006//245
f 1007//242 1008//416 1009//244
f 1010//238 1011//417 1012//236
f 1013//418 1014//419 1015//420
f 1016//421 1017//250 1018//248
f 1019//257 1020//255 1021//254
f 1022//422 1023//418 1024//240
f 95//60 78//60 1025//423
f 1026//423 1027//424 95//60
f 95//60 1028//425 1029//426
s 0
f 1030//426 1031//60 1032//427
s 1
f 1033//428 132//96 134//98
f 1034//428 1035//429 132//96
f 1036//430 1037//426 1038//427
f 1039//429 1040//431 132//96
f 67//48 1041//432 1042//433
f 64//48 67//48 1043//434
f 1044//435 67//436 1045//437
f 80//60 82//60 1046//438
f 1047//438 82//439 1048//440
f 1049//441 82//60 1050//442
s 0
f 1051//60 1052//440 1053//443
s 1
f 1054//444 1055//443 1056//445
