# Blender 4.4.3
# www.blender.org
mtllib Mesh_20.001.mtl
o Mesh_20.001
v -0.000150 0.008710 -0.008752
v -0.000150 0.008710 -0.008743
v -0.000150 0.008716 -0.008737
v -0.000150 0.008773 -0.008752
v -0.000150 0.008721 -0.008730
v -0.000150 0.008726 -0.008724
v -0.000150 0.008732 -0.008719
v -0.000150 0.008738 -0.008713
v -0.000150 0.008773 -0.008714
v -0.000150 0.008744 -0.008708
v -0.000150 0.008750 -0.008702
v -0.000150 0.008756 -0.008697
v -0.000150 0.008710 -0.008743
v -0.000065 0.008710 -0.008743
v -0.000065 0.008714 -0.008739
v -0.000150 0.008716 -0.008737
v -0.000150 0.008710 -0.008743
v -0.000065 0.008717 -0.008735
v -0.000150 0.008716 -0.008737
v -0.000150 0.008721 -0.008730
v -0.000150 0.008716 -0.008737
v -0.000150 0.008721 -0.008730
v -0.000065 0.008720 -0.008731
v -0.000065 0.008723 -0.008727
v -0.000150 0.008721 -0.008730
v -0.000150 0.008726 -0.008724
v -0.000150 0.008721 -0.008730
v -0.000065 0.008727 -0.008724
v -0.000065 0.008730 -0.008720
v -0.000150 0.008726 -0.008724
v -0.000150 0.008726 -0.008724
v -0.000150 0.008726 -0.008724
v -0.000150 0.008732 -0.008719
v -0.000150 0.008732 -0.008719
v -0.000065 0.008734 -0.008717
v -0.000150 0.008738 -0.008713
v -0.000150 0.008732 -0.008719
v -0.000065 0.008738 -0.008713
v -0.000150 0.008738 -0.008713
v -0.000065 0.008741 -0.008710
v -0.000150 0.008738 -0.008713
v -0.000150 0.008738 -0.008713
v -0.000150 0.008744 -0.008708
v -0.000150 0.008744 -0.008708
v -0.000065 0.008745 -0.008706
v -0.000150 0.008750 -0.008702
v -0.000147 0.008756 -0.008697
v -0.000150 0.008756 -0.008697
v -0.000150 0.008750 -0.008702
v -0.000150 0.008744 -0.008708
v -0.000150 0.008750 -0.008702
v -0.000143 0.008756 -0.008697
v -0.000065 0.008749 -0.008703
v -0.000150 0.008750 -0.008702
v -0.000140 0.008756 -0.008697
v -0.000150 0.008750 -0.008702
v -0.000136 0.008756 -0.008697
v -0.000150 0.008750 -0.008702
v -0.000133 0.008757 -0.008697
v -0.000065 0.008753 -0.008700
v -0.000130 0.008757 -0.008696
v -0.000123 0.008759 -0.008695
v -0.000127 0.008758 -0.008696
v -0.000100 0.008769 -0.008688
v -0.000102 0.008767 -0.008689
v -0.000065 0.008765 -0.008691
v -0.000065 0.008769 -0.008688
v -0.000105 0.008766 -0.008690
v -0.000108 0.008764 -0.008691
v -0.000065 0.008761 -0.008694
v -0.000111 0.008763 -0.008692
v -0.000114 0.008762 -0.008693
v -0.000065 0.008757 -0.008697
v -0.000117 0.008761 -0.008694
v -0.000120 0.008760 -0.008694
v -0.000150 0.008750 -0.008702
v -0.000150 0.008750 -0.008702
v -0.000065 0.008834 -0.008687
v -0.000087 0.008803 -0.008687
v -0.000065 0.008772 -0.008687
v -0.000095 0.008775 -0.008687
v -0.000097 0.008772 -0.008687
v -0.000093 0.008779 -0.008687
v -0.000091 0.008783 -0.008687
v -0.000090 0.008787 -0.008687
v -0.000089 0.008791 -0.008687
v -0.000088 0.008795 -0.008687
v -0.000088 0.008799 -0.008687
v -0.000088 0.008807 -0.008687
v -0.000088 0.008811 -0.008687
v -0.000089 0.008815 -0.008687
v -0.000090 0.008819 -0.008687
v -0.000091 0.008823 -0.008687
v -0.000095 0.008831 -0.008687
v -0.000097 0.008834 -0.008687
v -0.000093 0.008827 -0.008687
v -0.000150 0.008856 -0.008702
v -0.000147 0.008850 -0.008697
v -0.000143 0.008850 -0.008697
v -0.000140 0.008850 -0.008697
v -0.000137 0.008850 -0.008697
v -0.000133 0.008849 -0.008697
v -0.000065 0.008868 -0.008713
v -0.000065 0.008872 -0.008717
v -0.000150 0.008868 -0.008713
v -0.000065 0.008879 -0.008724
v -0.000150 0.008880 -0.008724
v -0.000065 0.008876 -0.008720
v -0.000065 0.008883 -0.008727
v -0.000150 0.008885 -0.008730
v -0.000150 0.008850 -0.008697
v -0.000150 0.008895 -0.008743
v -0.000065 0.008892 -0.008739
v -0.000065 0.008895 -0.008743
v -0.000150 0.008890 -0.008737
v -0.000065 0.008889 -0.008735
v -0.000065 0.008886 -0.008731
v -0.000150 0.008874 -0.008719
v -0.000065 0.008865 -0.008710
v -0.000150 0.008862 -0.008708
v -0.000065 0.008861 -0.008706
v -0.000130 0.008849 -0.008696
v -0.000065 0.008857 -0.008703
v -0.000127 0.008848 -0.008696
v -0.000065 0.008853 -0.008700
v -0.000123 0.008847 -0.008695
v -0.000120 0.008846 -0.008694
v -0.000065 0.008849 -0.008697
v -0.000114 0.008844 -0.008693
v -0.000111 0.008843 -0.008692
v -0.000065 0.008845 -0.008694
v -0.000065 0.008837 -0.008688
v -0.000065 0.008841 -0.008691
v -0.000100 0.008837 -0.008688
v -0.000102 0.008839 -0.008689
v -0.000105 0.008840 -0.008690
v -0.000108 0.008842 -0.008691
v -0.000117 0.008845 -0.008694
v -0.000150 0.008833 -0.008714
v -0.000150 0.008868 -0.008713
v -0.000150 0.008833 -0.008752
v -0.000150 0.008850 -0.008697
v -0.000150 0.008856 -0.008702
v -0.000150 0.008856 -0.008702
v -0.000150 0.008862 -0.008708
v -0.000150 0.008862 -0.008708
v -0.000150 0.008868 -0.008713
v -0.000150 0.008868 -0.008713
v -0.000150 0.008874 -0.008719
v -0.000150 0.008874 -0.008719
v -0.000150 0.008880 -0.008724
v -0.000150 0.008880 -0.008724
v -0.000150 0.008885 -0.008730
v -0.000150 0.008895 -0.008743
v -0.000150 0.008895 -0.008752
v -0.000150 0.008890 -0.008737
v -0.000150 0.008885 -0.008730
v -0.000150 0.008890 -0.008737
v -0.000150 0.008890 -0.008737
v -0.000065 0.008845 -0.008694
v -0.000065 0.008834 -0.008687
v -0.000065 0.008772 -0.008687
v -0.000065 0.008761 -0.008694
v -0.000065 0.008772 -0.008687
v -0.000065 0.008765 -0.008691
v -0.000065 0.008772 -0.008687
v -0.000065 0.008771 -0.008687
v -0.000065 0.008769 -0.008688
v -0.000065 0.008770 -0.008687
v -0.000065 0.008769 -0.008688
v -0.000065 0.008770 -0.008687
v -0.000065 0.008769 -0.008688
v -0.000065 0.008772 -0.008687
v -0.000065 0.008769 -0.008688
v -0.000065 0.008765 -0.008691
v -0.000065 0.008845 -0.008694
v -0.000065 0.008772 -0.008687
v -0.000065 0.008761 -0.008694
v -0.000065 0.008845 -0.008694
v -0.000065 0.008761 -0.008694
v -0.000065 0.008849 -0.008697
v -0.000065 0.008761 -0.008694
v -0.000065 0.008757 -0.008697
v -0.000065 0.008849 -0.008697
v -0.000065 0.008757 -0.008697
v -0.000065 0.008853 -0.008700
v -0.000065 0.008849 -0.008697
v -0.000065 0.008753 -0.008700
v -0.000065 0.008853 -0.008700
v -0.000065 0.008757 -0.008697
v -0.000065 0.008857 -0.008703
v -0.000065 0.008853 -0.008700
v -0.000065 0.008753 -0.008700
v -0.000065 0.008857 -0.008703
v -0.000065 0.008753 -0.008700
v -0.000065 0.008749 -0.008703
v -0.000065 0.008857 -0.008703
v -0.000065 0.008749 -0.008703
v -0.000065 0.008861 -0.008706
v -0.000065 0.008749 -0.008703
v -0.000065 0.008745 -0.008706
v -0.000065 0.008861 -0.008706
v -0.000065 0.008745 -0.008706
v -0.000065 0.008865 -0.008710
v -0.000065 0.008861 -0.008706
v -0.000065 0.008741 -0.008710
v -0.000065 0.008865 -0.008710
v -0.000065 0.008745 -0.008706
v -0.000065 0.008868 -0.008713
v -0.000065 0.008865 -0.008710
v -0.000065 0.008741 -0.008710
v -0.000065 0.008868 -0.008713
v -0.000065 0.008741 -0.008710
v -0.000065 0.008738 -0.008713
v -0.000065 0.008710 -0.008743
v -0.000065 0.008710 -0.008752
v -0.000065 0.008714 -0.008739
v -0.000065 0.008868 -0.008713
v -0.000065 0.008738 -0.008713
v -0.000065 0.008872 -0.008717
v -0.000065 0.008720 -0.008731
v -0.000065 0.008717 -0.008735
v -0.000065 0.008734 -0.008717
v -0.000065 0.008730 -0.008720
v -0.000065 0.008895 -0.008743
v -0.000065 0.008892 -0.008739
v -0.000065 0.008895 -0.008752
v -0.000065 0.008892 -0.008739
v -0.000065 0.008889 -0.008735
v -0.000065 0.008889 -0.008735
v -0.000065 0.008886 -0.008731
v -0.000065 0.008886 -0.008731
v -0.000065 0.008883 -0.008727
v -0.000065 0.008883 -0.008727
v -0.000065 0.008879 -0.008724
v -0.000065 0.008879 -0.008724
v -0.000065 0.008876 -0.008720
v -0.000065 0.008876 -0.008720
v -0.000065 0.008872 -0.008717
v -0.000065 0.008734 -0.008717
v -0.000065 0.008730 -0.008720
v -0.000065 0.008727 -0.008724
v -0.000065 0.008727 -0.008724
v -0.000065 0.008723 -0.008727
v -0.000065 0.008723 -0.008727
v -0.000065 0.008720 -0.008731
v -0.000065 0.008734 -0.008717
v -0.000065 0.008872 -0.008717
v -0.000065 0.008872 -0.008717
v -0.000065 0.008738 -0.008713
v -0.000065 0.008734 -0.008717
v -0.000065 0.008717 -0.008735
v -0.000065 0.008714 -0.008739
v -0.000065 0.008845 -0.008694
v -0.000065 0.008841 -0.008691
v -0.000065 0.008834 -0.008687
v -0.000065 0.008836 -0.008687
v -0.000065 0.008834 -0.008687
v -0.000065 0.008836 -0.008687
v -0.000065 0.008834 -0.008687
v -0.000065 0.008837 -0.008688
v -0.000065 0.008835 -0.008687
v -0.000065 0.008834 -0.008687
v -0.000065 0.008837 -0.008688
v -0.000065 0.008834 -0.008687
v -0.000065 0.008841 -0.008691
v -0.000065 0.008710 -0.008752
v -0.000065 0.008710 -0.008743
v -0.000150 0.008710 -0.008752
v -0.000065 0.008710 -0.008743
v -0.000150 0.008710 -0.008743
v -0.000150 0.008710 -0.008752
v -0.000150 0.008895 -0.008752
v -0.000150 0.008895 -0.008743
v -0.000065 0.008895 -0.008752
v -0.000150 0.008895 -0.008743
v -0.000065 0.008895 -0.008743
v -0.000065 0.008895 -0.008752
v -0.000150 0.008710 -0.008752
v -0.000134 0.008775 -0.008752
v -0.000132 0.008776 -0.008752
v -0.000065 0.008710 -0.008752
v -0.000115 0.008801 -0.008752
v -0.000115 0.008803 -0.008752
v -0.000148 0.008833 -0.008752
v -0.000150 0.008833 -0.008752
v -0.000150 0.008895 -0.008752
v -0.000150 0.008895 -0.008752
v -0.000147 0.008833 -0.008752
v -0.000150 0.008895 -0.008752
v -0.000145 0.008833 -0.008752
v -0.000150 0.008895 -0.008752
v -0.000144 0.008833 -0.008752
v -0.000150 0.008895 -0.008752
v -0.000142 0.008833 -0.008752
v -0.000150 0.008895 -0.008752
v -0.000140 0.008833 -0.008752
v -0.000150 0.008895 -0.008752
v -0.000139 0.008832 -0.008752
v -0.000150 0.008895 -0.008752
v -0.000137 0.008832 -0.008752
v -0.000150 0.008895 -0.008752
v -0.000136 0.008831 -0.008752
v -0.000150 0.008895 -0.008752
v -0.000134 0.008831 -0.008752
v -0.000150 0.008895 -0.008752
v -0.000132 0.008830 -0.008752
v -0.000150 0.008895 -0.008752
v -0.000131 0.008830 -0.008752
v -0.000150 0.008895 -0.008752
v -0.000065 0.008895 -0.008752
v -0.000065 0.008895 -0.008752
v -0.000130 0.008829 -0.008752
v -0.000065 0.008895 -0.008752
v -0.000128 0.008828 -0.008752
v -0.000065 0.008895 -0.008752
v -0.000127 0.008827 -0.008752
v -0.000065 0.008895 -0.008752
v -0.000126 0.008826 -0.008752
v -0.000065 0.008895 -0.008752
v -0.000124 0.008825 -0.008752
v -0.000065 0.008895 -0.008752
v -0.000123 0.008824 -0.008752
v -0.000065 0.008895 -0.008752
v -0.000122 0.008822 -0.008752
v -0.000065 0.008895 -0.008752
v -0.000121 0.008821 -0.008752
v -0.000065 0.008895 -0.008752
v -0.000120 0.008820 -0.008752
v -0.000065 0.008895 -0.008752
v -0.000119 0.008819 -0.008752
v -0.000117 0.008814 -0.008752
v -0.000118 0.008816 -0.008752
v -0.000065 0.008895 -0.008752
v -0.000065 0.008895 -0.008752
v -0.000119 0.008817 -0.008752
v -0.000117 0.008813 -0.008752
v -0.000065 0.008895 -0.008752
v -0.000116 0.008811 -0.008752
v -0.000065 0.008895 -0.008752
v -0.000116 0.008809 -0.008752
v -0.000065 0.008895 -0.008752
v -0.000115 0.008808 -0.008752
v -0.000065 0.008895 -0.008752
v -0.000115 0.008806 -0.008752
v -0.000065 0.008895 -0.008752
v -0.000115 0.008805 -0.008752
v -0.000065 0.008895 -0.008752
v -0.000065 0.008895 -0.008752
v -0.000065 0.008895 -0.008752
v -0.000065 0.008710 -0.008752
v -0.000065 0.008710 -0.008752
v -0.000115 0.008800 -0.008752
v -0.000065 0.008710 -0.008752
v -0.000115 0.008798 -0.008752
v -0.000065 0.008710 -0.008752
v -0.000116 0.008797 -0.008752
v -0.000065 0.008710 -0.008752
v -0.000116 0.008795 -0.008752
v -0.000065 0.008710 -0.008752
v -0.000117 0.008793 -0.008752
v -0.000118 0.008790 -0.008752
v -0.000065 0.008710 -0.008752
v -0.000119 0.008789 -0.008752
v -0.000117 0.008792 -0.008752
v -0.000065 0.008710 -0.008752
v -0.000065 0.008710 -0.008752
v -0.000119 0.008787 -0.008752
v -0.000065 0.008710 -0.008752
v -0.000120 0.008786 -0.008752
v -0.000065 0.008710 -0.008752
v -0.000121 0.008785 -0.008752
v -0.000065 0.008710 -0.008752
v -0.000122 0.008784 -0.008752
v -0.000065 0.008710 -0.008752
v -0.000123 0.008782 -0.008752
v -0.000065 0.008710 -0.008752
v -0.000124 0.008781 -0.008752
v -0.000065 0.008710 -0.008752
v -0.000126 0.008780 -0.008752
v -0.000065 0.008710 -0.008752
v -0.000127 0.008779 -0.008752
v -0.000065 0.008710 -0.008752
v -0.000128 0.008778 -0.008752
v -0.000065 0.008710 -0.008752
v -0.000130 0.008777 -0.008752
v -0.000065 0.008710 -0.008752
v -0.000131 0.008776 -0.008752
v -0.000065 0.008710 -0.008752
v -0.000150 0.008710 -0.008752
v -0.000150 0.008710 -0.008752
v -0.000136 0.008775 -0.008752
v -0.000150 0.008710 -0.008752
v -0.000137 0.008774 -0.008752
v -0.000150 0.008710 -0.008752
v -0.000139 0.008774 -0.008752
v -0.000150 0.008710 -0.008752
v -0.000150 0.008710 -0.008752
v -0.000140 0.008773 -0.008752
v -0.000150 0.008710 -0.008752
v -0.000142 0.008773 -0.008752
v -0.000150 0.008710 -0.008752
v -0.000144 0.008773 -0.008752
v -0.000150 0.008710 -0.008752
v -0.000145 0.008773 -0.008752
v -0.000150 0.008710 -0.008752
v -0.000147 0.008773 -0.008752
v -0.000065 0.008895 -0.008752
v -0.000150 0.008710 -0.008752
v -0.000148 0.008773 -0.008752
v -0.000065 0.008710 -0.008752
v -0.000150 0.008710 -0.008752
v -0.000150 0.008773 -0.008752
v -0.000148 0.008833 -0.008752
v -0.000147 0.008833 -0.008752
v -0.000148 0.008833 -0.008714
v -0.000147 0.008833 -0.008752
v -0.000145 0.008833 -0.008752
v -0.000147 0.008833 -0.008714
v -0.000145 0.008833 -0.008752
v -0.000145 0.008833 -0.008714
v -0.000144 0.008833 -0.008752
v -0.000144 0.008833 -0.008714
v -0.000142 0.008833 -0.008752
v -0.000142 0.008833 -0.008714
v -0.000140 0.008833 -0.008752
v -0.000140 0.008833 -0.008714
v -0.000139 0.008832 -0.008752
v -0.000140 0.008833 -0.008752
v -0.000137 0.008832 -0.008752
v -0.000139 0.008832 -0.008714
v -0.000139 0.008832 -0.008752
v -0.000137 0.008832 -0.008714
v -0.000137 0.008832 -0.008752
v -0.000136 0.008831 -0.008714
v -0.000136 0.008831 -0.008752
v -0.000136 0.008831 -0.008752
v -0.000134 0.008831 -0.008752
v -0.000134 0.008831 -0.008714
v -0.000134 0.008831 -0.008752
v -0.000132 0.008830 -0.008752
v -0.000132 0.008830 -0.008714
v -0.000132 0.008830 -0.008752
v -0.000131 0.008830 -0.008752
v -0.000131 0.008830 -0.008752
v -0.000131 0.008830 -0.008714
v -0.000130 0.008829 -0.008752
v -0.000130 0.008829 -0.008714
v -0.000130 0.008829 -0.008752
v -0.000128 0.008828 -0.008752
v -0.000128 0.008828 -0.008752
v -0.000127 0.008827 -0.008752
v -0.000128 0.008828 -0.008714
v -0.000127 0.008827 -0.008752
v -0.000127 0.008827 -0.008714
v -0.000126 0.008826 -0.008752
v -0.000126 0.008826 -0.008714
v -0.000124 0.008825 -0.008752
v -0.000126 0.008826 -0.008752
v -0.000123 0.008824 -0.008752
v -0.000124 0.008825 -0.008714
v -0.000124 0.008825 -0.008752
v -0.000123 0.008824 -0.008714
v -0.000123 0.008824 -0.008752
v -0.000122 0.008822 -0.008714
v -0.000122 0.008822 -0.008752
v -0.000122 0.008822 -0.008752
v -0.000121 0.008821 -0.008752
v -0.000121 0.008821 -0.008714
v -0.000121 0.008821 -0.008752
v -0.000120 0.008820 -0.008752
v -0.000120 0.008820 -0.008752
v -0.000120 0.008820 -0.008714
v -0.000119 0.008819 -0.008752
v -0.000119 0.008819 -0.008714
v -0.000119 0.008819 -0.008752
v -0.000119 0.008817 -0.008752
v -0.000119 0.008817 -0.008752
v -0.000118 0.008816 -0.008752
v -0.000119 0.008817 -0.008714
v -0.000118 0.008816 -0.008752
v -0.000118 0.008816 -0.008714
v -0.000117 0.008814 -0.008752
v -0.000117 0.008814 -0.008714
v -0.000117 0.008813 -0.008752
v -0.000117 0.008814 -0.008752
v -0.000116 0.008811 -0.008752
v -0.000117 0.008813 -0.008714
v -0.000117 0.008813 -0.008752
v -0.000116 0.008811 -0.008714
v -0.000116 0.008811 -0.008752
v -0.000116 0.008809 -0.008714
v -0.000116 0.008809 -0.008752
v -0.000116 0.008809 -0.008752
v -0.000115 0.008808 -0.008752
v -0.000115 0.008808 -0.008714
v -0.000115 0.008808 -0.008752
v -0.000115 0.008806 -0.008752
v -0.000115 0.008806 -0.008752
v -0.000115 0.008806 -0.008714
v -0.000115 0.008805 -0.008752
v -0.000115 0.008805 -0.008714
v -0.000115 0.008805 -0.008752
v -0.000115 0.008803 -0.008752
v -0.000115 0.008803 -0.008752
v -0.000115 0.008801 -0.008752
v -0.000115 0.008803 -0.008714
v -0.000115 0.008801 -0.008752
v -0.000115 0.008801 -0.008714
v -0.000115 0.008800 -0.008752
v -0.000115 0.008800 -0.008714
v -0.000115 0.008798 -0.008752
v -0.000115 0.008800 -0.008752
v -0.000116 0.008797 -0.008752
v -0.000115 0.008798 -0.008714
v -0.000115 0.008798 -0.008752
v -0.000116 0.008795 -0.008752
v -0.000116 0.008797 -0.008714
v -0.000116 0.008797 -0.008752
v -0.000116 0.008795 -0.008714
v -0.000116 0.008795 -0.008752
v -0.000117 0.008793 -0.008714
v -0.000117 0.008793 -0.008752
v -0.000117 0.008793 -0.008752
v -0.000117 0.008792 -0.008752
v -0.000117 0.008792 -0.008714
v -0.000117 0.008792 -0.008752
v -0.000118 0.008790 -0.008752
v -0.000118 0.008790 -0.008752
v -0.000118 0.008790 -0.008714
v -0.000119 0.008789 -0.008752
v -0.000119 0.008789 -0.008714
v -0.000119 0.008789 -0.008752
v -0.000119 0.008787 -0.008752
v -0.000119 0.008787 -0.008752
v -0.000120 0.008786 -0.008752
v -0.000119 0.008787 -0.008714
v -0.000120 0.008786 -0.008752
v -0.000120 0.008786 -0.008714
v -0.000121 0.008785 -0.008752
v -0.000121 0.008785 -0.008714
v -0.000122 0.008784 -0.008752
v -0.000121 0.008785 -0.008752
v -0.000123 0.008782 -0.008752
v -0.000122 0.008784 -0.008714
v -0.000122 0.008784 -0.008752
v -0.000123 0.008782 -0.008714
v -0.000123 0.008782 -0.008752
v -0.000124 0.008781 -0.008714
v -0.000124 0.008781 -0.008752
v -0.000124 0.008781 -0.008752
v -0.000126 0.008780 -0.008752
v -0.000126 0.008780 -0.008714
v -0.000126 0.008780 -0.008752
v -0.000127 0.008779 -0.008752
v -0.000127 0.008779 -0.008752
v -0.000127 0.008779 -0.008714
v -0.000148 0.008773 -0.008714
v -0.000147 0.008773 -0.008714
v -0.000148 0.008773 -0.008752
v -0.000150 0.008773 -0.008752
v -0.000150 0.008773 -0.008714
v -0.000150 0.008773 -0.008752
v -0.000148 0.008773 -0.008752
v -0.000147 0.008773 -0.008752
v -0.000148 0.008773 -0.008752
v -0.000145 0.008773 -0.008714
v -0.000147 0.008773 -0.008752
v -0.000145 0.008773 -0.008752
v -0.000147 0.008773 -0.008752
v -0.000145 0.008773 -0.008752
v -0.000144 0.008773 -0.008714
v -0.000145 0.008773 -0.008752
v -0.000144 0.008773 -0.008752
v -0.000142 0.008773 -0.008714
v -0.000144 0.008773 -0.008752
v -0.000142 0.008773 -0.008752
v -0.000144 0.008773 -0.008752
v -0.000140 0.008773 -0.008714
v -0.000142 0.008773 -0.008752
v -0.000140 0.008773 -0.008752
v -0.000142 0.008773 -0.008752
v -0.000140 0.008773 -0.008752
v -0.000139 0.008774 -0.008714
v -0.000140 0.008773 -0.008752
v -0.000139 0.008774 -0.008752
v -0.000137 0.008774 -0.008714
v -0.000139 0.008774 -0.008752
v -0.000137 0.008774 -0.008752
v -0.000139 0.008774 -0.008752
v -0.000136 0.008775 -0.008714
v -0.000137 0.008774 -0.008752
v -0.000136 0.008775 -0.008752
v -0.000137 0.008774 -0.008752
v -0.000136 0.008775 -0.008752
v -0.000134 0.008775 -0.008714
v -0.000136 0.008775 -0.008752
v -0.000134 0.008775 -0.008752
v -0.000132 0.008776 -0.008714
v -0.000134 0.008775 -0.008752
v -0.000132 0.008776 -0.008752
v -0.000134 0.008775 -0.008752
v -0.000131 0.008776 -0.008714
v -0.000132 0.008776 -0.008752
v -0.000131 0.008776 -0.008752
v -0.000132 0.008776 -0.008752
v -0.000131 0.008776 -0.008752
v -0.000130 0.008777 -0.008714
v -0.000131 0.008776 -0.008752
v -0.000130 0.008777 -0.008752
v -0.000128 0.008778 -0.008714
v -0.000130 0.008777 -0.008752
v -0.000128 0.008778 -0.008752
v -0.000130 0.008777 -0.008752
v -0.000128 0.008778 -0.008752
v -0.000127 0.008779 -0.008752
v -0.000128 0.008778 -0.008752
v -0.000126 0.008780 -0.008752
v -0.000123 0.008782 -0.008752
v -0.000124 0.008781 -0.008752
v -0.000122 0.008784 -0.008752
v -0.000121 0.008785 -0.008752
v -0.000120 0.008786 -0.008752
v -0.000119 0.008787 -0.008752
v -0.000118 0.008790 -0.008752
v -0.000119 0.008789 -0.008752
v -0.000117 0.008792 -0.008752
v -0.000116 0.008795 -0.008752
v -0.000117 0.008793 -0.008752
v -0.000116 0.008797 -0.008752
v -0.000115 0.008798 -0.008752
v -0.000115 0.008800 -0.008752
v -0.000115 0.008801 -0.008752
v -0.000115 0.008803 -0.008752
v -0.000115 0.008806 -0.008752
v -0.000115 0.008805 -0.008752
v -0.000115 0.008808 -0.008752
v -0.000116 0.008811 -0.008752
v -0.000116 0.008809 -0.008752
v -0.000117 0.008813 -0.008752
v -0.000117 0.008814 -0.008752
v -0.000118 0.008816 -0.008752
v -0.000119 0.008817 -0.008752
v -0.000120 0.008820 -0.008752
v -0.000119 0.008819 -0.008752
v -0.000121 0.008821 -0.008752
v -0.000123 0.008824 -0.008752
v -0.000122 0.008822 -0.008752
v -0.000124 0.008825 -0.008752
v -0.000126 0.008826 -0.008752
v -0.000127 0.008827 -0.008752
v -0.000128 0.008828 -0.008752
v -0.000131 0.008830 -0.008752
v -0.000130 0.008829 -0.008752
v -0.000132 0.008830 -0.008752
v -0.000134 0.008831 -0.008752
v -0.000137 0.008832 -0.008752
v -0.000136 0.008831 -0.008752
v -0.000142 0.008833 -0.008752
v -0.000140 0.008833 -0.008752
v -0.000145 0.008833 -0.008752
v -0.000144 0.008833 -0.008752
v -0.000150 0.008833 -0.008752
v -0.000148 0.008833 -0.008752
v -0.000150 0.008833 -0.008714
v -0.000150 0.008833 -0.008752
v -0.000139 0.008832 -0.008752
v -0.000144 0.008833 -0.008752
v -0.000142 0.008833 -0.008752
v -0.000147 0.008833 -0.008752
v -0.000147 0.008756 -0.008697
v -0.000145 0.008773 -0.008714
v -0.000147 0.008773 -0.008714
v -0.000147 0.008756 -0.008697
v -0.000147 0.008773 -0.008714
v -0.000150 0.008756 -0.008697
v -0.000143 0.008756 -0.008697
v -0.000144 0.008773 -0.008714
v -0.000145 0.008773 -0.008714
v -0.000142 0.008773 -0.008714
v -0.000144 0.008773 -0.008714
v -0.000140 0.008756 -0.008697
v -0.000140 0.008773 -0.008714
v -0.000140 0.008756 -0.008697
v -0.000136 0.008756 -0.008697
v -0.000139 0.008774 -0.008714
v -0.000136 0.008756 -0.008697
v -0.000133 0.008757 -0.008697
v -0.000137 0.008774 -0.008714
v -0.000133 0.008757 -0.008697
v -0.000130 0.008757 -0.008696
v -0.000136 0.008775 -0.008714
v -0.000130 0.008757 -0.008696
v -0.000134 0.008775 -0.008714
v -0.000130 0.008757 -0.008696
v -0.000127 0.008758 -0.008696
v -0.000134 0.008775 -0.008714
v -0.000127 0.008758 -0.008696
v -0.000123 0.008759 -0.008695
v -0.000132 0.008776 -0.008714
v -0.000123 0.008759 -0.008695
v -0.000131 0.008776 -0.008714
v -0.000132 0.008776 -0.008714
v -0.000120 0.008760 -0.008694
v -0.000130 0.008777 -0.008714
v -0.000131 0.008776 -0.008714
v -0.000117 0.008761 -0.008694
v -0.000128 0.008778 -0.008714
v -0.000130 0.008777 -0.008714
v -0.000114 0.008762 -0.008693
v -0.000128 0.008778 -0.008714
v -0.000117 0.008761 -0.008694
v -0.000126 0.008780 -0.008714
v -0.000127 0.008779 -0.008714
v -0.000114 0.008762 -0.008693
v -0.000126 0.008780 -0.008714
v -0.000114 0.008762 -0.008693
v -0.000111 0.008763 -0.008692
v -0.000126 0.008780 -0.008714
v -0.000111 0.008763 -0.008692
v -0.000124 0.008781 -0.008714
v -0.000111 0.008763 -0.008692
v -0.000108 0.008764 -0.008691
v -0.000124 0.008781 -0.008714
v -0.000123 0.008782 -0.008714
v -0.000105 0.008766 -0.008690
v -0.000122 0.008784 -0.008714
v -0.000108 0.008764 -0.008691
v -0.000123 0.008782 -0.008714
v -0.000124 0.008781 -0.008714
v -0.000105 0.008766 -0.008690
v -0.000102 0.008767 -0.008689
v -0.000122 0.008784 -0.008714
v -0.000102 0.008767 -0.008689
v -0.000100 0.008769 -0.008688
v -0.000121 0.008785 -0.008714
v -0.000100 0.008769 -0.008688
v -0.000099 0.008770 -0.008688
v -0.000120 0.008786 -0.008714
v -0.000098 0.008770 -0.008687
v -0.000120 0.008786 -0.008714
v -0.000120 0.008786 -0.008714
v -0.000097 0.008771 -0.008687
v -0.000097 0.008772 -0.008687
v -0.000119 0.008787 -0.008714
v -0.000097 0.008772 -0.008687
v -0.000095 0.008775 -0.008687
v -0.000119 0.008787 -0.008714
v -0.000095 0.008775 -0.008687
v -0.000119 0.008789 -0.008714
v -0.000119 0.008789 -0.008714
v -0.000093 0.008779 -0.008687
v -0.000118 0.008790 -0.008714
v -0.000093 0.008779 -0.008687
v -0.000091 0.008783 -0.008687
v -0.000117 0.008792 -0.008714
v -0.000091 0.008783 -0.008687
v -0.000090 0.008787 -0.008687
v -0.000117 0.008793 -0.008714
v -0.000090 0.008787 -0.008687
v -0.000116 0.008795 -0.008714
v -0.000117 0.008793 -0.008714
v -0.000089 0.008791 -0.008687
v -0.000116 0.008797 -0.008714
v -0.000116 0.008795 -0.008714
v -0.000088 0.008795 -0.008687
v -0.000115 0.008798 -0.008714
v -0.000089 0.008791 -0.008687
v -0.000115 0.008800 -0.008714
v -0.000115 0.008798 -0.008714
v -0.000088 0.008795 -0.008687
v -0.000115 0.008801 -0.008714
v -0.000115 0.008800 -0.008714
v -0.000088 0.008799 -0.008687
v -0.000115 0.008803 -0.008714
v -0.000115 0.008801 -0.008714
v -0.000087 0.008803 -0.008687
v -0.000115 0.008805 -0.008714
v -0.000115 0.008803 -0.008714
v -0.000087 0.008803 -0.008687
v -0.000115 0.008805 -0.008714
v -0.000087 0.008803 -0.008687
v -0.000088 0.008807 -0.008687
v -0.000115 0.008805 -0.008714
v -0.000088 0.008807 -0.008687
v -0.000115 0.008806 -0.008714
v -0.000115 0.008806 -0.008714
v -0.000088 0.008811 -0.008687
v -0.000115 0.008808 -0.008714
v -0.000088 0.008811 -0.008687
v -0.000089 0.008815 -0.008687
v -0.000115 0.008808 -0.008714
v -0.000089 0.008815 -0.008687
v -0.000116 0.008811 -0.008714
v -0.000116 0.008809 -0.008714
v -0.000090 0.008819 -0.008687
v -0.000117 0.008813 -0.008714
v -0.000116 0.008811 -0.008714
v -0.000091 0.008823 -0.008687
v -0.000117 0.008814 -0.008714
v -0.000117 0.008813 -0.008714
v -0.000093 0.008827 -0.008687
v -0.000118 0.008816 -0.008714
v -0.000117 0.008814 -0.008714
v -0.000119 0.008817 -0.008714
v -0.000118 0.008816 -0.008714
v -0.000093 0.008827 -0.008687
v -0.000119 0.008819 -0.008714
v -0.000119 0.008817 -0.008714
v -0.000095 0.008831 -0.008687
v -0.000120 0.008820 -0.008714
v -0.000119 0.008819 -0.008714
v -0.000097 0.008834 -0.008687
v -0.000098 0.008836 -0.008687
v -0.000120 0.008820 -0.008714
v -0.000097 0.008835 -0.008687
v -0.000105 0.008840 -0.008690
v -0.000122 0.008822 -0.008714
v -0.000102 0.008839 -0.008689
v -0.000121 0.008821 -0.008714
v -0.000100 0.008837 -0.008688
v -0.000102 0.008839 -0.008689
v -0.000123 0.008824 -0.008714
v -0.000122 0.008822 -0.008714
v -0.000105 0.008840 -0.008690
v -0.000124 0.008825 -0.008714
v -0.000123 0.008824 -0.008714
v -0.000108 0.008842 -0.008691
v -0.000126 0.008826 -0.008714
v -0.000124 0.008825 -0.008714
v -0.000111 0.008843 -0.008692
v -0.000127 0.008827 -0.008714
v -0.000126 0.008826 -0.008714
v -0.000114 0.008844 -0.008693
v -0.000099 0.008836 -0.008688
v -0.000100 0.008837 -0.008688
v -0.000120 0.008820 -0.008714
v -0.000150 0.008850 -0.008697
v -0.000150 0.008833 -0.008714
v -0.000148 0.008833 -0.008714
v -0.000150 0.008850 -0.008697
v -0.000148 0.008833 -0.008714
v -0.000147 0.008833 -0.008714
v -0.000150 0.008850 -0.008697
v -0.000147 0.008833 -0.008714
v -0.000147 0.008850 -0.008697
v -0.000147 0.008833 -0.008714
v -0.000145 0.008833 -0.008714
v -0.000147 0.008850 -0.008697
v -0.000145 0.008833 -0.008714
v -0.000143 0.008850 -0.008697
v -0.000147 0.008850 -0.008697
v -0.000144 0.008833 -0.008714
v -0.000143 0.008850 -0.008697
v -0.000145 0.008833 -0.008714
v -0.000140 0.008850 -0.008697
v -0.000143 0.008850 -0.008697
v -0.000144 0.008833 -0.008714
v -0.000140 0.008850 -0.008697
v -0.000144 0.008833 -0.008714
v -0.000142 0.008833 -0.008714
v -0.000140 0.008850 -0.008697
v -0.000142 0.008833 -0.008714
v -0.000140 0.008833 -0.008714
v -0.000140 0.008850 -0.008697
v -0.000140 0.008833 -0.008714
v -0.000137 0.008850 -0.008697
v -0.000140 0.008833 -0.008714
v -0.000139 0.008832 -0.008714
v -0.000137 0.008850 -0.008697
v -0.000139 0.008832 -0.008714
v -0.000133 0.008849 -0.008697
v -0.000137 0.008850 -0.008697
v -0.000137 0.008832 -0.008714
v -0.000133 0.008849 -0.008697
v -0.000139 0.008832 -0.008714
v -0.000130 0.008849 -0.008696
v -0.000133 0.008849 -0.008697
v -0.000137 0.008832 -0.008714
v -0.000130 0.008849 -0.008696
v -0.000137 0.008832 -0.008714
v -0.000136 0.008831 -0.008714
v -0.000130 0.008849 -0.008696
v -0.000136 0.008831 -0.008714
v -0.000134 0.008831 -0.008714
v -0.000130 0.008849 -0.008696
v -0.000134 0.008831 -0.008714
v -0.000127 0.008848 -0.008696
v -0.000134 0.008831 -0.008714
v -0.000132 0.008830 -0.008714
v -0.000127 0.008848 -0.008696
v -0.000132 0.008830 -0.008714
v -0.000123 0.008847 -0.008695
v -0.000127 0.008848 -0.008696
v -0.000131 0.008830 -0.008714
v -0.000123 0.008847 -0.008695
v -0.000132 0.008830 -0.008714
v -0.000120 0.008846 -0.008694
v -0.000123 0.008847 -0.008695
v -0.000131 0.008830 -0.008714
v -0.000120 0.008846 -0.008694
v -0.000131 0.008830 -0.008714
v -0.000130 0.008829 -0.008714
v -0.000120 0.008846 -0.008694
v -0.000130 0.008829 -0.008714
v -0.000117 0.008845 -0.008694
v -0.000130 0.008829 -0.008714
v -0.000128 0.008828 -0.008714
v -0.000117 0.008845 -0.008694
v -0.000128 0.008828 -0.008714
v -0.000114 0.008844 -0.008693
v -0.000117 0.008845 -0.008694
v -0.000127 0.008827 -0.008714
v -0.000114 0.008844 -0.008693
v -0.000128 0.008828 -0.008714
v -0.000126 0.008826 -0.008714
v -0.000111 0.008843 -0.008692
v -0.000114 0.008844 -0.008693
v -0.000124 0.008825 -0.008714
v -0.000108 0.008842 -0.008691
v -0.000111 0.008843 -0.008692
v -0.000123 0.008824 -0.008714
v -0.000105 0.008840 -0.008690
v -0.000108 0.008842 -0.008691
v -0.000122 0.008822 -0.008714
v -0.000121 0.008821 -0.008714
v -0.000102 0.008839 -0.008689
v -0.000121 0.008821 -0.008714
v -0.000120 0.008820 -0.008714
v -0.000100 0.008837 -0.008688
v -0.000120 0.008820 -0.008714
v -0.000097 0.008834 -0.008687
v -0.000120 0.008820 -0.008714
v -0.000095 0.008831 -0.008687
v -0.000097 0.008834 -0.008687
v -0.000119 0.008819 -0.008714
v -0.000093 0.008827 -0.008687
v -0.000095 0.008831 -0.008687
v -0.000119 0.008817 -0.008714
v -0.000117 0.008814 -0.008714
v -0.000091 0.008823 -0.008687
v -0.000093 0.008827 -0.008687
v -0.000117 0.008813 -0.008714
v -0.000090 0.008819 -0.008687
v -0.000091 0.008823 -0.008687
v -0.000116 0.008811 -0.008714
v -0.000089 0.008815 -0.008687
v -0.000090 0.008819 -0.008687
v -0.000116 0.008809 -0.008714
v -0.000115 0.008808 -0.008714
v -0.000089 0.008815 -0.008687
v -0.000088 0.008811 -0.008687
v -0.000115 0.008806 -0.008714
v -0.000088 0.008807 -0.008687
v -0.000115 0.008801 -0.008714
v -0.000088 0.008799 -0.008687
v -0.000087 0.008803 -0.008687
v -0.000115 0.008800 -0.008714
v -0.000088 0.008795 -0.008687
v -0.000088 0.008799 -0.008687
v -0.000115 0.008798 -0.008714
v -0.000116 0.008797 -0.008714
v -0.000089 0.008791 -0.008687
v -0.000089 0.008791 -0.008687
v -0.000116 0.008795 -0.008714
v -0.000090 0.008787 -0.008687
v -0.000091 0.008783 -0.008687
v -0.000117 0.008793 -0.008714
v -0.000117 0.008792 -0.008714
v -0.000093 0.008779 -0.008687
v -0.000117 0.008792 -0.008714
v -0.000118 0.008790 -0.008714
v -0.000095 0.008775 -0.008687
v -0.000093 0.008779 -0.008687
v -0.000119 0.008789 -0.008714
v -0.000120 0.008786 -0.008714
v -0.000097 0.008772 -0.008687
v -0.000119 0.008787 -0.008714
v -0.000120 0.008786 -0.008714
v -0.000100 0.008769 -0.008688
v -0.000120 0.008786 -0.008714
v -0.000121 0.008785 -0.008714
v -0.000102 0.008767 -0.008689
v -0.000121 0.008785 -0.008714
v -0.000122 0.008784 -0.008714
v -0.000108 0.008764 -0.008691
v -0.000105 0.008766 -0.008690
v -0.000123 0.008782 -0.008714
v -0.000114 0.008762 -0.008693
v -0.000127 0.008779 -0.008714
v -0.000128 0.008778 -0.008714
v -0.000120 0.008760 -0.008694
v -0.000117 0.008761 -0.008694
v -0.000130 0.008777 -0.008714
v -0.000123 0.008759 -0.008695
v -0.000120 0.008760 -0.008694
v -0.000131 0.008776 -0.008714
v -0.000130 0.008757 -0.008696
v -0.000136 0.008775 -0.008714
v -0.000137 0.008774 -0.008714
v -0.000140 0.008773 -0.008714
v -0.000136 0.008756 -0.008697
v -0.000139 0.008774 -0.008714
v -0.000142 0.008773 -0.008714
v -0.000140 0.008756 -0.008697
v -0.000140 0.008773 -0.008714
v -0.000144 0.008773 -0.008714
v -0.000143 0.008756 -0.008697
v -0.000140 0.008756 -0.008697
v -0.000147 0.008756 -0.008697
v -0.000143 0.008756 -0.008697
v -0.000145 0.008773 -0.008714
v -0.000148 0.008773 -0.008714
v -0.000150 0.008773 -0.008714
v -0.000150 0.008756 -0.008697
v -0.000133 0.008757 -0.008697
v -0.000137 0.008774 -0.008714
v -0.000139 0.008774 -0.008714
v -0.000132 0.008776 -0.008714
v -0.000134 0.008775 -0.008714
v -0.000127 0.008758 -0.008696
v -0.000147 0.008773 -0.008714
v -0.000148 0.008773 -0.008714
v -0.000150 0.008756 -0.008697
v -0.000065 0.008835 -0.008687
v -0.000065 0.008835 -0.008687
v -0.000065 0.008836 -0.008687
v -0.000065 0.008836 -0.008687
v -0.000097 0.008835 -0.008687
v -0.000097 0.008835 -0.008687
v -0.000065 0.008836 -0.008687
v -0.000065 0.008836 -0.008687
v -0.000099 0.008836 -0.008688
v -0.000099 0.008836 -0.008688
v -0.000098 0.008836 -0.008687
v -0.000098 0.008836 -0.008687
v -0.000097 0.008835 -0.008687
v -0.000065 0.008836 -0.008687
v -0.000098 0.008836 -0.008687
v -0.000065 0.008836 -0.008687
v -0.000098 0.008770 -0.008687
v -0.000099 0.008770 -0.008688
v -0.000099 0.008770 -0.008688
v -0.000098 0.008770 -0.008687
v -0.000065 0.008770 -0.008687
v -0.000065 0.008771 -0.008687
v -0.000065 0.008771 -0.008687
v -0.000065 0.008770 -0.008687
v -0.000065 0.008770 -0.008687
v -0.000097 0.008771 -0.008687
v -0.000065 0.008770 -0.008687
v -0.000065 0.008770 -0.008687
v -0.000097 0.008771 -0.008687
v -0.000065 0.008770 -0.008687
v -0.000097 0.008771 -0.008687
v -0.000098 0.008770 -0.008687
vn -1.0000 -0.0000 -0.0000
vn -0.0000 -0.7940 0.6079
vn -0.0000 -0.7816 0.6238
vn -0.0000 -0.7739 0.6333
vn -0.0000 -0.7688 0.6395
vn -0.0000 -0.7815 0.6239
vn -0.0000 -0.7530 0.6580
vn -0.0000 -0.7558 0.6548
vn -0.0000 -0.7424 0.6699
vn -0.0000 -0.7557 0.6549
vn 0.0001 -0.7424 0.6700
vn -0.0000 -0.7313 0.6820
vn -0.0000 -0.7287 0.6848
vn -0.0000 -0.7147 0.6994
vn -0.0000 -0.7314 0.6820
vn -0.0000 -0.7424 0.6700
vn -0.0000 -0.7313 0.6821
vn -0.0000 -0.7089 0.7053
vn -0.0000 -0.7004 0.7137
vn -0.0000 -0.6857 0.7279
vn -0.0000 -0.6859 0.7277
vn -0.0000 -0.6710 0.7414
vn -0.0000 -0.6618 0.7497
vn -0.0000 -0.6559 0.7548
vn -0.0000 -0.6372 0.7707
vn -0.0000 -0.6124 0.7905
vn -0.0000 -0.6119 0.7909
vn -0.0000 -0.6617 0.7497
vn -0.0000 -0.6560 0.7548
vn -0.0000 -0.6371 0.7707
vn -0.0000 -0.6124 0.7906
vn -0.0000 -0.6406 0.7679
vn -0.0000 -0.6371 0.7708
vn -0.0000 -0.6118 0.7910
vn -0.0000 -0.6106 0.7919
vn -0.0001 -0.6107 0.7919
vn 0.0001 -0.6371 0.7708
vn -0.0001 -0.6090 0.7932
vn -0.0000 -0.6405 0.7680
vn -0.0001 -0.6249 0.7807
vn -0.0000 -0.6068 0.7948
vn -0.0000 -0.6011 0.7992
vn -0.0000 -0.6041 0.7969
vn -0.0000 -0.5599 0.8286
vn -0.0000 -0.5665 0.8241
vn 0.0002 -0.5764 0.8172
vn 0.0002 -0.5727 0.8198
vn -0.0000 -0.5785 0.8157
vn -0.0002 -0.5928 0.8053
vn -0.0000 -0.5839 0.8118
vn -0.0000 -0.5889 0.8082
vn -0.0000 -0.6091 0.7931
vn -0.0000 -0.5934 0.8049
vn -0.0000 -0.5974 0.8019
vn -0.0000 -0.6090 0.7932
vn -0.0000 -0.0000 1.0000
vn -0.0001 -0.0000 1.0000
vn 0.0001 -0.0000 1.0000
vn -0.0000 0.6372 0.7707
vn -0.0000 0.6124 0.7905
vn -0.0000 0.6118 0.7910
vn -0.0000 0.6107 0.7919
vn -0.0000 0.6090 0.7932
vn -0.0000 0.6859 0.7277
vn 0.0001 0.7004 0.7138
vn -0.0000 0.6857 0.7279
vn -0.0000 0.7286 0.6849
vn -0.0003 0.7313 0.6820
vn -0.0000 0.7148 0.6994
vn 0.0001 0.7424 0.6700
vn 0.0002 0.7530 0.6580
vn -0.0000 0.6119 0.7909
vn -0.0000 0.7940 0.6079
vn 0.0001 0.7816 0.6238
vn -0.0003 0.7739 0.6333
vn -0.0000 0.7687 0.6396
vn -0.0000 0.7558 0.6548
vn 0.0002 0.7089 0.7053
vn 0.0001 0.6711 0.7414
vn -0.0003 0.6618 0.7497
vn -0.0000 0.6559 0.7549
vn -0.0000 0.6068 0.7948
vn -0.0001 0.6405 0.7679
vn -0.0000 0.6042 0.7969
vn -0.0000 0.6249 0.7807
vn -0.0000 0.6010 0.7992
vn -0.0000 0.5974 0.8019
vn -0.0000 0.6091 0.7931
vn -0.0000 0.5888 0.8083
vn -0.0000 0.5839 0.8118
vn -0.0001 0.5928 0.8053
vn -0.0000 0.5599 0.8286
vn 0.0002 0.5764 0.8172
vn -0.0000 0.5598 0.8286
vn -0.0000 0.5665 0.8241
vn -0.0001 0.5726 0.8198
vn -0.0000 0.5785 0.8157
vn -0.0000 0.5933 0.8050
vn 1.0000 -0.0000 -0.0000
vn -0.0000 -0.0000 -1.0000
vn -0.0000 -1.0000 -0.0000
vn -0.0000 1.0000 -0.0000
vn -0.0001 -0.0000 -1.0000
vn 0.0001 -0.0000 -1.0000
vn 0.0002 -0.0000 -1.0000
vn 0.1129 -0.9936 -0.0000
vn 0.0588 -0.9983 -0.0000
vn 0.0587 -0.9983 -0.0000
vn 0.0045 -1.0000 -0.0000
vn -0.0498 -0.9988 -0.0000
vn -0.1039 -0.9946 -0.0000
vn -0.1578 -0.9875 -0.0000
vn -0.1040 -0.9946 -0.0000
vn -0.2112 -0.9774 -0.0000
vn -0.2639 -0.9646 -0.0000
vn -0.2111 -0.9775 -0.0000
vn -0.3159 -0.9488 -0.0000
vn -0.2640 -0.9645 -0.0000
vn -0.3160 -0.9488 -0.0000
vn -0.3670 -0.9302 -0.0000
vn -0.4170 -0.9089 -0.0000
vn -0.4657 -0.8850 -0.0000
vn -0.4656 -0.8850 -0.0000
vn -0.4658 -0.8849 -0.0000
vn -0.5130 -0.8584 -0.0000
vn -0.5588 -0.8293 -0.0000
vn -0.5589 -0.8292 -0.0000
vn -0.6031 -0.7976 -0.0000
vn -0.6031 -0.7977 -0.0000
vn -0.5590 -0.8292 -0.0000
vn -0.6455 -0.7638 -0.0000
vn -0.6860 -0.7276 -0.0000
vn -0.7245 -0.6893 -0.0000
vn -0.7609 -0.6489 -0.0000
vn -0.7245 -0.6892 -0.0000
vn -0.7949 -0.6067 -0.0000
vn -0.7950 -0.6066 -0.0000
vn -0.8267 -0.5627 -0.0000
vn -0.8267 -0.5626 -0.0000
vn -0.8560 -0.5170 -0.0000
vn -0.8561 -0.5169 -0.0000
vn -0.8828 -0.4697 -0.0000
vn -0.8829 -0.4696 -0.0000
vn -0.9070 -0.4210 -0.0000
vn -0.9070 -0.4211 -0.0000
vn -0.9286 -0.3712 -0.0000
vn -0.9071 -0.4210 -0.0000
vn -0.9474 -0.3202 -0.0000
vn -0.9286 -0.3711 -0.0000
vn -0.9633 -0.2683 -0.0000
vn -0.9473 -0.3202 -0.0000
vn -0.9633 -0.2684 -0.0000
vn -0.9765 -0.2156 -0.0000
vn -0.9634 -0.2682 -0.0000
vn -0.9765 -0.2155 -0.0000
vn -0.9765 -0.2155 0.0002
vn -0.9867 -0.1623 -0.0000
vn -0.9868 -0.1622 -0.0000
vn -0.9941 -0.1085 -0.0000
vn -0.9941 -0.1084 -0.0000
vn -0.9985 -0.0543 -0.0000
vn -0.9985 0.0543 -0.0000
vn -0.9941 0.1084 -0.0000
vn -0.9868 0.1622 -0.0000
vn -0.9941 0.1085 -0.0000
vn -0.9765 0.2155 -0.0000
vn -0.9867 0.1623 -0.0000
vn -0.9634 0.2682 -0.0000
vn -0.9765 0.2156 -0.0000
vn -0.9473 0.3202 -0.0000
vn -0.9633 0.2683 -0.0000
vn -0.9474 0.3202 -0.0000
vn -0.9286 0.3711 -0.0000
vn -0.9286 0.3712 -0.0000
vn -0.9285 0.3712 -0.0000
vn -0.9071 0.4210 -0.0000
vn -0.9070 0.4210 -0.0000
vn -0.8829 0.4696 -0.0000
vn -0.8828 0.4697 -0.0000
vn -0.8561 0.5169 -0.0000
vn -0.8560 0.5170 -0.0000
vn -0.8267 0.5626 -0.0000
vn -0.8267 0.5627 -0.0000
vn -0.8560 0.5169 -0.0000
vn -0.7950 0.6066 -0.0000
vn -0.7609 0.6489 -0.0000
vn -0.7949 0.6067 -0.0000
vn -0.7245 0.6892 -0.0000
vn -0.7245 0.6893 -0.0000
vn -0.6860 0.7276 -0.0000
vn -0.6455 0.7638 -0.0000
vn -0.6031 0.7977 -0.0000
vn 0.1129 0.9936 -0.0000
vn 0.0588 0.9983 -0.0000
vn 0.1666 0.9860 -0.0000
vn 0.0045 1.0000 -0.0000
vn 0.0587 0.9983 -0.0000
vn -0.0498 0.9988 -0.0000
vn -0.1039 0.9946 -0.0000
vn -0.1578 0.9875 -0.0000
vn -0.1040 0.9946 -0.0000
vn -0.2112 0.9774 -0.0000
vn -0.2111 0.9775 -0.0000
vn -0.2639 0.9646 -0.0000
vn -0.3159 0.9488 -0.0000
vn -0.2640 0.9645 -0.0000
vn -0.3160 0.9488 -0.0000
vn -0.3670 0.9302 -0.0000
vn -0.3669 0.9303 -0.0000
vn -0.4170 0.9089 -0.0000
vn -0.4169 0.9089 -0.0000
vn -0.4657 0.8850 -0.0000
vn -0.4656 0.8850 -0.0000
vn -0.4657 0.8849 -0.0000
vn -0.5130 0.8584 -0.0000
vn -0.4658 0.8849 -0.0000
vn -0.5588 0.8293 -0.0000
vn -0.5589 0.8292 -0.0000
vn -0.5590 0.8292 -0.0000
vn -0.9070 0.4211 -0.0000
vn -0.9633 0.2684 -0.0000
vn -0.9765 0.2155 -0.0002
vn -0.4169 -0.9089 -0.0000
vn -0.3669 -0.9303 -0.0000
vn 0.1666 -0.9860 -0.0000
vn 0.0238 0.7067 0.7071
vn 0.0032 0.7071 0.7071
vn 0.0415 0.7059 0.7071
vn 0.0239 0.7067 0.7071
vn 0.0416 0.7059 0.7071
vn 0.0748 0.7031 0.7071
vn -0.0269 0.7066 0.7071
vn -0.0352 0.7062 0.7071
vn -0.0735 0.7033 0.7071
vn -0.0773 0.7029 0.7071
vn -0.1116 0.6982 0.7071
vn -0.0773 0.7027 0.7073
vn -0.1269 0.6956 0.7071
vn -0.1493 0.6912 0.7071
vn -0.1752 0.6851 0.7071
vn -0.1866 0.6820 0.7071
vn -0.2220 0.6714 0.7071
vn -0.2234 0.6709 0.7071
vn -0.2219 0.6714 0.7071
vn -0.2594 0.6578 0.7071
vn -0.2669 0.6548 0.7071
vn -0.2595 0.6578 0.7071
vn -0.3098 0.6356 0.7071
vn -0.2948 0.6427 0.7071
vn -0.3293 0.6258 0.7071
vn -0.3504 0.6142 0.7071
vn -0.3628 0.6070 0.7071
vn -0.3885 0.5908 0.7071
vn -0.3956 0.5872 0.7062
vn -0.4244 0.5656 0.7071
vn -0.3952 0.5864 0.7071
vn -0.3886 0.5908 0.7071
vn -0.4564 0.5401 0.7071
vn -0.4264 0.5640 0.7071
vn -0.4576 0.5391 0.7071
vn -0.4851 0.5145 0.7071
vn -0.4883 0.5114 0.7071
vn -0.5123 0.4874 0.7071
vn -0.5165 0.4829 0.7071
vn -0.5380 0.4588 0.7071
vn -0.5424 0.4537 0.7071
vn -0.5380 0.4589 0.7071
vn -0.5658 0.4241 0.7071
vn -0.5621 0.4290 0.7071
vn -0.5729 0.4145 0.7071
vn -0.5846 0.3978 0.7071
vn -0.5729 0.4144 0.7071
vn -0.5799 0.4046 0.7071
vn -0.5871 0.3942 0.7071
vn -0.5942 0.3833 0.7071
vn -0.6053 0.3655 0.7071
vn -0.6201 0.3399 0.7071
vn -0.6201 0.3398 0.7071
vn -0.6244 0.3321 0.7070
vn -0.6243 0.3321 0.7071
vn -0.6428 0.2946 0.7071
vn -0.6414 0.2977 0.7071
vn -0.6622 0.2479 0.7071
vn -0.6566 0.2624 0.7071
vn -0.6623 0.2478 0.7071
vn -0.6783 0.1998 0.7071
vn -0.6699 0.2264 0.7071
vn -0.6783 0.1999 0.7071
vn -0.6812 0.1897 0.7071
vn -0.6908 0.1508 0.7071
vn -0.6905 0.1524 0.7071
vn -0.6999 0.1010 0.7071
vn -0.6977 0.1148 0.7071
vn -0.6909 0.1507 0.7071
vn -0.7029 0.0767 0.7071
vn -0.6977 0.1147 0.7071
vn -0.6999 0.1009 0.7071
vn -0.7061 0.0384 0.7071
vn -0.7029 0.0766 0.7071
vn -0.7053 0.0506 0.7071
vn -0.7071 -0.0000 0.7071
vn -0.7061 -0.0384 0.7071
vn -0.7053 -0.0506 0.7071
vn -0.7030 -0.0766 0.7071
vn -0.7029 -0.0766 0.7071
vn -0.6999 -0.1009 0.7071
vn -0.6978 -0.1146 0.7071
vn -0.6999 -0.1010 0.7071
vn -0.6909 -0.1507 0.7071
vn -0.6977 -0.1148 0.7071
vn -0.6908 -0.1508 0.7071
vn -0.6812 -0.1896 0.7071
vn -0.6905 -0.1524 0.7071
vn -0.6783 -0.1998 0.7071
vn -0.6699 -0.2264 0.7071
vn -0.6812 -0.1897 0.7071
vn -0.6623 -0.2477 0.7071
vn -0.6566 -0.2624 0.7071
vn -0.6699 -0.2263 0.7071
vn -0.6428 -0.2946 0.7071
vn -0.6416 -0.2977 0.7069
vn -0.6243 -0.3321 0.7071
vn -0.6414 -0.2977 0.7071
vn -0.6054 -0.3655 0.7070
vn -0.6201 -0.3398 0.7071
vn -0.5846 -0.3978 0.7071
vn -0.6053 -0.3656 0.7071
vn -0.5942 -0.3834 0.7071
vn -0.5799 -0.4046 0.7071
vn -0.5870 -0.3942 0.7071
vn -0.5166 -0.4828 0.7071
vn -0.5380 -0.4588 0.7071
vn -0.5424 -0.4537 0.7071
vn -0.5621 -0.4290 0.7071
vn -0.5658 -0.4241 0.7071
vn -0.5424 -0.4536 0.7071
vn -0.5123 -0.4874 0.7071
vn -0.5166 -0.4829 0.7071
vn -0.4851 -0.5145 0.7071
vn -0.4883 -0.5114 0.7071
vn -0.4564 -0.5401 0.7071
vn -0.4576 -0.5391 0.7071
vn -0.4262 -0.5638 0.7074
vn -0.4242 -0.5657 0.7071
vn -0.5729 -0.4145 0.7071
vn 0.0749 -0.7031 0.7071
vn 0.1179 -0.6972 0.7071
vn 0.0798 -0.7026 0.7071
vn 0.0748 -0.7031 0.7071
vn 0.0799 -0.7027 0.7070
vn 0.0415 -0.7059 0.7071
vn 0.0416 -0.7059 0.7071
vn 0.0242 -0.7069 0.7069
vn 0.0032 -0.7071 0.7071
vn 0.0242 -0.7067 0.7071
vn -0.0265 -0.7069 0.7069
vn -0.0352 -0.7062 0.7071
vn -0.0265 -0.7066 0.7071
vn -0.0768 -0.7029 0.7071
vn -0.0735 -0.7033 0.7071
vn -0.1116 -0.6982 0.7071
vn -0.1263 -0.6957 0.7071
vn -0.1493 -0.6911 0.7071
vn -0.1494 -0.6912 0.7071
vn -0.1746 -0.6852 0.7071
vn -0.1866 -0.6820 0.7071
vn -0.1493 -0.6912 0.7071
vn -0.2214 -0.6716 0.7071
vn -0.1867 -0.6820 0.7071
vn -0.2214 -0.6715 0.7071
vn -0.2235 -0.6709 0.7071
vn -0.2233 -0.6709 0.7071
vn -0.2594 -0.6578 0.7071
vn -0.2595 -0.6578 0.7071
vn -0.2664 -0.6550 0.7071
vn -0.2948 -0.6427 0.7071
vn -0.2665 -0.6550 0.7071
vn -0.3094 -0.6358 0.7071
vn -0.3293 -0.6258 0.7071
vn -0.3093 -0.6358 0.7071
vn -0.3501 -0.6143 0.7071
vn -0.3293 -0.6257 0.7071
vn -0.3501 -0.6144 0.7071
vn -0.3294 -0.6258 0.7071
vn -0.3628 -0.6070 0.7071
vn -0.3883 -0.5909 0.7071
vn -0.3952 -0.5864 0.7071
vn -0.3884 -0.5909 0.7071
vn -0.4243 -0.5657 0.7071
vn -0.4264 -0.5641 0.7071
vn -0.5381 -0.4590 0.7069
vn -0.5622 -0.4290 0.7070
vn -0.5728 -0.4145 0.7071
vn -0.5942 -0.3833 0.7071
vn -0.6201 -0.3399 0.7071
vn -0.6053 -0.3655 0.7071
vn -0.6622 -0.2479 0.7071
vn -0.6623 -0.2478 0.7071
vn -0.7030 0.0766 0.7071
vn -0.6568 0.2625 0.7069
vn -0.5942 0.3834 0.7071
vn -0.6053 0.3656 0.7071
vn -0.5799 0.4047 0.7071
vn -0.5870 0.3942 0.7071
vn -0.5846 0.3979 0.7071
vn -0.5847 0.3979 0.7070
vn -0.5622 0.4291 0.7070
vn -0.4243 0.5656 0.7071
vn -0.4265 0.5640 0.7071
vn -0.3627 0.6070 0.7071
vn -0.2235 0.6709 0.7071
vn -0.1867 0.6820 0.7071
vn -0.0269 0.7067 0.7070
vn 0.0239 0.7069 0.7069
vn -0.0270 0.7066 0.7071
vn 0.0798 0.7026 0.7071
vn 0.1179 0.6972 0.7071
vn 0.0749 0.7031 0.7071
vn 0.0415 0.7060 0.7070
vn -0.0000 0.1480 0.9890
vn -0.0000 0.2928 0.9562
vn -0.0000 0.2927 0.9562
vn -0.0000 0.1690 0.9856
vn -0.0000 0.4310 0.9024
vn -0.0000 0.4459 0.8951
vn 0.0001 0.3165 0.9486
vn 0.0001 0.5599 0.8286
vn -0.0000 0.3164 0.9486
vn -0.0000 0.3165 0.9486
vn -0.0000 0.4311 0.9023
vn -0.0000 -0.3165 0.9486
vn -0.0000 -0.4459 0.8951
vn -0.0000 -0.3164 0.9486
vn -0.0000 -0.5599 0.8285
vn -0.0000 -0.4311 0.9023
vn -0.0000 -0.1480 0.9890
vn -0.0000 -0.2927 0.9562
vn -0.0000 -0.1687 0.9857
vn -0.0000 -0.2928 0.9562
vn -0.0000 -0.1689 0.9856
vn -0.0000 -0.4310 0.9024
vn -0.0000 -0.3163 0.9487
s 1
usemtl Diffuse_51_51_51_100.029
f 1//1 2//1 3//1
f 1//1 3//1 4//1
f 3//1 5//1 4//1
f 5//1 6//1 4//1
f 4//1 7//1 8//1
f 4//1 8//1 9//1
f 8//1 10//1 9//1
f 9//1 10//1 11//1
f 7//1 4//1 6//1
f 9//1 11//1 12//1
f 13//2 14//2 15//3
f 16//4 17//2 15//3
f 18//5 19//4 15//6
f 18//5 20//7 21//4
f 22//7 18//5 23//8
f 24//9 25//7 23//10
f 24//11 26//12 27//7
f 28//13 29//14 30//15
f 24//16 28//13 31//17
f 32//12 29//14 33//18
f 34//18 29//14 35//19
f 36//20 37//18 35//19
f 38//21 39//20 35//19
f 38//21 40//22 41//20
f 42//20 40//22 43//23
f 44//23 40//22 45//24
f 46//25 47//26 48//27
f 49//25 50//28 45//29
f 47//26 51//30 52//31
f 53//32 54//33 45//24
f 55//34 56//25 57//35
f 57//36 58//37 59//38
f 53//39 60//40 61//41
f 60//40 62//42 63//43
f 64//44 65//45 66//46
f 66//46 67//44 64//44
f 68//47 66//46 65//45
f 68//47 69//48 66//46
f 66//46 69//48 70//49
f 70//49 69//48 71//50
f 72//51 70//49 71//50
f 72//51 73//52 70//49
f 72//51 74//53 73//52
f 73//52 74//53 75//54
f 62//42 73//52 75//54
f 62//42 60//40 73//52
f 63//43 61//41 60//40
f 61//41 59//55 53//39
f 53//39 59//55 76//25
f 77//25 55//34 52//31
f 78//56 79//56 80//56
f 81//56 82//56 80//56
f 83//56 81//56 80//56
f 84//57 83//56 80//56
f 85//57 84//57 80//56
f 86//56 85//57 80//56
f 87//56 86//56 80//56
f 88//56 87//56 80//56
f 79//56 88//56 80//56
f 89//56 79//56 78//56
f 78//56 90//58 89//56
f 78//56 91//58 90//58
f 78//56 92//56 91//58
f 78//56 93//57 92//56
f 94//56 78//56 95//56
f 94//56 96//56 78//56
f 78//56 96//56 93//57
f 97//59 98//60 99//60
f 100//61 97//59 99//60
f 100//61 101//62 97//59
f 97//59 101//62 102//63
f 103//64 104//65 105//66
f 106//67 107//68 108//69
f 109//70 110//71 107//68
f 111//72 98//60 97//59
f 112//73 113//74 114//73
f 112//73 115//75 113//74
f 113//74 115//75 116//76
f 116//76 115//75 110//71
f 117//77 116//76 110//71
f 109//70 117//77 110//71
f 107//68 118//78 108//69
f 108//69 118//78 104//65
f 104//65 118//78 105//66
f 119//79 105//66 120//80
f 120//80 97//59 121//81
f 102//63 122//82 123//83
f 122//82 124//84 125//85
f 126//86 127//87 128//88
f 129//89 130//90 131//91
f 132//92 133//93 134//94
f 134//94 133//93 135//95
f 135//95 133//93 136//96
f 136//96 133//93 137//97
f 137//97 133//93 131//91
f 130//90 137//97 131//91
f 129//89 131//91 128//88
f 138//98 129//89 128//88
f 126//86 125//85 124//84
f 126//86 128//88 125//85
f 125//85 123//83 122//82
f 123//83 97//59 102//63
f 123//83 121//81 97//59
f 121//81 119//79 120//80
f 105//66 119//79 103//64
f 109//70 107//68 106//67
f 138//98 128//88 127//87
f 139//1 140//1 141//1
f 139//1 142//1 143//1
f 139//1 144//1 145//1
f 139//1 146//1 147//1
f 141//1 148//1 149//1
f 141//1 150//1 151//1
f 141//1 152//1 153//1
f 154//1 155//1 156//1
f 141//1 157//1 158//1
f 155//1 141//1 159//1
f 160//99 161//99 162//99
f 163//99 164//99 165//99
s 0
f 166//99 167//99 168//99
f 167//99 169//99 170//99
f 169//100 171//99 172//99
s 1
f 173//99 174//99 175//99
f 176//99 177//99 178//99
f 179//99 180//99 181//99
f 182//99 183//99 184//99
f 185//99 186//99 187//99
f 188//99 189//99 190//99
f 191//99 192//99 193//99
f 194//99 195//99 196//99
f 197//99 198//99 199//99
f 200//99 201//99 202//99
f 203//99 204//99 205//99
f 206//99 207//99 208//99
f 209//99 210//99 211//99
f 212//99 213//99 214//99
f 215//99 216//99 217//99
f 218//99 219//99 220//99
f 216//99 221//99 222//99
f 223//99 224//99 216//99
f 225//99 226//99 227//99
f 228//99 229//99 227//99
f 230//99 231//99 227//99
f 232//99 233//99 227//99
f 234//99 235//99 227//99
f 236//99 237//99 227//99
f 238//99 239//99 227//99
f 227//99 240//99 216//99
f 241//99 242//99 216//99
f 243//99 244//99 216//99
f 245//99 246//99 216//99
f 247//99 227//99 248//99
f 249//99 250//99 251//99
f 252//99 253//99 216//99
f 254//99 255//99 256//99
s 0
f 257//99 258//99 259//100
s 1
f 260//99 261//99 259//99
s 0
f 262//99 263//99 257//99
s 1
f 264//99 265//99 266//99
f 267//101 268//101 269//101
f 270//101 271//101 272//101
f 273//102 274//102 275//102
f 276//102 277//102 278//102
f 279//103 280//103 281//103
f 282//103 283//103 284//103
f 285//100 286//100 287//100
f 288//100 289//100 285//100
f 290//100 291//100 289//100
f 292//100 293//100 291//100
f 294//100 295//100 293//100
f 296//100 297//100 295//100
f 298//104 299//104 297//104
f 300//100 301//100 299//100
f 302//103 303//103 301//103
f 304//100 305//100 303//100
f 306//100 307//100 305//100
f 308//100 309//100 307//100
f 310//100 311//100 309//100
f 309//100 312//100 313//100
f 313//100 314//100 315//100
f 315//100 316//100 317//100
f 317//100 318//100 319//100
f 319//100 320//100 321//100
f 321//100 322//100 323//100
f 323//104 324//104 325//104
f 325//100 326//100 327//100
f 327//100 328//100 329//100
f 329//100 330//100 331//100
f 332//100 333//100 334//100
f 335//104 333//104 336//104
f 337//100 332//100 338//100
f 339//100 337//100 340//100
f 341//100 339//100 342//100
f 343//100 341//100 344//100
f 345//100 343//100 346//100
f 347//100 345//100 348//100
f 284//100 347//100 349//100
f 350//100 351//100 284//100
f 352//103 353//103 283//103
f 354//103 355//103 353//103
f 356//105 357//105 355//105
f 358//100 359//100 357//100
f 360//100 361//100 359//100
f 362//100 363//100 364//100
f 362//100 365//100 366//100
f 364//100 367//100 368//100
f 368//100 369//100 370//100
f 370//100 371//100 372//100
f 372//100 373//100 374//100
f 374//103 375//103 376//103
f 376//100 377//100 378//100
f 378//100 379//100 380//100
f 380//100 381//100 382//100
f 382//104 383//104 384//104
f 384//104 385//104 386//104
f 386//100 387//100 388//100
f 388//100 389//100 390//100
f 391//100 281//100 388//100
f 392//100 280//100 393//100
f 394//100 392//100 395//100
f 396//100 394//100 397//100
f 398//100 399//100 396//100
f 400//100 401//100 399//100
f 402//100 403//100 401//100
f 404//100 405//100 403//100
f 406//100 407//100 405//100
f 331//104 408//104 336//104
f 409//100 410//100 407//100
f 411//104 365//104 361//104
f 410//100 412//100 413//100
f 414//106 415//107 416//106
f 417//108 418//109 419//108
f 420//109 421//109 419//108
f 422//110 423//110 421//109
f 424//111 425//111 423//110
f 426//112 427//112 425//113
f 428//114 427//112 429//112
f 430//115 431//116 432//116
f 433//115 431//116 434//115
f 435//117 433//118 436//117
f 435//119 437//119 438//120
f 439//120 440//120 441//121
f 442//121 443//121 444//122
f 442//121 445//123 446//123
f 446//124 447//125 448//125
f 449//125 450//126 448//125
f 451//127 452//128 453//127
f 454//129 455//129 453//130
f 456//131 457//131 455//129
f 458//132 457//131 459//131
f 460//133 461//132 462//132
f 463//133 461//132 464//133
f 465//134 463//135 466//134
f 465//134 467//134 468//136
f 469//137 470//137 471//138
f 469//137 472//139 473//139
f 473//138 474//140 475//140
f 476//141 477//142 475//141
f 478//143 479//144 480//143
f 481//145 482//145 480//143
f 483//146 484//146 482//147
f 485//148 484//149 486//149
f 487//150 488//151 489//151
f 490//152 488//151 491//152
f 492//153 490//154 493//153
f 492//155 494//156 495//157
f 496//158 497//158 498//159
f 496//158 499//159 500//159
f 500//160 501//161 502//161
f 503//161 504//1 502//161
f 505//1 506//162 507//1
f 508//162 509//162 507//1
f 510//163 511//163 509//162
f 512//164 511//165 513//165
f 514//166 515//167 516//167
f 517//168 518//169 519//169
f 520//168 518//169 521//168
f 522//170 520//171 523//170
f 522//172 524//172 525//173
f 526//174 527//175 528//176
f 526//175 529//176 530//176
f 530//177 531//178 532//178
f 533//179 534//180 532//179
f 535//181 536//182 537//181
f 538//183 539//183 537//184
f 540//185 541//185 539//183
f 542//186 541//187 543//187
f 544//188 545//186 546//186
f 547//189 545//186 548//189
f 549//190 547//189 550//190
f 549//190 551//190 552//191
f 553//191 554//191 555//192
f 553//191 556//192 557//192
f 558//193 559//194 560//193
f 561//195 562//195 558//193
f 563//195 558//193 564//193
f 559//194 565//194 566//193
f 567//196 568//197 559//197
f 569//196 570//197 567//196
f 571//196 567//196 572//198
f 573//196 572//198 574//198
f 572//198 575//199 576//198
f 575//199 577//199 578//198
f 579//200 580//201 575//201
f 581//200 582//201 579//200
f 583//200 579//200 584//202
f 585//200 584//202 586//202
f 584//203 587//204 588//203
f 587//204 589//204 590//203
f 591//205 592//206 587//206
f 593//205 594//206 591//205
f 595//207 591//207 596//208
f 597//207 596//209 598//209
f 596//208 599//210 600//208
f 599//211 601//211 602//208
f 603//212 604//210 599//210
f 605//213 606//210 603//213
f 607//214 603//214 608//215
f 609//216 608//215 610//215
f 608//215 611//217 612//215
f 611//217 613//217 614//215
f 557//192 615//218 611//218
f 616//192 617//219 557//192
f 549//190 618//191 553//191
f 547//189 619//189 620//190
f 545//186 541//187 621//186
f 622//185 539//182 623//182
f 624//180 537//180 532//179
f 625//220 626//178 530//220
f 522//172 627//173 526//173
f 520//221 628//221 629//170
f 518//222 515//167 630//166
f 515//164 511//165 631//164
f 632//163 509//162 633//162
f 634//1 507//1 502//161
f 635//160 636//161 500//160
f 492//155 637//157 496//157
f 490//154 638//154 639//153
f 488//148 484//149 640//148
f 641//146 482//147 642//147
f 643//142 480//142 475//141
f 644//138 645//140 473//138
f 465//134 646//136 469//136
f 463//133 647//133 648//134
f 461//132 457//131 649//132
f 650//131 455//129 651//129
f 652//126 453//126 448//125
f 653//124 654//125 446//124
f 439//120 655//223 442//223
f 435//119 656//224 439//224
f 433//118 657//118 658//117
f 659//113 660//112 425//113
f 421//109 661//109 662//110
f 416//106 663//225 664//106
f 416//106 665//225 666//225
f 667//114 431//114 427//112
f 423//110 668//110 669//111
f 419//107 416//106 670//107
f 671//226 672//227 673//228
f 674//229 675//230 676//231
f 677//232 678//233 679//227
f 680//234 681//233 682//235
f 683//236 684//237 685//238
f 686//239 687//238 688//240
f 689//241 690//240 691//242
f 692//243 693//244 694//245
f 695//242 696//246 697//247
f 698//246 699//248 700//249
f 701//248 702//250 703//249
f 704//251 705//252 706//250
f 707//253 708//254 709//252
f 710//255 711//256 712//257
f 713//258 714//259 715//255
f 716//258 717//255 718//260
f 719//258 720//260 721//261
f 722//260 723//262 724//261
f 725//263 726//264 727//265
f 728//262 729//263 730//261
f 731//264 732//266 733//267
f 734//266 735//268 736//269
f 737//268 738//270 739//271
f 738//272 740//273 741//271
f 742//271 743//274 744//275
f 745//276 746//275 747//277
f 748//276 749//278 750//279
f 751//280 752//281 753//282
f 754//281 755//283 756//284
f 757//285 758//286 759//287
f 760//288 761//289 762//287
f 763//290 764//291 765//289
f 766//292 767//293 768//294
f 769//295 770//296 771//297
f 772//298 773//299 774//300
f 775//301 776//298 777//301
f 778//302 779//301 780//301
f 781//302 782//301 783//303
f 784//302 785//303 786//304
f 787//305 788//306 789//307
f 790//308 791//309 792//310
f 793//311 794//312 795//313
f 796//314 797//315 798//316
f 799//317 800//318 801//319
f 802//320 803//321 804//318
f 805//322 806//323 807//320
f 808//324 809//322 810//325
f 811//326 812//327 813//328
f 814//329 815//326 816//330
f 817//331 818//332 819//333
f 820//334 821//335 822//336
f 823//337 824//332 825//338
f 826//339 827//337 828//340
f 829//341 830//339 831//342
f 832//343 833//341 834//344
f 835//345 836//335 837//326
f 838//346 839//347 840//348
f 841//349 842//350 843//351
f 844//349 845//352 846//353
f 847//351 848//354 849//355
f 850//354 851//356 852//355
f 853//357 854//358 855//354
f 856//359 857//358 858//357
f 859//359 860//357 861//360
f 862//359 863//360 864//361
f 865//359 866//361 867//362
f 868//361 869//363 870//362
f 871//364 872//365 873//362
f 874//366 875//365 876//367
f 877//368 878//365 879//369
f 880//370 881//369 882//371
f 883//370 884//372 885//373
f 886//370 887//374 888//375
f 889//374 890//376 891//377
f 892//376 893//378 894//377
f 895//379 896//380 897//376
f 898//381 899//378 900//382
f 901//383 902//384 903//385
f 904//381 905//385 906//386
f 907//385 908//387 909//388
f 910//387 911//389 912//388
f 913//390 914//344 915//387
f 916//341 917//342 918//344
f 919//339 920//340 921//342
f 922//337 923//338 924//340
f 925//391 926//334 927//333
f 928//392 929//326 930//335
f 931//326 814//329 835//393
f 932//394 816//330 933//326
f 934//395 935//394 936//396
f 937//320 938//325 939//322
f 940//318 941//397 942//320
f 943//315 944//314 945//398
f 946//316 947//311 948//314
f 949//313 950//310 951//311
f 952//306 953//304 954//303
f 955//298 956//300 957//301
f 958//399 959//297 960//300
f 961//293 962//291 963//290
f 964//290 965//289 966//286
f 967//285 968//287 969//284
f 970//281 971//400 972//282
f 973//278 974//281 975//280
f 976//271 977//401 978//402
f 740//403 743//404 979//405
f 980//268 981//406 982//269
f 983//266 984//407 985//267
f 986//262 987//264 988//263
f 989//408 990//409 991//256
f 992//251 993//253 994//410
f 995//248 996//251 997//250
f 998//242 999//411 1000//412
f 1001//236 1002//238 1003//239
f 1004//234 1005//235 1006//236
f 1007//233 1008//413 1009//235
f 1010//414 1011//415 1012//227
f 1013//416 1014//417 1015//418
f 1016//240 1017//241 1018//239
f 1019//249 1020//247 1021//246
f 1022//419 1023//416 1024//231
f 95//56 78//56 1025//420
f 1026//420 1027//421 95//56
f 95//56 1028//422 1029//423
s 0
f 1030//423 1031//56 1032//424
s 1
f 1033//425 132//92 134//94
f 1034//425 1035//426 132//427
f 1036//428 1037//423 1038//424
f 1039//429 1040//430 132//92
f 67//44 1041//431 1042//432
f 64//44 67//44 1043//432
f 1044//433 67//434 1045//435
f 80//56 82//56 1046//436
f 1047//436 82//58 1048//437
f 1049//437 82//57 1050//438
s 0
f 1051//56 1052//439 1053//440
s 1
f 1054//441 1055//440 1056//442
