# Blender 4.4.3
# www.blender.org
mtllib Mesh_9.003.mtl
o Mesh_9.003
v 0.014998 0.009460 -0.014571
v 0.014998 0.009444 -0.014571
v 0.014995 0.009460 -0.014571
v 0.015001 0.009460 -0.014571
v 0.015004 0.009460 -0.014572
v 0.015001 0.009444 -0.014571
v 0.015004 0.009444 -0.014572
v 0.015007 0.009444 -0.014573
v 0.015007 0.009460 -0.014573
v 0.015010 0.009444 -0.014575
v 0.015010 0.009460 -0.014575
v 0.015012 0.009460 -0.014576
v 0.015012 0.009444 -0.014576
v 0.015015 0.009460 -0.014578
v 0.015015 0.009444 -0.014578
v 0.015017 0.009460 -0.014580
v 0.015017 0.009444 -0.014580
v 0.015019 0.009460 -0.014583
v 0.015019 0.009444 -0.014583
v 0.015021 0.009460 -0.014585
v 0.015021 0.009444 -0.014585
v 0.015023 0.009460 -0.014588
v 0.015023 0.009444 -0.014588
v 0.015024 0.009460 -0.014591
v 0.015025 0.009460 -0.014594
v 0.015024 0.009444 -0.014591
v 0.015026 0.009460 -0.014597
v 0.015025 0.009444 -0.014594
v 0.015026 0.009460 -0.014600
v 0.015026 0.009444 -0.014597
v 0.015026 0.009444 -0.014600
v 0.015027 0.009460 -0.014603
v 0.015027 0.009444 -0.014603
v 0.015026 0.009460 -0.014606
v 0.015026 0.009444 -0.014606
v 0.015026 0.009460 -0.014609
v 0.015026 0.009444 -0.014609
v 0.015025 0.009460 -0.014612
v 0.015024 0.009460 -0.014615
v 0.015025 0.009444 -0.014612
v 0.015023 0.009460 -0.014618
v 0.015024 0.009444 -0.014615
v 0.015021 0.009460 -0.014621
v 0.015023 0.009444 -0.014618
v 0.015021 0.009444 -0.014621
v 0.015019 0.009444 -0.014623
v 0.015019 0.009460 -0.014623
v 0.015017 0.009444 -0.014625
v 0.015017 0.009460 -0.014625
v 0.015015 0.009444 -0.014628
v 0.015015 0.009460 -0.014628
v 0.015012 0.009460 -0.014629
v 0.015012 0.009444 -0.014629
v 0.015010 0.009460 -0.014631
v 0.015010 0.009444 -0.014631
v 0.015007 0.009460 -0.014632
v 0.015007 0.009444 -0.014632
v 0.015004 0.009460 -0.014633
v 0.015004 0.009444 -0.014633
v 0.015001 0.009460 -0.014634
v 0.015001 0.009444 -0.014634
v 0.014998 0.009460 -0.014635
v 0.014998 0.009444 -0.014635
v 0.014995 0.009460 -0.014635
v 0.014991 0.009460 -0.014635
v 0.014995 0.009444 -0.014635
v 0.014988 0.009460 -0.014634
v 0.014991 0.009444 -0.014635
v 0.014985 0.009460 -0.014633
v 0.014988 0.009444 -0.014634
v 0.014985 0.009444 -0.014633
v 0.014982 0.009460 -0.014632
v 0.014982 0.009444 -0.014632
v 0.014980 0.009460 -0.014631
v 0.014980 0.009444 -0.014631
v 0.014974 0.009460 -0.014628
v 0.014974 0.009444 -0.014628
v 0.014977 0.009444 -0.014629
v 0.014972 0.009460 -0.014625
v 0.014972 0.009444 -0.014625
v 0.014970 0.009460 -0.014623
v 0.014968 0.009460 -0.014621
v 0.014970 0.009444 -0.014623
v 0.014966 0.009460 -0.014618
v 0.014968 0.009444 -0.014621
v 0.014966 0.009444 -0.014618
v 0.014965 0.009460 -0.014615
v 0.014965 0.009444 -0.014615
v 0.014964 0.009460 -0.014612
v 0.014964 0.009444 -0.014612
v 0.014963 0.009444 -0.014609
v 0.014963 0.009460 -0.014609
v 0.014963 0.009460 -0.014606
v 0.014963 0.009444 -0.014603
v 0.014963 0.009444 -0.014606
v 0.014963 0.009460 -0.014603
v 0.014963 0.009444 -0.014600
v 0.014963 0.009460 -0.014600
v 0.014964 0.009460 -0.014594
v 0.014963 0.009444 -0.014597
v 0.014963 0.009460 -0.014597
v 0.014965 0.009460 -0.014591
v 0.014964 0.009444 -0.014594
v 0.014966 0.009460 -0.014588
v 0.014966 0.009444 -0.014588
v 0.014965 0.009444 -0.014591
v 0.014968 0.009460 -0.014585
v 0.014968 0.009444 -0.014585
v 0.014970 0.009460 -0.014583
v 0.014972 0.009460 -0.014580
v 0.014970 0.009444 -0.014583
v 0.014974 0.009460 -0.014578
v 0.014972 0.009444 -0.014580
v 0.014974 0.009444 -0.014578
v 0.014977 0.009460 -0.014576
v 0.014977 0.009444 -0.014576
v 0.014980 0.009460 -0.014575
v 0.014980 0.009444 -0.014575
v 0.014982 0.009460 -0.014573
v 0.014982 0.009444 -0.014573
v 0.014985 0.009460 -0.014572
v 0.014985 0.009444 -0.014572
v 0.014988 0.009444 -0.014571
v 0.014988 0.009460 -0.014571
v 0.014991 0.009460 -0.014571
v 0.014991 0.009444 -0.014571
v 0.014995 0.009444 -0.014571
v 0.014977 0.009460 -0.014629
v 0.014991 0.009444 -0.014571
v 0.014986 0.009444 -0.014513
v 0.014988 0.009444 -0.014571
v 0.014991 0.009444 -0.014571
v 0.014995 0.009444 -0.014571
v 0.014988 0.009444 -0.014571
v 0.014977 0.009444 -0.014515
v 0.014985 0.009444 -0.014572
v 0.014985 0.009444 -0.014572
v 0.014968 0.009444 -0.014517
v 0.014982 0.009444 -0.014573
v 0.014960 0.009444 -0.014520
v 0.014980 0.009444 -0.014575
v 0.014982 0.009444 -0.014573
v 0.014977 0.009444 -0.014576
v 0.014980 0.009444 -0.014575
v 0.014952 0.009444 -0.014523
v 0.014945 0.009444 -0.014528
v 0.014977 0.009444 -0.014576
v 0.014938 0.009444 -0.014533
v 0.014974 0.009444 -0.014578
v 0.014972 0.009444 -0.014580
v 0.014974 0.009444 -0.014578
v 0.014931 0.009444 -0.014539
v 0.014970 0.009444 -0.014583
v 0.014972 0.009444 -0.014580
v 0.014925 0.009444 -0.014546
v 0.014970 0.009444 -0.014583
v 0.014920 0.009444 -0.014553
v 0.014968 0.009444 -0.014585
v 0.014966 0.009444 -0.014588
v 0.014968 0.009444 -0.014585
v 0.014965 0.009444 -0.014591
v 0.014966 0.009444 -0.014588
v 0.014915 0.009444 -0.014560
v 0.014911 0.009444 -0.014568
v 0.014965 0.009444 -0.014591
v 0.014908 0.009444 -0.014577
v 0.014964 0.009444 -0.014594
v 0.014963 0.009444 -0.014597
v 0.014964 0.009444 -0.014594
v 0.014906 0.009444 -0.014585
v 0.014963 0.009444 -0.014600
v 0.014963 0.009444 -0.014597
v 0.014905 0.009444 -0.014594
v 0.014963 0.009444 -0.014600
v 0.014905 0.009444 -0.014603
v 0.014963 0.009444 -0.014603
v 0.014963 0.009444 -0.014603
v 0.014963 0.009444 -0.014606
v 0.014963 0.009444 -0.014606
v 0.014905 0.009444 -0.014612
v 0.014963 0.009444 -0.014609
v 0.014963 0.009444 -0.014609
v 0.014906 0.009444 -0.014620
v 0.014908 0.009444 -0.014629
v 0.014911 0.009444 -0.014637
v 0.014965 0.009444 -0.014615
v 0.014964 0.009444 -0.014612
v 0.014965 0.009444 -0.014615
v 0.014915 0.009444 -0.014645
v 0.014966 0.009444 -0.014618
v 0.014965 0.009444 -0.014615
v 0.014966 0.009444 -0.014618
v 0.014920 0.009444 -0.014653
v 0.014968 0.009444 -0.014621
v 0.014966 0.009444 -0.014618
v 0.014968 0.009444 -0.014621
v 0.014925 0.009444 -0.014660
v 0.014970 0.009444 -0.014623
v 0.014968 0.009444 -0.014621
v 0.014970 0.009444 -0.014623
v 0.014931 0.009444 -0.014666
v 0.014972 0.009444 -0.014625
v 0.014970 0.009444 -0.014623
v 0.014972 0.009444 -0.014625
v 0.014938 0.009444 -0.014672
v 0.014974 0.009444 -0.014628
v 0.014972 0.009444 -0.014625
v 0.014974 0.009444 -0.014628
v 0.014945 0.009444 -0.014678
v 0.014977 0.009444 -0.014629
v 0.014974 0.009444 -0.014628
v 0.014977 0.009444 -0.014629
v 0.014952 0.009444 -0.014682
v 0.014980 0.009444 -0.014631
v 0.014977 0.009444 -0.014629
v 0.014980 0.009444 -0.014631
v 0.014960 0.009444 -0.014686
v 0.014982 0.009444 -0.014632
v 0.014980 0.009444 -0.014631
v 0.014982 0.009444 -0.014632
v 0.014968 0.009444 -0.014689
v 0.014985 0.009444 -0.014633
v 0.014982 0.009444 -0.014632
v 0.014985 0.009444 -0.014633
v 0.014977 0.009444 -0.014691
v 0.014988 0.009444 -0.014634
v 0.014985 0.009444 -0.014633
v 0.014988 0.009444 -0.014634
v 0.014986 0.009444 -0.014692
v 0.014991 0.009444 -0.014635
v 0.014988 0.009444 -0.014634
v 0.014991 0.009444 -0.014635
v 0.014995 0.009444 -0.014693
v 0.014995 0.009444 -0.014635
v 0.014991 0.009444 -0.014635
v 0.014995 0.009444 -0.014635
v 0.015003 0.009444 -0.014692
v 0.014998 0.009444 -0.014635
v 0.014995 0.009444 -0.014635
v 0.014998 0.009444 -0.014635
v 0.015012 0.009444 -0.014691
v 0.015001 0.009444 -0.014634
v 0.014998 0.009444 -0.014635
v 0.015001 0.009444 -0.014634
v 0.015021 0.009444 -0.014689
v 0.015004 0.009444 -0.014633
v 0.015001 0.009444 -0.014634
v 0.015004 0.009444 -0.014633
v 0.015029 0.009444 -0.014686
v 0.015007 0.009444 -0.014632
v 0.015004 0.009444 -0.014633
v 0.015007 0.009444 -0.014632
v 0.015037 0.009444 -0.014682
v 0.015010 0.009444 -0.014631
v 0.015007 0.009444 -0.014632
v 0.015010 0.009444 -0.014631
v 0.015045 0.009444 -0.014678
v 0.015012 0.009444 -0.014629
v 0.015010 0.009444 -0.014631
v 0.015012 0.009444 -0.014629
v 0.015052 0.009444 -0.014672
v 0.015015 0.009444 -0.014628
v 0.015012 0.009444 -0.014629
v 0.015015 0.009444 -0.014628
v 0.015058 0.009444 -0.014666
v 0.015017 0.009444 -0.014625
v 0.015015 0.009444 -0.014628
v 0.015017 0.009444 -0.014625
v 0.015064 0.009444 -0.014660
v 0.015019 0.009444 -0.014623
v 0.015017 0.009444 -0.014625
v 0.015019 0.009444 -0.014623
v 0.015069 0.009444 -0.014653
v 0.015021 0.009444 -0.014621
v 0.015019 0.009444 -0.014623
v 0.015021 0.009444 -0.014621
v 0.015074 0.009444 -0.014645
v 0.015023 0.009444 -0.014618
v 0.015021 0.009444 -0.014621
v 0.015023 0.009444 -0.014618
v 0.015078 0.009444 -0.014637
v 0.015024 0.009444 -0.014615
v 0.015023 0.009444 -0.014618
v 0.015024 0.009444 -0.014615
v 0.015081 0.009444 -0.014629
v 0.015025 0.009444 -0.014612
v 0.015024 0.009444 -0.014615
v 0.015025 0.009444 -0.014612
v 0.015083 0.009444 -0.014620
v 0.015026 0.009444 -0.014609
v 0.015025 0.009444 -0.014612
v 0.015026 0.009444 -0.014609
v 0.015084 0.009444 -0.014612
v 0.015026 0.009444 -0.014606
v 0.015026 0.009444 -0.014609
v 0.015026 0.009444 -0.014606
v 0.015085 0.009444 -0.014603
v 0.015027 0.009444 -0.014603
v 0.015026 0.009444 -0.014606
v 0.015027 0.009444 -0.014603
v 0.015084 0.009444 -0.014594
v 0.015026 0.009444 -0.014600
v 0.015027 0.009444 -0.014603
v 0.015026 0.009444 -0.014600
v 0.015083 0.009444 -0.014585
v 0.015026 0.009444 -0.014597
v 0.015026 0.009444 -0.014600
v 0.015026 0.009444 -0.014597
v 0.015081 0.009444 -0.014577
v 0.015025 0.009444 -0.014594
v 0.015026 0.009444 -0.014597
v 0.015025 0.009444 -0.014594
v 0.015078 0.009444 -0.014568
v 0.015024 0.009444 -0.014591
v 0.015025 0.009444 -0.014594
v 0.015024 0.009444 -0.014591
v 0.015074 0.009444 -0.014560
v 0.015023 0.009444 -0.014588
v 0.015024 0.009444 -0.014591
v 0.015023 0.009444 -0.014588
v 0.015069 0.009444 -0.014553
v 0.015021 0.009444 -0.014585
v 0.015023 0.009444 -0.014588
v 0.015021 0.009444 -0.014585
v 0.015064 0.009444 -0.014546
v 0.015019 0.009444 -0.014583
v 0.015021 0.009444 -0.014585
v 0.015019 0.009444 -0.014583
v 0.015058 0.009444 -0.014539
v 0.015017 0.009444 -0.014580
v 0.015019 0.009444 -0.014583
v 0.015017 0.009444 -0.014580
v 0.015052 0.009444 -0.014533
v 0.015015 0.009444 -0.014578
v 0.015017 0.009444 -0.014580
v 0.015015 0.009444 -0.014578
v 0.015045 0.009444 -0.014528
v 0.015012 0.009444 -0.014576
v 0.015015 0.009444 -0.014578
v 0.015012 0.009444 -0.014576
v 0.014995 0.009444 -0.014571
v 0.015003 0.009444 -0.014513
v 0.014995 0.009444 -0.014513
v 0.014995 0.009444 -0.014571
v 0.014998 0.009444 -0.014571
v 0.014998 0.009444 -0.014571
v 0.015012 0.009444 -0.014515
v 0.014998 0.009444 -0.014571
v 0.015001 0.009444 -0.014571
v 0.015021 0.009444 -0.014517
v 0.015001 0.009444 -0.014571
v 0.015004 0.009444 -0.014572
v 0.015001 0.009444 -0.014571
v 0.015004 0.009444 -0.014572
v 0.015029 0.009444 -0.014520
v 0.015004 0.009444 -0.014572
v 0.015007 0.009444 -0.014573
v 0.015007 0.009444 -0.014573
v 0.015037 0.009444 -0.014523
v 0.015007 0.009444 -0.014573
v 0.015010 0.009444 -0.014575
v 0.015010 0.009444 -0.014575
v 0.014964 0.009444 -0.014612
v 0.015012 0.009444 -0.014576
v 0.015010 0.009444 -0.014575
v 0.014995 0.009444 -0.014571
v 0.014964 0.009444 -0.014612
v 0.014963 0.009444 -0.014609
v 0.014963 0.009444 -0.014606
v 0.014963 0.009444 -0.014600
v 0.014963 0.009444 -0.014603
v 0.014963 0.009444 -0.014597
v 0.014964 0.009444 -0.014594
v 0.014965 0.009444 -0.014591
v 0.014966 0.009444 -0.014588
v 0.014972 0.009444 -0.014580
v 0.014968 0.009444 -0.014585
v 0.014970 0.009444 -0.014583
v 0.014974 0.009444 -0.014578
v 0.014977 0.009444 -0.014576
v 0.014980 0.009444 -0.014575
v 0.014982 0.009444 -0.014573
v 0.014985 0.009444 -0.014572
v 0.014988 0.009444 -0.014571
v 0.014986 0.009444 -0.014513
v 0.014995 0.009444 -0.014513
v 0.014986 0.009460 -0.014513
v 0.014977 0.009444 -0.014515
v 0.014986 0.009444 -0.014513
v 0.014968 0.009460 -0.014517
v 0.014968 0.009444 -0.014517
v 0.014977 0.009460 -0.014515
v 0.014960 0.009460 -0.014520
v 0.014960 0.009444 -0.014520
v 0.014952 0.009460 -0.014523
v 0.014952 0.009444 -0.014523
v 0.014945 0.009460 -0.014528
v 0.014945 0.009444 -0.014528
v 0.014938 0.009460 -0.014533
v 0.014938 0.009444 -0.014533
v 0.014931 0.009460 -0.014539
v 0.014931 0.009444 -0.014539
v 0.014925 0.009444 -0.014546
v 0.014931 0.009444 -0.014539
v 0.014925 0.009460 -0.014546
v 0.014920 0.009444 -0.014553
v 0.014925 0.009444 -0.014546
v 0.014920 0.009460 -0.014553
v 0.014915 0.009444 -0.014560
v 0.014920 0.009444 -0.014553
v 0.014915 0.009460 -0.014560
v 0.014911 0.009444 -0.014568
v 0.014915 0.009444 -0.014560
v 0.014911 0.009460 -0.014568
v 0.014908 0.009444 -0.014577
v 0.014911 0.009444 -0.014568
v 0.014908 0.009460 -0.014577
v 0.014906 0.009444 -0.014585
v 0.014908 0.009444 -0.014577
v 0.014906 0.009460 -0.014585
v 0.014906 0.009444 -0.014585
v 0.014905 0.009460 -0.014594
v 0.014905 0.009444 -0.014594
v 0.014905 0.009460 -0.014603
v 0.014905 0.009444 -0.014603
v 0.014905 0.009460 -0.014612
v 0.014905 0.009444 -0.014612
v 0.014906 0.009460 -0.014620
v 0.014906 0.009444 -0.014620
v 0.014908 0.009460 -0.014629
v 0.014908 0.009444 -0.014629
v 0.014908 0.009444 -0.014629
v 0.014911 0.009444 -0.014637
v 0.014911 0.009444 -0.014637
v 0.014911 0.009460 -0.014637
v 0.014915 0.009444 -0.014645
v 0.014915 0.009444 -0.014645
v 0.014915 0.009460 -0.014645
v 0.014920 0.009444 -0.014653
v 0.014920 0.009444 -0.014653
v 0.014920 0.009460 -0.014653
v 0.014925 0.009444 -0.014660
v 0.014925 0.009444 -0.014660
v 0.014925 0.009460 -0.014660
v 0.014931 0.009444 -0.014666
v 0.014931 0.009444 -0.014666
v 0.014931 0.009460 -0.014666
v 0.014938 0.009444 -0.014672
v 0.014938 0.009444 -0.014672
v 0.014938 0.009460 -0.014672
v 0.014945 0.009444 -0.014678
v 0.014945 0.009460 -0.014678
v 0.014952 0.009444 -0.014682
v 0.014952 0.009460 -0.014682
v 0.014960 0.009444 -0.014686
v 0.014960 0.009460 -0.014686
v 0.014968 0.009444 -0.014689
v 0.014968 0.009460 -0.014689
v 0.014977 0.009444 -0.014691
v 0.014968 0.009444 -0.014689
v 0.014986 0.009444 -0.014692
v 0.014977 0.009444 -0.014691
v 0.014977 0.009460 -0.014691
v 0.014995 0.009444 -0.014693
v 0.014986 0.009444 -0.014692
v 0.014986 0.009460 -0.014692
v 0.015003 0.009444 -0.014692
v 0.014995 0.009444 -0.014693
v 0.014995 0.009460 -0.014693
v 0.015012 0.009444 -0.014691
v 0.015003 0.009444 -0.014692
v 0.015003 0.009460 -0.014692
v 0.015021 0.009444 -0.014689
v 0.015012 0.009444 -0.014691
v 0.015012 0.009460 -0.014691
v 0.015029 0.009460 -0.014686
v 0.015029 0.009444 -0.014686
v 0.015021 0.009460 -0.014689
v 0.015045 0.009444 -0.014678
v 0.015037 0.009444 -0.014682
v 0.015037 0.009460 -0.014682
v 0.015052 0.009444 -0.014672
v 0.015045 0.009444 -0.014678
v 0.015045 0.009460 -0.014678
v 0.015058 0.009444 -0.014666
v 0.015052 0.009444 -0.014672
v 0.015052 0.009460 -0.014672
v 0.015064 0.009444 -0.014660
v 0.015058 0.009444 -0.014666
v 0.015058 0.009460 -0.014666
v 0.015069 0.009444 -0.014653
v 0.015064 0.009460 -0.014660
v 0.015069 0.009460 -0.014653
v 0.015074 0.009444 -0.014645
v 0.015074 0.009460 -0.014645
v 0.015078 0.009444 -0.014637
v 0.015078 0.009460 -0.014637
v 0.015081 0.009444 -0.014629
v 0.015081 0.009460 -0.014629
v 0.015083 0.009444 -0.014620
v 0.015083 0.009444 -0.014620
v 0.015083 0.009460 -0.014620
v 0.015084 0.009444 -0.014612
v 0.015084 0.009444 -0.014612
v 0.015084 0.009460 -0.014612
v 0.015085 0.009444 -0.014603
v 0.015085 0.009444 -0.014603
v 0.015085 0.009460 -0.014603
v 0.015084 0.009444 -0.014594
v 0.015084 0.009460 -0.014594
v 0.015083 0.009460 -0.014585
v 0.015083 0.009444 -0.014585
v 0.015081 0.009460 -0.014577
v 0.015081 0.009444 -0.014577
v 0.015078 0.009460 -0.014568
v 0.015078 0.009444 -0.014568
v 0.015074 0.009460 -0.014560
v 0.015074 0.009444 -0.014560
v 0.015069 0.009460 -0.014553
v 0.015064 0.009444 -0.014546
v 0.015069 0.009444 -0.014553
v 0.015064 0.009460 -0.014546
v 0.015058 0.009444 -0.014539
v 0.015064 0.009444 -0.014546
v 0.015058 0.009460 -0.014539
v 0.015052 0.009444 -0.014533
v 0.015058 0.009444 -0.014539
v 0.015037 0.009444 -0.014523
v 0.015045 0.009460 -0.014528
v 0.015037 0.009460 -0.014523
v 0.015029 0.009444 -0.014520
v 0.015029 0.009460 -0.014520
v 0.015021 0.009444 -0.014517
v 0.015021 0.009460 -0.014517
v 0.015012 0.009444 -0.014515
v 0.015012 0.009460 -0.014515
v 0.015003 0.009444 -0.014513
v 0.015003 0.009460 -0.014513
v 0.014977 0.009444 -0.014515
v 0.015052 0.009460 -0.014533
v 0.015045 0.009444 -0.014528
v 0.015052 0.009444 -0.014533
v 0.014995 0.009444 -0.014513
v 0.015003 0.009444 -0.014513
v 0.015003 0.009444 -0.014513
v 0.015012 0.009444 -0.014515
v 0.015012 0.009444 -0.014515
v 0.015021 0.009444 -0.014517
v 0.015021 0.009444 -0.014517
v 0.015029 0.009444 -0.014520
v 0.015029 0.009444 -0.014520
v 0.015037 0.009444 -0.014523
v 0.015037 0.009444 -0.014523
v 0.015045 0.009444 -0.014528
v 0.015045 0.009444 -0.014528
v 0.015052 0.009444 -0.014533
v 0.015058 0.009444 -0.014539
v 0.015064 0.009444 -0.014546
v 0.015069 0.009444 -0.014553
v 0.015074 0.009444 -0.014560
v 0.015069 0.009444 -0.014553
v 0.015078 0.009444 -0.014568
v 0.015074 0.009444 -0.014560
v 0.015081 0.009444 -0.014577
v 0.015078 0.009444 -0.014568
v 0.015083 0.009444 -0.014585
v 0.015081 0.009444 -0.014577
v 0.015084 0.009444 -0.014594
v 0.015083 0.009444 -0.014585
v 0.015084 0.009444 -0.014594
v 0.015085 0.009444 -0.014603
v 0.015084 0.009444 -0.014612
v 0.015083 0.009444 -0.014620
v 0.015081 0.009444 -0.014629
v 0.015081 0.009444 -0.014629
v 0.015078 0.009444 -0.014637
v 0.015078 0.009444 -0.014637
v 0.015074 0.009444 -0.014645
v 0.015074 0.009444 -0.014645
v 0.015069 0.009444 -0.014653
v 0.015069 0.009444 -0.014653
v 0.015064 0.009444 -0.014660
v 0.015064 0.009444 -0.014660
v 0.015058 0.009444 -0.014666
v 0.015052 0.009444 -0.014672
v 0.015045 0.009444 -0.014678
v 0.015037 0.009444 -0.014682
v 0.015037 0.009444 -0.014682
v 0.015029 0.009444 -0.014686
v 0.015021 0.009444 -0.014689
v 0.015021 0.009444 -0.014689
v 0.015029 0.009444 -0.014686
v 0.015012 0.009444 -0.014691
v 0.015003 0.009444 -0.014692
v 0.014995 0.009444 -0.014693
v 0.014986 0.009444 -0.014692
v 0.014977 0.009444 -0.014691
v 0.014968 0.009444 -0.014689
v 0.014960 0.009444 -0.014686
v 0.014960 0.009444 -0.014686
v 0.014952 0.009444 -0.014682
v 0.014952 0.009444 -0.014682
v 0.014945 0.009444 -0.014678
v 0.014945 0.009444 -0.014678
v 0.014938 0.009444 -0.014672
v 0.014931 0.009444 -0.014666
v 0.014925 0.009444 -0.014660
v 0.014920 0.009444 -0.014653
v 0.014915 0.009444 -0.014645
v 0.014911 0.009444 -0.014637
v 0.014908 0.009444 -0.014629
v 0.014906 0.009444 -0.014620
v 0.014906 0.009444 -0.014620
v 0.014905 0.009444 -0.014612
v 0.014905 0.009444 -0.014612
v 0.014905 0.009444 -0.014603
v 0.014905 0.009444 -0.014603
v 0.014905 0.009444 -0.014594
v 0.014905 0.009444 -0.014594
v 0.014906 0.009444 -0.014585
v 0.014908 0.009444 -0.014577
v 0.014911 0.009444 -0.014568
v 0.014915 0.009444 -0.014560
v 0.014920 0.009444 -0.014553
v 0.014925 0.009444 -0.014546
v 0.014938 0.009444 -0.014533
v 0.014931 0.009444 -0.014539
v 0.014945 0.009444 -0.014528
v 0.014938 0.009444 -0.014533
v 0.014952 0.009444 -0.014523
v 0.014945 0.009444 -0.014528
v 0.014960 0.009444 -0.014520
v 0.014952 0.009444 -0.014523
v 0.014968 0.009444 -0.014517
v 0.014960 0.009444 -0.014520
v 0.014995 0.009444 -0.014513
v 0.014995 0.009460 -0.014513
v 0.014995 0.009444 -0.014513
v 0.014968 0.009444 -0.014517
v 0.014977 0.009444 -0.014515
v 0.014991 0.009460 -0.014571
v 0.014986 0.009460 -0.014513
v 0.014995 0.009460 -0.014513
v 0.014991 0.009460 -0.014571
v 0.014977 0.009460 -0.014515
v 0.014986 0.009460 -0.014513
v 0.014988 0.009460 -0.014571
v 0.014968 0.009460 -0.014517
v 0.014977 0.009460 -0.014515
v 0.014988 0.009460 -0.014571
v 0.014985 0.009460 -0.014572
v 0.014968 0.009460 -0.014517
v 0.014985 0.009460 -0.014572
v 0.014982 0.009460 -0.014573
v 0.014960 0.009460 -0.014520
v 0.014960 0.009460 -0.014520
v 0.014982 0.009460 -0.014573
v 0.014952 0.009460 -0.014523
v 0.014952 0.009460 -0.014523
v 0.014980 0.009460 -0.014575
v 0.014945 0.009460 -0.014528
v 0.014945 0.009460 -0.014528
v 0.014980 0.009460 -0.014575
v 0.014977 0.009460 -0.014576
v 0.014938 0.009460 -0.014533
v 0.014977 0.009460 -0.014576
v 0.014974 0.009460 -0.014578
v 0.014931 0.009460 -0.014539
v 0.014938 0.009460 -0.014533
v 0.014974 0.009460 -0.014578
v 0.014925 0.009460 -0.014546
v 0.014931 0.009460 -0.014539
v 0.014972 0.009460 -0.014580
v 0.014920 0.009460 -0.014553
v 0.014968 0.009460 -0.014585
v 0.014915 0.009460 -0.014560
v 0.014970 0.009460 -0.014583
v 0.014925 0.009460 -0.014546
v 0.014972 0.009460 -0.014580
v 0.014915 0.009460 -0.014560
v 0.014966 0.009460 -0.014588
v 0.014911 0.009460 -0.014568
v 0.014911 0.009460 -0.014568
v 0.014965 0.009460 -0.014591
v 0.014908 0.009460 -0.014577
v 0.014908 0.009460 -0.014577
v 0.014964 0.009460 -0.014594
v 0.014906 0.009460 -0.014585
v 0.014906 0.009460 -0.014585
v 0.014963 0.009460 -0.014597
v 0.014905 0.009460 -0.014594
v 0.014963 0.009460 -0.014600
v 0.014905 0.009460 -0.014603
v 0.014905 0.009460 -0.014594
v 0.014963 0.009460 -0.014600
v 0.014963 0.009460 -0.014603
v 0.014905 0.009460 -0.014603
v 0.014963 0.009460 -0.014603
v 0.014963 0.009460 -0.014606
v 0.014905 0.009460 -0.014612
v 0.014963 0.009460 -0.014606
v 0.014963 0.009460 -0.014609
v 0.014906 0.009460 -0.014620
v 0.014963 0.009460 -0.014609
v 0.014964 0.009460 -0.014612
v 0.014908 0.009460 -0.014629
v 0.014920 0.009460 -0.014653
v 0.014966 0.009460 -0.014618
v 0.014968 0.009460 -0.014621
v 0.014908 0.009460 -0.014629
v 0.014964 0.009460 -0.014612
v 0.014911 0.009460 -0.014637
v 0.014925 0.009460 -0.014660
v 0.014968 0.009460 -0.014621
v 0.014970 0.009460 -0.014623
v 0.014931 0.009460 -0.014666
v 0.014972 0.009460 -0.014625
v 0.014938 0.009460 -0.014672
v 0.014938 0.009460 -0.014672
v 0.014974 0.009460 -0.014628
v 0.014945 0.009460 -0.014678
v 0.014945 0.009460 -0.014678
v 0.014977 0.009460 -0.014629
v 0.014952 0.009460 -0.014682
v 0.014952 0.009460 -0.014682
v 0.014980 0.009460 -0.014631
v 0.014960 0.009460 -0.014686
v 0.014960 0.009460 -0.014686
v 0.014982 0.009460 -0.014632
v 0.014968 0.009460 -0.014689
v 0.014968 0.009460 -0.014689
v 0.014985 0.009460 -0.014633
v 0.014977 0.009460 -0.014691
v 0.014977 0.009460 -0.014691
v 0.014988 0.009460 -0.014634
v 0.014986 0.009460 -0.014692
v 0.014991 0.009460 -0.014635
v 0.014995 0.009460 -0.014693
v 0.014986 0.009460 -0.014692
v 0.014991 0.009460 -0.014635
v 0.014995 0.009460 -0.014635
v 0.014995 0.009460 -0.014693
v 0.014995 0.009460 -0.014635
v 0.014998 0.009460 -0.014635
v 0.015003 0.009460 -0.014692
v 0.014998 0.009460 -0.014635
v 0.015001 0.009460 -0.014634
v 0.015012 0.009460 -0.014691
v 0.015001 0.009460 -0.014634
v 0.015004 0.009460 -0.014633
v 0.015021 0.009460 -0.014689
v 0.015045 0.009460 -0.014678
v 0.015010 0.009460 -0.014631
v 0.015012 0.009460 -0.014629
v 0.015021 0.009460 -0.014689
v 0.015004 0.009460 -0.014633
v 0.015029 0.009460 -0.014686
v 0.015052 0.009460 -0.014672
v 0.015012 0.009460 -0.014629
v 0.015015 0.009460 -0.014628
v 0.015058 0.009460 -0.014666
v 0.015017 0.009460 -0.014625
v 0.015064 0.009460 -0.014660
v 0.015064 0.009460 -0.014660
v 0.015019 0.009460 -0.014623
v 0.015069 0.009460 -0.014653
v 0.015069 0.009460 -0.014653
v 0.015021 0.009460 -0.014621
v 0.015074 0.009460 -0.014645
v 0.015074 0.009460 -0.014645
v 0.015023 0.009460 -0.014618
v 0.015078 0.009460 -0.014637
v 0.015078 0.009460 -0.014637
v 0.015024 0.009460 -0.014615
v 0.015081 0.009460 -0.014629
v 0.015081 0.009460 -0.014629
v 0.015025 0.009460 -0.014612
v 0.015083 0.009460 -0.014620
v 0.015083 0.009460 -0.014620
v 0.015026 0.009460 -0.014609
v 0.015084 0.009460 -0.014612
v 0.015026 0.009460 -0.014606
v 0.015085 0.009460 -0.014603
v 0.015084 0.009460 -0.014612
v 0.015026 0.009460 -0.014606
v 0.015027 0.009460 -0.014603
v 0.015085 0.009460 -0.014603
v 0.015027 0.009460 -0.014603
v 0.015026 0.009460 -0.014600
v 0.015084 0.009460 -0.014594
v 0.015026 0.009460 -0.014600
v 0.015026 0.009460 -0.014597
v 0.015083 0.009460 -0.014585
v 0.015026 0.009460 -0.014597
v 0.015025 0.009460 -0.014594
v 0.015081 0.009460 -0.014577
v 0.015069 0.009460 -0.014553
v 0.015023 0.009460 -0.014588
v 0.015021 0.009460 -0.014585
v 0.015081 0.009460 -0.014577
v 0.015025 0.009460 -0.014594
v 0.015078 0.009460 -0.014568
v 0.015064 0.009460 -0.014546
v 0.015021 0.009460 -0.014585
v 0.015019 0.009460 -0.014583
v 0.015058 0.009460 -0.014539
v 0.015017 0.009460 -0.014580
v 0.015052 0.009460 -0.014533
v 0.015052 0.009460 -0.014533
v 0.015015 0.009460 -0.014578
v 0.015045 0.009460 -0.014528
v 0.015045 0.009460 -0.014528
v 0.015012 0.009460 -0.014576
v 0.015037 0.009460 -0.014523
v 0.015037 0.009460 -0.014523
v 0.015010 0.009460 -0.014575
v 0.015029 0.009460 -0.014520
v 0.015029 0.009460 -0.014520
v 0.015007 0.009460 -0.014573
v 0.015021 0.009460 -0.014517
v 0.014995 0.009460 -0.014513
v 0.014995 0.009460 -0.014571
v 0.014991 0.009460 -0.014571
v 0.014998 0.009460 -0.014571
v 0.014995 0.009460 -0.014513
v 0.015003 0.009460 -0.014513
v 0.014998 0.009460 -0.014571
v 0.014995 0.009460 -0.014571
v 0.014995 0.009460 -0.014513
v 0.015001 0.009460 -0.014571
v 0.014998 0.009460 -0.014571
v 0.015003 0.009460 -0.014513
v 0.015012 0.009460 -0.014515
v 0.015001 0.009460 -0.014571
v 0.015003 0.009460 -0.014513
v 0.015012 0.009460 -0.014515
v 0.015004 0.009460 -0.014572
v 0.015001 0.009460 -0.014571
v 0.015012 0.009460 -0.014515
v 0.015021 0.009460 -0.014517
v 0.015004 0.009460 -0.014572
v 0.015004 0.009460 -0.014572
v 0.015021 0.009460 -0.014517
v 0.015007 0.009460 -0.014573
v 0.015007 0.009460 -0.014573
v 0.015029 0.009460 -0.014520
v 0.015010 0.009460 -0.014575
v 0.015010 0.009460 -0.014575
v 0.015037 0.009460 -0.014523
v 0.015012 0.009460 -0.014576
v 0.015012 0.009460 -0.014576
v 0.015045 0.009460 -0.014528
v 0.015015 0.009460 -0.014578
v 0.015015 0.009460 -0.014578
v 0.015052 0.009460 -0.014533
v 0.015017 0.009460 -0.014580
v 0.015017 0.009460 -0.014580
v 0.015058 0.009460 -0.014539
v 0.015019 0.009460 -0.014583
v 0.015019 0.009460 -0.014583
v 0.015058 0.009460 -0.014539
v 0.015064 0.009460 -0.014546
v 0.015021 0.009460 -0.014585
v 0.015064 0.009460 -0.014546
v 0.015069 0.009460 -0.014553
v 0.015023 0.009460 -0.014588
v 0.015069 0.009460 -0.014553
v 0.015074 0.009460 -0.014560
v 0.015074 0.009460 -0.014560
v 0.015024 0.009460 -0.014591
v 0.015023 0.009460 -0.014588
v 0.015074 0.009460 -0.014560
v 0.015078 0.009460 -0.014568
v 0.015024 0.009460 -0.014591
v 0.015024 0.009460 -0.014591
v 0.015078 0.009460 -0.014568
v 0.015025 0.009460 -0.014594
v 0.015081 0.009460 -0.014577
v 0.015083 0.009460 -0.014585
v 0.015026 0.009460 -0.014597
v 0.015083 0.009460 -0.014585
v 0.015084 0.009460 -0.014594
v 0.015026 0.009460 -0.014600
v 0.015084 0.009460 -0.014594
v 0.015085 0.009460 -0.014603
v 0.015027 0.009460 -0.014603
v 0.015025 0.009460 -0.014612
v 0.015081 0.009460 -0.014629
v 0.015024 0.009460 -0.014615
v 0.015025 0.009460 -0.014612
v 0.015026 0.009460 -0.014609
v 0.015083 0.009460 -0.014620
v 0.015024 0.009460 -0.014615
v 0.015078 0.009460 -0.014637
v 0.015023 0.009460 -0.014618
v 0.015023 0.009460 -0.014618
v 0.015074 0.009460 -0.014645
v 0.015021 0.009460 -0.014621
v 0.015021 0.009460 -0.014621
v 0.015069 0.009460 -0.014653
v 0.015019 0.009460 -0.014623
v 0.015019 0.009460 -0.014623
v 0.015064 0.009460 -0.014660
v 0.015017 0.009460 -0.014625
v 0.015017 0.009460 -0.014625
v 0.015058 0.009460 -0.014666
v 0.015015 0.009460 -0.014628
v 0.015015 0.009460 -0.014628
v 0.015058 0.009460 -0.014666
v 0.015052 0.009460 -0.014672
v 0.015012 0.009460 -0.014629
v 0.015052 0.009460 -0.014672
v 0.015045 0.009460 -0.014678
v 0.015084 0.009460 -0.014612
v 0.015026 0.009460 -0.014609
v 0.015026 0.009460 -0.014606
v 0.015037 0.009460 -0.014682
v 0.015007 0.009460 -0.014632
v 0.015010 0.009460 -0.014631
v 0.015037 0.009460 -0.014682
v 0.015029 0.009460 -0.014686
v 0.015007 0.009460 -0.014632
v 0.015007 0.009460 -0.014632
v 0.015029 0.009460 -0.014686
v 0.015004 0.009460 -0.014633
v 0.015021 0.009460 -0.014689
v 0.015012 0.009460 -0.014691
v 0.015001 0.009460 -0.014634
v 0.015012 0.009460 -0.014691
v 0.015003 0.009460 -0.014692
v 0.014998 0.009460 -0.014635
v 0.015003 0.009460 -0.014692
v 0.014995 0.009460 -0.014693
v 0.014995 0.009460 -0.014635
v 0.014985 0.009460 -0.014633
v 0.014968 0.009460 -0.014689
v 0.014982 0.009460 -0.014632
v 0.014985 0.009460 -0.014633
v 0.014988 0.009460 -0.014634
v 0.014977 0.009460 -0.014691
v 0.014982 0.009460 -0.014632
v 0.014960 0.009460 -0.014686
v 0.014980 0.009460 -0.014631
v 0.014980 0.009460 -0.014631
v 0.014952 0.009460 -0.014682
v 0.014977 0.009460 -0.014629
v 0.014977 0.009460 -0.014629
v 0.014945 0.009460 -0.014678
v 0.014974 0.009460 -0.014628
v 0.014974 0.009460 -0.014628
v 0.014938 0.009460 -0.014672
v 0.014972 0.009460 -0.014625
v 0.014972 0.009460 -0.014625
v 0.014931 0.009460 -0.014666
v 0.014970 0.009460 -0.014623
v 0.014970 0.009460 -0.014623
v 0.014931 0.009460 -0.014666
v 0.014925 0.009460 -0.014660
v 0.014968 0.009460 -0.014621
v 0.014925 0.009460 -0.014660
v 0.014920 0.009460 -0.014653
v 0.014915 0.009460 -0.014645
v 0.014966 0.009460 -0.014618
v 0.014920 0.009460 -0.014653
v 0.014915 0.009460 -0.014645
v 0.014965 0.009460 -0.014615
v 0.014966 0.009460 -0.014618
v 0.014915 0.009460 -0.014645
v 0.014911 0.009460 -0.014637
v 0.014965 0.009460 -0.014615
v 0.014965 0.009460 -0.014615
v 0.014911 0.009460 -0.014637
v 0.014964 0.009460 -0.014612
v 0.014908 0.009460 -0.014629
v 0.014906 0.009460 -0.014620
v 0.014963 0.009460 -0.014609
v 0.014906 0.009460 -0.014620
v 0.014905 0.009460 -0.014612
v 0.014963 0.009460 -0.014606
v 0.014905 0.009460 -0.014612
v 0.014905 0.009460 -0.014603
v 0.014963 0.009460 -0.014603
v 0.014964 0.009460 -0.014594
v 0.014908 0.009460 -0.014577
v 0.014965 0.009460 -0.014591
v 0.014964 0.009460 -0.014594
v 0.014963 0.009460 -0.014597
v 0.014906 0.009460 -0.014585
v 0.014965 0.009460 -0.014591
v 0.014911 0.009460 -0.014568
v 0.014966 0.009460 -0.014588
v 0.014966 0.009460 -0.014588
v 0.014915 0.009460 -0.014560
v 0.014968 0.009460 -0.014585
v 0.014968 0.009460 -0.014585
v 0.014920 0.009460 -0.014553
v 0.014970 0.009460 -0.014583
v 0.014970 0.009460 -0.014583
v 0.014920 0.009460 -0.014553
v 0.014925 0.009460 -0.014546
v 0.014972 0.009460 -0.014580
v 0.014931 0.009460 -0.014539
v 0.014974 0.009460 -0.014578
v 0.014938 0.009460 -0.014533
v 0.014945 0.009460 -0.014528
v 0.014977 0.009460 -0.014576
v 0.014952 0.009460 -0.014523
v 0.014982 0.009460 -0.014573
v 0.014980 0.009460 -0.014575
v 0.014960 0.009460 -0.014520
v 0.014968 0.009460 -0.014517
v 0.014985 0.009460 -0.014572
v 0.014986 0.009460 -0.014692
v 0.014988 0.009460 -0.014634
v 0.014991 0.009460 -0.014635
v 0.015037 0.009460 -0.014682
v 0.015010 0.009460 -0.014631
v 0.015045 0.009460 -0.014678
v 0.014991 0.009460 -0.014571
v 0.014988 0.009460 -0.014571
v 0.014977 0.009460 -0.014515
v 0.014905 0.009460 -0.014594
v 0.014963 0.009460 -0.014597
v 0.014963 0.009460 -0.014600
vn -0.0980 -0.0000 -0.9952
vn -0.0000 -0.0000 -1.0000
vn -0.1951 -0.0000 -0.9808
vn -0.2903 -0.0000 -0.9569
vn -0.3827 -0.0000 -0.9239
vn -0.4714 -0.0000 -0.8819
vn -0.5556 -0.0000 -0.8315
vn -0.6344 -0.0000 -0.7730
vn -0.7071 -0.0000 -0.7071
vn -0.7730 -0.0000 -0.6344
vn -0.7731 -0.0000 -0.6343
vn -0.8315 -0.0000 -0.5556
vn -0.8314 -0.0000 -0.5556
vn -0.8819 -0.0000 -0.4714
vn -0.9239 -0.0000 -0.3827
vn -0.9569 -0.0000 -0.2903
vn -0.9808 -0.0000 -0.1951
vn -0.9952 -0.0000 -0.0980
vn -1.0000 -0.0000 0.0001
vn -1.0000 -0.0000 -0.0000
vn -0.9952 -0.0000 0.0980
vn -0.9808 -0.0000 0.1951
vn -0.9569 -0.0000 0.2903
vn -0.9239 -0.0000 0.3827
vn -0.8819 -0.0000 0.4714
vn -0.8314 -0.0000 0.5556
vn -0.7730 -0.0000 0.6344
vn -0.7071 -0.0000 0.7071
vn -0.6344 -0.0000 0.7730
vn -0.5556 -0.0000 0.8315
vn -0.4714 -0.0000 0.8819
vn -0.3827 -0.0000 0.9239
vn -0.2903 -0.0000 0.9569
vn -0.1951 -0.0000 0.9808
vn -0.0980 -0.0000 0.9952
vn -0.0000 -0.0000 1.0000
vn 0.0980 -0.0000 0.9952
vn 0.1951 -0.0000 0.9808
vn 0.2903 -0.0000 0.9569
vn 0.3824 -0.0000 0.9240
vn 0.3830 -0.0000 0.9238
vn 0.4714 -0.0000 0.8819
vn 0.6344 -0.0000 0.7730
vn 0.5556 -0.0000 0.8315
vn 0.7071 -0.0000 0.7071
vn 0.7730 -0.0000 0.6344
vn 0.8314 -0.0000 0.5556
vn 0.8819 -0.0000 0.4714
vn 0.8315 -0.0000 0.5556
vn 0.9239 -0.0000 0.3827
vn 0.9569 -0.0000 0.2903
vn 0.9808 -0.0000 0.1951
vn 0.9952 -0.0000 0.0980
vn 1.0000 -0.0000 -0.0000
vn 0.9952 -0.0000 -0.0980
vn 0.9569 -0.0000 -0.2903
vn 0.9808 -0.0000 -0.1951
vn 0.9239 -0.0000 -0.3827
vn 0.8819 -0.0000 -0.4714
vn 0.8315 -0.0000 -0.5556
vn 0.7731 -0.0000 -0.6343
vn 0.7071 -0.0000 -0.7071
vn 0.7730 -0.0000 -0.6344
vn 0.6343 -0.0000 -0.7731
vn 0.6344 -0.0000 -0.7730
vn 0.5556 -0.0000 -0.8315
vn 0.5555 -0.0000 -0.8315
vn 0.4714 -0.0000 -0.8819
vn 0.3827 -0.0000 -0.9239
vn 0.2903 -0.0000 -0.9569
vn 0.1951 -0.0000 -0.9808
vn 0.0980 -0.0000 -0.9952
vn 0.5555 -0.0000 0.8315
vn -0.0000 -1.0000 -0.0000
vn -0.0000 -1.0000 -0.0002
vn -0.0000 -1.0000 0.0001
vn -0.0000 -1.0000 -0.0001
vn -0.0000 -1.0000 0.0003
vn -0.0000 -1.0000 0.0002
vn -0.7072 -0.0000 -0.7071
vn 0.5556 -0.0000 -0.8314
vn 0.7071 -0.0000 -0.7072
vn 0.7071 -0.0000 0.7072
vn 0.3827 -0.0000 0.9239
vn 0.7072 -0.0000 0.7071
vn 0.7072 -0.0000 -0.7071
vn -0.5556 -0.0000 -0.8314
vn -0.8315 -0.0000 0.5556
vn -0.5556 -0.0000 0.8314
vn -0.0000 1.0000 -0.0000
vn -0.0000 1.0000 -0.0001
vn -0.0000 1.0000 0.0002
vn -0.0000 1.0000 0.0001
vn -0.0000 1.0000 -0.0002
vt -0.160000 -0.031365
vt -0.000000 -0.031365
vt -0.160000 0.000000
vt -0.160000 -0.062429
vt -0.160000 -0.092891
vt -0.000000 -0.062429
vt -0.000000 -0.092891
vt -0.000000 -0.122459
vt -0.160000 -0.122459
vt -0.000000 -0.150847
vt -0.160000 -0.150847
vt -0.160000 -0.177782
vt -0.000000 -0.177782
vt -0.160000 -0.203006
vt -0.000000 -0.203006
vt -0.160000 -0.226274
vt -0.000000 -0.226274
vt 0.226274 0.000000
vt 0.203006 0.160000
vt 0.203006 0.000000
vt 0.177782 0.160000
vt 0.177782 0.000000
vt 0.150847 0.160000
vt 0.150847 0.000000
vt 0.122459 0.160000
vt 0.092891 0.160000
vt 0.122459 0.000000
vt 0.062429 0.160000
vt 0.092891 0.000000
vt 0.031365 0.160000
vt 0.062429 0.000000
vt 0.031365 0.000000
vt -0.000000 0.160000
vt -0.000000 0.000000
vt -0.031365 0.160000
vt -0.031365 0.000000
vt -0.062429 0.160000
vt -0.062429 0.000000
vt -0.092891 0.160000
vt -0.122459 0.160000
vt -0.092891 0.000000
vt -0.150847 0.160000
vt -0.122459 0.000000
vt -0.177782 0.160000
vt -0.150847 0.000000
vt -0.177782 0.000000
vt -0.203006 0.000000
vt -0.203006 0.160000
vt -0.226274 0.000000
vt -0.226274 0.160000
vt 0.160000 -0.203006
vt 0.160000 -0.177782
vt 0.160000 -0.150847
vt 0.160000 -0.122459
vt 0.160000 -0.092891
vt 0.160000 -0.062429
vt 0.160000 -0.031365
vt 0.160000 0.000000
vt 0.160000 0.031365
vt 0.160000 0.062429
vt 0.000000 0.031365
vt 0.160000 0.092891
vt 0.000000 0.062429
vt 0.000000 0.092891
vt 0.160000 0.122459
vt 0.000000 0.122459
vt 0.160000 0.150847
vt 0.000000 0.150847
vt 0.160000 0.203006
vt 0.000000 0.203006
vt 0.000000 0.177782
vt 0.160000 0.226274
vt 0.000000 0.226274
vt -0.160000 0.226274
vt -0.160000 0.203006
vt -0.160000 0.177782
vt -0.160000 0.150847
vt -0.160000 0.122459
vt -0.160000 0.092891
vt -0.160000 0.062429
vt -0.160000 0.031365
vt 0.226274 0.160000
vt 0.160000 0.177782
vt 0.160000 -0.226274
vt 0.318459 0.031365
vt 0.895666 0.088215
vt 0.313851 0.062429
vt 0.320000 0.000000
vt 0.882707 0.175581
vt 0.306221 0.092891
vt 0.861246 0.261256
vt 0.295641 0.122459
vt 0.831492 0.344415
vt 0.282215 0.150847
vt 0.266070 0.177782
vt 0.793729 0.424257
vt 0.748323 0.500013
vt 0.695709 0.570954
vt 0.247363 0.203006
vt 0.226274 0.226274
vt 0.636396 0.636396
vt 0.203006 0.247363
vt 0.570954 0.695709
vt 0.500013 0.748323
vt 0.177782 0.266070
vt 0.150847 0.282215
vt 0.122459 0.295641
vt 0.424257 0.793729
vt 0.344415 0.831492
vt 0.261256 0.861246
vt 0.092891 0.306221
vt 0.062429 0.313851
vt 0.175581 0.882707
vt 0.031365 0.318459
vt 0.088215 0.895666
vt 0.000000 0.900000
vt 0.000000 0.320000
vt -0.031365 0.318459
vt -0.088215 0.895666
vt -0.062429 0.313851
vt -0.175581 0.882707
vt -0.261256 0.861246
vt -0.344415 0.831492
vt -0.122459 0.295641
vt -0.092891 0.306221
vt -0.424257 0.793729
vt -0.150847 0.282215
vt -0.500013 0.748323
vt -0.177782 0.266070
vt -0.570954 0.695709
vt -0.203006 0.247363
vt -0.636396 0.636396
vt -0.226274 0.226274
vt -0.695709 0.570954
vt -0.247363 0.203006
vt -0.748323 0.500013
vt -0.266070 0.177782
vt -0.793729 0.424257
vt -0.282215 0.150847
vt -0.831492 0.344415
vt -0.295641 0.122459
vt -0.861246 0.261256
vt -0.306221 0.092891
vt -0.882707 0.175581
vt -0.313851 0.062429
vt -0.895666 0.088215
vt -0.318459 0.031365
vt -0.900000 0.000000
vt -0.320000 0.000000
vt -0.895666 -0.088215
vt -0.318459 -0.031365
vt -0.882707 -0.175581
vt -0.313851 -0.062429
vt -0.861246 -0.261256
vt -0.306221 -0.092891
vt -0.831492 -0.344415
vt -0.295641 -0.122459
vt -0.793729 -0.424257
vt -0.282215 -0.150847
vt -0.748323 -0.500013
vt -0.266070 -0.177782
vt -0.695709 -0.570954
vt -0.247363 -0.203006
vt -0.636396 -0.636396
vt -0.226274 -0.226274
vt -0.570954 -0.695709
vt -0.203006 -0.247363
vt -0.500013 -0.748323
vt -0.177782 -0.266070
vt -0.424257 -0.793729
vt -0.150847 -0.282215
vt -0.344415 -0.831492
vt -0.122459 -0.295641
vt -0.261256 -0.861246
vt -0.092891 -0.306221
vt -0.175581 -0.882707
vt -0.062429 -0.313851
vt -0.088215 -0.895666
vt -0.031365 -0.318459
vt -0.000000 -0.900000
vt -0.000000 -0.320000
vt 0.088215 -0.895666
vt 0.031365 -0.318459
vt 0.175581 -0.882707
vt 0.062429 -0.313851
vt 0.261256 -0.861246
vt 0.092891 -0.306221
vt 0.344415 -0.831492
vt 0.122459 -0.295641
vt 0.424257 -0.793729
vt 0.150847 -0.282215
vt 0.500013 -0.748323
vt 0.177782 -0.266070
vt 0.570954 -0.695709
vt 0.203006 -0.247363
vt 0.636396 -0.636396
vt 0.226274 -0.226274
vt 0.695709 -0.570954
vt 0.247363 -0.203006
vt 0.748323 -0.500013
vt 0.266070 -0.177782
vt 0.895666 -0.088215
vt 0.900000 0.000000
vt 0.318459 -0.031365
vt 0.882707 -0.175581
vt 0.313851 -0.062429
vt 0.861246 -0.261256
vt 0.306221 -0.092891
vt 0.831492 -0.344415
vt 0.295641 -0.122459
vt 0.793729 -0.424257
vt 0.282215 -0.150847
vt 0.000000 0.088215
vt 0.160000 0.088215
vt 0.000000 0.175581
vt 0.160000 0.261256
vt 0.000000 0.261256
vt 0.160000 0.175581
vt 0.160000 0.344415
vt 0.000000 0.344415
vt 0.160000 0.424257
vt 0.000000 0.424257
vt 0.160000 0.500013
vt 0.000000 0.500013
vt 0.160000 0.570954
vt 0.000000 0.570954
vt 0.160000 0.636396
vt 0.000000 0.636396
vt 0.636396 0.160000
vt 0.570954 0.000000
vt 0.636396 0.000000
vt 0.570954 0.160000
vt 0.500013 0.000000
vt 0.500013 0.160000
vt 0.424257 0.000000
vt 0.424257 0.160000
vt 0.344415 0.000000
vt 0.344415 0.160000
vt 0.261256 0.000000
vt 0.261256 0.160000
vt 0.175581 0.000000
vt 0.175581 0.160000
vt 0.088215 0.160000
vt 0.088215 0.000000
vt -0.088215 0.160000
vt -0.088215 0.000000
vt -0.175581 0.160000
vt -0.175581 0.000000
vt -0.261256 0.160000
vt -0.261256 0.000000
vt -0.344415 0.000000
vt -0.344415 0.160000
vt -0.424257 0.000000
vt -0.424257 0.160000
vt -0.500013 0.000000
vt -0.500013 0.160000
vt -0.570954 0.000000
vt -0.570954 0.160000
vt -0.636396 0.000000
vt -0.160000 0.636396
vt -0.160000 0.570954
vt -0.160000 0.500013
vt -0.160000 0.424257
vt -0.160000 0.344415
vt -0.160000 0.261256
vt -0.160000 0.175581
vt -0.160000 0.088215
vt -0.000000 -0.088215
vt -0.000000 -0.175581
vt -0.160000 -0.088215
vt -0.000000 -0.261256
vt -0.160000 -0.175581
vt -0.160000 -0.344415
vt -0.000000 -0.344415
vt -0.160000 -0.261256
vt -0.000000 -0.500013
vt -0.000000 -0.424257
vt -0.160000 -0.424257
vt -0.000000 -0.570954
vt -0.160000 -0.500013
vt -0.000000 -0.636396
vt -0.160000 -0.570954
vt 0.160000 -0.636396
vt 0.160000 -0.500013
vt 0.160000 -0.424257
vt 0.160000 -0.344415
vt 0.160000 -0.261256
vt 0.160000 -0.175581
vt 0.160000 -0.088215
vt 0.160000 -0.570954
vt -0.636396 0.160000
vt -0.160000 -0.636396
s 1
usemtl Diffuse_51_51_51_100.055
f 1/1/1 2/2/1 3/3/2
f 4/4/3 2/2/1 1/1/1
f 5/5/4 6/6/3 4/4/3
f 7/7/4 6/6/3 5/5/4
f 8/8/5 7/7/4 9/9/5
f 10/10/6 11/11/6 12/12/7
f 10/10/6 12/12/7 13/13/7
f 13/13/7 14/14/8 15/15/8
f 15/15/8 16/16/9 17/17/9
f 17/18/9 18/19/10 19/20/11
f 19/20/11 20/21/12 21/22/13
f 21/22/13 22/23/14 23/24/14
f 22/23/14 24/25/15 23/24/14
f 24/25/15 25/26/16 26/27/15
f 25/26/16 27/28/17 28/29/16
f 27/28/17 29/30/18 30/31/17
f 29/30/18 31/32/18 30/31/17
f 32/33/19 33/34/20 31/32/18
f 34/35/21 35/36/21 33/34/20
f 36/37/22 37/38/22 35/36/21
f 38/39/23 37/38/22 36/37/22
f 39/40/24 40/41/23 38/39/23
f 41/42/25 42/43/24 39/40/24
f 43/44/26 44/45/25 41/42/25
f 45/46/26 44/45/25 43/44/26
f 46/47/27 45/46/26 47/48/27
f 48/49/28 46/47/27 49/50/28
f 50/15/29 48/17/28 51/51/29
f 50/15/29 51/51/29 52/52/30
f 53/13/30 52/52/30 54/53/31
f 55/10/31 54/53/31 56/54/32
f 55/10/31 56/54/32 57/8/32
f 57/8/32 58/55/33 59/7/33
f 59/7/33 60/56/34 61/6/34
f 61/6/34 62/57/35 63/2/35
f 62/57/35 64/58/36 63/2/35
f 64/58/36 65/59/37 66/34/36
f 65/59/37 67/60/38 68/61/37
f 67/60/38 69/62/39 70/63/38
f 69/62/39 71/64/39 70/63/38
f 72/65/40 73/66/41 71/64/39
f 74/67/42 75/68/42 73/66/41
f 76/69/43 77/70/43 78/71/44
f 79/72/45 80/73/45 77/70/43
f 81/19/46 82/21/47 83/20/46
f 82/21/47 84/23/48 85/22/49
f 86/24/48 87/25/50 88/27/50
f 88/27/50 89/26/51 90/29/51
f 91/31/52 92/28/52 93/30/53
f 94/34/54 95/32/53 96/33/54
f 97/36/55 94/34/54 98/35/55
f 99/39/56 100/38/57 101/37/57
f 102/40/58 103/41/56 99/39/56
f 104/42/59 105/45/59 106/43/58
f 107/44/60 108/46/60 105/45/59
f 109/48/61 110/50/62 111/47/63
f 110/74/62 112/75/64 113/73/62
f 114/70/65 115/76/66 116/71/67
f 116/71/67 117/77/68 118/68/68
f 118/68/68 119/78/69 120/66/69
f 120/66/69 121/79/70 122/64/70
f 4/4/3 6/6/3 2/2/1
f 123/63/71 124/80/71 125/81/72
f 126/61/72 3/3/2 127/34/2
f 125/81/72 3/3/2 126/61/72
f 125/81/72 126/61/72 123/63/71
f 124/80/71 123/63/71 122/64/70
f 124/80/71 122/64/70 121/79/70
f 121/79/70 120/66/69 119/78/69
f 119/78/69 118/68/68 117/77/68
f 117/77/68 116/71/67 115/76/66
f 115/76/66 114/70/65 112/75/64
f 114/70/65 113/73/62 112/75/64
f 113/49/62 111/47/63 110/50/62
f 111/47/63 108/46/60 109/48/61
f 108/46/60 107/44/60 109/48/61
f 105/45/59 104/42/59 107/44/60
f 106/43/58 102/40/58 104/42/59
f 103/41/56 102/40/58 106/43/58
f 100/38/57 99/39/56 103/41/56
f 97/36/55 101/37/57 100/38/57
f 98/35/55 101/37/57 97/36/55
f 96/33/54 98/35/55 94/34/54
f 93/30/53 96/33/54 95/32/53
f 93/30/53 95/32/53 91/31/52
f 92/28/52 91/31/52 90/29/51
f 92/28/52 90/29/51 89/26/51
f 89/26/51 88/27/50 87/25/50
f 87/25/50 86/24/48 84/23/48
f 86/24/48 85/22/49 84/23/48
f 85/22/49 83/20/46 82/21/47
f 83/20/46 80/18/45 81/19/46
f 80/18/45 79/82/45 81/19/46
f 77/70/43 76/69/43 79/72/45
f 78/71/44 128/83/73 76/69/43
f 75/68/42 128/83/73 78/71/44
f 74/67/42 128/83/73 75/68/42
f 72/65/40 74/67/42 73/66/41
f 69/62/39 72/65/40 71/64/39
f 68/61/37 67/60/38 70/63/38
f 66/34/36 65/59/37 68/61/37
f 63/2/35 64/58/36 66/34/36
f 61/6/34 60/56/34 62/57/35
f 59/7/33 58/55/33 60/56/34
f 57/8/32 56/54/32 58/55/33
f 55/10/31 53/13/30 54/53/31
f 53/13/30 50/15/29 52/52/30
f 51/51/29 48/17/28 49/84/28
f 49/50/28 46/47/27 47/48/27
f 47/48/27 45/46/26 43/44/26
f 41/42/25 44/45/25 42/43/24
f 39/40/24 42/43/24 40/41/23
f 38/39/23 40/41/23 37/38/22
f 34/35/21 36/37/22 35/36/21
f 32/33/19 34/35/21 33/34/20
f 29/30/18 32/33/19 31/32/18
f 28/29/16 27/28/17 30/31/17
f 26/27/15 25/26/16 28/29/16
f 23/24/14 24/25/15 26/27/15
f 21/22/13 20/21/12 22/23/14
f 19/20/11 18/19/10 20/21/12
f 17/18/9 16/82/9 18/19/10
f 15/15/8 14/14/8 16/16/9
f 13/13/7 12/12/7 14/14/8
f 10/10/6 8/8/5 11/11/6
f 8/8/5 9/9/5 11/11/6
f 9/9/5 7/7/4 5/5/4
f 2/2/1 127/34/2 3/3/2
f 129/85/74 130/86/74 131/87/74
f 132/85/74 133/88/74 130/86/74
f 134/87/74 135/89/74 136/90/74
f 137/90/74 135/89/74 138/91/74
f 139/92/74 138/91/74 140/93/74
f 141/94/75 142/92/75 140/93/75
f 143/95/74 144/94/74 145/96/74
f 146/97/76 147/95/76 145/96/76
f 148/98/74 149/99/74 146/97/74
f 148/98/76 150/100/76 151/99/76
f 152/101/77 153/102/77 154/100/77
f 152/101/74 155/103/74 156/102/74
f 155/103/74 157/104/74 158/105/74
f 159/106/74 160/105/74 157/104/74
f 161/107/74 162/106/74 163/108/74
f 164/109/74 165/107/74 163/108/74
f 166/110/74 167/111/74 164/109/74
f 166/110/78 168/112/78 169/111/78
f 170/113/74 171/114/74 172/112/74
f 170/113/79 173/115/79 174/114/79
f 173/115/74 175/116/74 176/117/74
f 177/117/74 175/116/74 178/118/74
f 179/118/74 180/119/74 181/120/74
f 182/120/77 180/119/77 183/121/77
f 184/122/74 185/123/74 186/124/74
f 187/125/74 184/122/74 188/124/74
f 185/123/75 189/126/75 190/127/75
f 191/124/77 185/123/77 192/127/77
f 189/126/74 193/128/74 194/129/74
f 195/127/74 189/126/74 196/129/74
f 193/128/74 197/130/74 198/131/74
f 199/129/74 193/128/74 200/131/74
f 197/130/74 201/132/74 202/133/74
f 203/131/74 197/130/74 204/133/74
f 201/132/74 205/134/74 206/135/74
f 207/133/74 201/132/74 208/135/74
f 205/134/75 209/136/75 210/137/75
f 211/135/74 205/134/74 212/137/74
f 209/136/74 213/138/74 214/139/74
f 215/137/79 209/136/79 216/139/79
f 213/138/76 217/140/76 218/141/76
f 219/139/74 213/138/74 220/141/74
f 217/140/74 221/142/74 222/143/74
f 223/141/74 217/140/74 224/143/74
f 221/142/74 225/144/74 226/145/74
f 227/143/74 221/142/74 228/145/74
f 225/144/74 229/146/74 230/147/74
f 231/145/74 225/144/74 232/147/74
f 229/146/74 233/148/74 234/149/74
f 235/147/74 229/146/74 236/149/74
f 233/148/74 237/150/74 238/151/74
f 239/149/74 233/148/74 240/151/74
f 237/150/74 241/152/74 242/153/74
f 243/151/74 237/150/74 244/153/74
f 241/152/74 245/154/74 246/155/74
f 247/153/74 241/152/74 248/155/74
f 245/154/74 249/156/74 250/157/74
f 251/155/74 245/154/74 252/157/74
f 249/156/74 253/158/74 254/159/74
f 255/157/79 249/156/79 256/159/79
f 253/158/74 257/160/74 258/161/74
f 259/159/74 253/158/74 260/161/74
f 257/160/74 261/162/74 262/163/74
f 263/161/74 257/160/74 264/163/74
f 261/162/74 265/164/74 266/165/74
f 267/163/74 261/162/74 268/165/74
f 265/164/74 269/166/74 270/167/74
f 271/165/74 265/164/74 272/167/74
f 269/166/74 273/168/74 274/169/74
f 275/167/74 269/166/74 276/169/74
f 273/168/74 277/170/74 278/171/74
f 279/169/74 273/168/74 280/171/74
f 277/170/74 281/172/74 282/173/74
f 283/171/74 277/170/74 284/173/74
f 281/172/74 285/174/74 286/175/74
f 287/173/74 281/172/74 288/175/74
f 285/174/74 289/176/74 290/177/74
f 291/175/77 285/174/77 292/177/77
f 289/176/75 293/178/75 294/179/75
f 295/177/74 289/176/74 296/179/74
f 293/178/74 297/180/74 298/181/74
f 299/179/74 293/178/74 300/181/74
f 297/180/74 301/182/74 302/183/74
f 303/181/74 297/180/74 304/183/74
f 301/182/79 305/184/79 306/185/79
f 307/183/74 301/182/74 308/185/74
f 305/184/74 309/186/74 310/187/74
f 311/185/77 305/184/77 312/187/77
f 309/186/74 313/188/74 314/189/74
f 315/187/74 309/186/74 316/189/74
f 313/188/79 317/190/79 318/191/79
f 319/189/76 313/188/76 320/191/76
f 317/190/76 321/192/76 322/193/76
f 323/191/74 317/190/74 324/193/74
f 321/192/74 325/194/74 326/195/74
f 327/193/74 321/192/74 328/195/74
f 325/194/74 329/196/74 330/197/74
f 331/195/74 325/194/74 332/197/74
f 329/196/74 333/198/74 334/199/74
f 335/197/74 329/196/74 336/199/74
f 333/198/74 337/200/74 338/201/74
f 339/199/74 333/198/74 340/201/74
f 341/88/74 342/202/74 343/203/74
f 344/88/74 345/204/74 342/202/74
f 342/202/76 346/204/76 347/205/76
f 347/205/74 348/204/74 349/206/74
f 350/207/74 347/205/74 351/206/74
f 352/208/74 350/207/74 353/206/74
f 354/208/74 355/209/74 350/207/74
f 356/208/74 357/210/74 355/209/74
f 355/209/74 358/210/74 359/211/74
f 359/211/74 360/210/74 361/212/74
f 337/200/74 359/211/74 362/212/74
f 184/122/74 363/125/74 183/121/74
f 364/201/74 337/200/74 365/212/74
f 366/88/74 343/203/74 130/86/74
f 367/125/76 368/120/76 183/121/76
f 369/118/74 175/116/74 180/119/74
f 370/114/74 173/115/74 371/117/74
f 166/110/79 170/113/79 372/112/79
f 164/109/76 373/111/76 374/107/76
f 163/108/74 375/106/74 157/104/74
f 148/98/74 152/101/74 376/100/74
f 377/105/74 378/102/74 155/103/74
f 146/97/79 379/99/79 380/95/79
f 145/96/74 381/94/74 140/93/74
f 382/92/74 383/90/74 138/91/74
f 384/87/74 130/86/74 135/89/74
f 385/213/35 386/34/36 387/214/35
f 388/215/34 389/213/35 387/214/35
f 390/216/33 391/217/33 392/218/34
f 393/219/32 394/220/32 390/216/33
f 395/221/31 396/222/31 393/219/32
f 397/223/30 398/224/30 395/221/31
f 399/225/29 400/226/29 397/223/30
f 401/227/28 402/228/28 399/225/29
f 401/229/28 403/230/27 404/231/28
f 405/232/27 406/233/26 407/230/27
f 408/234/26 409/235/25 410/233/26
f 411/236/25 412/237/24 413/235/25
f 414/238/24 415/239/23 416/237/24
f 417/240/23 418/241/22 419/239/23
f 417/240/23 420/242/22 421/241/22
f 420/242/22 422/243/21 423/244/21
f 422/243/21 424/33/20 425/34/20
f 424/33/20 426/245/18 427/246/18
f 426/245/18 428/247/17 429/248/17
f 428/247/17 430/249/16 431/250/16
f 432/250/16 430/249/16 433/251/15
f 434/251/15 435/252/15 436/253/14
f 437/253/14 438/254/14 439/255/12
f 440/255/13 441/256/13 442/257/10
f 443/257/10 444/258/10 445/259/80
f 446/228/9 447/260/9 448/226/8
f 449/226/8 447/260/9 450/261/8
f 451/224/7 450/261/8 452/262/7
f 453/222/6 452/262/7 454/263/6
f 455/220/5 454/263/6 456/264/5
f 457/217/4 456/264/5 458/265/4
f 459/215/3 460/217/4 458/265/4
f 461/213/1 462/215/3 463/266/3
f 464/34/2 465/213/1 466/267/1
f 467/268/72 468/34/2 469/3/2
f 470/269/71 471/268/72 472/270/72
f 473/271/70 474/269/71 475/272/71
f 476/273/69 477/274/69 478/275/70
f 479/276/67 480/277/68 481/278/68
f 482/279/65 483/276/81 484/280/66
f 485/281/82 486/279/65 487/282/65
f 488/230/63 489/231/62 490/229/62
f 491/233/60 492/232/63 493/234/60
f 494/235/59 493/234/60 495/236/59
f 496/237/58 495/236/59 497/238/58
f 498/239/56 499/240/56 500/241/57
f 501/241/57 502/242/57 503/244/55
f 504/244/55 505/243/55 506/34/54
f 507/34/54 508/33/54 509/246/53
f 510/245/53 511/247/52 512/248/52
f 511/247/52 513/249/51 514/250/51
f 513/249/51 515/252/50 516/251/50
f 515/252/50 517/254/48 518/253/48
f 519/256/49 520/257/46 521/255/49
f 522/258/46 523/259/45 524/257/46
f 525/283/83 526/279/43 527/281/83
f 528/277/42 529/284/44 530/285/42
f 531/274/84 530/285/42 532/286/84
f 533/271/39 532/286/84 534/287/39
f 535/269/38 534/287/39 536/288/38
f 537/268/37 536/288/38 538/289/37
f 539/215/34 387/214/35 392/218/34
f 540/290/43 541/276/44 542/279/43
f 538/289/37 543/34/36 544/268/37
f 536/288/38 545/268/37 546/269/38
f 534/287/39 547/269/38 548/271/39
f 532/286/84 549/271/39 550/274/84
f 530/285/42 551/274/84 552/277/42
f 529/284/44 553/277/42 554/276/44
f 540/290/43 529/284/44 555/276/44
f 525/283/85 540/290/43 556/279/43
f 522/258/46 525/291/45 557/259/45
f 519/256/49 522/258/46 558/257/46
f 517/254/48 519/256/49 559/255/49
f 560/253/48 517/254/48 561/255/49
f 562/251/50 515/252/50 563/253/48
f 564/250/51 513/249/51 565/251/50
f 566/248/52 511/247/52 567/250/51
f 568/246/53 510/245/53 569/248/52
f 570/246/53 508/33/54 510/245/53
f 571/34/54 505/243/55 508/33/54
f 572/244/55 502/242/57 505/243/55
f 573/241/57 499/240/56 502/242/57
f 574/239/56 497/238/58 499/240/56
f 575/239/56 576/237/58 497/238/58
f 577/237/58 578/235/59 495/236/59
f 579/235/59 580/233/60 493/234/60
f 581/233/60 582/230/63 492/232/63
f 492/232/63 583/230/63 490/229/62
f 490/292/86 584/281/86 487/282/65
f 487/282/65 585/279/65 484/280/81
f 484/280/66 586/276/66 481/278/68
f 481/278/68 587/277/68 476/273/69
f 476/273/69 588/277/68 589/274/69
f 475/272/71 478/275/70 590/271/70
f 591/271/70 478/275/70 592/274/69
f 472/270/72 475/272/71 593/269/71
f 469/3/2 472/270/72 594/268/72
f 466/267/1 469/3/2 595/34/2
f 463/266/3 466/267/1 596/213/1
f 458/265/4 463/266/3 597/215/3
f 456/264/5 598/217/4 599/220/5
f 454/263/6 600/220/5 601/222/6
f 452/262/7 602/222/6 603/224/7
f 450/261/8 604/224/87 605/226/8
f 447/291/80 606/259/80 444/258/10
f 444/258/10 607/257/10 441/256/12
f 441/256/12 608/255/12 438/254/14
f 438/254/14 609/253/14 435/252/15
f 435/252/15 610/251/15 430/249/16
f 611/250/16 612/248/17 428/247/17
f 613/248/17 614/246/18 426/245/18
f 615/246/18 616/34/20 424/33/20
f 617/34/20 618/244/21 422/243/21
f 619/244/21 620/241/22 420/242/22
f 621/239/23 414/238/24 417/240/23
f 622/237/24 411/236/25 414/238/24
f 623/235/25 408/234/88 411/236/25
f 624/233/88 405/232/27 408/234/88
f 625/230/27 401/229/28 405/232/27
f 626/226/29 399/225/29 627/228/28
f 628/224/30 397/223/30 629/226/29
f 630/222/31 395/221/31 631/224/89
f 632/220/32 393/219/32 633/222/31
f 634/217/33 390/216/33 635/220/32
f 387/214/35 636/34/36 637/58/36
f 637/58/36 638/34/36 538/289/37
f 392/218/34 639/217/33 640/215/34
f 641/147/90 642/146/90 643/148/90
f 644/147/90 645/144/90 646/146/90
f 647/145/90 648/142/90 649/144/90
f 650/145/90 651/143/90 652/142/90
f 653/143/90 654/141/90 655/140/90
f 656/140/90 657/141/90 658/138/90
f 659/138/91 660/139/91 661/136/91
f 662/136/92 663/139/92 664/137/92
f 665/134/91 666/137/91 667/135/91
f 668/132/93 669/134/93 670/135/93
f 671/130/94 672/132/94 673/133/94
f 674/128/90 675/129/90 676/126/90
f 677/131/93 678/130/93 679/133/93
f 680/126/92 681/127/92 682/123/92
f 683/123/90 684/124/90 685/122/90
f 686/122/90 687/125/90 688/121/90
f 689/121/90 690/120/90 691/119/90
f 692/118/90 693/116/90 694/119/90
f 695/118/90 696/117/90 697/116/90
f 698/117/90 699/114/90 700/115/90
f 701/114/90 702/112/90 703/113/90
f 704/112/90 705/111/90 706/110/90
f 707/104/92 708/106/92 709/105/92
f 710/110/94 711/111/94 712/109/94
f 713/103/92 714/105/92 715/102/92
f 716/101/94 717/100/94 718/98/94
f 719/98/90 720/99/90 721/97/90
f 722/97/91 723/95/91 724/96/91
f 725/96/90 726/94/90 727/93/90
f 728/93/90 729/92/90 730/91/90
f 731/91/90 732/90/90 733/89/90
f 734/89/90 735/87/90 736/86/90
f 737/85/90 738/203/90 739/86/90
f 740/85/90 741/88/90 742/203/90
f 743/88/90 744/204/90 745/202/90
f 746/204/93 747/206/93 748/205/93
f 749/206/90 750/208/90 751/207/90
f 752/200/94 753/212/94 754/201/94
f 755/207/90 756/208/90 757/209/90
f 758/198/94 759/201/94 760/199/94
f 761/196/91 762/197/91 763/194/91
f 764/194/90 765/195/90 766/192/90
f 767/192/92 768/193/92 769/190/92
f 770/190/94 771/191/94 772/188/94
f 773/188/90 774/189/90 775/186/90
f 776/186/90 777/187/90 778/184/90
f 779/184/90 780/185/90 781/182/90
f 782/183/90 783/180/90 784/182/90
f 785/183/90 786/181/90 787/180/90
f 788/181/90 789/179/90 790/178/90
f 791/179/90 792/177/90 793/176/90
f 794/177/90 795/175/90 796/174/90
f 797/168/92 798/171/92 799/169/92
f 800/174/92 801/175/92 802/172/92
f 803/166/93 804/169/93 805/167/93
f 806/164/90 807/165/90 808/162/90
f 809/162/90 810/163/90 811/160/90
f 812/160/90 813/161/90 814/158/90
f 815/158/90 816/159/90 817/156/90
f 818/156/90 819/157/90 820/154/90
f 821/148/90 822/149/90 823/147/90
f 824/151/90 825/148/90 826/150/90
f 827/151/90 828/149/90 829/148/90
f 830/153/90 831/151/90 832/150/90
f 833/152/90 834/153/90 835/150/90
f 836/152/90 837/155/90 838/153/90
f 839/152/90 840/154/90 841/155/90
f 842/155/90 843/154/90 844/157/90
f 845/157/90 846/156/90 847/159/90
f 848/159/94 849/158/94 850/161/94
f 851/161/90 852/160/90 853/163/90
f 854/163/90 855/162/90 856/165/90
f 857/165/90 858/164/90 859/167/90
f 860/167/90 861/164/90 862/166/90
f 863/169/90 864/166/90 865/168/90
f 866/171/90 867/168/90 868/170/90
f 869/170/93 870/173/93 871/171/93
f 872/170/92 873/172/92 874/173/92
f 875/173/93 876/172/93 877/175/93
f 878/174/90 879/176/90 880/177/90
f 881/176/90 882/178/90 883/179/90
f 884/178/90 885/180/90 886/181/90
f 887/187/90 888/186/90 889/189/90
f 890/187/90 891/185/90 892/184/90
f 893/189/90 894/188/90 895/191/90
f 896/191/90 897/190/90 898/193/90
f 899/193/90 900/192/90 901/195/90
f 902/195/90 903/194/90 904/197/90
f 905/197/94 906/196/94 907/199/94
f 908/199/90 909/196/90 910/198/90
f 911/201/93 912/198/93 913/200/93
f 914/182/90 915/185/90 916/183/90
f 917/211/94 918/210/94 919/212/94
f 920/211/93 921/209/93 922/210/93
f 923/210/90 924/209/90 925/208/90
f 926/207/90 927/205/90 928/206/90
f 929/205/90 930/202/90 931/204/90
f 932/202/90 933/203/90 934/88/90
f 935/90/90 936/91/90 937/92/90
f 938/90/91 939/87/91 940/89/91
f 941/92/90 942/93/90 943/94/90
f 944/94/93 945/96/93 946/95/93
f 947/95/90 948/97/90 949/99/90
f 950/99/90 951/98/90 952/100/90
f 953/100/90 954/101/90 955/102/90
f 956/102/90 957/101/90 958/103/90
f 959/105/90 960/103/90 961/104/90
f 962/108/90 963/106/90 964/104/90
f 965/108/91 966/107/91 967/106/91
f 968/108/94 969/109/94 970/107/94
f 971/107/90 972/109/90 973/111/90
f 974/110/90 975/113/90 976/112/90
f 977/113/90 978/115/90 979/114/90
f 980/115/90 981/116/90 982/117/90
f 983/125/90 984/122/90 985/124/90
f 986/125/90 987/120/90 988/121/90
f 989/124/90 990/123/90 991/127/90
f 992/127/90 993/126/90 994/129/90
f 995/129/90 996/128/90 997/131/90
f 998/131/90 999/128/90 1000/130/90
f 1001/133/90 1002/132/90 1003/135/90
f 1004/134/91 1005/136/91 1006/137/91
f 1007/138/92 1008/141/92 1009/139/92
f 1010/140/91 1011/142/91 1012/143/91
f 1013/86/90 1014/87/90 1015/85/90
f 1016/211/93 1017/212/93 1018/200/93
f 1019/147/91 1020/145/91 1021/144/91
f 1022/119/90 1023/120/90 1024/118/90
