# Blender 4.4.3
# www.blender.org
mtllib Mesh_20.009.mtl
o Mesh_20.009
v 0.017290 0.008710 -0.012352
v 0.017290 0.008710 -0.012343
v 0.017290 0.008716 -0.012337
v 0.017290 0.008773 -0.012352
v 0.017290 0.008721 -0.012330
v 0.017290 0.008726 -0.012324
v 0.017290 0.008732 -0.012319
v 0.017290 0.008738 -0.012313
v 0.017290 0.008773 -0.012315
v 0.017290 0.008744 -0.012308
v 0.017290 0.008750 -0.012302
v 0.017290 0.008756 -0.012297
v 0.017290 0.008710 -0.012343
v 0.017375 0.008710 -0.012343
v 0.017375 0.008714 -0.012339
v 0.017290 0.008716 -0.012337
v 0.017290 0.008710 -0.012343
v 0.017375 0.008717 -0.012335
v 0.017290 0.008716 -0.012337
v 0.017290 0.008721 -0.012330
v 0.017290 0.008716 -0.012337
v 0.017290 0.008721 -0.012330
v 0.017375 0.008720 -0.012331
v 0.017375 0.008723 -0.012327
v 0.017290 0.008721 -0.012330
v 0.017290 0.008726 -0.012324
v 0.017290 0.008721 -0.012330
v 0.017375 0.008727 -0.012324
v 0.017375 0.008730 -0.012320
v 0.017290 0.008726 -0.012324
v 0.017290 0.008726 -0.012324
v 0.017290 0.008726 -0.012324
v 0.017290 0.008732 -0.012319
v 0.017290 0.008732 -0.012319
v 0.017375 0.008734 -0.012317
v 0.017290 0.008738 -0.012313
v 0.017290 0.008732 -0.012319
v 0.017375 0.008738 -0.012313
v 0.017290 0.008738 -0.012313
v 0.017375 0.008741 -0.012310
v 0.017290 0.008738 -0.012313
v 0.017290 0.008738 -0.012313
v 0.017290 0.008744 -0.012308
v 0.017290 0.008744 -0.012308
v 0.017375 0.008745 -0.012306
v 0.017290 0.008750 -0.012302
v 0.017293 0.008756 -0.012297
v 0.017290 0.008756 -0.012297
v 0.017290 0.008750 -0.012302
v 0.017290 0.008744 -0.012308
v 0.017290 0.008750 -0.012302
v 0.017297 0.008756 -0.012297
v 0.017375 0.008749 -0.012303
v 0.017290 0.008750 -0.012302
v 0.017300 0.008756 -0.012297
v 0.017290 0.008750 -0.012302
v 0.017304 0.008756 -0.012297
v 0.017290 0.008750 -0.012302
v 0.017307 0.008757 -0.012297
v 0.017375 0.008753 -0.012300
v 0.017310 0.008757 -0.012296
v 0.017317 0.008759 -0.012295
v 0.017313 0.008758 -0.012296
v 0.017340 0.008769 -0.012288
v 0.017338 0.008767 -0.012289
v 0.017375 0.008765 -0.012291
v 0.017375 0.008769 -0.012288
v 0.017335 0.008766 -0.012290
v 0.017332 0.008764 -0.012291
v 0.017375 0.008761 -0.012294
v 0.017329 0.008763 -0.012292
v 0.017326 0.008762 -0.012293
v 0.017375 0.008757 -0.012297
v 0.017323 0.008761 -0.012294
v 0.017320 0.008760 -0.012294
v 0.017290 0.008750 -0.012302
v 0.017290 0.008750 -0.012302
v 0.017375 0.008834 -0.012287
v 0.017352 0.008803 -0.012287
v 0.017375 0.008772 -0.012287
v 0.017345 0.008775 -0.012287
v 0.017343 0.008772 -0.012287
v 0.017347 0.008779 -0.012287
v 0.017349 0.008783 -0.012287
v 0.017350 0.008787 -0.012287
v 0.017351 0.008791 -0.012287
v 0.017352 0.008795 -0.012287
v 0.017352 0.008799 -0.012287
v 0.017352 0.008807 -0.012287
v 0.017352 0.008811 -0.012287
v 0.017351 0.008815 -0.012287
v 0.017350 0.008819 -0.012287
v 0.017349 0.008823 -0.012287
v 0.017345 0.008831 -0.012287
v 0.017343 0.008834 -0.012287
v 0.017347 0.008827 -0.012287
v 0.017290 0.008856 -0.012302
v 0.017293 0.008850 -0.012297
v 0.017297 0.008850 -0.012297
v 0.017300 0.008850 -0.012297
v 0.017303 0.008850 -0.012297
v 0.017307 0.008849 -0.012297
v 0.017375 0.008868 -0.012313
v 0.017375 0.008872 -0.012317
v 0.017290 0.008868 -0.012313
v 0.017375 0.008879 -0.012324
v 0.017290 0.008880 -0.012324
v 0.017375 0.008876 -0.012320
v 0.017375 0.008883 -0.012327
v 0.017290 0.008885 -0.012330
v 0.017290 0.008850 -0.012297
v 0.017290 0.008895 -0.012343
v 0.017375 0.008892 -0.012339
v 0.017375 0.008895 -0.012343
v 0.017290 0.008890 -0.012337
v 0.017375 0.008889 -0.012335
v 0.017375 0.008886 -0.012331
v 0.017290 0.008874 -0.012319
v 0.017375 0.008865 -0.012310
v 0.017290 0.008862 -0.012308
v 0.017375 0.008861 -0.012306
v 0.017310 0.008849 -0.012296
v 0.017375 0.008857 -0.012303
v 0.017313 0.008848 -0.012296
v 0.017375 0.008853 -0.012300
v 0.017317 0.008847 -0.012295
v 0.017320 0.008846 -0.012294
v 0.017375 0.008849 -0.012297
v 0.017326 0.008844 -0.012293
v 0.017329 0.008843 -0.012292
v 0.017375 0.008845 -0.012294
v 0.017375 0.008837 -0.012288
v 0.017375 0.008841 -0.012291
v 0.017340 0.008837 -0.012288
v 0.017338 0.008839 -0.012289
v 0.017335 0.008840 -0.012290
v 0.017332 0.008842 -0.012291
v 0.017323 0.008845 -0.012294
v 0.017290 0.008833 -0.012315
v 0.017290 0.008868 -0.012313
v 0.017290 0.008833 -0.012352
v 0.017290 0.008850 -0.012297
v 0.017290 0.008856 -0.012302
v 0.017290 0.008856 -0.012302
v 0.017290 0.008862 -0.012308
v 0.017290 0.008862 -0.012308
v 0.017290 0.008868 -0.012313
v 0.017290 0.008868 -0.012313
v 0.017290 0.008874 -0.012319
v 0.017290 0.008874 -0.012319
v 0.017290 0.008880 -0.012324
v 0.017290 0.008880 -0.012324
v 0.017290 0.008885 -0.012330
v 0.017290 0.008895 -0.012343
v 0.017290 0.008895 -0.012352
v 0.017290 0.008890 -0.012337
v 0.017290 0.008885 -0.012330
v 0.017290 0.008890 -0.012337
v 0.017290 0.008890 -0.012337
v 0.017375 0.008845 -0.012294
v 0.017375 0.008834 -0.012287
v 0.017375 0.008772 -0.012287
v 0.017375 0.008761 -0.012294
v 0.017375 0.008772 -0.012287
v 0.017375 0.008765 -0.012291
v 0.017375 0.008772 -0.012287
v 0.017375 0.008771 -0.012287
v 0.017375 0.008769 -0.012288
v 0.017375 0.008770 -0.012287
v 0.017375 0.008769 -0.012288
v 0.017375 0.008770 -0.012287
v 0.017375 0.008769 -0.012288
v 0.017375 0.008772 -0.012287
v 0.017375 0.008769 -0.012288
v 0.017375 0.008765 -0.012291
v 0.017375 0.008845 -0.012294
v 0.017375 0.008772 -0.012287
v 0.017375 0.008761 -0.012294
v 0.017375 0.008845 -0.012294
v 0.017375 0.008761 -0.012294
v 0.017375 0.008849 -0.012297
v 0.017375 0.008761 -0.012294
v 0.017375 0.008757 -0.012297
v 0.017375 0.008849 -0.012297
v 0.017375 0.008757 -0.012297
v 0.017375 0.008853 -0.012300
v 0.017375 0.008849 -0.012297
v 0.017375 0.008753 -0.012300
v 0.017375 0.008853 -0.012300
v 0.017375 0.008757 -0.012297
v 0.017375 0.008857 -0.012303
v 0.017375 0.008853 -0.012300
v 0.017375 0.008753 -0.012300
v 0.017375 0.008857 -0.012303
v 0.017375 0.008753 -0.012300
v 0.017375 0.008749 -0.012303
v 0.017375 0.008857 -0.012303
v 0.017375 0.008749 -0.012303
v 0.017375 0.008861 -0.012306
v 0.017375 0.008749 -0.012303
v 0.017375 0.008745 -0.012306
v 0.017375 0.008861 -0.012306
v 0.017375 0.008745 -0.012306
v 0.017375 0.008865 -0.012310
v 0.017375 0.008861 -0.012306
v 0.017375 0.008741 -0.012310
v 0.017375 0.008865 -0.012310
v 0.017375 0.008745 -0.012306
v 0.017375 0.008868 -0.012313
v 0.017375 0.008865 -0.012310
v 0.017375 0.008741 -0.012310
v 0.017375 0.008868 -0.012313
v 0.017375 0.008741 -0.012310
v 0.017375 0.008738 -0.012313
v 0.017375 0.008710 -0.012343
v 0.017375 0.008710 -0.012352
v 0.017375 0.008714 -0.012339
v 0.017375 0.008868 -0.012313
v 0.017375 0.008738 -0.012313
v 0.017375 0.008872 -0.012317
v 0.017375 0.008720 -0.012331
v 0.017375 0.008717 -0.012335
v 0.017375 0.008734 -0.012317
v 0.017375 0.008730 -0.012320
v 0.017375 0.008895 -0.012343
v 0.017375 0.008892 -0.012339
v 0.017375 0.008895 -0.012352
v 0.017375 0.008892 -0.012339
v 0.017375 0.008889 -0.012335
v 0.017375 0.008889 -0.012335
v 0.017375 0.008886 -0.012331
v 0.017375 0.008886 -0.012331
v 0.017375 0.008883 -0.012327
v 0.017375 0.008883 -0.012327
v 0.017375 0.008879 -0.012324
v 0.017375 0.008879 -0.012324
v 0.017375 0.008876 -0.012320
v 0.017375 0.008876 -0.012320
v 0.017375 0.008872 -0.012317
v 0.017375 0.008734 -0.012317
v 0.017375 0.008730 -0.012320
v 0.017375 0.008727 -0.012324
v 0.017375 0.008727 -0.012324
v 0.017375 0.008723 -0.012327
v 0.017375 0.008723 -0.012327
v 0.017375 0.008720 -0.012331
v 0.017375 0.008734 -0.012317
v 0.017375 0.008872 -0.012317
v 0.017375 0.008872 -0.012317
v 0.017375 0.008738 -0.012313
v 0.017375 0.008734 -0.012317
v 0.017375 0.008717 -0.012335
v 0.017375 0.008714 -0.012339
v 0.017375 0.008845 -0.012294
v 0.017375 0.008841 -0.012291
v 0.017375 0.008834 -0.012287
v 0.017375 0.008836 -0.012287
v 0.017375 0.008834 -0.012287
v 0.017375 0.008836 -0.012287
v 0.017375 0.008834 -0.012287
v 0.017375 0.008837 -0.012288
v 0.017375 0.008835 -0.012287
v 0.017375 0.008834 -0.012287
v 0.017375 0.008837 -0.012288
v 0.017375 0.008834 -0.012287
v 0.017375 0.008841 -0.012291
v 0.017375 0.008710 -0.012352
v 0.017375 0.008710 -0.012343
v 0.017290 0.008710 -0.012352
v 0.017375 0.008710 -0.012343
v 0.017290 0.008710 -0.012343
v 0.017290 0.008710 -0.012352
v 0.017290 0.008895 -0.012352
v 0.017290 0.008895 -0.012343
v 0.017375 0.008895 -0.012352
v 0.017290 0.008895 -0.012343
v 0.017375 0.008895 -0.012343
v 0.017375 0.008895 -0.012352
v 0.017290 0.008710 -0.012352
v 0.017306 0.008775 -0.012352
v 0.017308 0.008776 -0.012352
v 0.017375 0.008710 -0.012352
v 0.017325 0.008801 -0.012352
v 0.017325 0.008803 -0.012352
v 0.017292 0.008833 -0.012352
v 0.017290 0.008833 -0.012352
v 0.017290 0.008895 -0.012352
v 0.017290 0.008895 -0.012352
v 0.017293 0.008833 -0.012352
v 0.017290 0.008895 -0.012352
v 0.017295 0.008833 -0.012352
v 0.017290 0.008895 -0.012352
v 0.017296 0.008833 -0.012352
v 0.017290 0.008895 -0.012352
v 0.017298 0.008833 -0.012352
v 0.017290 0.008895 -0.012352
v 0.017300 0.008833 -0.012352
v 0.017290 0.008895 -0.012352
v 0.017301 0.008832 -0.012352
v 0.017290 0.008895 -0.012352
v 0.017303 0.008832 -0.012352
v 0.017290 0.008895 -0.012352
v 0.017304 0.008831 -0.012352
v 0.017290 0.008895 -0.012352
v 0.017306 0.008831 -0.012352
v 0.017290 0.008895 -0.012352
v 0.017308 0.008830 -0.012352
v 0.017290 0.008895 -0.012352
v 0.017309 0.008830 -0.012352
v 0.017290 0.008895 -0.012352
v 0.017375 0.008895 -0.012352
v 0.017375 0.008895 -0.012352
v 0.017310 0.008829 -0.012352
v 0.017375 0.008895 -0.012352
v 0.017312 0.008828 -0.012352
v 0.017375 0.008895 -0.012352
v 0.017313 0.008827 -0.012352
v 0.017375 0.008895 -0.012352
v 0.017314 0.008826 -0.012352
v 0.017375 0.008895 -0.012352
v 0.017316 0.008825 -0.012352
v 0.017375 0.008895 -0.012352
v 0.017317 0.008824 -0.012352
v 0.017375 0.008895 -0.012352
v 0.017318 0.008822 -0.012352
v 0.017375 0.008895 -0.012352
v 0.017319 0.008821 -0.012352
v 0.017375 0.008895 -0.012352
v 0.017320 0.008820 -0.012352
v 0.017375 0.008895 -0.012352
v 0.017321 0.008819 -0.012352
v 0.017323 0.008814 -0.012352
v 0.017322 0.008816 -0.012352
v 0.017375 0.008895 -0.012352
v 0.017375 0.008895 -0.012352
v 0.017321 0.008817 -0.012352
v 0.017323 0.008813 -0.012352
v 0.017375 0.008895 -0.012352
v 0.017324 0.008811 -0.012352
v 0.017375 0.008895 -0.012352
v 0.017324 0.008809 -0.012352
v 0.017375 0.008895 -0.012352
v 0.017325 0.008808 -0.012352
v 0.017375 0.008895 -0.012352
v 0.017325 0.008806 -0.012352
v 0.017375 0.008895 -0.012352
v 0.017325 0.008805 -0.012352
v 0.017375 0.008895 -0.012352
v 0.017375 0.008895 -0.012352
v 0.017375 0.008895 -0.012352
v 0.017375 0.008710 -0.012352
v 0.017375 0.008710 -0.012352
v 0.017325 0.008800 -0.012352
v 0.017375 0.008710 -0.012352
v 0.017325 0.008798 -0.012352
v 0.017375 0.008710 -0.012352
v 0.017324 0.008797 -0.012352
v 0.017375 0.008710 -0.012352
v 0.017324 0.008795 -0.012352
v 0.017375 0.008710 -0.012352
v 0.017323 0.008793 -0.012352
v 0.017322 0.008790 -0.012352
v 0.017375 0.008710 -0.012352
v 0.017321 0.008789 -0.012352
v 0.017323 0.008792 -0.012352
v 0.017375 0.008710 -0.012352
v 0.017375 0.008710 -0.012352
v 0.017321 0.008787 -0.012352
v 0.017375 0.008710 -0.012352
v 0.017320 0.008786 -0.012352
v 0.017375 0.008710 -0.012352
v 0.017319 0.008785 -0.012352
v 0.017375 0.008710 -0.012352
v 0.017318 0.008784 -0.012352
v 0.017375 0.008710 -0.012352
v 0.017317 0.008782 -0.012352
v 0.017375 0.008710 -0.012352
v 0.017316 0.008781 -0.012352
v 0.017375 0.008710 -0.012352
v 0.017314 0.008780 -0.012352
v 0.017375 0.008710 -0.012352
v 0.017313 0.008779 -0.012352
v 0.017375 0.008710 -0.012352
v 0.017312 0.008778 -0.012352
v 0.017375 0.008710 -0.012352
v 0.017310 0.008777 -0.012352
v 0.017375 0.008710 -0.012352
v 0.017309 0.008776 -0.012352
v 0.017375 0.008710 -0.012352
v 0.017290 0.008710 -0.012352
v 0.017290 0.008710 -0.012352
v 0.017304 0.008775 -0.012352
v 0.017290 0.008710 -0.012352
v 0.017303 0.008774 -0.012352
v 0.017290 0.008710 -0.012352
v 0.017301 0.008774 -0.012352
v 0.017290 0.008710 -0.012352
v 0.017290 0.008710 -0.012352
v 0.017300 0.008773 -0.012352
v 0.017290 0.008710 -0.012352
v 0.017298 0.008773 -0.012352
v 0.017290 0.008710 -0.012352
v 0.017296 0.008773 -0.012352
v 0.017290 0.008710 -0.012352
v 0.017295 0.008773 -0.012352
v 0.017290 0.008710 -0.012352
v 0.017293 0.008773 -0.012352
v 0.017375 0.008895 -0.012352
v 0.017290 0.008710 -0.012352
v 0.017292 0.008773 -0.012352
v 0.017375 0.008710 -0.012352
v 0.017290 0.008710 -0.012352
v 0.017290 0.008773 -0.012352
v 0.017292 0.008833 -0.012352
v 0.017293 0.008833 -0.012352
v 0.017292 0.008833 -0.012315
v 0.017293 0.008833 -0.012352
v 0.017295 0.008833 -0.012352
v 0.017293 0.008833 -0.012315
v 0.017295 0.008833 -0.012352
v 0.017295 0.008833 -0.012315
v 0.017296 0.008833 -0.012352
v 0.017296 0.008833 -0.012315
v 0.017298 0.008833 -0.012352
v 0.017298 0.008833 -0.012315
v 0.017300 0.008833 -0.012352
v 0.017300 0.008833 -0.012315
v 0.017301 0.008832 -0.012352
v 0.017300 0.008833 -0.012352
v 0.017303 0.008832 -0.012352
v 0.017301 0.008832 -0.012315
v 0.017301 0.008832 -0.012352
v 0.017303 0.008832 -0.012315
v 0.017303 0.008832 -0.012352
v 0.017304 0.008831 -0.012315
v 0.017304 0.008831 -0.012352
v 0.017304 0.008831 -0.012352
v 0.017306 0.008831 -0.012352
v 0.017306 0.008831 -0.012315
v 0.017306 0.008831 -0.012352
v 0.017308 0.008830 -0.012352
v 0.017308 0.008830 -0.012315
v 0.017308 0.008830 -0.012352
v 0.017309 0.008830 -0.012352
v 0.017309 0.008830 -0.012352
v 0.017309 0.008830 -0.012315
v 0.017310 0.008829 -0.012352
v 0.017310 0.008829 -0.012315
v 0.017310 0.008829 -0.012352
v 0.017312 0.008828 -0.012352
v 0.017312 0.008828 -0.012352
v 0.017313 0.008827 -0.012352
v 0.017312 0.008828 -0.012315
v 0.017313 0.008827 -0.012352
v 0.017313 0.008827 -0.012315
v 0.017314 0.008826 -0.012352
v 0.017314 0.008826 -0.012315
v 0.017316 0.008825 -0.012352
v 0.017314 0.008826 -0.012352
v 0.017317 0.008824 -0.012352
v 0.017316 0.008825 -0.012315
v 0.017316 0.008825 -0.012352
v 0.017317 0.008824 -0.012315
v 0.017317 0.008824 -0.012352
v 0.017318 0.008822 -0.012315
v 0.017318 0.008822 -0.012352
v 0.017318 0.008822 -0.012352
v 0.017319 0.008821 -0.012352
v 0.017319 0.008821 -0.012315
v 0.017319 0.008821 -0.012352
v 0.017320 0.008820 -0.012352
v 0.017320 0.008820 -0.012352
v 0.017320 0.008820 -0.012315
v 0.017321 0.008819 -0.012352
v 0.017321 0.008819 -0.012315
v 0.017321 0.008819 -0.012352
v 0.017321 0.008817 -0.012352
v 0.017321 0.008817 -0.012352
v 0.017322 0.008816 -0.012352
v 0.017321 0.008817 -0.012315
v 0.017322 0.008816 -0.012352
v 0.017322 0.008816 -0.012315
v 0.017323 0.008814 -0.012352
v 0.017323 0.008814 -0.012315
v 0.017323 0.008813 -0.012352
v 0.017323 0.008814 -0.012352
v 0.017324 0.008811 -0.012352
v 0.017323 0.008813 -0.012315
v 0.017323 0.008813 -0.012352
v 0.017324 0.008811 -0.012315
v 0.017324 0.008811 -0.012352
v 0.017324 0.008809 -0.012315
v 0.017324 0.008809 -0.012352
v 0.017324 0.008809 -0.012352
v 0.017325 0.008808 -0.012352
v 0.017325 0.008808 -0.012315
v 0.017325 0.008808 -0.012352
v 0.017325 0.008806 -0.012352
v 0.017325 0.008806 -0.012352
v 0.017325 0.008806 -0.012315
v 0.017325 0.008805 -0.012352
v 0.017325 0.008805 -0.012315
v 0.017325 0.008805 -0.012352
v 0.017325 0.008803 -0.012352
v 0.017325 0.008803 -0.012352
v 0.017325 0.008801 -0.012352
v 0.017325 0.008803 -0.012315
v 0.017325 0.008801 -0.012352
v 0.017325 0.008801 -0.012315
v 0.017325 0.008800 -0.012352
v 0.017325 0.008800 -0.012315
v 0.017325 0.008798 -0.012352
v 0.017325 0.008800 -0.012352
v 0.017324 0.008797 -0.012352
v 0.017325 0.008798 -0.012315
v 0.017325 0.008798 -0.012352
v 0.017324 0.008795 -0.012352
v 0.017324 0.008797 -0.012315
v 0.017324 0.008797 -0.012352
v 0.017324 0.008795 -0.012315
v 0.017324 0.008795 -0.012352
v 0.017323 0.008793 -0.012315
v 0.017323 0.008793 -0.012352
v 0.017323 0.008793 -0.012352
v 0.017323 0.008792 -0.012352
v 0.017323 0.008792 -0.012315
v 0.017323 0.008792 -0.012352
v 0.017322 0.008790 -0.012352
v 0.017322 0.008790 -0.012352
v 0.017322 0.008790 -0.012315
v 0.017321 0.008789 -0.012352
v 0.017321 0.008789 -0.012315
v 0.017321 0.008789 -0.012352
v 0.017321 0.008787 -0.012352
v 0.017321 0.008787 -0.012352
v 0.017320 0.008786 -0.012352
v 0.017321 0.008787 -0.012315
v 0.017320 0.008786 -0.012352
v 0.017320 0.008786 -0.012315
v 0.017319 0.008785 -0.012352
v 0.017319 0.008785 -0.012315
v 0.017318 0.008784 -0.012352
v 0.017319 0.008785 -0.012352
v 0.017317 0.008782 -0.012352
v 0.017318 0.008784 -0.012315
v 0.017318 0.008784 -0.012352
v 0.017317 0.008782 -0.012315
v 0.017317 0.008782 -0.012352
v 0.017316 0.008781 -0.012315
v 0.017316 0.008781 -0.012352
v 0.017316 0.008781 -0.012352
v 0.017314 0.008780 -0.012352
v 0.017314 0.008780 -0.012315
v 0.017314 0.008780 -0.012352
v 0.017313 0.008779 -0.012352
v 0.017313 0.008779 -0.012352
v 0.017313 0.008779 -0.012315
v 0.017292 0.008773 -0.012315
v 0.017293 0.008773 -0.012315
v 0.017292 0.008773 -0.012352
v 0.017290 0.008773 -0.012352
v 0.017290 0.008773 -0.012315
v 0.017290 0.008773 -0.012352
v 0.017292 0.008773 -0.012352
v 0.017293 0.008773 -0.012352
v 0.017292 0.008773 -0.012352
v 0.017295 0.008773 -0.012315
v 0.017293 0.008773 -0.012352
v 0.017295 0.008773 -0.012352
v 0.017293 0.008773 -0.012352
v 0.017295 0.008773 -0.012352
v 0.017296 0.008773 -0.012315
v 0.017295 0.008773 -0.012352
v 0.017296 0.008773 -0.012352
v 0.017298 0.008773 -0.012315
v 0.017296 0.008773 -0.012352
v 0.017298 0.008773 -0.012352
v 0.017296 0.008773 -0.012352
v 0.017300 0.008773 -0.012315
v 0.017298 0.008773 -0.012352
v 0.017300 0.008773 -0.012352
v 0.017298 0.008773 -0.012352
v 0.017300 0.008773 -0.012352
v 0.017301 0.008774 -0.012315
v 0.017300 0.008773 -0.012352
v 0.017301 0.008774 -0.012352
v 0.017303 0.008774 -0.012315
v 0.017301 0.008774 -0.012352
v 0.017303 0.008774 -0.012352
v 0.017301 0.008774 -0.012352
v 0.017304 0.008775 -0.012315
v 0.017303 0.008774 -0.012352
v 0.017304 0.008775 -0.012352
v 0.017303 0.008774 -0.012352
v 0.017304 0.008775 -0.012352
v 0.017306 0.008775 -0.012315
v 0.017304 0.008775 -0.012352
v 0.017306 0.008775 -0.012352
v 0.017308 0.008776 -0.012315
v 0.017306 0.008775 -0.012352
v 0.017308 0.008776 -0.012352
v 0.017306 0.008775 -0.012352
v 0.017309 0.008776 -0.012315
v 0.017308 0.008776 -0.012352
v 0.017309 0.008776 -0.012352
v 0.017308 0.008776 -0.012352
v 0.017309 0.008776 -0.012352
v 0.017310 0.008777 -0.012315
v 0.017309 0.008776 -0.012352
v 0.017310 0.008777 -0.012352
v 0.017312 0.008778 -0.012315
v 0.017310 0.008777 -0.012352
v 0.017312 0.008778 -0.012352
v 0.017310 0.008777 -0.012352
v 0.017312 0.008778 -0.012352
v 0.017313 0.008779 -0.012352
v 0.017312 0.008778 -0.012352
v 0.017314 0.008780 -0.012352
v 0.017317 0.008782 -0.012352
v 0.017316 0.008781 -0.012352
v 0.017318 0.008784 -0.012352
v 0.017319 0.008785 -0.012352
v 0.017320 0.008786 -0.012352
v 0.017321 0.008787 -0.012352
v 0.017322 0.008790 -0.012352
v 0.017321 0.008789 -0.012352
v 0.017323 0.008792 -0.012352
v 0.017324 0.008795 -0.012352
v 0.017323 0.008793 -0.012352
v 0.017324 0.008797 -0.012352
v 0.017325 0.008798 -0.012352
v 0.017325 0.008800 -0.012352
v 0.017325 0.008801 -0.012352
v 0.017325 0.008803 -0.012352
v 0.017325 0.008806 -0.012352
v 0.017325 0.008805 -0.012352
v 0.017325 0.008808 -0.012352
v 0.017324 0.008811 -0.012352
v 0.017324 0.008809 -0.012352
v 0.017323 0.008813 -0.012352
v 0.017323 0.008814 -0.012352
v 0.017322 0.008816 -0.012352
v 0.017321 0.008817 -0.012352
v 0.017320 0.008820 -0.012352
v 0.017321 0.008819 -0.012352
v 0.017319 0.008821 -0.012352
v 0.017317 0.008824 -0.012352
v 0.017318 0.008822 -0.012352
v 0.017316 0.008825 -0.012352
v 0.017314 0.008826 -0.012352
v 0.017313 0.008827 -0.012352
v 0.017312 0.008828 -0.012352
v 0.017309 0.008830 -0.012352
v 0.017310 0.008829 -0.012352
v 0.017308 0.008830 -0.012352
v 0.017306 0.008831 -0.012352
v 0.017303 0.008832 -0.012352
v 0.017304 0.008831 -0.012352
v 0.017298 0.008833 -0.012352
v 0.017300 0.008833 -0.012352
v 0.017295 0.008833 -0.012352
v 0.017296 0.008833 -0.012352
v 0.017290 0.008833 -0.012352
v 0.017292 0.008833 -0.012352
v 0.017290 0.008833 -0.012315
v 0.017290 0.008833 -0.012352
v 0.017301 0.008832 -0.012352
v 0.017296 0.008833 -0.012352
v 0.017298 0.008833 -0.012352
v 0.017293 0.008833 -0.012352
v 0.017293 0.008756 -0.012297
v 0.017295 0.008773 -0.012315
v 0.017293 0.008773 -0.012315
v 0.017293 0.008756 -0.012297
v 0.017293 0.008773 -0.012315
v 0.017290 0.008756 -0.012297
v 0.017297 0.008756 -0.012297
v 0.017296 0.008773 -0.012315
v 0.017295 0.008773 -0.012315
v 0.017298 0.008773 -0.012315
v 0.017296 0.008773 -0.012315
v 0.017300 0.008756 -0.012297
v 0.017300 0.008773 -0.012315
v 0.017300 0.008756 -0.012297
v 0.017304 0.008756 -0.012297
v 0.017301 0.008774 -0.012315
v 0.017304 0.008756 -0.012297
v 0.017307 0.008757 -0.012297
v 0.017303 0.008774 -0.012315
v 0.017307 0.008757 -0.012297
v 0.017310 0.008757 -0.012296
v 0.017304 0.008775 -0.012315
v 0.017310 0.008757 -0.012296
v 0.017306 0.008775 -0.012315
v 0.017310 0.008757 -0.012296
v 0.017313 0.008758 -0.012296
v 0.017306 0.008775 -0.012315
v 0.017313 0.008758 -0.012296
v 0.017317 0.008759 -0.012295
v 0.017308 0.008776 -0.012315
v 0.017317 0.008759 -0.012295
v 0.017309 0.008776 -0.012315
v 0.017308 0.008776 -0.012315
v 0.017320 0.008760 -0.012294
v 0.017310 0.008777 -0.012315
v 0.017309 0.008776 -0.012315
v 0.017323 0.008761 -0.012294
v 0.017312 0.008778 -0.012315
v 0.017310 0.008777 -0.012315
v 0.017326 0.008762 -0.012293
v 0.017312 0.008778 -0.012315
v 0.017323 0.008761 -0.012294
v 0.017314 0.008780 -0.012315
v 0.017313 0.008779 -0.012315
v 0.017326 0.008762 -0.012293
v 0.017314 0.008780 -0.012315
v 0.017326 0.008762 -0.012293
v 0.017329 0.008763 -0.012292
v 0.017314 0.008780 -0.012315
v 0.017329 0.008763 -0.012292
v 0.017316 0.008781 -0.012315
v 0.017329 0.008763 -0.012292
v 0.017332 0.008764 -0.012291
v 0.017316 0.008781 -0.012315
v 0.017317 0.008782 -0.012315
v 0.017335 0.008766 -0.012290
v 0.017318 0.008784 -0.012315
v 0.017332 0.008764 -0.012291
v 0.017317 0.008782 -0.012315
v 0.017316 0.008781 -0.012315
v 0.017335 0.008766 -0.012290
v 0.017338 0.008767 -0.012289
v 0.017318 0.008784 -0.012315
v 0.017338 0.008767 -0.012289
v 0.017340 0.008769 -0.012288
v 0.017319 0.008785 -0.012315
v 0.017340 0.008769 -0.012288
v 0.017341 0.008770 -0.012288
v 0.017320 0.008786 -0.012315
v 0.017342 0.008770 -0.012287
v 0.017320 0.008786 -0.012315
v 0.017320 0.008786 -0.012315
v 0.017343 0.008771 -0.012287
v 0.017343 0.008772 -0.012287
v 0.017321 0.008787 -0.012315
v 0.017343 0.008772 -0.012287
v 0.017345 0.008775 -0.012287
v 0.017321 0.008787 -0.012315
v 0.017345 0.008775 -0.012287
v 0.017321 0.008789 -0.012315
v 0.017321 0.008789 -0.012315
v 0.017347 0.008779 -0.012287
v 0.017322 0.008790 -0.012315
v 0.017347 0.008779 -0.012287
v 0.017349 0.008783 -0.012287
v 0.017323 0.008792 -0.012315
v 0.017349 0.008783 -0.012287
v 0.017350 0.008787 -0.012287
v 0.017323 0.008793 -0.012315
v 0.017350 0.008787 -0.012287
v 0.017324 0.008795 -0.012315
v 0.017323 0.008793 -0.012315
v 0.017351 0.008791 -0.012287
v 0.017324 0.008797 -0.012315
v 0.017324 0.008795 -0.012315
v 0.017352 0.008795 -0.012287
v 0.017325 0.008798 -0.012315
v 0.017351 0.008791 -0.012287
v 0.017325 0.008800 -0.012315
v 0.017325 0.008798 -0.012315
v 0.017352 0.008795 -0.012287
v 0.017325 0.008801 -0.012315
v 0.017325 0.008800 -0.012315
v 0.017352 0.008799 -0.012287
v 0.017325 0.008803 -0.012315
v 0.017325 0.008801 -0.012315
v 0.017352 0.008803 -0.012287
v 0.017325 0.008805 -0.012315
v 0.017325 0.008803 -0.012315
v 0.017352 0.008803 -0.012287
v 0.017325 0.008805 -0.012315
v 0.017352 0.008803 -0.012287
v 0.017352 0.008807 -0.012287
v 0.017325 0.008805 -0.012315
v 0.017352 0.008807 -0.012287
v 0.017325 0.008806 -0.012315
v 0.017325 0.008806 -0.012315
v 0.017352 0.008811 -0.012287
v 0.017325 0.008808 -0.012315
v 0.017352 0.008811 -0.012287
v 0.017351 0.008815 -0.012287
v 0.017325 0.008808 -0.012315
v 0.017351 0.008815 -0.012287
v 0.017324 0.008811 -0.012315
v 0.017324 0.008809 -0.012315
v 0.017350 0.008819 -0.012287
v 0.017323 0.008813 -0.012315
v 0.017324 0.008811 -0.012315
v 0.017349 0.008823 -0.012287
v 0.017323 0.008814 -0.012315
v 0.017323 0.008813 -0.012315
v 0.017347 0.008827 -0.012287
v 0.017322 0.008816 -0.012315
v 0.017323 0.008814 -0.012315
v 0.017321 0.008817 -0.012315
v 0.017322 0.008816 -0.012315
v 0.017347 0.008827 -0.012287
v 0.017321 0.008819 -0.012315
v 0.017321 0.008817 -0.012315
v 0.017345 0.008831 -0.012287
v 0.017320 0.008820 -0.012315
v 0.017321 0.008819 -0.012315
v 0.017343 0.008834 -0.012287
v 0.017342 0.008836 -0.012287
v 0.017320 0.008820 -0.012315
v 0.017343 0.008835 -0.012287
v 0.017335 0.008840 -0.012290
v 0.017318 0.008822 -0.012315
v 0.017338 0.008839 -0.012289
v 0.017319 0.008821 -0.012315
v 0.017340 0.008837 -0.012288
v 0.017338 0.008839 -0.012289
v 0.017317 0.008824 -0.012315
v 0.017318 0.008822 -0.012315
v 0.017335 0.008840 -0.012290
v 0.017316 0.008825 -0.012315
v 0.017317 0.008824 -0.012315
v 0.017332 0.008842 -0.012291
v 0.017314 0.008826 -0.012315
v 0.017316 0.008825 -0.012315
v 0.017329 0.008843 -0.012292
v 0.017313 0.008827 -0.012315
v 0.017314 0.008826 -0.012315
v 0.017326 0.008844 -0.012293
v 0.017341 0.008836 -0.012288
v 0.017340 0.008837 -0.012288
v 0.017320 0.008820 -0.012315
v 0.017290 0.008850 -0.012297
v 0.017290 0.008833 -0.012315
v 0.017292 0.008833 -0.012315
v 0.017290 0.008850 -0.012297
v 0.017292 0.008833 -0.012315
v 0.017293 0.008833 -0.012315
v 0.017290 0.008850 -0.012297
v 0.017293 0.008833 -0.012315
v 0.017293 0.008850 -0.012297
v 0.017293 0.008833 -0.012315
v 0.017295 0.008833 -0.012315
v 0.017293 0.008850 -0.012297
v 0.017295 0.008833 -0.012315
v 0.017297 0.008850 -0.012297
v 0.017293 0.008850 -0.012297
v 0.017296 0.008833 -0.012315
v 0.017297 0.008850 -0.012297
v 0.017295 0.008833 -0.012315
v 0.017300 0.008850 -0.012297
v 0.017297 0.008850 -0.012297
v 0.017296 0.008833 -0.012315
v 0.017300 0.008850 -0.012297
v 0.017296 0.008833 -0.012315
v 0.017298 0.008833 -0.012315
v 0.017300 0.008850 -0.012297
v 0.017298 0.008833 -0.012315
v 0.017300 0.008833 -0.012315
v 0.017300 0.008850 -0.012297
v 0.017300 0.008833 -0.012315
v 0.017303 0.008850 -0.012297
v 0.017300 0.008833 -0.012315
v 0.017301 0.008832 -0.012315
v 0.017303 0.008850 -0.012297
v 0.017301 0.008832 -0.012315
v 0.017307 0.008849 -0.012297
v 0.017303 0.008850 -0.012297
v 0.017303 0.008832 -0.012315
v 0.017307 0.008849 -0.012297
v 0.017301 0.008832 -0.012315
v 0.017310 0.008849 -0.012296
v 0.017307 0.008849 -0.012297
v 0.017303 0.008832 -0.012315
v 0.017310 0.008849 -0.012296
v 0.017303 0.008832 -0.012315
v 0.017304 0.008831 -0.012315
v 0.017310 0.008849 -0.012296
v 0.017304 0.008831 -0.012315
v 0.017306 0.008831 -0.012315
v 0.017310 0.008849 -0.012296
v 0.017306 0.008831 -0.012315
v 0.017313 0.008848 -0.012296
v 0.017306 0.008831 -0.012315
v 0.017308 0.008830 -0.012315
v 0.017313 0.008848 -0.012296
v 0.017308 0.008830 -0.012315
v 0.017317 0.008847 -0.012295
v 0.017313 0.008848 -0.012296
v 0.017309 0.008830 -0.012315
v 0.017317 0.008847 -0.012295
v 0.017308 0.008830 -0.012315
v 0.017320 0.008846 -0.012294
v 0.017317 0.008847 -0.012295
v 0.017309 0.008830 -0.012315
v 0.017320 0.008846 -0.012294
v 0.017309 0.008830 -0.012315
v 0.017310 0.008829 -0.012315
v 0.017320 0.008846 -0.012294
v 0.017310 0.008829 -0.012315
v 0.017323 0.008845 -0.012294
v 0.017310 0.008829 -0.012315
v 0.017312 0.008828 -0.012315
v 0.017323 0.008845 -0.012294
v 0.017312 0.008828 -0.012315
v 0.017326 0.008844 -0.012293
v 0.017323 0.008845 -0.012294
v 0.017313 0.008827 -0.012315
v 0.017326 0.008844 -0.012293
v 0.017312 0.008828 -0.012315
v 0.017314 0.008826 -0.012315
v 0.017329 0.008843 -0.012292
v 0.017326 0.008844 -0.012293
v 0.017316 0.008825 -0.012315
v 0.017332 0.008842 -0.012291
v 0.017329 0.008843 -0.012292
v 0.017317 0.008824 -0.012315
v 0.017335 0.008840 -0.012290
v 0.017332 0.008842 -0.012291
v 0.017318 0.008822 -0.012315
v 0.017319 0.008821 -0.012315
v 0.017338 0.008839 -0.012289
v 0.017319 0.008821 -0.012315
v 0.017320 0.008820 -0.012315
v 0.017340 0.008837 -0.012288
v 0.017320 0.008820 -0.012315
v 0.017343 0.008834 -0.012287
v 0.017320 0.008820 -0.012315
v 0.017345 0.008831 -0.012287
v 0.017343 0.008834 -0.012287
v 0.017321 0.008819 -0.012315
v 0.017347 0.008827 -0.012287
v 0.017345 0.008831 -0.012287
v 0.017321 0.008817 -0.012315
v 0.017323 0.008814 -0.012315
v 0.017349 0.008823 -0.012287
v 0.017347 0.008827 -0.012287
v 0.017323 0.008813 -0.012315
v 0.017350 0.008819 -0.012287
v 0.017349 0.008823 -0.012287
v 0.017324 0.008811 -0.012315
v 0.017351 0.008815 -0.012287
v 0.017350 0.008819 -0.012287
v 0.017324 0.008809 -0.012315
v 0.017325 0.008808 -0.012315
v 0.017351 0.008815 -0.012287
v 0.017352 0.008811 -0.012287
v 0.017325 0.008806 -0.012315
v 0.017352 0.008807 -0.012287
v 0.017325 0.008801 -0.012315
v 0.017352 0.008799 -0.012287
v 0.017352 0.008803 -0.012287
v 0.017325 0.008800 -0.012315
v 0.017352 0.008795 -0.012287
v 0.017352 0.008799 -0.012287
v 0.017325 0.008798 -0.012315
v 0.017324 0.008797 -0.012315
v 0.017351 0.008791 -0.012287
v 0.017351 0.008791 -0.012287
v 0.017324 0.008795 -0.012315
v 0.017350 0.008787 -0.012287
v 0.017349 0.008783 -0.012287
v 0.017323 0.008793 -0.012315
v 0.017323 0.008792 -0.012315
v 0.017347 0.008779 -0.012287
v 0.017323 0.008792 -0.012315
v 0.017322 0.008790 -0.012315
v 0.017345 0.008775 -0.012287
v 0.017347 0.008779 -0.012287
v 0.017321 0.008789 -0.012315
v 0.017320 0.008786 -0.012315
v 0.017343 0.008772 -0.012287
v 0.017321 0.008787 -0.012315
v 0.017320 0.008786 -0.012315
v 0.017340 0.008769 -0.012288
v 0.017320 0.008786 -0.012315
v 0.017319 0.008785 -0.012315
v 0.017338 0.008767 -0.012289
v 0.017319 0.008785 -0.012315
v 0.017318 0.008784 -0.012315
v 0.017332 0.008764 -0.012291
v 0.017335 0.008766 -0.012290
v 0.017317 0.008782 -0.012315
v 0.017326 0.008762 -0.012293
v 0.017313 0.008779 -0.012315
v 0.017312 0.008778 -0.012315
v 0.017320 0.008760 -0.012294
v 0.017323 0.008761 -0.012294
v 0.017310 0.008777 -0.012315
v 0.017317 0.008759 -0.012295
v 0.017320 0.008760 -0.012294
v 0.017309 0.008776 -0.012315
v 0.017310 0.008757 -0.012296
v 0.017304 0.008775 -0.012315
v 0.017303 0.008774 -0.012315
v 0.017300 0.008773 -0.012315
v 0.017304 0.008756 -0.012297
v 0.017301 0.008774 -0.012315
v 0.017298 0.008773 -0.012315
v 0.017300 0.008756 -0.012297
v 0.017300 0.008773 -0.012315
v 0.017296 0.008773 -0.012315
v 0.017297 0.008756 -0.012297
v 0.017300 0.008756 -0.012297
v 0.017293 0.008756 -0.012297
v 0.017297 0.008756 -0.012297
v 0.017295 0.008773 -0.012315
v 0.017292 0.008773 -0.012315
v 0.017290 0.008773 -0.012315
v 0.017290 0.008756 -0.012297
v 0.017307 0.008757 -0.012297
v 0.017303 0.008774 -0.012315
v 0.017301 0.008774 -0.012315
v 0.017308 0.008776 -0.012315
v 0.017306 0.008775 -0.012315
v 0.017313 0.008758 -0.012296
v 0.017293 0.008773 -0.012315
v 0.017292 0.008773 -0.012315
v 0.017290 0.008756 -0.012297
v 0.017375 0.008835 -0.012287
v 0.017375 0.008835 -0.012287
v 0.017375 0.008836 -0.012287
v 0.017375 0.008836 -0.012287
v 0.017343 0.008835 -0.012287
v 0.017343 0.008835 -0.012287
v 0.017375 0.008836 -0.012287
v 0.017375 0.008836 -0.012287
v 0.017341 0.008836 -0.012288
v 0.017341 0.008836 -0.012288
v 0.017342 0.008836 -0.012287
v 0.017342 0.008836 -0.012287
v 0.017343 0.008835 -0.012287
v 0.017375 0.008836 -0.012287
v 0.017342 0.008836 -0.012287
v 0.017375 0.008836 -0.012287
v 0.017342 0.008770 -0.012287
v 0.017341 0.008770 -0.012288
v 0.017341 0.008770 -0.012288
v 0.017342 0.008770 -0.012287
v 0.017375 0.008770 -0.012287
v 0.017375 0.008771 -0.012287
v 0.017375 0.008771 -0.012287
v 0.017375 0.008770 -0.012287
v 0.017375 0.008770 -0.012287
v 0.017343 0.008771 -0.012287
v 0.017375 0.008770 -0.012287
v 0.017375 0.008770 -0.012287
v 0.017343 0.008771 -0.012287
v 0.017375 0.008770 -0.012287
v 0.017343 0.008771 -0.012287
v 0.017342 0.008770 -0.012287
vn -1.0000 0.0001 -0.0000
vn -1.0000 -0.0001 -0.0000
vn -1.0000 -0.0000 -0.0000
vn -0.0000 -0.7940 0.6079
vn -0.0001 -0.7940 0.6079
vn -0.0000 -0.7816 0.6238
vn -0.0000 -0.7739 0.6333
vn -0.0000 -0.7688 0.6395
vn -0.0000 -0.7815 0.6239
vn -0.0000 -0.7530 0.6580
vn -0.0000 -0.7558 0.6548
vn -0.0000 -0.7424 0.6700
vn -0.0000 -0.7557 0.6549
vn 0.0001 -0.7424 0.6700
vn -0.0000 -0.7313 0.6820
vn -0.0000 -0.7287 0.6848
vn -0.0000 -0.7147 0.6994
vn -0.0000 -0.7314 0.6820
vn -0.0000 -0.7423 0.6700
vn -0.0000 -0.7313 0.6821
vn -0.0000 -0.7089 0.7053
vn -0.0000 -0.7004 0.7137
vn -0.0000 -0.6857 0.7279
vn -0.0000 -0.6859 0.7277
vn -0.0000 -0.6710 0.7414
vn -0.0000 -0.6618 0.7497
vn -0.0000 -0.6559 0.7548
vn -0.0000 -0.6372 0.7707
vn -0.0000 -0.6124 0.7905
vn -0.0000 -0.6119 0.7910
vn -0.0000 -0.6617 0.7497
vn -0.0000 -0.6371 0.7708
vn -0.0000 -0.6124 0.7906
vn -0.0000 -0.6406 0.7679
vn -0.0000 -0.6559 0.7549
vn -0.0000 -0.6118 0.7910
vn -0.0000 -0.6106 0.7919
vn -0.0000 -0.6107 0.7919
vn -0.0001 -0.6090 0.7932
vn -0.0000 -0.6405 0.7679
vn -0.0001 -0.6249 0.7807
vn -0.0000 -0.6069 0.7948
vn -0.0000 -0.6010 0.7992
vn -0.0000 -0.6041 0.7969
vn -0.0000 -0.5599 0.8286
vn -0.0000 -0.5665 0.8241
vn 0.0002 -0.5764 0.8172
vn 0.0002 -0.5727 0.8198
vn -0.0000 -0.5785 0.8157
vn -0.0002 -0.5928 0.8053
vn -0.0000 -0.5840 0.8118
vn -0.0000 -0.5889 0.8082
vn -0.0000 -0.6091 0.7931
vn -0.0000 -0.5934 0.8049
vn -0.0000 -0.5975 0.8019
vn -0.0000 -0.6090 0.7932
vn -0.0000 -0.0000 1.0000
vn -0.0003 -0.0000 1.0000
vn 0.0001 -0.0000 1.0000
vn -0.0001 -0.0000 1.0000
vn -0.0000 0.6372 0.7707
vn -0.0000 0.6124 0.7905
vn -0.0000 0.6124 0.7906
vn -0.0000 0.6118 0.7910
vn -0.0000 0.6107 0.7919
vn -0.0000 0.6090 0.7932
vn -0.0000 0.6859 0.7277
vn 0.0001 0.7004 0.7138
vn -0.0000 0.6857 0.7279
vn -0.0000 0.7286 0.6849
vn -0.0003 0.7313 0.6820
vn -0.0000 0.7148 0.6994
vn 0.0001 0.7424 0.6700
vn 0.0002 0.7530 0.6580
vn -0.0000 0.6119 0.7909
vn -0.0000 0.7940 0.6079
vn 0.0001 0.7816 0.6238
vn -0.0003 0.7739 0.6333
vn -0.0000 0.7687 0.6396
vn -0.0000 0.7558 0.6548
vn 0.0002 0.7089 0.7053
vn 0.0001 0.6711 0.7414
vn -0.0003 0.6617 0.7497
vn -0.0000 0.6559 0.7549
vn -0.0000 0.6068 0.7948
vn -0.0001 0.6405 0.7679
vn -0.0000 0.6041 0.7969
vn -0.0000 0.6249 0.7807
vn -0.0000 0.6011 0.7992
vn -0.0000 0.5974 0.8019
vn -0.0000 0.6091 0.7931
vn -0.0000 0.5888 0.8083
vn -0.0000 0.5839 0.8118
vn -0.0001 0.5928 0.8053
vn -0.0000 0.5599 0.8286
vn 0.0002 0.5764 0.8172
vn -0.0000 0.5598 0.8286
vn -0.0000 0.5665 0.8241
vn -0.0001 0.5726 0.8198
vn -0.0000 0.5785 0.8157
vn -0.0000 0.5933 0.8050
vn -1.0000 0.0002 -0.0000
vn 1.0000 -0.0000 -0.0000
vn -0.0000 -0.0000 -1.0000
vn -0.0000 -1.0000 -0.0000
vn -0.0000 1.0000 -0.0000
vn 0.0001 -0.0000 -1.0000
vn 0.0002 -0.0000 -1.0000
vn -0.0001 -0.0000 -1.0000
vn 0.1129 -0.9936 -0.0000
vn 0.0588 -0.9983 -0.0000
vn 0.0587 -0.9983 -0.0000
vn 0.0045 -1.0000 -0.0000
vn -0.0498 -0.9988 -0.0000
vn -0.1039 -0.9946 -0.0000
vn -0.1578 -0.9875 -0.0000
vn -0.1040 -0.9946 -0.0000
vn -0.2112 -0.9774 -0.0000
vn -0.1577 -0.9875 -0.0000
vn -0.2639 -0.9646 -0.0000
vn -0.2111 -0.9775 -0.0000
vn -0.3159 -0.9488 -0.0000
vn -0.2640 -0.9645 -0.0000
vn -0.3160 -0.9488 -0.0000
vn -0.3670 -0.9302 -0.0000
vn -0.4170 -0.9089 -0.0000
vn -0.4657 -0.8850 -0.0000
vn -0.4656 -0.8850 -0.0000
vn -0.4657 -0.8849 -0.0000
vn -0.5130 -0.8584 -0.0000
vn -0.5131 -0.8583 -0.0000
vn -0.5588 -0.8293 -0.0000
vn -0.5589 -0.8292 -0.0000
vn -0.6031 -0.7977 -0.0000
vn -0.6455 -0.7637 -0.0000
vn -0.6455 -0.7638 -0.0000
vn -0.6031 -0.7976 -0.0000
vn -0.6860 -0.7276 -0.0000
vn -0.7245 -0.6893 -0.0000
vn -0.7609 -0.6489 -0.0000
vn -0.7245 -0.6892 -0.0000
vn -0.7949 -0.6067 -0.0000
vn -0.7950 -0.6066 -0.0000
vn -0.8267 -0.5626 -0.0000
vn -0.8560 -0.5170 -0.0000
vn -0.8561 -0.5169 -0.0000
vn -0.8828 -0.4697 -0.0000
vn -0.8829 -0.4696 -0.0000
vn -0.9070 -0.4210 -0.0000
vn -0.9070 -0.4211 -0.0000
vn -0.9286 -0.3712 -0.0000
vn -0.9285 -0.3712 -0.0000
vn -0.9071 -0.4210 -0.0000
vn -0.9474 -0.3202 -0.0000
vn -0.9286 -0.3711 -0.0000
vn -0.9633 -0.2683 -0.0000
vn -0.9473 -0.3202 -0.0000
vn -0.9765 -0.2156 -0.0000
vn -0.9634 -0.2682 -0.0000
vn -0.9765 -0.2155 -0.0000
vn -0.9867 -0.1623 -0.0000
vn -0.9868 -0.1622 -0.0000
vn -0.9941 -0.1085 -0.0000
vn -0.9941 -0.1084 -0.0000
vn -0.9985 -0.0543 -0.0000
vn -0.9985 0.0543 -0.0000
vn -0.9941 0.1084 -0.0000
vn -0.9868 0.1622 -0.0000
vn -0.9941 0.1085 -0.0000
vn -0.9765 0.2155 -0.0000
vn -0.9867 0.1623 -0.0000
vn -0.9634 0.2682 -0.0000
vn -0.9765 0.2156 -0.0000
vn -0.9474 0.3202 -0.0000
vn -0.9633 0.2683 -0.0000
vn -0.9473 0.3202 -0.0000
vn -0.9286 0.3711 -0.0000
vn -0.9285 0.3712 -0.0000
vn -0.9286 0.3712 -0.0000
vn -0.9071 0.4210 -0.0000
vn -0.9070 0.4210 -0.0000
vn -0.8829 0.4696 -0.0000
vn -0.8828 0.4697 -0.0000
vn -0.8561 0.5169 -0.0000
vn -0.8560 0.5169 -0.0000
vn -0.8267 0.5627 -0.0000
vn -0.8560 0.5170 -0.0000
vn -0.7950 0.6066 -0.0000
vn -0.8267 0.5626 -0.0000
vn -0.7609 0.6489 -0.0000
vn -0.7949 0.6067 -0.0000
vn -0.7245 0.6893 -0.0000
vn -0.7245 0.6892 -0.0000
vn -0.6860 0.7276 -0.0000
vn -0.6455 0.7638 -0.0000
vn -0.6455 0.7637 -0.0000
vn -0.6031 0.7976 -0.0000
vn -0.6031 0.7977 -0.0000
vn 0.1129 0.9936 -0.0000
vn 0.0588 0.9983 -0.0000
vn 0.1666 0.9860 -0.0000
vn 0.0045 1.0000 -0.0000
vn 0.0587 0.9983 -0.0000
vn -0.0498 0.9988 -0.0000
vn -0.1039 0.9946 -0.0000
vn -0.1578 0.9875 -0.0000
vn -0.1040 0.9946 -0.0000
vn -0.1577 0.9875 -0.0000
vn -0.2112 0.9774 -0.0000
vn -0.2111 0.9775 -0.0000
vn -0.2639 0.9646 -0.0000
vn -0.3159 0.9488 -0.0000
vn -0.2640 0.9645 -0.0000
vn -0.3160 0.9488 -0.0000
vn -0.3670 0.9302 -0.0000
vn -0.3669 0.9303 -0.0000
vn -0.4170 0.9089 -0.0000
vn -0.4169 0.9089 -0.0000
vn -0.4657 0.8850 -0.0000
vn -0.4656 0.8850 -0.0000
vn -0.4658 0.8849 -0.0000
vn -0.5130 0.8584 -0.0000
vn -0.5131 0.8583 -0.0000
vn -0.5588 0.8293 -0.0000
vn -0.5590 0.8292 -0.0000
vn -0.6031 0.7977 0.0001
vn -0.9070 0.4211 -0.0000
vn -0.9633 0.2684 -0.0000
vn -0.8560 -0.5169 -0.0000
vn -0.4169 -0.9089 -0.0000
vn -0.3669 -0.9303 -0.0000
vn 0.1666 -0.9860 -0.0000
vn 0.0238 0.7067 0.7071
vn 0.0032 0.7071 0.7071
vn 0.0415 0.7059 0.7071
vn 0.0239 0.7067 0.7071
vn 0.0416 0.7059 0.7071
vn 0.0748 0.7031 0.7071
vn -0.0269 0.7066 0.7071
vn -0.0352 0.7062 0.7071
vn -0.0735 0.7033 0.7071
vn -0.0773 0.7029 0.7071
vn -0.1116 0.6982 0.7071
vn -0.0773 0.7027 0.7073
vn -0.1269 0.6956 0.7071
vn -0.1493 0.6912 0.7071
vn -0.1752 0.6851 0.7071
vn -0.1866 0.6820 0.7071
vn -0.2220 0.6714 0.7071
vn -0.2234 0.6709 0.7071
vn -0.2594 0.6578 0.7071
vn -0.2669 0.6548 0.7071
vn -0.2595 0.6578 0.7071
vn -0.2669 0.6541 0.7077
vn -0.3098 0.6356 0.7071
vn -0.2948 0.6427 0.7071
vn -0.3292 0.6258 0.7071
vn -0.3505 0.6142 0.7071
vn -0.3628 0.6070 0.7071
vn -0.3293 0.6258 0.7071
vn -0.3886 0.5908 0.7071
vn -0.3952 0.5864 0.7071
vn -0.4244 0.5656 0.7071
vn -0.4564 0.5401 0.7071
vn -0.4264 0.5640 0.7071
vn -0.4576 0.5391 0.7071
vn -0.4851 0.5145 0.7071
vn -0.4883 0.5114 0.7071
vn -0.5123 0.4874 0.7071
vn -0.5166 0.4829 0.7071
vn -0.5381 0.4588 0.7071
vn -0.5165 0.4829 0.7071
vn -0.5424 0.4537 0.7071
vn -0.5380 0.4589 0.7071
vn -0.5424 0.4536 0.7071
vn -0.5658 0.4241 0.7071
vn -0.5621 0.4290 0.7071
vn -0.5729 0.4145 0.7071
vn -0.5846 0.3978 0.7071
vn -0.5799 0.4046 0.7071
vn -0.5871 0.3942 0.7071
vn -0.5942 0.3833 0.7071
vn -0.6053 0.3655 0.7071
vn -0.6201 0.3399 0.7071
vn -0.6201 0.3398 0.7071
vn -0.6244 0.3321 0.7070
vn -0.6243 0.3321 0.7071
vn -0.6428 0.2946 0.7071
vn -0.6414 0.2977 0.7071
vn -0.6622 0.2479 0.7071
vn -0.6566 0.2624 0.7071
vn -0.6623 0.2478 0.7071
vn -0.6783 0.1998 0.7071
vn -0.6699 0.2264 0.7071
vn -0.6812 0.1897 0.7071
vn -0.6908 0.1508 0.7071
vn -0.6905 0.1525 0.7071
vn -0.6812 0.1896 0.7071
vn -0.6999 0.1010 0.7071
vn -0.6977 0.1148 0.7071
vn -0.6909 0.1507 0.7071
vn -0.7029 0.0767 0.7071
vn -0.6977 0.1147 0.7071
vn -0.6999 0.1009 0.7071
vn -0.7061 0.0384 0.7071
vn -0.7029 0.0766 0.7071
vn -0.7053 0.0506 0.7071
vn -0.7071 -0.0000 0.7071
vn -0.7061 -0.0384 0.7071
vn -0.7053 -0.0506 0.7071
vn -0.7030 -0.0766 0.7071
vn -0.7029 -0.0766 0.7071
vn -0.6999 -0.1009 0.7071
vn -0.6978 -0.1147 0.7071
vn -0.6999 -0.1010 0.7071
vn -0.6909 -0.1507 0.7071
vn -0.6977 -0.1148 0.7071
vn -0.6908 -0.1508 0.7071
vn -0.6812 -0.1897 0.7071
vn -0.6905 -0.1525 0.7071
vn -0.6783 -0.1998 0.7071
vn -0.6699 -0.2264 0.7071
vn -0.6623 -0.2477 0.7071
vn -0.6566 -0.2624 0.7071
vn -0.6428 -0.2946 0.7071
vn -0.6416 -0.2977 0.7069
vn -0.6243 -0.3321 0.7071
vn -0.6414 -0.2977 0.7071
vn -0.6054 -0.3655 0.7070
vn -0.6201 -0.3398 0.7071
vn -0.5846 -0.3978 0.7071
vn -0.6053 -0.3655 0.7071
vn -0.5942 -0.3834 0.7071
vn -0.5799 -0.4046 0.7071
vn -0.5846 -0.3979 0.7071
vn -0.5870 -0.3942 0.7071
vn -0.5166 -0.4828 0.7071
vn -0.5380 -0.4588 0.7071
vn -0.5424 -0.4537 0.7071
vn -0.5621 -0.4290 0.7071
vn -0.5658 -0.4241 0.7071
vn -0.5424 -0.4536 0.7071
vn -0.5123 -0.4874 0.7071
vn -0.4851 -0.5145 0.7071
vn -0.4883 -0.5114 0.7071
vn -0.4564 -0.5401 0.7071
vn -0.4576 -0.5391 0.7071
vn -0.4264 -0.5640 0.7071
vn -0.4243 -0.5657 0.7071
vn -0.5729 -0.4145 0.7071
vn 0.0749 -0.7031 0.7071
vn 0.1179 -0.6972 0.7071
vn 0.0798 -0.7026 0.7071
vn 0.0748 -0.7031 0.7071
vn 0.0799 -0.7027 0.7070
vn 0.0415 -0.7059 0.7071
vn 0.0416 -0.7059 0.7071
vn 0.0242 -0.7069 0.7069
vn 0.0032 -0.7071 0.7071
vn 0.0242 -0.7067 0.7071
vn -0.0265 -0.7066 0.7071
vn -0.0352 -0.7062 0.7071
vn -0.0768 -0.7029 0.7071
vn -0.0735 -0.7033 0.7071
vn -0.1116 -0.6982 0.7071
vn -0.1263 -0.6957 0.7071
vn -0.1493 -0.6912 0.7071
vn -0.1494 -0.6912 0.7071
vn -0.1746 -0.6852 0.7071
vn -0.1866 -0.6820 0.7071
vn -0.2214 -0.6716 0.7071
vn -0.1867 -0.6820 0.7071
vn -0.2214 -0.6715 0.7071
vn -0.2234 -0.6709 0.7071
vn -0.2595 -0.6578 0.7071
vn -0.2664 -0.6550 0.7071
vn -0.2948 -0.6427 0.7071
vn -0.2665 -0.6550 0.7071
vn -0.3094 -0.6358 0.7071
vn -0.3293 -0.6258 0.7071
vn -0.3501 -0.6143 0.7071
vn -0.3293 -0.6257 0.7071
vn -0.3501 -0.6144 0.7071
vn -0.3628 -0.6070 0.7071
vn -0.3627 -0.6070 0.7071
vn -0.3884 -0.5909 0.7071
vn -0.3952 -0.5864 0.7071
vn -0.4264 -0.5641 0.7071
vn -0.4242 -0.5657 0.7071
vn -0.5166 -0.4829 0.7071
vn -0.5381 -0.4590 0.7069
vn -0.5622 -0.4290 0.7070
vn -0.5942 -0.3833 0.7071
vn -0.6201 -0.3399 0.7071
vn -0.6622 -0.2479 0.7071
vn -0.6623 -0.2478 0.7071
vn -0.6905 -0.1524 0.7071
vn -0.7030 0.0766 0.7071
vn -0.6905 0.1524 0.7071
vn -0.6566 0.2623 0.7071
vn -0.6568 0.2625 0.7069
vn -0.5942 0.3834 0.7071
vn -0.5870 0.3942 0.7071
vn -0.5846 0.3979 0.7071
vn -0.5847 0.3979 0.7070
vn -0.5622 0.4291 0.7070
vn -0.4243 0.5656 0.7071
vn -0.3504 0.6142 0.7071
vn -0.1867 0.6820 0.7071
vn -0.0269 0.7067 0.7070
vn -0.0270 0.7066 0.7071
vn 0.0798 0.7026 0.7071
vn 0.1178 0.6972 0.7071
vn 0.0749 0.7031 0.7071
vn -0.1751 0.6851 0.7071
vn 0.0415 0.7060 0.7070
vn -0.0000 0.1480 0.9890
vn -0.0000 0.2928 0.9562
vn -0.0000 0.2927 0.9562
vn -0.0000 0.1690 0.9856
vn -0.0000 0.4310 0.9024
vn -0.0000 0.4459 0.8951
vn -0.0001 0.4459 0.8951
vn -0.0000 0.3166 0.9486
vn -0.0000 0.3164 0.9486
vn -0.0000 0.3165 0.9486
vn -0.0000 0.4311 0.9023
vn -0.0000 -0.3165 0.9486
vn -0.0000 -0.4459 0.8951
vn -0.0000 -0.3164 0.9486
vn -0.0000 -0.5599 0.8285
vn -0.0000 -0.4311 0.9023
vn -0.0000 -0.1480 0.9890
vn -0.0000 -0.2928 0.9562
vn -0.0000 -0.2927 0.9562
vn -0.0000 -0.1688 0.9857
vn -0.0000 -0.1689 0.9856
vn -0.0000 -0.4310 0.9024
vn -0.0000 -0.3163 0.9487
s 1
usemtl Diffuse_51_51_51_100.029
f 1//1 2//2 3//3
f 1//1 3//3 4//3
f 3//3 5//3 4//3
f 5//3 6//2 4//3
f 4//3 7//2 8//3
f 4//3 8//3 9//3
f 8//3 10//3 9//3
f 9//3 10//3 11//3
f 7//2 4//3 6//2
f 9//3 11//3 12//1
f 13//4 14//5 15//6
f 16//7 17//4 15//6
f 18//8 19//7 15//9
f 18//8 20//10 21//7
f 22//10 18//8 23//11
f 24//12 25//10 23//13
f 24//14 26//15 27//10
f 28//16 29//17 30//18
f 24//19 28//16 31//20
f 32//15 29//17 33//21
f 34//21 29//17 35//22
f 36//23 37//21 35//22
f 38//24 39//23 35//22
f 38//24 40//25 41//23
f 42//23 40//25 43//26
f 44//26 40//25 45//27
f 46//28 47//29 48//30
f 49//28 50//31 45//27
f 47//29 51//32 52//33
f 53//34 54//32 45//35
f 55//36 56//28 57//37
f 57//38 58//32 59//39
f 53//40 60//41 61//42
f 60//41 62//43 63//44
f 64//45 65//46 66//47
f 66//47 67//45 64//45
f 68//48 66//47 65//46
f 68//48 69//49 66//47
f 66//47 69//49 70//50
f 70//50 69//49 71//51
f 72//52 70//50 71//51
f 72//52 73//53 70//50
f 72//52 74//54 73//53
f 73//53 74//54 75//55
f 62//43 73//53 75//55
f 62//43 60//41 73//53
f 63//44 61//42 60//41
f 61//42 59//56 53//40
f 53//40 59//56 76//28
f 77//28 55//36 52//33
f 78//57 79//58 80//57
f 81//57 82//57 80//57
f 83//57 81//57 80//57
f 84//59 83//57 80//57
f 85//60 84//59 80//57
f 86//60 85//60 80//57
f 87//57 86//60 80//57
f 88//60 87//57 80//57
f 79//58 88//60 80//57
f 89//60 79//58 78//57
f 78//57 90//59 89//60
f 78//57 91//57 90//59
f 78//57 92//60 91//57
f 78//57 93//57 92//60
f 94//57 78//57 95//57
f 94//57 96//57 78//57
f 78//57 96//57 93//57
f 97//61 98//62 99//63
f 100//64 97//61 99//63
f 100//64 101//65 97//61
f 97//61 101//65 102//66
f 103//67 104//68 105//69
f 106//70 107//71 108//72
f 109//73 110//74 107//71
f 111//75 98//62 97//61
f 112//76 113//77 114//76
f 112//76 115//78 113//77
f 113//77 115//78 116//79
f 116//79 115//78 110//74
f 117//80 116//79 110//74
f 109//73 117//80 110//74
f 107//71 118//81 108//72
f 108//72 118//81 104//68
f 104//68 118//81 105//69
f 119//82 105//69 120//83
f 120//83 97//61 121//84
f 102//66 122//85 123//86
f 122//85 124//87 125//88
f 126//89 127//90 128//91
f 129//92 130//93 131//94
f 132//95 133//96 134//97
f 134//97 133//96 135//98
f 135//98 133//96 136//99
f 136//99 133//96 137//100
f 137//100 133//96 131//94
f 130//93 137//100 131//94
f 129//92 131//94 128//91
f 138//101 129//92 128//91
f 126//89 125//88 124//87
f 126//89 128//91 125//88
f 125//88 123//86 122//85
f 123//86 97//61 102//66
f 123//86 121//84 97//61
f 121//84 119//82 120//83
f 105//69 119//82 103//67
f 109//73 107//71 106//70
f 138//101 128//91 127//90
f 139//3 140//3 141//3
f 139//2 142//2 143//2
f 139//1 144//1 145//1
f 139//2 146//2 147//2
f 141//3 148//3 149//3
f 141//102 150//102 151//102
f 141//3 152//3 153//3
f 154//3 155//3 156//3
f 141//1 157//1 158//1
f 155//3 141//3 159//3
f 160//103 161//103 162//103
f 163//103 164//103 165//103
s 0
f 166//103 167//103 168//103
f 167//103 169//103 170//103
f 169//104 171//103 172//103
s 1
f 173//103 174//103 175//103
f 176//103 177//103 178//103
f 179//103 180//103 181//103
f 182//103 183//103 184//103
f 185//103 186//103 187//103
f 188//103 189//103 190//103
f 191//103 192//103 193//103
f 194//103 195//103 196//103
f 197//103 198//103 199//103
f 200//103 201//103 202//103
f 203//103 204//103 205//103
f 206//103 207//103 208//103
f 209//103 210//103 211//103
f 212//103 213//103 214//103
f 215//103 216//103 217//103
f 218//103 219//103 220//103
f 216//103 221//103 222//103
f 223//103 224//103 216//103
f 225//103 226//103 227//103
f 228//103 229//103 227//103
f 230//103 231//103 227//103
f 232//103 233//103 227//103
f 234//103 235//103 227//103
f 236//103 237//103 227//103
f 238//103 239//103 227//103
f 227//103 240//103 216//103
f 241//103 242//103 216//103
f 243//103 244//103 216//103
f 245//103 246//103 216//103
f 247//103 227//103 248//103
f 249//103 250//103 251//103
f 252//103 253//103 216//103
f 254//103 255//103 256//103
s 0
f 257//103 258//103 259//104
s 1
f 260//103 261//103 259//103
s 0
f 262//103 263//103 257//103
s 1
f 264//103 265//103 266//103
f 267//105 268//105 269//105
f 270//105 271//105 272//105
f 273//106 274//106 275//106
f 276//106 277//106 278//106
f 279//107 280//107 281//107
f 282//104 283//104 284//104
f 285//104 286//104 287//104
f 288//104 289//104 285//104
f 290//104 291//104 289//104
f 292//104 293//104 291//104
f 294//104 295//104 293//104
f 296//104 297//104 295//104
f 298//108 299//108 297//108
f 300//104 301//104 299//104
f 302//108 303//108 301//108
f 304//104 305//104 303//104
f 306//104 307//104 305//104
f 308//104 309//104 307//104
f 310//104 311//104 309//104
f 309//104 312//104 313//104
f 313//104 314//104 315//104
f 315//104 316//104 317//104
f 317//104 318//104 319//104
f 319//107 320//107 321//107
f 321//104 322//104 323//104
f 323//104 324//104 325//104
f 325//104 326//104 327//104
f 327//104 328//104 329//104
f 329//104 330//104 331//104
f 332//104 333//104 334//104
f 335//104 333//104 336//104
f 337//104 332//104 338//104
f 339//104 337//104 340//104
f 341//104 339//104 342//104
f 343//104 341//104 344//104
f 345//104 343//104 346//104
f 347//104 345//104 348//104
f 284//104 347//104 349//104
f 350//104 351//104 284//104
f 352//104 353//104 283//104
f 354//104 355//104 353//104
f 356//104 357//104 355//104
f 358//109 359//109 357//109
f 360//104 361//104 359//104
f 362//104 363//104 364//104
f 362//104 365//104 366//104
f 364//104 367//104 368//104
f 368//104 369//104 370//104
f 370//104 371//104 372//104
f 372//104 373//104 374//104
f 374//104 375//104 376//104
f 376//104 377//104 378//104
f 378//104 379//104 380//104
f 380//104 381//104 382//104
f 382//109 383//109 384//109
f 384//104 385//104 386//104
f 386//104 387//104 388//104
f 388//104 389//104 390//104
f 391//104 281//104 388//104
f 392//104 280//104 393//104
f 394//104 392//104 395//104
f 396//104 394//104 397//104
f 398//109 399//109 396//109
f 400//104 401//104 399//104
f 402//104 403//104 401//104
f 404//104 405//104 403//104
f 406//104 407//104 405//104
f 331//104 408//104 336//104
f 409//104 410//104 407//104
f 411//104 365//104 361//104
f 410//104 412//104 413//104
f 414//110 415//111 416//110
f 417//112 418//113 419//112
f 420//113 421//113 419//112
f 422//114 423//114 421//113
f 424//115 425//115 423//114
f 426//116 427//116 425//117
f 428//118 427//116 429//119
f 430//120 431//121 432//121
f 433//120 431//121 434//120
f 435//122 433//123 436//122
f 435//124 437//124 438//125
f 439//125 440//125 441//126
f 442//126 443//126 444//127
f 442//126 445//128 446//128
f 446//129 447//130 448//130
f 449//131 450//132 448//131
f 451//133 452//134 453//133
f 454//134 455//134 453//133
f 456//135 457//136 455//137
f 458//138 457//136 459//136
f 460//139 461//138 462//138
f 463//139 461//138 464//139
f 465//140 463//141 466//140
f 465//140 467//140 468//142
f 469//143 470//143 471//144
f 469//143 472//144 473//144
f 473//144 474//145 475//145
f 476//146 477//147 475//146
f 478//148 479//149 480//148
f 481//150 482//150 480//148
f 483//151 484//152 482//153
f 485//154 484//155 486//155
f 487//156 488//157 489//154
f 490//156 488//157 491//156
f 492//158 490//159 493//158
f 492//160 494//160 495//161
f 496//162 497//162 498//163
f 496//162 499//163 500//163
f 500//164 501//165 502//165
f 503//165 504//3 502//165
f 505//3 506//166 507//3
f 508//166 509//166 507//3
f 510//167 511//167 509//166
f 512//168 511//169 513//169
f 514//170 515//171 516//171
f 517//172 518//173 519//173
f 520//172 518//173 521//172
f 522//174 520//175 523//176
f 522//174 524//174 525//177
f 526//178 527//179 528//180
f 526//178 529//180 530//180
f 530//181 531//182 532//182
f 533//183 534//184 532//183
f 535//185 536//186 537//187
f 538//186 539//186 537//187
f 540//188 541//188 539//189
f 542//190 541//191 543//191
f 544//192 545//190 546//190
f 547//193 545//190 548//193
f 549//194 547//192 550//194
f 549//194 551//194 552//195
f 553//196 554//195 555//197
f 553//195 556//198 557//198
f 558//199 559//200 560//199
f 561//201 562//201 558//199
f 563//201 558//199 564//199
f 559//200 565//200 566//199
f 567//202 568//203 559//203
f 569//202 570//203 567//202
f 571//202 567//202 572//204
f 573//202 572//204 574//204
f 572//204 575//205 576//204
f 575//205 577//205 578//204
f 579//206 580//207 575//207
f 581//206 582//207 579//206
f 583//206 579//208 584//209
f 585//206 584//209 586//209
f 584//210 587//211 588//210
f 587//211 589//211 590//210
f 591//212 592//213 587//213
f 593//212 594//213 591//212
f 595//214 591//214 596//215
f 597//214 596//216 598//216
f 596//215 599//217 600//215
f 599//218 601//218 602//215
f 603//219 604//217 599//217
f 605//220 606//217 603//220
f 607//221 603//221 608//222
f 609//221 608//222 610//222
f 608//223 611//224 612//223
f 611//224 613//224 614//223
f 557//198 615//225 611//225
f 616//226 617//225 557//197
f 549//194 618//195 553//195
f 547//192 619//192 620//194
f 545//190 541//191 621//190
f 622//188 539//189 623//189
f 624//184 537//184 532//183
f 625//227 626//182 530//227
f 522//174 627//177 526//177
f 520//175 628//228 629//174
f 518//170 515//171 630//170
f 515//168 511//169 631//168
f 632//167 509//166 633//166
f 634//3 507//3 502//165
f 635//164 636//165 500//164
f 492//160 637//161 496//161
f 490//159 638//159 639//158
f 488//154 484//155 640//154
f 641//152 482//153 642//153
f 643//147 480//147 475//146
f 644//144 645//229 473//144
f 465//140 646//142 469//142
f 463//141 647//141 648//140
f 461//138 457//136 649//138
f 650//136 455//134 651//134
f 652//132 453//132 448//131
f 653//129 654//130 446//129
f 439//125 655//230 442//230
f 435//124 656//231 439//231
f 433//123 657//123 658//122
f 659//117 660//116 425//117
f 421//113 661//113 662//114
f 416//110 663//232 664//110
f 416//110 665//232 666//232
f 667//118 431//118 427//116
f 423//114 668//114 669//115
f 419//111 416//110 670//111
f 671//233 672//234 673//235
f 674//236 675//237 676//238
f 677//239 678//240 679//234
f 680//241 681//240 682//242
f 683//243 684//244 685//245
f 686//246 687//245 688//247
f 689//248 690//247 691//249
f 692//250 693//249 694//251
f 695//249 696//252 697//253
f 698//254 699//255 700//256
f 701//255 702//257 703//256
f 704//258 705//259 706//260
f 707//261 708//262 709//259
f 710//263 711//262 712//261
f 713//264 714//265 715//263
f 716//264 717//263 718//266
f 719//264 720//266 721//267
f 722//266 723//268 724//267
f 725//269 726//270 727//271
f 728//268 729//269 730//267
f 731//272 732//273 733//274
f 734//275 735//276 736//277
f 737//276 738//278 739//279
f 738//278 740//280 741//279
f 742//279 743//281 744//282
f 745//283 746//282 747//284
f 748//283 749//285 750//286
f 751//287 752//288 753//289
f 754//288 755//290 756//291
f 757//292 758//293 759//294
f 760//293 761//295 762//294
f 763//296 764//297 765//298
f 766//299 767//300 768//301
f 769//302 770//303 771//304
f 772//305 773//306 774//307
f 775//308 776//305 777//308
f 778//309 779//308 780//308
f 781//309 782//308 783//310
f 784//309 785//310 786//311
f 787//312 788//313 789//314
f 790//315 791//316 792//317
f 793//318 794//319 795//320
f 796//321 797//322 798//319
f 799//323 800//324 801//322
f 802//325 803//326 804//324
f 805//327 806//328 807//325
f 808//329 809//327 810//330
f 811//331 812//332 813//333
f 814//334 815//335 816//336
f 817//337 818//338 819//339
f 820//340 821//341 822//342
f 823//343 824//338 825//337
f 826//344 827//343 828//345
f 829//346 830//344 831//347
f 832//348 833//346 834//349
f 835//350 836//341 837//331
f 838//351 839//352 840//353
f 841//354 842//355 843//356
f 844//354 845//357 846//358
f 847//356 848//359 849//360
f 850//359 851//361 852//360
f 853//362 854//361 855//359
f 856//363 857//361 858//362
f 859//363 860//362 861//364
f 862//363 863//364 864//365
f 865//363 866//365 867//366
f 868//365 869//367 870//366
f 871//368 872//369 873//366
f 874//370 875//369 876//367
f 877//371 878//369 879//372
f 880//373 881//370 882//374
f 883//373 884//374 885//375
f 886//373 887//375 888//376
f 889//375 890//377 891//378
f 892//377 893//379 894//378
f 895//380 896//379 897//377
f 898//381 899//379 900//382
f 901//383 902//380 903//384
f 904//381 905//385 906//386
f 907//384 908//387 909//386
f 910//387 911//349 912//386
f 913//388 914//389 915//387
f 916//346 917//347 918//389
f 919//344 920//345 921//347
f 922//343 923//390 924//345
f 925//391 926//340 927//339
f 928//392 929//331 930//341
f 931//331 814//334 835//350
f 932//393 816//336 933//331
f 934//394 935//393 936//332
f 937//325 938//330 939//327
f 940//324 941//395 942//325
f 943//322 944//321 945//396
f 946//319 947//318 948//321
f 949//397 950//317 951//318
f 952//313 953//311 954//310
f 955//305 956//307 957//308
f 958//398 959//304 960//307
f 961//300 962//399 963//296
f 964//296 965//295 966//293
f 967//292 968//294 969//400
f 970//288 971//401 972//289
f 973//285 974//288 975//287
f 976//279 977//402 978//283
f 740//280 743//403 979//404
f 980//276 981//405 982//277
f 983//273 984//406 985//274
f 986//268 987//272 988//269
f 989//407 990//265 991//262
f 992//408 993//261 994//259
f 995//255 996//408 997//260
f 998//249 999//250 1000//409
f 1001//243 1002//245 1003//246
f 1004//241 1005//242 1006//243
f 1007//240 1008//410 1009//242
f 1010//236 1011//411 1012//234
f 1013//412 1014//413 1015//414
f 1016//415 1017//248 1018//246
f 1019//256 1020//253 1021//252
f 1022//416 1023//412 1024//238
f 95//57 78//57 1025//417
f 1026//417 1027//418 95//57
f 95//57 1028//419 1029//420
s 0
f 1030//420 1031//57 1032//421
s 1
f 1033//422 132//95 134//97
f 1034//423 1035//424 132//95
f 1036//425 1037//420 1038//421
f 1039//426 1040//427 132//95
f 67//45 1041//428 1042//429
f 64//45 67//45 1043//429
f 1044//430 67//431 1045//432
f 80//57 82//57 1046//433
f 1047//433 82//57 1048//434
f 1049//435 82//57 1050//436
s 0
f 1051//57 1052//434 1053//437
s 1
f 1054//438 1055//437 1056//439
