# Blender 4.4.3
# www.blender.org
mtllib Mesh_7.mtl
o Mesh_7
v 0.015417 0.009796 0.000247
v 0.015419 0.009771 0.000247
v 0.015429 0.009753 0.000247
v 0.015433 0.009754 0.000246
v 0.015426 0.009799 0.000245
v 0.015421 0.009797 0.000246
v 0.015436 0.009755 0.000246
v 0.015430 0.009800 0.000243
v 0.015440 0.009756 0.000245
v 0.015446 0.009758 0.000242
v 0.015443 0.009757 0.000243
v 0.015435 0.009801 0.000241
v 0.015449 0.009759 0.000240
v 0.015439 0.009802 0.000239
v 0.015452 0.009759 0.000238
v 0.015443 0.009804 0.000236
v 0.015455 0.009760 0.000236
v 0.015458 0.009761 0.000233
v 0.015446 0.009805 0.000233
v 0.015460 0.009762 0.000231
v 0.015449 0.009805 0.000229
v 0.015462 0.009762 0.000228
v 0.015452 0.009806 0.000225
v 0.015464 0.009763 0.000225
v 0.015454 0.009807 0.000221
v 0.015466 0.009764 0.000222
v 0.015468 0.009764 0.000219
v 0.015469 0.009764 0.000215
v 0.015457 0.009808 0.000216
v 0.015471 0.009765 0.000212
v 0.015458 0.009808 0.000212
v 0.015471 0.009765 0.000208
v 0.015472 0.009765 0.000205
v 0.015459 0.009808 0.000207
v 0.015472 0.009765 0.000201
v 0.015460 0.009809 0.000202
v 0.015460 0.009809 0.000197
v 0.015473 0.009765 0.000197
v 0.015460 0.009809 0.000192
v 0.015472 0.009765 0.000192
v 0.015459 0.009808 0.000187
v 0.015472 0.009765 0.000187
v 0.015458 0.009808 0.000183
v 0.015471 0.009765 0.000183
v 0.015457 0.009808 0.000178
v 0.015469 0.009764 0.000178
v 0.015454 0.009807 0.000174
v 0.015452 0.009806 0.000169
v 0.015467 0.009764 0.000174
v 0.015449 0.009805 0.000165
v 0.015464 0.009763 0.000169
v 0.015462 0.009762 0.000165
v 0.015458 0.009761 0.000162
v 0.015446 0.009805 0.000162
v 0.015412 0.009795 0.000247
v 0.015429 0.009753 0.000147
v 0.015419 0.009771 0.000147
v 0.015417 0.009796 0.000147
v 0.015412 0.009795 0.000147
v 0.015434 0.009754 0.000148
v 0.015421 0.009797 0.000148
v 0.015438 0.009756 0.000149
v 0.015426 0.009799 0.000149
v 0.015443 0.009757 0.000151
v 0.015430 0.009800 0.000151
v 0.015447 0.009758 0.000153
v 0.015435 0.009801 0.000153
v 0.015451 0.009759 0.000156
v 0.015439 0.009802 0.000156
v 0.015455 0.009760 0.000159
v 0.015443 0.009804 0.000159
v 0.015426 0.009752 0.000247
v 0.015422 0.009751 0.000247
v 0.015414 0.009769 0.000247
v 0.015419 0.009750 0.000247
v 0.015410 0.009768 0.000246
v 0.015415 0.009749 0.000246
v 0.015412 0.009748 0.000245
v 0.015405 0.009767 0.000245
v 0.015408 0.009747 0.000244
v 0.015401 0.009765 0.000243
v 0.015405 0.009746 0.000243
v 0.015396 0.009764 0.000241
v 0.015402 0.009745 0.000241
v 0.015399 0.009744 0.000239
v 0.015392 0.009763 0.000239
v 0.015396 0.009743 0.000237
v 0.015389 0.009762 0.000236
v 0.015393 0.009743 0.000235
v 0.015385 0.009761 0.000233
v 0.015391 0.009742 0.000233
v 0.015386 0.009740 0.000227
v 0.015382 0.009760 0.000229
v 0.015379 0.009759 0.000225
v 0.015379 0.009739 0.000214
v 0.015373 0.009758 0.000212
v 0.015378 0.009738 0.000211
v 0.015375 0.009758 0.000216
v 0.015377 0.009738 0.000200
v 0.015377 0.009738 0.000203
v 0.015371 0.009757 0.000202
v 0.015372 0.009757 0.000207
v 0.015376 0.009738 0.000196
v 0.015371 0.009757 0.000197
v 0.015371 0.009757 0.000192
v 0.015377 0.009738 0.000192
v 0.015377 0.009738 0.000189
v 0.015372 0.009757 0.000187
v 0.015378 0.009738 0.000185
v 0.015373 0.009758 0.000183
v 0.015379 0.009738 0.000181
v 0.015375 0.009758 0.000178
v 0.015382 0.009739 0.000175
v 0.015380 0.009739 0.000178
v 0.015377 0.009759 0.000174
v 0.015379 0.009759 0.000169
v 0.015383 0.009740 0.000171
v 0.015385 0.009740 0.000168
v 0.015382 0.009760 0.000165
v 0.015390 0.009742 0.000163
v 0.015387 0.009741 0.000165
v 0.015385 0.009761 0.000162
v 0.015389 0.009762 0.000159
v 0.015392 0.009742 0.000160
v 0.015395 0.009743 0.000158
v 0.015392 0.009763 0.000156
v 0.015398 0.009744 0.000156
v 0.015401 0.009745 0.000154
v 0.015396 0.009764 0.000153
v 0.015404 0.009746 0.000152
v 0.015401 0.009765 0.000151
v 0.015407 0.009747 0.000151
v 0.015405 0.009767 0.000149
v 0.015425 0.009752 0.000147
v 0.015421 0.009751 0.000147
v 0.015414 0.009769 0.000147
v 0.015417 0.009750 0.000148
v 0.015410 0.009768 0.000148
v 0.015414 0.009749 0.000148
v 0.015411 0.009748 0.000149
v 0.015377 0.009738 0.000207
v 0.015381 0.009739 0.000217
v 0.015377 0.009759 0.000221
v 0.015382 0.009739 0.000221
v 0.015384 0.009740 0.000224
v 0.015388 0.009741 0.000230
v 0.015323 0.009743 0.000147
v 0.015316 0.009767 0.000147
v 0.015371 0.009757 0.000147
v 0.015395 0.009764 0.000147
v 0.015407 0.009767 0.000147
v 0.015413 0.009769 0.000147
v 0.015311 0.009766 0.000147
v 0.015318 0.009742 0.000147
v 0.015307 0.009765 0.000148
v 0.015313 0.009741 0.000148
v 0.015302 0.009763 0.000149
v 0.015309 0.009739 0.000149
v 0.015298 0.009762 0.000151
v 0.015293 0.009761 0.000153
v 0.015304 0.009738 0.000151
v 0.015300 0.009737 0.000153
v 0.015289 0.009760 0.000156
v 0.015296 0.009736 0.000156
v 0.015285 0.009758 0.000159
v 0.015292 0.009734 0.000159
v 0.015282 0.009757 0.000162
v 0.015289 0.009733 0.000162
v 0.015279 0.009757 0.000165
v 0.015286 0.009733 0.000165
v 0.015283 0.009732 0.000169
v 0.015276 0.009756 0.000169
v 0.015280 0.009731 0.000174
v 0.015274 0.009755 0.000174
v 0.015278 0.009730 0.000178
v 0.015272 0.009754 0.000178
v 0.015277 0.009730 0.000183
v 0.015270 0.009754 0.000183
v 0.015276 0.009730 0.000187
v 0.015268 0.009754 0.000192
v 0.015269 0.009754 0.000187
v 0.015275 0.009729 0.000192
v 0.015268 0.009753 0.000197
v 0.015275 0.009729 0.000197
v 0.015268 0.009754 0.000202
v 0.015275 0.009729 0.000202
v 0.015269 0.009754 0.000207
v 0.015276 0.009730 0.000207
v 0.015270 0.009754 0.000212
v 0.015277 0.009730 0.000212
v 0.015272 0.009754 0.000216
v 0.015278 0.009730 0.000216
v 0.015274 0.009755 0.000221
v 0.015280 0.009731 0.000221
v 0.015276 0.009756 0.000225
v 0.015283 0.009732 0.000225
v 0.015286 0.009733 0.000229
v 0.015279 0.009757 0.000229
v 0.015289 0.009733 0.000233
v 0.015282 0.009757 0.000233
v 0.015292 0.009734 0.000236
v 0.015285 0.009758 0.000236
v 0.015296 0.009736 0.000239
v 0.015289 0.009760 0.000239
v 0.015300 0.009737 0.000241
v 0.015293 0.009761 0.000241
v 0.015298 0.009762 0.000243
v 0.015304 0.009738 0.000243
v 0.015302 0.009763 0.000245
v 0.015323 0.009743 0.000247
v 0.015316 0.009767 0.000247
v 0.015318 0.009742 0.000247
v 0.015311 0.009766 0.000247
v 0.015313 0.009741 0.000246
v 0.015307 0.009765 0.000246
v 0.015309 0.009739 0.000245
v 0.015413 0.009769 0.000247
v 0.015371 0.009757 0.000247
v 0.015395 0.009764 0.000247
v 0.015407 0.009767 0.000247
v 0.015316 0.009767 0.000147
v 0.015316 0.009767 0.000247
v 0.015412 0.009795 0.000247
v 0.015316 0.009767 0.000147
v 0.015311 0.009766 0.000247
v 0.015316 0.009767 0.000247
v 0.015316 0.009767 0.000147
v 0.015307 0.009765 0.000246
v 0.015311 0.009766 0.000247
v 0.015316 0.009767 0.000147
v 0.015302 0.009763 0.000245
v 0.015307 0.009765 0.000246
v 0.015316 0.009767 0.000147
v 0.015298 0.009762 0.000243
v 0.015302 0.009763 0.000245
v 0.015316 0.009767 0.000147
v 0.015293 0.009761 0.000241
v 0.015298 0.009762 0.000243
v 0.015316 0.009767 0.000147
v 0.015289 0.009760 0.000239
v 0.015293 0.009761 0.000241
v 0.015316 0.009767 0.000147
v 0.015285 0.009758 0.000236
v 0.015289 0.009760 0.000239
v 0.015316 0.009767 0.000147
v 0.015282 0.009757 0.000233
v 0.015285 0.009758 0.000236
v 0.015316 0.009767 0.000147
v 0.015279 0.009757 0.000229
v 0.015282 0.009757 0.000233
v 0.015316 0.009767 0.000147
v 0.015276 0.009756 0.000225
v 0.015279 0.009757 0.000229
v 0.015272 0.009754 0.000216
v 0.015274 0.009755 0.000221
v 0.015316 0.009767 0.000147
v 0.015316 0.009767 0.000147
v 0.015274 0.009755 0.000221
v 0.015276 0.009756 0.000225
v 0.015270 0.009754 0.000212
v 0.015272 0.009754 0.000216
v 0.015316 0.009767 0.000147
v 0.015269 0.009754 0.000207
v 0.015270 0.009754 0.000212
v 0.015316 0.009767 0.000147
v 0.015268 0.009754 0.000202
v 0.015269 0.009754 0.000207
v 0.015316 0.009767 0.000147
v 0.015268 0.009753 0.000197
v 0.015268 0.009754 0.000202
v 0.015316 0.009767 0.000147
v 0.015268 0.009754 0.000192
v 0.015268 0.009753 0.000197
v 0.015316 0.009767 0.000147
v 0.015269 0.009754 0.000187
v 0.015268 0.009754 0.000192
v 0.015316 0.009767 0.000147
v 0.015269 0.009754 0.000187
v 0.015316 0.009767 0.000147
v 0.015270 0.009754 0.000183
v 0.015270 0.009754 0.000183
v 0.015316 0.009767 0.000147
v 0.015272 0.009754 0.000178
v 0.015272 0.009754 0.000178
v 0.015316 0.009767 0.000147
v 0.015274 0.009755 0.000174
v 0.015274 0.009755 0.000174
v 0.015316 0.009767 0.000147
v 0.015276 0.009756 0.000169
v 0.015276 0.009756 0.000169
v 0.015316 0.009767 0.000147
v 0.015279 0.009757 0.000165
v 0.015316 0.009767 0.000147
v 0.015285 0.009758 0.000159
v 0.015282 0.009757 0.000162
v 0.015316 0.009767 0.000147
v 0.015289 0.009760 0.000156
v 0.015285 0.009758 0.000159
v 0.015298 0.009762 0.000151
v 0.015293 0.009761 0.000153
v 0.015316 0.009767 0.000147
v 0.015316 0.009767 0.000147
v 0.015293 0.009761 0.000153
v 0.015289 0.009760 0.000156
v 0.015302 0.009763 0.000149
v 0.015298 0.009762 0.000151
v 0.015316 0.009767 0.000147
v 0.015307 0.009765 0.000148
v 0.015302 0.009763 0.000149
v 0.015316 0.009767 0.000147
v 0.015311 0.009766 0.000147
v 0.015307 0.009765 0.000148
v 0.015316 0.009767 0.000147
v 0.015316 0.009767 0.000147
v 0.015412 0.009795 0.000247
v 0.015412 0.009795 0.000147
v 0.015412 0.009795 0.000147
v 0.015412 0.009795 0.000247
v 0.015417 0.009796 0.000147
v 0.015412 0.009795 0.000247
v 0.015421 0.009797 0.000148
v 0.015417 0.009796 0.000147
v 0.015412 0.009795 0.000247
v 0.015426 0.009799 0.000149
v 0.015421 0.009797 0.000148
v 0.015412 0.009795 0.000247
v 0.015430 0.009800 0.000151
v 0.015426 0.009799 0.000149
v 0.015412 0.009795 0.000247
v 0.015435 0.009801 0.000153
v 0.015430 0.009800 0.000151
v 0.015412 0.009795 0.000247
v 0.015439 0.009802 0.000156
v 0.015435 0.009801 0.000153
v 0.015412 0.009795 0.000247
v 0.015443 0.009804 0.000159
v 0.015439 0.009802 0.000156
v 0.015412 0.009795 0.000247
v 0.015446 0.009805 0.000162
v 0.015443 0.009804 0.000159
v 0.015412 0.009795 0.000247
v 0.015449 0.009805 0.000165
v 0.015446 0.009805 0.000162
v 0.015412 0.009795 0.000247
v 0.015452 0.009806 0.000169
v 0.015449 0.009805 0.000165
v 0.015457 0.009808 0.000178
v 0.015454 0.009807 0.000174
v 0.015412 0.009795 0.000247
v 0.015412 0.009795 0.000247
v 0.015454 0.009807 0.000174
v 0.015452 0.009806 0.000169
v 0.015458 0.009808 0.000183
v 0.015457 0.009808 0.000178
v 0.015412 0.009795 0.000247
v 0.015459 0.009808 0.000187
v 0.015458 0.009808 0.000183
v 0.015412 0.009795 0.000247
v 0.015460 0.009809 0.000192
v 0.015459 0.009808 0.000187
v 0.015412 0.009795 0.000247
v 0.015460 0.009809 0.000197
v 0.015460 0.009809 0.000192
v 0.015412 0.009795 0.000247
v 0.015460 0.009809 0.000202
v 0.015412 0.009795 0.000247
v 0.015459 0.009808 0.000207
v 0.015459 0.009808 0.000207
v 0.015412 0.009795 0.000247
v 0.015458 0.009808 0.000212
v 0.015412 0.009795 0.000247
v 0.015457 0.009808 0.000216
v 0.015458 0.009808 0.000212
v 0.015412 0.009795 0.000247
v 0.015454 0.009807 0.000221
v 0.015457 0.009808 0.000216
v 0.015412 0.009795 0.000247
v 0.015452 0.009806 0.000225
v 0.015454 0.009807 0.000221
v 0.015412 0.009795 0.000247
v 0.015449 0.009805 0.000229
v 0.015452 0.009806 0.000225
v 0.015412 0.009795 0.000247
v 0.015446 0.009805 0.000233
v 0.015449 0.009805 0.000229
v 0.015412 0.009795 0.000247
v 0.015443 0.009804 0.000236
v 0.015446 0.009805 0.000233
v 0.015412 0.009795 0.000247
v 0.015439 0.009802 0.000239
v 0.015443 0.009804 0.000236
v 0.015430 0.009800 0.000243
v 0.015435 0.009801 0.000241
v 0.015412 0.009795 0.000247
v 0.015412 0.009795 0.000247
v 0.015435 0.009801 0.000241
v 0.015439 0.009802 0.000239
v 0.015426 0.009799 0.000245
v 0.015430 0.009800 0.000243
v 0.015412 0.009795 0.000247
v 0.015421 0.009797 0.000246
v 0.015426 0.009799 0.000245
v 0.015412 0.009795 0.000247
v 0.015417 0.009796 0.000247
v 0.015421 0.009797 0.000246
v 0.015412 0.009795 0.000247
v 0.015279 0.009757 0.000165
v 0.015316 0.009767 0.000147
v 0.015282 0.009757 0.000162
v 0.015460 0.009809 0.000202
v 0.015460 0.009809 0.000197
v 0.015412 0.009795 0.000247
v 0.015413 0.009769 0.000147
v 0.015419 0.009771 0.000147
v 0.015414 0.009769 0.000147
v 0.015413 0.009769 0.000147
v 0.015414 0.009769 0.000147
v 0.015410 0.009768 0.000148
v 0.015395 0.009764 0.000147
v 0.015407 0.009767 0.000147
v 0.015405 0.009767 0.000149
v 0.015407 0.009767 0.000147
v 0.015410 0.009768 0.000148
v 0.015405 0.009767 0.000149
v 0.015410 0.009768 0.000246
v 0.015414 0.009769 0.000247
v 0.015413 0.009769 0.000247
v 0.015405 0.009767 0.000245
v 0.015410 0.009768 0.000246
v 0.015407 0.009767 0.000247
v 0.015405 0.009767 0.000245
v 0.015407 0.009767 0.000247
v 0.015395 0.009764 0.000247
v 0.015407 0.009767 0.000147
v 0.015413 0.009769 0.000147
v 0.015410 0.009768 0.000148
v 0.015371 0.009757 0.000147
v 0.015395 0.009764 0.000147
v 0.015389 0.009762 0.000159
v 0.015401 0.009765 0.000151
v 0.015396 0.009764 0.000153
v 0.015395 0.009764 0.000147
v 0.015401 0.009765 0.000151
v 0.015395 0.009764 0.000147
v 0.015405 0.009767 0.000149
v 0.015396 0.009764 0.000153
v 0.015392 0.009763 0.000156
v 0.015395 0.009764 0.000147
v 0.015392 0.009763 0.000156
v 0.015389 0.009762 0.000159
v 0.015395 0.009764 0.000147
v 0.015389 0.009762 0.000159
v 0.015385 0.009761 0.000162
v 0.015371 0.009757 0.000147
v 0.015385 0.009761 0.000162
v 0.015382 0.009760 0.000165
v 0.015371 0.009757 0.000147
v 0.015382 0.009760 0.000165
v 0.015379 0.009759 0.000169
v 0.015371 0.009757 0.000147
v 0.015379 0.009759 0.000169
v 0.015377 0.009759 0.000174
v 0.015371 0.009757 0.000147
v 0.015377 0.009759 0.000174
v 0.015375 0.009758 0.000178
v 0.015371 0.009757 0.000147
v 0.015375 0.009758 0.000178
v 0.015373 0.009758 0.000183
v 0.015323 0.009743 0.000147
v 0.015373 0.009758 0.000183
v 0.015372 0.009757 0.000187
v 0.015323 0.009743 0.000147
v 0.015372 0.009757 0.000187
v 0.015371 0.009757 0.000192
v 0.015323 0.009743 0.000147
v 0.015371 0.009757 0.000192
v 0.015371 0.009757 0.000197
v 0.015323 0.009743 0.000147
v 0.015323 0.009743 0.000247
v 0.015323 0.009743 0.000147
v 0.015371 0.009757 0.000197
v 0.015323 0.009743 0.000247
v 0.015371 0.009757 0.000197
v 0.015371 0.009757 0.000202
v 0.015323 0.009743 0.000247
v 0.015371 0.009757 0.000202
v 0.015372 0.009757 0.000207
v 0.015323 0.009743 0.000247
v 0.015372 0.009757 0.000207
v 0.015373 0.009758 0.000212
v 0.015323 0.009743 0.000247
v 0.015373 0.009758 0.000212
v 0.015375 0.009758 0.000216
v 0.015323 0.009743 0.000247
v 0.015375 0.009758 0.000216
v 0.015371 0.009757 0.000247
v 0.015382 0.009760 0.000229
v 0.015371 0.009757 0.000247
v 0.015379 0.009759 0.000225
v 0.015371 0.009757 0.000247
v 0.015377 0.009759 0.000221
v 0.015379 0.009759 0.000225
v 0.015385 0.009761 0.000233
v 0.015371 0.009757 0.000247
v 0.015382 0.009760 0.000229
v 0.015389 0.009762 0.000236
v 0.015371 0.009757 0.000247
v 0.015385 0.009761 0.000233
v 0.015395 0.009764 0.000247
v 0.015371 0.009757 0.000247
v 0.015389 0.009762 0.000236
v 0.015395 0.009764 0.000247
v 0.015389 0.009762 0.000236
v 0.015392 0.009763 0.000239
v 0.015392 0.009763 0.000239
v 0.015396 0.009764 0.000241
v 0.015395 0.009764 0.000247
v 0.015396 0.009764 0.000241
v 0.015401 0.009765 0.000243
v 0.015395 0.009764 0.000247
v 0.015401 0.009765 0.000243
v 0.015405 0.009767 0.000245
v 0.015395 0.009764 0.000247
v 0.015323 0.009743 0.000147
v 0.015371 0.009757 0.000147
v 0.015375 0.009758 0.000178
v 0.015419 0.009771 0.000247
v 0.015413 0.009769 0.000247
v 0.015414 0.009769 0.000247
v 0.015407 0.009767 0.000247
v 0.015410 0.009768 0.000246
v 0.015413 0.009769 0.000247
v 0.015323 0.009743 0.000247
v 0.015318 0.009742 0.000247
v 0.015323 0.009743 0.000147
v 0.015323 0.009743 0.000147
v 0.015318 0.009742 0.000247
v 0.015313 0.009741 0.000246
v 0.015323 0.009743 0.000147
v 0.015313 0.009741 0.000246
v 0.015309 0.009739 0.000245
v 0.015323 0.009743 0.000147
v 0.015309 0.009739 0.000245
v 0.015304 0.009738 0.000243
v 0.015323 0.009743 0.000147
v 0.015304 0.009738 0.000243
v 0.015300 0.009737 0.000241
v 0.015323 0.009743 0.000147
v 0.015300 0.009737 0.000241
v 0.015296 0.009736 0.000239
v 0.015323 0.009743 0.000147
v 0.015296 0.009736 0.000239
v 0.015292 0.009734 0.000236
v 0.015323 0.009743 0.000147
v 0.015292 0.009734 0.000236
v 0.015289 0.009733 0.000233
v 0.015323 0.009743 0.000147
v 0.015289 0.009733 0.000233
v 0.015286 0.009733 0.000229
v 0.015280 0.009731 0.000221
v 0.015323 0.009743 0.000147
v 0.015283 0.009732 0.000225
v 0.015323 0.009743 0.000147
v 0.015286 0.009733 0.000229
v 0.015283 0.009732 0.000225
v 0.015278 0.009730 0.000216
v 0.015323 0.009743 0.000147
v 0.015280 0.009731 0.000221
v 0.015277 0.009730 0.000212
v 0.015323 0.009743 0.000147
v 0.015278 0.009730 0.000216
v 0.015276 0.009730 0.000207
v 0.015323 0.009743 0.000147
v 0.015277 0.009730 0.000212
v 0.015275 0.009729 0.000202
v 0.015323 0.009743 0.000147
v 0.015276 0.009730 0.000207
v 0.015275 0.009729 0.000197
v 0.015323 0.009743 0.000147
v 0.015275 0.009729 0.000202
v 0.015275 0.009729 0.000192
v 0.015323 0.009743 0.000147
v 0.015275 0.009729 0.000197
v 0.015275 0.009729 0.000192
v 0.015276 0.009730 0.000187
v 0.015323 0.009743 0.000147
v 0.015276 0.009730 0.000187
v 0.015277 0.009730 0.000183
v 0.015323 0.009743 0.000147
v 0.015323 0.009743 0.000147
v 0.015278 0.009730 0.000178
v 0.015280 0.009731 0.000174
v 0.015323 0.009743 0.000147
v 0.015280 0.009731 0.000174
v 0.015283 0.009732 0.000169
v 0.015323 0.009743 0.000147
v 0.015283 0.009732 0.000169
v 0.015286 0.009733 0.000165
v 0.015323 0.009743 0.000147
v 0.015286 0.009733 0.000165
v 0.015289 0.009733 0.000162
v 0.015323 0.009743 0.000147
v 0.015289 0.009733 0.000162
v 0.015292 0.009734 0.000159
v 0.015323 0.009743 0.000147
v 0.015292 0.009734 0.000159
v 0.015296 0.009736 0.000156
v 0.015304 0.009738 0.000151
v 0.015323 0.009743 0.000147
v 0.015300 0.009737 0.000153
v 0.015323 0.009743 0.000147
v 0.015296 0.009736 0.000156
v 0.015300 0.009737 0.000153
v 0.015309 0.009739 0.000149
v 0.015323 0.009743 0.000147
v 0.015304 0.009738 0.000151
v 0.015313 0.009741 0.000148
v 0.015323 0.009743 0.000147
v 0.015309 0.009739 0.000149
v 0.015318 0.009742 0.000147
v 0.015323 0.009743 0.000147
v 0.015313 0.009741 0.000148
v 0.015377 0.009759 0.000221
v 0.015371 0.009757 0.000247
v 0.015375 0.009758 0.000216
v 0.015278 0.009730 0.000178
v 0.015323 0.009743 0.000147
v 0.015277 0.009730 0.000183
v 0.015434 0.009754 0.000148
v 0.015425 0.009752 0.000147
v 0.015429 0.009753 0.000147
v 0.015438 0.009756 0.000149
v 0.015425 0.009752 0.000147
v 0.015434 0.009754 0.000148
v 0.015443 0.009757 0.000151
v 0.015425 0.009752 0.000147
v 0.015438 0.009756 0.000149
v 0.015447 0.009758 0.000153
v 0.015425 0.009752 0.000147
v 0.015443 0.009757 0.000151
v 0.015451 0.009759 0.000156
v 0.015425 0.009752 0.000147
v 0.015447 0.009758 0.000153
v 0.015455 0.009760 0.000159
v 0.015425 0.009752 0.000147
v 0.015451 0.009759 0.000156
v 0.015458 0.009761 0.000162
v 0.015425 0.009752 0.000147
v 0.015455 0.009760 0.000159
v 0.015462 0.009762 0.000165
v 0.015425 0.009752 0.000147
v 0.015458 0.009761 0.000162
v 0.015464 0.009763 0.000169
v 0.015425 0.009752 0.000147
v 0.015462 0.009762 0.000165
v 0.015467 0.009764 0.000174
v 0.015425 0.009752 0.000147
v 0.015464 0.009763 0.000169
v 0.015469 0.009764 0.000178
v 0.015425 0.009752 0.000147
v 0.015467 0.009764 0.000174
v 0.015471 0.009765 0.000183
v 0.015472 0.009765 0.000187
v 0.015425 0.009752 0.000147
v 0.015471 0.009765 0.000183
v 0.015425 0.009752 0.000147
v 0.015469 0.009764 0.000178
v 0.015472 0.009765 0.000187
v 0.015472 0.009765 0.000192
v 0.015425 0.009752 0.000147
v 0.015472 0.009765 0.000192
v 0.015473 0.009765 0.000197
v 0.015425 0.009752 0.000147
v 0.015473 0.009765 0.000197
v 0.015472 0.009765 0.000201
v 0.015425 0.009752 0.000147
v 0.015472 0.009765 0.000201
v 0.015472 0.009765 0.000205
v 0.015425 0.009752 0.000147
v 0.015425 0.009752 0.000147
v 0.015472 0.009765 0.000205
v 0.015471 0.009765 0.000208
v 0.015425 0.009752 0.000147
v 0.015471 0.009765 0.000208
v 0.015471 0.009765 0.000212
v 0.015425 0.009752 0.000147
v 0.015471 0.009765 0.000212
v 0.015469 0.009764 0.000215
v 0.015425 0.009752 0.000147
v 0.015469 0.009764 0.000215
v 0.015468 0.009764 0.000219
v 0.015425 0.009752 0.000147
v 0.015468 0.009764 0.000219
v 0.015466 0.009764 0.000222
v 0.015425 0.009752 0.000147
v 0.015466 0.009764 0.000222
v 0.015464 0.009763 0.000225
v 0.015425 0.009752 0.000147
v 0.015464 0.009763 0.000225
v 0.015462 0.009762 0.000228
v 0.015425 0.009752 0.000147
v 0.015462 0.009762 0.000228
v 0.015460 0.009762 0.000231
v 0.015425 0.009752 0.000147
v 0.015460 0.009762 0.000231
v 0.015458 0.009761 0.000233
v 0.015425 0.009752 0.000147
v 0.015458 0.009761 0.000233
v 0.015455 0.009760 0.000236
v 0.015425 0.009752 0.000147
v 0.015455 0.009760 0.000236
v 0.015452 0.009759 0.000238
v 0.015446 0.009758 0.000242
v 0.015425 0.009752 0.000147
v 0.015449 0.009759 0.000240
v 0.015425 0.009752 0.000147
v 0.015452 0.009759 0.000238
v 0.015449 0.009759 0.000240
v 0.015443 0.009757 0.000243
v 0.015425 0.009752 0.000147
v 0.015446 0.009758 0.000242
v 0.015440 0.009756 0.000245
v 0.015425 0.009752 0.000147
v 0.015443 0.009757 0.000243
v 0.015436 0.009755 0.000246
v 0.015425 0.009752 0.000147
v 0.015440 0.009756 0.000245
v 0.015433 0.009754 0.000246
v 0.015425 0.009752 0.000147
v 0.015436 0.009755 0.000246
v 0.015429 0.009753 0.000247
v 0.015425 0.009752 0.000147
v 0.015433 0.009754 0.000246
v 0.015426 0.009752 0.000247
v 0.015422 0.009751 0.000247
v 0.015425 0.009752 0.000147
v 0.015422 0.009751 0.000247
v 0.015419 0.009750 0.000247
v 0.015425 0.009752 0.000147
v 0.015425 0.009752 0.000147
v 0.015419 0.009750 0.000247
v 0.015415 0.009749 0.000246
v 0.015425 0.009752 0.000147
v 0.015415 0.009749 0.000246
v 0.015412 0.009748 0.000245
v 0.015425 0.009752 0.000147
v 0.015412 0.009748 0.000245
v 0.015408 0.009747 0.000244
v 0.015425 0.009752 0.000147
v 0.015408 0.009747 0.000244
v 0.015405 0.009746 0.000243
v 0.015425 0.009752 0.000147
v 0.015405 0.009746 0.000243
v 0.015402 0.009745 0.000241
v 0.015425 0.009752 0.000147
v 0.015402 0.009745 0.000241
v 0.015399 0.009744 0.000239
v 0.015425 0.009752 0.000147
v 0.015399 0.009744 0.000239
v 0.015396 0.009743 0.000237
v 0.015425 0.009752 0.000147
v 0.015396 0.009743 0.000237
v 0.015393 0.009743 0.000235
v 0.015425 0.009752 0.000147
v 0.015393 0.009743 0.000235
v 0.015391 0.009742 0.000233
v 0.015425 0.009752 0.000147
v 0.015391 0.009742 0.000233
v 0.015388 0.009741 0.000230
v 0.015425 0.009752 0.000147
v 0.015388 0.009741 0.000230
v 0.015386 0.009740 0.000227
v 0.015425 0.009752 0.000147
v 0.015386 0.009740 0.000227
v 0.015384 0.009740 0.000224
v 0.015381 0.009739 0.000217
v 0.015425 0.009752 0.000147
v 0.015382 0.009739 0.000221
v 0.015425 0.009752 0.000147
v 0.015384 0.009740 0.000224
v 0.015382 0.009739 0.000221
v 0.015379 0.009739 0.000214
v 0.015425 0.009752 0.000147
v 0.015381 0.009739 0.000217
v 0.015378 0.009738 0.000211
v 0.015425 0.009752 0.000147
v 0.015379 0.009739 0.000214
v 0.015377 0.009738 0.000207
v 0.015425 0.009752 0.000147
v 0.015378 0.009738 0.000211
v 0.015377 0.009738 0.000203
v 0.015425 0.009752 0.000147
v 0.015377 0.009738 0.000207
v 0.015377 0.009738 0.000200
v 0.015425 0.009752 0.000147
v 0.015377 0.009738 0.000203
v 0.015376 0.009738 0.000196
v 0.015425 0.009752 0.000147
v 0.015377 0.009738 0.000200
v 0.015377 0.009738 0.000192
v 0.015425 0.009752 0.000147
v 0.015376 0.009738 0.000196
v 0.015377 0.009738 0.000192
v 0.015377 0.009738 0.000189
v 0.015425 0.009752 0.000147
v 0.015377 0.009738 0.000189
v 0.015378 0.009738 0.000185
v 0.015425 0.009752 0.000147
v 0.015378 0.009738 0.000185
v 0.015379 0.009738 0.000181
v 0.015425 0.009752 0.000147
v 0.015379 0.009738 0.000181
v 0.015380 0.009739 0.000178
v 0.015425 0.009752 0.000147
v 0.015380 0.009739 0.000178
v 0.015382 0.009739 0.000175
v 0.015425 0.009752 0.000147
v 0.015382 0.009739 0.000175
v 0.015383 0.009740 0.000171
v 0.015425 0.009752 0.000147
v 0.015383 0.009740 0.000171
v 0.015385 0.009740 0.000168
v 0.015425 0.009752 0.000147
v 0.015385 0.009740 0.000168
v 0.015387 0.009741 0.000165
v 0.015425 0.009752 0.000147
v 0.015387 0.009741 0.000165
v 0.015390 0.009742 0.000163
v 0.015425 0.009752 0.000147
v 0.015390 0.009742 0.000163
v 0.015392 0.009742 0.000160
v 0.015425 0.009752 0.000147
v 0.015392 0.009742 0.000160
v 0.015395 0.009743 0.000158
v 0.015425 0.009752 0.000147
v 0.015425 0.009752 0.000147
v 0.015398 0.009744 0.000156
v 0.015401 0.009745 0.000154
v 0.015395 0.009743 0.000158
v 0.015398 0.009744 0.000156
v 0.015425 0.009752 0.000147
v 0.015425 0.009752 0.000147
v 0.015401 0.009745 0.000154
v 0.015404 0.009746 0.000152
v 0.015425 0.009752 0.000147
v 0.015404 0.009746 0.000152
v 0.015407 0.009747 0.000151
v 0.015425 0.009752 0.000147
v 0.015407 0.009747 0.000151
v 0.015411 0.009748 0.000149
v 0.015425 0.009752 0.000147
v 0.015411 0.009748 0.000149
v 0.015414 0.009749 0.000148
v 0.015425 0.009752 0.000147
v 0.015414 0.009749 0.000148
v 0.015417 0.009750 0.000148
v 0.015425 0.009752 0.000147
v 0.015429 0.009753 0.000247
v 0.015426 0.009752 0.000247
v 0.015421 0.009751 0.000147
v 0.015425 0.009752 0.000147
v 0.015417 0.009750 0.000148
vn 0.0940 0.0272 0.9952
vn -0.0000 -0.0000 1.0000
vn 0.0942 0.0270 0.9952
vn 0.1643 0.0471 0.9853
vn 0.2790 0.0801 0.9569
vn 0.1875 0.0539 0.9808
vn 0.2335 0.0674 0.9700
vn 0.3679 0.1055 0.9239
vn 0.3015 0.0864 0.9495
vn 0.4321 0.1236 0.8933
vn 0.4531 0.1300 0.8819
vn 0.4944 0.1411 0.8577
vn 0.5340 0.1533 0.8315
vn 0.5538 0.1585 0.8174
vn 0.6098 0.1749 0.7730
vn 0.6628 0.1897 0.7244
vn 0.6797 0.1950 0.7071
vn 0.7123 0.2041 0.6716
vn 0.7431 0.2131 0.6344
vn 0.7580 0.2171 0.6151
vn 0.7993 0.2292 0.5556
vn 0.7992 0.2292 0.5556
vn 0.8477 0.2431 0.4714
vn 0.8364 0.2395 0.4931
vn 0.8690 0.2492 0.4276
vn 0.8968 0.2572 0.3599
vn 0.8881 0.2547 0.3827
vn 0.9199 0.2638 0.2903
vn 0.9198 0.2639 0.2903
vn 0.9380 0.2686 0.2193
vn 0.9509 0.2726 0.1467
vn 0.9428 0.2704 0.1951
vn 0.9587 0.2749 0.0736
vn 0.9566 0.2744 0.0980
vn 0.9613 0.2756 -0.0000
vn 0.9613 0.2754 -0.0000
vn 0.9566 0.2743 -0.0980
vn 0.9428 0.2703 -0.1951
vn 0.9199 0.2638 -0.2903
vn 0.8881 0.2547 -0.3827
vn 0.8478 0.2431 -0.4714
vn 0.7993 0.2292 -0.5556
vn 0.7431 0.2131 -0.6344
vn 0.6797 0.1949 -0.7071
vn 0.0942 0.0270 -0.9952
vn -0.0000 -0.0000 -1.0000
vn 0.1875 0.0538 -0.9808
vn 0.2791 0.0801 -0.9569
vn 0.2790 0.0800 -0.9570
vn 0.3679 0.1055 -0.9239
vn 0.4531 0.1299 -0.8819
vn 0.5340 0.1531 -0.8315
vn 0.6098 0.1749 -0.7730
vn 0.0236 0.0068 0.9997
vn -0.0471 -0.0136 0.9988
vn -0.0942 -0.0270 0.9952
vn -0.1176 -0.0337 0.9925
vn -0.1875 -0.0538 0.9808
vn -0.2563 -0.0735 0.9638
vn -0.2790 -0.0800 0.9570
vn -0.3238 -0.0930 0.9415
vn -0.3679 -0.1055 0.9239
vn -0.3896 -0.1118 0.9142
vn -0.4531 -0.1299 0.8819
vn -0.5142 -0.1475 0.8449
vn -0.5341 -0.1531 0.8315
vn -0.5726 -0.1643 0.8032
vn -0.6098 -0.1749 0.7730
vn -0.6279 -0.1800 0.7572
vn -0.6797 -0.1949 0.7071
vn -0.7721 -0.2214 0.5957
vn -0.7431 -0.2131 0.6344
vn -0.7993 -0.2292 0.5556
vn -0.9050 -0.2597 0.3369
vn -0.9199 -0.2638 0.2903
vn -0.9264 -0.2657 0.2667
vn -0.8881 -0.2546 0.3827
vn -0.9601 -0.2754 0.0491
vn -0.9541 -0.2735 0.1224
vn -0.9566 -0.2743 0.0980
vn -0.9428 -0.2703 0.1951
vn -0.9610 -0.2756 -0.0246
vn -0.9613 -0.2756 -0.0000
vn -0.9566 -0.2743 -0.0980
vn -0.9471 -0.2716 -0.1709
vn -0.9428 -0.2703 -0.1951
vn -0.9324 -0.2675 -0.2430
vn -0.9199 -0.2638 -0.2903
vn -0.9127 -0.2618 -0.3137
vn -0.8881 -0.2547 -0.3827
vn -0.8586 -0.2463 -0.4495
vn -0.8478 -0.2431 -0.4714
vn -0.7993 -0.2292 -0.5556
vn -0.8245 -0.2365 -0.5141
vn -0.7859 -0.2254 -0.5758
vn -0.7431 -0.2131 -0.6344
vn -0.6962 -0.1998 -0.6895
vn -0.6797 -0.1949 -0.7071
vn -0.6098 -0.1749 -0.7730
vn -0.6455 -0.1852 -0.7410
vn -0.5913 -0.1697 -0.7884
vn -0.5340 -0.1531 -0.8315
vn -0.4738 -0.1359 -0.8701
vn -0.4531 -0.1299 -0.8819
vn -0.4110 -0.1178 -0.9040
vn -0.3679 -0.1055 -0.9239
vn -0.3459 -0.0992 -0.9330
vn -0.2791 -0.0800 -0.9569
vn -0.0707 -0.0203 -0.9973
vn -0.0942 -0.0270 -0.9952
vn -0.1410 -0.0404 -0.9892
vn -0.1875 -0.0538 -0.9808
vn -0.2106 -0.0604 -0.9757
vn -0.2790 -0.0800 -0.9569
vn -0.8788 -0.2520 0.4053
vn -0.8478 -0.2430 0.4714
vn -0.8478 -0.2431 0.4714
vn -0.8121 -0.2329 0.5350
vn -0.7278 -0.2087 0.6532
vn -0.2790 -0.0800 -0.9570
vn -0.7993 -0.2292 -0.5555
vn -0.9613 -0.2756 0.0001
vn -0.8881 -0.2547 0.3827
vn -0.7992 -0.2292 0.5556
vn -0.5340 -0.1531 0.8315
vn -0.4532 -0.1294 0.8819
vn -0.2756 0.9613 -0.0000
vn -0.2755 0.9613 -0.0000
vn -0.2756 0.9613 -0.0001
vn -0.2757 0.9613 -0.0000
vn -0.2756 0.9613 0.0001
vn 0.2757 -0.9613 -0.0000
vn 0.2756 -0.9613 -0.0000
vn 0.2756 -0.9613 0.0001
vn 0.2756 -0.9613 -0.0001
vn 0.2755 -0.9613 -0.0000
vn 0.2757 -0.9612 -0.0000
vt 0.049009 0.250000
vt 0.000000 0.000000
vt 0.049009 -0.200000
vt 0.085481 -0.200000
vt 0.145142 0.250000
vt 0.097545 0.250000
vt 0.121490 -0.200000
vt 0.191342 0.250000
vt 0.156841 -0.200000
vt 0.224806 -0.200000
vt 0.191342 -0.200000
vt 0.235698 0.250000
vt 0.257051 -0.200000
vt 0.277785 0.250000
vt 0.287904 -0.200000
vt 0.317197 0.250000
vt 0.317197 -0.200000
vt 0.344770 -0.200000
vt 0.353553 0.250000
vt -0.250000 -0.353553
vt 0.200000 -0.335779
vt -0.250000 -0.317197
vt 0.200000 -0.307616
vt -0.250000 -0.277785
vt 0.200000 -0.277785
vt -0.250000 -0.235698
vt 0.200000 -0.246449
vt 0.200000 -0.213778
vt 0.200000 -0.179948
vt -0.250000 -0.191342
vt 0.200000 -0.145142
vt -0.250000 -0.145142
vt 0.200000 -0.109551
vt 0.200000 -0.073365
vt -0.250000 -0.097545
vt 0.200000 -0.036782
vt -0.250000 -0.049009
vt -0.250000 0.000000
vt 0.200000 0.000000
vt -0.250000 0.049009
vt 0.200000 0.049009
vt -0.250000 0.097545
vt 0.200000 0.097545
vt -0.250000 0.145142
vt 0.200000 0.145142
vt -0.250000 0.191342
vt 0.200000 0.191342
vt -0.250000 0.235698
vt -0.250000 0.277785
vt 0.200000 0.235698
vt -0.250000 0.317197
vt 0.200000 0.277785
vt 0.200000 0.317197
vt 0.200000 0.353553
vt -0.250000 0.353553
vt 0.000000 0.250000
vt -0.049009 -0.200000
vt -0.049009 0.250000
vt -0.097545 -0.200000
vt -0.097545 0.250000
vt -0.145142 -0.200000
vt -0.145142 0.250000
vt -0.191342 -0.200000
vt -0.191342 0.250000
vt -0.235698 -0.200000
vt -0.235698 0.250000
vt -0.277785 -0.200000
vt -0.277785 0.250000
vt -0.317197 -0.200000
vt -0.317197 0.250000
vt -0.353553 -0.200000
vt -0.353553 0.250000
vt 0.200000 -0.362124
vt 0.012271 -0.200000
vt -0.024534 -0.200000
vt -0.049009 0.000000
vt -0.061205 -0.200000
vt -0.097545 0.000000
vt -0.133356 -0.200000
vt -0.145142 0.000000
vt -0.168445 -0.200000
vt -0.191342 0.000000
vt -0.202621 -0.200000
vt -0.235698 0.000000
vt -0.267499 -0.200000
vt -0.277785 0.000000
vt -0.297850 -0.200000
vt -0.317197 0.000000
vt -0.326586 -0.200000
vt -0.353553 0.000000
vt -0.200000 -0.297850
vt 0.000000 -0.317197
vt 0.000000 -0.277785
vt -0.200000 -0.168445
vt 0.000000 -0.145142
vt -0.200000 -0.133356
vt 0.000000 -0.191342
vt -0.200000 -0.024534
vt -0.200000 -0.061205
vt 0.000000 -0.049009
vt 0.000000 -0.097545
vt -0.200000 0.012271
vt 0.000000 0.049009
vt -0.200000 0.049009
vt -0.200000 0.085481
vt 0.000000 0.097545
vt -0.200000 0.121490
vt 0.000000 0.145142
vt -0.200000 0.156841
vt 0.000000 0.191342
vt -0.200000 0.224806
vt -0.200000 0.191342
vt 0.000000 0.235698
vt 0.000000 0.277785
vt -0.200000 0.257051
vt -0.200000 0.287904
vt 0.000000 0.317197
vt -0.200000 0.344770
vt -0.200000 0.317197
vt 0.000000 0.353553
vt 0.353553 0.000000
vt 0.317197 0.000000
vt 0.335779 -0.200000
vt 0.307616 -0.200000
vt 0.277785 0.000000
vt 0.277785 -0.200000
vt 0.246449 -0.200000
vt 0.235698 0.000000
vt 0.213778 -0.200000
vt 0.191342 0.000000
vt 0.179948 -0.200000
vt 0.145142 0.000000
vt 0.000000 -0.200000
vt 0.036782 -0.200000
vt 0.049009 0.000000
vt 0.073365 -0.200000
vt 0.097545 0.000000
vt 0.109551 -0.200000
vt 0.145142 -0.200000
vt 0.362124 -0.200000
vt -0.200000 -0.097545
vt -0.200000 -0.202621
vt 0.000000 -0.235698
vt -0.200000 -0.235698
vt -0.200000 -0.267499
vt -0.200000 -0.326586
vt 0.000000 -0.353553
vt -0.200000 -0.353553
vt 1.000000 0.000000
vt 1.000000 0.250000
vt 0.500000 0.000000
vt 0.250000 0.000000
vt 0.125000 0.000000
vt 0.062500 0.000000
vt 1.049009 0.250000
vt 1.049009 0.000000
vt 1.097545 0.250000
vt 1.097545 0.000000
vt 1.145142 0.250000
vt 1.145142 0.000000
vt 1.191342 0.250000
vt 1.235698 0.250000
vt 1.191342 0.000000
vt 1.235698 0.000000
vt 1.277785 0.250000
vt 1.277785 0.000000
vt 1.317197 0.250000
vt 1.317197 0.000000
vt 1.353553 0.250000
vt 0.250000 0.353553
vt 0.250000 0.317197
vt 0.250000 0.277785
vt 0.250000 0.235698
vt 0.250000 0.191342
vt 0.250000 0.145142
vt 0.250000 0.049009
vt 0.250000 0.097545
vt 0.250000 -0.049009
vt 0.250000 -0.097545
vt 0.250000 -0.145142
vt 0.250000 -0.191342
vt 0.250000 -0.235698
vt 0.250000 -0.277785
vt 0.250000 -0.317197
vt 0.250000 -0.353553
vt -1.353553 0.000000
vt -1.317197 0.000000
vt -1.317197 0.250000
vt -1.277785 0.000000
vt -1.277785 0.250000
vt -1.235698 0.000000
vt -1.235698 0.250000
vt -1.191342 0.250000
vt -1.191342 0.000000
vt -1.145142 0.250000
vt -1.000000 0.000000
vt -1.000000 0.250000
vt -1.049009 0.000000
vt -1.049009 0.250000
vt -1.097545 0.000000
vt -1.097545 0.250000
vt -1.145142 0.000000
vt -1.353553 0.250000
vt 1.353553 0.000000
vt -0.062500 0.000000
vt -0.500000 0.000000
vt -0.125000 0.000000
vt -1.000000 0.500000
vt -1.000000 -0.500000
vt 0.000000 -0.500000
vt -1.049009 -0.497592
vt -1.097545 -0.490393
vt -1.145142 -0.478470
vt -1.191342 -0.461940
vt -1.235698 -0.440961
vt -1.277785 -0.415735
vt -1.317197 -0.386505
vt -1.353553 -0.353553
vt -1.386505 -0.317197
vt -1.415735 -0.277785
vt -1.461940 -0.191342
vt -1.440961 -0.235698
vt -1.478470 -0.145142
vt -1.490393 -0.097545
vt -1.497592 -0.049009
vt -1.500000 -0.000000
vt -1.497592 0.049009
vt -1.490393 0.097545
vt -1.478470 0.145142
vt -1.461940 0.191342
vt -1.440961 0.235698
vt -1.415735 0.277785
vt -1.386505 0.317197
vt -1.317197 0.386505
vt -1.353553 0.353553
vt -1.277785 0.415735
vt -1.191342 0.461940
vt -1.235698 0.440961
vt -1.145142 0.478470
vt -1.097545 0.490393
vt -1.049009 0.497592
vt -0.000000 0.500000
vt 0.049009 0.497592
vt 0.097545 0.490393
vt 0.145142 0.478470
vt 0.191342 0.461940
vt 0.235698 0.440961
vt 0.277785 0.415735
vt 0.317197 0.386505
vt 0.353553 0.353553
vt 0.386505 0.317197
vt 0.415735 0.277785
vt 0.461940 0.191342
vt 0.440961 0.235698
vt 0.478470 0.145142
vt 0.490393 0.097545
vt 0.497592 0.049009
vt 0.497592 -0.049009
vt 0.490393 -0.097545
vt 0.478470 -0.145142
vt 0.461940 -0.191342
vt 0.440961 -0.235698
vt 0.415735 -0.277785
vt 0.386505 -0.317197
vt 0.353553 -0.353553
vt 0.317197 -0.386505
vt 0.277785 -0.415735
vt 0.191342 -0.461940
vt 0.235698 -0.440961
vt 0.145142 -0.478470
vt 0.097545 -0.490393
vt 0.049009 -0.497592
vt 0.062500 0.500000
vt 0.250000 0.500000
vt 0.125000 0.500000
vt 0.062500 -0.500000
vt 0.125000 -0.500000
vt 0.250000 -0.500000
vt 0.500000 0.500000
vt 1.000000 0.500000
vt 1.000000 -0.500000
vt 0.500000 -0.500000
vt 1.049009 -0.497592
vt 1.097545 -0.490393
vt 1.145142 -0.478470
vt 1.191342 -0.461940
vt 1.235698 -0.440961
vt 1.277785 -0.415735
vt 1.317197 -0.386505
vt 1.353553 -0.353553
vt 1.386505 -0.317197
vt 1.440961 -0.235698
vt 1.415735 -0.277785
vt 1.461940 -0.191342
vt 1.478470 -0.145142
vt 1.490393 -0.097545
vt 1.497592 -0.049009
vt 1.500000 -0.000000
vt 1.497592 0.049009
vt 1.490393 0.097545
vt 1.478470 0.145142
vt 1.461940 0.191342
vt 1.440961 0.235698
vt 1.415735 0.277785
vt 1.386505 0.317197
vt 1.353553 0.353553
vt 1.317197 0.386505
vt 1.277785 0.415735
vt 1.191342 0.461940
vt 1.235698 0.440961
vt 1.145142 0.478470
vt 1.097545 0.490393
vt 1.049009 0.497592
vt -0.097545 0.490393
vt -0.049009 0.497592
vt -0.145142 0.478470
vt -0.191342 0.461940
vt -0.235698 0.440961
vt -0.277785 0.415735
vt -0.317197 0.386505
vt -0.353553 0.353553
vt -0.386505 0.317197
vt -0.415735 0.277785
vt -0.440961 0.235698
vt -0.461940 0.191342
vt -0.478470 0.145142
vt -0.490393 0.097545
vt -0.497592 0.049009
vt -0.498645 -0.036782
vt -0.494588 -0.073365
vt -0.487851 -0.109551
vt -0.478470 -0.145142
vt -0.466496 -0.179948
vt -0.451995 -0.213778
vt -0.435043 -0.246449
vt -0.415735 -0.277785
vt -0.394173 -0.307616
vt -0.370476 -0.335779
vt -0.344770 -0.362124
vt -0.317197 -0.386505
vt -0.287904 -0.408792
vt -0.224806 -0.446612
vt -0.257051 -0.428864
vt -0.191342 -0.461940
vt -0.156841 -0.474764
vt -0.121490 -0.485016
vt -0.085481 -0.492639
vt -0.049009 -0.497592
vt -0.012271 -0.499849
vt 0.024534 -0.499398
vt 0.061205 -0.496240
vt 0.133356 -0.481888
vt 0.168445 -0.470772
vt 0.202621 -0.457105
vt 0.267499 -0.422427
vt 0.297850 -0.401604
vt 0.326586 -0.378604
vt 0.378604 -0.326586
vt 0.401604 -0.297850
vt 0.422427 -0.267499
vt 0.457105 -0.202621
vt 0.470772 -0.168445
vt 0.481888 -0.133356
vt 0.496240 -0.061205
vt 0.499398 -0.024534
vt 0.499849 0.012271
vt 0.492639 0.085481
vt 0.485016 0.121490
vt 0.474764 0.156841
vt 0.446612 0.224806
vt 0.428864 0.257051
vt 0.408792 0.287904
vt 0.362124 0.344770
vt 0.335779 0.370476
vt 0.307616 0.394173
vt 0.246449 0.435043
vt 0.213778 0.451995
vt 0.179948 0.466496
vt 0.109551 0.487851
vt 0.073365 0.494588
vt 0.036782 0.498645
s 1
usemtl Diffuse_51_51_51_100.048
f 1/1/1 2/2/2 3/3/3
f 4/4/4 1/1/1 3/3/3
f 5/5/5 6/6/6 7/7/7
f 8/8/8 5/5/5 9/9/9
f 10/10/10 8/8/8 11/11/8
f 10/10/10 12/12/11 8/8/8
f 13/13/12 14/14/13 12/12/11
f 15/15/14 16/16/15 14/14/13
f 15/15/14 17/17/15 16/16/15
f 16/16/15 18/18/16 19/19/17
f 19/20/17 20/21/18 21/22/19
f 21/22/19 20/21/18 22/23/20
f 23/24/21 22/23/20 24/25/22
f 25/26/23 23/24/21 26/27/24
f 27/28/25 25/26/23 26/27/24
f 28/29/26 29/30/27 27/28/25
f 30/31/28 31/32/29 28/29/26
f 30/31/28 32/33/30 31/32/29
f 32/33/30 33/34/31 34/35/32
f 33/34/31 35/36/33 36/37/34
f 36/37/34 35/36/33 37/38/35
f 37/38/35 38/39/36 39/40/37
f 39/40/37 40/41/37 41/42/38
f 41/42/38 40/41/37 42/43/38
f 43/44/39 42/43/38 44/45/39
f 45/46/40 44/45/39 46/47/40
f 47/48/41 45/46/40 46/47/40
f 48/49/42 47/48/41 49/50/41
f 50/51/43 48/49/42 51/52/42
f 52/53/43 50/51/43 51/52/42
f 53/54/44 54/55/44 52/53/43
f 1/1/1 55/56/2 2/2/2
f 56/57/45 57/2/46 58/58/45
f 58/58/45 57/2/46 59/56/46
f 58/58/45 60/59/47 56/57/45
f 58/58/45 61/60/47 60/59/47
f 60/59/47 61/60/47 62/61/48
f 62/61/48 61/60/47 63/62/49
f 64/63/50 62/61/48 63/62/49
f 65/64/50 64/63/50 63/62/49
f 65/64/50 66/65/51 64/63/50
f 65/64/50 67/66/51 66/65/51
f 66/65/51 67/66/51 68/67/52
f 68/67/52 67/66/51 69/68/52
f 70/69/53 68/67/52 69/68/52
f 71/70/53 70/69/53 69/68/52
f 71/70/53 53/71/44 70/69/53
f 71/70/53 54/72/44 53/71/44
f 54/55/44 50/51/43 52/53/43
f 48/49/42 49/50/41 51/52/42
f 47/48/41 46/47/40 49/50/41
f 43/44/39 44/45/39 45/46/40
f 41/42/38 42/43/38 43/44/39
f 38/39/36 40/41/37 39/40/37
f 35/36/33 38/39/36 37/38/35
f 33/34/31 36/37/34 34/35/32
f 32/33/30 34/35/32 31/32/29
f 31/32/29 29/30/27 28/29/26
f 29/30/27 25/26/23 27/28/25
f 23/24/21 24/25/22 26/27/24
f 21/22/19 22/23/20 23/24/21
f 18/73/16 20/21/18 19/20/17
f 17/17/15 18/18/16 16/16/15
f 15/15/14 14/14/13 13/13/12
f 13/13/12 12/12/11 10/10/10
f 8/8/8 9/9/9 11/11/8
f 5/5/5 7/7/7 9/9/9
f 6/6/6 4/4/4 7/7/7
f 72/74/54 2/2/2 73/75/55
f 73/75/55 2/2/2 74/76/56
f 75/77/57 73/75/55 74/76/56
f 76/78/58 75/77/57 74/76/56
f 76/78/58 77/59/58 75/77/57
f 76/78/58 78/79/59 77/59/58
f 76/78/58 79/80/60 78/79/59
f 78/79/59 79/80/60 80/81/61
f 80/81/61 79/80/60 81/82/62
f 82/83/63 80/81/61 81/82/62
f 83/84/64 82/83/63 81/82/62
f 83/84/64 84/65/64 82/83/63
f 83/84/64 85/85/65 84/65/64
f 83/84/64 86/86/66 85/85/65
f 85/85/65 86/86/66 87/87/67
f 87/87/67 86/86/66 88/88/68
f 89/89/69 87/87/67 88/88/68
f 90/90/70 89/89/69 88/88/68
f 90/90/70 91/71/70 89/89/69
f 92/91/71 93/92/72 94/93/73
f 95/94/74 96/95/75 97/96/76
f 95/94/74 98/97/77 96/95/75
f 99/98/78 100/99/79 101/100/80
f 101/100/80 100/99/79 102/101/81
f 103/102/82 104/2/83 105/103/84
f 106/104/84 105/103/84 107/105/85
f 107/105/85 105/103/84 108/106/86
f 109/107/87 108/106/86 110/108/88
f 111/109/89 109/107/87 110/108/88
f 112/110/90 111/109/89 110/108/88
f 113/111/91 114/112/90 112/110/90
f 115/113/92 113/111/91 112/110/90
f 116/114/93 117/115/94 115/113/92
f 116/114/93 118/116/95 117/115/94
f 116/114/93 119/117/96 118/116/95
f 119/117/96 120/118/97 121/119/96
f 119/117/96 122/120/98 120/118/97
f 122/121/98 123/122/99 124/123/100
f 124/123/100 123/122/99 125/124/101
f 125/124/101 123/122/99 126/125/102
f 127/126/102 126/125/102 128/127/103
f 128/127/103 126/125/102 129/128/104
f 130/129/105 129/128/104 131/130/106
f 132/131/107 130/129/105 131/130/106
f 133/132/108 132/131/107 131/130/106
f 134/133/46 57/2/46 56/57/45
f 57/2/46 134/133/46 135/134/109
f 136/135/110 57/2/46 135/134/109
f 137/136/111 136/135/110 135/134/109
f 137/136/111 138/137/112 136/135/110
f 137/136/111 139/138/113 138/137/112
f 138/137/112 139/138/113 133/132/108
f 133/132/108 139/138/113 140/139/114
f 132/131/107 133/132/108 140/139/114
f 129/128/104 130/129/105 128/127/103
f 126/125/102 127/126/102 125/124/101
f 124/123/100 120/140/97 122/121/98
f 121/119/96 118/116/95 119/117/96
f 113/111/91 115/113/92 117/115/94
f 111/109/89 112/110/90 114/112/90
f 108/106/86 109/107/87 107/105/85
f 105/103/84 106/104/84 103/102/82
f 1/1/1 4/4/4 6/6/6
f 104/2/83 103/102/82 99/98/78
f 99/98/78 101/100/80 104/2/83
f 100/99/79 141/141/81 102/101/81
f 102/101/81 141/141/81 97/96/76
f 96/95/75 102/101/81 97/96/76
f 142/142/115 98/97/77 95/94/74
f 142/142/115 143/143/116 98/97/77
f 142/142/115 144/144/117 143/143/116
f 143/143/116 144/144/117 145/145/118
f 94/93/73 143/143/116 145/145/118
f 92/91/71 94/93/73 145/145/118
f 146/146/119 93/92/72 92/91/71
f 146/146/119 90/147/70 93/92/72
f 3/3/3 2/2/2 72/74/54
f 146/146/119 91/148/70 90/147/70
f 147/149/46 148/150/46 149/151/46
f 148/150/46 59/56/46 57/2/46
f 149/151/46 148/150/46 150/152/46
f 150/152/46 148/150/46 151/153/46
f 151/153/46 148/150/46 152/154/46
f 152/154/46 148/150/46 57/2/46
f 148/150/46 147/149/46 153/155/110
f 153/155/110 147/149/46 154/156/110
f 155/157/112 153/155/110 154/156/110
f 156/158/112 155/157/112 154/156/110
f 155/157/112 156/158/112 157/159/120
f 157/159/120 156/158/112 158/160/114
f 159/161/106 157/159/120 158/160/114
f 160/162/104 161/163/106 162/164/104
f 163/165/102 162/164/104 164/166/102
f 165/167/99 166/168/99 167/169/98
f 167/170/98 168/120/98 169/171/96
f 170/117/96 171/114/93 172/172/121
f 171/114/93 173/113/92 174/173/92
f 173/113/92 175/110/90 176/174/90
f 175/110/90 177/108/88 178/175/88
f 179/106/86 180/176/84 181/177/86
f 182/103/84 183/152/122 180/176/84
f 184/2/83 185/178/80 183/152/122
f 186/100/80 187/179/81 185/178/80
f 188/101/81 189/180/75 187/179/81
f 190/95/75 191/181/123 189/180/75
f 192/97/123 193/182/117 191/181/123
f 194/143/117 195/183/73 193/182/117
f 194/143/117 196/93/124 195/183/73
f 196/93/124 197/92/72 198/184/72
f 197/92/72 199/147/70 200/185/70
f 199/186/70 201/187/68 202/188/68
f 201/187/68 203/189/125 204/190/125
f 203/189/125 205/191/64 206/192/126
f 206/192/126 205/191/64 207/193/62
f 207/193/62 208/194/62 209/195/60
f 210/196/2 211/197/2 212/198/56
f 212/198/56 211/197/2 213/199/56
f 214/200/58 212/198/56 213/199/56
f 215/201/58 214/200/58 213/199/56
f 215/201/58 216/202/60 214/200/58
f 209/195/60 208/194/62 216/202/60
f 207/193/62 205/191/64 208/194/62
f 204/190/125 203/189/125 206/192/126
f 202/188/68 201/187/68 204/190/125
f 200/203/70 199/186/70 202/188/68
f 198/184/72 197/92/72 200/185/70
f 195/183/73 196/93/124 198/184/72
f 192/97/123 194/143/117 193/182/117
f 190/95/75 192/97/123 191/181/123
f 188/101/81 190/95/75 189/180/75
f 186/100/80 188/101/81 187/179/81
f 184/2/83 186/100/80 185/178/80
f 182/103/84 184/2/83 183/152/122
f 179/106/86 182/103/84 180/176/84
f 177/108/88 179/106/86 181/177/86
f 178/175/88 177/108/88 181/177/86
f 176/174/90 175/110/90 178/175/88
f 174/173/92 173/113/92 176/174/90
f 172/172/121 171/114/93 174/173/92
f 169/171/96 170/117/96 172/172/121
f 169/171/96 168/120/98 170/117/96
f 167/169/98 166/168/99 168/204/98
f 165/167/99 164/166/102 166/168/99
f 165/167/99 163/165/102 164/166/102
f 163/165/102 160/162/104 162/164/104
f 160/162/104 159/161/106 161/163/106
f 161/163/106 159/161/106 158/160/114
f 209/195/60 216/202/60 215/201/58
f 2/2/2 55/56/2 217/205/2
f 55/56/2 211/197/2 210/196/2
f 218/206/2 55/56/2 210/196/2
f 219/38/2 55/56/2 218/206/2
f 220/207/2 55/56/2 219/38/2
f 217/205/2 55/56/2 220/207/2
f 221/208/127 222/209/127 223/210/127
f 224/208/127 225/211/127 226/209/127
f 227/208/127 228/212/127 229/211/127
f 230/208/127 231/213/127 232/212/127
f 233/208/127 234/214/127 235/213/127
f 236/208/127 237/215/127 238/214/127
f 239/208/127 240/216/127 241/215/127
f 242/208/127 243/217/127 244/216/127
f 245/208/127 246/218/127 247/217/127
f 248/208/127 249/219/127 250/218/127
f 251/208/127 252/220/127 253/219/127
f 254/221/127 255/222/127 256/208/127
f 257/208/127 258/222/127 259/220/127
f 260/223/127 261/221/127 262/208/127
f 263/224/127 264/223/127 265/208/127
f 266/225/127 267/224/127 268/208/127
f 269/226/127 270/225/127 271/208/127
f 272/227/127 273/226/127 274/208/128
f 275/228/127 276/227/127 277/208/127
f 278/228/127 279/208/127 280/229/127
f 281/229/127 282/208/129 283/230/127
f 284/230/127 285/208/127 286/231/127
f 287/231/127 288/208/127 289/232/127
f 290/232/127 291/208/127 292/233/127
f 293/208/127 294/234/127 295/235/127
f 296/208/128 297/236/127 298/234/127
f 299/237/127 300/238/127 301/208/127
f 302/208/127 303/238/127 304/236/127
f 305/239/127 306/237/127 307/208/127
f 308/240/130 309/239/128 310/208/127
f 311/241/131 312/240/127 313/208/127
f 314/208/127 315/210/127 316/242/127
f 317/242/127 318/210/127 319/243/127
f 320/210/127 321/244/127 322/243/127
f 323/210/127 324/245/127 325/244/127
f 326/210/127 327/246/127 328/245/127
f 329/210/127 330/247/127 331/246/127
f 332/210/127 333/248/127 334/247/127
f 335/210/127 336/249/127 337/248/127
f 338/210/127 339/250/127 340/249/127
f 341/210/128 342/251/128 343/250/128
f 344/210/127 345/252/127 346/251/127
f 347/253/127 348/254/127 349/210/127
f 350/210/127 351/254/127 352/252/127
f 353/255/127 354/253/127 355/210/127
f 356/256/127 357/255/127 358/210/127
f 359/257/127 360/256/127 361/210/127
f 362/151/127 363/257/127 364/210/127
f 365/258/127 366/210/127 367/259/131
f 368/259/127 369/210/127 370/260/127
f 371/210/127 372/261/127 373/260/127
f 374/210/127 375/262/127 376/261/127
f 377/210/127 378/263/127 379/262/127
f 380/210/127 381/264/127 382/263/127
f 383/210/129 384/265/129 385/264/127
f 386/210/127 387/266/127 388/265/127
f 389/210/127 390/267/127 391/266/127
f 392/268/127 393/269/127 394/210/129
f 395/210/127 396/269/127 397/267/127
f 398/270/127 399/268/127 400/210/127
f 401/271/131 402/270/127 403/210/131
f 404/272/127 405/271/127 406/210/127
f 407/233/127 408/208/127 409/235/127
f 410/258/127 411/151/127 412/210/127
s 0
f 413/273/132 414/242/133 415/243/133
f 416/273/132 417/243/134 418/244/132
s 1
f 419/274/133 420/275/133 421/245/133
f 422/275/133 423/244/133 424/245/134
s 0
f 425/271/135 426/272/133 427/276/132
s 1
f 428/270/135 429/271/133 430/277/133
f 431/270/135 432/277/133 433/278/133
f 434/275/133 435/273/133 436/244/133
f 437/279/133 438/274/133 439/249/133
f 440/246/133 441/247/133 442/274/133
f 443/246/133 444/274/135 445/245/135
f 446/247/133 447/248/133 448/274/133
f 449/248/133 450/249/133 451/274/133
f 452/249/133 453/250/133 454/279/133
f 455/250/133 456/251/133 457/279/133
f 458/251/133 459/252/133 460/279/133
f 461/252/133 462/254/133 463/279/133
f 464/254/133 465/253/133 466/279/133
f 467/253/133 468/255/133 469/280/133
f 470/255/133 471/256/133 472/280/135
f 473/256/133 474/257/133 475/280/133
f 476/257/133 477/151/133 478/280/133
f 479/281/133 480/280/133 481/151/133
f 482/281/133 483/151/133 484/258/133
f 485/281/133 486/258/133 487/259/133
f 488/281/133 489/259/133 490/260/133
f 491/281/133 492/260/133 493/261/133
f 494/281/133 495/261/133 496/282/133
f 497/264/133 498/282/133 499/263/133
f 500/282/133 501/262/136 502/263/133
f 503/265/133 504/282/133 505/264/133
f 506/266/133 507/282/133 508/265/133
f 509/278/133 510/282/133 511/266/133
f 512/278/133 513/266/133 514/267/133
f 515/267/133 516/269/133 517/278/133
f 518/269/133 519/268/133 520/278/133
f 521/268/133 522/270/134 523/278/133
f 524/280/133 525/279/133 526/253/133
s 0
f 527/210/137 528/276/133 529/272/132
s 1
f 530/277/133 531/271/133 532/276/133
f 533/281/133 534/283/133 535/280/133
f 536/280/133 537/283/133 538/284/133
f 539/280/133 540/284/133 541/285/133
f 542/280/133 543/285/133 544/286/133
f 545/280/133 546/286/133 547/287/133
f 548/280/133 549/287/133 550/288/133
f 551/280/133 552/288/133 553/289/133
f 554/280/133 555/289/133 556/290/133
f 557/280/133 558/290/136 559/291/136
f 560/292/133 561/280/133 562/293/133
f 563/280/133 564/291/133 565/293/133
f 566/294/133 567/280/133 568/292/133
f 569/295/133 570/280/133 571/294/133
f 572/296/133 573/280/133 574/295/133
f 575/297/133 576/280/133 577/296/133
f 578/298/133 579/280/133 580/297/133
f 581/299/133 582/280/133 583/298/133
f 584/299/133 585/300/133 586/280/133
f 587/300/133 588/301/133 589/280/133
f 590/280/135 591/302/133 592/303/133
f 593/280/133 594/303/133 595/304/133
f 596/280/133 597/304/133 598/305/133
f 599/280/133 600/305/133 601/306/133
f 602/280/133 603/306/133 604/307/133
f 605/280/133 606/307/133 607/308/133
f 608/309/133 609/280/133 610/310/133
f 611/280/133 612/308/133 613/310/133
f 614/311/133 615/280/133 616/309/133
f 617/312/136 618/280/135 619/311/136
f 620/313/133 621/280/133 622/312/133
f 623/262/133 624/282/133 625/261/133
f 626/302/133 627/280/133 628/301/133
f 629/314/133 630/242/135 631/315/133
f 632/316/133 633/242/134 634/314/133
f 635/317/133 636/242/133 637/316/133
f 638/318/133 639/242/133 640/317/133
f 641/319/133 642/242/133 643/318/133
f 644/320/133 645/242/133 646/319/133
f 647/321/133 648/242/133 649/320/133
f 650/322/133 651/242/133 652/321/133
f 653/323/133 654/242/133 655/322/133
f 656/324/133 657/242/133 658/323/133
f 659/325/133 660/242/133 661/324/133
f 662/326/133 663/327/133 664/242/133
f 665/326/133 666/242/136 667/325/133
f 668/327/133 669/328/133 670/242/133
f 671/328/133 672/206/133 673/242/133
f 674/206/133 675/329/133 676/242/133
f 677/329/133 678/330/133 679/242/133
f 680/242/133 681/330/133 682/331/133
f 683/242/133 684/331/133 685/332/133
f 686/242/133 687/332/133 688/333/133
f 689/242/133 690/333/133 691/334/133
f 692/242/133 693/334/133 694/335/133
f 695/242/133 696/335/133 697/336/133
f 698/242/133 699/336/133 700/337/133
f 701/242/136 702/337/136 703/338/133
f 704/242/133 705/338/133 706/339/133
f 707/242/133 708/339/133 709/340/133
f 710/242/133 711/340/133 712/341/133
f 713/342/133 714/242/133 715/343/133
f 716/242/133 717/341/136 718/343/133
f 719/344/133 720/242/133 721/342/133
f 722/345/133 723/242/133 724/344/133
f 725/346/133 726/242/133 727/345/133
f 728/347/133 729/242/133 730/346/133
f 731/348/133 732/242/133 733/347/133
f 734/349/133 735/350/133 736/242/133
f 737/350/133 738/351/133 739/242/133
f 740/242/133 741/351/133 742/271/133
f 743/242/133 744/271/133 745/352/133
f 746/242/133 747/352/133 748/353/133
f 749/242/133 750/353/133 751/354/133
f 752/242/133 753/354/133 754/269/133
f 755/242/133 756/269/133 757/355/133
f 758/242/133 759/355/133 760/356/133
f 761/242/133 762/356/133 763/357/136
f 764/242/133 765/357/133 766/265/133
f 767/242/133 768/265/133 769/358/133
f 770/242/133 771/358/133 772/359/133
f 773/242/133 774/359/136 775/360/133
f 776/361/133 777/242/133 778/262/133
f 779/242/133 780/360/133 781/262/133
f 782/362/133 783/242/133 784/361/133
f 785/363/133 786/242/133 787/362/133
f 788/259/133 789/242/133 790/363/133
f 791/364/133 792/242/133 793/259/133
f 794/365/133 795/242/133 796/364/133
f 797/366/133 798/242/133 799/365/133
f 800/257/133 801/242/133 802/366/133
f 803/257/133 804/367/133 805/242/133
f 806/367/133 807/368/133 808/242/133
f 809/368/133 810/369/133 811/242/133
f 812/369/133 813/253/133 814/242/133
f 815/253/133 816/370/133 817/242/133
f 818/370/133 819/371/133 820/242/135
f 821/371/133 822/372/133 823/242/133
f 824/372/133 825/251/135 826/242/133
f 827/251/135 828/373/133 829/242/133
f 830/373/134 831/374/133 832/242/133
f 833/374/133 834/375/133 835/242/133
f 836/242/133 837/248/133 838/376/133
f 839/375/133 840/248/133 841/242/133
f 842/242/133 843/376/133 844/377/133
f 845/242/133 846/377/133 847/378/133
f 848/242/133 849/378/133 850/245/133
f 851/242/133 852/245/135 853/379/133
f 854/242/135 855/379/135 856/380/133
f 857/242/133 858/348/133 859/349/133
f 860/381/133 861/242/133 862/380/133
