# Blender 4.4.3
# www.blender.org
mtllib Mesh_12.003.mtl
o Mesh_12.003
v 0.013090 0.010253 0.000022
v 0.012331 0.009494 0.000022
v 0.013090 0.010253 0.000372
v 0.012331 0.009494 0.000372
v 0.012331 0.009491 0.000013
v 0.013093 0.010253 0.000013
v 0.012334 0.009486 0.000004
v 0.013098 0.010251 0.000004
v 0.013112 0.010239 -0.000003
v 0.012345 0.009473 -0.000003
v 0.013105 0.010246 -0.000001
v 0.012339 0.009480 -0.000001
v 0.013093 0.010253 0.000382
v 0.012331 0.009491 0.000382
v 0.013098 0.010251 0.000390
v 0.012334 0.009486 0.000390
v 0.012345 0.009473 0.000397
v 0.013112 0.010239 0.000397
v 0.012339 0.009480 0.000395
v 0.013105 0.010246 0.000395
v 0.013114 0.010257 0.000007
v 0.013117 0.010258 0.000011
v 0.013118 0.010254 0.000005
v 0.013108 0.010257 0.000007
v 0.013111 0.010260 0.000012
v 0.013117 0.010249 0.000001
v 0.013122 0.010249 0.000003
v 0.013117 0.010245 -0.000001
v 0.013113 0.010253 0.000003
v 0.013093 0.010255 0.000019
v 0.013099 0.010258 0.000013
v 0.013098 0.010259 0.000020
v 0.013113 0.010245 -0.000002
v 0.013110 0.010250 -0.000000
v 0.013123 0.010255 0.000012
v 0.013125 0.010252 0.000010
v 0.013126 0.010253 0.000017
v 0.013106 0.010260 0.000014
v 0.013108 0.010261 0.000019
v 0.013100 0.010255 0.000007
v 0.013105 0.010253 0.000003
v 0.013118 0.010259 0.000018
v 0.013111 0.010254 0.000392
v 0.013110 0.010250 0.000394
v 0.013116 0.010252 0.000392
v 0.013108 0.010257 0.000387
v 0.013105 0.010253 0.000391
v 0.013121 0.010253 0.000388
v 0.013122 0.010249 0.000391
v 0.013125 0.010252 0.000385
v 0.013116 0.010256 0.000388
v 0.013093 0.010255 0.000375
v 0.013099 0.010258 0.000381
v 0.013098 0.010259 0.000374
v 0.013123 0.010255 0.000382
v 0.013126 0.010253 0.000377
v 0.013117 0.010258 0.000384
v 0.013113 0.010245 0.000396
v 0.013117 0.010245 0.000396
v 0.013106 0.010260 0.000380
v 0.013111 0.010260 0.000382
v 0.013108 0.010261 0.000376
v 0.013100 0.010255 0.000388
v 0.013118 0.010259 0.000377
v 0.012327 0.009470 0.000387
v 0.012327 0.009467 0.000384
v 0.012330 0.009467 0.000389
v 0.012327 0.009476 0.000387
v 0.012325 0.009473 0.000382
v 0.012335 0.009467 0.000393
v 0.012335 0.009463 0.000391
v 0.012340 0.009467 0.000396
v 0.012331 0.009471 0.000392
v 0.012329 0.009492 0.000375
v 0.012327 0.009485 0.000381
v 0.012326 0.009486 0.000374
v 0.012339 0.009471 0.000396
v 0.012334 0.009475 0.000394
v 0.012329 0.009461 0.000382
v 0.012332 0.009460 0.000385
v 0.012331 0.009459 0.000377
v 0.012330 0.009484 0.000388
v 0.012331 0.009480 0.000391
v 0.012324 0.009479 0.000380
v 0.012324 0.009476 0.000376
v 0.012326 0.009467 0.000377
v 0.012331 0.009473 0.000003
v 0.012334 0.009475 -0.000000
v 0.012332 0.009469 0.000002
v 0.012327 0.009476 0.000007
v 0.012331 0.009480 0.000003
v 0.012331 0.009463 0.000006
v 0.012335 0.009463 0.000003
v 0.012332 0.009460 0.000010
v 0.012329 0.009469 0.000006
v 0.012329 0.009492 0.000019
v 0.012327 0.009485 0.000013
v 0.012326 0.009486 0.000020
v 0.012329 0.009461 0.000012
v 0.012331 0.009459 0.000017
v 0.012327 0.009467 0.000011
v 0.012339 0.009471 -0.000002
v 0.012340 0.009467 -0.000001
v 0.012330 0.009484 0.000007
v 0.012324 0.009479 0.000014
v 0.012325 0.009473 0.000012
v 0.012324 0.009476 0.000019
v 0.012326 0.009467 0.000018
v 0.013136 0.010243 0.000017
v 0.013136 0.010243 0.000377
v 0.013128 0.010234 0.000396
v 0.013132 0.010239 0.000391
v 0.013135 0.010242 0.000385
v 0.013122 0.010229 0.000397
v 0.013135 0.010242 0.000010
v 0.013132 0.010239 0.000003
v 0.013128 0.010234 -0.000001
v 0.013122 0.010229 -0.000003
v 0.012342 0.009448 0.000377
v 0.012342 0.009448 0.000017
v 0.012350 0.009457 -0.000001
v 0.012346 0.009452 0.000003
v 0.012343 0.009449 0.000010
v 0.012356 0.009462 -0.000003
v 0.012343 0.009449 0.000385
v 0.012346 0.009452 0.000391
v 0.012350 0.009457 0.000396
v 0.012356 0.009462 0.000397
v 0.013132 0.010239 0.000003
v 0.013135 0.010242 0.000010
v 0.013136 0.010243 0.000017
v 0.013128 0.010234 -0.000001
v 0.013136 0.010243 0.000017
v 0.013122 0.010229 -0.000003
v 0.013128 0.010234 -0.000001
v 0.013132 0.010239 0.000003
v 0.013136 0.010243 0.000017
v 0.013136 0.010243 0.000017
v 0.013122 0.010229 0.000397
v 0.013122 0.010229 -0.000003
v 0.013122 0.010229 -0.000003
v 0.013122 0.010229 0.000397
v 0.012356 0.009462 -0.000003
v 0.012343 0.009449 0.000010
v 0.012346 0.009452 0.000003
v 0.012342 0.009448 0.000017
v 0.012356 0.009462 -0.000003
v 0.013122 0.010229 0.000397
v 0.012356 0.009462 0.000397
v 0.012342 0.009448 0.000017
v 0.012356 0.009462 0.000397
v 0.012342 0.009448 0.000377
v 0.012342 0.009448 0.000017
v 0.012346 0.009452 0.000003
v 0.012350 0.009457 -0.000001
v 0.012342 0.009448 0.000377
v 0.012356 0.009462 0.000397
v 0.012343 0.009449 0.000385
v 0.012350 0.009457 0.000396
v 0.012346 0.009452 0.000391
v 0.012356 0.009462 0.000397
v 0.012356 0.009462 0.000397
v 0.012346 0.009452 0.000391
v 0.012343 0.009449 0.000385
v 0.012356 0.009462 -0.000003
v 0.012342 0.009448 0.000017
v 0.012350 0.009457 -0.000001
v 0.013135 0.010242 0.000385
v 0.013132 0.010239 0.000391
v 0.013136 0.010243 0.000377
v 0.013122 0.010229 0.000397
v 0.013136 0.010243 0.000017
v 0.013136 0.010243 0.000377
v 0.013136 0.010243 0.000377
v 0.013132 0.010239 0.000391
v 0.013128 0.010234 0.000396
v 0.012356 0.009462 -0.000003
v 0.012356 0.009462 0.000397
v 0.012342 0.009448 0.000017
v 0.013122 0.010229 0.000397
v 0.013136 0.010243 0.000377
v 0.013128 0.010234 0.000396
vn -0.7071 0.7071 -0.0000
vn -0.6533 0.6533 -0.3827
vn -0.5000 0.5000 -0.7071
vn -0.0000 -0.0000 -1.0000
vn -0.2706 0.2706 -0.9239
vn -0.2710 0.2710 -0.9236
vn -0.6533 0.6533 0.3827
vn -0.5000 0.5000 0.7071
vn -0.0000 -0.0000 1.0000
vn -0.2706 0.2706 0.9239
vn 0.2089 0.8291 -0.5185
vn 0.3440 0.8750 -0.3408
vn 0.3347 0.7129 -0.6163
vn -0.0593 0.8344 -0.5480
vn 0.0942 0.9559 -0.2781
vn 0.3073 0.4930 -0.8140
vn 0.5000 0.5000 -0.7071
vn 0.2706 0.2706 -0.9239
vn 0.1378 0.6557 -0.7424
vn -0.6274 0.7720 -0.1022
vn -0.4116 0.8556 -0.3139
vn -0.3827 0.9239 -0.0000
vn 0.0867 0.2646 -0.9605
vn -0.0246 0.5064 -0.8619
vn 0.5902 0.7681 -0.2484
vn 0.6533 0.6533 -0.3827
vn 0.7071 0.7071 -0.0000
vn -0.1255 0.9686 -0.2144
vn -0.0000 1.0000 -0.0000
vn -0.3955 0.6987 -0.5962
vn -0.2342 0.6275 -0.7426
vn 0.3827 0.9239 -0.0000
vn 0.0563 0.6769 0.7339
vn -0.0245 0.5065 0.8619
vn 0.2467 0.6248 0.7408
vn -0.0593 0.8344 0.5480
vn -0.2342 0.6275 0.7426
vn 0.4827 0.6684 0.5659
vn 0.5000 0.5000 0.7071
vn 0.6533 0.6533 0.3827
vn 0.2660 0.7839 0.5610
vn -0.6274 0.7720 0.1022
vn -0.4116 0.8556 0.3139
vn 0.5902 0.7681 0.2484
vn 0.3440 0.8750 0.3407
vn 0.0867 0.2646 0.9605
vn 0.2706 0.2706 0.9239
vn -0.1255 0.9686 0.2144
vn 0.0942 0.9559 0.2782
vn -0.3955 0.6987 0.5962
vn -0.8293 -0.2086 0.5184
vn -0.8750 -0.3440 0.3408
vn -0.7129 -0.3347 0.6163
vn -0.8344 0.0593 0.5480
vn -0.9559 -0.0942 0.2781
vn -0.4930 -0.3074 0.8139
vn -0.5000 -0.5000 0.7071
vn -0.2706 -0.2706 0.9239
vn -0.6557 -0.1378 0.7424
vn -0.7720 0.6274 0.1022
vn -0.8556 0.4116 0.3139
vn -0.9239 0.3827 -0.0000
vn -0.2646 -0.0867 0.9605
vn -0.5064 0.0246 0.8619
vn -0.7681 -0.5902 0.2484
vn -0.6533 -0.6533 0.3827
vn -0.7071 -0.7071 -0.0000
vn -0.6987 0.3955 0.5962
vn -0.6275 0.2342 0.7426
vn -0.9686 0.1255 0.2144
vn -1.0000 -0.0000 -0.0000
vn -0.9239 -0.3827 -0.0000
vn -0.6769 -0.0563 -0.7339
vn -0.5065 0.0245 -0.8619
vn -0.6248 -0.2467 -0.7408
vn -0.8344 0.0593 -0.5480
vn -0.6275 0.2342 -0.7426
vn -0.6684 -0.4827 -0.5659
vn -0.5000 -0.5000 -0.7071
vn -0.6533 -0.6533 -0.3827
vn -0.7839 -0.2660 -0.5610
vn -0.7720 0.6274 -0.1022
vn -0.8556 0.4116 -0.3139
vn -0.7681 -0.5902 -0.2484
vn -0.8750 -0.3440 -0.3408
vn -0.2646 -0.0867 -0.9605
vn -0.2706 -0.2706 -0.9239
vn -0.6987 0.3955 -0.5962
vn -0.9686 0.1255 -0.2144
vn -0.9559 -0.0942 -0.2782
vn 0.5001 0.5000 -0.7070
vn 0.0001 -0.0000 -1.0000
vn -0.0001 -0.0000 1.0000
vn 0.7071 -0.7071 -0.0000
vn 0.7072 -0.7071 -0.0000
vn 0.7072 -0.7070 -0.0000
vn 0.7071 -0.7071 0.0002
vn 0.7071 -0.7071 0.0001
vn 0.7071 -0.7071 -0.0001
vn 0.7070 -0.7072 -0.0000
vt 8.123163 3.750000
vt 0.528836 3.750000
vt 8.123163 0.250000
vt 0.528836 0.250000
vt 0.501850 3.845671
vt -8.136924 3.845671
vt -0.542523 3.750000
vt -0.515536 3.845671
vt -8.110073 3.926777
vt -0.465746 3.926777
vt -7.981741 0.330391
vt -0.316704 7.995429
vt -8.046700 0.400731
vt -0.387045 8.060387
vt -8.096386 0.465746
vt -0.452059 8.110073
vt 8.123237 0.154329
vt -0.515536 0.154329
vt -8.136849 0.250000
vt -8.136924 0.154329
vt -0.465746 0.073223
vt -8.110073 0.073223
vt 0.316704 7.995429
vt 7.981741 0.330391
vt 0.387045 8.060387
vt 8.046700 0.400731
vt 0.452059 8.110073
vt 8.096386 0.465746
vt -0.303347 3.900420
vt -0.274375 3.865445
vt -0.270747 3.922200
vt -0.364737 3.902929
vt -0.334705 3.848774
vt -8.082862 0.271765
vt -8.081741 0.230391
vt -8.035861 0.276271
vt -8.121298 0.314385
vt -8.130220 0.270747
vt -0.518711 3.780544
vt -0.456825 3.841413
vt -0.461417 3.769134
vt -8.037633 0.316565
vt -8.092128 0.348224
vt -0.215747 3.849297
vt -0.199734 3.876537
vt -8.138450 3.849297
vt -8.123163 3.800000
vt -8.112398 3.876537
vt -0.389493 3.829201
vt -0.365746 3.785355
vt -8.136119 0.443472
vt -8.120544 0.400217
vt -0.443472 3.905539
vt -0.314385 3.946362
vt -0.270075 3.796194
vt -8.161652 0.364737
vt -0.400217 3.941422
vt -0.188969 3.800000
vt -0.230391 3.941422
vt 8.142548 3.780544
vt 8.123237 3.845671
vt 8.127227 0.333861
vt 8.092128 0.348224
vt 8.112568 0.288399
vt -0.333861 0.056428
vt -0.364737 0.097071
vt -0.400217 0.058578
vt -8.117976 0.087042
vt -8.081741 0.058579
vt -8.112398 0.123463
vt -0.236652 0.087042
vt -0.288672 0.090002
vt -0.288399 0.052835
vt -0.518711 0.219456
vt -0.456825 0.158587
vt -0.461417 0.230866
vt 8.142548 0.219456
vt -8.138450 0.150703
vt -8.123163 0.200000
vt -0.215747 0.150703
vt -0.274375 0.134555
vt 8.037633 0.316565
vt 8.035861 0.276271
vt -0.389493 0.170799
vt -0.334705 0.151226
vt -0.365746 0.214645
vt -0.443472 0.094461
vt 8.136119 0.443472
vt 8.120544 0.400217
vt 8.081741 0.230391
vt 8.117976 0.236652
vt -0.270075 0.203806
vt -0.199734 0.123463
vt -0.188969 0.200000
vt -0.542523 0.250000
vt 0.289661 0.099580
vt 0.260688 0.134555
vt 0.257060 0.077799
vt 0.351051 0.097071
vt 0.321019 0.151226
vt 0.258078 8.096549
vt 0.216704 8.095428
vt 0.262584 8.049548
vt 0.300699 8.134984
vt 0.257060 8.143908
vt 0.505025 0.219456
vt 0.443138 0.158587
vt 0.501850 0.154329
vt 0.447730 0.230866
vt 0.302878 8.051319
vt 0.334537 8.105814
vt 0.202061 0.150703
vt 0.186048 0.123463
vt 8.152137 0.150703
vt 8.136849 0.200000
vt 8.126084 0.123463
vt 0.429785 8.149806
vt 0.386531 8.134232
vt 0.429785 0.094461
vt 0.375806 0.170799
vt 0.352059 0.214645
vt 0.300699 0.053638
vt 0.256388 0.203806
vt 0.351051 8.175338
vt 0.386531 0.058578
vt 0.175283 0.200000
vt -8.156234 0.219456
vt 0.452059 0.073223
vt 0.216704 0.058579
vt -0.320174 8.140914
vt -0.334537 8.105814
vt -0.274713 8.126254
vt 0.320174 3.943572
vt 0.351051 3.902929
vt 0.386531 3.941422
vt 8.131662 3.912958
vt 8.095428 3.941422
vt 8.126084 3.876537
vt 0.222965 3.912958
vt 0.274986 3.909998
vt 0.274713 3.947165
vt 0.505025 3.780544
vt 0.443138 3.841413
vt 0.447730 3.769134
vt -8.156234 3.780544
vt -8.136849 3.750000
vt 8.152137 3.849297
vt 8.136849 3.800000
vt 0.202061 3.849297
vt 0.260688 3.865445
vt -0.302878 8.051319
vt -0.262584 8.049548
vt 0.429785 3.905539
vt -0.429785 8.149806
vt -0.386531 8.134232
vt 0.375806 3.829201
vt 0.321019 3.848774
vt 0.352059 3.785355
vt -0.216704 8.095428
vt -0.222965 8.131662
vt 0.256388 3.796194
vt 0.186048 3.876537
vt 0.452059 3.926777
vt 0.175283 3.800000
vt -0.082974 3.800000
vt -0.082974 0.200000
vt 7.929866 0.170276
vt -0.230391 0.058579
vt -0.124395 0.058579
vt -0.093739 0.123463
vt 7.875746 0.224395
vt 7.975746 0.124395
vt -0.093739 3.876537
vt -7.975746 0.124395
vt -7.929866 0.170276
vt -7.875746 0.224395
vt -0.124395 3.941422
vt 0.069287 0.200000
vt 0.069287 3.800000
vt -0.156589 7.943552
vt 7.989433 3.941422
vt 0.110709 3.941422
vt 0.080052 3.876537
vt -0.210709 7.889432
vt -0.110709 7.989433
vt 0.080052 0.123463
vt 0.110709 0.058579
vt 0.110709 7.989433
vt 0.156589 7.943552
vt 0.210709 7.889432
vt 8.095428 0.058579
vt 7.989433 0.058579
vt -7.975746 3.941422
vt -8.006403 3.876537
vt -8.017168 3.800000
vt -7.929866 3.984776
vt -7.875746 4.000000
vt 0.170276 3.984776
vt 0.124395 3.941422
vt 0.082974 3.800000
vt -7.875746 0.000000
vt -0.210709 4.000000
vt 8.020089 3.876537
vt 8.030854 3.800000
vt -0.210709 -0.000000
vt 7.889432 -0.000000
vt 8.030854 0.200000
vt -0.069287 3.800000
vt -0.110709 3.941422
vt -0.156589 3.984776
vt 8.020089 0.123463
vt 7.943552 0.015224
vt 7.889432 4.000000
vt 7.943552 3.984776
vt -8.006403 0.123463
vt -7.975746 0.058579
vt -8.017168 0.200000
vt 0.082974 0.200000
vt 0.124395 0.058579
vt 0.170276 0.015224
vt -7.929866 0.015224
s 1
usemtl Diffuse_192_192_192_100.003
f 1/1/1 2/2/1 3/3/1
f 3/3/1 2/2/1 4/4/1
f 2/2/1 1/1/1 5/5/2
f 5/6/2 1/7/1 6/8/2
f 7/9/3 5/6/2 6/8/2
f 8/10/3 7/9/3 6/8/2
f 9/11/4 10/12/4 11/13/5
f 11/13/5 10/12/4 12/14/6
f 12/14/6 8/15/3 11/13/5
f 7/16/3 8/15/3 12/14/6
f 3/3/1 4/4/1 13/17/7
f 13/18/7 4/19/1 14/20/7
f 15/21/8 13/18/7 14/20/7
f 16/22/8 15/21/8 14/20/7
f 17/23/9 18/24/9 19/25/10
f 20/26/10 16/27/8 19/25/10
f 19/25/10 18/24/9 20/26/10
f 15/28/8 16/27/8 20/26/10
f 21/29/11 22/30/12 23/31/13
f 21/29/11 24/32/14 25/33/15
f 26/34/16 27/35/17 28/36/18
f 26/34/16 29/37/19 23/38/13
f 30/39/20 31/40/21 6/8/2
f 30/39/20 1/7/1 32/41/22
f 33/42/23 28/36/18 9/11/4
f 33/42/23 34/43/24 26/34/16
f 35/44/25 36/45/26 22/30/12
f 35/46/25 37/47/27 36/48/26
f 38/49/28 25/33/15 24/32/14
f 38/49/28 39/50/29 25/33/15
f 40/51/30 41/52/31 8/15/3
f 40/53/30 31/40/21 24/32/14
f 21/29/11 29/54/19 24/32/14
f 23/38/13 27/35/17 26/34/16
f 25/33/15 22/30/12 21/29/11
f 25/33/15 39/50/29 42/55/32
f 41/52/31 34/43/24 11/13/5
f 41/52/31 24/56/14 29/37/19
f 29/37/19 34/43/24 41/52/31
f 33/42/23 26/34/16 28/36/18
f 40/53/30 24/32/14 41/57/31
f 38/49/28 32/41/22 39/50/29
f 41/52/31 11/13/5 8/15/3
f 11/13/5 33/42/23 9/11/4
f 35/44/25 42/55/32 37/58/27
f 38/49/28 24/32/14 31/40/21
f 34/43/24 29/37/19 26/34/16
f 22/30/12 25/33/15 42/55/32
f 22/30/12 42/55/32 35/44/25
f 36/45/26 23/31/13 22/30/12
f 36/45/26 27/59/17 23/31/13
f 31/40/21 30/39/20 32/41/22
f 30/60/20 6/61/2 1/1/1
f 11/13/5 34/43/24 33/42/23
f 21/29/11 23/31/13 29/54/19
f 6/8/2 40/53/30 8/10/3
f 31/40/21 32/41/22 38/49/28
f 40/53/30 6/8/2 31/40/21
f 43/62/33 44/63/34 45/64/35
f 43/65/33 46/66/36 47/67/37
f 48/68/38 49/69/39 50/70/40
f 48/71/38 51/72/41 45/73/35
f 52/74/42 53/75/43 54/76/22
f 52/77/42 3/3/1 13/17/7
f 55/78/44 50/70/40 56/79/27
f 55/80/44 57/81/45 48/71/38
f 58/82/46 59/83/47 44/63/34
f 58/82/46 18/24/9 59/83/47
f 60/84/48 61/85/49 62/86/29
f 60/84/48 53/75/43 46/66/36
f 63/87/50 47/67/37 46/66/36
f 63/88/50 15/28/8 47/89/37
f 43/65/33 51/72/41 46/66/36
f 45/64/35 49/90/39 48/91/38
f 47/89/37 44/63/34 43/62/33
f 47/89/37 15/28/8 20/26/10
f 61/85/49 57/81/45 64/92/32
f 61/85/49 46/66/36 51/72/41
f 51/72/41 57/81/45 61/85/49
f 55/80/44 48/71/38 50/93/40
f 60/84/48 46/66/36 61/85/49
f 63/87/50 13/18/7 15/21/8
f 61/85/49 64/92/32 62/86/29
f 64/92/32 55/80/44 56/94/27
f 58/82/46 20/26/10 18/24/9
f 63/87/50 46/66/36 53/75/43
f 57/81/45 51/72/41 48/71/38
f 44/63/34 47/89/37 20/26/10
f 44/63/34 20/26/10 58/82/46
f 59/83/47 45/64/35 44/63/34
f 59/83/47 49/90/39 45/64/35
f 53/75/43 52/74/42 13/18/7
f 52/74/42 54/76/22 3/95/1
f 64/92/32 57/81/45 55/80/44
f 43/65/33 45/73/35 51/72/41
f 54/76/22 60/84/48 62/86/29
f 53/75/43 13/18/7 63/87/50
f 60/84/48 54/76/22 53/75/43
f 65/96/51 66/97/52 67/98/53
f 65/96/51 68/99/54 69/100/55
f 70/101/56 71/102/57 72/103/58
f 70/101/56 73/104/59 67/105/53
f 74/106/60 75/107/61 14/108/7
f 74/106/60 4/4/1 76/109/62
f 77/110/63 72/103/58 17/23/9
f 77/110/63 78/111/64 70/101/56
f 79/112/65 80/113/66 66/97/52
f 79/114/65 81/115/67 80/116/66
f 82/117/68 83/118/69 16/27/8
f 82/119/68 75/107/61 68/99/54
f 84/120/70 69/100/55 68/99/54
f 84/120/70 85/121/71 69/100/55
f 65/96/51 73/122/59 68/99/54
f 67/105/53 71/102/57 70/101/56
f 69/100/55 66/97/52 65/96/51
f 69/100/55 85/121/71 86/123/72
f 83/118/69 78/111/64 19/25/10
f 83/118/69 68/124/54 73/104/59
f 73/104/59 78/111/64 83/118/69
f 77/110/63 70/101/56 72/103/58
f 82/119/68 68/99/54 83/125/69
f 84/120/70 76/109/62 85/121/71
f 83/118/69 19/25/10 16/27/8
f 19/25/10 77/110/63 17/23/9
f 79/112/65 86/123/72 81/126/67
f 84/120/70 68/99/54 75/107/61
f 78/111/64 73/104/59 70/101/56
f 66/97/52 69/100/55 86/123/72
f 14/20/7 4/19/1 74/127/60
f 84/120/70 75/107/61 76/109/62
f 19/25/10 78/111/64 77/110/63
f 14/108/7 82/119/68 16/128/8
f 73/122/59 65/96/51 67/98/53
f 79/112/65 66/97/52 86/123/72
f 67/98/53 66/97/52 80/113/66
f 71/129/57 67/98/53 80/113/66
f 82/119/68 14/108/7 75/107/61
f 76/109/62 75/107/61 74/106/60
f 87/130/73 88/131/74 89/132/75
f 87/133/73 90/134/76 91/135/77
f 92/136/78 93/137/79 94/138/80
f 92/139/78 95/140/81 89/141/75
f 96/142/82 97/143/83 98/144/62
f 96/145/82 2/146/1 5/6/2
f 99/147/84 94/138/80 100/148/67
f 99/149/84 101/150/85 92/139/78
f 102/151/86 103/152/87 88/131/74
f 102/151/86 10/12/4 103/152/87
f 104/153/88 91/135/77 90/134/76
f 104/154/88 7/16/3 91/155/77
f 105/156/89 106/157/90 107/158/71
f 105/156/89 97/143/83 90/134/76
f 87/133/73 95/140/81 90/134/76
f 89/132/75 93/159/79 92/160/78
f 91/155/77 88/131/74 87/130/73
f 91/155/77 7/16/3 12/14/6
f 106/157/90 101/150/85 108/161/72
f 106/157/90 90/134/76 95/140/81
f 95/140/81 101/150/85 106/157/90
f 99/149/84 92/139/78 94/162/80
f 105/156/89 90/134/76 106/157/90
f 104/153/88 5/5/2 7/163/3
f 106/157/90 108/161/72 107/158/71
f 108/161/72 99/149/84 100/164/67
f 102/151/86 12/14/6 10/12/4
f 104/153/88 90/134/76 97/143/83
f 101/150/85 95/140/81 92/139/78
f 88/131/74 91/155/77 12/14/6
f 98/144/62 2/2/1 96/142/82
f 104/153/88 97/143/83 5/5/2
f 108/161/72 101/150/85 99/149/84
f 98/144/62 105/156/89 107/158/71
f 95/140/81 87/133/73 89/141/75
f 102/151/86 88/131/74 12/14/6
f 89/132/75 88/131/74 103/152/87
f 93/159/79 89/132/75 103/152/87
f 105/156/89 98/144/62 97/143/83
f 5/5/2 97/143/83 96/142/82
f 56/94/27 37/58/27 64/92/32
f 64/92/32 37/58/27 42/55/32
f 62/86/29 64/92/32 42/55/32
f 39/50/29 62/86/29 42/55/32
f 54/76/22 32/41/22 3/95/1
f 3/95/1 32/41/22 1/7/1
f 54/76/22 39/50/29 32/41/22
f 62/86/29 39/50/29 54/76/22
f 4/4/1 2/2/1 76/109/62
f 98/144/62 76/109/62 2/2/1
f 86/123/72 85/121/71 107/158/71
f 98/144/62 85/121/71 76/109/62
f 81/126/67 108/161/72 100/164/67
f 81/126/67 86/123/72 108/161/72
f 86/123/72 107/158/71 108/161/72
f 98/144/62 107/158/71 85/121/71
f 109/165/27 37/58/27 110/166/27
f 37/58/27 56/94/27 110/166/27
f 59/83/47 111/167/47 49/90/39
f 49/168/39 112/169/39 50/93/40
f 50/93/40 112/169/39 113/170/40
f 59/83/47 18/24/9 111/167/47
f 113/170/40 110/166/27 56/94/27
f 50/93/40 113/170/40 56/94/27
f 111/167/47 18/24/9 114/171/9
f 49/90/39 111/167/47 112/172/39
f 36/45/26 115/173/26 27/59/17
f 27/35/17 116/174/91 28/36/18
f 28/36/18 116/174/91 117/175/18
f 36/45/26 37/58/27 115/173/26
f 118/176/92 9/11/4 117/175/18
f 117/175/18 9/11/4 28/36/18
f 115/173/26 37/58/27 109/165/27
f 27/59/17 115/173/26 116/177/91
f 119/178/67 81/126/67 120/179/67
f 81/126/67 100/164/67 120/179/67
f 103/152/87 121/180/87 93/159/79
f 93/137/79 122/181/79 94/138/80
f 94/162/80 122/182/79 123/183/80
f 120/179/67 100/164/67 123/183/80
f 100/164/67 94/162/80 123/183/80
f 103/152/87 124/184/4 121/180/87
f 121/180/87 122/185/79 93/159/79
f 124/184/4 103/152/87 10/12/4
f 80/113/66 125/186/66 126/187/57
f 71/102/57 126/188/57 127/189/58
f 72/103/58 71/102/57 127/189/58
f 80/113/66 81/126/67 125/186/66
f 72/103/58 128/190/93 17/23/9
f 72/103/58 127/189/58 128/190/93
f 125/186/66 81/126/67 119/178/67
f 71/191/57 80/116/66 126/192/57
f 17/23/9 128/190/93 114/171/9
f 114/171/9 18/24/9 17/23/9
f 118/176/92 10/12/4 9/11/4
f 10/12/4 118/176/92 124/184/4
f 129/193/94 130/194/94 131/195/94
f 132/196/94 133/195/94 134/197/94
f 135/198/94 136/199/94 137/200/94
f 138/195/94 139/201/94 140/197/94
f 141/197/95 142/201/95 143/202/95
f 144/203/94 145/181/94 146/204/94
f 147/202/96 148/201/96 149/205/96
f 150/204/94 151/206/94 152/207/94
f 153/208/94 154/209/94 155/210/94
f 156/207/97 157/206/97 158/211/97
f 159/212/94 160/192/94 161/206/98
f 162/206/99 163/192/99 164/211/99
f 165/213/94 166/204/94 167/214/94
f 168/215/94 169/216/94 170/217/94
f 171/201/100 172/195/100 173/217/100
f 174/218/94 175/219/94 176/220/94
f 177/213/94 178/206/94 179/204/94
f 180/201/94 181/217/94 182/221/94
