# Blender 4.4.3
# www.blender.org
mtllib Mesh_11.001.mtl
o Mesh_11.001
v 0.011630 0.009401 -0.014403
v 0.011630 0.009081 -0.014403
v 0.011645 0.009401 -0.014403
v 0.011645 0.009081 -0.014403
v 0.011630 0.009441 -0.014763
v 0.011630 0.009441 -0.014443
v 0.011645 0.009441 -0.014763
v 0.011645 0.009441 -0.014443
v 0.011630 0.009081 -0.014803
v 0.011630 0.009401 -0.014803
v 0.011645 0.009081 -0.014803
v 0.011645 0.009401 -0.014803
v 0.011630 0.009041 -0.014443
v 0.011630 0.009041 -0.014763
v 0.011645 0.009041 -0.014443
v 0.011645 0.009041 -0.014763
v 0.011605 0.009401 -0.014428
v 0.011605 0.009416 -0.014443
v 0.011605 0.009416 -0.014763
v 0.011605 0.009416 -0.014440
v 0.011605 0.009415 -0.014437
v 0.011605 0.009414 -0.014434
v 0.011605 0.009412 -0.014432
v 0.011605 0.009407 -0.014429
v 0.011605 0.009409 -0.014430
v 0.011605 0.009404 -0.014428
v 0.011605 0.009081 -0.014428
v 0.011605 0.009066 -0.014443
v 0.011605 0.009078 -0.014428
v 0.011605 0.009073 -0.014430
v 0.011605 0.009075 -0.014429
v 0.011605 0.009071 -0.014432
v 0.011605 0.009067 -0.014437
v 0.011605 0.009069 -0.014434
v 0.011605 0.009066 -0.014440
v 0.011605 0.009066 -0.014763
v 0.011605 0.009081 -0.014778
v 0.011605 0.009067 -0.014769
v 0.011605 0.009066 -0.014766
v 0.011605 0.009069 -0.014771
v 0.011605 0.009071 -0.014773
v 0.011605 0.009075 -0.014777
v 0.011605 0.009073 -0.014775
v 0.011605 0.009078 -0.014778
v 0.011605 0.009401 -0.014778
v 0.011605 0.009407 -0.014777
v 0.011605 0.009404 -0.014778
v 0.011605 0.009409 -0.014775
v 0.011605 0.009412 -0.014773
v 0.011605 0.009415 -0.014769
v 0.011605 0.009414 -0.014771
v 0.011605 0.009416 -0.014766
v 0.011645 0.009041 -0.014443
v 0.011645 0.009401 -0.014403
v 0.011645 0.009081 -0.014403
v 0.011645 0.009041 -0.014443
v 0.011645 0.009081 -0.014403
v 0.011645 0.009073 -0.014404
v 0.011645 0.009041 -0.014443
v 0.011645 0.009066 -0.014406
v 0.011645 0.009041 -0.014443
v 0.011645 0.009059 -0.014410
v 0.011645 0.009041 -0.014443
v 0.011645 0.009053 -0.014415
v 0.011645 0.009044 -0.014428
v 0.011645 0.009041 -0.014443
v 0.011645 0.009048 -0.014421
v 0.011645 0.009041 -0.014443
v 0.011645 0.009042 -0.014435
v 0.011645 0.009041 -0.014443
v 0.011645 0.009041 -0.014443
v 0.011645 0.009041 -0.014763
v 0.011645 0.009401 -0.014403
v 0.011645 0.009041 -0.014763
v 0.011645 0.009081 -0.014803
v 0.011645 0.009401 -0.014403
v 0.011645 0.009041 -0.014763
v 0.011645 0.009042 -0.014771
v 0.011645 0.009081 -0.014803
v 0.011645 0.009044 -0.014778
v 0.011645 0.009081 -0.014803
v 0.011645 0.009081 -0.014803
v 0.011645 0.009048 -0.014785
v 0.011645 0.009053 -0.014791
v 0.011645 0.009066 -0.014800
v 0.011645 0.009081 -0.014803
v 0.011645 0.009059 -0.014796
v 0.011645 0.009081 -0.014803
v 0.011645 0.009073 -0.014802
v 0.011645 0.009081 -0.014803
v 0.011645 0.009081 -0.014803
v 0.011645 0.009401 -0.014803
v 0.011645 0.009401 -0.014403
v 0.011645 0.009401 -0.014803
v 0.011645 0.009441 -0.014763
v 0.011645 0.009401 -0.014403
v 0.011645 0.009441 -0.014763
v 0.011645 0.009409 -0.014802
v 0.011645 0.009416 -0.014800
v 0.011645 0.009441 -0.014763
v 0.011645 0.009423 -0.014796
v 0.011645 0.009441 -0.014763
v 0.011645 0.009429 -0.014791
v 0.011645 0.009438 -0.014778
v 0.011645 0.009441 -0.014763
v 0.011645 0.009434 -0.014785
v 0.011645 0.009441 -0.014763
v 0.011645 0.009440 -0.014771
v 0.011645 0.009441 -0.014763
v 0.011645 0.009441 -0.014763
v 0.011645 0.009401 -0.014803
v 0.011645 0.009441 -0.014443
v 0.011645 0.009401 -0.014403
v 0.011645 0.009441 -0.014763
v 0.011645 0.009401 -0.014403
v 0.011645 0.009440 -0.014435
v 0.011645 0.009438 -0.014428
v 0.011645 0.009401 -0.014403
v 0.011645 0.009434 -0.014421
v 0.011645 0.009401 -0.014403
v 0.011645 0.009429 -0.014415
v 0.011645 0.009416 -0.014406
v 0.011645 0.009401 -0.014403
v 0.011645 0.009423 -0.014410
v 0.011645 0.009401 -0.014403
v 0.011645 0.009409 -0.014404
v 0.011645 0.009401 -0.014403
v 0.011645 0.009401 -0.014403
v 0.011645 0.009441 -0.014443
v 0.011645 0.009081 -0.014803
v 0.011645 0.009440 -0.014435
v 0.011630 0.009440 -0.014435
v 0.011645 0.009438 -0.014428
v 0.011645 0.009438 -0.014428
v 0.011630 0.009438 -0.014428
v 0.011645 0.009434 -0.014421
v 0.011645 0.009434 -0.014421
v 0.011630 0.009434 -0.014421
v 0.011645 0.009429 -0.014415
v 0.011630 0.009429 -0.014415
v 0.011645 0.009423 -0.014410
v 0.011630 0.009423 -0.014410
v 0.011645 0.009416 -0.014406
v 0.011630 0.009416 -0.014406
v 0.011645 0.009409 -0.014404
v 0.011630 0.009409 -0.014404
v 0.011645 0.009409 -0.014404
v 0.011645 0.009409 -0.014404
v 0.011645 0.009416 -0.014406
v 0.011645 0.009416 -0.014406
v 0.011645 0.009423 -0.014410
v 0.011645 0.009423 -0.014410
v 0.011645 0.009429 -0.014415
v 0.011645 0.009429 -0.014415
v 0.011645 0.009434 -0.014421
v 0.011645 0.009440 -0.014435
v 0.011645 0.009438 -0.014428
v 0.011645 0.009409 -0.014802
v 0.011630 0.009409 -0.014802
v 0.011645 0.009416 -0.014800
v 0.011645 0.009409 -0.014802
v 0.011645 0.009423 -0.014796
v 0.011645 0.009416 -0.014800
v 0.011630 0.009416 -0.014800
v 0.011630 0.009423 -0.014796
v 0.011645 0.009423 -0.014796
v 0.011630 0.009429 -0.014791
v 0.011645 0.009429 -0.014791
v 0.011645 0.009434 -0.014785
v 0.011645 0.009429 -0.014791
v 0.011630 0.009434 -0.014785
v 0.011645 0.009438 -0.014778
v 0.011645 0.009434 -0.014785
v 0.011645 0.009440 -0.014771
v 0.011630 0.009440 -0.014771
v 0.011630 0.009438 -0.014778
v 0.011645 0.009440 -0.014771
v 0.011645 0.009438 -0.014778
v 0.011645 0.009440 -0.014771
v 0.011645 0.009438 -0.014778
v 0.011645 0.009434 -0.014785
v 0.011645 0.009423 -0.014796
v 0.011645 0.009429 -0.014791
v 0.011645 0.009416 -0.014800
v 0.011645 0.009042 -0.014771
v 0.011630 0.009042 -0.014771
v 0.011645 0.009044 -0.014778
v 0.011645 0.009044 -0.014778
v 0.011630 0.009044 -0.014778
v 0.011645 0.009048 -0.014785
v 0.011645 0.009048 -0.014785
v 0.011630 0.009048 -0.014785
v 0.011645 0.009053 -0.014791
v 0.011630 0.009053 -0.014791
v 0.011645 0.009059 -0.014796
v 0.011645 0.009053 -0.014791
v 0.011645 0.009066 -0.014800
v 0.011645 0.009059 -0.014796
v 0.011630 0.009059 -0.014796
v 0.011630 0.009066 -0.014800
v 0.011645 0.009066 -0.014800
v 0.011630 0.009073 -0.014802
v 0.011645 0.009073 -0.014802
v 0.011645 0.009073 -0.014802
v 0.011645 0.009073 -0.014802
v 0.011645 0.009066 -0.014800
v 0.011645 0.009042 -0.014771
v 0.011645 0.009059 -0.014796
v 0.011645 0.009048 -0.014785
v 0.011645 0.009053 -0.014791
v 0.011645 0.009044 -0.014778
v 0.011645 0.009073 -0.014404
v 0.011630 0.009073 -0.014404
v 0.011645 0.009066 -0.014406
v 0.011645 0.009073 -0.014404
v 0.011630 0.009059 -0.014410
v 0.011645 0.009059 -0.014410
v 0.011630 0.009066 -0.014406
v 0.011630 0.009053 -0.014415
v 0.011645 0.009053 -0.014415
v 0.011630 0.009048 -0.014421
v 0.011645 0.009048 -0.014421
v 0.011630 0.009044 -0.014428
v 0.011645 0.009044 -0.014428
v 0.011645 0.009042 -0.014435
v 0.011630 0.009042 -0.014435
v 0.011645 0.009042 -0.014435
v 0.011645 0.009042 -0.014435
v 0.011645 0.009044 -0.014428
v 0.011645 0.009044 -0.014428
v 0.011645 0.009048 -0.014421
v 0.011645 0.009048 -0.014421
v 0.011645 0.009053 -0.014415
v 0.011645 0.009066 -0.014406
v 0.011645 0.009059 -0.014410
v 0.011645 0.009066 -0.014406
v 0.011645 0.009053 -0.014415
v 0.011645 0.009059 -0.014410
v 0.011605 0.009401 -0.014423
v 0.011605 0.009081 -0.014423
v 0.011607 0.009401 -0.014418
v 0.011607 0.009081 -0.014418
v 0.011609 0.009401 -0.014414
v 0.011609 0.009081 -0.014414
v 0.011612 0.009401 -0.014410
v 0.011612 0.009081 -0.014410
v 0.011616 0.009401 -0.014407
v 0.011616 0.009081 -0.014407
v 0.011625 0.009081 -0.014403
v 0.011625 0.009401 -0.014403
v 0.011620 0.009081 -0.014405
v 0.011620 0.009401 -0.014405
v 0.011627 0.009430 -0.014415
v 0.011627 0.009427 -0.014412
v 0.011616 0.009407 -0.014407
v 0.011618 0.009408 -0.014406
v 0.011617 0.009414 -0.014409
v 0.011615 0.009412 -0.014409
v 0.011615 0.009418 -0.014411
v 0.011614 0.009406 -0.014409
v 0.011624 0.009438 -0.014430
v 0.011622 0.009438 -0.014430
v 0.011624 0.009436 -0.014425
v 0.011626 0.009440 -0.014434
v 0.011622 0.009440 -0.014438
v 0.011606 0.009424 -0.014437
v 0.011607 0.009426 -0.014434
v 0.011607 0.009426 -0.014443
v 0.011605 0.009420 -0.014436
v 0.011606 0.009420 -0.014428
v 0.011620 0.009439 -0.014436
v 0.011618 0.009438 -0.014439
v 0.011618 0.009436 -0.014430
v 0.011620 0.009439 -0.014443
v 0.011613 0.009433 -0.014432
v 0.011612 0.009431 -0.014432
v 0.011612 0.009429 -0.014426
v 0.011614 0.009435 -0.014437
v 0.011611 0.009433 -0.014438
v 0.011610 0.009431 -0.014439
v 0.011609 0.009429 -0.014433
v 0.011612 0.009434 -0.014443
v 0.011627 0.009411 -0.014404
v 0.011626 0.009408 -0.014404
v 0.011623 0.009423 -0.014411
v 0.011622 0.009422 -0.014410
v 0.011624 0.009419 -0.014408
v 0.011624 0.009428 -0.014414
v 0.011621 0.009427 -0.014415
v 0.011627 0.009441 -0.014440
v 0.011625 0.009441 -0.014443
v 0.011627 0.009436 -0.014423
v 0.011626 0.009433 -0.014420
v 0.011627 0.009438 -0.014429
v 0.011627 0.009417 -0.014406
v 0.011624 0.009413 -0.014405
v 0.011611 0.009404 -0.014412
v 0.011614 0.009415 -0.014412
v 0.011616 0.009424 -0.014415
v 0.011614 0.009422 -0.014416
v 0.011615 0.009436 -0.014437
v 0.011615 0.009435 -0.014431
v 0.011616 0.009437 -0.014443
v 0.011626 0.009422 -0.014409
v 0.011606 0.009414 -0.014424
v 0.011605 0.009410 -0.014426
v 0.011606 0.009409 -0.014420
v 0.011605 0.009417 -0.014432
v 0.011617 0.009434 -0.014427
v 0.011618 0.009431 -0.014421
v 0.011620 0.009436 -0.014426
v 0.011614 0.009432 -0.014427
v 0.011609 0.009430 -0.014443
v 0.011623 0.009408 -0.014404
v 0.011621 0.009409 -0.014405
v 0.011616 0.009428 -0.014419
v 0.011609 0.009419 -0.014420
v 0.011610 0.009417 -0.014417
v 0.011611 0.009423 -0.014419
v 0.011608 0.009415 -0.014419
v 0.011619 0.009427 -0.014416
v 0.011619 0.009420 -0.014410
v 0.011622 0.009432 -0.014419
v 0.011605 0.009421 -0.014443
v 0.011608 0.009409 -0.014417
v 0.011609 0.009425 -0.014426
v 0.011620 0.009414 -0.014407
v 0.011613 0.009428 -0.014423
v 0.011611 0.009411 -0.014413
v 0.011627 0.009054 -0.014414
v 0.011627 0.009051 -0.014417
v 0.011616 0.009046 -0.014437
v 0.011618 0.009045 -0.014436
v 0.011617 0.009047 -0.014429
v 0.011616 0.009045 -0.014443
v 0.011615 0.009048 -0.014432
v 0.011615 0.009050 -0.014426
v 0.011614 0.009047 -0.014438
v 0.011624 0.009068 -0.014406
v 0.011622 0.009068 -0.014406
v 0.011624 0.009064 -0.014408
v 0.011626 0.009072 -0.014404
v 0.011622 0.009077 -0.014404
v 0.011606 0.009076 -0.014420
v 0.011607 0.009072 -0.014418
v 0.011605 0.009074 -0.014424
v 0.011606 0.009066 -0.014424
v 0.011620 0.009074 -0.014405
v 0.011618 0.009077 -0.014406
v 0.011618 0.009068 -0.014408
v 0.011613 0.009070 -0.014411
v 0.011612 0.009070 -0.014413
v 0.011612 0.009064 -0.014415
v 0.011614 0.009076 -0.014409
v 0.011611 0.009076 -0.014411
v 0.011610 0.009078 -0.014413
v 0.011609 0.009071 -0.014415
v 0.011627 0.009043 -0.014433
v 0.011626 0.009042 -0.014436
v 0.011623 0.009049 -0.014421
v 0.011622 0.009049 -0.014422
v 0.011624 0.009046 -0.014425
v 0.011624 0.009053 -0.014416
v 0.011621 0.009053 -0.014417
v 0.011627 0.009078 -0.014403
v 0.011627 0.009061 -0.014408
v 0.011626 0.009058 -0.014411
v 0.011627 0.009067 -0.014406
v 0.011627 0.009045 -0.014427
v 0.011624 0.009044 -0.014431
v 0.011611 0.009050 -0.014440
v 0.011612 0.009048 -0.014443
v 0.011609 0.009052 -0.014443
v 0.011614 0.009050 -0.014429
v 0.011616 0.009053 -0.014420
v 0.011614 0.009054 -0.014422
v 0.011615 0.009075 -0.014408
v 0.011615 0.009070 -0.014409
v 0.011626 0.009047 -0.014422
v 0.011606 0.009062 -0.014430
v 0.011605 0.009064 -0.014434
v 0.011606 0.009059 -0.014435
v 0.011605 0.009070 -0.014426
v 0.011617 0.009066 -0.014410
v 0.011618 0.009059 -0.014413
v 0.011620 0.009065 -0.014408
v 0.011614 0.009065 -0.014412
v 0.011623 0.009043 -0.014436
v 0.011621 0.009043 -0.014435
v 0.011620 0.009043 -0.014443
v 0.011616 0.009057 -0.014416
v 0.011609 0.009058 -0.014425
v 0.011610 0.009055 -0.014427
v 0.011611 0.009058 -0.014421
v 0.011608 0.009057 -0.014429
v 0.011619 0.009054 -0.014417
v 0.011619 0.009049 -0.014424
v 0.011622 0.009057 -0.014412
v 0.011625 0.009042 -0.014443
v 0.011608 0.009055 -0.014435
v 0.011607 0.009057 -0.014443
v 0.011609 0.009065 -0.014419
v 0.011620 0.009045 -0.014430
v 0.011605 0.009061 -0.014443
v 0.011613 0.009061 -0.014416
v 0.011611 0.009051 -0.014433
v 0.011605 0.009421 -0.014763
v 0.011607 0.009426 -0.014763
v 0.011609 0.009430 -0.014763
v 0.011612 0.009434 -0.014763
v 0.011625 0.009441 -0.014763
v 0.011620 0.009439 -0.014763
v 0.011616 0.009437 -0.014763
v 0.011625 0.009042 -0.014763
v 0.011620 0.009043 -0.014763
v 0.011616 0.009045 -0.014763
v 0.011612 0.009048 -0.014763
v 0.011609 0.009052 -0.014763
v 0.011605 0.009061 -0.014763
v 0.011607 0.009057 -0.014763
v 0.011627 0.009429 -0.014792
v 0.011627 0.009432 -0.014788
v 0.011616 0.009437 -0.014769
v 0.011618 0.009438 -0.014769
v 0.011617 0.009435 -0.014776
v 0.011615 0.009435 -0.014774
v 0.011615 0.009433 -0.014780
v 0.011614 0.009435 -0.014768
v 0.011624 0.009414 -0.014800
v 0.011622 0.009414 -0.014799
v 0.011624 0.009419 -0.014798
v 0.011626 0.009410 -0.014802
v 0.011622 0.009406 -0.014801
v 0.011606 0.009407 -0.014786
v 0.011607 0.009410 -0.014788
v 0.011607 0.009401 -0.014787
v 0.011605 0.009408 -0.014781
v 0.011606 0.009416 -0.014782
v 0.011620 0.009408 -0.014800
v 0.011618 0.009405 -0.014800
v 0.011618 0.009414 -0.014798
v 0.011620 0.009401 -0.014801
v 0.011613 0.009412 -0.014795
v 0.011612 0.009412 -0.014793
v 0.011612 0.009418 -0.014790
v 0.011614 0.009407 -0.014797
v 0.011611 0.009406 -0.014794
v 0.011610 0.009405 -0.014793
v 0.011609 0.009411 -0.014791
v 0.011612 0.009401 -0.014796
v 0.011627 0.009440 -0.014773
v 0.011626 0.009440 -0.014769
v 0.011623 0.009433 -0.014785
v 0.011622 0.009434 -0.014784
v 0.011624 0.009436 -0.014781
v 0.011624 0.009430 -0.014790
v 0.011621 0.009429 -0.014789
v 0.011627 0.009404 -0.014803
v 0.011625 0.009401 -0.014802
v 0.011627 0.009421 -0.014797
v 0.011626 0.009424 -0.014795
v 0.011627 0.009415 -0.014800
v 0.011627 0.009438 -0.014779
v 0.011624 0.009439 -0.014775
v 0.011611 0.009432 -0.014766
v 0.011614 0.009432 -0.014777
v 0.011616 0.009429 -0.014785
v 0.011614 0.009428 -0.014784
v 0.011615 0.009407 -0.014798
v 0.011615 0.009413 -0.014796
v 0.011616 0.009401 -0.014799
v 0.011626 0.009435 -0.014784
v 0.011606 0.009420 -0.014775
v 0.011605 0.009418 -0.014772
v 0.011606 0.009424 -0.014771
v 0.011605 0.009412 -0.014779
v 0.011617 0.009417 -0.014796
v 0.011618 0.009423 -0.014793
v 0.011620 0.009418 -0.014797
v 0.011614 0.009417 -0.014794
v 0.011609 0.009401 -0.014792
v 0.011623 0.009440 -0.014770
v 0.011621 0.009439 -0.014771
v 0.011616 0.009425 -0.014789
v 0.011609 0.009424 -0.014781
v 0.011610 0.009427 -0.014778
v 0.011611 0.009425 -0.014785
v 0.011608 0.009425 -0.014777
v 0.011619 0.009428 -0.014789
v 0.011619 0.009434 -0.014782
v 0.011622 0.009425 -0.014793
v 0.011605 0.009401 -0.014783
v 0.011608 0.009427 -0.014770
v 0.011609 0.009418 -0.014787
v 0.011620 0.009437 -0.014775
v 0.011613 0.009421 -0.014790
v 0.011611 0.009431 -0.014773
v 0.011627 0.009052 -0.014790
v 0.011627 0.009056 -0.014793
v 0.011616 0.009075 -0.014798
v 0.011618 0.009075 -0.014799
v 0.011617 0.009068 -0.014797
v 0.011616 0.009081 -0.014799
v 0.011615 0.009070 -0.014796
v 0.011615 0.009064 -0.014794
v 0.011614 0.009076 -0.014797
v 0.011624 0.009044 -0.014776
v 0.011622 0.009045 -0.014776
v 0.011624 0.009046 -0.014780
v 0.011626 0.009042 -0.014772
v 0.011622 0.009043 -0.014767
v 0.011606 0.009058 -0.014768
v 0.011607 0.009056 -0.014772
v 0.011605 0.009063 -0.014770
v 0.011606 0.009062 -0.014778
v 0.011620 0.009044 -0.014770
v 0.011618 0.009044 -0.014767
v 0.011618 0.009046 -0.014776
v 0.011613 0.009049 -0.014774
v 0.011612 0.009051 -0.014774
v 0.011612 0.009054 -0.014780
v 0.011614 0.009047 -0.014768
v 0.011611 0.009050 -0.014768
v 0.011610 0.009051 -0.014766
v 0.011609 0.009053 -0.014773
v 0.011627 0.009071 -0.014801
v 0.011626 0.009075 -0.014802
v 0.011623 0.009059 -0.014795
v 0.011622 0.009060 -0.014795
v 0.011624 0.009063 -0.014798
v 0.011624 0.009054 -0.014791
v 0.011621 0.009055 -0.014791
v 0.011627 0.009041 -0.014766
v 0.011627 0.009047 -0.014783
v 0.011626 0.009049 -0.014786
v 0.011627 0.009044 -0.014777
v 0.011627 0.009065 -0.014799
v 0.011624 0.009069 -0.014800
v 0.011611 0.009078 -0.014794
v 0.011612 0.009081 -0.014796
v 0.011609 0.009081 -0.014792
v 0.011614 0.009067 -0.014794
v 0.011616 0.009059 -0.014791
v 0.011614 0.009060 -0.014790
v 0.011615 0.009046 -0.014769
v 0.011615 0.009048 -0.014774
v 0.011626 0.009060 -0.014797
v 0.011606 0.009069 -0.014782
v 0.011605 0.009072 -0.014780
v 0.011606 0.009073 -0.014785
v 0.011605 0.009065 -0.014774
v 0.011617 0.009048 -0.014778
v 0.011618 0.009051 -0.014785
v 0.011620 0.009047 -0.014779
v 0.011614 0.009050 -0.014779
v 0.011623 0.009074 -0.014801
v 0.011621 0.009073 -0.014801
v 0.011620 0.009081 -0.014801
v 0.011616 0.009055 -0.014787
v 0.011609 0.009063 -0.014786
v 0.011610 0.009066 -0.014789
v 0.011611 0.009059 -0.014786
v 0.011608 0.009067 -0.014787
v 0.011619 0.009055 -0.014790
v 0.011619 0.009062 -0.014795
v 0.011622 0.009051 -0.014787
v 0.011625 0.009081 -0.014802
v 0.011608 0.009074 -0.014789
v 0.011607 0.009081 -0.014787
v 0.011609 0.009057 -0.014779
v 0.011620 0.009069 -0.014799
v 0.011605 0.009081 -0.014783
v 0.011613 0.009054 -0.014783
v 0.011611 0.009071 -0.014793
vn -0.0000 -0.0000 1.0000
vn -0.0000 1.0000 -0.0000
vn -0.0000 -0.0000 -1.0000
vn -0.0000 -1.0000 -0.0000
vn -1.0000 -0.0000 -0.0000
vn -1.0000 0.0001 -0.0000
vn -1.0000 -0.0001 -0.0000
vn -1.0000 0.0003 -0.0000
vn -1.0000 -0.0002 -0.0000
vn -1.0000 -0.0003 -0.0000
vn 1.0000 -0.0000 -0.0000
vn 1.0000 -0.0001 -0.0000
vn 1.0000 0.0002 -0.0000
vn 1.0000 0.0001 -0.0000
vn 1.0000 -0.0002 -0.0000
vn -0.0000 0.9808 0.1951
vn -0.0000 0.9239 0.3826
vn -0.0000 0.9239 0.3827
vn -0.0000 0.8315 0.5555
vn -0.0000 0.8315 0.5556
vn -0.0000 0.7071 0.7071
vn -0.0000 0.5556 0.8314
vn -0.0000 0.5556 0.8315
vn -0.0000 0.3827 0.9239
vn -0.0000 0.1951 0.9808
vn -0.0000 0.1950 0.9808
vn -0.0000 0.3826 0.9239
vn -0.0000 0.5555 0.8315
vn -0.0000 0.8314 0.5556
vn -0.0000 0.9808 0.1950
vn -0.0000 0.1950 -0.9808
vn -0.0000 0.1951 -0.9808
vn -0.0000 0.3826 -0.9239
vn -0.0000 0.5555 -0.8315
vn -0.0000 0.3827 -0.9239
vn -0.0000 0.5556 -0.8315
vn -0.0000 0.7071 -0.7071
vn -0.0000 0.8314 -0.5556
vn -0.0000 0.8315 -0.5555
vn -0.0000 0.9239 -0.3827
vn -0.0000 0.9808 -0.1950
vn -0.0000 0.9808 -0.1951
vn -0.0000 0.9239 -0.3826
vn -0.0000 0.8315 -0.5556
vn -0.0000 0.5556 -0.8314
vn -0.0000 0.5557 -0.8314
vn -0.0000 -0.9808 -0.1951
vn -0.0000 -0.9239 -0.3826
vn -0.0000 -0.9239 -0.3827
vn -0.0000 -0.8315 -0.5555
vn -0.0000 -0.8315 -0.5556
vn -0.0000 -0.7071 -0.7071
vn -0.0000 -0.5557 -0.8314
vn -0.0000 -0.3827 -0.9239
vn -0.0000 -0.5555 -0.8315
vn -0.0000 -0.5556 -0.8315
vn -0.0000 -0.1951 -0.9808
vn -0.0000 -0.1950 -0.9808
vn -0.0000 -0.3826 -0.9239
vn -0.0000 -0.9808 -0.1950
vn -0.0000 -0.8314 -0.5556
vn -0.0000 -0.1950 0.9808
vn -0.0000 -0.1951 0.9808
vn -0.0000 -0.3826 0.9239
vn -0.0000 -0.5556 0.8315
vn -0.0000 -0.5555 0.8315
vn -0.0000 -0.3827 0.9239
vn -0.0000 -0.7071 0.7071
vn -0.0000 -0.8315 0.5556
vn -0.0000 -0.8314 0.5556
vn -0.0000 -0.9239 0.3827
vn -0.0000 -0.9808 0.1951
vn -0.0000 -0.9808 0.1950
vn -0.0000 -0.9239 0.3826
vn -0.0000 -0.8315 0.5555
vn -0.0000 -0.5557 0.8314
vn -0.9808 -0.0000 0.1951
vn -0.9239 -0.0000 0.3827
vn -0.8315 -0.0000 0.5556
vn -0.7071 -0.0000 0.7071
vn -0.5556 -0.0000 0.8315
vn -0.1951 -0.0000 0.9808
vn -0.1952 -0.0000 0.9808
vn -0.3827 -0.0000 0.9239
vn -0.0873 0.7221 0.6863
vn -0.1191 0.6381 0.7607
vn -0.5389 0.1367 0.8312
vn -0.4617 0.1540 0.8735
vn -0.5153 0.3138 0.7975
vn -0.5957 0.2485 0.7638
vn -0.5664 0.3898 0.7261
vn -0.6341 0.1096 0.7654
vn -0.2249 0.9185 0.3252
vn -0.3237 0.8930 0.3128
vn -0.2125 0.8739 0.4371
vn -0.1364 0.9668 0.2162
vn -0.3015 0.9475 0.1069
vn -0.9386 0.3360 0.0785
vn -0.8914 0.4277 0.1498
vn -0.9239 0.3827 -0.0000
vn -0.9812 0.1810 0.0664
vn -0.9266 0.2966 0.2311
vn -0.3657 0.9142 0.1744
vn -0.4682 0.8777 0.1026
vn -0.4617 0.8335 0.3034
vn -0.3827 0.9239 -0.0000
vn -0.6585 0.7120 0.2438
vn -0.7232 0.6483 0.2381
vn -0.7220 0.5908 0.3601
vn -0.6293 0.7673 0.1234
vn -0.7392 0.6653 0.1047
vn -0.7844 0.6160 0.0720
vn -0.8064 0.5557 0.2022
vn -0.7071 0.7071 -0.0000
vn -0.0862 0.2561 0.9628
vn -0.1377 0.1649 0.9767
vn -0.2553 0.5501 0.7951
vn -0.3237 0.5180 0.7918
vn -0.2286 0.4483 0.8642
vn -0.2125 0.6717 0.7097
vn -0.3566 0.6354 0.6849
vn -0.1108 0.9912 0.0728
vn -0.1951 0.9808 -0.0000
vn -0.0865 0.8629 0.4978
vn -0.1423 0.8045 0.5767
vn -0.1167 0.9299 0.3488
vn -0.1204 0.4015 0.9079
vn -0.2164 0.2936 0.9311
vn -0.7636 0.0681 0.6421
vn -0.6335 0.3202 0.7044
vn -0.5473 0.5241 0.6526
vn -0.6403 0.4783 0.6010
vn -0.5862 0.7995 0.1313
vn -0.5723 0.7761 0.2649
vn -0.5556 0.8315 -0.0000
vn -0.1436 0.5180 0.8433
vn -0.9530 0.1671 0.2528
vn -0.9848 0.0835 0.1523
vn -0.9346 0.1192 0.3351
vn -0.9814 0.1585 0.1083
vn -0.5068 0.7809 0.3651
vn -0.4841 0.7051 0.5182
vn -0.3654 0.8385 0.4043
vn -0.6190 0.6973 0.3615
vn -0.8315 0.5556 -0.0000
vn -0.2463 0.1668 0.9547
vn -0.3260 0.2001 0.9239
vn -0.5515 0.6177 0.5606
vn -0.8281 0.3493 0.4385
vn -0.7835 0.3153 0.5354
vn -0.7274 0.4709 0.4991
vn -0.8660 0.2500 0.4330
vn -0.4365 0.6169 0.6549
vn -0.4423 0.4484 0.7767
vn -0.3076 0.7507 0.5847
vn -0.9808 0.1951 -0.0000
vn -0.8813 0.1344 0.4530
vn -0.8301 0.4575 0.3187
vn -0.3760 0.3042 0.8753
vn -0.6616 0.6008 0.4486
vn -0.7443 0.2080 0.6346
vn -0.0873 -0.6863 0.7221
vn -0.1191 -0.7607 0.6381
vn -0.5389 -0.8312 0.1367
vn -0.4617 -0.8735 0.1540
vn -0.5153 -0.7975 0.3138
vn -0.5556 -0.8315 -0.0000
vn -0.5957 -0.7638 0.2485
vn -0.5664 -0.7261 0.3898
vn -0.6341 -0.7654 0.1096
vn -0.2249 -0.3252 0.9185
vn -0.3237 -0.3128 0.8930
vn -0.2125 -0.4371 0.8739
vn -0.1364 -0.2162 0.9668
vn -0.3015 -0.1069 0.9475
vn -0.9386 -0.0785 0.3360
vn -0.8914 -0.1498 0.4277
vn -0.9812 -0.0664 0.1810
vn -0.9266 -0.2311 0.2966
vn -0.3657 -0.1744 0.9142
vn -0.4682 -0.1026 0.8777
vn -0.4617 -0.3034 0.8335
vn -0.6585 -0.2438 0.7120
vn -0.7232 -0.2381 0.6483
vn -0.7220 -0.3601 0.5908
vn -0.6293 -0.1234 0.7673
vn -0.7392 -0.1047 0.6653
vn -0.7844 -0.0720 0.6160
vn -0.8064 -0.2022 0.5557
vn -0.0862 -0.9628 0.2561
vn -0.1377 -0.9766 0.1649
vn -0.2554 -0.7951 0.5501
vn -0.3237 -0.7918 0.5180
vn -0.2286 -0.8642 0.4483
vn -0.2125 -0.7097 0.6717
vn -0.3566 -0.6849 0.6354
vn -0.1108 -0.0728 0.9912
vn -0.0865 -0.4978 0.8629
vn -0.1423 -0.5767 0.8045
vn -0.1167 -0.3488 0.9299
vn -0.1204 -0.9079 0.4015
vn -0.2164 -0.9311 0.2936
vn -0.7636 -0.6421 0.0681
vn -0.7071 -0.7071 -0.0000
vn -0.8315 -0.5556 -0.0000
vn -0.6335 -0.7044 0.3202
vn -0.5472 -0.6526 0.5241
vn -0.6403 -0.6010 0.4783
vn -0.5862 -0.1313 0.7995
vn -0.5723 -0.2649 0.7761
vn -0.1436 -0.8433 0.5179
vn -0.9530 -0.2528 0.1671
vn -0.9848 -0.1523 0.0835
vn -0.9346 -0.3351 0.1192
vn -0.9814 -0.1083 0.1585
vn -0.5069 -0.3651 0.7809
vn -0.4841 -0.5182 0.7051
vn -0.3654 -0.4043 0.8385
vn -0.6190 -0.3615 0.6973
vn -0.2467 -0.9548 0.1660
vn -0.3260 -0.9240 0.2001
vn -0.3827 -0.9239 -0.0000
vn -0.5515 -0.5606 0.6177
vn -0.8281 -0.4385 0.3493
vn -0.7835 -0.5354 0.3153
vn -0.7274 -0.4991 0.4709
vn -0.8660 -0.4330 0.2500
vn -0.4365 -0.6549 0.6169
vn -0.4423 -0.7767 0.4484
vn -0.3076 -0.5847 0.7507
vn -0.1951 -0.9808 -0.0000
vn -0.8814 -0.4529 0.1344
vn -0.9239 -0.3827 -0.0000
vn -0.8301 -0.3187 0.4575
vn -0.3760 -0.8753 0.3042
vn -0.9808 -0.1951 -0.0000
vn -0.6616 -0.4486 0.6008
vn -0.7443 -0.6346 0.2080
vn -0.1952 0.9808 -0.0000
vn -0.0873 0.6863 -0.7221
vn -0.1191 0.7607 -0.6381
vn -0.5388 0.8313 -0.1367
vn -0.4617 0.8736 -0.1540
vn -0.5152 0.7975 -0.3138
vn -0.5957 0.7638 -0.2485
vn -0.5665 0.7261 -0.3898
vn -0.6341 0.7654 -0.1096
vn -0.2249 0.3252 -0.9185
vn -0.3237 0.3128 -0.8929
vn -0.2125 0.4371 -0.8739
vn -0.1364 0.2162 -0.9668
vn -0.3015 0.1069 -0.9475
vn -0.9386 0.0785 -0.3360
vn -0.8914 0.1498 -0.4277
vn -0.9239 -0.0000 -0.3827
vn -0.9812 0.0664 -0.1810
vn -0.9266 0.2310 -0.2966
vn -0.3657 0.1744 -0.9142
vn -0.4681 0.1026 -0.8777
vn -0.4617 0.3034 -0.8335
vn -0.3827 -0.0000 -0.9239
vn -0.6585 0.2438 -0.7120
vn -0.7232 0.2381 -0.6483
vn -0.7220 0.3601 -0.5908
vn -0.6293 0.1234 -0.7673
vn -0.7392 0.1047 -0.6653
vn -0.7844 0.0720 -0.6160
vn -0.8064 0.2022 -0.5557
vn -0.7071 -0.0000 -0.7071
vn -0.0862 0.9628 -0.2561
vn -0.1377 0.9767 -0.1649
vn -0.2553 0.7951 -0.5501
vn -0.3236 0.7918 -0.5180
vn -0.2286 0.8642 -0.4483
vn -0.2125 0.7097 -0.6717
vn -0.3567 0.6848 -0.6354
vn -0.1108 0.0728 -0.9912
vn -0.1951 -0.0000 -0.9808
vn -0.0865 0.4978 -0.8630
vn -0.1423 0.5767 -0.8045
vn -0.1167 0.3488 -0.9299
vn -0.1204 0.9079 -0.4015
vn -0.2164 0.9311 -0.2936
vn -0.7636 0.6421 -0.0681
vn -0.6335 0.7044 -0.3202
vn -0.5473 0.6526 -0.5241
vn -0.6403 0.6010 -0.4783
vn -0.5862 0.1313 -0.7995
vn -0.5723 0.2649 -0.7761
vn -0.5556 -0.0000 -0.8315
vn -0.1436 0.8433 -0.5179
vn -0.9530 0.2528 -0.1671
vn -0.9848 0.1523 -0.0835
vn -0.9346 0.3351 -0.1192
vn -0.9814 0.1083 -0.1585
vn -0.5069 0.3651 -0.7809
vn -0.4841 0.5182 -0.7051
vn -0.3654 0.4043 -0.8385
vn -0.6190 0.3615 -0.6973
vn -0.8315 -0.0000 -0.5556
vn -0.2463 0.9547 -0.1668
vn -0.3261 0.9239 -0.2001
vn -0.5515 0.5606 -0.6177
vn -0.8281 0.4385 -0.3494
vn -0.7836 0.5354 -0.3153
vn -0.7274 0.4991 -0.4709
vn -0.8660 0.4330 -0.2500
vn -0.4365 0.6549 -0.6169
vn -0.4423 0.7767 -0.4484
vn -0.3076 0.5847 -0.7507
vn -0.9808 -0.0000 -0.1951
vn -0.8814 0.4529 -0.1344
vn -0.8301 0.3187 -0.4575
vn -0.3760 0.8753 -0.3042
vn -0.6616 0.4486 -0.6008
vn -0.7443 0.6346 -0.2080
vn -0.0873 -0.7221 -0.6863
vn -0.1191 -0.6381 -0.7607
vn -0.5389 -0.1367 -0.8312
vn -0.4617 -0.1540 -0.8736
vn -0.5153 -0.3138 -0.7975
vn -0.5957 -0.2485 -0.7638
vn -0.5664 -0.3898 -0.7261
vn -0.6341 -0.1096 -0.7654
vn -0.2249 -0.9185 -0.3252
vn -0.3237 -0.8929 -0.3128
vn -0.2125 -0.8739 -0.4371
vn -0.1364 -0.9668 -0.2162
vn -0.3015 -0.9475 -0.1069
vn -0.9386 -0.3360 -0.0785
vn -0.8914 -0.4277 -0.1498
vn -0.9812 -0.1810 -0.0664
vn -0.9266 -0.2966 -0.2311
vn -0.3657 -0.9143 -0.1744
vn -0.4682 -0.8777 -0.1026
vn -0.4617 -0.8335 -0.3034
vn -0.6585 -0.7120 -0.2438
vn -0.7232 -0.6483 -0.2381
vn -0.7220 -0.5908 -0.3601
vn -0.6293 -0.7673 -0.1234
vn -0.7392 -0.6653 -0.1047
vn -0.7844 -0.6160 -0.0720
vn -0.8064 -0.5557 -0.2022
vn -0.0862 -0.2561 -0.9628
vn -0.1377 -0.1649 -0.9766
vn -0.2553 -0.5501 -0.7951
vn -0.3237 -0.5180 -0.7918
vn -0.2286 -0.4483 -0.8642
vn -0.2125 -0.6717 -0.7097
vn -0.3566 -0.6354 -0.6849
vn -0.1108 -0.9912 -0.0728
vn -0.0865 -0.8629 -0.4978
vn -0.1423 -0.8045 -0.5767
vn -0.1167 -0.9299 -0.3488
vn -0.1204 -0.4015 -0.9079
vn -0.2164 -0.2936 -0.9311
vn -0.7636 -0.0681 -0.6421
vn -0.6334 -0.3202 -0.7044
vn -0.5473 -0.5241 -0.6526
vn -0.6403 -0.4783 -0.6010
vn -0.5862 -0.7995 -0.1313
vn -0.5723 -0.7761 -0.2649
vn -0.1436 -0.5180 -0.8433
vn -0.9530 -0.1671 -0.2528
vn -0.9848 -0.0835 -0.1523
vn -0.9346 -0.1192 -0.3351
vn -0.9814 -0.1585 -0.1083
vn -0.5068 -0.7809 -0.3651
vn -0.4841 -0.7051 -0.5182
vn -0.3654 -0.8385 -0.4043
vn -0.6190 -0.6973 -0.3615
vn -0.2463 -0.1668 -0.9547
vn -0.3260 -0.2001 -0.9240
vn -0.5515 -0.6177 -0.5606
vn -0.8281 -0.3493 -0.4385
vn -0.7835 -0.3153 -0.5354
vn -0.7274 -0.4709 -0.4991
vn -0.8660 -0.2500 -0.4330
vn -0.4365 -0.6169 -0.6549
vn -0.4423 -0.4484 -0.7767
vn -0.3076 -0.7507 -0.5847
vn -0.8813 -0.1344 -0.4530
vn -0.8301 -0.4575 -0.3187
vn -0.3760 -0.3042 -0.8753
vn -0.6616 -0.6008 -0.4486
vn -0.7443 -0.2080 -0.6346
vt 0.150000 -1.600000
vt 0.150000 1.600000
vt 0.000000 -1.600000
vt 0.000000 1.600000
vt 1.600000 0.150000
vt -1.600000 0.150000
vt 1.600000 0.000000
vt -1.600000 0.000000
vt -0.150000 1.600000
vt -0.150000 -1.600000
vt -1.750000 -1.600000
vt -1.600000 -1.750000
vt 1.600000 -1.750000
vt -1.629264 -1.747118
vt -1.657402 -1.738582
vt -1.683336 -1.724720
vt -1.706066 -1.706066
vt -1.738582 -1.657402
vt -1.724720 -1.683336
vt -1.747118 -1.629264
vt -1.750000 1.600000
vt -1.600000 1.750000
vt -1.747118 1.629264
vt -1.724720 1.683336
vt -1.738582 1.657402
vt -1.706066 1.706066
vt -1.657402 1.738582
vt -1.683336 1.724720
vt -1.629264 1.747118
vt 1.600000 1.750000
vt 1.750000 1.600000
vt 1.657402 1.738582
vt 1.629264 1.747118
vt 1.683336 1.724720
vt 1.706066 1.706066
vt 1.738582 1.657402
vt 1.724720 1.683336
vt 1.747118 1.629264
vt 1.750000 -1.600000
vt 1.738582 -1.657402
vt 1.747118 -1.629264
vt 1.724720 -1.683336
vt 1.706066 -1.706066
vt 1.657402 -1.738582
vt 1.683336 -1.724720
vt 1.629264 -1.747118
vt 1.600000 2.000000
vt 2.000000 -1.600000
vt 2.000000 1.600000
vt 1.992314 1.678036
vt 1.969552 1.753073
vt 1.932588 1.822228
vt 1.882843 1.882843
vt 1.753073 1.969552
vt 1.822228 1.932588
vt 1.678036 1.992314
vt -1.600000 2.000000
vt -2.000000 1.600000
vt -1.678036 1.992314
vt -1.753073 1.969552
vt -1.822228 1.932588
vt -1.882843 1.882843
vt -1.969552 1.753073
vt -1.932588 1.822228
vt -1.992314 1.678036
vt -2.000000 -1.600000
vt -1.600000 -2.000000
vt -1.992314 -1.678036
vt -1.969552 -1.753073
vt -1.932588 -1.822228
vt -1.882843 -1.882843
vt -1.753073 -1.969552
vt -1.822228 -1.932588
vt -1.678036 -1.992314
vt 1.600000 -2.000000
vt 1.678036 -1.992314
vt 1.753073 -1.969552
vt 1.822228 -1.932588
vt 1.882843 -1.882843
vt 1.969552 -1.753073
vt 1.932588 -1.822228
vt 1.992314 -1.678036
vt -1.678036 0.000000
vt -1.678036 0.150000
vt -1.753073 0.000000
vt -1.753073 0.150000
vt -1.822228 0.000000
vt -1.822228 0.150000
vt -1.882843 0.000000
vt -1.882843 0.150000
vt 0.000000 -1.822228
vt 0.150000 -1.882843
vt 0.150000 -1.822228
vt 0.000000 -1.753073
vt 0.150000 -1.753073
vt 0.000000 -1.678036
vt 0.150000 -1.678036
vt 0.000000 -1.882843
vt -0.150000 -1.678036
vt -0.150000 -1.753073
vt -0.150000 -1.822228
vt -0.150000 -1.882843
vt 1.882843 0.150000
vt 1.822228 0.000000
vt 1.882843 0.000000
vt 1.822228 0.150000
vt 1.753073 0.000000
vt 1.678036 0.000000
vt 1.678036 0.150000
vt 1.753073 0.150000
vt -0.000000 1.822228
vt -0.000000 1.882843
vt -0.150000 1.882843
vt -0.000000 1.753073
vt -0.150000 1.822228
vt -0.150000 1.753073
vt -0.150000 1.678036
vt -0.000000 1.678036
vt 0.150000 1.678036
vt 0.150000 1.822228
vt 0.150000 1.753073
vt 0.150000 1.882843
vt -1.798773 -1.600000
vt -1.798773 1.600000
vt -1.845671 -1.600000
vt -1.845671 1.600000
vt -1.888893 -1.600000
vt -1.888893 1.600000
vt -1.926777 -1.600000
vt 0.326777 1.600000
vt 0.288893 -1.600000
vt 0.326777 -1.600000
vt 0.288893 1.600000
vt 0.198773 1.600000
vt 0.198773 -1.600000
vt 0.245671 1.600000
vt 0.245671 -1.600000
vt -1.926777 1.600000
vt -1.874917 0.171819
vt 0.171819 -1.889237
vt 0.179781 -1.855943
vt 0.284703 -1.658533
vt 0.265437 -1.664554
vt 0.278829 -1.733389
vt 0.298911 -1.708551
vt 0.291605 -1.768409
vt 0.308520 -1.648659
vt -1.731358 0.206233
vt -1.727791 0.230934
vt -1.776388 0.203123
vt -1.686802 0.184100
vt -1.643528 0.225369
vt -1.653743 -1.830070
vt -1.687042 -1.848477
vt -1.600000 -1.845671
vt -1.668232 -1.786062
vt -1.749935 -1.792484
vt -1.671724 0.241425
vt -1.643060 0.267047
vt -1.727147 0.265437
vt -1.600000 0.245671
vt -1.709545 -1.919907
vt -1.711224 -1.902875
vt -1.768071 -1.875799
vt -1.709545 0.314628
vt -1.654665 0.307320
vt -1.649496 0.334799
vt -1.649496 -1.914502
vt -1.635415 -1.902996
vt -1.701863 -1.879866
vt -1.600000 -1.926777
vt 0.171550 -1.702583
vt 0.184433 -1.666196
vt 0.213823 -1.822880
vt 0.230934 -1.811622
vt 0.207152 -1.781141
vt 0.203123 -1.871042
vt 0.239164 -1.860875
vt -1.629201 0.177708
vt -1.600000 0.198773
vt -1.799418 0.171618
vt -1.831553 0.185567
vt -1.739880 0.179179
vt 0.180115 -1.761020
vt 0.204110 -1.718500
vt 0.340904 -1.632819
vt -1.909684 -1.632819
vt 0.308364 -1.742121
vt 0.286814 -1.824933
vt 0.310077 -1.813005
vt -1.657142 0.296545
vt -1.714686 0.293081
vt -1.600000 0.288893
vt 0.185900 -1.807992
vt -1.886359 0.203123
vt -1.788314 -1.724511
vt -1.769570 -1.693029
vt -1.825093 -1.680078
vt -1.711715 -1.763450
vt -1.754778 0.276713
vt -1.818371 0.271014
vt -1.766210 0.241362
vt -1.759432 0.304742
vt -1.600000 -1.888893
vt 0.211577 -1.667498
vt 0.231507 -1.681790
vt -1.913680 -1.768409
vt -1.867606 -1.813005
vt -1.912659 -1.742121
vt -1.880106 -1.824933
vt -1.840941 -1.865513
vt -1.826941 -1.780804
vt -1.863092 -1.754935
vt -1.833895 -1.820668
vt -1.838157 -1.737500
vt 0.259120 -1.857071
vt 0.260572 -1.787109
vt -1.881178 0.239164
vt -1.838356 0.226908
vt -1.872921 0.259120
vt -1.600000 0.326777
vt -1.600000 -1.798773
vt -1.857038 -1.676274
vt -1.765416 -1.837461
vt -1.933595 -1.708551
vt -1.939851 -1.648659
vt 0.243989 -1.725305
vt -1.801903 -1.870391
vt -1.759432 -1.907478
vt -1.801903 0.315409
vt -1.840941 0.287883
vt 0.287883 -1.865513
vt -1.901185 -1.698723
vt 0.336083 -1.698723
vt 0.171819 1.874917
vt 1.889237 0.171819
vt 1.855943 0.179781
vt 1.658533 0.284703
vt 1.664554 0.265437
vt 1.733389 0.278829
vt 1.600000 0.288893
vt 1.708551 0.298911
vt 1.768409 0.291605
vt 1.648659 0.308520
vt 0.206233 1.731358
vt 0.230934 1.727791
vt 0.203123 1.776388
vt 0.184100 1.686802
vt 0.225369 1.643528
vt -1.830070 1.653743
vt -1.848477 1.687042
vt -1.786062 1.668232
vt -1.792484 1.749935
vt 0.241425 1.671724
vt 0.267047 1.643060
vt 0.265437 1.727147
vt -1.919907 1.709545
vt -1.902875 1.711224
vt -1.875799 1.768071
vt 0.314628 1.709545
vt 0.307320 1.654665
vt 0.334799 1.649496
vt -1.914502 1.649496
vt -1.902996 1.635415
vt -1.879866 1.701863
vt 1.702583 0.171550
vt 1.666196 0.184433
vt 1.822880 0.213823
vt 1.811622 0.230934
vt 1.781141 0.207152
vt 1.871042 0.203123
vt 1.860875 0.239164
vt 0.177708 1.629201
vt 0.171618 1.799418
vt 0.185567 1.831553
vt 0.179179 1.739880
vt 1.761020 0.180115
vt 1.718500 0.204110
vt 1.632819 0.340904
vt 1.600000 0.326777
vt -1.632819 1.909684
vt -1.600000 1.888893
vt -1.600000 1.926777
vt 1.742121 0.308364
vt 1.824933 0.286814
vt 1.813005 0.310077
vt 0.296545 1.657142
vt 0.293081 1.714686
vt 1.807992 0.185900
vt 0.203123 1.886359
vt -1.724511 1.788314
vt -1.693029 1.769570
vt -1.680078 1.825093
vt -1.763450 1.711715
vt 0.276713 1.754778
vt 0.271014 1.818371
vt 0.241362 1.766210
vt 0.304742 1.759432
vt 1.667498 0.211577
vt 1.681790 0.231507
vt 1.600000 0.245671
vt -1.768409 1.913680
vt -1.813005 1.867606
vt -1.742121 1.912659
vt -1.824933 1.880106
vt -1.865513 1.840941
vt -1.780804 1.826941
vt -1.754935 1.863092
vt -1.820668 1.833895
vt -1.737500 1.838157
vt 1.857071 0.259120
vt 1.787109 0.260572
vt 0.239164 1.881178
vt 0.226908 1.838356
vt 0.259120 1.872921
vt 1.600000 0.198773
vt -1.676274 1.857038
vt -1.600000 1.845671
vt -1.837461 1.765416
vt -1.708551 1.933595
vt -1.648659 1.939851
vt 1.725305 0.243989
vt -1.600000 1.798773
vt -1.870391 1.801903
vt -1.907478 1.759432
vt 0.315409 1.801903
vt 0.287883 1.840941
vt 1.865513 0.287883
vt -1.698723 1.901185
vt 1.698723 0.336083
vt 1.600000 -1.798773
vt 1.600000 -1.845671
vt 1.600000 -1.888893
vt 1.600000 -1.926777
vt 1.600000 1.888893
vt 1.600000 1.926777
vt 1.600000 1.798773
vt 1.600000 1.845671
vt -0.171819 -1.874917
vt -0.206233 -1.731358
vt -0.230934 -1.727791
vt -0.203123 -1.776388
vt -0.184100 -1.686802
vt -0.225369 -1.643528
vt 1.830070 -1.653743
vt 1.848477 -1.687042
vt 1.845671 -1.600000
vt 1.786062 -1.668232
vt 1.792484 -1.749935
vt -0.241425 -1.671724
vt -0.267047 -1.643060
vt -0.265437 -1.727147
vt -0.245671 -1.600000
vt 1.919907 -1.709545
vt 1.902875 -1.711224
vt 1.875799 -1.768071
vt -0.314628 -1.709545
vt -0.307320 -1.654665
vt -0.334799 -1.649496
vt 1.914502 -1.649496
vt 1.902996 -1.635415
vt 1.879866 -1.701863
vt 1.926777 -1.600000
vt -0.177708 -1.629201
vt -0.198773 -1.600000
vt -0.171618 -1.799418
vt -0.185567 -1.831553
vt -0.179179 -1.739880
vt 1.632819 -1.909684
vt -0.296545 -1.657142
vt -0.293081 -1.714686
vt -0.288893 -1.600000
vt -0.203123 -1.886359
vt 1.724511 -1.788314
vt 1.693029 -1.769570
vt 1.680078 -1.825093
vt 1.763450 -1.711715
vt -0.276713 -1.754778
vt -0.271014 -1.818371
vt -0.241362 -1.766210
vt -0.304742 -1.759432
vt 1.888893 -1.600000
vt 1.768409 -1.913680
vt 1.813005 -1.867606
vt 1.742121 -1.912659
vt 1.824933 -1.880106
vt 1.865513 -1.840941
vt 1.780804 -1.826941
vt 1.754935 -1.863092
vt 1.820668 -1.833895
vt 1.737500 -1.838157
vt -0.239164 -1.881178
vt -0.226908 -1.838356
vt -0.259120 -1.872921
vt -0.326777 -1.600000
vt 1.798773 -1.600000
vt 1.676274 -1.857038
vt 1.837461 -1.765416
vt 1.708551 -1.933595
vt 1.648659 -1.939851
vt 1.870391 -1.801903
vt 1.907478 -1.759432
vt -0.315409 -1.801903
vt -0.287883 -1.840941
vt 1.698723 -1.901185
vt -0.171819 1.889237
vt -0.179781 1.855943
vt -0.284703 1.658533
vt -0.265437 1.664554
vt -0.278829 1.733389
vt -0.288893 1.600000
vt -0.298911 1.708551
vt -0.291605 1.768409
vt -0.308520 1.648659
vt 1.653743 1.830070
vt 1.687042 1.848477
vt 1.668232 1.786062
vt 1.749935 1.792484
vt 1.709545 1.919907
vt 1.711224 1.902875
vt 1.768071 1.875799
vt 1.649496 1.914502
vt 1.635415 1.902996
vt 1.701863 1.879866
vt -0.171550 1.702583
vt -0.184433 1.666196
vt -0.213823 1.822880
vt -0.230934 1.811622
vt -0.207152 1.781141
vt -0.203123 1.871042
vt -0.239164 1.860875
vt -0.180115 1.761020
vt -0.204110 1.718500
vt -0.340904 1.632819
vt -0.326777 1.600000
vt 1.909684 1.632819
vt 1.888893 1.600000
vt 1.926777 1.600000
vt -0.308364 1.742121
vt -0.286814 1.824933
vt -0.310077 1.813005
vt -0.185900 1.807992
vt 1.788314 1.724511
vt 1.769570 1.693029
vt 1.825093 1.680078
vt 1.711715 1.763450
vt -0.211577 1.667498
vt -0.231507 1.681790
vt -0.245671 1.600000
vt 1.913680 1.768409
vt 1.867606 1.813005
vt 1.912659 1.742121
vt 1.880106 1.824933
vt 1.840941 1.865513
vt 1.826941 1.780804
vt 1.863092 1.754935
vt 1.833895 1.820668
vt 1.838157 1.737500
vt -0.259120 1.857071
vt -0.260572 1.787109
vt -0.198773 1.600000
vt 1.857038 1.676274
vt 1.845671 1.600000
vt 1.765416 1.837461
vt 1.933595 1.708551
vt 1.939851 1.648659
vt -0.243989 1.725305
vt 1.798773 1.600000
vt 1.801903 1.870391
vt 1.759432 1.907478
vt -0.287883 1.865513
vt 1.901185 1.698723
vt -0.336083 1.698723
s 1
usemtl Diffuse_51_51_51_100.008
f 1/1/1 2/2/1 3/3/1
f 2/2/1 4/4/1 3/3/1
f 5/5/2 6/6/2 7/7/2
f 6/6/2 8/8/2 7/7/2
f 9/9/3 10/10/3 11/4/3
f 10/10/3 12/3/3 11/4/3
f 13/5/4 14/6/4 15/7/4
f 14/6/4 16/8/4 15/7/4
f 17/11/5 18/12/6 19/13/5
f 17/11/5 20/14/6 18/12/6
f 17/11/5 21/15/7 20/14/6
f 17/11/5 22/16/5 21/15/7
f 17/11/5 23/17/6 22/16/5
f 24/18/5 25/19/6 17/11/5
f 17/11/5 25/19/6 23/17/6
f 26/20/5 24/18/5 17/11/5
f 17/11/5 19/13/5 27/21/5
f 19/13/5 28/22/5 27/21/5
f 27/21/5 28/22/5 29/23/5
f 28/22/5 30/24/8 31/25/5
f 28/22/5 32/26/7 30/24/8
f 33/27/9 34/28/10 28/22/5
f 28/22/5 34/28/10 32/26/7
f 35/29/6 33/27/9 28/22/5
f 28/22/5 19/13/5 36/30/5
f 19/13/5 37/31/5 36/30/5
f 37/31/5 38/32/6 39/33/7
f 37/31/5 40/34/7 38/32/6
f 37/31/5 41/35/5 40/34/7
f 42/36/7 43/37/7 37/31/5
f 37/31/5 43/37/7 41/35/5
f 44/38/5 42/36/7 37/31/5
f 37/31/5 39/33/7 36/30/5
f 37/31/5 19/13/5 45/39/5
f 19/13/5 46/40/7 47/41/6
f 19/13/5 48/42/5 46/40/7
f 19/13/5 49/43/5 48/42/5
f 50/44/5 51/45/7 19/13/5
f 19/13/5 51/45/7 49/43/5
f 52/46/6 50/44/5 19/13/5
f 29/23/5 28/22/5 31/25/5
f 47/41/6 45/39/5 19/13/5
f 53/47/11 54/48/11 55/49/11
f 56/47/12 57/49/12 58/50/12
f 59/47/11 58/50/11 60/51/11
f 61/47/13 60/51/13 62/52/13
f 63/47/14 62/52/14 64/53/14
f 65/54/11 66/47/11 67/55/11
f 68/47/15 64/53/15 67/55/15
f 69/56/11 70/47/11 65/54/11
f 71/47/11 72/57/11 73/48/11
f 74/57/11 75/58/11 76/48/11
f 77/57/13 78/59/13 79/58/13
f 78/59/11 80/60/11 81/58/11
f 82/58/11 83/61/11 84/62/11
f 85/63/14 86/58/14 87/64/14
f 88/58/12 84/62/12 87/64/12
f 89/65/11 90/58/11 85/63/11
f 91/58/11 92/66/11 93/48/11
f 94/66/11 95/67/11 96/48/11
f 97/67/14 98/68/14 99/69/14
f 100/67/15 99/69/15 101/70/15
f 102/67/12 101/70/12 103/71/12
f 104/72/11 105/67/11 106/73/11
f 107/67/14 103/71/14 106/73/14
f 108/74/11 109/67/11 104/72/11
f 110/67/12 111/66/12 98/68/12
f 112/75/11 113/48/11 114/67/11
f 115/48/14 116/76/14 117/77/14
f 118/48/12 117/77/12 119/78/12
f 120/48/12 119/78/12 121/79/12
f 122/80/11 123/48/11 124/81/11
f 125/48/13 121/79/13 124/81/13
f 126/82/11 127/48/11 122/80/11
f 128/48/12 129/75/12 116/76/12
f 130/58/12 80/60/12 83/61/12
f 131/83/16 132/84/16 133/85/17
f 134/85/18 135/86/18 136/87/19
f 137/87/19 135/86/18 138/88/20
f 139/89/21 138/88/20 140/90/21
f 141/91/22 140/92/21 142/93/23
f 143/94/24 142/93/23 144/95/24
f 145/96/25 144/95/24 146/97/25
f 1/1/1 3/3/1 146/97/25
f 146/97/25 3/3/1 147/96/26
f 144/95/27 148/96/25 149/94/27
f 142/93/28 150/94/24 151/91/28
f 140/92/21 152/91/22 153/98/21
f 138/88/29 154/89/21 155/87/29
f 132/84/16 156/83/30 8/8/2
f 132/84/16 135/86/18 157/85/17
f 132/84/16 8/8/2 6/6/2
f 158/96/31 12/3/3 159/99/32
f 160/94/33 161/96/32 159/99/32
f 162/91/34 163/94/35 164/100/35
f 165/101/36 166/91/34 164/100/35
f 167/102/37 168/98/37 165/101/36
f 167/103/37 169/104/38 170/105/37
f 171/106/39 172/107/40 173/104/39
f 7/7/2 174/108/41 175/109/42
f 175/109/42 5/5/2 7/7/2
f 176/110/40 175/109/42 177/108/42
f 178/107/43 176/110/43 179/108/42
f 180/107/40 171/106/44 176/110/40
f 181/104/38 167/103/37 171/106/44
f 182/91/45 165/101/46 183/98/37
f 159/99/32 12/3/3 10/10/3
f 184/94/33 159/99/32 164/100/35
f 185/83/47 186/84/47 187/85/48
f 188/85/49 189/86/49 190/87/50
f 191/87/50 189/86/49 192/88/51
f 193/89/52 192/88/51 194/90/52
f 195/111/53 196/112/52 194/113/52
f 197/114/54 198/111/55 199/115/55
f 200/116/54 201/114/54 199/115/56
f 202/117/57 9/9/3 11/4/3
f 203/118/58 202/117/57 11/4/3
f 204/118/57 200/116/54 202/117/57
f 205/118/57 206/114/59 200/116/59
f 16/8/4 186/84/47 207/83/60
f 199/115/56 208/111/53 194/113/52
f 186/84/47 16/8/4 14/6/4
f 209/87/61 192/88/61 210/89/52
f 211/85/48 186/84/47 189/86/49
f 212/118/62 4/4/1 213/119/63
f 214/114/64 215/118/63 213/119/63
f 216/120/65 217/111/66 218/121/67
f 219/122/68 220/112/68 216/120/65
f 221/106/69 222/104/70 219/103/68
f 223/110/71 224/107/71 221/106/69
f 225/108/72 223/110/71 226/109/72
f 15/7/4 226/109/72 13/5/4
f 15/7/4 227/108/73 226/109/72
f 228/108/72 229/107/74 223/110/74
f 230/107/71 231/104/75 221/106/75
f 232/104/70 233/105/68 219/103/68
f 213/119/63 4/4/1 2/2/1
f 213/119/63 218/121/67 234/114/64
f 218/121/67 235/111/66 236/114/67
f 216/120/76 237/112/68 238/111/76
f 17/11/5 27/21/5 239/123/77
f 239/123/77 27/21/5 240/124/77
f 241/125/78 239/123/77 240/124/77
f 242/126/78 241/125/78 240/124/77
f 242/126/78 243/127/79 241/125/78
f 244/128/79 245/129/80 243/127/79
f 246/130/80 247/131/81 245/132/80
f 246/130/80 248/133/81 247/131/81
f 1/1/1 249/134/82 2/2/1
f 1/1/1 250/135/83 249/134/82
f 249/134/82 250/135/83 251/136/84
f 251/136/84 250/135/83 252/137/84
f 248/133/81 251/136/84 252/137/84
f 247/131/81 248/133/81 252/137/84
f 246/138/80 245/129/80 244/128/79
f 243/127/79 242/126/78 244/128/79
f 253/139/85 140/90/21 138/88/20
f 253/140/85 254/141/86 140/92/21
f 255/142/87 256/143/88 257/144/89
f 255/142/87 247/131/81 256/143/88
f 258/145/90 257/144/89 259/146/91
f 255/142/87 260/147/92 247/131/81
f 261/148/93 262/149/94 263/150/95
f 261/148/93 264/151/96 265/152/97
f 266/153/98 267/154/99 268/155/100
f 266/153/98 269/156/101 270/157/102
f 271/158/103 272/159/104 273/160/105
f 271/158/103 265/152/97 274/161/106
f 275/162/107 276/163/108 277/164/109
f 275/165/107 278/166/110 279/167/111
f 279/168/111 280/169/112 281/170/113
f 279/168/111 282/171/114 280/169/112
f 283/172/115 146/97/25 144/95/24
f 283/172/115 284/173/116 146/97/25
f 285/174/117 286/175/118 287/176/119
f 285/174/117 288/177/120 289/178/121
f 290/179/122 291/180/123 264/151/96
f 290/179/122 6/6/2 291/180/123
f 292/181/124 138/88/20 135/86/18
f 292/181/124 293/182/125 253/139/85
f 294/183/126 135/86/18 132/84/16
f 292/181/124 263/150/95 293/182/125
f 295/184/127 144/95/24 142/93/23
f 283/172/115 296/185/128 284/173/116
f 297/186/129 245/132/80 260/147/92
f 297/187/129 243/127/79 245/129/80
f 259/146/91 298/188/130 258/145/90
f 259/146/91 299/189/131 300/190/132
f 301/191/133 278/166/110 302/192/134
f 301/191/133 303/193/135 278/166/110
f 254/141/86 288/177/120 304/194/136
f 288/195/120 253/139/85 293/182/125
f 305/196/137 306/197/138 307/198/139
f 305/196/137 270/157/102 308/199/140
f 309/200/141 273/160/105 302/192/134
f 309/200/141 310/201/142 311/202/143
f 302/192/134 273/160/105 272/159/104
f 309/200/141 312/203/144 310/201/142
f 280/169/112 313/204/145 281/170/113
f 280/169/112 282/171/114 313/204/145
f 285/174/117 304/194/136 288/177/120
f 287/176/119 296/185/128 295/184/127
f 314/205/146 315/206/147 252/137/84
f 314/205/146 296/185/128 315/206/147
f 259/207/91 300/208/132 298/209/130
f 299/210/131 316/211/148 300/208/132
f 308/199/140 270/157/102 269/156/101
f 308/199/140 23/17/6 306/197/138
f 317/212/149 318/213/150 319/214/151
f 317/212/149 320/215/152 318/213/150
f 289/178/121 321/216/153 322/217/154
f 289/218/121 323/219/155 321/220/153
f 295/184/127 283/172/115 144/95/24
f 284/173/116 250/135/83 1/1/1
f 276/163/108 281/170/113 277/164/109
f 279/167/111 278/166/110 282/221/114
f 308/199/140 21/15/7 22/16/5
f 269/156/101 324/222/156 20/14/6
f 325/223/157 307/198/139 241/125/78
f 325/223/157 320/215/152 307/198/139
f 311/202/143 273/160/105 309/200/141
f 311/202/143 262/149/94 273/160/105
f 318/213/150 320/215/152 325/223/157
f 317/212/149 319/214/151 326/224/158
f 258/225/90 298/209/130 260/226/92
f 259/146/91 322/217/154 299/189/131
f 315/206/147 296/185/128 327/227/159
f 314/205/146 252/137/84 250/135/83
f 307/198/139 306/197/138 239/123/77
f 305/196/137 320/215/152 270/157/102
f 328/228/160 277/164/109 319/214/151
f 328/228/160 312/229/144 277/164/109
f 272/159/104 274/161/106 303/193/135
f 271/158/103 273/160/105 262/149/94
f 267/154/99 281/170/113 313/204/145
f 267/154/99 270/157/102 326/224/158
f 327/227/159 296/185/128 287/176/119
f 315/206/147 256/143/88 252/137/84
f 294/183/126 292/181/124 135/86/18
f 253/140/85 288/177/120 254/141/86
f 275/165/107 312/203/144 302/192/134
f 328/228/160 319/214/151 300/208/132
f 300/208/132 319/214/151 318/213/150
f 328/230/160 316/231/148 312/203/144
f 271/158/103 274/161/106 272/159/104
f 265/152/97 291/180/123 274/161/106
f 258/145/90 260/147/92 255/142/87
f 260/147/92 245/132/80 247/131/81
f 317/212/149 270/157/102 320/215/152
f 326/224/158 281/170/113 267/154/99
f 254/141/86 142/93/23 140/92/21
f 304/194/136 287/176/119 295/184/127
f 292/181/124 253/139/85 138/88/20
f 287/176/119 286/175/118 327/227/159
f 310/201/142 316/231/148 321/220/153
f 312/203/144 309/200/141 302/192/134
f 321/216/153 316/232/148 299/189/131
f 310/201/142 323/219/155 311/202/143
f 290/179/122 132/84/16 6/6/2
f 264/151/96 261/148/93 294/183/126
f 264/151/96 294/183/126 132/84/16
f 293/182/125 323/219/155 288/195/120
f 278/166/110 303/193/135 282/221/114
f 278/166/110 275/165/107 302/192/134
f 305/196/137 307/198/139 320/215/152
f 306/197/138 24/18/5 26/20/5
f 318/213/150 298/209/130 300/208/132
f 329/233/161 297/187/129 260/226/92
f 303/193/135 301/191/133 272/159/104
f 312/203/144 316/231/148 310/201/142
f 327/227/159 256/143/88 315/206/147
f 256/143/88 247/131/81 252/137/84
f 286/175/118 322/217/154 327/227/159
f 286/175/118 285/174/117 289/178/121
f 308/199/140 269/156/101 21/15/7
f 324/222/156 269/156/101 266/153/98
f 304/194/136 295/184/127 142/93/23
f 296/185/128 314/205/146 284/173/116
f 299/189/131 322/217/154 321/216/153
f 298/188/130 329/234/161 260/147/92
f 263/150/95 311/202/143 323/219/155
f 262/149/94 261/148/93 265/152/97
f 257/144/89 322/217/154 259/146/91
f 326/224/158 277/164/109 281/170/113
f 294/183/126 263/150/95 292/181/124
f 287/176/119 304/194/136 285/174/117
f 329/233/161 318/213/150 325/223/157
f 319/214/151 277/164/109 326/224/158
f 267/154/99 313/204/145 268/155/100
f 281/170/113 276/163/108 279/168/111
f 301/191/133 302/192/134 272/159/104
f 323/219/155 310/201/142 321/220/153
f 329/233/161 325/223/157 297/187/129
f 297/187/129 325/223/157 243/127/79
f 284/173/116 314/205/146 250/135/83
f 327/227/159 257/144/89 256/143/88
f 26/20/5 239/123/77 306/197/138
f 307/198/139 239/123/77 241/125/78
f 243/127/79 325/223/157 241/125/78
f 306/197/138 25/19/6 24/18/5
f 306/197/138 305/196/137 308/199/140
f 25/19/6 306/197/138 23/17/6
f 20/14/6 324/222/156 18/12/6
f 26/20/5 17/11/5 239/123/77
f 266/153/98 270/157/102 267/154/99
f 21/15/7 269/156/101 20/14/6
f 308/199/140 22/16/5 23/17/6
f 326/224/158 270/157/102 317/212/149
f 316/211/148 328/228/160 300/208/132
f 286/175/118 289/178/121 322/217/154
f 312/229/144 275/162/107 277/164/109
f 279/168/111 276/163/108 275/162/107
f 290/179/122 264/151/96 132/84/16
f 294/183/126 261/148/93 263/150/95
f 291/180/123 265/152/97 264/151/96
f 289/218/121 288/195/120 323/219/155
f 254/141/86 304/194/136 142/93/23
f 146/97/25 284/173/116 1/1/1
f 295/184/127 296/185/128 283/172/115
f 327/227/159 322/217/154 257/144/89
f 271/158/103 262/149/94 265/152/97
f 323/219/155 293/182/125 263/150/95
f 263/150/95 262/149/94 311/202/143
f 257/144/89 258/145/90 255/142/87
f 268/155/100 324/222/156 266/153/98
f 318/213/150 329/233/161 298/209/130
f 330/235/162 219/122/68 216/120/65
f 330/236/162 331/237/163 219/103/68
f 332/238/164 333/239/165 334/240/166
f 332/238/164 335/241/167 333/239/165
f 336/242/168 334/240/166 337/243/169
f 332/238/164 338/244/170 335/241/167
f 339/245/171 340/246/172 341/247/173
f 339/245/171 342/248/174 343/249/175
f 344/250/176 345/251/177 242/126/78
f 344/250/176 346/252/178 347/253/179
f 348/254/180 349/255/181 350/256/182
f 348/254/180 343/249/175 251/136/84
f 351/257/183 352/258/184 353/259/185
f 351/260/183 354/261/186 355/262/187
f 355/263/187 356/264/188 357/265/189
f 355/263/187 246/138/80 356/264/188
f 358/266/190 226/109/72 223/110/71
f 358/266/190 359/267/191 226/109/72
f 360/268/192 361/269/193 362/270/194
f 360/268/192 363/271/195 364/272/196
f 365/273/197 249/134/82 342/248/174
f 365/273/197 2/2/1 249/134/82
f 366/274/198 216/120/65 218/121/67
f 366/274/198 367/275/199 330/235/162
f 368/276/200 218/121/67 213/119/63
f 366/274/198 341/247/173 367/275/199
f 369/277/201 223/110/71 221/106/69
f 358/266/190 370/278/202 359/267/191
f 371/279/203 372/280/204 338/244/170
f 371/281/203 373/282/205 372/283/204
f 337/243/169 374/284/206 336/242/168
f 337/243/169 375/285/207 376/286/208
f 377/287/209 354/261/186 378/288/210
f 377/287/209 248/133/81 354/261/186
f 331/237/163 363/271/195 379/289/211
f 363/290/195 330/235/162 367/275/199
f 380/291/212 381/292/213 382/293/214
f 380/291/212 347/253/179 383/294/215
f 384/295/216 350/256/182 378/288/210
f 384/295/216 385/296/217 386/297/218
f 378/288/210 350/256/182 349/255/181
f 384/295/216 387/298/219 385/296/217
f 356/264/188 244/128/79 357/265/189
f 356/264/188 246/138/80 244/128/79
f 360/268/192 379/289/211 363/271/195
f 362/270/194 370/278/202 369/277/201
f 388/299/220 389/300/221 390/301/222
f 388/299/220 370/278/202 389/300/221
f 337/302/169 376/303/208 374/304/206
f 375/305/207 391/306/223 376/303/208
f 383/294/215 347/253/179 346/252/178
f 383/294/215 32/26/7 381/292/213
f 392/307/224 393/308/225 394/309/226
f 392/307/224 395/310/227 393/308/225
f 364/272/196 396/311/228 397/312/229
f 364/313/196 398/314/230 396/315/228
f 369/277/201 358/266/190 223/110/71
f 359/267/191 399/316/231 13/5/4
f 352/258/184 357/265/189 353/259/185
f 355/262/187 354/261/186 246/130/80
f 383/294/215 31/25/5 30/24/8
f 346/252/178 240/124/77 29/23/5
f 400/317/232 382/293/214 401/318/233
f 400/317/232 395/310/227 382/293/214
f 386/297/218 350/256/182 384/295/216
f 386/297/218 340/246/172 350/256/182
f 393/308/225 395/310/227 400/317/232
f 392/307/224 394/309/226 402/319/234
f 336/320/168 374/304/206 338/321/170
f 337/243/169 397/312/229 375/285/207
f 389/300/221 370/278/202 403/322/235
f 388/299/220 390/301/222 399/316/231
f 382/293/214 381/292/213 404/323/236
f 380/291/212 395/310/227 347/253/179
f 405/324/237 353/259/185 394/309/226
f 405/324/237 387/325/219 353/259/185
f 349/255/181 251/136/84 248/133/81
f 348/254/180 350/256/182 340/246/172
f 345/251/177 357/265/189 244/128/79
f 345/251/177 347/253/179 402/319/234
f 403/322/235 370/278/202 362/270/194
f 389/300/221 333/239/165 390/301/222
f 368/276/200 366/274/198 218/121/67
f 330/236/162 363/271/195 331/237/163
f 351/260/183 387/298/219 378/288/210
f 405/324/237 394/309/226 376/303/208
f 376/303/208 394/309/226 393/308/225
f 405/326/237 391/327/223 387/298/219
f 348/254/180 251/136/84 349/255/181
f 343/249/175 249/134/82 251/136/84
f 336/242/168 338/244/170 332/238/164
f 338/244/170 372/280/204 335/241/167
f 392/307/224 347/253/179 395/310/227
f 402/319/234 357/265/189 345/251/177
f 331/237/163 221/106/69 219/103/68
f 379/289/211 362/270/194 369/277/201
f 366/274/198 330/235/162 216/120/65
f 362/270/194 361/269/193 403/322/235
f 385/296/217 391/327/223 396/315/228
f 387/298/219 384/295/216 378/288/210
f 396/311/228 391/328/223 375/285/207
f 385/296/217 398/314/230 386/297/218
f 365/273/197 213/119/63 2/2/1
f 342/248/174 339/245/171 368/276/200
f 342/248/174 368/276/200 213/119/63
f 367/275/199 398/314/230 363/290/195
f 354/261/186 248/133/81 246/130/80
f 354/261/186 351/260/183 378/288/210
f 380/291/212 382/293/214 395/310/227
f 381/292/213 33/27/9 35/29/6
f 393/308/225 374/304/206 376/303/208
f 406/329/238 371/281/203 338/321/170
f 248/133/81 377/287/209 349/255/181
f 387/298/219 391/327/223 385/296/217
f 403/322/235 333/239/165 389/300/221
f 333/239/165 335/241/167 390/301/222
f 361/269/193 397/312/229 403/322/235
f 361/269/193 360/268/192 364/272/196
f 383/294/215 346/252/178 31/25/5
f 240/124/77 346/252/178 344/250/176
f 379/289/211 369/277/201 221/106/69
f 370/278/202 388/299/220 359/267/191
f 375/285/207 397/312/229 396/311/228
f 374/284/206 406/330/238 338/244/170
f 341/247/173 386/297/218 398/314/230
f 340/246/172 339/245/171 343/249/175
f 334/240/166 397/312/229 337/243/169
f 402/319/234 353/259/185 357/265/189
f 368/276/200 341/247/173 366/274/198
f 362/270/194 379/289/211 360/268/192
f 406/329/238 393/308/225 400/317/232
f 394/309/226 353/259/185 402/319/234
f 345/251/177 244/128/79 242/126/78
f 357/265/189 352/258/184 355/263/187
f 377/287/209 378/288/210 349/255/181
f 398/314/230 385/296/217 396/315/228
f 406/329/238 400/317/232 371/281/203
f 371/281/203 400/317/232 373/282/205
f 359/267/191 388/299/220 399/316/231
f 403/322/235 334/240/166 333/239/165
f 341/247/173 368/276/200 339/245/171
f 386/297/218 341/247/173 340/246/172
f 348/254/180 340/246/172 343/249/175
f 342/248/174 249/134/82 343/249/175
f 341/247/173 398/314/230 367/275/199
f 398/314/230 364/313/196 363/290/195
f 226/109/72 359/267/191 13/5/4
f 342/248/174 213/119/63 365/273/197
f 403/322/235 397/312/229 334/240/166
f 358/266/190 369/277/201 370/278/202
f 331/237/163 379/289/211 221/106/69
f 355/263/187 352/258/184 351/257/183
f 332/238/164 334/240/166 336/242/168
f 406/329/238 374/304/206 393/308/225
f 240/124/77 344/250/176 242/126/78
f 402/319/234 347/253/179 392/307/224
f 404/323/236 35/29/6 28/22/5
f 404/323/236 381/292/213 35/29/6
f 34/28/10 33/27/9 381/292/213
f 381/292/213 32/26/7 34/28/10
f 383/294/215 30/24/8 32/26/7
f 29/23/5 240/124/77 27/21/5
f 31/25/5 346/252/178 29/23/5
f 344/250/176 347/253/179 345/251/177
f 380/291/212 383/294/215 381/292/213
f 401/318/233 373/282/205 400/317/232
f 404/323/236 401/318/233 382/293/214
f 405/324/237 376/303/208 391/306/223
f 353/259/185 387/325/219 351/257/183
f 397/312/229 361/269/193 364/272/196
f 407/331/156 19/13/5 18/12/6
f 324/222/156 407/331/156 18/12/6
f 324/222/156 408/332/100 407/331/156
f 324/222/156 268/155/100 408/332/100
f 408/332/100 268/155/100 409/333/145
f 409/333/145 268/155/100 313/204/145
f 410/334/114 409/333/145 313/204/145
f 5/5/2 291/180/123 6/6/2
f 291/180/123 5/5/2 411/316/239
f 274/161/106 291/180/123 411/316/239
f 412/301/106 274/161/106 411/316/239
f 412/301/106 303/193/135 274/161/106
f 412/301/106 413/241/135 303/193/135
f 303/193/135 413/241/135 282/221/114
f 282/221/114 413/241/135 410/280/114
f 313/204/145 282/171/114 410/334/114
f 14/6/4 13/5/4 414/180/231
f 414/180/231 13/5/4 399/316/231
f 415/161/222 414/180/231 399/316/231
f 390/301/222 415/161/222 399/316/231
f 390/301/222 416/193/167 415/161/222
f 335/241/167 417/221/204 416/193/167
f 372/283/204 418/335/205 417/336/204
f 372/283/204 373/282/205 418/335/205
f 404/323/236 28/22/5 36/30/5
f 419/337/236 404/323/236 36/30/5
f 419/337/236 401/318/233 404/323/236
f 419/337/236 420/338/233 401/318/233
f 401/318/233 420/338/233 373/282/205
f 373/282/205 420/338/233 418/335/205
f 416/193/167 390/301/222 335/241/167
f 417/221/204 335/241/167 372/280/204
f 421/339/240 167/102/37 165/101/36
f 421/236/240 422/237/241 167/103/37
f 423/238/242 424/239/243 425/240/244
f 423/238/242 413/241/135 424/239/243
f 426/242/245 425/240/244 427/243/246
f 423/238/242 428/244/247 413/241/135
f 429/340/248 430/341/249 431/342/250
f 429/340/248 432/343/251 433/344/252
f 434/345/253 435/346/254 436/347/255
f 434/345/253 437/348/256 438/349/257
f 439/350/258 440/351/259 441/352/260
f 439/350/258 433/344/252 442/353/261
f 443/354/262 444/355/263 445/356/264
f 443/357/262 446/358/265 447/359/266
f 447/360/266 448/361/267 449/362/268
f 447/360/266 450/363/269 448/361/267
f 451/266/270 175/109/42 176/110/40
f 451/266/270 452/267/271 175/109/42
f 453/268/272 454/269/273 455/270/274
f 453/268/272 456/271/275 457/272/276
f 458/364/277 459/365/278 432/343/251
f 458/364/277 10/10/3 459/365/278
f 460/366/279 165/101/36 164/100/35
f 460/366/279 461/367/280 421/339/240
f 462/368/281 164/100/35 159/99/32
f 460/366/279 431/342/250 461/367/280
f 463/277/282 176/110/40 171/106/44
f 451/266/270 464/278/283 452/267/271
f 465/279/284 410/280/114 428/244/247
f 465/369/284 409/333/145 410/334/114
f 427/243/246 466/284/285 426/242/245
f 427/243/246 467/285/286 468/286/287
f 469/370/288 446/358/265 470/371/289
f 469/370/288 471/372/290 446/358/265
f 422/237/241 456/271/275 472/289/291
f 456/373/275 421/339/240 461/367/280
f 473/374/292 474/375/293 475/376/294
f 473/374/292 438/349/257 476/377/295
f 477/378/296 441/352/260 470/371/289
f 477/378/296 478/379/297 479/380/298
f 470/371/289 441/352/260 440/351/259
f 477/378/296 480/381/299 478/379/297
f 448/361/267 481/382/300 449/362/268
f 448/361/267 450/363/269 481/382/300
f 453/268/272 472/289/291 456/271/275
f 455/270/274 464/278/283 463/277/282
f 482/299/301 483/300/302 412/301/106
f 482/299/301 464/278/283 483/300/302
f 427/383/246 468/384/287 466/385/285
f 467/386/286 484/387/303 468/384/287
f 476/377/295 438/349/257 437/348/256
f 476/377/295 49/43/5 474/375/293
f 485/388/304 486/389/305 487/390/306
f 485/388/304 488/391/307 486/389/305
f 457/272/276 489/311/308 490/312/309
f 457/392/276 491/393/310 489/394/308
f 463/277/282 451/266/270 176/110/40
f 452/267/271 411/316/239 5/5/2
f 444/355/263 449/362/268 445/356/264
f 447/359/266 446/358/265 450/395/269
f 476/377/295 46/40/7 48/42/5
f 437/348/256 492/396/311 47/41/6
f 493/397/312 475/376/294 408/332/100
f 493/397/312 488/391/307 475/376/294
f 479/380/298 441/352/260 477/378/296
f 479/380/298 430/341/249 441/352/260
f 486/389/305 488/391/307 493/397/312
f 485/388/304 487/390/306 494/398/313
f 426/399/245 466/385/285 428/400/247
f 427/243/246 490/312/309 467/285/286
f 483/300/302 464/278/283 495/322/314
f 482/299/301 412/301/106 411/316/239
f 475/376/294 474/375/293 407/331/156
f 473/374/292 488/391/307 438/349/257
f 496/401/315 445/356/264 487/390/306
f 496/401/315 480/402/299 445/356/264
f 440/351/259 442/353/261 471/372/290
f 439/350/258 441/352/260 430/341/249
f 435/346/254 449/362/268 481/382/300
f 435/346/254 438/349/257 494/398/313
f 495/322/314 464/278/283 455/270/274
f 483/300/302 424/239/243 412/301/106
f 462/368/281 460/366/279 164/100/35
f 421/236/240 456/271/275 422/237/241
f 443/357/262 480/381/299 470/371/289
f 496/401/315 487/390/306 468/384/287
f 468/384/287 487/390/306 486/389/305
f 496/403/315 484/404/303 480/381/299
f 439/350/258 442/353/261 440/351/259
f 433/344/252 459/365/278 442/353/261
f 426/242/245 428/244/247 423/238/242
f 428/244/247 410/280/114 413/241/135
f 485/388/304 438/349/257 488/391/307
f 494/398/313 449/362/268 435/346/254
f 422/237/241 171/106/44 167/103/37
f 472/289/291 455/270/274 463/277/282
f 460/366/279 421/339/240 165/101/36
f 455/270/274 454/269/273 495/322/314
f 478/379/297 484/404/303 489/394/308
f 480/381/299 477/378/296 470/371/289
f 489/311/308 484/328/303 467/285/286
f 478/379/297 491/393/310 479/380/298
f 458/364/277 159/99/32 10/10/3
f 432/343/251 429/340/248 462/368/281
f 432/343/251 462/368/281 159/99/32
f 461/367/280 491/393/310 456/373/275
f 446/358/265 471/372/290 450/395/269
f 446/358/265 443/357/262 470/371/289
f 473/374/292 475/376/294 488/391/307
f 474/375/293 50/44/5 52/46/6
f 486/389/305 466/385/285 468/384/287
f 497/405/316 465/369/284 428/400/247
f 471/372/290 469/370/288 440/351/259
f 480/381/299 484/404/303 478/379/297
f 495/322/314 424/239/243 483/300/302
f 424/239/243 413/241/135 412/301/106
f 454/269/273 490/312/309 495/322/314
f 454/269/273 453/268/272 457/272/276
f 476/377/295 437/348/256 46/40/7
f 492/396/311 437/348/256 434/345/253
f 472/289/291 463/277/282 171/106/44
f 464/278/283 482/299/301 452/267/271
f 467/285/286 490/312/309 489/311/308
f 466/284/285 497/330/316 428/244/247
f 431/342/250 479/380/298 491/393/310
f 430/341/249 429/340/248 433/344/252
f 425/240/244 490/312/309 427/243/246
f 494/398/313 445/356/264 449/362/268
f 462/368/281 431/342/250 460/366/279
f 455/270/274 472/289/291 453/268/272
f 497/405/316 486/389/305 493/397/312
f 487/390/306 445/356/264 494/398/313
f 435/346/254 481/382/300 436/347/255
f 449/362/268 444/355/263 447/360/266
f 469/370/288 470/371/289 440/351/259
f 491/393/310 478/379/297 489/394/308
f 497/405/316 493/397/312 465/369/284
f 465/369/284 493/397/312 409/333/145
f 452/267/271 482/299/301 411/316/239
f 495/322/314 425/240/244 424/239/243
f 52/46/6 19/13/5 407/331/156
f 474/375/293 52/46/6 407/331/156
f 408/332/100 475/376/294 407/331/156
f 408/332/100 409/333/145 493/397/312
f 50/44/5 474/375/293 51/45/7
f 476/377/295 474/375/293 473/374/292
f 49/43/5 51/45/7 474/375/293
f 492/396/311 45/39/5 47/41/6
f 46/40/7 437/348/256 47/41/6
f 476/377/295 48/42/5 49/43/5
f 436/347/255 492/396/311 434/345/253
f 484/387/303 496/401/315 468/384/287
f 454/269/273 457/272/276 490/312/309
f 425/240/244 426/242/245 423/238/242
f 444/355/263 443/354/262 447/360/266
f 432/343/251 159/99/32 458/364/277
f 429/340/248 431/342/250 462/368/281
f 433/344/252 432/343/251 459/365/278
f 491/393/310 461/367/280 431/342/250
f 457/392/276 456/373/275 491/393/310
f 422/237/241 472/289/291 171/106/44
f 175/109/42 452/267/271 5/5/2
f 451/266/270 463/277/282 464/278/283
f 495/322/314 490/312/309 425/240/244
f 439/350/258 430/341/249 433/344/252
f 430/341/249 479/380/298 431/342/250
f 480/402/299 443/354/262 445/356/264
f 486/389/305 497/405/316 466/385/285
f 438/349/257 435/346/254 434/345/253
f 485/388/304 494/398/313 438/349/257
f 498/139/317 194/90/52 192/88/51
f 498/406/317 499/407/318 194/113/52
f 500/408/319 501/409/320 502/410/321
f 500/408/319 503/411/290 501/409/320
f 504/412/322 502/410/321 505/413/323
f 500/408/319 506/414/324 503/411/290
f 507/148/325 508/149/326 509/150/327
f 507/148/325 510/151/328 511/152/329
f 512/415/330 513/416/331 420/338/233
f 512/415/330 514/417/332 515/418/333
f 516/158/334 517/159/335 518/160/336
f 516/158/334 511/152/329 415/161/222
f 519/419/337 520/420/338 521/421/339
f 519/165/337 522/166/340 523/167/341
f 523/422/341 524/423/342 525/424/343
f 523/422/341 417/336/204 524/423/342
f 526/425/344 202/117/57 200/116/54
f 526/425/344 527/426/345 202/117/57
f 528/427/346 529/428/347 530/429/348
f 528/427/346 531/430/349 532/431/350
f 533/179/351 414/180/231 510/151/328
f 533/179/351 14/6/4 414/180/231
f 534/181/352 192/88/51 189/86/49
f 534/181/352 535/182/353 498/139/317
f 536/183/354 189/86/49 186/84/47
f 534/181/352 509/150/327 535/182/353
f 537/432/355 200/116/54 199/115/56
f 526/425/344 538/433/356 527/426/345
f 539/434/357 540/435/269 506/414/324
f 539/436/357 541/437/300 540/438/269
f 505/413/323 542/439/358 504/412/322
f 505/413/323 543/440/359 544/441/360
f 545/191/361 522/166/340 546/192/362
f 545/191/361 416/193/167 522/166/340
f 499/407/318 531/430/349 547/442/363
f 531/195/349 498/139/317 535/182/353
f 548/443/364 549/444/365 550/445/366
f 548/443/364 515/418/333 551/446/367
f 552/200/368 518/160/336 546/192/362
f 552/200/368 553/201/369 554/202/370
f 546/192/362 518/160/336 517/159/335
f 552/200/368 555/203/371 553/201/369
f 524/423/342 418/335/205 525/424/343
f 524/423/342 417/336/204 418/335/205
f 528/427/346 547/442/363 531/430/349
f 530/429/348 538/433/356 537/432/355
f 556/447/372 557/448/373 558/449/261
f 556/447/372 538/433/356 557/448/373
f 505/450/323 544/451/360 542/452/358
f 543/453/359 559/454/374 544/451/360
f 551/446/367 515/418/333 514/417/332
f 551/446/367 41/35/5 549/444/365
f 560/455/375 561/456/376 562/457/377
f 560/455/375 563/458/378 561/456/376
f 532/431/350 564/459/379 565/460/380
f 532/218/350 566/219/381 564/220/379
f 537/432/355 526/425/344 200/116/54
f 527/426/345 567/461/278 9/9/3
f 520/420/338 525/424/343 521/421/339
f 523/167/341 522/166/340 417/221/204
f 551/446/367 38/32/6 40/34/7
f 514/417/332 419/337/236 39/33/7
f 568/462/382 550/445/366 569/463/255
f 568/462/382 563/458/378 550/445/366
f 554/202/370 518/160/336 552/200/368
f 554/202/370 508/149/326 518/160/336
f 561/456/376 563/458/378 568/462/382
f 560/455/375 562/457/377 570/464/383
f 504/465/322 542/452/358 506/466/324
f 505/413/323 565/460/380 543/440/359
f 557/448/373 538/433/356 571/467/384
f 556/447/372 558/449/261 567/461/278
f 550/445/366 549/444/365 572/468/311
f 548/443/364 563/458/378 515/418/333
f 573/469/385 521/421/339 562/457/377
f 573/469/385 555/470/371 521/421/339
f 517/159/335 415/161/222 416/193/167
f 516/158/334 518/160/336 508/149/326
f 513/416/331 525/424/343 418/335/205
f 513/416/331 515/418/333 570/464/383
f 571/467/384 538/433/356 530/429/348
f 557/448/373 501/409/320 558/449/261
f 536/183/354 534/181/352 189/86/49
f 498/406/317 531/430/349 499/407/318
f 519/165/337 555/203/371 546/192/362
f 573/469/385 562/457/377 544/451/360
f 544/451/360 562/457/377 561/456/376
f 573/230/385 559/231/374 555/203/371
f 516/158/334 415/161/222 517/159/335
f 511/152/329 414/180/231 415/161/222
f 504/412/322 506/414/324 500/408/319
f 506/414/324 540/435/269 503/411/290
f 560/455/375 515/418/333 563/458/378
f 570/464/383 525/424/343 513/416/331
f 499/407/318 199/115/56 194/113/52
f 547/442/363 530/429/348 537/432/355
f 534/181/352 498/139/317 192/88/51
f 530/429/348 529/428/347 571/467/384
f 553/201/369 559/231/374 564/220/379
f 555/203/371 552/200/368 546/192/362
f 564/459/379 559/471/374 543/440/359
f 553/201/369 566/219/381 554/202/370
f 533/179/351 186/84/47 14/6/4
f 510/151/328 507/148/325 536/183/354
f 510/151/328 536/183/354 186/84/47
f 535/182/353 566/219/381 531/195/349
f 522/166/340 416/193/167 417/221/204
f 522/166/340 519/165/337 546/192/362
f 548/443/364 550/445/366 563/458/378
f 549/444/365 42/36/7 44/38/5
f 561/456/376 542/452/358 544/451/360
f 574/472/386 539/436/357 506/466/324
f 416/193/167 545/191/361 517/159/335
f 555/203/371 559/231/374 553/201/369
f 571/467/384 501/409/320 557/448/373
f 501/409/320 503/411/290 558/449/261
f 529/428/347 565/460/380 571/467/384
f 529/428/347 528/427/346 532/431/350
f 551/446/367 514/417/332 38/32/6
f 419/337/236 514/417/332 512/415/330
f 547/442/363 537/432/355 199/115/56
f 538/433/356 556/447/372 527/426/345
f 543/440/359 565/460/380 564/459/379
f 542/439/358 574/473/386 506/414/324
f 509/150/327 554/202/370 566/219/381
f 508/149/326 507/148/325 511/152/329
f 502/410/321 565/460/380 505/413/323
f 570/464/383 521/421/339 525/424/343
f 536/183/354 509/150/327 534/181/352
f 530/429/348 547/442/363 528/427/346
f 574/472/386 561/456/376 568/462/382
f 562/457/377 521/421/339 570/464/383
f 513/416/331 418/335/205 420/338/233
f 525/424/343 520/420/338 523/422/341
f 545/191/361 546/192/362 517/159/335
f 566/219/381 553/201/369 564/220/379
f 574/472/386 568/462/382 539/436/357
f 539/436/357 568/462/382 541/437/300
f 527/426/345 556/447/372 567/461/278
f 571/467/384 502/410/321 501/409/320
f 510/151/328 186/84/47 533/179/351
f 507/148/325 509/150/327 536/183/354
f 508/149/326 554/202/370 509/150/327
f 511/152/329 516/158/334 508/149/326
f 511/152/329 510/151/328 414/180/231
f 535/182/353 509/150/327 566/219/381
f 531/195/349 566/219/381 532/218/350
f 527/426/345 9/9/3 202/117/57
f 526/425/344 537/432/355 538/433/356
f 499/407/318 547/442/363 199/115/56
f 521/421/339 555/470/371 519/419/337
f 500/408/319 502/410/321 504/412/322
f 574/472/386 542/452/358 561/456/376
f 573/469/385 544/451/360 559/454/374
f 515/418/333 560/455/375 570/464/383
f 44/38/5 37/31/5 572/468/311
f 549/444/365 44/38/5 572/468/311
f 42/36/7 549/444/365 43/37/7
f 548/443/364 551/446/367 549/444/365
f 549/444/365 41/35/5 43/37/7
f 551/446/367 40/34/7 41/35/5
f 39/33/7 419/337/236 36/30/5
f 38/32/6 514/417/332 39/33/7
f 512/415/330 515/418/333 513/416/331
f 541/437/300 568/462/382 569/463/255
f 569/463/255 550/445/366 572/468/311
f 419/337/236 512/415/330 420/338/233
f 565/460/380 529/428/347 532/431/350
f 565/460/380 502/410/321 571/467/384
f 519/419/337 523/422/341 520/420/338
f 37/31/5 45/39/5 572/468/311
f 572/468/311 45/39/5 492/396/311
f 569/463/255 572/468/311 492/396/311
f 436/347/255 569/463/255 492/396/311
f 436/347/255 541/437/300 569/463/255
f 436/347/255 481/382/300 541/437/300
f 541/437/300 481/382/300 540/438/269
f 540/438/269 481/382/300 450/363/269
f 459/365/278 10/10/3 9/9/3
f 567/461/278 459/365/278 9/9/3
f 567/461/278 442/353/261 459/365/278
f 567/461/278 558/449/261 442/353/261
f 442/353/261 558/449/261 471/372/290
f 471/372/290 558/449/261 503/411/290
f 450/395/269 471/372/290 503/411/290
f 450/395/269 503/411/290 540/435/269
