# Blender 4.4.3
# www.blender.org
mtllib Mesh_22.008.mtl
o Mesh_22.008
v -0.000400 0.008970 -0.010880
v -0.000400 0.008970 -0.010957
v -0.000400 0.008959 -0.010906
v -0.000400 0.008970 -0.011121
v -0.000400 0.008959 -0.011094
v -0.000400 0.008970 -0.011043
v -0.000400 0.008636 -0.011121
v -0.000400 0.008636 -0.011043
v -0.000400 0.008647 -0.011094
v -0.000400 0.008636 -0.010880
v -0.000400 0.008647 -0.010906
v -0.000400 0.008636 -0.010957
v -0.000400 0.008970 -0.010802
v -0.000400 0.008904 -0.010907
v -0.000400 0.008803 -0.010802
v -0.000400 0.008959 -0.010904
v -0.000400 0.008959 -0.010957
v -0.000400 0.008933 -0.010896
v -0.000400 0.008958 -0.010902
v -0.000400 0.008957 -0.010900
v -0.000400 0.008956 -0.010899
v -0.000400 0.008955 -0.010898
v -0.000400 0.008953 -0.010897
v -0.000400 0.008951 -0.010896
v -0.000400 0.008949 -0.010896
v -0.000400 0.008939 -0.010896
v -0.000400 0.008927 -0.010897
v -0.000400 0.008921 -0.010899
v -0.000400 0.008915 -0.010901
v -0.000400 0.008909 -0.010904
v -0.000400 0.008636 -0.010802
v -0.000400 0.008702 -0.010907
v -0.000400 0.008899 -0.010911
v -0.000400 0.008707 -0.010911
v -0.000400 0.008894 -0.010915
v -0.000400 0.008712 -0.010915
v -0.000400 0.008890 -0.010919
v -0.000400 0.008716 -0.010919
v -0.000400 0.008886 -0.010924
v -0.000400 0.008720 -0.010924
v -0.000400 0.008883 -0.010930
v -0.000400 0.008880 -0.010936
v -0.000400 0.008723 -0.010930
v -0.000400 0.008726 -0.010936
v -0.000400 0.008729 -0.010948
v -0.000400 0.008877 -0.010948
v -0.000400 0.008876 -0.010954
v -0.000400 0.008730 -0.010954
v -0.000400 0.008875 -0.010960
v -0.000400 0.008731 -0.010960
v -0.000400 0.008875 -0.011040
v -0.000400 0.008876 -0.011046
v -0.000400 0.008731 -0.011040
v -0.000400 0.008730 -0.011046
v -0.000400 0.008729 -0.011052
v -0.000400 0.008877 -0.011052
v -0.000400 0.008878 -0.011059
v -0.000400 0.008728 -0.011059
v -0.000400 0.008880 -0.011064
v -0.000400 0.008723 -0.011070
v -0.000400 0.008726 -0.011064
v -0.000400 0.008883 -0.011070
v -0.000400 0.008886 -0.011076
v -0.000400 0.008712 -0.011085
v -0.000400 0.008894 -0.011085
v -0.000400 0.008899 -0.011089
v -0.000400 0.008716 -0.011081
v -0.000400 0.008970 -0.011200
v -0.000400 0.008702 -0.011093
v -0.000400 0.008904 -0.011093
v -0.000400 0.008707 -0.011089
v -0.000400 0.008933 -0.011104
v -0.000400 0.008921 -0.011101
v -0.000400 0.008927 -0.011103
v -0.000400 0.008939 -0.011104
v -0.000400 0.008915 -0.011099
v -0.000400 0.008949 -0.011104
v -0.000400 0.008951 -0.011104
v -0.000400 0.008953 -0.011103
v -0.000400 0.008955 -0.011102
v -0.000400 0.008956 -0.011101
v -0.000400 0.008909 -0.011096
v -0.000400 0.008957 -0.011100
v -0.000400 0.008958 -0.011098
v -0.000400 0.008890 -0.011081
v -0.000400 0.008720 -0.011076
v -0.000400 0.008959 -0.011096
v -0.000400 0.008647 -0.011096
v -0.000400 0.008647 -0.011043
v -0.000400 0.008673 -0.011104
v -0.000400 0.008636 -0.011200
v -0.000400 0.008648 -0.011098
v -0.000400 0.008649 -0.011100
v -0.000400 0.008650 -0.011101
v -0.000400 0.008651 -0.011102
v -0.000400 0.008653 -0.011103
v -0.000400 0.008655 -0.011104
v -0.000400 0.008657 -0.011104
v -0.000400 0.008666 -0.011104
v -0.000400 0.008679 -0.011103
v -0.000400 0.008685 -0.011101
v -0.000400 0.008691 -0.011099
v -0.000400 0.008697 -0.011096
v -0.000400 0.008959 -0.011043
v -0.000400 0.008728 -0.010941
v -0.000400 0.008878 -0.010941
v -0.000400 0.008697 -0.010904
v -0.000400 0.008691 -0.010901
v -0.000400 0.008685 -0.010899
v -0.000400 0.008679 -0.010897
v -0.000400 0.008673 -0.010896
v -0.000400 0.008666 -0.010896
v -0.000400 0.008653 -0.010897
v -0.000400 0.008655 -0.010896
v -0.000400 0.008657 -0.010896
v -0.000400 0.008651 -0.010898
v -0.000400 0.008650 -0.010899
v -0.000400 0.008649 -0.010900
v -0.000400 0.008648 -0.010902
v -0.000400 0.008647 -0.010904
v -0.000400 0.008647 -0.010957
v -0.000375 0.008995 -0.010957
v -0.000377 0.008993 -0.010957
v -0.000367 0.009003 -0.010947
v -0.000400 0.008970 -0.010957
v -0.000373 0.008997 -0.010956
v -0.000370 0.009000 -0.010954
v -0.000371 0.008999 -0.010955
v -0.000368 0.009002 -0.010951
v -0.000369 0.009001 -0.010953
v -0.000367 0.009003 -0.010949
v -0.000400 0.008970 -0.010880
v -0.000373 0.008997 -0.010805
v -0.000400 0.008970 -0.010880
v -0.000400 0.008970 -0.010802
v -0.000373 0.008997 -0.010800
v -0.000367 0.009003 -0.010800
v -0.000400 0.008970 -0.010880
v -0.000400 0.008970 -0.010957
v -0.000360 0.008603 -0.010800
v -0.000373 0.008609 -0.010800
v -0.000367 0.008603 -0.010800
v -0.000360 0.009003 -0.010800
v -0.000373 0.008997 -0.010800
v -0.000373 0.008803 -0.010800
v -0.000367 0.009003 -0.010800
v -0.000373 0.008997 -0.010800
v -0.000367 0.008603 -0.010800
v -0.000373 0.008609 -0.010805
v -0.000367 0.008603 -0.010947
v -0.000400 0.008636 -0.010880
v -0.000400 0.008636 -0.010880
v -0.000400 0.008636 -0.010957
v -0.000375 0.008611 -0.010957
v -0.000377 0.008613 -0.010957
v -0.000373 0.008609 -0.010956
v -0.000370 0.008606 -0.010954
v -0.000369 0.008605 -0.010953
v -0.000371 0.008607 -0.010955
v -0.000368 0.008604 -0.010951
v -0.000400 0.008636 -0.010957
v -0.000400 0.008636 -0.010880
v -0.000400 0.008636 -0.010802
v -0.000367 0.008603 -0.010949
v -0.000367 0.008603 -0.010800
v -0.000373 0.008609 -0.010800
v -0.000360 0.008803 -0.011178
v -0.000360 0.008803 -0.011200
v -0.000360 0.008843 -0.011178
v -0.000360 0.008783 -0.011030
v -0.000360 0.008726 -0.011064
v -0.000360 0.008723 -0.011070
v -0.000360 0.008783 -0.011020
v -0.000360 0.008773 -0.011020
v -0.000360 0.008883 -0.011070
v -0.000360 0.008823 -0.011030
v -0.000360 0.008843 -0.011158
v -0.000360 0.008833 -0.011020
v -0.000360 0.008875 -0.011040
v -0.000360 0.008833 -0.010980
v -0.000360 0.008875 -0.010960
v -0.000360 0.008880 -0.011064
v -0.000360 0.008878 -0.011059
v -0.000360 0.008823 -0.010970
v -0.000360 0.008876 -0.010954
v -0.000360 0.008783 -0.010970
v -0.000360 0.008886 -0.010924
v -0.000360 0.008878 -0.010941
v -0.000360 0.008880 -0.010936
v -0.000360 0.008877 -0.010948
v -0.000360 0.008731 -0.010960
v -0.000360 0.008731 -0.011040
v -0.000360 0.008730 -0.011046
v -0.000360 0.008823 -0.010980
v -0.000360 0.009002 -0.011194
v -0.000360 0.009003 -0.011192
v -0.000360 0.009003 -0.011190
v -0.000360 0.009001 -0.011196
v -0.000360 0.009000 -0.011197
v -0.000360 0.008999 -0.011198
v -0.000360 0.008997 -0.011199
v -0.000360 0.008995 -0.011200
v -0.000360 0.008993 -0.011200
v -0.000360 0.008673 -0.011104
v -0.000360 0.008613 -0.011200
v -0.000360 0.008763 -0.011178
v -0.000360 0.008666 -0.011104
v -0.000360 0.008657 -0.011104
v -0.000360 0.008655 -0.011104
v -0.000360 0.008603 -0.011190
v -0.000360 0.008607 -0.011198
v -0.000360 0.008606 -0.011197
v -0.000360 0.008609 -0.011199
v -0.000360 0.008611 -0.011200
v -0.000360 0.008604 -0.011194
v -0.000360 0.008605 -0.011196
v -0.000360 0.008603 -0.011192
v -0.000360 0.008603 -0.011053
v -0.000360 0.008648 -0.011098
v -0.000360 0.008647 -0.011096
v -0.000360 0.008613 -0.011043
v -0.000360 0.008647 -0.011094
v -0.000360 0.008603 -0.011051
v -0.000360 0.008604 -0.011049
v -0.000360 0.008605 -0.011047
v -0.000360 0.008607 -0.011045
v -0.000360 0.008609 -0.011044
v -0.000360 0.008606 -0.011046
v -0.000360 0.008611 -0.011043
v -0.000360 0.008647 -0.011043
v -0.000360 0.008649 -0.011100
v -0.000360 0.008650 -0.011101
v -0.000360 0.008651 -0.011102
v -0.000360 0.008653 -0.011103
v -0.000360 0.008763 -0.011158
v -0.000360 0.008679 -0.011103
v -0.000360 0.008685 -0.011101
v -0.000360 0.008691 -0.011099
v -0.000360 0.008697 -0.011096
v -0.000360 0.008712 -0.011085
v -0.000360 0.008707 -0.011089
v -0.000360 0.008702 -0.011093
v -0.000360 0.008716 -0.011081
v -0.000360 0.008720 -0.011076
v -0.000360 0.008728 -0.011059
v -0.000360 0.008773 -0.010980
v -0.000360 0.008730 -0.010954
v -0.000360 0.008883 -0.010930
v -0.000360 0.008729 -0.010948
v -0.000360 0.008729 -0.011052
v -0.000360 0.008723 -0.010930
v -0.000360 0.008726 -0.010936
v -0.000360 0.008728 -0.010941
v -0.000360 0.008720 -0.010924
v -0.000360 0.008894 -0.010915
v -0.000360 0.008707 -0.010911
v -0.000360 0.008712 -0.010915
v -0.000360 0.008890 -0.010919
v -0.000360 0.008697 -0.010904
v -0.000360 0.008702 -0.010907
v -0.000360 0.008904 -0.010907
v -0.000360 0.008899 -0.010911
v -0.000360 0.008691 -0.010901
v -0.000360 0.008603 -0.010800
v -0.000360 0.008685 -0.010899
v -0.000360 0.008666 -0.010896
v -0.000360 0.008603 -0.010800
v -0.000360 0.008657 -0.010896
v -0.000360 0.008603 -0.010800
v -0.000360 0.008673 -0.010896
v -0.000360 0.008679 -0.010897
v -0.000360 0.008603 -0.010800
v -0.000360 0.008655 -0.010896
v -0.000360 0.008603 -0.010800
v -0.000360 0.008653 -0.010897
v -0.000360 0.008603 -0.010800
v -0.000360 0.008651 -0.010898
v -0.000360 0.008603 -0.010800
v -0.000360 0.008650 -0.010899
v -0.000360 0.008603 -0.010800
v -0.000360 0.008649 -0.010900
v -0.000360 0.008603 -0.010800
v -0.000360 0.008648 -0.010902
v -0.000360 0.008603 -0.010800
v -0.000360 0.008603 -0.010947
v -0.000360 0.008603 -0.010800
v -0.000360 0.008909 -0.010904
v -0.000360 0.008716 -0.010919
v -0.000360 0.008783 -0.010980
v -0.000360 0.008877 -0.011052
v -0.000360 0.008876 -0.011046
v -0.000360 0.008647 -0.010906
v -0.000360 0.008613 -0.010957
v -0.000360 0.008647 -0.010957
v -0.000360 0.008611 -0.010957
v -0.000360 0.008604 -0.010951
v -0.000360 0.008603 -0.010949
v -0.000360 0.009003 -0.010947
v -0.000360 0.008958 -0.010902
v -0.000360 0.008959 -0.010904
v -0.000360 0.008993 -0.010957
v -0.000360 0.008959 -0.010906
v -0.000360 0.009003 -0.010949
v -0.000360 0.009002 -0.010951
v -0.000360 0.009001 -0.010953
v -0.000360 0.008999 -0.010955
v -0.000360 0.008997 -0.010956
v -0.000360 0.009000 -0.010954
v -0.000360 0.008995 -0.010957
v -0.000360 0.009003 -0.010800
v -0.000360 0.008959 -0.010957
v -0.000360 0.008957 -0.010900
v -0.000360 0.009003 -0.010800
v -0.000360 0.008956 -0.010899
v -0.000360 0.009003 -0.010800
v -0.000360 0.008955 -0.010898
v -0.000360 0.009003 -0.010800
v -0.000360 0.008953 -0.010897
v -0.000360 0.009003 -0.010800
v -0.000360 0.009003 -0.010800
v -0.000360 0.008951 -0.010896
v -0.000360 0.009003 -0.010800
v -0.000360 0.008939 -0.010896
v -0.000360 0.008949 -0.010896
v -0.000360 0.009003 -0.010800
v -0.000360 0.008933 -0.010896
v -0.000360 0.009003 -0.010800
v -0.000360 0.008921 -0.010899
v -0.000360 0.008927 -0.010897
v -0.000360 0.009003 -0.010800
v -0.000360 0.008915 -0.010901
v -0.000360 0.009003 -0.010800
v -0.000360 0.009003 -0.010800
v -0.000360 0.008603 -0.010800
v -0.000360 0.008603 -0.010800
v -0.000360 0.008647 -0.010904
v -0.000360 0.008603 -0.010800
v -0.000360 0.008609 -0.010956
v -0.000360 0.008607 -0.010955
v -0.000360 0.008605 -0.010953
v -0.000360 0.008606 -0.010954
v -0.000360 0.008823 -0.011020
v -0.000360 0.008894 -0.011085
v -0.000360 0.008890 -0.011081
v -0.000360 0.008886 -0.011076
v -0.000360 0.008899 -0.011089
v -0.000360 0.008904 -0.011093
v -0.000360 0.008909 -0.011096
v -0.000360 0.008915 -0.011099
v -0.000360 0.008921 -0.011101
v -0.000360 0.008927 -0.011103
v -0.000360 0.008933 -0.011104
v -0.000360 0.008939 -0.011104
v -0.000360 0.008953 -0.011103
v -0.000360 0.008951 -0.011104
v -0.000360 0.008949 -0.011104
v -0.000360 0.008955 -0.011102
v -0.000360 0.008956 -0.011101
v -0.000360 0.008957 -0.011100
v -0.000360 0.008958 -0.011098
v -0.000360 0.009003 -0.011053
v -0.000360 0.008959 -0.011096
v -0.000360 0.008959 -0.011094
v -0.000360 0.008993 -0.011043
v -0.000360 0.008959 -0.011043
v -0.000360 0.008995 -0.011043
v -0.000360 0.008603 -0.010800
v -0.000360 0.009003 -0.010800
v -0.000360 0.009003 -0.010800
v -0.000360 0.008997 -0.011044
v -0.000360 0.008999 -0.011045
v -0.000360 0.009000 -0.011046
v -0.000360 0.009001 -0.011047
v -0.000360 0.009002 -0.011049
v -0.000360 0.009003 -0.011051
v -0.000360 0.009003 -0.011190
v -0.000367 0.009003 -0.011190
v -0.000360 0.009003 -0.011053
v -0.000360 0.009003 -0.011053
v -0.000367 0.009003 -0.011053
v -0.000360 0.009003 -0.010947
v -0.000367 0.009003 -0.010947
v -0.000360 0.009003 -0.010800
v -0.000360 0.009003 -0.010800
v -0.000367 0.009003 -0.010947
v -0.000367 0.009003 -0.010800
v -0.000400 0.008970 -0.011121
v -0.000367 0.009003 -0.011190
v -0.000400 0.008970 -0.011200
v -0.000400 0.008970 -0.011121
v -0.000400 0.008970 -0.011043
v -0.000367 0.009003 -0.011053
v -0.000377 0.008993 -0.011200
v -0.000400 0.008970 -0.011200
v -0.000367 0.009003 -0.011190
v -0.000375 0.008995 -0.011200
v -0.000367 0.009003 -0.011190
v -0.000373 0.008997 -0.011199
v -0.000367 0.009003 -0.011190
v -0.000371 0.008999 -0.011198
v -0.000367 0.009003 -0.011190
v -0.000370 0.009000 -0.011197
v -0.000368 0.009002 -0.011194
v -0.000369 0.009001 -0.011196
v -0.000367 0.009003 -0.011190
v -0.000367 0.009003 -0.011190
v -0.000367 0.009003 -0.011192
v -0.000367 0.009003 -0.011190
v -0.000367 0.009003 -0.011190
v -0.000367 0.009003 -0.011190
v -0.000400 0.008970 -0.011121
v -0.000367 0.009003 -0.011053
v -0.000367 0.009003 -0.011053
v -0.000400 0.008970 -0.011043
v -0.000377 0.008993 -0.011043
v -0.000375 0.008995 -0.011043
v -0.000367 0.009003 -0.011053
v -0.000373 0.008997 -0.011044
v -0.000367 0.009003 -0.011053
v -0.000367 0.009003 -0.011053
v -0.000370 0.009000 -0.011046
v -0.000369 0.009001 -0.011047
v -0.000367 0.009003 -0.011053
v -0.000371 0.008999 -0.011045
v -0.000367 0.009003 -0.011051
v -0.000367 0.009003 -0.011053
v -0.000368 0.009002 -0.011049
v -0.000367 0.009003 -0.011053
v -0.000367 0.009003 -0.011053
v -0.000360 0.008603 -0.011053
v -0.000367 0.008603 -0.011053
v -0.000360 0.008603 -0.011190
v -0.000360 0.008603 -0.011190
v -0.000367 0.008603 -0.011190
v -0.000400 0.008636 -0.011121
v -0.000367 0.008603 -0.011053
v -0.000400 0.008636 -0.011043
v -0.000400 0.008636 -0.011121
v -0.000400 0.008636 -0.011200
v -0.000367 0.008603 -0.011190
v -0.000377 0.008613 -0.011043
v -0.000400 0.008636 -0.011043
v -0.000367 0.008603 -0.011053
v -0.000375 0.008611 -0.011043
v -0.000367 0.008603 -0.011053
v -0.000373 0.008609 -0.011044
v -0.000367 0.008603 -0.011053
v -0.000371 0.008607 -0.011045
v -0.000367 0.008603 -0.011053
v -0.000370 0.008606 -0.011046
v -0.000368 0.008604 -0.011049
v -0.000369 0.008605 -0.011047
v -0.000367 0.008603 -0.011053
v -0.000367 0.008603 -0.011053
v -0.000367 0.008603 -0.011051
v -0.000367 0.008603 -0.011053
v -0.000367 0.008603 -0.011053
v -0.000367 0.008603 -0.011053
v -0.000400 0.008636 -0.011121
v -0.000367 0.008603 -0.011190
v -0.000367 0.008603 -0.011190
v -0.000400 0.008636 -0.011200
v -0.000377 0.008613 -0.011200
v -0.000375 0.008611 -0.011200
v -0.000367 0.008603 -0.011190
v -0.000373 0.008609 -0.011199
v -0.000367 0.008603 -0.011190
v -0.000367 0.008603 -0.011190
v -0.000370 0.008606 -0.011197
v -0.000369 0.008605 -0.011196
v -0.000367 0.008603 -0.011190
v -0.000371 0.008607 -0.011198
v -0.000367 0.008603 -0.011192
v -0.000367 0.008603 -0.011190
v -0.000368 0.008604 -0.011194
v -0.000367 0.008603 -0.011190
v -0.000367 0.008603 -0.011190
v -0.000400 0.008970 -0.011200
v -0.000360 0.008803 -0.011200
v -0.000400 0.008636 -0.011200
v -0.000400 0.008970 -0.011200
v -0.000377 0.008993 -0.011200
v -0.000360 0.008993 -0.011200
v -0.000400 0.008636 -0.011200
v -0.000360 0.008803 -0.011200
v -0.000360 0.008613 -0.011200
v -0.000377 0.008613 -0.011200
v -0.000400 0.008636 -0.011200
v -0.000360 0.008613 -0.011200
v -0.000360 0.008803 -0.011200
v -0.000400 0.008970 -0.011200
v -0.000360 0.008993 -0.011200
v -0.000360 0.008603 -0.010800
v -0.000367 0.008603 -0.010800
v -0.000360 0.008603 -0.010947
v -0.000360 0.008603 -0.010947
v -0.000367 0.008603 -0.010800
v -0.000367 0.008603 -0.010947
v -0.000360 0.008731 -0.010960
v -0.000400 0.008731 -0.010960
v -0.000360 0.008731 -0.011040
v -0.000400 0.008731 -0.010960
v -0.000400 0.008731 -0.011040
v -0.000360 0.008731 -0.011040
v -0.000360 0.008673 -0.011104
v -0.000360 0.008679 -0.011103
v -0.000400 0.008673 -0.011104
v -0.000360 0.008679 -0.011103
v -0.000360 0.008685 -0.011101
v -0.000400 0.008679 -0.011103
v -0.000360 0.008685 -0.011101
v -0.000400 0.008685 -0.011101
v -0.000400 0.008679 -0.011103
v -0.000360 0.008691 -0.011099
v -0.000400 0.008691 -0.011099
v -0.000400 0.008685 -0.011101
v -0.000360 0.008697 -0.011096
v -0.000400 0.008691 -0.011099
v -0.000360 0.008691 -0.011099
v -0.000360 0.008702 -0.011093
v -0.000400 0.008697 -0.011096
v -0.000360 0.008697 -0.011096
v -0.000400 0.008702 -0.011093
v -0.000400 0.008697 -0.011096
v -0.000360 0.008702 -0.011093
v -0.000400 0.008707 -0.011089
v -0.000400 0.008702 -0.011093
v -0.000360 0.008707 -0.011089
v -0.000400 0.008707 -0.011089
v -0.000360 0.008707 -0.011089
v -0.000360 0.008712 -0.011085
v -0.000400 0.008712 -0.011085
v -0.000360 0.008712 -0.011085
v -0.000360 0.008716 -0.011081
v -0.000400 0.008712 -0.011085
v -0.000360 0.008716 -0.011081
v -0.000400 0.008716 -0.011081
v -0.000400 0.008716 -0.011081
v -0.000360 0.008720 -0.011076
v -0.000400 0.008720 -0.011076
v -0.000360 0.008720 -0.011076
v -0.000360 0.008723 -0.011070
v -0.000400 0.008720 -0.011076
v -0.000360 0.008723 -0.011070
v -0.000360 0.008726 -0.011064
v -0.000400 0.008723 -0.011070
v -0.000360 0.008726 -0.011064
v -0.000400 0.008726 -0.011064
v -0.000400 0.008723 -0.011070
v -0.000360 0.008673 -0.011104
v -0.000400 0.008673 -0.011104
v -0.000360 0.008666 -0.011104
v -0.000400 0.008730 -0.011046
v -0.000360 0.008731 -0.011040
v -0.000400 0.008731 -0.011040
v -0.000360 0.008730 -0.011046
v -0.000360 0.008731 -0.011040
v -0.000400 0.008730 -0.011046
v -0.000360 0.008730 -0.011046
v -0.000400 0.008730 -0.011046
v -0.000400 0.008729 -0.011052
v -0.000360 0.008730 -0.011046
v -0.000400 0.008729 -0.011052
v -0.000360 0.008729 -0.011052
v -0.000400 0.008729 -0.011052
v -0.000400 0.008728 -0.011059
v -0.000360 0.008729 -0.011052
v -0.000400 0.008728 -0.011059
v -0.000360 0.008728 -0.011059
v -0.000360 0.008729 -0.011052
v -0.000400 0.008726 -0.011064
v -0.000360 0.008728 -0.011059
v -0.000400 0.008728 -0.011059
v -0.000360 0.008726 -0.011064
v -0.000360 0.008728 -0.011059
v -0.000400 0.008726 -0.011064
v -0.000400 0.008720 -0.011076
v -0.000360 0.008723 -0.011070
v -0.000400 0.008723 -0.011070
v -0.000400 0.008716 -0.011081
v -0.000360 0.008716 -0.011081
v -0.000360 0.008720 -0.011076
v -0.000400 0.008712 -0.011085
v -0.000400 0.008707 -0.011089
v -0.000360 0.008712 -0.011085
v -0.000360 0.008707 -0.011089
v -0.000400 0.008702 -0.011093
v -0.000360 0.008702 -0.011093
v -0.000360 0.008697 -0.011096
v -0.000400 0.008697 -0.011096
v -0.000400 0.008691 -0.011099
v -0.000360 0.008685 -0.011101
v -0.000360 0.008691 -0.011099
v -0.000400 0.008685 -0.011101
v -0.000400 0.008673 -0.011104
v -0.000400 0.008666 -0.011104
v -0.000360 0.008666 -0.011104
v -0.000360 0.008679 -0.011103
v -0.000400 0.008679 -0.011103
v -0.000400 0.008673 -0.011104
v -0.000400 0.008657 -0.011104
v -0.000360 0.008657 -0.011104
v -0.000400 0.008666 -0.011104
v -0.000360 0.008657 -0.011104
v -0.000360 0.008666 -0.011104
v -0.000400 0.008666 -0.011104
v -0.000360 0.008647 -0.011094
v -0.000400 0.008647 -0.011094
v -0.000360 0.008647 -0.011043
v -0.000400 0.008647 -0.011094
v -0.000400 0.008647 -0.011043
v -0.000360 0.008647 -0.011043
v -0.000400 0.008647 -0.010906
v -0.000360 0.008647 -0.010906
v -0.000400 0.008647 -0.010957
v -0.000360 0.008647 -0.010906
v -0.000360 0.008647 -0.010957
v -0.000400 0.008647 -0.010957
v -0.000360 0.008657 -0.010896
v -0.000400 0.008657 -0.010896
v -0.000360 0.008666 -0.010896
v -0.000400 0.008657 -0.010896
v -0.000400 0.008666 -0.010896
v -0.000360 0.008666 -0.010896
v -0.000360 0.008730 -0.010954
v -0.000360 0.008729 -0.010948
v -0.000400 0.008730 -0.010954
v -0.000360 0.008729 -0.010948
v -0.000360 0.008728 -0.010941
v -0.000400 0.008729 -0.010948
v -0.000360 0.008728 -0.010941
v -0.000400 0.008728 -0.010941
v -0.000400 0.008729 -0.010948
v -0.000360 0.008726 -0.010936
v -0.000400 0.008726 -0.010936
v -0.000400 0.008728 -0.010941
v -0.000360 0.008723 -0.010930
v -0.000400 0.008726 -0.010936
v -0.000360 0.008726 -0.010936
v -0.000360 0.008720 -0.010924
v -0.000400 0.008723 -0.010930
v -0.000360 0.008723 -0.010930
v -0.000400 0.008720 -0.010924
v -0.000400 0.008723 -0.010930
v -0.000360 0.008720 -0.010924
v -0.000400 0.008716 -0.010919
v -0.000400 0.008720 -0.010924
v -0.000360 0.008716 -0.010919
v -0.000400 0.008716 -0.010919
v -0.000360 0.008716 -0.010919
v -0.000360 0.008712 -0.010915
v -0.000400 0.008712 -0.010915
v -0.000360 0.008712 -0.010915
v -0.000360 0.008707 -0.010911
v -0.000400 0.008712 -0.010915
v -0.000360 0.008707 -0.010911
v -0.000400 0.008707 -0.010911
v -0.000400 0.008707 -0.010911
v -0.000360 0.008702 -0.010907
v -0.000400 0.008702 -0.010907
v -0.000360 0.008702 -0.010907
v -0.000360 0.008697 -0.010904
v -0.000400 0.008702 -0.010907
v -0.000360 0.008697 -0.010904
v -0.000360 0.008691 -0.010901
v -0.000400 0.008697 -0.010904
v -0.000360 0.008691 -0.010901
v -0.000400 0.008691 -0.010901
v -0.000400 0.008697 -0.010904
v -0.000360 0.008730 -0.010954
v -0.000400 0.008730 -0.010954
v -0.000360 0.008731 -0.010960
v -0.000400 0.008673 -0.010896
v -0.000360 0.008666 -0.010896
v -0.000400 0.008666 -0.010896
v -0.000360 0.008673 -0.010896
v -0.000360 0.008666 -0.010896
v -0.000400 0.008673 -0.010896
v -0.000360 0.008673 -0.010896
v -0.000400 0.008673 -0.010896
v -0.000400 0.008679 -0.010897
v -0.000360 0.008673 -0.010896
v -0.000400 0.008679 -0.010897
v -0.000360 0.008679 -0.010897
v -0.000400 0.008679 -0.010897
v -0.000400 0.008685 -0.010899
v -0.000360 0.008679 -0.010897
v -0.000400 0.008685 -0.010899
v -0.000360 0.008685 -0.010899
v -0.000360 0.008679 -0.010897
v -0.000400 0.008691 -0.010901
v -0.000360 0.008685 -0.010899
v -0.000400 0.008685 -0.010899
v -0.000360 0.008691 -0.010901
v -0.000360 0.008685 -0.010899
v -0.000400 0.008691 -0.010901
v -0.000400 0.008702 -0.010907
v -0.000360 0.008697 -0.010904
v -0.000400 0.008697 -0.010904
v -0.000400 0.008707 -0.010911
v -0.000360 0.008707 -0.010911
v -0.000360 0.008702 -0.010907
v -0.000400 0.008712 -0.010915
v -0.000400 0.008716 -0.010919
v -0.000360 0.008712 -0.010915
v -0.000360 0.008716 -0.010919
v -0.000400 0.008720 -0.010924
v -0.000360 0.008720 -0.010924
v -0.000360 0.008723 -0.010930
v -0.000400 0.008723 -0.010930
v -0.000400 0.008726 -0.010936
v -0.000360 0.008728 -0.010941
v -0.000360 0.008726 -0.010936
v -0.000400 0.008728 -0.010941
v -0.000400 0.008730 -0.010954
v -0.000400 0.008731 -0.010960
v -0.000360 0.008731 -0.010960
v -0.000360 0.008729 -0.010948
v -0.000400 0.008729 -0.010948
v -0.000400 0.008730 -0.010954
v -0.000377 0.008613 -0.011043
v -0.000360 0.008647 -0.011043
v -0.000400 0.008636 -0.011043
v -0.000360 0.008613 -0.011043
v -0.000360 0.008647 -0.011043
v -0.000377 0.008613 -0.011043
v -0.000400 0.008647 -0.011043
v -0.000400 0.008636 -0.011043
v -0.000360 0.008647 -0.011043
v -0.000360 0.008613 -0.010957
v -0.000377 0.008613 -0.010957
v -0.000360 0.008647 -0.010957
v -0.000400 0.008636 -0.010957
v -0.000400 0.008647 -0.010957
v -0.000360 0.008647 -0.010957
v -0.000377 0.008613 -0.010957
v -0.000400 0.008636 -0.010957
v -0.000360 0.008647 -0.010957
v -0.000360 0.008875 -0.010960
v -0.000360 0.008875 -0.011040
v -0.000400 0.008875 -0.010960
v -0.000400 0.008875 -0.010960
v -0.000360 0.008875 -0.011040
v -0.000400 0.008875 -0.011040
v -0.000400 0.008939 -0.011104
v -0.000400 0.008933 -0.011104
v -0.000360 0.008939 -0.011104
v -0.000400 0.008933 -0.011104
v -0.000360 0.008933 -0.011104
v -0.000360 0.008939 -0.011104
v -0.000400 0.008927 -0.011103
v -0.000360 0.008933 -0.011104
v -0.000400 0.008933 -0.011104
v -0.000360 0.008927 -0.011103
v -0.000360 0.008933 -0.011104
v -0.000400 0.008927 -0.011103
v -0.000360 0.008927 -0.011103
v -0.000400 0.008927 -0.011103
v -0.000400 0.008921 -0.011101
v -0.000360 0.008927 -0.011103
v -0.000400 0.008921 -0.011101
v -0.000360 0.008921 -0.011101
v -0.000400 0.008921 -0.011101
v -0.000400 0.008915 -0.011099
v -0.000360 0.008921 -0.011101
v -0.000400 0.008915 -0.011099
v -0.000360 0.008915 -0.011099
v -0.000360 0.008921 -0.011101
v -0.000400 0.008909 -0.011096
v -0.000360 0.008915 -0.011099
v -0.000400 0.008915 -0.011099
v -0.000360 0.008909 -0.011096
v -0.000360 0.008915 -0.011099
v -0.000400 0.008909 -0.011096
v -0.000360 0.008909 -0.011096
v -0.000400 0.008909 -0.011096
v -0.000400 0.008904 -0.011093
v -0.000360 0.008909 -0.011096
v -0.000400 0.008904 -0.011093
v -0.000360 0.008904 -0.011093
v -0.000400 0.008904 -0.011093
v -0.000400 0.008899 -0.011089
v -0.000360 0.008904 -0.011093
v -0.000400 0.008899 -0.011089
v -0.000360 0.008899 -0.011089
v -0.000360 0.008904 -0.011093
v -0.000360 0.008890 -0.011081
v -0.000400 0.008886 -0.011076
v -0.000360 0.008886 -0.011076
v -0.000360 0.008886 -0.011076
v -0.000400 0.008886 -0.011076
v -0.000400 0.008883 -0.011070
v -0.000360 0.008875 -0.011040
v -0.000360 0.008876 -0.011046
v -0.000400 0.008875 -0.011040
v -0.000360 0.008876 -0.011046
v -0.000400 0.008876 -0.011046
v -0.000400 0.008875 -0.011040
v -0.000360 0.008877 -0.011052
v -0.000400 0.008876 -0.011046
v -0.000360 0.008876 -0.011046
v -0.000400 0.008877 -0.011052
v -0.000400 0.008876 -0.011046
v -0.000360 0.008877 -0.011052
v -0.000400 0.008877 -0.011052
v -0.000360 0.008877 -0.011052
v -0.000360 0.008878 -0.011059
v -0.000400 0.008877 -0.011052
v -0.000360 0.008878 -0.011059
v -0.000400 0.008878 -0.011059
v -0.000360 0.008878 -0.011059
v -0.000360 0.008880 -0.011064
v -0.000400 0.008878 -0.011059
v -0.000360 0.008880 -0.011064
v -0.000400 0.008880 -0.011064
v -0.000400 0.008878 -0.011059
v -0.000360 0.008883 -0.011070
v -0.000400 0.008880 -0.011064
v -0.000360 0.008880 -0.011064
v -0.000400 0.008883 -0.011070
v -0.000400 0.008880 -0.011064
v -0.000360 0.008883 -0.011070
v -0.000400 0.008883 -0.011070
v -0.000360 0.008883 -0.011070
v -0.000360 0.008886 -0.011076
v -0.000400 0.008886 -0.011076
v -0.000360 0.008890 -0.011081
v -0.000400 0.008890 -0.011081
v -0.000360 0.008890 -0.011081
v -0.000360 0.008894 -0.011085
v -0.000400 0.008890 -0.011081
v -0.000360 0.008894 -0.011085
v -0.000400 0.008894 -0.011085
v -0.000400 0.008890 -0.011081
v -0.000360 0.008899 -0.011089
v -0.000400 0.008894 -0.011085
v -0.000360 0.008894 -0.011085
v -0.000360 0.008899 -0.011089
v -0.000400 0.008899 -0.011089
v -0.000400 0.008894 -0.011085
v -0.000400 0.008939 -0.011104
v -0.000360 0.008939 -0.011104
v -0.000400 0.008949 -0.011104
v -0.000400 0.008949 -0.011104
v -0.000360 0.008939 -0.011104
v -0.000360 0.008949 -0.011104
v -0.000360 0.008959 -0.011043
v -0.000400 0.008959 -0.011043
v -0.000360 0.008959 -0.011094
v -0.000360 0.008959 -0.011094
v -0.000400 0.008959 -0.011043
v -0.000400 0.008959 -0.011094
v -0.000400 0.008959 -0.010957
v -0.000360 0.008959 -0.010957
v -0.000400 0.008959 -0.010906
v -0.000400 0.008959 -0.010906
v -0.000360 0.008959 -0.010957
v -0.000360 0.008959 -0.010906
v -0.000360 0.008939 -0.010896
v -0.000400 0.008939 -0.010896
v -0.000360 0.008949 -0.010896
v -0.000360 0.008949 -0.010896
v -0.000400 0.008939 -0.010896
v -0.000400 0.008949 -0.010896
v -0.000400 0.008875 -0.010960
v -0.000400 0.008876 -0.010954
v -0.000360 0.008875 -0.010960
v -0.000400 0.008876 -0.010954
v -0.000400 0.008877 -0.010948
v -0.000360 0.008876 -0.010954
v -0.000400 0.008877 -0.010948
v -0.000360 0.008877 -0.010948
v -0.000360 0.008876 -0.010954
v -0.000400 0.008878 -0.010941
v -0.000360 0.008878 -0.010941
v -0.000360 0.008877 -0.010948
v -0.000400 0.008880 -0.010936
v -0.000360 0.008880 -0.010936
v -0.000360 0.008878 -0.010941
v -0.000400 0.008883 -0.010930
v -0.000360 0.008880 -0.010936
v -0.000400 0.008880 -0.010936
v -0.000400 0.008886 -0.010924
v -0.000360 0.008883 -0.010930
v -0.000400 0.008883 -0.010930
v -0.000360 0.008886 -0.010924
v -0.000360 0.008883 -0.010930
v -0.000400 0.008886 -0.010924
v -0.000360 0.008890 -0.010919
v -0.000360 0.008886 -0.010924
v -0.000400 0.008890 -0.010919
v -0.000360 0.008890 -0.010919
v -0.000400 0.008890 -0.010919
v -0.000400 0.008894 -0.010915
v -0.000360 0.008894 -0.010915
v -0.000400 0.008894 -0.010915
v -0.000400 0.008899 -0.010911
v -0.000360 0.008894 -0.010915
v -0.000400 0.008899 -0.010911
v -0.000360 0.008899 -0.010911
v -0.000360 0.008899 -0.010911
v -0.000400 0.008904 -0.010907
v -0.000360 0.008904 -0.010907
v -0.000400 0.008904 -0.010907
v -0.000400 0.008909 -0.010904
v -0.000360 0.008904 -0.010907
v -0.000400 0.008909 -0.010904
v -0.000400 0.008915 -0.010901
v -0.000360 0.008909 -0.010904
v -0.000400 0.008915 -0.010901
v -0.000360 0.008915 -0.010901
v -0.000360 0.008909 -0.010904
v -0.000360 0.008933 -0.010896
v -0.000400 0.008939 -0.010896
v -0.000360 0.008939 -0.010896
v -0.000400 0.008933 -0.010896
v -0.000400 0.008939 -0.010896
v -0.000360 0.008933 -0.010896
v -0.000400 0.008933 -0.010896
v -0.000360 0.008933 -0.010896
v -0.000360 0.008927 -0.010897
v -0.000400 0.008933 -0.010896
v -0.000360 0.008927 -0.010897
v -0.000400 0.008927 -0.010897
v -0.000360 0.008927 -0.010897
v -0.000360 0.008921 -0.010899
v -0.000400 0.008927 -0.010897
v -0.000360 0.008921 -0.010899
v -0.000400 0.008921 -0.010899
v -0.000400 0.008927 -0.010897
v -0.000360 0.008915 -0.010901
v -0.000400 0.008921 -0.010899
v -0.000360 0.008921 -0.010899
v -0.000400 0.008915 -0.010901
v -0.000400 0.008921 -0.010899
v -0.000360 0.008915 -0.010901
v -0.000360 0.008904 -0.010907
v -0.000400 0.008909 -0.010904
v -0.000360 0.008909 -0.010904
v -0.000360 0.008899 -0.010911
v -0.000400 0.008899 -0.010911
v -0.000400 0.008904 -0.010907
v -0.000360 0.008894 -0.010915
v -0.000360 0.008890 -0.010919
v -0.000400 0.008894 -0.010915
v -0.000400 0.008890 -0.010919
v -0.000360 0.008886 -0.010924
v -0.000400 0.008886 -0.010924
v -0.000400 0.008883 -0.010930
v -0.000360 0.008883 -0.010930
v -0.000360 0.008880 -0.010936
v -0.000400 0.008878 -0.010941
v -0.000400 0.008880 -0.010936
v -0.000360 0.008878 -0.010941
v -0.000360 0.008876 -0.010954
v -0.000360 0.008875 -0.010960
v -0.000400 0.008876 -0.010954
v -0.000360 0.008877 -0.010948
v -0.000400 0.008877 -0.010948
v -0.000400 0.008878 -0.010941
v -0.000400 0.008959 -0.011043
v -0.000360 0.008959 -0.011043
v -0.000400 0.008970 -0.011043
v -0.000377 0.008993 -0.011043
v -0.000360 0.008959 -0.011043
v -0.000360 0.008993 -0.011043
v -0.000377 0.008993 -0.011043
v -0.000400 0.008970 -0.011043
v -0.000360 0.008959 -0.011043
v -0.000400 0.008959 -0.010957
v -0.000400 0.008970 -0.010957
v -0.000360 0.008959 -0.010957
v -0.000360 0.008959 -0.010957
v -0.000400 0.008970 -0.010957
v -0.000377 0.008993 -0.010957
v -0.000377 0.008993 -0.010957
v -0.000360 0.008993 -0.010957
v -0.000360 0.008959 -0.010957
v -0.000367 0.009003 -0.010947
v -0.000360 0.009003 -0.010947
v -0.000360 0.009003 -0.010949
v -0.000367 0.009003 -0.010949
v -0.000367 0.009003 -0.010947
v -0.000360 0.009003 -0.010949
v -0.000360 0.009003 -0.010949
v -0.000360 0.009002 -0.010951
v -0.000367 0.009003 -0.010949
v -0.000367 0.009003 -0.010949
v -0.000360 0.009002 -0.010951
v -0.000368 0.009002 -0.010951
v -0.000368 0.009002 -0.010951
v -0.000360 0.009002 -0.010951
v -0.000360 0.009001 -0.010953
v -0.000369 0.009001 -0.010953
v -0.000368 0.009002 -0.010951
v -0.000360 0.009001 -0.010953
v -0.000360 0.009000 -0.010954
v -0.000369 0.009001 -0.010953
v -0.000360 0.009001 -0.010953
v -0.000360 0.008999 -0.010955
v -0.000370 0.009000 -0.010954
v -0.000360 0.009000 -0.010954
v -0.000360 0.009000 -0.010954
v -0.000370 0.009000 -0.010954
v -0.000369 0.009001 -0.010953
v -0.000375 0.008995 -0.010957
v -0.000360 0.008993 -0.010957
v -0.000377 0.008993 -0.010957
v -0.000375 0.008995 -0.010957
v -0.000360 0.008995 -0.010957
v -0.000360 0.008993 -0.010957
v -0.000375 0.008995 -0.010957
v -0.000373 0.008997 -0.010956
v -0.000360 0.008995 -0.010957
v -0.000360 0.008995 -0.010957
v -0.000373 0.008997 -0.010956
v -0.000360 0.008997 -0.010956
v -0.000360 0.008997 -0.010956
v -0.000373 0.008997 -0.010956
v -0.000371 0.008999 -0.010955
v -0.000360 0.008999 -0.010955
v -0.000360 0.008997 -0.010956
v -0.000371 0.008999 -0.010955
v -0.000370 0.009000 -0.010954
v -0.000360 0.008999 -0.010955
v -0.000371 0.008999 -0.010955
v -0.000360 0.008613 -0.010957
v -0.000375 0.008611 -0.010957
v -0.000377 0.008613 -0.010957
v -0.000360 0.008613 -0.010957
v -0.000360 0.008611 -0.010957
v -0.000375 0.008611 -0.010957
v -0.000375 0.008611 -0.010957
v -0.000360 0.008611 -0.010957
v -0.000373 0.008609 -0.010956
v -0.000373 0.008609 -0.010956
v -0.000360 0.008611 -0.010957
v -0.000360 0.008609 -0.010956
v -0.000360 0.008607 -0.010955
v -0.000360 0.008606 -0.010954
v -0.000370 0.008606 -0.010954
v -0.000371 0.008607 -0.010955
v -0.000360 0.008609 -0.010956
v -0.000360 0.008607 -0.010955
v -0.000360 0.008606 -0.010954
v -0.000360 0.008605 -0.010953
v -0.000369 0.008605 -0.010953
v -0.000371 0.008607 -0.010955
v -0.000373 0.008609 -0.010956
v -0.000360 0.008609 -0.010956
v -0.000360 0.008603 -0.010949
v -0.000360 0.008603 -0.010947
v -0.000367 0.008603 -0.010947
v -0.000367 0.008603 -0.010949
v -0.000360 0.008603 -0.010949
v -0.000367 0.008603 -0.010947
v -0.000367 0.008603 -0.010949
v -0.000360 0.008604 -0.010951
v -0.000360 0.008603 -0.010949
v -0.000367 0.008603 -0.010949
v -0.000368 0.008604 -0.010951
v -0.000360 0.008604 -0.010951
v -0.000360 0.008604 -0.010951
v -0.000368 0.008604 -0.010951
v -0.000360 0.008605 -0.010953
v -0.000360 0.008605 -0.010953
v -0.000368 0.008604 -0.010951
v -0.000369 0.008605 -0.010953
v -0.000360 0.008606 -0.010954
v -0.000369 0.008605 -0.010953
v -0.000370 0.008606 -0.010954
v -0.000370 0.008606 -0.010954
v -0.000371 0.008607 -0.010955
v -0.000360 0.008607 -0.010955
v -0.000360 0.008603 -0.011053
v -0.000360 0.008603 -0.011051
v -0.000367 0.008603 -0.011051
v -0.000360 0.008603 -0.011051
v -0.000360 0.008603 -0.011051
v -0.000360 0.008604 -0.011049
v -0.000367 0.008603 -0.011051
v -0.000367 0.008603 -0.011051
v -0.000360 0.008604 -0.011049
v -0.000368 0.008604 -0.011049
v -0.000368 0.008604 -0.011049
v -0.000360 0.008604 -0.011049
v -0.000360 0.008605 -0.011047
v -0.000369 0.008605 -0.011047
v -0.000368 0.008604 -0.011049
v -0.000360 0.008605 -0.011047
v -0.000360 0.008606 -0.011046
v -0.000369 0.008605 -0.011047
v -0.000360 0.008605 -0.011047
v -0.000360 0.008607 -0.011045
v -0.000370 0.008606 -0.011046
v -0.000360 0.008606 -0.011046
v -0.000360 0.008606 -0.011046
v -0.000370 0.008606 -0.011046
v -0.000369 0.008605 -0.011047
v -0.000375 0.008611 -0.011043
v -0.000360 0.008613 -0.011043
v -0.000377 0.008613 -0.011043
v -0.000375 0.008611 -0.011043
v -0.000360 0.008611 -0.011043
v -0.000360 0.008613 -0.011043
v -0.000375 0.008611 -0.011043
v -0.000373 0.008609 -0.011044
v -0.000360 0.008611 -0.011043
v -0.000360 0.008611 -0.011043
v -0.000373 0.008609 -0.011044
v -0.000360 0.008609 -0.011044
v -0.000360 0.008609 -0.011044
v -0.000373 0.008609 -0.011044
v -0.000371 0.008607 -0.011045
v -0.000360 0.008607 -0.011045
v -0.000360 0.008609 -0.011044
v -0.000371 0.008607 -0.011045
v -0.000370 0.008606 -0.011046
v -0.000360 0.008607 -0.011045
v -0.000371 0.008607 -0.011045
v -0.000360 0.008655 -0.010896
v -0.000360 0.008653 -0.010897
v -0.000400 0.008655 -0.010896
v -0.000360 0.008653 -0.010897
v -0.000360 0.008651 -0.010898
v -0.000400 0.008653 -0.010897
v -0.000360 0.008651 -0.010898
v -0.000400 0.008651 -0.010898
v -0.000400 0.008653 -0.010897
v -0.000360 0.008650 -0.010899
v -0.000400 0.008650 -0.010899
v -0.000400 0.008651 -0.010898
v -0.000360 0.008649 -0.010900
v -0.000400 0.008650 -0.010899
v -0.000360 0.008650 -0.010899
v -0.000360 0.008648 -0.010902
v -0.000400 0.008649 -0.010900
v -0.000360 0.008649 -0.010900
v -0.000400 0.008648 -0.010902
v -0.000400 0.008649 -0.010900
v -0.000360 0.008648 -0.010902
v -0.000360 0.008655 -0.010896
v -0.000400 0.008655 -0.010896
v -0.000360 0.008657 -0.010896
v -0.000400 0.008647 -0.010904
v -0.000360 0.008647 -0.010906
v -0.000400 0.008647 -0.010906
v -0.000360 0.008647 -0.010904
v -0.000360 0.008647 -0.010906
v -0.000400 0.008647 -0.010904
v -0.000360 0.008647 -0.010904
v -0.000400 0.008647 -0.010904
v -0.000400 0.008648 -0.010902
v -0.000360 0.008647 -0.010904
v -0.000400 0.008648 -0.010902
v -0.000360 0.008648 -0.010902
v -0.000360 0.008649 -0.010900
v -0.000400 0.008649 -0.010900
v -0.000400 0.008650 -0.010899
v -0.000360 0.008651 -0.010898
v -0.000360 0.008650 -0.010899
v -0.000400 0.008651 -0.010898
v -0.000400 0.008655 -0.010896
v -0.000400 0.008657 -0.010896
v -0.000360 0.008657 -0.010896
v -0.000360 0.008653 -0.010897
v -0.000400 0.008653 -0.010897
v -0.000400 0.008655 -0.010896
v -0.000360 0.008647 -0.011096
v -0.000360 0.008648 -0.011098
v -0.000400 0.008647 -0.011096
v -0.000360 0.008648 -0.011098
v -0.000360 0.008649 -0.011100
v -0.000400 0.008648 -0.011098
v -0.000360 0.008649 -0.011100
v -0.000400 0.008649 -0.011100
v -0.000400 0.008648 -0.011098
v -0.000360 0.008650 -0.011101
v -0.000400 0.008650 -0.011101
v -0.000400 0.008649 -0.011100
v -0.000360 0.008651 -0.011102
v -0.000400 0.008650 -0.011101
v -0.000360 0.008650 -0.011101
v -0.000360 0.008653 -0.011103
v -0.000400 0.008651 -0.011102
v -0.000360 0.008651 -0.011102
v -0.000400 0.008653 -0.011103
v -0.000400 0.008651 -0.011102
v -0.000360 0.008653 -0.011103
v -0.000360 0.008647 -0.011096
v -0.000400 0.008647 -0.011096
v -0.000360 0.008647 -0.011094
v -0.000400 0.008655 -0.011104
v -0.000360 0.008657 -0.011104
v -0.000400 0.008657 -0.011104
v -0.000360 0.008655 -0.011104
v -0.000360 0.008657 -0.011104
v -0.000400 0.008655 -0.011104
v -0.000360 0.008655 -0.011104
v -0.000400 0.008655 -0.011104
v -0.000400 0.008653 -0.011103
v -0.000360 0.008655 -0.011104
v -0.000400 0.008653 -0.011103
v -0.000360 0.008653 -0.011103
v -0.000360 0.008651 -0.011102
v -0.000400 0.008651 -0.011102
v -0.000400 0.008650 -0.011101
v -0.000360 0.008649 -0.011100
v -0.000360 0.008650 -0.011101
v -0.000400 0.008649 -0.011100
v -0.000400 0.008647 -0.011096
v -0.000400 0.008647 -0.011094
v -0.000360 0.008647 -0.011094
v -0.000360 0.008648 -0.011098
v -0.000400 0.008648 -0.011098
v -0.000400 0.008647 -0.011096
v -0.000360 0.008959 -0.010904
v -0.000360 0.008958 -0.010902
v -0.000400 0.008959 -0.010904
v -0.000360 0.008958 -0.010902
v -0.000360 0.008957 -0.010900
v -0.000400 0.008958 -0.010902
v -0.000360 0.008957 -0.010900
v -0.000400 0.008957 -0.010900
v -0.000400 0.008958 -0.010902
v -0.000360 0.008956 -0.010899
v -0.000400 0.008956 -0.010899
v -0.000400 0.008957 -0.010900
v -0.000360 0.008955 -0.010898
v -0.000400 0.008956 -0.010899
v -0.000360 0.008956 -0.010899
v -0.000360 0.008953 -0.010897
v -0.000400 0.008955 -0.010898
v -0.000360 0.008955 -0.010898
v -0.000400 0.008953 -0.010897
v -0.000400 0.008955 -0.010898
v -0.000360 0.008953 -0.010897
v -0.000360 0.008949 -0.010896
v -0.000400 0.008949 -0.010896
v -0.000400 0.008951 -0.010896
v -0.000360 0.008949 -0.010896
v -0.000400 0.008951 -0.010896
v -0.000360 0.008951 -0.010896
v -0.000400 0.008951 -0.010896
v -0.000400 0.008953 -0.010897
v -0.000360 0.008951 -0.010896
v -0.000360 0.008959 -0.010904
v -0.000400 0.008959 -0.010904
v -0.000360 0.008959 -0.010906
v -0.000360 0.008953 -0.010897
v -0.000360 0.008951 -0.010896
v -0.000400 0.008953 -0.010897
v -0.000400 0.008959 -0.010904
v -0.000400 0.008959 -0.010906
v -0.000360 0.008959 -0.010906
v -0.000400 0.008959 -0.010904
v -0.000360 0.008958 -0.010902
v -0.000400 0.008958 -0.010902
v -0.000360 0.008957 -0.010900
v -0.000360 0.008956 -0.010899
v -0.000400 0.008957 -0.010900
v -0.000360 0.008955 -0.010898
v -0.000400 0.008955 -0.010898
v -0.000400 0.008956 -0.010899
v -0.000360 0.008993 -0.011200
v -0.000377 0.008993 -0.011200
v -0.000375 0.008995 -0.011200
v -0.000360 0.008995 -0.011200
v -0.000360 0.008993 -0.011200
v -0.000375 0.008995 -0.011200
v -0.000373 0.008997 -0.011199
v -0.000360 0.008995 -0.011200
v -0.000375 0.008995 -0.011200
v -0.000373 0.008997 -0.011199
v -0.000360 0.008997 -0.011199
v -0.000360 0.008995 -0.011200
v -0.000373 0.008997 -0.011199
v -0.000371 0.008999 -0.011198
v -0.000360 0.008997 -0.011199
v -0.000360 0.008997 -0.011199
v -0.000371 0.008999 -0.011198
v -0.000360 0.008999 -0.011198
v -0.000360 0.008999 -0.011198
v -0.000370 0.009000 -0.011197
v -0.000360 0.009000 -0.011197
v -0.000360 0.009003 -0.011190
v -0.000360 0.009003 -0.011192
v -0.000360 0.009003 -0.011192
v -0.000367 0.009003 -0.011192
v -0.000360 0.009003 -0.011192
v -0.000360 0.009002 -0.011194
v -0.000367 0.009003 -0.011192
v -0.000367 0.009003 -0.011192
v -0.000360 0.009002 -0.011194
v -0.000368 0.009002 -0.011194
v -0.000368 0.009002 -0.011194
v -0.000360 0.009002 -0.011194
v -0.000360 0.009001 -0.011196
v -0.000369 0.009001 -0.011196
v -0.000368 0.009002 -0.011194
v -0.000360 0.009001 -0.011196
v -0.000360 0.009000 -0.011197
v -0.000369 0.009001 -0.011196
v -0.000360 0.009001 -0.011196
v -0.000360 0.009000 -0.011197
v -0.000370 0.009000 -0.011197
v -0.000369 0.009001 -0.011196
v -0.000370 0.009000 -0.011197
v -0.000360 0.008999 -0.011198
v -0.000371 0.008999 -0.011198
v -0.000360 0.008603 -0.011190
v -0.000360 0.008603 -0.011192
v -0.000360 0.008603 -0.011192
v -0.000367 0.008603 -0.011192
v -0.000360 0.008604 -0.011194
v -0.000360 0.008603 -0.011192
v -0.000367 0.008603 -0.011192
v -0.000368 0.008604 -0.011194
v -0.000360 0.008604 -0.011194
v -0.000367 0.008603 -0.011192
v -0.000368 0.008604 -0.011194
v -0.000360 0.008605 -0.011196
v -0.000360 0.008604 -0.011194
v -0.000368 0.008604 -0.011194
v -0.000369 0.008605 -0.011196
v -0.000360 0.008605 -0.011196
v -0.000360 0.008605 -0.011196
v -0.000369 0.008605 -0.011196
v -0.000360 0.008606 -0.011197
v -0.000360 0.008606 -0.011197
v -0.000369 0.008605 -0.011196
v -0.000370 0.008606 -0.011197
v -0.000360 0.008607 -0.011198
v -0.000360 0.008606 -0.011197
v -0.000370 0.008606 -0.011197
v -0.000377 0.008613 -0.011200
v -0.000360 0.008613 -0.011200
v -0.000375 0.008611 -0.011200
v -0.000375 0.008611 -0.011200
v -0.000360 0.008613 -0.011200
v -0.000360 0.008611 -0.011200
v -0.000373 0.008609 -0.011199
v -0.000375 0.008611 -0.011200
v -0.000360 0.008611 -0.011200
v -0.000371 0.008607 -0.011198
v -0.000360 0.008609 -0.011199
v -0.000360 0.008607 -0.011198
v -0.000371 0.008607 -0.011198
v -0.000373 0.008609 -0.011199
v -0.000360 0.008609 -0.011199
v -0.000370 0.008606 -0.011197
v -0.000371 0.008607 -0.011198
v -0.000360 0.008607 -0.011198
v -0.000373 0.008609 -0.011199
v -0.000360 0.008611 -0.011200
v -0.000360 0.008609 -0.011199
v -0.000360 0.008951 -0.011104
v -0.000400 0.008951 -0.011104
v -0.000360 0.008949 -0.011104
v -0.000360 0.008953 -0.011103
v -0.000400 0.008951 -0.011104
v -0.000360 0.008951 -0.011104
v -0.000360 0.008955 -0.011102
v -0.000400 0.008953 -0.011103
v -0.000360 0.008953 -0.011103
v -0.000400 0.008955 -0.011102
v -0.000400 0.008953 -0.011103
v -0.000360 0.008955 -0.011102
v -0.000400 0.008956 -0.011101
v -0.000400 0.008955 -0.011102
v -0.000360 0.008956 -0.011101
v -0.000400 0.008956 -0.011101
v -0.000360 0.008956 -0.011101
v -0.000360 0.008957 -0.011100
v -0.000400 0.008957 -0.011100
v -0.000360 0.008957 -0.011100
v -0.000360 0.008958 -0.011098
v -0.000400 0.008959 -0.011094
v -0.000400 0.008959 -0.011096
v -0.000360 0.008959 -0.011094
v -0.000400 0.008959 -0.011096
v -0.000360 0.008959 -0.011096
v -0.000360 0.008959 -0.011094
v -0.000400 0.008958 -0.011098
v -0.000360 0.008959 -0.011096
v -0.000400 0.008959 -0.011096
v -0.000360 0.008958 -0.011098
v -0.000360 0.008959 -0.011096
v -0.000400 0.008958 -0.011098
v -0.000360 0.008958 -0.011098
v -0.000400 0.008958 -0.011098
v -0.000400 0.008957 -0.011100
v -0.000360 0.008957 -0.011100
v -0.000400 0.008957 -0.011100
v -0.000400 0.008956 -0.011101
v -0.000360 0.008955 -0.011102
v -0.000360 0.008956 -0.011101
v -0.000400 0.008955 -0.011102
v -0.000400 0.008951 -0.011104
v -0.000400 0.008949 -0.011104
v -0.000360 0.008949 -0.011104
v -0.000360 0.008953 -0.011103
v -0.000400 0.008953 -0.011103
v -0.000400 0.008951 -0.011104
v -0.000360 0.008993 -0.011043
v -0.000375 0.008995 -0.011043
v -0.000377 0.008993 -0.011043
v -0.000360 0.008993 -0.011043
v -0.000360 0.008995 -0.011043
v -0.000375 0.008995 -0.011043
v -0.000375 0.008995 -0.011043
v -0.000360 0.008995 -0.011043
v -0.000373 0.008997 -0.011044
v -0.000373 0.008997 -0.011044
v -0.000360 0.008995 -0.011043
v -0.000360 0.008997 -0.011044
v -0.000360 0.008999 -0.011045
v -0.000360 0.009000 -0.011046
v -0.000370 0.009000 -0.011046
v -0.000371 0.008999 -0.011045
v -0.000360 0.008997 -0.011044
v -0.000360 0.008999 -0.011045
v -0.000360 0.009000 -0.011046
v -0.000360 0.009001 -0.011047
v -0.000369 0.009001 -0.011047
v -0.000371 0.008999 -0.011045
v -0.000373 0.008997 -0.011044
v -0.000360 0.008997 -0.011044
v -0.000360 0.009003 -0.011051
v -0.000360 0.009003 -0.011053
v -0.000367 0.009003 -0.011051
v -0.000360 0.009003 -0.011051
v -0.000367 0.009003 -0.011051
v -0.000360 0.009002 -0.011049
v -0.000360 0.009003 -0.011051
v -0.000367 0.009003 -0.011051
v -0.000368 0.009002 -0.011049
v -0.000360 0.009002 -0.011049
v -0.000360 0.009002 -0.011049
v -0.000368 0.009002 -0.011049
v -0.000360 0.009001 -0.011047
v -0.000360 0.009001 -0.011047
v -0.000368 0.009002 -0.011049
v -0.000369 0.009001 -0.011047
v -0.000360 0.009000 -0.011046
v -0.000369 0.009001 -0.011047
v -0.000370 0.009000 -0.011046
v -0.000370 0.009000 -0.011046
v -0.000371 0.008999 -0.011045
v -0.000360 0.008999 -0.011045
v -0.000310 0.008773 -0.011020
v -0.000310 0.008773 -0.010980
v -0.000360 0.008773 -0.011020
v -0.000360 0.008773 -0.010980
v -0.000360 0.008773 -0.011020
v -0.000270 0.008780 -0.011020
v -0.000310 0.008773 -0.011020
v -0.000270 0.008783 -0.011020
v -0.000310 0.008773 -0.011020
v -0.000360 0.008783 -0.011020
v -0.000360 0.008773 -0.011020
v -0.000360 0.008783 -0.011020
v -0.000310 0.008773 -0.011020
v -0.000310 0.008783 -0.011030
v -0.000360 0.008783 -0.011020
v -0.000360 0.008783 -0.011030
v -0.000270 0.008783 -0.011020
v -0.000360 0.008783 -0.011020
v -0.000270 0.008783 -0.011020
v -0.000270 0.008783 -0.011023
v -0.000310 0.008823 -0.011030
v -0.000310 0.008783 -0.011030
v -0.000360 0.008823 -0.011030
v -0.000310 0.008783 -0.011030
v -0.000360 0.008783 -0.011030
v -0.000360 0.008823 -0.011030
v -0.000270 0.008823 -0.011023
v -0.000310 0.008823 -0.011030
v -0.000270 0.008823 -0.011020
v -0.000310 0.008823 -0.011030
v -0.000360 0.008823 -0.011020
v -0.000360 0.008823 -0.011030
v -0.000360 0.008823 -0.011020
v -0.000310 0.008823 -0.011030
v -0.000310 0.008833 -0.011020
v -0.000360 0.008823 -0.011020
v -0.000360 0.008833 -0.011020
v -0.000270 0.008823 -0.011020
v -0.000360 0.008823 -0.011020
v -0.000270 0.008823 -0.011020
v -0.000270 0.008826 -0.011020
v -0.000310 0.008833 -0.010980
v -0.000310 0.008833 -0.011020
v -0.000360 0.008833 -0.010980
v -0.000310 0.008833 -0.011020
v -0.000360 0.008833 -0.011020
v -0.000360 0.008833 -0.010980
v -0.000270 0.008826 -0.010980
v -0.000310 0.008833 -0.010980
v -0.000270 0.008823 -0.010980
v -0.000310 0.008833 -0.010980
v -0.000360 0.008823 -0.010980
v -0.000360 0.008833 -0.010980
v -0.000360 0.008823 -0.010980
v -0.000310 0.008833 -0.010980
v -0.000310 0.008823 -0.010970
v -0.000360 0.008823 -0.010980
v -0.000360 0.008823 -0.010970
v -0.000270 0.008823 -0.010980
v -0.000360 0.008823 -0.010980
v -0.000270 0.008823 -0.010980
v -0.000270 0.008823 -0.010977
v -0.000310 0.008783 -0.010970
v -0.000310 0.008823 -0.010970
v -0.000360 0.008783 -0.010970
v -0.000310 0.008823 -0.010970
v -0.000360 0.008823 -0.010970
v -0.000360 0.008783 -0.010970
v -0.000270 0.008783 -0.010977
v -0.000310 0.008783 -0.010970
v -0.000270 0.008783 -0.010980
v -0.000310 0.008783 -0.010970
v -0.000360 0.008783 -0.010980
v -0.000360 0.008783 -0.010970
v -0.000360 0.008783 -0.010980
v -0.000310 0.008783 -0.010970
v -0.000360 0.008807 -0.010980
v -0.000270 0.008807 -0.010980
v -0.000360 0.008803 -0.010980
v -0.000360 0.008811 -0.010982
v -0.000360 0.008814 -0.010983
v -0.000270 0.008811 -0.010982
v -0.000270 0.008814 -0.010983
v -0.000270 0.008817 -0.010986
v -0.000360 0.008817 -0.010986
v -0.000360 0.008820 -0.010989
v -0.000270 0.008820 -0.010989
v -0.000360 0.008821 -0.010992
v -0.000270 0.008821 -0.010992
v -0.000360 0.008823 -0.010996
v -0.000270 0.008823 -0.010996
v -0.000360 0.008823 -0.011000
v -0.000360 0.008823 -0.011004
v -0.000270 0.008823 -0.011000
v -0.000270 0.008823 -0.011004
v -0.000360 0.008821 -0.011008
v -0.000270 0.008821 -0.011008
v -0.000360 0.008820 -0.011011
v -0.000360 0.008817 -0.011014
v -0.000270 0.008820 -0.011011
v -0.000270 0.008817 -0.011014
v -0.000270 0.008814 -0.011017
v -0.000360 0.008814 -0.011017
v -0.000360 0.008811 -0.011018
v -0.000270 0.008811 -0.011018
v -0.000360 0.008807 -0.011020
v -0.000270 0.008807 -0.011020
v -0.000360 0.008803 -0.011020
v -0.000270 0.008803 -0.011020
v -0.000360 0.008799 -0.011020
v -0.000270 0.008799 -0.011020
v -0.000360 0.008795 -0.011018
v -0.000270 0.008795 -0.011018
v -0.000360 0.008792 -0.011017
v -0.000360 0.008783 -0.011000
v -0.000270 0.008783 -0.011000
v -0.000270 0.008783 -0.011004
v -0.000360 0.008783 -0.010996
v -0.000270 0.008783 -0.010996
v -0.000360 0.008785 -0.010992
v -0.000270 0.008785 -0.010992
v -0.000360 0.008786 -0.010989
v -0.000270 0.008786 -0.010989
v -0.000360 0.008789 -0.010986
v -0.000360 0.008792 -0.010983
v -0.000270 0.008789 -0.010986
v -0.000270 0.008792 -0.010983
v -0.000270 0.008795 -0.010982
v -0.000360 0.008795 -0.010982
v -0.000270 0.008799 -0.010980
v -0.000360 0.008799 -0.010980
v -0.000270 0.008803 -0.010980
v -0.000360 0.008783 -0.011004
v -0.000270 0.008785 -0.011008
v -0.000360 0.008785 -0.011008
v -0.000270 0.008786 -0.011011
v -0.000360 0.008786 -0.011011
v -0.000270 0.008789 -0.011014
v -0.000360 0.008789 -0.011014
v -0.000270 0.008792 -0.011017
v -0.000310 0.008773 -0.010980
v -0.000360 0.008783 -0.010980
v -0.000360 0.008773 -0.010980
v -0.000270 0.008783 -0.010980
v -0.000360 0.008783 -0.010980
v -0.000310 0.008773 -0.010980
v -0.000270 0.008783 -0.010980
v -0.000310 0.008773 -0.010980
v -0.000270 0.008780 -0.010980
v -0.000270 0.008803 -0.010977
v -0.000270 0.008803 -0.010980
v -0.000270 0.008807 -0.010980
v -0.000270 0.008780 -0.011020
v -0.000270 0.008783 -0.011020
v -0.000270 0.008786 -0.011011
v -0.000270 0.008780 -0.010980
v -0.000270 0.008785 -0.010992
v -0.000270 0.008786 -0.010989
v -0.000270 0.008795 -0.010982
v -0.000270 0.008799 -0.010980
v -0.000270 0.008783 -0.010977
v -0.000270 0.008792 -0.010983
v -0.000270 0.008795 -0.010982
v -0.000270 0.008823 -0.010977
v -0.000270 0.008811 -0.010982
v -0.000270 0.008814 -0.010983
v -0.000270 0.008826 -0.011000
v -0.000270 0.008821 -0.010992
v -0.000270 0.008823 -0.010996
v -0.000270 0.008826 -0.010980
v -0.000270 0.008820 -0.010989
v -0.000270 0.008821 -0.010992
v -0.000270 0.008826 -0.011020
v -0.000270 0.008821 -0.011008
v -0.000270 0.008820 -0.011011
v -0.000270 0.008803 -0.011023
v -0.000270 0.008811 -0.011018
v -0.000270 0.008807 -0.011020
v -0.000270 0.008823 -0.011023
v -0.000270 0.008814 -0.011017
v -0.000270 0.008811 -0.011018
v -0.000270 0.008783 -0.011023
v -0.000270 0.008795 -0.011018
v -0.000270 0.008792 -0.011017
v -0.000270 0.008783 -0.011020
v -0.000270 0.008792 -0.011017
v -0.000270 0.008789 -0.011014
v -0.000270 0.008783 -0.011020
v -0.000270 0.008789 -0.011014
v -0.000270 0.008786 -0.011011
v -0.000270 0.008799 -0.010980
v -0.000270 0.008803 -0.010980
v -0.000270 0.008783 -0.010977
v -0.000270 0.008795 -0.010982
v -0.000270 0.008786 -0.010989
v -0.000270 0.008783 -0.010980
v -0.000270 0.008780 -0.010980
v -0.000270 0.008792 -0.010983
v -0.000270 0.008783 -0.010977
v -0.000270 0.008783 -0.010980
v -0.000270 0.008789 -0.010986
v -0.000270 0.008792 -0.010983
v -0.000270 0.008783 -0.010980
v -0.000270 0.008786 -0.010989
v -0.000270 0.008789 -0.010986
v -0.000270 0.008783 -0.010980
v -0.000270 0.008785 -0.010992
v -0.000270 0.008780 -0.010980
v -0.000270 0.008780 -0.011000
v -0.000270 0.008783 -0.010996
v -0.000270 0.008785 -0.010992
v -0.000270 0.008783 -0.011004
v -0.000270 0.008783 -0.011000
v -0.000270 0.008780 -0.011020
v -0.000270 0.008785 -0.011008
v -0.000270 0.008785 -0.011008
v -0.000270 0.008783 -0.011004
v -0.000270 0.008786 -0.011011
v -0.000270 0.008785 -0.011008
v -0.000270 0.008780 -0.011020
v -0.000270 0.008792 -0.011017
v -0.000270 0.008783 -0.011020
v -0.000270 0.008783 -0.011023
v -0.000270 0.008783 -0.011000
v -0.000270 0.008783 -0.010996
v -0.000270 0.008799 -0.011020
v -0.000270 0.008795 -0.011018
v -0.000270 0.008807 -0.011020
v -0.000270 0.008803 -0.011020
v -0.000270 0.008823 -0.011023
v -0.000270 0.008811 -0.011018
v -0.000270 0.008820 -0.011011
v -0.000270 0.008823 -0.011020
v -0.000270 0.008826 -0.011020
v -0.000270 0.008814 -0.011017
v -0.000270 0.008823 -0.011023
v -0.000270 0.008823 -0.011020
v -0.000270 0.008817 -0.011014
v -0.000270 0.008814 -0.011017
v -0.000270 0.008823 -0.011020
v -0.000270 0.008820 -0.011011
v -0.000270 0.008817 -0.011014
v -0.000270 0.008823 -0.011020
v -0.000270 0.008821 -0.011008
v -0.000270 0.008826 -0.011020
v -0.000270 0.008823 -0.011004
v -0.000270 0.008821 -0.011008
v -0.000270 0.008823 -0.010996
v -0.000270 0.008823 -0.011000
v -0.000270 0.008826 -0.010980
v -0.000270 0.008821 -0.010992
v -0.000270 0.008814 -0.010983
v -0.000270 0.008823 -0.010980
v -0.000270 0.008823 -0.010977
v -0.000270 0.008820 -0.010989
v -0.000270 0.008826 -0.010980
v -0.000270 0.008823 -0.010980
v -0.000270 0.008817 -0.010986
v -0.000270 0.008820 -0.010989
v -0.000270 0.008823 -0.010980
v -0.000270 0.008814 -0.010983
v -0.000270 0.008817 -0.010986
v -0.000270 0.008823 -0.010980
v -0.000270 0.008811 -0.010982
v -0.000270 0.008823 -0.010977
v -0.000270 0.008803 -0.011020
v -0.000270 0.008799 -0.011020
v -0.000270 0.008807 -0.010980
v -0.000270 0.008811 -0.010982
v -0.000270 0.008795 -0.011018
v -0.000270 0.008783 -0.011023
v -0.000270 0.008823 -0.011000
v -0.000270 0.008823 -0.011004
v -0.000360 0.008811 -0.010982
v -0.000360 0.008807 -0.010980
v -0.000360 0.008803 -0.010980
v -0.000360 0.008814 -0.010983
v -0.000360 0.008811 -0.010982
v -0.000360 0.008803 -0.010980
v -0.000360 0.008817 -0.010986
v -0.000360 0.008814 -0.010983
v -0.000360 0.008803 -0.010980
v -0.000360 0.008820 -0.010989
v -0.000360 0.008817 -0.010986
v -0.000360 0.008803 -0.010980
v -0.000360 0.008821 -0.010992
v -0.000360 0.008803 -0.010980
v -0.000360 0.008823 -0.010996
v -0.000360 0.008821 -0.010992
v -0.000360 0.008820 -0.010989
v -0.000360 0.008803 -0.010980
v -0.000360 0.008823 -0.010996
v -0.000360 0.008803 -0.010980
v -0.000360 0.008823 -0.011000
v -0.000360 0.008823 -0.011000
v -0.000360 0.008803 -0.010980
v -0.000360 0.008823 -0.011004
v -0.000360 0.008803 -0.010980
v -0.000360 0.008821 -0.011008
v -0.000360 0.008823 -0.011004
v -0.000360 0.008803 -0.010980
v -0.000360 0.008820 -0.011011
v -0.000360 0.008821 -0.011008
v -0.000360 0.008803 -0.010980
v -0.000360 0.008817 -0.011014
v -0.000360 0.008820 -0.011011
v -0.000360 0.008811 -0.011018
v -0.000360 0.008814 -0.011017
v -0.000360 0.008803 -0.010980
v -0.000360 0.008803 -0.010980
v -0.000360 0.008814 -0.011017
v -0.000360 0.008817 -0.011014
v -0.000360 0.008807 -0.011020
v -0.000360 0.008803 -0.010980
v -0.000360 0.008803 -0.011020
v -0.000360 0.008803 -0.011020
v -0.000360 0.008803 -0.010980
v -0.000360 0.008799 -0.011020
v -0.000360 0.008803 -0.010980
v -0.000360 0.008795 -0.011018
v -0.000360 0.008799 -0.011020
v -0.000360 0.008803 -0.010980
v -0.000360 0.008792 -0.011017
v -0.000360 0.008795 -0.011018
v -0.000360 0.008803 -0.010980
v -0.000360 0.008789 -0.011014
v -0.000360 0.008792 -0.011017
v -0.000360 0.008785 -0.011008
v -0.000360 0.008786 -0.011011
v -0.000360 0.008803 -0.010980
v -0.000360 0.008803 -0.010980
v -0.000360 0.008786 -0.011011
v -0.000360 0.008789 -0.011014
v -0.000360 0.008783 -0.011004
v -0.000360 0.008785 -0.011008
v -0.000360 0.008803 -0.010980
v -0.000360 0.008783 -0.011000
v -0.000360 0.008783 -0.011004
v -0.000360 0.008803 -0.010980
v -0.000360 0.008783 -0.011000
v -0.000360 0.008803 -0.010980
v -0.000360 0.008783 -0.010996
v -0.000360 0.008783 -0.010996
v -0.000360 0.008803 -0.010980
v -0.000360 0.008785 -0.010992
v -0.000360 0.008785 -0.010992
v -0.000360 0.008803 -0.010980
v -0.000360 0.008786 -0.010989
v -0.000360 0.008803 -0.010980
v -0.000360 0.008792 -0.010983
v -0.000360 0.008789 -0.010986
v -0.000360 0.008786 -0.010989
v -0.000360 0.008803 -0.010980
v -0.000360 0.008789 -0.010986
v -0.000360 0.008803 -0.010980
v -0.000360 0.008795 -0.010982
v -0.000360 0.008792 -0.010983
v -0.000360 0.008803 -0.010980
v -0.000360 0.008807 -0.011020
v -0.000360 0.008811 -0.011018
v -0.000360 0.008799 -0.010980
v -0.000360 0.008795 -0.010982
v -0.000360 0.008803 -0.010980
v -0.000270 0.008803 -0.011023
v -0.000270 0.008783 -0.011023
v -0.000310 0.008783 -0.011030
v -0.000270 0.008823 -0.011023
v -0.000270 0.008803 -0.011023
v -0.000270 0.008803 -0.011023
v -0.000310 0.008783 -0.011030
v -0.000270 0.008826 -0.011000
v -0.000270 0.008826 -0.011020
v -0.000310 0.008833 -0.011020
v -0.000270 0.008826 -0.010980
v -0.000270 0.008826 -0.011000
v -0.000270 0.008826 -0.011000
v -0.000310 0.008833 -0.011020
v -0.000270 0.008803 -0.010977
v -0.000270 0.008823 -0.010977
v -0.000310 0.008823 -0.010970
v -0.000270 0.008783 -0.010977
v -0.000270 0.008803 -0.010977
v -0.000270 0.008803 -0.010977
v -0.000310 0.008823 -0.010970
v -0.000270 0.008780 -0.011000
v -0.000270 0.008780 -0.010980
v -0.000270 0.008780 -0.011020
v -0.000270 0.008780 -0.011000
v -0.000270 0.008780 -0.011000
v -0.000330 0.008763 -0.011178
v -0.000360 0.008803 -0.011178
v -0.000330 0.008843 -0.011178
v -0.000360 0.008803 -0.011178
v -0.000360 0.008843 -0.011178
v -0.000360 0.008803 -0.011178
v -0.000360 0.008763 -0.011178
v -0.000330 0.008763 -0.011158
v -0.000360 0.008763 -0.011158
v -0.000330 0.008763 -0.011178
v -0.000330 0.008763 -0.011178
v -0.000360 0.008763 -0.011158
v -0.000360 0.008763 -0.011178
v -0.000330 0.008843 -0.011158
v -0.000360 0.008843 -0.011158
v -0.000330 0.008763 -0.011158
v -0.000330 0.008763 -0.011158
v -0.000360 0.008843 -0.011158
v -0.000360 0.008763 -0.011158
v -0.000330 0.008843 -0.011178
v -0.000360 0.008843 -0.011178
v -0.000330 0.008843 -0.011158
v -0.000330 0.008843 -0.011158
v -0.000360 0.008843 -0.011178
v -0.000360 0.008843 -0.011158
v -0.000330 0.008843 -0.011178
v -0.000330 0.008843 -0.011158
v -0.000330 0.008763 -0.011178
v -0.000330 0.008843 -0.011158
v -0.000330 0.008763 -0.011158
v -0.000330 0.008763 -0.011178
v -0.000400 0.008803 -0.010802
v -0.000373 0.008803 -0.010805
v -0.000400 0.008970 -0.010802
v -0.000400 0.008636 -0.010802
v -0.000373 0.008609 -0.010805
v -0.000400 0.008636 -0.010802
v -0.000400 0.008803 -0.010802
v -0.000373 0.008997 -0.010805
v -0.000400 0.008970 -0.010802
v -0.000373 0.008997 -0.010800
v -0.000373 0.008803 -0.010805
v -0.000373 0.008803 -0.010800
v -0.000373 0.008997 -0.010800
v -0.000373 0.008997 -0.010805
v -0.000373 0.008803 -0.010805
v -0.000373 0.008609 -0.010800
v -0.000373 0.008803 -0.010805
v -0.000373 0.008609 -0.010805
v -0.000373 0.008803 -0.010805
v -0.000373 0.008609 -0.010800
v -0.000373 0.008803 -0.010800
vn -1.0000 -0.0000 -0.0000
vn -0.7073 0.7069 0.0003
vn -0.7071 0.7071 -0.0000
vn -0.7071 0.7071 -0.0001
vn -0.7071 0.7071 -0.0002
vn -0.7071 0.7071 0.0001
vn -0.7070 0.7072 0.0001
vn -0.7069 0.7073 0.0002
vn -0.7069 0.7073 -0.0000
vn -0.0000 -0.0000 1.0000
vn -0.7071 -0.7071 -0.0000
vn -0.7071 -0.7071 0.0001
vn -0.7070 -0.7072 -0.0000
vn -0.7072 -0.7070 -0.0000
vn -0.7072 -0.7070 -0.0001
vn -0.7070 -0.7073 -0.0001
vn -0.7071 -0.7071 0.0002
vn -0.7069 -0.7073 -0.0000
vn 1.0000 -0.0000 -0.0000
vn 1.0000 0.0001 -0.0000
vn 1.0000 -0.0001 -0.0000
vn -0.0000 1.0000 -0.0000
vn -0.7070 0.7072 -0.0002
vn -0.7072 0.7070 -0.0000
vn -0.7073 0.7069 -0.0000
vn -0.7072 0.7070 0.0003
vn -0.7072 0.7070 0.0002
vn -0.7072 0.7070 -0.0001
vn -0.7073 0.7069 -0.0002
vn -0.0000 -1.0000 -0.0000
vn -0.7072 -0.7070 -0.0002
vn -0.7070 -0.7072 0.0002
vn -0.7071 -0.7072 0.0003
vn -0.7071 -0.7071 -0.0001
vn -0.7070 -0.7072 -0.0003
vn -0.7070 -0.7072 0.0001
vn -0.7073 -0.7069 -0.0000
vn -0.7071 -0.7072 -0.0003
vn -0.0000 -0.0000 -1.0000
vn -0.0000 -0.0980 0.9952
vn -0.0000 -0.1951 0.9808
vn -0.0000 -0.2903 0.9569
vn -0.0000 -0.3827 0.9239
vn -0.0000 -0.4714 0.8819
vn -0.0000 -0.5556 0.8315
vn -0.0000 -0.6344 0.7730
vn -0.0000 -0.5556 0.8314
vn -0.0000 -0.7071 0.7071
vn -0.0000 -0.7072 0.7070
vn -0.0000 -0.7730 0.6344
vn -0.0000 -0.8314 0.5556
vn -0.0000 -0.8315 0.5555
vn -0.0000 -0.8819 0.4714
vn -0.0000 -0.9239 0.3827
vn -0.0000 -0.9952 0.0980
vn -0.0000 -0.9808 0.1951
vn -0.0000 -0.9569 0.2903
vn -0.0000 -0.8315 0.5556
vn -0.0000 -0.9952 -0.0980
vn -0.0000 -0.9808 -0.1951
vn -0.0000 -0.9569 -0.2903
vn -0.0000 -0.9239 -0.3827
vn -0.0000 -0.8819 -0.4714
vn -0.0000 -0.8315 -0.5556
vn -0.0000 -0.8315 -0.5555
vn -0.0000 -0.7730 -0.6344
vn -0.0000 -0.8314 -0.5556
vn -0.0000 -0.7071 -0.7071
vn -0.0000 -0.6344 -0.7730
vn -0.0000 -0.5556 -0.8314
vn -0.0000 -0.5556 -0.8315
vn -0.0000 -0.4714 -0.8819
vn -0.0000 -0.3827 -0.9239
vn -0.0000 -0.0980 -0.9952
vn -0.0000 -0.1951 -0.9808
vn -0.0000 -0.2903 -0.9569
vn -0.0000 -0.7072 -0.7070
vn -0.0000 0.0980 0.9952
vn -0.0000 0.1951 0.9808
vn -0.0000 0.2903 0.9569
vn -0.0000 0.3827 0.9239
vn -0.0000 0.4714 0.8819
vn -0.0000 0.5556 0.8315
vn -0.0000 0.5555 0.8315
vn -0.0000 0.5556 0.8314
vn -0.0000 0.6344 0.7730
vn -0.0000 0.7730 0.6344
vn -0.0000 0.8314 0.5556
vn -0.0000 0.8315 0.5555
vn -0.0000 0.8819 0.4714
vn -0.0000 0.9952 0.0980
vn -0.0000 0.9808 0.1951
vn -0.0000 0.9569 0.2903
vn -0.0000 0.9239 0.3827
vn -0.0000 0.8315 0.5556
vn -0.0000 0.7072 0.7070
vn -0.0000 0.7070 0.7073
vn -0.0000 0.7071 0.7071
vn -0.0000 0.9952 -0.0980
vn -0.0000 0.9808 -0.1951
vn -0.0000 0.9569 -0.2903
vn -0.0000 0.9239 -0.3827
vn -0.0000 0.8819 -0.4714
vn -0.0000 0.8315 -0.5555
vn -0.0000 0.7730 -0.6344
vn -0.0000 0.8315 -0.5556
vn -0.0000 0.7072 -0.7070
vn -0.0000 0.7071 -0.7071
vn -0.0000 0.6344 -0.7730
vn -0.0000 0.5556 -0.8314
vn -0.0000 0.5555 -0.8315
vn -0.0000 0.4714 -0.8819
vn -0.0000 0.3827 -0.9239
vn -0.0000 0.0980 -0.9952
vn -0.0000 0.1951 -0.9808
vn -0.0000 0.2903 -0.9569
vn -0.0000 0.5556 -0.8315
vn -0.0000 0.7070 -0.7073
vn -0.0000 0.8314 -0.5556
vn -0.0000 0.9808 -0.1950
vn -0.0000 0.7074 -0.7068
vn -0.0000 0.8314 -0.5557
vn -0.0000 0.7068 -0.7074
vn -0.0000 0.1950 -0.9808
vn -0.0000 0.3826 -0.9239
vn -0.0000 0.7068 -0.7075
vn -0.0000 -0.1950 -0.9808
vn -0.0000 -0.3826 -0.9239
vn -0.0000 -0.5555 -0.8315
vn -0.0000 -0.7074 -0.7068
vn -0.0000 -0.8314 -0.5557
vn -0.0000 -0.9808 -0.1950
vn -0.0000 -0.9808 -0.1952
vn -0.0000 -0.7068 -0.7074
vn -0.0000 -0.7068 -0.7075
vn -0.0000 -0.9808 0.1950
vn -0.0000 -0.9808 0.1952
vn -0.0000 -0.7074 0.7068
vn -0.0000 -0.8314 0.5557
vn -0.0000 -0.7068 0.7074
vn -0.0000 -0.1950 0.9808
vn -0.0000 -0.3826 0.9239
vn -0.0000 -0.5555 0.8315
vn -0.0000 -0.7068 0.7075
vn -0.0000 0.1952 -0.9808
vn -0.0000 0.7070 -0.7072
vn -0.0000 0.9239 -0.3826
vn -0.0000 0.9239 0.3826
vn -0.0000 0.7070 0.7072
vn -0.0000 0.9808 0.1950
vn -0.0000 0.1950 0.9808
vn -0.0000 0.1952 0.9808
vn -0.0000 0.3826 0.9239
vn -0.0000 0.8314 0.5557
vn -0.0000 -0.9239 -0.3826
vn -0.0000 -0.7070 -0.7072
vn -0.0000 -0.1952 -0.9808
vn -0.0000 -0.7070 0.7072
vn -0.0000 -0.9239 0.3826
vn -0.0000 -0.1952 0.9808
vn -0.0000 0.7074 0.7068
vn -0.0000 0.7068 0.7074
vn -0.0000 0.7068 0.7075
vn -0.0001 -0.0000 -1.0000
vn -0.0000 1.0000 0.0001
vn 0.0001 -0.0000 1.0000
vn -0.0000 1.0000 -0.0001
vn -0.0000 -0.7071 -0.7072
vn -0.0000 -0.7071 0.7072
vn -0.0000 0.3825 0.9239
vn -0.0000 0.9238 -0.3828
vn -0.0000 0.3825 -0.9239
vn -0.0000 0.9238 0.3828
vn 0.1724 -0.0000 -0.9850
vn 0.0001 -0.0000 -1.0000
vn 0.1724 0.9850 -0.0000
vn 0.1724 -0.0000 0.9850
vn 0.1724 -0.9850 -0.0000
vn 0.1105 -0.0000 0.9939
vn 0.1104 -0.0000 0.9939
s 1
usemtl Diffuse_51_51_51_100.031
f 1//1 2//1 3//1
f 4//1 5//1 6//1
f 7//1 8//1 9//1
f 10//1 11//1 12//1
f 13//1 14//1 15//1
f 3//1 16//1 1//1
f 3//1 2//1 17//1
f 18//1 13//1 1//1
f 19//1 1//1 16//1
f 20//1 1//1 19//1
f 21//1 1//1 20//1
f 22//1 1//1 21//1
f 23//1 1//1 22//1
f 1//1 23//1 24//1
f 1//1 24//1 25//1
f 1//1 25//1 26//1
f 1//1 26//1 18//1
f 13//1 18//1 27//1
f 13//1 27//1 28//1
f 13//1 28//1 29//1
f 13//1 29//1 30//1
f 13//1 30//1 14//1
f 31//1 14//1 32//1
f 14//1 33//1 32//1
f 34//1 35//1 36//1
f 33//1 35//1 34//1
f 36//1 37//1 38//1
f 38//1 39//1 40//1
f 39//1 41//1 40//1
f 41//1 42//1 43//1
f 42//1 44//1 43//1
f 45//1 46//1 47//1
f 45//1 47//1 48//1
f 48//1 49//1 50//1
f 51//1 50//1 49//1
f 52//1 53//1 51//1
f 54//1 53//1 52//1
f 55//1 54//1 56//1
f 55//1 56//1 57//1
f 58//1 57//1 59//1
f 60//1 61//1 62//1
f 61//1 59//1 62//1
f 60//1 62//1 63//1
f 58//1 59//1 61//1
f 64//1 65//1 66//1
f 67//1 65//1 64//1
f 68//1 69//1 70//1
f 69//1 71//1 70//1
f 72//1 4//1 68//1
f 68//1 73//1 74//1
f 75//1 4//1 72//1
f 76//1 73//1 68//1
f 77//1 4//1 75//1
f 78//1 4//1 77//1
f 79//1 4//1 78//1
f 80//1 4//1 79//1
f 4//1 80//1 81//1
f 76//1 68//1 82//1
f 4//1 83//1 84//1
f 85//1 86//1 63//1
f 85//1 65//1 67//1
f 85//1 67//1 86//1
f 63//1 86//1 60//1
f 5//1 4//1 87//1
f 9//1 88//1 7//1
f 9//1 8//1 89//1
f 90//1 91//1 7//1
f 92//1 7//1 88//1
f 93//1 7//1 92//1
f 94//1 7//1 93//1
f 95//1 7//1 94//1
f 96//1 7//1 95//1
f 7//1 96//1 97//1
f 7//1 97//1 98//1
f 7//1 98//1 99//1
f 7//1 99//1 90//1
f 91//1 90//1 100//1
f 91//1 100//1 101//1
f 91//1 101//1 102//1
f 91//1 102//1 103//1
f 91//1 103//1 69//1
f 91//1 69//1 68//1
f 70//1 82//1 68//1
f 4//1 81//1 83//1
f 84//1 87//1 4//1
f 6//1 5//1 104//1
f 66//1 70//1 71//1
f 66//1 71//1 64//1
f 32//1 33//1 34//1
f 57//1 58//1 55//1
f 56//1 54//1 52//1
f 51//1 53//1 50//1
f 47//1 49//1 48//1
f 105//1 46//1 45//1
f 44//1 42//1 106//1
f 44//1 106//1 105//1
f 43//1 40//1 41//1
f 39//1 38//1 37//1
f 37//1 36//1 35//1
f 107//1 31//1 32//1
f 108//1 31//1 107//1
f 109//1 31//1 108//1
f 31//1 109//1 110//1
f 31//1 111//1 10//1
f 111//1 112//1 10//1
f 113//1 10//1 114//1
f 10//1 115//1 114//1
f 116//1 10//1 113//1
f 117//1 10//1 116//1
f 10//1 117//1 118//1
f 10//1 118//1 119//1
f 112//1 115//1 10//1
f 31//1 110//1 111//1
f 74//1 72//1 68//1
f 120//1 10//1 119//1
f 106//1 46//1 105//1
f 11//1 10//1 120//1
f 11//1 121//1 12//1
f 15//1 14//1 31//1
f 122//2 123//3 124//4
f 124//4 123//3 125//5
f 126//4 122//2 124//4
f 124//4 127//6 128//7
f 129//3 130//8 124//4
f 124//4 130//8 127//6
f 131//9 129//3 124//4
f 124//3 132//3 133//3
f 133//3 134//3 135//3
f 133//3 136//3 137//3
f 124//3 133//3 137//3
f 126//4 124//4 128//7
f 138//3 124//3 139//3
f 140//10 141//10 142//10
f 141//10 140//10 143//10
f 143//10 144//10 145//10
f 143//10 146//10 147//10
f 143//10 145//10 141//10
f 148//11 149//11 150//11
f 149//11 151//11 150//11
f 150//11 152//11 153//11
f 154//12 150//13 155//12
f 154//12 156//14 150//13
f 150//13 157//15 158//12
f 150//13 159//16 157//15
f 160//11 150//13 158//12
f 155//12 150//13 161//17
f 162//11 149//11 163//11
f 164//18 150//13 160//11
f 159//16 150//13 156//14
f 149//11 165//11 166//11
f 167//19 168//19 169//19
f 170//19 171//19 172//19
f 170//19 173//19 174//19
f 175//19 176//19 177//19
f 178//19 179//19 180//19
f 180//19 179//19 181//19
f 182//19 183//19 176//19
f 184//19 181//19 185//19
f 186//19 184//19 187//19
f 181//19 184//19 180//19
f 188//19 189//19 184//19
f 185//19 190//19 184//19
f 174//19 191//19 192//19
f 193//19 170//19 192//19
f 184//19 194//19 180//19
f 195//20 196//19 197//19
f 198//19 195//20 197//19
f 199//19 198//19 197//19
f 200//19 199//19 197//19
f 201//19 200//19 197//19
f 202//19 201//19 197//19
f 203//19 202//19 197//19
f 203//19 169//19 168//19
f 204//19 205//19 206//19
f 204//19 207//19 205//19
f 205//19 207//19 208//19
f 209//19 205//19 208//19
f 209//19 210//19 205//19
f 211//19 210//19 212//19
f 210//19 213//19 214//19
s 0
f 210//21 215//21 216//21
s 1
f 210//19 217//19 215//19
f 218//19 219//19 220//19
f 221//19 218//19 222//19
f 221//19 223//19 218//19
f 221//19 224//19 223//19
f 221//19 225//19 224//19
s 0
f 226//19 221//19 227//19
s 1
f 226//19 228//19 221//19
f 229//19 227//19 221//19
f 219//19 218//19 210//19
f 221//19 222//19 230//19
f 231//19 219//19 210//19
f 232//19 231//19 210//19
f 233//19 232//19 210//19
f 234//19 233//19 210//19
f 210//19 209//19 234//19
f 210//19 211//19 213//19
f 210//19 216//19 212//19
f 206//19 235//19 236//19
f 236//19 235//19 237//19
f 237//19 235//19 238//19
f 238//19 235//19 239//19
f 240//19 241//19 235//19
f 235//19 241//19 242//19
f 243//19 235//19 244//19
f 244//19 235//19 172//19
f 172//19 235//19 170//19
f 170//19 235//19 176//19
f 176//19 235//19 177//19
f 171//19 170//19 245//19
f 174//19 192//19 170//19
f 176//19 179//19 178//19
f 246//19 186//19 191//19
f 190//19 188//19 184//19
f 191//19 186//19 247//19
f 189//19 248//19 184//19
f 249//19 247//19 186//19
f 187//19 184//19 248//19
f 170//19 193//19 250//19
f 186//19 251//19 252//19
f 253//19 186//19 252//19
f 186//19 254//19 251//19
f 253//19 249//19 186//19
f 255//19 256//19 257//19
f 258//19 255//19 257//19
f 259//19 260//19 261//19
f 261//19 260//19 262//19
f 263//19 264//19 265//19
f 266//19 267//19 268//19
f 269//19 270//19 271//19
f 268//19 272//19 273//19
f 273//19 274//19 275//19
f 275//19 276//19 277//19
f 277//19 278//19 279//19
f 279//19 280//19 281//19
f 263//19 259//19 282//19
f 283//19 281//19 284//19
f 285//19 283//19 286//19
f 287//19 259//19 261//19
f 288//19 254//19 187//19
f 288//19 258//19 257//19
f 288//19 187//19 258//19
f 254//19 186//19 187//19
f 246//19 289//19 186//19
f 206//19 236//19 204//19
f 256//19 255//19 262//19
f 239//19 235//19 242//19
f 260//19 256//19 262//19
f 214//19 205//19 210//19
f 176//19 290//19 291//19
f 221//19 228//19 225//19
f 292//19 293//19 294//19
f 292//19 285//19 293//19
f 285//19 295//19 293//19
f 220//19 222//19 218//19
f 296//19 285//19 297//19
f 298//19 299//19 300//19
f 301//19 298//19 302//19
f 301//19 303//19 298//19
f 301//19 304//19 303//19
f 301//19 305//19 304//19
s 0
f 306//19 301//19 307//19
s 1
f 306//19 308//19 301//19
f 309//19 307//19 301//19
f 299//19 298//19 310//19
f 301//19 302//19 311//19
f 312//19 299//19 313//19
f 314//19 312//19 315//19
f 316//19 314//19 317//19
f 318//19 316//19 319//19
f 320//19 321//19 318//19
f 322//19 323//19 324//19
f 325//19 326//19 323//19
f 327//19 328//19 329//19
f 330//19 331//19 328//19
f 332//19 287//19 331//19
f 333//19 334//19 287//19
f 335//19 266//19 270//19
f 285//19 336//19 283//19
f 337//19 259//19 287//19
f 285//19 292//19 336//19
f 285//19 338//19 295//19
f 285//19 339//19 338//19
f 285//19 340//19 341//19
s 0
f 285//21 296//21 340//21
s 1
f 341//19 339//19 285//19
f 246//19 191//19 174//19
f 245//19 170//19 250//19
f 291//19 179//19 176//19
f 183//19 290//19 176//19
f 176//19 178//19 342//19
f 343//19 344//19 177//19
f 177//19 344//19 345//19
f 346//19 343//19 177//19
f 347//19 346//19 177//19
f 175//19 177//19 345//19
f 177//19 348//19 347//19
f 177//19 349//19 348//19
f 177//19 350//19 349//19
f 169//19 351//19 177//19
f 169//19 352//19 351//19
f 169//19 203//19 352//19
f 352//19 203//19 353//19
f 354//19 355//19 197//19
f 203//19 355//19 356//19
f 357//19 197//19 358//19
f 357//19 354//19 197//19
f 358//19 197//19 359//19
f 359//19 197//19 360//19
f 360//19 197//19 361//19
f 353//19 203//19 356//19
f 362//19 361//19 363//19
f 177//19 351//19 350//19
f 363//19 364//19 365//19
f 361//19 366//19 364//19
f 367//19 271//19 265//19
f 182//19 176//19 175//19
f 368//19 324//19 321//19
f 369//19 329//19 326//19
f 370//19 366//19 361//19
f 371//19 361//19 372//19
f 371//19 370//19 361//19
f 372//19 361//19 373//19
f 308//19 305//19 301//19
f 361//19 364//19 363//19
f 300//19 302//19 298//19
f 374//20 361//19 375//19
f 197//19 355//19 203//19
f 167//19 206//19 168//19
f 240//19 235//19 243//19
f 168//19 206//19 205//19
f 361//19 362//19 360//19
f 373//19 361//19 374//20
f 376//22 377//22 378//22
f 379//22 377//22 380//22
f 381//22 382//22 383//22
f 384//22 385//22 386//22
f 387//3 388//3 389//3
f 390//3 391//3 392//3
f 393//5 394//5 395//5
f 396//23 397//23 398//23
f 398//24 399//24 400//24
f 401//3 402//3 400//3
f 403//3 404//3 405//3
f 406//2 404//2 402//2
f 407//25 403//25 408//25
f 409//26 396//26 393//26
f 410//3 411//3 412//3
f 413//27 414//27 415//27
f 416//28 417//28 415//28
f 416//6 418//6 419//6
f 420//28 421//28 422//28
f 423//29 418//29 424//29
f 425//24 426//24 427//24
f 427//3 428//3 422//3
f 429//3 424//3 421//3
f 430//30 431//30 432//30
f 433//30 431//30 434//30
f 435//11 436//11 437//11
f 438//11 439//11 440//11
f 441//31 442//31 443//31
f 444//11 445//11 446//11
f 446//32 447//32 448//32
f 449//33 450//33 448//33
f 451//11 452//11 453//11
f 454//34 452//34 450//34
f 455//14 451//14 456//14
f 457//35 444//35 441//35
f 458//11 459//11 460//11
f 461//36 462//36 463//36
f 464//37 465//37 463//37
f 464//36 466//36 467//36
f 468//12 469//12 470//12
f 471//11 466//11 472//11
f 473//37 474//37 475//37
f 475//11 476//11 470//11
f 477//38 472//38 469//38
f 478//39 479//39 480//39
f 481//39 482//39 483//39
f 484//39 485//39 486//39
f 487//39 488//39 489//39
f 490//39 491//39 492//39
f 493//30 494//30 495//30
f 496//30 497//30 498//30
f 499//30 500//30 501//30
f 502//30 503//30 504//30
f 505//40 506//41 507//40
f 508//41 509//42 510//41
f 511//42 512//42 513//41
f 514//43 515//43 516//42
f 517//44 518//43 519//43
f 520//45 521//44 522//44
f 523//45 524//44 525//45
f 526//46 527//47 528//46
f 529//46 530//46 531//48
f 532//49 533//49 534//50
f 535//48 536//50 537//50
f 538//50 539//51 540//51
f 541//52 542//53 543//52
f 544//53 545//54 546//53
f 547//54 548//54 549//53
f 550//40 551//40 552//10
f 553//55 554//30 555//30
f 556//55 557//30 558//55
f 559//55 560//55 561//56
f 562//55 563//56 564//56
f 565//56 566//57 567//56
f 568//57 569//57 570//56
f 571//54 572//57 573//57
f 574//54 575//57 576//54
f 577//58 578//53 579//53
f 580//50 581//50 582//51
f 583//48 584//46 585//48
f 586//46 587//47 588//47
f 589//44 590//44 591//43
f 592//42 593//43 594//42
f 595//40 596//10 597//10
f 598//41 599//41 600//40
f 601//10 602//10 603//10
f 604//10 605//10 606//10
f 607//22 608//22 609//22
f 610//22 611//22 612//22
f 613//22 614//22 615//22
f 616//22 617//22 618//22
f 619//39 620//39 621//39
f 622//39 623//39 624//39
f 625//59 626//60 627//59
f 628//60 629//61 630//60
f 631//61 632//61 633//60
f 634//62 635//62 636//61
f 637//63 638//62 639//62
f 640//64 641//63 642//63
f 643//65 644//63 645//65
f 646//66 647//67 648//66
f 649//66 650//66 651//68
f 652//68 653//68 654//69
f 655//68 656//69 657//69
f 658//69 659//70 660//70
f 661//71 662//72 663//71
f 664//72 665//73 666//72
f 667//73 668//73 669//72
f 670//59 671//59 672//30
f 673//74 674//39 675//39
f 676//74 677//39 678//74
f 679//74 680//74 681//75
f 682//74 683//75 684//75
f 685//75 686//76 687//75
f 688//76 689//76 690//75
f 691//73 692//76 693//76
f 694//73 695//76 696//73
f 697//71 698//72 699//72
f 700//69 701//69 702//70
f 703//77 704//66 705//77
f 706//66 707//67 708//67
f 709//63 710//63 711//62
f 712//61 713//62 714//61
f 715//59 716//30 717//30
f 718//60 719//60 720//59
f 721//10 722//10 723//10
f 724//10 725//10 726//10
f 727//10 728//10 729//10
f 730//39 731//39 732//39
f 733//39 734//39 735//39
f 736//39 737//39 738//39
f 739//22 740//22 741//22
f 742//22 743//22 744//22
f 745//10 746//78 747//10
f 748//78 749//78 750//10
f 751//79 752//78 753//78
f 754//79 755//78 756//79
f 757//79 758//79 759//80
f 760//79 761//80 762//80
f 763//80 764//81 765//80
f 766//81 767//81 768//80
f 769//82 770//81 771//81
f 772//82 773//81 774//82
f 775//82 776//82 777//83
f 778//82 779//84 780//84
f 781//85 782//86 783//85
f 784//86 785//86 786//85
f 787//87 788//88 789//88
f 790//89 791//89 792//90
f 793//22 794//91 795//22
f 796//91 797//91 798//22
f 799//92 800//91 801//91
f 802//92 803//91 804//92
f 805//92 806//92 807//93
f 808//92 809//93 810//93
f 811//93 812//94 813//93
f 814//94 815//94 816//93
f 817//90 818//94 819//94
f 820//90 821//94 822//90
f 823//90 824//90 825//89
f 826//95 827//87 828//87
f 829//87 830//96 831//87
f 832//97 833//97 834//87
f 835//86 836//98 837//98
f 838//86 839//86 840//98
f 841//10 842//10 843//10
f 844//10 845//10 846//10
f 847//30 848//30 849//30
f 850//30 851//30 852//30
f 853//30 854//30 855//30
f 856//30 857//30 858//30
f 859//39 860//39 861//39
f 862//39 863//39 864//39
f 865//22 866//99 867//22
f 868//99 869//100 870//99
f 871//100 872//100 873//99
f 874//101 875//101 876//100
f 877//102 878//102 879//101
f 880//103 881//102 882//102
f 883//104 884//103 885//103
f 886//104 887//103 888//104
f 889//105 890//106 891//105
f 892//105 893//105 894//107
f 895//108 896//108 897//109
f 898//108 899//109 900//109
f 901//109 902//110 903//110
f 904//111 905//112 906//111
f 907//112 908//113 909//112
f 910//113 911//113 912//112
f 913//114 914//39 915//39
f 916//114 917//39 918//114
f 919//114 920//114 921//115
f 922//114 923//115 924//115
f 925//115 926//116 927//115
f 928//116 929//116 930//115
f 931//113 932//116 933//116
f 934//113 935//116 936//113
f 937//117 938//112 939//112
f 940//109 941//109 942//110
f 943//118 944//105 945//118
f 946//105 947//119 948//119
f 949//103 950//103 951//102
f 952//101 953//102 954//101
f 955//99 956//22 957//99
f 958//100 959//100 960//101
f 961//10 962//10 963//10
f 964//10 965//10 966//10
f 967//10 968//10 969//10
f 970//39 971//39 972//39
f 973//39 974//39 975//39
f 976//39 977//39 978//39
f 979//22 980//22 981//120
f 982//120 983//22 984//120
f 985//100 986//102 987//100
f 988//100 989//102 990//102
f 991//102 992//102 993//104
f 994//106 995//102 996//106
f 997//121 998//122 999//119
f 1000//117 1001//108 1002//108
f 1003//123 1004//123 1005//119
f 1006//124 1007//39 1008//39
f 1009//124 1010//124 1011//39
f 1012//115 1013//125 1014//115
f 1015//115 1016//125 1017//125
f 1018//113 1019//113 1020//111
f 1021//111 1022//113 1023//111
f 1024//126 1025//117 1026//117
f 1027//39 1028//127 1029//39
f 1030//39 1031//127 1032//127
f 1033//75 1034//75 1035//128
f 1036//128 1037//75 1038//128
f 1039//70 1040//77 1041//77
f 1042//129 1043//73 1044//129
f 1045//130 1046//67 1047//131
f 1048//71 1049//73 1050//73
f 1051//132 1052//30 1053//30
f 1054//132 1055//132 1056//30
f 1057//60 1058//62 1059//133
f 1060//133 1061//62 1062//62
f 1063//62 1064//62 1065//65
f 1066//64 1067//62 1068//64
f 1069//134 1070//67 1071//134
f 1072//135 1073//70 1074//71
f 431//30 1075//30 1076//136
f 1077//136 431//30 1078//136
f 1079//137 1080//54 1081//56
f 1082//137 1083//54 1084//54
f 1085//54 1086//54 1087//52
f 1088//52 1089//54 1090//58
f 1091//138 1092//139 1093//51
f 1094//47 1095//49 1096//49
f 1097//140 1098//140 1099//51
f 1100//141 1101//10 1102//10
f 1103//141 1104//141 1105//10
f 1106//41 1107//142 1108//41
f 1109//41 1110//142 1111//142
f 1112//43 1113//43 1114//45
f 1115//143 1116//43 1117//143
f 1118//144 1119//45 1120//47
f 1121//145 1122//125 1123//115
f 1124//113 1125//111 1126//113
f 1127//111 1128//111 1129//113
f 1130//146 1131//146 1132//110
f 1133//119 1134//146 1135//146
f 1136//102 1137//106 1138//106
f 1139//102 1140//104 1141//102
f 1142//124 1143//124 1144//39
f 1145//120 1146//22 1147//22
f 1148//120 1149//22 1150//120
f 1151//100 1152//100 1153//147
f 1154//100 1155//147 1156//147
f 1157//122 1158//119 1159//107
f 1160//110 1161//146 1162//110
f 1163//124 1164//39 1165//39
f 1166//125 1167//125 1168//115
f 1169//92 1170//148 1171//92
f 1172//94 1173//89 1174//94
f 1175//95 1176//95 1177//94
f 1178//149 1179//149 1180//88
f 1181//85 1182//149 1183//149
f 1184//81 1185//84 1186//84
f 1187//81 1188//84 1189//81
f 1190//150 1191//150 1192//22
f 1193//151 1194//10 1195//10
f 1196//151 1197//10 1198//151
f 1199//79 1200//152 1201//153
f 1202//79 1203//153 1204//153
f 1205//85 1206//85 1207//149
f 1208//88 1209//96 1210//154
f 1211//150 1212//22 1213//22
f 1214//148 1215//148 1216//92
f 1217//133 1218//155 1219//133
f 1220//62 1221//65 1222//62
f 1223//64 1224//64 1225//62
f 1226//156 1227//156 1228//67
f 1229//70 1230//156 1231//156
f 1232//73 1233//129 1234//129
f 1235//73 1236//129 1237//73
f 1238//39 1239//39 1240//127
f 1241//39 1242//127 1243//127
f 1244//75 1245//128 1246//75
f 1247//132 1248//132 1249//30
f 1250//128 1251//157 1252//128
f 1253//132 1254//30 1255//30
f 1256//133 1257//155 1258//155
f 1259//67 1260//156 1261//131
f 1262//70 1263//70 1264//156
f 1265//39 1266//39 1267//124
f 1268//124 1269//39 1270//124
f 1271//125 1272//145 1273//115
f 1274//125 1275//125 1276//115
f 1277//113 1278//111 1279//113
f 1280//113 1281//111 1282//111
f 1283//117 1284//108 1285//108
f 377//22 1286//22 1287//120
f 1288//120 1289//120 377//22
f 1290//100 1291//102 1292//100
f 1293//100 1294//102 1295//102
f 1296//102 1297//102 1298//104
f 1299//106 1300//102 1301//106
f 1302//121 1303//122 1304//119
f 1305//123 1306//123 1307//119
f 1308//126 1309//117 1310//117
f 1311//30 434//30 1312//132
f 1313//132 434//30 1314//132
f 1315//62 1316//133 1317//60
f 1318//62 1319//62 1320//133
f 1321//62 1322//65 1323//62
f 1324//62 1325//65 1326//64
f 1327//67 1328//131 1329//130
f 1330//134 1331//67 1332//134
f 1333//70 1334//77 1335//77
f 1336//39 1337//39 1338//127
f 1339//127 1340//39 1341//127
f 1342//128 1343//157 1344//157
f 1345//129 1346//73 1347//129
f 1348//71 1349//73 1350//73
f 1351//135 1352//70 1353//71
f 1354//128 1355//75 1356//128
f 1357//141 1358//141 1359//10
f 1360//142 1361//41 1362//41
f 1363//143 1364//43 1365//43
f 1366//143 1367//43 1368//143
f 1369//158 1370//47 1371//158
f 1372//158 1373//158 1374//51
f 1375//52 1376//58 1377//54
f 1378//30 1379//136 1380//30
f 1381//136 1382//136 1383//30
f 1384//159 1385//137 1386//137
f 1387//159 1388//137 1389//159
f 1390//54 1391//54 1392//52
f 1393//51 1394//51 1395//158
f 1396//47 1397//158 1398//47
f 1399//141 1400//10 1401//10
f 1402//142 1403//142 1404//160
f 1405//10 1406//151 1407//10
f 1408//10 1409//151 1410//151
f 1411//79 1412//79 1413//153
f 1414//153 1415//79 1416//153
f 1417//83 1418//98 1419//98
f 1420//84 1421//81 1422//84
f 1423//161 1424//88 1425//154
f 1426//84 1427//81 1428//81
f 1429//150 1430//22 380//22
f 1431//150 1432//150 380//22
f 1433//92 1434//94 1435//92
f 1436//92 1437//94 1438//94
f 1439//94 1440//94 1441//89
f 1442//89 1443//94 1444//95
f 1445//162 1446//88 1447//162
f 1448//163 1449//83 1450//83
f 1451//30 1452//30 1453//30
f 1452//30 1454//30 1455//30
f 1456//164 1457//164 1458//164
f 1459//39 1460//39 1458//39
f 1461//39 1462//39 1463//39
f 1464//30 1465//30 1466//30
f 1467//30 1468//30 1464//30
f 1469//30 1464//30 1470//30
f 1471//39 1472//39 1473//39
f 1474//39 1475//39 1476//39
f 1477//22 1478//22 1479//22
f 1480//165 1481//165 1479//165
f 1482//22 1483//22 1484//22
f 1485//39 1486//39 1487//39
f 1488//39 1489//39 1485//39
f 1490//39 1485//39 1491//39
f 1492//22 1493//22 1494//22
f 1495//22 1496//22 1497//22
f 1498//166 1499//166 1500//166
f 1501//10 1502//10 1500//10
f 1503//10 1504//10 1505//10
f 1506//22 1507//22 1508//22
f 1509//167 1510//167 1506//167
f 1511//22 1506//22 1512//22
f 1513//10 1514//10 1515//10
f 1516//10 1517//10 1518//10
f 1519//30 1520//30 1521//30
f 1522//30 1523//30 1521//30
f 1524//30 1525//30 1526//30
f 1527//75 1528//75 1529//39
f 1530//128 1528//75 1527//75
f 1531//71 1532//73 1530//128
f 1533//71 1532//73 1531//71
f 1534//168 1533//71 1535//68
f 1534//168 1535//68 1536//64
f 1537//64 1536//64 1538//155
f 1537//64 1538//155 1539//62
f 1539//62 1540//60 1541//60
f 1540//60 1542//30 1541//60
f 1542//30 1543//56 1544//30
f 1543//56 1545//56 1544//30
f 1546//54 1547//159 1545//56
f 1548//58 1547//159 1546//54
f 1549//169 1550//58 1548//58
f 1551//48 1550//58 1549//169
f 1552//45 1551//48 1553//45
f 1552//45 1553//45 1554//43
f 1555//142 1554//43 1556//41
f 1555//142 1556//41 1557//41
f 1557//41 1558//10 1559//10
f 1558//10 1560//79 1559//10
f 1561//79 1562//170 1563//81
f 1563//81 1562//170 1564//83
f 1565//22 1566//22 1567//92
f 1568//100 1569//100 1566//22
f 1570//171 1571//102 1569//100
f 1572//106 1573//106 1571//102
f 1574//107 1573//106 1572//106
f 1575//117 1576//108 1574//107
f 1577//117 1576//108 1575//117
f 1578//172 1577//117 1579//113
f 1553//45 1551//48 1549//169
f 1580//115 1581//115 1529//39
f 1578//172 1581//115 1580//115
f 1579//113 1581//115 1578//172
f 1575//117 1579//113 1577//117
f 1573//106 1574//107 1576//108
f 1571//102 1570//171 1572//106
f 1569//100 1568//100 1570//171
f 1580//115 1529//39 1582//39
f 1566//22 1565//22 1568//100
f 1567//92 1583//92 1565//22
f 1584//173 1583//92 1567//92
f 1585//94 1583//92 1584//173
f 1585//94 1584//173 1586//95
f 1585//94 1586//95 1587//95
f 1586//95 1588//96 1587//95
f 1588//96 1589//98 1587//95
f 1590//83 1589//98 1588//96
f 1564//83 1589//98 1590//83
f 1564//83 1590//83 1563//81
f 1562//170 1561//79 1560//79
f 1561//79 1559//10 1560//79
f 1558//10 1557//41 1556//41
f 1554//43 1555//142 1552//45
f 1547//159 1548//58 1550//58
f 1545//56 1543//56 1546//54
f 1544//30 1541//60 1542//30
f 1540//60 1539//62 1538//155
f 1536//64 1537//64 1534//168
f 1531//71 1535//68 1533//71
f 1528//75 1530//128 1532//73
f 1528//75 1582//39 1529//39
f 1591//10 1592//10 1593//10
f 1594//10 1595//10 1596//10
f 1597//10 1598//10 1599//10
f 1600//19 1601//19 1602//19
f 1603//19 1604//19 1605//19
f 1606//19 1607//19 1608//19
f 1600//19 1609//19 1610//19
f 1611//19 1612//19 1613//19
f 1614//19 1615//19 1616//19
f 1617//19 1618//19 1619//19
f 1620//19 1621//19 1622//19
f 1623//19 1624//19 1625//19
f 1626//19 1627//19 1628//19
f 1629//19 1630//19 1631//19
f 1632//19 1633//19 1634//19
f 1635//19 1636//19 1637//19
f 1638//19 1639//19 1640//19
f 1641//19 1642//19 1600//19
f 1643//19 1644//19 1600//19
f 1645//19 1646//19 1647//19
f 1648//19 1649//19 1650//19
f 1651//19 1652//19 1653//19
f 1654//19 1655//19 1656//19
f 1657//19 1658//19 1659//19
f 1659//19 1660//19 1661//19
f 1662//19 1663//19 1659//19
f 1664//19 1665//19 1659//19
f 1666//19 1667//19 1659//19
f 1668//19 1669//19 1670//19
f 1671//19 1672//19 1673//19
f 1659//19 1674//19 1675//19
f 1626//19 1676//19 1677//19
f 1678//19 1679//19 1626//19
f 1680//19 1681//19 1626//19
f 1682//19 1683//19 1684//19
f 1685//19 1686//19 1687//19
f 1688//19 1689//19 1690//19
f 1691//19 1692//19 1693//19
f 1617//19 1694//19 1695//19
f 1617//19 1696//19 1697//19
f 1698//19 1699//19 1617//19
f 1700//19 1701//19 1617//19
f 1702//19 1703//19 1704//19
f 1705//19 1706//19 1707//19
f 1708//19 1709//19 1710//19
f 1711//19 1712//19 1713//19
f 1600//19 1714//19 1715//19
f 1626//19 1716//19 1717//19
f 1600//19 1718//19 1719//19
f 1626//19 1720//19 1721//19
f 1722//19 1723//19 1617//19
f 1724//19 1725//19 1726//19
s 0
f 1727//20 1728//20 1729//20
s 1
f 1730//19 1731//19 1732//19
f 1733//19 1734//19 1735//19
f 1736//19 1737//19 1738//19
f 1739//19 1740//19 1741//19
f 1742//19 1743//19 1744//19
f 1745//19 1746//19 1747//19
f 1748//19 1749//19 1750//19
f 1751//19 1752//19 1753//19
f 1754//19 1755//19 1756//19
f 1757//19 1758//19 1759//19
f 1760//19 1761//19 1762//19
f 1763//19 1764//19 1765//19
f 1766//19 1767//19 1768//19
f 1769//19 1770//19 1771//19
f 1772//19 1773//19 1774//19
f 1775//19 1776//19 1777//19
f 1778//19 1779//19 1780//19
f 1781//19 1782//19 1783//19
f 1784//19 1785//19 1786//19
f 1787//19 1788//19 1789//19
f 1790//19 1791//19 1792//19
f 1793//19 1794//19 1795//19
f 1796//19 1797//19 1798//19
f 1799//19 1800//19 1801//19
f 1802//19 1803//19 1804//19
s 0
f 1805//21 1806//21 1807//21
s 1
f 1808//19 1809//19 1810//19
f 1811//19 1812//19 1813//19
f 1814//174 1815//174 1816//174
f 1817//174 1818//174 1471//39
f 1471//175 1819//174 1820//174
f 1821//176 1822//176 1823//176
f 1824//176 1825//176 1492//22
f 1492//22 1826//176 1827//176
f 1828//177 1829//177 1830//177
f 1831//177 1832//177 1513//10
f 1513//166 1833//177 1834//177
f 1835//178 1836//178 1452//30
f 1837//178 1838//178 1451//30
f 1451//30 1839//178 1452//30
f 1840//39 1841//39 1842//39
f 1843//39 1844//39 1842//39
f 1845//39 1840//39 1846//39
f 1847//30 1848//30 1849//30
f 1850//30 1851//30 1852//30
f 1853//10 1854//10 1855//10
f 1856//10 1857//10 1858//10
f 1859//22 1860//22 1861//22
f 1862//22 1863//22 1864//22
f 1865//19 1866//19 1867//19
f 1868//19 1869//19 1870//19
f 1871//179 1872//179 1873//179
f 1872//180 1874//180 1875//180
f 1876//179 1872//179 1877//179
f 1872//180 1878//180 1879//180
f 1880//1 1881//1 1882//1
f 1883//1 1884//1 1885//1
f 1886//1 1887//1 1888//1
f 1889//1 1890//1 1891//1
