# Blender 4.4.3
# www.blender.org
mtllib Mesh_16.mtl
o Mesh_16
v 0.013945 0.022016 -0.014763
v 0.013945 0.022016 -0.014443
v 0.013945 0.022001 -0.014763
v 0.013945 0.022001 -0.014443
v 0.013185 0.022016 -0.014803
v 0.013905 0.022016 -0.014803
v 0.013185 0.022001 -0.014803
v 0.013905 0.022001 -0.014803
v 0.013145 0.022016 -0.014443
v 0.013145 0.022016 -0.014763
v 0.013145 0.022001 -0.014443
v 0.013145 0.022001 -0.014763
v 0.013905 0.022016 -0.014403
v 0.013185 0.022016 -0.014403
v 0.013905 0.022001 -0.014403
v 0.013185 0.022001 -0.014403
v 0.013905 0.022041 -0.014428
v 0.013905 0.022041 -0.014778
v 0.013185 0.022041 -0.014778
v 0.013920 0.022041 -0.014763
v 0.013918 0.022041 -0.014769
v 0.013915 0.022041 -0.014773
v 0.013910 0.022041 -0.014777
v 0.013920 0.022041 -0.014443
v 0.013918 0.022041 -0.014437
v 0.013910 0.022041 -0.014429
v 0.013915 0.022041 -0.014432
v 0.013185 0.022041 -0.014428
v 0.013170 0.022041 -0.014443
v 0.013171 0.022041 -0.014437
v 0.013174 0.022041 -0.014432
v 0.013179 0.022041 -0.014429
v 0.013170 0.022041 -0.014763
v 0.013171 0.022041 -0.014769
v 0.013179 0.022041 -0.014777
v 0.013174 0.022041 -0.014773
v 0.013905 0.022001 -0.014403
v 0.013945 0.022001 -0.014763
v 0.013945 0.022001 -0.014443
v 0.013905 0.022001 -0.014403
v 0.013945 0.022001 -0.014443
v 0.013944 0.022001 -0.014435
v 0.013905 0.022001 -0.014403
v 0.013942 0.022001 -0.014428
v 0.013905 0.022001 -0.014403
v 0.013938 0.022001 -0.014421
v 0.013927 0.022001 -0.014410
v 0.013905 0.022001 -0.014403
v 0.013933 0.022001 -0.014415
v 0.013905 0.022001 -0.014403
v 0.013920 0.022001 -0.014406
v 0.013905 0.022001 -0.014403
v 0.013912 0.022001 -0.014404
v 0.013905 0.022001 -0.014403
v 0.013905 0.022001 -0.014403
v 0.013185 0.022001 -0.014403
v 0.013905 0.022001 -0.014803
v 0.013905 0.022001 -0.014803
v 0.013185 0.022001 -0.014403
v 0.013185 0.022001 -0.014803
v 0.013185 0.022001 -0.014403
v 0.013145 0.022001 -0.014443
v 0.013185 0.022001 -0.014803
v 0.013177 0.022001 -0.014404
v 0.013145 0.022001 -0.014443
v 0.013185 0.022001 -0.014403
v 0.013169 0.022001 -0.014406
v 0.013145 0.022001 -0.014443
v 0.013145 0.022001 -0.014443
v 0.013156 0.022001 -0.014415
v 0.013151 0.022001 -0.014421
v 0.013162 0.022001 -0.014410
v 0.013145 0.022001 -0.014443
v 0.013145 0.022001 -0.014443
v 0.013148 0.022001 -0.014428
v 0.013145 0.022001 -0.014443
v 0.013145 0.022001 -0.014763
v 0.013185 0.022001 -0.014803
v 0.013145 0.022001 -0.014443
v 0.013145 0.022001 -0.014763
v 0.013145 0.022001 -0.014771
v 0.013185 0.022001 -0.014803
v 0.013185 0.022001 -0.014803
v 0.013148 0.022001 -0.014778
v 0.013185 0.022001 -0.014803
v 0.013151 0.022001 -0.014785
v 0.013185 0.022001 -0.014803
v 0.013156 0.022001 -0.014791
v 0.013169 0.022001 -0.014800
v 0.013185 0.022001 -0.014803
v 0.013162 0.022001 -0.014796
v 0.013185 0.022001 -0.014803
v 0.013177 0.022001 -0.014802
v 0.013185 0.022001 -0.014803
v 0.013145 0.022001 -0.014443
v 0.013145 0.022001 -0.014435
v 0.013905 0.022001 -0.014803
v 0.013945 0.022001 -0.014763
v 0.013905 0.022001 -0.014403
v 0.013912 0.022001 -0.014802
v 0.013920 0.022001 -0.014800
v 0.013945 0.022001 -0.014763
v 0.013927 0.022001 -0.014796
v 0.013945 0.022001 -0.014763
v 0.013942 0.022001 -0.014778
v 0.013945 0.022001 -0.014763
v 0.013938 0.022001 -0.014785
v 0.013945 0.022001 -0.014763
v 0.013933 0.022001 -0.014791
v 0.013944 0.022001 -0.014771
v 0.013945 0.022001 -0.014763
v 0.013945 0.022001 -0.014763
v 0.013945 0.022001 -0.014763
v 0.013905 0.022001 -0.014803
v 0.013912 0.022001 -0.014802
v 0.013912 0.022016 -0.014802
v 0.013920 0.022001 -0.014800
v 0.013920 0.022001 -0.014800
v 0.013920 0.022016 -0.014800
v 0.013927 0.022001 -0.014796
v 0.013927 0.022001 -0.014796
v 0.013927 0.022016 -0.014796
v 0.013933 0.022001 -0.014791
v 0.013933 0.022016 -0.014791
v 0.013938 0.022001 -0.014785
v 0.013938 0.022016 -0.014785
v 0.013942 0.022001 -0.014778
v 0.013942 0.022016 -0.014778
v 0.013944 0.022001 -0.014771
v 0.013944 0.022016 -0.014771
v 0.013944 0.022001 -0.014771
v 0.013944 0.022001 -0.014771
v 0.013942 0.022001 -0.014778
v 0.013942 0.022001 -0.014778
v 0.013938 0.022001 -0.014785
v 0.013938 0.022001 -0.014785
v 0.013933 0.022001 -0.014791
v 0.013933 0.022001 -0.014791
v 0.013927 0.022001 -0.014796
v 0.013912 0.022001 -0.014802
v 0.013920 0.022001 -0.014800
v 0.013145 0.022001 -0.014771
v 0.013145 0.022016 -0.014771
v 0.013148 0.022001 -0.014778
v 0.013145 0.022001 -0.014771
v 0.013151 0.022001 -0.014785
v 0.013148 0.022001 -0.014778
v 0.013148 0.022016 -0.014778
v 0.013151 0.022016 -0.014785
v 0.013151 0.022001 -0.014785
v 0.013156 0.022016 -0.014791
v 0.013156 0.022001 -0.014791
v 0.013162 0.022001 -0.014796
v 0.013156 0.022001 -0.014791
v 0.013162 0.022016 -0.014796
v 0.013169 0.022001 -0.014800
v 0.013162 0.022001 -0.014796
v 0.013177 0.022001 -0.014802
v 0.013177 0.022016 -0.014802
v 0.013169 0.022016 -0.014800
v 0.013177 0.022001 -0.014802
v 0.013169 0.022001 -0.014800
v 0.013177 0.022001 -0.014802
v 0.013169 0.022001 -0.014800
v 0.013162 0.022001 -0.014796
v 0.013151 0.022001 -0.014785
v 0.013156 0.022001 -0.014791
v 0.013148 0.022001 -0.014778
v 0.013177 0.022001 -0.014404
v 0.013177 0.022016 -0.014404
v 0.013169 0.022001 -0.014406
v 0.013169 0.022001 -0.014406
v 0.013169 0.022016 -0.014406
v 0.013162 0.022001 -0.014410
v 0.013162 0.022001 -0.014410
v 0.013162 0.022016 -0.014410
v 0.013156 0.022001 -0.014415
v 0.013156 0.022016 -0.014415
v 0.013151 0.022001 -0.014421
v 0.013156 0.022001 -0.014415
v 0.013148 0.022001 -0.014428
v 0.013151 0.022001 -0.014421
v 0.013151 0.022016 -0.014421
v 0.013148 0.022016 -0.014428
v 0.013148 0.022001 -0.014428
v 0.013145 0.022016 -0.014435
v 0.013145 0.022001 -0.014435
v 0.013145 0.022001 -0.014435
v 0.013145 0.022001 -0.014435
v 0.013148 0.022001 -0.014428
v 0.013177 0.022001 -0.014404
v 0.013151 0.022001 -0.014421
v 0.013162 0.022001 -0.014410
v 0.013156 0.022001 -0.014415
v 0.013169 0.022001 -0.014406
v 0.013944 0.022001 -0.014435
v 0.013944 0.022016 -0.014435
v 0.013942 0.022001 -0.014428
v 0.013944 0.022001 -0.014435
v 0.013938 0.022016 -0.014421
v 0.013938 0.022001 -0.014421
v 0.013942 0.022016 -0.014428
v 0.013933 0.022016 -0.014415
v 0.013933 0.022001 -0.014415
v 0.013927 0.022016 -0.014410
v 0.013927 0.022001 -0.014410
v 0.013920 0.022016 -0.014406
v 0.013920 0.022001 -0.014406
v 0.013912 0.022001 -0.014404
v 0.013912 0.022016 -0.014404
v 0.013912 0.022001 -0.014404
v 0.013912 0.022001 -0.014404
v 0.013920 0.022001 -0.014406
v 0.013920 0.022001 -0.014406
v 0.013927 0.022001 -0.014410
v 0.013927 0.022001 -0.014410
v 0.013933 0.022001 -0.014415
v 0.013942 0.022001 -0.014428
v 0.013938 0.022001 -0.014421
v 0.013942 0.022001 -0.014428
v 0.013933 0.022001 -0.014415
v 0.013938 0.022001 -0.014421
v 0.013924 0.022041 -0.014763
v 0.013924 0.022041 -0.014443
v 0.013929 0.022039 -0.014763
v 0.013929 0.022039 -0.014443
v 0.013934 0.022037 -0.014763
v 0.013934 0.022037 -0.014443
v 0.013937 0.022034 -0.014763
v 0.013937 0.022034 -0.014443
v 0.013940 0.022030 -0.014763
v 0.013940 0.022030 -0.014443
v 0.013944 0.022021 -0.014443
v 0.013944 0.022021 -0.014763
v 0.013943 0.022026 -0.014443
v 0.013943 0.022026 -0.014763
v 0.013944 0.022020 -0.014769
v 0.013916 0.022034 -0.014793
v 0.013915 0.022036 -0.014791
v 0.013921 0.022034 -0.014790
v 0.013910 0.022032 -0.014797
v 0.013905 0.022034 -0.014796
v 0.013924 0.022040 -0.014777
v 0.013921 0.022041 -0.014773
v 0.013927 0.022040 -0.014771
v 0.013920 0.022038 -0.014784
v 0.013915 0.022040 -0.014783
v 0.013912 0.022039 -0.014788
v 0.013905 0.022037 -0.014792
v 0.013930 0.022038 -0.014771
v 0.013928 0.022038 -0.014777
v 0.013921 0.022025 -0.014797
v 0.013917 0.022028 -0.014798
v 0.013926 0.022028 -0.014793
v 0.013917 0.022024 -0.014799
v 0.013931 0.022036 -0.014778
v 0.013928 0.022034 -0.014785
v 0.013939 0.022029 -0.014776
v 0.013936 0.022032 -0.014777
v 0.013939 0.022032 -0.014768
v 0.013937 0.022027 -0.014782
v 0.013931 0.022032 -0.014784
v 0.013942 0.022024 -0.014771
v 0.013942 0.022022 -0.014775
v 0.013941 0.022026 -0.014775
v 0.013925 0.022033 -0.014790
v 0.013921 0.022032 -0.014794
v 0.013909 0.022028 -0.014800
v 0.013905 0.022026 -0.014801
v 0.013905 0.022030 -0.014799
v 0.013937 0.022024 -0.014784
v 0.013941 0.022028 -0.014769
v 0.013928 0.022020 -0.014795
v 0.013933 0.022021 -0.014790
v 0.013929 0.022030 -0.014789
v 0.013909 0.022024 -0.014801
v 0.013905 0.022021 -0.014802
v 0.013938 0.022020 -0.014784
v 0.013932 0.022027 -0.014789
v 0.013928 0.022024 -0.014793
v 0.013913 0.022020 -0.014802
v 0.013922 0.022021 -0.014798
v 0.013935 0.022035 -0.014773
v 0.013905 0.022041 -0.014783
v 0.013905 0.022039 -0.014787
v 0.013911 0.022020 -0.014404
v 0.013905 0.022021 -0.014403
v 0.013935 0.022034 -0.014432
v 0.013933 0.022036 -0.014433
v 0.013932 0.022034 -0.014426
v 0.013939 0.022032 -0.014437
v 0.013918 0.022040 -0.014424
v 0.013915 0.022041 -0.014427
v 0.013913 0.022040 -0.014420
v 0.013926 0.022038 -0.014427
v 0.013925 0.022040 -0.014432
v 0.013929 0.022039 -0.014436
v 0.013912 0.022038 -0.014417
v 0.013905 0.022039 -0.014418
v 0.013918 0.022038 -0.014419
v 0.013939 0.022025 -0.014426
v 0.013940 0.022028 -0.014430
v 0.013934 0.022028 -0.014421
v 0.013941 0.022024 -0.014430
v 0.013920 0.022036 -0.014417
v 0.013927 0.022034 -0.014419
v 0.013918 0.022029 -0.014409
v 0.013919 0.022032 -0.014412
v 0.013909 0.022032 -0.014409
v 0.013923 0.022027 -0.014410
v 0.013926 0.022032 -0.014416
v 0.013913 0.022024 -0.014405
v 0.013916 0.022022 -0.014405
v 0.013917 0.022026 -0.014407
v 0.013905 0.022026 -0.014405
v 0.013932 0.022033 -0.014423
v 0.013935 0.022032 -0.014427
v 0.013941 0.022028 -0.014439
v 0.013905 0.022037 -0.014414
v 0.013926 0.022024 -0.014410
v 0.013911 0.022028 -0.014406
v 0.013937 0.022020 -0.014420
v 0.013932 0.022021 -0.014414
v 0.013931 0.022030 -0.014419
v 0.013943 0.022024 -0.014438
v 0.013905 0.022030 -0.014407
v 0.013905 0.022034 -0.014410
v 0.013925 0.022020 -0.014409
v 0.013930 0.022027 -0.014416
v 0.013935 0.022024 -0.014419
v 0.013943 0.022020 -0.014434
v 0.013940 0.022021 -0.014425
v 0.013914 0.022035 -0.014413
v 0.013905 0.022041 -0.014423
v 0.013185 0.022041 -0.014783
v 0.013185 0.022039 -0.014787
v 0.013185 0.022037 -0.014792
v 0.013185 0.022034 -0.014796
v 0.013185 0.022021 -0.014802
v 0.013185 0.022026 -0.014801
v 0.013185 0.022030 -0.014799
v 0.013185 0.022021 -0.014403
v 0.013185 0.022026 -0.014405
v 0.013185 0.022030 -0.014407
v 0.013185 0.022034 -0.014410
v 0.013185 0.022041 -0.014423
v 0.013185 0.022039 -0.014418
v 0.013185 0.022037 -0.014414
v 0.013178 0.022020 -0.014802
v 0.013154 0.022034 -0.014774
v 0.013157 0.022036 -0.014773
v 0.013157 0.022034 -0.014780
v 0.013151 0.022032 -0.014768
v 0.013152 0.022034 -0.014763
v 0.013171 0.022040 -0.014782
v 0.013174 0.022041 -0.014779
v 0.013176 0.022040 -0.014785
v 0.013163 0.022038 -0.014778
v 0.013165 0.022040 -0.014773
v 0.013160 0.022039 -0.014770
v 0.013156 0.022037 -0.014763
v 0.013177 0.022038 -0.014788
v 0.013171 0.022038 -0.014787
v 0.013150 0.022025 -0.014779
v 0.013150 0.022028 -0.014776
v 0.013155 0.022028 -0.014785
v 0.013148 0.022024 -0.014776
v 0.013169 0.022036 -0.014789
v 0.013163 0.022034 -0.014786
v 0.013171 0.022029 -0.014797
v 0.013170 0.022032 -0.014794
v 0.013180 0.022032 -0.014797
v 0.013166 0.022027 -0.014795
v 0.013163 0.022032 -0.014790
v 0.013176 0.022024 -0.014801
v 0.013173 0.022022 -0.014800
v 0.013172 0.022026 -0.014799
v 0.013158 0.022033 -0.014783
v 0.013154 0.022032 -0.014779
v 0.013148 0.022028 -0.014767
v 0.013147 0.022026 -0.014763
v 0.013149 0.022030 -0.014763
v 0.013163 0.022024 -0.014795
v 0.013178 0.022028 -0.014799
v 0.013152 0.022020 -0.014786
v 0.013158 0.022021 -0.014791
v 0.013158 0.022030 -0.014787
v 0.013146 0.022024 -0.014767
v 0.013145 0.022021 -0.014763
v 0.013164 0.022020 -0.014797
v 0.013159 0.022027 -0.014790
v 0.013154 0.022024 -0.014787
v 0.013146 0.022020 -0.014772
v 0.013149 0.022021 -0.014780
v 0.013175 0.022035 -0.014793
v 0.013165 0.022041 -0.014763
v 0.013160 0.022039 -0.014763
v 0.013145 0.022020 -0.014436
v 0.013145 0.022021 -0.014443
v 0.013173 0.022034 -0.014413
v 0.013174 0.022036 -0.014415
v 0.013168 0.022034 -0.014415
v 0.013179 0.022032 -0.014409
v 0.013166 0.022040 -0.014429
v 0.013168 0.022041 -0.014432
v 0.013162 0.022040 -0.014434
v 0.013169 0.022038 -0.014421
v 0.013174 0.022040 -0.014423
v 0.013178 0.022039 -0.014418
v 0.013159 0.022038 -0.014435
v 0.013160 0.022039 -0.014443
v 0.013161 0.022038 -0.014429
v 0.013168 0.022025 -0.014408
v 0.013172 0.022028 -0.014408
v 0.013163 0.022028 -0.014413
v 0.013172 0.022024 -0.014406
v 0.013158 0.022036 -0.014427
v 0.013161 0.022034 -0.014421
v 0.013151 0.022029 -0.014429
v 0.013153 0.022032 -0.014429
v 0.013151 0.022032 -0.014438
v 0.013152 0.022027 -0.014424
v 0.013158 0.022032 -0.014422
v 0.013147 0.022024 -0.014435
v 0.013147 0.022022 -0.014431
v 0.013149 0.022026 -0.014430
v 0.013147 0.022026 -0.014443
v 0.013164 0.022033 -0.014416
v 0.013169 0.022032 -0.014412
v 0.013180 0.022028 -0.014406
v 0.013156 0.022037 -0.014443
v 0.013152 0.022024 -0.014422
v 0.013148 0.022028 -0.014436
v 0.013161 0.022020 -0.014411
v 0.013156 0.022021 -0.014416
v 0.013161 0.022030 -0.014416
v 0.013180 0.022024 -0.014404
v 0.013149 0.022030 -0.014443
v 0.013152 0.022034 -0.014443
v 0.013151 0.022020 -0.014422
v 0.013157 0.022027 -0.014417
v 0.013161 0.022024 -0.014412
v 0.013176 0.022020 -0.014404
v 0.013167 0.022021 -0.014408
v 0.013155 0.022035 -0.014433
v 0.013165 0.022041 -0.014443
vn 1.0000 -0.0000 -0.0000
vn -0.0000 -0.0000 -1.0000
vn -1.0000 -0.0000 -0.0000
vn -0.0000 -0.0000 1.0000
vn -0.0000 1.0000 -0.0001
vn -0.0000 1.0000 -0.0000
vn -0.0000 1.0000 0.0001
vn -0.0000 -1.0000 -0.0000
vn -0.0000 -1.0000 0.0001
vn -0.0000 -1.0000 -0.0001
vn -0.0000 -1.0000 -0.0002
vn -0.0000 -1.0000 0.0002
vn 0.1951 -0.0000 -0.9808
vn 0.3826 -0.0000 -0.9239
vn 0.3827 -0.0000 -0.9239
vn 0.5555 -0.0000 -0.8315
vn 0.5560 -0.0000 -0.8312
vn 0.7071 -0.0000 -0.7071
vn 0.8314 -0.0000 -0.5557
vn 0.8315 -0.0000 -0.5556
vn 0.9239 -0.0000 -0.3827
vn 0.9808 -0.0000 -0.1951
vn 0.9808 -0.0000 -0.1950
vn 0.9239 -0.0000 -0.3826
vn 0.8315 -0.0000 -0.5555
vn 0.8314 -0.0000 -0.5556
vn 0.5556 -0.0000 -0.8314
vn 0.1950 -0.0000 -0.9808
vn -0.9808 -0.0000 -0.1950
vn -0.9808 0.0001 -0.1951
vn -0.9239 -0.0000 -0.3826
vn -0.9808 -0.0000 -0.1952
vn -0.8315 -0.0000 -0.5555
vn -0.9239 -0.0000 -0.3827
vn -0.8315 -0.0000 -0.5556
vn -0.7071 -0.0000 -0.7071
vn -0.5557 -0.0000 -0.8314
vn -0.5555 -0.0000 -0.8315
vn -0.3827 -0.0000 -0.9239
vn -0.1950 -0.0000 -0.9808
vn -0.1951 -0.0000 -0.9808
vn -0.3826 -0.0000 -0.9239
vn -0.5556 -0.0000 -0.8315
vn -0.5556 -0.0000 -0.8314
vn -0.8314 -0.0000 -0.5556
vn -0.8314 -0.0000 -0.5557
vn -0.1951 -0.0000 0.9808
vn -0.3826 -0.0000 0.9239
vn -0.3827 -0.0000 0.9239
vn -0.5555 -0.0000 0.8315
vn -0.5559 -0.0000 0.8312
vn -0.7071 -0.0000 0.7071
vn -0.8314 -0.0000 0.5556
vn -0.9239 -0.0000 0.3827
vn -0.8315 -0.0000 0.5555
vn -0.8315 -0.0000 0.5556
vn -0.9808 -0.0000 0.1951
vn -0.9808 -0.0000 0.1950
vn -0.9808 0.0001 0.1952
vn -0.9239 -0.0000 0.3826
vn -0.1950 -0.0000 0.9808
vn -0.8314 -0.0000 0.5557
vn -0.5556 -0.0000 0.8314
vn 0.9808 -0.0000 0.1950
vn 0.9808 -0.0000 0.1951
vn 0.9239 -0.0000 0.3826
vn 0.8315 -0.0000 0.5556
vn 0.8315 -0.0000 0.5555
vn 0.9239 -0.0000 0.3827
vn 0.7071 -0.0000 0.7071
vn 0.5556 -0.0000 0.8315
vn 0.5556 -0.0000 0.8314
vn 0.3827 -0.0000 0.9239
vn 0.1951 -0.0000 0.9808
vn 0.1950 -0.0000 0.9808
vn 0.3826 -0.0000 0.9239
vn 0.5555 -0.0000 0.8315
vn 0.5557 -0.0000 0.8314
vn 0.8314 -0.0000 0.5557
vn 0.1951 0.9808 -0.0000
vn 0.3827 0.9239 -0.0000
vn 0.5556 0.8315 -0.0000
vn 0.7071 0.7071 -0.0000
vn 0.8315 0.5556 -0.0000
vn 0.9808 0.1951 -0.0000
vn 0.9239 0.3827 -0.0000
vn 0.9766 0.1377 -0.1649
vn 0.2381 0.7232 -0.6483
vn 0.2022 0.8065 -0.5556
vn 0.3601 0.7220 -0.5908
vn 0.1234 0.6293 -0.7673
vn -0.0000 0.7071 -0.7071
vn 0.2717 0.9422 -0.1962
vn 0.1465 0.9848 -0.0933
vn 0.3324 0.9346 -0.1265
vn 0.2740 0.8836 -0.3797
vn 0.1388 0.9537 -0.2667
vn 0.1171 0.9032 -0.4129
vn -0.0000 0.8315 -0.5556
vn 0.4520 0.8813 -0.1379
vn 0.4330 0.8660 -0.2500
vn 0.4043 0.3654 -0.8385
vn 0.3034 0.4618 -0.8335
vn 0.5182 0.4841 -0.7051
vn 0.3128 0.3237 -0.8930
vn 0.5354 0.7836 -0.3153
vn 0.4992 0.7274 -0.4709
vn 0.7975 0.5153 -0.3138
vn 0.7044 0.6335 -0.3202
vn 0.7655 0.6341 -0.1096
vn 0.7767 0.4423 -0.4484
vn 0.6010 0.6403 -0.4784
vn 0.9239 0.3260 -0.2001
vn 0.9311 0.2164 -0.2936
vn 0.8753 0.3759 -0.3043
vn 0.4486 0.6617 -0.6008
vn 0.3615 0.6190 -0.6973
vn 0.1026 0.4682 -0.8777
vn -0.0000 0.3827 -0.9239
vn -0.0000 0.5556 -0.8315
vn 0.7918 0.3237 -0.5180
vn 0.8735 0.4618 -0.1540
vn 0.5766 0.1423 -0.8046
vn 0.7097 0.2125 -0.6717
vn 0.5606 0.5515 -0.6177
vn 0.1069 0.3015 -0.9475
vn -0.0000 0.1951 -0.9808
vn 0.8433 0.1436 -0.5179
vn 0.6549 0.4365 -0.6169
vn 0.5847 0.3077 -0.7506
vn 0.2162 0.1364 -0.9668
vn 0.4371 0.2125 -0.8739
vn 0.6346 0.7443 -0.2080
vn -0.0000 0.9808 -0.1951
vn -0.0000 0.9239 -0.3827
vn 0.1649 0.1377 0.9767
vn -0.0000 0.1951 0.9808
vn 0.6483 0.7232 0.2381
vn 0.5557 0.8064 0.2022
vn 0.5908 0.7220 0.3601
vn 0.7673 0.6293 0.1234
vn 0.1962 0.9422 0.2717
vn 0.0933 0.9848 0.1465
vn 0.1265 0.9346 0.3324
vn 0.3797 0.8836 0.2740
vn 0.2667 0.9537 0.1388
vn 0.4129 0.9032 0.1171
vn 0.1379 0.8813 0.4520
vn -0.0000 0.9239 0.3827
vn 0.2500 0.8660 0.4330
vn 0.8385 0.3654 0.4043
vn 0.8335 0.4618 0.3034
vn 0.7051 0.4841 0.5182
vn 0.8930 0.3237 0.3128
vn 0.3153 0.7836 0.5354
vn 0.4709 0.7274 0.4992
vn 0.3138 0.5153 0.7975
vn 0.3202 0.6335 0.7044
vn 0.1096 0.6341 0.7655
vn 0.4484 0.4423 0.7767
vn 0.4784 0.6403 0.6010
vn 0.2001 0.3260 0.9240
vn 0.2936 0.2164 0.9311
vn 0.3042 0.3759 0.8753
vn -0.0000 0.3827 0.9239
vn 0.6008 0.6616 0.4486
vn 0.6973 0.6190 0.3615
vn 0.8777 0.4682 0.1026
vn -0.0000 0.8315 0.5556
vn 0.5180 0.3237 0.7918
vn 0.1540 0.4618 0.8735
vn 0.8045 0.1423 0.5766
vn 0.6717 0.2125 0.7097
vn 0.6177 0.5515 0.5606
vn 0.9475 0.3015 0.1069
vn -0.0000 0.5556 0.8315
vn -0.0000 0.7071 0.7071
vn 0.5179 0.1436 0.8433
vn 0.6169 0.4365 0.6549
vn 0.7506 0.3077 0.5847
vn 0.9668 0.1364 0.2162
vn 0.8739 0.2125 0.4371
vn 0.2080 0.7443 0.6346
vn -0.0000 0.9808 0.1951
vn -0.1649 0.1377 -0.9766
vn -0.6483 0.7232 -0.2381
vn -0.5557 0.8064 -0.2022
vn -0.5908 0.7220 -0.3601
vn -0.7673 0.6293 -0.1234
vn -0.7071 0.7071 -0.0000
vn -0.1962 0.9422 -0.2717
vn -0.0933 0.9848 -0.1465
vn -0.1265 0.9346 -0.3324
vn -0.3797 0.8836 -0.2740
vn -0.2667 0.9537 -0.1388
vn -0.4129 0.9032 -0.1171
vn -0.5556 0.8315 -0.0000
vn -0.1379 0.8813 -0.4520
vn -0.2500 0.8660 -0.4330
vn -0.8385 0.3654 -0.4043
vn -0.8335 0.4618 -0.3034
vn -0.7051 0.4841 -0.5182
vn -0.8930 0.3237 -0.3128
vn -0.3153 0.7836 -0.5354
vn -0.4709 0.7274 -0.4992
vn -0.3138 0.5153 -0.7975
vn -0.3202 0.6335 -0.7044
vn -0.1096 0.6341 -0.7655
vn -0.4484 0.4423 -0.7767
vn -0.4784 0.6403 -0.6010
vn -0.2001 0.3260 -0.9240
vn -0.2936 0.2164 -0.9311
vn -0.3042 0.3759 -0.8753
vn -0.6008 0.6616 -0.4486
vn -0.6973 0.6190 -0.3615
vn -0.8777 0.4682 -0.1026
vn -0.9239 0.3827 -0.0000
vn -0.8315 0.5556 -0.0000
vn -0.5180 0.3237 -0.7918
vn -0.1540 0.4618 -0.8735
vn -0.8045 0.1423 -0.5766
vn -0.6717 0.2125 -0.7097
vn -0.6177 0.5515 -0.5606
vn -0.9475 0.3015 -0.1069
vn -0.9808 0.1951 -0.0000
vn -0.5179 0.1436 -0.8433
vn -0.6169 0.4365 -0.6549
vn -0.7506 0.3077 -0.5847
vn -0.9668 0.1364 -0.2162
vn -0.8739 0.2125 -0.4371
vn -0.2080 0.7443 -0.6346
vn -0.1951 0.9808 -0.0000
vn -0.3827 0.9239 -0.0000
vn -0.9766 0.1377 0.1649
vn -0.2381 0.7232 0.6483
vn -0.2022 0.8065 0.5556
vn -0.3601 0.7220 0.5908
vn -0.1234 0.6293 0.7673
vn -0.2717 0.9422 0.1962
vn -0.1465 0.9848 0.0933
vn -0.3324 0.9346 0.1265
vn -0.2740 0.8836 0.3797
vn -0.1388 0.9537 0.2667
vn -0.1171 0.9032 0.4129
vn -0.4520 0.8813 0.1379
vn -0.4330 0.8660 0.2500
vn -0.4043 0.3654 0.8385
vn -0.3034 0.4618 0.8335
vn -0.5182 0.4841 0.7051
vn -0.3128 0.3237 0.8930
vn -0.5354 0.7835 0.3153
vn -0.4992 0.7274 0.4709
vn -0.7975 0.5153 0.3138
vn -0.7044 0.6335 0.3202
vn -0.7655 0.6341 0.1096
vn -0.7767 0.4423 0.4484
vn -0.6010 0.6403 0.4784
vn -0.9240 0.3260 0.2001
vn -0.9311 0.2164 0.2936
vn -0.8753 0.3759 0.3042
vn -0.4486 0.6616 0.6008
vn -0.3615 0.6190 0.6973
vn -0.1026 0.4682 0.8776
vn -0.7918 0.3237 0.5180
vn -0.8735 0.4618 0.1540
vn -0.5767 0.1423 0.8045
vn -0.7097 0.2125 0.6717
vn -0.5606 0.5515 0.6177
vn -0.1069 0.3015 0.9475
vn -0.8433 0.1436 0.5179
vn -0.6549 0.4365 0.6169
vn -0.5847 0.3077 0.7506
vn -0.2162 0.1364 0.9668
vn -0.4371 0.2125 0.8739
vn -0.6346 0.7443 0.2080
vt 0.150000 -1.600000
vt 0.150000 1.600000
vt 0.000000 -1.600000
vt 0.000000 1.600000
vt 3.600000 0.150000
vt -3.600000 0.150000
vt 3.600000 0.000000
vt -3.600000 0.000000
vt -0.150000 1.600000
vt -0.150000 -1.600000
vt -3.600000 1.750000
vt -3.600000 -1.750000
vt 3.600000 -1.750000
vt -3.750000 -1.600000
vt -3.738582 -1.657402
vt -3.706066 -1.706066
vt -3.657403 -1.738582
vt -3.750000 1.600000
vt -3.738582 1.657402
vt -3.657403 1.738582
vt -3.706066 1.706066
vt 3.600000 1.750000
vt 3.750000 1.600000
vt 3.738582 1.657402
vt 3.706066 1.706066
vt 3.657403 1.738582
vt 3.750000 -1.600000
vt 3.738582 -1.657402
vt 3.657403 -1.738582
vt 3.706066 -1.706066
vt 3.600000 2.000000
vt 4.000000 -1.600000
vt 4.000000 1.600000
vt 3.992314 1.678036
vt 3.969552 1.753073
vt 3.932588 1.822228
vt 3.822228 1.932588
vt 3.882843 1.882843
vt 3.753073 1.969552
vt 3.678036 1.992314
vt -3.600000 2.000000
vt 3.600000 -2.000000
vt -3.600000 -2.000000
vt -4.000000 1.600000
vt -3.678036 1.992314
vt -3.753073 1.969552
vt -3.882843 1.882843
vt -3.932588 1.822228
vt -3.822228 1.932588
vt -3.969552 1.753073
vt -4.000000 -1.600000
vt -3.992314 -1.678036
vt -3.969552 -1.753073
vt -3.932588 -1.822228
vt -3.882843 -1.882843
vt -3.753073 -1.969552
vt -3.822228 -1.932588
vt -3.678036 -1.992314
vt -3.992314 1.678036
vt 3.678036 -1.992314
vt 3.753073 -1.969552
vt 3.822228 -1.932588
vt 3.969552 -1.753073
vt 3.932588 -1.822228
vt 3.882843 -1.882843
vt 3.992314 -1.678036
vt -3.678036 0.000000
vt -3.678036 0.150000
vt -3.753073 0.000000
vt -3.753073 0.150000
vt -3.822228 0.000000
vt -3.822228 0.150000
vt -3.882843 0.000000
vt -3.882843 0.150000
vt 0.000000 -1.822228
vt 0.150000 -1.882843
vt 0.150000 -1.822228
vt 0.000000 -1.753073
vt 0.150000 -1.753073
vt 0.000000 -1.678036
vt 0.150000 -1.678036
vt 0.000000 -1.882843
vt -0.150000 -1.678036
vt -0.150000 -1.753073
vt -0.150000 -1.822228
vt -0.150000 -1.882843
vt 3.882843 0.150000
vt 3.822228 0.000000
vt 3.882843 0.000000
vt 3.822228 0.150000
vt 3.753073 0.000000
vt 3.678036 0.000000
vt 3.678036 0.150000
vt 3.753073 0.150000
vt -0.000000 1.822228
vt -0.000000 1.882843
vt -0.150000 1.882843
vt -0.000000 1.753073
vt -0.150000 1.822228
vt -0.150000 1.753073
vt -0.150000 1.678036
vt -0.000000 1.678036
vt 0.150000 1.678036
vt 0.150000 1.822228
vt 0.150000 1.753073
vt 0.150000 1.882843
vt -3.798773 -1.600000
vt -3.798773 1.600000
vt -3.845671 -1.600000
vt -3.845671 1.600000
vt -3.888893 -1.600000
vt -3.888893 1.600000
vt -3.926777 -1.600000
vt 0.326777 1.600000
vt 0.288893 -1.600000
vt 0.326777 -1.600000
vt 0.288893 1.600000
vt 0.198773 1.600000
vt 0.198773 -1.600000
vt 0.245671 1.600000
vt 0.245671 -1.600000
vt -3.926777 1.600000
vt 0.184433 -1.666196
vt -3.711224 -1.902875
vt -3.701863 -1.879866
vt -3.768071 -1.875799
vt -3.654665 -1.939927
vt -3.600000 -1.926777
vt -3.789542 -1.736870
vt -3.763122 -1.703920
vt -3.823292 -1.684970
vt -3.756337 -1.816501
vt -3.703975 -1.799734
vt -3.670202 -1.847537
vt -3.600000 -1.888893
vt -3.856477 -1.678141
vt -3.838157 -1.737500
vt -3.766210 0.241362
vt -3.727147 0.265437
vt -3.818371 0.271014
vt -3.727792 0.230934
vt -3.863092 -1.754935
vt -3.833895 -1.820668
vt 0.278829 -1.733389
vt 0.308364 -1.742121
vt 0.308520 -1.648659
vt 0.260572 -1.787109
vt 0.310077 -1.813005
vt 0.231507 -1.681790
vt 0.204110 -1.718500
vt 0.243989 -1.725305
vt -3.801903 -1.870391
vt -3.759432 -1.907478
vt -3.643059 0.267047
vt -3.600000 0.245671
vt -3.600000 0.288893
vt 0.230934 -1.811622
vt 0.265437 -1.664554
vt -3.831553 0.185567
vt -3.886359 0.203123
vt -3.711224 0.330808
vt -3.759432 0.304742
vt -3.654665 0.307320
vt -3.867606 -1.813005
vt -3.801903 0.315409
vt -3.840940 0.287883
vt -3.643528 0.225369
vt -3.600000 0.198773
vt 0.185900 -1.807992
vt -3.872921 0.259120
vt 0.259120 -1.857071
vt 0.287883 -1.865513
vt -3.838356 0.226908
vt -3.686802 0.184100
vt -3.776388 0.203123
vt -3.600000 0.326777
vt -3.912659 -1.742121
vt -3.901185 -1.698723
vt -3.939851 -1.648659
vt 0.226908 -1.905998
vt -3.600000 -1.798773
vt 0.336083 -1.698723
vt 0.203123 -1.871042
vt -3.600000 -1.845671
vt -3.840940 -1.865513
vt 3.666196 0.184433
vt 3.600000 0.198773
vt -3.902875 1.711224
vt -3.879866 1.701863
vt -3.875799 1.768071
vt -3.939928 1.654665
vt -3.736870 1.789543
vt -3.703920 1.763122
vt -3.684969 1.823292
vt -3.816501 1.756337
vt -3.799734 1.703975
vt -3.847537 1.670202
vt -3.678141 1.856477
vt -3.600000 1.845671
vt -3.737500 1.838157
vt 0.241362 1.766210
vt 0.265437 1.727147
vt 0.271014 1.818371
vt 0.230934 1.727791
vt -3.754935 1.863092
vt -3.820668 1.833895
vt 3.733389 0.278829
vt 3.742121 0.308364
vt 3.648659 0.308520
vt 3.787109 0.260572
vt 3.813005 0.310077
vt 3.681790 0.231507
vt 3.718501 0.204110
vt 3.725306 0.243989
vt 3.600000 0.245671
vt -3.870392 1.801903
vt -3.907478 1.759432
vt 0.267047 1.643060
vt -3.600000 1.888893
vt 3.811622 0.230934
vt 3.664554 0.265437
vt 0.185567 1.831553
vt 0.203123 1.886359
vt 0.330808 1.711224
vt 0.304742 1.759432
vt 0.307320 1.654665
vt -3.813005 1.867606
vt 0.315409 1.801903
vt 0.287883 1.840941
vt 0.225369 1.643528
vt 3.600000 0.288893
vt 3.600000 0.326777
vt 3.807992 0.185900
vt 0.259120 1.872921
vt 3.857071 0.259120
vt 3.865513 0.287883
vt 0.226908 1.838356
vt 0.184100 1.686802
vt 0.203123 1.776388
vt -3.742121 1.912659
vt -3.698723 1.901185
vt -3.600000 1.926777
vt -3.648659 1.939851
vt -3.600000 1.798773
vt 3.905998 0.226908
vt 3.698723 0.336083
vt 3.871042 0.203123
vt -3.865513 1.840941
vt 3.600000 -1.798773
vt 3.600000 -1.845671
vt 3.600000 -1.888893
vt 3.600000 -1.926777
vt 3.600000 1.798773
vt 3.600000 1.845671
vt 3.600000 1.888893
vt 3.600000 1.926777
vt 3.902875 -1.711224
vt 3.879866 -1.701863
vt 3.875799 -1.768071
vt 3.939928 -1.654665
vt 3.926777 -1.600000
vt 3.736870 -1.789543
vt 3.703920 -1.763122
vt 3.684969 -1.823292
vt 3.816501 -1.756337
vt 3.799734 -1.703975
vt 3.847537 -1.670202
vt 3.888893 -1.600000
vt 3.678141 -1.856477
vt 3.737500 -1.838157
vt -0.241362 -1.766210
vt -0.265437 -1.727147
vt -0.271014 -1.818371
vt -0.230934 -1.727791
vt 3.754935 -1.863092
vt 3.820668 -1.833895
vt 3.870392 -1.801903
vt 3.907478 -1.759432
vt -0.267047 -1.643060
vt -0.245671 -1.600000
vt -0.288893 -1.600000
vt -0.185567 -1.831553
vt -0.203123 -1.886359
vt -0.330808 -1.711224
vt -0.304742 -1.759432
vt -0.307320 -1.654665
vt 3.813005 -1.867606
vt -0.315409 -1.801903
vt -0.287883 -1.840941
vt -0.225369 -1.643528
vt -0.198773 -1.600000
vt -0.259120 -1.872921
vt -0.226908 -1.838356
vt -0.184100 -1.686802
vt -0.203123 -1.776388
vt -0.326777 -1.600000
vt 3.742121 -1.912659
vt 3.698723 -1.901185
vt 3.648659 -1.939851
vt 3.798773 -1.600000
vt 3.845671 -1.600000
vt 3.865513 -1.840941
vt -0.184433 1.666196
vt -0.198773 1.600000
vt 3.711224 1.902875
vt 3.701863 1.879866
vt 3.768071 1.875799
vt 3.654665 1.939927
vt 3.789542 1.736870
vt 3.763122 1.703920
vt 3.823292 1.684970
vt 3.756337 1.816501
vt 3.703975 1.799734
vt 3.670202 1.847537
vt 3.856477 1.678141
vt 3.845671 1.600000
vt 3.838157 1.737500
vt 3.863092 1.754935
vt 3.833895 1.820668
vt -0.278829 1.733389
vt -0.308364 1.742121
vt -0.308520 1.648659
vt -0.260572 1.787109
vt -0.310077 1.813005
vt -0.231507 1.681790
vt -0.204110 1.718500
vt -0.243989 1.725305
vt -0.245671 1.600000
vt 3.801903 1.870391
vt 3.759432 1.907478
vt 3.888893 1.600000
vt -0.230934 1.811622
vt -0.265437 1.664554
vt 3.867606 1.813005
vt -0.288893 1.600000
vt -0.326777 1.600000
vt -0.185900 1.807992
vt -0.259120 1.857071
vt -0.287883 1.865513
vt 3.912659 1.742121
vt 3.901185 1.698723
vt 3.926777 1.600000
vt 3.939851 1.648659
vt 3.798773 1.600000
vt -0.226908 1.905998
vt -0.336083 1.698723
vt -0.203123 1.871042
vt 3.840940 1.865513
s 1
usemtl Diffuse_51_51_51_100.015
f 1/1/1 2/2/1 3/3/1
f 2/2/1 4/4/1 3/3/1
f 5/5/2 6/6/2 7/7/2
f 6/6/2 8/8/2 7/7/2
f 9/9/3 10/10/3 11/4/3
f 10/10/3 12/3/3 11/4/3
f 13/5/4 14/6/4 15/7/4
f 14/6/4 16/8/4 15/7/4
f 17/11/5 18/12/6 19/13/6
f 17/11/5 20/14/6 18/12/6
f 21/15/6 22/16/6 20/14/6
f 20/14/6 22/16/6 23/17/6
f 20/14/6 17/11/5 24/18/6
f 20/14/6 23/17/6 18/12/6
f 24/18/6 17/11/5 25/19/6
f 26/20/6 27/21/6 17/11/5
f 17/11/5 27/21/6 25/19/6
f 17/11/5 19/13/6 28/22/6
f 19/13/6 29/23/7 28/22/6
f 30/24/7 31/25/6 29/23/7
f 28/22/6 29/23/7 32/26/6
f 29/23/7 19/13/6 33/27/5
f 29/23/7 31/25/6 32/26/6
f 33/27/5 19/13/6 34/28/6
f 35/29/6 36/30/6 19/13/6
f 19/13/6 36/30/6 34/28/6
f 37/31/8 38/32/8 39/33/8
f 40/31/8 41/33/8 42/34/8
f 43/31/8 42/34/8 44/35/8
f 45/31/9 44/35/9 46/36/9
f 47/37/8 48/31/8 49/38/8
f 50/31/10 46/36/10 49/38/10
f 51/39/8 52/31/8 47/37/8
f 53/40/8 54/31/8 51/39/8
f 55/31/8 56/41/8 57/42/8
f 58/42/8 59/41/8 60/43/8
f 61/41/8 62/44/8 63/43/8
f 64/45/8 65/44/8 66/41/8
f 67/46/8 68/44/8 64/45/8
f 69/44/11 70/47/11 71/48/11
f 72/49/8 73/44/8 67/46/8
f 74/44/8 71/48/8 75/50/8
f 76/44/8 77/51/8 78/43/8
f 79/44/8 72/49/8 70/47/8
f 80/51/8 81/52/8 82/43/8
f 83/43/11 81/52/11 84/53/11
f 85/43/12 84/53/12 86/54/12
f 87/43/8 86/54/8 88/55/8
f 89/56/8 90/43/8 91/57/8
f 92/43/8 88/55/8 91/57/8
f 93/58/8 94/43/8 89/56/8
f 95/44/8 75/50/8 96/59/8
f 97/42/8 98/32/8 99/31/8
f 100/60/8 101/61/8 102/32/8
f 101/61/8 103/62/8 104/32/8
f 105/63/8 106/32/8 107/64/8
f 108/32/8 109/65/8 107/64/8
f 110/66/8 111/32/8 105/63/8
f 112/32/8 103/62/8 109/65/8
f 100/60/8 113/32/8 114/42/8
f 115/67/13 116/68/13 117/69/14
f 118/69/15 119/70/15 120/71/16
f 121/71/16 119/70/15 122/72/17
f 123/73/18 122/72/17 124/74/18
f 125/75/19 124/76/18 126/77/20
f 127/78/21 126/77/20 128/79/21
f 129/80/22 128/79/21 130/81/22
f 1/1/1 3/3/1 130/81/22
f 130/81/22 3/3/1 131/80/23
f 128/79/24 132/80/22 133/78/24
f 126/77/25 134/78/21 135/75/25
f 124/76/18 136/75/26 137/82/18
f 122/72/27 138/73/18 139/71/27
f 116/68/13 140/67/28 8/8/2
f 116/68/13 119/70/15 141/69/14
f 116/68/13 8/8/2 6/6/2
f 142/80/29 12/3/3 143/83/30
f 144/78/31 145/80/32 143/83/32
f 146/75/33 147/78/34 148/84/34
f 149/85/35 150/75/33 148/84/34
f 151/86/36 152/82/36 149/85/35
f 151/87/36 153/88/37 154/89/36
f 155/90/38 156/91/39 157/88/38
f 7/7/2 158/92/40 159/93/41
f 159/93/41 5/5/2 7/7/2
f 160/94/39 159/93/41 161/92/41
f 162/91/42 160/94/42 163/92/41
f 164/91/39 155/90/43 160/94/39
f 165/88/44 151/87/36 155/90/43
f 166/75/45 149/85/46 167/82/36
f 143/83/30 12/3/3 10/10/3
f 168/78/31 143/83/30 148/84/34
f 169/67/47 170/68/47 171/69/48
f 172/69/49 173/70/49 174/71/50
f 175/71/50 173/70/49 176/72/51
f 177/73/52 176/72/51 178/74/52
f 179/95/53 180/96/52 178/97/52
f 181/98/54 182/95/55 183/99/55
f 184/100/54 185/98/54 183/99/56
f 186/101/57 9/9/3 11/4/3
f 187/102/58 186/101/57 11/4/3
f 188/102/57 184/100/54 186/101/57
f 189/102/59 190/98/60 184/100/60
f 16/8/4 170/68/47 191/67/61
f 183/99/56 192/95/62 178/97/52
f 170/68/47 16/8/4 14/6/4
f 193/71/63 176/72/63 194/73/52
f 195/69/48 170/68/47 173/70/49
f 196/102/64 4/4/1 197/103/65
f 198/98/66 199/102/65 197/103/65
f 200/104/67 201/95/68 202/105/69
f 203/106/70 204/96/70 200/104/67
f 205/90/71 206/88/72 203/87/70
f 207/94/73 208/91/73 205/90/71
f 209/92/74 207/94/73 210/93/74
f 15/7/4 210/93/74 13/5/4
f 15/7/4 211/92/75 210/93/74
f 212/92/74 213/91/76 207/94/76
f 214/91/73 215/88/77 205/90/77
f 216/88/78 217/89/70 203/87/70
f 197/103/65 4/4/1 2/2/1
f 197/103/65 202/105/69 218/98/66
f 202/105/69 219/95/68 220/98/69
f 200/104/79 221/96/70 222/95/79
f 20/14/6 24/18/6 223/107/80
f 223/107/80 24/18/6 224/108/80
f 225/109/81 223/107/80 224/108/80
f 226/110/81 225/109/81 224/108/80
f 226/110/81 227/111/82 225/109/81
f 228/112/82 229/113/83 227/111/82
f 230/114/83 231/115/84 229/116/83
f 230/114/83 232/117/84 231/115/84
f 1/1/1 233/118/85 2/2/1
f 1/1/1 234/119/85 233/118/85
f 233/118/85 234/119/85 235/120/86
f 235/120/86 234/119/85 236/121/86
f 232/117/84 235/120/86 236/121/86
f 231/115/84 232/117/84 236/121/86
f 230/122/83 229/113/83 228/112/82
f 227/111/82 226/110/81 228/112/82
f 237/123/87 130/81/22 128/79/21
f 237/123/87 234/119/85 1/1/1
f 238/124/88 239/125/89 240/126/90
f 238/124/88 241/127/91 242/128/92
f 243/129/93 244/130/94 245/131/95
f 243/129/93 246/132/96 247/133/97
f 248/134/98 239/125/89 249/135/99
f 248/134/98 247/133/97 246/132/96
f 250/136/100 245/131/95 225/109/81
f 250/136/100 251/137/101 245/131/95
f 252/138/102 253/139/103 254/140/104
f 252/138/102 255/141/105 253/139/103
f 256/142/106 251/137/101 250/136/100
f 256/142/106 257/143/107 246/132/96
f 258/144/108 259/145/109 260/146/110
f 258/144/108 261/147/111 262/148/112
f 263/149/113 264/150/114 265/151/115
f 263/149/113 236/121/86 234/119/85
f 266/152/116 240/126/90 257/143/107
f 266/152/116 267/153/117 240/126/90
f 268/154/118 269/155/119 270/156/120
f 268/154/118 253/139/103 255/141/105
f 243/129/93 251/137/101 246/132/96
f 250/136/100 225/109/81 227/111/82
f 265/151/115 264/150/114 271/157/121
f 263/149/113 272/158/122 236/121/86
f 273/159/123 122/72/17 119/70/15
f 273/159/123 274/160/124 124/74/18
f 238/161/88 267/162/117 241/163/91
f 266/152/116 257/143/107 262/164/112
f 262/164/112 257/143/107 256/142/106
f 266/165/116 275/166/125 267/162/117
f 276/167/126 269/155/119 268/154/118
f 276/167/126 277/168/127 269/155/119
f 260/146/110 231/115/84 272/158/122
f 260/146/110 229/116/83 231/115/84
f 278/169/128 126/77/20 124/76/18
f 278/169/128 264/150/114 128/79/21
f 273/159/123 124/74/18 122/72/17
f 278/169/128 271/157/121 264/150/114
f 254/140/104 275/166/125 279/170/129
f 254/140/104 253/139/103 267/162/117
f 279/171/129 275/172/125 261/147/111
f 254/140/104 280/173/130 252/138/102
f 281/174/131 116/68/13 6/6/2
f 281/174/131 282/175/132 119/70/15
f 281/174/131 119/70/15 116/68/13
f 273/159/123 280/173/130 274/160/124
f 241/163/91 270/156/120 242/176/92
f 241/163/91 267/162/117 253/139/103
f 256/142/106 259/177/109 262/164/112
f 283/178/133 229/113/83 260/179/110
f 243/129/93 245/131/95 251/137/101
f 244/130/94 21/15/6 223/107/80
f 243/129/93 247/133/97 244/130/94
f 246/132/96 239/125/89 248/134/98
f 241/163/91 253/139/103 268/154/118
f 267/162/117 275/166/125 254/140/104
f 265/151/115 272/158/122 263/149/113
f 272/158/122 231/115/84 236/121/86
f 271/157/121 261/147/111 265/151/115
f 271/157/121 280/180/130 279/171/129
f 247/133/97 23/17/6 22/16/6
f 247/133/97 248/134/98 284/181/134
f 278/169/128 128/79/21 126/77/20
f 264/150/114 234/119/85 237/123/87
f 262/148/112 261/147/111 275/172/125
f 259/145/109 283/182/133 260/146/110
f 282/175/132 252/138/102 280/173/130
f 255/141/105 281/174/131 276/167/126
f 258/144/108 262/148/112 259/145/109
f 246/132/96 240/126/90 239/125/89
f 282/175/132 273/159/123 119/70/15
f 278/169/128 274/183/124 271/157/121
f 283/178/133 256/142/106 250/136/100
f 257/143/107 240/126/90 246/132/96
f 248/134/98 249/135/99 285/184/135
f 239/125/89 242/128/92 249/135/99
f 241/163/91 268/154/118 270/156/120
f 280/173/130 254/140/104 279/170/129
f 283/178/133 227/111/82 229/113/83
f 283/178/133 250/136/100 227/111/82
f 264/150/114 263/149/113 234/119/85
f 265/151/115 258/144/108 272/158/122
f 245/131/95 244/130/94 223/107/80
f 225/109/81 245/131/95 223/107/80
f 23/17/6 284/181/134 18/12/6
f 21/15/6 20/14/6 223/107/80
f 21/15/6 244/130/94 22/16/6
f 247/133/97 284/181/134 23/17/6
f 22/16/6 244/130/94 247/133/97
f 246/132/96 251/137/101 256/142/106
f 275/185/125 266/152/116 262/164/112
f 271/157/121 279/171/129 261/147/111
f 267/153/117 238/124/88 240/126/90
f 239/125/89 238/124/88 242/128/92
f 277/168/127 281/174/131 6/6/2
f 281/174/131 255/141/105 282/175/132
f 277/168/127 276/167/126 281/174/131
f 271/157/121 274/183/124 280/180/130
f 274/183/124 278/169/128 124/76/18
f 130/81/22 237/123/87 1/1/1
f 264/150/114 237/123/87 128/79/21
f 265/151/115 261/147/111 258/144/108
f 268/154/118 255/141/105 276/167/126
f 280/173/130 273/159/123 282/175/132
f 282/175/132 255/141/105 252/138/102
f 258/144/108 260/146/110 272/158/122
f 284/181/134 248/134/98 285/184/135
f 256/142/106 283/178/133 259/177/109
f 286/186/136 210/93/74 207/94/73
f 286/186/136 287/187/137 13/5/4
f 288/188/138 289/189/139 290/190/140
f 288/188/138 291/191/141 230/122/83
f 292/192/142 293/193/143 294/194/144
f 292/192/142 295/195/145 296/196/146
f 297/197/147 289/189/139 228/112/82
f 297/197/147 296/196/146 295/195/145
f 298/198/148 294/194/144 299/199/149
f 298/198/148 300/200/150 294/194/144
f 301/201/151 302/202/152 303/203/153
f 301/201/151 304/204/154 302/202/152
f 305/205/155 300/200/150 298/198/148
f 305/205/155 306/206/156 295/195/145
f 307/207/157 308/208/158 309/209/159
f 307/207/157 310/210/160 311/211/161
f 312/212/162 313/213/163 314/214/164
f 312/212/162 315/215/165 287/187/137
f 316/216/166 290/190/140 306/206/156
f 316/216/166 317/217/167 290/190/140
f 318/218/168 235/120/86 232/117/84
f 318/218/168 302/202/152 304/204/154
f 292/192/142 300/200/150 295/195/145
f 298/198/148 299/199/149 319/219/169
f 314/214/164 313/213/163 320/220/170
f 312/212/162 321/221/171 315/215/165
f 322/222/172 200/104/67 202/105/69
f 322/222/172 323/223/173 203/106/70
f 288/224/138 317/225/167 291/226/141
f 316/216/166 306/206/156 311/227/161
f 311/227/161 306/206/156 305/205/155
f 316/228/166 324/229/174 317/225/167
f 325/230/175 235/120/86 318/218/168
f 325/230/175 233/118/85 235/120/86
f 309/209/159 326/231/176 321/221/171
f 309/209/159 327/232/177 326/231/176
f 328/233/178 205/90/71 203/87/70
f 328/233/178 313/213/163 207/94/73
f 322/222/172 203/106/70 200/104/67
f 328/233/178 320/220/170 313/213/163
f 303/203/153 324/229/174 329/234/179
f 303/203/153 302/202/152 317/225/167
f 329/235/179 324/236/174 310/210/160
f 303/203/153 330/237/180 301/201/151
f 331/238/181 197/103/65 2/2/1
f 331/238/181 332/239/182 202/105/69
f 331/238/181 202/105/69 197/103/65
f 322/222/172 330/237/180 323/223/173
f 291/226/141 232/117/84 230/114/83
f 291/226/141 317/225/167 302/202/152
f 305/205/155 308/240/158 311/227/161
f 333/241/183 327/242/177 309/243/159
f 292/192/142 294/194/144 300/200/150
f 293/193/143 26/20/6 334/244/184
f 292/192/142 296/196/146 293/193/143
f 295/195/145 289/189/139 297/197/147
f 291/226/141 302/202/152 318/218/168
f 317/225/167 324/229/174 303/203/153
f 314/214/164 321/221/171 312/212/162
f 321/221/171 326/231/176 315/215/165
f 320/220/170 310/210/160 314/214/164
f 320/220/170 330/245/180 329/235/179
f 296/196/146 25/19/6 27/21/6
f 296/196/146 297/197/147 224/108/80
f 328/233/178 207/94/73 205/90/71
f 313/213/163 287/187/137 286/186/136
f 311/211/161 310/210/160 324/236/174
f 308/208/158 333/246/183 309/209/159
f 332/239/182 301/201/151 330/237/180
f 304/204/154 331/238/181 325/230/175
f 307/207/157 311/211/161 308/208/158
f 295/195/145 290/190/140 289/189/139
f 332/239/182 322/222/172 202/105/69
f 328/233/178 323/247/173 320/220/170
f 333/241/183 305/205/155 298/198/148
f 306/206/156 290/190/140 295/195/145
f 297/197/147 228/112/82 226/110/81
f 289/189/139 230/122/83 228/112/82
f 291/226/141 318/218/168 232/117/84
f 330/237/180 303/203/153 329/234/179
f 333/241/183 319/219/169 327/242/177
f 333/241/183 298/198/148 319/219/169
f 313/213/163 312/212/162 287/187/137
f 314/214/164 307/207/157 321/221/171
f 332/239/182 331/238/181 304/204/154
f 301/201/151 332/239/182 304/204/154
f 318/218/168 304/204/154 325/230/175
f 331/238/181 233/118/85 325/230/175
f 332/239/182 330/237/180 322/222/172
f 330/245/180 320/220/170 323/247/173
f 210/93/74 286/186/136 13/5/4
f 331/238/181 2/2/1 233/118/85
f 314/214/164 310/210/160 307/207/157
f 207/94/73 313/213/163 286/186/136
f 323/247/173 328/233/178 203/87/70
f 289/189/139 288/188/138 230/122/83
f 321/221/171 307/207/157 309/209/159
f 333/241/183 308/240/158 305/205/155
f 297/197/147 226/110/81 224/108/80
f 295/195/145 300/200/150 305/205/155
f 27/21/6 26/20/6 293/193/143
f 25/19/6 224/108/80 24/18/6
f 296/196/146 224/108/80 25/19/6
f 27/21/6 293/193/143 296/196/146
f 294/194/144 293/193/143 334/244/184
f 26/20/6 17/11/5 334/244/184
f 334/244/184 299/199/149 294/194/144
f 316/216/166 311/227/161 324/248/174
f 290/190/140 317/217/167 288/188/138
f 310/210/160 320/220/170 329/235/179
f 335/249/134 19/13/6 18/12/6
f 284/181/134 335/249/134 18/12/6
f 284/181/134 336/250/135 335/249/134
f 284/181/134 285/184/135 336/250/135
f 336/250/135 285/184/135 337/251/99
f 337/251/99 285/184/135 249/135/99
f 338/252/92 337/251/99 249/135/99
f 5/5/2 277/168/127 6/6/2
f 277/168/127 5/5/2 339/187/127
f 269/155/119 277/168/127 339/187/127
f 340/215/119 269/155/119 339/187/127
f 340/215/119 270/156/120 269/155/119
f 340/215/119 341/231/120 270/156/120
f 270/156/120 341/231/120 242/176/92
f 242/176/92 341/231/120 338/232/92
f 249/135/99 242/128/92 338/252/92
f 14/6/4 13/5/4 342/168/137
f 342/168/137 13/5/4 287/187/137
f 343/155/165 342/168/137 287/187/137
f 315/215/165 343/155/165 287/187/137
f 315/215/165 344/156/176 343/155/165
f 315/215/165 326/231/176 344/156/176
f 344/156/176 326/231/176 345/176/177
f 345/176/177 326/231/176 327/232/177
f 28/22/6 334/244/184 17/11/5
f 28/22/6 346/253/184 334/244/184
f 334/244/184 346/253/184 299/199/149
f 299/199/149 346/253/184 347/254/149
f 319/219/169 299/199/149 347/254/149
f 348/255/169 319/219/169 347/254/149
f 327/242/177 319/219/169 348/255/169
f 327/242/177 348/255/169 345/256/177
f 349/186/185 159/93/41 160/94/39
f 349/186/185 339/187/127 5/5/2
f 350/257/186 351/258/187 352/259/188
f 350/257/186 353/260/189 354/261/190
f 355/262/191 356/263/192 357/264/193
f 355/262/191 358/265/194 359/266/195
f 360/267/196 351/258/187 361/268/197
f 360/267/196 359/266/195 358/265/194
f 362/269/198 357/264/193 336/250/135
f 362/269/198 363/270/199 357/264/193
f 364/271/200 365/272/201 366/273/202
f 364/271/200 367/274/203 365/272/201
f 368/275/204 363/270/199 362/269/198
f 368/275/204 369/276/205 358/265/194
f 370/207/206 371/208/207 372/209/208
f 370/207/206 373/210/209 374/211/210
f 375/212/211 376/213/212 377/214/213
f 375/212/211 340/215/119 339/187/127
f 378/277/214 352/259/188 369/276/205
f 378/277/214 379/278/215 352/259/188
f 380/279/216 381/280/217 382/281/218
f 380/279/216 365/272/201 367/274/203
f 355/262/191 363/270/199 358/265/194
f 362/269/198 336/250/135 337/251/99
f 377/214/213 376/213/212 383/220/219
f 375/212/211 384/221/220 340/215/119
f 385/282/221 149/85/35 148/84/34
f 385/282/221 386/283/222 151/86/36
f 350/284/186 379/285/215 353/286/189
f 378/277/214 369/276/205 374/287/210
f 374/287/210 369/276/205 368/275/204
f 378/288/214 387/289/223 379/285/215
f 388/290/224 381/280/217 380/279/216
f 388/290/224 389/291/225 381/280/217
f 372/209/208 341/231/120 384/221/220
f 372/209/208 338/232/92 341/231/120
f 390/233/226 155/90/43 151/87/36
f 390/233/226 376/213/212 160/94/39
f 385/282/221 151/86/36 149/85/35
f 390/233/226 383/220/219 376/213/212
f 366/273/202 387/289/223 391/292/227
f 366/273/202 365/272/201 379/285/215
f 391/235/227 387/236/223 373/210/209
f 366/273/202 392/293/228 364/271/200
f 393/294/229 143/83/30 10/10/3
f 393/294/229 394/295/230 148/84/34
f 393/294/229 148/84/34 143/83/30
f 385/282/221 392/293/228 386/283/222
f 353/286/189 382/281/218 354/296/190
f 353/286/189 379/285/215 365/272/201
f 368/275/204 371/297/207 374/287/210
f 395/298/231 338/252/92 372/299/208
f 355/262/191 357/264/193 363/270/199
f 356/263/192 35/29/6 335/249/134
f 355/262/191 359/266/195 356/263/192
f 358/265/194 351/258/187 360/267/196
f 353/286/189 365/272/201 380/279/216
f 379/285/215 387/289/223 366/273/202
f 377/214/213 384/221/220 375/212/211
f 384/221/220 341/231/120 340/215/119
f 383/220/219 373/210/209 377/214/213
f 383/220/219 392/245/228 391/235/227
f 359/266/195 34/28/6 36/30/6
f 359/266/195 360/267/196 396/300/232
f 390/233/226 160/94/39 155/90/43
f 376/213/212 339/187/127 349/186/185
f 374/211/210 373/210/209 387/236/223
f 371/208/207 395/246/231 372/209/208
f 394/295/230 364/271/200 392/293/228
f 367/274/203 393/294/229 388/290/224
f 370/207/206 374/211/210 371/208/207
f 358/265/194 352/259/188 351/258/187
f 394/295/230 385/282/221 148/84/34
f 390/233/226 386/247/222 383/220/219
f 395/298/231 368/275/204 362/269/198
f 369/276/205 352/259/188 358/265/194
f 360/267/196 361/268/197 397/301/233
f 351/258/187 354/261/190 361/268/197
f 353/286/189 380/279/216 382/281/218
f 392/293/228 366/273/202 391/292/227
f 395/298/231 337/251/99 338/252/92
f 395/298/231 362/269/198 337/251/99
f 376/213/212 375/212/211 339/187/127
f 377/214/213 370/207/206 384/221/220
f 35/29/6 19/13/6 335/249/134
f 335/249/134 357/264/193 356/263/192
f 335/249/134 336/250/135 357/264/193
f 396/300/232 33/27/5 34/28/6
f 359/266/195 396/300/232 34/28/6
f 36/30/6 356/263/192 359/266/195
f 396/300/232 360/267/196 397/301/233
f 387/302/223 378/277/214 374/287/210
f 383/220/219 391/235/227 373/210/209
f 370/207/206 372/209/208 384/221/220
f 350/257/186 354/261/190 351/258/187
f 393/294/229 10/10/3 389/291/225
f 367/274/203 394/295/230 393/294/229
f 388/290/224 393/294/229 389/291/225
f 392/293/228 385/282/221 394/295/230
f 383/220/219 386/247/222 392/245/228
f 386/247/222 390/233/226 151/87/36
f 159/93/41 349/186/185 5/5/2
f 160/94/39 376/213/212 349/186/185
f 377/214/213 373/210/209 370/207/206
f 380/279/216 367/274/203 388/290/224
f 367/274/203 364/271/200 394/295/230
f 379/278/215 350/257/186 352/259/188
f 368/275/204 395/298/231 371/297/207
f 356/263/192 36/30/6 35/29/6
f 368/275/204 358/265/194 363/270/199
f 398/303/234 186/101/57 184/100/54
f 398/303/234 399/304/225 9/9/3
f 400/305/235 401/306/236 402/307/237
f 400/305/235 403/308/238 345/256/177
f 404/309/239 405/310/240 406/311/241
f 404/309/239 407/312/242 408/313/243
f 409/314/244 401/306/236 348/255/169
f 409/314/244 408/313/243 407/312/242
f 410/315/245 406/311/241 411/316/233
f 410/315/245 412/317/246 406/311/241
f 413/138/247 414/139/248 415/140/249
f 413/138/247 416/141/250 414/139/248
f 417/318/251 412/317/246 410/315/245
f 417/318/251 418/319/252 407/312/242
f 419/320/253 420/321/254 421/322/255
f 419/320/253 422/323/256 423/324/257
f 424/325/258 425/326/259 426/327/260
f 424/325/258 427/328/217 399/304/225
f 428/329/261 402/307/237 418/319/252
f 428/329/261 429/330/262 402/307/237
f 430/154/263 343/155/165 344/156/176
f 430/154/263 414/139/248 416/141/250
f 404/309/239 412/317/246 407/312/242
f 410/315/245 411/316/233 431/331/197
f 426/327/260 425/326/259 432/332/264
f 424/325/258 433/333/265 427/328/217
f 434/159/266 176/72/51 173/70/49
f 434/159/266 435/160/267 178/74/52
f 400/161/235 429/162/262 403/163/238
f 428/329/261 418/319/252 423/334/257
f 423/334/257 418/319/252 417/318/251
f 428/165/261 436/166/268 429/162/262
f 437/167/269 343/155/165 430/154/263
f 437/167/269 342/168/137 343/155/165
f 421/322/255 438/335/218 433/333/265
f 421/322/255 439/336/190 438/335/218
f 440/337/270 183/99/56 178/97/52
f 440/337/270 425/326/259 184/100/54
f 434/159/266 178/74/52 176/72/51
f 440/337/270 432/332/264 425/326/259
f 415/140/249 436/166/268 441/170/271
f 415/140/249 414/139/248 429/162/262
f 441/338/271 436/339/268 422/323/256
f 415/140/249 442/173/272 413/138/247
f 443/174/273 170/68/47 14/6/4
f 443/174/273 444/175/274 173/70/49
f 443/174/273 173/70/49 170/68/47
f 434/159/266 442/173/272 435/160/267
f 403/163/238 344/156/176 345/176/177
f 403/163/238 429/162/262 414/139/248
f 417/318/251 420/340/254 423/334/257
f 445/341/275 439/342/190 421/343/255
f 404/309/239 406/311/241 412/317/246
f 405/310/240 30/24/7 446/344/232
f 404/309/239 408/313/243 405/310/240
f 407/312/242 401/306/236 409/314/244
f 403/163/238 414/139/248 430/154/263
f 429/162/262 436/166/268 415/140/249
f 426/327/260 433/333/265 424/325/258
f 433/333/265 438/335/218 427/328/217
f 432/332/264 422/323/256 426/327/260
f 432/332/264 442/345/272 441/338/271
f 408/313/243 32/26/6 31/25/6
f 408/313/243 409/314/244 346/253/184
f 440/337/270 184/100/54 183/99/56
f 425/326/259 399/304/225 398/303/234
f 423/324/257 422/323/256 436/339/268
f 420/321/254 445/346/275 421/322/255
f 444/175/274 413/138/247 442/173/272
f 416/141/250 443/174/273 437/167/269
f 419/320/253 423/324/257 420/321/254
f 407/312/242 402/307/237 401/306/236
f 444/175/274 434/159/266 173/70/49
f 440/337/270 435/347/267 432/332/264
f 445/341/275 417/318/251 410/315/245
f 418/319/252 402/307/237 407/312/242
f 409/314/244 348/255/169 347/254/149
f 401/306/236 345/256/177 348/255/169
f 403/163/238 430/154/263 344/156/176
f 442/173/272 415/140/249 441/170/271
f 445/341/275 431/331/197 439/342/190
f 445/341/275 410/315/245 431/331/197
f 425/326/259 424/325/258 399/304/225
f 426/327/260 419/320/253 433/333/265
f 443/174/273 14/6/4 342/168/137
f 416/141/250 444/175/274 443/174/273
f 416/141/250 413/138/247 444/175/274
f 437/167/269 430/154/263 416/141/250
f 437/167/269 443/174/273 342/168/137
f 434/159/266 444/175/274 442/173/272
f 435/347/267 442/345/272 432/332/264
f 398/303/234 9/9/3 186/101/57
f 184/100/54 425/326/259 398/303/234
f 435/347/267 440/337/270 178/97/52
f 402/307/237 429/330/262 400/305/235
f 433/333/265 419/320/253 421/322/255
f 445/341/275 420/340/254 417/318/251
f 428/329/261 423/334/257 436/348/268
f 412/317/246 417/318/251 407/312/242
f 30/24/7 29/23/7 446/344/232
f 31/25/6 30/24/7 405/310/240
f 32/26/6 346/253/184 28/22/6
f 408/313/243 346/253/184 32/26/6
f 31/25/6 405/310/240 408/313/243
f 406/311/241 405/310/240 446/344/232
f 411/316/233 406/311/241 446/344/232
f 409/314/244 347/254/149 346/253/184
f 422/323/256 432/332/264 441/338/271
f 422/323/256 419/320/253 426/327/260
f 345/256/177 401/306/236 400/305/235
f 29/23/7 33/27/5 446/344/232
f 446/344/232 33/27/5 396/300/232
f 411/316/233 446/344/232 396/300/232
f 397/301/233 411/316/233 396/300/232
f 397/301/233 431/331/197 411/316/233
f 397/301/233 361/268/197 431/331/197
f 431/331/197 361/268/197 439/342/190
f 439/342/190 361/268/197 354/261/190
f 389/291/225 10/10/3 9/9/3
f 399/304/225 389/291/225 9/9/3
f 399/304/225 381/280/217 389/291/225
f 399/304/225 427/328/217 381/280/217
f 381/280/217 427/328/217 382/281/218
f 382/281/218 427/328/217 438/335/218
f 354/296/190 382/281/218 438/335/218
f 354/296/190 438/335/218 439/336/190
