# Blender 4.4.3
# www.blender.org
mtllib Mesh_6.mtl
o Mesh_6
v 0.014999 0.009675 -0.014651
v 0.014995 0.009675 -0.014651
v 0.014999 0.009725 -0.014651
v 0.015004 0.009675 -0.014650
v 0.015009 0.009675 -0.014649
v 0.015004 0.009725 -0.014650
v 0.015009 0.009725 -0.014649
v 0.015013 0.009725 -0.014648
v 0.015013 0.009675 -0.014648
v 0.015017 0.009675 -0.014646
v 0.015017 0.009725 -0.014646
v 0.015022 0.009675 -0.014643
v 0.015022 0.009725 -0.014643
v 0.015025 0.009725 -0.014640
v 0.015025 0.009675 -0.014640
v 0.015029 0.009675 -0.014637
v 0.015029 0.009725 -0.014637
v 0.015032 0.009675 -0.014634
v 0.015032 0.009725 -0.014634
v 0.015035 0.009675 -0.014630
v 0.015035 0.009725 -0.014630
v 0.015037 0.009675 -0.014626
v 0.015039 0.009675 -0.014621
v 0.015037 0.009725 -0.014626
v 0.015039 0.009725 -0.014621
v 0.015041 0.009725 -0.014617
v 0.015041 0.009675 -0.014617
v 0.015042 0.009675 -0.014612
v 0.015042 0.009725 -0.014612
v 0.015043 0.009675 -0.014608
v 0.015043 0.009725 -0.014608
v 0.015043 0.009725 -0.014603
v 0.015043 0.009675 -0.014603
v 0.015043 0.009675 -0.014598
v 0.015043 0.009725 -0.014598
v 0.015042 0.009675 -0.014593
v 0.015042 0.009725 -0.014593
v 0.015041 0.009675 -0.014589
v 0.015041 0.009725 -0.014589
v 0.015039 0.009675 -0.014584
v 0.015037 0.009675 -0.014580
v 0.015039 0.009725 -0.014584
v 0.015037 0.009725 -0.014580
v 0.015035 0.009725 -0.014576
v 0.015035 0.009675 -0.014576
v 0.015032 0.009675 -0.014572
v 0.015025 0.009725 -0.014565
v 0.015022 0.009725 -0.014563
v 0.015022 0.009675 -0.014563
v 0.015017 0.009675 -0.014560
v 0.014995 0.009675 -0.014554
v 0.014999 0.009725 -0.014555
v 0.014995 0.009725 -0.014554
v 0.014990 0.009675 -0.014555
v 0.014990 0.009725 -0.014555
v 0.014985 0.009675 -0.014555
v 0.014985 0.009725 -0.014555
v 0.014981 0.009675 -0.014556
v 0.014981 0.009725 -0.014556
v 0.014976 0.009675 -0.014558
v 0.014972 0.009675 -0.014560
v 0.014976 0.009725 -0.014558
v 0.014968 0.009675 -0.014563
v 0.014972 0.009725 -0.014560
v 0.014968 0.009725 -0.014563
v 0.014964 0.009725 -0.014565
v 0.014964 0.009675 -0.014565
v 0.014960 0.009675 -0.014569
v 0.014960 0.009725 -0.014569
v 0.014957 0.009675 -0.014572
v 0.014957 0.009725 -0.014572
v 0.014954 0.009725 -0.014576
v 0.014954 0.009675 -0.014576
v 0.014952 0.009675 -0.014580
v 0.014952 0.009725 -0.014580
v 0.014950 0.009675 -0.014584
v 0.014950 0.009725 -0.014584
v 0.014948 0.009675 -0.014589
v 0.014948 0.009725 -0.014589
v 0.014947 0.009675 -0.014593
v 0.014946 0.009675 -0.014598
v 0.014947 0.009725 -0.014593
v 0.014946 0.009725 -0.014598
v 0.014946 0.009725 -0.014603
v 0.014946 0.009675 -0.014603
v 0.014946 0.009675 -0.014608
v 0.014946 0.009725 -0.014608
v 0.014947 0.009675 -0.014612
v 0.014947 0.009725 -0.014612
v 0.014948 0.009725 -0.014617
v 0.014948 0.009675 -0.014617
v 0.014950 0.009675 -0.014621
v 0.014950 0.009725 -0.014621
v 0.014952 0.009675 -0.014626
v 0.014952 0.009725 -0.014626
v 0.014954 0.009675 -0.014630
v 0.014954 0.009725 -0.014630
v 0.014957 0.009675 -0.014634
v 0.014960 0.009675 -0.014637
v 0.014957 0.009725 -0.014634
v 0.014960 0.009725 -0.014637
v 0.014995 0.009725 -0.014651
v 0.014990 0.009725 -0.014651
v 0.014990 0.009675 -0.014651
v 0.014985 0.009725 -0.014650
v 0.014985 0.009675 -0.014650
v 0.014981 0.009725 -0.014649
v 0.014981 0.009675 -0.014649
v 0.014976 0.009725 -0.014648
v 0.014976 0.009675 -0.014648
v 0.014972 0.009725 -0.014646
v 0.014972 0.009675 -0.014646
v 0.014968 0.009725 -0.014643
v 0.014968 0.009675 -0.014643
v 0.014964 0.009725 -0.014640
v 0.014964 0.009675 -0.014640
v 0.014999 0.009675 -0.014555
v 0.015004 0.009725 -0.014555
v 0.015004 0.009675 -0.014555
v 0.015009 0.009725 -0.014556
v 0.015009 0.009675 -0.014556
v 0.015013 0.009725 -0.014558
v 0.015013 0.009675 -0.014558
v 0.015017 0.009725 -0.014560
v 0.015025 0.009675 -0.014565
v 0.015029 0.009725 -0.014569
v 0.015029 0.009675 -0.014569
v 0.015032 0.009725 -0.014572
v 0.015004 0.009725 -0.014650
v 0.014999 0.009725 -0.014651
v 0.014995 0.009725 -0.014651
v 0.015009 0.009725 -0.014649
v 0.015004 0.009725 -0.014650
v 0.014995 0.009725 -0.014651
v 0.015013 0.009725 -0.014648
v 0.015009 0.009725 -0.014649
v 0.014995 0.009725 -0.014651
v 0.015017 0.009725 -0.014646
v 0.015013 0.009725 -0.014648
v 0.014995 0.009725 -0.014651
v 0.015022 0.009725 -0.014643
v 0.015017 0.009725 -0.014646
v 0.014995 0.009725 -0.014651
v 0.015025 0.009725 -0.014640
v 0.015022 0.009725 -0.014643
v 0.014995 0.009725 -0.014651
v 0.015029 0.009725 -0.014637
v 0.015025 0.009725 -0.014640
v 0.014995 0.009725 -0.014651
v 0.015032 0.009725 -0.014634
v 0.015029 0.009725 -0.014637
v 0.014995 0.009725 -0.014651
v 0.015035 0.009725 -0.014630
v 0.015032 0.009725 -0.014634
v 0.014995 0.009725 -0.014651
v 0.015037 0.009725 -0.014626
v 0.015035 0.009725 -0.014630
v 0.014995 0.009725 -0.014651
v 0.015039 0.009725 -0.014621
v 0.015037 0.009725 -0.014626
v 0.014995 0.009725 -0.014651
v 0.015041 0.009725 -0.014617
v 0.014995 0.009725 -0.014651
v 0.015042 0.009725 -0.014612
v 0.015041 0.009725 -0.014617
v 0.015039 0.009725 -0.014621
v 0.014995 0.009725 -0.014651
v 0.015042 0.009725 -0.014612
v 0.014995 0.009725 -0.014651
v 0.015043 0.009725 -0.014608
v 0.015043 0.009725 -0.014608
v 0.014995 0.009725 -0.014651
v 0.015043 0.009725 -0.014603
v 0.015043 0.009725 -0.014603
v 0.014995 0.009725 -0.014651
v 0.015043 0.009725 -0.014598
v 0.015043 0.009725 -0.014598
v 0.014995 0.009725 -0.014651
v 0.015042 0.009725 -0.014593
v 0.014995 0.009725 -0.014651
v 0.015041 0.009725 -0.014589
v 0.015042 0.009725 -0.014593
v 0.014995 0.009725 -0.014651
v 0.015039 0.009725 -0.014584
v 0.015041 0.009725 -0.014589
v 0.014995 0.009725 -0.014651
v 0.015037 0.009725 -0.014580
v 0.015039 0.009725 -0.014584
v 0.014995 0.009725 -0.014651
v 0.015035 0.009725 -0.014576
v 0.015037 0.009725 -0.014580
v 0.014995 0.009725 -0.014651
v 0.015032 0.009725 -0.014572
v 0.015035 0.009725 -0.014576
v 0.014995 0.009725 -0.014651
v 0.015029 0.009725 -0.014569
v 0.015032 0.009725 -0.014572
v 0.014995 0.009725 -0.014651
v 0.015025 0.009725 -0.014565
v 0.015029 0.009725 -0.014569
v 0.014995 0.009725 -0.014651
v 0.015022 0.009725 -0.014563
v 0.015025 0.009725 -0.014565
v 0.015013 0.009725 -0.014558
v 0.015017 0.009725 -0.014560
v 0.014995 0.009725 -0.014651
v 0.014995 0.009725 -0.014651
v 0.015017 0.009725 -0.014560
v 0.015022 0.009725 -0.014563
v 0.015009 0.009725 -0.014556
v 0.015013 0.009725 -0.014558
v 0.014995 0.009725 -0.014651
v 0.015004 0.009725 -0.014555
v 0.015009 0.009725 -0.014556
v 0.014995 0.009725 -0.014651
v 0.014999 0.009725 -0.014555
v 0.014995 0.009725 -0.014651
v 0.014995 0.009725 -0.014554
v 0.014995 0.009725 -0.014554
v 0.014995 0.009725 -0.014651
v 0.014990 0.009725 -0.014555
v 0.014990 0.009725 -0.014555
v 0.014995 0.009725 -0.014651
v 0.014985 0.009725 -0.014555
v 0.014995 0.009725 -0.014651
v 0.014981 0.009725 -0.014556
v 0.014985 0.009725 -0.014555
v 0.014995 0.009725 -0.014651
v 0.014976 0.009725 -0.014558
v 0.014981 0.009725 -0.014556
v 0.014995 0.009725 -0.014651
v 0.014972 0.009725 -0.014560
v 0.014976 0.009725 -0.014558
v 0.014995 0.009725 -0.014651
v 0.014968 0.009725 -0.014563
v 0.014972 0.009725 -0.014560
v 0.014995 0.009725 -0.014651
v 0.014964 0.009725 -0.014565
v 0.014968 0.009725 -0.014563
v 0.014995 0.009725 -0.014651
v 0.014960 0.009725 -0.014569
v 0.014964 0.009725 -0.014565
v 0.014995 0.009725 -0.014651
v 0.014957 0.009725 -0.014572
v 0.014960 0.009725 -0.014569
v 0.014995 0.009725 -0.014651
v 0.014954 0.009725 -0.014576
v 0.014957 0.009725 -0.014572
v 0.014950 0.009725 -0.014584
v 0.014952 0.009725 -0.014580
v 0.014995 0.009725 -0.014651
v 0.014995 0.009725 -0.014651
v 0.014952 0.009725 -0.014580
v 0.014954 0.009725 -0.014576
v 0.014948 0.009725 -0.014589
v 0.014950 0.009725 -0.014584
v 0.014995 0.009725 -0.014651
v 0.014947 0.009725 -0.014593
v 0.014948 0.009725 -0.014589
v 0.014995 0.009725 -0.014651
v 0.014946 0.009725 -0.014598
v 0.014947 0.009725 -0.014593
v 0.014995 0.009725 -0.014651
v 0.014946 0.009725 -0.014603
v 0.014946 0.009725 -0.014598
v 0.014995 0.009725 -0.014651
v 0.014946 0.009725 -0.014608
v 0.014946 0.009725 -0.014603
v 0.014995 0.009725 -0.014651
v 0.014946 0.009725 -0.014608
v 0.014995 0.009725 -0.014651
v 0.014947 0.009725 -0.014612
v 0.014947 0.009725 -0.014612
v 0.014995 0.009725 -0.014651
v 0.014948 0.009725 -0.014617
v 0.014948 0.009725 -0.014617
v 0.014995 0.009725 -0.014651
v 0.014950 0.009725 -0.014621
v 0.014950 0.009725 -0.014621
v 0.014995 0.009725 -0.014651
v 0.014952 0.009725 -0.014626
v 0.014952 0.009725 -0.014626
v 0.014995 0.009725 -0.014651
v 0.014954 0.009725 -0.014630
v 0.014954 0.009725 -0.014630
v 0.014995 0.009725 -0.014651
v 0.014957 0.009725 -0.014634
v 0.014957 0.009725 -0.014634
v 0.014995 0.009725 -0.014651
v 0.014960 0.009725 -0.014637
v 0.014960 0.009725 -0.014637
v 0.014995 0.009725 -0.014651
v 0.014964 0.009725 -0.014640
v 0.014995 0.009725 -0.014651
v 0.014972 0.009725 -0.014646
v 0.014968 0.009725 -0.014643
v 0.014964 0.009725 -0.014640
v 0.014995 0.009725 -0.014651
v 0.014968 0.009725 -0.014643
v 0.014995 0.009725 -0.014651
v 0.014976 0.009725 -0.014648
v 0.014972 0.009725 -0.014646
v 0.014995 0.009725 -0.014651
v 0.014981 0.009725 -0.014649
v 0.014976 0.009725 -0.014648
v 0.014995 0.009725 -0.014651
v 0.014985 0.009725 -0.014650
v 0.014981 0.009725 -0.014649
v 0.014995 0.009725 -0.014651
v 0.014990 0.009725 -0.014651
v 0.014985 0.009725 -0.014650
v 0.014999 0.009725 -0.014555
v 0.015004 0.009725 -0.014555
v 0.014995 0.009725 -0.014651
v 0.015004 0.009675 -0.014650
v 0.014995 0.009675 -0.014651
v 0.014999 0.009675 -0.014651
v 0.015009 0.009675 -0.014649
v 0.014995 0.009675 -0.014651
v 0.015004 0.009675 -0.014650
v 0.015013 0.009675 -0.014648
v 0.014995 0.009675 -0.014651
v 0.015009 0.009675 -0.014649
v 0.015017 0.009675 -0.014646
v 0.014995 0.009675 -0.014651
v 0.015013 0.009675 -0.014648
v 0.015022 0.009675 -0.014643
v 0.014995 0.009675 -0.014651
v 0.015017 0.009675 -0.014646
v 0.015025 0.009675 -0.014640
v 0.014995 0.009675 -0.014651
v 0.015022 0.009675 -0.014643
v 0.015029 0.009675 -0.014637
v 0.014995 0.009675 -0.014651
v 0.015025 0.009675 -0.014640
v 0.015032 0.009675 -0.014634
v 0.014995 0.009675 -0.014651
v 0.015029 0.009675 -0.014637
v 0.015035 0.009675 -0.014630
v 0.014995 0.009675 -0.014651
v 0.015032 0.009675 -0.014634
v 0.015037 0.009675 -0.014626
v 0.014995 0.009675 -0.014651
v 0.015035 0.009675 -0.014630
v 0.015039 0.009675 -0.014621
v 0.014995 0.009675 -0.014651
v 0.015037 0.009675 -0.014626
v 0.015041 0.009675 -0.014617
v 0.015042 0.009675 -0.014612
v 0.014995 0.009675 -0.014651
v 0.015041 0.009675 -0.014617
v 0.014995 0.009675 -0.014651
v 0.015039 0.009675 -0.014621
v 0.015042 0.009675 -0.014612
v 0.015043 0.009675 -0.014608
v 0.014995 0.009675 -0.014651
v 0.015043 0.009675 -0.014608
v 0.015043 0.009675 -0.014603
v 0.014995 0.009675 -0.014651
v 0.015043 0.009675 -0.014603
v 0.015043 0.009675 -0.014598
v 0.014995 0.009675 -0.014651
v 0.015043 0.009675 -0.014598
v 0.015042 0.009675 -0.014593
v 0.014995 0.009675 -0.014651
v 0.014995 0.009675 -0.014651
v 0.015042 0.009675 -0.014593
v 0.015041 0.009675 -0.014589
v 0.014995 0.009675 -0.014651
v 0.015041 0.009675 -0.014589
v 0.015039 0.009675 -0.014584
v 0.014995 0.009675 -0.014651
v 0.015039 0.009675 -0.014584
v 0.015037 0.009675 -0.014580
v 0.014995 0.009675 -0.014651
v 0.015037 0.009675 -0.014580
v 0.015035 0.009675 -0.014576
v 0.014995 0.009675 -0.014651
v 0.015035 0.009675 -0.014576
v 0.015032 0.009675 -0.014572
v 0.014995 0.009675 -0.014651
v 0.015032 0.009675 -0.014572
v 0.015029 0.009675 -0.014569
v 0.014995 0.009675 -0.014651
v 0.015029 0.009675 -0.014569
v 0.015025 0.009675 -0.014565
v 0.014995 0.009675 -0.014651
v 0.015025 0.009675 -0.014565
v 0.015022 0.009675 -0.014563
v 0.015013 0.009675 -0.014558
v 0.014995 0.009675 -0.014651
v 0.015017 0.009675 -0.014560
v 0.014995 0.009675 -0.014651
v 0.015022 0.009675 -0.014563
v 0.015017 0.009675 -0.014560
v 0.015009 0.009675 -0.014556
v 0.014995 0.009675 -0.014651
v 0.015013 0.009675 -0.014558
v 0.015004 0.009675 -0.014555
v 0.014995 0.009675 -0.014651
v 0.015009 0.009675 -0.014556
v 0.014999 0.009675 -0.014555
v 0.014995 0.009675 -0.014554
v 0.014995 0.009675 -0.014651
v 0.014995 0.009675 -0.014554
v 0.014990 0.009675 -0.014555
v 0.014995 0.009675 -0.014651
v 0.014990 0.009675 -0.014555
v 0.014985 0.009675 -0.014555
v 0.014995 0.009675 -0.014651
v 0.014995 0.009675 -0.014651
v 0.014985 0.009675 -0.014555
v 0.014981 0.009675 -0.014556
v 0.014995 0.009675 -0.014651
v 0.014981 0.009675 -0.014556
v 0.014976 0.009675 -0.014558
v 0.014995 0.009675 -0.014651
v 0.014976 0.009675 -0.014558
v 0.014972 0.009675 -0.014560
v 0.014995 0.009675 -0.014651
v 0.014972 0.009675 -0.014560
v 0.014968 0.009675 -0.014563
v 0.014995 0.009675 -0.014651
v 0.014968 0.009675 -0.014563
v 0.014964 0.009675 -0.014565
v 0.014995 0.009675 -0.014651
v 0.014964 0.009675 -0.014565
v 0.014960 0.009675 -0.014569
v 0.014995 0.009675 -0.014651
v 0.014960 0.009675 -0.014569
v 0.014957 0.009675 -0.014572
v 0.014995 0.009675 -0.014651
v 0.014957 0.009675 -0.014572
v 0.014954 0.009675 -0.014576
v 0.014950 0.009675 -0.014584
v 0.014995 0.009675 -0.014651
v 0.014952 0.009675 -0.014580
v 0.014995 0.009675 -0.014651
v 0.014954 0.009675 -0.014576
v 0.014952 0.009675 -0.014580
v 0.014948 0.009675 -0.014589
v 0.014995 0.009675 -0.014651
v 0.014950 0.009675 -0.014584
v 0.014947 0.009675 -0.014593
v 0.014995 0.009675 -0.014651
v 0.014948 0.009675 -0.014589
v 0.014946 0.009675 -0.014598
v 0.014995 0.009675 -0.014651
v 0.014947 0.009675 -0.014593
v 0.014946 0.009675 -0.014603
v 0.014995 0.009675 -0.014651
v 0.014946 0.009675 -0.014598
v 0.014946 0.009675 -0.014608
v 0.014995 0.009675 -0.014651
v 0.014946 0.009675 -0.014603
v 0.014946 0.009675 -0.014608
v 0.014947 0.009675 -0.014612
v 0.014995 0.009675 -0.014651
v 0.014947 0.009675 -0.014612
v 0.014948 0.009675 -0.014617
v 0.014995 0.009675 -0.014651
v 0.014948 0.009675 -0.014617
v 0.014950 0.009675 -0.014621
v 0.014995 0.009675 -0.014651
v 0.014950 0.009675 -0.014621
v 0.014952 0.009675 -0.014626
v 0.014995 0.009675 -0.014651
v 0.014952 0.009675 -0.014626
v 0.014954 0.009675 -0.014630
v 0.014995 0.009675 -0.014651
v 0.014954 0.009675 -0.014630
v 0.014957 0.009675 -0.014634
v 0.014995 0.009675 -0.014651
v 0.014957 0.009675 -0.014634
v 0.014960 0.009675 -0.014637
v 0.014995 0.009675 -0.014651
v 0.014960 0.009675 -0.014637
v 0.014964 0.009675 -0.014640
v 0.014995 0.009675 -0.014651
v 0.014995 0.009675 -0.014651
v 0.014968 0.009675 -0.014643
v 0.014972 0.009675 -0.014646
v 0.014964 0.009675 -0.014640
v 0.014968 0.009675 -0.014643
v 0.014995 0.009675 -0.014651
v 0.014995 0.009675 -0.014651
v 0.014972 0.009675 -0.014646
v 0.014976 0.009675 -0.014648
v 0.014995 0.009675 -0.014651
v 0.014976 0.009675 -0.014648
v 0.014981 0.009675 -0.014649
v 0.014995 0.009675 -0.014651
v 0.014981 0.009675 -0.014649
v 0.014985 0.009675 -0.014650
v 0.014995 0.009675 -0.014651
v 0.014985 0.009675 -0.014650
v 0.014990 0.009675 -0.014651
v 0.014999 0.009675 -0.014555
v 0.014995 0.009675 -0.014651
v 0.015004 0.009675 -0.014555
vn 0.0980 -0.0000 -0.9952
vn -0.0000 -0.0000 -1.0000
vn 0.1952 -0.0000 -0.9808
vn 0.2903 -0.0000 -0.9569
vn 0.1951 -0.0000 -0.9808
vn 0.3827 -0.0000 -0.9239
vn 0.4714 -0.0000 -0.8819
vn 0.5556 -0.0000 -0.8315
vn 0.6344 -0.0000 -0.7730
vn 0.7071 -0.0000 -0.7071
vn 0.7730 -0.0000 -0.6344
vn 0.8315 -0.0000 -0.5556
vn 0.8819 -0.0000 -0.4714
vn 0.9239 -0.0000 -0.3827
vn 0.9569 -0.0000 -0.2903
vn 0.9808 -0.0000 -0.1951
vn 0.9952 -0.0000 -0.0980
vn 1.0000 -0.0000 -0.0000
vn 0.9952 -0.0000 0.0978
vn 0.9952 -0.0000 0.0980
vn 0.9808 -0.0000 0.1951
vn 0.9569 -0.0000 0.2903
vn 0.9239 -0.0000 0.3827
vn 0.8819 -0.0000 0.4714
vn 0.8315 -0.0000 0.5556
vn 0.7730 -0.0000 0.6344
vn 0.6342 -0.0000 0.7732
vn 0.5556 -0.0000 0.8315
vn 0.4714 -0.0000 0.8819
vn -0.0000 -0.0000 1.0000
vn 0.0980 -0.0000 0.9952
vn -0.0980 -0.0000 0.9952
vn -0.0984 -0.0000 0.9952
vn -0.1951 -0.0000 0.9808
vn -0.2903 -0.0000 0.9569
vn -0.3827 -0.0000 0.9239
vn -0.4714 -0.0000 0.8819
vn -0.5556 -0.0000 0.8315
vn -0.6344 -0.0000 0.7730
vn -0.7072 -0.0000 0.7070
vn -0.7069 -0.0000 0.7073
vn -0.7730 -0.0000 0.6344
vn -0.8315 -0.0000 0.5556
vn -0.8819 -0.0000 0.4714
vn -0.9239 -0.0000 0.3827
vn -0.9569 -0.0000 0.2903
vn -0.9808 -0.0000 0.1951
vn -0.9952 -0.0000 0.0979
vn -0.9952 -0.0000 0.0982
vn -1.0000 -0.0000 -0.0000
vn -0.9952 -0.0000 -0.0980
vn -0.9808 -0.0000 -0.1951
vn -0.9569 -0.0000 -0.2903
vn -0.9239 -0.0000 -0.3827
vn -0.8819 -0.0000 -0.4714
vn -0.8315 -0.0000 -0.5555
vn -0.8315 -0.0000 -0.5556
vn -0.7730 -0.0000 -0.6344
vn -0.7071 -0.0000 -0.7071
vn -0.0980 -0.0000 -0.9952
vn -0.0984 -0.0000 -0.9951
vn -0.1951 -0.0000 -0.9808
vn -0.2903 -0.0000 -0.9569
vn -0.3827 -0.0000 -0.9239
vn -0.4714 -0.0000 -0.8819
vn -0.5556 -0.0000 -0.8314
vn -0.5556 -0.0000 -0.8315
vn -0.6344 -0.0000 -0.7730
vn 0.1951 -0.0000 0.9808
vn 0.2903 -0.0000 0.9569
vn 0.3827 -0.0000 0.9239
vn 0.6340 -0.0000 0.7734
vn 0.7073 -0.0000 0.7069
vn 0.7069 -0.0000 0.7073
vn -0.0000 1.0000 -0.0000
vn -0.0000 1.0000 -0.0001
vn -0.0000 1.0000 0.0001
vn -0.0000 1.0000 -0.0002
vn -0.0000 1.0000 0.0002
vn -0.0000 -1.0000 -0.0000
vn -0.0000 -1.0000 -0.0001
vn -0.0000 -1.0000 0.0001
vn -0.0000 -1.0000 -0.0002
vn -0.0000 -1.0000 0.0002
vt -0.000000 -0.047538
vt -0.000000 0.000000
vt -0.500000 -0.047538
vt -0.000000 -0.094619
vt -0.000000 -0.140788
vt -0.500000 -0.094619
vt -0.500000 -0.140788
vt -0.500000 -0.185601
vt -0.000000 -0.185601
vt -0.000000 -0.228627
vt -0.500000 -0.228627
vt -0.000000 -0.269452
vt -0.500000 -0.269452
vt -0.500000 -0.307681
vt -0.000000 -0.307681
vt -0.000000 -0.342947
vt 0.342947 0.000000
vt 0.342947 0.500000
vt 0.307681 0.000000
vt 0.307681 0.500000
vt 0.269452 0.000000
vt 0.269452 0.500000
vt 0.228627 0.000000
vt 0.185601 0.000000
vt 0.228627 0.500000
vt 0.185601 0.500000
vt 0.140788 0.500000
vt 0.140788 0.000000
vt 0.094619 0.000000
vt 0.094619 0.500000
vt 0.047538 0.000000
vt 0.047538 0.500000
vt 0.000000 0.500000
vt -0.047538 0.000000
vt -0.047538 0.500000
vt -0.094619 0.000000
vt -0.094619 0.500000
vt -0.140788 0.000000
vt -0.140788 0.500000
vt -0.185601 0.000000
vt -0.228627 0.000000
vt -0.185601 0.500000
vt -0.228627 0.500000
vt -0.269452 0.500000
vt -0.269452 0.000000
vt -0.307681 0.000000
vt 0.500000 -0.307681
vt 0.500000 -0.269452
vt 0.500000 -0.047538
vt 0.500000 0.000000
vt 0.000000 0.047538
vt 0.500000 0.047538
vt 0.000000 0.094619
vt 0.500000 0.094619
vt 0.000000 0.140788
vt 0.500000 0.140788
vt 0.000000 0.185601
vt 0.000000 0.228627
vt 0.500000 0.185601
vt 0.000000 0.269452
vt 0.500000 0.228627
vt 0.500000 0.269452
vt 0.500000 0.307681
vt 0.000000 0.307681
vt 0.000000 0.342947
vt -0.342947 0.000000
vt -0.307681 0.500000
vt -0.342947 0.500000
vt -0.500000 0.000000
vt -0.500000 0.047538
vt -0.500000 0.094619
vt -0.500000 0.140788
vt -0.500000 0.185601
vt -0.500000 0.228627
vt -0.500000 0.269452
vt -0.500000 0.307681
vt -0.500000 0.342947
vt 0.500000 0.342947
vt 0.500000 -0.094619
vt 0.500000 -0.140788
vt 0.500000 -0.185601
vt 0.500000 -0.228627
vt 0.500000 -0.342947
vt -0.500000 -0.342947
vt 0.475681 -0.094619
vt 0.482665 -0.047538
vt 0.485000 0.000000
vt 0.464116 -0.140788
vt 0.448082 -0.185601
vt 0.427732 -0.228627
vt 0.403263 -0.269452
vt 0.374910 -0.307681
vt 0.342947 -0.342947
vt 0.307681 -0.374910
vt 0.269452 -0.403263
vt 0.228627 -0.427732
vt 0.185601 -0.448082
vt 0.140788 -0.464116
vt 0.094619 -0.475681
vt 0.047538 -0.482665
vt 0.000000 -0.485000
vt -0.047538 -0.482665
vt -0.094619 -0.475681
vt -0.140788 -0.464116
vt -0.185601 -0.448082
vt -0.228627 -0.427732
vt -0.269452 -0.403263
vt -0.307681 -0.374910
vt -0.342947 -0.342947
vt -0.374910 -0.307681
vt -0.403263 -0.269452
vt -0.448082 -0.185601
vt -0.427732 -0.228627
vt -0.464116 -0.140788
vt -0.475681 -0.094619
vt -0.482665 -0.047538
vt -0.485000 0.000000
vt -0.482665 0.047538
vt -0.475681 0.094619
vt -0.464116 0.140788
vt -0.448082 0.185601
vt -0.427732 0.228627
vt -0.403263 0.269452
vt -0.374910 0.307681
vt -0.342947 0.342947
vt -0.307681 0.374910
vt -0.269452 0.403263
vt -0.185601 0.448082
vt -0.228627 0.427732
vt -0.140788 0.464116
vt -0.094619 0.475681
vt -0.047538 0.482665
vt 0.000000 0.485000
vt 0.047538 0.482665
vt 0.094619 0.475681
vt 0.140788 0.464116
vt 0.185601 0.448082
vt 0.228627 0.427732
vt 0.269452 0.403263
vt 0.307681 0.374910
vt 0.342947 0.342947
vt 0.374910 0.307681
vt 0.427732 0.228627
vt 0.403263 0.269452
vt 0.448082 0.185601
vt 0.464116 0.140788
vt 0.475681 0.094619
vt 0.482665 0.047538
s 1
usemtl Diffuse_51_51_51_100.044
f 1/1/1 2/2/2 3/3/1
f 4/4/3 1/1/1 3/3/1
f 5/5/4 4/4/3 6/6/5
f 7/7/4 5/5/4 6/6/5
f 8/8/6 9/9/6 7/7/4
f 8/8/6 10/10/7 9/9/6
f 11/11/7 12/12/8 10/10/7
f 11/11/7 13/13/8 12/12/8
f 13/13/8 14/14/9 15/15/9
f 15/15/9 14/14/9 16/16/10
f 16/17/10 17/18/10 18/19/11
f 18/19/11 17/18/10 19/20/11
f 20/21/12 19/20/11 21/22/12
f 22/23/13 20/21/12 21/22/12
f 23/24/14 22/23/13 24/25/13
f 25/26/14 23/24/14 24/25/13
f 26/27/15 27/28/15 25/26/14
f 26/27/15 28/29/16 27/28/15
f 29/30/16 30/31/17 28/29/16
f 29/30/16 31/32/17 30/31/17
f 31/32/17 32/33/18 33/2/18
f 33/2/18 32/33/18 34/34/19
f 34/34/19 35/35/20 36/36/21
f 36/36/21 35/35/20 37/37/21
f 38/38/22 37/37/21 39/39/22
f 40/40/23 38/38/22 39/39/22
f 41/41/24 40/40/23 42/42/23
f 43/43/24 41/41/24 42/42/23
f 44/44/25 45/45/25 43/43/24
f 44/44/25 46/46/26 45/45/25
f 47/47/27 48/48/28 49/12/28
f 48/48/28 50/10/29 49/12/28
f 51/2/30 52/49/31 53/50/30
f 51/2/30 53/50/30 54/51/32
f 54/51/32 55/52/33 56/53/34
f 56/53/34 55/52/33 57/54/34
f 58/55/35 57/54/34 59/56/35
f 60/57/36 58/55/35 59/56/35
f 61/58/37 60/57/36 62/59/36
f 63/60/38 61/58/37 64/61/37
f 65/62/38 63/60/38 64/61/37
f 66/63/39 67/64/39 65/62/38
f 66/63/39 68/65/40 67/64/39
f 69/18/41 70/19/42 68/17/40
f 69/18/41 71/20/42 70/19/42
f 71/20/42 72/22/43 73/21/43
f 73/21/43 72/22/43 74/23/44
f 74/23/44 75/25/44 76/24/45
f 76/24/45 75/25/44 77/26/45
f 78/28/46 77/26/45 79/27/46
f 80/29/47 78/28/46 79/27/46
f 81/31/48 80/29/47 82/30/47
f 83/32/49 81/31/48 82/30/47
f 84/33/50 85/2/50 83/32/49
f 84/33/50 86/34/51 85/2/50
f 87/35/51 88/36/52 86/34/51
f 87/35/51 89/37/52 88/36/52
f 89/37/52 90/39/53 91/38/53
f 91/38/53 90/39/53 92/40/54
f 92/40/54 93/42/54 94/41/55
f 94/41/55 93/42/54 95/43/55
f 96/45/56 95/43/55 97/44/57
f 98/46/58 96/45/56 97/44/57
f 99/66/59 98/46/58 100/67/58
f 101/68/59 99/66/59 100/67/58
f 2/2/2 102/69/2 3/3/1
f 103/70/60 2/2/2 104/51/61
f 105/71/62 103/70/60 104/51/61
f 106/53/62 105/71/62 104/51/61
f 106/53/62 107/72/63 105/71/62
f 106/53/62 108/55/63 107/72/63
f 107/72/63 108/55/63 109/73/64
f 109/73/64 108/55/63 110/57/64
f 111/74/65 109/73/64 110/57/64
f 112/58/65 111/74/65 110/57/64
f 112/58/65 113/75/66 111/74/65
f 112/58/65 114/60/67 113/75/66
f 113/75/66 114/60/67 115/76/68
f 115/76/68 114/60/67 116/64/68
f 101/77/59 115/76/68 116/64/68
f 99/65/59 101/77/59 116/64/68
f 97/44/57 100/67/58 98/46/58
f 95/43/55 96/45/56 94/41/55
f 93/42/54 92/40/54 90/39/53
f 91/38/53 88/36/52 89/37/52
f 86/34/51 84/33/50 87/35/51
f 81/31/48 83/32/49 85/2/50
f 79/27/46 82/30/47 80/29/47
f 77/26/45 78/28/46 76/24/45
f 75/25/44 74/23/44 72/22/43
f 73/21/43 70/19/42 71/20/42
f 68/65/40 66/63/39 69/78/41
f 63/60/38 65/62/38 67/64/39
f 62/59/36 64/61/37 61/58/37
f 59/56/35 62/59/36 60/57/36
f 57/54/34 58/55/35 56/53/34
f 55/52/33 54/51/32 53/50/30
f 103/70/60 102/69/2 2/2/2
f 52/49/31 51/2/30 117/1/31
f 118/79/69 52/49/31 117/1/31
f 119/4/69 118/79/69 117/1/31
f 119/4/69 120/80/70 118/79/69
f 119/4/69 121/5/70 120/80/70
f 120/80/70 121/5/70 122/81/71
f 122/81/71 121/5/70 123/9/71
f 124/82/29 122/81/71 123/9/71
f 50/10/29 124/82/29 123/9/71
f 50/10/29 48/48/28 124/82/29
f 49/12/28 125/15/72 47/47/27
f 47/47/27 125/15/72 126/83/73
f 126/83/73 125/15/72 127/16/74
f 128/67/26 126/68/73 127/66/74
f 46/46/26 128/67/26 127/66/74
f 46/46/26 44/44/25 128/67/26
f 41/41/24 43/43/24 45/45/25
f 39/39/22 42/42/23 40/40/23
f 37/37/21 38/38/22 36/36/21
f 35/35/20 34/34/19 32/33/18
f 33/2/18 30/31/17 31/32/17
f 28/29/16 26/27/15 29/30/16
f 23/24/14 25/26/14 27/28/15
f 21/22/12 24/25/13 22/23/13
f 19/20/11 20/21/12 18/19/11
f 17/84/10 16/16/10 14/14/9
f 15/15/9 12/12/8 13/13/8
f 10/10/7 8/8/6 11/11/7
f 5/5/4 7/7/4 9/9/6
f 3/3/1 6/6/5 4/4/3
f 129/85/75 130/86/75 131/87/75
f 132/88/75 133/85/75 134/87/75
f 135/89/75 136/88/75 137/87/75
f 138/90/76 139/89/76 140/87/76
f 141/91/75 142/90/75 143/87/75
f 144/92/75 145/91/75 146/87/75
f 147/93/75 148/92/75 149/87/75
f 150/94/75 151/93/75 152/87/75
f 153/95/75 154/94/75 155/87/75
f 156/96/75 157/95/75 158/87/75
f 159/97/76 160/96/76 161/87/76
f 162/98/75 163/87/75 164/99/75
f 165/98/75 166/97/75 167/87/75
f 168/99/75 169/87/75 170/100/75
f 171/100/75 172/87/75 173/101/75
f 174/101/75 175/87/75 176/102/75
f 177/102/75 178/87/75 179/103/75
f 180/87/76 181/104/76 182/103/76
f 183/87/77 184/105/77 185/104/77
f 186/87/78 187/106/78 188/105/78
f 189/87/77 190/107/77 191/106/77
f 192/87/75 193/108/75 194/107/75
f 195/87/75 196/109/75 197/108/75
f 198/87/77 199/110/77 200/109/77
f 201/87/75 202/111/75 203/110/75
f 204/112/76 205/113/76 206/87/76
f 207/87/75 208/113/75 209/111/75
f 210/114/75 211/112/75 212/87/75
f 213/115/77 214/114/77 215/87/77
f 216/116/75 217/87/75 218/117/75
f 219/117/75 220/87/75 221/118/75
f 222/118/75 223/87/75 224/119/75
f 225/87/75 226/120/75 227/119/75
f 228/87/75 229/121/75 230/120/75
f 231/87/75 232/122/75 233/121/75
f 234/87/75 235/123/75 236/122/75
f 237/87/76 238/124/76 239/123/76
f 240/87/77 241/125/77 242/124/77
f 243/87/75 244/126/75 245/125/75
f 246/87/75 247/127/75 248/126/75
f 249/128/78 250/129/78 251/87/78
f 252/87/75 253/129/75 254/127/75
f 255/130/75 256/128/75 257/87/75
f 258/131/79 259/130/79 260/87/79
f 261/132/75 262/131/75 263/87/75
f 264/133/75 265/132/75 266/87/75
f 267/134/75 268/133/75 269/87/75
f 270/134/75 271/87/75 272/135/75
f 273/135/77 274/87/77 275/136/77
f 276/136/75 277/87/75 278/137/75
f 279/137/75 280/87/75 281/138/75
f 282/138/75 283/87/75 284/139/75
f 285/139/75 286/87/75 287/140/75
f 288/140/75 289/87/75 290/141/75
f 291/141/75 292/87/75 293/142/75
f 294/87/75 295/143/75 296/144/75
f 297/142/75 298/87/75 299/144/75
f 300/87/75 301/145/75 302/143/75
f 303/87/75 304/146/75 305/145/75
f 306/87/75 307/147/75 308/146/75
f 309/87/75 310/148/75 311/147/75
f 312/116/75 313/115/75 314/87/75
f 315/115/80 316/117/80 317/116/80
f 318/114/80 319/117/80 320/115/80
f 321/112/80 322/117/80 323/114/80
f 324/113/80 325/117/80 326/112/80
f 327/111/80 328/117/80 329/113/80
f 330/110/80 331/117/80 332/111/80
f 333/109/80 334/117/80 335/110/80
f 336/108/80 337/117/80 338/109/80
f 339/107/81 340/117/81 341/108/81
f 342/106/80 343/117/80 344/107/80
f 345/105/80 346/117/80 347/106/80
f 348/104/80 349/103/80 350/117/80
f 351/104/80 352/117/80 353/105/80
f 354/103/80 355/102/80 356/117/80
f 357/102/80 358/101/80 359/117/80
f 360/101/80 361/100/80 362/117/80
f 363/100/80 364/99/80 365/117/80
f 366/117/81 367/99/81 368/98/81
f 369/117/82 370/98/82 371/97/82
f 372/117/80 373/97/80 374/96/80
f 375/117/81 376/96/81 377/95/81
f 378/117/82 379/95/82 380/94/82
f 381/117/80 382/94/80 383/93/80
f 384/117/81 385/93/81 386/92/81
f 387/117/80 388/92/80 389/91/80
f 390/89/80 391/117/80 392/90/80
f 393/117/80 394/91/80 395/90/80
f 396/88/80 397/117/80 398/89/80
f 399/85/80 400/117/80 401/88/80
f 402/86/80 403/87/80 404/117/80
f 405/87/80 406/148/80 407/117/80
f 408/148/80 409/147/80 410/117/80
f 411/117/80 412/147/80 413/146/80
f 414/117/80 415/146/80 416/145/80
f 417/117/80 418/145/80 419/143/80
f 420/117/80 421/143/80 422/144/80
f 423/117/81 424/144/81 425/142/81
f 426/117/82 427/142/82 428/141/82
f 429/117/80 430/141/80 431/140/80
f 432/117/80 433/140/80 434/139/80
f 435/137/83 436/117/83 437/138/83
f 438/117/80 439/139/80 440/138/80
f 441/136/80 442/117/80 443/137/80
f 444/135/80 445/117/80 446/136/80
f 447/134/84 448/117/84 449/135/84
f 450/133/80 451/117/80 452/134/80
f 453/132/80 454/117/80 455/133/80
f 456/132/82 457/131/82 458/117/82
f 459/131/80 460/130/80 461/117/80
f 462/130/80 463/128/80 464/117/80
f 465/128/80 466/129/80 467/117/80
f 468/129/80 469/127/80 470/117/80
f 471/127/80 472/126/80 473/117/80
f 474/126/80 475/125/80 476/117/80
f 477/125/80 478/124/80 479/117/80
f 480/117/80 481/123/80 482/122/80
f 483/124/80 484/123/80 485/117/80
f 486/117/80 487/122/80 488/121/80
f 489/117/80 490/121/80 491/120/80
f 492/117/80 493/120/80 494/119/80
f 495/117/80 496/119/80 497/118/80
f 498/86/80 499/117/80 500/85/80
