# Blender 4.4.3
# www.blender.org
mtllib Mesh_1.003.mtl
o Mesh_1.003
v 0.012086 0.008894 -0.014588
v 0.012070 0.008894 -0.014586
v 0.012077 0.008894 -0.014603
v 0.012103 0.008894 -0.014588
v 0.012106 0.008894 -0.014575
v 0.012100 0.008894 -0.014573
v 0.012112 0.008894 -0.014603
v 0.012124 0.008894 -0.014597
v 0.012122 0.008894 -0.014591
v 0.012120 0.008894 -0.014586
v 0.012103 0.008894 -0.014618
v 0.012120 0.008894 -0.014619
v 0.012086 0.008894 -0.014618
v 0.012083 0.008894 -0.014631
v 0.012089 0.008894 -0.014632
v 0.012083 0.008894 -0.014575
v 0.012078 0.008894 -0.014578
v 0.012067 0.008894 -0.014591
v 0.012095 0.008894 -0.014633
v 0.012100 0.008894 -0.014632
v 0.012106 0.008894 -0.014631
v 0.012111 0.008894 -0.014628
v 0.012116 0.008894 -0.014624
v 0.012122 0.008894 -0.014614
v 0.012124 0.008894 -0.014609
v 0.012125 0.008894 -0.014603
v 0.012116 0.008894 -0.014582
v 0.012111 0.008894 -0.014578
v 0.012095 0.008894 -0.014573
v 0.012089 0.008894 -0.014573
v 0.012073 0.008894 -0.014582
v 0.012065 0.008894 -0.014597
v 0.012065 0.008894 -0.014603
v 0.012065 0.008894 -0.014609
v 0.012067 0.008894 -0.014614
v 0.012070 0.008894 -0.014619
v 0.012073 0.008894 -0.014624
v 0.012078 0.008894 -0.014628
v 0.012124 0.008957 -0.014597
v 0.012122 0.008957 -0.014591
v 0.012129 0.008962 -0.014596
v 0.012120 0.008957 -0.014586
v 0.012127 0.008962 -0.014589
v 0.012116 0.008957 -0.014582
v 0.012124 0.008962 -0.014583
v 0.012119 0.008962 -0.014578
v 0.012114 0.008962 -0.014574
v 0.012111 0.008957 -0.014578
v 0.012108 0.008962 -0.014570
v 0.012106 0.008957 -0.014575
v 0.012101 0.008962 -0.014569
v 0.012100 0.008957 -0.014573
v 0.012095 0.008957 -0.014573
v 0.012095 0.008962 -0.014568
v 0.012089 0.008957 -0.014573
v 0.012088 0.008962 -0.014569
v 0.012083 0.008957 -0.014575
v 0.012081 0.008962 -0.014570
v 0.012078 0.008957 -0.014578
v 0.012075 0.008962 -0.014574
v 0.012073 0.008957 -0.014582
v 0.012070 0.008962 -0.014578
v 0.012070 0.008957 -0.014586
v 0.012066 0.008962 -0.014583
v 0.012067 0.008957 -0.014591
v 0.012062 0.008962 -0.014589
v 0.012065 0.008957 -0.014597
v 0.012065 0.008957 -0.014603
v 0.012060 0.008962 -0.014596
v 0.012065 0.008957 -0.014609
v 0.012060 0.008962 -0.014603
v 0.012060 0.008962 -0.014610
v 0.012067 0.008957 -0.014614
v 0.012062 0.008962 -0.014616
v 0.012073 0.008957 -0.014624
v 0.012070 0.008962 -0.014628
v 0.012066 0.008962 -0.014622
v 0.012078 0.008957 -0.014628
v 0.012083 0.008957 -0.014631
v 0.012075 0.008962 -0.014632
v 0.012081 0.008962 -0.014635
v 0.012089 0.008957 -0.014632
v 0.012088 0.008962 -0.014637
v 0.012095 0.008957 -0.014633
v 0.012095 0.008962 -0.014638
v 0.012101 0.008962 -0.014637
v 0.012100 0.008957 -0.014632
v 0.012106 0.008957 -0.014631
v 0.012116 0.008957 -0.014624
v 0.012119 0.008962 -0.014628
v 0.012114 0.008962 -0.014632
v 0.012120 0.008957 -0.014619
v 0.012124 0.008962 -0.014622
v 0.012122 0.008957 -0.014614
v 0.012127 0.008962 -0.014616
v 0.012108 0.008962 -0.014635
v 0.012111 0.008957 -0.014628
v 0.012124 0.008957 -0.014609
v 0.012129 0.008962 -0.014610
v 0.012125 0.008957 -0.014603
v 0.012130 0.008962 -0.014603
v 0.012070 0.008957 -0.014619
v 0.012089 0.008899 -0.014632
v 0.012083 0.008899 -0.014631
v 0.012088 0.008894 -0.014637
v 0.012078 0.008899 -0.014628
v 0.012081 0.008894 -0.014635
v 0.012073 0.008899 -0.014624
v 0.012075 0.008894 -0.014632
v 0.012070 0.008899 -0.014619
v 0.012070 0.008894 -0.014627
v 0.012066 0.008894 -0.014622
v 0.012063 0.008894 -0.014616
v 0.012067 0.008899 -0.014614
v 0.012061 0.008894 -0.014610
v 0.012065 0.008899 -0.014609
v 0.012060 0.008894 -0.014603
v 0.012065 0.008899 -0.014603
v 0.012065 0.008899 -0.014597
v 0.012061 0.008894 -0.014596
v 0.012067 0.008899 -0.014591
v 0.012063 0.008894 -0.014590
v 0.012070 0.008899 -0.014586
v 0.012066 0.008894 -0.014584
v 0.012073 0.008899 -0.014582
v 0.012070 0.008894 -0.014578
v 0.012078 0.008899 -0.014578
v 0.012075 0.008894 -0.014574
v 0.012083 0.008899 -0.014575
v 0.012081 0.008894 -0.014571
v 0.012089 0.008899 -0.014573
v 0.012095 0.008899 -0.014573
v 0.012088 0.008894 -0.014569
v 0.012100 0.008899 -0.014573
v 0.012095 0.008894 -0.014568
v 0.012106 0.008899 -0.014575
v 0.012101 0.008894 -0.014569
v 0.012111 0.008899 -0.014578
v 0.012114 0.008894 -0.014574
v 0.012108 0.008894 -0.014571
v 0.012116 0.008899 -0.014582
v 0.012120 0.008899 -0.014586
v 0.012119 0.008894 -0.014578
v 0.012122 0.008899 -0.014591
v 0.012123 0.008894 -0.014584
v 0.012127 0.008894 -0.014590
v 0.012124 0.008899 -0.014597
v 0.012129 0.008894 -0.014596
v 0.012125 0.008899 -0.014603
v 0.012129 0.008894 -0.014603
v 0.012120 0.008899 -0.014619
v 0.012123 0.008894 -0.014622
v 0.012127 0.008894 -0.014616
v 0.012116 0.008899 -0.014624
v 0.012119 0.008894 -0.014627
v 0.012111 0.008899 -0.014628
v 0.012114 0.008894 -0.014632
v 0.012129 0.008894 -0.014610
v 0.012124 0.008899 -0.014609
v 0.012122 0.008899 -0.014614
v 0.012106 0.008899 -0.014631
v 0.012108 0.008894 -0.014635
v 0.012100 0.008899 -0.014632
v 0.012101 0.008894 -0.014637
v 0.012095 0.008899 -0.014633
v 0.012095 0.008894 -0.014637
v 0.012095 0.008894 -0.014567
v 0.011980 0.008895 -0.014564
v 0.011980 0.008894 -0.014567
v 0.012210 0.008895 -0.014564
v 0.012210 0.008894 -0.014567
v 0.012095 0.008894 -0.014568
v 0.012101 0.008894 -0.014569
v 0.011980 0.008894 -0.014639
v 0.012061 0.008894 -0.014610
v 0.012060 0.008894 -0.014603
v 0.012063 0.008894 -0.014616
v 0.012061 0.008894 -0.014610
v 0.012061 0.008894 -0.014596
v 0.012063 0.008894 -0.014590
v 0.012129 0.008894 -0.014596
v 0.012129 0.008894 -0.014603
v 0.012127 0.008894 -0.014590
v 0.012129 0.008894 -0.014596
v 0.012210 0.008894 -0.014639
v 0.012129 0.008894 -0.014610
v 0.012127 0.008894 -0.014616
v 0.012101 0.008894 -0.014637
v 0.012095 0.008894 -0.014639
v 0.012101 0.008894 -0.014637
v 0.012095 0.008894 -0.014637
v 0.012108 0.008894 -0.014635
v 0.012101 0.008894 -0.014637
v 0.012114 0.008894 -0.014632
v 0.012108 0.008894 -0.014635
v 0.012119 0.008894 -0.014627
v 0.012114 0.008894 -0.014632
v 0.012123 0.008894 -0.014622
v 0.012119 0.008894 -0.014627
v 0.012127 0.008894 -0.014616
v 0.012123 0.008894 -0.014622
v 0.012129 0.008894 -0.014610
v 0.012129 0.008894 -0.014603
v 0.012129 0.008894 -0.014603
v 0.012123 0.008894 -0.014584
v 0.012127 0.008894 -0.014590
v 0.012114 0.008894 -0.014574
v 0.012108 0.008894 -0.014571
v 0.012114 0.008894 -0.014574
v 0.012119 0.008894 -0.014578
v 0.012108 0.008894 -0.014571
v 0.012101 0.008894 -0.014569
v 0.012119 0.008894 -0.014578
v 0.012123 0.008894 -0.014584
v 0.012095 0.008894 -0.014568
v 0.012088 0.008894 -0.014569
v 0.012088 0.008894 -0.014569
v 0.012081 0.008894 -0.014571
v 0.012088 0.008894 -0.014569
v 0.012075 0.008894 -0.014574
v 0.012081 0.008894 -0.014571
v 0.012070 0.008894 -0.014578
v 0.012075 0.008894 -0.014574
v 0.012066 0.008894 -0.014584
v 0.012070 0.008894 -0.014578
v 0.012063 0.008894 -0.014590
v 0.012066 0.008894 -0.014584
v 0.012061 0.008894 -0.014596
v 0.012060 0.008894 -0.014603
v 0.012060 0.008894 -0.014603
v 0.012066 0.008894 -0.014622
v 0.012063 0.008894 -0.014616
v 0.012075 0.008894 -0.014632
v 0.012081 0.008894 -0.014635
v 0.012075 0.008894 -0.014632
v 0.012070 0.008894 -0.014627
v 0.012081 0.008894 -0.014635
v 0.012088 0.008894 -0.014637
v 0.012101 0.008894 -0.014569
v 0.012070 0.008894 -0.014627
v 0.012066 0.008894 -0.014622
v 0.012095 0.008894 -0.014637
v 0.012088 0.008894 -0.014637
v 0.012088 0.008894 -0.014637
v 0.011980 0.008895 -0.014642
v 0.012095 0.008895 -0.014642
v 0.012210 0.008895 -0.014642
v 0.011980 0.008936 -0.014690
v 0.012210 0.008936 -0.014690
v 0.011980 0.008939 -0.014692
v 0.012210 0.008939 -0.014692
v 0.011980 0.008937 -0.014691
v 0.012210 0.008937 -0.014691
v 0.011980 0.008957 -0.014692
v 0.012210 0.008957 -0.014692
v 0.011980 0.008962 -0.014687
v 0.012210 0.008962 -0.014687
v 0.011980 0.008962 -0.014689
v 0.012210 0.008962 -0.014689
v 0.011980 0.008961 -0.014690
v 0.012210 0.008961 -0.014690
v 0.012210 0.008959 -0.014691
v 0.011980 0.008959 -0.014691
v 0.011980 0.008962 -0.014519
v 0.012070 0.008962 -0.014578
v 0.012066 0.008962 -0.014583
v 0.012070 0.008962 -0.014628
v 0.012075 0.008962 -0.014632
v 0.012066 0.008962 -0.014622
v 0.012070 0.008962 -0.014628
v 0.012119 0.008962 -0.014628
v 0.012124 0.008962 -0.014622
v 0.012210 0.008962 -0.014519
v 0.012119 0.008962 -0.014578
v 0.012114 0.008962 -0.014574
v 0.012124 0.008962 -0.014583
v 0.012119 0.008962 -0.014578
v 0.012129 0.008962 -0.014610
v 0.012130 0.008962 -0.014603
v 0.012130 0.008962 -0.014603
v 0.012127 0.008962 -0.014616
v 0.012129 0.008962 -0.014610
v 0.012124 0.008962 -0.014622
v 0.012127 0.008962 -0.014616
v 0.012119 0.008962 -0.014628
v 0.012114 0.008962 -0.014632
v 0.012114 0.008962 -0.014632
v 0.012108 0.008962 -0.014635
v 0.012108 0.008962 -0.014635
v 0.012101 0.008962 -0.014637
v 0.012095 0.008962 -0.014638
v 0.012101 0.008962 -0.014637
v 0.012081 0.008962 -0.014635
v 0.012088 0.008962 -0.014637
v 0.012088 0.008962 -0.014637
v 0.012095 0.008962 -0.014638
v 0.012075 0.008962 -0.014632
v 0.012081 0.008962 -0.014635
v 0.012066 0.008962 -0.014622
v 0.012062 0.008962 -0.014616
v 0.012062 0.008962 -0.014616
v 0.012060 0.008962 -0.014610
v 0.012095 0.008962 -0.014638
v 0.012060 0.008962 -0.014603
v 0.012060 0.008962 -0.014610
v 0.012060 0.008962 -0.014603
v 0.012060 0.008962 -0.014603
v 0.012060 0.008962 -0.014596
v 0.012070 0.008962 -0.014578
v 0.012075 0.008962 -0.014574
v 0.012066 0.008962 -0.014583
v 0.012062 0.008962 -0.014589
v 0.012075 0.008962 -0.014574
v 0.012081 0.008962 -0.014570
v 0.012081 0.008962 -0.014570
v 0.012088 0.008962 -0.014569
v 0.012095 0.008962 -0.014568
v 0.012088 0.008962 -0.014569
v 0.012108 0.008962 -0.014570
v 0.012101 0.008962 -0.014569
v 0.012101 0.008962 -0.014569
v 0.012095 0.008962 -0.014568
v 0.012114 0.008962 -0.014574
v 0.012108 0.008962 -0.014570
v 0.012124 0.008962 -0.014583
v 0.012127 0.008962 -0.014589
v 0.012127 0.008962 -0.014589
v 0.012129 0.008962 -0.014596
v 0.012060 0.008962 -0.014596
v 0.012062 0.008962 -0.014589
v 0.012130 0.008962 -0.014603
v 0.012129 0.008962 -0.014596
v 0.012095 0.008962 -0.014568
v 0.011980 0.008959 -0.014514
v 0.011980 0.008957 -0.014514
v 0.012210 0.008957 -0.014514
v 0.012210 0.008959 -0.014514
v 0.011980 0.008961 -0.014515
v 0.012210 0.008962 -0.014517
v 0.011980 0.008962 -0.014517
v 0.012210 0.008961 -0.014515
v 0.011980 0.008939 -0.014514
v 0.012210 0.008939 -0.014514
v 0.011980 0.008937 -0.014514
v 0.011980 0.008936 -0.014516
v 0.012210 0.008936 -0.014516
v 0.012210 0.008937 -0.014514
v 0.011980 0.008962 -0.014519
v 0.011980 0.008894 -0.014567
v 0.011980 0.008895 -0.014564
v 0.011980 0.008939 -0.014514
v 0.011980 0.008962 -0.014519
v 0.011980 0.008936 -0.014516
v 0.011980 0.008962 -0.014519
v 0.011980 0.008895 -0.014564
v 0.011980 0.008936 -0.014516
v 0.011980 0.008939 -0.014514
v 0.011980 0.008936 -0.014516
v 0.011980 0.008937 -0.014514
v 0.011980 0.008957 -0.014514
v 0.011980 0.008962 -0.014519
v 0.011980 0.008939 -0.014514
v 0.011980 0.008962 -0.014517
v 0.011980 0.008962 -0.014519
v 0.011980 0.008961 -0.014515
v 0.011980 0.008957 -0.014514
v 0.011980 0.008959 -0.014514
v 0.011980 0.008962 -0.014519
v 0.011980 0.008962 -0.014519
v 0.011980 0.008962 -0.014687
v 0.011980 0.008894 -0.014567
v 0.011980 0.008894 -0.014567
v 0.011980 0.008962 -0.014687
v 0.011980 0.008894 -0.014639
v 0.011980 0.008962 -0.014687
v 0.011980 0.008936 -0.014690
v 0.011980 0.008895 -0.014642
v 0.011980 0.008962 -0.014687
v 0.011980 0.008895 -0.014642
v 0.011980 0.008894 -0.014639
v 0.011980 0.008939 -0.014692
v 0.011980 0.008936 -0.014690
v 0.011980 0.008962 -0.014687
v 0.011980 0.008939 -0.014692
v 0.011980 0.008962 -0.014687
v 0.011980 0.008957 -0.014692
v 0.011980 0.008962 -0.014689
v 0.011980 0.008961 -0.014690
v 0.011980 0.008957 -0.014692
v 0.011980 0.008939 -0.014692
v 0.011980 0.008937 -0.014691
v 0.011980 0.008936 -0.014690
v 0.011980 0.008962 -0.014687
v 0.011980 0.008962 -0.014689
v 0.011980 0.008957 -0.014692
v 0.011980 0.008961 -0.014690
v 0.011980 0.008959 -0.014691
v 0.011980 0.008957 -0.014692
v 0.011980 0.008962 -0.014519
v 0.011980 0.008959 -0.014514
v 0.011980 0.008961 -0.014515
v 0.012210 0.008939 -0.014514
v 0.012210 0.008936 -0.014516
v 0.012210 0.008962 -0.014519
v 0.012210 0.008962 -0.014519
v 0.012210 0.008936 -0.014516
v 0.012210 0.008895 -0.014564
v 0.012210 0.008939 -0.014514
v 0.012210 0.008937 -0.014514
v 0.012210 0.008936 -0.014516
v 0.012210 0.008957 -0.014514
v 0.012210 0.008939 -0.014514
v 0.012210 0.008962 -0.014519
v 0.012210 0.008962 -0.014517
v 0.012210 0.008961 -0.014515
v 0.012210 0.008962 -0.014519
v 0.012210 0.008957 -0.014514
v 0.012210 0.008962 -0.014519
v 0.012210 0.008959 -0.014514
v 0.012210 0.008962 -0.014519
v 0.012210 0.008895 -0.014564
v 0.012210 0.008894 -0.014567
v 0.012210 0.008962 -0.014519
v 0.012210 0.008894 -0.014567
v 0.012210 0.008962 -0.014687
v 0.012210 0.008962 -0.014687
v 0.012210 0.008894 -0.014639
v 0.012210 0.008895 -0.014642
v 0.012210 0.008962 -0.014687
v 0.012210 0.008894 -0.014567
v 0.012210 0.008894 -0.014639
v 0.012210 0.008936 -0.014690
v 0.012210 0.008962 -0.014687
v 0.012210 0.008895 -0.014642
v 0.012210 0.008936 -0.014690
v 0.012210 0.008939 -0.014692
v 0.012210 0.008962 -0.014687
v 0.012210 0.008962 -0.014689
v 0.012210 0.008957 -0.014692
v 0.012210 0.008961 -0.014690
v 0.012210 0.008939 -0.014692
v 0.012210 0.008936 -0.014690
v 0.012210 0.008937 -0.014691
v 0.012210 0.008962 -0.014687
v 0.012210 0.008957 -0.014692
v 0.012210 0.008962 -0.014689
v 0.012210 0.008957 -0.014692
v 0.012210 0.008962 -0.014687
v 0.012210 0.008939 -0.014692
v 0.012210 0.008959 -0.014691
v 0.012210 0.008961 -0.014690
v 0.012210 0.008957 -0.014692
v 0.012210 0.008962 -0.014519
v 0.012210 0.008961 -0.014515
v 0.012210 0.008959 -0.014514
v 0.012089 0.008899 -0.014632
v 0.012089 0.008894 -0.014632
v 0.012083 0.008899 -0.014631
v 0.012083 0.008899 -0.014631
v 0.012083 0.008894 -0.014631
v 0.012078 0.008899 -0.014628
v 0.012078 0.008899 -0.014628
v 0.012078 0.008894 -0.014628
v 0.012073 0.008899 -0.014624
v 0.012073 0.008899 -0.014624
v 0.012073 0.008894 -0.014624
v 0.012070 0.008899 -0.014619
v 0.012070 0.008899 -0.014619
v 0.012070 0.008894 -0.014619
v 0.012067 0.008899 -0.014614
v 0.012067 0.008894 -0.014614
v 0.012067 0.008899 -0.014614
v 0.012070 0.008894 -0.014619
v 0.012065 0.008894 -0.014609
v 0.012065 0.008899 -0.014609
v 0.012067 0.008894 -0.014614
v 0.012065 0.008894 -0.014603
v 0.012065 0.008899 -0.014603
v 0.012065 0.008894 -0.014609
v 0.012065 0.008894 -0.014597
v 0.012065 0.008899 -0.014597
v 0.012065 0.008894 -0.014603
v 0.012067 0.008894 -0.014591
v 0.012067 0.008899 -0.014591
v 0.012065 0.008894 -0.014597
v 0.012070 0.008894 -0.014586
v 0.012070 0.008899 -0.014586
v 0.012067 0.008894 -0.014591
v 0.012073 0.008894 -0.014582
v 0.012073 0.008899 -0.014582
v 0.012070 0.008894 -0.014586
v 0.012073 0.008894 -0.014582
v 0.012078 0.008899 -0.014578
v 0.012073 0.008899 -0.014582
v 0.012078 0.008894 -0.014578
v 0.012083 0.008899 -0.014575
v 0.012078 0.008899 -0.014578
v 0.012083 0.008894 -0.014575
v 0.012089 0.008899 -0.014573
v 0.012083 0.008899 -0.014575
v 0.012089 0.008894 -0.014573
v 0.012095 0.008899 -0.014573
v 0.012089 0.008899 -0.014573
v 0.012095 0.008894 -0.014573
v 0.012100 0.008899 -0.014573
v 0.012095 0.008899 -0.014573
v 0.012100 0.008894 -0.014573
v 0.012106 0.008894 -0.014575
v 0.012106 0.008899 -0.014575
v 0.012111 0.008894 -0.014578
v 0.012116 0.008899 -0.014582
v 0.012111 0.008899 -0.014578
v 0.012116 0.008894 -0.014582
v 0.012120 0.008899 -0.014586
v 0.012116 0.008899 -0.014582
v 0.012124 0.008899 -0.014597
v 0.012122 0.008894 -0.014591
v 0.012124 0.008894 -0.014597
v 0.012125 0.008899 -0.014603
v 0.012124 0.008894 -0.014597
v 0.012125 0.008894 -0.014603
v 0.012124 0.008899 -0.014609
v 0.012125 0.008894 -0.014603
v 0.012124 0.008894 -0.014609
v 0.012122 0.008899 -0.014614
v 0.012124 0.008894 -0.014609
v 0.012122 0.008894 -0.014614
v 0.012120 0.008899 -0.014619
v 0.012122 0.008894 -0.014614
v 0.012120 0.008894 -0.014619
v 0.012116 0.008899 -0.014624
v 0.012120 0.008894 -0.014619
v 0.012116 0.008894 -0.014624
v 0.012120 0.008894 -0.014586
v 0.012122 0.008899 -0.014591
v 0.012120 0.008899 -0.014586
v 0.012111 0.008899 -0.014628
v 0.012116 0.008894 -0.014624
v 0.012111 0.008894 -0.014628
v 0.012106 0.008899 -0.014631
v 0.012111 0.008894 -0.014628
v 0.012106 0.008894 -0.014631
v 0.012100 0.008899 -0.014632
v 0.012106 0.008894 -0.014631
v 0.012100 0.008894 -0.014632
v 0.012095 0.008899 -0.014633
v 0.012089 0.008894 -0.014632
v 0.012089 0.008899 -0.014632
v 0.012100 0.008894 -0.014632
v 0.012095 0.008894 -0.014633
v 0.012095 0.008899 -0.014633
v 0.012100 0.008899 -0.014632
v 0.012100 0.008894 -0.014632
v 0.012095 0.008899 -0.014633
v 0.012106 0.008899 -0.014631
v 0.012106 0.008894 -0.014631
v 0.012100 0.008899 -0.014632
v 0.012111 0.008899 -0.014628
v 0.012111 0.008894 -0.014628
v 0.012106 0.008899 -0.014631
v 0.012116 0.008899 -0.014624
v 0.012116 0.008894 -0.014624
v 0.012111 0.008899 -0.014628
v 0.012120 0.008899 -0.014619
v 0.012120 0.008894 -0.014619
v 0.012116 0.008899 -0.014624
v 0.012122 0.008899 -0.014614
v 0.012122 0.008894 -0.014614
v 0.012120 0.008899 -0.014619
v 0.012124 0.008899 -0.014609
v 0.012124 0.008894 -0.014609
v 0.012122 0.008899 -0.014614
v 0.012125 0.008899 -0.014603
v 0.012125 0.008894 -0.014603
v 0.012124 0.008899 -0.014609
v 0.012124 0.008899 -0.014597
v 0.012124 0.008894 -0.014597
v 0.012125 0.008899 -0.014603
v 0.012122 0.008899 -0.014591
v 0.012122 0.008894 -0.014591
v 0.012124 0.008899 -0.014597
v 0.012122 0.008899 -0.014591
v 0.012120 0.008894 -0.014586
v 0.012122 0.008894 -0.014591
v 0.012120 0.008899 -0.014586
v 0.012116 0.008894 -0.014582
v 0.012120 0.008894 -0.014586
v 0.012116 0.008899 -0.014582
v 0.012111 0.008894 -0.014578
v 0.012116 0.008894 -0.014582
v 0.012111 0.008899 -0.014578
v 0.012106 0.008894 -0.014575
v 0.012111 0.008894 -0.014578
v 0.012111 0.008899 -0.014578
v 0.012106 0.008899 -0.014575
v 0.012106 0.008894 -0.014575
v 0.012100 0.008894 -0.014573
v 0.012100 0.008899 -0.014573
v 0.012095 0.008894 -0.014573
v 0.012100 0.008894 -0.014573
v 0.012106 0.008899 -0.014575
v 0.012100 0.008899 -0.014573
v 0.012095 0.008894 -0.014573
v 0.012095 0.008899 -0.014573
v 0.012089 0.008894 -0.014573
v 0.012089 0.008894 -0.014573
v 0.012089 0.008899 -0.014573
v 0.012083 0.008894 -0.014575
v 0.012083 0.008894 -0.014575
v 0.012083 0.008899 -0.014575
v 0.012078 0.008894 -0.014578
v 0.012078 0.008894 -0.014578
v 0.012078 0.008899 -0.014578
v 0.012073 0.008894 -0.014582
v 0.012073 0.008899 -0.014582
v 0.012070 0.008899 -0.014586
v 0.012070 0.008894 -0.014586
v 0.012070 0.008899 -0.014586
v 0.012067 0.008899 -0.014591
v 0.012067 0.008894 -0.014591
v 0.012067 0.008899 -0.014591
v 0.012065 0.008899 -0.014597
v 0.012065 0.008894 -0.014597
v 0.012065 0.008899 -0.014597
v 0.012065 0.008899 -0.014603
v 0.012065 0.008894 -0.014603
v 0.012065 0.008899 -0.014603
v 0.012065 0.008899 -0.014609
v 0.012065 0.008894 -0.014609
v 0.012065 0.008899 -0.014609
v 0.012067 0.008899 -0.014614
v 0.012067 0.008894 -0.014614
v 0.012070 0.008899 -0.014619
v 0.012073 0.008894 -0.014624
v 0.012070 0.008894 -0.014619
v 0.012073 0.008899 -0.014624
v 0.012078 0.008894 -0.014628
v 0.012073 0.008894 -0.014624
v 0.012078 0.008899 -0.014628
v 0.012083 0.008894 -0.014631
v 0.012078 0.008894 -0.014628
v 0.012089 0.008894 -0.014632
v 0.012083 0.008894 -0.014631
v 0.012083 0.008899 -0.014631
v 0.012089 0.008894 -0.014632
v 0.012095 0.008899 -0.014633
v 0.012095 0.008894 -0.014633
v 0.012100 0.008957 -0.014632
v 0.012095 0.008957 -0.014633
v 0.012100 0.009554 -0.014632
v 0.012106 0.008957 -0.014631
v 0.012100 0.008957 -0.014632
v 0.012111 0.008957 -0.014628
v 0.012106 0.008957 -0.014631
v 0.012106 0.009554 -0.014631
v 0.012111 0.009554 -0.014628
v 0.012111 0.008957 -0.014628
v 0.012116 0.009554 -0.014624
v 0.012116 0.008957 -0.014624
v 0.012120 0.008957 -0.014619
v 0.012116 0.008957 -0.014624
v 0.012120 0.009554 -0.014619
v 0.012122 0.008957 -0.014614
v 0.012120 0.008957 -0.014619
v 0.012122 0.009554 -0.014614
v 0.012122 0.008957 -0.014614
v 0.012124 0.009554 -0.014609
v 0.012124 0.008957 -0.014609
v 0.012124 0.008957 -0.014609
v 0.012125 0.008957 -0.014603
v 0.012125 0.008957 -0.014603
v 0.012125 0.009554 -0.014603
v 0.012124 0.008957 -0.014597
v 0.012124 0.008957 -0.014597
v 0.012124 0.009554 -0.014597
v 0.012122 0.008957 -0.014591
v 0.012122 0.009554 -0.014591
v 0.012120 0.008957 -0.014586
v 0.012122 0.008957 -0.014591
v 0.012116 0.008957 -0.014582
v 0.012120 0.008957 -0.014586
v 0.012120 0.009554 -0.014586
v 0.012116 0.009554 -0.014582
v 0.012116 0.008957 -0.014582
v 0.012111 0.009554 -0.014578
v 0.012111 0.008957 -0.014578
v 0.012106 0.008957 -0.014575
v 0.012111 0.008957 -0.014578
v 0.012106 0.009554 -0.014575
v 0.012100 0.008957 -0.014573
v 0.012106 0.008957 -0.014575
v 0.012100 0.009554 -0.014573
v 0.012100 0.008957 -0.014573
v 0.012095 0.009554 -0.014573
v 0.012095 0.008957 -0.014573
v 0.012095 0.008957 -0.014573
v 0.012089 0.008957 -0.014573
v 0.012089 0.008957 -0.014573
v 0.012089 0.009554 -0.014573
v 0.012083 0.008957 -0.014575
v 0.012083 0.008957 -0.014575
v 0.012083 0.009554 -0.014575
v 0.012078 0.008957 -0.014578
v 0.012078 0.009554 -0.014578
v 0.012073 0.008957 -0.014582
v 0.012078 0.008957 -0.014578
v 0.012070 0.008957 -0.014586
v 0.012073 0.008957 -0.014582
v 0.012073 0.009554 -0.014582
v 0.012070 0.009554 -0.014586
v 0.012070 0.008957 -0.014586
v 0.012067 0.009554 -0.014591
v 0.012067 0.008957 -0.014591
v 0.012065 0.008957 -0.014597
v 0.012067 0.008957 -0.014591
v 0.012065 0.009554 -0.014597
v 0.012065 0.008957 -0.014603
v 0.012065 0.008957 -0.014597
v 0.012106 0.008957 -0.014631
v 0.012089 0.009554 -0.014632
v 0.012095 0.008957 -0.014633
v 0.012089 0.008957 -0.014632
v 0.012083 0.009554 -0.014631
v 0.012089 0.008957 -0.014632
v 0.012083 0.008957 -0.014631
v 0.012089 0.008957 -0.014632
v 0.012083 0.008957 -0.014631
v 0.012078 0.009554 -0.014628
v 0.012083 0.008957 -0.014631
v 0.012078 0.008957 -0.014628
v 0.012078 0.008957 -0.014628
v 0.012073 0.009554 -0.014624
v 0.012078 0.008957 -0.014628
v 0.012073 0.008957 -0.014624
v 0.012070 0.009554 -0.014619
v 0.012073 0.008957 -0.014624
v 0.012070 0.008957 -0.014619
v 0.012073 0.008957 -0.014624
v 0.012070 0.008957 -0.014619
v 0.012067 0.009554 -0.014614
v 0.012070 0.008957 -0.014619
v 0.012067 0.008957 -0.014614
v 0.012067 0.008957 -0.014614
v 0.012065 0.009554 -0.014609
v 0.012067 0.008957 -0.014614
v 0.012065 0.008957 -0.014609
v 0.012065 0.009554 -0.014603
v 0.012065 0.008957 -0.014609
v 0.012065 0.008957 -0.014603
v 0.012065 0.008957 -0.014609
v 0.012065 0.008957 -0.014603
v 0.012065 0.008957 -0.014597
v 0.012067 0.008957 -0.014591
v 0.012070 0.008957 -0.014586
v 0.012073 0.008957 -0.014582
v 0.012083 0.008957 -0.014575
v 0.012078 0.008957 -0.014578
v 0.012089 0.008957 -0.014573
v 0.012095 0.008957 -0.014573
v 0.012100 0.008957 -0.014573
v 0.012106 0.008957 -0.014575
v 0.012111 0.008957 -0.014578
v 0.012116 0.008957 -0.014582
v 0.012120 0.008957 -0.014586
v 0.012124 0.008957 -0.014597
v 0.012122 0.008957 -0.014591
v 0.012125 0.008957 -0.014603
v 0.012124 0.008957 -0.014609
v 0.012122 0.008957 -0.014614
v 0.012120 0.008957 -0.014619
v 0.012095 0.008957 -0.014633
v 0.012095 0.009554 -0.014633
v 0.012095 0.008957 -0.014633
v 0.012111 0.008957 -0.014628
v 0.012116 0.008957 -0.014624
v 0.012087 0.009564 -0.014621
v 0.012095 0.009564 -0.014623
v 0.012091 0.009564 -0.014622
v 0.012084 0.009564 -0.014619
v 0.012080 0.009564 -0.014617
v 0.012078 0.009564 -0.014614
v 0.012076 0.009564 -0.014610
v 0.012075 0.009564 -0.014607
v 0.012075 0.009564 -0.014603
v 0.012075 0.009564 -0.014599
v 0.012076 0.009564 -0.014595
v 0.012078 0.009564 -0.014592
v 0.012080 0.009564 -0.014589
v 0.012087 0.009564 -0.014584
v 0.012084 0.009564 -0.014586
v 0.012091 0.009564 -0.014583
v 0.012095 0.009564 -0.014583
v 0.012099 0.009564 -0.014583
v 0.012102 0.009564 -0.014584
v 0.012106 0.009564 -0.014586
v 0.012109 0.009564 -0.014589
v 0.012113 0.009564 -0.014595
v 0.012111 0.009564 -0.014592
v 0.012114 0.009564 -0.014599
v 0.012115 0.009564 -0.014603
v 0.012114 0.009564 -0.014607
v 0.012113 0.009564 -0.014610
v 0.012111 0.009564 -0.014614
v 0.012109 0.009564 -0.014617
v 0.012106 0.009564 -0.014619
v 0.012102 0.009564 -0.014621
v 0.012099 0.009564 -0.014622
v 0.012100 0.009554 -0.014632
v 0.012099 0.009564 -0.014622
v 0.012106 0.009554 -0.014631
v 0.012106 0.009554 -0.014631
v 0.012102 0.009564 -0.014621
v 0.012111 0.009554 -0.014628
v 0.012111 0.009554 -0.014628
v 0.012102 0.009564 -0.014621
v 0.012106 0.009564 -0.014619
v 0.012116 0.009554 -0.014624
v 0.012106 0.009564 -0.014619
v 0.012109 0.009564 -0.014617
v 0.012120 0.009554 -0.014619
v 0.012116 0.009554 -0.014624
v 0.012109 0.009564 -0.014617
v 0.012122 0.009554 -0.014614
v 0.012120 0.009554 -0.014619
v 0.012111 0.009564 -0.014614
v 0.012113 0.009564 -0.014610
v 0.012122 0.009554 -0.014614
v 0.012111 0.009564 -0.014614
v 0.012114 0.009564 -0.014607
v 0.012124 0.009554 -0.014609
v 0.012113 0.009564 -0.014610
v 0.012114 0.009564 -0.014607
v 0.012125 0.009554 -0.014603
v 0.012124 0.009554 -0.014609
v 0.012115 0.009564 -0.014603
v 0.012124 0.009554 -0.014597
v 0.012125 0.009554 -0.014603
v 0.012115 0.009564 -0.014603
v 0.012114 0.009564 -0.014599
v 0.012124 0.009554 -0.014597
v 0.012114 0.009564 -0.014599
v 0.012113 0.009564 -0.014595
v 0.012122 0.009554 -0.014591
v 0.012122 0.009554 -0.014591
v 0.012113 0.009564 -0.014595
v 0.012120 0.009554 -0.014586
v 0.012120 0.009554 -0.014586
v 0.012111 0.009564 -0.014592
v 0.012116 0.009554 -0.014582
v 0.012116 0.009554 -0.014582
v 0.012109 0.009564 -0.014589
v 0.012111 0.009554 -0.014578
v 0.012111 0.009554 -0.014578
v 0.012109 0.009564 -0.014589
v 0.012106 0.009564 -0.014586
v 0.012106 0.009554 -0.014575
v 0.012106 0.009564 -0.014586
v 0.012102 0.009564 -0.014584
v 0.012100 0.009554 -0.014573
v 0.012106 0.009554 -0.014575
v 0.012102 0.009564 -0.014584
v 0.012095 0.009554 -0.014573
v 0.012100 0.009554 -0.014573
v 0.012099 0.009564 -0.014583
v 0.012095 0.009564 -0.014583
v 0.012095 0.009554 -0.014573
v 0.012099 0.009564 -0.014583
v 0.012091 0.009564 -0.014583
v 0.012089 0.009554 -0.014573
v 0.012095 0.009564 -0.014583
v 0.012091 0.009564 -0.014583
v 0.012083 0.009554 -0.014575
v 0.012089 0.009554 -0.014573
v 0.012087 0.009564 -0.014584
v 0.012078 0.009554 -0.014578
v 0.012083 0.009554 -0.014575
v 0.012087 0.009564 -0.014584
v 0.012084 0.009564 -0.014586
v 0.012078 0.009554 -0.014578
v 0.012084 0.009564 -0.014586
v 0.012080 0.009564 -0.014589
v 0.012073 0.009554 -0.014582
v 0.012073 0.009554 -0.014582
v 0.012080 0.009564 -0.014589
v 0.012070 0.009554 -0.014586
v 0.012070 0.009554 -0.014586
v 0.012078 0.009564 -0.014592
v 0.012067 0.009554 -0.014591
v 0.012067 0.009554 -0.014591
v 0.012078 0.009564 -0.014592
v 0.012076 0.009564 -0.014595
v 0.012065 0.009554 -0.014597
v 0.012076 0.009564 -0.014595
v 0.012075 0.009564 -0.014599
v 0.012070 0.009554 -0.014619
v 0.012078 0.009564 -0.014614
v 0.012073 0.009554 -0.014624
v 0.012070 0.009554 -0.014619
v 0.012076 0.009564 -0.014610
v 0.012078 0.009564 -0.014614
v 0.012084 0.009564 -0.014619
v 0.012083 0.009554 -0.014631
v 0.012078 0.009554 -0.014628
v 0.012095 0.009554 -0.014633
v 0.012099 0.009564 -0.014622
v 0.012100 0.009554 -0.014632
v 0.012091 0.009564 -0.014622
v 0.012095 0.009554 -0.014633
v 0.012089 0.009554 -0.014632
v 0.012087 0.009564 -0.014621
v 0.012091 0.009564 -0.014622
v 0.012089 0.009554 -0.014632
v 0.012083 0.009554 -0.014631
v 0.012087 0.009564 -0.014621
v 0.012089 0.009554 -0.014632
v 0.012083 0.009554 -0.014631
v 0.012084 0.009564 -0.014619
v 0.012087 0.009564 -0.014621
v 0.012078 0.009554 -0.014628
v 0.012080 0.009564 -0.014617
v 0.012084 0.009564 -0.014619
v 0.012078 0.009554 -0.014628
v 0.012073 0.009554 -0.014624
v 0.012080 0.009564 -0.014617
v 0.012080 0.009564 -0.014617
v 0.012073 0.009554 -0.014624
v 0.012078 0.009564 -0.014614
v 0.012076 0.009564 -0.014610
v 0.012070 0.009554 -0.014619
v 0.012067 0.009554 -0.014614
v 0.012075 0.009564 -0.014607
v 0.012076 0.009564 -0.014610
v 0.012067 0.009554 -0.014614
v 0.012065 0.009554 -0.014609
v 0.012075 0.009564 -0.014607
v 0.012067 0.009554 -0.014614
v 0.012065 0.009554 -0.014609
v 0.012075 0.009564 -0.014603
v 0.012075 0.009564 -0.014607
v 0.012065 0.009554 -0.014609
v 0.012065 0.009554 -0.014603
v 0.012075 0.009564 -0.014603
v 0.012075 0.009564 -0.014603
v 0.012065 0.009554 -0.014603
v 0.012075 0.009564 -0.014599
v 0.012075 0.009564 -0.014599
v 0.012065 0.009554 -0.014603
v 0.012065 0.009554 -0.014597
v 0.012067 0.009554 -0.014591
v 0.012076 0.009564 -0.014595
v 0.012065 0.009554 -0.014597
v 0.012080 0.009564 -0.014589
v 0.012078 0.009564 -0.014592
v 0.012070 0.009554 -0.014586
v 0.012084 0.009564 -0.014586
v 0.012073 0.009554 -0.014582
v 0.012078 0.009554 -0.014578
v 0.012087 0.009564 -0.014584
v 0.012083 0.009554 -0.014575
v 0.012091 0.009564 -0.014583
v 0.012089 0.009554 -0.014573
v 0.012095 0.009554 -0.014573
v 0.012095 0.009564 -0.014583
v 0.012100 0.009554 -0.014573
v 0.012102 0.009564 -0.014584
v 0.012099 0.009564 -0.014583
v 0.012111 0.009554 -0.014578
v 0.012106 0.009564 -0.014586
v 0.012106 0.009554 -0.014575
v 0.012111 0.009564 -0.014592
v 0.012109 0.009564 -0.014589
v 0.012116 0.009554 -0.014582
v 0.012113 0.009564 -0.014595
v 0.012111 0.009564 -0.014592
v 0.012120 0.009554 -0.014586
v 0.012114 0.009564 -0.014599
v 0.012122 0.009554 -0.014591
v 0.012124 0.009554 -0.014597
v 0.012115 0.009564 -0.014603
v 0.012125 0.009554 -0.014603
v 0.012114 0.009564 -0.014607
v 0.012124 0.009554 -0.014609
v 0.012122 0.009554 -0.014614
v 0.012113 0.009564 -0.014610
v 0.012120 0.009554 -0.014619
v 0.012109 0.009564 -0.014617
v 0.012111 0.009564 -0.014614
v 0.012111 0.009554 -0.014628
v 0.012106 0.009564 -0.014619
v 0.012116 0.009554 -0.014624
v 0.012099 0.009564 -0.014622
v 0.012095 0.009554 -0.014633
v 0.012095 0.009564 -0.014623
v 0.012095 0.009564 -0.014623
v 0.012095 0.009554 -0.014633
v 0.012091 0.009564 -0.014622
v 0.012102 0.009564 -0.014621
v 0.012106 0.009554 -0.014631
v 0.012099 0.009564 -0.014622
v 0.012086 0.008929 -0.014588
v 0.012086 0.008894 -0.014588
v 0.012077 0.008929 -0.014603
v 0.012086 0.008894 -0.014588
v 0.012077 0.008894 -0.014603
v 0.012103 0.008929 -0.014588
v 0.012103 0.008894 -0.014588
v 0.012086 0.008929 -0.014588
v 0.012086 0.008929 -0.014588
v 0.012103 0.008894 -0.014588
v 0.012086 0.008894 -0.014588
v 0.012112 0.008929 -0.014603
v 0.012112 0.008894 -0.014603
v 0.012103 0.008929 -0.014588
v 0.012103 0.008929 -0.014588
v 0.012112 0.008894 -0.014603
v 0.012103 0.008894 -0.014588
v 0.012103 0.008929 -0.014618
v 0.012103 0.008894 -0.014618
v 0.012112 0.008929 -0.014603
v 0.012112 0.008929 -0.014603
v 0.012103 0.008894 -0.014618
v 0.012112 0.008894 -0.014603
v 0.012086 0.008929 -0.014618
v 0.012086 0.008894 -0.014618
v 0.012103 0.008929 -0.014618
v 0.012103 0.008929 -0.014618
v 0.012086 0.008894 -0.014618
v 0.012103 0.008894 -0.014618
v 0.012077 0.008929 -0.014603
v 0.012077 0.008894 -0.014603
v 0.012086 0.008929 -0.014618
v 0.012086 0.008929 -0.014618
v 0.012077 0.008894 -0.014603
v 0.012086 0.008894 -0.014618
v 0.012086 0.008929 -0.014618
v 0.012103 0.008929 -0.014618
v 0.012086 0.008929 -0.014588
v 0.012103 0.008929 -0.014588
v 0.012086 0.008929 -0.014588
v 0.012112 0.008929 -0.014603
v 0.012086 0.008929 -0.014588
v 0.012103 0.008929 -0.014618
v 0.012112 0.008929 -0.014603
v 0.012086 0.008929 -0.014618
v 0.012086 0.008929 -0.014588
v 0.012077 0.008929 -0.014603
vn -0.0000 -1.0000 -0.0000
vn -0.0000 -1.0000 0.0001
vn -0.0000 -1.0000 -0.0001
vn -0.6935 0.7071 -0.1379
vn -0.6533 0.7071 -0.2706
vn -0.5879 0.7071 -0.3928
vn -0.5000 0.7071 -0.5000
vn -0.3928 0.7071 -0.5879
vn -0.2706 0.7071 -0.6533
vn -0.1379 0.7071 -0.6935
vn -0.1380 0.7071 -0.6935
vn -0.0000 0.7071 -0.7071
vn 0.1379 0.7071 -0.6935
vn 0.1380 0.7071 -0.6935
vn 0.2706 0.7071 -0.6533
vn 0.3928 0.7071 -0.5879
vn 0.5000 0.7071 -0.5000
vn 0.5879 0.7071 -0.3928
vn 0.6533 0.7071 -0.2706
vn 0.6935 0.7071 -0.1380
vn 0.7069 0.7073 -0.0000
vn 0.6935 0.7071 -0.1379
vn 0.6935 0.7071 0.1379
vn 0.7071 0.7071 -0.0000
vn 0.6935 0.7071 0.1380
vn 0.6533 0.7071 0.2706
vn 0.5000 0.7071 0.5000
vn 0.5879 0.7071 0.3928
vn 0.3928 0.7071 0.5879
vn 0.2706 0.7071 0.6533
vn 0.1380 0.7071 0.6935
vn 0.1379 0.7071 0.6935
vn -0.0000 0.7071 0.7071
vn -0.1380 0.7071 0.6935
vn -0.1379 0.7071 0.6935
vn -0.2706 0.7071 0.6533
vn -0.5000 0.7071 0.5000
vn -0.3928 0.7071 0.5879
vn -0.5879 0.7071 0.3928
vn -0.6533 0.7071 0.2706
vn -0.6935 0.7071 0.1380
vn -0.6935 0.7071 0.1379
vn -0.7071 0.7071 -0.0000
vn -0.7070 0.7072 -0.0000
vn 0.1379 -0.7071 0.6935
vn 0.2706 -0.7071 0.6533
vn 0.3928 -0.7071 0.5879
vn 0.5000 -0.7071 0.5000
vn 0.5879 -0.7071 0.3928
vn 0.6533 -0.7071 0.2706
vn 0.6935 -0.7071 0.1379
vn 0.6935 -0.7071 0.1380
vn 0.7071 -0.7071 -0.0000
vn 0.6935 -0.7071 -0.1379
vn 0.6935 -0.7071 -0.1380
vn 0.6533 -0.7071 -0.2706
vn 0.5879 -0.7071 -0.3928
vn 0.5000 -0.7071 -0.5000
vn 0.3928 -0.7071 -0.5879
vn 0.2706 -0.7071 -0.6533
vn 0.1380 -0.7071 -0.6935
vn -0.0000 -0.7071 -0.7071
vn 0.1379 -0.7071 -0.6935
vn -0.1379 -0.7071 -0.6935
vn -0.2706 -0.7071 -0.6533
vn -0.1380 -0.7071 -0.6935
vn -0.3928 -0.7071 -0.5879
vn -0.5000 -0.7071 -0.5000
vn -0.5880 -0.7071 -0.3928
vn -0.6533 -0.7071 -0.2706
vn -0.6935 -0.7071 -0.1380
vn -0.6935 -0.7071 -0.1379
vn -0.7071 -0.7071 -0.0000
vn -0.5880 -0.7071 0.3928
vn -0.5879 -0.7071 0.3928
vn -0.6533 -0.7071 0.2706
vn -0.5000 -0.7071 0.5000
vn -0.3928 -0.7071 0.5879
vn -0.6935 -0.7071 0.1380
vn -0.6935 -0.7071 0.1379
vn -0.2706 -0.7071 0.6533
vn -0.1380 -0.7071 0.6935
vn -0.1379 -0.7071 0.6935
vn -0.0000 -0.7071 0.7071
vn 0.0001 -0.7661 0.6427
vn -0.0000 -0.7661 0.6427
vn -0.0000 -0.7661 -0.6427
vn -0.0001 -0.7661 -0.6427
vn -0.0000 -0.7660 -0.6428
vn -0.0000 -0.0000 -1.0000
vn -0.0000 -0.0001 -1.0000
vn -0.0000 -0.4227 -0.9063
vn -0.0000 -0.4226 -0.9063
vn -0.0000 0.0001 -1.0000
vn -0.0000 1.0000 -0.0000
vn -0.0000 0.9238 -0.3829
vn -0.0000 0.3827 -0.9239
vn -0.0000 1.0000 -0.0001
vn -0.0000 1.0000 0.0001
vn -0.0000 1.0000 0.0002
vn -0.0000 1.0000 -0.0002
vn -0.0000 0.3827 0.9239
vn -0.0000 -0.0000 1.0000
vn -0.0000 0.3826 0.9239
vn -0.0001 0.9239 0.3827
vn -0.0000 0.9239 0.3827
vn -0.0000 -0.4226 0.9063
vn -0.0000 -0.7660 0.6428
vn -0.0000 -0.4227 0.9063
vn -1.0000 -0.0000 -0.0000
vn -1.0000 -0.0001 -0.0000
vn -1.0000 -0.0000 0.0001
vn 1.0000 0.0001 -0.0000
vn 1.0000 -0.0000 -0.0000
vn 1.0000 -0.0002 -0.0000
vn 1.0000 0.0002 -0.0000
vn 1.0000 -0.0000 0.0001
vn -0.1951 -0.0000 -0.9808
vn -0.3826 -0.0000 -0.9239
vn -0.3827 -0.0000 -0.9239
vn -0.5555 -0.0000 -0.8315
vn -0.5557 -0.0000 -0.8314
vn -0.7071 -0.0000 -0.7071
vn -0.8314 -0.0000 -0.5556
vn -0.8315 -0.0000 -0.5555
vn -0.9239 -0.0000 -0.3827
vn -0.9808 -0.0000 -0.1951
vn -0.9239 -0.0000 -0.3826
vn -0.9808 -0.0000 -0.1950
vn -0.9808 -0.0000 0.1950
vn -0.9239 -0.0000 0.3826
vn -0.9808 -0.0000 0.1951
vn -0.8315 -0.0000 0.5555
vn -0.9239 -0.0000 0.3827
vn -0.7071 -0.0000 0.7071
vn -0.8314 -0.0000 0.5556
vn -0.5557 -0.0000 0.8314
vn -0.5555 -0.0000 0.8315
vn -0.3827 -0.0000 0.9239
vn -0.3826 -0.0000 0.9239
vn -0.1951 -0.0000 0.9808
vn -0.1950 -0.0000 0.9808
vn 0.1950 -0.0000 0.9808
vn 0.1951 -0.0000 0.9808
vn 0.3826 -0.0000 0.9239
vn 0.5556 -0.0000 0.8314
vn 0.7071 -0.0000 0.7071
vn 0.8314 -0.0000 0.5556
vn 0.9808 -0.0000 0.1951
vn 0.9239 -0.0000 0.3826
vn 0.9808 -0.0000 0.1950
vn 0.9808 -0.0000 -0.1950
vn 0.9239 -0.0000 -0.3826
vn 0.9808 -0.0000 -0.1951
vn 0.8315 -0.0000 -0.5555
vn 0.9239 -0.0000 -0.3827
vn 0.7071 -0.0000 -0.7071
vn 0.8314 -0.0000 -0.5556
vn 0.8315 -0.0000 0.5555
vn 0.9239 -0.0000 0.3827
vn 0.5557 -0.0000 -0.8314
vn 0.3827 -0.0000 -0.9239
vn 0.5555 -0.0000 -0.8315
vn 0.1951 -0.0000 -0.9808
vn 0.3826 -0.0000 -0.9239
vn -0.1950 -0.0000 -0.9808
vn 0.1950 -0.0000 -0.9808
vn 0.0001 -0.0000 -1.0000
vn 0.0001 -0.0001 -1.0000
vn 0.8314 -0.0000 -0.5557
vn 1.0000 -0.0000 -0.0001
vn 0.7070 -0.0000 0.7072
vn 0.5557 -0.0000 0.8314
vn 0.5555 -0.0000 0.8315
vn 0.3827 -0.0000 0.9239
vn -0.5556 -0.0000 0.8314
vn -0.3827 0.0001 -0.9239
vn 0.3825 -0.0000 -0.9239
vn 0.5556 -0.0000 -0.8314
vn 0.9808 -0.0000 -0.1952
vn 1.0000 0.0001 -0.0001
vn 0.7072 -0.0000 0.7071
vn 0.8314 -0.0000 0.5557
vn 0.7069 -0.0000 0.7073
vn 0.3827 0.0001 0.9239
vn -0.3825 -0.0000 -0.9239
vn -0.5556 -0.0000 -0.8314
vn -0.9808 -0.0000 -0.1952
vn 0.3928 0.7071 -0.5880
vn 0.3929 0.7071 -0.5879
vn 0.5879 0.7071 -0.3929
vn 0.5880 0.7071 -0.3928
vn 0.5879 0.7071 0.3929
vn 0.3929 0.7071 0.5879
vn -0.0000 0.7070 0.7072
vn 0.1378 0.7071 0.6935
vn -0.0000 0.7072 0.7070
vn -0.3928 0.7071 0.5880
vn -0.3929 0.7071 0.5879
vn -0.5879 0.7071 0.3929
vn -0.5880 0.7071 0.3928
vn -0.5879 0.7071 -0.3929
vn -0.5880 0.7071 -0.3928
vn -0.3928 0.7071 -0.5880
vn -0.3928 0.7072 -0.5879
vn -0.2705 0.7071 -0.6533
vn -0.3929 0.7071 -0.5879
vn -0.6935 0.7071 -0.1380
vn -0.7073 0.7069 -0.0000
vn 0.5882 0.7071 0.3925
vn 0.5880 0.7071 0.3928
vn 0.7071 0.7071 -0.0001
vn 0.6935 0.7071 -0.1381
vn 0.8660 -0.0000 -0.5000
vn -0.8660 -0.0000 -0.5000
vn -0.8660 -0.0000 0.5000
vn 0.8660 -0.0000 0.5000
vt -0.150000 -0.086603
vt -0.166671 -0.249441
vt -0.000000 -0.173205
vt -0.150000 0.086603
vt -0.277164 0.114805
vt -0.294236 0.058527
vt 0.000000 0.173205
vt -0.058527 0.294236
vt -0.114805 0.277164
vt -0.166671 0.249441
vt 0.150000 0.086603
vt 0.166671 0.249441
vt 0.150000 -0.086603
vt 0.277164 -0.114805
vt 0.294236 -0.058527
vt -0.277164 -0.114805
vt -0.249441 -0.166671
vt -0.114805 -0.277164
vt 0.300000 0.000000
vt 0.294236 0.058527
vt 0.277164 0.114805
vt 0.249441 0.166671
vt 0.212132 0.212132
vt 0.114805 0.277164
vt 0.058527 0.294236
vt 0.000000 0.300000
vt -0.212132 0.212132
vt -0.249441 0.166671
vt -0.300000 0.000000
vt -0.294236 -0.058527
vt -0.212132 -0.212132
vt -0.058527 -0.294236
vt -0.000000 -0.300000
vt 0.058527 -0.294236
vt 0.114805 -0.277164
vt 0.166671 -0.249441
vt 0.212132 -0.212132
vt 0.249441 -0.166671
vt 0.068282 0.343275
vt 0.133939 0.323358
vt 0.194450 0.291014
vt 0.247487 0.247487
vt 0.291014 0.194450
vt 0.323358 0.133939
vt 0.343275 0.068282
vt -0.520000 0.068282
vt -0.570000 0.058527
vt -0.570000 0.000000
vt -0.520000 0.000000
vt -0.570000 -0.058527
vt 0.343275 -0.068282
vt 0.323358 -0.133939
vt 0.291014 -0.194450
vt 0.247487 -0.247487
vt 0.194450 -0.291014
vt 0.133939 -0.323358
vt -0.058527 -0.570000
vt 0.000000 -0.570000
vt -0.068282 -0.520000
vt 0.058527 -0.570000
vt 0.000000 -0.520000
vt 0.068282 -0.520000
vt -0.133939 -0.323358
vt -0.068282 -0.343275
vt -0.247487 -0.247487
vt -0.194450 -0.291014
vt -0.291014 -0.194450
vt -0.323358 -0.133939
vt -0.343275 -0.068282
vt 0.520000 -0.068282
vt 0.570000 0.000000
vt 0.520000 -0.000000
vt -0.343275 0.068282
vt -0.247487 0.247487
vt -0.291014 0.194450
vt -0.194450 0.291014
vt -0.133939 0.323358
vt -0.323358 0.133939
vt -0.068282 0.343275
vt 0.570000 0.058527
vt 0.520000 0.068282
vt 0.570000 -0.058527
vt 0.068282 -0.343275
vt -0.520000 -0.068282
vt 0.339205 -0.067472
vt 0.319524 -0.132351
vt 0.287564 -0.192144
vt 0.244553 -0.244553
vt 0.192144 -0.287564
vt 0.132351 -0.319524
vt 0.067472 -0.339205
vt 0.000000 -1.200000
vt 0.067472 -1.200000
vt 0.000000 -1.154150
vt -0.058527 -1.154150
vt -0.067472 -0.339205
vt -0.132351 -0.319524
vt -0.192144 -0.287564
vt -0.244553 -0.244553
vt -0.287564 -0.192144
vt -0.319524 -0.132351
vt -1.154150 -0.058527
vt -1.154150 0.000000
vt -1.200000 -0.067472
vt -1.154150 0.058527
vt -1.200000 0.000000
vt -0.339205 0.067472
vt -0.287564 0.192144
vt -0.319524 0.132351
vt -0.244553 0.244553
vt -0.192144 0.287564
vt -0.132351 0.319524
vt -0.067472 0.339205
vt 0.192144 0.287564
vt 0.132351 0.319524
vt 0.244553 0.244553
vt 0.287564 0.192144
vt 0.067472 0.339205
vt 0.319524 0.132351
vt 0.339205 0.067472
vt 1.154150 0.000000
vt 1.154150 -0.058527
vt 1.200000 -0.067472
vt 1.200000 0.067472
vt 1.200000 0.000000
vt 1.154150 0.058527
vt -0.067472 -1.200000
vt 0.058527 -1.154150
vt -1.200000 0.067472
vt -0.339205 -0.067472
vt -0.359347 0.000000
vt -0.391487 -1.150000
vt -0.359347 -1.150000
vt -0.391487 1.150000
vt -0.359347 1.150000
vt -0.345850 0.000000
vt 0.359347 -1.150000
vt 0.000000 -0.345850
vt 0.000000 0.345850
vt 0.359347 1.150000
vt 0.359347 0.000000
vt 0.345850 0.000000
vt 0.391487 -1.150000
vt 0.391487 0.000000
vt 0.391487 1.150000
vt 0.872139 -1.150000
vt 0.872139 1.150000
vt -0.746685 -1.150000
vt -0.746685 1.150000
vt -0.767816 -1.150000
vt -0.767816 1.150000
vt -0.784987 -1.150000
vt -0.784987 1.150000
vt -0.570000 -1.150000
vt -0.570000 1.150000
vt -0.840000 -1.150000
vt -0.840000 1.150000
vt -0.859134 -1.150000
vt -0.859134 1.150000
vt -0.875355 -1.150000
vt -0.875355 1.150000
vt -0.550866 1.150000
vt -0.550866 -1.150000
vt -0.534645 1.150000
vt -0.534645 -1.150000
vt 0.840000 -1.150000
vt 0.840000 1.150000
vt -0.000000 0.350000
vt -0.350000 -0.000000
vt -0.000000 -0.350000
vt 0.350000 0.000000
vt 0.550866 -1.150000
vt 0.570000 -1.150000
vt 0.570000 1.150000
vt 0.550866 1.150000
vt 0.534645 -1.150000
vt 0.859134 1.150000
vt 0.859134 -1.150000
vt 0.875355 1.150000
vt 0.875355 -1.150000
vt 0.534645 1.150000
vt 0.746685 -1.150000
vt 0.746685 1.150000
vt 0.767816 -1.150000
vt 0.784987 -1.150000
vt 0.784987 1.150000
vt 0.767816 1.150000
vt -0.872139 -1.150000
vt -0.872139 1.150000
vt 0.840000 -0.520000
vt 0.359347 -1.200000
vt 0.391487 -1.188302
vt 0.890000 -0.746685
vt 0.872139 -0.784987
vt 0.885315 -0.767816
vt 0.890000 -0.570000
vt 0.859134 -0.523806
vt 0.875355 -0.534645
vt 0.886194 -0.550866
vt -0.840000 -0.520000
vt -0.359347 -1.200000
vt -0.872139 -0.784987
vt -0.391487 -1.188302
vt -0.890000 -0.746685
vt -0.890000 -0.570000
vt -0.859134 -0.523806
vt -0.875355 -0.534645
vt -0.885315 -0.767816
vt -0.886194 -0.550866
vt -1.200000 -0.058527
vt -1.154150 -0.114805
vt -1.200000 -0.114805
vt -1.154150 -0.166671
vt -1.200000 -0.166671
vt -1.154150 -0.212132
vt -0.212132 -1.154150
vt -0.212132 -1.200000
vt -0.166671 -1.154150
vt -0.166671 -1.200000
vt -0.114805 -1.154150
vt -0.114805 -1.200000
vt -0.058527 -1.200000
vt 0.058527 -1.200000
vt 0.114805 -1.200000
vt 0.114805 -1.154150
vt 0.166671 -1.200000
vt 0.166671 -1.154150
vt 0.212132 -1.200000
vt 0.212132 -1.154150
vt 1.200000 -0.212132
vt 1.154150 -0.166671
vt 1.154150 -0.212132
vt 1.200000 -0.166671
vt 1.154150 -0.114805
vt 1.200000 -0.114805
vt 1.200000 -0.058527
vt 1.200000 0.058527
vt 1.200000 0.114805
vt 1.154150 0.114805
vt 1.200000 0.166671
vt 1.154150 0.212132
vt 1.154150 0.166671
vt -1.154150 0.166671
vt -1.200000 0.212132
vt -1.200000 0.166671
vt -1.154150 0.114805
vt -1.200000 0.114805
vt -1.200000 0.058527
vt -1.154150 0.212132
vt 1.200000 0.212132
vt -1.200000 -0.212132
vt 5.400000 0.058527
vt -0.570000 0.114805
vt -0.570000 0.166671
vt 5.400000 0.114805
vt 5.400000 0.166671
vt 5.400000 0.212132
vt -0.570000 0.212132
vt 0.212132 5.400000
vt 0.166671 -0.570000
vt 0.212132 -0.570000
vt 0.166671 5.400000
vt 0.114805 -0.570000
vt 0.114805 5.400000
vt 0.058527 5.400000
vt 0.000000 5.400000
vt -0.058527 5.400000
vt -0.114805 -0.570000
vt -0.114805 5.400000
vt -0.166671 -0.570000
vt -0.212132 -0.570000
vt -0.166671 5.400000
vt -0.212132 5.400000
vt -5.400000 0.166671
vt 0.570000 0.166671
vt -5.400000 0.212132
vt 0.570000 0.114805
vt -5.400000 0.114805
vt -5.400000 0.058527
vt -5.400000 0.000000
vt -5.400000 -0.058527
vt 0.570000 -0.114805
vt -5.400000 -0.114805
vt 0.570000 -0.166671
vt -5.400000 -0.166671
vt 0.570000 -0.212132
vt 5.400000 -0.058527
vt 5.400000 -0.114805
vt -0.570000 -0.114805
vt 5.400000 -0.166671
vt -0.570000 -0.166671
vt 5.400000 -0.212132
vt -0.570000 -0.212132
vt -5.400000 -0.212132
vt 0.570000 0.212132
vt 5.400000 0.000000
vt -0.184776 -0.076537
vt -0.200000 0.000000
vt -0.196157 -0.039018
vt -0.166294 -0.111114
vt -0.141421 -0.141421
vt -0.111114 -0.166294
vt -0.076537 -0.184776
vt -0.039018 -0.196157
vt 0.000000 -0.200000
vt 0.039018 -0.196157
vt 0.076537 -0.184776
vt 0.111114 -0.166294
vt 0.141421 -0.141421
vt 0.184776 -0.076537
vt 0.166294 -0.111114
vt 0.196157 -0.039018
vt 0.200000 0.000000
vt 0.196157 0.039018
vt 0.184776 0.076537
vt 0.166294 0.111114
vt 0.141421 0.141421
vt 0.076537 0.184776
vt 0.111114 0.166294
vt 0.039018 0.196157
vt -0.000000 0.200000
vt -0.039018 0.196157
vt -0.076537 0.184776
vt -0.111114 0.166294
vt -0.141421 0.141421
vt -0.166294 0.111114
vt -0.184776 0.076537
vt -0.196157 0.039018
vt -0.150000 -0.850000
vt -0.150000 -1.200000
vt -0.000000 -0.850000
vt -0.850000 0.086603
vt -1.200000 0.086603
vt -0.850000 -0.086603
vt -1.200000 -0.086603
vt 0.150000 -0.850000
vt 0.150000 -1.200000
vt 0.850000 -0.086603
vt 1.200000 -0.086603
vt 0.850000 0.086603
vt 1.200000 0.086603
s 1
usemtl Diffuse_51_51_51_100.004
f 1/1/1 2/2/2 3/3/1
f 4/4/2 5/5/1 6/6/1
f 7/7/1 8/8/1 9/9/1
f 7/7/1 9/9/1 10/10/1
f 11/11/1 12/12/1 7/7/1
f 13/13/1 14/14/1 15/15/1
f 16/16/1 17/17/1 1/1/1
f 3/3/1 2/2/2 18/18/2
f 13/13/1 15/15/1 19/19/3
f 13/13/1 19/19/3 11/11/1
f 19/19/3 20/20/1 11/11/1
f 20/20/1 21/21/1 11/11/1
f 21/21/1 22/22/1 11/11/1
f 11/11/1 23/23/3 12/12/1
f 22/22/1 23/23/3 11/11/1
f 7/7/1 12/12/1 24/24/1
f 7/7/1 24/24/1 25/25/1
f 26/26/1 7/7/1 25/25/1
f 8/8/1 7/7/1 26/26/1
f 10/10/1 27/27/2 4/4/2
f 10/10/1 4/4/2 7/7/1
f 4/4/2 28/28/1 5/5/1
f 29/29/2 4/4/2 6/6/1
f 29/29/2 1/1/1 4/4/2
f 30/30/1 1/1/1 29/29/2
f 16/16/1 1/1/1 30/30/1
f 1/1/1 31/31/2 2/2/2
f 17/17/1 31/31/2 1/1/1
f 32/32/2 3/3/1 18/18/2
f 33/33/1 3/3/1 32/32/2
f 33/33/1 34/34/3 3/3/1
f 34/34/3 35/35/3 3/3/1
f 35/35/3 36/36/3 3/3/1
f 36/36/3 37/37/3 13/13/1
f 36/36/3 13/13/1 3/3/1
f 37/37/3 38/38/1 13/13/1
f 38/38/1 14/14/1 13/13/1
f 27/27/2 28/28/1 4/4/2
f 39/25/4 40/24/5 41/39/4
f 40/24/5 42/12/6 43/40/5
f 42/12/6 44/23/7 45/41/6
f 46/42/7 45/41/6 44/23/7
f 47/43/8 46/42/7 48/22/8
f 49/44/9 47/43/8 50/21/9
f 51/45/10 49/44/9 52/20/11
f 51/46/10 52/47/11 53/48/12
f 54/49/12 53/48/12 55/50/13
f 56/51/14 55/15/13 57/14/15
f 58/52/15 57/14/15 59/38/16
f 58/52/15 59/38/16 60/53/16
f 60/53/16 61/37/17 62/54/17
f 62/54/17 63/36/18 64/55/18
f 64/55/18 65/35/19 66/56/19
f 65/35/19 67/34/20 66/56/19
f 67/57/20 68/58/21 69/59/22
f 68/58/21 70/60/23 71/61/24
f 70/60/23 72/62/25 71/61/24
f 73/18/26 74/63/26 72/64/25
f 75/31/27 76/65/27 77/66/28
f 78/17/29 79/16/30 80/67/29
f 81/68/30 82/30/31 83/69/32
f 83/70/32 84/71/33 85/72/33
f 86/73/34 87/6/35 88/5/36
f 89/27/37 90/74/37 91/75/38
f 92/10/39 93/76/39 90/74/37
f 94/9/40 95/77/40 93/76/39
f 96/78/36 88/5/36 97/28/38
f 98/8/41 99/79/42 95/77/40
f 100/58/43 39/60/4 41/62/4
f 99/59/42 100/58/43 101/61/44
f 98/57/41 100/58/43 99/59/42
f 94/9/40 98/8/41 95/77/40
f 92/10/39 94/9/40 93/76/39
f 89/27/37 92/10/39 90/74/37
f 97/28/38 89/27/37 91/75/38
f 97/28/38 91/75/38 96/78/36
f 88/5/36 96/78/36 86/73/34
f 87/80/35 86/81/34 85/72/33
f 87/80/35 85/72/33 84/71/33
f 84/71/33 83/70/32 82/82/31
f 82/30/31 81/68/30 79/16/30
f 81/68/30 80/67/29 79/16/30
f 80/67/29 76/65/27 78/17/29
f 76/65/27 75/31/27 78/17/29
f 77/66/28 102/2/28 75/31/27
f 74/63/26 102/2/28 77/66/28
f 73/18/26 102/2/28 74/63/26
f 70/32/23 73/18/26 72/64/25
f 69/59/22 68/58/21 71/61/24
f 66/56/19 67/34/20 69/83/22
f 64/55/18 63/36/18 65/35/19
f 62/54/17 61/37/17 63/36/18
f 60/53/16 59/38/16 61/37/17
f 58/52/15 56/51/14 57/14/15
f 56/84/14 54/49/12 55/50/13
f 54/49/12 51/46/10 53/48/12
f 52/20/11 49/44/9 50/21/9
f 50/21/9 47/43/8 48/22/8
f 48/22/8 46/42/7 44/23/7
f 42/12/6 45/41/6 43/40/5
f 41/39/4 40/24/5 43/40/5
f 41/62/4 101/61/44 100/58/43
f 103/15/45 104/14/46 105/85/45
f 104/14/46 106/38/47 107/86/46
f 106/38/47 108/37/48 109/87/47
f 108/37/48 110/36/49 111/88/48
f 112/89/49 111/88/48 110/36/49
f 113/90/50 112/89/49 114/35/50
f 115/91/51 113/90/50 116/34/52
f 117/92/53 115/93/51 118/94/53
f 117/92/53 118/94/53 119/95/54
f 120/96/55 119/32/54 121/18/56
f 122/97/56 121/18/56 123/2/57
f 122/97/56 123/2/57 124/98/57
f 124/98/57 125/31/58 126/99/58
f 126/99/58 127/17/59 128/100/59
f 128/100/59 129/16/60 130/101/60
f 129/16/60 131/30/61 130/101/60
f 131/102/61 132/103/62 133/104/63
f 132/103/62 134/105/64 135/106/62
f 134/6/64 136/5/65 137/107/66
f 138/28/67 139/108/67 140/109/65
f 141/27/68 142/10/69 143/110/68
f 142/10/69 144/9/70 145/111/69
f 146/112/70 147/8/71 148/113/72
f 148/93/72 149/94/73 150/92/73
f 151/12/74 152/114/75 153/115/76
f 154/23/77 155/116/77 152/114/75
f 156/22/78 157/117/78 155/116/77
f 158/118/79 159/25/80 160/24/76
f 161/21/81 162/119/81 157/117/78
f 163/20/82 164/120/83 162/119/81
f 165/121/84 103/122/45 105/123/45
f 164/124/83 165/121/84 166/125/84
f 163/126/82 165/121/84 164/124/83
f 161/21/81 163/20/82 162/119/81
f 156/22/78 161/21/81 157/117/78
f 154/23/77 156/22/78 155/116/77
f 151/12/74 154/23/77 152/114/75
f 160/24/76 151/12/74 153/115/76
f 160/24/76 153/115/76 158/118/79
f 159/95/80 158/127/79 150/92/73
f 159/95/80 150/92/73 149/94/73
f 149/94/73 148/93/72 147/128/71
f 147/8/71 146/112/70 144/9/70
f 146/112/70 145/111/69 144/9/70
f 145/111/69 143/110/68 142/10/69
f 143/110/68 139/108/67 141/27/68
f 139/108/67 138/28/67 141/27/68
f 137/107/66 136/5/65 140/109/65
f 136/5/65 138/28/67 140/109/65
f 135/106/62 134/105/64 137/129/66
f 133/104/63 132/103/62 135/106/62
f 130/101/60 131/30/61 133/130/63
f 128/100/59 127/17/59 129/16/60
f 126/99/58 125/31/58 127/17/59
f 124/98/57 123/2/57 125/31/58
f 122/97/56 120/96/55 121/18/56
f 120/127/55 117/92/53 119/95/54
f 118/94/53 115/93/51 116/128/52
f 116/34/52 113/90/50 114/35/50
f 114/35/50 112/89/49 110/36/49
f 108/37/48 111/88/48 109/87/47
f 106/38/47 109/87/47 107/86/46
f 105/85/45 104/14/46 107/86/46
f 105/123/45 166/125/84 165/121/84
f 167/131/1 168/132/85 169/133/2
f 170/134/86 168/132/85 171/135/2
f 171/135/2 168/132/85 167/131/1
f 167/131/1 172/136/1 173/107/1
f 174/137/3 175/91/3 176/138/3
f 174/137/1 177/90/1 178/91/1
f 169/133/1 179/96/1 180/97/1
f 171/135/1 181/113/1 182/139/1
f 171/135/1 183/112/1 184/113/1
f 185/140/1 186/118/1 187/115/1
f 188/120/2 189/141/3 185/140/1
f 190/120/1 191/142/1 189/141/1
f 192/119/1 193/120/1 185/140/1
f 194/117/1 195/119/1 185/140/1
f 196/116/1 197/117/1 185/140/1
f 198/114/1 199/116/1 185/140/1
f 200/115/1 201/114/1 185/140/1
f 202/118/1 185/140/1 203/139/1
f 185/140/1 171/135/1 204/139/1
f 171/135/3 205/111/3 206/112/3
f 207/108/1 171/135/1 208/109/1
f 209/108/1 210/110/1 171/135/1
f 211/109/1 171/135/1 212/107/1
f 171/135/3 213/110/3 214/111/3
f 215/136/1 167/131/1 216/130/1
f 217/130/2 167/131/1 169/133/2
f 218/101/2 219/130/2 169/133/2
f 220/100/1 221/101/1 169/133/1
f 222/99/1 223/100/1 169/133/1
f 224/98/1 225/99/1 169/133/1
f 226/97/1 227/98/1 169/133/1
f 228/96/1 169/133/1 229/138/1
f 169/133/1 174/137/1 230/138/1
f 174/137/1 231/89/1 232/90/1
f 233/87/1 174/137/1 234/86/1
f 235/87/1 236/88/1 174/137/1
f 237/86/3 174/137/3 238/85/3
f 167/131/1 239/107/3 171/135/2
f 174/137/2 240/88/2 241/89/2
f 189/141/1 242/142/1 243/85/1
f 244/85/3 174/137/3 189/141/3
f 245/143/87 189/141/3 174/137/3
f 246/144/87 189/141/3 245/143/87
f 247/145/88 189/141/3 246/144/87
f 185/140/1 189/141/3 247/145/88
f 248/146/89 249/147/89 246/144/87
f 246/144/87 249/147/89 247/145/88
f 246/144/87 245/143/87 248/146/89
f 250/148/90 251/149/91 252/150/92
f 252/150/92 251/149/91 253/151/93
f 248/152/89 253/151/93 249/153/89
f 253/151/93 248/152/89 252/150/92
f 254/154/94 255/155/90 250/148/90
f 250/148/90 255/155/90 251/149/91
f 256/156/95 257/157/95 258/158/96
f 258/158/96 257/157/95 259/159/96
f 260/160/12 258/158/96 259/159/96
f 261/161/12 260/160/12 259/159/96
f 254/154/94 262/162/97 255/155/90
f 254/154/94 263/163/97 262/162/97
f 263/163/97 261/164/12 262/162/97
f 260/165/12 261/164/12 263/163/97
f 264/166/98 265/54/98 266/55/98
f 256/156/98 267/65/98 268/67/98
f 256/156/99 269/66/99 270/65/99
f 257/157/99 271/74/99 272/76/99
f 273/167/99 274/42/99 275/43/99
f 273/167/98 276/41/98 277/42/98
f 278/79/100 279/168/100 257/157/100
f 257/157/95 280/168/95 273/167/95
f 281/77/95 282/79/95 257/157/95
f 283/76/95 284/77/95 257/157/95
f 285/74/101 257/157/101 286/75/101
f 287/75/95 257/157/95 288/78/95
f 289/78/95 257/157/95 290/73/95
f 291/169/95 292/73/95 257/157/95
f 293/68/95 294/69/95 256/156/95
f 256/156/95 295/69/95 296/169/95
f 297/67/95 298/68/95 256/156/95
f 299/66/98 256/156/98 300/63/98
f 301/63/95 256/156/95 302/64/95
f 257/157/95 256/156/95 303/169/95
f 304/170/95 305/64/95 256/156/95
f 256/156/95 264/166/95 306/170/95
f 307/170/95 264/166/95 308/83/95
f 309/54/100 264/166/100 310/53/100
f 264/166/99 311/55/99 312/56/99
f 313/53/95 264/166/95 314/52/95
f 315/52/95 264/166/95 316/51/95
f 317/171/95 318/51/95 264/166/95
f 319/44/95 320/45/95 273/167/95
f 273/167/100 321/45/100 322/171/100
f 323/43/95 324/44/95 273/167/95
f 325/41/95 273/167/95 326/40/95
f 327/40/95 273/167/95 328/39/95
f 329/83/95 264/166/95 330/56/95
f 331/168/101 332/39/101 273/167/101
f 273/167/95 333/171/95 264/166/95
f 334/172/102 335/173/103 336/174/103
f 337/175/104 334/172/102 336/174/103
f 337/175/104 338/176/33 334/172/102
f 264/166/95 339/177/105 273/167/95
f 339/177/105 264/166/95 340/178/106
f 341/179/33 339/177/105 340/178/106
f 338/180/33 341/179/33 340/178/106
f 338/176/33 337/175/104 341/181/33
f 342/182/103 343/183/103 335/173/103
f 335/173/103 343/183/103 336/174/103
f 344/184/107 345/185/108 346/186/108
f 347/187/109 343/183/103 342/182/103
f 346/186/108 347/187/109 344/184/107
f 347/187/109 342/182/103 344/184/107
f 168/132/85 170/134/86 345/188/108
f 345/188/108 170/134/86 346/189/108
f 348/190/110 349/191/110 350/192/110
f 351/193/111 352/190/111 353/194/111
f 354/190/111 355/192/111 356/194/111
f 357/193/110 358/194/110 359/195/110
f 360/196/110 361/190/110 362/193/110
f 363/197/110 364/190/110 365/198/110
f 366/196/110 367/199/110 368/190/110
f 369/190/110 370/200/110 371/191/110
f 372/191/110 373/200/110 374/201/110
f 375/200/110 376/202/110 377/203/110
f 378/200/110 379/203/110 380/201/110
f 381/204/111 382/202/111 383/200/111
f 384/204/110 385/200/110 386/205/110
s 0
f 387/206/110 388/207/110 389/205/110
f 390/204/110 391/208/110 392/202/110
s 1
f 393/200/111 394/206/111 395/205/111
s 0
f 396/207/110 397/209/110 398/205/112
s 1
f 399/190/110 400/199/110 401/198/110
f 402/204/113 403/202/113 404/200/113
f 405/200/114 406/202/114 407/203/114
f 408/204/114 409/208/114 410/202/114
f 411/205/114 412/204/114 413/200/114
f 414/206/114 415/207/114 416/200/114
f 417/205/114 418/200/114 419/209/114
f 420/200/115 421/203/115 422/201/115
f 423/200/114 424/201/114 425/190/114
f 426/190/115 427/191/115 428/192/115
f 429/190/114 430/201/114 431/191/114
f 432/194/114 433/190/114 434/192/114
f 435/194/116 436/193/116 437/190/116
s 0
f 438/197/114 439/196/114 440/198/114
f 441/193/114 442/194/114 443/195/114
s 1
f 444/190/113 445/196/113 446/197/113
f 447/196/114 448/190/114 449/193/114
s 0
f 450/199/114 451/198/114 452/196/117
s 1
f 453/200/114 454/207/114 455/209/114
f 456/102/118 457/210/118 458/211/119
f 459/211/120 460/212/120 461/213/121
f 462/213/122 463/214/122 464/215/123
f 465/216/123 466/217/123 467/218/124
f 468/218/125 469/219/125 470/220/126
f 471/221/126 472/220/126 473/219/125
f 474/222/127 475/95/127 476/221/128
f 477/92/110 478/94/110 479/222/129
f 480/223/130 481/128/130 482/92/110
f 483/224/131 484/225/131 485/223/132
f 486/226/133 487/227/133 488/224/134
f 489/228/135 490/229/135 491/226/136
f 492/230/135 493/231/137 494/232/135
f 495/233/138 496/234/139 497/231/138
f 498/235/140 499/122/141 500/234/140
f 501/236/142 502/121/103 503/122/142
f 504/125/103 505/126/143 506/121/103
f 507/237/144 508/238/145 509/239/145
f 510/240/146 511/241/147 512/242/146
f 513/217/147 514/218/148 515/216/147
f 516/95/149 517/221/150 518/222/149
f 519/94/114 520/222/151 521/92/114
f 522/128/152 523/92/114 524/223/152
f 525/225/153 526/223/154 527/224/153
f 528/227/155 529/224/156 530/226/155
f 531/229/157 532/226/158 533/228/157
f 534/219/159 535/220/160 536/218/159
f 537/243/161 538/244/157 539/245/161
f 540/246/162 541/245/163 542/247/162
f 543/105/164 544/247/165 545/248/164
f 546/103/90 547/210/166 548/102/166
f 549/248/167 550/106/168 551/103/168
f 552/105/167 553/248/167 554/103/169
f 555/246/165 556/247/165 557/105/164
f 558/243/163 559/245/163 560/246/162
f 561/249/157 562/244/157 563/243/161
f 564/227/170 565/226/170 566/229/157
f 567/225/156 568/224/156 569/227/155
f 570/128/154 571/223/154 572/225/153
f 573/94/171 574/92/171 575/128/152
f 576/95/151 577/222/151 578/94/117
f 579/220/150 580/221/150 581/95/149
f 582/220/160 583/219/159 584/221/160
f 585/218/148 586/217/172 587/219/148
f 588/241/147 589/240/173 590/250/147
f 591/242/174 592/238/175 593/240/174
f 594/242/174 595/239/175 596/238/175
f 597/237/143 598/126/143 599/125/103
f 600/237/144 601/239/145 602/126/144
f 603/125/103 604/121/103 605/236/142
f 606/236/141 607/122/141 608/235/140
f 609/235/139 610/234/139 611/233/138
f 612/233/176 613/231/176 614/230/135
f 615/229/135 616/227/136 617/226/136
f 618/227/133 619/225/134 620/224/134
f 621/225/131 622/128/132 623/223/132
f 624/128/130 625/94/110 626/92/110
f 627/94/110 628/95/129 629/222/129
f 630/95/127 631/220/128 632/221/128
f 633/218/124 634/217/123 635/219/124
f 636/215/123 637/214/122 638/251/123
f 639/213/121 640/212/177 641/214/121
f 642/210/118 643/212/119 644/211/119
f 645/210/166 646/103/90 647/106/90
f 648/47/167 649/48/90 650/252/167
f 651/253/178 652/47/164 650/252/164
f 653/254/163 654/253/162 655/255/162
f 656/256/163 657/254/163 655/255/162
f 658/257/157 659/258/157 656/256/179
f 658/259/157 660/260/158 661/261/157
f 662/262/155 663/263/156 664/260/155
f 662/262/155 665/264/156 666/263/156
f 665/264/153 667/265/180 668/60/180
f 669/60/152 667/265/152 670/58/181
f 671/58/114 672/266/114 673/57/151
f 674/57/151 672/266/117 675/267/151
f 676/268/150 675/267/149 677/269/150
f 678/270/159 679/268/160 677/269/160
f 680/271/182 681/270/183 682/272/183
f 683/273/184 684/271/184 682/272/148
f 685/274/146 686/275/146 683/276/147
f 685/274/174 687/277/185 688/275/174
f 689/278/145 690/80/144 691/277/145
f 689/278/145 692/279/144 693/80/144
f 692/279/143 694/280/103 695/71/103
f 696/71/103 694/280/103 697/82/142
f 698/82/141 699/281/141 700/282/140
f 701/282/140 699/281/141 702/283/140
f 703/284/138 702/283/139 704/285/138
f 705/286/135 706/284/176 704/285/176
f 707/260/136 708/261/135 709/259/135
f 710/262/136 711/260/136 709/259/135
f 712/264/134 713/263/134 710/262/133
f 712/264/131 714/60/132 715/263/131
f 716/265/130 717/58/110 718/60/130
f 719/253/178 650/252/164 655/255/178
f 720/287/166 721/48/90 722/50/166
f 723/288/186 720/287/118 724/50/118
f 725/289/186 723/288/186 726/50/118
f 727/289/120 728/290/121 723/288/120
f 729/289/177 730/291/121 728/290/121
f 728/290/187 731/291/187 732/292/123
f 732/292/123 733/291/187 734/293/123
f 735/272/124 732/273/123 736/271/123
f 737/270/124 735/272/124 738/271/123
f 739/270/125 740/269/126 735/272/125
f 741/270/125 742/268/126 740/269/126
f 740/269/128 743/268/128 744/267/188
f 744/267/188 745/268/128 746/57/188
f 747/266/110 744/267/129 748/57/129
f 749/58/110 747/266/110 750/57/129
f 747/266/110 751/58/110 716/265/130
f 716/265/132 752/60/132 712/264/131
f 753/263/134 754/260/133 710/262/133
f 755/286/135 704/285/176 709/294/135
f 756/282/139 702/283/139 757/284/138
f 694/280/103 699/281/142 758/82/142
f 692/279/143 759/71/103 760/80/143
f 689/278/175 761/277/175 685/274/174
f 762/275/146 763/295/147 683/276/147
f 764/270/159 677/269/160 682/272/159
f 765/57/149 675/267/149 766/268/150
f 667/265/152 672/266/171 767/58/171
f 665/264/153 768/60/180 769/263/153
f 662/262/158 770/260/158 658/259/157
f 650/252/167 771/48/168 772/296/90
f 772/296/90 773/48/90 720/287/166
f 774/254/179 656/256/179 775/258/157
s 0
f 776/297/95 777/298/95 778/299/95
s 1
f 779/300/99 777/298/95 776/297/98
f 780/301/95 777/298/95 779/300/99
f 781/302/98 777/298/95 780/301/95
f 782/303/95 783/304/99 777/298/95
f 782/303/95 777/298/95 781/302/98
f 783/304/99 784/305/95 777/298/95
f 784/305/95 785/306/98 777/298/95
f 777/298/95 785/306/98 786/307/98
f 777/298/95 786/307/98 787/308/99
f 777/298/95 787/308/99 788/309/95
f 789/310/95 777/298/95 790/311/95
f 777/298/95 788/309/95 790/311/95
f 791/312/95 792/313/95 777/298/95
f 792/313/95 793/314/95 777/298/95
f 777/298/95 793/314/95 794/315/95
f 777/298/95 794/315/95 795/316/95
f 777/298/95 795/316/95 796/317/95
f 797/318/95 777/298/95 798/319/95
f 777/298/95 796/317/95 798/319/95
f 799/320/95 777/298/95 797/318/95
f 800/321/95 777/298/95 799/320/95
f 800/321/95 801/322/95 777/298/95
f 801/322/95 802/323/95 777/298/95
f 802/323/95 803/324/95 777/298/95
f 777/298/95 804/325/95 805/326/95
f 803/324/95 804/325/95 777/298/95
f 777/298/95 805/326/95 806/327/99
s 0
f 777/298/95 806/327/95 807/328/95
s 1
f 791/312/95 777/298/95 789/310/95
f 808/6/14 809/328/14 810/5/15
f 811/5/15 812/327/15 813/28/16
f 814/28/189 815/327/15 816/326/16
f 817/27/17 818/326/190 819/325/17
f 820/10/191 821/27/17 822/325/17
f 823/9/19 824/10/192 825/324/192
f 826/323/19 827/9/19 828/324/18
f 829/322/20 830/8/20 831/323/19
f 832/322/22 833/26/24 834/8/22
f 835/321/24 836/25/23 837/26/24
f 838/321/24 839/320/23 840/25/23
f 841/320/25 842/318/26 843/24/26
f 844/24/26 845/318/26 846/12/28
f 847/12/193 848/319/193 849/23/27
f 850/23/27 851/317/27 852/22/194
f 853/22/194 854/317/27 855/316/194
f 856/21/30 857/316/29 858/315/30
f 859/20/31 860/21/30 861/315/30
f 862/19/195 863/20/32 864/314/196
f 865/313/195 866/19/195 867/314/32
f 868/312/35 869/15/35 870/313/197
f 871/312/34 872/14/36 873/15/34
f 874/310/36 875/38/198 876/14/36
f 877/310/36 878/311/198 879/38/198
f 880/311/199 881/309/37 882/37/37
f 883/37/37 884/309/37 885/36/200
f 886/36/201 887/308/201 888/35/40
f 889/35/40 890/308/39 891/307/40
f 892/34/41 893/307/40 894/306/41
f 895/2/202 896/302/202 897/31/7
f 898/2/203 899/303/5 900/302/203
f 901/300/204 902/16/9 903/17/205
f 904/29/12 905/328/13 906/6/13
f 907/299/10 908/29/12 909/30/10
f 910/297/9 911/299/11 912/30/11
f 913/16/206 914/297/9 915/30/11
f 916/16/9 917/300/8 918/297/9
f 919/17/207 920/301/7 921/300/207
f 922/17/207 923/31/7 924/301/7
f 925/301/7 926/31/7 927/302/202
f 928/303/5 929/2/6 930/18/5
f 931/304/208 932/303/5 933/18/5
f 934/32/208 935/304/208 936/18/5
f 937/32/4 938/305/44 939/304/4
f 940/32/4 941/33/43 942/305/43
f 943/305/209 944/33/209 945/306/42
f 946/306/42 947/33/44 948/34/42
f 949/35/40 950/307/40 951/34/41
f 952/309/37 953/308/200 954/36/200
f 955/311/199 956/37/37 957/38/199
f 958/310/36 959/14/36 960/312/34
f 961/15/35 962/19/33 963/313/33
f 964/20/31 965/315/30 966/314/31
f 967/22/29 968/316/29 969/21/30
f 970/319/193 971/317/27 972/23/27
f 973/318/26 974/319/210 975/12/211
f 976/320/25 977/24/26 978/25/25
f 979/321/24 980/26/212 981/322/22
f 982/8/213 983/9/19 984/323/19
f 985/10/191 986/325/17 987/324/191
f 988/28/190 989/326/190 990/27/17
f 991/328/13 992/29/12 993/298/12
f 994/298/12 995/29/12 996/299/10
f 997/327/15 998/5/15 999/328/14
f 1000/329/214 1001/330/214 1002/331/214
f 1002/331/214 1003/330/214 1004/92/214
f 1005/332/90 1006/333/90 1007/334/90
f 1008/334/90 1009/333/90 1010/335/90
f 1011/331/215 1012/92/215 1013/336/215
f 1014/336/215 1015/92/215 1016/337/215
f 1017/329/216 1018/330/216 1019/331/216
f 1020/331/216 1021/330/216 1022/92/216
f 1023/338/103 1024/339/103 1025/340/103
f 1026/340/103 1027/339/103 1028/341/103
f 1029/331/217 1030/92/217 1031/336/217
f 1032/336/217 1033/92/217 1034/337/217
f 1035/13/1 1036/11/1 1037/1/1
f 1038/4/1 1039/1/1 1040/7/1
f 1041/1/1 1042/11/1 1043/7/1
f 1044/13/1 1045/1/1 1046/3/1
