# Blender 4.4.3
# www.blender.org
mtllib Mesh_7.001.mtl
o Mesh_7.001
v 0.011672 0.009796 0.000147
v 0.011670 0.009771 0.000147
v 0.011660 0.009753 0.000147
v 0.011657 0.009754 0.000148
v 0.011663 0.009799 0.000149
v 0.011668 0.009797 0.000148
v 0.011653 0.009755 0.000149
v 0.011659 0.009800 0.000151
v 0.011650 0.009756 0.000150
v 0.011643 0.009758 0.000153
v 0.011646 0.009757 0.000151
v 0.011654 0.009801 0.000153
v 0.011640 0.009759 0.000154
v 0.011650 0.009802 0.000156
v 0.011637 0.009759 0.000156
v 0.011647 0.009804 0.000159
v 0.011634 0.009760 0.000159
v 0.011632 0.009761 0.000161
v 0.011643 0.009805 0.000162
v 0.011629 0.009762 0.000164
v 0.011640 0.009805 0.000165
v 0.011627 0.009762 0.000166
v 0.011637 0.009806 0.000169
v 0.011625 0.009763 0.000169
v 0.011635 0.009807 0.000174
v 0.011623 0.009764 0.000173
v 0.011621 0.009764 0.000176
v 0.011620 0.009764 0.000179
v 0.011633 0.009808 0.000178
v 0.011619 0.009765 0.000183
v 0.011631 0.009808 0.000183
v 0.011618 0.009765 0.000186
v 0.011617 0.009765 0.000190
v 0.011630 0.009808 0.000187
v 0.011617 0.009765 0.000193
v 0.011629 0.009809 0.000192
v 0.011629 0.009809 0.000197
v 0.011617 0.009765 0.000197
v 0.011629 0.009809 0.000202
v 0.011617 0.009765 0.000202
v 0.011630 0.009808 0.000207
v 0.011618 0.009765 0.000207
v 0.011631 0.009808 0.000212
v 0.011619 0.009765 0.000212
v 0.011633 0.009808 0.000216
v 0.011620 0.009764 0.000216
v 0.011635 0.009807 0.000221
v 0.011637 0.009806 0.000225
v 0.011622 0.009764 0.000221
v 0.011640 0.009805 0.000229
v 0.011625 0.009763 0.000225
v 0.011628 0.009762 0.000229
v 0.011631 0.009761 0.000233
v 0.011643 0.009805 0.000233
v 0.011677 0.009795 0.000147
v 0.011660 0.009753 0.000247
v 0.011670 0.009771 0.000247
v 0.011672 0.009796 0.000247
v 0.011677 0.009795 0.000247
v 0.011655 0.009754 0.000246
v 0.011668 0.009797 0.000246
v 0.011651 0.009756 0.000245
v 0.011663 0.009799 0.000245
v 0.011646 0.009757 0.000243
v 0.011659 0.009800 0.000243
v 0.011642 0.009758 0.000241
v 0.011654 0.009801 0.000241
v 0.011638 0.009759 0.000239
v 0.011650 0.009802 0.000239
v 0.011634 0.009760 0.000236
v 0.011647 0.009804 0.000236
v 0.011664 0.009752 0.000147
v 0.011667 0.009751 0.000147
v 0.011675 0.009769 0.000147
v 0.011671 0.009750 0.000148
v 0.011680 0.009768 0.000148
v 0.011674 0.009749 0.000148
v 0.011678 0.009748 0.000149
v 0.011684 0.009767 0.000149
v 0.011681 0.009747 0.000150
v 0.011689 0.009765 0.000151
v 0.011684 0.009746 0.000151
v 0.011693 0.009764 0.000153
v 0.011687 0.009745 0.000153
v 0.011690 0.009744 0.000155
v 0.011697 0.009763 0.000156
v 0.011693 0.009743 0.000157
v 0.011701 0.009762 0.000159
v 0.011696 0.009743 0.000159
v 0.011704 0.009761 0.000162
v 0.011699 0.009742 0.000162
v 0.011703 0.009740 0.000167
v 0.011707 0.009760 0.000165
v 0.011710 0.009759 0.000169
v 0.011710 0.009739 0.000180
v 0.011716 0.009758 0.000183
v 0.011711 0.009738 0.000184
v 0.011715 0.009758 0.000178
v 0.011713 0.009738 0.000195
v 0.011712 0.009738 0.000191
v 0.011718 0.009757 0.000192
v 0.011717 0.009757 0.000187
v 0.011713 0.009738 0.000198
v 0.011718 0.009757 0.000197
v 0.011718 0.009757 0.000202
v 0.011713 0.009738 0.000202
v 0.011712 0.009738 0.000206
v 0.011717 0.009757 0.000207
v 0.011711 0.009738 0.000209
v 0.011716 0.009758 0.000212
v 0.011710 0.009738 0.000213
v 0.011715 0.009758 0.000216
v 0.011708 0.009739 0.000220
v 0.011709 0.009739 0.000216
v 0.011713 0.009759 0.000221
v 0.011710 0.009759 0.000225
v 0.011706 0.009740 0.000223
v 0.011704 0.009740 0.000226
v 0.011707 0.009760 0.000229
v 0.011700 0.009742 0.000232
v 0.011702 0.009741 0.000229
v 0.011704 0.009761 0.000233
v 0.011701 0.009762 0.000236
v 0.011697 0.009742 0.000234
v 0.011694 0.009743 0.000237
v 0.011697 0.009763 0.000239
v 0.011691 0.009744 0.000239
v 0.011688 0.009745 0.000241
v 0.011693 0.009764 0.000241
v 0.011685 0.009746 0.000242
v 0.011689 0.009765 0.000243
v 0.011682 0.009747 0.000244
v 0.011684 0.009767 0.000245
v 0.011665 0.009752 0.000247
v 0.011668 0.009751 0.000247
v 0.011675 0.009769 0.000247
v 0.011672 0.009750 0.000247
v 0.011680 0.009768 0.000246
v 0.011675 0.009749 0.000246
v 0.011679 0.009748 0.000245
v 0.011712 0.009738 0.000187
v 0.011709 0.009739 0.000177
v 0.011713 0.009759 0.000174
v 0.011707 0.009739 0.000174
v 0.011705 0.009740 0.000170
v 0.011701 0.009741 0.000165
v 0.011766 0.009743 0.000247
v 0.011773 0.009767 0.000247
v 0.011718 0.009757 0.000247
v 0.011694 0.009764 0.000247
v 0.011682 0.009767 0.000247
v 0.011676 0.009769 0.000247
v 0.011778 0.009766 0.000247
v 0.011771 0.009742 0.000247
v 0.011783 0.009765 0.000246
v 0.011776 0.009741 0.000246
v 0.011787 0.009763 0.000245
v 0.011780 0.009739 0.000245
v 0.011792 0.009762 0.000243
v 0.011796 0.009761 0.000241
v 0.011785 0.009738 0.000243
v 0.011789 0.009737 0.000241
v 0.011800 0.009760 0.000239
v 0.011793 0.009736 0.000239
v 0.011804 0.009758 0.000236
v 0.011797 0.009734 0.000236
v 0.011807 0.009757 0.000233
v 0.011800 0.009733 0.000233
v 0.011810 0.009757 0.000229
v 0.011804 0.009733 0.000229
v 0.011806 0.009732 0.000225
v 0.011813 0.009756 0.000225
v 0.011809 0.009731 0.000221
v 0.011816 0.009755 0.000221
v 0.011811 0.009730 0.000216
v 0.011818 0.009754 0.000216
v 0.011812 0.009730 0.000212
v 0.011819 0.009754 0.000212
v 0.011814 0.009730 0.000207
v 0.011821 0.009754 0.000202
v 0.011820 0.009754 0.000207
v 0.011814 0.009729 0.000202
v 0.011821 0.009753 0.000197
v 0.011814 0.009729 0.000197
v 0.011821 0.009754 0.000192
v 0.011814 0.009729 0.000192
v 0.011820 0.009754 0.000187
v 0.011814 0.009730 0.000187
v 0.011819 0.009754 0.000183
v 0.011812 0.009730 0.000183
v 0.011818 0.009754 0.000178
v 0.011811 0.009730 0.000178
v 0.011816 0.009755 0.000174
v 0.011809 0.009731 0.000174
v 0.011813 0.009756 0.000169
v 0.011806 0.009732 0.000169
v 0.011804 0.009733 0.000165
v 0.011810 0.009757 0.000165
v 0.011800 0.009733 0.000162
v 0.011807 0.009757 0.000162
v 0.011797 0.009734 0.000159
v 0.011804 0.009758 0.000159
v 0.011793 0.009736 0.000156
v 0.011800 0.009760 0.000156
v 0.011789 0.009737 0.000153
v 0.011796 0.009761 0.000153
v 0.011792 0.009762 0.000151
v 0.011785 0.009738 0.000151
v 0.011787 0.009763 0.000149
v 0.011766 0.009743 0.000147
v 0.011773 0.009767 0.000147
v 0.011771 0.009742 0.000147
v 0.011778 0.009766 0.000147
v 0.011776 0.009741 0.000148
v 0.011783 0.009765 0.000148
v 0.011780 0.009739 0.000149
v 0.011676 0.009769 0.000147
v 0.011718 0.009757 0.000147
v 0.011694 0.009764 0.000147
v 0.011682 0.009767 0.000147
v 0.011773 0.009767 0.000247
v 0.011773 0.009767 0.000147
v 0.011677 0.009795 0.000147
v 0.011773 0.009767 0.000247
v 0.011778 0.009766 0.000147
v 0.011773 0.009767 0.000147
v 0.011773 0.009767 0.000247
v 0.011783 0.009765 0.000148
v 0.011778 0.009766 0.000147
v 0.011773 0.009767 0.000247
v 0.011787 0.009763 0.000149
v 0.011783 0.009765 0.000148
v 0.011773 0.009767 0.000247
v 0.011792 0.009762 0.000151
v 0.011787 0.009763 0.000149
v 0.011773 0.009767 0.000247
v 0.011796 0.009761 0.000153
v 0.011792 0.009762 0.000151
v 0.011773 0.009767 0.000247
v 0.011800 0.009760 0.000156
v 0.011796 0.009761 0.000153
v 0.011773 0.009767 0.000247
v 0.011804 0.009758 0.000159
v 0.011800 0.009760 0.000156
v 0.011773 0.009767 0.000247
v 0.011807 0.009757 0.000162
v 0.011804 0.009758 0.000159
v 0.011773 0.009767 0.000247
v 0.011810 0.009757 0.000165
v 0.011807 0.009757 0.000162
v 0.011773 0.009767 0.000247
v 0.011813 0.009756 0.000169
v 0.011810 0.009757 0.000165
v 0.011818 0.009754 0.000178
v 0.011816 0.009755 0.000174
v 0.011773 0.009767 0.000247
v 0.011773 0.009767 0.000247
v 0.011816 0.009755 0.000174
v 0.011813 0.009756 0.000169
v 0.011819 0.009754 0.000183
v 0.011818 0.009754 0.000178
v 0.011773 0.009767 0.000247
v 0.011820 0.009754 0.000187
v 0.011819 0.009754 0.000183
v 0.011773 0.009767 0.000247
v 0.011821 0.009754 0.000192
v 0.011820 0.009754 0.000187
v 0.011773 0.009767 0.000247
v 0.011821 0.009753 0.000197
v 0.011821 0.009754 0.000192
v 0.011773 0.009767 0.000247
v 0.011821 0.009754 0.000202
v 0.011821 0.009753 0.000197
v 0.011773 0.009767 0.000247
v 0.011820 0.009754 0.000207
v 0.011821 0.009754 0.000202
v 0.011773 0.009767 0.000247
v 0.011820 0.009754 0.000207
v 0.011773 0.009767 0.000247
v 0.011819 0.009754 0.000212
v 0.011819 0.009754 0.000212
v 0.011773 0.009767 0.000247
v 0.011818 0.009754 0.000216
v 0.011818 0.009754 0.000216
v 0.011773 0.009767 0.000247
v 0.011816 0.009755 0.000221
v 0.011816 0.009755 0.000221
v 0.011773 0.009767 0.000247
v 0.011813 0.009756 0.000225
v 0.011813 0.009756 0.000225
v 0.011773 0.009767 0.000247
v 0.011810 0.009757 0.000229
v 0.011773 0.009767 0.000247
v 0.011804 0.009758 0.000236
v 0.011807 0.009757 0.000233
v 0.011773 0.009767 0.000247
v 0.011800 0.009760 0.000239
v 0.011804 0.009758 0.000236
v 0.011792 0.009762 0.000243
v 0.011796 0.009761 0.000241
v 0.011773 0.009767 0.000247
v 0.011773 0.009767 0.000247
v 0.011796 0.009761 0.000241
v 0.011800 0.009760 0.000239
v 0.011787 0.009763 0.000245
v 0.011792 0.009762 0.000243
v 0.011773 0.009767 0.000247
v 0.011783 0.009765 0.000246
v 0.011787 0.009763 0.000245
v 0.011773 0.009767 0.000247
v 0.011778 0.009766 0.000247
v 0.011783 0.009765 0.000246
v 0.011773 0.009767 0.000247
v 0.011773 0.009767 0.000247
v 0.011677 0.009795 0.000147
v 0.011677 0.009795 0.000247
v 0.011677 0.009795 0.000247
v 0.011677 0.009795 0.000147
v 0.011672 0.009796 0.000247
v 0.011677 0.009795 0.000147
v 0.011668 0.009797 0.000246
v 0.011672 0.009796 0.000247
v 0.011677 0.009795 0.000147
v 0.011663 0.009799 0.000245
v 0.011668 0.009797 0.000246
v 0.011677 0.009795 0.000147
v 0.011659 0.009800 0.000243
v 0.011663 0.009799 0.000245
v 0.011677 0.009795 0.000147
v 0.011654 0.009801 0.000241
v 0.011659 0.009800 0.000243
v 0.011677 0.009795 0.000147
v 0.011650 0.009802 0.000239
v 0.011654 0.009801 0.000241
v 0.011677 0.009795 0.000147
v 0.011647 0.009804 0.000236
v 0.011650 0.009802 0.000239
v 0.011677 0.009795 0.000147
v 0.011643 0.009805 0.000233
v 0.011647 0.009804 0.000236
v 0.011677 0.009795 0.000147
v 0.011640 0.009805 0.000229
v 0.011643 0.009805 0.000233
v 0.011677 0.009795 0.000147
v 0.011637 0.009806 0.000225
v 0.011640 0.009805 0.000229
v 0.011633 0.009808 0.000216
v 0.011635 0.009807 0.000221
v 0.011677 0.009795 0.000147
v 0.011677 0.009795 0.000147
v 0.011635 0.009807 0.000221
v 0.011637 0.009806 0.000225
v 0.011631 0.009808 0.000212
v 0.011633 0.009808 0.000216
v 0.011677 0.009795 0.000147
v 0.011630 0.009808 0.000207
v 0.011631 0.009808 0.000212
v 0.011677 0.009795 0.000147
v 0.011629 0.009809 0.000202
v 0.011630 0.009808 0.000207
v 0.011677 0.009795 0.000147
v 0.011629 0.009809 0.000197
v 0.011629 0.009809 0.000202
v 0.011677 0.009795 0.000147
v 0.011629 0.009809 0.000192
v 0.011677 0.009795 0.000147
v 0.011630 0.009808 0.000187
v 0.011630 0.009808 0.000187
v 0.011677 0.009795 0.000147
v 0.011631 0.009808 0.000183
v 0.011677 0.009795 0.000147
v 0.011633 0.009808 0.000178
v 0.011631 0.009808 0.000183
v 0.011677 0.009795 0.000147
v 0.011635 0.009807 0.000174
v 0.011633 0.009808 0.000178
v 0.011677 0.009795 0.000147
v 0.011637 0.009806 0.000169
v 0.011635 0.009807 0.000174
v 0.011677 0.009795 0.000147
v 0.011640 0.009805 0.000165
v 0.011637 0.009806 0.000169
v 0.011677 0.009795 0.000147
v 0.011643 0.009805 0.000162
v 0.011640 0.009805 0.000165
v 0.011677 0.009795 0.000147
v 0.011647 0.009804 0.000159
v 0.011643 0.009805 0.000162
v 0.011677 0.009795 0.000147
v 0.011650 0.009802 0.000156
v 0.011647 0.009804 0.000159
v 0.011659 0.009800 0.000151
v 0.011654 0.009801 0.000153
v 0.011677 0.009795 0.000147
v 0.011677 0.009795 0.000147
v 0.011654 0.009801 0.000153
v 0.011650 0.009802 0.000156
v 0.011663 0.009799 0.000149
v 0.011659 0.009800 0.000151
v 0.011677 0.009795 0.000147
v 0.011668 0.009797 0.000148
v 0.011663 0.009799 0.000149
v 0.011677 0.009795 0.000147
v 0.011672 0.009796 0.000147
v 0.011668 0.009797 0.000148
v 0.011677 0.009795 0.000147
v 0.011810 0.009757 0.000229
v 0.011773 0.009767 0.000247
v 0.011807 0.009757 0.000233
v 0.011629 0.009809 0.000192
v 0.011629 0.009809 0.000197
v 0.011677 0.009795 0.000147
v 0.011676 0.009769 0.000247
v 0.011670 0.009771 0.000247
v 0.011675 0.009769 0.000247
v 0.011676 0.009769 0.000247
v 0.011675 0.009769 0.000247
v 0.011680 0.009768 0.000246
v 0.011694 0.009764 0.000247
v 0.011682 0.009767 0.000247
v 0.011684 0.009767 0.000245
v 0.011682 0.009767 0.000247
v 0.011680 0.009768 0.000246
v 0.011684 0.009767 0.000245
v 0.011680 0.009768 0.000148
v 0.011675 0.009769 0.000147
v 0.011676 0.009769 0.000147
v 0.011684 0.009767 0.000149
v 0.011680 0.009768 0.000148
v 0.011682 0.009767 0.000147
v 0.011684 0.009767 0.000149
v 0.011682 0.009767 0.000147
v 0.011694 0.009764 0.000147
v 0.011682 0.009767 0.000247
v 0.011676 0.009769 0.000247
v 0.011680 0.009768 0.000246
v 0.011718 0.009757 0.000247
v 0.011694 0.009764 0.000247
v 0.011701 0.009762 0.000236
v 0.011689 0.009765 0.000243
v 0.011693 0.009764 0.000241
v 0.011694 0.009764 0.000247
v 0.011689 0.009765 0.000243
v 0.011694 0.009764 0.000247
v 0.011684 0.009767 0.000245
v 0.011693 0.009764 0.000241
v 0.011697 0.009763 0.000239
v 0.011694 0.009764 0.000247
v 0.011697 0.009763 0.000239
v 0.011701 0.009762 0.000236
v 0.011694 0.009764 0.000247
v 0.011701 0.009762 0.000236
v 0.011704 0.009761 0.000233
v 0.011718 0.009757 0.000247
v 0.011704 0.009761 0.000233
v 0.011707 0.009760 0.000229
v 0.011718 0.009757 0.000247
v 0.011707 0.009760 0.000229
v 0.011710 0.009759 0.000225
v 0.011718 0.009757 0.000247
v 0.011710 0.009759 0.000225
v 0.011713 0.009759 0.000221
v 0.011718 0.009757 0.000247
v 0.011713 0.009759 0.000221
v 0.011715 0.009758 0.000216
v 0.011718 0.009757 0.000247
v 0.011715 0.009758 0.000216
v 0.011716 0.009758 0.000212
v 0.011766 0.009743 0.000247
v 0.011716 0.009758 0.000212
v 0.011717 0.009757 0.000207
v 0.011766 0.009743 0.000247
v 0.011717 0.009757 0.000207
v 0.011718 0.009757 0.000202
v 0.011766 0.009743 0.000247
v 0.011718 0.009757 0.000202
v 0.011718 0.009757 0.000197
v 0.011766 0.009743 0.000247
v 0.011766 0.009743 0.000147
v 0.011766 0.009743 0.000247
v 0.011718 0.009757 0.000197
v 0.011766 0.009743 0.000147
v 0.011718 0.009757 0.000197
v 0.011718 0.009757 0.000192
v 0.011766 0.009743 0.000147
v 0.011718 0.009757 0.000192
v 0.011717 0.009757 0.000187
v 0.011766 0.009743 0.000147
v 0.011717 0.009757 0.000187
v 0.011716 0.009758 0.000183
v 0.011766 0.009743 0.000147
v 0.011716 0.009758 0.000183
v 0.011715 0.009758 0.000178
v 0.011766 0.009743 0.000147
v 0.011715 0.009758 0.000178
v 0.011718 0.009757 0.000147
v 0.011707 0.009760 0.000165
v 0.011718 0.009757 0.000147
v 0.011710 0.009759 0.000169
v 0.011718 0.009757 0.000147
v 0.011713 0.009759 0.000174
v 0.011710 0.009759 0.000169
v 0.011704 0.009761 0.000162
v 0.011718 0.009757 0.000147
v 0.011707 0.009760 0.000165
v 0.011701 0.009762 0.000159
v 0.011718 0.009757 0.000147
v 0.011704 0.009761 0.000162
v 0.011694 0.009764 0.000147
v 0.011718 0.009757 0.000147
v 0.011701 0.009762 0.000159
v 0.011694 0.009764 0.000147
v 0.011701 0.009762 0.000159
v 0.011697 0.009763 0.000156
v 0.011697 0.009763 0.000156
v 0.011693 0.009764 0.000153
v 0.011694 0.009764 0.000147
v 0.011693 0.009764 0.000153
v 0.011689 0.009765 0.000151
v 0.011694 0.009764 0.000147
v 0.011689 0.009765 0.000151
v 0.011684 0.009767 0.000149
v 0.011694 0.009764 0.000147
v 0.011766 0.009743 0.000247
v 0.011718 0.009757 0.000247
v 0.011715 0.009758 0.000216
v 0.011670 0.009771 0.000147
v 0.011676 0.009769 0.000147
v 0.011675 0.009769 0.000147
v 0.011682 0.009767 0.000147
v 0.011680 0.009768 0.000148
v 0.011676 0.009769 0.000147
v 0.011766 0.009743 0.000147
v 0.011771 0.009742 0.000147
v 0.011766 0.009743 0.000247
v 0.011766 0.009743 0.000247
v 0.011771 0.009742 0.000147
v 0.011776 0.009741 0.000148
v 0.011766 0.009743 0.000247
v 0.011776 0.009741 0.000148
v 0.011780 0.009739 0.000149
v 0.011766 0.009743 0.000247
v 0.011780 0.009739 0.000149
v 0.011785 0.009738 0.000151
v 0.011766 0.009743 0.000247
v 0.011785 0.009738 0.000151
v 0.011789 0.009737 0.000153
v 0.011766 0.009743 0.000247
v 0.011789 0.009737 0.000153
v 0.011793 0.009736 0.000156
v 0.011766 0.009743 0.000247
v 0.011793 0.009736 0.000156
v 0.011797 0.009734 0.000159
v 0.011766 0.009743 0.000247
v 0.011797 0.009734 0.000159
v 0.011800 0.009733 0.000162
v 0.011766 0.009743 0.000247
v 0.011800 0.009733 0.000162
v 0.011804 0.009733 0.000165
v 0.011809 0.009731 0.000174
v 0.011766 0.009743 0.000247
v 0.011806 0.009732 0.000169
v 0.011766 0.009743 0.000247
v 0.011804 0.009733 0.000165
v 0.011806 0.009732 0.000169
v 0.011811 0.009730 0.000178
v 0.011766 0.009743 0.000247
v 0.011809 0.009731 0.000174
v 0.011812 0.009730 0.000183
v 0.011766 0.009743 0.000247
v 0.011811 0.009730 0.000178
v 0.011814 0.009730 0.000187
v 0.011766 0.009743 0.000247
v 0.011812 0.009730 0.000183
v 0.011814 0.009729 0.000192
v 0.011766 0.009743 0.000247
v 0.011814 0.009730 0.000187
v 0.011814 0.009729 0.000197
v 0.011766 0.009743 0.000247
v 0.011814 0.009729 0.000192
v 0.011814 0.009729 0.000202
v 0.011766 0.009743 0.000247
v 0.011814 0.009729 0.000197
v 0.011814 0.009729 0.000202
v 0.011814 0.009730 0.000207
v 0.011766 0.009743 0.000247
v 0.011814 0.009730 0.000207
v 0.011812 0.009730 0.000212
v 0.011766 0.009743 0.000247
v 0.011766 0.009743 0.000247
v 0.011811 0.009730 0.000216
v 0.011809 0.009731 0.000221
v 0.011766 0.009743 0.000247
v 0.011809 0.009731 0.000221
v 0.011806 0.009732 0.000225
v 0.011766 0.009743 0.000247
v 0.011806 0.009732 0.000225
v 0.011804 0.009733 0.000229
v 0.011766 0.009743 0.000247
v 0.011804 0.009733 0.000229
v 0.011800 0.009733 0.000233
v 0.011766 0.009743 0.000247
v 0.011800 0.009733 0.000233
v 0.011797 0.009734 0.000236
v 0.011766 0.009743 0.000247
v 0.011797 0.009734 0.000236
v 0.011793 0.009736 0.000239
v 0.011785 0.009738 0.000243
v 0.011766 0.009743 0.000247
v 0.011789 0.009737 0.000241
v 0.011766 0.009743 0.000247
v 0.011793 0.009736 0.000239
v 0.011789 0.009737 0.000241
v 0.011780 0.009739 0.000245
v 0.011766 0.009743 0.000247
v 0.011785 0.009738 0.000243
v 0.011776 0.009741 0.000246
v 0.011766 0.009743 0.000247
v 0.011780 0.009739 0.000245
v 0.011771 0.009742 0.000247
v 0.011766 0.009743 0.000247
v 0.011776 0.009741 0.000246
v 0.011713 0.009759 0.000174
v 0.011718 0.009757 0.000147
v 0.011715 0.009758 0.000178
v 0.011811 0.009730 0.000216
v 0.011766 0.009743 0.000247
v 0.011812 0.009730 0.000212
v 0.011655 0.009754 0.000246
v 0.011665 0.009752 0.000247
v 0.011660 0.009753 0.000247
v 0.011651 0.009756 0.000245
v 0.011665 0.009752 0.000247
v 0.011655 0.009754 0.000246
v 0.011646 0.009757 0.000243
v 0.011665 0.009752 0.000247
v 0.011651 0.009756 0.000245
v 0.011642 0.009758 0.000241
v 0.011665 0.009752 0.000247
v 0.011646 0.009757 0.000243
v 0.011638 0.009759 0.000239
v 0.011665 0.009752 0.000247
v 0.011642 0.009758 0.000241
v 0.011634 0.009760 0.000236
v 0.011665 0.009752 0.000247
v 0.011638 0.009759 0.000239
v 0.011631 0.009761 0.000233
v 0.011665 0.009752 0.000247
v 0.011634 0.009760 0.000236
v 0.011628 0.009762 0.000229
v 0.011665 0.009752 0.000247
v 0.011631 0.009761 0.000233
v 0.011625 0.009763 0.000225
v 0.011665 0.009752 0.000247
v 0.011628 0.009762 0.000229
v 0.011622 0.009764 0.000221
v 0.011665 0.009752 0.000247
v 0.011625 0.009763 0.000225
v 0.011620 0.009764 0.000216
v 0.011665 0.009752 0.000247
v 0.011622 0.009764 0.000221
v 0.011619 0.009765 0.000212
v 0.011618 0.009765 0.000207
v 0.011665 0.009752 0.000247
v 0.011619 0.009765 0.000212
v 0.011665 0.009752 0.000247
v 0.011620 0.009764 0.000216
v 0.011618 0.009765 0.000207
v 0.011617 0.009765 0.000202
v 0.011665 0.009752 0.000247
v 0.011617 0.009765 0.000202
v 0.011617 0.009765 0.000197
v 0.011665 0.009752 0.000247
v 0.011617 0.009765 0.000197
v 0.011617 0.009765 0.000193
v 0.011665 0.009752 0.000247
v 0.011617 0.009765 0.000193
v 0.011617 0.009765 0.000190
v 0.011665 0.009752 0.000247
v 0.011665 0.009752 0.000247
v 0.011617 0.009765 0.000190
v 0.011618 0.009765 0.000186
v 0.011665 0.009752 0.000247
v 0.011618 0.009765 0.000186
v 0.011619 0.009765 0.000183
v 0.011665 0.009752 0.000247
v 0.011619 0.009765 0.000183
v 0.011620 0.009764 0.000179
v 0.011665 0.009752 0.000247
v 0.011620 0.009764 0.000179
v 0.011621 0.009764 0.000176
v 0.011665 0.009752 0.000247
v 0.011621 0.009764 0.000176
v 0.011623 0.009764 0.000173
v 0.011665 0.009752 0.000247
v 0.011623 0.009764 0.000173
v 0.011625 0.009763 0.000169
v 0.011665 0.009752 0.000247
v 0.011625 0.009763 0.000169
v 0.011627 0.009762 0.000166
v 0.011665 0.009752 0.000247
v 0.011627 0.009762 0.000166
v 0.011629 0.009762 0.000164
v 0.011665 0.009752 0.000247
v 0.011629 0.009762 0.000164
v 0.011632 0.009761 0.000161
v 0.011665 0.009752 0.000247
v 0.011632 0.009761 0.000161
v 0.011634 0.009760 0.000159
v 0.011665 0.009752 0.000247
v 0.011634 0.009760 0.000159
v 0.011637 0.009759 0.000156
v 0.011643 0.009758 0.000153
v 0.011665 0.009752 0.000247
v 0.011640 0.009759 0.000154
v 0.011665 0.009752 0.000247
v 0.011637 0.009759 0.000156
v 0.011640 0.009759 0.000154
v 0.011646 0.009757 0.000151
v 0.011665 0.009752 0.000247
v 0.011643 0.009758 0.000153
v 0.011650 0.009756 0.000150
v 0.011665 0.009752 0.000247
v 0.011646 0.009757 0.000151
v 0.011653 0.009755 0.000149
v 0.011665 0.009752 0.000247
v 0.011650 0.009756 0.000150
v 0.011657 0.009754 0.000148
v 0.011665 0.009752 0.000247
v 0.011653 0.009755 0.000149
v 0.011660 0.009753 0.000147
v 0.011665 0.009752 0.000247
v 0.011657 0.009754 0.000148
v 0.011664 0.009752 0.000147
v 0.011667 0.009751 0.000147
v 0.011665 0.009752 0.000247
v 0.011667 0.009751 0.000147
v 0.011671 0.009750 0.000148
v 0.011665 0.009752 0.000247
v 0.011665 0.009752 0.000247
v 0.011671 0.009750 0.000148
v 0.011674 0.009749 0.000148
v 0.011665 0.009752 0.000247
v 0.011674 0.009749 0.000148
v 0.011678 0.009748 0.000149
v 0.011665 0.009752 0.000247
v 0.011678 0.009748 0.000149
v 0.011681 0.009747 0.000150
v 0.011665 0.009752 0.000247
v 0.011681 0.009747 0.000150
v 0.011684 0.009746 0.000151
v 0.011665 0.009752 0.000247
v 0.011684 0.009746 0.000151
v 0.011687 0.009745 0.000153
v 0.011665 0.009752 0.000247
v 0.011687 0.009745 0.000153
v 0.011690 0.009744 0.000155
v 0.011665 0.009752 0.000247
v 0.011690 0.009744 0.000155
v 0.011693 0.009743 0.000157
v 0.011665 0.009752 0.000247
v 0.011693 0.009743 0.000157
v 0.011696 0.009743 0.000159
v 0.011665 0.009752 0.000247
v 0.011696 0.009743 0.000159
v 0.011699 0.009742 0.000162
v 0.011665 0.009752 0.000247
v 0.011699 0.009742 0.000162
v 0.011701 0.009741 0.000165
v 0.011665 0.009752 0.000247
v 0.011701 0.009741 0.000165
v 0.011703 0.009740 0.000167
v 0.011665 0.009752 0.000247
v 0.011703 0.009740 0.000167
v 0.011705 0.009740 0.000170
v 0.011709 0.009739 0.000177
v 0.011665 0.009752 0.000247
v 0.011707 0.009739 0.000174
v 0.011665 0.009752 0.000247
v 0.011705 0.009740 0.000170
v 0.011707 0.009739 0.000174
v 0.011710 0.009739 0.000180
v 0.011665 0.009752 0.000247
v 0.011709 0.009739 0.000177
v 0.011711 0.009738 0.000184
v 0.011665 0.009752 0.000247
v 0.011710 0.009739 0.000180
v 0.011712 0.009738 0.000187
v 0.011665 0.009752 0.000247
v 0.011711 0.009738 0.000184
v 0.011712 0.009738 0.000191
v 0.011665 0.009752 0.000247
v 0.011712 0.009738 0.000187
v 0.011713 0.009738 0.000195
v 0.011665 0.009752 0.000247
v 0.011712 0.009738 0.000191
v 0.011713 0.009738 0.000198
v 0.011665 0.009752 0.000247
v 0.011713 0.009738 0.000195
v 0.011713 0.009738 0.000202
v 0.011665 0.009752 0.000247
v 0.011713 0.009738 0.000198
v 0.011713 0.009738 0.000202
v 0.011712 0.009738 0.000206
v 0.011665 0.009752 0.000247
v 0.011712 0.009738 0.000206
v 0.011711 0.009738 0.000209
v 0.011665 0.009752 0.000247
v 0.011711 0.009738 0.000209
v 0.011710 0.009738 0.000213
v 0.011665 0.009752 0.000247
v 0.011710 0.009738 0.000213
v 0.011709 0.009739 0.000216
v 0.011665 0.009752 0.000247
v 0.011709 0.009739 0.000216
v 0.011708 0.009739 0.000220
v 0.011665 0.009752 0.000247
v 0.011708 0.009739 0.000220
v 0.011706 0.009740 0.000223
v 0.011665 0.009752 0.000247
v 0.011706 0.009740 0.000223
v 0.011704 0.009740 0.000226
v 0.011665 0.009752 0.000247
v 0.011704 0.009740 0.000226
v 0.011702 0.009741 0.000229
v 0.011665 0.009752 0.000247
v 0.011702 0.009741 0.000229
v 0.011700 0.009742 0.000232
v 0.011665 0.009752 0.000247
v 0.011700 0.009742 0.000232
v 0.011697 0.009742 0.000234
v 0.011665 0.009752 0.000247
v 0.011697 0.009742 0.000234
v 0.011694 0.009743 0.000237
v 0.011665 0.009752 0.000247
v 0.011665 0.009752 0.000247
v 0.011691 0.009744 0.000239
v 0.011688 0.009745 0.000241
v 0.011694 0.009743 0.000237
v 0.011691 0.009744 0.000239
v 0.011665 0.009752 0.000247
v 0.011665 0.009752 0.000247
v 0.011688 0.009745 0.000241
v 0.011685 0.009746 0.000242
v 0.011665 0.009752 0.000247
v 0.011685 0.009746 0.000242
v 0.011682 0.009747 0.000244
v 0.011665 0.009752 0.000247
v 0.011682 0.009747 0.000244
v 0.011679 0.009748 0.000245
v 0.011665 0.009752 0.000247
v 0.011679 0.009748 0.000245
v 0.011675 0.009749 0.000246
v 0.011665 0.009752 0.000247
v 0.011675 0.009749 0.000246
v 0.011672 0.009750 0.000247
v 0.011665 0.009752 0.000247
v 0.011660 0.009753 0.000147
v 0.011664 0.009752 0.000147
v 0.011668 0.009751 0.000247
v 0.011665 0.009752 0.000247
v 0.011672 0.009750 0.000247
vn -0.0940 0.0272 -0.9952
vn -0.0000 -0.0000 -1.0000
vn -0.0942 0.0270 -0.9952
vn -0.1643 0.0471 -0.9853
vn -0.2790 0.0801 -0.9569
vn -0.1875 0.0539 -0.9808
vn -0.2336 0.0670 -0.9700
vn -0.3679 0.1055 -0.9239
vn -0.3015 0.0864 -0.9495
vn -0.4321 0.1236 -0.8933
vn -0.4531 0.1300 -0.8819
vn -0.4944 0.1411 -0.8577
vn -0.5340 0.1533 -0.8315
vn -0.5538 0.1585 -0.8174
vn -0.6098 0.1749 -0.7730
vn -0.6628 0.1897 -0.7244
vn -0.6797 0.1950 -0.7071
vn -0.7123 0.2041 -0.6716
vn -0.7431 0.2131 -0.6344
vn -0.7580 0.2171 -0.6151
vn -0.7993 0.2292 -0.5556
vn -0.8477 0.2431 -0.4714
vn -0.8364 0.2395 -0.4931
vn -0.8690 0.2492 -0.4276
vn -0.8969 0.2572 -0.3598
vn -0.8881 0.2547 -0.3827
vn -0.9199 0.2638 -0.2903
vn -0.9198 0.2639 -0.2903
vn -0.9379 0.2686 -0.2193
vn -0.9509 0.2726 -0.1467
vn -0.9428 0.2704 -0.1951
vn -0.9587 0.2749 -0.0736
vn -0.9566 0.2744 -0.0980
vn -0.9613 0.2756 -0.0000
vn -0.9566 0.2743 0.0980
vn -0.9428 0.2703 0.1951
vn -0.9199 0.2638 0.2903
vn -0.8881 0.2547 0.3827
vn -0.8478 0.2431 0.4714
vn -0.7993 0.2292 0.5556
vn -0.7431 0.2131 0.6344
vn -0.7992 0.2292 0.5556
vn -0.6797 0.1949 0.7071
vn -0.0942 0.0270 0.9952
vn -0.0000 -0.0000 1.0000
vn -0.1875 0.0538 0.9808
vn -0.2790 0.0800 0.9570
vn -0.2790 0.0800 0.9569
vn -0.3679 0.1055 0.9239
vn -0.4531 0.1299 0.8819
vn -0.5340 0.1531 0.8315
vn -0.5340 0.1532 0.8315
vn -0.6098 0.1749 0.7730
vn -0.0236 0.0068 -0.9997
vn 0.0471 -0.0136 -0.9988
vn 0.0942 -0.0270 -0.9952
vn 0.1176 -0.0337 -0.9925
vn 0.1875 -0.0538 -0.9808
vn 0.2563 -0.0735 -0.9638
vn 0.2790 -0.0800 -0.9569
vn 0.3238 -0.0930 -0.9415
vn 0.3679 -0.1055 -0.9239
vn 0.3896 -0.1118 -0.9142
vn 0.4531 -0.1299 -0.8819
vn 0.5142 -0.1475 -0.8449
vn 0.5341 -0.1531 -0.8315
vn 0.5726 -0.1643 -0.8032
vn 0.6098 -0.1749 -0.7730
vn 0.6279 -0.1800 -0.7572
vn 0.6797 -0.1949 -0.7071
vn 0.7721 -0.2214 -0.5957
vn 0.7430 -0.2131 -0.6344
vn 0.7992 -0.2292 -0.5556
vn 0.9050 -0.2596 -0.3369
vn 0.9199 -0.2638 -0.2903
vn 0.9264 -0.2657 -0.2667
vn 0.8881 -0.2546 -0.3827
vn 0.9601 -0.2754 -0.0491
vn 0.9540 -0.2735 -0.1224
vn 0.9566 -0.2743 -0.0980
vn 0.9428 -0.2703 -0.1951
vn 0.9610 -0.2756 0.0246
vn 0.9613 -0.2756 -0.0000
vn 0.9566 -0.2743 0.0980
vn 0.9471 -0.2716 0.1709
vn 0.9428 -0.2703 0.1951
vn 0.9324 -0.2675 0.2430
vn 0.9199 -0.2638 0.2903
vn 0.9127 -0.2618 0.3137
vn 0.8881 -0.2547 0.3827
vn 0.8586 -0.2463 0.4495
vn 0.8478 -0.2431 0.4714
vn 0.7992 -0.2292 0.5556
vn 0.8245 -0.2365 0.5141
vn 0.7859 -0.2254 0.5758
vn 0.7431 -0.2131 0.6344
vn 0.6962 -0.1998 0.6894
vn 0.6797 -0.1949 0.7071
vn 0.6098 -0.1749 0.7730
vn 0.6455 -0.1852 0.7410
vn 0.5913 -0.1697 0.7884
vn 0.5340 -0.1531 0.8315
vn 0.4738 -0.1359 0.8701
vn 0.4531 -0.1299 0.8819
vn 0.4110 -0.1178 0.9040
vn 0.3679 -0.1055 0.9239
vn 0.3459 -0.0992 0.9330
vn 0.2791 -0.0800 0.9569
vn 0.0707 -0.0203 0.9973
vn 0.0942 -0.0270 0.9952
vn 0.1410 -0.0404 0.9892
vn 0.1875 -0.0538 0.9808
vn 0.2106 -0.0604 0.9757
vn 0.2790 -0.0800 0.9570
vn 0.8788 -0.2520 -0.4053
vn 0.8478 -0.2430 -0.4714
vn 0.8478 -0.2431 -0.4714
vn 0.8121 -0.2329 -0.5350
vn 0.7278 -0.2087 -0.6532
vn 0.0942 -0.0269 0.9952
vn 0.2790 -0.0800 0.9569
vn 0.7993 -0.2292 0.5556
vn 0.8883 -0.2539 0.3826
vn 0.9199 -0.2638 -0.2902
vn 0.8881 -0.2547 -0.3827
vn 0.8881 -0.2546 -0.3826
vn 0.7993 -0.2292 -0.5556
vn 0.7431 -0.2131 -0.6344
vn 0.5340 -0.1531 -0.8315
vn 0.2756 0.9613 -0.0000
vn 0.2755 0.9613 -0.0000
vn 0.2756 0.9613 0.0001
vn 0.2757 0.9613 -0.0000
vn 0.2756 0.9613 -0.0001
vn -0.2756 -0.9613 -0.0000
vn -0.2757 -0.9612 -0.0000
vn -0.2755 -0.9613 -0.0001
vn -0.2756 -0.9613 -0.0001
vn -0.2757 -0.9613 -0.0000
vn -0.2756 -0.9613 0.0001
vn -0.2755 -0.9613 -0.0000
vn -0.2755 -0.9613 0.0003
vn -0.2757 -0.9613 0.0001
vt 0.049009 0.250000
vt 0.000000 0.000000
vt 0.049009 -0.200000
vt 0.085481 -0.200000
vt 0.145142 0.250000
vt 0.097545 0.250000
vt 0.121490 -0.200000
vt 0.191342 0.250000
vt 0.156841 -0.200000
vt 0.224806 -0.200000
vt 0.191342 -0.200000
vt 0.235698 0.250000
vt 0.257051 -0.200000
vt 0.277785 0.250000
vt 0.287904 -0.200000
vt 0.317197 0.250000
vt 0.317197 -0.200000
vt 0.344770 -0.200000
vt 0.353553 0.250000
vt -0.250000 -0.353553
vt 0.200000 -0.335779
vt -0.250000 -0.317197
vt 0.200000 -0.307616
vt -0.250000 -0.277785
vt 0.200000 -0.277785
vt -0.250000 -0.235698
vt 0.200000 -0.246449
vt 0.200000 -0.213778
vt 0.200000 -0.179948
vt -0.250000 -0.191342
vt 0.200000 -0.145142
vt -0.250000 -0.145142
vt 0.200000 -0.109551
vt 0.200000 -0.073365
vt -0.250000 -0.097545
vt 0.200000 -0.036782
vt -0.250000 -0.049009
vt -0.250000 0.000000
vt 0.200000 0.000000
vt -0.250000 0.049009
vt 0.200000 0.049009
vt -0.250000 0.097545
vt 0.200000 0.097545
vt -0.250000 0.145142
vt 0.200000 0.145142
vt -0.250000 0.191342
vt 0.200000 0.191342
vt -0.250000 0.235698
vt -0.250000 0.277785
vt 0.200000 0.235698
vt -0.250000 0.317197
vt 0.200000 0.277785
vt 0.200000 0.317197
vt 0.200000 0.353553
vt -0.250000 0.353553
vt 0.000000 0.250000
vt -0.049009 -0.200000
vt -0.049009 0.250000
vt -0.097545 -0.200000
vt -0.097545 0.250000
vt -0.145142 -0.200000
vt -0.145142 0.250000
vt -0.191342 -0.200000
vt -0.191342 0.250000
vt -0.235698 -0.200000
vt -0.235698 0.250000
vt -0.277785 -0.200000
vt -0.277785 0.250000
vt -0.317197 -0.200000
vt -0.317197 0.250000
vt -0.353553 -0.200000
vt -0.353553 0.250000
vt 0.200000 -0.362124
vt 0.012271 -0.200000
vt -0.024534 -0.200000
vt -0.049009 0.000000
vt -0.061205 -0.200000
vt -0.097545 0.000000
vt -0.133356 -0.200000
vt -0.145142 0.000000
vt -0.168445 -0.200000
vt -0.191342 0.000000
vt -0.202621 -0.200000
vt -0.235698 0.000000
vt -0.267499 -0.200000
vt -0.277785 0.000000
vt -0.297850 -0.200000
vt -0.317197 0.000000
vt -0.326586 -0.200000
vt -0.353553 0.000000
vt -0.200000 -0.297850
vt 0.000000 -0.317197
vt 0.000000 -0.277785
vt -0.200000 -0.168445
vt 0.000000 -0.145142
vt -0.200000 -0.133356
vt 0.000000 -0.191342
vt -0.200000 -0.024534
vt -0.200000 -0.061205
vt 0.000000 -0.049009
vt 0.000000 -0.097545
vt -0.200000 0.012271
vt 0.000000 0.049009
vt -0.200000 0.049009
vt -0.200000 0.085481
vt 0.000000 0.097545
vt -0.200000 0.121490
vt 0.000000 0.145142
vt -0.200000 0.156841
vt 0.000000 0.191342
vt -0.200000 0.224806
vt -0.200000 0.191342
vt 0.000000 0.235698
vt 0.000000 0.277785
vt -0.200000 0.257051
vt -0.200000 0.287904
vt 0.000000 0.317197
vt -0.200000 0.344770
vt -0.200000 0.317197
vt 0.000000 0.353553
vt 0.353553 0.000000
vt 0.317197 0.000000
vt 0.335779 -0.200000
vt 0.307616 -0.200000
vt 0.277785 0.000000
vt 0.277785 -0.200000
vt 0.246449 -0.200000
vt 0.235698 0.000000
vt 0.213778 -0.200000
vt 0.191342 0.000000
vt 0.179948 -0.200000
vt 0.145142 0.000000
vt 0.000000 -0.200000
vt 0.036782 -0.200000
vt 0.049009 0.000000
vt 0.073365 -0.200000
vt 0.097545 0.000000
vt 0.109551 -0.200000
vt 0.145142 -0.200000
vt 0.362124 -0.200000
vt -0.200000 -0.097545
vt -0.200000 -0.202621
vt 0.000000 -0.235698
vt -0.200000 -0.235698
vt -0.200000 -0.267499
vt -0.200000 -0.326586
vt 0.000000 -0.353553
vt -0.200000 -0.353553
vt 1.000000 0.000000
vt 1.000000 0.250000
vt 0.500000 0.000000
vt 0.250000 0.000000
vt 0.125000 0.000000
vt 0.062500 0.000000
vt 1.049009 0.250000
vt 1.049009 0.000000
vt 1.097545 0.250000
vt 1.097545 0.000000
vt 1.145142 0.250000
vt 1.145142 0.000000
vt 1.191342 0.250000
vt 1.235698 0.250000
vt 1.191342 0.000000
vt 1.235698 0.000000
vt 1.277785 0.250000
vt 1.277785 0.000000
vt 1.317197 0.250000
vt 1.317197 0.000000
vt 1.353553 0.250000
vt 0.250000 0.353553
vt 0.250000 0.317197
vt 0.250000 0.277785
vt 0.250000 0.235698
vt 0.250000 0.191342
vt 0.250000 0.145142
vt 0.250000 0.049009
vt 0.250000 0.097545
vt 0.250000 -0.049009
vt 0.250000 -0.097545
vt 0.250000 -0.145142
vt 0.250000 -0.191342
vt 0.250000 -0.235698
vt 0.250000 -0.277785
vt 0.250000 -0.317197
vt 0.250000 -0.353553
vt -1.353553 0.000000
vt -1.317197 0.000000
vt -1.317197 0.250000
vt -1.277785 0.000000
vt -1.277785 0.250000
vt -1.235698 0.000000
vt -1.235698 0.250000
vt -1.191342 0.250000
vt -1.191342 0.000000
vt -1.145142 0.250000
vt -1.000000 0.000000
vt -1.000000 0.250000
vt -1.049009 0.000000
vt -1.049009 0.250000
vt -1.097545 0.000000
vt -1.097545 0.250000
vt -1.145142 0.000000
vt -1.353553 0.250000
vt 1.353553 0.000000
vt -0.062500 0.000000
vt -0.500000 0.000000
vt -0.125000 0.000000
vt -1.000000 0.500000
vt -1.000000 -0.500000
vt 0.000000 -0.500000
vt -1.049009 -0.497592
vt -1.097545 -0.490393
vt -1.145142 -0.478470
vt -1.191342 -0.461940
vt -1.235698 -0.440961
vt -1.277785 -0.415735
vt -1.317197 -0.386505
vt -1.353553 -0.353553
vt -1.386505 -0.317197
vt -1.415735 -0.277785
vt -1.461940 -0.191342
vt -1.440961 -0.235698
vt -1.478470 -0.145142
vt -1.490393 -0.097545
vt -1.497592 -0.049009
vt -1.500000 -0.000000
vt -1.497592 0.049009
vt -1.490393 0.097545
vt -1.478470 0.145142
vt -1.461940 0.191342
vt -1.440961 0.235698
vt -1.415735 0.277785
vt -1.386505 0.317197
vt -1.317197 0.386505
vt -1.353553 0.353553
vt -1.277785 0.415735
vt -1.191342 0.461940
vt -1.235698 0.440961
vt -1.145142 0.478470
vt -1.097545 0.490393
vt -1.049009 0.497592
vt -0.000000 0.500000
vt 0.049009 0.497592
vt 0.097545 0.490393
vt 0.145142 0.478470
vt 0.191342 0.461940
vt 0.235698 0.440961
vt 0.277785 0.415735
vt 0.317197 0.386505
vt 0.353553 0.353553
vt 0.386505 0.317197
vt 0.415735 0.277785
vt 0.461940 0.191342
vt 0.440961 0.235698
vt 0.478470 0.145142
vt 0.490393 0.097545
vt 0.497592 0.049009
vt 0.497592 -0.049009
vt 0.490393 -0.097545
vt 0.478470 -0.145142
vt 0.461940 -0.191342
vt 0.440961 -0.235698
vt 0.415735 -0.277785
vt 0.386505 -0.317197
vt 0.353553 -0.353553
vt 0.317197 -0.386505
vt 0.277785 -0.415735
vt 0.191342 -0.461940
vt 0.235698 -0.440961
vt 0.145142 -0.478470
vt 0.097545 -0.490393
vt 0.049009 -0.497592
vt 0.062500 0.500000
vt 0.250000 0.500000
vt 0.125000 0.500000
vt 0.062500 -0.500000
vt 0.125000 -0.500000
vt 0.250000 -0.500000
vt 0.500000 0.500000
vt 1.000000 0.500000
vt 1.000000 -0.500000
vt 0.500000 -0.500000
vt 1.049009 -0.497592
vt 1.097545 -0.490393
vt 1.145142 -0.478470
vt 1.191342 -0.461940
vt 1.235698 -0.440961
vt 1.277785 -0.415735
vt 1.317197 -0.386505
vt 1.353553 -0.353553
vt 1.386505 -0.317197
vt 1.440961 -0.235698
vt 1.415735 -0.277785
vt 1.461940 -0.191342
vt 1.478470 -0.145142
vt 1.490393 -0.097545
vt 1.497592 -0.049009
vt 1.500000 -0.000000
vt 1.497592 0.049009
vt 1.490393 0.097545
vt 1.478470 0.145142
vt 1.461940 0.191342
vt 1.440961 0.235698
vt 1.415735 0.277785
vt 1.386505 0.317197
vt 1.353553 0.353553
vt 1.317197 0.386505
vt 1.277785 0.415735
vt 1.191342 0.461940
vt 1.235698 0.440961
vt 1.145142 0.478470
vt 1.097545 0.490393
vt 1.049009 0.497592
vt -0.097545 0.490393
vt -0.049009 0.497592
vt -0.145142 0.478470
vt -0.191342 0.461940
vt -0.235698 0.440961
vt -0.277785 0.415735
vt -0.317197 0.386505
vt -0.353553 0.353553
vt -0.386505 0.317197
vt -0.415735 0.277785
vt -0.440961 0.235698
vt -0.461940 0.191342
vt -0.478470 0.145142
vt -0.490393 0.097545
vt -0.497592 0.049009
vt -0.498645 -0.036782
vt -0.494588 -0.073365
vt -0.487851 -0.109551
vt -0.478470 -0.145142
vt -0.466496 -0.179948
vt -0.451995 -0.213778
vt -0.435043 -0.246449
vt -0.415735 -0.277785
vt -0.394173 -0.307616
vt -0.370476 -0.335779
vt -0.344770 -0.362124
vt -0.317197 -0.386505
vt -0.287904 -0.408792
vt -0.224806 -0.446612
vt -0.257051 -0.428864
vt -0.191342 -0.461940
vt -0.156841 -0.474764
vt -0.121490 -0.485016
vt -0.085481 -0.492639
vt -0.049009 -0.497592
vt -0.012271 -0.499849
vt 0.024534 -0.499398
vt 0.061205 -0.496240
vt 0.133356 -0.481888
vt 0.168445 -0.470772
vt 0.202621 -0.457105
vt 0.267499 -0.422427
vt 0.297850 -0.401604
vt 0.326586 -0.378604
vt 0.378604 -0.326586
vt 0.401604 -0.297850
vt 0.422427 -0.267499
vt 0.457105 -0.202621
vt 0.470772 -0.168445
vt 0.481888 -0.133356
vt 0.496240 -0.061205
vt 0.499398 -0.024534
vt 0.499849 0.012271
vt 0.492639 0.085481
vt 0.485016 0.121490
vt 0.474764 0.156841
vt 0.446612 0.224806
vt 0.428864 0.257051
vt 0.408792 0.287904
vt 0.362124 0.344770
vt 0.335779 0.370476
vt 0.307616 0.394173
vt 0.246449 0.435043
vt 0.213778 0.451995
vt 0.179948 0.466496
vt 0.109551 0.487851
vt 0.073365 0.494588
vt 0.036782 0.498645
s 1
usemtl Diffuse_51_51_51_100.049
f 1/1/1 2/2/2 3/3/3
f 4/4/4 1/1/1 3/3/3
f 5/5/5 6/6/6 7/7/7
f 8/8/8 5/5/5 9/9/9
f 10/10/10 8/8/8 11/11/8
f 10/10/10 12/12/11 8/8/8
f 13/13/12 14/14/13 12/12/11
f 15/15/14 16/16/15 14/14/13
f 15/15/14 17/17/15 16/16/15
f 16/16/15 18/18/16 19/19/17
f 19/20/17 20/21/18 21/22/19
f 21/22/19 20/21/18 22/23/20
f 23/24/21 22/23/20 24/25/21
f 25/26/22 23/24/21 26/27/23
f 27/28/24 25/26/22 26/27/23
f 28/29/25 29/30/26 27/28/24
f 30/31/27 31/32/28 28/29/25
f 30/31/27 32/33/29 31/32/28
f 32/33/29 33/34/30 34/35/31
f 33/34/30 35/36/32 36/37/33
f 36/37/33 35/36/32 37/38/34
f 37/38/34 38/39/34 39/40/35
f 39/40/35 40/41/35 41/42/36
f 41/42/36 40/41/35 42/43/36
f 43/44/37 42/43/36 44/45/37
f 45/46/38 44/45/37 46/47/38
f 47/48/39 45/46/38 46/47/38
f 48/49/40 47/48/39 49/50/39
f 50/51/41 48/49/40 51/52/42
f 52/53/41 50/51/41 51/52/42
f 53/54/43 54/55/43 52/53/41
f 1/1/1 55/56/2 2/2/2
f 56/57/44 57/2/45 58/58/44
f 58/58/44 57/2/45 59/56/45
f 58/58/44 60/59/46 56/57/44
f 58/58/44 61/60/46 60/59/46
f 60/59/46 61/60/46 62/61/47
f 62/61/47 61/60/46 63/62/48
f 64/63/49 62/61/47 63/62/48
f 65/64/49 64/63/49 63/62/48
f 65/64/49 66/65/50 64/63/49
f 65/64/49 67/66/50 66/65/50
f 66/65/50 67/66/50 68/67/51
f 68/67/51 67/66/50 69/68/52
f 70/69/53 68/67/51 69/68/52
f 71/70/53 70/69/53 69/68/52
f 71/70/53 53/71/43 70/69/53
f 71/70/53 54/72/43 53/71/43
f 54/55/43 50/51/41 52/53/41
f 48/49/40 49/50/39 51/52/42
f 47/48/39 46/47/38 49/50/39
f 43/44/37 44/45/37 45/46/38
f 41/42/36 42/43/36 43/44/37
f 38/39/34 40/41/35 39/40/35
f 35/36/32 38/39/34 37/38/34
f 33/34/30 36/37/33 34/35/31
f 32/33/29 34/35/31 31/32/28
f 31/32/28 29/30/26 28/29/25
f 29/30/26 25/26/22 27/28/24
f 23/24/21 24/25/21 26/27/23
f 21/22/19 22/23/20 23/24/21
f 18/73/16 20/21/18 19/20/17
f 17/17/15 18/18/16 16/16/15
f 15/15/14 14/14/13 13/13/12
f 13/13/12 12/12/11 10/10/10
f 8/8/8 9/9/9 11/11/8
f 5/5/5 7/7/7 9/9/9
f 6/6/6 4/4/4 7/7/7
f 72/74/54 2/2/2 73/75/55
f 73/75/55 2/2/2 74/76/56
f 75/77/57 73/75/55 74/76/56
f 76/78/58 75/77/57 74/76/56
f 76/78/58 77/59/58 75/77/57
f 76/78/58 78/79/59 77/59/58
f 76/78/58 79/80/60 78/79/59
f 78/79/59 79/80/60 80/81/61
f 80/81/61 79/80/60 81/82/62
f 82/83/63 80/81/61 81/82/62
f 83/84/64 82/83/63 81/82/62
f 83/84/64 84/65/64 82/83/63
f 83/84/64 85/85/65 84/65/64
f 83/84/64 86/86/66 85/85/65
f 85/85/65 86/86/66 87/87/67
f 87/87/67 86/86/66 88/88/68
f 89/89/69 87/87/67 88/88/68
f 90/90/70 89/89/69 88/88/68
f 90/90/70 91/71/70 89/89/69
f 92/91/71 93/92/72 94/93/73
f 95/94/74 96/95/75 97/96/76
f 95/94/74 98/97/77 96/95/75
f 99/98/78 100/99/79 101/100/80
f 101/100/80 100/99/79 102/101/81
f 103/102/82 104/2/83 105/103/84
f 106/104/84 105/103/84 107/105/85
f 107/105/85 105/103/84 108/106/86
f 109/107/87 108/106/86 110/108/88
f 111/109/89 109/107/87 110/108/88
f 112/110/90 111/109/89 110/108/88
f 113/111/91 114/112/90 112/110/90
f 115/113/92 113/111/91 112/110/90
f 116/114/93 117/115/94 115/113/92
f 116/114/93 118/116/95 117/115/94
f 116/114/93 119/117/96 118/116/95
f 119/117/96 120/118/97 121/119/96
f 119/117/96 122/120/98 120/118/97
f 122/121/98 123/122/99 124/123/100
f 124/123/100 123/122/99 125/124/101
f 125/124/101 123/122/99 126/125/102
f 127/126/102 126/125/102 128/127/103
f 128/127/103 126/125/102 129/128/104
f 130/129/105 129/128/104 131/130/106
f 132/131/107 130/129/105 131/130/106
f 133/132/108 132/131/107 131/130/106
f 134/133/45 57/2/45 56/57/44
f 57/2/45 134/133/45 135/134/109
f 136/135/110 57/2/45 135/134/109
f 137/136/111 136/135/110 135/134/109
f 137/136/111 138/137/112 136/135/110
f 137/136/111 139/138/113 138/137/112
f 138/137/112 139/138/113 133/132/108
f 133/132/108 139/138/113 140/139/114
f 132/131/107 133/132/108 140/139/114
f 129/128/104 130/129/105 128/127/103
f 126/125/102 127/126/102 125/124/101
f 124/123/100 120/140/97 122/121/98
f 121/119/96 118/116/95 119/117/96
f 113/111/91 115/113/92 117/115/94
f 111/109/89 112/110/90 114/112/90
f 108/106/86 109/107/87 107/105/85
f 105/103/84 106/104/84 103/102/82
f 1/1/1 4/4/4 6/6/6
f 104/2/83 103/102/82 99/98/78
f 99/98/78 101/100/80 104/2/83
f 100/99/79 141/141/81 102/101/81
f 102/101/81 141/141/81 97/96/76
f 96/95/75 102/101/81 97/96/76
f 142/142/115 98/97/77 95/94/74
f 142/142/115 143/143/116 98/97/77
f 142/142/115 144/144/117 143/143/116
f 143/143/116 144/144/117 145/145/118
f 94/93/73 143/143/116 145/145/118
f 92/91/71 94/93/73 145/145/118
f 146/146/119 93/92/72 92/91/71
f 146/146/119 90/147/70 93/92/72
f 3/3/3 2/2/2 72/74/54
f 146/146/119 91/148/70 90/147/70
f 147/149/45 148/150/45 149/151/45
f 148/150/45 59/56/45 57/2/45
f 149/151/45 148/150/45 150/152/45
f 150/152/45 148/150/45 151/153/45
f 151/153/45 148/150/45 152/154/45
f 152/154/45 148/150/45 57/2/45
f 148/150/45 147/149/45 153/155/110
f 153/155/110 147/149/45 154/156/120
f 155/157/112 153/155/110 154/156/120
f 156/158/112 155/157/112 154/156/120
f 155/157/112 156/158/112 157/159/121
f 157/159/121 156/158/112 158/160/121
f 159/161/106 157/159/121 158/160/121
f 160/162/104 161/163/106 162/164/104
f 163/165/102 162/164/104 164/166/102
f 165/167/99 166/168/99 167/169/98
f 167/170/98 168/120/98 169/171/96
f 170/117/96 171/114/122 172/172/93
f 171/114/122 173/113/92 174/173/92
f 173/113/92 175/110/90 176/174/123
f 175/110/90 177/108/88 178/175/88
f 179/106/86 180/176/84 181/177/86
f 182/103/84 183/152/83 180/176/84
f 184/2/83 185/178/80 183/152/83
f 186/100/80 187/179/81 185/178/80
f 188/101/81 189/180/124 187/179/81
f 190/95/75 191/181/125 189/180/124
f 192/97/126 193/182/117 191/181/125
f 194/143/117 195/183/73 193/182/117
f 194/143/117 196/93/127 195/183/73
f 196/93/127 197/92/128 198/184/128
f 197/92/128 199/147/70 200/185/70
f 199/186/70 201/187/68 202/188/68
f 201/187/68 203/189/129 204/190/129
f 203/189/129 205/191/64 206/192/64
f 206/192/64 205/191/64 207/193/62
f 207/193/62 208/194/62 209/195/60
f 210/196/2 211/197/2 212/198/56
f 212/198/56 211/197/2 213/199/56
f 214/200/58 212/198/56 213/199/56
f 215/201/58 214/200/58 213/199/56
f 215/201/58 216/202/60 214/200/58
f 209/195/60 208/194/62 216/202/60
f 207/193/62 205/191/64 208/194/62
f 204/190/129 203/189/129 206/192/64
f 202/188/68 201/187/68 204/190/129
f 200/203/70 199/186/70 202/188/68
f 198/184/128 197/92/128 200/185/70
f 195/183/73 196/93/127 198/184/128
f 192/97/126 194/143/117 193/182/117
f 190/95/75 192/97/126 191/181/125
f 188/101/81 190/95/75 189/180/124
f 186/100/80 188/101/81 187/179/81
f 184/2/83 186/100/80 185/178/80
f 182/103/84 184/2/83 183/152/83
f 179/106/86 182/103/84 180/176/84
f 177/108/88 179/106/86 181/177/86
f 178/175/88 177/108/88 181/177/86
f 176/174/123 175/110/90 178/175/88
f 174/173/92 173/113/92 176/174/123
f 172/172/93 171/114/122 174/173/92
f 169/171/96 170/117/96 172/172/93
f 169/171/96 168/120/98 170/117/96
f 167/169/98 166/168/99 168/204/98
f 165/167/99 164/166/102 166/168/99
f 165/167/99 163/165/102 164/166/102
f 163/165/102 160/162/104 162/164/104
f 160/162/104 159/161/106 161/163/106
f 161/163/106 159/161/106 158/160/121
f 209/195/60 216/202/60 215/201/58
f 2/2/2 55/56/2 217/205/2
f 55/56/2 211/197/2 210/196/2
f 218/206/2 55/56/2 210/196/2
f 219/38/2 55/56/2 218/206/2
f 220/207/2 55/56/2 219/38/2
f 217/205/2 55/56/2 220/207/2
f 221/208/130 222/209/130 223/210/130
f 224/208/130 225/211/130 226/209/130
f 227/208/130 228/212/131 229/211/131
f 230/208/130 231/213/130 232/212/130
f 233/208/130 234/214/130 235/213/130
f 236/208/130 237/215/130 238/214/130
f 239/208/130 240/216/130 241/215/130
f 242/208/130 243/217/130 244/216/130
f 245/208/130 246/218/130 247/217/130
f 248/208/131 249/219/131 250/218/130
f 251/208/130 252/220/130 253/219/130
f 254/221/130 255/222/130 256/208/130
f 257/208/130 258/222/130 259/220/130
f 260/223/130 261/221/130 262/208/130
f 263/224/130 264/223/130 265/208/130
f 266/225/130 267/224/130 268/208/130
f 269/226/130 270/225/130 271/208/130
f 272/227/130 273/226/130 274/208/131
f 275/228/130 276/227/130 277/208/130
f 278/228/130 279/208/130 280/229/130
f 281/229/130 282/208/130 283/230/130
f 284/230/130 285/208/130 286/231/130
f 287/231/130 288/208/130 289/232/130
f 290/232/130 291/208/130 292/233/130
f 293/208/130 294/234/130 295/235/130
f 296/208/130 297/236/130 298/234/130
f 299/237/130 300/238/130 301/208/130
f 302/208/130 303/238/130 304/236/130
f 305/239/132 306/237/130 307/208/130
f 308/240/130 309/239/131 310/208/131
f 311/241/130 312/240/130 313/208/130
f 314/208/130 315/210/130 316/242/130
f 317/242/130 318/210/130 319/243/130
f 320/210/130 321/244/130 322/243/130
f 323/210/130 324/245/130 325/244/130
f 326/210/130 327/246/130 328/245/130
f 329/210/130 330/247/130 331/246/130
f 332/210/130 333/248/130 334/247/130
f 335/210/130 336/249/130 337/248/133
f 338/210/130 339/250/130 340/249/130
f 341/210/130 342/251/130 343/250/130
f 344/210/130 345/252/130 346/251/130
f 347/253/130 348/254/130 349/210/130
f 350/210/130 351/254/130 352/252/130
f 353/255/130 354/253/130 355/210/130
f 356/256/130 357/255/130 358/210/130
f 359/257/130 360/256/130 361/210/130
f 362/151/130 363/257/130 364/210/130
f 365/258/130 366/210/130 367/259/130
f 368/259/130 369/210/130 370/260/130
f 371/210/130 372/261/130 373/260/130
f 374/210/130 375/262/130 376/261/130
f 377/210/130 378/263/130 379/262/130
f 380/210/130 381/264/130 382/263/130
f 383/210/130 384/265/130 385/264/130
f 386/210/130 387/266/130 388/265/130
f 389/210/131 390/267/130 391/266/130
f 392/268/132 393/269/130 394/210/130
f 395/210/130 396/269/130 397/267/130
f 398/270/130 399/268/130 400/210/130
f 401/271/134 402/270/130 403/210/131
f 404/272/130 405/271/130 406/210/130
f 407/233/130 408/208/130 409/235/130
f 410/258/130 411/151/130 412/210/130
f 413/273/135 414/242/136 415/243/135
s 0
f 416/273/135 417/243/137 418/244/138
s 1
f 419/274/135 420/275/135 421/245/135
f 422/275/135 423/244/135 424/245/135
s 0
f 425/271/135 426/272/139 427/276/135
s 1
f 428/270/140 429/271/135 430/277/140
f 431/270/135 432/277/135 433/278/135
f 434/275/135 435/273/135 436/244/138
f 437/279/135 438/274/135 439/249/135
f 440/246/135 441/247/135 442/274/135
f 443/246/135 444/274/135 445/245/140
f 446/247/135 447/248/135 448/274/135
f 449/248/135 450/249/135 451/274/135
f 452/249/135 453/250/135 454/279/135
f 455/250/135 456/251/135 457/279/135
f 458/251/135 459/252/135 460/279/135
f 461/252/135 462/254/135 463/279/141
f 464/254/135 465/253/135 466/279/135
f 467/253/135 468/255/135 469/280/135
f 470/255/135 471/256/140 472/280/135
f 473/256/135 474/257/135 475/280/135
f 476/257/135 477/151/135 478/280/135
f 479/281/135 480/280/135 481/151/135
f 482/281/135 483/151/135 484/258/135
f 485/281/135 486/258/135 487/259/135
f 488/281/135 489/259/135 490/260/135
f 491/281/135 492/260/135 493/261/135
f 494/281/135 495/261/135 496/282/135
f 497/264/135 498/282/135 499/263/135
f 500/282/135 501/262/135 502/263/135
f 503/265/135 504/282/135 505/264/135
f 506/266/135 507/282/135 508/265/135
f 509/278/135 510/282/135 511/266/135
f 512/278/135 513/266/135 514/267/135
f 515/267/135 516/269/135 517/278/135
f 518/269/135 519/268/135 520/278/135
f 521/268/135 522/270/135 523/278/135
f 524/280/135 525/279/135 526/253/135
f 527/210/136 528/276/135 529/272/139
f 530/277/140 531/271/135 532/276/140
f 533/281/135 534/283/135 535/280/135
f 536/280/135 537/283/135 538/284/135
f 539/280/135 540/284/135 541/285/135
f 542/280/135 543/285/135 544/286/135
f 545/280/135 546/286/135 547/287/135
f 548/280/135 549/287/135 550/288/135
f 551/280/135 552/288/135 553/289/135
f 554/280/135 555/289/135 556/290/135
f 557/280/141 558/290/141 559/291/141
f 560/292/135 561/280/135 562/293/135
f 563/280/135 564/291/135 565/293/135
f 566/294/135 567/280/135 568/292/135
f 569/295/135 570/280/135 571/294/135
f 572/296/135 573/280/135 574/295/135
f 575/297/135 576/280/138 577/296/135
f 578/298/135 579/280/135 580/297/135
f 581/299/135 582/280/135 583/298/135
f 584/299/135 585/300/135 586/280/135
f 587/300/135 588/301/135 589/280/138
f 590/280/135 591/302/135 592/303/135
f 593/280/135 594/303/135 595/304/135
f 596/280/135 597/304/135 598/305/135
f 599/280/135 600/305/135 601/306/135
f 602/280/135 603/306/135 604/307/135
f 605/280/135 606/307/135 607/308/135
f 608/309/135 609/280/135 610/310/135
f 611/280/135 612/308/135 613/310/135
f 614/311/135 615/280/135 616/309/135
f 617/312/135 618/280/135 619/311/135
f 620/313/135 621/280/135 622/312/135
f 623/262/135 624/282/139 625/261/135
f 626/302/135 627/280/135 628/301/135
f 629/314/135 630/242/135 631/315/135
f 632/316/141 633/242/135 634/314/135
f 635/317/135 636/242/140 637/316/135
f 638/318/135 639/242/135 640/317/135
f 641/319/135 642/242/135 643/318/135
f 644/320/135 645/242/135 646/319/135
f 647/321/135 648/242/135 649/320/135
f 650/322/135 651/242/135 652/321/135
f 653/323/135 654/242/135 655/322/135
f 656/324/135 657/242/135 658/323/135
f 659/325/135 660/242/135 661/324/140
f 662/326/135 663/327/135 664/242/135
f 665/326/135 666/242/141 667/325/135
f 668/327/135 669/328/135 670/242/135
f 671/328/135 672/206/135 673/242/135
f 674/206/135 675/329/135 676/242/135
f 677/329/135 678/330/135 679/242/135
f 680/242/135 681/330/135 682/331/135
f 683/242/141 684/331/135 685/332/135
f 686/242/135 687/332/135 688/333/135
f 689/242/135 690/333/135 691/334/135
f 692/242/135 693/334/141 694/335/141
f 695/242/135 696/335/135 697/336/135
f 698/242/135 699/336/135 700/337/135
f 701/242/141 702/337/141 703/338/141
f 704/242/135 705/338/135 706/339/135
f 707/242/135 708/339/135 709/340/135
f 710/242/135 711/340/135 712/341/135
f 713/342/135 714/242/135 715/343/142
f 716/242/135 717/341/135 718/343/141
f 719/344/135 720/242/135 721/342/135
f 722/345/135 723/242/135 724/344/135
f 725/346/135 726/242/135 727/345/135
f 728/347/135 729/242/135 730/346/135
f 731/348/135 732/242/135 733/347/135
f 734/349/135 735/350/135 736/242/135
f 737/350/135 738/351/135 739/242/135
f 740/242/135 741/351/135 742/271/135
f 743/242/135 744/271/135 745/352/135
f 746/242/135 747/352/135 748/353/135
f 749/242/135 750/353/135 751/354/135
f 752/242/135 753/354/135 754/269/135
f 755/242/135 756/269/135 757/355/135
f 758/242/135 759/355/135 760/356/135
f 761/242/141 762/356/135 763/357/135
f 764/242/135 765/357/135 766/265/135
f 767/242/135 768/265/135 769/358/135
f 770/242/135 771/358/135 772/359/135
f 773/242/135 774/359/135 775/360/135
f 776/361/135 777/242/135 778/262/135
f 779/242/135 780/360/135 781/262/135
f 782/362/135 783/242/135 784/361/135
f 785/363/135 786/242/135 787/362/135
f 788/259/135 789/242/135 790/363/135
f 791/364/135 792/242/135 793/259/135
f 794/365/135 795/242/135 796/364/135
f 797/366/135 798/242/135 799/365/135
f 800/257/135 801/242/135 802/366/135
f 803/257/135 804/367/135 805/242/135
f 806/367/135 807/368/135 808/242/135
f 809/368/135 810/369/135 811/242/135
f 812/369/135 813/253/135 814/242/135
f 815/253/135 816/370/135 817/242/135
f 818/370/135 819/371/140 820/242/140
f 821/371/135 822/372/135 823/242/135
f 824/372/140 825/251/135 826/242/135
f 827/251/135 828/373/135 829/242/140
f 830/373/143 831/374/135 832/242/135
f 833/374/135 834/375/135 835/242/135
f 836/242/135 837/248/135 838/376/135
f 839/375/135 840/248/135 841/242/135
f 842/242/135 843/376/135 844/377/135
f 845/242/135 846/377/135 847/378/135
f 848/242/135 849/378/140 850/245/135
f 851/242/135 852/245/135 853/379/138
f 854/242/135 855/379/135 856/380/135
f 857/242/135 858/348/135 859/349/135
s 0
f 860/381/139 861/242/139 862/380/135
