# Blender 4.4.3
# www.blender.org
mtllib Mesh_16.002.mtl
o Mesh_16.002
v 0.017100 0.008820 -0.007090
v 0.000100 0.008820 -0.007090
v 0.017100 0.008833 -0.007138
v 0.000100 0.008833 -0.007138
v 0.017100 0.008786 -0.007090
v 0.000100 0.008786 -0.007090
v 0.017100 0.008820 -0.007090
v 0.000100 0.008820 -0.007090
v 0.017100 0.008820 -0.007090
v 0.017100 0.008773 -0.007138
v 0.000100 0.008773 -0.007138
v 0.017100 0.008786 -0.007090
v 0.000100 0.008786 -0.007090
v 0.017100 0.008786 -0.007090
v 0.017100 0.008773 -0.007196
v 0.000100 0.008773 -0.007196
v 0.017100 0.008833 -0.007196
v 0.000100 0.008833 -0.007196
v 0.017100 0.008773 -0.007196
v 0.000100 0.008773 -0.007196
v 0.017100 0.008773 -0.007196
v 0.017100 0.008843 -0.007137
v 0.000100 0.008843 -0.007137
v 0.017100 0.008828 -0.007080
v 0.000100 0.008828 -0.007080
v 0.017100 0.008843 -0.007263
v 0.000100 0.008843 -0.007263
v 0.017100 0.008828 -0.007320
v 0.000100 0.008828 -0.007320
v 0.017100 0.008778 -0.007320
v 0.000100 0.008778 -0.007320
v 0.017100 0.008828 -0.007320
v 0.000100 0.008828 -0.007320
v 0.017100 0.008828 -0.007320
v 0.017100 0.008763 -0.007263
v 0.000100 0.008763 -0.007263
v 0.017100 0.008778 -0.007320
v 0.000100 0.008778 -0.007320
v 0.017100 0.008778 -0.007320
v 0.017100 0.008763 -0.007137
v 0.000100 0.008763 -0.007137
v 0.017100 0.008778 -0.007080
v 0.000100 0.008778 -0.007080
v 0.000100 0.008786 -0.007310
v 0.017100 0.008786 -0.007310
v 0.000100 0.008820 -0.007310
v 0.017100 0.008820 -0.007310
v 0.000100 0.008820 -0.007310
v 0.017100 0.008820 -0.007310
v 0.000100 0.008833 -0.007262
v 0.017100 0.008820 -0.007310
v 0.017100 0.008833 -0.007262
v 0.000100 0.008833 -0.007203
v 0.017100 0.008833 -0.007204
v 0.000100 0.008833 -0.007203
v 0.017100 0.008833 -0.007204
v 0.000100 0.008773 -0.007203
v 0.017100 0.008833 -0.007204
v 0.017100 0.008773 -0.007204
v 0.000100 0.008773 -0.007203
v 0.017100 0.008773 -0.007204
v 0.000100 0.008773 -0.007262
v 0.017100 0.008773 -0.007204
v 0.017100 0.008773 -0.007262
v 0.017100 0.008828 -0.007080
v 0.000100 0.008828 -0.007080
v 0.017100 0.008778 -0.007080
v 0.000100 0.008828 -0.007080
v 0.000100 0.008778 -0.007080
v 0.017100 0.008778 -0.007080
v 0.000100 0.008786 -0.007310
v 0.000100 0.008786 -0.007310
v 0.017100 0.008786 -0.007310
v 0.017100 0.008833 -0.007196
v 0.000100 0.008833 -0.007196
v 0.017100 0.008833 -0.007196
v 0.000100 0.008833 -0.007196
v 0.000100 0.008843 -0.007137
v 0.000100 0.008833 -0.007203
v 0.000100 0.008833 -0.007196
v 0.000100 0.008833 -0.007203
v 0.000100 0.008773 -0.007196
v 0.000100 0.008773 -0.007196
v 0.000100 0.008773 -0.007203
v 0.000100 0.008763 -0.007137
v 0.000100 0.008773 -0.007138
v 0.000100 0.008773 -0.007196
v 0.000100 0.008763 -0.007137
v 0.000100 0.008786 -0.007090
v 0.000100 0.008763 -0.007137
v 0.000100 0.008778 -0.007080
v 0.000100 0.008820 -0.007090
v 0.000100 0.008778 -0.007080
v 0.000100 0.008828 -0.007080
v 0.000100 0.008786 -0.007090
v 0.000100 0.008773 -0.007138
v 0.000100 0.008763 -0.007137
v 0.000100 0.008833 -0.007138
v 0.000100 0.008843 -0.007137
v 0.000100 0.008833 -0.007196
v 0.000100 0.008820 -0.007090
v 0.000100 0.008828 -0.007080
v 0.000100 0.008843 -0.007137
v 0.000100 0.008763 -0.007137
v 0.000100 0.008773 -0.007203
v 0.000100 0.008763 -0.007263
v 0.000100 0.008778 -0.007320
v 0.000100 0.008786 -0.007310
v 0.000100 0.008828 -0.007320
v 0.000100 0.008828 -0.007320
v 0.000100 0.008786 -0.007310
v 0.000100 0.008820 -0.007310
v 0.000100 0.008843 -0.007263
v 0.000100 0.008833 -0.007203
v 0.000100 0.008843 -0.007137
v 0.000100 0.008786 -0.007090
v 0.000100 0.008778 -0.007080
v 0.000100 0.008820 -0.007090
v 0.000100 0.008773 -0.007262
v 0.000100 0.008786 -0.007310
v 0.000100 0.008763 -0.007263
v 0.000100 0.008763 -0.007263
v 0.000100 0.008786 -0.007310
v 0.000100 0.008778 -0.007320
v 0.000100 0.008843 -0.007137
v 0.000100 0.008833 -0.007138
v 0.000100 0.008820 -0.007090
v 0.000100 0.008833 -0.007262
v 0.000100 0.008843 -0.007263
v 0.000100 0.008820 -0.007310
v 0.000100 0.008833 -0.007262
v 0.000100 0.008833 -0.007203
v 0.000100 0.008843 -0.007263
v 0.000100 0.008828 -0.007320
v 0.000100 0.008820 -0.007310
v 0.000100 0.008843 -0.007263
v 0.000100 0.008773 -0.007203
v 0.000100 0.008773 -0.007262
v 0.000100 0.008763 -0.007263
v 0.000100 0.008833 -0.007203
v 0.000100 0.008773 -0.007203
v 0.000100 0.008773 -0.007196
v 0.017100 0.008833 -0.007138
v 0.017100 0.008833 -0.007196
v 0.017100 0.008843 -0.007137
v 0.017100 0.008833 -0.007196
v 0.017100 0.008773 -0.007196
v 0.017100 0.008833 -0.007204
v 0.017100 0.008773 -0.007196
v 0.017100 0.008773 -0.007204
v 0.017100 0.008833 -0.007204
v 0.017100 0.008773 -0.007196
v 0.017100 0.008763 -0.007137
v 0.017100 0.008773 -0.007204
v 0.017100 0.008773 -0.007138
v 0.017100 0.008763 -0.007137
v 0.017100 0.008773 -0.007196
v 0.017100 0.008833 -0.007196
v 0.017100 0.008833 -0.007204
v 0.017100 0.008843 -0.007137
v 0.017100 0.008786 -0.007090
v 0.017100 0.008778 -0.007080
v 0.017100 0.008763 -0.007137
v 0.017100 0.008820 -0.007090
v 0.017100 0.008828 -0.007080
v 0.017100 0.008778 -0.007080
v 0.017100 0.008820 -0.007090
v 0.017100 0.008833 -0.007138
v 0.017100 0.008843 -0.007137
v 0.017100 0.008828 -0.007080
v 0.017100 0.008820 -0.007090
v 0.017100 0.008843 -0.007137
v 0.017100 0.008778 -0.007080
v 0.017100 0.008786 -0.007090
v 0.017100 0.008820 -0.007090
v 0.017100 0.008763 -0.007137
v 0.017100 0.008763 -0.007263
v 0.017100 0.008773 -0.007204
v 0.017100 0.008778 -0.007320
v 0.017100 0.008828 -0.007320
v 0.017100 0.008786 -0.007310
v 0.017100 0.008843 -0.007263
v 0.017100 0.008843 -0.007137
v 0.017100 0.008833 -0.007204
v 0.017100 0.008786 -0.007310
v 0.017100 0.008763 -0.007263
v 0.017100 0.008778 -0.007320
v 0.017100 0.008786 -0.007310
v 0.017100 0.008828 -0.007320
v 0.017100 0.008820 -0.007310
v 0.017100 0.008773 -0.007138
v 0.017100 0.008786 -0.007090
v 0.017100 0.008763 -0.007137
v 0.017100 0.008833 -0.007262
v 0.017100 0.008820 -0.007310
v 0.017100 0.008843 -0.007263
v 0.017100 0.008833 -0.007262
v 0.017100 0.008843 -0.007263
v 0.017100 0.008833 -0.007204
v 0.017100 0.008773 -0.007204
v 0.017100 0.008763 -0.007263
v 0.017100 0.008773 -0.007262
v 0.017100 0.008820 -0.007310
v 0.017100 0.008828 -0.007320
v 0.017100 0.008843 -0.007263
v 0.017100 0.008763 -0.007263
v 0.017100 0.008786 -0.007310
v 0.017100 0.008773 -0.007262
vn -0.0000 -0.9659 -0.2588
vn -0.0001 -0.9659 -0.2588
vn -0.0000 -0.9660 -0.2587
vn -0.0000 -0.0000 -1.0000
vn -0.0000 0.9659 -0.2588
vn -0.0000 1.0000 -0.0000
vn -0.0000 -0.0000 1.0000
vn -0.0000 0.9659 0.2588
vn -0.0000 -1.0000 -0.0000
vn -0.0000 -1.0000 0.0001
vn -0.0000 -0.9659 0.2588
vn -0.0000 -0.9659 0.2589
vn -0.0001 -0.0000 -1.0000
vn -0.0000 0.9659 0.2589
vn -0.0000 1.0000 0.0001
vn -1.0000 -0.0000 -0.0000
vn 1.0000 -0.0000 -0.0000
vn 1.0000 -0.0001 -0.0000
vn 1.0000 0.0001 -0.0000
vn 1.0000 -0.0002 -0.0000
vn 1.0000 0.0002 -0.0000
s 1
usemtl Diffuse_51_51_51_100.017
f 1//1 2//1 3//2
f 2//1 4//3 3//2
f 5//4 6//4 7//4
f 6//4 8//4 9//4
f 10//5 11//5 12//5
f 11//5 13//5 14//5
f 15//6 16//6 10//5
f 16//6 11//5 10//5
f 17//7 18//7 19//7
f 18//7 20//7 21//7
f 22//8 23//8 24//8
f 23//8 25//8 24//8
f 26//6 27//6 22//8
f 27//6 23//8 22//8
f 28//5 29//5 26//6
f 29//5 27//6 26//6
f 30//4 31//4 32//4
f 31//4 33//4 34//4
f 35//1 36//1 37//1
f 36//1 38//1 39//1
f 40//9 41//10 35//1
f 41//10 36//1 35//1
f 42//11 43//11 40//9
f 43//11 41//10 40//9
f 44//7 45//7 46//7
f 46//7 45//7 47//7
f 48//12 49//12 50//12
f 50//11 51//11 52//11
f 50//11 52//11 53//9
f 53//9 52//11 54//9
f 55//13 56//13 57//13
f 57//13 58//13 59//13
f 60//6 61//6 62//6
f 62//6 63//6 64//6
f 65//7 66//7 67//7
f 68//7 69//7 70//7
f 62//6 64//6 71//14
f 72//8 64//15 73//8
f 3//2 4//3 74//9
f 4//1 75//9 76//9
f 77//16 78//16 79//16
f 80//16 81//16 82//16
f 83//16 84//16 85//16
f 86//16 87//16 88//16
f 89//16 90//16 91//16
f 92//16 93//16 94//16
f 95//16 96//16 97//16
f 98//16 99//16 100//16
f 101//16 102//16 103//16
f 104//16 105//16 106//16
f 107//16 108//16 109//16
f 110//16 111//16 112//16
f 113//16 114//16 115//16
f 116//16 117//16 118//16
f 119//16 120//16 121//16
f 122//16 123//16 124//16
f 125//16 126//16 127//16
f 128//16 129//16 130//16
f 131//16 132//16 133//16
f 134//16 135//16 136//16
f 137//16 138//16 139//16
f 140//16 141//16 142//16
f 143//17 144//17 145//17
f 146//17 147//17 148//17
f 149//17 150//17 151//17
f 152//17 153//17 154//17
f 155//17 156//17 157//17
f 158//17 159//17 160//17
f 161//18 162//18 163//18
f 164//17 165//17 166//17
f 167//19 168//19 169//19
f 170//20 171//20 172//20
f 173//17 174//17 175//17
f 176//21 177//21 178//21
f 179//17 180//17 181//17
f 182//20 183//20 184//20
f 185//17 186//17 187//17
f 188//17 189//17 190//17
f 191//17 192//17 193//17
f 194//17 195//17 196//17
f 197//17 198//17 199//17
f 200//18 201//18 202//18
f 203//17 204//17 205//17
f 206//17 207//17 208//17
