# Blender 4.4.3
# www.blender.org
mtllib Mesh_22.009.mtl
o Mesh_22.009
v 0.017600 0.008970 -0.013920
v 0.017600 0.008970 -0.013843
v 0.017600 0.008959 -0.013894
v 0.017600 0.008970 -0.013679
v 0.017600 0.008959 -0.013706
v 0.017600 0.008970 -0.013757
v 0.017600 0.008636 -0.013679
v 0.017600 0.008636 -0.013757
v 0.017600 0.008647 -0.013706
v 0.017600 0.008636 -0.013920
v 0.017600 0.008647 -0.013894
v 0.017600 0.008636 -0.013843
v 0.017600 0.008970 -0.013998
v 0.017600 0.008904 -0.013893
v 0.017600 0.008803 -0.013998
v 0.017600 0.008959 -0.013896
v 0.017600 0.008959 -0.013843
v 0.017600 0.008933 -0.013904
v 0.017600 0.008958 -0.013898
v 0.017600 0.008957 -0.013900
v 0.017600 0.008956 -0.013901
v 0.017600 0.008955 -0.013902
v 0.017600 0.008953 -0.013903
v 0.017600 0.008951 -0.013904
v 0.017600 0.008949 -0.013904
v 0.017600 0.008939 -0.013904
v 0.017600 0.008927 -0.013903
v 0.017600 0.008921 -0.013901
v 0.017600 0.008915 -0.013899
v 0.017600 0.008909 -0.013896
v 0.017600 0.008636 -0.013998
v 0.017600 0.008702 -0.013893
v 0.017600 0.008899 -0.013889
v 0.017600 0.008707 -0.013889
v 0.017600 0.008894 -0.013885
v 0.017600 0.008712 -0.013885
v 0.017600 0.008890 -0.013881
v 0.017600 0.008716 -0.013881
v 0.017600 0.008886 -0.013876
v 0.017600 0.008720 -0.013876
v 0.017600 0.008883 -0.013870
v 0.017600 0.008880 -0.013864
v 0.017600 0.008723 -0.013870
v 0.017600 0.008726 -0.013864
v 0.017600 0.008729 -0.013852
v 0.017600 0.008877 -0.013852
v 0.017600 0.008876 -0.013846
v 0.017600 0.008730 -0.013846
v 0.017600 0.008875 -0.013840
v 0.017600 0.008731 -0.013840
v 0.017600 0.008875 -0.013760
v 0.017600 0.008876 -0.013754
v 0.017600 0.008731 -0.013760
v 0.017600 0.008730 -0.013754
v 0.017600 0.008729 -0.013748
v 0.017600 0.008877 -0.013748
v 0.017600 0.008878 -0.013741
v 0.017600 0.008728 -0.013741
v 0.017600 0.008880 -0.013736
v 0.017600 0.008723 -0.013730
v 0.017600 0.008726 -0.013736
v 0.017600 0.008883 -0.013730
v 0.017600 0.008886 -0.013724
v 0.017600 0.008712 -0.013715
v 0.017600 0.008894 -0.013715
v 0.017600 0.008899 -0.013711
v 0.017600 0.008716 -0.013719
v 0.017600 0.008970 -0.013600
v 0.017600 0.008702 -0.013707
v 0.017600 0.008904 -0.013707
v 0.017600 0.008707 -0.013711
v 0.017600 0.008933 -0.013696
v 0.017600 0.008921 -0.013699
v 0.017600 0.008927 -0.013697
v 0.017600 0.008939 -0.013696
v 0.017600 0.008915 -0.013701
v 0.017600 0.008949 -0.013696
v 0.017600 0.008951 -0.013696
v 0.017600 0.008953 -0.013697
v 0.017600 0.008955 -0.013698
v 0.017600 0.008956 -0.013699
v 0.017600 0.008909 -0.013704
v 0.017600 0.008957 -0.013700
v 0.017600 0.008958 -0.013702
v 0.017600 0.008890 -0.013719
v 0.017600 0.008720 -0.013724
v 0.017600 0.008959 -0.013704
v 0.017600 0.008647 -0.013704
v 0.017600 0.008647 -0.013757
v 0.017600 0.008673 -0.013696
v 0.017600 0.008636 -0.013600
v 0.017600 0.008648 -0.013702
v 0.017600 0.008649 -0.013700
v 0.017600 0.008650 -0.013699
v 0.017600 0.008651 -0.013698
v 0.017600 0.008653 -0.013697
v 0.017600 0.008655 -0.013696
v 0.017600 0.008657 -0.013696
v 0.017600 0.008666 -0.013696
v 0.017600 0.008679 -0.013697
v 0.017600 0.008685 -0.013699
v 0.017600 0.008691 -0.013701
v 0.017600 0.008697 -0.013704
v 0.017600 0.008959 -0.013757
v 0.017600 0.008728 -0.013859
v 0.017600 0.008878 -0.013859
v 0.017600 0.008697 -0.013896
v 0.017600 0.008691 -0.013899
v 0.017600 0.008685 -0.013901
v 0.017600 0.008679 -0.013903
v 0.017600 0.008673 -0.013904
v 0.017600 0.008666 -0.013904
v 0.017600 0.008653 -0.013903
v 0.017600 0.008655 -0.013904
v 0.017600 0.008657 -0.013904
v 0.017600 0.008651 -0.013902
v 0.017600 0.008650 -0.013901
v 0.017600 0.008649 -0.013900
v 0.017600 0.008648 -0.013898
v 0.017600 0.008647 -0.013896
v 0.017600 0.008647 -0.013843
v 0.017575 0.008995 -0.013843
v 0.017577 0.008993 -0.013843
v 0.017567 0.009003 -0.013853
v 0.017600 0.008970 -0.013843
v 0.017573 0.008997 -0.013844
v 0.017570 0.009000 -0.013846
v 0.017571 0.008999 -0.013845
v 0.017568 0.009002 -0.013849
v 0.017569 0.009001 -0.013847
v 0.017567 0.009003 -0.013851
v 0.017600 0.008970 -0.013920
v 0.017573 0.008997 -0.013995
v 0.017600 0.008970 -0.013920
v 0.017600 0.008970 -0.013998
v 0.017573 0.008997 -0.014000
v 0.017567 0.009003 -0.014000
v 0.017600 0.008970 -0.013920
v 0.017600 0.008970 -0.013843
v 0.017560 0.008603 -0.014000
v 0.017573 0.008609 -0.014000
v 0.017567 0.008603 -0.014000
v 0.017560 0.009003 -0.014000
v 0.017573 0.008997 -0.014000
v 0.017573 0.008803 -0.014000
v 0.017567 0.009003 -0.014000
v 0.017573 0.008997 -0.014000
v 0.017567 0.008603 -0.014000
v 0.017573 0.008609 -0.013995
v 0.017567 0.008603 -0.013853
v 0.017600 0.008636 -0.013920
v 0.017600 0.008636 -0.013920
v 0.017600 0.008636 -0.013843
v 0.017575 0.008611 -0.013843
v 0.017577 0.008613 -0.013843
v 0.017573 0.008609 -0.013844
v 0.017570 0.008606 -0.013846
v 0.017569 0.008605 -0.013847
v 0.017571 0.008607 -0.013845
v 0.017568 0.008604 -0.013849
v 0.017600 0.008636 -0.013843
v 0.017600 0.008636 -0.013920
v 0.017600 0.008636 -0.013998
v 0.017567 0.008603 -0.013851
v 0.017567 0.008603 -0.014000
v 0.017573 0.008609 -0.014000
v 0.017560 0.008803 -0.013622
v 0.017560 0.008803 -0.013600
v 0.017560 0.008843 -0.013622
v 0.017560 0.008783 -0.013770
v 0.017560 0.008726 -0.013736
v 0.017560 0.008723 -0.013730
v 0.017560 0.008783 -0.013780
v 0.017560 0.008773 -0.013780
v 0.017560 0.008883 -0.013730
v 0.017560 0.008823 -0.013770
v 0.017560 0.008843 -0.013642
v 0.017560 0.008833 -0.013780
v 0.017560 0.008875 -0.013760
v 0.017560 0.008833 -0.013820
v 0.017560 0.008875 -0.013840
v 0.017560 0.008880 -0.013736
v 0.017560 0.008878 -0.013741
v 0.017560 0.008823 -0.013830
v 0.017560 0.008876 -0.013846
v 0.017560 0.008783 -0.013830
v 0.017560 0.008886 -0.013876
v 0.017560 0.008878 -0.013859
v 0.017560 0.008880 -0.013864
v 0.017560 0.008877 -0.013852
v 0.017560 0.008731 -0.013840
v 0.017560 0.008731 -0.013760
v 0.017560 0.008730 -0.013754
v 0.017560 0.008823 -0.013820
v 0.017560 0.009002 -0.013606
v 0.017560 0.009003 -0.013608
v 0.017560 0.009003 -0.013610
v 0.017560 0.009001 -0.013604
v 0.017560 0.009000 -0.013603
v 0.017560 0.008999 -0.013602
v 0.017560 0.008997 -0.013601
v 0.017560 0.008995 -0.013600
v 0.017560 0.008993 -0.013600
v 0.017560 0.008673 -0.013696
v 0.017560 0.008613 -0.013600
v 0.017560 0.008763 -0.013622
v 0.017560 0.008666 -0.013696
v 0.017560 0.008657 -0.013696
v 0.017560 0.008655 -0.013696
v 0.017560 0.008603 -0.013610
v 0.017560 0.008607 -0.013602
v 0.017560 0.008606 -0.013603
v 0.017560 0.008609 -0.013601
v 0.017560 0.008611 -0.013600
v 0.017560 0.008604 -0.013606
v 0.017560 0.008605 -0.013604
v 0.017560 0.008603 -0.013608
v 0.017560 0.008603 -0.013747
v 0.017560 0.008648 -0.013702
v 0.017560 0.008647 -0.013704
v 0.017560 0.008613 -0.013757
v 0.017560 0.008647 -0.013706
v 0.017560 0.008603 -0.013749
v 0.017560 0.008604 -0.013751
v 0.017560 0.008605 -0.013753
v 0.017560 0.008607 -0.013755
v 0.017560 0.008609 -0.013756
v 0.017560 0.008606 -0.013754
v 0.017560 0.008611 -0.013757
v 0.017560 0.008647 -0.013757
v 0.017560 0.008649 -0.013700
v 0.017560 0.008650 -0.013699
v 0.017560 0.008651 -0.013698
v 0.017560 0.008653 -0.013697
v 0.017560 0.008763 -0.013642
v 0.017560 0.008679 -0.013697
v 0.017560 0.008685 -0.013699
v 0.017560 0.008691 -0.013701
v 0.017560 0.008697 -0.013704
v 0.017560 0.008712 -0.013715
v 0.017560 0.008707 -0.013711
v 0.017560 0.008702 -0.013707
v 0.017560 0.008716 -0.013719
v 0.017560 0.008720 -0.013724
v 0.017560 0.008728 -0.013741
v 0.017560 0.008773 -0.013820
v 0.017560 0.008730 -0.013846
v 0.017560 0.008883 -0.013870
v 0.017560 0.008729 -0.013852
v 0.017560 0.008729 -0.013748
v 0.017560 0.008723 -0.013870
v 0.017560 0.008726 -0.013864
v 0.017560 0.008728 -0.013859
v 0.017560 0.008720 -0.013876
v 0.017560 0.008894 -0.013885
v 0.017560 0.008707 -0.013889
v 0.017560 0.008712 -0.013885
v 0.017560 0.008890 -0.013881
v 0.017560 0.008697 -0.013896
v 0.017560 0.008702 -0.013893
v 0.017560 0.008904 -0.013893
v 0.017560 0.008899 -0.013889
v 0.017560 0.008691 -0.013899
v 0.017560 0.008603 -0.014000
v 0.017560 0.008685 -0.013901
v 0.017560 0.008666 -0.013904
v 0.017560 0.008603 -0.014000
v 0.017560 0.008657 -0.013904
v 0.017560 0.008603 -0.014000
v 0.017560 0.008673 -0.013904
v 0.017560 0.008679 -0.013903
v 0.017560 0.008603 -0.014000
v 0.017560 0.008655 -0.013904
v 0.017560 0.008603 -0.014000
v 0.017560 0.008653 -0.013903
v 0.017560 0.008603 -0.014000
v 0.017560 0.008651 -0.013902
v 0.017560 0.008603 -0.014000
v 0.017560 0.008650 -0.013901
v 0.017560 0.008603 -0.014000
v 0.017560 0.008649 -0.013900
v 0.017560 0.008603 -0.014000
v 0.017560 0.008648 -0.013898
v 0.017560 0.008603 -0.014000
v 0.017560 0.008603 -0.013853
v 0.017560 0.008603 -0.014000
v 0.017560 0.008909 -0.013896
v 0.017560 0.008716 -0.013881
v 0.017560 0.008783 -0.013820
v 0.017560 0.008877 -0.013748
v 0.017560 0.008876 -0.013754
v 0.017560 0.008647 -0.013894
v 0.017560 0.008613 -0.013843
v 0.017560 0.008647 -0.013843
v 0.017560 0.008611 -0.013843
v 0.017560 0.008604 -0.013849
v 0.017560 0.008603 -0.013851
v 0.017560 0.009003 -0.013853
v 0.017560 0.008958 -0.013898
v 0.017560 0.008959 -0.013896
v 0.017560 0.008993 -0.013843
v 0.017560 0.008959 -0.013894
v 0.017560 0.009003 -0.013851
v 0.017560 0.009002 -0.013849
v 0.017560 0.009001 -0.013847
v 0.017560 0.008999 -0.013845
v 0.017560 0.008997 -0.013844
v 0.017560 0.009000 -0.013846
v 0.017560 0.008995 -0.013843
v 0.017560 0.009003 -0.014000
v 0.017560 0.008959 -0.013843
v 0.017560 0.008957 -0.013900
v 0.017560 0.009003 -0.014000
v 0.017560 0.008956 -0.013901
v 0.017560 0.009003 -0.014000
v 0.017560 0.008955 -0.013902
v 0.017560 0.009003 -0.014000
v 0.017560 0.008953 -0.013903
v 0.017560 0.009003 -0.014000
v 0.017560 0.009003 -0.014000
v 0.017560 0.008951 -0.013904
v 0.017560 0.009003 -0.014000
v 0.017560 0.008939 -0.013904
v 0.017560 0.008949 -0.013904
v 0.017560 0.009003 -0.014000
v 0.017560 0.008933 -0.013904
v 0.017560 0.009003 -0.014000
v 0.017560 0.008921 -0.013901
v 0.017560 0.008927 -0.013903
v 0.017560 0.009003 -0.014000
v 0.017560 0.008915 -0.013899
v 0.017560 0.009003 -0.014000
v 0.017560 0.009003 -0.014000
v 0.017560 0.008603 -0.014000
v 0.017560 0.008603 -0.014000
v 0.017560 0.008647 -0.013896
v 0.017560 0.008603 -0.014000
v 0.017560 0.008609 -0.013844
v 0.017560 0.008607 -0.013845
v 0.017560 0.008605 -0.013847
v 0.017560 0.008606 -0.013846
v 0.017560 0.008823 -0.013780
v 0.017560 0.008894 -0.013715
v 0.017560 0.008890 -0.013719
v 0.017560 0.008886 -0.013724
v 0.017560 0.008899 -0.013711
v 0.017560 0.008904 -0.013707
v 0.017560 0.008909 -0.013704
v 0.017560 0.008915 -0.013701
v 0.017560 0.008921 -0.013699
v 0.017560 0.008927 -0.013697
v 0.017560 0.008933 -0.013696
v 0.017560 0.008939 -0.013696
v 0.017560 0.008953 -0.013697
v 0.017560 0.008951 -0.013696
v 0.017560 0.008949 -0.013696
v 0.017560 0.008955 -0.013698
v 0.017560 0.008956 -0.013699
v 0.017560 0.008957 -0.013700
v 0.017560 0.008958 -0.013702
v 0.017560 0.009003 -0.013747
v 0.017560 0.008959 -0.013704
v 0.017560 0.008959 -0.013706
v 0.017560 0.008993 -0.013757
v 0.017560 0.008959 -0.013757
v 0.017560 0.008995 -0.013757
v 0.017560 0.008603 -0.014000
v 0.017560 0.009003 -0.014000
v 0.017560 0.009003 -0.014000
v 0.017560 0.008997 -0.013756
v 0.017560 0.008999 -0.013755
v 0.017560 0.009000 -0.013754
v 0.017560 0.009001 -0.013753
v 0.017560 0.009002 -0.013751
v 0.017560 0.009003 -0.013749
v 0.017560 0.009003 -0.013610
v 0.017567 0.009003 -0.013610
v 0.017560 0.009003 -0.013747
v 0.017560 0.009003 -0.013747
v 0.017567 0.009003 -0.013747
v 0.017560 0.009003 -0.013853
v 0.017567 0.009003 -0.013853
v 0.017560 0.009003 -0.014000
v 0.017560 0.009003 -0.014000
v 0.017567 0.009003 -0.013853
v 0.017567 0.009003 -0.014000
v 0.017600 0.008970 -0.013679
v 0.017567 0.009003 -0.013610
v 0.017600 0.008970 -0.013600
v 0.017600 0.008970 -0.013679
v 0.017600 0.008970 -0.013757
v 0.017567 0.009003 -0.013747
v 0.017577 0.008993 -0.013600
v 0.017600 0.008970 -0.013600
v 0.017567 0.009003 -0.013610
v 0.017575 0.008995 -0.013600
v 0.017567 0.009003 -0.013610
v 0.017573 0.008997 -0.013601
v 0.017567 0.009003 -0.013610
v 0.017571 0.008999 -0.013602
v 0.017567 0.009003 -0.013610
v 0.017570 0.009000 -0.013603
v 0.017568 0.009002 -0.013606
v 0.017569 0.009001 -0.013604
v 0.017567 0.009003 -0.013610
v 0.017567 0.009003 -0.013610
v 0.017567 0.009003 -0.013608
v 0.017567 0.009003 -0.013610
v 0.017567 0.009003 -0.013610
v 0.017567 0.009003 -0.013610
v 0.017600 0.008970 -0.013679
v 0.017567 0.009003 -0.013747
v 0.017567 0.009003 -0.013747
v 0.017600 0.008970 -0.013757
v 0.017577 0.008993 -0.013757
v 0.017575 0.008995 -0.013757
v 0.017567 0.009003 -0.013747
v 0.017573 0.008997 -0.013756
v 0.017567 0.009003 -0.013747
v 0.017567 0.009003 -0.013747
v 0.017570 0.009000 -0.013754
v 0.017569 0.009001 -0.013753
v 0.017567 0.009003 -0.013747
v 0.017571 0.008999 -0.013755
v 0.017567 0.009003 -0.013749
v 0.017567 0.009003 -0.013747
v 0.017568 0.009002 -0.013751
v 0.017567 0.009003 -0.013747
v 0.017567 0.009003 -0.013747
v 0.017560 0.008603 -0.013747
v 0.017567 0.008603 -0.013747
v 0.017560 0.008603 -0.013610
v 0.017560 0.008603 -0.013610
v 0.017567 0.008603 -0.013610
v 0.017600 0.008636 -0.013679
v 0.017567 0.008603 -0.013747
v 0.017600 0.008636 -0.013757
v 0.017600 0.008636 -0.013679
v 0.017600 0.008636 -0.013600
v 0.017567 0.008603 -0.013610
v 0.017577 0.008613 -0.013757
v 0.017600 0.008636 -0.013757
v 0.017567 0.008603 -0.013747
v 0.017575 0.008611 -0.013757
v 0.017567 0.008603 -0.013747
v 0.017573 0.008609 -0.013756
v 0.017567 0.008603 -0.013747
v 0.017571 0.008607 -0.013755
v 0.017567 0.008603 -0.013747
v 0.017570 0.008606 -0.013754
v 0.017568 0.008604 -0.013751
v 0.017569 0.008605 -0.013753
v 0.017567 0.008603 -0.013747
v 0.017567 0.008603 -0.013747
v 0.017567 0.008603 -0.013749
v 0.017567 0.008603 -0.013747
v 0.017567 0.008603 -0.013747
v 0.017567 0.008603 -0.013747
v 0.017600 0.008636 -0.013679
v 0.017567 0.008603 -0.013610
v 0.017567 0.008603 -0.013610
v 0.017600 0.008636 -0.013600
v 0.017577 0.008613 -0.013600
v 0.017575 0.008611 -0.013600
v 0.017567 0.008603 -0.013610
v 0.017573 0.008609 -0.013601
v 0.017567 0.008603 -0.013610
v 0.017567 0.008603 -0.013610
v 0.017570 0.008606 -0.013603
v 0.017569 0.008605 -0.013604
v 0.017567 0.008603 -0.013610
v 0.017571 0.008607 -0.013602
v 0.017567 0.008603 -0.013608
v 0.017567 0.008603 -0.013610
v 0.017568 0.008604 -0.013606
v 0.017567 0.008603 -0.013610
v 0.017567 0.008603 -0.013610
v 0.017600 0.008970 -0.013600
v 0.017560 0.008803 -0.013600
v 0.017600 0.008636 -0.013600
v 0.017600 0.008970 -0.013600
v 0.017577 0.008993 -0.013600
v 0.017560 0.008993 -0.013600
v 0.017600 0.008636 -0.013600
v 0.017560 0.008803 -0.013600
v 0.017560 0.008613 -0.013600
v 0.017577 0.008613 -0.013600
v 0.017600 0.008636 -0.013600
v 0.017560 0.008613 -0.013600
v 0.017560 0.008803 -0.013600
v 0.017600 0.008970 -0.013600
v 0.017560 0.008993 -0.013600
v 0.017560 0.008603 -0.014000
v 0.017567 0.008603 -0.014000
v 0.017560 0.008603 -0.013853
v 0.017560 0.008603 -0.013853
v 0.017567 0.008603 -0.014000
v 0.017567 0.008603 -0.013853
v 0.017560 0.008731 -0.013840
v 0.017600 0.008731 -0.013840
v 0.017560 0.008731 -0.013760
v 0.017600 0.008731 -0.013840
v 0.017600 0.008731 -0.013760
v 0.017560 0.008731 -0.013760
v 0.017560 0.008673 -0.013696
v 0.017560 0.008679 -0.013697
v 0.017600 0.008673 -0.013696
v 0.017560 0.008679 -0.013697
v 0.017560 0.008685 -0.013699
v 0.017600 0.008679 -0.013697
v 0.017560 0.008685 -0.013699
v 0.017600 0.008685 -0.013699
v 0.017600 0.008679 -0.013697
v 0.017560 0.008691 -0.013701
v 0.017600 0.008691 -0.013701
v 0.017600 0.008685 -0.013699
v 0.017560 0.008697 -0.013704
v 0.017600 0.008691 -0.013701
v 0.017560 0.008691 -0.013701
v 0.017560 0.008702 -0.013707
v 0.017600 0.008697 -0.013704
v 0.017560 0.008697 -0.013704
v 0.017600 0.008702 -0.013707
v 0.017600 0.008697 -0.013704
v 0.017560 0.008702 -0.013707
v 0.017600 0.008707 -0.013711
v 0.017600 0.008702 -0.013707
v 0.017560 0.008707 -0.013711
v 0.017600 0.008707 -0.013711
v 0.017560 0.008707 -0.013711
v 0.017560 0.008712 -0.013715
v 0.017600 0.008712 -0.013715
v 0.017560 0.008712 -0.013715
v 0.017560 0.008716 -0.013719
v 0.017600 0.008712 -0.013715
v 0.017560 0.008716 -0.013719
v 0.017600 0.008716 -0.013719
v 0.017600 0.008716 -0.013719
v 0.017560 0.008720 -0.013724
v 0.017600 0.008720 -0.013724
v 0.017560 0.008720 -0.013724
v 0.017560 0.008723 -0.013730
v 0.017600 0.008720 -0.013724
v 0.017560 0.008723 -0.013730
v 0.017560 0.008726 -0.013736
v 0.017600 0.008723 -0.013730
v 0.017560 0.008726 -0.013736
v 0.017600 0.008726 -0.013736
v 0.017600 0.008723 -0.013730
v 0.017560 0.008673 -0.013696
v 0.017600 0.008673 -0.013696
v 0.017560 0.008666 -0.013696
v 0.017600 0.008730 -0.013754
v 0.017560 0.008731 -0.013760
v 0.017600 0.008731 -0.013760
v 0.017560 0.008730 -0.013754
v 0.017560 0.008731 -0.013760
v 0.017600 0.008730 -0.013754
v 0.017560 0.008730 -0.013754
v 0.017600 0.008730 -0.013754
v 0.017600 0.008729 -0.013748
v 0.017560 0.008730 -0.013754
v 0.017600 0.008729 -0.013748
v 0.017560 0.008729 -0.013748
v 0.017600 0.008729 -0.013748
v 0.017600 0.008728 -0.013741
v 0.017560 0.008729 -0.013748
v 0.017600 0.008728 -0.013741
v 0.017560 0.008728 -0.013741
v 0.017560 0.008729 -0.013748
v 0.017600 0.008726 -0.013736
v 0.017560 0.008728 -0.013741
v 0.017600 0.008728 -0.013741
v 0.017560 0.008726 -0.013736
v 0.017560 0.008728 -0.013741
v 0.017600 0.008726 -0.013736
v 0.017600 0.008720 -0.013724
v 0.017560 0.008723 -0.013730
v 0.017600 0.008723 -0.013730
v 0.017600 0.008716 -0.013719
v 0.017560 0.008716 -0.013719
v 0.017560 0.008720 -0.013724
v 0.017600 0.008712 -0.013715
v 0.017600 0.008707 -0.013711
v 0.017560 0.008712 -0.013715
v 0.017560 0.008707 -0.013711
v 0.017600 0.008702 -0.013707
v 0.017560 0.008702 -0.013707
v 0.017560 0.008697 -0.013704
v 0.017600 0.008697 -0.013704
v 0.017600 0.008691 -0.013701
v 0.017560 0.008685 -0.013699
v 0.017560 0.008691 -0.013701
v 0.017600 0.008685 -0.013699
v 0.017600 0.008673 -0.013696
v 0.017600 0.008666 -0.013696
v 0.017560 0.008666 -0.013696
v 0.017560 0.008679 -0.013697
v 0.017600 0.008679 -0.013697
v 0.017600 0.008673 -0.013696
v 0.017600 0.008657 -0.013696
v 0.017560 0.008657 -0.013696
v 0.017600 0.008666 -0.013696
v 0.017560 0.008657 -0.013696
v 0.017560 0.008666 -0.013696
v 0.017600 0.008666 -0.013696
v 0.017560 0.008647 -0.013706
v 0.017600 0.008647 -0.013706
v 0.017560 0.008647 -0.013757
v 0.017600 0.008647 -0.013706
v 0.017600 0.008647 -0.013757
v 0.017560 0.008647 -0.013757
v 0.017600 0.008647 -0.013894
v 0.017560 0.008647 -0.013894
v 0.017600 0.008647 -0.013843
v 0.017560 0.008647 -0.013894
v 0.017560 0.008647 -0.013843
v 0.017600 0.008647 -0.013843
v 0.017560 0.008657 -0.013904
v 0.017600 0.008657 -0.013904
v 0.017560 0.008666 -0.013904
v 0.017600 0.008657 -0.013904
v 0.017600 0.008666 -0.013904
v 0.017560 0.008666 -0.013904
v 0.017560 0.008730 -0.013846
v 0.017560 0.008729 -0.013852
v 0.017600 0.008730 -0.013846
v 0.017560 0.008729 -0.013852
v 0.017560 0.008728 -0.013859
v 0.017600 0.008729 -0.013852
v 0.017560 0.008728 -0.013859
v 0.017600 0.008728 -0.013859
v 0.017600 0.008729 -0.013852
v 0.017560 0.008726 -0.013864
v 0.017600 0.008726 -0.013864
v 0.017600 0.008728 -0.013859
v 0.017560 0.008723 -0.013870
v 0.017600 0.008726 -0.013864
v 0.017560 0.008726 -0.013864
v 0.017560 0.008720 -0.013876
v 0.017600 0.008723 -0.013870
v 0.017560 0.008723 -0.013870
v 0.017600 0.008720 -0.013876
v 0.017600 0.008723 -0.013870
v 0.017560 0.008720 -0.013876
v 0.017600 0.008716 -0.013881
v 0.017600 0.008720 -0.013876
v 0.017560 0.008716 -0.013881
v 0.017600 0.008716 -0.013881
v 0.017560 0.008716 -0.013881
v 0.017560 0.008712 -0.013885
v 0.017600 0.008712 -0.013885
v 0.017560 0.008712 -0.013885
v 0.017560 0.008707 -0.013889
v 0.017600 0.008712 -0.013885
v 0.017560 0.008707 -0.013889
v 0.017600 0.008707 -0.013889
v 0.017600 0.008707 -0.013889
v 0.017560 0.008702 -0.013893
v 0.017600 0.008702 -0.013893
v 0.017560 0.008702 -0.013893
v 0.017560 0.008697 -0.013896
v 0.017600 0.008702 -0.013893
v 0.017560 0.008697 -0.013896
v 0.017560 0.008691 -0.013899
v 0.017600 0.008697 -0.013896
v 0.017560 0.008691 -0.013899
v 0.017600 0.008691 -0.013899
v 0.017600 0.008697 -0.013896
v 0.017560 0.008730 -0.013846
v 0.017600 0.008730 -0.013846
v 0.017560 0.008731 -0.013840
v 0.017600 0.008673 -0.013904
v 0.017560 0.008666 -0.013904
v 0.017600 0.008666 -0.013904
v 0.017560 0.008673 -0.013904
v 0.017560 0.008666 -0.013904
v 0.017600 0.008673 -0.013904
v 0.017560 0.008673 -0.013904
v 0.017600 0.008673 -0.013904
v 0.017600 0.008679 -0.013903
v 0.017560 0.008673 -0.013904
v 0.017600 0.008679 -0.013903
v 0.017560 0.008679 -0.013903
v 0.017600 0.008679 -0.013903
v 0.017600 0.008685 -0.013901
v 0.017560 0.008679 -0.013903
v 0.017600 0.008685 -0.013901
v 0.017560 0.008685 -0.013901
v 0.017560 0.008679 -0.013903
v 0.017600 0.008691 -0.013899
v 0.017560 0.008685 -0.013901
v 0.017600 0.008685 -0.013901
v 0.017560 0.008691 -0.013899
v 0.017560 0.008685 -0.013901
v 0.017600 0.008691 -0.013899
v 0.017600 0.008702 -0.013893
v 0.017560 0.008697 -0.013896
v 0.017600 0.008697 -0.013896
v 0.017600 0.008707 -0.013889
v 0.017560 0.008707 -0.013889
v 0.017560 0.008702 -0.013893
v 0.017600 0.008712 -0.013885
v 0.017600 0.008716 -0.013881
v 0.017560 0.008712 -0.013885
v 0.017560 0.008716 -0.013881
v 0.017600 0.008720 -0.013876
v 0.017560 0.008720 -0.013876
v 0.017560 0.008723 -0.013870
v 0.017600 0.008723 -0.013870
v 0.017600 0.008726 -0.013864
v 0.017560 0.008728 -0.013859
v 0.017560 0.008726 -0.013864
v 0.017600 0.008728 -0.013859
v 0.017600 0.008730 -0.013846
v 0.017600 0.008731 -0.013840
v 0.017560 0.008731 -0.013840
v 0.017560 0.008729 -0.013852
v 0.017600 0.008729 -0.013852
v 0.017600 0.008730 -0.013846
v 0.017577 0.008613 -0.013757
v 0.017560 0.008647 -0.013757
v 0.017600 0.008636 -0.013757
v 0.017560 0.008613 -0.013757
v 0.017560 0.008647 -0.013757
v 0.017577 0.008613 -0.013757
v 0.017600 0.008647 -0.013757
v 0.017600 0.008636 -0.013757
v 0.017560 0.008647 -0.013757
v 0.017560 0.008613 -0.013843
v 0.017577 0.008613 -0.013843
v 0.017560 0.008647 -0.013843
v 0.017600 0.008636 -0.013843
v 0.017600 0.008647 -0.013843
v 0.017560 0.008647 -0.013843
v 0.017577 0.008613 -0.013843
v 0.017600 0.008636 -0.013843
v 0.017560 0.008647 -0.013843
v 0.017560 0.008875 -0.013840
v 0.017560 0.008875 -0.013760
v 0.017600 0.008875 -0.013840
v 0.017600 0.008875 -0.013840
v 0.017560 0.008875 -0.013760
v 0.017600 0.008875 -0.013760
v 0.017600 0.008939 -0.013696
v 0.017600 0.008933 -0.013696
v 0.017560 0.008939 -0.013696
v 0.017600 0.008933 -0.013696
v 0.017560 0.008933 -0.013696
v 0.017560 0.008939 -0.013696
v 0.017600 0.008927 -0.013697
v 0.017560 0.008933 -0.013696
v 0.017600 0.008933 -0.013696
v 0.017560 0.008927 -0.013697
v 0.017560 0.008933 -0.013696
v 0.017600 0.008927 -0.013697
v 0.017560 0.008927 -0.013697
v 0.017600 0.008927 -0.013697
v 0.017600 0.008921 -0.013699
v 0.017560 0.008927 -0.013697
v 0.017600 0.008921 -0.013699
v 0.017560 0.008921 -0.013699
v 0.017600 0.008921 -0.013699
v 0.017600 0.008915 -0.013701
v 0.017560 0.008921 -0.013699
v 0.017600 0.008915 -0.013701
v 0.017560 0.008915 -0.013701
v 0.017560 0.008921 -0.013699
v 0.017600 0.008909 -0.013704
v 0.017560 0.008915 -0.013701
v 0.017600 0.008915 -0.013701
v 0.017560 0.008909 -0.013704
v 0.017560 0.008915 -0.013701
v 0.017600 0.008909 -0.013704
v 0.017560 0.008909 -0.013704
v 0.017600 0.008909 -0.013704
v 0.017600 0.008904 -0.013707
v 0.017560 0.008909 -0.013704
v 0.017600 0.008904 -0.013707
v 0.017560 0.008904 -0.013707
v 0.017600 0.008904 -0.013707
v 0.017600 0.008899 -0.013711
v 0.017560 0.008904 -0.013707
v 0.017600 0.008899 -0.013711
v 0.017560 0.008899 -0.013711
v 0.017560 0.008904 -0.013707
v 0.017560 0.008890 -0.013719
v 0.017600 0.008886 -0.013724
v 0.017560 0.008886 -0.013724
v 0.017560 0.008886 -0.013724
v 0.017600 0.008886 -0.013724
v 0.017600 0.008883 -0.013730
v 0.017560 0.008875 -0.013760
v 0.017560 0.008876 -0.013754
v 0.017600 0.008875 -0.013760
v 0.017560 0.008876 -0.013754
v 0.017600 0.008876 -0.013754
v 0.017600 0.008875 -0.013760
v 0.017560 0.008877 -0.013748
v 0.017600 0.008876 -0.013754
v 0.017560 0.008876 -0.013754
v 0.017600 0.008877 -0.013748
v 0.017600 0.008876 -0.013754
v 0.017560 0.008877 -0.013748
v 0.017600 0.008877 -0.013748
v 0.017560 0.008877 -0.013748
v 0.017560 0.008878 -0.013741
v 0.017600 0.008877 -0.013748
v 0.017560 0.008878 -0.013741
v 0.017600 0.008878 -0.013741
v 0.017560 0.008878 -0.013741
v 0.017560 0.008880 -0.013736
v 0.017600 0.008878 -0.013741
v 0.017560 0.008880 -0.013736
v 0.017600 0.008880 -0.013736
v 0.017600 0.008878 -0.013741
v 0.017560 0.008883 -0.013730
v 0.017600 0.008880 -0.013736
v 0.017560 0.008880 -0.013736
v 0.017600 0.008883 -0.013730
v 0.017600 0.008880 -0.013736
v 0.017560 0.008883 -0.013730
v 0.017600 0.008883 -0.013730
v 0.017560 0.008883 -0.013730
v 0.017560 0.008886 -0.013724
v 0.017600 0.008886 -0.013724
v 0.017560 0.008890 -0.013719
v 0.017600 0.008890 -0.013719
v 0.017560 0.008890 -0.013719
v 0.017560 0.008894 -0.013715
v 0.017600 0.008890 -0.013719
v 0.017560 0.008894 -0.013715
v 0.017600 0.008894 -0.013715
v 0.017600 0.008890 -0.013719
v 0.017560 0.008899 -0.013711
v 0.017600 0.008894 -0.013715
v 0.017560 0.008894 -0.013715
v 0.017560 0.008899 -0.013711
v 0.017600 0.008899 -0.013711
v 0.017600 0.008894 -0.013715
v 0.017600 0.008939 -0.013696
v 0.017560 0.008939 -0.013696
v 0.017600 0.008949 -0.013696
v 0.017600 0.008949 -0.013696
v 0.017560 0.008939 -0.013696
v 0.017560 0.008949 -0.013696
v 0.017560 0.008959 -0.013757
v 0.017600 0.008959 -0.013757
v 0.017560 0.008959 -0.013706
v 0.017560 0.008959 -0.013706
v 0.017600 0.008959 -0.013757
v 0.017600 0.008959 -0.013706
v 0.017600 0.008959 -0.013843
v 0.017560 0.008959 -0.013843
v 0.017600 0.008959 -0.013894
v 0.017600 0.008959 -0.013894
v 0.017560 0.008959 -0.013843
v 0.017560 0.008959 -0.013894
v 0.017560 0.008939 -0.013904
v 0.017600 0.008939 -0.013904
v 0.017560 0.008949 -0.013904
v 0.017560 0.008949 -0.013904
v 0.017600 0.008939 -0.013904
v 0.017600 0.008949 -0.013904
v 0.017600 0.008875 -0.013840
v 0.017600 0.008876 -0.013846
v 0.017560 0.008875 -0.013840
v 0.017600 0.008876 -0.013846
v 0.017600 0.008877 -0.013852
v 0.017560 0.008876 -0.013846
v 0.017600 0.008877 -0.013852
v 0.017560 0.008877 -0.013852
v 0.017560 0.008876 -0.013846
v 0.017600 0.008878 -0.013859
v 0.017560 0.008878 -0.013859
v 0.017560 0.008877 -0.013852
v 0.017600 0.008880 -0.013864
v 0.017560 0.008880 -0.013864
v 0.017560 0.008878 -0.013859
v 0.017600 0.008883 -0.013870
v 0.017560 0.008880 -0.013864
v 0.017600 0.008880 -0.013864
v 0.017600 0.008886 -0.013876
v 0.017560 0.008883 -0.013870
v 0.017600 0.008883 -0.013870
v 0.017560 0.008886 -0.013876
v 0.017560 0.008883 -0.013870
v 0.017600 0.008886 -0.013876
v 0.017560 0.008890 -0.013881
v 0.017560 0.008886 -0.013876
v 0.017600 0.008890 -0.013881
v 0.017560 0.008890 -0.013881
v 0.017600 0.008890 -0.013881
v 0.017600 0.008894 -0.013885
v 0.017560 0.008894 -0.013885
v 0.017600 0.008894 -0.013885
v 0.017600 0.008899 -0.013889
v 0.017560 0.008894 -0.013885
v 0.017600 0.008899 -0.013889
v 0.017560 0.008899 -0.013889
v 0.017560 0.008899 -0.013889
v 0.017600 0.008904 -0.013893
v 0.017560 0.008904 -0.013893
v 0.017600 0.008904 -0.013893
v 0.017600 0.008909 -0.013896
v 0.017560 0.008904 -0.013893
v 0.017600 0.008909 -0.013896
v 0.017600 0.008915 -0.013899
v 0.017560 0.008909 -0.013896
v 0.017600 0.008915 -0.013899
v 0.017560 0.008915 -0.013899
v 0.017560 0.008909 -0.013896
v 0.017560 0.008933 -0.013904
v 0.017600 0.008939 -0.013904
v 0.017560 0.008939 -0.013904
v 0.017600 0.008933 -0.013904
v 0.017600 0.008939 -0.013904
v 0.017560 0.008933 -0.013904
v 0.017600 0.008933 -0.013904
v 0.017560 0.008933 -0.013904
v 0.017560 0.008927 -0.013903
v 0.017600 0.008933 -0.013904
v 0.017560 0.008927 -0.013903
v 0.017600 0.008927 -0.013903
v 0.017560 0.008927 -0.013903
v 0.017560 0.008921 -0.013901
v 0.017600 0.008927 -0.013903
v 0.017560 0.008921 -0.013901
v 0.017600 0.008921 -0.013901
v 0.017600 0.008927 -0.013903
v 0.017560 0.008915 -0.013899
v 0.017600 0.008921 -0.013901
v 0.017560 0.008921 -0.013901
v 0.017600 0.008915 -0.013899
v 0.017600 0.008921 -0.013901
v 0.017560 0.008915 -0.013899
v 0.017560 0.008904 -0.013893
v 0.017600 0.008909 -0.013896
v 0.017560 0.008909 -0.013896
v 0.017560 0.008899 -0.013889
v 0.017600 0.008899 -0.013889
v 0.017600 0.008904 -0.013893
v 0.017560 0.008894 -0.013885
v 0.017560 0.008890 -0.013881
v 0.017600 0.008894 -0.013885
v 0.017600 0.008890 -0.013881
v 0.017560 0.008886 -0.013876
v 0.017600 0.008886 -0.013876
v 0.017600 0.008883 -0.013870
v 0.017560 0.008883 -0.013870
v 0.017560 0.008880 -0.013864
v 0.017600 0.008878 -0.013859
v 0.017600 0.008880 -0.013864
v 0.017560 0.008878 -0.013859
v 0.017560 0.008876 -0.013846
v 0.017560 0.008875 -0.013840
v 0.017600 0.008876 -0.013846
v 0.017560 0.008877 -0.013852
v 0.017600 0.008877 -0.013852
v 0.017600 0.008878 -0.013859
v 0.017600 0.008959 -0.013757
v 0.017560 0.008959 -0.013757
v 0.017600 0.008970 -0.013757
v 0.017577 0.008993 -0.013757
v 0.017560 0.008959 -0.013757
v 0.017560 0.008993 -0.013757
v 0.017577 0.008993 -0.013757
v 0.017600 0.008970 -0.013757
v 0.017560 0.008959 -0.013757
v 0.017600 0.008959 -0.013843
v 0.017600 0.008970 -0.013843
v 0.017560 0.008959 -0.013843
v 0.017560 0.008959 -0.013843
v 0.017600 0.008970 -0.013843
v 0.017577 0.008993 -0.013843
v 0.017577 0.008993 -0.013843
v 0.017560 0.008993 -0.013843
v 0.017560 0.008959 -0.013843
v 0.017567 0.009003 -0.013853
v 0.017560 0.009003 -0.013853
v 0.017560 0.009003 -0.013851
v 0.017567 0.009003 -0.013851
v 0.017567 0.009003 -0.013853
v 0.017560 0.009003 -0.013851
v 0.017560 0.009003 -0.013851
v 0.017560 0.009002 -0.013849
v 0.017567 0.009003 -0.013851
v 0.017567 0.009003 -0.013851
v 0.017560 0.009002 -0.013849
v 0.017568 0.009002 -0.013849
v 0.017568 0.009002 -0.013849
v 0.017560 0.009002 -0.013849
v 0.017560 0.009001 -0.013847
v 0.017569 0.009001 -0.013847
v 0.017568 0.009002 -0.013849
v 0.017560 0.009001 -0.013847
v 0.017560 0.009000 -0.013846
v 0.017569 0.009001 -0.013847
v 0.017560 0.009001 -0.013847
v 0.017560 0.008999 -0.013845
v 0.017570 0.009000 -0.013846
v 0.017560 0.009000 -0.013846
v 0.017560 0.009000 -0.013846
v 0.017570 0.009000 -0.013846
v 0.017569 0.009001 -0.013847
v 0.017575 0.008995 -0.013843
v 0.017560 0.008993 -0.013843
v 0.017577 0.008993 -0.013843
v 0.017575 0.008995 -0.013843
v 0.017560 0.008995 -0.013843
v 0.017560 0.008993 -0.013843
v 0.017575 0.008995 -0.013843
v 0.017573 0.008997 -0.013844
v 0.017560 0.008995 -0.013843
v 0.017560 0.008995 -0.013843
v 0.017573 0.008997 -0.013844
v 0.017560 0.008997 -0.013844
v 0.017560 0.008997 -0.013844
v 0.017573 0.008997 -0.013844
v 0.017571 0.008999 -0.013845
v 0.017560 0.008999 -0.013845
v 0.017560 0.008997 -0.013844
v 0.017571 0.008999 -0.013845
v 0.017570 0.009000 -0.013846
v 0.017560 0.008999 -0.013845
v 0.017571 0.008999 -0.013845
v 0.017560 0.008613 -0.013843
v 0.017575 0.008611 -0.013843
v 0.017577 0.008613 -0.013843
v 0.017560 0.008613 -0.013843
v 0.017560 0.008611 -0.013843
v 0.017575 0.008611 -0.013843
v 0.017575 0.008611 -0.013843
v 0.017560 0.008611 -0.013843
v 0.017573 0.008609 -0.013844
v 0.017573 0.008609 -0.013844
v 0.017560 0.008611 -0.013843
v 0.017560 0.008609 -0.013844
v 0.017560 0.008607 -0.013845
v 0.017560 0.008606 -0.013846
v 0.017570 0.008606 -0.013846
v 0.017571 0.008607 -0.013845
v 0.017560 0.008609 -0.013844
v 0.017560 0.008607 -0.013845
v 0.017560 0.008606 -0.013846
v 0.017560 0.008605 -0.013847
v 0.017569 0.008605 -0.013847
v 0.017571 0.008607 -0.013845
v 0.017573 0.008609 -0.013844
v 0.017560 0.008609 -0.013844
v 0.017560 0.008603 -0.013851
v 0.017560 0.008603 -0.013853
v 0.017567 0.008603 -0.013853
v 0.017567 0.008603 -0.013851
v 0.017560 0.008603 -0.013851
v 0.017567 0.008603 -0.013853
v 0.017567 0.008603 -0.013851
v 0.017560 0.008604 -0.013849
v 0.017560 0.008603 -0.013851
v 0.017567 0.008603 -0.013851
v 0.017568 0.008604 -0.013849
v 0.017560 0.008604 -0.013849
v 0.017560 0.008604 -0.013849
v 0.017568 0.008604 -0.013849
v 0.017560 0.008605 -0.013847
v 0.017560 0.008605 -0.013847
v 0.017568 0.008604 -0.013849
v 0.017569 0.008605 -0.013847
v 0.017560 0.008606 -0.013846
v 0.017569 0.008605 -0.013847
v 0.017570 0.008606 -0.013846
v 0.017570 0.008606 -0.013846
v 0.017571 0.008607 -0.013845
v 0.017560 0.008607 -0.013845
v 0.017560 0.008603 -0.013747
v 0.017560 0.008603 -0.013749
v 0.017567 0.008603 -0.013749
v 0.017560 0.008603 -0.013749
v 0.017560 0.008603 -0.013749
v 0.017560 0.008604 -0.013751
v 0.017567 0.008603 -0.013749
v 0.017567 0.008603 -0.013749
v 0.017560 0.008604 -0.013751
v 0.017568 0.008604 -0.013751
v 0.017568 0.008604 -0.013751
v 0.017560 0.008604 -0.013751
v 0.017560 0.008605 -0.013753
v 0.017569 0.008605 -0.013753
v 0.017568 0.008604 -0.013751
v 0.017560 0.008605 -0.013753
v 0.017560 0.008606 -0.013754
v 0.017569 0.008605 -0.013753
v 0.017560 0.008605 -0.013753
v 0.017560 0.008607 -0.013755
v 0.017570 0.008606 -0.013754
v 0.017560 0.008606 -0.013754
v 0.017560 0.008606 -0.013754
v 0.017570 0.008606 -0.013754
v 0.017569 0.008605 -0.013753
v 0.017575 0.008611 -0.013757
v 0.017560 0.008613 -0.013757
v 0.017577 0.008613 -0.013757
v 0.017575 0.008611 -0.013757
v 0.017560 0.008611 -0.013757
v 0.017560 0.008613 -0.013757
v 0.017575 0.008611 -0.013757
v 0.017573 0.008609 -0.013756
v 0.017560 0.008611 -0.013757
v 0.017560 0.008611 -0.013757
v 0.017573 0.008609 -0.013756
v 0.017560 0.008609 -0.013756
v 0.017560 0.008609 -0.013756
v 0.017573 0.008609 -0.013756
v 0.017571 0.008607 -0.013755
v 0.017560 0.008607 -0.013755
v 0.017560 0.008609 -0.013756
v 0.017571 0.008607 -0.013755
v 0.017570 0.008606 -0.013754
v 0.017560 0.008607 -0.013755
v 0.017571 0.008607 -0.013755
v 0.017560 0.008655 -0.013904
v 0.017560 0.008653 -0.013903
v 0.017600 0.008655 -0.013904
v 0.017560 0.008653 -0.013903
v 0.017560 0.008651 -0.013902
v 0.017600 0.008653 -0.013903
v 0.017560 0.008651 -0.013902
v 0.017600 0.008651 -0.013902
v 0.017600 0.008653 -0.013903
v 0.017560 0.008650 -0.013901
v 0.017600 0.008650 -0.013901
v 0.017600 0.008651 -0.013902
v 0.017560 0.008649 -0.013900
v 0.017600 0.008650 -0.013901
v 0.017560 0.008650 -0.013901
v 0.017560 0.008648 -0.013898
v 0.017600 0.008649 -0.013900
v 0.017560 0.008649 -0.013900
v 0.017600 0.008648 -0.013898
v 0.017600 0.008649 -0.013900
v 0.017560 0.008648 -0.013898
v 0.017560 0.008655 -0.013904
v 0.017600 0.008655 -0.013904
v 0.017560 0.008657 -0.013904
v 0.017600 0.008647 -0.013896
v 0.017560 0.008647 -0.013894
v 0.017600 0.008647 -0.013894
v 0.017560 0.008647 -0.013896
v 0.017560 0.008647 -0.013894
v 0.017600 0.008647 -0.013896
v 0.017560 0.008647 -0.013896
v 0.017600 0.008647 -0.013896
v 0.017600 0.008648 -0.013898
v 0.017560 0.008647 -0.013896
v 0.017600 0.008648 -0.013898
v 0.017560 0.008648 -0.013898
v 0.017560 0.008649 -0.013900
v 0.017600 0.008649 -0.013900
v 0.017600 0.008650 -0.013901
v 0.017560 0.008651 -0.013902
v 0.017560 0.008650 -0.013901
v 0.017600 0.008651 -0.013902
v 0.017600 0.008655 -0.013904
v 0.017600 0.008657 -0.013904
v 0.017560 0.008657 -0.013904
v 0.017560 0.008653 -0.013903
v 0.017600 0.008653 -0.013903
v 0.017600 0.008655 -0.013904
v 0.017560 0.008647 -0.013704
v 0.017560 0.008648 -0.013702
v 0.017600 0.008647 -0.013704
v 0.017560 0.008648 -0.013702
v 0.017560 0.008649 -0.013700
v 0.017600 0.008648 -0.013702
v 0.017560 0.008649 -0.013700
v 0.017600 0.008649 -0.013700
v 0.017600 0.008648 -0.013702
v 0.017560 0.008650 -0.013699
v 0.017600 0.008650 -0.013699
v 0.017600 0.008649 -0.013700
v 0.017560 0.008651 -0.013698
v 0.017600 0.008650 -0.013699
v 0.017560 0.008650 -0.013699
v 0.017560 0.008653 -0.013697
v 0.017600 0.008651 -0.013698
v 0.017560 0.008651 -0.013698
v 0.017600 0.008653 -0.013697
v 0.017600 0.008651 -0.013698
v 0.017560 0.008653 -0.013697
v 0.017560 0.008647 -0.013704
v 0.017600 0.008647 -0.013704
v 0.017560 0.008647 -0.013706
v 0.017600 0.008655 -0.013696
v 0.017560 0.008657 -0.013696
v 0.017600 0.008657 -0.013696
v 0.017560 0.008655 -0.013696
v 0.017560 0.008657 -0.013696
v 0.017600 0.008655 -0.013696
v 0.017560 0.008655 -0.013696
v 0.017600 0.008655 -0.013696
v 0.017600 0.008653 -0.013697
v 0.017560 0.008655 -0.013696
v 0.017600 0.008653 -0.013697
v 0.017560 0.008653 -0.013697
v 0.017560 0.008651 -0.013698
v 0.017600 0.008651 -0.013698
v 0.017600 0.008650 -0.013699
v 0.017560 0.008649 -0.013700
v 0.017560 0.008650 -0.013699
v 0.017600 0.008649 -0.013700
v 0.017600 0.008647 -0.013704
v 0.017600 0.008647 -0.013706
v 0.017560 0.008647 -0.013706
v 0.017560 0.008648 -0.013702
v 0.017600 0.008648 -0.013702
v 0.017600 0.008647 -0.013704
v 0.017560 0.008959 -0.013896
v 0.017560 0.008958 -0.013898
v 0.017600 0.008959 -0.013896
v 0.017560 0.008958 -0.013898
v 0.017560 0.008957 -0.013900
v 0.017600 0.008958 -0.013898
v 0.017560 0.008957 -0.013900
v 0.017600 0.008957 -0.013900
v 0.017600 0.008958 -0.013898
v 0.017560 0.008956 -0.013901
v 0.017600 0.008956 -0.013901
v 0.017600 0.008957 -0.013900
v 0.017560 0.008955 -0.013902
v 0.017600 0.008956 -0.013901
v 0.017560 0.008956 -0.013901
v 0.017560 0.008953 -0.013903
v 0.017600 0.008955 -0.013902
v 0.017560 0.008955 -0.013902
v 0.017600 0.008953 -0.013903
v 0.017600 0.008955 -0.013902
v 0.017560 0.008953 -0.013903
v 0.017560 0.008949 -0.013904
v 0.017600 0.008949 -0.013904
v 0.017600 0.008951 -0.013904
v 0.017560 0.008949 -0.013904
v 0.017600 0.008951 -0.013904
v 0.017560 0.008951 -0.013904
v 0.017600 0.008951 -0.013904
v 0.017600 0.008953 -0.013903
v 0.017560 0.008951 -0.013904
v 0.017560 0.008959 -0.013896
v 0.017600 0.008959 -0.013896
v 0.017560 0.008959 -0.013894
v 0.017560 0.008953 -0.013903
v 0.017560 0.008951 -0.013904
v 0.017600 0.008953 -0.013903
v 0.017600 0.008959 -0.013896
v 0.017600 0.008959 -0.013894
v 0.017560 0.008959 -0.013894
v 0.017600 0.008959 -0.013896
v 0.017560 0.008958 -0.013898
v 0.017600 0.008958 -0.013898
v 0.017560 0.008957 -0.013900
v 0.017560 0.008956 -0.013901
v 0.017600 0.008957 -0.013900
v 0.017560 0.008955 -0.013902
v 0.017600 0.008955 -0.013902
v 0.017600 0.008956 -0.013901
v 0.017560 0.008993 -0.013600
v 0.017577 0.008993 -0.013600
v 0.017575 0.008995 -0.013600
v 0.017560 0.008995 -0.013600
v 0.017560 0.008993 -0.013600
v 0.017575 0.008995 -0.013600
v 0.017573 0.008997 -0.013601
v 0.017560 0.008995 -0.013600
v 0.017575 0.008995 -0.013600
v 0.017573 0.008997 -0.013601
v 0.017560 0.008997 -0.013601
v 0.017560 0.008995 -0.013600
v 0.017573 0.008997 -0.013601
v 0.017571 0.008999 -0.013602
v 0.017560 0.008997 -0.013601
v 0.017560 0.008997 -0.013601
v 0.017571 0.008999 -0.013602
v 0.017560 0.008999 -0.013602
v 0.017560 0.008999 -0.013602
v 0.017570 0.009000 -0.013603
v 0.017560 0.009000 -0.013603
v 0.017560 0.009003 -0.013610
v 0.017560 0.009003 -0.013608
v 0.017560 0.009003 -0.013608
v 0.017567 0.009003 -0.013608
v 0.017560 0.009003 -0.013608
v 0.017560 0.009002 -0.013606
v 0.017567 0.009003 -0.013608
v 0.017567 0.009003 -0.013608
v 0.017560 0.009002 -0.013606
v 0.017568 0.009002 -0.013606
v 0.017568 0.009002 -0.013606
v 0.017560 0.009002 -0.013606
v 0.017560 0.009001 -0.013604
v 0.017569 0.009001 -0.013604
v 0.017568 0.009002 -0.013606
v 0.017560 0.009001 -0.013604
v 0.017560 0.009000 -0.013603
v 0.017569 0.009001 -0.013604
v 0.017560 0.009001 -0.013604
v 0.017560 0.009000 -0.013603
v 0.017570 0.009000 -0.013603
v 0.017569 0.009001 -0.013604
v 0.017570 0.009000 -0.013603
v 0.017560 0.008999 -0.013602
v 0.017571 0.008999 -0.013602
v 0.017560 0.008603 -0.013610
v 0.017560 0.008603 -0.013608
v 0.017560 0.008603 -0.013608
v 0.017567 0.008603 -0.013608
v 0.017560 0.008604 -0.013606
v 0.017560 0.008603 -0.013608
v 0.017567 0.008603 -0.013608
v 0.017568 0.008604 -0.013606
v 0.017560 0.008604 -0.013606
v 0.017567 0.008603 -0.013608
v 0.017568 0.008604 -0.013606
v 0.017560 0.008605 -0.013604
v 0.017560 0.008604 -0.013606
v 0.017568 0.008604 -0.013606
v 0.017569 0.008605 -0.013604
v 0.017560 0.008605 -0.013604
v 0.017560 0.008605 -0.013604
v 0.017569 0.008605 -0.013604
v 0.017560 0.008606 -0.013603
v 0.017560 0.008606 -0.013603
v 0.017569 0.008605 -0.013604
v 0.017570 0.008606 -0.013603
v 0.017560 0.008607 -0.013602
v 0.017560 0.008606 -0.013603
v 0.017570 0.008606 -0.013603
v 0.017577 0.008613 -0.013600
v 0.017560 0.008613 -0.013600
v 0.017575 0.008611 -0.013600
v 0.017575 0.008611 -0.013600
v 0.017560 0.008613 -0.013600
v 0.017560 0.008611 -0.013600
v 0.017573 0.008609 -0.013601
v 0.017575 0.008611 -0.013600
v 0.017560 0.008611 -0.013600
v 0.017571 0.008607 -0.013602
v 0.017560 0.008609 -0.013601
v 0.017560 0.008607 -0.013602
v 0.017571 0.008607 -0.013602
v 0.017573 0.008609 -0.013601
v 0.017560 0.008609 -0.013601
v 0.017570 0.008606 -0.013603
v 0.017571 0.008607 -0.013602
v 0.017560 0.008607 -0.013602
v 0.017573 0.008609 -0.013601
v 0.017560 0.008611 -0.013600
v 0.017560 0.008609 -0.013601
v 0.017560 0.008951 -0.013696
v 0.017600 0.008951 -0.013696
v 0.017560 0.008949 -0.013696
v 0.017560 0.008953 -0.013697
v 0.017600 0.008951 -0.013696
v 0.017560 0.008951 -0.013696
v 0.017560 0.008955 -0.013698
v 0.017600 0.008953 -0.013697
v 0.017560 0.008953 -0.013697
v 0.017600 0.008955 -0.013698
v 0.017600 0.008953 -0.013697
v 0.017560 0.008955 -0.013698
v 0.017600 0.008956 -0.013699
v 0.017600 0.008955 -0.013698
v 0.017560 0.008956 -0.013699
v 0.017600 0.008956 -0.013699
v 0.017560 0.008956 -0.013699
v 0.017560 0.008957 -0.013700
v 0.017600 0.008957 -0.013700
v 0.017560 0.008957 -0.013700
v 0.017560 0.008958 -0.013702
v 0.017600 0.008959 -0.013706
v 0.017600 0.008959 -0.013704
v 0.017560 0.008959 -0.013706
v 0.017600 0.008959 -0.013704
v 0.017560 0.008959 -0.013704
v 0.017560 0.008959 -0.013706
v 0.017600 0.008958 -0.013702
v 0.017560 0.008959 -0.013704
v 0.017600 0.008959 -0.013704
v 0.017560 0.008958 -0.013702
v 0.017560 0.008959 -0.013704
v 0.017600 0.008958 -0.013702
v 0.017560 0.008958 -0.013702
v 0.017600 0.008958 -0.013702
v 0.017600 0.008957 -0.013700
v 0.017560 0.008957 -0.013700
v 0.017600 0.008957 -0.013700
v 0.017600 0.008956 -0.013699
v 0.017560 0.008955 -0.013698
v 0.017560 0.008956 -0.013699
v 0.017600 0.008955 -0.013698
v 0.017600 0.008951 -0.013696
v 0.017600 0.008949 -0.013696
v 0.017560 0.008949 -0.013696
v 0.017560 0.008953 -0.013697
v 0.017600 0.008953 -0.013697
v 0.017600 0.008951 -0.013696
v 0.017560 0.008993 -0.013757
v 0.017575 0.008995 -0.013757
v 0.017577 0.008993 -0.013757
v 0.017560 0.008993 -0.013757
v 0.017560 0.008995 -0.013757
v 0.017575 0.008995 -0.013757
v 0.017575 0.008995 -0.013757
v 0.017560 0.008995 -0.013757
v 0.017573 0.008997 -0.013756
v 0.017573 0.008997 -0.013756
v 0.017560 0.008995 -0.013757
v 0.017560 0.008997 -0.013756
v 0.017560 0.008999 -0.013755
v 0.017560 0.009000 -0.013754
v 0.017570 0.009000 -0.013754
v 0.017571 0.008999 -0.013755
v 0.017560 0.008997 -0.013756
v 0.017560 0.008999 -0.013755
v 0.017560 0.009000 -0.013754
v 0.017560 0.009001 -0.013753
v 0.017569 0.009001 -0.013753
v 0.017571 0.008999 -0.013755
v 0.017573 0.008997 -0.013756
v 0.017560 0.008997 -0.013756
v 0.017560 0.009003 -0.013749
v 0.017560 0.009003 -0.013747
v 0.017567 0.009003 -0.013749
v 0.017560 0.009003 -0.013749
v 0.017567 0.009003 -0.013749
v 0.017560 0.009002 -0.013751
v 0.017560 0.009003 -0.013749
v 0.017567 0.009003 -0.013749
v 0.017568 0.009002 -0.013751
v 0.017560 0.009002 -0.013751
v 0.017560 0.009002 -0.013751
v 0.017568 0.009002 -0.013751
v 0.017560 0.009001 -0.013753
v 0.017560 0.009001 -0.013753
v 0.017568 0.009002 -0.013751
v 0.017569 0.009001 -0.013753
v 0.017560 0.009000 -0.013754
v 0.017569 0.009001 -0.013753
v 0.017570 0.009000 -0.013754
v 0.017570 0.009000 -0.013754
v 0.017571 0.008999 -0.013755
v 0.017560 0.008999 -0.013755
v 0.017510 0.008773 -0.013780
v 0.017510 0.008773 -0.013820
v 0.017560 0.008773 -0.013780
v 0.017560 0.008773 -0.013820
v 0.017560 0.008773 -0.013780
v 0.017470 0.008780 -0.013780
v 0.017510 0.008773 -0.013780
v 0.017470 0.008783 -0.013780
v 0.017510 0.008773 -0.013780
v 0.017560 0.008783 -0.013780
v 0.017560 0.008773 -0.013780
v 0.017560 0.008783 -0.013780
v 0.017510 0.008773 -0.013780
v 0.017510 0.008783 -0.013770
v 0.017560 0.008783 -0.013780
v 0.017560 0.008783 -0.013770
v 0.017470 0.008783 -0.013780
v 0.017560 0.008783 -0.013780
v 0.017470 0.008783 -0.013780
v 0.017470 0.008783 -0.013777
v 0.017510 0.008823 -0.013770
v 0.017510 0.008783 -0.013770
v 0.017560 0.008823 -0.013770
v 0.017510 0.008783 -0.013770
v 0.017560 0.008783 -0.013770
v 0.017560 0.008823 -0.013770
v 0.017470 0.008823 -0.013777
v 0.017510 0.008823 -0.013770
v 0.017470 0.008823 -0.013780
v 0.017510 0.008823 -0.013770
v 0.017560 0.008823 -0.013780
v 0.017560 0.008823 -0.013770
v 0.017560 0.008823 -0.013780
v 0.017510 0.008823 -0.013770
v 0.017510 0.008833 -0.013780
v 0.017560 0.008823 -0.013780
v 0.017560 0.008833 -0.013780
v 0.017470 0.008823 -0.013780
v 0.017560 0.008823 -0.013780
v 0.017470 0.008823 -0.013780
v 0.017470 0.008826 -0.013780
v 0.017510 0.008833 -0.013820
v 0.017510 0.008833 -0.013780
v 0.017560 0.008833 -0.013820
v 0.017510 0.008833 -0.013780
v 0.017560 0.008833 -0.013780
v 0.017560 0.008833 -0.013820
v 0.017470 0.008826 -0.013820
v 0.017510 0.008833 -0.013820
v 0.017470 0.008823 -0.013820
v 0.017510 0.008833 -0.013820
v 0.017560 0.008823 -0.013820
v 0.017560 0.008833 -0.013820
v 0.017560 0.008823 -0.013820
v 0.017510 0.008833 -0.013820
v 0.017510 0.008823 -0.013830
v 0.017560 0.008823 -0.013820
v 0.017560 0.008823 -0.013830
v 0.017470 0.008823 -0.013820
v 0.017560 0.008823 -0.013820
v 0.017470 0.008823 -0.013820
v 0.017470 0.008823 -0.013823
v 0.017510 0.008783 -0.013830
v 0.017510 0.008823 -0.013830
v 0.017560 0.008783 -0.013830
v 0.017510 0.008823 -0.013830
v 0.017560 0.008823 -0.013830
v 0.017560 0.008783 -0.013830
v 0.017470 0.008783 -0.013823
v 0.017510 0.008783 -0.013830
v 0.017470 0.008783 -0.013820
v 0.017510 0.008783 -0.013830
v 0.017560 0.008783 -0.013820
v 0.017560 0.008783 -0.013830
v 0.017560 0.008783 -0.013820
v 0.017510 0.008783 -0.013830
v 0.017560 0.008807 -0.013820
v 0.017470 0.008807 -0.013820
v 0.017560 0.008803 -0.013820
v 0.017560 0.008811 -0.013818
v 0.017560 0.008814 -0.013817
v 0.017470 0.008811 -0.013818
v 0.017470 0.008814 -0.013817
v 0.017470 0.008817 -0.013814
v 0.017560 0.008817 -0.013814
v 0.017560 0.008820 -0.013811
v 0.017470 0.008820 -0.013811
v 0.017560 0.008821 -0.013808
v 0.017470 0.008821 -0.013808
v 0.017560 0.008823 -0.013804
v 0.017470 0.008823 -0.013804
v 0.017560 0.008823 -0.013800
v 0.017560 0.008823 -0.013796
v 0.017470 0.008823 -0.013800
v 0.017470 0.008823 -0.013796
v 0.017560 0.008821 -0.013792
v 0.017470 0.008821 -0.013792
v 0.017560 0.008820 -0.013789
v 0.017560 0.008817 -0.013786
v 0.017470 0.008820 -0.013789
v 0.017470 0.008817 -0.013786
v 0.017470 0.008814 -0.013783
v 0.017560 0.008814 -0.013783
v 0.017560 0.008811 -0.013782
v 0.017470 0.008811 -0.013782
v 0.017560 0.008807 -0.013780
v 0.017470 0.008807 -0.013780
v 0.017560 0.008803 -0.013780
v 0.017470 0.008803 -0.013780
v 0.017560 0.008799 -0.013780
v 0.017470 0.008799 -0.013780
v 0.017560 0.008795 -0.013782
v 0.017470 0.008795 -0.013782
v 0.017560 0.008792 -0.013783
v 0.017560 0.008783 -0.013800
v 0.017470 0.008783 -0.013800
v 0.017470 0.008783 -0.013796
v 0.017560 0.008783 -0.013804
v 0.017470 0.008783 -0.013804
v 0.017560 0.008785 -0.013808
v 0.017470 0.008785 -0.013808
v 0.017560 0.008786 -0.013811
v 0.017470 0.008786 -0.013811
v 0.017560 0.008789 -0.013814
v 0.017560 0.008792 -0.013817
v 0.017470 0.008789 -0.013814
v 0.017470 0.008792 -0.013817
v 0.017470 0.008795 -0.013818
v 0.017560 0.008795 -0.013818
v 0.017470 0.008799 -0.013820
v 0.017560 0.008799 -0.013820
v 0.017470 0.008803 -0.013820
v 0.017560 0.008783 -0.013796
v 0.017470 0.008785 -0.013792
v 0.017560 0.008785 -0.013792
v 0.017470 0.008786 -0.013789
v 0.017560 0.008786 -0.013789
v 0.017470 0.008789 -0.013786
v 0.017560 0.008789 -0.013786
v 0.017470 0.008792 -0.013783
v 0.017510 0.008773 -0.013820
v 0.017560 0.008783 -0.013820
v 0.017560 0.008773 -0.013820
v 0.017470 0.008783 -0.013820
v 0.017560 0.008783 -0.013820
v 0.017510 0.008773 -0.013820
v 0.017470 0.008783 -0.013820
v 0.017510 0.008773 -0.013820
v 0.017470 0.008780 -0.013820
v 0.017470 0.008803 -0.013823
v 0.017470 0.008803 -0.013820
v 0.017470 0.008807 -0.013820
v 0.017470 0.008780 -0.013780
v 0.017470 0.008783 -0.013780
v 0.017470 0.008786 -0.013789
v 0.017470 0.008780 -0.013820
v 0.017470 0.008785 -0.013808
v 0.017470 0.008786 -0.013811
v 0.017470 0.008795 -0.013818
v 0.017470 0.008799 -0.013820
v 0.017470 0.008783 -0.013823
v 0.017470 0.008792 -0.013817
v 0.017470 0.008795 -0.013818
v 0.017470 0.008823 -0.013823
v 0.017470 0.008811 -0.013818
v 0.017470 0.008814 -0.013817
v 0.017470 0.008826 -0.013800
v 0.017470 0.008821 -0.013808
v 0.017470 0.008823 -0.013804
v 0.017470 0.008826 -0.013820
v 0.017470 0.008820 -0.013811
v 0.017470 0.008821 -0.013808
v 0.017470 0.008826 -0.013780
v 0.017470 0.008821 -0.013792
v 0.017470 0.008820 -0.013789
v 0.017470 0.008803 -0.013777
v 0.017470 0.008811 -0.013782
v 0.017470 0.008807 -0.013780
v 0.017470 0.008823 -0.013777
v 0.017470 0.008814 -0.013783
v 0.017470 0.008811 -0.013782
v 0.017470 0.008783 -0.013777
v 0.017470 0.008795 -0.013782
v 0.017470 0.008792 -0.013783
v 0.017470 0.008783 -0.013780
v 0.017470 0.008792 -0.013783
v 0.017470 0.008789 -0.013786
v 0.017470 0.008783 -0.013780
v 0.017470 0.008789 -0.013786
v 0.017470 0.008786 -0.013789
v 0.017470 0.008799 -0.013820
v 0.017470 0.008803 -0.013820
v 0.017470 0.008783 -0.013823
v 0.017470 0.008795 -0.013818
v 0.017470 0.008786 -0.013811
v 0.017470 0.008783 -0.013820
v 0.017470 0.008780 -0.013820
v 0.017470 0.008792 -0.013817
v 0.017470 0.008783 -0.013823
v 0.017470 0.008783 -0.013820
v 0.017470 0.008789 -0.013814
v 0.017470 0.008792 -0.013817
v 0.017470 0.008783 -0.013820
v 0.017470 0.008786 -0.013811
v 0.017470 0.008789 -0.013814
v 0.017470 0.008783 -0.013820
v 0.017470 0.008785 -0.013808
v 0.017470 0.008780 -0.013820
v 0.017470 0.008780 -0.013800
v 0.017470 0.008783 -0.013804
v 0.017470 0.008785 -0.013808
v 0.017470 0.008783 -0.013796
v 0.017470 0.008783 -0.013800
v 0.017470 0.008780 -0.013780
v 0.017470 0.008785 -0.013792
v 0.017470 0.008785 -0.013792
v 0.017470 0.008783 -0.013796
v 0.017470 0.008786 -0.013789
v 0.017470 0.008785 -0.013792
v 0.017470 0.008780 -0.013780
v 0.017470 0.008792 -0.013783
v 0.017470 0.008783 -0.013780
v 0.017470 0.008783 -0.013777
v 0.017470 0.008783 -0.013800
v 0.017470 0.008783 -0.013804
v 0.017470 0.008799 -0.013780
v 0.017470 0.008795 -0.013782
v 0.017470 0.008807 -0.013780
v 0.017470 0.008803 -0.013780
v 0.017470 0.008823 -0.013777
v 0.017470 0.008811 -0.013782
v 0.017470 0.008820 -0.013789
v 0.017470 0.008823 -0.013780
v 0.017470 0.008826 -0.013780
v 0.017470 0.008814 -0.013783
v 0.017470 0.008823 -0.013777
v 0.017470 0.008823 -0.013780
v 0.017470 0.008817 -0.013786
v 0.017470 0.008814 -0.013783
v 0.017470 0.008823 -0.013780
v 0.017470 0.008820 -0.013789
v 0.017470 0.008817 -0.013786
v 0.017470 0.008823 -0.013780
v 0.017470 0.008821 -0.013792
v 0.017470 0.008826 -0.013780
v 0.017470 0.008823 -0.013796
v 0.017470 0.008821 -0.013792
v 0.017470 0.008823 -0.013804
v 0.017470 0.008823 -0.013800
v 0.017470 0.008826 -0.013820
v 0.017470 0.008821 -0.013808
v 0.017470 0.008814 -0.013817
v 0.017470 0.008823 -0.013820
v 0.017470 0.008823 -0.013823
v 0.017470 0.008820 -0.013811
v 0.017470 0.008826 -0.013820
v 0.017470 0.008823 -0.013820
v 0.017470 0.008817 -0.013814
v 0.017470 0.008820 -0.013811
v 0.017470 0.008823 -0.013820
v 0.017470 0.008814 -0.013817
v 0.017470 0.008817 -0.013814
v 0.017470 0.008823 -0.013820
v 0.017470 0.008811 -0.013818
v 0.017470 0.008823 -0.013823
v 0.017470 0.008803 -0.013780
v 0.017470 0.008799 -0.013780
v 0.017470 0.008807 -0.013820
v 0.017470 0.008811 -0.013818
v 0.017470 0.008795 -0.013782
v 0.017470 0.008783 -0.013777
v 0.017470 0.008823 -0.013800
v 0.017470 0.008823 -0.013796
v 0.017560 0.008811 -0.013818
v 0.017560 0.008807 -0.013820
v 0.017560 0.008803 -0.013820
v 0.017560 0.008814 -0.013817
v 0.017560 0.008811 -0.013818
v 0.017560 0.008803 -0.013820
v 0.017560 0.008817 -0.013814
v 0.017560 0.008814 -0.013817
v 0.017560 0.008803 -0.013820
v 0.017560 0.008820 -0.013811
v 0.017560 0.008817 -0.013814
v 0.017560 0.008803 -0.013820
v 0.017560 0.008821 -0.013808
v 0.017560 0.008803 -0.013820
v 0.017560 0.008823 -0.013804
v 0.017560 0.008821 -0.013808
v 0.017560 0.008820 -0.013811
v 0.017560 0.008803 -0.013820
v 0.017560 0.008823 -0.013804
v 0.017560 0.008803 -0.013820
v 0.017560 0.008823 -0.013800
v 0.017560 0.008823 -0.013800
v 0.017560 0.008803 -0.013820
v 0.017560 0.008823 -0.013796
v 0.017560 0.008803 -0.013820
v 0.017560 0.008821 -0.013792
v 0.017560 0.008823 -0.013796
v 0.017560 0.008803 -0.013820
v 0.017560 0.008820 -0.013789
v 0.017560 0.008821 -0.013792
v 0.017560 0.008803 -0.013820
v 0.017560 0.008817 -0.013786
v 0.017560 0.008820 -0.013789
v 0.017560 0.008811 -0.013782
v 0.017560 0.008814 -0.013783
v 0.017560 0.008803 -0.013820
v 0.017560 0.008803 -0.013820
v 0.017560 0.008814 -0.013783
v 0.017560 0.008817 -0.013786
v 0.017560 0.008807 -0.013780
v 0.017560 0.008803 -0.013820
v 0.017560 0.008803 -0.013780
v 0.017560 0.008803 -0.013780
v 0.017560 0.008803 -0.013820
v 0.017560 0.008799 -0.013780
v 0.017560 0.008803 -0.013820
v 0.017560 0.008795 -0.013782
v 0.017560 0.008799 -0.013780
v 0.017560 0.008803 -0.013820
v 0.017560 0.008792 -0.013783
v 0.017560 0.008795 -0.013782
v 0.017560 0.008803 -0.013820
v 0.017560 0.008789 -0.013786
v 0.017560 0.008792 -0.013783
v 0.017560 0.008785 -0.013792
v 0.017560 0.008786 -0.013789
v 0.017560 0.008803 -0.013820
v 0.017560 0.008803 -0.013820
v 0.017560 0.008786 -0.013789
v 0.017560 0.008789 -0.013786
v 0.017560 0.008783 -0.013796
v 0.017560 0.008785 -0.013792
v 0.017560 0.008803 -0.013820
v 0.017560 0.008783 -0.013800
v 0.017560 0.008783 -0.013796
v 0.017560 0.008803 -0.013820
v 0.017560 0.008783 -0.013800
v 0.017560 0.008803 -0.013820
v 0.017560 0.008783 -0.013804
v 0.017560 0.008783 -0.013804
v 0.017560 0.008803 -0.013820
v 0.017560 0.008785 -0.013808
v 0.017560 0.008785 -0.013808
v 0.017560 0.008803 -0.013820
v 0.017560 0.008786 -0.013811
v 0.017560 0.008803 -0.013820
v 0.017560 0.008792 -0.013817
v 0.017560 0.008789 -0.013814
v 0.017560 0.008786 -0.013811
v 0.017560 0.008803 -0.013820
v 0.017560 0.008789 -0.013814
v 0.017560 0.008803 -0.013820
v 0.017560 0.008795 -0.013818
v 0.017560 0.008792 -0.013817
v 0.017560 0.008803 -0.013820
v 0.017560 0.008807 -0.013780
v 0.017560 0.008811 -0.013782
v 0.017560 0.008799 -0.013820
v 0.017560 0.008795 -0.013818
v 0.017560 0.008803 -0.013820
v 0.017470 0.008803 -0.013777
v 0.017470 0.008783 -0.013777
v 0.017510 0.008783 -0.013770
v 0.017470 0.008823 -0.013777
v 0.017470 0.008803 -0.013777
v 0.017470 0.008803 -0.013777
v 0.017510 0.008783 -0.013770
v 0.017470 0.008826 -0.013800
v 0.017470 0.008826 -0.013780
v 0.017510 0.008833 -0.013780
v 0.017470 0.008826 -0.013820
v 0.017470 0.008826 -0.013800
v 0.017470 0.008826 -0.013800
v 0.017510 0.008833 -0.013780
v 0.017470 0.008803 -0.013823
v 0.017470 0.008823 -0.013823
v 0.017510 0.008823 -0.013830
v 0.017470 0.008783 -0.013823
v 0.017470 0.008803 -0.013823
v 0.017470 0.008803 -0.013823
v 0.017510 0.008823 -0.013830
v 0.017470 0.008780 -0.013800
v 0.017470 0.008780 -0.013820
v 0.017470 0.008780 -0.013780
v 0.017470 0.008780 -0.013800
v 0.017470 0.008780 -0.013800
v 0.017530 0.008763 -0.013622
v 0.017560 0.008803 -0.013622
v 0.017530 0.008843 -0.013622
v 0.017560 0.008803 -0.013622
v 0.017560 0.008843 -0.013622
v 0.017560 0.008803 -0.013622
v 0.017560 0.008763 -0.013622
v 0.017530 0.008763 -0.013642
v 0.017560 0.008763 -0.013642
v 0.017530 0.008763 -0.013622
v 0.017530 0.008763 -0.013622
v 0.017560 0.008763 -0.013642
v 0.017560 0.008763 -0.013622
v 0.017530 0.008843 -0.013642
v 0.017560 0.008843 -0.013642
v 0.017530 0.008763 -0.013642
v 0.017530 0.008763 -0.013642
v 0.017560 0.008843 -0.013642
v 0.017560 0.008763 -0.013642
v 0.017530 0.008843 -0.013622
v 0.017560 0.008843 -0.013622
v 0.017530 0.008843 -0.013642
v 0.017530 0.008843 -0.013642
v 0.017560 0.008843 -0.013622
v 0.017560 0.008843 -0.013642
v 0.017530 0.008843 -0.013622
v 0.017530 0.008843 -0.013642
v 0.017530 0.008763 -0.013622
v 0.017530 0.008843 -0.013642
v 0.017530 0.008763 -0.013642
v 0.017530 0.008763 -0.013622
v 0.017600 0.008803 -0.013998
v 0.017573 0.008803 -0.013995
v 0.017600 0.008970 -0.013998
v 0.017600 0.008636 -0.013998
v 0.017573 0.008609 -0.013995
v 0.017600 0.008636 -0.013998
v 0.017600 0.008803 -0.013998
v 0.017573 0.008997 -0.013995
v 0.017600 0.008970 -0.013998
v 0.017573 0.008997 -0.014000
v 0.017573 0.008803 -0.013995
v 0.017573 0.008803 -0.014000
v 0.017573 0.008997 -0.014000
v 0.017573 0.008997 -0.013995
v 0.017573 0.008803 -0.013995
v 0.017573 0.008609 -0.014000
v 0.017573 0.008803 -0.013995
v 0.017573 0.008609 -0.013995
v 0.017573 0.008803 -0.013995
v 0.017573 0.008609 -0.014000
v 0.017573 0.008803 -0.014000
vn 1.0000 -0.0000 -0.0000
vn 1.0000 -0.0001 -0.0000
vn 1.0000 0.0001 -0.0000
vn 0.7071 0.7071 -0.0000
vn 0.7069 0.7073 -0.0000
vn 0.7070 0.7072 0.0001
vn 0.7070 0.7073 -0.0000
vn 0.7070 0.7072 -0.0000
vn -0.0000 -0.0000 -1.0000
vn -0.0002 -0.0000 -1.0000
vn 0.7070 -0.7072 -0.0000
vn 0.7071 -0.7071 -0.0000
vn 0.7069 -0.7073 -0.0001
vn 0.7068 -0.7074 -0.0002
vn 0.7070 -0.7072 -0.0002
vn 0.7069 -0.7073 -0.0000
vn -1.0000 -0.0000 -0.0000
vn -1.0000 -0.0002 -0.0000
vn -1.0000 0.0001 -0.0000
vn -1.0000 -0.0001 -0.0000
vn -1.0000 0.0003 -0.0000
vn -1.0000 0.0002 -0.0000
vn -0.0000 1.0000 -0.0000
vn 0.7070 0.7072 -0.0001
vn 0.7072 0.7070 0.0001
vn 0.7074 0.7068 0.0002
vn -0.0000 -1.0000 -0.0000
vn 0.7070 -0.7072 0.0002
vn 0.7071 -0.7072 -0.0000
vn 0.7071 -0.7071 -0.0001
vn -0.0000 -0.0000 1.0000
vn 0.0001 -0.0000 1.0000
vn -0.0000 -0.0980 -0.9952
vn -0.0000 -0.1951 -0.9808
vn -0.0000 -0.2903 -0.9569
vn -0.0000 -0.3827 -0.9239
vn -0.0000 -0.4714 -0.8819
vn -0.0000 -0.5556 -0.8315
vn -0.0000 -0.5555 -0.8315
vn -0.0000 -0.6344 -0.7730
vn -0.0000 -0.7071 -0.7071
vn -0.0000 -0.7072 -0.7070
vn -0.0000 -0.7730 -0.6344
vn -0.0000 -0.8314 -0.5556
vn -0.0000 -0.8315 -0.5555
vn -0.0000 -0.8819 -0.4714
vn -0.0000 -0.9239 -0.3827
vn -0.0000 -0.9952 -0.0980
vn -0.0000 -0.9808 -0.1951
vn -0.0000 -0.9569 -0.2903
vn -0.0000 -0.8315 -0.5556
vn -0.0000 -0.5556 -0.8314
vn -0.0000 -0.9952 0.0980
vn -0.0000 -0.9808 0.1951
vn -0.0000 -0.9569 0.2903
vn -0.0000 -0.9239 0.3827
vn -0.0000 -0.8819 0.4714
vn -0.0000 -0.8315 0.5556
vn -0.0000 -0.7730 0.6344
vn -0.0000 -0.7071 0.7071
vn -0.0000 -0.6344 0.7730
vn -0.0000 -0.5556 0.8314
vn -0.0000 -0.5556 0.8315
vn -0.0000 -0.4714 0.8819
vn -0.0000 -0.3827 0.9239
vn -0.0000 -0.0980 0.9952
vn -0.0000 -0.1951 0.9808
vn -0.0000 -0.2903 0.9569
vn -0.0000 -0.5555 0.8315
vn -0.0000 -0.7072 0.7070
vn -0.0000 -0.8314 0.5556
vn -0.0000 0.0980 -0.9952
vn -0.0000 0.1951 -0.9808
vn -0.0000 0.2903 -0.9569
vn -0.0000 0.3827 -0.9239
vn -0.0000 0.4714 -0.8819
vn -0.0000 0.5555 -0.8315
vn -0.0000 0.5556 -0.8315
vn -0.0000 0.5556 -0.8314
vn -0.0000 0.6344 -0.7730
vn -0.0000 0.7730 -0.6344
vn -0.0000 0.8315 -0.5556
vn -0.0000 0.8315 -0.5555
vn -0.0000 0.8819 -0.4714
vn -0.0000 1.0000 -0.0001
vn -0.0000 0.9952 -0.0980
vn -0.0000 0.9808 -0.1951
vn -0.0000 0.9569 -0.2903
vn -0.0000 0.9239 -0.3827
vn -0.0000 0.8314 -0.5556
vn -0.0000 0.7072 -0.7070
vn -0.0000 0.7070 -0.7072
vn -0.0000 0.7071 -0.7071
vn -0.0000 0.9952 0.0980
vn -0.0000 0.9808 0.1951
vn -0.0000 0.9569 0.2903
vn -0.0000 0.9239 0.3827
vn -0.0000 0.8819 0.4714
vn -0.0000 0.8315 0.5556
vn -0.0000 0.7730 0.6344
vn -0.0000 0.8314 0.5556
vn -0.0000 0.7072 0.7070
vn -0.0000 0.7071 0.7071
vn -0.0000 0.6344 0.7730
vn -0.0000 0.5556 0.8314
vn -0.0000 0.5556 0.8315
vn -0.0000 0.4714 0.8819
vn -0.0000 0.3827 0.9239
vn -0.0000 0.0980 0.9952
vn -0.0000 0.1951 0.9808
vn -0.0000 0.2903 0.9569
vn -0.0000 0.7069 0.7073
vn -0.0000 1.0000 0.0001
vn -0.0000 0.9808 0.1950
vn -0.0000 0.9808 0.1952
vn -0.0000 0.8315 0.5555
vn -0.0000 0.7068 0.7074
vn -0.0000 0.8314 0.5557
vn -0.0000 0.7074 0.7069
vn -0.0000 0.1950 0.9808
vn -0.0000 0.3826 0.9239
vn -0.0000 0.1952 0.9808
vn -0.0000 0.5555 0.8315
vn -0.0000 0.7070 0.7072
vn -0.0000 -0.1950 0.9808
vn -0.0000 -0.3826 0.9239
vn -0.0000 -0.7069 0.7074
vn -0.0000 -0.7068 0.7074
vn -0.0000 -0.8314 0.5557
vn -0.0000 -0.9808 0.1950
vn -0.0000 -0.9808 0.1952
vn -0.0000 -0.8315 0.5555
vn -0.0000 -0.7074 0.7068
vn -0.0000 -0.7070 0.7072
vn -0.0000 -0.9808 -0.1950
vn -0.0000 -0.9808 -0.1952
vn -0.0000 -0.7068 -0.7074
vn -0.0000 -0.8314 -0.5557
vn -0.0000 -0.7074 -0.7068
vn -0.0000 -0.1950 -0.9808
vn -0.0000 -0.3826 -0.9239
vn -0.0000 -0.7069 -0.7073
vn -0.0000 0.5557 0.8314
vn -0.0000 0.9239 0.3826
vn -0.0000 0.9808 -0.1952
vn -0.0000 0.9239 -0.3826
vn -0.0000 0.8314 -0.5557
vn -0.0000 0.7069 -0.7073
vn -0.0000 0.9808 -0.1950
vn -0.0000 0.1950 -0.9808
vn -0.0000 0.1952 -0.9808
vn -0.0000 0.3826 -0.9239
vn -0.0000 0.5557 -0.8314
vn -0.0000 -0.9239 0.3826
vn -0.0000 -0.5557 0.8314
vn -0.0000 -0.1952 0.9808
vn -0.0000 -0.7069 0.7073
vn -0.0000 -0.7070 -0.7072
vn -0.0000 -0.9239 -0.3826
vn -0.0000 -0.1952 -0.9808
vn -0.0000 0.7068 -0.7074
vn -0.0000 -1.0000 -0.0001
vn 0.0002 -0.0000 -1.0000
vn -0.0000 -1.0000 0.0001
vn -0.0000 -0.7071 0.7072
vn -0.0000 -0.9238 0.3828
vn -0.0000 -0.9238 -0.3828
vn -0.0000 -0.3828 -0.9238
vn -0.0000 0.3828 -0.9238
vn -0.0000 0.9238 0.3828
vn -0.0000 0.3828 0.9238
vn -0.0000 0.9238 -0.3828
vn -0.0001 -0.0000 -1.0000
vn -1.0000 -0.0003 -0.0000
vn -0.1724 -0.0000 0.9850
vn -0.0001 -0.0000 1.0000
vn -0.1724 0.9850 -0.0000
vn -0.0001 1.0000 -0.0000
vn -0.1724 -0.0000 -0.9850
vn -0.1724 -0.9850 -0.0000
vn -0.1104 -0.0000 -0.9939
vn -0.1105 -0.0000 -0.9939
s 1
usemtl Diffuse_51_51_51_100.031
f 1//1 2//1 3//1
f 4//1 5//1 6//1
f 7//1 8//1 9//1
f 10//1 11//1 12//1
f 13//1 14//1 15//1
f 3//1 16//1 1//1
f 3//1 2//1 17//1
f 18//2 13//1 1//1
f 19//1 1//1 16//1
f 20//1 1//1 19//1
f 21//1 1//1 20//1
f 22//1 1//1 21//1
f 23//3 1//1 22//1
f 1//1 23//3 24//1
f 1//1 24//1 25//1
f 1//1 25//1 26//1
f 1//1 26//1 18//2
f 13//1 18//2 27//1
f 13//1 27//1 28//3
f 13//1 28//3 29//2
f 13//1 29//2 30//2
f 13//1 30//2 14//1
f 31//1 14//1 32//1
f 14//1 33//1 32//1
f 34//1 35//1 36//1
f 33//1 35//1 34//1
f 36//1 37//1 38//1
f 38//1 39//1 40//1
f 39//1 41//1 40//1
f 41//1 42//1 43//1
f 42//1 44//1 43//1
f 45//1 46//1 47//1
f 45//1 47//1 48//1
f 48//1 49//1 50//1
f 51//1 50//1 49//1
f 52//1 53//1 51//1
f 54//1 53//1 52//1
f 55//1 54//1 56//1
f 55//1 56//1 57//1
f 58//1 57//1 59//1
f 60//1 61//1 62//1
f 61//1 59//1 62//1
f 60//1 62//1 63//1
f 58//1 59//1 61//1
f 64//1 65//1 66//1
f 67//1 65//1 64//1
f 68//1 69//1 70//1
f 69//1 71//1 70//1
f 72//1 4//1 68//1
f 68//1 73//1 74//3
f 75//1 4//1 72//1
f 76//1 73//1 68//1
f 77//1 4//1 75//1
f 78//1 4//1 77//1
f 79//1 4//1 78//1
f 80//3 4//1 79//1
f 4//1 80//3 81//2
f 76//1 68//1 82//1
f 4//1 83//2 84//1
f 85//1 86//1 63//1
f 85//1 65//1 67//1
f 85//1 67//1 86//1
f 63//1 86//1 60//1
f 5//1 4//1 87//1
f 9//1 88//1 7//1
f 9//1 8//1 89//1
f 90//3 91//1 7//1
f 92//1 7//1 88//1
f 93//1 7//1 92//1
f 94//1 7//1 93//1
f 95//1 7//1 94//1
f 96//3 7//1 95//1
f 7//1 96//3 97//3
f 7//1 97//3 98//1
f 7//1 98//1 99//1
f 7//1 99//1 90//3
f 91//1 90//3 100//1
f 91//1 100//1 101//2
f 91//1 101//2 102//3
f 91//1 102//3 103//3
f 91//1 103//3 69//1
f 91//1 69//1 68//1
f 70//1 82//1 68//1
f 4//1 81//2 83//2
f 84//1 87//1 4//1
f 6//1 5//1 104//1
f 66//1 70//1 71//1
f 66//1 71//1 64//1
f 32//1 33//1 34//1
f 57//1 58//1 55//1
f 56//1 54//1 52//1
f 51//1 53//1 50//1
f 47//1 49//1 48//1
f 105//1 46//1 45//1
f 44//1 42//1 106//1
f 44//1 106//1 105//1
f 43//1 40//1 41//1
f 39//1 38//1 37//1
f 37//1 36//1 35//1
f 107//1 31//1 32//1
f 108//1 31//1 107//1
f 109//1 31//1 108//1
f 31//1 109//1 110//1
f 31//1 111//3 10//1
f 111//3 112//1 10//1
f 113//1 10//1 114//1
f 10//1 115//1 114//1
f 116//1 10//1 113//1
f 117//3 10//1 116//1
f 10//1 117//3 118//3
f 10//1 118//3 119//1
f 112//1 115//1 10//1
f 31//1 110//1 111//3
f 74//3 72//1 68//1
f 120//1 10//1 119//1
f 106//1 46//1 105//1
f 11//1 10//1 120//1
f 11//1 121//1 12//1
f 15//1 14//1 31//1
f 122//4 123//4 124//5
f 124//5 123//4 125//6
f 126//4 122//4 124//5
f 124//5 127//4 128//4
f 129//7 130//4 124//5
f 124//5 130//4 127//4
f 131//8 129//7 124//5
f 124//4 132//4 133//8
f 133//4 134//4 135//4
f 133//8 136//5 137//8
f 124//4 133//8 137//8
f 126//4 124//5 128//4
f 138//4 124//4 139//4
f 140//9 141//9 142//9
f 141//9 140//9 143//9
f 143//9 144//9 145//10
f 143//9 146//9 147//9
f 143//9 145//10 141//9
f 148//11 149//11 150//12
f 149//11 151//12 150//12
f 150//12 152//12 153//12
f 154//11 150//13 155//14
f 154//11 156//12 150//13
f 150//13 157//12 158//12
f 150//13 159//12 157//12
f 160//12 150//13 158//12
f 155//14 150//13 161//15
f 162//12 149//12 163//12
f 164//11 150//13 160//12
f 159//12 150//13 156//12
f 149//16 165//16 166//16
f 167//17 168//17 169//17
f 170//17 171//18 172//17
f 170//17 173//17 174//17
f 175//19 176//17 177//17
f 178//17 179//17 180//17
f 180//17 179//17 181//19
f 182//17 183//17 176//17
f 184//17 181//19 185//20
f 186//17 184//17 187//17
f 181//19 184//17 180//17
f 188//17 189//19 184//17
f 185//20 190//20 184//17
f 174//17 191//17 192//20
f 193//17 170//17 192//20
f 184//17 194//17 180//17
f 195//20 196//17 197//21
f 198//17 195//20 197//21
f 199//17 198//17 197//21
f 200//17 199//17 197//21
f 201//20 200//17 197//21
f 202//17 201//20 197//21
f 203//19 202//17 197//21
f 203//19 169//17 168//17
f 204//20 205//17 206//17
f 204//20 207//17 205//17
f 205//17 207//17 208//17
f 209//22 205//17 208//17
f 209//22 210//20 205//17
f 211//17 210//20 212//18
f 210//20 213//18 214//20
s 0
f 210//17 215//17 216//17
s 1
f 210//17 217//17 215//17
f 218//19 219//17 220//17
f 221//17 218//19 222//17
f 221//17 223//19 218//19
f 221//17 224//17 223//19
f 221//17 225//17 224//17
f 226//19 221//17 227//17
f 226//19 228//17 221//17
s 0
f 229//17 227//17 221//17
s 1
f 219//17 218//19 210//20
f 221//17 222//17 230//17
f 231//17 219//17 210//20
f 232//17 231//17 210//20
f 233//17 232//17 210//20
f 234//21 233//17 210//20
f 210//20 209//22 234//21
f 210//20 211//17 213//18
f 210//20 216//17 212//18
f 206//17 235//17 236//18
f 236//18 235//17 237//17
f 237//17 235//17 238//17
f 238//17 235//17 239//17
f 240//20 241//20 235//17
f 235//17 241//20 242//17
f 243//20 235//17 244//20
f 244//20 235//17 172//17
f 172//17 235//17 170//17
f 170//17 235//17 176//17
f 176//17 235//17 177//17
f 171//18 170//17 245//17
f 174//17 192//20 170//17
f 176//17 179//17 178//17
f 246//17 186//17 191//17
f 190//20 188//17 184//17
f 191//17 186//17 247//19
f 189//19 248//17 184//17
f 249//19 247//19 186//17
f 187//17 184//17 248//17
f 170//17 193//17 250//17
f 186//17 251//19 252//20
f 253//17 186//17 252//20
f 186//17 254//17 251//19
f 253//17 249//19 186//17
f 255//17 256//17 257//17
f 258//17 255//17 257//17
f 259//17 260//17 261//17
f 261//17 260//17 262//17
f 263//17 264//17 265//17
f 266//17 267//17 268//17
f 269//19 270//19 271//19
f 268//17 272//17 273//17
f 273//17 274//17 275//17
f 275//17 276//17 277//17
f 277//17 278//17 279//17
f 279//17 280//17 281//17
f 263//17 259//17 282//17
f 283//17 281//17 284//17
f 285//17 283//17 286//17
f 287//17 259//17 261//17
f 288//17 254//17 187//17
f 288//17 258//17 257//17
f 288//17 187//17 258//17
f 254//17 186//17 187//17
f 246//17 289//17 186//17
f 206//17 236//18 204//20
f 256//17 255//17 262//17
f 239//17 235//17 242//17
f 260//17 256//17 262//17
f 214//20 205//17 210//20
f 176//17 290//17 291//17
f 221//17 228//17 225//17
f 292//17 293//17 294//17
f 292//17 285//17 293//17
f 285//17 295//20 293//17
f 220//17 222//17 218//19
f 296//17 285//17 297//17
f 298//20 299//17 300//17
f 301//17 298//20 302//17
f 301//17 303//18 298//20
f 301//17 304//20 303//18
f 301//17 305//17 304//20
f 306//17 301//17 307//17
f 306//17 308//17 301//17
f 309//17 307//17 301//17
f 299//17 298//20 310//17
f 301//17 302//17 311//17
f 312//17 299//17 313//17
f 314//17 312//17 315//17
f 316//17 314//17 317//17
f 318//17 316//17 319//17
f 320//18 321//18 318//18
f 322//17 323//17 324//17
f 325//17 326//17 323//17
f 327//17 328//17 329//17
f 330//19 331//19 328//19
f 332//22 287//22 331//22
f 333//17 334//17 287//17
f 335//17 266//17 270//17
f 285//17 336//19 283//17
f 337//17 259//17 287//17
f 285//17 292//17 336//19
f 285//17 338//18 295//20
f 285//17 339//17 338//18
f 285//17 340//17 341//18
s 0
f 285//17 296//17 340//17
s 1
f 341//18 339//17 285//17
f 246//17 191//17 174//17
f 245//17 170//17 250//17
f 291//17 179//17 176//17
f 183//17 290//17 176//17
f 176//17 178//17 342//17
f 343//19 344//17 177//17
f 177//17 344//17 345//19
f 346//17 343//19 177//17
f 347//20 346//17 177//17
f 175//19 177//17 345//19
f 177//17 348//20 347//20
f 177//17 349//17 348//20
f 177//17 350//19 349//17
f 169//17 351//22 177//17
f 169//17 352//19 351//22
f 169//17 203//19 352//19
f 352//19 203//19 353//17
f 354//17 355//20 197//21
f 203//19 355//20 356//17
f 357//17 197//21 358//17
f 357//17 354//17 197//21
f 358//17 197//21 359//17
f 359//17 197//21 360//17
f 360//17 197//21 361//20
f 353//17 203//19 356//17
f 362//17 361//20 363//17
f 177//17 351//22 350//19
f 363//17 364//17 365//17
f 361//20 366//17 364//17
f 367//17 271//17 265//17
f 182//17 176//17 175//19
f 368//17 324//17 321//17
f 369//20 329//20 326//20
f 370//17 366//17 361//20
f 371//17 361//20 372//17
f 371//17 370//17 361//20
f 372//17 361//20 373//17
f 308//17 305//17 301//17
f 361//20 364//17 363//17
f 300//17 302//17 298//20
f 374//20 361//20 375//17
f 197//21 355//20 203//19
f 167//17 206//17 168//17
f 240//20 235//17 243//20
f 168//17 206//17 205//17
f 361//20 362//17 360//17
f 373//17 361//20 374//20
f 376//23 377//23 378//23
f 379//23 377//23 380//23
f 381//23 382//23 383//23
f 384//23 385//23 386//23
f 387//4 388//4 389//4
f 390//4 391//4 392//4
f 393//4 394//4 395//4
f 396//4 397//4 398//4
f 398//4 399//4 400//4
f 401//4 402//4 400//4
f 403//4 404//4 405//4
f 406//4 404//4 402//4
f 407//4 403//4 408//4
f 409//4 396//4 393//4
f 410//4 411//4 412//4
f 413//24 414//24 415//24
f 416//4 417//4 415//4
f 416//25 418//25 419//25
f 420//4 421//4 422//4
f 423//26 418//26 424//26
f 425//8 426//8 427//8
f 427//4 428//4 422//4
f 429//4 424//4 421//4
f 430//27 431//27 432//27
f 433//27 431//27 434//27
f 435//12 436//12 437//12
f 438//12 439//12 440//12
f 441//28 442//28 443//28
f 444//12 445//12 446//12
f 446//12 447//12 448//12
f 449//12 450//29 448//12
f 451//12 452//12 453//12
f 454//12 452//12 450//12
f 455//11 451//11 456//11
f 457//12 444//12 441//12
f 458//29 459//29 460//29
f 461//30 462//30 463//30
f 464//12 465//12 463//12
f 464//12 466//12 467//12
f 468//12 469//12 470//12
f 471//12 466//12 472//12
f 473//12 474//12 475//12
f 475//12 476//12 470//12
f 477//12 472//12 469//12
f 478//31 479//31 480//31
f 481//31 482//31 483//31
f 484//32 485//32 486//32
f 487//31 488//31 489//31
f 490//31 491//31 492//31
f 493//27 494//27 495//27
f 496//27 497//27 498//27
f 499//27 500//27 501//27
f 502//27 503//27 504//27
f 505//33 506//34 507//33
f 508//34 509//35 510//34
f 511//35 512//35 513//34
f 514//36 515//36 516//35
f 517//37 518//36 519//36
f 520//38 521//37 522//37
f 523//39 524//37 525//39
f 526//40 527//38 528//40
f 529//40 530//40 531//41
f 532//42 533//42 534//43
f 535//41 536//43 537//43
f 538//43 539//44 540//44
f 541//45 542//46 543//45
f 544//46 545//47 546//46
f 547//47 548//47 549//46
f 550//33 551//33 552//9
f 553//48 554//27 555//27
f 556//48 557//27 558//48
f 559//48 560//48 561//49
f 562//48 563//49 564//49
f 565//49 566//50 567//49
f 568//50 569//50 570//49
f 571//47 572//50 573//50
f 574//47 575//50 576//47
f 577//45 578//46 579//46
f 580//43 581//43 582//51
f 583//41 584//40 585//41
f 586//40 587//52 588//52
f 589//37 590//37 591//36
f 592//35 593//36 594//35
f 595//33 596//9 597//9
f 598//34 599//34 600//33
f 601//9 602//9 603//9
f 604//9 605//9 606//9
f 607//23 608//23 609//23
f 610//23 611//23 612//23
f 613//23 614//23 615//23
f 616//23 617//23 618//23
f 619//31 620//31 621//31
f 622//31 623//31 624//31
f 625//53 626//54 627//53
f 628//54 629//55 630//54
f 631//55 632//55 633//54
f 634//56 635//56 636//55
f 637//57 638//56 639//56
f 640//58 641//57 642//57
f 643//58 644//57 645//58
f 646//59 647//58 648//59
f 649//59 650//59 651//60
f 652//60 653//60 654//61
f 655//60 656//61 657//61
f 658//61 659//62 660//62
f 661//63 662//64 663//63
f 664//64 665//65 666//64
f 667//65 668//65 669//64
f 670//53 671//53 672//27
f 673//66 674//31 675//31
f 676//66 677//31 678//66
f 679//66 680//66 681//67
f 682//66 683//67 684//67
f 685//67 686//68 687//67
f 688//68 689//68 690//67
f 691//65 692//68 693//68
f 694//65 695//68 696//65
f 697//69 698//64 699//64
f 700//61 701//61 702//62
f 703//70 704//59 705//70
f 706//59 707//71 708//71
f 709//57 710//57 711//56
f 712//55 713//56 714//55
f 715//53 716//27 717//27
f 718//54 719//54 720//53
f 721//9 722//9 723//9
f 724//9 725//9 726//9
f 727//9 728//9 729//9
f 730//31 731//31 732//31
f 733//31 734//31 735//31
f 736//31 737//31 738//31
f 739//23 740//23 741//23
f 742//23 743//23 744//23
f 745//9 746//72 747//9
f 748//72 749//72 750//9
f 751//73 752//72 753//72
f 754//73 755//72 756//73
f 757//73 758//73 759//74
f 760//73 761//74 762//74
f 763//74 764//75 765//74
f 766//75 767//75 768//74
f 769//76 770//75 771//75
f 772//76 773//75 774//76
f 775//76 776//76 777//77
f 778//76 779//78 780//78
f 781//79 782//80 783//79
f 784//80 785//80 786//79
f 787//81 788//82 789//82
f 790//83 791//83 792//84
f 793//85 794//86 795//85
f 796//86 797//86 798//23
f 799//87 800//86 801//86
f 802//87 803//86 804//87
f 805//87 806//87 807//88
f 808//87 809//88 810//88
f 811//88 812//89 813//88
f 814//89 815//89 816//88
f 817//84 818//89 819//89
f 820//84 821//89 822//84
f 823//84 824//84 825//83
f 826//90 827//81 828//81
f 829//81 830//91 831//81
f 832//92 833//92 834//81
f 835//80 836//93 837//93
f 838//80 839//80 840//93
f 841//9 842//9 843//9
f 844//9 845//9 846//9
f 847//27 848//27 849//27
f 850//27 851//27 852//27
f 853//27 854//27 855//27
f 856//27 857//27 858//27
f 859//31 860//31 861//31
f 862//31 863//31 864//31
f 865//23 866//94 867//23
f 868//94 869//95 870//94
f 871//95 872//95 873//94
f 874//96 875//96 876//95
f 877//97 878//97 879//96
f 880//98 881//97 882//97
f 883//99 884//98 885//98
f 886//99 887//98 888//99
f 889//100 890//101 891//100
f 892//100 893//100 894//102
f 895//103 896//103 897//104
f 898//103 899//104 900//104
f 901//104 902//105 903//105
f 904//106 905//107 906//106
f 907//107 908//108 909//107
f 910//108 911//108 912//107
f 913//109 914//31 915//31
f 916//109 917//31 918//109
f 919//109 920//109 921//110
f 922//109 923//110 924//110
f 925//110 926//111 927//110
f 928//111 929//111 930//110
f 931//108 932//111 933//111
f 934//108 935//111 936//108
f 937//106 938//107 939//107
f 940//104 941//104 942//106
f 943//112 944//100 945//112
f 946//100 947//101 948//101
f 949//98 950//98 951//97
f 952//96 953//97 954//96
f 955//94 956//113 957//94
f 958//95 959//95 960//96
f 961//9 962//9 963//9
f 964//9 965//9 966//9
f 967//9 968//9 969//9
f 970//31 971//31 972//31
f 973//31 974//31 975//31
f 976//31 977//31 978//31
f 979//23 980//23 981//114
f 982//114 983//23 984//114
f 985//115 986//97 987//95
f 988//115 989//97 990//97
f 991//97 992//97 993//116
f 994//116 995//97 996//116
f 997//117 998//118 999//118
f 1000//105 1001//119 1002//119
f 1003//103 1004//103 1005//101
f 1006//120 1007//31 1008//31
f 1009//120 1010//120 1011//31
f 1012//110 1013//121 1014//110
f 1015//122 1016//121 1017//121
f 1018//108 1019//108 1020//106
f 1021//123 1022//108 1023//123
f 1024//124 1025//105 1026//105
f 1027//31 1028//125 1029//31
f 1030//31 1031//125 1032//125
f 1033//67 1034//67 1035//126
f 1036//126 1037//67 1038//126
f 1039//63 1040//127 1041//127
f 1042//69 1043//65 1044//69
f 1045//128 1046//129 1047//129
f 1048//69 1049//65 1050//65
f 1051//130 1052//27 1053//27
f 1054//130 1055//130 1056//27
f 1057//54 1058//56 1059//131
f 1060//131 1061//56 1062//56
f 1063//56 1064//56 1065//132
f 1066//132 1067//56 1068//58
f 1069//133 1070//71 1071//133
f 1072//134 1073//63 1074//62
f 431//27 1075//27 1076//135
f 1077//135 431//27 1078//135
f 1079//136 1080//47 1081//49
f 1082//49 1083//47 1084//47
f 1085//47 1086//47 1087//45
f 1088//45 1089//47 1090//51
f 1091//137 1092//138 1093//138
f 1094//52 1095//41 1096//41
f 1097//139 1098//139 1099//44
f 1100//140 1101//9 1102//9
f 1103//140 1104//140 1105//9
f 1106//34 1107//141 1108//34
f 1109//34 1110//141 1111//141
f 1112//36 1113//36 1114//38
f 1115//39 1116//36 1117//39
f 1118//142 1119//52 1120//38
f 1121//110 1122//121 1123//110
f 1124//108 1125//123 1126//108
f 1127//123 1128//123 1129//108
f 1130//124 1131//124 1132//143
f 1133//118 1134//124 1135//124
f 1136//97 1137//116 1138//99
f 1139//97 1140//116 1141//97
f 1142//120 1143//120 1144//31
f 1145//114 1146//23 1147//23
f 1148//114 1149//23 1150//114
f 1151//95 1152//95 1153//144
f 1154//95 1155//144 1156//144
f 1157//101 1158//118 1159//124
f 1160//143 1161//102 1162//105
f 1163//120 1164//31 1165//31
f 1166//121 1167//121 1168//110
f 1169//145 1170//146 1171//145
f 1172//89 1173//83 1174//89
f 1175//83 1176//83 1177//89
f 1178//92 1179//92 1180//147
f 1181//79 1182//148 1183//148
f 1184//75 1185//77 1186//77
f 1187//75 1188//77 1189//75
f 1190//149 1191//149 1192//23
f 1193//150 1194//9 1195//9
f 1196//150 1197//9 1198//150
f 1199//151 1200//73 1201//152
f 1202//73 1203//152 1204//152
f 1205//153 1206//79 1207//91
f 1208//147 1209//92 1210//147
f 1211//149 1212//23 1213//23
f 1214//146 1215//146 1216//145
f 1217//54 1218//154 1219//54
f 1220//56 1221//132 1222//56
f 1223//132 1224//58 1225//56
f 1226//134 1227//134 1228//129
f 1229//155 1230//134 1231//134
f 1232//65 1233//69 1234//69
f 1235//65 1236//69 1237//65
f 1238//31 1239//31 1240//125
f 1241//31 1242//125 1243//125
f 1244//67 1245//126 1246//67
f 1247//130 1248//130 1249//27
f 1250//126 1251//156 1252//126
f 1253//130 1254//27 1255//27
f 1256//54 1257//154 1258//154
f 1259//129 1260//70 1261//71
f 1262//155 1263//155 1264//134
f 1265//31 1266//31 1267//120
f 1268//120 1269//31 1270//120
f 1271//121 1272//110 1273//110
f 1274//121 1275//121 1276//122
f 1277//108 1278//106 1279//108
f 1280//108 1281//123 1282//123
f 1283//105 1284//102 1285//102
f 377//23 1286//23 1287//114
f 1288//114 1289//114 377//23
f 1290//115 1291//97 1292//95
f 1293//95 1294//97 1295//97
f 1296//97 1297//97 1298//116
f 1299//99 1300//97 1301//99
f 1302//117 1303//118 1304//118
f 1305//103 1306//103 1307//101
f 1308//112 1309//105 1310//105
f 1311//27 434//27 1312//130
f 1313//130 434//27 1314//130
f 1315//56 1316//131 1317//54
f 1318//56 1319//56 1320//54
f 1321//56 1322//132 1323//56
f 1324//56 1325//132 1326//58
f 1327//129 1328//129 1329//128
f 1330//133 1331//71 1332//133
f 1333//62 1334//60 1335//60
f 1336//31 1337//31 1338//125
f 1339//125 1340//31 1341//125
f 1342//126 1343//156 1344//67
f 1345//69 1346//65 1347//69
f 1348//63 1349//65 1350//65
f 1351//157 1352//63 1353//62
f 1354//126 1355//67 1356//126
f 1357//140 1358//140 1359//9
f 1360//141 1361//34 1362//34
f 1363//39 1364//36 1365//36
f 1366//39 1367//36 1368//39
f 1369//41 1370//52 1371//41
f 1372//158 1373//158 1374//138
f 1375//45 1376//45 1377//47
f 1378//27 1379//135 1380//27
f 1381//135 1382//135 1383//27
f 1384//159 1385//136 1386//49
f 1387//159 1388//49 1389//159
f 1390//47 1391//47 1392//45
f 1393//44 1394//44 1395//42
f 1396//52 1397//142 1398//52
f 1399//140 1400//9 1401//9
f 1402//141 1403//141 1404//160
f 1405//9 1406//150 1407//9
f 1408//9 1409//150 1410//150
f 1411//73 1412//73 1413//152
f 1414//152 1415//73 1416//152
f 1417//79 1418//91 1419//91
f 1420//77 1421//75 1422//77
f 1423//161 1424//147 1425//147
f 1426//77 1427//75 1428//75
f 1429//149 1430//23 380//23
f 1431//149 1432//149 380//23
f 1433//87 1434//89 1435//145
f 1436//87 1437//89 1438//89
f 1439//89 1440//89 1441//83
f 1442//83 1443//89 1444//83
f 1445//93 1446//90 1447//93
f 1448//148 1449//79 1450//79
f 1451//27 1452//27 1453//27
f 1452//27 1454//27 1455//27
f 1456//31 1457//31 1458//31
f 1459//31 1460//31 1458//31
f 1461//31 1462//31 1463//31
f 1464//27 1465//27 1466//27
f 1467//162 1468//162 1464//162
f 1469//27 1464//27 1470//27
f 1471//31 1472//31 1473//31
f 1474//31 1475//31 1476//31
f 1477//23 1478//23 1479//23
f 1480//113 1481//113 1479//113
f 1482//23 1483//23 1484//23
f 1485//31 1486//31 1487//31
f 1488//31 1489//31 1485//31
f 1490//31 1485//31 1491//31
f 1492//23 1493//23 1494//23
f 1495//23 1496//23 1497//23
f 1498//163 1499//163 1500//163
f 1501//9 1502//9 1500//9
f 1503//9 1504//9 1505//9
f 1506//23 1507//23 1508//23
f 1509//85 1510//85 1506//85
f 1511//23 1506//23 1512//23
f 1513//9 1514//9 1515//9
f 1516//9 1517//9 1518//9
f 1519//27 1520//27 1521//27
f 1522//164 1523//164 1521//164
f 1524//27 1525//27 1526//27
f 1527//67 1528//67 1529//31
f 1530//65 1528//67 1527//67
f 1531//63 1532//65 1530//65
f 1533//69 1532//65 1531//63
f 1534//165 1533//69 1535//70
f 1534//165 1535//70 1536//58
f 1537//58 1536//58 1538//154
f 1537//58 1538//154 1539//166
f 1539//166 1540//54 1541//54
f 1540//54 1542//27 1541//54
f 1542//27 1543//49 1544//27
f 1543//49 1545//49 1544//27
f 1546//167 1547//159 1545//49
f 1548//51 1547//159 1546//167
f 1549//158 1550//51 1548//51
f 1551//41 1550//51 1549//158
f 1552//38 1551//41 1553//38
f 1552//38 1553//38 1554//168
f 1555//36 1554//168 1556//34
f 1555//36 1556//34 1557//34
f 1557//34 1558//9 1559//9
f 1558//9 1560//73 1559//9
f 1561//73 1562//75 1563//169
f 1563//169 1562//75 1564//78
f 1565//23 1566//23 1567//87
f 1568//95 1569//95 1566//23
f 1570//97 1571//170 1569//95
f 1572//99 1573//99 1571//170
f 1574//103 1573//99 1572//99
f 1575//106 1576//102 1574//103
f 1577//106 1576//102 1575//106
f 1578//121 1577//106 1579//171
f 1553//38 1551//41 1549//158
f 1580//110 1581//110 1529//31
f 1578//121 1581//110 1580//110
f 1579//171 1581//110 1578//121
f 1575//106 1579//171 1577//106
f 1573//99 1574//103 1576//102
f 1571//170 1570//97 1572//99
f 1569//95 1568//95 1570//97
f 1580//110 1529//31 1582//31
f 1566//23 1565//23 1568//95
f 1567//87 1583//87 1565//23
f 1584//89 1583//87 1567//87
f 1585//172 1583//87 1584//89
f 1585//172 1584//89 1586//82
f 1585//172 1586//82 1587//82
f 1586//82 1588//93 1587//82
f 1588//93 1589//93 1587//82
f 1590//78 1589//93 1588//93
f 1564//78 1589//93 1590//78
f 1564//78 1590//78 1563//169
f 1562//75 1561//73 1560//73
f 1561//73 1559//9 1560//73
f 1558//9 1557//34 1556//34
f 1554//168 1555//36 1552//38
f 1547//159 1548//51 1550//51
f 1545//49 1543//49 1546//167
f 1544//27 1541//54 1542//27
f 1540//54 1539//166 1538//154
f 1536//58 1537//58 1534//165
f 1531//63 1535//70 1533//69
f 1528//67 1530//65 1532//65
f 1528//67 1582//31 1529//31
f 1591//9 1592//9 1593//9
f 1594//9 1595//9 1596//9
f 1597//173 1598//173 1599//173
f 1600//17 1601//17 1602//17
f 1603//17 1604//17 1605//17
f 1606//174 1607//174 1608//174
f 1600//17 1609//17 1610//17
f 1611//19 1612//19 1613//19
f 1614//20 1615//20 1616//20
f 1617//17 1618//17 1619//17
f 1620//21 1621//21 1622//21
f 1623//20 1624//20 1625//20
f 1626//17 1627//17 1628//17
f 1629//22 1630//22 1631//22
f 1632//18 1633//18 1634//18
f 1635//17 1636//17 1637//17
f 1638//20 1639//20 1640//20
f 1641//17 1642//17 1600//17
f 1643//17 1644//17 1600//17
f 1645//17 1646//17 1647//17
f 1648//17 1649//17 1650//17
f 1651//17 1652//17 1653//17
f 1654//20 1655//20 1656//20
f 1657//17 1658//17 1659//17
f 1659//17 1660//17 1661//17
f 1662//17 1663//17 1659//17
f 1664//21 1665//21 1659//21
f 1666//17 1667//17 1659//17
f 1668//17 1669//17 1670//17
f 1671//17 1672//17 1673//17
f 1659//17 1674//17 1675//17
f 1626//17 1676//17 1677//17
f 1678//17 1679//17 1626//17
f 1680//17 1681//17 1626//17
f 1682//17 1683//17 1684//17
f 1685//17 1686//17 1687//17
f 1688//17 1689//17 1690//17
f 1691//19 1692//19 1693//19
f 1617//174 1694//174 1695//174
f 1617//17 1696//17 1697//17
f 1698//17 1699//17 1617//17
f 1700//174 1701//174 1617//174
f 1702//17 1703//17 1704//17
f 1705//17 1706//17 1707//17
f 1708//17 1709//17 1710//17
f 1711//17 1712//17 1713//17
f 1600//17 1714//17 1715//17
f 1626//17 1716//17 1717//17
f 1600//17 1718//17 1719//17
f 1626//17 1720//17 1721//17
f 1722//17 1723//17 1617//17
f 1724//17 1725//17 1726//17
f 1727//17 1728//17 1729//17
f 1730//17 1731//17 1732//17
f 1733//17 1734//17 1735//17
f 1736//17 1737//17 1738//17
f 1739//17 1740//17 1741//17
f 1742//17 1743//17 1744//17
f 1745//17 1746//17 1747//17
f 1748//17 1749//17 1750//17
f 1751//20 1752//20 1753//20
f 1754//19 1755//19 1756//19
f 1757//17 1758//17 1759//17
f 1760//20 1761//20 1762//20
f 1763//17 1764//17 1765//17
f 1766//17 1767//17 1768//17
f 1769//20 1770//20 1771//20
f 1772//20 1773//20 1774//20
f 1775//20 1776//20 1777//20
f 1778//17 1779//17 1780//17
f 1781//20 1782//20 1783//20
f 1784//17 1785//17 1786//17
f 1787//17 1788//17 1789//17
f 1790//17 1791//17 1792//17
f 1793//17 1794//17 1795//17
f 1796//17 1797//17 1798//17
f 1799//17 1800//17 1801//17
f 1802//17 1803//17 1804//17
f 1805//17 1806//17 1807//17
f 1808//19 1809//19 1810//19
f 1811//17 1812//17 1813//17
f 1814//175 1815//175 1816//175
f 1817//175 1818//175 1471//31
f 1471//176 1819//175 1820//175
f 1821//177 1822//177 1823//177
f 1824//177 1825//177 1492//23
f 1492//178 1826//177 1827//177
f 1828//179 1829//179 1830//179
f 1831//179 1832//179 1513//9
f 1513//173 1833//179 1834//179
f 1835//180 1836//180 1452//27
f 1837//180 1838//180 1451//27
f 1451//27 1839//180 1452//27
f 1840//31 1841//31 1842//31
f 1843//31 1844//31 1842//31
f 1845//31 1840//31 1846//31
f 1847//27 1848//27 1849//27
f 1850//27 1851//27 1852//27
f 1853//9 1854//9 1855//9
f 1856//9 1857//9 1858//9
f 1859//23 1860//23 1861//23
f 1862//23 1863//23 1864//23
f 1865//17 1866//17 1867//17
f 1868//17 1869//17 1870//17
f 1871//181 1872//181 1873//181
f 1872//182 1874//182 1875//182
f 1876//181 1872//181 1877//181
f 1872//182 1878//182 1879//182
f 1880//1 1881//1 1882//1
f 1883//1 1884//1 1885//1
f 1886//1 1887//1 1888//1
f 1889//1 1890//1 1891//1
