# Blender 4.4.3
# www.blender.org
mtllib Mesh_20.010.mtl
o Mesh_20.010
v 0.017290 0.008710 -0.009952
v 0.017290 0.008710 -0.009943
v 0.017290 0.008716 -0.009937
v 0.017290 0.008773 -0.009952
v 0.017290 0.008721 -0.009930
v 0.017290 0.008726 -0.009924
v 0.017290 0.008732 -0.009919
v 0.017290 0.008738 -0.009913
v 0.017290 0.008773 -0.009914
v 0.017290 0.008744 -0.009908
v 0.017290 0.008750 -0.009902
v 0.017290 0.008756 -0.009897
v 0.017290 0.008710 -0.009943
v 0.017375 0.008710 -0.009943
v 0.017375 0.008714 -0.009939
v 0.017290 0.008716 -0.009937
v 0.017290 0.008710 -0.009943
v 0.017375 0.008717 -0.009935
v 0.017290 0.008716 -0.009937
v 0.017290 0.008721 -0.009930
v 0.017290 0.008716 -0.009937
v 0.017290 0.008721 -0.009930
v 0.017375 0.008720 -0.009931
v 0.017375 0.008723 -0.009927
v 0.017290 0.008721 -0.009930
v 0.017290 0.008726 -0.009924
v 0.017290 0.008721 -0.009930
v 0.017375 0.008727 -0.009924
v 0.017375 0.008730 -0.009920
v 0.017290 0.008726 -0.009924
v 0.017290 0.008726 -0.009924
v 0.017290 0.008726 -0.009924
v 0.017290 0.008732 -0.009919
v 0.017290 0.008732 -0.009919
v 0.017375 0.008734 -0.009917
v 0.017290 0.008738 -0.009913
v 0.017290 0.008732 -0.009919
v 0.017375 0.008738 -0.009913
v 0.017290 0.008738 -0.009913
v 0.017375 0.008741 -0.009910
v 0.017290 0.008738 -0.009913
v 0.017290 0.008738 -0.009913
v 0.017290 0.008744 -0.009908
v 0.017290 0.008744 -0.009908
v 0.017375 0.008745 -0.009906
v 0.017290 0.008750 -0.009902
v 0.017293 0.008756 -0.009897
v 0.017290 0.008756 -0.009897
v 0.017290 0.008750 -0.009902
v 0.017290 0.008744 -0.009908
v 0.017290 0.008750 -0.009902
v 0.017297 0.008756 -0.009897
v 0.017375 0.008749 -0.009903
v 0.017290 0.008750 -0.009902
v 0.017300 0.008756 -0.009897
v 0.017290 0.008750 -0.009902
v 0.017304 0.008756 -0.009897
v 0.017290 0.008750 -0.009902
v 0.017307 0.008757 -0.009897
v 0.017375 0.008753 -0.009900
v 0.017310 0.008757 -0.009896
v 0.017317 0.008759 -0.009895
v 0.017313 0.008758 -0.009896
v 0.017340 0.008769 -0.009888
v 0.017338 0.008767 -0.009889
v 0.017375 0.008765 -0.009891
v 0.017375 0.008769 -0.009888
v 0.017335 0.008766 -0.009890
v 0.017332 0.008764 -0.009891
v 0.017375 0.008761 -0.009894
v 0.017329 0.008763 -0.009892
v 0.017326 0.008762 -0.009893
v 0.017375 0.008757 -0.009897
v 0.017323 0.008761 -0.009894
v 0.017320 0.008760 -0.009894
v 0.017290 0.008750 -0.009902
v 0.017290 0.008750 -0.009902
v 0.017375 0.008834 -0.009887
v 0.017352 0.008803 -0.009887
v 0.017375 0.008772 -0.009887
v 0.017345 0.008775 -0.009887
v 0.017343 0.008772 -0.009887
v 0.017347 0.008779 -0.009887
v 0.017349 0.008783 -0.009887
v 0.017350 0.008787 -0.009887
v 0.017351 0.008791 -0.009887
v 0.017352 0.008795 -0.009887
v 0.017352 0.008799 -0.009887
v 0.017352 0.008807 -0.009887
v 0.017352 0.008811 -0.009887
v 0.017351 0.008815 -0.009887
v 0.017350 0.008819 -0.009887
v 0.017349 0.008823 -0.009887
v 0.017345 0.008831 -0.009887
v 0.017343 0.008834 -0.009887
v 0.017347 0.008827 -0.009887
v 0.017290 0.008856 -0.009902
v 0.017293 0.008850 -0.009897
v 0.017297 0.008850 -0.009897
v 0.017300 0.008850 -0.009897
v 0.017303 0.008850 -0.009897
v 0.017307 0.008849 -0.009897
v 0.017375 0.008868 -0.009913
v 0.017375 0.008872 -0.009917
v 0.017290 0.008868 -0.009913
v 0.017375 0.008879 -0.009924
v 0.017290 0.008880 -0.009924
v 0.017375 0.008876 -0.009920
v 0.017375 0.008883 -0.009927
v 0.017290 0.008885 -0.009930
v 0.017290 0.008850 -0.009897
v 0.017290 0.008895 -0.009943
v 0.017375 0.008892 -0.009939
v 0.017375 0.008895 -0.009943
v 0.017290 0.008890 -0.009937
v 0.017375 0.008889 -0.009935
v 0.017375 0.008886 -0.009931
v 0.017290 0.008874 -0.009919
v 0.017375 0.008865 -0.009910
v 0.017290 0.008862 -0.009908
v 0.017375 0.008861 -0.009906
v 0.017310 0.008849 -0.009896
v 0.017375 0.008857 -0.009903
v 0.017313 0.008848 -0.009896
v 0.017375 0.008853 -0.009900
v 0.017317 0.008847 -0.009895
v 0.017320 0.008846 -0.009894
v 0.017375 0.008849 -0.009897
v 0.017326 0.008844 -0.009893
v 0.017329 0.008843 -0.009892
v 0.017375 0.008845 -0.009894
v 0.017375 0.008837 -0.009888
v 0.017375 0.008841 -0.009891
v 0.017340 0.008837 -0.009888
v 0.017338 0.008839 -0.009889
v 0.017335 0.008840 -0.009890
v 0.017332 0.008842 -0.009891
v 0.017323 0.008845 -0.009894
v 0.017290 0.008833 -0.009914
v 0.017290 0.008868 -0.009913
v 0.017290 0.008833 -0.009952
v 0.017290 0.008850 -0.009897
v 0.017290 0.008856 -0.009902
v 0.017290 0.008856 -0.009902
v 0.017290 0.008862 -0.009908
v 0.017290 0.008862 -0.009908
v 0.017290 0.008868 -0.009913
v 0.017290 0.008868 -0.009913
v 0.017290 0.008874 -0.009919
v 0.017290 0.008874 -0.009919
v 0.017290 0.008880 -0.009924
v 0.017290 0.008880 -0.009924
v 0.017290 0.008885 -0.009930
v 0.017290 0.008895 -0.009943
v 0.017290 0.008895 -0.009952
v 0.017290 0.008890 -0.009937
v 0.017290 0.008885 -0.009930
v 0.017290 0.008890 -0.009937
v 0.017290 0.008890 -0.009937
v 0.017375 0.008845 -0.009894
v 0.017375 0.008834 -0.009887
v 0.017375 0.008772 -0.009887
v 0.017375 0.008761 -0.009894
v 0.017375 0.008772 -0.009887
v 0.017375 0.008765 -0.009891
v 0.017375 0.008772 -0.009887
v 0.017375 0.008771 -0.009887
v 0.017375 0.008769 -0.009888
v 0.017375 0.008770 -0.009887
v 0.017375 0.008769 -0.009888
v 0.017375 0.008770 -0.009887
v 0.017375 0.008769 -0.009888
v 0.017375 0.008772 -0.009887
v 0.017375 0.008769 -0.009888
v 0.017375 0.008765 -0.009891
v 0.017375 0.008845 -0.009894
v 0.017375 0.008772 -0.009887
v 0.017375 0.008761 -0.009894
v 0.017375 0.008845 -0.009894
v 0.017375 0.008761 -0.009894
v 0.017375 0.008849 -0.009897
v 0.017375 0.008761 -0.009894
v 0.017375 0.008757 -0.009897
v 0.017375 0.008849 -0.009897
v 0.017375 0.008757 -0.009897
v 0.017375 0.008853 -0.009900
v 0.017375 0.008849 -0.009897
v 0.017375 0.008753 -0.009900
v 0.017375 0.008853 -0.009900
v 0.017375 0.008757 -0.009897
v 0.017375 0.008857 -0.009903
v 0.017375 0.008853 -0.009900
v 0.017375 0.008753 -0.009900
v 0.017375 0.008857 -0.009903
v 0.017375 0.008753 -0.009900
v 0.017375 0.008749 -0.009903
v 0.017375 0.008857 -0.009903
v 0.017375 0.008749 -0.009903
v 0.017375 0.008861 -0.009906
v 0.017375 0.008749 -0.009903
v 0.017375 0.008745 -0.009906
v 0.017375 0.008861 -0.009906
v 0.017375 0.008745 -0.009906
v 0.017375 0.008865 -0.009910
v 0.017375 0.008861 -0.009906
v 0.017375 0.008741 -0.009910
v 0.017375 0.008865 -0.009910
v 0.017375 0.008745 -0.009906
v 0.017375 0.008868 -0.009913
v 0.017375 0.008865 -0.009910
v 0.017375 0.008741 -0.009910
v 0.017375 0.008868 -0.009913
v 0.017375 0.008741 -0.009910
v 0.017375 0.008738 -0.009913
v 0.017375 0.008710 -0.009943
v 0.017375 0.008710 -0.009952
v 0.017375 0.008714 -0.009939
v 0.017375 0.008868 -0.009913
v 0.017375 0.008738 -0.009913
v 0.017375 0.008872 -0.009917
v 0.017375 0.008720 -0.009931
v 0.017375 0.008717 -0.009935
v 0.017375 0.008734 -0.009917
v 0.017375 0.008730 -0.009920
v 0.017375 0.008895 -0.009943
v 0.017375 0.008892 -0.009939
v 0.017375 0.008895 -0.009952
v 0.017375 0.008892 -0.009939
v 0.017375 0.008889 -0.009935
v 0.017375 0.008889 -0.009935
v 0.017375 0.008886 -0.009931
v 0.017375 0.008886 -0.009931
v 0.017375 0.008883 -0.009927
v 0.017375 0.008883 -0.009927
v 0.017375 0.008879 -0.009924
v 0.017375 0.008879 -0.009924
v 0.017375 0.008876 -0.009920
v 0.017375 0.008876 -0.009920
v 0.017375 0.008872 -0.009917
v 0.017375 0.008734 -0.009917
v 0.017375 0.008730 -0.009920
v 0.017375 0.008727 -0.009924
v 0.017375 0.008727 -0.009924
v 0.017375 0.008723 -0.009927
v 0.017375 0.008723 -0.009927
v 0.017375 0.008720 -0.009931
v 0.017375 0.008734 -0.009917
v 0.017375 0.008872 -0.009917
v 0.017375 0.008872 -0.009917
v 0.017375 0.008738 -0.009913
v 0.017375 0.008734 -0.009917
v 0.017375 0.008717 -0.009935
v 0.017375 0.008714 -0.009939
v 0.017375 0.008845 -0.009894
v 0.017375 0.008841 -0.009891
v 0.017375 0.008834 -0.009887
v 0.017375 0.008836 -0.009887
v 0.017375 0.008834 -0.009887
v 0.017375 0.008836 -0.009887
v 0.017375 0.008834 -0.009887
v 0.017375 0.008837 -0.009888
v 0.017375 0.008835 -0.009887
v 0.017375 0.008834 -0.009887
v 0.017375 0.008837 -0.009888
v 0.017375 0.008834 -0.009887
v 0.017375 0.008841 -0.009891
v 0.017375 0.008710 -0.009952
v 0.017375 0.008710 -0.009943
v 0.017290 0.008710 -0.009952
v 0.017375 0.008710 -0.009943
v 0.017290 0.008710 -0.009943
v 0.017290 0.008710 -0.009952
v 0.017290 0.008895 -0.009952
v 0.017290 0.008895 -0.009943
v 0.017375 0.008895 -0.009952
v 0.017290 0.008895 -0.009943
v 0.017375 0.008895 -0.009943
v 0.017375 0.008895 -0.009952
v 0.017290 0.008710 -0.009952
v 0.017306 0.008775 -0.009952
v 0.017308 0.008776 -0.009952
v 0.017375 0.008710 -0.009952
v 0.017325 0.008801 -0.009952
v 0.017325 0.008803 -0.009952
v 0.017292 0.008833 -0.009952
v 0.017290 0.008833 -0.009952
v 0.017290 0.008895 -0.009952
v 0.017290 0.008895 -0.009952
v 0.017293 0.008833 -0.009952
v 0.017290 0.008895 -0.009952
v 0.017295 0.008833 -0.009952
v 0.017290 0.008895 -0.009952
v 0.017296 0.008833 -0.009952
v 0.017290 0.008895 -0.009952
v 0.017298 0.008833 -0.009952
v 0.017290 0.008895 -0.009952
v 0.017300 0.008833 -0.009952
v 0.017290 0.008895 -0.009952
v 0.017301 0.008832 -0.009952
v 0.017290 0.008895 -0.009952
v 0.017303 0.008832 -0.009952
v 0.017290 0.008895 -0.009952
v 0.017304 0.008831 -0.009952
v 0.017290 0.008895 -0.009952
v 0.017306 0.008831 -0.009952
v 0.017290 0.008895 -0.009952
v 0.017308 0.008830 -0.009952
v 0.017290 0.008895 -0.009952
v 0.017309 0.008830 -0.009952
v 0.017290 0.008895 -0.009952
v 0.017375 0.008895 -0.009952
v 0.017375 0.008895 -0.009952
v 0.017310 0.008829 -0.009952
v 0.017375 0.008895 -0.009952
v 0.017312 0.008828 -0.009952
v 0.017375 0.008895 -0.009952
v 0.017313 0.008827 -0.009952
v 0.017375 0.008895 -0.009952
v 0.017314 0.008826 -0.009952
v 0.017375 0.008895 -0.009952
v 0.017316 0.008825 -0.009952
v 0.017375 0.008895 -0.009952
v 0.017317 0.008824 -0.009952
v 0.017375 0.008895 -0.009952
v 0.017318 0.008822 -0.009952
v 0.017375 0.008895 -0.009952
v 0.017319 0.008821 -0.009952
v 0.017375 0.008895 -0.009952
v 0.017320 0.008820 -0.009952
v 0.017375 0.008895 -0.009952
v 0.017321 0.008819 -0.009952
v 0.017323 0.008814 -0.009952
v 0.017322 0.008816 -0.009952
v 0.017375 0.008895 -0.009952
v 0.017375 0.008895 -0.009952
v 0.017321 0.008817 -0.009952
v 0.017323 0.008813 -0.009952
v 0.017375 0.008895 -0.009952
v 0.017324 0.008811 -0.009952
v 0.017375 0.008895 -0.009952
v 0.017324 0.008809 -0.009952
v 0.017375 0.008895 -0.009952
v 0.017325 0.008808 -0.009952
v 0.017375 0.008895 -0.009952
v 0.017325 0.008806 -0.009952
v 0.017375 0.008895 -0.009952
v 0.017325 0.008805 -0.009952
v 0.017375 0.008895 -0.009952
v 0.017375 0.008895 -0.009952
v 0.017375 0.008895 -0.009952
v 0.017375 0.008710 -0.009952
v 0.017375 0.008710 -0.009952
v 0.017325 0.008800 -0.009952
v 0.017375 0.008710 -0.009952
v 0.017325 0.008798 -0.009952
v 0.017375 0.008710 -0.009952
v 0.017324 0.008797 -0.009952
v 0.017375 0.008710 -0.009952
v 0.017324 0.008795 -0.009952
v 0.017375 0.008710 -0.009952
v 0.017323 0.008793 -0.009952
v 0.017322 0.008790 -0.009952
v 0.017375 0.008710 -0.009952
v 0.017321 0.008789 -0.009952
v 0.017323 0.008792 -0.009952
v 0.017375 0.008710 -0.009952
v 0.017375 0.008710 -0.009952
v 0.017321 0.008787 -0.009952
v 0.017375 0.008710 -0.009952
v 0.017320 0.008786 -0.009952
v 0.017375 0.008710 -0.009952
v 0.017319 0.008785 -0.009952
v 0.017375 0.008710 -0.009952
v 0.017318 0.008784 -0.009952
v 0.017375 0.008710 -0.009952
v 0.017317 0.008782 -0.009952
v 0.017375 0.008710 -0.009952
v 0.017316 0.008781 -0.009952
v 0.017375 0.008710 -0.009952
v 0.017314 0.008780 -0.009952
v 0.017375 0.008710 -0.009952
v 0.017313 0.008779 -0.009952
v 0.017375 0.008710 -0.009952
v 0.017312 0.008778 -0.009952
v 0.017375 0.008710 -0.009952
v 0.017310 0.008777 -0.009952
v 0.017375 0.008710 -0.009952
v 0.017309 0.008776 -0.009952
v 0.017375 0.008710 -0.009952
v 0.017290 0.008710 -0.009952
v 0.017290 0.008710 -0.009952
v 0.017304 0.008775 -0.009952
v 0.017290 0.008710 -0.009952
v 0.017303 0.008774 -0.009952
v 0.017290 0.008710 -0.009952
v 0.017301 0.008774 -0.009952
v 0.017290 0.008710 -0.009952
v 0.017290 0.008710 -0.009952
v 0.017300 0.008773 -0.009952
v 0.017290 0.008710 -0.009952
v 0.017298 0.008773 -0.009952
v 0.017290 0.008710 -0.009952
v 0.017296 0.008773 -0.009952
v 0.017290 0.008710 -0.009952
v 0.017295 0.008773 -0.009952
v 0.017290 0.008710 -0.009952
v 0.017293 0.008773 -0.009952
v 0.017375 0.008895 -0.009952
v 0.017290 0.008710 -0.009952
v 0.017292 0.008773 -0.009952
v 0.017375 0.008710 -0.009952
v 0.017290 0.008710 -0.009952
v 0.017290 0.008773 -0.009952
v 0.017292 0.008833 -0.009952
v 0.017293 0.008833 -0.009952
v 0.017292 0.008833 -0.009914
v 0.017293 0.008833 -0.009952
v 0.017295 0.008833 -0.009952
v 0.017293 0.008833 -0.009914
v 0.017295 0.008833 -0.009952
v 0.017295 0.008833 -0.009914
v 0.017296 0.008833 -0.009952
v 0.017296 0.008833 -0.009914
v 0.017298 0.008833 -0.009952
v 0.017298 0.008833 -0.009914
v 0.017300 0.008833 -0.009952
v 0.017300 0.008833 -0.009914
v 0.017301 0.008832 -0.009952
v 0.017300 0.008833 -0.009952
v 0.017303 0.008832 -0.009952
v 0.017301 0.008832 -0.009914
v 0.017301 0.008832 -0.009952
v 0.017303 0.008832 -0.009914
v 0.017303 0.008832 -0.009952
v 0.017304 0.008831 -0.009914
v 0.017304 0.008831 -0.009952
v 0.017304 0.008831 -0.009952
v 0.017306 0.008831 -0.009952
v 0.017306 0.008831 -0.009914
v 0.017306 0.008831 -0.009952
v 0.017308 0.008830 -0.009952
v 0.017308 0.008830 -0.009914
v 0.017308 0.008830 -0.009952
v 0.017309 0.008830 -0.009952
v 0.017309 0.008830 -0.009952
v 0.017309 0.008830 -0.009914
v 0.017310 0.008829 -0.009952
v 0.017310 0.008829 -0.009914
v 0.017310 0.008829 -0.009952
v 0.017312 0.008828 -0.009952
v 0.017312 0.008828 -0.009952
v 0.017313 0.008827 -0.009952
v 0.017312 0.008828 -0.009914
v 0.017313 0.008827 -0.009952
v 0.017313 0.008827 -0.009914
v 0.017314 0.008826 -0.009952
v 0.017314 0.008826 -0.009914
v 0.017316 0.008825 -0.009952
v 0.017314 0.008826 -0.009952
v 0.017317 0.008824 -0.009952
v 0.017316 0.008825 -0.009914
v 0.017316 0.008825 -0.009952
v 0.017317 0.008824 -0.009914
v 0.017317 0.008824 -0.009952
v 0.017318 0.008822 -0.009914
v 0.017318 0.008822 -0.009952
v 0.017318 0.008822 -0.009952
v 0.017319 0.008821 -0.009952
v 0.017319 0.008821 -0.009914
v 0.017319 0.008821 -0.009952
v 0.017320 0.008820 -0.009952
v 0.017320 0.008820 -0.009952
v 0.017320 0.008820 -0.009914
v 0.017321 0.008819 -0.009952
v 0.017321 0.008819 -0.009914
v 0.017321 0.008819 -0.009952
v 0.017321 0.008817 -0.009952
v 0.017321 0.008817 -0.009952
v 0.017322 0.008816 -0.009952
v 0.017321 0.008817 -0.009914
v 0.017322 0.008816 -0.009952
v 0.017322 0.008816 -0.009914
v 0.017323 0.008814 -0.009952
v 0.017323 0.008814 -0.009914
v 0.017323 0.008813 -0.009952
v 0.017323 0.008814 -0.009952
v 0.017324 0.008811 -0.009952
v 0.017323 0.008813 -0.009914
v 0.017323 0.008813 -0.009952
v 0.017324 0.008811 -0.009914
v 0.017324 0.008811 -0.009952
v 0.017324 0.008809 -0.009914
v 0.017324 0.008809 -0.009952
v 0.017324 0.008809 -0.009952
v 0.017325 0.008808 -0.009952
v 0.017325 0.008808 -0.009914
v 0.017325 0.008808 -0.009952
v 0.017325 0.008806 -0.009952
v 0.017325 0.008806 -0.009952
v 0.017325 0.008806 -0.009914
v 0.017325 0.008805 -0.009952
v 0.017325 0.008805 -0.009914
v 0.017325 0.008805 -0.009952
v 0.017325 0.008803 -0.009952
v 0.017325 0.008803 -0.009952
v 0.017325 0.008801 -0.009952
v 0.017325 0.008803 -0.009914
v 0.017325 0.008801 -0.009952
v 0.017325 0.008801 -0.009914
v 0.017325 0.008800 -0.009952
v 0.017325 0.008800 -0.009914
v 0.017325 0.008798 -0.009952
v 0.017325 0.008800 -0.009952
v 0.017324 0.008797 -0.009952
v 0.017325 0.008798 -0.009914
v 0.017325 0.008798 -0.009952
v 0.017324 0.008795 -0.009952
v 0.017324 0.008797 -0.009914
v 0.017324 0.008797 -0.009952
v 0.017324 0.008795 -0.009914
v 0.017324 0.008795 -0.009952
v 0.017323 0.008793 -0.009914
v 0.017323 0.008793 -0.009952
v 0.017323 0.008793 -0.009952
v 0.017323 0.008792 -0.009952
v 0.017323 0.008792 -0.009914
v 0.017323 0.008792 -0.009952
v 0.017322 0.008790 -0.009952
v 0.017322 0.008790 -0.009952
v 0.017322 0.008790 -0.009914
v 0.017321 0.008789 -0.009952
v 0.017321 0.008789 -0.009914
v 0.017321 0.008789 -0.009952
v 0.017321 0.008787 -0.009952
v 0.017321 0.008787 -0.009952
v 0.017320 0.008786 -0.009952
v 0.017321 0.008787 -0.009914
v 0.017320 0.008786 -0.009952
v 0.017320 0.008786 -0.009914
v 0.017319 0.008785 -0.009952
v 0.017319 0.008785 -0.009914
v 0.017318 0.008784 -0.009952
v 0.017319 0.008785 -0.009952
v 0.017317 0.008782 -0.009952
v 0.017318 0.008784 -0.009914
v 0.017318 0.008784 -0.009952
v 0.017317 0.008782 -0.009914
v 0.017317 0.008782 -0.009952
v 0.017316 0.008781 -0.009914
v 0.017316 0.008781 -0.009952
v 0.017316 0.008781 -0.009952
v 0.017314 0.008780 -0.009952
v 0.017314 0.008780 -0.009914
v 0.017314 0.008780 -0.009952
v 0.017313 0.008779 -0.009952
v 0.017313 0.008779 -0.009952
v 0.017313 0.008779 -0.009914
v 0.017292 0.008773 -0.009914
v 0.017293 0.008773 -0.009914
v 0.017292 0.008773 -0.009952
v 0.017290 0.008773 -0.009952
v 0.017290 0.008773 -0.009914
v 0.017290 0.008773 -0.009952
v 0.017292 0.008773 -0.009952
v 0.017293 0.008773 -0.009952
v 0.017292 0.008773 -0.009952
v 0.017295 0.008773 -0.009914
v 0.017293 0.008773 -0.009952
v 0.017295 0.008773 -0.009952
v 0.017293 0.008773 -0.009952
v 0.017295 0.008773 -0.009952
v 0.017296 0.008773 -0.009914
v 0.017295 0.008773 -0.009952
v 0.017296 0.008773 -0.009952
v 0.017298 0.008773 -0.009914
v 0.017296 0.008773 -0.009952
v 0.017298 0.008773 -0.009952
v 0.017296 0.008773 -0.009952
v 0.017300 0.008773 -0.009914
v 0.017298 0.008773 -0.009952
v 0.017300 0.008773 -0.009952
v 0.017298 0.008773 -0.009952
v 0.017300 0.008773 -0.009952
v 0.017301 0.008774 -0.009914
v 0.017300 0.008773 -0.009952
v 0.017301 0.008774 -0.009952
v 0.017303 0.008774 -0.009914
v 0.017301 0.008774 -0.009952
v 0.017303 0.008774 -0.009952
v 0.017301 0.008774 -0.009952
v 0.017304 0.008775 -0.009914
v 0.017303 0.008774 -0.009952
v 0.017304 0.008775 -0.009952
v 0.017303 0.008774 -0.009952
v 0.017304 0.008775 -0.009952
v 0.017306 0.008775 -0.009914
v 0.017304 0.008775 -0.009952
v 0.017306 0.008775 -0.009952
v 0.017308 0.008776 -0.009914
v 0.017306 0.008775 -0.009952
v 0.017308 0.008776 -0.009952
v 0.017306 0.008775 -0.009952
v 0.017309 0.008776 -0.009914
v 0.017308 0.008776 -0.009952
v 0.017309 0.008776 -0.009952
v 0.017308 0.008776 -0.009952
v 0.017309 0.008776 -0.009952
v 0.017310 0.008777 -0.009914
v 0.017309 0.008776 -0.009952
v 0.017310 0.008777 -0.009952
v 0.017312 0.008778 -0.009914
v 0.017310 0.008777 -0.009952
v 0.017312 0.008778 -0.009952
v 0.017310 0.008777 -0.009952
v 0.017312 0.008778 -0.009952
v 0.017313 0.008779 -0.009952
v 0.017312 0.008778 -0.009952
v 0.017314 0.008780 -0.009952
v 0.017317 0.008782 -0.009952
v 0.017316 0.008781 -0.009952
v 0.017318 0.008784 -0.009952
v 0.017319 0.008785 -0.009952
v 0.017320 0.008786 -0.009952
v 0.017321 0.008787 -0.009952
v 0.017322 0.008790 -0.009952
v 0.017321 0.008789 -0.009952
v 0.017323 0.008792 -0.009952
v 0.017324 0.008795 -0.009952
v 0.017323 0.008793 -0.009952
v 0.017324 0.008797 -0.009952
v 0.017325 0.008798 -0.009952
v 0.017325 0.008800 -0.009952
v 0.017325 0.008801 -0.009952
v 0.017325 0.008803 -0.009952
v 0.017325 0.008806 -0.009952
v 0.017325 0.008805 -0.009952
v 0.017325 0.008808 -0.009952
v 0.017324 0.008811 -0.009952
v 0.017324 0.008809 -0.009952
v 0.017323 0.008813 -0.009952
v 0.017323 0.008814 -0.009952
v 0.017322 0.008816 -0.009952
v 0.017321 0.008817 -0.009952
v 0.017320 0.008820 -0.009952
v 0.017321 0.008819 -0.009952
v 0.017319 0.008821 -0.009952
v 0.017317 0.008824 -0.009952
v 0.017318 0.008822 -0.009952
v 0.017316 0.008825 -0.009952
v 0.017314 0.008826 -0.009952
v 0.017313 0.008827 -0.009952
v 0.017312 0.008828 -0.009952
v 0.017309 0.008830 -0.009952
v 0.017310 0.008829 -0.009952
v 0.017308 0.008830 -0.009952
v 0.017306 0.008831 -0.009952
v 0.017303 0.008832 -0.009952
v 0.017304 0.008831 -0.009952
v 0.017298 0.008833 -0.009952
v 0.017300 0.008833 -0.009952
v 0.017295 0.008833 -0.009952
v 0.017296 0.008833 -0.009952
v 0.017290 0.008833 -0.009952
v 0.017292 0.008833 -0.009952
v 0.017290 0.008833 -0.009914
v 0.017290 0.008833 -0.009952
v 0.017301 0.008832 -0.009952
v 0.017296 0.008833 -0.009952
v 0.017298 0.008833 -0.009952
v 0.017293 0.008833 -0.009952
v 0.017293 0.008756 -0.009897
v 0.017295 0.008773 -0.009914
v 0.017293 0.008773 -0.009914
v 0.017293 0.008756 -0.009897
v 0.017293 0.008773 -0.009914
v 0.017290 0.008756 -0.009897
v 0.017297 0.008756 -0.009897
v 0.017296 0.008773 -0.009914
v 0.017295 0.008773 -0.009914
v 0.017298 0.008773 -0.009914
v 0.017296 0.008773 -0.009914
v 0.017300 0.008756 -0.009897
v 0.017300 0.008773 -0.009914
v 0.017300 0.008756 -0.009897
v 0.017304 0.008756 -0.009897
v 0.017301 0.008774 -0.009914
v 0.017304 0.008756 -0.009897
v 0.017307 0.008757 -0.009897
v 0.017303 0.008774 -0.009914
v 0.017307 0.008757 -0.009897
v 0.017310 0.008757 -0.009896
v 0.017304 0.008775 -0.009914
v 0.017310 0.008757 -0.009896
v 0.017306 0.008775 -0.009914
v 0.017310 0.008757 -0.009896
v 0.017313 0.008758 -0.009896
v 0.017306 0.008775 -0.009914
v 0.017313 0.008758 -0.009896
v 0.017317 0.008759 -0.009895
v 0.017308 0.008776 -0.009914
v 0.017317 0.008759 -0.009895
v 0.017309 0.008776 -0.009914
v 0.017308 0.008776 -0.009914
v 0.017320 0.008760 -0.009894
v 0.017310 0.008777 -0.009914
v 0.017309 0.008776 -0.009914
v 0.017323 0.008761 -0.009894
v 0.017312 0.008778 -0.009914
v 0.017310 0.008777 -0.009914
v 0.017326 0.008762 -0.009893
v 0.017312 0.008778 -0.009914
v 0.017323 0.008761 -0.009894
v 0.017314 0.008780 -0.009914
v 0.017313 0.008779 -0.009914
v 0.017326 0.008762 -0.009893
v 0.017314 0.008780 -0.009914
v 0.017326 0.008762 -0.009893
v 0.017329 0.008763 -0.009892
v 0.017314 0.008780 -0.009914
v 0.017329 0.008763 -0.009892
v 0.017316 0.008781 -0.009914
v 0.017329 0.008763 -0.009892
v 0.017332 0.008764 -0.009891
v 0.017316 0.008781 -0.009914
v 0.017317 0.008782 -0.009914
v 0.017335 0.008766 -0.009890
v 0.017318 0.008784 -0.009914
v 0.017332 0.008764 -0.009891
v 0.017317 0.008782 -0.009914
v 0.017316 0.008781 -0.009914
v 0.017335 0.008766 -0.009890
v 0.017338 0.008767 -0.009889
v 0.017318 0.008784 -0.009914
v 0.017338 0.008767 -0.009889
v 0.017340 0.008769 -0.009888
v 0.017319 0.008785 -0.009914
v 0.017340 0.008769 -0.009888
v 0.017341 0.008770 -0.009888
v 0.017320 0.008786 -0.009914
v 0.017342 0.008770 -0.009887
v 0.017320 0.008786 -0.009914
v 0.017320 0.008786 -0.009914
v 0.017343 0.008771 -0.009887
v 0.017343 0.008772 -0.009887
v 0.017321 0.008787 -0.009914
v 0.017343 0.008772 -0.009887
v 0.017345 0.008775 -0.009887
v 0.017321 0.008787 -0.009914
v 0.017345 0.008775 -0.009887
v 0.017321 0.008789 -0.009914
v 0.017321 0.008789 -0.009914
v 0.017347 0.008779 -0.009887
v 0.017322 0.008790 -0.009914
v 0.017347 0.008779 -0.009887
v 0.017349 0.008783 -0.009887
v 0.017323 0.008792 -0.009914
v 0.017349 0.008783 -0.009887
v 0.017350 0.008787 -0.009887
v 0.017323 0.008793 -0.009914
v 0.017350 0.008787 -0.009887
v 0.017324 0.008795 -0.009914
v 0.017323 0.008793 -0.009914
v 0.017351 0.008791 -0.009887
v 0.017324 0.008797 -0.009914
v 0.017324 0.008795 -0.009914
v 0.017352 0.008795 -0.009887
v 0.017325 0.008798 -0.009914
v 0.017351 0.008791 -0.009887
v 0.017325 0.008800 -0.009914
v 0.017325 0.008798 -0.009914
v 0.017352 0.008795 -0.009887
v 0.017325 0.008801 -0.009914
v 0.017325 0.008800 -0.009914
v 0.017352 0.008799 -0.009887
v 0.017325 0.008803 -0.009914
v 0.017325 0.008801 -0.009914
v 0.017352 0.008803 -0.009887
v 0.017325 0.008805 -0.009914
v 0.017325 0.008803 -0.009914
v 0.017352 0.008803 -0.009887
v 0.017325 0.008805 -0.009914
v 0.017352 0.008803 -0.009887
v 0.017352 0.008807 -0.009887
v 0.017325 0.008805 -0.009914
v 0.017352 0.008807 -0.009887
v 0.017325 0.008806 -0.009914
v 0.017325 0.008806 -0.009914
v 0.017352 0.008811 -0.009887
v 0.017325 0.008808 -0.009914
v 0.017352 0.008811 -0.009887
v 0.017351 0.008815 -0.009887
v 0.017325 0.008808 -0.009914
v 0.017351 0.008815 -0.009887
v 0.017324 0.008811 -0.009914
v 0.017324 0.008809 -0.009914
v 0.017350 0.008819 -0.009887
v 0.017323 0.008813 -0.009914
v 0.017324 0.008811 -0.009914
v 0.017349 0.008823 -0.009887
v 0.017323 0.008814 -0.009914
v 0.017323 0.008813 -0.009914
v 0.017347 0.008827 -0.009887
v 0.017322 0.008816 -0.009914
v 0.017323 0.008814 -0.009914
v 0.017321 0.008817 -0.009914
v 0.017322 0.008816 -0.009914
v 0.017347 0.008827 -0.009887
v 0.017321 0.008819 -0.009914
v 0.017321 0.008817 -0.009914
v 0.017345 0.008831 -0.009887
v 0.017320 0.008820 -0.009914
v 0.017321 0.008819 -0.009914
v 0.017343 0.008834 -0.009887
v 0.017342 0.008836 -0.009887
v 0.017320 0.008820 -0.009914
v 0.017343 0.008835 -0.009887
v 0.017335 0.008840 -0.009890
v 0.017318 0.008822 -0.009914
v 0.017338 0.008839 -0.009889
v 0.017319 0.008821 -0.009914
v 0.017340 0.008837 -0.009888
v 0.017338 0.008839 -0.009889
v 0.017317 0.008824 -0.009914
v 0.017318 0.008822 -0.009914
v 0.017335 0.008840 -0.009890
v 0.017316 0.008825 -0.009914
v 0.017317 0.008824 -0.009914
v 0.017332 0.008842 -0.009891
v 0.017314 0.008826 -0.009914
v 0.017316 0.008825 -0.009914
v 0.017329 0.008843 -0.009892
v 0.017313 0.008827 -0.009914
v 0.017314 0.008826 -0.009914
v 0.017326 0.008844 -0.009893
v 0.017341 0.008836 -0.009888
v 0.017340 0.008837 -0.009888
v 0.017320 0.008820 -0.009914
v 0.017290 0.008850 -0.009897
v 0.017290 0.008833 -0.009914
v 0.017292 0.008833 -0.009914
v 0.017290 0.008850 -0.009897
v 0.017292 0.008833 -0.009914
v 0.017293 0.008833 -0.009914
v 0.017290 0.008850 -0.009897
v 0.017293 0.008833 -0.009914
v 0.017293 0.008850 -0.009897
v 0.017293 0.008833 -0.009914
v 0.017295 0.008833 -0.009914
v 0.017293 0.008850 -0.009897
v 0.017295 0.008833 -0.009914
v 0.017297 0.008850 -0.009897
v 0.017293 0.008850 -0.009897
v 0.017296 0.008833 -0.009914
v 0.017297 0.008850 -0.009897
v 0.017295 0.008833 -0.009914
v 0.017300 0.008850 -0.009897
v 0.017297 0.008850 -0.009897
v 0.017296 0.008833 -0.009914
v 0.017300 0.008850 -0.009897
v 0.017296 0.008833 -0.009914
v 0.017298 0.008833 -0.009914
v 0.017300 0.008850 -0.009897
v 0.017298 0.008833 -0.009914
v 0.017300 0.008833 -0.009914
v 0.017300 0.008850 -0.009897
v 0.017300 0.008833 -0.009914
v 0.017303 0.008850 -0.009897
v 0.017300 0.008833 -0.009914
v 0.017301 0.008832 -0.009914
v 0.017303 0.008850 -0.009897
v 0.017301 0.008832 -0.009914
v 0.017307 0.008849 -0.009897
v 0.017303 0.008850 -0.009897
v 0.017303 0.008832 -0.009914
v 0.017307 0.008849 -0.009897
v 0.017301 0.008832 -0.009914
v 0.017310 0.008849 -0.009896
v 0.017307 0.008849 -0.009897
v 0.017303 0.008832 -0.009914
v 0.017310 0.008849 -0.009896
v 0.017303 0.008832 -0.009914
v 0.017304 0.008831 -0.009914
v 0.017310 0.008849 -0.009896
v 0.017304 0.008831 -0.009914
v 0.017306 0.008831 -0.009914
v 0.017310 0.008849 -0.009896
v 0.017306 0.008831 -0.009914
v 0.017313 0.008848 -0.009896
v 0.017306 0.008831 -0.009914
v 0.017308 0.008830 -0.009914
v 0.017313 0.008848 -0.009896
v 0.017308 0.008830 -0.009914
v 0.017317 0.008847 -0.009895
v 0.017313 0.008848 -0.009896
v 0.017309 0.008830 -0.009914
v 0.017317 0.008847 -0.009895
v 0.017308 0.008830 -0.009914
v 0.017320 0.008846 -0.009894
v 0.017317 0.008847 -0.009895
v 0.017309 0.008830 -0.009914
v 0.017320 0.008846 -0.009894
v 0.017309 0.008830 -0.009914
v 0.017310 0.008829 -0.009914
v 0.017320 0.008846 -0.009894
v 0.017310 0.008829 -0.009914
v 0.017323 0.008845 -0.009894
v 0.017310 0.008829 -0.009914
v 0.017312 0.008828 -0.009914
v 0.017323 0.008845 -0.009894
v 0.017312 0.008828 -0.009914
v 0.017326 0.008844 -0.009893
v 0.017323 0.008845 -0.009894
v 0.017313 0.008827 -0.009914
v 0.017326 0.008844 -0.009893
v 0.017312 0.008828 -0.009914
v 0.017314 0.008826 -0.009914
v 0.017329 0.008843 -0.009892
v 0.017326 0.008844 -0.009893
v 0.017316 0.008825 -0.009914
v 0.017332 0.008842 -0.009891
v 0.017329 0.008843 -0.009892
v 0.017317 0.008824 -0.009914
v 0.017335 0.008840 -0.009890
v 0.017332 0.008842 -0.009891
v 0.017318 0.008822 -0.009914
v 0.017319 0.008821 -0.009914
v 0.017338 0.008839 -0.009889
v 0.017319 0.008821 -0.009914
v 0.017320 0.008820 -0.009914
v 0.017340 0.008837 -0.009888
v 0.017320 0.008820 -0.009914
v 0.017343 0.008834 -0.009887
v 0.017320 0.008820 -0.009914
v 0.017345 0.008831 -0.009887
v 0.017343 0.008834 -0.009887
v 0.017321 0.008819 -0.009914
v 0.017347 0.008827 -0.009887
v 0.017345 0.008831 -0.009887
v 0.017321 0.008817 -0.009914
v 0.017323 0.008814 -0.009914
v 0.017349 0.008823 -0.009887
v 0.017347 0.008827 -0.009887
v 0.017323 0.008813 -0.009914
v 0.017350 0.008819 -0.009887
v 0.017349 0.008823 -0.009887
v 0.017324 0.008811 -0.009914
v 0.017351 0.008815 -0.009887
v 0.017350 0.008819 -0.009887
v 0.017324 0.008809 -0.009914
v 0.017325 0.008808 -0.009914
v 0.017351 0.008815 -0.009887
v 0.017352 0.008811 -0.009887
v 0.017325 0.008806 -0.009914
v 0.017352 0.008807 -0.009887
v 0.017325 0.008801 -0.009914
v 0.017352 0.008799 -0.009887
v 0.017352 0.008803 -0.009887
v 0.017325 0.008800 -0.009914
v 0.017352 0.008795 -0.009887
v 0.017352 0.008799 -0.009887
v 0.017325 0.008798 -0.009914
v 0.017324 0.008797 -0.009914
v 0.017351 0.008791 -0.009887
v 0.017351 0.008791 -0.009887
v 0.017324 0.008795 -0.009914
v 0.017350 0.008787 -0.009887
v 0.017349 0.008783 -0.009887
v 0.017323 0.008793 -0.009914
v 0.017323 0.008792 -0.009914
v 0.017347 0.008779 -0.009887
v 0.017323 0.008792 -0.009914
v 0.017322 0.008790 -0.009914
v 0.017345 0.008775 -0.009887
v 0.017347 0.008779 -0.009887
v 0.017321 0.008789 -0.009914
v 0.017320 0.008786 -0.009914
v 0.017343 0.008772 -0.009887
v 0.017321 0.008787 -0.009914
v 0.017320 0.008786 -0.009914
v 0.017340 0.008769 -0.009888
v 0.017320 0.008786 -0.009914
v 0.017319 0.008785 -0.009914
v 0.017338 0.008767 -0.009889
v 0.017319 0.008785 -0.009914
v 0.017318 0.008784 -0.009914
v 0.017332 0.008764 -0.009891
v 0.017335 0.008766 -0.009890
v 0.017317 0.008782 -0.009914
v 0.017326 0.008762 -0.009893
v 0.017313 0.008779 -0.009914
v 0.017312 0.008778 -0.009914
v 0.017320 0.008760 -0.009894
v 0.017323 0.008761 -0.009894
v 0.017310 0.008777 -0.009914
v 0.017317 0.008759 -0.009895
v 0.017320 0.008760 -0.009894
v 0.017309 0.008776 -0.009914
v 0.017310 0.008757 -0.009896
v 0.017304 0.008775 -0.009914
v 0.017303 0.008774 -0.009914
v 0.017300 0.008773 -0.009914
v 0.017304 0.008756 -0.009897
v 0.017301 0.008774 -0.009914
v 0.017298 0.008773 -0.009914
v 0.017300 0.008756 -0.009897
v 0.017300 0.008773 -0.009914
v 0.017296 0.008773 -0.009914
v 0.017297 0.008756 -0.009897
v 0.017300 0.008756 -0.009897
v 0.017293 0.008756 -0.009897
v 0.017297 0.008756 -0.009897
v 0.017295 0.008773 -0.009914
v 0.017292 0.008773 -0.009914
v 0.017290 0.008773 -0.009914
v 0.017290 0.008756 -0.009897
v 0.017307 0.008757 -0.009897
v 0.017303 0.008774 -0.009914
v 0.017301 0.008774 -0.009914
v 0.017308 0.008776 -0.009914
v 0.017306 0.008775 -0.009914
v 0.017313 0.008758 -0.009896
v 0.017293 0.008773 -0.009914
v 0.017292 0.008773 -0.009914
v 0.017290 0.008756 -0.009897
v 0.017375 0.008835 -0.009887
v 0.017375 0.008835 -0.009887
v 0.017375 0.008836 -0.009887
v 0.017375 0.008836 -0.009887
v 0.017343 0.008835 -0.009887
v 0.017343 0.008835 -0.009887
v 0.017375 0.008836 -0.009887
v 0.017375 0.008836 -0.009887
v 0.017341 0.008836 -0.009888
v 0.017341 0.008836 -0.009888
v 0.017342 0.008836 -0.009887
v 0.017342 0.008836 -0.009887
v 0.017343 0.008835 -0.009887
v 0.017375 0.008836 -0.009887
v 0.017342 0.008836 -0.009887
v 0.017375 0.008836 -0.009887
v 0.017342 0.008770 -0.009887
v 0.017341 0.008770 -0.009888
v 0.017341 0.008770 -0.009888
v 0.017342 0.008770 -0.009887
v 0.017375 0.008770 -0.009887
v 0.017375 0.008771 -0.009887
v 0.017375 0.008771 -0.009887
v 0.017375 0.008770 -0.009887
v 0.017375 0.008770 -0.009887
v 0.017343 0.008771 -0.009887
v 0.017375 0.008770 -0.009887
v 0.017375 0.008770 -0.009887
v 0.017343 0.008771 -0.009887
v 0.017375 0.008770 -0.009887
v 0.017343 0.008771 -0.009887
v 0.017342 0.008770 -0.009887
vn -1.0000 0.0001 -0.0000
vn -1.0000 -0.0001 -0.0000
vn -1.0000 -0.0000 -0.0000
vn -0.0000 -0.7940 0.6079
vn -0.0001 -0.7940 0.6079
vn -0.0000 -0.7816 0.6238
vn -0.0000 -0.7739 0.6333
vn -0.0000 -0.7688 0.6395
vn -0.0000 -0.7815 0.6239
vn -0.0000 -0.7530 0.6580
vn -0.0000 -0.7558 0.6548
vn -0.0000 -0.7424 0.6699
vn -0.0000 -0.7557 0.6549
vn 0.0001 -0.7424 0.6700
vn -0.0000 -0.7313 0.6820
vn -0.0000 -0.7287 0.6848
vn -0.0000 -0.7147 0.6994
vn -0.0000 -0.7314 0.6820
vn -0.0000 -0.7423 0.6700
vn -0.0000 -0.7313 0.6821
vn -0.0000 -0.7089 0.7053
vn -0.0000 -0.7004 0.7137
vn -0.0000 -0.6857 0.7279
vn -0.0000 -0.6859 0.7277
vn -0.0000 -0.6710 0.7414
vn -0.0000 -0.6618 0.7497
vn -0.0000 -0.6560 0.7548
vn -0.0000 -0.6372 0.7707
vn -0.0000 -0.6124 0.7905
vn -0.0000 -0.6119 0.7910
vn -0.0000 -0.6617 0.7497
vn -0.0000 -0.6559 0.7548
vn -0.0000 -0.6371 0.7708
vn -0.0000 -0.6124 0.7906
vn -0.0000 -0.6406 0.7679
vn -0.0000 -0.6118 0.7910
vn -0.0000 -0.6106 0.7919
vn -0.0000 -0.6107 0.7919
vn -0.0001 -0.6090 0.7932
vn -0.0000 -0.6405 0.7679
vn -0.0001 -0.6249 0.7807
vn -0.0000 -0.6068 0.7948
vn -0.0000 -0.6010 0.7992
vn -0.0000 -0.6041 0.7969
vn -0.0000 -0.5599 0.8286
vn -0.0000 -0.5665 0.8240
vn 0.0002 -0.5764 0.8172
vn 0.0002 -0.5727 0.8198
vn -0.0000 -0.5785 0.8157
vn -0.0002 -0.5928 0.8053
vn -0.0000 -0.5840 0.8118
vn -0.0000 -0.5889 0.8082
vn -0.0000 -0.6091 0.7931
vn -0.0000 -0.5934 0.8049
vn -0.0000 -0.5974 0.8019
vn -0.0000 -0.6090 0.7932
vn -0.0000 -0.0000 1.0000
vn 0.0001 -0.0000 1.0000
vn -0.0001 -0.0000 1.0000
vn -0.0000 0.6372 0.7707
vn -0.0000 0.6124 0.7905
vn -0.0000 0.6124 0.7906
vn -0.0000 0.6118 0.7910
vn -0.0000 0.6107 0.7919
vn -0.0000 0.6090 0.7932
vn -0.0000 0.6859 0.7277
vn 0.0001 0.7004 0.7138
vn -0.0000 0.6857 0.7279
vn -0.0000 0.7286 0.6849
vn -0.0003 0.7313 0.6820
vn -0.0000 0.7148 0.6994
vn 0.0001 0.7424 0.6700
vn 0.0002 0.7530 0.6580
vn -0.0000 0.6119 0.7909
vn -0.0000 0.7940 0.6079
vn 0.0001 0.7816 0.6238
vn -0.0003 0.7739 0.6333
vn -0.0000 0.7687 0.6396
vn -0.0000 0.7558 0.6548
vn 0.0002 0.7089 0.7053
vn 0.0001 0.6711 0.7414
vn -0.0003 0.6618 0.7497
vn -0.0000 0.6559 0.7549
vn -0.0000 0.6068 0.7948
vn -0.0001 0.6405 0.7680
vn -0.0000 0.6041 0.7969
vn -0.0000 0.6249 0.7807
vn -0.0000 0.6011 0.7992
vn -0.0000 0.5974 0.8019
vn -0.0000 0.6091 0.7931
vn -0.0000 0.5888 0.8083
vn -0.0000 0.5839 0.8118
vn -0.0001 0.5928 0.8053
vn -0.0000 0.5599 0.8286
vn 0.0002 0.5764 0.8172
vn -0.0000 0.5598 0.8286
vn -0.0000 0.5665 0.8241
vn -0.0001 0.5726 0.8198
vn -0.0000 0.5785 0.8157
vn -0.0000 0.5933 0.8050
vn -1.0000 -0.0002 -0.0000
vn 1.0000 -0.0000 -0.0000
vn -0.0000 -0.0000 -1.0000
vn -0.0000 -1.0000 -0.0000
vn -0.0000 1.0000 -0.0000
vn 0.0001 -0.0000 -1.0000
vn -0.0001 -0.0000 -1.0000
vn 0.1129 -0.9936 -0.0000
vn 0.0588 -0.9983 -0.0000
vn 0.0587 -0.9983 -0.0000
vn 0.0045 -1.0000 -0.0000
vn -0.0498 -0.9988 -0.0000
vn -0.1039 -0.9946 -0.0000
vn -0.1578 -0.9875 -0.0000
vn -0.1040 -0.9946 -0.0000
vn -0.2112 -0.9774 -0.0000
vn -0.2639 -0.9646 -0.0000
vn -0.2111 -0.9775 -0.0000
vn -0.3159 -0.9488 -0.0000
vn -0.2640 -0.9645 -0.0000
vn -0.3160 -0.9488 -0.0000
vn -0.3670 -0.9302 -0.0000
vn -0.4170 -0.9089 -0.0000
vn -0.4657 -0.8850 -0.0000
vn -0.4656 -0.8850 -0.0000
vn -0.4658 -0.8849 -0.0000
vn -0.5130 -0.8584 -0.0000
vn -0.5131 -0.8584 -0.0000
vn -0.5588 -0.8293 -0.0000
vn -0.5131 -0.8583 -0.0000
vn -0.5590 -0.8292 -0.0000
vn -0.6031 -0.7977 -0.0000
vn -0.6455 -0.7638 -0.0000
vn -0.6860 -0.7276 -0.0000
vn -0.7245 -0.6893 -0.0000
vn -0.7609 -0.6489 -0.0000
vn -0.7949 -0.6067 -0.0000
vn -0.7950 -0.6066 -0.0000
vn -0.8267 -0.5627 -0.0000
vn -0.8267 -0.5626 -0.0000
vn -0.8560 -0.5169 -0.0000
vn -0.8560 -0.5170 -0.0000
vn -0.8561 -0.5169 -0.0000
vn -0.8828 -0.4697 -0.0000
vn -0.8829 -0.4697 0.0001
vn -0.9070 -0.4211 -0.0000
vn -0.8829 -0.4696 -0.0000
vn -0.9070 -0.4210 -0.0000
vn -0.8829 -0.4697 -0.0000
vn -0.9286 -0.3712 -0.0000
vn -0.9285 -0.3712 -0.0000
vn -0.9071 -0.4210 -0.0000
vn -0.9474 -0.3202 -0.0000
vn -0.9286 -0.3711 -0.0000
vn -0.9633 -0.2684 -0.0000
vn -0.9473 -0.3202 -0.0000
vn -0.9633 -0.2683 -0.0000
vn -0.9765 -0.2156 -0.0000
vn -0.9634 -0.2682 -0.0000
vn -0.9765 -0.2155 -0.0000
vn -0.9867 -0.1623 -0.0000
vn -0.9868 -0.1622 -0.0000
vn -0.9941 -0.1085 -0.0000
vn -0.9941 -0.1084 -0.0000
vn -0.9985 -0.0543 -0.0000
vn -0.9985 0.0543 -0.0000
vn -0.9941 0.1084 -0.0000
vn -0.9868 0.1622 -0.0000
vn -0.9941 0.1085 -0.0000
vn -0.9765 0.2155 -0.0000
vn -0.9867 0.1623 -0.0000
vn -0.9634 0.2682 -0.0000
vn -0.9765 0.2156 -0.0000
vn -0.9473 0.3202 -0.0000
vn -0.9633 0.2684 -0.0000
vn -0.9474 0.3202 -0.0000
vn -0.9286 0.3711 -0.0000
vn -0.9285 0.3712 -0.0000
vn -0.9286 0.3712 -0.0000
vn -0.9071 0.4210 -0.0000
vn -0.9070 0.4210 -0.0000
vn -0.8829 0.4696 -0.0000
vn -0.8828 0.4697 -0.0000
vn -0.8561 0.5169 -0.0000
vn -0.8560 0.5170 -0.0000
vn -0.8267 0.5626 -0.0000
vn -0.8267 0.5627 -0.0000
vn -0.7950 0.6066 -0.0000
vn -0.7609 0.6489 -0.0000
vn -0.7949 0.6067 -0.0000
vn -0.7245 0.6893 -0.0000
vn -0.7245 0.6892 -0.0000
vn -0.6860 0.7276 -0.0000
vn -0.6455 0.7638 -0.0000
vn -0.6031 0.7977 -0.0000
vn -0.6031 0.7976 -0.0000
vn 0.1129 0.9936 -0.0000
vn 0.0588 0.9983 -0.0000
vn 0.1666 0.9860 -0.0000
vn 0.0045 1.0000 -0.0000
vn 0.0587 0.9983 -0.0000
vn -0.0498 0.9988 -0.0000
vn -0.1039 0.9946 -0.0000
vn -0.1578 0.9875 -0.0000
vn -0.1040 0.9946 -0.0000
vn -0.2112 0.9774 -0.0000
vn -0.2112 0.9774 0.0002
vn -0.2111 0.9775 -0.0000
vn -0.2639 0.9646 -0.0000
vn -0.3159 0.9488 -0.0000
vn -0.2640 0.9645 -0.0000
vn -0.3160 0.9488 -0.0000
vn -0.3670 0.9302 -0.0000
vn -0.3669 0.9303 -0.0000
vn -0.4170 0.9089 -0.0000
vn -0.4169 0.9089 -0.0000
vn -0.4657 0.8850 -0.0000
vn -0.4656 0.8850 -0.0000
vn -0.4657 0.8849 -0.0000
vn -0.5130 0.8584 -0.0000
vn -0.4658 0.8849 -0.0000
vn -0.5131 0.8584 -0.0000
vn -0.5589 0.8293 -0.0000
vn -0.5588 0.8293 -0.0000
vn -0.5589 0.8292 -0.0000
vn -0.5590 0.8292 -0.0000
vn -0.9070 0.4211 -0.0000
vn -0.9633 0.2683 -0.0000
vn -0.7245 -0.6892 -0.0000
vn -0.4657 -0.8849 -0.0000
vn -0.4169 -0.9089 -0.0000
vn -0.3669 -0.9303 -0.0000
vn 0.1666 -0.9860 -0.0000
vn 0.0238 0.7067 0.7071
vn 0.0032 0.7071 0.7071
vn 0.0415 0.7059 0.7071
vn 0.0239 0.7067 0.7071
vn 0.0416 0.7059 0.7071
vn 0.0748 0.7031 0.7071
vn -0.0269 0.7066 0.7071
vn -0.0352 0.7065 0.7069
vn -0.0735 0.7033 0.7071
vn -0.0352 0.7062 0.7071
vn -0.0773 0.7029 0.7071
vn -0.1116 0.6982 0.7071
vn -0.0773 0.7027 0.7073
vn -0.1269 0.6956 0.7071
vn -0.1493 0.6912 0.7071
vn -0.1752 0.6851 0.7071
vn -0.1866 0.6820 0.7071
vn -0.2220 0.6714 0.7071
vn -0.2233 0.6709 0.7071
vn -0.2595 0.6578 0.7071
vn -0.2669 0.6548 0.7071
vn -0.3098 0.6356 0.7071
vn -0.2948 0.6427 0.7071
vn -0.3098 0.6357 0.7071
vn -0.3293 0.6258 0.7071
vn -0.3504 0.6142 0.7071
vn -0.3628 0.6070 0.7071
vn -0.3886 0.5908 0.7071
vn -0.3956 0.5871 0.7063
vn -0.4244 0.5656 0.7071
vn -0.3952 0.5864 0.7071
vn -0.4564 0.5401 0.7071
vn -0.4264 0.5640 0.7071
vn -0.4243 0.5656 0.7071
vn -0.4576 0.5391 0.7071
vn -0.4851 0.5145 0.7071
vn -0.4883 0.5114 0.7071
vn -0.5123 0.4874 0.7071
vn -0.5165 0.4829 0.7071
vn -0.5381 0.4588 0.7071
vn -0.5423 0.4537 0.7071
vn -0.5380 0.4589 0.7071
vn -0.5424 0.4537 0.7071
vn -0.5658 0.4241 0.7071
vn -0.5621 0.4290 0.7071
vn -0.5729 0.4145 0.7071
vn -0.5846 0.3978 0.7071
vn -0.5799 0.4046 0.7071
vn -0.5846 0.3977 0.7071
vn -0.5871 0.3942 0.7071
vn -0.5942 0.3833 0.7071
vn -0.6053 0.3655 0.7071
vn -0.6201 0.3399 0.7071
vn -0.6201 0.3398 0.7071
vn -0.6243 0.3321 0.7070
vn -0.6243 0.3321 0.7071
vn -0.6428 0.2946 0.7071
vn -0.6414 0.2978 0.7071
vn -0.6622 0.2479 0.7071
vn -0.6566 0.2624 0.7071
vn -0.6623 0.2478 0.7071
vn -0.6783 0.1998 0.7071
vn -0.6699 0.2264 0.7071
vn -0.6812 0.1897 0.7071
vn -0.6908 0.1508 0.7071
vn -0.6905 0.1524 0.7071
vn -0.6812 0.1896 0.7071
vn -0.6999 0.1010 0.7071
vn -0.6977 0.1148 0.7071
vn -0.6909 0.1507 0.7071
vn -0.7029 0.0767 0.7071
vn -0.6977 0.1147 0.7071
vn -0.6999 0.1009 0.7071
vn -0.7061 0.0384 0.7071
vn -0.7029 0.0766 0.7071
vn -0.7053 0.0506 0.7071
vn -0.7071 -0.0000 0.7071
vn -0.7061 -0.0384 0.7071
vn -0.7070 -0.0000 0.7072
vn -0.7073 -0.0000 0.7069
vn -0.7053 -0.0506 0.7071
vn -0.7030 -0.0766 0.7071
vn -0.7029 -0.0766 0.7071
vn -0.6999 -0.1009 0.7071
vn -0.6978 -0.1147 0.7071
vn -0.6999 -0.1010 0.7071
vn -0.6909 -0.1507 0.7071
vn -0.6977 -0.1148 0.7071
vn -0.6908 -0.1508 0.7071
vn -0.6812 -0.1897 0.7071
vn -0.6905 -0.1525 0.7071
vn -0.6783 -0.1998 0.7071
vn -0.6699 -0.2264 0.7071
vn -0.6623 -0.2477 0.7071
vn -0.6566 -0.2623 0.7071
vn -0.6428 -0.2946 0.7071
vn -0.6416 -0.2977 0.7069
vn -0.6566 -0.2624 0.7071
vn -0.6243 -0.3322 0.7071
vn -0.6414 -0.2977 0.7071
vn -0.6428 -0.2947 0.7071
vn -0.6054 -0.3655 0.7070
vn -0.6243 -0.3321 0.7071
vn -0.6201 -0.3398 0.7071
vn -0.5846 -0.3978 0.7071
vn -0.6053 -0.3655 0.7071
vn -0.5942 -0.3834 0.7071
vn -0.5799 -0.4046 0.7071
vn -0.5870 -0.3942 0.7071
vn -0.5166 -0.4828 0.7071
vn -0.5380 -0.4588 0.7071
vn -0.5423 -0.4537 0.7071
vn -0.5621 -0.4290 0.7071
vn -0.5658 -0.4241 0.7071
vn -0.5424 -0.4537 0.7071
vn -0.5123 -0.4874 0.7071
vn -0.5166 -0.4829 0.7071
vn -0.4851 -0.5145 0.7071
vn -0.4883 -0.5114 0.7071
vn -0.4564 -0.5401 0.7071
vn -0.4576 -0.5391 0.7071
vn -0.4258 -0.5633 0.7081
vn -0.4242 -0.5657 0.7071
vn -0.5729 -0.4145 0.7071
vn 0.0749 -0.7031 0.7071
vn 0.1179 -0.6972 0.7071
vn 0.0798 -0.7026 0.7071
vn 0.0748 -0.7031 0.7071
vn 0.0799 -0.7027 0.7070
vn 0.0415 -0.7059 0.7071
vn 0.0416 -0.7059 0.7071
vn 0.0242 -0.7069 0.7069
vn 0.0032 -0.7071 0.7071
vn 0.0242 -0.7067 0.7071
vn -0.0265 -0.7069 0.7069
vn -0.0352 -0.7062 0.7071
vn -0.0265 -0.7066 0.7071
vn -0.0768 -0.7029 0.7071
vn -0.0735 -0.7033 0.7071
vn -0.1116 -0.6982 0.7071
vn -0.1263 -0.6957 0.7071
vn -0.1493 -0.6912 0.7071
vn -0.1263 -0.6957 0.7072
vn -0.1494 -0.6912 0.7071
vn -0.1746 -0.6852 0.7071
vn -0.1866 -0.6820 0.7071
vn -0.1492 -0.6912 0.7071
vn -0.2214 -0.6716 0.7071
vn -0.1867 -0.6820 0.7071
vn -0.2214 -0.6715 0.7071
vn -0.2234 -0.6709 0.7071
vn -0.2595 -0.6578 0.7071
vn -0.2664 -0.6550 0.7071
vn -0.2948 -0.6427 0.7071
vn -0.2665 -0.6550 0.7071
vn -0.3094 -0.6358 0.7071
vn -0.3293 -0.6258 0.7071
vn -0.3501 -0.6143 0.7071
vn -0.3293 -0.6257 0.7071
vn -0.3501 -0.6144 0.7071
vn -0.3628 -0.6070 0.7071
vn -0.3884 -0.5909 0.7071
vn -0.3952 -0.5864 0.7071
vn -0.4243 -0.5657 0.7071
vn -0.4264 -0.5641 0.7071
vn -0.5381 -0.4590 0.7069
vn -0.5622 -0.4290 0.7070
vn -0.5846 -0.3977 0.7071
vn -0.5728 -0.4145 0.7071
vn -0.5942 -0.3833 0.7071
vn -0.6201 -0.3399 0.7071
vn -0.6622 -0.2479 0.7071
vn -0.6623 -0.2478 0.7071
vn -0.6905 -0.1524 0.7071
vn -0.7030 0.0766 0.7071
vn -0.6699 0.2263 0.7071
vn -0.6568 0.2625 0.7069
vn -0.6414 0.2977 0.7071
vn -0.5942 0.3834 0.7071
vn -0.5870 0.3942 0.7071
vn -0.5846 0.3979 0.7071
vn -0.5847 0.3979 0.7070
vn -0.5622 0.4291 0.7070
vn -0.3099 0.6356 0.7071
vn -0.2234 0.6709 0.7071
vn -0.1867 0.6820 0.7071
vn -0.0269 0.7067 0.7070
vn 0.0239 0.7069 0.7069
vn -0.0270 0.7066 0.7071
vn 0.0798 0.7026 0.7071
vn 0.1179 0.6972 0.7071
vn 0.0749 0.7031 0.7071
vn -0.1492 0.6912 0.7071
vn 0.0415 0.7060 0.7070
vn -0.0000 0.1480 0.9890
vn -0.0000 0.2928 0.9562
vn -0.0000 0.2927 0.9562
vn -0.0000 0.1690 0.9856
vn -0.0000 0.4310 0.9024
vn -0.0000 0.4459 0.8951
vn -0.0000 0.3165 0.9486
vn -0.0000 0.3164 0.9486
vn -0.0000 0.4311 0.9023
vn -0.0000 -0.3165 0.9486
vn -0.0000 -0.4459 0.8951
vn -0.0000 -0.3164 0.9486
vn -0.0000 -0.5599 0.8285
vn -0.0000 -0.4311 0.9023
vn -0.0000 -0.1480 0.9890
vn -0.0000 -0.2928 0.9562
vn -0.0000 -0.2927 0.9562
vn -0.0000 -0.1688 0.9857
vn -0.0000 -0.1689 0.9856
vn -0.0000 -0.4310 0.9024
vn -0.0000 -0.3163 0.9487
s 1
usemtl Diffuse_51_51_51_100.029
f 1//1 2//2 3//3
f 1//1 3//3 4//3
f 3//3 5//3 4//3
f 5//3 6//3 4//3
f 4//3 7//2 8//2
f 4//3 8//2 9//3
f 8//2 10//3 9//3
f 9//3 10//3 11//3
f 7//2 4//3 6//3
f 9//3 11//3 12//2
f 13//4 14//5 15//6
f 16//7 17//4 15//6
f 18//8 19//7 15//9
f 18//8 20//10 21//7
f 22//10 18//8 23//11
f 24//12 25//10 23//13
f 24//14 26//15 27//10
f 28//16 29//17 30//18
f 24//19 28//16 31//20
f 32//15 29//17 33//21
f 34//21 29//17 35//22
f 36//23 37//21 35//22
f 38//24 39//23 35//22
f 38//24 40//25 41//23
f 42//23 40//25 43//26
f 44//26 40//25 45//27
f 46//28 47//29 48//30
f 49//28 50//31 45//32
f 47//29 51//33 52//34
f 53//35 54//33 45//32
f 55//36 56//28 57//37
f 57//38 58//33 59//39
f 53//40 60//41 61//42
f 60//41 62//43 63//44
f 64//45 65//46 66//47
f 66//47 67//45 64//45
f 68//48 66//47 65//46
f 68//48 69//49 66//47
f 66//47 69//49 70//50
f 70//50 69//49 71//51
f 72//52 70//50 71//51
f 72//52 73//53 70//50
f 72//52 74//54 73//53
f 73//53 74//54 75//55
f 62//43 73//53 75//55
f 62//43 60//41 73//53
f 63//44 61//42 60//41
f 61//42 59//56 53//40
f 53//40 59//56 76//28
f 77//28 55//36 52//34
f 78//57 79//57 80//57
f 81//57 82//57 80//57
f 83//57 81//57 80//57
f 84//57 83//57 80//57
f 85//58 84//57 80//57
f 86//57 85//58 80//57
f 87//57 86//57 80//57
f 88//57 87//57 80//57
f 79//57 88//57 80//57
f 89//57 79//57 78//57
f 78//57 90//59 89//57
f 78//57 91//59 90//59
f 78//57 92//57 91//59
f 78//57 93//57 92//57
f 94//57 78//57 95//57
f 94//57 96//57 78//57
f 78//57 96//57 93//57
f 97//60 98//61 99//62
f 100//63 97//60 99//62
f 100//63 101//64 97//60
f 97//60 101//64 102//65
f 103//66 104//67 105//68
f 106//69 107//70 108//71
f 109//72 110//73 107//70
f 111//74 98//61 97//60
f 112//75 113//76 114//75
f 112//75 115//77 113//76
f 113//76 115//77 116//78
f 116//78 115//77 110//73
f 117//79 116//78 110//73
f 109//72 117//79 110//73
f 107//70 118//80 108//71
f 108//71 118//80 104//67
f 104//67 118//80 105//68
f 119//81 105//68 120//82
f 120//82 97//60 121//83
f 102//65 122//84 123//85
f 122//84 124//86 125//87
f 126//88 127//89 128//90
f 129//91 130//92 131//93
f 132//94 133//95 134//96
f 134//96 133//95 135//97
f 135//97 133//95 136//98
f 136//98 133//95 137//99
f 137//99 133//95 131//93
f 130//92 137//99 131//93
f 129//91 131//93 128//90
f 138//100 129//91 128//90
f 126//88 125//87 124//86
f 126//88 128//90 125//87
f 125//87 123//85 122//84
f 123//85 97//60 102//65
f 123//85 121//83 97//60
f 121//83 119//81 120//82
f 105//68 119//81 103//66
f 109//72 107//70 106//69
f 138//100 128//90 127//89
f 139//2 140//2 141//2
f 139//1 142//1 143//1
f 139//3 144//3 145//3
f 139//3 146//3 147//3
f 141//101 148//101 149//101
f 141//3 150//3 151//3
f 141//3 152//3 153//3
f 154//3 155//3 156//3
f 141//3 157//3 158//3
f 155//3 141//3 159//3
f 160//102 161//102 162//102
f 163//102 164//102 165//102
s 0
f 166//102 167//102 168//102
f 167//102 169//102 170//102
f 169//103 171//102 172//102
s 1
f 173//102 174//102 175//102
f 176//102 177//102 178//102
f 179//102 180//102 181//102
f 182//102 183//102 184//102
f 185//102 186//102 187//102
f 188//102 189//102 190//102
f 191//102 192//102 193//102
f 194//102 195//102 196//102
f 197//102 198//102 199//102
f 200//102 201//102 202//102
f 203//102 204//102 205//102
f 206//102 207//102 208//102
f 209//102 210//102 211//102
f 212//102 213//102 214//102
f 215//102 216//102 217//102
f 218//102 219//102 220//102
f 216//102 221//102 222//102
f 223//102 224//102 216//102
f 225//102 226//102 227//102
f 228//102 229//102 227//102
f 230//102 231//102 227//102
f 232//102 233//102 227//102
f 234//102 235//102 227//102
f 236//102 237//102 227//102
f 238//102 239//102 227//102
f 227//102 240//102 216//102
f 241//102 242//102 216//102
f 243//102 244//102 216//102
f 245//102 246//102 216//102
f 247//102 227//102 248//102
f 249//102 250//102 251//102
f 252//102 253//102 216//102
f 254//102 255//102 256//102
s 0
f 257//102 258//102 259//103
s 1
f 260//102 261//102 259//102
s 0
f 262//102 263//102 257//102
s 1
f 264//102 265//102 266//102
f 267//104 268//104 269//104
f 270//104 271//104 272//104
f 273//105 274//105 275//105
f 276//105 277//105 278//105
f 279//106 280//106 281//106
f 282//103 283//103 284//103
f 285//103 286//103 287//103
f 288//103 289//103 285//103
f 290//103 291//103 289//103
f 292//103 293//103 291//103
f 294//103 295//103 293//103
f 296//103 297//103 295//103
f 298//103 299//103 297//103
f 300//103 301//103 299//103
f 302//103 303//103 301//103
f 304//103 305//103 303//103
f 306//107 307//107 305//107
f 308//103 309//103 307//103
f 310//103 311//103 309//103
f 309//103 312//103 313//103
f 313//106 314//106 315//106
f 315//103 316//103 317//103
f 317//103 318//103 319//103
f 319//107 320//107 321//107
f 321//103 322//103 323//103
f 323//103 324//103 325//103
f 325//106 326//106 327//106
f 327//103 328//103 329//103
f 329//103 330//103 331//103
f 332//103 333//103 334//103
f 335//103 333//103 336//103
f 337//103 332//103 338//103
f 339//103 337//103 340//103
f 341//103 339//103 342//103
f 343//103 341//103 344//103
f 345//103 343//103 346//103
f 347//103 345//103 348//103
f 284//103 347//103 349//103
f 350//103 351//103 284//103
f 352//103 353//103 283//103
f 354//103 355//103 353//103
f 356//106 357//106 355//106
f 358//106 359//106 357//106
f 360//103 361//103 359//103
f 362//103 363//103 364//103
f 362//103 365//103 366//103
f 364//103 367//103 368//103
f 368//103 369//103 370//103
f 370//103 371//103 372//103
f 372//103 373//103 374//103
f 374//103 375//103 376//103
f 376//103 377//103 378//103
f 378//103 379//103 380//103
f 380//103 381//103 382//103
f 382//103 383//103 384//103
f 384//103 385//103 386//103
f 386//103 387//103 388//103
f 388//103 389//103 390//103
f 391//103 281//103 388//103
f 392//103 280//103 393//103
f 394//103 392//103 395//103
f 396//103 394//103 397//103
f 398//103 399//103 396//103
f 400//103 401//103 399//103
f 402//103 403//103 401//103
f 404//103 405//103 403//103
f 406//103 407//103 405//103
f 331//103 408//103 336//103
f 409//103 410//103 407//103
f 411//106 365//106 361//106
f 410//103 412//103 413//103
f 414//108 415//109 416//108
f 417//110 418//111 419//110
f 420//111 421//111 419//110
f 422//112 423//112 421//111
f 424//113 425//113 423//112
f 426//114 427//114 425//115
f 428//116 427//114 429//114
f 430//117 431//118 432//118
f 433//117 431//118 434//117
f 435//119 433//120 436//119
f 435//121 437//121 438//122
f 439//122 440//122 441//123
f 442//123 443//123 444//124
f 442//123 445//125 446//125
f 446//126 447//127 448//127
f 449//128 450//129 448//130
f 451//131 452//132 453//131
f 454//132 455//132 453//131
f 456//133 457//133 455//132
f 458//134 457//133 459//133
f 460//135 461//134 462//134
f 463//135 461//134 464//135
f 465//136 463//135 466//136
f 465//136 467//136 468//137
f 469//138 470//138 471//139
f 469//138 472//139 473//140
f 473//140 474//141 475//142
f 476//143 477//144 475//143
f 478//145 479//146 480//147
f 481//148 482//146 480//149
f 483//150 484//151 482//152
f 485//153 484//154 486//154
f 487//155 488//156 489//156
f 490//155 488//156 491//157
f 492//158 490//159 493//158
f 492//160 494//160 495//161
f 496//162 497//162 498//163
f 496//162 499//163 500//163
f 500//164 501//165 502//165
f 503//165 504//3 502//165
f 505//3 506//166 507//3
f 508//166 509//166 507//3
f 510//167 511//167 509//166
f 512//168 511//169 513//169
f 514//170 515//171 516//171
f 517//172 518//173 519//173
f 520//172 518//173 521//172
f 522//174 520//175 523//174
f 522//176 524//176 525//177
f 526//178 527//179 528//180
f 526//179 529//180 530//180
f 530//181 531//182 532//182
f 533//183 534//184 532//183
f 535//185 536//186 537//185
f 538//186 539//187 537//185
f 540//188 541//188 539//186
f 542//189 541//190 543//190
f 544//191 545//189 546//189
f 547//192 545//189 548//191
f 549//193 547//191 550//193
f 549//193 551//193 552//194
f 553//194 554//194 555//195
f 553//194 556//196 557//195
f 558//197 559//198 560//197
f 561//199 562//199 558//197
f 563//199 558//197 564//197
f 559//198 565//198 566//197
f 567//200 568//201 559//201
f 569//200 570//201 567//200
f 571//200 567//200 572//202
f 573//200 572//202 574//202
f 572//202 575//203 576//202
f 575//203 577//203 578//202
f 579//204 580//205 575//205
f 581//204 582//205 579//204
f 583//204 579//204 584//206
f 585//204 584//206 586//207
f 584//208 587//209 588//208
f 587//209 589//209 590//208
f 591//210 592//211 587//211
f 593//210 594//211 591//210
f 595//212 591//212 596//213
f 597//212 596//214 598//214
f 596//213 599//215 600//213
f 599//216 601//216 602//213
f 603//217 604//215 599//215
f 605//218 606//215 603//218
f 607//219 603//219 608//220
f 609//221 608//222 610//220
f 608//220 611//223 612//220
f 611//224 613//224 614//222
f 557//195 615//225 611//226
f 616//196 617//226 557//195
f 549//193 618//194 553//194
f 547//191 619//191 620//193
f 545//189 541//190 621//189
f 622//188 539//186 623//187
f 624//184 537//184 532//183
f 625//181 626//182 530//227
f 522//176 627//177 526//177
f 520//175 628//228 629//176
f 518//170 515//171 630//170
f 515//168 511//169 631//168
f 632//167 509//166 633//166
f 634//3 507//3 502//165
f 635//164 636//165 500//164
f 492//160 637//161 496//161
f 490//159 638//159 639//158
f 488//153 484//154 640//153
f 641//150 482//152 642//152
f 643//144 480//144 475//143
f 644//140 645//142 473//140
f 465//136 646//137 469//137
f 463//135 647//229 648//136
f 461//134 457//133 649//134
f 650//133 455//132 651//132
f 652//129 453//129 448//127
f 653//126 654//127 446//230
f 439//122 655//231 442//231
f 435//121 656//232 439//232
f 433//120 657//120 658//119
f 659//115 660//114 425//115
f 421//111 661//111 662//112
f 416//108 663//233 664//108
f 416//108 665//233 666//233
f 667//116 431//116 427//114
f 423//112 668//112 669//113
f 419//109 416//108 670//109
f 671//234 672//235 673//236
f 674//237 675//238 676//239
f 677//240 678//241 679//235
f 680//242 681//243 682//244
f 683//245 684//246 685//247
f 686//248 687//247 688//249
f 689//250 690//249 691//251
f 692//252 693//251 694//253
f 695//251 696//254 697//253
f 698//254 699//255 700//256
f 701//257 702//258 703//256
f 704//259 705//260 706//258
f 707//261 708//262 709//260
f 710//263 711//264 712//261
f 713//265 714//266 715//267
f 716//265 717//263 718//268
f 719//265 720//268 721//269
f 722//268 723//270 724//269
f 725//271 726//272 727//273
f 728//270 729//271 730//269
f 731//272 732//274 733//275
f 734//276 735//277 736//278
f 737//277 738//279 739//280
f 738//279 740//281 741//282
f 742//280 743//283 744//284
f 745//285 746//284 747//286
f 748//285 749//287 750//288
f 751//289 752//290 753//291
f 754//290 755//292 756//293
f 757//294 758//295 759//296
f 760//295 761//297 762//296
f 763//298 764//299 765//300
f 766//301 767//302 768//303
f 769//304 770//305 771//306
f 772//307 773//308 774//309
f 775//310 776//307 777//310
f 778//311 779//312 780//312
f 781//311 782//313 783//314
f 784//311 785//314 786//315
f 787//316 788//317 789//318
f 790//319 791//320 792//321
f 793//322 794//323 795//324
f 796//325 797//326 798//323
f 799//327 800//328 801//326
f 802//329 803//330 804//331
f 805//332 806//333 807//334
f 808//335 809//336 810//337
f 811//338 812//339 813//340
f 814//341 815//338 816//342
f 817//343 818//344 819//345
f 820//346 821//347 822//348
f 823//349 824//344 825//350
f 826//351 827//349 828//352
f 829//353 830//351 831//354
f 832//355 833//353 834//356
f 835//357 836//347 837//338
f 838//358 839//359 840//360
f 841//361 842//362 843//363
f 844//361 845//364 846//365
f 847//363 848//366 849//367
f 850//366 851//368 852//367
f 853//369 854//370 855//366
f 856//371 857//370 858//369
f 859//371 860//369 861//372
f 862//371 863//372 864//373
f 865//371 866//373 867//374
f 868//373 869//375 870//376
f 871//377 872//378 873//374
f 874//379 875//378 876//380
f 877//381 878//378 879//382
f 880//383 881//379 882//384
f 883//383 884//384 885//385
f 886//383 887//385 888//386
f 889//385 890//387 891//388
f 892//387 893//389 894//388
f 895//390 896//389 897//387
f 898//391 899//389 900//392
f 901//393 902//390 903//394
f 904//391 905//394 906//395
f 907//394 908//396 909//395
f 910//396 911//397 912//395
f 913//398 914//356 915//396
f 916//353 917//354 918//356
f 919//351 920//352 921//354
f 922//349 923//350 924//352
f 925//399 926//346 927//348
f 928//400 929//338 930//347
f 931//401 814//341 835//402
f 932//403 816//342 933//338
f 934//404 935//403 936//339
f 937//329 938//337 939//336
f 940//331 941//405 942//329
f 943//326 944//325 945//406
f 946//323 947//322 948//325
f 949//407 950//321 951//322
f 952//317 953//315 954//314
f 955//307 956//309 957//312
f 958//408 959//306 960//309
f 961//302 962//299 963//298
f 964//298 965//297 966//295
f 967//294 968//409 969//293
f 970//290 971//410 972//411
f 973//287 974//290 975//289
f 976//280 977//412 978//285
f 740//281 743//413 979//414
f 980//277 981//415 982//278
f 983//276 984//416 985//275
f 986//270 987//272 988//271
f 989//267 990//266 991//264
f 992//259 993//261 994//260
f 995//417 996//259 997//258
f 998//251 999//418 1000//419
f 1001//245 1002//247 1003//248
f 1004//242 1005//244 1006//245
f 1007//243 1008//420 1009//244
f 1010//421 1011//422 1012//235
f 1013//423 1014//424 1015//425
f 1016//249 1017//250 1018//426
f 1019//256 1020//253 1021//254
f 1022//427 1023//423 1024//239
f 95//57 78//57 1025//428
f 1026//428 1027//429 95//57
f 95//57 1028//430 1029//431
s 0
f 1030//431 1031//57 1032//432
s 1
f 1033//433 132//94 134//96
f 1034//433 1035//434 132//94
f 1036//435 1037//431 1038//432
f 1039//434 1040//436 132//94
f 67//45 1041//437 1042//438
f 64//45 67//45 1043//438
f 1044//439 67//440 1045//441
f 80//57 82//57 1046//442
f 1047//442 82//57 1048//443
f 1049//444 82//57 1050//445
s 0
f 1051//57 1052//443 1053//446
s 1
f 1054//447 1055//446 1056//448
