# Blender 4.4.3
# www.blender.org
mtllib Mesh_22.002.mtl
o Mesh_22.002
v 0.017600 0.008970 -0.011520
v 0.017600 0.008970 -0.011443
v 0.017600 0.008959 -0.011494
v 0.017600 0.008970 -0.011278
v 0.017600 0.008959 -0.011306
v 0.017600 0.008970 -0.011357
v 0.017600 0.008636 -0.011278
v 0.017600 0.008636 -0.011357
v 0.017600 0.008647 -0.011306
v 0.017600 0.008636 -0.011520
v 0.017600 0.008647 -0.011494
v 0.017600 0.008636 -0.011443
v 0.017600 0.008970 -0.011598
v 0.017600 0.008904 -0.011493
v 0.017600 0.008803 -0.011598
v 0.017600 0.008959 -0.011496
v 0.017600 0.008959 -0.011443
v 0.017600 0.008933 -0.011504
v 0.017600 0.008958 -0.011498
v 0.017600 0.008957 -0.011500
v 0.017600 0.008956 -0.011501
v 0.017600 0.008955 -0.011502
v 0.017600 0.008953 -0.011503
v 0.017600 0.008951 -0.011504
v 0.017600 0.008949 -0.011504
v 0.017600 0.008939 -0.011504
v 0.017600 0.008927 -0.011503
v 0.017600 0.008921 -0.011501
v 0.017600 0.008915 -0.011499
v 0.017600 0.008909 -0.011496
v 0.017600 0.008636 -0.011598
v 0.017600 0.008702 -0.011493
v 0.017600 0.008899 -0.011489
v 0.017600 0.008707 -0.011489
v 0.017600 0.008894 -0.011485
v 0.017600 0.008712 -0.011485
v 0.017600 0.008890 -0.011481
v 0.017600 0.008716 -0.011481
v 0.017600 0.008886 -0.011476
v 0.017600 0.008720 -0.011476
v 0.017600 0.008883 -0.011470
v 0.017600 0.008880 -0.011464
v 0.017600 0.008723 -0.011470
v 0.017600 0.008726 -0.011464
v 0.017600 0.008729 -0.011452
v 0.017600 0.008877 -0.011452
v 0.017600 0.008876 -0.011446
v 0.017600 0.008730 -0.011446
v 0.017600 0.008875 -0.011440
v 0.017600 0.008731 -0.011440
v 0.017600 0.008875 -0.011360
v 0.017600 0.008876 -0.011354
v 0.017600 0.008731 -0.011360
v 0.017600 0.008730 -0.011354
v 0.017600 0.008729 -0.011348
v 0.017600 0.008877 -0.011348
v 0.017600 0.008878 -0.011341
v 0.017600 0.008728 -0.011341
v 0.017600 0.008880 -0.011336
v 0.017600 0.008723 -0.011330
v 0.017600 0.008726 -0.011336
v 0.017600 0.008883 -0.011330
v 0.017600 0.008886 -0.011324
v 0.017600 0.008712 -0.011315
v 0.017600 0.008894 -0.011315
v 0.017600 0.008899 -0.011311
v 0.017600 0.008716 -0.011319
v 0.017600 0.008970 -0.011200
v 0.017600 0.008702 -0.011307
v 0.017600 0.008904 -0.011307
v 0.017600 0.008707 -0.011311
v 0.017600 0.008933 -0.011296
v 0.017600 0.008921 -0.011299
v 0.017600 0.008927 -0.011297
v 0.017600 0.008939 -0.011296
v 0.017600 0.008915 -0.011301
v 0.017600 0.008949 -0.011296
v 0.017600 0.008951 -0.011296
v 0.017600 0.008953 -0.011297
v 0.017600 0.008955 -0.011298
v 0.017600 0.008956 -0.011299
v 0.017600 0.008909 -0.011304
v 0.017600 0.008957 -0.011300
v 0.017600 0.008958 -0.011302
v 0.017600 0.008890 -0.011319
v 0.017600 0.008720 -0.011324
v 0.017600 0.008959 -0.011304
v 0.017600 0.008647 -0.011304
v 0.017600 0.008647 -0.011357
v 0.017600 0.008673 -0.011296
v 0.017600 0.008636 -0.011200
v 0.017600 0.008648 -0.011302
v 0.017600 0.008649 -0.011300
v 0.017600 0.008650 -0.011299
v 0.017600 0.008651 -0.011298
v 0.017600 0.008653 -0.011297
v 0.017600 0.008655 -0.011296
v 0.017600 0.008657 -0.011296
v 0.017600 0.008666 -0.011296
v 0.017600 0.008679 -0.011297
v 0.017600 0.008685 -0.011299
v 0.017600 0.008691 -0.011301
v 0.017600 0.008697 -0.011304
v 0.017600 0.008959 -0.011357
v 0.017600 0.008728 -0.011459
v 0.017600 0.008878 -0.011459
v 0.017600 0.008697 -0.011496
v 0.017600 0.008691 -0.011499
v 0.017600 0.008685 -0.011501
v 0.017600 0.008679 -0.011503
v 0.017600 0.008673 -0.011504
v 0.017600 0.008666 -0.011504
v 0.017600 0.008653 -0.011503
v 0.017600 0.008655 -0.011504
v 0.017600 0.008657 -0.011504
v 0.017600 0.008651 -0.011502
v 0.017600 0.008650 -0.011501
v 0.017600 0.008649 -0.011500
v 0.017600 0.008648 -0.011498
v 0.017600 0.008647 -0.011496
v 0.017600 0.008647 -0.011443
v 0.017575 0.008995 -0.011443
v 0.017577 0.008993 -0.011443
v 0.017567 0.009003 -0.011453
v 0.017600 0.008970 -0.011443
v 0.017573 0.008997 -0.011444
v 0.017570 0.009000 -0.011446
v 0.017571 0.008999 -0.011445
v 0.017568 0.009002 -0.011449
v 0.017569 0.009001 -0.011447
v 0.017567 0.009003 -0.011451
v 0.017600 0.008970 -0.011520
v 0.017573 0.008997 -0.011595
v 0.017600 0.008970 -0.011520
v 0.017600 0.008970 -0.011598
v 0.017573 0.008997 -0.011600
v 0.017567 0.009003 -0.011600
v 0.017600 0.008970 -0.011520
v 0.017600 0.008970 -0.011443
v 0.017560 0.008603 -0.011600
v 0.017573 0.008609 -0.011600
v 0.017567 0.008603 -0.011600
v 0.017560 0.009003 -0.011600
v 0.017573 0.008997 -0.011600
v 0.017573 0.008803 -0.011600
v 0.017567 0.009003 -0.011600
v 0.017573 0.008997 -0.011600
v 0.017567 0.008603 -0.011600
v 0.017573 0.008609 -0.011595
v 0.017567 0.008603 -0.011453
v 0.017600 0.008636 -0.011520
v 0.017600 0.008636 -0.011520
v 0.017600 0.008636 -0.011443
v 0.017575 0.008611 -0.011443
v 0.017577 0.008613 -0.011443
v 0.017573 0.008609 -0.011444
v 0.017570 0.008606 -0.011446
v 0.017569 0.008605 -0.011447
v 0.017571 0.008607 -0.011445
v 0.017568 0.008604 -0.011449
v 0.017600 0.008636 -0.011443
v 0.017600 0.008636 -0.011520
v 0.017600 0.008636 -0.011598
v 0.017567 0.008603 -0.011451
v 0.017567 0.008603 -0.011600
v 0.017573 0.008609 -0.011600
v 0.017560 0.008803 -0.011222
v 0.017560 0.008803 -0.011200
v 0.017560 0.008843 -0.011222
v 0.017560 0.008783 -0.011370
v 0.017560 0.008726 -0.011336
v 0.017560 0.008723 -0.011330
v 0.017560 0.008783 -0.011380
v 0.017560 0.008773 -0.011380
v 0.017560 0.008883 -0.011330
v 0.017560 0.008823 -0.011370
v 0.017560 0.008843 -0.011242
v 0.017560 0.008833 -0.011380
v 0.017560 0.008875 -0.011360
v 0.017560 0.008833 -0.011420
v 0.017560 0.008875 -0.011440
v 0.017560 0.008880 -0.011336
v 0.017560 0.008878 -0.011341
v 0.017560 0.008823 -0.011430
v 0.017560 0.008876 -0.011446
v 0.017560 0.008783 -0.011430
v 0.017560 0.008886 -0.011476
v 0.017560 0.008878 -0.011459
v 0.017560 0.008880 -0.011464
v 0.017560 0.008877 -0.011452
v 0.017560 0.008731 -0.011440
v 0.017560 0.008731 -0.011360
v 0.017560 0.008730 -0.011354
v 0.017560 0.008823 -0.011420
v 0.017560 0.009002 -0.011206
v 0.017560 0.009003 -0.011208
v 0.017560 0.009003 -0.011210
v 0.017560 0.009001 -0.011204
v 0.017560 0.009000 -0.011203
v 0.017560 0.008999 -0.011202
v 0.017560 0.008997 -0.011201
v 0.017560 0.008995 -0.011200
v 0.017560 0.008993 -0.011200
v 0.017560 0.008673 -0.011296
v 0.017560 0.008613 -0.011200
v 0.017560 0.008763 -0.011222
v 0.017560 0.008666 -0.011296
v 0.017560 0.008657 -0.011296
v 0.017560 0.008655 -0.011296
v 0.017560 0.008603 -0.011210
v 0.017560 0.008607 -0.011202
v 0.017560 0.008606 -0.011203
v 0.017560 0.008609 -0.011201
v 0.017560 0.008611 -0.011200
v 0.017560 0.008604 -0.011206
v 0.017560 0.008605 -0.011204
v 0.017560 0.008603 -0.011208
v 0.017560 0.008603 -0.011347
v 0.017560 0.008648 -0.011302
v 0.017560 0.008647 -0.011304
v 0.017560 0.008613 -0.011357
v 0.017560 0.008647 -0.011306
v 0.017560 0.008603 -0.011349
v 0.017560 0.008604 -0.011351
v 0.017560 0.008605 -0.011353
v 0.017560 0.008607 -0.011355
v 0.017560 0.008609 -0.011356
v 0.017560 0.008606 -0.011354
v 0.017560 0.008611 -0.011357
v 0.017560 0.008647 -0.011357
v 0.017560 0.008649 -0.011300
v 0.017560 0.008650 -0.011299
v 0.017560 0.008651 -0.011298
v 0.017560 0.008653 -0.011297
v 0.017560 0.008763 -0.011242
v 0.017560 0.008679 -0.011297
v 0.017560 0.008685 -0.011299
v 0.017560 0.008691 -0.011301
v 0.017560 0.008697 -0.011304
v 0.017560 0.008712 -0.011315
v 0.017560 0.008707 -0.011311
v 0.017560 0.008702 -0.011307
v 0.017560 0.008716 -0.011319
v 0.017560 0.008720 -0.011324
v 0.017560 0.008728 -0.011341
v 0.017560 0.008773 -0.011420
v 0.017560 0.008730 -0.011446
v 0.017560 0.008883 -0.011470
v 0.017560 0.008729 -0.011452
v 0.017560 0.008729 -0.011348
v 0.017560 0.008723 -0.011470
v 0.017560 0.008726 -0.011464
v 0.017560 0.008728 -0.011459
v 0.017560 0.008720 -0.011476
v 0.017560 0.008894 -0.011485
v 0.017560 0.008707 -0.011489
v 0.017560 0.008712 -0.011485
v 0.017560 0.008890 -0.011481
v 0.017560 0.008697 -0.011496
v 0.017560 0.008702 -0.011493
v 0.017560 0.008904 -0.011493
v 0.017560 0.008899 -0.011489
v 0.017560 0.008691 -0.011499
v 0.017560 0.008603 -0.011600
v 0.017560 0.008685 -0.011501
v 0.017560 0.008666 -0.011504
v 0.017560 0.008603 -0.011600
v 0.017560 0.008657 -0.011504
v 0.017560 0.008603 -0.011600
v 0.017560 0.008673 -0.011504
v 0.017560 0.008679 -0.011503
v 0.017560 0.008603 -0.011600
v 0.017560 0.008655 -0.011504
v 0.017560 0.008603 -0.011600
v 0.017560 0.008653 -0.011503
v 0.017560 0.008603 -0.011600
v 0.017560 0.008651 -0.011502
v 0.017560 0.008603 -0.011600
v 0.017560 0.008650 -0.011501
v 0.017560 0.008603 -0.011600
v 0.017560 0.008649 -0.011500
v 0.017560 0.008603 -0.011600
v 0.017560 0.008648 -0.011498
v 0.017560 0.008603 -0.011600
v 0.017560 0.008603 -0.011453
v 0.017560 0.008603 -0.011600
v 0.017560 0.008909 -0.011496
v 0.017560 0.008716 -0.011481
v 0.017560 0.008783 -0.011420
v 0.017560 0.008877 -0.011348
v 0.017560 0.008876 -0.011354
v 0.017560 0.008647 -0.011494
v 0.017560 0.008613 -0.011443
v 0.017560 0.008647 -0.011443
v 0.017560 0.008611 -0.011443
v 0.017560 0.008604 -0.011449
v 0.017560 0.008603 -0.011451
v 0.017560 0.009003 -0.011453
v 0.017560 0.008958 -0.011498
v 0.017560 0.008959 -0.011496
v 0.017560 0.008993 -0.011443
v 0.017560 0.008959 -0.011494
v 0.017560 0.009003 -0.011451
v 0.017560 0.009002 -0.011449
v 0.017560 0.009001 -0.011447
v 0.017560 0.008999 -0.011445
v 0.017560 0.008997 -0.011444
v 0.017560 0.009000 -0.011446
v 0.017560 0.008995 -0.011443
v 0.017560 0.009003 -0.011600
v 0.017560 0.008959 -0.011443
v 0.017560 0.008957 -0.011500
v 0.017560 0.009003 -0.011600
v 0.017560 0.008956 -0.011501
v 0.017560 0.009003 -0.011600
v 0.017560 0.008955 -0.011502
v 0.017560 0.009003 -0.011600
v 0.017560 0.008953 -0.011503
v 0.017560 0.009003 -0.011600
v 0.017560 0.009003 -0.011600
v 0.017560 0.008951 -0.011504
v 0.017560 0.009003 -0.011600
v 0.017560 0.008939 -0.011504
v 0.017560 0.008949 -0.011504
v 0.017560 0.009003 -0.011600
v 0.017560 0.008933 -0.011504
v 0.017560 0.009003 -0.011600
v 0.017560 0.008921 -0.011501
v 0.017560 0.008927 -0.011503
v 0.017560 0.009003 -0.011600
v 0.017560 0.008915 -0.011499
v 0.017560 0.009003 -0.011600
v 0.017560 0.009003 -0.011600
v 0.017560 0.008603 -0.011600
v 0.017560 0.008603 -0.011600
v 0.017560 0.008647 -0.011496
v 0.017560 0.008603 -0.011600
v 0.017560 0.008609 -0.011444
v 0.017560 0.008607 -0.011445
v 0.017560 0.008605 -0.011447
v 0.017560 0.008606 -0.011446
v 0.017560 0.008823 -0.011380
v 0.017560 0.008894 -0.011315
v 0.017560 0.008890 -0.011319
v 0.017560 0.008886 -0.011324
v 0.017560 0.008899 -0.011311
v 0.017560 0.008904 -0.011307
v 0.017560 0.008909 -0.011304
v 0.017560 0.008915 -0.011301
v 0.017560 0.008921 -0.011299
v 0.017560 0.008927 -0.011297
v 0.017560 0.008933 -0.011296
v 0.017560 0.008939 -0.011296
v 0.017560 0.008953 -0.011297
v 0.017560 0.008951 -0.011296
v 0.017560 0.008949 -0.011296
v 0.017560 0.008955 -0.011298
v 0.017560 0.008956 -0.011299
v 0.017560 0.008957 -0.011300
v 0.017560 0.008958 -0.011302
v 0.017560 0.009003 -0.011347
v 0.017560 0.008959 -0.011304
v 0.017560 0.008959 -0.011306
v 0.017560 0.008993 -0.011357
v 0.017560 0.008959 -0.011357
v 0.017560 0.008995 -0.011357
v 0.017560 0.008603 -0.011600
v 0.017560 0.009003 -0.011600
v 0.017560 0.009003 -0.011600
v 0.017560 0.008997 -0.011356
v 0.017560 0.008999 -0.011355
v 0.017560 0.009000 -0.011354
v 0.017560 0.009001 -0.011353
v 0.017560 0.009002 -0.011351
v 0.017560 0.009003 -0.011349
v 0.017560 0.009003 -0.011210
v 0.017567 0.009003 -0.011210
v 0.017560 0.009003 -0.011347
v 0.017560 0.009003 -0.011347
v 0.017567 0.009003 -0.011347
v 0.017560 0.009003 -0.011453
v 0.017567 0.009003 -0.011453
v 0.017560 0.009003 -0.011600
v 0.017560 0.009003 -0.011600
v 0.017567 0.009003 -0.011453
v 0.017567 0.009003 -0.011600
v 0.017600 0.008970 -0.011278
v 0.017567 0.009003 -0.011210
v 0.017600 0.008970 -0.011200
v 0.017600 0.008970 -0.011278
v 0.017600 0.008970 -0.011357
v 0.017567 0.009003 -0.011347
v 0.017577 0.008993 -0.011200
v 0.017600 0.008970 -0.011200
v 0.017567 0.009003 -0.011210
v 0.017575 0.008995 -0.011200
v 0.017567 0.009003 -0.011210
v 0.017573 0.008997 -0.011201
v 0.017567 0.009003 -0.011210
v 0.017571 0.008999 -0.011202
v 0.017567 0.009003 -0.011210
v 0.017570 0.009000 -0.011203
v 0.017568 0.009002 -0.011206
v 0.017569 0.009001 -0.011204
v 0.017567 0.009003 -0.011210
v 0.017567 0.009003 -0.011210
v 0.017567 0.009003 -0.011208
v 0.017567 0.009003 -0.011210
v 0.017567 0.009003 -0.011210
v 0.017567 0.009003 -0.011210
v 0.017600 0.008970 -0.011278
v 0.017567 0.009003 -0.011347
v 0.017567 0.009003 -0.011347
v 0.017600 0.008970 -0.011357
v 0.017577 0.008993 -0.011357
v 0.017575 0.008995 -0.011357
v 0.017567 0.009003 -0.011347
v 0.017573 0.008997 -0.011356
v 0.017567 0.009003 -0.011347
v 0.017567 0.009003 -0.011347
v 0.017570 0.009000 -0.011354
v 0.017569 0.009001 -0.011353
v 0.017567 0.009003 -0.011347
v 0.017571 0.008999 -0.011355
v 0.017567 0.009003 -0.011349
v 0.017567 0.009003 -0.011347
v 0.017568 0.009002 -0.011351
v 0.017567 0.009003 -0.011347
v 0.017567 0.009003 -0.011347
v 0.017560 0.008603 -0.011347
v 0.017567 0.008603 -0.011347
v 0.017560 0.008603 -0.011210
v 0.017560 0.008603 -0.011210
v 0.017567 0.008603 -0.011210
v 0.017600 0.008636 -0.011278
v 0.017567 0.008603 -0.011347
v 0.017600 0.008636 -0.011357
v 0.017600 0.008636 -0.011278
v 0.017600 0.008636 -0.011200
v 0.017567 0.008603 -0.011210
v 0.017577 0.008613 -0.011357
v 0.017600 0.008636 -0.011357
v 0.017567 0.008603 -0.011347
v 0.017575 0.008611 -0.011357
v 0.017567 0.008603 -0.011347
v 0.017573 0.008609 -0.011356
v 0.017567 0.008603 -0.011347
v 0.017571 0.008607 -0.011355
v 0.017567 0.008603 -0.011347
v 0.017570 0.008606 -0.011354
v 0.017568 0.008604 -0.011351
v 0.017569 0.008605 -0.011353
v 0.017567 0.008603 -0.011347
v 0.017567 0.008603 -0.011347
v 0.017567 0.008603 -0.011349
v 0.017567 0.008603 -0.011347
v 0.017567 0.008603 -0.011347
v 0.017567 0.008603 -0.011347
v 0.017600 0.008636 -0.011278
v 0.017567 0.008603 -0.011210
v 0.017567 0.008603 -0.011210
v 0.017600 0.008636 -0.011200
v 0.017577 0.008613 -0.011200
v 0.017575 0.008611 -0.011200
v 0.017567 0.008603 -0.011210
v 0.017573 0.008609 -0.011201
v 0.017567 0.008603 -0.011210
v 0.017567 0.008603 -0.011210
v 0.017570 0.008606 -0.011203
v 0.017569 0.008605 -0.011204
v 0.017567 0.008603 -0.011210
v 0.017571 0.008607 -0.011202
v 0.017567 0.008603 -0.011208
v 0.017567 0.008603 -0.011210
v 0.017568 0.008604 -0.011206
v 0.017567 0.008603 -0.011210
v 0.017567 0.008603 -0.011210
v 0.017600 0.008970 -0.011200
v 0.017560 0.008803 -0.011200
v 0.017600 0.008636 -0.011200
v 0.017600 0.008970 -0.011200
v 0.017577 0.008993 -0.011200
v 0.017560 0.008993 -0.011200
v 0.017600 0.008636 -0.011200
v 0.017560 0.008803 -0.011200
v 0.017560 0.008613 -0.011200
v 0.017577 0.008613 -0.011200
v 0.017600 0.008636 -0.011200
v 0.017560 0.008613 -0.011200
v 0.017560 0.008803 -0.011200
v 0.017600 0.008970 -0.011200
v 0.017560 0.008993 -0.011200
v 0.017560 0.008603 -0.011600
v 0.017567 0.008603 -0.011600
v 0.017560 0.008603 -0.011453
v 0.017560 0.008603 -0.011453
v 0.017567 0.008603 -0.011600
v 0.017567 0.008603 -0.011453
v 0.017560 0.008731 -0.011440
v 0.017600 0.008731 -0.011440
v 0.017560 0.008731 -0.011360
v 0.017600 0.008731 -0.011440
v 0.017600 0.008731 -0.011360
v 0.017560 0.008731 -0.011360
v 0.017560 0.008673 -0.011296
v 0.017560 0.008679 -0.011297
v 0.017600 0.008673 -0.011296
v 0.017560 0.008679 -0.011297
v 0.017560 0.008685 -0.011299
v 0.017600 0.008679 -0.011297
v 0.017560 0.008685 -0.011299
v 0.017600 0.008685 -0.011299
v 0.017600 0.008679 -0.011297
v 0.017560 0.008691 -0.011301
v 0.017600 0.008691 -0.011301
v 0.017600 0.008685 -0.011299
v 0.017560 0.008697 -0.011304
v 0.017600 0.008691 -0.011301
v 0.017560 0.008691 -0.011301
v 0.017560 0.008702 -0.011307
v 0.017600 0.008697 -0.011304
v 0.017560 0.008697 -0.011304
v 0.017600 0.008702 -0.011307
v 0.017600 0.008697 -0.011304
v 0.017560 0.008702 -0.011307
v 0.017600 0.008707 -0.011311
v 0.017600 0.008702 -0.011307
v 0.017560 0.008707 -0.011311
v 0.017600 0.008707 -0.011311
v 0.017560 0.008707 -0.011311
v 0.017560 0.008712 -0.011315
v 0.017600 0.008712 -0.011315
v 0.017560 0.008712 -0.011315
v 0.017560 0.008716 -0.011319
v 0.017600 0.008712 -0.011315
v 0.017560 0.008716 -0.011319
v 0.017600 0.008716 -0.011319
v 0.017600 0.008716 -0.011319
v 0.017560 0.008720 -0.011324
v 0.017600 0.008720 -0.011324
v 0.017560 0.008720 -0.011324
v 0.017560 0.008723 -0.011330
v 0.017600 0.008720 -0.011324
v 0.017560 0.008723 -0.011330
v 0.017560 0.008726 -0.011336
v 0.017600 0.008723 -0.011330
v 0.017560 0.008726 -0.011336
v 0.017600 0.008726 -0.011336
v 0.017600 0.008723 -0.011330
v 0.017560 0.008673 -0.011296
v 0.017600 0.008673 -0.011296
v 0.017560 0.008666 -0.011296
v 0.017600 0.008730 -0.011354
v 0.017560 0.008731 -0.011360
v 0.017600 0.008731 -0.011360
v 0.017560 0.008730 -0.011354
v 0.017560 0.008731 -0.011360
v 0.017600 0.008730 -0.011354
v 0.017560 0.008730 -0.011354
v 0.017600 0.008730 -0.011354
v 0.017600 0.008729 -0.011348
v 0.017560 0.008730 -0.011354
v 0.017600 0.008729 -0.011348
v 0.017560 0.008729 -0.011348
v 0.017600 0.008729 -0.011348
v 0.017600 0.008728 -0.011341
v 0.017560 0.008729 -0.011348
v 0.017600 0.008728 -0.011341
v 0.017560 0.008728 -0.011341
v 0.017560 0.008729 -0.011348
v 0.017600 0.008726 -0.011336
v 0.017560 0.008728 -0.011341
v 0.017600 0.008728 -0.011341
v 0.017560 0.008726 -0.011336
v 0.017560 0.008728 -0.011341
v 0.017600 0.008726 -0.011336
v 0.017600 0.008720 -0.011324
v 0.017560 0.008723 -0.011330
v 0.017600 0.008723 -0.011330
v 0.017600 0.008716 -0.011319
v 0.017560 0.008716 -0.011319
v 0.017560 0.008720 -0.011324
v 0.017600 0.008712 -0.011315
v 0.017600 0.008707 -0.011311
v 0.017560 0.008712 -0.011315
v 0.017560 0.008707 -0.011311
v 0.017600 0.008702 -0.011307
v 0.017560 0.008702 -0.011307
v 0.017560 0.008697 -0.011304
v 0.017600 0.008697 -0.011304
v 0.017600 0.008691 -0.011301
v 0.017560 0.008685 -0.011299
v 0.017560 0.008691 -0.011301
v 0.017600 0.008685 -0.011299
v 0.017600 0.008673 -0.011296
v 0.017600 0.008666 -0.011296
v 0.017560 0.008666 -0.011296
v 0.017560 0.008679 -0.011297
v 0.017600 0.008679 -0.011297
v 0.017600 0.008673 -0.011296
v 0.017600 0.008657 -0.011296
v 0.017560 0.008657 -0.011296
v 0.017600 0.008666 -0.011296
v 0.017560 0.008657 -0.011296
v 0.017560 0.008666 -0.011296
v 0.017600 0.008666 -0.011296
v 0.017560 0.008647 -0.011306
v 0.017600 0.008647 -0.011306
v 0.017560 0.008647 -0.011357
v 0.017600 0.008647 -0.011306
v 0.017600 0.008647 -0.011357
v 0.017560 0.008647 -0.011357
v 0.017600 0.008647 -0.011494
v 0.017560 0.008647 -0.011494
v 0.017600 0.008647 -0.011443
v 0.017560 0.008647 -0.011494
v 0.017560 0.008647 -0.011443
v 0.017600 0.008647 -0.011443
v 0.017560 0.008657 -0.011504
v 0.017600 0.008657 -0.011504
v 0.017560 0.008666 -0.011504
v 0.017600 0.008657 -0.011504
v 0.017600 0.008666 -0.011504
v 0.017560 0.008666 -0.011504
v 0.017560 0.008730 -0.011446
v 0.017560 0.008729 -0.011452
v 0.017600 0.008730 -0.011446
v 0.017560 0.008729 -0.011452
v 0.017560 0.008728 -0.011459
v 0.017600 0.008729 -0.011452
v 0.017560 0.008728 -0.011459
v 0.017600 0.008728 -0.011459
v 0.017600 0.008729 -0.011452
v 0.017560 0.008726 -0.011464
v 0.017600 0.008726 -0.011464
v 0.017600 0.008728 -0.011459
v 0.017560 0.008723 -0.011470
v 0.017600 0.008726 -0.011464
v 0.017560 0.008726 -0.011464
v 0.017560 0.008720 -0.011476
v 0.017600 0.008723 -0.011470
v 0.017560 0.008723 -0.011470
v 0.017600 0.008720 -0.011476
v 0.017600 0.008723 -0.011470
v 0.017560 0.008720 -0.011476
v 0.017600 0.008716 -0.011481
v 0.017600 0.008720 -0.011476
v 0.017560 0.008716 -0.011481
v 0.017600 0.008716 -0.011481
v 0.017560 0.008716 -0.011481
v 0.017560 0.008712 -0.011485
v 0.017600 0.008712 -0.011485
v 0.017560 0.008712 -0.011485
v 0.017560 0.008707 -0.011489
v 0.017600 0.008712 -0.011485
v 0.017560 0.008707 -0.011489
v 0.017600 0.008707 -0.011489
v 0.017600 0.008707 -0.011489
v 0.017560 0.008702 -0.011493
v 0.017600 0.008702 -0.011493
v 0.017560 0.008702 -0.011493
v 0.017560 0.008697 -0.011496
v 0.017600 0.008702 -0.011493
v 0.017560 0.008697 -0.011496
v 0.017560 0.008691 -0.011499
v 0.017600 0.008697 -0.011496
v 0.017560 0.008691 -0.011499
v 0.017600 0.008691 -0.011499
v 0.017600 0.008697 -0.011496
v 0.017560 0.008730 -0.011446
v 0.017600 0.008730 -0.011446
v 0.017560 0.008731 -0.011440
v 0.017600 0.008673 -0.011504
v 0.017560 0.008666 -0.011504
v 0.017600 0.008666 -0.011504
v 0.017560 0.008673 -0.011504
v 0.017560 0.008666 -0.011504
v 0.017600 0.008673 -0.011504
v 0.017560 0.008673 -0.011504
v 0.017600 0.008673 -0.011504
v 0.017600 0.008679 -0.011503
v 0.017560 0.008673 -0.011504
v 0.017600 0.008679 -0.011503
v 0.017560 0.008679 -0.011503
v 0.017600 0.008679 -0.011503
v 0.017600 0.008685 -0.011501
v 0.017560 0.008679 -0.011503
v 0.017600 0.008685 -0.011501
v 0.017560 0.008685 -0.011501
v 0.017560 0.008679 -0.011503
v 0.017600 0.008691 -0.011499
v 0.017560 0.008685 -0.011501
v 0.017600 0.008685 -0.011501
v 0.017560 0.008691 -0.011499
v 0.017560 0.008685 -0.011501
v 0.017600 0.008691 -0.011499
v 0.017600 0.008702 -0.011493
v 0.017560 0.008697 -0.011496
v 0.017600 0.008697 -0.011496
v 0.017600 0.008707 -0.011489
v 0.017560 0.008707 -0.011489
v 0.017560 0.008702 -0.011493
v 0.017600 0.008712 -0.011485
v 0.017600 0.008716 -0.011481
v 0.017560 0.008712 -0.011485
v 0.017560 0.008716 -0.011481
v 0.017600 0.008720 -0.011476
v 0.017560 0.008720 -0.011476
v 0.017560 0.008723 -0.011470
v 0.017600 0.008723 -0.011470
v 0.017600 0.008726 -0.011464
v 0.017560 0.008728 -0.011459
v 0.017560 0.008726 -0.011464
v 0.017600 0.008728 -0.011459
v 0.017600 0.008730 -0.011446
v 0.017600 0.008731 -0.011440
v 0.017560 0.008731 -0.011440
v 0.017560 0.008729 -0.011452
v 0.017600 0.008729 -0.011452
v 0.017600 0.008730 -0.011446
v 0.017577 0.008613 -0.011357
v 0.017560 0.008647 -0.011357
v 0.017600 0.008636 -0.011357
v 0.017560 0.008613 -0.011357
v 0.017560 0.008647 -0.011357
v 0.017577 0.008613 -0.011357
v 0.017600 0.008647 -0.011357
v 0.017600 0.008636 -0.011357
v 0.017560 0.008647 -0.011357
v 0.017560 0.008613 -0.011443
v 0.017577 0.008613 -0.011443
v 0.017560 0.008647 -0.011443
v 0.017600 0.008636 -0.011443
v 0.017600 0.008647 -0.011443
v 0.017560 0.008647 -0.011443
v 0.017577 0.008613 -0.011443
v 0.017600 0.008636 -0.011443
v 0.017560 0.008647 -0.011443
v 0.017560 0.008875 -0.011440
v 0.017560 0.008875 -0.011360
v 0.017600 0.008875 -0.011440
v 0.017600 0.008875 -0.011440
v 0.017560 0.008875 -0.011360
v 0.017600 0.008875 -0.011360
v 0.017600 0.008939 -0.011296
v 0.017600 0.008933 -0.011296
v 0.017560 0.008939 -0.011296
v 0.017600 0.008933 -0.011296
v 0.017560 0.008933 -0.011296
v 0.017560 0.008939 -0.011296
v 0.017600 0.008927 -0.011297
v 0.017560 0.008933 -0.011296
v 0.017600 0.008933 -0.011296
v 0.017560 0.008927 -0.011297
v 0.017560 0.008933 -0.011296
v 0.017600 0.008927 -0.011297
v 0.017560 0.008927 -0.011297
v 0.017600 0.008927 -0.011297
v 0.017600 0.008921 -0.011299
v 0.017560 0.008927 -0.011297
v 0.017600 0.008921 -0.011299
v 0.017560 0.008921 -0.011299
v 0.017600 0.008921 -0.011299
v 0.017600 0.008915 -0.011301
v 0.017560 0.008921 -0.011299
v 0.017600 0.008915 -0.011301
v 0.017560 0.008915 -0.011301
v 0.017560 0.008921 -0.011299
v 0.017600 0.008909 -0.011304
v 0.017560 0.008915 -0.011301
v 0.017600 0.008915 -0.011301
v 0.017560 0.008909 -0.011304
v 0.017560 0.008915 -0.011301
v 0.017600 0.008909 -0.011304
v 0.017560 0.008909 -0.011304
v 0.017600 0.008909 -0.011304
v 0.017600 0.008904 -0.011307
v 0.017560 0.008909 -0.011304
v 0.017600 0.008904 -0.011307
v 0.017560 0.008904 -0.011307
v 0.017600 0.008904 -0.011307
v 0.017600 0.008899 -0.011311
v 0.017560 0.008904 -0.011307
v 0.017600 0.008899 -0.011311
v 0.017560 0.008899 -0.011311
v 0.017560 0.008904 -0.011307
v 0.017560 0.008890 -0.011319
v 0.017600 0.008886 -0.011324
v 0.017560 0.008886 -0.011324
v 0.017560 0.008886 -0.011324
v 0.017600 0.008886 -0.011324
v 0.017600 0.008883 -0.011330
v 0.017560 0.008875 -0.011360
v 0.017560 0.008876 -0.011354
v 0.017600 0.008875 -0.011360
v 0.017560 0.008876 -0.011354
v 0.017600 0.008876 -0.011354
v 0.017600 0.008875 -0.011360
v 0.017560 0.008877 -0.011348
v 0.017600 0.008876 -0.011354
v 0.017560 0.008876 -0.011354
v 0.017600 0.008877 -0.011348
v 0.017600 0.008876 -0.011354
v 0.017560 0.008877 -0.011348
v 0.017600 0.008877 -0.011348
v 0.017560 0.008877 -0.011348
v 0.017560 0.008878 -0.011341
v 0.017600 0.008877 -0.011348
v 0.017560 0.008878 -0.011341
v 0.017600 0.008878 -0.011341
v 0.017560 0.008878 -0.011341
v 0.017560 0.008880 -0.011336
v 0.017600 0.008878 -0.011341
v 0.017560 0.008880 -0.011336
v 0.017600 0.008880 -0.011336
v 0.017600 0.008878 -0.011341
v 0.017560 0.008883 -0.011330
v 0.017600 0.008880 -0.011336
v 0.017560 0.008880 -0.011336
v 0.017600 0.008883 -0.011330
v 0.017600 0.008880 -0.011336
v 0.017560 0.008883 -0.011330
v 0.017600 0.008883 -0.011330
v 0.017560 0.008883 -0.011330
v 0.017560 0.008886 -0.011324
v 0.017600 0.008886 -0.011324
v 0.017560 0.008890 -0.011319
v 0.017600 0.008890 -0.011319
v 0.017560 0.008890 -0.011319
v 0.017560 0.008894 -0.011315
v 0.017600 0.008890 -0.011319
v 0.017560 0.008894 -0.011315
v 0.017600 0.008894 -0.011315
v 0.017600 0.008890 -0.011319
v 0.017560 0.008899 -0.011311
v 0.017600 0.008894 -0.011315
v 0.017560 0.008894 -0.011315
v 0.017560 0.008899 -0.011311
v 0.017600 0.008899 -0.011311
v 0.017600 0.008894 -0.011315
v 0.017600 0.008939 -0.011296
v 0.017560 0.008939 -0.011296
v 0.017600 0.008949 -0.011296
v 0.017600 0.008949 -0.011296
v 0.017560 0.008939 -0.011296
v 0.017560 0.008949 -0.011296
v 0.017560 0.008959 -0.011357
v 0.017600 0.008959 -0.011357
v 0.017560 0.008959 -0.011306
v 0.017560 0.008959 -0.011306
v 0.017600 0.008959 -0.011357
v 0.017600 0.008959 -0.011306
v 0.017600 0.008959 -0.011443
v 0.017560 0.008959 -0.011443
v 0.017600 0.008959 -0.011494
v 0.017600 0.008959 -0.011494
v 0.017560 0.008959 -0.011443
v 0.017560 0.008959 -0.011494
v 0.017560 0.008939 -0.011504
v 0.017600 0.008939 -0.011504
v 0.017560 0.008949 -0.011504
v 0.017560 0.008949 -0.011504
v 0.017600 0.008939 -0.011504
v 0.017600 0.008949 -0.011504
v 0.017600 0.008875 -0.011440
v 0.017600 0.008876 -0.011446
v 0.017560 0.008875 -0.011440
v 0.017600 0.008876 -0.011446
v 0.017600 0.008877 -0.011452
v 0.017560 0.008876 -0.011446
v 0.017600 0.008877 -0.011452
v 0.017560 0.008877 -0.011452
v 0.017560 0.008876 -0.011446
v 0.017600 0.008878 -0.011459
v 0.017560 0.008878 -0.011459
v 0.017560 0.008877 -0.011452
v 0.017600 0.008880 -0.011464
v 0.017560 0.008880 -0.011464
v 0.017560 0.008878 -0.011459
v 0.017600 0.008883 -0.011470
v 0.017560 0.008880 -0.011464
v 0.017600 0.008880 -0.011464
v 0.017600 0.008886 -0.011476
v 0.017560 0.008883 -0.011470
v 0.017600 0.008883 -0.011470
v 0.017560 0.008886 -0.011476
v 0.017560 0.008883 -0.011470
v 0.017600 0.008886 -0.011476
v 0.017560 0.008890 -0.011481
v 0.017560 0.008886 -0.011476
v 0.017600 0.008890 -0.011481
v 0.017560 0.008890 -0.011481
v 0.017600 0.008890 -0.011481
v 0.017600 0.008894 -0.011485
v 0.017560 0.008894 -0.011485
v 0.017600 0.008894 -0.011485
v 0.017600 0.008899 -0.011489
v 0.017560 0.008894 -0.011485
v 0.017600 0.008899 -0.011489
v 0.017560 0.008899 -0.011489
v 0.017560 0.008899 -0.011489
v 0.017600 0.008904 -0.011493
v 0.017560 0.008904 -0.011493
v 0.017600 0.008904 -0.011493
v 0.017600 0.008909 -0.011496
v 0.017560 0.008904 -0.011493
v 0.017600 0.008909 -0.011496
v 0.017600 0.008915 -0.011499
v 0.017560 0.008909 -0.011496
v 0.017600 0.008915 -0.011499
v 0.017560 0.008915 -0.011499
v 0.017560 0.008909 -0.011496
v 0.017560 0.008933 -0.011504
v 0.017600 0.008939 -0.011504
v 0.017560 0.008939 -0.011504
v 0.017600 0.008933 -0.011504
v 0.017600 0.008939 -0.011504
v 0.017560 0.008933 -0.011504
v 0.017600 0.008933 -0.011504
v 0.017560 0.008933 -0.011504
v 0.017560 0.008927 -0.011503
v 0.017600 0.008933 -0.011504
v 0.017560 0.008927 -0.011503
v 0.017600 0.008927 -0.011503
v 0.017560 0.008927 -0.011503
v 0.017560 0.008921 -0.011501
v 0.017600 0.008927 -0.011503
v 0.017560 0.008921 -0.011501
v 0.017600 0.008921 -0.011501
v 0.017600 0.008927 -0.011503
v 0.017560 0.008915 -0.011499
v 0.017600 0.008921 -0.011501
v 0.017560 0.008921 -0.011501
v 0.017600 0.008915 -0.011499
v 0.017600 0.008921 -0.011501
v 0.017560 0.008915 -0.011499
v 0.017560 0.008904 -0.011493
v 0.017600 0.008909 -0.011496
v 0.017560 0.008909 -0.011496
v 0.017560 0.008899 -0.011489
v 0.017600 0.008899 -0.011489
v 0.017600 0.008904 -0.011493
v 0.017560 0.008894 -0.011485
v 0.017560 0.008890 -0.011481
v 0.017600 0.008894 -0.011485
v 0.017600 0.008890 -0.011481
v 0.017560 0.008886 -0.011476
v 0.017600 0.008886 -0.011476
v 0.017600 0.008883 -0.011470
v 0.017560 0.008883 -0.011470
v 0.017560 0.008880 -0.011464
v 0.017600 0.008878 -0.011459
v 0.017600 0.008880 -0.011464
v 0.017560 0.008878 -0.011459
v 0.017560 0.008876 -0.011446
v 0.017560 0.008875 -0.011440
v 0.017600 0.008876 -0.011446
v 0.017560 0.008877 -0.011452
v 0.017600 0.008877 -0.011452
v 0.017600 0.008878 -0.011459
v 0.017600 0.008959 -0.011357
v 0.017560 0.008959 -0.011357
v 0.017600 0.008970 -0.011357
v 0.017577 0.008993 -0.011357
v 0.017560 0.008959 -0.011357
v 0.017560 0.008993 -0.011357
v 0.017577 0.008993 -0.011357
v 0.017600 0.008970 -0.011357
v 0.017560 0.008959 -0.011357
v 0.017600 0.008959 -0.011443
v 0.017600 0.008970 -0.011443
v 0.017560 0.008959 -0.011443
v 0.017560 0.008959 -0.011443
v 0.017600 0.008970 -0.011443
v 0.017577 0.008993 -0.011443
v 0.017577 0.008993 -0.011443
v 0.017560 0.008993 -0.011443
v 0.017560 0.008959 -0.011443
v 0.017567 0.009003 -0.011453
v 0.017560 0.009003 -0.011453
v 0.017560 0.009003 -0.011451
v 0.017567 0.009003 -0.011451
v 0.017567 0.009003 -0.011453
v 0.017560 0.009003 -0.011451
v 0.017560 0.009003 -0.011451
v 0.017560 0.009002 -0.011449
v 0.017567 0.009003 -0.011451
v 0.017567 0.009003 -0.011451
v 0.017560 0.009002 -0.011449
v 0.017568 0.009002 -0.011449
v 0.017568 0.009002 -0.011449
v 0.017560 0.009002 -0.011449
v 0.017560 0.009001 -0.011447
v 0.017569 0.009001 -0.011447
v 0.017568 0.009002 -0.011449
v 0.017560 0.009001 -0.011447
v 0.017560 0.009000 -0.011446
v 0.017569 0.009001 -0.011447
v 0.017560 0.009001 -0.011447
v 0.017560 0.008999 -0.011445
v 0.017570 0.009000 -0.011446
v 0.017560 0.009000 -0.011446
v 0.017560 0.009000 -0.011446
v 0.017570 0.009000 -0.011446
v 0.017569 0.009001 -0.011447
v 0.017575 0.008995 -0.011443
v 0.017560 0.008993 -0.011443
v 0.017577 0.008993 -0.011443
v 0.017575 0.008995 -0.011443
v 0.017560 0.008995 -0.011443
v 0.017560 0.008993 -0.011443
v 0.017575 0.008995 -0.011443
v 0.017573 0.008997 -0.011444
v 0.017560 0.008995 -0.011443
v 0.017560 0.008995 -0.011443
v 0.017573 0.008997 -0.011444
v 0.017560 0.008997 -0.011444
v 0.017560 0.008997 -0.011444
v 0.017573 0.008997 -0.011444
v 0.017571 0.008999 -0.011445
v 0.017560 0.008999 -0.011445
v 0.017560 0.008997 -0.011444
v 0.017571 0.008999 -0.011445
v 0.017570 0.009000 -0.011446
v 0.017560 0.008999 -0.011445
v 0.017571 0.008999 -0.011445
v 0.017560 0.008613 -0.011443
v 0.017575 0.008611 -0.011443
v 0.017577 0.008613 -0.011443
v 0.017560 0.008613 -0.011443
v 0.017560 0.008611 -0.011443
v 0.017575 0.008611 -0.011443
v 0.017575 0.008611 -0.011443
v 0.017560 0.008611 -0.011443
v 0.017573 0.008609 -0.011444
v 0.017573 0.008609 -0.011444
v 0.017560 0.008611 -0.011443
v 0.017560 0.008609 -0.011444
v 0.017560 0.008607 -0.011445
v 0.017560 0.008606 -0.011446
v 0.017570 0.008606 -0.011446
v 0.017571 0.008607 -0.011445
v 0.017560 0.008609 -0.011444
v 0.017560 0.008607 -0.011445
v 0.017560 0.008606 -0.011446
v 0.017560 0.008605 -0.011447
v 0.017569 0.008605 -0.011447
v 0.017571 0.008607 -0.011445
v 0.017573 0.008609 -0.011444
v 0.017560 0.008609 -0.011444
v 0.017560 0.008603 -0.011451
v 0.017560 0.008603 -0.011453
v 0.017567 0.008603 -0.011453
v 0.017567 0.008603 -0.011451
v 0.017560 0.008603 -0.011451
v 0.017567 0.008603 -0.011453
v 0.017567 0.008603 -0.011451
v 0.017560 0.008604 -0.011449
v 0.017560 0.008603 -0.011451
v 0.017567 0.008603 -0.011451
v 0.017568 0.008604 -0.011449
v 0.017560 0.008604 -0.011449
v 0.017560 0.008604 -0.011449
v 0.017568 0.008604 -0.011449
v 0.017560 0.008605 -0.011447
v 0.017560 0.008605 -0.011447
v 0.017568 0.008604 -0.011449
v 0.017569 0.008605 -0.011447
v 0.017560 0.008606 -0.011446
v 0.017569 0.008605 -0.011447
v 0.017570 0.008606 -0.011446
v 0.017570 0.008606 -0.011446
v 0.017571 0.008607 -0.011445
v 0.017560 0.008607 -0.011445
v 0.017560 0.008603 -0.011347
v 0.017560 0.008603 -0.011349
v 0.017567 0.008603 -0.011349
v 0.017560 0.008603 -0.011349
v 0.017560 0.008603 -0.011349
v 0.017560 0.008604 -0.011351
v 0.017567 0.008603 -0.011349
v 0.017567 0.008603 -0.011349
v 0.017560 0.008604 -0.011351
v 0.017568 0.008604 -0.011351
v 0.017568 0.008604 -0.011351
v 0.017560 0.008604 -0.011351
v 0.017560 0.008605 -0.011353
v 0.017569 0.008605 -0.011353
v 0.017568 0.008604 -0.011351
v 0.017560 0.008605 -0.011353
v 0.017560 0.008606 -0.011354
v 0.017569 0.008605 -0.011353
v 0.017560 0.008605 -0.011353
v 0.017560 0.008607 -0.011355
v 0.017570 0.008606 -0.011354
v 0.017560 0.008606 -0.011354
v 0.017560 0.008606 -0.011354
v 0.017570 0.008606 -0.011354
v 0.017569 0.008605 -0.011353
v 0.017575 0.008611 -0.011357
v 0.017560 0.008613 -0.011357
v 0.017577 0.008613 -0.011357
v 0.017575 0.008611 -0.011357
v 0.017560 0.008611 -0.011357
v 0.017560 0.008613 -0.011357
v 0.017575 0.008611 -0.011357
v 0.017573 0.008609 -0.011356
v 0.017560 0.008611 -0.011357
v 0.017560 0.008611 -0.011357
v 0.017573 0.008609 -0.011356
v 0.017560 0.008609 -0.011356
v 0.017560 0.008609 -0.011356
v 0.017573 0.008609 -0.011356
v 0.017571 0.008607 -0.011355
v 0.017560 0.008607 -0.011355
v 0.017560 0.008609 -0.011356
v 0.017571 0.008607 -0.011355
v 0.017570 0.008606 -0.011354
v 0.017560 0.008607 -0.011355
v 0.017571 0.008607 -0.011355
v 0.017560 0.008655 -0.011504
v 0.017560 0.008653 -0.011503
v 0.017600 0.008655 -0.011504
v 0.017560 0.008653 -0.011503
v 0.017560 0.008651 -0.011502
v 0.017600 0.008653 -0.011503
v 0.017560 0.008651 -0.011502
v 0.017600 0.008651 -0.011502
v 0.017600 0.008653 -0.011503
v 0.017560 0.008650 -0.011501
v 0.017600 0.008650 -0.011501
v 0.017600 0.008651 -0.011502
v 0.017560 0.008649 -0.011500
v 0.017600 0.008650 -0.011501
v 0.017560 0.008650 -0.011501
v 0.017560 0.008648 -0.011498
v 0.017600 0.008649 -0.011500
v 0.017560 0.008649 -0.011500
v 0.017600 0.008648 -0.011498
v 0.017600 0.008649 -0.011500
v 0.017560 0.008648 -0.011498
v 0.017560 0.008655 -0.011504
v 0.017600 0.008655 -0.011504
v 0.017560 0.008657 -0.011504
v 0.017600 0.008647 -0.011496
v 0.017560 0.008647 -0.011494
v 0.017600 0.008647 -0.011494
v 0.017560 0.008647 -0.011496
v 0.017560 0.008647 -0.011494
v 0.017600 0.008647 -0.011496
v 0.017560 0.008647 -0.011496
v 0.017600 0.008647 -0.011496
v 0.017600 0.008648 -0.011498
v 0.017560 0.008647 -0.011496
v 0.017600 0.008648 -0.011498
v 0.017560 0.008648 -0.011498
v 0.017560 0.008649 -0.011500
v 0.017600 0.008649 -0.011500
v 0.017600 0.008650 -0.011501
v 0.017560 0.008651 -0.011502
v 0.017560 0.008650 -0.011501
v 0.017600 0.008651 -0.011502
v 0.017600 0.008655 -0.011504
v 0.017600 0.008657 -0.011504
v 0.017560 0.008657 -0.011504
v 0.017560 0.008653 -0.011503
v 0.017600 0.008653 -0.011503
v 0.017600 0.008655 -0.011504
v 0.017560 0.008647 -0.011304
v 0.017560 0.008648 -0.011302
v 0.017600 0.008647 -0.011304
v 0.017560 0.008648 -0.011302
v 0.017560 0.008649 -0.011300
v 0.017600 0.008648 -0.011302
v 0.017560 0.008649 -0.011300
v 0.017600 0.008649 -0.011300
v 0.017600 0.008648 -0.011302
v 0.017560 0.008650 -0.011299
v 0.017600 0.008650 -0.011299
v 0.017600 0.008649 -0.011300
v 0.017560 0.008651 -0.011298
v 0.017600 0.008650 -0.011299
v 0.017560 0.008650 -0.011299
v 0.017560 0.008653 -0.011297
v 0.017600 0.008651 -0.011298
v 0.017560 0.008651 -0.011298
v 0.017600 0.008653 -0.011297
v 0.017600 0.008651 -0.011298
v 0.017560 0.008653 -0.011297
v 0.017560 0.008647 -0.011304
v 0.017600 0.008647 -0.011304
v 0.017560 0.008647 -0.011306
v 0.017600 0.008655 -0.011296
v 0.017560 0.008657 -0.011296
v 0.017600 0.008657 -0.011296
v 0.017560 0.008655 -0.011296
v 0.017560 0.008657 -0.011296
v 0.017600 0.008655 -0.011296
v 0.017560 0.008655 -0.011296
v 0.017600 0.008655 -0.011296
v 0.017600 0.008653 -0.011297
v 0.017560 0.008655 -0.011296
v 0.017600 0.008653 -0.011297
v 0.017560 0.008653 -0.011297
v 0.017560 0.008651 -0.011298
v 0.017600 0.008651 -0.011298
v 0.017600 0.008650 -0.011299
v 0.017560 0.008649 -0.011300
v 0.017560 0.008650 -0.011299
v 0.017600 0.008649 -0.011300
v 0.017600 0.008647 -0.011304
v 0.017600 0.008647 -0.011306
v 0.017560 0.008647 -0.011306
v 0.017560 0.008648 -0.011302
v 0.017600 0.008648 -0.011302
v 0.017600 0.008647 -0.011304
v 0.017560 0.008959 -0.011496
v 0.017560 0.008958 -0.011498
v 0.017600 0.008959 -0.011496
v 0.017560 0.008958 -0.011498
v 0.017560 0.008957 -0.011500
v 0.017600 0.008958 -0.011498
v 0.017560 0.008957 -0.011500
v 0.017600 0.008957 -0.011500
v 0.017600 0.008958 -0.011498
v 0.017560 0.008956 -0.011501
v 0.017600 0.008956 -0.011501
v 0.017600 0.008957 -0.011500
v 0.017560 0.008955 -0.011502
v 0.017600 0.008956 -0.011501
v 0.017560 0.008956 -0.011501
v 0.017560 0.008953 -0.011503
v 0.017600 0.008955 -0.011502
v 0.017560 0.008955 -0.011502
v 0.017600 0.008953 -0.011503
v 0.017600 0.008955 -0.011502
v 0.017560 0.008953 -0.011503
v 0.017560 0.008949 -0.011504
v 0.017600 0.008949 -0.011504
v 0.017600 0.008951 -0.011504
v 0.017560 0.008949 -0.011504
v 0.017600 0.008951 -0.011504
v 0.017560 0.008951 -0.011504
v 0.017600 0.008951 -0.011504
v 0.017600 0.008953 -0.011503
v 0.017560 0.008951 -0.011504
v 0.017560 0.008959 -0.011496
v 0.017600 0.008959 -0.011496
v 0.017560 0.008959 -0.011494
v 0.017560 0.008953 -0.011503
v 0.017560 0.008951 -0.011504
v 0.017600 0.008953 -0.011503
v 0.017600 0.008959 -0.011496
v 0.017600 0.008959 -0.011494
v 0.017560 0.008959 -0.011494
v 0.017600 0.008959 -0.011496
v 0.017560 0.008958 -0.011498
v 0.017600 0.008958 -0.011498
v 0.017560 0.008957 -0.011500
v 0.017560 0.008956 -0.011501
v 0.017600 0.008957 -0.011500
v 0.017560 0.008955 -0.011502
v 0.017600 0.008955 -0.011502
v 0.017600 0.008956 -0.011501
v 0.017560 0.008993 -0.011200
v 0.017577 0.008993 -0.011200
v 0.017575 0.008995 -0.011200
v 0.017560 0.008995 -0.011200
v 0.017560 0.008993 -0.011200
v 0.017575 0.008995 -0.011200
v 0.017573 0.008997 -0.011201
v 0.017560 0.008995 -0.011200
v 0.017575 0.008995 -0.011200
v 0.017573 0.008997 -0.011201
v 0.017560 0.008997 -0.011201
v 0.017560 0.008995 -0.011200
v 0.017573 0.008997 -0.011201
v 0.017571 0.008999 -0.011202
v 0.017560 0.008997 -0.011201
v 0.017560 0.008997 -0.011201
v 0.017571 0.008999 -0.011202
v 0.017560 0.008999 -0.011202
v 0.017560 0.008999 -0.011202
v 0.017570 0.009000 -0.011203
v 0.017560 0.009000 -0.011203
v 0.017560 0.009003 -0.011210
v 0.017560 0.009003 -0.011208
v 0.017560 0.009003 -0.011208
v 0.017567 0.009003 -0.011208
v 0.017560 0.009003 -0.011208
v 0.017560 0.009002 -0.011206
v 0.017567 0.009003 -0.011208
v 0.017567 0.009003 -0.011208
v 0.017560 0.009002 -0.011206
v 0.017568 0.009002 -0.011206
v 0.017568 0.009002 -0.011206
v 0.017560 0.009002 -0.011206
v 0.017560 0.009001 -0.011204
v 0.017569 0.009001 -0.011204
v 0.017568 0.009002 -0.011206
v 0.017560 0.009001 -0.011204
v 0.017560 0.009000 -0.011203
v 0.017569 0.009001 -0.011204
v 0.017560 0.009001 -0.011204
v 0.017560 0.009000 -0.011203
v 0.017570 0.009000 -0.011203
v 0.017569 0.009001 -0.011204
v 0.017570 0.009000 -0.011203
v 0.017560 0.008999 -0.011202
v 0.017571 0.008999 -0.011202
v 0.017560 0.008603 -0.011210
v 0.017560 0.008603 -0.011208
v 0.017560 0.008603 -0.011208
v 0.017567 0.008603 -0.011208
v 0.017560 0.008604 -0.011206
v 0.017560 0.008603 -0.011208
v 0.017567 0.008603 -0.011208
v 0.017568 0.008604 -0.011206
v 0.017560 0.008604 -0.011206
v 0.017567 0.008603 -0.011208
v 0.017568 0.008604 -0.011206
v 0.017560 0.008605 -0.011204
v 0.017560 0.008604 -0.011206
v 0.017568 0.008604 -0.011206
v 0.017569 0.008605 -0.011204
v 0.017560 0.008605 -0.011204
v 0.017560 0.008605 -0.011204
v 0.017569 0.008605 -0.011204
v 0.017560 0.008606 -0.011203
v 0.017560 0.008606 -0.011203
v 0.017569 0.008605 -0.011204
v 0.017570 0.008606 -0.011203
v 0.017560 0.008607 -0.011202
v 0.017560 0.008606 -0.011203
v 0.017570 0.008606 -0.011203
v 0.017577 0.008613 -0.011200
v 0.017560 0.008613 -0.011200
v 0.017575 0.008611 -0.011200
v 0.017575 0.008611 -0.011200
v 0.017560 0.008613 -0.011200
v 0.017560 0.008611 -0.011200
v 0.017573 0.008609 -0.011201
v 0.017575 0.008611 -0.011200
v 0.017560 0.008611 -0.011200
v 0.017571 0.008607 -0.011202
v 0.017560 0.008609 -0.011201
v 0.017560 0.008607 -0.011202
v 0.017571 0.008607 -0.011202
v 0.017573 0.008609 -0.011201
v 0.017560 0.008609 -0.011201
v 0.017570 0.008606 -0.011203
v 0.017571 0.008607 -0.011202
v 0.017560 0.008607 -0.011202
v 0.017573 0.008609 -0.011201
v 0.017560 0.008611 -0.011200
v 0.017560 0.008609 -0.011201
v 0.017560 0.008951 -0.011296
v 0.017600 0.008951 -0.011296
v 0.017560 0.008949 -0.011296
v 0.017560 0.008953 -0.011297
v 0.017600 0.008951 -0.011296
v 0.017560 0.008951 -0.011296
v 0.017560 0.008955 -0.011298
v 0.017600 0.008953 -0.011297
v 0.017560 0.008953 -0.011297
v 0.017600 0.008955 -0.011298
v 0.017600 0.008953 -0.011297
v 0.017560 0.008955 -0.011298
v 0.017600 0.008956 -0.011299
v 0.017600 0.008955 -0.011298
v 0.017560 0.008956 -0.011299
v 0.017600 0.008956 -0.011299
v 0.017560 0.008956 -0.011299
v 0.017560 0.008957 -0.011300
v 0.017600 0.008957 -0.011300
v 0.017560 0.008957 -0.011300
v 0.017560 0.008958 -0.011302
v 0.017600 0.008959 -0.011306
v 0.017600 0.008959 -0.011304
v 0.017560 0.008959 -0.011306
v 0.017600 0.008959 -0.011304
v 0.017560 0.008959 -0.011304
v 0.017560 0.008959 -0.011306
v 0.017600 0.008958 -0.011302
v 0.017560 0.008959 -0.011304
v 0.017600 0.008959 -0.011304
v 0.017560 0.008958 -0.011302
v 0.017560 0.008959 -0.011304
v 0.017600 0.008958 -0.011302
v 0.017560 0.008958 -0.011302
v 0.017600 0.008958 -0.011302
v 0.017600 0.008957 -0.011300
v 0.017560 0.008957 -0.011300
v 0.017600 0.008957 -0.011300
v 0.017600 0.008956 -0.011299
v 0.017560 0.008955 -0.011298
v 0.017560 0.008956 -0.011299
v 0.017600 0.008955 -0.011298
v 0.017600 0.008951 -0.011296
v 0.017600 0.008949 -0.011296
v 0.017560 0.008949 -0.011296
v 0.017560 0.008953 -0.011297
v 0.017600 0.008953 -0.011297
v 0.017600 0.008951 -0.011296
v 0.017560 0.008993 -0.011357
v 0.017575 0.008995 -0.011357
v 0.017577 0.008993 -0.011357
v 0.017560 0.008993 -0.011357
v 0.017560 0.008995 -0.011357
v 0.017575 0.008995 -0.011357
v 0.017575 0.008995 -0.011357
v 0.017560 0.008995 -0.011357
v 0.017573 0.008997 -0.011356
v 0.017573 0.008997 -0.011356
v 0.017560 0.008995 -0.011357
v 0.017560 0.008997 -0.011356
v 0.017560 0.008999 -0.011355
v 0.017560 0.009000 -0.011354
v 0.017570 0.009000 -0.011354
v 0.017571 0.008999 -0.011355
v 0.017560 0.008997 -0.011356
v 0.017560 0.008999 -0.011355
v 0.017560 0.009000 -0.011354
v 0.017560 0.009001 -0.011353
v 0.017569 0.009001 -0.011353
v 0.017571 0.008999 -0.011355
v 0.017573 0.008997 -0.011356
v 0.017560 0.008997 -0.011356
v 0.017560 0.009003 -0.011349
v 0.017560 0.009003 -0.011347
v 0.017567 0.009003 -0.011349
v 0.017560 0.009003 -0.011349
v 0.017567 0.009003 -0.011349
v 0.017560 0.009002 -0.011351
v 0.017560 0.009003 -0.011349
v 0.017567 0.009003 -0.011349
v 0.017568 0.009002 -0.011351
v 0.017560 0.009002 -0.011351
v 0.017560 0.009002 -0.011351
v 0.017568 0.009002 -0.011351
v 0.017560 0.009001 -0.011353
v 0.017560 0.009001 -0.011353
v 0.017568 0.009002 -0.011351
v 0.017569 0.009001 -0.011353
v 0.017560 0.009000 -0.011354
v 0.017569 0.009001 -0.011353
v 0.017570 0.009000 -0.011354
v 0.017570 0.009000 -0.011354
v 0.017571 0.008999 -0.011355
v 0.017560 0.008999 -0.011355
v 0.017510 0.008773 -0.011380
v 0.017510 0.008773 -0.011420
v 0.017560 0.008773 -0.011380
v 0.017560 0.008773 -0.011420
v 0.017560 0.008773 -0.011380
v 0.017470 0.008780 -0.011380
v 0.017510 0.008773 -0.011380
v 0.017470 0.008783 -0.011380
v 0.017510 0.008773 -0.011380
v 0.017560 0.008783 -0.011380
v 0.017560 0.008773 -0.011380
v 0.017560 0.008783 -0.011380
v 0.017510 0.008773 -0.011380
v 0.017510 0.008783 -0.011370
v 0.017560 0.008783 -0.011380
v 0.017560 0.008783 -0.011370
v 0.017470 0.008783 -0.011380
v 0.017560 0.008783 -0.011380
v 0.017470 0.008783 -0.011380
v 0.017470 0.008783 -0.011377
v 0.017510 0.008823 -0.011370
v 0.017510 0.008783 -0.011370
v 0.017560 0.008823 -0.011370
v 0.017510 0.008783 -0.011370
v 0.017560 0.008783 -0.011370
v 0.017560 0.008823 -0.011370
v 0.017470 0.008823 -0.011377
v 0.017510 0.008823 -0.011370
v 0.017470 0.008823 -0.011380
v 0.017510 0.008823 -0.011370
v 0.017560 0.008823 -0.011380
v 0.017560 0.008823 -0.011370
v 0.017560 0.008823 -0.011380
v 0.017510 0.008823 -0.011370
v 0.017510 0.008833 -0.011380
v 0.017560 0.008823 -0.011380
v 0.017560 0.008833 -0.011380
v 0.017470 0.008823 -0.011380
v 0.017560 0.008823 -0.011380
v 0.017470 0.008823 -0.011380
v 0.017470 0.008826 -0.011380
v 0.017510 0.008833 -0.011420
v 0.017510 0.008833 -0.011380
v 0.017560 0.008833 -0.011420
v 0.017510 0.008833 -0.011380
v 0.017560 0.008833 -0.011380
v 0.017560 0.008833 -0.011420
v 0.017470 0.008826 -0.011420
v 0.017510 0.008833 -0.011420
v 0.017470 0.008823 -0.011420
v 0.017510 0.008833 -0.011420
v 0.017560 0.008823 -0.011420
v 0.017560 0.008833 -0.011420
v 0.017560 0.008823 -0.011420
v 0.017510 0.008833 -0.011420
v 0.017510 0.008823 -0.011430
v 0.017560 0.008823 -0.011420
v 0.017560 0.008823 -0.011430
v 0.017470 0.008823 -0.011420
v 0.017560 0.008823 -0.011420
v 0.017470 0.008823 -0.011420
v 0.017470 0.008823 -0.011423
v 0.017510 0.008783 -0.011430
v 0.017510 0.008823 -0.011430
v 0.017560 0.008783 -0.011430
v 0.017510 0.008823 -0.011430
v 0.017560 0.008823 -0.011430
v 0.017560 0.008783 -0.011430
v 0.017470 0.008783 -0.011423
v 0.017510 0.008783 -0.011430
v 0.017470 0.008783 -0.011420
v 0.017510 0.008783 -0.011430
v 0.017560 0.008783 -0.011420
v 0.017560 0.008783 -0.011430
v 0.017560 0.008783 -0.011420
v 0.017510 0.008783 -0.011430
v 0.017560 0.008807 -0.011420
v 0.017470 0.008807 -0.011420
v 0.017560 0.008803 -0.011420
v 0.017560 0.008811 -0.011418
v 0.017560 0.008814 -0.011417
v 0.017470 0.008811 -0.011418
v 0.017470 0.008814 -0.011417
v 0.017470 0.008817 -0.011414
v 0.017560 0.008817 -0.011414
v 0.017560 0.008820 -0.011411
v 0.017470 0.008820 -0.011411
v 0.017560 0.008821 -0.011408
v 0.017470 0.008821 -0.011408
v 0.017560 0.008823 -0.011404
v 0.017470 0.008823 -0.011404
v 0.017560 0.008823 -0.011400
v 0.017560 0.008823 -0.011396
v 0.017470 0.008823 -0.011400
v 0.017470 0.008823 -0.011396
v 0.017560 0.008821 -0.011392
v 0.017470 0.008821 -0.011392
v 0.017560 0.008820 -0.011389
v 0.017560 0.008817 -0.011386
v 0.017470 0.008820 -0.011389
v 0.017470 0.008817 -0.011386
v 0.017470 0.008814 -0.011383
v 0.017560 0.008814 -0.011383
v 0.017560 0.008811 -0.011382
v 0.017470 0.008811 -0.011382
v 0.017560 0.008807 -0.011380
v 0.017470 0.008807 -0.011380
v 0.017560 0.008803 -0.011380
v 0.017470 0.008803 -0.011380
v 0.017560 0.008799 -0.011380
v 0.017470 0.008799 -0.011380
v 0.017560 0.008795 -0.011382
v 0.017470 0.008795 -0.011382
v 0.017560 0.008792 -0.011383
v 0.017560 0.008783 -0.011400
v 0.017470 0.008783 -0.011400
v 0.017470 0.008783 -0.011396
v 0.017560 0.008783 -0.011404
v 0.017470 0.008783 -0.011404
v 0.017560 0.008785 -0.011408
v 0.017470 0.008785 -0.011408
v 0.017560 0.008786 -0.011411
v 0.017470 0.008786 -0.011411
v 0.017560 0.008789 -0.011414
v 0.017560 0.008792 -0.011417
v 0.017470 0.008789 -0.011414
v 0.017470 0.008792 -0.011417
v 0.017470 0.008795 -0.011418
v 0.017560 0.008795 -0.011418
v 0.017470 0.008799 -0.011420
v 0.017560 0.008799 -0.011420
v 0.017470 0.008803 -0.011420
v 0.017560 0.008783 -0.011396
v 0.017470 0.008785 -0.011392
v 0.017560 0.008785 -0.011392
v 0.017470 0.008786 -0.011389
v 0.017560 0.008786 -0.011389
v 0.017470 0.008789 -0.011386
v 0.017560 0.008789 -0.011386
v 0.017470 0.008792 -0.011383
v 0.017510 0.008773 -0.011420
v 0.017560 0.008783 -0.011420
v 0.017560 0.008773 -0.011420
v 0.017470 0.008783 -0.011420
v 0.017560 0.008783 -0.011420
v 0.017510 0.008773 -0.011420
v 0.017470 0.008783 -0.011420
v 0.017510 0.008773 -0.011420
v 0.017470 0.008780 -0.011420
v 0.017470 0.008803 -0.011423
v 0.017470 0.008803 -0.011420
v 0.017470 0.008807 -0.011420
v 0.017470 0.008780 -0.011380
v 0.017470 0.008783 -0.011380
v 0.017470 0.008786 -0.011389
v 0.017470 0.008780 -0.011420
v 0.017470 0.008785 -0.011408
v 0.017470 0.008786 -0.011411
v 0.017470 0.008795 -0.011418
v 0.017470 0.008799 -0.011420
v 0.017470 0.008783 -0.011423
v 0.017470 0.008792 -0.011417
v 0.017470 0.008795 -0.011418
v 0.017470 0.008823 -0.011423
v 0.017470 0.008811 -0.011418
v 0.017470 0.008814 -0.011417
v 0.017470 0.008826 -0.011400
v 0.017470 0.008821 -0.011408
v 0.017470 0.008823 -0.011404
v 0.017470 0.008826 -0.011420
v 0.017470 0.008820 -0.011411
v 0.017470 0.008821 -0.011408
v 0.017470 0.008826 -0.011380
v 0.017470 0.008821 -0.011392
v 0.017470 0.008820 -0.011389
v 0.017470 0.008803 -0.011377
v 0.017470 0.008811 -0.011382
v 0.017470 0.008807 -0.011380
v 0.017470 0.008823 -0.011377
v 0.017470 0.008814 -0.011383
v 0.017470 0.008811 -0.011382
v 0.017470 0.008783 -0.011377
v 0.017470 0.008795 -0.011382
v 0.017470 0.008792 -0.011383
v 0.017470 0.008783 -0.011380
v 0.017470 0.008792 -0.011383
v 0.017470 0.008789 -0.011386
v 0.017470 0.008783 -0.011380
v 0.017470 0.008789 -0.011386
v 0.017470 0.008786 -0.011389
v 0.017470 0.008799 -0.011420
v 0.017470 0.008803 -0.011420
v 0.017470 0.008783 -0.011423
v 0.017470 0.008795 -0.011418
v 0.017470 0.008786 -0.011411
v 0.017470 0.008783 -0.011420
v 0.017470 0.008780 -0.011420
v 0.017470 0.008792 -0.011417
v 0.017470 0.008783 -0.011423
v 0.017470 0.008783 -0.011420
v 0.017470 0.008789 -0.011414
v 0.017470 0.008792 -0.011417
v 0.017470 0.008783 -0.011420
v 0.017470 0.008786 -0.011411
v 0.017470 0.008789 -0.011414
v 0.017470 0.008783 -0.011420
v 0.017470 0.008785 -0.011408
v 0.017470 0.008780 -0.011420
v 0.017470 0.008780 -0.011400
v 0.017470 0.008783 -0.011404
v 0.017470 0.008785 -0.011408
v 0.017470 0.008783 -0.011396
v 0.017470 0.008783 -0.011400
v 0.017470 0.008780 -0.011380
v 0.017470 0.008785 -0.011392
v 0.017470 0.008785 -0.011392
v 0.017470 0.008783 -0.011396
v 0.017470 0.008786 -0.011389
v 0.017470 0.008785 -0.011392
v 0.017470 0.008780 -0.011380
v 0.017470 0.008792 -0.011383
v 0.017470 0.008783 -0.011380
v 0.017470 0.008783 -0.011377
v 0.017470 0.008783 -0.011400
v 0.017470 0.008783 -0.011404
v 0.017470 0.008799 -0.011380
v 0.017470 0.008795 -0.011382
v 0.017470 0.008807 -0.011380
v 0.017470 0.008803 -0.011380
v 0.017470 0.008823 -0.011377
v 0.017470 0.008811 -0.011382
v 0.017470 0.008820 -0.011389
v 0.017470 0.008823 -0.011380
v 0.017470 0.008826 -0.011380
v 0.017470 0.008814 -0.011383
v 0.017470 0.008823 -0.011377
v 0.017470 0.008823 -0.011380
v 0.017470 0.008817 -0.011386
v 0.017470 0.008814 -0.011383
v 0.017470 0.008823 -0.011380
v 0.017470 0.008820 -0.011389
v 0.017470 0.008817 -0.011386
v 0.017470 0.008823 -0.011380
v 0.017470 0.008821 -0.011392
v 0.017470 0.008826 -0.011380
v 0.017470 0.008823 -0.011396
v 0.017470 0.008821 -0.011392
v 0.017470 0.008823 -0.011404
v 0.017470 0.008823 -0.011400
v 0.017470 0.008826 -0.011420
v 0.017470 0.008821 -0.011408
v 0.017470 0.008814 -0.011417
v 0.017470 0.008823 -0.011420
v 0.017470 0.008823 -0.011423
v 0.017470 0.008820 -0.011411
v 0.017470 0.008826 -0.011420
v 0.017470 0.008823 -0.011420
v 0.017470 0.008817 -0.011414
v 0.017470 0.008820 -0.011411
v 0.017470 0.008823 -0.011420
v 0.017470 0.008814 -0.011417
v 0.017470 0.008817 -0.011414
v 0.017470 0.008823 -0.011420
v 0.017470 0.008811 -0.011418
v 0.017470 0.008823 -0.011423
v 0.017470 0.008803 -0.011380
v 0.017470 0.008799 -0.011380
v 0.017470 0.008807 -0.011420
v 0.017470 0.008811 -0.011418
v 0.017470 0.008795 -0.011382
v 0.017470 0.008783 -0.011377
v 0.017470 0.008823 -0.011400
v 0.017470 0.008823 -0.011396
v 0.017560 0.008811 -0.011418
v 0.017560 0.008807 -0.011420
v 0.017560 0.008803 -0.011420
v 0.017560 0.008814 -0.011417
v 0.017560 0.008811 -0.011418
v 0.017560 0.008803 -0.011420
v 0.017560 0.008817 -0.011414
v 0.017560 0.008814 -0.011417
v 0.017560 0.008803 -0.011420
v 0.017560 0.008820 -0.011411
v 0.017560 0.008817 -0.011414
v 0.017560 0.008803 -0.011420
v 0.017560 0.008821 -0.011408
v 0.017560 0.008803 -0.011420
v 0.017560 0.008823 -0.011404
v 0.017560 0.008821 -0.011408
v 0.017560 0.008820 -0.011411
v 0.017560 0.008803 -0.011420
v 0.017560 0.008823 -0.011404
v 0.017560 0.008803 -0.011420
v 0.017560 0.008823 -0.011400
v 0.017560 0.008823 -0.011400
v 0.017560 0.008803 -0.011420
v 0.017560 0.008823 -0.011396
v 0.017560 0.008803 -0.011420
v 0.017560 0.008821 -0.011392
v 0.017560 0.008823 -0.011396
v 0.017560 0.008803 -0.011420
v 0.017560 0.008820 -0.011389
v 0.017560 0.008821 -0.011392
v 0.017560 0.008803 -0.011420
v 0.017560 0.008817 -0.011386
v 0.017560 0.008820 -0.011389
v 0.017560 0.008811 -0.011382
v 0.017560 0.008814 -0.011383
v 0.017560 0.008803 -0.011420
v 0.017560 0.008803 -0.011420
v 0.017560 0.008814 -0.011383
v 0.017560 0.008817 -0.011386
v 0.017560 0.008807 -0.011380
v 0.017560 0.008803 -0.011420
v 0.017560 0.008803 -0.011380
v 0.017560 0.008803 -0.011380
v 0.017560 0.008803 -0.011420
v 0.017560 0.008799 -0.011380
v 0.017560 0.008803 -0.011420
v 0.017560 0.008795 -0.011382
v 0.017560 0.008799 -0.011380
v 0.017560 0.008803 -0.011420
v 0.017560 0.008792 -0.011383
v 0.017560 0.008795 -0.011382
v 0.017560 0.008803 -0.011420
v 0.017560 0.008789 -0.011386
v 0.017560 0.008792 -0.011383
v 0.017560 0.008785 -0.011392
v 0.017560 0.008786 -0.011389
v 0.017560 0.008803 -0.011420
v 0.017560 0.008803 -0.011420
v 0.017560 0.008786 -0.011389
v 0.017560 0.008789 -0.011386
v 0.017560 0.008783 -0.011396
v 0.017560 0.008785 -0.011392
v 0.017560 0.008803 -0.011420
v 0.017560 0.008783 -0.011400
v 0.017560 0.008783 -0.011396
v 0.017560 0.008803 -0.011420
v 0.017560 0.008783 -0.011400
v 0.017560 0.008803 -0.011420
v 0.017560 0.008783 -0.011404
v 0.017560 0.008783 -0.011404
v 0.017560 0.008803 -0.011420
v 0.017560 0.008785 -0.011408
v 0.017560 0.008785 -0.011408
v 0.017560 0.008803 -0.011420
v 0.017560 0.008786 -0.011411
v 0.017560 0.008803 -0.011420
v 0.017560 0.008792 -0.011417
v 0.017560 0.008789 -0.011414
v 0.017560 0.008786 -0.011411
v 0.017560 0.008803 -0.011420
v 0.017560 0.008789 -0.011414
v 0.017560 0.008803 -0.011420
v 0.017560 0.008795 -0.011418
v 0.017560 0.008792 -0.011417
v 0.017560 0.008803 -0.011420
v 0.017560 0.008807 -0.011380
v 0.017560 0.008811 -0.011382
v 0.017560 0.008799 -0.011420
v 0.017560 0.008795 -0.011418
v 0.017560 0.008803 -0.011420
v 0.017470 0.008803 -0.011377
v 0.017470 0.008783 -0.011377
v 0.017510 0.008783 -0.011370
v 0.017470 0.008823 -0.011377
v 0.017470 0.008803 -0.011377
v 0.017470 0.008803 -0.011377
v 0.017510 0.008783 -0.011370
v 0.017470 0.008826 -0.011400
v 0.017470 0.008826 -0.011380
v 0.017510 0.008833 -0.011380
v 0.017470 0.008826 -0.011420
v 0.017470 0.008826 -0.011400
v 0.017470 0.008826 -0.011400
v 0.017510 0.008833 -0.011380
v 0.017470 0.008803 -0.011423
v 0.017470 0.008823 -0.011423
v 0.017510 0.008823 -0.011430
v 0.017470 0.008783 -0.011423
v 0.017470 0.008803 -0.011423
v 0.017470 0.008803 -0.011423
v 0.017510 0.008823 -0.011430
v 0.017470 0.008780 -0.011400
v 0.017470 0.008780 -0.011420
v 0.017470 0.008780 -0.011380
v 0.017470 0.008780 -0.011400
v 0.017470 0.008780 -0.011400
v 0.017530 0.008763 -0.011222
v 0.017560 0.008803 -0.011222
v 0.017530 0.008843 -0.011222
v 0.017560 0.008803 -0.011222
v 0.017560 0.008843 -0.011222
v 0.017560 0.008803 -0.011222
v 0.017560 0.008763 -0.011222
v 0.017530 0.008763 -0.011242
v 0.017560 0.008763 -0.011242
v 0.017530 0.008763 -0.011222
v 0.017530 0.008763 -0.011222
v 0.017560 0.008763 -0.011242
v 0.017560 0.008763 -0.011222
v 0.017530 0.008843 -0.011242
v 0.017560 0.008843 -0.011242
v 0.017530 0.008763 -0.011242
v 0.017530 0.008763 -0.011242
v 0.017560 0.008843 -0.011242
v 0.017560 0.008763 -0.011242
v 0.017530 0.008843 -0.011222
v 0.017560 0.008843 -0.011222
v 0.017530 0.008843 -0.011242
v 0.017530 0.008843 -0.011242
v 0.017560 0.008843 -0.011222
v 0.017560 0.008843 -0.011242
v 0.017530 0.008843 -0.011222
v 0.017530 0.008843 -0.011242
v 0.017530 0.008763 -0.011222
v 0.017530 0.008843 -0.011242
v 0.017530 0.008763 -0.011242
v 0.017530 0.008763 -0.011222
v 0.017600 0.008803 -0.011598
v 0.017573 0.008803 -0.011595
v 0.017600 0.008970 -0.011598
v 0.017600 0.008636 -0.011598
v 0.017573 0.008609 -0.011595
v 0.017600 0.008636 -0.011598
v 0.017600 0.008803 -0.011598
v 0.017573 0.008997 -0.011595
v 0.017600 0.008970 -0.011598
v 0.017573 0.008997 -0.011600
v 0.017573 0.008803 -0.011595
v 0.017573 0.008803 -0.011600
v 0.017573 0.008997 -0.011600
v 0.017573 0.008997 -0.011595
v 0.017573 0.008803 -0.011595
v 0.017573 0.008609 -0.011600
v 0.017573 0.008803 -0.011595
v 0.017573 0.008609 -0.011595
v 0.017573 0.008803 -0.011595
v 0.017573 0.008609 -0.011600
v 0.017573 0.008803 -0.011600
vn 1.0000 -0.0000 -0.0000
vn 1.0000 0.0002 -0.0000
vn 1.0000 -0.0002 -0.0000
vn 1.0000 -0.0001 -0.0000
vn 1.0000 0.0003 -0.0000
vn 1.0000 0.0001 -0.0000
vn 1.0000 -0.0003 -0.0000
vn 0.7071 0.7071 -0.0000
vn 0.7068 0.7074 -0.0000
vn 0.7070 0.7072 -0.0000
vn 0.7070 0.7072 0.0001
vn 0.7071 0.7072 -0.0000
vn -0.0000 -0.0000 -1.0000
vn 0.7070 -0.7072 -0.0000
vn 0.7071 -0.7071 -0.0000
vn 0.7070 -0.7072 -0.0001
vn 0.7068 -0.7074 -0.0002
vn 0.7071 -0.7072 -0.0000
vn 0.7070 -0.7072 -0.0002
vn 0.7069 -0.7073 -0.0000
vn -1.0000 -0.0000 -0.0000
vn -1.0000 -0.0001 -0.0000
vn -1.0000 0.0001 -0.0000
vn -1.0000 0.0002 -0.0000
vn -1.0000 0.0003 -0.0000
vn -1.0000 -0.0002 -0.0000
vn -0.0000 1.0000 -0.0000
vn 0.7073 0.7069 -0.0000
vn 0.7070 0.7073 -0.0001
vn 0.7071 0.7072 -0.0001
vn 0.7074 0.7068 0.0002
vn -0.0000 -1.0000 -0.0000
vn 0.7071 -0.7072 0.0002
vn 0.7073 -0.7069 -0.0000
vn 0.7072 -0.7071 -0.0000
vn 0.7072 -0.7071 0.0001
vn 0.7072 -0.7070 0.0001
vn 0.7068 -0.7074 -0.0000
vn 0.7072 -0.7071 -0.0001
vn -0.0000 -0.0000 1.0000
vn -0.0000 -0.0980 -0.9952
vn -0.0000 -0.1951 -0.9808
vn -0.0000 -0.2903 -0.9569
vn -0.0000 -0.1952 -0.9808
vn -0.0000 -0.3827 -0.9239
vn -0.0000 -0.4714 -0.8819
vn -0.0000 -0.5556 -0.8315
vn -0.0000 -0.5555 -0.8315
vn -0.0000 -0.6344 -0.7730
vn -0.0000 -0.7071 -0.7071
vn -0.0000 -0.7072 -0.7070
vn -0.0000 -0.7730 -0.6344
vn -0.0000 -0.8315 -0.5556
vn -0.0000 -0.8819 -0.4714
vn -0.0000 -0.9239 -0.3827
vn -0.0000 -0.9952 -0.0980
vn -0.0000 -0.9808 -0.1951
vn -0.0000 -0.9569 -0.2903
vn -0.0000 -0.8314 -0.5556
vn -0.0000 -0.5556 -0.8314
vn -0.0000 -0.9952 0.0980
vn -0.0000 -0.9808 0.1951
vn -0.0000 -0.9569 0.2903
vn -0.0000 -0.9239 0.3827
vn -0.0000 -0.8819 0.4714
vn -0.0000 -0.8315 0.5555
vn -0.0000 -0.7730 0.6344
vn -0.0000 -0.8314 0.5556
vn -0.0000 -0.7071 0.7071
vn -0.0000 -0.6344 0.7730
vn -0.0000 -0.5556 0.8314
vn -0.0000 -0.5556 0.8315
vn -0.0000 -0.4714 0.8819
vn -0.0000 -0.3827 0.9239
vn -0.0000 -0.0980 0.9952
vn -0.0000 -0.1951 0.9808
vn -0.0000 -0.2903 0.9569
vn -0.0000 -0.5555 0.8315
vn -0.0000 -0.7072 0.7070
vn -0.0000 -0.8315 0.5556
vn -0.0000 0.0980 -0.9952
vn -0.0000 0.1951 -0.9808
vn -0.0000 0.2903 -0.9569
vn -0.0000 0.3827 -0.9239
vn -0.0000 0.4714 -0.8819
vn -0.0000 0.5555 -0.8315
vn -0.0000 0.5556 -0.8315
vn -0.0000 0.5556 -0.8314
vn -0.0000 0.6344 -0.7730
vn -0.0000 0.7730 -0.6344
vn -0.0000 0.8315 -0.5556
vn -0.0000 0.8819 -0.4714
vn -0.0000 1.0000 -0.0001
vn -0.0000 0.9952 -0.0980
vn -0.0000 0.9808 -0.1951
vn -0.0000 0.9569 -0.2903
vn -0.0000 0.9569 -0.2904
vn -0.0000 0.9239 -0.3827
vn -0.0000 0.7072 -0.7070
vn -0.0000 0.7070 -0.7072
vn -0.0000 0.7071 -0.7071
vn -0.0000 0.9952 0.0980
vn -0.0000 1.0000 0.0001
vn -0.0000 0.9808 0.1951
vn -0.0000 0.9569 0.2903
vn -0.0000 0.9239 0.3827
vn -0.0000 0.8819 0.4714
vn -0.0000 0.8315 0.5555
vn -0.0000 0.7730 0.6344
vn -0.0000 0.8314 0.5556
vn -0.0000 0.7072 0.7070
vn -0.0000 0.7071 0.7071
vn -0.0000 0.6344 0.7730
vn -0.0000 0.5556 0.8314
vn -0.0000 0.5556 0.8315
vn -0.0000 0.4714 0.8819
vn -0.0000 0.3827 0.9239
vn -0.0000 0.0980 0.9952
vn -0.0000 0.1951 0.9808
vn -0.0000 0.2903 0.9569
vn -0.0000 0.7069 0.7073
vn -0.0000 0.8315 0.5556
vn -0.0000 0.9808 0.1950
vn -0.0000 0.9808 0.1952
vn -0.0000 0.7068 0.7074
vn -0.0000 0.8314 0.5557
vn -0.0000 0.1950 0.9808
vn -0.0000 0.3826 0.9239
vn -0.0000 0.5555 0.8315
vn -0.0000 -0.1950 0.9808
vn -0.0000 -0.3826 0.9239
vn -0.0000 -0.7068 0.7074
vn -0.0000 -0.8314 0.5557
vn -0.0000 -0.9808 0.1950
vn -0.0000 -0.9808 0.1952
vn -0.0000 -0.7074 0.7068
vn -0.0000 -0.7069 0.7073
vn -0.0000 -0.9808 -0.1950
vn -0.0000 -0.9808 -0.1952
vn -0.0000 -0.8315 -0.5555
vn -0.0000 -0.7068 -0.7074
vn -0.0000 -0.8314 -0.5557
vn -0.0000 -0.7069 -0.7074
vn -0.0000 -0.7074 -0.7068
vn -0.0000 -0.1950 -0.9808
vn -0.0000 -0.3826 -0.9239
vn -0.0000 -0.7070 -0.7072
vn -0.0000 0.7070 0.7072
vn -0.0000 0.9239 0.3826
vn -0.0000 0.5557 0.8314
vn -0.0000 0.9808 -0.1952
vn -0.0000 0.9239 -0.3826
vn -0.0000 0.8315 -0.5555
vn -0.0000 0.8314 -0.5557
vn -0.0000 0.5557 -0.8314
vn -0.0000 0.9808 -0.1950
vn -0.0000 0.1950 -0.9808
vn -0.0000 0.3826 -0.9239
vn -0.0000 -0.9239 0.3826
vn -0.0000 -0.7070 0.7072
vn -0.0000 -0.1952 0.9808
vn -0.0000 0.1952 0.9808
vn -0.0000 -0.5557 -0.8314
vn -0.0000 -0.9239 -0.3826
vn -0.0000 0.1952 -0.9808
vn -0.0000 0.7074 -0.7069
vn -0.0000 0.7068 -0.7074
vn -0.0000 0.8314 -0.5556
vn -0.0000 -1.0000 -0.0001
vn -0.0000 -1.0000 0.0001
vn -0.0000 -0.3828 0.9238
vn -0.0000 -0.7072 0.7071
vn -0.0000 -0.9238 0.3828
vn -0.0000 -0.9238 -0.3828
vn -0.0000 -0.7071 -0.7072
vn -0.0000 0.3828 -0.9238
vn -0.0000 0.9238 0.3828
vn -0.0000 0.3829 0.9238
vn -0.0000 0.9238 -0.3828
vn -0.1723 -0.0000 0.9850
vn -0.0001 -0.0000 1.0000
vn -0.1724 -0.0000 0.9850
vn -0.1724 0.9850 -0.0000
vn -0.1724 -0.0000 -0.9850
vn -0.1724 -0.9850 -0.0000
vn -0.1105 -0.0000 -0.9939
s 1
usemtl Diffuse_51_51_51_100.031
f 1//1 2//1 3//1
f 4//1 5//2 6//1
f 7//1 8//1 9//3
f 10//1 11//1 12//1
f 13//1 14//1 15//1
f 3//1 16//1 1//1
f 3//1 2//1 17//1
f 18//4 13//1 1//1
f 19//1 1//1 16//1
f 20//1 1//1 19//1
f 21//1 1//1 20//1
f 22//1 1//1 21//1
f 23//1 1//1 22//1
f 1//1 23//1 24//5
f 1//1 24//5 25//1
f 1//1 25//1 26//1
f 1//1 26//1 18//4
f 13//1 18//4 27//1
f 13//1 27//1 28//6
f 13//1 28//6 29//4
f 13//1 29//4 30//4
f 13//1 30//4 14//1
f 31//1 14//1 32//1
f 14//1 33//1 32//1
f 34//1 35//1 36//1
f 33//1 35//1 34//1
f 36//1 37//1 38//1
f 38//1 39//1 40//1
f 39//1 41//1 40//1
f 41//1 42//1 43//1
f 42//1 44//1 43//1
f 45//1 46//1 47//1
f 45//1 47//1 48//1
f 48//1 49//1 50//1
f 51//1 50//1 49//1
f 52//1 53//1 51//1
f 54//1 53//1 52//1
f 55//1 54//1 56//1
f 55//1 56//1 57//1
f 58//1 57//1 59//1
f 60//1 61//1 62//1
f 61//1 59//1 62//1
f 60//1 62//1 63//1
f 58//1 59//1 61//1
f 64//1 65//1 66//1
f 67//1 65//1 64//1
f 68//1 69//1 70//1
f 69//1 71//1 70//1
f 72//1 4//1 68//1
f 68//1 73//1 74//1
f 75//1 4//1 72//1
f 76//1 73//1 68//1
f 77//1 4//1 75//1
f 78//1 4//1 77//1
f 79//1 4//1 78//1
f 80//3 4//1 79//1
f 4//1 80//3 81//7
f 76//1 68//1 82//1
f 4//1 83//4 84//1
f 85//1 86//1 63//1
f 85//1 65//1 67//1
f 85//1 67//1 86//1
f 63//1 86//1 60//1
f 5//2 4//1 87//1
f 9//3 88//1 7//1
f 9//3 8//1 89//1
f 90//6 91//1 7//1
f 92//1 7//1 88//1
f 93//1 7//1 92//1
f 94//1 7//1 93//1
f 95//1 7//1 94//1
f 96//4 7//1 95//1
f 7//1 96//4 97//1
f 7//1 97//1 98//1
f 7//1 98//1 99//1
f 7//1 99//1 90//6
f 91//1 90//6 100//1
f 91//1 100//1 101//4
f 91//1 101//4 102//6
f 91//1 102//6 103//6
f 91//1 103//6 69//1
f 91//1 69//1 68//1
f 70//1 82//1 68//1
f 4//1 81//7 83//4
f 84//1 87//1 4//1
f 6//1 5//2 104//1
f 66//1 70//1 71//1
f 66//1 71//1 64//1
f 32//1 33//1 34//1
f 57//1 58//1 55//1
f 56//1 54//1 52//1
f 51//1 53//1 50//1
f 47//1 49//1 48//1
f 105//1 46//1 45//1
f 44//1 42//1 106//1
f 44//1 106//1 105//1
f 43//1 40//1 41//1
f 39//1 38//1 37//1
f 37//1 36//1 35//1
f 107//1 31//1 32//1
f 108//1 31//1 107//1
f 109//1 31//1 108//1
f 31//1 109//1 110//1
f 31//1 111//6 10//1
f 111//6 112//1 10//1
f 113//1 10//1 114//1
f 10//1 115//1 114//1
f 116//1 10//1 113//1
f 117//2 10//1 116//1
f 10//1 117//2 118//6
f 10//1 118//6 119//6
f 112//1 115//1 10//1
f 31//1 110//1 111//6
f 74//1 72//1 68//1
f 120//1 10//1 119//6
f 106//1 46//1 105//1
f 11//1 10//1 120//1
f 11//1 121//1 12//1
f 15//1 14//1 31//1
f 122//8 123//9 124//10
f 124//10 123//9 125//11
f 126//8 122//8 124//10
f 124//10 127//8 128//8
f 129//12 130//8 124//10
f 124//10 130//8 127//8
f 131//10 129//12 124//10
f 124//8 132//8 133//10
f 133//8 134//8 135//8
f 133//10 136//8 137//10
f 124//8 133//10 137//10
f 126//8 124//10 128//8
f 138//8 124//8 139//8
f 140//13 141//13 142//13
f 141//13 140//13 143//13
f 143//13 144//13 145//13
f 143//13 146//13 147//13
f 143//13 145//13 141//13
f 148//14 149//14 150//15
f 149//14 151//15 150//15
f 150//15 152//15 153//15
f 154//14 150//16 155//17
f 154//14 156//15 150//16
f 150//16 157//18 158//15
f 150//16 159//15 157//18
f 160//15 150//16 158//15
f 155//17 150//16 161//19
f 162//15 149//15 163//15
f 164//14 150//16 160//15
f 159//15 150//16 156//15
f 149//20 165//20 166//20
f 167//21 168//21 169//21
f 170//21 171//22 172//21
f 170//21 173//21 174//21
f 175//21 176//21 177//23
f 178//21 179//21 180//21
f 180//21 179//21 181//21
f 182//23 183//21 176//21
f 184//21 181//21 185//21
f 186//21 184//21 187//21
f 181//21 184//21 180//21
f 188//21 189//21 184//21
f 185//21 190//21 184//21
f 174//21 191//21 192//22
f 193//23 170//21 192//22
f 184//21 194//21 180//21
f 195//24 196//21 197//25
f 198//21 195//24 197//25
f 199//21 198//21 197//25
f 200//21 199//21 197//25
f 201//21 200//21 197//25
f 202//21 201//21 197//25
f 203//23 202//21 197//25
f 203//23 169//21 168//21
f 204//21 205//21 206//21
f 204//21 207//21 205//21
f 205//21 207//21 208//21
f 209//25 205//21 208//21
f 209//25 210//21 205//21
f 211//23 210//21 212//23
f 210//21 213//22 214//25
s 0
f 210//21 215//21 216//21
s 1
f 210//21 217//21 215//21
f 218//24 219//21 220//24
f 221//21 218//24 222//21
f 221//21 223//24 218//24
f 221//21 224//23 223//24
f 221//21 225//26 224//23
f 226//21 221//21 227//21
f 226//21 228//21 221//21
f 229//21 227//21 221//21
f 219//21 218//24 210//21
f 221//21 222//21 230//21
f 231//21 219//21 210//21
f 232//21 231//21 210//21
f 233//21 232//21 210//21
f 234//21 233//21 210//21
f 210//21 209//25 234//21
f 210//21 211//23 213//22
f 210//21 216//21 212//23
f 206//21 235//22 236//23
f 236//23 235//22 237//23
f 237//23 235//22 238//24
f 238//24 235//22 239//23
f 240//22 241//22 235//22
f 235//22 241//22 242//21
f 243//24 235//22 244//21
f 244//21 235//22 172//21
f 172//21 235//22 170//21
f 170//21 235//22 176//21
f 176//21 235//22 177//23
f 171//22 170//21 245//21
f 174//21 192//22 170//21
f 176//21 179//21 178//21
f 246//21 186//21 191//21
f 190//21 188//21 184//21
f 191//21 186//21 247//21
f 189//21 248//23 184//21
f 249//21 247//21 186//21
f 187//21 184//21 248//23
f 170//21 193//23 250//21
f 186//21 251//21 252//26
f 253//21 186//21 252//26
f 186//21 254//21 251//21
f 253//21 249//21 186//21
f 255//21 256//21 257//21
f 258//21 255//21 257//21
f 259//21 260//21 261//21
f 261//21 260//21 262//21
f 263//21 264//21 265//21
f 266//21 267//21 268//21
f 269//24 270//24 271//24
f 268//21 272//21 273//21
f 273//21 274//21 275//21
f 275//21 276//21 277//21
f 277//21 278//21 279//21
f 279//21 280//21 281//21
f 263//21 259//21 282//21
f 283//21 281//21 284//21
f 285//21 283//24 286//21
f 287//21 259//21 261//21
f 288//21 254//21 187//21
f 288//21 258//21 257//21
f 288//21 187//21 258//21
f 254//21 186//21 187//21
f 246//21 289//21 186//21
f 206//21 236//23 204//21
f 256//21 255//21 262//21
f 239//23 235//22 242//21
f 260//21 256//21 262//21
f 214//25 205//21 210//21
f 176//21 290//21 291//22
f 221//21 228//21 225//26
f 292//21 293//21 294//21
f 292//21 285//21 293//21
f 285//21 295//22 293//21
f 220//24 222//21 218//24
f 296//21 285//21 297//21
f 298//22 299//26 300//21
f 301//22 298//22 302//21
f 301//22 303//22 298//22
f 301//22 304//21 303//22
f 301//22 305//23 304//21
f 306//22 301//22 307//21
f 306//22 308//21 301//22
s 0
f 309//21 307//21 301//21
s 1
f 299//26 298//22 310//21
f 301//22 302//21 311//21
f 312//21 299//21 313//21
f 314//21 312//21 315//21
f 316//21 314//21 317//21
f 318//21 316//21 319//21
f 320//21 321//21 318//21
f 322//21 323//21 324//21
f 325//21 326//21 323//21
f 327//26 328//26 329//26
f 330//21 331//21 328//21
f 332//24 287//24 331//24
f 333//21 334//21 287//21
f 335//21 266//21 270//21
f 285//21 336//21 283//24
f 337//21 259//21 287//21
f 285//21 292//21 336//21
f 285//21 338//21 295//22
f 285//21 339//23 338//21
f 285//21 340//21 341//26
s 0
f 285//21 296//21 340//21
s 1
f 341//26 339//23 285//21
f 246//21 191//21 174//21
f 245//21 170//21 250//21
f 291//22 179//21 176//21
f 183//21 290//21 176//21
f 176//21 178//21 342//21
f 343//23 344//26 177//23
f 177//23 344//26 345//21
f 346//21 343//23 177//23
f 347//22 346//21 177//23
f 175//21 177//23 345//21
f 177//23 348//23 347//22
f 177//23 349//22 348//23
f 177//23 350//22 349//22
f 169//21 351//22 177//23
f 169//21 352//21 351//22
f 169//21 203//23 352//21
f 352//21 203//23 353//21
f 354//21 355//22 197//25
f 203//23 355//22 356//21
f 357//21 197//25 358//21
f 357//21 354//21 197//25
f 358//21 197//25 359//21
f 359//21 197//25 360//21
f 360//21 197//25 361//23
f 353//21 203//23 356//21
f 362//26 361//23 363//21
f 177//23 351//22 350//22
f 363//21 364//21 365//21
f 361//23 366//21 364//21
f 367//22 271//22 265//22
f 182//23 176//21 175//21
f 368//21 324//21 321//21
f 369//26 329//26 326//26
f 370//21 366//21 361//23
f 371//21 361//23 372//22
f 371//21 370//21 361//23
f 372//22 361//23 373//21
f 308//21 305//23 301//22
f 361//23 364//21 363//21
f 300//21 302//21 298//22
f 374//24 361//23 375//21
f 197//25 355//22 203//23
f 167//21 206//21 168//21
f 240//22 235//22 243//24
f 168//21 206//21 205//21
f 361//23 362//26 360//21
f 373//21 361//23 374//24
f 376//27 377//27 378//27
f 379//27 377//27 380//27
f 381//27 382//27 383//27
f 384//27 385//27 386//27
f 387//8 388//8 389//8
f 390//8 391//8 392//8
f 393//12 394//12 395//12
f 396//8 397//8 398//8
f 398//28 399//28 400//28
f 401//8 402//8 400//8
f 403//8 404//8 405//8
f 406//8 404//8 402//8
f 407//10 403//10 408//10
f 409//29 396//29 393//29
f 410//8 411//8 412//8
f 413//30 414//30 415//30
f 416//11 417//11 415//11
f 416//8 418//8 419//8
f 420//8 421//8 422//8
f 423//31 418//31 424//31
f 425//9 426//9 427//9
f 427//8 428//8 422//8
f 429//12 424//12 421//12
f 430//32 431//32 432//32
f 433//32 431//32 434//32
f 435//15 436//15 437//15
f 438//15 439//15 440//15
f 441//33 442//33 443//33
f 444//15 445//15 446//15
f 446//34 447//34 448//34
f 449//15 450//15 448//15
f 451//15 452//15 453//35
f 454//36 452//37 450//36
f 455//38 451//38 456//38
f 457//15 444//15 441//15
f 458//15 459//15 460//15
f 461//39 462//39 463//39
f 464//16 465//16 463//16
f 464//15 466//15 467//15
f 468//15 469//15 470//15
f 471//15 466//15 472//15
f 473//14 474//14 475//14
f 475//15 476//35 470//15
f 477//15 472//15 469//15
f 478//40 479//40 480//40
f 481//40 482//40 483//40
f 484//40 485//40 486//40
f 487//40 488//40 489//40
f 490//40 491//40 492//40
f 493//32 494//32 495//32
f 496//32 497//32 498//32
f 499//32 500//32 501//32
f 502//32 503//32 504//32
f 505//41 506//42 507//41
f 508//42 509//43 510//42
f 511//43 512//43 513//44
f 514//45 515//45 516//43
f 517//46 518//45 519//45
f 520//47 521//46 522//46
f 523//48 524//46 525//48
f 526//49 527//47 528//49
f 529//49 530//49 531//50
f 532//51 533//51 534//52
f 535//50 536//52 537//52
f 538//52 539//53 540//53
f 541//53 542//54 543//53
f 544//54 545//55 546//54
f 547//55 548//55 549//54
f 550//41 551//41 552//13
f 553//56 554//32 555//32
f 556//56 557//32 558//56
f 559//56 560//56 561//57
f 562//56 563//57 564//57
f 565//57 566//58 567//57
f 568//58 569//58 570//57
f 571//55 572//58 573//58
f 574//55 575//58 576//55
f 577//53 578//54 579//54
f 580//52 581//52 582//59
f 583//50 584//49 585//50
f 586//49 587//60 588//60
f 589//46 590//46 591//45
f 592//43 593//45 594//43
f 595//41 596//13 597//13
f 598//42 599//42 600//41
f 601//13 602//13 603//13
f 604//13 605//13 606//13
f 607//27 608//27 609//27
f 610//27 611//27 612//27
f 613//27 614//27 615//27
f 616//27 617//27 618//27
f 619//40 620//40 621//40
f 622//40 623//40 624//40
f 625//61 626//62 627//61
f 628//62 629//63 630//62
f 631//63 632//63 633//62
f 634//64 635//64 636//63
f 637//65 638//64 639//64
f 640//66 641//65 642//65
f 643//66 644//65 645//66
f 646//67 647//68 648//67
f 649//67 650//67 651//69
f 652//69 653//69 654//70
f 655//69 656//70 657//70
f 658//70 659//71 660//71
f 661//72 662//73 663//72
f 664//73 665//74 666//73
f 667//74 668//74 669//73
f 670//61 671//61 672//32
f 673//75 674//40 675//40
f 676//75 677//40 678//75
f 679//75 680//75 681//76
f 682//75 683//76 684//76
f 685//76 686//77 687//76
f 688//77 689//77 690//76
f 691//74 692//77 693//77
f 694//74 695//77 696//74
f 697//78 698//73 699//73
f 700//70 701//70 702//71
f 703//79 704//67 705//79
f 706//67 707//80 708//80
f 709//65 710//65 711//64
f 712//63 713//64 714//63
f 715//61 716//32 717//32
f 718//62 719//62 720//61
f 721//13 722//13 723//13
f 724//13 725//13 726//13
f 727//13 728//13 729//13
f 730//40 731//40 732//40
f 733//40 734//40 735//40
f 736//40 737//40 738//40
f 739//27 740//27 741//27
f 742//27 743//27 744//27
f 745//13 746//81 747//13
f 748//81 749//81 750//13
f 751//82 752//81 753//81
f 754//82 755//81 756//82
f 757//82 758//82 759//83
f 760//82 761//83 762//83
f 763//83 764//84 765//83
f 766//84 767//84 768//83
f 769//85 770//84 771//84
f 772//85 773//84 774//85
f 775//85 776//85 777//86
f 778//85 779//87 780//87
f 781//88 782//89 783//88
f 784//89 785//89 786//88
f 787//90 788//91 789//91
f 790//91 791//91 792//92
f 793//93 794//94 795//93
f 796//94 797//94 798//27
f 799//95 800//94 801//94
f 802//95 803//94 804//95
f 805//95 806//95 807//96
f 808//95 809//96 810//96
f 811//97 812//98 813//96
f 814//98 815//98 816//96
f 817//92 818//98 819//98
f 820//92 821//98 822//92
f 823//92 824//92 825//91
f 826//91 827//90 828//90
f 829//90 830//99 831//90
f 832//100 833//100 834//90
f 835//89 836//101 837//101
f 838//89 839//89 840//101
f 841//13 842//13 843//13
f 844//13 845//13 846//13
f 847//32 848//32 849//32
f 850//32 851//32 852//32
f 853//32 854//32 855//32
f 856//32 857//32 858//32
f 859//40 860//40 861//40
f 862//40 863//40 864//40
f 865//27 866//102 867//103
f 868//102 869//104 870//102
f 871//104 872//104 873//102
f 874//105 875//105 876//104
f 877//106 878//106 879//105
f 880//107 881//106 882//106
f 883//108 884//107 885//107
f 886//108 887//107 888//108
f 889//109 890//110 891//109
f 892//109 893//109 894//111
f 895//112 896//112 897//113
f 898//112 899//113 900//113
f 901//113 902//114 903//114
f 904//115 905//116 906//115
f 907//116 908//117 909//116
f 910//117 911//117 912//116
f 913//118 914//40 915//40
f 916//118 917//40 918//118
f 919//118 920//118 921//119
f 922//118 923//119 924//119
f 925//119 926//120 927//119
f 928//120 929//120 930//119
f 931//117 932//120 933//120
f 934//117 935//120 936//117
f 937//115 938//116 939//116
f 940//113 941//113 942//115
f 943//121 944//109 945//121
f 946//109 947//122 948//122
f 949//107 950//107 951//106
f 952//105 953//106 954//105
f 955//102 956//27 957//102
f 958//104 959//104 960//105
f 961//13 962//13 963//13
f 964//13 965//13 966//13
f 967//13 968//13 969//13
f 970//40 971//40 972//40
f 973//40 974//40 975//40
f 976//40 977//40 978//40
f 979//27 980//27 981//123
f 982//123 983//27 984//123
f 985//124 986//106 987//104
f 988//104 989//106 990//106
f 991//106 992//106 993//108
f 994//122 995//106 996//122
f 997//125 998//126 999//126
f 1000//114 1001//111 1002//111
f 1003//112 1004//112 1005//110
f 1006//127 1007//40 1008//40
f 1009//127 1010//127 1011//40
f 1012//119 1013//128 1014//119
f 1015//119 1016//128 1017//128
f 1018//117 1019//117 1020//115
f 1021//129 1022//117 1023//129
f 1024//121 1025//114 1026//114
f 1027//40 1028//130 1029//40
f 1030//40 1031//130 1032//130
f 1033//76 1034//76 1035//131
f 1036//131 1037//76 1038//131
f 1039//71 1040//69 1041//69
f 1042//78 1043//74 1044//78
f 1045//132 1046//133 1047//133
f 1048//78 1049//74 1050//74
f 1051//134 1052//32 1053//32
f 1054//134 1055//134 1056//32
f 1057//62 1058//64 1059//135
f 1060//62 1061//64 1062//64
f 1063//64 1064//64 1065//66
f 1066//80 1067//64 1068//66
f 1069//136 1070//68 1071//136
f 1072//137 1073//72 1074//71
f 431//32 1075//32 1076//138
f 1077//138 431//32 1078//138
f 1079//139 1080//55 1081//57
f 1082//139 1083//55 1084//55
f 1085//55 1086//55 1087//140
f 1088//53 1089//55 1090//140
f 1091//141 1092//142 1093//142
f 1094//47 1095//143 1096//143
f 1097//144 1098//144 1099//59
f 1100//145 1101//13 1102//13
f 1103//145 1104//145 1105//13
f 1106//42 1107//146 1108//42
f 1109//42 1110//146 1111//146
f 1112//45 1113//45 1114//47
f 1115//48 1116//45 1117//48
f 1118//147 1119//60 1120//47
f 1121//119 1122//128 1123//119
f 1124//117 1125//129 1126//117
f 1127//129 1128//129 1129//117
f 1130//112 1131//112 1132//114
f 1133//126 1134//148 1135//148
f 1136//106 1137//108 1138//108
f 1139//106 1140//108 1141//106
f 1142//127 1143//127 1144//40
f 1145//123 1146//27 1147//27
f 1148//123 1149//27 1150//123
f 1151//124 1152//124 1153//149
f 1154//104 1155//149 1156//149
f 1157//110 1158//126 1159//148
f 1160//114 1161//111 1162//150
f 1163//127 1164//40 1165//40
f 1166//128 1167//128 1168//119
f 1169//151 1170//152 1171//151
f 1172//98 1173//153 1174//98
f 1175//153 1176//153 1177//98
f 1178//100 1179//100 1180//154
f 1181//155 1182//100 1183//100
f 1184//84 1185//86 1186//86
f 1187//84 1188//86 1189//84
f 1190//156 1191//156 1192//27
f 1193//157 1194//13 1195//13
f 1196//157 1197//13 1198//157
f 1199//82 1200//82 1201//158
f 1202//82 1203//158 1204//158
f 1205//88 1206//155 1207//99
f 1208//154 1209//100 1210//154
f 1211//156 1212//27 1213//27
f 1214//152 1215//152 1216//151
f 1217//62 1218//159 1219//62
f 1220//64 1221//66 1222//64
f 1223//80 1224//80 1225//64
f 1226//160 1227//160 1228//133
f 1229//71 1230//137 1231//137
f 1232//74 1233//78 1234//78
f 1235//74 1236//78 1237//74
f 1238//40 1239//40 1240//130
f 1241//40 1242//130 1243//130
f 1244//161 1245//131 1246//161
f 1247//134 1248//134 1249//32
f 1250//131 1251//76 1252//131
f 1253//134 1254//32 1255//32
f 1256//62 1257//159 1258//159
f 1259//133 1260//79 1261//68
f 1262//71 1263//71 1264//69
f 1265//40 1266//40 1267//127
f 1268//127 1269//40 1270//127
f 1271//128 1272//119 1273//119
f 1274//128 1275//128 1276//162
f 1277//117 1278//129 1279//117
f 1280//117 1281//129 1282//129
f 1283//114 1284//111 1285//111
f 377//27 1286//27 1287//123
f 1288//123 1289//123 377//27
f 1290//124 1291//106 1292//104
f 1293//124 1294//106 1295//106
f 1296//106 1297//106 1298//108
f 1299//108 1300//106 1301//108
f 1302//148 1303//126 1304//110
f 1305//112 1306//112 1307//110
f 1308//121 1309//114 1310//114
f 1311//32 434//32 1312//134
f 1313//134 434//32 1314//134
f 1315//64 1316//135 1317//62
f 1318//64 1319//64 1320//135
f 1321//64 1322//66 1323//64
f 1324//64 1325//80 1326//66
f 1327//68 1328//133 1329//160
f 1330//160 1331//68 1332//160
f 1333//71 1334//69 1335//69
f 1336//40 1337//40 1338//130
f 1339//130 1340//40 1341//130
f 1342//131 1343//161 1344//76
f 1345//78 1346//74 1347//78
f 1348//78 1349//74 1350//74
f 1351//137 1352//72 1353//71
f 1354//131 1355//76 1356//131
f 1357//145 1358//145 1359//13
f 1360//146 1361//42 1362//44
f 1363//48 1364//45 1365//45
f 1366//48 1367//45 1368//48
f 1369//147 1370//163 1371//147
f 1372//147 1373//147 1374//142
f 1375//140 1376//140 1377//55
f 1378//32 1379//138 1380//32
f 1381//138 1382//138 1383//32
f 1384//164 1385//139 1386//57
f 1387//164 1388//57 1389//164
f 1390//55 1391//55 1392//140
f 1393//59 1394//59 1395//51
f 1396//163 1397//147 1398//163
f 1399//145 1400//13 1401//13
f 1402//146 1403//146 1404//42
f 1405//13 1406//157 1407//13
f 1408//13 1409//157 1410//157
f 1411//82 1412//82 1413//158
f 1414//158 1415//165 1416//158
f 1417//88 1418//166 1419//166
f 1420//86 1421//84 1422//86
f 1423//167 1424//154 1425//154
f 1426//86 1427//84 1428//84
f 1429//156 1430//27 380//27
f 1431//156 1432//156 380//27
f 1433//95 1434//98 1435//151
f 1436//151 1437//98 1438//98
f 1439//98 1440//98 1441//153
f 1442//153 1443//98 1444//91
f 1445//101 1446//168 1447//101
f 1448//100 1449//88 1450//88
f 1451//32 1452//32 1453//32
f 1452//32 1454//32 1455//32
f 1456//40 1457//40 1458//40
f 1459//40 1460//40 1458//40
f 1461//40 1462//40 1463//40
f 1464//32 1465//32 1466//32
f 1467//169 1468//169 1464//169
f 1469//32 1464//32 1470//32
f 1471//40 1472//40 1473//40
f 1474//40 1475//40 1476//40
f 1477//27 1478//27 1479//27
f 1480//103 1481//103 1479//103
f 1482//27 1483//27 1484//27
f 1485//40 1486//40 1487//40
f 1488//40 1489//40 1485//40
f 1490//40 1485//40 1491//40
f 1492//27 1493//27 1494//27
f 1495//27 1496//27 1497//27
f 1498//13 1499//13 1500//13
f 1501//13 1502//13 1500//13
f 1503//13 1504//13 1505//13
f 1506//27 1507//27 1508//27
f 1509//93 1510//93 1506//93
f 1511//27 1506//27 1512//27
f 1513//13 1514//13 1515//13
f 1516//13 1517//13 1518//13
f 1519//32 1520//32 1521//32
f 1522//170 1523//170 1521//170
f 1524//32 1525//32 1526//32
f 1527//76 1528//76 1529//40
f 1530//74 1528//76 1527//76
f 1531//72 1532//171 1530//74
f 1533//78 1532//171 1531//72
f 1534//160 1533//78 1535//172
f 1534//160 1535//172 1536//80
f 1537//80 1536//80 1538//159
f 1537//80 1538//159 1539//173
f 1539//173 1540//62 1541//62
f 1540//62 1542//32 1541//62
f 1542//32 1543//57 1544//32
f 1543//57 1545//57 1544//32
f 1546//174 1547//164 1545//57
f 1548//140 1547//164 1546//174
f 1549//175 1550//53 1548//140
f 1551//51 1550//53 1549//175
f 1552//47 1551//51 1553//47
f 1552//47 1553//47 1554//45
f 1555//146 1554//45 1556//42
f 1555//146 1556//42 1557//42
f 1557//42 1558//13 1559//13
f 1558//13 1560//82 1559//13
f 1561//82 1562//84 1563//176
f 1563//176 1562//84 1564//87
f 1565//27 1566//27 1567//95
f 1568//104 1569//104 1566//27
f 1570//106 1571//177 1569//104
f 1572//122 1573//122 1571//177
f 1574//112 1573//122 1572//122
f 1575//115 1576//112 1574//112
f 1577//115 1576//112 1575//115
f 1578//117 1577//115 1579//178
f 1553//47 1551//51 1549//175
f 1580//119 1581//119 1529//40
f 1578//117 1581//119 1580//119
f 1579//178 1581//119 1578//117
f 1575//115 1579//178 1577//115
f 1573//122 1574//112 1576//112
f 1571//177 1570//106 1572//122
f 1569//104 1568//104 1570//106
f 1580//119 1529//40 1582//40
f 1566//27 1565//27 1568//104
f 1567//95 1583//95 1565//27
f 1584//98 1583//95 1567//95
f 1585//179 1583//95 1584//98
f 1585//179 1584//98 1586//91
f 1585//179 1586//91 1587//91
f 1586//91 1588//101 1587//91
f 1588//101 1589//99 1587//91
f 1590//87 1589//99 1588//101
f 1564//87 1589//99 1590//87
f 1564//87 1590//87 1563//176
f 1562//84 1561//82 1560//82
f 1561//82 1559//13 1560//82
f 1558//13 1557//42 1556//42
f 1554//45 1555//146 1552//47
f 1547//164 1548//140 1550//53
f 1545//57 1543//57 1546//174
f 1544//32 1541//62 1542//32
f 1540//62 1539//173 1538//159
f 1536//80 1537//80 1534//160
f 1531//72 1535//172 1533//78
f 1528//76 1530//74 1532//171
f 1528//76 1582//40 1529//40
f 1591//13 1592//13 1593//13
f 1594//13 1595//13 1596//13
f 1597//13 1598//13 1599//13
f 1600//21 1601//21 1602//21
f 1603//21 1604//21 1605//21
f 1606//23 1607//23 1608//23
f 1600//21 1609//21 1610//21
f 1611//23 1612//23 1613//23
f 1614//22 1615//22 1616//22
f 1617//21 1618//21 1619//21
f 1620//22 1621//22 1622//22
f 1623//25 1624//25 1625//25
f 1626//21 1627//21 1628//21
f 1629//22 1630//22 1631//22
f 1632//23 1633//23 1634//23
f 1635//21 1636//21 1637//21
f 1638//24 1639//24 1640//24
f 1641//21 1642//21 1600//21
f 1643//21 1644//21 1600//21
f 1645//21 1646//21 1647//21
f 1648//21 1649//21 1650//21
f 1651//21 1652//21 1653//21
f 1654//22 1655//22 1656//22
f 1657//21 1658//21 1659//21
f 1659//21 1660//21 1661//21
f 1662//21 1663//21 1659//21
f 1664//26 1665//26 1659//26
f 1666//21 1667//21 1659//21
f 1668//21 1669//21 1670//21
f 1671//21 1672//21 1673//21
f 1659//21 1674//21 1675//21
f 1626//21 1676//21 1677//21
f 1678//21 1679//21 1626//21
f 1680//21 1681//21 1626//21
f 1682//21 1683//21 1684//21
f 1685//21 1686//21 1687//21
f 1688//21 1689//21 1690//21
f 1691//23 1692//23 1693//23
f 1617//23 1694//23 1695//23
f 1617//21 1696//21 1697//21
f 1698//21 1699//21 1617//21
f 1700//23 1701//23 1617//23
f 1702//21 1703//21 1704//21
f 1705//21 1706//21 1707//21
f 1708//21 1709//21 1710//21
f 1711//21 1712//21 1713//21
f 1600//21 1714//21 1715//21
f 1626//21 1716//21 1717//21
f 1600//21 1718//21 1719//21
f 1626//21 1720//21 1721//21
f 1722//21 1723//21 1617//21
f 1724//21 1725//21 1726//21
f 1727//21 1728//21 1729//21
f 1730//26 1731//26 1732//26
f 1733//21 1734//21 1735//21
f 1736//21 1737//21 1738//21
f 1739//21 1740//21 1741//21
f 1742//21 1743//21 1744//21
f 1745//21 1746//21 1747//21
f 1748//21 1749//21 1750//21
f 1751//21 1752//21 1753//21
f 1754//23 1755//23 1756//23
f 1757//21 1758//21 1759//21
f 1760//23 1761//23 1762//23
f 1763//21 1764//21 1765//21
f 1766//21 1767//21 1768//21
f 1769//24 1770//24 1771//24
f 1772//22 1773//22 1774//22
f 1775//23 1776//23 1777//23
f 1778//21 1779//21 1780//21
f 1781//22 1782//22 1783//22
f 1784//21 1785//21 1786//21
f 1787//21 1788//21 1789//21
f 1790//21 1791//21 1792//21
f 1793//21 1794//21 1795//21
f 1796//21 1797//21 1798//21
f 1799//21 1800//21 1801//21
f 1802//21 1803//21 1804//21
f 1805//21 1806//21 1807//21
f 1808//26 1809//26 1810//26
f 1811//21 1812//21 1813//21
f 1814//180 1815//180 1816//180
f 1817//180 1818//180 1471//40
f 1471//181 1819//182 1820//182
f 1821//183 1822//183 1823//183
f 1824//183 1825//183 1492//27
f 1492//27 1826//183 1827//183
f 1828//184 1829//184 1830//184
f 1831//184 1832//184 1513//13
f 1513//13 1833//184 1834//184
f 1835//185 1836//185 1452//32
f 1837//185 1838//185 1451//32
f 1451//32 1839//185 1452//32
f 1840//40 1841//40 1842//40
f 1843//40 1844//40 1842//40
f 1845//40 1840//40 1846//40
f 1847//32 1848//32 1849//32
f 1850//32 1851//32 1852//32
f 1853//13 1854//13 1855//13
f 1856//13 1857//13 1858//13
f 1859//27 1860//27 1861//27
f 1862//27 1863//27 1864//27
f 1865//21 1866//21 1867//21
f 1868//21 1869//21 1870//21
f 1871//186 1872//186 1873//186
f 1872//186 1874//186 1875//186
f 1876//186 1872//186 1877//186
f 1872//186 1878//186 1879//186
f 1880//1 1881//1 1882//1
f 1883//1 1884//1 1885//1
f 1886//1 1887//1 1888//1
f 1889//1 1890//1 1891//1
