# Blender 4.4.3
# www.blender.org
mtllib Mesh_18.010.mtl
o Mesh_18.010
v 0.017230 0.008776 -0.013703
v 0.017230 0.008830 -0.013703
v 0.017230 0.008827 -0.013705
v 0.017230 0.008824 -0.013707
v 0.017230 0.008821 -0.013709
v 0.017230 0.008817 -0.013710
v 0.017230 0.008810 -0.013712
v 0.017230 0.008814 -0.013712
v 0.017230 0.008807 -0.013713
v 0.017230 0.008803 -0.013713
v 0.017230 0.008799 -0.013713
v 0.017230 0.008796 -0.013712
v 0.017230 0.008792 -0.013712
v 0.017230 0.008789 -0.013710
v 0.017230 0.008785 -0.013709
v 0.017230 0.008782 -0.013707
v 0.017230 0.008779 -0.013705
v 0.017230 0.008773 -0.013700
v 0.017230 0.008833 -0.013700
v 0.017230 0.008770 -0.013697
v 0.017230 0.008836 -0.013697
v 0.017230 0.008766 -0.013693
v 0.017230 0.008840 -0.013693
v 0.017230 0.008763 -0.013690
v 0.017230 0.008843 -0.013690
v 0.017230 0.008760 -0.013686
v 0.017230 0.008846 -0.013686
v 0.017230 0.008757 -0.013683
v 0.017230 0.008849 -0.013683
v 0.017230 0.008754 -0.013679
v 0.017230 0.008852 -0.013679
v 0.017230 0.008854 -0.013675
v 0.017230 0.008752 -0.013675
v 0.017230 0.008749 -0.013671
v 0.017230 0.008744 -0.013663
v 0.017230 0.008859 -0.013667
v 0.017230 0.008747 -0.013667
v 0.017230 0.008857 -0.013671
v 0.017230 0.008872 -0.013642
v 0.017230 0.008870 -0.013647
v 0.017230 0.008872 -0.013640
v 0.017230 0.008868 -0.013651
v 0.017230 0.008866 -0.013655
v 0.017230 0.008734 -0.013640
v 0.017230 0.008738 -0.013651
v 0.017230 0.008740 -0.013655
v 0.017230 0.008736 -0.013647
v 0.017230 0.008864 -0.013659
v 0.017230 0.008742 -0.013659
v 0.017230 0.008862 -0.013663
v 0.017230 0.008734 -0.013642
v 0.017460 0.008734 -0.013640
v 0.017460 0.008734 -0.013642
v 0.017460 0.008736 -0.013647
v 0.017460 0.008738 -0.013651
v 0.017460 0.008740 -0.013655
v 0.017460 0.008866 -0.013655
v 0.017460 0.008742 -0.013659
v 0.017460 0.008864 -0.013659
v 0.017460 0.008744 -0.013663
v 0.017460 0.008862 -0.013663
v 0.017460 0.008747 -0.013667
v 0.017460 0.008749 -0.013671
v 0.017460 0.008859 -0.013667
v 0.017460 0.008857 -0.013671
v 0.017460 0.008854 -0.013675
v 0.017460 0.008752 -0.013675
v 0.017460 0.008754 -0.013679
v 0.017460 0.008852 -0.013679
v 0.017460 0.008757 -0.013683
v 0.017460 0.008849 -0.013683
v 0.017460 0.008760 -0.013686
v 0.017460 0.008846 -0.013686
v 0.017460 0.008840 -0.013693
v 0.017460 0.008843 -0.013690
v 0.017460 0.008766 -0.013693
v 0.017460 0.008836 -0.013697
v 0.017460 0.008770 -0.013697
v 0.017460 0.008773 -0.013700
v 0.017460 0.008830 -0.013703
v 0.017460 0.008833 -0.013700
v 0.017460 0.008776 -0.013703
v 0.017460 0.008827 -0.013705
v 0.017460 0.008824 -0.013707
v 0.017460 0.008779 -0.013705
v 0.017460 0.008782 -0.013707
v 0.017460 0.008785 -0.013709
v 0.017460 0.008792 -0.013712
v 0.017460 0.008789 -0.013710
v 0.017460 0.008796 -0.013712
v 0.017460 0.008799 -0.013713
v 0.017460 0.008803 -0.013713
v 0.017460 0.008807 -0.013713
v 0.017460 0.008810 -0.013712
v 0.017460 0.008814 -0.013712
v 0.017460 0.008817 -0.013710
v 0.017460 0.008821 -0.013709
v 0.017460 0.008763 -0.013690
v 0.017460 0.008872 -0.013640
v 0.017460 0.008868 -0.013651
v 0.017460 0.008872 -0.013642
v 0.017460 0.008870 -0.013647
v 0.017460 0.008734 -0.013642
v 0.017460 0.008734 -0.013640
v 0.017402 0.008734 -0.013642
v 0.017460 0.008734 -0.013640
v 0.017230 0.008734 -0.013640
v 0.017230 0.008734 -0.013642
v 0.017345 0.008734 -0.013642
v 0.017460 0.008734 -0.013640
v 0.017287 0.008734 -0.013642
v 0.017460 0.008734 -0.013640
v 0.017460 0.008734 -0.013640
v 0.017230 0.008734 -0.013642
v 0.017325 0.008805 -0.013640
v 0.017325 0.008803 -0.013713
v 0.017325 0.008803 -0.013640
v 0.017325 0.008807 -0.013713
v 0.017325 0.008805 -0.013713
v 0.017324 0.008809 -0.013712
v 0.017325 0.008807 -0.013640
v 0.017324 0.008809 -0.013640
v 0.017324 0.008811 -0.013712
v 0.017324 0.008811 -0.013640
v 0.017323 0.008813 -0.013712
v 0.017323 0.008813 -0.013640
v 0.017322 0.008815 -0.013711
v 0.017323 0.008815 -0.013640
v 0.017322 0.008817 -0.013640
v 0.017321 0.008817 -0.013710
v 0.017320 0.008819 -0.013710
v 0.017321 0.008819 -0.013640
v 0.017319 0.008821 -0.013709
v 0.017320 0.008820 -0.013640
v 0.017318 0.008822 -0.013640
v 0.017318 0.008822 -0.013708
v 0.017317 0.008824 -0.013707
v 0.017315 0.008825 -0.013706
v 0.017317 0.008823 -0.013640
v 0.017311 0.008829 -0.013704
v 0.017311 0.008829 -0.013640
v 0.017309 0.008830 -0.013703
v 0.017309 0.008830 -0.013640
v 0.017312 0.008827 -0.013640
v 0.017312 0.008828 -0.013705
v 0.017314 0.008826 -0.013640
v 0.017314 0.008826 -0.013706
v 0.017316 0.008825 -0.013640
v 0.017325 0.008801 -0.013713
v 0.017325 0.008801 -0.013640
v 0.017325 0.008799 -0.013713
v 0.017325 0.008798 -0.013640
v 0.017324 0.008797 -0.013712
v 0.017324 0.008796 -0.013640
v 0.017324 0.008795 -0.013712
v 0.017323 0.008793 -0.013712
v 0.017323 0.008793 -0.013640
v 0.017323 0.008791 -0.013640
v 0.017322 0.008791 -0.013711
v 0.017321 0.008789 -0.013710
v 0.017322 0.008789 -0.013640
v 0.017320 0.008787 -0.013710
v 0.017320 0.008787 -0.013640
v 0.017319 0.008785 -0.013640
v 0.017319 0.008785 -0.013709
v 0.017317 0.008783 -0.013640
v 0.017315 0.008781 -0.013706
v 0.017316 0.008781 -0.013640
v 0.017317 0.008782 -0.013707
v 0.017318 0.008784 -0.013708
v 0.017314 0.008780 -0.013706
v 0.017312 0.008779 -0.013705
v 0.017311 0.008777 -0.013704
v 0.017312 0.008778 -0.013640
v 0.017314 0.008780 -0.013640
v 0.017309 0.008776 -0.013703
v 0.017310 0.008777 -0.013640
v 0.017307 0.008776 -0.013702
v 0.017308 0.008776 -0.013640
v 0.017306 0.008775 -0.013702
v 0.017305 0.008775 -0.013640
v 0.017304 0.008774 -0.013701
v 0.017303 0.008774 -0.013640
v 0.017302 0.008774 -0.013701
v 0.017301 0.008774 -0.013640
v 0.017300 0.008774 -0.013700
v 0.017299 0.008773 -0.013700
v 0.017297 0.008773 -0.013700
v 0.017298 0.008773 -0.013640
v 0.017296 0.008773 -0.013640
v 0.017295 0.008773 -0.013700
v 0.017293 0.008773 -0.013700
v 0.017293 0.008773 -0.013640
v 0.017291 0.008773 -0.013640
v 0.017291 0.008773 -0.013700
v 0.017289 0.008774 -0.013640
v 0.017289 0.008774 -0.013700
v 0.017286 0.008774 -0.013640
v 0.017288 0.008774 -0.013701
v 0.017284 0.008775 -0.013640
v 0.017286 0.008774 -0.013701
v 0.017284 0.008775 -0.013702
v 0.017282 0.008776 -0.013640
v 0.017283 0.008776 -0.013702
v 0.017281 0.008776 -0.013703
v 0.017280 0.008777 -0.013640
v 0.017279 0.008777 -0.013704
v 0.017278 0.008779 -0.013640
v 0.017278 0.008778 -0.013705
v 0.017276 0.008780 -0.013706
v 0.017276 0.008780 -0.013640
v 0.017274 0.008782 -0.013640
v 0.017275 0.008781 -0.013706
v 0.017273 0.008782 -0.013707
v 0.017272 0.008784 -0.013640
v 0.017272 0.008784 -0.013708
v 0.017271 0.008785 -0.013709
v 0.017271 0.008785 -0.013640
v 0.017269 0.008787 -0.013640
v 0.017268 0.008790 -0.013640
v 0.017270 0.008787 -0.013710
v 0.017269 0.008789 -0.013710
v 0.017267 0.008792 -0.013640
v 0.017268 0.008791 -0.013711
v 0.017267 0.008793 -0.013712
v 0.017266 0.008794 -0.013640
v 0.017266 0.008795 -0.013712
v 0.017265 0.008799 -0.013640
v 0.017266 0.008796 -0.013640
v 0.017266 0.008797 -0.013712
v 0.017265 0.008799 -0.013713
v 0.017266 0.008809 -0.013712
v 0.017266 0.008811 -0.013712
v 0.017266 0.008811 -0.013640
v 0.017265 0.008801 -0.013640
v 0.017265 0.008801 -0.013713
v 0.017269 0.008817 -0.013710
v 0.017270 0.008819 -0.013710
v 0.017269 0.008818 -0.013640
v 0.017273 0.008824 -0.013707
v 0.017273 0.008824 -0.013640
v 0.017272 0.008822 -0.013640
v 0.017279 0.008829 -0.013704
v 0.017277 0.008827 -0.013640
v 0.017278 0.008827 -0.013705
v 0.017281 0.008829 -0.013640
v 0.017283 0.008830 -0.013702
v 0.017283 0.008831 -0.013640
v 0.017288 0.008832 -0.013701
v 0.017288 0.008832 -0.013640
v 0.017285 0.008831 -0.013640
v 0.017291 0.008833 -0.013700
v 0.017290 0.008833 -0.013640
v 0.017289 0.008832 -0.013700
v 0.017293 0.008833 -0.013700
v 0.017295 0.008833 -0.013640
v 0.017292 0.008833 -0.013640
v 0.017295 0.008833 -0.013700
v 0.017297 0.008833 -0.013700
v 0.017299 0.008833 -0.013700
v 0.017297 0.008833 -0.013640
v 0.017300 0.008832 -0.013700
v 0.017300 0.008833 -0.013640
v 0.017302 0.008832 -0.013701
v 0.017302 0.008832 -0.013640
v 0.017304 0.008832 -0.013701
v 0.017304 0.008831 -0.013640
v 0.017307 0.008830 -0.013702
v 0.017307 0.008831 -0.013640
v 0.017306 0.008831 -0.013702
v 0.017286 0.008832 -0.013701
v 0.017284 0.008831 -0.013702
v 0.017281 0.008830 -0.013703
v 0.017279 0.008828 -0.013640
v 0.017276 0.008826 -0.013706
v 0.017275 0.008825 -0.013640
v 0.017275 0.008825 -0.013706
v 0.017272 0.008822 -0.013708
v 0.017270 0.008820 -0.013640
v 0.017271 0.008821 -0.013709
v 0.017268 0.008816 -0.013640
v 0.017268 0.008815 -0.013711
v 0.017267 0.008813 -0.013640
v 0.017267 0.008813 -0.013712
v 0.017266 0.008809 -0.013640
v 0.017265 0.008807 -0.013713
v 0.017265 0.008806 -0.013640
v 0.017265 0.008805 -0.013713
v 0.017265 0.008804 -0.013640
v 0.017265 0.008803 -0.013713
v 0.017287 0.008872 -0.013642
v 0.017230 0.008872 -0.013642
v 0.017460 0.008872 -0.013640
v 0.017230 0.008872 -0.013642
v 0.017230 0.008872 -0.013640
v 0.017460 0.008872 -0.013640
v 0.017402 0.008872 -0.013642
v 0.017345 0.008872 -0.013642
v 0.017460 0.008872 -0.013640
v 0.017460 0.008872 -0.013642
v 0.017460 0.008872 -0.013640
v 0.017460 0.008872 -0.013640
v 0.017311 0.008829 -0.013640
v 0.017312 0.008827 -0.013640
v 0.017460 0.008872 -0.013640
v 0.017311 0.008829 -0.013640
v 0.017460 0.008872 -0.013640
v 0.017309 0.008830 -0.013640
v 0.017312 0.008827 -0.013640
v 0.017314 0.008826 -0.013640
v 0.017460 0.008872 -0.013640
v 0.017314 0.008826 -0.013640
v 0.017316 0.008825 -0.013640
v 0.017460 0.008872 -0.013640
v 0.017316 0.008825 -0.013640
v 0.017317 0.008823 -0.013640
v 0.017460 0.008872 -0.013640
v 0.017317 0.008823 -0.013640
v 0.017318 0.008822 -0.013640
v 0.017460 0.008872 -0.013640
v 0.017318 0.008822 -0.013640
v 0.017320 0.008820 -0.013640
v 0.017460 0.008872 -0.013640
v 0.017320 0.008820 -0.013640
v 0.017321 0.008819 -0.013640
v 0.017460 0.008872 -0.013640
v 0.017321 0.008819 -0.013640
v 0.017322 0.008817 -0.013640
v 0.017460 0.008872 -0.013640
v 0.017322 0.008817 -0.013640
v 0.017323 0.008815 -0.013640
v 0.017460 0.008872 -0.013640
v 0.017323 0.008815 -0.013640
v 0.017323 0.008813 -0.013640
v 0.017460 0.008872 -0.013640
v 0.017323 0.008813 -0.013640
v 0.017324 0.008811 -0.013640
v 0.017460 0.008872 -0.013640
v 0.017324 0.008811 -0.013640
v 0.017324 0.008809 -0.013640
v 0.017460 0.008872 -0.013640
v 0.017324 0.008809 -0.013640
v 0.017325 0.008807 -0.013640
v 0.017460 0.008872 -0.013640
v 0.017325 0.008807 -0.013640
v 0.017325 0.008805 -0.013640
v 0.017460 0.008872 -0.013640
v 0.017325 0.008805 -0.013640
v 0.017325 0.008803 -0.013640
v 0.017460 0.008872 -0.013640
v 0.017325 0.008803 -0.013640
v 0.017460 0.008734 -0.013640
v 0.017460 0.008872 -0.013640
v 0.017325 0.008801 -0.013640
v 0.017460 0.008734 -0.013640
v 0.017325 0.008803 -0.013640
v 0.017325 0.008798 -0.013640
v 0.017460 0.008734 -0.013640
v 0.017325 0.008801 -0.013640
v 0.017324 0.008796 -0.013640
v 0.017460 0.008734 -0.013640
v 0.017325 0.008798 -0.013640
v 0.017460 0.008734 -0.013640
v 0.017324 0.008796 -0.013640
v 0.017323 0.008793 -0.013640
v 0.017460 0.008734 -0.013640
v 0.017323 0.008793 -0.013640
v 0.017323 0.008791 -0.013640
v 0.017460 0.008734 -0.013640
v 0.017323 0.008791 -0.013640
v 0.017322 0.008789 -0.013640
v 0.017460 0.008734 -0.013640
v 0.017322 0.008789 -0.013640
v 0.017320 0.008787 -0.013640
v 0.017460 0.008734 -0.013640
v 0.017320 0.008787 -0.013640
v 0.017319 0.008785 -0.013640
v 0.017460 0.008734 -0.013640
v 0.017319 0.008785 -0.013640
v 0.017317 0.008783 -0.013640
v 0.017460 0.008734 -0.013640
v 0.017317 0.008783 -0.013640
v 0.017316 0.008781 -0.013640
v 0.017312 0.008778 -0.013640
v 0.017310 0.008777 -0.013640
v 0.017460 0.008734 -0.013640
v 0.017312 0.008778 -0.013640
v 0.017460 0.008734 -0.013640
v 0.017314 0.008780 -0.013640
v 0.017460 0.008734 -0.013640
v 0.017316 0.008781 -0.013640
v 0.017314 0.008780 -0.013640
v 0.017308 0.008776 -0.013640
v 0.017460 0.008734 -0.013640
v 0.017310 0.008777 -0.013640
v 0.017305 0.008775 -0.013640
v 0.017460 0.008734 -0.013640
v 0.017308 0.008776 -0.013640
v 0.017303 0.008774 -0.013640
v 0.017460 0.008734 -0.013640
v 0.017305 0.008775 -0.013640
v 0.017230 0.008734 -0.013640
v 0.017460 0.008734 -0.013640
v 0.017303 0.008774 -0.013640
v 0.017230 0.008734 -0.013640
v 0.017303 0.008774 -0.013640
v 0.017301 0.008774 -0.013640
v 0.017230 0.008734 -0.013640
v 0.017301 0.008774 -0.013640
v 0.017298 0.008773 -0.013640
v 0.017230 0.008734 -0.013640
v 0.017298 0.008773 -0.013640
v 0.017296 0.008773 -0.013640
v 0.017230 0.008734 -0.013640
v 0.017296 0.008773 -0.013640
v 0.017293 0.008773 -0.013640
v 0.017289 0.008774 -0.013640
v 0.017286 0.008774 -0.013640
v 0.017230 0.008734 -0.013640
v 0.017289 0.008774 -0.013640
v 0.017230 0.008734 -0.013640
v 0.017291 0.008773 -0.013640
v 0.017286 0.008774 -0.013640
v 0.017284 0.008775 -0.013640
v 0.017230 0.008734 -0.013640
v 0.017284 0.008775 -0.013640
v 0.017282 0.008776 -0.013640
v 0.017230 0.008734 -0.013640
v 0.017282 0.008776 -0.013640
v 0.017280 0.008777 -0.013640
v 0.017230 0.008734 -0.013640
v 0.017280 0.008777 -0.013640
v 0.017278 0.008779 -0.013640
v 0.017230 0.008734 -0.013640
v 0.017278 0.008779 -0.013640
v 0.017276 0.008780 -0.013640
v 0.017230 0.008734 -0.013640
v 0.017276 0.008780 -0.013640
v 0.017274 0.008782 -0.013640
v 0.017230 0.008734 -0.013640
v 0.017274 0.008782 -0.013640
v 0.017272 0.008784 -0.013640
v 0.017230 0.008734 -0.013640
v 0.017272 0.008784 -0.013640
v 0.017271 0.008785 -0.013640
v 0.017230 0.008734 -0.013640
v 0.017271 0.008785 -0.013640
v 0.017269 0.008787 -0.013640
v 0.017230 0.008734 -0.013640
v 0.017269 0.008787 -0.013640
v 0.017268 0.008790 -0.013640
v 0.017230 0.008734 -0.013640
v 0.017268 0.008790 -0.013640
v 0.017267 0.008792 -0.013640
v 0.017230 0.008734 -0.013640
v 0.017266 0.008794 -0.013640
v 0.017230 0.008734 -0.013640
v 0.017267 0.008792 -0.013640
v 0.017266 0.008796 -0.013640
v 0.017230 0.008734 -0.013640
v 0.017266 0.008794 -0.013640
v 0.017265 0.008799 -0.013640
v 0.017230 0.008734 -0.013640
v 0.017266 0.008796 -0.013640
v 0.017230 0.008734 -0.013640
v 0.017293 0.008773 -0.013640
v 0.017291 0.008773 -0.013640
v 0.017265 0.008804 -0.013640
v 0.017230 0.008734 -0.013640
v 0.017265 0.008801 -0.013640
v 0.017230 0.008872 -0.013640
v 0.017230 0.008734 -0.013640
v 0.017265 0.008804 -0.013640
v 0.017230 0.008872 -0.013640
v 0.017265 0.008804 -0.013640
v 0.017265 0.008806 -0.013640
v 0.017230 0.008872 -0.013640
v 0.017265 0.008806 -0.013640
v 0.017266 0.008809 -0.013640
v 0.017230 0.008872 -0.013640
v 0.017266 0.008809 -0.013640
v 0.017266 0.008811 -0.013640
v 0.017268 0.008816 -0.013640
v 0.017269 0.008818 -0.013640
v 0.017230 0.008872 -0.013640
v 0.017268 0.008816 -0.013640
v 0.017230 0.008872 -0.013640
v 0.017267 0.008813 -0.013640
v 0.017269 0.008818 -0.013640
v 0.017270 0.008820 -0.013640
v 0.017230 0.008872 -0.013640
v 0.017270 0.008820 -0.013640
v 0.017272 0.008822 -0.013640
v 0.017230 0.008872 -0.013640
v 0.017272 0.008822 -0.013640
v 0.017273 0.008824 -0.013640
v 0.017230 0.008872 -0.013640
v 0.017273 0.008824 -0.013640
v 0.017275 0.008825 -0.013640
v 0.017230 0.008872 -0.013640
v 0.017275 0.008825 -0.013640
v 0.017277 0.008827 -0.013640
v 0.017230 0.008872 -0.013640
v 0.017277 0.008827 -0.013640
v 0.017279 0.008828 -0.013640
v 0.017230 0.008872 -0.013640
v 0.017279 0.008828 -0.013640
v 0.017281 0.008829 -0.013640
v 0.017230 0.008872 -0.013640
v 0.017281 0.008829 -0.013640
v 0.017283 0.008831 -0.013640
v 0.017230 0.008872 -0.013640
v 0.017283 0.008831 -0.013640
v 0.017285 0.008831 -0.013640
v 0.017230 0.008872 -0.013640
v 0.017285 0.008831 -0.013640
v 0.017288 0.008832 -0.013640
v 0.017230 0.008872 -0.013640
v 0.017290 0.008833 -0.013640
v 0.017230 0.008872 -0.013640
v 0.017288 0.008832 -0.013640
v 0.017292 0.008833 -0.013640
v 0.017230 0.008872 -0.013640
v 0.017290 0.008833 -0.013640
v 0.017295 0.008833 -0.013640
v 0.017230 0.008872 -0.013640
v 0.017292 0.008833 -0.013640
v 0.017297 0.008833 -0.013640
v 0.017230 0.008872 -0.013640
v 0.017295 0.008833 -0.013640
v 0.017300 0.008833 -0.013640
v 0.017230 0.008872 -0.013640
v 0.017297 0.008833 -0.013640
v 0.017302 0.008832 -0.013640
v 0.017230 0.008872 -0.013640
v 0.017300 0.008833 -0.013640
v 0.017460 0.008872 -0.013640
v 0.017230 0.008872 -0.013640
v 0.017302 0.008832 -0.013640
v 0.017460 0.008872 -0.013640
v 0.017302 0.008832 -0.013640
v 0.017304 0.008831 -0.013640
v 0.017230 0.008872 -0.013640
v 0.017266 0.008811 -0.013640
v 0.017267 0.008813 -0.013640
v 0.017309 0.008830 -0.013640
v 0.017460 0.008872 -0.013640
v 0.017307 0.008831 -0.013640
v 0.017307 0.008831 -0.013640
v 0.017460 0.008872 -0.013640
v 0.017304 0.008831 -0.013640
v 0.017265 0.008799 -0.013640
v 0.017265 0.008801 -0.013640
v 0.017230 0.008734 -0.013640
v 0.017384 0.008854 -0.013676
v 0.017376 0.008852 -0.013679
v 0.017355 0.008853 -0.013676
v 0.017402 0.008853 -0.013677
v 0.017423 0.008846 -0.013686
v 0.017423 0.008849 -0.013682
v 0.017432 0.008845 -0.013687
v 0.017413 0.008843 -0.013690
v 0.017384 0.008845 -0.013687
v 0.017382 0.008839 -0.013694
v 0.017376 0.008834 -0.013699
v 0.017356 0.008839 -0.013694
v 0.017423 0.008838 -0.013694
v 0.017422 0.008834 -0.013699
v 0.017438 0.008841 -0.013692
v 0.017387 0.008850 -0.013681
v 0.017361 0.008849 -0.013683
v 0.017358 0.008842 -0.013690
v 0.017460 0.008843 -0.013690
v 0.017297 0.008868 -0.013652
v 0.017292 0.008866 -0.013657
v 0.017230 0.008868 -0.013651
v 0.017308 0.008867 -0.013653
v 0.017257 0.008849 -0.013682
v 0.017269 0.008853 -0.013676
v 0.017292 0.008851 -0.013680
v 0.017230 0.008849 -0.013683
v 0.017230 0.008852 -0.013679
v 0.017271 0.008846 -0.013686
v 0.017291 0.008842 -0.013691
v 0.017230 0.008843 -0.013690
v 0.017306 0.008846 -0.013685
v 0.017300 0.008852 -0.013679
v 0.017278 0.008857 -0.013671
v 0.017306 0.008855 -0.013674
v 0.017230 0.008852 -0.013679
v 0.017230 0.008854 -0.013675
v 0.017387 0.008859 -0.013669
v 0.017381 0.008862 -0.013663
v 0.017416 0.008860 -0.013666
v 0.017373 0.008857 -0.013671
v 0.017358 0.008860 -0.013666
v 0.017398 0.008864 -0.013659
v 0.017395 0.008867 -0.013654
v 0.017460 0.008866 -0.013655
v 0.017383 0.008865 -0.013658
v 0.017406 0.008857 -0.013671
v 0.017460 0.008862 -0.013663
v 0.017460 0.008859 -0.013667
v 0.017264 0.008863 -0.013661
v 0.017271 0.008860 -0.013666
v 0.017230 0.008862 -0.013663
v 0.017304 0.008862 -0.013663
v 0.017230 0.008857 -0.013671
v 0.017340 0.008857 -0.013671
v 0.017355 0.008862 -0.013663
v 0.017317 0.008858 -0.013670
v 0.017338 0.008853 -0.013677
v 0.017348 0.008852 -0.013679
v 0.017326 0.008850 -0.013681
v 0.017329 0.008846 -0.013686
v 0.017373 0.008865 -0.013657
v 0.017460 0.008864 -0.013659
v 0.017319 0.008865 -0.013657
v 0.017343 0.008866 -0.013655
v 0.017289 0.008870 -0.013647
v 0.017354 0.008867 -0.013653
v 0.017344 0.008870 -0.013647
v 0.017400 0.008870 -0.013646
v 0.017460 0.008836 -0.013697
v 0.017384 0.008830 -0.013703
v 0.017460 0.008854 -0.013675
v 0.017460 0.008852 -0.013679
v 0.017460 0.008849 -0.013683
v 0.017334 0.008841 -0.013691
v 0.017230 0.008870 -0.013647
v 0.017230 0.008868 -0.013651
v 0.017460 0.008870 -0.013647
v 0.017291 0.008836 -0.013697
v 0.017314 0.008836 -0.013697
v 0.017289 0.008832 -0.013700
v 0.017288 0.008832 -0.013701
v 0.017230 0.008849 -0.013683
v 0.017230 0.008846 -0.013686
v 0.017297 0.008833 -0.013700
v 0.017460 0.008836 -0.013697
v 0.017460 0.008840 -0.013693
v 0.017309 0.008830 -0.013703
v 0.017309 0.008830 -0.013703
v 0.017460 0.008868 -0.013651
v 0.017460 0.008866 -0.013655
v 0.017460 0.008843 -0.013690
v 0.017460 0.008840 -0.013693
v 0.017307 0.008830 -0.013702
v 0.017306 0.008831 -0.013702
v 0.017460 0.008836 -0.013697
v 0.017460 0.008833 -0.013700
v 0.017230 0.008864 -0.013659
v 0.017230 0.008866 -0.013655
v 0.017230 0.008854 -0.013675
v 0.017230 0.008857 -0.013671
v 0.017460 0.008857 -0.013671
v 0.017293 0.008833 -0.013700
v 0.017295 0.008833 -0.013700
v 0.017460 0.008846 -0.013686
v 0.017460 0.008849 -0.013683
v 0.017283 0.008830 -0.013702
v 0.017230 0.008833 -0.013700
v 0.017284 0.008831 -0.013702
v 0.017283 0.008830 -0.013702
v 0.017281 0.008830 -0.013703
v 0.017230 0.008833 -0.013700
v 0.017284 0.008831 -0.013702
v 0.017230 0.008833 -0.013700
v 0.017286 0.008832 -0.013701
v 0.017286 0.008832 -0.013701
v 0.017230 0.008833 -0.013700
v 0.017230 0.008836 -0.013697
v 0.017286 0.008832 -0.013701
v 0.017230 0.008836 -0.013697
v 0.017288 0.008832 -0.013701
v 0.017286 0.008832 -0.013701
v 0.017230 0.008836 -0.013697
v 0.017230 0.008840 -0.013693
v 0.017289 0.008832 -0.013700
v 0.017291 0.008833 -0.013700
v 0.017230 0.008843 -0.013690
v 0.017230 0.008846 -0.013686
v 0.017230 0.008852 -0.013679
v 0.017460 0.008843 -0.013690
v 0.017460 0.008846 -0.013686
v 0.017230 0.008857 -0.013671
v 0.017297 0.008833 -0.013700
v 0.017299 0.008833 -0.013700
v 0.017299 0.008833 -0.013700
v 0.017300 0.008832 -0.013700
v 0.017460 0.008833 -0.013700
v 0.017460 0.008830 -0.013703
v 0.017302 0.008832 -0.013701
v 0.017300 0.008832 -0.013700
v 0.017230 0.008840 -0.013693
v 0.017230 0.008843 -0.013690
v 0.017309 0.008830 -0.013703
v 0.017307 0.008830 -0.013702
v 0.017306 0.008831 -0.013702
v 0.017304 0.008832 -0.013701
v 0.017460 0.008830 -0.013703
v 0.017302 0.008832 -0.013701
v 0.017304 0.008832 -0.013701
v 0.017460 0.008836 -0.013697
v 0.017295 0.008833 -0.013700
v 0.017297 0.008833 -0.013700
v 0.017230 0.008859 -0.013667
v 0.017230 0.008862 -0.013663
v 0.017460 0.008854 -0.013675
v 0.017230 0.008857 -0.013671
v 0.017230 0.008859 -0.013667
v 0.017460 0.008852 -0.013679
v 0.017460 0.008854 -0.013675
v 0.017230 0.008862 -0.013663
v 0.017230 0.008864 -0.013659
v 0.017460 0.008857 -0.013671
v 0.017460 0.008859 -0.013667
v 0.017460 0.008870 -0.013647
v 0.017460 0.008868 -0.013651
v 0.017460 0.008872 -0.013642
v 0.017460 0.008870 -0.013647
v 0.017460 0.008868 -0.013651
v 0.017460 0.008864 -0.013659
v 0.017460 0.008866 -0.013655
v 0.017230 0.008870 -0.013647
v 0.017230 0.008872 -0.013642
v 0.017460 0.008864 -0.013659
v 0.017460 0.008862 -0.013663
v 0.017230 0.008870 -0.013647
v 0.017230 0.008868 -0.013651
v 0.017230 0.008866 -0.013655
v 0.017230 0.008868 -0.013651
v 0.017230 0.008866 -0.013655
v 0.017460 0.008854 -0.013675
v 0.017460 0.008857 -0.013671
v 0.017460 0.008849 -0.013683
v 0.017291 0.008833 -0.013700
v 0.017293 0.008833 -0.013700
v 0.017230 0.008840 -0.013693
v 0.017230 0.008833 -0.013700
v 0.017281 0.008830 -0.013703
v 0.017230 0.008830 -0.013703
v 0.017230 0.008846 -0.013686
v 0.017230 0.008830 -0.013703
v 0.017281 0.008830 -0.013703
v 0.017279 0.008829 -0.013704
v 0.017278 0.008827 -0.013705
v 0.017230 0.008830 -0.013703
v 0.017279 0.008829 -0.013704
v 0.017278 0.008827 -0.013705
v 0.017230 0.008827 -0.013705
v 0.017230 0.008830 -0.013703
v 0.017278 0.008827 -0.013705
v 0.017276 0.008826 -0.013706
v 0.017230 0.008827 -0.013705
v 0.017230 0.008827 -0.013705
v 0.017276 0.008826 -0.013706
v 0.017275 0.008825 -0.013706
v 0.017273 0.008824 -0.013707
v 0.017230 0.008827 -0.013705
v 0.017275 0.008825 -0.013706
v 0.017273 0.008824 -0.013707
v 0.017230 0.008824 -0.013707
v 0.017230 0.008827 -0.013705
v 0.017272 0.008822 -0.013708
v 0.017271 0.008821 -0.013709
v 0.017230 0.008824 -0.013707
v 0.017271 0.008821 -0.013709
v 0.017270 0.008819 -0.013710
v 0.017230 0.008821 -0.013709
v 0.017269 0.008817 -0.013710
v 0.017268 0.008815 -0.013711
v 0.017230 0.008817 -0.013710
v 0.017268 0.008815 -0.013711
v 0.017267 0.008813 -0.013712
v 0.017230 0.008814 -0.013712
v 0.017230 0.008814 -0.013712
v 0.017266 0.008811 -0.013712
v 0.017230 0.008810 -0.013712
v 0.017230 0.008810 -0.013712
v 0.017266 0.008811 -0.013712
v 0.017266 0.008809 -0.013712
v 0.017230 0.008807 -0.013713
v 0.017230 0.008810 -0.013712
v 0.017265 0.008807 -0.013713
v 0.017230 0.008803 -0.013713
v 0.017230 0.008807 -0.013713
v 0.017265 0.008805 -0.013713
v 0.017265 0.008801 -0.013713
v 0.017230 0.008803 -0.013713
v 0.017265 0.008803 -0.013713
v 0.017267 0.008793 -0.013712
v 0.017268 0.008791 -0.013711
v 0.017230 0.008792 -0.013712
v 0.017281 0.008776 -0.013703
v 0.017230 0.008776 -0.013703
v 0.017279 0.008777 -0.013704
v 0.017279 0.008777 -0.013704
v 0.017230 0.008776 -0.013703
v 0.017278 0.008778 -0.013705
v 0.017278 0.008778 -0.013705
v 0.017230 0.008776 -0.013703
v 0.017230 0.008779 -0.013705
v 0.017276 0.008780 -0.013706
v 0.017278 0.008778 -0.013705
v 0.017230 0.008779 -0.013705
v 0.017275 0.008781 -0.013706
v 0.017276 0.008780 -0.013706
v 0.017230 0.008779 -0.013705
v 0.017273 0.008782 -0.013707
v 0.017275 0.008781 -0.013706
v 0.017230 0.008779 -0.013705
v 0.017230 0.008782 -0.013707
v 0.017273 0.008782 -0.013707
v 0.017230 0.008779 -0.013705
v 0.017230 0.008782 -0.013707
v 0.017272 0.008784 -0.013708
v 0.017273 0.008782 -0.013707
v 0.017230 0.008782 -0.013707
v 0.017271 0.008785 -0.013709
v 0.017272 0.008784 -0.013708
v 0.017230 0.008782 -0.013707
v 0.017230 0.008785 -0.013709
v 0.017271 0.008785 -0.013709
v 0.017271 0.008785 -0.013709
v 0.017230 0.008785 -0.013709
v 0.017270 0.008787 -0.013710
v 0.017230 0.008789 -0.013710
v 0.017268 0.008791 -0.013711
v 0.017269 0.008789 -0.013710
v 0.017270 0.008787 -0.013710
v 0.017230 0.008789 -0.013710
v 0.017269 0.008789 -0.013710
v 0.017230 0.008789 -0.013710
v 0.017230 0.008792 -0.013712
v 0.017268 0.008791 -0.013711
v 0.017266 0.008795 -0.013712
v 0.017267 0.008793 -0.013712
v 0.017230 0.008792 -0.013712
v 0.017230 0.008796 -0.013712
v 0.017266 0.008795 -0.013712
v 0.017230 0.008792 -0.013712
v 0.017265 0.008799 -0.013713
v 0.017230 0.008796 -0.013712
v 0.017230 0.008799 -0.013713
v 0.017265 0.008799 -0.013713
v 0.017266 0.008797 -0.013712
v 0.017230 0.008796 -0.013712
v 0.017265 0.008801 -0.013713
v 0.017265 0.008799 -0.013713
v 0.017230 0.008799 -0.013713
v 0.017230 0.008803 -0.013713
v 0.017265 0.008801 -0.013713
v 0.017230 0.008799 -0.013713
v 0.017265 0.008805 -0.013713
v 0.017265 0.008803 -0.013713
v 0.017230 0.008803 -0.013713
v 0.017265 0.008807 -0.013713
v 0.017265 0.008805 -0.013713
v 0.017230 0.008807 -0.013713
v 0.017266 0.008809 -0.013712
v 0.017265 0.008807 -0.013713
v 0.017230 0.008810 -0.013712
v 0.017266 0.008811 -0.013712
v 0.017230 0.008814 -0.013712
v 0.017267 0.008813 -0.013712
v 0.017230 0.008814 -0.013712
v 0.017230 0.008817 -0.013710
v 0.017268 0.008815 -0.013711
v 0.017230 0.008817 -0.013710
v 0.017270 0.008819 -0.013710
v 0.017269 0.008817 -0.013710
v 0.017230 0.008817 -0.013710
v 0.017230 0.008821 -0.013709
v 0.017270 0.008819 -0.013710
v 0.017230 0.008821 -0.013709
v 0.017230 0.008824 -0.013707
v 0.017271 0.008821 -0.013709
v 0.017230 0.008824 -0.013707
v 0.017273 0.008824 -0.013707
v 0.017272 0.008822 -0.013708
v 0.017230 0.008796 -0.013712
v 0.017266 0.008797 -0.013712
v 0.017266 0.008795 -0.013712
v 0.017230 0.008789 -0.013710
v 0.017270 0.008787 -0.013710
v 0.017230 0.008785 -0.013709
v 0.017353 0.008816 -0.013711
v 0.017351 0.008818 -0.013710
v 0.017372 0.008817 -0.013711
v 0.017341 0.008815 -0.013711
v 0.017428 0.008817 -0.013710
v 0.017428 0.008820 -0.013709
v 0.017445 0.008818 -0.013710
v 0.017422 0.008816 -0.013711
v 0.017417 0.008819 -0.013710
v 0.017414 0.008814 -0.013711
v 0.017409 0.008816 -0.013711
v 0.017402 0.008819 -0.013710
v 0.017395 0.008816 -0.013711
v 0.017410 0.008822 -0.013708
v 0.017439 0.008808 -0.013713
v 0.017435 0.008805 -0.013713
v 0.017429 0.008809 -0.013713
v 0.017453 0.008810 -0.013712
v 0.017460 0.008807 -0.013713
v 0.017425 0.008791 -0.013711
v 0.017429 0.008788 -0.013710
v 0.017407 0.008790 -0.013711
v 0.017432 0.008792 -0.013711
v 0.017398 0.008785 -0.013709
v 0.017393 0.008782 -0.013707
v 0.017380 0.008784 -0.013708
v 0.017410 0.008786 -0.013709
v 0.017412 0.008783 -0.013708
v 0.017386 0.008780 -0.013706
v 0.017414 0.008780 -0.013706
v 0.017343 0.008791 -0.013711
v 0.017343 0.008794 -0.013712
v 0.017350 0.008792 -0.013712
v 0.017336 0.008787 -0.013710
v 0.017322 0.008791 -0.013711
v 0.017334 0.008785 -0.013709
v 0.017320 0.008787 -0.013710
v 0.017352 0.008789 -0.013710
v 0.017355 0.008785 -0.013709
v 0.017329 0.008813 -0.013712
v 0.017324 0.008811 -0.013712
v 0.017323 0.008813 -0.013712
v 0.017348 0.008812 -0.013712
v 0.017442 0.008815 -0.013711
v 0.017438 0.008812 -0.013712
v 0.017434 0.008816 -0.013711
v 0.017455 0.008816 -0.013711
v 0.017460 0.008814 -0.013712
v 0.017460 0.008810 -0.013712
v 0.017460 0.008807 -0.013713
v 0.017460 0.008814 -0.013712
v 0.017426 0.008813 -0.013712
v 0.017460 0.008814 -0.013712
v 0.017460 0.008810 -0.013712
v 0.017460 0.008817 -0.013710
v 0.017460 0.008814 -0.013712
v 0.017460 0.008817 -0.013710
v 0.017432 0.008780 -0.013706
v 0.017433 0.008782 -0.013707
v 0.017441 0.008782 -0.013707
v 0.017419 0.008778 -0.013704
v 0.017384 0.008776 -0.013703
v 0.017385 0.008778 -0.013704
v 0.017378 0.008778 -0.013704
v 0.017342 0.008779 -0.013705
v 0.017364 0.008781 -0.013706
v 0.017373 0.008785 -0.013709
v 0.017374 0.008788 -0.013710
v 0.017390 0.008788 -0.013710
v 0.017365 0.008784 -0.013708
v 0.017449 0.008787 -0.013709
v 0.017444 0.008784 -0.013708
v 0.017460 0.008785 -0.013709
v 0.017443 0.008790 -0.013711
v 0.017439 0.008793 -0.013712
v 0.017460 0.008792 -0.013712
v 0.017407 0.008798 -0.013713
v 0.017408 0.008801 -0.013713
v 0.017429 0.008798 -0.013713
v 0.017400 0.008796 -0.013712
v 0.017392 0.008798 -0.013713
v 0.017398 0.008793 -0.013712
v 0.017387 0.008796 -0.013712
v 0.017412 0.008796 -0.013712
v 0.017414 0.008793 -0.013712
v 0.017374 0.008791 -0.013711
v 0.017381 0.008793 -0.013712
v 0.017388 0.008789 -0.013711
v 0.017368 0.008793 -0.013712
v 0.017371 0.008796 -0.013712
v 0.017377 0.008799 -0.013713
v 0.017433 0.008822 -0.013708
v 0.017432 0.008825 -0.013707
v 0.017440 0.008822 -0.013708
v 0.017416 0.008822 -0.013708
v 0.017444 0.008780 -0.013705
v 0.017460 0.008782 -0.013707
v 0.017336 0.008797 -0.013713
v 0.017341 0.008800 -0.013713
v 0.017354 0.008798 -0.013713
v 0.017324 0.008797 -0.013712
v 0.017325 0.008799 -0.013713
v 0.017344 0.008803 -0.013713
v 0.017360 0.008802 -0.013713
v 0.017325 0.008799 -0.013713
v 0.017325 0.008801 -0.013713
v 0.017338 0.008809 -0.013713
v 0.017341 0.008806 -0.013713
v 0.017325 0.008807 -0.013713
v 0.017354 0.008808 -0.013713
v 0.017325 0.008803 -0.013713
v 0.017356 0.008805 -0.013713
v 0.017383 0.008803 -0.013713
v 0.017389 0.008806 -0.013713
v 0.017399 0.008803 -0.013713
v 0.017369 0.008803 -0.013713
v 0.017377 0.008807 -0.013713
v 0.017389 0.008800 -0.013713
v 0.017391 0.008809 -0.013713
v 0.017412 0.008807 -0.013713
v 0.017444 0.008797 -0.013713
v 0.017441 0.008801 -0.013713
v 0.017460 0.008799 -0.013713
v 0.017432 0.008795 -0.013712
v 0.017427 0.008795 -0.013712
v 0.017347 0.008783 -0.013707
v 0.017330 0.008781 -0.013706
v 0.017309 0.008776 -0.013703
v 0.017311 0.008777 -0.013704
v 0.017425 0.008785 -0.013708
v 0.017355 0.008795 -0.013712
v 0.017460 0.008821 -0.013709
v 0.017460 0.008824 -0.013707
v 0.017437 0.008828 -0.013705
v 0.017419 0.008828 -0.013704
v 0.017460 0.008830 -0.013703
v 0.017460 0.008827 -0.013705
v 0.017460 0.008830 -0.013703
v 0.017411 0.008825 -0.013706
v 0.017387 0.008826 -0.013705
v 0.017460 0.008827 -0.013705
v 0.017353 0.008822 -0.013708
v 0.017319 0.008821 -0.013709
v 0.017364 0.008824 -0.013707
v 0.017368 0.008821 -0.013709
v 0.017345 0.008825 -0.013707
v 0.017353 0.008827 -0.013705
v 0.017318 0.008822 -0.013708
v 0.017317 0.008824 -0.013707
v 0.017371 0.008810 -0.013712
v 0.017368 0.008814 -0.013712
v 0.017383 0.008814 -0.013711
v 0.017414 0.008803 -0.013713
v 0.017390 0.008813 -0.013712
v 0.017389 0.008819 -0.013710
v 0.017395 0.008823 -0.013708
v 0.017380 0.008816 -0.013711
v 0.017417 0.008811 -0.013712
v 0.017460 0.008803 -0.013713
v 0.017318 0.008784 -0.013708
v 0.017314 0.008780 -0.013706
v 0.017315 0.008781 -0.013706
v 0.017312 0.008779 -0.013705
v 0.017314 0.008780 -0.013706
v 0.017460 0.008785 -0.013709
v 0.017460 0.008782 -0.013707
v 0.017460 0.008779 -0.013705
v 0.017460 0.008776 -0.013703
v 0.017325 0.008803 -0.013713
v 0.017325 0.008805 -0.013713
v 0.017324 0.008811 -0.013712
v 0.017324 0.008809 -0.013712
v 0.017325 0.008807 -0.013713
v 0.017325 0.008805 -0.013713
v 0.017460 0.008796 -0.013712
v 0.017460 0.008799 -0.013713
v 0.017460 0.008814 -0.013712
v 0.017460 0.008807 -0.013713
v 0.017320 0.008819 -0.013710
v 0.017321 0.008817 -0.013710
v 0.017322 0.008815 -0.013711
v 0.017460 0.008821 -0.013709
v 0.017460 0.008824 -0.013707
v 0.017315 0.008825 -0.013706
v 0.017317 0.008824 -0.013707
v 0.017460 0.008779 -0.013705
v 0.017460 0.008782 -0.013707
v 0.017312 0.008779 -0.013705
v 0.017311 0.008777 -0.013704
v 0.017460 0.008789 -0.013710
v 0.017460 0.008785 -0.013709
v 0.017320 0.008787 -0.013710
v 0.017321 0.008789 -0.013710
v 0.017324 0.008795 -0.013712
v 0.017325 0.008807 -0.013713
v 0.017324 0.008809 -0.013712
v 0.017460 0.008830 -0.013703
v 0.017321 0.008817 -0.013710
v 0.017320 0.008819 -0.013710
v 0.017311 0.008829 -0.013704
v 0.017309 0.008830 -0.013703
v 0.017309 0.008830 -0.013703
v 0.017312 0.008828 -0.013705
v 0.017311 0.008829 -0.013704
v 0.017314 0.008826 -0.013706
v 0.017312 0.008828 -0.013705
v 0.017314 0.008826 -0.013706
v 0.017315 0.008825 -0.013706
v 0.017314 0.008826 -0.013706
v 0.017319 0.008821 -0.013709
v 0.017319 0.008821 -0.013709
v 0.017318 0.008822 -0.013708
v 0.017320 0.008819 -0.013710
v 0.017319 0.008821 -0.013709
v 0.017460 0.008807 -0.013713
v 0.017460 0.008803 -0.013713
v 0.017322 0.008815 -0.013711
v 0.017323 0.008813 -0.013712
v 0.017322 0.008815 -0.013711
v 0.017460 0.008799 -0.013713
v 0.017460 0.008803 -0.013713
v 0.017324 0.008811 -0.013712
v 0.017460 0.008792 -0.013712
v 0.017460 0.008796 -0.013712
v 0.017460 0.008796 -0.013712
v 0.017460 0.008789 -0.013710
v 0.017460 0.008792 -0.013712
v 0.017325 0.008803 -0.013713
v 0.017460 0.008782 -0.013707
v 0.017325 0.008799 -0.013713
v 0.017460 0.008789 -0.013710
v 0.017324 0.008797 -0.013712
v 0.017324 0.008795 -0.013712
v 0.017323 0.008793 -0.013712
v 0.017322 0.008791 -0.013711
v 0.017460 0.008776 -0.013703
v 0.017309 0.008776 -0.013703
v 0.017321 0.008789 -0.013710
v 0.017322 0.008791 -0.013711
v 0.017312 0.008779 -0.013705
v 0.017315 0.008781 -0.013706
v 0.017317 0.008782 -0.013707
v 0.017317 0.008782 -0.013707
v 0.017318 0.008784 -0.013708
v 0.017319 0.008785 -0.013709
v 0.017318 0.008784 -0.013708
v 0.017319 0.008785 -0.013709
v 0.017320 0.008787 -0.013710
v 0.017460 0.008776 -0.013703
v 0.017323 0.008793 -0.013712
v 0.017323 0.008793 -0.013712
v 0.017324 0.008795 -0.013712
v 0.017325 0.008801 -0.013713
v 0.017325 0.008803 -0.013713
v 0.017460 0.008827 -0.013705
v 0.017460 0.008824 -0.013707
v 0.017460 0.008821 -0.013709
v 0.017460 0.008817 -0.013710
v 0.017414 0.008757 -0.013683
v 0.017411 0.008761 -0.013687
v 0.017460 0.008760 -0.013686
v 0.017404 0.008756 -0.013682
v 0.017344 0.008774 -0.013701
v 0.017339 0.008770 -0.013697
v 0.017306 0.008775 -0.013702
v 0.017381 0.008770 -0.013697
v 0.017297 0.008738 -0.013652
v 0.017292 0.008740 -0.013657
v 0.017308 0.008739 -0.013653
v 0.017289 0.008736 -0.013647
v 0.017230 0.008738 -0.013651
v 0.017382 0.008757 -0.013683
v 0.017376 0.008754 -0.013679
v 0.017358 0.008757 -0.013682
v 0.017387 0.008747 -0.013669
v 0.017381 0.008744 -0.013663
v 0.017358 0.008746 -0.013666
v 0.017406 0.008749 -0.013671
v 0.017416 0.008746 -0.013666
v 0.017398 0.008742 -0.013659
v 0.017395 0.008739 -0.013654
v 0.017383 0.008741 -0.013658
v 0.017460 0.008742 -0.013659
v 0.017460 0.008749 -0.013671
v 0.017264 0.008743 -0.013661
v 0.017271 0.008746 -0.013666
v 0.017304 0.008744 -0.013663
v 0.017230 0.008742 -0.013659
v 0.017230 0.008744 -0.013663
v 0.017278 0.008749 -0.013671
v 0.017230 0.008744 -0.013663
v 0.017230 0.008747 -0.013667
v 0.017385 0.008751 -0.013674
v 0.017412 0.008753 -0.013677
v 0.017373 0.008749 -0.013671
v 0.017355 0.008753 -0.013676
v 0.017340 0.008749 -0.013671
v 0.017355 0.008744 -0.013663
v 0.017317 0.008748 -0.013670
v 0.017306 0.008751 -0.013674
v 0.017300 0.008754 -0.013679
v 0.017338 0.008753 -0.013677
v 0.017282 0.008753 -0.013677
v 0.017348 0.008754 -0.013679
v 0.017326 0.008756 -0.013681
v 0.017329 0.008760 -0.013686
v 0.017294 0.008759 -0.013685
v 0.017373 0.008741 -0.013657
v 0.017319 0.008741 -0.013657
v 0.017343 0.008740 -0.013655
v 0.017365 0.008761 -0.013687
v 0.017348 0.008761 -0.013688
v 0.017390 0.008765 -0.013692
v 0.017398 0.008768 -0.013695
v 0.017423 0.008765 -0.013692
v 0.017362 0.008766 -0.013693
v 0.017460 0.008766 -0.013693
v 0.017460 0.008763 -0.013690
v 0.017426 0.008755 -0.013679
v 0.017460 0.008752 -0.013675
v 0.017354 0.008739 -0.013653
v 0.017344 0.008736 -0.013647
v 0.017283 0.008771 -0.013698
v 0.017288 0.008774 -0.013701
v 0.017289 0.008774 -0.013700
v 0.017272 0.008765 -0.013692
v 0.017230 0.008770 -0.013697
v 0.017279 0.008761 -0.013687
v 0.017230 0.008763 -0.013690
v 0.017307 0.008769 -0.013695
v 0.017305 0.008763 -0.013690
v 0.017230 0.008752 -0.013675
v 0.017269 0.008757 -0.013682
v 0.017230 0.008754 -0.013679
v 0.017230 0.008757 -0.013683
v 0.017388 0.008771 -0.013698
v 0.017460 0.008776 -0.013703
v 0.017331 0.008765 -0.013691
v 0.017230 0.008736 -0.013647
v 0.017230 0.008738 -0.013651
v 0.017230 0.008740 -0.013655
v 0.017400 0.008736 -0.013646
v 0.017460 0.008736 -0.013647
v 0.017460 0.008738 -0.013651
v 0.017230 0.008736 -0.013647
v 0.017230 0.008734 -0.013642
v 0.017230 0.008738 -0.013651
v 0.017230 0.008736 -0.013647
v 0.017230 0.008749 -0.013671
v 0.017230 0.008752 -0.013675
v 0.017230 0.008749 -0.013671
v 0.017230 0.008747 -0.013667
v 0.017460 0.008757 -0.013683
v 0.017460 0.008749 -0.013671
v 0.017460 0.008747 -0.013667
v 0.017460 0.008740 -0.013655
v 0.017460 0.008742 -0.013659
v 0.017230 0.008760 -0.013686
v 0.017230 0.008757 -0.013683
v 0.017460 0.008770 -0.013697
v 0.017460 0.008773 -0.013700
v 0.017460 0.008752 -0.013675
v 0.017297 0.008773 -0.013700
v 0.017299 0.008773 -0.013700
v 0.017295 0.008773 -0.013700
v 0.017297 0.008773 -0.013700
v 0.017460 0.008763 -0.013690
v 0.017460 0.008760 -0.013686
v 0.017230 0.008749 -0.013671
v 0.017300 0.008774 -0.013700
v 0.017299 0.008773 -0.013700
v 0.017230 0.008760 -0.013686
v 0.017230 0.008776 -0.013703
v 0.017281 0.008776 -0.013703
v 0.017230 0.008773 -0.013700
v 0.017230 0.008773 -0.013700
v 0.017281 0.008776 -0.013703
v 0.017283 0.008776 -0.013702
v 0.017284 0.008775 -0.013702
v 0.017230 0.008773 -0.013700
v 0.017283 0.008776 -0.013702
v 0.017284 0.008775 -0.013702
v 0.017286 0.008774 -0.013701
v 0.017286 0.008774 -0.013701
v 0.017288 0.008774 -0.013701
v 0.017293 0.008773 -0.013700
v 0.017291 0.008773 -0.013700
v 0.017293 0.008773 -0.013700
v 0.017295 0.008773 -0.013700
v 0.017230 0.008770 -0.013697
v 0.017230 0.008766 -0.013693
v 0.017230 0.008763 -0.013690
v 0.017230 0.008766 -0.013693
v 0.017460 0.008752 -0.013675
v 0.017460 0.008749 -0.013671
v 0.017460 0.008747 -0.013667
v 0.017460 0.008744 -0.013663
v 0.017230 0.008752 -0.013675
v 0.017230 0.008754 -0.013679
v 0.017230 0.008740 -0.013655
v 0.017230 0.008738 -0.013651
v 0.017230 0.008742 -0.013659
v 0.017230 0.008740 -0.013655
v 0.017460 0.008736 -0.013647
v 0.017460 0.008734 -0.013642
v 0.017230 0.008744 -0.013663
v 0.017460 0.008736 -0.013647
v 0.017460 0.008738 -0.013651
v 0.017460 0.008740 -0.013655
v 0.017230 0.008754 -0.013679
v 0.017460 0.008752 -0.013675
v 0.017460 0.008754 -0.013679
v 0.017302 0.008774 -0.013701
v 0.017300 0.008774 -0.013700
v 0.017460 0.008757 -0.013683
v 0.017460 0.008760 -0.013686
v 0.017460 0.008770 -0.013697
v 0.017460 0.008773 -0.013700
v 0.017460 0.008773 -0.013700
v 0.017460 0.008776 -0.013703
v 0.017460 0.008760 -0.013686
v 0.017309 0.008776 -0.013703
v 0.017309 0.008776 -0.013703
v 0.017307 0.008776 -0.013702
v 0.017307 0.008776 -0.013702
v 0.017306 0.008775 -0.013702
v 0.017306 0.008775 -0.013702
v 0.017304 0.008774 -0.013701
v 0.017304 0.008774 -0.013701
v 0.017302 0.008774 -0.013701
v 0.017460 0.008770 -0.013697
v 0.017460 0.008766 -0.013693
v 0.017460 0.008757 -0.013683
v 0.017460 0.008754 -0.013679
v 0.017460 0.008740 -0.013655
v 0.017460 0.008738 -0.013651
v 0.017460 0.008744 -0.013663
v 0.017460 0.008742 -0.013659
v 0.017295 0.008773 -0.013700
v 0.017230 0.008760 -0.013686
v 0.017230 0.008763 -0.013690
v 0.017230 0.008770 -0.013697
v 0.017230 0.008773 -0.013700
v 0.017289 0.008774 -0.013700
v 0.017291 0.008773 -0.013700
v 0.017302 0.008774 -0.013701
v 0.017230 0.008773 -0.013700
v 0.017284 0.008775 -0.013702
vn -1.0000 -0.0000 -0.0000
vn -1.0000 -0.0001 -0.0000
vn -1.0000 -0.0000 0.0001
vn 1.0000 -0.0001 -0.0000
vn 1.0000 -0.0000 -0.0000
vn 1.0000 0.0001 -0.0000
vn 1.0000 -0.0000 0.0001
vn 1.0000 -0.0001 -0.0001
vn 1.0000 -0.0002 -0.0000
vn 1.0000 -0.0003 -0.0000
vn 1.0000 0.0002 -0.0000
vn -0.0000 -1.0000 -0.0000
vn -0.0000 -1.0000 -0.0001
vn -0.0000 -1.0000 -0.0002
vn -0.9977 -0.0680 0.0002
vn -1.0000 -0.0020 -0.0000
vn -0.9897 -0.1430 -0.0000
vn -0.9974 -0.0726 -0.0000
vn -0.9771 -0.2127 -0.0000
vn -0.9908 -0.1355 -0.0000
vn -0.9793 -0.2024 -0.0000
vn -0.9597 -0.2810 -0.0000
vn -0.9633 -0.2685 0.0001
vn -0.9376 -0.3477 -0.0000
vn -0.9428 -0.3333 -0.0000
vn -0.9111 -0.4121 -0.0000
vn -0.9180 -0.3965 0.0002
vn -0.8890 -0.4579 0.0001
vn -0.8806 -0.4738 -0.0000
vn -0.8464 -0.5325 -0.0000
vn -0.8559 -0.5172 0.0002
vn -0.8090 -0.5878 -0.0000
vn -0.8188 -0.5741 -0.0000
vn -0.7779 -0.6284 -0.0002
vn -0.7685 -0.6399 -0.0000
vn -0.7250 -0.6887 -0.0000
vn -0.6787 -0.7344 -0.0000
vn -0.7334 -0.6798 -0.0000
vn -0.5227 -0.8525 -0.0000
vn -0.5240 -0.8517 -0.0000
vn -0.4650 -0.8853 -0.0000
vn -0.5806 -0.8142 -0.0001
vn -0.5775 -0.8164 -0.0000
vn -0.6345 -0.7729 -0.0002
vn -0.6295 -0.7770 -0.0000
vn -0.6856 -0.7280 -0.0003
vn -0.9976 0.0690 -0.0000
vn -0.9967 0.0811 -0.0000
vn -0.9902 0.1394 -0.0000
vn -0.9868 0.1617 -0.0000
vn -0.9779 0.2091 -0.0000
vn -0.9705 0.2412 0.0001
vn -0.9607 0.2775 -0.0000
vn -0.9389 0.3443 -0.0000
vn -0.9477 0.3191 0.0002
vn -0.9187 0.3949 0.0002
vn -0.9126 0.4089 -0.0000
vn -0.8822 0.4709 -0.0000
vn -0.8837 0.4680 0.0001
vn -0.8481 0.5299 -0.0000
vn -0.8428 0.5382 0.0001
vn -0.7964 0.6048 -0.0000
vn -0.8106 0.5856 -0.0000
vn -0.7447 0.6674 -0.0000
vn -0.6796 0.7336 -0.0000
vn -0.6882 0.7255 -0.0003
vn -0.7263 0.6874 -0.0000
vn -0.7699 0.6381 -0.0000
vn -0.6301 0.7765 -0.0000
vn -0.5779 0.8161 -0.0000
vn -0.5228 0.8525 -0.0000
vn -0.5618 0.8273 -0.0001
vn -0.6270 0.7790 -0.0001
vn -0.4650 0.8853 -0.0000
vn -0.4927 0.8702 -0.0001
vn -0.4124 0.9110 -0.0000
vn -0.4208 0.9072 0.0001
vn -0.3576 0.9339 -0.0000
vn -0.3457 0.9383 -0.0001
vn -0.3008 0.9537 -0.0000
vn -0.2684 0.9633 -0.0001
vn -0.2423 0.9702 -0.0000
vn -0.1895 0.9819 -0.0001
vn -0.1825 0.9832 -0.0000
vn -0.1220 0.9925 -0.0000
vn -0.0605 0.9982 -0.0000
vn -0.1093 0.9940 -0.0002
vn -0.0283 0.9996 -0.0003
vn 0.0008 1.0000 -0.0000
vn 0.0624 0.9981 -0.0000
vn 0.0530 0.9986 -0.0000
vn 0.1337 0.9910 0.0001
vn 0.1235 0.9923 -0.0000
vn 0.2137 0.9769 -0.0002
vn 0.1836 0.9830 -0.0000
vn 0.2922 0.9564 -0.0000
vn 0.2433 0.9700 -0.0000
vn 0.3687 0.9296 -0.0002
vn 0.3014 0.9535 -0.0000
vn 0.3579 0.9338 -0.0000
vn 0.4429 0.8966 -0.0003
vn 0.4125 0.9110 -0.0000
vn 0.4649 0.8854 -0.0000
vn 0.5142 0.8577 -0.0003
vn 0.5226 0.8526 -0.0000
vn 0.5821 0.8131 -0.0002
vn 0.5775 0.8164 -0.0000
vn 0.6295 0.7770 -0.0000
vn 0.6461 0.7632 -0.0000
vn 0.7058 0.7084 -0.0001
vn 0.6787 0.7344 -0.0000
vn 0.7250 0.6887 -0.0000
vn 0.7609 0.6488 0.0001
vn 0.7685 0.6399 -0.0000
vn 0.8090 0.5878 -0.0000
vn 0.8112 0.5848 -0.0000
vn 0.8559 0.5171 0.0001
vn 0.8949 0.4462 0.0003
vn 0.8464 0.5325 -0.0000
vn 0.8806 0.4738 -0.0000
vn 0.9282 0.3720 0.0002
vn 0.9111 0.4121 -0.0000
vn 0.9376 0.3477 -0.0000
vn 0.9553 0.2955 0.0003
vn 0.9597 0.2810 -0.0000
vn 0.9905 0.1374 0.0001
vn 0.9762 0.2171 0.0004
vn 0.9771 0.2127 -0.0000
vn 0.9897 0.1430 -0.0000
vn 0.9779 -0.2091 -0.0000
vn 0.9607 -0.2775 -0.0000
vn 0.9642 -0.2651 -0.0000
vn 0.9984 0.0565 -0.0002
vn 0.9974 0.0726 -0.0000
vn 0.8822 -0.4708 -0.0000
vn 0.8481 -0.5299 -0.0000
vn 0.8719 -0.4897 -0.0002
vn 0.7262 -0.6875 -0.0000
vn 0.7280 -0.6856 -0.0000
vn 0.7813 -0.6242 -0.0000
vn 0.5228 -0.8524 -0.0000
vn 0.6073 -0.7945 -0.0001
vn 0.5778 -0.8162 -0.0000
vn 0.4713 -0.8820 -0.0018
vn 0.4125 -0.9110 -0.0000
vn 0.3981 -0.9173 0.0002
vn 0.2433 -0.9700 -0.0000
vn 0.2447 -0.9696 -0.0000
vn 0.3226 -0.9465 -0.0000
vn 0.1235 -0.9923 -0.0000
vn 0.1652 -0.9863 -0.0002
vn 0.1839 -0.9829 -0.0000
vn 0.0624 -0.9981 -0.0000
vn 0.0035 -1.0000 -0.0003
vn 0.0846 -0.9964 -0.0003
vn 0.0010 -1.0000 -0.0000
vn -0.0606 -0.9982 -0.0000
vn -0.1218 -0.9925 -0.0000
vn -0.0776 -0.9970 -0.0000
vn -0.1825 -0.9832 -0.0000
vn -0.1582 -0.9874 -0.0002
vn -0.2423 -0.9702 -0.0000
vn -0.2378 -0.9713 0.0001
vn -0.3008 -0.9537 -0.0000
vn -0.3159 -0.9488 -0.0004
vn -0.4124 -0.9110 -0.0000
vn -0.3916 -0.9201 0.0002
vn -0.3576 -0.9339 0.0005
vn 0.3014 -0.9535 -0.0000
vn 0.3579 -0.9337 -0.0000
vn 0.4649 -0.8854 -0.0000
vn 0.5413 -0.8408 0.0003
vn 0.6302 -0.7765 -0.0000
vn 0.6699 -0.7424 0.0001
vn 0.6796 -0.7336 -0.0000
vn 0.7699 -0.6382 -0.0000
vn 0.8293 -0.5588 0.0001
vn 0.8106 -0.5857 -0.0000
vn 0.9087 -0.4174 0.0001
vn 0.9126 -0.4088 -0.0000
vn 0.9396 -0.3424 0.0001
vn 0.9389 -0.3442 -0.0000
vn 0.9825 -0.1861 -0.0000
vn 0.9902 -0.1394 -0.0000
vn 0.9944 -0.1057 -0.0002
vn 0.9976 -0.0690 -0.0000
vn 0.9997 -0.0247 -0.0000
vn 1.0000 0.0020 0.0001
vn -0.0000 1.0000 -0.0000
vn -0.0000 1.0000 -0.0002
vn -0.0000 1.0000 -0.0001
vn -0.0000 -0.0000 1.0000
vn -0.0001 -0.0000 1.0000
vn 0.0001 -0.0000 1.0000
vn 0.0002 -0.0000 1.0000
vn -0.0000 0.8154 -0.5788
vn -0.0001 0.8016 -0.5979
vn -0.0000 0.8131 -0.5821
vn -0.0000 0.8087 -0.5882
vn -0.0000 0.7651 -0.6439
vn -0.0000 0.7879 -0.6158
vn -0.0000 0.7593 -0.6508
vn -0.0000 0.7473 -0.6645
vn -0.0000 0.7621 -0.6475
vn -0.0000 0.7216 -0.6923
vn -0.0000 0.6915 -0.7224
vn -0.0000 0.7247 -0.6890
vn -0.0000 0.7197 -0.6943
vn -0.0000 0.6901 -0.7237
vn -0.0000 0.7355 -0.6775
vn -0.0000 0.7912 -0.6115
vn -0.0000 0.7829 -0.6221
vn -0.0000 0.7435 -0.6688
vn -0.0000 0.7465 -0.6654
vn -0.0000 0.9023 -0.4311
vn -0.0000 0.8890 -0.4578
vn -0.0000 0.9062 -0.4229
vn -0.0000 0.9001 -0.4357
vn -0.0000 0.7884 -0.6151
vn -0.0003 0.8130 -0.5822
vn -0.0000 0.7951 -0.6065
vn -0.0000 0.7839 -0.6208
vn -0.0000 0.8017 -0.5977
vn 0.0001 0.7671 -0.6415
vn -0.0000 0.7391 -0.6736
vn -0.0004 0.7695 -0.6386
vn -0.0000 0.8016 -0.5978
vn -0.0000 0.8352 -0.5500
vn -0.0000 0.8243 -0.5662
vn -0.0000 0.8188 -0.5741
vn -0.0000 0.8457 -0.5337
vn -0.0001 0.8660 -0.5001
vn -0.0000 0.8559 -0.5172
vn -0.0000 0.8351 -0.5501
vn -0.0000 0.8558 -0.5172
vn -0.0000 0.8796 -0.4757
vn -0.0000 0.8978 -0.4405
vn -0.0000 0.8934 -0.4492
vn -0.0000 0.8835 -0.4684
vn -0.0000 0.8658 -0.5004
vn -0.0000 0.8508 -0.5255
vn -0.0000 0.8753 -0.4835
vn -0.0001 0.8560 -0.5170
vn -0.0001 0.8657 -0.5006
vn -0.0000 0.8351 -0.5500
vn -0.0000 0.8658 -0.5005
vn -0.0000 0.8422 -0.5392
vn -0.0000 0.8093 -0.5873
vn -0.0000 0.7899 -0.6133
vn -0.0000 0.7654 -0.6435
vn -0.0000 0.8860 -0.4636
vn -0.0000 0.8800 -0.4750
vn -0.0000 0.8869 -0.4620
vn -0.0001 0.8936 -0.4489
vn -0.0000 0.9168 -0.3994
vn -0.0000 0.8997 -0.4366
vn -0.0000 0.9181 -0.3964
vn -0.0000 0.9194 -0.3934
vn -0.0000 0.7064 -0.7078
vn -0.0000 0.6640 -0.7477
vn -0.0001 0.7381 -0.6747
vn -0.0000 0.7023 -0.7119
vn -0.0000 0.7039 -0.7103
vn -0.0000 0.6823 -0.7311
vn -0.0000 0.6798 -0.7334
vn -0.0000 0.7839 -0.6209
vn -0.0000 0.7655 -0.6434
vn -0.0000 0.6851 -0.7284
vn -0.0000 0.7354 -0.6776
vn -0.0000 0.7268 -0.6869
vn -0.0000 0.7464 -0.6655
vn -0.0000 0.6688 -0.7434
vn -0.0000 0.6730 -0.7396
vn -0.0000 0.7065 -0.7077
vn -0.0000 0.6855 -0.7281
vn -0.0000 0.8935 -0.4491
vn -0.0000 0.8754 -0.4835
vn -0.0000 0.7592 -0.6508
vn -0.0000 0.6689 -0.7434
vn -0.0000 0.6855 -0.7280
vn -0.0000 0.6731 -0.7396
vn -0.0000 0.6687 -0.7435
vn -0.0000 0.6640 -0.7478
vn -0.0000 0.6854 -0.7281
vn -0.0000 0.6767 -0.7362
vn -0.0000 0.7267 -0.6869
vn -0.0000 0.6840 -0.7294
vn -0.0000 0.7464 -0.6654
vn -0.0000 0.7671 -0.6416
vn -0.0000 0.6840 -0.7295
vn -0.0001 0.7039 -0.7103
vn -0.0000 0.6822 -0.7311
vn -0.0000 0.6688 -0.7435
vn -0.0000 0.6768 -0.7362
vn -0.0000 0.8352 -0.5499
vn -0.0000 0.9293 -0.3694
vn -0.0000 0.9061 -0.4230
vn -0.0000 0.8797 -0.4756
vn -0.0000 0.6395 -0.7688
vn -0.0000 0.6124 -0.7906
vn -0.0000 0.6639 -0.7478
vn -0.0000 0.6393 -0.7689
vn -0.0000 0.6123 -0.7906
vn -0.0000 0.5935 -0.8048
vn -0.0000 0.5827 -0.8127
vn -0.0000 0.5936 -0.8048
vn -0.0000 0.5506 -0.8348
vn -0.0000 0.5160 -0.8566
vn -0.0000 0.5181 -0.8553
vn -0.0000 0.5935 -0.8049
vn -0.0000 0.4789 -0.8779
vn -0.0000 0.4394 -0.8983
vn -0.0000 0.5182 -0.8553
vn -0.0000 0.3974 -0.9176
vn -0.0000 0.4384 -0.8988
vn -0.0000 0.3530 -0.9356
vn -0.0000 0.3065 -0.9519
vn -0.0000 0.3551 -0.9348
vn -0.0000 0.2581 -0.9661
vn -0.0000 0.2690 -0.9631
vn -0.0000 0.2688 -0.9632
vn -0.0000 0.2080 -0.9781
vn -0.0000 0.1805 -0.9836
vn -0.0000 0.1568 -0.9876
vn -0.0000 0.0907 -0.9959
vn -0.0000 0.1045 -0.9945
vn -0.0000 -0.0000 -1.0000
vn -0.0000 0.0906 -0.9959
vn -0.0000 0.0517 -0.9987
vn -0.0000 -0.0544 -0.9985
vn -0.0000 -0.0014 -1.0000
vn -0.0000 -0.2606 -0.9654
vn -0.0000 -0.3089 -0.9511
vn -0.0000 -0.2691 -0.9631
vn -0.0000 -0.6640 -0.7477
vn -0.0000 -0.6395 -0.7688
vn -0.0000 -0.6126 -0.7904
vn -0.0000 -0.6640 -0.7478
vn -0.0000 -0.5935 -0.8048
vn -0.0000 -0.5831 -0.8124
vn -0.0000 -0.5935 -0.8049
vn -0.0000 -0.5513 -0.8343
vn -0.0000 -0.5832 -0.8123
vn -0.0000 -0.5170 -0.8560
vn -0.0000 -0.5181 -0.8553
vn -0.0000 -0.4803 -0.8771
vn -0.0000 -0.4411 -0.8974
vn -0.0000 -0.4385 -0.8987
vn -0.0000 -0.4411 -0.8975
vn -0.0000 -0.4384 -0.8988
vn -0.0000 -0.3994 -0.9168
vn -0.0000 -0.3551 -0.9348
vn -0.0000 -0.3553 -0.9347
vn -0.0000 -0.3552 -0.9348
vn -0.0000 -0.3090 -0.9511
vn -0.0000 -0.2106 -0.9776
vn -0.0000 -0.2606 -0.9655
vn -0.0000 -0.2689 -0.9632
vn -0.0000 -0.1805 -0.9836
vn -0.0000 -0.2688 -0.9632
vn -0.0000 -0.1073 -0.9942
vn -0.0000 -0.0907 -0.9959
vn -0.0000 -0.1595 -0.9872
vn -0.0000 -0.0545 -0.9985
vn -0.0000 -0.1072 -0.9942
vn -0.0000 -0.0906 -0.9959
vn -0.0000 0.1567 -0.9876
vn -0.0000 0.2081 -0.9781
vn -0.0000 0.2689 -0.9632
vn -0.0000 0.3531 -0.9356
vn -0.0000 0.3552 -0.9348
vn -0.0000 0.3974 -0.9177
vn -0.0000 -0.1594 -0.9872
vn -0.0000 0.3214 -0.9469
vn -0.0000 0.3856 -0.9227
vn -0.0000 0.3445 -0.9388
vn -0.0000 0.3058 -0.9521
vn -0.0000 0.3615 -0.9324
vn -0.0000 0.4277 -0.9039
vn -0.0001 0.3848 -0.9230
vn -0.0000 0.3305 -0.9438
vn -0.0000 0.3911 -0.9204
vn -0.0000 0.2743 -0.9616
vn -0.0000 0.3288 -0.9444
vn -0.0001 0.4021 -0.9156
vn -0.0000 0.3201 -0.9474
vn -0.0000 0.4667 -0.8844
vn -0.0000 0.1241 -0.9923
vn -0.0000 0.0524 -0.9986
vn -0.0000 0.1532 -0.9882
vn -0.0000 0.1656 -0.9862
vn -0.0000 -0.3053 -0.9523
vn -0.0000 -0.3725 -0.9280
vn -0.0000 -0.3138 -0.9495
vn -0.0000 -0.2802 -0.9599
vn -0.0000 -0.4394 -0.8983
vn -0.0000 -0.5169 -0.8561
vn -0.0000 -0.4775 -0.8786
vn -0.0000 -0.4170 -0.9089
vn -0.0000 -0.4943 -0.8693
vn -0.0000 -0.5766 -0.8170
vn -0.0000 -0.5735 -0.8192
vn -0.0000 -0.2966 -0.9550
vn -0.0000 -0.2312 -0.9729
vn -0.0000 -0.2661 -0.9639
vn -0.0000 -0.3900 -0.9208
vn -0.0000 -0.3065 -0.9519
vn -0.0000 -0.4541 -0.8909
vn -0.0000 -0.3974 -0.9176
vn -0.0000 -0.3613 -0.9324
vn -0.0000 -0.4471 -0.8945
vn -0.0000 0.2592 -0.9658
vn -0.0000 0.2106 -0.9776
vn -0.0000 0.2606 -0.9655
vn -0.0000 0.2207 -0.9753
vn -0.0000 0.2958 -0.9552
vn -0.0000 0.2250 -0.9744
vn -0.0000 0.3247 -0.9458
vn -0.0000 0.3367 -0.9416
vn -0.0000 0.1657 -0.9862
vn -0.0000 0.2515 -0.9679
vn -0.0000 -0.5803 -0.8144
vn -0.0000 -0.5171 -0.8559
vn -0.0000 -0.5247 -0.8513
vn -0.0000 -0.6347 -0.7728
vn -0.0000 -0.6357 -0.7719
vn -0.0000 -0.6175 -0.7866
vn -0.0000 -0.5999 -0.8001
vn -0.0000 -0.5495 -0.8355
vn -0.0000 -0.3709 -0.9287
vn -0.0000 -0.3817 -0.9243
vn -0.0000 -0.4681 -0.8837
vn -0.0000 -0.4123 -0.9110
vn -0.0000 -0.4682 -0.8836
vn -0.0000 -0.3278 -0.9448
vn -0.0000 -0.2543 -0.9671
vn -0.0000 -0.2690 -0.9631
vn -0.0000 -0.1375 -0.9905
vn -0.0000 -0.1172 -0.9931
vn -0.0000 -0.1871 -0.9823
vn 0.0001 -0.1304 -0.9915
vn -0.0000 -0.2595 -0.9657
vn -0.0000 -0.1870 -0.9824
vn -0.0000 -0.1703 -0.9854
vn -0.0000 -0.2618 -0.9651
vn -0.0000 -0.2974 -0.9547
vn -0.0000 -0.2615 -0.9652
vn -0.0000 -0.3380 -0.9412
vn -0.0000 -0.2582 -0.9661
vn -0.0000 -0.1701 -0.9854
vn -0.0000 -0.0992 -0.9951
vn -0.0000 0.4827 -0.8758
vn -0.0000 0.5463 -0.8376
vn -0.0000 0.4717 -0.8818
vn -0.0000 0.4857 -0.8741
vn -0.0000 -0.5860 -0.8103
vn 0.0002 -0.1546 -0.9880
vn -0.0001 -0.0741 -0.9973
vn -0.0000 -0.1204 -0.9927
vn -0.0000 -0.1543 -0.9880
vn -0.0000 -0.1567 -0.9876
vn -0.0000 -0.1046 -0.9945
vn -0.0000 0.0031 -1.0000
vn -0.0000 -0.0239 -0.9997
vn -0.0000 -0.0740 -0.9973
vn -0.0000 -0.1045 -0.9945
vn -0.0000 -0.0517 -0.9987
vn -0.0000 0.1535 -0.9881
vn -0.0000 0.0797 -0.9968
vn -0.0000 0.1072 -0.9942
vn -0.0000 0.1284 -0.9917
vn -0.0000 0.0014 -1.0000
vn -0.0000 0.0451 -0.9990
vn -0.0000 0.0043 -1.0000
vn -0.0000 0.0845 -0.9964
vn -0.0000 0.0044 -1.0000
vn 0.0001 0.0037 -1.0000
vn -0.0000 0.1084 -0.9941
vn -0.0000 -0.0752 -0.9972
vn -0.0000 0.1403 -0.9901
vn -0.0000 0.0992 -0.9951
vn -0.0000 -0.1427 -0.9898
vn -0.0000 -0.0519 -0.9987
vn -0.0000 -0.1947 -0.9809
vn -0.0001 -0.2115 -0.9774
vn -0.0000 -0.5089 -0.8608
vn -0.0000 -0.5559 -0.8313
vn -0.0000 -0.5999 -0.8000
vn -0.0000 -0.6641 -0.7477
vn -0.0000 -0.4624 -0.8867
vn -0.0000 -0.2036 -0.9791
vn -0.0000 0.6147 -0.7887
vn -0.0000 0.6304 -0.7763
vn -0.0000 0.6148 -0.7887
vn -0.0000 0.6641 -0.7477
vn -0.0000 0.5597 -0.8287
vn -0.0000 0.5836 -0.8121
vn -0.0000 0.5934 -0.8049
vn -0.0000 0.4835 -0.8754
vn -0.0000 0.4411 -0.8975
vn -0.0000 0.5221 -0.8529
vn -0.0000 0.4397 -0.8981
vn -0.0000 0.5387 -0.8425
vn -0.0000 0.6103 -0.7922
vn -0.0000 0.4803 -0.8771
vn -0.0000 0.5170 -0.8560
vn -0.0000 0.2715 -0.9624
vn -0.0000 0.2752 -0.9614
vn -0.0000 0.0033 -1.0000
vn -0.0000 0.2459 -0.9693
vn -0.0000 0.4084 -0.9128
vn -0.0000 0.4880 -0.8728
vn -0.0000 0.3192 -0.9477
vn -0.0000 0.2090 -0.9779
vn -0.0000 -0.4789 -0.8779
vn -0.0000 -0.5559 -0.8312
vn 0.0001 -0.5827 -0.8127
vn -0.0000 -0.5506 -0.8348
vn -0.0000 -0.6124 -0.7906
vn -0.0000 -0.5827 -0.8127
vn -0.0000 -0.5861 -0.8103
vn -0.0000 0.0544 -0.9985
vn -0.0000 0.2107 -0.9776
vn -0.0000 0.1535 -0.9882
vn -0.0000 0.1594 -0.9872
vn -0.0000 0.1073 -0.9942
vn 0.0001 0.0545 -0.9985
vn -0.0000 -0.1426 -0.9898
vn -0.0000 0.3994 -0.9168
vn -0.0000 0.3553 -0.9348
vn -0.0000 0.3089 -0.9511
vn -0.0000 0.4718 -0.8817
vn -0.0000 0.5513 -0.8343
vn -0.0000 -0.6394 -0.7689
vn -0.0000 -0.4383 -0.8988
vn -0.0000 -0.4123 -0.9111
vn -0.0000 -0.3531 -0.9356
vn -0.0000 -0.2081 -0.9781
vn -0.0000 0.1536 -0.9881
vn -0.0000 0.3057 -0.9521
vn -0.0000 0.6126 -0.7904
vn -0.0000 0.5832 -0.8123
vn -0.0000 0.6125 -0.7905
vn -0.0000 0.5831 -0.8124
vn -0.0001 0.5832 -0.8123
vn -0.0000 0.0525 -0.9986
vn 0.0001 -0.0000 -1.0000
vn -0.0000 0.2593 -0.9658
vn -0.0000 0.2606 -0.9654
vn -0.0000 -0.3278 -0.9447
vn -0.0000 -0.5182 -0.8553
vn -0.0000 -0.1567 -0.9877
vn -0.0000 -0.2080 -0.9781
vn -0.0000 -0.2581 -0.9661
vn -0.0000 -0.3530 -0.9356
vn -0.0000 -0.6123 -0.7906
vn -0.0000 -0.5506 -0.8347
vn -0.0000 -0.5160 -0.8566
vn -0.0000 -0.5558 -0.8313
vn -0.0000 -0.4789 -0.8778
vn -0.0000 -0.4541 -0.8910
vn -0.0000 -0.6639 -0.7478
vn -0.0000 0.0013 -1.0000
vn -0.0000 0.3848 -0.9230
vn -0.0000 -0.7843 -0.6204
vn -0.0000 -0.7626 -0.6469
vn -0.0000 -0.7655 -0.6434
vn -0.0000 -0.7887 -0.6148
vn -0.0000 -0.6774 -0.7356
vn -0.0000 -0.7036 -0.7106
vn -0.0000 -0.6730 -0.7396
vn -0.0000 -0.7033 -0.7109
vn -0.0000 -0.9024 -0.4310
vn -0.0000 -0.8890 -0.4578
vn -0.0000 -0.9001 -0.4356
vn -0.0000 -0.9168 -0.3993
vn -0.0000 -0.9062 -0.4229
vn -0.0000 -0.7841 -0.6207
vn -0.0000 -0.8017 -0.5978
vn -0.0000 -0.7876 -0.6162
vn -0.0002 -0.8457 -0.5337
vn -0.0001 -0.8660 -0.5001
vn -0.0000 -0.8558 -0.5172
vn -0.0000 -0.8351 -0.5500
vn -0.0000 -0.8559 -0.5172
vn -0.0000 -0.8796 -0.4756
vn -0.0000 -0.8978 -0.4405
vn -0.0000 -0.8835 -0.4684
vn -0.0000 -0.8800 -0.4750
vn -0.0000 -0.8753 -0.4835
vn 0.0001 -0.8558 -0.5174
vn -0.0001 -0.8657 -0.5006
vn -0.0000 -0.8658 -0.5004
vn 0.0001 -0.8352 -0.5500
vn -0.0000 -0.8508 -0.5255
vn -0.0001 -0.8243 -0.5661
vn -0.0000 -0.8087 -0.5882
vn -0.0001 -0.8351 -0.5501
vn -0.0000 -0.8131 -0.5821
vn -0.0000 -0.8351 -0.5501
vn -0.0000 -0.8658 -0.5005
vn -0.0000 -0.8422 -0.5392
vn -0.0000 -0.8243 -0.5662
vn -0.0000 -0.8016 -0.5978
vn -0.0000 -0.8094 -0.5873
vn -0.0000 -0.8089 -0.5879
vn -0.0000 -0.7899 -0.6133
vn -0.0000 -0.7654 -0.6435
vn -0.0000 -0.7705 -0.6374
vn -0.0000 -0.8860 -0.4636
vn -0.0000 -0.8869 -0.4620
vn -0.0001 -0.8936 -0.4489
vn -0.0000 -0.7610 -0.6487
vn -0.0000 -0.7583 -0.6519
vn -0.0001 -0.7360 -0.6770
vn -0.0000 -0.7175 -0.6966
vn -0.0000 -0.7359 -0.6771
vn -0.0000 -0.7269 -0.6868
vn -0.0000 -0.7267 -0.6869
vn -0.0000 -0.7464 -0.6654
vn -0.0000 -0.8008 -0.5990
vn -0.0000 -0.8188 -0.5741
vn -0.0000 -0.8997 -0.4366
vn -0.0000 -0.9181 -0.3964
vn -0.0000 -0.6991 -0.7150
vn -0.0000 -0.6798 -0.7334
vn -0.0000 -0.6822 -0.7312
vn -0.0000 -0.7340 -0.6791
vn -0.0000 -0.7065 -0.7077
vn -0.0000 -0.7613 -0.6484
vn -0.0000 -0.7131 -0.7011
vn -0.0000 -0.7471 -0.6647
vn -0.0000 -0.7885 -0.6150
vn -0.0000 -0.7886 -0.6150
vn -0.0000 -0.8017 -0.5977
vn -0.0000 -0.7839 -0.6208
vn -0.0000 -0.6952 -0.7188
vn -0.0000 -0.7367 -0.6762
vn -0.0000 -0.9061 -0.4230
vn -0.0000 -0.8934 -0.4492
vn -0.0000 -0.9194 -0.3934
vn -0.0000 -0.9293 -0.3694
vn -0.0000 -0.9168 -0.3994
vn -0.0000 -0.8352 -0.5500
vn -0.0000 -0.8352 -0.5499
vn -0.0000 -0.7840 -0.6207
vn -0.0000 -0.6855 -0.7281
vn -0.0000 -0.7131 -0.7010
vn -0.0000 -0.6851 -0.7284
vn -0.0000 -0.6840 -0.7295
vn -0.0000 -0.7465 -0.6654
vn -0.0000 -0.6822 -0.7311
vn -0.0000 -0.6687 -0.7435
vn -0.0000 -0.6689 -0.7434
vn -0.0000 -0.6767 -0.7362
vn -0.0000 -0.7064 -0.7078
vn -0.0000 -0.7464 -0.6655
vn -0.0000 -0.7341 -0.6791
vn -0.0000 -0.8090 -0.5879
vn -0.0000 -0.8754 -0.4835
vn -0.0000 -0.8935 -0.4491
vn -0.0000 -0.9292 -0.3695
vn -0.0000 -0.8008 -0.5989
vn -0.0000 -0.6823 -0.7311
vn -0.0000 -0.7839 -0.6209
vn -0.0000 -0.6688 -0.7434
vn -0.0000 -0.6731 -0.7395
vn -0.0000 -0.6731 -0.7396
vn -0.0000 -0.6768 -0.7362
vn -0.0000 -0.7035 -0.7107
vn -0.0000 -0.8559 -0.5171
s 1
usemtl Diffuse_51_51_51_100.020
f 1//1 2//1 3//1
f 1//1 3//1 4//2
f 1//1 4//2 5//1
f 1//1 5//1 6//1
f 7//1 1//1 8//1
f 1//1 6//1 8//1
f 9//1 1//1 7//1
f 10//1 1//1 9//1
f 10//1 11//1 1//1
f 11//1 12//1 1//1
f 12//1 13//1 1//1
f 13//1 14//1 1//1
f 14//1 15//1 1//1
s 0
f 1//1 16//1 17//1
s 1
f 18//1 2//1 1//1
f 19//1 2//1 18//1
f 19//1 18//1 20//1
f 19//1 20//1 21//1
f 20//1 22//1 21//1
f 22//1 23//1 21//1
f 24//1 23//1 22//1
f 25//1 23//1 24//1
f 25//1 24//1 26//1
f 25//1 26//1 27//1
f 26//1 28//1 27//1
f 28//1 29//1 27//1
f 30//1 29//1 28//1
f 31//1 29//1 30//1
f 32//1 31//1 33//1
f 31//1 30//1 33//1
f 32//1 33//1 34//1
f 35//1 36//1 37//1
f 36//1 38//1 37//1
f 39//1 40//1 41//1
f 40//1 42//1 41//1
f 42//1 43//1 41//1
f 43//1 44//1 41//1
f 45//1 44//1 46//1
f 47//1 44//1 45//1
f 43//1 46//1 44//1
f 48//1 46//1 43//1
f 49//1 46//1 48//1
f 50//1 49//1 48//1
f 47//1 51//1 44//1
f 49//1 50//1 35//1
f 50//1 36//1 35//1
f 38//1 32//1 34//1
f 38//1 34//1 37//1
s 0
f 16//1 1//1 15//3
s 1
f 52//4 53//5 54//5
f 52//4 54//5 55//5
f 52//4 55//5 56//6
f 52//4 56//6 57//4
f 58//5 59//5 57//4
f 60//5 61//5 59//5
f 62//5 61//5 60//5
f 63//5 64//5 62//5
f 65//5 64//5 63//5
f 66//5 65//5 67//5
f 66//5 67//5 68//5
f 69//5 68//5 70//5
f 71//5 70//5 72//5
f 71//5 72//5 73//5
f 74//5 75//5 76//5
f 77//5 74//5 78//5
f 77//5 78//5 79//5
f 80//5 81//5 82//5
f 81//5 79//5 82//5
f 83//5 82//5 84//6
s 0
f 82//5 85//7 86//5
f 82//5 86//4 87//8
s 1
f 88//9 82//5 89//4
f 88//9 90//5 82//5
f 90//5 91//6 82//5
f 82//5 92//5 93//10
f 82//5 93//10 94//5
f 82//5 94//5 95//11
f 82//5 95//11 96//4
f 84//6 82//5 97//5
f 82//5 96//4 97//5
f 91//6 92//5 82//5
f 89//4 82//5 87//5
f 83//5 80//5 82//5
f 79//5 81//5 77//5
f 76//5 78//5 74//5
f 98//5 76//5 75//5
f 98//5 75//5 73//5
f 98//5 73//5 72//5
f 70//5 71//5 69//5
f 68//5 69//5 66//5
f 63//5 67//5 65//5
f 60//5 59//5 58//5
f 61//5 62//5 64//5
f 99//11 57//4 100//5
f 101//5 99//11 102//5
f 58//5 57//4 56//6
f 57//4 99//11 52//4
f 100//5 102//5 99//11
f 103//12 104//12 105//12
f 106//12 107//12 108//12
f 109//13 110//12 111//13
f 105//14 112//12 109//13
f 111//12 113//12 114//12
f 115//15 116//16 117//1
f 118//17 119//18 115//15
f 120//19 118//17 121//20
f 120//19 121//20 122//21
f 123//22 122//21 124//23
f 123//22 124//23 125//24
f 125//24 126//25 127//26
f 126//25 128//27 127//26
f 128//27 129//28 130//29
f 129//28 131//30 130//29
f 132//31 133//32 131//30
f 134//33 133//32 132//31
f 135//34 136//35 134//33
f 137//36 136//35 135//34
f 138//37 137//36 139//38
f 140//39 141//40 142//41
f 141//40 143//41 142//41
f 144//42 141//40 140//39
f 144//42 140//39 145//43
f 144//42 145//43 146//44
f 146//44 145//43 147//45
f 146//44 147//45 148//46
f 147//45 138//37 148//46
f 138//37 139//38 148//46
f 137//36 135//34 139//38
f 136//35 133//32 134//33
f 132//31 131//30 129//28
f 128//27 130//29 127//26
f 123//22 120//19 122//21
f 124//23 126//25 125//24
f 116//16 115//15 119//18
f 149//47 117//1 116//16
f 150//48 117//1 149//47
f 151//49 150//48 149//47
f 152//50 150//48 151//49
f 152//50 153//51 154//52
f 153//51 155//53 154//52
f 156//54 157//55 155//53
f 158//56 156//54 159//57
f 158//56 160//58 161//59
f 162//60 163//61 161//59
f 164//62 163//61 165//63
f 166//64 167//65 168//66
f 169//67 166//64 170//68
f 167//65 171//69 168//66
f 172//70 173//71 174//72
f 172//70 174//72 175//73
f 173//71 176//74 177//75
f 176//74 178//76 177//75
f 178//76 179//77 177//75
f 180//78 181//79 179//77
f 181//79 180//78 182//80
f 181//79 182//80 183//81
f 183//81 184//82 185//83
f 184//82 186//84 185//83
f 186//84 187//85 185//83
f 187//85 188//86 189//87
f 188//86 190//88 189//87
f 191//89 190//88 188//86
f 192//90 193//91 191//89
f 194//92 193//91 192//90
f 194//92 192//90 195//93
f 166//64 164//62 170//68
f 196//94 194//92 197//95
f 165//63 163//61 162//60
f 198//96 196//94 199//97
f 196//94 197//95 199//97
f 200//98 198//96 201//99
f 161//59 160//58 162//60
f 200//98 201//99 202//100
f 160//58 158//56 159//57
f 203//101 200//98 204//102
f 156//54 158//56 157//55
f 203//101 204//102 205//103
f 154//52 155//53 157//55
f 203//101 205//103 206//104
f 153//51 152//50 151//49
f 175//73 168//66 171//69
f 207//105 208//106 206//104
f 207//105 209//107 208//106
f 209//107 210//108 211//109
f 210//108 212//110 211//109
f 213//111 212//110 210//108
f 214//112 215//113 212//110
f 216//114 215//113 214//112
f 217//115 218//116 216//114
f 219//117 218//116 217//115
f 220//118 219//117 221//119
f 220//118 221//119 222//120
f 223//121 220//118 224//122
f 223//121 224//122 225//123
f 226//124 225//123 227//125
f 228//126 229//127 230//128
f 228//126 230//128 231//129
f 232//130 233//131 234//132
f 235//133 228//126 236//134
f 237//135 238//136 239//137
f 240//138 241//139 242//140
f 243//141 244//142 245//143
f 246//144 247//145 248//146
f 249//147 250//148 251//149
f 252//150 253//151 254//152
f 255//153 256//154 257//155
f 258//156 259//157 256//154
f 259//157 260//158 261//159
f 260//158 262//160 263//161
f 262//160 264//162 265//163
f 264//162 266//164 267//165
f 198//96 199//97 201//99
f 197//95 194//92 195//93
f 143//41 268//166 142//41
f 269//167 268//166 143//41
f 270//168 268//166 269//167
f 270//168 269//167 267//165
f 264//162 267//165 265//163
f 262//160 265//163 263//161
f 260//158 263//161 261//159
f 259//157 261//159 256//154
f 258//156 256//154 255//153
f 255//153 257//155 252//150
f 257//155 253//151 252//150
f 253//151 250//148 254//152
f 250//148 249//147 254//152
f 251//149 271//169 249//147
f 272//170 271//169 251//149
f 272//170 251//149 248//146
f 272//170 248//146 247//145
f 247//145 246//144 273//171
f 246//144 274//172 273//171
f 274//172 243//141 273//171
f 244//142 243//141 274//172
f 275//173 245//143 244//142
f 275//173 244//142 276//174
f 275//173 276//174 277//175
f 276//174 241//139 277//175
f 241//139 240//138 277//175
f 242//140 278//176 240//138
f 279//177 278//176 242//140
f 280//178 278//176 279//177
f 280//178 279//177 238//136
f 279//177 239//137 238//136
f 239//137 281//179 237//135
f 281//179 282//180 237//135
f 283//181 282//180 281//179
f 284//182 282//180 283//181
f 284//182 283//181 234//132
f 284//182 234//132 233//131
f 234//132 285//183 232//130
f 285//183 286//184 232//130
f 287//185 286//184 285//183
f 288//186 286//184 287//185
f 288//186 287//185 289//187
f 288//186 289//187 290//188
f 289//187 235//133 290//188
f 235//133 236//134 290//188
f 226//124 227//125 229//127
f 231//129 236//134 228//126
f 227//125 230//128 229//127
f 223//121 225//123 226//124
f 220//118 222//120 224//122
f 219//117 217//115 221//119
f 218//116 215//113 216//114
f 214//112 212//110 213//111
f 209//107 211//109 208//106
f 205//103 207//105 206//104
f 200//98 202//100 204//102
f 270//168 267//165 266//164
f 190//88 191//89 193//91
f 189//87 185//83 187//85
f 184//82 183//81 182//80
f 178//76 180//78 179//77
f 174//72 173//71 177//75
f 175//73 171//69 172//70
f 167//65 166//64 169//67
f 121//20 118//17 115//15
f 165//63 170//68 164//62
f 291//189 292//189 293//189
f 294//189 295//189 296//189
f 297//190 298//191 299//189
f 300//189 297//189 301//189
f 298//191 291//190 302//189
f 303//192 304//192 305//192
f 306//192 307//192 308//192
f 309//192 310//192 311//192
f 312//192 313//192 314//192
f 315//192 316//192 317//192
f 318//192 319//192 320//192
f 321//192 322//192 323//192
f 324//192 325//192 326//192
f 327//192 328//192 329//192
f 330//192 331//192 332//192
f 333//192 334//192 335//192
f 336//192 337//192 338//192
f 339//192 340//192 341//192
f 342//192 343//192 344//192
f 345//192 346//192 347//192
f 348//192 349//192 350//192
f 351//192 352//192 353//192
f 354//192 355//192 356//192
f 357//192 358//192 359//192
f 360//192 361//192 362//192
f 363//192 364//192 365//192
f 366//193 367//193 368//193
f 369//194 370//194 371//194
f 372//193 373//193 374//193
f 375//194 376//194 377//194
f 378//193 379//193 380//193
f 381//194 382//194 383//194
f 384//192 385//192 386//192
f 387//192 388//192 389//192
f 390//193 391//193 392//193
f 393//192 394//192 395//192
f 396//194 397//194 398//194
f 399//192 400//192 401//192
f 402//192 403//192 404//192
f 405//192 406//192 407//192
f 408//195 409//195 410//195
f 411//192 412//192 413//192
f 414//192 415//192 416//192
f 417//192 418//192 419//192
f 420//192 421//192 422//192
f 423//193 424//193 425//193
f 426//194 427//194 428//194
f 429//192 430//192 431//192
f 432//192 433//192 434//192
f 435//192 436//192 437//192
f 438//192 439//192 440//192
f 441//192 442//192 443//192
f 444//192 445//192 446//192
f 447//192 448//192 449//192
f 450//192 451//192 452//192
f 453//192 454//192 455//192
f 456//192 457//192 458//192
f 459//192 460//192 461//192
f 462//192 463//192 464//192
f 465//192 466//192 467//192
f 468//192 469//192 470//192
f 471//192 472//192 473//192
f 474//192 475//192 476//192
f 477//194 478//194 479//194
f 480//194 481//194 482//194
f 483//192 484//192 485//192
f 486//192 487//192 488//192
f 489//192 490//192 491//192
f 492//192 493//192 494//192
f 495//192 496//192 497//192
f 498//192 499//192 500//192
f 501//192 502//192 503//192
f 504//192 505//192 506//192
f 507//192 508//192 509//192
f 510//192 511//192 512//192
f 513//192 514//192 515//192
f 516//192 517//192 518//192
f 519//192 520//192 521//192
f 522//192 523//192 524//192
f 525//192 526//192 527//192
f 528//192 529//192 530//192
f 531//192 532//192 533//192
f 534//192 535//192 536//192
f 537//192 538//192 539//192
f 540//193 541//193 542//193
f 543//195 544//195 545//195
f 546//192 547//192 548//192
f 549//192 550//192 551//192
f 552//192 553//192 554//192
f 555//196 556//197 557//198
f 555//196 558//199 556//197
f 559//200 560//201 561//202
f 559//200 562//203 563//204
f 564//205 565//206 566//207
f 564//205 562//203 567//208
f 564//205 567//208 568//209
f 562//203 561//202 569//210
f 570//211 563//204 571//212
f 570//211 558//199 560//201
f 570//211 571//212 556//197
f 563//204 572//213 571//212
f 569//210 561//202 573//214
f 569//210 567//208 562//203
f 574//215 575//216 576//217
f 574//215 577//218 575//216
f 578//219 579//220 580//221
f 578//219 581//222 582//223
f 583//224 584//225 585//214
f 583//224 580//221 586//226
f 580//221 587//227 586//226
f 580//221 579//220 587//227
f 579//220 588//228 589//229
f 579//198 590//223 591//230
f 592//231 593//232 594//233
f 592//231 595//234 596//235
f 597//236 598//237 599//238
f 597//236 600//239 598//237
f 594//233 601//234 592//231
f 594//233 602//240 603//241
f 604//242 605//243 606//240
f 604//242 575//216 607//244
f 605//243 588//228 608//245
f 605//243 607//244 588//228
f 592//231 596//235 593//232
f 595//234 557//198 609//234
f 596//235 610//246 593//232
f 596//235 609//234 611//247
f 611//247 589//229 588//228
f 611//247 609//234 589//229
f 589//229 587//227 579//220
f 589//229 609//234 612//248
f 557//198 613//223 612//248
f 557//198 556//197 613//223
f 612//248 609//234 557//198
f 612//248 614//249 587//227
f 614//249 615//250 586//226
f 614//249 613//223 571//212
f 600//239 593//232 616//251
f 594//233 597//236 617//252
f 618//253 577//218 619//254
f 618//253 607//244 575//216
f 577//218 574//215 620//255
f 618//253 619//254 610//246
f 621//256 622//257 623//258
f 621//256 619//254 622//257
f 616//251 593//232 610//246
f 616//251 598//237 600//239
f 568//209 567//208 624//259
f 568//209 625//260 565//206
f 558//199 601//234 626//230
f 601//234 555//196 595//234
f 559//200 561//202 562//203
f 560//201 627//223 628//222
f 562//203 564//205 563//204
f 566//207 629//261 572//213
f 291//190 620//255 630//257
f 291//190 298//191 620//255
f 620//255 574//215 631//217
f 620//255 298//191 622//257
f 604//242 607//244 605//243
f 575//216 577//218 618//253
f 297//190 623//258 298//191
f 623//258 598//237 621//256
f 623//258 297//190 632//257
f 633//262 584//225 634//263
f 633//262 635//264 636//265
f 629//261 615//250 572//213
f 629//261 634//263 584//225
f 586//226 587//227 614//249
f 637//266 578//219 638//267
f 633//262 634//263 639//268
f 584//225 586//226 629//261
f 640//259 569//269 641//270
f 572//213 564//205 566//207
f 571//212 572//213 615//250
f 570//211 556//197 558//199
f 568//209 565//206 564//205
f 625//260 642//260 565//206
f 563//204 564//205 572//213
f 565//206 643//260 634//263
f 571//212 615//250 614//249
f 566//207 565//206 634//263
f 621//256 616//251 619//254
f 598//237 644//217 645//238
f 577//218 622//257 619//254
f 620//255 622//257 577//218
f 610//246 619//254 616//251
f 610//246 596//235 611//247
f 584//225 583//224 586//226
f 611//247 607//244 610//246
f 588//228 607//244 611//247
f 607//244 618//253 610//246
f 597//236 593//232 600//239
f 595//234 555//196 557//198
f 598//237 616//251 621//256
f 592//231 601//234 595//234
f 595//234 609//234 596//235
f 589//229 612//248 587//227
f 586//226 615//250 629//261
f 614//249 612//248 613//223
f 569//269 646//271 647//270
f 560//201 559//200 570//211
f 601//234 558//199 555//196
f 556//197 571//212 613//223
f 634//263 648//272 649//273
f 650//274 651//275 568//209
f 652//252 653//276 604//277
f 623//258 622//257 298//191
f 654//230 655//245 579//198
f 656//228 601//234 594//233
f 657//268 633//262 658//275
f 659//267 561//278 660//266
f 661//279 662//280 663//281
f 664//282 665//283 666//284
f 667//273 668//275 669//285
f 670//285 671//275 672//274
f 633//262 673//285 674//259
f 633//262 675//265 676//285
f 677//259 678//286 633//262
f 679//264 633//262 680//287
f 681//288 682//267 583//289
f 683//223 579//220 578//219
f 583//224 578//219 580//221
f 684//214 561//278 685//267
f 588//228 579//220 686//228
f 563//204 570//211 559//200
f 687//268 634//263 688//290
f 689//290 634//291 690//264
f 691//275 692//260 568//209
f 693//265 694//292 634//263
f 695//286 696//214 584//225
f 629//261 566//207 634//263
f 634//291 697//260 698//293
f 699//273 700//285 634//263
f 568//209 701//260 625//260
f 702//265 634//263 703//294
f 704//259 567//208 569//210
f 705//275 633//262 706//268
f 707//241 708//240 605//233
f 558//199 709//230 560//201
f 710//295 711//241 605//233
f 712//223 560//201 713//230
f 604//242 714//240 715//252
f 716//228 594//233 717//241
f 718//257 719//217 623//258
f 720//296 721//257 297//189
f 623//258 722//297 598//237
f 723//252 597//298 724//238
f 291//189 725//257 726//296
f 727//252 728//240 594//233
f 729//257 620//255 730//297
f 593//232 597//236 594//233
f 731//238 732//297 575//216
f 604//242 733//238 575//216
f 734//230 601//234 735//228
f 736//266 561//202 560//201
f 737//287 633//262 738//268
f 633//262 739//270 584//225
f 740//275 741//260 742//260
f 578//219 583//224 743//267
f 744//260 745//260 746//299
f 747//300 748//301 749//302
f 750//303 751//304 752//260
f 753//303 754//305 755//306
f 756//304 757//305 758//307
f 759//308 760//304 761//307
f 762//308 763//309 764//310
f 765//311 766//312 767//313
f 768//312 769//314 770//315
f 771//316 772//317 773//318
f 774//317 775//319 776//320
f 777//321 778//322 779//323
f 780//323 781//322 782//324
f 783//325 784//323 785//326
f 786//327 787//328 788//329
f 789//330 790//327 791//331
f 792//332 793//333 794//334
f 795//335 796//335 797//336
f 798//336 799//335 800//337
f 801//337 802//338 803//339
f 804//340 805//337 806//341
f 807//342 808//343 809//339
f 810//344 811//342 812//339
f 813//345 814//344 815//341
f 816//345 817//346 818//344
f 819//345 820//347 821//346
f 822//345 823//348 824//349
f 825//349 826//350 827//351
f 828//352 829//333 830//353
f 831//351 832//352 833//354
f 834//354 835//334 836//355
f 837//356 838//357 839//358
f 840//359 841//356 842//360
f 843//361 844//359 845//362
f 846//361 847//363 848//359
f 849//364 850//365 851//366
f 852//327 853//330 854//362
f 855//329 856//331 857//327
f 858//326 859//329 860//325
f 861//367 862//326 863//323
f 864//368 865//369 866//319
f 867//320 868//318 869//317
f 870//318 871//314 872//370
f 873//371 874//315 875//372
f 876//315 877//309 878//312
f 879//309 880//308 881//311
f 882//359 883//373 884//356
f 885//354 886//351 887//350
f 888//374 889//375 890//376
f 888//374 891//377 889//375
f 892//378 893//379 894//380
f 892//378 895//381 896//382
f 892//378 896//382 893//379
f 895//381 897//383 898//384
f 899//385 898//384 900//386
f 899//385 901//387 896//382
f 898//384 897//383 900//386
f 898//384 896//382 895//381
f 902//388 903//389 904//390
f 902//388 905//391 906//325
f 907//392 908//393 909//394
f 907//392 910//395 908//393
f 911//396 912//397 913//398
f 911//396 914//399 915//400
f 912//397 916//401 913//398
f 912//397 915//400 917//402
f 918//403 919//404 920//405
f 918//403 921//406 922//407
f 921//406 923//408 924//409
f 921//406 925//410 926//411
f 927//412 928//413 929//414
f 927//412 891//377 930//415
f 931//416 932//417 933//418
f 931//416 934//419 935//369
f 905//420 936//323 937//328
f 905//391 932//417 938//369
f 932//417 904//390 939//421
f 905//420 940//321 941//323
f 934//419 942//318 943//320
f 934//419 894//380 944//318
f 945//422 946//423 947//424
f 945//422 948//425 917//402
f 945//422 917//402 946//423
f 948//425 949//335 950//426
f 951//427 949//335 952//428
f 951//427 950//426 949//335
f 917//402 915//400 946//423
f 917//402 950//426 916//401
f 948//425 950//426 917//402
f 917//402 916//401 912//397
f 953//429 951//427 952//428
f 954//396 955//430 956//431
f 954//396 957//432 926//411
f 958//433 959//434 908//393
f 958//433 960//350 959//434
f 961//435 962//436 963//437
f 961//435 908//393 910//395
f 964//438 965//364 966//439
f 964//438 967//440 968//441
f 967//440 969//442 970//443
f 967//440 971//444 972//445
f 973//446 955//430 925//410
f 973//446 974//447 975//448
f 974//447 970//443 969//442
f 974//447 976//449 977//450
f 970//443 968//441 967//440
f 970//443 977//450 978//451
f 979//452 980//453 981//454
f 979//452 893//379 982//455
f 947//424 983//456 945//422
f 947//424 959//434 984//345
f 985//457 986//458 987//459
f 985//460 988//461 989//462
f 986//458 990//463 991//464
f 986//465 992//466 993//467
f 994//468 995//469 996//470
f 994//468 930//415 997//471
f 995//469 990//463 998//472
f 995//469 997//471 999//473
f 1000//474 1001//475 1002//476
f 1000//474 1003//477 1004//478
f 1005//479 968//441 978//451
f 1005//479 1002//476 965//364
f 1001//475 1006//480 1007//481
f 1001//475 1004//478 1006//480
f 1008//482 1009//483 1010//366
f 1008//482 1011//484 966//439
f 1008//482 966//439 1009//483
f 1011//484 1012//485 966//439
f 975//448 956//431 955//430
f 975//448 969//442 909//394
f 991//464 999//473 1003//477
f 991//464 987//459 986//458
f 999//473 997//471 1004//478
f 999//473 990//463 995//469
f 953//429 957//432 913//398
f 953//429 952//428 1013//486
f 926//411 925//410 955//430
f 926//411 1013//486 923//408
f 1013//486 952//428 1014//487
f 1013//486 957//432 953//429
f 1013//486 1014//487 923//408
f 952//488 1015//489 1016//336
f 1017//490 908//393 959//434
f 1017//490 915//400 914//399
f 945//422 983//456 948//425
f 946//423 959//434 947//424
f 918//403 925//410 921//406
f 920//405 1018//491 976//449
f 1018//491 987//459 977//450
f 1018//491 919//404 985//457
f 894//380 981//454 1019//315
f 894//380 933//418 892//378
f 981//454 980//453 1020//309
f 981//454 893//379 979//452
f 909//394 914//399 956//431
f 909//394 972//445 907//392
f 911//396 915//400 912//397
f 914//399 908//393 1017//490
f 1021//492 980//453 1022//493
f 1021//494 1023//260 1024//304
f 1021//492 1022//493 1025//495
f 980//453 982//455 1026//496
f 1022//493 1026//496 1027//497
f 980//453 1021//492 1028//498
f 1029//499 889//375 1030//500
f 1029//499 1031//501 1032//502
f 1033//503 1034//504 1031//501
f 1033//503 1035//505 1036//506
f 978//451 977//450 987//459
f 978//451 968//441 970//443
f 977//450 976//449 1018//491
f 975//448 974//447 969//442
f 980//453 1026//496 1022//493
f 982//455 901//387 1026//496
f 1004//478 1037//323 1006//480
f 1004//478 1003//477 999//473
f 1037//323 1038//507 1039//508
f 1037//323 997//471 930//415
f 964//438 971//444 967//440
f 965//364 1040//509 966//439
f 967//440 972//445 969//442
f 971//444 966//439 1012//485
f 1041//510 1006//480 1037//323
f 1041//510 900//386 897//383
f 899//385 1042//511 1043//512
f 900//386 1039//508 1044//513
f 890//376 1032//502 1042//511
f 890//376 1038//507 888//374
f 1032//502 1031//501 1043//512
f 1032//502 889//375 1029//499
f 1012//485 907//392 972//445
f 910//395 962//436 961//435
f 1012//485 1011//484 962//436
f 1012//485 972//445 971//444
f 1044//513 1039//508 1038//507
f 1044//513 1042//511 900//386
f 1045//514 897//383 939//421
f 1045//514 1007//481 1006//480
f 1007//481 1040//509 1002//476
f 1007//481 904//390 903//389
f 927//412 930//415 994//468
f 930//415 888//374 1038//507
f 994//468 997//471 995//469
f 930//415 1038//507 1037//323
f 1009//483 903//389 1046//327
f 1009//483 966//439 1040//509
f 902//388 904//390 932//417
f 903//389 1040//509 1007//481
f 923//408 1014//487 1047//515
f 1013//486 926//411 957//432
f 1014//516 1048//517 1049//518
f 1014//487 1050//519 1051//520
f 1045//514 904//390 1007//481
f 931//416 933//418 894//380
f 1043//512 1042//511 1032//502
f 1043//512 901//387 899//385
f 1027//497 625//301 1022//493
f 1027//497 1031//501 1034//504
f 1033//503 1031//501 1029//499
f 1034//504 625//301 1027//497
f 1042//511 899//385 900//386
f 895//381 892//378 933//418
f 896//382 982//455 893//379
f 1026//496 1043//512 1027//497
f 894//380 893//379 981//454
f 933//418 939//421 895//381
f 1017//490 946//423 915//400
f 959//434 1052//350 1053//345
f 983//521 1054//339 1055//338
f 959//434 946//423 1017//490
f 913//398 916//401 953//429
f 911//396 956//431 914//399
f 975//448 955//430 973//446
f 955//430 954//396 926//411
f 962//436 1011//484 1008//482
f 1012//485 910//395 907//392
f 962//436 910//395 1012//485
f 975//448 909//394 956//431
f 908//393 914//399 909//394
f 956//431 911//396 913//398
f 918//403 920//405 925//410
f 925//410 920//405 976//449
f 923//408 921//406 926//411
f 925//410 976//449 973//446
f 951//427 953//429 916//401
f 957//432 954//396 913//398
f 978//451 991//464 1003//477
f 995//469 1056//472 1057//522
f 964//438 968//441 965//364
f 976//449 974//447 973//446
f 1009//483 1040//509 903//389
f 1005//479 965//364 968//441
f 966//439 971//444 964//438
f 972//445 909//394 969//442
f 919//404 1018//491 920//405
f 1005//479 978//451 1000//474
f 954//396 956//431 913//398
f 974//447 977//450 970//443
f 1003//477 1000//474 978//451
f 1002//476 1040//509 965//364
f 1002//476 1005//479 1000//474
f 1058//523 994//524 1059//525
f 1000//474 1004//478 1001//475
f 1060//526 995//469 1061//527
f 1041//510 1045//514 1006//480
f 902//388 932//417 905//391
f 1007//481 1002//476 1001//475
f 1062//359 1008//528 1063//362
f 1045//514 1041//510 897//383
f 1032//502 890//376 889//375
f 899//385 896//382 898//384
f 1064//369 932//417 931//416
f 900//386 1041//510 1039//508
f 1065//328 903//389 902//388
f 1044//513 890//376 1042//511
f 889//375 891//377 1066//529
f 1037//323 1039//508 1041//510
f 1067//530 891//377 1068//531
f 1027//497 1043//512 1031//501
f 1069//315 981//532 1070//309
f 901//387 1043//512 1026//496
f 1071//533 1033//503 1072//506
f 1073//339 983//456 1074//345
f 1075//519 952//428 1076//534
f 1077//354 1078//535 958//536
f 1079//409 1080//537 921//406
f 939//421 904//390 1045//514
f 1081//538 985//457 919//404
f 982//455 896//382 901//387
f 1082//526 1083//525 994//539
f 1022//493 625//301 1084//260
f 1085//530 1086//529 891//540
f 1087//299 1088//260 1034//504
f 1034//504 1089//260 625//301
f 1090//541 1091//299 1034//504
f 1092//542 1093//543 1034//504
f 1033//503 1094//544 1034//504
f 1033//503 1095//533 1096//545
f 1044//513 1038//507 890//376
f 1029//499 1097//500 1033//503
f 1033//503 1098//500 1099//505
f 889//375 1100//529 1101//500
f 888//374 930//415 891//377
f 903//546 1102//328 1103//547
f 1037//323 1004//478 997//471
f 897//383 895//381 939//421
f 927//412 1104//531 891//377
f 927//548 1105//549 1106//531
f 1107//366 1009//483 1108//327
f 1109//523 927//412 994//468
f 1110//358 962//436 1111//359
f 991//464 978//451 987//459
f 962//436 1008//482 1112//359
f 1018//491 985//457 987//459
f 1113//354 961//550 1114//437
f 990//463 986//458 1115//472
f 947//424 1116//551 983//456
f 986//458 985//457 1117//466
f 961//435 1118//354 958//433
f 1119//552 985//460 1120//553
f 961//435 958//433 908//393
f 1121//554 918//403 1122//407
f 948//425 1123//335 949//335
f 1124//335 952//428 949//335
f 1125//555 1126//407 921//406
f 952//428 1127//556 1014//487
f 951//427 916//401 950//426
f 1128//557 1129//558 1014//559
f 1014//559 1130//558 1131//515
f 1132//396 923//408 1133//560
f 1134//396 1135//409 923//561
f 1136//562 948//425 983//456
f 918//403 1137//554 919//404
f 1138//554 1139//553 919//404
f 1140//467 1141//563 986//465
f 999//473 991//464 990//463
f 932//417 939//421 933//418
f 979//452 982//455 980//453
f 1142//304 1143//309 980//453
f 1144//315 1145//371 894//564
f 931//416 894//380 934//419
f 1146//565 1147//566 1148//567
f 1146//565 1149//568 1147//566
f 1150//569 1151//570 1152//571
f 1150//569 949//335 1153//572
f 1154//573 1155//574 1156//575
f 1154//573 1157//576 1158//577
f 1159//578 1160//579 1161//580
f 1159//578 1149//568 1160//579
f 1162//581 1163//582 1164//583
f 1162//581 1165//584 1166//585
f 1167//586 1168//587 1169//588
f 1167//586 1166//585 1170//589
f 1166//585 1165//584 1171//584
f 1166//585 1163//582 1162//581
f 1172//590 1173//591 1174//592
f 1172//590 1175//589 1176//593
f 1173//591 1177//594 1174//592
f 1173//585 1178//593 1179//595
f 1180//596 1160//579 1181//597
f 1180//596 1182//598 1183//599
f 1182//598 1164//583 1184//600
f 1182//598 1180//596 1162//581
f 1164//583 1185//601 1186//602
f 1164//583 1163//582 1185//601
f 1186//602 1187//603 1184//600
f 1186//602 1174//592 1177//594
f 1187//603 1188//604 1189//605
f 1187//603 1177//594 1190//606
f 1183//599 1191//579 1160//579
f 1183//599 1184//600 1189//605
f 1189//605 1184//600 1187//603
f 1189//605 1191//579 1183//599
f 1192//607 1193//608 1161//580
f 1192//607 1188//604 1194//609
f 1167//586 1163//582 1166//585
f 1169//588 1195//610 1163//582
f 1196//611 1156//575 1155//574
f 1196//611 1197//612 1156//575
f 1196//611 1155//574 1174//592
f 1156//575 1157//576 1154//573
f 1198//613 1161//580 1199//614
f 1198//613 1200//615 1147//566
f 1200//615 1201//616 1202//617
f 1200//615 1203//618 1153//572
f 1202//617 1147//566 1200//615
f 1202//617 1204//619 1205//620
f 1181//597 1165//584 1180//596
f 1181//597 1206//621 1207//622
f 1149//568 1146//565 1206//621
f 1198//613 1159//578 1161//580
f 1208//623 1209//624 1197//612
f 1208//623 1195//610 1168//587
f 1195//610 1169//588 1168//587
f 1195//610 1197//612 1185//601
f 1210//625 1211//626 1212//627
f 1210//625 1213//628 1214//629
f 1213//628 1215//630 1216//620
f 1213//628 1217//631 1218//632
f 1190//606 1177//594 1219//622
f 1190//606 1188//604 1187//603
f 1220//633 1215//630 1194//609
f 1220//634 1221//635 1222//636
f 1223//637 949//335 1224//335
f 1223//637 1153//572 949//335
f 1161//580 1191//579 1192//607
f 1161//580 1160//579 1191//579
f 1153//572 1223//637 1201//616
f 1153//572 1203//618 1151//570
f 1203//618 1199//614 1225//638
f 1149//568 1159//578 1147//566
f 1225//638 1151//570 1203//618
f 1225//638 1218//632 1217//631
f 1194//609 1188//604 1220//633
f 1194//609 1218//632 1193//608
f 1225//638 1217//631 1151//570
f 1218//632 1215//630 1213//628
f 111//13 1157//576 109//13
f 1209//624 1156//575 1197//612
f 1157//576 111//13 1226//624
f 1196//611 1174//592 1185//601
f 1155//574 1227//639 1228//640
f 105//14 1229//641 1230//624
f 105//14 109//13 1229//641
f 1229//641 1168//587 1231//639
f 1229//641 109//13 1209//624
f 1167//586 1169//588 1163//582
f 1195//610 1208//623 1197//612
f 1232//624 111//13 1233//642
f 1168//587 1229//641 1208//623
f 1234//639 1157//643 1235//624
f 1185//601 1197//612 1196//611
f 1185//601 1163//582 1195//610
f 1164//583 1186//602 1184//600
f 1177//600 1236//644 1237//622
f 1174//592 1186//602 1185//601
f 1238//645 1173//585 1239//595
f 1206//621 1146//565 1240//646
f 1149//568 1181//597 1160//579
f 1182//598 1162//581 1164//583
f 1166//585 1241//644 1242//595
f 1183//599 1182//598 1184//600
f 1243//640 1167//586 1244//589
f 1192//607 1189//605 1188//604
f 1162//581 1180//596 1165//584
f 1220//633 1188//604 1190//606
f 1192//607 1194//609 1193//608
f 1189//605 1192//607 1191//579
f 1245//567 1220//633 1246//636
f 1202//617 1201//616 1247//629
f 1198//613 1147//566 1159//578
f 1201//616 1223//637 1248//647
f 1150//569 1153//572 1151//570
f 1201//616 1200//615 1153//572
f 1225//638 1193//608 1218//632
f 1199//614 1161//580 1193//608
f 1165//584 1181//597 1249//622
f 1217//648 1250//649 1251//650
f 1217//631 1252//647 1253//649
f 1225//638 1199//614 1193//608
f 1254//651 1255//567 1202//617
f 1160//579 1180//596 1183//599
f 1157//576 1209//624 109//13
f 1203//618 1198//613 1199//614
f 1256//644 1177//594 1173//591
f 1257//652 1217//631 1258//650
f 1259//567 1215//630 1220//633
f 1260//335 1261//335 1262//647
f 1263//647 1264//338 1265//653
f 1266//571 1267//647 1268//654
f 1269//571 1270//655 1210//625
f 1271//655 1272//626 1210//625
f 1273//649 1210//625 1274//650
f 1217//631 1213//628 1210//625
f 1275//649 1276//647 1210//625
f 1277//656 1213//628 1278//619
f 1215//630 1218//632 1194//609
f 1279//657 1280//619 1213//658
f 1165//600 1281//622 1282//644
f 1177//594 1187//603 1186//602
f 1283//595 1284//593 1166//585
f 1190//659 1285//622 1286//635
f 1149//568 1206//621 1181//597
f 1172//590 1155//574 1287//640
f 1209//624 1208//623 1229//641
f 1154//573 1288//577 1155//574
f 1289//589 1172//660 1290//661
f 105//12 1291//624 1292//662
f 1172//590 1293//593 1173//591
f 1294//624 1229//641 1295//577
f 1157//576 1156//575 1209//624
f 1296//640 1168//587 1167//586
f 1190//606 1297//635 1220//633
f 1298//622 1206//663 1299//635
f 1300//626 1217//631 1301//664
f 1302//665 1146//565 1303//567
f 1304//629 1201//616 1305//647
f 1306//647 1223//637 1307//335
f 1202//617 1308//567 1147//566
f 949//335 1150//569 1309//335
f 1310//335 1150//569 1311//666
f 1312//666 1150//569 1313//667
f 1314//668 1151//570 1315//669
f 1316//655 1151//670 1317//626
f 1203//618 1200//615 1198//613
f 1318//629 1319//619 1202//617
f 1206//621 1320//636 1321//635
f 1322//640 1323//577 1168//587
f 1174//592 1155//574 1172//590
f 1324//593 1325//589 1166//671
f 1217//631 1210//625 1326//647
f 1327//567 1328//651 1215//630
f 1329//629 1330//647 1210//625
f 1210//625 1331//652 1332//650
f 1151//570 1217//631 1333//626
f 1210//625 1334//647 1335//571
