# Blender 4.4.3
# www.blender.org
mtllib Mesh_22.006.mtl
o Mesh_22.006
v -0.000400 0.008970 -0.013280
v -0.000400 0.008970 -0.013357
v -0.000400 0.008959 -0.013306
v -0.000400 0.008970 -0.013521
v -0.000400 0.008959 -0.013494
v -0.000400 0.008970 -0.013443
v -0.000400 0.008636 -0.013521
v -0.000400 0.008636 -0.013443
v -0.000400 0.008647 -0.013494
v -0.000400 0.008636 -0.013280
v -0.000400 0.008647 -0.013306
v -0.000400 0.008636 -0.013357
v -0.000400 0.008970 -0.013202
v -0.000400 0.008904 -0.013307
v -0.000400 0.008803 -0.013202
v -0.000400 0.008959 -0.013304
v -0.000400 0.008959 -0.013357
v -0.000400 0.008933 -0.013296
v -0.000400 0.008958 -0.013302
v -0.000400 0.008957 -0.013300
v -0.000400 0.008956 -0.013299
v -0.000400 0.008955 -0.013298
v -0.000400 0.008953 -0.013297
v -0.000400 0.008951 -0.013296
v -0.000400 0.008949 -0.013296
v -0.000400 0.008939 -0.013296
v -0.000400 0.008927 -0.013297
v -0.000400 0.008921 -0.013299
v -0.000400 0.008915 -0.013301
v -0.000400 0.008909 -0.013304
v -0.000400 0.008636 -0.013202
v -0.000400 0.008702 -0.013307
v -0.000400 0.008899 -0.013311
v -0.000400 0.008707 -0.013311
v -0.000400 0.008894 -0.013315
v -0.000400 0.008712 -0.013315
v -0.000400 0.008890 -0.013319
v -0.000400 0.008716 -0.013319
v -0.000400 0.008886 -0.013324
v -0.000400 0.008720 -0.013324
v -0.000400 0.008883 -0.013330
v -0.000400 0.008880 -0.013336
v -0.000400 0.008723 -0.013330
v -0.000400 0.008726 -0.013336
v -0.000400 0.008729 -0.013348
v -0.000400 0.008877 -0.013348
v -0.000400 0.008876 -0.013354
v -0.000400 0.008730 -0.013354
v -0.000400 0.008875 -0.013360
v -0.000400 0.008731 -0.013360
v -0.000400 0.008875 -0.013440
v -0.000400 0.008876 -0.013446
v -0.000400 0.008731 -0.013440
v -0.000400 0.008730 -0.013446
v -0.000400 0.008729 -0.013452
v -0.000400 0.008877 -0.013452
v -0.000400 0.008878 -0.013459
v -0.000400 0.008728 -0.013459
v -0.000400 0.008880 -0.013464
v -0.000400 0.008723 -0.013470
v -0.000400 0.008726 -0.013464
v -0.000400 0.008883 -0.013470
v -0.000400 0.008886 -0.013476
v -0.000400 0.008712 -0.013485
v -0.000400 0.008894 -0.013485
v -0.000400 0.008899 -0.013489
v -0.000400 0.008716 -0.013481
v -0.000400 0.008970 -0.013600
v -0.000400 0.008702 -0.013493
v -0.000400 0.008904 -0.013493
v -0.000400 0.008707 -0.013489
v -0.000400 0.008933 -0.013504
v -0.000400 0.008921 -0.013501
v -0.000400 0.008927 -0.013503
v -0.000400 0.008939 -0.013504
v -0.000400 0.008915 -0.013499
v -0.000400 0.008949 -0.013504
v -0.000400 0.008951 -0.013504
v -0.000400 0.008953 -0.013503
v -0.000400 0.008955 -0.013502
v -0.000400 0.008956 -0.013501
v -0.000400 0.008909 -0.013496
v -0.000400 0.008957 -0.013500
v -0.000400 0.008958 -0.013498
v -0.000400 0.008890 -0.013481
v -0.000400 0.008720 -0.013476
v -0.000400 0.008959 -0.013496
v -0.000400 0.008647 -0.013496
v -0.000400 0.008647 -0.013443
v -0.000400 0.008673 -0.013504
v -0.000400 0.008636 -0.013600
v -0.000400 0.008648 -0.013498
v -0.000400 0.008649 -0.013500
v -0.000400 0.008650 -0.013501
v -0.000400 0.008651 -0.013502
v -0.000400 0.008653 -0.013503
v -0.000400 0.008655 -0.013504
v -0.000400 0.008657 -0.013504
v -0.000400 0.008666 -0.013504
v -0.000400 0.008679 -0.013503
v -0.000400 0.008685 -0.013501
v -0.000400 0.008691 -0.013499
v -0.000400 0.008697 -0.013496
v -0.000400 0.008959 -0.013443
v -0.000400 0.008728 -0.013341
v -0.000400 0.008878 -0.013341
v -0.000400 0.008697 -0.013304
v -0.000400 0.008691 -0.013301
v -0.000400 0.008685 -0.013299
v -0.000400 0.008679 -0.013297
v -0.000400 0.008673 -0.013296
v -0.000400 0.008666 -0.013296
v -0.000400 0.008653 -0.013297
v -0.000400 0.008655 -0.013296
v -0.000400 0.008657 -0.013296
v -0.000400 0.008651 -0.013298
v -0.000400 0.008650 -0.013299
v -0.000400 0.008649 -0.013300
v -0.000400 0.008648 -0.013302
v -0.000400 0.008647 -0.013304
v -0.000400 0.008647 -0.013357
v -0.000375 0.008995 -0.013357
v -0.000377 0.008993 -0.013357
v -0.000367 0.009003 -0.013347
v -0.000400 0.008970 -0.013357
v -0.000373 0.008997 -0.013356
v -0.000370 0.009000 -0.013354
v -0.000371 0.008999 -0.013355
v -0.000368 0.009002 -0.013351
v -0.000369 0.009001 -0.013353
v -0.000367 0.009003 -0.013349
v -0.000400 0.008970 -0.013280
v -0.000373 0.008997 -0.013205
v -0.000400 0.008970 -0.013280
v -0.000400 0.008970 -0.013202
v -0.000373 0.008997 -0.013200
v -0.000367 0.009003 -0.013200
v -0.000400 0.008970 -0.013280
v -0.000400 0.008970 -0.013357
v -0.000360 0.008603 -0.013200
v -0.000373 0.008609 -0.013200
v -0.000367 0.008603 -0.013200
v -0.000360 0.009003 -0.013200
v -0.000373 0.008997 -0.013200
v -0.000373 0.008803 -0.013200
v -0.000367 0.009003 -0.013200
v -0.000373 0.008997 -0.013200
v -0.000367 0.008603 -0.013200
v -0.000373 0.008609 -0.013205
v -0.000367 0.008603 -0.013347
v -0.000400 0.008636 -0.013280
v -0.000400 0.008636 -0.013280
v -0.000400 0.008636 -0.013357
v -0.000375 0.008611 -0.013357
v -0.000377 0.008613 -0.013357
v -0.000373 0.008609 -0.013356
v -0.000370 0.008606 -0.013354
v -0.000369 0.008605 -0.013353
v -0.000371 0.008607 -0.013355
v -0.000368 0.008604 -0.013351
v -0.000400 0.008636 -0.013357
v -0.000400 0.008636 -0.013280
v -0.000400 0.008636 -0.013202
v -0.000367 0.008603 -0.013349
v -0.000367 0.008603 -0.013200
v -0.000373 0.008609 -0.013200
v -0.000360 0.008803 -0.013578
v -0.000360 0.008803 -0.013600
v -0.000360 0.008843 -0.013578
v -0.000360 0.008783 -0.013430
v -0.000360 0.008726 -0.013464
v -0.000360 0.008723 -0.013470
v -0.000360 0.008783 -0.013420
v -0.000360 0.008773 -0.013420
v -0.000360 0.008883 -0.013470
v -0.000360 0.008823 -0.013430
v -0.000360 0.008843 -0.013558
v -0.000360 0.008833 -0.013420
v -0.000360 0.008875 -0.013440
v -0.000360 0.008833 -0.013380
v -0.000360 0.008875 -0.013360
v -0.000360 0.008880 -0.013464
v -0.000360 0.008878 -0.013459
v -0.000360 0.008823 -0.013370
v -0.000360 0.008876 -0.013354
v -0.000360 0.008783 -0.013370
v -0.000360 0.008886 -0.013324
v -0.000360 0.008878 -0.013341
v -0.000360 0.008880 -0.013336
v -0.000360 0.008877 -0.013348
v -0.000360 0.008731 -0.013360
v -0.000360 0.008731 -0.013440
v -0.000360 0.008730 -0.013446
v -0.000360 0.008823 -0.013380
v -0.000360 0.009002 -0.013594
v -0.000360 0.009003 -0.013592
v -0.000360 0.009003 -0.013590
v -0.000360 0.009001 -0.013596
v -0.000360 0.009000 -0.013597
v -0.000360 0.008999 -0.013598
v -0.000360 0.008997 -0.013599
v -0.000360 0.008995 -0.013600
v -0.000360 0.008993 -0.013600
v -0.000360 0.008673 -0.013504
v -0.000360 0.008613 -0.013600
v -0.000360 0.008763 -0.013578
v -0.000360 0.008666 -0.013504
v -0.000360 0.008657 -0.013504
v -0.000360 0.008655 -0.013504
v -0.000360 0.008603 -0.013590
v -0.000360 0.008607 -0.013598
v -0.000360 0.008606 -0.013597
v -0.000360 0.008609 -0.013599
v -0.000360 0.008611 -0.013600
v -0.000360 0.008604 -0.013594
v -0.000360 0.008605 -0.013596
v -0.000360 0.008603 -0.013592
v -0.000360 0.008603 -0.013453
v -0.000360 0.008648 -0.013498
v -0.000360 0.008647 -0.013496
v -0.000360 0.008613 -0.013443
v -0.000360 0.008647 -0.013494
v -0.000360 0.008603 -0.013451
v -0.000360 0.008604 -0.013449
v -0.000360 0.008605 -0.013447
v -0.000360 0.008607 -0.013445
v -0.000360 0.008609 -0.013444
v -0.000360 0.008606 -0.013446
v -0.000360 0.008611 -0.013443
v -0.000360 0.008647 -0.013443
v -0.000360 0.008649 -0.013500
v -0.000360 0.008650 -0.013501
v -0.000360 0.008651 -0.013502
v -0.000360 0.008653 -0.013503
v -0.000360 0.008763 -0.013558
v -0.000360 0.008679 -0.013503
v -0.000360 0.008685 -0.013501
v -0.000360 0.008691 -0.013499
v -0.000360 0.008697 -0.013496
v -0.000360 0.008712 -0.013485
v -0.000360 0.008707 -0.013489
v -0.000360 0.008702 -0.013493
v -0.000360 0.008716 -0.013481
v -0.000360 0.008720 -0.013476
v -0.000360 0.008728 -0.013459
v -0.000360 0.008773 -0.013380
v -0.000360 0.008730 -0.013354
v -0.000360 0.008883 -0.013330
v -0.000360 0.008729 -0.013348
v -0.000360 0.008729 -0.013452
v -0.000360 0.008723 -0.013330
v -0.000360 0.008726 -0.013336
v -0.000360 0.008728 -0.013341
v -0.000360 0.008720 -0.013324
v -0.000360 0.008894 -0.013315
v -0.000360 0.008707 -0.013311
v -0.000360 0.008712 -0.013315
v -0.000360 0.008890 -0.013319
v -0.000360 0.008697 -0.013304
v -0.000360 0.008702 -0.013307
v -0.000360 0.008904 -0.013307
v -0.000360 0.008899 -0.013311
v -0.000360 0.008691 -0.013301
v -0.000360 0.008603 -0.013200
v -0.000360 0.008685 -0.013299
v -0.000360 0.008666 -0.013296
v -0.000360 0.008603 -0.013200
v -0.000360 0.008657 -0.013296
v -0.000360 0.008603 -0.013200
v -0.000360 0.008673 -0.013296
v -0.000360 0.008679 -0.013297
v -0.000360 0.008603 -0.013200
v -0.000360 0.008655 -0.013296
v -0.000360 0.008603 -0.013200
v -0.000360 0.008653 -0.013297
v -0.000360 0.008603 -0.013200
v -0.000360 0.008651 -0.013298
v -0.000360 0.008603 -0.013200
v -0.000360 0.008650 -0.013299
v -0.000360 0.008603 -0.013200
v -0.000360 0.008649 -0.013300
v -0.000360 0.008603 -0.013200
v -0.000360 0.008648 -0.013302
v -0.000360 0.008603 -0.013200
v -0.000360 0.008603 -0.013347
v -0.000360 0.008603 -0.013200
v -0.000360 0.008909 -0.013304
v -0.000360 0.008716 -0.013319
v -0.000360 0.008783 -0.013380
v -0.000360 0.008877 -0.013452
v -0.000360 0.008876 -0.013446
v -0.000360 0.008647 -0.013306
v -0.000360 0.008613 -0.013357
v -0.000360 0.008647 -0.013357
v -0.000360 0.008611 -0.013357
v -0.000360 0.008604 -0.013351
v -0.000360 0.008603 -0.013349
v -0.000360 0.009003 -0.013347
v -0.000360 0.008958 -0.013302
v -0.000360 0.008959 -0.013304
v -0.000360 0.008993 -0.013357
v -0.000360 0.008959 -0.013306
v -0.000360 0.009003 -0.013349
v -0.000360 0.009002 -0.013351
v -0.000360 0.009001 -0.013353
v -0.000360 0.008999 -0.013355
v -0.000360 0.008997 -0.013356
v -0.000360 0.009000 -0.013354
v -0.000360 0.008995 -0.013357
v -0.000360 0.009003 -0.013200
v -0.000360 0.008959 -0.013357
v -0.000360 0.008957 -0.013300
v -0.000360 0.009003 -0.013200
v -0.000360 0.008956 -0.013299
v -0.000360 0.009003 -0.013200
v -0.000360 0.008955 -0.013298
v -0.000360 0.009003 -0.013200
v -0.000360 0.008953 -0.013297
v -0.000360 0.009003 -0.013200
v -0.000360 0.009003 -0.013200
v -0.000360 0.008951 -0.013296
v -0.000360 0.009003 -0.013200
v -0.000360 0.008939 -0.013296
v -0.000360 0.008949 -0.013296
v -0.000360 0.009003 -0.013200
v -0.000360 0.008933 -0.013296
v -0.000360 0.009003 -0.013200
v -0.000360 0.008921 -0.013299
v -0.000360 0.008927 -0.013297
v -0.000360 0.009003 -0.013200
v -0.000360 0.008915 -0.013301
v -0.000360 0.009003 -0.013200
v -0.000360 0.009003 -0.013200
v -0.000360 0.008603 -0.013200
v -0.000360 0.008603 -0.013200
v -0.000360 0.008647 -0.013304
v -0.000360 0.008603 -0.013200
v -0.000360 0.008609 -0.013356
v -0.000360 0.008607 -0.013355
v -0.000360 0.008605 -0.013353
v -0.000360 0.008606 -0.013354
v -0.000360 0.008823 -0.013420
v -0.000360 0.008894 -0.013485
v -0.000360 0.008890 -0.013481
v -0.000360 0.008886 -0.013476
v -0.000360 0.008899 -0.013489
v -0.000360 0.008904 -0.013493
v -0.000360 0.008909 -0.013496
v -0.000360 0.008915 -0.013499
v -0.000360 0.008921 -0.013501
v -0.000360 0.008927 -0.013503
v -0.000360 0.008933 -0.013504
v -0.000360 0.008939 -0.013504
v -0.000360 0.008953 -0.013503
v -0.000360 0.008951 -0.013504
v -0.000360 0.008949 -0.013504
v -0.000360 0.008955 -0.013502
v -0.000360 0.008956 -0.013501
v -0.000360 0.008957 -0.013500
v -0.000360 0.008958 -0.013498
v -0.000360 0.009003 -0.013453
v -0.000360 0.008959 -0.013496
v -0.000360 0.008959 -0.013494
v -0.000360 0.008993 -0.013443
v -0.000360 0.008959 -0.013443
v -0.000360 0.008995 -0.013443
v -0.000360 0.008603 -0.013200
v -0.000360 0.009003 -0.013200
v -0.000360 0.009003 -0.013200
v -0.000360 0.008997 -0.013444
v -0.000360 0.008999 -0.013445
v -0.000360 0.009000 -0.013446
v -0.000360 0.009001 -0.013447
v -0.000360 0.009002 -0.013449
v -0.000360 0.009003 -0.013451
v -0.000360 0.009003 -0.013590
v -0.000367 0.009003 -0.013590
v -0.000360 0.009003 -0.013453
v -0.000360 0.009003 -0.013453
v -0.000367 0.009003 -0.013453
v -0.000360 0.009003 -0.013347
v -0.000367 0.009003 -0.013347
v -0.000360 0.009003 -0.013200
v -0.000360 0.009003 -0.013200
v -0.000367 0.009003 -0.013347
v -0.000367 0.009003 -0.013200
v -0.000400 0.008970 -0.013521
v -0.000367 0.009003 -0.013590
v -0.000400 0.008970 -0.013600
v -0.000400 0.008970 -0.013521
v -0.000400 0.008970 -0.013443
v -0.000367 0.009003 -0.013453
v -0.000377 0.008993 -0.013600
v -0.000400 0.008970 -0.013600
v -0.000367 0.009003 -0.013590
v -0.000375 0.008995 -0.013600
v -0.000367 0.009003 -0.013590
v -0.000373 0.008997 -0.013599
v -0.000367 0.009003 -0.013590
v -0.000371 0.008999 -0.013598
v -0.000367 0.009003 -0.013590
v -0.000370 0.009000 -0.013597
v -0.000368 0.009002 -0.013594
v -0.000369 0.009001 -0.013596
v -0.000367 0.009003 -0.013590
v -0.000367 0.009003 -0.013590
v -0.000367 0.009003 -0.013592
v -0.000367 0.009003 -0.013590
v -0.000367 0.009003 -0.013590
v -0.000367 0.009003 -0.013590
v -0.000400 0.008970 -0.013521
v -0.000367 0.009003 -0.013453
v -0.000367 0.009003 -0.013453
v -0.000400 0.008970 -0.013443
v -0.000377 0.008993 -0.013443
v -0.000375 0.008995 -0.013443
v -0.000367 0.009003 -0.013453
v -0.000373 0.008997 -0.013444
v -0.000367 0.009003 -0.013453
v -0.000367 0.009003 -0.013453
v -0.000370 0.009000 -0.013446
v -0.000369 0.009001 -0.013447
v -0.000367 0.009003 -0.013453
v -0.000371 0.008999 -0.013445
v -0.000367 0.009003 -0.013451
v -0.000367 0.009003 -0.013453
v -0.000368 0.009002 -0.013449
v -0.000367 0.009003 -0.013453
v -0.000367 0.009003 -0.013453
v -0.000360 0.008603 -0.013453
v -0.000367 0.008603 -0.013453
v -0.000360 0.008603 -0.013590
v -0.000360 0.008603 -0.013590
v -0.000367 0.008603 -0.013590
v -0.000400 0.008636 -0.013521
v -0.000367 0.008603 -0.013453
v -0.000400 0.008636 -0.013443
v -0.000400 0.008636 -0.013521
v -0.000400 0.008636 -0.013600
v -0.000367 0.008603 -0.013590
v -0.000377 0.008613 -0.013443
v -0.000400 0.008636 -0.013443
v -0.000367 0.008603 -0.013453
v -0.000375 0.008611 -0.013443
v -0.000367 0.008603 -0.013453
v -0.000373 0.008609 -0.013444
v -0.000367 0.008603 -0.013453
v -0.000371 0.008607 -0.013445
v -0.000367 0.008603 -0.013453
v -0.000370 0.008606 -0.013446
v -0.000368 0.008604 -0.013449
v -0.000369 0.008605 -0.013447
v -0.000367 0.008603 -0.013453
v -0.000367 0.008603 -0.013453
v -0.000367 0.008603 -0.013451
v -0.000367 0.008603 -0.013453
v -0.000367 0.008603 -0.013453
v -0.000367 0.008603 -0.013453
v -0.000400 0.008636 -0.013521
v -0.000367 0.008603 -0.013590
v -0.000367 0.008603 -0.013590
v -0.000400 0.008636 -0.013600
v -0.000377 0.008613 -0.013600
v -0.000375 0.008611 -0.013600
v -0.000367 0.008603 -0.013590
v -0.000373 0.008609 -0.013599
v -0.000367 0.008603 -0.013590
v -0.000367 0.008603 -0.013590
v -0.000370 0.008606 -0.013597
v -0.000369 0.008605 -0.013596
v -0.000367 0.008603 -0.013590
v -0.000371 0.008607 -0.013598
v -0.000367 0.008603 -0.013592
v -0.000367 0.008603 -0.013590
v -0.000368 0.008604 -0.013594
v -0.000367 0.008603 -0.013590
v -0.000367 0.008603 -0.013590
v -0.000400 0.008970 -0.013600
v -0.000360 0.008803 -0.013600
v -0.000400 0.008636 -0.013600
v -0.000400 0.008970 -0.013600
v -0.000377 0.008993 -0.013600
v -0.000360 0.008993 -0.013600
v -0.000400 0.008636 -0.013600
v -0.000360 0.008803 -0.013600
v -0.000360 0.008613 -0.013600
v -0.000377 0.008613 -0.013600
v -0.000400 0.008636 -0.013600
v -0.000360 0.008613 -0.013600
v -0.000360 0.008803 -0.013600
v -0.000400 0.008970 -0.013600
v -0.000360 0.008993 -0.013600
v -0.000360 0.008603 -0.013200
v -0.000367 0.008603 -0.013200
v -0.000360 0.008603 -0.013347
v -0.000360 0.008603 -0.013347
v -0.000367 0.008603 -0.013200
v -0.000367 0.008603 -0.013347
v -0.000360 0.008731 -0.013360
v -0.000400 0.008731 -0.013360
v -0.000360 0.008731 -0.013440
v -0.000400 0.008731 -0.013360
v -0.000400 0.008731 -0.013440
v -0.000360 0.008731 -0.013440
v -0.000360 0.008673 -0.013504
v -0.000360 0.008679 -0.013503
v -0.000400 0.008673 -0.013504
v -0.000360 0.008679 -0.013503
v -0.000360 0.008685 -0.013501
v -0.000400 0.008679 -0.013503
v -0.000360 0.008685 -0.013501
v -0.000400 0.008685 -0.013501
v -0.000400 0.008679 -0.013503
v -0.000360 0.008691 -0.013499
v -0.000400 0.008691 -0.013499
v -0.000400 0.008685 -0.013501
v -0.000360 0.008697 -0.013496
v -0.000400 0.008691 -0.013499
v -0.000360 0.008691 -0.013499
v -0.000360 0.008702 -0.013493
v -0.000400 0.008697 -0.013496
v -0.000360 0.008697 -0.013496
v -0.000400 0.008702 -0.013493
v -0.000400 0.008697 -0.013496
v -0.000360 0.008702 -0.013493
v -0.000400 0.008707 -0.013489
v -0.000400 0.008702 -0.013493
v -0.000360 0.008707 -0.013489
v -0.000400 0.008707 -0.013489
v -0.000360 0.008707 -0.013489
v -0.000360 0.008712 -0.013485
v -0.000400 0.008712 -0.013485
v -0.000360 0.008712 -0.013485
v -0.000360 0.008716 -0.013481
v -0.000400 0.008712 -0.013485
v -0.000360 0.008716 -0.013481
v -0.000400 0.008716 -0.013481
v -0.000400 0.008716 -0.013481
v -0.000360 0.008720 -0.013476
v -0.000400 0.008720 -0.013476
v -0.000360 0.008720 -0.013476
v -0.000360 0.008723 -0.013470
v -0.000400 0.008720 -0.013476
v -0.000360 0.008723 -0.013470
v -0.000360 0.008726 -0.013464
v -0.000400 0.008723 -0.013470
v -0.000360 0.008726 -0.013464
v -0.000400 0.008726 -0.013464
v -0.000400 0.008723 -0.013470
v -0.000360 0.008673 -0.013504
v -0.000400 0.008673 -0.013504
v -0.000360 0.008666 -0.013504
v -0.000400 0.008730 -0.013446
v -0.000360 0.008731 -0.013440
v -0.000400 0.008731 -0.013440
v -0.000360 0.008730 -0.013446
v -0.000360 0.008731 -0.013440
v -0.000400 0.008730 -0.013446
v -0.000360 0.008730 -0.013446
v -0.000400 0.008730 -0.013446
v -0.000400 0.008729 -0.013452
v -0.000360 0.008730 -0.013446
v -0.000400 0.008729 -0.013452
v -0.000360 0.008729 -0.013452
v -0.000400 0.008729 -0.013452
v -0.000400 0.008728 -0.013459
v -0.000360 0.008729 -0.013452
v -0.000400 0.008728 -0.013459
v -0.000360 0.008728 -0.013459
v -0.000360 0.008729 -0.013452
v -0.000400 0.008726 -0.013464
v -0.000360 0.008728 -0.013459
v -0.000400 0.008728 -0.013459
v -0.000360 0.008726 -0.013464
v -0.000360 0.008728 -0.013459
v -0.000400 0.008726 -0.013464
v -0.000400 0.008720 -0.013476
v -0.000360 0.008723 -0.013470
v -0.000400 0.008723 -0.013470
v -0.000400 0.008716 -0.013481
v -0.000360 0.008716 -0.013481
v -0.000360 0.008720 -0.013476
v -0.000400 0.008712 -0.013485
v -0.000400 0.008707 -0.013489
v -0.000360 0.008712 -0.013485
v -0.000360 0.008707 -0.013489
v -0.000400 0.008702 -0.013493
v -0.000360 0.008702 -0.013493
v -0.000360 0.008697 -0.013496
v -0.000400 0.008697 -0.013496
v -0.000400 0.008691 -0.013499
v -0.000360 0.008685 -0.013501
v -0.000360 0.008691 -0.013499
v -0.000400 0.008685 -0.013501
v -0.000400 0.008673 -0.013504
v -0.000400 0.008666 -0.013504
v -0.000360 0.008666 -0.013504
v -0.000360 0.008679 -0.013503
v -0.000400 0.008679 -0.013503
v -0.000400 0.008673 -0.013504
v -0.000400 0.008657 -0.013504
v -0.000360 0.008657 -0.013504
v -0.000400 0.008666 -0.013504
v -0.000360 0.008657 -0.013504
v -0.000360 0.008666 -0.013504
v -0.000400 0.008666 -0.013504
v -0.000360 0.008647 -0.013494
v -0.000400 0.008647 -0.013494
v -0.000360 0.008647 -0.013443
v -0.000400 0.008647 -0.013494
v -0.000400 0.008647 -0.013443
v -0.000360 0.008647 -0.013443
v -0.000400 0.008647 -0.013306
v -0.000360 0.008647 -0.013306
v -0.000400 0.008647 -0.013357
v -0.000360 0.008647 -0.013306
v -0.000360 0.008647 -0.013357
v -0.000400 0.008647 -0.013357
v -0.000360 0.008657 -0.013296
v -0.000400 0.008657 -0.013296
v -0.000360 0.008666 -0.013296
v -0.000400 0.008657 -0.013296
v -0.000400 0.008666 -0.013296
v -0.000360 0.008666 -0.013296
v -0.000360 0.008730 -0.013354
v -0.000360 0.008729 -0.013348
v -0.000400 0.008730 -0.013354
v -0.000360 0.008729 -0.013348
v -0.000360 0.008728 -0.013341
v -0.000400 0.008729 -0.013348
v -0.000360 0.008728 -0.013341
v -0.000400 0.008728 -0.013341
v -0.000400 0.008729 -0.013348
v -0.000360 0.008726 -0.013336
v -0.000400 0.008726 -0.013336
v -0.000400 0.008728 -0.013341
v -0.000360 0.008723 -0.013330
v -0.000400 0.008726 -0.013336
v -0.000360 0.008726 -0.013336
v -0.000360 0.008720 -0.013324
v -0.000400 0.008723 -0.013330
v -0.000360 0.008723 -0.013330
v -0.000400 0.008720 -0.013324
v -0.000400 0.008723 -0.013330
v -0.000360 0.008720 -0.013324
v -0.000400 0.008716 -0.013319
v -0.000400 0.008720 -0.013324
v -0.000360 0.008716 -0.013319
v -0.000400 0.008716 -0.013319
v -0.000360 0.008716 -0.013319
v -0.000360 0.008712 -0.013315
v -0.000400 0.008712 -0.013315
v -0.000360 0.008712 -0.013315
v -0.000360 0.008707 -0.013311
v -0.000400 0.008712 -0.013315
v -0.000360 0.008707 -0.013311
v -0.000400 0.008707 -0.013311
v -0.000400 0.008707 -0.013311
v -0.000360 0.008702 -0.013307
v -0.000400 0.008702 -0.013307
v -0.000360 0.008702 -0.013307
v -0.000360 0.008697 -0.013304
v -0.000400 0.008702 -0.013307
v -0.000360 0.008697 -0.013304
v -0.000360 0.008691 -0.013301
v -0.000400 0.008697 -0.013304
v -0.000360 0.008691 -0.013301
v -0.000400 0.008691 -0.013301
v -0.000400 0.008697 -0.013304
v -0.000360 0.008730 -0.013354
v -0.000400 0.008730 -0.013354
v -0.000360 0.008731 -0.013360
v -0.000400 0.008673 -0.013296
v -0.000360 0.008666 -0.013296
v -0.000400 0.008666 -0.013296
v -0.000360 0.008673 -0.013296
v -0.000360 0.008666 -0.013296
v -0.000400 0.008673 -0.013296
v -0.000360 0.008673 -0.013296
v -0.000400 0.008673 -0.013296
v -0.000400 0.008679 -0.013297
v -0.000360 0.008673 -0.013296
v -0.000400 0.008679 -0.013297
v -0.000360 0.008679 -0.013297
v -0.000400 0.008679 -0.013297
v -0.000400 0.008685 -0.013299
v -0.000360 0.008679 -0.013297
v -0.000400 0.008685 -0.013299
v -0.000360 0.008685 -0.013299
v -0.000360 0.008679 -0.013297
v -0.000400 0.008691 -0.013301
v -0.000360 0.008685 -0.013299
v -0.000400 0.008685 -0.013299
v -0.000360 0.008691 -0.013301
v -0.000360 0.008685 -0.013299
v -0.000400 0.008691 -0.013301
v -0.000400 0.008702 -0.013307
v -0.000360 0.008697 -0.013304
v -0.000400 0.008697 -0.013304
v -0.000400 0.008707 -0.013311
v -0.000360 0.008707 -0.013311
v -0.000360 0.008702 -0.013307
v -0.000400 0.008712 -0.013315
v -0.000400 0.008716 -0.013319
v -0.000360 0.008712 -0.013315
v -0.000360 0.008716 -0.013319
v -0.000400 0.008720 -0.013324
v -0.000360 0.008720 -0.013324
v -0.000360 0.008723 -0.013330
v -0.000400 0.008723 -0.013330
v -0.000400 0.008726 -0.013336
v -0.000360 0.008728 -0.013341
v -0.000360 0.008726 -0.013336
v -0.000400 0.008728 -0.013341
v -0.000400 0.008730 -0.013354
v -0.000400 0.008731 -0.013360
v -0.000360 0.008731 -0.013360
v -0.000360 0.008729 -0.013348
v -0.000400 0.008729 -0.013348
v -0.000400 0.008730 -0.013354
v -0.000377 0.008613 -0.013443
v -0.000360 0.008647 -0.013443
v -0.000400 0.008636 -0.013443
v -0.000360 0.008613 -0.013443
v -0.000360 0.008647 -0.013443
v -0.000377 0.008613 -0.013443
v -0.000400 0.008647 -0.013443
v -0.000400 0.008636 -0.013443
v -0.000360 0.008647 -0.013443
v -0.000360 0.008613 -0.013357
v -0.000377 0.008613 -0.013357
v -0.000360 0.008647 -0.013357
v -0.000400 0.008636 -0.013357
v -0.000400 0.008647 -0.013357
v -0.000360 0.008647 -0.013357
v -0.000377 0.008613 -0.013357
v -0.000400 0.008636 -0.013357
v -0.000360 0.008647 -0.013357
v -0.000360 0.008875 -0.013360
v -0.000360 0.008875 -0.013440
v -0.000400 0.008875 -0.013360
v -0.000400 0.008875 -0.013360
v -0.000360 0.008875 -0.013440
v -0.000400 0.008875 -0.013440
v -0.000400 0.008939 -0.013504
v -0.000400 0.008933 -0.013504
v -0.000360 0.008939 -0.013504
v -0.000400 0.008933 -0.013504
v -0.000360 0.008933 -0.013504
v -0.000360 0.008939 -0.013504
v -0.000400 0.008927 -0.013503
v -0.000360 0.008933 -0.013504
v -0.000400 0.008933 -0.013504
v -0.000360 0.008927 -0.013503
v -0.000360 0.008933 -0.013504
v -0.000400 0.008927 -0.013503
v -0.000360 0.008927 -0.013503
v -0.000400 0.008927 -0.013503
v -0.000400 0.008921 -0.013501
v -0.000360 0.008927 -0.013503
v -0.000400 0.008921 -0.013501
v -0.000360 0.008921 -0.013501
v -0.000400 0.008921 -0.013501
v -0.000400 0.008915 -0.013499
v -0.000360 0.008921 -0.013501
v -0.000400 0.008915 -0.013499
v -0.000360 0.008915 -0.013499
v -0.000360 0.008921 -0.013501
v -0.000400 0.008909 -0.013496
v -0.000360 0.008915 -0.013499
v -0.000400 0.008915 -0.013499
v -0.000360 0.008909 -0.013496
v -0.000360 0.008915 -0.013499
v -0.000400 0.008909 -0.013496
v -0.000360 0.008909 -0.013496
v -0.000400 0.008909 -0.013496
v -0.000400 0.008904 -0.013493
v -0.000360 0.008909 -0.013496
v -0.000400 0.008904 -0.013493
v -0.000360 0.008904 -0.013493
v -0.000400 0.008904 -0.013493
v -0.000400 0.008899 -0.013489
v -0.000360 0.008904 -0.013493
v -0.000400 0.008899 -0.013489
v -0.000360 0.008899 -0.013489
v -0.000360 0.008904 -0.013493
v -0.000360 0.008890 -0.013481
v -0.000400 0.008886 -0.013476
v -0.000360 0.008886 -0.013476
v -0.000360 0.008886 -0.013476
v -0.000400 0.008886 -0.013476
v -0.000400 0.008883 -0.013470
v -0.000360 0.008875 -0.013440
v -0.000360 0.008876 -0.013446
v -0.000400 0.008875 -0.013440
v -0.000360 0.008876 -0.013446
v -0.000400 0.008876 -0.013446
v -0.000400 0.008875 -0.013440
v -0.000360 0.008877 -0.013452
v -0.000400 0.008876 -0.013446
v -0.000360 0.008876 -0.013446
v -0.000400 0.008877 -0.013452
v -0.000400 0.008876 -0.013446
v -0.000360 0.008877 -0.013452
v -0.000400 0.008877 -0.013452
v -0.000360 0.008877 -0.013452
v -0.000360 0.008878 -0.013459
v -0.000400 0.008877 -0.013452
v -0.000360 0.008878 -0.013459
v -0.000400 0.008878 -0.013459
v -0.000360 0.008878 -0.013459
v -0.000360 0.008880 -0.013464
v -0.000400 0.008878 -0.013459
v -0.000360 0.008880 -0.013464
v -0.000400 0.008880 -0.013464
v -0.000400 0.008878 -0.013459
v -0.000360 0.008883 -0.013470
v -0.000400 0.008880 -0.013464
v -0.000360 0.008880 -0.013464
v -0.000400 0.008883 -0.013470
v -0.000400 0.008880 -0.013464
v -0.000360 0.008883 -0.013470
v -0.000400 0.008883 -0.013470
v -0.000360 0.008883 -0.013470
v -0.000360 0.008886 -0.013476
v -0.000400 0.008886 -0.013476
v -0.000360 0.008890 -0.013481
v -0.000400 0.008890 -0.013481
v -0.000360 0.008890 -0.013481
v -0.000360 0.008894 -0.013485
v -0.000400 0.008890 -0.013481
v -0.000360 0.008894 -0.013485
v -0.000400 0.008894 -0.013485
v -0.000400 0.008890 -0.013481
v -0.000360 0.008899 -0.013489
v -0.000400 0.008894 -0.013485
v -0.000360 0.008894 -0.013485
v -0.000360 0.008899 -0.013489
v -0.000400 0.008899 -0.013489
v -0.000400 0.008894 -0.013485
v -0.000400 0.008939 -0.013504
v -0.000360 0.008939 -0.013504
v -0.000400 0.008949 -0.013504
v -0.000400 0.008949 -0.013504
v -0.000360 0.008939 -0.013504
v -0.000360 0.008949 -0.013504
v -0.000360 0.008959 -0.013443
v -0.000400 0.008959 -0.013443
v -0.000360 0.008959 -0.013494
v -0.000360 0.008959 -0.013494
v -0.000400 0.008959 -0.013443
v -0.000400 0.008959 -0.013494
v -0.000400 0.008959 -0.013357
v -0.000360 0.008959 -0.013357
v -0.000400 0.008959 -0.013306
v -0.000400 0.008959 -0.013306
v -0.000360 0.008959 -0.013357
v -0.000360 0.008959 -0.013306
v -0.000360 0.008939 -0.013296
v -0.000400 0.008939 -0.013296
v -0.000360 0.008949 -0.013296
v -0.000360 0.008949 -0.013296
v -0.000400 0.008939 -0.013296
v -0.000400 0.008949 -0.013296
v -0.000400 0.008875 -0.013360
v -0.000400 0.008876 -0.013354
v -0.000360 0.008875 -0.013360
v -0.000400 0.008876 -0.013354
v -0.000400 0.008877 -0.013348
v -0.000360 0.008876 -0.013354
v -0.000400 0.008877 -0.013348
v -0.000360 0.008877 -0.013348
v -0.000360 0.008876 -0.013354
v -0.000400 0.008878 -0.013341
v -0.000360 0.008878 -0.013341
v -0.000360 0.008877 -0.013348
v -0.000400 0.008880 -0.013336
v -0.000360 0.008880 -0.013336
v -0.000360 0.008878 -0.013341
v -0.000400 0.008883 -0.013330
v -0.000360 0.008880 -0.013336
v -0.000400 0.008880 -0.013336
v -0.000400 0.008886 -0.013324
v -0.000360 0.008883 -0.013330
v -0.000400 0.008883 -0.013330
v -0.000360 0.008886 -0.013324
v -0.000360 0.008883 -0.013330
v -0.000400 0.008886 -0.013324
v -0.000360 0.008890 -0.013319
v -0.000360 0.008886 -0.013324
v -0.000400 0.008890 -0.013319
v -0.000360 0.008890 -0.013319
v -0.000400 0.008890 -0.013319
v -0.000400 0.008894 -0.013315
v -0.000360 0.008894 -0.013315
v -0.000400 0.008894 -0.013315
v -0.000400 0.008899 -0.013311
v -0.000360 0.008894 -0.013315
v -0.000400 0.008899 -0.013311
v -0.000360 0.008899 -0.013311
v -0.000360 0.008899 -0.013311
v -0.000400 0.008904 -0.013307
v -0.000360 0.008904 -0.013307
v -0.000400 0.008904 -0.013307
v -0.000400 0.008909 -0.013304
v -0.000360 0.008904 -0.013307
v -0.000400 0.008909 -0.013304
v -0.000400 0.008915 -0.013301
v -0.000360 0.008909 -0.013304
v -0.000400 0.008915 -0.013301
v -0.000360 0.008915 -0.013301
v -0.000360 0.008909 -0.013304
v -0.000360 0.008933 -0.013296
v -0.000400 0.008939 -0.013296
v -0.000360 0.008939 -0.013296
v -0.000400 0.008933 -0.013296
v -0.000400 0.008939 -0.013296
v -0.000360 0.008933 -0.013296
v -0.000400 0.008933 -0.013296
v -0.000360 0.008933 -0.013296
v -0.000360 0.008927 -0.013297
v -0.000400 0.008933 -0.013296
v -0.000360 0.008927 -0.013297
v -0.000400 0.008927 -0.013297
v -0.000360 0.008927 -0.013297
v -0.000360 0.008921 -0.013299
v -0.000400 0.008927 -0.013297
v -0.000360 0.008921 -0.013299
v -0.000400 0.008921 -0.013299
v -0.000400 0.008927 -0.013297
v -0.000360 0.008915 -0.013301
v -0.000400 0.008921 -0.013299
v -0.000360 0.008921 -0.013299
v -0.000400 0.008915 -0.013301
v -0.000400 0.008921 -0.013299
v -0.000360 0.008915 -0.013301
v -0.000360 0.008904 -0.013307
v -0.000400 0.008909 -0.013304
v -0.000360 0.008909 -0.013304
v -0.000360 0.008899 -0.013311
v -0.000400 0.008899 -0.013311
v -0.000400 0.008904 -0.013307
v -0.000360 0.008894 -0.013315
v -0.000360 0.008890 -0.013319
v -0.000400 0.008894 -0.013315
v -0.000400 0.008890 -0.013319
v -0.000360 0.008886 -0.013324
v -0.000400 0.008886 -0.013324
v -0.000400 0.008883 -0.013330
v -0.000360 0.008883 -0.013330
v -0.000360 0.008880 -0.013336
v -0.000400 0.008878 -0.013341
v -0.000400 0.008880 -0.013336
v -0.000360 0.008878 -0.013341
v -0.000360 0.008876 -0.013354
v -0.000360 0.008875 -0.013360
v -0.000400 0.008876 -0.013354
v -0.000360 0.008877 -0.013348
v -0.000400 0.008877 -0.013348
v -0.000400 0.008878 -0.013341
v -0.000400 0.008959 -0.013443
v -0.000360 0.008959 -0.013443
v -0.000400 0.008970 -0.013443
v -0.000377 0.008993 -0.013443
v -0.000360 0.008959 -0.013443
v -0.000360 0.008993 -0.013443
v -0.000377 0.008993 -0.013443
v -0.000400 0.008970 -0.013443
v -0.000360 0.008959 -0.013443
v -0.000400 0.008959 -0.013357
v -0.000400 0.008970 -0.013357
v -0.000360 0.008959 -0.013357
v -0.000360 0.008959 -0.013357
v -0.000400 0.008970 -0.013357
v -0.000377 0.008993 -0.013357
v -0.000377 0.008993 -0.013357
v -0.000360 0.008993 -0.013357
v -0.000360 0.008959 -0.013357
v -0.000367 0.009003 -0.013347
v -0.000360 0.009003 -0.013347
v -0.000360 0.009003 -0.013349
v -0.000367 0.009003 -0.013349
v -0.000367 0.009003 -0.013347
v -0.000360 0.009003 -0.013349
v -0.000360 0.009003 -0.013349
v -0.000360 0.009002 -0.013351
v -0.000367 0.009003 -0.013349
v -0.000367 0.009003 -0.013349
v -0.000360 0.009002 -0.013351
v -0.000368 0.009002 -0.013351
v -0.000368 0.009002 -0.013351
v -0.000360 0.009002 -0.013351
v -0.000360 0.009001 -0.013353
v -0.000369 0.009001 -0.013353
v -0.000368 0.009002 -0.013351
v -0.000360 0.009001 -0.013353
v -0.000360 0.009000 -0.013354
v -0.000369 0.009001 -0.013353
v -0.000360 0.009001 -0.013353
v -0.000360 0.008999 -0.013355
v -0.000370 0.009000 -0.013354
v -0.000360 0.009000 -0.013354
v -0.000360 0.009000 -0.013354
v -0.000370 0.009000 -0.013354
v -0.000369 0.009001 -0.013353
v -0.000375 0.008995 -0.013357
v -0.000360 0.008993 -0.013357
v -0.000377 0.008993 -0.013357
v -0.000375 0.008995 -0.013357
v -0.000360 0.008995 -0.013357
v -0.000360 0.008993 -0.013357
v -0.000375 0.008995 -0.013357
v -0.000373 0.008997 -0.013356
v -0.000360 0.008995 -0.013357
v -0.000360 0.008995 -0.013357
v -0.000373 0.008997 -0.013356
v -0.000360 0.008997 -0.013356
v -0.000360 0.008997 -0.013356
v -0.000373 0.008997 -0.013356
v -0.000371 0.008999 -0.013355
v -0.000360 0.008999 -0.013355
v -0.000360 0.008997 -0.013356
v -0.000371 0.008999 -0.013355
v -0.000370 0.009000 -0.013354
v -0.000360 0.008999 -0.013355
v -0.000371 0.008999 -0.013355
v -0.000360 0.008613 -0.013357
v -0.000375 0.008611 -0.013357
v -0.000377 0.008613 -0.013357
v -0.000360 0.008613 -0.013357
v -0.000360 0.008611 -0.013357
v -0.000375 0.008611 -0.013357
v -0.000375 0.008611 -0.013357
v -0.000360 0.008611 -0.013357
v -0.000373 0.008609 -0.013356
v -0.000373 0.008609 -0.013356
v -0.000360 0.008611 -0.013357
v -0.000360 0.008609 -0.013356
v -0.000360 0.008607 -0.013355
v -0.000360 0.008606 -0.013354
v -0.000370 0.008606 -0.013354
v -0.000371 0.008607 -0.013355
v -0.000360 0.008609 -0.013356
v -0.000360 0.008607 -0.013355
v -0.000360 0.008606 -0.013354
v -0.000360 0.008605 -0.013353
v -0.000369 0.008605 -0.013353
v -0.000371 0.008607 -0.013355
v -0.000373 0.008609 -0.013356
v -0.000360 0.008609 -0.013356
v -0.000360 0.008603 -0.013349
v -0.000360 0.008603 -0.013347
v -0.000367 0.008603 -0.013347
v -0.000367 0.008603 -0.013349
v -0.000360 0.008603 -0.013349
v -0.000367 0.008603 -0.013347
v -0.000367 0.008603 -0.013349
v -0.000360 0.008604 -0.013351
v -0.000360 0.008603 -0.013349
v -0.000367 0.008603 -0.013349
v -0.000368 0.008604 -0.013351
v -0.000360 0.008604 -0.013351
v -0.000360 0.008604 -0.013351
v -0.000368 0.008604 -0.013351
v -0.000360 0.008605 -0.013353
v -0.000360 0.008605 -0.013353
v -0.000368 0.008604 -0.013351
v -0.000369 0.008605 -0.013353
v -0.000360 0.008606 -0.013354
v -0.000369 0.008605 -0.013353
v -0.000370 0.008606 -0.013354
v -0.000370 0.008606 -0.013354
v -0.000371 0.008607 -0.013355
v -0.000360 0.008607 -0.013355
v -0.000360 0.008603 -0.013453
v -0.000360 0.008603 -0.013451
v -0.000367 0.008603 -0.013451
v -0.000360 0.008603 -0.013451
v -0.000360 0.008603 -0.013451
v -0.000360 0.008604 -0.013449
v -0.000367 0.008603 -0.013451
v -0.000367 0.008603 -0.013451
v -0.000360 0.008604 -0.013449
v -0.000368 0.008604 -0.013449
v -0.000368 0.008604 -0.013449
v -0.000360 0.008604 -0.013449
v -0.000360 0.008605 -0.013447
v -0.000369 0.008605 -0.013447
v -0.000368 0.008604 -0.013449
v -0.000360 0.008605 -0.013447
v -0.000360 0.008606 -0.013446
v -0.000369 0.008605 -0.013447
v -0.000360 0.008605 -0.013447
v -0.000360 0.008607 -0.013445
v -0.000370 0.008606 -0.013446
v -0.000360 0.008606 -0.013446
v -0.000360 0.008606 -0.013446
v -0.000370 0.008606 -0.013446
v -0.000369 0.008605 -0.013447
v -0.000375 0.008611 -0.013443
v -0.000360 0.008613 -0.013443
v -0.000377 0.008613 -0.013443
v -0.000375 0.008611 -0.013443
v -0.000360 0.008611 -0.013443
v -0.000360 0.008613 -0.013443
v -0.000375 0.008611 -0.013443
v -0.000373 0.008609 -0.013444
v -0.000360 0.008611 -0.013443
v -0.000360 0.008611 -0.013443
v -0.000373 0.008609 -0.013444
v -0.000360 0.008609 -0.013444
v -0.000360 0.008609 -0.013444
v -0.000373 0.008609 -0.013444
v -0.000371 0.008607 -0.013445
v -0.000360 0.008607 -0.013445
v -0.000360 0.008609 -0.013444
v -0.000371 0.008607 -0.013445
v -0.000370 0.008606 -0.013446
v -0.000360 0.008607 -0.013445
v -0.000371 0.008607 -0.013445
v -0.000360 0.008655 -0.013296
v -0.000360 0.008653 -0.013297
v -0.000400 0.008655 -0.013296
v -0.000360 0.008653 -0.013297
v -0.000360 0.008651 -0.013298
v -0.000400 0.008653 -0.013297
v -0.000360 0.008651 -0.013298
v -0.000400 0.008651 -0.013298
v -0.000400 0.008653 -0.013297
v -0.000360 0.008650 -0.013299
v -0.000400 0.008650 -0.013299
v -0.000400 0.008651 -0.013298
v -0.000360 0.008649 -0.013300
v -0.000400 0.008650 -0.013299
v -0.000360 0.008650 -0.013299
v -0.000360 0.008648 -0.013302
v -0.000400 0.008649 -0.013300
v -0.000360 0.008649 -0.013300
v -0.000400 0.008648 -0.013302
v -0.000400 0.008649 -0.013300
v -0.000360 0.008648 -0.013302
v -0.000360 0.008655 -0.013296
v -0.000400 0.008655 -0.013296
v -0.000360 0.008657 -0.013296
v -0.000400 0.008647 -0.013304
v -0.000360 0.008647 -0.013306
v -0.000400 0.008647 -0.013306
v -0.000360 0.008647 -0.013304
v -0.000360 0.008647 -0.013306
v -0.000400 0.008647 -0.013304
v -0.000360 0.008647 -0.013304
v -0.000400 0.008647 -0.013304
v -0.000400 0.008648 -0.013302
v -0.000360 0.008647 -0.013304
v -0.000400 0.008648 -0.013302
v -0.000360 0.008648 -0.013302
v -0.000360 0.008649 -0.013300
v -0.000400 0.008649 -0.013300
v -0.000400 0.008650 -0.013299
v -0.000360 0.008651 -0.013298
v -0.000360 0.008650 -0.013299
v -0.000400 0.008651 -0.013298
v -0.000400 0.008655 -0.013296
v -0.000400 0.008657 -0.013296
v -0.000360 0.008657 -0.013296
v -0.000360 0.008653 -0.013297
v -0.000400 0.008653 -0.013297
v -0.000400 0.008655 -0.013296
v -0.000360 0.008647 -0.013496
v -0.000360 0.008648 -0.013498
v -0.000400 0.008647 -0.013496
v -0.000360 0.008648 -0.013498
v -0.000360 0.008649 -0.013500
v -0.000400 0.008648 -0.013498
v -0.000360 0.008649 -0.013500
v -0.000400 0.008649 -0.013500
v -0.000400 0.008648 -0.013498
v -0.000360 0.008650 -0.013501
v -0.000400 0.008650 -0.013501
v -0.000400 0.008649 -0.013500
v -0.000360 0.008651 -0.013502
v -0.000400 0.008650 -0.013501
v -0.000360 0.008650 -0.013501
v -0.000360 0.008653 -0.013503
v -0.000400 0.008651 -0.013502
v -0.000360 0.008651 -0.013502
v -0.000400 0.008653 -0.013503
v -0.000400 0.008651 -0.013502
v -0.000360 0.008653 -0.013503
v -0.000360 0.008647 -0.013496
v -0.000400 0.008647 -0.013496
v -0.000360 0.008647 -0.013494
v -0.000400 0.008655 -0.013504
v -0.000360 0.008657 -0.013504
v -0.000400 0.008657 -0.013504
v -0.000360 0.008655 -0.013504
v -0.000360 0.008657 -0.013504
v -0.000400 0.008655 -0.013504
v -0.000360 0.008655 -0.013504
v -0.000400 0.008655 -0.013504
v -0.000400 0.008653 -0.013503
v -0.000360 0.008655 -0.013504
v -0.000400 0.008653 -0.013503
v -0.000360 0.008653 -0.013503
v -0.000360 0.008651 -0.013502
v -0.000400 0.008651 -0.013502
v -0.000400 0.008650 -0.013501
v -0.000360 0.008649 -0.013500
v -0.000360 0.008650 -0.013501
v -0.000400 0.008649 -0.013500
v -0.000400 0.008647 -0.013496
v -0.000400 0.008647 -0.013494
v -0.000360 0.008647 -0.013494
v -0.000360 0.008648 -0.013498
v -0.000400 0.008648 -0.013498
v -0.000400 0.008647 -0.013496
v -0.000360 0.008959 -0.013304
v -0.000360 0.008958 -0.013302
v -0.000400 0.008959 -0.013304
v -0.000360 0.008958 -0.013302
v -0.000360 0.008957 -0.013300
v -0.000400 0.008958 -0.013302
v -0.000360 0.008957 -0.013300
v -0.000400 0.008957 -0.013300
v -0.000400 0.008958 -0.013302
v -0.000360 0.008956 -0.013299
v -0.000400 0.008956 -0.013299
v -0.000400 0.008957 -0.013300
v -0.000360 0.008955 -0.013298
v -0.000400 0.008956 -0.013299
v -0.000360 0.008956 -0.013299
v -0.000360 0.008953 -0.013297
v -0.000400 0.008955 -0.013298
v -0.000360 0.008955 -0.013298
v -0.000400 0.008953 -0.013297
v -0.000400 0.008955 -0.013298
v -0.000360 0.008953 -0.013297
v -0.000360 0.008949 -0.013296
v -0.000400 0.008949 -0.013296
v -0.000400 0.008951 -0.013296
v -0.000360 0.008949 -0.013296
v -0.000400 0.008951 -0.013296
v -0.000360 0.008951 -0.013296
v -0.000400 0.008951 -0.013296
v -0.000400 0.008953 -0.013297
v -0.000360 0.008951 -0.013296
v -0.000360 0.008959 -0.013304
v -0.000400 0.008959 -0.013304
v -0.000360 0.008959 -0.013306
v -0.000360 0.008953 -0.013297
v -0.000360 0.008951 -0.013296
v -0.000400 0.008953 -0.013297
v -0.000400 0.008959 -0.013304
v -0.000400 0.008959 -0.013306
v -0.000360 0.008959 -0.013306
v -0.000400 0.008959 -0.013304
v -0.000360 0.008958 -0.013302
v -0.000400 0.008958 -0.013302
v -0.000360 0.008957 -0.013300
v -0.000360 0.008956 -0.013299
v -0.000400 0.008957 -0.013300
v -0.000360 0.008955 -0.013298
v -0.000400 0.008955 -0.013298
v -0.000400 0.008956 -0.013299
v -0.000360 0.008993 -0.013600
v -0.000377 0.008993 -0.013600
v -0.000375 0.008995 -0.013600
v -0.000360 0.008995 -0.013600
v -0.000360 0.008993 -0.013600
v -0.000375 0.008995 -0.013600
v -0.000373 0.008997 -0.013599
v -0.000360 0.008995 -0.013600
v -0.000375 0.008995 -0.013600
v -0.000373 0.008997 -0.013599
v -0.000360 0.008997 -0.013599
v -0.000360 0.008995 -0.013600
v -0.000373 0.008997 -0.013599
v -0.000371 0.008999 -0.013598
v -0.000360 0.008997 -0.013599
v -0.000360 0.008997 -0.013599
v -0.000371 0.008999 -0.013598
v -0.000360 0.008999 -0.013598
v -0.000360 0.008999 -0.013598
v -0.000370 0.009000 -0.013597
v -0.000360 0.009000 -0.013597
v -0.000360 0.009003 -0.013590
v -0.000360 0.009003 -0.013592
v -0.000360 0.009003 -0.013592
v -0.000367 0.009003 -0.013592
v -0.000360 0.009003 -0.013592
v -0.000360 0.009002 -0.013594
v -0.000367 0.009003 -0.013592
v -0.000367 0.009003 -0.013592
v -0.000360 0.009002 -0.013594
v -0.000368 0.009002 -0.013594
v -0.000368 0.009002 -0.013594
v -0.000360 0.009002 -0.013594
v -0.000360 0.009001 -0.013596
v -0.000369 0.009001 -0.013596
v -0.000368 0.009002 -0.013594
v -0.000360 0.009001 -0.013596
v -0.000360 0.009000 -0.013597
v -0.000369 0.009001 -0.013596
v -0.000360 0.009001 -0.013596
v -0.000360 0.009000 -0.013597
v -0.000370 0.009000 -0.013597
v -0.000369 0.009001 -0.013596
v -0.000370 0.009000 -0.013597
v -0.000360 0.008999 -0.013598
v -0.000371 0.008999 -0.013598
v -0.000360 0.008603 -0.013590
v -0.000360 0.008603 -0.013592
v -0.000360 0.008603 -0.013592
v -0.000367 0.008603 -0.013592
v -0.000360 0.008604 -0.013594
v -0.000360 0.008603 -0.013592
v -0.000367 0.008603 -0.013592
v -0.000368 0.008604 -0.013594
v -0.000360 0.008604 -0.013594
v -0.000367 0.008603 -0.013592
v -0.000368 0.008604 -0.013594
v -0.000360 0.008605 -0.013596
v -0.000360 0.008604 -0.013594
v -0.000368 0.008604 -0.013594
v -0.000369 0.008605 -0.013596
v -0.000360 0.008605 -0.013596
v -0.000360 0.008605 -0.013596
v -0.000369 0.008605 -0.013596
v -0.000360 0.008606 -0.013597
v -0.000360 0.008606 -0.013597
v -0.000369 0.008605 -0.013596
v -0.000370 0.008606 -0.013597
v -0.000360 0.008607 -0.013598
v -0.000360 0.008606 -0.013597
v -0.000370 0.008606 -0.013597
v -0.000377 0.008613 -0.013600
v -0.000360 0.008613 -0.013600
v -0.000375 0.008611 -0.013600
v -0.000375 0.008611 -0.013600
v -0.000360 0.008613 -0.013600
v -0.000360 0.008611 -0.013600
v -0.000373 0.008609 -0.013599
v -0.000375 0.008611 -0.013600
v -0.000360 0.008611 -0.013600
v -0.000371 0.008607 -0.013598
v -0.000360 0.008609 -0.013599
v -0.000360 0.008607 -0.013598
v -0.000371 0.008607 -0.013598
v -0.000373 0.008609 -0.013599
v -0.000360 0.008609 -0.013599
v -0.000370 0.008606 -0.013597
v -0.000371 0.008607 -0.013598
v -0.000360 0.008607 -0.013598
v -0.000373 0.008609 -0.013599
v -0.000360 0.008611 -0.013600
v -0.000360 0.008609 -0.013599
v -0.000360 0.008951 -0.013504
v -0.000400 0.008951 -0.013504
v -0.000360 0.008949 -0.013504
v -0.000360 0.008953 -0.013503
v -0.000400 0.008951 -0.013504
v -0.000360 0.008951 -0.013504
v -0.000360 0.008955 -0.013502
v -0.000400 0.008953 -0.013503
v -0.000360 0.008953 -0.013503
v -0.000400 0.008955 -0.013502
v -0.000400 0.008953 -0.013503
v -0.000360 0.008955 -0.013502
v -0.000400 0.008956 -0.013501
v -0.000400 0.008955 -0.013502
v -0.000360 0.008956 -0.013501
v -0.000400 0.008956 -0.013501
v -0.000360 0.008956 -0.013501
v -0.000360 0.008957 -0.013500
v -0.000400 0.008957 -0.013500
v -0.000360 0.008957 -0.013500
v -0.000360 0.008958 -0.013498
v -0.000400 0.008959 -0.013494
v -0.000400 0.008959 -0.013496
v -0.000360 0.008959 -0.013494
v -0.000400 0.008959 -0.013496
v -0.000360 0.008959 -0.013496
v -0.000360 0.008959 -0.013494
v -0.000400 0.008958 -0.013498
v -0.000360 0.008959 -0.013496
v -0.000400 0.008959 -0.013496
v -0.000360 0.008958 -0.013498
v -0.000360 0.008959 -0.013496
v -0.000400 0.008958 -0.013498
v -0.000360 0.008958 -0.013498
v -0.000400 0.008958 -0.013498
v -0.000400 0.008957 -0.013500
v -0.000360 0.008957 -0.013500
v -0.000400 0.008957 -0.013500
v -0.000400 0.008956 -0.013501
v -0.000360 0.008955 -0.013502
v -0.000360 0.008956 -0.013501
v -0.000400 0.008955 -0.013502
v -0.000400 0.008951 -0.013504
v -0.000400 0.008949 -0.013504
v -0.000360 0.008949 -0.013504
v -0.000360 0.008953 -0.013503
v -0.000400 0.008953 -0.013503
v -0.000400 0.008951 -0.013504
v -0.000360 0.008993 -0.013443
v -0.000375 0.008995 -0.013443
v -0.000377 0.008993 -0.013443
v -0.000360 0.008993 -0.013443
v -0.000360 0.008995 -0.013443
v -0.000375 0.008995 -0.013443
v -0.000375 0.008995 -0.013443
v -0.000360 0.008995 -0.013443
v -0.000373 0.008997 -0.013444
v -0.000373 0.008997 -0.013444
v -0.000360 0.008995 -0.013443
v -0.000360 0.008997 -0.013444
v -0.000360 0.008999 -0.013445
v -0.000360 0.009000 -0.013446
v -0.000370 0.009000 -0.013446
v -0.000371 0.008999 -0.013445
v -0.000360 0.008997 -0.013444
v -0.000360 0.008999 -0.013445
v -0.000360 0.009000 -0.013446
v -0.000360 0.009001 -0.013447
v -0.000369 0.009001 -0.013447
v -0.000371 0.008999 -0.013445
v -0.000373 0.008997 -0.013444
v -0.000360 0.008997 -0.013444
v -0.000360 0.009003 -0.013451
v -0.000360 0.009003 -0.013453
v -0.000367 0.009003 -0.013451
v -0.000360 0.009003 -0.013451
v -0.000367 0.009003 -0.013451
v -0.000360 0.009002 -0.013449
v -0.000360 0.009003 -0.013451
v -0.000367 0.009003 -0.013451
v -0.000368 0.009002 -0.013449
v -0.000360 0.009002 -0.013449
v -0.000360 0.009002 -0.013449
v -0.000368 0.009002 -0.013449
v -0.000360 0.009001 -0.013447
v -0.000360 0.009001 -0.013447
v -0.000368 0.009002 -0.013449
v -0.000369 0.009001 -0.013447
v -0.000360 0.009000 -0.013446
v -0.000369 0.009001 -0.013447
v -0.000370 0.009000 -0.013446
v -0.000370 0.009000 -0.013446
v -0.000371 0.008999 -0.013445
v -0.000360 0.008999 -0.013445
v -0.000310 0.008773 -0.013420
v -0.000310 0.008773 -0.013380
v -0.000360 0.008773 -0.013420
v -0.000360 0.008773 -0.013380
v -0.000360 0.008773 -0.013420
v -0.000270 0.008780 -0.013420
v -0.000310 0.008773 -0.013420
v -0.000270 0.008783 -0.013420
v -0.000310 0.008773 -0.013420
v -0.000360 0.008783 -0.013420
v -0.000360 0.008773 -0.013420
v -0.000360 0.008783 -0.013420
v -0.000310 0.008773 -0.013420
v -0.000310 0.008783 -0.013430
v -0.000360 0.008783 -0.013420
v -0.000360 0.008783 -0.013430
v -0.000270 0.008783 -0.013420
v -0.000360 0.008783 -0.013420
v -0.000270 0.008783 -0.013420
v -0.000270 0.008783 -0.013423
v -0.000310 0.008823 -0.013430
v -0.000310 0.008783 -0.013430
v -0.000360 0.008823 -0.013430
v -0.000310 0.008783 -0.013430
v -0.000360 0.008783 -0.013430
v -0.000360 0.008823 -0.013430
v -0.000270 0.008823 -0.013423
v -0.000310 0.008823 -0.013430
v -0.000270 0.008823 -0.013420
v -0.000310 0.008823 -0.013430
v -0.000360 0.008823 -0.013420
v -0.000360 0.008823 -0.013430
v -0.000360 0.008823 -0.013420
v -0.000310 0.008823 -0.013430
v -0.000310 0.008833 -0.013420
v -0.000360 0.008823 -0.013420
v -0.000360 0.008833 -0.013420
v -0.000270 0.008823 -0.013420
v -0.000360 0.008823 -0.013420
v -0.000270 0.008823 -0.013420
v -0.000270 0.008826 -0.013420
v -0.000310 0.008833 -0.013380
v -0.000310 0.008833 -0.013420
v -0.000360 0.008833 -0.013380
v -0.000310 0.008833 -0.013420
v -0.000360 0.008833 -0.013420
v -0.000360 0.008833 -0.013380
v -0.000270 0.008826 -0.013380
v -0.000310 0.008833 -0.013380
v -0.000270 0.008823 -0.013380
v -0.000310 0.008833 -0.013380
v -0.000360 0.008823 -0.013380
v -0.000360 0.008833 -0.013380
v -0.000360 0.008823 -0.013380
v -0.000310 0.008833 -0.013380
v -0.000310 0.008823 -0.013370
v -0.000360 0.008823 -0.013380
v -0.000360 0.008823 -0.013370
v -0.000270 0.008823 -0.013380
v -0.000360 0.008823 -0.013380
v -0.000270 0.008823 -0.013380
v -0.000270 0.008823 -0.013377
v -0.000310 0.008783 -0.013370
v -0.000310 0.008823 -0.013370
v -0.000360 0.008783 -0.013370
v -0.000310 0.008823 -0.013370
v -0.000360 0.008823 -0.013370
v -0.000360 0.008783 -0.013370
v -0.000270 0.008783 -0.013377
v -0.000310 0.008783 -0.013370
v -0.000270 0.008783 -0.013380
v -0.000310 0.008783 -0.013370
v -0.000360 0.008783 -0.013380
v -0.000360 0.008783 -0.013370
v -0.000360 0.008783 -0.013380
v -0.000310 0.008783 -0.013370
v -0.000360 0.008807 -0.013380
v -0.000270 0.008807 -0.013380
v -0.000360 0.008803 -0.013380
v -0.000360 0.008811 -0.013382
v -0.000360 0.008814 -0.013383
v -0.000270 0.008811 -0.013382
v -0.000270 0.008814 -0.013383
v -0.000270 0.008817 -0.013386
v -0.000360 0.008817 -0.013386
v -0.000360 0.008820 -0.013389
v -0.000270 0.008820 -0.013389
v -0.000360 0.008821 -0.013392
v -0.000270 0.008821 -0.013392
v -0.000360 0.008823 -0.013396
v -0.000270 0.008823 -0.013396
v -0.000360 0.008823 -0.013400
v -0.000360 0.008823 -0.013404
v -0.000270 0.008823 -0.013400
v -0.000270 0.008823 -0.013404
v -0.000360 0.008821 -0.013408
v -0.000270 0.008821 -0.013408
v -0.000360 0.008820 -0.013411
v -0.000360 0.008817 -0.013414
v -0.000270 0.008820 -0.013411
v -0.000270 0.008817 -0.013414
v -0.000270 0.008814 -0.013417
v -0.000360 0.008814 -0.013417
v -0.000360 0.008811 -0.013418
v -0.000270 0.008811 -0.013418
v -0.000360 0.008807 -0.013420
v -0.000270 0.008807 -0.013420
v -0.000360 0.008803 -0.013420
v -0.000270 0.008803 -0.013420
v -0.000360 0.008799 -0.013420
v -0.000270 0.008799 -0.013420
v -0.000360 0.008795 -0.013418
v -0.000270 0.008795 -0.013418
v -0.000360 0.008792 -0.013417
v -0.000360 0.008783 -0.013400
v -0.000270 0.008783 -0.013400
v -0.000270 0.008783 -0.013404
v -0.000360 0.008783 -0.013396
v -0.000270 0.008783 -0.013396
v -0.000360 0.008785 -0.013392
v -0.000270 0.008785 -0.013392
v -0.000360 0.008786 -0.013389
v -0.000270 0.008786 -0.013389
v -0.000360 0.008789 -0.013386
v -0.000360 0.008792 -0.013383
v -0.000270 0.008789 -0.013386
v -0.000270 0.008792 -0.013383
v -0.000270 0.008795 -0.013382
v -0.000360 0.008795 -0.013382
v -0.000270 0.008799 -0.013380
v -0.000360 0.008799 -0.013380
v -0.000270 0.008803 -0.013380
v -0.000360 0.008783 -0.013404
v -0.000270 0.008785 -0.013408
v -0.000360 0.008785 -0.013408
v -0.000270 0.008786 -0.013411
v -0.000360 0.008786 -0.013411
v -0.000270 0.008789 -0.013414
v -0.000360 0.008789 -0.013414
v -0.000270 0.008792 -0.013417
v -0.000310 0.008773 -0.013380
v -0.000360 0.008783 -0.013380
v -0.000360 0.008773 -0.013380
v -0.000270 0.008783 -0.013380
v -0.000360 0.008783 -0.013380
v -0.000310 0.008773 -0.013380
v -0.000270 0.008783 -0.013380
v -0.000310 0.008773 -0.013380
v -0.000270 0.008780 -0.013380
v -0.000270 0.008803 -0.013377
v -0.000270 0.008803 -0.013380
v -0.000270 0.008807 -0.013380
v -0.000270 0.008780 -0.013420
v -0.000270 0.008783 -0.013420
v -0.000270 0.008786 -0.013411
v -0.000270 0.008780 -0.013380
v -0.000270 0.008785 -0.013392
v -0.000270 0.008786 -0.013389
v -0.000270 0.008795 -0.013382
v -0.000270 0.008799 -0.013380
v -0.000270 0.008783 -0.013377
v -0.000270 0.008792 -0.013383
v -0.000270 0.008795 -0.013382
v -0.000270 0.008823 -0.013377
v -0.000270 0.008811 -0.013382
v -0.000270 0.008814 -0.013383
v -0.000270 0.008826 -0.013400
v -0.000270 0.008821 -0.013392
v -0.000270 0.008823 -0.013396
v -0.000270 0.008826 -0.013380
v -0.000270 0.008820 -0.013389
v -0.000270 0.008821 -0.013392
v -0.000270 0.008826 -0.013420
v -0.000270 0.008821 -0.013408
v -0.000270 0.008820 -0.013411
v -0.000270 0.008803 -0.013423
v -0.000270 0.008811 -0.013418
v -0.000270 0.008807 -0.013420
v -0.000270 0.008823 -0.013423
v -0.000270 0.008814 -0.013417
v -0.000270 0.008811 -0.013418
v -0.000270 0.008783 -0.013423
v -0.000270 0.008795 -0.013418
v -0.000270 0.008792 -0.013417
v -0.000270 0.008783 -0.013420
v -0.000270 0.008792 -0.013417
v -0.000270 0.008789 -0.013414
v -0.000270 0.008783 -0.013420
v -0.000270 0.008789 -0.013414
v -0.000270 0.008786 -0.013411
v -0.000270 0.008799 -0.013380
v -0.000270 0.008803 -0.013380
v -0.000270 0.008783 -0.013377
v -0.000270 0.008795 -0.013382
v -0.000270 0.008786 -0.013389
v -0.000270 0.008783 -0.013380
v -0.000270 0.008780 -0.013380
v -0.000270 0.008792 -0.013383
v -0.000270 0.008783 -0.013377
v -0.000270 0.008783 -0.013380
v -0.000270 0.008789 -0.013386
v -0.000270 0.008792 -0.013383
v -0.000270 0.008783 -0.013380
v -0.000270 0.008786 -0.013389
v -0.000270 0.008789 -0.013386
v -0.000270 0.008783 -0.013380
v -0.000270 0.008785 -0.013392
v -0.000270 0.008780 -0.013380
v -0.000270 0.008780 -0.013400
v -0.000270 0.008783 -0.013396
v -0.000270 0.008785 -0.013392
v -0.000270 0.008783 -0.013404
v -0.000270 0.008783 -0.013400
v -0.000270 0.008780 -0.013420
v -0.000270 0.008785 -0.013408
v -0.000270 0.008785 -0.013408
v -0.000270 0.008783 -0.013404
v -0.000270 0.008786 -0.013411
v -0.000270 0.008785 -0.013408
v -0.000270 0.008780 -0.013420
v -0.000270 0.008792 -0.013417
v -0.000270 0.008783 -0.013420
v -0.000270 0.008783 -0.013423
v -0.000270 0.008783 -0.013400
v -0.000270 0.008783 -0.013396
v -0.000270 0.008799 -0.013420
v -0.000270 0.008795 -0.013418
v -0.000270 0.008807 -0.013420
v -0.000270 0.008803 -0.013420
v -0.000270 0.008823 -0.013423
v -0.000270 0.008811 -0.013418
v -0.000270 0.008820 -0.013411
v -0.000270 0.008823 -0.013420
v -0.000270 0.008826 -0.013420
v -0.000270 0.008814 -0.013417
v -0.000270 0.008823 -0.013423
v -0.000270 0.008823 -0.013420
v -0.000270 0.008817 -0.013414
v -0.000270 0.008814 -0.013417
v -0.000270 0.008823 -0.013420
v -0.000270 0.008820 -0.013411
v -0.000270 0.008817 -0.013414
v -0.000270 0.008823 -0.013420
v -0.000270 0.008821 -0.013408
v -0.000270 0.008826 -0.013420
v -0.000270 0.008823 -0.013404
v -0.000270 0.008821 -0.013408
v -0.000270 0.008823 -0.013396
v -0.000270 0.008823 -0.013400
v -0.000270 0.008826 -0.013380
v -0.000270 0.008821 -0.013392
v -0.000270 0.008814 -0.013383
v -0.000270 0.008823 -0.013380
v -0.000270 0.008823 -0.013377
v -0.000270 0.008820 -0.013389
v -0.000270 0.008826 -0.013380
v -0.000270 0.008823 -0.013380
v -0.000270 0.008817 -0.013386
v -0.000270 0.008820 -0.013389
v -0.000270 0.008823 -0.013380
v -0.000270 0.008814 -0.013383
v -0.000270 0.008817 -0.013386
v -0.000270 0.008823 -0.013380
v -0.000270 0.008811 -0.013382
v -0.000270 0.008823 -0.013377
v -0.000270 0.008803 -0.013420
v -0.000270 0.008799 -0.013420
v -0.000270 0.008807 -0.013380
v -0.000270 0.008811 -0.013382
v -0.000270 0.008795 -0.013418
v -0.000270 0.008783 -0.013423
v -0.000270 0.008823 -0.013400
v -0.000270 0.008823 -0.013404
v -0.000360 0.008811 -0.013382
v -0.000360 0.008807 -0.013380
v -0.000360 0.008803 -0.013380
v -0.000360 0.008814 -0.013383
v -0.000360 0.008811 -0.013382
v -0.000360 0.008803 -0.013380
v -0.000360 0.008817 -0.013386
v -0.000360 0.008814 -0.013383
v -0.000360 0.008803 -0.013380
v -0.000360 0.008820 -0.013389
v -0.000360 0.008817 -0.013386
v -0.000360 0.008803 -0.013380
v -0.000360 0.008821 -0.013392
v -0.000360 0.008803 -0.013380
v -0.000360 0.008823 -0.013396
v -0.000360 0.008821 -0.013392
v -0.000360 0.008820 -0.013389
v -0.000360 0.008803 -0.013380
v -0.000360 0.008823 -0.013396
v -0.000360 0.008803 -0.013380
v -0.000360 0.008823 -0.013400
v -0.000360 0.008823 -0.013400
v -0.000360 0.008803 -0.013380
v -0.000360 0.008823 -0.013404
v -0.000360 0.008803 -0.013380
v -0.000360 0.008821 -0.013408
v -0.000360 0.008823 -0.013404
v -0.000360 0.008803 -0.013380
v -0.000360 0.008820 -0.013411
v -0.000360 0.008821 -0.013408
v -0.000360 0.008803 -0.013380
v -0.000360 0.008817 -0.013414
v -0.000360 0.008820 -0.013411
v -0.000360 0.008811 -0.013418
v -0.000360 0.008814 -0.013417
v -0.000360 0.008803 -0.013380
v -0.000360 0.008803 -0.013380
v -0.000360 0.008814 -0.013417
v -0.000360 0.008817 -0.013414
v -0.000360 0.008807 -0.013420
v -0.000360 0.008803 -0.013380
v -0.000360 0.008803 -0.013420
v -0.000360 0.008803 -0.013420
v -0.000360 0.008803 -0.013380
v -0.000360 0.008799 -0.013420
v -0.000360 0.008803 -0.013380
v -0.000360 0.008795 -0.013418
v -0.000360 0.008799 -0.013420
v -0.000360 0.008803 -0.013380
v -0.000360 0.008792 -0.013417
v -0.000360 0.008795 -0.013418
v -0.000360 0.008803 -0.013380
v -0.000360 0.008789 -0.013414
v -0.000360 0.008792 -0.013417
v -0.000360 0.008785 -0.013408
v -0.000360 0.008786 -0.013411
v -0.000360 0.008803 -0.013380
v -0.000360 0.008803 -0.013380
v -0.000360 0.008786 -0.013411
v -0.000360 0.008789 -0.013414
v -0.000360 0.008783 -0.013404
v -0.000360 0.008785 -0.013408
v -0.000360 0.008803 -0.013380
v -0.000360 0.008783 -0.013400
v -0.000360 0.008783 -0.013404
v -0.000360 0.008803 -0.013380
v -0.000360 0.008783 -0.013400
v -0.000360 0.008803 -0.013380
v -0.000360 0.008783 -0.013396
v -0.000360 0.008783 -0.013396
v -0.000360 0.008803 -0.013380
v -0.000360 0.008785 -0.013392
v -0.000360 0.008785 -0.013392
v -0.000360 0.008803 -0.013380
v -0.000360 0.008786 -0.013389
v -0.000360 0.008803 -0.013380
v -0.000360 0.008792 -0.013383
v -0.000360 0.008789 -0.013386
v -0.000360 0.008786 -0.013389
v -0.000360 0.008803 -0.013380
v -0.000360 0.008789 -0.013386
v -0.000360 0.008803 -0.013380
v -0.000360 0.008795 -0.013382
v -0.000360 0.008792 -0.013383
v -0.000360 0.008803 -0.013380
v -0.000360 0.008807 -0.013420
v -0.000360 0.008811 -0.013418
v -0.000360 0.008799 -0.013380
v -0.000360 0.008795 -0.013382
v -0.000360 0.008803 -0.013380
v -0.000270 0.008803 -0.013423
v -0.000270 0.008783 -0.013423
v -0.000310 0.008783 -0.013430
v -0.000270 0.008823 -0.013423
v -0.000270 0.008803 -0.013423
v -0.000270 0.008803 -0.013423
v -0.000310 0.008783 -0.013430
v -0.000270 0.008826 -0.013400
v -0.000270 0.008826 -0.013420
v -0.000310 0.008833 -0.013420
v -0.000270 0.008826 -0.013380
v -0.000270 0.008826 -0.013400
v -0.000270 0.008826 -0.013400
v -0.000310 0.008833 -0.013420
v -0.000270 0.008803 -0.013377
v -0.000270 0.008823 -0.013377
v -0.000310 0.008823 -0.013370
v -0.000270 0.008783 -0.013377
v -0.000270 0.008803 -0.013377
v -0.000270 0.008803 -0.013377
v -0.000310 0.008823 -0.013370
v -0.000270 0.008780 -0.013400
v -0.000270 0.008780 -0.013380
v -0.000270 0.008780 -0.013420
v -0.000270 0.008780 -0.013400
v -0.000270 0.008780 -0.013400
v -0.000330 0.008763 -0.013578
v -0.000360 0.008803 -0.013578
v -0.000330 0.008843 -0.013578
v -0.000360 0.008803 -0.013578
v -0.000360 0.008843 -0.013578
v -0.000360 0.008803 -0.013578
v -0.000360 0.008763 -0.013578
v -0.000330 0.008763 -0.013558
v -0.000360 0.008763 -0.013558
v -0.000330 0.008763 -0.013578
v -0.000330 0.008763 -0.013578
v -0.000360 0.008763 -0.013558
v -0.000360 0.008763 -0.013578
v -0.000330 0.008843 -0.013558
v -0.000360 0.008843 -0.013558
v -0.000330 0.008763 -0.013558
v -0.000330 0.008763 -0.013558
v -0.000360 0.008843 -0.013558
v -0.000360 0.008763 -0.013558
v -0.000330 0.008843 -0.013578
v -0.000360 0.008843 -0.013578
v -0.000330 0.008843 -0.013558
v -0.000330 0.008843 -0.013558
v -0.000360 0.008843 -0.013578
v -0.000360 0.008843 -0.013558
v -0.000330 0.008843 -0.013578
v -0.000330 0.008843 -0.013558
v -0.000330 0.008763 -0.013578
v -0.000330 0.008843 -0.013558
v -0.000330 0.008763 -0.013558
v -0.000330 0.008763 -0.013578
v -0.000400 0.008803 -0.013202
v -0.000373 0.008803 -0.013205
v -0.000400 0.008970 -0.013202
v -0.000400 0.008636 -0.013202
v -0.000373 0.008609 -0.013205
v -0.000400 0.008636 -0.013202
v -0.000400 0.008803 -0.013202
v -0.000373 0.008997 -0.013205
v -0.000400 0.008970 -0.013202
v -0.000373 0.008997 -0.013200
v -0.000373 0.008803 -0.013205
v -0.000373 0.008803 -0.013200
v -0.000373 0.008997 -0.013200
v -0.000373 0.008997 -0.013205
v -0.000373 0.008803 -0.013205
v -0.000373 0.008609 -0.013200
v -0.000373 0.008803 -0.013205
v -0.000373 0.008609 -0.013205
v -0.000373 0.008803 -0.013205
v -0.000373 0.008609 -0.013200
v -0.000373 0.008803 -0.013200
vn -1.0000 -0.0000 -0.0000
vn -1.0000 -0.0001 -0.0000
vn -1.0000 0.0001 -0.0000
vn -0.7072 0.7070 0.0003
vn -0.7071 0.7071 -0.0000
vn -0.7071 0.7071 -0.0001
vn -0.7071 0.7071 -0.0002
vn -0.7071 0.7071 0.0001
vn -0.7073 0.7069 0.0001
vn -0.7072 0.7070 0.0002
vn -0.7073 0.7069 -0.0000
vn -0.0000 -0.0000 1.0000
vn 0.0002 -0.0000 1.0000
vn -0.7071 -0.7071 -0.0000
vn -0.7071 -0.7071 0.0001
vn -0.7070 -0.7073 0.0003
vn -0.7074 -0.7068 -0.0001
vn -0.7070 -0.7072 -0.0004
vn -0.7072 -0.7071 0.0002
vn -0.7073 -0.7069 -0.0000
vn -0.7069 -0.7073 -0.0000
vn 1.0000 -0.0000 -0.0000
vn 1.0000 0.0001 -0.0000
vn 1.0000 -0.0001 -0.0000
vn -0.0000 1.0000 -0.0000
vn -0.7074 0.7068 -0.0000
vn -0.7070 0.7072 -0.0000
vn -0.7072 0.7071 0.0002
vn -0.7070 0.7072 -0.0003
vn -0.7072 0.7070 -0.0000
vn -0.0000 -1.0000 -0.0000
vn -0.7072 -0.7071 -0.0002
vn -0.7072 -0.7070 0.0004
vn -0.7074 -0.7068 0.0003
vn -0.7071 -0.7071 -0.0001
vn -0.7071 -0.7071 -0.0003
vn -0.7073 -0.7070 -0.0000
vn -0.7070 -0.7072 -0.0003
vn -0.0000 -0.0000 -1.0000
vn 0.0001 -0.0000 -1.0000
vn -0.0000 -0.0980 0.9952
vn -0.0000 -0.1951 0.9808
vn -0.0000 -0.2903 0.9569
vn -0.0000 -0.3827 0.9239
vn -0.0000 -0.4714 0.8819
vn -0.0000 -0.5556 0.8315
vn -0.0000 -0.6344 0.7730
vn -0.0000 -0.5556 0.8314
vn -0.0000 -0.7071 0.7071
vn -0.0000 -0.7730 0.6344
vn -0.0000 -0.7070 0.7072
vn -0.0000 -0.8314 0.5556
vn -0.0000 -0.8315 0.5555
vn -0.0000 -0.8819 0.4714
vn -0.0000 -0.9239 0.3827
vn -0.0000 -0.9952 0.0980
vn -0.0000 -1.0000 0.0001
vn -0.0000 -0.9808 0.1951
vn -0.0000 -0.9569 0.2903
vn -0.0000 -0.9952 -0.0980
vn -0.0000 -0.9808 -0.1951
vn -0.0000 -0.9569 -0.2903
vn -0.0000 -0.9239 -0.3827
vn -0.0000 -0.8819 -0.4714
vn -0.0000 -0.8315 -0.5555
vn -0.0000 -0.7730 -0.6344
vn -0.0000 -0.8314 -0.5556
vn -0.0000 -0.7071 -0.7071
vn -0.0000 -0.6344 -0.7730
vn -0.0000 -0.5556 -0.8314
vn -0.0000 -0.5556 -0.8315
vn -0.0000 -0.4714 -0.8819
vn -0.0000 -0.3827 -0.9239
vn -0.0000 -1.0000 -0.0001
vn -0.0000 -0.0980 -0.9952
vn -0.0000 -0.1951 -0.9808
vn -0.0000 -0.2903 -0.9569
vn -0.0000 -0.7072 -0.7070
vn -0.0000 0.0980 0.9952
vn -0.0000 0.1951 0.9808
vn -0.0000 0.2903 0.9569
vn -0.0000 0.3827 0.9239
vn -0.0000 0.4714 0.8819
vn -0.0000 0.5556 0.8315
vn -0.0000 0.5556 0.8314
vn -0.0000 0.6344 0.7730
vn -0.0000 0.7730 0.6344
vn -0.0000 0.8314 0.5556
vn -0.0000 0.8315 0.5555
vn -0.0000 0.8819 0.4714
vn -0.0000 0.9952 0.0980
vn -0.0000 0.9808 0.1951
vn -0.0000 0.9569 0.2903
vn -0.0000 0.9239 0.3827
vn -0.0000 0.8315 0.5556
vn -0.0000 0.7071 0.7071
vn -0.0000 0.7069 0.7073
vn -0.0000 0.9952 -0.0980
vn -0.0000 0.9808 -0.1951
vn -0.0000 0.9569 -0.2903
vn -0.0000 0.9239 -0.3827
vn -0.0000 0.8819 -0.4714
vn -0.0000 0.8315 -0.5555
vn -0.0000 0.7730 -0.6344
vn -0.0000 0.8315 -0.5556
vn -0.0000 0.7072 -0.7070
vn -0.0000 0.7071 -0.7071
vn -0.0000 0.6344 -0.7730
vn -0.0000 0.5556 -0.8314
vn -0.0000 0.5555 -0.8315
vn -0.0000 0.4714 -0.8819
vn -0.0000 0.3827 -0.9239
vn -0.0000 0.0980 -0.9952
vn -0.0000 0.1951 -0.9808
vn -0.0000 0.2903 -0.9569
vn -0.0000 0.5556 -0.8315
vn -0.0000 0.7070 -0.7073
vn -0.0000 0.8314 -0.5556
vn -0.0000 0.9808 -0.1950
vn -0.0000 0.7070 -0.7072
vn -0.0000 0.8314 -0.5557
vn -0.0000 0.1950 -0.9808
vn -0.0000 0.3826 -0.9239
vn -0.0000 0.7068 -0.7075
vn -0.0000 -0.1950 -0.9808
vn -0.0000 -0.3826 -0.9239
vn -0.0000 -0.5555 -0.8315
vn -0.0000 -0.7070 -0.7072
vn -0.0000 -0.8314 -0.5557
vn -0.0000 -0.9808 -0.1950
vn -0.0000 -0.9808 -0.1952
vn -0.0000 -0.8315 -0.5556
vn -0.0000 -0.7068 -0.7075
vn -0.0000 -0.9808 0.1950
vn -0.0000 -0.9808 0.1952
vn -0.0000 -0.8315 0.5556
vn -0.0000 -0.8314 0.5557
vn -0.0000 -0.7072 0.7070
vn -0.0000 -0.1950 0.9808
vn -0.0000 -0.3826 0.9239
vn -0.0000 -0.5555 0.8315
vn -0.0000 -0.7068 0.7075
vn -0.0000 0.1952 -0.9808
vn -0.0000 0.9239 -0.3826
vn -0.0000 0.9239 0.3826
vn -0.0000 0.8314 0.5557
vn -0.0000 0.7070 0.7072
vn -0.0000 0.5555 0.8315
vn -0.0000 0.9808 0.1950
vn -0.0000 0.1950 0.9808
vn -0.0000 0.1952 0.9808
vn -0.0000 0.3826 0.9239
vn -0.0000 0.7072 0.7070
vn -0.0000 -0.9239 -0.3826
vn -0.0000 -0.7069 -0.7073
vn -0.0000 -0.1952 -0.9808
vn -0.0000 0.7074 -0.7068
vn -0.0000 0.7068 -0.7074
vn -0.0000 -0.7074 -0.7068
vn -0.0000 -0.7068 -0.7074
vn -0.0000 -0.9239 0.3826
vn -0.0000 -0.7069 0.7073
vn -0.0000 -0.1952 0.9808
vn -0.0000 0.7068 0.7075
vn -0.0000 1.0000 0.0001
vn -0.0000 1.0000 -0.0001
vn -0.0000 -0.3828 -0.9238
vn -0.0000 -0.3828 0.9238
vn -0.0000 0.3828 0.9238
vn -0.0000 0.9238 -0.3828
vn -0.0000 0.3828 -0.9238
vn -0.0000 0.9238 0.3828
vn 0.0001 -0.0000 1.0000
vn 0.1724 -0.0000 -0.9850
vn 0.1724 0.9850 -0.0000
vn 0.0001 1.0000 -0.0000
vn 0.1724 -0.0000 0.9850
vn 0.1723 -0.0000 0.9850
vn 0.1724 -0.9850 -0.0000
vn 0.1105 -0.0000 0.9939
vn 0.1104 -0.0000 0.9939
s 1
usemtl Diffuse_51_51_51_100.031
f 1//1 2//1 3//1
f 4//1 5//1 6//1
f 7//1 8//1 9//1
f 10//1 11//1 12//1
f 13//1 14//1 15//1
f 3//1 16//2 1//1
f 3//1 2//1 17//1
f 18//1 13//1 1//1
f 19//1 1//1 16//2
f 20//1 1//1 19//1
f 21//1 1//1 20//1
f 22//1 1//1 21//1
f 23//1 1//1 22//1
f 1//1 23//1 24//1
f 1//1 24//1 25//1
f 1//1 25//1 26//1
f 1//1 26//1 18//1
f 13//1 18//1 27//1
f 13//1 27//1 28//1
f 13//1 28//1 29//1
f 13//1 29//1 30//1
f 13//1 30//1 14//1
f 31//1 14//1 32//1
f 14//1 33//1 32//1
f 34//1 35//1 36//1
f 33//1 35//1 34//1
f 36//1 37//1 38//1
f 38//1 39//1 40//1
f 39//1 41//1 40//1
f 41//1 42//1 43//1
f 42//1 44//1 43//1
f 45//1 46//1 47//1
f 45//1 47//1 48//1
f 48//1 49//1 50//1
f 51//1 50//1 49//1
f 52//1 53//1 51//1
f 54//1 53//1 52//1
f 55//1 54//1 56//1
f 55//1 56//1 57//1
f 58//1 57//1 59//1
f 60//1 61//1 62//1
f 61//1 59//1 62//1
f 60//1 62//1 63//1
f 58//1 59//1 61//1
f 64//1 65//1 66//1
f 67//1 65//1 64//1
f 68//1 69//1 70//1
f 69//1 71//1 70//1
f 72//1 4//1 68//1
f 68//1 73//1 74//1
f 75//1 4//1 72//1
f 76//1 73//1 68//1
f 77//1 4//1 75//1
f 78//1 4//1 77//1
f 79//1 4//1 78//1
f 80//1 4//1 79//1
f 4//1 80//1 81//1
f 76//1 68//1 82//1
f 4//1 83//1 84//1
f 85//1 86//1 63//1
f 85//1 65//1 67//1
f 85//1 67//1 86//1
f 63//1 86//1 60//1
f 5//1 4//1 87//1
f 9//1 88//1 7//1
f 9//1 8//1 89//1
f 90//1 91//1 7//1
f 92//1 7//1 88//1
f 93//1 7//1 92//1
f 94//1 7//1 93//1
f 95//1 7//1 94//1
f 96//1 7//1 95//1
f 7//1 96//1 97//1
f 7//1 97//1 98//1
f 7//1 98//1 99//1
f 7//1 99//1 90//1
f 91//1 90//1 100//1
f 91//1 100//1 101//1
f 91//1 101//1 102//1
f 91//1 102//1 103//1
f 91//1 103//1 69//1
f 91//1 69//1 68//1
f 70//1 82//1 68//1
f 4//1 81//1 83//1
f 84//1 87//1 4//1
f 6//1 5//1 104//1
f 66//1 70//1 71//1
f 66//1 71//1 64//1
f 32//1 33//1 34//1
f 57//1 58//1 55//1
f 56//1 54//1 52//1
f 51//1 53//1 50//1
f 47//1 49//1 48//1
f 105//1 46//1 45//1
f 44//1 42//1 106//1
f 44//1 106//1 105//1
f 43//1 40//1 41//1
f 39//1 38//1 37//1
f 37//1 36//1 35//1
f 107//1 31//1 32//1
f 108//1 31//1 107//1
f 109//1 31//1 108//1
f 31//1 109//1 110//1
f 31//1 111//1 10//1
f 111//1 112//1 10//1
f 113//1 10//1 114//1
f 10//1 115//1 114//1
f 116//1 10//1 113//1
f 117//1 10//1 116//1
f 10//1 117//1 118//1
f 10//1 118//1 119//1
f 112//1 115//1 10//1
f 31//1 110//1 111//1
f 74//1 72//1 68//1
f 120//3 10//1 119//1
f 106//1 46//1 105//1
f 11//1 10//1 120//3
f 11//1 121//1 12//1
f 15//1 14//1 31//1
f 122//4 123//5 124//6
f 124//6 123//5 125//7
f 126//6 122//4 124//6
f 124//6 127//8 128//9
f 129//5 130//10 124//6
f 124//6 130//10 127//8
f 131//11 129//5 124//6
f 124//5 132//5 133//5
f 133//5 134//5 135//5
f 133//5 136//5 137//5
f 124//5 133//5 137//5
f 126//6 124//6 128//9
f 138//5 124//5 139//5
f 140//12 141//12 142//12
f 141//12 140//12 143//12
f 143//12 144//12 145//13
f 143//12 146//12 147//12
f 143//12 145//13 141//12
f 148//14 149//14 150//14
f 149//14 151//14 150//14
f 150//14 152//14 153//14
f 154//14 150//14 155//15
f 154//14 156//16 150//14
f 150//14 157//17 158//15
f 150//14 159//18 157//17
f 160//14 150//14 158//15
f 155//15 150//14 161//19
f 162//14 149//14 163//14
f 164//20 150//14 160//14
f 159//18 150//14 156//16
f 149//21 165//21 166//21
f 167//22 168//22 169//22
f 170//22 171//22 172//22
f 170//22 173//22 174//22
f 175//22 176//22 177//22
f 178//22 179//22 180//22
f 180//22 179//22 181//22
f 182//22 183//22 176//22
f 184//22 181//22 185//22
f 186//22 184//22 187//22
f 181//22 184//22 180//22
f 188//22 189//22 184//22
f 185//22 190//22 184//22
f 174//22 191//22 192//22
f 193//22 170//22 192//22
f 184//22 194//22 180//22
f 195//23 196//22 197//22
f 198//22 195//23 197//22
f 199//22 198//22 197//22
f 200//22 199//22 197//22
f 201//22 200//22 197//22
f 202//22 201//22 197//22
f 203//22 202//22 197//22
f 203//22 169//22 168//22
f 204//22 205//22 206//22
f 204//22 207//22 205//22
f 205//22 207//22 208//22
f 209//22 205//22 208//22
f 209//22 210//22 205//22
f 211//22 210//22 212//22
f 210//22 213//22 214//22
s 0
f 210//24 215//24 216//24
s 1
f 210//22 217//22 215//22
f 218//22 219//22 220//22
f 221//22 218//22 222//22
f 221//22 223//22 218//22
f 221//22 224//22 223//22
f 221//22 225//22 224//22
f 226//22 221//22 227//22
f 226//22 228//22 221//22
f 229//22 227//22 221//22
f 219//22 218//22 210//22
f 221//22 222//22 230//22
f 231//22 219//22 210//22
f 232//22 231//22 210//22
f 233//22 232//22 210//22
f 234//22 233//22 210//22
f 210//22 209//22 234//22
f 210//22 211//22 213//22
f 210//22 216//22 212//22
f 206//22 235//22 236//22
f 236//22 235//22 237//22
f 237//22 235//22 238//22
f 238//22 235//22 239//22
f 240//22 241//22 235//22
f 235//22 241//22 242//22
f 243//22 235//22 244//22
f 244//22 235//22 172//22
f 172//22 235//22 170//22
f 170//22 235//22 176//22
f 176//22 235//22 177//22
f 171//22 170//22 245//22
f 174//22 192//22 170//22
f 176//22 179//22 178//22
f 246//22 186//22 191//22
f 190//22 188//22 184//22
f 191//22 186//22 247//22
f 189//22 248//22 184//22
f 249//22 247//22 186//22
f 187//22 184//22 248//22
f 170//22 193//22 250//22
f 186//22 251//22 252//22
f 253//22 186//22 252//22
f 186//22 254//22 251//22
f 253//22 249//22 186//22
f 255//22 256//22 257//22
f 258//22 255//22 257//22
f 259//22 260//22 261//22
f 261//22 260//22 262//22
f 263//22 264//22 265//22
f 266//22 267//22 268//22
f 269//22 270//22 271//22
f 268//22 272//22 273//22
f 273//22 274//22 275//22
f 275//22 276//22 277//22
f 277//22 278//22 279//22
f 279//22 280//22 281//22
f 263//22 259//22 282//22
f 283//22 281//22 284//22
f 285//22 283//22 286//22
f 287//22 259//22 261//22
f 288//22 254//22 187//22
f 288//22 258//22 257//22
f 288//22 187//22 258//22
f 254//22 186//22 187//22
f 246//22 289//22 186//22
f 206//22 236//22 204//22
f 256//22 255//22 262//22
f 239//22 235//22 242//22
f 260//22 256//22 262//22
f 214//22 205//22 210//22
f 176//22 290//22 291//22
f 221//22 228//22 225//22
f 292//22 293//22 294//22
f 292//22 285//22 293//22
f 285//22 295//22 293//22
f 220//22 222//22 218//22
f 296//22 285//22 297//22
f 298//22 299//22 300//22
f 301//22 298//22 302//22
f 301//22 303//22 298//22
f 301//22 304//22 303//22
f 301//22 305//22 304//22
f 306//22 301//22 307//22
f 306//22 308//22 301//22
f 309//22 307//22 301//22
f 299//22 298//22 310//22
f 301//22 302//22 311//22
f 312//22 299//22 313//22
f 314//22 312//22 315//22
f 316//22 314//22 317//22
f 318//22 316//22 319//22
f 320//22 321//22 318//22
f 322//22 323//22 324//22
f 325//22 326//22 323//22
f 327//22 328//22 329//22
f 330//22 331//22 328//22
f 332//22 287//22 331//22
f 333//22 334//22 287//22
f 335//22 266//22 270//22
f 285//22 336//22 283//22
f 337//22 259//22 287//22
f 285//22 292//22 336//22
f 285//22 338//22 295//22
f 285//22 339//22 338//22
f 285//22 340//22 341//22
s 0
f 285//24 296//24 340//24
s 1
f 341//22 339//22 285//22
f 246//22 191//22 174//22
f 245//22 170//22 250//22
f 291//22 179//22 176//22
f 183//22 290//22 176//22
f 176//22 178//22 342//22
f 343//22 344//22 177//22
f 177//22 344//22 345//22
f 346//22 343//22 177//22
f 347//22 346//22 177//22
f 175//22 177//22 345//22
f 177//22 348//22 347//22
f 177//22 349//22 348//22
f 177//22 350//22 349//22
f 169//22 351//22 177//22
f 169//22 352//22 351//22
f 169//22 203//22 352//22
f 352//22 203//22 353//22
f 354//22 355//22 197//22
f 203//22 355//22 356//22
f 357//22 197//22 358//22
f 357//22 354//22 197//22
f 358//22 197//22 359//22
f 359//22 197//22 360//22
f 360//22 197//22 361//22
f 353//22 203//22 356//22
f 362//22 361//22 363//22
f 177//22 351//22 350//22
f 363//22 364//22 365//22
f 361//22 366//22 364//22
f 367//22 271//22 265//22
f 182//22 176//22 175//22
f 368//22 324//22 321//22
f 369//22 329//22 326//22
f 370//22 366//22 361//22
f 371//22 361//22 372//22
f 371//22 370//22 361//22
f 372//22 361//22 373//22
f 308//22 305//22 301//22
f 361//22 364//22 363//22
f 300//22 302//22 298//22
f 374//23 361//22 375//22
f 197//22 355//22 203//22
f 167//22 206//22 168//22
f 240//22 235//22 243//22
f 168//22 206//22 205//22
f 361//22 362//22 360//22
f 373//22 361//22 374//23
f 376//25 377//25 378//25
f 379//25 377//25 380//25
f 381//25 382//25 383//25
f 384//25 385//25 386//25
f 387//5 388//5 389//5
f 390//5 391//5 392//5
f 393//7 394//7 395//7
f 396//7 397//7 398//7
f 398//26 399//26 400//26
f 401//8 402//8 400//8
f 403//6 404//6 405//6
f 406//27 404//27 402//27
f 407//11 403//11 408//11
f 409//5 396//5 393//5
f 410//5 411//5 412//5
f 413//28 414//28 415//28
f 416//5 417//5 415//5
f 416//5 418//5 419//5
f 420//29 421//29 422//29
f 423//30 418//30 424//30
f 425//11 426//11 427//11
f 427//8 428//8 422//8
f 429//5 424//5 421//5
f 430//31 431//31 432//31
f 433//31 431//31 434//31
f 435//14 436//14 437//14
f 438//14 439//14 440//14
f 441//32 442//32 443//32
f 444//14 445//14 446//14
f 446//33 447//33 448//33
f 449//34 450//34 448//34
f 451//14 452//14 453//14
f 454//35 452//35 450//35
f 455//20 451//20 456//20
f 457//36 444//36 441//36
f 458//14 459//14 460//14
f 461//15 462//15 463//15
f 464//37 465//37 463//37
f 464//14 466//14 467//14
f 468//14 469//14 470//14
f 471//35 466//35 472//35
f 473//20 474//20 475//20
f 475//14 476//14 470//14
f 477//38 472//38 469//38
f 478//39 479//39 480//39
f 481//39 482//39 483//39
f 484//40 485//40 486//40
f 487//39 488//39 489//39
f 490//39 491//39 492//39
f 493//31 494//31 495//31
f 496//31 497//31 498//31
f 499//31 500//31 501//31
f 502//31 503//31 504//31
f 505//41 506//42 507//41
f 508//42 509//43 510//42
f 511//43 512//43 513//42
f 514//44 515//44 516//43
f 517//45 518//44 519//44
f 520//46 521//45 522//45
f 523//46 524//45 525//46
f 526//47 527//48 528//47
f 529//47 530//47 531//49
f 532//49 533//49 534//50
f 535//51 536//50 537//50
f 538//50 539//52 540//52
f 541//53 542//54 543//53
f 544//54 545//55 546//54
f 547//55 548//55 549//54
f 550//41 551//41 552//12
f 553//56 554//57 555//57
f 556//56 557//57 558//56
f 559//56 560//56 561//58
f 562//56 563//58 564//58
f 565//58 566//59 567//58
f 568//59 569//59 570//58
f 571//55 572//59 573//59
f 574//55 575//59 576//55
f 577//53 578//54 579//54
f 580//50 581//50 582//52
f 583//49 584//47 585//49
f 586//47 587//48 588//48
f 589//45 590//45 591//44
f 592//43 593//44 594//43
f 595//41 596//12 597//12
f 598//42 599//42 600//41
f 601//12 602//12 603//12
f 604//12 605//12 606//12
f 607//25 608//25 609//25
f 610//25 611//25 612//25
f 613//25 614//25 615//25
f 616//25 617//25 618//25
f 619//39 620//39 621//39
f 622//39 623//39 624//39
f 625//60 626//61 627//60
f 628//61 629//62 630//61
f 631//62 632//62 633//61
f 634//63 635//63 636//62
f 637//64 638//63 639//63
f 640//65 641//64 642//64
f 643//65 644//64 645//65
f 646//66 647//67 648//66
f 649//66 650//66 651//68
f 652//68 653//68 654//69
f 655//68 656//69 657//69
f 658//69 659//70 660//70
f 661//71 662//72 663//71
f 664//72 665//73 666//72
f 667//73 668//73 669//72
f 670//60 671//60 672//74
f 673//75 674//39 675//39
f 676//75 677//39 678//75
f 679//75 680//75 681//76
f 682//75 683//76 684//76
f 685//76 686//77 687//76
f 688//77 689//77 690//76
f 691//73 692//77 693//77
f 694//73 695//77 696//73
f 697//71 698//72 699//72
f 700//69 701//69 702//70
f 703//78 704//66 705//78
f 706//66 707//67 708//67
f 709//64 710//64 711//63
f 712//62 713//63 714//62
f 715//60 716//74 717//74
f 718//61 719//61 720//60
f 721//12 722//12 723//12
f 724//12 725//12 726//12
f 727//12 728//12 729//12
f 730//39 731//39 732//39
f 733//39 734//39 735//39
f 736//39 737//39 738//39
f 739//25 740//25 741//25
f 742//25 743//25 744//25
f 745//12 746//79 747//12
f 748//79 749//79 750//12
f 751//80 752//79 753//79
f 754//80 755//79 756//80
f 757//80 758//80 759//81
f 760//80 761//81 762//81
f 763//81 764//82 765//81
f 766//82 767//82 768//81
f 769//83 770//82 771//82
f 772//83 773//82 774//83
f 775//83 776//83 777//84
f 778//83 779//84 780//84
f 781//85 782//86 783//85
f 784//86 785//86 786//85
f 787//87 788//88 789//88
f 790//89 791//89 792//90
f 793//25 794//91 795//25
f 796//91 797//91 798//25
f 799//92 800//91 801//91
f 802//92 803//91 804//92
f 805//92 806//92 807//93
f 808//92 809//93 810//93
f 811//93 812//94 813//93
f 814//94 815//94 816//93
f 817//90 818//94 819//94
f 820//90 821//94 822//90
f 823//90 824//90 825//89
f 826//95 827//87 828//87
f 829//87 830//96 831//87
f 832//97 833//97 834//87
f 835//86 836//96 837//96
f 838//86 839//86 840//96
f 841//12 842//12 843//12
f 844//12 845//12 846//12
f 847//31 848//31 849//31
f 850//31 851//31 852//31
f 853//31 854//31 855//31
f 856//31 857//31 858//31
f 859//39 860//39 861//39
f 862//39 863//39 864//39
f 865//25 866//98 867//25
f 868//98 869//99 870//98
f 871//99 872//99 873//98
f 874//100 875//100 876//99
f 877//101 878//101 879//100
f 880//102 881//101 882//101
f 883//103 884//102 885//102
f 886//103 887//102 888//103
f 889//104 890//105 891//104
f 892//104 893//104 894//106
f 895//107 896//107 897//108
f 898//107 899//108 900//108
f 901//108 902//109 903//109
f 904//110 905//111 906//110
f 907//111 908//112 909//111
f 910//112 911//112 912//111
f 913//113 914//39 915//39
f 916//113 917//39 918//113
f 919//113 920//113 921//114
f 922//113 923//114 924//114
f 925//114 926//115 927//114
f 928//115 929//115 930//114
f 931//112 932//115 933//115
f 934//112 935//115 936//112
f 937//116 938//111 939//111
f 940//108 941//108 942//109
f 943//117 944//104 945//117
f 946//104 947//118 948//118
f 949//102 950//102 951//101
f 952//100 953//101 954//100
f 955//98 956//25 957//98
f 958//99 959//99 960//100
f 961//12 962//12 963//12
f 964//12 965//12 966//12
f 967//12 968//12 969//12
f 970//39 971//39 972//39
f 973//39 974//39 975//39
f 976//39 977//39 978//39
f 979//25 980//25 981//119
f 982//119 983//25 984//119
f 985//99 986//101 987//99
f 988//99 989//101 990//101
f 991//101 992//101 993//103
f 994//105 995//101 996//105
f 997//120 998//118 999//121
f 1000//116 1001//107 1002//107
f 1003//120 1004//120 1005//105
f 1006//122 1007//39 1008//39
f 1009//122 1010//122 1011//39
f 1012//114 1013//123 1014//114
f 1015//114 1016//123 1017//123
f 1018//112 1019//112 1020//110
f 1021//110 1022//112 1023//110
f 1024//124 1025//116 1026//116
f 1027//39 1028//125 1029//39
f 1030//39 1031//125 1032//125
f 1033//76 1034//76 1035//126
f 1036//126 1037//76 1038//126
f 1039//70 1040//78 1041//78
f 1042//127 1043//73 1044//127
f 1045//128 1046//129 1047//67
f 1048//71 1049//73 1050//73
f 1051//130 1052//31 1053//31
f 1054//130 1055//130 1056//31
f 1057//61 1058//63 1059//131
f 1060//131 1061//63 1062//63
f 1063//63 1064//63 1065//65
f 1066//132 1067//63 1068//132
f 1069//128 1070//132 1071//128
f 1072//133 1073//70 1074//71
f 431//31 1075//31 1076//134
f 1077//134 431//31 1078//134
f 1079//135 1080//55 1081//58
f 1082//135 1083//55 1084//55
f 1085//55 1086//55 1087//53
f 1088//53 1089//55 1090//136
f 1091//51 1092//52 1093//137
f 1094//48 1095//138 1096//138
f 1097//51 1098//51 1099//136
f 1100//139 1101//12 1102//12
f 1103//139 1104//139 1105//12
f 1106//42 1107//140 1108//42
f 1109//42 1110//140 1111//140
f 1112//44 1113//44 1114//46
f 1115//141 1116//44 1117//141
f 1118//142 1119//46 1120//48
f 1121//143 1122//123 1123//114
f 1124//112 1125//110 1126//112
f 1127//110 1128//110 1129//112
f 1130//120 1131//120 1132//109
f 1133//121 1134//120 1135//120
f 1136//101 1137//105 1138//105
f 1139//101 1140//103 1141//101
f 1142//122 1143//122 1144//39
f 1145//119 1146//25 1147//25
f 1148//119 1149//25 1150//119
f 1151//99 1152//99 1153//144
f 1154//99 1155//144 1156//144
f 1157//118 1158//121 1159//106
f 1160//109 1161//120 1162//109
f 1163//122 1164//39 1165//39
f 1166//123 1167//123 1168//114
f 1169//92 1170//145 1171//92
f 1172//94 1173//89 1174//94
f 1175//95 1176//95 1177//94
f 1178//97 1179//97 1180//146
f 1181//85 1182//147 1183//147
f 1184//82 1185//148 1186//148
f 1187//82 1188//148 1189//82
f 1190//149 1191//149 1192//25
f 1193//150 1194//12 1195//12
f 1196//150 1197//12 1198//150
f 1199//80 1200//151 1201//152
f 1202//80 1203//152 1204//152
f 1205//85 1206//85 1207//147
f 1208//88 1209//153 1210//88
f 1211//149 1212//25 1213//25
f 1214//145 1215//145 1216//92
f 1217//131 1218//154 1219//131
f 1220//63 1221//65 1222//63
f 1223//65 1224//132 1225//63
f 1226//155 1227//155 1228//129
f 1229//70 1230//128 1231//128
f 1232//73 1233//127 1234//127
f 1235//73 1236//127 1237//73
f 1238//39 1239//39 1240//125
f 1241//39 1242//125 1243//125
f 1244//76 1245//126 1246//76
f 1247//130 1248//130 1249//31
f 1250//126 1251//156 1252//126
f 1253//130 1254//31 1255//31
f 1256//131 1257//154 1258//154
f 1259//129 1260//128 1261//67
f 1262//70 1263//70 1264//128
f 1265//39 1266//39 1267//122
f 1268//122 1269//39 1270//122
f 1271//123 1272//114 1273//114
f 1274//123 1275//123 1276//114
f 1277//112 1278//110 1279//112
f 1280//112 1281//110 1282//110
f 1283//109 1284//106 1285//106
f 377//25 1286//25 1287//119
f 1288//119 1289//119 377//25
f 1290//99 1291//101 1292//99
f 1293//99 1294//101 1295//101
f 1296//101 1297//101 1298//103
f 1299//105 1300//101 1301//105
f 1302//157 1303//121 1304//118
f 1305//158 1306//158 1307//118
f 1308//120 1309//109 1310//109
f 1311//31 434//31 1312//130
f 1313//130 434//31 1314//130
f 1315//63 1316//131 1317//61
f 1318//63 1319//63 1320//131
f 1321//63 1322//65 1323//63
f 1324//63 1325//65 1326//132
f 1327//67 1328//129 1329//159
f 1330//160 1331//67 1332//160
f 1333//71 1334//78 1335//78
f 1336//39 1337//39 1338//125
f 1339//125 1340//39 1341//125
f 1342//126 1343//76 1344//76
f 1345//127 1346//73 1347//127
f 1348//71 1349//73 1350//73
f 1351//128 1352//70 1353//70
f 1354//126 1355//76 1356//126
f 1357//139 1358//139 1359//12
f 1360//140 1361//42 1362//42
f 1363//141 1364//44 1365//44
f 1366//141 1367//44 1368//141
f 1369//51 1370//48 1371//51
f 1372//51 1373//51 1374//137
f 1375//53 1376//136 1377//55
f 1378//31 1379//134 1380//31
f 1381//134 1382//134 1383//31
f 1384//161 1385//135 1386//135
f 1387//161 1388//135 1389//161
f 1390//55 1391//55 1392//53
f 1393//52 1394//137 1395//162
f 1396//48 1397//51 1398//48
f 1399//139 1400//12 1401//12
f 1402//140 1403//140 1404//163
f 1405//12 1406//150 1407//12
f 1408//12 1409//150 1410//150
f 1411//80 1412//80 1413//152
f 1414//152 1415//80 1416//152
f 1417//84 1418//96 1419//96
f 1420//148 1421//82 1422//148
f 1423//147 1424//146 1425//88
f 1426//148 1427//82 1428//82
f 1429//149 1430//25 380//25
f 1431//149 1432//149 380//25
f 1433//92 1434//94 1435//92
f 1436//92 1437//94 1438//94
f 1439//94 1440//94 1441//89
f 1442//89 1443//94 1444//89
f 1445//147 1446//95 1447//147
f 1448//164 1449//84 1450//84
f 1451//31 1452//31 1453//31
f 1452//31 1454//31 1455//31
f 1456//39 1457//39 1458//39
f 1459//39 1460//39 1458//39
f 1461//39 1462//39 1463//39
f 1464//31 1465//31 1466//31
f 1467//31 1468//31 1464//31
f 1469//31 1464//31 1470//31
f 1471//39 1472//39 1473//39
f 1474//39 1475//39 1476//39
f 1477//25 1478//25 1479//25
f 1480//165 1481//165 1479//165
f 1482//25 1483//25 1484//25
f 1485//39 1486//39 1487//39
f 1488//39 1489//39 1485//39
f 1490//40 1485//40 1491//40
f 1492//25 1493//25 1494//25
f 1495//25 1496//25 1497//25
f 1498//12 1499//12 1500//12
f 1501//12 1502//12 1500//12
f 1503//12 1504//12 1505//12
f 1506//25 1507//25 1508//25
f 1509//166 1510//166 1506//166
f 1511//25 1506//25 1512//25
f 1513//12 1514//12 1515//12
f 1516//12 1517//12 1518//12
f 1519//31 1520//31 1521//31
f 1522//31 1523//31 1521//31
f 1524//31 1525//31 1526//31
f 1527//76 1528//76 1529//39
f 1530//73 1528//76 1527//76
f 1531//71 1532//167 1530//73
f 1533//71 1532//167 1531//71
f 1534//128 1533//71 1535//68
f 1534//128 1535//68 1536//132
f 1537//132 1536//132 1538//154
f 1537//132 1538//154 1539//63
f 1539//63 1540//61 1541//61
f 1540//61 1542//31 1541//61
f 1542//31 1543//58 1544//31
f 1543//58 1545//58 1544//31
f 1546//55 1547//161 1545//58
f 1548//136 1547//161 1546//55
f 1549//51 1550//136 1548//136
f 1551//49 1550//136 1549//51
f 1552//46 1551//49 1553//46
f 1552//46 1553//46 1554//168
f 1555//44 1554//168 1556//42
f 1555//44 1556//42 1557//42
f 1557//42 1558//12 1559//12
f 1558//12 1560//80 1559//12
f 1561//80 1562//152 1563//169
f 1563//169 1562//152 1564//84
f 1565//25 1566//25 1567//92
f 1568//99 1569//99 1566//25
f 1570//170 1571//101 1569//99
f 1572//105 1573//105 1571//101
f 1574//107 1573//105 1572//105
f 1575//116 1576//107 1574//107
f 1577//116 1576//107 1575//116
f 1578//123 1577//116 1579//171
f 1553//46 1551//49 1549//51
f 1580//114 1581//114 1529//39
f 1578//123 1581//114 1580//114
f 1579//171 1581//114 1578//123
f 1575//116 1579//171 1577//116
f 1573//105 1574//107 1576//107
f 1571//101 1570//170 1572//105
f 1569//99 1568//99 1570//170
f 1580//114 1529//39 1582//39
f 1566//25 1565//25 1568//99
f 1567//92 1583//92 1565//25
f 1584//172 1583//92 1567//92
f 1585//94 1583//92 1584//172
f 1585//94 1584//172 1586//95
f 1585//94 1586//95 1587//95
f 1586//95 1588//96 1587//95
f 1588//96 1589//96 1587//95
f 1590//84 1589//96 1588//96
f 1564//84 1589//96 1590//84
f 1564//84 1590//84 1563//169
f 1562//152 1561//80 1560//80
f 1561//80 1559//12 1560//80
f 1558//12 1557//42 1556//42
f 1554//168 1555//44 1552//46
f 1547//161 1548//136 1550//136
f 1545//58 1543//58 1546//55
f 1544//31 1541//61 1542//31
f 1540//61 1539//63 1538//154
f 1536//132 1537//132 1534//128
f 1531//71 1535//68 1533//71
f 1528//76 1530//73 1532//167
f 1528//76 1582//39 1529//39
f 1591//12 1592//12 1593//12
f 1594//12 1595//12 1596//12
f 1597//173 1598//173 1599//173
f 1600//22 1601//22 1602//22
f 1603//22 1604//22 1605//22
f 1606//22 1607//22 1608//22
f 1600//22 1609//22 1610//22
f 1611//22 1612//22 1613//22
f 1614//22 1615//22 1616//22
f 1617//24 1618//24 1619//24
f 1620//22 1621//22 1622//22
f 1623//22 1624//22 1625//22
f 1626//22 1627//22 1628//22
f 1629//22 1630//22 1631//22
f 1632//22 1633//22 1634//22
f 1635//22 1636//22 1637//22
f 1638//22 1639//22 1640//22
f 1641//22 1642//22 1600//22
f 1643//22 1644//22 1600//22
f 1645//22 1646//22 1647//22
f 1648//22 1649//22 1650//22
f 1651//22 1652//22 1653//22
f 1654//22 1655//22 1656//22
f 1657//22 1658//22 1659//22
f 1659//23 1660//23 1661//23
f 1662//22 1663//22 1659//22
f 1664//22 1665//22 1659//22
f 1666//22 1667//22 1659//22
f 1668//22 1669//22 1670//22
f 1671//22 1672//22 1673//22
f 1659//22 1674//22 1675//22
f 1626//22 1676//22 1677//22
f 1678//22 1679//22 1626//22
f 1680//22 1681//22 1626//22
f 1682//22 1683//22 1684//22
f 1685//22 1686//22 1687//22
f 1688//22 1689//22 1690//22
f 1691//22 1692//22 1693//22
f 1617//22 1694//22 1695//22
f 1617//22 1696//22 1697//22
f 1698//22 1699//22 1617//22
f 1700//22 1701//22 1617//22
f 1702//22 1703//22 1704//22
f 1705//22 1706//22 1707//22
f 1708//22 1709//22 1710//22
f 1711//22 1712//22 1713//22
f 1600//22 1714//22 1715//22
f 1626//22 1716//22 1717//22
f 1600//22 1718//22 1719//22
f 1626//22 1720//22 1721//22
f 1722//22 1723//22 1617//22
f 1724//22 1725//22 1726//22
f 1727//23 1728//23 1729//23
f 1730//22 1731//22 1732//22
f 1733//22 1734//22 1735//22
f 1736//22 1737//22 1738//22
f 1739//22 1740//22 1741//22
f 1742//22 1743//22 1744//22
f 1745//22 1746//22 1747//22
f 1748//22 1749//22 1750//22
f 1751//22 1752//22 1753//22
f 1754//22 1755//22 1756//22
f 1757//22 1758//22 1759//22
f 1760//22 1761//22 1762//22
f 1763//22 1764//22 1765//22
f 1766//22 1767//22 1768//22
f 1769//22 1770//22 1771//22
f 1772//22 1773//22 1774//22
f 1775//22 1776//22 1777//22
f 1778//22 1779//22 1780//22
f 1781//22 1782//22 1783//22
f 1784//22 1785//22 1786//22
f 1787//22 1788//22 1789//22
f 1790//22 1791//22 1792//22
f 1793//22 1794//22 1795//22
f 1796//22 1797//22 1798//22
f 1799//22 1800//22 1801//22
f 1802//22 1803//22 1804//22
f 1805//24 1806//24 1807//24
f 1808//22 1809//22 1810//22
f 1811//22 1812//22 1813//22
f 1814//174 1815//174 1816//174
f 1817//174 1818//174 1471//39
f 1471//40 1819//174 1820//174
f 1821//175 1822//175 1823//175
f 1824//175 1825//175 1492//176
f 1492//25 1826//175 1827//175
f 1828//177 1829//177 1830//177
f 1831//177 1832//177 1513//12
f 1513//12 1833//178 1834//178
f 1835//179 1836//179 1452//31
f 1837//179 1838//179 1451//31
f 1451//31 1839//179 1452//31
f 1840//39 1841//39 1842//39
f 1843//39 1844//39 1842//39
f 1845//39 1840//39 1846//39
f 1847//31 1848//31 1849//31
f 1850//31 1851//31 1852//31
f 1853//12 1854//12 1855//12
f 1856//12 1857//12 1858//12
f 1859//25 1860//25 1861//25
f 1862//25 1863//25 1864//25
f 1865//22 1866//22 1867//22
f 1868//22 1869//22 1870//22
f 1871//180 1872//180 1873//180
f 1872//181 1874//181 1875//181
f 1876//180 1872//180 1877//180
f 1872//181 1878//181 1879//181
f 1880//1 1881//1 1882//1
f 1883//1 1884//1 1885//1
f 1886//1 1887//1 1888//1
f 1889//1 1890//1 1891//1
