# Blender 4.4.3
# www.blender.org
mtllib Mesh_20.003.mtl
o Mesh_20.003
v -0.000150 0.008710 -0.007152
v -0.000150 0.008710 -0.007143
v -0.000150 0.008716 -0.007137
v -0.000150 0.008773 -0.007152
v -0.000150 0.008721 -0.007130
v -0.000150 0.008726 -0.007124
v -0.000150 0.008732 -0.007119
v -0.000150 0.008738 -0.007113
v -0.000150 0.008773 -0.007114
v -0.000150 0.008744 -0.007108
v -0.000150 0.008750 -0.007102
v -0.000150 0.008756 -0.007097
v -0.000150 0.008710 -0.007143
v -0.000065 0.008710 -0.007143
v -0.000065 0.008714 -0.007139
v -0.000150 0.008716 -0.007137
v -0.000150 0.008710 -0.007143
v -0.000065 0.008717 -0.007135
v -0.000150 0.008716 -0.007137
v -0.000150 0.008721 -0.007130
v -0.000150 0.008716 -0.007137
v -0.000150 0.008721 -0.007130
v -0.000065 0.008720 -0.007131
v -0.000065 0.008723 -0.007127
v -0.000150 0.008721 -0.007130
v -0.000150 0.008726 -0.007124
v -0.000150 0.008721 -0.007130
v -0.000065 0.008727 -0.007124
v -0.000065 0.008730 -0.007120
v -0.000150 0.008726 -0.007124
v -0.000150 0.008726 -0.007124
v -0.000150 0.008726 -0.007124
v -0.000150 0.008732 -0.007119
v -0.000150 0.008732 -0.007119
v -0.000065 0.008734 -0.007117
v -0.000150 0.008738 -0.007113
v -0.000150 0.008732 -0.007119
v -0.000065 0.008738 -0.007113
v -0.000150 0.008738 -0.007113
v -0.000065 0.008741 -0.007110
v -0.000150 0.008738 -0.007113
v -0.000150 0.008738 -0.007113
v -0.000150 0.008744 -0.007108
v -0.000150 0.008744 -0.007108
v -0.000065 0.008745 -0.007106
v -0.000150 0.008750 -0.007102
v -0.000147 0.008756 -0.007097
v -0.000150 0.008756 -0.007097
v -0.000150 0.008750 -0.007102
v -0.000150 0.008744 -0.007108
v -0.000150 0.008750 -0.007102
v -0.000143 0.008756 -0.007097
v -0.000065 0.008749 -0.007103
v -0.000150 0.008750 -0.007102
v -0.000140 0.008756 -0.007097
v -0.000150 0.008750 -0.007102
v -0.000136 0.008756 -0.007097
v -0.000150 0.008750 -0.007102
v -0.000133 0.008757 -0.007097
v -0.000065 0.008753 -0.007100
v -0.000130 0.008757 -0.007096
v -0.000123 0.008759 -0.007095
v -0.000127 0.008758 -0.007096
v -0.000100 0.008769 -0.007088
v -0.000102 0.008767 -0.007089
v -0.000065 0.008765 -0.007091
v -0.000065 0.008769 -0.007088
v -0.000105 0.008766 -0.007090
v -0.000108 0.008764 -0.007091
v -0.000065 0.008761 -0.007094
v -0.000111 0.008763 -0.007092
v -0.000114 0.008762 -0.007093
v -0.000065 0.008757 -0.007097
v -0.000117 0.008761 -0.007094
v -0.000120 0.008760 -0.007094
v -0.000150 0.008750 -0.007102
v -0.000150 0.008750 -0.007102
v -0.000065 0.008834 -0.007087
v -0.000087 0.008803 -0.007087
v -0.000065 0.008772 -0.007087
v -0.000095 0.008775 -0.007087
v -0.000097 0.008772 -0.007087
v -0.000093 0.008779 -0.007087
v -0.000091 0.008783 -0.007087
v -0.000090 0.008787 -0.007087
v -0.000089 0.008791 -0.007087
v -0.000088 0.008795 -0.007087
v -0.000088 0.008799 -0.007087
v -0.000088 0.008807 -0.007087
v -0.000088 0.008811 -0.007087
v -0.000089 0.008815 -0.007087
v -0.000090 0.008819 -0.007087
v -0.000091 0.008823 -0.007087
v -0.000095 0.008831 -0.007087
v -0.000097 0.008834 -0.007087
v -0.000093 0.008827 -0.007087
v -0.000150 0.008856 -0.007102
v -0.000147 0.008850 -0.007097
v -0.000143 0.008850 -0.007097
v -0.000140 0.008850 -0.007097
v -0.000137 0.008850 -0.007097
v -0.000133 0.008849 -0.007097
v -0.000065 0.008868 -0.007113
v -0.000065 0.008872 -0.007117
v -0.000150 0.008868 -0.007113
v -0.000065 0.008879 -0.007124
v -0.000150 0.008880 -0.007124
v -0.000065 0.008876 -0.007120
v -0.000065 0.008883 -0.007127
v -0.000150 0.008885 -0.007130
v -0.000150 0.008850 -0.007097
v -0.000150 0.008895 -0.007143
v -0.000065 0.008892 -0.007139
v -0.000065 0.008895 -0.007143
v -0.000150 0.008890 -0.007137
v -0.000065 0.008889 -0.007135
v -0.000065 0.008886 -0.007131
v -0.000150 0.008874 -0.007119
v -0.000065 0.008865 -0.007110
v -0.000150 0.008862 -0.007108
v -0.000065 0.008861 -0.007106
v -0.000130 0.008849 -0.007096
v -0.000065 0.008857 -0.007103
v -0.000127 0.008848 -0.007096
v -0.000065 0.008853 -0.007100
v -0.000123 0.008847 -0.007095
v -0.000120 0.008846 -0.007094
v -0.000065 0.008849 -0.007097
v -0.000114 0.008844 -0.007093
v -0.000111 0.008843 -0.007092
v -0.000065 0.008845 -0.007094
v -0.000065 0.008837 -0.007088
v -0.000065 0.008841 -0.007091
v -0.000100 0.008837 -0.007088
v -0.000102 0.008839 -0.007089
v -0.000105 0.008840 -0.007090
v -0.000108 0.008842 -0.007091
v -0.000117 0.008845 -0.007094
v -0.000150 0.008833 -0.007114
v -0.000150 0.008868 -0.007113
v -0.000150 0.008833 -0.007152
v -0.000150 0.008850 -0.007097
v -0.000150 0.008856 -0.007102
v -0.000150 0.008856 -0.007102
v -0.000150 0.008862 -0.007108
v -0.000150 0.008862 -0.007108
v -0.000150 0.008868 -0.007113
v -0.000150 0.008868 -0.007113
v -0.000150 0.008874 -0.007119
v -0.000150 0.008874 -0.007119
v -0.000150 0.008880 -0.007124
v -0.000150 0.008880 -0.007124
v -0.000150 0.008885 -0.007130
v -0.000150 0.008895 -0.007143
v -0.000150 0.008895 -0.007152
v -0.000150 0.008890 -0.007137
v -0.000150 0.008885 -0.007130
v -0.000150 0.008890 -0.007137
v -0.000150 0.008890 -0.007137
v -0.000065 0.008845 -0.007094
v -0.000065 0.008834 -0.007087
v -0.000065 0.008772 -0.007087
v -0.000065 0.008761 -0.007094
v -0.000065 0.008772 -0.007087
v -0.000065 0.008765 -0.007091
v -0.000065 0.008772 -0.007087
v -0.000065 0.008771 -0.007087
v -0.000065 0.008769 -0.007088
v -0.000065 0.008770 -0.007087
v -0.000065 0.008769 -0.007088
v -0.000065 0.008770 -0.007087
v -0.000065 0.008769 -0.007088
v -0.000065 0.008772 -0.007087
v -0.000065 0.008769 -0.007088
v -0.000065 0.008765 -0.007091
v -0.000065 0.008845 -0.007094
v -0.000065 0.008772 -0.007087
v -0.000065 0.008761 -0.007094
v -0.000065 0.008845 -0.007094
v -0.000065 0.008761 -0.007094
v -0.000065 0.008849 -0.007097
v -0.000065 0.008761 -0.007094
v -0.000065 0.008757 -0.007097
v -0.000065 0.008849 -0.007097
v -0.000065 0.008757 -0.007097
v -0.000065 0.008853 -0.007100
v -0.000065 0.008849 -0.007097
v -0.000065 0.008753 -0.007100
v -0.000065 0.008853 -0.007100
v -0.000065 0.008757 -0.007097
v -0.000065 0.008857 -0.007103
v -0.000065 0.008853 -0.007100
v -0.000065 0.008753 -0.007100
v -0.000065 0.008857 -0.007103
v -0.000065 0.008753 -0.007100
v -0.000065 0.008749 -0.007103
v -0.000065 0.008857 -0.007103
v -0.000065 0.008749 -0.007103
v -0.000065 0.008861 -0.007106
v -0.000065 0.008749 -0.007103
v -0.000065 0.008745 -0.007106
v -0.000065 0.008861 -0.007106
v -0.000065 0.008745 -0.007106
v -0.000065 0.008865 -0.007110
v -0.000065 0.008861 -0.007106
v -0.000065 0.008741 -0.007110
v -0.000065 0.008865 -0.007110
v -0.000065 0.008745 -0.007106
v -0.000065 0.008868 -0.007113
v -0.000065 0.008865 -0.007110
v -0.000065 0.008741 -0.007110
v -0.000065 0.008868 -0.007113
v -0.000065 0.008741 -0.007110
v -0.000065 0.008738 -0.007113
v -0.000065 0.008710 -0.007143
v -0.000065 0.008710 -0.007152
v -0.000065 0.008714 -0.007139
v -0.000065 0.008868 -0.007113
v -0.000065 0.008738 -0.007113
v -0.000065 0.008872 -0.007117
v -0.000065 0.008720 -0.007131
v -0.000065 0.008717 -0.007135
v -0.000065 0.008734 -0.007117
v -0.000065 0.008730 -0.007120
v -0.000065 0.008895 -0.007143
v -0.000065 0.008892 -0.007139
v -0.000065 0.008895 -0.007152
v -0.000065 0.008892 -0.007139
v -0.000065 0.008889 -0.007135
v -0.000065 0.008889 -0.007135
v -0.000065 0.008886 -0.007131
v -0.000065 0.008886 -0.007131
v -0.000065 0.008883 -0.007127
v -0.000065 0.008883 -0.007127
v -0.000065 0.008879 -0.007124
v -0.000065 0.008879 -0.007124
v -0.000065 0.008876 -0.007120
v -0.000065 0.008876 -0.007120
v -0.000065 0.008872 -0.007117
v -0.000065 0.008734 -0.007117
v -0.000065 0.008730 -0.007120
v -0.000065 0.008727 -0.007124
v -0.000065 0.008727 -0.007124
v -0.000065 0.008723 -0.007127
v -0.000065 0.008723 -0.007127
v -0.000065 0.008720 -0.007131
v -0.000065 0.008734 -0.007117
v -0.000065 0.008872 -0.007117
v -0.000065 0.008872 -0.007117
v -0.000065 0.008738 -0.007113
v -0.000065 0.008734 -0.007117
v -0.000065 0.008717 -0.007135
v -0.000065 0.008714 -0.007139
v -0.000065 0.008845 -0.007094
v -0.000065 0.008841 -0.007091
v -0.000065 0.008834 -0.007087
v -0.000065 0.008836 -0.007087
v -0.000065 0.008834 -0.007087
v -0.000065 0.008836 -0.007087
v -0.000065 0.008834 -0.007087
v -0.000065 0.008837 -0.007088
v -0.000065 0.008835 -0.007087
v -0.000065 0.008834 -0.007087
v -0.000065 0.008837 -0.007088
v -0.000065 0.008834 -0.007087
v -0.000065 0.008841 -0.007091
v -0.000065 0.008710 -0.007152
v -0.000065 0.008710 -0.007143
v -0.000150 0.008710 -0.007152
v -0.000065 0.008710 -0.007143
v -0.000150 0.008710 -0.007143
v -0.000150 0.008710 -0.007152
v -0.000150 0.008895 -0.007152
v -0.000150 0.008895 -0.007143
v -0.000065 0.008895 -0.007152
v -0.000150 0.008895 -0.007143
v -0.000065 0.008895 -0.007143
v -0.000065 0.008895 -0.007152
v -0.000150 0.008710 -0.007152
v -0.000134 0.008775 -0.007152
v -0.000132 0.008776 -0.007152
v -0.000065 0.008710 -0.007152
v -0.000115 0.008801 -0.007152
v -0.000115 0.008803 -0.007152
v -0.000148 0.008833 -0.007152
v -0.000150 0.008833 -0.007152
v -0.000150 0.008895 -0.007152
v -0.000150 0.008895 -0.007152
v -0.000147 0.008833 -0.007152
v -0.000150 0.008895 -0.007152
v -0.000145 0.008833 -0.007152
v -0.000150 0.008895 -0.007152
v -0.000144 0.008833 -0.007152
v -0.000150 0.008895 -0.007152
v -0.000142 0.008833 -0.007152
v -0.000150 0.008895 -0.007152
v -0.000140 0.008833 -0.007152
v -0.000150 0.008895 -0.007152
v -0.000139 0.008832 -0.007152
v -0.000150 0.008895 -0.007152
v -0.000137 0.008832 -0.007152
v -0.000150 0.008895 -0.007152
v -0.000136 0.008831 -0.007152
v -0.000150 0.008895 -0.007152
v -0.000134 0.008831 -0.007152
v -0.000150 0.008895 -0.007152
v -0.000132 0.008830 -0.007152
v -0.000150 0.008895 -0.007152
v -0.000131 0.008830 -0.007152
v -0.000150 0.008895 -0.007152
v -0.000065 0.008895 -0.007152
v -0.000065 0.008895 -0.007152
v -0.000130 0.008829 -0.007152
v -0.000065 0.008895 -0.007152
v -0.000128 0.008828 -0.007152
v -0.000065 0.008895 -0.007152
v -0.000127 0.008827 -0.007152
v -0.000065 0.008895 -0.007152
v -0.000126 0.008826 -0.007152
v -0.000065 0.008895 -0.007152
v -0.000124 0.008825 -0.007152
v -0.000065 0.008895 -0.007152
v -0.000123 0.008824 -0.007152
v -0.000065 0.008895 -0.007152
v -0.000122 0.008822 -0.007152
v -0.000065 0.008895 -0.007152
v -0.000121 0.008821 -0.007152
v -0.000065 0.008895 -0.007152
v -0.000120 0.008820 -0.007152
v -0.000065 0.008895 -0.007152
v -0.000119 0.008819 -0.007152
v -0.000117 0.008814 -0.007152
v -0.000118 0.008816 -0.007152
v -0.000065 0.008895 -0.007152
v -0.000065 0.008895 -0.007152
v -0.000119 0.008817 -0.007152
v -0.000117 0.008813 -0.007152
v -0.000065 0.008895 -0.007152
v -0.000116 0.008811 -0.007152
v -0.000065 0.008895 -0.007152
v -0.000116 0.008809 -0.007152
v -0.000065 0.008895 -0.007152
v -0.000115 0.008808 -0.007152
v -0.000065 0.008895 -0.007152
v -0.000115 0.008806 -0.007152
v -0.000065 0.008895 -0.007152
v -0.000115 0.008805 -0.007152
v -0.000065 0.008895 -0.007152
v -0.000065 0.008895 -0.007152
v -0.000065 0.008895 -0.007152
v -0.000065 0.008710 -0.007152
v -0.000065 0.008710 -0.007152
v -0.000115 0.008800 -0.007152
v -0.000065 0.008710 -0.007152
v -0.000115 0.008798 -0.007152
v -0.000065 0.008710 -0.007152
v -0.000116 0.008797 -0.007152
v -0.000065 0.008710 -0.007152
v -0.000116 0.008795 -0.007152
v -0.000065 0.008710 -0.007152
v -0.000117 0.008793 -0.007152
v -0.000118 0.008790 -0.007152
v -0.000065 0.008710 -0.007152
v -0.000119 0.008789 -0.007152
v -0.000117 0.008792 -0.007152
v -0.000065 0.008710 -0.007152
v -0.000065 0.008710 -0.007152
v -0.000119 0.008787 -0.007152
v -0.000065 0.008710 -0.007152
v -0.000120 0.008786 -0.007152
v -0.000065 0.008710 -0.007152
v -0.000121 0.008785 -0.007152
v -0.000065 0.008710 -0.007152
v -0.000122 0.008784 -0.007152
v -0.000065 0.008710 -0.007152
v -0.000123 0.008782 -0.007152
v -0.000065 0.008710 -0.007152
v -0.000124 0.008781 -0.007152
v -0.000065 0.008710 -0.007152
v -0.000126 0.008780 -0.007152
v -0.000065 0.008710 -0.007152
v -0.000127 0.008779 -0.007152
v -0.000065 0.008710 -0.007152
v -0.000128 0.008778 -0.007152
v -0.000065 0.008710 -0.007152
v -0.000130 0.008777 -0.007152
v -0.000065 0.008710 -0.007152
v -0.000131 0.008776 -0.007152
v -0.000065 0.008710 -0.007152
v -0.000150 0.008710 -0.007152
v -0.000150 0.008710 -0.007152
v -0.000136 0.008775 -0.007152
v -0.000150 0.008710 -0.007152
v -0.000137 0.008774 -0.007152
v -0.000150 0.008710 -0.007152
v -0.000139 0.008774 -0.007152
v -0.000150 0.008710 -0.007152
v -0.000150 0.008710 -0.007152
v -0.000140 0.008773 -0.007152
v -0.000150 0.008710 -0.007152
v -0.000142 0.008773 -0.007152
v -0.000150 0.008710 -0.007152
v -0.000144 0.008773 -0.007152
v -0.000150 0.008710 -0.007152
v -0.000145 0.008773 -0.007152
v -0.000150 0.008710 -0.007152
v -0.000147 0.008773 -0.007152
v -0.000065 0.008895 -0.007152
v -0.000150 0.008710 -0.007152
v -0.000148 0.008773 -0.007152
v -0.000065 0.008710 -0.007152
v -0.000150 0.008710 -0.007152
v -0.000150 0.008773 -0.007152
v -0.000148 0.008833 -0.007152
v -0.000147 0.008833 -0.007152
v -0.000148 0.008833 -0.007114
v -0.000147 0.008833 -0.007152
v -0.000145 0.008833 -0.007152
v -0.000147 0.008833 -0.007114
v -0.000145 0.008833 -0.007152
v -0.000145 0.008833 -0.007114
v -0.000144 0.008833 -0.007152
v -0.000144 0.008833 -0.007114
v -0.000142 0.008833 -0.007152
v -0.000142 0.008833 -0.007114
v -0.000140 0.008833 -0.007152
v -0.000140 0.008833 -0.007114
v -0.000139 0.008832 -0.007152
v -0.000140 0.008833 -0.007152
v -0.000137 0.008832 -0.007152
v -0.000139 0.008832 -0.007114
v -0.000139 0.008832 -0.007152
v -0.000137 0.008832 -0.007114
v -0.000137 0.008832 -0.007152
v -0.000136 0.008831 -0.007114
v -0.000136 0.008831 -0.007152
v -0.000136 0.008831 -0.007152
v -0.000134 0.008831 -0.007152
v -0.000134 0.008831 -0.007114
v -0.000134 0.008831 -0.007152
v -0.000132 0.008830 -0.007152
v -0.000132 0.008830 -0.007114
v -0.000132 0.008830 -0.007152
v -0.000131 0.008830 -0.007152
v -0.000131 0.008830 -0.007152
v -0.000131 0.008830 -0.007114
v -0.000130 0.008829 -0.007152
v -0.000130 0.008829 -0.007114
v -0.000130 0.008829 -0.007152
v -0.000128 0.008828 -0.007152
v -0.000128 0.008828 -0.007152
v -0.000127 0.008827 -0.007152
v -0.000128 0.008828 -0.007114
v -0.000127 0.008827 -0.007152
v -0.000127 0.008827 -0.007114
v -0.000126 0.008826 -0.007152
v -0.000126 0.008826 -0.007114
v -0.000124 0.008825 -0.007152
v -0.000126 0.008826 -0.007152
v -0.000123 0.008824 -0.007152
v -0.000124 0.008825 -0.007114
v -0.000124 0.008825 -0.007152
v -0.000123 0.008824 -0.007114
v -0.000123 0.008824 -0.007152
v -0.000122 0.008822 -0.007114
v -0.000122 0.008822 -0.007152
v -0.000122 0.008822 -0.007152
v -0.000121 0.008821 -0.007152
v -0.000121 0.008821 -0.007114
v -0.000121 0.008821 -0.007152
v -0.000120 0.008820 -0.007152
v -0.000120 0.008820 -0.007152
v -0.000120 0.008820 -0.007114
v -0.000119 0.008819 -0.007152
v -0.000119 0.008819 -0.007114
v -0.000119 0.008819 -0.007152
v -0.000119 0.008817 -0.007152
v -0.000119 0.008817 -0.007152
v -0.000118 0.008816 -0.007152
v -0.000119 0.008817 -0.007114
v -0.000118 0.008816 -0.007152
v -0.000118 0.008816 -0.007114
v -0.000117 0.008814 -0.007152
v -0.000117 0.008814 -0.007114
v -0.000117 0.008813 -0.007152
v -0.000117 0.008814 -0.007152
v -0.000116 0.008811 -0.007152
v -0.000117 0.008813 -0.007114
v -0.000117 0.008813 -0.007152
v -0.000116 0.008811 -0.007114
v -0.000116 0.008811 -0.007152
v -0.000116 0.008809 -0.007114
v -0.000116 0.008809 -0.007152
v -0.000116 0.008809 -0.007152
v -0.000115 0.008808 -0.007152
v -0.000115 0.008808 -0.007114
v -0.000115 0.008808 -0.007152
v -0.000115 0.008806 -0.007152
v -0.000115 0.008806 -0.007152
v -0.000115 0.008806 -0.007114
v -0.000115 0.008805 -0.007152
v -0.000115 0.008805 -0.007114
v -0.000115 0.008805 -0.007152
v -0.000115 0.008803 -0.007152
v -0.000115 0.008803 -0.007152
v -0.000115 0.008801 -0.007152
v -0.000115 0.008803 -0.007114
v -0.000115 0.008801 -0.007152
v -0.000115 0.008801 -0.007114
v -0.000115 0.008800 -0.007152
v -0.000115 0.008800 -0.007114
v -0.000115 0.008798 -0.007152
v -0.000115 0.008800 -0.007152
v -0.000116 0.008797 -0.007152
v -0.000115 0.008798 -0.007114
v -0.000115 0.008798 -0.007152
v -0.000116 0.008795 -0.007152
v -0.000116 0.008797 -0.007114
v -0.000116 0.008797 -0.007152
v -0.000116 0.008795 -0.007114
v -0.000116 0.008795 -0.007152
v -0.000117 0.008793 -0.007114
v -0.000117 0.008793 -0.007152
v -0.000117 0.008793 -0.007152
v -0.000117 0.008792 -0.007152
v -0.000117 0.008792 -0.007114
v -0.000117 0.008792 -0.007152
v -0.000118 0.008790 -0.007152
v -0.000118 0.008790 -0.007152
v -0.000118 0.008790 -0.007114
v -0.000119 0.008789 -0.007152
v -0.000119 0.008789 -0.007114
v -0.000119 0.008789 -0.007152
v -0.000119 0.008787 -0.007152
v -0.000119 0.008787 -0.007152
v -0.000120 0.008786 -0.007152
v -0.000119 0.008787 -0.007114
v -0.000120 0.008786 -0.007152
v -0.000120 0.008786 -0.007114
v -0.000121 0.008785 -0.007152
v -0.000121 0.008785 -0.007114
v -0.000122 0.008784 -0.007152
v -0.000121 0.008785 -0.007152
v -0.000123 0.008782 -0.007152
v -0.000122 0.008784 -0.007114
v -0.000122 0.008784 -0.007152
v -0.000123 0.008782 -0.007114
v -0.000123 0.008782 -0.007152
v -0.000124 0.008781 -0.007114
v -0.000124 0.008781 -0.007152
v -0.000124 0.008781 -0.007152
v -0.000126 0.008780 -0.007152
v -0.000126 0.008780 -0.007114
v -0.000126 0.008780 -0.007152
v -0.000127 0.008779 -0.007152
v -0.000127 0.008779 -0.007152
v -0.000127 0.008779 -0.007114
v -0.000148 0.008773 -0.007114
v -0.000147 0.008773 -0.007114
v -0.000148 0.008773 -0.007152
v -0.000150 0.008773 -0.007152
v -0.000150 0.008773 -0.007114
v -0.000150 0.008773 -0.007152
v -0.000148 0.008773 -0.007152
v -0.000147 0.008773 -0.007152
v -0.000148 0.008773 -0.007152
v -0.000145 0.008773 -0.007114
v -0.000147 0.008773 -0.007152
v -0.000145 0.008773 -0.007152
v -0.000147 0.008773 -0.007152
v -0.000145 0.008773 -0.007152
v -0.000144 0.008773 -0.007114
v -0.000145 0.008773 -0.007152
v -0.000144 0.008773 -0.007152
v -0.000142 0.008773 -0.007114
v -0.000144 0.008773 -0.007152
v -0.000142 0.008773 -0.007152
v -0.000144 0.008773 -0.007152
v -0.000140 0.008773 -0.007114
v -0.000142 0.008773 -0.007152
v -0.000140 0.008773 -0.007152
v -0.000142 0.008773 -0.007152
v -0.000140 0.008773 -0.007152
v -0.000139 0.008774 -0.007114
v -0.000140 0.008773 -0.007152
v -0.000139 0.008774 -0.007152
v -0.000137 0.008774 -0.007114
v -0.000139 0.008774 -0.007152
v -0.000137 0.008774 -0.007152
v -0.000139 0.008774 -0.007152
v -0.000136 0.008775 -0.007114
v -0.000137 0.008774 -0.007152
v -0.000136 0.008775 -0.007152
v -0.000137 0.008774 -0.007152
v -0.000136 0.008775 -0.007152
v -0.000134 0.008775 -0.007114
v -0.000136 0.008775 -0.007152
v -0.000134 0.008775 -0.007152
v -0.000132 0.008776 -0.007114
v -0.000134 0.008775 -0.007152
v -0.000132 0.008776 -0.007152
v -0.000134 0.008775 -0.007152
v -0.000131 0.008776 -0.007114
v -0.000132 0.008776 -0.007152
v -0.000131 0.008776 -0.007152
v -0.000132 0.008776 -0.007152
v -0.000131 0.008776 -0.007152
v -0.000130 0.008777 -0.007114
v -0.000131 0.008776 -0.007152
v -0.000130 0.008777 -0.007152
v -0.000128 0.008778 -0.007114
v -0.000130 0.008777 -0.007152
v -0.000128 0.008778 -0.007152
v -0.000130 0.008777 -0.007152
v -0.000128 0.008778 -0.007152
v -0.000127 0.008779 -0.007152
v -0.000128 0.008778 -0.007152
v -0.000126 0.008780 -0.007152
v -0.000123 0.008782 -0.007152
v -0.000124 0.008781 -0.007152
v -0.000122 0.008784 -0.007152
v -0.000121 0.008785 -0.007152
v -0.000120 0.008786 -0.007152
v -0.000119 0.008787 -0.007152
v -0.000118 0.008790 -0.007152
v -0.000119 0.008789 -0.007152
v -0.000117 0.008792 -0.007152
v -0.000116 0.008795 -0.007152
v -0.000117 0.008793 -0.007152
v -0.000116 0.008797 -0.007152
v -0.000115 0.008798 -0.007152
v -0.000115 0.008800 -0.007152
v -0.000115 0.008801 -0.007152
v -0.000115 0.008803 -0.007152
v -0.000115 0.008806 -0.007152
v -0.000115 0.008805 -0.007152
v -0.000115 0.008808 -0.007152
v -0.000116 0.008811 -0.007152
v -0.000116 0.008809 -0.007152
v -0.000117 0.008813 -0.007152
v -0.000117 0.008814 -0.007152
v -0.000118 0.008816 -0.007152
v -0.000119 0.008817 -0.007152
v -0.000120 0.008820 -0.007152
v -0.000119 0.008819 -0.007152
v -0.000121 0.008821 -0.007152
v -0.000123 0.008824 -0.007152
v -0.000122 0.008822 -0.007152
v -0.000124 0.008825 -0.007152
v -0.000126 0.008826 -0.007152
v -0.000127 0.008827 -0.007152
v -0.000128 0.008828 -0.007152
v -0.000131 0.008830 -0.007152
v -0.000130 0.008829 -0.007152
v -0.000132 0.008830 -0.007152
v -0.000134 0.008831 -0.007152
v -0.000137 0.008832 -0.007152
v -0.000136 0.008831 -0.007152
v -0.000142 0.008833 -0.007152
v -0.000140 0.008833 -0.007152
v -0.000145 0.008833 -0.007152
v -0.000144 0.008833 -0.007152
v -0.000150 0.008833 -0.007152
v -0.000148 0.008833 -0.007152
v -0.000150 0.008833 -0.007114
v -0.000150 0.008833 -0.007152
v -0.000139 0.008832 -0.007152
v -0.000144 0.008833 -0.007152
v -0.000142 0.008833 -0.007152
v -0.000147 0.008833 -0.007152
v -0.000147 0.008756 -0.007097
v -0.000145 0.008773 -0.007114
v -0.000147 0.008773 -0.007114
v -0.000147 0.008756 -0.007097
v -0.000147 0.008773 -0.007114
v -0.000150 0.008756 -0.007097
v -0.000143 0.008756 -0.007097
v -0.000144 0.008773 -0.007114
v -0.000145 0.008773 -0.007114
v -0.000142 0.008773 -0.007114
v -0.000144 0.008773 -0.007114
v -0.000140 0.008756 -0.007097
v -0.000140 0.008773 -0.007114
v -0.000140 0.008756 -0.007097
v -0.000136 0.008756 -0.007097
v -0.000139 0.008774 -0.007114
v -0.000136 0.008756 -0.007097
v -0.000133 0.008757 -0.007097
v -0.000137 0.008774 -0.007114
v -0.000133 0.008757 -0.007097
v -0.000130 0.008757 -0.007096
v -0.000136 0.008775 -0.007114
v -0.000130 0.008757 -0.007096
v -0.000134 0.008775 -0.007114
v -0.000130 0.008757 -0.007096
v -0.000127 0.008758 -0.007096
v -0.000134 0.008775 -0.007114
v -0.000127 0.008758 -0.007096
v -0.000123 0.008759 -0.007095
v -0.000132 0.008776 -0.007114
v -0.000123 0.008759 -0.007095
v -0.000131 0.008776 -0.007114
v -0.000132 0.008776 -0.007114
v -0.000120 0.008760 -0.007094
v -0.000130 0.008777 -0.007114
v -0.000131 0.008776 -0.007114
v -0.000117 0.008761 -0.007094
v -0.000128 0.008778 -0.007114
v -0.000130 0.008777 -0.007114
v -0.000114 0.008762 -0.007093
v -0.000128 0.008778 -0.007114
v -0.000117 0.008761 -0.007094
v -0.000126 0.008780 -0.007114
v -0.000127 0.008779 -0.007114
v -0.000114 0.008762 -0.007093
v -0.000126 0.008780 -0.007114
v -0.000114 0.008762 -0.007093
v -0.000111 0.008763 -0.007092
v -0.000126 0.008780 -0.007114
v -0.000111 0.008763 -0.007092
v -0.000124 0.008781 -0.007114
v -0.000111 0.008763 -0.007092
v -0.000108 0.008764 -0.007091
v -0.000124 0.008781 -0.007114
v -0.000123 0.008782 -0.007114
v -0.000105 0.008766 -0.007090
v -0.000122 0.008784 -0.007114
v -0.000108 0.008764 -0.007091
v -0.000123 0.008782 -0.007114
v -0.000124 0.008781 -0.007114
v -0.000105 0.008766 -0.007090
v -0.000102 0.008767 -0.007089
v -0.000122 0.008784 -0.007114
v -0.000102 0.008767 -0.007089
v -0.000100 0.008769 -0.007088
v -0.000121 0.008785 -0.007114
v -0.000100 0.008769 -0.007088
v -0.000099 0.008770 -0.007088
v -0.000120 0.008786 -0.007114
v -0.000098 0.008770 -0.007087
v -0.000120 0.008786 -0.007114
v -0.000120 0.008786 -0.007114
v -0.000097 0.008771 -0.007087
v -0.000097 0.008772 -0.007087
v -0.000119 0.008787 -0.007114
v -0.000097 0.008772 -0.007087
v -0.000095 0.008775 -0.007087
v -0.000119 0.008787 -0.007114
v -0.000095 0.008775 -0.007087
v -0.000119 0.008789 -0.007114
v -0.000119 0.008789 -0.007114
v -0.000093 0.008779 -0.007087
v -0.000118 0.008790 -0.007114
v -0.000093 0.008779 -0.007087
v -0.000091 0.008783 -0.007087
v -0.000117 0.008792 -0.007114
v -0.000091 0.008783 -0.007087
v -0.000090 0.008787 -0.007087
v -0.000117 0.008793 -0.007114
v -0.000090 0.008787 -0.007087
v -0.000116 0.008795 -0.007114
v -0.000117 0.008793 -0.007114
v -0.000089 0.008791 -0.007087
v -0.000116 0.008797 -0.007114
v -0.000116 0.008795 -0.007114
v -0.000088 0.008795 -0.007087
v -0.000115 0.008798 -0.007114
v -0.000089 0.008791 -0.007087
v -0.000115 0.008800 -0.007114
v -0.000115 0.008798 -0.007114
v -0.000088 0.008795 -0.007087
v -0.000115 0.008801 -0.007114
v -0.000115 0.008800 -0.007114
v -0.000088 0.008799 -0.007087
v -0.000115 0.008803 -0.007114
v -0.000115 0.008801 -0.007114
v -0.000087 0.008803 -0.007087
v -0.000115 0.008805 -0.007114
v -0.000115 0.008803 -0.007114
v -0.000087 0.008803 -0.007087
v -0.000115 0.008805 -0.007114
v -0.000087 0.008803 -0.007087
v -0.000088 0.008807 -0.007087
v -0.000115 0.008805 -0.007114
v -0.000088 0.008807 -0.007087
v -0.000115 0.008806 -0.007114
v -0.000115 0.008806 -0.007114
v -0.000088 0.008811 -0.007087
v -0.000115 0.008808 -0.007114
v -0.000088 0.008811 -0.007087
v -0.000089 0.008815 -0.007087
v -0.000115 0.008808 -0.007114
v -0.000089 0.008815 -0.007087
v -0.000116 0.008811 -0.007114
v -0.000116 0.008809 -0.007114
v -0.000090 0.008819 -0.007087
v -0.000117 0.008813 -0.007114
v -0.000116 0.008811 -0.007114
v -0.000091 0.008823 -0.007087
v -0.000117 0.008814 -0.007114
v -0.000117 0.008813 -0.007114
v -0.000093 0.008827 -0.007087
v -0.000118 0.008816 -0.007114
v -0.000117 0.008814 -0.007114
v -0.000119 0.008817 -0.007114
v -0.000118 0.008816 -0.007114
v -0.000093 0.008827 -0.007087
v -0.000119 0.008819 -0.007114
v -0.000119 0.008817 -0.007114
v -0.000095 0.008831 -0.007087
v -0.000120 0.008820 -0.007114
v -0.000119 0.008819 -0.007114
v -0.000097 0.008834 -0.007087
v -0.000098 0.008836 -0.007087
v -0.000120 0.008820 -0.007114
v -0.000097 0.008835 -0.007087
v -0.000105 0.008840 -0.007090
v -0.000122 0.008822 -0.007114
v -0.000102 0.008839 -0.007089
v -0.000121 0.008821 -0.007114
v -0.000100 0.008837 -0.007088
v -0.000102 0.008839 -0.007089
v -0.000123 0.008824 -0.007114
v -0.000122 0.008822 -0.007114
v -0.000105 0.008840 -0.007090
v -0.000124 0.008825 -0.007114
v -0.000123 0.008824 -0.007114
v -0.000108 0.008842 -0.007091
v -0.000126 0.008826 -0.007114
v -0.000124 0.008825 -0.007114
v -0.000111 0.008843 -0.007092
v -0.000127 0.008827 -0.007114
v -0.000126 0.008826 -0.007114
v -0.000114 0.008844 -0.007093
v -0.000099 0.008836 -0.007088
v -0.000100 0.008837 -0.007088
v -0.000120 0.008820 -0.007114
v -0.000150 0.008850 -0.007097
v -0.000150 0.008833 -0.007114
v -0.000148 0.008833 -0.007114
v -0.000150 0.008850 -0.007097
v -0.000148 0.008833 -0.007114
v -0.000147 0.008833 -0.007114
v -0.000150 0.008850 -0.007097
v -0.000147 0.008833 -0.007114
v -0.000147 0.008850 -0.007097
v -0.000147 0.008833 -0.007114
v -0.000145 0.008833 -0.007114
v -0.000147 0.008850 -0.007097
v -0.000145 0.008833 -0.007114
v -0.000143 0.008850 -0.007097
v -0.000147 0.008850 -0.007097
v -0.000144 0.008833 -0.007114
v -0.000143 0.008850 -0.007097
v -0.000145 0.008833 -0.007114
v -0.000140 0.008850 -0.007097
v -0.000143 0.008850 -0.007097
v -0.000144 0.008833 -0.007114
v -0.000140 0.008850 -0.007097
v -0.000144 0.008833 -0.007114
v -0.000142 0.008833 -0.007114
v -0.000140 0.008850 -0.007097
v -0.000142 0.008833 -0.007114
v -0.000140 0.008833 -0.007114
v -0.000140 0.008850 -0.007097
v -0.000140 0.008833 -0.007114
v -0.000137 0.008850 -0.007097
v -0.000140 0.008833 -0.007114
v -0.000139 0.008832 -0.007114
v -0.000137 0.008850 -0.007097
v -0.000139 0.008832 -0.007114
v -0.000133 0.008849 -0.007097
v -0.000137 0.008850 -0.007097
v -0.000137 0.008832 -0.007114
v -0.000133 0.008849 -0.007097
v -0.000139 0.008832 -0.007114
v -0.000130 0.008849 -0.007096
v -0.000133 0.008849 -0.007097
v -0.000137 0.008832 -0.007114
v -0.000130 0.008849 -0.007096
v -0.000137 0.008832 -0.007114
v -0.000136 0.008831 -0.007114
v -0.000130 0.008849 -0.007096
v -0.000136 0.008831 -0.007114
v -0.000134 0.008831 -0.007114
v -0.000130 0.008849 -0.007096
v -0.000134 0.008831 -0.007114
v -0.000127 0.008848 -0.007096
v -0.000134 0.008831 -0.007114
v -0.000132 0.008830 -0.007114
v -0.000127 0.008848 -0.007096
v -0.000132 0.008830 -0.007114
v -0.000123 0.008847 -0.007095
v -0.000127 0.008848 -0.007096
v -0.000131 0.008830 -0.007114
v -0.000123 0.008847 -0.007095
v -0.000132 0.008830 -0.007114
v -0.000120 0.008846 -0.007094
v -0.000123 0.008847 -0.007095
v -0.000131 0.008830 -0.007114
v -0.000120 0.008846 -0.007094
v -0.000131 0.008830 -0.007114
v -0.000130 0.008829 -0.007114
v -0.000120 0.008846 -0.007094
v -0.000130 0.008829 -0.007114
v -0.000117 0.008845 -0.007094
v -0.000130 0.008829 -0.007114
v -0.000128 0.008828 -0.007114
v -0.000117 0.008845 -0.007094
v -0.000128 0.008828 -0.007114
v -0.000114 0.008844 -0.007093
v -0.000117 0.008845 -0.007094
v -0.000127 0.008827 -0.007114
v -0.000114 0.008844 -0.007093
v -0.000128 0.008828 -0.007114
v -0.000126 0.008826 -0.007114
v -0.000111 0.008843 -0.007092
v -0.000114 0.008844 -0.007093
v -0.000124 0.008825 -0.007114
v -0.000108 0.008842 -0.007091
v -0.000111 0.008843 -0.007092
v -0.000123 0.008824 -0.007114
v -0.000105 0.008840 -0.007090
v -0.000108 0.008842 -0.007091
v -0.000122 0.008822 -0.007114
v -0.000121 0.008821 -0.007114
v -0.000102 0.008839 -0.007089
v -0.000121 0.008821 -0.007114
v -0.000120 0.008820 -0.007114
v -0.000100 0.008837 -0.007088
v -0.000120 0.008820 -0.007114
v -0.000097 0.008834 -0.007087
v -0.000120 0.008820 -0.007114
v -0.000095 0.008831 -0.007087
v -0.000097 0.008834 -0.007087
v -0.000119 0.008819 -0.007114
v -0.000093 0.008827 -0.007087
v -0.000095 0.008831 -0.007087
v -0.000119 0.008817 -0.007114
v -0.000117 0.008814 -0.007114
v -0.000091 0.008823 -0.007087
v -0.000093 0.008827 -0.007087
v -0.000117 0.008813 -0.007114
v -0.000090 0.008819 -0.007087
v -0.000091 0.008823 -0.007087
v -0.000116 0.008811 -0.007114
v -0.000089 0.008815 -0.007087
v -0.000090 0.008819 -0.007087
v -0.000116 0.008809 -0.007114
v -0.000115 0.008808 -0.007114
v -0.000089 0.008815 -0.007087
v -0.000088 0.008811 -0.007087
v -0.000115 0.008806 -0.007114
v -0.000088 0.008807 -0.007087
v -0.000115 0.008801 -0.007114
v -0.000088 0.008799 -0.007087
v -0.000087 0.008803 -0.007087
v -0.000115 0.008800 -0.007114
v -0.000088 0.008795 -0.007087
v -0.000088 0.008799 -0.007087
v -0.000115 0.008798 -0.007114
v -0.000116 0.008797 -0.007114
v -0.000089 0.008791 -0.007087
v -0.000089 0.008791 -0.007087
v -0.000116 0.008795 -0.007114
v -0.000090 0.008787 -0.007087
v -0.000091 0.008783 -0.007087
v -0.000117 0.008793 -0.007114
v -0.000117 0.008792 -0.007114
v -0.000093 0.008779 -0.007087
v -0.000117 0.008792 -0.007114
v -0.000118 0.008790 -0.007114
v -0.000095 0.008775 -0.007087
v -0.000093 0.008779 -0.007087
v -0.000119 0.008789 -0.007114
v -0.000120 0.008786 -0.007114
v -0.000097 0.008772 -0.007087
v -0.000119 0.008787 -0.007114
v -0.000120 0.008786 -0.007114
v -0.000100 0.008769 -0.007088
v -0.000120 0.008786 -0.007114
v -0.000121 0.008785 -0.007114
v -0.000102 0.008767 -0.007089
v -0.000121 0.008785 -0.007114
v -0.000122 0.008784 -0.007114
v -0.000108 0.008764 -0.007091
v -0.000105 0.008766 -0.007090
v -0.000123 0.008782 -0.007114
v -0.000114 0.008762 -0.007093
v -0.000127 0.008779 -0.007114
v -0.000128 0.008778 -0.007114
v -0.000120 0.008760 -0.007094
v -0.000117 0.008761 -0.007094
v -0.000130 0.008777 -0.007114
v -0.000123 0.008759 -0.007095
v -0.000120 0.008760 -0.007094
v -0.000131 0.008776 -0.007114
v -0.000130 0.008757 -0.007096
v -0.000136 0.008775 -0.007114
v -0.000137 0.008774 -0.007114
v -0.000140 0.008773 -0.007114
v -0.000136 0.008756 -0.007097
v -0.000139 0.008774 -0.007114
v -0.000142 0.008773 -0.007114
v -0.000140 0.008756 -0.007097
v -0.000140 0.008773 -0.007114
v -0.000144 0.008773 -0.007114
v -0.000143 0.008756 -0.007097
v -0.000140 0.008756 -0.007097
v -0.000147 0.008756 -0.007097
v -0.000143 0.008756 -0.007097
v -0.000145 0.008773 -0.007114
v -0.000148 0.008773 -0.007114
v -0.000150 0.008773 -0.007114
v -0.000150 0.008756 -0.007097
v -0.000133 0.008757 -0.007097
v -0.000137 0.008774 -0.007114
v -0.000139 0.008774 -0.007114
v -0.000132 0.008776 -0.007114
v -0.000134 0.008775 -0.007114
v -0.000127 0.008758 -0.007096
v -0.000147 0.008773 -0.007114
v -0.000148 0.008773 -0.007114
v -0.000150 0.008756 -0.007097
v -0.000065 0.008835 -0.007087
v -0.000065 0.008835 -0.007087
v -0.000065 0.008836 -0.007087
v -0.000065 0.008836 -0.007087
v -0.000097 0.008835 -0.007087
v -0.000097 0.008835 -0.007087
v -0.000065 0.008836 -0.007087
v -0.000065 0.008836 -0.007087
v -0.000099 0.008836 -0.007088
v -0.000099 0.008836 -0.007088
v -0.000098 0.008836 -0.007087
v -0.000098 0.008836 -0.007087
v -0.000097 0.008835 -0.007087
v -0.000065 0.008836 -0.007087
v -0.000098 0.008836 -0.007087
v -0.000065 0.008836 -0.007087
v -0.000098 0.008770 -0.007087
v -0.000099 0.008770 -0.007088
v -0.000099 0.008770 -0.007088
v -0.000098 0.008770 -0.007087
v -0.000065 0.008770 -0.007087
v -0.000065 0.008771 -0.007087
v -0.000065 0.008771 -0.007087
v -0.000065 0.008770 -0.007087
v -0.000065 0.008770 -0.007087
v -0.000097 0.008771 -0.007087
v -0.000065 0.008770 -0.007087
v -0.000065 0.008770 -0.007087
v -0.000097 0.008771 -0.007087
v -0.000065 0.008770 -0.007087
v -0.000097 0.008771 -0.007087
v -0.000098 0.008770 -0.007087
vn -1.0000 -0.0000 -0.0000
vn -0.0000 -0.7940 0.6079
vn -0.0000 -0.7816 0.6238
vn -0.0000 -0.7739 0.6333
vn -0.0000 -0.7688 0.6395
vn -0.0000 -0.7815 0.6239
vn -0.0000 -0.7530 0.6580
vn -0.0000 -0.7558 0.6548
vn -0.0000 -0.7424 0.6699
vn -0.0000 -0.7557 0.6549
vn 0.0001 -0.7424 0.6700
vn -0.0000 -0.7313 0.6820
vn -0.0000 -0.7287 0.6848
vn -0.0000 -0.7147 0.6994
vn -0.0000 -0.7314 0.6820
vn -0.0000 -0.7424 0.6700
vn -0.0000 -0.7313 0.6821
vn -0.0000 -0.7089 0.7053
vn -0.0000 -0.7004 0.7138
vn -0.0000 -0.6857 0.7279
vn -0.0000 -0.7004 0.7137
vn -0.0000 -0.6859 0.7277
vn -0.0000 -0.6710 0.7414
vn -0.0000 -0.6618 0.7497
vn -0.0000 -0.6559 0.7548
vn -0.0000 -0.6372 0.7707
vn -0.0000 -0.6125 0.7905
vn -0.0000 -0.6119 0.7909
vn -0.0000 -0.6617 0.7497
vn -0.0000 -0.6124 0.7905
vn -0.0000 -0.6371 0.7708
vn -0.0000 -0.6124 0.7906
vn -0.0000 -0.6406 0.7679
vn -0.0000 -0.6118 0.7910
vn -0.0000 -0.6106 0.7919
vn -0.0001 -0.6107 0.7919
vn -0.0000 -0.6089 0.7932
vn -0.0000 -0.6405 0.7680
vn -0.0001 -0.6249 0.7807
vn -0.0000 -0.6068 0.7948
vn -0.0000 -0.6011 0.7992
vn -0.0000 -0.6041 0.7969
vn -0.0000 -0.5599 0.8286
vn -0.0000 -0.5665 0.8240
vn 0.0002 -0.5764 0.8172
vn 0.0002 -0.5727 0.8198
vn -0.0000 -0.5785 0.8157
vn -0.0002 -0.5928 0.8053
vn -0.0000 -0.5840 0.8118
vn -0.0000 -0.5889 0.8082
vn -0.0000 -0.6091 0.7931
vn -0.0000 -0.5934 0.8049
vn -0.0000 -0.5974 0.8019
vn -0.0000 -0.6090 0.7932
vn -0.0000 -0.0000 1.0000
vn -0.0001 -0.0000 1.0000
vn 0.0001 -0.0000 1.0000
vn -0.0000 0.6371 0.7707
vn -0.0000 0.6124 0.7905
vn -0.0000 0.6118 0.7910
vn -0.0000 0.6107 0.7919
vn -0.0000 0.6090 0.7932
vn -0.0000 0.6859 0.7277
vn 0.0001 0.7004 0.7138
vn -0.0000 0.6857 0.7279
vn -0.0000 0.7286 0.6849
vn -0.0003 0.7313 0.6820
vn -0.0000 0.7147 0.6994
vn 0.0001 0.7424 0.6700
vn 0.0002 0.7530 0.6580
vn -0.0000 0.6119 0.7909
vn -0.0000 0.7940 0.6079
vn 0.0001 0.7816 0.6238
vn -0.0003 0.7739 0.6333
vn -0.0000 0.7687 0.6396
vn -0.0000 0.7558 0.6548
vn 0.0002 0.7089 0.7053
vn 0.0001 0.6711 0.7414
vn -0.0003 0.6617 0.7497
vn -0.0000 0.6559 0.7549
vn -0.0000 0.6068 0.7948
vn -0.0001 0.6405 0.7679
vn -0.0000 0.6041 0.7969
vn -0.0000 0.6249 0.7807
vn -0.0000 0.6010 0.7992
vn -0.0000 0.5974 0.8019
vn -0.0000 0.6091 0.7931
vn -0.0000 0.5888 0.8083
vn -0.0000 0.5839 0.8118
vn -0.0001 0.5928 0.8053
vn -0.0000 0.5599 0.8286
vn 0.0002 0.5764 0.8172
vn -0.0000 0.5598 0.8286
vn -0.0000 0.5665 0.8241
vn -0.0001 0.5726 0.8198
vn -0.0000 0.5785 0.8157
vn -0.0000 0.5933 0.8050
vn 1.0000 -0.0000 -0.0000
vn 1.0000 -0.0000 -0.0001
vn -0.0000 -0.0000 -1.0000
vn -0.0000 -1.0000 -0.0000
vn -0.0000 1.0000 -0.0000
vn -0.0001 -0.0000 -1.0000
vn 0.0002 -0.0000 -1.0000
vn 0.0001 -0.0000 -1.0000
vn 0.1129 -0.9936 -0.0000
vn 0.0588 -0.9983 -0.0000
vn 0.0587 -0.9983 -0.0000
vn 0.0045 -1.0000 -0.0000
vn -0.0498 -0.9988 -0.0000
vn -0.1039 -0.9946 -0.0000
vn -0.1578 -0.9875 -0.0000
vn -0.1040 -0.9946 -0.0000
vn -0.2112 -0.9774 -0.0000
vn -0.2639 -0.9646 -0.0000
vn -0.2111 -0.9775 -0.0000
vn -0.3159 -0.9488 -0.0000
vn -0.2640 -0.9645 -0.0000
vn -0.3160 -0.9488 -0.0000
vn -0.3670 -0.9302 -0.0000
vn -0.4170 -0.9089 -0.0000
vn -0.4657 -0.8850 -0.0000
vn -0.4656 -0.8850 -0.0000
vn -0.4658 -0.8849 -0.0000
vn -0.5130 -0.8584 -0.0000
vn -0.5588 -0.8293 -0.0000
vn -0.5589 -0.8292 -0.0000
vn -0.6031 -0.7977 -0.0000
vn -0.5590 -0.8292 -0.0000
vn -0.6455 -0.7638 -0.0000
vn -0.6860 -0.7276 -0.0000
vn -0.7245 -0.6893 -0.0000
vn -0.7609 -0.6489 -0.0000
vn -0.7245 -0.6892 -0.0000
vn -0.7949 -0.6067 -0.0000
vn -0.7950 -0.6066 -0.0000
vn -0.7950 -0.6066 0.0001
vn -0.8267 -0.5626 -0.0000
vn -0.8267 -0.5627 -0.0000
vn -0.8560 -0.5170 -0.0000
vn -0.8561 -0.5169 -0.0000
vn -0.8828 -0.4697 -0.0000
vn -0.8829 -0.4696 -0.0000
vn -0.9070 -0.4210 -0.0000
vn -0.9070 -0.4211 -0.0000
vn -0.9286 -0.3712 -0.0000
vn -0.9071 -0.4210 -0.0000
vn -0.9474 -0.3202 -0.0000
vn -0.9286 -0.3711 -0.0000
vn -0.9633 -0.2683 -0.0000
vn -0.9473 -0.3202 -0.0000
vn -0.9633 -0.2684 -0.0000
vn -0.9765 -0.2156 -0.0000
vn -0.9634 -0.2682 -0.0000
vn -0.9765 -0.2155 -0.0000
vn -0.9867 -0.1623 -0.0000
vn -0.9868 -0.1622 -0.0000
vn -0.9941 -0.1085 -0.0000
vn -0.9941 -0.1084 -0.0000
vn -0.9985 -0.0543 -0.0000
vn -0.9985 0.0543 -0.0000
vn -0.9941 0.1084 -0.0000
vn -0.9868 0.1622 -0.0000
vn -0.9941 0.1085 -0.0000
vn -0.9765 0.2155 -0.0000
vn -0.9867 0.1623 -0.0000
vn -0.9634 0.2682 -0.0000
vn -0.9765 0.2156 -0.0000
vn -0.9473 0.3202 -0.0000
vn -0.9633 0.2684 -0.0000
vn -0.9474 0.3202 -0.0000
vn -0.9286 0.3711 -0.0000
vn -0.9286 0.3712 -0.0000
vn -0.9285 0.3712 -0.0000
vn -0.9071 0.4210 -0.0000
vn -0.9070 0.4210 -0.0000
vn -0.8829 0.4696 -0.0000
vn -0.8828 0.4697 -0.0000
vn -0.8561 0.5169 -0.0000
vn -0.8560 0.5170 -0.0000
vn -0.8267 0.5626 -0.0000
vn -0.8267 0.5627 -0.0000
vn -0.8560 0.5169 -0.0000
vn -0.7950 0.6066 -0.0000
vn -0.7609 0.6489 -0.0000
vn -0.7949 0.6067 -0.0000
vn -0.7245 0.6892 -0.0000
vn -0.7245 0.6893 -0.0000
vn -0.6860 0.7276 -0.0000
vn -0.6455 0.7638 -0.0000
vn -0.6031 0.7977 -0.0000
vn 0.1129 0.9936 -0.0000
vn 0.0588 0.9983 -0.0000
vn 0.1666 0.9860 -0.0000
vn 0.0045 1.0000 -0.0000
vn 0.0587 0.9983 -0.0000
vn -0.0498 0.9988 -0.0000
vn -0.1039 0.9946 -0.0000
vn -0.1578 0.9875 -0.0000
vn -0.1040 0.9946 -0.0000
vn -0.2112 0.9774 -0.0000
vn -0.2111 0.9775 -0.0000
vn -0.2639 0.9646 -0.0000
vn -0.3159 0.9488 -0.0000
vn -0.2640 0.9645 -0.0000
vn -0.3160 0.9488 -0.0000
vn -0.3670 0.9302 -0.0000
vn -0.3669 0.9303 -0.0000
vn -0.4170 0.9089 -0.0000
vn -0.4169 0.9089 -0.0000
vn -0.4657 0.8850 -0.0000
vn -0.4656 0.8850 -0.0000
vn -0.4657 0.8849 -0.0000
vn -0.5130 0.8584 -0.0000
vn -0.4658 0.8849 -0.0000
vn -0.5588 0.8293 -0.0000
vn -0.5589 0.8292 -0.0000
vn -0.9765 0.2155 -0.0002
vn -0.9285 -0.3712 -0.0000
vn -0.8560 -0.5169 -0.0000
vn -0.6031 -0.7976 -0.0000
vn -0.4169 -0.9089 -0.0000
vn -0.3669 -0.9303 -0.0000
vn 0.1666 -0.9860 -0.0000
vn 0.0238 0.7067 0.7071
vn 0.0032 0.7071 0.7071
vn 0.0415 0.7059 0.7071
vn 0.0239 0.7067 0.7071
vn 0.0416 0.7059 0.7071
vn 0.0748 0.7031 0.7071
vn -0.0269 0.7066 0.7071
vn -0.0352 0.7062 0.7071
vn -0.0735 0.7033 0.7071
vn -0.0773 0.7029 0.7071
vn -0.1116 0.6982 0.7071
vn -0.0773 0.7027 0.7073
vn -0.1269 0.6956 0.7071
vn -0.1493 0.6912 0.7071
vn -0.1752 0.6851 0.7071
vn -0.1866 0.6820 0.7071
vn -0.2220 0.6714 0.7071
vn -0.2234 0.6709 0.7071
vn -0.2219 0.6714 0.7071
vn -0.2594 0.6578 0.7071
vn -0.2669 0.6548 0.7071
vn -0.2595 0.6578 0.7071
vn -0.3098 0.6356 0.7071
vn -0.2948 0.6427 0.7071
vn -0.3292 0.6258 0.7071
vn -0.3504 0.6142 0.7071
vn -0.3628 0.6070 0.7071
vn -0.3293 0.6258 0.7071
vn -0.3886 0.5908 0.7071
vn -0.3955 0.5871 0.7063
vn -0.4244 0.5656 0.7071
vn -0.3952 0.5864 0.7071
vn -0.4564 0.5401 0.7071
vn -0.4265 0.5640 0.7071
vn -0.4243 0.5656 0.7071
vn -0.4576 0.5391 0.7071
vn -0.4575 0.5391 0.7071
vn -0.4851 0.5145 0.7071
vn -0.4883 0.5114 0.7071
vn -0.5123 0.4874 0.7071
vn -0.5165 0.4829 0.7071
vn -0.5380 0.4588 0.7071
vn -0.5424 0.4537 0.7071
vn -0.5380 0.4589 0.7071
vn -0.5424 0.4536 0.7071
vn -0.5658 0.4241 0.7071
vn -0.5621 0.4290 0.7071
vn -0.5729 0.4145 0.7071
vn -0.5846 0.3978 0.7071
vn -0.5729 0.4144 0.7071
vn -0.5799 0.4046 0.7071
vn -0.5871 0.3942 0.7071
vn -0.5942 0.3833 0.7071
vn -0.6053 0.3655 0.7071
vn -0.6201 0.3399 0.7071
vn -0.6201 0.3398 0.7071
vn -0.6243 0.3321 0.7070
vn -0.6243 0.3321 0.7071
vn -0.6428 0.2947 0.7071
vn -0.6414 0.2977 0.7071
vn -0.6428 0.2946 0.7071
vn -0.6622 0.2479 0.7071
vn -0.6566 0.2624 0.7071
vn -0.6623 0.2478 0.7071
vn -0.6783 0.1998 0.7071
vn -0.6699 0.2264 0.7071
vn -0.6783 0.1999 0.7071
vn -0.6812 0.1897 0.7071
vn -0.6908 0.1508 0.7071
vn -0.6905 0.1525 0.7071
vn -0.6999 0.1010 0.7071
vn -0.6977 0.1148 0.7071
vn -0.6909 0.1507 0.7071
vn -0.7029 0.0767 0.7071
vn -0.6977 0.1147 0.7071
vn -0.6999 0.1009 0.7071
vn -0.7061 0.0384 0.7071
vn -0.7029 0.0766 0.7071
vn -0.7053 0.0506 0.7071
vn -0.7071 -0.0000 0.7071
vn -0.7061 -0.0384 0.7071
vn -0.7053 -0.0506 0.7071
vn -0.7030 -0.0766 0.7071
vn -0.7029 -0.0766 0.7071
vn -0.6999 -0.1009 0.7071
vn -0.6978 -0.1146 0.7071
vn -0.6999 -0.1010 0.7071
vn -0.6909 -0.1507 0.7071
vn -0.6977 -0.1148 0.7071
vn -0.6908 -0.1508 0.7071
vn -0.6812 -0.1896 0.7071
vn -0.6905 -0.1524 0.7071
vn -0.6783 -0.1998 0.7071
vn -0.6699 -0.2264 0.7071
vn -0.6812 -0.1897 0.7071
vn -0.6623 -0.2478 0.7071
vn -0.6566 -0.2624 0.7071
vn -0.6428 -0.2946 0.7071
vn -0.6416 -0.2977 0.7069
vn -0.6243 -0.3321 0.7071
vn -0.6414 -0.2977 0.7071
vn -0.6054 -0.3655 0.7070
vn -0.6201 -0.3398 0.7071
vn -0.5846 -0.3978 0.7071
vn -0.6053 -0.3656 0.7071
vn -0.5942 -0.3834 0.7071
vn -0.5799 -0.4046 0.7071
vn -0.5870 -0.3943 0.7071
vn -0.5166 -0.4828 0.7071
vn -0.5380 -0.4588 0.7071
vn -0.5423 -0.4537 0.7071
vn -0.5621 -0.4290 0.7071
vn -0.5658 -0.4241 0.7071
vn -0.5424 -0.4536 0.7071
vn -0.5123 -0.4874 0.7071
vn -0.5166 -0.4829 0.7071
vn -0.4851 -0.5145 0.7071
vn -0.4883 -0.5114 0.7071
vn -0.4564 -0.5401 0.7071
vn -0.4576 -0.5391 0.7071
vn -0.4262 -0.5638 0.7074
vn -0.4242 -0.5657 0.7071
vn -0.5729 -0.4145 0.7071
vn 0.0749 -0.7031 0.7071
vn 0.1179 -0.6972 0.7071
vn 0.0798 -0.7026 0.7071
vn 0.0748 -0.7031 0.7071
vn 0.0799 -0.7027 0.7070
vn 0.0415 -0.7059 0.7071
vn 0.0416 -0.7059 0.7071
vn 0.0242 -0.7069 0.7069
vn 0.0032 -0.7071 0.7071
vn 0.0242 -0.7067 0.7071
vn -0.0265 -0.7066 0.7071
vn -0.0352 -0.7062 0.7071
vn -0.0768 -0.7029 0.7071
vn -0.0735 -0.7033 0.7071
vn -0.1116 -0.6982 0.7071
vn -0.1263 -0.6957 0.7071
vn -0.1493 -0.6912 0.7071
vn -0.1263 -0.6957 0.7072
vn -0.1494 -0.6912 0.7071
vn -0.1746 -0.6852 0.7071
vn -0.1866 -0.6820 0.7071
vn -0.1492 -0.6912 0.7071
vn -0.2214 -0.6716 0.7071
vn -0.1867 -0.6820 0.7071
vn -0.2214 -0.6715 0.7071
vn -0.2234 -0.6709 0.7071
vn -0.2233 -0.6709 0.7071
vn -0.2594 -0.6578 0.7071
vn -0.2595 -0.6578 0.7071
vn -0.2664 -0.6550 0.7071
vn -0.2948 -0.6427 0.7071
vn -0.2665 -0.6550 0.7071
vn -0.3094 -0.6358 0.7071
vn -0.3293 -0.6258 0.7071
vn -0.3093 -0.6358 0.7071
vn -0.2948 -0.6428 0.7071
vn -0.3501 -0.6143 0.7071
vn -0.3095 -0.6358 0.7071
vn -0.3293 -0.6257 0.7071
vn -0.3501 -0.6144 0.7071
vn -0.3628 -0.6070 0.7071
vn -0.3884 -0.5909 0.7071
vn -0.3952 -0.5864 0.7071
vn -0.4243 -0.5657 0.7071
vn -0.4264 -0.5641 0.7071
vn -0.5381 -0.4590 0.7069
vn -0.5424 -0.4537 0.7071
vn -0.5622 -0.4290 0.7070
vn -0.5728 -0.4145 0.7071
vn -0.5942 -0.3833 0.7071
vn -0.5870 -0.3942 0.7071
vn -0.6201 -0.3399 0.7071
vn -0.6053 -0.3655 0.7071
vn -0.6622 -0.2479 0.7071
vn -0.7061 0.0385 0.7071
vn -0.7030 0.0766 0.7071
vn -0.6905 0.1524 0.7071
vn -0.6568 0.2625 0.7069
vn -0.5942 0.3834 0.7071
vn -0.5870 0.3942 0.7071
vn -0.5846 0.3979 0.7071
vn -0.5847 0.3979 0.7070
vn -0.5622 0.4291 0.7070
vn -0.4264 0.5640 0.7071
vn -0.2235 0.6709 0.7071
vn -0.1867 0.6820 0.7071
vn -0.0269 0.7067 0.7070
vn 0.0239 0.7069 0.7069
vn -0.0270 0.7066 0.7071
vn 0.0798 0.7026 0.7071
vn 0.1179 0.6972 0.7071
vn 0.0749 0.7031 0.7071
vn -0.1492 0.6912 0.7071
vn 0.0415 0.7060 0.7070
vn -0.0000 0.1480 0.9890
vn -0.0000 0.2928 0.9562
vn -0.0000 0.2927 0.9562
vn -0.0000 0.1690 0.9856
vn -0.0000 0.4310 0.9024
vn -0.0000 0.4459 0.8951
vn -0.0000 0.3165 0.9486
vn -0.0000 0.3164 0.9486
vn -0.0000 0.4311 0.9023
vn -0.0000 0.5599 0.8285
vn -0.0001 -0.3165 0.9486
vn 0.0001 -0.4459 0.8951
vn -0.0000 -0.4459 0.8951
vn -0.0000 -0.3164 0.9486
vn -0.0000 -0.5599 0.8285
vn -0.0000 -0.4311 0.9023
vn -0.0000 -0.1480 0.9890
vn -0.0000 -0.2928 0.9562
vn -0.0000 -0.2926 0.9562
vn -0.0000 -0.1688 0.9857
vn -0.0000 -0.1689 0.9856
vn -0.0000 -0.4310 0.9024
vn -0.0000 -0.3163 0.9487
s 1
usemtl Diffuse_51_51_51_100.029
f 1//1 2//1 3//1
f 1//1 3//1 4//1
f 3//1 5//1 4//1
f 5//1 6//1 4//1
f 4//1 7//1 8//1
f 4//1 8//1 9//1
f 8//1 10//1 9//1
f 9//1 10//1 11//1
f 7//1 4//1 6//1
f 9//1 11//1 12//1
f 13//2 14//2 15//3
f 16//4 17//2 15//3
f 18//5 19//4 15//6
f 18//5 20//7 21//4
f 22//7 18//5 23//8
f 24//9 25//7 23//10
f 24//11 26//12 27//7
f 28//13 29//14 30//15
f 24//16 28//13 31//17
f 32//12 29//14 33//18
f 34//18 29//14 35//19
f 36//20 37//18 35//21
f 38//22 39//20 35//21
f 38//22 40//23 41//20
f 42//20 40//23 43//24
f 44//24 40//23 45//25
f 46//26 47//27 48//28
f 49//26 50//29 45//25
f 47//30 51//31 52//32
f 53//33 54//31 45//25
f 55//34 56//26 57//35
f 57//36 58//31 59//37
f 53//38 60//39 61//40
f 60//39 62//41 63//42
f 64//43 65//44 66//45
f 66//45 67//43 64//43
f 68//46 66//45 65//44
f 68//46 69//47 66//45
f 66//45 69//47 70//48
f 70//48 69//47 71//49
f 72//50 70//48 71//49
f 72//50 73//51 70//48
f 72//50 74//52 73//51
f 73//51 74//52 75//53
f 62//41 73//51 75//53
f 62//41 60//39 73//51
f 63//42 61//40 60//39
f 61//40 59//54 53//38
f 53//38 59//54 76//26
f 77//26 55//34 52//32
f 78//55 79//55 80//55
f 81//55 82//55 80//55
f 83//55 81//55 80//55
f 84//55 83//55 80//55
f 85//55 84//55 80//55
f 86//55 85//55 80//55
f 87//56 86//55 80//55
f 88//57 87//56 80//55
f 79//55 88//57 80//55
f 89//55 79//55 78//55
f 78//55 90//57 89//55
f 78//55 91//55 90//57
f 78//55 92//55 91//55
f 78//55 93//55 92//55
f 94//55 78//55 95//55
f 94//55 96//55 78//55
f 78//55 96//55 93//55
f 97//58 98//59 99//59
f 100//60 97//58 99//59
f 100//60 101//61 97//58
f 97//58 101//61 102//62
f 103//63 104//64 105//65
f 106//66 107//67 108//68
f 109//69 110//70 107//67
f 111//71 98//59 97//58
f 112//72 113//73 114//72
f 112//72 115//74 113//73
f 113//73 115//74 116//75
f 116//75 115//74 110//70
f 117//76 116//75 110//70
f 109//69 117//76 110//70
f 107//67 118//77 108//68
f 108//68 118//77 104//64
f 104//64 118//77 105//65
f 119//78 105//65 120//79
f 120//79 97//58 121//80
f 102//62 122//81 123//82
f 122//81 124//83 125//84
f 126//85 127//86 128//87
f 129//88 130//89 131//90
f 132//91 133//92 134//93
f 134//93 133//92 135//94
f 135//94 133//92 136//95
f 136//95 133//92 137//96
f 137//96 133//92 131//90
f 130//89 137//96 131//90
f 129//88 131//90 128//87
f 138//97 129//88 128//87
f 126//85 125//84 124//83
f 126//85 128//87 125//84
f 125//84 123//82 122//81
f 123//82 97//58 102//62
f 123//82 121//80 97//58
f 121//80 119//78 120//79
f 105//65 119//78 103//63
f 109//69 107//67 106//66
f 138//97 128//87 127//86
f 139//1 140//1 141//1
f 139//1 142//1 143//1
f 139//1 144//1 145//1
f 139//1 146//1 147//1
f 141//1 148//1 149//1
f 141//1 150//1 151//1
f 141//1 152//1 153//1
f 154//1 155//1 156//1
f 141//1 157//1 158//1
f 155//1 141//1 159//1
f 160//98 161//98 162//98
f 163//98 164//98 165//98
s 0
f 166//98 167//98 168//98
f 167//98 169//98 170//98
f 169//55 171//98 172//99
s 1
f 173//98 174//98 175//98
f 176//98 177//98 178//98
f 179//98 180//98 181//98
f 182//98 183//98 184//98
f 185//98 186//98 187//98
f 188//98 189//98 190//98
f 191//98 192//98 193//98
f 194//98 195//98 196//98
f 197//98 198//98 199//98
f 200//98 201//98 202//98
f 203//98 204//98 205//98
f 206//98 207//98 208//98
f 209//98 210//98 211//98
f 212//98 213//98 214//98
f 215//98 216//98 217//98
f 218//98 219//98 220//98
f 216//98 221//98 222//98
f 223//98 224//98 216//98
f 225//98 226//98 227//98
f 228//98 229//98 227//98
f 230//98 231//98 227//98
f 232//98 233//98 227//98
f 234//98 235//98 227//98
f 236//98 237//98 227//98
f 238//98 239//98 227//98
f 227//98 240//98 216//98
f 241//98 242//98 216//98
f 243//98 244//98 216//98
f 245//98 246//98 216//98
f 247//98 227//98 248//98
f 249//98 250//98 251//98
f 252//98 253//98 216//98
f 254//98 255//98 256//98
s 0
f 257//98 258//98 259//100
s 1
f 260//98 261//98 259//98
s 0
f 262//98 263//98 257//98
s 1
f 264//98 265//98 266//98
f 267//101 268//101 269//101
f 270//101 271//101 272//101
f 273//102 274//102 275//102
f 276//102 277//102 278//102
f 279//103 280//103 281//103
f 282//103 283//103 284//103
f 285//100 286//100 287//100
f 288//100 289//100 285//100
f 290//100 291//100 289//100
f 292//100 293//100 291//100
f 294//100 295//100 293//100
f 296//100 297//100 295//100
f 298//104 299//104 297//104
f 300//100 301//100 299//100
f 302//104 303//104 301//104
f 304//100 305//100 303//100
f 306//105 307//105 305//105
f 308//100 309//100 307//100
f 310//100 311//100 309//100
f 309//100 312//100 313//100
f 313//100 314//100 315//100
f 315//100 316//100 317//100
f 317//100 318//100 319//100
f 319//100 320//100 321//100
f 321//100 322//100 323//100
f 323//100 324//100 325//100
f 325//100 326//100 327//100
f 327//100 328//100 329//100
f 329//100 330//100 331//100
f 332//100 333//100 334//100
f 335//103 333//103 336//103
f 337//100 332//100 338//100
f 339//100 337//100 340//100
f 341//100 339//100 342//100
f 343//105 341//105 344//105
f 345//100 343//100 346//100
f 347//100 345//100 348//100
f 284//100 347//100 349//100
f 350//100 351//100 284//100
f 352//100 353//100 283//100
f 354//103 355//103 353//103
f 356//105 357//105 355//105
f 358//104 359//104 357//104
f 360//100 361//100 359//100
f 362//100 363//100 364//100
f 362//100 365//100 366//100
f 364//100 367//100 368//100
f 368//100 369//100 370//100
f 370//100 371//100 372//100
f 372//100 373//100 374//100
f 374//100 375//100 376//100
f 376//100 377//100 378//100
f 378//100 379//100 380//100
f 380//100 381//100 382//100
f 382//100 383//100 384//100
f 384//100 385//100 386//100
f 386//100 387//100 388//100
f 388//100 389//100 390//100
f 391//100 281//100 388//100
f 392//100 280//100 393//100
f 394//100 392//100 395//100
f 396//100 394//100 397//100
f 398//104 399//104 396//104
f 400//100 401//100 399//100
f 402//100 403//100 401//100
f 404//100 405//100 403//100
f 406//100 407//100 405//100
f 331//100 408//100 336//100
f 409//100 410//100 407//100
f 411//100 365//100 361//100
f 410//100 412//100 413//100
f 414//106 415//107 416//106
f 417//108 418//109 419//108
f 420//109 421//109 419//108
f 422//110 423//110 421//109
f 424//111 425//111 423//110
f 426//112 427//112 425//113
f 428//114 427//112 429//112
f 430//115 431//116 432//116
f 433//115 431//116 434//115
f 435//117 433//118 436//117
f 435//119 437//119 438//120
f 439//120 440//120 441//121
f 442//121 443//121 444//122
f 442//121 445//123 446//123
f 446//124 447//125 448//125
f 449//125 450//126 448//125
f 451//127 452//128 453//127
f 454//128 455//128 453//129
f 456//130 457//130 455//128
f 458//131 457//130 459//130
f 460//132 461//131 462//131
f 463//132 461//131 464//132
f 465//133 463//134 466//133
f 465//133 467//133 468//135
f 469//136 470//137 471//138
f 469//136 472//138 473//138
f 473//139 474//140 475//140
f 476//141 477//142 475//141
f 478//143 479//144 480//143
f 481//145 482//145 480//143
f 483//146 484//146 482//147
f 485//148 484//149 486//149
f 487//150 488//151 489//151
f 490//152 488//151 491//152
f 492//153 490//154 493//153
f 492//155 494//155 495//156
f 496//157 497//157 498//158
f 496//157 499//158 500//158
f 500//159 501//160 502//160
f 503//160 504//1 502//160
f 505//1 506//161 507//1
f 508//161 509//161 507//1
f 510//162 511//162 509//161
f 512//163 511//164 513//164
f 514//165 515//166 516//166
f 517//167 518//168 519//168
f 520//167 518//168 521//167
f 522//169 520//170 523//169
f 522//171 524//171 525//172
f 526//173 527//174 528//175
f 526//174 529//175 530//175
f 530//176 531//177 532//177
f 533//178 534//179 532//178
f 535//180 536//181 537//180
f 538//182 539//182 537//183
f 540//184 541//184 539//182
f 542//185 541//186 543//186
f 544//187 545//185 546//185
f 547//188 545//185 548//188
f 549//189 547//188 550//189
f 549//189 551//189 552//190
f 553//190 554//190 555//191
f 553//190 556//191 557//191
f 558//192 559//193 560//192
f 561//194 562//194 558//192
f 563//194 558//192 564//192
f 559//193 565//193 566//192
f 567//195 568//196 559//196
f 569//195 570//196 567//195
f 571//195 567//195 572//197
f 573//195 572//197 574//197
f 572//197 575//198 576//197
f 575//198 577//198 578//197
f 579//199 580//200 575//200
f 581//199 582//200 579//199
f 583//199 579//199 584//201
f 585//199 584//201 586//201
f 584//202 587//203 588//202
f 587//203 589//203 590//202
f 591//204 592//205 587//205
f 593//204 594//205 591//204
f 595//206 591//206 596//207
f 597//206 596//208 598//208
f 596//207 599//209 600//207
f 599//210 601//210 602//207
f 603//211 604//209 599//209
f 605//212 606//209 603//212
f 607//213 603//213 608//214
f 609//215 608//214 610//214
f 608//214 611//216 612//214
f 611//216 613//216 614//214
f 557//191 615//217 611//217
f 616//191 617//217 557//191
f 549//189 618//190 553//190
f 547//188 619//188 620//189
f 545//185 541//186 621//185
f 622//184 539//182 623//182
f 624//179 537//179 532//178
f 625//176 626//177 530//176
f 522//171 627//172 526//172
f 520//170 628//170 629//169
f 518//218 515//166 630//165
f 515//163 511//164 631//163
f 632//162 509//161 633//161
f 634//1 507//1 502//160
f 635//159 636//160 500//159
f 492//155 637//156 496//156
f 490//154 638//154 639//153
f 488//148 484//149 640//148
f 641//219 482//147 642//147
f 643//142 480//142 475//141
f 644//139 645//220 473//139
f 465//133 646//135 469//135
f 463//132 647//132 648//133
f 461//131 457//130 649//131
f 650//130 455//221 651//221
f 652//126 453//126 448//125
f 653//124 654//125 446//124
f 439//120 655//222 442//222
f 435//119 656//223 439//223
f 433//118 657//118 658//117
f 659//113 660//112 425//113
f 421//109 661//109 662//110
f 416//106 663//224 664//106
f 416//106 665//224 666//224
f 667//114 431//114 427//112
f 423//110 668//110 669//111
f 419//107 416//106 670//107
f 671//225 672//226 673//227
f 674//228 675//229 676//230
f 677//231 678//232 679//226
f 680//233 681//232 682//234
f 683//235 684//236 685//237
f 686//238 687//237 688//239
f 689//240 690//239 691//241
f 692//242 693//243 694//244
f 695//241 696//245 697//246
f 698//245 699//247 700//248
f 701//247 702//249 703//248
f 704//250 705//251 706//252
f 707//253 708//254 709//251
f 710//255 711//256 712//253
f 713//257 714//258 715//259
f 716//257 717//255 718//260
f 719//257 720//261 721//262
f 722//260 723//263 724//262
f 725//264 726//265 727//266
f 728//263 729//264 730//262
f 731//265 732//267 733//268
f 734//269 735//270 736//271
f 737//270 738//272 739//273
f 738//274 740//275 741//273
f 742//273 743//276 744//277
f 745//278 746//277 747//279
f 748//278 749//280 750//281
f 751//282 752//283 753//284
f 754//285 755//286 756//287
f 757//288 758//289 759//290
f 760//291 761//292 762//290
f 763//293 764//294 765//292
f 766//295 767//296 768//297
f 769//298 770//299 771//300
f 772//301 773//302 774//303
f 775//304 776//301 777//304
f 778//305 779//304 780//304
f 781//305 782//304 783//306
f 784//305 785//306 786//307
f 787//308 788//309 789//310
f 790//311 791//312 792//313
f 793//314 794//315 795//316
f 796//317 797//318 798//319
f 799//320 800//321 801//318
f 802//322 803//323 804//321
f 805//324 806//325 807//322
f 808//326 809//324 810//327
f 811//328 812//329 813//330
f 814//331 815//328 816//332
f 817//333 818//334 819//335
f 820//336 821//337 822//338
f 823//339 824//334 825//340
f 826//341 827//339 828//342
f 829//343 830//341 831//344
f 832//345 833//343 834//346
f 835//347 836//337 837//328
f 838//348 839//349 840//350
f 841//351 842//352 843//353
f 844//351 845//354 846//355
f 847//353 848//356 849//357
f 850//356 851//358 852//357
f 853//359 854//358 855//356
f 856//360 857//358 858//359
f 859//360 860//359 861//361
f 862//360 863//361 864//362
f 865//360 866//362 867//363
f 868//362 869//364 870//365
f 871//366 872//367 873//363
f 874//368 875//367 876//369
f 877//370 878//367 879//371
f 880//372 881//371 882//373
f 883//372 884//374 885//375
f 886//372 887//376 888//377
f 889//376 890//378 891//379
f 892//378 893//380 894//379
f 895//381 896//382 897//383
f 898//384 899//385 900//386
f 901//387 902//381 903//388
f 904//384 905//388 906//389
f 907//388 908//390 909//389
f 910//390 911//391 912//389
f 913//392 914//346 915//390
f 916//343 917//344 918//346
f 919//341 920//342 921//344
f 922//339 923//340 924//342
f 925//393 926//336 927//394
f 928//395 929//328 930//337
f 931//328 814//331 835//396
f 932//397 816//398 933//328
f 934//399 935//397 936//400
f 937//322 938//327 939//324
f 940//321 941//401 942//322
f 943//318 944//317 945//320
f 946//319 947//314 948//317
f 949//316 950//313 951//314
f 952//309 953//307 954//306
f 955//402 956//303 957//304
f 958//403 959//300 960//303
f 961//296 962//404 963//293
f 964//293 965//292 966//289
f 967//288 968//290 969//287
f 970//285 971//405 972//284
f 973//280 974//285 975//282
f 976//273 977//406 978//278
f 740//275 743//407 979//408
f 980//270 981//409 982//271
f 983//267 984//410 985//268
f 986//263 987//265 988//264
f 989//259 990//411 991//256
f 992//250 993//253 994//251
f 995//247 996//250 997//252
f 998//241 999//412 1000//413
f 1001//235 1002//237 1003//238
f 1004//233 1005//234 1006//235
f 1007//232 1008//414 1009//234
f 1010//415 1011//416 1012//226
f 1013//417 1014//418 1015//419
f 1016//239 1017//240 1018//420
f 1019//248 1020//246 1021//245
f 1022//421 1023//417 1024//230
f 95//55 78//55 1025//422
f 1026//422 1027//423 95//55
f 95//55 1028//424 1029//425
s 0
f 1030//425 1031//55 1032//426
s 1
f 1033//427 132//91 134//93
f 1034//427 1035//428 132//91
f 1036//429 1037//425 1038//426
f 1039//428 1040//430 132//431
f 67//43 1041//432 1042//433
f 64//43 67//43 1043//434
f 1044//435 67//436 1045//437
f 80//55 82//55 1046//438
f 1047//438 82//55 1048//439
f 1049//440 82//55 1050//441
s 0
f 1051//55 1052//439 1053//442
s 1
f 1054//443 1055//442 1056//444
