# Blender 4.4.3
# www.blender.org
mtllib Mesh_16.007.mtl
o Mesh_16.007
v 0.017100 0.008820 -0.005490
v 0.000100 0.008820 -0.005490
v 0.017100 0.008833 -0.005538
v 0.000100 0.008833 -0.005538
v 0.017100 0.008786 -0.005490
v 0.000100 0.008786 -0.005490
v 0.017100 0.008820 -0.005490
v 0.000100 0.008820 -0.005490
v 0.017100 0.008820 -0.005490
v 0.017100 0.008773 -0.005538
v 0.000100 0.008773 -0.005538
v 0.017100 0.008786 -0.005490
v 0.000100 0.008786 -0.005490
v 0.017100 0.008786 -0.005490
v 0.017100 0.008773 -0.005597
v 0.000100 0.008773 -0.005596
v 0.017100 0.008833 -0.005597
v 0.000100 0.008833 -0.005596
v 0.017100 0.008773 -0.005597
v 0.000100 0.008773 -0.005596
v 0.017100 0.008773 -0.005597
v 0.017100 0.008843 -0.005537
v 0.000100 0.008843 -0.005537
v 0.017100 0.008828 -0.005480
v 0.000100 0.008828 -0.005480
v 0.017100 0.008843 -0.005663
v 0.000100 0.008843 -0.005663
v 0.017100 0.008828 -0.005720
v 0.000100 0.008828 -0.005720
v 0.017100 0.008778 -0.005720
v 0.000100 0.008778 -0.005720
v 0.017100 0.008828 -0.005720
v 0.000100 0.008828 -0.005720
v 0.017100 0.008828 -0.005720
v 0.017100 0.008763 -0.005663
v 0.000100 0.008763 -0.005663
v 0.017100 0.008778 -0.005720
v 0.000100 0.008778 -0.005720
v 0.017100 0.008778 -0.005720
v 0.017100 0.008763 -0.005537
v 0.000100 0.008763 -0.005537
v 0.017100 0.008778 -0.005480
v 0.000100 0.008778 -0.005480
v 0.000100 0.008786 -0.005710
v 0.017100 0.008786 -0.005710
v 0.000100 0.008820 -0.005710
v 0.017100 0.008820 -0.005710
v 0.000100 0.008820 -0.005710
v 0.017100 0.008820 -0.005710
v 0.000100 0.008833 -0.005662
v 0.017100 0.008820 -0.005710
v 0.017100 0.008833 -0.005662
v 0.000100 0.008833 -0.005603
v 0.017100 0.008833 -0.005604
v 0.000100 0.008833 -0.005603
v 0.017100 0.008833 -0.005604
v 0.000100 0.008773 -0.005603
v 0.017100 0.008833 -0.005604
v 0.017100 0.008773 -0.005604
v 0.000100 0.008773 -0.005603
v 0.017100 0.008773 -0.005604
v 0.000100 0.008773 -0.005662
v 0.017100 0.008773 -0.005604
v 0.017100 0.008773 -0.005662
v 0.017100 0.008828 -0.005480
v 0.000100 0.008828 -0.005480
v 0.017100 0.008778 -0.005480
v 0.000100 0.008828 -0.005480
v 0.000100 0.008778 -0.005480
v 0.017100 0.008778 -0.005480
v 0.000100 0.008786 -0.005710
v 0.000100 0.008786 -0.005710
v 0.017100 0.008786 -0.005710
v 0.017100 0.008833 -0.005597
v 0.000100 0.008833 -0.005596
v 0.017100 0.008833 -0.005597
v 0.000100 0.008833 -0.005596
v 0.000100 0.008843 -0.005537
v 0.000100 0.008833 -0.005603
v 0.000100 0.008833 -0.005596
v 0.000100 0.008833 -0.005603
v 0.000100 0.008773 -0.005596
v 0.000100 0.008773 -0.005596
v 0.000100 0.008773 -0.005603
v 0.000100 0.008763 -0.005537
v 0.000100 0.008773 -0.005538
v 0.000100 0.008773 -0.005596
v 0.000100 0.008763 -0.005537
v 0.000100 0.008786 -0.005490
v 0.000100 0.008763 -0.005537
v 0.000100 0.008778 -0.005480
v 0.000100 0.008820 -0.005490
v 0.000100 0.008778 -0.005480
v 0.000100 0.008828 -0.005480
v 0.000100 0.008786 -0.005490
v 0.000100 0.008773 -0.005538
v 0.000100 0.008763 -0.005537
v 0.000100 0.008833 -0.005538
v 0.000100 0.008843 -0.005537
v 0.000100 0.008833 -0.005596
v 0.000100 0.008820 -0.005490
v 0.000100 0.008828 -0.005480
v 0.000100 0.008843 -0.005537
v 0.000100 0.008763 -0.005537
v 0.000100 0.008773 -0.005603
v 0.000100 0.008763 -0.005663
v 0.000100 0.008778 -0.005720
v 0.000100 0.008786 -0.005710
v 0.000100 0.008828 -0.005720
v 0.000100 0.008828 -0.005720
v 0.000100 0.008786 -0.005710
v 0.000100 0.008820 -0.005710
v 0.000100 0.008843 -0.005663
v 0.000100 0.008833 -0.005603
v 0.000100 0.008843 -0.005537
v 0.000100 0.008786 -0.005490
v 0.000100 0.008778 -0.005480
v 0.000100 0.008820 -0.005490
v 0.000100 0.008773 -0.005662
v 0.000100 0.008786 -0.005710
v 0.000100 0.008763 -0.005663
v 0.000100 0.008763 -0.005663
v 0.000100 0.008786 -0.005710
v 0.000100 0.008778 -0.005720
v 0.000100 0.008843 -0.005537
v 0.000100 0.008833 -0.005538
v 0.000100 0.008820 -0.005490
v 0.000100 0.008833 -0.005662
v 0.000100 0.008843 -0.005663
v 0.000100 0.008820 -0.005710
v 0.000100 0.008833 -0.005662
v 0.000100 0.008833 -0.005603
v 0.000100 0.008843 -0.005663
v 0.000100 0.008828 -0.005720
v 0.000100 0.008820 -0.005710
v 0.000100 0.008843 -0.005663
v 0.000100 0.008773 -0.005603
v 0.000100 0.008773 -0.005662
v 0.000100 0.008763 -0.005663
v 0.000100 0.008833 -0.005603
v 0.000100 0.008773 -0.005603
v 0.000100 0.008773 -0.005596
v 0.017100 0.008833 -0.005538
v 0.017100 0.008833 -0.005597
v 0.017100 0.008843 -0.005537
v 0.017100 0.008833 -0.005597
v 0.017100 0.008773 -0.005597
v 0.017100 0.008833 -0.005604
v 0.017100 0.008773 -0.005597
v 0.017100 0.008773 -0.005604
v 0.017100 0.008833 -0.005604
v 0.017100 0.008773 -0.005597
v 0.017100 0.008763 -0.005537
v 0.017100 0.008773 -0.005604
v 0.017100 0.008773 -0.005538
v 0.017100 0.008763 -0.005537
v 0.017100 0.008773 -0.005597
v 0.017100 0.008833 -0.005597
v 0.017100 0.008833 -0.005604
v 0.017100 0.008843 -0.005537
v 0.017100 0.008786 -0.005490
v 0.017100 0.008778 -0.005480
v 0.017100 0.008763 -0.005537
v 0.017100 0.008820 -0.005490
v 0.017100 0.008828 -0.005480
v 0.017100 0.008778 -0.005480
v 0.017100 0.008820 -0.005490
v 0.017100 0.008833 -0.005538
v 0.017100 0.008843 -0.005537
v 0.017100 0.008828 -0.005480
v 0.017100 0.008820 -0.005490
v 0.017100 0.008843 -0.005537
v 0.017100 0.008778 -0.005480
v 0.017100 0.008786 -0.005490
v 0.017100 0.008820 -0.005490
v 0.017100 0.008763 -0.005537
v 0.017100 0.008763 -0.005663
v 0.017100 0.008773 -0.005604
v 0.017100 0.008778 -0.005720
v 0.017100 0.008828 -0.005720
v 0.017100 0.008786 -0.005710
v 0.017100 0.008843 -0.005663
v 0.017100 0.008843 -0.005537
v 0.017100 0.008833 -0.005604
v 0.017100 0.008786 -0.005710
v 0.017100 0.008763 -0.005663
v 0.017100 0.008778 -0.005720
v 0.017100 0.008786 -0.005710
v 0.017100 0.008828 -0.005720
v 0.017100 0.008820 -0.005710
v 0.017100 0.008773 -0.005538
v 0.017100 0.008786 -0.005490
v 0.017100 0.008763 -0.005537
v 0.017100 0.008833 -0.005662
v 0.017100 0.008820 -0.005710
v 0.017100 0.008843 -0.005663
v 0.017100 0.008833 -0.005662
v 0.017100 0.008843 -0.005663
v 0.017100 0.008833 -0.005604
v 0.017100 0.008773 -0.005604
v 0.017100 0.008763 -0.005663
v 0.017100 0.008773 -0.005662
v 0.017100 0.008820 -0.005710
v 0.017100 0.008828 -0.005720
v 0.017100 0.008843 -0.005663
v 0.017100 0.008763 -0.005663
v 0.017100 0.008786 -0.005710
v 0.017100 0.008773 -0.005662
vn -0.0000 -0.9659 -0.2588
vn -0.0001 -0.9659 -0.2588
vn -0.0000 -0.9660 -0.2587
vn -0.0000 -0.0000 -1.0000
vn -0.0000 0.9659 -0.2588
vn -0.0000 1.0000 -0.0000
vn 0.0001 -0.0000 1.0000
vn -0.0000 0.9659 0.2588
vn -0.0000 -1.0000 -0.0000
vn -0.0000 -1.0000 0.0001
vn -0.0000 -0.9659 0.2588
vn -0.0000 -0.0000 1.0000
vn -0.0001 -0.0000 -1.0000
vn -0.0000 1.0000 0.0001
vn -1.0000 -0.0000 -0.0000
vn 1.0000 0.0001 -0.0000
vn 1.0000 -0.0000 -0.0000
vn 1.0000 -0.0001 -0.0000
vn 1.0000 0.0003 -0.0000
vn 1.0000 0.0002 -0.0000
vn 1.0000 -0.0002 -0.0000
s 1
usemtl Diffuse_51_51_51_100.017
f 1//1 2//1 3//2
f 2//1 4//3 3//2
f 5//4 6//4 7//4
f 6//4 8//4 9//4
f 10//5 11//5 12//5
f 11//5 13//5 14//5
f 15//6 16//6 10//5
f 16//6 11//5 10//5
f 17//7 18//7 19//7
f 18//7 20//7 21//7
f 22//8 23//8 24//8
f 23//8 25//8 24//8
f 26//6 27//6 22//8
f 27//6 23//8 22//8
f 28//5 29//5 26//6
f 29//5 27//6 26//6
f 30//4 31//4 32//4
f 31//4 33//4 34//4
f 35//1 36//1 37//1
f 36//1 38//1 39//1
f 40//9 41//10 35//1
f 41//10 36//1 35//1
f 42//11 43//11 40//9
f 43//11 41//10 40//9
f 44//12 45//12 46//12
f 46//12 45//12 47//12
f 48//11 49//11 50//11
f 50//11 51//11 52//11
f 50//11 52//11 53//9
f 53//9 52//11 54//9
f 55//13 56//13 57//13
f 57//13 58//13 59//13
f 60//6 61//6 62//6
f 62//6 63//6 64//6
f 65//12 66//12 67//12
f 68//12 69//12 70//12
f 62//6 64//6 71//8
f 72//8 64//14 73//8
f 3//2 4//3 74//9
f 4//1 75//9 76//9
f 77//15 78//15 79//15
f 80//15 81//15 82//15
f 83//15 84//15 85//15
f 86//15 87//15 88//15
f 89//15 90//15 91//15
f 92//15 93//15 94//15
f 95//15 96//15 97//15
f 98//15 99//15 100//15
f 101//15 102//15 103//15
f 104//15 105//15 106//15
f 107//15 108//15 109//15
f 110//15 111//15 112//15
f 113//15 114//15 115//15
f 116//15 117//15 118//15
f 119//15 120//15 121//15
f 122//15 123//15 124//15
f 125//15 126//15 127//15
f 128//15 129//15 130//15
f 131//15 132//15 133//15
f 134//15 135//15 136//15
f 137//15 138//15 139//15
f 140//15 141//15 142//15
f 143//16 144//16 145//16
f 146//17 147//17 148//17
f 149//17 150//17 151//17
f 152//17 153//17 154//17
f 155//18 156//18 157//18
f 158//17 159//17 160//17
f 161//17 162//17 163//17
f 164//17 165//17 166//17
f 167//16 168//16 169//16
f 170//19 171//19 172//19
f 173//17 174//17 175//17
f 176//20 177//20 178//20
f 179//17 180//17 181//17
f 182//21 183//21 184//21
f 185//17 186//17 187//17
f 188//17 189//17 190//17
f 191//17 192//17 193//17
f 194//17 195//17 196//17
f 197//17 198//17 199//17
f 200//18 201//18 202//18
f 203//17 204//17 205//17
f 206//17 207//17 208//17
