# Blender 4.4.3
# www.blender.org
mtllib Mesh_20.005.mtl
o Mesh_20.005
v -0.000150 0.008710 -0.005552
v -0.000150 0.008710 -0.005543
v -0.000150 0.008716 -0.005537
v -0.000150 0.008773 -0.005552
v -0.000150 0.008721 -0.005530
v -0.000150 0.008726 -0.005524
v -0.000150 0.008732 -0.005519
v -0.000150 0.008738 -0.005513
v -0.000150 0.008773 -0.005514
v -0.000150 0.008744 -0.005508
v -0.000150 0.008750 -0.005502
v -0.000150 0.008756 -0.005497
v -0.000150 0.008710 -0.005543
v -0.000065 0.008710 -0.005543
v -0.000065 0.008714 -0.005539
v -0.000150 0.008716 -0.005537
v -0.000150 0.008710 -0.005543
v -0.000065 0.008717 -0.005535
v -0.000150 0.008716 -0.005537
v -0.000150 0.008721 -0.005530
v -0.000150 0.008716 -0.005537
v -0.000150 0.008721 -0.005530
v -0.000065 0.008720 -0.005531
v -0.000065 0.008723 -0.005527
v -0.000150 0.008721 -0.005530
v -0.000150 0.008726 -0.005524
v -0.000150 0.008721 -0.005530
v -0.000065 0.008727 -0.005524
v -0.000065 0.008730 -0.005520
v -0.000150 0.008726 -0.005524
v -0.000150 0.008726 -0.005524
v -0.000150 0.008726 -0.005524
v -0.000150 0.008732 -0.005519
v -0.000150 0.008732 -0.005519
v -0.000065 0.008734 -0.005517
v -0.000150 0.008738 -0.005513
v -0.000150 0.008732 -0.005519
v -0.000065 0.008738 -0.005513
v -0.000150 0.008738 -0.005513
v -0.000065 0.008741 -0.005510
v -0.000150 0.008738 -0.005513
v -0.000150 0.008738 -0.005513
v -0.000150 0.008744 -0.005508
v -0.000150 0.008744 -0.005508
v -0.000065 0.008745 -0.005506
v -0.000150 0.008750 -0.005502
v -0.000147 0.008756 -0.005497
v -0.000150 0.008756 -0.005497
v -0.000150 0.008750 -0.005502
v -0.000150 0.008744 -0.005508
v -0.000150 0.008750 -0.005502
v -0.000143 0.008756 -0.005497
v -0.000065 0.008749 -0.005503
v -0.000150 0.008750 -0.005502
v -0.000140 0.008756 -0.005497
v -0.000150 0.008750 -0.005502
v -0.000136 0.008756 -0.005497
v -0.000150 0.008750 -0.005502
v -0.000133 0.008757 -0.005497
v -0.000065 0.008753 -0.005500
v -0.000130 0.008757 -0.005496
v -0.000123 0.008759 -0.005495
v -0.000127 0.008758 -0.005496
v -0.000100 0.008769 -0.005488
v -0.000102 0.008767 -0.005489
v -0.000065 0.008765 -0.005491
v -0.000065 0.008769 -0.005488
v -0.000105 0.008766 -0.005490
v -0.000108 0.008764 -0.005491
v -0.000065 0.008761 -0.005494
v -0.000111 0.008763 -0.005492
v -0.000114 0.008762 -0.005493
v -0.000065 0.008757 -0.005497
v -0.000117 0.008761 -0.005494
v -0.000120 0.008760 -0.005494
v -0.000150 0.008750 -0.005502
v -0.000150 0.008750 -0.005502
v -0.000065 0.008834 -0.005487
v -0.000087 0.008803 -0.005487
v -0.000065 0.008772 -0.005487
v -0.000095 0.008775 -0.005487
v -0.000097 0.008772 -0.005487
v -0.000093 0.008779 -0.005487
v -0.000091 0.008783 -0.005487
v -0.000090 0.008787 -0.005487
v -0.000089 0.008791 -0.005487
v -0.000088 0.008795 -0.005487
v -0.000088 0.008799 -0.005487
v -0.000088 0.008807 -0.005487
v -0.000088 0.008811 -0.005487
v -0.000089 0.008815 -0.005487
v -0.000090 0.008819 -0.005487
v -0.000091 0.008823 -0.005487
v -0.000095 0.008831 -0.005487
v -0.000097 0.008834 -0.005487
v -0.000093 0.008827 -0.005487
v -0.000150 0.008856 -0.005502
v -0.000147 0.008850 -0.005497
v -0.000143 0.008850 -0.005497
v -0.000140 0.008850 -0.005497
v -0.000137 0.008850 -0.005497
v -0.000133 0.008849 -0.005497
v -0.000065 0.008868 -0.005513
v -0.000065 0.008872 -0.005517
v -0.000150 0.008868 -0.005513
v -0.000065 0.008879 -0.005524
v -0.000150 0.008880 -0.005524
v -0.000065 0.008876 -0.005520
v -0.000065 0.008883 -0.005527
v -0.000150 0.008885 -0.005530
v -0.000150 0.008850 -0.005497
v -0.000150 0.008895 -0.005543
v -0.000065 0.008892 -0.005539
v -0.000065 0.008895 -0.005543
v -0.000150 0.008890 -0.005537
v -0.000065 0.008889 -0.005535
v -0.000065 0.008886 -0.005531
v -0.000150 0.008874 -0.005519
v -0.000065 0.008865 -0.005510
v -0.000150 0.008862 -0.005508
v -0.000065 0.008861 -0.005506
v -0.000130 0.008849 -0.005496
v -0.000065 0.008857 -0.005503
v -0.000127 0.008848 -0.005496
v -0.000065 0.008853 -0.005500
v -0.000123 0.008847 -0.005495
v -0.000120 0.008846 -0.005494
v -0.000065 0.008849 -0.005497
v -0.000114 0.008844 -0.005493
v -0.000111 0.008843 -0.005492
v -0.000065 0.008845 -0.005494
v -0.000065 0.008837 -0.005488
v -0.000065 0.008841 -0.005491
v -0.000100 0.008837 -0.005488
v -0.000102 0.008839 -0.005489
v -0.000105 0.008840 -0.005490
v -0.000108 0.008842 -0.005491
v -0.000117 0.008845 -0.005494
v -0.000150 0.008833 -0.005514
v -0.000150 0.008868 -0.005513
v -0.000150 0.008833 -0.005552
v -0.000150 0.008850 -0.005497
v -0.000150 0.008856 -0.005502
v -0.000150 0.008856 -0.005502
v -0.000150 0.008862 -0.005508
v -0.000150 0.008862 -0.005508
v -0.000150 0.008868 -0.005513
v -0.000150 0.008868 -0.005513
v -0.000150 0.008874 -0.005519
v -0.000150 0.008874 -0.005519
v -0.000150 0.008880 -0.005524
v -0.000150 0.008880 -0.005524
v -0.000150 0.008885 -0.005530
v -0.000150 0.008895 -0.005543
v -0.000150 0.008895 -0.005552
v -0.000150 0.008890 -0.005537
v -0.000150 0.008885 -0.005530
v -0.000150 0.008890 -0.005537
v -0.000150 0.008890 -0.005537
v -0.000065 0.008845 -0.005494
v -0.000065 0.008834 -0.005487
v -0.000065 0.008772 -0.005487
v -0.000065 0.008761 -0.005494
v -0.000065 0.008772 -0.005487
v -0.000065 0.008765 -0.005491
v -0.000065 0.008772 -0.005487
v -0.000065 0.008771 -0.005487
v -0.000065 0.008769 -0.005488
v -0.000065 0.008770 -0.005487
v -0.000065 0.008769 -0.005488
v -0.000065 0.008770 -0.005487
v -0.000065 0.008769 -0.005488
v -0.000065 0.008772 -0.005487
v -0.000065 0.008769 -0.005488
v -0.000065 0.008765 -0.005491
v -0.000065 0.008845 -0.005494
v -0.000065 0.008772 -0.005487
v -0.000065 0.008761 -0.005494
v -0.000065 0.008845 -0.005494
v -0.000065 0.008761 -0.005494
v -0.000065 0.008849 -0.005497
v -0.000065 0.008761 -0.005494
v -0.000065 0.008757 -0.005497
v -0.000065 0.008849 -0.005497
v -0.000065 0.008757 -0.005497
v -0.000065 0.008853 -0.005500
v -0.000065 0.008849 -0.005497
v -0.000065 0.008753 -0.005500
v -0.000065 0.008853 -0.005500
v -0.000065 0.008757 -0.005497
v -0.000065 0.008857 -0.005503
v -0.000065 0.008853 -0.005500
v -0.000065 0.008753 -0.005500
v -0.000065 0.008857 -0.005503
v -0.000065 0.008753 -0.005500
v -0.000065 0.008749 -0.005503
v -0.000065 0.008857 -0.005503
v -0.000065 0.008749 -0.005503
v -0.000065 0.008861 -0.005506
v -0.000065 0.008749 -0.005503
v -0.000065 0.008745 -0.005506
v -0.000065 0.008861 -0.005506
v -0.000065 0.008745 -0.005506
v -0.000065 0.008865 -0.005510
v -0.000065 0.008861 -0.005506
v -0.000065 0.008741 -0.005510
v -0.000065 0.008865 -0.005510
v -0.000065 0.008745 -0.005506
v -0.000065 0.008868 -0.005513
v -0.000065 0.008865 -0.005510
v -0.000065 0.008741 -0.005510
v -0.000065 0.008868 -0.005513
v -0.000065 0.008741 -0.005510
v -0.000065 0.008738 -0.005513
v -0.000065 0.008710 -0.005543
v -0.000065 0.008710 -0.005552
v -0.000065 0.008714 -0.005539
v -0.000065 0.008868 -0.005513
v -0.000065 0.008738 -0.005513
v -0.000065 0.008872 -0.005517
v -0.000065 0.008720 -0.005531
v -0.000065 0.008717 -0.005535
v -0.000065 0.008734 -0.005517
v -0.000065 0.008730 -0.005520
v -0.000065 0.008895 -0.005543
v -0.000065 0.008892 -0.005539
v -0.000065 0.008895 -0.005552
v -0.000065 0.008892 -0.005539
v -0.000065 0.008889 -0.005535
v -0.000065 0.008889 -0.005535
v -0.000065 0.008886 -0.005531
v -0.000065 0.008886 -0.005531
v -0.000065 0.008883 -0.005527
v -0.000065 0.008883 -0.005527
v -0.000065 0.008879 -0.005524
v -0.000065 0.008879 -0.005524
v -0.000065 0.008876 -0.005520
v -0.000065 0.008876 -0.005520
v -0.000065 0.008872 -0.005517
v -0.000065 0.008734 -0.005517
v -0.000065 0.008730 -0.005520
v -0.000065 0.008727 -0.005524
v -0.000065 0.008727 -0.005524
v -0.000065 0.008723 -0.005527
v -0.000065 0.008723 -0.005527
v -0.000065 0.008720 -0.005531
v -0.000065 0.008734 -0.005517
v -0.000065 0.008872 -0.005517
v -0.000065 0.008872 -0.005517
v -0.000065 0.008738 -0.005513
v -0.000065 0.008734 -0.005517
v -0.000065 0.008717 -0.005535
v -0.000065 0.008714 -0.005539
v -0.000065 0.008845 -0.005494
v -0.000065 0.008841 -0.005491
v -0.000065 0.008834 -0.005487
v -0.000065 0.008836 -0.005487
v -0.000065 0.008834 -0.005487
v -0.000065 0.008836 -0.005487
v -0.000065 0.008834 -0.005487
v -0.000065 0.008837 -0.005488
v -0.000065 0.008835 -0.005487
v -0.000065 0.008834 -0.005487
v -0.000065 0.008837 -0.005488
v -0.000065 0.008834 -0.005487
v -0.000065 0.008841 -0.005491
v -0.000065 0.008710 -0.005552
v -0.000065 0.008710 -0.005543
v -0.000150 0.008710 -0.005552
v -0.000065 0.008710 -0.005543
v -0.000150 0.008710 -0.005543
v -0.000150 0.008710 -0.005552
v -0.000150 0.008895 -0.005552
v -0.000150 0.008895 -0.005543
v -0.000065 0.008895 -0.005552
v -0.000150 0.008895 -0.005543
v -0.000065 0.008895 -0.005543
v -0.000065 0.008895 -0.005552
v -0.000150 0.008710 -0.005552
v -0.000134 0.008775 -0.005552
v -0.000132 0.008776 -0.005552
v -0.000065 0.008710 -0.005552
v -0.000115 0.008801 -0.005552
v -0.000115 0.008803 -0.005552
v -0.000148 0.008833 -0.005552
v -0.000150 0.008833 -0.005552
v -0.000150 0.008895 -0.005552
v -0.000150 0.008895 -0.005552
v -0.000147 0.008833 -0.005552
v -0.000150 0.008895 -0.005552
v -0.000145 0.008833 -0.005552
v -0.000150 0.008895 -0.005552
v -0.000144 0.008833 -0.005552
v -0.000150 0.008895 -0.005552
v -0.000142 0.008833 -0.005552
v -0.000150 0.008895 -0.005552
v -0.000140 0.008833 -0.005552
v -0.000150 0.008895 -0.005552
v -0.000139 0.008832 -0.005552
v -0.000150 0.008895 -0.005552
v -0.000137 0.008832 -0.005552
v -0.000150 0.008895 -0.005552
v -0.000136 0.008831 -0.005552
v -0.000150 0.008895 -0.005552
v -0.000134 0.008831 -0.005552
v -0.000150 0.008895 -0.005552
v -0.000132 0.008830 -0.005552
v -0.000150 0.008895 -0.005552
v -0.000131 0.008830 -0.005552
v -0.000150 0.008895 -0.005552
v -0.000065 0.008895 -0.005552
v -0.000065 0.008895 -0.005552
v -0.000130 0.008829 -0.005552
v -0.000065 0.008895 -0.005552
v -0.000128 0.008828 -0.005552
v -0.000065 0.008895 -0.005552
v -0.000127 0.008827 -0.005552
v -0.000065 0.008895 -0.005552
v -0.000126 0.008826 -0.005552
v -0.000065 0.008895 -0.005552
v -0.000124 0.008825 -0.005552
v -0.000065 0.008895 -0.005552
v -0.000123 0.008824 -0.005552
v -0.000065 0.008895 -0.005552
v -0.000122 0.008822 -0.005552
v -0.000065 0.008895 -0.005552
v -0.000121 0.008821 -0.005552
v -0.000065 0.008895 -0.005552
v -0.000120 0.008820 -0.005552
v -0.000065 0.008895 -0.005552
v -0.000119 0.008819 -0.005552
v -0.000117 0.008814 -0.005552
v -0.000118 0.008816 -0.005552
v -0.000065 0.008895 -0.005552
v -0.000065 0.008895 -0.005552
v -0.000119 0.008817 -0.005552
v -0.000117 0.008813 -0.005552
v -0.000065 0.008895 -0.005552
v -0.000116 0.008811 -0.005552
v -0.000065 0.008895 -0.005552
v -0.000116 0.008809 -0.005552
v -0.000065 0.008895 -0.005552
v -0.000115 0.008808 -0.005552
v -0.000065 0.008895 -0.005552
v -0.000115 0.008806 -0.005552
v -0.000065 0.008895 -0.005552
v -0.000115 0.008805 -0.005552
v -0.000065 0.008895 -0.005552
v -0.000065 0.008895 -0.005552
v -0.000065 0.008895 -0.005552
v -0.000065 0.008710 -0.005552
v -0.000065 0.008710 -0.005552
v -0.000115 0.008800 -0.005552
v -0.000065 0.008710 -0.005552
v -0.000115 0.008798 -0.005552
v -0.000065 0.008710 -0.005552
v -0.000116 0.008797 -0.005552
v -0.000065 0.008710 -0.005552
v -0.000116 0.008795 -0.005552
v -0.000065 0.008710 -0.005552
v -0.000117 0.008793 -0.005552
v -0.000118 0.008790 -0.005552
v -0.000065 0.008710 -0.005552
v -0.000119 0.008789 -0.005552
v -0.000117 0.008792 -0.005552
v -0.000065 0.008710 -0.005552
v -0.000065 0.008710 -0.005552
v -0.000119 0.008787 -0.005552
v -0.000065 0.008710 -0.005552
v -0.000120 0.008786 -0.005552
v -0.000065 0.008710 -0.005552
v -0.000121 0.008785 -0.005552
v -0.000065 0.008710 -0.005552
v -0.000122 0.008784 -0.005552
v -0.000065 0.008710 -0.005552
v -0.000123 0.008782 -0.005552
v -0.000065 0.008710 -0.005552
v -0.000124 0.008781 -0.005552
v -0.000065 0.008710 -0.005552
v -0.000126 0.008780 -0.005552
v -0.000065 0.008710 -0.005552
v -0.000127 0.008779 -0.005552
v -0.000065 0.008710 -0.005552
v -0.000128 0.008778 -0.005552
v -0.000065 0.008710 -0.005552
v -0.000130 0.008777 -0.005552
v -0.000065 0.008710 -0.005552
v -0.000131 0.008776 -0.005552
v -0.000065 0.008710 -0.005552
v -0.000150 0.008710 -0.005552
v -0.000150 0.008710 -0.005552
v -0.000136 0.008775 -0.005552
v -0.000150 0.008710 -0.005552
v -0.000137 0.008774 -0.005552
v -0.000150 0.008710 -0.005552
v -0.000139 0.008774 -0.005552
v -0.000150 0.008710 -0.005552
v -0.000150 0.008710 -0.005552
v -0.000140 0.008773 -0.005552
v -0.000150 0.008710 -0.005552
v -0.000142 0.008773 -0.005552
v -0.000150 0.008710 -0.005552
v -0.000144 0.008773 -0.005552
v -0.000150 0.008710 -0.005552
v -0.000145 0.008773 -0.005552
v -0.000150 0.008710 -0.005552
v -0.000147 0.008773 -0.005552
v -0.000065 0.008895 -0.005552
v -0.000150 0.008710 -0.005552
v -0.000148 0.008773 -0.005552
v -0.000065 0.008710 -0.005552
v -0.000150 0.008710 -0.005552
v -0.000150 0.008773 -0.005552
v -0.000148 0.008833 -0.005552
v -0.000147 0.008833 -0.005552
v -0.000148 0.008833 -0.005514
v -0.000147 0.008833 -0.005552
v -0.000145 0.008833 -0.005552
v -0.000147 0.008833 -0.005514
v -0.000145 0.008833 -0.005552
v -0.000145 0.008833 -0.005514
v -0.000144 0.008833 -0.005552
v -0.000144 0.008833 -0.005514
v -0.000142 0.008833 -0.005552
v -0.000142 0.008833 -0.005514
v -0.000140 0.008833 -0.005552
v -0.000140 0.008833 -0.005514
v -0.000139 0.008832 -0.005552
v -0.000140 0.008833 -0.005552
v -0.000137 0.008832 -0.005552
v -0.000139 0.008832 -0.005514
v -0.000139 0.008832 -0.005552
v -0.000137 0.008832 -0.005514
v -0.000137 0.008832 -0.005552
v -0.000136 0.008831 -0.005514
v -0.000136 0.008831 -0.005552
v -0.000136 0.008831 -0.005552
v -0.000134 0.008831 -0.005552
v -0.000134 0.008831 -0.005514
v -0.000134 0.008831 -0.005552
v -0.000132 0.008830 -0.005552
v -0.000132 0.008830 -0.005514
v -0.000132 0.008830 -0.005552
v -0.000131 0.008830 -0.005552
v -0.000131 0.008830 -0.005552
v -0.000131 0.008830 -0.005514
v -0.000130 0.008829 -0.005552
v -0.000130 0.008829 -0.005514
v -0.000130 0.008829 -0.005552
v -0.000128 0.008828 -0.005552
v -0.000128 0.008828 -0.005552
v -0.000127 0.008827 -0.005552
v -0.000128 0.008828 -0.005514
v -0.000127 0.008827 -0.005552
v -0.000127 0.008827 -0.005514
v -0.000126 0.008826 -0.005552
v -0.000126 0.008826 -0.005514
v -0.000124 0.008825 -0.005552
v -0.000126 0.008826 -0.005552
v -0.000123 0.008824 -0.005552
v -0.000124 0.008825 -0.005514
v -0.000124 0.008825 -0.005552
v -0.000123 0.008824 -0.005514
v -0.000123 0.008824 -0.005552
v -0.000122 0.008822 -0.005514
v -0.000122 0.008822 -0.005552
v -0.000122 0.008822 -0.005552
v -0.000121 0.008821 -0.005552
v -0.000121 0.008821 -0.005514
v -0.000121 0.008821 -0.005552
v -0.000120 0.008820 -0.005552
v -0.000120 0.008820 -0.005552
v -0.000120 0.008820 -0.005514
v -0.000119 0.008819 -0.005552
v -0.000119 0.008819 -0.005514
v -0.000119 0.008819 -0.005552
v -0.000119 0.008817 -0.005552
v -0.000119 0.008817 -0.005552
v -0.000118 0.008816 -0.005552
v -0.000119 0.008817 -0.005514
v -0.000118 0.008816 -0.005552
v -0.000118 0.008816 -0.005514
v -0.000117 0.008814 -0.005552
v -0.000117 0.008814 -0.005514
v -0.000117 0.008813 -0.005552
v -0.000117 0.008814 -0.005552
v -0.000116 0.008811 -0.005552
v -0.000117 0.008813 -0.005514
v -0.000117 0.008813 -0.005552
v -0.000116 0.008811 -0.005514
v -0.000116 0.008811 -0.005552
v -0.000116 0.008809 -0.005514
v -0.000116 0.008809 -0.005552
v -0.000116 0.008809 -0.005552
v -0.000115 0.008808 -0.005552
v -0.000115 0.008808 -0.005514
v -0.000115 0.008808 -0.005552
v -0.000115 0.008806 -0.005552
v -0.000115 0.008806 -0.005552
v -0.000115 0.008806 -0.005514
v -0.000115 0.008805 -0.005552
v -0.000115 0.008805 -0.005514
v -0.000115 0.008805 -0.005552
v -0.000115 0.008803 -0.005552
v -0.000115 0.008803 -0.005552
v -0.000115 0.008801 -0.005552
v -0.000115 0.008803 -0.005514
v -0.000115 0.008801 -0.005552
v -0.000115 0.008801 -0.005514
v -0.000115 0.008800 -0.005552
v -0.000115 0.008800 -0.005514
v -0.000115 0.008798 -0.005552
v -0.000115 0.008800 -0.005552
v -0.000116 0.008797 -0.005552
v -0.000115 0.008798 -0.005514
v -0.000115 0.008798 -0.005552
v -0.000116 0.008795 -0.005552
v -0.000116 0.008797 -0.005514
v -0.000116 0.008797 -0.005552
v -0.000116 0.008795 -0.005514
v -0.000116 0.008795 -0.005552
v -0.000117 0.008793 -0.005514
v -0.000117 0.008793 -0.005552
v -0.000117 0.008793 -0.005552
v -0.000117 0.008792 -0.005552
v -0.000117 0.008792 -0.005514
v -0.000117 0.008792 -0.005552
v -0.000118 0.008790 -0.005552
v -0.000118 0.008790 -0.005552
v -0.000118 0.008790 -0.005514
v -0.000119 0.008789 -0.005552
v -0.000119 0.008789 -0.005514
v -0.000119 0.008789 -0.005552
v -0.000119 0.008787 -0.005552
v -0.000119 0.008787 -0.005552
v -0.000120 0.008786 -0.005552
v -0.000119 0.008787 -0.005514
v -0.000120 0.008786 -0.005552
v -0.000120 0.008786 -0.005514
v -0.000121 0.008785 -0.005552
v -0.000121 0.008785 -0.005514
v -0.000122 0.008784 -0.005552
v -0.000121 0.008785 -0.005552
v -0.000123 0.008782 -0.005552
v -0.000122 0.008784 -0.005514
v -0.000122 0.008784 -0.005552
v -0.000123 0.008782 -0.005514
v -0.000123 0.008782 -0.005552
v -0.000124 0.008781 -0.005514
v -0.000124 0.008781 -0.005552
v -0.000124 0.008781 -0.005552
v -0.000126 0.008780 -0.005552
v -0.000126 0.008780 -0.005514
v -0.000126 0.008780 -0.005552
v -0.000127 0.008779 -0.005552
v -0.000127 0.008779 -0.005552
v -0.000127 0.008779 -0.005514
v -0.000148 0.008773 -0.005514
v -0.000147 0.008773 -0.005514
v -0.000148 0.008773 -0.005552
v -0.000150 0.008773 -0.005552
v -0.000150 0.008773 -0.005514
v -0.000150 0.008773 -0.005552
v -0.000148 0.008773 -0.005552
v -0.000147 0.008773 -0.005552
v -0.000148 0.008773 -0.005552
v -0.000145 0.008773 -0.005514
v -0.000147 0.008773 -0.005552
v -0.000145 0.008773 -0.005552
v -0.000147 0.008773 -0.005552
v -0.000145 0.008773 -0.005552
v -0.000144 0.008773 -0.005514
v -0.000145 0.008773 -0.005552
v -0.000144 0.008773 -0.005552
v -0.000142 0.008773 -0.005514
v -0.000144 0.008773 -0.005552
v -0.000142 0.008773 -0.005552
v -0.000144 0.008773 -0.005552
v -0.000140 0.008773 -0.005514
v -0.000142 0.008773 -0.005552
v -0.000140 0.008773 -0.005552
v -0.000142 0.008773 -0.005552
v -0.000140 0.008773 -0.005552
v -0.000139 0.008774 -0.005514
v -0.000140 0.008773 -0.005552
v -0.000139 0.008774 -0.005552
v -0.000137 0.008774 -0.005514
v -0.000139 0.008774 -0.005552
v -0.000137 0.008774 -0.005552
v -0.000139 0.008774 -0.005552
v -0.000136 0.008775 -0.005514
v -0.000137 0.008774 -0.005552
v -0.000136 0.008775 -0.005552
v -0.000137 0.008774 -0.005552
v -0.000136 0.008775 -0.005552
v -0.000134 0.008775 -0.005514
v -0.000136 0.008775 -0.005552
v -0.000134 0.008775 -0.005552
v -0.000132 0.008776 -0.005514
v -0.000134 0.008775 -0.005552
v -0.000132 0.008776 -0.005552
v -0.000134 0.008775 -0.005552
v -0.000131 0.008776 -0.005514
v -0.000132 0.008776 -0.005552
v -0.000131 0.008776 -0.005552
v -0.000132 0.008776 -0.005552
v -0.000131 0.008776 -0.005552
v -0.000130 0.008777 -0.005514
v -0.000131 0.008776 -0.005552
v -0.000130 0.008777 -0.005552
v -0.000128 0.008778 -0.005514
v -0.000130 0.008777 -0.005552
v -0.000128 0.008778 -0.005552
v -0.000130 0.008777 -0.005552
v -0.000128 0.008778 -0.005552
v -0.000127 0.008779 -0.005552
v -0.000128 0.008778 -0.005552
v -0.000126 0.008780 -0.005552
v -0.000123 0.008782 -0.005552
v -0.000124 0.008781 -0.005552
v -0.000122 0.008784 -0.005552
v -0.000121 0.008785 -0.005552
v -0.000120 0.008786 -0.005552
v -0.000119 0.008787 -0.005552
v -0.000118 0.008790 -0.005552
v -0.000119 0.008789 -0.005552
v -0.000117 0.008792 -0.005552
v -0.000116 0.008795 -0.005552
v -0.000117 0.008793 -0.005552
v -0.000116 0.008797 -0.005552
v -0.000115 0.008798 -0.005552
v -0.000115 0.008800 -0.005552
v -0.000115 0.008801 -0.005552
v -0.000115 0.008803 -0.005552
v -0.000115 0.008806 -0.005552
v -0.000115 0.008805 -0.005552
v -0.000115 0.008808 -0.005552
v -0.000116 0.008811 -0.005552
v -0.000116 0.008809 -0.005552
v -0.000117 0.008813 -0.005552
v -0.000117 0.008814 -0.005552
v -0.000118 0.008816 -0.005552
v -0.000119 0.008817 -0.005552
v -0.000120 0.008820 -0.005552
v -0.000119 0.008819 -0.005552
v -0.000121 0.008821 -0.005552
v -0.000123 0.008824 -0.005552
v -0.000122 0.008822 -0.005552
v -0.000124 0.008825 -0.005552
v -0.000126 0.008826 -0.005552
v -0.000127 0.008827 -0.005552
v -0.000128 0.008828 -0.005552
v -0.000131 0.008830 -0.005552
v -0.000130 0.008829 -0.005552
v -0.000132 0.008830 -0.005552
v -0.000134 0.008831 -0.005552
v -0.000137 0.008832 -0.005552
v -0.000136 0.008831 -0.005552
v -0.000142 0.008833 -0.005552
v -0.000140 0.008833 -0.005552
v -0.000145 0.008833 -0.005552
v -0.000144 0.008833 -0.005552
v -0.000150 0.008833 -0.005552
v -0.000148 0.008833 -0.005552
v -0.000150 0.008833 -0.005514
v -0.000150 0.008833 -0.005552
v -0.000139 0.008832 -0.005552
v -0.000144 0.008833 -0.005552
v -0.000142 0.008833 -0.005552
v -0.000147 0.008833 -0.005552
v -0.000147 0.008756 -0.005497
v -0.000145 0.008773 -0.005514
v -0.000147 0.008773 -0.005514
v -0.000147 0.008756 -0.005497
v -0.000147 0.008773 -0.005514
v -0.000150 0.008756 -0.005497
v -0.000143 0.008756 -0.005497
v -0.000144 0.008773 -0.005514
v -0.000145 0.008773 -0.005514
v -0.000142 0.008773 -0.005514
v -0.000144 0.008773 -0.005514
v -0.000140 0.008756 -0.005497
v -0.000140 0.008773 -0.005514
v -0.000140 0.008756 -0.005497
v -0.000136 0.008756 -0.005497
v -0.000139 0.008774 -0.005514
v -0.000136 0.008756 -0.005497
v -0.000133 0.008757 -0.005497
v -0.000137 0.008774 -0.005514
v -0.000133 0.008757 -0.005497
v -0.000130 0.008757 -0.005496
v -0.000136 0.008775 -0.005514
v -0.000130 0.008757 -0.005496
v -0.000134 0.008775 -0.005514
v -0.000130 0.008757 -0.005496
v -0.000127 0.008758 -0.005496
v -0.000134 0.008775 -0.005514
v -0.000127 0.008758 -0.005496
v -0.000123 0.008759 -0.005495
v -0.000132 0.008776 -0.005514
v -0.000123 0.008759 -0.005495
v -0.000131 0.008776 -0.005514
v -0.000132 0.008776 -0.005514
v -0.000120 0.008760 -0.005494
v -0.000130 0.008777 -0.005514
v -0.000131 0.008776 -0.005514
v -0.000117 0.008761 -0.005494
v -0.000128 0.008778 -0.005514
v -0.000130 0.008777 -0.005514
v -0.000114 0.008762 -0.005493
v -0.000128 0.008778 -0.005514
v -0.000117 0.008761 -0.005494
v -0.000126 0.008780 -0.005514
v -0.000127 0.008779 -0.005514
v -0.000114 0.008762 -0.005493
v -0.000126 0.008780 -0.005514
v -0.000114 0.008762 -0.005493
v -0.000111 0.008763 -0.005492
v -0.000126 0.008780 -0.005514
v -0.000111 0.008763 -0.005492
v -0.000124 0.008781 -0.005514
v -0.000111 0.008763 -0.005492
v -0.000108 0.008764 -0.005491
v -0.000124 0.008781 -0.005514
v -0.000123 0.008782 -0.005514
v -0.000105 0.008766 -0.005490
v -0.000122 0.008784 -0.005514
v -0.000108 0.008764 -0.005491
v -0.000123 0.008782 -0.005514
v -0.000124 0.008781 -0.005514
v -0.000105 0.008766 -0.005490
v -0.000102 0.008767 -0.005489
v -0.000122 0.008784 -0.005514
v -0.000102 0.008767 -0.005489
v -0.000100 0.008769 -0.005488
v -0.000121 0.008785 -0.005514
v -0.000100 0.008769 -0.005488
v -0.000099 0.008770 -0.005488
v -0.000120 0.008786 -0.005514
v -0.000098 0.008770 -0.005487
v -0.000120 0.008786 -0.005514
v -0.000120 0.008786 -0.005514
v -0.000097 0.008771 -0.005487
v -0.000097 0.008772 -0.005487
v -0.000119 0.008787 -0.005514
v -0.000097 0.008772 -0.005487
v -0.000095 0.008775 -0.005487
v -0.000119 0.008787 -0.005514
v -0.000095 0.008775 -0.005487
v -0.000119 0.008789 -0.005514
v -0.000119 0.008789 -0.005514
v -0.000093 0.008779 -0.005487
v -0.000118 0.008790 -0.005514
v -0.000093 0.008779 -0.005487
v -0.000091 0.008783 -0.005487
v -0.000117 0.008792 -0.005514
v -0.000091 0.008783 -0.005487
v -0.000090 0.008787 -0.005487
v -0.000117 0.008793 -0.005514
v -0.000090 0.008787 -0.005487
v -0.000116 0.008795 -0.005514
v -0.000117 0.008793 -0.005514
v -0.000089 0.008791 -0.005487
v -0.000116 0.008797 -0.005514
v -0.000116 0.008795 -0.005514
v -0.000088 0.008795 -0.005487
v -0.000115 0.008798 -0.005514
v -0.000089 0.008791 -0.005487
v -0.000115 0.008800 -0.005514
v -0.000115 0.008798 -0.005514
v -0.000088 0.008795 -0.005487
v -0.000115 0.008801 -0.005514
v -0.000115 0.008800 -0.005514
v -0.000088 0.008799 -0.005487
v -0.000115 0.008803 -0.005514
v -0.000115 0.008801 -0.005514
v -0.000087 0.008803 -0.005487
v -0.000115 0.008805 -0.005514
v -0.000115 0.008803 -0.005514
v -0.000087 0.008803 -0.005487
v -0.000115 0.008805 -0.005514
v -0.000087 0.008803 -0.005487
v -0.000088 0.008807 -0.005487
v -0.000115 0.008805 -0.005514
v -0.000088 0.008807 -0.005487
v -0.000115 0.008806 -0.005514
v -0.000115 0.008806 -0.005514
v -0.000088 0.008811 -0.005487
v -0.000115 0.008808 -0.005514
v -0.000088 0.008811 -0.005487
v -0.000089 0.008815 -0.005487
v -0.000115 0.008808 -0.005514
v -0.000089 0.008815 -0.005487
v -0.000116 0.008811 -0.005514
v -0.000116 0.008809 -0.005514
v -0.000090 0.008819 -0.005487
v -0.000117 0.008813 -0.005514
v -0.000116 0.008811 -0.005514
v -0.000091 0.008823 -0.005487
v -0.000117 0.008814 -0.005514
v -0.000117 0.008813 -0.005514
v -0.000093 0.008827 -0.005487
v -0.000118 0.008816 -0.005514
v -0.000117 0.008814 -0.005514
v -0.000119 0.008817 -0.005514
v -0.000118 0.008816 -0.005514
v -0.000093 0.008827 -0.005487
v -0.000119 0.008819 -0.005514
v -0.000119 0.008817 -0.005514
v -0.000095 0.008831 -0.005487
v -0.000120 0.008820 -0.005514
v -0.000119 0.008819 -0.005514
v -0.000097 0.008834 -0.005487
v -0.000098 0.008836 -0.005487
v -0.000120 0.008820 -0.005514
v -0.000097 0.008835 -0.005487
v -0.000105 0.008840 -0.005490
v -0.000122 0.008822 -0.005514
v -0.000102 0.008839 -0.005489
v -0.000121 0.008821 -0.005514
v -0.000100 0.008837 -0.005488
v -0.000102 0.008839 -0.005489
v -0.000123 0.008824 -0.005514
v -0.000122 0.008822 -0.005514
v -0.000105 0.008840 -0.005490
v -0.000124 0.008825 -0.005514
v -0.000123 0.008824 -0.005514
v -0.000108 0.008842 -0.005491
v -0.000126 0.008826 -0.005514
v -0.000124 0.008825 -0.005514
v -0.000111 0.008843 -0.005492
v -0.000127 0.008827 -0.005514
v -0.000126 0.008826 -0.005514
v -0.000114 0.008844 -0.005493
v -0.000099 0.008836 -0.005488
v -0.000100 0.008837 -0.005488
v -0.000120 0.008820 -0.005514
v -0.000150 0.008850 -0.005497
v -0.000150 0.008833 -0.005514
v -0.000148 0.008833 -0.005514
v -0.000150 0.008850 -0.005497
v -0.000148 0.008833 -0.005514
v -0.000147 0.008833 -0.005514
v -0.000150 0.008850 -0.005497
v -0.000147 0.008833 -0.005514
v -0.000147 0.008850 -0.005497
v -0.000147 0.008833 -0.005514
v -0.000145 0.008833 -0.005514
v -0.000147 0.008850 -0.005497
v -0.000145 0.008833 -0.005514
v -0.000143 0.008850 -0.005497
v -0.000147 0.008850 -0.005497
v -0.000144 0.008833 -0.005514
v -0.000143 0.008850 -0.005497
v -0.000145 0.008833 -0.005514
v -0.000140 0.008850 -0.005497
v -0.000143 0.008850 -0.005497
v -0.000144 0.008833 -0.005514
v -0.000140 0.008850 -0.005497
v -0.000144 0.008833 -0.005514
v -0.000142 0.008833 -0.005514
v -0.000140 0.008850 -0.005497
v -0.000142 0.008833 -0.005514
v -0.000140 0.008833 -0.005514
v -0.000140 0.008850 -0.005497
v -0.000140 0.008833 -0.005514
v -0.000137 0.008850 -0.005497
v -0.000140 0.008833 -0.005514
v -0.000139 0.008832 -0.005514
v -0.000137 0.008850 -0.005497
v -0.000139 0.008832 -0.005514
v -0.000133 0.008849 -0.005497
v -0.000137 0.008850 -0.005497
v -0.000137 0.008832 -0.005514
v -0.000133 0.008849 -0.005497
v -0.000139 0.008832 -0.005514
v -0.000130 0.008849 -0.005496
v -0.000133 0.008849 -0.005497
v -0.000137 0.008832 -0.005514
v -0.000130 0.008849 -0.005496
v -0.000137 0.008832 -0.005514
v -0.000136 0.008831 -0.005514
v -0.000130 0.008849 -0.005496
v -0.000136 0.008831 -0.005514
v -0.000134 0.008831 -0.005514
v -0.000130 0.008849 -0.005496
v -0.000134 0.008831 -0.005514
v -0.000127 0.008848 -0.005496
v -0.000134 0.008831 -0.005514
v -0.000132 0.008830 -0.005514
v -0.000127 0.008848 -0.005496
v -0.000132 0.008830 -0.005514
v -0.000123 0.008847 -0.005495
v -0.000127 0.008848 -0.005496
v -0.000131 0.008830 -0.005514
v -0.000123 0.008847 -0.005495
v -0.000132 0.008830 -0.005514
v -0.000120 0.008846 -0.005494
v -0.000123 0.008847 -0.005495
v -0.000131 0.008830 -0.005514
v -0.000120 0.008846 -0.005494
v -0.000131 0.008830 -0.005514
v -0.000130 0.008829 -0.005514
v -0.000120 0.008846 -0.005494
v -0.000130 0.008829 -0.005514
v -0.000117 0.008845 -0.005494
v -0.000130 0.008829 -0.005514
v -0.000128 0.008828 -0.005514
v -0.000117 0.008845 -0.005494
v -0.000128 0.008828 -0.005514
v -0.000114 0.008844 -0.005493
v -0.000117 0.008845 -0.005494
v -0.000127 0.008827 -0.005514
v -0.000114 0.008844 -0.005493
v -0.000128 0.008828 -0.005514
v -0.000126 0.008826 -0.005514
v -0.000111 0.008843 -0.005492
v -0.000114 0.008844 -0.005493
v -0.000124 0.008825 -0.005514
v -0.000108 0.008842 -0.005491
v -0.000111 0.008843 -0.005492
v -0.000123 0.008824 -0.005514
v -0.000105 0.008840 -0.005490
v -0.000108 0.008842 -0.005491
v -0.000122 0.008822 -0.005514
v -0.000121 0.008821 -0.005514
v -0.000102 0.008839 -0.005489
v -0.000121 0.008821 -0.005514
v -0.000120 0.008820 -0.005514
v -0.000100 0.008837 -0.005488
v -0.000120 0.008820 -0.005514
v -0.000097 0.008834 -0.005487
v -0.000120 0.008820 -0.005514
v -0.000095 0.008831 -0.005487
v -0.000097 0.008834 -0.005487
v -0.000119 0.008819 -0.005514
v -0.000093 0.008827 -0.005487
v -0.000095 0.008831 -0.005487
v -0.000119 0.008817 -0.005514
v -0.000117 0.008814 -0.005514
v -0.000091 0.008823 -0.005487
v -0.000093 0.008827 -0.005487
v -0.000117 0.008813 -0.005514
v -0.000090 0.008819 -0.005487
v -0.000091 0.008823 -0.005487
v -0.000116 0.008811 -0.005514
v -0.000089 0.008815 -0.005487
v -0.000090 0.008819 -0.005487
v -0.000116 0.008809 -0.005514
v -0.000115 0.008808 -0.005514
v -0.000089 0.008815 -0.005487
v -0.000088 0.008811 -0.005487
v -0.000115 0.008806 -0.005514
v -0.000088 0.008807 -0.005487
v -0.000115 0.008801 -0.005514
v -0.000088 0.008799 -0.005487
v -0.000087 0.008803 -0.005487
v -0.000115 0.008800 -0.005514
v -0.000088 0.008795 -0.005487
v -0.000088 0.008799 -0.005487
v -0.000115 0.008798 -0.005514
v -0.000116 0.008797 -0.005514
v -0.000089 0.008791 -0.005487
v -0.000089 0.008791 -0.005487
v -0.000116 0.008795 -0.005514
v -0.000090 0.008787 -0.005487
v -0.000091 0.008783 -0.005487
v -0.000117 0.008793 -0.005514
v -0.000117 0.008792 -0.005514
v -0.000093 0.008779 -0.005487
v -0.000117 0.008792 -0.005514
v -0.000118 0.008790 -0.005514
v -0.000095 0.008775 -0.005487
v -0.000093 0.008779 -0.005487
v -0.000119 0.008789 -0.005514
v -0.000120 0.008786 -0.005514
v -0.000097 0.008772 -0.005487
v -0.000119 0.008787 -0.005514
v -0.000120 0.008786 -0.005514
v -0.000100 0.008769 -0.005488
v -0.000120 0.008786 -0.005514
v -0.000121 0.008785 -0.005514
v -0.000102 0.008767 -0.005489
v -0.000121 0.008785 -0.005514
v -0.000122 0.008784 -0.005514
v -0.000108 0.008764 -0.005491
v -0.000105 0.008766 -0.005490
v -0.000123 0.008782 -0.005514
v -0.000114 0.008762 -0.005493
v -0.000127 0.008779 -0.005514
v -0.000128 0.008778 -0.005514
v -0.000120 0.008760 -0.005494
v -0.000117 0.008761 -0.005494
v -0.000130 0.008777 -0.005514
v -0.000123 0.008759 -0.005495
v -0.000120 0.008760 -0.005494
v -0.000131 0.008776 -0.005514
v -0.000130 0.008757 -0.005496
v -0.000136 0.008775 -0.005514
v -0.000137 0.008774 -0.005514
v -0.000140 0.008773 -0.005514
v -0.000136 0.008756 -0.005497
v -0.000139 0.008774 -0.005514
v -0.000142 0.008773 -0.005514
v -0.000140 0.008756 -0.005497
v -0.000140 0.008773 -0.005514
v -0.000144 0.008773 -0.005514
v -0.000143 0.008756 -0.005497
v -0.000140 0.008756 -0.005497
v -0.000147 0.008756 -0.005497
v -0.000143 0.008756 -0.005497
v -0.000145 0.008773 -0.005514
v -0.000148 0.008773 -0.005514
v -0.000150 0.008773 -0.005514
v -0.000150 0.008756 -0.005497
v -0.000133 0.008757 -0.005497
v -0.000137 0.008774 -0.005514
v -0.000139 0.008774 -0.005514
v -0.000132 0.008776 -0.005514
v -0.000134 0.008775 -0.005514
v -0.000127 0.008758 -0.005496
v -0.000147 0.008773 -0.005514
v -0.000148 0.008773 -0.005514
v -0.000150 0.008756 -0.005497
v -0.000065 0.008835 -0.005487
v -0.000065 0.008835 -0.005487
v -0.000065 0.008836 -0.005487
v -0.000065 0.008836 -0.005487
v -0.000097 0.008835 -0.005487
v -0.000097 0.008835 -0.005487
v -0.000065 0.008836 -0.005487
v -0.000065 0.008836 -0.005487
v -0.000099 0.008836 -0.005488
v -0.000099 0.008836 -0.005488
v -0.000098 0.008836 -0.005487
v -0.000098 0.008836 -0.005487
v -0.000097 0.008835 -0.005487
v -0.000065 0.008836 -0.005487
v -0.000098 0.008836 -0.005487
v -0.000065 0.008836 -0.005487
v -0.000098 0.008770 -0.005487
v -0.000099 0.008770 -0.005488
v -0.000099 0.008770 -0.005488
v -0.000098 0.008770 -0.005487
v -0.000065 0.008770 -0.005487
v -0.000065 0.008771 -0.005487
v -0.000065 0.008771 -0.005487
v -0.000065 0.008770 -0.005487
v -0.000065 0.008770 -0.005487
v -0.000097 0.008771 -0.005487
v -0.000065 0.008770 -0.005487
v -0.000065 0.008770 -0.005487
v -0.000097 0.008771 -0.005487
v -0.000065 0.008770 -0.005487
v -0.000097 0.008771 -0.005487
v -0.000098 0.008770 -0.005487
vn -1.0000 -0.0000 -0.0000
vn -0.0000 -0.7940 0.6079
vn -0.0000 -0.7816 0.6238
vn -0.0000 -0.7739 0.6333
vn -0.0000 -0.7688 0.6395
vn -0.0000 -0.7815 0.6239
vn -0.0000 -0.7530 0.6580
vn -0.0000 -0.7558 0.6548
vn -0.0000 -0.7424 0.6699
vn -0.0000 -0.7557 0.6549
vn 0.0001 -0.7424 0.6700
vn -0.0000 -0.7313 0.6820
vn -0.0000 -0.7287 0.6848
vn -0.0000 -0.7147 0.6994
vn -0.0000 -0.7314 0.6820
vn -0.0000 -0.7424 0.6700
vn -0.0000 -0.7313 0.6821
vn -0.0000 -0.7089 0.7053
vn -0.0000 -0.7004 0.7138
vn -0.0000 -0.6857 0.7279
vn -0.0000 -0.7004 0.7137
vn -0.0000 -0.6859 0.7277
vn -0.0000 -0.6710 0.7414
vn -0.0000 -0.6618 0.7497
vn -0.0000 -0.6559 0.7548
vn -0.0000 -0.6372 0.7707
vn -0.0000 -0.6124 0.7905
vn -0.0000 -0.6119 0.7910
vn -0.0000 -0.6617 0.7497
vn -0.0000 -0.6371 0.7707
vn -0.0000 -0.6124 0.7906
vn -0.0000 -0.6406 0.7679
vn -0.0000 -0.6371 0.7708
vn -0.0000 -0.6118 0.7910
vn -0.0000 -0.6106 0.7919
vn -0.0001 -0.6090 0.7932
vn -0.0000 -0.6405 0.7679
vn -0.0001 -0.6249 0.7807
vn -0.0000 -0.6068 0.7948
vn -0.0000 -0.6010 0.7992
vn -0.0000 -0.6041 0.7969
vn -0.0000 -0.5599 0.8286
vn -0.0000 -0.5665 0.8240
vn 0.0002 -0.5764 0.8172
vn 0.0002 -0.5727 0.8198
vn -0.0000 -0.5785 0.8157
vn -0.0002 -0.5928 0.8053
vn -0.0000 -0.5840 0.8118
vn -0.0000 -0.5889 0.8082
vn -0.0000 -0.6091 0.7931
vn -0.0000 -0.5934 0.8049
vn -0.0000 -0.5974 0.8019
vn -0.0000 -0.6090 0.7932
vn -0.0000 -0.0000 1.0000
vn -0.0000 0.6372 0.7707
vn -0.0000 0.6124 0.7905
vn -0.0000 0.6118 0.7910
vn -0.0000 0.6107 0.7919
vn -0.0000 0.6090 0.7932
vn -0.0000 0.6859 0.7277
vn 0.0001 0.7004 0.7138
vn -0.0000 0.6857 0.7279
vn -0.0000 0.7286 0.6849
vn -0.0003 0.7313 0.6820
vn -0.0000 0.7147 0.6994
vn 0.0001 0.7424 0.6700
vn 0.0002 0.7530 0.6580
vn -0.0000 0.6119 0.7909
vn -0.0000 0.7940 0.6079
vn 0.0001 0.7816 0.6238
vn -0.0003 0.7739 0.6333
vn -0.0000 0.7687 0.6396
vn -0.0000 0.7558 0.6548
vn 0.0002 0.7089 0.7053
vn 0.0001 0.6711 0.7414
vn -0.0003 0.6617 0.7497
vn -0.0000 0.6559 0.7549
vn -0.0000 0.6068 0.7948
vn -0.0001 0.6405 0.7679
vn -0.0000 0.6042 0.7969
vn -0.0000 0.6249 0.7807
vn -0.0000 0.6011 0.7992
vn -0.0000 0.5974 0.8019
vn -0.0000 0.6091 0.7931
vn -0.0000 0.5888 0.8083
vn -0.0000 0.5839 0.8118
vn -0.0001 0.5928 0.8053
vn -0.0000 0.5599 0.8286
vn 0.0002 0.5764 0.8172
vn -0.0000 0.5598 0.8286
vn -0.0000 0.5665 0.8241
vn -0.0001 0.5726 0.8198
vn -0.0000 0.5785 0.8157
vn -0.0000 0.5933 0.8050
vn 1.0000 -0.0000 -0.0000
vn 1.0000 -0.0000 -0.0001
vn -0.0000 -0.0000 -1.0000
vn -0.0000 -1.0000 -0.0000
vn -0.0000 1.0000 -0.0000
vn -0.0002 -0.0000 -1.0000
vn -0.0001 -0.0000 -1.0000
vn 0.0001 -0.0000 -1.0000
vn -0.0003 -0.0000 -1.0000
vn 0.1129 -0.9936 -0.0000
vn 0.0588 -0.9983 -0.0000
vn 0.0587 -0.9983 -0.0000
vn 0.0045 -1.0000 -0.0000
vn -0.0498 -0.9988 -0.0000
vn -0.1039 -0.9946 -0.0000
vn -0.1578 -0.9875 -0.0000
vn -0.1040 -0.9946 -0.0000
vn -0.2112 -0.9774 -0.0000
vn -0.2639 -0.9646 -0.0000
vn -0.2111 -0.9775 -0.0000
vn -0.3159 -0.9488 -0.0000
vn -0.2640 -0.9645 -0.0000
vn -0.3160 -0.9488 -0.0000
vn -0.3670 -0.9302 -0.0000
vn -0.4170 -0.9089 -0.0000
vn -0.4657 -0.8850 -0.0000
vn -0.4656 -0.8850 -0.0000
vn -0.4657 -0.8849 -0.0000
vn -0.5130 -0.8584 -0.0000
vn -0.5588 -0.8293 -0.0000
vn -0.5589 -0.8292 -0.0000
vn -0.6031 -0.7976 -0.0000
vn -0.6031 -0.7977 -0.0000
vn -0.5590 -0.8292 -0.0000
vn -0.6455 -0.7638 -0.0000
vn -0.6860 -0.7276 -0.0000
vn -0.7245 -0.6893 -0.0000
vn -0.7609 -0.6489 -0.0000
vn -0.7245 -0.6892 -0.0000
vn -0.7949 -0.6067 -0.0000
vn -0.7950 -0.6066 -0.0000
vn -0.8267 -0.5627 -0.0000
vn -0.8267 -0.5626 -0.0000
vn -0.8560 -0.5170 -0.0000
vn -0.8561 -0.5169 -0.0000
vn -0.8828 -0.4697 -0.0000
vn -0.8829 -0.4696 -0.0000
vn -0.9070 -0.4210 -0.0000
vn -0.9070 -0.4211 -0.0000
vn -0.9286 -0.3712 -0.0000
vn -0.9071 -0.4210 -0.0000
vn -0.9474 -0.3202 -0.0000
vn -0.9286 -0.3711 -0.0000
vn -0.9633 -0.2683 -0.0000
vn -0.9473 -0.3202 -0.0000
vn -0.9633 -0.2684 -0.0000
vn -0.9765 -0.2156 -0.0000
vn -0.9634 -0.2682 -0.0000
vn -0.9765 -0.2155 -0.0000
vn -0.9765 -0.2155 0.0002
vn -0.9867 -0.1623 -0.0000
vn -0.9868 -0.1622 -0.0000
vn -0.9941 -0.1085 -0.0000
vn -0.9941 -0.1084 -0.0000
vn -0.9985 -0.0543 -0.0000
vn -0.9985 0.0543 -0.0000
vn -0.9941 0.1084 -0.0000
vn -0.9868 0.1622 -0.0000
vn -0.9941 0.1085 -0.0000
vn -0.9765 0.2155 -0.0000
vn -0.9867 0.1623 -0.0000
vn -0.9634 0.2682 -0.0000
vn -0.9765 0.2156 -0.0000
vn -0.9473 0.3202 -0.0000
vn -0.9633 0.2683 -0.0000
vn -0.9474 0.3202 -0.0000
vn -0.9286 0.3711 -0.0000
vn -0.9285 0.3712 -0.0000
vn -0.9071 0.4210 -0.0000
vn -0.9070 0.4210 -0.0000
vn -0.8829 0.4696 -0.0000
vn -0.8828 0.4697 -0.0000
vn -0.8561 0.5169 -0.0000
vn -0.8560 0.5169 -0.0000
vn -0.8267 0.5627 -0.0000
vn -0.8267 0.5626 -0.0000
vn -0.8560 0.5170 -0.0000
vn -0.7950 0.6066 -0.0000
vn -0.7609 0.6489 -0.0000
vn -0.7949 0.6067 -0.0000
vn -0.7245 0.6893 -0.0000
vn -0.6860 0.7276 -0.0000
vn -0.6455 0.7638 -0.0000
vn -0.6031 0.7977 -0.0000
vn 0.1129 0.9936 -0.0000
vn 0.0588 0.9983 -0.0000
vn 0.1666 0.9860 -0.0000
vn 0.0045 1.0000 -0.0000
vn 0.0587 0.9983 -0.0000
vn -0.0498 0.9988 -0.0000
vn -0.1039 0.9946 -0.0000
vn -0.1578 0.9875 -0.0000
vn -0.1040 0.9946 -0.0000
vn -0.2112 0.9774 -0.0000
vn -0.2111 0.9775 -0.0000
vn -0.2639 0.9646 -0.0000
vn -0.3159 0.9488 -0.0000
vn -0.2640 0.9645 -0.0000
vn -0.3160 0.9488 -0.0000
vn -0.3670 0.9302 -0.0000
vn -0.3669 0.9303 -0.0000
vn -0.3671 0.9302 -0.0000
vn -0.4170 0.9089 -0.0000
vn -0.4169 0.9089 -0.0000
vn -0.4657 0.8850 -0.0000
vn -0.4656 0.8850 -0.0000
vn -0.4657 0.8849 -0.0000
vn -0.5130 0.8584 -0.0000
vn -0.4658 0.8849 -0.0000
vn -0.5588 0.8293 -0.0000
vn -0.5590 0.8292 -0.0000
vn -0.6031 0.7976 -0.0000
vn -0.5589 0.8292 -0.0000
vn -0.9070 0.4211 -0.0000
vn -0.9633 0.2684 -0.0000
vn -0.9765 0.2155 -0.0002
vn -0.4658 -0.8849 -0.0000
vn -0.4169 -0.9089 -0.0000
vn -0.3669 -0.9303 -0.0000
vn 0.1666 -0.9860 -0.0000
vn 0.0238 0.7067 0.7071
vn 0.0032 0.7071 0.7071
vn 0.0415 0.7059 0.7071
vn 0.0239 0.7067 0.7071
vn 0.0416 0.7059 0.7071
vn 0.0748 0.7031 0.7071
vn -0.0269 0.7066 0.7071
vn -0.0352 0.7062 0.7071
vn -0.0735 0.7033 0.7071
vn -0.0773 0.7029 0.7071
vn -0.1116 0.6982 0.7071
vn -0.0773 0.7027 0.7073
vn -0.1269 0.6956 0.7071
vn -0.1493 0.6912 0.7071
vn -0.1752 0.6851 0.7071
vn -0.1866 0.6820 0.7071
vn -0.2220 0.6714 0.7071
vn -0.2234 0.6709 0.7071
vn -0.2219 0.6714 0.7071
vn -0.2594 0.6578 0.7071
vn -0.2669 0.6548 0.7071
vn -0.2595 0.6578 0.7071
vn -0.3098 0.6356 0.7071
vn -0.2948 0.6427 0.7071
vn -0.3293 0.6258 0.7071
vn -0.3505 0.6142 0.7071
vn -0.3628 0.6070 0.7071
vn -0.3886 0.5908 0.7071
vn -0.3955 0.5871 0.7063
vn -0.4244 0.5656 0.7071
vn -0.3952 0.5864 0.7071
vn -0.4564 0.5401 0.7071
vn -0.4264 0.5640 0.7071
vn -0.4243 0.5656 0.7071
vn -0.4576 0.5391 0.7071
vn -0.4851 0.5145 0.7071
vn -0.4883 0.5114 0.7071
vn -0.5123 0.4874 0.7071
vn -0.5165 0.4829 0.7071
vn -0.5380 0.4588 0.7071
vn -0.5423 0.4537 0.7071
vn -0.5380 0.4589 0.7071
vn -0.5424 0.4537 0.7071
vn -0.5658 0.4241 0.7071
vn -0.5621 0.4290 0.7071
vn -0.5729 0.4145 0.7071
vn -0.5846 0.3978 0.7071
vn -0.5800 0.4046 0.7071
vn -0.5871 0.3942 0.7070
vn -0.5942 0.3833 0.7071
vn -0.6053 0.3655 0.7071
vn -0.6201 0.3399 0.7071
vn -0.6201 0.3398 0.7071
vn -0.6243 0.3321 0.7070
vn -0.6243 0.3321 0.7071
vn -0.6428 0.2947 0.7071
vn -0.6414 0.2977 0.7071
vn -0.6428 0.2946 0.7071
vn -0.6622 0.2479 0.7071
vn -0.6566 0.2624 0.7071
vn -0.6623 0.2478 0.7071
vn -0.6783 0.1998 0.7071
vn -0.6699 0.2264 0.7071
vn -0.6812 0.1897 0.7071
vn -0.6908 0.1508 0.7071
vn -0.6905 0.1525 0.7071
vn -0.6999 0.1010 0.7071
vn -0.6977 0.1148 0.7071
vn -0.6909 0.1507 0.7071
vn -0.7029 0.0767 0.7071
vn -0.6977 0.1147 0.7071
vn -0.6999 0.1009 0.7071
vn -0.7061 0.0384 0.7071
vn -0.7029 0.0766 0.7071
vn -0.7053 0.0506 0.7071
vn -0.7071 -0.0000 0.7071
vn -0.7061 -0.0384 0.7071
vn -0.7053 -0.0506 0.7071
vn -0.7030 -0.0766 0.7071
vn -0.7029 -0.0766 0.7071
vn -0.6999 -0.1009 0.7071
vn -0.6978 -0.1146 0.7071
vn -0.6999 -0.1010 0.7071
vn -0.6909 -0.1507 0.7071
vn -0.6977 -0.1148 0.7071
vn -0.6908 -0.1508 0.7071
vn -0.6812 -0.1896 0.7071
vn -0.6905 -0.1524 0.7071
vn -0.6783 -0.1998 0.7071
vn -0.6699 -0.2264 0.7071
vn -0.6812 -0.1897 0.7071
vn -0.6623 -0.2478 0.7071
vn -0.6566 -0.2624 0.7071
vn -0.6428 -0.2946 0.7071
vn -0.6416 -0.2977 0.7069
vn -0.6243 -0.3321 0.7071
vn -0.6414 -0.2977 0.7071
vn -0.6054 -0.3655 0.7070
vn -0.6201 -0.3398 0.7071
vn -0.5846 -0.3978 0.7071
vn -0.6053 -0.3656 0.7071
vn -0.5942 -0.3834 0.7071
vn -0.5799 -0.4046 0.7071
vn -0.5870 -0.3942 0.7071
vn -0.5166 -0.4828 0.7071
vn -0.5380 -0.4588 0.7071
vn -0.5423 -0.4537 0.7071
vn -0.5621 -0.4290 0.7071
vn -0.5658 -0.4241 0.7071
vn -0.5424 -0.4536 0.7071
vn -0.5123 -0.4874 0.7071
vn -0.5166 -0.4829 0.7071
vn -0.4851 -0.5145 0.7071
vn -0.4883 -0.5114 0.7071
vn -0.4564 -0.5401 0.7071
vn -0.4850 -0.5145 0.7071
vn -0.4576 -0.5391 0.7071
vn -0.4262 -0.5638 0.7074
vn -0.4242 -0.5657 0.7071
vn -0.5729 -0.4145 0.7071
vn 0.0749 -0.7031 0.7071
vn 0.1179 -0.6972 0.7071
vn 0.0798 -0.7026 0.7071
vn 0.0748 -0.7031 0.7071
vn 0.0799 -0.7027 0.7070
vn 0.0415 -0.7059 0.7071
vn 0.0416 -0.7059 0.7071
vn 0.0242 -0.7069 0.7069
vn 0.0032 -0.7071 0.7071
vn 0.0242 -0.7067 0.7071
vn -0.0265 -0.7069 0.7069
vn -0.0352 -0.7062 0.7071
vn -0.0265 -0.7066 0.7071
vn -0.0768 -0.7029 0.7071
vn -0.0735 -0.7033 0.7071
vn -0.1116 -0.6982 0.7071
vn -0.1263 -0.6957 0.7071
vn -0.1493 -0.6912 0.7071
vn -0.1494 -0.6912 0.7071
vn -0.1746 -0.6852 0.7071
vn -0.1866 -0.6820 0.7071
vn -0.1492 -0.6912 0.7071
vn -0.2214 -0.6716 0.7071
vn -0.1867 -0.6820 0.7071
vn -0.2214 -0.6715 0.7072
vn -0.2234 -0.6709 0.7071
vn -0.2214 -0.6715 0.7071
vn -0.2233 -0.6709 0.7071
vn -0.2594 -0.6578 0.7071
vn -0.2595 -0.6578 0.7071
vn -0.2664 -0.6550 0.7071
vn -0.2948 -0.6427 0.7071
vn -0.2665 -0.6550 0.7071
vn -0.3094 -0.6358 0.7071
vn -0.3293 -0.6258 0.7071
vn -0.3093 -0.6358 0.7071
vn -0.3501 -0.6143 0.7071
vn -0.3293 -0.6257 0.7071
vn -0.3501 -0.6144 0.7071
vn -0.3628 -0.6070 0.7071
vn -0.3883 -0.5909 0.7071
vn -0.3952 -0.5864 0.7071
vn -0.3884 -0.5909 0.7071
vn -0.4243 -0.5657 0.7071
vn -0.4264 -0.5641 0.7071
vn -0.5381 -0.4590 0.7069
vn -0.5424 -0.4537 0.7071
vn -0.5622 -0.4290 0.7070
vn -0.5942 -0.3833 0.7071
vn -0.6201 -0.3399 0.7071
vn -0.6053 -0.3655 0.7071
vn -0.6622 -0.2479 0.7071
vn -0.7030 0.0766 0.7071
vn -0.6905 0.1524 0.7071
vn -0.6623 0.2477 0.7071
vn -0.6566 0.2623 0.7071
vn -0.6568 0.2625 0.7069
vn -0.5942 0.3834 0.7071
vn -0.6053 0.3656 0.7071
vn -0.5799 0.4047 0.7071
vn -0.5870 0.3942 0.7071
vn -0.5846 0.3979 0.7071
vn -0.5847 0.3979 0.7070
vn -0.5622 0.4291 0.7070
vn -0.4265 0.5640 0.7071
vn -0.3504 0.6142 0.7071
vn -0.3627 0.6070 0.7071
vn -0.2235 0.6709 0.7071
vn -0.1867 0.6820 0.7071
vn -0.0269 0.7067 0.7070
vn 0.0239 0.7069 0.7069
vn -0.0270 0.7066 0.7071
vn 0.0798 0.7026 0.7071
vn 0.1179 0.6972 0.7071
vn 0.0749 0.7031 0.7071
vn 0.0415 0.7060 0.7070
vn -0.0000 0.1480 0.9890
vn -0.0000 0.2928 0.9562
vn -0.0000 0.2927 0.9562
vn -0.0000 0.1690 0.9856
vn -0.0000 0.4310 0.9024
vn -0.0000 0.4459 0.8951
vn -0.0000 0.3165 0.9486
vn -0.0000 0.3164 0.9486
vn -0.0000 0.4311 0.9023
vn -0.0000 0.5599 0.8285
vn -0.0001 -0.3165 0.9486
vn -0.0001 -0.4459 0.8951
vn -0.0000 -0.4459 0.8951
vn -0.0000 -0.3164 0.9486
vn -0.0000 -0.5599 0.8285
vn -0.0000 -0.4311 0.9023
vn -0.0000 -0.1480 0.9890
vn 0.0001 -0.0000 1.0000
vn 0.0001 -0.2927 0.9562
vn -0.0000 -0.2927 0.9562
vn -0.0000 -0.1687 0.9857
vn -0.0000 -0.2928 0.9562
vn -0.0000 -0.1689 0.9856
vn -0.0000 -0.4310 0.9024
vn -0.0000 -0.3163 0.9487
s 1
usemtl Diffuse_51_51_51_100.029
f 1//1 2//1 3//1
f 1//1 3//1 4//1
f 3//1 5//1 4//1
f 5//1 6//1 4//1
f 4//1 7//1 8//1
f 4//1 8//1 9//1
f 8//1 10//1 9//1
f 9//1 10//1 11//1
f 7//1 4//1 6//1
f 9//1 11//1 12//1
f 13//2 14//2 15//3
f 16//4 17//2 15//3
f 18//5 19//4 15//6
f 18//5 20//7 21//4
f 22//7 18//5 23//8
f 24//9 25//7 23//10
f 24//11 26//12 27//7
f 28//13 29//14 30//15
f 24//16 28//13 31//17
f 32//12 29//14 33//18
f 34//18 29//14 35//19
f 36//20 37//18 35//21
f 38//22 39//20 35//21
f 38//22 40//23 41//20
f 42//20 40//23 43//24
f 44//24 40//23 45//25
f 46//26 47//27 48//28
f 49//26 50//29 45//25
f 47//27 51//30 52//31
f 53//32 54//33 45//25
f 55//34 56//26 57//35
f 57//35 58//33 59//36
f 53//37 60//38 61//39
f 60//38 62//40 63//41
f 64//42 65//43 66//44
f 66//44 67//42 64//42
f 68//45 66//44 65//43
f 68//45 69//46 66//44
f 66//44 69//46 70//47
f 70//47 69//46 71//48
f 72//49 70//47 71//48
f 72//49 73//50 70//47
f 72//49 74//51 73//50
f 73//50 74//51 75//52
f 62//40 73//50 75//52
f 62//40 60//38 73//50
f 63//41 61//39 60//38
f 61//39 59//53 53//37
f 53//37 59//53 76//26
f 77//26 55//34 52//31
f 78//54 79//54 80//54
f 81//54 82//54 80//54
f 83//54 81//54 80//54
f 84//54 83//54 80//54
f 85//54 84//54 80//54
f 86//54 85//54 80//54
f 87//54 86//54 80//54
f 88//54 87//54 80//54
f 79//54 88//54 80//54
f 89//54 79//54 78//54
f 78//54 90//54 89//54
f 78//54 91//54 90//54
f 78//54 92//54 91//54
f 78//54 93//54 92//54
f 94//54 78//54 95//54
f 94//54 96//54 78//54
f 78//54 96//54 93//54
f 97//55 98//56 99//56
f 100//57 97//55 99//56
f 100//57 101//58 97//55
f 97//55 101//58 102//59
f 103//60 104//61 105//62
f 106//63 107//64 108//65
f 109//66 110//67 107//64
f 111//68 98//56 97//55
f 112//69 113//70 114//69
f 112//69 115//71 113//70
f 113//70 115//71 116//72
f 116//72 115//71 110//67
f 117//73 116//72 110//67
f 109//66 117//73 110//67
f 107//64 118//74 108//65
f 108//65 118//74 104//61
f 104//61 118//74 105//62
f 119//75 105//62 120//76
f 120//76 97//55 121//77
f 102//59 122//78 123//79
f 122//78 124//80 125//81
f 126//82 127//83 128//84
f 129//85 130//86 131//87
f 132//88 133//89 134//90
f 134//90 133//89 135//91
f 135//91 133//89 136//92
f 136//92 133//89 137//93
f 137//93 133//89 131//87
f 130//86 137//93 131//87
f 129//85 131//87 128//84
f 138//94 129//85 128//84
f 126//82 125//81 124//80
f 126//82 128//84 125//81
f 125//81 123//79 122//78
f 123//79 97//55 102//59
f 123//79 121//77 97//55
f 121//77 119//75 120//76
f 105//62 119//75 103//60
f 109//66 107//64 106//63
f 138//94 128//84 127//83
f 139//1 140//1 141//1
f 139//1 142//1 143//1
f 139//1 144//1 145//1
f 139//1 146//1 147//1
f 141//1 148//1 149//1
f 141//1 150//1 151//1
f 141//1 152//1 153//1
f 154//1 155//1 156//1
f 141//1 157//1 158//1
f 155//1 141//1 159//1
f 160//95 161//95 162//95
f 163//95 164//95 165//95
s 0
f 166//95 167//95 168//95
f 167//95 169//95 170//95
f 169//54 171//95 172//96
s 1
f 173//95 174//95 175//95
f 176//95 177//95 178//95
f 179//95 180//95 181//95
f 182//95 183//95 184//95
f 185//95 186//95 187//95
f 188//95 189//95 190//95
f 191//95 192//95 193//95
f 194//95 195//95 196//95
f 197//95 198//95 199//95
f 200//95 201//95 202//95
f 203//95 204//95 205//95
f 206//95 207//95 208//95
f 209//95 210//95 211//95
f 212//95 213//95 214//95
f 215//95 216//95 217//95
f 218//95 219//95 220//95
f 216//95 221//95 222//95
f 223//95 224//95 216//95
f 225//95 226//95 227//95
f 228//95 229//95 227//95
f 230//95 231//95 227//95
f 232//95 233//95 227//95
f 234//95 235//95 227//95
f 236//95 237//95 227//95
f 238//95 239//95 227//95
f 227//95 240//95 216//95
f 241//95 242//95 216//95
f 243//95 244//95 216//95
f 245//95 246//95 216//95
f 247//95 227//95 248//95
f 249//95 250//95 251//95
f 252//95 253//95 216//95
f 254//95 255//95 256//95
s 0
f 257//95 258//95 259//97
s 1
f 260//95 261//95 259//95
s 0
f 262//95 263//95 257//95
s 1
f 264//95 265//95 266//95
f 267//98 268//98 269//98
f 270//98 271//98 272//98
f 273//99 274//99 275//99
f 276//99 277//99 278//99
f 279//100 280//100 281//100
f 282//101 283//101 284//101
f 285//97 286//97 287//97
f 288//97 289//97 285//97
f 290//97 291//97 289//97
f 292//97 293//97 291//97
f 294//97 295//97 293//97
f 296//97 297//97 295//97
f 298//97 299//97 297//97
f 300//97 301//97 299//97
f 302//102 303//102 301//102
f 304//97 305//97 303//97
f 306//100 307//100 305//100
f 308//97 309//97 307//97
f 310//97 311//97 309//97
f 309//97 312//97 313//97
f 313//100 314//100 315//100
f 315//97 316//97 317//97
f 317//97 318//97 319//97
f 319//97 320//101 321//101
f 321//97 322//97 323//97
f 323//97 324//97 325//97
f 325//97 326//97 327//97
f 327//102 328//102 329//102
f 329//97 330//97 331//97
f 332//97 333//97 334//97
f 335//100 333//100 336//100
f 337//97 332//97 338//97
f 339//97 337//97 340//97
f 341//97 339//97 342//97
f 343//97 341//97 344//97
f 345//97 343//97 346//97
f 347//97 345//97 348//97
f 284//97 347//97 349//97
f 350//97 351//97 284//97
f 352//102 353//102 283//102
f 354//101 355//101 353//101
f 356//100 357//100 355//100
f 358//102 359//102 357//102
f 360//100 361//100 359//100
f 362//101 363//101 364//101
f 362//97 365//97 366//97
f 364//97 367//97 368//97
f 368//97 369//97 370//97
f 370//97 371//97 372//97
f 372//97 373//97 374//97
f 374//103 375//103 376//103
f 376//102 377//102 378//102
f 378//97 379//97 380//97
f 380//97 381//97 382//97
f 382//97 383//97 384//97
f 384//97 385//97 386//97
f 386//97 387//97 388//97
f 388//97 389//97 390//97
f 391//97 281//97 388//97
f 392//97 280//97 393//97
f 394//97 392//97 395//97
f 396//97 394//97 397//97
f 398//102 399//102 396//102
f 400//97 401//97 399//97
f 402//97 403//97 401//97
f 404//97 405//97 403//97
f 406//97 407//97 405//97
f 331//97 408//97 336//97
f 409//97 410//97 407//97
f 411//102 365//102 361//102
f 410//97 412//97 413//97
f 414//104 415//105 416//104
f 417//106 418//107 419//106
f 420//107 421//107 419//106
f 422//108 423//108 421//107
f 424//109 425//109 423//108
f 426//110 427//110 425//111
f 428//112 427//110 429//110
f 430//113 431//114 432//114
f 433//113 431//114 434//113
f 435//115 433//116 436//115
f 435//117 437//117 438//118
f 439//118 440//118 441//119
f 442//119 443//119 444//120
f 442//119 445//121 446//121
f 446//122 447//123 448//123
f 449//123 450//124 448//123
f 451//125 452//126 453//125
f 454//127 455//127 453//128
f 456//129 457//129 455//127
f 458//130 457//129 459//129
f 460//131 461//130 462//130
f 463//131 461//130 464//131
f 465//132 463//133 466//132
f 465//132 467//132 468//134
f 469//135 470//135 471//136
f 469//135 472//137 473//137
f 473//136 474//138 475//138
f 476//139 477//140 475//139
f 478//141 479//142 480//141
f 481//143 482//143 480//141
f 483//144 484//144 482//145
f 485//146 484//147 486//147
f 487//148 488//149 489//149
f 490//150 488//149 491//150
f 492//151 490//152 493//151
f 492//153 494//154 495//155
f 496//156 497//156 498//157
f 496//156 499//157 500//157
f 500//158 501//159 502//159
f 503//159 504//1 502//159
f 505//1 506//160 507//1
f 508//160 509//160 507//1
f 510//161 511//161 509//160
f 512//162 511//163 513//163
f 514//164 515//165 516//165
f 517//166 518//167 519//167
f 520//166 518//167 521//166
f 522//168 520//169 523//168
f 522//170 524//170 525//171
f 526//172 527//172 528//173
f 526//172 529//173 530//173
f 530//174 531//175 532//175
f 533//176 534//177 532//176
f 535//178 536//179 537//178
f 538//180 539//180 537//181
f 540//182 541//182 539//179
f 542//183 541//184 543//184
f 544//185 545//183 546//183
f 547//185 545//183 548//185
f 549//186 547//185 550//186
f 549//186 551//186 552//187
f 553//187 554//187 555//188
f 553//187 556//188 557//188
f 558//189 559//190 560//189
f 561//191 562//191 558//189
f 563//191 558//189 564//189
f 559//190 565//190 566//189
f 567//192 568//193 559//193
f 569//192 570//193 567//192
f 571//192 567//192 572//194
f 573//192 572//194 574//194
f 572//194 575//195 576//194
f 575//195 577//195 578//194
f 579//196 580//197 575//197
f 581//196 582//197 579//196
f 583//196 579//196 584//198
f 585//196 584//198 586//198
f 584//199 587//200 588//199
f 587//200 589//200 590//199
f 591//201 592//202 587//202
f 593//201 594//202 591//201
f 595//203 591//203 596//204
f 597//203 596//205 598//205
f 596//206 599//207 600//206
f 599//208 601//208 602//206
f 603//209 604//207 599//207
f 605//210 606//207 603//210
f 607//211 603//211 608//212
f 609//213 608//212 610//212
f 608//212 611//214 612//212
f 611//214 613//214 614//212
f 557//188 615//215 611//215
f 616//216 617//217 557//216
f 549//186 618//187 553//187
f 547//185 619//185 620//186
f 545//183 541//184 621//183
f 622//182 539//180 623//180
f 624//177 537//177 532//176
f 625//218 626//175 530//218
f 522//170 627//171 526//171
f 520//219 628//219 629//168
f 518//220 515//165 630//164
f 515//162 511//163 631//162
f 632//161 509//160 633//160
f 634//1 507//1 502//159
f 635//158 636//159 500//158
f 492//153 637//155 496//155
f 490//152 638//152 639//151
f 488//146 484//147 640//146
f 641//144 482//145 642//145
f 643//140 480//140 475//139
f 644//136 645//138 473//136
f 465//132 646//134 469//134
f 463//131 647//131 648//132
f 461//130 457//129 649//130
f 650//129 455//127 651//127
f 652//124 453//124 448//123
f 653//221 654//123 446//221
f 439//118 655//222 442//222
f 435//117 656//223 439//223
f 433//116 657//116 658//115
f 659//111 660//110 425//111
f 421//107 661//107 662//108
f 416//104 663//224 664//104
f 416//104 665//224 666//224
f 667//112 431//112 427//110
f 423//108 668//108 669//109
f 419//105 416//104 670//105
f 671//225 672//226 673//227
f 674//228 675//229 676//230
f 677//231 678//232 679//226
f 680//233 681//232 682//234
f 683//235 684//236 685//237
f 686//238 687//237 688//239
f 689//240 690//239 691//241
f 692//242 693//243 694//244
f 695//241 696//245 697//246
f 698//245 699//247 700//248
f 701//247 702//249 703//248
f 704//250 705//251 706//249
f 707//252 708//253 709//251
f 710//254 711//255 712//252
f 713//256 714//257 715//258
f 716//256 717//254 718//259
f 719//256 720//259 721//260
f 722//259 723//261 724//260
f 725//262 726//263 727//264
f 728//261 729//262 730//260
f 731//263 732//265 733//266
f 734//267 735//268 736//269
f 737//268 738//270 739//271
f 738//270 740//272 741//271
f 742//271 743//273 744//274
f 745//275 746//274 747//276
f 748//275 749//277 750//278
f 751//279 752//280 753//281
f 754//282 755//283 756//284
f 757//285 758//286 759//287
f 760//286 761//288 762//287
f 763//289 764//290 765//288
f 766//291 767//292 768//293
f 769//294 770//295 771//296
f 772//297 773//298 774//299
f 775//300 776//297 777//300
f 778//301 779//300 780//300
f 781//301 782//300 783//302
f 784//301 785//302 786//303
f 787//304 788//305 789//306
f 790//307 791//308 792//309
f 793//310 794//311 795//312
f 796//313 797//314 798//315
f 799//316 800//317 801//314
f 802//318 803//319 804//317
f 805//320 806//321 807//318
f 808//322 809//320 810//323
f 811//324 812//325 813//326
f 814//327 815//324 816//328
f 817//329 818//330 819//331
f 820//332 821//333 822//334
f 823//335 824//330 825//336
f 826//337 827//335 828//338
f 829//339 830//340 831//341
f 832//342 833//339 834//343
f 835//344 836//333 837//324
f 838//345 839//346 840//347
f 841//348 842//349 843//350
f 844//348 845//351 846//352
f 847//350 848//353 849//354
f 850//353 851//355 852//354
f 853//356 854//357 855//353
f 856//358 857//357 858//356
f 859//358 860//356 861//359
f 862//358 863//359 864//360
f 865//358 866//360 867//361
f 868//360 869//362 870//361
f 871//363 872//364 873//361
f 874//365 875//364 876//366
f 877//367 878//364 879//368
f 880//369 881//368 882//370
f 883//371 884//372 885//373
f 886//371 887//374 888//375
f 889//374 890//376 891//377
f 892//376 893//378 894//377
f 895//379 896//380 897//376
f 898//381 899//378 900//382
f 901//383 902//379 903//384
f 904//381 905//384 906//385
f 907//384 908//386 909//387
f 910//386 911//388 912//387
f 913//389 914//343 915//386
f 916//339 917//341 918//343
f 919//337 920//338 921//341
f 922//335 923//336 924//338
f 925//390 926//332 927//391
f 928//392 929//324 930//333
f 931//324 814//327 835//344
f 932//393 816//328 933//324
f 934//394 935//393 936//395
f 937//318 938//323 939//320
f 940//317 941//396 942//318
f 943//314 944//313 945//316
f 946//315 947//310 948//313
f 949//312 950//309 951//310
f 952//305 953//303 954//302
f 955//297 956//299 957//300
f 958//397 959//296 960//299
f 961//292 962//398 963//289
f 964//289 965//288 966//286
f 967//399 968//287 969//400
f 970//282 971//401 972//281
f 973//277 974//282 975//279
f 976//271 977//402 978//403
f 740//404 743//405 979//406
f 980//268 981//407 982//269
f 983//267 984//408 985//266
f 986//261 987//263 988//262
f 989//258 990//409 991//255
f 992//410 993//252 994//411
f 995//247 996//410 997//249
f 998//241 999//412 1000//413
f 1001//235 1002//237 1003//238
f 1004//233 1005//234 1006//235
f 1007//232 1008//414 1009//234
f 1010//415 1011//416 1012//226
f 1013//417 1014//418 1015//419
f 1016//239 1017//240 1018//238
f 1019//248 1020//246 1021//245
f 1022//420 1023//417 1024//230
f 95//54 78//54 1025//421
f 1026//421 1027//422 95//54
f 95//54 1028//423 1029//424
s 0
f 1030//424 1031//54 1032//425
s 1
f 1033//426 132//88 134//90
f 1034//426 1035//427 132//88
f 1036//428 1037//424 1038//425
f 1039//427 1040//429 132//430
f 67//42 1041//431 1042//432
f 64//42 67//42 1043//433
f 1044//434 67//435 1045//436
f 80//54 82//54 1046//437
f 1047//437 82//438 1048//439
f 1049//440 82//54 1050//441
s 0
f 1051//54 1052//442 1053//443
s 1
f 1054//444 1055//443 1056//445
