# Blender 4.4.3
# www.blender.org
mtllib Mesh_20.017.mtl
o Mesh_20.017
v -0.000150 0.008710 -0.003952
v -0.000150 0.008710 -0.003943
v -0.000150 0.008716 -0.003937
v -0.000150 0.008773 -0.003952
v -0.000150 0.008721 -0.003930
v -0.000150 0.008726 -0.003924
v -0.000150 0.008732 -0.003919
v -0.000150 0.008738 -0.003913
v -0.000150 0.008773 -0.003914
v -0.000150 0.008744 -0.003908
v -0.000150 0.008750 -0.003902
v -0.000150 0.008756 -0.003897
v -0.000150 0.008710 -0.003943
v -0.000065 0.008710 -0.003943
v -0.000065 0.008714 -0.003939
v -0.000150 0.008716 -0.003937
v -0.000150 0.008710 -0.003943
v -0.000065 0.008717 -0.003935
v -0.000150 0.008716 -0.003937
v -0.000150 0.008721 -0.003930
v -0.000150 0.008716 -0.003937
v -0.000150 0.008721 -0.003930
v -0.000065 0.008720 -0.003931
v -0.000065 0.008723 -0.003927
v -0.000150 0.008721 -0.003930
v -0.000150 0.008726 -0.003924
v -0.000150 0.008721 -0.003930
v -0.000065 0.008727 -0.003924
v -0.000065 0.008730 -0.003920
v -0.000150 0.008726 -0.003924
v -0.000150 0.008726 -0.003924
v -0.000150 0.008726 -0.003924
v -0.000150 0.008732 -0.003919
v -0.000150 0.008732 -0.003919
v -0.000065 0.008734 -0.003917
v -0.000150 0.008738 -0.003913
v -0.000150 0.008732 -0.003919
v -0.000065 0.008738 -0.003913
v -0.000150 0.008738 -0.003913
v -0.000065 0.008741 -0.003910
v -0.000150 0.008738 -0.003913
v -0.000150 0.008738 -0.003913
v -0.000150 0.008744 -0.003908
v -0.000150 0.008744 -0.003908
v -0.000065 0.008745 -0.003906
v -0.000150 0.008750 -0.003902
v -0.000147 0.008756 -0.003897
v -0.000150 0.008756 -0.003897
v -0.000150 0.008750 -0.003902
v -0.000150 0.008744 -0.003908
v -0.000150 0.008750 -0.003902
v -0.000143 0.008756 -0.003897
v -0.000065 0.008749 -0.003903
v -0.000150 0.008750 -0.003902
v -0.000140 0.008756 -0.003897
v -0.000150 0.008750 -0.003902
v -0.000136 0.008756 -0.003897
v -0.000150 0.008750 -0.003902
v -0.000133 0.008757 -0.003897
v -0.000065 0.008753 -0.003900
v -0.000130 0.008757 -0.003896
v -0.000123 0.008759 -0.003895
v -0.000127 0.008758 -0.003896
v -0.000100 0.008769 -0.003888
v -0.000102 0.008767 -0.003889
v -0.000065 0.008765 -0.003891
v -0.000065 0.008769 -0.003888
v -0.000105 0.008766 -0.003890
v -0.000108 0.008764 -0.003891
v -0.000065 0.008761 -0.003894
v -0.000111 0.008763 -0.003892
v -0.000114 0.008762 -0.003893
v -0.000065 0.008757 -0.003897
v -0.000117 0.008761 -0.003894
v -0.000120 0.008760 -0.003894
v -0.000150 0.008750 -0.003902
v -0.000150 0.008750 -0.003902
v -0.000065 0.008834 -0.003887
v -0.000087 0.008803 -0.003887
v -0.000065 0.008772 -0.003887
v -0.000095 0.008775 -0.003887
v -0.000097 0.008772 -0.003887
v -0.000093 0.008779 -0.003887
v -0.000091 0.008783 -0.003887
v -0.000090 0.008787 -0.003887
v -0.000089 0.008791 -0.003887
v -0.000088 0.008795 -0.003887
v -0.000088 0.008799 -0.003887
v -0.000088 0.008807 -0.003887
v -0.000088 0.008811 -0.003887
v -0.000089 0.008815 -0.003887
v -0.000090 0.008819 -0.003887
v -0.000091 0.008823 -0.003887
v -0.000095 0.008831 -0.003887
v -0.000097 0.008834 -0.003887
v -0.000093 0.008827 -0.003887
v -0.000150 0.008856 -0.003902
v -0.000147 0.008850 -0.003897
v -0.000143 0.008850 -0.003897
v -0.000140 0.008850 -0.003897
v -0.000137 0.008850 -0.003897
v -0.000133 0.008849 -0.003897
v -0.000065 0.008868 -0.003913
v -0.000065 0.008872 -0.003917
v -0.000150 0.008868 -0.003913
v -0.000065 0.008879 -0.003924
v -0.000150 0.008880 -0.003924
v -0.000065 0.008876 -0.003920
v -0.000065 0.008883 -0.003927
v -0.000150 0.008885 -0.003930
v -0.000150 0.008850 -0.003897
v -0.000150 0.008895 -0.003943
v -0.000065 0.008892 -0.003939
v -0.000065 0.008895 -0.003943
v -0.000150 0.008890 -0.003937
v -0.000065 0.008889 -0.003935
v -0.000065 0.008886 -0.003931
v -0.000150 0.008874 -0.003919
v -0.000065 0.008865 -0.003910
v -0.000150 0.008862 -0.003908
v -0.000065 0.008861 -0.003906
v -0.000130 0.008849 -0.003896
v -0.000065 0.008857 -0.003903
v -0.000127 0.008848 -0.003896
v -0.000065 0.008853 -0.003900
v -0.000123 0.008847 -0.003895
v -0.000120 0.008846 -0.003894
v -0.000065 0.008849 -0.003897
v -0.000114 0.008844 -0.003893
v -0.000111 0.008843 -0.003892
v -0.000065 0.008845 -0.003894
v -0.000065 0.008837 -0.003888
v -0.000065 0.008841 -0.003891
v -0.000100 0.008837 -0.003888
v -0.000102 0.008839 -0.003889
v -0.000105 0.008840 -0.003890
v -0.000108 0.008842 -0.003891
v -0.000117 0.008845 -0.003894
v -0.000150 0.008833 -0.003914
v -0.000150 0.008868 -0.003913
v -0.000150 0.008833 -0.003952
v -0.000150 0.008850 -0.003897
v -0.000150 0.008856 -0.003902
v -0.000150 0.008856 -0.003902
v -0.000150 0.008862 -0.003908
v -0.000150 0.008862 -0.003908
v -0.000150 0.008868 -0.003913
v -0.000150 0.008868 -0.003913
v -0.000150 0.008874 -0.003919
v -0.000150 0.008874 -0.003919
v -0.000150 0.008880 -0.003924
v -0.000150 0.008880 -0.003924
v -0.000150 0.008885 -0.003930
v -0.000150 0.008895 -0.003943
v -0.000150 0.008895 -0.003952
v -0.000150 0.008890 -0.003937
v -0.000150 0.008885 -0.003930
v -0.000150 0.008890 -0.003937
v -0.000150 0.008890 -0.003937
v -0.000065 0.008845 -0.003894
v -0.000065 0.008834 -0.003887
v -0.000065 0.008772 -0.003887
v -0.000065 0.008761 -0.003894
v -0.000065 0.008772 -0.003887
v -0.000065 0.008765 -0.003891
v -0.000065 0.008772 -0.003887
v -0.000065 0.008771 -0.003887
v -0.000065 0.008769 -0.003888
v -0.000065 0.008770 -0.003887
v -0.000065 0.008769 -0.003888
v -0.000065 0.008770 -0.003887
v -0.000065 0.008769 -0.003888
v -0.000065 0.008772 -0.003887
v -0.000065 0.008769 -0.003888
v -0.000065 0.008765 -0.003891
v -0.000065 0.008845 -0.003894
v -0.000065 0.008772 -0.003887
v -0.000065 0.008761 -0.003894
v -0.000065 0.008845 -0.003894
v -0.000065 0.008761 -0.003894
v -0.000065 0.008849 -0.003897
v -0.000065 0.008761 -0.003894
v -0.000065 0.008757 -0.003897
v -0.000065 0.008849 -0.003897
v -0.000065 0.008757 -0.003897
v -0.000065 0.008853 -0.003900
v -0.000065 0.008849 -0.003897
v -0.000065 0.008753 -0.003900
v -0.000065 0.008853 -0.003900
v -0.000065 0.008757 -0.003897
v -0.000065 0.008857 -0.003903
v -0.000065 0.008853 -0.003900
v -0.000065 0.008753 -0.003900
v -0.000065 0.008857 -0.003903
v -0.000065 0.008753 -0.003900
v -0.000065 0.008749 -0.003903
v -0.000065 0.008857 -0.003903
v -0.000065 0.008749 -0.003903
v -0.000065 0.008861 -0.003906
v -0.000065 0.008749 -0.003903
v -0.000065 0.008745 -0.003906
v -0.000065 0.008861 -0.003906
v -0.000065 0.008745 -0.003906
v -0.000065 0.008865 -0.003910
v -0.000065 0.008861 -0.003906
v -0.000065 0.008741 -0.003910
v -0.000065 0.008865 -0.003910
v -0.000065 0.008745 -0.003906
v -0.000065 0.008868 -0.003913
v -0.000065 0.008865 -0.003910
v -0.000065 0.008741 -0.003910
v -0.000065 0.008868 -0.003913
v -0.000065 0.008741 -0.003910
v -0.000065 0.008738 -0.003913
v -0.000065 0.008710 -0.003943
v -0.000065 0.008710 -0.003952
v -0.000065 0.008714 -0.003939
v -0.000065 0.008868 -0.003913
v -0.000065 0.008738 -0.003913
v -0.000065 0.008872 -0.003917
v -0.000065 0.008720 -0.003931
v -0.000065 0.008717 -0.003935
v -0.000065 0.008734 -0.003917
v -0.000065 0.008730 -0.003920
v -0.000065 0.008895 -0.003943
v -0.000065 0.008892 -0.003939
v -0.000065 0.008895 -0.003952
v -0.000065 0.008892 -0.003939
v -0.000065 0.008889 -0.003935
v -0.000065 0.008889 -0.003935
v -0.000065 0.008886 -0.003931
v -0.000065 0.008886 -0.003931
v -0.000065 0.008883 -0.003927
v -0.000065 0.008883 -0.003927
v -0.000065 0.008879 -0.003924
v -0.000065 0.008879 -0.003924
v -0.000065 0.008876 -0.003920
v -0.000065 0.008876 -0.003920
v -0.000065 0.008872 -0.003917
v -0.000065 0.008734 -0.003917
v -0.000065 0.008730 -0.003920
v -0.000065 0.008727 -0.003924
v -0.000065 0.008727 -0.003924
v -0.000065 0.008723 -0.003927
v -0.000065 0.008723 -0.003927
v -0.000065 0.008720 -0.003931
v -0.000065 0.008734 -0.003917
v -0.000065 0.008872 -0.003917
v -0.000065 0.008872 -0.003917
v -0.000065 0.008738 -0.003913
v -0.000065 0.008734 -0.003917
v -0.000065 0.008717 -0.003935
v -0.000065 0.008714 -0.003939
v -0.000065 0.008845 -0.003894
v -0.000065 0.008841 -0.003891
v -0.000065 0.008834 -0.003887
v -0.000065 0.008836 -0.003887
v -0.000065 0.008834 -0.003887
v -0.000065 0.008836 -0.003887
v -0.000065 0.008834 -0.003887
v -0.000065 0.008837 -0.003888
v -0.000065 0.008835 -0.003887
v -0.000065 0.008834 -0.003887
v -0.000065 0.008837 -0.003888
v -0.000065 0.008834 -0.003887
v -0.000065 0.008841 -0.003891
v -0.000065 0.008710 -0.003952
v -0.000065 0.008710 -0.003943
v -0.000150 0.008710 -0.003952
v -0.000065 0.008710 -0.003943
v -0.000150 0.008710 -0.003943
v -0.000150 0.008710 -0.003952
v -0.000150 0.008895 -0.003952
v -0.000150 0.008895 -0.003943
v -0.000065 0.008895 -0.003952
v -0.000150 0.008895 -0.003943
v -0.000065 0.008895 -0.003943
v -0.000065 0.008895 -0.003952
v -0.000150 0.008710 -0.003952
v -0.000134 0.008775 -0.003952
v -0.000132 0.008776 -0.003952
v -0.000065 0.008710 -0.003952
v -0.000115 0.008801 -0.003952
v -0.000115 0.008803 -0.003952
v -0.000148 0.008833 -0.003952
v -0.000150 0.008833 -0.003952
v -0.000150 0.008895 -0.003952
v -0.000150 0.008895 -0.003952
v -0.000147 0.008833 -0.003952
v -0.000150 0.008895 -0.003952
v -0.000145 0.008833 -0.003952
v -0.000150 0.008895 -0.003952
v -0.000144 0.008833 -0.003952
v -0.000150 0.008895 -0.003952
v -0.000142 0.008833 -0.003952
v -0.000150 0.008895 -0.003952
v -0.000140 0.008833 -0.003952
v -0.000150 0.008895 -0.003952
v -0.000139 0.008832 -0.003952
v -0.000150 0.008895 -0.003952
v -0.000137 0.008832 -0.003952
v -0.000150 0.008895 -0.003952
v -0.000136 0.008831 -0.003952
v -0.000150 0.008895 -0.003952
v -0.000134 0.008831 -0.003952
v -0.000150 0.008895 -0.003952
v -0.000132 0.008830 -0.003952
v -0.000150 0.008895 -0.003952
v -0.000131 0.008830 -0.003952
v -0.000150 0.008895 -0.003952
v -0.000065 0.008895 -0.003952
v -0.000065 0.008895 -0.003952
v -0.000130 0.008829 -0.003952
v -0.000065 0.008895 -0.003952
v -0.000128 0.008828 -0.003952
v -0.000065 0.008895 -0.003952
v -0.000127 0.008827 -0.003952
v -0.000065 0.008895 -0.003952
v -0.000126 0.008826 -0.003952
v -0.000065 0.008895 -0.003952
v -0.000124 0.008825 -0.003952
v -0.000065 0.008895 -0.003952
v -0.000123 0.008824 -0.003952
v -0.000065 0.008895 -0.003952
v -0.000122 0.008822 -0.003952
v -0.000065 0.008895 -0.003952
v -0.000121 0.008821 -0.003952
v -0.000065 0.008895 -0.003952
v -0.000120 0.008820 -0.003952
v -0.000065 0.008895 -0.003952
v -0.000119 0.008819 -0.003952
v -0.000117 0.008814 -0.003952
v -0.000118 0.008816 -0.003952
v -0.000065 0.008895 -0.003952
v -0.000065 0.008895 -0.003952
v -0.000119 0.008817 -0.003952
v -0.000117 0.008813 -0.003952
v -0.000065 0.008895 -0.003952
v -0.000116 0.008811 -0.003952
v -0.000065 0.008895 -0.003952
v -0.000116 0.008809 -0.003952
v -0.000065 0.008895 -0.003952
v -0.000115 0.008808 -0.003952
v -0.000065 0.008895 -0.003952
v -0.000115 0.008806 -0.003952
v -0.000065 0.008895 -0.003952
v -0.000115 0.008805 -0.003952
v -0.000065 0.008895 -0.003952
v -0.000065 0.008895 -0.003952
v -0.000065 0.008895 -0.003952
v -0.000065 0.008710 -0.003952
v -0.000065 0.008710 -0.003952
v -0.000115 0.008800 -0.003952
v -0.000065 0.008710 -0.003952
v -0.000115 0.008798 -0.003952
v -0.000065 0.008710 -0.003952
v -0.000116 0.008797 -0.003952
v -0.000065 0.008710 -0.003952
v -0.000116 0.008795 -0.003952
v -0.000065 0.008710 -0.003952
v -0.000117 0.008793 -0.003952
v -0.000118 0.008790 -0.003952
v -0.000065 0.008710 -0.003952
v -0.000119 0.008789 -0.003952
v -0.000117 0.008792 -0.003952
v -0.000065 0.008710 -0.003952
v -0.000065 0.008710 -0.003952
v -0.000119 0.008787 -0.003952
v -0.000065 0.008710 -0.003952
v -0.000120 0.008786 -0.003952
v -0.000065 0.008710 -0.003952
v -0.000121 0.008785 -0.003952
v -0.000065 0.008710 -0.003952
v -0.000122 0.008784 -0.003952
v -0.000065 0.008710 -0.003952
v -0.000123 0.008782 -0.003952
v -0.000065 0.008710 -0.003952
v -0.000124 0.008781 -0.003952
v -0.000065 0.008710 -0.003952
v -0.000126 0.008780 -0.003952
v -0.000065 0.008710 -0.003952
v -0.000127 0.008779 -0.003952
v -0.000065 0.008710 -0.003952
v -0.000128 0.008778 -0.003952
v -0.000065 0.008710 -0.003952
v -0.000130 0.008777 -0.003952
v -0.000065 0.008710 -0.003952
v -0.000131 0.008776 -0.003952
v -0.000065 0.008710 -0.003952
v -0.000150 0.008710 -0.003952
v -0.000150 0.008710 -0.003952
v -0.000136 0.008775 -0.003952
v -0.000150 0.008710 -0.003952
v -0.000137 0.008774 -0.003952
v -0.000150 0.008710 -0.003952
v -0.000139 0.008774 -0.003952
v -0.000150 0.008710 -0.003952
v -0.000150 0.008710 -0.003952
v -0.000140 0.008773 -0.003952
v -0.000150 0.008710 -0.003952
v -0.000142 0.008773 -0.003952
v -0.000150 0.008710 -0.003952
v -0.000144 0.008773 -0.003952
v -0.000150 0.008710 -0.003952
v -0.000145 0.008773 -0.003952
v -0.000150 0.008710 -0.003952
v -0.000147 0.008773 -0.003952
v -0.000065 0.008895 -0.003952
v -0.000150 0.008710 -0.003952
v -0.000148 0.008773 -0.003952
v -0.000065 0.008710 -0.003952
v -0.000150 0.008710 -0.003952
v -0.000150 0.008773 -0.003952
v -0.000148 0.008833 -0.003952
v -0.000147 0.008833 -0.003952
v -0.000148 0.008833 -0.003914
v -0.000147 0.008833 -0.003952
v -0.000145 0.008833 -0.003952
v -0.000147 0.008833 -0.003914
v -0.000145 0.008833 -0.003952
v -0.000145 0.008833 -0.003914
v -0.000144 0.008833 -0.003952
v -0.000144 0.008833 -0.003914
v -0.000142 0.008833 -0.003952
v -0.000142 0.008833 -0.003914
v -0.000140 0.008833 -0.003952
v -0.000140 0.008833 -0.003914
v -0.000139 0.008832 -0.003952
v -0.000140 0.008833 -0.003952
v -0.000137 0.008832 -0.003952
v -0.000139 0.008832 -0.003914
v -0.000139 0.008832 -0.003952
v -0.000137 0.008832 -0.003914
v -0.000137 0.008832 -0.003952
v -0.000136 0.008831 -0.003914
v -0.000136 0.008831 -0.003952
v -0.000136 0.008831 -0.003952
v -0.000134 0.008831 -0.003952
v -0.000134 0.008831 -0.003914
v -0.000134 0.008831 -0.003952
v -0.000132 0.008830 -0.003952
v -0.000132 0.008830 -0.003914
v -0.000132 0.008830 -0.003952
v -0.000131 0.008830 -0.003952
v -0.000131 0.008830 -0.003952
v -0.000131 0.008830 -0.003914
v -0.000130 0.008829 -0.003952
v -0.000130 0.008829 -0.003914
v -0.000130 0.008829 -0.003952
v -0.000128 0.008828 -0.003952
v -0.000128 0.008828 -0.003952
v -0.000127 0.008827 -0.003952
v -0.000128 0.008828 -0.003914
v -0.000127 0.008827 -0.003952
v -0.000127 0.008827 -0.003914
v -0.000126 0.008826 -0.003952
v -0.000126 0.008826 -0.003914
v -0.000124 0.008825 -0.003952
v -0.000126 0.008826 -0.003952
v -0.000123 0.008824 -0.003952
v -0.000124 0.008825 -0.003914
v -0.000124 0.008825 -0.003952
v -0.000123 0.008824 -0.003914
v -0.000123 0.008824 -0.003952
v -0.000122 0.008822 -0.003914
v -0.000122 0.008822 -0.003952
v -0.000122 0.008822 -0.003952
v -0.000121 0.008821 -0.003952
v -0.000121 0.008821 -0.003914
v -0.000121 0.008821 -0.003952
v -0.000120 0.008820 -0.003952
v -0.000120 0.008820 -0.003952
v -0.000120 0.008820 -0.003914
v -0.000119 0.008819 -0.003952
v -0.000119 0.008819 -0.003914
v -0.000119 0.008819 -0.003952
v -0.000119 0.008817 -0.003952
v -0.000119 0.008817 -0.003952
v -0.000118 0.008816 -0.003952
v -0.000119 0.008817 -0.003914
v -0.000118 0.008816 -0.003952
v -0.000118 0.008816 -0.003914
v -0.000117 0.008814 -0.003952
v -0.000117 0.008814 -0.003914
v -0.000117 0.008813 -0.003952
v -0.000117 0.008814 -0.003952
v -0.000116 0.008811 -0.003952
v -0.000117 0.008813 -0.003914
v -0.000117 0.008813 -0.003952
v -0.000116 0.008811 -0.003914
v -0.000116 0.008811 -0.003952
v -0.000116 0.008809 -0.003914
v -0.000116 0.008809 -0.003952
v -0.000116 0.008809 -0.003952
v -0.000115 0.008808 -0.003952
v -0.000115 0.008808 -0.003914
v -0.000115 0.008808 -0.003952
v -0.000115 0.008806 -0.003952
v -0.000115 0.008806 -0.003952
v -0.000115 0.008806 -0.003914
v -0.000115 0.008805 -0.003952
v -0.000115 0.008805 -0.003914
v -0.000115 0.008805 -0.003952
v -0.000115 0.008803 -0.003952
v -0.000115 0.008803 -0.003952
v -0.000115 0.008801 -0.003952
v -0.000115 0.008803 -0.003914
v -0.000115 0.008801 -0.003952
v -0.000115 0.008801 -0.003914
v -0.000115 0.008800 -0.003952
v -0.000115 0.008800 -0.003914
v -0.000115 0.008798 -0.003952
v -0.000115 0.008800 -0.003952
v -0.000116 0.008797 -0.003952
v -0.000115 0.008798 -0.003914
v -0.000115 0.008798 -0.003952
v -0.000116 0.008795 -0.003952
v -0.000116 0.008797 -0.003914
v -0.000116 0.008797 -0.003952
v -0.000116 0.008795 -0.003914
v -0.000116 0.008795 -0.003952
v -0.000117 0.008793 -0.003914
v -0.000117 0.008793 -0.003952
v -0.000117 0.008793 -0.003952
v -0.000117 0.008792 -0.003952
v -0.000117 0.008792 -0.003914
v -0.000117 0.008792 -0.003952
v -0.000118 0.008790 -0.003952
v -0.000118 0.008790 -0.003952
v -0.000118 0.008790 -0.003914
v -0.000119 0.008789 -0.003952
v -0.000119 0.008789 -0.003914
v -0.000119 0.008789 -0.003952
v -0.000119 0.008787 -0.003952
v -0.000119 0.008787 -0.003952
v -0.000120 0.008786 -0.003952
v -0.000119 0.008787 -0.003914
v -0.000120 0.008786 -0.003952
v -0.000120 0.008786 -0.003914
v -0.000121 0.008785 -0.003952
v -0.000121 0.008785 -0.003914
v -0.000122 0.008784 -0.003952
v -0.000121 0.008785 -0.003952
v -0.000123 0.008782 -0.003952
v -0.000122 0.008784 -0.003914
v -0.000122 0.008784 -0.003952
v -0.000123 0.008782 -0.003914
v -0.000123 0.008782 -0.003952
v -0.000124 0.008781 -0.003914
v -0.000124 0.008781 -0.003952
v -0.000124 0.008781 -0.003952
v -0.000126 0.008780 -0.003952
v -0.000126 0.008780 -0.003914
v -0.000126 0.008780 -0.003952
v -0.000127 0.008779 -0.003952
v -0.000127 0.008779 -0.003952
v -0.000127 0.008779 -0.003914
v -0.000148 0.008773 -0.003914
v -0.000147 0.008773 -0.003914
v -0.000148 0.008773 -0.003952
v -0.000150 0.008773 -0.003952
v -0.000150 0.008773 -0.003914
v -0.000150 0.008773 -0.003952
v -0.000148 0.008773 -0.003952
v -0.000147 0.008773 -0.003952
v -0.000148 0.008773 -0.003952
v -0.000145 0.008773 -0.003914
v -0.000147 0.008773 -0.003952
v -0.000145 0.008773 -0.003952
v -0.000147 0.008773 -0.003952
v -0.000145 0.008773 -0.003952
v -0.000144 0.008773 -0.003914
v -0.000145 0.008773 -0.003952
v -0.000144 0.008773 -0.003952
v -0.000142 0.008773 -0.003914
v -0.000144 0.008773 -0.003952
v -0.000142 0.008773 -0.003952
v -0.000144 0.008773 -0.003952
v -0.000140 0.008773 -0.003914
v -0.000142 0.008773 -0.003952
v -0.000140 0.008773 -0.003952
v -0.000142 0.008773 -0.003952
v -0.000140 0.008773 -0.003952
v -0.000139 0.008774 -0.003914
v -0.000140 0.008773 -0.003952
v -0.000139 0.008774 -0.003952
v -0.000137 0.008774 -0.003914
v -0.000139 0.008774 -0.003952
v -0.000137 0.008774 -0.003952
v -0.000139 0.008774 -0.003952
v -0.000136 0.008775 -0.003914
v -0.000137 0.008774 -0.003952
v -0.000136 0.008775 -0.003952
v -0.000137 0.008774 -0.003952
v -0.000136 0.008775 -0.003952
v -0.000134 0.008775 -0.003914
v -0.000136 0.008775 -0.003952
v -0.000134 0.008775 -0.003952
v -0.000132 0.008776 -0.003914
v -0.000134 0.008775 -0.003952
v -0.000132 0.008776 -0.003952
v -0.000134 0.008775 -0.003952
v -0.000131 0.008776 -0.003914
v -0.000132 0.008776 -0.003952
v -0.000131 0.008776 -0.003952
v -0.000132 0.008776 -0.003952
v -0.000131 0.008776 -0.003952
v -0.000130 0.008777 -0.003914
v -0.000131 0.008776 -0.003952
v -0.000130 0.008777 -0.003952
v -0.000128 0.008778 -0.003914
v -0.000130 0.008777 -0.003952
v -0.000128 0.008778 -0.003952
v -0.000130 0.008777 -0.003952
v -0.000128 0.008778 -0.003952
v -0.000127 0.008779 -0.003952
v -0.000128 0.008778 -0.003952
v -0.000126 0.008780 -0.003952
v -0.000123 0.008782 -0.003952
v -0.000124 0.008781 -0.003952
v -0.000122 0.008784 -0.003952
v -0.000121 0.008785 -0.003952
v -0.000120 0.008786 -0.003952
v -0.000119 0.008787 -0.003952
v -0.000118 0.008790 -0.003952
v -0.000119 0.008789 -0.003952
v -0.000117 0.008792 -0.003952
v -0.000116 0.008795 -0.003952
v -0.000117 0.008793 -0.003952
v -0.000116 0.008797 -0.003952
v -0.000115 0.008798 -0.003952
v -0.000115 0.008800 -0.003952
v -0.000115 0.008801 -0.003952
v -0.000115 0.008803 -0.003952
v -0.000115 0.008806 -0.003952
v -0.000115 0.008805 -0.003952
v -0.000115 0.008808 -0.003952
v -0.000116 0.008811 -0.003952
v -0.000116 0.008809 -0.003952
v -0.000117 0.008813 -0.003952
v -0.000117 0.008814 -0.003952
v -0.000118 0.008816 -0.003952
v -0.000119 0.008817 -0.003952
v -0.000120 0.008820 -0.003952
v -0.000119 0.008819 -0.003952
v -0.000121 0.008821 -0.003952
v -0.000123 0.008824 -0.003952
v -0.000122 0.008822 -0.003952
v -0.000124 0.008825 -0.003952
v -0.000126 0.008826 -0.003952
v -0.000127 0.008827 -0.003952
v -0.000128 0.008828 -0.003952
v -0.000131 0.008830 -0.003952
v -0.000130 0.008829 -0.003952
v -0.000132 0.008830 -0.003952
v -0.000134 0.008831 -0.003952
v -0.000137 0.008832 -0.003952
v -0.000136 0.008831 -0.003952
v -0.000142 0.008833 -0.003952
v -0.000140 0.008833 -0.003952
v -0.000145 0.008833 -0.003952
v -0.000144 0.008833 -0.003952
v -0.000150 0.008833 -0.003952
v -0.000148 0.008833 -0.003952
v -0.000150 0.008833 -0.003914
v -0.000150 0.008833 -0.003952
v -0.000139 0.008832 -0.003952
v -0.000144 0.008833 -0.003952
v -0.000142 0.008833 -0.003952
v -0.000147 0.008833 -0.003952
v -0.000147 0.008756 -0.003897
v -0.000145 0.008773 -0.003914
v -0.000147 0.008773 -0.003914
v -0.000147 0.008756 -0.003897
v -0.000147 0.008773 -0.003914
v -0.000150 0.008756 -0.003897
v -0.000143 0.008756 -0.003897
v -0.000144 0.008773 -0.003914
v -0.000145 0.008773 -0.003914
v -0.000142 0.008773 -0.003914
v -0.000144 0.008773 -0.003914
v -0.000140 0.008756 -0.003897
v -0.000140 0.008773 -0.003914
v -0.000140 0.008756 -0.003897
v -0.000136 0.008756 -0.003897
v -0.000139 0.008774 -0.003914
v -0.000136 0.008756 -0.003897
v -0.000133 0.008757 -0.003897
v -0.000137 0.008774 -0.003914
v -0.000133 0.008757 -0.003897
v -0.000130 0.008757 -0.003896
v -0.000136 0.008775 -0.003914
v -0.000130 0.008757 -0.003896
v -0.000134 0.008775 -0.003914
v -0.000130 0.008757 -0.003896
v -0.000127 0.008758 -0.003896
v -0.000134 0.008775 -0.003914
v -0.000127 0.008758 -0.003896
v -0.000123 0.008759 -0.003895
v -0.000132 0.008776 -0.003914
v -0.000123 0.008759 -0.003895
v -0.000131 0.008776 -0.003914
v -0.000132 0.008776 -0.003914
v -0.000120 0.008760 -0.003894
v -0.000130 0.008777 -0.003914
v -0.000131 0.008776 -0.003914
v -0.000117 0.008761 -0.003894
v -0.000128 0.008778 -0.003914
v -0.000130 0.008777 -0.003914
v -0.000114 0.008762 -0.003893
v -0.000128 0.008778 -0.003914
v -0.000117 0.008761 -0.003894
v -0.000126 0.008780 -0.003914
v -0.000127 0.008779 -0.003914
v -0.000114 0.008762 -0.003893
v -0.000126 0.008780 -0.003914
v -0.000114 0.008762 -0.003893
v -0.000111 0.008763 -0.003892
v -0.000126 0.008780 -0.003914
v -0.000111 0.008763 -0.003892
v -0.000124 0.008781 -0.003914
v -0.000111 0.008763 -0.003892
v -0.000108 0.008764 -0.003891
v -0.000124 0.008781 -0.003914
v -0.000123 0.008782 -0.003914
v -0.000105 0.008766 -0.003890
v -0.000122 0.008784 -0.003914
v -0.000108 0.008764 -0.003891
v -0.000123 0.008782 -0.003914
v -0.000124 0.008781 -0.003914
v -0.000105 0.008766 -0.003890
v -0.000102 0.008767 -0.003889
v -0.000122 0.008784 -0.003914
v -0.000102 0.008767 -0.003889
v -0.000100 0.008769 -0.003888
v -0.000121 0.008785 -0.003914
v -0.000100 0.008769 -0.003888
v -0.000099 0.008770 -0.003888
v -0.000120 0.008786 -0.003914
v -0.000098 0.008770 -0.003887
v -0.000120 0.008786 -0.003914
v -0.000120 0.008786 -0.003914
v -0.000097 0.008771 -0.003887
v -0.000097 0.008772 -0.003887
v -0.000119 0.008787 -0.003914
v -0.000097 0.008772 -0.003887
v -0.000095 0.008775 -0.003887
v -0.000119 0.008787 -0.003914
v -0.000095 0.008775 -0.003887
v -0.000119 0.008789 -0.003914
v -0.000119 0.008789 -0.003914
v -0.000093 0.008779 -0.003887
v -0.000118 0.008790 -0.003914
v -0.000093 0.008779 -0.003887
v -0.000091 0.008783 -0.003887
v -0.000117 0.008792 -0.003914
v -0.000091 0.008783 -0.003887
v -0.000090 0.008787 -0.003887
v -0.000117 0.008793 -0.003914
v -0.000090 0.008787 -0.003887
v -0.000116 0.008795 -0.003914
v -0.000117 0.008793 -0.003914
v -0.000089 0.008791 -0.003887
v -0.000116 0.008797 -0.003914
v -0.000116 0.008795 -0.003914
v -0.000088 0.008795 -0.003887
v -0.000115 0.008798 -0.003914
v -0.000089 0.008791 -0.003887
v -0.000115 0.008800 -0.003914
v -0.000115 0.008798 -0.003914
v -0.000088 0.008795 -0.003887
v -0.000115 0.008801 -0.003914
v -0.000115 0.008800 -0.003914
v -0.000088 0.008799 -0.003887
v -0.000115 0.008803 -0.003914
v -0.000115 0.008801 -0.003914
v -0.000087 0.008803 -0.003887
v -0.000115 0.008805 -0.003914
v -0.000115 0.008803 -0.003914
v -0.000087 0.008803 -0.003887
v -0.000115 0.008805 -0.003914
v -0.000087 0.008803 -0.003887
v -0.000088 0.008807 -0.003887
v -0.000115 0.008805 -0.003914
v -0.000088 0.008807 -0.003887
v -0.000115 0.008806 -0.003914
v -0.000115 0.008806 -0.003914
v -0.000088 0.008811 -0.003887
v -0.000115 0.008808 -0.003914
v -0.000088 0.008811 -0.003887
v -0.000089 0.008815 -0.003887
v -0.000115 0.008808 -0.003914
v -0.000089 0.008815 -0.003887
v -0.000116 0.008811 -0.003914
v -0.000116 0.008809 -0.003914
v -0.000090 0.008819 -0.003887
v -0.000117 0.008813 -0.003914
v -0.000116 0.008811 -0.003914
v -0.000091 0.008823 -0.003887
v -0.000117 0.008814 -0.003914
v -0.000117 0.008813 -0.003914
v -0.000093 0.008827 -0.003887
v -0.000118 0.008816 -0.003914
v -0.000117 0.008814 -0.003914
v -0.000119 0.008817 -0.003914
v -0.000118 0.008816 -0.003914
v -0.000093 0.008827 -0.003887
v -0.000119 0.008819 -0.003914
v -0.000119 0.008817 -0.003914
v -0.000095 0.008831 -0.003887
v -0.000120 0.008820 -0.003914
v -0.000119 0.008819 -0.003914
v -0.000097 0.008834 -0.003887
v -0.000098 0.008836 -0.003887
v -0.000120 0.008820 -0.003914
v -0.000097 0.008835 -0.003887
v -0.000105 0.008840 -0.003890
v -0.000122 0.008822 -0.003914
v -0.000102 0.008839 -0.003889
v -0.000121 0.008821 -0.003914
v -0.000100 0.008837 -0.003888
v -0.000102 0.008839 -0.003889
v -0.000123 0.008824 -0.003914
v -0.000122 0.008822 -0.003914
v -0.000105 0.008840 -0.003890
v -0.000124 0.008825 -0.003914
v -0.000123 0.008824 -0.003914
v -0.000108 0.008842 -0.003891
v -0.000126 0.008826 -0.003914
v -0.000124 0.008825 -0.003914
v -0.000111 0.008843 -0.003892
v -0.000127 0.008827 -0.003914
v -0.000126 0.008826 -0.003914
v -0.000114 0.008844 -0.003893
v -0.000099 0.008836 -0.003888
v -0.000100 0.008837 -0.003888
v -0.000120 0.008820 -0.003914
v -0.000150 0.008850 -0.003897
v -0.000150 0.008833 -0.003914
v -0.000148 0.008833 -0.003914
v -0.000150 0.008850 -0.003897
v -0.000148 0.008833 -0.003914
v -0.000147 0.008833 -0.003914
v -0.000150 0.008850 -0.003897
v -0.000147 0.008833 -0.003914
v -0.000147 0.008850 -0.003897
v -0.000147 0.008833 -0.003914
v -0.000145 0.008833 -0.003914
v -0.000147 0.008850 -0.003897
v -0.000145 0.008833 -0.003914
v -0.000143 0.008850 -0.003897
v -0.000147 0.008850 -0.003897
v -0.000144 0.008833 -0.003914
v -0.000143 0.008850 -0.003897
v -0.000145 0.008833 -0.003914
v -0.000140 0.008850 -0.003897
v -0.000143 0.008850 -0.003897
v -0.000144 0.008833 -0.003914
v -0.000140 0.008850 -0.003897
v -0.000144 0.008833 -0.003914
v -0.000142 0.008833 -0.003914
v -0.000140 0.008850 -0.003897
v -0.000142 0.008833 -0.003914
v -0.000140 0.008833 -0.003914
v -0.000140 0.008850 -0.003897
v -0.000140 0.008833 -0.003914
v -0.000137 0.008850 -0.003897
v -0.000140 0.008833 -0.003914
v -0.000139 0.008832 -0.003914
v -0.000137 0.008850 -0.003897
v -0.000139 0.008832 -0.003914
v -0.000133 0.008849 -0.003897
v -0.000137 0.008850 -0.003897
v -0.000137 0.008832 -0.003914
v -0.000133 0.008849 -0.003897
v -0.000139 0.008832 -0.003914
v -0.000130 0.008849 -0.003896
v -0.000133 0.008849 -0.003897
v -0.000137 0.008832 -0.003914
v -0.000130 0.008849 -0.003896
v -0.000137 0.008832 -0.003914
v -0.000136 0.008831 -0.003914
v -0.000130 0.008849 -0.003896
v -0.000136 0.008831 -0.003914
v -0.000134 0.008831 -0.003914
v -0.000130 0.008849 -0.003896
v -0.000134 0.008831 -0.003914
v -0.000127 0.008848 -0.003896
v -0.000134 0.008831 -0.003914
v -0.000132 0.008830 -0.003914
v -0.000127 0.008848 -0.003896
v -0.000132 0.008830 -0.003914
v -0.000123 0.008847 -0.003895
v -0.000127 0.008848 -0.003896
v -0.000131 0.008830 -0.003914
v -0.000123 0.008847 -0.003895
v -0.000132 0.008830 -0.003914
v -0.000120 0.008846 -0.003894
v -0.000123 0.008847 -0.003895
v -0.000131 0.008830 -0.003914
v -0.000120 0.008846 -0.003894
v -0.000131 0.008830 -0.003914
v -0.000130 0.008829 -0.003914
v -0.000120 0.008846 -0.003894
v -0.000130 0.008829 -0.003914
v -0.000117 0.008845 -0.003894
v -0.000130 0.008829 -0.003914
v -0.000128 0.008828 -0.003914
v -0.000117 0.008845 -0.003894
v -0.000128 0.008828 -0.003914
v -0.000114 0.008844 -0.003893
v -0.000117 0.008845 -0.003894
v -0.000127 0.008827 -0.003914
v -0.000114 0.008844 -0.003893
v -0.000128 0.008828 -0.003914
v -0.000126 0.008826 -0.003914
v -0.000111 0.008843 -0.003892
v -0.000114 0.008844 -0.003893
v -0.000124 0.008825 -0.003914
v -0.000108 0.008842 -0.003891
v -0.000111 0.008843 -0.003892
v -0.000123 0.008824 -0.003914
v -0.000105 0.008840 -0.003890
v -0.000108 0.008842 -0.003891
v -0.000122 0.008822 -0.003914
v -0.000121 0.008821 -0.003914
v -0.000102 0.008839 -0.003889
v -0.000121 0.008821 -0.003914
v -0.000120 0.008820 -0.003914
v -0.000100 0.008837 -0.003888
v -0.000120 0.008820 -0.003914
v -0.000097 0.008834 -0.003887
v -0.000120 0.008820 -0.003914
v -0.000095 0.008831 -0.003887
v -0.000097 0.008834 -0.003887
v -0.000119 0.008819 -0.003914
v -0.000093 0.008827 -0.003887
v -0.000095 0.008831 -0.003887
v -0.000119 0.008817 -0.003914
v -0.000117 0.008814 -0.003914
v -0.000091 0.008823 -0.003887
v -0.000093 0.008827 -0.003887
v -0.000117 0.008813 -0.003914
v -0.000090 0.008819 -0.003887
v -0.000091 0.008823 -0.003887
v -0.000116 0.008811 -0.003914
v -0.000089 0.008815 -0.003887
v -0.000090 0.008819 -0.003887
v -0.000116 0.008809 -0.003914
v -0.000115 0.008808 -0.003914
v -0.000089 0.008815 -0.003887
v -0.000088 0.008811 -0.003887
v -0.000115 0.008806 -0.003914
v -0.000088 0.008807 -0.003887
v -0.000115 0.008801 -0.003914
v -0.000088 0.008799 -0.003887
v -0.000087 0.008803 -0.003887
v -0.000115 0.008800 -0.003914
v -0.000088 0.008795 -0.003887
v -0.000088 0.008799 -0.003887
v -0.000115 0.008798 -0.003914
v -0.000116 0.008797 -0.003914
v -0.000089 0.008791 -0.003887
v -0.000089 0.008791 -0.003887
v -0.000116 0.008795 -0.003914
v -0.000090 0.008787 -0.003887
v -0.000091 0.008783 -0.003887
v -0.000117 0.008793 -0.003914
v -0.000117 0.008792 -0.003914
v -0.000093 0.008779 -0.003887
v -0.000117 0.008792 -0.003914
v -0.000118 0.008790 -0.003914
v -0.000095 0.008775 -0.003887
v -0.000093 0.008779 -0.003887
v -0.000119 0.008789 -0.003914
v -0.000120 0.008786 -0.003914
v -0.000097 0.008772 -0.003887
v -0.000119 0.008787 -0.003914
v -0.000120 0.008786 -0.003914
v -0.000100 0.008769 -0.003888
v -0.000120 0.008786 -0.003914
v -0.000121 0.008785 -0.003914
v -0.000102 0.008767 -0.003889
v -0.000121 0.008785 -0.003914
v -0.000122 0.008784 -0.003914
v -0.000108 0.008764 -0.003891
v -0.000105 0.008766 -0.003890
v -0.000123 0.008782 -0.003914
v -0.000114 0.008762 -0.003893
v -0.000127 0.008779 -0.003914
v -0.000128 0.008778 -0.003914
v -0.000120 0.008760 -0.003894
v -0.000117 0.008761 -0.003894
v -0.000130 0.008777 -0.003914
v -0.000123 0.008759 -0.003895
v -0.000120 0.008760 -0.003894
v -0.000131 0.008776 -0.003914
v -0.000130 0.008757 -0.003896
v -0.000136 0.008775 -0.003914
v -0.000137 0.008774 -0.003914
v -0.000140 0.008773 -0.003914
v -0.000136 0.008756 -0.003897
v -0.000139 0.008774 -0.003914
v -0.000142 0.008773 -0.003914
v -0.000140 0.008756 -0.003897
v -0.000140 0.008773 -0.003914
v -0.000144 0.008773 -0.003914
v -0.000143 0.008756 -0.003897
v -0.000140 0.008756 -0.003897
v -0.000147 0.008756 -0.003897
v -0.000143 0.008756 -0.003897
v -0.000145 0.008773 -0.003914
v -0.000148 0.008773 -0.003914
v -0.000150 0.008773 -0.003914
v -0.000150 0.008756 -0.003897
v -0.000133 0.008757 -0.003897
v -0.000137 0.008774 -0.003914
v -0.000139 0.008774 -0.003914
v -0.000132 0.008776 -0.003914
v -0.000134 0.008775 -0.003914
v -0.000127 0.008758 -0.003896
v -0.000147 0.008773 -0.003914
v -0.000148 0.008773 -0.003914
v -0.000150 0.008756 -0.003897
v -0.000065 0.008835 -0.003887
v -0.000065 0.008835 -0.003887
v -0.000065 0.008836 -0.003887
v -0.000065 0.008836 -0.003887
v -0.000097 0.008835 -0.003887
v -0.000097 0.008835 -0.003887
v -0.000065 0.008836 -0.003887
v -0.000065 0.008836 -0.003887
v -0.000099 0.008836 -0.003888
v -0.000099 0.008836 -0.003888
v -0.000098 0.008836 -0.003887
v -0.000098 0.008836 -0.003887
v -0.000097 0.008835 -0.003887
v -0.000065 0.008836 -0.003887
v -0.000098 0.008836 -0.003887
v -0.000065 0.008836 -0.003887
v -0.000098 0.008770 -0.003887
v -0.000099 0.008770 -0.003888
v -0.000099 0.008770 -0.003888
v -0.000098 0.008770 -0.003887
v -0.000065 0.008770 -0.003887
v -0.000065 0.008771 -0.003887
v -0.000065 0.008771 -0.003887
v -0.000065 0.008770 -0.003887
v -0.000065 0.008770 -0.003887
v -0.000097 0.008771 -0.003887
v -0.000065 0.008770 -0.003887
v -0.000065 0.008770 -0.003887
v -0.000097 0.008771 -0.003887
v -0.000065 0.008770 -0.003887
v -0.000097 0.008771 -0.003887
v -0.000098 0.008770 -0.003887
vn -1.0000 -0.0000 -0.0000
vn -0.0000 -0.7940 0.6079
vn -0.0000 -0.7816 0.6238
vn -0.0000 -0.7739 0.6333
vn -0.0000 -0.7688 0.6395
vn -0.0000 -0.7815 0.6239
vn -0.0000 -0.7530 0.6580
vn -0.0000 -0.7558 0.6548
vn -0.0000 -0.7424 0.6699
vn -0.0000 -0.7557 0.6549
vn 0.0001 -0.7424 0.6700
vn -0.0000 -0.7313 0.6820
vn -0.0000 -0.7287 0.6848
vn -0.0000 -0.7147 0.6994
vn -0.0000 -0.7314 0.6820
vn -0.0000 -0.7424 0.6700
vn -0.0000 -0.7313 0.6821
vn -0.0000 -0.7089 0.7053
vn -0.0000 -0.7004 0.7138
vn -0.0000 -0.6857 0.7279
vn -0.0000 -0.7004 0.7137
vn -0.0000 -0.6859 0.7277
vn -0.0000 -0.6710 0.7414
vn -0.0000 -0.6618 0.7497
vn -0.0000 -0.6559 0.7548
vn -0.0000 -0.6372 0.7707
vn -0.0000 -0.6124 0.7905
vn -0.0000 -0.6119 0.7910
vn -0.0000 -0.6617 0.7497
vn -0.0000 -0.6371 0.7707
vn -0.0000 -0.6124 0.7906
vn -0.0000 -0.6406 0.7679
vn -0.0000 -0.6118 0.7910
vn -0.0000 -0.6106 0.7919
vn -0.0000 -0.6107 0.7919
vn -0.0000 -0.6371 0.7708
vn -0.0000 -0.6089 0.7932
vn -0.0000 -0.6405 0.7679
vn -0.0001 -0.6249 0.7807
vn -0.0000 -0.6069 0.7948
vn -0.0000 -0.6010 0.7992
vn -0.0000 -0.6041 0.7969
vn -0.0000 -0.5599 0.8286
vn -0.0000 -0.5665 0.8241
vn 0.0002 -0.5764 0.8172
vn 0.0002 -0.5727 0.8198
vn -0.0000 -0.5785 0.8157
vn -0.0002 -0.5928 0.8053
vn -0.0000 -0.5839 0.8118
vn -0.0000 -0.5889 0.8082
vn -0.0000 -0.6091 0.7931
vn -0.0000 -0.5934 0.8049
vn -0.0000 -0.5974 0.8019
vn -0.0000 -0.6090 0.7932
vn -0.0000 -0.0000 1.0000
vn 0.0001 -0.0000 1.0000
vn -0.0000 0.6372 0.7707
vn -0.0000 0.6124 0.7905
vn -0.0000 0.6118 0.7910
vn -0.0000 0.6107 0.7919
vn -0.0000 0.6090 0.7932
vn -0.0000 0.6859 0.7277
vn 0.0001 0.7004 0.7138
vn -0.0000 0.6857 0.7279
vn -0.0000 0.7286 0.6849
vn -0.0003 0.7313 0.6820
vn -0.0000 0.7147 0.6994
vn 0.0001 0.7424 0.6700
vn 0.0002 0.7530 0.6580
vn -0.0000 0.6119 0.7909
vn -0.0000 0.7940 0.6079
vn 0.0001 0.7816 0.6238
vn -0.0003 0.7739 0.6333
vn -0.0000 0.7687 0.6396
vn -0.0000 0.7558 0.6548
vn 0.0002 0.7089 0.7053
vn 0.0001 0.6711 0.7414
vn -0.0003 0.6617 0.7497
vn -0.0000 0.6559 0.7549
vn -0.0000 0.6068 0.7948
vn -0.0001 0.6405 0.7679
vn -0.0000 0.6041 0.7969
vn -0.0000 0.6249 0.7807
vn -0.0000 0.6011 0.7992
vn -0.0000 0.5974 0.8019
vn -0.0000 0.6091 0.7931
vn -0.0000 0.5888 0.8083
vn -0.0000 0.5839 0.8118
vn -0.0001 0.5928 0.8053
vn -0.0000 0.5599 0.8286
vn 0.0002 0.5764 0.8172
vn -0.0000 0.5598 0.8286
vn -0.0000 0.5665 0.8241
vn -0.0001 0.5726 0.8198
vn -0.0000 0.5785 0.8157
vn -0.0000 0.5932 0.8050
vn 1.0000 -0.0000 -0.0000
vn -0.0000 -0.0000 -1.0000
vn -0.0000 -1.0000 -0.0000
vn -0.0000 1.0000 -0.0000
vn -0.0002 -0.0000 -1.0000
vn 0.0001 -0.0000 -1.0000
vn -0.0001 -0.0000 -1.0000
vn 0.0003 -0.0000 -1.0000
vn 0.1129 -0.9936 -0.0000
vn 0.0588 -0.9983 -0.0000
vn 0.0587 -0.9983 -0.0000
vn 0.0045 -1.0000 -0.0000
vn -0.0498 -0.9988 -0.0000
vn -0.1039 -0.9946 -0.0000
vn -0.1578 -0.9875 -0.0000
vn -0.1040 -0.9946 -0.0000
vn -0.2112 -0.9774 -0.0000
vn -0.2639 -0.9646 -0.0000
vn -0.2111 -0.9775 -0.0000
vn -0.3159 -0.9488 -0.0000
vn -0.2640 -0.9645 -0.0000
vn -0.3160 -0.9488 -0.0000
vn -0.3670 -0.9302 -0.0000
vn -0.4170 -0.9089 -0.0000
vn -0.4657 -0.8850 -0.0000
vn -0.4656 -0.8850 -0.0000
vn -0.4657 -0.8849 -0.0000
vn -0.5130 -0.8584 -0.0000
vn -0.5588 -0.8293 -0.0000
vn -0.5589 -0.8292 -0.0000
vn -0.6031 -0.7976 -0.0000
vn -0.6031 -0.7977 -0.0000
vn -0.5590 -0.8292 -0.0000
vn -0.6455 -0.7638 -0.0000
vn -0.6860 -0.7276 -0.0000
vn -0.7245 -0.6893 -0.0000
vn -0.7609 -0.6489 -0.0000
vn -0.7245 -0.6892 -0.0000
vn -0.7949 -0.6067 -0.0000
vn -0.7950 -0.6066 -0.0000
vn -0.8267 -0.5627 -0.0000
vn -0.8267 -0.5626 -0.0000
vn -0.8560 -0.5170 -0.0000
vn -0.8561 -0.5169 -0.0000
vn -0.8828 -0.4697 -0.0000
vn -0.8829 -0.4696 -0.0000
vn -0.9070 -0.4210 -0.0000
vn -0.9070 -0.4211 -0.0000
vn -0.9286 -0.3712 -0.0000
vn -0.9071 -0.4210 -0.0000
vn -0.9474 -0.3202 -0.0000
vn -0.9286 -0.3711 -0.0000
vn -0.9633 -0.2683 -0.0000
vn -0.9473 -0.3202 -0.0000
vn -0.9633 -0.2684 -0.0000
vn -0.9765 -0.2156 -0.0000
vn -0.9634 -0.2682 -0.0000
vn -0.9765 -0.2155 -0.0000
vn -0.9765 -0.2155 0.0002
vn -0.9867 -0.1623 -0.0000
vn -0.9868 -0.1622 -0.0000
vn -0.9941 -0.1085 -0.0000
vn -0.9941 -0.1084 -0.0000
vn -0.9985 -0.0543 -0.0000
vn -0.9985 0.0543 -0.0000
vn -0.9941 0.1084 -0.0000
vn -0.9868 0.1622 -0.0000
vn -0.9941 0.1085 -0.0000
vn -0.9765 0.2155 -0.0000
vn -0.9867 0.1623 -0.0000
vn -0.9634 0.2682 -0.0000
vn -0.9765 0.2156 -0.0000
vn -0.9473 0.3202 -0.0000
vn -0.9633 0.2683 -0.0000
vn -0.9474 0.3202 -0.0000
vn -0.9286 0.3711 -0.0000
vn -0.9286 0.3712 -0.0000
vn -0.9285 0.3712 -0.0000
vn -0.9071 0.4210 -0.0000
vn -0.9070 0.4210 -0.0000
vn -0.8829 0.4696 -0.0000
vn -0.8828 0.4697 -0.0000
vn -0.8561 0.5169 -0.0000
vn -0.8560 0.5169 -0.0000
vn -0.8267 0.5627 -0.0000
vn -0.8267 0.5626 -0.0000
vn -0.8560 0.5170 -0.0000
vn -0.7950 0.6066 -0.0000
vn -0.7609 0.6489 -0.0000
vn -0.7949 0.6067 -0.0000
vn -0.7245 0.6892 -0.0000
vn -0.7245 0.6893 -0.0000
vn -0.6860 0.7276 -0.0000
vn -0.6455 0.7638 -0.0000
vn -0.6031 0.7977 -0.0000
vn 0.1129 0.9936 -0.0000
vn 0.0588 0.9983 -0.0000
vn 0.1666 0.9860 -0.0000
vn 0.0045 1.0000 -0.0000
vn 0.0587 0.9983 -0.0000
vn -0.0498 0.9988 -0.0000
vn -0.1039 0.9946 -0.0000
vn -0.1578 0.9875 -0.0000
vn -0.1040 0.9946 -0.0000
vn -0.2112 0.9774 -0.0000
vn -0.2111 0.9775 -0.0000
vn -0.2639 0.9646 -0.0000
vn -0.3159 0.9488 -0.0000
vn -0.2640 0.9645 -0.0000
vn -0.3160 0.9488 -0.0000
vn -0.3670 0.9302 -0.0000
vn -0.3669 0.9303 -0.0000
vn -0.3671 0.9302 -0.0000
vn -0.4170 0.9089 -0.0000
vn -0.4169 0.9089 -0.0000
vn -0.4657 0.8850 -0.0000
vn -0.4656 0.8850 -0.0000
vn -0.4657 0.8849 -0.0000
vn -0.5130 0.8584 -0.0000
vn -0.4658 0.8849 -0.0000
vn -0.5588 0.8293 -0.0000
vn -0.5590 0.8292 -0.0000
vn -0.6031 0.7976 -0.0000
vn -0.5589 0.8292 -0.0000
vn -0.9070 0.4211 -0.0000
vn -0.9633 0.2684 -0.0000
vn -0.9765 0.2155 -0.0002
vn -0.4658 -0.8849 -0.0000
vn -0.4169 -0.9089 -0.0000
vn -0.3669 -0.9303 -0.0000
vn 0.1666 -0.9860 -0.0000
vn 0.0238 0.7067 0.7071
vn 0.0032 0.7071 0.7071
vn 0.0415 0.7059 0.7071
vn 0.0239 0.7067 0.7071
vn 0.0416 0.7059 0.7071
vn 0.0748 0.7031 0.7071
vn -0.0269 0.7066 0.7071
vn -0.0352 0.7062 0.7071
vn -0.0735 0.7033 0.7071
vn -0.0773 0.7029 0.7071
vn -0.1116 0.6982 0.7071
vn -0.0773 0.7027 0.7073
vn -0.1269 0.6956 0.7071
vn -0.1493 0.6912 0.7071
vn -0.1752 0.6851 0.7071
vn -0.1866 0.6820 0.7071
vn -0.2220 0.6714 0.7071
vn -0.2234 0.6709 0.7071
vn -0.2219 0.6714 0.7071
vn -0.2594 0.6578 0.7071
vn -0.2669 0.6548 0.7071
vn -0.2595 0.6578 0.7071
vn -0.3098 0.6356 0.7071
vn -0.2948 0.6427 0.7071
vn -0.3293 0.6258 0.7071
vn -0.3504 0.6142 0.7071
vn -0.3628 0.6070 0.7071
vn -0.3886 0.5908 0.7071
vn -0.3955 0.5871 0.7063
vn -0.4244 0.5656 0.7071
vn -0.3952 0.5864 0.7071
vn -0.4564 0.5401 0.7071
vn -0.4264 0.5640 0.7071
vn -0.4243 0.5656 0.7071
vn -0.4576 0.5391 0.7071
vn -0.4851 0.5145 0.7071
vn -0.4883 0.5114 0.7071
vn -0.5123 0.4874 0.7071
vn -0.5165 0.4829 0.7071
vn -0.5380 0.4588 0.7071
vn -0.5423 0.4537 0.7071
vn -0.5380 0.4589 0.7071
vn -0.5424 0.4536 0.7071
vn -0.5658 0.4241 0.7071
vn -0.5621 0.4290 0.7071
vn -0.5729 0.4145 0.7071
vn -0.5846 0.3978 0.7071
vn -0.5729 0.4144 0.7071
vn -0.5799 0.4046 0.7071
vn -0.5871 0.3942 0.7071
vn -0.5942 0.3833 0.7071
vn -0.6053 0.3655 0.7071
vn -0.6201 0.3399 0.7071
vn -0.6201 0.3398 0.7071
vn -0.6243 0.3321 0.7070
vn -0.6243 0.3321 0.7071
vn -0.6428 0.2946 0.7071
vn -0.6414 0.2978 0.7071
vn -0.6622 0.2479 0.7071
vn -0.6566 0.2624 0.7071
vn -0.6623 0.2478 0.7071
vn -0.6783 0.1998 0.7071
vn -0.6699 0.2264 0.7071
vn -0.6812 0.1897 0.7071
vn -0.6908 0.1508 0.7071
vn -0.6905 0.1525 0.7071
vn -0.6999 0.1010 0.7071
vn -0.6977 0.1148 0.7071
vn -0.6909 0.1507 0.7071
vn -0.7029 0.0767 0.7071
vn -0.6977 0.1147 0.7071
vn -0.6999 0.1009 0.7071
vn -0.7061 0.0384 0.7071
vn -0.7029 0.0766 0.7071
vn -0.7053 0.0506 0.7071
vn -0.7071 -0.0000 0.7071
vn -0.7061 -0.0384 0.7071
vn -0.7053 -0.0506 0.7071
vn -0.7030 -0.0766 0.7071
vn -0.7029 -0.0766 0.7071
vn -0.6999 -0.1009 0.7071
vn -0.6978 -0.1146 0.7071
vn -0.6999 -0.1010 0.7071
vn -0.6909 -0.1507 0.7071
vn -0.6977 -0.1148 0.7071
vn -0.6908 -0.1508 0.7071
vn -0.6812 -0.1896 0.7071
vn -0.6905 -0.1524 0.7071
vn -0.6783 -0.1998 0.7071
vn -0.6699 -0.2264 0.7071
vn -0.6812 -0.1898 0.7071
vn -0.6623 -0.2477 0.7071
vn -0.6566 -0.2624 0.7071
vn -0.6428 -0.2946 0.7071
vn -0.6416 -0.2977 0.7069
vn -0.6243 -0.3321 0.7071
vn -0.6414 -0.2977 0.7071
vn -0.6428 -0.2947 0.7071
vn -0.6054 -0.3655 0.7070
vn -0.6201 -0.3398 0.7071
vn -0.5846 -0.3978 0.7071
vn -0.6053 -0.3655 0.7071
vn -0.5942 -0.3834 0.7071
vn -0.5799 -0.4046 0.7071
vn -0.5870 -0.3942 0.7071
vn -0.5166 -0.4828 0.7071
vn -0.5380 -0.4588 0.7071
vn -0.5424 -0.4537 0.7071
vn -0.5621 -0.4289 0.7071
vn -0.5658 -0.4241 0.7071
vn -0.5123 -0.4874 0.7071
vn -0.4851 -0.5145 0.7071
vn -0.4883 -0.5114 0.7071
vn -0.4564 -0.5401 0.7071
vn -0.4576 -0.5391 0.7071
vn -0.4262 -0.5638 0.7074
vn -0.4242 -0.5657 0.7071
vn -0.5729 -0.4145 0.7071
vn 0.0749 -0.7031 0.7071
vn 0.1179 -0.6972 0.7071
vn 0.0798 -0.7026 0.7071
vn 0.0748 -0.7031 0.7071
vn 0.0799 -0.7027 0.7070
vn 0.0415 -0.7059 0.7071
vn 0.0416 -0.7059 0.7071
vn 0.0242 -0.7069 0.7069
vn 0.0032 -0.7071 0.7071
vn 0.0242 -0.7067 0.7071
vn -0.0265 -0.7069 0.7069
vn -0.0352 -0.7062 0.7071
vn -0.0265 -0.7066 0.7071
vn -0.0768 -0.7029 0.7071
vn -0.0735 -0.7033 0.7071
vn -0.1116 -0.6982 0.7071
vn -0.1263 -0.6957 0.7071
vn -0.1493 -0.6912 0.7071
vn -0.1494 -0.6912 0.7071
vn -0.1746 -0.6852 0.7071
vn -0.1866 -0.6820 0.7071
vn -0.1492 -0.6912 0.7071
vn -0.2214 -0.6716 0.7071
vn -0.1867 -0.6820 0.7071
vn -0.2215 -0.6715 0.7071
vn -0.2234 -0.6709 0.7071
vn -0.2214 -0.6715 0.7071
vn -0.2233 -0.6709 0.7071
vn -0.2594 -0.6578 0.7071
vn -0.2595 -0.6578 0.7071
vn -0.2664 -0.6550 0.7071
vn -0.2948 -0.6427 0.7071
vn -0.2665 -0.6550 0.7071
vn -0.3094 -0.6358 0.7071
vn -0.3293 -0.6258 0.7071
vn -0.3093 -0.6358 0.7071
vn -0.3501 -0.6143 0.7071
vn -0.3294 -0.6257 0.7071
vn -0.3501 -0.6144 0.7071
vn -0.3628 -0.6070 0.7071
vn -0.3884 -0.5909 0.7071
vn -0.3952 -0.5864 0.7071
vn -0.4243 -0.5657 0.7071
vn -0.4264 -0.5641 0.7071
vn -0.5166 -0.4829 0.7071
vn -0.5381 -0.4590 0.7069
vn -0.5621 -0.4290 0.7071
vn -0.5622 -0.4290 0.7070
vn -0.5728 -0.4145 0.7071
vn -0.5942 -0.3833 0.7071
vn -0.6201 -0.3399 0.7071
vn -0.6622 -0.2479 0.7071
vn -0.6623 -0.2478 0.7071
vn -0.6812 -0.1897 0.7071
vn -0.7061 0.0385 0.7071
vn -0.7030 0.0766 0.7071
vn -0.6905 0.1524 0.7071
vn -0.6566 0.2623 0.7071
vn -0.6568 0.2625 0.7069
vn -0.6414 0.2977 0.7071
vn -0.5942 0.3834 0.7071
vn -0.5870 0.3942 0.7071
vn -0.5846 0.3979 0.7071
vn -0.5847 0.3979 0.7070
vn -0.5424 0.4537 0.7071
vn -0.5622 0.4291 0.7070
vn -0.4265 0.5640 0.7071
vn -0.3885 0.5908 0.7071
vn -0.3627 0.6070 0.7071
vn -0.2220 0.6713 0.7071
vn -0.1867 0.6820 0.7071
vn -0.0269 0.7067 0.7070
vn 0.0239 0.7069 0.7069
vn -0.0270 0.7066 0.7071
vn 0.0798 0.7026 0.7071
vn 0.1179 0.6972 0.7071
vn 0.0749 0.7031 0.7071
vn 0.0415 0.7060 0.7070
vn -0.0000 0.1480 0.9890
vn -0.0000 0.2928 0.9562
vn -0.0000 0.2927 0.9562
vn -0.0000 0.1690 0.9856
vn -0.0000 0.4310 0.9024
vn -0.0000 0.4459 0.8951
vn -0.0001 0.4459 0.8951
vn -0.0000 0.3165 0.9486
vn -0.0000 0.3164 0.9486
vn -0.0000 0.4311 0.9023
vn -0.0000 -0.3165 0.9486
vn -0.0000 -0.4459 0.8951
vn -0.0000 -0.3164 0.9486
vn -0.0000 -0.4311 0.9023
vn -0.0000 -0.1480 0.9890
vn -0.0001 -0.0000 1.0000
vn -0.0000 -0.2928 0.9562
vn -0.0000 -0.2926 0.9562
vn -0.0000 -0.1688 0.9857
vn -0.0000 -0.1689 0.9856
vn -0.0000 -0.4310 0.9024
vn -0.0000 -0.3163 0.9487
s 1
usemtl Diffuse_51_51_51_100.029
f 1//1 2//1 3//1
f 1//1 3//1 4//1
f 3//1 5//1 4//1
f 5//1 6//1 4//1
f 4//1 7//1 8//1
f 4//1 8//1 9//1
f 8//1 10//1 9//1
f 9//1 10//1 11//1
f 7//1 4//1 6//1
f 9//1 11//1 12//1
f 13//2 14//2 15//3
f 16//4 17//2 15//3
f 18//5 19//4 15//6
f 18//5 20//7 21//4
f 22//7 18//5 23//8
f 24//9 25//7 23//10
f 24//11 26//12 27//7
f 28//13 29//14 30//15
f 24//16 28//13 31//17
f 32//12 29//14 33//18
f 34//18 29//14 35//19
f 36//20 37//18 35//21
f 38//22 39//20 35//21
f 38//22 40//23 41//20
f 42//20 40//23 43//24
f 44//24 40//23 45//25
f 46//26 47//27 48//28
f 49//26 50//29 45//25
f 47//27 51//30 52//31
f 53//32 54//30 45//25
f 55//33 56//26 57//34
f 57//35 58//36 59//37
f 53//38 60//39 61//40
f 60//39 62//41 63//42
f 64//43 65//44 66//45
f 66//45 67//43 64//43
f 68//46 66//45 65//44
f 68//46 69//47 66//45
f 66//45 69//47 70//48
f 70//48 69//47 71//49
f 72//50 70//48 71//49
f 72//50 73//51 70//48
f 72//50 74//52 73//51
f 73//51 74//52 75//53
f 62//41 73//51 75//53
f 62//41 60//39 73//51
f 63//42 61//40 60//39
f 61//40 59//54 53//38
f 53//38 59//54 76//26
f 77//26 55//33 52//31
f 78//55 79//55 80//55
f 81//55 82//55 80//55
f 83//55 81//55 80//55
f 84//55 83//55 80//55
f 85//55 84//55 80//55
f 86//55 85//55 80//55
f 87//55 86//55 80//55
f 88//56 87//55 80//55
f 79//55 88//56 80//55
f 89//55 79//55 78//55
f 78//55 90//55 89//55
f 78//55 91//55 90//55
f 78//55 92//55 91//55
f 78//55 93//55 92//55
f 94//55 78//55 95//55
f 94//55 96//55 78//55
f 78//55 96//55 93//55
f 97//57 98//58 99//58
f 100//59 97//57 99//58
f 100//59 101//60 97//57
f 97//57 101//60 102//61
f 103//62 104//63 105//64
f 106//65 107//66 108//67
f 109//68 110//69 107//66
f 111//70 98//58 97//57
f 112//71 113//72 114//71
f 112//71 115//73 113//72
f 113//72 115//73 116//74
f 116//74 115//73 110//69
f 117//75 116//74 110//69
f 109//68 117//75 110//69
f 107//66 118//76 108//67
f 108//67 118//76 104//63
f 104//63 118//76 105//64
f 119//77 105//64 120//78
f 120//78 97//57 121//79
f 102//61 122//80 123//81
f 122//80 124//82 125//83
f 126//84 127//85 128//86
f 129//87 130//88 131//89
f 132//90 133//91 134//92
f 134//92 133//91 135//93
f 135//93 133//91 136//94
f 136//94 133//91 137//95
f 137//95 133//91 131//89
f 130//88 137//95 131//89
f 129//87 131//89 128//86
f 138//96 129//87 128//86
f 126//84 125//83 124//82
f 126//84 128//86 125//83
f 125//83 123//81 122//80
f 123//81 97//57 102//61
f 123//81 121//79 97//57
f 121//79 119//77 120//78
f 105//64 119//77 103//62
f 109//68 107//66 106//65
f 138//96 128//86 127//85
f 139//1 140//1 141//1
f 139//1 142//1 143//1
f 139//1 144//1 145//1
f 139//1 146//1 147//1
f 141//1 148//1 149//1
f 141//1 150//1 151//1
f 141//1 152//1 153//1
f 154//1 155//1 156//1
f 141//1 157//1 158//1
f 155//1 141//1 159//1
f 160//97 161//97 162//97
f 163//97 164//97 165//97
s 0
f 166//97 167//97 168//97
f 167//97 169//97 170//97
f 169//98 171//97 172//97
s 1
f 173//97 174//97 175//97
f 176//97 177//97 178//97
f 179//97 180//97 181//97
f 182//97 183//97 184//97
f 185//97 186//97 187//97
f 188//97 189//97 190//97
f 191//97 192//97 193//97
f 194//97 195//97 196//97
f 197//97 198//97 199//97
f 200//97 201//97 202//97
f 203//97 204//97 205//97
f 206//97 207//97 208//97
f 209//97 210//97 211//97
f 212//97 213//97 214//97
f 215//97 216//97 217//97
f 218//97 219//97 220//97
f 216//97 221//97 222//97
f 223//97 224//97 216//97
f 225//97 226//97 227//97
f 228//97 229//97 227//97
f 230//97 231//97 227//97
f 232//97 233//97 227//97
f 234//97 235//97 227//97
f 236//97 237//97 227//97
f 238//97 239//97 227//97
f 227//97 240//97 216//97
f 241//97 242//97 216//97
f 243//97 244//97 216//97
f 245//97 246//97 216//97
f 247//97 227//97 248//97
f 249//97 250//97 251//97
f 252//97 253//97 216//97
f 254//97 255//97 256//97
s 0
f 257//97 258//97 259//98
s 1
f 260//97 261//97 259//97
s 0
f 262//97 263//97 257//97
s 1
f 264//97 265//97 266//97
f 267//99 268//99 269//99
f 270//99 271//99 272//99
f 273//100 274//100 275//100
f 276//100 277//100 278//100
f 279//101 280//101 281//101
f 282//98 283//98 284//98
f 285//98 286//98 287//98
f 288//98 289//98 285//98
f 290//98 291//98 289//98
f 292//98 293//98 291//98
f 294//98 295//98 293//98
f 296//98 297//98 295//98
f 298//102 299//102 297//102
f 300//98 301//98 299//98
f 302//102 303//102 301//102
f 304//98 305//98 303//98
f 306//98 307//98 305//98
f 308//98 309//98 307//98
f 310//98 311//98 309//98
f 309//98 312//98 313//98
f 313//98 314//98 315//98
f 315//98 316//98 317//98
f 317//98 318//98 319//98
f 319//98 320//98 321//98
f 321//98 322//98 323//98
f 323//98 324//98 325//98
f 325//102 326//102 327//102
f 327//98 328//98 329//98
f 329//98 330//98 331//98
f 332//98 333//98 334//98
f 335//98 333//98 336//98
f 337//98 332//98 338//98
f 339//98 337//98 340//98
f 341//98 339//98 342//98
f 343//98 341//98 344//98
f 345//102 343//102 346//102
f 347//98 345//98 348//98
f 284//103 347//103 349//103
f 350//98 351//98 284//98
f 352//98 353//98 283//98
f 354//98 355//98 353//98
f 356//98 357//98 355//98
f 358//102 359//102 357//102
f 360//103 361//103 359//103
f 362//98 363//98 364//98
f 362//98 365//98 366//98
f 364//98 367//98 368//98
f 368//98 369//98 370//98
f 370//98 371//98 372//98
f 372//98 373//98 374//98
f 374//104 375//104 376//104
f 376//98 377//98 378//98
f 378//98 379//98 380//98
f 380//98 381//98 382//98
f 382//98 383//98 384//98
f 384//98 385//98 386//98
f 386//98 387//98 388//98
f 388//98 389//98 390//98
f 391//98 281//98 388//98
f 392//98 280//98 393//98
f 394//98 392//98 395//98
f 396//98 394//98 397//98
f 398//102 399//102 396//102
f 400//98 401//98 399//98
f 402//98 403//98 401//98
f 404//98 405//98 403//98
f 406//98 407//98 405//98
f 331//98 408//98 336//98
f 409//98 410//98 407//98
f 411//102 365//102 361//102
f 410//98 412//98 413//98
f 414//105 415//106 416//105
f 417//107 418//108 419//107
f 420//108 421//108 419//107
f 422//109 423//109 421//108
f 424//110 425//110 423//109
f 426//111 427//111 425//112
f 428//113 427//111 429//111
f 430//114 431//115 432//115
f 433//114 431//115 434//114
f 435//116 433//117 436//116
f 435//118 437//118 438//119
f 439//119 440//119 441//120
f 442//120 443//120 444//121
f 442//120 445//122 446//122
f 446//123 447//124 448//124
f 449//124 450//125 448//124
f 451//126 452//127 453//126
f 454//128 455//128 453//129
f 456//130 457//130 455//128
f 458//131 457//130 459//130
f 460//132 461//131 462//131
f 463//132 461//131 464//132
f 465//133 463//134 466//133
f 465//133 467//133 468//135
f 469//136 470//136 471//137
f 469//136 472//138 473//138
f 473//137 474//139 475//139
f 476//140 477//141 475//140
f 478//142 479//143 480//142
f 481//144 482//144 480//142
f 483//145 484//145 482//146
f 485//147 484//148 486//148
f 487//149 488//150 489//150
f 490//151 488//150 491//151
f 492//152 490//153 493//152
f 492//154 494//155 495//156
f 496//157 497//157 498//158
f 496//157 499//158 500//158
f 500//159 501//160 502//160
f 503//160 504//1 502//160
f 505//1 506//161 507//1
f 508//161 509//161 507//1
f 510//162 511//162 509//161
f 512//163 511//164 513//164
f 514//165 515//166 516//166
f 517//167 518//168 519//168
f 520//167 518//168 521//167
f 522//169 520//170 523//169
f 522//171 524//171 525//172
f 526//173 527//174 528//175
f 526//174 529//175 530//175
f 530//176 531//177 532//177
f 533//178 534//179 532//178
f 535//180 536//181 537//180
f 538//182 539//182 537//183
f 540//184 541//184 539//181
f 542//185 541//186 543//186
f 544//187 545//185 546//185
f 547//188 545//185 548//188
f 549//189 547//188 550//189
f 549//189 551//189 552//190
f 553//190 554//190 555//191
f 553//190 556//191 557//191
f 558//192 559//193 560//192
f 561//194 562//194 558//192
f 563//194 558//192 564//192
f 559//193 565//193 566//192
f 567//195 568//196 559//196
f 569//195 570//196 567//195
f 571//195 567//195 572//197
f 573//195 572//197 574//197
f 572//197 575//198 576//197
f 575//198 577//198 578//197
f 579//199 580//200 575//200
f 581//199 582//200 579//199
f 583//199 579//199 584//201
f 585//199 584//201 586//201
f 584//202 587//203 588//202
f 587//203 589//203 590//202
f 591//204 592//205 587//205
f 593//204 594//205 591//204
f 595//206 591//206 596//207
f 597//206 596//208 598//208
f 596//209 599//210 600//209
f 599//211 601//211 602//209
f 603//212 604//210 599//210
f 605//213 606//210 603//213
f 607//214 603//214 608//215
f 609//216 608//215 610//215
f 608//215 611//217 612//215
f 611//217 613//217 614//215
f 557//191 615//218 611//218
f 616//219 617//220 557//219
f 549//189 618//190 553//190
f 547//188 619//188 620//189
f 545//185 541//186 621//185
f 622//184 539//182 623//182
f 624//179 537//179 532//178
f 625//221 626//177 530//221
f 522//171 627//172 526//172
f 520//222 628//222 629//169
f 518//223 515//166 630//165
f 515//163 511//164 631//163
f 632//162 509//161 633//161
f 634//1 507//1 502//160
f 635//159 636//160 500//159
f 492//154 637//156 496//156
f 490//153 638//153 639//152
f 488//147 484//148 640//147
f 641//145 482//146 642//146
f 643//141 480//141 475//140
f 644//137 645//139 473//137
f 465//133 646//135 469//135
f 463//132 647//132 648//133
f 461//131 457//130 649//131
f 650//130 455//128 651//128
f 652//125 453//125 448//124
f 653//224 654//124 446//224
f 439//119 655//225 442//225
f 435//118 656//226 439//226
f 433//117 657//117 658//116
f 659//112 660//111 425//112
f 421//108 661//108 662//109
f 416//105 663//227 664//105
f 416//105 665//227 666//227
f 667//113 431//113 427//111
f 423//109 668//109 669//110
f 419//106 416//105 670//106
f 671//228 672//229 673//230
f 674//231 675//232 676//233
f 677//234 678//235 679//229
f 680//236 681//235 682//237
f 683//238 684//239 685//240
f 686//241 687//240 688//242
f 689//243 690//242 691//244
f 692//245 693//246 694//247
f 695//244 696//248 697//249
f 698//248 699//250 700//251
f 701//250 702//252 703//251
f 704//253 705//254 706//252
f 707//255 708//256 709//254
f 710//257 711//258 712//255
f 713//259 714//260 715//261
f 716//259 717//257 718//262
f 719//259 720//262 721//263
f 722//262 723//264 724//263
f 725//265 726//266 727//267
f 728//264 729//265 730//263
f 731//266 732//268 733//269
f 734//270 735//271 736//272
f 737//271 738//273 739//274
f 738//275 740//276 741//274
f 742//274 743//277 744//278
f 745//279 746//278 747//280
f 748//279 749//281 750//282
f 751//283 752//284 753//285
f 754//284 755//286 756//287
f 757//288 758//289 759//290
f 760//289 761//291 762//290
f 763//292 764//293 765//291
f 766//294 767//295 768//296
f 769//297 770//298 771//299
f 772//300 773//301 774//302
f 775//303 776//300 777//303
f 778//304 779//303 780//303
f 781//304 782//303 783//305
f 784//304 785//305 786//306
f 787//307 788//308 789//309
f 790//310 791//311 792//312
f 793//313 794//314 795//315
f 796//316 797//317 798//318
f 799//319 800//320 801//317
f 802//321 803//322 804//320
f 805//323 806//324 807//325
f 808//326 809//323 810//327
f 811//328 812//329 813//330
f 814//331 815//328 816//332
f 817//333 818//334 819//335
f 820//336 821//337 822//335
f 823//338 824//334 825//333
f 826//339 827//338 828//340
f 829//341 830//339 831//342
f 832//343 833//341 834//344
f 835//345 836//337 837//328
f 838//346 839//347 840//348
f 841//349 842//350 843//351
f 844//349 845//352 846//353
f 847//351 848//354 849//355
f 850//354 851//356 852//355
f 853//357 854//358 855//354
f 856//359 857//358 858//357
f 859//359 860//357 861//360
f 862//359 863//360 864//361
f 865//359 866//361 867//362
f 868//361 869//363 870//362
f 871//364 872//365 873//362
f 874//366 875//365 876//367
f 877//368 878//365 879//369
f 880//370 881//366 882//371
f 883//372 884//373 885//374
f 886//372 887//375 888//376
f 889//375 890//377 891//378
f 892//377 893//379 894//378
f 895//380 896//381 897//377
f 898//382 899//379 900//383
f 901//384 902//380 903//385
f 904//382 905//385 906//386
f 907//385 908//387 909//386
f 910//387 911//388 912//386
f 913//389 914//344 915//387
f 916//341 917//342 918//344
f 919//339 920//340 921//342
f 922//338 923//390 924//340
f 925//391 926//392 927//335
f 928//393 929//328 930//337
f 931//328 814//331 835//394
f 932//395 816//332 933//328
f 934//396 935//395 936//329
f 937//321 938//327 939//323
f 940//320 941//397 942//321
f 943//317 944//316 945//398
f 946//399 947//313 948//316
f 949//315 950//312 951//313
f 952//308 953//306 954//305
f 955//400 956//302 957//303
f 958//401 959//299 960//302
f 961//295 962//402 963//292
f 964//292 965//291 966//289
f 967//288 968//290 969//403
f 970//284 971//404 972//405
f 973//281 974//284 975//283
f 976//274 977//406 978//279
f 740//276 743//407 979//408
f 980//271 981//409 982//272
f 983//410 984//411 985//269
f 986//264 987//266 988//265
f 989//261 990//412 991//258
f 992//253 993//413 994//414
f 995//250 996//253 997//252
f 998//415 999//245 1000//416
f 1001//238 1002//240 1003//241
f 1004//236 1005//237 1006//238
f 1007//235 1008//417 1009//237
f 1010//418 1011//419 1012//229
f 1013//420 1014//421 1015//422
f 1016//242 1017//243 1018//241
f 1019//251 1020//249 1021//248
f 1022//423 1023//420 1024//233
f 95//55 78//55 1025//424
f 1026//424 1027//425 95//55
f 95//55 1028//426 1029//427
s 0
f 1030//427 1031//55 1032//428
s 1
f 1033//429 132//90 134//92
f 1034//430 1035//431 132//90
f 1036//432 1037//427 1038//428
f 1039//431 1040//433 132//90
f 67//43 1041//434 1042//435
f 64//43 67//43 1043//435
f 1044//436 67//43 1045//437
f 80//55 82//55 1046//438
f 1047//438 82//439 1048//440
f 1049//441 82//55 1050//442
s 0
f 1051//55 1052//440 1053//443
s 1
f 1054//444 1055//443 1056//445
