# Blender 4.4.3
# www.blender.org
mtllib Mesh_22.007.mtl
o Mesh_22.007
v 0.017600 0.008970 -0.010320
v 0.017600 0.008970 -0.010243
v 0.017600 0.008959 -0.010294
v 0.017600 0.008970 -0.010079
v 0.017600 0.008959 -0.010106
v 0.017600 0.008970 -0.010157
v 0.017600 0.008636 -0.010079
v 0.017600 0.008636 -0.010157
v 0.017600 0.008647 -0.010106
v 0.017600 0.008636 -0.010320
v 0.017600 0.008647 -0.010294
v 0.017600 0.008636 -0.010243
v 0.017600 0.008970 -0.010398
v 0.017600 0.008904 -0.010293
v 0.017600 0.008803 -0.010398
v 0.017600 0.008959 -0.010296
v 0.017600 0.008959 -0.010243
v 0.017600 0.008933 -0.010304
v 0.017600 0.008958 -0.010298
v 0.017600 0.008957 -0.010300
v 0.017600 0.008956 -0.010301
v 0.017600 0.008955 -0.010302
v 0.017600 0.008953 -0.010303
v 0.017600 0.008951 -0.010304
v 0.017600 0.008949 -0.010304
v 0.017600 0.008939 -0.010304
v 0.017600 0.008927 -0.010303
v 0.017600 0.008921 -0.010301
v 0.017600 0.008915 -0.010299
v 0.017600 0.008909 -0.010296
v 0.017600 0.008636 -0.010398
v 0.017600 0.008702 -0.010293
v 0.017600 0.008899 -0.010289
v 0.017600 0.008707 -0.010289
v 0.017600 0.008894 -0.010285
v 0.017600 0.008712 -0.010285
v 0.017600 0.008890 -0.010281
v 0.017600 0.008716 -0.010281
v 0.017600 0.008886 -0.010276
v 0.017600 0.008720 -0.010276
v 0.017600 0.008883 -0.010270
v 0.017600 0.008880 -0.010264
v 0.017600 0.008723 -0.010270
v 0.017600 0.008726 -0.010264
v 0.017600 0.008729 -0.010252
v 0.017600 0.008877 -0.010252
v 0.017600 0.008876 -0.010246
v 0.017600 0.008730 -0.010246
v 0.017600 0.008875 -0.010240
v 0.017600 0.008731 -0.010240
v 0.017600 0.008875 -0.010160
v 0.017600 0.008876 -0.010154
v 0.017600 0.008731 -0.010160
v 0.017600 0.008730 -0.010154
v 0.017600 0.008729 -0.010148
v 0.017600 0.008877 -0.010148
v 0.017600 0.008878 -0.010141
v 0.017600 0.008728 -0.010141
v 0.017600 0.008880 -0.010136
v 0.017600 0.008723 -0.010130
v 0.017600 0.008726 -0.010136
v 0.017600 0.008883 -0.010130
v 0.017600 0.008886 -0.010124
v 0.017600 0.008712 -0.010115
v 0.017600 0.008894 -0.010115
v 0.017600 0.008899 -0.010111
v 0.017600 0.008716 -0.010119
v 0.017600 0.008970 -0.010000
v 0.017600 0.008702 -0.010107
v 0.017600 0.008904 -0.010107
v 0.017600 0.008707 -0.010111
v 0.017600 0.008933 -0.010096
v 0.017600 0.008921 -0.010099
v 0.017600 0.008927 -0.010097
v 0.017600 0.008939 -0.010096
v 0.017600 0.008915 -0.010101
v 0.017600 0.008949 -0.010096
v 0.017600 0.008951 -0.010096
v 0.017600 0.008953 -0.010097
v 0.017600 0.008955 -0.010098
v 0.017600 0.008956 -0.010099
v 0.017600 0.008909 -0.010104
v 0.017600 0.008957 -0.010100
v 0.017600 0.008958 -0.010102
v 0.017600 0.008890 -0.010119
v 0.017600 0.008720 -0.010124
v 0.017600 0.008959 -0.010104
v 0.017600 0.008647 -0.010104
v 0.017600 0.008647 -0.010157
v 0.017600 0.008673 -0.010096
v 0.017600 0.008636 -0.010000
v 0.017600 0.008648 -0.010102
v 0.017600 0.008649 -0.010100
v 0.017600 0.008650 -0.010099
v 0.017600 0.008651 -0.010098
v 0.017600 0.008653 -0.010097
v 0.017600 0.008655 -0.010096
v 0.017600 0.008657 -0.010096
v 0.017600 0.008666 -0.010096
v 0.017600 0.008679 -0.010097
v 0.017600 0.008685 -0.010099
v 0.017600 0.008691 -0.010101
v 0.017600 0.008697 -0.010104
v 0.017600 0.008959 -0.010157
v 0.017600 0.008728 -0.010259
v 0.017600 0.008878 -0.010259
v 0.017600 0.008697 -0.010296
v 0.017600 0.008691 -0.010299
v 0.017600 0.008685 -0.010301
v 0.017600 0.008679 -0.010303
v 0.017600 0.008673 -0.010304
v 0.017600 0.008666 -0.010304
v 0.017600 0.008653 -0.010303
v 0.017600 0.008655 -0.010304
v 0.017600 0.008657 -0.010304
v 0.017600 0.008651 -0.010302
v 0.017600 0.008650 -0.010301
v 0.017600 0.008649 -0.010300
v 0.017600 0.008648 -0.010298
v 0.017600 0.008647 -0.010296
v 0.017600 0.008647 -0.010243
v 0.017575 0.008995 -0.010243
v 0.017577 0.008993 -0.010243
v 0.017567 0.009003 -0.010253
v 0.017600 0.008970 -0.010243
v 0.017573 0.008997 -0.010244
v 0.017570 0.009000 -0.010246
v 0.017571 0.008999 -0.010245
v 0.017568 0.009002 -0.010249
v 0.017569 0.009001 -0.010247
v 0.017567 0.009003 -0.010251
v 0.017600 0.008970 -0.010320
v 0.017573 0.008997 -0.010395
v 0.017600 0.008970 -0.010320
v 0.017600 0.008970 -0.010398
v 0.017573 0.008997 -0.010400
v 0.017567 0.009003 -0.010400
v 0.017600 0.008970 -0.010320
v 0.017600 0.008970 -0.010243
v 0.017560 0.008603 -0.010400
v 0.017573 0.008609 -0.010400
v 0.017567 0.008603 -0.010400
v 0.017560 0.009003 -0.010400
v 0.017573 0.008997 -0.010400
v 0.017573 0.008803 -0.010400
v 0.017567 0.009003 -0.010400
v 0.017573 0.008997 -0.010400
v 0.017567 0.008603 -0.010400
v 0.017573 0.008609 -0.010395
v 0.017567 0.008603 -0.010253
v 0.017600 0.008636 -0.010320
v 0.017600 0.008636 -0.010320
v 0.017600 0.008636 -0.010243
v 0.017575 0.008611 -0.010243
v 0.017577 0.008613 -0.010243
v 0.017573 0.008609 -0.010244
v 0.017570 0.008606 -0.010246
v 0.017569 0.008605 -0.010247
v 0.017571 0.008607 -0.010245
v 0.017568 0.008604 -0.010249
v 0.017600 0.008636 -0.010243
v 0.017600 0.008636 -0.010320
v 0.017600 0.008636 -0.010398
v 0.017567 0.008603 -0.010251
v 0.017567 0.008603 -0.010400
v 0.017573 0.008609 -0.010400
v 0.017560 0.008803 -0.010022
v 0.017560 0.008803 -0.010000
v 0.017560 0.008843 -0.010022
v 0.017560 0.008783 -0.010170
v 0.017560 0.008726 -0.010136
v 0.017560 0.008723 -0.010130
v 0.017560 0.008783 -0.010180
v 0.017560 0.008773 -0.010180
v 0.017560 0.008883 -0.010130
v 0.017560 0.008823 -0.010170
v 0.017560 0.008843 -0.010042
v 0.017560 0.008833 -0.010180
v 0.017560 0.008875 -0.010160
v 0.017560 0.008833 -0.010220
v 0.017560 0.008875 -0.010240
v 0.017560 0.008880 -0.010136
v 0.017560 0.008878 -0.010141
v 0.017560 0.008823 -0.010230
v 0.017560 0.008876 -0.010246
v 0.017560 0.008783 -0.010230
v 0.017560 0.008886 -0.010276
v 0.017560 0.008878 -0.010259
v 0.017560 0.008880 -0.010264
v 0.017560 0.008877 -0.010252
v 0.017560 0.008731 -0.010240
v 0.017560 0.008731 -0.010160
v 0.017560 0.008730 -0.010154
v 0.017560 0.008823 -0.010220
v 0.017560 0.009002 -0.010006
v 0.017560 0.009003 -0.010008
v 0.017560 0.009003 -0.010010
v 0.017560 0.009001 -0.010004
v 0.017560 0.009000 -0.010003
v 0.017560 0.008999 -0.010002
v 0.017560 0.008997 -0.010001
v 0.017560 0.008995 -0.010000
v 0.017560 0.008993 -0.010000
v 0.017560 0.008673 -0.010096
v 0.017560 0.008613 -0.010000
v 0.017560 0.008763 -0.010022
v 0.017560 0.008666 -0.010096
v 0.017560 0.008657 -0.010096
v 0.017560 0.008655 -0.010096
v 0.017560 0.008603 -0.010010
v 0.017560 0.008607 -0.010002
v 0.017560 0.008606 -0.010003
v 0.017560 0.008609 -0.010001
v 0.017560 0.008611 -0.010000
v 0.017560 0.008604 -0.010006
v 0.017560 0.008605 -0.010004
v 0.017560 0.008603 -0.010008
v 0.017560 0.008603 -0.010147
v 0.017560 0.008648 -0.010102
v 0.017560 0.008647 -0.010104
v 0.017560 0.008613 -0.010157
v 0.017560 0.008647 -0.010106
v 0.017560 0.008603 -0.010149
v 0.017560 0.008604 -0.010151
v 0.017560 0.008605 -0.010153
v 0.017560 0.008607 -0.010155
v 0.017560 0.008609 -0.010156
v 0.017560 0.008606 -0.010154
v 0.017560 0.008611 -0.010157
v 0.017560 0.008647 -0.010157
v 0.017560 0.008649 -0.010100
v 0.017560 0.008650 -0.010099
v 0.017560 0.008651 -0.010098
v 0.017560 0.008653 -0.010097
v 0.017560 0.008763 -0.010042
v 0.017560 0.008679 -0.010097
v 0.017560 0.008685 -0.010099
v 0.017560 0.008691 -0.010101
v 0.017560 0.008697 -0.010104
v 0.017560 0.008712 -0.010115
v 0.017560 0.008707 -0.010111
v 0.017560 0.008702 -0.010107
v 0.017560 0.008716 -0.010119
v 0.017560 0.008720 -0.010124
v 0.017560 0.008728 -0.010141
v 0.017560 0.008773 -0.010220
v 0.017560 0.008730 -0.010246
v 0.017560 0.008883 -0.010270
v 0.017560 0.008729 -0.010252
v 0.017560 0.008729 -0.010148
v 0.017560 0.008723 -0.010270
v 0.017560 0.008726 -0.010264
v 0.017560 0.008728 -0.010259
v 0.017560 0.008720 -0.010276
v 0.017560 0.008894 -0.010285
v 0.017560 0.008707 -0.010289
v 0.017560 0.008712 -0.010285
v 0.017560 0.008890 -0.010281
v 0.017560 0.008697 -0.010296
v 0.017560 0.008702 -0.010293
v 0.017560 0.008904 -0.010293
v 0.017560 0.008899 -0.010289
v 0.017560 0.008691 -0.010299
v 0.017560 0.008603 -0.010400
v 0.017560 0.008685 -0.010301
v 0.017560 0.008666 -0.010304
v 0.017560 0.008603 -0.010400
v 0.017560 0.008657 -0.010304
v 0.017560 0.008603 -0.010400
v 0.017560 0.008673 -0.010304
v 0.017560 0.008679 -0.010303
v 0.017560 0.008603 -0.010400
v 0.017560 0.008655 -0.010304
v 0.017560 0.008603 -0.010400
v 0.017560 0.008653 -0.010303
v 0.017560 0.008603 -0.010400
v 0.017560 0.008651 -0.010302
v 0.017560 0.008603 -0.010400
v 0.017560 0.008650 -0.010301
v 0.017560 0.008603 -0.010400
v 0.017560 0.008649 -0.010300
v 0.017560 0.008603 -0.010400
v 0.017560 0.008648 -0.010298
v 0.017560 0.008603 -0.010400
v 0.017560 0.008603 -0.010253
v 0.017560 0.008603 -0.010400
v 0.017560 0.008909 -0.010296
v 0.017560 0.008716 -0.010281
v 0.017560 0.008783 -0.010220
v 0.017560 0.008877 -0.010148
v 0.017560 0.008876 -0.010154
v 0.017560 0.008647 -0.010294
v 0.017560 0.008613 -0.010243
v 0.017560 0.008647 -0.010243
v 0.017560 0.008611 -0.010243
v 0.017560 0.008604 -0.010249
v 0.017560 0.008603 -0.010251
v 0.017560 0.009003 -0.010253
v 0.017560 0.008958 -0.010298
v 0.017560 0.008959 -0.010296
v 0.017560 0.008993 -0.010243
v 0.017560 0.008959 -0.010294
v 0.017560 0.009003 -0.010251
v 0.017560 0.009002 -0.010249
v 0.017560 0.009001 -0.010247
v 0.017560 0.008999 -0.010245
v 0.017560 0.008997 -0.010244
v 0.017560 0.009000 -0.010246
v 0.017560 0.008995 -0.010243
v 0.017560 0.009003 -0.010400
v 0.017560 0.008959 -0.010243
v 0.017560 0.008957 -0.010300
v 0.017560 0.009003 -0.010400
v 0.017560 0.008956 -0.010301
v 0.017560 0.009003 -0.010400
v 0.017560 0.008955 -0.010302
v 0.017560 0.009003 -0.010400
v 0.017560 0.008953 -0.010303
v 0.017560 0.009003 -0.010400
v 0.017560 0.009003 -0.010400
v 0.017560 0.008951 -0.010304
v 0.017560 0.009003 -0.010400
v 0.017560 0.008939 -0.010304
v 0.017560 0.008949 -0.010304
v 0.017560 0.009003 -0.010400
v 0.017560 0.008933 -0.010304
v 0.017560 0.009003 -0.010400
v 0.017560 0.008921 -0.010301
v 0.017560 0.008927 -0.010303
v 0.017560 0.009003 -0.010400
v 0.017560 0.008915 -0.010299
v 0.017560 0.009003 -0.010400
v 0.017560 0.009003 -0.010400
v 0.017560 0.008603 -0.010400
v 0.017560 0.008603 -0.010400
v 0.017560 0.008647 -0.010296
v 0.017560 0.008603 -0.010400
v 0.017560 0.008609 -0.010244
v 0.017560 0.008607 -0.010245
v 0.017560 0.008605 -0.010247
v 0.017560 0.008606 -0.010246
v 0.017560 0.008823 -0.010180
v 0.017560 0.008894 -0.010115
v 0.017560 0.008890 -0.010119
v 0.017560 0.008886 -0.010124
v 0.017560 0.008899 -0.010111
v 0.017560 0.008904 -0.010107
v 0.017560 0.008909 -0.010104
v 0.017560 0.008915 -0.010101
v 0.017560 0.008921 -0.010099
v 0.017560 0.008927 -0.010097
v 0.017560 0.008933 -0.010096
v 0.017560 0.008939 -0.010096
v 0.017560 0.008953 -0.010097
v 0.017560 0.008951 -0.010096
v 0.017560 0.008949 -0.010096
v 0.017560 0.008955 -0.010098
v 0.017560 0.008956 -0.010099
v 0.017560 0.008957 -0.010100
v 0.017560 0.008958 -0.010102
v 0.017560 0.009003 -0.010147
v 0.017560 0.008959 -0.010104
v 0.017560 0.008959 -0.010106
v 0.017560 0.008993 -0.010157
v 0.017560 0.008959 -0.010157
v 0.017560 0.008995 -0.010157
v 0.017560 0.008603 -0.010400
v 0.017560 0.009003 -0.010400
v 0.017560 0.009003 -0.010400
v 0.017560 0.008997 -0.010156
v 0.017560 0.008999 -0.010155
v 0.017560 0.009000 -0.010154
v 0.017560 0.009001 -0.010153
v 0.017560 0.009002 -0.010151
v 0.017560 0.009003 -0.010149
v 0.017560 0.009003 -0.010010
v 0.017567 0.009003 -0.010010
v 0.017560 0.009003 -0.010147
v 0.017560 0.009003 -0.010147
v 0.017567 0.009003 -0.010147
v 0.017560 0.009003 -0.010253
v 0.017567 0.009003 -0.010253
v 0.017560 0.009003 -0.010400
v 0.017560 0.009003 -0.010400
v 0.017567 0.009003 -0.010253
v 0.017567 0.009003 -0.010400
v 0.017600 0.008970 -0.010079
v 0.017567 0.009003 -0.010010
v 0.017600 0.008970 -0.010000
v 0.017600 0.008970 -0.010079
v 0.017600 0.008970 -0.010157
v 0.017567 0.009003 -0.010147
v 0.017577 0.008993 -0.010000
v 0.017600 0.008970 -0.010000
v 0.017567 0.009003 -0.010010
v 0.017575 0.008995 -0.010000
v 0.017567 0.009003 -0.010010
v 0.017573 0.008997 -0.010001
v 0.017567 0.009003 -0.010010
v 0.017571 0.008999 -0.010002
v 0.017567 0.009003 -0.010010
v 0.017570 0.009000 -0.010003
v 0.017568 0.009002 -0.010006
v 0.017569 0.009001 -0.010004
v 0.017567 0.009003 -0.010010
v 0.017567 0.009003 -0.010010
v 0.017567 0.009003 -0.010008
v 0.017567 0.009003 -0.010010
v 0.017567 0.009003 -0.010010
v 0.017567 0.009003 -0.010010
v 0.017600 0.008970 -0.010079
v 0.017567 0.009003 -0.010147
v 0.017567 0.009003 -0.010147
v 0.017600 0.008970 -0.010157
v 0.017577 0.008993 -0.010157
v 0.017575 0.008995 -0.010157
v 0.017567 0.009003 -0.010147
v 0.017573 0.008997 -0.010156
v 0.017567 0.009003 -0.010147
v 0.017567 0.009003 -0.010147
v 0.017570 0.009000 -0.010154
v 0.017569 0.009001 -0.010153
v 0.017567 0.009003 -0.010147
v 0.017571 0.008999 -0.010155
v 0.017567 0.009003 -0.010149
v 0.017567 0.009003 -0.010147
v 0.017568 0.009002 -0.010151
v 0.017567 0.009003 -0.010147
v 0.017567 0.009003 -0.010147
v 0.017560 0.008603 -0.010147
v 0.017567 0.008603 -0.010147
v 0.017560 0.008603 -0.010010
v 0.017560 0.008603 -0.010010
v 0.017567 0.008603 -0.010010
v 0.017600 0.008636 -0.010079
v 0.017567 0.008603 -0.010147
v 0.017600 0.008636 -0.010157
v 0.017600 0.008636 -0.010079
v 0.017600 0.008636 -0.010000
v 0.017567 0.008603 -0.010010
v 0.017577 0.008613 -0.010157
v 0.017600 0.008636 -0.010157
v 0.017567 0.008603 -0.010147
v 0.017575 0.008611 -0.010157
v 0.017567 0.008603 -0.010147
v 0.017573 0.008609 -0.010156
v 0.017567 0.008603 -0.010147
v 0.017571 0.008607 -0.010155
v 0.017567 0.008603 -0.010147
v 0.017570 0.008606 -0.010154
v 0.017568 0.008604 -0.010151
v 0.017569 0.008605 -0.010153
v 0.017567 0.008603 -0.010147
v 0.017567 0.008603 -0.010147
v 0.017567 0.008603 -0.010149
v 0.017567 0.008603 -0.010147
v 0.017567 0.008603 -0.010147
v 0.017567 0.008603 -0.010147
v 0.017600 0.008636 -0.010079
v 0.017567 0.008603 -0.010010
v 0.017567 0.008603 -0.010010
v 0.017600 0.008636 -0.010000
v 0.017577 0.008613 -0.010000
v 0.017575 0.008611 -0.010000
v 0.017567 0.008603 -0.010010
v 0.017573 0.008609 -0.010001
v 0.017567 0.008603 -0.010010
v 0.017567 0.008603 -0.010010
v 0.017570 0.008606 -0.010003
v 0.017569 0.008605 -0.010004
v 0.017567 0.008603 -0.010010
v 0.017571 0.008607 -0.010002
v 0.017567 0.008603 -0.010008
v 0.017567 0.008603 -0.010010
v 0.017568 0.008604 -0.010006
v 0.017567 0.008603 -0.010010
v 0.017567 0.008603 -0.010010
v 0.017600 0.008970 -0.010000
v 0.017560 0.008803 -0.010000
v 0.017600 0.008636 -0.010000
v 0.017600 0.008970 -0.010000
v 0.017577 0.008993 -0.010000
v 0.017560 0.008993 -0.010000
v 0.017600 0.008636 -0.010000
v 0.017560 0.008803 -0.010000
v 0.017560 0.008613 -0.010000
v 0.017577 0.008613 -0.010000
v 0.017600 0.008636 -0.010000
v 0.017560 0.008613 -0.010000
v 0.017560 0.008803 -0.010000
v 0.017600 0.008970 -0.010000
v 0.017560 0.008993 -0.010000
v 0.017560 0.008603 -0.010400
v 0.017567 0.008603 -0.010400
v 0.017560 0.008603 -0.010253
v 0.017560 0.008603 -0.010253
v 0.017567 0.008603 -0.010400
v 0.017567 0.008603 -0.010253
v 0.017560 0.008731 -0.010240
v 0.017600 0.008731 -0.010240
v 0.017560 0.008731 -0.010160
v 0.017600 0.008731 -0.010240
v 0.017600 0.008731 -0.010160
v 0.017560 0.008731 -0.010160
v 0.017560 0.008673 -0.010096
v 0.017560 0.008679 -0.010097
v 0.017600 0.008673 -0.010096
v 0.017560 0.008679 -0.010097
v 0.017560 0.008685 -0.010099
v 0.017600 0.008679 -0.010097
v 0.017560 0.008685 -0.010099
v 0.017600 0.008685 -0.010099
v 0.017600 0.008679 -0.010097
v 0.017560 0.008691 -0.010101
v 0.017600 0.008691 -0.010101
v 0.017600 0.008685 -0.010099
v 0.017560 0.008697 -0.010104
v 0.017600 0.008691 -0.010101
v 0.017560 0.008691 -0.010101
v 0.017560 0.008702 -0.010107
v 0.017600 0.008697 -0.010104
v 0.017560 0.008697 -0.010104
v 0.017600 0.008702 -0.010107
v 0.017600 0.008697 -0.010104
v 0.017560 0.008702 -0.010107
v 0.017600 0.008707 -0.010111
v 0.017600 0.008702 -0.010107
v 0.017560 0.008707 -0.010111
v 0.017600 0.008707 -0.010111
v 0.017560 0.008707 -0.010111
v 0.017560 0.008712 -0.010115
v 0.017600 0.008712 -0.010115
v 0.017560 0.008712 -0.010115
v 0.017560 0.008716 -0.010119
v 0.017600 0.008712 -0.010115
v 0.017560 0.008716 -0.010119
v 0.017600 0.008716 -0.010119
v 0.017600 0.008716 -0.010119
v 0.017560 0.008720 -0.010124
v 0.017600 0.008720 -0.010124
v 0.017560 0.008720 -0.010124
v 0.017560 0.008723 -0.010130
v 0.017600 0.008720 -0.010124
v 0.017560 0.008723 -0.010130
v 0.017560 0.008726 -0.010136
v 0.017600 0.008723 -0.010130
v 0.017560 0.008726 -0.010136
v 0.017600 0.008726 -0.010136
v 0.017600 0.008723 -0.010130
v 0.017560 0.008673 -0.010096
v 0.017600 0.008673 -0.010096
v 0.017560 0.008666 -0.010096
v 0.017600 0.008730 -0.010154
v 0.017560 0.008731 -0.010160
v 0.017600 0.008731 -0.010160
v 0.017560 0.008730 -0.010154
v 0.017560 0.008731 -0.010160
v 0.017600 0.008730 -0.010154
v 0.017560 0.008730 -0.010154
v 0.017600 0.008730 -0.010154
v 0.017600 0.008729 -0.010148
v 0.017560 0.008730 -0.010154
v 0.017600 0.008729 -0.010148
v 0.017560 0.008729 -0.010148
v 0.017600 0.008729 -0.010148
v 0.017600 0.008728 -0.010141
v 0.017560 0.008729 -0.010148
v 0.017600 0.008728 -0.010141
v 0.017560 0.008728 -0.010141
v 0.017560 0.008729 -0.010148
v 0.017600 0.008726 -0.010136
v 0.017560 0.008728 -0.010141
v 0.017600 0.008728 -0.010141
v 0.017560 0.008726 -0.010136
v 0.017560 0.008728 -0.010141
v 0.017600 0.008726 -0.010136
v 0.017600 0.008720 -0.010124
v 0.017560 0.008723 -0.010130
v 0.017600 0.008723 -0.010130
v 0.017600 0.008716 -0.010119
v 0.017560 0.008716 -0.010119
v 0.017560 0.008720 -0.010124
v 0.017600 0.008712 -0.010115
v 0.017600 0.008707 -0.010111
v 0.017560 0.008712 -0.010115
v 0.017560 0.008707 -0.010111
v 0.017600 0.008702 -0.010107
v 0.017560 0.008702 -0.010107
v 0.017560 0.008697 -0.010104
v 0.017600 0.008697 -0.010104
v 0.017600 0.008691 -0.010101
v 0.017560 0.008685 -0.010099
v 0.017560 0.008691 -0.010101
v 0.017600 0.008685 -0.010099
v 0.017600 0.008673 -0.010096
v 0.017600 0.008666 -0.010096
v 0.017560 0.008666 -0.010096
v 0.017560 0.008679 -0.010097
v 0.017600 0.008679 -0.010097
v 0.017600 0.008673 -0.010096
v 0.017600 0.008657 -0.010096
v 0.017560 0.008657 -0.010096
v 0.017600 0.008666 -0.010096
v 0.017560 0.008657 -0.010096
v 0.017560 0.008666 -0.010096
v 0.017600 0.008666 -0.010096
v 0.017560 0.008647 -0.010106
v 0.017600 0.008647 -0.010106
v 0.017560 0.008647 -0.010157
v 0.017600 0.008647 -0.010106
v 0.017600 0.008647 -0.010157
v 0.017560 0.008647 -0.010157
v 0.017600 0.008647 -0.010294
v 0.017560 0.008647 -0.010294
v 0.017600 0.008647 -0.010243
v 0.017560 0.008647 -0.010294
v 0.017560 0.008647 -0.010243
v 0.017600 0.008647 -0.010243
v 0.017560 0.008657 -0.010304
v 0.017600 0.008657 -0.010304
v 0.017560 0.008666 -0.010304
v 0.017600 0.008657 -0.010304
v 0.017600 0.008666 -0.010304
v 0.017560 0.008666 -0.010304
v 0.017560 0.008730 -0.010246
v 0.017560 0.008729 -0.010252
v 0.017600 0.008730 -0.010246
v 0.017560 0.008729 -0.010252
v 0.017560 0.008728 -0.010259
v 0.017600 0.008729 -0.010252
v 0.017560 0.008728 -0.010259
v 0.017600 0.008728 -0.010259
v 0.017600 0.008729 -0.010252
v 0.017560 0.008726 -0.010264
v 0.017600 0.008726 -0.010264
v 0.017600 0.008728 -0.010259
v 0.017560 0.008723 -0.010270
v 0.017600 0.008726 -0.010264
v 0.017560 0.008726 -0.010264
v 0.017560 0.008720 -0.010276
v 0.017600 0.008723 -0.010270
v 0.017560 0.008723 -0.010270
v 0.017600 0.008720 -0.010276
v 0.017600 0.008723 -0.010270
v 0.017560 0.008720 -0.010276
v 0.017600 0.008716 -0.010281
v 0.017600 0.008720 -0.010276
v 0.017560 0.008716 -0.010281
v 0.017600 0.008716 -0.010281
v 0.017560 0.008716 -0.010281
v 0.017560 0.008712 -0.010285
v 0.017600 0.008712 -0.010285
v 0.017560 0.008712 -0.010285
v 0.017560 0.008707 -0.010289
v 0.017600 0.008712 -0.010285
v 0.017560 0.008707 -0.010289
v 0.017600 0.008707 -0.010289
v 0.017600 0.008707 -0.010289
v 0.017560 0.008702 -0.010293
v 0.017600 0.008702 -0.010293
v 0.017560 0.008702 -0.010293
v 0.017560 0.008697 -0.010296
v 0.017600 0.008702 -0.010293
v 0.017560 0.008697 -0.010296
v 0.017560 0.008691 -0.010299
v 0.017600 0.008697 -0.010296
v 0.017560 0.008691 -0.010299
v 0.017600 0.008691 -0.010299
v 0.017600 0.008697 -0.010296
v 0.017560 0.008730 -0.010246
v 0.017600 0.008730 -0.010246
v 0.017560 0.008731 -0.010240
v 0.017600 0.008673 -0.010304
v 0.017560 0.008666 -0.010304
v 0.017600 0.008666 -0.010304
v 0.017560 0.008673 -0.010304
v 0.017560 0.008666 -0.010304
v 0.017600 0.008673 -0.010304
v 0.017560 0.008673 -0.010304
v 0.017600 0.008673 -0.010304
v 0.017600 0.008679 -0.010303
v 0.017560 0.008673 -0.010304
v 0.017600 0.008679 -0.010303
v 0.017560 0.008679 -0.010303
v 0.017600 0.008679 -0.010303
v 0.017600 0.008685 -0.010301
v 0.017560 0.008679 -0.010303
v 0.017600 0.008685 -0.010301
v 0.017560 0.008685 -0.010301
v 0.017560 0.008679 -0.010303
v 0.017600 0.008691 -0.010299
v 0.017560 0.008685 -0.010301
v 0.017600 0.008685 -0.010301
v 0.017560 0.008691 -0.010299
v 0.017560 0.008685 -0.010301
v 0.017600 0.008691 -0.010299
v 0.017600 0.008702 -0.010293
v 0.017560 0.008697 -0.010296
v 0.017600 0.008697 -0.010296
v 0.017600 0.008707 -0.010289
v 0.017560 0.008707 -0.010289
v 0.017560 0.008702 -0.010293
v 0.017600 0.008712 -0.010285
v 0.017600 0.008716 -0.010281
v 0.017560 0.008712 -0.010285
v 0.017560 0.008716 -0.010281
v 0.017600 0.008720 -0.010276
v 0.017560 0.008720 -0.010276
v 0.017560 0.008723 -0.010270
v 0.017600 0.008723 -0.010270
v 0.017600 0.008726 -0.010264
v 0.017560 0.008728 -0.010259
v 0.017560 0.008726 -0.010264
v 0.017600 0.008728 -0.010259
v 0.017600 0.008730 -0.010246
v 0.017600 0.008731 -0.010240
v 0.017560 0.008731 -0.010240
v 0.017560 0.008729 -0.010252
v 0.017600 0.008729 -0.010252
v 0.017600 0.008730 -0.010246
v 0.017577 0.008613 -0.010157
v 0.017560 0.008647 -0.010157
v 0.017600 0.008636 -0.010157
v 0.017560 0.008613 -0.010157
v 0.017560 0.008647 -0.010157
v 0.017577 0.008613 -0.010157
v 0.017600 0.008647 -0.010157
v 0.017600 0.008636 -0.010157
v 0.017560 0.008647 -0.010157
v 0.017560 0.008613 -0.010243
v 0.017577 0.008613 -0.010243
v 0.017560 0.008647 -0.010243
v 0.017600 0.008636 -0.010243
v 0.017600 0.008647 -0.010243
v 0.017560 0.008647 -0.010243
v 0.017577 0.008613 -0.010243
v 0.017600 0.008636 -0.010243
v 0.017560 0.008647 -0.010243
v 0.017560 0.008875 -0.010240
v 0.017560 0.008875 -0.010160
v 0.017600 0.008875 -0.010240
v 0.017600 0.008875 -0.010240
v 0.017560 0.008875 -0.010160
v 0.017600 0.008875 -0.010160
v 0.017600 0.008939 -0.010096
v 0.017600 0.008933 -0.010096
v 0.017560 0.008939 -0.010096
v 0.017600 0.008933 -0.010096
v 0.017560 0.008933 -0.010096
v 0.017560 0.008939 -0.010096
v 0.017600 0.008927 -0.010097
v 0.017560 0.008933 -0.010096
v 0.017600 0.008933 -0.010096
v 0.017560 0.008927 -0.010097
v 0.017560 0.008933 -0.010096
v 0.017600 0.008927 -0.010097
v 0.017560 0.008927 -0.010097
v 0.017600 0.008927 -0.010097
v 0.017600 0.008921 -0.010099
v 0.017560 0.008927 -0.010097
v 0.017600 0.008921 -0.010099
v 0.017560 0.008921 -0.010099
v 0.017600 0.008921 -0.010099
v 0.017600 0.008915 -0.010101
v 0.017560 0.008921 -0.010099
v 0.017600 0.008915 -0.010101
v 0.017560 0.008915 -0.010101
v 0.017560 0.008921 -0.010099
v 0.017600 0.008909 -0.010104
v 0.017560 0.008915 -0.010101
v 0.017600 0.008915 -0.010101
v 0.017560 0.008909 -0.010104
v 0.017560 0.008915 -0.010101
v 0.017600 0.008909 -0.010104
v 0.017560 0.008909 -0.010104
v 0.017600 0.008909 -0.010104
v 0.017600 0.008904 -0.010107
v 0.017560 0.008909 -0.010104
v 0.017600 0.008904 -0.010107
v 0.017560 0.008904 -0.010107
v 0.017600 0.008904 -0.010107
v 0.017600 0.008899 -0.010111
v 0.017560 0.008904 -0.010107
v 0.017600 0.008899 -0.010111
v 0.017560 0.008899 -0.010111
v 0.017560 0.008904 -0.010107
v 0.017560 0.008890 -0.010119
v 0.017600 0.008886 -0.010124
v 0.017560 0.008886 -0.010124
v 0.017560 0.008886 -0.010124
v 0.017600 0.008886 -0.010124
v 0.017600 0.008883 -0.010130
v 0.017560 0.008875 -0.010160
v 0.017560 0.008876 -0.010154
v 0.017600 0.008875 -0.010160
v 0.017560 0.008876 -0.010154
v 0.017600 0.008876 -0.010154
v 0.017600 0.008875 -0.010160
v 0.017560 0.008877 -0.010148
v 0.017600 0.008876 -0.010154
v 0.017560 0.008876 -0.010154
v 0.017600 0.008877 -0.010148
v 0.017600 0.008876 -0.010154
v 0.017560 0.008877 -0.010148
v 0.017600 0.008877 -0.010148
v 0.017560 0.008877 -0.010148
v 0.017560 0.008878 -0.010141
v 0.017600 0.008877 -0.010148
v 0.017560 0.008878 -0.010141
v 0.017600 0.008878 -0.010141
v 0.017560 0.008878 -0.010141
v 0.017560 0.008880 -0.010136
v 0.017600 0.008878 -0.010141
v 0.017560 0.008880 -0.010136
v 0.017600 0.008880 -0.010136
v 0.017600 0.008878 -0.010141
v 0.017560 0.008883 -0.010130
v 0.017600 0.008880 -0.010136
v 0.017560 0.008880 -0.010136
v 0.017600 0.008883 -0.010130
v 0.017600 0.008880 -0.010136
v 0.017560 0.008883 -0.010130
v 0.017600 0.008883 -0.010130
v 0.017560 0.008883 -0.010130
v 0.017560 0.008886 -0.010124
v 0.017600 0.008886 -0.010124
v 0.017560 0.008890 -0.010119
v 0.017600 0.008890 -0.010119
v 0.017560 0.008890 -0.010119
v 0.017560 0.008894 -0.010115
v 0.017600 0.008890 -0.010119
v 0.017560 0.008894 -0.010115
v 0.017600 0.008894 -0.010115
v 0.017600 0.008890 -0.010119
v 0.017560 0.008899 -0.010111
v 0.017600 0.008894 -0.010115
v 0.017560 0.008894 -0.010115
v 0.017560 0.008899 -0.010111
v 0.017600 0.008899 -0.010111
v 0.017600 0.008894 -0.010115
v 0.017600 0.008939 -0.010096
v 0.017560 0.008939 -0.010096
v 0.017600 0.008949 -0.010096
v 0.017600 0.008949 -0.010096
v 0.017560 0.008939 -0.010096
v 0.017560 0.008949 -0.010096
v 0.017560 0.008959 -0.010157
v 0.017600 0.008959 -0.010157
v 0.017560 0.008959 -0.010106
v 0.017560 0.008959 -0.010106
v 0.017600 0.008959 -0.010157
v 0.017600 0.008959 -0.010106
v 0.017600 0.008959 -0.010243
v 0.017560 0.008959 -0.010243
v 0.017600 0.008959 -0.010294
v 0.017600 0.008959 -0.010294
v 0.017560 0.008959 -0.010243
v 0.017560 0.008959 -0.010294
v 0.017560 0.008939 -0.010304
v 0.017600 0.008939 -0.010304
v 0.017560 0.008949 -0.010304
v 0.017560 0.008949 -0.010304
v 0.017600 0.008939 -0.010304
v 0.017600 0.008949 -0.010304
v 0.017600 0.008875 -0.010240
v 0.017600 0.008876 -0.010246
v 0.017560 0.008875 -0.010240
v 0.017600 0.008876 -0.010246
v 0.017600 0.008877 -0.010252
v 0.017560 0.008876 -0.010246
v 0.017600 0.008877 -0.010252
v 0.017560 0.008877 -0.010252
v 0.017560 0.008876 -0.010246
v 0.017600 0.008878 -0.010259
v 0.017560 0.008878 -0.010259
v 0.017560 0.008877 -0.010252
v 0.017600 0.008880 -0.010264
v 0.017560 0.008880 -0.010264
v 0.017560 0.008878 -0.010259
v 0.017600 0.008883 -0.010270
v 0.017560 0.008880 -0.010264
v 0.017600 0.008880 -0.010264
v 0.017600 0.008886 -0.010276
v 0.017560 0.008883 -0.010270
v 0.017600 0.008883 -0.010270
v 0.017560 0.008886 -0.010276
v 0.017560 0.008883 -0.010270
v 0.017600 0.008886 -0.010276
v 0.017560 0.008890 -0.010281
v 0.017560 0.008886 -0.010276
v 0.017600 0.008890 -0.010281
v 0.017560 0.008890 -0.010281
v 0.017600 0.008890 -0.010281
v 0.017600 0.008894 -0.010285
v 0.017560 0.008894 -0.010285
v 0.017600 0.008894 -0.010285
v 0.017600 0.008899 -0.010289
v 0.017560 0.008894 -0.010285
v 0.017600 0.008899 -0.010289
v 0.017560 0.008899 -0.010289
v 0.017560 0.008899 -0.010289
v 0.017600 0.008904 -0.010293
v 0.017560 0.008904 -0.010293
v 0.017600 0.008904 -0.010293
v 0.017600 0.008909 -0.010296
v 0.017560 0.008904 -0.010293
v 0.017600 0.008909 -0.010296
v 0.017600 0.008915 -0.010299
v 0.017560 0.008909 -0.010296
v 0.017600 0.008915 -0.010299
v 0.017560 0.008915 -0.010299
v 0.017560 0.008909 -0.010296
v 0.017560 0.008933 -0.010304
v 0.017600 0.008939 -0.010304
v 0.017560 0.008939 -0.010304
v 0.017600 0.008933 -0.010304
v 0.017600 0.008939 -0.010304
v 0.017560 0.008933 -0.010304
v 0.017600 0.008933 -0.010304
v 0.017560 0.008933 -0.010304
v 0.017560 0.008927 -0.010303
v 0.017600 0.008933 -0.010304
v 0.017560 0.008927 -0.010303
v 0.017600 0.008927 -0.010303
v 0.017560 0.008927 -0.010303
v 0.017560 0.008921 -0.010301
v 0.017600 0.008927 -0.010303
v 0.017560 0.008921 -0.010301
v 0.017600 0.008921 -0.010301
v 0.017600 0.008927 -0.010303
v 0.017560 0.008915 -0.010299
v 0.017600 0.008921 -0.010301
v 0.017560 0.008921 -0.010301
v 0.017600 0.008915 -0.010299
v 0.017600 0.008921 -0.010301
v 0.017560 0.008915 -0.010299
v 0.017560 0.008904 -0.010293
v 0.017600 0.008909 -0.010296
v 0.017560 0.008909 -0.010296
v 0.017560 0.008899 -0.010289
v 0.017600 0.008899 -0.010289
v 0.017600 0.008904 -0.010293
v 0.017560 0.008894 -0.010285
v 0.017560 0.008890 -0.010281
v 0.017600 0.008894 -0.010285
v 0.017600 0.008890 -0.010281
v 0.017560 0.008886 -0.010276
v 0.017600 0.008886 -0.010276
v 0.017600 0.008883 -0.010270
v 0.017560 0.008883 -0.010270
v 0.017560 0.008880 -0.010264
v 0.017600 0.008878 -0.010259
v 0.017600 0.008880 -0.010264
v 0.017560 0.008878 -0.010259
v 0.017560 0.008876 -0.010246
v 0.017560 0.008875 -0.010240
v 0.017600 0.008876 -0.010246
v 0.017560 0.008877 -0.010252
v 0.017600 0.008877 -0.010252
v 0.017600 0.008878 -0.010259
v 0.017600 0.008959 -0.010157
v 0.017560 0.008959 -0.010157
v 0.017600 0.008970 -0.010157
v 0.017577 0.008993 -0.010157
v 0.017560 0.008959 -0.010157
v 0.017560 0.008993 -0.010157
v 0.017577 0.008993 -0.010157
v 0.017600 0.008970 -0.010157
v 0.017560 0.008959 -0.010157
v 0.017600 0.008959 -0.010243
v 0.017600 0.008970 -0.010243
v 0.017560 0.008959 -0.010243
v 0.017560 0.008959 -0.010243
v 0.017600 0.008970 -0.010243
v 0.017577 0.008993 -0.010243
v 0.017577 0.008993 -0.010243
v 0.017560 0.008993 -0.010243
v 0.017560 0.008959 -0.010243
v 0.017567 0.009003 -0.010253
v 0.017560 0.009003 -0.010253
v 0.017560 0.009003 -0.010251
v 0.017567 0.009003 -0.010251
v 0.017567 0.009003 -0.010253
v 0.017560 0.009003 -0.010251
v 0.017560 0.009003 -0.010251
v 0.017560 0.009002 -0.010249
v 0.017567 0.009003 -0.010251
v 0.017567 0.009003 -0.010251
v 0.017560 0.009002 -0.010249
v 0.017568 0.009002 -0.010249
v 0.017568 0.009002 -0.010249
v 0.017560 0.009002 -0.010249
v 0.017560 0.009001 -0.010247
v 0.017569 0.009001 -0.010247
v 0.017568 0.009002 -0.010249
v 0.017560 0.009001 -0.010247
v 0.017560 0.009000 -0.010246
v 0.017569 0.009001 -0.010247
v 0.017560 0.009001 -0.010247
v 0.017560 0.008999 -0.010245
v 0.017570 0.009000 -0.010246
v 0.017560 0.009000 -0.010246
v 0.017560 0.009000 -0.010246
v 0.017570 0.009000 -0.010246
v 0.017569 0.009001 -0.010247
v 0.017575 0.008995 -0.010243
v 0.017560 0.008993 -0.010243
v 0.017577 0.008993 -0.010243
v 0.017575 0.008995 -0.010243
v 0.017560 0.008995 -0.010243
v 0.017560 0.008993 -0.010243
v 0.017575 0.008995 -0.010243
v 0.017573 0.008997 -0.010244
v 0.017560 0.008995 -0.010243
v 0.017560 0.008995 -0.010243
v 0.017573 0.008997 -0.010244
v 0.017560 0.008997 -0.010244
v 0.017560 0.008997 -0.010244
v 0.017573 0.008997 -0.010244
v 0.017571 0.008999 -0.010245
v 0.017560 0.008999 -0.010245
v 0.017560 0.008997 -0.010244
v 0.017571 0.008999 -0.010245
v 0.017570 0.009000 -0.010246
v 0.017560 0.008999 -0.010245
v 0.017571 0.008999 -0.010245
v 0.017560 0.008613 -0.010243
v 0.017575 0.008611 -0.010243
v 0.017577 0.008613 -0.010243
v 0.017560 0.008613 -0.010243
v 0.017560 0.008611 -0.010243
v 0.017575 0.008611 -0.010243
v 0.017575 0.008611 -0.010243
v 0.017560 0.008611 -0.010243
v 0.017573 0.008609 -0.010244
v 0.017573 0.008609 -0.010244
v 0.017560 0.008611 -0.010243
v 0.017560 0.008609 -0.010244
v 0.017560 0.008607 -0.010245
v 0.017560 0.008606 -0.010246
v 0.017570 0.008606 -0.010246
v 0.017571 0.008607 -0.010245
v 0.017560 0.008609 -0.010244
v 0.017560 0.008607 -0.010245
v 0.017560 0.008606 -0.010246
v 0.017560 0.008605 -0.010247
v 0.017569 0.008605 -0.010247
v 0.017571 0.008607 -0.010245
v 0.017573 0.008609 -0.010244
v 0.017560 0.008609 -0.010244
v 0.017560 0.008603 -0.010251
v 0.017560 0.008603 -0.010253
v 0.017567 0.008603 -0.010253
v 0.017567 0.008603 -0.010251
v 0.017560 0.008603 -0.010251
v 0.017567 0.008603 -0.010253
v 0.017567 0.008603 -0.010251
v 0.017560 0.008604 -0.010249
v 0.017560 0.008603 -0.010251
v 0.017567 0.008603 -0.010251
v 0.017568 0.008604 -0.010249
v 0.017560 0.008604 -0.010249
v 0.017560 0.008604 -0.010249
v 0.017568 0.008604 -0.010249
v 0.017560 0.008605 -0.010247
v 0.017560 0.008605 -0.010247
v 0.017568 0.008604 -0.010249
v 0.017569 0.008605 -0.010247
v 0.017560 0.008606 -0.010246
v 0.017569 0.008605 -0.010247
v 0.017570 0.008606 -0.010246
v 0.017570 0.008606 -0.010246
v 0.017571 0.008607 -0.010245
v 0.017560 0.008607 -0.010245
v 0.017560 0.008603 -0.010147
v 0.017560 0.008603 -0.010149
v 0.017567 0.008603 -0.010149
v 0.017560 0.008603 -0.010149
v 0.017560 0.008603 -0.010149
v 0.017560 0.008604 -0.010151
v 0.017567 0.008603 -0.010149
v 0.017567 0.008603 -0.010149
v 0.017560 0.008604 -0.010151
v 0.017568 0.008604 -0.010151
v 0.017568 0.008604 -0.010151
v 0.017560 0.008604 -0.010151
v 0.017560 0.008605 -0.010153
v 0.017569 0.008605 -0.010153
v 0.017568 0.008604 -0.010151
v 0.017560 0.008605 -0.010153
v 0.017560 0.008606 -0.010154
v 0.017569 0.008605 -0.010153
v 0.017560 0.008605 -0.010153
v 0.017560 0.008607 -0.010155
v 0.017570 0.008606 -0.010154
v 0.017560 0.008606 -0.010154
v 0.017560 0.008606 -0.010154
v 0.017570 0.008606 -0.010154
v 0.017569 0.008605 -0.010153
v 0.017575 0.008611 -0.010157
v 0.017560 0.008613 -0.010157
v 0.017577 0.008613 -0.010157
v 0.017575 0.008611 -0.010157
v 0.017560 0.008611 -0.010157
v 0.017560 0.008613 -0.010157
v 0.017575 0.008611 -0.010157
v 0.017573 0.008609 -0.010156
v 0.017560 0.008611 -0.010157
v 0.017560 0.008611 -0.010157
v 0.017573 0.008609 -0.010156
v 0.017560 0.008609 -0.010156
v 0.017560 0.008609 -0.010156
v 0.017573 0.008609 -0.010156
v 0.017571 0.008607 -0.010155
v 0.017560 0.008607 -0.010155
v 0.017560 0.008609 -0.010156
v 0.017571 0.008607 -0.010155
v 0.017570 0.008606 -0.010154
v 0.017560 0.008607 -0.010155
v 0.017571 0.008607 -0.010155
v 0.017560 0.008655 -0.010304
v 0.017560 0.008653 -0.010303
v 0.017600 0.008655 -0.010304
v 0.017560 0.008653 -0.010303
v 0.017560 0.008651 -0.010302
v 0.017600 0.008653 -0.010303
v 0.017560 0.008651 -0.010302
v 0.017600 0.008651 -0.010302
v 0.017600 0.008653 -0.010303
v 0.017560 0.008650 -0.010301
v 0.017600 0.008650 -0.010301
v 0.017600 0.008651 -0.010302
v 0.017560 0.008649 -0.010300
v 0.017600 0.008650 -0.010301
v 0.017560 0.008650 -0.010301
v 0.017560 0.008648 -0.010298
v 0.017600 0.008649 -0.010300
v 0.017560 0.008649 -0.010300
v 0.017600 0.008648 -0.010298
v 0.017600 0.008649 -0.010300
v 0.017560 0.008648 -0.010298
v 0.017560 0.008655 -0.010304
v 0.017600 0.008655 -0.010304
v 0.017560 0.008657 -0.010304
v 0.017600 0.008647 -0.010296
v 0.017560 0.008647 -0.010294
v 0.017600 0.008647 -0.010294
v 0.017560 0.008647 -0.010296
v 0.017560 0.008647 -0.010294
v 0.017600 0.008647 -0.010296
v 0.017560 0.008647 -0.010296
v 0.017600 0.008647 -0.010296
v 0.017600 0.008648 -0.010298
v 0.017560 0.008647 -0.010296
v 0.017600 0.008648 -0.010298
v 0.017560 0.008648 -0.010298
v 0.017560 0.008649 -0.010300
v 0.017600 0.008649 -0.010300
v 0.017600 0.008650 -0.010301
v 0.017560 0.008651 -0.010302
v 0.017560 0.008650 -0.010301
v 0.017600 0.008651 -0.010302
v 0.017600 0.008655 -0.010304
v 0.017600 0.008657 -0.010304
v 0.017560 0.008657 -0.010304
v 0.017560 0.008653 -0.010303
v 0.017600 0.008653 -0.010303
v 0.017600 0.008655 -0.010304
v 0.017560 0.008647 -0.010104
v 0.017560 0.008648 -0.010102
v 0.017600 0.008647 -0.010104
v 0.017560 0.008648 -0.010102
v 0.017560 0.008649 -0.010100
v 0.017600 0.008648 -0.010102
v 0.017560 0.008649 -0.010100
v 0.017600 0.008649 -0.010100
v 0.017600 0.008648 -0.010102
v 0.017560 0.008650 -0.010099
v 0.017600 0.008650 -0.010099
v 0.017600 0.008649 -0.010100
v 0.017560 0.008651 -0.010098
v 0.017600 0.008650 -0.010099
v 0.017560 0.008650 -0.010099
v 0.017560 0.008653 -0.010097
v 0.017600 0.008651 -0.010098
v 0.017560 0.008651 -0.010098
v 0.017600 0.008653 -0.010097
v 0.017600 0.008651 -0.010098
v 0.017560 0.008653 -0.010097
v 0.017560 0.008647 -0.010104
v 0.017600 0.008647 -0.010104
v 0.017560 0.008647 -0.010106
v 0.017600 0.008655 -0.010096
v 0.017560 0.008657 -0.010096
v 0.017600 0.008657 -0.010096
v 0.017560 0.008655 -0.010096
v 0.017560 0.008657 -0.010096
v 0.017600 0.008655 -0.010096
v 0.017560 0.008655 -0.010096
v 0.017600 0.008655 -0.010096
v 0.017600 0.008653 -0.010097
v 0.017560 0.008655 -0.010096
v 0.017600 0.008653 -0.010097
v 0.017560 0.008653 -0.010097
v 0.017560 0.008651 -0.010098
v 0.017600 0.008651 -0.010098
v 0.017600 0.008650 -0.010099
v 0.017560 0.008649 -0.010100
v 0.017560 0.008650 -0.010099
v 0.017600 0.008649 -0.010100
v 0.017600 0.008647 -0.010104
v 0.017600 0.008647 -0.010106
v 0.017560 0.008647 -0.010106
v 0.017560 0.008648 -0.010102
v 0.017600 0.008648 -0.010102
v 0.017600 0.008647 -0.010104
v 0.017560 0.008959 -0.010296
v 0.017560 0.008958 -0.010298
v 0.017600 0.008959 -0.010296
v 0.017560 0.008958 -0.010298
v 0.017560 0.008957 -0.010300
v 0.017600 0.008958 -0.010298
v 0.017560 0.008957 -0.010300
v 0.017600 0.008957 -0.010300
v 0.017600 0.008958 -0.010298
v 0.017560 0.008956 -0.010301
v 0.017600 0.008956 -0.010301
v 0.017600 0.008957 -0.010300
v 0.017560 0.008955 -0.010302
v 0.017600 0.008956 -0.010301
v 0.017560 0.008956 -0.010301
v 0.017560 0.008953 -0.010303
v 0.017600 0.008955 -0.010302
v 0.017560 0.008955 -0.010302
v 0.017600 0.008953 -0.010303
v 0.017600 0.008955 -0.010302
v 0.017560 0.008953 -0.010303
v 0.017560 0.008949 -0.010304
v 0.017600 0.008949 -0.010304
v 0.017600 0.008951 -0.010304
v 0.017560 0.008949 -0.010304
v 0.017600 0.008951 -0.010304
v 0.017560 0.008951 -0.010304
v 0.017600 0.008951 -0.010304
v 0.017600 0.008953 -0.010303
v 0.017560 0.008951 -0.010304
v 0.017560 0.008959 -0.010296
v 0.017600 0.008959 -0.010296
v 0.017560 0.008959 -0.010294
v 0.017560 0.008953 -0.010303
v 0.017560 0.008951 -0.010304
v 0.017600 0.008953 -0.010303
v 0.017600 0.008959 -0.010296
v 0.017600 0.008959 -0.010294
v 0.017560 0.008959 -0.010294
v 0.017600 0.008959 -0.010296
v 0.017560 0.008958 -0.010298
v 0.017600 0.008958 -0.010298
v 0.017560 0.008957 -0.010300
v 0.017560 0.008956 -0.010301
v 0.017600 0.008957 -0.010300
v 0.017560 0.008955 -0.010302
v 0.017600 0.008955 -0.010302
v 0.017600 0.008956 -0.010301
v 0.017560 0.008993 -0.010000
v 0.017577 0.008993 -0.010000
v 0.017575 0.008995 -0.010000
v 0.017560 0.008995 -0.010000
v 0.017560 0.008993 -0.010000
v 0.017575 0.008995 -0.010000
v 0.017573 0.008997 -0.010001
v 0.017560 0.008995 -0.010000
v 0.017575 0.008995 -0.010000
v 0.017573 0.008997 -0.010001
v 0.017560 0.008997 -0.010001
v 0.017560 0.008995 -0.010000
v 0.017573 0.008997 -0.010001
v 0.017571 0.008999 -0.010002
v 0.017560 0.008997 -0.010001
v 0.017560 0.008997 -0.010001
v 0.017571 0.008999 -0.010002
v 0.017560 0.008999 -0.010002
v 0.017560 0.008999 -0.010002
v 0.017570 0.009000 -0.010003
v 0.017560 0.009000 -0.010003
v 0.017560 0.009003 -0.010010
v 0.017560 0.009003 -0.010008
v 0.017560 0.009003 -0.010008
v 0.017567 0.009003 -0.010008
v 0.017560 0.009003 -0.010008
v 0.017560 0.009002 -0.010006
v 0.017567 0.009003 -0.010008
v 0.017567 0.009003 -0.010008
v 0.017560 0.009002 -0.010006
v 0.017568 0.009002 -0.010006
v 0.017568 0.009002 -0.010006
v 0.017560 0.009002 -0.010006
v 0.017560 0.009001 -0.010004
v 0.017569 0.009001 -0.010004
v 0.017568 0.009002 -0.010006
v 0.017560 0.009001 -0.010004
v 0.017560 0.009000 -0.010003
v 0.017569 0.009001 -0.010004
v 0.017560 0.009001 -0.010004
v 0.017560 0.009000 -0.010003
v 0.017570 0.009000 -0.010003
v 0.017569 0.009001 -0.010004
v 0.017570 0.009000 -0.010003
v 0.017560 0.008999 -0.010002
v 0.017571 0.008999 -0.010002
v 0.017560 0.008603 -0.010010
v 0.017560 0.008603 -0.010008
v 0.017560 0.008603 -0.010008
v 0.017567 0.008603 -0.010008
v 0.017560 0.008604 -0.010006
v 0.017560 0.008603 -0.010008
v 0.017567 0.008603 -0.010008
v 0.017568 0.008604 -0.010006
v 0.017560 0.008604 -0.010006
v 0.017567 0.008603 -0.010008
v 0.017568 0.008604 -0.010006
v 0.017560 0.008605 -0.010004
v 0.017560 0.008604 -0.010006
v 0.017568 0.008604 -0.010006
v 0.017569 0.008605 -0.010004
v 0.017560 0.008605 -0.010004
v 0.017560 0.008605 -0.010004
v 0.017569 0.008605 -0.010004
v 0.017560 0.008606 -0.010003
v 0.017560 0.008606 -0.010003
v 0.017569 0.008605 -0.010004
v 0.017570 0.008606 -0.010003
v 0.017560 0.008607 -0.010002
v 0.017560 0.008606 -0.010003
v 0.017570 0.008606 -0.010003
v 0.017577 0.008613 -0.010000
v 0.017560 0.008613 -0.010000
v 0.017575 0.008611 -0.010000
v 0.017575 0.008611 -0.010000
v 0.017560 0.008613 -0.010000
v 0.017560 0.008611 -0.010000
v 0.017573 0.008609 -0.010001
v 0.017575 0.008611 -0.010000
v 0.017560 0.008611 -0.010000
v 0.017571 0.008607 -0.010002
v 0.017560 0.008609 -0.010001
v 0.017560 0.008607 -0.010002
v 0.017571 0.008607 -0.010002
v 0.017573 0.008609 -0.010001
v 0.017560 0.008609 -0.010001
v 0.017570 0.008606 -0.010003
v 0.017571 0.008607 -0.010002
v 0.017560 0.008607 -0.010002
v 0.017573 0.008609 -0.010001
v 0.017560 0.008611 -0.010000
v 0.017560 0.008609 -0.010001
v 0.017560 0.008951 -0.010096
v 0.017600 0.008951 -0.010096
v 0.017560 0.008949 -0.010096
v 0.017560 0.008953 -0.010097
v 0.017600 0.008951 -0.010096
v 0.017560 0.008951 -0.010096
v 0.017560 0.008955 -0.010098
v 0.017600 0.008953 -0.010097
v 0.017560 0.008953 -0.010097
v 0.017600 0.008955 -0.010098
v 0.017600 0.008953 -0.010097
v 0.017560 0.008955 -0.010098
v 0.017600 0.008956 -0.010099
v 0.017600 0.008955 -0.010098
v 0.017560 0.008956 -0.010099
v 0.017600 0.008956 -0.010099
v 0.017560 0.008956 -0.010099
v 0.017560 0.008957 -0.010100
v 0.017600 0.008957 -0.010100
v 0.017560 0.008957 -0.010100
v 0.017560 0.008958 -0.010102
v 0.017600 0.008959 -0.010106
v 0.017600 0.008959 -0.010104
v 0.017560 0.008959 -0.010106
v 0.017600 0.008959 -0.010104
v 0.017560 0.008959 -0.010104
v 0.017560 0.008959 -0.010106
v 0.017600 0.008958 -0.010102
v 0.017560 0.008959 -0.010104
v 0.017600 0.008959 -0.010104
v 0.017560 0.008958 -0.010102
v 0.017560 0.008959 -0.010104
v 0.017600 0.008958 -0.010102
v 0.017560 0.008958 -0.010102
v 0.017600 0.008958 -0.010102
v 0.017600 0.008957 -0.010100
v 0.017560 0.008957 -0.010100
v 0.017600 0.008957 -0.010100
v 0.017600 0.008956 -0.010099
v 0.017560 0.008955 -0.010098
v 0.017560 0.008956 -0.010099
v 0.017600 0.008955 -0.010098
v 0.017600 0.008951 -0.010096
v 0.017600 0.008949 -0.010096
v 0.017560 0.008949 -0.010096
v 0.017560 0.008953 -0.010097
v 0.017600 0.008953 -0.010097
v 0.017600 0.008951 -0.010096
v 0.017560 0.008993 -0.010157
v 0.017575 0.008995 -0.010157
v 0.017577 0.008993 -0.010157
v 0.017560 0.008993 -0.010157
v 0.017560 0.008995 -0.010157
v 0.017575 0.008995 -0.010157
v 0.017575 0.008995 -0.010157
v 0.017560 0.008995 -0.010157
v 0.017573 0.008997 -0.010156
v 0.017573 0.008997 -0.010156
v 0.017560 0.008995 -0.010157
v 0.017560 0.008997 -0.010156
v 0.017560 0.008999 -0.010155
v 0.017560 0.009000 -0.010154
v 0.017570 0.009000 -0.010154
v 0.017571 0.008999 -0.010155
v 0.017560 0.008997 -0.010156
v 0.017560 0.008999 -0.010155
v 0.017560 0.009000 -0.010154
v 0.017560 0.009001 -0.010153
v 0.017569 0.009001 -0.010153
v 0.017571 0.008999 -0.010155
v 0.017573 0.008997 -0.010156
v 0.017560 0.008997 -0.010156
v 0.017560 0.009003 -0.010149
v 0.017560 0.009003 -0.010147
v 0.017567 0.009003 -0.010149
v 0.017560 0.009003 -0.010149
v 0.017567 0.009003 -0.010149
v 0.017560 0.009002 -0.010151
v 0.017560 0.009003 -0.010149
v 0.017567 0.009003 -0.010149
v 0.017568 0.009002 -0.010151
v 0.017560 0.009002 -0.010151
v 0.017560 0.009002 -0.010151
v 0.017568 0.009002 -0.010151
v 0.017560 0.009001 -0.010153
v 0.017560 0.009001 -0.010153
v 0.017568 0.009002 -0.010151
v 0.017569 0.009001 -0.010153
v 0.017560 0.009000 -0.010154
v 0.017569 0.009001 -0.010153
v 0.017570 0.009000 -0.010154
v 0.017570 0.009000 -0.010154
v 0.017571 0.008999 -0.010155
v 0.017560 0.008999 -0.010155
v 0.017510 0.008773 -0.010180
v 0.017510 0.008773 -0.010220
v 0.017560 0.008773 -0.010180
v 0.017560 0.008773 -0.010220
v 0.017560 0.008773 -0.010180
v 0.017470 0.008780 -0.010180
v 0.017510 0.008773 -0.010180
v 0.017470 0.008783 -0.010180
v 0.017510 0.008773 -0.010180
v 0.017560 0.008783 -0.010180
v 0.017560 0.008773 -0.010180
v 0.017560 0.008783 -0.010180
v 0.017510 0.008773 -0.010180
v 0.017510 0.008783 -0.010170
v 0.017560 0.008783 -0.010180
v 0.017560 0.008783 -0.010170
v 0.017470 0.008783 -0.010180
v 0.017560 0.008783 -0.010180
v 0.017470 0.008783 -0.010180
v 0.017470 0.008783 -0.010177
v 0.017510 0.008823 -0.010170
v 0.017510 0.008783 -0.010170
v 0.017560 0.008823 -0.010170
v 0.017510 0.008783 -0.010170
v 0.017560 0.008783 -0.010170
v 0.017560 0.008823 -0.010170
v 0.017470 0.008823 -0.010177
v 0.017510 0.008823 -0.010170
v 0.017470 0.008823 -0.010180
v 0.017510 0.008823 -0.010170
v 0.017560 0.008823 -0.010180
v 0.017560 0.008823 -0.010170
v 0.017560 0.008823 -0.010180
v 0.017510 0.008823 -0.010170
v 0.017510 0.008833 -0.010180
v 0.017560 0.008823 -0.010180
v 0.017560 0.008833 -0.010180
v 0.017470 0.008823 -0.010180
v 0.017560 0.008823 -0.010180
v 0.017470 0.008823 -0.010180
v 0.017470 0.008826 -0.010180
v 0.017510 0.008833 -0.010220
v 0.017510 0.008833 -0.010180
v 0.017560 0.008833 -0.010220
v 0.017510 0.008833 -0.010180
v 0.017560 0.008833 -0.010180
v 0.017560 0.008833 -0.010220
v 0.017470 0.008826 -0.010220
v 0.017510 0.008833 -0.010220
v 0.017470 0.008823 -0.010220
v 0.017510 0.008833 -0.010220
v 0.017560 0.008823 -0.010220
v 0.017560 0.008833 -0.010220
v 0.017560 0.008823 -0.010220
v 0.017510 0.008833 -0.010220
v 0.017510 0.008823 -0.010230
v 0.017560 0.008823 -0.010220
v 0.017560 0.008823 -0.010230
v 0.017470 0.008823 -0.010220
v 0.017560 0.008823 -0.010220
v 0.017470 0.008823 -0.010220
v 0.017470 0.008823 -0.010223
v 0.017510 0.008783 -0.010230
v 0.017510 0.008823 -0.010230
v 0.017560 0.008783 -0.010230
v 0.017510 0.008823 -0.010230
v 0.017560 0.008823 -0.010230
v 0.017560 0.008783 -0.010230
v 0.017470 0.008783 -0.010223
v 0.017510 0.008783 -0.010230
v 0.017470 0.008783 -0.010220
v 0.017510 0.008783 -0.010230
v 0.017560 0.008783 -0.010220
v 0.017560 0.008783 -0.010230
v 0.017560 0.008783 -0.010220
v 0.017510 0.008783 -0.010230
v 0.017560 0.008807 -0.010220
v 0.017470 0.008807 -0.010220
v 0.017560 0.008803 -0.010220
v 0.017560 0.008811 -0.010218
v 0.017560 0.008814 -0.010217
v 0.017470 0.008811 -0.010218
v 0.017470 0.008814 -0.010217
v 0.017470 0.008817 -0.010214
v 0.017560 0.008817 -0.010214
v 0.017560 0.008820 -0.010211
v 0.017470 0.008820 -0.010211
v 0.017560 0.008821 -0.010208
v 0.017470 0.008821 -0.010208
v 0.017560 0.008823 -0.010204
v 0.017470 0.008823 -0.010204
v 0.017560 0.008823 -0.010200
v 0.017560 0.008823 -0.010196
v 0.017470 0.008823 -0.010200
v 0.017470 0.008823 -0.010196
v 0.017560 0.008821 -0.010192
v 0.017470 0.008821 -0.010192
v 0.017560 0.008820 -0.010189
v 0.017560 0.008817 -0.010186
v 0.017470 0.008820 -0.010189
v 0.017470 0.008817 -0.010186
v 0.017470 0.008814 -0.010183
v 0.017560 0.008814 -0.010183
v 0.017560 0.008811 -0.010182
v 0.017470 0.008811 -0.010182
v 0.017560 0.008807 -0.010180
v 0.017470 0.008807 -0.010180
v 0.017560 0.008803 -0.010180
v 0.017470 0.008803 -0.010180
v 0.017560 0.008799 -0.010180
v 0.017470 0.008799 -0.010180
v 0.017560 0.008795 -0.010182
v 0.017470 0.008795 -0.010182
v 0.017560 0.008792 -0.010183
v 0.017560 0.008783 -0.010200
v 0.017470 0.008783 -0.010200
v 0.017470 0.008783 -0.010196
v 0.017560 0.008783 -0.010204
v 0.017470 0.008783 -0.010204
v 0.017560 0.008785 -0.010208
v 0.017470 0.008785 -0.010208
v 0.017560 0.008786 -0.010211
v 0.017470 0.008786 -0.010211
v 0.017560 0.008789 -0.010214
v 0.017560 0.008792 -0.010217
v 0.017470 0.008789 -0.010214
v 0.017470 0.008792 -0.010217
v 0.017470 0.008795 -0.010218
v 0.017560 0.008795 -0.010218
v 0.017470 0.008799 -0.010220
v 0.017560 0.008799 -0.010220
v 0.017470 0.008803 -0.010220
v 0.017560 0.008783 -0.010196
v 0.017470 0.008785 -0.010192
v 0.017560 0.008785 -0.010192
v 0.017470 0.008786 -0.010189
v 0.017560 0.008786 -0.010189
v 0.017470 0.008789 -0.010186
v 0.017560 0.008789 -0.010186
v 0.017470 0.008792 -0.010183
v 0.017510 0.008773 -0.010220
v 0.017560 0.008783 -0.010220
v 0.017560 0.008773 -0.010220
v 0.017470 0.008783 -0.010220
v 0.017560 0.008783 -0.010220
v 0.017510 0.008773 -0.010220
v 0.017470 0.008783 -0.010220
v 0.017510 0.008773 -0.010220
v 0.017470 0.008780 -0.010220
v 0.017470 0.008803 -0.010223
v 0.017470 0.008803 -0.010220
v 0.017470 0.008807 -0.010220
v 0.017470 0.008780 -0.010180
v 0.017470 0.008783 -0.010180
v 0.017470 0.008786 -0.010189
v 0.017470 0.008780 -0.010220
v 0.017470 0.008785 -0.010208
v 0.017470 0.008786 -0.010211
v 0.017470 0.008795 -0.010218
v 0.017470 0.008799 -0.010220
v 0.017470 0.008783 -0.010223
v 0.017470 0.008792 -0.010217
v 0.017470 0.008795 -0.010218
v 0.017470 0.008823 -0.010223
v 0.017470 0.008811 -0.010218
v 0.017470 0.008814 -0.010217
v 0.017470 0.008826 -0.010200
v 0.017470 0.008821 -0.010208
v 0.017470 0.008823 -0.010204
v 0.017470 0.008826 -0.010220
v 0.017470 0.008820 -0.010211
v 0.017470 0.008821 -0.010208
v 0.017470 0.008826 -0.010180
v 0.017470 0.008821 -0.010192
v 0.017470 0.008820 -0.010189
v 0.017470 0.008803 -0.010177
v 0.017470 0.008811 -0.010182
v 0.017470 0.008807 -0.010180
v 0.017470 0.008823 -0.010177
v 0.017470 0.008814 -0.010183
v 0.017470 0.008811 -0.010182
v 0.017470 0.008783 -0.010177
v 0.017470 0.008795 -0.010182
v 0.017470 0.008792 -0.010183
v 0.017470 0.008783 -0.010180
v 0.017470 0.008792 -0.010183
v 0.017470 0.008789 -0.010186
v 0.017470 0.008783 -0.010180
v 0.017470 0.008789 -0.010186
v 0.017470 0.008786 -0.010189
v 0.017470 0.008799 -0.010220
v 0.017470 0.008803 -0.010220
v 0.017470 0.008783 -0.010223
v 0.017470 0.008795 -0.010218
v 0.017470 0.008786 -0.010211
v 0.017470 0.008783 -0.010220
v 0.017470 0.008780 -0.010220
v 0.017470 0.008792 -0.010217
v 0.017470 0.008783 -0.010223
v 0.017470 0.008783 -0.010220
v 0.017470 0.008789 -0.010214
v 0.017470 0.008792 -0.010217
v 0.017470 0.008783 -0.010220
v 0.017470 0.008786 -0.010211
v 0.017470 0.008789 -0.010214
v 0.017470 0.008783 -0.010220
v 0.017470 0.008785 -0.010208
v 0.017470 0.008780 -0.010220
v 0.017470 0.008780 -0.010200
v 0.017470 0.008783 -0.010204
v 0.017470 0.008785 -0.010208
v 0.017470 0.008783 -0.010196
v 0.017470 0.008783 -0.010200
v 0.017470 0.008780 -0.010180
v 0.017470 0.008785 -0.010192
v 0.017470 0.008785 -0.010192
v 0.017470 0.008783 -0.010196
v 0.017470 0.008786 -0.010189
v 0.017470 0.008785 -0.010192
v 0.017470 0.008780 -0.010180
v 0.017470 0.008792 -0.010183
v 0.017470 0.008783 -0.010180
v 0.017470 0.008783 -0.010177
v 0.017470 0.008783 -0.010200
v 0.017470 0.008783 -0.010204
v 0.017470 0.008799 -0.010180
v 0.017470 0.008795 -0.010182
v 0.017470 0.008807 -0.010180
v 0.017470 0.008803 -0.010180
v 0.017470 0.008823 -0.010177
v 0.017470 0.008811 -0.010182
v 0.017470 0.008820 -0.010189
v 0.017470 0.008823 -0.010180
v 0.017470 0.008826 -0.010180
v 0.017470 0.008814 -0.010183
v 0.017470 0.008823 -0.010177
v 0.017470 0.008823 -0.010180
v 0.017470 0.008817 -0.010186
v 0.017470 0.008814 -0.010183
v 0.017470 0.008823 -0.010180
v 0.017470 0.008820 -0.010189
v 0.017470 0.008817 -0.010186
v 0.017470 0.008823 -0.010180
v 0.017470 0.008821 -0.010192
v 0.017470 0.008826 -0.010180
v 0.017470 0.008823 -0.010196
v 0.017470 0.008821 -0.010192
v 0.017470 0.008823 -0.010204
v 0.017470 0.008823 -0.010200
v 0.017470 0.008826 -0.010220
v 0.017470 0.008821 -0.010208
v 0.017470 0.008814 -0.010217
v 0.017470 0.008823 -0.010220
v 0.017470 0.008823 -0.010223
v 0.017470 0.008820 -0.010211
v 0.017470 0.008826 -0.010220
v 0.017470 0.008823 -0.010220
v 0.017470 0.008817 -0.010214
v 0.017470 0.008820 -0.010211
v 0.017470 0.008823 -0.010220
v 0.017470 0.008814 -0.010217
v 0.017470 0.008817 -0.010214
v 0.017470 0.008823 -0.010220
v 0.017470 0.008811 -0.010218
v 0.017470 0.008823 -0.010223
v 0.017470 0.008803 -0.010180
v 0.017470 0.008799 -0.010180
v 0.017470 0.008807 -0.010220
v 0.017470 0.008811 -0.010218
v 0.017470 0.008795 -0.010182
v 0.017470 0.008783 -0.010177
v 0.017470 0.008823 -0.010200
v 0.017470 0.008823 -0.010196
v 0.017560 0.008811 -0.010218
v 0.017560 0.008807 -0.010220
v 0.017560 0.008803 -0.010220
v 0.017560 0.008814 -0.010217
v 0.017560 0.008811 -0.010218
v 0.017560 0.008803 -0.010220
v 0.017560 0.008817 -0.010214
v 0.017560 0.008814 -0.010217
v 0.017560 0.008803 -0.010220
v 0.017560 0.008820 -0.010211
v 0.017560 0.008817 -0.010214
v 0.017560 0.008803 -0.010220
v 0.017560 0.008821 -0.010208
v 0.017560 0.008803 -0.010220
v 0.017560 0.008823 -0.010204
v 0.017560 0.008821 -0.010208
v 0.017560 0.008820 -0.010211
v 0.017560 0.008803 -0.010220
v 0.017560 0.008823 -0.010204
v 0.017560 0.008803 -0.010220
v 0.017560 0.008823 -0.010200
v 0.017560 0.008823 -0.010200
v 0.017560 0.008803 -0.010220
v 0.017560 0.008823 -0.010196
v 0.017560 0.008803 -0.010220
v 0.017560 0.008821 -0.010192
v 0.017560 0.008823 -0.010196
v 0.017560 0.008803 -0.010220
v 0.017560 0.008820 -0.010189
v 0.017560 0.008821 -0.010192
v 0.017560 0.008803 -0.010220
v 0.017560 0.008817 -0.010186
v 0.017560 0.008820 -0.010189
v 0.017560 0.008811 -0.010182
v 0.017560 0.008814 -0.010183
v 0.017560 0.008803 -0.010220
v 0.017560 0.008803 -0.010220
v 0.017560 0.008814 -0.010183
v 0.017560 0.008817 -0.010186
v 0.017560 0.008807 -0.010180
v 0.017560 0.008803 -0.010220
v 0.017560 0.008803 -0.010180
v 0.017560 0.008803 -0.010180
v 0.017560 0.008803 -0.010220
v 0.017560 0.008799 -0.010180
v 0.017560 0.008803 -0.010220
v 0.017560 0.008795 -0.010182
v 0.017560 0.008799 -0.010180
v 0.017560 0.008803 -0.010220
v 0.017560 0.008792 -0.010183
v 0.017560 0.008795 -0.010182
v 0.017560 0.008803 -0.010220
v 0.017560 0.008789 -0.010186
v 0.017560 0.008792 -0.010183
v 0.017560 0.008785 -0.010192
v 0.017560 0.008786 -0.010189
v 0.017560 0.008803 -0.010220
v 0.017560 0.008803 -0.010220
v 0.017560 0.008786 -0.010189
v 0.017560 0.008789 -0.010186
v 0.017560 0.008783 -0.010196
v 0.017560 0.008785 -0.010192
v 0.017560 0.008803 -0.010220
v 0.017560 0.008783 -0.010200
v 0.017560 0.008783 -0.010196
v 0.017560 0.008803 -0.010220
v 0.017560 0.008783 -0.010200
v 0.017560 0.008803 -0.010220
v 0.017560 0.008783 -0.010204
v 0.017560 0.008783 -0.010204
v 0.017560 0.008803 -0.010220
v 0.017560 0.008785 -0.010208
v 0.017560 0.008785 -0.010208
v 0.017560 0.008803 -0.010220
v 0.017560 0.008786 -0.010211
v 0.017560 0.008803 -0.010220
v 0.017560 0.008792 -0.010217
v 0.017560 0.008789 -0.010214
v 0.017560 0.008786 -0.010211
v 0.017560 0.008803 -0.010220
v 0.017560 0.008789 -0.010214
v 0.017560 0.008803 -0.010220
v 0.017560 0.008795 -0.010218
v 0.017560 0.008792 -0.010217
v 0.017560 0.008803 -0.010220
v 0.017560 0.008807 -0.010180
v 0.017560 0.008811 -0.010182
v 0.017560 0.008799 -0.010220
v 0.017560 0.008795 -0.010218
v 0.017560 0.008803 -0.010220
v 0.017470 0.008803 -0.010177
v 0.017470 0.008783 -0.010177
v 0.017510 0.008783 -0.010170
v 0.017470 0.008823 -0.010177
v 0.017470 0.008803 -0.010177
v 0.017470 0.008803 -0.010177
v 0.017510 0.008783 -0.010170
v 0.017470 0.008826 -0.010200
v 0.017470 0.008826 -0.010180
v 0.017510 0.008833 -0.010180
v 0.017470 0.008826 -0.010220
v 0.017470 0.008826 -0.010200
v 0.017470 0.008826 -0.010200
v 0.017510 0.008833 -0.010180
v 0.017470 0.008803 -0.010223
v 0.017470 0.008823 -0.010223
v 0.017510 0.008823 -0.010230
v 0.017470 0.008783 -0.010223
v 0.017470 0.008803 -0.010223
v 0.017470 0.008803 -0.010223
v 0.017510 0.008823 -0.010230
v 0.017470 0.008780 -0.010200
v 0.017470 0.008780 -0.010220
v 0.017470 0.008780 -0.010180
v 0.017470 0.008780 -0.010200
v 0.017470 0.008780 -0.010200
v 0.017530 0.008763 -0.010022
v 0.017560 0.008803 -0.010022
v 0.017530 0.008843 -0.010022
v 0.017560 0.008803 -0.010022
v 0.017560 0.008843 -0.010022
v 0.017560 0.008803 -0.010022
v 0.017560 0.008763 -0.010022
v 0.017530 0.008763 -0.010042
v 0.017560 0.008763 -0.010042
v 0.017530 0.008763 -0.010022
v 0.017530 0.008763 -0.010022
v 0.017560 0.008763 -0.010042
v 0.017560 0.008763 -0.010022
v 0.017530 0.008843 -0.010042
v 0.017560 0.008843 -0.010042
v 0.017530 0.008763 -0.010042
v 0.017530 0.008763 -0.010042
v 0.017560 0.008843 -0.010042
v 0.017560 0.008763 -0.010042
v 0.017530 0.008843 -0.010022
v 0.017560 0.008843 -0.010022
v 0.017530 0.008843 -0.010042
v 0.017530 0.008843 -0.010042
v 0.017560 0.008843 -0.010022
v 0.017560 0.008843 -0.010042
v 0.017530 0.008843 -0.010022
v 0.017530 0.008843 -0.010042
v 0.017530 0.008763 -0.010022
v 0.017530 0.008843 -0.010042
v 0.017530 0.008763 -0.010042
v 0.017530 0.008763 -0.010022
v 0.017600 0.008803 -0.010398
v 0.017573 0.008803 -0.010395
v 0.017600 0.008970 -0.010398
v 0.017600 0.008636 -0.010398
v 0.017573 0.008609 -0.010395
v 0.017600 0.008636 -0.010398
v 0.017600 0.008803 -0.010398
v 0.017573 0.008997 -0.010395
v 0.017600 0.008970 -0.010398
v 0.017573 0.008997 -0.010400
v 0.017573 0.008803 -0.010395
v 0.017573 0.008803 -0.010400
v 0.017573 0.008997 -0.010400
v 0.017573 0.008997 -0.010395
v 0.017573 0.008803 -0.010395
v 0.017573 0.008609 -0.010400
v 0.017573 0.008803 -0.010395
v 0.017573 0.008609 -0.010395
v 0.017573 0.008803 -0.010395
v 0.017573 0.008609 -0.010400
v 0.017573 0.008803 -0.010400
vn 1.0000 -0.0000 -0.0000
vn 1.0000 -0.0001 -0.0000
vn 1.0000 0.0003 -0.0000
vn 1.0000 0.0001 -0.0000
vn 1.0000 -0.0002 -0.0000
vn 1.0000 0.0002 -0.0000
vn 0.7071 0.7071 -0.0000
vn 0.7068 0.7074 -0.0000
vn 0.7071 0.7072 0.0001
vn 0.7072 0.7070 -0.0000
vn 0.7071 0.7072 -0.0000
vn 0.7070 0.7072 -0.0000
vn 0.0001 -0.0000 -1.0000
vn -0.0000 -0.0000 -1.0000
vn 0.7070 -0.7072 -0.0000
vn 0.7071 -0.7071 -0.0000
vn 0.7071 -0.7071 -0.0001
vn 0.7071 -0.7072 -0.0000
vn 0.7071 -0.7071 -0.0002
vn 0.7068 -0.7074 -0.0000
vn -1.0000 -0.0000 -0.0000
vn -1.0000 0.0001 -0.0000
vn -1.0000 -0.0001 -0.0000
vn -1.0000 0.0002 -0.0000
vn -1.0000 0.0003 -0.0000
vn -1.0000 -0.0002 -0.0000
vn -1.0000 -0.0003 -0.0000
vn -0.0000 1.0000 -0.0000
vn 0.7072 0.7071 -0.0000
vn 0.7073 0.7069 -0.0000
vn 0.7069 0.7073 -0.0002
vn 0.7071 0.7072 -0.0001
vn 0.7070 0.7072 0.0001
vn 0.7074 0.7068 0.0002
vn -0.0000 -1.0000 -0.0000
vn 0.7071 -0.7072 0.0002
vn 0.7072 -0.7071 -0.0001
vn 0.7070 -0.7072 -0.0001
vn 0.7068 -0.7074 0.0002
vn 0.7072 -0.7071 -0.0000
vn -0.0000 -0.0000 1.0000
vn -0.0000 -0.0980 -0.9952
vn -0.0000 -0.1951 -0.9808
vn -0.0000 -0.2903 -0.9569
vn -0.0000 -0.1952 -0.9808
vn -0.0000 -0.3827 -0.9239
vn -0.0000 -0.4714 -0.8819
vn -0.0000 -0.5556 -0.8315
vn -0.0000 -0.6344 -0.7730
vn -0.0000 -0.7071 -0.7071
vn -0.0000 -0.7072 -0.7070
vn -0.0000 -0.7730 -0.6344
vn -0.0000 -0.8315 -0.5556
vn -0.0000 -0.8819 -0.4714
vn -0.0000 -0.9239 -0.3827
vn -0.0000 -0.9952 -0.0980
vn -0.0000 -0.9808 -0.1951
vn -0.0000 -0.9569 -0.2903
vn -0.0000 -0.8314 -0.5556
vn -0.0000 -0.5556 -0.8314
vn -0.0000 -0.9952 0.0980
vn -0.0000 -0.9808 0.1951
vn -0.0000 -0.9569 0.2903
vn -0.0000 -0.9239 0.3827
vn -0.0000 -0.8819 0.4714
vn -0.0000 -0.8315 0.5555
vn -0.0000 -0.7730 0.6344
vn -0.0000 -0.8314 0.5556
vn -0.0000 -0.7071 0.7071
vn -0.0000 -0.6344 0.7730
vn -0.0000 -0.5556 0.8314
vn -0.0000 -0.5556 0.8315
vn -0.0000 -0.4714 0.8819
vn -0.0000 -0.3827 0.9239
vn -0.0000 -0.0980 0.9952
vn -0.0000 -0.1951 0.9808
vn -0.0000 -0.2903 0.9569
vn -0.0000 -0.5555 0.8315
vn -0.0000 -0.7072 0.7070
vn -0.0000 -0.8315 0.5556
vn -0.0000 0.0980 -0.9952
vn -0.0000 0.1951 -0.9808
vn -0.0000 0.2903 -0.9569
vn -0.0000 0.3827 -0.9239
vn -0.0000 0.4714 -0.8819
vn -0.0000 0.5556 -0.8315
vn -0.0000 0.5556 -0.8314
vn -0.0000 0.6344 -0.7730
vn -0.0000 0.7730 -0.6344
vn -0.0000 0.8315 -0.5556
vn -0.0000 0.8819 -0.4714
vn -0.0000 0.9952 -0.0980
vn -0.0000 0.9808 -0.1951
vn -0.0000 0.9569 -0.2903
vn -0.0000 0.9569 -0.2904
vn -0.0000 0.9239 -0.3827
vn -0.0000 0.7072 -0.7070
vn -0.0000 0.7070 -0.7072
vn -0.0000 0.7071 -0.7071
vn -0.0000 0.9952 0.0980
vn -0.0000 1.0000 0.0001
vn -0.0000 0.9808 0.1951
vn -0.0000 0.9569 0.2903
vn -0.0000 0.9239 0.3827
vn -0.0000 0.8819 0.4714
vn -0.0000 0.8315 0.5555
vn -0.0000 0.7730 0.6344
vn -0.0000 0.8314 0.5556
vn -0.0000 0.7072 0.7070
vn -0.0000 0.7071 0.7071
vn -0.0000 0.6344 0.7730
vn -0.0000 0.5556 0.8314
vn -0.0000 0.5556 0.8315
vn -0.0000 0.4714 0.8819
vn -0.0000 0.3827 0.9239
vn -0.0000 0.0980 0.9952
vn -0.0000 0.1951 0.9808
vn -0.0000 0.2903 0.9569
vn -0.0000 0.7069 0.7073
vn -0.0000 0.8315 0.5556
vn -0.0000 0.9808 0.1950
vn -0.0000 0.9808 0.1952
vn -0.0000 0.7070 0.7072
vn -0.0000 0.8314 0.5557
vn -0.0000 0.1950 0.9808
vn -0.0000 0.3826 0.9239
vn -0.0000 0.5555 0.8315
vn -0.0000 -0.1950 0.9808
vn -0.0000 -0.3826 0.9239
vn -0.0000 -0.7070 0.7072
vn -0.0000 -0.8314 0.5557
vn -0.0000 -0.9808 0.1950
vn -0.0000 -0.9808 0.1952
vn -0.0000 -0.7069 0.7073
vn -0.0000 -0.9808 -0.1950
vn -0.0000 -0.9808 -0.1952
vn -0.0000 -0.8315 -0.5555
vn -0.0000 -0.7070 -0.7072
vn -0.0000 -0.8314 -0.5557
vn -0.0000 -0.1950 -0.9808
vn -0.0000 -0.3826 -0.9239
vn -0.0000 -0.5555 -0.8315
vn -0.0000 -0.7069 -0.7073
vn -0.0000 0.9239 0.3826
vn -0.0000 0.5557 0.8314
vn -0.0000 0.9239 -0.3826
vn -0.0000 0.8315 -0.5555
vn -0.0000 0.8314 -0.5556
vn -0.0000 0.5557 -0.8314
vn -0.0000 0.5555 -0.8315
vn -0.0000 0.9808 -0.1950
vn -0.0000 0.1950 -0.9808
vn -0.0000 0.1952 -0.9808
vn -0.0000 0.3826 -0.9239
vn -0.0000 0.7069 -0.7073
vn -0.0000 -0.9239 0.3826
vn -0.0000 -0.1952 0.9808
vn -0.0000 0.1952 0.9808
vn -0.0000 0.7074 0.7069
vn -0.0000 0.7068 0.7074
vn -0.0000 -0.7068 0.7074
vn -0.0000 -0.7074 0.7068
vn -0.0000 -0.7069 0.7074
vn -0.0000 -0.5557 -0.8314
vn -0.0000 -0.9239 -0.3826
vn -0.0000 0.8314 -0.5557
vn -0.0000 0.9808 -0.1952
vn 0.0001 -0.0000 1.0000
vn -0.0000 -1.0000 -0.0001
vn -0.0000 1.0000 -0.0002
vn -0.0000 1.0000 -0.0001
vn -0.0000 -1.0000 -0.0002
vn -0.0000 -0.7072 0.7071
vn -0.0000 -0.9238 0.3828
vn -0.0000 -0.9238 -0.3828
vn -0.0000 -0.9238 -0.3829
vn -0.0000 0.3828 -0.9238
vn -0.0000 0.9238 0.3828
vn -0.0000 0.3828 0.9238
vn -0.0000 0.9238 -0.3828
vn -1.0000 0.0004 -0.0000
vn -1.0000 -0.0004 -0.0000
vn -0.1724 -0.0000 0.9850
vn -0.0001 -0.0000 1.0000
vn -0.1724 0.9850 -0.0000
vn -0.0001 1.0000 -0.0000
vn -0.1724 -0.0000 -0.9850
vn -0.0001 -0.0000 -1.0000
vn -0.1724 -0.9850 -0.0000
vn -0.1105 -0.0000 -0.9939
vn -0.1104 -0.0000 -0.9939
s 1
usemtl Diffuse_51_51_51_100.031
f 1//1 2//1 3//1
f 4//1 5//1 6//1
f 7//1 8//1 9//1
f 10//1 11//1 12//1
f 13//1 14//1 15//1
f 3//1 16//1 1//1
f 3//1 2//1 17//1
f 18//2 13//1 1//1
f 19//1 1//1 16//1
f 20//1 1//1 19//1
f 21//1 1//1 20//1
f 22//1 1//1 21//1
f 23//1 1//1 22//1
f 1//1 23//1 24//3
f 1//1 24//3 25//1
f 1//1 25//1 26//1
f 1//1 26//1 18//2
f 13//1 18//2 27//1
f 13//1 27//1 28//4
f 13//1 28//4 29//2
f 13//1 29//2 30//2
f 13//1 30//2 14//1
f 31//1 14//1 32//1
f 14//1 33//1 32//1
f 34//1 35//1 36//1
f 33//1 35//1 34//1
f 36//1 37//1 38//1
f 38//1 39//1 40//1
f 39//1 41//1 40//1
f 41//1 42//1 43//1
f 42//1 44//1 43//1
f 45//1 46//1 47//1
f 45//1 47//1 48//1
f 48//1 49//1 50//1
f 51//1 50//1 49//1
f 52//1 53//1 51//1
f 54//1 53//1 52//1
f 55//1 54//1 56//1
f 55//1 56//1 57//1
f 58//1 57//1 59//1
f 60//1 61//1 62//1
f 61//1 59//1 62//1
f 60//1 62//1 63//1
f 58//1 59//1 61//1
f 64//1 65//1 66//1
f 67//1 65//1 64//1
f 68//1 69//1 70//1
f 69//1 71//1 70//1
f 72//1 4//1 68//1
f 68//1 73//1 74//1
f 75//1 4//1 72//1
f 76//1 73//1 68//1
f 77//1 4//1 75//1
f 78//1 4//1 77//1
f 79//2 4//1 78//1
f 80//4 4//1 79//2
f 4//1 80//4 81//1
f 76//1 68//1 82//1
f 4//1 83//5 84//2
f 85//1 86//1 63//1
f 85//1 65//1 67//1
f 85//1 67//1 86//1
f 63//1 86//1 60//1
f 5//1 4//1 87//1
f 9//1 88//1 7//1
f 9//1 8//1 89//1
f 90//4 91//1 7//1
f 92//1 7//1 88//1
f 93//1 7//1 92//1
f 94//1 7//1 93//1
f 95//2 7//1 94//1
f 96//1 7//1 95//2
f 7//1 96//1 97//4
f 7//1 97//4 98//1
f 7//1 98//1 99//1
f 7//1 99//1 90//4
f 91//1 90//4 100//1
f 91//1 100//1 101//2
f 91//1 101//2 102//1
f 91//1 102//1 103//2
f 91//1 103//2 69//1
f 91//1 69//1 68//1
f 70//1 82//1 68//1
f 4//1 81//1 83//5
f 84//2 87//1 4//1
f 6//1 5//1 104//1
f 66//1 70//1 71//1
f 66//1 71//1 64//1
f 32//1 33//1 34//1
f 57//1 58//1 55//1
f 56//1 54//1 52//1
f 51//1 53//1 50//1
f 47//1 49//1 48//1
f 105//1 46//1 45//1
f 44//1 42//1 106//1
f 44//1 106//1 105//1
f 43//1 40//1 41//1
f 39//1 38//1 37//1
f 37//1 36//1 35//1
f 107//1 31//1 32//1
f 108//1 31//1 107//1
f 109//1 31//1 108//1
f 31//1 109//1 110//1
f 31//1 111//4 10//1
f 111//4 112//1 10//1
f 113//1 10//1 114//1
f 10//1 115//1 114//1
f 116//1 10//1 113//1
f 117//6 10//1 116//1
f 10//1 117//6 118//4
f 10//1 118//4 119//4
f 112//1 115//1 10//1
f 31//1 110//1 111//4
f 74//1 72//1 68//1
f 120//1 10//1 119//4
f 106//1 46//1 105//1
f 11//1 10//1 120//1
f 11//1 121//1 12//1
f 15//1 14//1 31//1
f 122//7 123//8 124//7
f 124//7 123//8 125//9
f 126//10 122//7 124//7
f 124//7 127//11 128//8
f 129//7 130//7 124//7
f 124//7 130//7 127//11
f 131//8 129//7 124//7
f 124//7 132//7 133//12
f 133//7 134//7 135//7
f 133//12 136//7 137//12
f 124//7 133//12 137//12
f 126//10 124//7 128//8
f 138//7 124//7 139//7
f 140//13 141//13 142//14
f 141//13 140//13 143//14
f 143//14 144//14 145//14
f 143//14 146//14 147//14
f 143//14 145//14 141//13
f 148//15 149//15 150//16
f 149//15 151//16 150//16
f 150//16 152//16 153//16
f 154//15 150//17 155//18
f 154//15 156//16 150//17
f 150//17 157//16 158//16
f 150//17 159//16 157//16
f 160//16 150//17 158//16
f 155//18 150//17 161//19
f 162//16 149//16 163//16
f 164//20 150//17 160//16
f 159//16 150//17 156//16
f 149//16 165//16 166//16
f 167//21 168//21 169//21
f 170//21 171//21 172//22
f 170//21 173//21 174//21
f 175//23 176//21 177//22
f 178//21 179//21 180//21
f 180//21 179//21 181//21
f 182//21 183//21 176//21
f 184//21 181//21 185//21
f 186//21 184//21 187//21
f 181//21 184//21 180//21
f 188//21 189//21 184//21
f 185//21 190//21 184//21
f 174//21 191//21 192//21
f 193//21 170//21 192//21
f 184//21 194//21 180//21
f 195//24 196//21 197//24
f 198//21 195//24 197//24
f 199//23 198//21 197//24
f 200//21 199//23 197//24
f 201//21 200//21 197//24
f 202//21 201//21 197//24
f 203//22 202//21 197//24
f 203//22 169//21 168//21
f 204//22 205//21 206//21
f 204//22 207//21 205//21
f 205//21 207//21 208//21
f 209//23 205//21 208//21
f 209//23 210//21 205//21
f 211//22 210//21 212//24
f 210//21 213//23 214//25
s 0
f 210//21 215//21 216//21
s 1
f 210//21 217//21 215//21
f 218//24 219//22 220//21
f 221//21 218//24 222//21
f 221//21 223//24 218//24
f 221//21 224//22 223//24
f 221//21 225//23 224//22
f 226//21 221//21 227//21
f 226//21 228//21 221//21
f 229//21 227//21 221//21
f 219//22 218//24 210//21
f 221//21 222//21 230//21
f 231//21 219//22 210//21
f 232//21 231//21 210//21
f 233//21 232//21 210//21
f 234//25 233//21 210//21
f 210//21 209//23 234//25
f 210//21 211//22 213//23
f 210//21 216//21 212//24
f 206//21 235//23 236//22
f 236//22 235//23 237//21
f 237//21 235//23 238//21
f 238//21 235//23 239//21
f 240//23 241//23 235//23
f 235//23 241//23 242//21
f 243//23 235//23 244//24
f 244//24 235//23 172//22
f 172//22 235//23 170//21
f 170//21 235//23 176//21
f 176//21 235//23 177//22
f 171//21 170//21 245//21
f 174//21 192//21 170//21
f 176//21 179//21 178//21
f 246//21 186//21 191//21
f 190//21 188//21 184//21
f 191//21 186//21 247//21
f 189//21 248//22 184//21
f 249//21 247//21 186//21
f 187//21 184//21 248//22
f 170//21 193//21 250//21
f 186//21 251//21 252//22
f 253//21 186//21 252//22
f 186//21 254//21 251//21
f 253//21 249//21 186//21
f 255//21 256//21 257//21
f 258//21 255//21 257//21
f 259//21 260//21 261//21
f 261//21 260//21 262//21
f 263//21 264//21 265//21
f 266//21 267//21 268//21
f 269//24 270//24 271//24
f 268//21 272//21 273//21
f 273//21 274//21 275//21
f 275//21 276//21 277//21
f 277//21 278//21 279//21
f 279//21 280//21 281//21
f 263//21 259//21 282//21
f 283//21 281//21 284//21
f 285//21 283//24 286//21
f 287//21 259//21 261//21
f 288//21 254//21 187//21
f 288//21 258//21 257//21
f 288//21 187//21 258//21
f 254//21 186//21 187//21
f 246//21 289//21 186//21
f 206//21 236//22 204//22
f 256//21 255//21 262//21
f 239//21 235//23 242//21
f 260//21 256//21 262//21
f 214//25 205//21 210//21
f 176//21 290//21 291//21
f 221//21 228//21 225//23
f 292//22 293//21 294//21
f 292//22 285//21 293//21
f 285//21 295//23 293//21
f 220//21 222//21 218//24
f 296//21 285//21 297//21
f 298//23 299//26 300//22
f 301//21 298//23 302//21
f 301//21 303//27 298//23
f 301//21 304//21 303//27
f 301//21 305//21 304//21
f 306//23 301//21 307//21
f 306//23 308//21 301//21
s 0
f 309//21 307//21 301//21
s 1
f 299//26 298//23 310//21
f 301//21 302//21 311//21
f 312//21 299//21 313//21
f 314//21 312//21 315//21
f 316//21 314//21 317//21
f 318//21 316//21 319//21
f 320//21 321//21 318//21
f 322//21 323//21 324//21
f 325//21 326//21 323//21
f 327//22 328//22 329//22
f 330//21 331//21 328//21
f 332//26 287//26 331//26
f 333//21 334//21 287//21
f 335//21 266//21 270//21
f 285//21 336//21 283//24
f 337//21 259//21 287//21
f 285//21 292//22 336//21
f 285//21 338//21 295//23
f 285//21 339//22 338//21
f 285//21 340//21 341//22
s 0
f 285//21 296//21 340//21
s 1
f 341//22 339//22 285//21
f 246//21 191//21 174//21
f 245//21 170//21 250//21
f 291//21 179//21 176//21
f 183//21 290//21 176//21
f 176//21 178//21 342//21
f 343//22 344//21 177//22
f 177//22 344//21 345//26
f 346//21 343//22 177//22
f 347//23 346//21 177//22
f 175//23 177//22 345//26
f 177//22 348//23 347//23
f 177//22 349//21 348//23
f 177//22 350//22 349//21
f 169//21 351//23 177//22
f 169//21 352//23 351//23
f 169//21 203//22 352//23
f 352//23 203//22 353//21
f 354//21 355//23 197//24
f 203//22 355//23 356//21
f 357//21 197//24 358//21
f 357//21 354//21 197//24
f 358//21 197//24 359//21
f 359//21 197//24 360//23
f 360//23 197//24 361//24
f 353//21 203//22 356//21
f 362//21 361//24 363//21
f 177//22 351//23 350//22
f 363//21 364//21 365//21
f 361//24 366//21 364//21
f 367//23 271//23 265//23
f 182//21 176//21 175//23
f 368//21 324//21 321//21
f 369//26 329//26 326//26
f 370//21 366//21 361//24
f 371//21 361//24 372//21
f 371//21 370//21 361//24
f 372//21 361//24 373//21
f 308//21 305//21 301//21
f 361//24 364//21 363//21
f 300//22 302//21 298//23
f 374//24 361//24 375//21
f 197//24 355//23 203//22
f 167//21 206//21 168//21
f 240//23 235//23 243//23
f 168//21 206//21 205//21
f 361//24 362//21 360//23
f 373//21 361//24 374//24
f 376//28 377//28 378//28
f 379//28 377//28 380//28
f 381//28 382//28 383//28
f 384//28 385//28 386//28
f 387//7 388//7 389//7
f 390//7 391//7 392//7
f 393//29 394//29 395//29
f 396//7 397//7 398//7
f 398//30 399//30 400//30
f 401//7 402//7 400//7
f 403//7 404//7 405//7
f 406//29 404//29 402//29
f 407//12 403//12 408//12
f 409//31 396//31 393//31
f 410//7 411//7 412//7
f 413//32 414//32 415//32
f 416//33 417//33 415//33
f 416//7 418//7 419//7
f 420//7 421//7 422//7
f 423//34 418//34 424//34
f 425//12 426//12 427//12
f 427//7 428//7 422//7
f 429//7 424//7 421//7
f 430//35 431//35 432//35
f 433//35 431//35 434//35
f 435//16 436//16 437//16
f 438//16 439//16 440//16
f 441//36 442//36 443//36
f 444//16 445//16 446//16
f 446//16 447//16 448//16
f 449//16 450//16 448//16
f 451//16 452//16 453//16
f 454//16 452//16 450//16
f 455//15 451//15 456//15
f 457//16 444//16 441//16
f 458//16 459//16 460//16
f 461//37 462//37 463//37
f 464//38 465//38 463//38
f 464//16 466//16 467//16
f 468//16 469//16 470//16
f 471//39 466//39 472//39
f 473//15 474//15 475//15
f 475//16 476//40 470//16
f 477//16 472//16 469//16
f 478//41 479//41 480//41
f 481//41 482//41 483//41
f 484//41 485//41 486//41
f 487//41 488//41 489//41
f 490//41 491//41 492//41
f 493//35 494//35 495//35
f 496//35 497//35 498//35
f 499//35 500//35 501//35
f 502//35 503//35 504//35
f 505//42 506//43 507//42
f 508//43 509//44 510//43
f 511//44 512//44 513//45
f 514//46 515//46 516//44
f 517//47 518//46 519//46
f 520//48 521//47 522//47
f 523//48 524//47 525//48
f 526//49 527//48 528//49
f 529//49 530//49 531//50
f 532//51 533//51 534//52
f 535//50 536//52 537//52
f 538//52 539//53 540//53
f 541//53 542//54 543//53
f 544//54 545//55 546//54
f 547//55 548//55 549//54
f 550//42 551//42 552//14
f 553//56 554//35 555//35
f 556//56 557//35 558//56
f 559//56 560//56 561//57
f 562//56 563//57 564//57
f 565//57 566//58 567//57
f 568//58 569//58 570//57
f 571//55 572//58 573//58
f 574//55 575//58 576//55
f 577//53 578//54 579//54
f 580//52 581//52 582//59
f 583//50 584//49 585//50
f 586//49 587//60 588//60
f 589//47 590//47 591//46
f 592//44 593//46 594//44
f 595//42 596//14 597//14
f 598//43 599//43 600//42
f 601//14 602//14 603//14
f 604//14 605//14 606//14
f 607//28 608//28 609//28
f 610//28 611//28 612//28
f 613//28 614//28 615//28
f 616//28 617//28 618//28
f 619//41 620//41 621//41
f 622//41 623//41 624//41
f 625//61 626//62 627//61
f 628//62 629//63 630//62
f 631//63 632//63 633//62
f 634//64 635//64 636//63
f 637//65 638//64 639//64
f 640//66 641//65 642//65
f 643//66 644//65 645//66
f 646//67 647//68 648//67
f 649//67 650//67 651//69
f 652//69 653//69 654//70
f 655//69 656//70 657//70
f 658//70 659//71 660//71
f 661//72 662//73 663//72
f 664//73 665//74 666//73
f 667//74 668//74 669//73
f 670//61 671//61 672//35
f 673//75 674//41 675//41
f 676//75 677//41 678//75
f 679//75 680//75 681//76
f 682//75 683//76 684//76
f 685//76 686//77 687//76
f 688//77 689//77 690//76
f 691//74 692//77 693//77
f 694//74 695//77 696//74
f 697//78 698//73 699//73
f 700//70 701//70 702//71
f 703//79 704//67 705//79
f 706//67 707//80 708//80
f 709//65 710//65 711//64
f 712//63 713//64 714//63
f 715//61 716//35 717//35
f 718//62 719//62 720//61
f 721//14 722//14 723//14
f 724//14 725//14 726//14
f 727//14 728//14 729//14
f 730//41 731//41 732//41
f 733//41 734//41 735//41
f 736//41 737//41 738//41
f 739//28 740//28 741//28
f 742//28 743//28 744//28
f 745//14 746//81 747//14
f 748//81 749//81 750//14
f 751//82 752//81 753//81
f 754//82 755//81 756//82
f 757//82 758//82 759//83
f 760//82 761//83 762//83
f 763//83 764//84 765//83
f 766//84 767//84 768//83
f 769//85 770//84 771//84
f 772//85 773//84 774//85
f 775//85 776//85 777//86
f 778//85 779//86 780//86
f 781//87 782//88 783//87
f 784//88 785//88 786//87
f 787//89 788//90 789//90
f 790//90 791//90 792//91
f 793//28 794//92 795//28
f 796//92 797//92 798//28
f 799//93 800//92 801//92
f 802//93 803//92 804//93
f 805//93 806//93 807//94
f 808//93 809//94 810//94
f 811//95 812//96 813//94
f 814//96 815//96 816//94
f 817//91 818//96 819//96
f 820//91 821//96 822//91
f 823//91 824//91 825//90
f 826//90 827//89 828//89
f 829//89 830//97 831//89
f 832//98 833//98 834//89
f 835//88 836//99 837//99
f 838//88 839//88 840//99
f 841//14 842//14 843//14
f 844//14 845//14 846//14
f 847//35 848//35 849//35
f 850//35 851//35 852//35
f 853//35 854//35 855//35
f 856//35 857//35 858//35
f 859//41 860//41 861//41
f 862//41 863//41 864//41
f 865//28 866//100 867//101
f 868//100 869//102 870//100
f 871//102 872//102 873//100
f 874//103 875//103 876//102
f 877//104 878//104 879//103
f 880//105 881//104 882//104
f 883//106 884//105 885//105
f 886//106 887//105 888//106
f 889//107 890//108 891//107
f 892//107 893//107 894//109
f 895//110 896//110 897//111
f 898//110 899//111 900//111
f 901//111 902//112 903//112
f 904//113 905//114 906//113
f 907//114 908//115 909//114
f 910//115 911//115 912//114
f 913//116 914//41 915//41
f 916//116 917//41 918//116
f 919//116 920//116 921//117
f 922//116 923//117 924//117
f 925//117 926//118 927//117
f 928//118 929//118 930//117
f 931//115 932//118 933//118
f 934//115 935//118 936//115
f 937//113 938//114 939//114
f 940//111 941//111 942//113
f 943//119 944//107 945//119
f 946//107 947//120 948//120
f 949//105 950//105 951//104
f 952//103 953//104 954//103
f 955//100 956//28 957//100
f 958//102 959//102 960//103
f 961//14 962//14 963//14
f 964//14 965//14 966//14
f 967//14 968//14 969//14
f 970//41 971//41 972//41
f 973//41 974//41 975//41
f 976//41 977//41 978//41
f 979//28 980//28 981//121
f 982//121 983//28 984//121
f 985//122 986//104 987//102
f 988//122 989//104 990//104
f 991//104 992//104 993//106
f 994//106 995//104 996//106
f 997//123 998//124 999//108
f 1000//112 1001//109 1002//109
f 1003//110 1004//110 1005//108
f 1006//125 1007//41 1008//41
f 1009//125 1010//125 1011//41
f 1012//117 1013//126 1014//117
f 1015//117 1016//126 1017//126
f 1018//115 1019//115 1020//113
f 1021//127 1022//115 1023//127
f 1024//119 1025//112 1026//112
f 1027//41 1028//128 1029//41
f 1030//41 1031//128 1032//128
f 1033//76 1034//76 1035//129
f 1036//129 1037//76 1038//129
f 1039//71 1040//69 1041//69
f 1042//78 1043//74 1044//78
f 1045//130 1046//68 1047//131
f 1048//78 1049//74 1050//74
f 1051//132 1052//35 1053//35
f 1054//132 1055//132 1056//35
f 1057//62 1058//64 1059//133
f 1060//133 1061//64 1062//64
f 1063//64 1064//64 1065//66
f 1066//66 1067//64 1068//80
f 1069//130 1070//68 1071//130
f 1072//134 1073//72 1074//71
f 431//35 1075//35 1076//135
f 1077//135 431//35 1078//135
f 1079//136 1080//55 1081//57
f 1082//136 1083//55 1084//55
f 1085//55 1086//55 1087//137
f 1088//53 1089//55 1090//137
f 1091//138 1092//139 1093//59
f 1094//60 1095//50 1096//50
f 1097//138 1098//138 1099//59
f 1100//140 1101//14 1102//14
f 1103//140 1104//140 1105//14
f 1106//43 1107//141 1108//43
f 1109//43 1110//141 1111//141
f 1112//46 1113//46 1114//48
f 1115//142 1116//46 1117//142
f 1118//143 1119//60 1120//48
f 1121//117 1122//126 1123//117
f 1124//115 1125//127 1126//115
f 1127//127 1128//127 1129//115
f 1130//110 1131//110 1132//112
f 1133//124 1134//123 1135//123
f 1136//104 1137//106 1138//106
f 1139//104 1140//106 1141//104
f 1142//125 1143//125 1144//41
f 1145//121 1146//28 1147//28
f 1148//121 1149//28 1150//121
f 1151//122 1152//122 1153//144
f 1154//102 1155//144 1156//144
f 1157//108 1158//124 1159//123
f 1160//112 1161//109 1162//145
f 1163//125 1164//41 1165//41
f 1166//126 1167//126 1168//117
f 1169//93 1170//146 1171//93
f 1172//96 1173//147 1174//96
f 1175//90 1176//90 1177//96
f 1178//99 1179//99 1180//148
f 1181//149 1182//98 1183//98
f 1184//84 1185//150 1186//150
f 1187//84 1188//150 1189//84
f 1190//151 1191//151 1192//28
f 1193//152 1194//14 1195//14
f 1196//152 1197//14 1198//152
f 1199//153 1200//82 1201//154
f 1202//82 1203//154 1204//154
f 1205//87 1206//149 1207//97
f 1208//148 1209//155 1210//148
f 1211//151 1212//28 1213//28
f 1214//146 1215//146 1216//93
f 1217//62 1218//156 1219//62
f 1220//64 1221//66 1222//64
f 1223//80 1224//80 1225//64
f 1226//130 1227//130 1228//131
f 1229//71 1230//134 1231//134
f 1232//74 1233//78 1234//78
f 1235//74 1236//78 1237//74
f 1238//41 1239//41 1240//128
f 1241//41 1242//128 1243//128
f 1244//157 1245//129 1246//157
f 1247//132 1248//132 1249//35
f 1250//129 1251//76 1252//129
f 1253//132 1254//35 1255//35
f 1256//62 1257//156 1258//156
f 1259//131 1260//79 1261//68
f 1262//71 1263//71 1264//69
f 1265//41 1266//41 1267//125
f 1268//125 1269//41 1270//125
f 1271//126 1272//117 1273//117
f 1274//126 1275//126 1276//158
f 1277//115 1278//127 1279//115
f 1280//115 1281//127 1282//127
f 1283//112 1284//159 1285//159
f 377//28 1286//28 1287//121
f 1288//121 1289//121 377//28
f 1290//122 1291//104 1292//102
f 1293//122 1294//104 1295//104
f 1296//104 1297//104 1298//106
f 1299//106 1300//104 1301//106
f 1302//160 1303//124 1304//124
f 1305//110 1306//110 1307//108
f 1308//123 1309//112 1310//112
f 1311//35 434//35 1312//132
f 1313//132 434//35 1314//132
f 1315//64 1316//133 1317//62
f 1318//64 1319//64 1320//133
f 1321//64 1322//66 1323//64
f 1324//64 1325//80 1326//66
f 1327//131 1328//131 1329//161
f 1330//162 1331//68 1332//162
f 1333//72 1334//163 1335//163
f 1336//41 1337//41 1338//128
f 1339//128 1340//41 1341//128
f 1342//129 1343//157 1344//76
f 1345//78 1346//74 1347//78
f 1348//78 1349//74 1350//74
f 1351//130 1352//72 1353//71
f 1354//129 1355//76 1356//129
f 1357//140 1358//140 1359//14
f 1360//141 1361//43 1362//43
f 1363//142 1364//46 1365//46
f 1366//142 1367//46 1368//142
f 1369//138 1370//164 1371//138
f 1372//143 1373//143 1374//59
f 1375//137 1376//53 1377//55
f 1378//35 1379//135 1380//35
f 1381//135 1382//135 1383//35
f 1384//165 1385//57 1386//57
f 1387//165 1388//57 1389//165
f 1390//55 1391//55 1392//137
f 1393//139 1394//139 1395//51
f 1396//164 1397//138 1398//164
f 1399//140 1400//14 1401//14
f 1402//141 1403//141 1404//45
f 1405//14 1406//152 1407//14
f 1408//14 1409//152 1410//152
f 1411//82 1412//82 1413//154
f 1414//154 1415//153 1416//154
f 1417//87 1418//97 1419//97
f 1420//150 1421//84 1422//150
f 1423//98 1424//148 1425//166
f 1426//150 1427//84 1428//84
f 1429//151 1430//28 380//28
f 1431//151 1432//151 380//28
f 1433//93 1434//96 1435//167
f 1436//167 1437//96 1438//96
f 1439//96 1440//96 1441//147
f 1442//147 1443//96 1444//90
f 1445//99 1446//148 1447//99
f 1448//155 1449//87 1450//87
f 1451//35 1452//35 1453//35
f 1452//35 1454//35 1455//35
f 1456//168 1457//168 1458//168
f 1459//41 1460//41 1458//41
f 1461//41 1462//41 1463//41
f 1464//35 1465//35 1466//35
f 1467//169 1468//169 1464//169
f 1469//35 1464//35 1470//35
f 1471//41 1472//41 1473//41
f 1474//41 1475//41 1476//41
f 1477//28 1478//28 1479//28
f 1480//170 1481//170 1479//170
f 1482//28 1483//28 1484//28
f 1485//41 1486//41 1487//41
f 1488//41 1489//41 1485//41
f 1490//41 1485//41 1491//41
f 1492//28 1493//28 1494//28
f 1495//28 1496//28 1497//28
f 1498//14 1499//14 1500//14
f 1501//14 1502//14 1500//14
f 1503//14 1504//14 1505//14
f 1506//28 1507//28 1508//28
f 1509//171 1510//171 1506//171
f 1511//28 1506//28 1512//28
f 1513//14 1514//14 1515//14
f 1516//14 1517//14 1518//14
f 1519//35 1520//35 1521//35
f 1522//172 1523//172 1521//172
f 1524//35 1525//35 1526//35
f 1527//76 1528//76 1529//41
f 1530//74 1528//76 1527//76
f 1531//72 1532//74 1530//74
f 1533//78 1532//74 1531//72
f 1534//130 1533//78 1535//173
f 1534//130 1535//173 1536//80
f 1537//80 1536//80 1538//156
f 1537//80 1538//156 1539//174
f 1539//174 1540//62 1541//62
f 1540//62 1542//35 1541//62
f 1542//35 1543//57 1544//35
f 1543//57 1545//57 1544//35
f 1546//175 1547//176 1545//57
f 1548//53 1547//176 1546//175
f 1549//138 1550//53 1548//53
f 1551//50 1550//53 1549//138
f 1552//48 1551//50 1553//48
f 1552//48 1553//48 1554//46
f 1555//141 1554//46 1556//43
f 1555//141 1556//43 1557//43
f 1557//43 1558//14 1559//14
f 1558//14 1560//82 1559//14
f 1561//82 1562//84 1563//177
f 1563//177 1562//84 1564//86
f 1565//28 1566//28 1567//93
f 1568//102 1569//102 1566//28
f 1570//104 1571//178 1569//102
f 1572//120 1573//120 1571//178
f 1574//110 1573//120 1572//120
f 1575//113 1576//110 1574//110
f 1577//113 1576//110 1575//113
f 1578//126 1577//113 1579//179
f 1553//48 1551//50 1549//138
f 1580//117 1581//117 1529//41
f 1578//126 1581//117 1580//117
f 1579//179 1581//117 1578//126
f 1575//113 1579//179 1577//113
f 1573//120 1574//110 1576//110
f 1571//178 1570//104 1572//120
f 1569//102 1568//102 1570//104
f 1580//117 1529//41 1582//41
f 1566//28 1565//28 1568//102
f 1567//93 1583//93 1565//28
f 1584//96 1583//93 1567//93
f 1585//180 1583//93 1584//96
f 1585//180 1584//96 1586//90
f 1585//180 1586//90 1587//90
f 1586//90 1588//99 1587//90
f 1588//99 1589//99 1587//90
f 1590//86 1589//99 1588//99
f 1564//86 1589//99 1590//86
f 1564//86 1590//86 1563//177
f 1562//84 1561//82 1560//82
f 1561//82 1559//14 1560//82
f 1558//14 1557//43 1556//43
f 1554//46 1555//141 1552//48
f 1547//176 1548//53 1550//53
f 1545//57 1543//57 1546//175
f 1544//35 1541//62 1542//35
f 1540//62 1539//174 1538//156
f 1536//80 1537//80 1534//130
f 1531//72 1535//173 1533//78
f 1528//76 1530//74 1532//74
f 1528//76 1582//41 1529//41
f 1591//14 1592//14 1593//14
f 1594//14 1595//14 1596//14
f 1597//14 1598//14 1599//14
f 1600//21 1601//21 1602//21
f 1603//21 1604//21 1605//21
f 1606//22 1607//22 1608//22
f 1600//21 1609//21 1610//21
f 1611//26 1612//26 1613//26
f 1614//24 1615//24 1616//24
f 1617//21 1618//21 1619//21
f 1620//23 1621//23 1622//23
f 1623//23 1624//23 1625//23
f 1626//21 1627//21 1628//21
f 1629//23 1630//23 1631//23
f 1632//22 1633//22 1634//22
f 1635//21 1636//21 1637//21
f 1638//23 1639//23 1640//23
f 1641//21 1642//21 1600//21
f 1643//21 1644//21 1600//21
f 1645//21 1646//21 1647//21
f 1648//21 1649//21 1650//21
f 1651//21 1652//21 1653//21
f 1654//23 1655//23 1656//23
f 1657//21 1658//21 1659//21
f 1659//21 1660//21 1661//21
f 1662//21 1663//21 1659//21
f 1664//26 1665//26 1659//26
f 1666//21 1667//21 1659//21
f 1668//21 1669//21 1670//21
f 1671//21 1672//21 1673//21
f 1659//21 1674//21 1675//21
f 1626//21 1676//21 1677//21
f 1678//21 1679//21 1626//21
f 1680//21 1681//21 1626//21
f 1682//21 1683//21 1684//21
f 1685//21 1686//21 1687//21
f 1688//21 1689//21 1690//21
f 1691//22 1692//22 1693//22
f 1617//22 1694//22 1695//22
f 1617//21 1696//21 1697//21
f 1698//21 1699//21 1617//21
f 1700//21 1701//21 1617//21
f 1702//21 1703//21 1704//21
f 1705//21 1706//21 1707//21
f 1708//21 1709//21 1710//21
f 1711//21 1712//21 1713//21
f 1600//21 1714//21 1715//21
f 1626//21 1716//21 1717//21
f 1600//21 1718//21 1719//21
f 1626//21 1720//21 1721//21
f 1722//21 1723//21 1617//21
f 1724//21 1725//21 1726//21
f 1727//21 1728//21 1729//21
f 1730//21 1731//21 1732//21
f 1733//21 1734//21 1735//21
f 1736//21 1737//21 1738//21
f 1739//21 1740//21 1741//21
f 1742//21 1743//21 1744//21
f 1745//21 1746//21 1747//21
f 1748//21 1749//21 1750//21
f 1751//25 1752//25 1753//25
f 1754//22 1755//22 1756//22
f 1757//21 1758//21 1759//21
f 1760//23 1761//23 1762//23
f 1763//21 1764//21 1765//21
f 1766//21 1767//21 1768//21
f 1769//181 1770//181 1771//181
f 1772//23 1773//23 1774//23
f 1775//22 1776//22 1777//22
f 1778//21 1779//21 1780//21
f 1781//23 1782//23 1783//23
f 1784//21 1785//21 1786//21
f 1787//21 1788//21 1789//21
f 1790//21 1791//21 1792//21
f 1793//21 1794//21 1795//21
f 1796//21 1797//21 1798//21
f 1799//21 1800//21 1801//21
f 1802//21 1803//21 1804//21
f 1805//21 1806//21 1807//21
f 1808//182 1809//182 1810//182
f 1811//21 1812//21 1813//21
f 1814//183 1815//183 1816//183
f 1817//183 1818//183 1471//41
f 1471//184 1819//183 1820//183
f 1821//185 1822//185 1823//185
f 1824//185 1825//185 1492//186
f 1492//186 1826//185 1827//185
f 1828//187 1829//187 1830//187
f 1831//187 1832//187 1513//14
f 1513//188 1833//187 1834//187
f 1835//189 1836//189 1452//35
f 1837//189 1838//189 1451//35
f 1451//35 1839//189 1452//35
f 1840//41 1841//41 1842//41
f 1843//41 1844//41 1842//41
f 1845//41 1840//41 1846//41
f 1847//35 1848//35 1849//35
f 1850//35 1851//35 1852//35
f 1853//14 1854//14 1855//14
f 1856//14 1857//14 1858//14
f 1859//28 1860//28 1861//28
f 1862//28 1863//28 1864//28
f 1865//21 1866//21 1867//21
f 1868//21 1869//21 1870//21
f 1871//190 1872//190 1873//190
f 1872//191 1874//191 1875//191
f 1876//190 1872//190 1877//190
f 1872//191 1878//191 1879//191
f 1880//1 1881//1 1882//1
f 1883//1 1884//1 1885//1
f 1886//1 1887//1 1888//1
f 1889//1 1890//1 1891//1
