# Blender 4.4.3
# www.blender.org
mtllib Mesh_20.014.mtl
o Mesh_20.014
v 0.017290 0.008710 -0.000752
v 0.017290 0.008710 -0.000743
v 0.017290 0.008716 -0.000737
v 0.017290 0.008773 -0.000752
v 0.017290 0.008721 -0.000730
v 0.017290 0.008726 -0.000724
v 0.017290 0.008732 -0.000719
v 0.017290 0.008738 -0.000713
v 0.017290 0.008773 -0.000715
v 0.017290 0.008744 -0.000708
v 0.017290 0.008750 -0.000702
v 0.017290 0.008756 -0.000697
v 0.017290 0.008710 -0.000743
v 0.017375 0.008710 -0.000743
v 0.017375 0.008714 -0.000739
v 0.017290 0.008716 -0.000737
v 0.017290 0.008710 -0.000743
v 0.017375 0.008717 -0.000735
v 0.017290 0.008716 -0.000737
v 0.017290 0.008721 -0.000730
v 0.017290 0.008716 -0.000737
v 0.017290 0.008721 -0.000730
v 0.017375 0.008720 -0.000731
v 0.017375 0.008723 -0.000727
v 0.017290 0.008721 -0.000730
v 0.017290 0.008726 -0.000724
v 0.017290 0.008721 -0.000730
v 0.017375 0.008727 -0.000724
v 0.017375 0.008730 -0.000720
v 0.017290 0.008726 -0.000724
v 0.017290 0.008726 -0.000724
v 0.017290 0.008726 -0.000724
v 0.017290 0.008732 -0.000719
v 0.017290 0.008732 -0.000719
v 0.017375 0.008734 -0.000717
v 0.017290 0.008738 -0.000713
v 0.017290 0.008732 -0.000719
v 0.017375 0.008738 -0.000713
v 0.017290 0.008738 -0.000713
v 0.017375 0.008741 -0.000710
v 0.017290 0.008738 -0.000713
v 0.017290 0.008738 -0.000713
v 0.017290 0.008744 -0.000708
v 0.017290 0.008744 -0.000708
v 0.017375 0.008745 -0.000706
v 0.017290 0.008750 -0.000702
v 0.017293 0.008756 -0.000697
v 0.017290 0.008756 -0.000697
v 0.017290 0.008750 -0.000702
v 0.017290 0.008744 -0.000708
v 0.017290 0.008750 -0.000702
v 0.017297 0.008756 -0.000697
v 0.017375 0.008749 -0.000703
v 0.017290 0.008750 -0.000702
v 0.017300 0.008756 -0.000697
v 0.017290 0.008750 -0.000702
v 0.017304 0.008756 -0.000697
v 0.017290 0.008750 -0.000702
v 0.017307 0.008757 -0.000697
v 0.017375 0.008753 -0.000700
v 0.017310 0.008757 -0.000696
v 0.017317 0.008759 -0.000695
v 0.017313 0.008758 -0.000696
v 0.017340 0.008769 -0.000688
v 0.017338 0.008767 -0.000689
v 0.017375 0.008765 -0.000691
v 0.017375 0.008769 -0.000688
v 0.017335 0.008766 -0.000690
v 0.017332 0.008764 -0.000691
v 0.017375 0.008761 -0.000694
v 0.017329 0.008763 -0.000692
v 0.017326 0.008762 -0.000693
v 0.017375 0.008757 -0.000697
v 0.017323 0.008761 -0.000694
v 0.017320 0.008760 -0.000694
v 0.017290 0.008750 -0.000702
v 0.017290 0.008750 -0.000702
v 0.017375 0.008834 -0.000687
v 0.017352 0.008803 -0.000687
v 0.017375 0.008772 -0.000687
v 0.017345 0.008775 -0.000687
v 0.017343 0.008772 -0.000687
v 0.017347 0.008779 -0.000687
v 0.017349 0.008783 -0.000687
v 0.017350 0.008787 -0.000687
v 0.017351 0.008791 -0.000687
v 0.017352 0.008795 -0.000687
v 0.017352 0.008799 -0.000687
v 0.017352 0.008807 -0.000687
v 0.017352 0.008811 -0.000687
v 0.017351 0.008815 -0.000687
v 0.017350 0.008819 -0.000687
v 0.017349 0.008823 -0.000687
v 0.017345 0.008831 -0.000687
v 0.017343 0.008834 -0.000687
v 0.017347 0.008827 -0.000687
v 0.017290 0.008856 -0.000702
v 0.017293 0.008850 -0.000697
v 0.017297 0.008850 -0.000697
v 0.017300 0.008850 -0.000697
v 0.017303 0.008850 -0.000697
v 0.017307 0.008849 -0.000697
v 0.017375 0.008868 -0.000713
v 0.017375 0.008872 -0.000717
v 0.017290 0.008868 -0.000713
v 0.017375 0.008879 -0.000724
v 0.017290 0.008880 -0.000724
v 0.017375 0.008876 -0.000720
v 0.017375 0.008883 -0.000727
v 0.017290 0.008885 -0.000730
v 0.017290 0.008850 -0.000697
v 0.017290 0.008895 -0.000743
v 0.017375 0.008892 -0.000739
v 0.017375 0.008895 -0.000743
v 0.017290 0.008890 -0.000737
v 0.017375 0.008889 -0.000735
v 0.017375 0.008886 -0.000731
v 0.017290 0.008874 -0.000719
v 0.017375 0.008865 -0.000710
v 0.017290 0.008862 -0.000708
v 0.017375 0.008861 -0.000706
v 0.017310 0.008849 -0.000696
v 0.017375 0.008857 -0.000703
v 0.017313 0.008848 -0.000696
v 0.017375 0.008853 -0.000700
v 0.017317 0.008847 -0.000695
v 0.017320 0.008846 -0.000694
v 0.017375 0.008849 -0.000697
v 0.017326 0.008844 -0.000693
v 0.017329 0.008843 -0.000692
v 0.017375 0.008845 -0.000694
v 0.017375 0.008837 -0.000688
v 0.017375 0.008841 -0.000691
v 0.017340 0.008837 -0.000688
v 0.017338 0.008839 -0.000689
v 0.017335 0.008840 -0.000690
v 0.017332 0.008842 -0.000691
v 0.017323 0.008845 -0.000694
v 0.017290 0.008833 -0.000715
v 0.017290 0.008868 -0.000713
v 0.017290 0.008833 -0.000752
v 0.017290 0.008850 -0.000697
v 0.017290 0.008856 -0.000702
v 0.017290 0.008856 -0.000702
v 0.017290 0.008862 -0.000708
v 0.017290 0.008862 -0.000708
v 0.017290 0.008868 -0.000713
v 0.017290 0.008868 -0.000713
v 0.017290 0.008874 -0.000719
v 0.017290 0.008874 -0.000719
v 0.017290 0.008880 -0.000724
v 0.017290 0.008880 -0.000724
v 0.017290 0.008885 -0.000730
v 0.017290 0.008895 -0.000743
v 0.017290 0.008895 -0.000752
v 0.017290 0.008890 -0.000737
v 0.017290 0.008885 -0.000730
v 0.017290 0.008890 -0.000737
v 0.017290 0.008890 -0.000737
v 0.017375 0.008845 -0.000694
v 0.017375 0.008834 -0.000687
v 0.017375 0.008772 -0.000687
v 0.017375 0.008761 -0.000694
v 0.017375 0.008772 -0.000687
v 0.017375 0.008765 -0.000691
v 0.017375 0.008772 -0.000687
v 0.017375 0.008771 -0.000687
v 0.017375 0.008769 -0.000688
v 0.017375 0.008770 -0.000687
v 0.017375 0.008769 -0.000688
v 0.017375 0.008770 -0.000687
v 0.017375 0.008769 -0.000688
v 0.017375 0.008772 -0.000687
v 0.017375 0.008769 -0.000688
v 0.017375 0.008765 -0.000691
v 0.017375 0.008845 -0.000694
v 0.017375 0.008772 -0.000687
v 0.017375 0.008761 -0.000694
v 0.017375 0.008845 -0.000694
v 0.017375 0.008761 -0.000694
v 0.017375 0.008849 -0.000697
v 0.017375 0.008761 -0.000694
v 0.017375 0.008757 -0.000697
v 0.017375 0.008849 -0.000697
v 0.017375 0.008757 -0.000697
v 0.017375 0.008853 -0.000700
v 0.017375 0.008849 -0.000697
v 0.017375 0.008753 -0.000700
v 0.017375 0.008853 -0.000700
v 0.017375 0.008757 -0.000697
v 0.017375 0.008857 -0.000703
v 0.017375 0.008853 -0.000700
v 0.017375 0.008753 -0.000700
v 0.017375 0.008857 -0.000703
v 0.017375 0.008753 -0.000700
v 0.017375 0.008749 -0.000703
v 0.017375 0.008857 -0.000703
v 0.017375 0.008749 -0.000703
v 0.017375 0.008861 -0.000706
v 0.017375 0.008749 -0.000703
v 0.017375 0.008745 -0.000706
v 0.017375 0.008861 -0.000706
v 0.017375 0.008745 -0.000706
v 0.017375 0.008865 -0.000710
v 0.017375 0.008861 -0.000706
v 0.017375 0.008741 -0.000710
v 0.017375 0.008865 -0.000710
v 0.017375 0.008745 -0.000706
v 0.017375 0.008868 -0.000713
v 0.017375 0.008865 -0.000710
v 0.017375 0.008741 -0.000710
v 0.017375 0.008868 -0.000713
v 0.017375 0.008741 -0.000710
v 0.017375 0.008738 -0.000713
v 0.017375 0.008710 -0.000743
v 0.017375 0.008710 -0.000752
v 0.017375 0.008714 -0.000739
v 0.017375 0.008868 -0.000713
v 0.017375 0.008738 -0.000713
v 0.017375 0.008872 -0.000717
v 0.017375 0.008720 -0.000731
v 0.017375 0.008717 -0.000735
v 0.017375 0.008734 -0.000717
v 0.017375 0.008730 -0.000720
v 0.017375 0.008895 -0.000743
v 0.017375 0.008892 -0.000739
v 0.017375 0.008895 -0.000752
v 0.017375 0.008892 -0.000739
v 0.017375 0.008889 -0.000735
v 0.017375 0.008889 -0.000735
v 0.017375 0.008886 -0.000731
v 0.017375 0.008886 -0.000731
v 0.017375 0.008883 -0.000727
v 0.017375 0.008883 -0.000727
v 0.017375 0.008879 -0.000724
v 0.017375 0.008879 -0.000724
v 0.017375 0.008876 -0.000720
v 0.017375 0.008876 -0.000720
v 0.017375 0.008872 -0.000717
v 0.017375 0.008734 -0.000717
v 0.017375 0.008730 -0.000720
v 0.017375 0.008727 -0.000724
v 0.017375 0.008727 -0.000724
v 0.017375 0.008723 -0.000727
v 0.017375 0.008723 -0.000727
v 0.017375 0.008720 -0.000731
v 0.017375 0.008734 -0.000717
v 0.017375 0.008872 -0.000717
v 0.017375 0.008872 -0.000717
v 0.017375 0.008738 -0.000713
v 0.017375 0.008734 -0.000717
v 0.017375 0.008717 -0.000735
v 0.017375 0.008714 -0.000739
v 0.017375 0.008845 -0.000694
v 0.017375 0.008841 -0.000691
v 0.017375 0.008834 -0.000687
v 0.017375 0.008836 -0.000687
v 0.017375 0.008834 -0.000687
v 0.017375 0.008836 -0.000687
v 0.017375 0.008834 -0.000687
v 0.017375 0.008837 -0.000688
v 0.017375 0.008835 -0.000687
v 0.017375 0.008834 -0.000687
v 0.017375 0.008837 -0.000688
v 0.017375 0.008834 -0.000687
v 0.017375 0.008841 -0.000691
v 0.017375 0.008710 -0.000752
v 0.017375 0.008710 -0.000743
v 0.017290 0.008710 -0.000752
v 0.017375 0.008710 -0.000743
v 0.017290 0.008710 -0.000743
v 0.017290 0.008710 -0.000752
v 0.017290 0.008895 -0.000752
v 0.017290 0.008895 -0.000743
v 0.017375 0.008895 -0.000752
v 0.017290 0.008895 -0.000743
v 0.017375 0.008895 -0.000743
v 0.017375 0.008895 -0.000752
v 0.017290 0.008710 -0.000752
v 0.017306 0.008775 -0.000752
v 0.017308 0.008776 -0.000752
v 0.017375 0.008710 -0.000752
v 0.017325 0.008801 -0.000752
v 0.017325 0.008803 -0.000752
v 0.017292 0.008833 -0.000752
v 0.017290 0.008833 -0.000752
v 0.017290 0.008895 -0.000752
v 0.017290 0.008895 -0.000752
v 0.017293 0.008833 -0.000752
v 0.017290 0.008895 -0.000752
v 0.017295 0.008833 -0.000752
v 0.017290 0.008895 -0.000752
v 0.017296 0.008833 -0.000752
v 0.017290 0.008895 -0.000752
v 0.017298 0.008833 -0.000752
v 0.017290 0.008895 -0.000752
v 0.017300 0.008833 -0.000752
v 0.017290 0.008895 -0.000752
v 0.017301 0.008832 -0.000752
v 0.017290 0.008895 -0.000752
v 0.017303 0.008832 -0.000752
v 0.017290 0.008895 -0.000752
v 0.017304 0.008831 -0.000752
v 0.017290 0.008895 -0.000752
v 0.017306 0.008831 -0.000752
v 0.017290 0.008895 -0.000752
v 0.017308 0.008830 -0.000752
v 0.017290 0.008895 -0.000752
v 0.017309 0.008830 -0.000752
v 0.017290 0.008895 -0.000752
v 0.017375 0.008895 -0.000752
v 0.017375 0.008895 -0.000752
v 0.017310 0.008829 -0.000752
v 0.017375 0.008895 -0.000752
v 0.017312 0.008828 -0.000752
v 0.017375 0.008895 -0.000752
v 0.017313 0.008827 -0.000752
v 0.017375 0.008895 -0.000752
v 0.017314 0.008826 -0.000752
v 0.017375 0.008895 -0.000752
v 0.017316 0.008825 -0.000752
v 0.017375 0.008895 -0.000752
v 0.017317 0.008824 -0.000752
v 0.017375 0.008895 -0.000752
v 0.017318 0.008822 -0.000752
v 0.017375 0.008895 -0.000752
v 0.017319 0.008821 -0.000752
v 0.017375 0.008895 -0.000752
v 0.017320 0.008820 -0.000752
v 0.017375 0.008895 -0.000752
v 0.017321 0.008819 -0.000752
v 0.017323 0.008814 -0.000752
v 0.017322 0.008816 -0.000752
v 0.017375 0.008895 -0.000752
v 0.017375 0.008895 -0.000752
v 0.017321 0.008817 -0.000752
v 0.017323 0.008813 -0.000752
v 0.017375 0.008895 -0.000752
v 0.017324 0.008811 -0.000752
v 0.017375 0.008895 -0.000752
v 0.017324 0.008809 -0.000752
v 0.017375 0.008895 -0.000752
v 0.017325 0.008808 -0.000752
v 0.017375 0.008895 -0.000752
v 0.017325 0.008806 -0.000752
v 0.017375 0.008895 -0.000752
v 0.017325 0.008805 -0.000752
v 0.017375 0.008895 -0.000752
v 0.017375 0.008895 -0.000752
v 0.017375 0.008895 -0.000752
v 0.017375 0.008710 -0.000752
v 0.017375 0.008710 -0.000752
v 0.017325 0.008800 -0.000752
v 0.017375 0.008710 -0.000752
v 0.017325 0.008798 -0.000752
v 0.017375 0.008710 -0.000752
v 0.017324 0.008797 -0.000752
v 0.017375 0.008710 -0.000752
v 0.017324 0.008795 -0.000752
v 0.017375 0.008710 -0.000752
v 0.017323 0.008793 -0.000752
v 0.017322 0.008790 -0.000752
v 0.017375 0.008710 -0.000752
v 0.017321 0.008789 -0.000752
v 0.017323 0.008792 -0.000752
v 0.017375 0.008710 -0.000752
v 0.017375 0.008710 -0.000752
v 0.017321 0.008787 -0.000752
v 0.017375 0.008710 -0.000752
v 0.017320 0.008786 -0.000752
v 0.017375 0.008710 -0.000752
v 0.017319 0.008785 -0.000752
v 0.017375 0.008710 -0.000752
v 0.017318 0.008784 -0.000752
v 0.017375 0.008710 -0.000752
v 0.017317 0.008782 -0.000752
v 0.017375 0.008710 -0.000752
v 0.017316 0.008781 -0.000752
v 0.017375 0.008710 -0.000752
v 0.017314 0.008780 -0.000752
v 0.017375 0.008710 -0.000752
v 0.017313 0.008779 -0.000752
v 0.017375 0.008710 -0.000752
v 0.017312 0.008778 -0.000752
v 0.017375 0.008710 -0.000752
v 0.017310 0.008777 -0.000752
v 0.017375 0.008710 -0.000752
v 0.017309 0.008776 -0.000752
v 0.017375 0.008710 -0.000752
v 0.017290 0.008710 -0.000752
v 0.017290 0.008710 -0.000752
v 0.017304 0.008775 -0.000752
v 0.017290 0.008710 -0.000752
v 0.017303 0.008774 -0.000752
v 0.017290 0.008710 -0.000752
v 0.017301 0.008774 -0.000752
v 0.017290 0.008710 -0.000752
v 0.017290 0.008710 -0.000752
v 0.017300 0.008773 -0.000752
v 0.017290 0.008710 -0.000752
v 0.017298 0.008773 -0.000752
v 0.017290 0.008710 -0.000752
v 0.017296 0.008773 -0.000752
v 0.017290 0.008710 -0.000752
v 0.017295 0.008773 -0.000752
v 0.017290 0.008710 -0.000752
v 0.017293 0.008773 -0.000752
v 0.017375 0.008895 -0.000752
v 0.017290 0.008710 -0.000752
v 0.017292 0.008773 -0.000752
v 0.017375 0.008710 -0.000752
v 0.017290 0.008710 -0.000752
v 0.017290 0.008773 -0.000752
v 0.017292 0.008833 -0.000752
v 0.017293 0.008833 -0.000752
v 0.017292 0.008833 -0.000715
v 0.017293 0.008833 -0.000752
v 0.017295 0.008833 -0.000752
v 0.017293 0.008833 -0.000715
v 0.017295 0.008833 -0.000752
v 0.017295 0.008833 -0.000715
v 0.017296 0.008833 -0.000752
v 0.017296 0.008833 -0.000715
v 0.017298 0.008833 -0.000752
v 0.017298 0.008833 -0.000715
v 0.017300 0.008833 -0.000752
v 0.017300 0.008833 -0.000715
v 0.017301 0.008832 -0.000752
v 0.017300 0.008833 -0.000752
v 0.017303 0.008832 -0.000752
v 0.017301 0.008832 -0.000715
v 0.017301 0.008832 -0.000752
v 0.017303 0.008832 -0.000715
v 0.017303 0.008832 -0.000752
v 0.017304 0.008831 -0.000715
v 0.017304 0.008831 -0.000752
v 0.017304 0.008831 -0.000752
v 0.017306 0.008831 -0.000752
v 0.017306 0.008831 -0.000715
v 0.017306 0.008831 -0.000752
v 0.017308 0.008830 -0.000752
v 0.017308 0.008830 -0.000715
v 0.017308 0.008830 -0.000752
v 0.017309 0.008830 -0.000752
v 0.017309 0.008830 -0.000752
v 0.017309 0.008830 -0.000715
v 0.017310 0.008829 -0.000752
v 0.017310 0.008829 -0.000715
v 0.017310 0.008829 -0.000752
v 0.017312 0.008828 -0.000752
v 0.017312 0.008828 -0.000752
v 0.017313 0.008827 -0.000752
v 0.017312 0.008828 -0.000715
v 0.017313 0.008827 -0.000752
v 0.017313 0.008827 -0.000715
v 0.017314 0.008826 -0.000752
v 0.017314 0.008826 -0.000715
v 0.017316 0.008825 -0.000752
v 0.017314 0.008826 -0.000752
v 0.017317 0.008824 -0.000752
v 0.017316 0.008825 -0.000715
v 0.017316 0.008825 -0.000752
v 0.017317 0.008824 -0.000715
v 0.017317 0.008824 -0.000752
v 0.017318 0.008822 -0.000715
v 0.017318 0.008822 -0.000752
v 0.017318 0.008822 -0.000752
v 0.017319 0.008821 -0.000752
v 0.017319 0.008821 -0.000715
v 0.017319 0.008821 -0.000752
v 0.017320 0.008820 -0.000752
v 0.017320 0.008820 -0.000752
v 0.017320 0.008820 -0.000715
v 0.017321 0.008819 -0.000752
v 0.017321 0.008819 -0.000715
v 0.017321 0.008819 -0.000752
v 0.017321 0.008817 -0.000752
v 0.017321 0.008817 -0.000752
v 0.017322 0.008816 -0.000752
v 0.017321 0.008817 -0.000715
v 0.017322 0.008816 -0.000752
v 0.017322 0.008816 -0.000715
v 0.017323 0.008814 -0.000752
v 0.017323 0.008814 -0.000715
v 0.017323 0.008813 -0.000752
v 0.017323 0.008814 -0.000752
v 0.017324 0.008811 -0.000752
v 0.017323 0.008813 -0.000715
v 0.017323 0.008813 -0.000752
v 0.017324 0.008811 -0.000715
v 0.017324 0.008811 -0.000752
v 0.017324 0.008809 -0.000715
v 0.017324 0.008809 -0.000752
v 0.017324 0.008809 -0.000752
v 0.017325 0.008808 -0.000752
v 0.017325 0.008808 -0.000715
v 0.017325 0.008808 -0.000752
v 0.017325 0.008806 -0.000752
v 0.017325 0.008806 -0.000752
v 0.017325 0.008806 -0.000715
v 0.017325 0.008805 -0.000752
v 0.017325 0.008805 -0.000715
v 0.017325 0.008805 -0.000752
v 0.017325 0.008803 -0.000752
v 0.017325 0.008803 -0.000752
v 0.017325 0.008801 -0.000752
v 0.017325 0.008803 -0.000715
v 0.017325 0.008801 -0.000752
v 0.017325 0.008801 -0.000715
v 0.017325 0.008800 -0.000752
v 0.017325 0.008800 -0.000715
v 0.017325 0.008798 -0.000752
v 0.017325 0.008800 -0.000752
v 0.017324 0.008797 -0.000752
v 0.017325 0.008798 -0.000715
v 0.017325 0.008798 -0.000752
v 0.017324 0.008795 -0.000752
v 0.017324 0.008797 -0.000715
v 0.017324 0.008797 -0.000752
v 0.017324 0.008795 -0.000715
v 0.017324 0.008795 -0.000752
v 0.017323 0.008793 -0.000715
v 0.017323 0.008793 -0.000752
v 0.017323 0.008793 -0.000752
v 0.017323 0.008792 -0.000752
v 0.017323 0.008792 -0.000715
v 0.017323 0.008792 -0.000752
v 0.017322 0.008790 -0.000752
v 0.017322 0.008790 -0.000752
v 0.017322 0.008790 -0.000715
v 0.017321 0.008789 -0.000752
v 0.017321 0.008789 -0.000715
v 0.017321 0.008789 -0.000752
v 0.017321 0.008787 -0.000752
v 0.017321 0.008787 -0.000752
v 0.017320 0.008786 -0.000752
v 0.017321 0.008787 -0.000715
v 0.017320 0.008786 -0.000752
v 0.017320 0.008786 -0.000715
v 0.017319 0.008785 -0.000752
v 0.017319 0.008785 -0.000715
v 0.017318 0.008784 -0.000752
v 0.017319 0.008785 -0.000752
v 0.017317 0.008782 -0.000752
v 0.017318 0.008784 -0.000715
v 0.017318 0.008784 -0.000752
v 0.017317 0.008782 -0.000715
v 0.017317 0.008782 -0.000752
v 0.017316 0.008781 -0.000715
v 0.017316 0.008781 -0.000752
v 0.017316 0.008781 -0.000752
v 0.017314 0.008780 -0.000752
v 0.017314 0.008780 -0.000715
v 0.017314 0.008780 -0.000752
v 0.017313 0.008779 -0.000752
v 0.017313 0.008779 -0.000752
v 0.017313 0.008779 -0.000715
v 0.017292 0.008773 -0.000715
v 0.017293 0.008773 -0.000715
v 0.017292 0.008773 -0.000752
v 0.017290 0.008773 -0.000752
v 0.017290 0.008773 -0.000715
v 0.017290 0.008773 -0.000752
v 0.017292 0.008773 -0.000752
v 0.017293 0.008773 -0.000752
v 0.017292 0.008773 -0.000752
v 0.017295 0.008773 -0.000715
v 0.017293 0.008773 -0.000752
v 0.017295 0.008773 -0.000752
v 0.017293 0.008773 -0.000752
v 0.017295 0.008773 -0.000752
v 0.017296 0.008773 -0.000715
v 0.017295 0.008773 -0.000752
v 0.017296 0.008773 -0.000752
v 0.017298 0.008773 -0.000715
v 0.017296 0.008773 -0.000752
v 0.017298 0.008773 -0.000752
v 0.017296 0.008773 -0.000752
v 0.017300 0.008773 -0.000715
v 0.017298 0.008773 -0.000752
v 0.017300 0.008773 -0.000752
v 0.017298 0.008773 -0.000752
v 0.017300 0.008773 -0.000752
v 0.017301 0.008774 -0.000715
v 0.017300 0.008773 -0.000752
v 0.017301 0.008774 -0.000752
v 0.017303 0.008774 -0.000715
v 0.017301 0.008774 -0.000752
v 0.017303 0.008774 -0.000752
v 0.017301 0.008774 -0.000752
v 0.017304 0.008775 -0.000715
v 0.017303 0.008774 -0.000752
v 0.017304 0.008775 -0.000752
v 0.017303 0.008774 -0.000752
v 0.017304 0.008775 -0.000752
v 0.017306 0.008775 -0.000715
v 0.017304 0.008775 -0.000752
v 0.017306 0.008775 -0.000752
v 0.017308 0.008776 -0.000715
v 0.017306 0.008775 -0.000752
v 0.017308 0.008776 -0.000752
v 0.017306 0.008775 -0.000752
v 0.017309 0.008776 -0.000715
v 0.017308 0.008776 -0.000752
v 0.017309 0.008776 -0.000752
v 0.017308 0.008776 -0.000752
v 0.017309 0.008776 -0.000752
v 0.017310 0.008777 -0.000715
v 0.017309 0.008776 -0.000752
v 0.017310 0.008777 -0.000752
v 0.017312 0.008778 -0.000715
v 0.017310 0.008777 -0.000752
v 0.017312 0.008778 -0.000752
v 0.017310 0.008777 -0.000752
v 0.017312 0.008778 -0.000752
v 0.017313 0.008779 -0.000752
v 0.017312 0.008778 -0.000752
v 0.017314 0.008780 -0.000752
v 0.017317 0.008782 -0.000752
v 0.017316 0.008781 -0.000752
v 0.017318 0.008784 -0.000752
v 0.017319 0.008785 -0.000752
v 0.017320 0.008786 -0.000752
v 0.017321 0.008787 -0.000752
v 0.017322 0.008790 -0.000752
v 0.017321 0.008789 -0.000752
v 0.017323 0.008792 -0.000752
v 0.017324 0.008795 -0.000752
v 0.017323 0.008793 -0.000752
v 0.017324 0.008797 -0.000752
v 0.017325 0.008798 -0.000752
v 0.017325 0.008800 -0.000752
v 0.017325 0.008801 -0.000752
v 0.017325 0.008803 -0.000752
v 0.017325 0.008806 -0.000752
v 0.017325 0.008805 -0.000752
v 0.017325 0.008808 -0.000752
v 0.017324 0.008811 -0.000752
v 0.017324 0.008809 -0.000752
v 0.017323 0.008813 -0.000752
v 0.017323 0.008814 -0.000752
v 0.017322 0.008816 -0.000752
v 0.017321 0.008817 -0.000752
v 0.017320 0.008820 -0.000752
v 0.017321 0.008819 -0.000752
v 0.017319 0.008821 -0.000752
v 0.017317 0.008824 -0.000752
v 0.017318 0.008822 -0.000752
v 0.017316 0.008825 -0.000752
v 0.017314 0.008826 -0.000752
v 0.017313 0.008827 -0.000752
v 0.017312 0.008828 -0.000752
v 0.017309 0.008830 -0.000752
v 0.017310 0.008829 -0.000752
v 0.017308 0.008830 -0.000752
v 0.017306 0.008831 -0.000752
v 0.017303 0.008832 -0.000752
v 0.017304 0.008831 -0.000752
v 0.017298 0.008833 -0.000752
v 0.017300 0.008833 -0.000752
v 0.017295 0.008833 -0.000752
v 0.017296 0.008833 -0.000752
v 0.017290 0.008833 -0.000752
v 0.017292 0.008833 -0.000752
v 0.017290 0.008833 -0.000715
v 0.017290 0.008833 -0.000752
v 0.017301 0.008832 -0.000752
v 0.017296 0.008833 -0.000752
v 0.017298 0.008833 -0.000752
v 0.017293 0.008833 -0.000752
v 0.017293 0.008756 -0.000697
v 0.017295 0.008773 -0.000715
v 0.017293 0.008773 -0.000715
v 0.017293 0.008756 -0.000697
v 0.017293 0.008773 -0.000715
v 0.017290 0.008756 -0.000697
v 0.017297 0.008756 -0.000697
v 0.017296 0.008773 -0.000715
v 0.017295 0.008773 -0.000715
v 0.017298 0.008773 -0.000715
v 0.017296 0.008773 -0.000715
v 0.017300 0.008756 -0.000697
v 0.017300 0.008773 -0.000715
v 0.017300 0.008756 -0.000697
v 0.017304 0.008756 -0.000697
v 0.017301 0.008774 -0.000715
v 0.017304 0.008756 -0.000697
v 0.017307 0.008757 -0.000697
v 0.017303 0.008774 -0.000715
v 0.017307 0.008757 -0.000697
v 0.017310 0.008757 -0.000696
v 0.017304 0.008775 -0.000715
v 0.017310 0.008757 -0.000696
v 0.017306 0.008775 -0.000715
v 0.017310 0.008757 -0.000696
v 0.017313 0.008758 -0.000696
v 0.017306 0.008775 -0.000715
v 0.017313 0.008758 -0.000696
v 0.017317 0.008759 -0.000695
v 0.017308 0.008776 -0.000715
v 0.017317 0.008759 -0.000695
v 0.017309 0.008776 -0.000715
v 0.017308 0.008776 -0.000715
v 0.017320 0.008760 -0.000694
v 0.017310 0.008777 -0.000715
v 0.017309 0.008776 -0.000715
v 0.017323 0.008761 -0.000694
v 0.017312 0.008778 -0.000715
v 0.017310 0.008777 -0.000715
v 0.017326 0.008762 -0.000693
v 0.017312 0.008778 -0.000715
v 0.017323 0.008761 -0.000694
v 0.017314 0.008780 -0.000715
v 0.017313 0.008779 -0.000715
v 0.017326 0.008762 -0.000693
v 0.017314 0.008780 -0.000715
v 0.017326 0.008762 -0.000693
v 0.017329 0.008763 -0.000692
v 0.017314 0.008780 -0.000715
v 0.017329 0.008763 -0.000692
v 0.017316 0.008781 -0.000715
v 0.017329 0.008763 -0.000692
v 0.017332 0.008764 -0.000691
v 0.017316 0.008781 -0.000715
v 0.017317 0.008782 -0.000715
v 0.017335 0.008766 -0.000690
v 0.017318 0.008784 -0.000715
v 0.017332 0.008764 -0.000691
v 0.017317 0.008782 -0.000715
v 0.017316 0.008781 -0.000715
v 0.017335 0.008766 -0.000690
v 0.017338 0.008767 -0.000689
v 0.017318 0.008784 -0.000715
v 0.017338 0.008767 -0.000689
v 0.017340 0.008769 -0.000688
v 0.017319 0.008785 -0.000715
v 0.017340 0.008769 -0.000688
v 0.017341 0.008770 -0.000688
v 0.017320 0.008786 -0.000715
v 0.017342 0.008770 -0.000687
v 0.017320 0.008786 -0.000715
v 0.017320 0.008786 -0.000715
v 0.017343 0.008771 -0.000687
v 0.017343 0.008772 -0.000687
v 0.017321 0.008787 -0.000715
v 0.017343 0.008772 -0.000687
v 0.017345 0.008775 -0.000687
v 0.017321 0.008787 -0.000715
v 0.017345 0.008775 -0.000687
v 0.017321 0.008789 -0.000715
v 0.017321 0.008789 -0.000715
v 0.017347 0.008779 -0.000687
v 0.017322 0.008790 -0.000715
v 0.017347 0.008779 -0.000687
v 0.017349 0.008783 -0.000687
v 0.017323 0.008792 -0.000715
v 0.017349 0.008783 -0.000687
v 0.017350 0.008787 -0.000687
v 0.017323 0.008793 -0.000715
v 0.017350 0.008787 -0.000687
v 0.017324 0.008795 -0.000715
v 0.017323 0.008793 -0.000715
v 0.017351 0.008791 -0.000687
v 0.017324 0.008797 -0.000715
v 0.017324 0.008795 -0.000715
v 0.017352 0.008795 -0.000687
v 0.017325 0.008798 -0.000715
v 0.017351 0.008791 -0.000687
v 0.017325 0.008800 -0.000715
v 0.017325 0.008798 -0.000715
v 0.017352 0.008795 -0.000687
v 0.017325 0.008801 -0.000715
v 0.017325 0.008800 -0.000715
v 0.017352 0.008799 -0.000687
v 0.017325 0.008803 -0.000715
v 0.017325 0.008801 -0.000715
v 0.017352 0.008803 -0.000687
v 0.017325 0.008805 -0.000715
v 0.017325 0.008803 -0.000715
v 0.017352 0.008803 -0.000687
v 0.017325 0.008805 -0.000715
v 0.017352 0.008803 -0.000687
v 0.017352 0.008807 -0.000687
v 0.017325 0.008805 -0.000715
v 0.017352 0.008807 -0.000687
v 0.017325 0.008806 -0.000715
v 0.017325 0.008806 -0.000715
v 0.017352 0.008811 -0.000687
v 0.017325 0.008808 -0.000715
v 0.017352 0.008811 -0.000687
v 0.017351 0.008815 -0.000687
v 0.017325 0.008808 -0.000715
v 0.017351 0.008815 -0.000687
v 0.017324 0.008811 -0.000715
v 0.017324 0.008809 -0.000715
v 0.017350 0.008819 -0.000687
v 0.017323 0.008813 -0.000715
v 0.017324 0.008811 -0.000715
v 0.017349 0.008823 -0.000687
v 0.017323 0.008814 -0.000715
v 0.017323 0.008813 -0.000715
v 0.017347 0.008827 -0.000687
v 0.017322 0.008816 -0.000715
v 0.017323 0.008814 -0.000715
v 0.017321 0.008817 -0.000715
v 0.017322 0.008816 -0.000715
v 0.017347 0.008827 -0.000687
v 0.017321 0.008819 -0.000715
v 0.017321 0.008817 -0.000715
v 0.017345 0.008831 -0.000687
v 0.017320 0.008820 -0.000715
v 0.017321 0.008819 -0.000715
v 0.017343 0.008834 -0.000687
v 0.017342 0.008836 -0.000687
v 0.017320 0.008820 -0.000715
v 0.017343 0.008835 -0.000687
v 0.017335 0.008840 -0.000690
v 0.017318 0.008822 -0.000715
v 0.017338 0.008839 -0.000689
v 0.017319 0.008821 -0.000715
v 0.017340 0.008837 -0.000688
v 0.017338 0.008839 -0.000689
v 0.017317 0.008824 -0.000715
v 0.017318 0.008822 -0.000715
v 0.017335 0.008840 -0.000690
v 0.017316 0.008825 -0.000715
v 0.017317 0.008824 -0.000715
v 0.017332 0.008842 -0.000691
v 0.017314 0.008826 -0.000715
v 0.017316 0.008825 -0.000715
v 0.017329 0.008843 -0.000692
v 0.017313 0.008827 -0.000715
v 0.017314 0.008826 -0.000715
v 0.017326 0.008844 -0.000693
v 0.017341 0.008836 -0.000688
v 0.017340 0.008837 -0.000688
v 0.017320 0.008820 -0.000715
v 0.017290 0.008850 -0.000697
v 0.017290 0.008833 -0.000715
v 0.017292 0.008833 -0.000715
v 0.017290 0.008850 -0.000697
v 0.017292 0.008833 -0.000715
v 0.017293 0.008833 -0.000715
v 0.017290 0.008850 -0.000697
v 0.017293 0.008833 -0.000715
v 0.017293 0.008850 -0.000697
v 0.017293 0.008833 -0.000715
v 0.017295 0.008833 -0.000715
v 0.017293 0.008850 -0.000697
v 0.017295 0.008833 -0.000715
v 0.017297 0.008850 -0.000697
v 0.017293 0.008850 -0.000697
v 0.017296 0.008833 -0.000715
v 0.017297 0.008850 -0.000697
v 0.017295 0.008833 -0.000715
v 0.017300 0.008850 -0.000697
v 0.017297 0.008850 -0.000697
v 0.017296 0.008833 -0.000715
v 0.017300 0.008850 -0.000697
v 0.017296 0.008833 -0.000715
v 0.017298 0.008833 -0.000715
v 0.017300 0.008850 -0.000697
v 0.017298 0.008833 -0.000715
v 0.017300 0.008833 -0.000715
v 0.017300 0.008850 -0.000697
v 0.017300 0.008833 -0.000715
v 0.017303 0.008850 -0.000697
v 0.017300 0.008833 -0.000715
v 0.017301 0.008832 -0.000715
v 0.017303 0.008850 -0.000697
v 0.017301 0.008832 -0.000715
v 0.017307 0.008849 -0.000697
v 0.017303 0.008850 -0.000697
v 0.017303 0.008832 -0.000715
v 0.017307 0.008849 -0.000697
v 0.017301 0.008832 -0.000715
v 0.017310 0.008849 -0.000696
v 0.017307 0.008849 -0.000697
v 0.017303 0.008832 -0.000715
v 0.017310 0.008849 -0.000696
v 0.017303 0.008832 -0.000715
v 0.017304 0.008831 -0.000715
v 0.017310 0.008849 -0.000696
v 0.017304 0.008831 -0.000715
v 0.017306 0.008831 -0.000715
v 0.017310 0.008849 -0.000696
v 0.017306 0.008831 -0.000715
v 0.017313 0.008848 -0.000696
v 0.017306 0.008831 -0.000715
v 0.017308 0.008830 -0.000715
v 0.017313 0.008848 -0.000696
v 0.017308 0.008830 -0.000715
v 0.017317 0.008847 -0.000695
v 0.017313 0.008848 -0.000696
v 0.017309 0.008830 -0.000715
v 0.017317 0.008847 -0.000695
v 0.017308 0.008830 -0.000715
v 0.017320 0.008846 -0.000694
v 0.017317 0.008847 -0.000695
v 0.017309 0.008830 -0.000715
v 0.017320 0.008846 -0.000694
v 0.017309 0.008830 -0.000715
v 0.017310 0.008829 -0.000715
v 0.017320 0.008846 -0.000694
v 0.017310 0.008829 -0.000715
v 0.017323 0.008845 -0.000694
v 0.017310 0.008829 -0.000715
v 0.017312 0.008828 -0.000715
v 0.017323 0.008845 -0.000694
v 0.017312 0.008828 -0.000715
v 0.017326 0.008844 -0.000693
v 0.017323 0.008845 -0.000694
v 0.017313 0.008827 -0.000715
v 0.017326 0.008844 -0.000693
v 0.017312 0.008828 -0.000715
v 0.017314 0.008826 -0.000715
v 0.017329 0.008843 -0.000692
v 0.017326 0.008844 -0.000693
v 0.017316 0.008825 -0.000715
v 0.017332 0.008842 -0.000691
v 0.017329 0.008843 -0.000692
v 0.017317 0.008824 -0.000715
v 0.017335 0.008840 -0.000690
v 0.017332 0.008842 -0.000691
v 0.017318 0.008822 -0.000715
v 0.017319 0.008821 -0.000715
v 0.017338 0.008839 -0.000689
v 0.017319 0.008821 -0.000715
v 0.017320 0.008820 -0.000715
v 0.017340 0.008837 -0.000688
v 0.017320 0.008820 -0.000715
v 0.017343 0.008834 -0.000687
v 0.017320 0.008820 -0.000715
v 0.017345 0.008831 -0.000687
v 0.017343 0.008834 -0.000687
v 0.017321 0.008819 -0.000715
v 0.017347 0.008827 -0.000687
v 0.017345 0.008831 -0.000687
v 0.017321 0.008817 -0.000715
v 0.017323 0.008814 -0.000715
v 0.017349 0.008823 -0.000687
v 0.017347 0.008827 -0.000687
v 0.017323 0.008813 -0.000715
v 0.017350 0.008819 -0.000687
v 0.017349 0.008823 -0.000687
v 0.017324 0.008811 -0.000715
v 0.017351 0.008815 -0.000687
v 0.017350 0.008819 -0.000687
v 0.017324 0.008809 -0.000715
v 0.017325 0.008808 -0.000715
v 0.017351 0.008815 -0.000687
v 0.017352 0.008811 -0.000687
v 0.017325 0.008806 -0.000715
v 0.017352 0.008807 -0.000687
v 0.017325 0.008801 -0.000715
v 0.017352 0.008799 -0.000687
v 0.017352 0.008803 -0.000687
v 0.017325 0.008800 -0.000715
v 0.017352 0.008795 -0.000687
v 0.017352 0.008799 -0.000687
v 0.017325 0.008798 -0.000715
v 0.017324 0.008797 -0.000715
v 0.017351 0.008791 -0.000687
v 0.017351 0.008791 -0.000687
v 0.017324 0.008795 -0.000715
v 0.017350 0.008787 -0.000687
v 0.017349 0.008783 -0.000687
v 0.017323 0.008793 -0.000715
v 0.017323 0.008792 -0.000715
v 0.017347 0.008779 -0.000687
v 0.017323 0.008792 -0.000715
v 0.017322 0.008790 -0.000715
v 0.017345 0.008775 -0.000687
v 0.017347 0.008779 -0.000687
v 0.017321 0.008789 -0.000715
v 0.017320 0.008786 -0.000715
v 0.017343 0.008772 -0.000687
v 0.017321 0.008787 -0.000715
v 0.017320 0.008786 -0.000715
v 0.017340 0.008769 -0.000688
v 0.017320 0.008786 -0.000715
v 0.017319 0.008785 -0.000715
v 0.017338 0.008767 -0.000689
v 0.017319 0.008785 -0.000715
v 0.017318 0.008784 -0.000715
v 0.017332 0.008764 -0.000691
v 0.017335 0.008766 -0.000690
v 0.017317 0.008782 -0.000715
v 0.017326 0.008762 -0.000693
v 0.017313 0.008779 -0.000715
v 0.017312 0.008778 -0.000715
v 0.017320 0.008760 -0.000694
v 0.017323 0.008761 -0.000694
v 0.017310 0.008777 -0.000715
v 0.017317 0.008759 -0.000695
v 0.017320 0.008760 -0.000694
v 0.017309 0.008776 -0.000715
v 0.017310 0.008757 -0.000696
v 0.017304 0.008775 -0.000715
v 0.017303 0.008774 -0.000715
v 0.017300 0.008773 -0.000715
v 0.017304 0.008756 -0.000697
v 0.017301 0.008774 -0.000715
v 0.017298 0.008773 -0.000715
v 0.017300 0.008756 -0.000697
v 0.017300 0.008773 -0.000715
v 0.017296 0.008773 -0.000715
v 0.017297 0.008756 -0.000697
v 0.017300 0.008756 -0.000697
v 0.017293 0.008756 -0.000697
v 0.017297 0.008756 -0.000697
v 0.017295 0.008773 -0.000715
v 0.017292 0.008773 -0.000715
v 0.017290 0.008773 -0.000715
v 0.017290 0.008756 -0.000697
v 0.017307 0.008757 -0.000697
v 0.017303 0.008774 -0.000715
v 0.017301 0.008774 -0.000715
v 0.017308 0.008776 -0.000715
v 0.017306 0.008775 -0.000715
v 0.017313 0.008758 -0.000696
v 0.017293 0.008773 -0.000715
v 0.017292 0.008773 -0.000715
v 0.017290 0.008756 -0.000697
v 0.017375 0.008835 -0.000687
v 0.017375 0.008835 -0.000687
v 0.017375 0.008836 -0.000687
v 0.017375 0.008836 -0.000687
v 0.017343 0.008835 -0.000687
v 0.017343 0.008835 -0.000687
v 0.017375 0.008836 -0.000687
v 0.017375 0.008836 -0.000687
v 0.017341 0.008836 -0.000688
v 0.017341 0.008836 -0.000688
v 0.017342 0.008836 -0.000687
v 0.017342 0.008836 -0.000687
v 0.017343 0.008835 -0.000687
v 0.017375 0.008836 -0.000687
v 0.017342 0.008836 -0.000687
v 0.017375 0.008836 -0.000687
v 0.017342 0.008770 -0.000687
v 0.017341 0.008770 -0.000688
v 0.017341 0.008770 -0.000688
v 0.017342 0.008770 -0.000687
v 0.017375 0.008770 -0.000687
v 0.017375 0.008771 -0.000687
v 0.017375 0.008771 -0.000687
v 0.017375 0.008770 -0.000687
v 0.017375 0.008770 -0.000687
v 0.017343 0.008771 -0.000687
v 0.017375 0.008770 -0.000687
v 0.017375 0.008770 -0.000687
v 0.017343 0.008771 -0.000687
v 0.017375 0.008770 -0.000687
v 0.017343 0.008771 -0.000687
v 0.017342 0.008770 -0.000687
vn -1.0000 -0.0001 -0.0000
vn -1.0000 -0.0000 -0.0000
vn -1.0000 0.0001 -0.0000
vn -0.0000 -0.7940 0.6079
vn -0.0001 -0.7940 0.6079
vn -0.0000 -0.7816 0.6238
vn -0.0000 -0.7739 0.6333
vn -0.0000 -0.7688 0.6395
vn -0.0000 -0.7815 0.6239
vn -0.0000 -0.7530 0.6580
vn -0.0000 -0.7558 0.6548
vn -0.0000 -0.7424 0.6700
vn -0.0000 -0.7557 0.6549
vn 0.0001 -0.7424 0.6700
vn -0.0000 -0.7313 0.6820
vn -0.0000 -0.7287 0.6848
vn -0.0000 -0.7147 0.6994
vn -0.0000 -0.7423 0.6700
vn -0.0000 -0.7313 0.6821
vn -0.0000 -0.7089 0.7053
vn -0.0000 -0.7004 0.7137
vn -0.0000 -0.6857 0.7279
vn -0.0000 -0.6859 0.7277
vn -0.0000 -0.6710 0.7414
vn -0.0000 -0.6710 0.7415
vn -0.0000 -0.6618 0.7497
vn -0.0000 -0.6559 0.7548
vn -0.0000 -0.6372 0.7707
vn -0.0000 -0.6124 0.7905
vn -0.0000 -0.6119 0.7910
vn -0.0000 -0.6617 0.7497
vn -0.0000 -0.6371 0.7708
vn -0.0000 -0.6124 0.7906
vn -0.0000 -0.6406 0.7679
vn -0.0000 -0.6371 0.7707
vn -0.0000 -0.6118 0.7910
vn -0.0000 -0.6106 0.7919
vn -0.0000 -0.6107 0.7919
vn -0.0000 -0.6089 0.7932
vn -0.0000 -0.6405 0.7679
vn -0.0001 -0.6249 0.7807
vn -0.0000 -0.6068 0.7948
vn -0.0000 -0.6010 0.7992
vn -0.0000 -0.6041 0.7969
vn -0.0000 -0.5599 0.8286
vn -0.0000 -0.5665 0.8241
vn 0.0002 -0.5764 0.8172
vn 0.0002 -0.5727 0.8198
vn -0.0000 -0.5785 0.8157
vn -0.0002 -0.5928 0.8053
vn -0.0000 -0.5839 0.8118
vn -0.0000 -0.5889 0.8082
vn -0.0000 -0.6091 0.7931
vn -0.0000 -0.5934 0.8049
vn -0.0000 -0.5974 0.8019
vn -0.0000 -0.6090 0.7932
vn -0.0000 -0.0000 1.0000
vn -0.0000 0.6372 0.7707
vn -0.0000 0.6124 0.7905
vn -0.0000 0.6124 0.7906
vn -0.0000 0.6118 0.7910
vn -0.0000 0.6107 0.7918
vn -0.0000 0.6090 0.7932
vn -0.0000 0.6859 0.7277
vn 0.0001 0.7004 0.7138
vn -0.0000 0.6857 0.7279
vn -0.0000 0.7286 0.6849
vn -0.0003 0.7313 0.6820
vn -0.0000 0.7148 0.6994
vn 0.0001 0.7424 0.6700
vn 0.0002 0.7530 0.6580
vn -0.0000 0.6119 0.7909
vn -0.0000 0.7940 0.6079
vn 0.0001 0.7816 0.6238
vn -0.0003 0.7739 0.6333
vn -0.0000 0.7687 0.6396
vn -0.0000 0.7558 0.6548
vn 0.0002 0.7089 0.7053
vn 0.0001 0.6711 0.7414
vn -0.0003 0.6617 0.7497
vn -0.0000 0.6559 0.7549
vn -0.0000 0.6068 0.7948
vn -0.0001 0.6405 0.7679
vn -0.0000 0.6042 0.7969
vn -0.0000 0.6249 0.7807
vn -0.0000 0.6010 0.7992
vn -0.0000 0.5974 0.8019
vn -0.0000 0.6091 0.7931
vn -0.0000 0.5888 0.8083
vn -0.0000 0.5839 0.8118
vn -0.0001 0.5928 0.8053
vn -0.0000 0.5599 0.8286
vn 0.0002 0.5764 0.8172
vn -0.0000 0.5598 0.8286
vn -0.0000 0.5665 0.8241
vn -0.0001 0.5726 0.8198
vn -0.0000 0.5785 0.8157
vn -0.0000 0.5933 0.8050
vn 1.0000 -0.0000 -0.0000
vn -0.0000 -0.0000 -1.0000
vn -0.0000 -1.0000 -0.0000
vn -0.0000 1.0000 -0.0000
vn 0.0001 -0.0000 -1.0000
vn -0.0001 -0.0000 -1.0000
vn 0.1129 -0.9936 -0.0000
vn 0.0588 -0.9983 -0.0000
vn 0.0587 -0.9983 -0.0000
vn 0.0045 -1.0000 -0.0000
vn -0.0498 -0.9988 -0.0000
vn -0.1039 -0.9946 -0.0000
vn -0.1578 -0.9875 -0.0000
vn -0.1040 -0.9946 -0.0000
vn -0.2112 -0.9774 -0.0000
vn -0.2639 -0.9646 -0.0000
vn -0.2111 -0.9775 -0.0000
vn -0.3159 -0.9488 -0.0000
vn -0.2640 -0.9645 -0.0000
vn -0.3160 -0.9488 -0.0000
vn -0.3670 -0.9302 -0.0000
vn -0.4170 -0.9089 -0.0000
vn -0.4657 -0.8850 -0.0000
vn -0.4656 -0.8850 -0.0000
vn -0.4657 -0.8849 -0.0000
vn -0.5130 -0.8584 -0.0000
vn -0.5588 -0.8293 -0.0000
vn -0.5589 -0.8292 -0.0000
vn -0.6031 -0.7977 -0.0000
vn -0.5590 -0.8292 -0.0000
vn -0.6455 -0.7638 -0.0000
vn -0.6860 -0.7276 -0.0000
vn -0.7245 -0.6893 -0.0000
vn -0.7609 -0.6489 -0.0000
vn -0.7245 -0.6892 -0.0000
vn -0.7949 -0.6067 -0.0000
vn -0.7950 -0.6066 -0.0000
vn -0.8267 -0.5626 -0.0000
vn -0.8560 -0.5170 -0.0000
vn -0.8561 -0.5169 -0.0000
vn -0.8828 -0.4697 -0.0000
vn -0.8829 -0.4696 -0.0000
vn -0.9070 -0.4210 -0.0000
vn -0.9070 -0.4211 -0.0000
vn -0.9285 -0.3712 -0.0000
vn -0.9071 -0.4210 -0.0000
vn -0.9474 -0.3202 -0.0000
vn -0.9286 -0.3711 -0.0000
vn -0.9633 -0.2683 -0.0000
vn -0.9473 -0.3202 -0.0000
vn -0.9633 -0.2684 -0.0000
vn -0.9765 -0.2156 -0.0000
vn -0.9634 -0.2682 -0.0000
vn -0.9765 -0.2155 -0.0000
vn -0.9867 -0.1623 -0.0000
vn -0.9868 -0.1622 -0.0000
vn -0.9941 -0.1085 -0.0000
vn -0.9941 -0.1084 -0.0000
vn -0.9985 -0.0543 -0.0000
vn -0.9985 0.0543 -0.0000
vn -0.9941 0.1084 -0.0000
vn -0.9868 0.1622 -0.0000
vn -0.9941 0.1085 -0.0000
vn -0.9765 0.2155 -0.0000
vn -0.9867 0.1623 -0.0000
vn -0.9634 0.2682 -0.0000
vn -0.9765 0.2156 -0.0000
vn -0.9473 0.3202 -0.0000
vn -0.9633 0.2683 -0.0000
vn -0.9474 0.3202 -0.0000
vn -0.9286 0.3711 -0.0000
vn -0.9285 0.3712 -0.0000
vn -0.9286 0.3712 -0.0000
vn -0.9071 0.4210 -0.0000
vn -0.9070 0.4210 -0.0000
vn -0.8829 0.4696 -0.0000
vn -0.8828 0.4697 -0.0000
vn -0.8561 0.5169 -0.0000
vn -0.8560 0.5169 -0.0000
vn -0.8267 0.5627 -0.0000
vn -0.8560 0.5170 -0.0000
vn -0.7950 0.6066 -0.0000
vn -0.8267 0.5626 -0.0000
vn -0.7609 0.6489 -0.0000
vn -0.7949 0.6067 -0.0000
vn -0.7245 0.6893 -0.0000
vn -0.7245 0.6892 -0.0000
vn -0.6860 0.7276 -0.0000
vn -0.6455 0.7638 -0.0000
vn -0.6031 0.7977 -0.0000
vn 0.1129 0.9936 -0.0000
vn 0.0588 0.9983 -0.0000
vn 0.1666 0.9860 -0.0000
vn 0.0045 1.0000 -0.0000
vn 0.0587 0.9983 -0.0000
vn -0.0498 0.9988 -0.0000
vn -0.1039 0.9946 -0.0000
vn -0.1578 0.9875 -0.0000
vn -0.1040 0.9946 -0.0000
vn -0.2112 0.9774 -0.0000
vn -0.2112 0.9774 0.0002
vn -0.2111 0.9775 -0.0000
vn -0.2639 0.9646 -0.0000
vn -0.3159 0.9488 -0.0000
vn -0.2640 0.9645 -0.0000
vn -0.3160 0.9488 -0.0000
vn -0.3670 0.9302 -0.0000
vn -0.3669 0.9303 -0.0000
vn -0.4170 0.9089 -0.0000
vn -0.4169 0.9089 -0.0000
vn -0.4657 0.8850 -0.0000
vn -0.4656 0.8850 -0.0000
vn -0.4658 0.8849 -0.0000
vn -0.5130 0.8584 -0.0000
vn -0.5130 0.8584 0.0001
vn -0.5588 0.8293 -0.0000
vn -0.6031 0.7976 -0.0000
vn -0.5590 0.8292 -0.0000
vn -0.9070 0.4211 -0.0000
vn -0.9633 0.2684 -0.0000
vn -0.8560 -0.5169 -0.0000
vn -0.4658 -0.8849 -0.0000
vn -0.4169 -0.9089 -0.0000
vn -0.3669 -0.9303 -0.0000
vn 0.1666 -0.9860 -0.0000
vn -0.2112 -0.9774 -0.0002
vn 0.0238 0.7067 0.7071
vn 0.0032 0.7071 0.7071
vn 0.0415 0.7059 0.7071
vn 0.0239 0.7067 0.7071
vn 0.0416 0.7059 0.7071
vn 0.0748 0.7031 0.7071
vn -0.0269 0.7066 0.7071
vn -0.0352 0.7062 0.7071
vn -0.0735 0.7033 0.7071
vn -0.0773 0.7029 0.7071
vn -0.1116 0.6982 0.7071
vn -0.0773 0.7027 0.7073
vn -0.1269 0.6956 0.7071
vn -0.1493 0.6912 0.7071
vn -0.1752 0.6851 0.7071
vn -0.1866 0.6820 0.7071
vn -0.2220 0.6714 0.7071
vn -0.2233 0.6709 0.7071
vn -0.2594 0.6578 0.7071
vn -0.2669 0.6548 0.7071
vn -0.2595 0.6578 0.7071
vn -0.2669 0.6541 0.7077
vn -0.3098 0.6356 0.7071
vn -0.2948 0.6427 0.7071
vn -0.3292 0.6258 0.7071
vn -0.3504 0.6142 0.7071
vn -0.3628 0.6070 0.7071
vn -0.3293 0.6258 0.7071
vn -0.3886 0.5908 0.7071
vn -0.3952 0.5864 0.7071
vn -0.4244 0.5656 0.7071
vn -0.4564 0.5401 0.7071
vn -0.4264 0.5640 0.7071
vn -0.4243 0.5656 0.7071
vn -0.4576 0.5391 0.7071
vn -0.4851 0.5145 0.7071
vn -0.4883 0.5114 0.7071
vn -0.5123 0.4874 0.7071
vn -0.5165 0.4829 0.7071
vn -0.5381 0.4588 0.7071
vn -0.5424 0.4537 0.7071
vn -0.5380 0.4589 0.7071
vn -0.5658 0.4241 0.7071
vn -0.5621 0.4290 0.7071
vn -0.5729 0.4145 0.7071
vn -0.5846 0.3978 0.7071
vn -0.5799 0.4046 0.7071
vn -0.5871 0.3942 0.7071
vn -0.5942 0.3833 0.7071
vn -0.6053 0.3655 0.7071
vn -0.6201 0.3399 0.7071
vn -0.6201 0.3398 0.7071
vn -0.6244 0.3321 0.7070
vn -0.6243 0.3321 0.7071
vn -0.6428 0.2946 0.7071
vn -0.6414 0.2977 0.7071
vn -0.6622 0.2479 0.7071
vn -0.6566 0.2624 0.7071
vn -0.6623 0.2478 0.7071
vn -0.6783 0.1998 0.7071
vn -0.6699 0.2264 0.7071
vn -0.6812 0.1897 0.7071
vn -0.6908 0.1508 0.7071
vn -0.6905 0.1525 0.7071
vn -0.6812 0.1896 0.7071
vn -0.6999 0.1010 0.7071
vn -0.6977 0.1148 0.7071
vn -0.6909 0.1507 0.7071
vn -0.7029 0.0767 0.7071
vn -0.6977 0.1147 0.7071
vn -0.6999 0.1009 0.7071
vn -0.7061 0.0384 0.7071
vn -0.7029 0.0766 0.7071
vn -0.7053 0.0506 0.7071
vn -0.7071 -0.0000 0.7071
vn -0.7061 -0.0384 0.7071
vn -0.7053 -0.0506 0.7071
vn -0.7030 -0.0766 0.7071
vn -0.7029 -0.0766 0.7071
vn -0.6999 -0.1009 0.7071
vn -0.6978 -0.1147 0.7071
vn -0.6999 -0.1010 0.7071
vn -0.6909 -0.1507 0.7071
vn -0.6977 -0.1148 0.7071
vn -0.6908 -0.1508 0.7071
vn -0.6812 -0.1897 0.7071
vn -0.6905 -0.1525 0.7071
vn -0.6783 -0.1998 0.7071
vn -0.6699 -0.2264 0.7071
vn -0.6812 -0.1898 0.7071
vn -0.6623 -0.2478 0.7071
vn -0.6566 -0.2623 0.7071
vn -0.6428 -0.2946 0.7071
vn -0.6416 -0.2977 0.7069
vn -0.6566 -0.2624 0.7071
vn -0.6243 -0.3321 0.7071
vn -0.6414 -0.2978 0.7071
vn -0.6054 -0.3655 0.7070
vn -0.6201 -0.3398 0.7071
vn -0.5846 -0.3978 0.7071
vn -0.6053 -0.3655 0.7071
vn -0.5942 -0.3834 0.7071
vn -0.5799 -0.4046 0.7071
vn -0.5870 -0.3942 0.7071
vn -0.5166 -0.4828 0.7071
vn -0.5380 -0.4588 0.7071
vn -0.5424 -0.4537 0.7071
vn -0.5621 -0.4290 0.7071
vn -0.5658 -0.4241 0.7071
vn -0.5123 -0.4874 0.7071
vn -0.5166 -0.4829 0.7071
vn -0.4851 -0.5145 0.7071
vn -0.4883 -0.5114 0.7071
vn -0.4564 -0.5401 0.7071
vn -0.4576 -0.5391 0.7071
vn -0.4264 -0.5640 0.7071
vn -0.4242 -0.5657 0.7071
vn -0.5729 -0.4145 0.7071
vn 0.0749 -0.7031 0.7071
vn 0.1179 -0.6972 0.7071
vn 0.0798 -0.7026 0.7071
vn 0.0748 -0.7031 0.7071
vn 0.0799 -0.7027 0.7070
vn 0.0415 -0.7059 0.7071
vn 0.0416 -0.7059 0.7071
vn 0.0242 -0.7069 0.7069
vn 0.0032 -0.7071 0.7071
vn 0.0242 -0.7067 0.7071
vn -0.0265 -0.7066 0.7071
vn -0.0352 -0.7062 0.7071
vn -0.0768 -0.7029 0.7071
vn -0.0735 -0.7033 0.7071
vn -0.1116 -0.6982 0.7071
vn -0.1263 -0.6957 0.7071
vn -0.1493 -0.6912 0.7071
vn -0.1263 -0.6958 0.7071
vn -0.1494 -0.6912 0.7071
vn -0.1746 -0.6852 0.7071
vn -0.1866 -0.6820 0.7071
vn -0.2214 -0.6716 0.7071
vn -0.1867 -0.6820 0.7071
vn -0.2214 -0.6715 0.7071
vn -0.2234 -0.6709 0.7071
vn -0.2595 -0.6578 0.7071
vn -0.2664 -0.6550 0.7071
vn -0.2948 -0.6427 0.7071
vn -0.2665 -0.6550 0.7071
vn -0.3094 -0.6358 0.7071
vn -0.3293 -0.6258 0.7071
vn -0.3501 -0.6143 0.7071
vn -0.3293 -0.6257 0.7071
vn -0.3502 -0.6144 0.7071
vn -0.3628 -0.6070 0.7071
vn -0.3884 -0.5909 0.7071
vn -0.3952 -0.5864 0.7071
vn -0.4243 -0.5657 0.7071
vn -0.4264 -0.5641 0.7071
vn -0.5381 -0.4590 0.7069
vn -0.5622 -0.4290 0.7070
vn -0.5942 -0.3833 0.7071
vn -0.6201 -0.3399 0.7071
vn -0.6622 -0.2479 0.7071
vn -0.6905 -0.1524 0.7071
vn -0.7030 0.0766 0.7071
vn -0.6905 0.1524 0.7071
vn -0.6568 0.2625 0.7069
vn -0.5942 0.3834 0.7071
vn -0.5870 0.3942 0.7071
vn -0.5846 0.3979 0.7071
vn -0.5847 0.3979 0.7070
vn -0.5622 0.4291 0.7070
vn -0.3099 0.6356 0.7071
vn -0.2235 0.6709 0.7071
vn -0.1867 0.6820 0.7071
vn -0.0269 0.7067 0.7070
vn -0.0270 0.7066 0.7071
vn 0.0798 0.7026 0.7071
vn 0.1179 0.6972 0.7071
vn 0.0749 0.7031 0.7071
vn -0.1751 0.6851 0.7071
vn 0.0415 0.7060 0.7070
vn -0.0000 0.1480 0.9890
vn -0.0000 0.2928 0.9562
vn -0.0000 0.2927 0.9562
vn -0.0000 0.1690 0.9856
vn -0.0000 0.4310 0.9024
vn -0.0000 0.4459 0.8951
vn -0.0000 0.3165 0.9486
vn -0.0000 0.3164 0.9486
vn -0.0000 0.4311 0.9023
vn -0.0001 -0.3164 0.9486
vn -0.0001 -0.4459 0.8951
vn -0.0000 -0.4459 0.8951
vn -0.0000 -0.3164 0.9486
vn -0.0000 -0.5599 0.8285
vn -0.0000 -0.4311 0.9023
vn -0.0000 -0.1480 0.9890
vn -0.0000 -0.2928 0.9562
vn -0.0000 -0.2927 0.9562
vn -0.0000 -0.1688 0.9857
vn -0.0000 -0.1689 0.9856
vn -0.0000 -0.4310 0.9024
vn -0.0000 -0.3163 0.9487
s 1
usemtl Diffuse_51_51_51_100.029
f 1//1 2//2 3//2
f 1//1 3//2 4//2
f 3//2 5//3 4//2
f 5//3 6//2 4//2
f 4//2 7//3 8//3
f 4//2 8//3 9//2
f 8//3 10//2 9//2
f 9//2 10//2 11//2
f 7//3 4//2 6//2
f 9//2 11//2 12//1
f 13//4 14//5 15//6
f 16//7 17//4 15//6
f 18//8 19//7 15//9
f 18//8 20//10 21//7
f 22//10 18//8 23//11
f 24//12 25//10 23//13
f 24//14 26//15 27//10
f 28//16 29//17 30//15
f 24//18 28//16 31//19
f 32//19 29//17 33//20
f 34//20 29//17 35//21
f 36//22 37//20 35//21
f 38//23 39//22 35//21
f 38//23 40//24 41//22
f 42//22 40//25 43//26
f 44//26 40//24 45//27
f 46//28 47//29 48//30
f 49//28 50//31 45//27
f 47//29 51//32 52//33
f 53//34 54//35 45//27
f 55//36 56//28 57//37
f 57//38 58//32 59//39
f 53//40 60//41 61//42
f 60//41 62//43 63//44
f 64//45 65//46 66//47
f 66//47 67//45 64//45
f 68//48 66//47 65//46
f 68//48 69//49 66//47
f 66//47 69//49 70//50
f 70//50 69//49 71//51
f 72//52 70//50 71//51
f 72//52 73//53 70//50
f 72//52 74//54 73//53
f 73//53 74//54 75//55
f 62//43 73//53 75//55
f 62//43 60//41 73//53
f 63//44 61//42 60//41
f 61//42 59//56 53//40
f 53//40 59//56 76//28
f 77//28 55//36 52//33
f 78//57 79//57 80//57
f 81//57 82//57 80//57
f 83//57 81//57 80//57
f 84//57 83//57 80//57
f 85//57 84//57 80//57
f 86//57 85//57 80//57
f 87//57 86//57 80//57
f 88//57 87//57 80//57
f 79//57 88//57 80//57
f 89//57 79//57 78//57
f 78//57 90//57 89//57
f 78//57 91//57 90//57
f 78//57 92//57 91//57
f 78//57 93//57 92//57
f 94//57 78//57 95//57
f 94//57 96//57 78//57
f 78//57 96//57 93//57
f 97//58 98//59 99//60
f 100//61 97//58 99//60
f 100//61 101//62 97//58
f 97//58 101//62 102//63
f 103//64 104//65 105//66
f 106//67 107//68 108//69
f 109//70 110//71 107//68
f 111//72 98//59 97//58
f 112//73 113//74 114//73
f 112//73 115//75 113//74
f 113//74 115//75 116//76
f 116//76 115//75 110//71
f 117//77 116//76 110//71
f 109//70 117//77 110//71
f 107//68 118//78 108//69
f 108//69 118//78 104//65
f 104//65 118//78 105//66
f 119//79 105//66 120//80
f 120//80 97//58 121//81
f 102//63 122//82 123//83
f 122//82 124//84 125//85
f 126//86 127//87 128//88
f 129//89 130//90 131//91
f 132//92 133//93 134//94
f 134//94 133//93 135//95
f 135//95 133//93 136//96
f 136//96 133//93 137//97
f 137//97 133//93 131//91
f 130//90 137//97 131//91
f 129//89 131//91 128//88
f 138//98 129//89 128//88
f 126//86 125//85 124//84
f 126//86 128//88 125//85
f 125//85 123//83 122//82
f 123//83 97//58 102//63
f 123//83 121//81 97//58
f 121//81 119//79 120//80
f 105//66 119//79 103//64
f 109//70 107//68 106//67
f 138//98 128//88 127//87
f 139//2 140//2 141//2
f 139//3 142//3 143//3
f 139//2 144//2 145//2
f 139//2 146//2 147//2
f 141//1 148//1 149//1
f 141//3 150//3 151//3
f 141//1 152//1 153//1
f 154//2 155//2 156//2
f 141//1 157//1 158//1
f 155//2 141//2 159//2
f 160//99 161//99 162//99
f 163//99 164//99 165//99
s 0
f 166//99 167//99 168//99
f 167//99 169//99 170//99
f 169//100 171//99 172//99
s 1
f 173//99 174//99 175//99
f 176//99 177//99 178//99
f 179//99 180//99 181//99
f 182//99 183//99 184//99
f 185//99 186//99 187//99
f 188//99 189//99 190//99
f 191//99 192//99 193//99
f 194//99 195//99 196//99
f 197//99 198//99 199//99
f 200//99 201//99 202//99
f 203//99 204//99 205//99
f 206//99 207//99 208//99
f 209//99 210//99 211//99
f 212//99 213//99 214//99
f 215//99 216//99 217//99
f 218//99 219//99 220//99
f 216//99 221//99 222//99
f 223//99 224//99 216//99
f 225//99 226//99 227//99
f 228//99 229//99 227//99
f 230//99 231//99 227//99
f 232//99 233//99 227//99
f 234//99 235//99 227//99
f 236//99 237//99 227//99
f 238//99 239//99 227//99
f 227//99 240//99 216//99
f 241//99 242//99 216//99
f 243//99 244//99 216//99
f 245//99 246//99 216//99
f 247//99 227//99 248//99
f 249//99 250//99 251//99
f 252//99 253//99 216//99
f 254//99 255//99 256//99
s 0
f 257//99 258//99 259//100
s 1
f 260//99 261//99 259//99
s 0
f 262//99 263//99 257//99
s 1
f 264//99 265//99 266//99
f 267//101 268//101 269//101
f 270//101 271//101 272//101
f 273//102 274//102 275//102
f 276//102 277//102 278//102
f 279//100 280//100 281//100
f 282//103 283//103 284//103
f 285//100 286//100 287//100
f 288//100 289//100 285//100
f 290//100 291//100 289//100
f 292//100 293//100 291//100
f 294//100 295//100 293//100
f 296//100 297//100 295//100
f 298//100 299//100 297//100
f 300//100 301//100 299//100
f 302//100 303//100 301//100
f 304//100 305//100 303//100
f 306//100 307//100 305//100
f 308//100 309//100 307//100
f 310//100 311//100 309//100
f 309//100 312//100 313//100
f 313//100 314//100 315//100
f 315//100 316//100 317//100
f 317//104 318//104 319//104
f 319//100 320//100 321//100
f 321//104 322//104 323//104
f 323//100 324//100 325//100
f 325//100 326//100 327//100
f 327//100 328//100 329//100
f 329//100 330//100 331//100
f 332//100 333//100 334//100
f 335//100 333//100 336//100
f 337//103 332//103 338//103
f 339//100 337//100 340//100
f 341//103 339//103 342//103
f 343//100 341//100 344//100
f 345//100 343//100 346//100
f 347//100 345//100 348//100
f 284//100 347//100 349//100
f 350//100 351//100 284//100
f 352//100 353//100 283//100
f 354//104 355//104 353//104
f 356//100 357//100 355//100
f 358//100 359//100 357//100
f 360//100 361//100 359//100
f 362//100 363//100 364//100
f 362//100 365//100 366//100
f 364//100 367//100 368//100
f 368//100 369//100 370//100
f 370//100 371//100 372//100
f 372//100 373//100 374//100
f 374//100 375//100 376//100
f 376//100 377//100 378//100
f 378//100 379//100 380//100
f 380//100 381//100 382//100
f 382//100 383//100 384//100
f 384//100 385//100 386//100
f 386//100 387//100 388//100
f 388//100 389//100 390//100
f 391//100 281//100 388//100
f 392//100 280//100 393//100
f 394//100 392//100 395//100
f 396//100 394//100 397//100
f 398//100 399//100 396//100
f 400//100 401//100 399//100
f 402//100 403//100 401//100
f 404//100 405//100 403//100
f 406//100 407//100 405//100
f 331//100 408//100 336//100
f 409//100 410//100 407//100
f 411//100 365//100 361//100
f 410//100 412//100 413//100
f 414//105 415//106 416//105
f 417//107 418//108 419//107
f 420//108 421//108 419//107
f 422//109 423//109 421//108
f 424//110 425//110 423//109
f 426//111 427//111 425//112
f 428//113 427//111 429//111
f 430//114 431//115 432//115
f 433//114 431//115 434//114
f 435//116 433//117 436//116
f 435//118 437//118 438//119
f 439//119 440//119 441//120
f 442//120 443//120 444//121
f 442//120 445//122 446//122
f 446//123 447//124 448//124
f 449//124 450//125 448//124
f 451//126 452//127 453//128
f 454//127 455//127 453//128
f 456//129 457//129 455//127
f 458//130 457//129 459//129
f 460//131 461//130 462//130
f 463//131 461//130 464//131
f 465//132 463//133 466//132
f 465//132 467//132 468//134
f 469//135 470//135 471//136
f 469//135 472//136 473//136
f 473//136 474//137 475//137
f 476//138 477//139 475//138
f 478//140 479//141 480//140
f 481//142 482//142 480//140
f 483//143 484//143 482//144
f 485//145 484//146 486//146
f 487//147 488//148 489//148
f 490//147 488//148 491//149
f 492//150 490//151 493//150
f 492//152 494//152 495//153
f 496//154 497//154 498//155
f 496//154 499//155 500//155
f 500//156 501//157 502//157
f 503//157 504//2 502//157
f 505//2 506//158 507//2
f 508//158 509//158 507//2
f 510//159 511//159 509//158
f 512//160 511//161 513//161
f 514//162 515//163 516//163
f 517//164 518//165 519//165
f 520//164 518//165 521//164
f 522//166 520//167 523//166
f 522//168 524//168 525//169
f 526//170 527//171 528//172
f 526//170 529//172 530//172
f 530//173 531//174 532//174
f 533//175 534//176 532//175
f 535//177 536//178 537//179
f 538//178 539//178 537//179
f 540//180 541//180 539//181
f 542//182 541//183 543//183
f 544//184 545//182 546//182
f 547//184 545//182 548//185
f 549//186 547//184 550//186
f 549//186 551//186 552//187
f 553//187 554//187 555//188
f 553//187 556//188 557//188
f 558//189 559//190 560//189
f 561//191 562//191 558//189
f 563//191 558//189 564//189
f 559//190 565//190 566//189
f 567//192 568//193 559//193
f 569//192 570//193 567//192
f 571//192 567//192 572//194
f 573//192 572//194 574//194
f 572//194 575//195 576//194
f 575//195 577//195 578//194
f 579//196 580//197 575//197
f 581//196 582//197 579//196
f 583//196 579//196 584//198
f 585//196 584//198 586//199
f 584//200 587//201 588//200
f 587//201 589//201 590//200
f 591//202 592//203 587//203
f 593//202 594//203 591//202
f 595//204 591//204 596//205
f 597//204 596//206 598//206
f 596//205 599//207 600//205
f 599//208 601//208 602//205
f 603//209 604//207 599//207
f 605//210 606//207 603//210
f 607//211 603//211 608//212
f 609//211 608//212 610//213
f 608//212 611//214 612//212
f 611//214 613//214 614//212
f 557//215 615//216 611//216
f 616//188 617//216 557//188
f 549//186 618//187 553//187
f 547//184 619//184 620//186
f 545//182 541//183 621//182
f 622//180 539//181 623//181
f 624//176 537//176 532//175
f 625//217 626//174 530//217
f 522//168 627//169 526//169
f 520//218 628//218 629//166
f 518//162 515//163 630//162
f 515//160 511//161 631//160
f 632//159 509//158 633//158
f 634//2 507//2 502//157
f 635//156 636//157 500//156
f 492//152 637//153 496//153
f 490//151 638//151 639//150
f 488//145 484//146 640//145
f 641//143 482//144 642//144
f 643//139 480//139 475//138
f 644//136 645//219 473//136
f 465//132 646//134 469//134
f 463//133 647//133 648//132
f 461//130 457//129 649//130
f 650//129 455//127 651//127
f 652//125 453//125 448//124
f 653//123 654//124 446//220
f 439//119 655//221 442//221
f 435//118 656//222 439//222
f 433//117 657//117 658//116
f 659//112 660//111 425//112
f 421//108 661//108 662//109
f 416//105 663//223 664//105
f 416//105 665//223 666//223
f 667//113 431//224 427//111
f 423//109 668//109 669//110
f 419//106 416//105 670//106
f 671//225 672//226 673//227
f 674//228 675//229 676//230
f 677//231 678//232 679//226
f 680//233 681//232 682//234
f 683//235 684//236 685//237
f 686//238 687//237 688//239
f 689//240 690//239 691//241
f 692//242 693//241 694//243
f 695//241 696//244 697//245
f 698//246 699//247 700//248
f 701//247 702//249 703//248
f 704//250 705//251 706//252
f 707//253 708//254 709//251
f 710//255 711//254 712//253
f 713//256 714//257 715//258
f 716//256 717//255 718//259
f 719//256 720//259 721//260
f 722//259 723//261 724//260
f 725//262 726//263 727//264
f 728//261 729//262 730//260
f 731//263 732//265 733//266
f 734//265 735//267 736//268
f 737//267 738//269 739//270
f 738//269 740//271 741//270
f 742//270 743//272 744//273
f 745//274 746//273 747//275
f 748//274 749//276 750//277
f 751//278 752//279 753//280
f 754//279 755//281 756//282
f 757//283 758//284 759//285
f 760//284 761//286 762//285
f 763//287 764//288 765//289
f 766//290 767//291 768//292
f 769//293 770//294 771//295
f 772//296 773//297 774//298
f 775//299 776//296 777//299
f 778//300 779//299 780//299
f 781//300 782//299 783//301
f 784//300 785//301 786//302
f 787//303 788//304 789//305
f 790//306 791//307 792//308
f 793//309 794//310 795//311
f 796//312 797//313 798//314
f 799//315 800//316 801//313
f 802//317 803//318 804//319
f 805//320 806//321 807//317
f 808//322 809//320 810//323
f 811//324 812//325 813//326
f 814//327 815//324 816//328
f 817//329 818//330 819//331
f 820//332 821//333 822//331
f 823//334 824//330 825//335
f 826//336 827//334 828//337
f 829//338 830//336 831//339
f 832//340 833//338 834//341
f 835//342 836//333 837//324
f 838//343 839//344 840//345
f 841//346 842//347 843//348
f 844//346 845//349 846//350
f 847//348 848//351 849//352
f 850//351 851//353 852//352
f 853//354 854//353 855//351
f 856//355 857//353 858//354
f 859//355 860//354 861//356
f 862//355 863//356 864//357
f 865//355 866//357 867//358
f 868//357 869//359 870//360
f 871//361 872//362 873//358
f 874//363 875//362 876//359
f 877//364 878//362 879//365
f 880//366 881//363 882//367
f 883//366 884//367 885//368
f 886//366 887//368 888//369
f 889//368 890//370 891//371
f 892//370 893//372 894//371
f 895//373 896//372 897//370
f 898//374 899//372 900//375
f 901//376 902//373 903//377
f 904//374 905//377 906//378
f 907//377 908//379 909//378
f 910//379 911//380 912//378
f 913//381 914//341 915//379
f 916//338 917//339 918//341
f 919//336 920//337 921//339
f 922//334 923//335 924//337
f 925//382 926//332 927//331
f 928//383 929//324 930//333
f 931//324 814//327 835//342
f 932//384 816//328 933//324
f 934//385 935//384 936//325
f 937//317 938//323 939//320
f 940//319 941//386 942//317
f 943//313 944//312 945//315
f 946//310 947//309 948//312
f 949//387 950//308 951//309
f 952//304 953//302 954//301
f 955//296 956//298 957//299
f 958//388 959//295 960//298
f 961//291 962//389 963//287
f 964//287 965//286 966//284
f 967//283 968//285 969//282
f 970//279 971//390 972//280
f 973//276 974//279 975//278
f 976//270 977//391 978//274
f 740//271 743//392 979//393
f 980//267 981//394 982//268
f 983//265 984//395 985//266
f 986//261 987//263 988//262
f 989//258 990//257 991//254
f 992//250 993//253 994//251
f 995//396 996//250 997//252
f 998//241 999//397 1000//398
f 1001//235 1002//237 1003//238
f 1004//233 1005//234 1006//235
f 1007//232 1008//399 1009//234
f 1010//228 1011//400 1012//226
f 1013//401 1014//402 1015//403
f 1016//404 1017//240 1018//238
f 1019//248 1020//245 1021//244
f 1022//405 1023//401 1024//230
f 95//57 78//57 1025//406
f 1026//406 1027//407 95//57
f 95//57 1028//408 1029//409
s 0
f 1030//409 1031//57 1032//410
s 1
f 1033//411 132//92 134//94
f 1034//411 1035//412 132//92
f 1036//413 1037//409 1038//410
f 1039//412 1040//414 132//92
f 67//45 1041//415 1042//416
f 64//45 67//45 1043//417
f 1044//418 67//419 1045//420
f 80//57 82//57 1046//421
f 1047//421 82//57 1048//422
f 1049//423 82//57 1050//424
s 0
f 1051//57 1052//422 1053//425
s 1
f 1054//426 1055//425 1056//427
