# Blender 4.4.3
# www.blender.org
mtllib Mesh_18.011.mtl
o Mesh_18.011
v 0.017230 0.008776 -0.010103
v 0.017230 0.008830 -0.010103
v 0.017230 0.008827 -0.010105
v 0.017230 0.008824 -0.010107
v 0.017230 0.008821 -0.010109
v 0.017230 0.008817 -0.010110
v 0.017230 0.008810 -0.010112
v 0.017230 0.008814 -0.010112
v 0.017230 0.008807 -0.010113
v 0.017230 0.008803 -0.010113
v 0.017230 0.008799 -0.010113
v 0.017230 0.008796 -0.010112
v 0.017230 0.008792 -0.010112
v 0.017230 0.008789 -0.010110
v 0.017230 0.008785 -0.010109
v 0.017230 0.008782 -0.010107
v 0.017230 0.008779 -0.010105
v 0.017230 0.008773 -0.010100
v 0.017230 0.008833 -0.010100
v 0.017230 0.008770 -0.010097
v 0.017230 0.008836 -0.010097
v 0.017230 0.008766 -0.010093
v 0.017230 0.008840 -0.010093
v 0.017230 0.008763 -0.010090
v 0.017230 0.008843 -0.010090
v 0.017230 0.008760 -0.010086
v 0.017230 0.008846 -0.010086
v 0.017230 0.008757 -0.010083
v 0.017230 0.008849 -0.010083
v 0.017230 0.008754 -0.010079
v 0.017230 0.008852 -0.010079
v 0.017230 0.008854 -0.010075
v 0.017230 0.008752 -0.010075
v 0.017230 0.008749 -0.010071
v 0.017230 0.008744 -0.010063
v 0.017230 0.008859 -0.010067
v 0.017230 0.008747 -0.010067
v 0.017230 0.008857 -0.010071
v 0.017230 0.008872 -0.010042
v 0.017230 0.008870 -0.010047
v 0.017230 0.008872 -0.010040
v 0.017230 0.008868 -0.010051
v 0.017230 0.008866 -0.010055
v 0.017230 0.008734 -0.010040
v 0.017230 0.008738 -0.010051
v 0.017230 0.008740 -0.010055
v 0.017230 0.008736 -0.010047
v 0.017230 0.008864 -0.010059
v 0.017230 0.008742 -0.010059
v 0.017230 0.008862 -0.010063
v 0.017230 0.008734 -0.010042
v 0.017460 0.008734 -0.010040
v 0.017460 0.008734 -0.010042
v 0.017460 0.008736 -0.010047
v 0.017460 0.008738 -0.010051
v 0.017460 0.008740 -0.010055
v 0.017460 0.008866 -0.010055
v 0.017460 0.008742 -0.010059
v 0.017460 0.008864 -0.010059
v 0.017460 0.008744 -0.010063
v 0.017460 0.008862 -0.010063
v 0.017460 0.008747 -0.010067
v 0.017460 0.008749 -0.010071
v 0.017460 0.008859 -0.010067
v 0.017460 0.008857 -0.010071
v 0.017460 0.008854 -0.010075
v 0.017460 0.008752 -0.010075
v 0.017460 0.008754 -0.010079
v 0.017460 0.008852 -0.010079
v 0.017460 0.008757 -0.010083
v 0.017460 0.008849 -0.010083
v 0.017460 0.008760 -0.010086
v 0.017460 0.008846 -0.010086
v 0.017460 0.008840 -0.010093
v 0.017460 0.008843 -0.010090
v 0.017460 0.008766 -0.010093
v 0.017460 0.008836 -0.010097
v 0.017460 0.008770 -0.010097
v 0.017460 0.008773 -0.010100
v 0.017460 0.008830 -0.010103
v 0.017460 0.008833 -0.010100
v 0.017460 0.008776 -0.010103
v 0.017460 0.008827 -0.010105
v 0.017460 0.008824 -0.010107
v 0.017460 0.008779 -0.010105
v 0.017460 0.008782 -0.010107
v 0.017460 0.008785 -0.010109
v 0.017460 0.008792 -0.010112
v 0.017460 0.008789 -0.010110
v 0.017460 0.008796 -0.010112
v 0.017460 0.008799 -0.010113
v 0.017460 0.008803 -0.010113
v 0.017460 0.008807 -0.010113
v 0.017460 0.008810 -0.010112
v 0.017460 0.008814 -0.010112
v 0.017460 0.008817 -0.010110
v 0.017460 0.008821 -0.010109
v 0.017460 0.008763 -0.010090
v 0.017460 0.008872 -0.010040
v 0.017460 0.008868 -0.010051
v 0.017460 0.008872 -0.010042
v 0.017460 0.008870 -0.010047
v 0.017460 0.008734 -0.010042
v 0.017460 0.008734 -0.010040
v 0.017402 0.008734 -0.010042
v 0.017460 0.008734 -0.010040
v 0.017230 0.008734 -0.010040
v 0.017230 0.008734 -0.010042
v 0.017345 0.008734 -0.010042
v 0.017460 0.008734 -0.010040
v 0.017288 0.008734 -0.010042
v 0.017460 0.008734 -0.010040
v 0.017460 0.008734 -0.010040
v 0.017230 0.008734 -0.010042
v 0.017325 0.008805 -0.010040
v 0.017325 0.008803 -0.010113
v 0.017325 0.008803 -0.010040
v 0.017325 0.008807 -0.010113
v 0.017325 0.008805 -0.010113
v 0.017324 0.008809 -0.010112
v 0.017325 0.008807 -0.010040
v 0.017324 0.008809 -0.010040
v 0.017324 0.008811 -0.010112
v 0.017324 0.008811 -0.010040
v 0.017323 0.008813 -0.010112
v 0.017323 0.008813 -0.010040
v 0.017322 0.008815 -0.010111
v 0.017323 0.008815 -0.010040
v 0.017322 0.008817 -0.010040
v 0.017321 0.008817 -0.010110
v 0.017320 0.008819 -0.010110
v 0.017321 0.008819 -0.010040
v 0.017319 0.008821 -0.010109
v 0.017320 0.008820 -0.010040
v 0.017318 0.008822 -0.010040
v 0.017318 0.008822 -0.010108
v 0.017317 0.008824 -0.010107
v 0.017315 0.008825 -0.010106
v 0.017317 0.008823 -0.010040
v 0.017311 0.008829 -0.010104
v 0.017311 0.008829 -0.010040
v 0.017309 0.008830 -0.010103
v 0.017309 0.008830 -0.010040
v 0.017312 0.008827 -0.010040
v 0.017312 0.008828 -0.010105
v 0.017314 0.008826 -0.010040
v 0.017314 0.008826 -0.010106
v 0.017316 0.008825 -0.010040
v 0.017325 0.008801 -0.010113
v 0.017325 0.008801 -0.010040
v 0.017325 0.008799 -0.010113
v 0.017325 0.008798 -0.010040
v 0.017324 0.008797 -0.010112
v 0.017324 0.008796 -0.010040
v 0.017324 0.008795 -0.010112
v 0.017323 0.008793 -0.010112
v 0.017323 0.008793 -0.010040
v 0.017323 0.008791 -0.010040
v 0.017322 0.008791 -0.010111
v 0.017321 0.008789 -0.010110
v 0.017322 0.008789 -0.010040
v 0.017320 0.008787 -0.010110
v 0.017320 0.008787 -0.010040
v 0.017319 0.008785 -0.010040
v 0.017319 0.008785 -0.010109
v 0.017317 0.008783 -0.010040
v 0.017315 0.008781 -0.010106
v 0.017316 0.008781 -0.010040
v 0.017317 0.008782 -0.010107
v 0.017318 0.008784 -0.010108
v 0.017314 0.008780 -0.010106
v 0.017312 0.008779 -0.010105
v 0.017311 0.008777 -0.010104
v 0.017312 0.008778 -0.010040
v 0.017314 0.008780 -0.010040
v 0.017309 0.008776 -0.010103
v 0.017310 0.008777 -0.010040
v 0.017307 0.008776 -0.010102
v 0.017308 0.008776 -0.010040
v 0.017306 0.008775 -0.010102
v 0.017305 0.008775 -0.010040
v 0.017304 0.008774 -0.010101
v 0.017303 0.008774 -0.010040
v 0.017302 0.008774 -0.010101
v 0.017301 0.008774 -0.010040
v 0.017300 0.008774 -0.010100
v 0.017299 0.008773 -0.010100
v 0.017297 0.008773 -0.010100
v 0.017298 0.008773 -0.010040
v 0.017296 0.008773 -0.010040
v 0.017295 0.008773 -0.010100
v 0.017293 0.008773 -0.010100
v 0.017293 0.008773 -0.010040
v 0.017291 0.008773 -0.010040
v 0.017291 0.008773 -0.010100
v 0.017289 0.008774 -0.010040
v 0.017289 0.008774 -0.010100
v 0.017286 0.008774 -0.010040
v 0.017288 0.008774 -0.010101
v 0.017284 0.008775 -0.010040
v 0.017286 0.008774 -0.010101
v 0.017284 0.008775 -0.010102
v 0.017282 0.008776 -0.010040
v 0.017283 0.008776 -0.010102
v 0.017281 0.008776 -0.010103
v 0.017280 0.008777 -0.010040
v 0.017279 0.008777 -0.010104
v 0.017278 0.008779 -0.010040
v 0.017278 0.008778 -0.010105
v 0.017276 0.008780 -0.010106
v 0.017276 0.008780 -0.010040
v 0.017274 0.008782 -0.010040
v 0.017275 0.008781 -0.010106
v 0.017273 0.008782 -0.010107
v 0.017272 0.008784 -0.010040
v 0.017272 0.008784 -0.010108
v 0.017271 0.008785 -0.010109
v 0.017271 0.008785 -0.010040
v 0.017269 0.008787 -0.010040
v 0.017268 0.008790 -0.010040
v 0.017270 0.008787 -0.010110
v 0.017269 0.008789 -0.010110
v 0.017267 0.008792 -0.010040
v 0.017268 0.008791 -0.010111
v 0.017267 0.008793 -0.010112
v 0.017266 0.008794 -0.010040
v 0.017266 0.008795 -0.010112
v 0.017265 0.008799 -0.010040
v 0.017266 0.008796 -0.010040
v 0.017266 0.008797 -0.010112
v 0.017265 0.008799 -0.010113
v 0.017266 0.008809 -0.010112
v 0.017266 0.008811 -0.010112
v 0.017266 0.008811 -0.010040
v 0.017265 0.008801 -0.010040
v 0.017265 0.008801 -0.010113
v 0.017269 0.008817 -0.010110
v 0.017270 0.008819 -0.010110
v 0.017269 0.008818 -0.010040
v 0.017273 0.008824 -0.010107
v 0.017273 0.008824 -0.010040
v 0.017272 0.008822 -0.010040
v 0.017279 0.008829 -0.010104
v 0.017277 0.008827 -0.010040
v 0.017278 0.008827 -0.010105
v 0.017281 0.008829 -0.010040
v 0.017283 0.008830 -0.010102
v 0.017283 0.008831 -0.010040
v 0.017288 0.008832 -0.010101
v 0.017288 0.008832 -0.010040
v 0.017285 0.008831 -0.010040
v 0.017291 0.008833 -0.010100
v 0.017290 0.008833 -0.010040
v 0.017289 0.008832 -0.010100
v 0.017293 0.008833 -0.010100
v 0.017295 0.008833 -0.010040
v 0.017292 0.008833 -0.010040
v 0.017295 0.008833 -0.010100
v 0.017297 0.008833 -0.010100
v 0.017299 0.008833 -0.010100
v 0.017297 0.008833 -0.010040
v 0.017300 0.008832 -0.010100
v 0.017300 0.008833 -0.010040
v 0.017302 0.008832 -0.010101
v 0.017302 0.008832 -0.010040
v 0.017304 0.008832 -0.010101
v 0.017304 0.008831 -0.010040
v 0.017307 0.008830 -0.010102
v 0.017307 0.008831 -0.010040
v 0.017306 0.008831 -0.010102
v 0.017286 0.008832 -0.010101
v 0.017284 0.008831 -0.010102
v 0.017281 0.008830 -0.010103
v 0.017279 0.008828 -0.010040
v 0.017276 0.008826 -0.010106
v 0.017275 0.008825 -0.010040
v 0.017275 0.008825 -0.010106
v 0.017272 0.008822 -0.010108
v 0.017270 0.008820 -0.010040
v 0.017271 0.008821 -0.010109
v 0.017268 0.008816 -0.010040
v 0.017268 0.008815 -0.010111
v 0.017267 0.008813 -0.010040
v 0.017267 0.008813 -0.010112
v 0.017266 0.008809 -0.010040
v 0.017265 0.008807 -0.010113
v 0.017265 0.008806 -0.010040
v 0.017265 0.008805 -0.010113
v 0.017265 0.008804 -0.010040
v 0.017265 0.008803 -0.010113
v 0.017288 0.008872 -0.010042
v 0.017230 0.008872 -0.010042
v 0.017460 0.008872 -0.010040
v 0.017230 0.008872 -0.010042
v 0.017230 0.008872 -0.010040
v 0.017460 0.008872 -0.010040
v 0.017402 0.008872 -0.010042
v 0.017345 0.008872 -0.010042
v 0.017460 0.008872 -0.010040
v 0.017460 0.008872 -0.010042
v 0.017460 0.008872 -0.010040
v 0.017460 0.008872 -0.010040
v 0.017311 0.008829 -0.010040
v 0.017312 0.008827 -0.010040
v 0.017460 0.008872 -0.010040
v 0.017311 0.008829 -0.010040
v 0.017460 0.008872 -0.010040
v 0.017309 0.008830 -0.010040
v 0.017312 0.008827 -0.010040
v 0.017314 0.008826 -0.010040
v 0.017460 0.008872 -0.010040
v 0.017314 0.008826 -0.010040
v 0.017316 0.008825 -0.010040
v 0.017460 0.008872 -0.010040
v 0.017316 0.008825 -0.010040
v 0.017317 0.008823 -0.010040
v 0.017460 0.008872 -0.010040
v 0.017317 0.008823 -0.010040
v 0.017318 0.008822 -0.010040
v 0.017460 0.008872 -0.010040
v 0.017318 0.008822 -0.010040
v 0.017320 0.008820 -0.010040
v 0.017460 0.008872 -0.010040
v 0.017320 0.008820 -0.010040
v 0.017321 0.008819 -0.010040
v 0.017460 0.008872 -0.010040
v 0.017321 0.008819 -0.010040
v 0.017322 0.008817 -0.010040
v 0.017460 0.008872 -0.010040
v 0.017322 0.008817 -0.010040
v 0.017323 0.008815 -0.010040
v 0.017460 0.008872 -0.010040
v 0.017323 0.008815 -0.010040
v 0.017323 0.008813 -0.010040
v 0.017460 0.008872 -0.010040
v 0.017323 0.008813 -0.010040
v 0.017324 0.008811 -0.010040
v 0.017460 0.008872 -0.010040
v 0.017324 0.008811 -0.010040
v 0.017324 0.008809 -0.010040
v 0.017460 0.008872 -0.010040
v 0.017324 0.008809 -0.010040
v 0.017325 0.008807 -0.010040
v 0.017460 0.008872 -0.010040
v 0.017325 0.008807 -0.010040
v 0.017325 0.008805 -0.010040
v 0.017460 0.008872 -0.010040
v 0.017325 0.008805 -0.010040
v 0.017325 0.008803 -0.010040
v 0.017460 0.008872 -0.010040
v 0.017325 0.008803 -0.010040
v 0.017460 0.008734 -0.010040
v 0.017460 0.008872 -0.010040
v 0.017325 0.008801 -0.010040
v 0.017460 0.008734 -0.010040
v 0.017325 0.008803 -0.010040
v 0.017325 0.008798 -0.010040
v 0.017460 0.008734 -0.010040
v 0.017325 0.008801 -0.010040
v 0.017324 0.008796 -0.010040
v 0.017460 0.008734 -0.010040
v 0.017325 0.008798 -0.010040
v 0.017460 0.008734 -0.010040
v 0.017324 0.008796 -0.010040
v 0.017323 0.008793 -0.010040
v 0.017460 0.008734 -0.010040
v 0.017323 0.008793 -0.010040
v 0.017323 0.008791 -0.010040
v 0.017460 0.008734 -0.010040
v 0.017323 0.008791 -0.010040
v 0.017322 0.008789 -0.010040
v 0.017460 0.008734 -0.010040
v 0.017322 0.008789 -0.010040
v 0.017320 0.008787 -0.010040
v 0.017460 0.008734 -0.010040
v 0.017320 0.008787 -0.010040
v 0.017319 0.008785 -0.010040
v 0.017460 0.008734 -0.010040
v 0.017319 0.008785 -0.010040
v 0.017317 0.008783 -0.010040
v 0.017460 0.008734 -0.010040
v 0.017317 0.008783 -0.010040
v 0.017316 0.008781 -0.010040
v 0.017312 0.008778 -0.010040
v 0.017310 0.008777 -0.010040
v 0.017460 0.008734 -0.010040
v 0.017312 0.008778 -0.010040
v 0.017460 0.008734 -0.010040
v 0.017314 0.008780 -0.010040
v 0.017460 0.008734 -0.010040
v 0.017316 0.008781 -0.010040
v 0.017314 0.008780 -0.010040
v 0.017308 0.008776 -0.010040
v 0.017460 0.008734 -0.010040
v 0.017310 0.008777 -0.010040
v 0.017305 0.008775 -0.010040
v 0.017460 0.008734 -0.010040
v 0.017308 0.008776 -0.010040
v 0.017303 0.008774 -0.010040
v 0.017460 0.008734 -0.010040
v 0.017305 0.008775 -0.010040
v 0.017230 0.008734 -0.010040
v 0.017460 0.008734 -0.010040
v 0.017303 0.008774 -0.010040
v 0.017230 0.008734 -0.010040
v 0.017303 0.008774 -0.010040
v 0.017301 0.008774 -0.010040
v 0.017230 0.008734 -0.010040
v 0.017301 0.008774 -0.010040
v 0.017298 0.008773 -0.010040
v 0.017230 0.008734 -0.010040
v 0.017298 0.008773 -0.010040
v 0.017296 0.008773 -0.010040
v 0.017230 0.008734 -0.010040
v 0.017296 0.008773 -0.010040
v 0.017293 0.008773 -0.010040
v 0.017289 0.008774 -0.010040
v 0.017286 0.008774 -0.010040
v 0.017230 0.008734 -0.010040
v 0.017289 0.008774 -0.010040
v 0.017230 0.008734 -0.010040
v 0.017291 0.008773 -0.010040
v 0.017286 0.008774 -0.010040
v 0.017284 0.008775 -0.010040
v 0.017230 0.008734 -0.010040
v 0.017284 0.008775 -0.010040
v 0.017282 0.008776 -0.010040
v 0.017230 0.008734 -0.010040
v 0.017282 0.008776 -0.010040
v 0.017280 0.008777 -0.010040
v 0.017230 0.008734 -0.010040
v 0.017280 0.008777 -0.010040
v 0.017278 0.008779 -0.010040
v 0.017230 0.008734 -0.010040
v 0.017278 0.008779 -0.010040
v 0.017276 0.008780 -0.010040
v 0.017230 0.008734 -0.010040
v 0.017276 0.008780 -0.010040
v 0.017274 0.008782 -0.010040
v 0.017230 0.008734 -0.010040
v 0.017274 0.008782 -0.010040
v 0.017272 0.008784 -0.010040
v 0.017230 0.008734 -0.010040
v 0.017272 0.008784 -0.010040
v 0.017271 0.008785 -0.010040
v 0.017230 0.008734 -0.010040
v 0.017271 0.008785 -0.010040
v 0.017269 0.008787 -0.010040
v 0.017230 0.008734 -0.010040
v 0.017269 0.008787 -0.010040
v 0.017268 0.008790 -0.010040
v 0.017230 0.008734 -0.010040
v 0.017268 0.008790 -0.010040
v 0.017267 0.008792 -0.010040
v 0.017230 0.008734 -0.010040
v 0.017266 0.008794 -0.010040
v 0.017230 0.008734 -0.010040
v 0.017267 0.008792 -0.010040
v 0.017266 0.008796 -0.010040
v 0.017230 0.008734 -0.010040
v 0.017266 0.008794 -0.010040
v 0.017265 0.008799 -0.010040
v 0.017230 0.008734 -0.010040
v 0.017266 0.008796 -0.010040
v 0.017230 0.008734 -0.010040
v 0.017293 0.008773 -0.010040
v 0.017291 0.008773 -0.010040
v 0.017265 0.008804 -0.010040
v 0.017230 0.008734 -0.010040
v 0.017265 0.008801 -0.010040
v 0.017230 0.008872 -0.010040
v 0.017230 0.008734 -0.010040
v 0.017265 0.008804 -0.010040
v 0.017230 0.008872 -0.010040
v 0.017265 0.008804 -0.010040
v 0.017265 0.008806 -0.010040
v 0.017230 0.008872 -0.010040
v 0.017265 0.008806 -0.010040
v 0.017266 0.008809 -0.010040
v 0.017230 0.008872 -0.010040
v 0.017266 0.008809 -0.010040
v 0.017266 0.008811 -0.010040
v 0.017268 0.008816 -0.010040
v 0.017269 0.008818 -0.010040
v 0.017230 0.008872 -0.010040
v 0.017268 0.008816 -0.010040
v 0.017230 0.008872 -0.010040
v 0.017267 0.008813 -0.010040
v 0.017269 0.008818 -0.010040
v 0.017270 0.008820 -0.010040
v 0.017230 0.008872 -0.010040
v 0.017270 0.008820 -0.010040
v 0.017272 0.008822 -0.010040
v 0.017230 0.008872 -0.010040
v 0.017272 0.008822 -0.010040
v 0.017273 0.008824 -0.010040
v 0.017230 0.008872 -0.010040
v 0.017273 0.008824 -0.010040
v 0.017275 0.008825 -0.010040
v 0.017230 0.008872 -0.010040
v 0.017275 0.008825 -0.010040
v 0.017277 0.008827 -0.010040
v 0.017230 0.008872 -0.010040
v 0.017277 0.008827 -0.010040
v 0.017279 0.008828 -0.010040
v 0.017230 0.008872 -0.010040
v 0.017279 0.008828 -0.010040
v 0.017281 0.008829 -0.010040
v 0.017230 0.008872 -0.010040
v 0.017281 0.008829 -0.010040
v 0.017283 0.008831 -0.010040
v 0.017230 0.008872 -0.010040
v 0.017283 0.008831 -0.010040
v 0.017285 0.008831 -0.010040
v 0.017230 0.008872 -0.010040
v 0.017285 0.008831 -0.010040
v 0.017288 0.008832 -0.010040
v 0.017230 0.008872 -0.010040
v 0.017290 0.008833 -0.010040
v 0.017230 0.008872 -0.010040
v 0.017288 0.008832 -0.010040
v 0.017292 0.008833 -0.010040
v 0.017230 0.008872 -0.010040
v 0.017290 0.008833 -0.010040
v 0.017295 0.008833 -0.010040
v 0.017230 0.008872 -0.010040
v 0.017292 0.008833 -0.010040
v 0.017297 0.008833 -0.010040
v 0.017230 0.008872 -0.010040
v 0.017295 0.008833 -0.010040
v 0.017300 0.008833 -0.010040
v 0.017230 0.008872 -0.010040
v 0.017297 0.008833 -0.010040
v 0.017302 0.008832 -0.010040
v 0.017230 0.008872 -0.010040
v 0.017300 0.008833 -0.010040
v 0.017460 0.008872 -0.010040
v 0.017230 0.008872 -0.010040
v 0.017302 0.008832 -0.010040
v 0.017460 0.008872 -0.010040
v 0.017302 0.008832 -0.010040
v 0.017304 0.008831 -0.010040
v 0.017230 0.008872 -0.010040
v 0.017266 0.008811 -0.010040
v 0.017267 0.008813 -0.010040
v 0.017309 0.008830 -0.010040
v 0.017460 0.008872 -0.010040
v 0.017307 0.008831 -0.010040
v 0.017307 0.008831 -0.010040
v 0.017460 0.008872 -0.010040
v 0.017304 0.008831 -0.010040
v 0.017265 0.008799 -0.010040
v 0.017265 0.008801 -0.010040
v 0.017230 0.008734 -0.010040
v 0.017384 0.008854 -0.010076
v 0.017376 0.008852 -0.010079
v 0.017355 0.008853 -0.010076
v 0.017402 0.008853 -0.010077
v 0.017423 0.008846 -0.010086
v 0.017423 0.008849 -0.010082
v 0.017432 0.008845 -0.010087
v 0.017413 0.008843 -0.010090
v 0.017384 0.008845 -0.010087
v 0.017382 0.008839 -0.010094
v 0.017376 0.008834 -0.010099
v 0.017356 0.008839 -0.010094
v 0.017423 0.008838 -0.010094
v 0.017422 0.008834 -0.010099
v 0.017438 0.008841 -0.010092
v 0.017387 0.008850 -0.010081
v 0.017361 0.008849 -0.010083
v 0.017358 0.008842 -0.010090
v 0.017460 0.008843 -0.010090
v 0.017297 0.008868 -0.010052
v 0.017293 0.008866 -0.010057
v 0.017230 0.008868 -0.010051
v 0.017308 0.008867 -0.010053
v 0.017257 0.008849 -0.010082
v 0.017269 0.008853 -0.010076
v 0.017292 0.008851 -0.010080
v 0.017230 0.008849 -0.010083
v 0.017230 0.008852 -0.010079
v 0.017271 0.008846 -0.010086
v 0.017291 0.008842 -0.010091
v 0.017230 0.008843 -0.010090
v 0.017306 0.008846 -0.010085
v 0.017300 0.008852 -0.010079
v 0.017278 0.008857 -0.010071
v 0.017306 0.008855 -0.010074
v 0.017230 0.008852 -0.010079
v 0.017230 0.008854 -0.010075
v 0.017387 0.008859 -0.010069
v 0.017381 0.008862 -0.010063
v 0.017416 0.008860 -0.010066
v 0.017373 0.008857 -0.010071
v 0.017358 0.008860 -0.010066
v 0.017398 0.008864 -0.010059
v 0.017395 0.008867 -0.010054
v 0.017460 0.008866 -0.010055
v 0.017383 0.008865 -0.010058
v 0.017406 0.008857 -0.010071
v 0.017460 0.008862 -0.010063
v 0.017460 0.008859 -0.010067
v 0.017264 0.008863 -0.010061
v 0.017271 0.008860 -0.010066
v 0.017230 0.008862 -0.010063
v 0.017304 0.008862 -0.010063
v 0.017230 0.008857 -0.010071
v 0.017340 0.008857 -0.010071
v 0.017355 0.008862 -0.010063
v 0.017317 0.008858 -0.010070
v 0.017338 0.008853 -0.010077
v 0.017348 0.008852 -0.010079
v 0.017326 0.008850 -0.010081
v 0.017329 0.008846 -0.010086
v 0.017373 0.008865 -0.010057
v 0.017460 0.008864 -0.010059
v 0.017319 0.008865 -0.010057
v 0.017343 0.008866 -0.010055
v 0.017289 0.008870 -0.010047
v 0.017354 0.008867 -0.010053
v 0.017344 0.008870 -0.010047
v 0.017400 0.008870 -0.010046
v 0.017460 0.008836 -0.010097
v 0.017384 0.008830 -0.010103
v 0.017460 0.008854 -0.010075
v 0.017460 0.008852 -0.010079
v 0.017460 0.008849 -0.010083
v 0.017334 0.008841 -0.010091
v 0.017230 0.008870 -0.010047
v 0.017230 0.008868 -0.010051
v 0.017460 0.008870 -0.010047
v 0.017291 0.008836 -0.010097
v 0.017314 0.008836 -0.010097
v 0.017289 0.008832 -0.010100
v 0.017288 0.008832 -0.010101
v 0.017230 0.008849 -0.010083
v 0.017230 0.008846 -0.010086
v 0.017297 0.008833 -0.010100
v 0.017460 0.008836 -0.010097
v 0.017460 0.008840 -0.010093
v 0.017309 0.008830 -0.010103
v 0.017309 0.008830 -0.010103
v 0.017460 0.008868 -0.010051
v 0.017460 0.008866 -0.010055
v 0.017460 0.008843 -0.010090
v 0.017460 0.008840 -0.010093
v 0.017307 0.008830 -0.010102
v 0.017306 0.008831 -0.010102
v 0.017460 0.008836 -0.010097
v 0.017460 0.008833 -0.010100
v 0.017230 0.008864 -0.010059
v 0.017230 0.008866 -0.010055
v 0.017230 0.008854 -0.010075
v 0.017230 0.008857 -0.010071
v 0.017460 0.008857 -0.010071
v 0.017293 0.008833 -0.010100
v 0.017295 0.008833 -0.010100
v 0.017460 0.008846 -0.010086
v 0.017460 0.008849 -0.010083
v 0.017283 0.008830 -0.010102
v 0.017230 0.008833 -0.010100
v 0.017284 0.008831 -0.010102
v 0.017283 0.008830 -0.010102
v 0.017281 0.008830 -0.010103
v 0.017230 0.008833 -0.010100
v 0.017284 0.008831 -0.010102
v 0.017230 0.008833 -0.010100
v 0.017286 0.008832 -0.010101
v 0.017286 0.008832 -0.010101
v 0.017230 0.008833 -0.010100
v 0.017230 0.008836 -0.010097
v 0.017286 0.008832 -0.010101
v 0.017230 0.008836 -0.010097
v 0.017288 0.008832 -0.010101
v 0.017286 0.008832 -0.010101
v 0.017230 0.008836 -0.010097
v 0.017230 0.008840 -0.010093
v 0.017289 0.008832 -0.010100
v 0.017291 0.008833 -0.010100
v 0.017230 0.008843 -0.010090
v 0.017230 0.008846 -0.010086
v 0.017230 0.008852 -0.010079
v 0.017460 0.008843 -0.010090
v 0.017460 0.008846 -0.010086
v 0.017230 0.008857 -0.010071
v 0.017297 0.008833 -0.010100
v 0.017299 0.008833 -0.010100
v 0.017299 0.008833 -0.010100
v 0.017300 0.008832 -0.010100
v 0.017460 0.008833 -0.010100
v 0.017460 0.008830 -0.010103
v 0.017302 0.008832 -0.010101
v 0.017300 0.008832 -0.010100
v 0.017230 0.008840 -0.010093
v 0.017230 0.008843 -0.010090
v 0.017309 0.008830 -0.010103
v 0.017307 0.008830 -0.010102
v 0.017306 0.008831 -0.010102
v 0.017304 0.008832 -0.010101
v 0.017460 0.008830 -0.010103
v 0.017302 0.008832 -0.010101
v 0.017304 0.008832 -0.010101
v 0.017460 0.008836 -0.010097
v 0.017295 0.008833 -0.010100
v 0.017297 0.008833 -0.010100
v 0.017230 0.008859 -0.010067
v 0.017230 0.008862 -0.010063
v 0.017460 0.008854 -0.010075
v 0.017230 0.008857 -0.010071
v 0.017230 0.008859 -0.010067
v 0.017460 0.008852 -0.010079
v 0.017460 0.008854 -0.010075
v 0.017230 0.008862 -0.010063
v 0.017230 0.008864 -0.010059
v 0.017460 0.008857 -0.010071
v 0.017460 0.008859 -0.010067
v 0.017460 0.008870 -0.010047
v 0.017460 0.008868 -0.010051
v 0.017460 0.008872 -0.010042
v 0.017460 0.008870 -0.010047
v 0.017460 0.008868 -0.010051
v 0.017460 0.008864 -0.010059
v 0.017460 0.008866 -0.010055
v 0.017230 0.008870 -0.010047
v 0.017230 0.008872 -0.010042
v 0.017460 0.008864 -0.010059
v 0.017460 0.008862 -0.010063
v 0.017230 0.008870 -0.010047
v 0.017230 0.008868 -0.010051
v 0.017230 0.008866 -0.010055
v 0.017230 0.008868 -0.010051
v 0.017230 0.008866 -0.010055
v 0.017460 0.008854 -0.010075
v 0.017460 0.008857 -0.010071
v 0.017460 0.008849 -0.010083
v 0.017291 0.008833 -0.010100
v 0.017293 0.008833 -0.010100
v 0.017230 0.008840 -0.010093
v 0.017230 0.008833 -0.010100
v 0.017281 0.008830 -0.010103
v 0.017230 0.008830 -0.010103
v 0.017230 0.008846 -0.010086
v 0.017230 0.008830 -0.010103
v 0.017281 0.008830 -0.010103
v 0.017279 0.008829 -0.010104
v 0.017278 0.008827 -0.010105
v 0.017230 0.008830 -0.010103
v 0.017279 0.008829 -0.010104
v 0.017278 0.008827 -0.010105
v 0.017230 0.008827 -0.010105
v 0.017230 0.008830 -0.010103
v 0.017278 0.008827 -0.010105
v 0.017276 0.008826 -0.010106
v 0.017230 0.008827 -0.010105
v 0.017230 0.008827 -0.010105
v 0.017276 0.008826 -0.010106
v 0.017275 0.008825 -0.010106
v 0.017273 0.008824 -0.010107
v 0.017230 0.008827 -0.010105
v 0.017275 0.008825 -0.010106
v 0.017273 0.008824 -0.010107
v 0.017230 0.008824 -0.010107
v 0.017230 0.008827 -0.010105
v 0.017272 0.008822 -0.010108
v 0.017271 0.008821 -0.010109
v 0.017230 0.008824 -0.010107
v 0.017271 0.008821 -0.010109
v 0.017270 0.008819 -0.010110
v 0.017230 0.008821 -0.010109
v 0.017269 0.008817 -0.010110
v 0.017268 0.008815 -0.010111
v 0.017230 0.008817 -0.010110
v 0.017268 0.008815 -0.010111
v 0.017267 0.008813 -0.010112
v 0.017230 0.008814 -0.010112
v 0.017230 0.008814 -0.010112
v 0.017266 0.008811 -0.010112
v 0.017230 0.008810 -0.010112
v 0.017230 0.008810 -0.010112
v 0.017266 0.008811 -0.010112
v 0.017266 0.008809 -0.010112
v 0.017230 0.008807 -0.010113
v 0.017230 0.008810 -0.010112
v 0.017265 0.008807 -0.010113
v 0.017230 0.008803 -0.010113
v 0.017230 0.008807 -0.010113
v 0.017265 0.008805 -0.010113
v 0.017265 0.008801 -0.010113
v 0.017230 0.008803 -0.010113
v 0.017265 0.008803 -0.010113
v 0.017267 0.008793 -0.010112
v 0.017268 0.008791 -0.010111
v 0.017230 0.008792 -0.010112
v 0.017281 0.008776 -0.010103
v 0.017230 0.008776 -0.010103
v 0.017279 0.008777 -0.010104
v 0.017279 0.008777 -0.010104
v 0.017230 0.008776 -0.010103
v 0.017278 0.008778 -0.010105
v 0.017278 0.008778 -0.010105
v 0.017230 0.008776 -0.010103
v 0.017230 0.008779 -0.010105
v 0.017276 0.008780 -0.010106
v 0.017278 0.008778 -0.010105
v 0.017230 0.008779 -0.010105
v 0.017275 0.008781 -0.010106
v 0.017276 0.008780 -0.010106
v 0.017230 0.008779 -0.010105
v 0.017273 0.008782 -0.010107
v 0.017275 0.008781 -0.010106
v 0.017230 0.008779 -0.010105
v 0.017230 0.008782 -0.010107
v 0.017273 0.008782 -0.010107
v 0.017230 0.008779 -0.010105
v 0.017230 0.008782 -0.010107
v 0.017272 0.008784 -0.010108
v 0.017273 0.008782 -0.010107
v 0.017230 0.008782 -0.010107
v 0.017271 0.008785 -0.010109
v 0.017272 0.008784 -0.010108
v 0.017230 0.008782 -0.010107
v 0.017230 0.008785 -0.010109
v 0.017271 0.008785 -0.010109
v 0.017271 0.008785 -0.010109
v 0.017230 0.008785 -0.010109
v 0.017270 0.008787 -0.010110
v 0.017230 0.008789 -0.010110
v 0.017268 0.008791 -0.010111
v 0.017269 0.008789 -0.010110
v 0.017270 0.008787 -0.010110
v 0.017230 0.008789 -0.010110
v 0.017269 0.008789 -0.010110
v 0.017230 0.008789 -0.010110
v 0.017230 0.008792 -0.010112
v 0.017268 0.008791 -0.010111
v 0.017266 0.008795 -0.010112
v 0.017267 0.008793 -0.010112
v 0.017230 0.008792 -0.010112
v 0.017230 0.008796 -0.010112
v 0.017266 0.008795 -0.010112
v 0.017230 0.008792 -0.010112
v 0.017265 0.008799 -0.010113
v 0.017230 0.008796 -0.010112
v 0.017230 0.008799 -0.010113
v 0.017265 0.008799 -0.010113
v 0.017266 0.008797 -0.010112
v 0.017230 0.008796 -0.010112
v 0.017265 0.008801 -0.010113
v 0.017265 0.008799 -0.010113
v 0.017230 0.008799 -0.010113
v 0.017230 0.008803 -0.010113
v 0.017265 0.008801 -0.010113
v 0.017230 0.008799 -0.010113
v 0.017265 0.008805 -0.010113
v 0.017265 0.008803 -0.010113
v 0.017230 0.008803 -0.010113
v 0.017265 0.008807 -0.010113
v 0.017265 0.008805 -0.010113
v 0.017230 0.008807 -0.010113
v 0.017266 0.008809 -0.010112
v 0.017265 0.008807 -0.010113
v 0.017230 0.008810 -0.010112
v 0.017266 0.008811 -0.010112
v 0.017230 0.008814 -0.010112
v 0.017267 0.008813 -0.010112
v 0.017230 0.008814 -0.010112
v 0.017230 0.008817 -0.010110
v 0.017268 0.008815 -0.010111
v 0.017230 0.008817 -0.010110
v 0.017270 0.008819 -0.010110
v 0.017269 0.008817 -0.010110
v 0.017230 0.008817 -0.010110
v 0.017230 0.008821 -0.010109
v 0.017270 0.008819 -0.010110
v 0.017230 0.008821 -0.010109
v 0.017230 0.008824 -0.010107
v 0.017271 0.008821 -0.010109
v 0.017230 0.008824 -0.010107
v 0.017273 0.008824 -0.010107
v 0.017272 0.008822 -0.010108
v 0.017230 0.008796 -0.010112
v 0.017266 0.008797 -0.010112
v 0.017266 0.008795 -0.010112
v 0.017230 0.008789 -0.010110
v 0.017270 0.008787 -0.010110
v 0.017230 0.008785 -0.010109
v 0.017353 0.008816 -0.010111
v 0.017351 0.008818 -0.010110
v 0.017372 0.008817 -0.010111
v 0.017341 0.008815 -0.010111
v 0.017428 0.008817 -0.010110
v 0.017428 0.008820 -0.010109
v 0.017445 0.008818 -0.010110
v 0.017422 0.008816 -0.010111
v 0.017417 0.008819 -0.010110
v 0.017414 0.008814 -0.010111
v 0.017409 0.008816 -0.010111
v 0.017402 0.008819 -0.010110
v 0.017395 0.008816 -0.010111
v 0.017410 0.008822 -0.010108
v 0.017439 0.008808 -0.010113
v 0.017435 0.008805 -0.010113
v 0.017429 0.008809 -0.010113
v 0.017453 0.008810 -0.010112
v 0.017460 0.008807 -0.010113
v 0.017425 0.008791 -0.010111
v 0.017429 0.008788 -0.010110
v 0.017407 0.008790 -0.010111
v 0.017432 0.008792 -0.010111
v 0.017398 0.008785 -0.010109
v 0.017393 0.008782 -0.010107
v 0.017380 0.008784 -0.010108
v 0.017410 0.008786 -0.010109
v 0.017412 0.008783 -0.010108
v 0.017386 0.008780 -0.010106
v 0.017414 0.008780 -0.010106
v 0.017343 0.008791 -0.010111
v 0.017343 0.008794 -0.010112
v 0.017350 0.008792 -0.010112
v 0.017336 0.008787 -0.010110
v 0.017322 0.008791 -0.010111
v 0.017334 0.008785 -0.010109
v 0.017320 0.008787 -0.010110
v 0.017352 0.008789 -0.010110
v 0.017355 0.008785 -0.010109
v 0.017329 0.008813 -0.010112
v 0.017324 0.008811 -0.010112
v 0.017323 0.008813 -0.010112
v 0.017348 0.008812 -0.010112
v 0.017442 0.008815 -0.010111
v 0.017438 0.008812 -0.010112
v 0.017434 0.008816 -0.010111
v 0.017455 0.008816 -0.010111
v 0.017460 0.008814 -0.010112
v 0.017460 0.008810 -0.010112
v 0.017460 0.008807 -0.010113
v 0.017460 0.008814 -0.010112
v 0.017426 0.008813 -0.010112
v 0.017460 0.008814 -0.010112
v 0.017460 0.008810 -0.010112
v 0.017460 0.008817 -0.010110
v 0.017460 0.008814 -0.010112
v 0.017460 0.008817 -0.010110
v 0.017432 0.008780 -0.010106
v 0.017433 0.008782 -0.010107
v 0.017441 0.008782 -0.010107
v 0.017419 0.008778 -0.010104
v 0.017384 0.008776 -0.010103
v 0.017385 0.008778 -0.010104
v 0.017378 0.008778 -0.010104
v 0.017342 0.008779 -0.010105
v 0.017364 0.008781 -0.010106
v 0.017373 0.008785 -0.010109
v 0.017374 0.008788 -0.010110
v 0.017390 0.008788 -0.010110
v 0.017365 0.008784 -0.010108
v 0.017449 0.008787 -0.010109
v 0.017444 0.008784 -0.010108
v 0.017460 0.008785 -0.010109
v 0.017443 0.008790 -0.010111
v 0.017439 0.008793 -0.010112
v 0.017460 0.008792 -0.010112
v 0.017407 0.008798 -0.010113
v 0.017408 0.008801 -0.010113
v 0.017429 0.008798 -0.010113
v 0.017400 0.008796 -0.010112
v 0.017392 0.008798 -0.010113
v 0.017398 0.008793 -0.010112
v 0.017387 0.008796 -0.010112
v 0.017412 0.008796 -0.010112
v 0.017414 0.008793 -0.010112
v 0.017375 0.008791 -0.010111
v 0.017381 0.008793 -0.010112
v 0.017388 0.008789 -0.010111
v 0.017368 0.008793 -0.010112
v 0.017371 0.008796 -0.010112
v 0.017377 0.008799 -0.010113
v 0.017433 0.008822 -0.010108
v 0.017432 0.008825 -0.010107
v 0.017440 0.008822 -0.010108
v 0.017416 0.008822 -0.010108
v 0.017444 0.008780 -0.010105
v 0.017460 0.008782 -0.010107
v 0.017336 0.008797 -0.010113
v 0.017341 0.008800 -0.010113
v 0.017354 0.008798 -0.010113
v 0.017324 0.008797 -0.010112
v 0.017325 0.008799 -0.010113
v 0.017344 0.008803 -0.010113
v 0.017360 0.008802 -0.010113
v 0.017325 0.008799 -0.010113
v 0.017325 0.008801 -0.010113
v 0.017338 0.008809 -0.010113
v 0.017341 0.008806 -0.010113
v 0.017325 0.008807 -0.010113
v 0.017354 0.008808 -0.010113
v 0.017325 0.008803 -0.010113
v 0.017356 0.008805 -0.010113
v 0.017383 0.008803 -0.010113
v 0.017389 0.008806 -0.010113
v 0.017399 0.008803 -0.010113
v 0.017369 0.008803 -0.010113
v 0.017377 0.008807 -0.010113
v 0.017389 0.008800 -0.010113
v 0.017391 0.008809 -0.010113
v 0.017412 0.008807 -0.010113
v 0.017444 0.008797 -0.010113
v 0.017441 0.008801 -0.010113
v 0.017460 0.008799 -0.010113
v 0.017432 0.008795 -0.010112
v 0.017427 0.008795 -0.010112
v 0.017347 0.008783 -0.010107
v 0.017330 0.008781 -0.010106
v 0.017309 0.008776 -0.010103
v 0.017311 0.008777 -0.010104
v 0.017425 0.008785 -0.010108
v 0.017355 0.008795 -0.010112
v 0.017460 0.008821 -0.010109
v 0.017460 0.008824 -0.010107
v 0.017437 0.008828 -0.010105
v 0.017419 0.008828 -0.010104
v 0.017460 0.008830 -0.010103
v 0.017460 0.008827 -0.010105
v 0.017460 0.008830 -0.010103
v 0.017411 0.008825 -0.010106
v 0.017387 0.008826 -0.010105
v 0.017460 0.008827 -0.010105
v 0.017353 0.008822 -0.010108
v 0.017319 0.008821 -0.010109
v 0.017364 0.008824 -0.010107
v 0.017368 0.008821 -0.010109
v 0.017345 0.008825 -0.010107
v 0.017353 0.008827 -0.010105
v 0.017318 0.008822 -0.010108
v 0.017317 0.008824 -0.010107
v 0.017371 0.008810 -0.010112
v 0.017368 0.008814 -0.010112
v 0.017383 0.008814 -0.010111
v 0.017414 0.008803 -0.010113
v 0.017390 0.008813 -0.010112
v 0.017389 0.008819 -0.010110
v 0.017395 0.008823 -0.010108
v 0.017380 0.008816 -0.010111
v 0.017417 0.008811 -0.010112
v 0.017460 0.008803 -0.010113
v 0.017318 0.008784 -0.010108
v 0.017314 0.008780 -0.010106
v 0.017315 0.008781 -0.010106
v 0.017312 0.008779 -0.010105
v 0.017314 0.008780 -0.010106
v 0.017460 0.008785 -0.010109
v 0.017460 0.008782 -0.010107
v 0.017460 0.008779 -0.010105
v 0.017460 0.008776 -0.010103
v 0.017325 0.008803 -0.010113
v 0.017325 0.008805 -0.010113
v 0.017324 0.008811 -0.010112
v 0.017324 0.008809 -0.010112
v 0.017325 0.008807 -0.010113
v 0.017325 0.008805 -0.010113
v 0.017460 0.008796 -0.010112
v 0.017460 0.008799 -0.010113
v 0.017460 0.008814 -0.010112
v 0.017460 0.008807 -0.010113
v 0.017320 0.008819 -0.010110
v 0.017321 0.008817 -0.010110
v 0.017322 0.008815 -0.010111
v 0.017460 0.008821 -0.010109
v 0.017460 0.008824 -0.010107
v 0.017315 0.008825 -0.010106
v 0.017317 0.008824 -0.010107
v 0.017460 0.008779 -0.010105
v 0.017460 0.008782 -0.010107
v 0.017312 0.008779 -0.010105
v 0.017311 0.008777 -0.010104
v 0.017460 0.008789 -0.010110
v 0.017460 0.008785 -0.010109
v 0.017320 0.008787 -0.010110
v 0.017321 0.008789 -0.010110
v 0.017324 0.008795 -0.010112
v 0.017325 0.008807 -0.010113
v 0.017324 0.008809 -0.010112
v 0.017460 0.008830 -0.010103
v 0.017321 0.008817 -0.010110
v 0.017320 0.008819 -0.010110
v 0.017311 0.008829 -0.010104
v 0.017309 0.008830 -0.010103
v 0.017309 0.008830 -0.010103
v 0.017312 0.008828 -0.010105
v 0.017311 0.008829 -0.010104
v 0.017314 0.008826 -0.010106
v 0.017312 0.008828 -0.010105
v 0.017314 0.008826 -0.010106
v 0.017315 0.008825 -0.010106
v 0.017314 0.008826 -0.010106
v 0.017319 0.008821 -0.010109
v 0.017319 0.008821 -0.010109
v 0.017318 0.008822 -0.010108
v 0.017320 0.008819 -0.010110
v 0.017319 0.008821 -0.010109
v 0.017460 0.008807 -0.010113
v 0.017460 0.008803 -0.010113
v 0.017322 0.008815 -0.010111
v 0.017323 0.008813 -0.010112
v 0.017322 0.008815 -0.010111
v 0.017460 0.008799 -0.010113
v 0.017460 0.008803 -0.010113
v 0.017324 0.008811 -0.010112
v 0.017460 0.008792 -0.010112
v 0.017460 0.008796 -0.010112
v 0.017460 0.008796 -0.010112
v 0.017460 0.008789 -0.010110
v 0.017460 0.008792 -0.010112
v 0.017325 0.008803 -0.010113
v 0.017460 0.008782 -0.010107
v 0.017325 0.008799 -0.010113
v 0.017460 0.008789 -0.010110
v 0.017324 0.008797 -0.010112
v 0.017324 0.008795 -0.010112
v 0.017323 0.008793 -0.010112
v 0.017322 0.008791 -0.010111
v 0.017460 0.008776 -0.010103
v 0.017309 0.008776 -0.010103
v 0.017321 0.008789 -0.010110
v 0.017322 0.008791 -0.010111
v 0.017312 0.008779 -0.010105
v 0.017315 0.008781 -0.010106
v 0.017317 0.008782 -0.010107
v 0.017317 0.008782 -0.010107
v 0.017318 0.008784 -0.010108
v 0.017319 0.008785 -0.010109
v 0.017318 0.008784 -0.010108
v 0.017319 0.008785 -0.010109
v 0.017320 0.008787 -0.010110
v 0.017460 0.008776 -0.010103
v 0.017323 0.008793 -0.010112
v 0.017323 0.008793 -0.010112
v 0.017324 0.008795 -0.010112
v 0.017325 0.008801 -0.010113
v 0.017325 0.008803 -0.010113
v 0.017460 0.008827 -0.010105
v 0.017460 0.008824 -0.010107
v 0.017460 0.008821 -0.010109
v 0.017460 0.008817 -0.010110
v 0.017414 0.008757 -0.010083
v 0.017411 0.008761 -0.010087
v 0.017460 0.008760 -0.010086
v 0.017404 0.008756 -0.010082
v 0.017344 0.008774 -0.010101
v 0.017339 0.008770 -0.010097
v 0.017306 0.008775 -0.010102
v 0.017381 0.008770 -0.010097
v 0.017297 0.008738 -0.010052
v 0.017293 0.008740 -0.010057
v 0.017308 0.008739 -0.010053
v 0.017289 0.008736 -0.010047
v 0.017230 0.008738 -0.010051
v 0.017382 0.008757 -0.010083
v 0.017376 0.008754 -0.010079
v 0.017358 0.008757 -0.010082
v 0.017387 0.008747 -0.010069
v 0.017381 0.008744 -0.010063
v 0.017358 0.008746 -0.010066
v 0.017406 0.008749 -0.010071
v 0.017416 0.008746 -0.010066
v 0.017398 0.008742 -0.010059
v 0.017395 0.008739 -0.010054
v 0.017383 0.008741 -0.010058
v 0.017460 0.008742 -0.010059
v 0.017460 0.008749 -0.010071
v 0.017264 0.008743 -0.010061
v 0.017271 0.008746 -0.010066
v 0.017304 0.008744 -0.010063
v 0.017230 0.008742 -0.010059
v 0.017230 0.008744 -0.010063
v 0.017278 0.008749 -0.010071
v 0.017230 0.008744 -0.010063
v 0.017230 0.008747 -0.010067
v 0.017385 0.008751 -0.010074
v 0.017412 0.008753 -0.010077
v 0.017373 0.008749 -0.010071
v 0.017355 0.008753 -0.010076
v 0.017340 0.008749 -0.010071
v 0.017355 0.008744 -0.010063
v 0.017317 0.008748 -0.010070
v 0.017306 0.008751 -0.010074
v 0.017300 0.008754 -0.010079
v 0.017338 0.008753 -0.010077
v 0.017282 0.008753 -0.010077
v 0.017348 0.008754 -0.010079
v 0.017326 0.008756 -0.010081
v 0.017329 0.008760 -0.010086
v 0.017294 0.008759 -0.010085
v 0.017373 0.008741 -0.010057
v 0.017319 0.008741 -0.010057
v 0.017343 0.008740 -0.010055
v 0.017365 0.008761 -0.010087
v 0.017348 0.008761 -0.010088
v 0.017390 0.008765 -0.010092
v 0.017398 0.008768 -0.010095
v 0.017423 0.008765 -0.010092
v 0.017362 0.008766 -0.010093
v 0.017460 0.008766 -0.010093
v 0.017460 0.008763 -0.010090
v 0.017426 0.008755 -0.010079
v 0.017460 0.008752 -0.010075
v 0.017354 0.008739 -0.010053
v 0.017344 0.008736 -0.010047
v 0.017283 0.008771 -0.010098
v 0.017288 0.008774 -0.010101
v 0.017289 0.008774 -0.010100
v 0.017272 0.008765 -0.010092
v 0.017230 0.008770 -0.010097
v 0.017279 0.008761 -0.010087
v 0.017230 0.008763 -0.010090
v 0.017307 0.008769 -0.010095
v 0.017305 0.008763 -0.010090
v 0.017230 0.008752 -0.010075
v 0.017269 0.008757 -0.010082
v 0.017230 0.008754 -0.010079
v 0.017230 0.008757 -0.010083
v 0.017388 0.008771 -0.010098
v 0.017460 0.008776 -0.010103
v 0.017331 0.008765 -0.010091
v 0.017230 0.008736 -0.010047
v 0.017230 0.008738 -0.010051
v 0.017230 0.008740 -0.010055
v 0.017400 0.008736 -0.010046
v 0.017460 0.008736 -0.010047
v 0.017460 0.008738 -0.010051
v 0.017230 0.008736 -0.010047
v 0.017230 0.008734 -0.010042
v 0.017230 0.008738 -0.010051
v 0.017230 0.008736 -0.010047
v 0.017230 0.008749 -0.010071
v 0.017230 0.008752 -0.010075
v 0.017230 0.008749 -0.010071
v 0.017230 0.008747 -0.010067
v 0.017460 0.008757 -0.010083
v 0.017460 0.008749 -0.010071
v 0.017460 0.008747 -0.010067
v 0.017460 0.008740 -0.010055
v 0.017460 0.008742 -0.010059
v 0.017230 0.008760 -0.010086
v 0.017230 0.008757 -0.010083
v 0.017460 0.008770 -0.010097
v 0.017460 0.008773 -0.010100
v 0.017460 0.008752 -0.010075
v 0.017297 0.008773 -0.010100
v 0.017299 0.008773 -0.010100
v 0.017295 0.008773 -0.010100
v 0.017297 0.008773 -0.010100
v 0.017460 0.008763 -0.010090
v 0.017460 0.008760 -0.010086
v 0.017230 0.008749 -0.010071
v 0.017300 0.008774 -0.010100
v 0.017299 0.008773 -0.010100
v 0.017230 0.008760 -0.010086
v 0.017230 0.008776 -0.010103
v 0.017281 0.008776 -0.010103
v 0.017230 0.008773 -0.010100
v 0.017230 0.008773 -0.010100
v 0.017281 0.008776 -0.010103
v 0.017283 0.008776 -0.010102
v 0.017284 0.008775 -0.010102
v 0.017230 0.008773 -0.010100
v 0.017283 0.008776 -0.010102
v 0.017284 0.008775 -0.010102
v 0.017286 0.008774 -0.010101
v 0.017286 0.008774 -0.010101
v 0.017288 0.008774 -0.010101
v 0.017293 0.008773 -0.010100
v 0.017291 0.008773 -0.010100
v 0.017293 0.008773 -0.010100
v 0.017295 0.008773 -0.010100
v 0.017230 0.008770 -0.010097
v 0.017230 0.008766 -0.010093
v 0.017230 0.008763 -0.010090
v 0.017230 0.008766 -0.010093
v 0.017460 0.008752 -0.010075
v 0.017460 0.008749 -0.010071
v 0.017460 0.008747 -0.010067
v 0.017460 0.008744 -0.010063
v 0.017230 0.008752 -0.010075
v 0.017230 0.008754 -0.010079
v 0.017230 0.008740 -0.010055
v 0.017230 0.008738 -0.010051
v 0.017230 0.008742 -0.010059
v 0.017230 0.008740 -0.010055
v 0.017460 0.008736 -0.010047
v 0.017460 0.008734 -0.010042
v 0.017230 0.008744 -0.010063
v 0.017460 0.008736 -0.010047
v 0.017460 0.008738 -0.010051
v 0.017460 0.008740 -0.010055
v 0.017230 0.008754 -0.010079
v 0.017460 0.008752 -0.010075
v 0.017460 0.008754 -0.010079
v 0.017302 0.008774 -0.010101
v 0.017300 0.008774 -0.010100
v 0.017460 0.008757 -0.010083
v 0.017460 0.008760 -0.010086
v 0.017460 0.008770 -0.010097
v 0.017460 0.008773 -0.010100
v 0.017460 0.008773 -0.010100
v 0.017460 0.008776 -0.010103
v 0.017460 0.008760 -0.010086
v 0.017309 0.008776 -0.010103
v 0.017309 0.008776 -0.010103
v 0.017307 0.008776 -0.010102
v 0.017307 0.008776 -0.010102
v 0.017306 0.008775 -0.010102
v 0.017306 0.008775 -0.010102
v 0.017304 0.008774 -0.010101
v 0.017304 0.008774 -0.010101
v 0.017302 0.008774 -0.010101
v 0.017460 0.008770 -0.010097
v 0.017460 0.008766 -0.010093
v 0.017460 0.008757 -0.010083
v 0.017460 0.008754 -0.010079
v 0.017460 0.008740 -0.010055
v 0.017460 0.008738 -0.010051
v 0.017460 0.008744 -0.010063
v 0.017460 0.008742 -0.010059
v 0.017295 0.008773 -0.010100
v 0.017230 0.008760 -0.010086
v 0.017230 0.008763 -0.010090
v 0.017230 0.008770 -0.010097
v 0.017230 0.008773 -0.010100
v 0.017289 0.008774 -0.010100
v 0.017291 0.008773 -0.010100
v 0.017302 0.008774 -0.010101
v 0.017230 0.008773 -0.010100
v 0.017284 0.008775 -0.010102
vn -1.0000 -0.0000 -0.0000
vn -1.0000 -0.0002 -0.0000
vn -1.0000 -0.0001 -0.0000
vn -1.0000 0.0002 -0.0000
vn -1.0000 0.0003 -0.0000
vn -1.0000 0.0001 -0.0000
vn 1.0000 -0.0001 -0.0000
vn 1.0000 -0.0000 -0.0000
vn 1.0000 0.0001 -0.0000
vn 1.0000 -0.0001 -0.0001
vn 1.0000 -0.0000 0.0001
vn 1.0000 0.0002 -0.0000
vn -0.0000 -1.0000 -0.0000
vn -0.0000 -1.0000 -0.0001
vn -0.0000 -1.0000 -0.0002
vn -0.9977 -0.0680 0.0002
vn -1.0000 -0.0020 -0.0000
vn -0.9897 -0.1430 -0.0000
vn -0.9974 -0.0726 -0.0000
vn -0.9771 -0.2127 -0.0000
vn -0.9908 -0.1355 -0.0000
vn -0.9793 -0.2024 -0.0000
vn -0.9597 -0.2810 -0.0000
vn -0.9633 -0.2685 0.0001
vn -0.9376 -0.3477 -0.0000
vn -0.9428 -0.3333 -0.0000
vn -0.9111 -0.4121 -0.0000
vn -0.9180 -0.3965 0.0002
vn -0.8890 -0.4579 0.0001
vn -0.8806 -0.4738 -0.0000
vn -0.8464 -0.5325 -0.0000
vn -0.8559 -0.5172 0.0002
vn -0.8090 -0.5879 -0.0000
vn -0.8188 -0.5741 -0.0000
vn -0.7779 -0.6284 -0.0002
vn -0.7685 -0.6399 -0.0000
vn -0.7250 -0.6887 -0.0000
vn -0.6787 -0.7344 -0.0000
vn -0.7334 -0.6798 -0.0000
vn -0.5227 -0.8525 -0.0000
vn -0.5240 -0.8517 -0.0000
vn -0.4650 -0.8853 -0.0000
vn -0.5806 -0.8142 -0.0001
vn -0.5775 -0.8164 -0.0000
vn -0.6345 -0.7729 -0.0002
vn -0.6295 -0.7770 -0.0000
vn -0.6856 -0.7280 -0.0003
vn -0.9976 0.0690 -0.0000
vn -0.9967 0.0811 -0.0000
vn -0.9902 0.1394 -0.0000
vn -0.9868 0.1617 -0.0000
vn -0.9779 0.2091 -0.0000
vn -0.9705 0.2412 0.0001
vn -0.9607 0.2775 -0.0000
vn -0.9389 0.3443 -0.0000
vn -0.9477 0.3191 0.0002
vn -0.9187 0.3949 0.0002
vn -0.9126 0.4089 -0.0000
vn -0.8822 0.4709 -0.0000
vn -0.8837 0.4680 0.0001
vn -0.8481 0.5299 -0.0000
vn -0.8428 0.5382 0.0001
vn -0.7964 0.6048 -0.0000
vn -0.8106 0.5856 -0.0000
vn -0.7447 0.6674 -0.0000
vn -0.6796 0.7336 -0.0000
vn -0.6882 0.7255 -0.0003
vn -0.7263 0.6874 -0.0000
vn -0.7699 0.6381 -0.0000
vn -0.6302 0.7765 -0.0000
vn -0.5778 0.8161 -0.0000
vn -0.5228 0.8525 -0.0000
vn -0.5618 0.8273 -0.0001
vn -0.6270 0.7790 -0.0001
vn -0.4650 0.8853 -0.0000
vn -0.4927 0.8702 -0.0001
vn -0.4124 0.9110 -0.0000
vn -0.4208 0.9072 0.0001
vn -0.3576 0.9339 -0.0000
vn -0.3457 0.9383 -0.0001
vn -0.3008 0.9537 -0.0000
vn -0.2684 0.9633 -0.0001
vn -0.2423 0.9702 -0.0000
vn -0.1895 0.9819 -0.0001
vn -0.1825 0.9832 -0.0000
vn -0.1220 0.9925 -0.0000
vn -0.0605 0.9982 -0.0000
vn -0.1093 0.9940 -0.0002
vn -0.0283 0.9996 -0.0003
vn 0.0008 1.0000 -0.0000
vn 0.0624 0.9981 -0.0000
vn 0.0530 0.9986 -0.0000
vn 0.1337 0.9910 0.0001
vn 0.1235 0.9923 -0.0000
vn 0.2137 0.9769 -0.0002
vn 0.1836 0.9830 -0.0000
vn 0.2922 0.9564 -0.0000
vn 0.2433 0.9700 -0.0000
vn 0.3687 0.9296 -0.0002
vn 0.3014 0.9535 -0.0000
vn 0.3579 0.9337 -0.0000
vn 0.4430 0.8965 -0.0003
vn 0.4125 0.9110 -0.0000
vn 0.4649 0.8854 -0.0000
vn 0.5142 0.8577 -0.0003
vn 0.5226 0.8526 -0.0000
vn 0.5821 0.8131 -0.0002
vn 0.5775 0.8164 -0.0000
vn 0.6295 0.7770 -0.0000
vn 0.6461 0.7633 -0.0000
vn 0.7058 0.7084 -0.0001
vn 0.6787 0.7344 -0.0000
vn 0.7250 0.6887 -0.0000
vn 0.7610 0.6488 0.0001
vn 0.7685 0.6399 -0.0000
vn 0.8090 0.5878 -0.0000
vn 0.8112 0.5848 -0.0000
vn 0.8559 0.5171 0.0001
vn 0.8949 0.4462 0.0003
vn 0.8464 0.5325 -0.0000
vn 0.8806 0.4738 -0.0000
vn 0.9282 0.3720 0.0002
vn 0.9111 0.4121 -0.0000
vn 0.9376 0.3477 -0.0000
vn 0.9553 0.2955 0.0003
vn 0.9597 0.2810 -0.0000
vn 0.9905 0.1374 0.0001
vn 0.9762 0.2171 0.0004
vn 0.9771 0.2127 -0.0000
vn 0.9897 0.1430 -0.0000
vn 0.9779 -0.2091 -0.0000
vn 0.9607 -0.2775 -0.0000
vn 0.9642 -0.2651 -0.0000
vn 0.9984 0.0565 -0.0002
vn 0.9974 0.0726 -0.0000
vn 0.8822 -0.4708 -0.0000
vn 0.8481 -0.5299 -0.0000
vn 0.8719 -0.4897 -0.0002
vn 0.7262 -0.6875 -0.0000
vn 0.7280 -0.6856 -0.0000
vn 0.7813 -0.6242 -0.0000
vn 0.5228 -0.8525 -0.0000
vn 0.6073 -0.7945 -0.0001
vn 0.5778 -0.8162 -0.0000
vn 0.4713 -0.8820 -0.0018
vn 0.4125 -0.9110 -0.0000
vn 0.3981 -0.9173 0.0002
vn 0.2433 -0.9700 -0.0000
vn 0.2447 -0.9696 -0.0000
vn 0.3226 -0.9465 -0.0000
vn 0.1235 -0.9923 -0.0000
vn 0.1652 -0.9863 -0.0002
vn 0.1839 -0.9829 -0.0000
vn 0.0624 -0.9981 -0.0000
vn 0.0035 -1.0000 -0.0003
vn 0.0846 -0.9964 -0.0003
vn 0.0010 -1.0000 -0.0000
vn -0.0606 -0.9982 -0.0000
vn -0.1219 -0.9925 -0.0000
vn -0.0776 -0.9970 -0.0000
vn -0.1825 -0.9832 -0.0000
vn -0.1582 -0.9874 -0.0002
vn -0.2424 -0.9702 -0.0000
vn -0.2378 -0.9713 0.0001
vn -0.3008 -0.9537 -0.0000
vn -0.3159 -0.9488 -0.0004
vn -0.4124 -0.9110 -0.0000
vn -0.3916 -0.9201 0.0002
vn -0.3576 -0.9339 0.0005
vn 0.3014 -0.9535 -0.0000
vn 0.3579 -0.9338 -0.0000
vn 0.4649 -0.8854 -0.0000
vn 0.5413 -0.8408 0.0003
vn 0.6301 -0.7765 -0.0000
vn 0.6699 -0.7424 0.0001
vn 0.6796 -0.7336 -0.0000
vn 0.7699 -0.6382 -0.0000
vn 0.8293 -0.5588 0.0001
vn 0.8106 -0.5857 -0.0000
vn 0.9087 -0.4174 0.0001
vn 0.9126 -0.4088 -0.0000
vn 0.9396 -0.3424 0.0001
vn 0.9389 -0.3442 -0.0000
vn 0.9825 -0.1861 -0.0000
vn 0.9902 -0.1394 -0.0000
vn 0.9944 -0.1057 -0.0002
vn 0.9976 -0.0690 -0.0000
vn 0.9997 -0.0247 -0.0000
vn 1.0000 0.0020 0.0001
vn -0.0000 1.0000 -0.0000
vn -0.0000 1.0000 -0.0002
vn -0.0000 1.0000 -0.0001
vn -0.0000 -0.0000 1.0000
vn -0.0001 -0.0000 1.0000
vn 0.0001 -0.0000 1.0000
vn 0.0002 -0.0000 1.0000
vn -0.0002 -0.0000 1.0000
vn -0.0000 0.8155 -0.5788
vn -0.0001 0.8016 -0.5979
vn -0.0000 0.8131 -0.5821
vn -0.0000 0.8087 -0.5882
vn -0.0000 0.7651 -0.6439
vn -0.0000 0.7879 -0.6158
vn -0.0000 0.7593 -0.6508
vn -0.0000 0.7473 -0.6645
vn -0.0000 0.7621 -0.6475
vn -0.0000 0.7216 -0.6923
vn -0.0000 0.6915 -0.7224
vn -0.0000 0.7247 -0.6890
vn -0.0000 0.7197 -0.6943
vn -0.0000 0.6901 -0.7237
vn -0.0000 0.7355 -0.6775
vn -0.0000 0.7912 -0.6115
vn -0.0000 0.7830 -0.6221
vn -0.0000 0.7435 -0.6688
vn -0.0000 0.7465 -0.6654
vn -0.0000 0.9023 -0.4311
vn -0.0000 0.8890 -0.4578
vn -0.0000 0.9062 -0.4229
vn -0.0000 0.9001 -0.4357
vn -0.0000 0.7884 -0.6151
vn -0.0003 0.8130 -0.5822
vn -0.0000 0.7951 -0.6065
vn -0.0000 0.7839 -0.6208
vn -0.0000 0.8017 -0.5977
vn 0.0001 0.7671 -0.6416
vn -0.0000 0.7391 -0.6736
vn -0.0004 0.7695 -0.6386
vn -0.0000 0.8016 -0.5978
vn -0.0000 0.8352 -0.5500
vn -0.0000 0.8242 -0.5662
vn -0.0000 0.8188 -0.5741
vn -0.0000 0.8457 -0.5337
vn -0.0001 0.8660 -0.5001
vn -0.0000 0.8559 -0.5172
vn -0.0000 0.8351 -0.5501
vn -0.0000 0.8558 -0.5172
vn -0.0000 0.8796 -0.4757
vn -0.0000 0.8978 -0.4405
vn -0.0000 0.8934 -0.4492
vn -0.0000 0.8835 -0.4684
vn -0.0000 0.8658 -0.5004
vn -0.0000 0.8508 -0.5255
vn -0.0000 0.8753 -0.4835
vn -0.0002 0.8560 -0.5170
vn -0.0001 0.8657 -0.5006
vn -0.0000 0.8658 -0.5005
vn -0.0000 0.8422 -0.5392
vn -0.0000 0.8094 -0.5873
vn -0.0000 0.7899 -0.6133
vn -0.0000 0.7654 -0.6435
vn -0.0000 0.8860 -0.4636
vn -0.0000 0.8800 -0.4750
vn -0.0000 0.8869 -0.4620
vn -0.0001 0.8936 -0.4488
vn -0.0000 0.9168 -0.3994
vn -0.0000 0.8997 -0.4366
vn -0.0000 0.9181 -0.3964
vn -0.0000 0.9194 -0.3934
vn -0.0000 0.7064 -0.7078
vn -0.0000 0.6640 -0.7477
vn -0.0001 0.7381 -0.6747
vn -0.0000 0.7023 -0.7119
vn -0.0000 0.7039 -0.7103
vn -0.0000 0.6823 -0.7310
vn -0.0000 0.6798 -0.7334
vn -0.0000 0.7655 -0.6434
vn -0.0000 0.6851 -0.7284
vn -0.0000 0.7354 -0.6776
vn -0.0000 0.7268 -0.6869
vn -0.0000 0.7464 -0.6655
vn -0.0000 0.6688 -0.7434
vn -0.0000 0.6730 -0.7396
vn -0.0000 0.7065 -0.7077
vn -0.0000 0.6855 -0.7281
vn -0.0000 0.8935 -0.4491
vn -0.0000 0.8754 -0.4835
vn -0.0000 0.8351 -0.5500
vn -0.0000 0.7592 -0.6508
vn -0.0000 0.7839 -0.6209
vn -0.0000 0.6689 -0.7434
vn -0.0000 0.6687 -0.7435
vn -0.0000 0.6640 -0.7478
vn -0.0000 0.6767 -0.7362
vn -0.0000 0.7267 -0.6869
vn -0.0000 0.6823 -0.7311
vn -0.0001 0.7023 -0.7119
vn -0.0000 0.6841 -0.7294
vn -0.0000 0.7464 -0.6654
vn -0.0000 0.7671 -0.6416
vn -0.0000 0.6840 -0.7295
vn -0.0000 0.6822 -0.7311
vn -0.0000 0.6688 -0.7435
vn -0.0000 0.6768 -0.7362
vn -0.0000 0.9293 -0.3694
vn -0.0000 0.9061 -0.4230
vn -0.0000 0.8797 -0.4756
vn -0.0000 0.6840 -0.7294
vn -0.0000 0.6395 -0.7688
vn -0.0000 0.6124 -0.7906
vn -0.0000 0.6639 -0.7478
vn -0.0000 0.6393 -0.7689
vn -0.0000 0.6123 -0.7906
vn -0.0000 0.5935 -0.8048
vn -0.0000 0.5827 -0.8127
vn -0.0000 0.5936 -0.8048
vn -0.0000 0.5935 -0.8049
vn -0.0000 0.5506 -0.8348
vn -0.0000 0.5160 -0.8566
vn -0.0000 0.5181 -0.8553
vn -0.0000 0.4789 -0.8779
vn -0.0000 0.4395 -0.8983
vn -0.0000 0.5182 -0.8553
vn -0.0000 0.4394 -0.8983
vn -0.0000 0.3974 -0.9176
vn -0.0000 0.4384 -0.8988
vn -0.0000 0.3530 -0.9356
vn -0.0000 0.3065 -0.9519
vn -0.0000 0.3551 -0.9348
vn -0.0000 0.2581 -0.9661
vn -0.0000 0.2690 -0.9631
vn -0.0000 0.2688 -0.9632
vn -0.0000 0.2080 -0.9781
vn -0.0000 0.1805 -0.9836
vn -0.0000 0.1568 -0.9876
vn -0.0000 0.0907 -0.9959
vn -0.0000 0.1045 -0.9945
vn -0.0000 -0.0000 -1.0000
vn -0.0000 0.0906 -0.9959
vn -0.0000 0.0517 -0.9987
vn -0.0000 -0.0544 -0.9985
vn -0.0000 -0.0014 -1.0000
vn -0.0000 -0.2606 -0.9654
vn -0.0000 -0.3089 -0.9511
vn -0.0000 -0.2691 -0.9631
vn -0.0000 -0.6640 -0.7477
vn -0.0000 -0.6395 -0.7688
vn -0.0000 -0.6126 -0.7904
vn -0.0000 -0.5935 -0.8048
vn -0.0000 -0.5831 -0.8124
vn -0.0000 -0.5513 -0.8343
vn -0.0000 -0.5832 -0.8124
vn -0.0000 -0.5171 -0.8560
vn -0.0000 -0.5181 -0.8553
vn -0.0000 -0.5170 -0.8560
vn -0.0000 -0.5935 -0.8049
vn -0.0000 -0.4803 -0.8771
vn -0.0000 -0.4411 -0.8974
vn -0.0000 -0.4804 -0.8771
vn -0.0000 -0.4385 -0.8987
vn -0.0000 -0.4411 -0.8975
vn -0.0000 -0.4384 -0.8988
vn -0.0000 -0.3994 -0.9168
vn -0.0000 -0.3551 -0.9348
vn -0.0000 -0.3553 -0.9347
vn -0.0000 -0.3552 -0.9348
vn -0.0000 -0.3090 -0.9511
vn -0.0000 -0.2106 -0.9776
vn -0.0000 -0.2606 -0.9655
vn -0.0000 -0.2689 -0.9632
vn -0.0000 -0.1805 -0.9836
vn -0.0000 -0.2688 -0.9632
vn -0.0000 -0.1073 -0.9942
vn -0.0000 -0.0907 -0.9959
vn -0.0000 -0.1595 -0.9872
vn -0.0000 -0.1806 -0.9836
vn -0.0000 -0.0545 -0.9985
vn -0.0000 -0.1072 -0.9942
vn -0.0000 -0.0906 -0.9959
vn -0.0000 0.1567 -0.9876
vn -0.0000 0.2081 -0.9781
vn -0.0000 0.3531 -0.9356
vn -0.0000 0.3552 -0.9348
vn -0.0000 0.3974 -0.9177
vn -0.0000 -0.1594 -0.9872
vn -0.0000 0.3214 -0.9469
vn -0.0000 0.3856 -0.9227
vn -0.0000 0.3445 -0.9388
vn -0.0000 0.3058 -0.9521
vn -0.0000 0.3615 -0.9324
vn -0.0000 0.4277 -0.9039
vn -0.0001 0.3848 -0.9230
vn -0.0000 0.3305 -0.9438
vn -0.0000 0.3911 -0.9203
vn -0.0000 0.2743 -0.9616
vn -0.0000 0.3288 -0.9444
vn -0.0001 0.4021 -0.9156
vn -0.0000 0.3201 -0.9474
vn -0.0000 0.4667 -0.8844
vn -0.0000 0.1241 -0.9923
vn -0.0000 0.0524 -0.9986
vn -0.0000 0.1532 -0.9882
vn -0.0000 0.1656 -0.9862
vn -0.0000 -0.3053 -0.9523
vn -0.0000 -0.3725 -0.9280
vn -0.0000 -0.3138 -0.9495
vn -0.0000 -0.2802 -0.9599
vn -0.0000 -0.4394 -0.8983
vn -0.0000 -0.5168 -0.8561
vn -0.0000 -0.4775 -0.8786
vn -0.0000 -0.4170 -0.9089
vn -0.0000 -0.4943 -0.8693
vn -0.0000 -0.5766 -0.8170
vn -0.0000 -0.5735 -0.8192
vn -0.0000 -0.2966 -0.9550
vn -0.0000 -0.2312 -0.9729
vn -0.0000 -0.2661 -0.9639
vn -0.0000 -0.3900 -0.9208
vn -0.0000 -0.3065 -0.9519
vn -0.0000 -0.4541 -0.8910
vn -0.0000 -0.3974 -0.9176
vn -0.0000 -0.3613 -0.9324
vn -0.0000 -0.4471 -0.8945
vn -0.0000 0.2592 -0.9658
vn -0.0000 0.2106 -0.9776
vn -0.0000 0.2606 -0.9655
vn -0.0000 0.2207 -0.9753
vn -0.0000 0.2958 -0.9552
vn -0.0000 0.2250 -0.9744
vn -0.0000 0.3248 -0.9458
vn -0.0000 0.3367 -0.9416
vn -0.0000 0.2689 -0.9632
vn -0.0000 0.1657 -0.9862
vn -0.0000 0.2515 -0.9679
vn -0.0000 -0.5803 -0.8144
vn -0.0000 -0.5171 -0.8559
vn -0.0000 -0.5247 -0.8513
vn -0.0000 -0.6347 -0.7727
vn -0.0000 -0.6357 -0.7719
vn -0.0000 -0.6175 -0.7866
vn -0.0000 -0.5999 -0.8001
vn -0.0000 -0.5495 -0.8355
vn -0.0000 -0.3709 -0.9287
vn -0.0000 -0.3817 -0.9243
vn -0.0000 -0.4681 -0.8837
vn -0.0000 -0.4123 -0.9110
vn -0.0000 -0.4682 -0.8836
vn -0.0000 -0.3278 -0.9447
vn -0.0000 -0.2543 -0.9671
vn -0.0000 -0.2690 -0.9631
vn -0.0000 -0.1375 -0.9905
vn -0.0000 -0.1172 -0.9931
vn -0.0000 -0.1871 -0.9823
vn 0.0001 -0.1304 -0.9915
vn -0.0000 -0.2595 -0.9657
vn -0.0000 -0.1870 -0.9824
vn -0.0000 -0.1703 -0.9854
vn -0.0000 -0.2618 -0.9651
vn -0.0000 -0.2974 -0.9548
vn -0.0000 -0.2616 -0.9652
vn -0.0000 -0.3379 -0.9412
vn -0.0000 -0.2582 -0.9661
vn -0.0000 -0.1701 -0.9854
vn -0.0000 -0.0992 -0.9951
vn -0.0000 0.4827 -0.8758
vn -0.0000 0.5463 -0.8376
vn -0.0000 0.4717 -0.8818
vn -0.0000 0.4857 -0.8741
vn -0.0000 -0.5860 -0.8103
vn 0.0002 -0.1546 -0.9880
vn -0.0001 -0.0741 -0.9973
vn -0.0000 -0.1204 -0.9927
vn -0.0000 -0.1543 -0.9880
vn -0.0000 -0.1567 -0.9876
vn -0.0000 -0.1046 -0.9945
vn -0.0000 0.0031 -1.0000
vn -0.0000 -0.0239 -0.9997
vn -0.0000 -0.0740 -0.9973
vn -0.0000 -0.1045 -0.9945
vn -0.0000 -0.0517 -0.9987
vn -0.0000 0.1535 -0.9881
vn -0.0000 0.0797 -0.9968
vn -0.0000 0.1072 -0.9942
vn -0.0000 0.1284 -0.9917
vn -0.0000 0.0014 -1.0000
vn -0.0000 0.0451 -0.9990
vn -0.0000 0.0043 -1.0000
vn -0.0000 0.0845 -0.9964
vn -0.0000 0.0044 -1.0000
vn 0.0001 0.0037 -1.0000
vn -0.0000 0.1084 -0.9941
vn -0.0000 -0.0752 -0.9972
vn -0.0000 0.1403 -0.9901
vn -0.0000 0.0992 -0.9951
vn -0.0000 -0.1427 -0.9898
vn -0.0000 -0.0519 -0.9987
vn -0.0000 -0.1947 -0.9809
vn -0.0001 -0.2115 -0.9774
vn -0.0000 -0.5089 -0.8608
vn -0.0000 -0.5559 -0.8313
vn -0.0000 -0.6394 -0.7688
vn -0.0000 -0.4624 -0.8867
vn -0.0000 -0.2036 -0.9791
vn -0.0000 0.6148 -0.7887
vn -0.0000 0.6304 -0.7763
vn -0.0000 0.5597 -0.8287
vn -0.0000 0.5836 -0.8121
vn -0.0000 0.5934 -0.8049
vn -0.0000 0.4835 -0.8754
vn -0.0000 0.4411 -0.8975
vn -0.0000 0.5221 -0.8529
vn -0.0000 0.4398 -0.8981
vn -0.0000 0.5387 -0.8425
vn -0.0000 0.6103 -0.7922
vn -0.0000 0.4803 -0.8771
vn -0.0000 0.5170 -0.8560
vn -0.0000 0.2715 -0.9624
vn -0.0000 0.2752 -0.9614
vn -0.0000 0.0033 -1.0000
vn -0.0000 0.2459 -0.9693
vn -0.0000 0.4084 -0.9128
vn -0.0000 0.4880 -0.8728
vn -0.0000 0.3192 -0.9477
vn -0.0000 0.2090 -0.9779
vn -0.0000 -0.4789 -0.8779
vn -0.0000 -0.5559 -0.8312
vn 0.0001 -0.5827 -0.8127
vn -0.0000 -0.5506 -0.8348
vn -0.0000 -0.5558 -0.8313
vn -0.0000 -0.6123 -0.7906
vn -0.0000 -0.5827 -0.8127
vn -0.0000 -0.5861 -0.8103
vn -0.0000 0.0544 -0.9985
vn -0.0000 0.2107 -0.9776
vn -0.0000 0.1535 -0.9882
vn -0.0000 0.1594 -0.9872
vn -0.0000 0.1073 -0.9942
vn -0.0000 0.0545 -0.9985
vn -0.0000 -0.1426 -0.9898
vn -0.0000 0.3994 -0.9168
vn -0.0000 0.3553 -0.9348
vn -0.0000 0.3089 -0.9511
vn -0.0000 0.4717 -0.8817
vn -0.0000 0.5513 -0.8343
vn -0.0000 -0.6124 -0.7906
vn -0.0000 -0.6394 -0.7689
vn -0.0000 -0.4383 -0.8988
vn -0.0000 -0.3531 -0.9356
vn -0.0000 -0.2081 -0.9781
vn -0.0000 0.1536 -0.9881
vn -0.0000 0.3057 -0.9521
vn -0.0000 0.6126 -0.7904
vn -0.0000 0.5832 -0.8123
vn -0.0000 0.6125 -0.7905
vn -0.0000 0.5831 -0.8124
vn -0.0001 0.5387 -0.8425
vn -0.0000 0.0525 -0.9986
vn -0.0000 0.2593 -0.9658
vn -0.0000 0.2606 -0.9654
vn -0.0000 0.3090 -0.9511
vn -0.0000 -0.5182 -0.8553
vn -0.0000 -0.1567 -0.9877
vn -0.0000 -0.2080 -0.9781
vn -0.0000 -0.2581 -0.9661
vn -0.0000 -0.3530 -0.9356
vn -0.0000 -0.5506 -0.8347
vn -0.0000 -0.5160 -0.8566
vn -0.0000 -0.4541 -0.8909
vn -0.0000 -0.4789 -0.8778
vn -0.0000 -0.6639 -0.7478
vn -0.0000 0.0013 -1.0000
vn -0.0000 0.4383 -0.8988
vn -0.0000 0.3848 -0.9230
vn -0.0000 -0.7843 -0.6204
vn -0.0000 -0.7626 -0.6469
vn -0.0000 -0.7655 -0.6434
vn -0.0000 -0.7887 -0.6148
vn -0.0000 -0.6774 -0.7356
vn -0.0000 -0.7036 -0.7106
vn -0.0000 -0.6730 -0.7396
vn -0.0000 -0.7033 -0.7109
vn -0.0000 -0.9024 -0.4310
vn -0.0000 -0.8890 -0.4578
vn -0.0000 -0.9001 -0.4356
vn -0.0000 -0.9168 -0.3993
vn -0.0000 -0.9062 -0.4229
vn -0.0000 -0.7841 -0.6207
vn -0.0000 -0.8017 -0.5978
vn -0.0000 -0.7876 -0.6162
vn -0.0002 -0.8457 -0.5337
vn -0.0001 -0.8660 -0.5001
vn -0.0000 -0.8558 -0.5172
vn -0.0000 -0.8351 -0.5500
vn -0.0000 -0.8559 -0.5172
vn -0.0000 -0.8796 -0.4756
vn -0.0000 -0.8978 -0.4405
vn -0.0000 -0.8835 -0.4684
vn -0.0000 -0.8800 -0.4750
vn -0.0000 -0.8352 -0.5500
vn -0.0000 -0.8753 -0.4835
vn 0.0001 -0.8558 -0.5174
vn -0.0001 -0.8657 -0.5006
vn -0.0000 -0.8658 -0.5004
vn 0.0001 -0.8352 -0.5500
vn -0.0000 -0.8508 -0.5255
vn -0.0001 -0.8243 -0.5661
vn -0.0000 -0.8087 -0.5883
vn -0.0001 -0.8351 -0.5500
vn -0.0000 -0.8131 -0.5821
vn -0.0000 -0.8351 -0.5501
vn -0.0000 -0.8658 -0.5005
vn -0.0000 -0.8422 -0.5392
vn -0.0000 -0.8243 -0.5662
vn -0.0000 -0.8016 -0.5978
vn -0.0000 -0.8094 -0.5873
vn -0.0000 -0.8089 -0.5879
vn -0.0000 -0.8017 -0.5977
vn -0.0000 -0.7899 -0.6133
vn -0.0000 -0.7654 -0.6435
vn -0.0000 -0.7705 -0.6374
vn -0.0000 -0.8860 -0.4636
vn -0.0000 -0.8869 -0.4620
vn -0.0001 -0.8936 -0.4489
vn -0.0000 -0.7610 -0.6487
vn -0.0000 -0.7583 -0.6519
vn -0.0001 -0.7360 -0.6770
vn -0.0000 -0.7175 -0.6966
vn -0.0000 -0.7359 -0.6771
vn -0.0000 -0.7269 -0.6868
vn -0.0000 -0.7267 -0.6869
vn -0.0000 -0.7464 -0.6654
vn -0.0000 -0.8008 -0.5990
vn -0.0000 -0.8188 -0.5741
vn -0.0000 -0.8997 -0.4366
vn -0.0000 -0.9181 -0.3964
vn -0.0000 -0.6991 -0.7150
vn -0.0000 -0.6798 -0.7334
vn -0.0000 -0.6822 -0.7312
vn -0.0000 -0.7340 -0.6791
vn -0.0000 -0.7065 -0.7077
vn -0.0000 -0.7613 -0.6484
vn -0.0000 -0.7465 -0.6654
vn -0.0000 -0.7131 -0.7011
vn -0.0000 -0.7471 -0.6647
vn -0.0000 -0.7885 -0.6150
vn -0.0000 -0.7886 -0.6150
vn -0.0000 -0.7839 -0.6208
vn -0.0000 -0.6952 -0.7188
vn -0.0000 -0.7367 -0.6762
vn -0.0000 -0.9061 -0.4230
vn -0.0000 -0.8934 -0.4492
vn -0.0000 -0.9194 -0.3934
vn -0.0000 -0.9292 -0.3695
vn -0.0000 -0.9168 -0.3994
vn -0.0000 -0.7840 -0.6207
vn -0.0000 -0.7065 -0.7078
vn -0.0000 -0.6855 -0.7281
vn -0.0000 -0.7131 -0.7010
vn -0.0000 -0.6851 -0.7284
vn -0.0000 -0.6840 -0.7295
vn -0.0000 -0.6855 -0.7280
vn -0.0000 -0.6822 -0.7311
vn -0.0000 -0.6640 -0.7478
vn -0.0000 -0.6687 -0.7435
vn -0.0000 -0.6731 -0.7396
vn 0.0001 -0.6855 -0.7280
vn -0.0000 -0.6689 -0.7434
vn -0.0000 -0.6767 -0.7362
vn -0.0000 -0.7064 -0.7078
vn -0.0000 -0.7464 -0.6655
vn -0.0000 -0.7341 -0.6791
vn -0.0000 -0.8090 -0.5879
vn -0.0000 -0.8754 -0.4835
vn -0.0000 -0.8935 -0.4491
vn -0.0000 -0.8008 -0.5989
vn -0.0001 -0.6798 -0.7334
vn -0.0001 -0.7131 -0.7011
vn -0.0000 -0.6823 -0.7311
vn -0.0000 -0.7839 -0.6209
vn -0.0000 -0.6774 -0.7357
vn -0.0000 -0.6688 -0.7435
vn -0.0000 -0.6688 -0.7434
vn 0.0001 -0.6774 -0.7356
vn -0.0000 -0.7035 -0.7107
vn -0.0000 -0.8559 -0.5171
s 1
usemtl Diffuse_51_51_51_100.020
f 1//1 2//1 3//1
f 1//1 3//1 4//1
f 1//1 4//1 5//1
f 1//1 5//1 6//2
f 7//1 1//1 8//3
f 1//1 6//2 8//3
f 9//1 1//1 7//1
f 10//1 1//1 9//1
f 10//1 11//1 1//1
f 11//1 12//1 1//1
f 12//1 13//1 1//1
f 13//1 14//3 1//1
f 14//3 15//1 1//1
s 0
f 1//1 16//1 17//1
s 1
f 18//1 2//1 1//1
f 19//1 2//1 18//1
f 19//1 18//1 20//1
f 19//1 20//1 21//1
f 20//1 22//1 21//1
f 22//1 23//1 21//1
f 24//1 23//1 22//1
f 25//1 23//1 24//1
f 25//1 24//1 26//1
f 25//1 26//1 27//1
f 26//1 28//1 27//1
f 28//1 29//1 27//1
f 30//1 29//1 28//1
f 31//1 29//1 30//1
f 32//1 31//1 33//1
f 31//1 30//1 33//1
f 32//1 33//1 34//1
f 35//1 36//1 37//1
f 36//1 38//1 37//1
f 39//1 40//1 41//4
f 40//1 42//1 41//4
f 42//1 43//5 41//4
f 43//5 44//6 41//4
f 45//1 44//6 46//6
f 47//6 44//6 45//1
f 43//5 46//6 44//6
f 48//1 46//6 43//5
f 49//1 46//6 48//1
f 50//1 49//1 48//1
f 47//6 51//1 44//6
f 49//1 50//1 35//1
f 50//1 36//1 35//1
f 38//1 32//1 34//1
f 38//1 34//1 37//1
s 0
f 16//1 1//1 15//6
s 1
f 52//7 53//8 54//8
f 52//7 54//8 55//8
f 52//7 55//8 56//9
f 52//7 56//9 57//7
f 58//8 59//8 57//7
f 60//8 61//8 59//8
f 62//8 61//8 60//8
f 63//8 64//8 62//8
f 65//8 64//8 63//8
f 66//8 65//8 67//8
f 66//8 67//8 68//8
f 69//8 68//8 70//8
f 71//8 70//8 72//8
f 71//8 72//8 73//8
f 74//8 75//8 76//8
f 77//8 74//8 78//8
f 77//8 78//8 79//8
f 80//8 81//8 82//8
f 81//8 79//8 82//8
f 83//8 82//8 84//9
s 0
f 82//10 85//11 86//7
f 82//8 86//8 87//8
s 1
f 88//8 82//8 89//8
f 88//8 90//8 82//8
f 90//8 91//8 82//8
f 82//8 92//8 93//12
f 82//8 93//12 94//8
f 82//8 94//8 95//8
f 82//8 95//8 96//8
f 84//9 82//8 97//8
f 82//8 96//8 97//8
f 91//8 92//8 82//8
f 89//8 82//8 87//8
f 83//8 80//8 82//8
f 79//8 81//8 77//8
f 76//8 78//8 74//8
f 98//8 76//8 75//8
f 98//8 75//8 73//8
f 98//8 73//8 72//8
f 70//8 71//8 69//8
f 68//8 69//8 66//8
f 63//8 67//8 65//8
f 60//8 59//8 58//8
f 61//8 62//8 64//8
f 99//12 57//7 100//8
f 101//8 99//12 102//8
f 58//8 57//7 56//9
f 57//7 99//12 52//7
f 100//8 102//8 99//12
f 103//13 104//13 105//13
f 106//13 107//13 108//13
f 109//14 110//13 111//14
f 105//15 112//13 109//14
f 111//13 113//13 114//13
f 115//16 116//17 117//1
f 118//18 119//19 115//16
f 120//20 118//18 121//21
f 120//20 121//21 122//22
f 123//23 122//22 124//24
f 123//23 124//24 125//25
f 125//25 126//26 127//27
f 126//26 128//28 127//27
f 128//28 129//29 130//30
f 129//29 131//31 130//30
f 132//32 133//33 131//31
f 134//34 133//33 132//32
f 135//35 136//36 134//34
f 137//37 136//36 135//35
f 138//38 137//37 139//39
f 140//40 141//41 142//42
f 141//41 143//42 142//42
f 144//43 141//41 140//40
f 144//43 140//40 145//44
f 144//43 145//44 146//45
f 146//45 145//44 147//46
f 146//45 147//46 148//47
f 147//46 138//38 148//47
f 138//38 139//39 148//47
f 137//37 135//35 139//39
f 136//36 133//33 134//34
f 132//32 131//31 129//29
f 128//28 130//30 127//27
f 123//23 120//20 122//22
f 124//24 126//26 125//25
f 116//17 115//16 119//19
f 149//48 117//1 116//17
f 150//49 117//1 149//48
f 151//50 150//49 149//48
f 152//51 150//49 151//50
f 152//51 153//52 154//53
f 153//52 155//54 154//53
f 156//55 157//56 155//54
f 158//57 156//55 159//58
f 158//57 160//59 161//60
f 162//61 163//62 161//60
f 164//63 163//62 165//64
f 166//65 167//66 168//67
f 169//68 166//65 170//69
f 167//66 171//70 168//67
f 172//71 173//72 174//73
f 172//71 174//73 175//74
f 173//72 176//75 177//76
f 176//75 178//77 177//76
f 178//77 179//78 177//76
f 180//79 181//80 179//78
f 181//80 180//79 182//81
f 181//80 182//81 183//82
f 183//82 184//83 185//84
f 184//83 186//85 185//84
f 186//85 187//86 185//84
f 187//86 188//87 189//88
f 188//87 190//89 189//88
f 191//90 190//89 188//87
f 192//91 193//92 191//90
f 194//93 193//92 192//91
f 194//93 192//91 195//94
f 166//65 164//63 170//69
f 196//95 194//93 197//96
f 165//64 163//62 162//61
f 198//97 196//95 199//98
f 196//95 197//96 199//98
f 200//99 198//97 201//100
f 161//60 160//59 162//61
f 200//99 201//100 202//101
f 160//59 158//57 159//58
f 203//102 200//99 204//103
f 156//55 158//57 157//56
f 203//102 204//103 205//104
f 154//53 155//54 157//56
f 203//102 205//104 206//105
f 153//52 152//51 151//50
f 175//74 168//67 171//70
f 207//106 208//107 206//105
f 207//106 209//108 208//107
f 209//108 210//109 211//110
f 210//109 212//111 211//110
f 213//112 212//111 210//109
f 214//113 215//114 212//111
f 216//115 215//114 214//113
f 217//116 218//117 216//115
f 219//118 218//117 217//116
f 220//119 219//118 221//120
f 220//119 221//120 222//121
f 223//122 220//119 224//123
f 223//122 224//123 225//124
f 226//125 225//124 227//126
f 228//127 229//128 230//129
f 228//127 230//129 231//130
f 232//131 233//132 234//133
f 235//134 228//127 236//135
f 237//136 238//137 239//138
f 240//139 241//140 242//141
f 243//142 244//143 245//144
f 246//145 247//146 248//147
f 249//148 250//149 251//150
f 252//151 253//152 254//153
f 255//154 256//155 257//156
f 258//157 259//158 256//155
f 259//158 260//159 261//160
f 260//159 262//161 263//162
f 262//161 264//163 265//164
f 264//163 266//165 267//166
f 198//97 199//98 201//100
f 197//96 194//93 195//94
f 143//42 268//167 142//42
f 269//168 268//167 143//42
f 270//169 268//167 269//168
f 270//169 269//168 267//166
f 264//163 267//166 265//164
f 262//161 265//164 263//162
f 260//159 263//162 261//160
f 259//158 261//160 256//155
f 258//157 256//155 255//154
f 255//154 257//156 252//151
f 257//156 253//152 252//151
f 253//152 250//149 254//153
f 250//149 249//148 254//153
f 251//150 271//170 249//148
f 272//171 271//170 251//150
f 272//171 251//150 248//147
f 272//171 248//147 247//146
f 247//146 246//145 273//172
f 246//145 274//173 273//172
f 274//173 243//142 273//172
f 244//143 243//142 274//173
f 275//174 245//144 244//143
f 275//174 244//143 276//175
f 275//174 276//175 277//176
f 276//175 241//140 277//176
f 241//140 240//139 277//176
f 242//141 278//177 240//139
f 279//178 278//177 242//141
f 280//179 278//177 279//178
f 280//179 279//178 238//137
f 279//178 239//138 238//137
f 239//138 281//180 237//136
f 281//180 282//181 237//136
f 283//182 282//181 281//180
f 284//183 282//181 283//182
f 284//183 283//182 234//133
f 284//183 234//133 233//132
f 234//133 285//184 232//131
f 285//184 286//185 232//131
f 287//186 286//185 285//184
f 288//187 286//185 287//186
f 288//187 287//186 289//188
f 288//187 289//188 290//189
f 289//188 235//134 290//189
f 235//134 236//135 290//189
f 226//125 227//126 229//128
f 231//130 236//135 228//127
f 227//126 230//129 229//128
f 223//122 225//124 226//125
f 220//119 222//121 224//123
f 219//118 217//116 221//120
f 218//117 215//114 216//115
f 214//113 212//111 213//112
f 209//108 211//110 208//107
f 205//104 207//106 206//105
f 200//99 202//101 204//103
f 270//169 267//166 266//165
f 190//89 191//90 193//92
f 189//88 185//84 187//86
f 184//83 183//82 182//81
f 178//77 180//79 179//78
f 174//73 173//72 177//76
f 175//74 171//70 172//71
f 167//66 166//65 169//68
f 121//21 118//18 115//16
f 165//64 170//69 164//63
f 291//190 292//190 293//190
f 294//190 295//190 296//190
f 297//191 298//190 299//190
f 300//190 297//190 301//190
f 298//190 291//192 302//190
f 303//193 304//193 305//193
f 306//193 307//193 308//193
f 309//193 310//193 311//193
f 312//193 313//193 314//193
f 315//193 316//193 317//193
f 318//193 319//193 320//193
f 321//193 322//193 323//193
f 324//193 325//193 326//193
f 327//193 328//193 329//193
f 330//193 331//193 332//193
f 333//194 334//194 335//194
f 336//193 337//193 338//193
f 339//193 340//193 341//193
f 342//193 343//193 344//193
f 345//195 346//195 347//195
f 348//193 349//193 350//193
f 351//193 352//193 353//193
f 354//195 355//195 356//195
f 357//193 358//193 359//193
f 360//193 361//193 362//193
f 363//194 364//194 365//194
f 366//193 367//193 368//193
f 369//196 370//196 371//196
f 372//193 373//193 374//193
f 375//197 376//197 377//197
f 378//193 379//193 380//193
f 381//197 382//197 383//197
f 384//193 385//193 386//193
f 387//193 388//193 389//193
f 390//193 391//193 392//193
f 393//193 394//193 395//193
f 396//193 397//193 398//193
f 399//193 400//193 401//193
f 402//193 403//193 404//193
f 405//193 406//193 407//193
f 408//193 409//193 410//193
f 411//193 412//193 413//193
f 414//193 415//193 416//193
f 417//193 418//193 419//193
f 420//193 421//193 422//193
f 423//193 424//193 425//193
f 426//193 427//193 428//193
f 429//193 430//193 431//193
f 432//193 433//193 434//193
f 435//193 436//193 437//193
f 438//193 439//193 440//193
f 441//193 442//193 443//193
f 444//193 445//193 446//193
f 447//193 448//193 449//193
f 450//193 451//193 452//193
f 453//193 454//193 455//193
f 456//193 457//193 458//193
f 459//193 460//193 461//193
f 462//193 463//193 464//193
f 465//193 466//193 467//193
f 468//193 469//193 470//193
f 471//193 472//193 473//193
f 474//195 475//195 476//195
f 477//194 478//194 479//194
f 480//193 481//193 482//193
f 483//193 484//193 485//193
f 486//194 487//194 488//194
f 489//193 490//193 491//193
f 492//193 493//193 494//193
f 495//193 496//193 497//193
f 498//194 499//194 500//194
f 501//193 502//193 503//193
f 504//193 505//193 506//193
f 507//193 508//193 509//193
f 510//193 511//193 512//193
f 513//193 514//193 515//193
f 516//193 517//193 518//193
f 519//193 520//193 521//193
f 522//193 523//193 524//193
f 525//193 526//193 527//193
f 528//193 529//193 530//193
f 531//193 532//193 533//193
f 534//193 535//193 536//193
f 537//193 538//193 539//193
f 540//193 541//193 542//193
f 543//193 544//193 545//193
f 546//193 547//193 548//193
f 549//193 550//193 551//193
f 552//193 553//193 554//193
f 555//198 556//199 557//200
f 555//198 558//201 556//199
f 559//202 560//203 561//204
f 559//202 562//205 563//206
f 564//207 565//208 566//209
f 564//207 562//205 567//210
f 564//207 567//210 568//211
f 562//205 561//204 569//212
f 570//213 563//206 571//214
f 570//213 558//201 560//203
f 570//213 571//214 556//199
f 563//206 572//215 571//214
f 569//212 561//204 573//216
f 569//212 567//210 562//205
f 574//217 575//218 576//219
f 574//217 577//220 575//218
f 578//221 579//222 580//223
f 578//221 581//224 582//225
f 583//226 584//227 585//216
f 583//226 580//223 586//228
f 580//223 587//229 586//228
f 580//223 579//222 587//229
f 579//222 588//230 589//231
f 579//200 590//225 591//232
f 592//233 593//234 594//235
f 592//233 595//236 596//237
f 597//238 598//239 599//240
f 597//238 600//241 598//239
f 594//235 601//236 592//233
f 594//235 602//242 603//243
f 604//244 605//245 606//242
f 604//244 575//218 607//246
f 605//245 588//230 608//230
f 605//245 607//246 588//230
f 592//233 596//237 593//234
f 595//236 557//200 609//236
f 596//237 610//247 593//234
f 596//237 609//236 611//248
f 611//248 589//231 588//230
f 611//248 609//236 589//231
f 589//231 587//229 579//222
f 589//231 609//236 612//249
f 557//200 613//225 612//249
f 557//200 556//199 613//225
f 612//249 609//236 557//200
f 612//249 614//250 587//229
f 614//250 615//251 586//228
f 614//250 613//225 571//214
f 600//241 593//234 616//252
f 594//235 597//238 617//253
f 618//254 577//220 619//255
f 618//254 607//246 575//218
f 577//220 574//217 620//256
f 618//254 619//255 610//247
f 621//257 622//258 623//259
f 621//257 619//255 622//258
f 616//252 593//234 610//247
f 616//252 598//239 600//241
f 568//211 567//210 624//260
f 568//211 625//261 565//208
f 558//201 601//236 626//232
f 601//236 555//198 595//236
f 559//202 561//204 562//205
f 560//203 627//225 628//224
f 562//205 564//207 563//206
f 566//209 629//262 572//215
f 291//192 620//256 630//258
f 291//192 298//190 620//256
f 620//256 574//217 631//219
f 620//256 298//190 622//258
f 604//244 607//246 605//245
f 575//218 577//220 618//254
f 297//191 623//259 298//190
f 623//259 598//239 621//257
f 623//259 297//191 632//258
f 633//263 584//227 634//264
f 633//263 635//265 636//266
f 629//262 615//251 572//215
f 629//262 634//264 584//227
f 586//228 587//229 614//250
f 637//224 578//221 638//267
f 633//263 634//264 639//268
f 584//227 586//228 629//262
f 640//260 569//269 641//270
f 572//215 564//207 566//209
f 571//214 572//215 615//251
f 570//213 556//199 558//201
f 568//211 565//208 564//207
f 625//261 642//261 565//208
f 563//206 564//207 572//215
f 565//208 643//261 634//264
f 571//214 615//251 614//250
f 566//209 565//208 634//264
f 621//257 616//252 619//255
f 598//239 644//219 645//240
f 577//220 622//258 619//255
f 620//256 622//258 577//220
f 610//247 619//255 616//252
f 610//247 596//237 611//248
f 584//227 583//226 586//228
f 611//248 607//246 610//247
f 588//230 607//246 611//248
f 607//246 618//254 610//247
f 597//238 593//234 600//241
f 595//236 555//198 557//200
f 598//239 616//252 621//257
f 592//233 601//236 595//236
f 595//236 609//236 596//237
f 589//231 612//249 587//229
f 586//228 615//251 629//262
f 614//250 612//249 613//225
f 569//269 646//271 647//270
f 560//203 559//202 570//213
f 601//236 558//201 555//198
f 556//199 571//214 613//225
f 634//264 648//272 649//273
f 650//274 651//275 568//211
f 652//253 653//276 604//277
f 623//259 622//258 298//190
f 654//232 655//278 579//200
f 656//278 601//236 594//235
f 657//268 633//263 658//275
f 659//267 561//279 660//280
f 661//281 662//275 663//273
f 664//282 665//283 666//275
f 667//273 668//275 669//284
f 670//284 671//275 672//274
f 633//263 673//284 674//260
f 633//263 675//266 676//284
f 677//260 678//285 633//263
f 679//286 633//287 680//288
f 681//289 682//267 583//290
f 683//225 579//222 578//221
f 583//226 578//221 580//223
f 684//216 561//279 685//267
f 588//230 579//222 686//230
f 563//206 570//213 559//202
f 687//268 634//264 688//291
f 689//291 634//264 690//286
f 691//275 692//261 568//211
f 693//266 694//292 634//264
f 695//285 696//216 584//227
f 629//262 566//209 634//264
f 634//264 697//261 698//293
f 699//273 700//284 634//264
f 568//211 701//261 625//261
f 702//266 634//264 703//294
f 704//260 567//210 569//212
f 705//275 633//263 706//268
f 707//243 708//242 605//235
f 558//201 709//232 560//203
f 710//230 711//243 605//235
f 712//225 560//203 713//232
f 604//244 714//242 715//253
f 716//230 594//235 717//243
f 718//258 719//219 623//259
f 720//295 721//258 297//190
f 623//259 722//296 598//239
f 723//253 597//297 724//240
f 291//190 725//258 726//295
f 727//253 728//242 594//235
f 729//258 620//256 730//296
f 593//234 597//238 594//235
f 731//240 732//296 575//218
f 604//244 733//240 575//218
f 734//232 601//236 735//230
f 736//280 561//204 560//203
f 737//298 633//263 738//268
f 633//263 739//270 584//227
f 740//275 741//261 742//261
f 578//221 583//226 743//267
f 744//261 745//261 746//299
f 747//300 748//301 749//302
f 750//303 751//304 752//261
f 753//303 754//305 755//306
f 756//307 757//305 758//308
f 759//309 760//304 761//308
f 762//309 763//310 764//307
f 765//311 766//312 767//313
f 768//314 769//315 770//316
f 771//317 772//318 773//319
f 774//318 775//320 776//321
f 777//322 778//323 779//324
f 780//324 781//323 782//325
f 783//326 784//324 785//327
f 786//328 787//329 788//330
f 789//331 790//328 791//332
f 792//333 793//334 794//335
f 795//336 796//336 797//337
f 798//337 799//336 800//338
f 801//338 802//336 803//339
f 804//340 805//338 806//339
f 807//341 808//342 809//339
f 810//343 811//341 812//339
f 813//344 814//345 815//346
f 816//344 817//347 818//345
f 819//344 820//348 821//349
f 822//344 823//350 824//351
f 825//351 826//352 827//353
f 828//354 829//334 830//355
f 831//353 832//354 833//356
f 834//356 835//335 836//357
f 837//358 838//359 839//360
f 840//361 841//358 842//362
f 843//363 844//361 845//364
f 846//363 847//365 848//366
f 849//367 850//368 851//369
f 852//328 853//331 854//364
f 855//330 856//332 857//328
f 858//327 859//330 860//326
f 861//370 862//327 863//324
f 864//371 865//322 866//320
f 867//321 868//319 869//318
f 870//319 871//315 872//372
f 873//373 874//316 875//374
f 876//316 877//310 878//314
f 879//310 880//309 881//311
f 882//361 883//375 884//358
f 885//356 886//353 887//352
f 888//376 889//377 890//378
f 888//376 891//379 889//377
f 892//380 893//381 894//382
f 892//380 895//383 896//384
f 892//380 896//384 893//381
f 895//383 897//385 898//386
f 899//387 898//386 900//388
f 899//387 901//389 896//384
f 898//386 897//385 900//388
f 898//386 896//384 895//383
f 902//390 903//391 904//392
f 902//390 905//393 906//326
f 907//394 908//395 909//396
f 907//394 910//397 908//395
f 911//398 912//399 913//400
f 911//398 914//401 915//402
f 912//399 916//403 913//400
f 912//399 915//402 917//404
f 918//405 919//406 920//407
f 918//405 921//408 922//409
f 921//408 923//410 924//411
f 921//408 925//412 926//413
f 927//414 928//415 929//416
f 927//414 891//379 930//417
f 931//418 932//419 933//420
f 931//418 934//421 935//422
f 905//423 936//324 937//329
f 905//393 932//419 938//322
f 932//419 904//392 939//424
f 905//423 940//322 941//324
f 934//421 942//319 943//321
f 934//421 894//382 944//319
f 945//425 946//426 947//427
f 945//425 948//428 917//404
f 945//425 917//404 946//426
f 948//428 949//336 950//429
f 951//430 949//336 952//431
f 951//430 950//429 949//336
f 917//404 915//402 946//426
f 917//404 950//429 916//403
f 948//428 950//429 917//404
f 917//404 916//403 912//399
f 953//432 951//430 952//431
f 954//398 955//433 956//434
f 954//398 957//435 926//413
f 958//436 959//437 908//395
f 958//436 960//352 959//437
f 961//438 962//439 963//440
f 961//438 908//395 910//397
f 964//441 965//367 966//442
f 964//441 967//443 968//444
f 967//443 969//445 970//446
f 967//443 971//447 972//448
f 973//449 955//433 925//412
f 973//449 974//450 975//451
f 974//450 970//446 969//445
f 974//450 976//452 977//453
f 970//446 968//444 967//443
f 970//446 977//453 978//454
f 979//455 980//456 981//457
f 979//455 893//381 982//458
f 947//427 983//459 945//425
f 947//427 959//437 984//344
f 985//460 986//461 987//462
f 985//463 988//464 989//465
f 986//461 990//466 991//467
f 986//468 992//469 993//470
f 994//471 995//472 996//473
f 994//471 930//417 997//474
f 995//472 990//466 998//475
f 995//472 997//474 999//476
f 1000//477 1001//478 1002//479
f 1000//477 1003//480 1004//481
f 1005//482 968//444 978//454
f 1005//482 1002//479 965//367
f 1001//478 1006//483 1007//484
f 1001//478 1004//481 1006//483
f 1008//485 1009//486 1010//369
f 1008//485 1011//487 966//442
f 1008//485 966//442 1009//486
f 1011//487 1012//488 966//442
f 975//451 956//434 955//433
f 975//451 969//445 909//396
f 991//467 999//476 1003//480
f 991//467 987//462 986//461
f 999//476 997//474 1004//481
f 999//476 990//466 995//472
f 953//432 957//435 913//400
f 953//432 952//431 1013//489
f 926//413 925//412 955//433
f 926//413 1013//489 923//410
f 1013//489 952//431 1014//490
f 1013//489 957//435 953//432
f 1013//489 1014//490 923//410
f 952//431 1015//336 1016//491
f 1017//492 908//395 959//437
f 1017//492 915//402 914//401
f 945//425 983//459 948//428
f 946//426 959//437 947//427
f 918//405 925//412 921//408
f 920//407 1018//493 976//452
f 1018//493 987//462 977//453
f 1018//493 919//406 985//460
f 894//382 981//457 1019//316
f 894//382 933//420 892//380
f 981//457 980//456 1020//310
f 981//457 893//381 979//455
f 909//396 914//401 956//434
f 909//396 972//448 907//394
f 911//398 915//402 912//399
f 914//401 908//395 1017//492
f 1021//494 980//456 1022//495
f 1021//494 1023//261 1024//304
f 1021//494 1022//495 1025//261
f 980//456 982//458 1026//496
f 1022//495 1026//496 1027//497
f 980//456 1021//494 1028//498
f 1029//499 889//377 1030//500
f 1029//499 1031//501 1032//502
f 1033//503 1034//504 1031//501
f 1033//503 1035//505 1036//506
f 978//454 977//453 987//462
f 978//454 968//444 970//446
f 977//453 976//452 1018//493
f 975//451 974//450 969//445
f 980//456 1026//496 1022//495
f 982//458 901//389 1026//496
f 1004//481 1037//324 1006//483
f 1004//481 1003//480 999//476
f 1037//324 1038//507 1039//508
f 1037//324 997//474 930//417
f 964//441 971//447 967//443
f 965//367 1040//509 966//442
f 967//443 972//448 969//445
f 971//447 966//442 1012//488
f 1041//510 1006//483 1037//324
f 1041//510 900//388 897//385
f 899//387 1042//511 1043//512
f 900//388 1039//508 1044//513
f 890//378 1032//502 1042//511
f 890//378 1038//507 888//376
f 1032//502 1031//501 1043//512
f 1032//502 889//377 1029//499
f 1012//488 907//394 972//448
f 910//397 962//439 961//438
f 1012//488 1011//487 962//439
f 1012//488 972//448 971//447
f 1044//513 1039//508 1038//507
f 1044//513 1042//511 900//388
f 1045//514 897//385 939//424
f 1045//514 1007//484 1006//483
f 1007//484 1040//509 1002//479
f 1007//484 904//392 903//391
f 927//414 930//417 994//471
f 930//417 888//376 1038//507
f 994//471 997//474 995//472
f 930//417 1038//507 1037//324
f 1009//486 903//391 1046//328
f 1009//486 966//442 1040//509
f 902//390 904//392 932//419
f 903//391 1040//509 1007//484
f 923//410 1014//490 1047//515
f 1013//489 926//413 957//435
f 1014//516 1048//517 1049//518
f 1014//519 1050//520 1051//521
f 1045//514 904//392 1007//484
f 931//418 933//420 894//382
f 1043//512 1042//511 1032//502
f 1043//512 901//389 899//387
f 1027//497 625//301 1022//495
f 1027//497 1031//501 1034//504
f 1033//503 1031//501 1029//499
f 1034//504 625//301 1027//497
f 1042//511 899//387 900//388
f 895//383 892//380 933//420
f 896//384 982//458 893//381
f 1026//496 1043//512 1027//497
f 894//382 893//381 981//457
f 933//420 939//424 895//383
f 1017//492 946//426 915//402
f 959//437 1052//352 1053//344
f 983//522 1054//339 1055//336
f 959//437 946//426 1017//492
f 913//400 916//403 953//432
f 911//398 956//434 914//401
f 975//451 955//433 973//449
f 955//433 954//398 926//413
f 962//439 1011//487 1008//485
f 1012//488 910//397 907//394
f 962//439 910//397 1012//488
f 975//451 909//396 956//434
f 908//395 914//401 909//396
f 956//434 911//398 913//400
f 918//405 920//407 925//412
f 925//412 920//407 976//452
f 923//410 921//408 926//413
f 925//412 976//452 973//449
f 951//430 953//432 916//403
f 957//435 954//398 913//400
f 978//454 991//467 1003//480
f 995//472 1056//475 1057//523
f 964//441 968//444 965//367
f 976//452 974//450 973//449
f 1009//486 1040//509 903//391
f 1005//482 965//367 968//444
f 966//442 971//447 964//441
f 972//448 909//396 969//445
f 919//406 1018//493 920//407
f 1005//482 978//454 1000//477
f 954//398 956//434 913//400
f 974//450 977//453 970//446
f 1003//480 1000//477 978//454
f 1002//479 1040//509 965//367
f 1002//479 1005//482 1000//477
f 1058//524 994//525 1059//526
f 1000//477 1004//481 1001//478
f 1060//527 995//472 1061//528
f 1041//510 1045//514 1006//483
f 902//390 932//419 905//393
f 1007//484 1002//479 1001//478
f 1062//361 1008//529 1063//364
f 1045//514 1041//510 897//385
f 1032//502 890//378 889//377
f 899//387 896//384 898//386
f 1064//422 932//419 931//418
f 900//388 1041//510 1039//508
f 1065//329 903//391 902//390
f 1044//513 890//378 1042//511
f 889//377 891//379 1066//530
f 1037//324 1039//508 1041//510
f 1067//531 891//379 1068//532
f 1027//497 1043//512 1031//501
f 1069//316 981//533 1070//310
f 901//389 1043//512 1026//496
f 1071//534 1033//503 1072//506
f 1073//339 983//459 1074//344
f 1075//535 952//431 1076//536
f 1077//356 1078//537 958//436
f 1079//411 1080//538 921//408
f 939//424 904//392 1045//514
f 1081//539 985//460 919//406
f 982//458 896//384 901//389
f 1082//527 1083//526 994//540
f 1022//495 625//301 1084//261
f 1085//531 1086//530 891//541
f 1087//299 1088//261 1034//504
f 1034//504 1089//261 625//301
f 1090//542 1091//299 1034//504
f 1092//543 1093//544 1034//504
f 1033//503 1094//545 1034//504
f 1033//546 1095//534 1096//543
f 1044//513 1038//507 890//378
f 1029//499 1097//500 1033//503
f 1033//503 1098//500 1099//505
f 889//377 1100//530 1101//500
f 888//376 930//417 891//379
f 903//547 1102//329 1103//328
f 1037//324 1004//481 997//474
f 897//385 895//383 939//424
f 927//414 1104//532 891//379
f 927//548 1105//549 1106//550
f 1107//369 1009//486 1108//328
f 1109//524 927//414 994//471
f 1110//360 962//439 1111//361
f 991//467 978//454 987//462
f 962//439 1008//485 1112//361
f 1018//493 985//460 987//462
f 1113//356 961//438 1114//335
f 990//466 986//461 1115//475
f 947//427 1116//551 983//459
f 986//461 985//460 1117//469
f 961//438 1118//356 958//436
f 1119//552 985//463 1120//553
f 961//438 958//436 908//395
f 1121//554 918//405 1122//409
f 948//428 1123//336 949//336
f 1124//336 952//431 949//336
f 1125//555 1126//409 921//408
f 952//431 1127//520 1014//490
f 951//430 916//403 950//429
f 1128//556 1129//557 1014//519
f 1014//519 1130//557 1131//515
f 1132//398 923//558 1133//559
f 1134//398 1135//411 923//410
f 1136//560 948//428 983//459
f 918//405 1137//554 919//406
f 1138//554 1139//553 919//406
f 1140//470 1141//561 986//468
f 999//476 991//467 990//466
f 932//419 939//424 933//420
f 979//455 982//458 980//456
f 1142//304 1143//310 980//456
f 1144//562 1145//373 894//563
f 931//418 894//382 934//421
f 1146//564 1147//565 1148//566
f 1146//564 1149//567 1147//565
f 1150//568 1151//569 1152//570
f 1150//568 949//336 1153//571
f 1154//572 1155//573 1156//574
f 1154//572 1157//575 1158//576
f 1159//577 1160//578 1161//579
f 1159//577 1149//567 1160//578
f 1162//580 1163//581 1164//582
f 1162//580 1165//583 1166//584
f 1167//585 1168//586 1169//587
f 1167//585 1166//584 1170//588
f 1166//584 1165//583 1171//589
f 1166//584 1163//581 1162//580
f 1172//590 1173//591 1174//592
f 1172//590 1175//588 1176//593
f 1173//591 1177//594 1174//592
f 1173//584 1178//593 1179//595
f 1180//596 1160//578 1181//597
f 1180//596 1182//598 1183//599
f 1182//598 1164//582 1184//600
f 1182//598 1180//596 1162//580
f 1164//582 1185//601 1186//602
f 1164//582 1163//581 1185//601
f 1186//602 1187//603 1184//600
f 1186//602 1174//592 1177//594
f 1187//603 1188//604 1189//605
f 1187//603 1177//594 1190//606
f 1183//599 1191//607 1160//578
f 1183//599 1184//600 1189//605
f 1189//605 1184//600 1187//603
f 1189//605 1191//607 1183//599
f 1192//608 1193//609 1161//579
f 1192//608 1188//604 1194//610
f 1167//585 1163//581 1166//584
f 1169//587 1195//611 1163//581
f 1196//612 1156//574 1155//573
f 1196//612 1197//613 1156//574
f 1196//612 1155//573 1174//592
f 1156//574 1157//575 1154//572
f 1198//614 1161//579 1199//615
f 1198//614 1200//616 1147//565
f 1200//616 1201//617 1202//618
f 1200//616 1203//619 1153//571
f 1202//618 1147//565 1200//616
f 1202//618 1204//620 1205//621
f 1181//597 1165//583 1180//596
f 1181//597 1206//622 1207//623
f 1149//567 1146//564 1206//622
f 1198//614 1159//577 1161//579
f 1208//624 1209//625 1197//613
f 1208//624 1195//611 1168//586
f 1195//611 1169//587 1168//586
f 1195//611 1197//613 1185//601
f 1210//626 1211//627 1212//628
f 1210//626 1213//629 1214//630
f 1213//629 1215//631 1216//632
f 1213//629 1217//633 1218//634
f 1190//606 1177//594 1219//623
f 1190//606 1188//604 1187//603
f 1220//635 1215//631 1194//610
f 1220//636 1221//607 1222//637
f 1223//638 949//336 1224//336
f 1223//638 1153//571 949//336
f 1161//579 1191//607 1192//608
f 1161//579 1160//578 1191//607
f 1153//571 1223//638 1201//617
f 1153//571 1203//619 1151//569
f 1203//619 1199//615 1225//639
f 1149//567 1159//577 1147//565
f 1225//639 1151//569 1203//619
f 1225//639 1218//634 1217//633
f 1194//610 1188//604 1220//635
f 1194//610 1218//634 1193//609
f 1225//639 1217//633 1151//569
f 1218//634 1215//631 1213//629
f 111//14 1157//575 109//14
f 1209//625 1156//574 1197//613
f 1157//575 111//14 1226//625
f 1196//612 1174//592 1185//601
f 1155//573 1227//640 1228//641
f 105//15 1229//642 1230//625
f 105//15 109//14 1229//642
f 1229//642 1168//586 1231//640
f 1229//642 109//14 1209//625
f 1167//585 1169//587 1163//581
f 1195//611 1208//624 1197//613
f 1232//625 111//13 1233//643
f 1168//586 1229//642 1208//624
f 1234//640 1157//644 1235//625
f 1185//601 1197//613 1196//612
f 1185//601 1163//581 1195//611
f 1164//582 1186//602 1184//600
f 1177//600 1236//589 1237//623
f 1174//592 1186//602 1185//601
f 1238//589 1173//584 1239//595
f 1206//622 1146//564 1240//645
f 1149//567 1181//597 1160//578
f 1182//598 1162//580 1164//582
f 1166//584 1241//589 1242//595
f 1183//599 1182//598 1184//600
f 1243//641 1167//585 1244//588
f 1192//608 1189//605 1188//604
f 1162//580 1180//596 1165//583
f 1220//635 1188//604 1190//606
f 1192//608 1194//610 1193//609
f 1189//605 1192//608 1191//607
f 1245//566 1220//635 1246//637
f 1202//618 1201//617 1247//646
f 1198//614 1147//565 1159//577
f 1201//617 1223//638 1248//647
f 1150//568 1153//571 1151//569
f 1201//617 1200//616 1153//571
f 1225//639 1193//609 1218//634
f 1199//615 1161//579 1193//609
f 1165//583 1181//597 1249//623
f 1217//648 1250//649 1251//650
f 1217//633 1252//651 1253//649
f 1225//639 1199//615 1193//609
f 1254//632 1255//566 1202//618
f 1160//578 1180//596 1183//599
f 1157//575 1209//625 109//14
f 1203//619 1198//614 1199//615
f 1256//583 1177//594 1173//591
f 1257//652 1217//633 1258//650
f 1259//566 1215//631 1220//635
f 1260//336 1261//336 1262//647
f 1263//647 1264//653 1265//654
f 1266//655 1267//656 1268//657
f 1269//570 1270//658 1210//626
f 1271//658 1272//627 1210//626
f 1273//649 1210//626 1274//650
f 1217//633 1213//629 1210//626
f 1275//649 1276//647 1210//626
f 1277//659 1213//629 1278//620
f 1215//631 1218//634 1194//610
f 1279//660 1280//620 1213//661
f 1165//600 1281//623 1282//589
f 1177//594 1187//603 1186//602
f 1283//595 1284//593 1166//584
f 1190//662 1285//623 1286//607
f 1149//567 1206//622 1181//597
f 1172//590 1155//573 1287//641
f 1209//625 1208//624 1229//642
f 1154//572 1288//576 1155//573
f 1289//588 1172//663 1290//664
f 105//13 1291//625 1292//643
f 1172//590 1293//593 1173//591
f 1294//625 1229//642 1295//576
f 1157//575 1156//574 1209//625
f 1296//641 1168//586 1167//585
f 1190//606 1297//607 1220//635
f 1298//623 1206//665 1299//607
f 1300//666 1217//667 1301//668
f 1302//669 1146//564 1303//566
f 1304//630 1201//617 1305//647
f 1306//647 1223//638 1307//336
f 1202//618 1308//566 1147//565
f 949//336 1150//568 1309//336
f 1310//336 1150//670 1311//671
f 1312//672 1150//673 1313//655
f 1314//655 1151//569 1315//658
f 1316//658 1151//674 1317//627
f 1203//619 1200//616 1198//614
f 1318//630 1319//620 1202//618
f 1206//622 1320//637 1321//607
f 1322//641 1323//576 1168//586
f 1174//592 1155//573 1172//590
f 1324//593 1325//588 1166//675
f 1217//633 1210//626 1326//647
f 1327//566 1328//632 1215//631
f 1329//630 1330//647 1210//626
f 1210//626 1331//652 1332//650
f 1151//569 1217//633 1333//627
f 1210//626 1334//647 1335//570
