# Blender 4.4.3
# www.blender.org
mtllib Mesh_6.001.mtl
o Mesh_6.001
v 0.012090 0.009675 -0.014555
v 0.012095 0.009675 -0.014554
v 0.012090 0.009725 -0.014555
v 0.012085 0.009675 -0.014555
v 0.012081 0.009675 -0.014556
v 0.012085 0.009725 -0.014555
v 0.012081 0.009725 -0.014556
v 0.012076 0.009725 -0.014558
v 0.012076 0.009675 -0.014558
v 0.012072 0.009675 -0.014560
v 0.012072 0.009725 -0.014560
v 0.012068 0.009675 -0.014563
v 0.012068 0.009725 -0.014563
v 0.012064 0.009725 -0.014565
v 0.012064 0.009675 -0.014565
v 0.012060 0.009675 -0.014569
v 0.012060 0.009725 -0.014569
v 0.012057 0.009675 -0.014572
v 0.012057 0.009725 -0.014572
v 0.012054 0.009675 -0.014576
v 0.012054 0.009725 -0.014576
v 0.012052 0.009675 -0.014580
v 0.012050 0.009675 -0.014584
v 0.012052 0.009725 -0.014580
v 0.012050 0.009725 -0.014584
v 0.012048 0.009725 -0.014589
v 0.012048 0.009675 -0.014589
v 0.012047 0.009675 -0.014593
v 0.012047 0.009725 -0.014593
v 0.012046 0.009675 -0.014598
v 0.012046 0.009725 -0.014598
v 0.012046 0.009725 -0.014603
v 0.012046 0.009675 -0.014603
v 0.012046 0.009675 -0.014608
v 0.012046 0.009725 -0.014608
v 0.012047 0.009675 -0.014612
v 0.012047 0.009725 -0.014612
v 0.012048 0.009675 -0.014617
v 0.012048 0.009725 -0.014617
v 0.012050 0.009675 -0.014621
v 0.012052 0.009675 -0.014626
v 0.012050 0.009725 -0.014621
v 0.012052 0.009725 -0.014626
v 0.012054 0.009725 -0.014630
v 0.012054 0.009675 -0.014630
v 0.012057 0.009675 -0.014634
v 0.012064 0.009725 -0.014640
v 0.012068 0.009725 -0.014643
v 0.012068 0.009675 -0.014643
v 0.012072 0.009675 -0.014646
v 0.012095 0.009675 -0.014651
v 0.012090 0.009725 -0.014651
v 0.012095 0.009725 -0.014651
v 0.012099 0.009675 -0.014651
v 0.012099 0.009725 -0.014651
v 0.012104 0.009675 -0.014650
v 0.012104 0.009725 -0.014650
v 0.012109 0.009675 -0.014649
v 0.012109 0.009725 -0.014649
v 0.012113 0.009675 -0.014648
v 0.012117 0.009675 -0.014646
v 0.012113 0.009725 -0.014648
v 0.012122 0.009675 -0.014643
v 0.012117 0.009725 -0.014646
v 0.012122 0.009725 -0.014643
v 0.012125 0.009725 -0.014640
v 0.012125 0.009675 -0.014640
v 0.012129 0.009675 -0.014637
v 0.012129 0.009725 -0.014637
v 0.012132 0.009675 -0.014634
v 0.012132 0.009725 -0.014634
v 0.012135 0.009725 -0.014630
v 0.012135 0.009675 -0.014630
v 0.012137 0.009675 -0.014626
v 0.012137 0.009725 -0.014626
v 0.012139 0.009675 -0.014621
v 0.012139 0.009725 -0.014621
v 0.012141 0.009675 -0.014617
v 0.012141 0.009725 -0.014617
v 0.012142 0.009675 -0.014612
v 0.012143 0.009675 -0.014608
v 0.012142 0.009725 -0.014612
v 0.012143 0.009725 -0.014608
v 0.012143 0.009725 -0.014603
v 0.012143 0.009675 -0.014603
v 0.012143 0.009675 -0.014598
v 0.012143 0.009725 -0.014598
v 0.012142 0.009675 -0.014593
v 0.012142 0.009725 -0.014593
v 0.012141 0.009725 -0.014589
v 0.012141 0.009675 -0.014589
v 0.012139 0.009675 -0.014584
v 0.012139 0.009725 -0.014584
v 0.012137 0.009675 -0.014580
v 0.012137 0.009725 -0.014580
v 0.012135 0.009675 -0.014576
v 0.012135 0.009725 -0.014576
v 0.012132 0.009675 -0.014572
v 0.012129 0.009675 -0.014569
v 0.012132 0.009725 -0.014572
v 0.012129 0.009725 -0.014569
v 0.012095 0.009725 -0.014554
v 0.012099 0.009725 -0.014555
v 0.012099 0.009675 -0.014555
v 0.012104 0.009725 -0.014555
v 0.012104 0.009675 -0.014555
v 0.012109 0.009725 -0.014556
v 0.012109 0.009675 -0.014556
v 0.012113 0.009725 -0.014558
v 0.012113 0.009675 -0.014558
v 0.012117 0.009725 -0.014560
v 0.012117 0.009675 -0.014560
v 0.012122 0.009725 -0.014563
v 0.012122 0.009675 -0.014563
v 0.012125 0.009725 -0.014565
v 0.012125 0.009675 -0.014565
v 0.012090 0.009675 -0.014651
v 0.012085 0.009725 -0.014650
v 0.012085 0.009675 -0.014650
v 0.012081 0.009725 -0.014649
v 0.012081 0.009675 -0.014649
v 0.012076 0.009725 -0.014648
v 0.012076 0.009675 -0.014648
v 0.012072 0.009725 -0.014646
v 0.012064 0.009675 -0.014640
v 0.012060 0.009725 -0.014637
v 0.012060 0.009675 -0.014637
v 0.012057 0.009725 -0.014634
v 0.012085 0.009725 -0.014555
v 0.012090 0.009725 -0.014555
v 0.012095 0.009725 -0.014554
v 0.012081 0.009725 -0.014556
v 0.012085 0.009725 -0.014555
v 0.012095 0.009725 -0.014554
v 0.012076 0.009725 -0.014558
v 0.012081 0.009725 -0.014556
v 0.012095 0.009725 -0.014554
v 0.012072 0.009725 -0.014560
v 0.012076 0.009725 -0.014558
v 0.012095 0.009725 -0.014554
v 0.012068 0.009725 -0.014563
v 0.012072 0.009725 -0.014560
v 0.012095 0.009725 -0.014554
v 0.012064 0.009725 -0.014565
v 0.012068 0.009725 -0.014563
v 0.012095 0.009725 -0.014554
v 0.012060 0.009725 -0.014569
v 0.012064 0.009725 -0.014565
v 0.012095 0.009725 -0.014554
v 0.012057 0.009725 -0.014572
v 0.012060 0.009725 -0.014569
v 0.012095 0.009725 -0.014554
v 0.012054 0.009725 -0.014576
v 0.012057 0.009725 -0.014572
v 0.012095 0.009725 -0.014554
v 0.012052 0.009725 -0.014580
v 0.012054 0.009725 -0.014576
v 0.012095 0.009725 -0.014554
v 0.012050 0.009725 -0.014584
v 0.012052 0.009725 -0.014580
v 0.012095 0.009725 -0.014554
v 0.012048 0.009725 -0.014589
v 0.012095 0.009725 -0.014554
v 0.012047 0.009725 -0.014593
v 0.012048 0.009725 -0.014589
v 0.012050 0.009725 -0.014584
v 0.012095 0.009725 -0.014554
v 0.012047 0.009725 -0.014593
v 0.012095 0.009725 -0.014554
v 0.012046 0.009725 -0.014598
v 0.012046 0.009725 -0.014598
v 0.012095 0.009725 -0.014554
v 0.012046 0.009725 -0.014603
v 0.012046 0.009725 -0.014603
v 0.012095 0.009725 -0.014554
v 0.012046 0.009725 -0.014608
v 0.012046 0.009725 -0.014608
v 0.012095 0.009725 -0.014554
v 0.012047 0.009725 -0.014612
v 0.012095 0.009725 -0.014554
v 0.012048 0.009725 -0.014617
v 0.012047 0.009725 -0.014612
v 0.012095 0.009725 -0.014554
v 0.012050 0.009725 -0.014621
v 0.012048 0.009725 -0.014617
v 0.012095 0.009725 -0.014554
v 0.012052 0.009725 -0.014626
v 0.012050 0.009725 -0.014621
v 0.012095 0.009725 -0.014554
v 0.012054 0.009725 -0.014630
v 0.012052 0.009725 -0.014626
v 0.012095 0.009725 -0.014554
v 0.012057 0.009725 -0.014634
v 0.012054 0.009725 -0.014630
v 0.012095 0.009725 -0.014554
v 0.012060 0.009725 -0.014637
v 0.012057 0.009725 -0.014634
v 0.012095 0.009725 -0.014554
v 0.012064 0.009725 -0.014640
v 0.012060 0.009725 -0.014637
v 0.012095 0.009725 -0.014554
v 0.012068 0.009725 -0.014643
v 0.012064 0.009725 -0.014640
v 0.012076 0.009725 -0.014648
v 0.012072 0.009725 -0.014646
v 0.012095 0.009725 -0.014554
v 0.012095 0.009725 -0.014554
v 0.012072 0.009725 -0.014646
v 0.012068 0.009725 -0.014643
v 0.012081 0.009725 -0.014649
v 0.012076 0.009725 -0.014648
v 0.012095 0.009725 -0.014554
v 0.012085 0.009725 -0.014650
v 0.012081 0.009725 -0.014649
v 0.012095 0.009725 -0.014554
v 0.012090 0.009725 -0.014651
v 0.012095 0.009725 -0.014554
v 0.012095 0.009725 -0.014651
v 0.012095 0.009725 -0.014651
v 0.012095 0.009725 -0.014554
v 0.012099 0.009725 -0.014651
v 0.012099 0.009725 -0.014651
v 0.012095 0.009725 -0.014554
v 0.012104 0.009725 -0.014650
v 0.012095 0.009725 -0.014554
v 0.012109 0.009725 -0.014649
v 0.012104 0.009725 -0.014650
v 0.012095 0.009725 -0.014554
v 0.012113 0.009725 -0.014648
v 0.012109 0.009725 -0.014649
v 0.012095 0.009725 -0.014554
v 0.012117 0.009725 -0.014646
v 0.012113 0.009725 -0.014648
v 0.012095 0.009725 -0.014554
v 0.012122 0.009725 -0.014643
v 0.012117 0.009725 -0.014646
v 0.012095 0.009725 -0.014554
v 0.012125 0.009725 -0.014640
v 0.012122 0.009725 -0.014643
v 0.012095 0.009725 -0.014554
v 0.012129 0.009725 -0.014637
v 0.012125 0.009725 -0.014640
v 0.012095 0.009725 -0.014554
v 0.012132 0.009725 -0.014634
v 0.012129 0.009725 -0.014637
v 0.012095 0.009725 -0.014554
v 0.012135 0.009725 -0.014630
v 0.012132 0.009725 -0.014634
v 0.012139 0.009725 -0.014621
v 0.012137 0.009725 -0.014626
v 0.012095 0.009725 -0.014554
v 0.012095 0.009725 -0.014554
v 0.012137 0.009725 -0.014626
v 0.012135 0.009725 -0.014630
v 0.012141 0.009725 -0.014617
v 0.012139 0.009725 -0.014621
v 0.012095 0.009725 -0.014554
v 0.012142 0.009725 -0.014612
v 0.012141 0.009725 -0.014617
v 0.012095 0.009725 -0.014554
v 0.012143 0.009725 -0.014608
v 0.012142 0.009725 -0.014612
v 0.012095 0.009725 -0.014554
v 0.012143 0.009725 -0.014603
v 0.012143 0.009725 -0.014608
v 0.012095 0.009725 -0.014554
v 0.012143 0.009725 -0.014598
v 0.012143 0.009725 -0.014603
v 0.012095 0.009725 -0.014554
v 0.012143 0.009725 -0.014598
v 0.012095 0.009725 -0.014554
v 0.012142 0.009725 -0.014593
v 0.012142 0.009725 -0.014593
v 0.012095 0.009725 -0.014554
v 0.012141 0.009725 -0.014589
v 0.012141 0.009725 -0.014589
v 0.012095 0.009725 -0.014554
v 0.012139 0.009725 -0.014584
v 0.012139 0.009725 -0.014584
v 0.012095 0.009725 -0.014554
v 0.012137 0.009725 -0.014580
v 0.012137 0.009725 -0.014580
v 0.012095 0.009725 -0.014554
v 0.012135 0.009725 -0.014576
v 0.012135 0.009725 -0.014576
v 0.012095 0.009725 -0.014554
v 0.012132 0.009725 -0.014572
v 0.012132 0.009725 -0.014572
v 0.012095 0.009725 -0.014554
v 0.012129 0.009725 -0.014569
v 0.012129 0.009725 -0.014569
v 0.012095 0.009725 -0.014554
v 0.012125 0.009725 -0.014565
v 0.012095 0.009725 -0.014554
v 0.012117 0.009725 -0.014560
v 0.012122 0.009725 -0.014563
v 0.012125 0.009725 -0.014565
v 0.012095 0.009725 -0.014554
v 0.012122 0.009725 -0.014563
v 0.012095 0.009725 -0.014554
v 0.012113 0.009725 -0.014558
v 0.012117 0.009725 -0.014560
v 0.012095 0.009725 -0.014554
v 0.012109 0.009725 -0.014556
v 0.012113 0.009725 -0.014558
v 0.012095 0.009725 -0.014554
v 0.012104 0.009725 -0.014555
v 0.012109 0.009725 -0.014556
v 0.012095 0.009725 -0.014554
v 0.012099 0.009725 -0.014555
v 0.012104 0.009725 -0.014555
v 0.012090 0.009725 -0.014651
v 0.012085 0.009725 -0.014650
v 0.012095 0.009725 -0.014554
v 0.012085 0.009675 -0.014555
v 0.012095 0.009675 -0.014554
v 0.012090 0.009675 -0.014555
v 0.012081 0.009675 -0.014556
v 0.012095 0.009675 -0.014554
v 0.012085 0.009675 -0.014555
v 0.012076 0.009675 -0.014558
v 0.012095 0.009675 -0.014554
v 0.012081 0.009675 -0.014556
v 0.012072 0.009675 -0.014560
v 0.012095 0.009675 -0.014554
v 0.012076 0.009675 -0.014558
v 0.012068 0.009675 -0.014563
v 0.012095 0.009675 -0.014554
v 0.012072 0.009675 -0.014560
v 0.012064 0.009675 -0.014565
v 0.012095 0.009675 -0.014554
v 0.012068 0.009675 -0.014563
v 0.012060 0.009675 -0.014569
v 0.012095 0.009675 -0.014554
v 0.012064 0.009675 -0.014565
v 0.012057 0.009675 -0.014572
v 0.012095 0.009675 -0.014554
v 0.012060 0.009675 -0.014569
v 0.012054 0.009675 -0.014576
v 0.012095 0.009675 -0.014554
v 0.012057 0.009675 -0.014572
v 0.012052 0.009675 -0.014580
v 0.012095 0.009675 -0.014554
v 0.012054 0.009675 -0.014576
v 0.012050 0.009675 -0.014584
v 0.012095 0.009675 -0.014554
v 0.012052 0.009675 -0.014580
v 0.012048 0.009675 -0.014589
v 0.012047 0.009675 -0.014593
v 0.012095 0.009675 -0.014554
v 0.012048 0.009675 -0.014589
v 0.012095 0.009675 -0.014554
v 0.012050 0.009675 -0.014584
v 0.012047 0.009675 -0.014593
v 0.012046 0.009675 -0.014598
v 0.012095 0.009675 -0.014554
v 0.012046 0.009675 -0.014598
v 0.012046 0.009675 -0.014603
v 0.012095 0.009675 -0.014554
v 0.012046 0.009675 -0.014603
v 0.012046 0.009675 -0.014608
v 0.012095 0.009675 -0.014554
v 0.012046 0.009675 -0.014608
v 0.012047 0.009675 -0.014612
v 0.012095 0.009675 -0.014554
v 0.012095 0.009675 -0.014554
v 0.012047 0.009675 -0.014612
v 0.012048 0.009675 -0.014617
v 0.012095 0.009675 -0.014554
v 0.012048 0.009675 -0.014617
v 0.012050 0.009675 -0.014621
v 0.012095 0.009675 -0.014554
v 0.012050 0.009675 -0.014621
v 0.012052 0.009675 -0.014626
v 0.012095 0.009675 -0.014554
v 0.012052 0.009675 -0.014626
v 0.012054 0.009675 -0.014630
v 0.012095 0.009675 -0.014554
v 0.012054 0.009675 -0.014630
v 0.012057 0.009675 -0.014634
v 0.012095 0.009675 -0.014554
v 0.012057 0.009675 -0.014634
v 0.012060 0.009675 -0.014637
v 0.012095 0.009675 -0.014554
v 0.012060 0.009675 -0.014637
v 0.012064 0.009675 -0.014640
v 0.012095 0.009675 -0.014554
v 0.012064 0.009675 -0.014640
v 0.012068 0.009675 -0.014643
v 0.012076 0.009675 -0.014648
v 0.012095 0.009675 -0.014554
v 0.012072 0.009675 -0.014646
v 0.012095 0.009675 -0.014554
v 0.012068 0.009675 -0.014643
v 0.012072 0.009675 -0.014646
v 0.012081 0.009675 -0.014649
v 0.012095 0.009675 -0.014554
v 0.012076 0.009675 -0.014648
v 0.012085 0.009675 -0.014650
v 0.012095 0.009675 -0.014554
v 0.012081 0.009675 -0.014649
v 0.012090 0.009675 -0.014651
v 0.012095 0.009675 -0.014651
v 0.012095 0.009675 -0.014554
v 0.012095 0.009675 -0.014651
v 0.012099 0.009675 -0.014651
v 0.012095 0.009675 -0.014554
v 0.012099 0.009675 -0.014651
v 0.012104 0.009675 -0.014650
v 0.012095 0.009675 -0.014554
v 0.012095 0.009675 -0.014554
v 0.012104 0.009675 -0.014650
v 0.012109 0.009675 -0.014649
v 0.012095 0.009675 -0.014554
v 0.012109 0.009675 -0.014649
v 0.012113 0.009675 -0.014648
v 0.012095 0.009675 -0.014554
v 0.012113 0.009675 -0.014648
v 0.012117 0.009675 -0.014646
v 0.012095 0.009675 -0.014554
v 0.012117 0.009675 -0.014646
v 0.012122 0.009675 -0.014643
v 0.012095 0.009675 -0.014554
v 0.012122 0.009675 -0.014643
v 0.012125 0.009675 -0.014640
v 0.012095 0.009675 -0.014554
v 0.012125 0.009675 -0.014640
v 0.012129 0.009675 -0.014637
v 0.012095 0.009675 -0.014554
v 0.012129 0.009675 -0.014637
v 0.012132 0.009675 -0.014634
v 0.012095 0.009675 -0.014554
v 0.012132 0.009675 -0.014634
v 0.012135 0.009675 -0.014630
v 0.012139 0.009675 -0.014621
v 0.012095 0.009675 -0.014554
v 0.012137 0.009675 -0.014626
v 0.012095 0.009675 -0.014554
v 0.012135 0.009675 -0.014630
v 0.012137 0.009675 -0.014626
v 0.012141 0.009675 -0.014617
v 0.012095 0.009675 -0.014554
v 0.012139 0.009675 -0.014621
v 0.012142 0.009675 -0.014612
v 0.012095 0.009675 -0.014554
v 0.012141 0.009675 -0.014617
v 0.012143 0.009675 -0.014608
v 0.012095 0.009675 -0.014554
v 0.012142 0.009675 -0.014612
v 0.012143 0.009675 -0.014603
v 0.012095 0.009675 -0.014554
v 0.012143 0.009675 -0.014608
v 0.012143 0.009675 -0.014598
v 0.012095 0.009675 -0.014554
v 0.012143 0.009675 -0.014603
v 0.012143 0.009675 -0.014598
v 0.012142 0.009675 -0.014593
v 0.012095 0.009675 -0.014554
v 0.012142 0.009675 -0.014593
v 0.012141 0.009675 -0.014589
v 0.012095 0.009675 -0.014554
v 0.012141 0.009675 -0.014589
v 0.012139 0.009675 -0.014584
v 0.012095 0.009675 -0.014554
v 0.012139 0.009675 -0.014584
v 0.012137 0.009675 -0.014580
v 0.012095 0.009675 -0.014554
v 0.012137 0.009675 -0.014580
v 0.012135 0.009675 -0.014576
v 0.012095 0.009675 -0.014554
v 0.012135 0.009675 -0.014576
v 0.012132 0.009675 -0.014572
v 0.012095 0.009675 -0.014554
v 0.012132 0.009675 -0.014572
v 0.012129 0.009675 -0.014569
v 0.012095 0.009675 -0.014554
v 0.012129 0.009675 -0.014569
v 0.012125 0.009675 -0.014565
v 0.012095 0.009675 -0.014554
v 0.012095 0.009675 -0.014554
v 0.012122 0.009675 -0.014563
v 0.012117 0.009675 -0.014560
v 0.012125 0.009675 -0.014565
v 0.012122 0.009675 -0.014563
v 0.012095 0.009675 -0.014554
v 0.012095 0.009675 -0.014554
v 0.012117 0.009675 -0.014560
v 0.012113 0.009675 -0.014558
v 0.012095 0.009675 -0.014554
v 0.012113 0.009675 -0.014558
v 0.012109 0.009675 -0.014556
v 0.012095 0.009675 -0.014554
v 0.012109 0.009675 -0.014556
v 0.012104 0.009675 -0.014555
v 0.012095 0.009675 -0.014554
v 0.012104 0.009675 -0.014555
v 0.012099 0.009675 -0.014555
v 0.012090 0.009675 -0.014651
v 0.012095 0.009675 -0.014554
v 0.012085 0.009675 -0.014650
vn -0.0980 -0.0000 0.9952
vn -0.0000 -0.0000 1.0000
vn -0.1951 -0.0000 0.9808
vn -0.2903 -0.0000 0.9569
vn -0.3827 -0.0000 0.9239
vn -0.4714 -0.0000 0.8819
vn -0.5556 -0.0000 0.8315
vn -0.6344 -0.0000 0.7730
vn -0.7073 -0.0000 0.7070
vn -0.7070 -0.0000 0.7073
vn -0.7730 -0.0000 0.6344
vn -0.8315 -0.0000 0.5556
vn -0.8819 -0.0000 0.4714
vn -0.9239 -0.0000 0.3827
vn -0.9569 -0.0000 0.2903
vn -0.9808 -0.0000 0.1951
vn -0.9952 -0.0000 0.0979
vn -0.9952 -0.0000 0.0982
vn -1.0000 -0.0000 -0.0000
vn -0.9952 -0.0000 -0.0980
vn -0.9808 -0.0000 -0.1951
vn -0.9569 -0.0000 -0.2903
vn -0.9239 -0.0000 -0.3827
vn -0.8819 -0.0000 -0.4714
vn -0.8315 -0.0000 -0.5556
vn -0.7730 -0.0000 -0.6344
vn -0.6344 -0.0000 -0.7730
vn -0.5556 -0.0000 -0.8314
vn -0.5556 -0.0000 -0.8315
vn -0.4714 -0.0000 -0.8819
vn -0.0000 -0.0000 -1.0000
vn -0.0980 -0.0000 -0.9952
vn 0.0979 -0.0000 -0.9952
vn 0.0984 -0.0000 -0.9951
vn 0.1952 -0.0000 -0.9808
vn 0.1953 -0.0000 -0.9807
vn 0.2903 -0.0000 -0.9569
vn 0.3827 -0.0000 -0.9239
vn 0.4714 -0.0000 -0.8819
vn 0.5556 -0.0000 -0.8315
vn 0.6344 -0.0000 -0.7730
vn 0.7071 -0.0000 -0.7071
vn 0.7730 -0.0000 -0.6344
vn 0.8315 -0.0000 -0.5556
vn 0.8819 -0.0000 -0.4714
vn 0.9239 -0.0000 -0.3827
vn 0.9569 -0.0000 -0.2903
vn 0.9808 -0.0000 -0.1951
vn 0.9952 -0.0000 -0.0980
vn 1.0000 -0.0000 -0.0000
vn 0.9952 -0.0000 0.0982
vn 0.9952 -0.0000 0.0979
vn 0.9808 -0.0000 0.1951
vn 0.9569 -0.0000 0.2903
vn 0.9239 -0.0000 0.3827
vn 0.8819 -0.0000 0.4714
vn 0.8315 -0.0000 0.5556
vn 0.7730 -0.0000 0.6344
vn 0.7069 -0.0000 0.7073
vn 0.7073 -0.0000 0.7069
vn 0.0980 -0.0000 0.9952
vn 0.1951 -0.0000 0.9808
vn 0.2903 -0.0000 0.9569
vn 0.3827 -0.0000 0.9239
vn 0.4714 -0.0000 0.8819
vn 0.5556 -0.0000 0.8315
vn 0.6341 -0.0000 0.7732
vn 0.6343 -0.0000 0.7731
vn -0.0984 -0.0000 -0.9951
vn -0.1951 -0.0000 -0.9808
vn -0.2903 -0.0000 -0.9569
vn -0.3827 -0.0000 -0.9239
vn -0.7071 -0.0000 -0.7071
vn -0.0000 1.0000 -0.0000
vn -0.0000 1.0000 -0.0001
vn -0.0000 1.0000 0.0001
vn -0.0000 1.0000 -0.0002
vn 0.0001 1.0000 0.0003
vn -0.0000 1.0000 0.0003
vn -0.0000 1.0000 -0.0003
vn -0.0000 -1.0000 -0.0000
vn -0.0000 -1.0000 0.0001
vn -0.0000 -1.0000 -0.0001
vn -0.0000 -1.0000 -0.0002
vn -0.0000 -1.0000 0.0002
vn -0.0000 -1.0000 -0.0003
vn -0.0000 -1.0000 0.0003
vn 0.0001 -1.0000 0.0003
vt -0.000000 -0.047538
vt -0.000000 0.000000
vt -0.500000 -0.047538
vt -0.000000 -0.094619
vt -0.000000 -0.140788
vt -0.500000 -0.094619
vt -0.500000 -0.140788
vt -0.500000 -0.185601
vt -0.000000 -0.185601
vt -0.000000 -0.228627
vt -0.500000 -0.228627
vt -0.000000 -0.269452
vt -0.500000 -0.269452
vt -0.500000 -0.307681
vt -0.000000 -0.307681
vt -0.000000 -0.342947
vt 0.342947 0.000000
vt 0.342947 0.500000
vt 0.307681 0.000000
vt 0.307681 0.500000
vt 0.269452 0.000000
vt 0.269452 0.500000
vt 0.228627 0.000000
vt 0.185601 0.000000
vt 0.228627 0.500000
vt 0.185601 0.500000
vt 0.140788 0.500000
vt 0.140788 0.000000
vt 0.094619 0.000000
vt 0.094619 0.500000
vt 0.047538 0.000000
vt 0.047538 0.500000
vt 0.000000 0.500000
vt -0.047538 0.000000
vt -0.047538 0.500000
vt -0.094619 0.000000
vt -0.094619 0.500000
vt -0.140788 0.000000
vt -0.140788 0.500000
vt -0.185601 0.000000
vt -0.228627 0.000000
vt -0.185601 0.500000
vt -0.228627 0.500000
vt -0.269452 0.500000
vt -0.269452 0.000000
vt -0.307681 0.000000
vt 0.500000 -0.307681
vt 0.500000 -0.269452
vt 0.500000 -0.047538
vt 0.500000 0.000000
vt 0.000000 0.047538
vt 0.500000 0.047538
vt 0.000000 0.094619
vt 0.500000 0.094619
vt 0.000000 0.140788
vt 0.500000 0.140788
vt 0.000000 0.185601
vt 0.000000 0.228627
vt 0.500000 0.185601
vt 0.000000 0.269452
vt 0.500000 0.228627
vt 0.500000 0.269452
vt 0.500000 0.307681
vt 0.000000 0.307681
vt 0.000000 0.342947
vt -0.342947 0.000000
vt -0.307681 0.500000
vt -0.342947 0.500000
vt -0.500000 0.000000
vt -0.500000 0.047538
vt -0.500000 0.094619
vt -0.500000 0.140788
vt -0.500000 0.185601
vt -0.500000 0.228627
vt -0.500000 0.269452
vt -0.500000 0.307681
vt -0.500000 0.342947
vt 0.500000 0.342947
vt 0.500000 -0.094619
vt 0.500000 -0.140788
vt 0.500000 -0.185601
vt 0.500000 -0.228627
vt 0.500000 -0.342947
vt -0.500000 -0.342947
vt 0.475681 -0.094619
vt 0.482665 -0.047538
vt 0.485000 0.000000
vt 0.464116 -0.140788
vt 0.448082 -0.185601
vt 0.427732 -0.228627
vt 0.403263 -0.269452
vt 0.374910 -0.307681
vt 0.342947 -0.342947
vt 0.307681 -0.374910
vt 0.269452 -0.403263
vt 0.228627 -0.427732
vt 0.185601 -0.448082
vt 0.140788 -0.464116
vt 0.094619 -0.475681
vt 0.047538 -0.482665
vt 0.000000 -0.485000
vt -0.047538 -0.482665
vt -0.094619 -0.475681
vt -0.140788 -0.464116
vt -0.185601 -0.448082
vt -0.228627 -0.427732
vt -0.269452 -0.403263
vt -0.307681 -0.374910
vt -0.342947 -0.342947
vt -0.374910 -0.307681
vt -0.403263 -0.269452
vt -0.448082 -0.185601
vt -0.427732 -0.228627
vt -0.464116 -0.140788
vt -0.475681 -0.094619
vt -0.482665 -0.047538
vt -0.485000 0.000000
vt -0.482665 0.047538
vt -0.475681 0.094619
vt -0.464116 0.140788
vt -0.448082 0.185601
vt -0.427732 0.228627
vt -0.403263 0.269452
vt -0.374910 0.307681
vt -0.342947 0.342947
vt -0.307681 0.374910
vt -0.269452 0.403263
vt -0.185601 0.448082
vt -0.228627 0.427732
vt -0.140788 0.464116
vt -0.094619 0.475681
vt -0.047538 0.482665
vt 0.000000 0.485000
vt 0.047538 0.482665
vt 0.094619 0.475681
vt 0.140788 0.464116
vt 0.185601 0.448082
vt 0.228627 0.427732
vt 0.269452 0.403263
vt 0.307681 0.374910
vt 0.342947 0.342947
vt 0.374910 0.307681
vt 0.427732 0.228627
vt 0.403263 0.269452
vt 0.448082 0.185601
vt 0.464116 0.140788
vt 0.475681 0.094619
vt 0.482665 0.047538
s 1
usemtl Diffuse_51_51_51_100.045
f 1/1/1 2/2/2 3/3/1
f 4/4/3 1/1/1 3/3/1
f 5/5/4 4/4/3 6/6/3
f 7/7/4 5/5/4 6/6/3
f 8/8/5 9/9/5 7/7/4
f 8/8/5 10/10/6 9/9/5
f 11/11/6 12/12/7 10/10/6
f 11/11/6 13/13/7 12/12/7
f 13/13/7 14/14/8 15/15/8
f 15/15/8 14/14/8 16/16/9
f 16/17/9 17/18/10 18/19/11
f 18/19/11 17/18/10 19/20/11
f 20/21/12 19/20/11 21/22/12
f 22/23/13 20/21/12 21/22/12
f 23/24/14 22/23/13 24/25/13
f 25/26/14 23/24/14 24/25/13
f 26/27/15 27/28/15 25/26/14
f 26/27/15 28/29/16 27/28/15
f 29/30/16 30/31/17 28/29/16
f 29/30/16 31/32/18 30/31/17
f 31/32/18 32/33/19 33/2/19
f 33/2/19 32/33/19 34/34/20
f 34/34/20 35/35/20 36/36/21
f 36/36/21 35/35/20 37/37/21
f 38/38/22 37/37/21 39/39/22
f 40/40/23 38/38/22 39/39/22
f 41/41/24 40/40/23 42/42/23
f 43/43/24 41/41/24 42/42/23
f 44/44/25 45/45/25 43/43/24
f 44/44/25 46/46/26 45/45/25
f 47/47/27 48/48/28 49/12/29
f 48/48/28 50/10/30 49/12/29
f 51/2/31 52/49/32 53/50/31
f 51/2/31 53/50/31 54/51/33
f 54/51/33 55/52/34 56/53/35
f 56/53/35 55/52/34 57/54/36
f 58/55/37 57/54/36 59/56/37
f 60/57/38 58/55/37 59/56/37
f 61/58/39 60/57/38 62/59/38
f 63/60/40 61/58/39 64/61/39
f 65/62/40 63/60/40 64/61/39
f 66/63/41 67/64/41 65/62/40
f 66/63/41 68/65/42 67/64/41
f 69/18/42 70/19/43 68/17/42
f 69/18/42 71/20/43 70/19/43
f 71/20/43 72/22/44 73/21/44
f 73/21/44 72/22/44 74/23/45
f 74/23/45 75/25/45 76/24/46
f 76/24/46 75/25/45 77/26/46
f 78/28/47 77/26/46 79/27/47
f 80/29/48 78/28/47 79/27/47
f 81/31/49 80/29/48 82/30/48
f 83/32/49 81/31/49 82/30/48
f 84/33/50 85/2/50 83/32/49
f 84/33/50 86/34/51 85/2/50
f 87/35/52 88/36/53 86/34/51
f 87/35/52 89/37/53 88/36/53
f 89/37/53 90/39/54 91/38/54
f 91/38/54 90/39/54 92/40/55
f 92/40/55 93/42/55 94/41/56
f 94/41/56 93/42/55 95/43/56
f 96/45/57 95/43/56 97/44/57
f 98/46/58 96/45/57 97/44/57
f 99/66/59 98/46/58 100/67/58
f 101/68/60 99/66/59 100/67/58
f 2/2/2 102/69/2 3/3/1
f 103/70/61 2/2/2 104/51/61
f 105/71/62 103/70/61 104/51/61
f 106/53/62 105/71/62 104/51/61
f 106/53/62 107/72/63 105/71/62
f 106/53/62 108/55/63 107/72/63
f 107/72/63 108/55/63 109/73/64
f 109/73/64 108/55/63 110/57/64
f 111/74/65 109/73/64 110/57/64
f 112/58/65 111/74/65 110/57/64
f 112/58/65 113/75/66 111/74/65
f 112/58/65 114/60/66 113/75/66
f 113/75/66 114/60/66 115/76/67
f 115/76/67 114/60/66 116/64/68
f 101/77/60 115/76/67 116/64/68
f 99/65/59 101/77/60 116/64/68
f 97/44/57 100/67/58 98/46/58
f 95/43/56 96/45/57 94/41/56
f 93/42/55 92/40/55 90/39/54
f 91/38/54 88/36/53 89/37/53
f 86/34/51 84/33/50 87/35/52
f 81/31/49 83/32/49 85/2/50
f 79/27/47 82/30/48 80/29/48
f 77/26/46 78/28/47 76/24/46
f 75/25/45 74/23/45 72/22/44
f 73/21/44 70/19/43 71/20/43
f 68/65/42 66/63/41 69/78/42
f 63/60/40 65/62/40 67/64/41
f 62/59/38 64/61/39 61/58/39
f 59/56/37 62/59/38 60/57/38
f 57/54/36 58/55/37 56/53/35
f 55/52/34 54/51/33 53/50/31
f 103/70/61 102/69/2 2/2/2
f 52/49/32 51/2/31 117/1/69
f 118/79/70 52/49/32 117/1/69
f 119/4/70 118/79/70 117/1/69
f 119/4/70 120/80/71 118/79/70
f 119/4/70 121/5/71 120/80/71
f 120/80/71 121/5/71 122/81/72
f 122/81/72 121/5/71 123/9/72
f 124/82/30 122/81/72 123/9/72
f 50/10/30 124/82/30 123/9/72
f 50/10/30 48/48/28 124/82/30
f 49/12/29 125/15/27 47/47/27
f 47/47/27 125/15/27 126/83/73
f 126/83/73 125/15/27 127/16/73
f 128/67/26 126/68/73 127/66/73
f 46/46/26 128/67/26 127/66/73
f 46/46/26 44/44/25 128/67/26
f 41/41/24 43/43/24 45/45/25
f 39/39/22 42/42/23 40/40/23
f 37/37/21 38/38/22 36/36/21
f 35/35/20 34/34/20 32/33/19
f 33/2/19 30/31/17 31/32/18
f 28/29/16 26/27/15 29/30/16
f 23/24/14 25/26/14 27/28/15
f 21/22/12 24/25/13 22/23/13
f 19/20/11 20/21/12 18/19/11
f 17/84/10 16/16/9 14/14/8
f 15/15/8 12/12/7 13/13/7
f 10/10/6 8/8/5 11/11/6
f 5/5/4 7/7/4 9/9/5
f 3/3/1 6/6/3 4/4/3
f 129/85/74 130/86/74 131/87/75
f 132/88/74 133/85/74 134/87/74
f 135/89/74 136/88/74 137/87/74
f 138/90/74 139/89/74 140/87/74
f 141/91/74 142/90/74 143/87/74
f 144/92/74 145/91/74 146/87/74
f 147/93/74 148/92/74 149/87/74
f 150/94/74 151/93/74 152/87/74
f 153/95/74 154/94/74 155/87/74
f 156/96/74 157/95/74 158/87/74
f 159/97/74 160/96/74 161/87/74
f 162/98/74 163/87/74 164/99/74
f 165/98/76 166/97/76 167/87/76
f 168/99/74 169/87/74 170/100/74
f 171/100/74 172/87/74 173/101/74
f 174/101/74 175/87/74 176/102/74
f 177/102/74 178/87/74 179/103/74
f 180/87/75 181/104/75 182/103/75
f 183/87/76 184/105/76 185/104/76
f 186/87/74 187/106/74 188/105/74
f 189/87/75 190/107/75 191/106/75
f 192/87/74 193/108/74 194/107/74
f 195/87/74 196/109/74 197/108/74
f 198/87/75 199/110/75 200/109/75
f 201/87/76 202/111/76 203/110/76
f 204/112/74 205/113/74 206/87/74
f 207/87/74 208/113/74 209/111/74
f 210/114/74 211/112/74 212/87/74
f 213/115/75 214/114/75 215/87/75
f 216/116/74 217/87/74 218/117/74
f 219/117/74 220/87/74 221/118/74
f 222/118/74 223/87/74 224/119/74
f 225/87/74 226/120/74 227/119/74
f 228/87/74 229/121/74 230/120/74
f 231/87/74 232/122/74 233/121/74
f 234/87/74 235/123/74 236/122/74
f 237/87/74 238/124/74 239/123/74
f 240/87/76 241/125/76 242/124/76
f 243/87/74 244/126/74 245/125/74
f 246/87/75 247/127/75 248/126/75
f 249/128/74 250/129/74 251/87/74
f 252/87/76 253/129/76 254/127/76
f 255/130/74 256/128/74 257/87/74
f 258/131/74 259/130/74 260/87/74
f 261/132/77 262/131/77 263/87/77
f 264/133/74 265/132/74 266/87/74
f 267/134/74 268/133/74 269/87/74
f 270/134/74 271/87/74 272/135/74
f 273/135/74 274/87/74 275/136/74
f 276/136/74 277/87/74 278/137/74
f 279/137/74 280/87/74 281/138/74
f 282/138/76 283/87/76 284/139/76
f 285/139/74 286/87/74 287/140/74
f 288/140/74 289/87/74 290/141/74
f 291/141/74 292/87/74 293/142/74
f 294/87/77 295/143/77 296/144/77
f 297/142/74 298/87/74 299/144/74
f 300/87/74 301/145/74 302/143/74
f 303/87/74 304/146/74 305/145/74
f 306/87/74 307/147/74 308/146/74
f 309/87/78 310/148/79 311/147/80
f 312/116/74 313/115/74 314/87/74
f 315/115/81 316/117/82 317/116/81
f 318/114/81 319/117/81 320/115/81
f 321/112/81 322/117/81 323/114/81
f 324/113/81 325/117/81 326/112/81
f 327/111/81 328/117/81 329/113/81
f 330/110/81 331/117/81 332/111/81
f 333/109/81 334/117/81 335/110/81
f 336/108/81 337/117/81 338/109/81
f 339/107/81 340/117/81 341/108/81
f 342/106/81 343/117/81 344/107/81
f 345/105/81 346/117/81 347/106/81
f 348/104/81 349/103/81 350/117/81
f 351/104/81 352/117/81 353/105/81
f 354/103/83 355/102/83 356/117/83
f 357/102/81 358/101/81 359/117/81
f 360/101/81 361/100/81 362/117/81
f 363/100/84 364/99/84 365/117/84
f 366/117/82 367/99/82 368/98/82
f 369/117/83 370/98/83 371/97/83
f 372/117/82 373/97/82 374/96/82
f 375/117/83 376/96/83 377/95/83
f 378/117/81 379/95/81 380/94/81
f 381/117/81 382/94/81 383/93/81
f 384/117/83 385/93/83 386/92/83
f 387/117/82 388/92/82 389/91/82
f 390/89/81 391/117/81 392/90/81
f 393/117/81 394/91/81 395/90/81
f 396/88/81 397/117/81 398/89/81
f 399/85/81 400/117/81 401/88/81
f 402/86/81 403/87/81 404/117/81
f 405/87/81 406/148/81 407/117/81
f 408/148/81 409/147/81 410/117/81
f 411/117/81 412/147/81 413/146/81
f 414/117/81 415/146/81 416/145/81
f 417/117/81 418/145/81 419/143/81
f 420/117/81 421/143/81 422/144/81
f 423/117/81 424/144/81 425/142/81
f 426/117/82 427/142/82 428/141/82
f 429/117/81 430/141/81 431/140/81
f 432/117/83 433/140/83 434/139/83
f 435/137/81 436/117/81 437/138/81
f 438/117/82 439/139/82 440/138/82
f 441/136/81 442/117/81 443/137/81
f 444/135/81 445/117/81 446/136/81
f 447/134/81 448/117/81 449/135/81
f 450/133/81 451/117/81 452/134/81
f 453/132/81 454/117/81 455/133/81
f 456/132/81 457/131/81 458/117/81
f 459/131/81 460/130/81 461/117/81
f 462/130/81 463/128/81 464/117/81
f 465/128/81 466/129/81 467/117/81
f 468/129/82 469/127/82 470/117/82
f 471/127/81 472/126/81 473/117/81
f 474/126/81 475/125/81 476/117/81
f 477/125/81 478/124/81 479/117/81
f 480/117/85 481/123/85 482/122/85
f 483/124/81 484/123/81 485/117/81
f 486/117/81 487/122/81 488/121/81
f 489/117/81 490/121/81 491/120/81
f 492/117/81 493/120/81 494/119/81
f 495/117/86 496/119/87 497/118/88
f 498/86/81 499/117/81 500/85/81
