# Blender 4.4.3
# www.blender.org
mtllib Mesh_20.004.mtl
o Mesh_20.004
v -0.000150 0.008710 -0.012352
v -0.000150 0.008710 -0.012343
v -0.000150 0.008716 -0.012337
v -0.000150 0.008773 -0.012352
v -0.000150 0.008721 -0.012330
v -0.000150 0.008726 -0.012324
v -0.000150 0.008732 -0.012319
v -0.000150 0.008738 -0.012313
v -0.000150 0.008773 -0.012314
v -0.000150 0.008744 -0.012308
v -0.000150 0.008750 -0.012302
v -0.000150 0.008756 -0.012297
v -0.000150 0.008710 -0.012343
v -0.000065 0.008710 -0.012343
v -0.000065 0.008714 -0.012339
v -0.000150 0.008716 -0.012337
v -0.000150 0.008710 -0.012343
v -0.000065 0.008717 -0.012335
v -0.000150 0.008716 -0.012337
v -0.000150 0.008721 -0.012330
v -0.000150 0.008716 -0.012337
v -0.000150 0.008721 -0.012330
v -0.000065 0.008720 -0.012331
v -0.000065 0.008723 -0.012327
v -0.000150 0.008721 -0.012330
v -0.000150 0.008726 -0.012324
v -0.000150 0.008721 -0.012330
v -0.000065 0.008727 -0.012324
v -0.000065 0.008730 -0.012320
v -0.000150 0.008726 -0.012324
v -0.000150 0.008726 -0.012324
v -0.000150 0.008726 -0.012324
v -0.000150 0.008732 -0.012319
v -0.000150 0.008732 -0.012319
v -0.000065 0.008734 -0.012317
v -0.000150 0.008738 -0.012313
v -0.000150 0.008732 -0.012319
v -0.000065 0.008738 -0.012313
v -0.000150 0.008738 -0.012313
v -0.000065 0.008741 -0.012310
v -0.000150 0.008738 -0.012313
v -0.000150 0.008738 -0.012313
v -0.000150 0.008744 -0.012308
v -0.000150 0.008744 -0.012308
v -0.000065 0.008745 -0.012306
v -0.000150 0.008750 -0.012302
v -0.000147 0.008756 -0.012297
v -0.000150 0.008756 -0.012297
v -0.000150 0.008750 -0.012302
v -0.000150 0.008744 -0.012308
v -0.000150 0.008750 -0.012302
v -0.000143 0.008756 -0.012297
v -0.000065 0.008749 -0.012303
v -0.000150 0.008750 -0.012302
v -0.000140 0.008756 -0.012297
v -0.000150 0.008750 -0.012302
v -0.000136 0.008756 -0.012297
v -0.000150 0.008750 -0.012302
v -0.000133 0.008757 -0.012297
v -0.000065 0.008753 -0.012300
v -0.000130 0.008757 -0.012296
v -0.000123 0.008759 -0.012295
v -0.000127 0.008758 -0.012296
v -0.000100 0.008769 -0.012288
v -0.000102 0.008767 -0.012289
v -0.000065 0.008765 -0.012291
v -0.000065 0.008769 -0.012288
v -0.000105 0.008766 -0.012290
v -0.000108 0.008764 -0.012291
v -0.000065 0.008761 -0.012294
v -0.000111 0.008763 -0.012292
v -0.000114 0.008762 -0.012293
v -0.000065 0.008757 -0.012297
v -0.000117 0.008761 -0.012294
v -0.000120 0.008760 -0.012294
v -0.000150 0.008750 -0.012302
v -0.000150 0.008750 -0.012302
v -0.000065 0.008834 -0.012287
v -0.000088 0.008803 -0.012287
v -0.000065 0.008772 -0.012287
v -0.000095 0.008775 -0.012287
v -0.000097 0.008772 -0.012287
v -0.000093 0.008779 -0.012287
v -0.000091 0.008783 -0.012287
v -0.000090 0.008787 -0.012287
v -0.000089 0.008791 -0.012287
v -0.000088 0.008795 -0.012287
v -0.000088 0.008799 -0.012287
v -0.000088 0.008807 -0.012287
v -0.000088 0.008811 -0.012287
v -0.000089 0.008815 -0.012287
v -0.000090 0.008819 -0.012287
v -0.000091 0.008823 -0.012287
v -0.000095 0.008831 -0.012287
v -0.000097 0.008834 -0.012287
v -0.000093 0.008827 -0.012287
v -0.000150 0.008856 -0.012302
v -0.000147 0.008850 -0.012297
v -0.000143 0.008850 -0.012297
v -0.000140 0.008850 -0.012297
v -0.000137 0.008850 -0.012297
v -0.000133 0.008849 -0.012297
v -0.000065 0.008868 -0.012313
v -0.000065 0.008872 -0.012317
v -0.000150 0.008868 -0.012313
v -0.000065 0.008879 -0.012324
v -0.000150 0.008880 -0.012324
v -0.000065 0.008876 -0.012320
v -0.000065 0.008883 -0.012327
v -0.000150 0.008885 -0.012330
v -0.000150 0.008850 -0.012297
v -0.000150 0.008895 -0.012343
v -0.000065 0.008892 -0.012339
v -0.000065 0.008895 -0.012343
v -0.000150 0.008890 -0.012337
v -0.000065 0.008889 -0.012335
v -0.000065 0.008886 -0.012331
v -0.000150 0.008874 -0.012319
v -0.000065 0.008865 -0.012310
v -0.000150 0.008862 -0.012308
v -0.000065 0.008861 -0.012306
v -0.000130 0.008849 -0.012296
v -0.000065 0.008857 -0.012303
v -0.000127 0.008848 -0.012296
v -0.000065 0.008853 -0.012300
v -0.000123 0.008847 -0.012295
v -0.000120 0.008846 -0.012294
v -0.000065 0.008849 -0.012297
v -0.000114 0.008844 -0.012293
v -0.000111 0.008843 -0.012292
v -0.000065 0.008845 -0.012294
v -0.000065 0.008837 -0.012288
v -0.000065 0.008841 -0.012291
v -0.000100 0.008837 -0.012288
v -0.000102 0.008839 -0.012289
v -0.000105 0.008840 -0.012290
v -0.000108 0.008842 -0.012291
v -0.000117 0.008845 -0.012294
v -0.000150 0.008833 -0.012314
v -0.000150 0.008868 -0.012313
v -0.000150 0.008833 -0.012352
v -0.000150 0.008850 -0.012297
v -0.000150 0.008856 -0.012302
v -0.000150 0.008856 -0.012302
v -0.000150 0.008862 -0.012308
v -0.000150 0.008862 -0.012308
v -0.000150 0.008868 -0.012313
v -0.000150 0.008868 -0.012313
v -0.000150 0.008874 -0.012319
v -0.000150 0.008874 -0.012319
v -0.000150 0.008880 -0.012324
v -0.000150 0.008880 -0.012324
v -0.000150 0.008885 -0.012330
v -0.000150 0.008895 -0.012343
v -0.000150 0.008895 -0.012352
v -0.000150 0.008890 -0.012337
v -0.000150 0.008885 -0.012330
v -0.000150 0.008890 -0.012337
v -0.000150 0.008890 -0.012337
v -0.000065 0.008845 -0.012294
v -0.000065 0.008834 -0.012287
v -0.000065 0.008772 -0.012287
v -0.000065 0.008761 -0.012294
v -0.000065 0.008772 -0.012287
v -0.000065 0.008765 -0.012291
v -0.000065 0.008772 -0.012287
v -0.000065 0.008771 -0.012287
v -0.000065 0.008769 -0.012288
v -0.000065 0.008770 -0.012287
v -0.000065 0.008769 -0.012288
v -0.000065 0.008770 -0.012287
v -0.000065 0.008769 -0.012288
v -0.000065 0.008772 -0.012287
v -0.000065 0.008769 -0.012288
v -0.000065 0.008765 -0.012291
v -0.000065 0.008845 -0.012294
v -0.000065 0.008772 -0.012287
v -0.000065 0.008761 -0.012294
v -0.000065 0.008845 -0.012294
v -0.000065 0.008761 -0.012294
v -0.000065 0.008849 -0.012297
v -0.000065 0.008761 -0.012294
v -0.000065 0.008757 -0.012297
v -0.000065 0.008849 -0.012297
v -0.000065 0.008757 -0.012297
v -0.000065 0.008853 -0.012300
v -0.000065 0.008849 -0.012297
v -0.000065 0.008753 -0.012300
v -0.000065 0.008853 -0.012300
v -0.000065 0.008757 -0.012297
v -0.000065 0.008857 -0.012303
v -0.000065 0.008853 -0.012300
v -0.000065 0.008753 -0.012300
v -0.000065 0.008857 -0.012303
v -0.000065 0.008753 -0.012300
v -0.000065 0.008749 -0.012303
v -0.000065 0.008857 -0.012303
v -0.000065 0.008749 -0.012303
v -0.000065 0.008861 -0.012306
v -0.000065 0.008749 -0.012303
v -0.000065 0.008745 -0.012306
v -0.000065 0.008861 -0.012306
v -0.000065 0.008745 -0.012306
v -0.000065 0.008865 -0.012310
v -0.000065 0.008861 -0.012306
v -0.000065 0.008741 -0.012310
v -0.000065 0.008865 -0.012310
v -0.000065 0.008745 -0.012306
v -0.000065 0.008868 -0.012313
v -0.000065 0.008865 -0.012310
v -0.000065 0.008741 -0.012310
v -0.000065 0.008868 -0.012313
v -0.000065 0.008741 -0.012310
v -0.000065 0.008738 -0.012313
v -0.000065 0.008710 -0.012343
v -0.000065 0.008710 -0.012352
v -0.000065 0.008714 -0.012339
v -0.000065 0.008868 -0.012313
v -0.000065 0.008738 -0.012313
v -0.000065 0.008872 -0.012317
v -0.000065 0.008720 -0.012331
v -0.000065 0.008717 -0.012335
v -0.000065 0.008734 -0.012317
v -0.000065 0.008730 -0.012320
v -0.000065 0.008895 -0.012343
v -0.000065 0.008892 -0.012339
v -0.000065 0.008895 -0.012352
v -0.000065 0.008892 -0.012339
v -0.000065 0.008889 -0.012335
v -0.000065 0.008889 -0.012335
v -0.000065 0.008886 -0.012331
v -0.000065 0.008886 -0.012331
v -0.000065 0.008883 -0.012327
v -0.000065 0.008883 -0.012327
v -0.000065 0.008879 -0.012324
v -0.000065 0.008879 -0.012324
v -0.000065 0.008876 -0.012320
v -0.000065 0.008876 -0.012320
v -0.000065 0.008872 -0.012317
v -0.000065 0.008734 -0.012317
v -0.000065 0.008730 -0.012320
v -0.000065 0.008727 -0.012324
v -0.000065 0.008727 -0.012324
v -0.000065 0.008723 -0.012327
v -0.000065 0.008723 -0.012327
v -0.000065 0.008720 -0.012331
v -0.000065 0.008734 -0.012317
v -0.000065 0.008872 -0.012317
v -0.000065 0.008872 -0.012317
v -0.000065 0.008738 -0.012313
v -0.000065 0.008734 -0.012317
v -0.000065 0.008717 -0.012335
v -0.000065 0.008714 -0.012339
v -0.000065 0.008845 -0.012294
v -0.000065 0.008841 -0.012291
v -0.000065 0.008834 -0.012287
v -0.000065 0.008836 -0.012287
v -0.000065 0.008834 -0.012287
v -0.000065 0.008836 -0.012287
v -0.000065 0.008834 -0.012287
v -0.000065 0.008837 -0.012288
v -0.000065 0.008835 -0.012287
v -0.000065 0.008834 -0.012287
v -0.000065 0.008837 -0.012288
v -0.000065 0.008834 -0.012287
v -0.000065 0.008841 -0.012291
v -0.000065 0.008710 -0.012352
v -0.000065 0.008710 -0.012343
v -0.000150 0.008710 -0.012352
v -0.000065 0.008710 -0.012343
v -0.000150 0.008710 -0.012343
v -0.000150 0.008710 -0.012352
v -0.000150 0.008895 -0.012352
v -0.000150 0.008895 -0.012343
v -0.000065 0.008895 -0.012352
v -0.000150 0.008895 -0.012343
v -0.000065 0.008895 -0.012343
v -0.000065 0.008895 -0.012352
v -0.000150 0.008710 -0.012352
v -0.000134 0.008775 -0.012352
v -0.000132 0.008776 -0.012352
v -0.000065 0.008710 -0.012352
v -0.000115 0.008801 -0.012352
v -0.000115 0.008803 -0.012352
v -0.000148 0.008833 -0.012352
v -0.000150 0.008833 -0.012352
v -0.000150 0.008895 -0.012352
v -0.000150 0.008895 -0.012352
v -0.000147 0.008833 -0.012352
v -0.000150 0.008895 -0.012352
v -0.000145 0.008833 -0.012352
v -0.000150 0.008895 -0.012352
v -0.000144 0.008833 -0.012352
v -0.000150 0.008895 -0.012352
v -0.000142 0.008833 -0.012352
v -0.000150 0.008895 -0.012352
v -0.000140 0.008833 -0.012352
v -0.000150 0.008895 -0.012352
v -0.000139 0.008832 -0.012352
v -0.000150 0.008895 -0.012352
v -0.000137 0.008832 -0.012352
v -0.000150 0.008895 -0.012352
v -0.000136 0.008831 -0.012352
v -0.000150 0.008895 -0.012352
v -0.000134 0.008831 -0.012352
v -0.000150 0.008895 -0.012352
v -0.000132 0.008830 -0.012352
v -0.000150 0.008895 -0.012352
v -0.000131 0.008830 -0.012352
v -0.000150 0.008895 -0.012352
v -0.000065 0.008895 -0.012352
v -0.000065 0.008895 -0.012352
v -0.000130 0.008829 -0.012352
v -0.000065 0.008895 -0.012352
v -0.000128 0.008828 -0.012352
v -0.000065 0.008895 -0.012352
v -0.000127 0.008827 -0.012352
v -0.000065 0.008895 -0.012352
v -0.000126 0.008826 -0.012352
v -0.000065 0.008895 -0.012352
v -0.000124 0.008825 -0.012352
v -0.000065 0.008895 -0.012352
v -0.000123 0.008824 -0.012352
v -0.000065 0.008895 -0.012352
v -0.000122 0.008822 -0.012352
v -0.000065 0.008895 -0.012352
v -0.000121 0.008821 -0.012352
v -0.000065 0.008895 -0.012352
v -0.000120 0.008820 -0.012352
v -0.000065 0.008895 -0.012352
v -0.000119 0.008819 -0.012352
v -0.000117 0.008814 -0.012352
v -0.000118 0.008816 -0.012352
v -0.000065 0.008895 -0.012352
v -0.000065 0.008895 -0.012352
v -0.000119 0.008817 -0.012352
v -0.000117 0.008813 -0.012352
v -0.000065 0.008895 -0.012352
v -0.000116 0.008811 -0.012352
v -0.000065 0.008895 -0.012352
v -0.000116 0.008809 -0.012352
v -0.000065 0.008895 -0.012352
v -0.000115 0.008808 -0.012352
v -0.000065 0.008895 -0.012352
v -0.000115 0.008806 -0.012352
v -0.000065 0.008895 -0.012352
v -0.000115 0.008805 -0.012352
v -0.000065 0.008895 -0.012352
v -0.000065 0.008895 -0.012352
v -0.000065 0.008895 -0.012352
v -0.000065 0.008710 -0.012352
v -0.000065 0.008710 -0.012352
v -0.000115 0.008800 -0.012352
v -0.000065 0.008710 -0.012352
v -0.000115 0.008798 -0.012352
v -0.000065 0.008710 -0.012352
v -0.000116 0.008797 -0.012352
v -0.000065 0.008710 -0.012352
v -0.000116 0.008795 -0.012352
v -0.000065 0.008710 -0.012352
v -0.000117 0.008793 -0.012352
v -0.000118 0.008790 -0.012352
v -0.000065 0.008710 -0.012352
v -0.000119 0.008789 -0.012352
v -0.000117 0.008792 -0.012352
v -0.000065 0.008710 -0.012352
v -0.000065 0.008710 -0.012352
v -0.000119 0.008787 -0.012352
v -0.000065 0.008710 -0.012352
v -0.000120 0.008786 -0.012352
v -0.000065 0.008710 -0.012352
v -0.000121 0.008785 -0.012352
v -0.000065 0.008710 -0.012352
v -0.000122 0.008784 -0.012352
v -0.000065 0.008710 -0.012352
v -0.000123 0.008782 -0.012352
v -0.000065 0.008710 -0.012352
v -0.000124 0.008781 -0.012352
v -0.000065 0.008710 -0.012352
v -0.000126 0.008780 -0.012352
v -0.000065 0.008710 -0.012352
v -0.000127 0.008779 -0.012352
v -0.000065 0.008710 -0.012352
v -0.000128 0.008778 -0.012352
v -0.000065 0.008710 -0.012352
v -0.000130 0.008777 -0.012352
v -0.000065 0.008710 -0.012352
v -0.000131 0.008776 -0.012352
v -0.000065 0.008710 -0.012352
v -0.000150 0.008710 -0.012352
v -0.000150 0.008710 -0.012352
v -0.000136 0.008775 -0.012352
v -0.000150 0.008710 -0.012352
v -0.000137 0.008774 -0.012352
v -0.000150 0.008710 -0.012352
v -0.000139 0.008774 -0.012352
v -0.000150 0.008710 -0.012352
v -0.000150 0.008710 -0.012352
v -0.000140 0.008773 -0.012352
v -0.000150 0.008710 -0.012352
v -0.000142 0.008773 -0.012352
v -0.000150 0.008710 -0.012352
v -0.000144 0.008773 -0.012352
v -0.000150 0.008710 -0.012352
v -0.000145 0.008773 -0.012352
v -0.000150 0.008710 -0.012352
v -0.000147 0.008773 -0.012352
v -0.000065 0.008895 -0.012352
v -0.000150 0.008710 -0.012352
v -0.000148 0.008773 -0.012352
v -0.000065 0.008710 -0.012352
v -0.000150 0.008710 -0.012352
v -0.000150 0.008773 -0.012352
v -0.000148 0.008833 -0.012352
v -0.000147 0.008833 -0.012352
v -0.000148 0.008833 -0.012314
v -0.000147 0.008833 -0.012352
v -0.000145 0.008833 -0.012352
v -0.000147 0.008833 -0.012314
v -0.000145 0.008833 -0.012352
v -0.000145 0.008833 -0.012314
v -0.000144 0.008833 -0.012352
v -0.000144 0.008833 -0.012314
v -0.000142 0.008833 -0.012352
v -0.000142 0.008833 -0.012314
v -0.000140 0.008833 -0.012352
v -0.000140 0.008833 -0.012314
v -0.000139 0.008832 -0.012352
v -0.000140 0.008833 -0.012352
v -0.000137 0.008832 -0.012352
v -0.000139 0.008832 -0.012314
v -0.000139 0.008832 -0.012352
v -0.000137 0.008832 -0.012314
v -0.000137 0.008832 -0.012352
v -0.000136 0.008831 -0.012314
v -0.000136 0.008831 -0.012352
v -0.000136 0.008831 -0.012352
v -0.000134 0.008831 -0.012352
v -0.000134 0.008831 -0.012314
v -0.000134 0.008831 -0.012352
v -0.000132 0.008830 -0.012352
v -0.000132 0.008830 -0.012314
v -0.000132 0.008830 -0.012352
v -0.000131 0.008830 -0.012352
v -0.000131 0.008830 -0.012352
v -0.000131 0.008830 -0.012314
v -0.000130 0.008829 -0.012352
v -0.000130 0.008829 -0.012314
v -0.000130 0.008829 -0.012352
v -0.000128 0.008828 -0.012352
v -0.000128 0.008828 -0.012352
v -0.000127 0.008827 -0.012352
v -0.000128 0.008828 -0.012314
v -0.000127 0.008827 -0.012352
v -0.000127 0.008827 -0.012314
v -0.000126 0.008826 -0.012352
v -0.000126 0.008826 -0.012314
v -0.000124 0.008825 -0.012352
v -0.000126 0.008826 -0.012352
v -0.000123 0.008824 -0.012352
v -0.000124 0.008825 -0.012314
v -0.000124 0.008825 -0.012352
v -0.000123 0.008824 -0.012314
v -0.000123 0.008824 -0.012352
v -0.000122 0.008822 -0.012314
v -0.000122 0.008822 -0.012352
v -0.000122 0.008822 -0.012352
v -0.000121 0.008821 -0.012352
v -0.000121 0.008821 -0.012314
v -0.000121 0.008821 -0.012352
v -0.000120 0.008820 -0.012352
v -0.000120 0.008820 -0.012352
v -0.000120 0.008820 -0.012314
v -0.000119 0.008819 -0.012352
v -0.000119 0.008819 -0.012314
v -0.000119 0.008819 -0.012352
v -0.000119 0.008817 -0.012352
v -0.000119 0.008817 -0.012352
v -0.000118 0.008816 -0.012352
v -0.000119 0.008817 -0.012314
v -0.000118 0.008816 -0.012352
v -0.000118 0.008816 -0.012314
v -0.000117 0.008814 -0.012352
v -0.000117 0.008814 -0.012314
v -0.000117 0.008813 -0.012352
v -0.000117 0.008814 -0.012352
v -0.000116 0.008811 -0.012352
v -0.000117 0.008813 -0.012314
v -0.000117 0.008813 -0.012352
v -0.000116 0.008811 -0.012314
v -0.000116 0.008811 -0.012352
v -0.000116 0.008809 -0.012314
v -0.000116 0.008809 -0.012352
v -0.000116 0.008809 -0.012352
v -0.000115 0.008808 -0.012352
v -0.000115 0.008808 -0.012314
v -0.000115 0.008808 -0.012352
v -0.000115 0.008806 -0.012352
v -0.000115 0.008806 -0.012352
v -0.000115 0.008806 -0.012314
v -0.000115 0.008805 -0.012352
v -0.000115 0.008805 -0.012314
v -0.000115 0.008805 -0.012352
v -0.000115 0.008803 -0.012352
v -0.000115 0.008803 -0.012352
v -0.000115 0.008801 -0.012352
v -0.000115 0.008803 -0.012314
v -0.000115 0.008801 -0.012352
v -0.000115 0.008801 -0.012314
v -0.000115 0.008800 -0.012352
v -0.000115 0.008800 -0.012314
v -0.000115 0.008798 -0.012352
v -0.000115 0.008800 -0.012352
v -0.000116 0.008797 -0.012352
v -0.000115 0.008798 -0.012314
v -0.000115 0.008798 -0.012352
v -0.000116 0.008795 -0.012352
v -0.000116 0.008797 -0.012314
v -0.000116 0.008797 -0.012352
v -0.000116 0.008795 -0.012314
v -0.000116 0.008795 -0.012352
v -0.000117 0.008793 -0.012314
v -0.000117 0.008793 -0.012352
v -0.000117 0.008793 -0.012352
v -0.000117 0.008792 -0.012352
v -0.000117 0.008792 -0.012314
v -0.000117 0.008792 -0.012352
v -0.000118 0.008790 -0.012352
v -0.000118 0.008790 -0.012352
v -0.000118 0.008790 -0.012314
v -0.000119 0.008789 -0.012352
v -0.000119 0.008789 -0.012314
v -0.000119 0.008789 -0.012352
v -0.000119 0.008787 -0.012352
v -0.000119 0.008787 -0.012352
v -0.000120 0.008786 -0.012352
v -0.000119 0.008787 -0.012314
v -0.000120 0.008786 -0.012352
v -0.000120 0.008786 -0.012314
v -0.000121 0.008785 -0.012352
v -0.000121 0.008785 -0.012314
v -0.000122 0.008784 -0.012352
v -0.000121 0.008785 -0.012352
v -0.000123 0.008782 -0.012352
v -0.000122 0.008784 -0.012314
v -0.000122 0.008784 -0.012352
v -0.000123 0.008782 -0.012314
v -0.000123 0.008782 -0.012352
v -0.000124 0.008781 -0.012314
v -0.000124 0.008781 -0.012352
v -0.000124 0.008781 -0.012352
v -0.000126 0.008780 -0.012352
v -0.000126 0.008780 -0.012314
v -0.000126 0.008780 -0.012352
v -0.000127 0.008779 -0.012352
v -0.000127 0.008779 -0.012352
v -0.000127 0.008779 -0.012314
v -0.000148 0.008773 -0.012314
v -0.000147 0.008773 -0.012314
v -0.000148 0.008773 -0.012352
v -0.000150 0.008773 -0.012352
v -0.000150 0.008773 -0.012314
v -0.000150 0.008773 -0.012352
v -0.000148 0.008773 -0.012352
v -0.000147 0.008773 -0.012352
v -0.000148 0.008773 -0.012352
v -0.000145 0.008773 -0.012314
v -0.000147 0.008773 -0.012352
v -0.000145 0.008773 -0.012352
v -0.000147 0.008773 -0.012352
v -0.000145 0.008773 -0.012352
v -0.000144 0.008773 -0.012314
v -0.000145 0.008773 -0.012352
v -0.000144 0.008773 -0.012352
v -0.000142 0.008773 -0.012314
v -0.000144 0.008773 -0.012352
v -0.000142 0.008773 -0.012352
v -0.000144 0.008773 -0.012352
v -0.000140 0.008773 -0.012314
v -0.000142 0.008773 -0.012352
v -0.000140 0.008773 -0.012352
v -0.000142 0.008773 -0.012352
v -0.000140 0.008773 -0.012352
v -0.000139 0.008774 -0.012314
v -0.000140 0.008773 -0.012352
v -0.000139 0.008774 -0.012352
v -0.000137 0.008774 -0.012314
v -0.000139 0.008774 -0.012352
v -0.000137 0.008774 -0.012352
v -0.000139 0.008774 -0.012352
v -0.000136 0.008775 -0.012314
v -0.000137 0.008774 -0.012352
v -0.000136 0.008775 -0.012352
v -0.000137 0.008774 -0.012352
v -0.000136 0.008775 -0.012352
v -0.000134 0.008775 -0.012314
v -0.000136 0.008775 -0.012352
v -0.000134 0.008775 -0.012352
v -0.000132 0.008776 -0.012314
v -0.000134 0.008775 -0.012352
v -0.000132 0.008776 -0.012352
v -0.000134 0.008775 -0.012352
v -0.000131 0.008776 -0.012314
v -0.000132 0.008776 -0.012352
v -0.000131 0.008776 -0.012352
v -0.000132 0.008776 -0.012352
v -0.000131 0.008776 -0.012352
v -0.000130 0.008777 -0.012314
v -0.000131 0.008776 -0.012352
v -0.000130 0.008777 -0.012352
v -0.000128 0.008778 -0.012314
v -0.000130 0.008777 -0.012352
v -0.000128 0.008778 -0.012352
v -0.000130 0.008777 -0.012352
v -0.000128 0.008778 -0.012352
v -0.000127 0.008779 -0.012352
v -0.000128 0.008778 -0.012352
v -0.000126 0.008780 -0.012352
v -0.000123 0.008782 -0.012352
v -0.000124 0.008781 -0.012352
v -0.000122 0.008784 -0.012352
v -0.000121 0.008785 -0.012352
v -0.000120 0.008786 -0.012352
v -0.000119 0.008787 -0.012352
v -0.000118 0.008790 -0.012352
v -0.000119 0.008789 -0.012352
v -0.000117 0.008792 -0.012352
v -0.000116 0.008795 -0.012352
v -0.000117 0.008793 -0.012352
v -0.000116 0.008797 -0.012352
v -0.000115 0.008798 -0.012352
v -0.000115 0.008800 -0.012352
v -0.000115 0.008801 -0.012352
v -0.000115 0.008803 -0.012352
v -0.000115 0.008806 -0.012352
v -0.000115 0.008805 -0.012352
v -0.000115 0.008808 -0.012352
v -0.000116 0.008811 -0.012352
v -0.000116 0.008809 -0.012352
v -0.000117 0.008813 -0.012352
v -0.000117 0.008814 -0.012352
v -0.000118 0.008816 -0.012352
v -0.000119 0.008817 -0.012352
v -0.000120 0.008820 -0.012352
v -0.000119 0.008819 -0.012352
v -0.000121 0.008821 -0.012352
v -0.000123 0.008824 -0.012352
v -0.000122 0.008822 -0.012352
v -0.000124 0.008825 -0.012352
v -0.000126 0.008826 -0.012352
v -0.000127 0.008827 -0.012352
v -0.000128 0.008828 -0.012352
v -0.000131 0.008830 -0.012352
v -0.000130 0.008829 -0.012352
v -0.000132 0.008830 -0.012352
v -0.000134 0.008831 -0.012352
v -0.000137 0.008832 -0.012352
v -0.000136 0.008831 -0.012352
v -0.000142 0.008833 -0.012352
v -0.000140 0.008833 -0.012352
v -0.000145 0.008833 -0.012352
v -0.000144 0.008833 -0.012352
v -0.000150 0.008833 -0.012352
v -0.000148 0.008833 -0.012352
v -0.000150 0.008833 -0.012314
v -0.000150 0.008833 -0.012352
v -0.000139 0.008832 -0.012352
v -0.000144 0.008833 -0.012352
v -0.000142 0.008833 -0.012352
v -0.000147 0.008833 -0.012352
v -0.000147 0.008756 -0.012297
v -0.000145 0.008773 -0.012314
v -0.000147 0.008773 -0.012314
v -0.000147 0.008756 -0.012297
v -0.000147 0.008773 -0.012314
v -0.000150 0.008756 -0.012297
v -0.000143 0.008756 -0.012297
v -0.000144 0.008773 -0.012314
v -0.000145 0.008773 -0.012314
v -0.000142 0.008773 -0.012314
v -0.000144 0.008773 -0.012314
v -0.000140 0.008756 -0.012297
v -0.000140 0.008773 -0.012314
v -0.000140 0.008756 -0.012297
v -0.000136 0.008756 -0.012297
v -0.000139 0.008774 -0.012314
v -0.000136 0.008756 -0.012297
v -0.000133 0.008757 -0.012297
v -0.000137 0.008774 -0.012314
v -0.000133 0.008757 -0.012297
v -0.000130 0.008757 -0.012296
v -0.000136 0.008775 -0.012314
v -0.000130 0.008757 -0.012296
v -0.000134 0.008775 -0.012314
v -0.000130 0.008757 -0.012296
v -0.000127 0.008758 -0.012296
v -0.000134 0.008775 -0.012314
v -0.000127 0.008758 -0.012296
v -0.000123 0.008759 -0.012295
v -0.000132 0.008776 -0.012314
v -0.000123 0.008759 -0.012295
v -0.000131 0.008776 -0.012314
v -0.000132 0.008776 -0.012314
v -0.000120 0.008760 -0.012294
v -0.000130 0.008777 -0.012314
v -0.000131 0.008776 -0.012314
v -0.000117 0.008761 -0.012294
v -0.000128 0.008778 -0.012314
v -0.000130 0.008777 -0.012314
v -0.000114 0.008762 -0.012293
v -0.000128 0.008778 -0.012314
v -0.000117 0.008761 -0.012294
v -0.000126 0.008780 -0.012314
v -0.000127 0.008779 -0.012314
v -0.000114 0.008762 -0.012293
v -0.000126 0.008780 -0.012314
v -0.000114 0.008762 -0.012293
v -0.000111 0.008763 -0.012292
v -0.000126 0.008780 -0.012314
v -0.000111 0.008763 -0.012292
v -0.000124 0.008781 -0.012314
v -0.000111 0.008763 -0.012292
v -0.000108 0.008764 -0.012291
v -0.000124 0.008781 -0.012314
v -0.000123 0.008782 -0.012314
v -0.000105 0.008766 -0.012290
v -0.000122 0.008784 -0.012314
v -0.000108 0.008764 -0.012291
v -0.000123 0.008782 -0.012314
v -0.000124 0.008781 -0.012314
v -0.000105 0.008766 -0.012290
v -0.000102 0.008767 -0.012289
v -0.000122 0.008784 -0.012314
v -0.000102 0.008767 -0.012289
v -0.000100 0.008769 -0.012288
v -0.000121 0.008785 -0.012314
v -0.000100 0.008769 -0.012288
v -0.000099 0.008770 -0.012288
v -0.000120 0.008786 -0.012314
v -0.000098 0.008770 -0.012287
v -0.000120 0.008786 -0.012314
v -0.000120 0.008786 -0.012314
v -0.000097 0.008771 -0.012287
v -0.000097 0.008772 -0.012287
v -0.000119 0.008787 -0.012314
v -0.000097 0.008772 -0.012287
v -0.000095 0.008775 -0.012287
v -0.000119 0.008787 -0.012314
v -0.000095 0.008775 -0.012287
v -0.000119 0.008789 -0.012314
v -0.000119 0.008789 -0.012314
v -0.000093 0.008779 -0.012287
v -0.000118 0.008790 -0.012314
v -0.000093 0.008779 -0.012287
v -0.000091 0.008783 -0.012287
v -0.000117 0.008792 -0.012314
v -0.000091 0.008783 -0.012287
v -0.000090 0.008787 -0.012287
v -0.000117 0.008793 -0.012314
v -0.000090 0.008787 -0.012287
v -0.000116 0.008795 -0.012314
v -0.000117 0.008793 -0.012314
v -0.000089 0.008791 -0.012287
v -0.000116 0.008797 -0.012314
v -0.000116 0.008795 -0.012314
v -0.000088 0.008795 -0.012287
v -0.000115 0.008798 -0.012314
v -0.000089 0.008791 -0.012287
v -0.000115 0.008800 -0.012314
v -0.000115 0.008798 -0.012314
v -0.000088 0.008795 -0.012287
v -0.000115 0.008801 -0.012314
v -0.000115 0.008800 -0.012314
v -0.000088 0.008799 -0.012287
v -0.000115 0.008803 -0.012314
v -0.000115 0.008801 -0.012314
v -0.000088 0.008803 -0.012287
v -0.000115 0.008805 -0.012314
v -0.000115 0.008803 -0.012314
v -0.000088 0.008803 -0.012287
v -0.000115 0.008805 -0.012314
v -0.000088 0.008803 -0.012287
v -0.000088 0.008807 -0.012287
v -0.000115 0.008805 -0.012314
v -0.000088 0.008807 -0.012287
v -0.000115 0.008806 -0.012314
v -0.000115 0.008806 -0.012314
v -0.000088 0.008811 -0.012287
v -0.000115 0.008808 -0.012314
v -0.000088 0.008811 -0.012287
v -0.000089 0.008815 -0.012287
v -0.000115 0.008808 -0.012314
v -0.000089 0.008815 -0.012287
v -0.000116 0.008811 -0.012314
v -0.000116 0.008809 -0.012314
v -0.000090 0.008819 -0.012287
v -0.000117 0.008813 -0.012314
v -0.000116 0.008811 -0.012314
v -0.000091 0.008823 -0.012287
v -0.000117 0.008814 -0.012314
v -0.000117 0.008813 -0.012314
v -0.000093 0.008827 -0.012287
v -0.000118 0.008816 -0.012314
v -0.000117 0.008814 -0.012314
v -0.000119 0.008817 -0.012314
v -0.000118 0.008816 -0.012314
v -0.000093 0.008827 -0.012287
v -0.000119 0.008819 -0.012314
v -0.000119 0.008817 -0.012314
v -0.000095 0.008831 -0.012287
v -0.000120 0.008820 -0.012314
v -0.000119 0.008819 -0.012314
v -0.000097 0.008834 -0.012287
v -0.000098 0.008836 -0.012287
v -0.000120 0.008820 -0.012314
v -0.000097 0.008835 -0.012287
v -0.000105 0.008840 -0.012290
v -0.000122 0.008822 -0.012314
v -0.000102 0.008839 -0.012289
v -0.000121 0.008821 -0.012314
v -0.000100 0.008837 -0.012288
v -0.000102 0.008839 -0.012289
v -0.000123 0.008824 -0.012314
v -0.000122 0.008822 -0.012314
v -0.000105 0.008840 -0.012290
v -0.000124 0.008825 -0.012314
v -0.000123 0.008824 -0.012314
v -0.000108 0.008842 -0.012291
v -0.000126 0.008826 -0.012314
v -0.000124 0.008825 -0.012314
v -0.000111 0.008843 -0.012292
v -0.000127 0.008827 -0.012314
v -0.000126 0.008826 -0.012314
v -0.000114 0.008844 -0.012293
v -0.000099 0.008836 -0.012288
v -0.000100 0.008837 -0.012288
v -0.000120 0.008820 -0.012314
v -0.000150 0.008850 -0.012297
v -0.000150 0.008833 -0.012314
v -0.000148 0.008833 -0.012314
v -0.000150 0.008850 -0.012297
v -0.000148 0.008833 -0.012314
v -0.000147 0.008833 -0.012314
v -0.000150 0.008850 -0.012297
v -0.000147 0.008833 -0.012314
v -0.000147 0.008850 -0.012297
v -0.000147 0.008833 -0.012314
v -0.000145 0.008833 -0.012314
v -0.000147 0.008850 -0.012297
v -0.000145 0.008833 -0.012314
v -0.000143 0.008850 -0.012297
v -0.000147 0.008850 -0.012297
v -0.000144 0.008833 -0.012314
v -0.000143 0.008850 -0.012297
v -0.000145 0.008833 -0.012314
v -0.000140 0.008850 -0.012297
v -0.000143 0.008850 -0.012297
v -0.000144 0.008833 -0.012314
v -0.000140 0.008850 -0.012297
v -0.000144 0.008833 -0.012314
v -0.000142 0.008833 -0.012314
v -0.000140 0.008850 -0.012297
v -0.000142 0.008833 -0.012314
v -0.000140 0.008833 -0.012314
v -0.000140 0.008850 -0.012297
v -0.000140 0.008833 -0.012314
v -0.000137 0.008850 -0.012297
v -0.000140 0.008833 -0.012314
v -0.000139 0.008832 -0.012314
v -0.000137 0.008850 -0.012297
v -0.000139 0.008832 -0.012314
v -0.000133 0.008849 -0.012297
v -0.000137 0.008850 -0.012297
v -0.000137 0.008832 -0.012314
v -0.000133 0.008849 -0.012297
v -0.000139 0.008832 -0.012314
v -0.000130 0.008849 -0.012296
v -0.000133 0.008849 -0.012297
v -0.000137 0.008832 -0.012314
v -0.000130 0.008849 -0.012296
v -0.000137 0.008832 -0.012314
v -0.000136 0.008831 -0.012314
v -0.000130 0.008849 -0.012296
v -0.000136 0.008831 -0.012314
v -0.000134 0.008831 -0.012314
v -0.000130 0.008849 -0.012296
v -0.000134 0.008831 -0.012314
v -0.000127 0.008848 -0.012296
v -0.000134 0.008831 -0.012314
v -0.000132 0.008830 -0.012314
v -0.000127 0.008848 -0.012296
v -0.000132 0.008830 -0.012314
v -0.000123 0.008847 -0.012295
v -0.000127 0.008848 -0.012296
v -0.000131 0.008830 -0.012314
v -0.000123 0.008847 -0.012295
v -0.000132 0.008830 -0.012314
v -0.000120 0.008846 -0.012294
v -0.000123 0.008847 -0.012295
v -0.000131 0.008830 -0.012314
v -0.000120 0.008846 -0.012294
v -0.000131 0.008830 -0.012314
v -0.000130 0.008829 -0.012314
v -0.000120 0.008846 -0.012294
v -0.000130 0.008829 -0.012314
v -0.000117 0.008845 -0.012294
v -0.000130 0.008829 -0.012314
v -0.000128 0.008828 -0.012314
v -0.000117 0.008845 -0.012294
v -0.000128 0.008828 -0.012314
v -0.000114 0.008844 -0.012293
v -0.000117 0.008845 -0.012294
v -0.000127 0.008827 -0.012314
v -0.000114 0.008844 -0.012293
v -0.000128 0.008828 -0.012314
v -0.000126 0.008826 -0.012314
v -0.000111 0.008843 -0.012292
v -0.000114 0.008844 -0.012293
v -0.000124 0.008825 -0.012314
v -0.000108 0.008842 -0.012291
v -0.000111 0.008843 -0.012292
v -0.000123 0.008824 -0.012314
v -0.000105 0.008840 -0.012290
v -0.000108 0.008842 -0.012291
v -0.000122 0.008822 -0.012314
v -0.000121 0.008821 -0.012314
v -0.000102 0.008839 -0.012289
v -0.000121 0.008821 -0.012314
v -0.000120 0.008820 -0.012314
v -0.000100 0.008837 -0.012288
v -0.000120 0.008820 -0.012314
v -0.000097 0.008834 -0.012287
v -0.000120 0.008820 -0.012314
v -0.000095 0.008831 -0.012287
v -0.000097 0.008834 -0.012287
v -0.000119 0.008819 -0.012314
v -0.000093 0.008827 -0.012287
v -0.000095 0.008831 -0.012287
v -0.000119 0.008817 -0.012314
v -0.000117 0.008814 -0.012314
v -0.000091 0.008823 -0.012287
v -0.000093 0.008827 -0.012287
v -0.000117 0.008813 -0.012314
v -0.000090 0.008819 -0.012287
v -0.000091 0.008823 -0.012287
v -0.000116 0.008811 -0.012314
v -0.000089 0.008815 -0.012287
v -0.000090 0.008819 -0.012287
v -0.000116 0.008809 -0.012314
v -0.000115 0.008808 -0.012314
v -0.000089 0.008815 -0.012287
v -0.000088 0.008811 -0.012287
v -0.000115 0.008806 -0.012314
v -0.000088 0.008807 -0.012287
v -0.000115 0.008801 -0.012314
v -0.000088 0.008799 -0.012287
v -0.000088 0.008803 -0.012287
v -0.000115 0.008800 -0.012314
v -0.000088 0.008795 -0.012287
v -0.000088 0.008799 -0.012287
v -0.000115 0.008798 -0.012314
v -0.000116 0.008797 -0.012314
v -0.000089 0.008791 -0.012287
v -0.000089 0.008791 -0.012287
v -0.000116 0.008795 -0.012314
v -0.000090 0.008787 -0.012287
v -0.000091 0.008783 -0.012287
v -0.000117 0.008793 -0.012314
v -0.000117 0.008792 -0.012314
v -0.000093 0.008779 -0.012287
v -0.000117 0.008792 -0.012314
v -0.000118 0.008790 -0.012314
v -0.000095 0.008775 -0.012287
v -0.000093 0.008779 -0.012287
v -0.000119 0.008789 -0.012314
v -0.000120 0.008786 -0.012314
v -0.000097 0.008772 -0.012287
v -0.000119 0.008787 -0.012314
v -0.000120 0.008786 -0.012314
v -0.000100 0.008769 -0.012288
v -0.000120 0.008786 -0.012314
v -0.000121 0.008785 -0.012314
v -0.000102 0.008767 -0.012289
v -0.000121 0.008785 -0.012314
v -0.000122 0.008784 -0.012314
v -0.000108 0.008764 -0.012291
v -0.000105 0.008766 -0.012290
v -0.000123 0.008782 -0.012314
v -0.000114 0.008762 -0.012293
v -0.000127 0.008779 -0.012314
v -0.000128 0.008778 -0.012314
v -0.000120 0.008760 -0.012294
v -0.000117 0.008761 -0.012294
v -0.000130 0.008777 -0.012314
v -0.000123 0.008759 -0.012295
v -0.000120 0.008760 -0.012294
v -0.000131 0.008776 -0.012314
v -0.000130 0.008757 -0.012296
v -0.000136 0.008775 -0.012314
v -0.000137 0.008774 -0.012314
v -0.000140 0.008773 -0.012314
v -0.000136 0.008756 -0.012297
v -0.000139 0.008774 -0.012314
v -0.000142 0.008773 -0.012314
v -0.000140 0.008756 -0.012297
v -0.000140 0.008773 -0.012314
v -0.000144 0.008773 -0.012314
v -0.000143 0.008756 -0.012297
v -0.000140 0.008756 -0.012297
v -0.000147 0.008756 -0.012297
v -0.000143 0.008756 -0.012297
v -0.000145 0.008773 -0.012314
v -0.000148 0.008773 -0.012314
v -0.000150 0.008773 -0.012314
v -0.000150 0.008756 -0.012297
v -0.000133 0.008757 -0.012297
v -0.000137 0.008774 -0.012314
v -0.000139 0.008774 -0.012314
v -0.000132 0.008776 -0.012314
v -0.000134 0.008775 -0.012314
v -0.000127 0.008758 -0.012296
v -0.000147 0.008773 -0.012314
v -0.000148 0.008773 -0.012314
v -0.000150 0.008756 -0.012297
v -0.000065 0.008835 -0.012287
v -0.000065 0.008835 -0.012287
v -0.000065 0.008836 -0.012287
v -0.000065 0.008836 -0.012287
v -0.000097 0.008835 -0.012287
v -0.000097 0.008835 -0.012287
v -0.000065 0.008836 -0.012287
v -0.000065 0.008836 -0.012287
v -0.000099 0.008836 -0.012288
v -0.000099 0.008836 -0.012288
v -0.000098 0.008836 -0.012287
v -0.000098 0.008836 -0.012287
v -0.000097 0.008835 -0.012287
v -0.000065 0.008836 -0.012287
v -0.000098 0.008836 -0.012287
v -0.000065 0.008836 -0.012287
v -0.000098 0.008770 -0.012287
v -0.000099 0.008770 -0.012288
v -0.000099 0.008770 -0.012288
v -0.000098 0.008770 -0.012287
v -0.000065 0.008770 -0.012287
v -0.000065 0.008771 -0.012287
v -0.000065 0.008771 -0.012287
v -0.000065 0.008770 -0.012287
v -0.000065 0.008770 -0.012287
v -0.000097 0.008771 -0.012287
v -0.000065 0.008770 -0.012287
v -0.000065 0.008770 -0.012287
v -0.000097 0.008771 -0.012287
v -0.000065 0.008770 -0.012287
v -0.000097 0.008771 -0.012287
v -0.000098 0.008770 -0.012287
vn -1.0000 -0.0000 -0.0000
vn -0.0000 -0.7940 0.6079
vn -0.0000 -0.7816 0.6238
vn -0.0000 -0.7739 0.6333
vn -0.0000 -0.7940 0.6080
vn -0.0000 -0.7688 0.6395
vn -0.0000 -0.7815 0.6239
vn -0.0000 -0.7530 0.6580
vn -0.0000 -0.7558 0.6548
vn -0.0000 -0.7424 0.6699
vn -0.0000 -0.7557 0.6549
vn 0.0001 -0.7424 0.6700
vn -0.0000 -0.7313 0.6820
vn -0.0000 -0.7288 0.6848
vn -0.0000 -0.7148 0.6994
vn -0.0000 -0.7314 0.6820
vn -0.0000 -0.7424 0.6700
vn -0.0000 -0.7287 0.6848
vn -0.0000 -0.7313 0.6821
vn -0.0000 -0.7147 0.6994
vn -0.0000 -0.7089 0.7053
vn -0.0000 -0.7004 0.7137
vn -0.0000 -0.6857 0.7279
vn -0.0000 -0.7005 0.7137
vn -0.0000 -0.6859 0.7277
vn -0.0000 -0.6710 0.7414
vn -0.0000 -0.6618 0.7497
vn -0.0000 -0.6559 0.7548
vn -0.0000 -0.6372 0.7707
vn -0.0000 -0.6125 0.7905
vn -0.0000 -0.6119 0.7909
vn -0.0000 -0.6617 0.7497
vn -0.0000 -0.6124 0.7905
vn -0.0000 -0.6371 0.7708
vn -0.0000 -0.6124 0.7906
vn -0.0000 -0.6406 0.7679
vn -0.0000 -0.6118 0.7910
vn -0.0000 -0.6106 0.7919
vn -0.0001 -0.6107 0.7919
vn -0.0000 -0.6089 0.7932
vn -0.0000 -0.6405 0.7680
vn -0.0001 -0.6249 0.7807
vn -0.0000 -0.6068 0.7948
vn -0.0000 -0.6010 0.7992
vn -0.0000 -0.6041 0.7969
vn -0.0000 -0.5598 0.8286
vn -0.0000 -0.5665 0.8241
vn 0.0002 -0.5764 0.8172
vn -0.0000 -0.5599 0.8286
vn 0.0002 -0.5727 0.8198
vn -0.0000 -0.5785 0.8157
vn -0.0002 -0.5928 0.8053
vn -0.0000 -0.5839 0.8118
vn -0.0000 -0.5889 0.8082
vn -0.0000 -0.6091 0.7931
vn -0.0000 -0.5934 0.8049
vn -0.0000 -0.5974 0.8019
vn -0.0000 -0.6090 0.7932
vn -0.0000 -0.0000 1.0000
vn -0.0003 -0.0000 1.0000
vn 0.0001 -0.0000 1.0000
vn -0.0001 -0.0000 1.0000
vn -0.0000 0.6372 0.7707
vn -0.0000 0.6124 0.7905
vn -0.0000 0.6118 0.7910
vn -0.0000 0.6107 0.7919
vn -0.0000 0.6090 0.7932
vn -0.0000 0.6859 0.7277
vn 0.0001 0.7003 0.7138
vn -0.0000 0.6857 0.7279
vn -0.0000 0.7286 0.6849
vn -0.0003 0.7313 0.6820
vn -0.0000 0.7148 0.6994
vn 0.0001 0.7424 0.6700
vn 0.0002 0.7530 0.6580
vn -0.0000 0.6119 0.7909
vn -0.0000 0.7940 0.6079
vn 0.0001 0.7816 0.6238
vn -0.0003 0.7739 0.6333
vn -0.0000 0.7687 0.6396
vn -0.0000 0.7558 0.6548
vn 0.0002 0.7089 0.7053
vn 0.0001 0.6711 0.7414
vn -0.0003 0.6617 0.7497
vn -0.0000 0.6559 0.7549
vn -0.0000 0.6068 0.7948
vn -0.0001 0.6405 0.7680
vn -0.0000 0.6041 0.7969
vn -0.0000 0.6249 0.7807
vn -0.0000 0.6011 0.7992
vn -0.0000 0.5974 0.8019
vn -0.0000 0.6091 0.7931
vn -0.0000 0.5888 0.8083
vn -0.0000 0.5839 0.8118
vn -0.0001 0.5928 0.8053
vn -0.0000 0.5599 0.8286
vn 0.0002 0.5764 0.8172
vn -0.0000 0.5598 0.8286
vn -0.0000 0.5665 0.8241
vn -0.0001 0.5726 0.8198
vn -0.0000 0.5785 0.8157
vn -0.0000 0.5933 0.8050
vn 1.0000 -0.0000 -0.0000
vn -0.0000 -0.0000 -1.0000
vn -0.0000 -1.0000 -0.0000
vn -0.0000 1.0000 -0.0000
vn -0.0004 -0.0000 -1.0000
vn -0.0001 -0.0000 -1.0000
vn 0.1129 -0.9936 -0.0000
vn 0.0588 -0.9983 -0.0000
vn 0.0587 -0.9983 -0.0000
vn 0.0045 -1.0000 -0.0000
vn -0.0498 -0.9988 -0.0000
vn -0.1039 -0.9946 -0.0000
vn -0.1578 -0.9875 -0.0000
vn -0.1040 -0.9946 -0.0000
vn -0.2112 -0.9774 -0.0000
vn -0.2639 -0.9646 -0.0000
vn -0.2111 -0.9775 -0.0000
vn -0.3159 -0.9488 -0.0000
vn -0.2640 -0.9645 -0.0000
vn -0.3160 -0.9488 -0.0000
vn -0.3670 -0.9302 -0.0000
vn -0.3671 -0.9302 -0.0000
vn -0.4170 -0.9089 -0.0000
vn -0.4657 -0.8850 -0.0000
vn -0.4656 -0.8850 -0.0000
vn -0.4658 -0.8849 -0.0000
vn -0.5130 -0.8584 -0.0000
vn -0.5131 -0.8584 -0.0000
vn -0.5589 -0.8293 -0.0000
vn -0.5590 -0.8292 -0.0000
vn -0.6031 -0.7977 -0.0000
vn -0.6455 -0.7638 -0.0000
vn -0.6860 -0.7276 -0.0000
vn -0.7245 -0.6893 -0.0000
vn -0.7609 -0.6489 -0.0000
vn -0.7245 -0.6892 -0.0000
vn -0.7949 -0.6067 -0.0000
vn -0.7950 -0.6066 -0.0000
vn -0.8267 -0.5626 -0.0000
vn -0.8267 -0.5627 -0.0000
vn -0.8560 -0.5170 -0.0000
vn -0.8561 -0.5169 -0.0000
vn -0.8828 -0.4697 -0.0000
vn -0.8829 -0.4696 -0.0000
vn -0.9070 -0.4211 -0.0000
vn -0.9286 -0.3712 -0.0000
vn -0.9071 -0.4210 -0.0000
vn -0.9474 -0.3202 -0.0000
vn -0.9286 -0.3711 -0.0000
vn -0.9633 -0.2684 -0.0000
vn -0.9473 -0.3202 -0.0000
vn -0.9765 -0.2156 -0.0000
vn -0.9634 -0.2682 -0.0000
vn -0.9765 -0.2155 -0.0000
vn -0.9765 -0.2155 0.0003
vn -0.9867 -0.1623 -0.0000
vn -0.9868 -0.1622 -0.0000
vn -0.9941 -0.1085 -0.0000
vn -0.9941 -0.1084 -0.0000
vn -0.9985 -0.0543 -0.0000
vn -0.9985 0.0543 -0.0000
vn -0.9941 0.1084 -0.0000
vn -0.9868 0.1622 -0.0000
vn -0.9941 0.1085 -0.0000
vn -0.9765 0.2155 -0.0000
vn -0.9867 0.1623 -0.0000
vn -0.9634 0.2682 -0.0000
vn -0.9765 0.2156 -0.0000
vn -0.9473 0.3202 -0.0000
vn -0.9633 0.2683 -0.0000
vn -0.9474 0.3202 -0.0000
vn -0.9286 0.3711 -0.0000
vn -0.9285 0.3712 -0.0000
vn -0.9071 0.4210 -0.0000
vn -0.9070 0.4210 -0.0000
vn -0.8829 0.4696 -0.0000
vn -0.8828 0.4697 -0.0000
vn -0.8561 0.5169 -0.0000
vn -0.8560 0.5170 -0.0000
vn -0.8267 0.5626 -0.0000
vn -0.8267 0.5627 -0.0000
vn -0.8560 0.5169 -0.0000
vn -0.7950 0.6066 -0.0000
vn -0.7609 0.6489 -0.0000
vn -0.7949 0.6067 -0.0000
vn -0.7245 0.6893 -0.0000
vn -0.6860 0.7276 -0.0000
vn -0.6455 0.7638 -0.0000
vn -0.6031 0.7976 -0.0000
vn -0.6031 0.7977 -0.0000
vn 0.1129 0.9936 -0.0000
vn 0.0588 0.9983 -0.0000
vn 0.1666 0.9860 -0.0000
vn 0.0045 1.0000 -0.0000
vn 0.0587 0.9983 -0.0000
vn -0.0498 0.9988 -0.0000
vn -0.1039 0.9946 -0.0000
vn -0.1578 0.9875 -0.0000
vn -0.1040 0.9946 -0.0000
vn -0.2112 0.9774 -0.0000
vn -0.2111 0.9775 -0.0000
vn -0.2639 0.9646 -0.0000
vn -0.3159 0.9488 -0.0000
vn -0.2640 0.9645 -0.0000
vn -0.3160 0.9488 -0.0000
vn -0.3670 0.9302 -0.0000
vn -0.3669 0.9303 -0.0000
vn -0.4170 0.9089 -0.0000
vn -0.4169 0.9089 -0.0000
vn -0.4657 0.8850 -0.0000
vn -0.4656 0.8850 -0.0000
vn -0.4657 0.8849 -0.0000
vn -0.5130 0.8584 -0.0000
vn -0.5588 0.8293 -0.0000
vn -0.5589 0.8293 -0.0000
vn -0.5131 0.8584 -0.0000
vn -0.5589 0.8292 -0.0000
vn -0.5590 0.8292 -0.0000
vn -0.9765 0.2155 -0.0002
vn -0.9285 -0.3712 -0.0000
vn -0.6455 -0.7637 -0.0000
vn -0.5588 -0.8293 -0.0000
vn -0.4169 -0.9089 -0.0000
vn -0.3669 -0.9303 -0.0000
vn 0.1666 -0.9860 -0.0000
vn 0.0238 0.7067 0.7071
vn 0.0032 0.7071 0.7071
vn 0.0415 0.7059 0.7071
vn 0.0239 0.7067 0.7071
vn 0.0416 0.7059 0.7071
vn 0.0748 0.7031 0.7071
vn -0.0269 0.7066 0.7071
vn -0.0352 0.7062 0.7071
vn -0.0735 0.7033 0.7071
vn -0.0773 0.7029 0.7071
vn -0.1116 0.6982 0.7071
vn -0.0773 0.7027 0.7073
vn -0.1269 0.6956 0.7071
vn -0.1493 0.6912 0.7071
vn -0.1752 0.6851 0.7071
vn -0.1866 0.6820 0.7071
vn -0.2220 0.6714 0.7071
vn -0.2234 0.6709 0.7071
vn -0.2219 0.6714 0.7071
vn -0.2594 0.6578 0.7071
vn -0.2669 0.6548 0.7071
vn -0.2595 0.6578 0.7071
vn -0.3098 0.6356 0.7071
vn -0.2948 0.6427 0.7071
vn -0.3293 0.6258 0.7071
vn -0.3505 0.6142 0.7071
vn -0.3628 0.6070 0.7071
vn -0.3886 0.5908 0.7071
vn -0.3955 0.5871 0.7063
vn -0.4244 0.5656 0.7071
vn -0.3952 0.5864 0.7071
vn -0.4564 0.5401 0.7071
vn -0.4264 0.5640 0.7071
vn -0.4243 0.5656 0.7071
vn -0.4576 0.5391 0.7071
vn -0.4851 0.5145 0.7071
vn -0.4883 0.5114 0.7071
vn -0.5123 0.4874 0.7071
vn -0.5165 0.4829 0.7071
vn -0.5380 0.4588 0.7071
vn -0.5424 0.4537 0.7071
vn -0.5380 0.4589 0.7071
vn -0.5658 0.4241 0.7071
vn -0.5621 0.4290 0.7071
vn -0.5729 0.4145 0.7071
vn -0.5846 0.3978 0.7071
vn -0.5799 0.4046 0.7071
vn -0.5871 0.3942 0.7071
vn -0.5942 0.3833 0.7071
vn -0.6053 0.3655 0.7071
vn -0.6201 0.3399 0.7071
vn -0.6201 0.3398 0.7071
vn -0.6243 0.3321 0.7070
vn -0.6243 0.3321 0.7071
vn -0.6428 0.2947 0.7071
vn -0.6414 0.2977 0.7071
vn -0.6428 0.2946 0.7071
vn -0.6622 0.2479 0.7071
vn -0.6566 0.2624 0.7071
vn -0.6623 0.2478 0.7071
vn -0.6783 0.1998 0.7071
vn -0.6699 0.2264 0.7071
vn -0.6812 0.1897 0.7071
vn -0.6908 0.1508 0.7071
vn -0.6905 0.1525 0.7071
vn -0.6999 0.1010 0.7071
vn -0.6977 0.1148 0.7071
vn -0.6909 0.1507 0.7071
vn -0.7029 0.0767 0.7071
vn -0.6977 0.1147 0.7071
vn -0.6999 0.1009 0.7071
vn -0.7061 0.0384 0.7071
vn -0.7029 0.0766 0.7071
vn -0.7053 0.0506 0.7071
vn -0.7071 -0.0000 0.7071
vn -0.7065 -0.0384 0.7067
vn -0.7070 -0.0000 0.7072
vn -0.7061 -0.0384 0.7071
vn -0.7072 -0.0000 0.7070
vn -0.7053 -0.0506 0.7071
vn -0.7030 -0.0766 0.7071
vn -0.7029 -0.0766 0.7071
vn -0.6999 -0.1009 0.7071
vn -0.6978 -0.1147 0.7071
vn -0.6999 -0.1010 0.7071
vn -0.6909 -0.1507 0.7071
vn -0.6977 -0.1148 0.7071
vn -0.6908 -0.1508 0.7071
vn -0.6812 -0.1896 0.7071
vn -0.6905 -0.1524 0.7071
vn -0.6783 -0.1999 0.7071
vn -0.6699 -0.2264 0.7071
vn -0.6812 -0.1898 0.7071
vn -0.6623 -0.2478 0.7071
vn -0.6566 -0.2624 0.7071
vn -0.6699 -0.2263 0.7071
vn -0.6428 -0.2946 0.7071
vn -0.6416 -0.2977 0.7069
vn -0.6243 -0.3321 0.7071
vn -0.6414 -0.2977 0.7071
vn -0.6054 -0.3655 0.7070
vn -0.6243 -0.3320 0.7071
vn -0.6201 -0.3397 0.7071
vn -0.5846 -0.3978 0.7071
vn -0.6053 -0.3656 0.7071
vn -0.5942 -0.3834 0.7071
vn -0.5799 -0.4046 0.7071
vn -0.5870 -0.3942 0.7071
vn -0.5166 -0.4828 0.7071
vn -0.5380 -0.4589 0.7071
vn -0.5424 -0.4537 0.7071
vn -0.5621 -0.4290 0.7071
vn -0.5658 -0.4241 0.7071
vn -0.5123 -0.4874 0.7071
vn -0.5380 -0.4588 0.7071
vn -0.5166 -0.4829 0.7071
vn -0.4851 -0.5145 0.7071
vn -0.4883 -0.5114 0.7071
vn -0.4564 -0.5401 0.7071
vn -0.4575 -0.5391 0.7071
vn -0.4262 -0.5638 0.7074
vn -0.4242 -0.5657 0.7071
vn -0.5729 -0.4145 0.7071
vn 0.0749 -0.7031 0.7071
vn 0.1179 -0.6972 0.7071
vn 0.0798 -0.7026 0.7071
vn 0.0748 -0.7031 0.7071
vn 0.0799 -0.7027 0.7070
vn 0.0415 -0.7059 0.7071
vn 0.0416 -0.7059 0.7071
vn 0.0242 -0.7069 0.7069
vn 0.0032 -0.7071 0.7071
vn 0.0242 -0.7067 0.7071
vn -0.0265 -0.7066 0.7071
vn -0.0352 -0.7062 0.7071
vn -0.0768 -0.7029 0.7071
vn -0.0735 -0.7033 0.7071
vn -0.1116 -0.6982 0.7071
vn -0.1263 -0.6957 0.7071
vn -0.1493 -0.6912 0.7071
vn -0.1263 -0.6957 0.7072
vn -0.1494 -0.6912 0.7071
vn -0.1746 -0.6852 0.7071
vn -0.1866 -0.6820 0.7071
vn -0.1492 -0.6912 0.7071
vn -0.2214 -0.6716 0.7071
vn -0.1867 -0.6820 0.7071
vn -0.2215 -0.6715 0.7071
vn -0.2234 -0.6709 0.7071
vn -0.2214 -0.6715 0.7071
vn -0.2233 -0.6709 0.7071
vn -0.2594 -0.6578 0.7071
vn -0.2595 -0.6578 0.7071
vn -0.2664 -0.6550 0.7071
vn -0.2948 -0.6427 0.7071
vn -0.2665 -0.6550 0.7071
vn -0.3094 -0.6358 0.7071
vn -0.3293 -0.6258 0.7071
vn -0.3093 -0.6358 0.7071
vn -0.3501 -0.6143 0.7071
vn -0.3293 -0.6257 0.7071
vn -0.3502 -0.6144 0.7071
vn -0.3628 -0.6070 0.7071
vn -0.3883 -0.5909 0.7071
vn -0.3952 -0.5864 0.7071
vn -0.3884 -0.5909 0.7071
vn -0.4243 -0.5657 0.7071
vn -0.4264 -0.5641 0.7071
vn -0.4576 -0.5391 0.7071
vn -0.5381 -0.4590 0.7069
vn -0.5622 -0.4290 0.7070
vn -0.5942 -0.3833 0.7071
vn -0.6201 -0.3399 0.7071
vn -0.6053 -0.3655 0.7071
vn -0.6201 -0.3398 0.7071
vn -0.6622 -0.2479 0.7071
vn -0.6783 -0.1998 0.7071
vn -0.6812 -0.1897 0.7071
vn -0.7030 0.0766 0.7071
vn -0.6905 0.1524 0.7071
vn -0.6623 0.2477 0.7071
vn -0.6699 0.2263 0.7071
vn -0.6568 0.2625 0.7069
vn -0.5942 0.3834 0.7071
vn -0.6053 0.3656 0.7071
vn -0.5799 0.4047 0.7071
vn -0.5870 0.3942 0.7071
vn -0.5846 0.3979 0.7071
vn -0.5847 0.3979 0.7070
vn -0.5622 0.4291 0.7070
vn -0.3504 0.6142 0.7071
vn -0.1867 0.6820 0.7071
vn -0.0269 0.7067 0.7070
vn 0.0239 0.7069 0.7069
vn -0.0270 0.7066 0.7071
vn 0.0798 0.7026 0.7071
vn 0.1179 0.6972 0.7071
vn 0.0749 0.7031 0.7071
vn -0.1492 0.6912 0.7071
vn 0.0415 0.7060 0.7070
vn -0.0000 0.1480 0.9890
vn -0.0000 0.2928 0.9562
vn -0.0000 0.2927 0.9562
vn -0.0000 0.1690 0.9856
vn -0.0000 0.4310 0.9024
vn -0.0000 0.4459 0.8951
vn 0.0001 0.3165 0.9486
vn 0.0001 0.5599 0.8286
vn -0.0000 0.3164 0.9486
vn -0.0000 0.3165 0.9486
vn -0.0000 0.4311 0.9023
vn -0.0000 -0.3165 0.9486
vn -0.0000 -0.4459 0.8951
vn -0.0000 -0.3164 0.9486
vn -0.0000 -0.5599 0.8285
vn -0.0000 -0.4311 0.9023
vn -0.0000 -0.1480 0.9890
vn -0.0000 -0.2928 0.9562
vn -0.0000 -0.2927 0.9562
vn -0.0000 -0.1688 0.9857
vn -0.0000 -0.1689 0.9856
vn -0.0000 -0.4310 0.9024
vn -0.0000 -0.3163 0.9487
s 1
usemtl Diffuse_51_51_51_100.029
f 1//1 2//1 3//1
f 1//1 3//1 4//1
f 3//1 5//1 4//1
f 5//1 6//1 4//1
f 4//1 7//1 8//1
f 4//1 8//1 9//1
f 8//1 10//1 9//1
f 9//1 10//1 11//1
f 7//1 4//1 6//1
f 9//1 11//1 12//1
f 13//2 14//2 15//3
f 16//4 17//5 15//3
f 18//6 19//4 15//7
f 18//6 20//8 21//4
f 22//8 18//6 23//9
f 24//10 25//8 23//11
f 24//12 26//13 27//8
f 28//14 29//15 30//16
f 24//17 28//18 31//19
f 32//13 29//20 33//21
f 34//21 29//20 35//22
f 36//23 37//21 35//24
f 38//25 39//23 35//22
f 38//25 40//26 41//23
f 42//23 40//26 43//27
f 44//27 40//26 45//28
f 46//29 47//30 48//31
f 49//29 50//32 45//28
f 47//33 51//34 52//35
f 53//36 54//34 45//28
f 55//37 56//29 57//38
f 57//39 58//34 59//40
f 53//41 60//42 61//43
f 60//42 62//44 63//45
f 64//46 65//47 66//48
f 66//48 67//49 64//46
f 68//50 66//48 65//47
f 68//50 69//51 66//48
f 66//48 69//51 70//52
f 70//52 69//51 71//53
f 72//54 70//52 71//53
f 72//54 73//55 70//52
f 72//54 74//56 73//55
f 73//55 74//56 75//57
f 62//44 73//55 75//57
f 62//44 60//42 73//55
f 63//45 61//43 60//42
f 61//43 59//58 53//41
f 53//41 59//58 76//29
f 77//29 55//37 52//35
f 78//59 79//60 80//59
f 81//59 82//59 80//59
f 83//59 81//59 80//59
f 84//61 83//59 80//59
f 85//62 84//61 80//59
f 86//62 85//62 80//59
f 87//59 86//62 80//59
f 88//62 87//59 80//59
f 79//60 88//62 80//59
f 89//62 79//60 78//59
f 78//59 90//61 89//62
f 78//59 91//59 90//61
f 78//59 92//62 91//59
f 78//59 93//59 92//62
f 94//59 78//59 95//59
f 94//59 96//59 78//59
f 78//59 96//59 93//59
f 97//63 98//64 99//64
f 100//65 97//63 99//64
f 100//65 101//66 97//63
f 97//63 101//66 102//67
f 103//68 104//69 105//70
f 106//71 107//72 108//73
f 109//74 110//75 107//72
f 111//76 98//64 97//63
f 112//77 113//78 114//77
f 112//77 115//79 113//78
f 113//78 115//79 116//80
f 116//80 115//79 110//75
f 117//81 116//80 110//75
f 109//74 117//81 110//75
f 107//72 118//82 108//73
f 108//73 118//82 104//69
f 104//69 118//82 105//70
f 119//83 105//70 120//84
f 120//84 97//63 121//85
f 102//67 122//86 123//87
f 122//86 124//88 125//89
f 126//90 127//91 128//92
f 129//93 130//94 131//95
f 132//96 133//97 134//98
f 134//98 133//97 135//99
f 135//99 133//97 136//100
f 136//100 133//97 137//101
f 137//101 133//97 131//95
f 130//94 137//101 131//95
f 129//93 131//95 128//92
f 138//102 129//93 128//92
f 126//90 125//89 124//88
f 126//90 128//92 125//89
f 125//89 123//87 122//86
f 123//87 97//63 102//67
f 123//87 121//85 97//63
f 121//85 119//83 120//84
f 105//70 119//83 103//68
f 109//74 107//72 106//71
f 138//102 128//92 127//91
f 139//1 140//1 141//1
f 139//1 142//1 143//1
f 139//1 144//1 145//1
f 139//1 146//1 147//1
f 141//1 148//1 149//1
f 141//1 150//1 151//1
f 141//1 152//1 153//1
f 154//1 155//1 156//1
f 141//1 157//1 158//1
f 155//1 141//1 159//1
f 160//103 161//103 162//103
f 163//103 164//103 165//103
s 0
f 166//103 167//103 168//103
f 167//103 169//103 170//103
f 169//104 171//103 172//103
s 1
f 173//103 174//103 175//103
f 176//103 177//103 178//103
f 179//103 180//103 181//103
f 182//103 183//103 184//103
f 185//103 186//103 187//103
f 188//103 189//103 190//103
f 191//103 192//103 193//103
f 194//103 195//103 196//103
f 197//103 198//103 199//103
f 200//103 201//103 202//103
f 203//103 204//103 205//103
f 206//103 207//103 208//103
f 209//103 210//103 211//103
f 212//103 213//103 214//103
f 215//103 216//103 217//103
f 218//103 219//103 220//103
f 216//103 221//103 222//103
f 223//103 224//103 216//103
f 225//103 226//103 227//103
f 228//103 229//103 227//103
f 230//103 231//103 227//103
f 232//103 233//103 227//103
f 234//103 235//103 227//103
f 236//103 237//103 227//103
f 238//103 239//103 227//103
f 227//103 240//103 216//103
f 241//103 242//103 216//103
f 243//103 244//103 216//103
f 245//103 246//103 216//103
f 247//103 227//103 248//103
f 249//103 250//103 251//103
f 252//103 253//103 216//103
f 254//103 255//103 256//103
s 0
f 257//103 258//103 259//104
s 1
f 260//103 261//103 259//103
s 0
f 262//103 263//103 257//103
s 1
f 264//103 265//103 266//103
f 267//105 268//105 269//105
f 270//105 271//105 272//105
f 273//106 274//106 275//106
f 276//106 277//106 278//106
f 279//107 280//107 281//107
f 282//108 283//108 284//108
f 285//104 286//104 287//104
f 288//104 289//104 285//104
f 290//104 291//104 289//104
f 292//104 293//104 291//104
f 294//104 295//104 293//104
f 296//104 297//104 295//104
f 298//108 299//108 297//108
f 300//104 301//104 299//104
f 302//108 303//108 301//108
f 304//104 305//104 303//104
f 306//104 307//104 305//104
f 308//104 309//104 307//104
f 310//104 311//104 309//104
f 309//104 312//104 313//104
f 313//104 314//104 315//104
f 315//104 316//104 317//104
f 317//104 318//104 319//104
f 319//104 320//104 321//104
f 321//104 322//104 323//104
f 323//104 324//104 325//104
f 325//104 326//104 327//104
f 327//104 328//104 329//104
f 329//104 330//104 331//104
f 332//104 333//104 334//104
f 335//104 333//104 336//104
f 337//104 332//104 338//104
f 339//104 337//104 340//104
f 341//104 339//104 342//104
f 343//104 341//104 344//104
f 345//104 343//104 346//104
f 347//104 345//104 348//104
f 284//104 347//104 349//104
f 350//104 351//104 284//104
f 352//104 353//104 283//104
f 354//104 355//104 353//104
f 356//104 357//104 355//104
f 358//108 359//108 357//108
f 360//104 361//104 359//104
f 362//104 363//104 364//104
f 362//104 365//104 366//104
f 364//104 367//104 368//104
f 368//104 369//104 370//104
f 370//104 371//104 372//104
f 372//104 373//104 374//104
f 374//104 375//104 376//104
f 376//104 377//104 378//104
f 378//104 379//104 380//104
f 380//104 381//104 382//104
f 382//108 383//108 384//108
f 384//104 385//104 386//104
f 386//104 387//104 388//104
f 388//104 389//104 390//104
f 391//104 281//104 388//104
f 392//104 280//104 393//104
f 394//104 392//104 395//104
f 396//104 394//104 397//104
f 398//108 399//108 396//108
f 400//104 401//104 399//104
f 402//104 403//104 401//104
f 404//104 405//104 403//104
f 406//104 407//104 405//104
f 331//104 408//104 336//104
f 409//104 410//104 407//104
f 411//104 365//104 361//104
f 410//104 412//104 413//104
f 414//109 415//110 416//109
f 417//111 418//112 419//111
f 420//112 421//112 419//111
f 422//113 423//113 421//112
f 424//114 425//114 423//113
f 426//115 427//115 425//116
f 428//117 427//115 429//115
f 430//118 431//119 432//119
f 433//118 431//119 434//118
f 435//120 433//121 436//120
f 435//122 437//122 438//123
f 439//124 440//124 441//125
f 442//125 443//125 444//126
f 442//125 445//127 446//127
f 446//128 447//129 448//129
f 449//130 450//131 448//130
f 451//132 452//133 453//132
f 454//133 455//133 453//132
f 456//134 457//134 455//133
f 458//135 457//134 459//134
f 460//136 461//135 462//135
f 463//136 461//135 464//136
f 465//137 463//138 466//137
f 465//137 467//137 468//139
f 469//140 470//140 471//141
f 469//140 472//141 473//141
f 473//142 474//143 475//143
f 476//144 477//145 475//144
f 478//146 479//147 480//146
f 481//147 482//147 480//146
f 483//148 484//148 482//149
f 485//150 484//151 486//151
f 487//152 488//153 489//153
f 490//152 488//153 491//152
f 492//154 490//155 493//154
f 492//156 494//157 495//158
f 496//159 497//159 498//160
f 496//159 499//160 500//160
f 500//161 501//162 502//162
f 503//162 504//1 502//162
f 505//1 506//163 507//1
f 508//163 509//163 507//1
f 510//164 511//164 509//163
f 512//165 511//166 513//166
f 514//167 515//168 516//168
f 517//169 518//170 519//170
f 520//169 518//170 521//169
f 522//171 520//172 523//171
f 522//173 524//173 525//174
f 526//175 527//175 528//176
f 526//175 529//176 530//176
f 530//177 531//178 532//178
f 533//179 534//180 532//179
f 535//181 536//182 537//181
f 538//183 539//183 537//184
f 540//185 541//185 539//183
f 542//186 541//187 543//187
f 544//188 545//186 546//186
f 547//188 545//186 548//188
f 549//189 547//188 550//189
f 549//189 551//189 552//190
f 553//190 554//190 555//191
f 553//190 556//192 557//192
f 558//193 559//194 560//193
f 561//195 562//195 558//193
f 563//195 558//193 564//193
f 559//194 565//194 566//193
f 567//196 568//197 559//197
f 569//196 570//197 567//196
f 571//196 567//196 572//198
f 573//196 572//198 574//198
f 572//198 575//199 576//198
f 575//199 577//199 578//198
f 579//200 580//201 575//201
f 581//200 582//201 579//200
f 583//200 579//200 584//202
f 585//200 584//202 586//202
f 584//203 587//204 588//203
f 587//204 589//204 590//203
f 591//205 592//206 587//206
f 593//205 594//206 591//205
f 595//207 591//207 596//208
f 597//207 596//209 598//209
f 596//208 599//210 600//208
f 599//211 601//211 602//208
f 603//212 604//210 599//210
f 605//213 606//210 603//213
f 607//214 603//214 608//215
f 609//214 608//215 610//215
f 608//215 611//216 612//215
f 611//217 613//217 614//218
f 557//192 615//219 611//219
f 616//192 617//220 557//192
f 549//189 618//190 553//190
f 547//188 619//188 620//189
f 545//186 541//187 621//186
f 622//185 539//183 623//183
f 624//180 537//180 532//179
f 625//177 626//178 530//177
f 522//173 627//174 526//174
f 520//172 628//172 629//173
f 518//221 515//168 630//167
f 515//165 511//166 631//165
f 632//164 509//163 633//163
f 634//1 507//1 502//162
f 635//161 636//162 500//161
f 492//156 637//158 496//158
f 490//155 638//155 639//154
f 488//150 484//151 640//150
f 641//222 482//149 642//149
f 643//145 480//145 475//144
f 644//141 645//143 473//141
f 465//137 646//139 469//139
f 463//136 647//136 648//137
f 461//135 457//134 649//135
f 650//223 455//133 651//133
f 652//224 453//224 448//129
f 653//128 654//129 446//128
f 439//123 655//225 442//225
f 435//122 656//226 439//226
f 433//121 657//121 658//120
f 659//116 660//115 425//116
f 421//112 661//112 662//113
f 416//109 663//227 664//109
f 416//109 665//227 666//227
f 667//117 431//117 427//115
f 423//113 668//113 669//114
f 419//110 416//109 670//110
f 671//228 672//229 673//230
f 674//231 675//232 676//233
f 677//234 678//235 679//229
f 680//236 681//235 682//237
f 683//238 684//239 685//240
f 686//241 687//240 688//242
f 689//243 690//242 691//244
f 692//245 693//246 694//247
f 695//244 696//248 697//249
f 698//248 699//250 700//251
f 701//250 702//252 703//251
f 704//253 705//254 706//252
f 707//255 708//256 709//254
f 710//257 711//258 712//255
f 713//259 714//260 715//261
f 716//259 717//257 718//262
f 719//259 720//262 721//263
f 722//262 723//264 724//263
f 725//265 726//266 727//267
f 728//264 729//265 730//263
f 731//266 732//268 733//269
f 734//268 735//270 736//271
f 737//270 738//272 739//273
f 738//272 740//274 741//273
f 742//273 743//275 744//276
f 745//277 746//276 747//278
f 748//277 749//279 750//280
f 751//281 752//282 753//283
f 754//284 755//285 756//286
f 757//287 758//288 759//289
f 760//288 761//290 762//289
f 763//291 764//292 765//290
f 766//293 767//294 768//295
f 769//296 770//297 771//298
f 772//299 773//300 774//301
f 775//302 776//299 777//302
f 778//303 779//304 780//304
f 781//305 782//306 783//307
f 784//305 785//307 786//308
f 787//309 788//310 789//311
f 790//312 791//313 792//314
f 793//315 794//316 795//317
f 796//318 797//319 798//320
f 799//321 800//322 801//323
f 802//324 803//325 804//322
f 805//326 806//327 807//324
f 808//328 809//329 810//330
f 811//331 812//332 813//333
f 814//334 815//331 816//335
f 817//336 818//337 819//338
f 820//339 821//340 822//338
f 823//341 824//342 825//343
f 826//344 827//341 828//345
f 829//346 830//344 831//347
f 832//348 833//346 834//349
f 835//350 836//340 837//331
f 838//351 839//352 840//353
f 841//354 842//355 843//356
f 844//354 845//357 846//358
f 847//356 848//359 849//360
f 850//359 851//361 852//360
f 853//362 854//361 855//359
f 856//363 857//361 858//362
f 859//363 860//362 861//364
f 862//363 863//364 864//365
f 865//363 866//365 867//366
f 868//365 869//367 870//368
f 871//369 872//370 873//366
f 874//371 875//370 876//372
f 877//373 878//370 879//374
f 880//375 881//374 882//376
f 883//377 884//378 885//379
f 886//377 887//380 888//381
f 889//380 890//382 891//383
f 892//382 893//384 894//383
f 895//385 896//386 897//382
f 898//387 899//384 900//388
f 901//389 902//385 903//390
f 904//387 905//390 906//391
f 907//390 908//392 909//393
f 910//392 911//394 912//393
f 913//395 914//349 915//392
f 916//346 917//396 918//349
f 919//344 920//345 921//396
f 922//341 923//343 924//345
f 925//397 926//339 927//338
f 928//398 929//331 930//340
f 931//331 814//334 835//350
f 932//399 816//335 933//331
f 934//400 935//399 936//401
f 937//324 938//402 939//326
f 940//322 941//403 942//324
f 943//319 944//404 945//321
f 946//405 947//315 948//404
f 949//317 950//314 951//315
f 952//310 953//308 954//307
f 955//299 956//301 957//304
f 958//406 959//298 960//301
f 961//294 962//407 963//291
f 964//291 965//290 966//288
f 967//408 968//409 969//286
f 970//284 971//410 972//283
f 973//279 974//284 975//281
f 976//273 977//411 978//412
f 740//413 743//414 979//415
f 980//270 981//416 982//271
f 983//268 984//417 985//269
f 986//264 987//266 988//265
f 989//261 990//260 991//258
f 992//418 993//255 994//254
f 995//250 996//418 997//252
f 998//244 999//245 1000//419
f 1001//238 1002//240 1003//241
f 1004//236 1005//237 1006//238
f 1007//235 1008//420 1009//237
f 1010//421 1011//422 1012//229
f 1013//423 1014//424 1015//425
f 1016//242 1017//243 1018//426
f 1019//251 1020//249 1021//248
f 1022//427 1023//423 1024//233
f 95//59 78//59 1025//428
f 1026//428 1027//429 95//59
f 95//59 1028//430 1029//431
s 0
f 1030//431 1031//59 1032//432
s 1
f 1033//433 132//96 134//98
f 1034//433 1035//434 132//435
f 1036//436 1037//431 1038//432
f 1039//437 1040//438 132//96
f 67//49 1041//439 1042//440
f 64//46 67//49 1043//440
f 1044//441 67//442 1045//443
f 80//59 82//59 1046//444
f 1047//444 82//59 1048//445
f 1049//446 82//59 1050//447
s 0
f 1051//59 1052//445 1053//448
s 1
f 1054//449 1055//448 1056//450
