# Blender 4.4.3
# www.blender.org
mtllib Mesh_18.006.mtl
o Mesh_18.006
v 0.017230 0.008776 -0.004103
v 0.017230 0.008830 -0.004103
v 0.017230 0.008827 -0.004105
v 0.017230 0.008824 -0.004107
v 0.017230 0.008821 -0.004109
v 0.017230 0.008817 -0.004110
v 0.017230 0.008810 -0.004112
v 0.017230 0.008814 -0.004112
v 0.017230 0.008807 -0.004113
v 0.017230 0.008803 -0.004113
v 0.017230 0.008799 -0.004113
v 0.017230 0.008796 -0.004112
v 0.017230 0.008792 -0.004112
v 0.017230 0.008789 -0.004110
v 0.017230 0.008785 -0.004109
v 0.017230 0.008782 -0.004107
v 0.017230 0.008779 -0.004105
v 0.017230 0.008773 -0.004100
v 0.017230 0.008833 -0.004100
v 0.017230 0.008770 -0.004097
v 0.017230 0.008836 -0.004097
v 0.017230 0.008766 -0.004093
v 0.017230 0.008840 -0.004093
v 0.017230 0.008763 -0.004090
v 0.017230 0.008843 -0.004090
v 0.017230 0.008760 -0.004086
v 0.017230 0.008846 -0.004086
v 0.017230 0.008757 -0.004083
v 0.017230 0.008849 -0.004083
v 0.017230 0.008754 -0.004079
v 0.017230 0.008852 -0.004079
v 0.017230 0.008854 -0.004075
v 0.017230 0.008752 -0.004075
v 0.017230 0.008749 -0.004071
v 0.017230 0.008744 -0.004063
v 0.017230 0.008859 -0.004067
v 0.017230 0.008747 -0.004067
v 0.017230 0.008857 -0.004071
v 0.017230 0.008872 -0.004042
v 0.017230 0.008870 -0.004047
v 0.017230 0.008872 -0.004040
v 0.017230 0.008868 -0.004051
v 0.017230 0.008866 -0.004055
v 0.017230 0.008734 -0.004040
v 0.017230 0.008738 -0.004051
v 0.017230 0.008740 -0.004055
v 0.017230 0.008736 -0.004047
v 0.017230 0.008864 -0.004059
v 0.017230 0.008742 -0.004059
v 0.017230 0.008862 -0.004063
v 0.017230 0.008734 -0.004042
v 0.017460 0.008734 -0.004040
v 0.017460 0.008734 -0.004042
v 0.017460 0.008736 -0.004047
v 0.017460 0.008738 -0.004051
v 0.017460 0.008740 -0.004055
v 0.017460 0.008866 -0.004055
v 0.017460 0.008742 -0.004059
v 0.017460 0.008864 -0.004059
v 0.017460 0.008744 -0.004063
v 0.017460 0.008862 -0.004063
v 0.017460 0.008747 -0.004067
v 0.017460 0.008749 -0.004071
v 0.017460 0.008859 -0.004067
v 0.017460 0.008857 -0.004071
v 0.017460 0.008854 -0.004075
v 0.017460 0.008752 -0.004075
v 0.017460 0.008754 -0.004079
v 0.017460 0.008852 -0.004079
v 0.017460 0.008757 -0.004083
v 0.017460 0.008849 -0.004083
v 0.017460 0.008760 -0.004086
v 0.017460 0.008846 -0.004086
v 0.017460 0.008840 -0.004093
v 0.017460 0.008843 -0.004090
v 0.017460 0.008766 -0.004093
v 0.017460 0.008836 -0.004097
v 0.017460 0.008770 -0.004097
v 0.017460 0.008773 -0.004100
v 0.017460 0.008830 -0.004103
v 0.017460 0.008833 -0.004100
v 0.017460 0.008776 -0.004103
v 0.017460 0.008827 -0.004105
v 0.017460 0.008824 -0.004107
v 0.017460 0.008779 -0.004105
v 0.017460 0.008782 -0.004107
v 0.017460 0.008785 -0.004109
v 0.017460 0.008792 -0.004112
v 0.017460 0.008789 -0.004110
v 0.017460 0.008796 -0.004112
v 0.017460 0.008799 -0.004113
v 0.017460 0.008803 -0.004113
v 0.017460 0.008807 -0.004113
v 0.017460 0.008810 -0.004112
v 0.017460 0.008814 -0.004112
v 0.017460 0.008817 -0.004110
v 0.017460 0.008821 -0.004109
v 0.017460 0.008763 -0.004090
v 0.017460 0.008872 -0.004040
v 0.017460 0.008868 -0.004051
v 0.017460 0.008872 -0.004042
v 0.017460 0.008870 -0.004047
v 0.017460 0.008734 -0.004042
v 0.017460 0.008734 -0.004040
v 0.017402 0.008734 -0.004042
v 0.017460 0.008734 -0.004040
v 0.017230 0.008734 -0.004040
v 0.017230 0.008734 -0.004042
v 0.017345 0.008734 -0.004042
v 0.017460 0.008734 -0.004040
v 0.017288 0.008734 -0.004042
v 0.017460 0.008734 -0.004040
v 0.017460 0.008734 -0.004040
v 0.017230 0.008734 -0.004042
v 0.017325 0.008805 -0.004040
v 0.017325 0.008803 -0.004113
v 0.017325 0.008803 -0.004040
v 0.017325 0.008807 -0.004113
v 0.017325 0.008805 -0.004113
v 0.017324 0.008809 -0.004112
v 0.017325 0.008807 -0.004040
v 0.017324 0.008809 -0.004040
v 0.017324 0.008811 -0.004112
v 0.017324 0.008811 -0.004040
v 0.017323 0.008813 -0.004112
v 0.017323 0.008813 -0.004040
v 0.017322 0.008815 -0.004111
v 0.017323 0.008815 -0.004040
v 0.017322 0.008817 -0.004040
v 0.017321 0.008817 -0.004110
v 0.017320 0.008819 -0.004110
v 0.017321 0.008819 -0.004040
v 0.017319 0.008821 -0.004109
v 0.017320 0.008820 -0.004040
v 0.017318 0.008822 -0.004040
v 0.017318 0.008822 -0.004108
v 0.017317 0.008824 -0.004107
v 0.017315 0.008825 -0.004106
v 0.017317 0.008823 -0.004040
v 0.017311 0.008829 -0.004104
v 0.017311 0.008829 -0.004040
v 0.017309 0.008830 -0.004103
v 0.017309 0.008830 -0.004040
v 0.017312 0.008827 -0.004040
v 0.017312 0.008828 -0.004105
v 0.017314 0.008826 -0.004040
v 0.017314 0.008826 -0.004106
v 0.017316 0.008825 -0.004040
v 0.017325 0.008801 -0.004113
v 0.017325 0.008801 -0.004040
v 0.017325 0.008799 -0.004113
v 0.017325 0.008798 -0.004040
v 0.017324 0.008797 -0.004112
v 0.017324 0.008796 -0.004040
v 0.017324 0.008795 -0.004112
v 0.017323 0.008793 -0.004112
v 0.017323 0.008793 -0.004040
v 0.017323 0.008791 -0.004040
v 0.017322 0.008791 -0.004111
v 0.017321 0.008789 -0.004110
v 0.017322 0.008789 -0.004040
v 0.017320 0.008787 -0.004110
v 0.017320 0.008787 -0.004040
v 0.017319 0.008785 -0.004040
v 0.017319 0.008785 -0.004109
v 0.017317 0.008783 -0.004040
v 0.017315 0.008781 -0.004106
v 0.017316 0.008781 -0.004040
v 0.017317 0.008782 -0.004107
v 0.017318 0.008784 -0.004108
v 0.017314 0.008780 -0.004106
v 0.017312 0.008779 -0.004105
v 0.017311 0.008777 -0.004104
v 0.017312 0.008778 -0.004040
v 0.017314 0.008780 -0.004040
v 0.017309 0.008776 -0.004103
v 0.017310 0.008777 -0.004040
v 0.017307 0.008776 -0.004102
v 0.017308 0.008776 -0.004040
v 0.017306 0.008775 -0.004102
v 0.017305 0.008775 -0.004040
v 0.017304 0.008774 -0.004101
v 0.017303 0.008774 -0.004040
v 0.017302 0.008774 -0.004101
v 0.017301 0.008774 -0.004040
v 0.017300 0.008774 -0.004100
v 0.017299 0.008773 -0.004100
v 0.017297 0.008773 -0.004100
v 0.017298 0.008773 -0.004040
v 0.017296 0.008773 -0.004040
v 0.017295 0.008773 -0.004100
v 0.017293 0.008773 -0.004100
v 0.017293 0.008773 -0.004040
v 0.017291 0.008773 -0.004040
v 0.017291 0.008773 -0.004100
v 0.017289 0.008774 -0.004040
v 0.017289 0.008774 -0.004100
v 0.017286 0.008774 -0.004040
v 0.017288 0.008774 -0.004101
v 0.017284 0.008775 -0.004040
v 0.017286 0.008774 -0.004101
v 0.017284 0.008775 -0.004102
v 0.017282 0.008776 -0.004040
v 0.017283 0.008776 -0.004102
v 0.017281 0.008776 -0.004103
v 0.017280 0.008777 -0.004040
v 0.017279 0.008777 -0.004104
v 0.017278 0.008779 -0.004040
v 0.017278 0.008778 -0.004105
v 0.017276 0.008780 -0.004106
v 0.017276 0.008780 -0.004040
v 0.017274 0.008782 -0.004040
v 0.017275 0.008781 -0.004106
v 0.017273 0.008782 -0.004107
v 0.017272 0.008784 -0.004040
v 0.017272 0.008784 -0.004108
v 0.017271 0.008785 -0.004109
v 0.017271 0.008785 -0.004040
v 0.017269 0.008787 -0.004040
v 0.017268 0.008790 -0.004040
v 0.017270 0.008787 -0.004110
v 0.017269 0.008789 -0.004110
v 0.017267 0.008792 -0.004040
v 0.017268 0.008791 -0.004111
v 0.017267 0.008793 -0.004112
v 0.017266 0.008794 -0.004040
v 0.017266 0.008795 -0.004112
v 0.017265 0.008799 -0.004040
v 0.017266 0.008796 -0.004040
v 0.017266 0.008797 -0.004112
v 0.017265 0.008799 -0.004113
v 0.017266 0.008809 -0.004112
v 0.017266 0.008811 -0.004112
v 0.017266 0.008811 -0.004040
v 0.017265 0.008801 -0.004040
v 0.017265 0.008801 -0.004113
v 0.017269 0.008817 -0.004110
v 0.017270 0.008819 -0.004110
v 0.017269 0.008818 -0.004040
v 0.017273 0.008824 -0.004107
v 0.017273 0.008824 -0.004040
v 0.017272 0.008822 -0.004040
v 0.017279 0.008829 -0.004104
v 0.017277 0.008827 -0.004040
v 0.017278 0.008827 -0.004105
v 0.017281 0.008829 -0.004040
v 0.017283 0.008830 -0.004102
v 0.017283 0.008831 -0.004040
v 0.017288 0.008832 -0.004101
v 0.017288 0.008832 -0.004040
v 0.017285 0.008831 -0.004040
v 0.017291 0.008833 -0.004100
v 0.017290 0.008833 -0.004040
v 0.017289 0.008832 -0.004100
v 0.017293 0.008833 -0.004100
v 0.017295 0.008833 -0.004040
v 0.017292 0.008833 -0.004040
v 0.017295 0.008833 -0.004100
v 0.017297 0.008833 -0.004100
v 0.017299 0.008833 -0.004100
v 0.017297 0.008833 -0.004040
v 0.017300 0.008832 -0.004100
v 0.017300 0.008833 -0.004040
v 0.017302 0.008832 -0.004101
v 0.017302 0.008832 -0.004040
v 0.017304 0.008832 -0.004101
v 0.017304 0.008831 -0.004040
v 0.017307 0.008830 -0.004102
v 0.017307 0.008831 -0.004040
v 0.017306 0.008831 -0.004102
v 0.017286 0.008832 -0.004101
v 0.017284 0.008831 -0.004102
v 0.017281 0.008830 -0.004103
v 0.017279 0.008828 -0.004040
v 0.017276 0.008826 -0.004106
v 0.017275 0.008825 -0.004040
v 0.017275 0.008825 -0.004106
v 0.017272 0.008822 -0.004108
v 0.017270 0.008820 -0.004040
v 0.017271 0.008821 -0.004109
v 0.017268 0.008816 -0.004040
v 0.017268 0.008815 -0.004111
v 0.017267 0.008813 -0.004040
v 0.017267 0.008813 -0.004112
v 0.017266 0.008809 -0.004040
v 0.017265 0.008807 -0.004113
v 0.017265 0.008806 -0.004040
v 0.017265 0.008805 -0.004113
v 0.017265 0.008804 -0.004040
v 0.017265 0.008803 -0.004113
v 0.017288 0.008872 -0.004042
v 0.017230 0.008872 -0.004042
v 0.017460 0.008872 -0.004040
v 0.017230 0.008872 -0.004042
v 0.017230 0.008872 -0.004040
v 0.017460 0.008872 -0.004040
v 0.017402 0.008872 -0.004042
v 0.017345 0.008872 -0.004042
v 0.017460 0.008872 -0.004040
v 0.017460 0.008872 -0.004042
v 0.017460 0.008872 -0.004040
v 0.017460 0.008872 -0.004040
v 0.017311 0.008829 -0.004040
v 0.017312 0.008827 -0.004040
v 0.017460 0.008872 -0.004040
v 0.017311 0.008829 -0.004040
v 0.017460 0.008872 -0.004040
v 0.017309 0.008830 -0.004040
v 0.017312 0.008827 -0.004040
v 0.017314 0.008826 -0.004040
v 0.017460 0.008872 -0.004040
v 0.017314 0.008826 -0.004040
v 0.017316 0.008825 -0.004040
v 0.017460 0.008872 -0.004040
v 0.017316 0.008825 -0.004040
v 0.017317 0.008823 -0.004040
v 0.017460 0.008872 -0.004040
v 0.017317 0.008823 -0.004040
v 0.017318 0.008822 -0.004040
v 0.017460 0.008872 -0.004040
v 0.017318 0.008822 -0.004040
v 0.017320 0.008820 -0.004040
v 0.017460 0.008872 -0.004040
v 0.017320 0.008820 -0.004040
v 0.017321 0.008819 -0.004040
v 0.017460 0.008872 -0.004040
v 0.017321 0.008819 -0.004040
v 0.017322 0.008817 -0.004040
v 0.017460 0.008872 -0.004040
v 0.017322 0.008817 -0.004040
v 0.017323 0.008815 -0.004040
v 0.017460 0.008872 -0.004040
v 0.017323 0.008815 -0.004040
v 0.017323 0.008813 -0.004040
v 0.017460 0.008872 -0.004040
v 0.017323 0.008813 -0.004040
v 0.017324 0.008811 -0.004040
v 0.017460 0.008872 -0.004040
v 0.017324 0.008811 -0.004040
v 0.017324 0.008809 -0.004040
v 0.017460 0.008872 -0.004040
v 0.017324 0.008809 -0.004040
v 0.017325 0.008807 -0.004040
v 0.017460 0.008872 -0.004040
v 0.017325 0.008807 -0.004040
v 0.017325 0.008805 -0.004040
v 0.017460 0.008872 -0.004040
v 0.017325 0.008805 -0.004040
v 0.017325 0.008803 -0.004040
v 0.017460 0.008872 -0.004040
v 0.017325 0.008803 -0.004040
v 0.017460 0.008734 -0.004040
v 0.017460 0.008872 -0.004040
v 0.017325 0.008801 -0.004040
v 0.017460 0.008734 -0.004040
v 0.017325 0.008803 -0.004040
v 0.017325 0.008798 -0.004040
v 0.017460 0.008734 -0.004040
v 0.017325 0.008801 -0.004040
v 0.017324 0.008796 -0.004040
v 0.017460 0.008734 -0.004040
v 0.017325 0.008798 -0.004040
v 0.017460 0.008734 -0.004040
v 0.017324 0.008796 -0.004040
v 0.017323 0.008793 -0.004040
v 0.017460 0.008734 -0.004040
v 0.017323 0.008793 -0.004040
v 0.017323 0.008791 -0.004040
v 0.017460 0.008734 -0.004040
v 0.017323 0.008791 -0.004040
v 0.017322 0.008789 -0.004040
v 0.017460 0.008734 -0.004040
v 0.017322 0.008789 -0.004040
v 0.017320 0.008787 -0.004040
v 0.017460 0.008734 -0.004040
v 0.017320 0.008787 -0.004040
v 0.017319 0.008785 -0.004040
v 0.017460 0.008734 -0.004040
v 0.017319 0.008785 -0.004040
v 0.017317 0.008783 -0.004040
v 0.017460 0.008734 -0.004040
v 0.017317 0.008783 -0.004040
v 0.017316 0.008781 -0.004040
v 0.017312 0.008778 -0.004040
v 0.017310 0.008777 -0.004040
v 0.017460 0.008734 -0.004040
v 0.017312 0.008778 -0.004040
v 0.017460 0.008734 -0.004040
v 0.017314 0.008780 -0.004040
v 0.017460 0.008734 -0.004040
v 0.017316 0.008781 -0.004040
v 0.017314 0.008780 -0.004040
v 0.017308 0.008776 -0.004040
v 0.017460 0.008734 -0.004040
v 0.017310 0.008777 -0.004040
v 0.017305 0.008775 -0.004040
v 0.017460 0.008734 -0.004040
v 0.017308 0.008776 -0.004040
v 0.017303 0.008774 -0.004040
v 0.017460 0.008734 -0.004040
v 0.017305 0.008775 -0.004040
v 0.017230 0.008734 -0.004040
v 0.017460 0.008734 -0.004040
v 0.017303 0.008774 -0.004040
v 0.017230 0.008734 -0.004040
v 0.017303 0.008774 -0.004040
v 0.017301 0.008774 -0.004040
v 0.017230 0.008734 -0.004040
v 0.017301 0.008774 -0.004040
v 0.017298 0.008773 -0.004040
v 0.017230 0.008734 -0.004040
v 0.017298 0.008773 -0.004040
v 0.017296 0.008773 -0.004040
v 0.017230 0.008734 -0.004040
v 0.017296 0.008773 -0.004040
v 0.017293 0.008773 -0.004040
v 0.017289 0.008774 -0.004040
v 0.017286 0.008774 -0.004040
v 0.017230 0.008734 -0.004040
v 0.017289 0.008774 -0.004040
v 0.017230 0.008734 -0.004040
v 0.017291 0.008773 -0.004040
v 0.017286 0.008774 -0.004040
v 0.017284 0.008775 -0.004040
v 0.017230 0.008734 -0.004040
v 0.017284 0.008775 -0.004040
v 0.017282 0.008776 -0.004040
v 0.017230 0.008734 -0.004040
v 0.017282 0.008776 -0.004040
v 0.017280 0.008777 -0.004040
v 0.017230 0.008734 -0.004040
v 0.017280 0.008777 -0.004040
v 0.017278 0.008779 -0.004040
v 0.017230 0.008734 -0.004040
v 0.017278 0.008779 -0.004040
v 0.017276 0.008780 -0.004040
v 0.017230 0.008734 -0.004040
v 0.017276 0.008780 -0.004040
v 0.017274 0.008782 -0.004040
v 0.017230 0.008734 -0.004040
v 0.017274 0.008782 -0.004040
v 0.017272 0.008784 -0.004040
v 0.017230 0.008734 -0.004040
v 0.017272 0.008784 -0.004040
v 0.017271 0.008785 -0.004040
v 0.017230 0.008734 -0.004040
v 0.017271 0.008785 -0.004040
v 0.017269 0.008787 -0.004040
v 0.017230 0.008734 -0.004040
v 0.017269 0.008787 -0.004040
v 0.017268 0.008790 -0.004040
v 0.017230 0.008734 -0.004040
v 0.017268 0.008790 -0.004040
v 0.017267 0.008792 -0.004040
v 0.017230 0.008734 -0.004040
v 0.017266 0.008794 -0.004040
v 0.017230 0.008734 -0.004040
v 0.017267 0.008792 -0.004040
v 0.017266 0.008796 -0.004040
v 0.017230 0.008734 -0.004040
v 0.017266 0.008794 -0.004040
v 0.017265 0.008799 -0.004040
v 0.017230 0.008734 -0.004040
v 0.017266 0.008796 -0.004040
v 0.017230 0.008734 -0.004040
v 0.017293 0.008773 -0.004040
v 0.017291 0.008773 -0.004040
v 0.017265 0.008804 -0.004040
v 0.017230 0.008734 -0.004040
v 0.017265 0.008801 -0.004040
v 0.017230 0.008872 -0.004040
v 0.017230 0.008734 -0.004040
v 0.017265 0.008804 -0.004040
v 0.017230 0.008872 -0.004040
v 0.017265 0.008804 -0.004040
v 0.017265 0.008806 -0.004040
v 0.017230 0.008872 -0.004040
v 0.017265 0.008806 -0.004040
v 0.017266 0.008809 -0.004040
v 0.017230 0.008872 -0.004040
v 0.017266 0.008809 -0.004040
v 0.017266 0.008811 -0.004040
v 0.017268 0.008816 -0.004040
v 0.017269 0.008818 -0.004040
v 0.017230 0.008872 -0.004040
v 0.017268 0.008816 -0.004040
v 0.017230 0.008872 -0.004040
v 0.017267 0.008813 -0.004040
v 0.017269 0.008818 -0.004040
v 0.017270 0.008820 -0.004040
v 0.017230 0.008872 -0.004040
v 0.017270 0.008820 -0.004040
v 0.017272 0.008822 -0.004040
v 0.017230 0.008872 -0.004040
v 0.017272 0.008822 -0.004040
v 0.017273 0.008824 -0.004040
v 0.017230 0.008872 -0.004040
v 0.017273 0.008824 -0.004040
v 0.017275 0.008825 -0.004040
v 0.017230 0.008872 -0.004040
v 0.017275 0.008825 -0.004040
v 0.017277 0.008827 -0.004040
v 0.017230 0.008872 -0.004040
v 0.017277 0.008827 -0.004040
v 0.017279 0.008828 -0.004040
v 0.017230 0.008872 -0.004040
v 0.017279 0.008828 -0.004040
v 0.017281 0.008829 -0.004040
v 0.017230 0.008872 -0.004040
v 0.017281 0.008829 -0.004040
v 0.017283 0.008831 -0.004040
v 0.017230 0.008872 -0.004040
v 0.017283 0.008831 -0.004040
v 0.017285 0.008831 -0.004040
v 0.017230 0.008872 -0.004040
v 0.017285 0.008831 -0.004040
v 0.017288 0.008832 -0.004040
v 0.017230 0.008872 -0.004040
v 0.017290 0.008833 -0.004040
v 0.017230 0.008872 -0.004040
v 0.017288 0.008832 -0.004040
v 0.017292 0.008833 -0.004040
v 0.017230 0.008872 -0.004040
v 0.017290 0.008833 -0.004040
v 0.017295 0.008833 -0.004040
v 0.017230 0.008872 -0.004040
v 0.017292 0.008833 -0.004040
v 0.017297 0.008833 -0.004040
v 0.017230 0.008872 -0.004040
v 0.017295 0.008833 -0.004040
v 0.017300 0.008833 -0.004040
v 0.017230 0.008872 -0.004040
v 0.017297 0.008833 -0.004040
v 0.017302 0.008832 -0.004040
v 0.017230 0.008872 -0.004040
v 0.017300 0.008833 -0.004040
v 0.017460 0.008872 -0.004040
v 0.017230 0.008872 -0.004040
v 0.017302 0.008832 -0.004040
v 0.017460 0.008872 -0.004040
v 0.017302 0.008832 -0.004040
v 0.017304 0.008831 -0.004040
v 0.017230 0.008872 -0.004040
v 0.017266 0.008811 -0.004040
v 0.017267 0.008813 -0.004040
v 0.017309 0.008830 -0.004040
v 0.017460 0.008872 -0.004040
v 0.017307 0.008831 -0.004040
v 0.017307 0.008831 -0.004040
v 0.017460 0.008872 -0.004040
v 0.017304 0.008831 -0.004040
v 0.017265 0.008799 -0.004040
v 0.017265 0.008801 -0.004040
v 0.017230 0.008734 -0.004040
v 0.017384 0.008854 -0.004076
v 0.017376 0.008852 -0.004079
v 0.017355 0.008853 -0.004076
v 0.017402 0.008853 -0.004077
v 0.017423 0.008846 -0.004086
v 0.017423 0.008849 -0.004082
v 0.017432 0.008845 -0.004087
v 0.017413 0.008843 -0.004090
v 0.017384 0.008845 -0.004087
v 0.017382 0.008839 -0.004094
v 0.017376 0.008834 -0.004099
v 0.017356 0.008839 -0.004094
v 0.017423 0.008838 -0.004094
v 0.017422 0.008834 -0.004099
v 0.017438 0.008841 -0.004092
v 0.017387 0.008850 -0.004081
v 0.017361 0.008849 -0.004083
v 0.017358 0.008842 -0.004090
v 0.017460 0.008843 -0.004090
v 0.017297 0.008868 -0.004052
v 0.017293 0.008866 -0.004057
v 0.017230 0.008868 -0.004051
v 0.017308 0.008867 -0.004053
v 0.017257 0.008849 -0.004082
v 0.017269 0.008853 -0.004076
v 0.017292 0.008851 -0.004080
v 0.017230 0.008849 -0.004083
v 0.017230 0.008852 -0.004079
v 0.017271 0.008846 -0.004086
v 0.017291 0.008842 -0.004091
v 0.017230 0.008843 -0.004090
v 0.017306 0.008846 -0.004085
v 0.017300 0.008852 -0.004079
v 0.017278 0.008857 -0.004071
v 0.017306 0.008855 -0.004074
v 0.017230 0.008852 -0.004079
v 0.017230 0.008854 -0.004075
v 0.017387 0.008859 -0.004069
v 0.017381 0.008862 -0.004063
v 0.017416 0.008860 -0.004066
v 0.017373 0.008857 -0.004071
v 0.017358 0.008860 -0.004066
v 0.017398 0.008864 -0.004059
v 0.017395 0.008867 -0.004054
v 0.017460 0.008866 -0.004055
v 0.017383 0.008865 -0.004058
v 0.017406 0.008857 -0.004071
v 0.017460 0.008862 -0.004063
v 0.017460 0.008859 -0.004067
v 0.017264 0.008863 -0.004061
v 0.017271 0.008860 -0.004066
v 0.017230 0.008862 -0.004063
v 0.017304 0.008862 -0.004063
v 0.017230 0.008857 -0.004071
v 0.017340 0.008857 -0.004071
v 0.017355 0.008862 -0.004063
v 0.017317 0.008858 -0.004070
v 0.017338 0.008853 -0.004077
v 0.017348 0.008852 -0.004079
v 0.017326 0.008850 -0.004081
v 0.017329 0.008846 -0.004086
v 0.017373 0.008865 -0.004057
v 0.017460 0.008864 -0.004059
v 0.017319 0.008865 -0.004057
v 0.017343 0.008866 -0.004055
v 0.017289 0.008870 -0.004047
v 0.017354 0.008867 -0.004053
v 0.017344 0.008870 -0.004047
v 0.017400 0.008870 -0.004046
v 0.017460 0.008836 -0.004097
v 0.017384 0.008830 -0.004103
v 0.017460 0.008854 -0.004075
v 0.017460 0.008852 -0.004079
v 0.017460 0.008849 -0.004083
v 0.017334 0.008841 -0.004091
v 0.017230 0.008870 -0.004047
v 0.017230 0.008868 -0.004051
v 0.017460 0.008870 -0.004047
v 0.017291 0.008836 -0.004097
v 0.017314 0.008836 -0.004097
v 0.017289 0.008832 -0.004100
v 0.017288 0.008832 -0.004101
v 0.017230 0.008849 -0.004083
v 0.017230 0.008846 -0.004086
v 0.017297 0.008833 -0.004100
v 0.017460 0.008836 -0.004097
v 0.017460 0.008840 -0.004093
v 0.017309 0.008830 -0.004103
v 0.017309 0.008830 -0.004103
v 0.017460 0.008868 -0.004051
v 0.017460 0.008866 -0.004055
v 0.017460 0.008843 -0.004090
v 0.017460 0.008840 -0.004093
v 0.017307 0.008830 -0.004102
v 0.017306 0.008831 -0.004102
v 0.017460 0.008836 -0.004097
v 0.017460 0.008833 -0.004100
v 0.017230 0.008864 -0.004059
v 0.017230 0.008866 -0.004055
v 0.017230 0.008854 -0.004075
v 0.017230 0.008857 -0.004071
v 0.017460 0.008857 -0.004071
v 0.017293 0.008833 -0.004100
v 0.017295 0.008833 -0.004100
v 0.017460 0.008846 -0.004086
v 0.017460 0.008849 -0.004083
v 0.017283 0.008830 -0.004102
v 0.017230 0.008833 -0.004100
v 0.017284 0.008831 -0.004102
v 0.017283 0.008830 -0.004102
v 0.017281 0.008830 -0.004103
v 0.017230 0.008833 -0.004100
v 0.017284 0.008831 -0.004102
v 0.017230 0.008833 -0.004100
v 0.017286 0.008832 -0.004101
v 0.017286 0.008832 -0.004101
v 0.017230 0.008833 -0.004100
v 0.017230 0.008836 -0.004097
v 0.017286 0.008832 -0.004101
v 0.017230 0.008836 -0.004097
v 0.017288 0.008832 -0.004101
v 0.017286 0.008832 -0.004101
v 0.017230 0.008836 -0.004097
v 0.017230 0.008840 -0.004093
v 0.017289 0.008832 -0.004100
v 0.017291 0.008833 -0.004100
v 0.017230 0.008843 -0.004090
v 0.017230 0.008846 -0.004086
v 0.017230 0.008852 -0.004079
v 0.017460 0.008843 -0.004090
v 0.017460 0.008846 -0.004086
v 0.017230 0.008857 -0.004071
v 0.017297 0.008833 -0.004100
v 0.017299 0.008833 -0.004100
v 0.017299 0.008833 -0.004100
v 0.017300 0.008832 -0.004100
v 0.017460 0.008833 -0.004100
v 0.017460 0.008830 -0.004103
v 0.017302 0.008832 -0.004101
v 0.017300 0.008832 -0.004100
v 0.017230 0.008840 -0.004093
v 0.017230 0.008843 -0.004090
v 0.017309 0.008830 -0.004103
v 0.017307 0.008830 -0.004102
v 0.017306 0.008831 -0.004102
v 0.017304 0.008832 -0.004101
v 0.017460 0.008830 -0.004103
v 0.017302 0.008832 -0.004101
v 0.017304 0.008832 -0.004101
v 0.017460 0.008836 -0.004097
v 0.017295 0.008833 -0.004100
v 0.017297 0.008833 -0.004100
v 0.017230 0.008859 -0.004067
v 0.017230 0.008862 -0.004063
v 0.017460 0.008854 -0.004075
v 0.017230 0.008857 -0.004071
v 0.017230 0.008859 -0.004067
v 0.017460 0.008852 -0.004079
v 0.017460 0.008854 -0.004075
v 0.017230 0.008862 -0.004063
v 0.017230 0.008864 -0.004059
v 0.017460 0.008857 -0.004071
v 0.017460 0.008859 -0.004067
v 0.017460 0.008870 -0.004047
v 0.017460 0.008868 -0.004051
v 0.017460 0.008872 -0.004042
v 0.017460 0.008870 -0.004047
v 0.017460 0.008868 -0.004051
v 0.017460 0.008864 -0.004059
v 0.017460 0.008866 -0.004055
v 0.017230 0.008870 -0.004047
v 0.017230 0.008872 -0.004042
v 0.017460 0.008864 -0.004059
v 0.017460 0.008862 -0.004063
v 0.017230 0.008870 -0.004047
v 0.017230 0.008868 -0.004051
v 0.017230 0.008866 -0.004055
v 0.017230 0.008868 -0.004051
v 0.017230 0.008866 -0.004055
v 0.017460 0.008854 -0.004075
v 0.017460 0.008857 -0.004071
v 0.017460 0.008849 -0.004083
v 0.017291 0.008833 -0.004100
v 0.017293 0.008833 -0.004100
v 0.017230 0.008840 -0.004093
v 0.017230 0.008833 -0.004100
v 0.017281 0.008830 -0.004103
v 0.017230 0.008830 -0.004103
v 0.017230 0.008846 -0.004086
v 0.017230 0.008830 -0.004103
v 0.017281 0.008830 -0.004103
v 0.017279 0.008829 -0.004104
v 0.017278 0.008827 -0.004105
v 0.017230 0.008830 -0.004103
v 0.017279 0.008829 -0.004104
v 0.017278 0.008827 -0.004105
v 0.017230 0.008827 -0.004105
v 0.017230 0.008830 -0.004103
v 0.017278 0.008827 -0.004105
v 0.017276 0.008826 -0.004106
v 0.017230 0.008827 -0.004105
v 0.017230 0.008827 -0.004105
v 0.017276 0.008826 -0.004106
v 0.017275 0.008825 -0.004106
v 0.017273 0.008824 -0.004107
v 0.017230 0.008827 -0.004105
v 0.017275 0.008825 -0.004106
v 0.017273 0.008824 -0.004107
v 0.017230 0.008824 -0.004107
v 0.017230 0.008827 -0.004105
v 0.017272 0.008822 -0.004108
v 0.017271 0.008821 -0.004109
v 0.017230 0.008824 -0.004107
v 0.017271 0.008821 -0.004109
v 0.017270 0.008819 -0.004110
v 0.017230 0.008821 -0.004109
v 0.017269 0.008817 -0.004110
v 0.017268 0.008815 -0.004111
v 0.017230 0.008817 -0.004110
v 0.017268 0.008815 -0.004111
v 0.017267 0.008813 -0.004112
v 0.017230 0.008814 -0.004112
v 0.017230 0.008814 -0.004112
v 0.017266 0.008811 -0.004112
v 0.017230 0.008810 -0.004112
v 0.017230 0.008810 -0.004112
v 0.017266 0.008811 -0.004112
v 0.017266 0.008809 -0.004112
v 0.017230 0.008807 -0.004113
v 0.017230 0.008810 -0.004112
v 0.017265 0.008807 -0.004113
v 0.017230 0.008803 -0.004113
v 0.017230 0.008807 -0.004113
v 0.017265 0.008805 -0.004113
v 0.017265 0.008801 -0.004113
v 0.017230 0.008803 -0.004113
v 0.017265 0.008803 -0.004113
v 0.017267 0.008793 -0.004112
v 0.017268 0.008791 -0.004111
v 0.017230 0.008792 -0.004112
v 0.017281 0.008776 -0.004103
v 0.017230 0.008776 -0.004103
v 0.017279 0.008777 -0.004104
v 0.017279 0.008777 -0.004104
v 0.017230 0.008776 -0.004103
v 0.017278 0.008778 -0.004105
v 0.017278 0.008778 -0.004105
v 0.017230 0.008776 -0.004103
v 0.017230 0.008779 -0.004105
v 0.017276 0.008780 -0.004106
v 0.017278 0.008778 -0.004105
v 0.017230 0.008779 -0.004105
v 0.017275 0.008781 -0.004106
v 0.017276 0.008780 -0.004106
v 0.017230 0.008779 -0.004105
v 0.017273 0.008782 -0.004107
v 0.017275 0.008781 -0.004106
v 0.017230 0.008779 -0.004105
v 0.017230 0.008782 -0.004107
v 0.017273 0.008782 -0.004107
v 0.017230 0.008779 -0.004105
v 0.017230 0.008782 -0.004107
v 0.017272 0.008784 -0.004108
v 0.017273 0.008782 -0.004107
v 0.017230 0.008782 -0.004107
v 0.017271 0.008785 -0.004109
v 0.017272 0.008784 -0.004108
v 0.017230 0.008782 -0.004107
v 0.017230 0.008785 -0.004109
v 0.017271 0.008785 -0.004109
v 0.017271 0.008785 -0.004109
v 0.017230 0.008785 -0.004109
v 0.017270 0.008787 -0.004110
v 0.017230 0.008789 -0.004110
v 0.017268 0.008791 -0.004111
v 0.017269 0.008789 -0.004110
v 0.017270 0.008787 -0.004110
v 0.017230 0.008789 -0.004110
v 0.017269 0.008789 -0.004110
v 0.017230 0.008789 -0.004110
v 0.017230 0.008792 -0.004112
v 0.017268 0.008791 -0.004111
v 0.017266 0.008795 -0.004112
v 0.017267 0.008793 -0.004112
v 0.017230 0.008792 -0.004112
v 0.017230 0.008796 -0.004112
v 0.017266 0.008795 -0.004112
v 0.017230 0.008792 -0.004112
v 0.017265 0.008799 -0.004113
v 0.017230 0.008796 -0.004112
v 0.017230 0.008799 -0.004113
v 0.017265 0.008799 -0.004113
v 0.017266 0.008797 -0.004112
v 0.017230 0.008796 -0.004112
v 0.017265 0.008801 -0.004113
v 0.017265 0.008799 -0.004113
v 0.017230 0.008799 -0.004113
v 0.017230 0.008803 -0.004113
v 0.017265 0.008801 -0.004113
v 0.017230 0.008799 -0.004113
v 0.017265 0.008805 -0.004113
v 0.017265 0.008803 -0.004113
v 0.017230 0.008803 -0.004113
v 0.017265 0.008807 -0.004113
v 0.017265 0.008805 -0.004113
v 0.017230 0.008807 -0.004113
v 0.017266 0.008809 -0.004112
v 0.017265 0.008807 -0.004113
v 0.017230 0.008810 -0.004112
v 0.017266 0.008811 -0.004112
v 0.017230 0.008814 -0.004112
v 0.017267 0.008813 -0.004112
v 0.017230 0.008814 -0.004112
v 0.017230 0.008817 -0.004110
v 0.017268 0.008815 -0.004111
v 0.017230 0.008817 -0.004110
v 0.017270 0.008819 -0.004110
v 0.017269 0.008817 -0.004110
v 0.017230 0.008817 -0.004110
v 0.017230 0.008821 -0.004109
v 0.017270 0.008819 -0.004110
v 0.017230 0.008821 -0.004109
v 0.017230 0.008824 -0.004107
v 0.017271 0.008821 -0.004109
v 0.017230 0.008824 -0.004107
v 0.017273 0.008824 -0.004107
v 0.017272 0.008822 -0.004108
v 0.017230 0.008796 -0.004112
v 0.017266 0.008797 -0.004112
v 0.017266 0.008795 -0.004112
v 0.017230 0.008789 -0.004110
v 0.017270 0.008787 -0.004110
v 0.017230 0.008785 -0.004109
v 0.017353 0.008816 -0.004111
v 0.017351 0.008818 -0.004110
v 0.017372 0.008817 -0.004111
v 0.017341 0.008815 -0.004111
v 0.017428 0.008817 -0.004110
v 0.017428 0.008820 -0.004109
v 0.017445 0.008818 -0.004110
v 0.017422 0.008816 -0.004111
v 0.017417 0.008819 -0.004110
v 0.017414 0.008814 -0.004111
v 0.017409 0.008816 -0.004111
v 0.017402 0.008819 -0.004110
v 0.017395 0.008816 -0.004111
v 0.017410 0.008822 -0.004108
v 0.017439 0.008808 -0.004113
v 0.017435 0.008805 -0.004113
v 0.017429 0.008809 -0.004113
v 0.017453 0.008810 -0.004112
v 0.017460 0.008807 -0.004113
v 0.017425 0.008791 -0.004111
v 0.017429 0.008788 -0.004110
v 0.017407 0.008790 -0.004111
v 0.017432 0.008792 -0.004111
v 0.017398 0.008785 -0.004109
v 0.017393 0.008782 -0.004107
v 0.017380 0.008784 -0.004108
v 0.017410 0.008786 -0.004109
v 0.017412 0.008783 -0.004108
v 0.017386 0.008780 -0.004106
v 0.017414 0.008780 -0.004106
v 0.017343 0.008791 -0.004111
v 0.017343 0.008794 -0.004112
v 0.017350 0.008792 -0.004112
v 0.017336 0.008787 -0.004110
v 0.017322 0.008791 -0.004111
v 0.017334 0.008785 -0.004109
v 0.017320 0.008787 -0.004110
v 0.017352 0.008789 -0.004110
v 0.017355 0.008785 -0.004109
v 0.017329 0.008813 -0.004112
v 0.017324 0.008811 -0.004112
v 0.017323 0.008813 -0.004112
v 0.017348 0.008812 -0.004112
v 0.017442 0.008815 -0.004111
v 0.017438 0.008812 -0.004112
v 0.017434 0.008816 -0.004111
v 0.017455 0.008816 -0.004111
v 0.017460 0.008814 -0.004112
v 0.017460 0.008810 -0.004112
v 0.017460 0.008807 -0.004113
v 0.017460 0.008814 -0.004112
v 0.017426 0.008813 -0.004112
v 0.017460 0.008814 -0.004112
v 0.017460 0.008810 -0.004112
v 0.017460 0.008817 -0.004110
v 0.017460 0.008814 -0.004112
v 0.017460 0.008817 -0.004110
v 0.017432 0.008780 -0.004106
v 0.017433 0.008782 -0.004107
v 0.017441 0.008782 -0.004107
v 0.017419 0.008778 -0.004104
v 0.017384 0.008776 -0.004103
v 0.017385 0.008778 -0.004104
v 0.017378 0.008778 -0.004104
v 0.017342 0.008779 -0.004105
v 0.017364 0.008781 -0.004106
v 0.017373 0.008785 -0.004109
v 0.017374 0.008788 -0.004110
v 0.017390 0.008788 -0.004110
v 0.017365 0.008784 -0.004108
v 0.017449 0.008787 -0.004109
v 0.017444 0.008784 -0.004108
v 0.017460 0.008785 -0.004109
v 0.017443 0.008790 -0.004111
v 0.017439 0.008793 -0.004112
v 0.017460 0.008792 -0.004112
v 0.017407 0.008798 -0.004113
v 0.017408 0.008801 -0.004113
v 0.017429 0.008798 -0.004113
v 0.017400 0.008796 -0.004112
v 0.017392 0.008798 -0.004113
v 0.017398 0.008793 -0.004112
v 0.017387 0.008796 -0.004112
v 0.017412 0.008796 -0.004112
v 0.017414 0.008793 -0.004112
v 0.017375 0.008791 -0.004111
v 0.017381 0.008793 -0.004112
v 0.017388 0.008789 -0.004111
v 0.017368 0.008793 -0.004112
v 0.017371 0.008796 -0.004112
v 0.017377 0.008799 -0.004113
v 0.017433 0.008822 -0.004108
v 0.017432 0.008825 -0.004107
v 0.017440 0.008822 -0.004108
v 0.017416 0.008822 -0.004108
v 0.017444 0.008780 -0.004105
v 0.017460 0.008782 -0.004107
v 0.017336 0.008797 -0.004113
v 0.017341 0.008800 -0.004113
v 0.017354 0.008798 -0.004113
v 0.017324 0.008797 -0.004112
v 0.017325 0.008799 -0.004113
v 0.017344 0.008803 -0.004113
v 0.017360 0.008802 -0.004113
v 0.017325 0.008799 -0.004113
v 0.017325 0.008801 -0.004113
v 0.017338 0.008809 -0.004113
v 0.017341 0.008806 -0.004113
v 0.017325 0.008807 -0.004113
v 0.017354 0.008808 -0.004113
v 0.017325 0.008803 -0.004113
v 0.017356 0.008805 -0.004113
v 0.017383 0.008803 -0.004113
v 0.017389 0.008806 -0.004113
v 0.017399 0.008803 -0.004113
v 0.017369 0.008803 -0.004113
v 0.017377 0.008807 -0.004113
v 0.017389 0.008800 -0.004113
v 0.017391 0.008809 -0.004113
v 0.017412 0.008807 -0.004113
v 0.017444 0.008797 -0.004113
v 0.017441 0.008801 -0.004113
v 0.017460 0.008799 -0.004113
v 0.017432 0.008795 -0.004112
v 0.017427 0.008795 -0.004112
v 0.017347 0.008783 -0.004107
v 0.017330 0.008781 -0.004106
v 0.017309 0.008776 -0.004103
v 0.017311 0.008777 -0.004104
v 0.017425 0.008785 -0.004108
v 0.017355 0.008795 -0.004112
v 0.017460 0.008821 -0.004109
v 0.017460 0.008824 -0.004107
v 0.017437 0.008828 -0.004105
v 0.017419 0.008828 -0.004104
v 0.017460 0.008830 -0.004103
v 0.017460 0.008827 -0.004105
v 0.017460 0.008830 -0.004103
v 0.017411 0.008825 -0.004106
v 0.017387 0.008826 -0.004105
v 0.017460 0.008827 -0.004105
v 0.017353 0.008822 -0.004108
v 0.017319 0.008821 -0.004109
v 0.017364 0.008824 -0.004107
v 0.017368 0.008821 -0.004109
v 0.017345 0.008825 -0.004107
v 0.017353 0.008827 -0.004105
v 0.017318 0.008822 -0.004108
v 0.017317 0.008824 -0.004107
v 0.017371 0.008810 -0.004112
v 0.017368 0.008814 -0.004112
v 0.017383 0.008814 -0.004111
v 0.017414 0.008803 -0.004113
v 0.017390 0.008813 -0.004112
v 0.017389 0.008819 -0.004110
v 0.017395 0.008823 -0.004108
v 0.017380 0.008816 -0.004111
v 0.017417 0.008811 -0.004112
v 0.017460 0.008803 -0.004113
v 0.017318 0.008784 -0.004108
v 0.017314 0.008780 -0.004106
v 0.017315 0.008781 -0.004106
v 0.017312 0.008779 -0.004105
v 0.017314 0.008780 -0.004106
v 0.017460 0.008785 -0.004109
v 0.017460 0.008782 -0.004107
v 0.017460 0.008779 -0.004105
v 0.017460 0.008776 -0.004103
v 0.017325 0.008803 -0.004113
v 0.017325 0.008805 -0.004113
v 0.017324 0.008811 -0.004112
v 0.017324 0.008809 -0.004112
v 0.017325 0.008807 -0.004113
v 0.017325 0.008805 -0.004113
v 0.017460 0.008796 -0.004112
v 0.017460 0.008799 -0.004113
v 0.017460 0.008814 -0.004112
v 0.017460 0.008807 -0.004113
v 0.017320 0.008819 -0.004110
v 0.017321 0.008817 -0.004110
v 0.017322 0.008815 -0.004111
v 0.017460 0.008821 -0.004109
v 0.017460 0.008824 -0.004107
v 0.017315 0.008825 -0.004106
v 0.017317 0.008824 -0.004107
v 0.017460 0.008779 -0.004105
v 0.017460 0.008782 -0.004107
v 0.017312 0.008779 -0.004105
v 0.017311 0.008777 -0.004104
v 0.017460 0.008789 -0.004110
v 0.017460 0.008785 -0.004109
v 0.017320 0.008787 -0.004110
v 0.017321 0.008789 -0.004110
v 0.017324 0.008795 -0.004112
v 0.017325 0.008807 -0.004113
v 0.017324 0.008809 -0.004112
v 0.017460 0.008830 -0.004103
v 0.017321 0.008817 -0.004110
v 0.017320 0.008819 -0.004110
v 0.017311 0.008829 -0.004104
v 0.017309 0.008830 -0.004103
v 0.017309 0.008830 -0.004103
v 0.017312 0.008828 -0.004105
v 0.017311 0.008829 -0.004104
v 0.017314 0.008826 -0.004106
v 0.017312 0.008828 -0.004105
v 0.017314 0.008826 -0.004106
v 0.017315 0.008825 -0.004106
v 0.017314 0.008826 -0.004106
v 0.017319 0.008821 -0.004109
v 0.017319 0.008821 -0.004109
v 0.017318 0.008822 -0.004108
v 0.017320 0.008819 -0.004110
v 0.017319 0.008821 -0.004109
v 0.017460 0.008807 -0.004113
v 0.017460 0.008803 -0.004113
v 0.017322 0.008815 -0.004111
v 0.017323 0.008813 -0.004112
v 0.017322 0.008815 -0.004111
v 0.017460 0.008799 -0.004113
v 0.017460 0.008803 -0.004113
v 0.017324 0.008811 -0.004112
v 0.017460 0.008792 -0.004112
v 0.017460 0.008796 -0.004112
v 0.017460 0.008796 -0.004112
v 0.017460 0.008789 -0.004110
v 0.017460 0.008792 -0.004112
v 0.017325 0.008803 -0.004113
v 0.017460 0.008782 -0.004107
v 0.017325 0.008799 -0.004113
v 0.017460 0.008789 -0.004110
v 0.017324 0.008797 -0.004112
v 0.017324 0.008795 -0.004112
v 0.017323 0.008793 -0.004112
v 0.017322 0.008791 -0.004111
v 0.017460 0.008776 -0.004103
v 0.017309 0.008776 -0.004103
v 0.017321 0.008789 -0.004110
v 0.017322 0.008791 -0.004111
v 0.017312 0.008779 -0.004105
v 0.017315 0.008781 -0.004106
v 0.017317 0.008782 -0.004107
v 0.017317 0.008782 -0.004107
v 0.017318 0.008784 -0.004108
v 0.017319 0.008785 -0.004109
v 0.017318 0.008784 -0.004108
v 0.017319 0.008785 -0.004109
v 0.017320 0.008787 -0.004110
v 0.017460 0.008776 -0.004103
v 0.017323 0.008793 -0.004112
v 0.017323 0.008793 -0.004112
v 0.017324 0.008795 -0.004112
v 0.017325 0.008801 -0.004113
v 0.017325 0.008803 -0.004113
v 0.017460 0.008827 -0.004105
v 0.017460 0.008824 -0.004107
v 0.017460 0.008821 -0.004109
v 0.017460 0.008817 -0.004110
v 0.017414 0.008757 -0.004083
v 0.017411 0.008761 -0.004087
v 0.017460 0.008760 -0.004086
v 0.017404 0.008756 -0.004082
v 0.017344 0.008774 -0.004101
v 0.017339 0.008770 -0.004097
v 0.017306 0.008775 -0.004102
v 0.017381 0.008770 -0.004097
v 0.017297 0.008738 -0.004052
v 0.017293 0.008740 -0.004057
v 0.017308 0.008739 -0.004053
v 0.017289 0.008736 -0.004047
v 0.017230 0.008738 -0.004051
v 0.017382 0.008757 -0.004083
v 0.017376 0.008754 -0.004079
v 0.017358 0.008757 -0.004082
v 0.017387 0.008747 -0.004069
v 0.017381 0.008744 -0.004063
v 0.017358 0.008746 -0.004066
v 0.017406 0.008749 -0.004071
v 0.017416 0.008746 -0.004066
v 0.017398 0.008742 -0.004059
v 0.017395 0.008739 -0.004054
v 0.017383 0.008741 -0.004058
v 0.017460 0.008742 -0.004059
v 0.017460 0.008749 -0.004071
v 0.017264 0.008743 -0.004061
v 0.017271 0.008746 -0.004066
v 0.017304 0.008744 -0.004063
v 0.017230 0.008742 -0.004059
v 0.017230 0.008744 -0.004063
v 0.017278 0.008749 -0.004071
v 0.017230 0.008744 -0.004063
v 0.017230 0.008747 -0.004067
v 0.017385 0.008751 -0.004074
v 0.017412 0.008753 -0.004077
v 0.017373 0.008749 -0.004071
v 0.017355 0.008753 -0.004076
v 0.017340 0.008749 -0.004071
v 0.017355 0.008744 -0.004063
v 0.017317 0.008748 -0.004070
v 0.017306 0.008751 -0.004074
v 0.017300 0.008754 -0.004079
v 0.017338 0.008753 -0.004077
v 0.017282 0.008753 -0.004077
v 0.017348 0.008754 -0.004079
v 0.017326 0.008756 -0.004081
v 0.017329 0.008760 -0.004086
v 0.017294 0.008759 -0.004085
v 0.017373 0.008741 -0.004057
v 0.017319 0.008741 -0.004057
v 0.017343 0.008740 -0.004055
v 0.017365 0.008761 -0.004087
v 0.017348 0.008761 -0.004088
v 0.017390 0.008765 -0.004092
v 0.017398 0.008768 -0.004095
v 0.017423 0.008765 -0.004092
v 0.017362 0.008766 -0.004093
v 0.017460 0.008766 -0.004093
v 0.017460 0.008763 -0.004090
v 0.017426 0.008755 -0.004079
v 0.017460 0.008752 -0.004075
v 0.017354 0.008739 -0.004053
v 0.017344 0.008736 -0.004047
v 0.017283 0.008771 -0.004098
v 0.017288 0.008774 -0.004101
v 0.017289 0.008774 -0.004100
v 0.017272 0.008765 -0.004092
v 0.017230 0.008770 -0.004097
v 0.017279 0.008761 -0.004087
v 0.017230 0.008763 -0.004090
v 0.017307 0.008769 -0.004095
v 0.017305 0.008763 -0.004090
v 0.017230 0.008752 -0.004075
v 0.017269 0.008757 -0.004082
v 0.017230 0.008754 -0.004079
v 0.017230 0.008757 -0.004083
v 0.017388 0.008771 -0.004098
v 0.017460 0.008776 -0.004103
v 0.017331 0.008765 -0.004091
v 0.017230 0.008736 -0.004047
v 0.017230 0.008738 -0.004051
v 0.017230 0.008740 -0.004055
v 0.017400 0.008736 -0.004046
v 0.017460 0.008736 -0.004047
v 0.017460 0.008738 -0.004051
v 0.017230 0.008736 -0.004047
v 0.017230 0.008734 -0.004042
v 0.017230 0.008738 -0.004051
v 0.017230 0.008736 -0.004047
v 0.017230 0.008749 -0.004071
v 0.017230 0.008752 -0.004075
v 0.017230 0.008749 -0.004071
v 0.017230 0.008747 -0.004067
v 0.017460 0.008757 -0.004083
v 0.017460 0.008749 -0.004071
v 0.017460 0.008747 -0.004067
v 0.017460 0.008740 -0.004055
v 0.017460 0.008742 -0.004059
v 0.017230 0.008760 -0.004086
v 0.017230 0.008757 -0.004083
v 0.017460 0.008770 -0.004097
v 0.017460 0.008773 -0.004100
v 0.017460 0.008752 -0.004075
v 0.017297 0.008773 -0.004100
v 0.017299 0.008773 -0.004100
v 0.017295 0.008773 -0.004100
v 0.017297 0.008773 -0.004100
v 0.017460 0.008763 -0.004090
v 0.017460 0.008760 -0.004086
v 0.017230 0.008749 -0.004071
v 0.017300 0.008774 -0.004100
v 0.017299 0.008773 -0.004100
v 0.017230 0.008760 -0.004086
v 0.017230 0.008776 -0.004103
v 0.017281 0.008776 -0.004103
v 0.017230 0.008773 -0.004100
v 0.017230 0.008773 -0.004100
v 0.017281 0.008776 -0.004103
v 0.017283 0.008776 -0.004102
v 0.017284 0.008775 -0.004102
v 0.017230 0.008773 -0.004100
v 0.017283 0.008776 -0.004102
v 0.017284 0.008775 -0.004102
v 0.017286 0.008774 -0.004101
v 0.017286 0.008774 -0.004101
v 0.017288 0.008774 -0.004101
v 0.017293 0.008773 -0.004100
v 0.017291 0.008773 -0.004100
v 0.017293 0.008773 -0.004100
v 0.017295 0.008773 -0.004100
v 0.017230 0.008770 -0.004097
v 0.017230 0.008766 -0.004093
v 0.017230 0.008763 -0.004090
v 0.017230 0.008766 -0.004093
v 0.017460 0.008752 -0.004075
v 0.017460 0.008749 -0.004071
v 0.017460 0.008747 -0.004067
v 0.017460 0.008744 -0.004063
v 0.017230 0.008752 -0.004075
v 0.017230 0.008754 -0.004079
v 0.017230 0.008740 -0.004055
v 0.017230 0.008738 -0.004051
v 0.017230 0.008742 -0.004059
v 0.017230 0.008740 -0.004055
v 0.017460 0.008736 -0.004047
v 0.017460 0.008734 -0.004042
v 0.017230 0.008744 -0.004063
v 0.017460 0.008736 -0.004047
v 0.017460 0.008738 -0.004051
v 0.017460 0.008740 -0.004055
v 0.017230 0.008754 -0.004079
v 0.017460 0.008752 -0.004075
v 0.017460 0.008754 -0.004079
v 0.017302 0.008774 -0.004101
v 0.017300 0.008774 -0.004100
v 0.017460 0.008757 -0.004083
v 0.017460 0.008760 -0.004086
v 0.017460 0.008770 -0.004097
v 0.017460 0.008773 -0.004100
v 0.017460 0.008773 -0.004100
v 0.017460 0.008776 -0.004103
v 0.017460 0.008760 -0.004086
v 0.017309 0.008776 -0.004103
v 0.017309 0.008776 -0.004103
v 0.017307 0.008776 -0.004102
v 0.017307 0.008776 -0.004102
v 0.017306 0.008775 -0.004102
v 0.017306 0.008775 -0.004102
v 0.017304 0.008774 -0.004101
v 0.017304 0.008774 -0.004101
v 0.017302 0.008774 -0.004101
v 0.017460 0.008770 -0.004097
v 0.017460 0.008766 -0.004093
v 0.017460 0.008757 -0.004083
v 0.017460 0.008754 -0.004079
v 0.017460 0.008740 -0.004055
v 0.017460 0.008738 -0.004051
v 0.017460 0.008744 -0.004063
v 0.017460 0.008742 -0.004059
v 0.017295 0.008773 -0.004100
v 0.017230 0.008760 -0.004086
v 0.017230 0.008763 -0.004090
v 0.017230 0.008770 -0.004097
v 0.017230 0.008773 -0.004100
v 0.017289 0.008774 -0.004100
v 0.017291 0.008773 -0.004100
v 0.017302 0.008774 -0.004101
v 0.017230 0.008773 -0.004100
v 0.017284 0.008775 -0.004102
vn -1.0000 -0.0000 -0.0000
vn -1.0000 0.0001 -0.0000
vn -1.0000 -0.0001 -0.0000
vn -1.0000 0.0002 -0.0000
vn -1.0000 0.0003 -0.0000
vn -1.0000 -0.0002 -0.0000
vn 1.0000 -0.0001 -0.0000
vn 1.0000 -0.0000 -0.0000
vn 1.0000 0.0001 -0.0000
vn 1.0000 -0.0000 0.0001
vn 1.0000 -0.0002 -0.0000
vn 1.0000 0.0002 -0.0000
vn -0.0000 -1.0000 -0.0000
vn -0.0000 -1.0000 -0.0001
vn -0.9977 -0.0680 0.0002
vn -1.0000 -0.0020 -0.0000
vn -0.9897 -0.1430 -0.0000
vn -0.9974 -0.0726 -0.0000
vn -0.9771 -0.2127 -0.0000
vn -0.9908 -0.1355 -0.0000
vn -0.9793 -0.2024 -0.0000
vn -0.9597 -0.2810 -0.0000
vn -0.9633 -0.2685 0.0001
vn -0.9376 -0.3477 -0.0000
vn -0.9428 -0.3333 -0.0000
vn -0.9111 -0.4121 -0.0000
vn -0.9180 -0.3965 0.0002
vn -0.8890 -0.4579 0.0001
vn -0.8806 -0.4738 -0.0000
vn -0.8464 -0.5325 -0.0000
vn -0.8559 -0.5172 0.0002
vn -0.8090 -0.5879 -0.0000
vn -0.8188 -0.5741 -0.0000
vn -0.7779 -0.6284 -0.0002
vn -0.7685 -0.6399 -0.0000
vn -0.7250 -0.6887 -0.0000
vn -0.6787 -0.7344 -0.0000
vn -0.7334 -0.6798 -0.0000
vn -0.5228 -0.8525 -0.0000
vn -0.5240 -0.8517 -0.0000
vn -0.4650 -0.8853 -0.0000
vn -0.5806 -0.8142 -0.0001
vn -0.5775 -0.8164 -0.0000
vn -0.6345 -0.7730 -0.0002
vn -0.6295 -0.7770 -0.0000
vn -0.6856 -0.7280 -0.0003
vn -0.9976 0.0690 -0.0000
vn -0.9967 0.0811 -0.0000
vn -0.9902 0.1394 -0.0000
vn -0.9868 0.1617 -0.0000
vn -0.9779 0.2091 -0.0000
vn -0.9705 0.2412 0.0001
vn -0.9607 0.2775 -0.0000
vn -0.9389 0.3443 -0.0000
vn -0.9477 0.3191 0.0002
vn -0.9187 0.3949 0.0002
vn -0.9126 0.4089 -0.0000
vn -0.8822 0.4709 -0.0000
vn -0.8837 0.4680 0.0001
vn -0.8481 0.5299 -0.0000
vn -0.8428 0.5382 0.0001
vn -0.7964 0.6048 -0.0000
vn -0.8106 0.5856 -0.0000
vn -0.7447 0.6674 -0.0000
vn -0.6796 0.7336 -0.0000
vn -0.6882 0.7255 -0.0003
vn -0.7263 0.6874 -0.0000
vn -0.7699 0.6381 -0.0000
vn -0.6302 0.7765 -0.0000
vn -0.5779 0.8161 -0.0000
vn -0.5228 0.8524 -0.0000
vn -0.5618 0.8273 -0.0001
vn -0.6270 0.7790 -0.0001
vn -0.4650 0.8853 -0.0000
vn -0.4927 0.8702 -0.0001
vn -0.4124 0.9110 -0.0000
vn -0.4208 0.9072 0.0001
vn -0.3576 0.9339 -0.0000
vn -0.3457 0.9383 -0.0001
vn -0.3008 0.9537 -0.0000
vn -0.2684 0.9633 -0.0001
vn -0.2423 0.9702 -0.0000
vn -0.1895 0.9819 -0.0001
vn -0.1826 0.9832 -0.0000
vn -0.1220 0.9925 -0.0000
vn -0.0605 0.9982 -0.0000
vn -0.1093 0.9940 -0.0002
vn -0.0283 0.9996 -0.0003
vn 0.0008 1.0000 -0.0000
vn 0.0624 0.9981 -0.0000
vn 0.0530 0.9986 -0.0000
vn 0.1337 0.9910 0.0001
vn 0.1235 0.9923 -0.0000
vn 0.2137 0.9769 -0.0002
vn 0.1836 0.9830 -0.0000
vn 0.2922 0.9564 -0.0000
vn 0.2433 0.9700 -0.0000
vn 0.3687 0.9296 -0.0002
vn 0.3014 0.9535 -0.0000
vn 0.3579 0.9337 -0.0000
vn 0.4430 0.8965 -0.0003
vn 0.4125 0.9110 -0.0000
vn 0.4649 0.8854 -0.0000
vn 0.5142 0.8577 -0.0003
vn 0.5226 0.8526 -0.0000
vn 0.5821 0.8131 -0.0002
vn 0.5775 0.8164 -0.0000
vn 0.6295 0.7770 -0.0000
vn 0.6461 0.7633 -0.0000
vn 0.7058 0.7084 -0.0001
vn 0.6787 0.7344 -0.0000
vn 0.7250 0.6887 -0.0000
vn 0.7610 0.6488 0.0001
vn 0.7685 0.6399 -0.0000
vn 0.8090 0.5878 -0.0000
vn 0.8112 0.5848 -0.0000
vn 0.8559 0.5171 0.0001
vn 0.8949 0.4462 0.0003
vn 0.8464 0.5325 -0.0000
vn 0.8806 0.4738 -0.0000
vn 0.9282 0.3720 0.0002
vn 0.9111 0.4121 -0.0000
vn 0.9376 0.3477 -0.0000
vn 0.9553 0.2955 0.0003
vn 0.9597 0.2810 -0.0000
vn 0.9905 0.1374 0.0001
vn 0.9762 0.2171 0.0004
vn 0.9771 0.2127 -0.0000
vn 0.9897 0.1430 -0.0000
vn 0.9779 -0.2091 -0.0000
vn 0.9607 -0.2775 -0.0000
vn 0.9642 -0.2651 -0.0000
vn 0.9984 0.0565 -0.0002
vn 0.9974 0.0726 -0.0000
vn 0.8822 -0.4708 -0.0000
vn 0.8481 -0.5299 -0.0000
vn 0.8719 -0.4897 -0.0002
vn 0.7262 -0.6875 -0.0000
vn 0.7280 -0.6856 -0.0000
vn 0.7813 -0.6242 -0.0000
vn 0.5228 -0.8524 -0.0000
vn 0.6073 -0.7945 -0.0001
vn 0.5778 -0.8162 -0.0000
vn 0.4713 -0.8820 -0.0018
vn 0.4125 -0.9110 -0.0000
vn 0.3981 -0.9173 0.0002
vn 0.2433 -0.9700 -0.0000
vn 0.2447 -0.9696 -0.0000
vn 0.3226 -0.9465 -0.0000
vn 0.1235 -0.9923 -0.0000
vn 0.1652 -0.9863 -0.0002
vn 0.1839 -0.9829 -0.0000
vn 0.0624 -0.9981 -0.0000
vn 0.0035 -1.0000 -0.0003
vn 0.0846 -0.9964 -0.0003
vn 0.0010 -1.0000 -0.0000
vn -0.0606 -0.9982 -0.0000
vn -0.1218 -0.9925 -0.0000
vn -0.0776 -0.9970 -0.0000
vn -0.1826 -0.9832 -0.0000
vn -0.1582 -0.9874 -0.0002
vn -0.2424 -0.9702 -0.0000
vn -0.2378 -0.9713 0.0001
vn -0.3008 -0.9537 -0.0000
vn -0.3159 -0.9488 -0.0004
vn -0.4124 -0.9110 -0.0000
vn -0.3916 -0.9201 0.0002
vn -0.3576 -0.9339 0.0005
vn 0.3014 -0.9535 -0.0000
vn 0.3579 -0.9338 -0.0000
vn 0.4649 -0.8854 -0.0000
vn 0.5413 -0.8408 0.0003
vn 0.6301 -0.7765 -0.0000
vn 0.6699 -0.7424 0.0001
vn 0.6796 -0.7336 -0.0000
vn 0.7699 -0.6382 -0.0000
vn 0.8293 -0.5588 0.0001
vn 0.8106 -0.5856 -0.0000
vn 0.9087 -0.4174 0.0001
vn 0.9126 -0.4088 -0.0000
vn 0.9396 -0.3424 0.0001
vn 0.9389 -0.3442 -0.0000
vn 0.9825 -0.1861 -0.0000
vn 0.9902 -0.1394 -0.0000
vn 0.9944 -0.1057 -0.0002
vn 0.9976 -0.0690 -0.0000
vn 0.9997 -0.0247 -0.0000
vn 1.0000 0.0020 0.0001
vn -0.0000 1.0000 -0.0000
vn -0.0000 1.0000 -0.0001
vn 0.0001 -0.0000 1.0000
vn -0.0000 -0.0000 1.0000
vn -0.0002 -0.0000 1.0000
vn -0.0001 -0.0000 1.0000
vn 0.0002 -0.0000 1.0000
vn 0.0003 -0.0000 1.0000
vn -0.0000 0.8155 -0.5788
vn -0.0001 0.8016 -0.5979
vn -0.0000 0.8131 -0.5821
vn -0.0000 0.8087 -0.5882
vn -0.0000 0.7651 -0.6439
vn -0.0000 0.7879 -0.6158
vn -0.0000 0.7593 -0.6508
vn -0.0000 0.7473 -0.6645
vn -0.0000 0.7621 -0.6475
vn -0.0000 0.7216 -0.6923
vn -0.0000 0.6914 -0.7224
vn -0.0000 0.7248 -0.6890
vn -0.0000 0.7197 -0.6943
vn -0.0000 0.6901 -0.7237
vn -0.0000 0.7355 -0.6775
vn -0.0000 0.7912 -0.6115
vn -0.0000 0.7830 -0.6221
vn -0.0000 0.7435 -0.6688
vn -0.0000 0.7465 -0.6654
vn -0.0000 0.9023 -0.4311
vn -0.0000 0.8890 -0.4579
vn -0.0000 0.9062 -0.4229
vn -0.0000 0.9001 -0.4357
vn -0.0000 0.7884 -0.6151
vn -0.0003 0.8130 -0.5822
vn -0.0000 0.7951 -0.6065
vn -0.0000 0.7839 -0.6208
vn -0.0000 0.8017 -0.5977
vn 0.0001 0.7671 -0.6416
vn -0.0000 0.7391 -0.6736
vn -0.0004 0.7695 -0.6386
vn -0.0000 0.8016 -0.5978
vn -0.0000 0.8352 -0.5500
vn -0.0000 0.8242 -0.5662
vn -0.0000 0.8188 -0.5741
vn -0.0000 0.8457 -0.5337
vn -0.0001 0.8660 -0.5001
vn -0.0000 0.8559 -0.5172
vn -0.0000 0.8351 -0.5501
vn -0.0000 0.8558 -0.5172
vn -0.0000 0.8796 -0.4756
vn -0.0000 0.8978 -0.4405
vn -0.0000 0.8934 -0.4492
vn -0.0000 0.8835 -0.4684
vn -0.0000 0.8658 -0.5004
vn -0.0000 0.8508 -0.5255
vn -0.0000 0.8753 -0.4835
vn -0.0001 0.8560 -0.5170
vn -0.0001 0.8657 -0.5006
vn -0.0000 0.8658 -0.5005
vn -0.0000 0.8422 -0.5392
vn -0.0000 0.8094 -0.5873
vn -0.0000 0.7899 -0.6133
vn -0.0000 0.7654 -0.6435
vn -0.0000 0.8860 -0.4636
vn -0.0000 0.8800 -0.4750
vn -0.0000 0.8869 -0.4620
vn -0.0001 0.8936 -0.4489
vn -0.0000 0.9168 -0.3994
vn -0.0000 0.8997 -0.4366
vn -0.0000 0.9181 -0.3964
vn -0.0000 0.9194 -0.3934
vn -0.0000 0.7064 -0.7078
vn -0.0000 0.6640 -0.7477
vn -0.0001 0.7381 -0.6747
vn -0.0000 0.7023 -0.7119
vn -0.0000 0.7039 -0.7103
vn -0.0000 0.7022 -0.7119
vn -0.0000 0.6823 -0.7311
vn -0.0000 0.6799 -0.7333
vn -0.0000 0.7839 -0.6209
vn -0.0000 0.7884 -0.6152
vn -0.0000 0.7655 -0.6434
vn -0.0000 0.6851 -0.7284
vn -0.0000 0.7354 -0.6776
vn -0.0000 0.7268 -0.6869
vn -0.0000 0.7464 -0.6655
vn -0.0000 0.6688 -0.7434
vn -0.0000 0.6730 -0.7396
vn -0.0000 0.7065 -0.7077
vn -0.0000 0.6855 -0.7281
vn -0.0000 0.8935 -0.4491
vn -0.0000 0.8351 -0.5500
vn -0.0000 0.7592 -0.6508
vn -0.0000 0.6689 -0.7434
vn -0.0000 0.6855 -0.7280
vn -0.0000 0.6731 -0.7396
vn -0.0000 0.6687 -0.7435
vn -0.0000 0.6640 -0.7478
vn -0.0000 0.6767 -0.7362
vn -0.0000 0.6798 -0.7334
vn -0.0000 0.7267 -0.6869
vn -0.0001 0.6823 -0.7311
vn -0.0000 0.6841 -0.7294
vn -0.0000 0.7464 -0.6654
vn -0.0000 0.7671 -0.6416
vn -0.0000 0.6840 -0.7295
vn 0.0001 0.6840 -0.7295
vn -0.0000 0.6822 -0.7311
vn -0.0001 0.6688 -0.7435
vn -0.0000 0.6768 -0.7362
vn -0.0000 0.8352 -0.5499
vn -0.0000 0.9293 -0.3694
vn -0.0000 0.9061 -0.4230
vn -0.0000 0.8797 -0.4756
vn -0.0000 0.8890 -0.4578
vn -0.0000 0.6840 -0.7294
vn -0.0000 0.6395 -0.7688
vn -0.0000 0.6123 -0.7906
vn -0.0000 0.6639 -0.7478
vn -0.0000 0.6393 -0.7689
vn -0.0000 0.5935 -0.8048
vn -0.0000 0.5827 -0.8127
vn -0.0000 0.5936 -0.8048
vn -0.0001 0.5827 -0.8127
vn -0.0000 0.5506 -0.8348
vn -0.0000 0.5160 -0.8566
vn -0.0000 0.5181 -0.8553
vn -0.0000 0.5934 -0.8049
vn -0.0000 0.4789 -0.8778
vn -0.0000 0.4394 -0.8983
vn -0.0000 0.5182 -0.8553
vn -0.0000 0.3974 -0.9176
vn -0.0000 0.4384 -0.8988
vn -0.0000 0.3530 -0.9356
vn -0.0000 0.3065 -0.9519
vn -0.0000 0.3551 -0.9348
vn -0.0000 0.2581 -0.9661
vn -0.0000 0.2690 -0.9631
vn -0.0000 0.2688 -0.9632
vn -0.0000 0.2080 -0.9781
vn -0.0000 0.1805 -0.9836
vn -0.0000 0.1568 -0.9876
vn -0.0000 0.0906 -0.9959
vn -0.0000 0.1045 -0.9945
vn -0.0000 -0.0000 -1.0000
vn -0.0000 0.0517 -0.9987
vn -0.0000 -0.0544 -0.9985
vn -0.0000 -0.0014 -1.0000
vn -0.0000 -0.2606 -0.9654
vn -0.0000 -0.3089 -0.9511
vn -0.0000 -0.2691 -0.9631
vn -0.0000 -0.6640 -0.7477
vn -0.0000 -0.6395 -0.7688
vn -0.0000 -0.6126 -0.7904
vn -0.0000 -0.6640 -0.7478
vn -0.0000 -0.5935 -0.8048
vn -0.0000 -0.5831 -0.8124
vn -0.0000 -0.5513 -0.8343
vn -0.0000 -0.5832 -0.8124
vn -0.0000 -0.5170 -0.8560
vn -0.0000 -0.5514 -0.8343
vn -0.0000 -0.5181 -0.8553
vn -0.0000 -0.5935 -0.8049
vn -0.0000 -0.4803 -0.8771
vn -0.0000 -0.4411 -0.8974
vn -0.0000 -0.4385 -0.8987
vn -0.0000 -0.4411 -0.8975
vn -0.0000 -0.4384 -0.8988
vn -0.0000 -0.3994 -0.9168
vn -0.0000 -0.3551 -0.9348
vn -0.0000 -0.3553 -0.9347
vn -0.0000 -0.3552 -0.9348
vn -0.0000 -0.2106 -0.9776
vn -0.0000 -0.2606 -0.9655
vn -0.0000 -0.2689 -0.9632
vn -0.0000 -0.1805 -0.9836
vn -0.0000 -0.2688 -0.9632
vn -0.0000 -0.1072 -0.9942
vn -0.0000 -0.0906 -0.9959
vn -0.0000 -0.1073 -0.9942
vn -0.0000 -0.1595 -0.9872
vn -0.0000 -0.1806 -0.9836
vn -0.0000 -0.0545 -0.9985
vn -0.0000 -0.0907 -0.9959
vn -0.0000 0.0907 -0.9959
vn -0.0000 0.1567 -0.9876
vn -0.0000 0.1806 -0.9836
vn -0.0000 0.2081 -0.9781
vn -0.0000 0.3552 -0.9348
vn -0.0000 0.3531 -0.9356
vn -0.0000 0.3974 -0.9177
vn -0.0000 0.4789 -0.8779
vn -0.0000 -0.1594 -0.9872
vn -0.0000 0.3214 -0.9469
vn -0.0000 0.3856 -0.9227
vn -0.0000 0.3445 -0.9388
vn -0.0000 0.3058 -0.9521
vn -0.0000 0.3615 -0.9324
vn -0.0000 0.4277 -0.9039
vn -0.0001 0.3848 -0.9230
vn -0.0000 0.3305 -0.9438
vn -0.0000 0.3911 -0.9203
vn -0.0000 0.2743 -0.9616
vn -0.0000 0.3289 -0.9444
vn -0.0001 0.4021 -0.9156
vn -0.0000 0.3201 -0.9474
vn -0.0000 0.4667 -0.8844
vn -0.0000 0.1241 -0.9923
vn -0.0000 0.0524 -0.9986
vn -0.0000 0.1532 -0.9882
vn -0.0000 0.1656 -0.9862
vn -0.0000 -0.3053 -0.9523
vn -0.0000 -0.3725 -0.9280
vn -0.0000 -0.3138 -0.9495
vn -0.0000 -0.2802 -0.9599
vn -0.0000 -0.4394 -0.8983
vn -0.0000 -0.5169 -0.8561
vn -0.0000 -0.4775 -0.8786
vn -0.0000 -0.4170 -0.9089
vn -0.0000 -0.4943 -0.8693
vn -0.0000 -0.5766 -0.8170
vn -0.0000 -0.5735 -0.8192
vn -0.0000 -0.2966 -0.9550
vn -0.0000 -0.2312 -0.9729
vn -0.0000 -0.2661 -0.9639
vn -0.0000 -0.3900 -0.9208
vn -0.0000 -0.3065 -0.9519
vn -0.0000 -0.4541 -0.8910
vn -0.0000 -0.3974 -0.9176
vn -0.0000 -0.3613 -0.9324
vn -0.0000 -0.4471 -0.8945
vn -0.0000 0.2592 -0.9658
vn -0.0000 0.2106 -0.9776
vn -0.0000 0.2606 -0.9655
vn -0.0000 0.2207 -0.9753
vn -0.0000 0.2958 -0.9552
vn -0.0000 0.2250 -0.9744
vn -0.0000 0.3247 -0.9458
vn -0.0000 0.3367 -0.9416
vn -0.0000 0.2689 -0.9632
vn -0.0000 0.1657 -0.9862
vn -0.0000 0.2515 -0.9679
vn -0.0000 0.2691 -0.9631
vn -0.0000 -0.5803 -0.8144
vn -0.0000 -0.5171 -0.8559
vn -0.0000 -0.5247 -0.8513
vn -0.0000 -0.6347 -0.7728
vn -0.0000 -0.6357 -0.7719
vn -0.0000 -0.6175 -0.7866
vn -0.0000 -0.5999 -0.8001
vn -0.0000 -0.5495 -0.8355
vn -0.0000 -0.3709 -0.9287
vn -0.0000 -0.3817 -0.9243
vn -0.0000 -0.4681 -0.8837
vn -0.0000 -0.4123 -0.9110
vn -0.0000 -0.4682 -0.8836
vn -0.0000 -0.4383 -0.8988
vn -0.0000 -0.3278 -0.9447
vn -0.0000 -0.2543 -0.9671
vn -0.0000 -0.2690 -0.9631
vn -0.0000 -0.1375 -0.9905
vn -0.0000 -0.1172 -0.9931
vn -0.0000 -0.1871 -0.9823
vn 0.0001 -0.1304 -0.9915
vn -0.0000 -0.2595 -0.9657
vn -0.0000 -0.1870 -0.9824
vn -0.0000 -0.1703 -0.9854
vn -0.0000 -0.2618 -0.9651
vn -0.0000 -0.2974 -0.9547
vn -0.0000 -0.2616 -0.9652
vn -0.0000 -0.3379 -0.9412
vn -0.0000 -0.2582 -0.9661
vn -0.0000 -0.1701 -0.9854
vn -0.0000 -0.0992 -0.9951
vn -0.0000 0.4827 -0.8758
vn -0.0000 0.5463 -0.8376
vn -0.0000 0.4717 -0.8818
vn -0.0000 0.4857 -0.8741
vn -0.0000 -0.5860 -0.8103
vn 0.0002 -0.1546 -0.9880
vn -0.0001 -0.0741 -0.9973
vn -0.0000 -0.1204 -0.9927
vn -0.0000 -0.1543 -0.9880
vn -0.0000 -0.1567 -0.9876
vn -0.0000 -0.1045 -0.9945
vn -0.0000 0.0031 -1.0000
vn -0.0000 -0.0239 -0.9997
vn -0.0000 -0.0740 -0.9973
vn -0.0000 -0.0517 -0.9987
vn -0.0000 0.1535 -0.9881
vn -0.0000 0.0797 -0.9968
vn -0.0000 0.1072 -0.9942
vn -0.0000 0.1284 -0.9917
vn -0.0000 0.0014 -1.0000
vn -0.0000 0.0451 -0.9990
vn -0.0000 0.0043 -1.0000
vn -0.0000 0.0845 -0.9964
vn -0.0000 0.0044 -1.0000
vn 0.0001 0.0037 -1.0000
vn -0.0000 0.1084 -0.9941
vn -0.0000 -0.0752 -0.9972
vn -0.0000 0.1403 -0.9901
vn -0.0000 0.0992 -0.9951
vn -0.0000 -0.1427 -0.9898
vn -0.0000 -0.0519 -0.9987
vn -0.0000 -0.1947 -0.9809
vn -0.0001 -0.2115 -0.9774
vn -0.0000 -0.5089 -0.8608
vn -0.0000 -0.5559 -0.8313
vn -0.0000 -0.5999 -0.8000
vn -0.0000 -0.6641 -0.7477
vn -0.0000 -0.4624 -0.8867
vn -0.0000 -0.2036 -0.9791
vn -0.0000 0.6147 -0.7887
vn -0.0000 0.6304 -0.7763
vn -0.0000 0.6148 -0.7887
vn -0.0000 0.6641 -0.7477
vn -0.0000 0.5597 -0.8287
vn -0.0000 0.5836 -0.8121
vn -0.0000 0.5935 -0.8049
vn -0.0000 0.4835 -0.8753
vn -0.0000 0.4411 -0.8975
vn -0.0000 0.5221 -0.8529
vn -0.0000 0.4397 -0.8981
vn -0.0000 0.5387 -0.8425
vn -0.0000 0.6103 -0.7922
vn -0.0000 0.4803 -0.8771
vn -0.0000 0.5170 -0.8560
vn -0.0000 0.2715 -0.9624
vn -0.0000 0.2752 -0.9614
vn -0.0000 0.0033 -1.0000
vn -0.0000 0.2459 -0.9693
vn -0.0000 0.4084 -0.9128
vn -0.0000 0.4880 -0.8728
vn -0.0000 0.3192 -0.9477
vn -0.0000 0.2090 -0.9779
vn -0.0000 -0.4789 -0.8779
vn -0.0000 -0.5559 -0.8312
vn 0.0001 -0.5827 -0.8127
vn -0.0000 -0.5506 -0.8348
vn -0.0000 -0.5558 -0.8313
vn -0.0000 -0.6123 -0.7906
vn -0.0000 -0.5827 -0.8127
vn -0.0000 -0.4683 -0.8836
vn -0.0000 -0.5861 -0.8103
vn -0.0000 0.0544 -0.9985
vn -0.0000 0.1535 -0.9882
vn -0.0000 0.1594 -0.9872
vn -0.0000 0.1073 -0.9942
vn -0.0000 0.0545 -0.9985
vn -0.0000 -0.1426 -0.9898
vn -0.0000 0.3994 -0.9168
vn -0.0000 0.3553 -0.9348
vn -0.0000 0.3089 -0.9511
vn -0.0000 0.4718 -0.8817
vn -0.0000 0.5513 -0.8343
vn -0.0000 -0.6124 -0.7906
vn -0.0000 -0.6394 -0.7689
vn -0.0000 -0.3531 -0.9356
vn -0.0000 -0.2081 -0.9781
vn -0.0000 0.1595 -0.9872
vn -0.0000 0.6126 -0.7904
vn -0.0000 0.5832 -0.8123
vn -0.0000 0.6125 -0.7905
vn -0.0000 0.5831 -0.8124
vn -0.0000 0.5833 -0.8123
vn -0.0000 0.4411 -0.8974
vn -0.0000 0.0525 -0.9986
vn -0.0000 0.2593 -0.9658
vn -0.0000 0.2606 -0.9654
vn -0.0000 0.2107 -0.9776
vn -0.0000 -0.5182 -0.8553
vn -0.0000 -0.3553 -0.9348
vn -0.0000 -0.1567 -0.9877
vn -0.0000 -0.2080 -0.9781
vn -0.0000 -0.2581 -0.9661
vn -0.0000 -0.3530 -0.9356
vn -0.0000 -0.5160 -0.8566
vn -0.0000 -0.4541 -0.8909
vn -0.0000 -0.4789 -0.8778
vn -0.0000 -0.6639 -0.7478
vn -0.0000 0.0013 -1.0000
vn -0.0000 0.4383 -0.8988
vn -0.0000 0.3848 -0.9230
vn -0.0000 -0.7843 -0.6204
vn -0.0000 -0.7626 -0.6469
vn -0.0000 -0.7655 -0.6434
vn -0.0000 -0.7887 -0.6148
vn -0.0000 -0.6774 -0.7356
vn -0.0000 -0.7036 -0.7106
vn -0.0000 -0.6730 -0.7396
vn -0.0000 -0.7033 -0.7109
vn -0.0000 -0.9024 -0.4310
vn -0.0000 -0.8890 -0.4578
vn -0.0000 -0.9001 -0.4356
vn -0.0000 -0.9168 -0.3993
vn -0.0000 -0.9062 -0.4229
vn -0.0000 -0.7841 -0.6207
vn -0.0000 -0.8017 -0.5977
vn -0.0000 -0.7876 -0.6162
vn -0.0002 -0.8457 -0.5337
vn -0.0001 -0.8660 -0.5001
vn -0.0000 -0.8558 -0.5172
vn -0.0000 -0.8351 -0.5500
vn -0.0000 -0.8559 -0.5172
vn -0.0000 -0.8797 -0.4756
vn -0.0000 -0.8978 -0.4405
vn -0.0000 -0.8835 -0.4684
vn -0.0000 -0.8800 -0.4750
vn -0.0000 -0.8352 -0.5500
vn -0.0000 -0.8753 -0.4835
vn 0.0001 -0.8558 -0.5174
vn -0.0001 -0.8657 -0.5006
vn -0.0000 -0.8658 -0.5004
vn 0.0001 -0.8352 -0.5500
vn -0.0000 -0.8508 -0.5255
vn -0.0001 -0.8243 -0.5661
vn -0.0000 -0.8087 -0.5883
vn -0.0001 -0.8351 -0.5500
vn -0.0000 -0.8131 -0.5821
vn -0.0000 -0.8351 -0.5501
vn -0.0000 -0.8658 -0.5005
vn -0.0000 -0.8422 -0.5392
vn -0.0000 -0.8243 -0.5662
vn -0.0000 -0.8016 -0.5978
vn -0.0000 -0.8094 -0.5873
vn -0.0000 -0.8089 -0.5879
vn -0.0000 -0.8017 -0.5978
vn -0.0000 -0.7899 -0.6133
vn -0.0000 -0.7654 -0.6435
vn -0.0000 -0.7705 -0.6374
vn -0.0000 -0.8860 -0.4636
vn -0.0000 -0.8869 -0.4620
vn -0.0001 -0.8936 -0.4489
vn -0.0000 -0.7610 -0.6487
vn -0.0000 -0.7583 -0.6519
vn -0.0001 -0.7360 -0.6770
vn -0.0000 -0.7175 -0.6966
vn -0.0000 -0.7359 -0.6771
vn -0.0000 -0.7269 -0.6868
vn -0.0000 -0.7267 -0.6869
vn -0.0000 -0.7464 -0.6654
vn -0.0000 -0.8008 -0.5990
vn -0.0000 -0.8188 -0.5741
vn -0.0000 -0.8997 -0.4366
vn -0.0000 -0.9181 -0.3964
vn -0.0000 -0.6991 -0.7150
vn -0.0000 -0.6798 -0.7334
vn -0.0000 -0.6822 -0.7311
vn -0.0000 -0.7340 -0.6791
vn -0.0000 -0.7065 -0.7077
vn -0.0000 -0.7613 -0.6484
vn -0.0000 -0.7465 -0.6654
vn -0.0000 -0.7131 -0.7011
vn -0.0000 -0.7471 -0.6647
vn -0.0000 -0.7885 -0.6150
vn -0.0000 -0.7886 -0.6150
vn -0.0000 -0.7839 -0.6208
vn -0.0000 -0.6952 -0.7188
vn -0.0000 -0.7367 -0.6762
vn -0.0000 -0.9061 -0.4230
vn -0.0000 -0.8934 -0.4492
vn -0.0000 -0.9194 -0.3934
vn -0.0000 -0.9293 -0.3694
vn -0.0000 -0.9168 -0.3994
vn -0.0000 -0.8352 -0.5499
vn -0.0000 -0.7840 -0.6207
vn -0.0000 -0.8796 -0.4756
vn -0.0000 -0.7064 -0.7078
vn -0.0000 -0.6855 -0.7281
vn -0.0000 -0.7131 -0.7010
vn -0.0000 -0.6851 -0.7284
vn -0.0000 -0.6840 -0.7295
vn 0.0001 -0.6854 -0.7281
vn 0.0001 -0.6687 -0.7435
vn -0.0000 -0.6731 -0.7396
vn -0.0000 -0.6689 -0.7434
vn -0.0000 -0.6767 -0.7362
vn -0.0000 -0.7464 -0.6655
vn -0.0000 -0.7341 -0.6791
vn -0.0000 -0.8090 -0.5879
vn -0.0000 -0.8935 -0.4491
vn -0.0000 -0.8008 -0.5989
vn -0.0001 -0.7131 -0.7011
vn -0.0000 -0.7839 -0.6209
vn -0.0001 -0.6774 -0.7356
vn -0.0000 -0.6688 -0.7434
vn -0.0000 -0.6731 -0.7395
vn -0.0000 -0.7035 -0.7107
vn -0.0000 -0.7065 -0.7078
vn -0.0000 -0.6822 -0.7312
vn -0.0001 -0.6840 -0.7295
s 1
usemtl Diffuse_51_51_51_100.020
f 1//1 2//1 3//1
f 1//1 3//1 4//1
f 1//1 4//1 5//1
f 1//1 5//1 6//2
f 7//1 1//1 8//3
f 1//1 6//2 8//3
f 9//1 1//1 7//1
f 10//1 1//1 9//1
f 10//1 11//1 1//1
f 11//1 12//1 1//1
f 12//1 13//4 1//1
f 13//4 14//1 1//1
f 14//1 15//1 1//1
s 0
f 1//1 16//1 17//1
s 1
f 18//1 2//1 1//1
f 19//1 2//1 18//1
f 19//1 18//1 20//1
f 19//1 20//1 21//1
f 20//1 22//1 21//1
f 22//1 23//1 21//1
f 24//1 23//1 22//1
f 25//1 23//1 24//1
f 25//1 24//1 26//1
f 25//1 26//1 27//1
f 26//1 28//1 27//1
f 28//1 29//1 27//1
f 30//1 29//1 28//1
f 31//1 29//1 30//1
f 32//1 31//1 33//1
f 31//1 30//1 33//1
f 32//1 33//1 34//1
f 35//1 36//1 37//1
f 36//1 38//1 37//1
f 39//1 40//1 41//4
f 40//1 42//1 41//4
f 42//1 43//5 41//4
f 43//5 44//6 41//4
f 45//1 44//6 46//2
f 47//1 44//6 45//1
f 43//5 46//2 44//6
f 48//1 46//2 43//5
f 49//1 46//2 48//1
f 50//1 49//1 48//1
f 47//1 51//1 44//6
f 49//1 50//1 35//1
f 50//1 36//1 35//1
f 38//1 32//1 34//1
f 38//1 34//1 37//1
s 0
f 16//1 1//1 15//1
s 1
f 52//7 53//8 54//8
f 52//7 54//8 55//8
f 52//7 55//8 56//9
f 52//7 56//9 57//7
f 58//8 59//8 57//7
f 60//8 61//8 59//8
f 62//8 61//8 60//8
f 63//8 64//8 62//8
f 65//8 64//8 63//8
f 66//8 65//8 67//8
f 66//8 67//8 68//8
f 69//8 68//8 70//8
f 71//8 70//8 72//8
f 71//8 72//8 73//8
f 74//8 75//8 76//8
f 77//8 74//8 78//8
f 77//8 78//8 79//8
f 80//8 81//8 82//8
f 81//8 79//8 82//8
f 83//8 82//8 84//8
s 0
f 82//8 85//8 86//8
f 82//10 86//8 87//8
s 1
f 88//11 82//8 89//8
f 88//11 90//8 82//8
f 90//8 91//8 82//8
f 82//8 92//8 93//11
f 82//8 93//11 94//8
f 82//8 94//8 95//12
f 82//8 95//12 96//8
f 84//8 82//8 97//7
f 82//8 96//8 97//7
f 91//8 92//8 82//8
f 89//8 82//8 87//8
f 83//8 80//8 82//8
f 79//8 81//8 77//8
f 76//8 78//8 74//8
f 98//8 76//8 75//8
f 98//8 75//8 73//8
f 98//8 73//8 72//8
f 70//8 71//8 69//8
f 68//8 69//8 66//8
f 63//8 67//8 65//8
f 60//8 59//8 58//8
f 61//8 62//8 64//8
f 99//12 57//7 100//8
f 101//8 99//12 102//8
f 58//8 57//7 56//9
f 57//7 99//12 52//7
f 100//8 102//8 99//12
f 103//13 104//13 105//13
f 106//13 107//13 108//13
f 109//13 110//13 111//14
f 105//14 112//13 109//13
f 111//13 113//13 114//13
f 115//15 116//16 117//1
f 118//17 119//18 115//15
f 120//19 118//17 121//20
f 120//19 121//20 122//21
f 123//22 122//21 124//23
f 123//22 124//23 125//24
f 125//24 126//25 127//26
f 126//25 128//27 127//26
f 128//27 129//28 130//29
f 129//28 131//30 130//29
f 132//31 133//32 131//30
f 134//33 133//32 132//31
f 135//34 136//35 134//33
f 137//36 136//35 135//34
f 138//37 137//36 139//38
f 140//39 141//40 142//41
f 141//40 143//41 142//41
f 144//42 141//40 140//39
f 144//42 140//39 145//43
f 144//42 145//43 146//44
f 146//44 145//43 147//45
f 146//44 147//45 148//46
f 147//45 138//37 148//46
f 138//37 139//38 148//46
f 137//36 135//34 139//38
f 136//35 133//32 134//33
f 132//31 131//30 129//28
f 128//27 130//29 127//26
f 123//22 120//19 122//21
f 124//23 126//25 125//24
f 116//16 115//15 119//18
f 149//47 117//1 116//16
f 150//48 117//1 149//47
f 151//49 150//48 149//47
f 152//50 150//48 151//49
f 152//50 153//51 154//52
f 153//51 155//53 154//52
f 156//54 157//55 155//53
f 158//56 156//54 159//57
f 158//56 160//58 161//59
f 162//60 163//61 161//59
f 164//62 163//61 165//63
f 166//64 167//65 168//66
f 169//67 166//64 170//68
f 167//65 171//69 168//66
f 172//70 173//71 174//72
f 172//70 174//72 175//73
f 173//71 176//74 177//75
f 176//74 178//76 177//75
f 178//76 179//77 177//75
f 180//78 181//79 179//77
f 181//79 180//78 182//80
f 181//79 182//80 183//81
f 183//81 184//82 185//83
f 184//82 186//84 185//83
f 186//84 187//85 185//83
f 187//85 188//86 189//87
f 188//86 190//88 189//87
f 191//89 190//88 188//86
f 192//90 193//91 191//89
f 194//92 193//91 192//90
f 194//92 192//90 195//93
f 166//64 164//62 170//68
f 196//94 194//92 197//95
f 165//63 163//61 162//60
f 198//96 196//94 199//97
f 196//94 197//95 199//97
f 200//98 198//96 201//99
f 161//59 160//58 162//60
f 200//98 201//99 202//100
f 160//58 158//56 159//57
f 203//101 200//98 204//102
f 156//54 158//56 157//55
f 203//101 204//102 205//103
f 154//52 155//53 157//55
f 203//101 205//103 206//104
f 153//51 152//50 151//49
f 175//73 168//66 171//69
f 207//105 208//106 206//104
f 207//105 209//107 208//106
f 209//107 210//108 211//109
f 210//108 212//110 211//109
f 213//111 212//110 210//108
f 214//112 215//113 212//110
f 216//114 215//113 214//112
f 217//115 218//116 216//114
f 219//117 218//116 217//115
f 220//118 219//117 221//119
f 220//118 221//119 222//120
f 223//121 220//118 224//122
f 223//121 224//122 225//123
f 226//124 225//123 227//125
f 228//126 229//127 230//128
f 228//126 230//128 231//129
f 232//130 233//131 234//132
f 235//133 228//126 236//134
f 237//135 238//136 239//137
f 240//138 241//139 242//140
f 243//141 244//142 245//143
f 246//144 247//145 248//146
f 249//147 250//148 251//149
f 252//150 253//151 254//152
f 255//153 256//154 257//155
f 258//156 259//157 256//154
f 259//157 260//158 261//159
f 260//158 262//160 263//161
f 262//160 264//162 265//163
f 264//162 266//164 267//165
f 198//96 199//97 201//99
f 197//95 194//92 195//93
f 143//41 268//166 142//41
f 269//167 268//166 143//41
f 270//168 268//166 269//167
f 270//168 269//167 267//165
f 264//162 267//165 265//163
f 262//160 265//163 263//161
f 260//158 263//161 261//159
f 259//157 261//159 256//154
f 258//156 256//154 255//153
f 255//153 257//155 252//150
f 257//155 253//151 252//150
f 253//151 250//148 254//152
f 250//148 249//147 254//152
f 251//149 271//169 249//147
f 272//170 271//169 251//149
f 272//170 251//149 248//146
f 272//170 248//146 247//145
f 247//145 246//144 273//171
f 246//144 274//172 273//171
f 274//172 243//141 273//171
f 244//142 243//141 274//172
f 275//173 245//143 244//142
f 275//173 244//142 276//174
f 275//173 276//174 277//175
f 276//174 241//139 277//175
f 241//139 240//138 277//175
f 242//140 278//176 240//138
f 279//177 278//176 242//140
f 280//178 278//176 279//177
f 280//178 279//177 238//136
f 279//177 239//137 238//136
f 239//137 281//179 237//135
f 281//179 282//180 237//135
f 283//181 282//180 281//179
f 284//182 282//180 283//181
f 284//182 283//181 234//132
f 284//182 234//132 233//131
f 234//132 285//183 232//130
f 285//183 286//184 232//130
f 287//185 286//184 285//183
f 288//186 286//184 287//185
f 288//186 287//185 289//187
f 288//186 289//187 290//188
f 289//187 235//133 290//188
f 235//133 236//134 290//188
f 226//124 227//125 229//127
f 231//129 236//134 228//126
f 227//125 230//128 229//127
f 223//121 225//123 226//124
f 220//118 222//120 224//122
f 219//117 217//115 221//119
f 218//116 215//113 216//114
f 214//112 212//110 213//111
f 209//107 211//109 208//106
f 205//103 207//105 206//104
f 200//98 202//100 204//102
f 270//168 267//165 266//164
f 190//88 191//89 193//91
f 189//87 185//83 187//85
f 184//82 183//81 182//80
f 178//76 180//78 179//77
f 174//72 173//71 177//75
f 175//73 171//69 172//70
f 167//65 166//64 169//67
f 121//20 118//17 115//15
f 165//63 170//68 164//62
f 291//189 292//189 293//189
f 294//189 295//189 296//189
f 297//190 298//189 299//189
f 300//189 297//189 301//189
f 298//189 291//190 302//189
f 303//191 304//191 305//191
f 306//192 307//192 308//192
f 309//192 310//192 311//192
f 312//192 313//192 314//192
f 315//192 316//192 317//192
f 318//192 319//192 320//192
f 321//191 322//191 323//191
f 324//192 325//192 326//192
f 327//192 328//192 329//192
f 330//192 331//192 332//192
f 333//191 334//191 335//191
f 336//193 337//193 338//193
f 339//192 340//192 341//192
f 342//192 343//192 344//192
f 345//192 346//192 347//192
f 348//192 349//192 350//192
f 351//192 352//192 353//192
f 354//192 355//192 356//192
f 357//194 358//194 359//194
f 360//195 361//195 362//195
f 363//194 364//194 365//194
f 366//191 367//191 368//191
f 369//192 370//192 371//192
f 372//192 373//192 374//192
f 375//191 376//191 377//191
f 378//192 379//192 380//192
f 381//192 382//192 383//192
f 384//192 385//192 386//192
f 387//191 388//191 389//191
f 390//192 391//192 392//192
f 393//192 394//192 395//192
f 396//192 397//192 398//192
f 399//192 400//192 401//192
f 402//192 403//192 404//192
f 405//192 406//192 407//192
f 408//194 409//194 410//194
f 411//192 412//192 413//192
f 414//192 415//192 416//192
f 417//192 418//192 419//192
f 420//192 421//192 422//192
f 423//192 424//192 425//192
f 426//192 427//192 428//192
f 429//192 430//192 431//192
f 432//193 433//193 434//193
f 435//192 436//192 437//192
f 438//192 439//192 440//192
f 441//192 442//192 443//192
f 444//192 445//192 446//192
f 447//193 448//193 449//193
f 450//192 451//192 452//192
f 453//192 454//192 455//192
f 456//193 457//193 458//193
f 459//192 460//192 461//192
f 462//192 463//192 464//192
f 465//192 466//192 467//192
f 468//192 469//192 470//192
f 471//192 472//192 473//192
f 474//191 475//191 476//191
f 477//194 478//194 479//194
f 480//193 481//193 482//193
f 483//192 484//192 485//192
f 486//193 487//193 488//193
f 489//192 490//192 491//192
f 492//193 493//193 494//193
f 495//192 496//192 497//192
f 498//192 499//192 500//192
f 501//192 502//192 503//192
f 504//192 505//192 506//192
f 507//191 508//191 509//191
f 510//192 511//192 512//192
f 513//192 514//192 515//192
f 516//192 517//192 518//192
f 519//192 520//192 521//192
f 522//192 523//192 524//192
f 525//192 526//192 527//192
f 528//192 529//192 530//192
f 531//192 532//192 533//192
f 534//192 535//192 536//192
f 537//192 538//192 539//192
f 540//192 541//192 542//192
f 543//196 544//196 545//196
f 546//192 547//192 548//192
f 549//192 550//192 551//192
f 552//192 553//192 554//192
f 555//197 556//198 557//199
f 555//197 558//200 556//198
f 559//201 560//202 561//203
f 559//201 562//204 563//205
f 564//206 565//207 566//208
f 564//206 562//204 567//209
f 564//206 567//209 568//210
f 562//204 561//203 569//211
f 570//212 563//205 571//213
f 570//212 558//200 560//202
f 570//212 571//213 556//198
f 563//205 572//214 571//213
f 569//211 561//203 573//215
f 569//211 567//209 562//204
f 574//216 575//217 576//218
f 574//216 577//219 575//217
f 578//220 579//221 580//222
f 578//220 581//223 582//224
f 583//225 584//226 585//215
f 583//225 580//222 586//227
f 580//222 587//228 586//227
f 580//222 579//221 587//228
f 579//221 588//229 589//230
f 579//199 590//224 591//231
f 592//232 593//233 594//234
f 592//232 595//235 596//236
f 597//237 598//238 599//239
f 597//237 600//240 598//238
f 594//234 601//235 592//232
f 594//234 602//241 603//242
f 604//243 605//244 606//241
f 604//243 575//217 607//245
f 605//244 588//229 608//229
f 605//244 607//245 588//229
f 592//232 596//236 593//233
f 595//235 557//199 609//235
f 596//236 610//246 593//233
f 596//236 609//235 611//247
f 611//247 589//230 588//229
f 611//247 609//235 589//230
f 589//230 587//228 579//221
f 589//230 609//235 612//248
f 557//199 613//224 612//248
f 557//199 556//198 613//224
f 612//248 609//235 557//199
f 612//248 614//249 587//228
f 614//249 615//250 586//227
f 614//249 613//224 571//213
f 600//240 593//233 616//251
f 594//234 597//237 617//252
f 618//253 577//219 619//254
f 618//253 607//245 575//217
f 577//219 574//216 620//255
f 618//253 619//254 610//246
f 621//256 622//257 623//258
f 621//256 619//254 622//257
f 616//251 593//233 610//246
f 616//251 598//238 600//240
f 568//210 567//209 624//259
f 568//210 625//260 565//207
f 558//200 601//235 626//231
f 601//235 555//197 595//235
f 559//201 561//203 562//204
f 560//202 627//224 628//223
f 562//204 564//206 563//205
f 566//208 629//261 572//214
f 291//190 620//255 630//257
f 291//190 298//189 620//255
f 620//255 574//216 631//218
f 620//255 298//189 622//257
f 604//243 607//245 605//244
f 575//217 577//219 618//253
f 297//190 623//258 298//189
f 623//258 598//238 621//256
f 623//258 297//190 632//257
f 633//262 584//226 634//263
f 633//264 635//265 636//266
f 629//261 615//250 572//214
f 629//261 634//263 584//226
f 586//227 587//228 614//249
f 637//267 578//268 638//269
f 633//262 634//263 639//270
f 584//226 586//227 629//261
f 640//259 569//271 641//272
f 572//214 564//206 566//208
f 571//213 572//214 615//250
f 570//212 556//198 558//200
f 568//210 565//207 564//206
f 625//260 642//260 565//207
f 563//205 564//206 572//214
f 565//207 643//260 634//263
f 571//213 615//250 614//249
f 566//208 565//207 634//263
f 621//256 616//251 619//254
f 598//238 644//218 645//239
f 577//219 622//257 619//254
f 620//255 622//257 577//219
f 610//246 619//254 616//251
f 610//246 596//236 611//247
f 584//226 583//225 586//227
f 611//247 607//245 610//246
f 588//229 607//245 611//247
f 607//245 618//253 610//246
f 597//237 593//233 600//240
f 595//235 555//197 557//199
f 598//238 616//251 621//256
f 592//232 601//235 595//235
f 595//235 609//235 596//236
f 589//230 612//248 587//228
f 586//227 615//250 629//261
f 614//249 612//248 613//224
f 569//271 646//273 647//272
f 560//202 559//201 570//212
f 601//235 558//200 555//197
f 556//198 571//213 613//224
f 634//263 648//274 649//275
f 650//276 651//277 568//210
f 652//252 653//278 604//243
f 623//258 622//257 298//189
f 654//231 655//279 579//199
f 656//279 601//235 594//234
f 657//270 633//262 658//277
f 659//269 561//280 660//267
f 661//281 662//282 663//283
f 664//284 665//285 666//277
f 667//275 668//277 669//286
f 670//286 671//277 672//276
f 633//262 673//286 674//259
f 633//262 675//287 676//286
f 677//259 678//288 633//262
f 679//289 633//262 680//290
f 681//291 682//269 583//292
f 683//224 579//221 578//220
f 583//225 578//220 580//222
f 684//215 561//280 685//269
f 588//229 579//221 686//229
f 563//205 570//212 559//201
f 687//270 634//263 688//293
f 689//294 634//263 690//265
f 691//277 692//260 568//210
f 693//287 694//295 634//263
f 695//288 696//215 584//226
f 629//261 566//208 634//263
f 634//263 697//260 698//296
f 699//275 700//286 634//263
f 568//210 701//260 625//260
f 702//287 634//263 703//297
f 704//259 567//209 569//211
f 705//277 633//262 706//270
f 707//242 708//241 605//234
f 558//200 709//231 560//202
f 710//298 711//242 605//234
f 712//224 560//202 713//231
f 604//243 714//241 715//252
f 716//229 594//234 717//242
f 718//257 719//218 623//258
f 720//299 721//257 297//190
f 623//258 722//300 598//238
f 723//252 597//301 724//239
f 291//189 725//257 726//299
f 727//252 728//241 594//234
f 729//257 620//255 730//300
f 593//233 597//237 594//234
f 731//239 732//300 575//302
f 604//243 733//239 575//217
f 734//231 601//235 735//229
f 736//267 561//203 560//202
f 737//303 633//262 738//270
f 633//262 739//272 584//226
f 740//277 741//260 742//260
f 578//220 583//225 743//269
f 744//260 745//260 746//304
f 747//305 748//306 749//307
f 750//305 751//308 752//285
f 753//305 754//309 755//310
f 756//308 757//311 758//312
f 759//313 760//308 761//312
f 762//313 763//314 764//315
f 765//316 766//317 767//318
f 768//317 769//319 770//320
f 771//321 772//322 773//323
f 774//322 775//324 776//325
f 777//326 778//327 779//328
f 780//328 781//327 782//329
f 783//330 784//328 785//331
f 786//332 787//330 788//333
f 789//334 790//332 791//335
f 792//336 793//337 794//338
f 795//339 796//339 797//340
f 798//340 799//339 800//341
f 801//341 802//342 803//343
f 804//344 805//341 806//343
f 807//345 808//346 809//343
f 810//347 811//348 812//343
f 813//349 814//347 815//350
f 816//349 817//351 818//347
f 819//349 820//352 821//351
f 822//349 823//353 824//352
f 825//354 826//355 827//356
f 828//357 829//337 830//358
f 831//356 832//357 833//359
f 834//359 835//338 836//337
f 837//360 838//361 839//362
f 840//363 841//360 842//364
f 843//365 844//363 845//366
f 846//367 847//368 848//369
f 849//370 850//365 851//366
f 852//332 853//334 854//371
f 855//333 856//335 857//332
f 858//331 859//333 860//372
f 861//373 862//331 863//374
f 864//375 865//326 866//324
f 867//325 868//376 869//322
f 870//323 871//319 872//377
f 873//376 874//320 875//378
f 876//320 877//314 878//317
f 879//314 880//313 881//379
f 882//363 883//380 884//360
f 885//359 886//356 887//355
f 888//381 889//382 890//383
f 888//381 891//384 889//382
f 892//385 893//386 894//387
f 892//385 895//388 896//389
f 892//385 896//389 893//386
f 895//388 897//390 898//391
f 899//392 898//391 900//393
f 899//392 901//394 896//389
f 898//391 897//390 900//393
f 898//391 896//389 895//388
f 902//395 903//396 904//397
f 902//395 905//398 906//372
f 907//399 908//400 909//401
f 907//399 910//402 908//400
f 911//403 912//404 913//405
f 911//403 914//406 915//407
f 912//404 916//408 913//405
f 912//404 915//407 917//409
f 918//410 919//411 920//412
f 918//410 921//413 922//414
f 921//413 923//415 924//416
f 921//413 925//417 926//418
f 927//419 928//420 929//421
f 927//419 891//384 930//422
f 931//423 932//424 933//425
f 931//423 934//426 935//427
f 905//428 936//328 937//330
f 905//398 932//424 938//326
f 932//424 904//397 939//429
f 905//428 940//326 941//328
f 934//426 942//323 943//430
f 934//426 894//387 944//376
f 945//431 946//432 947//433
f 945//431 948//434 917//409
f 945//431 917//409 946//432
f 948//434 949//339 950//435
f 951//436 949//339 952//437
f 951//436 950//435 949//339
f 917//409 915//407 946//432
f 917//409 950//435 916//408
f 948//434 950//435 917//409
f 917//409 916//408 912//404
f 953//438 951//436 952//437
f 954//403 955//439 956//440
f 954//403 957//441 926//418
f 958//442 959//443 908//400
f 958//442 960//444 959//443
f 961//445 962//446 963//447
f 961//445 908//400 910//402
f 964//448 965//370 966//449
f 964//448 967//450 968//451
f 967//450 969//452 970//453
f 967//450 971//454 972//455
f 973//456 955//439 925//417
f 973//456 974//457 975//458
f 974//457 970//453 969//452
f 974//457 976//459 977//460
f 970//453 968//451 967//450
f 970//453 977//460 978//461
f 979//462 980//463 981//464
f 979//462 893//386 982//465
f 947//433 983//466 945//431
f 947//433 959//443 984//349
f 985//467 986//468 987//469
f 985//470 988//471 989//472
f 986//468 990//473 991//474
f 986//475 992//472 993//476
f 994//477 995//478 996//479
f 994//477 930//422 997//480
f 995//478 990//473 998//481
f 995//478 997//480 999//482
f 1000//483 1001//484 1002//485
f 1000//483 1003//486 1004//487
f 1005//488 968//451 978//461
f 1005//488 1002//485 965//370
f 1001//484 1006//489 1007//490
f 1001//484 1004//487 1006//489
f 1008//491 1009//492 1010//366
f 1008//491 1011//493 966//449
f 1008//491 966//449 1009//492
f 1011//493 1012//494 966//449
f 975//458 956//440 955//439
f 975//458 969//452 909//401
f 991//474 999//482 1003//486
f 991//474 987//469 986//468
f 999//482 997//480 1004//487
f 999//482 990//473 995//478
f 953//438 957//441 913//405
f 953//438 952//437 1013//495
f 926//418 925//417 955//439
f 926//418 1013//495 923//415
f 1013//495 952//437 1014//496
f 1013//495 957//441 953//438
f 1013//495 1014//496 923//415
f 952//497 1015//498 1016//340
f 1017//499 908//400 959//443
f 1017//499 915//407 914//406
f 945//431 983//466 948//434
f 946//432 959//443 947//433
f 918//410 925//417 921//413
f 920//412 1018//500 976//459
f 1018//500 987//469 977//460
f 1018//500 919//411 985//467
f 894//387 981//464 1019//320
f 894//387 933//425 892//385
f 981//464 980//463 1020//314
f 981//464 893//386 979//462
f 909//401 914//406 956//440
f 909//401 972//455 907//399
f 911//403 915//407 912//404
f 914//406 908//400 1017//499
f 1021//501 980//463 1022//502
f 1021//503 1023//260 1024//308
f 1021//501 1022//502 1025//504
f 980//463 982//465 1026//505
f 1022//502 1026//505 1027//506
f 980//463 1021//501 1028//507
f 1029//508 889//382 1030//509
f 1029//508 1031//510 1032//511
f 1033//512 1034//513 1031//510
f 1033//512 1035//514 1036//515
f 978//461 977//460 987//469
f 978//461 968//451 970//453
f 977//460 976//459 1018//500
f 975//458 974//457 969//452
f 980//463 1026//505 1022//502
f 982//465 901//394 1026//505
f 1004//487 1037//328 1006//489
f 1004//487 1003//486 999//482
f 1037//328 1038//516 1039//517
f 1037//328 997//480 930//422
f 964//448 971//454 967//450
f 965//370 1040//518 966//449
f 967//450 972//455 969//452
f 971//454 966//449 1012//494
f 1041//519 1006//489 1037//328
f 1041//519 900//393 897//390
f 899//392 1042//520 1043//521
f 900//393 1039//517 1044//522
f 890//383 1032//511 1042//520
f 890//383 1038//516 888//381
f 1032//511 1031//510 1043//521
f 1032//511 889//382 1029//508
f 1012//494 907//399 972//455
f 910//402 962//446 961//445
f 1012//494 1011//493 962//446
f 1012//494 972//455 971//454
f 1044//522 1039//517 1038//516
f 1044//522 1042//520 900//393
f 1045//523 897//390 939//429
f 1045//523 1007//490 1006//489
f 1007//490 1040//518 1002//485
f 1007//490 904//397 903//396
f 927//419 930//422 994//477
f 930//422 888//381 1038//516
f 994//477 997//480 995//478
f 930//422 1038//516 1037//328
f 1009//492 903//396 1046//332
f 1009//492 966//449 1040//518
f 902//395 904//397 932//424
f 903//396 1040//518 1007//490
f 923//415 1014//496 1047//524
f 1013//495 926//418 957//441
f 1014//525 1048//526 1049//527
f 1014//528 1050//529 1051//530
f 1045//523 904//397 1007//490
f 931//423 933//425 894//387
f 1043//521 1042//520 1032//511
f 1043//521 901//394 899//392
f 1027//506 625//306 1022//502
f 1027//506 1031//510 1034//513
f 1033//512 1031//510 1029//508
f 1034//513 625//306 1027//506
f 1042//520 899//392 900//393
f 895//388 892//385 933//425
f 896//389 982//465 893//386
f 1026//505 1043//521 1027//506
f 894//387 893//386 981//464
f 933//425 939//429 895//388
f 1017//499 946//432 915//407
f 959//531 1052//355 1053//349
f 983//532 1054//343 1055//339
f 959//443 946//432 1017//499
f 913//405 916//408 953//438
f 911//403 956//440 914//406
f 975//458 955//439 973//456
f 955//439 954//403 926//418
f 962//446 1011//493 1008//491
f 1012//494 910//402 907//399
f 962//446 910//402 1012//494
f 975//458 909//401 956//440
f 908//400 914//406 909//401
f 956//440 911//403 913//405
f 918//410 920//412 925//417
f 925//417 920//412 976//459
f 923//415 921//413 926//418
f 925//417 976//459 973//456
f 951//436 953//438 916//408
f 957//441 954//403 913//405
f 978//461 991//474 1003//486
f 995//478 1056//481 1057//533
f 964//448 968//451 965//370
f 976//459 974//457 973//456
f 1009//492 1040//518 903//396
f 1005//488 965//370 968//451
f 966//449 971//454 964//448
f 972//455 909//401 969//452
f 919//411 1018//500 920//412
f 1005//488 978//461 1000//483
f 954//403 956//440 913//405
f 974//457 977//460 970//453
f 1003//486 1000//483 978//461
f 1002//485 1040//518 965//370
f 1002//485 1005//488 1000//483
f 1058//420 994//534 1059//535
f 1000//483 1004//487 1001//484
f 1060//536 995//478 1061//537
f 1041//519 1045//523 1006//489
f 902//395 932//424 905//398
f 1007//490 1002//485 1001//484
f 1062//363 1008//538 1063//371
f 1045//523 1041//519 897//390
f 1032//511 890//383 889//382
f 899//392 896//389 898//391
f 1064//427 932//424 931//423
f 900//393 1041//519 1039//517
f 1065//330 903//396 902//395
f 1044//522 890//383 1042//520
f 889//382 891//384 1066//539
f 1037//328 1039//517 1041//519
f 1067//540 891//384 1068//541
f 1027//506 1043//521 1031//510
f 1069//320 981//542 1070//314
f 901//394 1043//521 1026//505
f 1071//543 1033//512 1072//515
f 1073//343 983//466 1074//349
f 1075//544 952//437 1076//545
f 1077//359 1078//355 958//442
f 1079//416 1080//546 921//413
f 939//429 904//397 1045//523
f 1081//547 985//467 919//411
f 982//465 896//389 901//394
f 1082//479 1083//548 994//477
f 1022//502 625//306 1084//260
f 1085//540 1086//539 891//384
f 1087//304 1088//260 1034//513
f 1034//513 1089//285 625//306
f 1090//549 1091//304 1034//513
f 1092//550 1093//551 1034//513
f 1033//512 1094//552 1034//513
f 1033//512 1095//543 1096//553
f 1044//522 1038//516 890//383
f 1029//508 1097//509 1033//512
f 1033//512 1098//554 1099//514
f 889//382 1100//539 1101//509
f 888//381 930//422 891//384
f 903//555 1102//330 1103//332
f 1037//328 1004//487 997//480
f 897//390 895//388 939//429
f 927//419 1104//541 891//384
f 927//556 1105//557 1106//541
f 1107//366 1009//492 1108//332
f 1109//558 927//419 994//477
f 1110//362 962//446 1111//363
f 991//474 978//461 987//469
f 962//446 1008//491 1112//363
f 1018//500 985//467 987//469
f 1113//359 961//445 1114//338
f 990//473 986//468 1115//481
f 947//433 1116//559 983//466
f 986//468 985//467 1117//472
f 961//445 1118//560 958//442
f 1119//561 985//470 1120//562
f 961//445 958//442 908//400
f 1121//563 918//410 1122//414
f 948//434 1123//339 949//339
f 1124//342 952//437 949//339
f 1125//564 1126//414 921//413
f 952//437 1127//529 1014//496
f 951//436 916//408 950//435
f 1128//527 1129//565 1014//528
f 1014//528 1130//565 1131//524
f 1132//403 923//566 1133//567
f 1134//403 1135//416 923//415
f 1136//568 948//434 983//466
f 918//410 1137//563 919//411
f 1138//563 1139//562 919//411
f 1140//476 1141//569 986//475
f 999//482 991//474 990//473
f 932//424 939//429 933//425
f 979//462 982//465 980//463
f 1142//308 1143//314 980//463
f 1144//570 1145//376 894//571
f 931//423 894//387 934//426
f 1146//572 1147//573 1148//574
f 1146//572 1149//575 1147//573
f 1150//576 1151//577 1152//578
f 1150//576 949//339 1153//579
f 1154//580 1155//581 1156//582
f 1154//580 1157//583 1158//584
f 1159//585 1160//586 1161//587
f 1159//585 1149//575 1160//586
f 1162//588 1163//589 1164//590
f 1162//588 1165//591 1166//592
f 1167//593 1168//594 1169//595
f 1167//593 1166//592 1170//596
f 1166//592 1165//591 1171//597
f 1166//592 1163//589 1162//588
f 1172//598 1173//599 1174//600
f 1172//598 1175//596 1176//601
f 1173//599 1177//602 1174//600
f 1173//592 1178//601 1179//603
f 1180//604 1160//586 1181//605
f 1180//604 1182//606 1183//607
f 1182//606 1164//590 1184//608
f 1182//606 1180//604 1162//588
f 1164//590 1185//609 1186//610
f 1164//590 1163//589 1185//609
f 1186//610 1187//611 1184//608
f 1186//610 1174//600 1177//602
f 1187//611 1188//612 1189//613
f 1187//611 1177//602 1190//614
f 1183//607 1191//615 1160//586
f 1183//607 1184//608 1189//613
f 1189//613 1184//608 1187//611
f 1189//613 1191//615 1183//607
f 1192//616 1193//617 1161//587
f 1192//616 1188//612 1194//618
f 1167//593 1163//589 1166//592
f 1169//595 1195//619 1163//589
f 1196//620 1156//582 1155//581
f 1196//620 1197//621 1156//582
f 1196//620 1155//581 1174//600
f 1156//582 1157//583 1154//580
f 1198//622 1161//587 1199//623
f 1198//622 1200//624 1147//573
f 1200//624 1201//625 1202//626
f 1200//624 1203//627 1153//579
f 1202//626 1147//573 1200//624
f 1202//626 1204//628 1205//629
f 1181//605 1165//591 1180//604
f 1181//605 1206//630 1207//631
f 1149//575 1146//572 1206//630
f 1198//622 1159//585 1161//587
f 1208//632 1209//633 1197//621
f 1208//632 1195//619 1168//594
f 1195//619 1169//595 1168//594
f 1195//619 1197//621 1185//609
f 1210//634 1211//635 1212//636
f 1210//634 1213//637 1214//638
f 1213//637 1215//639 1216//640
f 1213//637 1217//641 1218//642
f 1190//614 1177//602 1219//631
f 1190//614 1188//612 1187//611
f 1220//643 1215//639 1194//618
f 1220//644 1221//586 1222//645
f 1223//646 949//339 1224//339
f 1223//646 1153//579 949//339
f 1161//587 1191//615 1192//616
f 1161//587 1160//586 1191//615
f 1153//579 1223//646 1201//625
f 1153//579 1203//627 1151//577
f 1203//627 1199//623 1225//647
f 1149//575 1159//585 1147//573
f 1225//647 1151//577 1203//627
f 1225//647 1218//642 1217//641
f 1194//618 1188//612 1220//643
f 1194//618 1218//642 1193//617
f 1225//647 1217//641 1151//577
f 1218//642 1215//639 1213//637
f 111//14 1157//583 109//13
f 1209//633 1156//582 1197//621
f 1157//583 111//14 1226//633
f 1196//620 1174//600 1185//609
f 1155//581 1227//648 1228//649
f 105//14 1229//650 1230//633
f 105//14 109//13 1229//650
f 1229//650 1168//594 1231//648
f 1229//650 109//13 1209//633
f 1167//593 1169//595 1163//589
f 1195//619 1208//632 1197//621
f 1232//633 111//13 1233//651
f 1168//594 1229//650 1208//632
f 1234//648 1157//652 1235//633
f 1185//609 1197//621 1196//620
f 1185//609 1163//589 1195//619
f 1164//590 1186//610 1184//608
f 1177//608 1236//597 1237//631
f 1174//600 1186//610 1185//609
f 1238//653 1173//592 1239//603
f 1206//630 1146//572 1240//654
f 1149//575 1181//605 1160//586
f 1182//606 1162//588 1164//590
f 1166//592 1241//597 1242//603
f 1183//607 1182//606 1184//608
f 1243//649 1167//655 1244//596
f 1192//616 1189//613 1188//612
f 1162//588 1180//604 1165//591
f 1220//643 1188//612 1190//614
f 1192//616 1194//618 1193//617
f 1189//613 1192//616 1191//615
f 1245//574 1220//643 1246//645
f 1202//626 1201//625 1247//656
f 1198//622 1147//573 1159//585
f 1201//625 1223//646 1248//657
f 1150//576 1153//579 1151//577
f 1201//625 1200//624 1153//579
f 1225//647 1193//617 1218//642
f 1199//623 1161//587 1193//617
f 1165//591 1181//605 1249//631
f 1217//658 1250//659 1251//660
f 1217//641 1252//657 1253//659
f 1225//647 1199//623 1193//617
f 1254//640 1255//574 1202//626
f 1160//586 1180//604 1183//607
f 1157//583 1209//633 109//13
f 1203//627 1198//622 1199//623
f 1256//591 1177//602 1173//599
f 1257//636 1217//658 1258//660
f 1259//574 1215//639 1220//643
f 1260//339 1261//339 1262//657
f 1263//661 1264//342 1265//662
f 1266//663 1267//657 1268//664
f 1269//578 1270//665 1210//634
f 1271//665 1272//635 1210//634
f 1273//659 1210//634 1274//660
f 1217//641 1213//637 1210//634
f 1275//659 1276//657 1210//634
f 1277//656 1213//637 1278//628
f 1215//639 1218//642 1194//618
f 1279//666 1280//628 1213//667
f 1165//608 1281//631 1282//597
f 1177//602 1187//611 1186//610
f 1283//603 1284//601 1166//592
f 1190//668 1285//631 1286//586
f 1149//575 1206//630 1181//605
f 1172//598 1155//581 1287//649
f 1209//633 1208//632 1229//650
f 1154//580 1288//584 1155//581
f 1289//596 1172//598 1290//669
f 105//13 1291//633 1292//651
f 1172//598 1293//601 1173//599
f 1294//633 1229//650 1295//584
f 1157//583 1156//582 1209//633
f 1296//649 1168//594 1167//593
f 1190//614 1297//586 1220//643
f 1298//631 1206//670 1299//586
f 1300//635 1217//671 1301//636
f 1302//672 1146//572 1303//574
f 1304//638 1201//625 1305//657
f 1306//657 1223//646 1307//339
f 1202//626 1308//574 1147//573
f 949//339 1150//576 1309//339
f 1310//342 1150//673 1311//674
f 1312//674 1150//576 1313//675
f 1314//663 1151//577 1315//665
f 1316//665 1151//676 1317//635
f 1203//627 1200//624 1198//622
f 1318//677 1319//628 1202//626
f 1206//630 1320//645 1321//586
f 1322//649 1323//584 1168//594
f 1174//600 1155//581 1172//598
f 1324//601 1325//596 1166//592
f 1217//641 1210//634 1326//657
f 1327//574 1328//640 1215//639
f 1329//638 1330//657 1210//634
f 1210//634 1331//678 1332//679
f 1151//577 1217//641 1333//635
f 1210//634 1334//657 1335//578
