# Blender 4.4.3
# www.blender.org
mtllib Mesh_18.017.mtl
o Mesh_18.017
v 0.017230 0.008776 -0.011303
v 0.017230 0.008830 -0.011303
v 0.017230 0.008827 -0.011305
v 0.017230 0.008824 -0.011307
v 0.017230 0.008821 -0.011309
v 0.017230 0.008817 -0.011310
v 0.017230 0.008810 -0.011312
v 0.017230 0.008814 -0.011312
v 0.017230 0.008807 -0.011313
v 0.017230 0.008803 -0.011313
v 0.017230 0.008799 -0.011313
v 0.017230 0.008796 -0.011312
v 0.017230 0.008792 -0.011312
v 0.017230 0.008789 -0.011310
v 0.017230 0.008785 -0.011309
v 0.017230 0.008782 -0.011307
v 0.017230 0.008779 -0.011305
v 0.017230 0.008773 -0.011300
v 0.017230 0.008833 -0.011300
v 0.017230 0.008770 -0.011297
v 0.017230 0.008836 -0.011297
v 0.017230 0.008766 -0.011293
v 0.017230 0.008840 -0.011293
v 0.017230 0.008763 -0.011290
v 0.017230 0.008843 -0.011290
v 0.017230 0.008760 -0.011286
v 0.017230 0.008846 -0.011286
v 0.017230 0.008757 -0.011283
v 0.017230 0.008849 -0.011283
v 0.017230 0.008754 -0.011279
v 0.017230 0.008852 -0.011279
v 0.017230 0.008854 -0.011275
v 0.017230 0.008752 -0.011275
v 0.017230 0.008749 -0.011271
v 0.017230 0.008744 -0.011263
v 0.017230 0.008859 -0.011267
v 0.017230 0.008747 -0.011267
v 0.017230 0.008857 -0.011271
v 0.017230 0.008872 -0.011242
v 0.017230 0.008870 -0.011247
v 0.017230 0.008872 -0.011240
v 0.017230 0.008868 -0.011251
v 0.017230 0.008866 -0.011255
v 0.017230 0.008734 -0.011240
v 0.017230 0.008738 -0.011251
v 0.017230 0.008740 -0.011255
v 0.017230 0.008736 -0.011247
v 0.017230 0.008864 -0.011259
v 0.017230 0.008742 -0.011259
v 0.017230 0.008862 -0.011263
v 0.017230 0.008734 -0.011242
v 0.017460 0.008734 -0.011240
v 0.017460 0.008734 -0.011242
v 0.017460 0.008736 -0.011247
v 0.017460 0.008738 -0.011251
v 0.017460 0.008740 -0.011255
v 0.017460 0.008866 -0.011255
v 0.017460 0.008742 -0.011259
v 0.017460 0.008864 -0.011259
v 0.017460 0.008744 -0.011263
v 0.017460 0.008862 -0.011263
v 0.017460 0.008747 -0.011267
v 0.017460 0.008749 -0.011271
v 0.017460 0.008859 -0.011267
v 0.017460 0.008857 -0.011271
v 0.017460 0.008854 -0.011275
v 0.017460 0.008752 -0.011275
v 0.017460 0.008754 -0.011279
v 0.017460 0.008852 -0.011279
v 0.017460 0.008757 -0.011283
v 0.017460 0.008849 -0.011283
v 0.017460 0.008760 -0.011286
v 0.017460 0.008846 -0.011286
v 0.017460 0.008840 -0.011293
v 0.017460 0.008843 -0.011290
v 0.017460 0.008766 -0.011293
v 0.017460 0.008836 -0.011297
v 0.017460 0.008770 -0.011297
v 0.017460 0.008773 -0.011300
v 0.017460 0.008830 -0.011303
v 0.017460 0.008833 -0.011300
v 0.017460 0.008776 -0.011303
v 0.017460 0.008827 -0.011305
v 0.017460 0.008824 -0.011307
v 0.017460 0.008779 -0.011305
v 0.017460 0.008782 -0.011307
v 0.017460 0.008785 -0.011309
v 0.017460 0.008792 -0.011312
v 0.017460 0.008789 -0.011310
v 0.017460 0.008796 -0.011312
v 0.017460 0.008799 -0.011313
v 0.017460 0.008803 -0.011313
v 0.017460 0.008807 -0.011313
v 0.017460 0.008810 -0.011312
v 0.017460 0.008814 -0.011312
v 0.017460 0.008817 -0.011310
v 0.017460 0.008821 -0.011309
v 0.017460 0.008763 -0.011290
v 0.017460 0.008872 -0.011240
v 0.017460 0.008868 -0.011251
v 0.017460 0.008872 -0.011242
v 0.017460 0.008870 -0.011247
v 0.017460 0.008734 -0.011242
v 0.017460 0.008734 -0.011240
v 0.017402 0.008734 -0.011242
v 0.017460 0.008734 -0.011240
v 0.017230 0.008734 -0.011240
v 0.017230 0.008734 -0.011242
v 0.017345 0.008734 -0.011242
v 0.017460 0.008734 -0.011240
v 0.017287 0.008734 -0.011242
v 0.017460 0.008734 -0.011240
v 0.017460 0.008734 -0.011240
v 0.017230 0.008734 -0.011242
v 0.017325 0.008805 -0.011240
v 0.017325 0.008803 -0.011313
v 0.017325 0.008803 -0.011240
v 0.017325 0.008807 -0.011313
v 0.017325 0.008805 -0.011313
v 0.017324 0.008809 -0.011312
v 0.017325 0.008807 -0.011240
v 0.017324 0.008809 -0.011240
v 0.017324 0.008811 -0.011312
v 0.017324 0.008811 -0.011240
v 0.017323 0.008813 -0.011312
v 0.017323 0.008813 -0.011240
v 0.017322 0.008815 -0.011311
v 0.017323 0.008815 -0.011240
v 0.017322 0.008817 -0.011240
v 0.017321 0.008817 -0.011310
v 0.017320 0.008819 -0.011310
v 0.017321 0.008819 -0.011240
v 0.017319 0.008821 -0.011309
v 0.017320 0.008820 -0.011240
v 0.017318 0.008822 -0.011240
v 0.017318 0.008822 -0.011308
v 0.017317 0.008824 -0.011307
v 0.017315 0.008825 -0.011306
v 0.017317 0.008823 -0.011240
v 0.017311 0.008829 -0.011304
v 0.017311 0.008829 -0.011240
v 0.017309 0.008830 -0.011303
v 0.017309 0.008830 -0.011240
v 0.017312 0.008827 -0.011240
v 0.017312 0.008828 -0.011305
v 0.017314 0.008826 -0.011240
v 0.017314 0.008826 -0.011306
v 0.017316 0.008825 -0.011240
v 0.017325 0.008801 -0.011313
v 0.017325 0.008801 -0.011240
v 0.017325 0.008799 -0.011313
v 0.017325 0.008798 -0.011240
v 0.017324 0.008797 -0.011312
v 0.017324 0.008796 -0.011240
v 0.017324 0.008795 -0.011312
v 0.017323 0.008793 -0.011312
v 0.017323 0.008793 -0.011240
v 0.017323 0.008791 -0.011240
v 0.017322 0.008791 -0.011311
v 0.017321 0.008789 -0.011310
v 0.017322 0.008789 -0.011240
v 0.017320 0.008787 -0.011310
v 0.017320 0.008787 -0.011240
v 0.017319 0.008785 -0.011240
v 0.017319 0.008785 -0.011309
v 0.017317 0.008783 -0.011240
v 0.017315 0.008781 -0.011306
v 0.017316 0.008781 -0.011240
v 0.017317 0.008782 -0.011307
v 0.017318 0.008784 -0.011308
v 0.017314 0.008780 -0.011306
v 0.017312 0.008779 -0.011305
v 0.017311 0.008777 -0.011304
v 0.017312 0.008778 -0.011240
v 0.017314 0.008780 -0.011240
v 0.017309 0.008776 -0.011303
v 0.017310 0.008777 -0.011240
v 0.017307 0.008776 -0.011302
v 0.017308 0.008776 -0.011240
v 0.017306 0.008775 -0.011302
v 0.017305 0.008775 -0.011240
v 0.017304 0.008774 -0.011301
v 0.017303 0.008774 -0.011240
v 0.017302 0.008774 -0.011301
v 0.017301 0.008774 -0.011240
v 0.017300 0.008774 -0.011300
v 0.017299 0.008773 -0.011300
v 0.017297 0.008773 -0.011300
v 0.017298 0.008773 -0.011240
v 0.017296 0.008773 -0.011240
v 0.017295 0.008773 -0.011300
v 0.017293 0.008773 -0.011300
v 0.017293 0.008773 -0.011240
v 0.017291 0.008773 -0.011240
v 0.017291 0.008773 -0.011300
v 0.017289 0.008774 -0.011240
v 0.017289 0.008774 -0.011300
v 0.017286 0.008774 -0.011240
v 0.017288 0.008774 -0.011301
v 0.017284 0.008775 -0.011240
v 0.017286 0.008774 -0.011301
v 0.017284 0.008775 -0.011302
v 0.017282 0.008776 -0.011240
v 0.017283 0.008776 -0.011302
v 0.017281 0.008776 -0.011303
v 0.017280 0.008777 -0.011240
v 0.017279 0.008777 -0.011304
v 0.017278 0.008779 -0.011240
v 0.017278 0.008778 -0.011305
v 0.017276 0.008780 -0.011306
v 0.017276 0.008780 -0.011240
v 0.017274 0.008782 -0.011240
v 0.017275 0.008781 -0.011306
v 0.017273 0.008782 -0.011307
v 0.017272 0.008784 -0.011240
v 0.017272 0.008784 -0.011308
v 0.017271 0.008785 -0.011309
v 0.017271 0.008785 -0.011240
v 0.017269 0.008787 -0.011240
v 0.017268 0.008790 -0.011240
v 0.017270 0.008787 -0.011310
v 0.017269 0.008789 -0.011310
v 0.017267 0.008792 -0.011240
v 0.017268 0.008791 -0.011311
v 0.017267 0.008793 -0.011312
v 0.017266 0.008794 -0.011240
v 0.017266 0.008795 -0.011312
v 0.017265 0.008799 -0.011240
v 0.017266 0.008796 -0.011240
v 0.017266 0.008797 -0.011312
v 0.017265 0.008799 -0.011313
v 0.017266 0.008809 -0.011312
v 0.017266 0.008811 -0.011312
v 0.017266 0.008811 -0.011240
v 0.017265 0.008801 -0.011240
v 0.017265 0.008801 -0.011313
v 0.017269 0.008817 -0.011310
v 0.017270 0.008819 -0.011310
v 0.017269 0.008818 -0.011240
v 0.017273 0.008824 -0.011307
v 0.017273 0.008824 -0.011240
v 0.017272 0.008822 -0.011240
v 0.017279 0.008829 -0.011304
v 0.017277 0.008827 -0.011240
v 0.017278 0.008827 -0.011305
v 0.017281 0.008829 -0.011240
v 0.017283 0.008830 -0.011302
v 0.017283 0.008831 -0.011240
v 0.017288 0.008832 -0.011301
v 0.017288 0.008832 -0.011240
v 0.017285 0.008831 -0.011240
v 0.017291 0.008833 -0.011300
v 0.017290 0.008833 -0.011240
v 0.017289 0.008832 -0.011300
v 0.017293 0.008833 -0.011300
v 0.017295 0.008833 -0.011240
v 0.017292 0.008833 -0.011240
v 0.017295 0.008833 -0.011300
v 0.017297 0.008833 -0.011300
v 0.017299 0.008833 -0.011300
v 0.017297 0.008833 -0.011240
v 0.017300 0.008832 -0.011300
v 0.017300 0.008833 -0.011240
v 0.017302 0.008832 -0.011301
v 0.017302 0.008832 -0.011240
v 0.017304 0.008832 -0.011301
v 0.017304 0.008831 -0.011240
v 0.017307 0.008830 -0.011302
v 0.017307 0.008831 -0.011240
v 0.017306 0.008831 -0.011302
v 0.017286 0.008832 -0.011301
v 0.017284 0.008831 -0.011302
v 0.017281 0.008830 -0.011303
v 0.017279 0.008828 -0.011240
v 0.017276 0.008826 -0.011306
v 0.017275 0.008825 -0.011240
v 0.017275 0.008825 -0.011306
v 0.017272 0.008822 -0.011308
v 0.017270 0.008820 -0.011240
v 0.017271 0.008821 -0.011309
v 0.017268 0.008816 -0.011240
v 0.017268 0.008815 -0.011311
v 0.017267 0.008813 -0.011240
v 0.017267 0.008813 -0.011312
v 0.017266 0.008809 -0.011240
v 0.017265 0.008807 -0.011313
v 0.017265 0.008806 -0.011240
v 0.017265 0.008805 -0.011313
v 0.017265 0.008804 -0.011240
v 0.017265 0.008803 -0.011313
v 0.017287 0.008872 -0.011242
v 0.017230 0.008872 -0.011242
v 0.017460 0.008872 -0.011240
v 0.017230 0.008872 -0.011242
v 0.017230 0.008872 -0.011240
v 0.017460 0.008872 -0.011240
v 0.017402 0.008872 -0.011242
v 0.017345 0.008872 -0.011242
v 0.017460 0.008872 -0.011240
v 0.017460 0.008872 -0.011242
v 0.017460 0.008872 -0.011240
v 0.017460 0.008872 -0.011240
v 0.017311 0.008829 -0.011240
v 0.017312 0.008827 -0.011240
v 0.017460 0.008872 -0.011240
v 0.017311 0.008829 -0.011240
v 0.017460 0.008872 -0.011240
v 0.017309 0.008830 -0.011240
v 0.017312 0.008827 -0.011240
v 0.017314 0.008826 -0.011240
v 0.017460 0.008872 -0.011240
v 0.017314 0.008826 -0.011240
v 0.017316 0.008825 -0.011240
v 0.017460 0.008872 -0.011240
v 0.017316 0.008825 -0.011240
v 0.017317 0.008823 -0.011240
v 0.017460 0.008872 -0.011240
v 0.017317 0.008823 -0.011240
v 0.017318 0.008822 -0.011240
v 0.017460 0.008872 -0.011240
v 0.017318 0.008822 -0.011240
v 0.017320 0.008820 -0.011240
v 0.017460 0.008872 -0.011240
v 0.017320 0.008820 -0.011240
v 0.017321 0.008819 -0.011240
v 0.017460 0.008872 -0.011240
v 0.017321 0.008819 -0.011240
v 0.017322 0.008817 -0.011240
v 0.017460 0.008872 -0.011240
v 0.017322 0.008817 -0.011240
v 0.017323 0.008815 -0.011240
v 0.017460 0.008872 -0.011240
v 0.017323 0.008815 -0.011240
v 0.017323 0.008813 -0.011240
v 0.017460 0.008872 -0.011240
v 0.017323 0.008813 -0.011240
v 0.017324 0.008811 -0.011240
v 0.017460 0.008872 -0.011240
v 0.017324 0.008811 -0.011240
v 0.017324 0.008809 -0.011240
v 0.017460 0.008872 -0.011240
v 0.017324 0.008809 -0.011240
v 0.017325 0.008807 -0.011240
v 0.017460 0.008872 -0.011240
v 0.017325 0.008807 -0.011240
v 0.017325 0.008805 -0.011240
v 0.017460 0.008872 -0.011240
v 0.017325 0.008805 -0.011240
v 0.017325 0.008803 -0.011240
v 0.017460 0.008872 -0.011240
v 0.017325 0.008803 -0.011240
v 0.017460 0.008734 -0.011240
v 0.017460 0.008872 -0.011240
v 0.017325 0.008801 -0.011240
v 0.017460 0.008734 -0.011240
v 0.017325 0.008803 -0.011240
v 0.017325 0.008798 -0.011240
v 0.017460 0.008734 -0.011240
v 0.017325 0.008801 -0.011240
v 0.017324 0.008796 -0.011240
v 0.017460 0.008734 -0.011240
v 0.017325 0.008798 -0.011240
v 0.017460 0.008734 -0.011240
v 0.017324 0.008796 -0.011240
v 0.017323 0.008793 -0.011240
v 0.017460 0.008734 -0.011240
v 0.017323 0.008793 -0.011240
v 0.017323 0.008791 -0.011240
v 0.017460 0.008734 -0.011240
v 0.017323 0.008791 -0.011240
v 0.017322 0.008789 -0.011240
v 0.017460 0.008734 -0.011240
v 0.017322 0.008789 -0.011240
v 0.017320 0.008787 -0.011240
v 0.017460 0.008734 -0.011240
v 0.017320 0.008787 -0.011240
v 0.017319 0.008785 -0.011240
v 0.017460 0.008734 -0.011240
v 0.017319 0.008785 -0.011240
v 0.017317 0.008783 -0.011240
v 0.017460 0.008734 -0.011240
v 0.017317 0.008783 -0.011240
v 0.017316 0.008781 -0.011240
v 0.017312 0.008778 -0.011240
v 0.017310 0.008777 -0.011240
v 0.017460 0.008734 -0.011240
v 0.017312 0.008778 -0.011240
v 0.017460 0.008734 -0.011240
v 0.017314 0.008780 -0.011240
v 0.017460 0.008734 -0.011240
v 0.017316 0.008781 -0.011240
v 0.017314 0.008780 -0.011240
v 0.017308 0.008776 -0.011240
v 0.017460 0.008734 -0.011240
v 0.017310 0.008777 -0.011240
v 0.017305 0.008775 -0.011240
v 0.017460 0.008734 -0.011240
v 0.017308 0.008776 -0.011240
v 0.017303 0.008774 -0.011240
v 0.017460 0.008734 -0.011240
v 0.017305 0.008775 -0.011240
v 0.017230 0.008734 -0.011240
v 0.017460 0.008734 -0.011240
v 0.017303 0.008774 -0.011240
v 0.017230 0.008734 -0.011240
v 0.017303 0.008774 -0.011240
v 0.017301 0.008774 -0.011240
v 0.017230 0.008734 -0.011240
v 0.017301 0.008774 -0.011240
v 0.017298 0.008773 -0.011240
v 0.017230 0.008734 -0.011240
v 0.017298 0.008773 -0.011240
v 0.017296 0.008773 -0.011240
v 0.017230 0.008734 -0.011240
v 0.017296 0.008773 -0.011240
v 0.017293 0.008773 -0.011240
v 0.017289 0.008774 -0.011240
v 0.017286 0.008774 -0.011240
v 0.017230 0.008734 -0.011240
v 0.017289 0.008774 -0.011240
v 0.017230 0.008734 -0.011240
v 0.017291 0.008773 -0.011240
v 0.017286 0.008774 -0.011240
v 0.017284 0.008775 -0.011240
v 0.017230 0.008734 -0.011240
v 0.017284 0.008775 -0.011240
v 0.017282 0.008776 -0.011240
v 0.017230 0.008734 -0.011240
v 0.017282 0.008776 -0.011240
v 0.017280 0.008777 -0.011240
v 0.017230 0.008734 -0.011240
v 0.017280 0.008777 -0.011240
v 0.017278 0.008779 -0.011240
v 0.017230 0.008734 -0.011240
v 0.017278 0.008779 -0.011240
v 0.017276 0.008780 -0.011240
v 0.017230 0.008734 -0.011240
v 0.017276 0.008780 -0.011240
v 0.017274 0.008782 -0.011240
v 0.017230 0.008734 -0.011240
v 0.017274 0.008782 -0.011240
v 0.017272 0.008784 -0.011240
v 0.017230 0.008734 -0.011240
v 0.017272 0.008784 -0.011240
v 0.017271 0.008785 -0.011240
v 0.017230 0.008734 -0.011240
v 0.017271 0.008785 -0.011240
v 0.017269 0.008787 -0.011240
v 0.017230 0.008734 -0.011240
v 0.017269 0.008787 -0.011240
v 0.017268 0.008790 -0.011240
v 0.017230 0.008734 -0.011240
v 0.017268 0.008790 -0.011240
v 0.017267 0.008792 -0.011240
v 0.017230 0.008734 -0.011240
v 0.017266 0.008794 -0.011240
v 0.017230 0.008734 -0.011240
v 0.017267 0.008792 -0.011240
v 0.017266 0.008796 -0.011240
v 0.017230 0.008734 -0.011240
v 0.017266 0.008794 -0.011240
v 0.017265 0.008799 -0.011240
v 0.017230 0.008734 -0.011240
v 0.017266 0.008796 -0.011240
v 0.017230 0.008734 -0.011240
v 0.017293 0.008773 -0.011240
v 0.017291 0.008773 -0.011240
v 0.017265 0.008804 -0.011240
v 0.017230 0.008734 -0.011240
v 0.017265 0.008801 -0.011240
v 0.017230 0.008872 -0.011240
v 0.017230 0.008734 -0.011240
v 0.017265 0.008804 -0.011240
v 0.017230 0.008872 -0.011240
v 0.017265 0.008804 -0.011240
v 0.017265 0.008806 -0.011240
v 0.017230 0.008872 -0.011240
v 0.017265 0.008806 -0.011240
v 0.017266 0.008809 -0.011240
v 0.017230 0.008872 -0.011240
v 0.017266 0.008809 -0.011240
v 0.017266 0.008811 -0.011240
v 0.017268 0.008816 -0.011240
v 0.017269 0.008818 -0.011240
v 0.017230 0.008872 -0.011240
v 0.017268 0.008816 -0.011240
v 0.017230 0.008872 -0.011240
v 0.017267 0.008813 -0.011240
v 0.017269 0.008818 -0.011240
v 0.017270 0.008820 -0.011240
v 0.017230 0.008872 -0.011240
v 0.017270 0.008820 -0.011240
v 0.017272 0.008822 -0.011240
v 0.017230 0.008872 -0.011240
v 0.017272 0.008822 -0.011240
v 0.017273 0.008824 -0.011240
v 0.017230 0.008872 -0.011240
v 0.017273 0.008824 -0.011240
v 0.017275 0.008825 -0.011240
v 0.017230 0.008872 -0.011240
v 0.017275 0.008825 -0.011240
v 0.017277 0.008827 -0.011240
v 0.017230 0.008872 -0.011240
v 0.017277 0.008827 -0.011240
v 0.017279 0.008828 -0.011240
v 0.017230 0.008872 -0.011240
v 0.017279 0.008828 -0.011240
v 0.017281 0.008829 -0.011240
v 0.017230 0.008872 -0.011240
v 0.017281 0.008829 -0.011240
v 0.017283 0.008831 -0.011240
v 0.017230 0.008872 -0.011240
v 0.017283 0.008831 -0.011240
v 0.017285 0.008831 -0.011240
v 0.017230 0.008872 -0.011240
v 0.017285 0.008831 -0.011240
v 0.017288 0.008832 -0.011240
v 0.017230 0.008872 -0.011240
v 0.017290 0.008833 -0.011240
v 0.017230 0.008872 -0.011240
v 0.017288 0.008832 -0.011240
v 0.017292 0.008833 -0.011240
v 0.017230 0.008872 -0.011240
v 0.017290 0.008833 -0.011240
v 0.017295 0.008833 -0.011240
v 0.017230 0.008872 -0.011240
v 0.017292 0.008833 -0.011240
v 0.017297 0.008833 -0.011240
v 0.017230 0.008872 -0.011240
v 0.017295 0.008833 -0.011240
v 0.017300 0.008833 -0.011240
v 0.017230 0.008872 -0.011240
v 0.017297 0.008833 -0.011240
v 0.017302 0.008832 -0.011240
v 0.017230 0.008872 -0.011240
v 0.017300 0.008833 -0.011240
v 0.017460 0.008872 -0.011240
v 0.017230 0.008872 -0.011240
v 0.017302 0.008832 -0.011240
v 0.017460 0.008872 -0.011240
v 0.017302 0.008832 -0.011240
v 0.017304 0.008831 -0.011240
v 0.017230 0.008872 -0.011240
v 0.017266 0.008811 -0.011240
v 0.017267 0.008813 -0.011240
v 0.017309 0.008830 -0.011240
v 0.017460 0.008872 -0.011240
v 0.017307 0.008831 -0.011240
v 0.017307 0.008831 -0.011240
v 0.017460 0.008872 -0.011240
v 0.017304 0.008831 -0.011240
v 0.017265 0.008799 -0.011240
v 0.017265 0.008801 -0.011240
v 0.017230 0.008734 -0.011240
v 0.017384 0.008854 -0.011276
v 0.017376 0.008852 -0.011279
v 0.017355 0.008853 -0.011276
v 0.017402 0.008853 -0.011277
v 0.017423 0.008846 -0.011286
v 0.017423 0.008849 -0.011282
v 0.017432 0.008845 -0.011287
v 0.017413 0.008843 -0.011290
v 0.017384 0.008845 -0.011287
v 0.017382 0.008839 -0.011294
v 0.017376 0.008834 -0.011299
v 0.017356 0.008839 -0.011294
v 0.017423 0.008838 -0.011294
v 0.017422 0.008834 -0.011299
v 0.017438 0.008841 -0.011292
v 0.017387 0.008850 -0.011281
v 0.017361 0.008849 -0.011283
v 0.017358 0.008842 -0.011290
v 0.017460 0.008843 -0.011290
v 0.017297 0.008868 -0.011252
v 0.017292 0.008866 -0.011257
v 0.017230 0.008868 -0.011251
v 0.017308 0.008867 -0.011253
v 0.017257 0.008849 -0.011282
v 0.017269 0.008853 -0.011276
v 0.017292 0.008851 -0.011280
v 0.017230 0.008849 -0.011283
v 0.017230 0.008852 -0.011279
v 0.017271 0.008846 -0.011286
v 0.017291 0.008842 -0.011291
v 0.017230 0.008843 -0.011290
v 0.017306 0.008846 -0.011285
v 0.017300 0.008852 -0.011279
v 0.017278 0.008857 -0.011271
v 0.017306 0.008855 -0.011274
v 0.017230 0.008852 -0.011279
v 0.017230 0.008854 -0.011275
v 0.017387 0.008859 -0.011269
v 0.017381 0.008862 -0.011263
v 0.017416 0.008860 -0.011266
v 0.017373 0.008857 -0.011271
v 0.017358 0.008860 -0.011266
v 0.017398 0.008864 -0.011259
v 0.017395 0.008867 -0.011254
v 0.017460 0.008866 -0.011255
v 0.017383 0.008865 -0.011258
v 0.017406 0.008857 -0.011271
v 0.017460 0.008862 -0.011263
v 0.017460 0.008859 -0.011267
v 0.017264 0.008863 -0.011261
v 0.017271 0.008860 -0.011266
v 0.017230 0.008862 -0.011263
v 0.017304 0.008862 -0.011263
v 0.017230 0.008857 -0.011271
v 0.017340 0.008857 -0.011271
v 0.017355 0.008862 -0.011263
v 0.017317 0.008858 -0.011270
v 0.017338 0.008853 -0.011277
v 0.017348 0.008852 -0.011279
v 0.017326 0.008850 -0.011281
v 0.017329 0.008846 -0.011286
v 0.017373 0.008865 -0.011257
v 0.017460 0.008864 -0.011259
v 0.017319 0.008865 -0.011257
v 0.017343 0.008866 -0.011255
v 0.017289 0.008870 -0.011247
v 0.017354 0.008867 -0.011253
v 0.017344 0.008870 -0.011247
v 0.017400 0.008870 -0.011246
v 0.017460 0.008836 -0.011297
v 0.017384 0.008830 -0.011303
v 0.017460 0.008854 -0.011275
v 0.017460 0.008852 -0.011279
v 0.017460 0.008849 -0.011283
v 0.017334 0.008841 -0.011291
v 0.017230 0.008870 -0.011247
v 0.017230 0.008868 -0.011251
v 0.017460 0.008870 -0.011247
v 0.017291 0.008836 -0.011297
v 0.017314 0.008836 -0.011297
v 0.017289 0.008832 -0.011300
v 0.017288 0.008832 -0.011301
v 0.017230 0.008849 -0.011283
v 0.017230 0.008846 -0.011286
v 0.017297 0.008833 -0.011300
v 0.017460 0.008836 -0.011297
v 0.017460 0.008840 -0.011293
v 0.017309 0.008830 -0.011303
v 0.017309 0.008830 -0.011303
v 0.017460 0.008868 -0.011251
v 0.017460 0.008866 -0.011255
v 0.017460 0.008843 -0.011290
v 0.017460 0.008840 -0.011293
v 0.017307 0.008830 -0.011302
v 0.017306 0.008831 -0.011302
v 0.017460 0.008836 -0.011297
v 0.017460 0.008833 -0.011300
v 0.017230 0.008864 -0.011259
v 0.017230 0.008866 -0.011255
v 0.017230 0.008854 -0.011275
v 0.017230 0.008857 -0.011271
v 0.017460 0.008857 -0.011271
v 0.017293 0.008833 -0.011300
v 0.017295 0.008833 -0.011300
v 0.017460 0.008846 -0.011286
v 0.017460 0.008849 -0.011283
v 0.017283 0.008830 -0.011302
v 0.017230 0.008833 -0.011300
v 0.017284 0.008831 -0.011302
v 0.017283 0.008830 -0.011302
v 0.017281 0.008830 -0.011303
v 0.017230 0.008833 -0.011300
v 0.017284 0.008831 -0.011302
v 0.017230 0.008833 -0.011300
v 0.017286 0.008832 -0.011301
v 0.017286 0.008832 -0.011301
v 0.017230 0.008833 -0.011300
v 0.017230 0.008836 -0.011297
v 0.017286 0.008832 -0.011301
v 0.017230 0.008836 -0.011297
v 0.017288 0.008832 -0.011301
v 0.017286 0.008832 -0.011301
v 0.017230 0.008836 -0.011297
v 0.017230 0.008840 -0.011293
v 0.017289 0.008832 -0.011300
v 0.017291 0.008833 -0.011300
v 0.017230 0.008843 -0.011290
v 0.017230 0.008846 -0.011286
v 0.017230 0.008852 -0.011279
v 0.017460 0.008843 -0.011290
v 0.017460 0.008846 -0.011286
v 0.017230 0.008857 -0.011271
v 0.017297 0.008833 -0.011300
v 0.017299 0.008833 -0.011300
v 0.017299 0.008833 -0.011300
v 0.017300 0.008832 -0.011300
v 0.017460 0.008833 -0.011300
v 0.017460 0.008830 -0.011303
v 0.017302 0.008832 -0.011301
v 0.017300 0.008832 -0.011300
v 0.017230 0.008840 -0.011293
v 0.017230 0.008843 -0.011290
v 0.017309 0.008830 -0.011303
v 0.017307 0.008830 -0.011302
v 0.017306 0.008831 -0.011302
v 0.017304 0.008832 -0.011301
v 0.017460 0.008830 -0.011303
v 0.017302 0.008832 -0.011301
v 0.017304 0.008832 -0.011301
v 0.017460 0.008836 -0.011297
v 0.017295 0.008833 -0.011300
v 0.017297 0.008833 -0.011300
v 0.017230 0.008859 -0.011267
v 0.017230 0.008862 -0.011263
v 0.017460 0.008854 -0.011275
v 0.017230 0.008857 -0.011271
v 0.017230 0.008859 -0.011267
v 0.017460 0.008852 -0.011279
v 0.017460 0.008854 -0.011275
v 0.017230 0.008862 -0.011263
v 0.017230 0.008864 -0.011259
v 0.017460 0.008857 -0.011271
v 0.017460 0.008859 -0.011267
v 0.017460 0.008870 -0.011247
v 0.017460 0.008868 -0.011251
v 0.017460 0.008872 -0.011242
v 0.017460 0.008870 -0.011247
v 0.017460 0.008868 -0.011251
v 0.017460 0.008864 -0.011259
v 0.017460 0.008866 -0.011255
v 0.017230 0.008870 -0.011247
v 0.017230 0.008872 -0.011242
v 0.017460 0.008864 -0.011259
v 0.017460 0.008862 -0.011263
v 0.017230 0.008870 -0.011247
v 0.017230 0.008868 -0.011251
v 0.017230 0.008866 -0.011255
v 0.017230 0.008868 -0.011251
v 0.017230 0.008866 -0.011255
v 0.017460 0.008854 -0.011275
v 0.017460 0.008857 -0.011271
v 0.017460 0.008849 -0.011283
v 0.017291 0.008833 -0.011300
v 0.017293 0.008833 -0.011300
v 0.017230 0.008840 -0.011293
v 0.017230 0.008833 -0.011300
v 0.017281 0.008830 -0.011303
v 0.017230 0.008830 -0.011303
v 0.017230 0.008846 -0.011286
v 0.017230 0.008830 -0.011303
v 0.017281 0.008830 -0.011303
v 0.017279 0.008829 -0.011304
v 0.017278 0.008827 -0.011305
v 0.017230 0.008830 -0.011303
v 0.017279 0.008829 -0.011304
v 0.017278 0.008827 -0.011305
v 0.017230 0.008827 -0.011305
v 0.017230 0.008830 -0.011303
v 0.017278 0.008827 -0.011305
v 0.017276 0.008826 -0.011306
v 0.017230 0.008827 -0.011305
v 0.017230 0.008827 -0.011305
v 0.017276 0.008826 -0.011306
v 0.017275 0.008825 -0.011306
v 0.017273 0.008824 -0.011307
v 0.017230 0.008827 -0.011305
v 0.017275 0.008825 -0.011306
v 0.017273 0.008824 -0.011307
v 0.017230 0.008824 -0.011307
v 0.017230 0.008827 -0.011305
v 0.017272 0.008822 -0.011308
v 0.017271 0.008821 -0.011309
v 0.017230 0.008824 -0.011307
v 0.017271 0.008821 -0.011309
v 0.017270 0.008819 -0.011310
v 0.017230 0.008821 -0.011309
v 0.017269 0.008817 -0.011310
v 0.017268 0.008815 -0.011311
v 0.017230 0.008817 -0.011310
v 0.017268 0.008815 -0.011311
v 0.017267 0.008813 -0.011312
v 0.017230 0.008814 -0.011312
v 0.017230 0.008814 -0.011312
v 0.017266 0.008811 -0.011312
v 0.017230 0.008810 -0.011312
v 0.017230 0.008810 -0.011312
v 0.017266 0.008811 -0.011312
v 0.017266 0.008809 -0.011312
v 0.017230 0.008807 -0.011313
v 0.017230 0.008810 -0.011312
v 0.017265 0.008807 -0.011313
v 0.017230 0.008803 -0.011313
v 0.017230 0.008807 -0.011313
v 0.017265 0.008805 -0.011313
v 0.017265 0.008801 -0.011313
v 0.017230 0.008803 -0.011313
v 0.017265 0.008803 -0.011313
v 0.017267 0.008793 -0.011312
v 0.017268 0.008791 -0.011311
v 0.017230 0.008792 -0.011312
v 0.017281 0.008776 -0.011303
v 0.017230 0.008776 -0.011303
v 0.017279 0.008777 -0.011304
v 0.017279 0.008777 -0.011304
v 0.017230 0.008776 -0.011303
v 0.017278 0.008778 -0.011305
v 0.017278 0.008778 -0.011305
v 0.017230 0.008776 -0.011303
v 0.017230 0.008779 -0.011305
v 0.017276 0.008780 -0.011306
v 0.017278 0.008778 -0.011305
v 0.017230 0.008779 -0.011305
v 0.017275 0.008781 -0.011306
v 0.017276 0.008780 -0.011306
v 0.017230 0.008779 -0.011305
v 0.017273 0.008782 -0.011307
v 0.017275 0.008781 -0.011306
v 0.017230 0.008779 -0.011305
v 0.017230 0.008782 -0.011307
v 0.017273 0.008782 -0.011307
v 0.017230 0.008779 -0.011305
v 0.017230 0.008782 -0.011307
v 0.017272 0.008784 -0.011308
v 0.017273 0.008782 -0.011307
v 0.017230 0.008782 -0.011307
v 0.017271 0.008785 -0.011309
v 0.017272 0.008784 -0.011308
v 0.017230 0.008782 -0.011307
v 0.017230 0.008785 -0.011309
v 0.017271 0.008785 -0.011309
v 0.017271 0.008785 -0.011309
v 0.017230 0.008785 -0.011309
v 0.017270 0.008787 -0.011310
v 0.017230 0.008789 -0.011310
v 0.017268 0.008791 -0.011311
v 0.017269 0.008789 -0.011310
v 0.017270 0.008787 -0.011310
v 0.017230 0.008789 -0.011310
v 0.017269 0.008789 -0.011310
v 0.017230 0.008789 -0.011310
v 0.017230 0.008792 -0.011312
v 0.017268 0.008791 -0.011311
v 0.017266 0.008795 -0.011312
v 0.017267 0.008793 -0.011312
v 0.017230 0.008792 -0.011312
v 0.017230 0.008796 -0.011312
v 0.017266 0.008795 -0.011312
v 0.017230 0.008792 -0.011312
v 0.017265 0.008799 -0.011313
v 0.017230 0.008796 -0.011312
v 0.017230 0.008799 -0.011313
v 0.017265 0.008799 -0.011313
v 0.017266 0.008797 -0.011312
v 0.017230 0.008796 -0.011312
v 0.017265 0.008801 -0.011313
v 0.017265 0.008799 -0.011313
v 0.017230 0.008799 -0.011313
v 0.017230 0.008803 -0.011313
v 0.017265 0.008801 -0.011313
v 0.017230 0.008799 -0.011313
v 0.017265 0.008805 -0.011313
v 0.017265 0.008803 -0.011313
v 0.017230 0.008803 -0.011313
v 0.017265 0.008807 -0.011313
v 0.017265 0.008805 -0.011313
v 0.017230 0.008807 -0.011313
v 0.017266 0.008809 -0.011312
v 0.017265 0.008807 -0.011313
v 0.017230 0.008810 -0.011312
v 0.017266 0.008811 -0.011312
v 0.017230 0.008814 -0.011312
v 0.017267 0.008813 -0.011312
v 0.017230 0.008814 -0.011312
v 0.017230 0.008817 -0.011310
v 0.017268 0.008815 -0.011311
v 0.017230 0.008817 -0.011310
v 0.017270 0.008819 -0.011310
v 0.017269 0.008817 -0.011310
v 0.017230 0.008817 -0.011310
v 0.017230 0.008821 -0.011309
v 0.017270 0.008819 -0.011310
v 0.017230 0.008821 -0.011309
v 0.017230 0.008824 -0.011307
v 0.017271 0.008821 -0.011309
v 0.017230 0.008824 -0.011307
v 0.017273 0.008824 -0.011307
v 0.017272 0.008822 -0.011308
v 0.017230 0.008796 -0.011312
v 0.017266 0.008797 -0.011312
v 0.017266 0.008795 -0.011312
v 0.017230 0.008789 -0.011310
v 0.017270 0.008787 -0.011310
v 0.017230 0.008785 -0.011309
v 0.017353 0.008816 -0.011311
v 0.017351 0.008818 -0.011310
v 0.017372 0.008817 -0.011311
v 0.017341 0.008815 -0.011311
v 0.017428 0.008817 -0.011310
v 0.017428 0.008820 -0.011309
v 0.017445 0.008818 -0.011310
v 0.017422 0.008816 -0.011311
v 0.017417 0.008819 -0.011310
v 0.017414 0.008814 -0.011311
v 0.017409 0.008816 -0.011311
v 0.017402 0.008819 -0.011310
v 0.017395 0.008816 -0.011311
v 0.017410 0.008822 -0.011308
v 0.017439 0.008808 -0.011313
v 0.017435 0.008805 -0.011313
v 0.017429 0.008809 -0.011313
v 0.017453 0.008810 -0.011312
v 0.017460 0.008807 -0.011313
v 0.017425 0.008791 -0.011311
v 0.017429 0.008788 -0.011310
v 0.017407 0.008790 -0.011311
v 0.017432 0.008792 -0.011311
v 0.017398 0.008785 -0.011309
v 0.017393 0.008782 -0.011307
v 0.017380 0.008784 -0.011308
v 0.017410 0.008786 -0.011309
v 0.017412 0.008783 -0.011308
v 0.017386 0.008780 -0.011306
v 0.017414 0.008780 -0.011306
v 0.017343 0.008791 -0.011311
v 0.017343 0.008794 -0.011312
v 0.017350 0.008792 -0.011312
v 0.017336 0.008787 -0.011310
v 0.017322 0.008791 -0.011311
v 0.017334 0.008785 -0.011309
v 0.017320 0.008787 -0.011310
v 0.017352 0.008789 -0.011310
v 0.017355 0.008785 -0.011309
v 0.017329 0.008813 -0.011312
v 0.017324 0.008811 -0.011312
v 0.017323 0.008813 -0.011312
v 0.017348 0.008812 -0.011312
v 0.017442 0.008815 -0.011311
v 0.017438 0.008812 -0.011312
v 0.017434 0.008816 -0.011311
v 0.017455 0.008816 -0.011311
v 0.017460 0.008814 -0.011312
v 0.017460 0.008810 -0.011312
v 0.017460 0.008807 -0.011313
v 0.017460 0.008814 -0.011312
v 0.017426 0.008813 -0.011312
v 0.017460 0.008814 -0.011312
v 0.017460 0.008810 -0.011312
v 0.017460 0.008817 -0.011310
v 0.017460 0.008814 -0.011312
v 0.017460 0.008817 -0.011310
v 0.017432 0.008780 -0.011306
v 0.017433 0.008782 -0.011307
v 0.017441 0.008782 -0.011307
v 0.017419 0.008778 -0.011304
v 0.017384 0.008776 -0.011303
v 0.017385 0.008778 -0.011304
v 0.017378 0.008778 -0.011304
v 0.017342 0.008779 -0.011305
v 0.017364 0.008781 -0.011306
v 0.017373 0.008785 -0.011309
v 0.017374 0.008788 -0.011310
v 0.017390 0.008788 -0.011310
v 0.017365 0.008784 -0.011308
v 0.017449 0.008787 -0.011309
v 0.017444 0.008784 -0.011308
v 0.017460 0.008785 -0.011309
v 0.017443 0.008790 -0.011311
v 0.017439 0.008793 -0.011312
v 0.017460 0.008792 -0.011312
v 0.017407 0.008798 -0.011313
v 0.017408 0.008801 -0.011313
v 0.017429 0.008798 -0.011313
v 0.017400 0.008796 -0.011312
v 0.017392 0.008798 -0.011313
v 0.017398 0.008793 -0.011312
v 0.017387 0.008796 -0.011312
v 0.017412 0.008796 -0.011312
v 0.017414 0.008793 -0.011312
v 0.017374 0.008791 -0.011311
v 0.017381 0.008793 -0.011312
v 0.017388 0.008789 -0.011311
v 0.017368 0.008793 -0.011312
v 0.017371 0.008796 -0.011312
v 0.017377 0.008799 -0.011313
v 0.017433 0.008822 -0.011308
v 0.017432 0.008825 -0.011307
v 0.017440 0.008822 -0.011308
v 0.017416 0.008822 -0.011308
v 0.017444 0.008780 -0.011305
v 0.017460 0.008782 -0.011307
v 0.017336 0.008797 -0.011313
v 0.017341 0.008800 -0.011313
v 0.017354 0.008798 -0.011313
v 0.017324 0.008797 -0.011312
v 0.017325 0.008799 -0.011313
v 0.017344 0.008803 -0.011313
v 0.017360 0.008802 -0.011313
v 0.017325 0.008799 -0.011313
v 0.017325 0.008801 -0.011313
v 0.017338 0.008809 -0.011313
v 0.017341 0.008806 -0.011313
v 0.017325 0.008807 -0.011313
v 0.017354 0.008808 -0.011313
v 0.017325 0.008803 -0.011313
v 0.017356 0.008805 -0.011313
v 0.017383 0.008803 -0.011313
v 0.017389 0.008806 -0.011313
v 0.017399 0.008803 -0.011313
v 0.017369 0.008803 -0.011313
v 0.017377 0.008807 -0.011313
v 0.017389 0.008800 -0.011313
v 0.017391 0.008809 -0.011313
v 0.017412 0.008807 -0.011313
v 0.017444 0.008797 -0.011313
v 0.017441 0.008801 -0.011313
v 0.017460 0.008799 -0.011313
v 0.017432 0.008795 -0.011312
v 0.017427 0.008795 -0.011312
v 0.017347 0.008783 -0.011307
v 0.017330 0.008781 -0.011306
v 0.017309 0.008776 -0.011303
v 0.017311 0.008777 -0.011304
v 0.017425 0.008785 -0.011308
v 0.017355 0.008795 -0.011312
v 0.017460 0.008821 -0.011309
v 0.017460 0.008824 -0.011307
v 0.017437 0.008828 -0.011305
v 0.017419 0.008828 -0.011304
v 0.017460 0.008830 -0.011303
v 0.017460 0.008827 -0.011305
v 0.017460 0.008830 -0.011303
v 0.017411 0.008825 -0.011306
v 0.017387 0.008826 -0.011305
v 0.017460 0.008827 -0.011305
v 0.017353 0.008822 -0.011308
v 0.017319 0.008821 -0.011309
v 0.017364 0.008824 -0.011307
v 0.017368 0.008821 -0.011309
v 0.017345 0.008825 -0.011307
v 0.017353 0.008827 -0.011305
v 0.017318 0.008822 -0.011308
v 0.017317 0.008824 -0.011307
v 0.017371 0.008810 -0.011312
v 0.017368 0.008814 -0.011312
v 0.017383 0.008814 -0.011311
v 0.017414 0.008803 -0.011313
v 0.017390 0.008813 -0.011312
v 0.017389 0.008819 -0.011310
v 0.017395 0.008823 -0.011308
v 0.017380 0.008816 -0.011311
v 0.017417 0.008811 -0.011312
v 0.017460 0.008803 -0.011313
v 0.017318 0.008784 -0.011308
v 0.017314 0.008780 -0.011306
v 0.017315 0.008781 -0.011306
v 0.017312 0.008779 -0.011305
v 0.017314 0.008780 -0.011306
v 0.017460 0.008785 -0.011309
v 0.017460 0.008782 -0.011307
v 0.017460 0.008779 -0.011305
v 0.017460 0.008776 -0.011303
v 0.017325 0.008803 -0.011313
v 0.017325 0.008805 -0.011313
v 0.017324 0.008811 -0.011312
v 0.017324 0.008809 -0.011312
v 0.017325 0.008807 -0.011313
v 0.017325 0.008805 -0.011313
v 0.017460 0.008796 -0.011312
v 0.017460 0.008799 -0.011313
v 0.017460 0.008814 -0.011312
v 0.017460 0.008807 -0.011313
v 0.017320 0.008819 -0.011310
v 0.017321 0.008817 -0.011310
v 0.017322 0.008815 -0.011311
v 0.017460 0.008821 -0.011309
v 0.017460 0.008824 -0.011307
v 0.017315 0.008825 -0.011306
v 0.017317 0.008824 -0.011307
v 0.017460 0.008779 -0.011305
v 0.017460 0.008782 -0.011307
v 0.017312 0.008779 -0.011305
v 0.017311 0.008777 -0.011304
v 0.017460 0.008789 -0.011310
v 0.017460 0.008785 -0.011309
v 0.017320 0.008787 -0.011310
v 0.017321 0.008789 -0.011310
v 0.017324 0.008795 -0.011312
v 0.017325 0.008807 -0.011313
v 0.017324 0.008809 -0.011312
v 0.017460 0.008830 -0.011303
v 0.017321 0.008817 -0.011310
v 0.017320 0.008819 -0.011310
v 0.017311 0.008829 -0.011304
v 0.017309 0.008830 -0.011303
v 0.017309 0.008830 -0.011303
v 0.017312 0.008828 -0.011305
v 0.017311 0.008829 -0.011304
v 0.017314 0.008826 -0.011306
v 0.017312 0.008828 -0.011305
v 0.017314 0.008826 -0.011306
v 0.017315 0.008825 -0.011306
v 0.017314 0.008826 -0.011306
v 0.017319 0.008821 -0.011309
v 0.017319 0.008821 -0.011309
v 0.017318 0.008822 -0.011308
v 0.017320 0.008819 -0.011310
v 0.017319 0.008821 -0.011309
v 0.017460 0.008807 -0.011313
v 0.017460 0.008803 -0.011313
v 0.017322 0.008815 -0.011311
v 0.017323 0.008813 -0.011312
v 0.017322 0.008815 -0.011311
v 0.017460 0.008799 -0.011313
v 0.017460 0.008803 -0.011313
v 0.017324 0.008811 -0.011312
v 0.017460 0.008792 -0.011312
v 0.017460 0.008796 -0.011312
v 0.017460 0.008796 -0.011312
v 0.017460 0.008789 -0.011310
v 0.017460 0.008792 -0.011312
v 0.017325 0.008803 -0.011313
v 0.017460 0.008782 -0.011307
v 0.017325 0.008799 -0.011313
v 0.017460 0.008789 -0.011310
v 0.017324 0.008797 -0.011312
v 0.017324 0.008795 -0.011312
v 0.017323 0.008793 -0.011312
v 0.017322 0.008791 -0.011311
v 0.017460 0.008776 -0.011303
v 0.017309 0.008776 -0.011303
v 0.017321 0.008789 -0.011310
v 0.017322 0.008791 -0.011311
v 0.017312 0.008779 -0.011305
v 0.017315 0.008781 -0.011306
v 0.017317 0.008782 -0.011307
v 0.017317 0.008782 -0.011307
v 0.017318 0.008784 -0.011308
v 0.017319 0.008785 -0.011309
v 0.017318 0.008784 -0.011308
v 0.017319 0.008785 -0.011309
v 0.017320 0.008787 -0.011310
v 0.017460 0.008776 -0.011303
v 0.017323 0.008793 -0.011312
v 0.017323 0.008793 -0.011312
v 0.017324 0.008795 -0.011312
v 0.017325 0.008801 -0.011313
v 0.017325 0.008803 -0.011313
v 0.017460 0.008827 -0.011305
v 0.017460 0.008824 -0.011307
v 0.017460 0.008821 -0.011309
v 0.017460 0.008817 -0.011310
v 0.017414 0.008757 -0.011283
v 0.017411 0.008761 -0.011287
v 0.017460 0.008760 -0.011286
v 0.017404 0.008756 -0.011282
v 0.017344 0.008774 -0.011301
v 0.017339 0.008770 -0.011297
v 0.017306 0.008775 -0.011302
v 0.017381 0.008770 -0.011297
v 0.017297 0.008738 -0.011252
v 0.017292 0.008740 -0.011257
v 0.017308 0.008739 -0.011253
v 0.017289 0.008736 -0.011247
v 0.017230 0.008738 -0.011251
v 0.017382 0.008757 -0.011283
v 0.017376 0.008754 -0.011279
v 0.017358 0.008757 -0.011282
v 0.017387 0.008747 -0.011269
v 0.017381 0.008744 -0.011263
v 0.017358 0.008746 -0.011266
v 0.017406 0.008749 -0.011271
v 0.017416 0.008746 -0.011266
v 0.017398 0.008742 -0.011259
v 0.017395 0.008739 -0.011254
v 0.017383 0.008741 -0.011258
v 0.017460 0.008742 -0.011259
v 0.017460 0.008749 -0.011271
v 0.017264 0.008743 -0.011261
v 0.017271 0.008746 -0.011266
v 0.017304 0.008744 -0.011263
v 0.017230 0.008742 -0.011259
v 0.017230 0.008744 -0.011263
v 0.017278 0.008749 -0.011271
v 0.017230 0.008744 -0.011263
v 0.017230 0.008747 -0.011267
v 0.017385 0.008751 -0.011274
v 0.017412 0.008753 -0.011277
v 0.017373 0.008749 -0.011271
v 0.017355 0.008753 -0.011276
v 0.017340 0.008749 -0.011271
v 0.017355 0.008744 -0.011263
v 0.017317 0.008748 -0.011270
v 0.017306 0.008751 -0.011274
v 0.017300 0.008754 -0.011279
v 0.017338 0.008753 -0.011277
v 0.017282 0.008753 -0.011277
v 0.017348 0.008754 -0.011279
v 0.017326 0.008756 -0.011281
v 0.017329 0.008760 -0.011286
v 0.017294 0.008759 -0.011285
v 0.017373 0.008741 -0.011257
v 0.017319 0.008741 -0.011257
v 0.017343 0.008740 -0.011255
v 0.017365 0.008761 -0.011287
v 0.017348 0.008761 -0.011288
v 0.017390 0.008765 -0.011292
v 0.017398 0.008768 -0.011295
v 0.017423 0.008765 -0.011292
v 0.017362 0.008766 -0.011293
v 0.017460 0.008766 -0.011293
v 0.017460 0.008763 -0.011290
v 0.017426 0.008755 -0.011279
v 0.017460 0.008752 -0.011275
v 0.017354 0.008739 -0.011253
v 0.017344 0.008736 -0.011247
v 0.017283 0.008771 -0.011298
v 0.017288 0.008774 -0.011301
v 0.017289 0.008774 -0.011300
v 0.017272 0.008765 -0.011292
v 0.017230 0.008770 -0.011297
v 0.017279 0.008761 -0.011287
v 0.017230 0.008763 -0.011290
v 0.017307 0.008769 -0.011295
v 0.017305 0.008763 -0.011290
v 0.017230 0.008752 -0.011275
v 0.017269 0.008757 -0.011282
v 0.017230 0.008754 -0.011279
v 0.017230 0.008757 -0.011283
v 0.017388 0.008771 -0.011298
v 0.017460 0.008776 -0.011303
v 0.017331 0.008765 -0.011291
v 0.017230 0.008736 -0.011247
v 0.017230 0.008738 -0.011251
v 0.017230 0.008740 -0.011255
v 0.017400 0.008736 -0.011246
v 0.017460 0.008736 -0.011247
v 0.017460 0.008738 -0.011251
v 0.017230 0.008736 -0.011247
v 0.017230 0.008734 -0.011242
v 0.017230 0.008738 -0.011251
v 0.017230 0.008736 -0.011247
v 0.017230 0.008749 -0.011271
v 0.017230 0.008752 -0.011275
v 0.017230 0.008749 -0.011271
v 0.017230 0.008747 -0.011267
v 0.017460 0.008757 -0.011283
v 0.017460 0.008749 -0.011271
v 0.017460 0.008747 -0.011267
v 0.017460 0.008740 -0.011255
v 0.017460 0.008742 -0.011259
v 0.017230 0.008760 -0.011286
v 0.017230 0.008757 -0.011283
v 0.017460 0.008770 -0.011297
v 0.017460 0.008773 -0.011300
v 0.017460 0.008752 -0.011275
v 0.017297 0.008773 -0.011300
v 0.017299 0.008773 -0.011300
v 0.017295 0.008773 -0.011300
v 0.017297 0.008773 -0.011300
v 0.017460 0.008763 -0.011290
v 0.017460 0.008760 -0.011286
v 0.017230 0.008749 -0.011271
v 0.017300 0.008774 -0.011300
v 0.017299 0.008773 -0.011300
v 0.017230 0.008760 -0.011286
v 0.017230 0.008776 -0.011303
v 0.017281 0.008776 -0.011303
v 0.017230 0.008773 -0.011300
v 0.017230 0.008773 -0.011300
v 0.017281 0.008776 -0.011303
v 0.017283 0.008776 -0.011302
v 0.017284 0.008775 -0.011302
v 0.017230 0.008773 -0.011300
v 0.017283 0.008776 -0.011302
v 0.017284 0.008775 -0.011302
v 0.017286 0.008774 -0.011301
v 0.017286 0.008774 -0.011301
v 0.017288 0.008774 -0.011301
v 0.017293 0.008773 -0.011300
v 0.017291 0.008773 -0.011300
v 0.017293 0.008773 -0.011300
v 0.017295 0.008773 -0.011300
v 0.017230 0.008770 -0.011297
v 0.017230 0.008766 -0.011293
v 0.017230 0.008763 -0.011290
v 0.017230 0.008766 -0.011293
v 0.017460 0.008752 -0.011275
v 0.017460 0.008749 -0.011271
v 0.017460 0.008747 -0.011267
v 0.017460 0.008744 -0.011263
v 0.017230 0.008752 -0.011275
v 0.017230 0.008754 -0.011279
v 0.017230 0.008740 -0.011255
v 0.017230 0.008738 -0.011251
v 0.017230 0.008742 -0.011259
v 0.017230 0.008740 -0.011255
v 0.017460 0.008736 -0.011247
v 0.017460 0.008734 -0.011242
v 0.017230 0.008744 -0.011263
v 0.017460 0.008736 -0.011247
v 0.017460 0.008738 -0.011251
v 0.017460 0.008740 -0.011255
v 0.017230 0.008754 -0.011279
v 0.017460 0.008752 -0.011275
v 0.017460 0.008754 -0.011279
v 0.017302 0.008774 -0.011301
v 0.017300 0.008774 -0.011300
v 0.017460 0.008757 -0.011283
v 0.017460 0.008760 -0.011286
v 0.017460 0.008770 -0.011297
v 0.017460 0.008773 -0.011300
v 0.017460 0.008773 -0.011300
v 0.017460 0.008776 -0.011303
v 0.017460 0.008760 -0.011286
v 0.017309 0.008776 -0.011303
v 0.017309 0.008776 -0.011303
v 0.017307 0.008776 -0.011302
v 0.017307 0.008776 -0.011302
v 0.017306 0.008775 -0.011302
v 0.017306 0.008775 -0.011302
v 0.017304 0.008774 -0.011301
v 0.017304 0.008774 -0.011301
v 0.017302 0.008774 -0.011301
v 0.017460 0.008770 -0.011297
v 0.017460 0.008766 -0.011293
v 0.017460 0.008757 -0.011283
v 0.017460 0.008754 -0.011279
v 0.017460 0.008740 -0.011255
v 0.017460 0.008738 -0.011251
v 0.017460 0.008744 -0.011263
v 0.017460 0.008742 -0.011259
v 0.017295 0.008773 -0.011300
v 0.017230 0.008760 -0.011286
v 0.017230 0.008763 -0.011290
v 0.017230 0.008770 -0.011297
v 0.017230 0.008773 -0.011300
v 0.017289 0.008774 -0.011300
v 0.017291 0.008773 -0.011300
v 0.017302 0.008774 -0.011301
v 0.017230 0.008773 -0.011300
v 0.017284 0.008775 -0.011302
vn -1.0000 -0.0000 -0.0000
vn -1.0000 -0.0002 -0.0000
vn -1.0000 -0.0001 -0.0000
vn -1.0000 0.0001 -0.0000
vn -1.0000 0.0003 -0.0000
vn 1.0000 -0.0001 -0.0000
vn 1.0000 -0.0000 -0.0000
vn 1.0000 0.0001 -0.0000
vn 1.0000 -0.0000 0.0001
vn 1.0000 -0.0000 -0.0001
vn 1.0000 -0.0002 -0.0000
vn 1.0000 0.0002 -0.0000
vn -0.0000 -1.0000 -0.0000
vn -0.0000 -1.0000 -0.0001
vn -0.9977 -0.0680 0.0002
vn -1.0000 -0.0020 -0.0000
vn -0.9897 -0.1430 -0.0000
vn -0.9974 -0.0726 -0.0000
vn -0.9771 -0.2127 -0.0000
vn -0.9908 -0.1355 -0.0000
vn -0.9793 -0.2024 -0.0000
vn -0.9597 -0.2810 -0.0000
vn -0.9633 -0.2685 0.0001
vn -0.9376 -0.3477 -0.0000
vn -0.9428 -0.3333 -0.0000
vn -0.9111 -0.4121 -0.0000
vn -0.9180 -0.3965 0.0002
vn -0.8890 -0.4579 0.0001
vn -0.8806 -0.4738 -0.0000
vn -0.8464 -0.5325 -0.0000
vn -0.8559 -0.5172 0.0002
vn -0.8090 -0.5878 -0.0000
vn -0.8188 -0.5741 -0.0000
vn -0.7779 -0.6284 -0.0002
vn -0.7685 -0.6399 -0.0000
vn -0.7250 -0.6887 -0.0000
vn -0.6787 -0.7344 -0.0000
vn -0.7334 -0.6798 -0.0000
vn -0.5227 -0.8525 -0.0000
vn -0.5240 -0.8517 -0.0000
vn -0.4650 -0.8853 -0.0000
vn -0.5806 -0.8142 -0.0001
vn -0.5775 -0.8164 -0.0000
vn -0.6345 -0.7730 -0.0002
vn -0.6295 -0.7770 -0.0000
vn -0.6856 -0.7280 -0.0003
vn -0.9976 0.0690 -0.0000
vn -0.9967 0.0811 -0.0000
vn -0.9902 0.1394 -0.0000
vn -0.9868 0.1617 -0.0000
vn -0.9779 0.2091 -0.0000
vn -0.9705 0.2412 0.0001
vn -0.9607 0.2775 -0.0000
vn -0.9389 0.3443 -0.0000
vn -0.9477 0.3191 0.0002
vn -0.9187 0.3949 0.0002
vn -0.9126 0.4089 -0.0000
vn -0.8822 0.4709 -0.0000
vn -0.8837 0.4680 0.0001
vn -0.8481 0.5299 -0.0000
vn -0.8428 0.5382 0.0001
vn -0.7964 0.6048 -0.0000
vn -0.8106 0.5856 -0.0000
vn -0.7447 0.6674 -0.0000
vn -0.6796 0.7336 -0.0000
vn -0.6882 0.7255 -0.0003
vn -0.7262 0.6874 -0.0000
vn -0.7699 0.6381 -0.0000
vn -0.6302 0.7765 -0.0000
vn -0.5779 0.8161 -0.0000
vn -0.5228 0.8524 -0.0000
vn -0.5618 0.8273 -0.0001
vn -0.6270 0.7790 -0.0001
vn -0.4650 0.8853 -0.0000
vn -0.4927 0.8702 -0.0001
vn -0.4124 0.9110 -0.0000
vn -0.4208 0.9072 0.0001
vn -0.3576 0.9339 -0.0000
vn -0.3457 0.9383 -0.0001
vn -0.3008 0.9537 -0.0000
vn -0.2684 0.9633 -0.0001
vn -0.2423 0.9702 -0.0000
vn -0.1895 0.9819 -0.0001
vn -0.1825 0.9832 -0.0000
vn -0.1220 0.9925 -0.0000
vn -0.0605 0.9982 -0.0000
vn -0.1093 0.9940 -0.0002
vn -0.0283 0.9996 -0.0003
vn 0.0008 1.0000 -0.0000
vn 0.0624 0.9981 -0.0000
vn 0.0530 0.9986 -0.0000
vn 0.1337 0.9910 0.0001
vn 0.1235 0.9923 -0.0000
vn 0.2137 0.9769 -0.0002
vn 0.1836 0.9830 -0.0000
vn 0.2922 0.9564 -0.0000
vn 0.2433 0.9700 -0.0000
vn 0.3687 0.9296 -0.0002
vn 0.3014 0.9535 -0.0000
vn 0.3579 0.9337 -0.0000
vn 0.4430 0.8965 -0.0003
vn 0.4125 0.9110 -0.0000
vn 0.4649 0.8854 -0.0000
vn 0.5142 0.8577 -0.0003
vn 0.5226 0.8526 -0.0000
vn 0.5821 0.8131 -0.0002
vn 0.5775 0.8164 -0.0000
vn 0.6295 0.7770 -0.0000
vn 0.6461 0.7633 -0.0000
vn 0.7058 0.7084 -0.0001
vn 0.6787 0.7344 -0.0000
vn 0.7250 0.6887 -0.0000
vn 0.7609 0.6488 0.0001
vn 0.7685 0.6399 -0.0000
vn 0.8090 0.5878 -0.0000
vn 0.8112 0.5848 -0.0000
vn 0.8559 0.5171 0.0001
vn 0.8949 0.4462 0.0003
vn 0.8464 0.5325 -0.0000
vn 0.8806 0.4738 -0.0000
vn 0.9282 0.3720 0.0002
vn 0.9111 0.4121 -0.0000
vn 0.9376 0.3477 -0.0000
vn 0.9553 0.2955 0.0003
vn 0.9597 0.2810 -0.0000
vn 0.9905 0.1374 0.0001
vn 0.9762 0.2171 0.0004
vn 0.9771 0.2127 -0.0000
vn 0.9897 0.1430 -0.0000
vn 0.9779 -0.2091 -0.0000
vn 0.9607 -0.2775 -0.0000
vn 0.9642 -0.2651 -0.0000
vn 0.9984 0.0565 -0.0002
vn 0.9974 0.0726 -0.0000
vn 0.8822 -0.4708 -0.0000
vn 0.8481 -0.5299 -0.0000
vn 0.8719 -0.4897 -0.0002
vn 0.7262 -0.6875 -0.0000
vn 0.7280 -0.6856 -0.0000
vn 0.7813 -0.6242 -0.0000
vn 0.5228 -0.8525 -0.0000
vn 0.6073 -0.7945 -0.0001
vn 0.5778 -0.8162 -0.0000
vn 0.4713 -0.8820 -0.0018
vn 0.4125 -0.9110 -0.0000
vn 0.3981 -0.9173 0.0002
vn 0.2433 -0.9700 -0.0000
vn 0.2447 -0.9696 -0.0000
vn 0.3226 -0.9465 -0.0000
vn 0.1235 -0.9923 -0.0000
vn 0.1652 -0.9863 -0.0002
vn 0.1839 -0.9829 -0.0000
vn 0.0624 -0.9981 -0.0000
vn 0.0035 -1.0000 -0.0003
vn 0.0846 -0.9964 -0.0003
vn 0.0010 -1.0000 -0.0000
vn -0.0606 -0.9982 -0.0000
vn -0.1218 -0.9925 -0.0000
vn -0.0776 -0.9970 -0.0000
vn -0.1825 -0.9832 -0.0000
vn -0.1582 -0.9874 -0.0002
vn -0.2424 -0.9702 -0.0000
vn -0.2378 -0.9713 0.0001
vn -0.3008 -0.9537 -0.0000
vn -0.3159 -0.9488 -0.0004
vn -0.4124 -0.9110 -0.0000
vn -0.3916 -0.9201 0.0002
vn -0.3576 -0.9339 0.0005
vn 0.3014 -0.9535 -0.0000
vn 0.3579 -0.9338 -0.0000
vn 0.4649 -0.8854 -0.0000
vn 0.5413 -0.8408 0.0003
vn 0.6301 -0.7765 -0.0000
vn 0.6699 -0.7424 0.0001
vn 0.6796 -0.7336 -0.0000
vn 0.7699 -0.6382 -0.0000
vn 0.8293 -0.5588 0.0001
vn 0.8106 -0.5857 -0.0000
vn 0.9087 -0.4174 0.0001
vn 0.9126 -0.4088 -0.0000
vn 0.9396 -0.3424 0.0001
vn 0.9389 -0.3442 -0.0000
vn 0.9825 -0.1861 -0.0000
vn 0.9902 -0.1394 -0.0000
vn 0.9944 -0.1057 -0.0002
vn 0.9976 -0.0690 -0.0000
vn 0.9997 -0.0247 -0.0000
vn 1.0000 0.0020 0.0001
vn -0.0000 1.0000 -0.0000
vn -0.0000 1.0000 -0.0001
vn -0.0000 -0.0000 1.0000
vn 0.0001 -0.0000 1.0000
vn -0.0001 -0.0000 1.0000
vn 0.0002 -0.0000 1.0000
vn -0.0000 0.8154 -0.5788
vn -0.0001 0.8016 -0.5979
vn -0.0000 0.8131 -0.5821
vn -0.0000 0.8087 -0.5882
vn -0.0000 0.7651 -0.6439
vn -0.0000 0.7879 -0.6158
vn -0.0000 0.7593 -0.6508
vn -0.0000 0.7473 -0.6645
vn -0.0000 0.7621 -0.6475
vn -0.0000 0.7216 -0.6923
vn -0.0000 0.6915 -0.7224
vn -0.0000 0.7247 -0.6890
vn -0.0000 0.7197 -0.6943
vn -0.0000 0.6901 -0.7237
vn -0.0000 0.7355 -0.6775
vn -0.0000 0.7913 -0.6115
vn -0.0000 0.7830 -0.6221
vn -0.0000 0.7435 -0.6688
vn -0.0000 0.7465 -0.6654
vn -0.0000 0.9023 -0.4311
vn -0.0000 0.8890 -0.4578
vn -0.0000 0.9062 -0.4229
vn -0.0000 0.9001 -0.4357
vn -0.0000 0.7884 -0.6151
vn -0.0003 0.8130 -0.5822
vn -0.0000 0.7951 -0.6065
vn -0.0000 0.7839 -0.6208
vn -0.0000 0.8017 -0.5977
vn 0.0001 0.7671 -0.6416
vn -0.0000 0.7391 -0.6736
vn -0.0004 0.7695 -0.6386
vn -0.0000 0.8016 -0.5978
vn -0.0000 0.8352 -0.5500
vn -0.0000 0.8243 -0.5662
vn -0.0000 0.8188 -0.5741
vn -0.0000 0.8457 -0.5337
vn -0.0001 0.8660 -0.5001
vn -0.0000 0.8559 -0.5172
vn -0.0000 0.8351 -0.5501
vn -0.0000 0.8558 -0.5172
vn -0.0000 0.8797 -0.4756
vn -0.0000 0.8978 -0.4405
vn -0.0000 0.8934 -0.4492
vn -0.0000 0.8835 -0.4684
vn -0.0000 0.8658 -0.5004
vn -0.0000 0.8508 -0.5255
vn -0.0000 0.8753 -0.4835
vn -0.0001 0.8560 -0.5170
vn -0.0001 0.8657 -0.5006
vn -0.0000 0.8658 -0.5005
vn -0.0000 0.8422 -0.5392
vn -0.0000 0.8094 -0.5873
vn -0.0000 0.7899 -0.6133
vn -0.0000 0.7654 -0.6435
vn -0.0000 0.8860 -0.4636
vn -0.0000 0.8800 -0.4750
vn -0.0000 0.8869 -0.4620
vn -0.0001 0.8936 -0.4488
vn -0.0000 0.9168 -0.3994
vn -0.0000 0.8997 -0.4366
vn -0.0000 0.9181 -0.3964
vn -0.0000 0.9194 -0.3934
vn -0.0000 0.7064 -0.7078
vn -0.0000 0.6640 -0.7477
vn -0.0001 0.7381 -0.6747
vn -0.0000 0.7023 -0.7119
vn -0.0000 0.7039 -0.7103
vn -0.0001 0.7023 -0.7119
vn -0.0000 0.6823 -0.7311
vn -0.0000 0.6798 -0.7334
vn -0.0000 0.7655 -0.6434
vn -0.0000 0.6851 -0.7284
vn -0.0000 0.7354 -0.6776
vn -0.0000 0.7268 -0.6869
vn -0.0000 0.7464 -0.6655
vn -0.0000 0.6688 -0.7434
vn -0.0000 0.6730 -0.7396
vn -0.0000 0.7065 -0.7078
vn -0.0000 0.6855 -0.7281
vn -0.0000 0.8935 -0.4491
vn -0.0000 0.8351 -0.5500
vn -0.0000 0.7592 -0.6508
vn -0.0000 0.7839 -0.6209
vn -0.0000 0.6731 -0.7396
vn -0.0000 0.6687 -0.7435
vn -0.0000 0.6640 -0.7478
vn -0.0000 0.6767 -0.7362
vn -0.0000 0.7267 -0.6869
vn -0.0001 0.6823 -0.7311
vn -0.0000 0.6841 -0.7294
vn -0.0000 0.7464 -0.6654
vn -0.0000 0.7671 -0.6416
vn -0.0000 0.6840 -0.7295
vn -0.0001 0.6855 -0.7281
vn -0.0000 0.6822 -0.7311
vn -0.0000 0.6688 -0.7435
vn -0.0000 0.6768 -0.7362
vn -0.0000 0.9293 -0.3694
vn -0.0000 0.9061 -0.4230
vn -0.0000 0.9292 -0.3695
vn -0.0000 0.8891 -0.4578
vn -0.0000 0.6395 -0.7688
vn -0.0000 0.6123 -0.7906
vn -0.0000 0.6639 -0.7478
vn -0.0000 0.6394 -0.7689
vn -0.0000 0.5935 -0.8048
vn -0.0000 0.5827 -0.8127
vn -0.0000 0.5936 -0.8048
vn -0.0000 0.5506 -0.8348
vn -0.0000 0.5160 -0.8566
vn -0.0000 0.5181 -0.8553
vn -0.0000 0.5935 -0.8049
vn -0.0000 0.4789 -0.8779
vn -0.0000 0.4394 -0.8983
vn -0.0000 0.3974 -0.9176
vn -0.0000 0.4384 -0.8988
vn -0.0000 0.3530 -0.9356
vn -0.0000 0.3065 -0.9519
vn -0.0000 0.3551 -0.9348
vn -0.0000 0.2581 -0.9661
vn -0.0000 0.2690 -0.9631
vn -0.0000 0.2688 -0.9632
vn -0.0000 0.2080 -0.9781
vn -0.0000 0.1805 -0.9836
vn -0.0000 0.1568 -0.9876
vn -0.0000 0.0906 -0.9959
vn -0.0000 0.1045 -0.9945
vn -0.0000 -0.0000 -1.0000
vn -0.0000 0.0517 -0.9987
vn -0.0000 -0.0544 -0.9985
vn -0.0000 -0.0014 -1.0000
vn -0.0000 -0.2606 -0.9654
vn -0.0000 -0.3089 -0.9511
vn -0.0000 -0.2691 -0.9631
vn -0.0000 -0.6640 -0.7477
vn -0.0000 -0.6395 -0.7688
vn -0.0000 -0.6126 -0.7904
vn -0.0000 -0.5935 -0.8048
vn -0.0000 -0.5831 -0.8124
vn -0.0000 -0.5513 -0.8343
vn -0.0000 -0.5832 -0.8124
vn -0.0000 -0.5170 -0.8560
vn -0.0000 -0.5181 -0.8553
vn -0.0000 -0.5935 -0.8049
vn -0.0000 -0.4803 -0.8771
vn -0.0000 -0.5182 -0.8553
vn -0.0000 -0.4411 -0.8975
vn -0.0000 -0.4804 -0.8771
vn -0.0000 -0.4385 -0.8987
vn -0.0000 -0.4384 -0.8988
vn -0.0000 -0.3994 -0.9168
vn -0.0000 -0.3551 -0.9348
vn -0.0000 -0.3553 -0.9347
vn -0.0000 -0.3552 -0.9348
vn -0.0000 -0.3090 -0.9511
vn -0.0000 -0.2106 -0.9776
vn -0.0000 -0.2606 -0.9655
vn -0.0000 -0.2689 -0.9632
vn -0.0000 -0.1805 -0.9836
vn -0.0001 -0.2688 -0.9632
vn -0.0000 -0.1072 -0.9942
vn -0.0000 -0.0906 -0.9959
vn -0.0000 -0.1074 -0.9942
vn -0.0000 -0.1594 -0.9872
vn -0.0000 -0.0545 -0.9985
vn -0.0000 -0.0907 -0.9959
vn -0.0000 0.0907 -0.9959
vn -0.0000 0.2081 -0.9781
vn -0.0000 0.3531 -0.9356
vn -0.0000 0.3552 -0.9348
vn -0.0000 0.3974 -0.9177
vn -0.0000 0.3214 -0.9469
vn -0.0000 0.3856 -0.9227
vn -0.0000 0.3445 -0.9388
vn -0.0000 0.3058 -0.9521
vn -0.0000 0.3615 -0.9324
vn -0.0000 0.4277 -0.9039
vn -0.0001 0.3848 -0.9230
vn -0.0000 0.3305 -0.9438
vn -0.0000 0.3911 -0.9203
vn -0.0000 0.2743 -0.9616
vn -0.0000 0.3288 -0.9444
vn -0.0001 0.4021 -0.9156
vn -0.0000 0.3201 -0.9474
vn -0.0000 0.4667 -0.8844
vn -0.0000 0.1241 -0.9923
vn -0.0000 0.0524 -0.9986
vn -0.0000 0.1532 -0.9882
vn -0.0000 0.1656 -0.9862
vn -0.0000 0.0908 -0.9959
vn -0.0000 -0.3053 -0.9523
vn -0.0000 -0.3725 -0.9280
vn -0.0000 -0.3138 -0.9495
vn -0.0000 -0.2802 -0.9599
vn -0.0000 -0.4394 -0.8983
vn -0.0000 -0.5169 -0.8561
vn -0.0000 -0.4775 -0.8786
vn -0.0000 -0.4170 -0.9089
vn -0.0000 -0.4943 -0.8693
vn -0.0000 -0.5766 -0.8170
vn -0.0000 -0.5735 -0.8192
vn -0.0000 -0.2966 -0.9550
vn -0.0000 -0.2312 -0.9729
vn -0.0000 -0.2661 -0.9639
vn -0.0000 -0.3900 -0.9208
vn -0.0000 -0.3065 -0.9519
vn -0.0000 -0.4541 -0.8910
vn -0.0000 -0.3974 -0.9176
vn -0.0000 -0.3613 -0.9324
vn -0.0000 -0.4471 -0.8945
vn -0.0000 0.2592 -0.9658
vn -0.0000 0.2106 -0.9776
vn -0.0000 0.2606 -0.9655
vn -0.0000 0.2207 -0.9753
vn -0.0000 0.2958 -0.9552
vn -0.0000 0.2250 -0.9744
vn -0.0000 0.3247 -0.9458
vn -0.0000 0.3367 -0.9416
vn -0.0000 0.2689 -0.9632
vn -0.0000 0.1657 -0.9862
vn -0.0000 0.2515 -0.9679
vn -0.0000 0.2691 -0.9631
vn -0.0000 -0.5803 -0.8144
vn -0.0000 -0.5171 -0.8559
vn -0.0000 -0.5247 -0.8513
vn -0.0000 -0.6347 -0.7728
vn -0.0000 -0.6357 -0.7719
vn -0.0000 -0.6175 -0.7865
vn -0.0000 -0.5999 -0.8001
vn -0.0000 -0.5495 -0.8355
vn -0.0000 -0.3709 -0.9287
vn -0.0000 -0.3817 -0.9243
vn -0.0000 -0.4681 -0.8837
vn -0.0000 -0.4123 -0.9110
vn -0.0000 -0.4682 -0.8836
vn -0.0000 -0.4383 -0.8988
vn -0.0000 -0.3278 -0.9447
vn -0.0000 -0.2543 -0.9671
vn -0.0000 -0.2690 -0.9631
vn -0.0000 -0.1375 -0.9905
vn -0.0000 -0.1172 -0.9931
vn -0.0000 -0.1871 -0.9823
vn 0.0001 -0.1304 -0.9915
vn -0.0000 -0.2595 -0.9657
vn -0.0000 -0.1870 -0.9824
vn -0.0000 -0.1703 -0.9854
vn -0.0000 -0.2618 -0.9651
vn -0.0000 -0.2974 -0.9547
vn -0.0000 -0.2615 -0.9652
vn -0.0000 -0.3380 -0.9412
vn -0.0000 -0.2582 -0.9661
vn -0.0000 -0.1701 -0.9854
vn -0.0000 -0.0992 -0.9951
vn -0.0000 0.4827 -0.8758
vn -0.0000 0.5463 -0.8376
vn -0.0000 0.4717 -0.8818
vn -0.0000 0.4857 -0.8741
vn -0.0000 -0.5860 -0.8103
vn 0.0002 -0.1546 -0.9880
vn -0.0001 -0.0741 -0.9973
vn -0.0000 -0.1204 -0.9927
vn -0.0000 -0.1544 -0.9880
vn -0.0000 -0.1568 -0.9876
vn -0.0000 -0.1045 -0.9945
vn -0.0000 0.0031 -1.0000
vn -0.0000 -0.0239 -0.9997
vn -0.0000 -0.0740 -0.9973
vn -0.0000 -0.0517 -0.9987
vn -0.0000 0.1535 -0.9882
vn -0.0000 0.0797 -0.9968
vn -0.0000 0.1072 -0.9942
vn -0.0000 0.1284 -0.9917
vn -0.0000 0.0014 -1.0000
vn -0.0000 0.0451 -0.9990
vn -0.0000 0.0043 -1.0000
vn -0.0000 0.0845 -0.9964
vn -0.0000 0.0044 -1.0000
vn 0.0001 0.0037 -1.0000
vn -0.0000 0.1084 -0.9941
vn -0.0000 -0.0752 -0.9972
vn -0.0000 0.1403 -0.9901
vn -0.0000 0.0992 -0.9951
vn -0.0000 -0.1427 -0.9898
vn -0.0000 -0.0519 -0.9987
vn -0.0000 -0.1947 -0.9809
vn -0.0001 -0.2115 -0.9774
vn -0.0000 -0.5089 -0.8608
vn -0.0000 -0.5559 -0.8313
vn -0.0000 -0.5999 -0.8000
vn -0.0000 -0.4624 -0.8867
vn -0.0000 -0.2036 -0.9791
vn -0.0000 0.6148 -0.7887
vn -0.0000 0.6304 -0.7763
vn -0.0000 0.5597 -0.8287
vn -0.0000 0.5836 -0.8121
vn -0.0000 0.5934 -0.8049
vn -0.0000 0.4835 -0.8753
vn -0.0000 0.4411 -0.8975
vn -0.0000 0.5221 -0.8529
vn -0.0000 0.4397 -0.8981
vn -0.0000 0.5387 -0.8425
vn -0.0000 0.6103 -0.7922
vn -0.0000 0.4803 -0.8771
vn -0.0000 0.5170 -0.8560
vn -0.0000 0.2715 -0.9624
vn -0.0000 0.2752 -0.9614
vn -0.0000 0.0033 -1.0000
vn -0.0000 0.2459 -0.9693
vn -0.0000 0.4084 -0.9128
vn -0.0000 0.4881 -0.8728
vn -0.0000 0.3192 -0.9477
vn -0.0000 0.2090 -0.9779
vn -0.0000 -0.4789 -0.8778
vn -0.0000 -0.5559 -0.8312
vn 0.0001 -0.5827 -0.8127
vn -0.0000 -0.5506 -0.8348
vn -0.0000 -0.5558 -0.8313
vn -0.0000 -0.6123 -0.7906
vn -0.0000 -0.5827 -0.8127
vn -0.0000 -0.5861 -0.8103
vn -0.0000 0.0544 -0.9985
vn -0.0000 0.2107 -0.9776
vn -0.0000 0.1594 -0.9872
vn -0.0000 0.1073 -0.9942
vn 0.0001 0.0545 -0.9985
vn -0.0000 -0.1806 -0.9836
vn -0.0000 -0.1426 -0.9898
vn -0.0000 -0.0908 -0.9959
vn -0.0000 0.3994 -0.9168
vn -0.0000 0.3553 -0.9348
vn -0.0000 0.3089 -0.9511
vn -0.0000 0.4717 -0.8817
vn -0.0000 0.5513 -0.8343
vn -0.0000 -0.6124 -0.7906
vn -0.0000 -0.6394 -0.7689
vn -0.0000 -0.3531 -0.9356
vn -0.0000 -0.2080 -0.9781
vn -0.0000 0.1595 -0.9872
vn -0.0000 0.1535 -0.9881
vn -0.0000 0.3057 -0.9521
vn -0.0000 0.6126 -0.7904
vn -0.0000 0.5832 -0.8123
vn -0.0000 0.6125 -0.7905
vn -0.0000 0.5831 -0.8124
vn -0.0001 0.5832 -0.8123
vn -0.0000 0.4804 -0.8771
vn -0.0000 0.0525 -0.9986
vn -0.0000 0.2593 -0.9658
vn -0.0000 0.2606 -0.9654
vn 0.0001 -0.1805 -0.9836
vn -0.0000 -0.1567 -0.9876
vn -0.0000 -0.1542 -0.9880
vn -0.0000 -0.2581 -0.9661
vn -0.0000 -0.3530 -0.9356
vn -0.0000 -0.5506 -0.8347
vn -0.0000 -0.5160 -0.8566
vn -0.0000 -0.4789 -0.8779
vn -0.0000 -0.6639 -0.7478
vn -0.0000 0.0013 -1.0000
vn -0.0000 0.4383 -0.8988
vn -0.0000 0.3847 -0.9230
vn -0.0000 -0.7843 -0.6204
vn -0.0000 -0.7626 -0.6469
vn -0.0000 -0.7655 -0.6434
vn -0.0000 -0.7887 -0.6148
vn -0.0000 -0.6774 -0.7356
vn -0.0000 -0.7036 -0.7106
vn -0.0000 -0.6730 -0.7396
vn -0.0000 -0.7033 -0.7109
vn -0.0000 -0.9023 -0.4310
vn -0.0000 -0.8890 -0.4578
vn -0.0000 -0.9001 -0.4356
vn -0.0000 -0.9168 -0.3993
vn -0.0000 -0.9062 -0.4229
vn -0.0000 -0.7841 -0.6207
vn -0.0000 -0.8017 -0.5977
vn -0.0000 -0.7876 -0.6162
vn -0.0002 -0.8457 -0.5337
vn -0.0001 -0.8660 -0.5001
vn -0.0000 -0.8558 -0.5172
vn -0.0000 -0.8351 -0.5500
vn -0.0000 -0.8559 -0.5172
vn -0.0000 -0.8796 -0.4756
vn -0.0000 -0.8978 -0.4405
vn -0.0000 -0.8835 -0.4684
vn -0.0000 -0.8800 -0.4750
vn -0.0000 -0.8352 -0.5500
vn -0.0000 -0.8753 -0.4835
vn 0.0001 -0.8558 -0.5174
vn -0.0001 -0.8657 -0.5006
vn -0.0000 -0.8658 -0.5004
vn 0.0001 -0.8352 -0.5500
vn -0.0000 -0.8508 -0.5255
vn -0.0001 -0.8243 -0.5661
vn -0.0000 -0.8087 -0.5883
vn -0.0001 -0.8351 -0.5501
vn -0.0000 -0.8131 -0.5821
vn -0.0000 -0.8351 -0.5501
vn -0.0000 -0.8658 -0.5005
vn -0.0000 -0.8422 -0.5392
vn -0.0000 -0.8243 -0.5662
vn -0.0000 -0.8016 -0.5978
vn -0.0000 -0.8094 -0.5873
vn -0.0000 -0.8089 -0.5879
vn -0.0000 -0.8017 -0.5978
vn -0.0000 -0.7899 -0.6133
vn -0.0000 -0.7654 -0.6435
vn -0.0000 -0.7705 -0.6374
vn -0.0000 -0.8860 -0.4636
vn -0.0000 -0.8869 -0.4620
vn -0.0001 -0.8936 -0.4489
vn -0.0000 -0.7610 -0.6487
vn -0.0000 -0.7583 -0.6519
vn -0.0001 -0.7360 -0.6770
vn -0.0000 -0.7175 -0.6966
vn -0.0000 -0.7359 -0.6771
vn -0.0000 -0.7269 -0.6868
vn -0.0000 -0.7267 -0.6869
vn -0.0000 -0.7464 -0.6654
vn -0.0000 -0.8008 -0.5990
vn -0.0000 -0.8188 -0.5741
vn -0.0000 -0.8997 -0.4366
vn -0.0000 -0.9181 -0.3964
vn -0.0000 -0.6991 -0.7150
vn -0.0000 -0.6798 -0.7334
vn -0.0000 -0.6822 -0.7311
vn -0.0000 -0.7340 -0.6791
vn -0.0000 -0.7065 -0.7077
vn -0.0000 -0.7613 -0.6484
vn -0.0000 -0.7131 -0.7011
vn -0.0000 -0.7471 -0.6647
vn -0.0000 -0.7886 -0.6150
vn -0.0000 -0.7839 -0.6208
vn -0.0000 -0.6952 -0.7188
vn -0.0000 -0.7367 -0.6762
vn -0.0000 -0.8891 -0.4578
vn -0.0000 -0.9061 -0.4230
vn -0.0000 -0.8934 -0.4492
vn -0.0000 -0.9194 -0.3934
vn -0.0000 -0.9293 -0.3694
vn -0.0000 -0.9168 -0.3994
vn -0.0000 -0.7840 -0.6207
vn -0.0000 -0.7885 -0.6150
vn -0.0000 -0.7064 -0.7078
vn -0.0000 -0.6855 -0.7281
vn -0.0000 -0.7131 -0.7010
vn -0.0000 -0.6851 -0.7284
vn -0.0000 -0.6840 -0.7295
vn -0.0000 -0.7465 -0.6654
vn -0.0000 -0.6640 -0.7478
vn -0.0000 -0.6687 -0.7435
vn -0.0000 -0.6689 -0.7434
vn -0.0000 -0.6767 -0.7362
vn -0.0000 -0.7341 -0.6791
vn -0.0000 -0.8090 -0.5879
vn -0.0000 -0.8935 -0.4491
vn -0.0000 -0.8008 -0.5989
vn -0.0000 -0.7839 -0.6209
vn -0.0000 -0.6774 -0.7357
vn -0.0000 -0.6688 -0.7435
vn -0.0000 -0.6688 -0.7434
vn -0.0000 -0.6731 -0.7395
vn -0.0000 -0.6731 -0.7396
vn -0.0000 -0.7035 -0.7107
vn -0.0000 -0.7065 -0.7078
vn -0.0000 -0.8559 -0.5171
s 1
usemtl Diffuse_51_51_51_100.020
f 1//1 2//1 3//1
f 1//1 3//1 4//1
f 1//1 4//1 5//1
f 1//1 5//1 6//2
f 7//1 1//1 8//1
f 1//1 6//2 8//1
f 9//1 1//1 7//1
f 10//1 1//1 9//1
f 10//1 11//1 1//1
f 11//1 12//1 1//1
f 12//1 13//1 1//1
f 13//1 14//3 1//1
f 14//3 15//1 1//1
s 0
f 1//3 16//1 17//1
s 1
f 18//1 2//1 1//1
f 19//1 2//1 18//1
f 19//1 18//1 20//1
f 19//1 20//1 21//1
f 20//1 22//1 21//1
f 22//1 23//1 21//1
f 24//1 23//1 22//1
f 25//1 23//1 24//1
f 25//1 24//1 26//1
f 25//1 26//1 27//1
f 26//1 28//1 27//1
f 28//1 29//1 27//1
f 30//1 29//1 28//1
f 31//1 29//1 30//1
f 32//1 31//1 33//1
f 31//1 30//1 33//1
f 32//1 33//1 34//1
f 35//1 36//1 37//1
f 36//1 38//1 37//1
f 39//1 40//4 41//1
f 40//4 42//1 41//1
f 42//1 43//5 41//1
f 43//5 44//4 41//1
f 45//1 44//4 46//4
f 47//4 44//4 45//1
f 43//5 46//4 44//4
f 48//1 46//4 43//5
f 49//1 46//4 48//1
f 50//1 49//1 48//1
f 47//4 51//1 44//4
f 49//1 50//1 35//1
f 50//1 36//1 35//1
f 38//1 32//1 34//1
f 38//1 34//1 37//1
s 0
f 16//1 1//1 15//4
s 1
f 52//6 53//7 54//7
f 52//6 54//7 55//7
f 52//6 55//7 56//8
f 52//6 56//8 57//6
f 58//7 59//7 57//6
f 60//7 61//7 59//7
f 62//7 61//7 60//7
f 63//7 64//7 62//7
f 65//7 64//7 63//7
f 66//7 65//7 67//7
f 66//7 67//7 68//7
f 69//7 68//7 70//7
f 71//7 70//7 72//7
f 71//7 72//7 73//7
f 74//7 75//7 76//7
f 77//7 74//7 78//7
f 77//7 78//7 79//7
f 80//7 81//7 82//7
f 81//7 79//7 82//7
f 83//7 82//7 84//8
s 0
f 82//7 85//9 86//6
f 82//7 86//7 87//10
s 1
f 88//11 82//7 89//7
f 88//11 90//7 82//7
f 90//7 91//7 82//7
f 82//7 92//7 93//11
f 82//7 93//11 94//7
f 82//7 94//7 95//12
f 82//7 95//12 96//7
f 84//8 82//7 97//7
f 82//7 96//7 97//7
f 91//7 92//7 82//7
f 89//7 82//7 87//7
f 83//7 80//7 82//7
f 79//7 81//7 77//7
f 76//7 78//7 74//7
f 98//7 76//7 75//7
f 98//7 75//7 73//7
f 98//7 73//7 72//7
f 70//7 71//7 69//7
f 68//7 69//7 66//7
f 63//7 67//7 65//7
f 60//7 59//7 58//7
f 61//7 62//7 64//7
f 99//12 57//6 100//7
f 101//7 99//12 102//7
f 58//7 57//6 56//8
f 57//6 99//12 52//6
f 100//7 102//7 99//12
f 103//13 104//13 105//13
f 106//13 107//13 108//13
f 109//13 110//13 111//14
f 105//14 112//13 109//13
f 111//13 113//13 114//13
f 115//15 116//16 117//1
f 118//17 119//18 115//15
f 120//19 118//17 121//20
f 120//19 121//20 122//21
f 123//22 122//21 124//23
f 123//22 124//23 125//24
f 125//24 126//25 127//26
f 126//25 128//27 127//26
f 128//27 129//28 130//29
f 129//28 131//30 130//29
f 132//31 133//32 131//30
f 134//33 133//32 132//31
f 135//34 136//35 134//33
f 137//36 136//35 135//34
f 138//37 137//36 139//38
f 140//39 141//40 142//41
f 141//40 143//41 142//41
f 144//42 141//40 140//39
f 144//42 140//39 145//43
f 144//42 145//43 146//44
f 146//44 145//43 147//45
f 146//44 147//45 148//46
f 147//45 138//37 148//46
f 138//37 139//38 148//46
f 137//36 135//34 139//38
f 136//35 133//32 134//33
f 132//31 131//30 129//28
f 128//27 130//29 127//26
f 123//22 120//19 122//21
f 124//23 126//25 125//24
f 116//16 115//15 119//18
f 149//47 117//1 116//16
f 150//48 117//1 149//47
f 151//49 150//48 149//47
f 152//50 150//48 151//49
f 152//50 153//51 154//52
f 153//51 155//53 154//52
f 156//54 157//55 155//53
f 158//56 156//54 159//57
f 158//56 160//58 161//59
f 162//60 163//61 161//59
f 164//62 163//61 165//63
f 166//64 167//65 168//66
f 169//67 166//64 170//68
f 167//65 171//69 168//66
f 172//70 173//71 174//72
f 172//70 174//72 175//73
f 173//71 176//74 177//75
f 176//74 178//76 177//75
f 178//76 179//77 177//75
f 180//78 181//79 179//77
f 181//79 180//78 182//80
f 181//79 182//80 183//81
f 183//81 184//82 185//83
f 184//82 186//84 185//83
f 186//84 187//85 185//83
f 187//85 188//86 189//87
f 188//86 190//88 189//87
f 191//89 190//88 188//86
f 192//90 193//91 191//89
f 194//92 193//91 192//90
f 194//92 192//90 195//93
f 166//64 164//62 170//68
f 196//94 194//92 197//95
f 165//63 163//61 162//60
f 198//96 196//94 199//97
f 196//94 197//95 199//97
f 200//98 198//96 201//99
f 161//59 160//58 162//60
f 200//98 201//99 202//100
f 160//58 158//56 159//57
f 203//101 200//98 204//102
f 156//54 158//56 157//55
f 203//101 204//102 205//103
f 154//52 155//53 157//55
f 203//101 205//103 206//104
f 153//51 152//50 151//49
f 175//73 168//66 171//69
f 207//105 208//106 206//104
f 207//105 209//107 208//106
f 209//107 210//108 211//109
f 210//108 212//110 211//109
f 213//111 212//110 210//108
f 214//112 215//113 212//110
f 216//114 215//113 214//112
f 217//115 218//116 216//114
f 219//117 218//116 217//115
f 220//118 219//117 221//119
f 220//118 221//119 222//120
f 223//121 220//118 224//122
f 223//121 224//122 225//123
f 226//124 225//123 227//125
f 228//126 229//127 230//128
f 228//126 230//128 231//129
f 232//130 233//131 234//132
f 235//133 228//126 236//134
f 237//135 238//136 239//137
f 240//138 241//139 242//140
f 243//141 244//142 245//143
f 246//144 247//145 248//146
f 249//147 250//148 251//149
f 252//150 253//151 254//152
f 255//153 256//154 257//155
f 258//156 259//157 256//154
f 259//157 260//158 261//159
f 260//158 262//160 263//161
f 262//160 264//162 265//163
f 264//162 266//164 267//165
f 198//96 199//97 201//99
f 197//95 194//92 195//93
f 143//41 268//166 142//41
f 269//167 268//166 143//41
f 270//168 268//166 269//167
f 270//168 269//167 267//165
f 264//162 267//165 265//163
f 262//160 265//163 263//161
f 260//158 263//161 261//159
f 259//157 261//159 256//154
f 258//156 256//154 255//153
f 255//153 257//155 252//150
f 257//155 253//151 252//150
f 253//151 250//148 254//152
f 250//148 249//147 254//152
f 251//149 271//169 249//147
f 272//170 271//169 251//149
f 272//170 251//149 248//146
f 272//170 248//146 247//145
f 247//145 246//144 273//171
f 246//144 274//172 273//171
f 274//172 243//141 273//171
f 244//142 243//141 274//172
f 275//173 245//143 244//142
f 275//173 244//142 276//174
f 275//173 276//174 277//175
f 276//174 241//139 277//175
f 241//139 240//138 277//175
f 242//140 278//176 240//138
f 279//177 278//176 242//140
f 280//178 278//176 279//177
f 280//178 279//177 238//136
f 279//177 239//137 238//136
f 239//137 281//179 237//135
f 281//179 282//180 237//135
f 283//181 282//180 281//179
f 284//182 282//180 283//181
f 284//182 283//181 234//132
f 284//182 234//132 233//131
f 234//132 285//183 232//130
f 285//183 286//184 232//130
f 287//185 286//184 285//183
f 288//186 286//184 287//185
f 288//186 287//185 289//187
f 288//186 289//187 290//188
f 289//187 235//133 290//188
f 235//133 236//134 290//188
f 226//124 227//125 229//127
f 231//129 236//134 228//126
f 227//125 230//128 229//127
f 223//121 225//123 226//124
f 220//118 222//120 224//122
f 219//117 217//115 221//119
f 218//116 215//113 216//114
f 214//112 212//110 213//111
f 209//107 211//109 208//106
f 205//103 207//105 206//104
f 200//98 202//100 204//102
f 270//168 267//165 266//164
f 190//88 191//89 193//91
f 189//87 185//83 187//85
f 184//82 183//81 182//80
f 178//76 180//78 179//77
f 174//72 173//71 177//75
f 175//73 171//69 172//70
f 167//65 166//64 169//67
f 121//20 118//17 115//15
f 165//63 170//68 164//62
f 291//189 292//189 293//189
f 294//189 295//189 296//189
f 297//190 298//189 299//189
f 300//189 297//189 301//189
f 298//189 291//190 302//189
f 303//191 304//191 305//191
f 306//191 307//191 308//191
f 309//191 310//191 311//191
f 312//191 313//191 314//191
f 315//191 316//191 317//191
f 318//191 319//191 320//191
f 321//191 322//191 323//191
f 324//191 325//191 326//191
f 327//191 328//191 329//191
f 330//191 331//191 332//191
f 333//192 334//192 335//192
f 336//191 337//191 338//191
f 339//191 340//191 341//191
f 342//193 343//193 344//193
f 345//191 346//191 347//191
f 348//191 349//191 350//191
f 351//191 352//191 353//191
f 354//191 355//191 356//191
f 357//191 358//191 359//191
f 360//191 361//191 362//191
f 363//191 364//191 365//191
f 366//194 367//194 368//194
f 369//193 370//193 371//193
f 372//193 373//193 374//193
f 375//193 376//193 377//193
f 378//193 379//193 380//193
f 381//193 382//193 383//193
f 384//191 385//191 386//191
f 387//191 388//191 389//191
f 390//192 391//192 392//192
f 393//191 394//191 395//191
f 396//194 397//194 398//194
f 399//191 400//191 401//191
f 402//191 403//191 404//191
f 405//191 406//191 407//191
f 408//191 409//191 410//191
f 411//191 412//191 413//191
f 414//191 415//191 416//191
f 417//191 418//191 419//191
f 420//191 421//191 422//191
f 423//191 424//191 425//191
f 426//192 427//192 428//192
f 429//191 430//191 431//191
f 432//191 433//191 434//191
f 435//191 436//191 437//191
f 438//191 439//191 440//191
f 441//191 442//191 443//191
f 444//191 445//191 446//191
f 447//191 448//191 449//191
f 450//191 451//191 452//191
f 453//191 454//191 455//191
f 456//192 457//192 458//192
f 459//191 460//191 461//191
f 462//191 463//191 464//191
f 465//191 466//191 467//191
f 468//191 469//191 470//191
f 471//191 472//191 473//191
f 474//191 475//191 476//191
f 477//191 478//191 479//191
f 480//191 481//191 482//191
f 483//191 484//191 485//191
f 486//191 487//191 488//191
f 489//191 490//191 491//191
f 492//191 493//191 494//191
f 495//191 496//191 497//191
f 498//192 499//192 500//192
f 501//191 502//191 503//191
f 504//192 505//192 506//192
f 507//191 508//191 509//191
f 510//191 511//191 512//191
f 513//191 514//191 515//191
f 516//191 517//191 518//191
f 519//193 520//193 521//193
f 522//191 523//191 524//191
f 525//191 526//191 527//191
f 528//191 529//191 530//191
f 531//191 532//191 533//191
f 534//191 535//191 536//191
f 537//191 538//191 539//191
f 540//193 541//193 542//193
f 543//193 544//193 545//193
f 546//194 547//194 548//194
f 549//191 550//191 551//191
f 552//191 553//191 554//191
f 555//195 556//196 557//197
f 555//195 558//198 556//196
f 559//199 560//200 561//201
f 559//199 562//202 563//203
f 564//204 565//205 566//206
f 564//204 562//202 567//207
f 564//204 567//207 568//208
f 562//202 561//201 569//209
f 570//210 563//203 571//211
f 570//210 558//198 560//200
f 570//210 571//211 556//196
f 563//203 572//212 571//211
f 569//209 561//201 573//213
f 569//209 567//207 562//202
f 574//214 575//215 576//216
f 574//214 577//217 575//215
f 578//218 579//219 580//220
f 578//218 581//221 582//222
f 583//223 584//224 585//213
f 583//223 580//220 586//225
f 580//220 587//226 586//225
f 580//220 579//219 587//226
f 579//219 588//227 589//228
f 579//197 590//222 591//229
f 592//230 593//231 594//232
f 592//230 595//233 596//234
f 597//235 598//236 599//237
f 597//235 600//238 598//236
f 594//232 601//233 592//230
f 594//232 602//239 603//240
f 604//241 605//242 606//239
f 604//241 575//215 607//243
f 605//242 588//227 608//227
f 605//242 607//243 588//227
f 592//230 596//234 593//231
f 595//233 557//197 609//233
f 596//234 610//244 593//231
f 596//234 609//233 611//245
f 611//245 589//228 588//227
f 611//245 609//233 589//228
f 589//228 587//226 579//219
f 589//228 609//233 612//246
f 557//197 613//222 612//246
f 557//197 556//196 613//222
f 612//246 609//233 557//197
f 612//246 614//247 587//226
f 614//247 615//248 586//225
f 614//247 613//222 571//211
f 600//238 593//231 616//249
f 594//232 597//235 617//250
f 618//251 577//217 619//252
f 618//251 607//243 575//215
f 577//217 574//214 620//253
f 618//251 619//252 610//244
f 621//254 622//255 623//256
f 621//254 619//252 622//255
f 616//249 593//231 610//244
f 616//249 598//236 600//238
f 568//208 567//207 624//257
f 568//208 625//258 565//205
f 558//198 601//233 626//229
f 601//233 555//195 595//233
f 559//199 561//201 562//202
f 560//200 627//222 628//221
f 562//202 564//204 563//203
f 566//206 629//259 572//212
f 291//190 620//253 630//255
f 291//190 298//189 620//253
f 620//253 574//214 631//216
f 620//253 298//189 622//255
f 604//241 607//243 605//242
f 575//215 577//217 618//251
f 297//190 623//256 298//189
f 623//256 598//236 621//254
f 623//256 297//190 632//255
f 633//260 584//224 634//261
f 633//262 635//263 636//264
f 629//259 615//248 572//212
f 629//259 634//261 584//224
f 586//225 587//226 614//247
f 637//221 578//218 638//265
f 633//260 634//261 639//266
f 584//224 586//225 629//259
f 640//257 569//267 641//268
f 572//212 564//204 566//206
f 571//211 572//212 615//248
f 570//210 556//196 558//198
f 568//208 565//205 564//204
f 625//258 642//258 565//205
f 563//203 564//204 572//212
f 565//205 643//258 634//261
f 571//211 615//248 614//247
f 566//206 565//205 634//261
f 621//254 616//249 619//252
f 598//236 644//216 645//237
f 577//217 622//255 619//252
f 620//253 622//255 577//217
f 610//244 619//252 616//249
f 610//244 596//234 611//245
f 584//224 583//223 586//225
f 611//245 607//243 610//244
f 588//227 607//243 611//245
f 607//243 618//251 610//244
f 597//235 593//231 600//238
f 595//233 555//195 557//197
f 598//236 616//249 621//254
f 592//230 601//233 595//233
f 595//233 609//233 596//234
f 589//228 612//246 587//226
f 586//225 615//248 629//259
f 614//247 612//246 613//222
f 569//267 646//269 647//268
f 560//200 559//199 570//210
f 601//233 558//198 555//195
f 556//196 571//211 613//222
f 634//261 648//270 649//271
f 650//272 651//273 568//208
f 652//250 653//274 604//241
f 623//256 622//255 298//189
f 654//229 655//275 579//197
f 656//275 601//233 594//232
f 657//266 633//260 658//273
f 659//265 561//276 660//277
f 661//270 662//273 663//278
f 664//279 665//280 666//273
f 667//271 668//273 669//281
f 670//281 671//273 672//257
f 633//260 673//281 674//257
f 633//260 675//264 676//281
f 677//257 678//282 633//260
f 679//283 633//260 680//284
f 681//285 682//265 583//286
f 683//222 579//219 578//218
f 583//223 578//218 580//220
f 684//213 561//276 685//265
f 588//227 579//219 686//227
f 563//203 570//210 559//199
f 687//266 634//261 688//287
f 689//287 634//261 690//263
f 691//288 692//258 568//208
f 693//264 694//289 634//261
f 695//282 696//213 584//224
f 629//259 566//206 634//261
f 634//261 697//258 698//290
f 699//271 700//281 634//261
f 568//208 701//258 625//258
f 702//264 634//261 703//291
f 704//257 567//207 569//209
f 705//273 633//260 706//266
f 707//240 708//239 605//232
f 558//198 709//229 560//200
f 710//227 711//240 605//232
f 712//222 560//200 713//229
f 604//241 714//239 715//250
f 716//227 594//232 717//240
f 718//255 719//216 623//256
f 720//292 721//255 297//189
f 623//256 722//293 598//236
f 723//250 597//235 724//237
f 291//190 725//255 726//294
f 727//250 728//239 594//232
f 729//255 620//253 730//293
f 593//231 597//235 594//232
f 731//237 732//293 575//295
f 604//241 733//237 575//215
f 734//229 601//233 735//227
f 736//277 561//201 560//200
f 737//284 633//260 738//266
f 633//260 739//268 584//224
f 740//273 741//258 742//258
f 578//218 583//223 743//265
f 744//258 745//258 746//296
f 747//297 748//298 749//299
f 750//297 751//300 752//258
f 753//297 754//301 755//302
f 756//300 757//301 758//303
f 759//304 760//300 761//303
f 762//304 763//305 764//306
f 765//307 766//308 767//305
f 768//308 769//309 770//310
f 771//311 772//312 773//313
f 774//312 775//314 776//315
f 777//316 778//317 779//318
f 780//318 781//317 782//319
f 783//320 784//318 785//321
f 786//322 787//320 788//323
f 789//324 790//322 791//325
f 792//326 793//327 794//328
f 795//329 796//329 797//330
f 798//330 799//329 800//331
f 801//331 802//329 803//332
f 804//333 805//331 806//332
f 807//334 808//335 809//332
f 810//336 811//334 812//332
f 813//337 814//336 815//338
f 816//337 817//339 818//336
f 819//340 820//341 821//342
f 822//337 823//343 824//341
f 825//341 826//344 827//345
f 828//346 829//327 830//347
f 831//345 832//346 833//348
f 834//348 835//328 836//349
f 837//350 838//351 839//352
f 840//353 841//350 842//354
f 843//355 844//353 845//356
f 846//357 847//358 848//353
f 849//359 850//355 851//356
f 852//322 853//324 854//360
f 855//323 856//325 857//322
f 858//321 859//323 860//361
f 861//319 862//321 863//318
f 864//362 865//316 866//314
f 867//315 868//313 869//312
f 870//313 871//309 872//363
f 873//364 874//310 875//365
f 876//310 877//305 878//308
f 879//305 880//304 881//307
f 882//353 883//358 884//350
f 885//348 886//345 887//344
f 888//366 889//367 890//368
f 888//366 891//369 889//367
f 892//370 893//371 894//372
f 892//370 895//373 896//374
f 892//370 896//374 893//371
f 895//373 897//375 898//376
f 899//377 898//376 900//378
f 899//377 901//379 896//374
f 898//376 897//375 900//378
f 898//376 896//374 895//373
f 902//380 903//381 904//382
f 902//380 905//383 906//384
f 907//385 908//386 909//387
f 907//385 910//388 908//386
f 911//389 912//390 913//391
f 911//389 914//392 915//393
f 912//390 916//394 913//391
f 912//390 915//393 917//395
f 918//396 919//397 920//398
f 918//396 921//399 922//400
f 921//399 923//401 924//402
f 921//399 925//403 926//404
f 927//405 928//406 929//407
f 927//405 891//369 930//408
f 931//409 932//410 933//411
f 931//409 934//412 935//413
f 905//414 936//318 937//320
f 905//383 932//410 938//413
f 932//410 904//382 939//415
f 905//414 940//316 941//318
f 934//412 942//364 943//416
f 934//412 894//372 944//313
f 945//417 946//418 947//419
f 945//417 948//420 917//395
f 945//417 917//395 946//418
f 948//420 949//329 950//421
f 951//422 949//329 952//423
f 951//422 950//421 949//329
f 917//395 915//393 946//418
f 917//395 950//421 916//394
f 948//420 950//421 917//395
f 917//395 916//394 912//390
f 953//424 951//422 952//423
f 954//389 955//425 956//426
f 954//389 957//427 926//404
f 958//428 959//429 908//386
f 958//428 960//430 959//429
f 961//431 962//432 963//433
f 961//431 908//386 910//388
f 964//434 965//359 966//435
f 964//434 967//436 968//437
f 967//436 969//438 970//439
f 967//436 971//440 972//441
f 973//442 955//425 925//403
f 973//442 974//443 975//444
f 974//443 970//439 969//438
f 974//443 976//445 977//446
f 970//439 968//437 967//436
f 970//439 977//446 978//447
f 979//448 980//449 981//450
f 979//448 893//371 982//451
f 947//419 983//452 945//417
f 947//419 959//429 984//337
f 985//453 986//454 987//455
f 985//456 988//457 989//458
f 986//454 990//459 991//460
f 986//461 992//458 993//462
f 994//463 995//464 996//465
f 994//463 930//408 997//466
f 995//464 990//459 998//467
f 995//464 997//466 999//468
f 1000//469 1001//470 1002//471
f 1000//469 1003//472 1004//473
f 1005//474 968//437 978//447
f 1005//474 1002//471 965//359
f 1001//470 1006//475 1007//476
f 1001//470 1004//473 1006//475
f 1008//477 1009//478 1010//356
f 1008//477 1011//479 966//435
f 1008//477 966//435 1009//478
f 1011//479 1012//480 966//435
f 975//444 956//426 955//425
f 975//444 969//438 909//387
f 991//460 999//468 1003//472
f 991//460 987//455 986//454
f 999//468 997//466 1004//473
f 999//468 990//459 995//464
f 953//424 957//427 913//391
f 953//424 952//423 1013//481
f 926//404 925//403 955//425
f 926//404 1013//481 923//401
f 1013//481 952//423 1014//482
f 1013//481 957//427 953//424
f 1013//481 1014//482 923//401
f 952//483 1015//329 1016//330
f 1017//484 908//386 959//429
f 1017//484 915//393 914//392
f 945//417 983//452 948//420
f 946//418 959//429 947//419
f 918//396 925//403 921//399
f 920//398 1018//485 976//445
f 1018//485 987//455 977//446
f 1018//485 919//397 985//453
f 894//372 981//450 1019//310
f 894//372 933//411 892//370
f 981//450 980//449 1020//305
f 981//450 893//371 979//448
f 909//387 914//392 956//426
f 909//387 972//441 907//385
f 911//389 915//393 912//390
f 914//392 908//386 1017//484
f 1021//486 980//449 1022//487
f 1021//486 1023//258 1024//300
f 1021//486 1022//487 1025//258
f 980//449 982//451 1026//488
f 1022//487 1026//488 1027//489
f 980//449 1021//486 1028//490
f 1029//491 889//367 1030//492
f 1029//491 1031//493 1032//494
f 1033//495 1034//496 1031//493
f 1033//495 1035//497 1036//498
f 978//447 977//446 987//455
f 978//447 968//437 970//439
f 977//446 976//445 1018//485
f 975//444 974//443 969//438
f 980//449 1026//488 1022//487
f 982//451 901//379 1026//488
f 1004//473 1037//318 1006//475
f 1004//473 1003//472 999//468
f 1037//318 1038//499 1039//500
f 1037//318 997//466 930//408
f 964//434 971//440 967//436
f 965//359 1040//501 966//435
f 967//436 972//441 969//438
f 971//440 966//435 1012//480
f 1041//502 1006//475 1037//318
f 1041//502 900//378 897//375
f 899//377 1042//503 1043//504
f 900//378 1039//500 1044//505
f 890//368 1032//494 1042//503
f 890//368 1038//499 888//366
f 1032//494 1031//493 1043//504
f 1032//494 889//367 1029//491
f 1012//480 907//385 972//441
f 910//388 962//432 961//431
f 1012//480 1011//479 962//432
f 1012//480 972//441 971//440
f 1044//505 1039//500 1038//499
f 1044//505 1042//503 900//378
f 1045//506 897//375 939//415
f 1045//506 1007//476 1006//475
f 1007//476 1040//501 1002//471
f 1007//476 904//382 903//381
f 927//405 930//408 994//463
f 930//408 888//366 1038//499
f 994//463 997//466 995//464
f 930//408 1038//499 1037//318
f 1009//478 903//381 1046//322
f 1009//478 966//435 1040//501
f 902//380 904//382 932//410
f 903//381 1040//501 1007//476
f 923//401 1014//482 1047//507
f 1013//481 926//404 957//427
f 1014//508 1048//509 1049//510
f 1014//511 1050//512 1051//513
f 1045//506 904//382 1007//476
f 931//409 933//411 894//372
f 1043//504 1042//503 1032//494
f 1043//504 901//379 899//377
f 1027//489 625//298 1022//487
f 1027//489 1031//493 1034//496
f 1033//495 1031//493 1029//491
f 1034//496 625//298 1027//489
f 1042//503 899//377 900//378
f 895//373 892//370 933//411
f 896//374 982//451 893//371
f 1026//488 1043//504 1027//489
f 894//372 893//371 981//450
f 933//411 939//415 895//373
f 1017//484 946//418 915//393
f 959//429 1052//344 1053//337
f 983//514 1054//332 1055//329
f 959//429 946//418 1017//484
f 913//391 916//394 953//424
f 911//389 956//426 914//392
f 975//444 955//425 973//442
f 955//425 954//389 926//404
f 962//432 1011//479 1008//477
f 1012//480 910//388 907//385
f 962//432 910//388 1012//480
f 975//444 909//387 956//426
f 908//386 914//392 909//387
f 956//426 911//389 913//391
f 918//396 920//398 925//403
f 925//403 920//398 976//445
f 923//401 921//399 926//404
f 925//403 976//445 973//442
f 951//422 953//424 916//394
f 957//427 954//389 913//391
f 978//447 991//460 1003//472
f 995//464 1056//467 1057//515
f 964//434 968//437 965//359
f 976//445 974//443 973//442
f 1009//478 1040//501 903//381
f 1005//474 965//359 968//437
f 966//435 971//440 964//434
f 972//441 909//387 969//438
f 919//397 1018//485 920//398
f 1005//474 978//447 1000//469
f 954//389 956//426 913//391
f 974//443 977//446 970//439
f 1003//472 1000//469 978//447
f 1002//471 1040//501 965//359
f 1002//471 1005//474 1000//469
f 1058//516 994//463 1059//517
f 1000//469 1004//473 1001//470
f 1060//518 995//464 1061//519
f 1041//502 1045//506 1006//475
f 902//380 932//410 905//383
f 1007//476 1002//471 1001//470
f 1062//520 1008//521 1063//522
f 1045//506 1041//502 897//375
f 1032//494 890//368 889//367
f 899//377 896//374 898//376
f 1064//413 932//410 931//409
f 900//378 1041//502 1039//500
f 1065//320 903//381 902//380
f 1044//505 890//368 1042//503
f 889//367 891//369 1066//523
f 1037//318 1039//500 1041//502
f 1067//524 891//369 1068//525
f 1027//489 1043//504 1031//493
f 1069//310 981//526 1070//305
f 901//379 1043//504 1026//488
f 1071//527 1033//495 1072//498
f 1073//332 983//452 1074//337
f 1075//528 952//423 1076//529
f 1077//348 1078//430 958//428
f 1079//402 1080//530 921//399
f 939//415 904//382 1045//506
f 1081//531 985//453 919//397
f 982//451 896//374 901//379
f 1082//518 1083//532 994//533
f 1022//487 625//298 1084//258
f 1085//524 1086//523 891//534
f 1087//296 1088//258 1034//496
f 1034//496 1089//258 625//298
f 1090//535 1091//296 1034//496
f 1092//536 1093//537 1034//496
f 1033//495 1094//538 1034//496
f 1033//495 1095//527 1096//539
f 1044//505 1038//499 890//368
f 1029//491 1097//492 1033//495
f 1033//495 1098//492 1099//540
f 889//367 1100//523 1101//492
f 888//366 930//408 891//369
f 903//541 1102//320 1103//322
f 1037//318 1004//473 997//466
f 897//375 895//373 939//415
f 927//405 1104//525 891//369
f 927//542 1105//543 1106//525
f 1107//356 1009//478 1108//322
f 1109//516 927//405 994//463
f 1110//352 962//432 1111//544
f 991//460 978//447 987//455
f 962//432 1008//477 1112//353
f 1018//485 985//453 987//455
f 1113//348 961//431 1114//433
f 990//459 986//454 1115//467
f 947//419 1116//340 983//452
f 986//454 985//453 1117//458
f 961//431 1118//348 958//428
f 1119//545 985//546 1120//531
f 961//431 958//428 908//386
f 1121//547 918//396 1122//400
f 948//420 1123//329 949//329
f 1124//329 952//423 949//329
f 1125//548 1126//400 921//399
f 952//423 1127//512 1014//482
f 951//422 916//394 950//421
f 1128//549 1129//550 1014//511
f 1014//511 1130//550 1131//551
f 1132//389 923//401 1133//507
f 1134//389 1135//402 923//401
f 1136//552 948//420 983//452
f 918//396 1137//547 919//397
f 1138//547 1139//531 919//397
f 1140//462 1141//553 986//461
f 999//468 991//460 990//459
f 932//410 939//415 933//411
f 979//448 982//451 980//449
f 1142//300 1143//305 980//449
f 1144//554 1145//364 894//555
f 931//409 894//372 934//412
f 1146//556 1147//557 1148//558
f 1146//556 1149//559 1147//557
f 1150//560 1151//561 1152//562
f 1150//560 949//329 1153//563
f 1154//564 1155//565 1156//566
f 1154//564 1157//567 1158//568
f 1159//569 1160//570 1161//571
f 1159//569 1149//559 1160//570
f 1162//572 1163//573 1164//574
f 1162//572 1165//575 1166//576
f 1167//577 1168//578 1169//579
f 1167//577 1166//576 1170//580
f 1166//576 1165//575 1171//581
f 1166//576 1163//573 1162//572
f 1172//582 1173//583 1174//584
f 1172//582 1175//580 1176//585
f 1173//583 1177//586 1174//584
f 1173//576 1178//585 1179//587
f 1180//588 1160//570 1181//589
f 1180//588 1182//590 1183//591
f 1182//590 1164//574 1184//592
f 1182//590 1180//588 1162//572
f 1164//574 1185//593 1186//594
f 1164//574 1163//573 1185//593
f 1186//594 1187//595 1184//592
f 1186//594 1174//584 1177//586
f 1187//595 1188//596 1189//597
f 1187//595 1177//586 1190//598
f 1183//591 1191//599 1160//570
f 1183//591 1184//592 1189//597
f 1189//597 1184//592 1187//595
f 1189//597 1191//599 1183//591
f 1192//600 1193//601 1161//571
f 1192//600 1188//596 1194//602
f 1167//577 1163//573 1166//576
f 1169//579 1195//603 1163//573
f 1196//604 1156//566 1155//565
f 1196//604 1197//605 1156//566
f 1196//604 1155//565 1174//584
f 1156//566 1157//567 1154//564
f 1198//606 1161//571 1199//607
f 1198//606 1200//608 1147//557
f 1200//608 1201//609 1202//610
f 1200//608 1203//611 1153//563
f 1202//610 1147//557 1200//608
f 1202//610 1204//612 1205//613
f 1181//589 1165//575 1180//588
f 1181//589 1206//614 1207//615
f 1149//559 1146//556 1206//614
f 1198//606 1159//569 1161//571
f 1208//616 1209//617 1197//605
f 1208//616 1195//603 1168//578
f 1195//603 1169//579 1168//578
f 1195//603 1197//605 1185//593
f 1210//618 1211//619 1212//620
f 1210//618 1213//621 1214//622
f 1213//621 1215//623 1216//613
f 1213//621 1217//624 1218//625
f 1190//598 1177//586 1219//615
f 1190//598 1188//596 1187//595
f 1220//626 1215//623 1194//602
f 1220//626 1221//570 1222//627
f 1223//628 949//329 1224//329
f 1223//628 1153//563 949//329
f 1161//571 1191//599 1192//600
f 1161//571 1160//570 1191//599
f 1153//563 1223//628 1201//609
f 1153//563 1203//611 1151//561
f 1203//611 1199//607 1225//629
f 1149//559 1159//569 1147//557
f 1225//629 1151//561 1203//611
f 1225//629 1218//625 1217//624
f 1194//602 1188//596 1220//626
f 1194//602 1218//625 1193//601
f 1225//629 1217//624 1151//561
f 1218//625 1215//623 1213//621
f 111//14 1157//567 109//13
f 1209//617 1156//566 1197//605
f 1157//567 111//14 1226//617
f 1196//604 1174//584 1185//593
f 1155//630 1227//631 1228//632
f 105//14 1229//633 1230//617
f 105//14 109//13 1229//633
f 1229//633 1168//578 1231//631
f 1229//633 109//13 1209//617
f 1167//577 1169//579 1163//573
f 1195//603 1208//616 1197//605
f 1232//617 111//13 1233//634
f 1168//578 1229//633 1208//616
f 1234//631 1157//635 1235//617
f 1185//593 1197//605 1196//604
f 1185//593 1163//573 1195//603
f 1164//574 1186//594 1184//592
f 1177//592 1236//581 1237//615
f 1174//584 1186//594 1185//593
f 1238//581 1173//576 1239//587
f 1206//614 1146//556 1240//636
f 1149//559 1181//589 1160//570
f 1182//590 1162//572 1164//574
f 1166//576 1241//581 1242//587
f 1183//591 1182//590 1184//592
f 1243//632 1167//577 1244//580
f 1192//600 1189//597 1188//596
f 1162//572 1180//588 1165//575
f 1220//626 1188//596 1190//598
f 1192//600 1194//602 1193//601
f 1189//597 1192//600 1191//599
f 1245//558 1220//637 1246//627
f 1202//610 1201//609 1247//638
f 1198//606 1147//557 1159//569
f 1201//609 1223//628 1248//639
f 1150//560 1153//563 1151//561
f 1201//609 1200//608 1153//563
f 1225//629 1193//601 1218//625
f 1199//607 1161//571 1193//601
f 1165//575 1181//589 1249//615
f 1217//640 1250//641 1251//642
f 1217//624 1252//639 1253//641
f 1225//629 1199//607 1193//601
f 1254//643 1255//558 1202//610
f 1160//570 1180//588 1183//591
f 1157//567 1209//617 109//13
f 1203//611 1198//606 1199//607
f 1256//575 1177//586 1173//583
f 1257//620 1217//624 1258//642
f 1259//558 1215//623 1220//626
f 1260//329 1261//329 1262//639
f 1263//639 1264//644 1265//645
f 1266//562 1267//639 1268//646
f 1269//562 1270//647 1210//618
f 1271//647 1272//619 1210//618
f 1273//641 1210//618 1274//642
f 1217//624 1213//621 1210//618
f 1275//641 1276//639 1210//618
f 1277//638 1213//621 1278//612
f 1215//623 1218//625 1194//602
f 1279//613 1280//612 1213//648
f 1165//592 1281//615 1282//581
f 1177//586 1187//595 1186//594
f 1283//587 1284//585 1166//576
f 1190//649 1285//615 1286//570
f 1149//559 1206//614 1181//589
f 1172//582 1155//565 1287//632
f 1209//617 1208//616 1229//633
f 1154//564 1288//568 1155//565
f 1289//580 1172//582 1290//650
f 105//14 1291//617 1292//634
f 1172//582 1293//585 1173//583
f 1294//617 1229//633 1295//568
f 1157//567 1156//566 1209//617
f 1296//632 1168//578 1167//577
f 1190//598 1297//570 1220//626
f 1298//615 1206//651 1299//570
f 1300//619 1217//624 1301//620
f 1302//652 1146//556 1303//558
f 1304//622 1201//609 1305//639
f 1306//639 1223//628 1307//329
f 1202//610 1308//558 1147//557
f 949//329 1150//560 1309//329
f 1310//329 1150//653 1311//654
f 1312//655 1150//560 1313//656
f 1314//657 1151//561 1315//647
f 1316//647 1151//658 1317//619
f 1203//611 1200//608 1198//606
f 1318//659 1319//612 1202//610
f 1206//614 1320//627 1321//570
f 1322//632 1323//568 1168//578
f 1174//584 1155//565 1172//582
f 1324//585 1325//580 1166//660
f 1217//624 1210//618 1326//639
f 1327//558 1328//643 1215//623
f 1329//622 1330//639 1210//618
f 1210//618 1331//620 1332//642
f 1151//561 1217//624 1333//619
f 1210//618 1334//639 1335//562
