# Blender 4.4.3
# www.blender.org
mtllib Mesh_20.002.mtl
o Mesh_20.002
v 0.017290 0.008710 -0.011152
v 0.017290 0.008710 -0.011143
v 0.017290 0.008716 -0.011137
v 0.017290 0.008773 -0.011152
v 0.017290 0.008721 -0.011130
v 0.017290 0.008726 -0.011124
v 0.017290 0.008732 -0.011119
v 0.017290 0.008738 -0.011113
v 0.017290 0.008773 -0.011114
v 0.017290 0.008744 -0.011108
v 0.017290 0.008750 -0.011102
v 0.017290 0.008756 -0.011097
v 0.017290 0.008710 -0.011143
v 0.017375 0.008710 -0.011143
v 0.017375 0.008714 -0.011139
v 0.017290 0.008716 -0.011137
v 0.017290 0.008710 -0.011143
v 0.017375 0.008717 -0.011135
v 0.017290 0.008716 -0.011137
v 0.017290 0.008721 -0.011130
v 0.017290 0.008716 -0.011137
v 0.017290 0.008721 -0.011130
v 0.017375 0.008720 -0.011131
v 0.017375 0.008723 -0.011127
v 0.017290 0.008721 -0.011130
v 0.017290 0.008726 -0.011124
v 0.017290 0.008721 -0.011130
v 0.017375 0.008727 -0.011124
v 0.017375 0.008730 -0.011120
v 0.017290 0.008726 -0.011124
v 0.017290 0.008726 -0.011124
v 0.017290 0.008726 -0.011124
v 0.017290 0.008732 -0.011119
v 0.017290 0.008732 -0.011119
v 0.017375 0.008734 -0.011117
v 0.017290 0.008738 -0.011113
v 0.017290 0.008732 -0.011119
v 0.017375 0.008738 -0.011113
v 0.017290 0.008738 -0.011113
v 0.017375 0.008741 -0.011110
v 0.017290 0.008738 -0.011113
v 0.017290 0.008738 -0.011113
v 0.017290 0.008744 -0.011108
v 0.017290 0.008744 -0.011108
v 0.017375 0.008745 -0.011106
v 0.017290 0.008750 -0.011102
v 0.017293 0.008756 -0.011097
v 0.017290 0.008756 -0.011097
v 0.017290 0.008750 -0.011102
v 0.017290 0.008744 -0.011108
v 0.017290 0.008750 -0.011102
v 0.017297 0.008756 -0.011097
v 0.017375 0.008749 -0.011103
v 0.017290 0.008750 -0.011102
v 0.017300 0.008756 -0.011097
v 0.017290 0.008750 -0.011102
v 0.017304 0.008756 -0.011097
v 0.017290 0.008750 -0.011102
v 0.017307 0.008757 -0.011097
v 0.017375 0.008753 -0.011100
v 0.017310 0.008757 -0.011096
v 0.017317 0.008759 -0.011095
v 0.017313 0.008758 -0.011096
v 0.017340 0.008769 -0.011088
v 0.017338 0.008767 -0.011089
v 0.017375 0.008765 -0.011091
v 0.017375 0.008769 -0.011088
v 0.017335 0.008766 -0.011090
v 0.017332 0.008764 -0.011091
v 0.017375 0.008761 -0.011094
v 0.017329 0.008763 -0.011092
v 0.017326 0.008762 -0.011093
v 0.017375 0.008757 -0.011097
v 0.017323 0.008761 -0.011094
v 0.017320 0.008760 -0.011094
v 0.017290 0.008750 -0.011102
v 0.017290 0.008750 -0.011102
v 0.017375 0.008834 -0.011087
v 0.017352 0.008803 -0.011087
v 0.017375 0.008772 -0.011087
v 0.017345 0.008775 -0.011087
v 0.017343 0.008772 -0.011087
v 0.017347 0.008779 -0.011087
v 0.017349 0.008783 -0.011087
v 0.017350 0.008787 -0.011087
v 0.017351 0.008791 -0.011087
v 0.017352 0.008795 -0.011087
v 0.017352 0.008799 -0.011087
v 0.017352 0.008807 -0.011087
v 0.017352 0.008811 -0.011087
v 0.017351 0.008815 -0.011087
v 0.017350 0.008819 -0.011087
v 0.017349 0.008823 -0.011087
v 0.017345 0.008831 -0.011087
v 0.017343 0.008834 -0.011087
v 0.017347 0.008827 -0.011087
v 0.017290 0.008856 -0.011102
v 0.017293 0.008850 -0.011097
v 0.017297 0.008850 -0.011097
v 0.017300 0.008850 -0.011097
v 0.017303 0.008850 -0.011097
v 0.017307 0.008849 -0.011097
v 0.017375 0.008868 -0.011113
v 0.017375 0.008872 -0.011117
v 0.017290 0.008868 -0.011113
v 0.017375 0.008879 -0.011124
v 0.017290 0.008880 -0.011124
v 0.017375 0.008876 -0.011120
v 0.017375 0.008883 -0.011127
v 0.017290 0.008885 -0.011130
v 0.017290 0.008850 -0.011097
v 0.017290 0.008895 -0.011143
v 0.017375 0.008892 -0.011139
v 0.017375 0.008895 -0.011143
v 0.017290 0.008890 -0.011137
v 0.017375 0.008889 -0.011135
v 0.017375 0.008886 -0.011131
v 0.017290 0.008874 -0.011119
v 0.017375 0.008865 -0.011110
v 0.017290 0.008862 -0.011108
v 0.017375 0.008861 -0.011106
v 0.017310 0.008849 -0.011096
v 0.017375 0.008857 -0.011103
v 0.017313 0.008848 -0.011096
v 0.017375 0.008853 -0.011100
v 0.017317 0.008847 -0.011095
v 0.017320 0.008846 -0.011094
v 0.017375 0.008849 -0.011097
v 0.017326 0.008844 -0.011093
v 0.017329 0.008843 -0.011092
v 0.017375 0.008845 -0.011094
v 0.017375 0.008837 -0.011088
v 0.017375 0.008841 -0.011091
v 0.017340 0.008837 -0.011088
v 0.017338 0.008839 -0.011089
v 0.017335 0.008840 -0.011090
v 0.017332 0.008842 -0.011091
v 0.017323 0.008845 -0.011094
v 0.017290 0.008833 -0.011114
v 0.017290 0.008868 -0.011113
v 0.017290 0.008833 -0.011152
v 0.017290 0.008850 -0.011097
v 0.017290 0.008856 -0.011102
v 0.017290 0.008856 -0.011102
v 0.017290 0.008862 -0.011108
v 0.017290 0.008862 -0.011108
v 0.017290 0.008868 -0.011113
v 0.017290 0.008868 -0.011113
v 0.017290 0.008874 -0.011119
v 0.017290 0.008874 -0.011119
v 0.017290 0.008880 -0.011124
v 0.017290 0.008880 -0.011124
v 0.017290 0.008885 -0.011130
v 0.017290 0.008895 -0.011143
v 0.017290 0.008895 -0.011152
v 0.017290 0.008890 -0.011137
v 0.017290 0.008885 -0.011130
v 0.017290 0.008890 -0.011137
v 0.017290 0.008890 -0.011137
v 0.017375 0.008845 -0.011094
v 0.017375 0.008834 -0.011087
v 0.017375 0.008772 -0.011087
v 0.017375 0.008761 -0.011094
v 0.017375 0.008772 -0.011087
v 0.017375 0.008765 -0.011091
v 0.017375 0.008772 -0.011087
v 0.017375 0.008771 -0.011087
v 0.017375 0.008769 -0.011088
v 0.017375 0.008770 -0.011087
v 0.017375 0.008769 -0.011088
v 0.017375 0.008770 -0.011087
v 0.017375 0.008769 -0.011088
v 0.017375 0.008772 -0.011087
v 0.017375 0.008769 -0.011088
v 0.017375 0.008765 -0.011091
v 0.017375 0.008845 -0.011094
v 0.017375 0.008772 -0.011087
v 0.017375 0.008761 -0.011094
v 0.017375 0.008845 -0.011094
v 0.017375 0.008761 -0.011094
v 0.017375 0.008849 -0.011097
v 0.017375 0.008761 -0.011094
v 0.017375 0.008757 -0.011097
v 0.017375 0.008849 -0.011097
v 0.017375 0.008757 -0.011097
v 0.017375 0.008853 -0.011100
v 0.017375 0.008849 -0.011097
v 0.017375 0.008753 -0.011100
v 0.017375 0.008853 -0.011100
v 0.017375 0.008757 -0.011097
v 0.017375 0.008857 -0.011103
v 0.017375 0.008853 -0.011100
v 0.017375 0.008753 -0.011100
v 0.017375 0.008857 -0.011103
v 0.017375 0.008753 -0.011100
v 0.017375 0.008749 -0.011103
v 0.017375 0.008857 -0.011103
v 0.017375 0.008749 -0.011103
v 0.017375 0.008861 -0.011106
v 0.017375 0.008749 -0.011103
v 0.017375 0.008745 -0.011106
v 0.017375 0.008861 -0.011106
v 0.017375 0.008745 -0.011106
v 0.017375 0.008865 -0.011110
v 0.017375 0.008861 -0.011106
v 0.017375 0.008741 -0.011110
v 0.017375 0.008865 -0.011110
v 0.017375 0.008745 -0.011106
v 0.017375 0.008868 -0.011113
v 0.017375 0.008865 -0.011110
v 0.017375 0.008741 -0.011110
v 0.017375 0.008868 -0.011113
v 0.017375 0.008741 -0.011110
v 0.017375 0.008738 -0.011113
v 0.017375 0.008710 -0.011143
v 0.017375 0.008710 -0.011152
v 0.017375 0.008714 -0.011139
v 0.017375 0.008868 -0.011113
v 0.017375 0.008738 -0.011113
v 0.017375 0.008872 -0.011117
v 0.017375 0.008720 -0.011131
v 0.017375 0.008717 -0.011135
v 0.017375 0.008734 -0.011117
v 0.017375 0.008730 -0.011120
v 0.017375 0.008895 -0.011143
v 0.017375 0.008892 -0.011139
v 0.017375 0.008895 -0.011152
v 0.017375 0.008892 -0.011139
v 0.017375 0.008889 -0.011135
v 0.017375 0.008889 -0.011135
v 0.017375 0.008886 -0.011131
v 0.017375 0.008886 -0.011131
v 0.017375 0.008883 -0.011127
v 0.017375 0.008883 -0.011127
v 0.017375 0.008879 -0.011124
v 0.017375 0.008879 -0.011124
v 0.017375 0.008876 -0.011120
v 0.017375 0.008876 -0.011120
v 0.017375 0.008872 -0.011117
v 0.017375 0.008734 -0.011117
v 0.017375 0.008730 -0.011120
v 0.017375 0.008727 -0.011124
v 0.017375 0.008727 -0.011124
v 0.017375 0.008723 -0.011127
v 0.017375 0.008723 -0.011127
v 0.017375 0.008720 -0.011131
v 0.017375 0.008734 -0.011117
v 0.017375 0.008872 -0.011117
v 0.017375 0.008872 -0.011117
v 0.017375 0.008738 -0.011113
v 0.017375 0.008734 -0.011117
v 0.017375 0.008717 -0.011135
v 0.017375 0.008714 -0.011139
v 0.017375 0.008845 -0.011094
v 0.017375 0.008841 -0.011091
v 0.017375 0.008834 -0.011087
v 0.017375 0.008836 -0.011087
v 0.017375 0.008834 -0.011087
v 0.017375 0.008836 -0.011087
v 0.017375 0.008834 -0.011087
v 0.017375 0.008837 -0.011088
v 0.017375 0.008835 -0.011087
v 0.017375 0.008834 -0.011087
v 0.017375 0.008837 -0.011088
v 0.017375 0.008834 -0.011087
v 0.017375 0.008841 -0.011091
v 0.017375 0.008710 -0.011152
v 0.017375 0.008710 -0.011143
v 0.017290 0.008710 -0.011152
v 0.017375 0.008710 -0.011143
v 0.017290 0.008710 -0.011143
v 0.017290 0.008710 -0.011152
v 0.017290 0.008895 -0.011152
v 0.017290 0.008895 -0.011143
v 0.017375 0.008895 -0.011152
v 0.017290 0.008895 -0.011143
v 0.017375 0.008895 -0.011143
v 0.017375 0.008895 -0.011152
v 0.017290 0.008710 -0.011152
v 0.017306 0.008775 -0.011152
v 0.017308 0.008776 -0.011152
v 0.017375 0.008710 -0.011152
v 0.017325 0.008801 -0.011152
v 0.017325 0.008803 -0.011152
v 0.017292 0.008833 -0.011152
v 0.017290 0.008833 -0.011152
v 0.017290 0.008895 -0.011152
v 0.017290 0.008895 -0.011152
v 0.017293 0.008833 -0.011152
v 0.017290 0.008895 -0.011152
v 0.017295 0.008833 -0.011152
v 0.017290 0.008895 -0.011152
v 0.017296 0.008833 -0.011152
v 0.017290 0.008895 -0.011152
v 0.017298 0.008833 -0.011152
v 0.017290 0.008895 -0.011152
v 0.017300 0.008833 -0.011152
v 0.017290 0.008895 -0.011152
v 0.017301 0.008832 -0.011152
v 0.017290 0.008895 -0.011152
v 0.017303 0.008832 -0.011152
v 0.017290 0.008895 -0.011152
v 0.017304 0.008831 -0.011152
v 0.017290 0.008895 -0.011152
v 0.017306 0.008831 -0.011152
v 0.017290 0.008895 -0.011152
v 0.017308 0.008830 -0.011152
v 0.017290 0.008895 -0.011152
v 0.017309 0.008830 -0.011152
v 0.017290 0.008895 -0.011152
v 0.017375 0.008895 -0.011152
v 0.017375 0.008895 -0.011152
v 0.017310 0.008829 -0.011152
v 0.017375 0.008895 -0.011152
v 0.017312 0.008828 -0.011152
v 0.017375 0.008895 -0.011152
v 0.017313 0.008827 -0.011152
v 0.017375 0.008895 -0.011152
v 0.017314 0.008826 -0.011152
v 0.017375 0.008895 -0.011152
v 0.017316 0.008825 -0.011152
v 0.017375 0.008895 -0.011152
v 0.017317 0.008824 -0.011152
v 0.017375 0.008895 -0.011152
v 0.017318 0.008822 -0.011152
v 0.017375 0.008895 -0.011152
v 0.017319 0.008821 -0.011152
v 0.017375 0.008895 -0.011152
v 0.017320 0.008820 -0.011152
v 0.017375 0.008895 -0.011152
v 0.017321 0.008819 -0.011152
v 0.017323 0.008814 -0.011152
v 0.017322 0.008816 -0.011152
v 0.017375 0.008895 -0.011152
v 0.017375 0.008895 -0.011152
v 0.017321 0.008817 -0.011152
v 0.017323 0.008813 -0.011152
v 0.017375 0.008895 -0.011152
v 0.017324 0.008811 -0.011152
v 0.017375 0.008895 -0.011152
v 0.017324 0.008809 -0.011152
v 0.017375 0.008895 -0.011152
v 0.017325 0.008808 -0.011152
v 0.017375 0.008895 -0.011152
v 0.017325 0.008806 -0.011152
v 0.017375 0.008895 -0.011152
v 0.017325 0.008805 -0.011152
v 0.017375 0.008895 -0.011152
v 0.017375 0.008895 -0.011152
v 0.017375 0.008895 -0.011152
v 0.017375 0.008710 -0.011152
v 0.017375 0.008710 -0.011152
v 0.017325 0.008800 -0.011152
v 0.017375 0.008710 -0.011152
v 0.017325 0.008798 -0.011152
v 0.017375 0.008710 -0.011152
v 0.017324 0.008797 -0.011152
v 0.017375 0.008710 -0.011152
v 0.017324 0.008795 -0.011152
v 0.017375 0.008710 -0.011152
v 0.017323 0.008793 -0.011152
v 0.017322 0.008790 -0.011152
v 0.017375 0.008710 -0.011152
v 0.017321 0.008789 -0.011152
v 0.017323 0.008792 -0.011152
v 0.017375 0.008710 -0.011152
v 0.017375 0.008710 -0.011152
v 0.017321 0.008787 -0.011152
v 0.017375 0.008710 -0.011152
v 0.017320 0.008786 -0.011152
v 0.017375 0.008710 -0.011152
v 0.017319 0.008785 -0.011152
v 0.017375 0.008710 -0.011152
v 0.017318 0.008784 -0.011152
v 0.017375 0.008710 -0.011152
v 0.017317 0.008782 -0.011152
v 0.017375 0.008710 -0.011152
v 0.017316 0.008781 -0.011152
v 0.017375 0.008710 -0.011152
v 0.017314 0.008780 -0.011152
v 0.017375 0.008710 -0.011152
v 0.017313 0.008779 -0.011152
v 0.017375 0.008710 -0.011152
v 0.017312 0.008778 -0.011152
v 0.017375 0.008710 -0.011152
v 0.017310 0.008777 -0.011152
v 0.017375 0.008710 -0.011152
v 0.017309 0.008776 -0.011152
v 0.017375 0.008710 -0.011152
v 0.017290 0.008710 -0.011152
v 0.017290 0.008710 -0.011152
v 0.017304 0.008775 -0.011152
v 0.017290 0.008710 -0.011152
v 0.017303 0.008774 -0.011152
v 0.017290 0.008710 -0.011152
v 0.017301 0.008774 -0.011152
v 0.017290 0.008710 -0.011152
v 0.017290 0.008710 -0.011152
v 0.017300 0.008773 -0.011152
v 0.017290 0.008710 -0.011152
v 0.017298 0.008773 -0.011152
v 0.017290 0.008710 -0.011152
v 0.017296 0.008773 -0.011152
v 0.017290 0.008710 -0.011152
v 0.017295 0.008773 -0.011152
v 0.017290 0.008710 -0.011152
v 0.017293 0.008773 -0.011152
v 0.017375 0.008895 -0.011152
v 0.017290 0.008710 -0.011152
v 0.017292 0.008773 -0.011152
v 0.017375 0.008710 -0.011152
v 0.017290 0.008710 -0.011152
v 0.017290 0.008773 -0.011152
v 0.017292 0.008833 -0.011152
v 0.017293 0.008833 -0.011152
v 0.017292 0.008833 -0.011114
v 0.017293 0.008833 -0.011152
v 0.017295 0.008833 -0.011152
v 0.017293 0.008833 -0.011114
v 0.017295 0.008833 -0.011152
v 0.017295 0.008833 -0.011114
v 0.017296 0.008833 -0.011152
v 0.017296 0.008833 -0.011114
v 0.017298 0.008833 -0.011152
v 0.017298 0.008833 -0.011114
v 0.017300 0.008833 -0.011152
v 0.017300 0.008833 -0.011114
v 0.017301 0.008832 -0.011152
v 0.017300 0.008833 -0.011152
v 0.017303 0.008832 -0.011152
v 0.017301 0.008832 -0.011114
v 0.017301 0.008832 -0.011152
v 0.017303 0.008832 -0.011114
v 0.017303 0.008832 -0.011152
v 0.017304 0.008831 -0.011114
v 0.017304 0.008831 -0.011152
v 0.017304 0.008831 -0.011152
v 0.017306 0.008831 -0.011152
v 0.017306 0.008831 -0.011114
v 0.017306 0.008831 -0.011152
v 0.017308 0.008830 -0.011152
v 0.017308 0.008830 -0.011114
v 0.017308 0.008830 -0.011152
v 0.017309 0.008830 -0.011152
v 0.017309 0.008830 -0.011152
v 0.017309 0.008830 -0.011114
v 0.017310 0.008829 -0.011152
v 0.017310 0.008829 -0.011114
v 0.017310 0.008829 -0.011152
v 0.017312 0.008828 -0.011152
v 0.017312 0.008828 -0.011152
v 0.017313 0.008827 -0.011152
v 0.017312 0.008828 -0.011114
v 0.017313 0.008827 -0.011152
v 0.017313 0.008827 -0.011114
v 0.017314 0.008826 -0.011152
v 0.017314 0.008826 -0.011114
v 0.017316 0.008825 -0.011152
v 0.017314 0.008826 -0.011152
v 0.017317 0.008824 -0.011152
v 0.017316 0.008825 -0.011114
v 0.017316 0.008825 -0.011152
v 0.017317 0.008824 -0.011114
v 0.017317 0.008824 -0.011152
v 0.017318 0.008822 -0.011114
v 0.017318 0.008822 -0.011152
v 0.017318 0.008822 -0.011152
v 0.017319 0.008821 -0.011152
v 0.017319 0.008821 -0.011114
v 0.017319 0.008821 -0.011152
v 0.017320 0.008820 -0.011152
v 0.017320 0.008820 -0.011152
v 0.017320 0.008820 -0.011114
v 0.017321 0.008819 -0.011152
v 0.017321 0.008819 -0.011114
v 0.017321 0.008819 -0.011152
v 0.017321 0.008817 -0.011152
v 0.017321 0.008817 -0.011152
v 0.017322 0.008816 -0.011152
v 0.017321 0.008817 -0.011114
v 0.017322 0.008816 -0.011152
v 0.017322 0.008816 -0.011114
v 0.017323 0.008814 -0.011152
v 0.017323 0.008814 -0.011114
v 0.017323 0.008813 -0.011152
v 0.017323 0.008814 -0.011152
v 0.017324 0.008811 -0.011152
v 0.017323 0.008813 -0.011114
v 0.017323 0.008813 -0.011152
v 0.017324 0.008811 -0.011114
v 0.017324 0.008811 -0.011152
v 0.017324 0.008809 -0.011114
v 0.017324 0.008809 -0.011152
v 0.017324 0.008809 -0.011152
v 0.017325 0.008808 -0.011152
v 0.017325 0.008808 -0.011114
v 0.017325 0.008808 -0.011152
v 0.017325 0.008806 -0.011152
v 0.017325 0.008806 -0.011152
v 0.017325 0.008806 -0.011114
v 0.017325 0.008805 -0.011152
v 0.017325 0.008805 -0.011114
v 0.017325 0.008805 -0.011152
v 0.017325 0.008803 -0.011152
v 0.017325 0.008803 -0.011152
v 0.017325 0.008801 -0.011152
v 0.017325 0.008803 -0.011114
v 0.017325 0.008801 -0.011152
v 0.017325 0.008801 -0.011114
v 0.017325 0.008800 -0.011152
v 0.017325 0.008800 -0.011114
v 0.017325 0.008798 -0.011152
v 0.017325 0.008800 -0.011152
v 0.017324 0.008797 -0.011152
v 0.017325 0.008798 -0.011114
v 0.017325 0.008798 -0.011152
v 0.017324 0.008795 -0.011152
v 0.017324 0.008797 -0.011114
v 0.017324 0.008797 -0.011152
v 0.017324 0.008795 -0.011114
v 0.017324 0.008795 -0.011152
v 0.017323 0.008793 -0.011114
v 0.017323 0.008793 -0.011152
v 0.017323 0.008793 -0.011152
v 0.017323 0.008792 -0.011152
v 0.017323 0.008792 -0.011114
v 0.017323 0.008792 -0.011152
v 0.017322 0.008790 -0.011152
v 0.017322 0.008790 -0.011152
v 0.017322 0.008790 -0.011114
v 0.017321 0.008789 -0.011152
v 0.017321 0.008789 -0.011114
v 0.017321 0.008789 -0.011152
v 0.017321 0.008787 -0.011152
v 0.017321 0.008787 -0.011152
v 0.017320 0.008786 -0.011152
v 0.017321 0.008787 -0.011114
v 0.017320 0.008786 -0.011152
v 0.017320 0.008786 -0.011114
v 0.017319 0.008785 -0.011152
v 0.017319 0.008785 -0.011114
v 0.017318 0.008784 -0.011152
v 0.017319 0.008785 -0.011152
v 0.017317 0.008782 -0.011152
v 0.017318 0.008784 -0.011114
v 0.017318 0.008784 -0.011152
v 0.017317 0.008782 -0.011114
v 0.017317 0.008782 -0.011152
v 0.017316 0.008781 -0.011114
v 0.017316 0.008781 -0.011152
v 0.017316 0.008781 -0.011152
v 0.017314 0.008780 -0.011152
v 0.017314 0.008780 -0.011114
v 0.017314 0.008780 -0.011152
v 0.017313 0.008779 -0.011152
v 0.017313 0.008779 -0.011152
v 0.017313 0.008779 -0.011114
v 0.017292 0.008773 -0.011114
v 0.017293 0.008773 -0.011114
v 0.017292 0.008773 -0.011152
v 0.017290 0.008773 -0.011152
v 0.017290 0.008773 -0.011114
v 0.017290 0.008773 -0.011152
v 0.017292 0.008773 -0.011152
v 0.017293 0.008773 -0.011152
v 0.017292 0.008773 -0.011152
v 0.017295 0.008773 -0.011114
v 0.017293 0.008773 -0.011152
v 0.017295 0.008773 -0.011152
v 0.017293 0.008773 -0.011152
v 0.017295 0.008773 -0.011152
v 0.017296 0.008773 -0.011114
v 0.017295 0.008773 -0.011152
v 0.017296 0.008773 -0.011152
v 0.017298 0.008773 -0.011114
v 0.017296 0.008773 -0.011152
v 0.017298 0.008773 -0.011152
v 0.017296 0.008773 -0.011152
v 0.017300 0.008773 -0.011114
v 0.017298 0.008773 -0.011152
v 0.017300 0.008773 -0.011152
v 0.017298 0.008773 -0.011152
v 0.017300 0.008773 -0.011152
v 0.017301 0.008774 -0.011114
v 0.017300 0.008773 -0.011152
v 0.017301 0.008774 -0.011152
v 0.017303 0.008774 -0.011114
v 0.017301 0.008774 -0.011152
v 0.017303 0.008774 -0.011152
v 0.017301 0.008774 -0.011152
v 0.017304 0.008775 -0.011114
v 0.017303 0.008774 -0.011152
v 0.017304 0.008775 -0.011152
v 0.017303 0.008774 -0.011152
v 0.017304 0.008775 -0.011152
v 0.017306 0.008775 -0.011114
v 0.017304 0.008775 -0.011152
v 0.017306 0.008775 -0.011152
v 0.017308 0.008776 -0.011114
v 0.017306 0.008775 -0.011152
v 0.017308 0.008776 -0.011152
v 0.017306 0.008775 -0.011152
v 0.017309 0.008776 -0.011114
v 0.017308 0.008776 -0.011152
v 0.017309 0.008776 -0.011152
v 0.017308 0.008776 -0.011152
v 0.017309 0.008776 -0.011152
v 0.017310 0.008777 -0.011114
v 0.017309 0.008776 -0.011152
v 0.017310 0.008777 -0.011152
v 0.017312 0.008778 -0.011114
v 0.017310 0.008777 -0.011152
v 0.017312 0.008778 -0.011152
v 0.017310 0.008777 -0.011152
v 0.017312 0.008778 -0.011152
v 0.017313 0.008779 -0.011152
v 0.017312 0.008778 -0.011152
v 0.017314 0.008780 -0.011152
v 0.017317 0.008782 -0.011152
v 0.017316 0.008781 -0.011152
v 0.017318 0.008784 -0.011152
v 0.017319 0.008785 -0.011152
v 0.017320 0.008786 -0.011152
v 0.017321 0.008787 -0.011152
v 0.017322 0.008790 -0.011152
v 0.017321 0.008789 -0.011152
v 0.017323 0.008792 -0.011152
v 0.017324 0.008795 -0.011152
v 0.017323 0.008793 -0.011152
v 0.017324 0.008797 -0.011152
v 0.017325 0.008798 -0.011152
v 0.017325 0.008800 -0.011152
v 0.017325 0.008801 -0.011152
v 0.017325 0.008803 -0.011152
v 0.017325 0.008806 -0.011152
v 0.017325 0.008805 -0.011152
v 0.017325 0.008808 -0.011152
v 0.017324 0.008811 -0.011152
v 0.017324 0.008809 -0.011152
v 0.017323 0.008813 -0.011152
v 0.017323 0.008814 -0.011152
v 0.017322 0.008816 -0.011152
v 0.017321 0.008817 -0.011152
v 0.017320 0.008820 -0.011152
v 0.017321 0.008819 -0.011152
v 0.017319 0.008821 -0.011152
v 0.017317 0.008824 -0.011152
v 0.017318 0.008822 -0.011152
v 0.017316 0.008825 -0.011152
v 0.017314 0.008826 -0.011152
v 0.017313 0.008827 -0.011152
v 0.017312 0.008828 -0.011152
v 0.017309 0.008830 -0.011152
v 0.017310 0.008829 -0.011152
v 0.017308 0.008830 -0.011152
v 0.017306 0.008831 -0.011152
v 0.017303 0.008832 -0.011152
v 0.017304 0.008831 -0.011152
v 0.017298 0.008833 -0.011152
v 0.017300 0.008833 -0.011152
v 0.017295 0.008833 -0.011152
v 0.017296 0.008833 -0.011152
v 0.017290 0.008833 -0.011152
v 0.017292 0.008833 -0.011152
v 0.017290 0.008833 -0.011114
v 0.017290 0.008833 -0.011152
v 0.017301 0.008832 -0.011152
v 0.017296 0.008833 -0.011152
v 0.017298 0.008833 -0.011152
v 0.017293 0.008833 -0.011152
v 0.017293 0.008756 -0.011097
v 0.017295 0.008773 -0.011114
v 0.017293 0.008773 -0.011114
v 0.017293 0.008756 -0.011097
v 0.017293 0.008773 -0.011114
v 0.017290 0.008756 -0.011097
v 0.017297 0.008756 -0.011097
v 0.017296 0.008773 -0.011114
v 0.017295 0.008773 -0.011114
v 0.017298 0.008773 -0.011114
v 0.017296 0.008773 -0.011114
v 0.017300 0.008756 -0.011097
v 0.017300 0.008773 -0.011114
v 0.017300 0.008756 -0.011097
v 0.017304 0.008756 -0.011097
v 0.017301 0.008774 -0.011114
v 0.017304 0.008756 -0.011097
v 0.017307 0.008757 -0.011097
v 0.017303 0.008774 -0.011114
v 0.017307 0.008757 -0.011097
v 0.017310 0.008757 -0.011096
v 0.017304 0.008775 -0.011114
v 0.017310 0.008757 -0.011096
v 0.017306 0.008775 -0.011114
v 0.017310 0.008757 -0.011096
v 0.017313 0.008758 -0.011096
v 0.017306 0.008775 -0.011114
v 0.017313 0.008758 -0.011096
v 0.017317 0.008759 -0.011095
v 0.017308 0.008776 -0.011114
v 0.017317 0.008759 -0.011095
v 0.017309 0.008776 -0.011114
v 0.017308 0.008776 -0.011114
v 0.017320 0.008760 -0.011094
v 0.017310 0.008777 -0.011114
v 0.017309 0.008776 -0.011114
v 0.017323 0.008761 -0.011094
v 0.017312 0.008778 -0.011114
v 0.017310 0.008777 -0.011114
v 0.017326 0.008762 -0.011093
v 0.017312 0.008778 -0.011114
v 0.017323 0.008761 -0.011094
v 0.017314 0.008780 -0.011114
v 0.017313 0.008779 -0.011114
v 0.017326 0.008762 -0.011093
v 0.017314 0.008780 -0.011114
v 0.017326 0.008762 -0.011093
v 0.017329 0.008763 -0.011092
v 0.017314 0.008780 -0.011114
v 0.017329 0.008763 -0.011092
v 0.017316 0.008781 -0.011114
v 0.017329 0.008763 -0.011092
v 0.017332 0.008764 -0.011091
v 0.017316 0.008781 -0.011114
v 0.017317 0.008782 -0.011114
v 0.017335 0.008766 -0.011090
v 0.017318 0.008784 -0.011114
v 0.017332 0.008764 -0.011091
v 0.017317 0.008782 -0.011114
v 0.017316 0.008781 -0.011114
v 0.017335 0.008766 -0.011090
v 0.017338 0.008767 -0.011089
v 0.017318 0.008784 -0.011114
v 0.017338 0.008767 -0.011089
v 0.017340 0.008769 -0.011088
v 0.017319 0.008785 -0.011114
v 0.017340 0.008769 -0.011088
v 0.017341 0.008770 -0.011088
v 0.017320 0.008786 -0.011114
v 0.017342 0.008770 -0.011087
v 0.017320 0.008786 -0.011114
v 0.017320 0.008786 -0.011114
v 0.017343 0.008771 -0.011087
v 0.017343 0.008772 -0.011087
v 0.017321 0.008787 -0.011114
v 0.017343 0.008772 -0.011087
v 0.017345 0.008775 -0.011087
v 0.017321 0.008787 -0.011114
v 0.017345 0.008775 -0.011087
v 0.017321 0.008789 -0.011114
v 0.017321 0.008789 -0.011114
v 0.017347 0.008779 -0.011087
v 0.017322 0.008790 -0.011114
v 0.017347 0.008779 -0.011087
v 0.017349 0.008783 -0.011087
v 0.017323 0.008792 -0.011114
v 0.017349 0.008783 -0.011087
v 0.017350 0.008787 -0.011087
v 0.017323 0.008793 -0.011114
v 0.017350 0.008787 -0.011087
v 0.017324 0.008795 -0.011114
v 0.017323 0.008793 -0.011114
v 0.017351 0.008791 -0.011087
v 0.017324 0.008797 -0.011114
v 0.017324 0.008795 -0.011114
v 0.017352 0.008795 -0.011087
v 0.017325 0.008798 -0.011114
v 0.017351 0.008791 -0.011087
v 0.017325 0.008800 -0.011114
v 0.017325 0.008798 -0.011114
v 0.017352 0.008795 -0.011087
v 0.017325 0.008801 -0.011114
v 0.017325 0.008800 -0.011114
v 0.017352 0.008799 -0.011087
v 0.017325 0.008803 -0.011114
v 0.017325 0.008801 -0.011114
v 0.017352 0.008803 -0.011087
v 0.017325 0.008805 -0.011114
v 0.017325 0.008803 -0.011114
v 0.017352 0.008803 -0.011087
v 0.017325 0.008805 -0.011114
v 0.017352 0.008803 -0.011087
v 0.017352 0.008807 -0.011087
v 0.017325 0.008805 -0.011114
v 0.017352 0.008807 -0.011087
v 0.017325 0.008806 -0.011114
v 0.017325 0.008806 -0.011114
v 0.017352 0.008811 -0.011087
v 0.017325 0.008808 -0.011114
v 0.017352 0.008811 -0.011087
v 0.017351 0.008815 -0.011087
v 0.017325 0.008808 -0.011114
v 0.017351 0.008815 -0.011087
v 0.017324 0.008811 -0.011114
v 0.017324 0.008809 -0.011114
v 0.017350 0.008819 -0.011087
v 0.017323 0.008813 -0.011114
v 0.017324 0.008811 -0.011114
v 0.017349 0.008823 -0.011087
v 0.017323 0.008814 -0.011114
v 0.017323 0.008813 -0.011114
v 0.017347 0.008827 -0.011087
v 0.017322 0.008816 -0.011114
v 0.017323 0.008814 -0.011114
v 0.017321 0.008817 -0.011114
v 0.017322 0.008816 -0.011114
v 0.017347 0.008827 -0.011087
v 0.017321 0.008819 -0.011114
v 0.017321 0.008817 -0.011114
v 0.017345 0.008831 -0.011087
v 0.017320 0.008820 -0.011114
v 0.017321 0.008819 -0.011114
v 0.017343 0.008834 -0.011087
v 0.017342 0.008836 -0.011087
v 0.017320 0.008820 -0.011114
v 0.017343 0.008835 -0.011087
v 0.017335 0.008840 -0.011090
v 0.017318 0.008822 -0.011114
v 0.017338 0.008839 -0.011089
v 0.017319 0.008821 -0.011114
v 0.017340 0.008837 -0.011088
v 0.017338 0.008839 -0.011089
v 0.017317 0.008824 -0.011114
v 0.017318 0.008822 -0.011114
v 0.017335 0.008840 -0.011090
v 0.017316 0.008825 -0.011114
v 0.017317 0.008824 -0.011114
v 0.017332 0.008842 -0.011091
v 0.017314 0.008826 -0.011114
v 0.017316 0.008825 -0.011114
v 0.017329 0.008843 -0.011092
v 0.017313 0.008827 -0.011114
v 0.017314 0.008826 -0.011114
v 0.017326 0.008844 -0.011093
v 0.017341 0.008836 -0.011088
v 0.017340 0.008837 -0.011088
v 0.017320 0.008820 -0.011114
v 0.017290 0.008850 -0.011097
v 0.017290 0.008833 -0.011114
v 0.017292 0.008833 -0.011114
v 0.017290 0.008850 -0.011097
v 0.017292 0.008833 -0.011114
v 0.017293 0.008833 -0.011114
v 0.017290 0.008850 -0.011097
v 0.017293 0.008833 -0.011114
v 0.017293 0.008850 -0.011097
v 0.017293 0.008833 -0.011114
v 0.017295 0.008833 -0.011114
v 0.017293 0.008850 -0.011097
v 0.017295 0.008833 -0.011114
v 0.017297 0.008850 -0.011097
v 0.017293 0.008850 -0.011097
v 0.017296 0.008833 -0.011114
v 0.017297 0.008850 -0.011097
v 0.017295 0.008833 -0.011114
v 0.017300 0.008850 -0.011097
v 0.017297 0.008850 -0.011097
v 0.017296 0.008833 -0.011114
v 0.017300 0.008850 -0.011097
v 0.017296 0.008833 -0.011114
v 0.017298 0.008833 -0.011114
v 0.017300 0.008850 -0.011097
v 0.017298 0.008833 -0.011114
v 0.017300 0.008833 -0.011114
v 0.017300 0.008850 -0.011097
v 0.017300 0.008833 -0.011114
v 0.017303 0.008850 -0.011097
v 0.017300 0.008833 -0.011114
v 0.017301 0.008832 -0.011114
v 0.017303 0.008850 -0.011097
v 0.017301 0.008832 -0.011114
v 0.017307 0.008849 -0.011097
v 0.017303 0.008850 -0.011097
v 0.017303 0.008832 -0.011114
v 0.017307 0.008849 -0.011097
v 0.017301 0.008832 -0.011114
v 0.017310 0.008849 -0.011096
v 0.017307 0.008849 -0.011097
v 0.017303 0.008832 -0.011114
v 0.017310 0.008849 -0.011096
v 0.017303 0.008832 -0.011114
v 0.017304 0.008831 -0.011114
v 0.017310 0.008849 -0.011096
v 0.017304 0.008831 -0.011114
v 0.017306 0.008831 -0.011114
v 0.017310 0.008849 -0.011096
v 0.017306 0.008831 -0.011114
v 0.017313 0.008848 -0.011096
v 0.017306 0.008831 -0.011114
v 0.017308 0.008830 -0.011114
v 0.017313 0.008848 -0.011096
v 0.017308 0.008830 -0.011114
v 0.017317 0.008847 -0.011095
v 0.017313 0.008848 -0.011096
v 0.017309 0.008830 -0.011114
v 0.017317 0.008847 -0.011095
v 0.017308 0.008830 -0.011114
v 0.017320 0.008846 -0.011094
v 0.017317 0.008847 -0.011095
v 0.017309 0.008830 -0.011114
v 0.017320 0.008846 -0.011094
v 0.017309 0.008830 -0.011114
v 0.017310 0.008829 -0.011114
v 0.017320 0.008846 -0.011094
v 0.017310 0.008829 -0.011114
v 0.017323 0.008845 -0.011094
v 0.017310 0.008829 -0.011114
v 0.017312 0.008828 -0.011114
v 0.017323 0.008845 -0.011094
v 0.017312 0.008828 -0.011114
v 0.017326 0.008844 -0.011093
v 0.017323 0.008845 -0.011094
v 0.017313 0.008827 -0.011114
v 0.017326 0.008844 -0.011093
v 0.017312 0.008828 -0.011114
v 0.017314 0.008826 -0.011114
v 0.017329 0.008843 -0.011092
v 0.017326 0.008844 -0.011093
v 0.017316 0.008825 -0.011114
v 0.017332 0.008842 -0.011091
v 0.017329 0.008843 -0.011092
v 0.017317 0.008824 -0.011114
v 0.017335 0.008840 -0.011090
v 0.017332 0.008842 -0.011091
v 0.017318 0.008822 -0.011114
v 0.017319 0.008821 -0.011114
v 0.017338 0.008839 -0.011089
v 0.017319 0.008821 -0.011114
v 0.017320 0.008820 -0.011114
v 0.017340 0.008837 -0.011088
v 0.017320 0.008820 -0.011114
v 0.017343 0.008834 -0.011087
v 0.017320 0.008820 -0.011114
v 0.017345 0.008831 -0.011087
v 0.017343 0.008834 -0.011087
v 0.017321 0.008819 -0.011114
v 0.017347 0.008827 -0.011087
v 0.017345 0.008831 -0.011087
v 0.017321 0.008817 -0.011114
v 0.017323 0.008814 -0.011114
v 0.017349 0.008823 -0.011087
v 0.017347 0.008827 -0.011087
v 0.017323 0.008813 -0.011114
v 0.017350 0.008819 -0.011087
v 0.017349 0.008823 -0.011087
v 0.017324 0.008811 -0.011114
v 0.017351 0.008815 -0.011087
v 0.017350 0.008819 -0.011087
v 0.017324 0.008809 -0.011114
v 0.017325 0.008808 -0.011114
v 0.017351 0.008815 -0.011087
v 0.017352 0.008811 -0.011087
v 0.017325 0.008806 -0.011114
v 0.017352 0.008807 -0.011087
v 0.017325 0.008801 -0.011114
v 0.017352 0.008799 -0.011087
v 0.017352 0.008803 -0.011087
v 0.017325 0.008800 -0.011114
v 0.017352 0.008795 -0.011087
v 0.017352 0.008799 -0.011087
v 0.017325 0.008798 -0.011114
v 0.017324 0.008797 -0.011114
v 0.017351 0.008791 -0.011087
v 0.017351 0.008791 -0.011087
v 0.017324 0.008795 -0.011114
v 0.017350 0.008787 -0.011087
v 0.017349 0.008783 -0.011087
v 0.017323 0.008793 -0.011114
v 0.017323 0.008792 -0.011114
v 0.017347 0.008779 -0.011087
v 0.017323 0.008792 -0.011114
v 0.017322 0.008790 -0.011114
v 0.017345 0.008775 -0.011087
v 0.017347 0.008779 -0.011087
v 0.017321 0.008789 -0.011114
v 0.017320 0.008786 -0.011114
v 0.017343 0.008772 -0.011087
v 0.017321 0.008787 -0.011114
v 0.017320 0.008786 -0.011114
v 0.017340 0.008769 -0.011088
v 0.017320 0.008786 -0.011114
v 0.017319 0.008785 -0.011114
v 0.017338 0.008767 -0.011089
v 0.017319 0.008785 -0.011114
v 0.017318 0.008784 -0.011114
v 0.017332 0.008764 -0.011091
v 0.017335 0.008766 -0.011090
v 0.017317 0.008782 -0.011114
v 0.017326 0.008762 -0.011093
v 0.017313 0.008779 -0.011114
v 0.017312 0.008778 -0.011114
v 0.017320 0.008760 -0.011094
v 0.017323 0.008761 -0.011094
v 0.017310 0.008777 -0.011114
v 0.017317 0.008759 -0.011095
v 0.017320 0.008760 -0.011094
v 0.017309 0.008776 -0.011114
v 0.017310 0.008757 -0.011096
v 0.017304 0.008775 -0.011114
v 0.017303 0.008774 -0.011114
v 0.017300 0.008773 -0.011114
v 0.017304 0.008756 -0.011097
v 0.017301 0.008774 -0.011114
v 0.017298 0.008773 -0.011114
v 0.017300 0.008756 -0.011097
v 0.017300 0.008773 -0.011114
v 0.017296 0.008773 -0.011114
v 0.017297 0.008756 -0.011097
v 0.017300 0.008756 -0.011097
v 0.017293 0.008756 -0.011097
v 0.017297 0.008756 -0.011097
v 0.017295 0.008773 -0.011114
v 0.017292 0.008773 -0.011114
v 0.017290 0.008773 -0.011114
v 0.017290 0.008756 -0.011097
v 0.017307 0.008757 -0.011097
v 0.017303 0.008774 -0.011114
v 0.017301 0.008774 -0.011114
v 0.017308 0.008776 -0.011114
v 0.017306 0.008775 -0.011114
v 0.017313 0.008758 -0.011096
v 0.017293 0.008773 -0.011114
v 0.017292 0.008773 -0.011114
v 0.017290 0.008756 -0.011097
v 0.017375 0.008835 -0.011087
v 0.017375 0.008835 -0.011087
v 0.017375 0.008836 -0.011087
v 0.017375 0.008836 -0.011087
v 0.017343 0.008835 -0.011087
v 0.017343 0.008835 -0.011087
v 0.017375 0.008836 -0.011087
v 0.017375 0.008836 -0.011087
v 0.017341 0.008836 -0.011088
v 0.017341 0.008836 -0.011088
v 0.017342 0.008836 -0.011087
v 0.017342 0.008836 -0.011087
v 0.017343 0.008835 -0.011087
v 0.017375 0.008836 -0.011087
v 0.017342 0.008836 -0.011087
v 0.017375 0.008836 -0.011087
v 0.017342 0.008770 -0.011087
v 0.017341 0.008770 -0.011088
v 0.017341 0.008770 -0.011088
v 0.017342 0.008770 -0.011087
v 0.017375 0.008770 -0.011087
v 0.017375 0.008771 -0.011087
v 0.017375 0.008771 -0.011087
v 0.017375 0.008770 -0.011087
v 0.017375 0.008770 -0.011087
v 0.017343 0.008771 -0.011087
v 0.017375 0.008770 -0.011087
v 0.017375 0.008770 -0.011087
v 0.017343 0.008771 -0.011087
v 0.017375 0.008770 -0.011087
v 0.017343 0.008771 -0.011087
v 0.017342 0.008770 -0.011087
vn -1.0000 0.0001 -0.0000
vn -1.0000 -0.0001 -0.0000
vn -1.0000 -0.0000 -0.0000
vn -0.0000 -0.7940 0.6079
vn -0.0001 -0.7940 0.6079
vn -0.0000 -0.7816 0.6238
vn -0.0000 -0.7739 0.6333
vn -0.0000 -0.7688 0.6395
vn -0.0000 -0.7815 0.6239
vn -0.0000 -0.7530 0.6580
vn -0.0000 -0.7558 0.6548
vn -0.0000 -0.7424 0.6700
vn -0.0000 -0.7557 0.6549
vn 0.0001 -0.7424 0.6700
vn -0.0000 -0.7313 0.6820
vn -0.0000 -0.7287 0.6848
vn -0.0000 -0.7147 0.6994
vn -0.0000 -0.7314 0.6820
vn -0.0000 -0.7423 0.6700
vn -0.0000 -0.7313 0.6821
vn -0.0000 -0.7089 0.7053
vn -0.0000 -0.7004 0.7137
vn -0.0000 -0.6857 0.7279
vn -0.0000 -0.6859 0.7277
vn -0.0000 -0.6710 0.7414
vn -0.0000 -0.6618 0.7497
vn -0.0000 -0.6559 0.7548
vn -0.0000 -0.6372 0.7707
vn -0.0000 -0.6124 0.7905
vn -0.0000 -0.6119 0.7910
vn -0.0000 -0.6617 0.7497
vn -0.0000 -0.6371 0.7708
vn -0.0000 -0.6124 0.7906
vn -0.0000 -0.6406 0.7679
vn -0.0000 -0.6118 0.7910
vn -0.0000 -0.6106 0.7919
vn -0.0000 -0.6107 0.7919
vn -0.0001 -0.6090 0.7932
vn -0.0000 -0.6405 0.7679
vn -0.0001 -0.6249 0.7807
vn -0.0000 -0.6068 0.7948
vn -0.0000 -0.6010 0.7992
vn -0.0000 -0.6041 0.7969
vn -0.0000 -0.5599 0.8286
vn -0.0000 -0.5665 0.8241
vn 0.0002 -0.5764 0.8172
vn 0.0002 -0.5727 0.8198
vn -0.0000 -0.5785 0.8157
vn -0.0002 -0.5928 0.8053
vn -0.0000 -0.5839 0.8118
vn -0.0000 -0.5889 0.8082
vn -0.0000 -0.6091 0.7931
vn -0.0000 -0.5934 0.8049
vn -0.0000 -0.5975 0.8019
vn -0.0000 -0.6090 0.7932
vn -0.0000 -0.0000 1.0000
vn 0.0001 -0.0000 1.0000
vn -0.0000 0.6372 0.7707
vn -0.0000 0.6124 0.7905
vn -0.0000 0.6124 0.7906
vn -0.0000 0.6118 0.7910
vn -0.0000 0.6107 0.7918
vn -0.0000 0.6090 0.7932
vn -0.0000 0.6859 0.7277
vn 0.0001 0.7004 0.7138
vn -0.0000 0.6857 0.7279
vn -0.0000 0.7286 0.6849
vn -0.0003 0.7313 0.6820
vn -0.0000 0.7148 0.6994
vn 0.0001 0.7424 0.6700
vn 0.0002 0.7530 0.6580
vn -0.0000 0.6119 0.7909
vn -0.0000 0.7940 0.6079
vn 0.0001 0.7816 0.6238
vn -0.0003 0.7739 0.6333
vn -0.0000 0.7687 0.6396
vn -0.0000 0.7558 0.6548
vn 0.0002 0.7089 0.7053
vn 0.0001 0.6711 0.7414
vn -0.0003 0.6617 0.7497
vn -0.0000 0.6559 0.7549
vn -0.0000 0.6068 0.7948
vn -0.0001 0.6405 0.7680
vn -0.0000 0.6041 0.7969
vn -0.0000 0.6249 0.7807
vn -0.0000 0.6011 0.7992
vn -0.0000 0.5974 0.8019
vn -0.0000 0.6091 0.7931
vn -0.0000 0.5888 0.8083
vn -0.0000 0.5839 0.8118
vn -0.0001 0.5928 0.8053
vn -0.0000 0.5599 0.8286
vn 0.0002 0.5764 0.8172
vn -0.0000 0.5598 0.8286
vn -0.0000 0.5665 0.8241
vn -0.0001 0.5726 0.8198
vn -0.0000 0.5785 0.8157
vn -0.0000 0.5933 0.8050
vn -1.0000 0.0002 -0.0000
vn 1.0000 -0.0000 -0.0000
vn 1.0000 -0.0000 0.0001
vn -0.0000 -0.0000 -1.0000
vn -0.0000 -1.0000 -0.0000
vn -0.0000 1.0000 -0.0000
vn -0.0001 -0.0000 -1.0000
vn 0.0001 -0.0000 -1.0000
vn 0.0002 -0.0000 -1.0000
vn -0.0002 -0.0000 -1.0000
vn 0.1129 -0.9936 -0.0000
vn 0.0588 -0.9983 -0.0000
vn 0.0587 -0.9983 -0.0000
vn 0.0045 -1.0000 -0.0000
vn -0.0498 -0.9988 -0.0000
vn -0.1039 -0.9946 -0.0000
vn -0.1578 -0.9875 -0.0000
vn -0.1040 -0.9946 -0.0000
vn -0.2112 -0.9774 -0.0000
vn -0.2639 -0.9646 -0.0000
vn -0.2111 -0.9775 -0.0000
vn -0.3159 -0.9488 -0.0000
vn -0.2640 -0.9645 -0.0000
vn -0.3160 -0.9488 -0.0000
vn -0.3670 -0.9302 -0.0000
vn -0.4170 -0.9089 -0.0000
vn -0.4657 -0.8850 -0.0000
vn -0.4656 -0.8850 -0.0000
vn -0.4658 -0.8849 -0.0000
vn -0.5130 -0.8584 -0.0000
vn -0.5130 -0.8584 -0.0001
vn -0.5131 -0.8584 -0.0000
vn -0.5588 -0.8293 -0.0000
vn -0.5131 -0.8583 -0.0000
vn -0.5590 -0.8292 -0.0000
vn -0.6031 -0.7977 -0.0000
vn -0.6031 -0.7976 -0.0000
vn -0.5589 -0.8292 -0.0000
vn -0.6455 -0.7638 -0.0000
vn -0.6860 -0.7276 -0.0000
vn -0.7245 -0.6893 -0.0000
vn -0.7609 -0.6489 -0.0000
vn -0.7949 -0.6067 -0.0000
vn -0.7950 -0.6066 -0.0000
vn -0.8267 -0.5627 -0.0000
vn -0.8267 -0.5626 -0.0000
vn -0.8560 -0.5170 -0.0000
vn -0.8560 -0.5169 -0.0000
vn -0.8561 -0.5169 -0.0000
vn -0.8828 -0.4697 -0.0000
vn -0.8829 -0.4697 0.0001
vn -0.9070 -0.4211 -0.0000
vn -0.8829 -0.4696 -0.0000
vn -0.9285 -0.3712 -0.0000
vn -0.9286 -0.3712 -0.0000
vn -0.9071 -0.4210 -0.0000
vn -0.9474 -0.3202 -0.0000
vn -0.9286 -0.3711 -0.0000
vn -0.9633 -0.2684 -0.0000
vn -0.9473 -0.3202 -0.0000
vn -0.9633 -0.2683 -0.0000
vn -0.9765 -0.2156 -0.0000
vn -0.9634 -0.2682 -0.0000
vn -0.9765 -0.2155 -0.0000
vn -0.9867 -0.1623 -0.0000
vn -0.9868 -0.1622 -0.0000
vn -0.9941 -0.1085 -0.0000
vn -0.9941 -0.1084 -0.0000
vn -0.9985 -0.0543 -0.0000
vn -0.9985 0.0543 -0.0000
vn -0.9941 0.1084 -0.0000
vn -0.9868 0.1622 -0.0000
vn -0.9941 0.1085 -0.0000
vn -0.9765 0.2155 -0.0000
vn -0.9867 0.1623 -0.0000
vn -0.9634 0.2682 -0.0000
vn -0.9765 0.2156 -0.0000
vn -0.9474 0.3202 -0.0000
vn -0.9633 0.2684 -0.0000
vn -0.9473 0.3202 -0.0000
vn -0.9286 0.3711 -0.0000
vn -0.9285 0.3712 -0.0000
vn -0.9286 0.3712 -0.0000
vn -0.9071 0.4210 -0.0000
vn -0.9070 0.4211 -0.0000
vn -0.8829 0.4696 -0.0000
vn -0.8829 0.4697 -0.0001
vn -0.8828 0.4697 -0.0000
vn -0.8561 0.5169 -0.0000
vn -0.8560 0.5170 -0.0000
vn -0.8267 0.5626 -0.0000
vn -0.8267 0.5627 -0.0000
vn -0.8560 0.5169 -0.0000
vn -0.7950 0.6066 -0.0000
vn -0.7609 0.6489 -0.0000
vn -0.7949 0.6067 -0.0000
vn -0.7245 0.6893 -0.0000
vn -0.6860 0.7276 -0.0000
vn -0.6455 0.7638 -0.0000
vn -0.6031 0.7977 -0.0000
vn 0.1129 0.9936 -0.0000
vn 0.0588 0.9983 -0.0000
vn 0.1666 0.9860 -0.0000
vn 0.0045 1.0000 -0.0000
vn 0.0587 0.9983 -0.0000
vn -0.0498 0.9988 -0.0000
vn -0.1039 0.9946 -0.0000
vn -0.1578 0.9875 -0.0000
vn -0.1040 0.9946 -0.0000
vn -0.2112 0.9774 -0.0000
vn -0.1577 0.9875 -0.0000
vn -0.2111 0.9775 -0.0000
vn -0.2639 0.9646 -0.0000
vn -0.3159 0.9488 -0.0000
vn -0.2640 0.9645 -0.0000
vn -0.3160 0.9488 -0.0000
vn -0.3670 0.9302 -0.0000
vn -0.3669 0.9303 -0.0000
vn -0.4170 0.9089 -0.0000
vn -0.4169 0.9089 -0.0000
vn -0.4657 0.8850 -0.0000
vn -0.4656 0.8850 -0.0000
vn -0.4658 0.8849 -0.0000
vn -0.5130 0.8584 -0.0000
vn -0.5131 0.8584 -0.0000
vn -0.5588 0.8293 -0.0000
vn -0.5131 0.8583 -0.0000
vn -0.5590 0.8292 -0.0000
vn -0.5589 0.8292 -0.0000
vn -0.6031 0.7976 -0.0000
vn -0.6455 0.7637 -0.0000
vn -0.9633 0.2683 -0.0000
vn -0.7245 -0.6892 -0.0000
vn -0.4657 -0.8849 -0.0000
vn -0.4169 -0.9089 -0.0000
vn -0.3669 -0.9303 -0.0000
vn 0.1666 -0.9860 -0.0000
vn -0.1577 -0.9875 -0.0000
vn 0.0238 0.7067 0.7071
vn 0.0032 0.7071 0.7071
vn 0.0415 0.7059 0.7071
vn 0.0239 0.7067 0.7071
vn 0.0416 0.7059 0.7071
vn 0.0748 0.7031 0.7071
vn -0.0269 0.7066 0.7071
vn -0.0352 0.7062 0.7071
vn -0.0735 0.7033 0.7071
vn -0.0773 0.7029 0.7071
vn -0.1116 0.6982 0.7071
vn -0.0773 0.7027 0.7073
vn -0.1269 0.6956 0.7071
vn -0.1493 0.6912 0.7071
vn -0.1752 0.6851 0.7071
vn -0.1866 0.6820 0.7071
vn -0.2220 0.6714 0.7071
vn -0.2234 0.6709 0.7071
vn -0.2595 0.6578 0.7071
vn -0.2669 0.6548 0.7071
vn -0.3098 0.6356 0.7071
vn -0.2948 0.6427 0.7071
vn -0.3098 0.6357 0.7071
vn -0.3293 0.6258 0.7071
vn -0.3505 0.6142 0.7071
vn -0.3628 0.6070 0.7071
vn -0.3886 0.5908 0.7071
vn -0.3955 0.5871 0.7063
vn -0.4244 0.5656 0.7071
vn -0.3952 0.5864 0.7071
vn -0.4564 0.5401 0.7071
vn -0.4264 0.5640 0.7071
vn -0.4243 0.5656 0.7071
vn -0.4576 0.5391 0.7071
vn -0.4851 0.5145 0.7071
vn -0.4883 0.5114 0.7071
vn -0.5123 0.4874 0.7071
vn -0.5165 0.4829 0.7071
vn -0.5380 0.4588 0.7071
vn -0.5424 0.4537 0.7071
vn -0.5380 0.4589 0.7071
vn -0.5424 0.4536 0.7071
vn -0.5658 0.4241 0.7071
vn -0.5621 0.4290 0.7071
vn -0.5729 0.4145 0.7071
vn -0.5846 0.3978 0.7071
vn -0.5729 0.4144 0.7071
vn -0.5799 0.4046 0.7071
vn -0.5871 0.3942 0.7071
vn -0.5942 0.3833 0.7071
vn -0.6053 0.3655 0.7071
vn -0.6201 0.3399 0.7071
vn -0.6201 0.3398 0.7071
vn -0.6244 0.3321 0.7070
vn -0.6243 0.3321 0.7071
vn -0.6428 0.2946 0.7071
vn -0.6414 0.2977 0.7071
vn -0.6622 0.2479 0.7071
vn -0.6566 0.2624 0.7071
vn -0.6623 0.2478 0.7071
vn -0.6783 0.1998 0.7071
vn -0.6699 0.2264 0.7071
vn -0.6812 0.1897 0.7071
vn -0.6908 0.1508 0.7071
vn -0.6905 0.1524 0.7071
vn -0.6812 0.1896 0.7071
vn -0.6999 0.1010 0.7071
vn -0.6977 0.1148 0.7071
vn -0.6909 0.1507 0.7071
vn -0.7029 0.0767 0.7071
vn -0.6977 0.1147 0.7071
vn -0.6999 0.1009 0.7071
vn -0.7061 0.0384 0.7071
vn -0.7029 0.0766 0.7071
vn -0.7053 0.0506 0.7071
vn -0.7071 -0.0000 0.7071
vn -0.7065 -0.0384 0.7067
vn -0.7070 -0.0000 0.7072
vn -0.7061 -0.0384 0.7071
vn -0.7073 -0.0000 0.7069
vn -0.7053 -0.0506 0.7071
vn -0.7030 -0.0766 0.7071
vn -0.7029 -0.0766 0.7071
vn -0.6999 -0.1009 0.7071
vn -0.6978 -0.1147 0.7071
vn -0.6999 -0.1010 0.7071
vn -0.6909 -0.1507 0.7071
vn -0.6977 -0.1148 0.7071
vn -0.6908 -0.1508 0.7071
vn -0.6812 -0.1896 0.7071
vn -0.6905 -0.1525 0.7071
vn -0.6783 -0.1998 0.7071
vn -0.6699 -0.2264 0.7071
vn -0.6812 -0.1897 0.7071
vn -0.6623 -0.2478 0.7071
vn -0.6566 -0.2624 0.7071
vn -0.6699 -0.2263 0.7071
vn -0.6428 -0.2946 0.7071
vn -0.6416 -0.2977 0.7069
vn -0.6243 -0.3321 0.7071
vn -0.6414 -0.2977 0.7071
vn -0.6054 -0.3655 0.7070
vn -0.6201 -0.3398 0.7071
vn -0.5846 -0.3978 0.7071
vn -0.6053 -0.3655 0.7071
vn -0.5942 -0.3834 0.7071
vn -0.5799 -0.4046 0.7071
vn -0.5870 -0.3942 0.7071
vn -0.5166 -0.4828 0.7071
vn -0.5380 -0.4588 0.7071
vn -0.5424 -0.4537 0.7071
vn -0.5621 -0.4290 0.7071
vn -0.5658 -0.4241 0.7071
vn -0.5424 -0.4536 0.7071
vn -0.5123 -0.4874 0.7071
vn -0.5166 -0.4829 0.7071
vn -0.4851 -0.5145 0.7071
vn -0.4883 -0.5114 0.7071
vn -0.4564 -0.5401 0.7071
vn -0.4576 -0.5391 0.7071
vn -0.4261 -0.5636 0.7076
vn -0.4242 -0.5657 0.7071
vn -0.5729 -0.4145 0.7071
vn 0.0749 -0.7031 0.7071
vn 0.1179 -0.6972 0.7071
vn 0.0798 -0.7026 0.7071
vn 0.0748 -0.7031 0.7071
vn 0.0799 -0.7027 0.7070
vn 0.0415 -0.7059 0.7071
vn 0.0416 -0.7059 0.7071
vn 0.0242 -0.7069 0.7069
vn 0.0032 -0.7071 0.7071
vn 0.0242 -0.7067 0.7071
vn -0.0265 -0.7066 0.7072
vn -0.0352 -0.7062 0.7071
vn -0.0265 -0.7066 0.7071
vn -0.0768 -0.7029 0.7071
vn -0.0735 -0.7033 0.7071
vn -0.1116 -0.6982 0.7071
vn -0.1263 -0.6957 0.7071
vn -0.1493 -0.6912 0.7071
vn -0.1494 -0.6912 0.7071
vn -0.1746 -0.6852 0.7071
vn -0.1866 -0.6820 0.7071
vn -0.1492 -0.6912 0.7071
vn -0.2214 -0.6716 0.7071
vn -0.1867 -0.6820 0.7071
vn -0.2215 -0.6715 0.7071
vn -0.2234 -0.6709 0.7071
vn -0.2214 -0.6715 0.7071
vn -0.2595 -0.6578 0.7071
vn -0.2664 -0.6550 0.7071
vn -0.2948 -0.6427 0.7071
vn -0.2665 -0.6550 0.7071
vn -0.3094 -0.6358 0.7071
vn -0.3293 -0.6258 0.7071
vn -0.3501 -0.6143 0.7071
vn -0.3293 -0.6257 0.7071
vn -0.3501 -0.6144 0.7071
vn -0.3628 -0.6070 0.7071
vn -0.3627 -0.6070 0.7071
vn -0.3884 -0.5909 0.7071
vn -0.3952 -0.5864 0.7071
vn -0.4243 -0.5657 0.7071
vn -0.4264 -0.5641 0.7071
vn -0.5381 -0.4590 0.7069
vn -0.5622 -0.4290 0.7070
vn -0.5728 -0.4145 0.7071
vn -0.5942 -0.3833 0.7071
vn -0.6201 -0.3399 0.7071
vn -0.6622 -0.2479 0.7071
vn -0.6905 -0.1524 0.7071
vn -0.6908 -0.1509 0.7071
vn -0.7030 0.0766 0.7071
vn -0.6623 0.2477 0.7071
vn -0.6566 0.2623 0.7071
vn -0.6568 0.2625 0.7069
vn -0.5942 0.3834 0.7071
vn -0.5870 0.3942 0.7071
vn -0.5846 0.3979 0.7071
vn -0.5847 0.3979 0.7070
vn -0.5622 0.4291 0.7070
vn -0.4265 0.5640 0.7071
vn -0.3504 0.6142 0.7071
vn -0.1867 0.6820 0.7071
vn -0.0269 0.7067 0.7070
vn 0.0239 0.7066 0.7072
vn -0.0270 0.7066 0.7071
vn 0.0798 0.7026 0.7071
vn 0.1179 0.6972 0.7071
vn 0.0749 0.7031 0.7071
vn -0.1492 0.6912 0.7071
vn 0.0415 0.7060 0.7070
vn -0.0000 0.1480 0.9890
vn -0.0000 0.2928 0.9562
vn -0.0000 0.2927 0.9562
vn -0.0000 0.1690 0.9856
vn -0.0000 0.4310 0.9024
vn -0.0000 0.4459 0.8951
vn -0.0001 0.4459 0.8951
vn -0.0000 0.3165 0.9486
vn -0.0000 0.3164 0.9486
vn -0.0000 0.4311 0.9023
vn -0.0001 -0.3164 0.9486
vn -0.0000 -0.4459 0.8951
vn -0.0000 -0.3164 0.9486
vn -0.0000 -0.5599 0.8285
vn -0.0000 -0.4311 0.9023
vn -0.0000 -0.1480 0.9890
vn -0.0000 -0.2927 0.9562
vn -0.0001 -0.0000 1.0000
vn -0.0000 -0.1687 0.9857
vn -0.0000 -0.2928 0.9562
vn -0.0000 -0.1689 0.9856
vn -0.0000 -0.4310 0.9024
vn -0.0000 -0.3163 0.9487
s 1
usemtl Diffuse_51_51_51_100.029
f 1//1 2//2 3//3
f 1//1 3//3 4//3
f 3//3 5//3 4//3
f 5//3 6//3 4//3
f 4//3 7//2 8//2
f 4//3 8//2 9//3
f 8//2 10//3 9//3
f 9//3 10//3 11//3
f 7//2 4//3 6//3
f 9//3 11//3 12//1
f 13//4 14//5 15//6
f 16//7 17//4 15//6
f 18//8 19//7 15//9
f 18//8 20//10 21//7
f 22//10 18//8 23//11
f 24//12 25//10 23//13
f 24//14 26//15 27//10
f 28//16 29//17 30//18
f 24//19 28//16 31//20
f 32//15 29//17 33//21
f 34//21 29//17 35//22
f 36//23 37//21 35//22
f 38//24 39//23 35//22
f 38//24 40//25 41//23
f 42//23 40//25 43//26
f 44//26 40//25 45//27
f 46//28 47//29 48//30
f 49//28 50//31 45//27
f 47//29 51//32 52//33
f 53//34 54//32 45//27
f 55//35 56//28 57//36
f 57//37 58//32 59//38
f 53//39 60//40 61//41
f 60//40 62//42 63//43
f 64//44 65//45 66//46
f 66//46 67//44 64//44
f 68//47 66//46 65//45
f 68//47 69//48 66//46
f 66//46 69//48 70//49
f 70//49 69//48 71//50
f 72//51 70//49 71//50
f 72//51 73//52 70//49
f 72//51 74//53 73//52
f 73//52 74//53 75//54
f 62//42 73//52 75//54
f 62//42 60//40 73//52
f 63//43 61//41 60//40
f 61//41 59//55 53//39
f 53//39 59//55 76//28
f 77//28 55//35 52//33
f 78//56 79//57 80//56
f 81//56 82//56 80//56
f 83//56 81//56 80//56
f 84//56 83//56 80//56
f 85//56 84//56 80//56
f 86//56 85//56 80//56
f 87//56 86//56 80//56
f 88//56 87//56 80//56
f 79//57 88//56 80//56
f 89//57 79//57 78//56
f 78//56 90//57 89//57
f 78//56 91//56 90//57
f 78//56 92//56 91//56
f 78//56 93//56 92//56
f 94//56 78//56 95//56
f 94//56 96//56 78//56
f 78//56 96//56 93//56
f 97//58 98//59 99//60
f 100//61 97//58 99//60
f 100//61 101//62 97//58
f 97//58 101//62 102//63
f 103//64 104//65 105//66
f 106//67 107//68 108//69
f 109//70 110//71 107//68
f 111//72 98//59 97//58
f 112//73 113//74 114//73
f 112//73 115//75 113//74
f 113//74 115//75 116//76
f 116//76 115//75 110//71
f 117//77 116//76 110//71
f 109//70 117//77 110//71
f 107//68 118//78 108//69
f 108//69 118//78 104//65
f 104//65 118//78 105//66
f 119//79 105//66 120//80
f 120//80 97//58 121//81
f 102//63 122//82 123//83
f 122//82 124//84 125//85
f 126//86 127//87 128//88
f 129//89 130//90 131//91
f 132//92 133//93 134//94
f 134//94 133//93 135//95
f 135//95 133//93 136//96
f 136//96 133//93 137//97
f 137//97 133//93 131//91
f 130//90 137//97 131//91
f 129//89 131//91 128//88
f 138//98 129//89 128//88
f 126//86 125//85 124//84
f 126//86 128//88 125//85
f 125//85 123//83 122//82
f 123//83 97//58 102//63
f 123//83 121//81 97//58
f 121//81 119//79 120//80
f 105//66 119//79 103//64
f 109//70 107//68 106//67
f 138//98 128//88 127//87
f 139//3 140//3 141//3
f 139//2 142//2 143//2
f 139//3 144//3 145//3
f 139//3 146//3 147//3
f 141//99 148//99 149//99
f 141//3 150//3 151//3
f 141//3 152//3 153//3
f 154//3 155//3 156//3
f 141//1 157//1 158//1
f 155//3 141//3 159//3
f 160//100 161//100 162//100
f 163//100 164//100 165//100
s 0
f 166//100 167//100 168//100
f 167//100 169//100 170//100
f 169//56 171//100 172//101
s 1
f 173//100 174//100 175//100
f 176//100 177//100 178//100
f 179//100 180//100 181//100
f 182//100 183//100 184//100
f 185//100 186//100 187//100
f 188//100 189//100 190//100
f 191//100 192//100 193//100
f 194//100 195//100 196//100
f 197//100 198//100 199//100
f 200//100 201//100 202//100
f 203//100 204//100 205//100
f 206//100 207//100 208//100
f 209//100 210//100 211//100
f 212//100 213//100 214//100
f 215//100 216//100 217//100
f 218//100 219//100 220//100
f 216//100 221//100 222//100
f 223//100 224//100 216//100
f 225//100 226//100 227//100
f 228//100 229//100 227//100
f 230//100 231//100 227//100
f 232//100 233//100 227//100
f 234//100 235//100 227//100
f 236//100 237//100 227//100
f 238//100 239//100 227//100
f 227//100 240//100 216//100
f 241//100 242//100 216//100
f 243//100 244//100 216//100
f 245//100 246//100 216//100
f 247//100 227//100 248//100
f 249//100 250//100 251//100
f 252//100 253//100 216//100
f 254//100 255//100 256//100
s 0
f 257//100 258//100 259//102
f 260//100 261//100 259//100
f 262//100 263//100 257//100
s 1
f 264//100 265//100 266//100
f 267//103 268//103 269//103
f 270//103 271//103 272//103
f 273//104 274//104 275//104
f 276//104 277//104 278//104
f 279//105 280//105 281//105
f 282//106 283//106 284//106
f 285//102 286//102 287//102
f 288//102 289//102 285//102
f 290//102 291//102 289//102
f 292//102 293//102 291//102
f 294//102 295//102 293//102
f 296//102 297//102 295//102
f 298//105 299//105 297//105
f 300//102 301//102 299//102
f 302//102 303//102 301//102
f 304//102 305//102 303//102
f 306//107 307//107 305//107
f 308//102 309//102 307//102
f 310//102 311//102 309//102
f 309//102 312//102 313//102
f 313//105 314//105 315//105
f 315//102 316//102 317//102
f 317//102 318//102 319//102
f 319//102 320//102 321//102
f 321//102 322//102 323//102
f 323//102 324//102 325//102
f 325//102 326//102 327//102
f 327//102 328//102 329//102
f 329//102 330//102 331//102
f 332//102 333//102 334//102
f 335//107 333//107 336//107
f 337//102 332//102 338//102
f 339//102 337//102 340//102
f 341//102 339//102 342//102
f 343//102 341//102 344//102
f 345//102 343//102 346//102
f 347//102 345//102 348//102
f 284//102 347//102 349//102
f 350//102 351//102 284//102
f 352//102 353//102 283//102
f 354//106 355//106 353//106
f 356//102 357//102 355//102
f 358//102 359//102 357//102
f 360//108 361//108 359//108
f 362//102 363//102 364//102
f 362//102 365//102 366//102
f 364//102 367//102 368//102
f 368//102 369//102 370//102
f 370//102 371//102 372//102
f 372//102 373//102 374//102
f 374//102 375//102 376//102
f 376//102 377//102 378//102
f 378//102 379//102 380//102
f 380//102 381//102 382//102
f 382//105 383//105 384//105
f 384//102 385//102 386//102
f 386//102 387//102 388//102
f 388//102 389//102 390//102
f 391//102 281//102 388//102
f 392//102 280//102 393//102
f 394//102 392//102 395//102
f 396//102 394//102 397//102
f 398//102 399//102 396//102
f 400//102 401//102 399//102
f 402//102 403//102 401//102
f 404//102 405//102 403//102
f 406//102 407//102 405//102
f 331//102 408//102 336//102
f 409//102 410//102 407//102
f 411//105 365//105 361//105
f 410//102 412//102 413//102
f 414//109 415//110 416//109
f 417//111 418//112 419//111
f 420//112 421//112 419//111
f 422//113 423//113 421//112
f 424//114 425//114 423//113
f 426//115 427//115 425//116
f 428//117 427//115 429//115
f 430//118 431//119 432//119
f 433//118 431//119 434//118
f 435//120 433//121 436//120
f 435//122 437//122 438//123
f 439//123 440//123 441//124
f 442//124 443//124 444//125
f 442//124 445//126 446//126
f 446//127 447//128 448//129
f 449//130 450//131 448//132
f 451//133 452//134 453//133
f 454//134 455//135 453//136
f 456//137 457//137 455//134
f 458//138 457//137 459//137
f 460//139 461//138 462//138
f 463//139 461//138 464//139
f 465//140 463//139 466//140
f 465//140 467//140 468//141
f 469//142 470//142 471//143
f 469//142 472//144 473//143
f 473//144 474//145 475//146
f 476//147 477//148 475//147
f 478//149 479//150 480//151
f 481//150 482//150 480//151
f 483//152 484//153 482//154
f 485//155 484//156 486//156
f 487//157 488//158 489//158
f 490//159 488//158 491//157
f 492//160 490//161 493//160
f 492//162 494//162 495//163
f 496//164 497//164 498//165
f 496//164 499//165 500//165
f 500//166 501//167 502//167
f 503//167 504//3 502//167
f 505//3 506//168 507//3
f 508//168 509//168 507//3
f 510//169 511//169 509//168
f 512//170 511//171 513//171
f 514//172 515//173 516//173
f 517//174 518//175 519//175
f 520//174 518//175 521//174
f 522//176 520//177 523//178
f 522//176 524//176 525//179
f 526//180 527//181 528//182
f 526//180 529//182 530//182
f 530//183 531//184 532//185
f 533//186 534//187 532//186
f 535//188 536//189 537//188
f 538//190 539//189 537//191
f 540//192 541//192 539//190
f 542//193 541//194 543//194
f 544//195 545//193 546//193
f 547//195 545//193 548//195
f 549//196 547//195 550//196
f 549//196 551//196 552//197
f 553//197 554//197 555//198
f 553//197 556//198 557//198
f 558//199 559//200 560//199
f 561//201 562//201 558//199
f 563//201 558//199 564//199
f 559//200 565//200 566//199
f 567//202 568//203 559//203
f 569//202 570//203 567//202
f 571//202 567//202 572//204
f 573//202 572//204 574//204
f 572//204 575//205 576//204
f 575//205 577//205 578//204
f 579//206 580//207 575//207
f 581//206 582//207 579//206
f 583//206 579//206 584//208
f 585//209 584//208 586//208
f 584//210 587//211 588//210
f 587//211 589//211 590//210
f 591//212 592//213 587//213
f 593//212 594//213 591//212
f 595//214 591//214 596//215
f 597//214 596//216 598//216
f 596//215 599//217 600//215
f 599//218 601//218 602//215
f 603//219 604//217 599//217
f 605//220 606//217 603//220
f 607//221 603//221 608//222
f 609//221 608//222 610//222
f 608//223 611//224 612//225
f 611//224 613//224 614//223
f 557//198 615//226 611//227
f 616//198 617//227 557//228
f 549//196 618//229 553//197
f 547//195 619//195 620//196
f 545//193 541//194 621//193
f 622//192 539//189 623//190
f 624//187 537//187 532//186
f 625//183 626//184 530//183
f 522//176 627//179 526//179
f 520//177 628//230 629//176
f 518//172 515//173 630//172
f 515//170 511//171 631//170
f 632//169 509//168 633//168
f 634//3 507//3 502//167
f 635//166 636//167 500//166
f 492//162 637//163 496//163
f 490//161 638//161 639//160
f 488//155 484//156 640//155
f 641//152 482//154 642//154
f 643//148 480//148 475//147
f 644//144 645//145 473//144
f 465//140 646//141 469//141
f 463//139 647//231 648//140
f 461//138 457//137 649//138
f 650//137 455//134 651//134
f 652//131 453//131 448//130
f 653//127 654//128 446//232
f 439//123 655//233 442//233
f 435//122 656//234 439//234
f 433//121 657//121 658//120
f 659//116 660//115 425//116
f 421//112 661//112 662//113
f 416//109 663//235 664//109
f 416//109 665//235 666//235
f 667//117 431//117 427//236
f 423//113 668//113 669//114
f 419//110 416//109 670//110
f 671//237 672//238 673//239
f 674//240 675//241 676//242
f 677//243 678//244 679//238
f 680//245 681//244 682//246
f 683//247 684//248 685//249
f 686//250 687//249 688//251
f 689//252 690//251 691//253
f 692//254 693//253 694//255
f 695//253 696//256 697//255
f 698//256 699//257 700//258
f 701//259 702//260 703//258
f 704//261 705//262 706//260
f 707//263 708//264 709//262
f 710//265 711//266 712//263
f 713//267 714//268 715//269
f 716//267 717//265 718//270
f 719//267 720//270 721//271
f 722//270 723//272 724//271
f 725//273 726//274 727//275
f 728//272 729//273 730//271
f 731//274 732//276 733//277
f 734//278 735//279 736//280
f 737//279 738//281 739//282
f 738//283 740//284 741//282
f 742//282 743//285 744//286
f 745//287 746//286 747//288
f 748//287 749//289 750//290
f 751//291 752//292 753//293
f 754//292 755//294 756//295
f 757//296 758//297 759//298
f 760//297 761//299 762//298
f 763//300 764//301 765//302
f 766//303 767//304 768//305
f 769//306 770//307 771//308
f 772//309 773//310 774//311
f 775//312 776//309 777//312
f 778//313 779//314 780//314
f 781//315 782//316 783//317
f 784//315 785//317 786//318
f 787//319 788//320 789//321
f 790//322 791//323 792//324
f 793//325 794//326 795//327
f 796//328 797//329 798//330
f 799//331 800//332 801//333
f 802//334 803//335 804//332
f 805//336 806//337 807//334
f 808//338 809//336 810//339
f 811//340 812//341 813//342
f 814//343 815//340 816//344
f 817//345 818//346 819//347
f 820//348 821//349 822//350
f 823//351 824//346 825//352
f 826//353 827//351 828//354
f 829//355 830//353 831//356
f 832//357 833//355 834//358
f 835//359 836//349 837//340
f 838//360 839//361 840//362
f 841//363 842//364 843//365
f 844//363 845//366 846//367
f 847//365 848//368 849//369
f 850//368 851//370 852//369
f 853//371 854//372 855//368
f 856//373 857//372 858//371
f 859//373 860//371 861//374
f 862//373 863//374 864//375
f 865//373 866//375 867//376
f 868//375 869//377 870//376
f 871//378 872//379 873//376
f 874//380 875//379 876//381
f 877//382 878//379 879//383
f 880//384 881//383 882//385
f 883//386 884//385 885//387
f 886//386 887//387 888//388
f 889//387 890//389 891//390
f 892//389 893//391 894//390
f 895//392 896//391 897//389
f 898//393 899//391 900//394
f 901//395 902//392 903//396
f 904//393 905//397 906//398
f 907//396 908//399 909//398
f 910//399 911//400 912//398
f 913//401 914//358 915//399
f 916//355 917//356 918//358
f 919//353 920//354 921//356
f 922//351 923//352 924//354
f 925//402 926//348 927//347
f 928//403 929//340 930//349
f 931//340 814//343 835//404
f 932//405 816//344 933//340
f 934//406 935//405 936//341
f 937//334 938//339 939//336
f 940//332 941//407 942//334
f 943//329 944//328 945//331
f 946//330 947//325 948//328
f 949//408 950//324 951//409
f 952//320 953//318 954//317
f 955//309 956//311 957//314
f 958//410 959//308 960//311
f 961//304 962//301 963//300
f 964//300 965//299 966//297
f 967//411 968//298 969//412
f 970//292 971//413 972//293
f 973//289 974//292 975//291
f 976//282 977//414 978//287
f 740//284 743//415 979//416
f 980//279 981//417 982//280
f 983//276 984//418 985//277
f 986//272 987//274 988//273
f 989//269 990//419 991//266
f 992//420 993//263 994//262
f 995//257 996//420 997//260
f 998//253 999//254 1000//421
f 1001//247 1002//249 1003//250
f 1004//245 1005//246 1006//247
f 1007//244 1008//422 1009//246
f 1010//423 1011//424 1012//238
f 1013//425 1014//426 1015//427
f 1016//251 1017//252 1018//428
f 1019//258 1020//255 1021//256
f 1022//429 1023//425 1024//242
f 95//56 78//56 1025//430
f 1026//430 1027//431 95//56
f 95//56 1028//432 1029//433
s 0
f 1030//433 1031//56 1032//434
s 1
f 1033//435 132//92 134//94
f 1034//436 1035//437 132//92
f 1036//438 1037//433 1038//434
f 1039//437 1040//439 132//92
f 67//44 1041//440 1042//441
f 64//44 67//44 1043//441
f 1044//442 67//443 1045//444
f 80//56 82//56 1046//445
f 1047//445 82//57 1048//446
f 1049//446 82//447 1050//448
s 0
f 1051//56 1052//449 1053//450
s 1
f 1054//451 1055//450 1056//452
