# Blender 4.4.3
# www.blender.org
mtllib Mesh_20.013.mtl
o Mesh_20.013
v -0.000150 0.008710 -0.013552
v -0.000150 0.008710 -0.013543
v -0.000150 0.008716 -0.013537
v -0.000150 0.008773 -0.013552
v -0.000150 0.008721 -0.013530
v -0.000150 0.008726 -0.013524
v -0.000150 0.008732 -0.013519
v -0.000150 0.008738 -0.013513
v -0.000150 0.008773 -0.013514
v -0.000150 0.008744 -0.013508
v -0.000150 0.008750 -0.013502
v -0.000150 0.008756 -0.013497
v -0.000150 0.008710 -0.013543
v -0.000065 0.008710 -0.013543
v -0.000065 0.008714 -0.013539
v -0.000150 0.008716 -0.013537
v -0.000150 0.008710 -0.013543
v -0.000065 0.008717 -0.013535
v -0.000150 0.008716 -0.013537
v -0.000150 0.008721 -0.013530
v -0.000150 0.008716 -0.013537
v -0.000150 0.008721 -0.013530
v -0.000065 0.008720 -0.013531
v -0.000065 0.008723 -0.013527
v -0.000150 0.008721 -0.013530
v -0.000150 0.008726 -0.013524
v -0.000150 0.008721 -0.013530
v -0.000065 0.008727 -0.013524
v -0.000065 0.008730 -0.013520
v -0.000150 0.008726 -0.013524
v -0.000150 0.008726 -0.013524
v -0.000150 0.008726 -0.013524
v -0.000150 0.008732 -0.013519
v -0.000150 0.008732 -0.013519
v -0.000065 0.008734 -0.013517
v -0.000150 0.008738 -0.013513
v -0.000150 0.008732 -0.013519
v -0.000065 0.008738 -0.013513
v -0.000150 0.008738 -0.013513
v -0.000065 0.008741 -0.013510
v -0.000150 0.008738 -0.013513
v -0.000150 0.008738 -0.013513
v -0.000150 0.008744 -0.013508
v -0.000150 0.008744 -0.013508
v -0.000065 0.008745 -0.013506
v -0.000150 0.008750 -0.013502
v -0.000147 0.008756 -0.013497
v -0.000150 0.008756 -0.013497
v -0.000150 0.008750 -0.013502
v -0.000150 0.008744 -0.013508
v -0.000150 0.008750 -0.013502
v -0.000143 0.008756 -0.013497
v -0.000065 0.008749 -0.013503
v -0.000150 0.008750 -0.013502
v -0.000140 0.008756 -0.013497
v -0.000150 0.008750 -0.013502
v -0.000136 0.008756 -0.013497
v -0.000150 0.008750 -0.013502
v -0.000133 0.008757 -0.013497
v -0.000065 0.008753 -0.013500
v -0.000130 0.008757 -0.013496
v -0.000123 0.008759 -0.013495
v -0.000127 0.008758 -0.013496
v -0.000100 0.008769 -0.013488
v -0.000102 0.008767 -0.013489
v -0.000065 0.008765 -0.013491
v -0.000065 0.008769 -0.013488
v -0.000105 0.008766 -0.013490
v -0.000108 0.008764 -0.013491
v -0.000065 0.008761 -0.013494
v -0.000111 0.008763 -0.013492
v -0.000114 0.008762 -0.013493
v -0.000065 0.008757 -0.013497
v -0.000117 0.008761 -0.013494
v -0.000120 0.008760 -0.013494
v -0.000150 0.008750 -0.013502
v -0.000150 0.008750 -0.013502
v -0.000065 0.008834 -0.013487
v -0.000088 0.008803 -0.013487
v -0.000065 0.008772 -0.013487
v -0.000095 0.008775 -0.013487
v -0.000097 0.008772 -0.013487
v -0.000093 0.008779 -0.013487
v -0.000091 0.008783 -0.013487
v -0.000090 0.008787 -0.013487
v -0.000089 0.008791 -0.013487
v -0.000088 0.008795 -0.013487
v -0.000088 0.008799 -0.013487
v -0.000088 0.008807 -0.013487
v -0.000088 0.008811 -0.013487
v -0.000089 0.008815 -0.013487
v -0.000090 0.008819 -0.013487
v -0.000091 0.008823 -0.013487
v -0.000095 0.008831 -0.013487
v -0.000097 0.008834 -0.013487
v -0.000093 0.008827 -0.013487
v -0.000150 0.008856 -0.013502
v -0.000147 0.008850 -0.013497
v -0.000143 0.008850 -0.013497
v -0.000140 0.008850 -0.013497
v -0.000137 0.008850 -0.013497
v -0.000133 0.008849 -0.013497
v -0.000065 0.008868 -0.013513
v -0.000065 0.008872 -0.013517
v -0.000150 0.008868 -0.013513
v -0.000065 0.008879 -0.013524
v -0.000150 0.008880 -0.013524
v -0.000065 0.008876 -0.013520
v -0.000065 0.008883 -0.013527
v -0.000150 0.008885 -0.013530
v -0.000150 0.008850 -0.013497
v -0.000150 0.008895 -0.013543
v -0.000065 0.008892 -0.013539
v -0.000065 0.008895 -0.013543
v -0.000150 0.008890 -0.013537
v -0.000065 0.008889 -0.013535
v -0.000065 0.008886 -0.013531
v -0.000150 0.008874 -0.013519
v -0.000065 0.008865 -0.013510
v -0.000150 0.008862 -0.013508
v -0.000065 0.008861 -0.013506
v -0.000130 0.008849 -0.013496
v -0.000065 0.008857 -0.013503
v -0.000127 0.008848 -0.013496
v -0.000065 0.008853 -0.013500
v -0.000123 0.008847 -0.013495
v -0.000120 0.008846 -0.013494
v -0.000065 0.008849 -0.013497
v -0.000114 0.008844 -0.013493
v -0.000111 0.008843 -0.013492
v -0.000065 0.008845 -0.013494
v -0.000065 0.008837 -0.013488
v -0.000065 0.008841 -0.013491
v -0.000100 0.008837 -0.013488
v -0.000102 0.008839 -0.013489
v -0.000105 0.008840 -0.013490
v -0.000108 0.008842 -0.013491
v -0.000117 0.008845 -0.013494
v -0.000150 0.008833 -0.013514
v -0.000150 0.008868 -0.013513
v -0.000150 0.008833 -0.013552
v -0.000150 0.008850 -0.013497
v -0.000150 0.008856 -0.013502
v -0.000150 0.008856 -0.013502
v -0.000150 0.008862 -0.013508
v -0.000150 0.008862 -0.013508
v -0.000150 0.008868 -0.013513
v -0.000150 0.008868 -0.013513
v -0.000150 0.008874 -0.013519
v -0.000150 0.008874 -0.013519
v -0.000150 0.008880 -0.013524
v -0.000150 0.008880 -0.013524
v -0.000150 0.008885 -0.013530
v -0.000150 0.008895 -0.013543
v -0.000150 0.008895 -0.013552
v -0.000150 0.008890 -0.013537
v -0.000150 0.008885 -0.013530
v -0.000150 0.008890 -0.013537
v -0.000150 0.008890 -0.013537
v -0.000065 0.008845 -0.013494
v -0.000065 0.008834 -0.013487
v -0.000065 0.008772 -0.013487
v -0.000065 0.008761 -0.013494
v -0.000065 0.008772 -0.013487
v -0.000065 0.008765 -0.013491
v -0.000065 0.008772 -0.013487
v -0.000065 0.008771 -0.013487
v -0.000065 0.008769 -0.013488
v -0.000065 0.008770 -0.013487
v -0.000065 0.008769 -0.013488
v -0.000065 0.008770 -0.013487
v -0.000065 0.008769 -0.013488
v -0.000065 0.008772 -0.013487
v -0.000065 0.008769 -0.013488
v -0.000065 0.008765 -0.013491
v -0.000065 0.008845 -0.013494
v -0.000065 0.008772 -0.013487
v -0.000065 0.008761 -0.013494
v -0.000065 0.008845 -0.013494
v -0.000065 0.008761 -0.013494
v -0.000065 0.008849 -0.013497
v -0.000065 0.008761 -0.013494
v -0.000065 0.008757 -0.013497
v -0.000065 0.008849 -0.013497
v -0.000065 0.008757 -0.013497
v -0.000065 0.008853 -0.013500
v -0.000065 0.008849 -0.013497
v -0.000065 0.008753 -0.013500
v -0.000065 0.008853 -0.013500
v -0.000065 0.008757 -0.013497
v -0.000065 0.008857 -0.013503
v -0.000065 0.008853 -0.013500
v -0.000065 0.008753 -0.013500
v -0.000065 0.008857 -0.013503
v -0.000065 0.008753 -0.013500
v -0.000065 0.008749 -0.013503
v -0.000065 0.008857 -0.013503
v -0.000065 0.008749 -0.013503
v -0.000065 0.008861 -0.013506
v -0.000065 0.008749 -0.013503
v -0.000065 0.008745 -0.013506
v -0.000065 0.008861 -0.013506
v -0.000065 0.008745 -0.013506
v -0.000065 0.008865 -0.013510
v -0.000065 0.008861 -0.013506
v -0.000065 0.008741 -0.013510
v -0.000065 0.008865 -0.013510
v -0.000065 0.008745 -0.013506
v -0.000065 0.008868 -0.013513
v -0.000065 0.008865 -0.013510
v -0.000065 0.008741 -0.013510
v -0.000065 0.008868 -0.013513
v -0.000065 0.008741 -0.013510
v -0.000065 0.008738 -0.013513
v -0.000065 0.008710 -0.013543
v -0.000065 0.008710 -0.013552
v -0.000065 0.008714 -0.013539
v -0.000065 0.008868 -0.013513
v -0.000065 0.008738 -0.013513
v -0.000065 0.008872 -0.013517
v -0.000065 0.008720 -0.013531
v -0.000065 0.008717 -0.013535
v -0.000065 0.008734 -0.013517
v -0.000065 0.008730 -0.013520
v -0.000065 0.008895 -0.013543
v -0.000065 0.008892 -0.013539
v -0.000065 0.008895 -0.013552
v -0.000065 0.008892 -0.013539
v -0.000065 0.008889 -0.013535
v -0.000065 0.008889 -0.013535
v -0.000065 0.008886 -0.013531
v -0.000065 0.008886 -0.013531
v -0.000065 0.008883 -0.013527
v -0.000065 0.008883 -0.013527
v -0.000065 0.008879 -0.013524
v -0.000065 0.008879 -0.013524
v -0.000065 0.008876 -0.013520
v -0.000065 0.008876 -0.013520
v -0.000065 0.008872 -0.013517
v -0.000065 0.008734 -0.013517
v -0.000065 0.008730 -0.013520
v -0.000065 0.008727 -0.013524
v -0.000065 0.008727 -0.013524
v -0.000065 0.008723 -0.013527
v -0.000065 0.008723 -0.013527
v -0.000065 0.008720 -0.013531
v -0.000065 0.008734 -0.013517
v -0.000065 0.008872 -0.013517
v -0.000065 0.008872 -0.013517
v -0.000065 0.008738 -0.013513
v -0.000065 0.008734 -0.013517
v -0.000065 0.008717 -0.013535
v -0.000065 0.008714 -0.013539
v -0.000065 0.008845 -0.013494
v -0.000065 0.008841 -0.013491
v -0.000065 0.008834 -0.013487
v -0.000065 0.008836 -0.013487
v -0.000065 0.008834 -0.013487
v -0.000065 0.008836 -0.013487
v -0.000065 0.008834 -0.013487
v -0.000065 0.008837 -0.013488
v -0.000065 0.008835 -0.013487
v -0.000065 0.008834 -0.013487
v -0.000065 0.008837 -0.013488
v -0.000065 0.008834 -0.013487
v -0.000065 0.008841 -0.013491
v -0.000065 0.008710 -0.013552
v -0.000065 0.008710 -0.013543
v -0.000150 0.008710 -0.013552
v -0.000065 0.008710 -0.013543
v -0.000150 0.008710 -0.013543
v -0.000150 0.008710 -0.013552
v -0.000150 0.008895 -0.013552
v -0.000150 0.008895 -0.013543
v -0.000065 0.008895 -0.013552
v -0.000150 0.008895 -0.013543
v -0.000065 0.008895 -0.013543
v -0.000065 0.008895 -0.013552
v -0.000150 0.008710 -0.013552
v -0.000134 0.008775 -0.013552
v -0.000132 0.008776 -0.013552
v -0.000065 0.008710 -0.013552
v -0.000115 0.008801 -0.013552
v -0.000115 0.008803 -0.013552
v -0.000148 0.008833 -0.013552
v -0.000150 0.008833 -0.013552
v -0.000150 0.008895 -0.013552
v -0.000150 0.008895 -0.013552
v -0.000147 0.008833 -0.013552
v -0.000150 0.008895 -0.013552
v -0.000145 0.008833 -0.013552
v -0.000150 0.008895 -0.013552
v -0.000144 0.008833 -0.013552
v -0.000150 0.008895 -0.013552
v -0.000142 0.008833 -0.013552
v -0.000150 0.008895 -0.013552
v -0.000140 0.008833 -0.013552
v -0.000150 0.008895 -0.013552
v -0.000139 0.008832 -0.013552
v -0.000150 0.008895 -0.013552
v -0.000137 0.008832 -0.013552
v -0.000150 0.008895 -0.013552
v -0.000136 0.008831 -0.013552
v -0.000150 0.008895 -0.013552
v -0.000134 0.008831 -0.013552
v -0.000150 0.008895 -0.013552
v -0.000132 0.008830 -0.013552
v -0.000150 0.008895 -0.013552
v -0.000131 0.008830 -0.013552
v -0.000150 0.008895 -0.013552
v -0.000065 0.008895 -0.013552
v -0.000065 0.008895 -0.013552
v -0.000130 0.008829 -0.013552
v -0.000065 0.008895 -0.013552
v -0.000128 0.008828 -0.013552
v -0.000065 0.008895 -0.013552
v -0.000127 0.008827 -0.013552
v -0.000065 0.008895 -0.013552
v -0.000126 0.008826 -0.013552
v -0.000065 0.008895 -0.013552
v -0.000124 0.008825 -0.013552
v -0.000065 0.008895 -0.013552
v -0.000123 0.008824 -0.013552
v -0.000065 0.008895 -0.013552
v -0.000122 0.008822 -0.013552
v -0.000065 0.008895 -0.013552
v -0.000121 0.008821 -0.013552
v -0.000065 0.008895 -0.013552
v -0.000120 0.008820 -0.013552
v -0.000065 0.008895 -0.013552
v -0.000119 0.008819 -0.013552
v -0.000117 0.008814 -0.013552
v -0.000118 0.008816 -0.013552
v -0.000065 0.008895 -0.013552
v -0.000065 0.008895 -0.013552
v -0.000119 0.008817 -0.013552
v -0.000117 0.008813 -0.013552
v -0.000065 0.008895 -0.013552
v -0.000116 0.008811 -0.013552
v -0.000065 0.008895 -0.013552
v -0.000116 0.008809 -0.013552
v -0.000065 0.008895 -0.013552
v -0.000115 0.008808 -0.013552
v -0.000065 0.008895 -0.013552
v -0.000115 0.008806 -0.013552
v -0.000065 0.008895 -0.013552
v -0.000115 0.008805 -0.013552
v -0.000065 0.008895 -0.013552
v -0.000065 0.008895 -0.013552
v -0.000065 0.008895 -0.013552
v -0.000065 0.008710 -0.013552
v -0.000065 0.008710 -0.013552
v -0.000115 0.008800 -0.013552
v -0.000065 0.008710 -0.013552
v -0.000115 0.008798 -0.013552
v -0.000065 0.008710 -0.013552
v -0.000116 0.008797 -0.013552
v -0.000065 0.008710 -0.013552
v -0.000116 0.008795 -0.013552
v -0.000065 0.008710 -0.013552
v -0.000117 0.008793 -0.013552
v -0.000118 0.008790 -0.013552
v -0.000065 0.008710 -0.013552
v -0.000119 0.008789 -0.013552
v -0.000117 0.008792 -0.013552
v -0.000065 0.008710 -0.013552
v -0.000065 0.008710 -0.013552
v -0.000119 0.008787 -0.013552
v -0.000065 0.008710 -0.013552
v -0.000120 0.008786 -0.013552
v -0.000065 0.008710 -0.013552
v -0.000121 0.008785 -0.013552
v -0.000065 0.008710 -0.013552
v -0.000122 0.008784 -0.013552
v -0.000065 0.008710 -0.013552
v -0.000123 0.008782 -0.013552
v -0.000065 0.008710 -0.013552
v -0.000124 0.008781 -0.013552
v -0.000065 0.008710 -0.013552
v -0.000126 0.008780 -0.013552
v -0.000065 0.008710 -0.013552
v -0.000127 0.008779 -0.013552
v -0.000065 0.008710 -0.013552
v -0.000128 0.008778 -0.013552
v -0.000065 0.008710 -0.013552
v -0.000130 0.008777 -0.013552
v -0.000065 0.008710 -0.013552
v -0.000131 0.008776 -0.013552
v -0.000065 0.008710 -0.013552
v -0.000150 0.008710 -0.013552
v -0.000150 0.008710 -0.013552
v -0.000136 0.008775 -0.013552
v -0.000150 0.008710 -0.013552
v -0.000137 0.008774 -0.013552
v -0.000150 0.008710 -0.013552
v -0.000139 0.008774 -0.013552
v -0.000150 0.008710 -0.013552
v -0.000150 0.008710 -0.013552
v -0.000140 0.008773 -0.013552
v -0.000150 0.008710 -0.013552
v -0.000142 0.008773 -0.013552
v -0.000150 0.008710 -0.013552
v -0.000144 0.008773 -0.013552
v -0.000150 0.008710 -0.013552
v -0.000145 0.008773 -0.013552
v -0.000150 0.008710 -0.013552
v -0.000147 0.008773 -0.013552
v -0.000065 0.008895 -0.013552
v -0.000150 0.008710 -0.013552
v -0.000148 0.008773 -0.013552
v -0.000065 0.008710 -0.013552
v -0.000150 0.008710 -0.013552
v -0.000150 0.008773 -0.013552
v -0.000148 0.008833 -0.013552
v -0.000147 0.008833 -0.013552
v -0.000148 0.008833 -0.013514
v -0.000147 0.008833 -0.013552
v -0.000145 0.008833 -0.013552
v -0.000147 0.008833 -0.013514
v -0.000145 0.008833 -0.013552
v -0.000145 0.008833 -0.013514
v -0.000144 0.008833 -0.013552
v -0.000144 0.008833 -0.013514
v -0.000142 0.008833 -0.013552
v -0.000142 0.008833 -0.013514
v -0.000140 0.008833 -0.013552
v -0.000140 0.008833 -0.013514
v -0.000139 0.008832 -0.013552
v -0.000140 0.008833 -0.013552
v -0.000137 0.008832 -0.013552
v -0.000139 0.008832 -0.013514
v -0.000139 0.008832 -0.013552
v -0.000137 0.008832 -0.013514
v -0.000137 0.008832 -0.013552
v -0.000136 0.008831 -0.013514
v -0.000136 0.008831 -0.013552
v -0.000136 0.008831 -0.013552
v -0.000134 0.008831 -0.013552
v -0.000134 0.008831 -0.013514
v -0.000134 0.008831 -0.013552
v -0.000132 0.008830 -0.013552
v -0.000132 0.008830 -0.013514
v -0.000132 0.008830 -0.013552
v -0.000131 0.008830 -0.013552
v -0.000131 0.008830 -0.013552
v -0.000131 0.008830 -0.013514
v -0.000130 0.008829 -0.013552
v -0.000130 0.008829 -0.013514
v -0.000130 0.008829 -0.013552
v -0.000128 0.008828 -0.013552
v -0.000128 0.008828 -0.013552
v -0.000127 0.008827 -0.013552
v -0.000128 0.008828 -0.013514
v -0.000127 0.008827 -0.013552
v -0.000127 0.008827 -0.013514
v -0.000126 0.008826 -0.013552
v -0.000126 0.008826 -0.013514
v -0.000124 0.008825 -0.013552
v -0.000126 0.008826 -0.013552
v -0.000123 0.008824 -0.013552
v -0.000124 0.008825 -0.013514
v -0.000124 0.008825 -0.013552
v -0.000123 0.008824 -0.013514
v -0.000123 0.008824 -0.013552
v -0.000122 0.008822 -0.013514
v -0.000122 0.008822 -0.013552
v -0.000122 0.008822 -0.013552
v -0.000121 0.008821 -0.013552
v -0.000121 0.008821 -0.013514
v -0.000121 0.008821 -0.013552
v -0.000120 0.008820 -0.013552
v -0.000120 0.008820 -0.013552
v -0.000120 0.008820 -0.013514
v -0.000119 0.008819 -0.013552
v -0.000119 0.008819 -0.013514
v -0.000119 0.008819 -0.013552
v -0.000119 0.008817 -0.013552
v -0.000119 0.008817 -0.013552
v -0.000118 0.008816 -0.013552
v -0.000119 0.008817 -0.013514
v -0.000118 0.008816 -0.013552
v -0.000118 0.008816 -0.013514
v -0.000117 0.008814 -0.013552
v -0.000117 0.008814 -0.013514
v -0.000117 0.008813 -0.013552
v -0.000117 0.008814 -0.013552
v -0.000116 0.008811 -0.013552
v -0.000117 0.008813 -0.013514
v -0.000117 0.008813 -0.013552
v -0.000116 0.008811 -0.013514
v -0.000116 0.008811 -0.013552
v -0.000116 0.008809 -0.013514
v -0.000116 0.008809 -0.013552
v -0.000116 0.008809 -0.013552
v -0.000115 0.008808 -0.013552
v -0.000115 0.008808 -0.013514
v -0.000115 0.008808 -0.013552
v -0.000115 0.008806 -0.013552
v -0.000115 0.008806 -0.013552
v -0.000115 0.008806 -0.013514
v -0.000115 0.008805 -0.013552
v -0.000115 0.008805 -0.013514
v -0.000115 0.008805 -0.013552
v -0.000115 0.008803 -0.013552
v -0.000115 0.008803 -0.013552
v -0.000115 0.008801 -0.013552
v -0.000115 0.008803 -0.013514
v -0.000115 0.008801 -0.013552
v -0.000115 0.008801 -0.013514
v -0.000115 0.008800 -0.013552
v -0.000115 0.008800 -0.013514
v -0.000115 0.008798 -0.013552
v -0.000115 0.008800 -0.013552
v -0.000116 0.008797 -0.013552
v -0.000115 0.008798 -0.013514
v -0.000115 0.008798 -0.013552
v -0.000116 0.008795 -0.013552
v -0.000116 0.008797 -0.013514
v -0.000116 0.008797 -0.013552
v -0.000116 0.008795 -0.013514
v -0.000116 0.008795 -0.013552
v -0.000117 0.008793 -0.013514
v -0.000117 0.008793 -0.013552
v -0.000117 0.008793 -0.013552
v -0.000117 0.008792 -0.013552
v -0.000117 0.008792 -0.013514
v -0.000117 0.008792 -0.013552
v -0.000118 0.008790 -0.013552
v -0.000118 0.008790 -0.013552
v -0.000118 0.008790 -0.013514
v -0.000119 0.008789 -0.013552
v -0.000119 0.008789 -0.013514
v -0.000119 0.008789 -0.013552
v -0.000119 0.008787 -0.013552
v -0.000119 0.008787 -0.013552
v -0.000120 0.008786 -0.013552
v -0.000119 0.008787 -0.013514
v -0.000120 0.008786 -0.013552
v -0.000120 0.008786 -0.013514
v -0.000121 0.008785 -0.013552
v -0.000121 0.008785 -0.013514
v -0.000122 0.008784 -0.013552
v -0.000121 0.008785 -0.013552
v -0.000123 0.008782 -0.013552
v -0.000122 0.008784 -0.013514
v -0.000122 0.008784 -0.013552
v -0.000123 0.008782 -0.013514
v -0.000123 0.008782 -0.013552
v -0.000124 0.008781 -0.013514
v -0.000124 0.008781 -0.013552
v -0.000124 0.008781 -0.013552
v -0.000126 0.008780 -0.013552
v -0.000126 0.008780 -0.013514
v -0.000126 0.008780 -0.013552
v -0.000127 0.008779 -0.013552
v -0.000127 0.008779 -0.013552
v -0.000127 0.008779 -0.013514
v -0.000148 0.008773 -0.013514
v -0.000147 0.008773 -0.013514
v -0.000148 0.008773 -0.013552
v -0.000150 0.008773 -0.013552
v -0.000150 0.008773 -0.013514
v -0.000150 0.008773 -0.013552
v -0.000148 0.008773 -0.013552
v -0.000147 0.008773 -0.013552
v -0.000148 0.008773 -0.013552
v -0.000145 0.008773 -0.013514
v -0.000147 0.008773 -0.013552
v -0.000145 0.008773 -0.013552
v -0.000147 0.008773 -0.013552
v -0.000145 0.008773 -0.013552
v -0.000144 0.008773 -0.013514
v -0.000145 0.008773 -0.013552
v -0.000144 0.008773 -0.013552
v -0.000142 0.008773 -0.013514
v -0.000144 0.008773 -0.013552
v -0.000142 0.008773 -0.013552
v -0.000144 0.008773 -0.013552
v -0.000140 0.008773 -0.013514
v -0.000142 0.008773 -0.013552
v -0.000140 0.008773 -0.013552
v -0.000142 0.008773 -0.013552
v -0.000140 0.008773 -0.013552
v -0.000139 0.008774 -0.013514
v -0.000140 0.008773 -0.013552
v -0.000139 0.008774 -0.013552
v -0.000137 0.008774 -0.013514
v -0.000139 0.008774 -0.013552
v -0.000137 0.008774 -0.013552
v -0.000139 0.008774 -0.013552
v -0.000136 0.008775 -0.013514
v -0.000137 0.008774 -0.013552
v -0.000136 0.008775 -0.013552
v -0.000137 0.008774 -0.013552
v -0.000136 0.008775 -0.013552
v -0.000134 0.008775 -0.013514
v -0.000136 0.008775 -0.013552
v -0.000134 0.008775 -0.013552
v -0.000132 0.008776 -0.013514
v -0.000134 0.008775 -0.013552
v -0.000132 0.008776 -0.013552
v -0.000134 0.008775 -0.013552
v -0.000131 0.008776 -0.013514
v -0.000132 0.008776 -0.013552
v -0.000131 0.008776 -0.013552
v -0.000132 0.008776 -0.013552
v -0.000131 0.008776 -0.013552
v -0.000130 0.008777 -0.013514
v -0.000131 0.008776 -0.013552
v -0.000130 0.008777 -0.013552
v -0.000128 0.008778 -0.013514
v -0.000130 0.008777 -0.013552
v -0.000128 0.008778 -0.013552
v -0.000130 0.008777 -0.013552
v -0.000128 0.008778 -0.013552
v -0.000127 0.008779 -0.013552
v -0.000128 0.008778 -0.013552
v -0.000126 0.008780 -0.013552
v -0.000123 0.008782 -0.013552
v -0.000124 0.008781 -0.013552
v -0.000122 0.008784 -0.013552
v -0.000121 0.008785 -0.013552
v -0.000120 0.008786 -0.013552
v -0.000119 0.008787 -0.013552
v -0.000118 0.008790 -0.013552
v -0.000119 0.008789 -0.013552
v -0.000117 0.008792 -0.013552
v -0.000116 0.008795 -0.013552
v -0.000117 0.008793 -0.013552
v -0.000116 0.008797 -0.013552
v -0.000115 0.008798 -0.013552
v -0.000115 0.008800 -0.013552
v -0.000115 0.008801 -0.013552
v -0.000115 0.008803 -0.013552
v -0.000115 0.008806 -0.013552
v -0.000115 0.008805 -0.013552
v -0.000115 0.008808 -0.013552
v -0.000116 0.008811 -0.013552
v -0.000116 0.008809 -0.013552
v -0.000117 0.008813 -0.013552
v -0.000117 0.008814 -0.013552
v -0.000118 0.008816 -0.013552
v -0.000119 0.008817 -0.013552
v -0.000120 0.008820 -0.013552
v -0.000119 0.008819 -0.013552
v -0.000121 0.008821 -0.013552
v -0.000123 0.008824 -0.013552
v -0.000122 0.008822 -0.013552
v -0.000124 0.008825 -0.013552
v -0.000126 0.008826 -0.013552
v -0.000127 0.008827 -0.013552
v -0.000128 0.008828 -0.013552
v -0.000131 0.008830 -0.013552
v -0.000130 0.008829 -0.013552
v -0.000132 0.008830 -0.013552
v -0.000134 0.008831 -0.013552
v -0.000137 0.008832 -0.013552
v -0.000136 0.008831 -0.013552
v -0.000142 0.008833 -0.013552
v -0.000140 0.008833 -0.013552
v -0.000145 0.008833 -0.013552
v -0.000144 0.008833 -0.013552
v -0.000150 0.008833 -0.013552
v -0.000148 0.008833 -0.013552
v -0.000150 0.008833 -0.013514
v -0.000150 0.008833 -0.013552
v -0.000139 0.008832 -0.013552
v -0.000144 0.008833 -0.013552
v -0.000142 0.008833 -0.013552
v -0.000147 0.008833 -0.013552
v -0.000147 0.008756 -0.013497
v -0.000145 0.008773 -0.013514
v -0.000147 0.008773 -0.013514
v -0.000147 0.008756 -0.013497
v -0.000147 0.008773 -0.013514
v -0.000150 0.008756 -0.013497
v -0.000143 0.008756 -0.013497
v -0.000144 0.008773 -0.013514
v -0.000145 0.008773 -0.013514
v -0.000142 0.008773 -0.013514
v -0.000144 0.008773 -0.013514
v -0.000140 0.008756 -0.013497
v -0.000140 0.008773 -0.013514
v -0.000140 0.008756 -0.013497
v -0.000136 0.008756 -0.013497
v -0.000139 0.008774 -0.013514
v -0.000136 0.008756 -0.013497
v -0.000133 0.008757 -0.013497
v -0.000137 0.008774 -0.013514
v -0.000133 0.008757 -0.013497
v -0.000130 0.008757 -0.013496
v -0.000136 0.008775 -0.013514
v -0.000130 0.008757 -0.013496
v -0.000134 0.008775 -0.013514
v -0.000130 0.008757 -0.013496
v -0.000127 0.008758 -0.013496
v -0.000134 0.008775 -0.013514
v -0.000127 0.008758 -0.013496
v -0.000123 0.008759 -0.013495
v -0.000132 0.008776 -0.013514
v -0.000123 0.008759 -0.013495
v -0.000131 0.008776 -0.013514
v -0.000132 0.008776 -0.013514
v -0.000120 0.008760 -0.013494
v -0.000130 0.008777 -0.013514
v -0.000131 0.008776 -0.013514
v -0.000117 0.008761 -0.013494
v -0.000128 0.008778 -0.013514
v -0.000130 0.008777 -0.013514
v -0.000114 0.008762 -0.013493
v -0.000128 0.008778 -0.013514
v -0.000117 0.008761 -0.013494
v -0.000126 0.008780 -0.013514
v -0.000127 0.008779 -0.013514
v -0.000114 0.008762 -0.013493
v -0.000126 0.008780 -0.013514
v -0.000114 0.008762 -0.013493
v -0.000111 0.008763 -0.013492
v -0.000126 0.008780 -0.013514
v -0.000111 0.008763 -0.013492
v -0.000124 0.008781 -0.013514
v -0.000111 0.008763 -0.013492
v -0.000108 0.008764 -0.013491
v -0.000124 0.008781 -0.013514
v -0.000123 0.008782 -0.013514
v -0.000105 0.008766 -0.013490
v -0.000122 0.008784 -0.013514
v -0.000108 0.008764 -0.013491
v -0.000123 0.008782 -0.013514
v -0.000124 0.008781 -0.013514
v -0.000105 0.008766 -0.013490
v -0.000102 0.008767 -0.013489
v -0.000122 0.008784 -0.013514
v -0.000102 0.008767 -0.013489
v -0.000100 0.008769 -0.013488
v -0.000121 0.008785 -0.013514
v -0.000100 0.008769 -0.013488
v -0.000099 0.008770 -0.013488
v -0.000120 0.008786 -0.013514
v -0.000098 0.008770 -0.013487
v -0.000120 0.008786 -0.013514
v -0.000120 0.008786 -0.013514
v -0.000097 0.008771 -0.013487
v -0.000097 0.008772 -0.013487
v -0.000119 0.008787 -0.013514
v -0.000097 0.008772 -0.013487
v -0.000095 0.008775 -0.013487
v -0.000119 0.008787 -0.013514
v -0.000095 0.008775 -0.013487
v -0.000119 0.008789 -0.013514
v -0.000119 0.008789 -0.013514
v -0.000093 0.008779 -0.013487
v -0.000118 0.008790 -0.013514
v -0.000093 0.008779 -0.013487
v -0.000091 0.008783 -0.013487
v -0.000117 0.008792 -0.013514
v -0.000091 0.008783 -0.013487
v -0.000090 0.008787 -0.013487
v -0.000117 0.008793 -0.013514
v -0.000090 0.008787 -0.013487
v -0.000116 0.008795 -0.013514
v -0.000117 0.008793 -0.013514
v -0.000089 0.008791 -0.013487
v -0.000116 0.008797 -0.013514
v -0.000116 0.008795 -0.013514
v -0.000088 0.008795 -0.013487
v -0.000115 0.008798 -0.013514
v -0.000089 0.008791 -0.013487
v -0.000115 0.008800 -0.013514
v -0.000115 0.008798 -0.013514
v -0.000088 0.008795 -0.013487
v -0.000115 0.008801 -0.013514
v -0.000115 0.008800 -0.013514
v -0.000088 0.008799 -0.013487
v -0.000115 0.008803 -0.013514
v -0.000115 0.008801 -0.013514
v -0.000088 0.008803 -0.013487
v -0.000115 0.008805 -0.013514
v -0.000115 0.008803 -0.013514
v -0.000088 0.008803 -0.013487
v -0.000115 0.008805 -0.013514
v -0.000088 0.008803 -0.013487
v -0.000088 0.008807 -0.013487
v -0.000115 0.008805 -0.013514
v -0.000088 0.008807 -0.013487
v -0.000115 0.008806 -0.013514
v -0.000115 0.008806 -0.013514
v -0.000088 0.008811 -0.013487
v -0.000115 0.008808 -0.013514
v -0.000088 0.008811 -0.013487
v -0.000089 0.008815 -0.013487
v -0.000115 0.008808 -0.013514
v -0.000089 0.008815 -0.013487
v -0.000116 0.008811 -0.013514
v -0.000116 0.008809 -0.013514
v -0.000090 0.008819 -0.013487
v -0.000117 0.008813 -0.013514
v -0.000116 0.008811 -0.013514
v -0.000091 0.008823 -0.013487
v -0.000117 0.008814 -0.013514
v -0.000117 0.008813 -0.013514
v -0.000093 0.008827 -0.013487
v -0.000118 0.008816 -0.013514
v -0.000117 0.008814 -0.013514
v -0.000119 0.008817 -0.013514
v -0.000118 0.008816 -0.013514
v -0.000093 0.008827 -0.013487
v -0.000119 0.008819 -0.013514
v -0.000119 0.008817 -0.013514
v -0.000095 0.008831 -0.013487
v -0.000120 0.008820 -0.013514
v -0.000119 0.008819 -0.013514
v -0.000097 0.008834 -0.013487
v -0.000098 0.008836 -0.013487
v -0.000120 0.008820 -0.013514
v -0.000097 0.008835 -0.013487
v -0.000105 0.008840 -0.013490
v -0.000122 0.008822 -0.013514
v -0.000102 0.008839 -0.013489
v -0.000121 0.008821 -0.013514
v -0.000100 0.008837 -0.013488
v -0.000102 0.008839 -0.013489
v -0.000123 0.008824 -0.013514
v -0.000122 0.008822 -0.013514
v -0.000105 0.008840 -0.013490
v -0.000124 0.008825 -0.013514
v -0.000123 0.008824 -0.013514
v -0.000108 0.008842 -0.013491
v -0.000126 0.008826 -0.013514
v -0.000124 0.008825 -0.013514
v -0.000111 0.008843 -0.013492
v -0.000127 0.008827 -0.013514
v -0.000126 0.008826 -0.013514
v -0.000114 0.008844 -0.013493
v -0.000099 0.008836 -0.013488
v -0.000100 0.008837 -0.013488
v -0.000120 0.008820 -0.013514
v -0.000150 0.008850 -0.013497
v -0.000150 0.008833 -0.013514
v -0.000148 0.008833 -0.013514
v -0.000150 0.008850 -0.013497
v -0.000148 0.008833 -0.013514
v -0.000147 0.008833 -0.013514
v -0.000150 0.008850 -0.013497
v -0.000147 0.008833 -0.013514
v -0.000147 0.008850 -0.013497
v -0.000147 0.008833 -0.013514
v -0.000145 0.008833 -0.013514
v -0.000147 0.008850 -0.013497
v -0.000145 0.008833 -0.013514
v -0.000143 0.008850 -0.013497
v -0.000147 0.008850 -0.013497
v -0.000144 0.008833 -0.013514
v -0.000143 0.008850 -0.013497
v -0.000145 0.008833 -0.013514
v -0.000140 0.008850 -0.013497
v -0.000143 0.008850 -0.013497
v -0.000144 0.008833 -0.013514
v -0.000140 0.008850 -0.013497
v -0.000144 0.008833 -0.013514
v -0.000142 0.008833 -0.013514
v -0.000140 0.008850 -0.013497
v -0.000142 0.008833 -0.013514
v -0.000140 0.008833 -0.013514
v -0.000140 0.008850 -0.013497
v -0.000140 0.008833 -0.013514
v -0.000137 0.008850 -0.013497
v -0.000140 0.008833 -0.013514
v -0.000139 0.008832 -0.013514
v -0.000137 0.008850 -0.013497
v -0.000139 0.008832 -0.013514
v -0.000133 0.008849 -0.013497
v -0.000137 0.008850 -0.013497
v -0.000137 0.008832 -0.013514
v -0.000133 0.008849 -0.013497
v -0.000139 0.008832 -0.013514
v -0.000130 0.008849 -0.013496
v -0.000133 0.008849 -0.013497
v -0.000137 0.008832 -0.013514
v -0.000130 0.008849 -0.013496
v -0.000137 0.008832 -0.013514
v -0.000136 0.008831 -0.013514
v -0.000130 0.008849 -0.013496
v -0.000136 0.008831 -0.013514
v -0.000134 0.008831 -0.013514
v -0.000130 0.008849 -0.013496
v -0.000134 0.008831 -0.013514
v -0.000127 0.008848 -0.013496
v -0.000134 0.008831 -0.013514
v -0.000132 0.008830 -0.013514
v -0.000127 0.008848 -0.013496
v -0.000132 0.008830 -0.013514
v -0.000123 0.008847 -0.013495
v -0.000127 0.008848 -0.013496
v -0.000131 0.008830 -0.013514
v -0.000123 0.008847 -0.013495
v -0.000132 0.008830 -0.013514
v -0.000120 0.008846 -0.013494
v -0.000123 0.008847 -0.013495
v -0.000131 0.008830 -0.013514
v -0.000120 0.008846 -0.013494
v -0.000131 0.008830 -0.013514
v -0.000130 0.008829 -0.013514
v -0.000120 0.008846 -0.013494
v -0.000130 0.008829 -0.013514
v -0.000117 0.008845 -0.013494
v -0.000130 0.008829 -0.013514
v -0.000128 0.008828 -0.013514
v -0.000117 0.008845 -0.013494
v -0.000128 0.008828 -0.013514
v -0.000114 0.008844 -0.013493
v -0.000117 0.008845 -0.013494
v -0.000127 0.008827 -0.013514
v -0.000114 0.008844 -0.013493
v -0.000128 0.008828 -0.013514
v -0.000126 0.008826 -0.013514
v -0.000111 0.008843 -0.013492
v -0.000114 0.008844 -0.013493
v -0.000124 0.008825 -0.013514
v -0.000108 0.008842 -0.013491
v -0.000111 0.008843 -0.013492
v -0.000123 0.008824 -0.013514
v -0.000105 0.008840 -0.013490
v -0.000108 0.008842 -0.013491
v -0.000122 0.008822 -0.013514
v -0.000121 0.008821 -0.013514
v -0.000102 0.008839 -0.013489
v -0.000121 0.008821 -0.013514
v -0.000120 0.008820 -0.013514
v -0.000100 0.008837 -0.013488
v -0.000120 0.008820 -0.013514
v -0.000097 0.008834 -0.013487
v -0.000120 0.008820 -0.013514
v -0.000095 0.008831 -0.013487
v -0.000097 0.008834 -0.013487
v -0.000119 0.008819 -0.013514
v -0.000093 0.008827 -0.013487
v -0.000095 0.008831 -0.013487
v -0.000119 0.008817 -0.013514
v -0.000117 0.008814 -0.013514
v -0.000091 0.008823 -0.013487
v -0.000093 0.008827 -0.013487
v -0.000117 0.008813 -0.013514
v -0.000090 0.008819 -0.013487
v -0.000091 0.008823 -0.013487
v -0.000116 0.008811 -0.013514
v -0.000089 0.008815 -0.013487
v -0.000090 0.008819 -0.013487
v -0.000116 0.008809 -0.013514
v -0.000115 0.008808 -0.013514
v -0.000089 0.008815 -0.013487
v -0.000088 0.008811 -0.013487
v -0.000115 0.008806 -0.013514
v -0.000088 0.008807 -0.013487
v -0.000115 0.008801 -0.013514
v -0.000088 0.008799 -0.013487
v -0.000088 0.008803 -0.013487
v -0.000115 0.008800 -0.013514
v -0.000088 0.008795 -0.013487
v -0.000088 0.008799 -0.013487
v -0.000115 0.008798 -0.013514
v -0.000116 0.008797 -0.013514
v -0.000089 0.008791 -0.013487
v -0.000089 0.008791 -0.013487
v -0.000116 0.008795 -0.013514
v -0.000090 0.008787 -0.013487
v -0.000091 0.008783 -0.013487
v -0.000117 0.008793 -0.013514
v -0.000117 0.008792 -0.013514
v -0.000093 0.008779 -0.013487
v -0.000117 0.008792 -0.013514
v -0.000118 0.008790 -0.013514
v -0.000095 0.008775 -0.013487
v -0.000093 0.008779 -0.013487
v -0.000119 0.008789 -0.013514
v -0.000120 0.008786 -0.013514
v -0.000097 0.008772 -0.013487
v -0.000119 0.008787 -0.013514
v -0.000120 0.008786 -0.013514
v -0.000100 0.008769 -0.013488
v -0.000120 0.008786 -0.013514
v -0.000121 0.008785 -0.013514
v -0.000102 0.008767 -0.013489
v -0.000121 0.008785 -0.013514
v -0.000122 0.008784 -0.013514
v -0.000108 0.008764 -0.013491
v -0.000105 0.008766 -0.013490
v -0.000123 0.008782 -0.013514
v -0.000114 0.008762 -0.013493
v -0.000127 0.008779 -0.013514
v -0.000128 0.008778 -0.013514
v -0.000120 0.008760 -0.013494
v -0.000117 0.008761 -0.013494
v -0.000130 0.008777 -0.013514
v -0.000123 0.008759 -0.013495
v -0.000120 0.008760 -0.013494
v -0.000131 0.008776 -0.013514
v -0.000130 0.008757 -0.013496
v -0.000136 0.008775 -0.013514
v -0.000137 0.008774 -0.013514
v -0.000140 0.008773 -0.013514
v -0.000136 0.008756 -0.013497
v -0.000139 0.008774 -0.013514
v -0.000142 0.008773 -0.013514
v -0.000140 0.008756 -0.013497
v -0.000140 0.008773 -0.013514
v -0.000144 0.008773 -0.013514
v -0.000143 0.008756 -0.013497
v -0.000140 0.008756 -0.013497
v -0.000147 0.008756 -0.013497
v -0.000143 0.008756 -0.013497
v -0.000145 0.008773 -0.013514
v -0.000148 0.008773 -0.013514
v -0.000150 0.008773 -0.013514
v -0.000150 0.008756 -0.013497
v -0.000133 0.008757 -0.013497
v -0.000137 0.008774 -0.013514
v -0.000139 0.008774 -0.013514
v -0.000132 0.008776 -0.013514
v -0.000134 0.008775 -0.013514
v -0.000127 0.008758 -0.013496
v -0.000147 0.008773 -0.013514
v -0.000148 0.008773 -0.013514
v -0.000150 0.008756 -0.013497
v -0.000065 0.008835 -0.013487
v -0.000065 0.008835 -0.013487
v -0.000065 0.008836 -0.013487
v -0.000065 0.008836 -0.013487
v -0.000097 0.008835 -0.013487
v -0.000097 0.008835 -0.013487
v -0.000065 0.008836 -0.013487
v -0.000065 0.008836 -0.013487
v -0.000099 0.008836 -0.013488
v -0.000099 0.008836 -0.013488
v -0.000098 0.008836 -0.013487
v -0.000098 0.008836 -0.013487
v -0.000097 0.008835 -0.013487
v -0.000065 0.008836 -0.013487
v -0.000098 0.008836 -0.013487
v -0.000065 0.008836 -0.013487
v -0.000098 0.008770 -0.013487
v -0.000099 0.008770 -0.013488
v -0.000099 0.008770 -0.013488
v -0.000098 0.008770 -0.013487
v -0.000065 0.008770 -0.013487
v -0.000065 0.008771 -0.013487
v -0.000065 0.008771 -0.013487
v -0.000065 0.008770 -0.013487
v -0.000065 0.008770 -0.013487
v -0.000097 0.008771 -0.013487
v -0.000065 0.008770 -0.013487
v -0.000065 0.008770 -0.013487
v -0.000097 0.008771 -0.013487
v -0.000065 0.008770 -0.013487
v -0.000097 0.008771 -0.013487
v -0.000098 0.008770 -0.013487
vn -1.0000 -0.0000 -0.0000
vn -0.0000 -0.7940 0.6079
vn -0.0000 -0.7816 0.6238
vn -0.0000 -0.7739 0.6333
vn -0.0000 -0.7688 0.6395
vn -0.0000 -0.7815 0.6239
vn -0.0000 -0.7530 0.6580
vn -0.0000 -0.7558 0.6548
vn -0.0000 -0.7424 0.6699
vn -0.0000 -0.7557 0.6549
vn 0.0001 -0.7424 0.6700
vn -0.0000 -0.7313 0.6820
vn -0.0000 -0.7288 0.6848
vn -0.0000 -0.7148 0.6994
vn -0.0000 -0.7314 0.6820
vn -0.0000 -0.7424 0.6700
vn -0.0000 -0.7287 0.6849
vn -0.0000 -0.7313 0.6821
vn -0.0000 -0.7147 0.6994
vn -0.0000 -0.7089 0.7053
vn -0.0000 -0.7004 0.7137
vn -0.0000 -0.6857 0.7279
vn -0.0000 -0.7005 0.7137
vn -0.0000 -0.6859 0.7277
vn -0.0000 -0.6710 0.7414
vn -0.0000 -0.6618 0.7497
vn -0.0000 -0.6559 0.7548
vn -0.0000 -0.6372 0.7707
vn -0.0000 -0.6125 0.7905
vn -0.0000 -0.6119 0.7909
vn -0.0000 -0.6617 0.7497
vn -0.0000 -0.6124 0.7905
vn -0.0000 -0.6371 0.7708
vn -0.0000 -0.6124 0.7906
vn -0.0000 -0.6406 0.7679
vn -0.0000 -0.6118 0.7910
vn -0.0000 -0.6106 0.7919
vn -0.0000 -0.6107 0.7919
vn -0.0001 -0.6090 0.7932
vn -0.0000 -0.6405 0.7679
vn -0.0001 -0.6249 0.7807
vn -0.0000 -0.6068 0.7948
vn -0.0000 -0.6011 0.7992
vn -0.0000 -0.6041 0.7969
vn -0.0000 -0.5598 0.8286
vn -0.0000 -0.5665 0.8241
vn 0.0002 -0.5764 0.8172
vn -0.0000 -0.5599 0.8286
vn 0.0002 -0.5727 0.8198
vn -0.0000 -0.5785 0.8157
vn -0.0002 -0.5928 0.8053
vn -0.0000 -0.5839 0.8118
vn -0.0000 -0.5889 0.8082
vn -0.0000 -0.6091 0.7931
vn -0.0000 -0.5934 0.8049
vn -0.0000 -0.5974 0.8019
vn -0.0000 -0.6090 0.7932
vn -0.0000 -0.0000 1.0000
vn -0.0001 -0.0000 1.0000
vn -0.0000 0.6372 0.7707
vn -0.0000 0.6124 0.7905
vn -0.0000 0.6118 0.7910
vn -0.0000 0.6107 0.7919
vn -0.0000 0.6090 0.7932
vn -0.0000 0.6859 0.7277
vn 0.0001 0.7003 0.7138
vn -0.0000 0.6857 0.7279
vn -0.0000 0.7286 0.6849
vn -0.0003 0.7313 0.6820
vn -0.0000 0.7148 0.6994
vn 0.0001 0.7424 0.6700
vn 0.0002 0.7530 0.6580
vn -0.0000 0.6119 0.7909
vn -0.0000 0.7940 0.6079
vn 0.0001 0.7816 0.6238
vn -0.0003 0.7739 0.6333
vn -0.0000 0.7687 0.6396
vn -0.0000 0.7558 0.6548
vn 0.0002 0.7089 0.7053
vn 0.0001 0.6711 0.7414
vn -0.0003 0.6617 0.7497
vn -0.0000 0.6559 0.7549
vn -0.0000 0.6068 0.7948
vn -0.0001 0.6405 0.7679
vn -0.0000 0.6042 0.7969
vn -0.0000 0.6249 0.7807
vn -0.0000 0.6010 0.7992
vn -0.0000 0.5974 0.8019
vn -0.0000 0.6091 0.7931
vn -0.0000 0.5888 0.8083
vn -0.0000 0.5839 0.8118
vn -0.0001 0.5928 0.8053
vn -0.0000 0.5599 0.8286
vn 0.0002 0.5764 0.8172
vn -0.0000 0.5665 0.8241
vn -0.0001 0.5726 0.8198
vn -0.0000 0.5785 0.8157
vn -0.0000 0.5933 0.8050
vn 1.0000 -0.0000 -0.0000
vn -0.0000 -0.0000 -1.0000
vn -0.0000 -1.0000 -0.0000
vn -0.0000 1.0000 -0.0000
vn -0.0004 -0.0000 -1.0000
vn -0.0001 -0.0000 -1.0000
vn 0.0001 -0.0000 -1.0000
vn 0.1129 -0.9936 -0.0000
vn 0.0588 -0.9983 -0.0000
vn 0.0587 -0.9983 -0.0000
vn 0.0045 -1.0000 -0.0000
vn -0.0498 -0.9988 -0.0000
vn -0.1039 -0.9946 -0.0000
vn -0.1578 -0.9875 -0.0000
vn -0.1040 -0.9946 -0.0000
vn -0.2112 -0.9774 -0.0000
vn -0.2639 -0.9646 -0.0000
vn -0.2111 -0.9775 -0.0000
vn -0.3159 -0.9488 -0.0000
vn -0.2640 -0.9645 -0.0000
vn -0.3160 -0.9488 -0.0000
vn -0.3670 -0.9302 -0.0000
vn -0.4170 -0.9089 -0.0000
vn -0.4657 -0.8850 -0.0000
vn -0.4656 -0.8850 -0.0000
vn -0.4658 -0.8849 -0.0000
vn -0.5130 -0.8584 -0.0000
vn -0.5588 -0.8293 -0.0000
vn -0.5589 -0.8292 -0.0000
vn -0.6031 -0.7976 -0.0000
vn -0.6031 -0.7977 -0.0000
vn -0.5590 -0.8292 -0.0000
vn -0.6455 -0.7638 -0.0000
vn -0.6860 -0.7276 -0.0000
vn -0.7245 -0.6893 -0.0000
vn -0.7609 -0.6489 -0.0000
vn -0.7245 -0.6892 -0.0000
vn -0.7949 -0.6067 -0.0000
vn -0.7950 -0.6066 -0.0000
vn -0.8267 -0.5627 -0.0000
vn -0.8267 -0.5626 -0.0000
vn -0.8560 -0.5170 -0.0000
vn -0.8561 -0.5169 -0.0000
vn -0.8828 -0.4697 -0.0000
vn -0.8829 -0.4696 -0.0000
vn -0.9070 -0.4210 -0.0000
vn -0.9070 -0.4211 -0.0000
vn -0.9286 -0.3712 -0.0000
vn -0.9071 -0.4210 -0.0000
vn -0.9474 -0.3202 -0.0000
vn -0.9286 -0.3711 -0.0000
vn -0.9633 -0.2683 -0.0000
vn -0.9473 -0.3202 -0.0000
vn -0.9633 -0.2684 -0.0000
vn -0.9765 -0.2156 -0.0000
vn -0.9634 -0.2682 -0.0000
vn -0.9765 -0.2155 -0.0000
vn -0.9765 -0.2155 0.0002
vn -0.9867 -0.1623 -0.0000
vn -0.9868 -0.1622 -0.0000
vn -0.9941 -0.1085 -0.0000
vn -0.9941 -0.1084 -0.0000
vn -0.9985 -0.0543 -0.0000
vn -0.9985 0.0543 -0.0000
vn -0.9941 0.1084 -0.0000
vn -0.9868 0.1622 -0.0000
vn -0.9941 0.1085 -0.0000
vn -0.9765 0.2155 -0.0000
vn -0.9867 0.1623 -0.0000
vn -0.9634 0.2682 -0.0000
vn -0.9765 0.2156 -0.0000
vn -0.9473 0.3202 -0.0000
vn -0.9633 0.2683 -0.0000
vn -0.9474 0.3202 -0.0000
vn -0.9286 0.3711 -0.0000
vn -0.9286 0.3712 -0.0000
vn -0.9285 0.3712 -0.0000
vn -0.9071 0.4210 -0.0000
vn -0.9070 0.4210 -0.0000
vn -0.8829 0.4696 -0.0000
vn -0.8828 0.4697 -0.0000
vn -0.8561 0.5169 -0.0000
vn -0.8560 0.5169 -0.0000
vn -0.8267 0.5627 -0.0000
vn -0.8267 0.5626 -0.0000
vn -0.8560 0.5170 -0.0000
vn -0.7950 0.6066 -0.0000
vn -0.7609 0.6489 -0.0000
vn -0.7949 0.6067 -0.0000
vn -0.7245 0.6892 -0.0000
vn -0.7245 0.6893 -0.0000
vn -0.6860 0.7276 -0.0000
vn -0.6455 0.7638 -0.0000
vn -0.6031 0.7977 -0.0000
vn 0.1129 0.9936 -0.0000
vn 0.0588 0.9983 -0.0000
vn 0.1666 0.9860 -0.0000
vn 0.0045 1.0000 -0.0000
vn 0.0587 0.9983 -0.0000
vn -0.0498 0.9988 -0.0000
vn -0.1039 0.9946 -0.0000
vn -0.1578 0.9875 -0.0000
vn -0.1040 0.9946 -0.0000
vn -0.2112 0.9774 -0.0000
vn -0.2111 0.9775 -0.0000
vn -0.2639 0.9646 -0.0000
vn -0.3159 0.9488 -0.0000
vn -0.2640 0.9645 -0.0000
vn -0.3160 0.9488 -0.0000
vn -0.3670 0.9302 -0.0000
vn -0.3669 0.9303 -0.0000
vn -0.4170 0.9089 -0.0000
vn -0.4169 0.9089 -0.0000
vn -0.3671 0.9302 -0.0000
vn -0.4657 0.8850 -0.0000
vn -0.4656 0.8850 -0.0000
vn -0.4657 0.8849 -0.0000
vn -0.5130 0.8584 -0.0000
vn -0.4658 0.8849 -0.0000
vn -0.5588 0.8293 -0.0000
vn -0.5590 0.8292 -0.0000
vn -0.6031 0.7976 -0.0000
vn -0.5589 0.8292 -0.0000
vn -0.9070 0.4211 -0.0000
vn -0.9633 0.2684 -0.0000
vn -0.9765 0.2155 -0.0002
vn -0.4169 -0.9089 -0.0000
vn -0.3669 -0.9303 -0.0000
vn 0.1666 -0.9860 -0.0000
vn 0.0238 0.7067 0.7071
vn 0.0032 0.7071 0.7071
vn 0.0415 0.7059 0.7071
vn 0.0239 0.7067 0.7071
vn 0.0416 0.7059 0.7071
vn 0.0748 0.7031 0.7071
vn -0.0269 0.7066 0.7071
vn -0.0352 0.7062 0.7071
vn -0.0735 0.7033 0.7071
vn -0.0773 0.7029 0.7071
vn -0.1116 0.6982 0.7071
vn -0.0773 0.7027 0.7073
vn -0.1269 0.6956 0.7071
vn -0.1493 0.6912 0.7071
vn -0.1752 0.6851 0.7071
vn -0.1866 0.6820 0.7071
vn -0.2220 0.6714 0.7071
vn -0.2234 0.6709 0.7071
vn -0.2219 0.6714 0.7071
vn -0.2594 0.6578 0.7071
vn -0.2669 0.6548 0.7071
vn -0.2595 0.6578 0.7071
vn -0.3098 0.6356 0.7071
vn -0.2948 0.6427 0.7071
vn -0.3293 0.6258 0.7071
vn -0.3504 0.6142 0.7071
vn -0.3628 0.6070 0.7071
vn -0.3886 0.5908 0.7071
vn -0.3955 0.5871 0.7063
vn -0.4244 0.5656 0.7071
vn -0.3952 0.5864 0.7071
vn -0.4564 0.5401 0.7071
vn -0.4264 0.5640 0.7071
vn -0.4243 0.5656 0.7071
vn -0.4576 0.5391 0.7071
vn -0.4851 0.5145 0.7071
vn -0.4883 0.5114 0.7071
vn -0.5123 0.4874 0.7071
vn -0.5165 0.4829 0.7071
vn -0.5380 0.4588 0.7071
vn -0.5424 0.4537 0.7071
vn -0.5379 0.4589 0.7071
vn -0.5658 0.4241 0.7071
vn -0.5621 0.4290 0.7071
vn -0.5729 0.4145 0.7071
vn -0.5846 0.3978 0.7071
vn -0.5799 0.4046 0.7071
vn -0.5871 0.3942 0.7070
vn -0.5942 0.3833 0.7071
vn -0.6053 0.3655 0.7071
vn -0.6201 0.3399 0.7071
vn -0.6201 0.3398 0.7071
vn -0.6243 0.3321 0.7070
vn -0.6243 0.3321 0.7071
vn -0.6428 0.2947 0.7071
vn -0.6414 0.2977 0.7071
vn -0.6428 0.2946 0.7071
vn -0.6622 0.2479 0.7071
vn -0.6566 0.2624 0.7071
vn -0.6623 0.2478 0.7071
vn -0.6783 0.1998 0.7071
vn -0.6699 0.2264 0.7071
vn -0.6812 0.1897 0.7071
vn -0.6908 0.1508 0.7071
vn -0.6905 0.1525 0.7071
vn -0.6999 0.1010 0.7071
vn -0.6977 0.1148 0.7071
vn -0.6909 0.1507 0.7071
vn -0.7029 0.0767 0.7071
vn -0.6977 0.1147 0.7071
vn -0.6999 0.1009 0.7071
vn -0.7061 0.0384 0.7071
vn -0.7029 0.0766 0.7071
vn -0.7053 0.0506 0.7071
vn -0.7071 -0.0000 0.7071
vn -0.7065 -0.0384 0.7067
vn -0.7070 -0.0000 0.7072
vn -0.7061 -0.0384 0.7071
vn -0.7072 -0.0000 0.7070
vn -0.7053 -0.0506 0.7071
vn -0.7030 -0.0766 0.7071
vn -0.7029 -0.0766 0.7071
vn -0.6999 -0.1009 0.7071
vn -0.6978 -0.1147 0.7071
vn -0.6999 -0.1010 0.7071
vn -0.6909 -0.1507 0.7071
vn -0.6977 -0.1148 0.7071
vn -0.6908 -0.1508 0.7071
vn -0.6812 -0.1896 0.7071
vn -0.6905 -0.1524 0.7071
vn -0.6783 -0.1998 0.7071
vn -0.6699 -0.2264 0.7071
vn -0.6812 -0.1897 0.7071
vn -0.6623 -0.2478 0.7071
vn -0.6566 -0.2624 0.7071
vn -0.6428 -0.2946 0.7071
vn -0.6416 -0.2977 0.7069
vn -0.6243 -0.3321 0.7071
vn -0.6414 -0.2977 0.7071
vn -0.6054 -0.3655 0.7070
vn -0.6243 -0.3320 0.7071
vn -0.6201 -0.3397 0.7071
vn -0.5846 -0.3978 0.7071
vn -0.6053 -0.3655 0.7071
vn -0.5942 -0.3834 0.7071
vn -0.5799 -0.4046 0.7071
vn -0.5870 -0.3942 0.7071
vn -0.5166 -0.4828 0.7071
vn -0.5380 -0.4589 0.7071
vn -0.5424 -0.4537 0.7071
vn -0.5621 -0.4290 0.7071
vn -0.5658 -0.4241 0.7071
vn -0.5123 -0.4874 0.7071
vn -0.5380 -0.4588 0.7071
vn -0.5166 -0.4829 0.7071
vn -0.4851 -0.5145 0.7071
vn -0.4883 -0.5114 0.7071
vn -0.4564 -0.5401 0.7071
vn -0.4576 -0.5391 0.7071
vn -0.4261 -0.5636 0.7077
vn -0.4242 -0.5657 0.7071
vn -0.5729 -0.4145 0.7071
vn 0.0749 -0.7031 0.7071
vn 0.1179 -0.6972 0.7071
vn 0.0798 -0.7026 0.7071
vn 0.0748 -0.7031 0.7071
vn 0.0799 -0.7027 0.7070
vn 0.0415 -0.7059 0.7071
vn 0.0416 -0.7059 0.7071
vn 0.0242 -0.7069 0.7069
vn 0.0032 -0.7071 0.7071
vn 0.0242 -0.7067 0.7071
vn -0.0265 -0.7066 0.7071
vn -0.0352 -0.7062 0.7071
vn -0.0768 -0.7029 0.7071
vn -0.0735 -0.7033 0.7071
vn -0.1116 -0.6982 0.7071
vn -0.1263 -0.6957 0.7071
vn -0.1493 -0.6912 0.7071
vn -0.1263 -0.6957 0.7072
vn -0.1494 -0.6912 0.7071
vn -0.1746 -0.6852 0.7071
vn -0.1866 -0.6820 0.7071
vn -0.1492 -0.6912 0.7071
vn -0.2214 -0.6716 0.7071
vn -0.1867 -0.6820 0.7071
vn -0.2214 -0.6715 0.7072
vn -0.2234 -0.6709 0.7071
vn -0.2214 -0.6715 0.7071
vn -0.2233 -0.6709 0.7071
vn -0.2594 -0.6578 0.7071
vn -0.2595 -0.6578 0.7071
vn -0.2664 -0.6550 0.7071
vn -0.2948 -0.6427 0.7071
vn -0.2665 -0.6550 0.7071
vn -0.3094 -0.6358 0.7071
vn -0.3293 -0.6258 0.7071
vn -0.3093 -0.6358 0.7071
vn -0.3501 -0.6143 0.7071
vn -0.3293 -0.6257 0.7071
vn -0.3501 -0.6144 0.7071
vn -0.3628 -0.6070 0.7071
vn -0.3883 -0.5909 0.7071
vn -0.3952 -0.5864 0.7071
vn -0.3884 -0.5909 0.7071
vn -0.4243 -0.5657 0.7071
vn -0.4264 -0.5641 0.7071
vn -0.5381 -0.4590 0.7069
vn -0.5622 -0.4290 0.7070
vn -0.5942 -0.3833 0.7071
vn -0.6201 -0.3399 0.7071
vn -0.6201 -0.3398 0.7071
vn -0.6622 -0.2479 0.7071
vn -0.7030 0.0766 0.7071
vn -0.6905 0.1524 0.7071
vn -0.6568 0.2625 0.7069
vn -0.5942 0.3834 0.7071
vn -0.6053 0.3656 0.7071
vn -0.5870 0.3942 0.7071
vn -0.5846 0.3979 0.7071
vn -0.5847 0.3979 0.7070
vn -0.5622 0.4291 0.7070
vn -0.5380 0.4589 0.7071
vn -0.1867 0.6820 0.7071
vn -0.1269 0.6956 0.7072
vn -0.0269 0.7067 0.7070
vn 0.0239 0.7069 0.7069
vn -0.0270 0.7066 0.7071
vn 0.0798 0.7026 0.7071
vn 0.1179 0.6972 0.7071
vn 0.0749 0.7031 0.7071
vn -0.1492 0.6912 0.7071
vn 0.0415 0.7060 0.7070
vn -0.0000 0.1480 0.9890
vn -0.0000 0.2928 0.9562
vn -0.0000 0.2927 0.9562
vn -0.0000 0.1690 0.9856
vn -0.0000 0.4310 0.9024
vn -0.0000 0.4459 0.8951
vn 0.0001 0.3165 0.9486
vn 0.0001 0.5599 0.8286
vn -0.0000 0.3164 0.9486
vn -0.0000 0.3165 0.9486
vn -0.0000 0.4311 0.9023
vn -0.0001 -0.3165 0.9486
vn -0.0000 -0.4459 0.8951
vn -0.0000 -0.3164 0.9486
vn -0.0000 -0.5599 0.8285
vn -0.0000 -0.4311 0.9023
vn -0.0000 -0.1480 0.9890
vn -0.0000 -0.2928 0.9562
vn -0.0000 -0.2927 0.9562
vn -0.0000 -0.1688 0.9857
vn -0.0000 -0.1689 0.9856
vn -0.0000 -0.4310 0.9024
vn -0.0000 -0.3163 0.9487
s 1
usemtl Diffuse_51_51_51_100.029
f 1//1 2//1 3//1
f 1//1 3//1 4//1
f 3//1 5//1 4//1
f 5//1 6//1 4//1
f 4//1 7//1 8//1
f 4//1 8//1 9//1
f 8//1 10//1 9//1
f 9//1 10//1 11//1
f 7//1 4//1 6//1
f 9//1 11//1 12//1
f 13//2 14//2 15//3
f 16//4 17//2 15//3
f 18//5 19//4 15//6
f 18//5 20//7 21//4
f 22//7 18//5 23//8
f 24//9 25//7 23//10
f 24//11 26//12 27//7
f 28//13 29//14 30//15
f 24//16 28//17 31//18
f 32//12 29//19 33//20
f 34//20 29//19 35//21
f 36//22 37//20 35//23
f 38//24 39//22 35//21
f 38//24 40//25 41//22
f 42//22 40//25 43//26
f 44//26 40//25 45//27
f 46//28 47//29 48//30
f 49//28 50//31 45//27
f 47//32 51//33 52//34
f 53//35 54//33 45//27
f 55//36 56//28 57//37
f 57//38 58//33 59//39
f 53//40 60//41 61//42
f 60//41 62//43 63//44
f 64//45 65//46 66//47
f 66//47 67//48 64//45
f 68//49 66//47 65//46
f 68//49 69//50 66//47
f 66//47 69//50 70//51
f 70//51 69//50 71//52
f 72//53 70//51 71//52
f 72//53 73//54 70//51
f 72//53 74//55 73//54
f 73//54 74//55 75//56
f 62//43 73//54 75//56
f 62//43 60//41 73//54
f 63//44 61//42 60//41
f 61//42 59//57 53//40
f 53//40 59//57 76//28
f 77//28 55//36 52//34
f 78//58 79//58 80//58
f 81//58 82//58 80//58
f 83//58 81//58 80//58
f 84//59 83//58 80//58
f 85//58 84//59 80//58
f 86//58 85//58 80//58
f 87//58 86//58 80//58
f 88//58 87//58 80//58
f 79//58 88//58 80//58
f 89//58 79//58 78//58
f 78//58 90//58 89//58
f 78//58 91//58 90//58
f 78//58 92//58 91//58
f 78//58 93//59 92//58
f 94//58 78//58 95//58
f 94//58 96//58 78//58
f 78//58 96//58 93//59
f 97//60 98//61 99//61
f 100//62 97//60 99//61
f 100//62 101//63 97//60
f 97//60 101//63 102//64
f 103//65 104//66 105//67
f 106//68 107//69 108//70
f 109//71 110//72 107//69
f 111//73 98//61 97//60
f 112//74 113//75 114//74
f 112//74 115//76 113//75
f 113//75 115//76 116//77
f 116//77 115//76 110//72
f 117//78 116//77 110//72
f 109//71 117//78 110//72
f 107//69 118//79 108//70
f 108//70 118//79 104//66
f 104//66 118//79 105//67
f 119//80 105//67 120//81
f 120//81 97//60 121//82
f 102//64 122//83 123//84
f 122//83 124//85 125//86
f 126//87 127//88 128//89
f 129//90 130//91 131//92
f 132//93 133//94 134//93
f 134//93 133//94 135//95
f 135//95 133//94 136//96
f 136//96 133//94 137//97
f 137//97 133//94 131//92
f 130//91 137//97 131//92
f 129//90 131//92 128//89
f 138//98 129//90 128//89
f 126//87 125//86 124//85
f 126//87 128//89 125//86
f 125//86 123//84 122//83
f 123//84 97//60 102//64
f 123//84 121//82 97//60
f 121//82 119//80 120//81
f 105//67 119//80 103//65
f 109//71 107//69 106//68
f 138//98 128//89 127//88
f 139//1 140//1 141//1
f 139//1 142//1 143//1
f 139//1 144//1 145//1
f 139//1 146//1 147//1
f 141//1 148//1 149//1
f 141//1 150//1 151//1
f 141//1 152//1 153//1
f 154//1 155//1 156//1
f 141//1 157//1 158//1
f 155//1 141//1 159//1
f 160//99 161//99 162//99
f 163//99 164//99 165//99
s 0
f 166//99 167//99 168//99
f 167//99 169//99 170//99
f 169//100 171//99 172//99
s 1
f 173//99 174//99 175//99
f 176//99 177//99 178//99
f 179//99 180//99 181//99
f 182//99 183//99 184//99
f 185//99 186//99 187//99
f 188//99 189//99 190//99
f 191//99 192//99 193//99
f 194//99 195//99 196//99
f 197//99 198//99 199//99
f 200//99 201//99 202//99
f 203//99 204//99 205//99
f 206//99 207//99 208//99
f 209//99 210//99 211//99
f 212//99 213//99 214//99
f 215//99 216//99 217//99
f 218//99 219//99 220//99
f 216//99 221//99 222//99
f 223//99 224//99 216//99
f 225//99 226//99 227//99
f 228//99 229//99 227//99
f 230//99 231//99 227//99
f 232//99 233//99 227//99
f 234//99 235//99 227//99
f 236//99 237//99 227//99
f 238//99 239//99 227//99
f 227//99 240//99 216//99
f 241//99 242//99 216//99
f 243//99 244//99 216//99
f 245//99 246//99 216//99
f 247//99 227//99 248//99
f 249//99 250//99 251//99
f 252//99 253//99 216//99
f 254//99 255//99 256//99
s 0
f 257//99 258//99 259//100
s 1
f 260//99 261//99 259//99
s 0
f 262//99 263//99 257//99
s 1
f 264//99 265//99 266//99
f 267//101 268//101 269//101
f 270//101 271//101 272//101
f 273//102 274//102 275//102
f 276//102 277//102 278//102
f 279//103 280//103 281//103
f 282//100 283//100 284//100
f 285//100 286//100 287//100
f 288//100 289//100 285//100
f 290//100 291//100 289//100
f 292//100 293//100 291//100
f 294//100 295//100 293//100
f 296//100 297//100 295//100
f 298//104 299//104 297//104
f 300//100 301//100 299//100
f 302//100 303//100 301//100
f 304//100 305//100 303//100
f 306//100 307//100 305//100
f 308//100 309//100 307//100
f 310//100 311//100 309//100
f 309//100 312//100 313//100
f 313//105 314//105 315//105
f 315//100 316//100 317//100
f 317//100 318//100 319//100
f 319//100 320//100 321//100
f 321//100 322//100 323//100
f 323//100 324//100 325//100
f 325//100 326//100 327//100
f 327//100 328//100 329//100
f 329//100 330//100 331//100
f 332//100 333//100 334//100
f 335//100 333//100 336//100
f 337//100 332//100 338//100
f 339//100 337//100 340//100
f 341//100 339//100 342//100
f 343//100 341//100 344//100
f 345//100 343//100 346//100
f 347//100 345//100 348//100
f 284//100 347//100 349//100
f 350//100 351//100 284//100
f 352//104 353//104 283//104
f 354//100 355//100 353//100
f 356//100 357//100 355//100
f 358//104 359//104 357//104
f 360//100 361//100 359//100
f 362//100 363//100 364//100
f 362//100 365//100 366//100
f 364//100 367//100 368//100
f 368//100 369//100 370//100
f 370//100 371//100 372//100
f 372//100 373//100 374//100
f 374//100 375//100 376//100
f 376//100 377//100 378//100
f 378//100 379//100 380//100
f 380//100 381//100 382//100
f 382//100 383//100 384//100
f 384//100 385//100 386//100
f 386//104 387//104 388//104
f 388//100 389//100 390//100
f 391//100 281//100 388//100
f 392//100 280//100 393//100
f 394//100 392//100 395//100
f 396//100 394//100 397//100
f 398//100 399//100 396//100
f 400//100 401//100 399//100
f 402//100 403//100 401//100
f 404//100 405//100 403//100
f 406//100 407//100 405//100
f 331//100 408//100 336//100
f 409//100 410//100 407//100
f 411//100 365//100 361//100
f 410//100 412//100 413//100
f 414//106 415//107 416//106
f 417//108 418//109 419//108
f 420//109 421//109 419//108
f 422//110 423//110 421//109
f 424//111 425//111 423//110
f 426//112 427//112 425//113
f 428//114 427//112 429//112
f 430//115 431//116 432//116
f 433//115 431//116 434//115
f 435//117 433//118 436//117
f 435//119 437//119 438//120
f 439//120 440//120 441//121
f 442//121 443//121 444//122
f 442//121 445//123 446//123
f 446//124 447//125 448//125
f 449//125 450//126 448//125
f 451//127 452//128 453//127
f 454//129 455//129 453//130
f 456//131 457//131 455//129
f 458//132 457//131 459//131
f 460//133 461//132 462//132
f 463//133 461//132 464//133
f 465//134 463//135 466//134
f 465//134 467//134 468//136
f 469//137 470//137 471//138
f 469//137 472//139 473//139
f 473//138 474//140 475//140
f 476//141 477//142 475//141
f 478//143 479//144 480//143
f 481//145 482//145 480//143
f 483//146 484//146 482//147
f 485//148 484//149 486//149
f 487//150 488//151 489//151
f 490//152 488//151 491//152
f 492//153 490//154 493//153
f 492//155 494//156 495//157
f 496//158 497//158 498//159
f 496//158 499//159 500//159
f 500//160 501//161 502//161
f 503//161 504//1 502//161
f 505//1 506//162 507//1
f 508//162 509//162 507//1
f 510//163 511//163 509//162
f 512//164 511//165 513//165
f 514//166 515//167 516//167
f 517//168 518//169 519//169
f 520//168 518//169 521//168
f 522//170 520//171 523//170
f 522//172 524//172 525//173
f 526//174 527//175 528//176
f 526//175 529//176 530//176
f 530//177 531//178 532//178
f 533//179 534//180 532//179
f 535//181 536//182 537//181
f 538//183 539//183 537//184
f 540//185 541//185 539//182
f 542//186 541//187 543//187
f 544//188 545//186 546//186
f 547//189 545//186 548//189
f 549//190 547//189 550//190
f 549//190 551//190 552//191
f 553//191 554//191 555//192
f 553//191 556//192 557//192
f 558//193 559//194 560//193
f 561//195 562//195 558//193
f 563//195 558//193 564//193
f 559//194 565//194 566//193
f 567//196 568//197 559//197
f 569//196 570//197 567//196
f 571//196 567//196 572//198
f 573//196 572//198 574//198
f 572//198 575//199 576//198
f 575//199 577//199 578//198
f 579//200 580//201 575//201
f 581//200 582//201 579//200
f 583//200 579//200 584//202
f 585//200 584//202 586//202
f 584//203 587//204 588//203
f 587//204 589//204 590//203
f 591//205 592//206 587//206
f 593//205 594//206 591//205
f 595//207 591//207 596//208
f 597//207 596//209 598//209
f 596//208 599//210 600//208
f 599//211 601//211 602//212
f 603//213 604//210 599//210
f 605//214 606//210 603//214
f 607//215 603//215 608//216
f 609//217 608//216 610//216
f 608//216 611//218 612//216
f 611//218 613//218 614//216
f 557//192 615//219 611//219
f 616//220 617//221 557//220
f 549//190 618//191 553//191
f 547//189 619//189 620//190
f 545//186 541//187 621//186
f 622//185 539//183 623//183
f 624//180 537//180 532//179
f 625//222 626//178 530//222
f 522//172 627//173 526//173
f 520//223 628//223 629//170
f 518//224 515//167 630//166
f 515//164 511//165 631//164
f 632//163 509//162 633//162
f 634//1 507//1 502//161
f 635//160 636//161 500//160
f 492//155 637//157 496//157
f 490//154 638//154 639//153
f 488//148 484//149 640//148
f 641//146 482//147 642//147
f 643//142 480//142 475//141
f 644//138 645//140 473//138
f 465//134 646//136 469//136
f 463//133 647//133 648//134
f 461//132 457//131 649//132
f 650//131 455//129 651//129
f 652//126 453//126 448//125
f 653//124 654//125 446//124
f 439//120 655//225 442//225
f 435//119 656//226 439//226
f 433//118 657//118 658//117
f 659//113 660//112 425//113
f 421//109 661//109 662//110
f 416//106 663//227 664//106
f 416//106 665//227 666//227
f 667//114 431//114 427//112
f 423//110 668//110 669//111
f 419//107 416//106 670//107
f 671//228 672//229 673//230
f 674//231 675//232 676//233
f 677//234 678//235 679//229
f 680//236 681//235 682//237
f 683//238 684//239 685//240
f 686//241 687//240 688//242
f 689//243 690//242 691//244
f 692//245 693//246 694//247
f 695//244 696//248 697//249
f 698//248 699//250 700//251
f 701//250 702//252 703//251
f 704//253 705//254 706//252
f 707//255 708//256 709//254
f 710//257 711//258 712//255
f 713//259 714//260 715//261
f 716//259 717//257 718//262
f 719//259 720//262 721//263
f 722//262 723//264 724//263
f 725//265 726//266 727//267
f 728//264 729//265 730//263
f 731//266 732//268 733//269
f 734//268 735//270 736//271
f 737//270 738//272 739//273
f 738//272 740//274 741//273
f 742//273 743//275 744//276
f 745//277 746//276 747//278
f 748//277 749//279 750//280
f 751//281 752//282 753//283
f 754//284 755//285 756//286
f 757//287 758//288 759//289
f 760//288 761//290 762//289
f 763//291 764//292 765//290
f 766//293 767//294 768//295
f 769//296 770//297 771//298
f 772//299 773//300 774//301
f 775//302 776//299 777//302
f 778//303 779//304 780//304
f 781//305 782//306 783//307
f 784//305 785//307 786//308
f 787//309 788//310 789//311
f 790//312 791//313 792//314
f 793//315 794//316 795//317
f 796//318 797//319 798//320
f 799//321 800//322 801//319
f 802//323 803//324 804//322
f 805//325 806//326 807//323
f 808//327 809//328 810//329
f 811//330 812//331 813//332
f 814//333 815//330 816//334
f 817//335 818//336 819//337
f 820//338 821//339 822//337
f 823//340 824//341 825//342
f 826//343 827//340 828//344
f 829//345 830//343 831//346
f 832//347 833//345 834//348
f 835//349 836//339 837//330
f 838//350 839//351 840//352
f 841//353 842//354 843//355
f 844//353 845//356 846//357
f 847//355 848//358 849//359
f 850//358 851//360 852//359
f 853//361 854//360 855//358
f 856//362 857//360 858//361
f 859//362 860//361 861//363
f 862//362 863//363 864//364
f 865//362 866//364 867//365
f 868//364 869//366 870//367
f 871//368 872//369 873//365
f 874//370 875//369 876//371
f 877//372 878//369 879//373
f 880//374 881//373 882//375
f 883//376 884//377 885//378
f 886//376 887//379 888//380
f 889//379 890//381 891//382
f 892//381 893//383 894//382
f 895//384 896//385 897//381
f 898//386 899//383 900//387
f 901//388 902//384 903//389
f 904//386 905//389 906//390
f 907//389 908//391 909//392
f 910//391 911//393 912//392
f 913//394 914//348 915//391
f 916//345 917//346 918//348
f 919//343 920//344 921//346
f 922//340 923//342 924//344
f 925//395 926//338 927//337
f 928//396 929//330 930//339
f 931//330 814//333 835//349
f 932//397 816//334 933//330
f 934//398 935//397 936//331
f 937//323 938//399 939//325
f 940//322 941//400 942//323
f 943//319 944//318 945//321
f 946//320 947//315 948//318
f 949//317 950//314 951//315
f 952//310 953//308 954//307
f 955//299 956//301 957//304
f 958//401 959//298 960//301
f 961//294 962//402 963//291
f 964//291 965//290 966//288
f 967//287 968//289 969//286
f 970//284 971//403 972//283
f 973//279 974//284 975//281
f 976//273 977//404 978//405
f 740//274 743//406 979//407
f 980//270 981//408 982//271
f 983//268 984//409 985//410
f 986//264 987//266 988//265
f 989//261 990//260 991//258
f 992//253 993//255 994//254
f 995//250 996//253 997//252
f 998//244 999//245 1000//411
f 1001//238 1002//412 1003//241
f 1004//236 1005//237 1006//238
f 1007//235 1008//413 1009//237
f 1010//414 1011//415 1012//229
f 1013//416 1014//417 1015//418
f 1016//242 1017//243 1018//419
f 1019//251 1020//249 1021//248
f 1022//420 1023//416 1024//233
f 95//58 78//58 1025//421
f 1026//421 1027//422 95//58
f 95//58 1028//423 1029//424
s 0
f 1030//424 1031//58 1032//425
s 1
f 1033//426 132//93 134//93
f 1034//426 1035//427 132//428
f 1036//429 1037//424 1038//425
f 1039//430 1040//431 132//93
f 67//48 1041//432 1042//433
f 64//45 67//48 1043//433
f 1044//434 67//435 1045//436
f 80//58 82//58 1046//437
f 1047//437 82//58 1048//438
f 1049//439 82//58 1050//440
s 0
f 1051//58 1052//438 1053//441
s 1
f 1054//442 1055//441 1056//443
