# Blender 4.4.3
# www.blender.org
mtllib Mesh_18.009.mtl
o Mesh_18.009
v -0.000210 0.008776 -0.013703
v -0.000210 0.008830 -0.013703
v -0.000210 0.008827 -0.013705
v -0.000210 0.008824 -0.013707
v -0.000210 0.008821 -0.013709
v -0.000210 0.008817 -0.013710
v -0.000210 0.008810 -0.013712
v -0.000210 0.008814 -0.013712
v -0.000210 0.008807 -0.013713
v -0.000210 0.008803 -0.013713
v -0.000210 0.008799 -0.013713
v -0.000210 0.008796 -0.013712
v -0.000210 0.008792 -0.013712
v -0.000210 0.008789 -0.013710
v -0.000210 0.008785 -0.013709
v -0.000210 0.008782 -0.013707
v -0.000210 0.008779 -0.013705
v -0.000210 0.008773 -0.013700
v -0.000210 0.008833 -0.013700
v -0.000210 0.008770 -0.013697
v -0.000210 0.008836 -0.013697
v -0.000210 0.008766 -0.013693
v -0.000210 0.008840 -0.013693
v -0.000210 0.008763 -0.013690
v -0.000210 0.008843 -0.013690
v -0.000210 0.008760 -0.013686
v -0.000210 0.008846 -0.013686
v -0.000210 0.008757 -0.013683
v -0.000210 0.008849 -0.013683
v -0.000210 0.008754 -0.013679
v -0.000210 0.008852 -0.013679
v -0.000210 0.008854 -0.013675
v -0.000210 0.008752 -0.013675
v -0.000210 0.008749 -0.013671
v -0.000210 0.008744 -0.013663
v -0.000210 0.008859 -0.013667
v -0.000210 0.008747 -0.013667
v -0.000210 0.008857 -0.013671
v -0.000210 0.008872 -0.013642
v -0.000210 0.008870 -0.013647
v -0.000210 0.008872 -0.013640
v -0.000210 0.008868 -0.013651
v -0.000210 0.008866 -0.013655
v -0.000210 0.008734 -0.013640
v -0.000210 0.008738 -0.013651
v -0.000210 0.008740 -0.013655
v -0.000210 0.008736 -0.013647
v -0.000210 0.008864 -0.013659
v -0.000210 0.008742 -0.013659
v -0.000210 0.008862 -0.013663
v -0.000210 0.008734 -0.013642
v 0.000020 0.008734 -0.013640
v 0.000020 0.008734 -0.013642
v 0.000020 0.008736 -0.013647
v 0.000020 0.008738 -0.013651
v 0.000020 0.008740 -0.013655
v 0.000020 0.008866 -0.013655
v 0.000020 0.008742 -0.013659
v 0.000020 0.008864 -0.013659
v 0.000020 0.008744 -0.013663
v 0.000020 0.008862 -0.013663
v 0.000020 0.008747 -0.013667
v 0.000020 0.008749 -0.013671
v 0.000020 0.008859 -0.013667
v 0.000020 0.008857 -0.013671
v 0.000020 0.008854 -0.013675
v 0.000020 0.008752 -0.013675
v 0.000020 0.008754 -0.013679
v 0.000020 0.008852 -0.013679
v 0.000020 0.008757 -0.013683
v 0.000020 0.008849 -0.013683
v 0.000020 0.008760 -0.013686
v 0.000020 0.008846 -0.013686
v 0.000020 0.008840 -0.013693
v 0.000020 0.008843 -0.013690
v 0.000020 0.008766 -0.013693
v 0.000020 0.008836 -0.013697
v 0.000020 0.008770 -0.013697
v 0.000020 0.008773 -0.013700
v 0.000020 0.008830 -0.013703
v 0.000020 0.008833 -0.013700
v 0.000020 0.008776 -0.013703
v 0.000020 0.008827 -0.013705
v 0.000020 0.008824 -0.013707
v 0.000020 0.008779 -0.013705
v 0.000020 0.008782 -0.013707
v 0.000020 0.008785 -0.013709
v 0.000020 0.008792 -0.013712
v 0.000020 0.008789 -0.013710
v 0.000020 0.008796 -0.013712
v 0.000020 0.008799 -0.013713
v 0.000020 0.008803 -0.013713
v 0.000020 0.008807 -0.013713
v 0.000020 0.008810 -0.013712
v 0.000020 0.008814 -0.013712
v 0.000020 0.008817 -0.013710
v 0.000020 0.008821 -0.013709
v 0.000020 0.008763 -0.013690
v 0.000020 0.008872 -0.013640
v 0.000020 0.008868 -0.013651
v 0.000020 0.008872 -0.013642
v 0.000020 0.008870 -0.013647
v 0.000020 0.008734 -0.013642
v 0.000020 0.008734 -0.013640
v -0.000038 0.008734 -0.013642
v 0.000020 0.008734 -0.013640
v -0.000210 0.008734 -0.013640
v -0.000210 0.008734 -0.013642
v -0.000095 0.008734 -0.013642
v 0.000020 0.008734 -0.013640
v -0.000153 0.008734 -0.013642
v 0.000020 0.008734 -0.013640
v 0.000020 0.008734 -0.013640
v -0.000210 0.008734 -0.013642
v -0.000115 0.008805 -0.013640
v -0.000115 0.008803 -0.013713
v -0.000115 0.008803 -0.013640
v -0.000115 0.008807 -0.013713
v -0.000115 0.008805 -0.013713
v -0.000116 0.008809 -0.013712
v -0.000115 0.008807 -0.013640
v -0.000116 0.008809 -0.013640
v -0.000116 0.008811 -0.013712
v -0.000116 0.008811 -0.013640
v -0.000117 0.008813 -0.013712
v -0.000117 0.008813 -0.013640
v -0.000118 0.008815 -0.013711
v -0.000117 0.008815 -0.013640
v -0.000118 0.008817 -0.013640
v -0.000119 0.008817 -0.013710
v -0.000120 0.008819 -0.013710
v -0.000119 0.008819 -0.013640
v -0.000121 0.008821 -0.013709
v -0.000120 0.008820 -0.013640
v -0.000122 0.008822 -0.013640
v -0.000122 0.008822 -0.013708
v -0.000123 0.008824 -0.013707
v -0.000125 0.008825 -0.013706
v -0.000123 0.008823 -0.013640
v -0.000129 0.008829 -0.013704
v -0.000129 0.008829 -0.013640
v -0.000131 0.008830 -0.013703
v -0.000131 0.008830 -0.013640
v -0.000128 0.008827 -0.013640
v -0.000128 0.008828 -0.013705
v -0.000126 0.008826 -0.013640
v -0.000126 0.008826 -0.013706
v -0.000124 0.008825 -0.013640
v -0.000115 0.008801 -0.013713
v -0.000115 0.008801 -0.013640
v -0.000115 0.008799 -0.013713
v -0.000115 0.008798 -0.013640
v -0.000116 0.008797 -0.013712
v -0.000116 0.008796 -0.013640
v -0.000116 0.008795 -0.013712
v -0.000117 0.008793 -0.013712
v -0.000117 0.008793 -0.013640
v -0.000117 0.008791 -0.013640
v -0.000118 0.008791 -0.013711
v -0.000119 0.008789 -0.013710
v -0.000118 0.008789 -0.013640
v -0.000120 0.008787 -0.013710
v -0.000120 0.008787 -0.013640
v -0.000121 0.008785 -0.013640
v -0.000121 0.008785 -0.013709
v -0.000123 0.008783 -0.013640
v -0.000125 0.008781 -0.013706
v -0.000124 0.008781 -0.013640
v -0.000123 0.008782 -0.013707
v -0.000122 0.008784 -0.013708
v -0.000126 0.008780 -0.013706
v -0.000128 0.008779 -0.013705
v -0.000129 0.008777 -0.013704
v -0.000128 0.008778 -0.013640
v -0.000126 0.008780 -0.013640
v -0.000131 0.008776 -0.013703
v -0.000130 0.008777 -0.013640
v -0.000133 0.008776 -0.013702
v -0.000132 0.008776 -0.013640
v -0.000134 0.008775 -0.013702
v -0.000135 0.008775 -0.013640
v -0.000136 0.008774 -0.013701
v -0.000137 0.008774 -0.013640
v -0.000138 0.008774 -0.013701
v -0.000139 0.008774 -0.013640
v -0.000140 0.008774 -0.013700
v -0.000141 0.008773 -0.013700
v -0.000143 0.008773 -0.013700
v -0.000142 0.008773 -0.013640
v -0.000144 0.008773 -0.013640
v -0.000145 0.008773 -0.013700
v -0.000147 0.008773 -0.013700
v -0.000147 0.008773 -0.013640
v -0.000149 0.008773 -0.013640
v -0.000149 0.008773 -0.013700
v -0.000151 0.008774 -0.013640
v -0.000151 0.008774 -0.013700
v -0.000154 0.008774 -0.013640
v -0.000152 0.008774 -0.013701
v -0.000156 0.008775 -0.013640
v -0.000154 0.008774 -0.013701
v -0.000156 0.008775 -0.013702
v -0.000158 0.008776 -0.013640
v -0.000157 0.008776 -0.013702
v -0.000159 0.008776 -0.013703
v -0.000160 0.008777 -0.013640
v -0.000161 0.008777 -0.013704
v -0.000162 0.008779 -0.013640
v -0.000162 0.008778 -0.013705
v -0.000164 0.008780 -0.013706
v -0.000164 0.008780 -0.013640
v -0.000166 0.008782 -0.013640
v -0.000165 0.008781 -0.013706
v -0.000167 0.008782 -0.013707
v -0.000168 0.008784 -0.013640
v -0.000168 0.008784 -0.013708
v -0.000169 0.008785 -0.013709
v -0.000169 0.008785 -0.013640
v -0.000171 0.008787 -0.013640
v -0.000172 0.008790 -0.013640
v -0.000170 0.008787 -0.013710
v -0.000171 0.008789 -0.013710
v -0.000173 0.008792 -0.013640
v -0.000172 0.008791 -0.013711
v -0.000173 0.008793 -0.013712
v -0.000174 0.008794 -0.013640
v -0.000174 0.008795 -0.013712
v -0.000175 0.008799 -0.013640
v -0.000174 0.008796 -0.013640
v -0.000174 0.008797 -0.013712
v -0.000175 0.008799 -0.013713
v -0.000174 0.008809 -0.013712
v -0.000174 0.008811 -0.013712
v -0.000174 0.008811 -0.013640
v -0.000175 0.008801 -0.013640
v -0.000175 0.008801 -0.013713
v -0.000171 0.008817 -0.013710
v -0.000170 0.008819 -0.013710
v -0.000171 0.008818 -0.013640
v -0.000167 0.008824 -0.013707
v -0.000167 0.008824 -0.013640
v -0.000168 0.008822 -0.013640
v -0.000161 0.008829 -0.013704
v -0.000163 0.008827 -0.013640
v -0.000162 0.008827 -0.013705
v -0.000159 0.008829 -0.013640
v -0.000157 0.008830 -0.013702
v -0.000157 0.008831 -0.013640
v -0.000152 0.008832 -0.013701
v -0.000152 0.008832 -0.013640
v -0.000155 0.008831 -0.013640
v -0.000149 0.008833 -0.013700
v -0.000150 0.008833 -0.013640
v -0.000151 0.008832 -0.013700
v -0.000147 0.008833 -0.013700
v -0.000145 0.008833 -0.013640
v -0.000148 0.008833 -0.013640
v -0.000145 0.008833 -0.013700
v -0.000143 0.008833 -0.013700
v -0.000141 0.008833 -0.013700
v -0.000143 0.008833 -0.013640
v -0.000140 0.008832 -0.013700
v -0.000140 0.008833 -0.013640
v -0.000138 0.008832 -0.013701
v -0.000138 0.008832 -0.013640
v -0.000136 0.008832 -0.013701
v -0.000136 0.008831 -0.013640
v -0.000133 0.008830 -0.013702
v -0.000133 0.008831 -0.013640
v -0.000134 0.008831 -0.013702
v -0.000154 0.008832 -0.013701
v -0.000156 0.008831 -0.013702
v -0.000159 0.008830 -0.013703
v -0.000161 0.008828 -0.013640
v -0.000164 0.008826 -0.013706
v -0.000165 0.008825 -0.013640
v -0.000165 0.008825 -0.013706
v -0.000168 0.008822 -0.013708
v -0.000170 0.008820 -0.013640
v -0.000169 0.008821 -0.013709
v -0.000172 0.008816 -0.013640
v -0.000172 0.008815 -0.013711
v -0.000173 0.008813 -0.013640
v -0.000173 0.008813 -0.013712
v -0.000174 0.008809 -0.013640
v -0.000175 0.008807 -0.013713
v -0.000175 0.008806 -0.013640
v -0.000175 0.008805 -0.013713
v -0.000175 0.008804 -0.013640
v -0.000175 0.008803 -0.013713
v -0.000153 0.008872 -0.013642
v -0.000210 0.008872 -0.013642
v 0.000020 0.008872 -0.013640
v -0.000210 0.008872 -0.013642
v -0.000210 0.008872 -0.013640
v 0.000020 0.008872 -0.013640
v -0.000038 0.008872 -0.013642
v -0.000095 0.008872 -0.013642
v 0.000020 0.008872 -0.013640
v 0.000020 0.008872 -0.013642
v 0.000020 0.008872 -0.013640
v 0.000020 0.008872 -0.013640
v -0.000129 0.008829 -0.013640
v -0.000128 0.008827 -0.013640
v 0.000020 0.008872 -0.013640
v -0.000129 0.008829 -0.013640
v 0.000020 0.008872 -0.013640
v -0.000131 0.008830 -0.013640
v -0.000128 0.008827 -0.013640
v -0.000126 0.008826 -0.013640
v 0.000020 0.008872 -0.013640
v -0.000126 0.008826 -0.013640
v -0.000124 0.008825 -0.013640
v 0.000020 0.008872 -0.013640
v -0.000124 0.008825 -0.013640
v -0.000123 0.008823 -0.013640
v 0.000020 0.008872 -0.013640
v -0.000123 0.008823 -0.013640
v -0.000122 0.008822 -0.013640
v 0.000020 0.008872 -0.013640
v -0.000122 0.008822 -0.013640
v -0.000120 0.008820 -0.013640
v 0.000020 0.008872 -0.013640
v -0.000120 0.008820 -0.013640
v -0.000119 0.008819 -0.013640
v 0.000020 0.008872 -0.013640
v -0.000119 0.008819 -0.013640
v -0.000118 0.008817 -0.013640
v 0.000020 0.008872 -0.013640
v -0.000118 0.008817 -0.013640
v -0.000117 0.008815 -0.013640
v 0.000020 0.008872 -0.013640
v -0.000117 0.008815 -0.013640
v -0.000117 0.008813 -0.013640
v 0.000020 0.008872 -0.013640
v -0.000117 0.008813 -0.013640
v -0.000116 0.008811 -0.013640
v 0.000020 0.008872 -0.013640
v -0.000116 0.008811 -0.013640
v -0.000116 0.008809 -0.013640
v 0.000020 0.008872 -0.013640
v -0.000116 0.008809 -0.013640
v -0.000115 0.008807 -0.013640
v 0.000020 0.008872 -0.013640
v -0.000115 0.008807 -0.013640
v -0.000115 0.008805 -0.013640
v 0.000020 0.008872 -0.013640
v -0.000115 0.008805 -0.013640
v -0.000115 0.008803 -0.013640
v 0.000020 0.008872 -0.013640
v -0.000115 0.008803 -0.013640
v 0.000020 0.008734 -0.013640
v 0.000020 0.008872 -0.013640
v -0.000115 0.008801 -0.013640
v 0.000020 0.008734 -0.013640
v -0.000115 0.008803 -0.013640
v -0.000115 0.008798 -0.013640
v 0.000020 0.008734 -0.013640
v -0.000115 0.008801 -0.013640
v -0.000116 0.008796 -0.013640
v 0.000020 0.008734 -0.013640
v -0.000115 0.008798 -0.013640
v 0.000020 0.008734 -0.013640
v -0.000116 0.008796 -0.013640
v -0.000117 0.008793 -0.013640
v 0.000020 0.008734 -0.013640
v -0.000117 0.008793 -0.013640
v -0.000117 0.008791 -0.013640
v 0.000020 0.008734 -0.013640
v -0.000117 0.008791 -0.013640
v -0.000118 0.008789 -0.013640
v 0.000020 0.008734 -0.013640
v -0.000118 0.008789 -0.013640
v -0.000120 0.008787 -0.013640
v 0.000020 0.008734 -0.013640
v -0.000120 0.008787 -0.013640
v -0.000121 0.008785 -0.013640
v 0.000020 0.008734 -0.013640
v -0.000121 0.008785 -0.013640
v -0.000123 0.008783 -0.013640
v 0.000020 0.008734 -0.013640
v -0.000123 0.008783 -0.013640
v -0.000124 0.008781 -0.013640
v -0.000128 0.008778 -0.013640
v -0.000130 0.008777 -0.013640
v 0.000020 0.008734 -0.013640
v -0.000128 0.008778 -0.013640
v 0.000020 0.008734 -0.013640
v -0.000126 0.008780 -0.013640
v 0.000020 0.008734 -0.013640
v -0.000124 0.008781 -0.013640
v -0.000126 0.008780 -0.013640
v -0.000132 0.008776 -0.013640
v 0.000020 0.008734 -0.013640
v -0.000130 0.008777 -0.013640
v -0.000135 0.008775 -0.013640
v 0.000020 0.008734 -0.013640
v -0.000132 0.008776 -0.013640
v -0.000137 0.008774 -0.013640
v 0.000020 0.008734 -0.013640
v -0.000135 0.008775 -0.013640
v -0.000210 0.008734 -0.013640
v 0.000020 0.008734 -0.013640
v -0.000137 0.008774 -0.013640
v -0.000210 0.008734 -0.013640
v -0.000137 0.008774 -0.013640
v -0.000139 0.008774 -0.013640
v -0.000210 0.008734 -0.013640
v -0.000139 0.008774 -0.013640
v -0.000142 0.008773 -0.013640
v -0.000210 0.008734 -0.013640
v -0.000142 0.008773 -0.013640
v -0.000144 0.008773 -0.013640
v -0.000210 0.008734 -0.013640
v -0.000144 0.008773 -0.013640
v -0.000147 0.008773 -0.013640
v -0.000151 0.008774 -0.013640
v -0.000154 0.008774 -0.013640
v -0.000210 0.008734 -0.013640
v -0.000151 0.008774 -0.013640
v -0.000210 0.008734 -0.013640
v -0.000149 0.008773 -0.013640
v -0.000154 0.008774 -0.013640
v -0.000156 0.008775 -0.013640
v -0.000210 0.008734 -0.013640
v -0.000156 0.008775 -0.013640
v -0.000158 0.008776 -0.013640
v -0.000210 0.008734 -0.013640
v -0.000158 0.008776 -0.013640
v -0.000160 0.008777 -0.013640
v -0.000210 0.008734 -0.013640
v -0.000160 0.008777 -0.013640
v -0.000162 0.008779 -0.013640
v -0.000210 0.008734 -0.013640
v -0.000162 0.008779 -0.013640
v -0.000164 0.008780 -0.013640
v -0.000210 0.008734 -0.013640
v -0.000164 0.008780 -0.013640
v -0.000166 0.008782 -0.013640
v -0.000210 0.008734 -0.013640
v -0.000166 0.008782 -0.013640
v -0.000168 0.008784 -0.013640
v -0.000210 0.008734 -0.013640
v -0.000168 0.008784 -0.013640
v -0.000169 0.008785 -0.013640
v -0.000210 0.008734 -0.013640
v -0.000169 0.008785 -0.013640
v -0.000171 0.008787 -0.013640
v -0.000210 0.008734 -0.013640
v -0.000171 0.008787 -0.013640
v -0.000172 0.008790 -0.013640
v -0.000210 0.008734 -0.013640
v -0.000172 0.008790 -0.013640
v -0.000173 0.008792 -0.013640
v -0.000210 0.008734 -0.013640
v -0.000174 0.008794 -0.013640
v -0.000210 0.008734 -0.013640
v -0.000173 0.008792 -0.013640
v -0.000174 0.008796 -0.013640
v -0.000210 0.008734 -0.013640
v -0.000174 0.008794 -0.013640
v -0.000175 0.008799 -0.013640
v -0.000210 0.008734 -0.013640
v -0.000174 0.008796 -0.013640
v -0.000210 0.008734 -0.013640
v -0.000147 0.008773 -0.013640
v -0.000149 0.008773 -0.013640
v -0.000175 0.008804 -0.013640
v -0.000210 0.008734 -0.013640
v -0.000175 0.008801 -0.013640
v -0.000210 0.008872 -0.013640
v -0.000210 0.008734 -0.013640
v -0.000175 0.008804 -0.013640
v -0.000210 0.008872 -0.013640
v -0.000175 0.008804 -0.013640
v -0.000175 0.008806 -0.013640
v -0.000210 0.008872 -0.013640
v -0.000175 0.008806 -0.013640
v -0.000174 0.008809 -0.013640
v -0.000210 0.008872 -0.013640
v -0.000174 0.008809 -0.013640
v -0.000174 0.008811 -0.013640
v -0.000172 0.008816 -0.013640
v -0.000171 0.008818 -0.013640
v -0.000210 0.008872 -0.013640
v -0.000172 0.008816 -0.013640
v -0.000210 0.008872 -0.013640
v -0.000173 0.008813 -0.013640
v -0.000171 0.008818 -0.013640
v -0.000170 0.008820 -0.013640
v -0.000210 0.008872 -0.013640
v -0.000170 0.008820 -0.013640
v -0.000168 0.008822 -0.013640
v -0.000210 0.008872 -0.013640
v -0.000168 0.008822 -0.013640
v -0.000167 0.008824 -0.013640
v -0.000210 0.008872 -0.013640
v -0.000167 0.008824 -0.013640
v -0.000165 0.008825 -0.013640
v -0.000210 0.008872 -0.013640
v -0.000165 0.008825 -0.013640
v -0.000163 0.008827 -0.013640
v -0.000210 0.008872 -0.013640
v -0.000163 0.008827 -0.013640
v -0.000161 0.008828 -0.013640
v -0.000210 0.008872 -0.013640
v -0.000161 0.008828 -0.013640
v -0.000159 0.008829 -0.013640
v -0.000210 0.008872 -0.013640
v -0.000159 0.008829 -0.013640
v -0.000157 0.008831 -0.013640
v -0.000210 0.008872 -0.013640
v -0.000157 0.008831 -0.013640
v -0.000155 0.008831 -0.013640
v -0.000210 0.008872 -0.013640
v -0.000155 0.008831 -0.013640
v -0.000152 0.008832 -0.013640
v -0.000210 0.008872 -0.013640
v -0.000150 0.008833 -0.013640
v -0.000210 0.008872 -0.013640
v -0.000152 0.008832 -0.013640
v -0.000148 0.008833 -0.013640
v -0.000210 0.008872 -0.013640
v -0.000150 0.008833 -0.013640
v -0.000145 0.008833 -0.013640
v -0.000210 0.008872 -0.013640
v -0.000148 0.008833 -0.013640
v -0.000143 0.008833 -0.013640
v -0.000210 0.008872 -0.013640
v -0.000145 0.008833 -0.013640
v -0.000140 0.008833 -0.013640
v -0.000210 0.008872 -0.013640
v -0.000143 0.008833 -0.013640
v -0.000138 0.008832 -0.013640
v -0.000210 0.008872 -0.013640
v -0.000140 0.008833 -0.013640
v 0.000020 0.008872 -0.013640
v -0.000210 0.008872 -0.013640
v -0.000138 0.008832 -0.013640
v 0.000020 0.008872 -0.013640
v -0.000138 0.008832 -0.013640
v -0.000136 0.008831 -0.013640
v -0.000210 0.008872 -0.013640
v -0.000174 0.008811 -0.013640
v -0.000173 0.008813 -0.013640
v -0.000131 0.008830 -0.013640
v 0.000020 0.008872 -0.013640
v -0.000133 0.008831 -0.013640
v -0.000133 0.008831 -0.013640
v 0.000020 0.008872 -0.013640
v -0.000136 0.008831 -0.013640
v -0.000175 0.008799 -0.013640
v -0.000175 0.008801 -0.013640
v -0.000210 0.008734 -0.013640
v -0.000056 0.008854 -0.013676
v -0.000064 0.008852 -0.013679
v -0.000085 0.008853 -0.013676
v -0.000038 0.008853 -0.013677
v -0.000017 0.008846 -0.013686
v -0.000017 0.008849 -0.013682
v -0.000008 0.008845 -0.013687
v -0.000027 0.008843 -0.013690
v -0.000056 0.008845 -0.013687
v -0.000058 0.008839 -0.013694
v -0.000064 0.008834 -0.013699
v -0.000084 0.008839 -0.013694
v -0.000017 0.008838 -0.013694
v -0.000018 0.008834 -0.013699
v -0.000002 0.008841 -0.013692
v -0.000053 0.008850 -0.013681
v -0.000079 0.008849 -0.013683
v -0.000082 0.008842 -0.013690
v 0.000020 0.008843 -0.013690
v -0.000143 0.008868 -0.013652
v -0.000148 0.008866 -0.013657
v -0.000210 0.008868 -0.013651
v -0.000132 0.008867 -0.013653
v -0.000183 0.008849 -0.013682
v -0.000171 0.008853 -0.013676
v -0.000148 0.008851 -0.013680
v -0.000210 0.008849 -0.013683
v -0.000210 0.008852 -0.013679
v -0.000169 0.008846 -0.013686
v -0.000149 0.008842 -0.013691
v -0.000210 0.008843 -0.013690
v -0.000134 0.008846 -0.013685
v -0.000140 0.008852 -0.013679
v -0.000162 0.008857 -0.013671
v -0.000134 0.008855 -0.013674
v -0.000210 0.008852 -0.013679
v -0.000210 0.008854 -0.013675
v -0.000053 0.008859 -0.013669
v -0.000059 0.008862 -0.013663
v -0.000024 0.008860 -0.013666
v -0.000067 0.008857 -0.013671
v -0.000082 0.008860 -0.013666
v -0.000042 0.008864 -0.013659
v -0.000045 0.008867 -0.013654
v 0.000020 0.008866 -0.013655
v -0.000057 0.008865 -0.013658
v -0.000034 0.008857 -0.013671
v 0.000020 0.008862 -0.013663
v 0.000020 0.008859 -0.013667
v -0.000176 0.008863 -0.013661
v -0.000169 0.008860 -0.013666
v -0.000210 0.008862 -0.013663
v -0.000136 0.008862 -0.013663
v -0.000210 0.008857 -0.013671
v -0.000100 0.008857 -0.013671
v -0.000085 0.008862 -0.013663
v -0.000123 0.008858 -0.013670
v -0.000102 0.008853 -0.013677
v -0.000092 0.008852 -0.013679
v -0.000114 0.008850 -0.013681
v -0.000111 0.008846 -0.013686
v -0.000067 0.008865 -0.013657
v 0.000020 0.008864 -0.013659
v -0.000121 0.008865 -0.013657
v -0.000097 0.008866 -0.013655
v -0.000151 0.008870 -0.013647
v -0.000086 0.008867 -0.013653
v -0.000096 0.008870 -0.013647
v -0.000040 0.008870 -0.013646
v 0.000020 0.008836 -0.013697
v -0.000056 0.008830 -0.013703
v 0.000020 0.008854 -0.013675
v 0.000020 0.008852 -0.013679
v 0.000020 0.008849 -0.013683
v -0.000106 0.008841 -0.013691
v -0.000210 0.008870 -0.013647
v -0.000210 0.008868 -0.013651
v 0.000020 0.008870 -0.013647
v -0.000149 0.008836 -0.013697
v -0.000126 0.008836 -0.013697
v -0.000151 0.008832 -0.013700
v -0.000152 0.008832 -0.013701
v -0.000210 0.008849 -0.013683
v -0.000210 0.008846 -0.013686
v -0.000143 0.008833 -0.013700
v 0.000020 0.008836 -0.013697
v 0.000020 0.008840 -0.013693
v -0.000131 0.008830 -0.013703
v -0.000131 0.008830 -0.013703
v 0.000020 0.008868 -0.013651
v 0.000020 0.008866 -0.013655
v 0.000020 0.008843 -0.013690
v 0.000020 0.008840 -0.013693
v -0.000133 0.008830 -0.013702
v -0.000134 0.008831 -0.013702
v 0.000020 0.008836 -0.013697
v 0.000020 0.008833 -0.013700
v -0.000210 0.008864 -0.013659
v -0.000210 0.008866 -0.013655
v -0.000210 0.008854 -0.013675
v -0.000210 0.008857 -0.013671
v 0.000020 0.008857 -0.013671
v -0.000147 0.008833 -0.013700
v -0.000145 0.008833 -0.013700
v 0.000020 0.008846 -0.013686
v 0.000020 0.008849 -0.013683
v -0.000157 0.008830 -0.013702
v -0.000210 0.008833 -0.013700
v -0.000156 0.008831 -0.013702
v -0.000157 0.008830 -0.013702
v -0.000159 0.008830 -0.013703
v -0.000210 0.008833 -0.013700
v -0.000156 0.008831 -0.013702
v -0.000210 0.008833 -0.013700
v -0.000154 0.008832 -0.013701
v -0.000154 0.008832 -0.013701
v -0.000210 0.008833 -0.013700
v -0.000210 0.008836 -0.013697
v -0.000154 0.008832 -0.013701
v -0.000210 0.008836 -0.013697
v -0.000152 0.008832 -0.013701
v -0.000154 0.008832 -0.013701
v -0.000210 0.008836 -0.013697
v -0.000210 0.008840 -0.013693
v -0.000151 0.008832 -0.013700
v -0.000149 0.008833 -0.013700
v -0.000210 0.008843 -0.013690
v -0.000210 0.008846 -0.013686
v -0.000210 0.008852 -0.013679
v 0.000020 0.008843 -0.013690
v 0.000020 0.008846 -0.013686
v -0.000210 0.008857 -0.013671
v -0.000143 0.008833 -0.013700
v -0.000141 0.008833 -0.013700
v -0.000141 0.008833 -0.013700
v -0.000140 0.008832 -0.013700
v 0.000020 0.008833 -0.013700
v 0.000020 0.008830 -0.013703
v -0.000138 0.008832 -0.013701
v -0.000140 0.008832 -0.013700
v -0.000210 0.008840 -0.013693
v -0.000210 0.008843 -0.013690
v -0.000131 0.008830 -0.013703
v -0.000133 0.008830 -0.013702
v -0.000134 0.008831 -0.013702
v -0.000136 0.008832 -0.013701
v 0.000020 0.008830 -0.013703
v -0.000138 0.008832 -0.013701
v -0.000136 0.008832 -0.013701
v 0.000020 0.008836 -0.013697
v -0.000145 0.008833 -0.013700
v -0.000143 0.008833 -0.013700
v -0.000210 0.008859 -0.013667
v -0.000210 0.008862 -0.013663
v 0.000020 0.008854 -0.013675
v -0.000210 0.008857 -0.013671
v -0.000210 0.008859 -0.013667
v 0.000020 0.008852 -0.013679
v 0.000020 0.008854 -0.013675
v -0.000210 0.008862 -0.013663
v -0.000210 0.008864 -0.013659
v 0.000020 0.008857 -0.013671
v 0.000020 0.008859 -0.013667
v 0.000020 0.008870 -0.013647
v 0.000020 0.008868 -0.013651
v 0.000020 0.008872 -0.013642
v 0.000020 0.008870 -0.013647
v 0.000020 0.008868 -0.013651
v 0.000020 0.008864 -0.013659
v 0.000020 0.008866 -0.013655
v -0.000210 0.008870 -0.013647
v -0.000210 0.008872 -0.013642
v 0.000020 0.008864 -0.013659
v 0.000020 0.008862 -0.013663
v -0.000210 0.008870 -0.013647
v -0.000210 0.008868 -0.013651
v -0.000210 0.008866 -0.013655
v -0.000210 0.008868 -0.013651
v -0.000210 0.008866 -0.013655
v 0.000020 0.008854 -0.013675
v 0.000020 0.008857 -0.013671
v 0.000020 0.008849 -0.013683
v -0.000149 0.008833 -0.013700
v -0.000147 0.008833 -0.013700
v -0.000210 0.008840 -0.013693
v -0.000210 0.008833 -0.013700
v -0.000159 0.008830 -0.013703
v -0.000210 0.008830 -0.013703
v -0.000210 0.008846 -0.013686
v -0.000210 0.008830 -0.013703
v -0.000159 0.008830 -0.013703
v -0.000161 0.008829 -0.013704
v -0.000162 0.008827 -0.013705
v -0.000210 0.008830 -0.013703
v -0.000161 0.008829 -0.013704
v -0.000162 0.008827 -0.013705
v -0.000210 0.008827 -0.013705
v -0.000210 0.008830 -0.013703
v -0.000162 0.008827 -0.013705
v -0.000164 0.008826 -0.013706
v -0.000210 0.008827 -0.013705
v -0.000210 0.008827 -0.013705
v -0.000164 0.008826 -0.013706
v -0.000165 0.008825 -0.013706
v -0.000167 0.008824 -0.013707
v -0.000210 0.008827 -0.013705
v -0.000165 0.008825 -0.013706
v -0.000167 0.008824 -0.013707
v -0.000210 0.008824 -0.013707
v -0.000210 0.008827 -0.013705
v -0.000168 0.008822 -0.013708
v -0.000169 0.008821 -0.013709
v -0.000210 0.008824 -0.013707
v -0.000169 0.008821 -0.013709
v -0.000170 0.008819 -0.013710
v -0.000210 0.008821 -0.013709
v -0.000171 0.008817 -0.013710
v -0.000172 0.008815 -0.013711
v -0.000210 0.008817 -0.013710
v -0.000172 0.008815 -0.013711
v -0.000173 0.008813 -0.013712
v -0.000210 0.008814 -0.013712
v -0.000210 0.008814 -0.013712
v -0.000174 0.008811 -0.013712
v -0.000210 0.008810 -0.013712
v -0.000210 0.008810 -0.013712
v -0.000174 0.008811 -0.013712
v -0.000174 0.008809 -0.013712
v -0.000210 0.008807 -0.013713
v -0.000210 0.008810 -0.013712
v -0.000175 0.008807 -0.013713
v -0.000210 0.008803 -0.013713
v -0.000210 0.008807 -0.013713
v -0.000175 0.008805 -0.013713
v -0.000175 0.008801 -0.013713
v -0.000210 0.008803 -0.013713
v -0.000175 0.008803 -0.013713
v -0.000173 0.008793 -0.013712
v -0.000172 0.008791 -0.013711
v -0.000210 0.008792 -0.013712
v -0.000159 0.008776 -0.013703
v -0.000210 0.008776 -0.013703
v -0.000161 0.008777 -0.013704
v -0.000161 0.008777 -0.013704
v -0.000210 0.008776 -0.013703
v -0.000162 0.008778 -0.013705
v -0.000162 0.008778 -0.013705
v -0.000210 0.008776 -0.013703
v -0.000210 0.008779 -0.013705
v -0.000164 0.008780 -0.013706
v -0.000162 0.008778 -0.013705
v -0.000210 0.008779 -0.013705
v -0.000165 0.008781 -0.013706
v -0.000164 0.008780 -0.013706
v -0.000210 0.008779 -0.013705
v -0.000167 0.008782 -0.013707
v -0.000165 0.008781 -0.013706
v -0.000210 0.008779 -0.013705
v -0.000210 0.008782 -0.013707
v -0.000167 0.008782 -0.013707
v -0.000210 0.008779 -0.013705
v -0.000210 0.008782 -0.013707
v -0.000168 0.008784 -0.013708
v -0.000167 0.008782 -0.013707
v -0.000210 0.008782 -0.013707
v -0.000169 0.008785 -0.013709
v -0.000168 0.008784 -0.013708
v -0.000210 0.008782 -0.013707
v -0.000210 0.008785 -0.013709
v -0.000169 0.008785 -0.013709
v -0.000169 0.008785 -0.013709
v -0.000210 0.008785 -0.013709
v -0.000170 0.008787 -0.013710
v -0.000210 0.008789 -0.013710
v -0.000172 0.008791 -0.013711
v -0.000171 0.008789 -0.013710
v -0.000170 0.008787 -0.013710
v -0.000210 0.008789 -0.013710
v -0.000171 0.008789 -0.013710
v -0.000210 0.008789 -0.013710
v -0.000210 0.008792 -0.013712
v -0.000172 0.008791 -0.013711
v -0.000174 0.008795 -0.013712
v -0.000173 0.008793 -0.013712
v -0.000210 0.008792 -0.013712
v -0.000210 0.008796 -0.013712
v -0.000174 0.008795 -0.013712
v -0.000210 0.008792 -0.013712
v -0.000175 0.008799 -0.013713
v -0.000210 0.008796 -0.013712
v -0.000210 0.008799 -0.013713
v -0.000175 0.008799 -0.013713
v -0.000174 0.008797 -0.013712
v -0.000210 0.008796 -0.013712
v -0.000175 0.008801 -0.013713
v -0.000175 0.008799 -0.013713
v -0.000210 0.008799 -0.013713
v -0.000210 0.008803 -0.013713
v -0.000175 0.008801 -0.013713
v -0.000210 0.008799 -0.013713
v -0.000175 0.008805 -0.013713
v -0.000175 0.008803 -0.013713
v -0.000210 0.008803 -0.013713
v -0.000175 0.008807 -0.013713
v -0.000175 0.008805 -0.013713
v -0.000210 0.008807 -0.013713
v -0.000174 0.008809 -0.013712
v -0.000175 0.008807 -0.013713
v -0.000210 0.008810 -0.013712
v -0.000174 0.008811 -0.013712
v -0.000210 0.008814 -0.013712
v -0.000173 0.008813 -0.013712
v -0.000210 0.008814 -0.013712
v -0.000210 0.008817 -0.013710
v -0.000172 0.008815 -0.013711
v -0.000210 0.008817 -0.013710
v -0.000170 0.008819 -0.013710
v -0.000171 0.008817 -0.013710
v -0.000210 0.008817 -0.013710
v -0.000210 0.008821 -0.013709
v -0.000170 0.008819 -0.013710
v -0.000210 0.008821 -0.013709
v -0.000210 0.008824 -0.013707
v -0.000169 0.008821 -0.013709
v -0.000210 0.008824 -0.013707
v -0.000167 0.008824 -0.013707
v -0.000168 0.008822 -0.013708
v -0.000210 0.008796 -0.013712
v -0.000174 0.008797 -0.013712
v -0.000174 0.008795 -0.013712
v -0.000210 0.008789 -0.013710
v -0.000170 0.008787 -0.013710
v -0.000210 0.008785 -0.013709
v -0.000087 0.008816 -0.013711
v -0.000089 0.008818 -0.013710
v -0.000068 0.008817 -0.013711
v -0.000099 0.008815 -0.013711
v -0.000012 0.008817 -0.013710
v -0.000012 0.008820 -0.013709
v 0.000005 0.008818 -0.013710
v -0.000018 0.008816 -0.013711
v -0.000023 0.008819 -0.013710
v -0.000026 0.008814 -0.013711
v -0.000031 0.008816 -0.013711
v -0.000038 0.008819 -0.013710
v -0.000045 0.008816 -0.013711
v -0.000030 0.008822 -0.013708
v -0.000001 0.008808 -0.013713
v -0.000005 0.008805 -0.013713
v -0.000011 0.008809 -0.013713
v 0.000013 0.008810 -0.013712
v 0.000020 0.008807 -0.013713
v -0.000015 0.008791 -0.013711
v -0.000011 0.008788 -0.013710
v -0.000033 0.008790 -0.013711
v -0.000008 0.008792 -0.013711
v -0.000042 0.008785 -0.013709
v -0.000047 0.008782 -0.013707
v -0.000060 0.008784 -0.013708
v -0.000030 0.008786 -0.013709
v -0.000028 0.008783 -0.013708
v -0.000054 0.008780 -0.013706
v -0.000026 0.008780 -0.013706
v -0.000097 0.008791 -0.013711
v -0.000097 0.008794 -0.013712
v -0.000090 0.008792 -0.013712
v -0.000104 0.008787 -0.013710
v -0.000118 0.008791 -0.013711
v -0.000106 0.008785 -0.013709
v -0.000120 0.008787 -0.013710
v -0.000088 0.008789 -0.013710
v -0.000085 0.008785 -0.013709
v -0.000111 0.008813 -0.013712
v -0.000116 0.008811 -0.013712
v -0.000117 0.008813 -0.013712
v -0.000092 0.008812 -0.013712
v 0.000002 0.008815 -0.013711
v -0.000002 0.008812 -0.013712
v -0.000006 0.008816 -0.013711
v 0.000015 0.008816 -0.013711
v 0.000020 0.008814 -0.013712
v 0.000020 0.008810 -0.013712
v 0.000020 0.008807 -0.013713
v 0.000020 0.008814 -0.013712
v -0.000014 0.008813 -0.013712
v 0.000020 0.008814 -0.013712
v 0.000020 0.008810 -0.013712
v 0.000020 0.008817 -0.013710
v 0.000020 0.008814 -0.013712
v 0.000020 0.008817 -0.013710
v -0.000008 0.008780 -0.013706
v -0.000007 0.008782 -0.013707
v 0.000001 0.008782 -0.013707
v -0.000021 0.008778 -0.013704
v -0.000056 0.008776 -0.013703
v -0.000055 0.008778 -0.013704
v -0.000062 0.008778 -0.013704
v -0.000098 0.008779 -0.013705
v -0.000076 0.008781 -0.013706
v -0.000067 0.008785 -0.013709
v -0.000066 0.008788 -0.013710
v -0.000050 0.008788 -0.013710
v -0.000075 0.008784 -0.013708
v 0.000009 0.008787 -0.013709
v 0.000004 0.008784 -0.013708
v 0.000020 0.008785 -0.013709
v 0.000003 0.008790 -0.013711
v -0.000001 0.008793 -0.013712
v 0.000020 0.008792 -0.013712
v -0.000033 0.008798 -0.013713
v -0.000032 0.008801 -0.013713
v -0.000011 0.008798 -0.013713
v -0.000040 0.008796 -0.013712
v -0.000048 0.008798 -0.013713
v -0.000042 0.008793 -0.013712
v -0.000053 0.008796 -0.013712
v -0.000028 0.008796 -0.013712
v -0.000026 0.008793 -0.013712
v -0.000066 0.008791 -0.013711
v -0.000059 0.008793 -0.013712
v -0.000052 0.008789 -0.013711
v -0.000072 0.008793 -0.013712
v -0.000069 0.008796 -0.013712
v -0.000063 0.008799 -0.013713
v -0.000007 0.008822 -0.013708
v -0.000008 0.008825 -0.013707
v 0.000000 0.008822 -0.013708
v -0.000024 0.008822 -0.013708
v 0.000004 0.008780 -0.013705
v 0.000020 0.008782 -0.013707
v -0.000104 0.008797 -0.013713
v -0.000099 0.008800 -0.013713
v -0.000086 0.008798 -0.013713
v -0.000116 0.008797 -0.013712
v -0.000115 0.008799 -0.013713
v -0.000096 0.008803 -0.013713
v -0.000080 0.008802 -0.013713
v -0.000115 0.008799 -0.013713
v -0.000115 0.008801 -0.013713
v -0.000102 0.008809 -0.013713
v -0.000099 0.008806 -0.013713
v -0.000115 0.008807 -0.013713
v -0.000086 0.008808 -0.013713
v -0.000115 0.008803 -0.013713
v -0.000084 0.008805 -0.013713
v -0.000057 0.008803 -0.013713
v -0.000051 0.008806 -0.013713
v -0.000041 0.008803 -0.013713
v -0.000071 0.008803 -0.013713
v -0.000063 0.008807 -0.013713
v -0.000051 0.008800 -0.013713
v -0.000049 0.008809 -0.013713
v -0.000028 0.008807 -0.013713
v 0.000004 0.008797 -0.013713
v 0.000001 0.008801 -0.013713
v 0.000020 0.008799 -0.013713
v -0.000008 0.008795 -0.013712
v -0.000013 0.008795 -0.013712
v -0.000093 0.008783 -0.013707
v -0.000110 0.008781 -0.013706
v -0.000131 0.008776 -0.013703
v -0.000129 0.008777 -0.013704
v -0.000015 0.008785 -0.013708
v -0.000085 0.008795 -0.013712
v 0.000020 0.008821 -0.013709
v 0.000020 0.008824 -0.013707
v -0.000003 0.008828 -0.013705
v -0.000021 0.008828 -0.013704
v 0.000020 0.008830 -0.013703
v 0.000020 0.008827 -0.013705
v 0.000020 0.008830 -0.013703
v -0.000029 0.008825 -0.013706
v -0.000053 0.008826 -0.013705
v 0.000020 0.008827 -0.013705
v -0.000087 0.008822 -0.013708
v -0.000121 0.008821 -0.013709
v -0.000076 0.008824 -0.013707
v -0.000072 0.008821 -0.013709
v -0.000095 0.008825 -0.013707
v -0.000087 0.008827 -0.013705
v -0.000122 0.008822 -0.013708
v -0.000123 0.008824 -0.013707
v -0.000069 0.008810 -0.013712
v -0.000072 0.008814 -0.013712
v -0.000057 0.008814 -0.013711
v -0.000026 0.008803 -0.013713
v -0.000050 0.008813 -0.013712
v -0.000051 0.008819 -0.013710
v -0.000045 0.008823 -0.013708
v -0.000060 0.008816 -0.013711
v -0.000023 0.008811 -0.013712
v 0.000020 0.008803 -0.013713
v -0.000122 0.008784 -0.013708
v -0.000126 0.008780 -0.013706
v -0.000125 0.008781 -0.013706
v -0.000128 0.008779 -0.013705
v -0.000126 0.008780 -0.013706
v 0.000020 0.008785 -0.013709
v 0.000020 0.008782 -0.013707
v 0.000020 0.008779 -0.013705
v 0.000020 0.008776 -0.013703
v -0.000115 0.008803 -0.013713
v -0.000115 0.008805 -0.013713
v -0.000116 0.008811 -0.013712
v -0.000116 0.008809 -0.013712
v -0.000115 0.008807 -0.013713
v -0.000115 0.008805 -0.013713
v 0.000020 0.008796 -0.013712
v 0.000020 0.008799 -0.013713
v 0.000020 0.008814 -0.013712
v 0.000020 0.008807 -0.013713
v -0.000120 0.008819 -0.013710
v -0.000119 0.008817 -0.013710
v -0.000118 0.008815 -0.013711
v 0.000020 0.008821 -0.013709
v 0.000020 0.008824 -0.013707
v -0.000125 0.008825 -0.013706
v -0.000123 0.008824 -0.013707
v 0.000020 0.008779 -0.013705
v 0.000020 0.008782 -0.013707
v -0.000128 0.008779 -0.013705
v -0.000129 0.008777 -0.013704
v 0.000020 0.008789 -0.013710
v 0.000020 0.008785 -0.013709
v -0.000120 0.008787 -0.013710
v -0.000119 0.008789 -0.013710
v -0.000116 0.008795 -0.013712
v -0.000115 0.008807 -0.013713
v -0.000116 0.008809 -0.013712
v 0.000020 0.008830 -0.013703
v -0.000119 0.008817 -0.013710
v -0.000120 0.008819 -0.013710
v -0.000129 0.008829 -0.013704
v -0.000131 0.008830 -0.013703
v -0.000131 0.008830 -0.013703
v -0.000128 0.008828 -0.013705
v -0.000129 0.008829 -0.013704
v -0.000126 0.008826 -0.013706
v -0.000128 0.008828 -0.013705
v -0.000126 0.008826 -0.013706
v -0.000125 0.008825 -0.013706
v -0.000126 0.008826 -0.013706
v -0.000121 0.008821 -0.013709
v -0.000121 0.008821 -0.013709
v -0.000122 0.008822 -0.013708
v -0.000120 0.008819 -0.013710
v -0.000121 0.008821 -0.013709
v 0.000020 0.008807 -0.013713
v 0.000020 0.008803 -0.013713
v -0.000118 0.008815 -0.013711
v -0.000117 0.008813 -0.013712
v -0.000118 0.008815 -0.013711
v 0.000020 0.008799 -0.013713
v 0.000020 0.008803 -0.013713
v -0.000116 0.008811 -0.013712
v 0.000020 0.008792 -0.013712
v 0.000020 0.008796 -0.013712
v 0.000020 0.008796 -0.013712
v 0.000020 0.008789 -0.013710
v 0.000020 0.008792 -0.013712
v -0.000115 0.008803 -0.013713
v 0.000020 0.008782 -0.013707
v -0.000115 0.008799 -0.013713
v 0.000020 0.008789 -0.013710
v -0.000116 0.008797 -0.013712
v -0.000116 0.008795 -0.013712
v -0.000117 0.008793 -0.013712
v -0.000118 0.008791 -0.013711
v 0.000020 0.008776 -0.013703
v -0.000131 0.008776 -0.013703
v -0.000119 0.008789 -0.013710
v -0.000118 0.008791 -0.013711
v -0.000128 0.008779 -0.013705
v -0.000125 0.008781 -0.013706
v -0.000123 0.008782 -0.013707
v -0.000123 0.008782 -0.013707
v -0.000122 0.008784 -0.013708
v -0.000121 0.008785 -0.013709
v -0.000122 0.008784 -0.013708
v -0.000121 0.008785 -0.013709
v -0.000120 0.008787 -0.013710
v 0.000020 0.008776 -0.013703
v -0.000117 0.008793 -0.013712
v -0.000117 0.008793 -0.013712
v -0.000116 0.008795 -0.013712
v -0.000115 0.008801 -0.013713
v -0.000115 0.008803 -0.013713
v 0.000020 0.008827 -0.013705
v 0.000020 0.008824 -0.013707
v 0.000020 0.008821 -0.013709
v 0.000020 0.008817 -0.013710
v -0.000026 0.008757 -0.013683
v -0.000029 0.008761 -0.013687
v 0.000020 0.008760 -0.013686
v -0.000036 0.008756 -0.013682
v -0.000096 0.008774 -0.013701
v -0.000101 0.008770 -0.013697
v -0.000134 0.008775 -0.013702
v -0.000059 0.008770 -0.013697
v -0.000143 0.008738 -0.013652
v -0.000148 0.008740 -0.013657
v -0.000132 0.008739 -0.013653
v -0.000151 0.008736 -0.013647
v -0.000210 0.008738 -0.013651
v -0.000058 0.008757 -0.013683
v -0.000064 0.008754 -0.013679
v -0.000082 0.008757 -0.013682
v -0.000053 0.008747 -0.013669
v -0.000059 0.008744 -0.013663
v -0.000082 0.008746 -0.013666
v -0.000034 0.008749 -0.013671
v -0.000024 0.008746 -0.013666
v -0.000042 0.008742 -0.013659
v -0.000045 0.008739 -0.013654
v -0.000057 0.008741 -0.013658
v 0.000020 0.008742 -0.013659
v 0.000020 0.008749 -0.013671
v -0.000176 0.008743 -0.013661
v -0.000169 0.008746 -0.013666
v -0.000136 0.008744 -0.013663
v -0.000210 0.008742 -0.013659
v -0.000210 0.008744 -0.013663
v -0.000162 0.008749 -0.013671
v -0.000210 0.008744 -0.013663
v -0.000210 0.008747 -0.013667
v -0.000055 0.008751 -0.013674
v -0.000028 0.008753 -0.013677
v -0.000067 0.008749 -0.013671
v -0.000085 0.008753 -0.013676
v -0.000100 0.008749 -0.013671
v -0.000085 0.008744 -0.013663
v -0.000123 0.008748 -0.013670
v -0.000134 0.008751 -0.013674
v -0.000140 0.008754 -0.013679
v -0.000102 0.008753 -0.013677
v -0.000158 0.008753 -0.013677
v -0.000092 0.008754 -0.013679
v -0.000114 0.008756 -0.013681
v -0.000111 0.008760 -0.013686
v -0.000146 0.008759 -0.013685
v -0.000067 0.008741 -0.013657
v -0.000121 0.008741 -0.013657
v -0.000097 0.008740 -0.013655
v -0.000075 0.008761 -0.013687
v -0.000092 0.008761 -0.013688
v -0.000050 0.008765 -0.013692
v -0.000042 0.008768 -0.013695
v -0.000017 0.008765 -0.013692
v -0.000078 0.008766 -0.013693
v 0.000020 0.008766 -0.013693
v 0.000020 0.008763 -0.013690
v -0.000014 0.008755 -0.013679
v 0.000020 0.008752 -0.013675
v -0.000086 0.008739 -0.013653
v -0.000096 0.008736 -0.013647
v -0.000157 0.008771 -0.013698
v -0.000152 0.008774 -0.013701
v -0.000151 0.008774 -0.013700
v -0.000168 0.008765 -0.013692
v -0.000210 0.008770 -0.013697
v -0.000161 0.008761 -0.013687
v -0.000210 0.008763 -0.013690
v -0.000133 0.008769 -0.013695
v -0.000135 0.008763 -0.013690
v -0.000210 0.008752 -0.013675
v -0.000171 0.008757 -0.013682
v -0.000210 0.008754 -0.013679
v -0.000210 0.008757 -0.013683
v -0.000052 0.008771 -0.013698
v 0.000020 0.008776 -0.013703
v -0.000109 0.008765 -0.013691
v -0.000210 0.008736 -0.013647
v -0.000210 0.008738 -0.013651
v -0.000210 0.008740 -0.013655
v -0.000040 0.008736 -0.013646
v 0.000020 0.008736 -0.013647
v 0.000020 0.008738 -0.013651
v -0.000210 0.008736 -0.013647
v -0.000210 0.008734 -0.013642
v -0.000210 0.008738 -0.013651
v -0.000210 0.008736 -0.013647
v -0.000210 0.008749 -0.013671
v -0.000210 0.008752 -0.013675
v -0.000210 0.008749 -0.013671
v -0.000210 0.008747 -0.013667
v 0.000020 0.008757 -0.013683
v 0.000020 0.008749 -0.013671
v 0.000020 0.008747 -0.013667
v 0.000020 0.008740 -0.013655
v 0.000020 0.008742 -0.013659
v -0.000210 0.008760 -0.013686
v -0.000210 0.008757 -0.013683
v 0.000020 0.008770 -0.013697
v 0.000020 0.008773 -0.013700
v 0.000020 0.008752 -0.013675
v -0.000143 0.008773 -0.013700
v -0.000141 0.008773 -0.013700
v -0.000145 0.008773 -0.013700
v -0.000143 0.008773 -0.013700
v 0.000020 0.008763 -0.013690
v 0.000020 0.008760 -0.013686
v -0.000210 0.008749 -0.013671
v -0.000140 0.008774 -0.013700
v -0.000141 0.008773 -0.013700
v -0.000210 0.008760 -0.013686
v -0.000210 0.008776 -0.013703
v -0.000159 0.008776 -0.013703
v -0.000210 0.008773 -0.013700
v -0.000210 0.008773 -0.013700
v -0.000159 0.008776 -0.013703
v -0.000157 0.008776 -0.013702
v -0.000156 0.008775 -0.013702
v -0.000210 0.008773 -0.013700
v -0.000157 0.008776 -0.013702
v -0.000156 0.008775 -0.013702
v -0.000154 0.008774 -0.013701
v -0.000154 0.008774 -0.013701
v -0.000152 0.008774 -0.013701
v -0.000147 0.008773 -0.013700
v -0.000149 0.008773 -0.013700
v -0.000147 0.008773 -0.013700
v -0.000145 0.008773 -0.013700
v -0.000210 0.008770 -0.013697
v -0.000210 0.008766 -0.013693
v -0.000210 0.008763 -0.013690
v -0.000210 0.008766 -0.013693
v 0.000020 0.008752 -0.013675
v 0.000020 0.008749 -0.013671
v 0.000020 0.008747 -0.013667
v 0.000020 0.008744 -0.013663
v -0.000210 0.008752 -0.013675
v -0.000210 0.008754 -0.013679
v -0.000210 0.008740 -0.013655
v -0.000210 0.008738 -0.013651
v -0.000210 0.008742 -0.013659
v -0.000210 0.008740 -0.013655
v 0.000020 0.008736 -0.013647
v 0.000020 0.008734 -0.013642
v -0.000210 0.008744 -0.013663
v 0.000020 0.008736 -0.013647
v 0.000020 0.008738 -0.013651
v 0.000020 0.008740 -0.013655
v -0.000210 0.008754 -0.013679
v 0.000020 0.008752 -0.013675
v 0.000020 0.008754 -0.013679
v -0.000138 0.008774 -0.013701
v -0.000140 0.008774 -0.013700
v 0.000020 0.008757 -0.013683
v 0.000020 0.008760 -0.013686
v 0.000020 0.008770 -0.013697
v 0.000020 0.008773 -0.013700
v 0.000020 0.008773 -0.013700
v 0.000020 0.008776 -0.013703
v 0.000020 0.008760 -0.013686
v -0.000131 0.008776 -0.013703
v -0.000131 0.008776 -0.013703
v -0.000133 0.008776 -0.013702
v -0.000133 0.008776 -0.013702
v -0.000134 0.008775 -0.013702
v -0.000134 0.008775 -0.013702
v -0.000136 0.008774 -0.013701
v -0.000136 0.008774 -0.013701
v -0.000138 0.008774 -0.013701
v 0.000020 0.008770 -0.013697
v 0.000020 0.008766 -0.013693
v 0.000020 0.008757 -0.013683
v 0.000020 0.008754 -0.013679
v 0.000020 0.008740 -0.013655
v 0.000020 0.008738 -0.013651
v 0.000020 0.008744 -0.013663
v 0.000020 0.008742 -0.013659
v -0.000145 0.008773 -0.013700
v -0.000210 0.008760 -0.013686
v -0.000210 0.008763 -0.013690
v -0.000210 0.008770 -0.013697
v -0.000210 0.008773 -0.013700
v -0.000151 0.008774 -0.013700
v -0.000149 0.008773 -0.013700
v -0.000138 0.008774 -0.013701
v -0.000210 0.008773 -0.013700
v -0.000156 0.008775 -0.013702
vn -1.0000 -0.0000 -0.0000
vn -1.0000 -0.0001 -0.0000
vn -1.0000 -0.0000 0.0001
vn -1.0000 0.0001 -0.0000
vn 1.0000 -0.0000 -0.0000
vn 1.0000 -0.0000 0.0001
vn 1.0000 -0.0001 -0.0000
vn -0.0000 -1.0000 -0.0000
vn -0.0000 -1.0000 -0.0001
vn -0.9977 -0.0680 0.0002
vn -1.0000 -0.0020 -0.0000
vn -0.9897 -0.1430 -0.0000
vn -0.9974 -0.0726 -0.0000
vn -0.9771 -0.2127 -0.0000
vn -0.9908 -0.1355 -0.0000
vn -0.9793 -0.2024 -0.0000
vn -0.9597 -0.2810 -0.0000
vn -0.9633 -0.2685 0.0001
vn -0.9376 -0.3477 -0.0000
vn -0.9428 -0.3333 -0.0000
vn -0.9111 -0.4121 -0.0000
vn -0.9181 -0.3965 0.0002
vn -0.8890 -0.4579 0.0001
vn -0.8806 -0.4738 -0.0000
vn -0.8464 -0.5325 -0.0000
vn -0.8559 -0.5172 0.0002
vn -0.8090 -0.5879 -0.0000
vn -0.8188 -0.5741 -0.0000
vn -0.7779 -0.6284 -0.0002
vn -0.7685 -0.6399 -0.0000
vn -0.7250 -0.6887 -0.0000
vn -0.6787 -0.7344 -0.0000
vn -0.7334 -0.6798 -0.0000
vn -0.5227 -0.8525 -0.0000
vn -0.5240 -0.8517 -0.0001
vn -0.4650 -0.8853 -0.0000
vn -0.5806 -0.8142 -0.0001
vn -0.5775 -0.8164 -0.0000
vn -0.6345 -0.7729 -0.0002
vn -0.6295 -0.7770 -0.0000
vn -0.6856 -0.7280 -0.0003
vn -0.9976 0.0690 -0.0000
vn -0.9967 0.0811 -0.0000
vn -0.9902 0.1394 -0.0000
vn -0.9868 0.1617 -0.0000
vn -0.9779 0.2091 -0.0000
vn -0.9705 0.2412 0.0001
vn -0.9607 0.2775 -0.0000
vn -0.9389 0.3443 -0.0000
vn -0.9477 0.3191 0.0002
vn -0.9187 0.3949 0.0002
vn -0.9126 0.4089 -0.0000
vn -0.8822 0.4709 -0.0000
vn -0.8837 0.4681 0.0001
vn -0.8481 0.5298 -0.0000
vn -0.8428 0.5382 0.0001
vn -0.7964 0.6048 -0.0000
vn -0.8106 0.5856 -0.0000
vn -0.7447 0.6674 -0.0000
vn -0.6796 0.7336 -0.0000
vn -0.6882 0.7255 -0.0003
vn -0.7263 0.6874 -0.0000
vn -0.7699 0.6381 -0.0000
vn -0.6301 0.7765 -0.0000
vn -0.5778 0.8161 -0.0000
vn -0.5228 0.8525 -0.0000
vn -0.5618 0.8273 -0.0001
vn -0.6270 0.7790 -0.0001
vn -0.4650 0.8853 -0.0000
vn -0.4927 0.8702 -0.0001
vn -0.4124 0.9110 -0.0000
vn -0.4208 0.9072 0.0001
vn -0.3576 0.9339 -0.0000
vn -0.3457 0.9383 -0.0001
vn -0.3008 0.9537 -0.0000
vn -0.2684 0.9633 -0.0001
vn -0.2423 0.9702 -0.0000
vn -0.1895 0.9819 -0.0001
vn -0.1825 0.9832 -0.0000
vn -0.1220 0.9925 -0.0000
vn -0.0605 0.9982 -0.0000
vn -0.1093 0.9940 -0.0002
vn -0.0283 0.9996 -0.0003
vn 0.0008 1.0000 -0.0000
vn 0.0624 0.9981 -0.0000
vn 0.0530 0.9986 -0.0000
vn 0.1337 0.9910 0.0001
vn 0.1235 0.9923 -0.0000
vn 0.2137 0.9769 -0.0002
vn 0.1836 0.9830 -0.0000
vn 0.2922 0.9564 -0.0000
vn 0.2433 0.9700 -0.0000
vn 0.3687 0.9296 -0.0002
vn 0.3014 0.9535 -0.0000
vn 0.3579 0.9337 -0.0000
vn 0.4429 0.8965 -0.0003
vn 0.4125 0.9110 -0.0000
vn 0.4649 0.8854 -0.0000
vn 0.5142 0.8577 -0.0003
vn 0.5226 0.8526 -0.0000
vn 0.5821 0.8131 -0.0002
vn 0.5775 0.8164 -0.0000
vn 0.6295 0.7770 -0.0000
vn 0.6461 0.7632 -0.0000
vn 0.7058 0.7084 -0.0001
vn 0.6787 0.7344 -0.0000
vn 0.7250 0.6887 -0.0000
vn 0.7610 0.6488 0.0001
vn 0.7685 0.6399 -0.0000
vn 0.8090 0.5878 -0.0000
vn 0.8112 0.5848 -0.0000
vn 0.8559 0.5171 0.0001
vn 0.8949 0.4462 0.0003
vn 0.8464 0.5325 -0.0000
vn 0.8806 0.4738 -0.0000
vn 0.9282 0.3720 0.0002
vn 0.9111 0.4121 -0.0000
vn 0.9376 0.3477 -0.0000
vn 0.9553 0.2955 0.0003
vn 0.9597 0.2810 -0.0000
vn 0.9905 0.1374 0.0001
vn 0.9761 0.2171 0.0004
vn 0.9771 0.2127 -0.0000
vn 0.9897 0.1430 -0.0000
vn 0.9779 -0.2091 -0.0000
vn 0.9607 -0.2775 -0.0000
vn 0.9642 -0.2651 -0.0000
vn 0.9984 0.0565 -0.0002
vn 0.9974 0.0726 -0.0000
vn 0.8822 -0.4708 -0.0000
vn 0.8481 -0.5299 -0.0000
vn 0.8719 -0.4897 -0.0002
vn 0.7262 -0.6875 -0.0000
vn 0.7280 -0.6856 -0.0000
vn 0.7813 -0.6242 -0.0000
vn 0.5228 -0.8524 -0.0000
vn 0.6073 -0.7945 -0.0001
vn 0.5778 -0.8162 -0.0000
vn 0.4713 -0.8820 -0.0018
vn 0.4125 -0.9110 -0.0000
vn 0.3981 -0.9173 0.0002
vn 0.2433 -0.9700 -0.0000
vn 0.2447 -0.9696 -0.0000
vn 0.3226 -0.9465 -0.0000
vn 0.1235 -0.9923 -0.0000
vn 0.1652 -0.9863 -0.0002
vn 0.1839 -0.9829 -0.0000
vn 0.0624 -0.9981 -0.0000
vn 0.0035 -1.0000 -0.0003
vn 0.0846 -0.9964 -0.0003
vn 0.0010 -1.0000 -0.0000
vn -0.0606 -0.9982 -0.0000
vn -0.1218 -0.9925 -0.0000
vn -0.0776 -0.9970 -0.0000
vn -0.1825 -0.9832 -0.0000
vn -0.1582 -0.9874 -0.0002
vn -0.2424 -0.9702 -0.0000
vn -0.2378 -0.9713 0.0001
vn -0.3008 -0.9537 -0.0000
vn -0.3159 -0.9488 -0.0004
vn -0.4124 -0.9110 -0.0000
vn -0.3916 -0.9201 0.0002
vn -0.3576 -0.9339 0.0005
vn 0.3014 -0.9535 -0.0000
vn 0.3579 -0.9337 -0.0000
vn 0.4649 -0.8854 -0.0000
vn 0.5413 -0.8408 0.0003
vn 0.6302 -0.7765 -0.0000
vn 0.6700 -0.7424 0.0001
vn 0.6796 -0.7336 -0.0000
vn 0.7699 -0.6382 -0.0000
vn 0.8293 -0.5588 0.0001
vn 0.8106 -0.5856 -0.0000
vn 0.9087 -0.4174 0.0001
vn 0.9126 -0.4088 -0.0000
vn 0.9396 -0.3424 0.0001
vn 0.9389 -0.3442 -0.0000
vn 0.9825 -0.1861 -0.0000
vn 0.9902 -0.1394 -0.0000
vn 0.9944 -0.1057 -0.0002
vn 0.9976 -0.0690 -0.0000
vn 0.9997 -0.0247 -0.0000
vn 1.0000 0.0020 0.0001
vn -0.0000 1.0000 -0.0000
vn -0.0000 1.0000 -0.0001
vn -0.0000 -0.0000 1.0000
vn -0.0001 -0.0000 1.0000
vn 0.0001 -0.0000 1.0000
vn 0.0002 -0.0000 1.0000
vn -0.0000 0.8155 -0.5788
vn -0.0001 0.8016 -0.5979
vn -0.0000 0.8131 -0.5821
vn -0.0000 0.8087 -0.5882
vn -0.0000 0.7651 -0.6439
vn -0.0000 0.7879 -0.6158
vn -0.0000 0.7593 -0.6508
vn -0.0000 0.7473 -0.6645
vn -0.0000 0.7621 -0.6475
vn -0.0000 0.7216 -0.6923
vn -0.0000 0.6914 -0.7224
vn -0.0000 0.7247 -0.6890
vn -0.0000 0.7197 -0.6943
vn -0.0000 0.6901 -0.7237
vn -0.0000 0.7355 -0.6775
vn -0.0000 0.7912 -0.6115
vn -0.0000 0.7830 -0.6221
vn -0.0000 0.7435 -0.6688
vn -0.0000 0.7465 -0.6654
vn -0.0000 0.9023 -0.4311
vn -0.0000 0.8890 -0.4578
vn -0.0000 0.9062 -0.4229
vn -0.0000 0.9001 -0.4357
vn -0.0000 0.7884 -0.6151
vn -0.0003 0.8130 -0.5822
vn -0.0000 0.7951 -0.6065
vn -0.0000 0.7839 -0.6208
vn -0.0000 0.8017 -0.5977
vn 0.0001 0.7671 -0.6416
vn -0.0000 0.7391 -0.6736
vn -0.0004 0.7695 -0.6386
vn -0.0000 0.8016 -0.5978
vn -0.0000 0.8352 -0.5500
vn -0.0000 0.8242 -0.5662
vn -0.0000 0.8188 -0.5741
vn -0.0000 0.8457 -0.5337
vn -0.0001 0.8660 -0.5001
vn -0.0000 0.8559 -0.5172
vn -0.0000 0.8351 -0.5501
vn -0.0000 0.8558 -0.5172
vn -0.0000 0.8796 -0.4756
vn -0.0000 0.8978 -0.4405
vn -0.0000 0.8934 -0.4492
vn -0.0000 0.8835 -0.4684
vn -0.0000 0.8658 -0.5004
vn -0.0000 0.8508 -0.5255
vn -0.0000 0.8753 -0.4835
vn -0.0002 0.8560 -0.5170
vn -0.0001 0.8657 -0.5006
vn -0.0000 0.8351 -0.5500
vn -0.0000 0.8658 -0.5005
vn -0.0000 0.8422 -0.5392
vn -0.0000 0.8094 -0.5873
vn -0.0000 0.8017 -0.5978
vn -0.0000 0.7899 -0.6133
vn -0.0000 0.7654 -0.6435
vn -0.0000 0.8860 -0.4636
vn -0.0000 0.8800 -0.4750
vn -0.0000 0.8869 -0.4620
vn -0.0001 0.8936 -0.4488
vn -0.0000 0.9168 -0.3994
vn -0.0000 0.8997 -0.4366
vn -0.0000 0.9181 -0.3964
vn -0.0000 0.9194 -0.3934
vn -0.0000 0.7064 -0.7078
vn -0.0000 0.6640 -0.7477
vn -0.0000 0.7840 -0.6208
vn -0.0001 0.7381 -0.6747
vn -0.0000 0.7023 -0.7119
vn -0.0000 0.7039 -0.7103
vn -0.0000 0.6823 -0.7311
vn -0.0000 0.6798 -0.7334
vn -0.0000 0.7839 -0.6209
vn -0.0000 0.7655 -0.6434
vn -0.0000 0.6851 -0.7284
vn -0.0000 0.7065 -0.7078
vn -0.0000 0.7354 -0.6776
vn -0.0000 0.7268 -0.6869
vn -0.0000 0.7355 -0.6776
vn -0.0000 0.7464 -0.6655
vn -0.0000 0.6688 -0.7434
vn -0.0000 0.6730 -0.7396
vn -0.0000 0.6855 -0.7281
vn -0.0000 0.8935 -0.4491
vn -0.0000 0.7592 -0.6509
vn -0.0000 0.6687 -0.7435
vn -0.0000 0.6640 -0.7478
vn -0.0000 0.6854 -0.7281
vn -0.0000 0.6768 -0.7362
vn -0.0000 0.6767 -0.7362
vn -0.0000 0.7065 -0.7077
vn -0.0000 0.7267 -0.6869
vn -0.0001 0.6823 -0.7311
vn -0.0001 0.7023 -0.7119
vn -0.0001 0.6840 -0.7294
vn -0.0000 0.7671 -0.6416
vn -0.0000 0.7592 -0.6508
vn -0.0000 0.6840 -0.7295
vn -0.0001 0.7039 -0.7103
vn -0.0000 0.6822 -0.7311
vn -0.0000 0.6901 -0.7238
vn -0.0000 0.6688 -0.7435
vn -0.0000 0.8352 -0.5499
vn -0.0000 0.9293 -0.3694
vn -0.0000 0.9061 -0.4230
vn -0.0000 0.8891 -0.4578
vn -0.0000 0.6841 -0.7294
vn -0.0000 0.6395 -0.7688
vn -0.0000 0.6124 -0.7906
vn -0.0000 0.6639 -0.7478
vn -0.0000 0.6393 -0.7689
vn -0.0000 0.6123 -0.7906
vn -0.0000 0.5935 -0.8048
vn -0.0000 0.5827 -0.8127
vn -0.0000 0.5506 -0.8348
vn -0.0000 0.5160 -0.8566
vn -0.0000 0.5506 -0.8347
vn -0.0000 0.5181 -0.8553
vn -0.0000 0.5935 -0.8049
vn -0.0000 0.4789 -0.8779
vn -0.0000 0.4394 -0.8983
vn -0.0000 0.3974 -0.9176
vn -0.0000 0.4384 -0.8988
vn -0.0000 0.3530 -0.9356
vn -0.0000 0.3065 -0.9519
vn -0.0000 0.3551 -0.9348
vn -0.0000 0.2581 -0.9661
vn -0.0000 0.2690 -0.9631
vn -0.0000 0.2688 -0.9632
vn -0.0000 0.2080 -0.9781
vn -0.0000 0.1805 -0.9836
vn -0.0000 0.1568 -0.9876
vn -0.0000 0.0906 -0.9959
vn -0.0000 0.1806 -0.9836
vn -0.0000 0.1046 -0.9945
vn -0.0000 -0.0000 -1.0000
vn -0.0000 0.0517 -0.9987
vn -0.0000 -0.0544 -0.9985
vn -0.0000 -0.0014 -1.0000
vn -0.0000 -0.2607 -0.9654
vn -0.0000 -0.3089 -0.9511
vn -0.0000 -0.2691 -0.9631
vn -0.0000 -0.6640 -0.7477
vn -0.0000 -0.6395 -0.7688
vn -0.0000 -0.6126 -0.7904
vn -0.0000 -0.5935 -0.8048
vn -0.0000 -0.5831 -0.8124
vn -0.0000 -0.5513 -0.8343
vn -0.0000 -0.5832 -0.8123
vn -0.0000 -0.5935 -0.8049
vn -0.0000 -0.5170 -0.8560
vn -0.0000 -0.5181 -0.8553
vn -0.0000 -0.5934 -0.8049
vn -0.0000 -0.4803 -0.8771
vn -0.0000 -0.5182 -0.8553
vn -0.0000 -0.4411 -0.8974
vn -0.0000 -0.4804 -0.8771
vn -0.0000 -0.4385 -0.8987
vn -0.0000 -0.4411 -0.8975
vn -0.0000 -0.4384 -0.8988
vn -0.0000 -0.3994 -0.9168
vn -0.0000 -0.3551 -0.9348
vn -0.0000 -0.3553 -0.9348
vn -0.0000 -0.3552 -0.9348
vn -0.0000 -0.2690 -0.9631
vn -0.0000 -0.2106 -0.9776
vn -0.0000 -0.2606 -0.9655
vn -0.0000 -0.2689 -0.9632
vn -0.0000 -0.1805 -0.9836
vn -0.0000 -0.2688 -0.9632
vn -0.0000 -0.1072 -0.9942
vn -0.0000 -0.1806 -0.9836
vn -0.0000 -0.0906 -0.9959
vn -0.0000 -0.1074 -0.9942
vn -0.0000 -0.1594 -0.9872
vn -0.0000 -0.0545 -0.9985
vn -0.0000 -0.0907 -0.9959
vn -0.0000 0.1045 -0.9945
vn -0.0000 0.0907 -0.9959
vn -0.0000 0.2081 -0.9781
vn -0.0000 0.2689 -0.9632
vn -0.0000 0.3552 -0.9348
vn -0.0000 0.3531 -0.9356
vn -0.0000 0.3214 -0.9469
vn -0.0000 0.3856 -0.9227
vn -0.0000 0.3445 -0.9388
vn -0.0000 0.3058 -0.9521
vn -0.0000 0.3615 -0.9324
vn -0.0000 0.4277 -0.9039
vn -0.0001 0.3848 -0.9230
vn -0.0000 0.3305 -0.9438
vn -0.0000 0.3911 -0.9204
vn -0.0000 0.2743 -0.9616
vn -0.0000 0.3289 -0.9444
vn -0.0001 0.4021 -0.9156
vn -0.0000 0.3201 -0.9474
vn -0.0000 0.4667 -0.8844
vn -0.0000 0.1241 -0.9923
vn -0.0000 0.0524 -0.9986
vn -0.0000 0.1532 -0.9882
vn -0.0000 0.1656 -0.9862
vn -0.0000 -0.3053 -0.9523
vn -0.0000 -0.3725 -0.9280
vn -0.0000 -0.3138 -0.9495
vn -0.0000 -0.2802 -0.9599
vn -0.0000 -0.4394 -0.8983
vn -0.0000 -0.5169 -0.8561
vn -0.0000 -0.4775 -0.8786
vn -0.0000 -0.4170 -0.9089
vn -0.0000 -0.4943 -0.8693
vn -0.0000 -0.5766 -0.8170
vn -0.0000 -0.5735 -0.8192
vn -0.0000 -0.2966 -0.9550
vn -0.0000 -0.2312 -0.9729
vn -0.0000 -0.2661 -0.9639
vn -0.0000 -0.3900 -0.9208
vn -0.0000 -0.3065 -0.9519
vn -0.0000 -0.4541 -0.8909
vn -0.0000 -0.3974 -0.9176
vn -0.0000 -0.3613 -0.9324
vn -0.0000 -0.4471 -0.8945
vn -0.0000 0.2592 -0.9658
vn -0.0000 0.2106 -0.9776
vn -0.0000 0.2606 -0.9655
vn -0.0000 0.2207 -0.9753
vn -0.0000 0.2958 -0.9552
vn -0.0000 0.2250 -0.9744
vn -0.0000 0.3247 -0.9458
vn -0.0000 0.3368 -0.9416
vn -0.0000 0.1657 -0.9862
vn -0.0000 0.2515 -0.9679
vn -0.0000 0.3367 -0.9416
vn -0.0000 0.2691 -0.9631
vn -0.0000 -0.5803 -0.8144
vn -0.0000 -0.5171 -0.8559
vn -0.0000 -0.5247 -0.8513
vn -0.0000 -0.6347 -0.7727
vn -0.0000 -0.6640 -0.7478
vn -0.0000 -0.6357 -0.7719
vn -0.0000 -0.6175 -0.7866
vn -0.0000 -0.5999 -0.8001
vn -0.0000 -0.5495 -0.8355
vn -0.0000 -0.3709 -0.9287
vn -0.0000 -0.3817 -0.9243
vn -0.0000 -0.4681 -0.8837
vn -0.0000 -0.4123 -0.9110
vn -0.0000 -0.4682 -0.8836
vn -0.0000 -0.3278 -0.9447
vn -0.0000 -0.2543 -0.9671
vn -0.0000 -0.1375 -0.9905
vn -0.0000 -0.1172 -0.9931
vn -0.0000 -0.1871 -0.9823
vn 0.0001 -0.1304 -0.9915
vn -0.0000 -0.2595 -0.9658
vn -0.0000 -0.1870 -0.9824
vn -0.0000 -0.1703 -0.9854
vn -0.0000 -0.2618 -0.9651
vn -0.0000 -0.2974 -0.9548
vn -0.0000 -0.2616 -0.9652
vn -0.0000 -0.3380 -0.9412
vn -0.0000 -0.2582 -0.9661
vn -0.0000 -0.1701 -0.9854
vn -0.0000 -0.0992 -0.9951
vn -0.0000 0.4827 -0.8758
vn -0.0000 0.5463 -0.8376
vn -0.0000 0.4717 -0.8817
vn -0.0000 0.4857 -0.8741
vn -0.0000 -0.5860 -0.8103
vn 0.0002 -0.1546 -0.9880
vn -0.0001 -0.0741 -0.9973
vn -0.0000 -0.1204 -0.9927
vn -0.0000 -0.1543 -0.9880
vn -0.0000 -0.1568 -0.9876
vn -0.0000 -0.1046 -0.9945
vn -0.0000 0.0031 -1.0000
vn -0.0000 -0.0239 -0.9997
vn -0.0000 -0.0740 -0.9973
vn -0.0000 -0.1045 -0.9945
vn -0.0000 -0.0517 -0.9987
vn -0.0000 0.1535 -0.9882
vn -0.0000 0.0797 -0.9968
vn -0.0000 0.1072 -0.9942
vn -0.0000 0.1284 -0.9917
vn -0.0000 0.0014 -1.0000
vn -0.0000 0.0451 -0.9990
vn -0.0000 0.0043 -1.0000
vn -0.0000 0.0845 -0.9964
vn -0.0000 0.0044 -1.0000
vn 0.0001 0.0037 -1.0000
vn -0.0000 0.1084 -0.9941
vn -0.0000 -0.0752 -0.9972
vn -0.0000 0.1403 -0.9901
vn -0.0000 0.0992 -0.9951
vn -0.0000 -0.1427 -0.9898
vn -0.0000 -0.0519 -0.9987
vn -0.0000 -0.1947 -0.9809
vn -0.0001 -0.2115 -0.9774
vn -0.0000 -0.5089 -0.8608
vn -0.0000 -0.5559 -0.8313
vn -0.0000 -0.4624 -0.8867
vn -0.0000 -0.2036 -0.9791
vn -0.0000 0.6148 -0.7887
vn -0.0000 0.6304 -0.7763
vn -0.0000 0.5597 -0.8287
vn -0.0000 0.5836 -0.8121
vn -0.0000 0.4835 -0.8754
vn -0.0000 0.4411 -0.8975
vn -0.0000 0.5221 -0.8529
vn -0.0000 0.4397 -0.8981
vn -0.0000 0.5387 -0.8425
vn -0.0000 0.6103 -0.7922
vn -0.0000 0.4803 -0.8771
vn -0.0000 0.5170 -0.8560
vn -0.0000 0.2715 -0.9624
vn -0.0000 0.2752 -0.9614
vn -0.0000 0.0033 -1.0000
vn -0.0000 0.2459 -0.9693
vn -0.0000 0.4084 -0.9128
vn -0.0000 0.4880 -0.8728
vn -0.0000 0.3192 -0.9477
vn -0.0000 0.2090 -0.9779
vn -0.0000 -0.4789 -0.8779
vn -0.0000 -0.5559 -0.8312
vn -0.0000 -0.5827 -0.8127
vn -0.0000 -0.5506 -0.8348
vn -0.0000 -0.5558 -0.8313
vn -0.0000 -0.6124 -0.7906
vn -0.0000 -0.5861 -0.8103
vn -0.0000 0.0544 -0.9985
vn -0.0000 0.2107 -0.9776
vn -0.0000 0.1593 -0.9872
vn -0.0000 0.1073 -0.9942
vn 0.0001 0.0545 -0.9985
vn -0.0000 -0.1426 -0.9898
vn -0.0000 0.3993 -0.9168
vn -0.0000 0.3553 -0.9347
vn -0.0000 0.3089 -0.9511
vn -0.0000 0.5514 -0.8343
vn -0.0000 -0.6123 -0.7906
vn -0.0000 -0.6394 -0.7689
vn -0.0000 -0.4383 -0.8988
vn -0.0000 -0.4123 -0.9111
vn -0.0000 -0.3531 -0.9356
vn -0.0000 -0.2080 -0.9781
vn -0.0000 0.1594 -0.9872
vn -0.0000 0.1536 -0.9881
vn -0.0000 0.3994 -0.9168
vn -0.0000 0.3057 -0.9521
vn -0.0000 0.6125 -0.7904
vn -0.0000 0.6103 -0.7921
vn -0.0000 0.5832 -0.8123
vn -0.0000 0.6125 -0.7905
vn -0.0000 0.6102 -0.7922
vn -0.0000 0.5831 -0.8124
vn -0.0000 0.5513 -0.8343
vn -0.0001 0.5832 -0.8123
vn -0.0000 0.4411 -0.8974
vn -0.0000 0.0525 -0.9986
vn 0.0001 -0.0000 -1.0000
vn -0.0000 0.2606 -0.9654
vn -0.0000 0.3090 -0.9511
vn -0.0000 -0.1567 -0.9877
vn -0.0000 -0.2581 -0.9661
vn -0.0000 -0.3530 -0.9356
vn -0.0000 -0.6123 -0.7907
vn -0.0000 -0.5506 -0.8347
vn -0.0000 -0.5160 -0.8566
vn -0.0000 -0.4789 -0.8778
vn -0.0000 -0.4541 -0.8910
vn -0.0000 -0.6639 -0.7478
vn -0.0000 0.0013 -1.0000
vn -0.0000 0.3848 -0.9230
vn -0.0000 -0.7843 -0.6204
vn -0.0000 -0.7626 -0.6469
vn -0.0000 -0.7655 -0.6434
vn -0.0000 -0.7887 -0.6148
vn -0.0000 -0.6774 -0.7356
vn -0.0000 -0.7036 -0.7106
vn -0.0000 -0.6730 -0.7396
vn -0.0000 -0.7033 -0.7109
vn -0.0000 -0.9024 -0.4310
vn -0.0000 -0.8890 -0.4578
vn -0.0000 -0.9001 -0.4356
vn -0.0000 -0.9168 -0.3993
vn -0.0000 -0.9062 -0.4229
vn -0.0000 -0.7841 -0.6207
vn -0.0000 -0.8017 -0.5978
vn -0.0000 -0.7876 -0.6162
vn -0.0002 -0.8457 -0.5337
vn -0.0001 -0.8660 -0.5001
vn -0.0000 -0.8558 -0.5172
vn -0.0000 -0.8351 -0.5500
vn -0.0000 -0.8559 -0.5172
vn -0.0000 -0.8796 -0.4756
vn -0.0000 -0.8978 -0.4405
vn -0.0000 -0.8835 -0.4684
vn -0.0000 -0.8800 -0.4750
vn -0.0000 -0.8352 -0.5500
vn -0.0000 -0.8753 -0.4835
vn 0.0001 -0.8558 -0.5174
vn -0.0001 -0.8657 -0.5006
vn -0.0000 -0.8658 -0.5004
vn 0.0001 -0.8352 -0.5500
vn -0.0000 -0.8508 -0.5255
vn -0.0001 -0.8243 -0.5661
vn -0.0000 -0.8087 -0.5883
vn -0.0001 -0.8352 -0.5500
vn -0.0000 -0.8131 -0.5821
vn -0.0000 -0.8351 -0.5501
vn -0.0000 -0.8657 -0.5005
vn -0.0000 -0.8422 -0.5392
vn -0.0000 -0.8243 -0.5662
vn -0.0000 -0.8016 -0.5978
vn -0.0000 -0.8094 -0.5873
vn -0.0000 -0.8089 -0.5879
vn -0.0000 -0.7899 -0.6133
vn -0.0000 -0.7654 -0.6435
vn -0.0000 -0.7705 -0.6374
vn -0.0000 -0.8860 -0.4636
vn -0.0000 -0.8869 -0.4620
vn -0.0001 -0.8936 -0.4488
vn -0.0000 -0.7610 -0.6487
vn -0.0000 -0.7583 -0.6519
vn -0.0001 -0.7360 -0.6770
vn -0.0000 -0.7175 -0.6966
vn -0.0000 -0.7359 -0.6771
vn -0.0000 -0.7269 -0.6868
vn -0.0000 -0.7267 -0.6869
vn -0.0000 -0.7464 -0.6655
vn -0.0000 -0.8008 -0.5990
vn -0.0000 -0.8188 -0.5741
vn -0.0000 -0.8997 -0.4366
vn -0.0000 -0.9181 -0.3964
vn -0.0000 -0.6991 -0.7150
vn -0.0000 -0.6798 -0.7334
vn -0.0000 -0.6822 -0.7312
vn -0.0000 -0.7340 -0.6791
vn -0.0000 -0.7065 -0.7077
vn -0.0000 -0.7613 -0.6484
vn -0.0000 -0.7465 -0.6654
vn -0.0000 -0.7131 -0.7011
vn -0.0000 -0.7471 -0.6647
vn -0.0000 -0.7885 -0.6150
vn -0.0000 -0.7886 -0.6150
vn -0.0000 -0.8017 -0.5977
vn -0.0000 -0.7839 -0.6208
vn -0.0000 -0.6952 -0.7188
vn -0.0000 -0.7367 -0.6762
vn -0.0000 -0.9061 -0.4230
vn -0.0000 -0.8934 -0.4492
vn -0.0000 -0.9194 -0.3934
vn -0.0000 -0.9293 -0.3694
vn -0.0000 -0.9168 -0.3994
vn -0.0000 -0.7840 -0.6207
vn -0.0000 -0.8797 -0.4756
vn -0.0000 -0.7839 -0.6209
vn -0.0000 -0.6855 -0.7281
vn -0.0000 -0.6851 -0.7284
vn -0.0000 -0.6840 -0.7295
vn -0.0000 -0.6822 -0.7311
vn -0.0000 -0.6687 -0.7435
vn -0.0000 -0.6731 -0.7396
vn 0.0001 -0.6855 -0.7281
vn -0.0000 -0.6689 -0.7434
vn -0.0000 -0.6767 -0.7362
vn -0.0000 -0.7064 -0.7078
vn -0.0000 -0.7341 -0.6791
vn -0.0000 -0.8934 -0.4493
vn -0.0000 -0.8935 -0.4491
vn -0.0000 -0.8008 -0.5989
vn -0.0000 -0.6823 -0.7311
vn -0.0001 -0.6774 -0.7356
vn -0.0000 -0.6688 -0.7434
vn -0.0000 -0.6688 -0.7435
vn -0.0000 -0.6775 -0.7356
vn -0.0000 -0.6731 -0.7395
vn -0.0000 -0.7035 -0.7107
vn -0.0000 -0.7840 -0.6208
s 1
usemtl Diffuse_51_51_51_100.020
f 1//1 2//1 3//1
f 1//1 3//1 4//1
f 1//1 4//1 5//1
f 1//1 5//1 6//1
f 7//1 1//1 8//1
f 1//1 6//1 8//1
f 9//1 1//1 7//1
f 10//1 1//1 9//1
f 10//1 11//1 1//1
f 11//1 12//2 1//1
f 12//2 13//1 1//1
f 13//1 14//1 1//1
f 14//1 15//1 1//1
s 0
f 1//1 16//3 17//1
s 1
f 18//1 2//1 1//1
f 19//1 2//1 18//1
f 19//1 18//1 20//1
f 19//1 20//1 21//1
f 20//1 22//1 21//1
f 22//1 23//1 21//1
f 24//1 23//1 22//1
f 25//1 23//1 24//1
f 25//1 24//1 26//1
f 25//1 26//1 27//1
f 26//1 28//1 27//1
f 28//1 29//1 27//1
f 30//1 29//1 28//1
f 31//1 29//1 30//1
f 32//1 31//1 33//1
f 31//1 30//1 33//1
f 32//1 33//1 34//1
f 35//1 36//1 37//1
f 36//1 38//1 37//1
f 39//1 40//1 41//1
f 40//1 42//2 41//1
f 42//2 43//1 41//1
f 43//1 44//1 41//1
f 45//4 44//1 46//1
f 47//1 44//1 45//4
f 43//1 46//1 44//1
f 48//1 46//1 43//1
f 49//1 46//1 48//1
f 50//1 49//1 48//1
f 47//1 51//1 44//1
f 49//1 50//1 35//1
f 50//1 36//1 35//1
f 38//1 32//1 34//1
f 38//1 34//1 37//1
s 0
f 16//1 1//1 15//3
s 1
f 52//5 53//5 54//5
f 52//5 54//5 55//5
f 52//5 55//5 56//5
f 52//5 56//5 57//5
f 58//5 59//5 57//5
f 60//5 61//5 59//5
f 62//5 61//5 60//5
f 63//5 64//5 62//5
f 65//5 64//5 63//5
f 66//5 65//5 67//5
f 66//5 67//5 68//5
f 69//5 68//5 70//5
f 71//5 70//5 72//5
f 71//5 72//5 73//5
f 74//5 75//5 76//5
f 77//5 74//5 78//5
f 77//5 78//5 79//5
f 80//5 81//5 82//5
f 81//5 79//5 82//5
f 83//5 82//5 84//5
s 0
f 82//5 85//6 86//5
f 82//5 86//7 87//5
s 1
f 88//5 82//5 89//5
f 88//5 90//5 82//5
f 90//5 91//5 82//5
f 82//5 92//5 93//5
f 82//5 93//5 94//5
f 82//5 94//5 95//5
f 82//5 95//5 96//5
f 84//5 82//5 97//5
f 82//5 96//5 97//5
f 91//5 92//5 82//5
f 89//5 82//5 87//5
f 83//5 80//5 82//5
f 79//5 81//5 77//5
f 76//5 78//5 74//5
f 98//5 76//5 75//5
f 98//5 75//5 73//5
f 98//5 73//5 72//5
f 70//5 71//5 69//5
f 68//5 69//5 66//5
f 63//5 67//5 65//5
f 60//5 59//5 58//5
f 61//5 62//5 64//5
f 99//5 57//5 100//5
f 101//5 99//5 102//5
f 58//5 57//5 56//5
f 57//5 99//5 52//5
f 100//5 102//5 99//5
f 103//8 104//8 105//8
f 106//8 107//8 108//8
f 109//8 110//8 111//9
f 105//9 112//8 109//8
f 111//8 113//8 114//8
f 115//10 116//11 117//1
f 118//12 119//13 115//10
f 120//14 118//12 121//15
f 120//14 121//15 122//16
f 123//17 122//16 124//18
f 123//17 124//18 125//19
f 125//19 126//20 127//21
f 126//20 128//22 127//21
f 128//22 129//23 130//24
f 129//23 131//25 130//24
f 132//26 133//27 131//25
f 134//28 133//27 132//26
f 135//29 136//30 134//28
f 137//31 136//30 135//29
f 138//32 137//31 139//33
f 140//34 141//35 142//36
f 141//35 143//36 142//36
f 144//37 141//35 140//34
f 144//37 140//34 145//38
f 144//37 145//38 146//39
f 146//39 145//38 147//40
f 146//39 147//40 148//41
f 147//40 138//32 148//41
f 138//32 139//33 148//41
f 137//31 135//29 139//33
f 136//30 133//27 134//28
f 132//26 131//25 129//23
f 128//22 130//24 127//21
f 123//17 120//14 122//16
f 124//18 126//20 125//19
f 116//11 115//10 119//13
f 149//42 117//1 116//11
f 150//43 117//1 149//42
f 151//44 150//43 149//42
f 152//45 150//43 151//44
f 152//45 153//46 154//47
f 153//46 155//48 154//47
f 156//49 157//50 155//48
f 158//51 156//49 159//52
f 158//51 160//53 161//54
f 162//55 163//56 161//54
f 164//57 163//56 165//58
f 166//59 167//60 168//61
f 169//62 166//59 170//63
f 167//60 171//64 168//61
f 172//65 173//66 174//67
f 172//65 174//67 175//68
f 173//66 176//69 177//70
f 176//69 178//71 177//70
f 178//71 179//72 177//70
f 180//73 181//74 179//72
f 181//74 180//73 182//75
f 181//74 182//75 183//76
f 183//76 184//77 185//78
f 184//77 186//79 185//78
f 186//79 187//80 185//78
f 187//80 188//81 189//82
f 188//81 190//83 189//82
f 191//84 190//83 188//81
f 192//85 193//86 191//84
f 194//87 193//86 192//85
f 194//87 192//85 195//88
f 166//59 164//57 170//63
f 196//89 194//87 197//90
f 165//58 163//56 162//55
f 198//91 196//89 199//92
f 196//89 197//90 199//92
f 200//93 198//91 201//94
f 161//54 160//53 162//55
f 200//93 201//94 202//95
f 160//53 158//51 159//52
f 203//96 200//93 204//97
f 156//49 158//51 157//50
f 203//96 204//97 205//98
f 154//47 155//48 157//50
f 203//96 205//98 206//99
f 153//46 152//45 151//44
f 175//68 168//61 171//64
f 207//100 208//101 206//99
f 207//100 209//102 208//101
f 209//102 210//103 211//104
f 210//103 212//105 211//104
f 213//106 212//105 210//103
f 214//107 215//108 212//105
f 216//109 215//108 214//107
f 217//110 218//111 216//109
f 219//112 218//111 217//110
f 220//113 219//112 221//114
f 220//113 221//114 222//115
f 223//116 220//113 224//117
f 223//116 224//117 225//118
f 226//119 225//118 227//120
f 228//121 229//122 230//123
f 228//121 230//123 231//124
f 232//125 233//126 234//127
f 235//128 228//121 236//129
f 237//130 238//131 239//132
f 240//133 241//134 242//135
f 243//136 244//137 245//138
f 246//139 247//140 248//141
f 249//142 250//143 251//144
f 252//145 253//146 254//147
f 255//148 256//149 257//150
f 258//151 259//152 256//149
f 259//152 260//153 261//154
f 260//153 262//155 263//156
f 262//155 264//157 265//158
f 264//157 266//159 267//160
f 198//91 199//92 201//94
f 197//90 194//87 195//88
f 143//36 268//161 142//36
f 269//162 268//161 143//36
f 270//163 268//161 269//162
f 270//163 269//162 267//160
f 264//157 267//160 265//158
f 262//155 265//158 263//156
f 260//153 263//156 261//154
f 259//152 261//154 256//149
f 258//151 256//149 255//148
f 255//148 257//150 252//145
f 257//150 253//146 252//145
f 253//146 250//143 254//147
f 250//143 249//142 254//147
f 251//144 271//164 249//142
f 272//165 271//164 251//144
f 272//165 251//144 248//141
f 272//165 248//141 247//140
f 247//140 246//139 273//166
f 246//139 274//167 273//166
f 274//167 243//136 273//166
f 244//137 243//136 274//167
f 275//168 245//138 244//137
f 275//168 244//137 276//169
f 275//168 276//169 277//170
f 276//169 241//134 277//170
f 241//134 240//133 277//170
f 242//135 278//171 240//133
f 279//172 278//171 242//135
f 280//173 278//171 279//172
f 280//173 279//172 238//131
f 279//172 239//132 238//131
f 239//132 281//174 237//130
f 281//174 282//175 237//130
f 283//176 282//175 281//174
f 284//177 282//175 283//176
f 284//177 283//176 234//127
f 284//177 234//127 233//126
f 234//127 285//178 232//125
f 285//178 286//179 232//125
f 287//180 286//179 285//178
f 288//181 286//179 287//180
f 288//181 287//180 289//182
f 288//181 289//182 290//183
f 289//182 235//128 290//183
f 235//128 236//129 290//183
f 226//119 227//120 229//122
f 231//124 236//129 228//121
f 227//120 230//123 229//122
f 223//116 225//118 226//119
f 220//113 222//115 224//117
f 219//112 217//110 221//114
f 218//111 215//108 216//109
f 214//107 212//105 213//106
f 209//102 211//104 208//101
f 205//98 207//100 206//99
f 200//93 202//95 204//97
f 270//163 267//160 266//159
f 190//83 191//84 193//86
f 189//82 185//78 187//80
f 184//77 183//76 182//75
f 178//71 180//73 179//72
f 174//67 173//66 177//70
f 175//68 171//64 172//65
f 167//60 166//59 169//62
f 121//15 118//12 115//10
f 165//58 170//63 164//57
f 291//184 292//184 293//184
f 294//184 295//184 296//184
f 297//185 298//185 299//184
f 300//184 297//184 301//184
f 298//185 291//185 302//184
f 303//186 304//186 305//186
f 306//186 307//186 308//186
f 309//186 310//186 311//186
f 312//186 313//186 314//186
f 315//186 316//186 317//186
f 318//186 319//186 320//186
f 321//186 322//186 323//186
f 324//186 325//186 326//186
f 327//186 328//186 329//186
f 330//186 331//186 332//186
f 333//186 334//186 335//186
f 336//186 337//186 338//186
f 339//186 340//186 341//186
f 342//186 343//186 344//186
f 345//186 346//186 347//186
f 348//186 349//186 350//186
f 351//186 352//186 353//186
f 354//186 355//186 356//186
f 357//186 358//186 359//186
f 360//186 361//186 362//186
f 363//186 364//186 365//186
f 366//187 367//187 368//187
f 369//188 370//188 371//188
f 372//187 373//187 374//187
f 375//188 376//188 377//188
f 378//187 379//187 380//187
f 381//188 382//188 383//188
f 384//186 385//186 386//186
f 387//186 388//186 389//186
f 390//187 391//187 392//187
f 393//186 394//186 395//186
f 396//188 397//188 398//188
f 399//188 400//188 401//188
f 402//186 403//186 404//186
f 405//186 406//186 407//186
f 408//188 409//188 410//188
f 411//186 412//186 413//186
f 414//186 415//186 416//186
f 417//186 418//186 419//186
f 420//186 421//186 422//186
f 423//187 424//187 425//187
f 426//188 427//188 428//188
f 429//186 430//186 431//186
f 432//186 433//186 434//186
f 435//186 436//186 437//186
f 438//186 439//186 440//186
f 441//186 442//186 443//186
f 444//186 445//186 446//186
f 447//186 448//186 449//186
f 450//186 451//186 452//186
f 453//186 454//186 455//186
f 456//186 457//186 458//186
f 459//186 460//186 461//186
f 462//186 463//186 464//186
f 465//186 466//186 467//186
f 468//186 469//186 470//186
f 471//186 472//186 473//186
f 474//186 475//186 476//186
f 477//186 478//186 479//186
f 480//188 481//188 482//188
f 483//186 484//186 485//186
f 486//186 487//186 488//186
f 489//186 490//186 491//186
f 492//186 493//186 494//186
f 495//186 496//186 497//186
f 498//186 499//186 500//186
f 501//186 502//186 503//186
f 504//186 505//186 506//186
f 507//186 508//186 509//186
f 510//186 511//186 512//186
f 513//186 514//186 515//186
f 516//186 517//186 518//186
f 519//186 520//186 521//186
f 522//186 523//186 524//186
f 525//186 526//186 527//186
f 528//186 529//186 530//186
f 531//186 532//186 533//186
f 534//186 535//186 536//186
f 537//186 538//186 539//186
f 540//187 541//187 542//187
f 543//189 544//189 545//189
f 546//186 547//186 548//186
f 549//186 550//186 551//186
f 552//186 553//186 554//186
f 555//190 556//191 557//192
f 555//190 558//193 556//191
f 559//194 560//195 561//196
f 559//194 562//197 563//198
f 564//199 565//200 566//201
f 564//199 562//197 567//202
f 564//199 567//202 568//203
f 562//197 561//196 569//204
f 570//205 563//198 571//206
f 570//205 558//193 560//195
f 570//205 571//206 556//191
f 563//198 572//207 571//206
f 569//204 561//196 573//208
f 569//204 567//202 562//197
f 574//209 575//210 576//211
f 574//209 577//212 575//210
f 578//213 579//214 580//215
f 578//213 581//216 582//217
f 583//218 584//219 585//208
f 583//218 580//215 586//220
f 580//215 587//221 586//220
f 580//215 579//214 587//221
f 579//214 588//222 589//223
f 579//192 590//217 591//224
f 592//225 593//226 594//227
f 592//225 595//228 596//229
f 597//230 598//231 599//232
f 597//230 600//233 598//231
f 594//227 601//228 592//225
f 594//227 602//234 603//235
f 604//236 605//237 606//234
f 604//236 575//210 607//238
f 605//237 588//222 608//239
f 605//237 607//238 588//222
f 592//225 596//229 593//226
f 595//228 557//192 609//228
f 596//229 610//240 593//226
f 596//229 609//228 611//241
f 611//241 589//223 588//222
f 611//241 609//228 589//223
f 589//223 587//221 579//214
f 589//223 609//228 612//242
f 557//192 613//243 612//242
f 557//192 556//191 613//243
f 612//242 609//228 557//192
f 612//242 614//244 587//221
f 614//244 615//245 586//220
f 614//244 613//243 571//206
f 600//233 593//226 616//246
f 594//227 597//230 617//247
f 618//248 577//212 619//249
f 618//248 607//238 575//210
f 577//212 574//209 620//250
f 618//248 619//249 610//240
f 621//251 622//252 623//253
f 621//251 619//249 622//252
f 616//246 593//226 610//240
f 616//246 598//231 600//233
f 568//203 567//202 624//254
f 568//203 625//255 565//200
f 558//193 601//228 626//224
f 601//228 555//190 595//228
f 559//194 561//196 562//197
f 560//195 627//217 628//256
f 562//197 564//199 563//198
f 566//201 629//257 572//207
f 291//185 620//250 630//252
f 291//185 298//185 620//250
f 620//250 574//209 631//211
f 620//250 298//185 622//252
f 604//236 607//238 605//237
f 575//210 577//212 618//248
f 297//185 623//253 298//185
f 623//253 598//231 621//251
f 623//253 297//185 632//252
f 633//258 584//219 634//259
f 633//258 635//260 636//261
f 629//257 615//245 572//207
f 629//257 634//259 584//219
f 586//220 587//221 614//244
f 637//262 578//213 638//263
f 633//258 634//259 639//264
f 584//219 586//220 629//257
f 640//265 569//266 641//267
f 572//207 564//199 566//201
f 571//206 572//207 615//245
f 570//205 556//191 558//193
f 568//203 565//200 564//199
f 625//255 642//255 565//200
f 563//198 564//199 572//207
f 565//200 643//255 634//259
f 571//206 615//245 614//244
f 566//201 565//200 634//259
f 621//251 616//246 619//249
f 598//231 644//211 645//232
f 577//212 622//252 619//249
f 620//250 622//252 577//212
f 610//240 619//249 616//246
f 610//240 596//229 611//241
f 584//219 583//218 586//220
f 611//241 607//238 610//240
f 588//222 607//238 611//241
f 607//238 618//248 610//240
f 597//230 593//226 600//233
f 595//228 555//190 557//192
f 598//231 616//246 621//251
f 592//225 601//228 595//228
f 595//228 609//228 596//229
f 589//223 612//242 587//221
f 586//220 615//245 629//257
f 614//244 612//242 613//243
f 569//268 646//269 647//267
f 560//195 559//194 570//205
f 601//228 558//193 555//190
f 556//191 571//206 613//243
f 634//259 648//270 649//271
f 650//254 651//272 568//203
f 652//247 653//273 604//236
f 623//253 622//252 298//185
f 654//224 655//228 579//192
f 656//222 601//228 594//227
f 657//264 633//258 658//272
f 659//263 561//274 660//262
f 661//270 662//272 663//271
f 664//275 665//276 666//277
f 667//271 668//272 669//278
f 670//279 671//272 672//254
f 633//258 673//279 674//280
f 633//258 675//261 676//279
f 677//280 678//281 633//258
f 679//282 633//283 680//284
f 681//208 682//263 583//285
f 683//217 579//214 578//213
f 583//218 578//213 580//215
f 684//208 561//286 685//263
f 588//222 579//214 686//222
f 563//198 570//205 559//194
f 687//264 634//259 688//287
f 689//287 634//288 690//289
f 691//272 692//255 568//290
f 693//261 694//260 634//259
f 695//281 696//208 584//219
f 629//257 566//201 634//259
f 634//259 697//255 698//291
f 699//271 700//279 634//259
f 568//203 701//255 625//255
f 702//261 634//259 703//279
f 704//254 567//202 569//204
f 705//272 633//258 706//264
f 707//235 708//234 605//227
f 558//193 709//224 560//195
f 710//292 711//235 605//227
f 712//217 560//195 713//224
f 604//236 714//234 715//247
f 716//292 594//227 717//235
f 718//252 719//211 623//253
f 720//293 721//252 297//184
f 623//253 722//294 598//231
f 723//247 597//230 724//232
f 291//184 725//252 726//293
f 727//247 728//234 594//227
f 729//252 620//250 730//294
f 593//226 597//230 594//227
f 731//232 732//294 575//295
f 604//236 733//232 575//210
f 734//224 601//228 735//222
f 736//262 561//196 560//195
f 737//296 633//258 738//264
f 633//258 739//267 584//219
f 740//272 741//255 742//255
f 578//213 583//218 743//263
f 744//255 745//255 746//297
f 747//298 748//299 749//300
f 750//301 751//302 752//255
f 753//301 754//303 755//302
f 756//302 757//303 758//304
f 759//305 760//302 761//306
f 762//305 763//307 764//308
f 765//309 766//310 767//307
f 768//310 769//311 770//312
f 771//313 772//314 773//315
f 774//314 775//316 776//317
f 777//318 778//319 779//320
f 780//320 781//319 782//321
f 783//322 784//323 785//324
f 786//325 787//322 788//326
f 789//327 790//325 791//328
f 792//329 793//330 794//331
f 795//332 796//332 797//333
f 798//333 799//332 800//334
f 801//334 802//332 803//335
f 804//336 805//334 806//335
f 807//337 808//338 809//339
f 810//340 811//337 812//339
f 813//341 814//340 815//342
f 816//341 817//343 818//340
f 819//344 820//345 821//346
f 822//341 823//347 824//345
f 825//348 826//349 827//350
f 828//351 829//330 830//352
f 831//350 832//351 833//353
f 834//353 835//354 836//330
f 837//355 838//356 839//357
f 840//358 841//355 842//359
f 843//360 844//361 845//362
f 846//363 847//364 848//358
f 849//365 850//360 851//362
f 852//325 853//327 854//366
f 855//326 856//328 857//325
f 858//367 859//326 860//368
f 861//321 862//324 863//320
f 864//369 865//370 866//316
f 867//317 868//371 869//314
f 870//315 871//311 872//372
f 873//371 874//312 875//311
f 876//312 877//307 878//310
f 879//307 880//305 881//309
f 882//358 883//364 884//355
f 885//353 886//350 887//349
f 888//373 889//374 890//375
f 888//373 891//376 889//374
f 892//377 893//378 894//379
f 892//377 895//380 896//381
f 892//377 896//381 893//378
f 895//380 897//382 898//383
f 899//384 898//383 900//385
f 899//384 901//386 896//381
f 898//383 897//382 900//385
f 898//383 896//381 895//380
f 902//387 903//388 904//389
f 902//387 905//390 906//368
f 907//391 908//392 909//393
f 907//391 910//394 908//392
f 911//395 912//396 913//397
f 911//395 914//398 915//399
f 912//396 916//400 913//397
f 912//396 915//399 917//401
f 918//402 919//403 920//404
f 918//402 921//405 922//406
f 921//405 923//407 924//408
f 921//405 925//409 926//410
f 927//411 928//412 929//413
f 927//411 891//376 930//414
f 931//415 932//416 933//417
f 931//415 934//418 935//370
f 905//419 936//320 937//322
f 905//390 932//416 938//370
f 932//416 904//389 939//420
f 905//419 940//318 941//320
f 934//421 942//371 943//422
f 934//418 894//379 944//371
f 945//423 946//424 947//425
f 945//423 948//426 917//401
f 945//423 917//401 946//424
f 948//426 949//427 950//428
f 951//429 949//427 952//430
f 951//429 950//428 949//427
f 917//401 915//399 946//424
f 917//401 950//428 916//400
f 948//426 950//428 917//401
f 917//401 916//400 912//396
f 953//431 951//429 952//430
f 954//395 955//432 956//433
f 954//395 957//434 926//410
f 958//435 959//436 908//392
f 958//435 960//349 959//436
f 961//437 962//438 963//354
f 961//437 908//392 910//394
f 964//439 965//365 966//440
f 964//439 967//441 968//442
f 967//441 969//443 970//444
f 967//441 971//445 972//446
f 973//447 955//432 925//409
f 973//447 974//448 975//449
f 974//448 970//444 969//443
f 974//448 976//450 977//451
f 970//444 968//442 967//441
f 970//444 977//451 978//452
f 979//453 980//454 981//455
f 979//453 893//378 982//456
f 947//425 983//457 945//423
f 947//425 959//436 984//341
f 985//458 986//459 987//460
f 985//461 988//462 989//463
f 986//459 990//464 991//465
f 986//466 992//467 993//468
f 994//469 995//470 996//471
f 994//469 930//414 997//472
f 995//470 990//464 998//473
f 995//470 997//472 999//474
f 1000//475 1001//476 1002//477
f 1000//475 1003//478 1004//479
f 1005//480 968//442 978//452
f 1005//480 1002//477 965//365
f 1001//476 1006//481 1007//482
f 1001//476 1004//479 1006//481
f 1008//483 1009//484 1010//362
f 1008//483 1011//485 966//440
f 1008//483 966//440 1009//484
f 1011//485 1012//486 966//440
f 975//449 956//433 955//432
f 975//449 969//443 909//393
f 991//465 999//474 1003//478
f 991//465 987//460 986//459
f 999//474 997//472 1004//479
f 999//474 990//464 995//470
f 953//431 957//434 913//397
f 953//431 952//430 1013//487
f 926//410 925//409 955//432
f 926//410 1013//487 923//407
f 1013//487 952//430 1014//488
f 1013//487 957//434 953//431
f 1013//487 1014//488 923//407
f 952//430 1015//332 1016//333
f 1017//489 908//392 959//436
f 1017//489 915//399 914//398
f 945//423 983//457 948//426
f 946//424 959//436 947//425
f 918//402 925//409 921//405
f 920//404 1018//490 976//450
f 1018//490 987//460 977//451
f 1018//490 919//403 985//458
f 894//379 981//455 1019//312
f 894//379 933//417 892//377
f 981//455 980//454 1020//307
f 981//455 893//378 979//453
f 909//393 914//398 956//433
f 909//393 972//446 907//391
f 911//395 915//399 912//396
f 914//398 908//392 1017//489
f 1021//491 980//454 1022//492
f 1021//491 1023//255 1024//302
f 1021//491 1022//492 1025//255
f 980//454 982//456 1026//493
f 1022//492 1026//493 1027//494
f 980//454 1021//491 1028//308
f 1029//495 889//374 1030//496
f 1029//495 1031//497 1032//498
f 1033//499 1034//500 1031//497
f 1033//499 1035//501 1036//502
f 978//452 977//451 987//460
f 978//452 968//442 970//444
f 977//451 976//450 1018//490
f 975//449 974//448 969//443
f 980//454 1026//493 1022//492
f 982//456 901//386 1026//493
f 1004//479 1037//320 1006//481
f 1004//479 1003//478 999//474
f 1037//320 1038//503 1039//504
f 1037//320 997//472 930//414
f 964//439 971//445 967//441
f 965//365 1040//505 966//440
f 967//441 972//446 969//443
f 971//445 966//440 1012//486
f 1041//506 1006//481 1037//320
f 1041//506 900//385 897//382
f 899//384 1042//507 1043//508
f 900//385 1039//504 1044//509
f 890//375 1032//498 1042//507
f 890//375 1038//503 888//373
f 1032//498 1031//497 1043//508
f 1032//498 889//374 1029//495
f 1012//486 907//391 972//446
f 910//394 962//438 961//437
f 1012//486 1011//485 962//438
f 1012//486 972//446 971//445
f 1044//509 1039//504 1038//503
f 1044//509 1042//507 900//385
f 1045//510 897//382 939//420
f 1045//510 1007//482 1006//481
f 1007//482 1040//505 1002//477
f 1007//482 904//389 903//388
f 927//411 930//414 994//469
f 930//414 888//373 1038//503
f 994//469 997//472 995//470
f 930//414 1038//503 1037//320
f 1009//484 903//388 1046//325
f 1009//484 966//440 1040//505
f 902//387 904//389 932//416
f 903//388 1040//505 1007//482
f 923//407 1014//488 1047//511
f 1013//487 926//410 957//434
f 1014//512 1048//513 1049//514
f 1014//515 1050//516 1051//513
f 1045//510 904//389 1007//482
f 931//415 933//417 894//379
f 1043//508 1042//507 1032//498
f 1043//508 901//386 899//384
f 1027//494 625//299 1022//492
f 1027//494 1031//497 1034//500
f 1033//499 1031//497 1029//495
f 1034//500 625//299 1027//494
f 1042//507 899//384 900//385
f 895//380 892//377 933//417
f 896//381 982//456 893//378
f 1026//493 1043//508 1027//494
f 894//379 893//378 981//455
f 933//417 939//420 895//380
f 1017//489 946//424 915//399
f 959//436 1052//349 1053//341
f 983//517 1054//335 1055//332
f 959//436 946//424 1017//489
f 913//397 916//400 953//431
f 911//395 956//433 914//398
f 975//449 955//432 973//447
f 955//432 954//395 926//410
f 962//438 1011//485 1008//483
f 1012//486 910//394 907//391
f 962//438 910//394 1012//486
f 975//449 909//393 956//433
f 908//392 914//398 909//393
f 956//433 911//395 913//397
f 918//402 920//404 925//409
f 925//409 920//404 976//450
f 923//407 921//405 926//410
f 925//409 976//450 973//447
f 951//429 953//431 916//400
f 957//434 954//395 913//397
f 978//452 991//465 1003//478
f 995//470 1056//473 1057//518
f 964//439 968//442 965//365
f 976//450 974//448 973//447
f 1009//484 1040//505 903//388
f 1005//480 965//365 968//442
f 966//440 971//445 964//439
f 972//446 909//393 969//443
f 919//403 1018//490 920//404
f 1005//480 978//452 1000//475
f 954//395 956//433 913//397
f 974//448 977//451 970//444
f 1003//478 1000//475 978//452
f 1002//477 1040//505 965//365
f 1002//477 1005//480 1000//475
f 1058//519 994//469 1059//520
f 1000//475 1004//479 1001//476
f 1060//521 995//470 1061//522
f 1041//506 1045//510 1006//481
f 902//387 932//416 905//390
f 1007//482 1002//477 1001//476
f 1062//358 1008//523 1063//366
f 1045//510 1041//506 897//382
f 1032//498 890//375 889//374
f 899//384 896//381 898//383
f 1064//370 932//416 931//415
f 900//385 1041//506 1039//504
f 1065//322 903//388 902//387
f 1044//509 890//375 1042//507
f 889//374 891//376 1066//524
f 1037//320 1039//504 1041//506
f 1067//525 891//376 1068//526
f 1027//494 1043//508 1031//497
f 1069//312 981//455 1070//307
f 901//386 1043//508 1026//493
f 1071//527 1033//499 1072//502
f 1073//335 983//457 1074//341
f 1075//528 952//430 1076//529
f 1077//353 1078//530 958//531
f 1079//408 1080//532 921//405
f 939//420 904//389 1045//510
f 1081//533 985//458 919//403
f 982//456 896//381 901//386
f 1082//471 1083//534 994//535
f 1022//492 625//299 1084//276
f 1085//371 1086//536 891//537
f 1087//297 1088//255 1034//500
f 1034//500 1089//255 625//299
f 1090//538 1091//297 1034//539
f 1092//540 1093//541 1034//542
f 1033//499 1094//543 1034//500
f 1033//499 1095//544 1096//545
f 1044//509 1038//503 890//375
f 1029//495 1097//496 1033//499
f 1033//499 1098//546 1099//501
f 889//374 1100//536 1101//496
f 888//373 930//414 891//376
f 903//547 1102//322 1103//548
f 1037//320 1004//479 997//472
f 897//382 895//380 939//420
f 927//411 1104//526 891//376
f 927//411 1105//549 1106//550
f 1107//362 1009//484 1108//325
f 1109//519 927//411 994//469
f 1110//357 962//438 1111//358
f 991//465 978//452 987//460
f 962//438 1008//483 1112//358
f 1018//490 985//458 987//460
f 1113//352 961//437 1114//331
f 990//464 986//459 1115//473
f 947//425 1116//344 983//457
f 986//459 985//458 1117//467
f 961//437 1118//353 958//435
f 1119//551 985//461 1120//533
f 961//437 958//435 908//392
f 1121//552 918//402 1122//406
f 948//426 1123//427 949//427
f 1124//332 952//430 949//427
f 1125//553 1126//406 921//405
f 952//430 1127//554 1014//488
f 951//429 916//400 950//428
f 1128//555 1129//556 1014//515
f 1014//515 1130//556 1131//511
f 1132//395 923//407 1133//557
f 1134//395 1135//408 923//558
f 1136//559 948//426 983//457
f 918//402 1137//552 919//403
f 1138//552 1139//533 919//403
f 1140//468 1141//560 986//466
f 999//474 991//465 990//464
f 932//416 939//420 933//417
f 979//453 982//456 980//454
f 1142//302 1143//307 980//454
f 1144//312 1145//371 894//561
f 931//415 894//379 934//418
f 1146//562 1147//563 1148//564
f 1146//562 1149//565 1147//563
f 1150//566 1151//567 1152//568
f 1150//566 949//332 1153//569
f 1154//570 1155//571 1156//572
f 1154//570 1157//573 1158//574
f 1159//575 1160//576 1161//577
f 1159//575 1149//565 1160//576
f 1162//578 1163//579 1164//580
f 1162//578 1165//581 1166//582
f 1167//583 1168//584 1169//585
f 1167//583 1166//582 1170//586
f 1166//582 1165//581 1171//587
f 1166//582 1163//579 1162//578
f 1172//588 1173//589 1174//590
f 1172//588 1175//586 1176//591
f 1173//589 1177//592 1174//590
f 1173//580 1178//591 1179//593
f 1180//594 1160//576 1181//595
f 1180//594 1182//596 1183//597
f 1182//596 1164//580 1184//598
f 1182//596 1180//594 1162//578
f 1164//580 1185//599 1186//600
f 1164//580 1163//579 1185//599
f 1186//600 1187//601 1184//598
f 1186//600 1174//590 1177//592
f 1187//601 1188//602 1189//603
f 1187//601 1177//592 1190//604
f 1183//597 1191//576 1160//576
f 1183//597 1184//598 1189//603
f 1189//603 1184//598 1187//601
f 1189//603 1191//576 1183//597
f 1192//605 1193//606 1161//577
f 1192//605 1188//602 1194//607
f 1167//583 1163//579 1166//582
f 1169//585 1195//608 1163//579
f 1196//609 1156//572 1155//571
f 1196//609 1197//610 1156//572
f 1196//609 1155//571 1174//590
f 1156//572 1157//573 1154//570
f 1198//611 1161//577 1199//612
f 1198//611 1200//613 1147//563
f 1200//613 1201//614 1202//615
f 1200//613 1203//616 1153//569
f 1202//615 1147//563 1200//613
f 1202//615 1204//617 1205//618
f 1181//595 1165//581 1180//594
f 1181//595 1206//619 1207//620
f 1149//565 1146//562 1206//619
f 1198//611 1159//575 1161//577
f 1208//621 1209//622 1197//610
f 1208//621 1195//608 1168//584
f 1195//608 1169//585 1168//584
f 1195//608 1197//610 1185//599
f 1210//623 1211//624 1212//625
f 1210//623 1213//626 1214//627
f 1213//626 1215//628 1216//629
f 1213//626 1217//630 1218//631
f 1190//604 1177//592 1219//620
f 1190//604 1188//602 1187//601
f 1220//632 1215//628 1194//607
f 1220//633 1221//634 1222//635
f 1223//636 949//332 1224//332
f 1223//636 1153//569 949//332
f 1161//577 1191//576 1192//605
f 1161//577 1160//576 1191//576
f 1153//569 1223//636 1201//614
f 1153//569 1203//616 1151//567
f 1203//616 1199//612 1225//637
f 1149//565 1159//575 1147//563
f 1225//637 1151//567 1203//616
f 1225//637 1218//631 1217//630
f 1194//607 1188//602 1220//632
f 1194//607 1218//631 1193//606
f 1225//637 1217//630 1151//567
f 1218//631 1215//628 1213//626
f 111//9 1157//573 109//8
f 1209//622 1156//572 1197//610
f 1157//573 111//9 1226//622
f 1196//609 1174//590 1185//599
f 1155//571 1227//638 1228//639
f 105//9 1229//640 1230//622
f 105//9 109//8 1229//640
f 1229//640 1168//584 1231//638
f 1229//640 109//8 1209//622
f 1167//583 1169//585 1163//579
f 1195//608 1208//621 1197//610
f 1232//622 111//8 1233//641
f 1168//584 1229//640 1208//621
f 1234//638 1157//642 1235//622
f 1185//599 1197//610 1196//609
f 1185//599 1163//579 1195//608
f 1164//580 1186//600 1184//598
f 1177//598 1236//587 1237//620
f 1174//590 1186//600 1185//599
f 1238//587 1173//582 1239//593
f 1206//619 1146//562 1240//643
f 1149//565 1181//595 1160//576
f 1182//596 1162//578 1164//580
f 1166//582 1241//587 1242//593
f 1183//597 1182//596 1184//598
f 1243//639 1167//644 1244//586
f 1192//605 1189//603 1188//602
f 1162//578 1180//594 1165//581
f 1220//632 1188//602 1190//604
f 1192//605 1194//607 1193//606
f 1189//603 1192//605 1191//576
f 1245//564 1220//632 1246//645
f 1202//615 1201//614 1247//627
f 1198//611 1147//563 1159//575
f 1201//614 1223//636 1248//646
f 1150//566 1153//569 1151//567
f 1201//614 1200//613 1153//569
f 1225//637 1193//606 1218//631
f 1199//612 1161//577 1193//606
f 1165//581 1181//595 1249//620
f 1217//630 1250//647 1251//648
f 1217//630 1252//646 1253//647
f 1225//637 1199//612 1193//606
f 1254//629 1255//564 1202//615
f 1160//576 1180//594 1183//597
f 1157//573 1209//622 109//8
f 1203//616 1198//611 1199//612
f 1256//581 1177//592 1173//589
f 1257//649 1217//630 1258//648
f 1259//564 1215//628 1220//632
f 1260//332 1261//332 1262//646
f 1263//646 1264//332 1265//650
f 1266//651 1267//652 1268//653
f 1269//568 1270//654 1210//623
f 1271//654 1272//624 1210//623
f 1273//647 1210//623 1274//648
f 1217//630 1213//626 1210//623
f 1275//647 1276//646 1210//623
f 1277//655 1213//626 1278//617
f 1215//628 1218//631 1194//607
f 1279//618 1280//617 1213//656
f 1165//598 1281//620 1282//587
f 1177//592 1187//601 1186//600
f 1283//593 1284//591 1166//582
f 1190//604 1285//620 1286//634
f 1149//565 1206//619 1181//595
f 1172//588 1155//571 1287//657
f 1209//622 1208//621 1229//640
f 1154//570 1288//574 1155//571
f 1289//586 1172//588 1290//658
f 105//8 1291//622 1292//641
f 1172//588 1293//591 1173//589
f 1294//622 1229//640 1295//574
f 1157//573 1156//572 1209//622
f 1296//639 1168//584 1167//583
f 1190//604 1297//634 1220//632
f 1298//620 1206//659 1299//634
f 1300//624 1217//630 1301//660
f 1302//645 1146//562 1303//564
f 1304//655 1201//614 1305//646
f 1306//646 1223//636 1307//332
f 1202//615 1308//564 1147//563
f 949//332 1150//566 1309//332
f 1310//427 1150//661 1311//662
f 1312//663 1150//664 1313//665
f 1314//651 1151//567 1315//654
f 1316//654 1151//666 1317//624
f 1203//616 1200//613 1198//611
f 1318//655 1319//617 1202//615
f 1206//619 1320//667 1321//634
f 1322//639 1323//574 1168//584
f 1174//590 1155//571 1172//588
f 1324//591 1325//586 1166//582
f 1217//630 1210//623 1326//646
f 1327//564 1328//629 1215//628
f 1329//627 1330//646 1210//623
f 1210//623 1331//649 1332//648
f 1151//567 1217//630 1333//624
f 1210//623 1334//646 1335//568
