# Blender 4.4.3
# www.blender.org
mtllib Mesh_11.003.mtl
o Mesh_11.003
v 0.011630 0.009401 0.000397
v 0.011630 0.009081 0.000397
v 0.011645 0.009401 0.000397
v 0.011645 0.009081 0.000397
v 0.011630 0.009441 0.000037
v 0.011630 0.009441 0.000357
v 0.011645 0.009441 0.000037
v 0.011645 0.009441 0.000357
v 0.011630 0.009081 -0.000003
v 0.011630 0.009401 -0.000003
v 0.011645 0.009081 -0.000003
v 0.011645 0.009401 -0.000003
v 0.011630 0.009041 0.000357
v 0.011630 0.009041 0.000037
v 0.011645 0.009041 0.000357
v 0.011645 0.009041 0.000037
v 0.011605 0.009401 0.000372
v 0.011605 0.009416 0.000357
v 0.011605 0.009416 0.000037
v 0.011605 0.009416 0.000360
v 0.011605 0.009415 0.000363
v 0.011605 0.009414 0.000366
v 0.011605 0.009412 0.000368
v 0.011605 0.009407 0.000371
v 0.011605 0.009409 0.000370
v 0.011605 0.009404 0.000372
v 0.011605 0.009081 0.000372
v 0.011605 0.009066 0.000357
v 0.011605 0.009078 0.000372
v 0.011605 0.009073 0.000370
v 0.011605 0.009075 0.000371
v 0.011605 0.009071 0.000368
v 0.011605 0.009067 0.000363
v 0.011605 0.009069 0.000366
v 0.011605 0.009066 0.000360
v 0.011605 0.009066 0.000037
v 0.011605 0.009081 0.000022
v 0.011605 0.009067 0.000031
v 0.011605 0.009066 0.000034
v 0.011605 0.009069 0.000029
v 0.011605 0.009071 0.000027
v 0.011605 0.009075 0.000023
v 0.011605 0.009073 0.000025
v 0.011605 0.009078 0.000022
v 0.011605 0.009401 0.000022
v 0.011605 0.009407 0.000023
v 0.011605 0.009404 0.000022
v 0.011605 0.009409 0.000025
v 0.011605 0.009412 0.000027
v 0.011605 0.009415 0.000031
v 0.011605 0.009414 0.000029
v 0.011605 0.009416 0.000034
v 0.011645 0.009041 0.000357
v 0.011645 0.009401 0.000397
v 0.011645 0.009081 0.000397
v 0.011645 0.009041 0.000357
v 0.011645 0.009081 0.000397
v 0.011645 0.009073 0.000396
v 0.011645 0.009041 0.000357
v 0.011645 0.009066 0.000394
v 0.011645 0.009041 0.000357
v 0.011645 0.009059 0.000390
v 0.011645 0.009041 0.000357
v 0.011645 0.009053 0.000385
v 0.011645 0.009044 0.000372
v 0.011645 0.009041 0.000357
v 0.011645 0.009048 0.000379
v 0.011645 0.009041 0.000357
v 0.011645 0.009042 0.000365
v 0.011645 0.009041 0.000357
v 0.011645 0.009041 0.000357
v 0.011645 0.009041 0.000037
v 0.011645 0.009401 0.000397
v 0.011645 0.009041 0.000037
v 0.011645 0.009081 -0.000003
v 0.011645 0.009401 0.000397
v 0.011645 0.009041 0.000037
v 0.011645 0.009042 0.000029
v 0.011645 0.009081 -0.000003
v 0.011645 0.009044 0.000022
v 0.011645 0.009081 -0.000003
v 0.011645 0.009081 -0.000003
v 0.011645 0.009048 0.000015
v 0.011645 0.009053 0.000009
v 0.011645 0.009066 -0.000000
v 0.011645 0.009081 -0.000003
v 0.011645 0.009059 0.000004
v 0.011645 0.009081 -0.000003
v 0.011645 0.009073 -0.000002
v 0.011645 0.009081 -0.000003
v 0.011645 0.009081 -0.000003
v 0.011645 0.009401 -0.000003
v 0.011645 0.009401 0.000397
v 0.011645 0.009401 -0.000003
v 0.011645 0.009441 0.000037
v 0.011645 0.009401 0.000397
v 0.011645 0.009441 0.000037
v 0.011645 0.009409 -0.000002
v 0.011645 0.009416 -0.000000
v 0.011645 0.009441 0.000037
v 0.011645 0.009423 0.000004
v 0.011645 0.009441 0.000037
v 0.011645 0.009429 0.000009
v 0.011645 0.009438 0.000022
v 0.011645 0.009441 0.000037
v 0.011645 0.009434 0.000015
v 0.011645 0.009441 0.000037
v 0.011645 0.009440 0.000029
v 0.011645 0.009441 0.000037
v 0.011645 0.009441 0.000037
v 0.011645 0.009401 -0.000003
v 0.011645 0.009441 0.000357
v 0.011645 0.009401 0.000397
v 0.011645 0.009441 0.000037
v 0.011645 0.009401 0.000397
v 0.011645 0.009440 0.000365
v 0.011645 0.009438 0.000372
v 0.011645 0.009401 0.000397
v 0.011645 0.009434 0.000379
v 0.011645 0.009401 0.000397
v 0.011645 0.009429 0.000385
v 0.011645 0.009416 0.000394
v 0.011645 0.009401 0.000397
v 0.011645 0.009423 0.000390
v 0.011645 0.009401 0.000397
v 0.011645 0.009409 0.000396
v 0.011645 0.009401 0.000397
v 0.011645 0.009401 0.000397
v 0.011645 0.009441 0.000357
v 0.011645 0.009081 -0.000003
v 0.011645 0.009440 0.000365
v 0.011630 0.009440 0.000365
v 0.011645 0.009438 0.000372
v 0.011645 0.009438 0.000372
v 0.011630 0.009438 0.000372
v 0.011645 0.009434 0.000379
v 0.011645 0.009434 0.000379
v 0.011630 0.009434 0.000379
v 0.011645 0.009429 0.000385
v 0.011630 0.009429 0.000385
v 0.011645 0.009423 0.000390
v 0.011630 0.009423 0.000390
v 0.011645 0.009416 0.000394
v 0.011630 0.009416 0.000394
v 0.011645 0.009409 0.000396
v 0.011630 0.009409 0.000396
v 0.011645 0.009409 0.000396
v 0.011645 0.009409 0.000396
v 0.011645 0.009416 0.000394
v 0.011645 0.009416 0.000394
v 0.011645 0.009423 0.000390
v 0.011645 0.009423 0.000390
v 0.011645 0.009429 0.000385
v 0.011645 0.009429 0.000385
v 0.011645 0.009434 0.000379
v 0.011645 0.009440 0.000365
v 0.011645 0.009438 0.000372
v 0.011645 0.009409 -0.000002
v 0.011630 0.009409 -0.000002
v 0.011645 0.009416 -0.000000
v 0.011645 0.009409 -0.000002
v 0.011645 0.009423 0.000004
v 0.011645 0.009416 -0.000000
v 0.011630 0.009416 -0.000000
v 0.011630 0.009423 0.000004
v 0.011645 0.009423 0.000004
v 0.011630 0.009429 0.000009
v 0.011645 0.009429 0.000009
v 0.011645 0.009434 0.000015
v 0.011645 0.009429 0.000009
v 0.011630 0.009434 0.000015
v 0.011645 0.009438 0.000022
v 0.011645 0.009434 0.000015
v 0.011645 0.009440 0.000029
v 0.011630 0.009440 0.000029
v 0.011630 0.009438 0.000022
v 0.011645 0.009440 0.000029
v 0.011645 0.009438 0.000022
v 0.011645 0.009440 0.000029
v 0.011645 0.009438 0.000022
v 0.011645 0.009434 0.000015
v 0.011645 0.009423 0.000004
v 0.011645 0.009429 0.000009
v 0.011645 0.009416 -0.000000
v 0.011645 0.009042 0.000029
v 0.011630 0.009042 0.000029
v 0.011645 0.009044 0.000022
v 0.011645 0.009044 0.000022
v 0.011630 0.009044 0.000022
v 0.011645 0.009048 0.000015
v 0.011645 0.009048 0.000015
v 0.011630 0.009048 0.000015
v 0.011645 0.009053 0.000009
v 0.011630 0.009053 0.000009
v 0.011645 0.009059 0.000004
v 0.011645 0.009053 0.000009
v 0.011645 0.009066 -0.000000
v 0.011645 0.009059 0.000004
v 0.011630 0.009059 0.000004
v 0.011630 0.009066 -0.000000
v 0.011645 0.009066 -0.000000
v 0.011630 0.009073 -0.000002
v 0.011645 0.009073 -0.000002
v 0.011645 0.009073 -0.000002
v 0.011645 0.009073 -0.000002
v 0.011645 0.009066 -0.000000
v 0.011645 0.009042 0.000029
v 0.011645 0.009059 0.000004
v 0.011645 0.009048 0.000015
v 0.011645 0.009053 0.000009
v 0.011645 0.009044 0.000022
v 0.011645 0.009073 0.000396
v 0.011630 0.009073 0.000396
v 0.011645 0.009066 0.000394
v 0.011645 0.009073 0.000396
v 0.011630 0.009059 0.000390
v 0.011645 0.009059 0.000390
v 0.011630 0.009066 0.000394
v 0.011630 0.009053 0.000385
v 0.011645 0.009053 0.000385
v 0.011630 0.009048 0.000379
v 0.011645 0.009048 0.000379
v 0.011630 0.009044 0.000372
v 0.011645 0.009044 0.000372
v 0.011645 0.009042 0.000365
v 0.011630 0.009042 0.000365
v 0.011645 0.009042 0.000365
v 0.011645 0.009042 0.000365
v 0.011645 0.009044 0.000372
v 0.011645 0.009044 0.000372
v 0.011645 0.009048 0.000379
v 0.011645 0.009048 0.000379
v 0.011645 0.009053 0.000385
v 0.011645 0.009066 0.000394
v 0.011645 0.009059 0.000390
v 0.011645 0.009066 0.000394
v 0.011645 0.009053 0.000385
v 0.011645 0.009059 0.000390
v 0.011605 0.009401 0.000377
v 0.011605 0.009081 0.000377
v 0.011607 0.009401 0.000382
v 0.011607 0.009081 0.000382
v 0.011609 0.009401 0.000386
v 0.011609 0.009081 0.000386
v 0.011612 0.009401 0.000390
v 0.011612 0.009081 0.000390
v 0.011616 0.009401 0.000393
v 0.011616 0.009081 0.000393
v 0.011625 0.009081 0.000397
v 0.011625 0.009401 0.000397
v 0.011620 0.009081 0.000395
v 0.011620 0.009401 0.000395
v 0.011627 0.009430 0.000385
v 0.011627 0.009427 0.000388
v 0.011616 0.009407 0.000393
v 0.011618 0.009408 0.000394
v 0.011617 0.009414 0.000391
v 0.011615 0.009412 0.000391
v 0.011615 0.009418 0.000389
v 0.011614 0.009406 0.000391
v 0.011624 0.009438 0.000370
v 0.011622 0.009438 0.000370
v 0.011624 0.009436 0.000375
v 0.011626 0.009440 0.000366
v 0.011622 0.009440 0.000362
v 0.011606 0.009424 0.000363
v 0.011607 0.009426 0.000366
v 0.011607 0.009426 0.000357
v 0.011605 0.009420 0.000364
v 0.011606 0.009420 0.000372
v 0.011620 0.009439 0.000364
v 0.011618 0.009438 0.000361
v 0.011618 0.009436 0.000370
v 0.011620 0.009439 0.000357
v 0.011613 0.009433 0.000368
v 0.011612 0.009431 0.000368
v 0.011612 0.009429 0.000374
v 0.011614 0.009435 0.000363
v 0.011611 0.009433 0.000362
v 0.011610 0.009431 0.000361
v 0.011609 0.009429 0.000367
v 0.011612 0.009434 0.000357
v 0.011627 0.009411 0.000396
v 0.011626 0.009408 0.000396
v 0.011623 0.009423 0.000389
v 0.011622 0.009422 0.000390
v 0.011624 0.009419 0.000392
v 0.011624 0.009428 0.000386
v 0.011621 0.009427 0.000385
v 0.011627 0.009441 0.000360
v 0.011625 0.009441 0.000357
v 0.011627 0.009436 0.000377
v 0.011626 0.009433 0.000380
v 0.011627 0.009438 0.000371
v 0.011627 0.009417 0.000394
v 0.011624 0.009413 0.000395
v 0.011611 0.009404 0.000388
v 0.011614 0.009415 0.000388
v 0.011616 0.009424 0.000385
v 0.011614 0.009422 0.000384
v 0.011615 0.009436 0.000363
v 0.011615 0.009435 0.000369
v 0.011616 0.009437 0.000357
v 0.011626 0.009422 0.000391
v 0.011606 0.009414 0.000376
v 0.011605 0.009410 0.000374
v 0.011606 0.009409 0.000380
v 0.011605 0.009417 0.000368
v 0.011617 0.009434 0.000373
v 0.011618 0.009431 0.000379
v 0.011620 0.009436 0.000374
v 0.011614 0.009432 0.000373
v 0.011609 0.009430 0.000357
v 0.011623 0.009408 0.000396
v 0.011621 0.009409 0.000395
v 0.011616 0.009428 0.000381
v 0.011609 0.009419 0.000380
v 0.011610 0.009417 0.000383
v 0.011611 0.009423 0.000381
v 0.011608 0.009415 0.000381
v 0.011619 0.009427 0.000384
v 0.011619 0.009420 0.000390
v 0.011622 0.009432 0.000381
v 0.011605 0.009421 0.000357
v 0.011608 0.009409 0.000383
v 0.011609 0.009425 0.000374
v 0.011620 0.009414 0.000393
v 0.011613 0.009428 0.000377
v 0.011611 0.009411 0.000387
v 0.011627 0.009054 0.000386
v 0.011627 0.009051 0.000383
v 0.011616 0.009046 0.000363
v 0.011618 0.009045 0.000364
v 0.011617 0.009047 0.000371
v 0.011616 0.009045 0.000357
v 0.011615 0.009048 0.000368
v 0.011615 0.009050 0.000374
v 0.011614 0.009047 0.000362
v 0.011624 0.009068 0.000394
v 0.011622 0.009068 0.000394
v 0.011624 0.009064 0.000392
v 0.011626 0.009072 0.000396
v 0.011622 0.009077 0.000396
v 0.011606 0.009076 0.000380
v 0.011607 0.009072 0.000382
v 0.011605 0.009074 0.000376
v 0.011606 0.009066 0.000376
v 0.011620 0.009074 0.000395
v 0.011618 0.009077 0.000394
v 0.011618 0.009068 0.000392
v 0.011613 0.009070 0.000389
v 0.011612 0.009070 0.000387
v 0.011612 0.009064 0.000385
v 0.011614 0.009076 0.000391
v 0.011611 0.009076 0.000389
v 0.011610 0.009078 0.000387
v 0.011609 0.009071 0.000385
v 0.011627 0.009043 0.000367
v 0.011626 0.009042 0.000364
v 0.011623 0.009049 0.000379
v 0.011622 0.009049 0.000378
v 0.011624 0.009046 0.000375
v 0.011624 0.009053 0.000384
v 0.011621 0.009053 0.000383
v 0.011627 0.009078 0.000397
v 0.011627 0.009061 0.000392
v 0.011626 0.009058 0.000389
v 0.011627 0.009067 0.000394
v 0.011627 0.009045 0.000373
v 0.011624 0.009044 0.000369
v 0.011611 0.009050 0.000360
v 0.011612 0.009048 0.000357
v 0.011609 0.009052 0.000357
v 0.011614 0.009050 0.000371
v 0.011616 0.009053 0.000380
v 0.011614 0.009054 0.000378
v 0.011615 0.009075 0.000392
v 0.011615 0.009070 0.000391
v 0.011626 0.009047 0.000378
v 0.011606 0.009062 0.000370
v 0.011605 0.009064 0.000366
v 0.011606 0.009059 0.000365
v 0.011605 0.009070 0.000374
v 0.011617 0.009066 0.000390
v 0.011618 0.009059 0.000387
v 0.011620 0.009065 0.000392
v 0.011614 0.009065 0.000388
v 0.011623 0.009043 0.000364
v 0.011621 0.009043 0.000365
v 0.011620 0.009043 0.000357
v 0.011616 0.009057 0.000384
v 0.011609 0.009058 0.000375
v 0.011610 0.009055 0.000373
v 0.011611 0.009058 0.000379
v 0.011608 0.009057 0.000371
v 0.011619 0.009054 0.000383
v 0.011619 0.009049 0.000376
v 0.011622 0.009057 0.000388
v 0.011625 0.009042 0.000357
v 0.011608 0.009055 0.000365
v 0.011607 0.009057 0.000357
v 0.011609 0.009065 0.000381
v 0.011620 0.009045 0.000370
v 0.011605 0.009061 0.000357
v 0.011613 0.009061 0.000384
v 0.011611 0.009051 0.000367
v 0.011605 0.009421 0.000037
v 0.011607 0.009426 0.000037
v 0.011609 0.009430 0.000037
v 0.011612 0.009434 0.000037
v 0.011625 0.009441 0.000037
v 0.011620 0.009439 0.000037
v 0.011616 0.009437 0.000037
v 0.011625 0.009042 0.000037
v 0.011620 0.009043 0.000037
v 0.011616 0.009045 0.000037
v 0.011612 0.009048 0.000037
v 0.011609 0.009052 0.000037
v 0.011605 0.009061 0.000037
v 0.011607 0.009057 0.000037
v 0.011627 0.009429 0.000008
v 0.011627 0.009432 0.000012
v 0.011616 0.009437 0.000031
v 0.011618 0.009438 0.000031
v 0.011617 0.009435 0.000024
v 0.011615 0.009435 0.000026
v 0.011615 0.009433 0.000020
v 0.011614 0.009435 0.000032
v 0.011624 0.009414 -0.000000
v 0.011622 0.009414 0.000001
v 0.011624 0.009419 0.000002
v 0.011626 0.009410 -0.000002
v 0.011622 0.009406 -0.000001
v 0.011606 0.009407 0.000014
v 0.011607 0.009410 0.000012
v 0.011607 0.009401 0.000013
v 0.011605 0.009408 0.000019
v 0.011606 0.009416 0.000018
v 0.011620 0.009408 -0.000000
v 0.011618 0.009405 -0.000000
v 0.011618 0.009414 0.000002
v 0.011620 0.009401 -0.000001
v 0.011613 0.009412 0.000005
v 0.011612 0.009412 0.000007
v 0.011612 0.009418 0.000010
v 0.011614 0.009407 0.000003
v 0.011611 0.009406 0.000006
v 0.011610 0.009405 0.000007
v 0.011609 0.009411 0.000009
v 0.011612 0.009401 0.000004
v 0.011627 0.009440 0.000027
v 0.011626 0.009440 0.000031
v 0.011623 0.009433 0.000015
v 0.011622 0.009434 0.000016
v 0.011624 0.009436 0.000019
v 0.011624 0.009430 0.000010
v 0.011621 0.009429 0.000011
v 0.011627 0.009404 -0.000003
v 0.011625 0.009401 -0.000002
v 0.011627 0.009421 0.000003
v 0.011626 0.009424 0.000005
v 0.011627 0.009415 -0.000000
v 0.011627 0.009438 0.000021
v 0.011624 0.009439 0.000025
v 0.011611 0.009432 0.000034
v 0.011614 0.009432 0.000023
v 0.011616 0.009429 0.000015
v 0.011614 0.009428 0.000016
v 0.011615 0.009407 0.000002
v 0.011615 0.009413 0.000004
v 0.011616 0.009401 0.000001
v 0.011626 0.009435 0.000016
v 0.011606 0.009420 0.000025
v 0.011605 0.009418 0.000028
v 0.011606 0.009424 0.000029
v 0.011605 0.009412 0.000021
v 0.011617 0.009417 0.000004
v 0.011618 0.009423 0.000007
v 0.011620 0.009418 0.000003
v 0.011614 0.009417 0.000006
v 0.011609 0.009401 0.000008
v 0.011623 0.009440 0.000030
v 0.011621 0.009439 0.000029
v 0.011616 0.009425 0.000011
v 0.011609 0.009424 0.000019
v 0.011610 0.009427 0.000022
v 0.011611 0.009425 0.000015
v 0.011608 0.009425 0.000023
v 0.011619 0.009428 0.000011
v 0.011619 0.009434 0.000018
v 0.011622 0.009425 0.000007
v 0.011605 0.009401 0.000017
v 0.011608 0.009427 0.000030
v 0.011609 0.009418 0.000013
v 0.011620 0.009437 0.000025
v 0.011613 0.009421 0.000010
v 0.011611 0.009431 0.000027
v 0.011627 0.009052 0.000010
v 0.011627 0.009056 0.000007
v 0.011616 0.009075 0.000002
v 0.011618 0.009075 0.000001
v 0.011617 0.009068 0.000003
v 0.011616 0.009081 0.000001
v 0.011615 0.009070 0.000004
v 0.011615 0.009064 0.000006
v 0.011614 0.009076 0.000003
v 0.011624 0.009044 0.000024
v 0.011622 0.009045 0.000024
v 0.011624 0.009046 0.000020
v 0.011626 0.009042 0.000028
v 0.011622 0.009043 0.000033
v 0.011606 0.009058 0.000032
v 0.011607 0.009056 0.000028
v 0.011605 0.009063 0.000030
v 0.011606 0.009062 0.000022
v 0.011620 0.009044 0.000030
v 0.011618 0.009044 0.000033
v 0.011618 0.009046 0.000024
v 0.011613 0.009049 0.000026
v 0.011612 0.009051 0.000026
v 0.011612 0.009054 0.000020
v 0.011614 0.009047 0.000032
v 0.011611 0.009050 0.000032
v 0.011610 0.009051 0.000034
v 0.011609 0.009053 0.000027
v 0.011627 0.009071 -0.000001
v 0.011626 0.009075 -0.000002
v 0.011623 0.009059 0.000005
v 0.011622 0.009060 0.000005
v 0.011624 0.009063 0.000002
v 0.011624 0.009054 0.000009
v 0.011621 0.009055 0.000009
v 0.011627 0.009041 0.000034
v 0.011627 0.009047 0.000017
v 0.011626 0.009049 0.000014
v 0.011627 0.009044 0.000023
v 0.011627 0.009065 0.000001
v 0.011624 0.009069 -0.000000
v 0.011611 0.009078 0.000006
v 0.011612 0.009081 0.000004
v 0.011609 0.009081 0.000008
v 0.011614 0.009067 0.000006
v 0.011616 0.009059 0.000009
v 0.011614 0.009060 0.000010
v 0.011615 0.009046 0.000031
v 0.011615 0.009048 0.000026
v 0.011626 0.009060 0.000003
v 0.011606 0.009069 0.000018
v 0.011605 0.009072 0.000020
v 0.011606 0.009073 0.000015
v 0.011605 0.009065 0.000026
v 0.011617 0.009048 0.000022
v 0.011618 0.009051 0.000015
v 0.011620 0.009047 0.000021
v 0.011614 0.009050 0.000021
v 0.011623 0.009074 -0.000001
v 0.011621 0.009073 -0.000001
v 0.011620 0.009081 -0.000001
v 0.011616 0.009055 0.000013
v 0.011609 0.009063 0.000014
v 0.011610 0.009066 0.000011
v 0.011611 0.009059 0.000014
v 0.011608 0.009067 0.000013
v 0.011619 0.009055 0.000010
v 0.011619 0.009062 0.000005
v 0.011622 0.009051 0.000013
v 0.011625 0.009081 -0.000002
v 0.011608 0.009074 0.000011
v 0.011607 0.009081 0.000013
v 0.011609 0.009057 0.000021
v 0.011620 0.009069 0.000001
v 0.011605 0.009081 0.000017
v 0.011613 0.009054 0.000017
v 0.011611 0.009071 0.000007
vn -0.0000 -0.0000 1.0000
vn -0.0000 1.0000 -0.0000
vn -0.0000 -0.0000 -1.0000
vn -0.0000 -1.0000 -0.0000
vn -1.0000 -0.0000 -0.0000
vn -1.0000 0.0001 -0.0000
vn -1.0000 -0.0001 -0.0000
vn -1.0000 -0.0002 -0.0000
vn -1.0000 0.0002 -0.0000
vn 1.0000 -0.0000 -0.0000
vn 1.0000 -0.0002 -0.0000
vn 1.0000 0.0002 -0.0000
vn 1.0000 -0.0001 -0.0000
vn -0.0000 0.9808 0.1951
vn -0.0000 0.9239 0.3826
vn -0.0000 0.9239 0.3827
vn -0.0000 0.8315 0.5555
vn -0.0000 0.8315 0.5556
vn -0.0000 0.7071 0.7071
vn 0.0001 0.7071 0.7071
vn -0.0000 0.5557 0.8314
vn -0.0000 0.5556 0.8315
vn -0.0000 0.3827 0.9239
vn -0.0000 0.1951 0.9808
vn -0.0000 0.1950 0.9808
vn -0.0000 0.3826 0.9239
vn -0.0000 0.5555 0.8315
vn -0.0000 0.5556 0.8314
vn -0.0000 0.8314 0.5557
vn -0.0000 0.9808 0.1950
vn -0.0000 0.1950 -0.9808
vn -0.0000 0.1951 -0.9808
vn -0.0000 0.3826 -0.9239
vn -0.0000 0.5555 -0.8315
vn -0.0000 0.3827 -0.9239
vn -0.0000 0.5556 -0.8315
vn -0.0000 0.7071 -0.7071
vn -0.0000 0.8314 -0.5557
vn -0.0000 0.8315 -0.5555
vn -0.0000 0.9239 -0.3827
vn -0.0000 0.9808 -0.1950
vn -0.0000 0.9808 -0.1951
vn -0.0000 0.9239 -0.3826
vn -0.0000 0.8315 -0.5556
vn -0.0000 0.5556 -0.8314
vn -0.0000 0.5557 -0.8314
vn -0.0000 -0.9808 -0.1951
vn -0.0000 -0.9239 -0.3826
vn -0.0000 -0.9239 -0.3827
vn -0.0000 -0.8315 -0.5555
vn -0.0000 -0.8315 -0.5556
vn -0.0000 -0.7071 -0.7071
vn -0.0000 -0.5557 -0.8314
vn -0.0000 -0.3827 -0.9239
vn -0.0000 -0.5555 -0.8315
vn -0.0000 -0.5556 -0.8315
vn -0.0000 -0.1951 -0.9808
vn -0.0000 -0.1950 -0.9808
vn -0.0000 -0.3826 -0.9239
vn -0.0000 -0.9808 -0.1950
vn -0.0000 -0.8314 -0.5557
vn -0.0000 -0.1950 0.9808
vn -0.0000 -0.1951 0.9808
vn -0.0000 -0.3826 0.9239
vn -0.0000 -0.5556 0.8315
vn -0.0000 -0.5555 0.8315
vn -0.0000 -0.3827 0.9239
vn -0.0000 -0.7071 0.7071
vn -0.0000 -0.8315 0.5556
vn -0.0000 -0.8314 0.5556
vn -0.0000 -0.9239 0.3827
vn -0.0000 -0.9808 0.1951
vn -0.0000 -0.9808 0.1950
vn -0.0000 -0.9239 0.3826
vn -0.0000 -0.8315 0.5555
vn -0.0000 -0.8314 0.5557
vn -0.0000 -0.5557 0.8314
vn -0.9808 -0.0000 0.1951
vn -0.9239 -0.0000 0.3827
vn -0.8315 -0.0000 0.5556
vn -0.7071 -0.0000 0.7071
vn -0.5556 -0.0000 0.8315
vn -0.1951 -0.0000 0.9808
vn -0.1952 -0.0000 0.9808
vn -0.3827 -0.0000 0.9239
vn -0.0873 0.7221 0.6863
vn -0.1191 0.6381 0.7607
vn -0.5389 0.1367 0.8312
vn -0.4617 0.1540 0.8735
vn -0.5153 0.3138 0.7975
vn -0.5957 0.2485 0.7638
vn -0.5664 0.3898 0.7261
vn -0.6341 0.1096 0.7654
vn -0.2249 0.9185 0.3252
vn -0.3237 0.8929 0.3128
vn -0.2125 0.8739 0.4371
vn -0.1364 0.9668 0.2162
vn -0.3015 0.9475 0.1069
vn -0.9386 0.3360 0.0785
vn -0.8914 0.4277 0.1498
vn -0.9239 0.3827 -0.0000
vn -0.9812 0.1810 0.0664
vn -0.9266 0.2966 0.2311
vn -0.3657 0.9142 0.1744
vn -0.4682 0.8777 0.1026
vn -0.4617 0.8335 0.3034
vn -0.3827 0.9239 -0.0000
vn -0.6585 0.7120 0.2438
vn -0.7232 0.6483 0.2381
vn -0.7220 0.5908 0.3601
vn -0.6293 0.7673 0.1234
vn -0.7392 0.6653 0.1047
vn -0.7845 0.6160 0.0720
vn -0.8065 0.5556 0.2022
vn -0.7071 0.7071 -0.0000
vn -0.0862 0.2561 0.9628
vn -0.1377 0.1649 0.9767
vn -0.2553 0.5501 0.7951
vn -0.3237 0.5180 0.7918
vn -0.2286 0.4483 0.8642
vn -0.2125 0.6717 0.7097
vn -0.3566 0.6354 0.6849
vn -0.1108 0.9912 0.0728
vn -0.1951 0.9808 -0.0000
vn -0.0865 0.8629 0.4978
vn -0.1423 0.8045 0.5767
vn -0.1167 0.9299 0.3488
vn -0.1204 0.4015 0.9079
vn -0.2164 0.2936 0.9311
vn -0.7636 0.0681 0.6421
vn -0.6335 0.3202 0.7044
vn -0.5473 0.5241 0.6525
vn -0.6403 0.4783 0.6010
vn -0.5862 0.7995 0.1313
vn -0.5723 0.7761 0.2649
vn -0.5556 0.8315 -0.0000
vn -0.1436 0.5180 0.8432
vn -0.9530 0.1671 0.2528
vn -0.9848 0.0835 0.1523
vn -0.9346 0.1192 0.3351
vn -0.9814 0.1585 0.1083
vn -0.5068 0.7809 0.3651
vn -0.4841 0.7051 0.5182
vn -0.3654 0.8385 0.4043
vn -0.6190 0.6973 0.3615
vn -0.8315 0.5556 -0.0000
vn -0.2463 0.1668 0.9547
vn -0.3260 0.2001 0.9239
vn -0.5515 0.6177 0.5606
vn -0.8281 0.3493 0.4385
vn -0.7836 0.3153 0.5354
vn -0.7274 0.4709 0.4991
vn -0.8660 0.2500 0.4330
vn -0.4365 0.6169 0.6549
vn -0.4423 0.4484 0.7767
vn -0.3076 0.7507 0.5847
vn -0.9808 0.1951 -0.0000
vn -0.8813 0.1344 0.4530
vn -0.8301 0.4575 0.3187
vn -0.3760 0.3042 0.8753
vn -0.6616 0.6008 0.4486
vn -0.7443 0.2080 0.6346
vn -0.0873 -0.6863 0.7221
vn -0.1191 -0.7607 0.6381
vn -0.5389 -0.8312 0.1367
vn -0.4617 -0.8735 0.1540
vn -0.5153 -0.7975 0.3138
vn -0.5556 -0.8315 -0.0000
vn -0.5957 -0.7638 0.2485
vn -0.5664 -0.7261 0.3898
vn -0.6341 -0.7654 0.1096
vn -0.2249 -0.3252 0.9185
vn -0.3237 -0.3128 0.8930
vn -0.2125 -0.4371 0.8739
vn -0.1364 -0.2162 0.9668
vn -0.3015 -0.1069 0.9475
vn -0.9386 -0.0785 0.3360
vn -0.8914 -0.1498 0.4277
vn -0.9812 -0.0664 0.1810
vn -0.9266 -0.2311 0.2966
vn -0.3657 -0.1744 0.9142
vn -0.4682 -0.1026 0.8777
vn -0.4617 -0.3034 0.8335
vn -0.6585 -0.2438 0.7120
vn -0.7232 -0.2381 0.6483
vn -0.7220 -0.3601 0.5908
vn -0.6293 -0.1234 0.7673
vn -0.7392 -0.1047 0.6653
vn -0.7844 -0.0720 0.6160
vn -0.8064 -0.2022 0.5557
vn -0.0862 -0.9628 0.2561
vn -0.1377 -0.9766 0.1649
vn -0.2553 -0.7951 0.5501
vn -0.3237 -0.7918 0.5180
vn -0.2286 -0.8642 0.4483
vn -0.2125 -0.7097 0.6717
vn -0.3566 -0.6849 0.6354
vn -0.1108 -0.0728 0.9912
vn -0.0865 -0.4978 0.8629
vn -0.1423 -0.5767 0.8045
vn -0.1167 -0.3488 0.9299
vn -0.1204 -0.9079 0.4015
vn -0.2164 -0.9311 0.2936
vn -0.7636 -0.6421 0.0681
vn -0.7071 -0.7071 -0.0000
vn -0.8315 -0.5556 -0.0000
vn -0.6335 -0.7044 0.3202
vn -0.5473 -0.6526 0.5241
vn -0.6403 -0.6010 0.4783
vn -0.5862 -0.1313 0.7995
vn -0.5723 -0.2649 0.7761
vn -0.1436 -0.8433 0.5179
vn -0.9530 -0.2528 0.1671
vn -0.9848 -0.1523 0.0835
vn -0.9346 -0.3351 0.1192
vn -0.9814 -0.1083 0.1585
vn -0.5069 -0.3651 0.7809
vn -0.4841 -0.5182 0.7051
vn -0.3654 -0.4043 0.8385
vn -0.6190 -0.3615 0.6973
vn -0.2467 -0.9548 0.1660
vn -0.3260 -0.9239 0.2001
vn -0.3827 -0.9239 -0.0000
vn -0.5515 -0.5606 0.6177
vn -0.8281 -0.4385 0.3493
vn -0.7835 -0.5354 0.3153
vn -0.7274 -0.4991 0.4709
vn -0.8660 -0.4330 0.2500
vn -0.4365 -0.6549 0.6169
vn -0.4423 -0.7767 0.4484
vn -0.3076 -0.5847 0.7507
vn -0.1951 -0.9808 -0.0000
vn -0.8814 -0.4529 0.1344
vn -0.9239 -0.3827 -0.0000
vn -0.8301 -0.3187 0.4575
vn -0.3760 -0.8753 0.3042
vn -0.9808 -0.1951 -0.0000
vn -0.6616 -0.4486 0.6008
vn -0.7443 -0.6346 0.2080
vn -0.1952 0.9808 -0.0000
vn -0.0873 0.6863 -0.7221
vn -0.1190 0.7607 -0.6381
vn -0.5388 0.8313 -0.1367
vn -0.4617 0.8736 -0.1540
vn -0.5153 0.7975 -0.3138
vn -0.5957 0.7638 -0.2485
vn -0.5664 0.7261 -0.3898
vn -0.6341 0.7654 -0.1096
vn -0.2249 0.3252 -0.9185
vn -0.3237 0.3128 -0.8929
vn -0.2125 0.4371 -0.8739
vn -0.1364 0.2162 -0.9668
vn -0.3015 0.1069 -0.9475
vn -0.9386 0.0785 -0.3360
vn -0.8914 0.1498 -0.4277
vn -0.9239 -0.0000 -0.3827
vn -0.9812 0.0664 -0.1810
vn -0.9266 0.2310 -0.2966
vn -0.3657 0.1744 -0.9142
vn -0.4682 0.1026 -0.8777
vn -0.4617 0.3034 -0.8335
vn -0.3827 -0.0000 -0.9239
vn -0.6585 0.2438 -0.7120
vn -0.7232 0.2381 -0.6483
vn -0.7220 0.3601 -0.5908
vn -0.6293 0.1234 -0.7673
vn -0.7392 0.1047 -0.6653
vn -0.7844 0.0720 -0.6160
vn -0.8064 0.2022 -0.5557
vn -0.7071 -0.0000 -0.7071
vn -0.0862 0.9628 -0.2561
vn -0.1377 0.9767 -0.1649
vn -0.2553 0.7951 -0.5501
vn -0.3237 0.7918 -0.5180
vn -0.2286 0.8642 -0.4483
vn -0.2125 0.7097 -0.6717
vn -0.3567 0.6848 -0.6354
vn -0.1108 0.0728 -0.9912
vn -0.1951 -0.0000 -0.9808
vn -0.0865 0.4978 -0.8630
vn -0.1423 0.5767 -0.8045
vn -0.1167 0.3488 -0.9299
vn -0.1204 0.9079 -0.4015
vn -0.2164 0.9311 -0.2936
vn -0.7636 0.6421 -0.0681
vn -0.6335 0.7044 -0.3202
vn -0.5473 0.6526 -0.5241
vn -0.6403 0.6010 -0.4783
vn -0.5862 0.1313 -0.7995
vn -0.5723 0.2649 -0.7761
vn -0.5556 -0.0000 -0.8315
vn -0.1436 0.8433 -0.5179
vn -0.9530 0.2528 -0.1671
vn -0.9848 0.1523 -0.0835
vn -0.9346 0.3351 -0.1192
vn -0.9814 0.1083 -0.1585
vn -0.5069 0.3651 -0.7809
vn -0.4841 0.5182 -0.7051
vn -0.3654 0.4043 -0.8385
vn -0.6190 0.3615 -0.6973
vn -0.8315 -0.0000 -0.5556
vn -0.2463 0.9547 -0.1668
vn -0.3261 0.9239 -0.2001
vn -0.5515 0.5606 -0.6177
vn -0.8281 0.4385 -0.3494
vn -0.7835 0.5354 -0.3153
vn -0.7274 0.4991 -0.4709
vn -0.8660 0.4331 -0.2500
vn -0.4365 0.6549 -0.6169
vn -0.4423 0.7767 -0.4484
vn -0.3076 0.5847 -0.7507
vn -0.9808 -0.0000 -0.1951
vn -0.8814 0.4529 -0.1344
vn -0.8301 0.3187 -0.4575
vn -0.3760 0.8753 -0.3042
vn -0.6616 0.4486 -0.6008
vn -0.7443 0.6346 -0.2080
vn -0.0873 -0.7221 -0.6863
vn -0.1191 -0.6381 -0.7607
vn -0.5389 -0.1367 -0.8312
vn -0.4618 -0.1540 -0.8735
vn -0.5153 -0.3138 -0.7975
vn -0.5957 -0.2485 -0.7638
vn -0.5664 -0.3898 -0.7261
vn -0.6341 -0.1096 -0.7654
vn -0.2249 -0.9185 -0.3252
vn -0.3237 -0.8929 -0.3128
vn -0.2125 -0.8739 -0.4371
vn -0.1364 -0.9668 -0.2162
vn -0.3015 -0.9475 -0.1069
vn -0.9386 -0.3360 -0.0785
vn -0.8914 -0.4277 -0.1498
vn -0.9812 -0.1810 -0.0664
vn -0.9266 -0.2966 -0.2311
vn -0.3657 -0.9142 -0.1744
vn -0.4682 -0.8777 -0.1026
vn -0.4617 -0.8335 -0.3034
vn -0.6585 -0.7120 -0.2438
vn -0.7232 -0.6483 -0.2381
vn -0.7220 -0.5908 -0.3601
vn -0.6293 -0.7673 -0.1234
vn -0.7392 -0.6653 -0.1047
vn -0.7844 -0.6160 -0.0720
vn -0.8065 -0.5556 -0.2022
vn -0.0862 -0.2561 -0.9628
vn -0.1377 -0.1649 -0.9766
vn -0.2554 -0.5501 -0.7951
vn -0.3237 -0.5180 -0.7918
vn -0.2286 -0.4483 -0.8642
vn -0.2125 -0.6717 -0.7097
vn -0.3566 -0.6354 -0.6849
vn -0.1108 -0.9912 -0.0728
vn -0.0865 -0.8629 -0.4978
vn -0.1423 -0.8045 -0.5767
vn -0.1167 -0.9299 -0.3488
vn -0.1204 -0.4015 -0.9079
vn -0.2164 -0.2936 -0.9311
vn -0.7636 -0.0681 -0.6421
vn -0.6334 -0.3202 -0.7044
vn -0.5472 -0.5241 -0.6526
vn -0.6403 -0.4783 -0.6010
vn -0.5862 -0.7995 -0.1313
vn -0.5723 -0.7761 -0.2649
vn -0.1436 -0.5180 -0.8433
vn -0.9530 -0.1671 -0.2528
vn -0.9848 -0.0835 -0.1523
vn -0.9346 -0.1192 -0.3351
vn -0.9814 -0.1585 -0.1083
vn -0.5068 -0.7809 -0.3651
vn -0.4841 -0.7051 -0.5182
vn -0.3654 -0.8385 -0.4043
vn -0.6190 -0.6973 -0.3615
vn -0.2463 -0.1668 -0.9547
vn -0.3260 -0.2001 -0.9239
vn -0.5515 -0.6177 -0.5606
vn -0.8281 -0.3493 -0.4385
vn -0.7835 -0.3153 -0.5354
vn -0.7274 -0.4709 -0.4991
vn -0.8660 -0.2500 -0.4330
vn -0.4365 -0.6169 -0.6549
vn -0.4423 -0.4484 -0.7767
vn -0.3076 -0.7507 -0.5847
vn -0.8813 -0.1344 -0.4530
vn -0.8301 -0.4575 -0.3187
vn -0.3760 -0.3042 -0.8753
vn -0.6616 -0.6008 -0.4486
vn -0.7443 -0.2080 -0.6346
vt 0.150000 -1.600000
vt 0.150000 1.600000
vt 0.000000 -1.600000
vt 0.000000 1.600000
vt 1.600000 0.150000
vt -1.600000 0.150000
vt 1.600000 0.000000
vt -1.600000 0.000000
vt -0.150000 1.600000
vt -0.150000 -1.600000
vt -1.750000 -1.600000
vt -1.600000 -1.750000
vt 1.600000 -1.750000
vt -1.629264 -1.747118
vt -1.657402 -1.738582
vt -1.683336 -1.724720
vt -1.706066 -1.706066
vt -1.738582 -1.657402
vt -1.724720 -1.683336
vt -1.747118 -1.629264
vt -1.750000 1.600000
vt -1.600000 1.750000
vt -1.747118 1.629264
vt -1.724720 1.683336
vt -1.738582 1.657402
vt -1.706066 1.706066
vt -1.657402 1.738582
vt -1.683336 1.724720
vt -1.629264 1.747118
vt 1.600000 1.750000
vt 1.750000 1.600000
vt 1.657402 1.738582
vt 1.629264 1.747118
vt 1.683336 1.724720
vt 1.706066 1.706066
vt 1.738582 1.657402
vt 1.724720 1.683336
vt 1.747118 1.629264
vt 1.750000 -1.600000
vt 1.738582 -1.657402
vt 1.747118 -1.629264
vt 1.724720 -1.683336
vt 1.706066 -1.706066
vt 1.657402 -1.738582
vt 1.683336 -1.724720
vt 1.629264 -1.747118
vt 1.600000 2.000000
vt 2.000000 -1.600000
vt 2.000000 1.600000
vt 1.992314 1.678036
vt 1.969552 1.753073
vt 1.932588 1.822228
vt 1.882843 1.882843
vt 1.753073 1.969552
vt 1.822228 1.932588
vt 1.678036 1.992314
vt -1.600000 2.000000
vt -2.000000 1.600000
vt -1.678036 1.992314
vt -1.753073 1.969552
vt -1.822228 1.932588
vt -1.882843 1.882843
vt -1.969552 1.753073
vt -1.932588 1.822228
vt -1.992314 1.678036
vt -2.000000 -1.600000
vt -1.600000 -2.000000
vt -1.992314 -1.678036
vt -1.969552 -1.753073
vt -1.932588 -1.822228
vt -1.882843 -1.882843
vt -1.753073 -1.969552
vt -1.822228 -1.932588
vt -1.678036 -1.992314
vt 1.600000 -2.000000
vt 1.678036 -1.992314
vt 1.753073 -1.969552
vt 1.822228 -1.932588
vt 1.882843 -1.882843
vt 1.969552 -1.753073
vt 1.932588 -1.822228
vt 1.992314 -1.678036
vt -1.678036 0.000000
vt -1.678036 0.150000
vt -1.753073 0.000000
vt -1.753073 0.150000
vt -1.822228 0.000000
vt -1.822228 0.150000
vt -1.882843 0.000000
vt -1.882843 0.150000
vt 0.000000 -1.822228
vt 0.150000 -1.882843
vt 0.150000 -1.822228
vt 0.000000 -1.753073
vt 0.150000 -1.753073
vt 0.000000 -1.678036
vt 0.150000 -1.678036
vt 0.000000 -1.882843
vt -0.150000 -1.678036
vt -0.150000 -1.753073
vt -0.150000 -1.822228
vt -0.150000 -1.882843
vt 1.882843 0.150000
vt 1.822228 0.000000
vt 1.882843 0.000000
vt 1.822228 0.150000
vt 1.753073 0.000000
vt 1.678036 0.000000
vt 1.678036 0.150000
vt 1.753073 0.150000
vt -0.000000 1.822228
vt -0.000000 1.882843
vt -0.150000 1.882843
vt -0.000000 1.753073
vt -0.150000 1.822228
vt -0.150000 1.753073
vt -0.150000 1.678036
vt -0.000000 1.678036
vt 0.150000 1.678036
vt 0.150000 1.822228
vt 0.150000 1.753073
vt 0.150000 1.882843
vt -1.798773 -1.600000
vt -1.798773 1.600000
vt -1.845671 -1.600000
vt -1.845671 1.600000
vt -1.888893 -1.600000
vt -1.888893 1.600000
vt -1.926777 -1.600000
vt 0.326777 1.600000
vt 0.288893 -1.600000
vt 0.326777 -1.600000
vt 0.288893 1.600000
vt 0.198773 1.600000
vt 0.198773 -1.600000
vt 0.245671 1.600000
vt 0.245671 -1.600000
vt -1.926777 1.600000
vt -1.874917 0.171819
vt 0.171819 -1.889237
vt 0.179781 -1.855943
vt 0.284703 -1.658533
vt 0.265437 -1.664554
vt 0.278829 -1.733389
vt 0.298911 -1.708551
vt 0.291605 -1.768409
vt 0.308520 -1.648659
vt -1.731358 0.206233
vt -1.727791 0.230934
vt -1.776388 0.203123
vt -1.686802 0.184100
vt -1.643528 0.225369
vt -1.653743 -1.830070
vt -1.687042 -1.848477
vt -1.600000 -1.845671
vt -1.668232 -1.786062
vt -1.749935 -1.792484
vt -1.671724 0.241425
vt -1.643060 0.267047
vt -1.727147 0.265437
vt -1.600000 0.245671
vt -1.709545 -1.919907
vt -1.711224 -1.902875
vt -1.768071 -1.875799
vt -1.709545 0.314628
vt -1.654665 0.307320
vt -1.649496 0.334799
vt -1.649496 -1.914502
vt -1.635415 -1.902996
vt -1.701863 -1.879866
vt -1.600000 -1.926777
vt 0.171550 -1.702583
vt 0.184433 -1.666196
vt 0.213823 -1.822880
vt 0.230934 -1.811622
vt 0.207152 -1.781141
vt 0.203123 -1.871042
vt 0.239164 -1.860875
vt -1.629201 0.177708
vt -1.600000 0.198773
vt -1.799418 0.171618
vt -1.831553 0.185567
vt -1.739880 0.179179
vt 0.180115 -1.761020
vt 0.204110 -1.718500
vt 0.340904 -1.632819
vt -1.909684 -1.632819
vt 0.308364 -1.742121
vt 0.286814 -1.824933
vt 0.310077 -1.813005
vt -1.657142 0.296545
vt -1.714686 0.293081
vt -1.600000 0.288893
vt 0.185900 -1.807992
vt -1.886359 0.203123
vt -1.788314 -1.724511
vt -1.769570 -1.693029
vt -1.825093 -1.680078
vt -1.711715 -1.763450
vt -1.754778 0.276713
vt -1.818371 0.271014
vt -1.766210 0.241362
vt -1.759432 0.304742
vt -1.600000 -1.888893
vt 0.211577 -1.667498
vt 0.231507 -1.681790
vt -1.913680 -1.768409
vt -1.867606 -1.813005
vt -1.912659 -1.742121
vt -1.880106 -1.824933
vt -1.840941 -1.865513
vt -1.826941 -1.780804
vt -1.863092 -1.754935
vt -1.833895 -1.820668
vt -1.838157 -1.737500
vt 0.259120 -1.857071
vt 0.260572 -1.787109
vt -1.881178 0.239164
vt -1.838356 0.226908
vt -1.872921 0.259120
vt -1.600000 0.326777
vt -1.600000 -1.798773
vt -1.857038 -1.676274
vt -1.765416 -1.837461
vt -1.933595 -1.708551
vt -1.939851 -1.648659
vt 0.243989 -1.725305
vt -1.801903 -1.870391
vt -1.759432 -1.907478
vt -1.801903 0.315409
vt -1.840941 0.287883
vt 0.287883 -1.865513
vt -1.901185 -1.698723
vt 0.336083 -1.698723
vt 0.171819 1.874917
vt 1.889237 0.171819
vt 1.855943 0.179781
vt 1.658533 0.284703
vt 1.664554 0.265437
vt 1.733389 0.278829
vt 1.600000 0.288893
vt 1.708551 0.298911
vt 1.768409 0.291605
vt 1.648659 0.308520
vt 0.206233 1.731358
vt 0.230934 1.727791
vt 0.203123 1.776388
vt 0.184100 1.686802
vt 0.225369 1.643528
vt -1.830070 1.653743
vt -1.848477 1.687042
vt -1.786062 1.668232
vt -1.792484 1.749935
vt 0.241425 1.671724
vt 0.267047 1.643060
vt 0.265437 1.727147
vt -1.919907 1.709545
vt -1.902875 1.711224
vt -1.875799 1.768071
vt 0.314628 1.709545
vt 0.307320 1.654665
vt 0.334799 1.649496
vt -1.914502 1.649496
vt -1.902996 1.635415
vt -1.879866 1.701863
vt 1.702583 0.171550
vt 1.666196 0.184433
vt 1.822880 0.213823
vt 1.811622 0.230934
vt 1.781141 0.207152
vt 1.871042 0.203123
vt 1.860875 0.239164
vt 0.177708 1.629201
vt 0.171618 1.799418
vt 0.185567 1.831553
vt 0.179179 1.739880
vt 1.761020 0.180115
vt 1.718500 0.204110
vt 1.632819 0.340904
vt 1.600000 0.326777
vt -1.632819 1.909684
vt -1.600000 1.888893
vt -1.600000 1.926777
vt 1.742121 0.308364
vt 1.824933 0.286814
vt 1.813005 0.310077
vt 0.296545 1.657142
vt 0.293081 1.714686
vt 1.807992 0.185900
vt 0.203123 1.886359
vt -1.724511 1.788314
vt -1.693029 1.769570
vt -1.680078 1.825093
vt -1.763450 1.711715
vt 0.276713 1.754778
vt 0.271014 1.818371
vt 0.241362 1.766210
vt 0.304742 1.759432
vt 1.667498 0.211577
vt 1.681790 0.231507
vt 1.600000 0.245671
vt -1.768409 1.913680
vt -1.813005 1.867606
vt -1.742121 1.912659
vt -1.824933 1.880106
vt -1.865513 1.840941
vt -1.780804 1.826941
vt -1.754935 1.863092
vt -1.820668 1.833895
vt -1.737500 1.838157
vt 1.857071 0.259120
vt 1.787109 0.260572
vt 0.239164 1.881178
vt 0.226908 1.838356
vt 0.259120 1.872921
vt 1.600000 0.198773
vt -1.676274 1.857038
vt -1.600000 1.845671
vt -1.837461 1.765416
vt -1.708551 1.933595
vt -1.648659 1.939851
vt 1.725305 0.243989
vt -1.600000 1.798773
vt -1.870391 1.801903
vt -1.907478 1.759432
vt 0.315409 1.801903
vt 0.287883 1.840941
vt 1.865513 0.287883
vt -1.698723 1.901185
vt 1.698723 0.336083
vt 1.600000 -1.798773
vt 1.600000 -1.845671
vt 1.600000 -1.888893
vt 1.600000 -1.926777
vt 1.600000 1.888893
vt 1.600000 1.926777
vt 1.600000 1.798773
vt 1.600000 1.845671
vt -0.171819 -1.874917
vt -0.206233 -1.731358
vt -0.230934 -1.727791
vt -0.203123 -1.776388
vt -0.184100 -1.686802
vt -0.225369 -1.643528
vt 1.830070 -1.653743
vt 1.848477 -1.687042
vt 1.845671 -1.600000
vt 1.786062 -1.668232
vt 1.792484 -1.749935
vt -0.241425 -1.671724
vt -0.267047 -1.643060
vt -0.265437 -1.727147
vt -0.245671 -1.600000
vt 1.919907 -1.709545
vt 1.902875 -1.711224
vt 1.875799 -1.768071
vt -0.314628 -1.709545
vt -0.307320 -1.654665
vt -0.334799 -1.649496
vt 1.914502 -1.649496
vt 1.902996 -1.635415
vt 1.879866 -1.701863
vt 1.926777 -1.600000
vt -0.177708 -1.629201
vt -0.198773 -1.600000
vt -0.171618 -1.799418
vt -0.185567 -1.831553
vt -0.179179 -1.739880
vt 1.632819 -1.909684
vt -0.296545 -1.657142
vt -0.293081 -1.714686
vt -0.288893 -1.600000
vt -0.203123 -1.886359
vt 1.724511 -1.788314
vt 1.693029 -1.769570
vt 1.680078 -1.825093
vt 1.763450 -1.711715
vt -0.276713 -1.754778
vt -0.271014 -1.818371
vt -0.241362 -1.766210
vt -0.304742 -1.759432
vt 1.888893 -1.600000
vt 1.768409 -1.913680
vt 1.813005 -1.867606
vt 1.742121 -1.912659
vt 1.824933 -1.880106
vt 1.865513 -1.840941
vt 1.780804 -1.826941
vt 1.754935 -1.863092
vt 1.820668 -1.833895
vt 1.737500 -1.838157
vt -0.239164 -1.881178
vt -0.226908 -1.838356
vt -0.259120 -1.872921
vt -0.326777 -1.600000
vt 1.798773 -1.600000
vt 1.676274 -1.857038
vt 1.837461 -1.765416
vt 1.708551 -1.933595
vt 1.648659 -1.939851
vt 1.870391 -1.801903
vt 1.907478 -1.759432
vt -0.315409 -1.801903
vt -0.287883 -1.840941
vt 1.698723 -1.901185
vt -0.171819 1.889237
vt -0.179781 1.855943
vt -0.284703 1.658533
vt -0.265437 1.664554
vt -0.278829 1.733389
vt -0.288893 1.600000
vt -0.298911 1.708551
vt -0.291605 1.768409
vt -0.308520 1.648659
vt 1.653743 1.830070
vt 1.687042 1.848477
vt 1.668232 1.786062
vt 1.749935 1.792484
vt 1.709545 1.919907
vt 1.711224 1.902875
vt 1.768071 1.875799
vt 1.649496 1.914502
vt 1.635415 1.902996
vt 1.701863 1.879866
vt -0.171550 1.702583
vt -0.184433 1.666196
vt -0.213823 1.822880
vt -0.230934 1.811622
vt -0.207152 1.781141
vt -0.203123 1.871042
vt -0.239164 1.860875
vt -0.180115 1.761020
vt -0.204110 1.718500
vt -0.340904 1.632819
vt -0.326777 1.600000
vt 1.909684 1.632819
vt 1.888893 1.600000
vt 1.926777 1.600000
vt -0.308364 1.742121
vt -0.286814 1.824933
vt -0.310077 1.813005
vt -0.185900 1.807992
vt 1.788314 1.724511
vt 1.769570 1.693029
vt 1.825093 1.680078
vt 1.711715 1.763450
vt -0.211577 1.667498
vt -0.231507 1.681790
vt -0.245671 1.600000
vt 1.913680 1.768409
vt 1.867606 1.813005
vt 1.912659 1.742121
vt 1.880106 1.824933
vt 1.840941 1.865513
vt 1.826941 1.780804
vt 1.863092 1.754935
vt 1.833895 1.820668
vt 1.838157 1.737500
vt -0.259120 1.857071
vt -0.260572 1.787109
vt -0.198773 1.600000
vt 1.857038 1.676274
vt 1.845671 1.600000
vt 1.765416 1.837461
vt 1.933595 1.708551
vt 1.939851 1.648659
vt -0.243989 1.725305
vt 1.798773 1.600000
vt 1.801903 1.870391
vt 1.759432 1.907478
vt -0.287883 1.865513
vt 1.901185 1.698723
vt -0.336083 1.698723
s 1
usemtl Diffuse_51_51_51_100.010
f 1/1/1 2/2/1 3/3/1
f 2/2/1 4/4/1 3/3/1
f 5/5/2 6/6/2 7/7/2
f 6/6/2 8/8/2 7/7/2
f 9/9/3 10/10/3 11/4/3
f 10/10/3 12/3/3 11/4/3
f 13/5/4 14/6/4 15/7/4
f 14/6/4 16/8/4 15/7/4
f 17/11/5 18/12/6 19/13/5
f 17/11/5 20/14/6 18/12/6
f 17/11/5 21/15/7 20/14/6
f 17/11/5 22/16/6 21/15/7
f 17/11/5 23/17/8 22/16/6
f 24/18/5 25/19/5 17/11/5
f 17/11/5 25/19/5 23/17/8
f 26/20/5 24/18/5 17/11/5
f 17/11/5 19/13/5 27/21/5
f 19/13/5 28/22/5 27/21/5
f 27/21/5 28/22/5 29/23/5
f 28/22/5 30/24/7 31/25/6
f 28/22/5 32/26/6 30/24/7
f 33/27/5 34/28/5 28/22/5
f 28/22/5 34/28/5 32/26/6
f 35/29/6 33/27/5 28/22/5
f 28/22/5 19/13/5 36/30/7
f 19/13/5 37/31/5 36/30/7
f 37/31/5 38/32/6 39/33/7
f 37/31/5 40/34/8 38/32/6
f 37/31/5 41/35/6 40/34/8
f 42/36/6 43/37/8 37/31/5
f 37/31/5 43/37/8 41/35/6
f 44/38/7 42/36/6 37/31/5
f 37/31/5 39/33/7 36/30/7
f 37/31/5 19/13/5 45/39/5
f 19/13/5 46/40/9 47/41/6
f 19/13/5 48/42/7 46/40/9
f 19/13/5 49/43/6 48/42/7
f 50/44/5 51/45/9 19/13/5
f 19/13/5 51/45/9 49/43/6
f 52/46/7 50/44/5 19/13/5
f 29/23/5 28/22/5 31/25/6
f 47/41/6 45/39/5 19/13/5
f 53/47/10 54/48/10 55/49/10
f 56/47/10 57/49/10 58/50/10
f 59/47/11 58/50/11 60/51/11
f 61/47/12 60/51/12 62/52/12
f 63/47/13 62/52/13 64/53/13
f 65/54/10 66/47/10 67/55/10
f 68/47/10 64/53/10 67/55/10
f 69/56/10 70/47/10 65/54/10
f 71/47/10 72/57/10 73/48/10
f 74/57/10 75/58/10 76/48/10
f 77/57/11 78/59/11 79/58/11
f 78/59/13 80/60/13 81/58/13
f 82/58/11 83/61/11 84/62/11
f 85/63/10 86/58/10 87/64/10
f 88/58/10 84/62/10 87/64/10
f 89/65/10 90/58/10 85/63/10
f 91/58/10 92/66/10 93/48/10
f 94/66/13 95/67/13 96/48/13
f 97/67/10 98/68/10 99/69/10
f 100/67/10 99/69/10 101/70/10
f 102/67/10 101/70/10 103/71/10
f 104/72/10 105/67/10 106/73/10
f 107/67/10 103/71/10 106/73/10
f 108/74/10 109/67/10 104/72/10
f 110/67/10 111/66/10 98/68/10
f 112/75/10 113/48/10 114/67/10
f 115/48/13 116/76/13 117/77/13
f 118/48/13 117/77/13 119/78/13
f 120/48/10 119/78/10 121/79/10
f 122/80/13 123/48/13 124/81/13
f 125/48/13 121/79/13 124/81/13
f 126/82/10 127/48/10 122/80/10
f 128/48/12 129/75/12 116/76/12
f 130/58/12 80/60/12 83/61/12
f 131/83/14 132/84/14 133/85/15
f 134/85/16 135/86/16 136/87/17
f 137/87/17 135/86/16 138/88/18
f 139/89/19 138/88/18 140/90/20
f 141/91/21 140/92/20 142/93/22
f 143/94/23 142/93/22 144/95/23
f 145/96/24 144/95/23 146/97/24
f 1/1/1 3/3/1 146/97/24
f 146/97/24 3/3/1 147/96/25
f 144/95/26 148/96/24 149/94/26
f 142/93/27 150/94/23 151/91/27
f 140/92/19 152/91/28 153/98/19
f 138/88/29 154/89/19 155/87/29
f 132/84/14 156/83/30 8/8/2
f 132/84/14 135/86/16 157/85/15
f 132/84/14 8/8/2 6/6/2
f 158/96/31 12/3/3 159/99/32
f 160/94/33 161/96/32 159/99/32
f 162/91/34 163/94/35 164/100/35
f 165/101/36 166/91/34 164/100/35
f 167/102/37 168/98/37 165/101/36
f 167/103/37 169/104/38 170/105/37
f 171/106/39 172/107/40 173/104/39
f 7/7/2 174/108/41 175/109/42
f 175/109/42 5/5/2 7/7/2
f 176/110/40 175/109/42 177/108/42
f 178/107/43 176/110/43 179/108/42
f 180/107/40 171/106/44 176/110/40
f 181/104/38 167/103/37 171/106/44
f 182/91/45 165/101/46 183/98/37
f 159/99/32 12/3/3 10/10/3
f 184/94/33 159/99/32 164/100/35
f 185/83/47 186/84/47 187/85/48
f 188/85/49 189/86/49 190/87/50
f 191/87/50 189/86/49 192/88/51
f 193/89/52 192/88/51 194/90/52
f 195/111/53 196/112/52 194/113/52
f 197/114/54 198/111/55 199/115/55
f 200/116/54 201/114/54 199/115/56
f 202/117/57 9/9/3 11/4/3
f 203/118/58 202/117/57 11/4/3
f 204/118/57 200/116/54 202/117/57
f 205/118/57 206/114/59 200/116/59
f 16/8/4 186/84/47 207/83/60
f 199/115/56 208/111/53 194/113/52
f 186/84/47 16/8/4 14/6/4
f 209/87/61 192/88/61 210/89/52
f 211/85/48 186/84/47 189/86/49
f 212/118/62 4/4/1 213/119/63
f 214/114/64 215/118/63 213/119/63
f 216/120/65 217/111/66 218/121/67
f 219/122/68 220/112/68 216/120/65
f 221/106/69 222/104/70 219/103/68
f 223/110/71 224/107/71 221/106/69
f 225/108/72 223/110/71 226/109/72
f 15/7/4 226/109/72 13/5/4
f 15/7/4 227/108/73 226/109/72
f 228/108/72 229/107/74 223/110/74
f 230/107/71 231/104/75 221/106/75
f 232/104/76 233/105/68 219/103/68
f 213/119/63 4/4/1 2/2/1
f 213/119/63 218/121/67 234/114/64
f 218/121/67 235/111/66 236/114/67
f 216/120/77 237/112/68 238/111/77
f 17/11/5 27/21/5 239/123/78
f 239/123/78 27/21/5 240/124/78
f 241/125/79 239/123/78 240/124/78
f 242/126/79 241/125/79 240/124/78
f 242/126/79 243/127/80 241/125/79
f 244/128/80 245/129/81 243/127/80
f 246/130/81 247/131/82 245/132/81
f 246/130/81 248/133/82 247/131/82
f 1/1/1 249/134/83 2/2/1
f 1/1/1 250/135/84 249/134/83
f 249/134/83 250/135/84 251/136/85
f 251/136/85 250/135/84 252/137/85
f 248/133/82 251/136/85 252/137/85
f 247/131/82 248/133/82 252/137/85
f 246/138/81 245/129/81 244/128/80
f 243/127/80 242/126/79 244/128/80
f 253/139/86 140/90/20 138/88/18
f 253/140/86 254/141/87 140/92/20
f 255/142/88 256/143/89 257/144/90
f 255/142/88 247/131/82 256/143/89
f 258/145/91 257/144/90 259/146/92
f 255/142/88 260/147/93 247/131/82
f 261/148/94 262/149/95 263/150/96
f 261/148/94 264/151/97 265/152/98
f 266/153/99 267/154/100 268/155/101
f 266/153/99 269/156/102 270/157/103
f 271/158/104 272/159/105 273/160/106
f 271/158/104 265/152/98 274/161/107
f 275/162/108 276/163/109 277/164/110
f 275/165/108 278/166/111 279/167/112
f 279/168/112 280/169/113 281/170/114
f 279/168/112 282/171/115 280/169/113
f 283/172/116 146/97/24 144/95/23
f 283/172/116 284/173/117 146/97/24
f 285/174/118 286/175/119 287/176/120
f 285/174/118 288/177/121 289/178/122
f 290/179/123 291/180/124 264/151/97
f 290/179/123 6/6/2 291/180/124
f 292/181/125 138/88/18 135/86/16
f 292/181/125 293/182/126 253/139/86
f 294/183/127 135/86/16 132/84/14
f 292/181/125 263/150/96 293/182/126
f 295/184/128 144/95/23 142/93/22
f 283/172/116 296/185/129 284/173/117
f 297/186/130 245/132/81 260/147/93
f 297/187/130 243/127/80 245/129/81
f 259/146/92 298/188/131 258/145/91
f 259/146/92 299/189/132 300/190/133
f 301/191/134 278/166/111 302/192/135
f 301/191/134 303/193/136 278/166/111
f 254/141/87 288/177/121 304/194/137
f 288/195/121 253/139/86 293/182/126
f 305/196/138 306/197/139 307/198/140
f 305/196/138 270/157/103 308/199/141
f 309/200/142 273/160/106 302/192/135
f 309/200/142 310/201/143 311/202/144
f 302/192/135 273/160/106 272/159/105
f 309/200/142 312/203/145 310/201/143
f 280/169/113 313/204/146 281/170/114
f 280/169/113 282/171/115 313/204/146
f 285/174/118 304/194/137 288/177/121
f 287/176/120 296/185/129 295/184/128
f 314/205/147 315/206/148 252/137/85
f 314/205/147 296/185/129 315/206/148
f 259/207/92 300/208/133 298/209/131
f 299/210/132 316/211/149 300/208/133
f 308/199/141 270/157/103 269/156/102
f 308/199/141 23/17/8 306/197/139
f 317/212/150 318/213/151 319/214/152
f 317/212/150 320/215/153 318/213/151
f 289/178/122 321/216/154 322/217/155
f 289/218/122 323/219/156 321/220/154
f 295/184/128 283/172/116 144/95/23
f 284/173/117 250/135/84 1/1/1
f 276/163/109 281/170/114 277/164/110
f 279/167/112 278/166/111 282/221/115
f 308/199/141 21/15/7 22/16/6
f 269/156/102 324/222/157 20/14/6
f 325/223/158 307/198/140 241/125/79
f 325/223/158 320/215/153 307/198/140
f 311/202/144 273/160/106 309/200/142
f 311/202/144 262/149/95 273/160/106
f 318/213/151 320/215/153 325/223/158
f 317/212/150 319/214/152 326/224/159
f 258/225/91 298/209/131 260/226/93
f 259/146/92 322/217/155 299/189/132
f 315/206/148 296/185/129 327/227/160
f 314/205/147 252/137/85 250/135/84
f 307/198/140 306/197/139 239/123/78
f 305/196/138 320/215/153 270/157/103
f 328/228/161 277/164/110 319/214/152
f 328/228/161 312/229/145 277/164/110
f 272/159/105 274/161/107 303/193/136
f 271/158/104 273/160/106 262/149/95
f 267/154/100 281/170/114 313/204/146
f 267/154/100 270/157/103 326/224/159
f 327/227/160 296/185/129 287/176/120
f 315/206/148 256/143/89 252/137/85
f 294/183/127 292/181/125 135/86/16
f 253/140/86 288/177/121 254/141/87
f 275/165/108 312/203/145 302/192/135
f 328/228/161 319/214/152 300/208/133
f 300/208/133 319/214/152 318/213/151
f 328/230/161 316/231/149 312/203/145
f 271/158/104 274/161/107 272/159/105
f 265/152/98 291/180/124 274/161/107
f 258/145/91 260/147/93 255/142/88
f 260/147/93 245/132/81 247/131/82
f 317/212/150 270/157/103 320/215/153
f 326/224/159 281/170/114 267/154/100
f 254/141/87 142/93/22 140/92/20
f 304/194/137 287/176/120 295/184/128
f 292/181/125 253/139/86 138/88/18
f 287/176/120 286/175/119 327/227/160
f 310/201/143 316/231/149 321/220/154
f 312/203/145 309/200/142 302/192/135
f 321/216/154 316/232/149 299/189/132
f 310/201/143 323/219/156 311/202/144
f 290/179/123 132/84/14 6/6/2
f 264/151/97 261/148/94 294/183/127
f 264/151/97 294/183/127 132/84/14
f 293/182/126 323/219/156 288/195/121
f 278/166/111 303/193/136 282/221/115
f 278/166/111 275/165/108 302/192/135
f 305/196/138 307/198/140 320/215/153
f 306/197/139 24/18/5 26/20/5
f 318/213/151 298/209/131 300/208/133
f 329/233/162 297/187/130 260/226/93
f 303/193/136 301/191/134 272/159/105
f 312/203/145 316/231/149 310/201/143
f 327/227/160 256/143/89 315/206/148
f 256/143/89 247/131/82 252/137/85
f 286/175/119 322/217/155 327/227/160
f 286/175/119 285/174/118 289/178/122
f 308/199/141 269/156/102 21/15/7
f 324/222/157 269/156/102 266/153/99
f 304/194/137 295/184/128 142/93/22
f 296/185/129 314/205/147 284/173/117
f 299/189/132 322/217/155 321/216/154
f 298/188/131 329/234/162 260/147/93
f 263/150/96 311/202/144 323/219/156
f 262/149/95 261/148/94 265/152/98
f 257/144/90 322/217/155 259/146/92
f 326/224/159 277/164/110 281/170/114
f 294/183/127 263/150/96 292/181/125
f 287/176/120 304/194/137 285/174/118
f 329/233/162 318/213/151 325/223/158
f 319/214/152 277/164/110 326/224/159
f 267/154/100 313/204/146 268/155/101
f 281/170/114 276/163/109 279/168/112
f 301/191/134 302/192/135 272/159/105
f 323/219/156 310/201/143 321/220/154
f 329/233/162 325/223/158 297/187/130
f 297/187/130 325/223/158 243/127/80
f 284/173/117 314/205/147 250/135/84
f 327/227/160 257/144/90 256/143/89
f 26/20/5 239/123/78 306/197/139
f 307/198/140 239/123/78 241/125/79
f 243/127/80 325/223/158 241/125/79
f 306/197/139 25/19/5 24/18/5
f 306/197/139 305/196/138 308/199/141
f 25/19/5 306/197/139 23/17/8
f 20/14/6 324/222/157 18/12/6
f 26/20/5 17/11/5 239/123/78
f 266/153/99 270/157/103 267/154/100
f 21/15/7 269/156/102 20/14/6
f 308/199/141 22/16/6 23/17/8
f 326/224/159 270/157/103 317/212/150
f 316/211/149 328/228/161 300/208/133
f 286/175/119 289/178/122 322/217/155
f 312/229/145 275/162/108 277/164/110
f 279/168/112 276/163/109 275/162/108
f 290/179/123 264/151/97 132/84/14
f 294/183/127 261/148/94 263/150/96
f 291/180/124 265/152/98 264/151/97
f 289/218/122 288/195/121 323/219/156
f 254/141/87 304/194/137 142/93/22
f 146/97/24 284/173/117 1/1/1
f 295/184/128 296/185/129 283/172/116
f 327/227/160 322/217/155 257/144/90
f 271/158/104 262/149/95 265/152/98
f 323/219/156 293/182/126 263/150/96
f 263/150/96 262/149/95 311/202/144
f 257/144/90 258/145/91 255/142/88
f 268/155/101 324/222/157 266/153/99
f 318/213/151 329/233/162 298/209/131
f 330/235/163 219/122/68 216/120/65
f 330/236/163 331/237/164 219/103/68
f 332/238/165 333/239/166 334/240/167
f 332/238/165 335/241/168 333/239/166
f 336/242/169 334/240/167 337/243/170
f 332/238/165 338/244/171 335/241/168
f 339/245/172 340/246/173 341/247/174
f 339/245/172 342/248/175 343/249/176
f 344/250/177 345/251/178 242/126/79
f 344/250/177 346/252/179 347/253/180
f 348/254/181 349/255/182 350/256/183
f 348/254/181 343/249/176 251/136/85
f 351/257/184 352/258/185 353/259/186
f 351/260/184 354/261/187 355/262/188
f 355/263/188 356/264/189 357/265/190
f 355/263/188 246/138/81 356/264/189
f 358/266/191 226/109/72 223/110/71
f 358/266/191 359/267/192 226/109/72
f 360/268/193 361/269/194 362/270/195
f 360/268/193 363/271/196 364/272/197
f 365/273/198 249/134/83 342/248/175
f 365/273/198 2/2/1 249/134/83
f 366/274/199 216/120/65 218/121/67
f 366/274/199 367/275/200 330/235/163
f 368/276/201 218/121/67 213/119/63
f 366/274/199 341/247/174 367/275/200
f 369/277/202 223/110/71 221/106/69
f 358/266/191 370/278/203 359/267/192
f 371/279/204 372/280/205 338/244/171
f 371/281/204 373/282/206 372/283/205
f 337/243/170 374/284/207 336/242/169
f 337/243/170 375/285/208 376/286/209
f 377/287/210 354/261/187 378/288/211
f 377/287/210 248/133/82 354/261/187
f 331/237/164 363/271/196 379/289/212
f 363/290/196 330/235/163 367/275/200
f 380/291/213 381/292/214 382/293/215
f 380/291/213 347/253/180 383/294/216
f 384/295/217 350/256/183 378/288/211
f 384/295/217 385/296/218 386/297/219
f 378/288/211 350/256/183 349/255/182
f 384/295/217 387/298/220 385/296/218
f 356/264/189 244/128/80 357/265/190
f 356/264/189 246/138/81 244/128/80
f 360/268/193 379/289/212 363/271/196
f 362/270/195 370/278/203 369/277/202
f 388/299/221 389/300/222 390/301/223
f 388/299/221 370/278/203 389/300/222
f 337/302/170 376/303/209 374/304/207
f 375/305/208 391/306/224 376/303/209
f 383/294/216 347/253/180 346/252/179
f 383/294/216 32/26/6 381/292/214
f 392/307/225 393/308/226 394/309/227
f 392/307/225 395/310/228 393/308/226
f 364/272/197 396/311/229 397/312/230
f 364/313/197 398/314/231 396/315/229
f 369/277/202 358/266/191 223/110/71
f 359/267/192 399/316/232 13/5/4
f 352/258/185 357/265/190 353/259/186
f 355/262/188 354/261/187 246/130/81
f 383/294/216 31/25/6 30/24/7
f 346/252/179 240/124/78 29/23/5
f 400/317/233 382/293/215 401/318/234
f 400/317/233 395/310/228 382/293/215
f 386/297/219 350/256/183 384/295/217
f 386/297/219 340/246/173 350/256/183
f 393/308/226 395/310/228 400/317/233
f 392/307/225 394/309/227 402/319/235
f 336/320/169 374/304/207 338/321/171
f 337/243/170 397/312/230 375/285/208
f 389/300/222 370/278/203 403/322/236
f 388/299/221 390/301/223 399/316/232
f 382/293/215 381/292/214 404/323/237
f 380/291/213 395/310/228 347/253/180
f 405/324/238 353/259/186 394/309/227
f 405/324/238 387/325/220 353/259/186
f 349/255/182 251/136/85 248/133/82
f 348/254/181 350/256/183 340/246/173
f 345/251/178 357/265/190 244/128/80
f 345/251/178 347/253/180 402/319/235
f 403/322/236 370/278/203 362/270/195
f 389/300/222 333/239/166 390/301/223
f 368/276/201 366/274/199 218/121/67
f 330/236/163 363/271/196 331/237/164
f 351/260/184 387/298/220 378/288/211
f 405/324/238 394/309/227 376/303/209
f 376/303/209 394/309/227 393/308/226
f 405/326/238 391/327/224 387/298/220
f 348/254/181 251/136/85 349/255/182
f 343/249/176 249/134/83 251/136/85
f 336/242/169 338/244/171 332/238/165
f 338/244/171 372/280/205 335/241/168
f 392/307/225 347/253/180 395/310/228
f 402/319/235 357/265/190 345/251/178
f 331/237/164 221/106/69 219/103/68
f 379/289/212 362/270/195 369/277/202
f 366/274/199 330/235/163 216/120/65
f 362/270/195 361/269/194 403/322/236
f 385/296/218 391/327/224 396/315/229
f 387/298/220 384/295/217 378/288/211
f 396/311/229 391/328/224 375/285/208
f 385/296/218 398/314/231 386/297/219
f 365/273/198 213/119/63 2/2/1
f 342/248/175 339/245/172 368/276/201
f 342/248/175 368/276/201 213/119/63
f 367/275/200 398/314/231 363/290/196
f 354/261/187 248/133/82 246/130/81
f 354/261/187 351/260/184 378/288/211
f 380/291/213 382/293/215 395/310/228
f 381/292/214 33/27/5 35/29/6
f 393/308/226 374/304/207 376/303/209
f 406/329/239 371/281/204 338/321/171
f 248/133/82 377/287/210 349/255/182
f 387/298/220 391/327/224 385/296/218
f 403/322/236 333/239/166 389/300/222
f 333/239/166 335/241/168 390/301/223
f 361/269/194 397/312/230 403/322/236
f 361/269/194 360/268/193 364/272/197
f 383/294/216 346/252/179 31/25/6
f 240/124/78 346/252/179 344/250/177
f 379/289/212 369/277/202 221/106/69
f 370/278/203 388/299/221 359/267/192
f 375/285/208 397/312/230 396/311/229
f 374/284/207 406/330/239 338/244/171
f 341/247/174 386/297/219 398/314/231
f 340/246/173 339/245/172 343/249/176
f 334/240/167 397/312/230 337/243/170
f 402/319/235 353/259/186 357/265/190
f 368/276/201 341/247/174 366/274/199
f 362/270/195 379/289/212 360/268/193
f 406/329/239 393/308/226 400/317/233
f 394/309/227 353/259/186 402/319/235
f 345/251/178 244/128/80 242/126/79
f 357/265/190 352/258/185 355/263/188
f 377/287/210 378/288/211 349/255/182
f 398/314/231 385/296/218 396/315/229
f 406/329/239 400/317/233 371/281/204
f 371/281/204 400/317/233 373/282/206
f 359/267/192 388/299/221 399/316/232
f 403/322/236 334/240/167 333/239/166
f 341/247/174 368/276/201 339/245/172
f 386/297/219 341/247/174 340/246/173
f 348/254/181 340/246/173 343/249/176
f 342/248/175 249/134/83 343/249/176
f 341/247/174 398/314/231 367/275/200
f 398/314/231 364/313/197 363/290/196
f 226/109/72 359/267/192 13/5/4
f 342/248/175 213/119/63 365/273/198
f 403/322/236 397/312/230 334/240/167
f 358/266/191 369/277/202 370/278/203
f 331/237/164 379/289/212 221/106/69
f 355/263/188 352/258/185 351/257/184
f 332/238/165 334/240/167 336/242/169
f 406/329/239 374/304/207 393/308/226
f 240/124/78 344/250/177 242/126/79
f 402/319/235 347/253/180 392/307/225
f 404/323/237 35/29/6 28/22/5
f 404/323/237 381/292/214 35/29/6
f 34/28/5 33/27/5 381/292/214
f 381/292/214 32/26/6 34/28/5
f 383/294/216 30/24/7 32/26/6
f 29/23/5 240/124/78 27/21/5
f 31/25/6 346/252/179 29/23/5
f 344/250/177 347/253/180 345/251/178
f 380/291/213 383/294/216 381/292/214
f 401/318/234 373/282/206 400/317/233
f 404/323/237 401/318/234 382/293/215
f 405/324/238 376/303/209 391/306/224
f 353/259/186 387/325/220 351/257/184
f 397/312/230 361/269/194 364/272/197
f 407/331/157 19/13/5 18/12/6
f 324/222/157 407/331/157 18/12/6
f 324/222/157 408/332/101 407/331/157
f 324/222/157 268/155/101 408/332/101
f 408/332/101 268/155/101 409/333/146
f 409/333/146 268/155/101 313/204/146
f 410/334/115 409/333/146 313/204/146
f 5/5/2 291/180/124 6/6/2
f 291/180/124 5/5/2 411/316/240
f 274/161/107 291/180/124 411/316/240
f 412/301/107 274/161/107 411/316/240
f 412/301/107 303/193/136 274/161/107
f 412/301/107 413/241/136 303/193/136
f 303/193/136 413/241/136 282/221/115
f 282/221/115 413/241/136 410/280/115
f 313/204/146 282/171/115 410/334/115
f 14/6/4 13/5/4 414/180/232
f 414/180/232 13/5/4 399/316/232
f 415/161/223 414/180/232 399/316/232
f 390/301/223 415/161/223 399/316/232
f 390/301/223 416/193/168 415/161/223
f 335/241/168 417/221/205 416/193/168
f 372/283/205 418/335/206 417/336/205
f 372/283/205 373/282/206 418/335/206
f 404/323/237 28/22/5 36/30/7
f 419/337/237 404/323/237 36/30/7
f 419/337/237 401/318/234 404/323/237
f 419/337/237 420/338/234 401/318/234
f 401/318/234 420/338/234 373/282/206
f 373/282/206 420/338/234 418/335/206
f 416/193/168 390/301/223 335/241/168
f 417/221/205 335/241/168 372/280/205
f 421/339/241 167/102/37 165/101/36
f 421/236/241 422/237/242 167/103/37
f 423/238/243 424/239/244 425/240/245
f 423/238/243 413/241/136 424/239/244
f 426/242/246 425/240/245 427/243/247
f 423/238/243 428/244/248 413/241/136
f 429/340/249 430/341/250 431/342/251
f 429/340/249 432/343/252 433/344/253
f 434/345/254 435/346/255 436/347/256
f 434/345/254 437/348/257 438/349/258
f 439/350/259 440/351/260 441/352/261
f 439/350/259 433/344/253 442/353/262
f 443/354/263 444/355/264 445/356/265
f 443/357/263 446/358/266 447/359/267
f 447/360/267 448/361/268 449/362/269
f 447/360/267 450/363/270 448/361/268
f 451/266/271 175/109/42 176/110/40
f 451/266/271 452/267/272 175/109/42
f 453/268/273 454/269/274 455/270/275
f 453/268/273 456/271/276 457/272/277
f 458/364/278 459/365/279 432/343/252
f 458/364/278 10/10/3 459/365/279
f 460/366/280 165/101/36 164/100/35
f 460/366/280 461/367/281 421/339/241
f 462/368/282 164/100/35 159/99/32
f 460/366/280 431/342/251 461/367/281
f 463/277/283 176/110/40 171/106/44
f 451/266/271 464/278/284 452/267/272
f 465/279/285 410/280/115 428/244/248
f 465/369/285 409/333/146 410/334/115
f 427/243/247 466/284/286 426/242/246
f 427/243/247 467/285/287 468/286/288
f 469/370/289 446/358/266 470/371/290
f 469/370/289 471/372/291 446/358/266
f 422/237/242 456/271/276 472/289/292
f 456/373/276 421/339/241 461/367/281
f 473/374/293 474/375/294 475/376/295
f 473/374/293 438/349/258 476/377/296
f 477/378/297 441/352/261 470/371/290
f 477/378/297 478/379/298 479/380/299
f 470/371/290 441/352/261 440/351/260
f 477/378/297 480/381/300 478/379/298
f 448/361/268 481/382/301 449/362/269
f 448/361/268 450/363/270 481/382/301
f 453/268/273 472/289/292 456/271/276
f 455/270/275 464/278/284 463/277/283
f 482/299/302 483/300/303 412/301/107
f 482/299/302 464/278/284 483/300/303
f 427/383/247 468/384/288 466/385/286
f 467/386/287 484/387/304 468/384/288
f 476/377/296 438/349/258 437/348/257
f 476/377/296 49/43/6 474/375/294
f 485/388/305 486/389/306 487/390/307
f 485/388/305 488/391/308 486/389/306
f 457/272/277 489/311/309 490/312/310
f 457/392/277 491/393/311 489/394/309
f 463/277/283 451/266/271 176/110/40
f 452/267/272 411/316/240 5/5/2
f 444/355/264 449/362/269 445/356/265
f 447/359/267 446/358/266 450/395/270
f 476/377/296 46/40/9 48/42/7
f 437/348/257 492/396/312 47/41/6
f 493/397/313 475/376/295 408/332/101
f 493/397/313 488/391/308 475/376/295
f 479/380/299 441/352/261 477/378/297
f 479/380/299 430/341/250 441/352/261
f 486/389/306 488/391/308 493/397/313
f 485/388/305 487/390/307 494/398/314
f 426/399/246 466/385/286 428/400/248
f 427/243/247 490/312/310 467/285/287
f 483/300/303 464/278/284 495/322/315
f 482/299/302 412/301/107 411/316/240
f 475/376/295 474/375/294 407/331/157
f 473/374/293 488/391/308 438/349/258
f 496/401/316 445/356/265 487/390/307
f 496/401/316 480/402/300 445/356/265
f 440/351/260 442/353/262 471/372/291
f 439/350/259 441/352/261 430/341/250
f 435/346/255 449/362/269 481/382/301
f 435/346/255 438/349/258 494/398/314
f 495/322/315 464/278/284 455/270/275
f 483/300/303 424/239/244 412/301/107
f 462/368/282 460/366/280 164/100/35
f 421/236/241 456/271/276 422/237/242
f 443/357/263 480/381/300 470/371/290
f 496/401/316 487/390/307 468/384/288
f 468/384/288 487/390/307 486/389/306
f 496/403/316 484/404/304 480/381/300
f 439/350/259 442/353/262 440/351/260
f 433/344/253 459/365/279 442/353/262
f 426/242/246 428/244/248 423/238/243
f 428/244/248 410/280/115 413/241/136
f 485/388/305 438/349/258 488/391/308
f 494/398/314 449/362/269 435/346/255
f 422/237/242 171/106/44 167/103/37
f 472/289/292 455/270/275 463/277/283
f 460/366/280 421/339/241 165/101/36
f 455/270/275 454/269/274 495/322/315
f 478/379/298 484/404/304 489/394/309
f 480/381/300 477/378/297 470/371/290
f 489/311/309 484/328/304 467/285/287
f 478/379/298 491/393/311 479/380/299
f 458/364/278 159/99/32 10/10/3
f 432/343/252 429/340/249 462/368/282
f 432/343/252 462/368/282 159/99/32
f 461/367/281 491/393/311 456/373/276
f 446/358/266 471/372/291 450/395/270
f 446/358/266 443/357/263 470/371/290
f 473/374/293 475/376/295 488/391/308
f 474/375/294 50/44/5 52/46/7
f 486/389/306 466/385/286 468/384/288
f 497/405/317 465/369/285 428/400/248
f 471/372/291 469/370/289 440/351/260
f 480/381/300 484/404/304 478/379/298
f 495/322/315 424/239/244 483/300/303
f 424/239/244 413/241/136 412/301/107
f 454/269/274 490/312/310 495/322/315
f 454/269/274 453/268/273 457/272/277
f 476/377/296 437/348/257 46/40/9
f 492/396/312 437/348/257 434/345/254
f 472/289/292 463/277/283 171/106/44
f 464/278/284 482/299/302 452/267/272
f 467/285/287 490/312/310 489/311/309
f 466/284/286 497/330/317 428/244/248
f 431/342/251 479/380/299 491/393/311
f 430/341/250 429/340/249 433/344/253
f 425/240/245 490/312/310 427/243/247
f 494/398/314 445/356/265 449/362/269
f 462/368/282 431/342/251 460/366/280
f 455/270/275 472/289/292 453/268/273
f 497/405/317 486/389/306 493/397/313
f 487/390/307 445/356/265 494/398/314
f 435/346/255 481/382/301 436/347/256
f 449/362/269 444/355/264 447/360/267
f 469/370/289 470/371/290 440/351/260
f 491/393/311 478/379/298 489/394/309
f 497/405/317 493/397/313 465/369/285
f 465/369/285 493/397/313 409/333/146
f 452/267/272 482/299/302 411/316/240
f 495/322/315 425/240/245 424/239/244
f 52/46/7 19/13/5 407/331/157
f 474/375/294 52/46/7 407/331/157
f 408/332/101 475/376/295 407/331/157
f 408/332/101 409/333/146 493/397/313
f 50/44/5 474/375/294 51/45/9
f 476/377/296 474/375/294 473/374/293
f 49/43/6 51/45/9 474/375/294
f 492/396/312 45/39/5 47/41/6
f 46/40/9 437/348/257 47/41/6
f 476/377/296 48/42/7 49/43/6
f 436/347/256 492/396/312 434/345/254
f 484/387/304 496/401/316 468/384/288
f 454/269/274 457/272/277 490/312/310
f 425/240/245 426/242/246 423/238/243
f 444/355/264 443/354/263 447/360/267
f 432/343/252 159/99/32 458/364/278
f 429/340/249 431/342/251 462/368/282
f 433/344/253 432/343/252 459/365/279
f 491/393/311 461/367/281 431/342/251
f 457/392/277 456/373/276 491/393/311
f 422/237/242 472/289/292 171/106/44
f 175/109/42 452/267/272 5/5/2
f 451/266/271 463/277/283 464/278/284
f 495/322/315 490/312/310 425/240/245
f 439/350/259 430/341/250 433/344/253
f 430/341/250 479/380/299 431/342/251
f 480/402/300 443/354/263 445/356/265
f 486/389/306 497/405/317 466/385/286
f 438/349/258 435/346/255 434/345/254
f 485/388/305 494/398/314 438/349/258
f 498/139/318 194/90/52 192/88/51
f 498/406/318 499/407/319 194/113/52
f 500/408/320 501/409/321 502/410/322
f 500/408/320 503/411/291 501/409/321
f 504/412/323 502/410/322 505/413/324
f 500/408/320 506/414/325 503/411/291
f 507/148/326 508/149/327 509/150/328
f 507/148/326 510/151/329 511/152/330
f 512/415/331 513/416/332 420/338/234
f 512/415/331 514/417/333 515/418/334
f 516/158/335 517/159/336 518/160/337
f 516/158/335 511/152/330 415/161/223
f 519/419/338 520/420/339 521/421/340
f 519/165/338 522/166/341 523/167/342
f 523/422/342 524/423/343 525/424/344
f 523/422/342 417/336/205 524/423/343
f 526/425/345 202/117/57 200/116/54
f 526/425/345 527/426/346 202/117/57
f 528/427/347 529/428/348 530/429/349
f 528/427/347 531/430/350 532/431/351
f 533/179/352 414/180/232 510/151/329
f 533/179/352 14/6/4 414/180/232
f 534/181/353 192/88/51 189/86/49
f 534/181/353 535/182/354 498/139/318
f 536/183/355 189/86/49 186/84/47
f 534/181/353 509/150/328 535/182/354
f 537/432/356 200/116/54 199/115/56
f 526/425/345 538/433/357 527/426/346
f 539/434/358 540/435/270 506/414/325
f 539/436/358 541/437/301 540/438/270
f 505/413/324 542/439/359 504/412/323
f 505/413/324 543/440/360 544/441/361
f 545/191/362 522/166/341 546/192/363
f 545/191/362 416/193/168 522/166/341
f 499/407/319 531/430/350 547/442/364
f 531/195/350 498/139/318 535/182/354
f 548/443/365 549/444/366 550/445/367
f 548/443/365 515/418/334 551/446/368
f 552/200/369 518/160/337 546/192/363
f 552/200/369 553/201/370 554/202/371
f 546/192/363 518/160/337 517/159/336
f 552/200/369 555/203/372 553/201/370
f 524/423/343 418/335/206 525/424/344
f 524/423/343 417/336/205 418/335/206
f 528/427/347 547/442/364 531/430/350
f 530/429/349 538/433/357 537/432/356
f 556/447/373 557/448/374 558/449/262
f 556/447/373 538/433/357 557/448/374
f 505/450/324 544/451/361 542/452/359
f 543/453/360 559/454/375 544/451/361
f 551/446/368 515/418/334 514/417/333
f 551/446/368 41/35/6 549/444/366
f 560/455/376 561/456/377 562/457/378
f 560/455/376 563/458/379 561/456/377
f 532/431/351 564/459/380 565/460/381
f 532/218/351 566/219/382 564/220/380
f 537/432/356 526/425/345 200/116/54
f 527/426/346 567/461/279 9/9/3
f 520/420/339 525/424/344 521/421/340
f 523/167/342 522/166/341 417/221/205
f 551/446/368 38/32/6 40/34/8
f 514/417/333 419/337/237 39/33/7
f 568/462/383 550/445/367 569/463/256
f 568/462/383 563/458/379 550/445/367
f 554/202/371 518/160/337 552/200/369
f 554/202/371 508/149/327 518/160/337
f 561/456/377 563/458/379 568/462/383
f 560/455/376 562/457/378 570/464/384
f 504/465/323 542/452/359 506/466/325
f 505/413/324 565/460/381 543/440/360
f 557/448/374 538/433/357 571/467/385
f 556/447/373 558/449/262 567/461/279
f 550/445/367 549/444/366 572/468/312
f 548/443/365 563/458/379 515/418/334
f 573/469/386 521/421/340 562/457/378
f 573/469/386 555/470/372 521/421/340
f 517/159/336 415/161/223 416/193/168
f 516/158/335 518/160/337 508/149/327
f 513/416/332 525/424/344 418/335/206
f 513/416/332 515/418/334 570/464/384
f 571/467/385 538/433/357 530/429/349
f 557/448/374 501/409/321 558/449/262
f 536/183/355 534/181/353 189/86/49
f 498/406/318 531/430/350 499/407/319
f 519/165/338 555/203/372 546/192/363
f 573/469/386 562/457/378 544/451/361
f 544/451/361 562/457/378 561/456/377
f 573/230/386 559/231/375 555/203/372
f 516/158/335 415/161/223 517/159/336
f 511/152/330 414/180/232 415/161/223
f 504/412/323 506/414/325 500/408/320
f 506/414/325 540/435/270 503/411/291
f 560/455/376 515/418/334 563/458/379
f 570/464/384 525/424/344 513/416/332
f 499/407/319 199/115/56 194/113/52
f 547/442/364 530/429/349 537/432/356
f 534/181/353 498/139/318 192/88/51
f 530/429/349 529/428/348 571/467/385
f 553/201/370 559/231/375 564/220/380
f 555/203/372 552/200/369 546/192/363
f 564/459/380 559/471/375 543/440/360
f 553/201/370 566/219/382 554/202/371
f 533/179/352 186/84/47 14/6/4
f 510/151/329 507/148/326 536/183/355
f 510/151/329 536/183/355 186/84/47
f 535/182/354 566/219/382 531/195/350
f 522/166/341 416/193/168 417/221/205
f 522/166/341 519/165/338 546/192/363
f 548/443/365 550/445/367 563/458/379
f 549/444/366 42/36/6 44/38/7
f 561/456/377 542/452/359 544/451/361
f 574/472/387 539/436/358 506/466/325
f 416/193/168 545/191/362 517/159/336
f 555/203/372 559/231/375 553/201/370
f 571/467/385 501/409/321 557/448/374
f 501/409/321 503/411/291 558/449/262
f 529/428/348 565/460/381 571/467/385
f 529/428/348 528/427/347 532/431/351
f 551/446/368 514/417/333 38/32/6
f 419/337/237 514/417/333 512/415/331
f 547/442/364 537/432/356 199/115/56
f 538/433/357 556/447/373 527/426/346
f 543/440/360 565/460/381 564/459/380
f 542/439/359 574/473/387 506/414/325
f 509/150/328 554/202/371 566/219/382
f 508/149/327 507/148/326 511/152/330
f 502/410/322 565/460/381 505/413/324
f 570/464/384 521/421/340 525/424/344
f 536/183/355 509/150/328 534/181/353
f 530/429/349 547/442/364 528/427/347
f 574/472/387 561/456/377 568/462/383
f 562/457/378 521/421/340 570/464/384
f 513/416/332 418/335/206 420/338/234
f 525/424/344 520/420/339 523/422/342
f 545/191/362 546/192/363 517/159/336
f 566/219/382 553/201/370 564/220/380
f 574/472/387 568/462/383 539/436/358
f 539/436/358 568/462/383 541/437/301
f 527/426/346 556/447/373 567/461/279
f 571/467/385 502/410/322 501/409/321
f 510/151/329 186/84/47 533/179/352
f 507/148/326 509/150/328 536/183/355
f 508/149/327 554/202/371 509/150/328
f 511/152/330 516/158/335 508/149/327
f 511/152/330 510/151/329 414/180/232
f 535/182/354 509/150/328 566/219/382
f 531/195/350 566/219/382 532/218/351
f 527/426/346 9/9/3 202/117/57
f 526/425/345 537/432/356 538/433/357
f 499/407/319 547/442/364 199/115/56
f 521/421/340 555/470/372 519/419/338
f 500/408/320 502/410/322 504/412/323
f 574/472/387 542/452/359 561/456/377
f 573/469/386 544/451/361 559/454/375
f 515/418/334 560/455/376 570/464/384
f 44/38/7 37/31/5 572/468/312
f 549/444/366 44/38/7 572/468/312
f 42/36/6 549/444/366 43/37/8
f 548/443/365 551/446/368 549/444/366
f 549/444/366 41/35/6 43/37/8
f 551/446/368 40/34/8 41/35/6
f 39/33/7 419/337/237 36/30/7
f 38/32/6 514/417/333 39/33/7
f 512/415/331 515/418/334 513/416/332
f 541/437/301 568/462/383 569/463/256
f 569/463/256 550/445/367 572/468/312
f 419/337/237 512/415/331 420/338/234
f 565/460/381 529/428/348 532/431/351
f 565/460/381 502/410/322 571/467/385
f 519/419/338 523/422/342 520/420/339
f 37/31/5 45/39/5 572/468/312
f 572/468/312 45/39/5 492/396/312
f 569/463/256 572/468/312 492/396/312
f 436/347/256 569/463/256 492/396/312
f 436/347/256 541/437/301 569/463/256
f 436/347/256 481/382/301 541/437/301
f 541/437/301 481/382/301 540/438/270
f 540/438/270 481/382/301 450/363/270
f 459/365/279 10/10/3 9/9/3
f 567/461/279 459/365/279 9/9/3
f 567/461/279 442/353/262 459/365/279
f 567/461/279 558/449/262 442/353/262
f 442/353/262 558/449/262 471/372/291
f 471/372/291 558/449/262 503/411/291
f 450/395/270 471/372/291 503/411/291
f 450/395/270 503/411/291 540/435/270
