# https://github.com/mikedh/trimesh
v 0.01576700 0.04375700 0.01921500
v -0.04524300 0.05219200 -0.00013200
v -0.04524300 0.05268800 -0.00013200
v -0.04871000 0.04524600 0.01722800
v 0.02321000 0.06260800 0.01772400
v 0.01775100 0.04375700 0.00284700
v -0.05367400 0.06260800 0.00135800
v 0.01081000 0.05913500 0.00433400
v -0.04970500 0.04375700 0.00185500
v -0.04772100 0.06062200 0.01325900
v -0.05118800 0.04375700 0.01524600
v 0.00039500 0.05367700 0.00135600
v 0.02420600 0.06260800 0.01425100
v 0.02122500 0.04375700 0.01673400
v -0.03878800 0.05268800 0.01722800
v -0.02440400 0.04375700 0.00036600
v 0.01427700 0.05566200 0.01921500
v -0.04821500 0.06260800 0.01127600
v 0.00535100 0.06260800 0.00731100
v 0.02073100 0.04822300 0.00483000
v -0.04226300 0.05814200 0.01574000
v -0.05467000 0.06260800 0.00433400
v 0.01676300 0.05615900 0.00433400
v -0.03383200 0.05814200 0.00036600
v -0.05218400 0.04375700 0.00681400
v -0.04970500 0.05318200 0.01574000
v 0.02172000 0.04375700 0.00929500
v -0.04127400 0.04425300 0.01772600
v -0.00010700 0.05913500 0.00284700
v -0.00507200 0.04524600 0.00086200
v -0.04722700 0.04475000 0.00036600
v 0.00237900 0.04772600 0.01921500
v 0.01676300 0.04574300 0.00235100
v -0.00457000 0.06161500 0.00433400
v -0.03878800 0.06161500 0.01375500
v 0.01924100 0.04971200 0.01921500
v 0.01427700 0.05367700 0.00284700
v 0.01527300 0.06062200 0.00681400
v -0.05467000 0.06111900 0.00234900
v -0.05218400 0.04375700 0.01177200
v -0.04921100 0.05814200 0.01425100
v -0.04474100 0.05020600 0.01722800
v -0.05169000 0.04375700 0.00383900
v 0.02420600 0.06161500 0.01623800
v 0.02122500 0.04375700 0.00631800
v 0.01973500 0.05070200 0.00433400
v -0.04672500 0.04375700 0.01722800
v -0.05169000 0.05268800 0.01325900
v -0.02738500 0.05516600 0.00036600
v 0.02172000 0.06260800 0.01772400
v 0.02022900 0.04673500 0.01871700
v -0.00109500 0.05665300 0.00185300
v 0.00386900 0.04475000 0.01921500
v -0.04573700 0.05863900 0.00036600
v -0.04871000 0.04723000 0.00036600
v -0.03878800 0.06260800 0.01276500
v -0.04127400 0.04524600 0.01772600
v 0.01229200 0.06260800 0.00879900
v -0.05218400 0.06260800 0.00135800
v -0.04474100 0.05566200 0.01623600
v 0.01874700 0.05516600 0.01921500
v -0.00010700 0.04375700 0.00135600
v 0.01676300 0.05119900 0.00284700
v -0.01845200 0.06260800 0.00433400
f 7 3 55
f 32 17 57
f 24 3 54
f 2 31 55
f 3 2 55
f 31 9 55
f 4 28 57
f 9 39 55
f 18 35 56
f 50 18 56
f 35 50 56
f 3 7 54
f 39 7 55
f 32 28 53
f 14 44 51
f 28 1 53
f 37 12 52
f 29 37 52
f 24 29 52
f 12 24 52
f 44 5 51
f 5 36 51
f 36 1 51
f 1 14 51
f 35 21 50
f 21 17 50
f 5 18 50
f 17 5 50
f 1 32 53
f 28 32 57
f 59 19 64
f 42 4 57
f 30 3 49
f 19 34 64
f 46 33 63
f 23 46 63
f 12 37 63
f 37 23 63
f 33 12 63
f 30 33 62
f 33 6 62
f 16 30 62
f 6 16 62
f 17 36 61
f 36 5 61
f 17 42 57
f 5 17 61
f 42 15 60
f 41 26 60
f 21 41 60
f 17 21 60
f 15 17 60
f 24 54 59
f 54 7 59
f 34 29 59
f 29 24 59
f 7 19 59
f 38 19 58
f 13 38 58
f 19 13 58
f 26 42 60
f 12 30 49
f 7 13 19
f 3 24 49
f 8 34 38
f 34 19 38
f 13 23 38
f 23 8 38
f 29 8 37
f 8 23 37
f 17 1 36
f 10 21 35
f 8 29 34
f 30 12 33
f 1 17 32
f 16 9 31
f 2 16 31
f 16 3 30
f 14 6 27
f 11 4 26
f 9 11 25
f 18 7 22
f 5 7 18
f 6 9 16
f 2 3 16
f 1 6 14
f 7 5 13
f 9 1 11
f 6 1 9
f 34 59 64
f 24 12 49
f 22 7 39
f 39 25 40
f 18 10 35
f 25 11 40
f 26 41 48
f 41 22 48
f 11 26 48
f 22 11 48
f 28 4 47
f 11 22 40
f 4 11 47
f 11 1 47
f 6 33 46
f 23 13 46
f 13 20 46
f 20 6 46
f 13 27 45
f 27 6 45
f 1 28 47
f 6 20 45
f 22 39 40
f 20 13 45
f 10 18 41
f 21 10 41
f 17 15 42
f 26 4 42
f 9 25 43
f 18 22 41
f 25 39 43
f 13 5 44
f 14 27 44
f 27 13 44
f 39 9 43