# https://github.com/mikedh/trimesh
v -0.01646700 0.06955200 0.00929200
v -0.02788200 0.06260900 0.00532500
v -0.02788200 0.06260900 0.01226800
v 0.00386700 0.06260900 0.01276600
v 0.00386700 0.06657600 0.00830200
v 0.00386700 0.06806400 0.01226800
v -0.02738500 0.06806400 0.00631800
v -0.00357600 0.06260900 0.00681400
v -0.02391000 0.06806400 0.01127600
v 0.00386700 0.06856000 0.00929200
v -0.02788200 0.06905600 0.00929200
v -0.00010500 0.06707200 0.01276600
v -0.01894700 0.06310500 0.00532500
v 0.00386700 0.06260900 0.00830200
v -0.00307900 0.06806400 0.00780600
v -0.01745800 0.06955200 0.00780600
v -0.02242200 0.06955200 0.01028400
v -0.01944400 0.06310500 0.01276600
v -0.00307900 0.06905600 0.01127600
v -0.01547600 0.06806400 0.00681400
v -0.02788200 0.06360100 0.01226800
v -0.00456800 0.06707200 0.00731000
v -0.02589600 0.06955200 0.00830200
f 16 1 19
f 10 16 19
f 1 17 19
f 17 6 19
f 13 7 20
f 7 16 20
f 16 15 20
f 11 3 21
f 9 11 21
f 8 13 22
f 3 18 21
f 18 12 21
f 5 8 22
f 15 5 22
f 13 20 22
f 20 15 22
f 7 11 23
f 6 10 19
f 12 9 21
f 4 12 18
f 4 6 12
f 1 16 17
f 16 7 23
f 17 16 23
f 3 2 4
f 4 5 6
f 4 2 8
f 6 5 10
f 2 3 11
f 7 2 11
f 3 4 18
f 6 9 12
f 8 2 13
f 5 4 14
f 8 5 14
f 4 8 14
f 10 5 15
f 10 15 16
f 9 6 17
f 11 9 17
f 2 7 13
f 11 17 23