# https://github.com/mikedh/trimesh
v -0.02986900 0.06856000 0.00978700
v -0.05466700 0.06459300 0.00135600
v -0.05516300 0.06409700 0.00185300
v -0.02788500 0.06260800 0.00532700
v -0.04772100 0.06260800 0.01078100
v -0.05069800 0.06955200 0.00433400
v -0.02788500 0.06260800 0.01276600
v -0.02788500 0.06806400 0.00631700
v -0.04524300 0.07004800 0.00780500
v -0.05119500 0.06260800 0.00135600
v -0.04921100 0.06707200 0.00185300
v -0.05268300 0.06756800 0.00631700
v -0.03284600 0.06310500 0.01276600
v -0.05516300 0.06260800 0.00383700
v -0.02788500 0.06905600 0.00780500
v -0.05466700 0.06756800 0.00234900
v -0.04970500 0.06905600 0.00334100
v -0.02986900 0.06310500 0.00483000
v -0.05516300 0.06608100 0.00433400
v -0.04474600 0.06955200 0.00830100
v -0.04276200 0.07004800 0.00631700
v -0.02788500 0.06905600 0.00929300
v -0.04772100 0.06310500 0.01078100
v -0.03235000 0.06806400 0.00532700
v -0.05268300 0.06856000 0.00532700
v -0.05119500 0.06558500 0.00135600
v -0.04871400 0.06260800 0.01028400
v -0.03780500 0.06310500 0.01226900
v -0.05466700 0.06657600 0.00135600
f 18 10 26
f 10 2 26
f 19 12 25
f 6 16 25
f 18 11 24
f 9 6 25
f 17 21 24
f 21 15 24
f 11 18 26
f 12 9 25
f 14 5 27
f 17 11 29
f 19 14 27
f 5 23 27
f 23 12 27
f 5 13 28
f 13 20 28
f 23 5 28
f 20 23 28
f 2 3 29
f 3 16 29
f 8 18 24
f 16 17 29
f 26 2 29
f 12 19 27
f 11 17 24
f 16 19 25
f 20 12 23
f 15 8 24
f 11 26 29
f 5 4 7
f 3 2 10
f 4 5 10
f 7 1 13
f 5 7 13
f 3 10 14
f 10 5 14
f 7 8 15
f 16 6 17
f 8 4 18
f 7 4 8
f 3 14 19
f 4 10 18
f 21 9 22
f 15 21 22
f 9 1 22
f 1 7 22
f 7 15 22
f 6 9 21
f 13 1 20
f 9 12 20
f 1 9 20
f 16 3 19
f 17 6 21