# https://github.com/mikedh/trimesh
v -0.05268600 0.01994800 0.01127700
v 0.02172600 0.04375700 0.01425300
v 0.02172600 0.04375700 0.00978900
v 0.02122300 0.01349600 0.00929500
v -0.04722300 0.04375700 0.00086200
v -0.04276500 0.04325900 0.01772600
v 0.01726100 0.01349600 0.01822200
v -0.00308300 0.01349600 0.00086000
v -0.04672800 0.01349600 0.01772600
v -0.04970700 0.01349600 0.00185500
v 0.01825100 0.04325900 0.00284600
v 0.01477700 0.04375700 0.01921500
v -0.05119200 0.04375700 0.01524400
v 0.01874700 0.01399400 0.00235000
v -0.00506400 0.04077700 0.00086000
v -0.05168800 0.04325900 0.00334200
v -0.04524200 0.01399400 0.01822200
v -0.02787700 0.02094300 0.00036600
v 0.01576700 0.01448900 0.00135900
v -0.05168800 0.01349600 0.01524400
v 0.00683800 0.02986200 0.01921500
v -0.04524200 0.03036000 0.01822200
v 0.02072800 0.02887000 0.01722900
v -0.05218300 0.01349600 0.00433500
v -0.04425100 0.01498600 0.00086200
v -0.03830000 0.04325900 0.00036400
v 0.02072800 0.04375700 0.00483100
v 0.00187700 0.04325900 0.01921500
v 0.00337000 0.01498600 0.01871700
v 0.02023200 0.04375700 0.01822200
v -0.05020200 0.02788600 0.01722900
v 0.02072800 0.01349600 0.00433500
v 0.01080700 0.04325900 0.00185500
v 0.02072800 0.01399400 0.01524400
v -0.05218300 0.04375700 0.01177100
v 0.00485600 0.01548100 0.00086000
v -0.02639100 0.04226400 0.00036600
v -0.04722300 0.04375700 0.01722900
v -0.01002400 0.04375700 0.00086000
v -0.05268600 0.01597900 0.00582200
v 0.01775600 0.04226400 0.01921300
v 0.02172600 0.03581900 0.00731100
v 0.02172600 0.03532100 0.01524400
v -0.05268600 0.01399400 0.01276400
v 0.01428200 0.01796300 0.01871700
v -0.04226300 0.04226400 0.00036400
v 0.01924200 0.01994800 0.00235000
v -0.04871600 0.01399400 0.01772600
v -0.05218300 0.04375700 0.00681500
v -0.04921100 0.04375700 0.00135900
v -0.05218300 0.03234700 0.01425100
v 0.00584700 0.04077700 0.00135900
v -0.05020200 0.04325900 0.01673300
v -0.03432300 0.01349600 0.00086200
v 0.02072800 0.04325900 0.00433500
v -0.03929100 0.03730600 0.01822200
v -0.04672800 0.02292800 0.01822200
v -0.05168800 0.02490900 0.01574000
v -0.05119200 0.01548100 0.00284600
v 0.01675800 0.04077700 0.00235000
v -0.04771800 0.04028000 0.00086200
v 0.01973700 0.01349600 0.01673300
v 0.02122300 0.01597900 0.01425300
v 0.02023200 0.02788600 0.01772600
f 11 27 55
f 32 47 55
f 3 42 55
f 42 32 55
f 47 11 55
f 6 22 56
f 31 48 57
f 22 28 56
f 17 28 57
f 28 22 57
f 48 17 57
f 27 3 55
f 28 6 56
f 25 18 54
f 49 5 50
f 18 8 54
f 8 10 54
f 22 38 53
f 38 13 53
f 39 33 52
f 15 39 52
f 19 36 52
f 36 15 52
f 33 19 52
f 35 44 51
f 13 35 51
f 16 49 50
f 22 53 57
f 10 25 54
f 53 31 57
f 7 62 64
f 44 20 58
f 16 40 49
f 30 41 64
f 41 7 64
f 23 30 64
f 4 43 63
f 43 23 63
f 23 34 63
f 34 4 63
f 34 23 62
f 4 34 62
f 7 4 62
f 10 50 61
f 50 5 61
f 20 31 58
f 46 25 61
f 25 10 61
f 11 47 60
f 47 19 60
f 19 33 60
f 33 11 60
f 16 50 59
f 50 10 59
f 10 24 59
f 24 16 59
f 53 13 58
f 31 53 58
f 51 44 58
f 13 51 58
f 5 46 61
f 40 1 49
f 26 5 39
f 35 5 49
f 22 6 38
f 12 13 38
f 15 36 37
f 36 18 37
f 18 26 37
f 19 8 36
f 8 18 36
f 13 5 35
f 27 11 33
f 8 14 32
f 4 8 32
f 2 12 30
f 17 7 29
f 6 28 38
f 17 21 28
f 5 3 27
f 10 20 24
f 10 9 20
f 14 8 19
f 9 7 17
f 12 5 13
f 2 5 12
f 8 9 10
f 8 7 9
f 4 7 8
f 2 3 5
f 62 23 64
f 1 35 49
f 21 12 28
f 28 12 38
f 21 17 29
f 5 27 39
f 20 9 48
f 9 17 48
f 32 14 47
f 14 19 47
f 5 26 46
f 26 18 46
f 18 25 46
f 41 21 45
f 7 41 45
f 21 29 45
f 29 7 45
f 40 24 44
f 1 40 44
f 35 1 44
f 31 20 48
f 16 24 40
f 4 42 43
f 42 2 43
f 30 23 43
f 2 30 43
f 4 32 42
f 3 2 42
f 30 12 41
f 12 21 41
f 24 20 44
f 15 37 39
f 37 26 39
f 27 33 39