# https://github.com/mikedh/trimesh
v 0.00766000 0.05411600 0.04550900
v -0.04194000 0.04488400 -0.00063400
v -0.04309600 0.01546900 -0.00005500
v -0.04367200 0.05296200 0.05069700
v 0.00535300 0.01547300 0.05012300
v 0.00708400 0.01777900 -0.00063400
v 0.00708400 0.05469000 0.00167800
v -0.04425300 0.01546900 0.05069700
v -0.04367200 0.05642500 0.00455900
v 0.00535300 0.05411200 0.05012300
v 0.00766000 0.01547300 0.02705100
v -0.01310400 0.05469000 -0.00063400
v -0.04425300 0.05411600 0.00167800
v 0.00708400 0.01547300 -0.00005000
v -0.04194000 0.05526700 0.03800800
v 0.00824000 0.04085000 0.04839500
v 0.00766000 0.05296200 0.00052400
v -0.04252100 0.02066500 0.05128200
v -0.03848200 0.05642500 0.01379300
v 0.00766000 0.01547300 0.04781600
v -0.04367200 0.01546900 0.00052400
v 0.00824000 0.05296200 0.01782800
v -0.01886900 0.05469400 0.05012300
v -0.04309600 0.05584400 -0.00005500
v 0.00766000 0.05469400 0.03108600
v 0.00766000 0.02066500 -0.00005000
v -0.04425300 0.05353900 0.03858700
v -0.04078900 0.01662400 -0.00063400
v -0.03501900 0.05642500 0.00110400
v -0.01771800 0.05353900 0.05070200
v 0.00824000 0.05296200 0.04896900
v -0.04252100 0.05411600 0.05069700
v 0.00592800 0.05353900 -0.00005000
v -0.04425300 0.01546900 0.03454700
v 0.00650900 0.01605100 0.05012300
v -0.00387600 0.05527100 0.00052400
v -0.04309600 0.03219900 0.05128200
v -0.04309600 0.05584400 0.02820500
v -0.03905800 0.05526700 -0.00063400
v -0.04367200 0.01662400 0.05128200
v 0.00708400 0.05296200 0.05012300
v -0.04425300 0.04776600 0.00225200
v -0.03444400 0.05642500 0.00802000
v -0.04425300 0.02701100 0.05069700
v -0.04367200 0.05526700 -0.00005500
v -0.04425300 0.05526700 0.02417500
v 0.00766000 0.02873900 0.04954400
v -0.01022200 0.05411200 -0.00063400
v 0.00824000 0.05411600 0.02705100
v -0.02405900 0.05584400 -0.00005500
v -0.00330000 0.05527100 0.00167800
v 0.00766000 0.04488800 -0.00005000
v -0.04425300 0.05123000 0.04204800
v -0.04367200 0.05526700 0.03454700
v -0.04136500 0.05642500 0.01494100
v -0.04309600 0.05642500 0.00052400
v 0.00708400 0.02008800 -0.00063400
v -0.01829400 0.05411600 0.05070200
v -0.04425300 0.05584400 0.00513900
v 0.00650900 0.05411200 0.04954400
v 0.00766000 0.05411600 0.00167800
f 4 27 53
f 44 4 53
f 27 44 53
f 27 4 54
f 32 15 54
f 4 32 54
f 15 38 54
f 23 19 55
f 9 46 54
f 19 9 55
f 46 27 54
f 38 9 54
f 33 17 52
f 36 12 50
f 26 6 52
f 17 22 52
f 29 43 51
f 43 25 51
f 36 29 51
f 7 36 51
f 25 7 51
f 12 39 50
f 29 36 50
f 31 22 49
f 9 38 55
f 1 31 49
f 22 26 52
f 38 23 55
f 31 1 60
f 39 24 56
f 7 25 49
f 17 7 61
f 41 31 60
f 10 41 60
f 25 19 60
f 1 25 60
f 19 23 60
f 23 10 60
f 56 45 59
f 9 56 59
f 13 46 59
f 46 9 59
f 9 29 56
f 45 13 59
f 41 10 58
f 32 37 58
f 37 30 58
f 23 32 58
f 10 23 58
f 33 52 57
f 52 6 57
f 48 33 57
f 6 48 57
f 50 39 56
f 29 50 56
f 24 45 56
f 30 41 58
f 25 1 49
f 3 8 21
f 6 12 48
f 7 33 36
f 33 12 36
f 5 20 35
f 21 8 34
f 8 13 34
f 7 17 33
f 23 15 32
f 16 22 31
f 9 19 29
f 6 14 28
f 14 3 28
f 2 6 28
f 18 30 37
f 3 2 28
f 22 16 26
f 16 11 26
f 11 14 26
f 14 6 26
f 22 17 61
f 11 16 20
f 3 11 20
f 5 8 20
f 8 3 20
f 11 3 14
f 6 2 12
f 49 22 61
f 13 8 27
f 12 33 48
f 32 4 37
f 12 2 39
f 41 35 47
f 31 41 47
f 35 20 47
f 16 31 47
f 20 16 47
f 13 27 46
f 24 39 45
f 39 2 45
f 21 13 45
f 3 21 45
f 2 3 45
f 8 40 44
f 15 23 38
f 40 4 44
f 29 19 43
f 19 25 43
f 21 34 42
f 34 13 42
f 13 21 42
f 18 35 41
f 30 18 41
f 18 37 40
f 37 4 40
f 35 18 40
f 5 35 40
f 8 5 40
f 27 8 44
f 7 49 61