# https://github.com/mikedh/trimesh
v 0.00535100 -0.02144200 0.05012300
v -0.04367300 -0.01913700 -0.00063400
v -0.04367300 -0.00990800 -0.00063400
v 0.00766300 0.00969700 -0.00005000
v -0.04424900 0.01546900 0.05069700
v 0.00708300 0.01546200 0.04954400
v -0.04367300 -0.02144600 0.05069700
v -0.04309800 0.01546900 -0.00005500
v 0.00593200 -0.02086600 0.00052400
v 0.00708300 0.01546200 -0.00005000
v 0.00708300 -0.02086600 0.04781600
v -0.04482900 -0.02029000 0.00917400
v -0.04251700 -0.02144600 0.01436700
v -0.00502800 -0.02202200 0.05070200
v 0.00593200 -0.01855700 -0.00063400
v -0.04309800 0.01489000 0.05128200
v 0.00708300 0.01084900 -0.00063400
v -0.04482900 -0.01394400 0.04608800
v -0.04424900 0.00854400 0.00744600
v 0.00593200 0.01546200 0.05012300
v 0.00766300 0.01546900 0.04781600
v -0.04136600 -0.02086900 0.00109800
v 0.00650700 -0.02029000 -0.00005000
v -0.04194200 0.01431000 -0.00063400
v -0.04424900 -0.01048700 0.05128200
v 0.00535100 -0.02202200 0.04839000
v -0.04482900 -0.01394400 0.00455900
v -0.02983100 -0.02202200 0.04896900
v -0.04367300 0.01546900 0.00052400
v 0.00766300 0.00623600 0.03801300
v -0.04482900 -0.00702300 0.03627500
v -0.04424900 -0.02086900 0.05069700
v -0.03444500 -0.02029000 -0.00063400
v -0.00330200 -0.02086600 0.05070200
v -0.04424900 0.01546900 0.03454700
v -0.04424900 -0.02029000 0.00052400
v 0.00650700 -0.01221600 0.05012300
v 0.00766300 0.01546900 0.02302200
v 0.00766300 0.00854100 -0.00005000
v -0.04482900 -0.01913700 0.04032000
v -0.04482900 -0.00990800 0.01148100
v -0.04367300 -0.02144600 0.02244200
v -0.04309800 -0.01221600 0.05128200
v -0.04424900 -0.01106000 -0.00005500
v 0.00016200 -0.02029000 -0.00063400
v 0.00708300 -0.00413900 0.04954400
v -0.04424900 0.01200500 0.01724900
v -0.04424900 -0.02086900 0.00629200
v -0.04482900 -0.00990800 0.04608800
v -0.02232900 -0.02202200 0.05070200
v 0.00708300 -0.02086600 0.04666200
v 0.00650700 -0.02144200 0.04896900
v 0.00766300 0.00912100 0.04493400
f 30 21 53
f 35 29 47
f 29 19 47
f 6 37 46
f 37 11 46
f 11 21 46
f 21 6 46
f 9 33 45
f 33 15 45
f 15 23 45
f 23 9 45
f 19 41 47
f 36 27 44
f 27 29 44
f 29 3 44
f 3 2 44
f 34 16 43
f 14 34 43
f 25 32 43
f 32 7 43
f 16 25 43
f 13 28 42
f 28 7 42
f 2 36 44
f 7 12 42
f 41 35 47
f 12 36 48
f 11 30 53
f 21 11 53
f 51 11 52
f 9 51 52
f 11 37 52
f 37 1 52
f 26 9 52
f 1 26 52
f 39 30 51
f 23 39 51
f 22 13 48
f 30 11 51
f 14 43 50
f 43 7 50
f 28 14 50
f 7 28 50
f 31 18 49
f 5 31 49
f 18 25 49
f 25 5 49
f 13 42 48
f 42 12 48
f 9 23 51
f 31 35 41
f 36 22 48
f 19 27 41
f 4 21 30
f 27 19 29
f 5 8 29
f 8 3 29
f 26 14 28
f 13 26 28
f 12 18 27
f 1 14 26
f 13 9 26
f 16 5 25
f 27 18 31
f 17 3 24
f 3 8 24
f 9 13 22
f 5 20 21
f 20 6 21
f 8 5 21
f 5 16 20
f 15 3 17
f 10 4 17
f 2 3 15
f 27 31 41
f 8 10 24
f 12 7 32
f 10 17 24
f 2 15 33
f 32 18 40
f 25 18 32
f 12 32 40
f 18 12 40
f 4 30 39
f 23 15 39
f 15 17 39
f 21 4 38
f 8 21 38
f 10 8 38
f 4 10 38
f 20 34 37
f 17 4 39
f 34 1 37
f 14 1 34
f 20 16 34
f 5 29 35
f 31 5 35
f 9 22 33
f 2 33 36
f 33 22 36
f 6 20 37
f 12 27 36