# https://github.com/mikedh/trimesh
v 0.00279500 -0.07641900 0.04267900
v 0.01259800 -0.01050400 0.03395900
v 0.01259800 -0.01050400 0.03016000
v 0.04202000 -0.04917800 0.03504800
v 0.00115500 -0.05027000 0.00018800
v -0.01464800 -0.03720200 0.05738900
v 0.02185900 -0.04046900 0.06393100
v -0.02390800 -0.04319300 0.02034400
v 0.03057700 -0.05136100 0.00781200
v 0.01041500 -0.07641900 0.02088900
v -0.00538100 -0.01812200 0.01489200
v 0.02512600 -0.02357200 0.01108000
v -0.01846400 -0.06552700 0.02852000
v 0.01859100 -0.06552000 0.05847900
v 0.03330200 -0.02248000 0.04213400
v -0.00483800 -0.01648900 0.04867000
v 0.02840000 -0.07206700 0.03233200
v -0.00701400 -0.05680400 0.06065700
v -0.02390800 -0.03556800 0.04104500
v 0.01150700 -0.02575400 0.06175300
v 0.03602700 -0.05190300 0.05139900
v 0.00388000 -0.03229500 0.00127700
v -0.00102100 -0.06443500 0.00672300
v -0.01954900 -0.05952800 0.04540200
v 0.03821000 -0.03283700 0.02088900
v -0.01301400 -0.01758000 0.02906400
v 0.00497100 -0.04536300 0.06666100
v 0.01968200 -0.06552000 0.00835700
v -0.01246500 -0.04754500 0.00563400
v 0.01968200 -0.04210900 0.00072600
v 0.03548500 -0.05952800 0.01871100
v -0.01846400 -0.02957000 0.01653200
v 0.01913300 -0.01649500 0.05030300
v 0.03439300 -0.03338600 0.05248200
v 0.02730900 -0.01594700 0.02743100
v -0.00483800 -0.07478500 0.02361200
v 0.01259800 -0.01540400 0.01489900
v -0.00647200 -0.06880000 0.05194400
v -0.01464800 -0.06335100 0.01598100
v 0.03493600 -0.06389300 0.04158300
v 0.01968200 -0.07479200 0.04267900
v -0.02554200 -0.04753800 0.03722700
v 0.04038600 -0.03501900 0.04050100
v -0.00265500 -0.03066100 0.06229700
v -0.01138000 -0.07206100 0.03777100
v -0.01628100 -0.02520500 0.04758000
v 0.03493600 -0.04046900 0.01162500
v -0.02064000 -0.04645400 0.05139200
v -0.00810600 -0.03392800 0.00454500
v 0.00170400 -0.01104600 0.02961600
v 0.00497100 -0.06497800 0.06011900
v 0.01968200 -0.05298800 0.06393100
v 0.01095800 -0.02575400 0.00399400
v 0.01532300 -0.05626100 0.00181500
v -0.02282300 -0.03011900 0.03015400
v 0.02512600 -0.02738800 0.05793400
v 0.02404100 -0.07097600 0.01816600
v 0.01259800 -0.07805900 0.03070500
v 0.04147700 -0.04699600 0.02579000
v 0.03657600 -0.02575400 0.02688600
v -0.02282300 -0.05244500 0.02088900
v -0.00810600 -0.04591100 0.06283500
v 0.00333800 -0.01758700 0.05411500
v 0.03057700 -0.05353700 0.05739600
f 52 14 64
f 41 1 58
f 36 10 58
f 1 36 58
f 28 31 57
f 31 17 57
f 10 28 57
f 7 34 56
f 34 15 56
f 33 20 56
f 15 33 56
f 20 7 56
f 46 26 55
f 19 46 55
f 42 19 55
f 8 42 55
f 26 32 55
f 32 8 55
f 5 30 54
f 30 9 54
f 28 23 54
f 9 28 54
f 23 5 54
f 37 12 53
f 11 37 53
f 30 22 53
f 12 30 53
f 22 11 53
f 17 41 58
f 27 51 52
f 10 57 58
f 4 31 59
f 14 40 64
f 21 34 64
f 34 7 64
f 44 20 63
f 16 44 63
f 20 33 63
f 33 2 63
f 2 16 63
f 48 18 62
f 6 48 62
f 27 44 62
f 44 6 62
f 18 27 62
f 13 42 61
f 42 8 61
f 29 39 61
f 39 13 61
f 8 29 61
f 15 43 60
f 43 25 60
f 35 15 60
f 12 35 60
f 25 12 60
f 31 47 59
f 47 25 59
f 25 43 59
f 43 4 59
f 57 17 58
f 51 14 52
f 7 27 52
f 18 38 51
f 34 21 43
f 15 34 43
f 21 4 43
f 13 24 42
f 17 40 41
f 40 14 41
f 14 1 41
f 17 31 40
f 31 4 40
f 4 21 40
f 23 36 39
f 36 13 39
f 29 23 39
f 18 24 38
f 35 12 37
f 3 35 37
f 23 10 36
f 33 15 35
f 2 33 35
f 3 2 35
f 29 8 32
f 26 11 32
f 28 9 31
f 5 22 30
f 5 23 29
f 10 23 28
f 7 20 27
f 27 20 44
f 24 13 45
f 36 1 45
f 13 36 45
f 38 1 51
f 27 18 51
f 1 14 51
f 37 11 50
f 3 37 50
f 26 16 50
f 11 26 50
f 16 2 50
f 2 3 50
f 29 32 49
f 32 11 49
f 5 29 49
f 11 22 49
f 40 21 64
f 22 5 49
f 19 42 48
f 24 18 48
f 6 19 48
f 31 9 47
f 30 12 47
f 9 30 47
f 12 25 47
f 44 16 46
f 6 44 46
f 16 26 46
f 19 6 46
f 38 24 45
f 1 38 45
f 42 24 48
f 7 52 64