# https://github.com/mikedh/trimesh
v 0.02091800 -0.03252900 0.00256400
v -0.06775800 0.02168200 0.01386100
v -0.06775800 0.02168200 0.02571900
v -0.04741600 -0.05908100 0.02458700
v 0.00284300 0.04144700 0.02741100
v -0.06718700 0.02564300 0.00087100
v -0.04798700 -0.05738000 -0.00082700
v 0.00170900 0.03975500 -0.00026000
v 0.02148000 -0.04044100 0.02741400
v -0.04629000 -0.03477800 0.02854300
v 0.02091800 -0.04044100 0.00030400
v -0.06718700 0.02507500 0.02797900
v 0.00792400 0.00474300 0.02967100
v 0.02035500 -0.04439200 0.00934400
v -0.00281000 0.04259100 0.00651700
v -0.06718700 0.02733500 0.02233000
v -0.04741600 -0.05681200 0.02741400
v 0.01300600 -0.02575100 -0.00082700
v -0.02539400 0.01490400 -0.00082700
v 0.00396800 0.04032200 0.00200000
v 0.02205200 -0.03704700 0.02684700
v 0.02205200 -0.04382500 0.02289500
v -0.04233400 -0.05851400 0.00764800
v 0.01357700 -0.03026900 0.02854300
v -0.05080900 -0.04833300 0.00030400
v 0.00058400 0.04259100 0.02458700
v -0.06492800 0.02789200 0.00708100
v -0.04459400 0.02507500 -0.00026000
v 0.00058400 0.04259100 0.00143600
v 0.00454000 0.03692900 0.02402300
v -0.06775800 0.02394100 0.00143300
v -0.04629000 -0.05794700 -0.00026000
v -0.04403100 -0.05908100 0.01837500
v 0.02035500 -0.03478800 -0.00026000
v -0.04911200 -0.05398600 0.02458700
v -0.03160900 0.03580400 0.02345600
v -0.05137200 0.00926100 0.02854300
v 0.00622800 -0.00372700 0.02967100
v -0.06775800 0.02620000 0.02741100
v 0.01978300 -0.04439200 0.00708400
v -0.00675700 0.02564300 0.02854300
v -0.04572800 -0.05851400 0.02628300
v -0.05137200 0.01151000 -0.00026000
v 0.02205200 -0.03818200 0.00143600
v -0.04290600 -0.03704700 0.02854300
v 0.02035500 -0.03930600 -0.00026000
v -0.06098000 0.02902600 0.01273200
v -0.00281000 0.04259100 0.01837500
v 0.00396800 0.00586700 0.02967100
v 0.00002100 0.00078200 -0.00082700
v -0.06324000 0.01377900 0.00030400
v 0.00510200 0.03580400 0.00426000
v 0.02091800 -0.04156500 0.00143600
v 0.00284300 0.04144700 0.00030700
v 0.02148000 -0.04213300 0.02628300
v -0.04798700 -0.05851400 0.00313100
v 0.01922100 -0.02913500 0.02797600
v -0.06718700 0.02620000 0.00143300
v -0.04572800 -0.05908100 0.02458700
v 0.00058400 0.04201400 0.02684700
v 0.01696200 -0.03760400 0.02797600
v -0.03611900 -0.05738000 0.01498300
v 0.00962100 -0.00429400 0.02967100
v -0.06775800 0.02224900 0.02684700
f 12 39 64
f 5 13 57
f 35 25 56
f 4 35 56
f 33 4 56
f 23 33 56
f 32 23 56
f 7 32 56
f 25 7 56
f 42 22 55
f 9 42 55
f 22 9 55
f 44 34 54
f 20 44 54
f 34 8 54
f 29 5 54
f 6 29 54
f 5 20 54
f 8 6 54
f 44 22 53
f 11 44 53
f 40 32 53
f 14 40 53
f 32 11 53
f 22 14 53
f 30 21 52
f 20 30 52
f 21 1 52
f 9 21 57
f 1 20 52
f 21 5 57
f 29 6 58
f 3 35 64
f 17 12 64
f 24 57 63
f 57 13 63
f 38 45 63
f 45 24 63
f 13 38 63
f 22 33 62
f 33 23 62
f 23 14 62
f 14 22 62
f 57 24 61
f 9 57 61
f 24 17 61
f 17 9 61
f 36 39 60
f 39 5 60
f 26 36 60
f 5 26 60
f 22 42 59
f 42 4 59
f 33 22 59
f 4 33 59
f 31 39 58
f 39 16 58
f 6 31 58
f 27 29 58
f 16 27 58
f 28 43 51
f 43 7 51
f 6 28 51
f 17 4 42
f 5 12 41
f 23 32 40
f 14 23 40
f 36 16 39
f 31 3 39
f 12 5 39
f 12 10 37
f 3 25 35
f 4 17 35
f 18 8 34
f 7 11 32
f 7 25 31
f 25 2 31
f 6 7 31
f 2 3 31
f 5 21 30
f 20 5 30
f 27 15 29
f 15 26 29
f 26 5 29
f 8 19 28
f 6 8 28
f 3 2 25
f 21 9 22
f 18 7 19
f 10 12 17
f 9 17 42
f 19 7 43
f 28 19 43
f 20 1 44
f 7 6 51
f 18 19 50
f 19 8 50
f 8 18 50
f 41 12 49
f 5 41 49
f 10 38 49
f 38 13 49
f 12 37 49
f 37 10 49
f 13 5 49
f 15 47 48
f 36 26 48
f 35 17 64
f 26 15 48
f 16 36 47
f 27 16 47
f 15 27 47
f 34 44 46
f 44 11 46
f 18 34 46
f 7 18 46
f 11 7 46
f 38 10 45
f 17 24 45
f 10 17 45
f 21 22 44
f 1 21 44
f 47 36 48
f 39 3 64