# https://github.com/mikedh/trimesh
v 0.02127200 -0.00943800 0.05705600
v -0.05426400 0.00900700 0.04263800
v -0.05368300 0.00785100 0.04206300
v -0.00237000 0.03610100 -0.00002200
v -0.02946100 -0.03768800 0.00055400
v -0.00409800 0.03784200 0.05590500
v -0.02831300 -0.03826600 0.05647500
v 0.02127200 -0.01462600 0.00171100
v -0.05310900 0.01419500 0.00113500
v -0.05195500 0.01189000 0.05763800
v -0.01966300 -0.03596100 0.05532900
v 0.02011700 -0.01405500 0.05590500
v -0.00698200 0.03784200 0.05475300
v -0.02484900 -0.03538300 -0.00060300
v 0.02127200 -0.01116500 0.00113500
v -0.00640800 0.03668600 0.00228100
v -0.05310900 0.01015600 0.00056000
v -0.00121500 0.03553000 0.00170600
v -0.02600400 -0.03826600 0.01900800
v -0.03061600 -0.03711700 0.00055400
v 0.00108700 0.02399900 0.05763800
v -0.01043900 -0.02846900 0.05763800
v -0.05368300 0.01189000 0.05648000
v -0.00467900 0.03553000 -0.00060300
v 0.02011700 -0.01405500 -0.00002200
v -0.03984700 -0.01866400 0.05475300
v 0.02185300 -0.00943800 0.05590500
v -0.04042100 -0.01232100 -0.00060300
v -0.05368300 0.01419500 0.00747500
v -0.05368300 0.00958500 0.00286300
v 0.02069800 -0.01520400 0.00171100
v -0.00294300 0.03668600 0.05590500
v -0.03984700 0.02111600 0.00228100
v -0.05310900 0.00669500 0.05590500
v -0.02543000 -0.03885100 0.04205700
v -0.02715800 -0.03768800 0.00055400
v -0.00698200 0.03668600 0.05705100
v 0.02185300 -0.01059400 0.02016000
v -0.05137300 0.01303900 -0.00002200
v 0.00339700 -0.02096900 -0.00060300
v 0.02069800 -0.01174300 0.05763800
v -0.01908200 0.03149900 0.05532900
v -0.02946100 -0.03768800 0.05532900
v 0.02069800 -0.01520400 0.01497200
v -0.04330400 -0.00828200 0.05763800
v -0.03061600 -0.03711700 0.01842600
v -0.05310900 0.01246800 0.05648000
v -0.05426400 0.00958500 0.02016000
v -0.02600400 -0.03768800 0.05705100
v 0.02185300 -0.01232100 0.05590500
v -0.00294300 0.03725700 0.00228100
v -0.00640800 0.03784200 0.04033000
v -0.05252800 0.01477300 0.01266300
v -0.02139200 0.02803000 0.05763800
v -0.01908200 0.02860800 -0.00060300
v -0.00121500 0.03553000 0.00689300
v -0.02831300 -0.03885100 0.05532900
v 0.01493100 -0.01808600 0.00228700
v -0.03004200 -0.03596100 -0.00060300
v -0.05368300 0.00842900 0.05705600
v 0.00051400 0.02745200 -0.00060300
v -0.05426400 0.01303900 0.00286300
v 0.02185300 -0.01174300 0.00517200
v -0.00813700 0.03553000 0.00055400
f 24 55 64
f 5 20 59
f 36 31 58
f 19 36 58
f 31 35 58
f 35 19 58
f 49 7 57
f 11 49 57
f 43 46 57
f 46 20 57
f 7 43 57
f 35 11 57
f 5 35 57
f 20 5 57
f 18 51 56
f 51 6 56
f 32 27 56
f 6 32 56
f 27 18 56
f 28 39 55
f 39 9 55
f 24 28 55
f 21 37 54
f 37 10 54
f 10 21 54
f 47 42 53
f 29 47 53
f 42 13 53
f 20 17 59
f 13 29 53
f 28 14 59
f 36 5 59
f 9 33 64
f 16 24 64
f 38 50 63
f 50 8 63
f 18 38 63
f 15 18 63
f 8 15 63
f 30 48 62
f 48 2 62
f 17 30 62
f 23 29 62
f 29 9 62
f 2 23 62
f 9 17 62
f 25 40 61
f 40 24 61
f 15 25 61
f 24 4 61
f 4 15 61
f 7 45 60
f 45 10 60
f 34 43 60
f 43 7 60
f 2 34 60
f 10 23 60
f 23 2 60
f 14 36 59
f 17 28 59
f 51 16 52
f 6 51 52
f 33 13 52
f 21 22 41
f 1 21 41
f 25 14 40
f 14 24 40
f 28 17 39
f 17 9 39
f 18 27 38
f 21 32 37
f 32 6 37
f 6 13 37
f 25 31 36
f 14 25 36
f 19 5 36
f 31 11 35
f 5 19 35
f 3 20 34
f 2 3 34
f 29 13 33
f 9 29 33
f 1 27 32
f 21 1 32
f 25 8 31
f 17 20 30
f 24 14 28
f 15 8 25
f 21 10 22
f 15 4 18
f 37 13 42
f 34 26 43
f 12 11 44
f 31 8 44
f 16 33 52
f 13 6 52
f 24 16 51
f 4 24 51
f 18 4 51
f 12 44 50
f 44 8 50
f 41 12 50
f 1 41 50
f 38 27 50
f 27 1 50
f 45 7 49
f 22 45 49
f 33 16 64
f 12 41 49
f 11 12 49
f 30 20 48
f 20 3 48
f 3 2 48
f 37 42 47
f 10 37 47
f 29 23 47
f 23 10 47
f 43 26 46
f 26 34 46
f 34 20 46
f 22 10 45
f 11 31 44
f 41 22 49
f 55 9 64