# https://github.com/mikedh/trimesh
v -0.00800600 -0.12633100 -0.00041900
v -0.00936600 -0.11813300 0.05563700
v -0.01027700 -0.11813300 0.05563700
v -0.00755000 -0.09397600 0.02374600
v -0.03716900 -0.11904600 0.02465200
v 0.00885600 -0.14410400 0.03147800
v 0.01797000 -0.11357500 0.02556200
v -0.02258500 -0.14729100 0.03011100
v -0.03033200 -0.11357500 0.04469600
v -0.01073300 -0.10537100 0.00459600
v 0.01113800 -0.11403400 0.04606200
v -0.01118800 -0.13954100 0.05016700
v 0.00521300 -0.14091300 0.01098300
v -0.02486200 -0.13498800 0.00733400
v -0.00299100 -0.09899300 0.04332400
v 0.00840000 -0.11221400 0.00733400
v -0.02622800 -0.09945300 0.02556200
v -0.02713900 -0.11403400 0.00687900
v -0.02896100 -0.13270900 0.04515100
v 0.01159400 -0.13043000 0.04560700
v -0.01027700 -0.14729100 0.01371000
v 0.01751400 -0.12951700 0.02009700
v 0.00794500 -0.09944700 0.02419600
v -0.01802500 -0.09991200 0.04333000
v -0.03397600 -0.13590100 0.02647300
v -0.00344600 -0.14865700 0.03694300
v 0.00840000 -0.12723800 0.00551300
v 0.01797000 -0.12769700 0.03467100
v 0.00293500 -0.13225500 0.05153300
v -0.02486200 -0.10264400 0.01371000
v -0.00390100 -0.09854000 0.01234400
v -0.00435700 -0.15002300 0.02282400
v -0.00618400 -0.13772100 0.00368500
v -0.02076300 -0.11859200 0.05335500
v 0.01022200 -0.10355100 0.03740400
v -0.03306500 -0.12678500 0.01280000
v -0.02713900 -0.14182000 0.01690400
v -0.03625800 -0.12450600 0.03558200
v -0.03306500 -0.10719700 0.03147800
v -0.00618400 -0.10765000 0.05198300
v -0.02304000 -0.14410400 0.03968100
v 0.00293500 -0.14182500 0.04469600
v -0.01984700 -0.11950500 0.00140800
v -0.03352000 -0.11129600 0.01735900
v -0.00162400 -0.11266800 0.00186400
v -0.01438200 -0.13043000 0.05426500
v 0.01569300 -0.11540000 0.01508200
v 0.00247400 -0.11904600 0.05335500
v -0.00618400 -0.09443500 0.03375500
v -0.01574800 -0.09671400 0.01644800
v -0.01893600 -0.09580200 0.03238800
v 0.01159400 -0.14137200 0.02283000
v -0.01893600 -0.10902200 0.05107200
v 0.01660400 -0.11676700 0.03877000
v 0.01068300 -0.10537100 0.01553800
v -0.02668300 -0.10309800 0.03968100
v -0.01301500 -0.14911000 0.03649300
v -0.01574800 -0.14957500 0.02236900
v -0.01757000 -0.13634900 0.00414100
v 0.00384600 -0.10674300 0.04788400
v 0.01478200 -0.13635400 0.03421600
v -0.03078800 -0.13818000 0.03694800
v 0.00201900 -0.09625500 0.03238800
v 0.01296000 -0.13179600 0.01188900
f 22 52 64
f 37 21 58
f 8 37 58
f 21 32 58
f 41 8 57
f 12 41 57
f 32 26 57
f 26 12 57
f 53 24 56
f 9 53 56
f 51 17 56
f 24 51 56
f 17 39 56
f 39 9 56
f 47 16 55
f 7 47 55
f 31 23 55
f 16 31 55
f 23 7 55
f 35 11 54
f 7 35 54
f 20 28 54
f 28 7 54
f 11 20 54
f 40 24 53
f 3 40 53
f 9 34 53
f 34 3 53
f 57 8 58
f 32 13 52
f 32 57 58
f 33 21 59
f 47 22 64
f 13 27 64
f 49 15 63
f 4 49 63
f 35 23 63
f 15 35 63
f 23 4 63
f 8 41 62
f 41 19 62
f 38 25 62
f 19 38 62
f 25 8 62
f 6 52 61
f 52 22 61
f 20 42 61
f 42 6 61
f 22 28 61
f 28 20 61
f 40 48 60
f 48 11 60
f 15 40 60
f 35 15 60
f 11 35 60
f 14 43 59
f 43 1 59
f 37 14 59
f 21 37 59
f 1 33 59
f 6 32 52
f 50 17 51
f 4 50 51
f 36 18 43
f 18 10 43
f 20 29 42
f 29 12 42
f 26 6 42
f 12 26 42
f 12 19 41
f 15 24 40
f 3 2 40
f 38 9 39
f 5 38 39
f 5 25 38
f 19 9 38
f 36 14 37
f 8 25 37
f 25 36 37
f 25 5 36
f 7 23 35
f 9 19 34
f 27 13 33
f 1 27 33
f 13 21 33
f 6 26 32
f 21 13 32
f 4 23 31
f 10 18 30
f 22 7 28
f 14 36 43
f 17 30 44
f 30 18 44
f 36 5 44
f 24 49 51
f 49 4 51
f 4 31 50
f 31 10 50
f 30 17 50
f 10 30 50
f 24 15 49
f 40 2 48
f 29 20 48
f 2 29 48
f 20 11 48
f 27 16 47
f 7 22 47
f 27 47 64
f 34 19 46
f 12 29 46
f 29 2 46
f 19 12 46
f 2 3 46
f 43 10 45
f 1 43 45
f 31 16 45
f 10 31 45
f 16 27 45
f 27 1 45
f 5 39 44
f 39 17 44
f 18 36 44
f 3 34 46
f 52 13 64