# https://github.com/mikedh/trimesh
v 0.01232000 -0.06954500 0.01605900
v -0.06954600 0.04375300 0.01410200
v -0.06954600 0.04375300 0.01933600
v -0.00077900 -0.13110800 0.01410200
v 0.00249300 -0.10031800 0.02916200
v 0.02606500 -0.13110800 0.00231000
v -0.03745000 0.04442300 0.01736800
v -0.05709300 0.04375300 0.00558700
v 0.03000400 -0.13043800 0.02523100
v -0.04859000 0.04442300 0.02654200
v -0.01191900 -0.08981900 0.00427600
v -0.04137900 0.04442300 0.00755000
v 0.00315000 -0.13110800 0.02523100
v -0.06430500 0.04375300 0.02588500
v 0.03393300 -0.13043800 0.00755000
v 0.00315000 -0.06298100 0.02654200
v -0.00799000 -0.06234600 0.00165300
v 0.00315000 -0.05447600 0.00624200
v 0.00969400 -0.13110800 0.00296500
v -0.02566400 -0.06887500 0.02195400
v -0.02435100 -0.07346200 0.01148200
v -0.06626400 0.04310000 0.00886200
v -0.02042200 -0.06167500 0.02850200
v 0.03458900 -0.13110800 0.02064500
v -0.03942000 0.04375300 0.02261100
v 0.00576500 -0.05839400 0.02260800
v -0.00602100 -0.06167500 0.02916200
v -0.00470800 -0.04923600 0.00296500
v 0.02214700 -0.13110800 0.02785100
v -0.01453500 -0.06756900 0.00231000
v 0.00118000 -0.13043800 0.00755300
v 0.00576500 -0.05578200 0.00951300
v -0.04859000 0.04442300 0.00558700
v -0.02435100 -0.06494000 0.02588500
v -0.06233500 0.04442300 0.02654200
v -0.03810700 0.04442300 0.01147900
v -0.02632100 -0.06428700 0.00820500
v -0.02566400 -0.07148600 0.01605900
v 0.00839100 -0.12847900 0.02784800
v 0.03524600 -0.12978500 0.01213600
v -0.01779600 -0.05250000 0.02916200
v -0.06823300 0.04375300 0.02261100
v 0.03000400 -0.13043800 0.00361900
v -0.06102200 0.04442300 0.00624200
v 0.00249300 -0.10031800 0.00165300
v -0.00012300 -0.13110800 0.01999100
v -0.01976600 -0.06952800 0.00427600
v -0.04400500 0.04442300 0.02523100
v 0.00118000 -0.06561000 0.02784800
v 0.00315000 -0.04793000 0.01279300
v 0.00773500 -0.08066200 0.00231000
v 0.00642200 -0.05643500 0.01933400
v -0.00799000 -0.09244800 0.02850200
v 0.00380600 -0.06365100 0.00361900
v -0.01257500 -0.09834200 0.02391900
v 0.01820800 -0.08591900 0.01017000
v 0.01624900 -0.08787800 0.02391900
v -0.01519100 -0.09703600 0.01867900
v 0.01559200 -0.08329000 0.00689600
v -0.06823300 0.04375300 0.01082700
v -0.03810700 0.04442300 0.01999100
v 0.00380600 -0.08066200 0.00165300
v 0.01820800 -0.08591900 0.01933400
v 0.00642200 -0.08524900 0.02850200
f 32 50 56
f 46 13 55
f 1 40 56
f 40 15 56
f 50 1 56
f 16 9 57
f 36 7 50
f 26 16 57
f 20 38 58
f 38 4 58
f 4 46 58
f 55 20 58
f 9 24 57
f 13 34 55
f 32 36 50
f 43 51 54
f 28 12 54
f 12 18 54
f 41 23 53
f 5 41 53
f 13 39 53
f 39 5 53
f 23 34 53
f 34 13 53
f 50 7 52
f 1 50 52
f 43 6 51
f 46 55 58
f 34 20 55
f 18 32 59
f 26 52 61
f 54 18 59
f 9 49 64
f 29 9 64
f 5 29 64
f 27 5 64
f 26 57 63
f 57 24 63
f 52 26 63
f 1 52 63
f 24 40 63
f 40 1 63
f 28 51 62
f 51 6 62
f 45 17 62
f 6 45 62
f 17 28 62
f 52 7 61
f 48 25 61
f 7 48 61
f 25 26 61
f 44 22 60
f 2 44 60
f 22 37 60
f 37 21 60
f 21 2 60
f 32 56 59
f 56 15 59
f 43 54 59
f 15 43 59
f 16 48 49
f 51 28 54
f 10 27 49
f 3 2 38
f 31 21 37
f 11 31 37
f 32 18 36
f 18 12 36
f 12 7 36
f 10 33 35
f 14 23 35
f 2 3 35
f 23 14 34
f 28 17 33
f 12 28 33
f 10 12 33
f 20 3 38
f 4 21 31
f 19 4 31
f 19 11 30
f 8 17 30
f 24 9 29
f 13 24 29
f 25 16 26
f 6 15 24
f 13 6 24
f 6 4 19
f 4 6 13
f 10 7 12
f 49 27 64
f 48 10 49
f 11 19 31
f 2 21 38
f 17 8 33
f 29 5 39
f 9 16 49
f 21 4 38
f 16 25 48
f 7 10 48
f 44 30 47
f 22 44 47
f 11 37 47
f 37 22 47
f 30 11 47
f 4 13 46
f 30 17 45
f 6 19 45
f 35 33 44
f 2 35 44
f 19 30 45
f 5 27 41
f 13 29 39
f 24 15 40
f 33 8 44
f 27 10 41
f 35 23 41
f 10 35 41
f 34 14 42
f 3 20 42
f 35 3 42
f 14 35 42
f 15 6 43
f 8 30 44
f 20 34 42