# https://github.com/mikedh/trimesh
v -0.02763400 0.14397700 0.01147800
v -0.04728000 0.10926400 0.01147800
v -0.04728000 0.10926400 0.01998700
v -0.01584200 0.11581900 0.01540500
v -0.02370100 0.13349500 0.02981600
v -0.02239300 0.12694700 -0.00096600
v -0.04728000 0.13218300 0.01082300
v -0.04007300 0.13611100 0.02523100
v -0.03810600 0.13087500 0.00034400
v -0.02960000 0.11974700 0.02916100
v -0.04728000 0.12629500 0.02588300
v -0.03156100 0.11712700 0.00165500
v -0.02370100 0.14135400 0.02391700
v -0.02370100 0.13873400 0.00296600
v -0.01715300 0.12040300 0.02588300
v -0.01649700 0.12105900 0.00558500
v -0.02763400 0.11057600 0.01344500
v -0.04728000 0.11778300 0.00493000
v -0.02829000 0.11254000 0.02261200
v -0.04072800 0.13873100 0.00951500
v -0.04072800 0.13873100 0.02130100
v -0.03483500 0.12498700 0.03047200
v -0.04728000 0.11451100 0.02523100
v -0.01780800 0.11647100 0.00689600
v -0.02697900 0.13938700 0.00231100
v -0.03483500 0.12171100 -0.00031100
v -0.02894500 0.11254000 0.00689300
v -0.01911900 0.12825500 0.02850500
v -0.03810600 0.13153100 0.02916100
v -0.02829000 0.14135400 0.02457600
v -0.04728000 0.12629500 0.00493000
v -0.02304600 0.13218700 -0.00096600
v -0.03156100 0.14332200 0.01802400
v -0.04728000 0.13218300 0.02064300
v -0.03941700 0.13545900 0.00361900
v -0.01649700 0.12236700 0.02064300
v -0.02042700 0.12694700 0.02981600
v -0.01911900 0.12040300 0.00231100
v -0.04728000 0.10992000 0.00951500
v -0.02042700 0.13283900 0.01147800
v -0.02894500 0.11647500 0.02719400
v -0.02501200 0.14332200 0.01082300
v -0.01911900 0.11516000 0.02064300
v -0.01911900 0.12694700 0.00100300
v -0.02763400 0.14266600 0.00689300
v -0.02501200 0.14332200 0.02130100
v -0.03745100 0.12694700 -0.00031100
v -0.02763400 0.13873100 0.02719400
v -0.04728000 0.11516300 0.00558500
v -0.01780800 0.11450700 0.01082600
v -0.02566800 0.11123500 0.01605700
v -0.02239300 0.13807900 0.02653900
v -0.02829000 0.11057600 0.01147800
v -0.03810600 0.14070200 0.01344500
v -0.04662400 0.10992000 0.02130100
v -0.02239300 0.12367800 -0.00030800
v -0.02960000 0.13087500 -0.00096600
f 4 43 51
f 26 12 49
f 18 26 49
f 39 18 49
f 12 39 49
f 3 17 51
f 27 24 50
f 19 3 51
f 30 8 48
f 24 4 50
f 13 30 48
f 30 13 46
f 8 29 48
f 31 9 47
f 18 31 47
f 26 18 47
f 13 42 46
f 42 1 46
f 33 30 46
f 1 33 46
f 42 14 45
f 1 42 45
f 43 19 51
f 29 5 48
f 50 4 51
f 26 6 56
f 5 28 52
f 32 6 57
f 6 26 57
f 9 25 57
f 38 12 56
f 6 38 56
f 12 26 56
f 25 35 45
f 41 23 55
f 19 41 55
f 23 3 55
f 3 19 55
f 21 33 54
f 33 1 54
f 20 21 54
f 1 20 54
f 27 50 53
f 50 17 53
f 39 27 53
f 2 39 53
f 17 2 53
f 13 48 52
f 48 5 52
f 36 40 52
f 40 13 52
f 28 36 52
f 17 50 51
f 35 20 45
f 16 24 38
f 20 1 45
f 25 9 35
f 7 20 35
f 8 21 34
f 21 7 34
f 11 8 34
f 7 11 34
f 21 30 33
f 25 14 32
f 18 7 31
f 21 8 30
f 11 22 29
f 31 7 35
f 22 5 29
f 16 4 24
f 10 22 23
f 11 3 23
f 22 11 23
f 20 7 21
f 2 7 18
f 3 2 17
f 7 3 11
f 2 3 7
f 47 9 57
f 25 32 57
f 8 11 29
f 14 25 45
f 9 31 35
f 4 16 36
f 40 16 44
f 14 40 44
f 16 38 44
f 38 6 44
f 32 14 44
f 6 32 44
f 15 19 43
f 4 15 43
f 40 14 42
f 13 40 42
f 10 23 41
f 15 4 36
f 19 15 41
f 36 16 40
f 12 27 39
f 2 18 39
f 24 27 38
f 27 12 38
f 15 28 37
f 28 5 37
f 22 10 37
f 5 22 37
f 10 15 37
f 28 15 36
f 15 10 41
f 26 47 57