# https://github.com/mikedh/trimesh
v -0.12849300 0.05294300 0.00493000
v -0.11277600 0.09878000 0.01671800
v -0.11277600 0.09944000 0.01213100
v -0.11277600 0.07323800 0.00296500
v -0.12587300 0.04573800 0.01213100
v -0.11801700 0.08960600 0.00362000
v -0.12587300 0.04639200 -0.00030800
v -0.12390900 0.07128000 0.01475100
v -0.11277600 0.08503000 0.01671800
v -0.11277600 0.09157500 0.00296500
v -0.11343400 0.07128000 0.01082100
v -0.12456300 0.06931600 0.00165500
v -0.12849300 0.04639200 0.01278600
v -0.11867300 0.08698800 0.01671800
v -0.12390900 0.04770700 0.00034500
v -0.12849300 0.05031900 -0.00030800
v -0.11408700 0.07913400 0.00165500
v -0.11343400 0.09944000 0.00558500
v -0.11867300 0.07651600 0.01671800
v -0.12260000 0.07716500 0.00820400
v -0.12456300 0.04639200 0.01016600
v -0.12915000 0.04573800 0.00231000
v -0.12849300 0.05162800 0.01278600
v -0.12456300 0.07063100 0.00231000
v -0.11474300 0.09681100 0.01409600
v -0.11670600 0.08568400 0.00231000
v -0.12653000 0.04836100 0.01344100
v -0.12521900 0.05948800 0.01475100
v -0.11277600 0.07258300 0.01016600
v -0.12653000 0.06146200 0.01213100
v -0.11736400 0.09157500 0.00951100
v -0.12390900 0.05031900 -0.00030800
f 4 9 29
f 13 27 28
f 23 13 28
f 8 23 28
f 19 14 28
f 9 19 27
f 27 19 28
f 13 5 27
f 5 9 27
f 17 16 26
f 9 11 29
f 14 8 28
f 15 4 29
f 6 20 31
f 21 15 29
f 1 23 30
f 23 8 30
f 24 1 30
f 8 24 30
f 18 6 31
f 20 14 31
f 14 25 31
f 25 18 31
f 4 15 32
f 15 7 32
f 7 16 32
f 17 4 32
f 10 17 26
f 11 21 29
f 16 12 26
f 3 18 25
f 6 10 26
f 12 6 26
f 16 17 32
f 3 2 4
f 4 2 9
f 3 4 10
f 9 5 11
f 9 2 14
f 10 4 17
f 10 6 18
f 9 14 19
f 8 14 20
f 5 7 21
f 11 5 21
f 3 10 18
f 7 5 22
f 7 15 21
f 2 3 25
f 20 6 24
f 8 20 24
f 12 16 24
f 16 1 24
f 14 2 25
f 22 13 23
f 1 22 23
f 1 16 22
f 16 7 22
f 5 13 22
f 6 12 24