# https://github.com/mikedh/trimesh
v -0.09247200 0.10665000 0.00296300
v -0.04728000 0.13153300 0.02064400
v -0.04728000 0.12825800 0.02392100
v -0.09247200 0.11973900 0.02850600
v -0.05645000 0.10075000 0.02784900
v -0.05580000 0.10140700 0.00427700
v -0.06824400 0.13022200 0.00558300
v -0.09247200 0.10075000 0.02981500
v -0.04728000 0.12563600 0.00493200
v -0.07085800 0.12890900 0.02850600
v -0.09247200 0.11973900 0.00624000
v -0.04728000 0.10861100 0.01998900
v -0.09247200 0.10075000 0.00362000
v -0.05580000 0.11777800 0.02915800
v -0.05841400 0.12235800 0.00296300
v -0.04728000 0.11189000 0.00755200
v -0.08723000 0.10730400 0.03047200
v -0.07871500 0.12629000 0.00492900
v -0.04728000 0.11581600 0.02588300
v -0.04728000 0.13153300 0.01082600
v -0.06038300 0.10075000 0.00362300
v -0.06889900 0.13022200 0.02719500
v -0.05580000 0.10992500 0.00296300
v -0.07478600 0.12301500 0.02981500
v -0.08133400 0.12563300 0.01016900
v -0.04728000 0.12629000 0.02588300
v -0.05448600 0.10075000 0.01213500
v -0.07871500 0.10075000 0.02981500
v -0.07151300 0.12497900 0.00362000
v -0.06365600 0.12629000 0.02915800
v -0.04728000 0.10861100 0.01213500
v -0.06431100 0.11385100 0.02981500
v -0.08657100 0.12301500 0.02719500
v -0.09247200 0.11516200 0.02981500
v -0.04728000 0.11777800 0.00493200
v -0.08133400 0.10141000 0.00296300
v -0.08854000 0.11843200 0.00427500
v -0.05645000 0.11123300 0.02915800
v -0.07347700 0.12890900 0.00951500
v -0.06628000 0.12956200 0.02785200
v -0.05776000 0.12301800 0.02915800
v -0.05514100 0.10075000 0.00558600
v -0.09247200 0.10206400 0.03047200
v -0.09181300 0.12039600 0.00951500
v -0.05580000 0.10075000 0.02719500
v -0.08067900 0.11516200 0.00296300
f 26 30 41
f 3 2 40
f 30 24 41
f 14 26 41
f 30 26 40
f 10 30 40
f 26 3 40
f 22 10 40
f 2 22 40
f 7 18 39
f 33 22 39
f 18 25 39
f 22 7 39
f 32 28 38
f 14 32 38
f 28 5 38
f 19 14 38
f 5 19 38
f 32 14 41
f 25 33 39
f 24 32 41
f 11 4 44
f 21 6 42
f 18 29 37
f 29 15 46
f 15 1 46
f 27 12 45
f 5 27 45
f 19 5 45
f 12 19 45
f 33 25 44
f 4 33 44
f 25 11 44
f 17 34 43
f 34 8 43
f 28 32 43
f 32 17 43
f 1 37 46
f 8 28 43
f 31 27 42
f 16 31 42
f 27 21 42
f 6 16 42
f 11 18 37
f 20 7 22
f 23 21 36
f 10 4 24
f 6 21 23
f 15 9 23
f 1 15 23
f 2 20 22
f 5 13 21
f 9 7 20
f 2 9 20
f 18 11 25
f 12 3 19
f 5 8 13
f 8 1 13
f 9 3 12
f 1 4 11
f 2 3 9
f 4 1 8
f 37 29 46
f 1 11 37
f 7 9 15
f 19 3 26
f 9 12 16
f 5 21 27
f 1 23 36
f 14 19 26
f 21 13 36
f 13 1 36
f 23 9 35
f 6 23 35
f 16 6 35
f 17 24 34
f 24 4 34
f 9 16 35
f 10 22 33
f 4 10 33
f 24 17 32
f 12 27 31
f 16 12 31
f 10 24 30
f 18 7 29
f 4 8 34
f 7 15 29
f 8 5 28