# https://github.com/mikedh/trimesh
v -0.10164300 0.10860300 0.00427700
v -0.11146500 0.08765600 0.03112700
v -0.11211900 0.08765600 0.03112700
v -0.11211900 0.07455700 0.00296800
v -0.09247300 0.09355100 0.02915800
v -0.09378400 0.11908600 0.02850400
v -0.09247300 0.09551300 0.00362300
v -0.11277600 0.10074200 0.00689800
v -0.11277600 0.07324600 0.03046700
v -0.09247300 0.11908600 0.00558600
v -0.10557000 0.11056900 0.02850400
v -0.11277600 0.09943600 0.02915800
v -0.10360600 0.11253600 0.00689800
v -0.11277600 0.08765600 0.00231100
v -0.09247300 0.11450200 0.02981200
v -0.09247300 0.09355100 0.00427700
v -0.09247300 0.10598600 0.00296600
v -0.11211900 0.07324600 0.02130000
v -0.09312900 0.09944100 0.03047000
v -0.11277600 0.07520800 0.00231100
v -0.10950100 0.10533100 0.00558600
v -0.10426000 0.10860300 0.02981200
v -0.10164300 0.11449800 0.01017200
v -0.11211900 0.07586300 0.03112700
v -0.09312900 0.11974100 0.00951500
v -0.09836800 0.11646400 0.02850400
v -0.09247300 0.11908600 0.02850400
v -0.10818900 0.10729700 0.02784900
v -0.11277600 0.09812500 0.00427700
v -0.11211900 0.07324600 0.03046700
v -0.10033300 0.10598600 0.03046700
v -0.09378400 0.11122500 0.00362300
v -0.10884500 0.10663700 0.00820600
v -0.11211900 0.07390100 0.00820600
v -0.09836800 0.11646400 0.00624300
f 2 19 31
f 15 22 31
f 1 10 32
f 19 15 31
f 3 2 31
f 14 8 29
f 24 9 30
f 18 5 30
f 9 18 30
f 8 21 29
f 14 1 32
f 21 1 29
f 5 24 30
f 10 17 32
f 13 23 35
f 11 13 33
f 1 14 29
f 25 10 35
f 21 13 35
f 1 21 35
f 10 1 35
f 20 4 34
f 17 14 32
f 9 20 34
f 18 9 34
f 4 16 34
f 28 11 33
f 8 28 33
f 13 21 33
f 21 8 33
f 16 18 34
f 12 11 28
f 22 3 31
f 10 25 27
f 8 12 28
f 5 7 10
f 9 3 12
f 8 9 12
f 9 8 14
f 5 10 15
f 7 5 16
f 10 7 17
f 16 5 18
f 5 15 19
f 9 14 20
f 16 4 20
f 7 16 20
f 17 7 20
f 14 17 20
f 23 25 35
f 11 12 22
f 12 3 22
f 6 15 27
f 15 10 27
f 6 25 26
f 23 11 26
f 11 22 26
f 22 6 26
f 25 6 27
f 5 19 24
f 19 2 24
f 3 9 24
f 2 3 24
f 13 11 23
f 25 23 26
f 15 6 22