# https://github.com/mikedh/trimesh
v -0.11605400 0.09288400 0.02850400
v -0.12915000 0.04508300 0.02130400
v -0.12849300 0.04442300 0.02130400
v -0.11277600 0.09878500 0.01671800
v -0.11277600 0.07192800 0.02981500
v -0.12849300 0.04705200 0.03243500
v -0.11277600 0.07258300 0.02130400
v -0.12325400 0.07323200 0.01803000
v -0.12521900 0.04508300 0.02064900
v -0.11277600 0.09354300 0.03046900
v -0.12325400 0.04835500 0.03243500
v -0.11605400 0.07781900 0.01671800
v -0.12325400 0.07127900 0.03112400
v -0.12849300 0.05032400 0.01933900
v -0.11932700 0.08502900 0.01671800
v -0.12718500 0.05752400 0.02523000
v -0.11277600 0.07323200 0.03112400
v -0.12390900 0.04639700 0.02850400
v -0.11343400 0.09747100 0.02981500
v -0.11277600 0.08502900 0.01671800
v -0.12129000 0.07913300 0.02785000
v -0.12390900 0.05752400 0.03243500
v -0.12653000 0.04573700 0.01933900
v -0.12587300 0.04508300 0.03112400
v -0.11998300 0.07520100 0.01671800
v -0.11343400 0.09878500 0.01671800
v -0.11277600 0.07192800 0.02195900
v -0.11277600 0.08568400 0.03112400
v -0.12456300 0.06800700 0.02785000
v -0.12653000 0.05621500 0.03243500
f 9 7 27
f 7 5 27
f 19 4 26
f 1 19 26
f 4 15 26
f 23 14 25
f 12 23 25
f 14 15 25
f 15 12 25
f 18 11 24
f 5 18 27
f 15 1 26
f 18 9 27
f 9 18 24
f 11 17 28
f 22 11 28
f 8 16 29
f 13 21 29
f 21 8 29
f 16 6 30
f 10 19 30
f 19 13 30
f 6 22 30
f 28 10 30
f 22 28 30
f 13 29 30
f 17 10 28
f 11 6 24
f 11 5 17
f 6 3 24
f 29 16 30
f 2 3 6
f 4 5 7
f 2 6 14
f 4 12 15
f 14 8 15
f 14 6 16
f 8 14 16
f 5 10 17
f 3 9 24
f 5 11 18
f 10 4 19
f 5 4 10
f 4 7 20
f 1 13 19
f 12 20 23
f 20 9 23
f 9 3 23
f 3 2 23
f 2 14 23
f 15 8 21
f 1 15 21
f 13 1 21
f 12 4 20
f 7 9 20
f 6 11 22