# https://github.com/mikedh/trimesh
v 0.02679400 -0.04557600 0.03338700
v -0.04691600 -0.04913200 0.03398100
v -0.04691600 -0.04913200 0.03753800
v -0.00531400 -0.08539800 0.03279300
v -0.00649700 -0.05150400 0.07261500
v -0.01124400 -0.01822700 0.01376900
v -0.01184300 -0.06220300 0.00128700
v -0.01006100 -0.01644500 0.05477300
v -0.03324400 -0.07647400 0.04229000
v -0.03442700 -0.02298400 0.05120800
v 0.01490300 -0.05269600 0.00782900
v 0.02084900 -0.05447800 0.05715600
v 0.01549500 -0.02120200 0.03219900
v -0.03739900 -0.04676800 0.00961100
v -0.03027100 -0.06339600 0.06429200
v -0.00649700 -0.07648100 0.05953200
v 0.01490300 -0.07469200 0.02863500
v 0.01430500 -0.03011900 0.05834400
v -0.03264500 -0.07171700 0.01793500
v -0.03264500 -0.02001600 0.02685200
v -0.00055100 -0.03368300 0.00307600
v -0.01421700 -0.03428700 0.07082600
v -0.00531400 -0.07707000 0.01139300
v -0.00531400 -0.01109200 0.03990700
v -0.03799800 -0.04141500 0.05953200
v -0.02075400 -0.03487600 0.00306900
v 0.01549500 -0.02893400 0.01673900
v 0.01668600 -0.07231300 0.04526100
v -0.04572600 -0.03547300 0.03457500
v 0.02500500 -0.06161400 0.03041700
v 0.00479500 -0.03785100 0.06963800
v 0.00895800 -0.06399200 0.06369000
v -0.01897200 -0.08182000 0.05120100
v 0.00420300 -0.01645200 0.02031100
v -0.02194500 -0.08241600 0.02803300
v -0.04275300 -0.06279900 0.04526800
v -0.03502600 -0.02952300 0.01555800
v -0.02432600 -0.05923500 0.00248200
v 0.00301300 -0.01883100 0.05536700
v -0.04275300 -0.06221000 0.02566400
v 0.02322300 -0.03487600 0.04645600
v 0.01014900 -0.06637100 0.01020500
v -0.02313500 -0.04795400 0.07141300
v -0.00412300 -0.04972900 -0.00050200
v -0.01957100 -0.01288800 0.03101100
v 0.00360400 -0.08063400 0.04704300
v -0.01421700 -0.06815300 0.06666100
v -0.02432600 -0.02833700 0.06429200
v -0.02075400 -0.01407400 0.04705000
v 0.02382100 -0.03903700 0.02387500
v 0.02560400 -0.05805000 0.04526800
v -0.04394400 -0.04201200 0.01971700
v 0.02203900 -0.05923500 0.01852900
v 0.01133200 -0.01823400 0.04288400
v 0.01074000 -0.03725500 0.00604700
v -0.02075400 -0.07409500 0.01139300
v 0.00004000 -0.01228500 0.02685200
v -0.04394400 -0.04439000 0.05061400
v -0.00471500 -0.02417700 0.06429200
v -0.02313500 -0.02120200 0.01377600
v 0.01430500 -0.04379400 0.06487800
v -0.02848100 -0.07112000 0.06012600
v 0.00182200 -0.06160600 0.00307600
v -0.00590500 -0.08360900 0.02210000
f 35 56 64
f 10 29 58
f 29 3 58
f 15 25 58
f 25 10 58
f 54 13 57
f 24 54 57
f 45 24 57
f 6 45 57
f 13 34 57
f 34 6 57
f 38 7 56
f 19 38 56
f 35 19 56
f 7 23 56
f 27 50 55
f 50 11 55
f 44 21 55
f 11 44 55
f 34 27 55
f 21 34 55
f 18 41 54
f 41 13 54
f 24 39 54
f 39 18 54
f 50 1 53
f 11 50 53
f 17 42 53
f 3 36 58
f 42 11 53
f 36 15 58
f 22 31 59
f 23 17 64
f 17 4 64
f 7 44 63
f 44 11 63
f 42 23 63
f 11 42 63
f 23 7 63
f 33 47 62
f 47 15 62
f 15 36 62
f 36 9 62
f 9 33 62
f 41 18 61
f 12 41 61
f 32 12 61
f 5 32 61
f 18 31 61
f 31 5 61
f 20 45 60
f 45 6 60
f 26 37 60
f 37 20 60
f 6 26 60
f 48 22 59
f 8 48 59
f 39 8 59
f 18 39 59
f 31 18 59
f 30 17 53
f 1 30 53
f 14 40 52
f 38 26 44
f 7 38 44
f 26 21 44
f 25 15 43
f 5 22 43
f 17 23 42
f 9 36 40
f 36 2 40
f 14 19 40
f 19 9 40
f 24 8 39
f 14 26 38
f 19 14 38
f 29 20 37
f 26 14 37
f 3 2 36
f 33 9 35
f 4 33 35
f 9 19 35
f 13 27 34
f 21 6 34
f 28 12 32
f 22 5 31
f 28 17 30
f 10 20 29
f 2 3 29
f 6 21 26
f 4 17 46
f 17 28 46
f 32 16 46
f 28 32 46
f 40 2 52
f 29 37 52
f 37 14 52
f 2 29 52
f 41 12 51
f 1 41 51
f 28 30 51
f 30 1 51
f 12 28 51
f 13 41 50
f 41 1 50
f 27 13 50
f 10 48 49
f 4 35 64
f 48 8 49
f 45 20 49
f 8 24 49
f 20 10 49
f 25 43 48
f 43 22 48
f 10 25 48
f 43 15 47
f 5 43 47
f 33 16 47
f 16 32 47
f 32 5 47
f 16 33 46
f 33 4 46
f 24 45 49
f 56 23 64